<svg id="Layer_1" data-name="Layer 1" xmlns="http://www.w3.org/2000/svg" viewBox="0 0 600 600"><title>Maldives</title><path d="M292.57,56a8.44,8.44,0,0,0-2.49-1.39c-.44-.2-.89-.39-1.33-.61s-.9-.45-1.22-.64A10.18,10.18,0,0,0,283,52.21a9.82,9.82,0,0,0-2.25.24,4.05,4.05,0,0,0-1.6.67.51.51,0,0,0-.19.24.44.44,0,0,0,0,.16,2.88,2.88,0,0,0,.58,1.18,13.77,13.77,0,0,0,1.61,1.69c.71.64,1.41,1.29,2.11,2s1.4,1.35,2,2a9.1,9.1,0,0,0,1.71,1.4,2,2,0,0,0,1.51.29,3.77,3.77,0,0,0,1.77-1.07,7.21,7.21,0,0,0,1.34-2.17c.36-.85.64-1.79,1-2.72a14.62,14.62,0,0,1,.31,3,7.39,7.39,0,0,1-.67,3.17,5.93,5.93,0,0,1-2.46,2.67,5.14,5.14,0,0,1-2,.62,6.16,6.16,0,0,1-2.07-.23,10.69,10.69,0,0,1-3.11-1.65c-.83-.61-1.57-1.14-2.33-1.74s-1.52-1.17-2.26-1.77a13.87,13.87,0,0,1-2.42-2.38,7,7,0,0,1-1.6-4,5.41,5.41,0,0,1,.6-2.61,5.54,5.54,0,0,1,1.69-1.88A8,8,0,0,1,280,47.85a12,12,0,0,1,9.5,2.93,7.64,7.64,0,0,1,1,1.16c.3.38.59.8.88,1.21a10.23,10.23,0,0,1,.81,1.33A2.7,2.7,0,0,1,292.57,56Z"/><path d="M309.07,66.12a4.91,4.91,0,0,1,0,3.5,8.83,8.83,0,0,1-1.88,3c-1.66,1.74-3.79,2.9-5.6,4.44A11,11,0,0,0,298,83a30.61,30.61,0,0,0-.78,7,11,11,0,0,0,.23,3.43,4.75,4.75,0,0,0,2,2.51c1.86,1.26,4.23,1.78,6.44,3a9.84,9.84,0,0,1,1.6,1.09,7.93,7.93,0,0,1,.71.71,4.68,4.68,0,0,1,.64.76l.53.84a6.65,6.65,0,0,1,.42.9,10.66,10.66,0,0,1,.59,1.87,34.93,34.93,0,0,1,.41,7.36,20.71,20.71,0,0,0,.69,6.63,7.19,7.19,0,0,0,3.87,4.29c.94.52,2,1,3.1,1.47a20.66,20.66,0,0,1,3.47,1.88,11.56,11.56,0,0,1,3,3.08,7.3,7.3,0,0,1,1.31,4.68,6.48,6.48,0,0,1-.8,2.58,10.17,10.17,0,0,1-1.4,1.82,7.19,7.19,0,0,0-1.64,2.05,1.88,1.88,0,0,0,0,.74,12.92,12.92,0,0,0,.33,1.45,11.06,11.06,0,0,1,.38,2.19,6,6,0,0,1-.5,2.85,7.15,7.15,0,0,1-3.92,3.57,9.3,9.3,0,0,1-4.74.55,13.55,13.55,0,0,1-7.64-4,21.16,21.16,0,0,1-4.44-6.7,70,70,0,0,1-2.44-7,39.9,39.9,0,0,0-2.46-6.27c-1-2-2.29-3.94-3.57-6a50.29,50.29,0,0,1-3.62-6.48,18.44,18.44,0,0,1-1.71-7.73c0-.68.11-1.36.21-2s.24-1.17.27-1.58a1.91,1.91,0,0,0-.13-1,3.94,3.94,0,0,0-.74-1.08c-.68-.75-1.69-1.68-2.47-2.65a24.28,24.28,0,0,1-5.73-17.32,20.16,20.16,0,0,1,6.34-12.91,17.48,17.48,0,0,1,6.15-3.77c1.14-.39,2.29-.7,3.4-1.12a16.55,16.55,0,0,0,3.11-1.7c1-.63,2-1.27,3.08-1.82a5.17,5.17,0,0,1,3.44-.73,4.86,4.86,0,0,1,2.61,2.34A22.17,22.17,0,0,1,309.07,66.12Zm0,0a22.22,22.22,0,0,0-1.6-3.2,4.85,4.85,0,0,0-2.59-2.3,4.93,4.93,0,0,0-3.38.78c-1,.56-2,1.22-3,1.87a18.35,18.35,0,0,1-3.1,1.81c-1.1.48-2.25.83-3.35,1.26a16.78,16.78,0,0,0-5.81,3.87,18.72,18.72,0,0,0-5.32,12.5A21.17,21.17,0,0,0,285,95.5a21.57,21.57,0,0,0,2.17,2.59c.78.84,1.59,1.46,2.59,2.4a7.2,7.2,0,0,1,1.39,1.78,5,5,0,0,1,.58,2.48,17.84,17.84,0,0,1-.18,2c0,.52,0,1-.06,1.54a14.63,14.63,0,0,0,1.75,6,60,60,0,0,0,3.67,5.8c1.34,2,2.76,3.93,4,6.15a39.36,39.36,0,0,1,3,6.93c.78,2.29,1.5,4.49,2.39,6.49a16.3,16.3,0,0,0,3.43,5.14,8.57,8.57,0,0,0,4.77,2.61,4.44,4.44,0,0,0,2.29-.19,2.48,2.48,0,0,0,1.34-1,1.18,1.18,0,0,0,.11-.63,6.55,6.55,0,0,0-.2-1.34,17.21,17.21,0,0,1-.35-2,6.19,6.19,0,0,1,.35-2.79,7.18,7.18,0,0,1,1.39-2.19c.5-.55,1-1,1.33-1.35.79-.78,1.06-1.19,1.13-1.76a3.39,3.39,0,0,0-.54-2.08,7.71,7.71,0,0,0-1.84-2.14,17.08,17.08,0,0,0-2.74-1.66c-1-.55-2.14-1.1-3.25-1.79a12.3,12.3,0,0,1-3.13-2.68,14.86,14.86,0,0,1-1.14-1.81,12.8,12.8,0,0,1-.7-2,23.31,23.31,0,0,1-.31-7.58,32.73,32.73,0,0,0,.13-6.9,8.18,8.18,0,0,0-.38-1.57,6.43,6.43,0,0,0-.65-1.44,3.18,3.18,0,0,0-.46-.63,6.05,6.05,0,0,0-.52-.6,7.16,7.16,0,0,0-1.29-1c-1.89-1.22-4.27-1.89-6.31-3.42a6.84,6.84,0,0,1-1.36-1.38,5.91,5.91,0,0,1-.81-1.77,12.41,12.41,0,0,1-.09-3.69,31.18,31.18,0,0,1,1.06-7.11,12.72,12.72,0,0,1,1.5-3.29,11.57,11.57,0,0,1,2.43-2.65c1.85-1.52,4-2.62,5.67-4.34a8.8,8.8,0,0,0,1.9-3A4.94,4.94,0,0,0,309.07,66.12Z"/><path d="M271.38,100.16c.55-.93.07-1.57-.25-2.5-.08-.22-.17-.47-.24-.72a.5.5,0,0,0-.17-.27c-.14,0-.06.1-.23.12a3.72,3.72,0,0,0-1.52.81,4.24,4.24,0,0,0-.88,1.57,17.14,17.14,0,0,1-1.25,2.8,14.42,14.42,0,0,1-2.11,2.57,13.39,13.39,0,0,0-3,3.45,2.77,2.77,0,0,0-.22.65c0,.12,0,.17,0,.21a.82.82,0,0,0,0,.21,1.59,1.59,0,0,0,.31.67s-.05,0,0,.07.16,0,.38-.07a8.55,8.55,0,0,0,1.71-1.43c2.59-2.48,5-5.22,7.51-8.14a27.7,27.7,0,0,1-4.54,10.63,10.6,10.6,0,0,1-2.22,2.53,5.1,5.1,0,0,1-2.19,1,4.75,4.75,0,0,1-2.73-.38,6,6,0,0,1-3.17-4.82,7.34,7.34,0,0,1,.05-1.18,7.53,7.53,0,0,1,.59-2,14.65,14.65,0,0,1,4.3-4.9,11.25,11.25,0,0,0,1.63-1.57,18.63,18.63,0,0,0,1.36-2.15,9.43,9.43,0,0,1,1.05-1.43A5.79,5.79,0,0,1,268.88,94a4.8,4.8,0,0,1,2,0,3.06,3.06,0,0,1,1.17.56,2.37,2.37,0,0,1,.76,1.12,3.09,3.09,0,0,1,.14,1.08l-.12.68a8.29,8.29,0,0,1-.34,1.54A1.82,1.82,0,0,1,271.38,100.16Z"/><path d="M313.14,217.22a33.68,33.68,0,0,0,.44,6.09,59.6,59.6,0,0,1,.25,6.13c0,1-.05,2.07-.11,3.09a7.36,7.36,0,0,0,.2,2.78,2.82,2.82,0,0,0,1.65,1.65,18.56,18.56,0,0,1,2.9,1.45c1,.73,1.7,1.58,2.37,2.11a2.85,2.85,0,0,0,1.86.76,4,4,0,0,0,2-.45,5.28,5.28,0,0,0,1.71-1.36,15.76,15.76,0,0,0,2.46-4.61,16.62,16.62,0,0,1,1.57-3.18,7.89,7.89,0,0,1,1.47-1.64,6.25,6.25,0,0,1,2.25-1.2,9.11,9.11,0,0,1,2-.27,4,4,0,0,0,.88-.11,2.31,2.31,0,0,0,1.11-.83,2.1,2.1,0,0,0,.42-1.31,3.66,3.66,0,0,0-.66-1.79,16.74,16.74,0,0,0-1.67-2.13c-.73-.83-1.38-1.65-2-2.46-1.26-1.64-2.44-3.28-3.7-4.83a27.17,27.17,0,0,0-4.1-4.26,8.08,8.08,0,0,0-2.47-1.39,5.86,5.86,0,0,0-2.83-.23A9.53,9.53,0,0,0,316,212,9.23,9.23,0,0,0,313.14,217.22Zm0,0a10,10,0,0,1,2.68-5.4,10.89,10.89,0,0,1,5.22-3.26,9.25,9.25,0,0,1,1.59-.26,7.45,7.45,0,0,1,1.63.11,9.13,9.13,0,0,1,3,1.18,29.8,29.8,0,0,1,5.08,3.78c1.56,1.38,3.05,2.82,4.5,4.22.73.7,1.45,1.39,2.16,2a17,17,0,0,1,2.42,2.39,7.92,7.92,0,0,1,1.75,3.76,6.6,6.6,0,0,1-1,4.51,6.84,6.84,0,0,1-3.59,2.9,8.36,8.36,0,0,1-2.12.39,5.47,5.47,0,0,0-1,.11,1.87,1.87,0,0,0-1,.85,14.16,14.16,0,0,0-1.22,2.25,17.2,17.2,0,0,1-3.85,5.77,8.79,8.79,0,0,1-3.36,2,7.71,7.71,0,0,1-4,.23,6.2,6.2,0,0,1-3.42-2.08c-.77-.91-1.27-1.74-1.83-2.31a19,19,0,0,0-2.35-1.68,5.69,5.69,0,0,1-1.32-1.24,4.35,4.35,0,0,1-.75-1.73,8.68,8.68,0,0,1,.19-3.29c.19-1,.38-2,.49-3a36.31,36.31,0,0,0,.25-6.08C313.37,221.29,312.9,219.26,313.14,217.22Z"/><path d="M315.72,271.18a2.36,2.36,0,0,0,1.41,1.13,3.16,3.16,0,0,0,1.8-.21,4.74,4.74,0,0,0,2.35-2.61,7.75,7.75,0,0,0,.51-1.7,8.81,8.81,0,0,0,.11-.88c0-.32.07-.67.13-1,.23-1.3.56-2.53.89-3.75a57,57,0,0,0,1.61-7,5.55,5.55,0,0,0-.13-2.5,1.11,1.11,0,0,0-.34-.41,2.16,2.16,0,0,0-.73-.34,10.37,10.37,0,0,0-2.83-.33,4.93,4.93,0,0,0-2.32.51c-1.45.75-2.76,2.67-3.49,4.88a19,19,0,0,0-1,7.13A14.38,14.38,0,0,0,315.72,271.18Zm0,0a22.59,22.59,0,0,1-2.7-6.95,27.54,27.54,0,0,1-.8-7.7,14.23,14.23,0,0,1,.79-4.08,9.08,9.08,0,0,1,2.64-3.84,8.34,8.34,0,0,1,4.64-1.83,12.53,12.53,0,0,1,4.54.39,6.84,6.84,0,0,1,2.52,1.42,5.83,5.83,0,0,1,1.65,2.68,8.8,8.8,0,0,1-.28,4.87,34.17,34.17,0,0,1-3.51,7,34.76,34.76,0,0,0-1.75,3.2c-.12.28-.22.54-.32.82s-.22.63-.35.93a11,11,0,0,1-.91,1.73,5.81,5.81,0,0,1-2.89,2.45,3.5,3.5,0,0,1-1.87.09A2.4,2.4,0,0,1,315.72,271.18Z"/><path d="M271.44,246.77q.44,8.11,1.2,16.23l.83,8.1c.42,2.73,0,5.71.95,7.67a4.48,4.48,0,0,0,2.23,2.08,6.39,6.39,0,0,0,3.16.46,7.46,7.46,0,0,0,3.05-1,6.25,6.25,0,0,0,2.05-2.23,15.72,15.72,0,0,0,.84-1.59l.83-1.8c.55-1.19,1.05-2.39,1.5-3.57a21.22,21.22,0,0,0,1.49-7.07,16.63,16.63,0,0,0-.28-3.51c-.24-1.24-.52-2.5-.85-3.8s-.66-2.64-1-4c-.14-.71-.28-1.37-.39-2.15a22,22,0,0,1-.18-2.25c-.06-1.46,0-2.83,0-4.13,0-.64,0-1.27-.05-1.88s-.12-1.34-.18-2a24.69,24.69,0,0,0-1.51-7.5,8.62,8.62,0,0,0-5.16-4.89,4.21,4.21,0,0,0-3.44.22,6.74,6.74,0,0,0-2.54,2.78,23.77,23.77,0,0,0-2.24,7.7A44.86,44.86,0,0,0,271.44,246.77Zm0,0a58.07,58.07,0,0,1,.21-8.13,27.48,27.48,0,0,1,1.81-8,8,8,0,0,1,2.58-3.4,5.55,5.55,0,0,1,4.4-.75,10.86,10.86,0,0,1,4,1.83,11.26,11.26,0,0,1,3,3.36,26.69,26.69,0,0,1,2.75,8.13c.14.7.27,1.29.41,2s.21,1.47.28,2.17c.13,1.42.21,2.76.35,4a46.75,46.75,0,0,0,1.87,7.46c.38,1.32.77,2.68,1.06,4.11a21.77,21.77,0,0,1,.41,4.57,23.84,23.84,0,0,1-2,8.73c-.56,1.34-1.2,2.61-1.85,3.84-.33.62-.66,1.22-1,1.83a19.58,19.58,0,0,1-1.21,1.92,9.54,9.54,0,0,1-6.18,4.06,11.17,11.17,0,0,1-2.4.23,9.36,9.36,0,0,1-4.68-1.31,7.93,7.93,0,0,1-1.9-1.62,6.7,6.7,0,0,1-1.23-2.19,11.45,11.45,0,0,1-.33-4.48,36.29,36.29,0,0,0,.21-4l0-8.15C271.9,257.61,271.72,252.18,271.44,246.77Z"/><path d="M280,293.74a8.09,8.09,0,0,0-1.21,8.51c.61,1.36,1.53,2.6,2.13,4.16a6.55,6.55,0,0,1,.46,2.61,9.76,9.76,0,0,1-.55,2.54l-.35,1.09a7.85,7.85,0,0,0-.24,1,2.48,2.48,0,0,0,.15,1.39c.17.31.25.2.34.17a5.52,5.52,0,0,0,.92-.38,7.38,7.38,0,0,0,.79-.45l1-.59c.66-.39,1.31-.79,2-1.17,1.35-.78,2.62-1.5,4.06-2.26,1.62-.8,3.08-1.25,4.29-1.77a5.16,5.16,0,0,0,2.45-1.76,4.78,4.78,0,0,0,.57-3.13,9.71,9.71,0,0,0-1.37-3.73,13.67,13.67,0,0,0-2.7-3.34,12.54,12.54,0,0,0-3.77-2.28,15.38,15.38,0,0,0-4.42-1,21.94,21.94,0,0,0-2.29-.11,8.75,8.75,0,0,0-1.14.09A2,2,0,0,0,280,293.74Zm0,0a2,2,0,0,1,1.05-.43,8.64,8.64,0,0,1,1.14-.12c.76,0,1.53,0,2.3,0a21.24,21.24,0,0,1,4.61.48,15.79,15.79,0,0,1,8.28,4.77,12.34,12.34,0,0,1,2.77,4.39,8.42,8.42,0,0,1-.08,5.85,6.93,6.93,0,0,1-1.88,2.62,11.17,11.17,0,0,1-2.37,1.61c-1.55.81-3,1.3-4.13,1.89l-2,1-2.06,1c-.68.34-1.38.65-2.07,1l-1.07.49a12.15,12.15,0,0,1-1.3.51,5.61,5.61,0,0,1-3.56.11,4,4,0,0,1-1.79-1.23,4.1,4.1,0,0,1-.83-1.81,5.66,5.66,0,0,1,.36-3.14,10,10,0,0,1,.59-1.18l.59-1a4.93,4.93,0,0,0,.92-3.74c-.26-1.39-.89-2.83-1.33-4.34A9.46,9.46,0,0,1,280,293.74Z"/><path d="M316.76,331.19a13.34,13.34,0,0,0,.14,3,4.15,4.15,0,0,0,1.45,2.55l-.05,0a2,2,0,0,0,1.83-.64,6.22,6.22,0,0,0,1.11-1.79,6.64,6.64,0,0,1,1.3-2,6,6,0,0,1,2.15-1.29c1.53-.56,3.1-.7,4.26-1.17a2.77,2.77,0,0,0,1.9-2.2,13.22,13.22,0,0,0,.22-3.82c0-.71,0-1.46,0-2.26,0-.4,0-.82.06-1.24l.09-1.11a8.52,8.52,0,0,0-.1-3.32,5,5,0,0,0-1.83-2.15,21.59,21.59,0,0,0-3.37-2A28.31,28.31,0,0,0,322.3,310a4.56,4.56,0,0,0-1.45-.23,1.33,1.33,0,0,0-.92.35,3.41,3.41,0,0,0-.77,1.39,12.38,12.38,0,0,0-.46,2c-.46,2.93-.88,5.86-1.22,8.8S316.91,328.24,316.76,331.19Zm0,0c.13-2.95.18-5.91.13-8.87s-.19-5.93-.37-8.9a13.74,13.74,0,0,1,0-2.39,6.41,6.41,0,0,1,.84-2.7,4.56,4.56,0,0,1,2.7-2,7.9,7.9,0,0,1,3-.18,13.24,13.24,0,0,1,2.55.6c.77.27,1.44.5,2.16.78a20.37,20.37,0,0,1,4.4,2.21,12.18,12.18,0,0,1,2.08,1.85,7.73,7.73,0,0,1,1.58,2.76,8.51,8.51,0,0,1,.36,3,18.9,18.9,0,0,1-.29,2.46l-.19,1.09c-.06.31-.11.63-.15,1-.1.67-.17,1.4-.25,2.16a16.65,16.65,0,0,1-1.23,4.88,6.53,6.53,0,0,1-1.86,2.3,5.68,5.68,0,0,1-2.63,1.07c-1.7.26-3.14.06-4.47.26a4.67,4.67,0,0,0-1.79.67,5.71,5.71,0,0,0-1.37,1.5,6.84,6.84,0,0,1-1.48,1.77,2.44,2.44,0,0,1-2.24.53h0l0,0a4.51,4.51,0,0,1-1.33-2.74A14.17,14.17,0,0,1,316.76,331.19Z"/><path d="M298.45,373.46a6.26,6.26,0,0,1-5.14-.66,10.76,10.76,0,0,1-3.7-3.88,24.67,24.67,0,0,1-2.09-5l-.83-2.54c-.27-.81-.59-1.66-.86-2.57a10.85,10.85,0,0,1-.26-6.07,8,8,0,0,1,1.63-3,9.15,9.15,0,0,1,2.67-2.09,16.55,16.55,0,0,1,5.88-1.63,34.51,34.51,0,0,1,5.65-.07c1.83.12,3.63.33,5.32.52.38.05.93.09,1.43.18a13.49,13.49,0,0,1,1.51.31,12.16,12.16,0,0,1,3,1.18,7.67,7.67,0,0,1,4,5.55,6.81,6.81,0,0,1-.42,3.37,11.21,11.21,0,0,1-1.45,2.65,28.24,28.24,0,0,1-3.75,4.08l-3.88,3.67C304.55,369.83,301.8,372.22,298.45,373.46Zm0,0c3.35-1.25,6-3.83,8.21-6.51s4.59-5.57,6-8.55a5.71,5.71,0,0,0,.6-4.08,3.23,3.23,0,0,0-.93-1.4,5.36,5.36,0,0,0-1.58-.95,11.16,11.16,0,0,0-2-.54c-.36-.05-.73-.1-1.1-.12l-1.23-.06c-1.84-.09-3.55-.26-5.26-.35-3.36-.2-6.78-.31-9.41.62a4.66,4.66,0,0,0-2.83,2.37,8.08,8.08,0,0,0-.58,4.42c.08.83.23,1.69.35,2.6s.22,1.78.35,2.65a21.1,21.1,0,0,0,1.25,5.05,9.29,9.29,0,0,0,1.3,2.24,7.84,7.84,0,0,0,1.88,1.8A5.85,5.85,0,0,0,298.45,373.46Z"/><path d="M322.79,377.14c-2.64,1.83-4.71,4.33-7.49,6.08-1.37.88-2.78,1.69-4,2.6a7.22,7.22,0,0,0-2.62,3.29,7.07,7.07,0,0,0-.36,3.91,3.24,3.24,0,0,0,.67,1.42,3.76,3.76,0,0,0,.54.5,8,8,0,0,0,.74.51,5.4,5.4,0,0,0,3.1.9,2,2,0,0,0,1-.36,7.92,7.92,0,0,0,.75-.58c.32-.25.67-.54,1.11-.84a6.72,6.72,0,0,1,1.61-.82,5.83,5.83,0,0,1,2-.34,9.76,9.76,0,0,1,3,.59,10.86,10.86,0,0,0,1.72.47c.31,0,.34.08.66-.12a1.55,1.55,0,0,0,.65-.91,7.4,7.4,0,0,0,.32-1.94l.13-2.44c0-.21,0-.46.07-.68l.09-.61.19-1.21a32.52,32.52,0,0,1,1.14-4.85,18.8,18.8,0,0,1,.92-2.33,22.33,22.33,0,0,0,1.08-2.1,1.71,1.71,0,0,0,0-1,1.89,1.89,0,0,0-.64-.85A2.8,2.8,0,0,0,327,375,12.62,12.62,0,0,0,322.79,377.14Zm0,0a15.32,15.32,0,0,1,4.21-2.32,3.22,3.22,0,0,1,2.44.29,2.45,2.45,0,0,1,.9,1,2.21,2.21,0,0,1,.16,1.36c-.17.88-.56,1.62-.74,2.34a17.86,17.86,0,0,0-.45,2.27,26.93,26.93,0,0,0-.11,4.67l.06,1.19,0,.59.06.52c.09.72.26,1.51.35,2.37a11.09,11.09,0,0,1,0,2.84,6.68,6.68,0,0,1-.45,1.68,5.28,5.28,0,0,1-1.09,1.6,5,5,0,0,1-1.66,1.16,5,5,0,0,1-2,.43,10.45,10.45,0,0,1-3-.45,6.89,6.89,0,0,0-1.69-.28,1,1,0,0,0-.33.06,2.43,2.43,0,0,0-.52.29q-.35.23-.81.6a12,12,0,0,1-1.18.85,6.71,6.71,0,0,1-3.55,1,9.13,9.13,0,0,1-5.79-2.26,8.31,8.31,0,0,1-1.09-1,7.73,7.73,0,0,1-.95-1.37,7,7,0,0,1-.8-3.12,9.79,9.79,0,0,1,1.6-5.37,8.18,8.18,0,0,1,1.85-2.07,12.37,12.37,0,0,1,2.21-1.37c1.5-.76,3-1.25,4.47-1.93C317.87,381.33,320.16,379,322.79,377.14Z"/><path d="M328.13,456.22a71.64,71.64,0,0,0-4.81-7,20.54,20.54,0,0,1-3.88-7.6,4.83,4.83,0,0,0-5-4.63,10.46,10.46,0,0,0-3.74.46,6.06,6.06,0,0,0-2.84,1.71,3.73,3.73,0,0,0-.77,2.62,3.63,3.63,0,0,0,.36,1.31c.21.48.54,1.07.87,1.78a8.65,8.65,0,0,1,.84,2.78,5.6,5.6,0,0,1-1,3.77,7.44,7.44,0,0,1-2.59,2.22,16.15,16.15,0,0,1-2.34,1c-1.54.55-2.87.91-3.9,1.33a5.85,5.85,0,0,0-1.24.65,2,2,0,0,0-.55.57,1,1,0,0,1-.08.14l-.17.34c-.1.24-.21.47-.29.72a13.07,13.07,0,0,0-.45,1.53,19.1,19.1,0,0,0-.41,3.53c0,.63,0,1.29-.05,1.94v2a33.26,33.26,0,0,0,.24,3.73,11.5,11.5,0,0,0,.82,3.12,8,8,0,0,0,1.62,2.42A4.65,4.65,0,0,0,301,478a9.82,9.82,0,0,0,3.34,0c1.27-.18,2.72-.45,4.1-.68l4.18-.72,4.18-.71a28.25,28.25,0,0,0,4-.88,21.83,21.83,0,0,0,3.7-1.7,24,24,0,0,0,3.49-2.22,8.91,8.91,0,0,0,2.62-3.08,6.79,6.79,0,0,0,.61-4A24.31,24.31,0,0,0,328.13,456.22Zm0,0c.67,1.23,1.36,2.47,1.93,3.76a17.45,17.45,0,0,1,1.38,4,7.67,7.67,0,0,1-.35,4.26,10.6,10.6,0,0,1-2.49,3.57,29.11,29.11,0,0,1-3.33,2.77,27.33,27.33,0,0,1-3.68,2.38,32.4,32.4,0,0,1-4.09,1.65l-4,1.41-4,1.4c-1.35.47-2.62.95-4.09,1.4a14.39,14.39,0,0,1-5,.7,10,10,0,0,1-5.42-2.06,13,13,0,0,1-3.56-4.18,16.7,16.7,0,0,1-1.72-4.9,31.75,31.75,0,0,1-.5-4.69l0-2.2c0-.75,0-1.5,0-2.28a25.68,25.68,0,0,1,.67-4.84,15.53,15.53,0,0,1,.84-2.49c.17-.41.37-.81.57-1.21l.33-.59c.15-.25.33-.5.5-.75a8.24,8.24,0,0,1,2.54-2.25,12.82,12.82,0,0,1,2.6-1.12c1.63-.52,3.08-.7,4.23-1,.61-.15,1.19-.32,1.6-.46a5.54,5.54,0,0,0,.73-.34c.06,0,.13,0,.18-.2a3.27,3.27,0,0,0-.2-1.3c-.18-.61-.42-1.3-.64-2.16a8,8,0,0,1-.22-2.86,7.52,7.52,0,0,1,2.54-4.94,9.25,9.25,0,0,1,4.67-1.93,13.73,13.73,0,0,1,4.66.2,7.88,7.88,0,0,1,4.14,2.24,5.36,5.36,0,0,1,1.13,2.11,18.36,18.36,0,0,1,.38,2.17,17.52,17.52,0,0,0,3.14,7.63C325,451.5,326.77,453.74,328.13,456.22Z"/><path d="M317,161.92a9.93,9.93,0,0,0-1.24,2.56,16.15,16.15,0,0,0-.48,2.82,2.8,2.8,0,0,0,.88,2.48,3.13,3.13,0,0,0,2.52.52,15,15,0,0,0,2.58-1.07,10.37,10.37,0,0,1,2.91-1,4,4,0,0,1,1.79.16,3.27,3.27,0,0,1,1.56,1.17,3.71,3.71,0,0,1,.75,1.78,6.58,6.58,0,0,1,0,1.77c0,.27-.08.55-.12.79l-.1.68c-.06.45-.11.89-.14,1.34a24,24,0,0,0,0,2.68l0,.66c0,.2,0,.4.07.59a7.16,7.16,0,0,0,.27,1,2.46,2.46,0,0,0,.41.73,1.06,1.06,0,0,0,.39.28,2.36,2.36,0,0,0,.57.1c.29,0,.7,0,1.06,0a8.82,8.82,0,0,0,2.2-.42,10.4,10.4,0,0,0,3.92-2.28,5.89,5.89,0,0,0,1.25-1.53,4.57,4.57,0,0,0,.48-1.76,15.59,15.59,0,0,0-.59-4.85,16.92,16.92,0,0,0-1.94-4.75,17.78,17.78,0,0,0-3.37-4.1c-1.36-1.27-2.87-2.48-4.32-3.8a25.78,25.78,0,0,1-2.08-2.1c-.7-.73-1.11-1.69-1.82-2a2.18,2.18,0,0,0-2.35.57,12.48,12.48,0,0,0-1.68,2.27c-.5.82-1.13,1.56-1.7,2.32Zm0,0c1.1-1.57,2.31-3.07,3.27-4.72a14.9,14.9,0,0,1,1.55-2.46,2.82,2.82,0,0,1,2.87-.94,3.48,3.48,0,0,1,1.33.92c.35.36.65.66,1,1a24.72,24.72,0,0,0,2.25,1.67c1.58,1,3.26,1.92,4.93,3a20,20,0,0,1,4.68,4,19.34,19.34,0,0,1,3.21,5.46,17,17,0,0,1,1.29,6.42,8.81,8.81,0,0,1-.89,3.78,10.53,10.53,0,0,1-2.27,3,14.09,14.09,0,0,1-6,3.25,12.65,12.65,0,0,1-3.47.37,10.55,10.55,0,0,1-1.8-.2,5.75,5.75,0,0,1-2.12-.86,5,5,0,0,1-1.61-1.74,6.75,6.75,0,0,1-.69-1.92,9.33,9.33,0,0,1-.17-1.79c0-.29,0-.57,0-.85l.07-.77a22.12,22.12,0,0,1,.55-3c.12-.5.27-1,.42-1.48l.45-1.32a2.67,2.67,0,0,0,0-2,1.61,1.61,0,0,0-1.6-.93,9.25,9.25,0,0,0-2.63.47,19.25,19.25,0,0,1-2.86.74,3.78,3.78,0,0,1-2.87-.9,3.16,3.16,0,0,1-.79-2.78,19.38,19.38,0,0,1,.6-2.82A10.2,10.2,0,0,1,317,161.92Z"/><path d="M319.11,190.4a3.19,3.19,0,0,0,0,2.67,2.69,2.69,0,0,0,2.14,1.16,9.3,9.3,0,0,0,2.51-.32l1.29-.27a.54.54,0,0,0,.25-.09s0,0,0,0a.87.87,0,0,0,.11-.43,1.56,1.56,0,0,0-.19-.73,9.36,9.36,0,0,0-1.53-2,3.17,3.17,0,0,0-2.27-1.08,3.7,3.7,0,0,0-1.36.18A1.54,1.54,0,0,0,319.11,190.4Zm0,0a1.82,1.82,0,0,1,.94-1,5.89,5.89,0,0,1,1.36-.46,4.59,4.59,0,0,1,3,.31,8,8,0,0,1,2.68,1.72,3.61,3.61,0,0,1,.91,1.82,3.15,3.15,0,0,1-.48,2.26,2.63,2.63,0,0,1-1,.89,3.11,3.11,0,0,1-1.09.29c-.55,0-1,0-1.5,0a7.73,7.73,0,0,1-3.06-.72,4,4,0,0,1-2.08-2.3A4.56,4.56,0,0,1,319.11,190.4Z"/><path d="M319.89,200.39a3.16,3.16,0,0,0-1.54,1.39,2,2,0,0,0-.06,1.94c.7,1.16,2.17,1.48,3.47,1.62a41.29,41.29,0,0,0,4.16,0c.36,0,.73,0,1.1,0s.78.05,1.07.08a4.82,4.82,0,0,0,1.62-.11,1.72,1.72,0,0,0,.93-.62.87.87,0,0,0,0-.87,3.7,3.7,0,0,0-1.07-1.28,11.63,11.63,0,0,0-1.64-1.14,11.5,11.5,0,0,0-1.85-.86,13.44,13.44,0,0,0-2-.45A8.6,8.6,0,0,0,319.89,200.39Zm0,0a12.94,12.94,0,0,1,4.2-.64,13.27,13.27,0,0,1,4.36.49,11.17,11.17,0,0,1,2.13.83,5.53,5.53,0,0,1,2,1.62,3.06,3.06,0,0,1,.56,1.51l0,.43-.07.42a2.5,2.5,0,0,1-.27.81,3.84,3.84,0,0,1-2.37,1.88,6.09,6.09,0,0,1-2.6.1c-.41-.06-.69-.13-1-.18l-1-.17a24.25,24.25,0,0,1-4.27-.93,8.74,8.74,0,0,1-2-1,3.66,3.66,0,0,1-1.47-1.71,2.42,2.42,0,0,1,.3-2.13A3.56,3.56,0,0,1,319.89,200.39Z"/><path d="M275.47,174.2a8.27,8.27,0,0,0-1.42,5.41,7.32,7.32,0,0,0,.77,2.68,17.23,17.23,0,0,0,1.59,2.34c.59.76,1.12,1.62,1.66,2.34a5.49,5.49,0,0,0,2,1.63,7.16,7.16,0,0,0,7.06-.79,11.6,11.6,0,0,0,1.77-1.75,15.15,15.15,0,0,1,2.32-2.24,8.48,8.48,0,0,1,1.62-.93c.54-.24,1-.41,1.42-.56a6.59,6.59,0,0,0,1-.49c.33-.18.67-.4,1-.64l2.34-1.58c1.6-1.07,3.2-2,4.54-3.08a10.82,10.82,0,0,0,3.1-3.3,5.34,5.34,0,0,0,.36-.87,5,5,0,0,0,.19-.85,2.61,2.61,0,0,0-.12-1s0-.09-.26-.19a6,6,0,0,0-1.11-.22,25.89,25.89,0,0,0-2.68-.25c-1.81-.08-3.69-.05-5.59,0s-3.85.16-5.79.17-3.87-.18-5.75-.14a16.75,16.75,0,0,0-5.58.88,9.29,9.29,0,0,0-4.48,3.4Zm0,0a10.46,10.46,0,0,1,1.95-2.09,11.82,11.82,0,0,1,2.46-1.48,21.11,21.11,0,0,1,5.6-1.4c1.91-.27,3.83-.37,5.68-.68s3.7-.75,5.59-1.16a57.66,57.66,0,0,1,5.79-1c1-.09,2-.17,3-.17a10.23,10.23,0,0,1,1.74.1,4.52,4.52,0,0,1,2.28,1,5.07,5.07,0,0,1,1.43,2.07,6.33,6.33,0,0,1,.41,2.14,8.84,8.84,0,0,1-.21,2,8.55,8.55,0,0,1-.6,1.81,14.07,14.07,0,0,1-4.43,5.19,47.43,47.43,0,0,1-5,3.2c-.84.5-1.63.94-2.53,1.44a14.57,14.57,0,0,1-1.48.72,11.36,11.36,0,0,1-1.64.56l-1.29.32a4.27,4.27,0,0,0-.93.35,11.54,11.54,0,0,0-2,1.47,13.52,13.52,0,0,1-2.68,1.83,9.63,9.63,0,0,1-3.19.92,9,9,0,0,1-6.15-1.44,6.93,6.93,0,0,1-2.1-2.32c-.49-.9-.82-1.75-1.32-2.55a20.23,20.23,0,0,1-1.38-2.56,8.38,8.38,0,0,1-.6-2.83A9,9,0,0,1,275.47,174.2Z"/><path d="M280.09,197.62a2.38,2.38,0,0,0,.17.88,1.43,1.43,0,0,0,.59.65,3.45,3.45,0,0,0,1.71.37,14,14,0,0,0,3.55-.4A7.51,7.51,0,0,0,289,198a1.29,1.29,0,0,0,.46-.71,1.17,1.17,0,0,0-.14-.62,5.06,5.06,0,0,0-1.9-1.77,8.43,8.43,0,0,0-3-1.16,3.8,3.8,0,0,0-3.15.68A4,4,0,0,0,280.09,197.62Zm0,0a5.48,5.48,0,0,1,.9-3.51,5.34,5.34,0,0,1,3.42-1.91,8.42,8.42,0,0,1,4.07.3,6,6,0,0,1,3.54,2.81,3.54,3.54,0,0,1-1.69,4.88,5.62,5.62,0,0,1-2.19.5,17.67,17.67,0,0,1-1.94-.08,27.34,27.34,0,0,1-3.69-.68,4.86,4.86,0,0,1-1.72-.69A1.88,1.88,0,0,1,280.09,197.62Z"/><path d="M284.39,320.3a2.48,2.48,0,0,0-1.63.51,3.82,3.82,0,0,0-.89,1.47,13.54,13.54,0,0,0-.88,3.36,32.77,32.77,0,0,0,0,6.93,14.51,14.51,0,0,0,.62,3.16,7.38,7.38,0,0,0,.55,1.32,2.68,2.68,0,0,0,.65.78,3.41,3.41,0,0,0,1.81.72,5.59,5.59,0,0,0,2.25-.24,4.81,4.81,0,0,0,1-.46,4.21,4.21,0,0,0,.85-.64,7.94,7.94,0,0,0,1.46-2.14A15.79,15.79,0,0,0,291.6,329a14,14,0,0,0-1.07-6.61,3.89,3.89,0,0,0-2.66-1.87A11.92,11.92,0,0,0,284.39,320.3Zm0,0a16.58,16.58,0,0,1,3.52,0,4.76,4.76,0,0,1,3.18,1.65,13.09,13.09,0,0,1,1.82,3.21,26.52,26.52,0,0,1,1.18,3.49,15.63,15.63,0,0,1,.18,7.79,10.14,10.14,0,0,1-1.94,3.94,8,8,0,0,1-1.82,1.62,8.87,8.87,0,0,1-6.83,1.24,7.21,7.21,0,0,1-4.18-2.67,4.84,4.84,0,0,1-.65-1.09,5.48,5.48,0,0,1-.42-1.15,9.94,9.94,0,0,1-.3-2.09,17.1,17.1,0,0,1,.35-3.84c.23-1.21.54-2.36.84-3.52s.63-2.31,1-3.44a23.05,23.05,0,0,1,1.38-3.27,4.2,4.2,0,0,1,1-1.44A2.58,2.58,0,0,1,284.39,320.3Z"/><path d="M309.25,524.6a3.3,3.3,0,0,0,1.59,1,5.34,5.34,0,0,0,5.18-.93,1.37,1.37,0,0,0,.46-.5c.07-.16,0-.19-.09-.24a3.52,3.52,0,0,1-.36-1,7,7,0,0,0-1.15-2.24,5.63,5.63,0,0,0-1.71-1.57,4.65,4.65,0,0,0-1.28-.54,3.93,3.93,0,0,1-.56-.19l-.26,0c-.09,0-.17,0-.28,0a2.38,2.38,0,0,0-1.2.86,4.54,4.54,0,0,0-.79,1.62A4.63,4.63,0,0,0,309.25,524.6Zm0,0a8,8,0,0,1-1.13-3.76,7.77,7.77,0,0,1,.08-2.14,4.81,4.81,0,0,1,1-2.26,6.26,6.26,0,0,1,.53-.5c.2-.14.42-.28.64-.41a7.34,7.34,0,0,1,1.35-.45,6.45,6.45,0,0,1,2.56-.11,6.91,6.91,0,0,1,4.57,2.75,7.39,7.39,0,0,1,1.43,4.95,7.3,7.3,0,0,1-.17,1.26,4.83,4.83,0,0,1-.61,1.53,3.16,3.16,0,0,1-1.35,1.21,4,4,0,0,1-1.27.37,9.34,9.34,0,0,1-4.32-.42,10.8,10.8,0,0,1-1.83-.81A4.41,4.41,0,0,1,309.25,524.6Z"/><path d="M310.85,535a6.72,6.72,0,0,0-2.74,1.64,4.57,4.57,0,0,1-1.49.76,2.38,2.38,0,0,1-1.76-.26,9,9,0,0,0-1.36-.78,3.37,3.37,0,0,0-1.38-.25,2.19,2.19,0,0,0-1.14.32,1.23,1.23,0,0,0-.51.72,5,5,0,0,0-.09,1.13c0,.48,0,1,.06,1.54,0,1,.13,2,.24,3.06a15.47,15.47,0,0,0,.45,2.69,2.45,2.45,0,0,0,.78,1.34,3.42,3.42,0,0,0,1.68.6c.42.06.89.13,1.41.18s.82,0,.71.13.27-.05.73-.43l1.32-1,2.65-1.87a10.74,10.74,0,0,0,2.22-2,3.65,3.65,0,0,0,.67-1.26,8.18,8.18,0,0,0,.3-1.52,7.24,7.24,0,0,0-.31-3.13,3.32,3.32,0,0,0-.9-1.29A2.31,2.31,0,0,0,310.85,535Zm0,0a2.3,2.3,0,0,1,1.56.31,3.63,3.63,0,0,1,1,1.26,10,10,0,0,1,.84,3.2,12,12,0,0,1,.06,1.7,5.8,5.8,0,0,1-.39,1.79,13.41,13.41,0,0,1-1.76,3.07l-2,2.63-1,1.28c-.17.21-.33.42-.6.7a4.12,4.12,0,0,1-1.19.87,6.48,6.48,0,0,1-2.48.5,15.66,15.66,0,0,1-1.82,0,7.52,7.52,0,0,1-4.34-1.52,6.49,6.49,0,0,1-1.62-2,7.69,7.69,0,0,1-.71-2.16,13.18,13.18,0,0,1-.05-3.75,24.16,24.16,0,0,1,.59-3.4c.13-.57.28-1.08.46-1.68a6.2,6.2,0,0,1,.92-1.92,3.45,3.45,0,0,1,1.95-1.29,4.1,4.1,0,0,1,2,.07,5.27,5.27,0,0,1,1.67.8,14.57,14.57,0,0,1,1.24,1.14c.68.71,1.87.47,2.76-.08A8.18,8.18,0,0,1,310.85,535Z"/></svg>