<svg id="Layer_1" data-name="Layer 1" xmlns="http://www.w3.org/2000/svg" viewBox="0 0 600 600"><title>Mauritius</title><path d="M405.64,114.12a58.77,58.77,0,0,0,2.16,6,42.29,42.29,0,0,0,3,5.6,82.11,82.11,0,0,0,7.41,10.14,48.87,48.87,0,0,0,9.26,8.24,46.88,46.88,0,0,0,11,5.47c3.91,1.41,8,2.58,12.05,4a49.43,49.43,0,0,1,12.08,5.78,27.42,27.42,0,0,1,2.78,2.23c.44.4.84.88,1.26,1.32a10.82,10.82,0,0,1,1.19,1.41l1.07,1.51c.36.51.6,1.09.91,1.63a16.68,16.68,0,0,1,1.45,3.53,21.44,21.44,0,0,1-1.34,15,20.8,20.8,0,0,1-4.61,6.36,17.59,17.59,0,0,1-1.55,1.31c-.53.39-1.19.86-1.52,1.08a25.12,25.12,0,0,0-2.15,1.65,5.4,5.4,0,0,0-2,2.78,1.72,1.72,0,0,0,.1.85,2.15,2.15,0,0,0,.48.88,2.3,2.3,0,0,0,1.66.81,2.6,2.6,0,0,0,.72-.21c.44-.15,1.3-.55,2.62-1,.33-.12.68-.23,1.06-.34s.88-.23,1.33-.31a13.64,13.64,0,0,1,2.84-.21,19.66,19.66,0,0,1,4.65.76c.57.15,1.32.38,2,.61s1.3.49,1.94.77a29.78,29.78,0,0,1,3.65,2,27.48,27.48,0,0,1,6.32,5.52c.46.57.91,1.14,1.33,1.75.22.29.41.61.61.93l.3.47.24.42.94,1.67.84,1.67c2.12,4.45,3.5,8.78,4.91,12.51.7,1.87,1.42,3.61,2.18,5.16a23.35,23.35,0,0,0,2.49,4A22.49,22.49,0,0,0,504.4,241c1.28,1.11,2.8,2.27,4.47,3.55s3.51,2.69,5.41,4.37c.94.82,1.91,1.76,2.86,2.75.48.5,1,1.15,1.52,1.73s1,1.23,1.38,1.87a29.22,29.22,0,0,1,4,8.46,23.43,23.43,0,0,1,.66,10.73,20.29,20.29,0,0,1-.77,3,21.7,21.7,0,0,1-1.32,3,17.76,17.76,0,0,1-1.83,2.75,18.42,18.42,0,0,1-2.16,2.36,42.29,42.29,0,0,1-3.34,2.69,9.58,9.58,0,0,0-.76.63,1.07,1.07,0,0,0-.13.15l-.18.22a3.81,3.81,0,0,0-.88,1.58,8.15,8.15,0,0,0-.16,1,10.77,10.77,0,0,0,0,1.51,32,32,0,0,0,.65,4.57l1.29,6.2a49.49,49.49,0,0,1,1,8,32.21,32.21,0,0,1-.2,4.83l-.18,1.28-.26,1.24c-.19.82-.35,1.66-.6,2.45a39.17,39.17,0,0,1-3.65,8.27c-1.36,2.37-2.62,4.19-3.64,5.83l-.72,1.16-.61,1a18.28,18.28,0,0,0-.83,1.68,5.44,5.44,0,0,0-.54,2.23,1.75,1.75,0,0,0,0,.24,2.3,2.3,0,0,1,0,.26c0,.18,0,.34,0,.54s.1.42.13.64l0,.16a1.71,1.71,0,0,0,0,.24l.2.87a66,66,0,0,1,1.29,7.57,38.27,38.27,0,0,1,0,9.07,41.33,41.33,0,0,1-2.15,8.7,71.73,71.73,0,0,1-2.93,6.95A75,75,0,0,1,497.9,384a77.25,77.25,0,0,1-9.07,12.09,78.54,78.54,0,0,1-11.21,10c-.53.38-1,.72-1.57,1.13l-2,1.26c-.65.43-1.35.77-2,1.14s-1.37.72-2.06,1a46.29,46.29,0,0,1-8.19,2.81c-2.59.64-5,1.08-7.14,1.44s-4,.7-5.63,1.07a27.17,27.17,0,0,0-4.15,1.26l-.83.36c-.13.09-.27.13-.4.22a7.24,7.24,0,0,0-.82.61,7.77,7.77,0,0,0-2.39,3.91,5.08,5.08,0,0,0-.1,1.91,1.32,1.32,0,0,1,.06.39c0,.15.09.18.09.28s.18.28.19.47a12.91,12.91,0,0,0,1.54,1.78c.91.88,2.34,2.06,4,3.48a57.79,57.79,0,0,1,6,5.6l1.6,1.89c.53.71,1,1.46,1.55,2.2a22,22,0,0,1,1.41,2.4A21.07,21.07,0,0,1,458,445.3c.34.89.68,1.8,1,2.71a12,12,0,0,1,.34,1.19l.3,1.13A43.24,43.24,0,0,1,460.72,464a49.6,49.6,0,0,1-4.37,17c-4.86,10.55-12.24,18.27-19.32,24.67-1.78,1.6-3.56,3.11-5.33,4.57s-3.54,2.8-5.3,4.2l-5.32,4.16c-1.81,1.33-3.65,2.63-5.48,3.94s-3.64,2.67-5.54,3.88l-5.67,3.69-2.85,1.83c-1,.61-1.94,1.16-2.91,1.73q-2.91,1.73-5.85,3.41c-1.95,1.16-4,2.16-6,3.21s-4,2.09-6,3.1-4.11,1.88-6.17,2.83-4.1,1.92-6.2,2.74l-6.33,2.46c-2.11.83-4.22,1.65-6.37,2.35a29.49,29.49,0,0,1-6.57,1.75,49.73,49.73,0,0,1-7,.09,25.62,25.62,0,0,0-6.77.72c-2.19.46-4.41.82-6.61,1.23-4.37.94-8.77,1.71-13.16,2.5a221.62,221.62,0,0,1-26.56,3.5c-4.47.23-8.94.28-13.41.28-4.47-.17-8.93-.18-13.38-.58s-9-.72-13-1.24a91.91,91.91,0,0,1-14.56-2.45c-1.34-.36-2.72-.81-4.1-1.33s-2.74-1.14-3.95-1.75a72.53,72.53,0,0,1-6.33-3.67c-3.62-2.32-6.33-4-8.51-4.72a10,10,0,0,0-3.34-.54,15.35,15.35,0,0,0-4.07.6,35.26,35.26,0,0,0-5,1.77l-2.76,1.21-1.52.69c-.59.26-1.18.51-1.79.75a46.66,46.66,0,0,1-7.64,2.32,47.41,47.41,0,0,1-7.78.94,66.82,66.82,0,0,1-7.36-.07,69.19,69.19,0,0,1-7.31-.79,62.21,62.21,0,0,1-27.44-11.19,54.3,54.3,0,0,1-5.76-4.89c-1.75-1.67-3.33-3.36-4.8-5l-2.09-2.44c-.34-.38-.47-1-.84-1.31s-.82-.61-1.25-.89c-1.72-1.09-3.65-1.77-5-2.75-.67-.48-1.29-1-1.92-1.41-.31-.23-.62-.42-.93-.61l-.45-.29-.55-.33a19.58,19.58,0,0,0-3.74-1.83,2.29,2.29,0,0,0-1-.18s0,0,0,0v0l.08.05.08,0,.15,0,.15,0,0,0c.13,0,.08.1-.29.26l-2,.81a39.76,39.76,0,0,1-4,1.36,26.9,26.9,0,0,1-6.11,1,25.24,25.24,0,0,1-7.13-.71,24.66,24.66,0,0,1-6.8-2.75,22.92,22.92,0,0,1-6.37-5.57A22.63,22.63,0,0,1,73,512.8a26.74,26.74,0,0,1-1.43-3.17,33.74,33.74,0,0,1-2-11.6,44.37,44.37,0,0,1,1.16-9.93,47.82,47.82,0,0,1,3.07-9,45,45,0,0,1,5.12-8.59,35.58,35.58,0,0,1,8.49-8,30.81,30.81,0,0,1,6.34-3.2,27.31,27.31,0,0,1,7.8-1.67l1-.06c.34,0,.73,0,.92,0h1.44c.92,0,1.86.07,2.71.15,1.74.15,3.32.38,4.72.61,2.85.48,5.05,1,6.7,1.31.82.14,1.53.26,2,.3.15,0,.25,0,.36,0s.26,0,.22,0,0,0,0-.05-.16-.11-.14-.18.17-.17.43-.41a8.37,8.37,0,0,0,1.88-2.65,8.54,8.54,0,0,0,.55-1.61,5.93,5.93,0,0,0,.12-1c0-.1,0-.15,0-.18a8.76,8.76,0,0,0-.29-1c-.13-.42-.33-.87-.54-1.42a14.55,14.55,0,0,1-.54-2,42.39,42.39,0,0,1-.62-5.81c0-1.17-.15-2.44-.13-3.54s-.1-2.49-.24-3.79c-.27-2.63-.77-5.32-1.34-8.12s-1.44-5.75-1.4-9.35a29.08,29.08,0,0,1,1.57-8.47c.75-2.32,1.44-4.23,1.87-5.9a15.89,15.89,0,0,0,.38-2.26c.06-.36,0-.64.06-1a5.76,5.76,0,0,0-.08-.89,27,27,0,0,0-1.46-5,37.75,37.75,0,0,1-2-7.43,24.65,24.65,0,0,1,.49-8.89,52.8,52.8,0,0,1,2.26-7,40.41,40.41,0,0,0,1.69-5.37c.09-.39.12-.73.18-1.1l.08-1c0-.32,0-.55,0-.93l-.08-1.11,0-.54-.11-.56-.2-1.09c-.2-.75-.39-1.48-.63-2.23a67.82,67.82,0,0,0-4.67-9.82l-1.5-2.87-.78-1.49c-.25-.53-.51-1.06-.76-1.6-.5-1-1-2.23-1.44-3.37s-.91-2.43-1.33-3.68a36.19,36.19,0,0,1-1-4,31.29,31.29,0,0,1-.65-4.28c-.06-.71-.14-1.5-.16-2.15l0-1.92c0-1.28,0-2.54.09-3.81a61,61,0,0,1,.87-7.47c.16-1.24.52-2.41.78-3.61s.71-2.33,1.11-3.48a44.13,44.13,0,0,1,3.09-6.51c.62-1,1.24-2,1.9-3l2-2.89c1.37-1.88,2.8-3.7,4.15-5.51s2.64-3.62,3.8-5.46c2.41-3.65,4.15-7.55,6.27-11.32a198.15,198.15,0,0,1,13.82-22.26,109.31,109.31,0,0,1,8.52-10.35c1.52-1.66,3.16-3.24,4.81-4.82.82-.79,1.71-1.51,2.57-2.27l1.31-1.12,1.37-1.06c.93-.69,1.82-1.42,2.79-2.07l2.91-1.93c1-.65,2-1.18,3-1.77s2-1.15,3.09-1.66a102.18,102.18,0,0,1,12.58-5.18c8.29-2.86,16.23-5.13,22.78-8.52a38.29,38.29,0,0,0,8.5-5.88,26,26,0,0,0,5.73-7.39,15,15,0,0,0,1.34-3.75,11.35,11.35,0,0,0,.23-1.81,9.62,9.62,0,0,0,0-1.78v-.22l0-.45-.06-.94c0-.62-.07-1.27-.08-1.94l0-1,0-1,0-1.05.09-1.1a27.27,27.27,0,0,1,.77-4.6,26.08,26.08,0,0,1,1.66-4.61,32,32,0,0,1,2.21-4c.38-.56.77-1.13,1.15-1.66s.76-1,1.12-1.5c.73-1,1.46-1.83,2.15-2.67l.52-.62.26-.32c.1-.12.08-.11.13-.17s.26-.34.39-.52c1-1.42,1.66-4,1.91-7.46s.05-7.52.08-12.21a62.86,62.86,0,0,1,1.87-14.62,59.43,59.43,0,0,1,5.25-13.69,62.44,62.44,0,0,1,8.24-12.06c.78-.94,1.66-1.8,2.49-2.69l.9-.93.84-.94A38.8,38.8,0,0,0,265.43,89a45.36,45.36,0,0,0,4.63-9.88c.31-.9.61-1.83.84-2.64s.5-1.91.77-3a51.62,51.62,0,0,1,2.19-7,22.78,22.78,0,0,1,2.05-3.92,16,16,0,0,1,3.45-3.86l.54-.44c.17-.12.32-.21.48-.33l1-.62c.33-.2.74-.41,1.11-.61l.58-.29.68-.28a12.09,12.09,0,0,1,3.22-.82,9.74,9.74,0,0,1,4.07.43c.33.11.66.23,1,.36s.58.3.86.46a9.13,9.13,0,0,1,1.48,1,12.68,12.68,0,0,1,2,2.09,22.94,22.94,0,0,1,2.16,3.54c1.07,2.11,1.84,3.88,2.65,5.21A10.5,10.5,0,0,0,302.21,70a2.82,2.82,0,0,0,.77.63,1.89,1.89,0,0,0,1.06.2,5.49,5.49,0,0,0,.85-.08,4.91,4.91,0,0,1,.71-.18,5.68,5.68,0,0,0,2.66-2.34A44.09,44.09,0,0,0,311,63.14a33.07,33.07,0,0,1,3.72-6.21,15.19,15.19,0,0,1,3-2.91,12.63,12.63,0,0,1,1.57-1c.51-.29,1-.62,1.52-.88a38.06,38.06,0,0,1,26.74-3.84A30.21,30.21,0,0,1,354,50.68a28.09,28.09,0,0,1,2.95,1.73c.9.57,1.7,1.17,2.58,1.67a32.16,32.16,0,0,0,11.23,4.41c4,.76,8.31,1.11,12.52,1.76a41.3,41.3,0,0,1,6.35,1.34,14.5,14.5,0,0,1,5.75,3.27A15.82,15.82,0,0,1,399,70.29a35,35,0,0,1,2,6.09A87,87,0,0,1,402.58,89c.28,4.22.46,8.45.81,12.66a60,60,0,0,0,2.16,12.48Zm-.09,0a57.74,57.74,0,0,1-2.72-12.42c-.54-4.22-1-8.45-1.39-12.64-.22-2.09-.52-4.17-.81-6.23-.13-1-.34-2-.51-3.08s-.44-2-.67-3a34.25,34.25,0,0,0-2-5.71,14.25,14.25,0,0,0-3.32-4.76c-2.81-2.61-7-3.29-11.09-3.8s-8.37-.77-12.66-1.44A37.05,37.05,0,0,1,364,59.48,36.87,36.87,0,0,1,358,56.75c-1-.51-1.86-1.13-2.77-1.66a25.47,25.47,0,0,0-2.67-1.44,25.88,25.88,0,0,0-5.76-1.94A33.8,33.8,0,0,0,323.15,56c-.46.24-.87.55-1.31.82a11.82,11.82,0,0,0-1.24.87,7.65,7.65,0,0,0-1.08,1,8,8,0,0,0-1,1.12,27.93,27.93,0,0,0-2.95,5.39A49.83,49.83,0,0,1,312.78,71,11.38,11.38,0,0,1,308,75.58l-1.61.58a13.26,13.26,0,0,1-1.67.3,8,8,0,0,1-6.38-2,14.64,14.64,0,0,1-2.16-2.52c-1.23-1.8-2.16-3.74-3.17-5.56a18.51,18.51,0,0,0-1.67-2.59,4.83,4.83,0,0,0-2.23-1.71,3.85,3.85,0,0,0-2.73.26,10.36,10.36,0,0,0-2.56,1.6,9,9,0,0,0-2,2.3A16.13,16.13,0,0,0,280.49,69c-1.5,3.89-1.92,8.17-3.22,12.24a53.72,53.72,0,0,1-5,11.72,42.89,42.89,0,0,1-3.6,5.26c-1.32,1.67-2.85,3.15-4.18,4.78a53.87,53.87,0,0,0-6.88,10.59,54.58,54.58,0,0,0-5.73,24.46c0,4.23.31,8.46.11,12.69s-1,8.52-3.27,12.12c-2.45,3.44-5.53,6.47-7.32,10.34a17.74,17.74,0,0,0-1.62,6.1,43.28,43.28,0,0,0,0,6.34,18.64,18.64,0,0,1-.09,3.17,20.52,20.52,0,0,1-.52,3.12,24.94,24.94,0,0,1-2.33,5.89,34.25,34.25,0,0,1-8.1,9.67,46.5,46.5,0,0,1-10.71,6.75c-7.73,3.49-16,5.41-24.12,7.84A93.4,93.4,0,0,0,182,226.43a62.69,62.69,0,0,0-10.93,6.41,71.38,71.38,0,0,0-9.57,8.31,93.64,93.64,0,0,0-8.25,9.64c-1.3,1.66-2.48,3.43-3.7,5.15s-2.35,3.52-3.44,5.34c-2.24,3.58-4.32,7.28-6.32,11A225.62,225.62,0,0,0,128.9,295.2a82.11,82.11,0,0,0-6,24.57c-.06,1.06-.14,2.11-.12,3.17v1.59c0,.53.06,1.06.09,1.58a34.91,34.91,0,0,0,1,6.26,93.2,93.2,0,0,0,4.3,11.93,64.81,64.81,0,0,1,3.94,12.05c.19,1,.33,2.09.44,3.14l.08,1.58,0,.8,0,.79a20.34,20.34,0,0,1-1,6.24c-1.26,4-3.38,7.77-4.45,11.88a17.51,17.51,0,0,0-.53,6.28,32.06,32.06,0,0,0,1.52,6.16,35.18,35.18,0,0,1,1.59,6.13,18.6,18.6,0,0,1-.32,6.31c-.81,4.13-2.41,8.19-2.11,12.46a17.85,17.85,0,0,0,1.77,6.06,48.31,48.31,0,0,0,3.14,5.51c2.31,3.55,4.7,7.05,6.78,10.73a40.57,40.57,0,0,1,2.72,5.73,22.54,22.54,0,0,1,1.47,6.15,24.19,24.19,0,0,1-2.35,12.33,25.65,25.65,0,0,1-7.93,9.74,21.32,21.32,0,0,1-5.62,2.92,18.37,18.37,0,0,1-6.24.91c-4.25-.19-8.3-1.65-12.43-2.5a26.19,26.19,0,0,0-6.29-.68,12.51,12.51,0,0,0-6,2,24.29,24.29,0,0,0-8.19,9.5,29.87,29.87,0,0,0-3.35,12.15,17.91,17.91,0,0,0,.79,6.26,12.48,12.48,0,0,0,.61,1.46,6.92,6.92,0,0,0,.8,1.37,8.57,8.57,0,0,0,2.33,2.12,11.25,11.25,0,0,0,6,1.68,21.57,21.57,0,0,0,6.19-1.3,20.88,20.88,0,0,1,6.19-1.27,13.86,13.86,0,0,1,6.1,1.55,42.94,42.94,0,0,1,10.32,7.31c6.16,5.81,10.93,13,17.64,18.21a52.63,52.63,0,0,0,23,10.26,55.77,55.77,0,0,0,12.64.87,34.3,34.3,0,0,0,12.3-2.8c3.85-1.75,7.57-3.82,11.6-5.14a23.15,23.15,0,0,1,12.5-1c8.36,1.85,14.83,8.27,23.27,9.9a75.15,75.15,0,0,0,12.61,1.33c4.23.22,8.46.29,12.69.43,2.11.11,4.23,0,6.35,0l6.34-.1c2.12-.06,4.23-.23,6.34-.34s4.23-.2,6.33-.4A267.13,267.13,0,0,0,337.67,540a258.4,258.4,0,0,0,89.92-45.77c6.5-5.36,12.55-11.58,16.25-19.24a35.32,35.32,0,0,0,3.39-12.15,28.16,28.16,0,0,0-1.57-12.48,18.73,18.73,0,0,0-3.39-5.32,46.12,46.12,0,0,0-4.59-4.36c-1.6-1.38-3.24-2.73-4.74-4.23a22.67,22.67,0,0,1-3.83-5A17.69,17.69,0,0,1,428,419a20.57,20.57,0,0,1,6.81-10.49,18.88,18.88,0,0,1,5.51-3.11,40.43,40.43,0,0,1,6.09-1.78c4.14-.88,8.37-1.31,12.48-2.3a29.86,29.86,0,0,0,11.45-5.24,66.33,66.33,0,0,0,9.48-8.4,64.29,64.29,0,0,0,7.66-10.09,62.29,62.29,0,0,0,3-5.56,58.8,58.8,0,0,0,2.53-5.82,28.27,28.27,0,0,0,1.59-6.12,27.27,27.27,0,0,0,.07-6.32,55.19,55.19,0,0,0-1-6.26c-.24-1-.36-2.09-.54-3.13-.07-.53-.05-1.06-.08-1.59l0-.79c0-.27,0-.53.06-.8a17.56,17.56,0,0,1,1.61-6.11,36.16,36.16,0,0,1,3.15-5.51c2.34-3.51,4.86-7,6.13-11.05s.88-8.41.17-12.55-1.72-8.31-1.76-12.56a17.72,17.72,0,0,1,1-6.25,14.71,14.71,0,0,1,3.47-5.28c1.47-1.55,3.4-2.53,5-3.94a9.55,9.55,0,0,0,3-5.39,13.81,13.81,0,0,0-.31-6.26,20.72,20.72,0,0,0-2.58-5.76,25.76,25.76,0,0,0-4.13-4.78c-1.53-1.45-3.16-2.8-4.79-4.15-3.25-2.69-6.55-5.45-8.92-9A43.29,43.29,0,0,1,489,231c-1.29-4-2.41-8.12-4.07-12a25.92,25.92,0,0,0-3.08-5.52,21,21,0,0,0-4.6-4.32,20.67,20.67,0,0,0-5.65-2.79,13.17,13.17,0,0,0-3.09-.64,8.39,8.39,0,0,0-3.1.44c-1,.31-2,.71-3,1a7.37,7.37,0,0,1-3.17.1,8,8,0,0,1-5.1-3.56,7.35,7.35,0,0,1-.8-6.14,11,11,0,0,1,3.93-4.92c1.66-1.32,3.62-2.22,5.2-3.62a16.71,16.71,0,0,0,3.88-4.95,17.68,17.68,0,0,0,1.58-12.28,18.93,18.93,0,0,0-7.05-10.21,44.61,44.61,0,0,0-11.18-5.89c-3.93-1.54-8-2.87-11.88-4.46a49.24,49.24,0,0,1-11.13-6.06,50,50,0,0,1-9.17-8.74,62.53,62.53,0,0,1-7-10.59c-1-1.86-1.88-3.79-2.71-5.74l-1.21-2.93c-.39-1-.74-2-1.11-3Z"/></svg>