<svg id="Layer_1" data-name="Layer 1" xmlns="http://www.w3.org/2000/svg" viewBox="0 0 600 600"><title>Mauritania</title><path d="M448.19,61.52c7,6.66,14.87,12.47,21.94,19.12,7.21,6.48,14.37,13,21.74,19.25,3.69,3.15,7.38,6.12,11.28,8.92q2.93,2.1,5.91,4.15l6,4.05c8.06,5.41,16.25,11.09,23.42,18.36a34.43,34.43,0,0,1,5.24,6.38,12.85,12.85,0,0,1,1.83,5.05,9.08,9.08,0,0,1-.24,3.51,8.81,8.81,0,0,1-.69,1.76,11.18,11.18,0,0,1-1,1.53A12.43,12.43,0,0,1,539,157a24.57,24.57,0,0,1-4.35,1.44,50.86,50.86,0,0,1-8,1.13,137.27,137.27,0,0,1-15.17,0c-4.91-.21-9.5-.45-12.68.47a8.85,8.85,0,0,0-3.73,2,10.09,10.09,0,0,0-1.4,1.6,8.46,8.46,0,0,0-.64,1l-.32.51-.21.48a10.86,10.86,0,0,0-1,4.22,30.85,30.85,0,0,0,.38,5.7c.29,2.17.7,4.6,1,7.32.07.68.12,1.4.18,2.1s.07,1.48.11,2.22,0,1.56,0,2.34l-.06,1.83c-.18,4.77-.27,9.55-.33,14.32-.57,38.26,1.6,76.62,3.54,115.36s3.4,77.45,5.28,116.17l2.7,58.09.19,3.63.17,3.82c.1,2.65.12,5.38,0,8.16-.06,1.4-.09,2.79-.21,4.23-.05.72-.09,1.42-.16,2.15l-.25,2.19c-.14,1.45-.45,3-.68,4.48-.15.76-.34,1.54-.51,2.3s-.33,1.54-.58,2.33l-.71,2.37c-.24.79-.59,1.61-.89,2.42a48.55,48.55,0,0,1-2.21,4.88c-.43.82-1,1.65-1.46,2.46l-.77,1.22c-.26.4-.59.8-.89,1.19-.62.8-1.24,1.58-1.89,2.36s-1.45,1.48-2.2,2.2c-.39.35-.74.73-1.15,1.06l-1.25,1c-.85.63-1.69,1.29-2.58,1.84a41.71,41.71,0,0,1-5.61,2.87,41.19,41.19,0,0,1-5.79,1.79,47.23,47.23,0,0,1-5.42.88,73.87,73.87,0,0,1-9.31.26l-7.53-.23-14.55-.4c-9.71-.27-19.41-.55-29.1-1l-7.26-.37-3.63-.18-.91-.05-.55,0-.86-.08c-1.13-.11-2.16-.26-3.12-.43-3.81-.69-6.38-1.44-7.82-1.73a6.24,6.24,0,0,0-1.15-.19l.11,0H384c.11,0,0,0-.11,0-.31,0-1.06.16-2.16.37s-2.53.51-4.37.79c-.44.07-.93.13-1.45.19s-1.06.11-1.62.15-1.2.07-1.8.1H371c-1.79,0-3.55-.11-5.3-.25a41.69,41.69,0,0,1-5.08-.76,13.66,13.66,0,0,1-4.56-2.07c-2.81-1.89-5-4.78-7.1-6.84a17.2,17.2,0,0,0-3.3-2.56l-3.38-1.77L336,536.73l-2.6-1.34-1-.46c-.28-.11-.51-.2-.77-.33a.84.84,0,0,1-.2-.08c-.06,0-.17-.11-.15-.11l0-.09c0-.05,0,0,0-.09s0-.09,0-.1,0-.08-.07-.08a.78.78,0,0,1-.22,0,2.33,2.33,0,0,0-.4.15l-.22.08c-.08,0-.2.11-.3.16l-.61.34-1.55,1c-.57.36-1.13.71-1.78,1.09s-1.25.73-1.93,1.08-1.33.7-2,1-1.37.63-2.08.89l-1,.4-.52.21-.75.27a18,18,0,0,1-3.1.74,20.43,20.43,0,0,1-5.74,0c-.47-.07-.94-.15-1.41-.26-.22,0-.47-.1-.81-.19s-.59-.17-.88-.26a17.1,17.1,0,0,1-2.66-1.16c-1.35-.76-2.08-1.15-2.22-1.24a10.47,10.47,0,0,0-2.2-.59,10.89,10.89,0,0,0-4.62.22,10.68,10.68,0,0,0-2.13.83,21.14,21.14,0,0,0-2.45,1.55,51.11,51.11,0,0,1-6.91,4.6c-.17.09-.37.19-.63.3l-.72.31c-.48.17-1,.35-1.46.47a14.4,14.4,0,0,1-2.91.49,17.49,17.49,0,0,1-5.34-.46,21.84,21.84,0,0,1-4.62-1.68,28.61,28.61,0,0,1-3.87-2.3,39.08,39.08,0,0,1-6.37-5.74l-.35-.39-.42-.5c-.29-.34-.53-.68-.79-1-.47-.68-.9-1.36-1.25-2-.72-1.27-1.26-2.38-1.75-3.28a8.82,8.82,0,0,0-1.36-2c-.27-.25-.28-.25-.34-.28s-.11,0-.2,0a1.87,1.87,0,0,0-.81.06,2.25,2.25,0,0,0-1,.59,3,3,0,0,0-.6.94,10.17,10.17,0,0,0-.6,2,55.46,55.46,0,0,0-.56,6.34c-.1,1.35-.15,2.5-.36,4.1a21.14,21.14,0,0,1-.54,2.62,15.18,15.18,0,0,1-1.21,3,15.36,15.36,0,0,1-4.45,5.08,19.12,19.12,0,0,1-5.38,2.67c-.78.26-1.49.46-2.13.64l-1.82.52c-1.21.35-2.47.65-3.71,1-2.52.61-5.12,1.13-7.82,1.54a54,54,0,0,1-8.47.57,35.74,35.74,0,0,1-9.2-1.18,30.25,30.25,0,0,1-9.29-4.11,24.57,24.57,0,0,1-2.12-1.56,23.27,23.27,0,0,1-2-1.72,34.65,34.65,0,0,1-3.36-3.8,51.89,51.89,0,0,1-4.61-7.59,136.62,136.62,0,0,0-6.43-12.19,87.39,87.39,0,0,0-7.65-10.52,92.51,92.51,0,0,0-9.18-9.29c-.81-.73-1.58-1.5-2.43-2.19-.42-.35-.66-.92-1.12-1.23a14.85,14.85,0,0,0-1.48-.78c-1-.46-2.12-.83-3.17-1.23a22.75,22.75,0,0,1-3.07-1.28,110.78,110.78,0,0,0-11.6-5.65,102.13,102.13,0,0,0-12.12-4.08,93.51,93.51,0,0,0-12.39-2.52c-2.07-.28-4.15-.47-6.22-.62-1-.08-2.11-.13-3.08-.16s-1.8,0-2.72,0a80.33,80.33,0,0,0-11.9,1.49c-4.33.81-9,1.87-14.22,2.82-1.28.24-2.62.46-4,.68-.08,0-.51.06-.88.1l-1.11.09c-.39,0-.72.06-1.15.07l-1.35,0-1.34,0c-.49,0-1.07-.12-1.6-.2s-1.08-.18-1.61-.28-1.25-.32-1.87-.51-1.22-.4-1.88-.67-1.38-.63-2-1a21.47,21.47,0,0,1-4-2.75A22.47,22.47,0,0,1,45.33,483c-.45-.64-.87-1.3-1.27-2a21,21,0,0,1-1-1.9,18.1,18.1,0,0,1-.75-1.86c-.19-.56-.37-1.13-.53-1.7a15.07,15.07,0,0,1-.36-1.6c-.09-.5-.18-1-.25-1.49-.13-1-.17-1.75-.22-2.63s0-1.51,0-2.26a37.44,37.44,0,0,1,.93-6.9c.43-1.94.94-3.65,1.46-5.27,1.08-3.2,2.25-6,3.48-8.82.63-1.4,1.27-2.76,2-4.23l.27-.52.17-.36.34-.7.65-1.41c.92-1.85,1.67-3.79,2.47-5.7s1.41-3.89,2.16-5.81S56.35,424,56.91,422c.32-1,.61-2,1-2.95s.58-2,.89-3c.66-2,1.18-4,1.8-5.94s1.1-4,1.73-6c.27-1,.5-2,.8-3,.15-.5.32-1,.51-1.51s.35-1,.56-1.52l.66-1.51.79-1.52c.3-.5.54-1,.83-1.53l.9-1.54c1.33-2.07,2.55-4.21,3.74-6.41a30.63,30.63,0,0,0,2.52-6.74,30.83,30.83,0,0,0,.46-3.42l.15-1.72.06-1.72.13-3.46c0-1.15,0-2.3,0-3.46,0-2.29-.12-4.73-.21-7.27s-.12-5.21,0-7.94a35.87,35.87,0,0,1,1.37-8.2,33.46,33.46,0,0,1,3.29-7.46c1.29-2.23,2.71-4.29,4.09-6.3,2.71-4.06,5.42-8,6.88-12.41a24.14,24.14,0,0,0,1.24-6.85,19.72,19.72,0,0,0-1-6.89,19.52,19.52,0,0,0-3.43-6.09c-1.47-1.8-3.33-3.45-4.92-5.34a31.35,31.35,0,0,1-2.22-3,14.85,14.85,0,0,1-1-1.66,9,9,0,0,1-.68-1.92,9.85,9.85,0,0,0-1-3.17,4.88,4.88,0,0,0-2-2,1.56,1.56,0,0,0-.93-.11,1.83,1.83,0,0,0-.81.41,1.14,1.14,0,0,0-.37.66,4.59,4.59,0,0,0-.13,1c0,.43,0,.95,0,1.57a13.26,13.26,0,0,1-.21,2.26,7.71,7.71,0,0,1-1.18,2.89,6.28,6.28,0,0,1-1.35,1.45,6.72,6.72,0,0,1-2,1.12,7.46,7.46,0,0,1-4.49,0,11,11,0,0,1-3.13-1.52,12.44,12.44,0,0,1-2.38-2.09,11,11,0,0,1-1-1.41,10.19,10.19,0,0,1-.87-1.83,13.6,13.6,0,0,1-.54-7.07A23,23,0,0,1,57,270.37a40.05,40.05,0,0,1,5.09-8.23c1-1.19,1.94-2.34,3-3.44a42.56,42.56,0,0,1,3.51-3.19c.32-.26.68-.54,1.05-.8l1-.7c.69-.48,1.39-.92,2.11-1.33a33.36,33.36,0,0,1,4.41-2.26,41.26,41.26,0,0,1,9.39-2.77,48.28,48.28,0,0,1,19.39.85c1.2.3.57.11.72.14h.46c.53,0,1.43,0,2.62,0h2c.77,0,1.8.05,2.31.08l3.76.2,7.54.42,7.26.6c9.66.79,19.3,1.74,28.94,2.74l14.45,1.6,7.22.88c2.4.29,4.58.56,6.71.74a56.48,56.48,0,0,0,11.26,0,18.27,18.27,0,0,0,4-.94,9.44,9.44,0,0,0,2.8-1.51,10.11,10.11,0,0,0,2.17-2.42,15.37,15.37,0,0,0,1.74-3.95,50.33,50.33,0,0,0,1.74-11.74c.12-2.27.18-4.55.27-7.11s.27-5.41.61-8.2a61.28,61.28,0,0,1,1.56-8.53,46.43,46.43,0,0,1,3.15-8.86,33.66,33.66,0,0,1,5.92-8.58,23.87,23.87,0,0,1,2-1.89c.72-.58,1.44-1.17,2.18-1.72s1.56-1,2.35-1.47a25.49,25.49,0,0,1,2.45-1.23,40.7,40.7,0,0,1,9-2.65c2.65-.49,4.94-.83,6.82-1.23a17.42,17.42,0,0,0,4.55-1.54,16.63,16.63,0,0,0,3.89-2.78,26.79,26.79,0,0,0,6.1-9.11,36.38,36.38,0,0,0,1.84-5.66,56,56,0,0,0,1.13-6.29c.54-4.34.7-9,.81-13.75s.17-9.87.56-14.85.9-10,1.61-14.93,1.58-9.86,2.63-14.73L274,96.6c.29-1.26.62-2.58,1.06-3.95a26.93,26.93,0,0,1,1.74-4.24,18.08,18.08,0,0,1,3-4.21A16,16,0,0,1,284.13,81a18.87,18.87,0,0,1,4.66-1.58,36,36,0,0,1,8.34-.55c4.94.17,9.78.39,14.66.67Q326.42,80.41,341,82q7.28.78,14.51,1.74l3.63.49c1.23.21,2.48.36,3.69.61q3.66.68,7.23,1.51c9.52,2.18,18.78,4.89,28.27,5.77,1.18.1,2.37.15,3.55.2s2.37,0,3.54-.07a17.56,17.56,0,0,0,6.7-1.33A7.79,7.79,0,0,0,414.67,89a8,8,0,0,0,1.56-2.88,21.9,21.9,0,0,0,.71-7c-.11-4.79-.81-9.67-.24-14.56a23.73,23.73,0,0,1,1.93-7.06,16.15,16.15,0,0,1,1.87-3.15,11.37,11.37,0,0,1,2.62-2.56,10.42,10.42,0,0,1,6.94-1.87,14.89,14.89,0,0,1,6.82,2.44,31.12,31.12,0,0,1,2.87,2.24l2.79,2.32,5.59,4.65Zm-.06.07c-.93-.78-1.92-1.48-2.89-2.21l-2.88-2.21L439.48,55a29.5,29.5,0,0,0-2.91-2.09,14,14,0,0,0-6.57-2,9.59,9.59,0,0,0-6.22,1.94,12.82,12.82,0,0,0-3.87,5.34,22.43,22.43,0,0,0-1.64,6.66,30.69,30.69,0,0,0-.12,3.46c0,1.18.09,2.37.17,3.57.15,2.39.4,4.8.52,7.28a23.74,23.74,0,0,1-.64,7.62,10.5,10.5,0,0,1-1.88,3.65,10,10,0,0,1-3.25,2.53,19.55,19.55,0,0,1-7.5,1.71c-1.24.14-2.48.09-3.72.15s-2.48-.06-3.71-.13c-9.85-.66-19.31-3.17-28.76-5.07-2.36-.48-4.73-.92-7.1-1.28s-4.74-.63-7.16-.88c-4.81-.5-9.63-.93-14.45-1.32q-14.48-1.14-29-1.57c-4.83-.14-9.68-.23-14.51-.25a31.51,31.51,0,0,0-7.09.62,11.37,11.37,0,0,0-6,3.26,15.34,15.34,0,0,0-3.21,6.19c-.66,2.29-1.07,4.69-1.53,7.06q-1.32,7.13-2.13,14.35t-1.12,14.47c-.23,4.84-.18,9.68-.13,14.52s0,9.71-.42,14.54a53.91,53.91,0,0,1-3,14.2,36,36,0,0,1-7.62,12.29,25.32,25.32,0,0,1-12.46,7.13c-4.68,1.2-9.61,1.63-14,3.7a20.39,20.39,0,0,0-9.77,10.34A42.89,42.89,0,0,0,225.3,221c-.45,4.83-.2,9.69-.26,14.53a64.75,64.75,0,0,1-1.48,14.43,25.14,25.14,0,0,1-6.84,12.59,25.4,25.4,0,0,1-12.91,6.24,60,60,0,0,1-14.48.7c-4.84-.27-9.66-.81-14.48-1.22l-14.48-1.32-29-2.64-7.24-.65-7.25-.51c-2.42-.16-4.83-.4-7.26-.38a24.93,24.93,0,0,1-7.2-.76,40,40,0,0,0-14.41-1.07,35.58,35.58,0,0,0-13.77,4.34,40.86,40.86,0,0,0-5.9,4.22,28.52,28.52,0,0,0-4.94,5.3A12.83,12.83,0,0,0,61.79,278a6.48,6.48,0,0,0-.22,3.57,6.18,6.18,0,0,0,1.9,3,3.75,3.75,0,0,0,3.28,1.18,3,3,0,0,0,1.5-1,5,5,0,0,0,.86-1.58c.4-1.15.51-2.37.87-3.53a4.14,4.14,0,0,1,2.2-2.74,3.53,3.53,0,0,1,3.47.25A7,7,0,0,1,77.91,280a12.88,12.88,0,0,1,.87,3.52,8.61,8.61,0,0,0,1.41,3.31,26.82,26.82,0,0,0,2.1,3c1.53,1.89,3.34,3.52,4.88,5.39a21.45,21.45,0,0,1,3.58,6.29,23.74,23.74,0,0,1,.27,14.3c-1.27,4.7-3.74,8.93-6,13.18-1.16,2.12-2.31,4.26-3.31,6.47a27.35,27.35,0,0,0-2.23,6.89c-.87,4.79-.3,9.69.52,14.45.42,2.39.89,4.76,1.25,7.16.18,1.2.4,2.39.55,3.59l.41,3.61a133.35,133.35,0,0,1-6.61,57.3L75,430.14l-.65,1.7L73,435.23c-.46,1.12-1,2.22-1.44,3.34s-.95,2.23-1.51,3.3c-2,4.41-4.56,8.55-6.76,12.87a59.57,59.57,0,0,0-2.85,6.68,26.41,26.41,0,0,0-1.61,7.06,8,8,0,0,0,.52,3.56,4.25,4.25,0,0,0,1,1.48,4.37,4.37,0,0,0,1.58.87,9,9,0,0,0,3.59.23c1.21-.14,2.41-.28,3.61-.44,9.59-1.26,19.17-3.23,28.89-2.86,2.42.07,4.83.33,7.24.64s4.79.71,7.16,1.2a109.09,109.09,0,0,1,14,3.84,106.78,106.78,0,0,1,47.31,32.55,98.74,98.74,0,0,1,8.32,11.9,140.6,140.6,0,0,1,6.53,13,42.28,42.28,0,0,0,3.65,6.28,24.76,24.76,0,0,0,2.35,2.77,15.42,15.42,0,0,0,1.35,1.2,16.75,16.75,0,0,0,1.44,1.11,21.44,21.44,0,0,0,6.56,3,29.43,29.43,0,0,0,7.16,1.11,63.77,63.77,0,0,0,14.45-1.29c2.38-.46,4.76-.92,7.1-1.53a11.16,11.16,0,0,0,3.32-1.44,8.14,8.14,0,0,0,2.47-2.62,10.83,10.83,0,0,0,1.17-3.42c.22-1.19.37-2.4.51-3.6a48.23,48.23,0,0,1,1.15-7.17,10.5,10.5,0,0,1,3.69-6.09,8,8,0,0,1,6.89-1.29,6.53,6.53,0,0,1,3,2,17.13,17.13,0,0,1,2,3c1.16,2.11,2.15,4.37,3.84,6.13a30.58,30.58,0,0,0,5.44,4.79,19.42,19.42,0,0,0,6.58,3,10.22,10.22,0,0,0,7.07-.73,40.74,40.74,0,0,0,5.94-4.18,20.84,20.84,0,0,1,6.28-3.58,18.15,18.15,0,0,1,7.17-.86,19,19,0,0,1,3.57.64,23.4,23.4,0,0,1,3.33,1.44,9.41,9.41,0,0,0,3.47,1,12.91,12.91,0,0,0,3.62-.14,9.68,9.68,0,0,0,1.75-.49c.56-.21,1.1-.5,1.65-.75s1.09-.54,1.62-.83,1.06-.59,1.56-.92c2.08-1.25,3.93-2.84,5.95-4.17a10,10,0,0,1,3.29-1.5,10.68,10.68,0,0,1,3.61-.19,29.89,29.89,0,0,1,7,2c4.53,1.71,9,3.62,13.57,5.21a58.56,58.56,0,0,0,14.12,3.28c1.2.08,2.41.16,3.62.14a21.9,21.9,0,0,0,3.62-.27c2.4-.36,4.75-1,7.16-1.25a19.7,19.7,0,0,1,7.21.54c2.36.54,4.68,1.26,7.06,1.71a33.56,33.56,0,0,0,3.61.44l3.62.3,7.24.62,29,2.47,14.48,1.23c4.83.37,9.66,1,14.51.69a25.25,25.25,0,0,0,7.09-1.43,30.66,30.66,0,0,0,3.26-1.59c.52-.3,1-.7,1.49-1l.74-.53c.24-.17.44-.4.67-.6l1.32-1.25,1.15-1.4a10.15,10.15,0,0,0,1.06-1.47c.32-.51.68-1,1-1.54a30.59,30.59,0,0,0,1.56-3.27c.22-.57.48-1.12.66-1.69l.55-1.74a60.8,60.8,0,0,0,2.16-14.33c.24-4.84,0-9.68-.19-14.53l-2.13-58.1L484.53,321.5c-1.43-38.73-2.9-77.52-.91-116.26q.38-7.25.92-14.5c.11-1.21.19-2.42.22-3.63s0-2.42-.13-3.62c-.17-2.42-.48-4.82-.69-7.24a36.69,36.69,0,0,1,0-7.26,18.07,18.07,0,0,1,2.2-6.9,18.52,18.52,0,0,1,4.69-5.51,16,16,0,0,1,6.6-2.93c4.8-.94,9.69-.3,14.5.07a132.72,132.72,0,0,0,14.51.57,47.24,47.24,0,0,0,7.22-.73,19.14,19.14,0,0,0,3.47-1,7.51,7.51,0,0,0,3-2,4.35,4.35,0,0,0,1-3.34,8.78,8.78,0,0,0-1.17-3.39,31.81,31.81,0,0,0-4.4-5.74c-6.52-7.19-14.29-13.09-22.1-18.8-3.9-2.86-7.84-5.7-11.67-8.66s-7.52-6.12-11.11-9.38c-7.19-6.5-14.15-13.25-21.15-19.94q-5.26-5-10.56-10l-5.35-4.92c-1.79-1.62-3.66-3.17-5.5-4.74Z"/></svg>