<svg id="Layer_1" data-name="Layer 1" xmlns="http://www.w3.org/2000/svg" viewBox="0 0 600 600"><title>BruneiDarussalam</title><path d="M449.35,93.54a8.78,8.78,0,0,1,3.37,1.08,11.06,11.06,0,0,1,2.85,2.1,2.25,2.25,0,0,1,.67,1.65,2.37,2.37,0,0,1-1,1.54,13.58,13.58,0,0,1-3.23,1.67q-1.68.61-3.36,1.17l-3.39,1c-2.26.69-4.51,1.38-6.7,2.17-1.2.42-2.33.67-3.44,1a20.34,20.34,0,0,0-3.15,1.2,5.66,5.66,0,0,0-1.25.83,2.55,2.55,0,0,0-.39.45,1.05,1.05,0,0,0-.11.39,1,1,0,0,0,.3.79,2.77,2.77,0,0,0,1.09.53,13.29,13.29,0,0,0,3.24.27c1.25,0,2.4.08,3.6.14,2.39.14,4.76.36,7.14.65a57.64,57.64,0,0,1,7.17,1.24,14.44,14.44,0,0,1,3.62,1.52,8.8,8.8,0,0,1,3.12,2.91,3.86,3.86,0,0,1,.49,2.82,4.6,4.6,0,0,1-1.45,2.3c-.3.26-.6.46-.91.69a7.41,7.41,0,0,1-1,.53,9.83,9.83,0,0,1-2,.63c-1.33.26-2.48.35-3.69.48s-2.4.22-3.6.28a85.35,85.35,0,0,1-14.47-.42c-1.2-.13-2.4-.3-3.59-.48s-2.27-.34-3.35-.42c-2.15-.19-4.17,0-5.24,1a3.76,3.76,0,0,0-1.23,1.82,14.34,14.34,0,0,0-.54,2.94,34.14,34.14,0,0,1-.49,3.74,16.09,16.09,0,0,1-1.35,3.92,21,21,0,0,1-4.9,6.36,28,28,0,0,1-6.49,4.32c-4.62,2.25-9.42,3.42-13.91,4.66s-8.77,2.61-12.28,4.84a19.28,19.28,0,0,0-2.44,1.81,9.35,9.35,0,0,0-1.8,2,4.46,4.46,0,0,0-.46.89,2.94,2.94,0,0,0-.15.75,1.27,1.27,0,0,0,.23.9,1.69,1.69,0,0,0,.88.33,3.3,3.3,0,0,0,.83,0,5.43,5.43,0,0,0,1-.24,20,20,0,0,0,2.68-1.21l3.14-1.62c4.19-2.19,8.44-4.25,12.52-6.64,2-1.2,4.08-2.4,6.14-3.56l.72-.42.58-.38c.46-.31,1-.65,1.67-1a14.79,14.79,0,0,1,2.27-1,9.37,9.37,0,0,1,3.68-.5,7.47,7.47,0,0,1,1.27.21,9.29,9.29,0,0,1,1.33.5,9.1,9.1,0,0,1,1.22.79,9.37,9.37,0,0,1,.95.94,5.57,5.57,0,0,1,.67,1,5.73,5.73,0,0,1,.52,1,11.06,11.06,0,0,1,.38,1.05c.09.37.16.74.22,1.11a8.66,8.66,0,0,1-.45,3.86,11.32,11.32,0,0,1-1.34,2.63,18.66,18.66,0,0,1-3.14,3.5c-1.14,1-2.19,1.73-3.12,2.4a26.25,26.25,0,0,0-2.32,1.83,6.85,6.85,0,0,0-1.33,1.6,9.25,9.25,0,0,0-1,4.76c0,1.77.63,3.95,1,6.7a17,17,0,0,1,0,4.45,10.74,10.74,0,0,1-.54,2.29l-.38,1.11c-.15.36-.35.71-.52,1.06a13.49,13.49,0,0,1-2.8,3.65,16.22,16.22,0,0,1-3.56,2.46,23.27,23.27,0,0,1-7.64,2.32,33.62,33.62,0,0,1-7.63.13c-2.49-.24-4.81-.67-7.12-1a45.57,45.57,0,0,0-6.81-.61,17.87,17.87,0,0,0-6.41,1.18,21.3,21.3,0,0,0-5.65,3.51,42.66,42.66,0,0,0-4.71,5c-1.46,1.82-2.87,3.73-4.41,5.57a34.27,34.27,0,0,1-5.13,5.16,17.88,17.88,0,0,1-1.49,1.1l-.77.52-.8.46a21.09,21.09,0,0,1-3.35,1.62,26.46,26.46,0,0,1-3.57,1c-.6.13-1.21.23-1.82.34a11.25,11.25,0,0,1-2,.12,19.7,19.7,0,0,0-3.3,0,3.81,3.81,0,0,0-2.18,1.3,3.25,3.25,0,0,0-.92,2.15,7.09,7.09,0,0,0,.5,2.65,22.71,22.71,0,0,0,1.38,3c.54,1,1.1,2.1,1.67,3.36l.73,1.76.68,1.6c.46,1.07,1,2.12,1.48,3.17,1,2.12,2.15,4.21,3.26,6.34l1.67,3.21c.56,1.09,1.13,2.19,1.69,3.2l1.68,3.1.84,1.56.89,1.73c1.19,2.32,2.25,4.7,3.27,7.11.5,1.21,1,2.42,1.44,3.64s.85,2.45,1.24,3.68c.79,2.46,1.53,4.94,2.19,7.41A150.89,150.89,0,0,1,349.91,298c.36,2.44.57,4.87.73,7.27.06,1.2.12,2.4.15,3.59l0,1.8v1.53l0,.75,0,.63c-.25,3.37-.61,5.66-.82,7.68a17.44,17.44,0,0,0-.08,4.11c0,.09,0,.28,0,.17s0-.05,0-.06a1.16,1.16,0,0,0-.07-.31,5.15,5.15,0,0,0-.43-.85c-.11-.11-.22-.4-.37-.56s-.33-.35-.48-.53a3,3,0,0,0-.51-.5l-.3-.19-.17-.12-.33-.21s.39.12,1.21.32l1.47.33,1.49.33,3.4.69a63,63,0,0,1,8.83,2.33l1.34.5c.49.21,1,.44,1.49.67s1,.46,1.49.73,1.08.64,1.61,1a14.52,14.52,0,0,1,1.6,1.08c.56.43,1.1.87,1.64,1.33l.79.69c.26.25.51.53.77.8.51.55,1,1.12,1.47,1.69a26.58,26.58,0,0,1,2.44,3.76,31.69,31.69,0,0,1,1.62,3.87,35.13,35.13,0,0,1,.9,3.64,14.58,14.58,0,0,1,.25,1.68l.15,1.61c0,.52.11,1.12.1,1.57v1.42c0,.92,0,1.94-.11,2.79a45.54,45.54,0,0,1-.67,5.07,53,53,0,0,1-2.67,9.34,57,57,0,0,1-4.17,8.58l-.63,1-.32.52-.45.67c-.61.92-1.24,1.73-1.89,2.53a44.27,44.27,0,0,1-3.73,4c-2.35,2.19-4.28,3.71-5.53,4.88a17.55,17.55,0,0,0-1.43,1.41l-.23.26a1.77,1.77,0,0,1-.16.22,6.79,6.79,0,0,0-.39.56,8,8,0,0,0-1,2.19c-.13.56-.1.83-.08.74s0,0,0,0v0s0-.13,0-.19l-.06-.21c0-.06,0-.05,0-.08s-.06-.1,0,0,.35.68.87,1.52,1.2,1.93,2,3.32a34.28,34.28,0,0,1,2.63,5.56,19.4,19.4,0,0,1,.63,2c.09.36.19.67.27,1.07s.17.81.24,1.21.13.81.18,1.23.08.92.11,1.38,0,.91,0,1.37,0,1-.08,1.49-.09,1-.15,1.47-.17.95-.27,1.42-.21.93-.33,1.39-.27.85-.42,1.27-.3.84-.46,1.25-.33.73-.51,1.1l-.53,1.07c-.19.34-.36.62-.54.93a31,31,0,0,1-4.17,5.42c-1.23,1.31-2.26,2.25-3,3l-.94.9-.17.17-.09.11-.1.09h0s0,0,0,0l-.19.26-.39.51c-.27.34-.53.68-.76,1a36.61,36.61,0,0,0-2.54,4.12,52.59,52.59,0,0,0-3.83,10.17c-.59,2-1.16,4.26-1.76,6.58l-.58,2.09c-.22.81-.48,1.59-.75,2.36s-.54,1.54-.84,2.28-.61,1.5-.94,2.22a56.83,56.83,0,0,1-10.15,15.19,66.86,66.86,0,0,1-13.22,11,99.21,99.21,0,0,1-14.2,7.52c-4.75,2.08-9.47,3.81-14.11,5.37l-6.8,2.25c-1.88.63-4.11,1.53-6.47,2.41s-4.89,1.77-7.72,2.54a32,32,0,0,1-9.91,1.2l-1.5-.14-.39,0-.53-.1c-.35-.07-.7-.15-1-.24s-.69-.17-1-.27-.66-.25-1-.39a13.75,13.75,0,0,1-1.85-.88,17.42,17.42,0,0,1-5.17-4.54,26.39,26.39,0,0,1-2.78-4.41c-.72-1.37-1.3-2.67-1.83-3.91l-1.38-3.41a27.91,27.91,0,0,0-1.23-2.58,29.71,29.71,0,0,0-3.07-4.77,51.11,51.11,0,0,0-4-4.43l-5-5c-3.89-4-6.76-7.85-9.54-10.89-.67-.79-1.36-1.46-2-2.16l-.92-.95c-.34-.22-.39-.82-.75-1a3.36,3.36,0,0,0-1.12-.31l-.28,0-.46-.13-1-.28a13.94,13.94,0,0,1-3.66-1.49,14.48,14.48,0,0,1-1.6-1.23q-.76-.63-1.56-1.35c-1-.9-2.11-1.93-3.16-3l-1.57-1.66c-.52-.57-1-1.2-1.55-1.8s-1-1.29-1.45-1.94-.93-1.35-1.37-2.06a37.09,37.09,0,0,1-4.07-8.9,52.63,52.63,0,0,1-1.77-8.75c-.13-1.42-.29-2.64-.37-4.35,0-.78,0-1.48,0-2.18l0-1.94c.07-2.42.18-4.49.1-6s-.24-2.31-.26-2.53a.45.45,0,0,1,0-.12.47.47,0,0,1-.06-.09c0-.1-.12-.15-.18-.26s-.23-.16-.32-.29a.16.16,0,0,1-.08-.06l0-.06h0c0-.12-.06-.13-.37-.13a5.74,5.74,0,0,0-1.67.47c-.75.29-1.78.8-2.88,1.31s-2.44,1.2-4,1.78c-.37.15-.8.28-1.2.42s-.82.27-1.28.37l-1.35.33a14,14,0,0,1-2.15.23,13.59,13.59,0,0,1-4-.41,17.81,17.81,0,0,1-3-1.05,42.29,42.29,0,0,1-4.05-2.21c-.52-.31-1-.6-1.39-.81s-.66-.33-1-.49a5.52,5.52,0,0,0-1.61-.45,5,5,0,0,0-1.33.05,25.23,25.23,0,0,0-4.6,1.41,39,39,0,0,1-8.37,2.39,19.45,19.45,0,0,1-6.31-.07,17.89,17.89,0,0,1-6.8-2.77l-1.44-1L127,412.14a18.67,18.67,0,0,1-2.86-8.95,23,23,0,0,1,.16-4.21,24.47,24.47,0,0,1,.75-3.54,46.85,46.85,0,0,1,2.06-5.65l2-4.47c1.15-2.68,1.83-4.95,1.76-6.16a4,4,0,0,0-.4-1.71,37.51,37.51,0,0,0-1.91-3.44,34.65,34.65,0,0,1-2.87-5.77,18.79,18.79,0,0,1-1-4.07,20.87,20.87,0,0,1-.17-4.12,32,32,0,0,1,1-6.24l.53-2.2.34-1.86.18-.92c0-.31,0-.62.09-.94l.17-1.89a31.48,31.48,0,0,0-.13-3.87,27.76,27.76,0,0,0-1.83-7.86l-.77-1.94-1-1.88c-.31-.63-.69-1.23-1.06-1.84s-.75-1.21-1.18-1.79a42.41,42.41,0,0,0-5.72-6.49,47,47,0,0,0-7-5.24c-1.18-.82-2.52-1.42-3.76-2.11s-2.66-1.31-4.06-1.86c-11-4.61-23.26-7.13-35.78-11.85a45.61,45.61,0,0,1-9.17-4.57c-.74-.49-1.47-.95-2.2-1.49L52,292.35l-1.27-1c-.86-.65-1.76-1.38-2.71-2.22l-.78-.71-.39-.36-.44-.45c-.3-.31-.54-.55-.92-1a15.09,15.09,0,0,1-1.07-1.37c-.2-.29-.39-.59-.57-.89a10.92,10.92,0,0,1-.63-1.28c-.1-.22-.19-.45-.27-.68a9.42,9.42,0,0,1-.26-.91,9,9,0,0,1-.25-2,9.44,9.44,0,0,1,.25-2.26,10.15,10.15,0,0,1,.77-2,6.89,6.89,0,0,1,.46-.76c.16-.23.33-.45.5-.67s.39-.46.52-.58l.45-.41a9.57,9.57,0,0,1,3-1.75c.39-.13.75-.23,1.12-.34l1-.21a39.52,39.52,0,0,1,6.28-.42c1.89,0,3.7,0,5.54,0l1.38,0,1.31,0,2.46.08a285.62,285.62,0,0,0,39-.91c6.42-.65,12.77-1.62,19-2.83a160.84,160.84,0,0,0,18.37-4.82,135.78,135.78,0,0,0,17.36-7,177.29,177.29,0,0,0,16.55-9c10.85-6.55,21.43-13.88,32.29-21.27,5.42-3.72,10.94-7.34,16.43-11L243,202.54l8.31-5.35c2.79-1.79,5.54-3.53,8.08-5.27a68.93,68.93,0,0,0,7-5.36,38.82,38.82,0,0,0,3-2.86c1-1,1.91-2.13,2.87-3.32,1.92-2.39,3.87-5.09,6.11-7.86,1.12-1.39,2.33-2.79,3.63-4.16a54.31,54.31,0,0,1,4-3.79c2.73-2.36,5.46-4.44,8.18-6.4l4.09-3c1.37-1,2.77-1.92,4.16-2.87A308.32,308.32,0,0,1,337.05,132c6-3,12-5.83,18.06-8.49s12.17-5.27,18.34-7.68c12.37-4.73,24.75-9.34,37.47-12.92,3.17-.92,6.34-1.82,9.53-2.65s6.38-1.68,9.58-2.46c1.6-.4,3.2-.76,4.82-1.09l4.83-1,9.67-2.05c-6.37,1.71-12.78,3.26-19.09,5.1q-4.72,1.39-9.43,2.87c-3.15.92-6.28,1.91-9.4,2.92s-6.24,2-9.33,3.1-6.17,2.25-9.25,3.41c-6.13,2.35-12.23,4.79-18.25,7.42s-12,5.35-17.88,8.29-11.72,6-17.47,9.12a307.16,307.16,0,0,0-33.11,21.36c-1.31,1-2.64,2-3.94,3l-3.86,3.06c-2.59,2-5.11,4.14-7.51,6.37a54.63,54.63,0,0,0-6.55,7.29c-2,2.61-3.82,5.35-5.79,8a52,52,0,0,1-6.52,7.46,76.43,76.43,0,0,1-7.66,6.27c-2.67,1.94-5.4,3.78-8.12,5.65L248,209.87l-32.6,22.36c-10.84,7.48-21.77,14.87-33.27,21.32a159.55,159.55,0,0,1-36.34,15.28,199.74,199.74,0,0,1-39,6.3c-13.15.93-26.34.87-39.51.52-1.65,0-3.29-.12-4.94-.1s-3.29.13-4.93.32a25.72,25.72,0,0,0-4.83,1A5.88,5.88,0,0,0,50.5,278a1.35,1.35,0,0,0-.49,1.09,1.92,1.92,0,0,0,.52,1.09,13.08,13.08,0,0,0,4.12,2.66c1.5.69,3.05,1.25,4.58,1.84,3.08,1.17,6.19,2.28,9.3,3.36,12.41,4.35,25,8.41,36.49,15a67,67,0,0,1,15.59,12,63.54,63.54,0,0,1,6.23,7.66c.48.67.88,1.39,1.32,2.08a22.8,22.8,0,0,1,1.25,2.13l1.16,2.19,1,2.25c.17.38.34.75.49,1.14l.41,1.16c.26.78.57,1.55.79,2.34a39.92,39.92,0,0,1,1.08,4.82,40.45,40.45,0,0,1,.51,4.91c0,.82,0,1.65-.06,2.47,0,.41,0,.82,0,1.23l-.15,1.23c-.26,3.29-1.45,6.43-1.61,9.74a12,12,0,0,0,.73,4.85,28,28,0,0,0,2.21,4.41,42.32,42.32,0,0,1,2.34,4.35,12.75,12.75,0,0,1,1.11,4.78c.12,3.32-.94,6.53-2.1,9.59a95.27,95.27,0,0,0-3.39,9.28,15.5,15.5,0,0,0-.56,4.88,10,10,0,0,0,1.47,4.66h0a9.55,9.55,0,0,0,6.77,1.42,38.71,38.71,0,0,0,6.85-1.76,27.3,27.3,0,0,1,6.92-1.42,13.75,13.75,0,0,1,6.82,1.58c2.12,1.06,4,2.57,6.12,3.56a7.47,7.47,0,0,0,3.41.8,6.4,6.4,0,0,0,.88-.09l.86-.22c.57-.14,1.12-.36,1.68-.55,2.19-.87,4.23-2.09,6.37-3.08a11.21,11.21,0,0,1,6.85-1.22,4,4,0,0,1,.86.21l.85.26c.52.27,1.09.47,1.58.79a9.9,9.9,0,0,1,1.44,1l.66.59.57.67a13.54,13.54,0,0,1,2.65,6.48c.77,4.67.33,9.45,1.34,14.09a46.19,46.19,0,0,0,1.83,6.83,29.18,29.18,0,0,0,3.24,6.28,33.13,33.13,0,0,0,4.61,5.35,67.27,67.27,0,0,0,5.43,4.54c1.87,1.45,3.86,2.72,5.67,4.23A43.9,43.9,0,0,1,224,462.7c3.07,3.58,5.78,7.46,9,11s6.54,6.83,9.26,10.7a43.89,43.89,0,0,1,3.6,6.09c1.06,2.11,1.83,4.35,2.74,6.53a25.52,25.52,0,0,0,3.39,6.19,8.89,8.89,0,0,0,2.64,2.32,7.26,7.26,0,0,0,3.39.86,22.6,22.6,0,0,0,7-1.08,65.21,65.21,0,0,0,6.63-2.48c2.17-.92,4.32-1.91,6.5-2.8l6.58-2.64c4.36-1.78,8.69-3.69,12.89-5.84a87.56,87.56,0,0,0,12.07-7.38A57.23,57.23,0,0,0,320,474.5a46.3,46.3,0,0,0,7.33-12.05c1.85-4.36,2.45-9.1,3.62-13.67a63,63,0,0,1,4.55-13.38,44.29,44.29,0,0,1,3.6-6.09c.66-1,1.38-1.92,2.11-2.85a31,31,0,0,1,2.45-2.55,27.29,27.29,0,0,0,4.69-5.27,7.6,7.6,0,0,0,1.13-3.32,8.39,8.39,0,0,0-.55-3.46,37.29,37.29,0,0,0-3.33-6.23,16.87,16.87,0,0,1-2.66-6.51c-.69-4.72.92-9.5,3.52-13.4s6.6-6.73,10.05-9.92a28.08,28.08,0,0,0,2.44-2.56,22.42,22.42,0,0,0,2-2.9,44,44,0,0,0,3.12-6.35,40.2,40.2,0,0,0,2-6.78,27.71,27.71,0,0,0,.54-7,11.45,11.45,0,0,0-2.22-6.59,12.89,12.89,0,0,0-5.8-3.87c-4.46-1.6-9.18-2.19-13.74-3.42a13.34,13.34,0,0,1-6.3-3.06,10.38,10.38,0,0,1-2.67-6.41c-.47-4.74.62-9.42.93-14.11a32.16,32.16,0,0,0,0-3.54l-.09-3.54-.23-7.08c-.21-4.71-.51-9.43-1-14.12a122.07,122.07,0,0,0-2.27-14c-1-4.61-2.54-9.09-3.93-13.6L325,243.35c-.69-2.26-1.31-4.54-1.93-6.81s-1.77-4.39-2.34-6.68a8.87,8.87,0,0,1-.23-3.51,5.34,5.34,0,0,1,1.68-3,5.42,5.42,0,0,1,3.13-1.52,22,22,0,0,1,3.54.1,21.67,21.67,0,0,0,13.08-4.7c3.76-2.91,6.45-6.88,9.37-10.56a43.8,43.8,0,0,1,4.75-5.25,23.15,23.15,0,0,1,5.88-3.9,19.32,19.32,0,0,1,6.88-1.51,49.15,49.15,0,0,1,7.07.31c2.35.23,4.69.55,7.05.68a31.35,31.35,0,0,0,7-.45,20.93,20.93,0,0,0,6.65-2.34,13.84,13.84,0,0,0,2.82-2.11,10.7,10.7,0,0,0,2-2.88c.12-.27.26-.53.36-.81l.25-.84a7.36,7.36,0,0,0,.34-1.73,13.06,13.06,0,0,0-.16-3.53c-.38-2.32-1.13-4.59-1.33-7A13.46,13.46,0,0,1,402,168.4a14.36,14.36,0,0,1,4.76-5.16,20.45,20.45,0,0,0,5.07-4.88,5.14,5.14,0,0,0,1-3.31,2.57,2.57,0,0,0-2.23-2.35,6.79,6.79,0,0,0-3.35,1c-1,.54-2.05,1.17-3.12,1.67l-6.35,3.13-12.7,6.27-3.17,1.57a21.31,21.31,0,0,1-3.27,1.37,7.56,7.56,0,0,1-3.5.3,4.81,4.81,0,0,1-3-1.68,4.73,4.73,0,0,1-.9-3.36,6.62,6.62,0,0,1,1.26-3.27,13.16,13.16,0,0,1,2.44-2.56,22.5,22.5,0,0,1,2.88-2.06c4.06-2.46,8.66-3.79,13.21-5s9.2-2.24,13.48-4.25a25.42,25.42,0,0,0,5.94-3.82,18.2,18.2,0,0,0,4.37-5.49,13.45,13.45,0,0,0,1.2-3.32,33.73,33.73,0,0,0,.52-3.49,15.3,15.3,0,0,1,.72-3.47,6,6,0,0,1,2.06-2.83,6.9,6.9,0,0,1,3.28-1.27,15,15,0,0,1,3.54,0c2.36.23,4.66.76,7,1a84.39,84.39,0,0,0,14.12.64,63.85,63.85,0,0,0,7.05-.61,6.66,6.66,0,0,0,3.18-1.42,2.92,2.92,0,0,0,.95-1.43,2.22,2.22,0,0,0-.3-1.68,7.46,7.46,0,0,0-2.54-2.39,13.4,13.4,0,0,0-3.22-1.41,56.34,56.34,0,0,0-6.95-1.3q-3.51-.5-7-.76c-1.18-.08-2.36-.18-3.53-.19a14.33,14.33,0,0,1-3.52-.38,3.54,3.54,0,0,1-1.56-.84,2.08,2.08,0,0,1-.58-1.64,2.23,2.23,0,0,1,.87-1.52,6.89,6.89,0,0,1,1.49-1,48.88,48.88,0,0,1,6.74-2.15c4.48-1.52,9.07-2.64,13.57-4.06a13.11,13.11,0,0,0,3.25-1.37,2.22,2.22,0,0,0,1.05-1.34,2.14,2.14,0,0,0-.58-1.61,9.21,9.21,0,0,0-2.82-2.09,7.57,7.57,0,0,0-3.36-.93Z"/><path d="M444.65,159a3.54,3.54,0,0,0-1.33,2,4.22,4.22,0,0,0,.22,2.41,37.77,37.77,0,0,0,2.14,4.4,13.46,13.46,0,0,1,1,2.5,8,8,0,0,1,.27,2.95,4.89,4.89,0,0,1-1.49,3.21,6.32,6.32,0,0,1-3.16,1.49,21.83,21.83,0,0,1-5.42.13c-.75,0-1.53,0-2.32,0s-1.53,0-2.28,0-1.49.05-2.21.14a16.8,16.8,0,0,0-2.13.3,9.81,9.81,0,0,0-3.78,1.63,5.16,5.16,0,0,0-1.32,1.43,6.28,6.28,0,0,0-.86,1.87,13,13,0,0,0-.52,2.21l-.42,2.46c-.15.85-.35,1.76-.61,2.69s-.5,1.74-.75,2.57c-.47,1.64-1,3.22-1.35,4.79a28.09,28.09,0,0,0-.92,8.65,15.56,15.56,0,0,0,.76,3.52c.39,1.16.83,2.35,1.38,3.59l1.8,3.88c.63,1.36,1.38,2.75,2.05,4.28a101.77,101.77,0,0,1,3.85,9.74,80.61,80.61,0,0,1,3,10.73c.36,1.9.69,3.82.93,5.8a57.76,57.76,0,0,1,.34,6.08c0,1,0,2.07-.06,3.12s-.14,2.1-.26,3.15-.29,2.12-.46,3.17l-.19,1.17c0,.28-.1.56-.12.83a15.53,15.53,0,0,0,.16,5.45,13.66,13.66,0,0,0,2.21,4.72c.31.42.61.84,1,1.27l1.72,2.17a59.07,59.07,0,0,1,3.57,5.34,57.48,57.48,0,0,1,2.94,5.74c.88,1.95,1.57,4,2.28,5.93a99,99,0,0,1,3.22,11.79,60.56,60.56,0,0,1,1.37,9.83,42.52,42.52,0,0,1-.48,10c-.52,3.39-1.27,6.81-1.61,10.18a41.32,41.32,0,0,0-.15,4.91,27.16,27.16,0,0,0,.53,4.31,17.36,17.36,0,0,0,1.14,3.69A10.8,10.8,0,0,0,450,354a5.3,5.3,0,0,0,1.82,1.31c.29.07.55.17.82.22s.34,0,.38-.12,0-.19.11-.23a3.58,3.58,0,0,1,.75-.16c.41-.06,1-.1,1.75-.19.35,0,.77-.07,1.17-.1l1.6-.1a52,52,0,0,1,6.17.19c2,.19,3.85.5,5.63.82s3.46.73,5.06,1.14L480,358c1.52.4,2.88.75,4.1,1,.6.13,1.18.24,1.71.3l.4.05.19,0s0,0,0,0,.12.06.32.06c.48,0,1.29-.13,2.34-.27a25.28,25.28,0,0,1,4.17-.27c.46,0,.89,0,1.42.12l.76.11.82.15a13.27,13.27,0,0,1,1.72.45,16.07,16.07,0,0,1,1.59.66,14.12,14.12,0,0,1,4.82,3.94,30.51,30.51,0,0,1,2,2.94,3.48,3.48,0,0,0,.47.69c0-.05-.13-.15-.1-.13l.13.11c.13.09.23.19.42.31s.78.49,1.28.77c1,.54,2.28,1.14,3.7,1.75s3,1.27,4.74,2.06c3.2,1.44,6.08,3,8.74,4.44.66.33,1.31.74,2,1.07a12.55,12.55,0,0,1,1.87,1.1c1.17.84,2.16,2.29,3.39,3.16a6.88,6.88,0,0,0,4,1c.67.06,1.33,0,2,0s1.36-.06,1.95-.13a4.84,4.84,0,0,0,2.39-.76,2.05,2.05,0,0,0,.68-1,2.68,2.68,0,0,0-.22-1.34c-.06-.15-.12-.29-.2-.45l-.3-.53a12.57,12.57,0,0,0-.91-1.38,21.75,21.75,0,0,0-2.5-2.75,30.38,30.38,0,0,0-3.18-2.51c-2.35-1.67-5-3.25-7.89-5-1.43-.86-2.89-1.8-4.38-2.8-.75-.5-1.5-1-2.26-1.57s-1.53-1.18-2.28-1.8c-.37-.31-.76-.61-1.12-.93l-1-1c-.68-.65-1.39-1.29-2.06-1.95l-1.92-2c-.31-.34-.65-.67-1-1l-.87-1.07c-2.33-2.85-3.82-6.23-5.47-9.42a49.64,49.64,0,0,0-2.68-4.65l-1.47-2.26-1.58-2.22c-2.07-3-4.5-5.95-6.51-9.31-.5-.84-1-1.67-1.5-2.54s-.85-1.81-1.23-2.73a28.51,28.51,0,0,1-1.72-5.86,25.24,25.24,0,0,1-.35-3.16,9.46,9.46,0,0,1,.18-3.25,17.12,17.12,0,0,1,1.17-3.28,24.4,24.4,0,0,1,2-3.13l1.08-1.45,1.17-1.57c.76-1,1.52-2,2.18-2.86,1.36-1.77,2.21-3.6,3.41-5.15s2.35-3,3.5-4.32,2.31-2.58,3.37-3.81c.52-.61,1.05-1.2,1.52-1.81s.89-1.15,1.27-1.73a15.44,15.44,0,0,0,1.81-3.44,9.67,9.67,0,0,0,.71-3.1,6.53,6.53,0,0,0-.46-2.57c-.63-1.62-1.72-3.06-3.74-5.33-1-1.1-2-2.33-3.18-3.72a37.81,37.81,0,0,1-3.55-4.92,33.83,33.83,0,0,1-2.71-6c-.63-1.77-1.1-3.19-1.5-4.24a13.55,13.55,0,0,0-.59-1.32c-.22-.43-.52-1-.82-1.54-.64-1.11-1.5-2.34-2.6-4.33a26,26,0,0,1-2.76-7.16,26.31,26.31,0,0,1-.48-3.69l0-.87c0-.3,0-.6,0-.78v-1.24c0-3.33.13-6.72.27-10.14s.45-6.9.9-10.39l.14-1a7,7,0,0,0,.11-.88,14.1,14.1,0,0,0,.08-1.7,11.36,11.36,0,0,0-.37-3.2,13.78,13.78,0,0,0-3.88-6.14c-.24-.25-.51-.49-.77-.73l-.4-.36-.5-.42c-.7-.57-1.37-1.17-2-1.76-1.32-1.21-2.59-2.45-3.78-3.75a71.2,71.2,0,0,1-6.48-8.23,62.19,62.19,0,0,1-5.07-8.9,25.22,25.22,0,0,0-5.5-7.78,10.58,10.58,0,0,0-4.16-2.27,20.83,20.83,0,0,0-4.87-.62,23.8,23.8,0,0,0-4.91.38,10.15,10.15,0,0,0-4.51,1.89Zm-.06-.07a9.88,9.88,0,0,1,4.39-2.45,22.8,22.8,0,0,1,5-1,18.63,18.63,0,0,1,5.2.2,12.85,12.85,0,0,1,5,2.28,27.42,27.42,0,0,1,6.56,8,59.54,59.54,0,0,0,5.56,8,62.94,62.94,0,0,0,6.72,7c1.21,1.1,2.48,2.11,3.78,3.1s2.67,1.85,4,2.88a21,21,0,0,1,6.52,7.74,20.49,20.49,0,0,1,1.64,9.89c-.36,6.59,0,13.21.27,19.81a26,26,0,0,0,.53,4.91,16.09,16.09,0,0,0,1.88,4.56c.82,1.43,1.79,2.78,2.64,4.2a24.42,24.42,0,0,1,2.19,4.44c1.15,3.09,1.81,6.38,3.37,9.31a91,91,0,0,0,5.5,8.25,32.07,32.07,0,0,1,2.53,4.26,16.62,16.62,0,0,1,1.46,4.71,15.28,15.28,0,0,1-1.89,9.56,36.72,36.72,0,0,1-6,7.84,73.08,73.08,0,0,0-6.49,7.48A18.33,18.33,0,0,0,501.3,303a34.8,34.8,0,0,0,.19,9.88,67.51,67.51,0,0,0,6.24,18.75,87.94,87.94,0,0,0,10.73,16.63c1,1.32,2.18,2.49,3.27,3.73.57.6,1.17,1.17,1.75,1.76a24.13,24.13,0,0,0,1.82,1.68,79.09,79.09,0,0,0,7.89,6c2.72,1.89,5.45,3.76,8,5.87a30.59,30.59,0,0,1,6.65,7.3,14.41,14.41,0,0,1,2,4.53,8.24,8.24,0,0,1-.4,4.86,7.88,7.88,0,0,1-3.22,3.67,11.47,11.47,0,0,1-4.72,1.39,30.82,30.82,0,0,1-9.85-.74,52.59,52.59,0,0,1-9.34-3.29c-3-1.35-6-2.84-9-4.23s-6.11-2.53-9-4.14a16.32,16.32,0,0,1-4-2.93c-1.1-1.25-1.74-2.82-2.75-4.12a5.54,5.54,0,0,0-1.87-1.6,5.06,5.06,0,0,0-2.4-.51,27.88,27.88,0,0,0-4.87.84,20.49,20.49,0,0,1-4.95.16c-1.65-.1-3.29-.32-4.92-.56l-9.81-1.47a56.47,56.47,0,0,0-9.89-.62c-1.65.07-3.3.26-4.95.26a12.57,12.57,0,0,1-4.86-.83,15.16,15.16,0,0,1-7.15-6.62,30.55,30.55,0,0,1-3.28-9.32c-.66-3.24-1-6.54-1.39-9.82l-1.18-9.85L433.71,310a49.4,49.4,0,0,0-5.77-18.82,45.47,45.47,0,0,0-2.68-4.17c-1-1.33-2-2.61-2.94-4a26,26,0,0,1-3.87-9.08,27.29,27.29,0,0,1-.14-9.87c.27-1.64.63-3.25.84-4.89.1-.82.21-1.64.25-2.46s.12-1.65.12-2.48a70.11,70.11,0,0,0-2.74-19.56c-.85-3.2-1.81-6.36-2.81-9.51a85.57,85.57,0,0,1-2.63-9.56,26,26,0,0,1-.24-9.87,38.69,38.69,0,0,1,3.25-9.35c.7-1.5,1.43-3,2.16-4.47.35-.75.72-1.49,1-2.25a24,24,0,0,0,.84-2.33,48.94,48.94,0,0,1,1.61-4.69,10.33,10.33,0,0,1,2.9-4,15.66,15.66,0,0,1,9.28-3.08,32.89,32.89,0,0,1,5,.14,23.29,23.29,0,0,0,4.93.23,4.32,4.32,0,0,0,2.25-.86,3.35,3.35,0,0,0,1.14-2.1,8.72,8.72,0,0,0-.7-4.82,22.16,22.16,0,0,1-1.56-4.7,5.22,5.22,0,0,1,1.33-4.61Z"/></svg>