<svg id="Layer_1" data-name="Layer 1" xmlns="http://www.w3.org/2000/svg" viewBox="0 0 600 600"><title>Bulgaria</title><path d="M110.54,135.74a20.74,20.74,0,0,1,3.9,4.9,24.83,24.83,0,0,1,2.47,5.8,15.86,15.86,0,0,1,.57,3.16,10.93,10.93,0,0,1-.26,3.28c-.48,2.13-1.37,4.07-1.85,6a10.31,10.31,0,0,0-.33,2.83,7,7,0,0,0,.67,2.63,8.72,8.72,0,0,0,3.9,3.76c3.43,1.81,7.51,2.57,11.56,3.19l6.21.87c1.06.16,2.12.33,3.23.57l3.07.68,6.13,1.35L156,176l24.58,5.1a185.28,185.28,0,0,0,24.19,3.7,85.51,85.51,0,0,0,11.76,0c3.84-.27,7.91-.9,12.35-1.31,2.21-.2,4.53-.33,6.92-.31a65,65,0,0,1,7,.47c4.58.55,8.93,1.45,13.06,2.34s8,1.7,12,2.4,8,1.32,12,1.83a219.32,219.32,0,0,0,23.65,2c7.42.1,14-1.13,18.64-3.93a31,31,0,0,0,6.92-6.15c2.49-2.76,5.11-6.12,8.5-9.67a54,54,0,0,1,5.77-5.26l3.3-2.37a14.61,14.61,0,0,1,1.7-1.07l1.73-1a63.3,63.3,0,0,1,14-5.61c4.61-1.3,9.1-2.21,13.33-3s8.33-1.44,12.11-2.23c1.95-.36,3.71-.82,5.53-1.24s3.49-.93,5-1.54,3.05-1.21,4.54-1.83l2-1.1a19.48,19.48,0,0,0,2.05-1.23c1.48-1,3.31-2.29,5.65-3.7a39.86,39.86,0,0,1,3.95-2.09,32.28,32.28,0,0,1,4.64-1.71,39.77,39.77,0,0,1,8.92-1.45,65.8,65.8,0,0,1,7.75.08,111.59,111.59,0,0,1,53.21,17.58c7.79,5.05,14.32,10.28,20.56,14.18a53.65,53.65,0,0,0,9,4.65,29.41,29.41,0,0,0,4.24,1.27c.7.13,1.32.31,2.11.41s1.66.23,2.68.36c2,.27,4.46.56,7.41,1.2a32.8,32.8,0,0,1,10.1,3.94,28.48,28.48,0,0,1,5.16,4.11,29.22,29.22,0,0,1,3.93,5,38.82,38.82,0,0,1,4.1,9.49c.84,2.86,1.32,5.21,1.79,7.42s.92,4.73,1.26,7.32a62.07,62.07,0,0,1,.54,8.34,42.44,42.44,0,0,1-1.22,9.86,32.15,32.15,0,0,1-5,11.08,31,31,0,0,1-4.46,5c-.4.36-.86.79-1.22,1.08l-1,.81c-.71.53-1.43,1.06-2.15,1.57a47.64,47.64,0,0,1-8.77,4.57,69.15,69.15,0,0,1-7.73,2.58l-3.09.88-1.39.4-1.16.37-.59.18-.46.18-.92.35-.69.32-.35.14-.23.15c-.15.09-.31.17-.47.25a3,3,0,0,1-.28.24c-.24.1-.25.3-.41.38s-.08.16-.13.21-.12.09-.17.2a1.08,1.08,0,0,1-.16.3.64.64,0,0,1-.1.13.67.67,0,0,0-.11.15l-.15.23a52.54,52.54,0,0,0-4.48,8.1l-.48,1.08c-.14.37-.3.73-.47,1.09a14.52,14.52,0,0,1-1.17,2.06c-.89,1.33-2.06,2.55-3.09,3.86-2.19,2.77-2.57,4.6-3.78,9.65-.56,2.24-1.19,4.64-2,7.13a54.09,54.09,0,0,1-3.06,7.8,39.81,39.81,0,0,1-4.82,7.64,38.76,38.76,0,0,1-6.29,6.26c-.55.48-1.12.86-1.69,1.28s-1.14.83-1.7,1.18c-1.16.74-2.2,1.34-3.2,1.93-2,1.14-3.66,2-4.9,2.84-.62.4-1.12.78-1.55,1.11a9.21,9.21,0,0,0-.93.87,4.8,4.8,0,0,0-.48.73,3.68,3.68,0,0,0-.32,1,9.27,9.27,0,0,0,1.44,6.25c.15.27.34.52.49.77s.29.43.5.64a13.19,13.19,0,0,0,1.35,1.36c1.12,1,2.62,2,4.46,3.24a42.91,42.91,0,0,1,6.08,4.88,27.93,27.93,0,0,1,2.92,3.41,37.72,37.72,0,0,1,2.18,3.39c1.26,2.2,2.24,4.32,3.17,6.29l1.32,2.83.63,1.32.66,1.34a46.05,46.05,0,0,1,2.89,7.06,27.23,27.23,0,0,1,1.27,8.93,22.73,22.73,0,0,1-2.49,9.64,23.81,23.81,0,0,1-6.2,7.55A33.28,33.28,0,0,1,484,404.19a42.54,42.54,0,0,1-15.78-.37,36.48,36.48,0,0,1-3.92-1.06c-1.13-.41-2.32-.78-3.39-1.22-2.24-.83-4.33-1.73-6.37-2.64-4.06-1.83-7.77-3.68-11.32-5.22a50.45,50.45,0,0,0-10-3.33,26,26,0,0,0-8.88-.17c-.76.13-1.51.18-2.28.37-.38.09-.83-.12-1.2,0s-.73.42-1.08.65c-1.4,1-2.57,2.45-4,3.29a71.52,71.52,0,0,0-9,5.57c-.75.54-1.51,1.11-2.26,1.67l-2.44,1.85c-1.82,1.38-3.6,2.66-5.36,3.92-7,5-13.45,9.43-18.27,14.17a39,39,0,0,0-5.91,7.13,23.66,23.66,0,0,0-1.83,3.51,16.86,16.86,0,0,0-.63,1.71l-.13.42c0,.09,0,.09,0,.1v0a.11.11,0,0,1,0,.08.57.57,0,0,1,0,.13,26,26,0,0,0,0,2.81c0,1.6.22,3.85.18,6.8A35.09,35.09,0,0,1,368.47,455l-.51,1.47c-.06.2-.27.64-.4.95l-.48,1a21.3,21.3,0,0,1-1.07,2c-.41.66-.86,1.31-1.32,1.94a25.12,25.12,0,0,1-3.09,3.42c-.54.48-1.1.93-1.67,1.37a17.69,17.69,0,0,1-1.7,1.19c-.55.35-1.11.68-1.67,1s-1.06.54-1.6.8-1.08.5-1.55.69l-1.45.53-.72.25-.66.2-1.31.38c-.83.22-1.6.39-2.39.56-3,.61-5.34.84-7,1.09l-.31.05-.23,0-.47.08-.76.16-3,.72L329,476.39l-12.25,2.68-6.13,1.34a38,38,0,0,1-6.5,1.06c-4.67.33-10-.9-15.23-2.49-2.62-.79-5.2-1.57-7.79-2.39a61,61,0,0,1-7.67-2.73c-1.26-.53-2.45-1.25-3.65-1.9-.59-.34-1.15-.73-1.72-1.1l-.85-.57-.66-.49c-1.71-1.33-3.37-2.47-5-3.57-3.21-2.08-6.27-3.58-9.23-4s-7-.12-12-.49a29.57,29.57,0,0,1-8.21-1.78,27.54,27.54,0,0,1-7.66-4.58,41.3,41.3,0,0,1-5.46-5.65c-1.5-1.79-2.82-3.39-4-4.51a10.2,10.2,0,0,0-3-2.22,9,9,0,0,0-2.61-.51,10.38,10.38,0,0,0-1.5,0,13.35,13.35,0,0,0-1.35.26,18,18,0,0,0-3.25,1.16q-1.91.88-4.4,2.17c-1.68.85-3.44,1.84-6,2.94a41.46,41.46,0,0,1-15.16,3.65,40.06,40.06,0,0,1-7-.46c-2.29-.34-4.32-.83-6.46-1.28s-4.25-.92-6.36-1.29a59.91,59.91,0,0,0-6.33-.74c-4.2-.29-8.36.19-12.54.37s-8.31.49-12.46.78l-6.22.43-1.55.12c-.47.05-.8.09-1.24.17-.83.13-1.74.33-2.72.56a44.27,44.27,0,0,1-7,1.23,20.43,20.43,0,0,1-4.31-.17,14.44,14.44,0,0,1-4.81-1.6,14.23,14.23,0,0,1-2.18-1.45,16,16,0,0,1-1.81-1.77,15.71,15.71,0,0,1-1.46-1.92,17.15,17.15,0,0,1-1.12-2A26.82,26.82,0,0,1,89.81,436a61.32,61.32,0,0,1-.41-14,115.81,115.81,0,0,1,1.69-13.23c.2-1.09.42-2.17.65-3.27s.44-2,.55-2.77a13.29,13.29,0,0,0,.19-2.13A7.76,7.76,0,0,0,92.3,399a11.83,11.83,0,0,0-.55-1.66c-.25-.62-.63-1.4-1-2.2l-1.36-2.61-.75-1.45-.77-1.54c-2-4.07-3.52-7.88-5.25-11.08A30.55,30.55,0,0,0,80,374.35a12.17,12.17,0,0,0-2.52-2.17,42,42,0,0,0-9.31-4.12,76.29,76.29,0,0,1-12.95-5.43,35,35,0,0,1-6.9-5.09c-.56-.55-1.06-1.06-1.61-1.69a22.93,22.93,0,0,1-1.59-2,26.94,26.94,0,0,1-2.43-4.34,24.33,24.33,0,0,1-2.09-9.93,20.64,20.64,0,0,1,.82-5.65,18.91,18.91,0,0,1,1.18-3,17.41,17.41,0,0,1,1.76-2.82,22.17,22.17,0,0,1,3.77-3.8c1.14-.93,2.09-1.58,2.8-2.11A13.86,13.86,0,0,0,52.33,321c.13-.11.16-.16.19-.18s0,0,0,0l.16-.29a6.43,6.43,0,0,0,.87-2.39,15,15,0,0,0-.06-3.93c-.2-1.63-.57-3.55-1-5.72-.19-1.09-.38-2.25-.54-3.47-.07-.63-.16-1.22-.21-1.89l-.08-1-.06-.87c-.09-1.79-.3-3.88-.46-6.13a56,56,0,0,1-.13-7.3,28.32,28.32,0,0,1,1.76-8.71,23.23,23.23,0,0,1,1.09-2.31c.41-.69.83-1.38,1.26-2.06s1-1.33,1.57-2,1.2-1.21,1.81-1.79a22.51,22.51,0,0,1,8.11-4.37,68.48,68.48,0,0,1,6.75-1.61,33.28,33.28,0,0,0,4.92-1.28l.94-.39,1.32-.66c.88-.46,1.77-.91,2.61-1.38a57,57,0,0,0,4.89-2.93,34.41,34.41,0,0,0,4.27-3.29,16.58,16.58,0,0,0,5.2-7.59,11.71,11.71,0,0,0-1.13-8.61c-1.53-3.08-4.1-6.19-6.71-9.66L82.43,219l-7.24-10.31c-2.39-3.43-4.83-6.86-7.13-10.47A101.46,101.46,0,0,1,61.77,187a47.2,47.2,0,0,1-4-12.36,25.2,25.2,0,0,1,1.08-13,24.26,24.26,0,0,1,7.86-10.16,109,109,0,0,1,10.54-6.91c1.78-1.11,3.51-2.26,5.21-3.48s3.34-2.51,5.06-3.71c3.41-2.36,7.13-4.6,11.34-5.18a14.7,14.7,0,0,1,11.63,3.67Zm-.06.07a14.51,14.51,0,0,0-11.56-3.1,18.83,18.83,0,0,0-5.66,2.12,42.73,42.73,0,0,0-5.1,3.41c-1.64,1.24-3.23,2.6-4.89,3.89s-3.42,2.53-5.17,3.7A113.18,113.18,0,0,0,68,152.92a20.39,20.39,0,0,0-7.47,21.13,44,44,0,0,0,4.17,11.41A94.09,94.09,0,0,0,71.11,196c2.35,3.41,4.9,6.71,7.42,10.05l7.56,10,7.57,10c2.58,3.25,5.45,6.39,7.57,10.14a19.62,19.62,0,0,1,2.27,6.06,17,17,0,0,1-.08,6.48,22.22,22.22,0,0,1-6.49,10.92,40.06,40.06,0,0,1-4.84,4.1c-1.69,1.26-3.46,2.41-5.25,3.5s-3.58,2.15-5.53,3.07a36.42,36.42,0,0,1-6,1.95c-2,.51-4.07,1-6,1.65a15.25,15.25,0,0,0-5.33,3A12.81,12.81,0,0,0,60.55,282a19.49,19.49,0,0,0-1,6.08c-.1,4.16.58,8.3.95,12.47s1.47,8.21,2.08,12.35a24.47,24.47,0,0,1,.21,6.28,15.09,15.09,0,0,1-1.92,5.95,13.57,13.57,0,0,1-4.28,4.54,22.75,22.75,0,0,0-4.71,4.09A9.62,9.62,0,0,0,50,339.62a15,15,0,0,0,1.3,6.09c1.62,3.91,5,6.76,8.58,8.85a78.49,78.49,0,0,0,11.49,5A48.57,48.57,0,0,1,82.62,365a18.88,18.88,0,0,1,4.45,4.38,40.58,40.58,0,0,1,3.1,5.44c1.82,3.77,3.27,7.7,5,11.53.85,1.91,1.79,3.78,2.64,5.69a23.2,23.2,0,0,1,1.9,5.95,17.89,17.89,0,0,1-.35,6.23c-.45,2-1,4.05-1.48,6.1a109.87,109.87,0,0,0-2.06,12.36,54,54,0,0,0,0,12.52,20.63,20.63,0,0,0,1.65,6,9.84,9.84,0,0,0,4.06,4.63,11.18,11.18,0,0,0,6.08,1.16,40.44,40.44,0,0,0,6.18-1,34.13,34.13,0,0,1,6.2-.85l6.26-.4,12.52-.8,25-1.61c4.17-.29,8.36-.47,12.5-1a45.42,45.42,0,0,0,12.08-3.22c3.83-1.67,7.52-3.7,11.5-5a25.23,25.23,0,0,1,6.14-1.22,19.26,19.26,0,0,1,3.13.08,26.84,26.84,0,0,1,3.07.6,17.51,17.51,0,0,1,5.62,2.71,23.37,23.37,0,0,1,4.37,4.46c2.55,3.31,4.61,7,7.69,9.89a14.41,14.41,0,0,0,1.19,1l.61.5c.21.15.44.28.66.42.44.28.87.58,1.33.83a15.12,15.12,0,0,0,1.41.67,21.54,21.54,0,0,0,6.08,1.47c4.15.44,8.37.14,12.5.91a35.49,35.49,0,0,1,11.54,4.73c1.8,1.06,3.56,2.19,5.33,3.3.88.56,1.81,1,2.73,1.55a25.13,25.13,0,0,0,2.89,1.2,28.66,28.66,0,0,0,3,.89c1,.19,2.05.43,3.1.53a38.4,38.4,0,0,0,6.25.24,74.13,74.13,0,0,0,12.41-1.72c8.16-1.82,16.3-3.75,24.45-5.62l6.11-1.42c2-.45,4.06-1,6.14-1.27s4.15-.53,6.2-.93a17.47,17.47,0,0,0,5.87-2.09,8.7,8.7,0,0,0,3.72-4.88,21.42,21.42,0,0,0,1-6.16c.17-4.16-.35-8.4.64-12.5a27.42,27.42,0,0,1,2.27-5.83,40,40,0,0,1,3.29-5.33,55.26,55.26,0,0,1,8.54-9.15c6.31-5.51,13.48-9.88,20.49-14.43,1.75-1.14,3.5-2.29,5.22-3.48s3.43-2.38,5.19-3.51a77.09,77.09,0,0,1,11-6,45.38,45.38,0,0,1,12-3.47,34.55,34.55,0,0,1,12.45.67c8.18,2,15.47,6.3,23,9.9,1.89.89,3.79,1.77,5.73,2.54a38,38,0,0,0,6,1.94,33.48,33.48,0,0,0,12.46.41,24.69,24.69,0,0,0,11.48-4.7,14.93,14.93,0,0,0,4-4.77,14.15,14.15,0,0,0,1.59-6c.15-4.22-1.4-8.26-3.21-12s-3.37-7.66-5.45-11.3a22.84,22.84,0,0,0-3.73-5,34,34,0,0,0-4.93-3.85c-1.74-1.17-3.49-2.31-5.12-3.63a19.65,19.65,0,0,1-4.21-4.61,20.62,20.62,0,0,1-2.59-5.69,16.46,16.46,0,0,1-.6-6.2,13.11,13.11,0,0,1,2-5.87,19.47,19.47,0,0,1,4.35-4.48c3.31-2.55,7.07-4.51,10.1-7.42a26,26,0,0,0,6.84-10.36,52.23,52.23,0,0,0,2.53-12.25c.23-2.08.39-4.16.67-6.24a56,56,0,0,1,1.27-6.13,73.61,73.61,0,0,1,10.69-22.57c.59-.86,1.31-1.62,2-2.44a14.4,14.4,0,0,1,1.11-1.1c.39-.35.74-.75,1.16-1.06a24.2,24.2,0,0,1,2.58-1.79c.45-.26.9-.53,1.35-.78l1.43-.66c.94-.47,2-.75,2.92-1.14s2-.63,3-.88c2-.54,4.06-1,6.09-1.48a39.25,39.25,0,0,0,11.67-4.45l1.28-.9a9.48,9.48,0,0,0,1.24-.95,14.9,14.9,0,0,0,2.14-2.28A16.56,16.56,0,0,0,549,227a35,35,0,0,0,.79-12.44c-.17-2.08-.46-4.16-.8-6.22s-.68-4.12-1.21-6.15a22.35,22.35,0,0,0-2.27-5.81,15.3,15.3,0,0,0-1.87-2.51,13.94,13.94,0,0,0-2.41-2c-3.58-2.24-7.85-2.82-12-3.47a48.63,48.63,0,0,1-12.08-3.25,67.73,67.73,0,0,1-11-6c-7-4.55-13.5-9.88-20.48-14.48a98.9,98.9,0,0,0-46.95-16,36.68,36.68,0,0,0-12.45.8c-4.07,1.09-7.49,3.64-11,5.89a61.19,61.19,0,0,1-5.49,3,59.3,59.3,0,0,1-5.84,2.28c-2,.72-4,1.19-6,1.75s-4.07.94-6.13,1.3c-8.21,1.58-16.56,2.47-24.64,4.67s-15.84,5.91-21.62,12c-2.94,3-5.58,6.22-8.44,9.27a40.78,40.78,0,0,1-9.61,8,31.88,31.88,0,0,1-5.73,2.55,38.74,38.74,0,0,1-6.09,1.52,60.9,60.9,0,0,1-12.51.68c-4.18-.15-8.34-.63-12.49-1.16s-8.28-1.19-12.39-1.94c-8.24-1.47-16.39-3.36-24.46-5.56-4-1.07-8.09-2.11-12.22-2.8a56.36,56.36,0,0,0-6.22-.7c-2.08-.11-4.18-.09-6.26,0-4.18.17-8.34.6-12.53.67a93.58,93.58,0,0,1-12.52-.71,193.78,193.78,0,0,1-24.56-5.05l-24.28-6.33-12.13-3.16c-2-.53-4-1.1-6.1-1.45l-6.17-1.11c-4.09-.81-8.25-1.72-11.91-3.81a10,10,0,0,1-4.27-4.48,8.11,8.11,0,0,1-.64-3.07,10.89,10.89,0,0,1,.47-3.1c.58-2,1.52-3.9,2-5.92a12.87,12.87,0,0,0,.07-6.2,18.42,18.42,0,0,0-6.17-10.62Z"/></svg>