<svg id="Layer_1" data-name="Layer 1" xmlns="http://www.w3.org/2000/svg" viewBox="0 0 600 600"><title>Cambodia</title><path d="M74.69,200.49c2.88-4.06,5.76-8.12,8.4-12.36s5.55-8.29,8.44-12.36c5.78-8.12,11.69-16.15,17.52-24.22l4.35-6.06c1.46-2,2.85-4.08,4.4-6.11a70.85,70.85,0,0,1,4.9-5.95,35.65,35.65,0,0,1,6.21-5.12,30.09,30.09,0,0,1,7.43-3.32,49.33,49.33,0,0,1,7.73-1.58c1.28-.17,2.55-.31,3.82-.42l3.79-.25c1.27-.08,2.53-.19,3.8-.23l3.79-.1c20.25-.43,40.14,2.49,59.82,3.48a177.31,177.31,0,0,0,29.27-.62l3.61-.41,3.57-.62c1.18-.21,2.37-.39,3.56-.63s2.37-.51,3.57-.78a135.63,135.63,0,0,1,15.11-3,36.22,36.22,0,0,1,16.68,1.56,14.8,14.8,0,0,1,4.48,2.79,28.49,28.49,0,0,1,3.07,3.23c1.75,2.12,3.16,4.14,4.56,5.65a11,11,0,0,0,1.94,1.73,3.16,3.16,0,0,0,1.43.54,2.83,2.83,0,0,0,.7,0,5.65,5.65,0,0,0,1-.22,19.14,19.14,0,0,0,2.67-1.08c1-.48,2.15-1.07,3.46-1.66.33-.15.67-.3,1-.44s.87-.31,1.3-.46a9.71,9.71,0,0,1,1.39-.34,8.65,8.65,0,0,1,1.4-.22,17.06,17.06,0,0,1,5.34.28,25.09,25.09,0,0,1,4.56,1.42,49.29,49.29,0,0,1,7.45,4c2.26,1.42,4.34,2.89,6.4,4.27s4,2.7,5.93,3.78a28.66,28.66,0,0,0,2.75,1.4,10.86,10.86,0,0,0,2.32.76l.68.13,1.15.25,1.07.26,1,.26,3.75,1,7.16,2c4.71,1.28,9.37,2.46,13.93,3.28,2.28.42,4.53.75,6.68.93a33.12,33.12,0,0,0,6,0c1.72-.14,3.06-.72,3.07-.94,0,0,0,0,0,0a.17.17,0,0,0-.14,0c0,.07-.24.09-.29.22s-.11.05-.13.09-.05.11-.07.11l-.07-.05s0,0,0-.08a.66.66,0,0,1,0-.23.74.74,0,0,0,0-.28,6.35,6.35,0,0,1-.12-.77c-.06.2,0,.49-.08.45s-1.25-1.11-3.08-2.34c-.9-.63-2-1.35-3.16-2.24a31.57,31.57,0,0,1-4-3.45,19.91,19.91,0,0,1-4.24-6.42,18.76,18.76,0,0,1-.72-2.23,21,21,0,0,1-.42-2.35,18.45,18.45,0,0,1,.1-4.54c.11-.68.23-1.4.39-2s.35-1.23.54-1.82.41-1.08.63-1.61.55-1.15.84-1.72a23.64,23.64,0,0,1,4.25-5.58,40.9,40.9,0,0,1,8.45-6.16c1.29-.74,2.51-1.39,3.62-2s2.16-1.15,2.94-1.62c1.59-1,3.55-2.28,5.63-3.68s4.32-2.87,6.76-4.33a60.6,60.6,0,0,1,8.23-4.2,32.8,32.8,0,0,1,11.66-2.56,27.93,27.93,0,0,1,7,.86c1.11.32,2.23.65,3.31,1.06S452,95.52,453,96a34.74,34.74,0,0,1,9.15,7.46c2.25,2.53,3.93,4.87,5.41,6.88a61.55,61.55,0,0,0,3.8,4.85c.24.24.52.58.73.76s.42.42.63.57c.42.31.72.66,1,.82.52.37.58.5.93.6a4.24,4.24,0,0,0,2.36-.32,20.31,20.31,0,0,0,4.34-2.22,54.94,54.94,0,0,0,5.07-3.72c1.75-1.43,3.53-3,5.45-4.66l3-2.59,1.64-1.35.88-.7c.1-.09.34-.27.65-.49l.84-.6a22.76,22.76,0,0,1,6.47-3,42.51,42.51,0,0,1,4.75-1c1.25-.22,2.2-.39,2.83-.53a2.15,2.15,0,0,0,.4-.12c.13,0,.19-.07.27-.09a.52.52,0,0,0,.15-.07s.08,0,0,0a1.55,1.55,0,0,0-.22.12c-.4.28.08,0,.55-.6s1.19-1.42,1.92-2.41,1.59-2.09,2.68-3.39c.57-.66,1.15-1.34,1.94-2.1.35-.37.83-.79,1.28-1.18.23-.2.53-.42.8-.63s.54-.41.89-.64a16.05,16.05,0,0,1,5.4-2.36,14.72,14.72,0,0,1,3.89-.39,17.75,17.75,0,0,1,2.06.21,18.52,18.52,0,0,1,1.92.47,16.85,16.85,0,0,1,5.55,3,18.3,18.3,0,0,1,1.71,1.58c.56.55.88,1,1.31,1.46s.68.86,1,1.29l.91,1.26c.59.86,1.11,1.82,1.64,2.74s.93,2,1.35,3,.73,2.09,1,3.15a33.58,33.58,0,0,1,.63,12.27,48.79,48.79,0,0,1-2.39,10,159.61,159.61,0,0,1-6.6,15.26c-1,2.23-2,4.31-2.74,6.25a26.91,26.91,0,0,0-1.47,5,5.09,5.09,0,0,0-.06,1.46c0,.07,0,.1.07.15a.85.85,0,0,1,0,.21c.06.26.09.52.13.77a15.48,15.48,0,0,0,1,3.21,53.2,53.2,0,0,0,5,8.56c2.26,3.39,5.07,7.26,8,11.76a89.07,89.07,0,0,1,8.49,16.14,58,58,0,0,1,3,10.49c.16,1,.34,1.89.45,2.87s.23,2,.3,2.94a56.42,56.42,0,0,1,.08,5.8,58.6,58.6,0,0,1-1.39,10.52c-.69,3.25-1.55,6.08-2.39,8.82-1.75,5.29-3.51,9.77-4.64,13.51-.32,1-.52,1.81-.78,2.7l-.29,1.23c-.1.41-.19.81-.24,1.17l-.21,1.13c0,.37-.08.75-.14,1.12s-.08.78-.12,1.17-.08.8-.08,1.23a52.8,52.8,0,0,0,1,11.52c.8,4.25,1.86,8.88,3,13.79s2.43,10.16,3.32,15.89a89,89,0,0,1,1,9,63,63,0,0,1-.31,9.74,48.43,48.43,0,0,1-2.32,10.09,47.76,47.76,0,0,1-2,4.85c-.39.78-.82,1.53-1.24,2.29s-.89,1.54-1.42,2.35a30.26,30.26,0,0,1-4,4.91,23.06,23.06,0,0,1-6.29,4.41l-1,.43-.87.31c-.58.2-1.17.38-1.76.56a25,25,0,0,1-3.74.71,27,27,0,0,1-3.81,0,22.64,22.64,0,0,1-3.54-.53,33.28,33.28,0,0,1-9.82-4.26c-2.31-1.41-4.06-2.52-5.25-3.11l-.75-.36c-.15,0-.37-.17-.47-.18s-.24-.12-.34-.12a.9.9,0,0,0-.37-.07,5.12,5.12,0,0,0-2.67,1,20.31,20.31,0,0,0-3.85,3.43c-.65.73-1.31,1.52-1.95,2.36l-1.16,1.53c-.43.59-.93,1.19-1.41,1.79a37.14,37.14,0,0,1-7.32,6.84,31.45,31.45,0,0,1-4.57,2.59,40.55,40.55,0,0,1-4.63,1.72c-1.52.48-3,.82-4.41,1.14l-2.13.4c-.79.12-1.62.27-2.37.33a72,72,0,0,1-8.53.45l-7.61,0c-2.43,0-4.75.09-6.92.26a34.3,34.3,0,0,0-5.82.9,9.67,9.67,0,0,0-3.47,1.53A3.52,3.52,0,0,0,444.1,367a10.78,10.78,0,0,0-.37,1.48c-.05.31-.13.62-.15.94l-.13,1.46c-.11,1.15-.23,2.51-.42,4-.08.74-.47,1.49-.55,2.3s-.08,1.7-.19,2.68a20.15,20.15,0,0,1-1.69,7,16.25,16.25,0,0,1-1.2,2.12,18.33,18.33,0,0,1-1.77,2.13c-.35.36-.73.68-1.12,1a11.23,11.23,0,0,1-1.15.87,21.18,21.18,0,0,1-2.26,1.29,23.61,23.61,0,0,1-2.3.87c-.74.2-1.45.35-2.18.49a22.85,22.85,0,0,1-3.88.31,27.56,27.56,0,0,1-6-.73,56,56,0,0,1-8.06-2.64c-1-.38-1.42-.63-2-.82a11.29,11.29,0,0,0-1.84-.44,22,22,0,0,0-5.72.17l-3.89.49-3.47.38a17.06,17.06,0,0,0-5,1.39,6.31,6.31,0,0,0-2.72,2.16,3.73,3.73,0,0,0-.49,1.15,7.13,7.13,0,0,0-.1,1.44,6.92,6.92,0,0,0,.32,1.75,8.22,8.22,0,0,0,.77,1.87,10.59,10.59,0,0,0,1.9,2.52c.31.3.57.59.91.89a59.06,59.06,0,0,0,10.4,6.88c2.09,1.17,4.33,2.44,6.71,3.93l3.23,1.95c1.13.68,2.3,1.48,3.55,2.37.63.46,1.25.9,1.93,1.45s1.82,1.68,2.59,2.49l1.07,1.22c.36.42.72.84,1,1.22.58.76,1.23,1.61,1.71,2.35,1,1.56,1.93,3.06,2.74,4.57s1.46,3,2.11,4.51,1.16,3,1.66,4.56a48.52,48.52,0,0,1,1.28,4.7,49.17,49.17,0,0,1,1.27,10.64c0,1-.07,2.32-.13,3.24l-.17,2c-.09.86-.19,1.86-.42,3.18-.1.6-.28,1.38-.46,2.11-.09.37-.23.84-.36,1.24s-.27.84-.46,1.33a21.67,21.67,0,0,1-3.46,6c-.42.52-.86,1-1.32,1.49s-1,.92-1.49,1.36a18.8,18.8,0,0,1-1.56,1.18c-.53.35-1.1.72-1.62,1a21,21,0,0,1-3.1,1.42c-.49.18-1,.34-1.48.49a20.38,20.38,0,0,1-2.07.49,20.88,20.88,0,0,1-7.29,0,23.71,23.71,0,0,1-4.89-1.41c-.72-.27-1.25-.54-1.87-.83s-1.1-.56-1.59-.83a41.06,41.06,0,0,1-4.9-3.3,76.27,76.27,0,0,1-6.81-6.18c-1.89-1.94-3.68-3.93-4.69-5-1.83-1.77-3.45-3.39-5-4.8a33,33,0,0,0-7.64-5.85,7.66,7.66,0,0,0-2.94-1,13.08,13.08,0,0,0-4.32.4c-3.43.8-7.52,2.68-12,4.95l-3.48,1.74-1.83.88-.93.45-.78.35a41.23,41.23,0,0,1-9.32,3.48,20.67,20.67,0,0,1-3.33.38,13,13,0,0,1-2.32-.14l-.91-.14-.74-.18a32.76,32.76,0,0,1-4.52-1.53c-2.53-1-4.71-2.06-6.79-2.9-.52-.21-1-.42-1.51-.58l-1.44-.35a13.32,13.32,0,0,0-2.08-.29h-.16s.09,0,.12,0l.15-.06a1.34,1.34,0,0,0,.3-.12,3.78,3.78,0,0,0,.69-.45,3,3,0,0,0,.64-.69,1.6,1.6,0,0,0,.21-.32c.06-.12.1-.26.15-.29a.82.82,0,0,0,.09-.19c0-.08,0-.15,0-.13s0-.08,0,0a.62.62,0,0,1,0,.23c0,.09.05.27.07.4s.2.7.28,1.05.3.85.43,1.27.32.77.5,1.17c.39.8.81,1.61,1.39,2.62l.46.79c.17.28.32.53.5.88l.54,1,.57,1.18c.19.37.39.93.57,1.39.09.26.18.47.27.76l.24.88.22.89c.06.31.1.67.15,1a13,13,0,0,1,.13,2.09,17.32,17.32,0,0,1-.15,2.17c-.12.69-.27,1.39-.44,2.08s-.41,1.22-.64,1.84c-.12.29-.24.6-.37.88l-.38.75c-.26.5-.54,1-.82,1.49l-.82,1.23c-.28.39-.58.84-.85,1.17l-.82,1c-.28.33-.57.7-.84,1l-.77.86c-.52.57-1,1.13-1.61,1.67a49.88,49.88,0,0,1-15.39,10.4,66.71,66.71,0,0,1-8.23,2.93c-1.34.38-2.67.74-4,1l-1.95.45-.43.11-.2.06-.42.11-1.05.33-1.26.48-1.41.56-1.53.64c-2.11.91-4.49,1.91-7.22,2.81a41.25,41.25,0,0,1-9.53,2,25,25,0,0,1-2.9.07l-1.52-.07c-.51,0-1.07-.13-1.6-.21a20,20,0,0,1-3-.67,21.8,21.8,0,0,1-2.86-1.07,24.81,24.81,0,0,1-8.71-6.68,71.07,71.07,0,0,1-5-7c-2.71-4.32-5.41-7.53-8.26-8.8a9.19,9.19,0,0,0-2.34-.67l-.64-.05s-.42,0-.64,0-.53,0-.74-.06c-.44-.06-.87-.12-1.24-.2s-.75-.16-1.1-.25c-2.78-.7-5.1-1.57-7.46-2.34s-4.63-1.46-6.86-2a18.14,18.14,0,0,0-6.07-.62,5.3,5.3,0,0,0-1,.22,1.81,1.81,0,0,0-.46.26.16.16,0,0,1-.08.06.53.53,0,0,0-.06.1c-.06,0-.09.15-.14.24a2.82,2.82,0,0,0-.21.8,4.15,4.15,0,0,0,.35,2,15.91,15.91,0,0,0,1.49,2.69,9.49,9.49,0,0,0,.85,1c.4.44.9,1,1.41,1.63a7.81,7.81,0,0,1,1.45,2.75,6.21,6.21,0,0,1-.14,3.8,6.47,6.47,0,0,1-2.2,3,6.78,6.78,0,0,1-3.23,1.25,8.51,8.51,0,0,1-3-.18,13.85,13.85,0,0,1-2.28-.78c-1.37-.61-2.49-1.28-3.49-1.79a15.1,15.1,0,0,0-1.39-.65l-1.77-.68c-2.38-.93-4.75-2-7.07-3.12l-3.48-1.8c-1.16-.6-2.35-1.18-3.51-1.84a25.27,25.27,0,0,1-3.36-2.21,31.33,31.33,0,0,1-3-2.78,26.75,26.75,0,0,1-4.83-6.79,15.83,15.83,0,0,1-1.42-4.21,9.24,9.24,0,0,1-.18-2.54,7.06,7.06,0,0,1,.76-2.75,5.77,5.77,0,0,1,2.08-2.25,6.58,6.58,0,0,1,2.6-.9,9.47,9.47,0,0,1,2.38,0,19.52,19.52,0,0,1,2,.36c.61.13,1.18.25,1.7.33a3.79,3.79,0,0,0,.72.05,3.07,3.07,0,0,0,.67-.05,7.73,7.73,0,0,0,2.87-1.14,16.23,16.23,0,0,0,4.73-4.89,18.32,18.32,0,0,0,2.31-6.5,32.09,32.09,0,0,0-1.2-14,21.7,21.7,0,0,0-2.66-6,7,7,0,0,0-3.83-3.09,5.71,5.71,0,0,0-3.84.43,10.27,10.27,0,0,0-3.51,2.8,8.4,8.4,0,0,0-1.15,1.8,7.65,7.65,0,0,0-.34.89,7.84,7.84,0,0,0-.29,1,17.29,17.29,0,0,0-.33,4.91c0,.44.07.89.13,1.35,0,.23.06.45.1.68.06.42,0,0,0,0s.07.22.25.63l.75,1.65a21.51,21.51,0,0,1,1,2.63,13.08,13.08,0,0,1,.52,4.37,10.55,10.55,0,0,1-.51,2.68c-.12.39-.26.77-.41,1.15a12.75,12.75,0,0,1-.68,1.32,8.46,8.46,0,0,1-.93,1.31,11.07,11.07,0,0,1-1.22,1.25,13.6,13.6,0,0,1-1.48,1,10.27,10.27,0,0,1-1.55.72,11.49,11.49,0,0,1-5.07.63c-.35,0-.65-.07-.92-.12l-.85-.14c-.48-.12-1-.24-1.44-.37-1.75-.5-3.14-1.11-4-1.4-2.76-1-4.89-2-6.5-2.41a8.43,8.43,0,0,0-1.94-.35,2.16,2.16,0,0,0-.36,0h-.18s-.1,0-.15,0-.24.06-.41.12l-.63.23-.81.32-1,.39c-.43.14-.79.29-1.29.43a15.17,15.17,0,0,1-3.54.67,12.1,12.1,0,0,1-4.62-.64,12.24,12.24,0,0,1-2.1-1,16.27,16.27,0,0,1-1.69-1.17,12.3,12.3,0,0,1-2.84-3.33c-.2-.33-.26-.48-.37-.68l-.28-.58-.54-1.18a18,18,0,0,1-.88-2.38A32.62,32.62,0,0,1,112.3,445a69.36,69.36,0,0,1,.43-8.35c.3-2.61.64-5.1.93-7.49a66.48,66.48,0,0,0,.53-6.7c0-.51,0-1,0-1.53l-.1-1.44a26.37,26.37,0,0,0-.45-3A61.24,61.24,0,0,0,109,403.78c-4.16-9-8.54-18.06-12.25-27.56-1.9-4.72-3.58-9.6-5.06-14.53a114.53,114.53,0,0,1-3.37-15.21,82.63,82.63,0,0,1-.62-15.73c0-1.31.28-2.62.41-3.93l.23-2c.09-.65.26-1.3.38-1.94l.81-3.87c.32-1.25.65-2.43.9-3.53a10,10,0,0,0,.13-5.62,12.52,12.52,0,0,0-3.73-4.73,53.69,53.69,0,0,1-5.55-5.46,44.89,44.89,0,0,1-4.62-6.35A57.4,57.4,0,0,1,73,286.5c-1.06-2.34-1.94-4.73-2.77-7.12-1.65-4.79-2.94-9.64-4.18-14.47-2.5-9.56-6-18.89-9.19-28.35-1.6-4.72-3.07-9.5-4.37-14.32-.33-1.2-.63-2.41-.91-3.63s-.55-2.43-.79-3.65-.47-2.45-.68-3.68a9.9,9.9,0,0,1-.16-3.76,6.41,6.41,0,0,1,1.64-3.37A5.24,5.24,0,0,1,55,202.6a9.56,9.56,0,0,1,3.72.51,35.89,35.89,0,0,1,3.46,1.42,16.87,16.87,0,0,0,3.5,1.21,6.49,6.49,0,0,0,3.65-.26,9,9,0,0,0,3.06-2.07,18.7,18.7,0,0,0,2.38-2.87Zm.08,0a27.26,27.26,0,0,1-2.26,3,9.34,9.34,0,0,1-3.07,2.22,6.91,6.91,0,0,1-3.84.42A17.77,17.77,0,0,1,62,205.05a33.57,33.57,0,0,0-3.45-1.26,8.74,8.74,0,0,0-3.42-.32,4.29,4.29,0,0,0-2.73,1.38,5.37,5.37,0,0,0-1.23,2.87,6.27,6.27,0,0,0,0,1.62,16.67,16.67,0,0,0,.31,1.72c.25,1.21.5,2.41.79,3.6s.54,2.4.87,3.59.63,2.38,1,3.56c1.41,4.73,2.94,9.43,4.64,14.1,3.34,9.35,7.07,18.63,9.82,28.29,1.37,4.78,2.77,9.53,4.49,14.15a67,67,0,0,0,6.41,13.19,42.09,42.09,0,0,0,4.42,5.78,49.12,49.12,0,0,0,5.36,5,16.46,16.46,0,0,1,5,6.1,10.71,10.71,0,0,1,.74,4,19.79,19.79,0,0,1-.45,3.88c-.24,1.26-.55,2.47-.83,3.67L93,323.59c-.1.6-.24,1.2-.3,1.81l-.17,1.84c-.09,1.22-.29,2.44-.29,3.67a77.29,77.29,0,0,0,1,14.72A110,110,0,0,0,96.73,360c1.54,4.71,3.26,9.37,5.23,13.93,3.85,9.16,8.37,18,12.71,27a68.07,68.07,0,0,1,5.43,13.94c1.24,4.89.94,10,.42,14.92s-1.26,9.89-1.11,14.86a25.9,25.9,0,0,0,1.21,7.31,22.23,22.23,0,0,0,1.47,3.4,5.25,5.25,0,0,0,2.77,2.29,4.76,4.76,0,0,0,1.8.25,8.09,8.09,0,0,0,1.81-.37c1.18-.36,2.31-.9,3.49-1.31a12,12,0,0,1,7.38,0c2.41.66,4.68,1.71,7,2.54,1.17.42,2.32.9,3.51,1.24a6.11,6.11,0,0,0,3.66.17,3.26,3.26,0,0,0,1.93-2.93,8.05,8.05,0,0,0-.91-3.58,25.29,25.29,0,0,1-1.4-3.46,21.24,21.24,0,0,1-.38-3.72,21.76,21.76,0,0,1,1-7.42,15.38,15.38,0,0,1,4-6.39,16.06,16.06,0,0,1,6.68-3.84,12.93,12.93,0,0,1,4-.39,10.59,10.59,0,0,1,4,1.08,13.39,13.39,0,0,1,5.74,5.82,29,29,0,0,1,2.68,7.48,41,41,0,0,1,.83,15.78,24.65,24.65,0,0,1-2.75,8,21.74,21.74,0,0,1-5.81,6.64,12.69,12.69,0,0,1-4.61,2.29,11,11,0,0,1-2.89.29c-.83,0-1.56-.1-2.18-.15a13.09,13.09,0,0,0-1.52-.08,2.77,2.77,0,0,0-.81.14c-.18.06-.2.14-.08.1a1.16,1.16,0,0,0,.38-.29c.06-.08.07,0,.1.07s.06.16.2.61a13,13,0,0,0,1.09,2.28,24.64,24.64,0,0,0,3.87,4.63c.76.74,1.61,1.4,2.42,2.1a30.91,30.91,0,0,1,2.41,2.33,27.66,27.66,0,0,0,2.54,2.41,19.94,19.94,0,0,0,3,1.91c2.06,1.15,4.22,2.2,6.43,3.18l1.7.73a19.88,19.88,0,0,1,2,1c1.18.66,2.18,1.31,3.1,1.77a7.91,7.91,0,0,0,1.32.55,2.93,2.93,0,0,0,1,.18c.6,0,.81-.12,1.06-.52a.89.89,0,0,0,.13-.55,2.49,2.49,0,0,0-.45-1c-.55-.84-1.48-1.69-2.35-3.05a21.46,21.46,0,0,1-1.81-3.62,9,9,0,0,1-.56-4.33,6.29,6.29,0,0,1,5.86-5.74,23.29,23.29,0,0,1,7.69.75c2.45.57,4.84,1.32,7.21,2.08s4.75,1.5,7.17,2.06a16.09,16.09,0,0,0,1.82.31c.61.06,1.24.06,1.86.09a14.43,14.43,0,0,1,3.68.7,17.44,17.44,0,0,1,6.26,4,70.91,70.91,0,0,1,5.06,5.48,51.62,51.62,0,0,0,5.17,5.39,17.35,17.35,0,0,0,6.43,3.67,15.16,15.16,0,0,0,7.39.26,36.89,36.89,0,0,0,7.09-2.29c4.6-1.9,9-4.33,13.8-5.68,1.21-.31,2.43-.55,3.65-.8s2.43-.54,3.64-.83a68.36,68.36,0,0,0,7.15-2.15,42,42,0,0,0,12.9-7.38,23.94,23.94,0,0,0,5-5.47,7.28,7.28,0,0,0,1.13-3.52,9.3,9.3,0,0,0-.71-3.64c-.92-2.31-2.15-4.49-3-6.84a19.91,19.91,0,0,1-1.28-7.31A4.72,4.72,0,0,1,305,456a5.62,5.62,0,0,1,3.51-1,26,26,0,0,1,7.3,1.42c2.38.74,4.72,1.61,7.08,2.38a32,32,0,0,0,3.6,1,7.68,7.68,0,0,0,1.85.17,11.37,11.37,0,0,0,1.84-.29c9.36-3.47,16.94-10.48,26.25-14.11a27.77,27.77,0,0,1,7.22-1.84,20.29,20.29,0,0,1,7.4.58c4.84,1.3,9.12,4.06,13,7.1,2,1.52,3.87,3.13,5.78,4.73s3.66,3.38,5.5,5.05a65.42,65.42,0,0,0,5.71,4.81,17.09,17.09,0,0,0,6.63,3.3,5.29,5.29,0,0,0,5.91-3.47,14.17,14.17,0,0,0,.68-3.66c.1-1.24.2-2.48.2-3.73a38.31,38.31,0,0,0-.92-7.39,52,52,0,0,0-2.07-7.17,42.41,42.41,0,0,0-3.15-6.76,25,25,0,0,0-2.12-3.07c-.4-.48-.83-.93-1.26-1.38s-.91-.85-1.38-1.26c-3.76-3.26-7.64-6.38-11.55-9.46a62.93,62.93,0,0,1-10.79-10.28,20.62,20.62,0,0,1-4.69-13.84,15.14,15.14,0,0,1,.72-3.65,14.2,14.2,0,0,1,1.7-3.31,16.33,16.33,0,0,1,5.64-4.8,29.18,29.18,0,0,1,7-2.56c1.21-.29,2.45-.49,3.66-.75s2.43-.53,3.65-.8a42.63,42.63,0,0,1,7.36-1.2,22.22,22.22,0,0,1,7.38.93c2.39.68,4.76,1.45,7.21,1.91s5,.66,7.35-.33a6,6,0,0,0,2.75-2.43,12.41,12.41,0,0,0,1.36-3.46,49.82,49.82,0,0,0,1-7.4,20.92,20.92,0,0,1,1.69-7.23,13.17,13.17,0,0,1,4.83-5.57,20.22,20.22,0,0,1,6.93-2.65,45.21,45.21,0,0,1,7.42-.76c5-.15,10,.19,14.94.26a60,60,0,0,0,7.46-.27,40.44,40.44,0,0,0,7.29-1.55,23.39,23.39,0,0,0,6.69-3.23,25.51,25.51,0,0,0,5.28-5.25c1.52-2,2.81-4.11,4.41-6a31.66,31.66,0,0,1,5.28-5.26,15.73,15.73,0,0,1,6.7-3.11,13.51,13.51,0,0,1,7.33.81,59.38,59.38,0,0,1,6.69,3.31,25.94,25.94,0,0,0,6.9,2.78,12.81,12.81,0,0,0,1.85.23,16.43,16.43,0,0,0,1.86-.08,13.72,13.72,0,0,0,1.82-.41,15.3,15.3,0,0,0,1.74-.68,13.52,13.52,0,0,0,5.19-5.23,31.85,31.85,0,0,0,4.28-14.16,47.65,47.65,0,0,0-.17-7.46,73.33,73.33,0,0,0-1.22-7.36c-2.15-9.74-5.77-19.06-8.21-28.72a74.12,74.12,0,0,1-2.4-14.72,49.53,49.53,0,0,1,1.63-14.79c1.19-4.84,2.8-9.56,4.17-14.34a57.65,57.65,0,0,0,2.6-14.66,35.87,35.87,0,0,0-2.8-14.56,87,87,0,0,0-6.94-13.2c-2.61-4.24-5.36-8.4-7.79-12.75a52.75,52.75,0,0,1-5.71-13.75,26.4,26.4,0,0,1,.48-14.74,83,83,0,0,1,6.5-13.42,130.86,130.86,0,0,0,6.85-13.26,35.56,35.56,0,0,0,2.2-7.12,19.5,19.5,0,0,0,.06-7.42,16.43,16.43,0,0,0-3.08-6.72,6.48,6.48,0,0,0-2.85-2.31,4.06,4.06,0,0,0-3.53.64c-4.1,2.9-6.23,7.8-10.38,10.66-4.35,2.59-9.87,1.83-14.08,4.67-2,1.5-3.79,3.23-5.63,4.9s-3.65,3.4-5.52,5c-3.73,3.27-7.68,6.42-12.26,8.43a18,18,0,0,1-7.25,1.63,14.43,14.43,0,0,1-7.14-1.91c-8.91-5-11.81-16.16-20.67-21.22a15.1,15.1,0,0,0-7.14-1.83,21.05,21.05,0,0,0-7.25,1.54,84.3,84.3,0,0,0-13.19,7c-2.13,1.29-4.25,2.61-6.45,3.77s-4.49,2.15-6.69,3.32a28.35,28.35,0,0,0-6.17,4.14,11.32,11.32,0,0,0-3.6,6.37,6.92,6.92,0,0,0,.33,3.66,10.25,10.25,0,0,0,2,3.11,47.6,47.6,0,0,0,5.69,4.81,21,21,0,0,1,5.2,5.32,8.47,8.47,0,0,1,1.19,3.52l.08,1.87c0,.62-.11,1.24-.16,1.86a14.65,14.65,0,0,1-.45,1.82,11.75,11.75,0,0,1-.84,1.66,7.55,7.55,0,0,1-1.23,1.41c-.23.2-.46.42-.7.61l-.81.49a15.72,15.72,0,0,1-7.19,1.76,43.17,43.17,0,0,1-7.45-.47c-2.47-.34-4.91-.83-7.34-1.4-4.85-1.14-9.62-2.59-14.35-4.12l-7.09-2.36c-2.37-.78-4.73-1.57-7.16-2.11a25.19,25.19,0,0,1-6.73-3.19c-2.11-1.32-4.12-2.79-6.14-4.26-4-2.91-8-6-12.53-8.05a15,15,0,0,0-7.23-1.48,11.19,11.19,0,0,0-3.58,1c-1.15.48-2.27,1-3.41,1.53-2.25,1-4.71,1.91-7.21,1.53a8.25,8.25,0,0,1-3.42-1.45,15.72,15.72,0,0,1-2.72-2.56c-1.63-1.89-3-4-4.55-5.92a14.36,14.36,0,0,0-5.61-4.77c-4.66-1.82-9.78-2-14.71-1.56a124.13,124.13,0,0,0-14.68,2.67c-1.22.27-2.43.53-3.66.76s-2.45.41-3.68.61l-3.69.59-3.72.38a187,187,0,0,1-29.84.32c-19.88-1.17-39.65-4.17-59.59-4l-3.74,0c-1.24,0-2.48.13-3.72.19l-3.73.22c-1.24.1-2.48.22-3.71.37-4.92.59-9.89,1.74-14.13,4.39s-7.56,6.46-10.66,10.32c-1.58,1.93-3,3.95-4.55,5.93l-4.54,5.93c-6.07,7.89-12.22,15.72-18.24,23.65-3,4-6,8-8.93,12-1.46,2-2.92,4-4.34,6.08s-2.78,4.13-4.17,6.2Z"/></svg>