<svg id="Layer_1" data-name="Layer 1" xmlns="http://www.w3.org/2000/svg" viewBox="0 0 600 600"><title>CentralAfricanRepublic</title><path d="M52.13,337.36c-.89-3.63-1.68-7.27-2.33-11a28.3,28.3,0,0,1-.34-5.68,49.15,49.15,0,0,1,.75-5.67c1.53-7.49,4.86-14.5,8.76-21,2-3.26,4.09-6.4,6.29-9.48.54-.77,1.14-1.53,1.7-2.3s1.15-1.53,1.77-2.27l1.79-2.25,1.89-2.19a91.12,91.12,0,0,1,17.45-15.38,83.73,83.73,0,0,1,10.28-5.86A81.25,81.25,0,0,1,111.33,250c7.78-2.36,15.76-3.2,23.35-3.8l22.37-1.63c7.4-.54,14.66-1.28,21.71-2.24,3.52-.5,7-1.1,10.39-1.84l5.25-1.17c1.72-.39,3.33-.8,4.83-1.26a22,22,0,0,0,7-3.18,8.44,8.44,0,0,0,.84-.77,3.2,3.2,0,0,0,.42-.61,2.84,2.84,0,0,0,.31-1.14c0-.12,0-.29,0-.42v-.52l-.13-1.91c-.14-1.74-.32-3.78-.37-6.11a34.87,34.87,0,0,1,.63-7.95c.13-.73.36-1.51.55-2.26s.48-1.53.81-2.31a22.11,22.11,0,0,1,2.44-4.61,23.6,23.6,0,0,1,7.93-7.32,31.1,31.1,0,0,1,8.4-3.14,49,49,0,0,1,7.16-1c2.2-.18,4.25-.25,6.12-.32a59.12,59.12,0,0,0,9.42-.86A58.53,58.53,0,0,0,259.6,191a106.14,106.14,0,0,0,17.85-9q4.49-2.74,9.06-5.78c3.1-2,6.1-4,8.83-6,5.48-3.95,10.05-8.16,12.44-12.16A15.13,15.13,0,0,0,310,152.4c.07-.46.13-1.1.19-1.79l.17-2.54c.06-1,.12-2,.24-3.23a39.85,39.85,0,0,1,.54-4,28.29,28.29,0,0,1,3.55-9.55,30.73,30.73,0,0,1,6.38-7.44,40.53,40.53,0,0,1,6.58-4.6c1.09-.61,2.18-1.25,3.3-1.81l3.42-1.53a56.86,56.86,0,0,1,14.28-3.72c1.21-.22,2.42-.22,3.63-.32s2.42-.15,3.62-.11,2.41,0,3.61.09l3.58.34c1.2.09,2.36.34,3.54.53a34.46,34.46,0,0,1,3.5.72l3.45.91,3.38,1.15a63,63,0,0,1,12.84,6.33,34.9,34.9,0,0,1,3,2c1,.74,2,1.4,2.88,2.21l2.75,2.4c.9.82,1.71,1.68,2.56,2.53a68.46,68.46,0,0,1,8.57,11.24,75.17,75.17,0,0,1,9.64,25.62,68.11,68.11,0,0,1,.92,6.89c.19,2.33.26,4.68.24,7A87.55,87.55,0,0,1,419.08,195c-.17,1-.35,2.06-.54,3.07l-.11.72-.08.68a14.05,14.05,0,0,0,.07,2.82,7.27,7.27,0,0,0,.79,2.74,10.86,10.86,0,0,0,1.71,2.15c.32.29.59.61.87.85s.48.54.69.74a5.88,5.88,0,0,0,1.39,1.15c.25.19.65.38,1,.59s.86.41,1.45.64c1.09.47,2.5,1,4.23,1.56s3.66,1.22,5.83,2.08c1,.4,2.2.93,3.31,1.41l1.72.84,1.43.72c3.26,1.62,6.48,3.34,9.71,5l4.85,2.56c1.66.88,3.46,1.83,5.36,2.9a54.82,54.82,0,0,1,12,8.69,39,39,0,0,1,5.3,6.49,47.64,47.64,0,0,1,3.5,6.58c1.85,4.21,3,7.88,4.14,11,.57,1.53,1.11,2.9,1.69,4.11a22.73,22.73,0,0,0,2,3.41,44.81,44.81,0,0,0,6.12,6.93c2.46,2.37,5.34,4.67,8.29,7.25s5.95,5.19,8.77,7.93c5.68,5.47,11.09,11.15,16.4,16.95q4,4.35,7.77,8.9c2.27,2.74,4.66,5.39,7.18,8.38a91.94,91.94,0,0,1,7.39,9.83c.55.94,1.11,1.89,1.63,2.88.27.5.28,1.13.59,1.6s.69.94,1.06,1.4c.75.91,1.55,1.89,2.31,2.88a14.1,14.1,0,0,1,1.94,3.52,28.21,28.21,0,0,1,1.5,9.3A24.88,24.88,0,0,1,559.85,367a22.33,22.33,0,0,1-8.9,9.55,27.65,27.65,0,0,1-10.63,3.4,37,37,0,0,1-4.59.25c-.74,0-1.43,0-2.14-.07l-1.43-.05-5.75-.24c-3.87-.18-7.81-.42-11.83-.78s-8.12-.86-12.27-1.54c-1-.19-2.08-.36-3.12-.56l-1.57-.31-1.69-.36c-2.22-.52-4.25-1-6.06-1.52A47.56,47.56,0,0,0,481.3,373a14.86,14.86,0,0,0-2.45,0c-.54.09-.38.27.36.11.19,0,.36-.12.53-.15a.92.92,0,0,0,.23-.09,1.25,1.25,0,0,0,.18-.06c.25-.12.21-.05.07.09l-3,2.9-1.13,1.09-.6.57c-.21.2-.35.34-.78.71a34.53,34.53,0,0,1-4.69,3.48,37.35,37.35,0,0,1-10.39,4.43,44.59,44.59,0,0,1-9.47,1.31,61.56,61.56,0,0,1-7.76-.24c-2.33-.21-4.44-.48-6.38-.75a20,20,0,0,1-5.29-1.14,14.23,14.23,0,0,1-4.27-2.86l-1.93-1.85-1-.92c-.33-.31-.65-.6-1-.86l-.49-.41-.48-.34-.5-.35-.5-.26a7.46,7.46,0,0,0-1-.48,8.69,8.69,0,0,0-1.12-.27,8,8,0,0,0-2.29-.05c-.79.13-1.57.21-2.4.4a67.62,67.62,0,0,0-10.46,3.47,68.06,68.06,0,0,1-12.26,4c-1.12.27-2.34.35-3.51.51l-2.86.26c-1.87.17-3.67.32-5.27.55a21.7,21.7,0,0,0-4.18.93,10.91,10.91,0,0,0-3.09,1.73,22.1,22.1,0,0,0-2.87,2.81l-.72.85-1.17,1.25-2.4,2.5-2.64,2.25c-.45.37-.89.76-1.35,1.12l-1.42,1c-.95.65-1.91,1.34-2.89,2s-2,1.12-3.05,1.68a29.86,29.86,0,0,1-3.14,1.48c-1.07.44-2.13,1-3.22,1.31a61.94,61.94,0,0,1-6.62,1.84,52.84,52.84,0,0,1-13.46,1.14,58.37,58.37,0,0,1-6.63-.66c-.55-.08-1.1-.17-1.64-.28s-1.09-.21-1.62-.35c-1.07-.29-2.13-.61-3.17-1a26.5,26.5,0,0,1-3.06-1.3,27.33,27.33,0,0,1-2.93-1.55c-1-.6-1.88-1.19-2.79-1.83s-1.78-1.35-2.65-2c-1.75-1.3-3.35-2.87-5-4.23-.8-.68-1.51-1.39-2.29-2s-1.51-1.28-2.28-1.9c-3-2.47-6.31-4.35-9.4-6.46s-6.2-4.06-9.3-5.89a78,78,0,0,0-9.42-4.87c-1.61-.68-3.17-1.3-4.76-1.81a46.07,46.07,0,0,0-4.84-1.29,37.75,37.75,0,0,0-9.77-.78,27.9,27.9,0,0,0-9,1.87,20.92,20.92,0,0,0-7,4.73c-3.82,4-6.12,10-6.94,16.13a81,81,0,0,0-.38,10.12c0,1.9,0,3.93-.18,6.11a34,34,0,0,1-1.14,7.09,24.75,24.75,0,0,1-3.62,7.77,23.9,23.9,0,0,1-6.47,6.16,30.62,30.62,0,0,1-7.17,3.37c-1.19.41-2.29.65-3.45,1s-2.29.5-3.41.63a64.5,64.5,0,0,1-13,.53c-4.13-.19-8-.63-11.68-1.09-1.85-.22-3.62-.42-5.35-.59l-2.75-.24c-1-.09-2-.22-2.95-.33a78.51,78.51,0,0,0-9.83-.85,19.84,19.84,0,0,0-3.72.32A10.59,10.59,0,0,0,145,435a4.79,4.79,0,0,0-1.66,1.29,8.94,8.94,0,0,0-1.43,2.6,22.32,22.32,0,0,0-1,4.05c-.26,1.55-.42,3.12-.61,5.12a67.79,67.79,0,0,1-2.07,12.43A35.49,35.49,0,0,1,135.7,467l-.83,1.54L134,470l-1,1.42c-.33.47-.74,1-1.14,1.48a21.68,21.68,0,0,1-6,5.15,17.49,17.49,0,0,1-4,1.67,17,17,0,0,1-4.39.62,15.68,15.68,0,0,1-2.44-.18,13.78,13.78,0,0,1-2.49-.7,12.58,12.58,0,0,1-4.22-2.65,18.29,18.29,0,0,1-4.35-6.65A54.3,54.3,0,0,1,101,458.15l-.8-5.55c-.27-1.78-.55-3.55-.93-5-.09-.38-.19-.7-.29-1a5.35,5.35,0,0,0-.34-.88,17.88,17.88,0,0,0-1.1-2.06,33.46,33.46,0,0,0-3-4.1c-1.12-1.36-2.35-2.73-3.6-4.14s-2.51-2.88-3.73-4.35q-3.66-4.4-7-9.05a132.88,132.88,0,0,1-11.67-19.54,111,111,0,0,1-4.5-10.4c-.67-1.77-1.26-3.56-1.87-5.35a41.28,41.28,0,0,1-1.32-5.54c-1.27-7.46-1-15-2.48-22.31s-4.3-14.29-6.23-21.51Zm.09,0c2.32,7.11,5.46,13.9,7.34,21.28a81.47,81.47,0,0,1,1.78,11.18c.45,3.71.74,7.4,1.49,11A37,37,0,0,0,64.24,386c.63,1.72,1.28,3.46,2,5.15a108.87,108.87,0,0,0,4.78,10A128.72,128.72,0,0,0,83.2,419.68q3.42,4.38,7.17,8.5c1.25,1.38,2.53,2.72,3.82,4.06s2.62,2.67,3.89,4.07a41.93,41.93,0,0,1,3.59,4.46,25.93,25.93,0,0,1,1.5,2.48,14.26,14.26,0,0,1,1.12,2.73c1.1,3.7,1.59,7.4,2.31,11.06a51.93,51.93,0,0,0,2.91,10.64,12.88,12.88,0,0,0,3,4.41,6.6,6.6,0,0,0,4.75,1.74,10.53,10.53,0,0,0,5.06-1.53,14.86,14.86,0,0,0,4-3.63,27.29,27.29,0,0,0,4.7-9.91,59,59,0,0,0,1.38-11,47.23,47.23,0,0,1,1.46-11.14,18.26,18.26,0,0,1,2.36-5.11,13.69,13.69,0,0,1,4-3.91A21.51,21.51,0,0,1,151,424.64a78.82,78.82,0,0,1,11.18.72c1.86.21,3.72.36,5.58.52s3.72.39,5.57.62c3.71.44,7.42.89,11.15,1.1a55.09,55.09,0,0,0,11.19-.32c.93-.1,1.83-.33,2.75-.49s1.82-.42,2.71-.71a21.45,21.45,0,0,0,5.11-2.26,14.9,14.9,0,0,0,4.11-3.76,16.45,16.45,0,0,0,2.43-5,47.59,47.59,0,0,0,1.4-11.09,83.36,83.36,0,0,1,1-11.16,42.79,42.79,0,0,1,3.42-10.64,30.68,30.68,0,0,1,6.5-9,27.78,27.78,0,0,1,9.55-5.72,34.55,34.55,0,0,1,11-1.85,51.06,51.06,0,0,1,21.69,4.88c6.82,3.08,13.11,7.16,19.38,11.22,3.14,2,6.27,4.06,9.48,6a74.24,74.24,0,0,0,9.93,5.17,64.55,64.55,0,0,0,21.72,5,55,55,0,0,0,11.18-.53,51.77,51.77,0,0,0,5.49-1.1c.9-.22,1.78-.56,2.67-.84a19.26,19.26,0,0,0,2.63-1l2.57-1.11c.84-.42,1.64-.9,2.46-1.34l1.22-.68c.4-.25.77-.53,1.16-.8l2.29-1.6c2.89-2.37,5.41-5.2,8.65-7.1a20.47,20.47,0,0,1,5.14-2.19,31.21,31.21,0,0,1,5.52-.93c1.86-.17,3.72-.24,5.59-.33a41.72,41.72,0,0,0,5.58-.47,32.94,32.94,0,0,0,5.42-1.4c1.75-.64,3.49-1.33,5.19-2.11,3.4-1.53,6.73-3.24,10.18-4.67a36.13,36.13,0,0,1,10.79-2.87,57.27,57.27,0,0,1,11.18.35c3.71.4,7.41,1,11.14,1.25a34.74,34.74,0,0,0,11.14-.61,18.47,18.47,0,0,0,5.15-2.14,27.28,27.28,0,0,0,4.33-3.55c1.37-1.26,2.71-2.57,4.17-3.74a15.73,15.73,0,0,1,4.86-2.72c3.59-1.14,7.45-.83,11.09-.17a78.72,78.72,0,0,1,10.76,3.1,126.71,126.71,0,0,0,21.74,5.37c3.68.61,7.38,1.12,11.09,1.58l5.56.66a27.58,27.58,0,0,0,5.59.27,13.17,13.17,0,0,0,5.37-1.44,9.23,9.23,0,0,0,3.87-3.93,15,15,0,0,0,.73-10.91c-2.16-7.21-6.64-13.4-11.2-19.26-2.29-2.95-4.65-5.86-6.87-8.86s-4.57-5.91-7-8.75a169.05,169.05,0,0,0-15.66-16q-4.17-3.75-8.59-7.19c-2.95-2.3-6-4.51-8.86-6.88a59.14,59.14,0,0,1-8.08-7.74,41.7,41.7,0,0,1-5.89-9.49c-1.6-3.38-3-6.86-4.71-10.17a30.91,30.91,0,0,0-6.61-9,42.23,42.23,0,0,0-9.37-6.09c-1.67-.84-3.36-1.62-5.06-2.41l-5.06-2.39-10.14-4.79a73.35,73.35,0,0,0-10.43-4.06c-1.78-.58-3.55-1.18-5.27-1.9a27.84,27.84,0,0,1-5-2.57,23.26,23.26,0,0,1-7.52-8.16,28.18,28.18,0,0,1-3.48-16.2c.15-1.87.6-3.69.89-5.54a73,73,0,0,0,1.09-11.14,54.81,54.81,0,0,0-1-11.14,60.7,60.7,0,0,0-7.92-20.83,54.2,54.2,0,0,0-6.81-8.86,48.62,48.62,0,0,0-8.65-7.09,50.47,50.47,0,0,0-20.88-7.58,47.43,47.43,0,0,0-11.17-.12,43.13,43.13,0,0,0-10.85,2.64l-2.58,1.09c-.84.4-1.65.88-2.47,1.32a26.32,26.32,0,0,0-4.65,3.1,17.46,17.46,0,0,0-3.7,4.16,15.68,15.68,0,0,0-2,5.21c-.73,3.67-.59,7.44-1.23,11.13A28.15,28.15,0,0,1,318.57,165c-4.05,6.33-9.93,11.2-16,15.51-3.05,2.16-6.19,4.19-9.32,6.23s-6.29,4-9.5,6-6.47,3.73-9.82,5.4a89.11,89.11,0,0,1-10.3,4.41,69.57,69.57,0,0,1-10.82,2.88,72.09,72.09,0,0,1-11.17.88,61,61,0,0,0-11.14.94,19.6,19.6,0,0,0-5.26,1.85,12,12,0,0,0-4.11,3.69c-2.17,3.08-2.69,7-2.67,10.67,0,1.87.1,3.73.19,5.6a20.17,20.17,0,0,1-.29,5.59,14.14,14.14,0,0,1-6.3,8.95,33.4,33.4,0,0,1-10.34,4.24,162,162,0,0,1-22.11,3.6c-7.44.7-14.92,1-22.39,1.11l-22.41.38c-7.46.14-15,.54-22.24,2.3a76.42,76.42,0,0,0-10.64,3.47,81.24,81.24,0,0,0-10,5,88.14,88.14,0,0,0-17.5,13.88A124.26,124.26,0,0,0,60.5,295a65.28,65.28,0,0,0-9.38,20.22,46.78,46.78,0,0,0-.94,5.52,32.6,32.6,0,0,0,0,5.59,49.22,49.22,0,0,0,.78,5.54c.36,1.84.88,3.63,1.4,5.42Z"/></svg>