<svg id="Layer_1" data-name="Layer 1" xmlns="http://www.w3.org/2000/svg" viewBox="0 0 600 600"><title>Chile</title><path d="M324,56.33a8.22,8.22,0,0,0-5.95-4.45,9.19,9.19,0,0,0-7.48,1.46,8.25,8.25,0,0,0-2.38,3.12A15.06,15.06,0,0,0,307,60.54a63.17,63.17,0,0,0-.46,9.11c-.13,12.39.32,24.79.57,37.22.12,6.21.18,12.43.09,18.66s-.34,12.47-.85,18.71c-.16,3.12-.55,6.23-.78,9.36s-.67,6.24-1.05,9.37c-.71,6.25-1.81,12.53-2.94,18.71q-.87,4.63-1.82,9.17l-1.77,9c-.59,3-1.12,5.93-1.61,8.85-.24,1.45-.42,2.92-.62,4.38s-.45,2.92-.58,4.41c-1.42,11.8-2.52,24.1-2.95,36.62,0,3.13-.45,6.26,0,9.46.19,1.61.61,3.23.81,4.86a22.82,22.82,0,0,1,.15,4.88,112.28,112.28,0,0,1-3.62,19.5c-.5,1.61-1,3.24-1.52,4.84l-1.86,4.76c-1.3,3.17-2.88,6.09-4.35,8.86s-2.93,5.41-4.17,8c-.31.64-.61,1.28-.89,1.91l-.92,2.08-1.82,4.19c-2.42,5.58-4.7,11.11-6.57,16.69-.94,2.79-1.77,5.58-2.49,8.39l-.51,2.1-.5,2.19c-.33,1.52-.65,2.94-.89,4.28a31.27,31.27,0,0,0-.49,3.7c0,.28,0,.55,0,.8v.63c0,.28,0,.57,0,.83a29.12,29.12,0,0,1-.31,3c-.28,1.88-.63,3.48-.88,4.84-.13.69-.23,1.31-.3,1.87-.05.29-.06.51-.09.81s0,.59-.05.88a11.1,11.1,0,0,0,.77,5.26,4.06,4.06,0,0,0,.9,1.16,2.51,2.51,0,0,0,.83.48l.15.05a.15.15,0,0,0,.15,0c.11,0,.09,0,.25-.09a3,3,0,0,0,.51-.54,14.08,14.08,0,0,0,2-5.81c.19-1.3.31-3,.68-5a22,22,0,0,1,.86-3.23,16.73,16.73,0,0,1,.72-1.73,11.84,11.84,0,0,1,1.3-2.15,8.65,8.65,0,0,1,5-3.29c.25-.06.51-.11.77-.15a7.77,7.77,0,0,1,1-.09,8.46,8.46,0,0,1,2.23.17,8,8,0,0,1,2.46,1,8.35,8.35,0,0,1,3.06,3.24,6.94,6.94,0,0,1,.36.73c.09.23.2.49.27.7a11.79,11.79,0,0,1,.35,1.19,10.24,10.24,0,0,1,.21,1c.06.34.1.65.13,1a23.35,23.35,0,0,1,.07,3.19,48.25,48.25,0,0,1-.56,5.33l-.35,2.35-.06.45,0,.37-.09,1.07a45,45,0,0,0-.07,9.24c.41,3.29,1.23,7,.39,10.87a24.6,24.6,0,0,1-2.16,5.81c-.24.48-.47,1-.74,1.43l-.89,1.4a29.43,29.43,0,0,1-2,2.65c-.73.84-1.55,1.6-2.32,2.36s-1.55,1.3-2.31,1.86-1.51,1.08-2.23,1.56-1.45.87-2.13,1.27a55.79,55.79,0,0,0-6.69,4.19,12.08,12.08,0,0,0-2.1,2.15c-.13.18-.25.37-.37.56a2.78,2.78,0,0,0-.28.51,5.49,5.49,0,0,0-.36,1.17,4.78,4.78,0,0,0,.13,2.32,3.35,3.35,0,0,0,.45.84,4.46,4.46,0,0,0,.61.55c.12.1.07.13.26.14a3.54,3.54,0,0,0,1.19-.39,20.7,20.7,0,0,1,5.22-2.21,6.85,6.85,0,0,1,4.76.61,7.06,7.06,0,0,1,3.16,3.61,9.26,9.26,0,0,1,.67,3.94,10,10,0,0,1-.91,3.77,17.82,17.82,0,0,1-3.76,5.14,45.66,45.66,0,0,0-3.2,3.34,15.56,15.56,0,0,0-2.67,6.09c-.1.56-.22,1.11-.29,1.7s-.17,1.17-.23,1.75c-.1,1.21-.15,2.43-.19,3.69a57.49,57.49,0,0,0,0,7.88,82.74,82.74,0,0,0,1.06,8.4c.46,2.79,1,5.56,1.7,8.3.15.69.31,1.37.51,2.05l.51,2.06,1.14,4.09c.72,2.74,1.29,5.6,2.13,8.4a33,33,0,0,0,3.45,8,30.27,30.27,0,0,0,2.49,3.56c.89,1.14,1.83,2.22,2.8,3.28a75.58,75.58,0,0,0,13.14,11.38,85.31,85.31,0,0,0,7.5,4.7,46.11,46.11,0,0,0,7.67,3.53A21.09,21.09,0,0,0,317,544a5.08,5.08,0,0,0,2.39-.59,2.61,2.61,0,0,0,1.16-1.14,2.94,2.94,0,0,0,.25-1.35,14.42,14.42,0,0,0-.37-2,37.82,37.82,0,0,0-2.53-6.46c-.6-1.25-1.24-2.52-1.89-4l-.51-1.14-.26-.58-.22-.46-.84-1.77a28.62,28.62,0,0,0-1.68-3.06,21.56,21.56,0,0,0-1.64-2.35,15.27,15.27,0,0,0-1.66-1.75,18,18,0,0,0-2.28-1.7,61.36,61.36,0,0,0-6.63-3.5l-4.19-1.94c-1.49-.69-3.1-1.5-4.7-2.37a48.18,48.18,0,0,1-9.86-7,33.38,33.38,0,0,1-4.57-5.28A29.26,29.26,0,0,1,273.6,489a31.89,31.89,0,0,1-1.63-7,37.31,37.31,0,0,1-.12-6.57A53.52,53.52,0,0,1,274,464.16c.5-1.71,1.05-3.32,1.59-4.9s1.12-3.06,1.69-4.57c2.28-6,4.66-11.76,6.92-17.4s4.39-11.16,6.09-16.69A77.23,77.23,0,0,0,293.77,404c.06-1.38.15-2.78.18-4.17l-.06-2.08c0-.69,0-1.36-.08-2.16-.19-3.1-.46-6.18-.69-9.27-.16-1.54-.29-3.09-.47-4.62s-.41-3.07-.66-4.59c-.55-3.07-1.1-6.19-1.58-9.34a127.83,127.83,0,0,1-1.62-19.46c0-1.66,0-3.34.16-5a47.41,47.41,0,0,1,.55-5.28,40.16,40.16,0,0,1,1.31-5.45l.21-.64.1-.31.06-.21c.07-.25.15-.51.21-.78.14-.54.25-1.13.36-1.74.42-2.48.59-5.37.84-8.57l.1-1.22.06-.61v-.37c0-.5,0-1,0-1.61-.05-1.16-.2-2.48-.39-4s-.41-3.12-.55-4.95c-.08-.9-.12-1.88-.13-2.88,0-.5,0-1,0-1.54l.12-1.51a42.5,42.5,0,0,1,2.65-11.13c1.24-3.35,2.65-6.37,3.91-9.16a83.81,83.81,0,0,0,3.23-7.81c.38-1.2.71-2.37,1-3.57l.38-1.83.29-1.87c.38-2.52.77-5.14.91-7.89a136.15,136.15,0,0,0-.5-17.51,182.94,182.94,0,0,1-.79-19.35,66.86,66.86,0,0,1,3.35-20.36,41.37,41.37,0,0,1,4.79-9.71c.47-.77,1.07-1.48,1.61-2.21l.42-.54.21-.27.12-.15a7,7,0,0,0,.51-.63,33.7,33.7,0,0,0,2.18-3.44c.76-1.32,1.56-2.77,2.54-4.28a23.23,23.23,0,0,1,3.76-4.61c.43-.36.83-.72,1.3-1.06l.72-.49.36-.23.3-.18c.79-.45,1.49-.79,2.06-1.1a13.89,13.89,0,0,0,1.33-.8,2.87,2.87,0,0,0,.69-.65,6.37,6.37,0,0,0,.95-2.78,40.55,40.55,0,0,0,.32-4.24,73.22,73.22,0,0,0-.24-8.88c-.13-1.49-.31-2.95-.54-4.45a36,36,0,0,1-.51-5.07,10.5,10.5,0,0,1,1.48-5.84,11,11,0,0,1,4.43-3.78c1.53-.77,2.94-1.35,4.13-2a10.09,10.09,0,0,0,3-2.47,11.4,11.4,0,0,0,1.93-3.46,14.4,14.4,0,0,0,.79-4,4.8,4.8,0,0,0-.23-1.65,2.19,2.19,0,0,0-.87-1.09,10,10,0,0,0-1.75-1,14.12,14.12,0,0,1-2.26-1.22,11.92,11.92,0,0,1-3.48-3.9,33.6,33.6,0,0,1-2-4.4,105.1,105.1,0,0,1-5.37-18,113.76,113.76,0,0,1-2.07-18.55l-.14-4.67a42,42,0,0,0-.17-4.64A30.2,30.2,0,0,0,324,56.33Zm1.53-.67a22.74,22.74,0,0,1,1.66,9.09c0,1.55-.07,3.1-.1,4.65s0,3.1.06,4.65a97.74,97.74,0,0,0,8.24,36.05,33.51,33.51,0,0,0,2.06,4.16,10.58,10.58,0,0,0,3.14,3.38c1.29.87,2.85,1.23,4.12,2.14a4,4,0,0,1,1.48,1.76,6.44,6.44,0,0,1,.42,2.27,14.81,14.81,0,0,1-2.88,8.68,12.37,12.37,0,0,1-3.45,3.08c-1.33.8-2.76,1.41-4.11,2.17a8.81,8.81,0,0,0-3.44,3,8,8,0,0,0-.95,4.49,31.05,31.05,0,0,0,.71,4.59c.32,1.52.6,3,.82,4.58a75.43,75.43,0,0,1,.79,9.26c0,1.55.05,3.1-.07,4.65a11.2,11.2,0,0,1-1.18,4.46,8.89,8.89,0,0,1-3.29,3.21,19.76,19.76,0,0,0-3.79,2.67c-2.19,2.23-3.5,5.12-4.87,7.88a46.08,46.08,0,0,1-2.21,4.09c-.85,1.3-1.8,2.53-2.6,3.85a35.59,35.59,0,0,0-3.75,8.49,59.75,59.75,0,0,0-2.19,18.39,177,177,0,0,0,1.59,18.53,147.36,147.36,0,0,1,1.33,18.54A52,52,0,0,1,310,276.71c-2.21,5.8-5.46,11.13-7.78,16.89a33.91,33.91,0,0,0-2.42,8.95,43,43,0,0,0,.24,9.28c.14,1.54.26,3.09.27,4.64a36,36,0,0,1-.38,4.63c-.34,3.08-.62,6.18-1.26,9.21a31.63,31.63,0,0,1-1.31,4.46,31.56,31.56,0,0,0-1.22,4.48,65.25,65.25,0,0,0-.9,9.25,121.2,121.2,0,0,0,.95,18.56c.36,3.08.81,6.15,1.24,9.22l1.21,9.22,1.21,9.23c.2,1.53.32,3.08.49,4.62s.11,3.1.16,4.65a83.49,83.49,0,0,1-2.4,18.41,182.15,182.15,0,0,1-5.31,17.82c-2,5.86-4.17,11.68-6.12,17.56s-3.9,11.85-4.18,18.07a26.67,26.67,0,0,0,.21,4.64,21.18,21.18,0,0,0,1.16,4.49,20.2,20.2,0,0,0,5.33,7.52,38.48,38.48,0,0,0,7.68,5.21c2.73,1.46,5.58,2.7,8.39,4a60.17,60.17,0,0,1,8.15,4.46,25.39,25.39,0,0,1,6.67,6.4,34.45,34.45,0,0,1,4.14,8.3c.53,1.46,1,2.94,1.45,4.42s1,2.95,1.4,4.44a34.17,34.17,0,0,1,1.59,9.13,13.94,13.94,0,0,1-.74,4.57,10.08,10.08,0,0,1-2.51,3.86,11.35,11.35,0,0,1-8.57,2.87,28,28,0,0,1-9-2.17,82.22,82.22,0,0,1-16.1-9.24,80.56,80.56,0,0,1-13.88-12.33,81.62,81.62,0,0,1-17.09-32.68,92.56,92.56,0,0,1-3-18.34,52.32,52.32,0,0,1,.22-9.28,31.27,31.27,0,0,1,2.35-9,20.14,20.14,0,0,1,5.51-7.4c1.19-1,2.49-1.85,3.69-2.83a11.48,11.48,0,0,0,3.07-3.44,5.57,5.57,0,0,0,.35-4.5,3.3,3.3,0,0,0-1.45-1.75,3.16,3.16,0,0,0-2.26-.25A16.66,16.66,0,0,0,265,439a8,8,0,0,1-2.15.86,4.24,4.24,0,0,1-2.29-.1,6.89,6.89,0,0,1-3.54-2.88,9.17,9.17,0,0,1-1.3-4.42,12.56,12.56,0,0,1,3.25-8.48c3.94-4.85,9.92-7.5,13.74-12.46a23.66,23.66,0,0,0,3.91-8.38A55.78,55.78,0,0,0,278,393.9c.23-3.09.35-6.19.62-9.28.1-1.55.39-3.08.62-4.61a42,42,0,0,0,.47-4.62,9.77,9.77,0,0,0-.66-4.55,1.91,1.91,0,0,0-1.88-1.09,2.12,2.12,0,0,0-.57.09,1.8,1.8,0,0,0-.55.19,2.61,2.61,0,0,0-.86.76,11.16,11.16,0,0,0-1.56,4.34c-.26,1.53-.35,3.08-.52,4.62a21.18,21.18,0,0,1-2.75,8.81,8.91,8.91,0,0,1-3.33,3.18,7.43,7.43,0,0,1-4.51.79,9.94,9.94,0,0,1-7.26-5.27,17.61,17.61,0,0,1-1.72-9c.08-3.12.93-6.13,1.39-9.19a22.58,22.58,0,0,0,.23-2.31c0-.78,0-1.55.06-2.33a37.48,37.48,0,0,1,.59-4.61c.27-1.53.61-3,.94-4.56s.67-3,1-4.53q1.16-4.5,2.64-8.92c2-5.88,4.3-11.63,6.78-17.31,1.26-2.84,2.49-5.68,3.85-8.47s2.88-5.49,4.37-8.21a82.75,82.75,0,0,0,7.42-17,105.41,105.41,0,0,0,3.68-18.2c.71-6.17,1-12.37,1.19-18.56.37-12.4.22-24.83,1.61-37.16s5-24.29,8.21-36.25A213.89,213.89,0,0,0,304.1,144c1.21-12.35,1.55-24.76,1.6-37.16s-.22-24.8-.27-37.21a72,72,0,0,1,.28-9.29,16.56,16.56,0,0,1,1.18-4.48,9.91,9.91,0,0,1,2.72-3.71,10.43,10.43,0,0,1,8.79-1.91A9.88,9.88,0,0,1,325.54,55.66Z"/></svg>