<svg id="Layer_1" data-name="Layer 1" xmlns="http://www.w3.org/2000/svg" viewBox="0 0 600 600"><title>Colombia</title><path d="M341,73.44a35.13,35.13,0,0,0,5.37-4,14.64,14.64,0,0,0,2.17-2.54,10.71,10.71,0,0,0,1.35-3,8.15,8.15,0,0,0,.2-3.18,8,8,0,0,0-.92-3,10.49,10.49,0,0,0-4.6-4.1,25.94,25.94,0,0,0-12.52-2.29c-4.32.3-8.75,1-12.43,2.76a14.8,14.8,0,0,0-4.71,3.57,21.65,21.65,0,0,0-3.15,5.21c-.87,1.94-1.62,4-2.47,6.14a36.55,36.55,0,0,1-3.11,6.49l-1,1.57c-.35.52-.77,1-1.15,1.48a30.19,30.19,0,0,1-2.55,2.75,34.15,34.15,0,0,1-6,4.43A49.78,49.78,0,0,1,282,91.06a89.71,89.71,0,0,1-13.94,2.25c-4.58.42-9,.69-13.32,1.16a77.71,77.71,0,0,0-12.31,2.2,33,33,0,0,0-10.21,4.71,27.8,27.8,0,0,0-7.27,7.89A62.89,62.89,0,0,0,219.8,120c-1.54,3.89-2.93,8.05-4.47,12.37a121.54,121.54,0,0,1-5.51,13.38A52.93,52.93,0,0,1,200.63,159c-1,1-2,2-3.16,3a41.36,41.36,0,0,1-3.55,2.62c-2.21,1.47-4,2.57-5.43,3.58a13.94,13.94,0,0,0-1.58,1.32l-.25.27-.17.22a2.46,2.46,0,0,0-.22.36c-.37.61-1.11,2.26-2.12,4.52a34,34,0,0,1-2.1,3.92,23.08,23.08,0,0,1-3.75,4.69,28.68,28.68,0,0,1-9.15,5.61c-2.64,1-4.7,1.7-5.88,2.27a5.25,5.25,0,0,0-1.21.7c-.13.13.13,0,.26-.2s.19-.27.12,0-.2.84-.35,1.72l-.55,3.35c-.13.69-.27,1.4-.45,2.18-.08.35-.22.84-.34,1.27s-.25.9-.4,1.32a35.89,35.89,0,0,1-2,4.7c-.73,1.38-1.48,2.66-2.18,3.76l-1.92,3c-.58.88-1.07,1.66-1.45,2.33a13,13,0,0,0-.86,1.72l-.14.34a1.36,1.36,0,0,0,0,.2,1.54,1.54,0,0,0,0,.17.34.34,0,0,1,0,.1c0,.25,0,.18.14.91a21.71,21.71,0,0,0,1.84,3.78l1.66,2.93.92,1.69c.32.59.57,1.17.85,1.76a63.73,63.73,0,0,1,3.1,7.11l1.32,3.63c.38,1.22.71,2.45,1.07,3.68A104.57,104.57,0,0,1,166,273c-.2,9.67-1.6,19-3,28.14s-3.24,18-4.89,26.95a56.81,56.81,0,0,1-1.9,7.59,26.85,26.85,0,0,1-4.4,8.3l-.77,1-.83.88c-.55.6-1.12,1.12-1.7,1.64a38.43,38.43,0,0,1-3.47,2.76l-1.67,1.2-1.64,1.08c-1.06.71-2.09,1.37-3.07,2a61.75,61.75,0,0,0-5.13,3.49,20.77,20.77,0,0,0-1.84,1.64c-.27.27-.46.56-.69.82a7.4,7.4,0,0,0-.66.82,18.61,18.61,0,0,0-3,7.9c0,.75-.22,1.43-.21,2.2l0,1.1c0,.38,0,.76,0,1.13a27.43,27.43,0,0,0,.49,4.43,29,29,0,0,0,2.84,8,59.79,59.79,0,0,0,12.41,14.74c1.34,1.2,2.81,2.3,4.31,3.4a55.68,55.68,0,0,0,4.83,3c.84.46,1.7.89,2.57,1.29a15.14,15.14,0,0,0,2.62,1.09c1.77.55,3.49,1.07,5.16,1.41a24.82,24.82,0,0,0,8.82.48c.29-.06.59-.13.89-.17s.56-.16.85-.22a12.45,12.45,0,0,0,1.71-.66c1.38-.63,3.33-1.82,6.07-3.16a31.83,31.83,0,0,1,4.81-1.87,27.65,27.65,0,0,1,5.73-1,30,30,0,0,1,10.26,1.23,52,52,0,0,1,7.95,3l6.44,3.07,12.55,5.88c1.07.49,2.1,1,3.21,1.49a13.36,13.36,0,0,0,3.61.9c2.58.36,5.58.16,8.37.47a17.67,17.67,0,0,1,3.95.92,14.91,14.91,0,0,1,3.38,1.94c2.14,1.42,4.21,3.15,6.26,4.81A72.94,72.94,0,0,1,268.4,440.1a77.73,77.73,0,0,1,8.3,15.09c.57,1.32,1,2.72,1.5,4.08l.7,2c.22.68.41,1.34.61,2,.77,2.63,1.28,5.08,1.84,7.31s1,4.24,1.53,6.05a20.75,20.75,0,0,0,1.88,4.53,18.65,18.65,0,0,0,1.93,2.73,7.39,7.39,0,0,0,1.75,1.43,14,14,0,0,0,6.35,1.53,58.84,58.84,0,0,0,10.7-.72l26.38-3.86,13.32-1.77,3.34-.41,1.85-.23c.7-.08,1.41-.16,2.12-.21,1.42-.12,2.87-.19,4.34-.21a12.14,12.14,0,0,1,2.23.23,23,23,0,0,1,2.25.65c.76.27,1.52.59,2.26.85a23.34,23.34,0,0,0,2.31.79c.78.24,1.61.45,2.41.67s1.68.54,2.51.82,1.74.72,2.6,1.11,1.79,1,2.66,1.47,1.8,1.28,2.66,1.95a30.92,30.92,0,0,1,2.49,2.5,25.62,25.62,0,0,1,2.11,3,21.54,21.54,0,0,1,1.53,3.28,22.09,22.09,0,0,1,1.27,6.69,24.34,24.34,0,0,1-2.47,11.06,47.39,47.39,0,0,1-4.31,7.18c-1.43,2-2.82,3.8-4,5.4a35.4,35.4,0,0,0-2.67,4.09,9.18,9.18,0,0,0-.75,1.88,14,14,0,0,0-.47,2.07,10.89,10.89,0,0,0,0,3.75,5.1,5.1,0,0,0,.55,1.59,7.06,7.06,0,0,0,.84,1.37,3.54,3.54,0,0,0,1.82,1.35,4.75,4.75,0,0,0,3-.29,9.9,9.9,0,0,0,5.64-5.92,37.6,37.6,0,0,0,1.55-11.66l.08-3.42c.06-1.23.12-2.52.27-3.76a58.67,58.67,0,0,1,1.28-7.27c.53-2.36,1.18-4.65,1.87-6.89s1.4-4.43,2.13-6.58c1.43-4.32,2.83-8.49,3.87-12.61a52.06,52.06,0,0,0,1.67-12A28.36,28.36,0,0,0,394,462.24a27.1,27.1,0,0,0-2.47-4.57,42.94,42.94,0,0,0-3.41-4.29c-2.52-2.86-5.73-5.65-9-9-1.65-1.65-3.36-3.45-5.05-5.38a49.25,49.25,0,0,1-4.81-6.57,30.29,30.29,0,0,1-2.18-4.16,23.31,23.31,0,0,1-1.61-5.47,18.18,18.18,0,0,1,.28-7.35,14.37,14.37,0,0,1,1.51-3.8c.36-.56.73-1.12,1.13-1.63a15.09,15.09,0,0,1,1.3-1.34,12.67,12.67,0,0,1,5.57-2.85c1.76-.44,3.36-.55,4.77-.78a21.82,21.82,0,0,0,3.9-.95c1.21-.38,2.4-.71,3.57-1,2.34-.6,4.58-1.13,6.77-1.66s4.27-1.1,6.22-1.69a20.38,20.38,0,0,0,4.84-2c.56-.34.85-.69.77-.73s-.18.06-.4.29a2.94,2.94,0,0,0-.52.91c0,.12-.05.17-.05.09l0-.11c0-.1,0-.11-.06-.12s-.05,0-.07.05a.62.62,0,0,0,0,.24,1.7,1.7,0,0,0,.05.42,2.63,2.63,0,0,0,.17.52,4,4,0,0,0,.5.85c.31.38.18.34-.27.28s-1.22-.18-2.13-.28l-3.21-.4a36.46,36.46,0,0,1-4.29-.83,17.51,17.51,0,0,1-6.21-2.95l-.57-.44-.49-.4c-.32-.27-.65-.53-1-.82-.63-.61-1.27-1.17-1.87-1.85a22.45,22.45,0,0,1-1.76-2.15c-.28-.39-.56-.77-.83-1.17l-.77-1.31a20.22,20.22,0,0,1-1.35-2.89c-.18-.54-.35-1.09-.5-1.65l-.22-.83-.17-.91a18.24,18.24,0,0,1,.29-7.68,19.09,19.09,0,0,1,3.42-6.83,20.34,20.34,0,0,1,9.29-6.56,29.3,29.3,0,0,1,8.67-1.54c2.82-.13,5.47.05,8,.15s5,.13,7.36.09,4.71.1,7,.11l3.36,0c1.18,0,2,0,3.06-.08,2-.12,4.23-.34,6.57-.56a73.37,73.37,0,0,1,7.52-.37,33.54,33.54,0,0,1,8.78,1.22,23.74,23.74,0,0,1,9.13,5,27.3,27.3,0,0,1,3.53,3.92,35.65,35.65,0,0,1,2.43,3.88c1.31,2.44,2.19,4.55,3,6.09.1.16.21.42.29.51l.24.33c.16.21.28.48.43.65a2.79,2.79,0,0,1,.43.48.45.45,0,0,0,.2.19,1.39,1.39,0,0,1,.19.15,1.52,1.52,0,0,0,.81.43c.07,0,.07.1.27,0a2.43,2.43,0,0,0,.84-1,6.55,6.55,0,0,0,.47-1.19c0-.24.06-.53.12-.8l.09-.4.05-.52a20.31,20.31,0,0,0-.14-4.65,24.79,24.79,0,0,0-1-4.47,11.58,11.58,0,0,0-1.69-3.26,3.55,3.55,0,0,0-.45-.53l-.1-.12a1.36,1.36,0,0,0-.18-.18l-.61-.5c-.81-.68-1.62-1.35-2.46-2q-2.52-1.95-5.14-3.83c-3.5-2.51-7.14-4.92-10.85-7.32l-2.8-1.81-1.71-1.12c-.33-.23-.69-.5-1-.75s-.73-.6-1.08-.91-.79-.75-1.17-1.14c-.21-.25-.43-.5-.63-.76a7.25,7.25,0,0,1-.63-.88,9.2,9.2,0,0,1-.61-1,12.26,12.26,0,0,1-.56-1.29,10.58,10.58,0,0,1-.58-3.21,10,10,0,0,1,.5-3.23,8.38,8.38,0,0,1,.52-1.3,8,8,0,0,1,.6-1.08A13.15,13.15,0,0,1,446.4,329a20.8,20.8,0,0,1,1.93-1.59c.59-.46,1.12-.83,1.64-1.2,1-.71,1.92-1.29,2.67-1.86a11.09,11.09,0,0,0,1.55-1.34,2,2,0,0,0,.24-.55,5.8,5.8,0,0,0-.22-2,14,14,0,0,0-1.73-3.62,16.27,16.27,0,0,0-1.42-1.8c-.27-.28-.51-.58-.8-.83l-.4-.39-.53-.49-4.91-4.4a52.75,52.75,0,0,1-5.65-5.88,27.58,27.58,0,0,1-4.85-8.94,25.87,25.87,0,0,1-.88-11,33.78,33.78,0,0,1,2.81-9.44c2.48-5.42,5.4-9.47,7.73-13.15,1.16-1.83,2.25-3.51,3.08-5a17.18,17.18,0,0,0,1.66-3.81,2.78,2.78,0,0,0,.07-1.56c0-.06-.08-.09-.07-.14s-.09-.1-.08-.16-.08,0-.08-.06-.07,0-.06,0-.23-.16-.76-.5a10.54,10.54,0,0,0-2.53-1,17,17,0,0,0-3.81-.62,25.54,25.54,0,0,0-4.19.06c-3.49.33-7.7,1.19-12.56,1.82a54.52,54.52,0,0,1-16.71,0,36.06,36.06,0,0,1-12.84-4.89,38.74,38.74,0,0,1-3.49-2.38A88.74,88.74,0,0,1,380.34,232a104,104,0,0,0-9.09-9,24.71,24.71,0,0,0-9.83-5.37,38.44,38.44,0,0,0-12-.55c-4.34.29-8.84.91-13.75.89a35.81,35.81,0,0,1-14.53-2.87,21,21,0,0,1-6.45-4.46,19.5,19.5,0,0,1-4.17-6.64,26,26,0,0,1-1.51-7.3,60.75,60.75,0,0,1,0-7c.19-4.53.51-8.92-.11-13s-2.17-7.93-5.23-10.58-7.3-4.4-11.12-7.22a16.22,16.22,0,0,1-1.41-1.1,14.88,14.88,0,0,1-1.34-1.18,16,16,0,0,1-1.29-1.31,17.45,17.45,0,0,1-1.18-1.54,14.64,14.64,0,0,1-2.21-7.19,27.87,27.87,0,0,1,.63-7.11,50.77,50.77,0,0,1,1.91-6.68,90.35,90.35,0,0,1,12.84-24,122.76,122.76,0,0,1,18.8-19.45c3.46-2.89,7-5.6,10.67-8.23s7.43-5,11.13-7.55Zm.05.08c-14.5,10.52-27.71,22.9-37.91,37.18a96.67,96.67,0,0,0-6.91,11.16c-.25.49-.52,1-.76,1.45l-.69,1.49c-.45,1-.93,2-1.36,3q-1.31,3.06-2.43,6.13c-1.49,4.07-2.67,8.3-2.55,12.4a11.5,11.5,0,0,0,1.58,5.61c.24.42.58.76.85,1.16a14,14,0,0,0,1.07,1.13,13,13,0,0,0,1.16,1.06,15.31,15.31,0,0,0,1.25,1c3.37,2.63,7.6,4.41,11.19,7.55a17.46,17.46,0,0,1,4.25,5.65l.38.8.3.82c.18.56.42,1.1.55,1.67a28.36,28.36,0,0,1,.71,3.39c.66,4.57.32,9.1.24,13.56a58.66,58.66,0,0,0,.16,6.64,22.22,22.22,0,0,0,1.42,6.38,16.12,16.12,0,0,0,3.54,5.4,17.55,17.55,0,0,0,5.44,3.58,31.78,31.78,0,0,0,13,2.09c4.44-.13,8.88-.89,13.33-1.37a45.32,45.32,0,0,1,13.46.07c.54.12,1.11.21,1.64.37l1.62.49a25.65,25.65,0,0,1,3.16,1.2,15.12,15.12,0,0,1,1.52.73l1.48.8c1,.54,1.92,1.18,2.87,1.76a125.1,125.1,0,0,1,10.57,8.32,83.83,83.83,0,0,0,10.73,8,29.26,29.26,0,0,0,12.56,4.32,46.75,46.75,0,0,0,13.33-1.11c4.39-.87,8.74-2,13.18-2.59a33.47,33.47,0,0,1,13.33.8,22.62,22.62,0,0,1,6.11,2.71,14.92,14.92,0,0,1,4.68,4.74,13.38,13.38,0,0,1,1.92,6.36A16.44,16.44,0,0,1,460,256c-1.62,4.2-4.3,7.86-6.95,11.45a85.71,85.71,0,0,0-7.5,11.13,21.91,21.91,0,0,0-2.24,6.31,15.59,15.59,0,0,0,.23,6.66,18.71,18.71,0,0,0,2.95,6,44.27,44.27,0,0,0,4.4,5.08c3.1,3.2,6.59,6.15,8.77,10.11A20.73,20.73,0,0,1,462,319a11.33,11.33,0,0,1-.59,6.59,10.25,10.25,0,0,1-1.89,2.76,20.41,20.41,0,0,1-2.61,2.11,54,54,0,0,0-5.43,3.94,4.1,4.1,0,0,0-1.57,2.86,2.75,2.75,0,0,0,.54,1.56,5.8,5.8,0,0,0,1.12,1.25,18.05,18.05,0,0,0,2.77,1.89l2.88,1.72c3.84,2.32,7.65,4.67,11.38,7.16,1.86,1.24,3.71,2.51,5.53,3.82.9.65,1.81,1.31,2.7,2a16.72,16.72,0,0,1,1.31,1,12,12,0,0,1,1.22,1.15,19.08,19.08,0,0,1,3.58,5.65,29.16,29.16,0,0,1,1.89,6.43,30,30,0,0,1,.43,6.69,11.67,11.67,0,0,1-.17,1.67c-.09.55-.14,1.11-.26,1.66a16,16,0,0,1-1.11,3.16,11.89,11.89,0,0,1-4.29,5.05,9.8,9.8,0,0,1-6.41,1.5,11.1,11.1,0,0,1-6-2.75,9.48,9.48,0,0,1-1.21-1.16l-1.07-1.3c-.33-.44-.59-.95-.89-1.42a14.88,14.88,0,0,1-.83-1.46c-1-2-1.83-4.08-2.85-6.08a24.71,24.71,0,0,0-1.7-2.9,19.5,19.5,0,0,0-2.17-2.55,15.57,15.57,0,0,0-5.75-3.38,27.25,27.25,0,0,0-6.58-1.26c-4.47-.32-9,.06-13.43.1s-8.95-.35-13.43-.3a59.25,59.25,0,0,0-13.35,1.33,33.19,33.19,0,0,0-6.34,2.17A15.08,15.08,0,0,0,392,373.6a8.36,8.36,0,0,0-1.51,3,7.64,7.64,0,0,0-.15,3.33,12.12,12.12,0,0,0,3,5.92c.35.44.77.82,1.15,1.23s.84.74,1.26,1.1a9.66,9.66,0,0,0,3,1.48c2.14.67,4.37,1,6.55,1.5a14,14,0,0,1,6.14,2.55,5.23,5.23,0,0,1,1.66,2.85,8.35,8.35,0,0,1,0,3.34,5.28,5.28,0,0,1-1.69,2.83,11.13,11.13,0,0,1-2.82,1.81,34.7,34.7,0,0,1-6.37,2.1c-4.35,1.07-8.78,1.79-13.13,2.85a46.63,46.63,0,0,0-6.42,2,14.55,14.55,0,0,0-5.58,3.63,7.49,7.49,0,0,0-1.7,6.27,18,18,0,0,0,2.44,6.21,47.55,47.55,0,0,0,3.79,5.54q2.12,2.61,4.39,5.09c3,3.32,6.15,6.53,8.86,10.1a43.31,43.31,0,0,1,3.69,5.6,35.67,35.67,0,0,1,2.61,6.18,36.9,36.9,0,0,1,1.33,6.58,38.56,38.56,0,0,1,.08,6.71c-.67,9-4.05,17.44-7,25.86a115.25,115.25,0,0,0-3.9,12.85,54.82,54.82,0,0,0-1.07,6.63c-.22,2.23-.2,4.47-.22,6.71,0,4.46-.1,9-1.41,13.31a16.48,16.48,0,0,1-8.42,10,12.13,12.13,0,0,1-6.51,1.24,10.34,10.34,0,0,1-6-2.81,13.17,13.17,0,0,1-2.14-2.57,14,14,0,0,1-1.52-3,18.07,18.07,0,0,1-1-6.6,22,22,0,0,1,1.19-6.59,34,34,0,0,1,3-6c2.31-3.83,5-7.49,6.67-11.64a14.61,14.61,0,0,0,1.24-6.55,10.11,10.11,0,0,0-2.51-6.09,12.87,12.87,0,0,0-5.7-3.41,26.37,26.37,0,0,0-6.6-1.12,45.56,45.56,0,0,0-6.71.19c-2.23.23-4.44.6-6.66.92L334,496.62l-26.6,3.86a73.33,73.33,0,0,1-13.4.74,28,28,0,0,1-12.83-3.56A21.75,21.75,0,0,1,276,493.4a29.47,29.47,0,0,1-3.75-5.56,84.33,84.33,0,0,1-4.91-12.49c-.71-2.13-1.44-4.25-2.25-6.33-.22-.52-.41-1-.64-1.55L263.7,466c-.49-1-.91-2.05-1.47-3a66.88,66.88,0,0,0-7.6-11.05,88.59,88.59,0,0,0-9.58-9.4,123.81,123.81,0,0,0-10.81-8,246.61,246.61,0,0,0-23.34-13.3c-4-2-7.94-4.21-12.27-5.42A19.58,19.58,0,0,0,192,415a16,16,0,0,0-3.3.61,19.5,19.5,0,0,0-3.1,1.29c-2,1-3.88,2.23-5.87,3.26a23.53,23.53,0,0,1-6.31,2.25,33.72,33.72,0,0,1-13.35-.29A65.61,65.61,0,0,1,147.31,418a69.72,69.72,0,0,1-11.8-6.4c-7.41-5-13.85-11.69-17.6-19.87a37.16,37.16,0,0,1-3.18-13,36.51,36.51,0,0,1,1.71-13.25,28.59,28.59,0,0,1,7-11.34c3.2-3.19,7.31-5.18,11.26-7.25s8-4.27,10.75-7.85a19,19,0,0,0,3.06-5.94,49.92,49.92,0,0,0,1.57-6.52c3.17-17.61,6.17-35.4,5.76-53.34a98.08,98.08,0,0,0-4-26.48c-.34-1.07-.64-2.14-1-3.2l-1.23-3.13a64.47,64.47,0,0,0-2.76-6.11c-1.92-4-4.71-7.66-6.08-12a13.07,13.07,0,0,1-.41-6.65,19.68,19.68,0,0,1,2.6-6.18c2.29-3.83,5.3-7.29,6.77-11.55a46.66,46.66,0,0,0,1.46-6.55,14.44,14.44,0,0,1,2.39-6.23,13,13,0,0,1,5.44-3.85c2.07-.88,4.22-1.5,6.31-2.3a17.57,17.57,0,0,0,5.76-3.34,19,19,0,0,0,3.73-5.53,40.62,40.62,0,0,1,3.25-5.88,18.65,18.65,0,0,1,5-4.45c1.88-1.23,3.85-2.3,5.75-3.49a28.75,28.75,0,0,0,2.76-1.9c.85-.72,1.72-1.42,2.51-2.22A44.58,44.58,0,0,0,202,141.45c4.27-7.89,7-16.49,10.59-24.68A64.47,64.47,0,0,1,219.05,105a34.46,34.46,0,0,1,9.64-9.27,39.72,39.72,0,0,1,12.44-4.95,84.13,84.13,0,0,1,13.32-1.71c4.47-.26,9-.33,13.43-.53A85.32,85.32,0,0,0,281.21,87a46,46,0,0,0,12.65-4.33,31,31,0,0,0,5.54-3.75,24.1,24.1,0,0,0,2.37-2.37c.36-.42.76-.82,1.09-1.27l1-1.36c2.55-3.7,3.88-8.05,5.89-12.05a23.78,23.78,0,0,1,3.69-5.61,16.93,16.93,0,0,1,5.48-3.84C323,50.62,327.58,50.12,332,50a30.7,30.7,0,0,1,6.69.62,22.9,22.9,0,0,1,6.32,2.24,11.28,11.28,0,0,1,4.78,4.6,8.17,8.17,0,0,1,.82,3.24,8,8,0,0,1-.43,3.32,13.36,13.36,0,0,1-3.81,5.45,47.13,47.13,0,0,1-5.29,4.15Z"/></svg>