<svg id="Layer_2" data-name="Layer 2" xmlns="http://www.w3.org/2000/svg" viewBox="0 0 600 600"><title>Denmark</title><path d="M313.31,70.61a33.06,33.06,0,0,1,3.87-5c1.4-1.58,2.86-3.11,4.23-4.7a35.36,35.36,0,0,0,3.8-5,5.2,5.2,0,0,0,.86-2.79,2.6,2.6,0,0,0-1.7-2,7.43,7.43,0,0,0-5.83.18,17.32,17.32,0,0,0-4.75,3.33c-2.64,2.49-5.17,5.58-8,8.77-1.41,1.6-2.88,3.23-4.43,4.83-.78.79-1.61,1.57-2.46,2.32s-1.76,1.44-2.68,2.1a28.57,28.57,0,0,1-12.7,5.15,26,26,0,0,1-7.14-.29,39.74,39.74,0,0,0-5.83-.64,6.87,6.87,0,0,0-4,1.11,7.6,7.6,0,0,0-1.47,1.39,20.36,20.36,0,0,0-1.47,2.1l-6.67,10.68-1.68,2.69-1.57,2.73L250.53,103l-6.27,10.89-3.13,5.44c-1,1.85-2.06,3.75-3.18,5.67a75.2,75.2,0,0,1-8,11.55,41.51,41.51,0,0,1-12.27,9.93,46.91,46.91,0,0,1-7.4,3,64.14,64.14,0,0,1-7.26,1.75c-4.71.89-9.16,1.3-13.21,1.77-2,.23-4,.47-5.8.8s-3.68.69-5.5,1.11a91,91,0,0,0-10.7,3.22,81,81,0,0,0-10.13,4.58c-1.63.86-3.24,1.79-4.82,2.68-.73.43-1.44.88-2.19,1.28s-1.42.93-2.17,1.35a72.74,72.74,0,0,0-8.34,6,31.87,31.87,0,0,0-6.62,7.42,17.33,17.33,0,0,0-2.68,8.41,15.91,15.91,0,0,0,1.74,7.89,47.89,47.89,0,0,0,6,8.62c1.29,1.57,2.7,3.25,4.13,5.07.7.9,1.49,1.9,2.2,2.91s1.43,2,2.1,3.12a44.12,44.12,0,0,1,3.67,7.17,25.58,25.58,0,0,1,1.95,9.78,18.57,18.57,0,0,1-1.24,6.46,17.63,17.63,0,0,1-3.88,5.94,20.24,20.24,0,0,1-5,3.66,23,23,0,0,1-5.42,2,28.43,28.43,0,0,1-9.73.33c-2.61-.31-4.64-.68-6.1-.77-.4-.05-.67,0-1-.05s-.5,0-.85,0a12.91,12.91,0,0,0-1.83.22,7.69,7.69,0,0,0-2.64.95,3,3,0,0,0-.7.57,6.07,6.07,0,0,0-.61.78,9.66,9.66,0,0,0-1.15,2.47c-.07.25-.14.48-.2.78l-.21,1c-.08.31-.11.68-.17,1a8.58,8.58,0,0,0-.14,1.08,39,39,0,0,0-.23,4.91c0,1.8.06,3.74.14,5.85l.1,3.27q0,.86.06,1.71c0,.59.06,1.2.14,1.8.25,2.44.91,5.07,1.06,8a18.3,18.3,0,0,1,0,2.22l-.07,1.1-.07.77a21.16,21.16,0,0,1-.63,3c-2,7.85-4.1,15.32-5.62,22.76a77.2,77.2,0,0,0-1.51,11.12c-.15,1.89-.12,3.82-.1,5.78s.15,3.93.33,5.92c.31,4,.92,8.06,1.53,12.2s1.28,8.35,1.87,12.65l.43,3.36c.19,1.43.24,2.68.29,3.92.06,2.44,0,4.68,0,6.87-.12,4.36-.32,8.5-.35,12.48,0,2,0,3.94.13,5.79a30.81,30.81,0,0,0,.64,5.15,17.35,17.35,0,0,0,.57,2,8.88,8.88,0,0,0,.59,1.3,4.82,4.82,0,0,0,.6.73,2.75,2.75,0,0,0,.68.44,18.57,18.57,0,0,0,4.46.84,36,36,0,0,1,3.86.7l.53.13a6.4,6.4,0,0,1,.65.18l1.51.53a14,14,0,0,1,2.92,1.69,14.54,14.54,0,0,1,4,4.61,28.21,28.21,0,0,1,1.75,3.9c.4,1.08.73,2,1,2.72a10.33,10.33,0,0,0,.72,1.46,5.73,5.73,0,0,0,.86.91,9.13,9.13,0,0,0,1.43,1,13.58,13.58,0,0,0,1.84.8l1,.31.54.14.47.09a20.36,20.36,0,0,0,2.42.27c1,.07,2.07.08,3.43.18a22.18,22.18,0,0,1,4.78.75,15,15,0,0,1,5.59,3,17.7,17.7,0,0,1,3.84,4.61,24.46,24.46,0,0,1,2,4.28,28.07,28.07,0,0,1,1.59,8.29,49.75,49.75,0,0,1-.27,7c-.23,2.13-.56,4.25-.86,6.38s-.72,4.23-1.09,6.35l-.6,3.18c-.21,1.18-.45,2.31-.7,3.4-.51,2.18-1,4.19-1.36,6.09-.21.95-.32,1.88-.43,2.77s-.17,1.77-.19,2.53a11.64,11.64,0,0,0,.74,4.23,6.88,6.88,0,0,0,2,2.87,11.88,11.88,0,0,0,7.71,2.4,23.23,23.23,0,0,0,4.84-.63c1.73-.37,3.58-.88,5.63-1.43a65,65,0,0,1,6.77-1.56l1.93-.29,2-.19a35.42,35.42,0,0,1,4.24,0,35.53,35.53,0,0,1,4.37.62,23,23,0,0,1,4.6,1.46,19.42,19.42,0,0,1,4.86,3,22,22,0,0,1,3.61,3.94c.45.64.86,1.26,1.22,1.85l.26.44c.13.21.06.08.09.13s0,0,0,.06,0,0,0,.1l0,0s0,.06,0,.07a.19.19,0,0,1,0,.09s.06,0,.08.08.15.1.23.18a3.62,3.62,0,0,0,.82.34,5.66,5.66,0,0,0,3.51-.23,5,5,0,0,0,1.53-1.17c.73-.69,1.65-1.65,3-2.76.31-.26.74-.56,1.11-.83s.87-.56,1.34-.82a13.3,13.3,0,0,1,3.25-1.25,9.91,9.91,0,0,1,1.76-.28,8.73,8.73,0,0,1,1.69,0c.26,0,.56,0,.8.05l.7.1a13,13,0,0,1,1.28.27,35,35,0,0,1,3.78,1.27c1,.38,1.76.68,2.28.83s.69.12.61.16,0,0,0,0,0,0,.07,0a3.62,3.62,0,0,0,.59-.33c.57-.34,1.23-.94,2.69-1.91a14.82,14.82,0,0,1,5-2.13,13.47,13.47,0,0,1,5.71.08,17.77,17.77,0,0,1,2.26.68c.35.12.69.25,1,.39l.48.2.62.29a18.81,18.81,0,0,1,4,2.68c2,1.78,3.17,3,3.95,3.25a3.31,3.31,0,0,0,2.26.45,1.67,1.67,0,0,0,.41-.31,3.34,3.34,0,0,0,.6-.72c.1-.16.19-.33.28-.51a3.51,3.51,0,0,0,.21-.63,11.72,11.72,0,0,0,.37-1.65,12,12,0,0,0-1.42-7q-.22-.34-.42-.69a6.52,6.52,0,0,1-.48-.59c-.16-.17-.13-.44-.19-.67s-.23-.36-.32-.57a3,3,0,0,0-.34-.49c-.06-.07-.11-.17-.17-.24a1.12,1.12,0,0,1-.2-.18l-.18-.21a1.3,1.3,0,0,0-.2-.15,2.46,2.46,0,0,0-.57-.42c-2.5-1.49-6-2.63-10.13-3.94-2.07-.67-4.28-1.4-6.58-2.33-.57-.23-1.16-.5-1.74-.74l-.91-.43c-.28-.13-.66-.31-.78-.38-.7-.37-1.53-.75-2.46-1.16a71.83,71.83,0,0,1-6.6-3.09c-.61-.35-1.24-.73-1.87-1.17-.32-.21-.63-.42-.94-.67l-.47-.36c-.15-.11-.36-.3-.54-.45a15.17,15.17,0,0,1-3.77-4.84,14.23,14.23,0,0,1-1.45-6.14,15,15,0,0,1,1.16-5.82l.28-.64c.09-.19.22-.47.27-.55l.39-.76.75-1.43c.48-.93.92-1.79,1.28-2.57a11.14,11.14,0,0,0,1.23-3.9,9.79,9.79,0,0,0-.46-3.67,43.51,43.51,0,0,0-2.11-5.09c-.45-1-.94-2.1-1.41-3.31-.23-.61-.47-1.23-.67-1.9l-.29-.94-.27-.95a20.83,20.83,0,0,1-.73-4.88,13.22,13.22,0,0,1,.44-3.57A10.76,10.76,0,0,1,235,414c.33-.13.72-.27,1-.36l.66-.18,1.33-.32a20.79,20.79,0,0,1,5.38-.26,23.52,23.52,0,0,1,9.3,2.88,34.35,34.35,0,0,1,7,5.14c.52.49,1,1,1.5,1.5s1,1.09,1.37,1.56c.86,1,1.6,1.94,2.34,2.89l3.89,5.14a35.18,35.18,0,0,0,3.27,3.75,12.11,12.11,0,0,0,1.46,1.2l1.93,1.37c1.51,1.07,3.36,2.31,5.47,4a39.5,39.5,0,0,1,3.28,2.92c.56.55,1.1,1.18,1.65,1.82s1.07,1.35,1.54,2a47.83,47.83,0,0,1,4,7.19c.93,2,1.66,3.41,2.09,4.37l.25.58a3.19,3.19,0,0,0,.12.45c.06.29.09.56.18.86a2.59,2.59,0,0,0,.49,1,4.8,4.8,0,0,0,1.24,1.14,14.53,14.53,0,0,0,4.6,1.83c1.9.45,4.05.71,6.39,1.15a42.15,42.15,0,0,1,7.53,2,24.93,24.93,0,0,1,7.63,4.47c1.09,1,1.89,1.84,2.52,2.5a17.12,17.12,0,0,0,1.38,1.38,1.77,1.77,0,0,1,.26.23c0,.05.08,0,.12.12a.23.23,0,0,0,.23.1,2.89,2.89,0,0,0,.95-.57,9.51,9.51,0,0,0,1.24-1.5,17,17,0,0,0,2-4.38c.12-.41.22-.75.34-1.24l.33-1.48c.22-1,.41-2,.61-3,.38-2,.73-4,1-6a84.58,84.58,0,0,0-.21-24.15c-.29-2-.66-3.92-1.08-5.88a29.52,29.52,0,0,0-1.84-5.85c-1.7-3.87-4.29-7.66-5.87-11.84-.21-.5-.35-1.1-.52-1.54a8.08,8.08,0,0,1-.35-.73,12.25,12.25,0,0,1-.54-1.5c-.26-1-.51-2.06-.66-3.05s-.26-1.94-.35-2.91l-.08-.74c0-.2-.07-.49-.12-.73a3.52,3.52,0,0,0-.85-1.65,11.92,11.92,0,0,0-3.89-3.12,21.48,21.48,0,0,0-5.59-1.85c-1-.2-2.06-.34-3.13-.45-.53,0-1.08-.1-1.62-.13s-1-.06-1.55-.07q-3.07-.09-6.13-.06c-2,0-4.08.11-6.1.25s-4.05.31-6.05.6-4,.62-6.23.95a34.47,34.47,0,0,1-7.45.46,22.92,22.92,0,0,1-4.22-.66,16.81,16.81,0,0,1-4.41-1.88,17.57,17.57,0,0,1-3.76-3.07,14.91,14.91,0,0,1-2.86-4.48,12.89,12.89,0,0,1-.91-5.95,14.35,14.35,0,0,1,1.63-5.55,26,26,0,0,1,2.41-3.69l1-1.36.86-1.16a27.3,27.3,0,0,0,2.72-4.41,12.84,12.84,0,0,0,.72-1.93,7.88,7.88,0,0,0,.29-1.69c.08-1.08,0-2.83,0-5.31a28.43,28.43,0,0,1,.42-4.34,20.82,20.82,0,0,1,1.66-5.22c.22-.44.45-.88.69-1.31s.52-.86.8-1.28a24.56,24.56,0,0,1,1.79-2.25,29.36,29.36,0,0,1,3.64-3.3c2.27-1.75,4.22-2.89,5.32-3.78a3.69,3.69,0,0,0,.9-1.47,5.53,5.53,0,0,0,.25-1.95,7.28,7.28,0,0,0-.46-2.41c-.16-.47-.43-1.15-.75-1.93l-1.16-2.79a32.65,32.65,0,0,1-2.5-8.77,23.41,23.41,0,0,1-.17-2.95c0-.49,0-1,.06-1.59s.1-1.08.18-1.61a21.92,21.92,0,0,1,1.8-6,23.55,23.55,0,0,1,7.78-9.2,22,22,0,0,1,11.93-3.8,22.73,22.73,0,0,1,11.43,3,21.56,21.56,0,0,1,4.74,3.66,19.6,19.6,0,0,1,2,2.35,19.82,19.82,0,0,1,1.48,2.3c.7,1.31,1,2.09,1.12,2.28s-.48-.31-.71-.34c-.52-.13.08.37,1.16.44a11.41,11.41,0,0,0,6.93-1.7,19.14,19.14,0,0,0,3.52-2.62,20.39,20.39,0,0,0,1.59-1.63,22,22,0,0,0,1.44-1.85,40.19,40.19,0,0,0,4.72-9.46c1.29-3.55,2.35-7.45,3.4-11.49a60.19,60.19,0,0,0,2.1-11.07,23.45,23.45,0,0,0-.15-4.86,16,16,0,0,0-1.29-4.26,12.76,12.76,0,0,0-2.36-3.4,7.5,7.5,0,0,0-3.08-1.92,11.42,11.42,0,0,0-4.29-.49,46.73,46.73,0,0,0-5.65.72c-2.05.35-4.27.77-6.68,1a26.07,26.07,0,0,1-7.77-.31,19.46,19.46,0,0,1-7.52-3.37,21.53,21.53,0,0,1-5.4-5.75,22,22,0,0,1-3-7.19,19,19,0,0,1,0-7.92l.34-1.57a7.4,7.4,0,0,0,.25-1.26c.05-.43.14-.85.16-1.3l.06-1.34a32.13,32.13,0,0,0-.57-5.66c-.71-3.89-2-7.88-3.05-12.06a65.34,65.34,0,0,1-1.39-6.46c-.17-1.11-.27-2.2-.4-3.3s-.14-2.2-.21-3.3a61.56,61.56,0,0,1,10.87-37,61,61,0,0,1,3.91-5.14c.71-.83,1.33-1.62,2-2.43a28.19,28.19,0,0,0,1.88-2.47l1.73-2.58c.54-.89,1-1.81,1.53-2.72.25-.45.52-.9.74-1.37l.65-1.42c.4-1,.91-1.88,1.24-2.87l1.06-2.95c.33-1,.58-2,.87-3,.14-.51.29-1,.41-1.52l.31-1.54c.19-1,.44-2.06.56-3.1a63.1,63.1,0,0,0,.53-12.59,76.39,76.39,0,0,0-1.87-12.49c-.54-2-1-4.08-1.74-6.07-.33-1-.63-2-1-3-.2-.49-.42-1-.64-1.45-.11-.24-.21-.48-.3-.73s-.28-.45-.09-.82c.38.13.41.4.57.62l.4.7a11.8,11.8,0,0,1,.7,1.43c.44,1,.77,2,1.13,3,.77,2,1.32,4,1.93,6.09a75.86,75.86,0,0,1,2.2,12.63,63.57,63.57,0,0,1-.27,12.86c-.09,1.07-.33,2.13-.5,3.19l-.28,1.59c-.12.53-.26,1-.39,1.57-.28,1-.51,2.09-.83,3.12l-1,3.07c-.32,1-.81,2-1.21,3l-.64,1.49c-.22.49-.49,1-.73,1.44-.51,1-1,1.92-1.53,2.85l-1.74,2.73c-.55.94-1.27,1.75-1.9,2.62s-1.32,1.72-2,2.52a60.28,60.28,0,0,0-3.67,5,59.41,59.41,0,0,0-9,23,54.29,54.29,0,0,0,1.63,24.68c1.17,4,2.58,8,3.49,12.21a37.05,37.05,0,0,1,.86,6.39l0,1.63c0,.54-.08,1.08-.13,1.62a12.26,12.26,0,0,1-.25,1.61l-.29,1.56c-1.52,8,4.41,16.82,12.54,18.31,4.07.74,8.26-.2,12.37-1a57.08,57.08,0,0,1,6.28-1,18.3,18.3,0,0,1,6.38.46,13.76,13.76,0,0,1,5.62,3,18.17,18.17,0,0,1,3.92,5,22.9,22.9,0,0,1,2.16,6,28.65,28.65,0,0,1,.53,6.33,63.84,63.84,0,0,1-1.8,12.54c-.91,4.12-1.85,8.24-3.12,12.27a49.44,49.44,0,0,1-5.17,11.54,29.56,29.56,0,0,1-8.77,9,21.3,21.3,0,0,1-11.93,3.67,11.87,11.87,0,0,1-6.06-1.52c-1.87-1.09-2.85-3.1-3.92-4.88a11.91,11.91,0,0,0-10.63-5.72,11,11,0,0,0-5.91,2,12.35,12.35,0,0,0-4,4.81,11.51,11.51,0,0,0-1,6.18,25.35,25.35,0,0,0,1.7,6.08,54.87,54.87,0,0,1,2.1,6,17.44,17.44,0,0,1,.49,6.27,14.89,14.89,0,0,1-1.94,6A13.82,13.82,0,0,1,286,342c-1.76,1.16-3.64,2.13-5.38,3.33a12.78,12.78,0,0,0-4.32,4.54,15.83,15.83,0,0,0-1.54,6.09,50.82,50.82,0,0,1-.68,6.29c-.92,4.17-3.49,7.71-6.21,10.89a36.85,36.85,0,0,0-4,4.93,7,7,0,0,0-.64,6.07,10,10,0,0,0,4,4.78,12.59,12.59,0,0,0,6,1.93c4.23.37,8.41-.6,12.59-1s8.41-.73,12.63-.81,8.44.08,12.66.14,8.49.37,12.48,1.78a16.54,16.54,0,0,1,5.48,3.1,20.84,20.84,0,0,1,4.06,4.82A28.37,28.37,0,0,1,337,410.73c1.17,8.36,2.58,16.7,2.84,25.15a135,135,0,0,1-1.46,25.25,118.77,118.77,0,0,1-2.53,12.39,23.88,23.88,0,0,1-2.55,5.78,15,15,0,0,1-1.94,2.49,9.51,9.51,0,0,1-2.54,1.86,6.81,6.81,0,0,1-3.08.57,10.11,10.11,0,0,1-1.55-.3,8.92,8.92,0,0,1-1.44-.65c-1.84-1.07-3.26-2.67-4.93-4a16.91,16.91,0,0,0-5.62-2.83,32.7,32.7,0,0,0-6.22-1.11c-4.19-.42-8.46-.38-12.57-1.39a16.61,16.61,0,0,1-5.75-2.55,15.54,15.54,0,0,1-4.25-4.63c-2.22-3.61-3.43-7.73-5.78-11.25s-5.91-6-9.17-8.65a31,31,0,0,1-4.57-4.37,49.06,49.06,0,0,1-3.67-5.15c-2.27-3.55-4.3-7.3-7.15-10.42a23.84,23.84,0,0,0-4.85-4.05,14.88,14.88,0,0,0-5.88-2.19,11.08,11.08,0,0,0-3.15,0,4.92,4.92,0,0,0-2.85,1.23,4.32,4.32,0,0,0-1,2.93,12.8,12.8,0,0,0,.39,3.14c.88,4.15,3.14,7.82,4.32,11.88a16.36,16.36,0,0,1,.67,6.26,19.21,19.21,0,0,1-1.76,6.05c-.86,1.93-1.9,3.77-2.76,5.7a7.45,7.45,0,0,0,.2,6.13,10.17,10.17,0,0,0,4.65,4.14,50.57,50.57,0,0,0,5.85,2.4c2,.69,3.88,1.66,5.88,2.33s4,1.27,6.07,1.81a63.7,63.7,0,0,1,12,4,15.7,15.7,0,0,1,7.88,9.47,20,20,0,0,1-.05,12.44,17,17,0,0,1-1.33,2.87,10.65,10.65,0,0,1-1.93,2.5,8.88,8.88,0,0,1-5.61,2.62,10.63,10.63,0,0,1-6-1.7,32,32,0,0,1-4.77-4.16,11.64,11.64,0,0,0-2.56-1.84,15,15,0,0,0-3-1.08,7.39,7.39,0,0,0-3.14-.08,8,8,0,0,0-2.88,1.27c-1.72,1.17-3.27,2.79-5.39,3.21s-4.2-.31-6.18-1a26.44,26.44,0,0,0-3-.88,6.76,6.76,0,0,0-3.13,0,6.43,6.43,0,0,0-2.7,1.58,26.26,26.26,0,0,0-2.14,2.33,13.18,13.18,0,0,1-11,5.23,11,11,0,0,1-6-1.86,10.46,10.46,0,0,1-1.24-1,11.79,11.79,0,0,1-1.05-1.18c-.63-.85-1.13-1.78-1.76-2.63a11.59,11.59,0,0,0-4.78-4,16,16,0,0,0-3-1,11.88,11.88,0,0,0-1.55-.33,13.94,13.94,0,0,0-1.56-.22c-4.22-.47-8.44.3-12.57,1.07s-8.35,1.53-12.57,1.14a19.14,19.14,0,0,1-11.47-4.78,13.89,13.89,0,0,1-3.48-5.23,19.79,19.79,0,0,1-1.27-6.17c-.19-4.23.51-8.43,1-12.61.27-2.09.4-4.2.57-6.3l.49-6.32c.31-4.2.76-8.41.7-12.63a27,27,0,0,0-.77-6.27,12,12,0,0,0-2.88-5.55,7.7,7.7,0,0,0-2.68-1.63,14.83,14.83,0,0,0-3.1-.63c-2.09-.21-4.22-.19-6.3-.55a21,21,0,0,1-6-2,13.94,13.94,0,0,1-4.83-4,25.66,25.66,0,0,1-2.64-5.73c-.76-1.94-1.6-4-3.34-5.27a6.8,6.8,0,0,0-1.36-.79,13.26,13.26,0,0,0-1.52-.45,29.8,29.8,0,0,0-3.12-.5,26.67,26.67,0,0,1-6.21-1.14,10.33,10.33,0,0,1-2.75-1.54,12.13,12.13,0,0,1-2.17-2.3,17.72,17.72,0,0,1-2.41-5.82A62.34,62.34,0,0,1,101,390.78c-.12-4.22,0-8.44-.07-12.66,0-2.11-.06-4.23-.2-6.33a51.1,51.1,0,0,0-.87-6.27c-1.51-8.3-3.34-16.55-4.62-24.89a111.75,111.75,0,0,1-1.38-25.24,176.08,176.08,0,0,1,3.76-25c.43-2.07.94-4.12,1.28-6.2a55.24,55.24,0,0,0,.58-6.3c.18-4.21,0-8.44.24-12.66a39.12,39.12,0,0,1,2.27-12.4,17.25,17.25,0,0,1,8.18-9.32,22.3,22.3,0,0,1,12.38-1.77c2.1.26,4.16.71,6.25,1a18,18,0,0,0,6.29,0,11.16,11.16,0,0,0,5.54-2.84,8,8,0,0,0,2.34-5.68,16.54,16.54,0,0,0-1.22-6.16,34.63,34.63,0,0,0-2.8-5.66c-4.32-7.25-10.93-12.93-14.65-20.6a25.23,25.23,0,0,1-2.54-12.29,30.88,30.88,0,0,1,3.27-12.15c3.77-7.59,9.76-13.89,16.56-18.87a70.07,70.07,0,0,1,10.92-6.39,93.14,93.14,0,0,1,11.73-4.75,96,96,0,0,1,12.27-3.14,105.92,105.92,0,0,1,12.57-1.5c4.21-.3,8.43-.5,12.61-1.08a54.7,54.7,0,0,0,6.2-1.2,37,37,0,0,0,6-2.12,33.81,33.81,0,0,0,10.1-7.46,72.66,72.66,0,0,0,7.74-10c4.54-7.12,9.31-14.08,14-21.12l3.51-5.27,1.75-2.64,1.84-2.58,7.34-10.31a14.38,14.38,0,0,1,4.52-4.4,10.94,10.94,0,0,1,6.15-1.22c4.22.29,8.26,2,12.5,1.68a26.33,26.33,0,0,0,11.84-4c3.61-2.24,6.32-5.58,8.83-8.94,1.27-1.69,2.52-3.39,3.9-5a22.93,22.93,0,0,1,4.66-4.3,16.63,16.63,0,0,1,5.81-2.47,10.53,10.53,0,0,1,6.23.49,3,3,0,0,1,1.9,2.37,5.52,5.52,0,0,1-.95,3,36.1,36.1,0,0,1-3.9,5c-2.79,3.16-6,6-8.14,9.65Z"/><path d="M494.93,326.68c-.18-1-.32-2-.54-3-.14-.48-.26-1-.43-1.45s-.39-.93-.6-1.38a15.88,15.88,0,0,0-3.78-4.65A30.18,30.18,0,0,0,479,310.56a31.4,31.4,0,0,0-5.81-1.25,20.27,20.27,0,0,0-5.81.33,43.84,43.84,0,0,0-11.12,4.21c-3.56,1.89-7.36,3.64-10.08,6.11a15.09,15.09,0,0,0-4.63,9.62,39,39,0,0,0,.65,11.54c.71,3.86,1.77,7.94,2.3,12.18a32.55,32.55,0,0,1-.66,13.36,19.6,19.6,0,0,1-3.28,6.45A18.7,18.7,0,0,1,435,377.9a23.72,23.72,0,0,1-13.92,2.75,25.22,25.22,0,0,1-3.54-.62,20.9,20.9,0,0,1-3.53-1.18,12.66,12.66,0,0,1-3.66-2.4,10.83,10.83,0,0,1-2.6-4,27.22,27.22,0,0,1-1.26-7.12c-.19-2.06-.37-4.16-.47-6.32,0-1.08-.07-2.17-.06-3.28,0-.25,0-.58,0-.91s0-.64.06-1c.06-.64.14-1.24.23-1.83.37-2.34.89-4.29,1.08-5.93.05-.41.08-.8.1-1.18a4,4,0,0,0-.06-.7,4.28,4.28,0,0,0-.48-1.44,9.91,9.91,0,0,0-2.61-3.07,20,20,0,0,0-8.72-3.95,13.82,13.82,0,0,0-4.4-.16,5,5,0,0,0-2.71,1.1c-.06.07-.11.1-.19.18l-.3.34a2.85,2.85,0,0,0-.25.32,1.94,1.94,0,0,0-.2.3,1.75,1.75,0,0,0-.31.79,2.74,2.74,0,0,0,.09.79,10.88,10.88,0,0,0,.63,1.7c.62,1.45,1.71,3.26,2.69,5.85a16.39,16.39,0,0,1,1,4.74,12.87,12.87,0,0,1-1,5.71,15.54,15.54,0,0,1-7,7.46,25.64,25.64,0,0,1-7.8,2.6c-5,.87-9.39.63-12.88.95a19.91,19.91,0,0,0-4.48.81,8.68,8.68,0,0,0-3,1.61,2.93,2.93,0,0,0-1,1.57,5.1,5.1,0,0,0,.09,2.33,9,9,0,0,0,.52,1.54,10.37,10.37,0,0,0,.87,1.55c.74,1.14,1.88,2.51,3.27,4.29.35.45.71.91,1.07,1.42l.56.78.49.74,1.69,2.55,3.38,5.1a110.59,110.59,0,0,1,7,11.33,37.85,37.85,0,0,1,2.82,7.4,27.27,27.27,0,0,1,.84,8.84,41.25,41.25,0,0,1-1.44,7.71,45.59,45.59,0,0,0-1.16,5c0,.3-.07.59-.08.84s0,.46,0,.68,0,.45.05.68.08.47.12.7a9.31,9.31,0,0,0,1.15,2.79,8.47,8.47,0,0,0,4.3,3.66c1.67.63,4.53.83,8.39.72,1.93,0,4.12-.13,6.54-.08,1.21,0,2.5.09,3.84.22.65,0,1.36.18,2,.28a20,20,0,0,1,2.05.37,39.37,39.37,0,0,1,14.83,6.63,42.77,42.77,0,0,1,6,5.4,39.5,39.5,0,0,1,4.85,6.53,36.51,36.51,0,0,1,3.44,7.51c.49,1.36.78,2.6,1.05,3.63l.65,2.58a10.47,10.47,0,0,0,.46,1.41c.11.27.13.31.12.33s0,.2.76.47a8.15,8.15,0,0,0,1.38.34l.91.11.4,0H438a11.91,11.91,0,0,0,1.86-.17c.92-.13,2.18-.34,3.74-.46a24,24,0,0,1,2.59-.06,16.53,16.53,0,0,1,3.55.5,14.58,14.58,0,0,1,6.84,4,17,17,0,0,1,2,2.36c.25.36.49.72.69,1.05l.36.59a8.85,8.85,0,0,0,.83,1.2,9.54,9.54,0,0,0,2.42,2,13.41,13.41,0,0,0,3.39,1.35,22.84,22.84,0,0,0,8.92.05c.86-.13,1.73-.29,2.63-.48l1.55-.33c.65-.14,1.18-.23,1.77-.34,2.16-.37,4-.63,5.32-1a11.13,11.13,0,0,0,1.58-.5c.38-.15.54-.28.68-.33a1.14,1.14,0,0,0,.46-.6,2.06,2.06,0,0,0-.15-1.36,2.23,2.23,0,0,0-.43-.69c0-.05-.09-.09-.13-.15s-.21-.17-.31-.25a8.11,8.11,0,0,0-.73-.54,17.85,17.85,0,0,0-8.19-2.61,18.22,18.22,0,0,0-2.21,0l-3.08.18a42.52,42.52,0,0,1-7.27-.09,21.54,21.54,0,0,1-11.67-4.72,35.58,35.58,0,0,1-7.62-8.25,22.77,22.77,0,0,1-2-3.72,15,15,0,0,1-1.16-4.94,12.24,12.24,0,0,1,.24-3.08,11,11,0,0,1,1.21-3.11,11.16,11.16,0,0,1,2-2.51,13,13,0,0,1,2.24-1.67,18.34,18.34,0,0,1,4.06-1.7c.61-.19,1.2-.34,1.74-.47l1.52-.36,11.94-2.82c3.94-.89,7.13-1.84,8.84-3.52a9.77,9.77,0,0,0,2.93-7.42,8.57,8.57,0,0,0-1-3.89,13.86,13.86,0,0,0-3-3.61,52.28,52.28,0,0,0-4.5-3.48L469.79,421c-.9-.66-1.78-1.39-2.64-2.16a25.12,25.12,0,0,1-4.68-5.47,16.68,16.68,0,0,1-1.64-3.55,13.87,13.87,0,0,1,1.47-11.57,22.7,22.7,0,0,1,4.56-5.36,48,48,0,0,1,5.17-4,42.16,42.16,0,0,1,5.6-3.32,21.27,21.27,0,0,1,6.62-2.06,13.14,13.14,0,0,1,3.79.19,10.35,10.35,0,0,1,3.55,1.63c2.11,1.59,3.18,3.56,4.35,5a8.74,8.74,0,0,0,1.76,1.78,3.68,3.68,0,0,0,1,.47l.58.17.29.09.28,0,.56.06.53-.07.26,0,.24-.1a5.21,5.21,0,0,0,.5-.2,4.85,4.85,0,0,0,1.65-1.66,13.13,13.13,0,0,0,1.58-5.29,17.2,17.2,0,0,0,0-2.87,10.84,10.84,0,0,0-.21-1.39c-.11-.48-.22-1-.35-1.44a37.35,37.35,0,0,0-2.1-5.61c-1.67-3.68-3.7-7.28-5.22-11.11a35.46,35.46,0,0,1-2.57-12c-.4-8.2,1-16.35.24-24.52Zm0,0c.86,8.16-.6,16.34-.06,24.51a35,35,0,0,0,2.74,11.88c1.61,3.77,3.75,7.27,5.55,10.93a40.46,40.46,0,0,1,2.33,5.67,16.09,16.09,0,0,1,.77,6.05,14.33,14.33,0,0,1-1.56,5.88,6.35,6.35,0,0,1-2.06,2.22,4.37,4.37,0,0,1-.69.33l-.35.16-.37.07c-.25,0-.5.1-.76.13l-.76,0a6.92,6.92,0,0,1-2.91-.86,9.64,9.64,0,0,1-2.27-2.05c-1.32-1.54-2.44-3.31-4.14-4.49a8.12,8.12,0,0,0-2.81-1.18,10.06,10.06,0,0,0-3.05,0,18,18,0,0,0-5.75,2,39.93,39.93,0,0,0-5.16,3.3,45.28,45.28,0,0,0-4.74,3.88,20.13,20.13,0,0,0-3.83,4.75,11.09,11.09,0,0,0-1.51,5.87,11.28,11.28,0,0,0,1.93,5.74,21.22,21.22,0,0,0,4.11,4.51c3.13,2.64,6.8,4.55,9.92,7.2a18.54,18.54,0,0,1,4,4.56,13,13,0,0,1,1.82,5.8,14.39,14.39,0,0,1-.8,6,13.51,13.51,0,0,1-3.18,5.17,15,15,0,0,1-5.12,3.3,47.81,47.81,0,0,1-5.85,1.84L458.61,453a22,22,0,0,0-5.75,2.05,6,6,0,0,0-2.16,2.14,5.21,5.21,0,0,0-.62,2.95,11.9,11.9,0,0,0,2.25,5.63,27.59,27.59,0,0,0,4,4.61,23.64,23.64,0,0,0,4.94,3.61,16.26,16.26,0,0,0,5.89,1.58,35.76,35.76,0,0,0,6.12-.08,46.31,46.31,0,0,1,6.12-.34,25.09,25.09,0,0,1,11.68,3.31,15.58,15.58,0,0,1,2.46,1.81,10,10,0,0,1,1.88,2.41,9.74,9.74,0,0,1,1.23,5.9A9,9,0,0,1,494,494a13,13,0,0,1-5.38,2.82c-2,.58-4,.91-6,1.31s-4,1-6,1.34a31.8,31.8,0,0,1-12.18.25,21.82,21.82,0,0,1-5.77-2,18.67,18.67,0,0,1-4.88-3.67,16.31,16.31,0,0,1-1.89-2.41,13.7,13.7,0,0,0-1.84-2.44,5.55,5.55,0,0,0-2.62-1.51,9.47,9.47,0,0,0-3.05-.13c-2,.19-4,.74-6.07.83a20.31,20.31,0,0,1-6.06-.79,11.29,11.29,0,0,1-5.17-3.16,13.75,13.75,0,0,1-2.78-5.41c-.59-1.95-1-4-1.65-5.9a26.86,26.86,0,0,0-2.56-5.55,30.44,30.44,0,0,0-19.32-14c-4-.93-8.14-.72-12.21-.67s-8.26,0-12.08-1.55c-7.63-3-12.58-11.76-11-19.88.71-4,2.45-7.82,2.82-11.91a23,23,0,0,0-2.56-11.84,107.49,107.49,0,0,0-6.21-10.57l-3.25-5.2c-1.09-1.73-2.12-3.5-3.36-5.13s-2.5-3.24-3.55-5a16.62,16.62,0,0,1-2.21-5.69,11.94,11.94,0,0,1,.34-6.05,10.5,10.5,0,0,1,3.58-4.88,16.15,16.15,0,0,1,5.47-2.69,26.9,26.9,0,0,1,6.05-.91c4.08-.22,8.19.08,12.24-.57a18.78,18.78,0,0,0,5.83-1.78,9.17,9.17,0,0,0,4.22-4.28,8,8,0,0,0-.08-6c-.67-1.93-1.67-3.72-2.44-5.62a10,10,0,0,1-.85-6,9.59,9.59,0,0,1,3.35-5,10.57,10.57,0,0,1,5.65-2.15,19.55,19.55,0,0,1,6.1.4A25,25,0,0,1,407.57,336a14.44,14.44,0,0,1,3.7,4.83,9.66,9.66,0,0,1,.64,6c-.31,2-.89,4-1.25,6a30.44,30.44,0,0,0-.33,6.11c0,2,.16,4.08.29,6.12a23.28,23.28,0,0,0,.88,6.05,6.76,6.76,0,0,0,1.6,2.57,8.86,8.86,0,0,0,2.53,1.7,20.83,20.83,0,0,0,17.76-.44,15.52,15.52,0,0,0,4.72-3.84,16.68,16.68,0,0,0,2.87-5.37,29.77,29.77,0,0,0,.84-12.14c-.4-4.07-1.33-8.06-2-12.1a41,41,0,0,1-.34-12.21,19.6,19.6,0,0,1,1.8-5.84,15.85,15.85,0,0,1,3.74-4.82,27.93,27.93,0,0,1,5.13-3.35c1.81-.94,3.65-1.85,5.49-2.73a45.23,45.23,0,0,1,11.55-4,20.93,20.93,0,0,1,6.12-.17,31.36,31.36,0,0,1,5.95,1.47,30.62,30.62,0,0,1,10.58,6.06,16.16,16.16,0,0,1,3.71,4.85c.2.47.38.95.57,1.42s.26,1,.4,1.49c.18,1,.3,2,.45,3Z"/><path d="M366.75,125.49a4.71,4.71,0,0,0-1.28.45,1.68,1.68,0,0,0-.72.81,3.39,3.39,0,0,0,.05,2.06,6,6,0,0,0,.42,1.06c.08.18.18.34.27.5l.15.24.17.32a12.82,12.82,0,0,1,1.3,3,7.31,7.31,0,0,1,.24,2.19,6.09,6.09,0,0,1-.8,2.69,6.74,6.74,0,0,1-2.08,2.2,9.51,9.51,0,0,1-2.33,1.1,33.66,33.66,0,0,1-3.49.84c-1,.19-2,.37-3.18.48a19.13,19.13,0,0,1-7.65-.63,15.33,15.33,0,0,1-4.31-2.07,17.13,17.13,0,0,1-3.68-3.48l-.72-1-.36-.51-.37-.65a15.47,15.47,0,0,1-1.18-2.83,14.11,14.11,0,0,1-.33-6.89,13.25,13.25,0,0,1,1.48-3.86,14.13,14.13,0,0,1,2.44-3.11,15,15,0,0,1,2.6-2,17.53,17.53,0,0,1,2.29-1.23c.71-.31,1.34-.57,1.91-.77s1-.33,1.54-.48a19.7,19.7,0,0,1,3.14-.57,55.21,55.21,0,0,1,6.43-.08,60.64,60.64,0,0,1,6.34.5,53,53,0,0,1,6.17,1.23c.94.25,2,.53,3.05.85s2.1.69,3.27,1.19a16.87,16.87,0,0,1,1.91,1,9.9,9.9,0,0,1,1.17.88,5.65,5.65,0,0,1,1.36,1.74,4.27,4.27,0,0,1,.35,2.81,3.48,3.48,0,0,1-.39,1,5.28,5.28,0,0,1-.27.46,3.65,3.65,0,0,1-.41.54,4.08,4.08,0,0,1-1.56,1,4.61,4.61,0,0,1-1.18.26,12.29,12.29,0,0,1-3.27-.33c-1-.16-2-.35-2.92-.49a33.38,33.38,0,0,0-5.57-.52Zm0,0a43.36,43.36,0,0,0,10.95-1.07,2.49,2.49,0,0,0,1.16-.71,1.21,1.21,0,0,0,.12-1.3,2.27,2.27,0,0,0-1.08-.82,7.38,7.38,0,0,0-1.31-.41,28,28,0,0,0-5.48-.51,59.74,59.74,0,0,0-21.63,3.69,8.3,8.3,0,0,0-2.37,1.39,4.81,4.81,0,0,0-1.49,2.27,6.67,6.67,0,0,0,.92,5.28,9.2,9.2,0,0,0,4.06,3.6,15.57,15.57,0,0,0,5.34,1.27c.91.09,1.83.11,2.75.12a14.87,14.87,0,0,0,2.75-.13,3.53,3.53,0,0,0,2.34-1.3,3.82,3.82,0,0,0,.57-2.62c-.13-1.84-1.07-3.53-1-5.41a3.87,3.87,0,0,1,.84-2.58,2.32,2.32,0,0,1,1.19-.69,5.8,5.8,0,0,1,1.38-.11Z"/><path d="M440.88,538.34c.27,1.44.66,2.85.85,4.35a10.33,10.33,0,0,1,.06,2.3,6.46,6.46,0,0,1-.71,2.32,7.66,7.66,0,0,1-1.41,2,6.24,6.24,0,0,1-2.11,1.49,4.91,4.91,0,0,1-2.84.34,5.33,5.33,0,0,1-2.58-1.39,9.53,9.53,0,0,1-2.38-4.64,18.46,18.46,0,0,0-1.14-3.85,2.75,2.75,0,0,0-1.85-1.59,8.14,8.14,0,0,0-3.2.08c-1.26.21-2.62.57-4.17.89-1.71.33-3.07.48-4.49.72s-2.74.48-4,.81a27.71,27.71,0,0,0-3.66,1.24c-1.27.51-2.62,1.11-4.12,1.67a28.8,28.8,0,0,1-4.91,1.43,26.67,26.67,0,0,1-10.73.07,22.12,22.12,0,0,1-5.5-2,31.63,31.63,0,0,1-4.55-3c-2.69-2.08-4.83-4.1-6.78-5.48a13.68,13.68,0,0,0-2.69-1.56,11.07,11.07,0,0,0-2.57-.69c-1.06-.19-2.41-.35-4-.6a29.73,29.73,0,0,1-5.57-1.36,20.52,20.52,0,0,1-3.18-1.46,20.84,20.84,0,0,1-2.91-2,21.68,21.68,0,0,1-4.68-5.24,21.32,21.32,0,0,1-2.83-6.7,22.67,22.67,0,0,1-.39-7.35,32.7,32.7,0,0,1,3.79-11.64,32.12,32.12,0,0,1,3.14-4.85c.15-.2.28-.38.46-.59l.56-.66c.38-.43.76-.87,1.16-1.28a30.09,30.09,0,0,1,2.54-2.27,28.11,28.11,0,0,1,5.67-3.51,30.29,30.29,0,0,1,6.22-2,27.85,27.85,0,0,1,13,.49,25.52,25.52,0,0,1,6.2,2.63,35.91,35.91,0,0,1,4.69,3.42c2.59,2.24,4.56,4.25,6.2,5.62a17.11,17.11,0,0,0,2,1.44,3.45,3.45,0,0,0,1.09.52,2,2,0,0,0,.38.12,1.23,1.23,0,0,0,.59-.09,15,15,0,0,0,2.86-1.71c.67-.45,1.34-.91,2.29-1.49a24.12,24.12,0,0,1,2.67-1.37,31.8,31.8,0,0,1,5.18-1.73,45.62,45.62,0,0,1,10-1.29,49.12,49.12,0,0,1,19,3.84c.73.28,1.43.59,2.16.89s1.49.69,2.22,1.07a29.83,29.83,0,0,1,4.26,2.7,16.17,16.17,0,0,1,3.75,3.92,9.44,9.44,0,0,1,1.68,5.86,10.15,10.15,0,0,1-2.13,5.23A19.29,19.29,0,0,1,450,515.8c-1.21.92-2.39,1.77-3.47,2.67a12.36,12.36,0,0,0-2.8,3,19,19,0,0,0-1.76,3.88,29,29,0,0,0-1,4.24,35.9,35.9,0,0,0-.15,8.73Zm0,0a40.63,40.63,0,0,1,0-8.75,25.32,25.32,0,0,1,2.28-8.42c1.36-2.63,3.74-4.48,5.82-6.5a18.08,18.08,0,0,0,2.83-3.34,8,8,0,0,0,1.32-4.11,6.56,6.56,0,0,0-1.51-4,12.9,12.9,0,0,0-3.27-2.89,30.37,30.37,0,0,0-8-3.53A44.94,44.94,0,0,0,423,494.55a40.52,40.52,0,0,0-8.58,1.71,21.87,21.87,0,0,0-7.71,4.05,30.81,30.81,0,0,1-3.55,2.57,8.83,8.83,0,0,1-4.15,1.26,10,10,0,0,1-4.3-.65,19.09,19.09,0,0,1-3.87-2c-2.42-1.64-4.62-3.58-7-5.33a30.28,30.28,0,0,0-3.67-2.38,18.2,18.2,0,0,0-4.09-1.54,20,20,0,0,0-16.61,3.51,22.62,22.62,0,0,0-5.58,6.68,23.5,23.5,0,0,0-3.08,8.16,13,13,0,0,0,0,4.36A12.72,12.72,0,0,0,352.4,519a13.41,13.41,0,0,0,6.44,5.71c2.71,1.13,5.65,1.45,8.47,2.23a18.51,18.51,0,0,1,7.61,4.19c2.23,1.9,4.21,4.07,6.42,6a18.65,18.65,0,0,0,7.54,4.3,22.17,22.17,0,0,0,8.7.41,49.76,49.76,0,0,0,8.44-2.31c5.59-1.92,11.58-1.45,17.32-2.54a9.76,9.76,0,0,1,4.33.42,5.19,5.19,0,0,1,2.93,3.1,23.15,23.15,0,0,1,.92,4.28,7.74,7.74,0,0,0,1.69,4,4,4,0,0,0,1.83,1.13,3.81,3.81,0,0,0,2.14-.15,5.41,5.41,0,0,0,1.84-1.14,7,7,0,0,0,1.39-1.67,6,6,0,0,0,.78-2,10.5,10.5,0,0,0,.11-2.17c-.07-1.46-.34-2.9-.5-4.36Z"/></svg>