<svg id="Layer_1" data-name="Layer 1" xmlns="http://www.w3.org/2000/svg" viewBox="0 0 600 600"><title>dominca</title><path d="M366.84,124.34a18,18,0,0,0-2.29-4.65,15.06,15.06,0,0,0-3.67-3.63,27.19,27.19,0,0,0-4.45-2.52,33.76,33.76,0,0,0-4.77-1.78c-6.58-1.89-13.48-2.26-20.45-3.1-1.76-.2-3.52-.49-5.23-.73l-5.17-.73q-5.18-.74-10.36-1.39l-20.74-2.64-10.38-1.25-5.19-.63-2.6-.32-1.3-.16-1.52-.24a24.19,24.19,0,0,1-6.48-2,19.28,19.28,0,0,1-6.07-4.64,27.26,27.26,0,0,1-3.78-5.83c-.92-1.87-1.64-3.65-2.31-5.3l-.49-1.23c-.16-.39-.34-.85-.48-1.12-.3-.63-.55-1.27-.9-1.86l-.48-.91-.55-.87c-.34-.59-.76-1.14-1.14-1.7a30,30,0,0,0-5.75-5.85,41,41,0,0,0-15.36-7.16,63.4,63.4,0,0,0-17.36-1.63,60.31,60.31,0,0,0-8.55,1,26.08,26.08,0,0,0-6.82,2,7.45,7.45,0,0,0-1.78,1.23A8.76,8.76,0,0,0,189,66.48a14.82,14.82,0,0,0-1.79,6c-.08.6-.13,1.21-.16,1.83s0,1.34,0,1.75a20.17,20.17,0,0,0,.55,3.67c.63,2.93,1.95,6.7,2.42,11.54.06.6.09,1.22.11,1.86s0,1.27,0,1.92a16.53,16.53,0,0,1-.21,2.24,16.84,16.84,0,0,1-.52,2.34,20,20,0,0,1-4.18,7.48c-.41.47-.83.92-1.24,1.33l-.62.61-.31.29-.48.43a17,17,0,0,1-3.77,2.5c-2.33,1.13-4,1.66-5,2.11l-.62.28a3.36,3.36,0,0,0-.48.28,6.9,6.9,0,0,0-1,.78,3.64,3.64,0,0,0-1,1.38,1.34,1.34,0,0,0-.1.45,1.85,1.85,0,0,0,.08.59,2.46,2.46,0,0,0,.67,1.1,2.14,2.14,0,0,0,.51.33,6.48,6.48,0,0,0,1,.24,20.37,20.37,0,0,0,3.83,0c1.59-.13,3.4-.36,5.56-.43a21.86,21.86,0,0,1,7.72,1,15.31,15.31,0,0,1,4.33,2.29,17.11,17.11,0,0,1,3.37,3.38,18.86,18.86,0,0,1,3.42,8.69c.11.72.16,1.4.21,2.12s0,1.37,0,2a29.59,29.59,0,0,1-.35,3.92,31.85,31.85,0,0,1-2.14,7.4c-.28.61-.54,1.22-.88,1.84s-.7,1.26-1,1.75c-.64,1.08-1.32,2.07-2,3a61.11,61.11,0,0,1-4,4.92,67.22,67.22,0,0,0-5.42,6.39,15,15,0,0,0-2.05,4.7c0,.2-.1.39-.16.58a6.37,6.37,0,0,0-.11.63c0,.21-.09.41-.11.63l-.06.68c-.08.44-.05,1-.1,1.45s0,1.06,0,1.58a41.39,41.39,0,0,0,1.2,7.66c.16.69.36,1.41.58,2.15s.43,1.47.67,2.22.49,1.6.76,2.41l.83,2.47c1.09,3.31,2.28,6.58,3.44,9.86s2.32,6.57,3.54,9.83c4.78,13.09,9.85,26.08,14.62,39.17,1.17,3.28,2.39,6.54,3.51,9.83s2.17,6.23,3.15,8.4a21.67,21.67,0,0,0,1.37,2.77,11.7,11.7,0,0,0,.64,1c.2.29.43.58.72.95a12.66,12.66,0,0,1,2.14,3.11c.73,1.46,1.36,3.39,2.27,5.44a43,43,0,0,0,3.27,6.13,66.15,66.15,0,0,1,3.23,5.93c1,2,1.89,3.95,2.66,5.91s1.54,3.88,2.22,5.79c1.36,3.81,2.47,7.54,3.43,11.13l.7,2.66c.23.83.47,1.92.68,2.9s.38,1.89.58,2.84.32,1.76.46,2.62c.26,1.66.53,3.23.78,4.62.12.7.23,1.41.36,2l.19.93.2.81a24.89,24.89,0,0,0,.77,2.54,3.08,3.08,0,0,1,.16.38,2,2,0,0,0,.13.36c.1.15.13.42.21.5a.69.69,0,0,1,.08.23.7.7,0,0,1,.13.16c0,.18.23.25.35.41l.11.13.18.1a2.41,2.41,0,0,1,.36.23l.09.07s0,.05.26.12l.94.35,1.86.73a36.42,36.42,0,0,1,12.64,9A42.6,42.6,0,0,1,266.89,367a58.76,58.76,0,0,1,3.79,12.14,82.47,82.47,0,0,1,1.43,12l.07,3,0,3c-.06,1.91-.15,3.75-.29,5.57-.52,7.27-1.2,14.12-.95,20.6a51.19,51.19,0,0,0,3.33,17.34c.57,1.21,1,2.42,1.71,3.61s1.43,2.5,2.25,3.85l1.22,2.14c.23.36.2.88.47,1.21s.64.66,1,1c1.42,1.22,3.27,2.34,4.36,4.1a45.64,45.64,0,0,1,5.15,12.9,38.2,38.2,0,0,1,.83,7.58,59.57,59.57,0,0,1-.29,6.52c-.38,3.89-.78,7-.77,9.31a16.12,16.12,0,0,0,.23,2.79,20,20,0,0,0,.88,3c.43,1.15,1,2.43,1.68,3.89l1.08,2.3.58,1.25c.22.47.36.73.7,1.56a32,32,0,0,1,2.2,8.22,54.35,54.35,0,0,1,.44,6.57c0,1.85,0,3.39.1,4.6,0,.32,0,.59.07.85a7.09,7.09,0,0,0,.08.73c0,.21.08.53.12.8s.11.55.17.82a14.08,14.08,0,0,0,2,5,4.85,4.85,0,0,0,.64.76c.12.12.22.24.33.37a2.6,2.6,0,0,1,.32.26l.15.15.16.1a2.92,2.92,0,0,1,.29.23,6.19,6.19,0,0,0,.68.35,5.85,5.85,0,0,0,.82.32,8.82,8.82,0,0,0,1.09.21,14.13,14.13,0,0,0,2.91.08,40.27,40.27,0,0,0,7.93-1.52c1.36-.39,2.6-.78,3.89-1.27s2.52-1.05,3.82-1.54c2.57-1,5.4-1.88,8.11-3.16a22.33,22.33,0,0,0,3.89-2.22c.64-.46,1.14-.85,1.65-1.26s1-.9,1.49-1.42c4-4,7.62-10.25,13-16.47a52.51,52.51,0,0,1,4.48-4.47,38.15,38.15,0,0,1,5.34-3.87,35.21,35.21,0,0,1,12.81-4.52,36.87,36.87,0,0,1,6.76-.36l5.62.17a35.93,35.93,0,0,0,8.73-.42,9.25,9.25,0,0,0,2.67-1,8.78,8.78,0,0,0,1.92-1.3,17.4,17.4,0,0,0,3.26-3.89c.29-.4.53-.93.84-1.39s.58-1,.84-1.61c.57-1.11,1.18-2.37,1.88-3.66s1.51-2.71,2.39-4.14,1.92-3,2.91-4.5c2-3,4.12-6,5.83-9.13q1.27-2.34,2.31-4.75l1-2.42.91-2.45a102.57,102.57,0,0,0,2.86-10l2.56-10c1.63-6.55,2.89-13,2.56-19a35.15,35.15,0,0,0-1.53-8.67,80.23,80.23,0,0,0-3.53-8.85c-1.39-3.05-2.93-6.24-4.39-9.67-.72-1.73-1.43-3.51-2.06-5.39-.33-.93-.63-1.89-.9-2.87l-.21-.73c-.07-.24-.14-.58-.2-.86-.15-.6-.26-1.19-.35-1.79a33.7,33.7,0,0,1-.41-6.94,54.8,54.8,0,0,1,.63-6.2c.32-1.93.67-3.72,1-5.39l.45-2.46q.21-1.2.36-2.28a28.2,28.2,0,0,0,.29-3.83c0-.11,0-.32,0-.36l0-.25c0-.19,0-.42-.08-.74l-.35-2.42a30.82,30.82,0,0,1-.31-3.71,19.64,19.64,0,0,1,.56-5,22,22,0,0,1,1.58-4.3c.58-1.19,1.13-2.15,1.61-2.94a21.77,21.77,0,0,0,1.61-2.87,14,14,0,0,0,.69-3.06,64.49,64.49,0,0,0,.07-8.84l-.06-2.79v-2.76l0-5.15c0-3.36-.06-6.59-.32-9.68-.06-.77-.14-1.53-.22-2.28l-.13-1.13-.07-.55,0-.28,0-.1a4.23,4.23,0,0,0-.64-1.92,27.93,27.93,0,0,0-2.43-3.38,32.65,32.65,0,0,1-3.88-5.87c-.16-.32-.31-.64-.46-1L416,278c-.13-.36-.26-.73-.37-1.09l-.27-1.17-.22-1.17c-.05-.39-.08-.78-.11-1.17a13.63,13.63,0,0,1,0-2.3l.08-1.1c0-.37.07-.75.13-1,.1-.63.23-1.24.37-1.83a30,30,0,0,1,1-3.27c.75-2,1.55-3.7,2.23-5.2.33-.75.65-1.43.91-2.11s.54-1.36.78-2.07a51.46,51.46,0,0,0,2.17-9,97.52,97.52,0,0,0,1.07-9.78c.22-3.34.35-6.82.47-10.26s.18-6.73,0-9.94a38.33,38.33,0,0,0-1.6-9.16,25.73,25.73,0,0,0-1.74-4.11,16.06,16.06,0,0,0-2.48-3.46,13.86,13.86,0,0,0-7.19-4.2,13.39,13.39,0,0,0-2.1-.26c-.72,0-1.56,0-2.5.05a17.46,17.46,0,0,1-3.14-.16,9.1,9.1,0,0,1-1.73-.48,9,9,0,0,1-1.59-.78,7.31,7.31,0,0,1-2.6-2.72,8.36,8.36,0,0,1-1-3.35,19,19,0,0,1,.61-5.79c.41-1.77.91-3.45,1.34-5.1a21.65,21.65,0,0,0,.83-4.76,5.89,5.89,0,0,0-.08-1,4.22,4.22,0,0,0-.32-1,6.68,6.68,0,0,0-1.16-1.89,11.16,11.16,0,0,0-3.84-2.74c-1.5-.72-3.13-1.29-4.77-1.94s-3.23-1.4-4.81-2.17a23.79,23.79,0,0,1-8.45-6.32,13.45,13.45,0,0,1-1.39-2.26c-.41-.77-.76-1.58-1.1-2.38a45.94,45.94,0,0,1-1.71-4.95c-1.92-6.7-2.63-13.68-4.86-20.28Zm.09,0a77,77,0,0,1,3.1,10c.88,3.37,1.78,6.73,2.87,10a47.15,47.15,0,0,0,1.88,4.71c.35.76.71,1.51,1.13,2.23a12.18,12.18,0,0,0,1.32,2,22.28,22.28,0,0,0,8,5.56c1.55.7,3.15,1.39,4.72,2s3.29,1.1,5,1.84a13.57,13.57,0,0,1,4.72,3.16,9.44,9.44,0,0,1,1.64,2.46,6.79,6.79,0,0,1,.53,1.46,8.91,8.91,0,0,1,.19,1.51,22.75,22.75,0,0,1-.66,5.46c-.37,1.72-.78,3.4-1.1,5.07a16.82,16.82,0,0,0-.36,4.84A4.24,4.24,0,0,0,402,190a6,6,0,0,0,1,.45,5.2,5.2,0,0,0,1.05.26,12.53,12.53,0,0,0,2.38,0c.84-.06,1.72-.16,2.64-.18a17.22,17.22,0,0,1,2.78.16,18,18,0,0,1,9.71,4.85,20.71,20.71,0,0,1,3.44,4.21,30.29,30.29,0,0,1,2.38,4.81,42.09,42.09,0,0,1,2.42,10.32c.4,3.49.53,7,.58,10.48s.09,7,0,10.45c-.11,7-.62,14-2.59,20.75a50.87,50.87,0,0,1-1.73,5c-.65,1.61-1.32,3.21-1.88,4.85a17.46,17.46,0,0,0-1,5,10,10,0,0,0,1.12,4.94c1.59,3.06,4.31,5.39,6.2,8.34a13.49,13.49,0,0,1,2,4.82c.34,1.71.56,3.44.74,5.17.75,6.93.5,13.91.8,20.85a65.91,65.91,0,0,1,0,10.42,23.78,23.78,0,0,1-1.13,5.08,25.36,25.36,0,0,1-2.39,4.63,18.36,18.36,0,0,0-2.19,4.71,13.47,13.47,0,0,0-.1,5.18,31.18,31.18,0,0,1,.45,5.19,36,36,0,0,1-.57,5.18c-.62,3.42-1.49,6.79-2.16,10.21a31.93,31.93,0,0,0-.6,10.36c1.15,6.89,4.1,13.28,6.62,19.74a82.41,82.41,0,0,1,3.28,9.89,41.86,41.86,0,0,1,1.26,10.33c0,7-1.65,13.82-3.55,20.49s-4,13.32-6,20l-6,20c-2,6.62-3.84,13.47-7.72,19.3a22.34,22.34,0,0,1-7.47,7.13,20.4,20.4,0,0,1-10,2.66,57.37,57.37,0,0,1-10.37-1,43.55,43.55,0,0,0-10.37-.83,24.14,24.14,0,0,0-9.9,3,29.82,29.82,0,0,0-8,6.67c-4.55,5.29-7.57,11.66-12,17.06a47.38,47.38,0,0,1-7.5,7.21,58.41,58.41,0,0,1-8.74,5.68,58.43,58.43,0,0,1-19.82,6.13,26.68,26.68,0,0,1-5.21,0,18.7,18.7,0,0,1-5.06-1.16,18.29,18.29,0,0,1-8.14-6.29,26.23,26.23,0,0,1-4.19-9.48,45.11,45.11,0,0,1-.95-10.37c-.07-3.45-.28-7-1.64-10.23s-3-6.27-4.22-9.54a31.09,31.09,0,0,1-1.42-5,26.68,26.68,0,0,1-.39-5.2c.05-3.48.59-6.92.94-10.38a33.46,33.46,0,0,0-.24-10.38,35.68,35.68,0,0,0-3.8-9.68c-3.31-6.09-7.58-11.73-9.79-18.38s-2.86-13.63-2.83-20.57.63-13.89.84-20.84a82.5,82.5,0,0,0-.19-10.43A66.13,66.13,0,0,0,261,381.68a49.51,49.51,0,0,0-3.7-9.73,31.58,31.58,0,0,0-6.08-8.42,24.66,24.66,0,0,0-8.73-5.53l-2.48-.83-1.23-.41-.62-.2-.59-.29a13.3,13.3,0,0,1-2.27-1.27l-1.08-.73-1-.88a18.39,18.39,0,0,1-3.22-4.08,29.77,29.77,0,0,1-2.12-4.76,77.94,77.94,0,0,1-2.56-10.11c-.66-3.41-1.41-6.81-2.33-10.16s-1.86-6.7-3-10a68.66,68.66,0,0,0-4.17-9.55,49.46,49.46,0,0,0-5.88-8.59c-2.25-2.66-4.69-5.14-6.79-7.92a37.82,37.82,0,0,1-5-9.13c-1.28-3.24-2.27-6.58-3.28-9.9l-3-10L179.71,219.3l-6.07-20c-2-6.63-4.17-13.33-4.52-20.31a29.94,29.94,0,0,1,1.23-10.31,26.09,26.09,0,0,1,5-9.07,65,65,0,0,1,7.63-7.11,33.8,33.8,0,0,0,7.08-7.59,18.42,18.42,0,0,0,2.83-9.88,9.73,9.73,0,0,0-1.48-4.92,9.34,9.34,0,0,0-1.73-1.93,8.5,8.5,0,0,0-2.25-1.28,13.91,13.91,0,0,0-5.13-.69c-1.74,0-3.47.23-5.2.36a25.92,25.92,0,0,1-5.21,0,12.22,12.22,0,0,1-2.54-.61,9.4,9.4,0,0,1-2.28-1.26,9.12,9.12,0,0,1-3.36-9.3,10.71,10.71,0,0,1,2.5-4.53,14,14,0,0,1,4.13-3.16c1.56-.79,3.2-1.37,4.73-2.2a10.12,10.12,0,0,0,2.12-1.49,19.91,19.91,0,0,0,1.76-1.91,12.2,12.2,0,0,0,2.41-4.57,13.82,13.82,0,0,0,.15-5.17c-.45-3.45-1.71-6.72-2.69-10A28.4,28.4,0,0,1,177.54,72,25.35,25.35,0,0,1,180,62a17.78,17.78,0,0,1,3-4.28,17.29,17.29,0,0,1,4.13-3.19,33.21,33.21,0,0,1,9.84-3.35A61.3,61.3,0,0,1,207.3,50a62.17,62.17,0,0,1,20.58,2.89A49.07,49.07,0,0,1,246,63a37.42,37.42,0,0,1,6.7,8c.44.74.91,1.48,1.29,2.26l.59,1.16.53,1.2c.71,1.59,1.24,3.26,1.79,4.9,1.13,3.27,2.23,6.64,4.38,9.39a12.86,12.86,0,0,0,3.94,3.32A19.12,19.12,0,0,0,270.05,95c6.8,1.4,13.65,2.67,20.47,4,13.66,2.63,27.3,5.35,41,7.91,6.85,1.11,13.83,1.76,20.46,4a27.18,27.18,0,0,1,9.14,4.92,21.21,21.21,0,0,1,5.92,8.47Z"/></svg>