<svg id="Layer_1" data-name="Layer 1" xmlns="http://www.w3.org/2000/svg" viewBox="0 0 600 600"><title>DominicanRepublic</title><path d="M90.62,139.42a36.38,36.38,0,0,0-6.34.49,17.66,17.66,0,0,0-5.93,2.15,13.31,13.31,0,0,0-4.4,4.2,15.43,15.43,0,0,0-2.14,5.65,42,42,0,0,0,0,12.36,95.62,95.62,0,0,0,2.63,12.28c2.21,8.15,4.88,16.29,6,25.19a44.28,44.28,0,0,1,.29,6.85,25,25,0,0,1-1.44,7.14c-.77,2.22-1.67,4.19-2.31,6a15.9,15.9,0,0,0-1.12,4.95,4.16,4.16,0,0,0,.32,1.68,6.17,6.17,0,0,0,1,1.63A25.1,25.1,0,0,0,79,232c.69.74,1.49,1.58,2.28,2.51a25.65,25.65,0,0,1,2.31,3.17,20.63,20.63,0,0,1,1,2,15.61,15.61,0,0,1,.74,2.15,18,18,0,0,1,.65,4.39,22.06,22.06,0,0,1-.32,4.18,29.62,29.62,0,0,1-2.35,7.45c-.52,1.15-1.11,2.25-1.72,3.33l-1,1.57-.9,1.4c-2.38,3.69-4.67,7-6,10.15a15.33,15.33,0,0,0-1.25,8.77,116.19,116.19,0,0,0,2.65,11.55,61.92,61.92,0,0,1,1.36,7.13l.11,1,.08,1.13c.06.74,0,1.53,0,2.31a24.1,24.1,0,0,1-.62,4.79,26.26,26.26,0,0,1-3.85,8.7,44.33,44.33,0,0,1-5.16,6.16l-.64.64-.25.26-.18.22-.75.84a20.3,20.3,0,0,0-1.37,1.8,24.46,24.46,0,0,0-2.18,3.94A20.2,20.2,0,0,0,60,341.86a13.47,13.47,0,0,0,7,11.77c1.09.6,2.89,1.35,5.27,2.51a36.94,36.94,0,0,1,3.93,2.25l1.07.76,1.08.84c.67.59,1.35,1.2,2,1.83a26.73,26.73,0,0,1,5.86,9.1,34.86,34.86,0,0,1,2.12,9.18,94.64,94.64,0,0,1-.07,14.59,67.8,67.8,0,0,0-.15,10.82,15.22,15.22,0,0,0,.74,3.54,6.62,6.62,0,0,0,.54,1.19,7.06,7.06,0,0,0,.78,1.18c.77,1.05,2.19,2.6,3.94,4.9a31.63,31.63,0,0,1,2.73,4.24,24.52,24.52,0,0,1,2.22,5.89,27.26,27.26,0,0,1,.65,5.76c0,1.64-.07,3-.14,4.1s-.13,1.95-.13,2.51a10.25,10.25,0,0,0,.1,1.18,5.54,5.54,0,0,0,.72,1.95,10.54,10.54,0,0,0,1.83,2.29,21.64,21.64,0,0,0,3.11,2.46c.61.4,1.25.79,1.94,1.17.33.19.68.38,1,.56l.54.27.65.32a48.84,48.84,0,0,0,9.44,3.76,14.69,14.69,0,0,0,6.9.2,15.61,15.61,0,0,0,3.12-1.13,10.52,10.52,0,0,0,2.42-1.68,22.86,22.86,0,0,0,2.67-3c1-1.32,2.15-2.94,3.42-4.73l1.06-1.46c.37-.52.75-1,1.12-1.5.75-1,1.5-1.9,2.23-2.8l4.17-5a57.67,57.67,0,0,0,6.12-8.41,54.21,54.21,0,0,0,4.12-9.31,42.18,42.18,0,0,0,1.93-9.43,29.61,29.61,0,0,0-.64-8.72l-.6-2.22-.54-2c-.17-.71-.33-1.47-.48-2.2s-.28-1.57-.4-2.37c-.06-.42-.12-.8-.16-1.24l-.1-1.38-.07-1.38,0-1.58c0-.53,0-1,.09-1.6s.16-1.21.26-1.82a22.5,22.5,0,0,1,1.05-4,14.6,14.6,0,0,1,.95-2.18c.39-.76.77-1.48,1.24-2.21s1.09-1.47,1.69-2.17a14.3,14.3,0,0,1,1.95-1.94,27.19,27.19,0,0,1,2.19-1.69q1.08-.66,2.22-1.23a20.92,20.92,0,0,1,4.31-1.61c.34-.09.73-.21,1-.26l.9-.16c.61-.11,1.21-.19,1.82-.27l.89-.1.78,0,1.55,0a24.55,24.55,0,0,1,2.82.12,46.59,46.59,0,0,1,4.9.66,1.38,1.38,0,0,0,.3,0h.19l.38,0a3.09,3.09,0,0,0,.67,0,3.53,3.53,0,0,0,1.69-.32,6,6,0,0,0,1-.77A19.22,19.22,0,0,0,192,358a40.87,40.87,0,0,0,2.62-3.35c1.1-1.52,2.53-3.53,4.32-5.68a44.35,44.35,0,0,1,7.16-7,32.08,32.08,0,0,1,5.7-3.49,34,34,0,0,1,3.64-1.43,32.93,32.93,0,0,1,4.15-.94,28.08,28.08,0,0,1,4.39-.29,26.26,26.26,0,0,1,4.32.41,25.31,25.31,0,0,1,4.35,1.11,26.9,26.9,0,0,1,4.62,2.14,28,28,0,0,1,6.85,5.83,33.37,33.37,0,0,1,3.76,5.42c1.81,3.23,2.77,5.64,3.57,7.33a9.43,9.43,0,0,0,.88,1.64,4.85,4.85,0,0,1,.29.49c.12.16.26.3.37.47a13.92,13.92,0,0,0,4,3.6,10.7,10.7,0,0,1,2.7,1.84c.44.42.85,1,1.32,1.46l.72.8a9,9,0,0,0,.79.72,6.91,6.91,0,0,0,3.7,1.81c.67.18,1.34.18,2,.3s1.34.08,2,.14l2-.1c.7-.11,1.41-.13,2.11-.28l1.05-.21,1-.29c.71-.15,1.41-.43,2.11-.64a43.33,43.33,0,0,0,8.42-4.31,96.4,96.4,0,0,0,8.45-6.34c2.86-2.36,5.71-4.89,8.71-7.69l4.57-4.33,2.39-2.23,1.22-1.13,1.7-1.52a30.64,30.64,0,0,1,4.62-3.32A28.9,28.9,0,0,1,324,336.5a31.43,31.43,0,0,1,10.24-1.39,68.89,68.89,0,0,1,7.49.64l6.35.82,25.36,3.21c8.46,1,16.92,1.9,25.39,2.69,8.29.84,16.77,1.12,25.64,1.56l3.33.19,1.68.12,1.36.07c1.83.06,3.75,0,5.76,0,4-.13,8.43-.43,13.3-.25a50.92,50.92,0,0,1,15.2,2.74c1.24.44,2.44,1,3.64,1.48.59.27,1.05.81,1.66,1s1.25.39,1.89.56c2.56.65,5.39,1.06,7.5,2.53a50,50,0,0,1,5.67,4.87c.88.85,1.7,1.71,2.52,2.58s1.57,1.76,2.31,2.64,1.44,1.79,2.16,2.68,1.12,1.54,1.66,2.25a43.8,43.8,0,0,0,3,3.6c.92,1,1.67,1.61,2.06,2s.55.7,1.4.53c.19-.08.43-.16.63-.22l.16,0a.24.24,0,0,0,.16,0c.2,0,.36-.21.62-.55a9.54,9.54,0,0,0,.61-1.94c.21-.9.31-1.93.56-3.25.09-.59.29-1.36.44-2.05a17,17,0,0,1,.79-2.38,14.4,14.4,0,0,1,1.3-2.48c.27-.4.59-.78.9-1.17a7.16,7.16,0,0,1,1-1.07c.35-.33.71-.66,1.07-1s.7-.52,1.06-.77A11.16,11.16,0,0,1,511,356a10.52,10.52,0,0,1,1.1-.57,21.49,21.49,0,0,1,4.3-1.54,31.09,31.09,0,0,1,4-.72c1.25-.16,2.46-.31,3.6-.41l3.19-.29c1-.14,1.9-.3,2.79-.48a18.48,18.48,0,0,0,4.76-1.55,5.22,5.22,0,0,0,2.51-2.13,17.06,17.06,0,0,0,.4-2.34,16.57,16.57,0,0,0-.2-3.17,31.9,31.9,0,0,0-2.38-8.06,53.2,53.2,0,0,0-4.2-8.13,19.44,19.44,0,0,0-1.18-1.7,16.23,16.23,0,0,0-1.07-1.36c-.89-1-1.79-2.13-2.74-3.18s-2-2.08-3.06-3.12c-.52-.53-1.07-1-1.63-1.58a6.4,6.4,0,0,1-.76-.88,8.78,8.78,0,0,1-.73-1,22.83,22.83,0,0,1-2.31-5.07c-.66-2-1.4-4.13-2.26-6.23-.22-.53-.47-1-.72-1.52s-.51-1-.79-1.45a15.66,15.66,0,0,0-.9-1.34c-.31-.43-.63-.86-1-1.25a30.5,30.5,0,0,0-4.66-4,76.56,76.56,0,0,0-10.5-6.51,92.28,92.28,0,0,0-11.4-4.75c-3.89-1.36-7.84-2.55-11.8-3.66-2-.58-4-1-6-1.56s-4-.88-6-1.24A157.38,157.38,0,0,0,436.87,273c-8.15-.19-16.19-.14-24.24-.18-2,0-4.17,0-6.4-.08-1.11,0-2.26-.12-3.41-.2s-2.35-.27-3.55-.47a41.22,41.22,0,0,1-7.31-2,37.34,37.34,0,0,1-3.63-1.59l-.9-.45-.82-.46-1.62-.93a76.12,76.12,0,0,1-6.38-4.26,41.82,41.82,0,0,1-6.34-5.52,16.32,16.32,0,0,1-2.85-4.26,11.82,11.82,0,0,1-1.15-5.79,11.47,11.47,0,0,1,.5-2.81,13.71,13.71,0,0,1,.45-1.32c.21-.44.42-.87.64-1.3a12.1,12.1,0,0,1,4-4.12,15,15,0,0,1,4.49-1.88,22.22,22.22,0,0,1,4.08-.62,41.69,41.69,0,0,1,7.29.14c2.32.22,4.54.56,6.72.93s4.3.74,6.34,1.1c1,.17,2,.34,2.91.45l.64.07.54,0c.41,0,.84,0,1.28,0a36.25,36.25,0,0,0,5.42-.56,24.64,24.64,0,0,0,9.52-3.65,6.79,6.79,0,0,0,2.3-2.5,3.59,3.59,0,0,0,.23-2.33,3.47,3.47,0,0,0-.41-1.13,3.23,3.23,0,0,0-.69-.86,8.93,8.93,0,0,0-2.9-1.71,32.8,32.8,0,0,0-10-1.8,80.65,80.65,0,0,0-11.57.36c-3.87.37-7.84,1-12,1.66s-8.46,1.47-13,1.93a77.78,77.78,0,0,1-14.32.37,48.93,48.93,0,0,1-15.2-3.63,40.38,40.38,0,0,1-13.63-9.09,31.11,31.11,0,0,1-8.46-15.71,39.4,39.4,0,0,1-.67-8.21c0-2.47.18-4.69.27-6.68a40.31,40.31,0,0,0,0-5.16,10.19,10.19,0,0,0-.69-3.27,6.2,6.2,0,0,0-1.4-2,6.86,6.86,0,0,0-2.61-1.51,17.07,17.07,0,0,0-4.14-.81,28.84,28.84,0,0,0-5,.09,39,39,0,0,0-5.24.89l-1.34.33-1.49.4-3.08.83a86.79,86.79,0,0,1-13.71,2.81,38.65,38.65,0,0,1-7.9,0,26.72,26.72,0,0,1-8.16-2.25,27.77,27.77,0,0,1-6.83-4.52c-1.89-1.66-3.46-3.34-4.91-4.86-2.88-3.09-5.32-5.47-7.91-6.52a15.55,15.55,0,0,0-4.68-1.09,55.84,55.84,0,0,0-5.89-.13c-2.11,0-4.35.08-6.73-.05a28.58,28.58,0,0,1-7.41-1.29,22,22,0,0,1-3.64-1.62,25,25,0,0,1-3.12-2.1c-1.91-1.48-3.49-3-5-4.45a40.18,40.18,0,0,0-4.55-3.75,36.15,36.15,0,0,0-5.08-3,44.75,44.75,0,0,0-11.45-3.7,78.67,78.67,0,0,0-24.8-.22c-8.28,1.21-16.48,3.72-24.88,5.31a75.83,75.83,0,0,1-12.75,1.39,54.37,54.37,0,0,1-6.39-.34c-2.12-.22-4.24-.5-6.33-.85-8.39-1.35-16.73-3.31-25.27-3.18Zm0-.1a73.82,73.82,0,0,1,12.78.47c4.24.46,8.47,1.06,12.66,1.58,2.1.26,4.19.43,6.28.58a54.18,54.18,0,0,0,6.23.16A77.06,77.06,0,0,0,141,140.42c8.23-1.77,16.33-4.49,24.84-6a82.12,82.12,0,0,1,25.76-.7,49.76,49.76,0,0,1,12.51,3.49,41.33,41.33,0,0,1,11,7c3.22,2.78,6.33,5.66,10.25,6.79s8.17.86,12.4.63,8.68-.46,12.88,1a20,20,0,0,1,5.7,3.2,56.19,56.19,0,0,1,4.79,4.3c3,3,6.07,6,9.93,7.6a19.57,19.57,0,0,0,6,1.51,30.08,30.08,0,0,0,6.29-.16,76.58,76.58,0,0,0,12.34-2.93c2-.61,4.06-1.27,6.12-1.83a47.73,47.73,0,0,1,6.27-1.28,31.08,31.08,0,0,1,12.7.65,16.08,16.08,0,0,1,5.68,2.92,14.66,14.66,0,0,1,3.95,5,18.59,18.59,0,0,1,1.62,6.17,50.3,50.3,0,0,1,.13,6.38c-.11,4.24-.48,8.53.39,12.71a22.18,22.18,0,0,0,6.07,11,32.48,32.48,0,0,0,10.57,7,41.67,41.67,0,0,0,12.33,3,74.25,74.25,0,0,0,12.74-.12c8.47-.71,16.85-2.32,25.36-2.75a86,86,0,0,1,12.74.22,38,38,0,0,1,12.33,3,14.85,14.85,0,0,1,5.1,3.74,10.25,10.25,0,0,1,2.4,5.8,10,10,0,0,1-1.29,6.13,13.33,13.33,0,0,1-4.47,4.46,31.71,31.71,0,0,1-12,4.16,42.13,42.13,0,0,1-6.35.48,32.9,32.9,0,0,1-6.32-.78c-4.17-.79-8.34-1.66-12.58-2.08a36.52,36.52,0,0,0-6.36-.16,16.79,16.79,0,0,0-3.15.49,9.43,9.43,0,0,0-2.93,1.22,6.79,6.79,0,0,0-2.2,2.26,6.73,6.73,0,0,0,1.72,8.63,21,21,0,0,0,5.33,3.46,45,45,0,0,0,5.95,2.28,52.34,52.34,0,0,0,12.53,2.24c4.24.29,8.5.25,12.75.32a217,217,0,0,1,97.95,25,106,106,0,0,1,21.11,14.21,64.31,64.31,0,0,1,8.63,9.36,44,44,0,0,1,6.14,11.13,53.08,53.08,0,0,1,3,12.36,36.21,36.21,0,0,1-.52,12.67,20.28,20.28,0,0,1-2.37,5.9,14.76,14.76,0,0,1-4.28,4.65,18.4,18.4,0,0,1-5.86,2.44,35.34,35.34,0,0,1-6.31.86c-4.24.28-8.53-.23-12.72.61a11.39,11.39,0,0,0-5.69,2.68,2.76,2.76,0,0,0-.55.58c-.16.21-.34.4-.49.62a9.06,9.06,0,0,0-.73,1.42,12.57,12.57,0,0,0-.79,3.08,40.29,40.29,0,0,1-1.08,6.27,8.85,8.85,0,0,1-3.91,4.86c-.45.29-.94.5-1.41.75s-1,.34-1.51.51-1,.19-1.58.22a10.62,10.62,0,0,1-1.59-.06,14.74,14.74,0,0,1-5.91-2.24c-3.64-2.23-6.56-5.4-9.62-8.33a82,82,0,0,0-9.79-8.15,49.72,49.72,0,0,0-5.44-3.32,42,42,0,0,0-5.83-2.57,44.64,44.64,0,0,0-12.46-2.5c-34-1.24-67.92-3.7-101.86-5.75l-6.37-.4c-2.12-.13-4.24-.25-6.37-.19a20.17,20.17,0,0,0-6.26,1.07A15.31,15.31,0,0,0,323,352c-6,6-11.63,12.42-18.05,18s-13.48,10.53-21.5,13.44a45,45,0,0,1-12.45,2.6,41.75,41.75,0,0,1-12.64-1.3,39.35,39.35,0,0,1-11.62-5.12,31.6,31.6,0,0,1-9-8.91c-.29-.44-.6-.88-.87-1.33l-.74-1.41a30.45,30.45,0,0,1-1.36-2.89c-.83-2-1.61-3.94-2.63-5.8a12.41,12.41,0,0,0-4.12-4.76,8.66,8.66,0,0,0-3-1.09,9.92,9.92,0,0,0-3.17-.1,12.71,12.71,0,0,0-5.79,2.49,30.26,30.26,0,0,0-4.65,4.33c-1.42,1.58-2.74,3.25-4.09,4.9a51.72,51.72,0,0,1-4.32,4.68,22.25,22.25,0,0,1-11,6.09,20.88,20.88,0,0,1-6.36.18c-2.12-.21-4.17-.85-6.28-1a11.64,11.64,0,0,0-6.24.71l-.71.35-.62.5a5.9,5.9,0,0,0-1.07,1.16,8,8,0,0,0-1.13,2.95,18.7,18.7,0,0,0,.15,6.33l.3,1.57.38,1.55c.24,1,.5,2.06.71,3.11a44.32,44.32,0,0,1,.48,12.7,55.72,55.72,0,0,1-2.8,12.42,68.44,68.44,0,0,1-5.33,11.57,70.29,70.29,0,0,1-7.59,10.24c-2.76,3.23-5.58,6.41-8.06,9.87s-4.92,7-8.14,9.79a25,25,0,0,1-11.35,5.55,27.56,27.56,0,0,1-12.64-.48,62,62,0,0,1-11.82-4.76,38.91,38.91,0,0,1-10.47-7.2,19.9,19.9,0,0,1-5.89-11.09c-.72-4.24.71-8.52-.21-12.71a15,15,0,0,0-2.82-5.65c-1.26-1.71-2.68-3.29-3.93-5a20.09,20.09,0,0,1-2.92-5.65,27.68,27.68,0,0,1-1.23-6.25c-.71-8.52,1.31-17,.67-25.47a23.47,23.47,0,0,0-1.31-6.21,15.16,15.16,0,0,0-3.33-5.36,18.8,18.8,0,0,0-5.16-3.67c-1.88-1-3.84-1.83-5.68-2.91a24.92,24.92,0,0,1-8.77-9.07A24.05,24.05,0,0,1,50,341.54a31.77,31.77,0,0,1,10.87-22.36,34.74,34.74,0,0,0,4.27-4.72,17.2,17.2,0,0,0,2.75-5.68,17.87,17.87,0,0,0,.44-6.31,58.39,58.39,0,0,0-1-6.3,105,105,0,0,1-2.18-12.56,22.82,22.82,0,0,1,2.63-12.34,86.6,86.6,0,0,1,7.06-10.62,29.71,29.71,0,0,0,5.57-11.34,17.48,17.48,0,0,0,.37-3.15,13.27,13.27,0,0,0-.36-3.14,14.48,14.48,0,0,0-2.91-5.59c-1.29-1.69-2.81-3.19-4-5a9.2,9.2,0,0,1-1.73-6c.43-4.3,2.74-8,4.3-12a21.48,21.48,0,0,0,1.52-6.16,39.72,39.72,0,0,0,0-6.36c-.67-8.49-3.09-16.7-5-25a97.08,97.08,0,0,1-2.21-12.56,42.65,42.65,0,0,1,.45-12.71,16.3,16.3,0,0,1,2.47-5.85,13.07,13.07,0,0,1,4.84-4.08,21.21,21.21,0,0,1,6.07-1.89,52,52,0,0,1,6.35-.65Z"/><path d="M533.57,398.75c-4.44-.6-8.84-1.14-13.25-1.38-2.2-.14-4.4-.23-6.59-.24-2.35-.05-4.49-.26-6.68-.3a37.32,37.32,0,0,0-6.25.28,6,6,0,0,0-2.24.7c-.19.14-.1.13-.19.25a1.83,1.83,0,0,0,0,.59,6.42,6.42,0,0,0,.72,2.23,13.47,13.47,0,0,0,1.51,2.36,11.47,11.47,0,0,0,4.36,3.24,22.69,22.69,0,0,0,5.75,1.69,39.25,39.25,0,0,0,6.25.56,60,60,0,0,0,6.41-.24c1-.09,2.32-.23,3.42-.25l3.29-.13c1.08-.06,2.15-.14,3.17-.28a10.24,10.24,0,0,0,2.61-.64l.17-.09.22-.18a3.15,3.15,0,0,0,.37-.35,1.4,1.4,0,0,0,.31-.72,3.31,3.31,0,0,0-.89-2.15,16.33,16.33,0,0,0-4.85-3.93,19.81,19.81,0,0,0-2.95-1.38,7.47,7.47,0,0,0-3.21-.58,7.32,7.32,0,0,1,3.39-.15,19.48,19.48,0,0,1,3.34.85,18.69,18.69,0,0,1,3.17,1.43,13.52,13.52,0,0,1,2.93,2.12,7.16,7.16,0,0,1,1.24,1.55,4.69,4.69,0,0,1,.7,2.19,4.27,4.27,0,0,1-.6,2.43,5.47,5.47,0,0,1-.69.93l-.39.4-.5.39a8.13,8.13,0,0,1-1.91.93c-.61.21-1.21.36-1.79.5-1.17.27-2.32.45-3.45.62l-3.36.42c-1.13.12-2,.26-3.22.45a54.58,54.58,0,0,1-6.92.61A33.12,33.12,0,0,1,502.84,411a16.4,16.4,0,0,1-6.17-4.76,19,19,0,0,1-2-3.31,10.35,10.35,0,0,1-1.08-4.16,6.31,6.31,0,0,1,.53-2.66,5.7,5.7,0,0,1,.85-1.28,5,5,0,0,1,1.15-.93,9.85,9.85,0,0,1,4.11-1.18,33.79,33.79,0,0,1,7.08.2c2.26.26,4.53.62,6.63.92s4.48.64,6.69,1.08A76.5,76.5,0,0,1,533.57,398.75Z"/></svg>