<svg id="Layer_1" data-name="Layer 1" xmlns="http://www.w3.org/2000/svg" viewBox="0 0 600 600"><title>grenada</title><path d="M400.9,107.79a83.79,83.79,0,0,0,9.72-4.84,28.69,28.69,0,0,0,8.09-7,19.24,19.24,0,0,0,2.59-4.56,26.28,26.28,0,0,0,1.34-5.07c.56-3.5.63-7.1,1-10.79a59,59,0,0,1,6.6-21.34l.68-1.24.7-1.22a11.27,11.27,0,0,1,2.09-2.7,6.23,6.23,0,0,1,4.09-1.62A6.56,6.56,0,0,1,442,48.88a9.79,9.79,0,0,1,2.4,2.89c.54.95.95,1.88,1.33,2.68a35.42,35.42,0,0,1,2,5.58c1,3.69,1.63,7.29,2.64,10.41a19.83,19.83,0,0,0,1.87,4.24,12.24,12.24,0,0,0,1.23,1.71A14.74,14.74,0,0,0,455,77.93a54.84,54.84,0,0,1,4.28,3.95A15.53,15.53,0,0,1,461.43,85a12.76,12.76,0,0,1,1.29,4,15.66,15.66,0,0,1-.87,7.61,25.34,25.34,0,0,1-3.14,6c-2.39,3.39-4.71,6-5.72,8.36a11.43,11.43,0,0,0-.88,3.47,23.18,23.18,0,0,0,0,4.16c.07.75.16,1.52.27,2.32l.38,2.53a26.35,26.35,0,0,1,.25,7.09,16.46,16.46,0,0,1-1.27,4.67c-.2.4-.4.81-.62,1.21s-.49.79-.76,1.18a16.13,16.13,0,0,1-1.76,2,15,15,0,0,1-4.46,2.94,17.16,17.16,0,0,1-4.55,1.24,25.51,25.51,0,0,1-7.46-.19c-1.09-.16-2.09-.37-3-.59s-1.79-.41-2.69-.65c-1.77-.44-3.39-.91-5-1.28a39.87,39.87,0,0,0-4.41-.82,16,16,0,0,0-3.64,0,6.38,6.38,0,0,0-2.57.8c-.18.12-.35.26-.55.37a2.65,2.65,0,0,0-.53.45,12.44,12.44,0,0,0-1.31,1.65c-.5.71-1.08,1.56-1.79,2.49a18.93,18.93,0,0,1-1.25,1.47,15.66,15.66,0,0,1-1.52,1.4,12.12,12.12,0,0,1-4,2.18,9.41,9.41,0,0,1-2.64.42,8.7,8.7,0,0,1-2.71-.37,11,11,0,0,1-3.7-2c-.43-.35-.8-.67-1.12-.95l-.39-.34-.27-.24a2.77,2.77,0,0,0-.89-.54,1.86,1.86,0,0,0-1.06,0,8.54,8.54,0,0,0-3.3,2.26c-.56.57-1.14,1.18-1.68,1.85a29.9,29.9,0,0,1-2,2.25,14.58,14.58,0,0,1-5.44,3.66,8.73,8.73,0,0,1-3.68.45,4.89,4.89,0,0,1-2.28-.85,4.19,4.19,0,0,1-1-1,4.56,4.56,0,0,1-.55-1.14,10.26,10.26,0,0,1-.31-3.28,24.19,24.19,0,0,1,.15-2.95,23.51,23.51,0,0,1,4-10.93,11.24,11.24,0,0,1,2.13-2.3,8.45,8.45,0,0,1,2.91-1.48,19.4,19.4,0,0,1,5.81-.44,23.77,23.77,0,0,0,2.57-.07,7,7,0,0,0,2.19-.61c1.4-.63,2.61-1.81,2.68-3a2.37,2.37,0,0,0-.62-1.69,3.91,3.91,0,0,0-1.86-1c-1.57-.44-3.4-.5-5.26-.81a10.26,10.26,0,0,1-2.83-.83,9.06,9.06,0,0,1-2.44-1.7,8.85,8.85,0,0,1-2.68-5.15c-.06-.48-.08-.94-.12-1.42s0-1,0-1.43a6.62,6.62,0,0,1,.87-2.82,4.14,4.14,0,0,1,2.45-1.67,9.92,9.92,0,0,1,2.8-.26c1.85.07,3.63.43,5.43.51a28.9,28.9,0,0,0,5.42-.21A39.35,39.35,0,0,0,400.9,107.79Zm0,.1c-1.68.69-3.38,1.32-5.12,1.84a35.5,35.5,0,0,1-5.3,1.25,30.85,30.85,0,0,1-5.44.39c-1.82,0-3.64-.23-5.42-.19a8.75,8.75,0,0,0-2.58.39,3.3,3.3,0,0,0-1.87,1.45,7.76,7.76,0,0,0-.29,5,7.93,7.93,0,0,0,2.47,4.22,7.67,7.67,0,0,0,2.06,1.31,8.7,8.7,0,0,0,2.4.59,52.8,52.8,0,0,1,5.51.62,6,6,0,0,1,2.89,1.49,4.52,4.52,0,0,1,1.32,3.25,5.14,5.14,0,0,1-1.31,3.18,8.35,8.35,0,0,1-2.51,1.94,9.47,9.47,0,0,1-3,1,22.15,22.15,0,0,1-2.87.17,17.92,17.92,0,0,0-5,.5,6.24,6.24,0,0,0-3.36,2.78,19.26,19.26,0,0,0-2.87,9.47,20.71,20.71,0,0,0,.07,2.49A7.46,7.46,0,0,0,371,153c.08.14.06,0,.06,0s.11,0,.27,0a4.69,4.69,0,0,0,1.66-.43,9.18,9.18,0,0,0,3.17-2.83,23.81,23.81,0,0,0,1.37-2c.51-.81,1.05-1.64,1.66-2.46a15.42,15.42,0,0,1,5-4.62,9.15,9.15,0,0,1,4.21-1.08,10,10,0,0,1,4.29,1c.56.28,1.28.66,1.64.88s.78.45,1.1.62c.63.33,1.08.42,1.16.33s-.09-.16,0-.27.3-.34.54-.69a3.48,3.48,0,0,0,.36-.57c.12-.2.21-.41.36-.72l1-2.18a25.49,25.49,0,0,1,1.59-2.95,12,12,0,0,1,1.21-1.63c.46-.52.91-1,1.41-1.53a18.31,18.31,0,0,1,7.07-4,27.14,27.14,0,0,1,7.15-1.15,42.83,42.83,0,0,1,6.41.28c2,.22,3.95.5,5.73.81.87.14,1.81.33,2.63.48s1.6.28,2.3.38a14.73,14.73,0,0,0,3.38.22,4,4,0,0,0,.71-.07c.11,0,.08,0,.11,0s0,0,.05,0,0,0,0,0l0,0s.15-.18.25-.54a15,15,0,0,0,.22-3.77c0-.84-.07-1.81-.08-2.89s0-2,.08-3.12a33,33,0,0,1,1-6.66,23,23,0,0,1,2.91-6.68c2.63-4,5.63-6.43,7.62-8.8,1.95-2.14,3.16-4.75,3.06-6.42a4.28,4.28,0,0,0-1.05-2.65,48.5,48.5,0,0,0-3.41-3.75,22.61,22.61,0,0,1-2.07-2.53,20.06,20.06,0,0,1-1.69-2.88,28.84,28.84,0,0,1-2-5.9c-.9-3.88-1.2-7.51-1.85-10.88a30,30,0,0,0-1.26-4.79c-.32-.88-.6-1.63-.9-2.28a5.05,5.05,0,0,0-.89-1.4,1.26,1.26,0,0,0-.85-.42,1.05,1.05,0,0,0-.89.24,6.32,6.32,0,0,0-1.33,1.51l-.75,1.08-.72,1.09A53.36,53.36,0,0,0,426.36,76c-.63,3.49-1,7.15-1.82,10.78a27.59,27.59,0,0,1-1.81,5.32,20.28,20.28,0,0,1-3.11,4.68,31.22,31.22,0,0,1-8.75,6.65A94.05,94.05,0,0,1,400.94,107.89Z"/><path d="M369,106.28a6.89,6.89,0,0,0-4.24-3.1,5.55,5.55,0,0,0-4.28,1,6.9,6.9,0,0,0-1.55,1.5,8.53,8.53,0,0,0-1,1.9,7,7,0,0,0,0,4.16,6.48,6.48,0,0,0,2.24,3.36,2.57,2.57,0,0,0,1.19.55,1.64,1.64,0,0,0,1.19-.52,5.38,5.38,0,0,0,.65-.79,8.81,8.81,0,0,0,.59-1.09,14.11,14.11,0,0,1,1.59-2.79,9.18,9.18,0,0,1,5.13-3.53,14.45,14.45,0,0,0-1.83,2.25,11.55,11.55,0,0,0-1.14,2.45,18.58,18.58,0,0,0-.62,2.6,8.52,8.52,0,0,1-1.3,3.35A5.73,5.73,0,0,1,361.9,120a6.48,6.48,0,0,1-4.34-1,9.64,9.64,0,0,1-1.53-1.17,10,10,0,0,1-1.27-1.4,10.88,10.88,0,0,1-1.24-10.67,11.15,11.15,0,0,1,2.07-3.06,9.85,9.85,0,0,1,3-2.08,7.91,7.91,0,0,1,7,.25A6.73,6.73,0,0,1,369,106.28Z"/><path d="M476.74,58.27a3,3,0,0,0-.35,2.34,4.76,4.76,0,0,0,1.3,2,17.9,17.9,0,0,0,4,2.8,19.78,19.78,0,0,1,4.28,2.74,4.29,4.29,0,0,1,.86,1.23,6.19,6.19,0,0,1,.41,1.4,10.18,10.18,0,0,0,.26,1.08,1.92,1.92,0,0,0,.42.65,12.64,12.64,0,0,0,1.69,1.3,7.87,7.87,0,0,1,1.14,1,4.16,4.16,0,0,1,1,1.66,6.34,6.34,0,0,1,.24,1.7c0,.39.09.57.13.5s0-.14,0-.16.11,0,.24,0a.89.89,0,0,0,.59-.3s.12-.2.16-.34a3.23,3.23,0,0,0,.15-.58,6.45,6.45,0,0,0,0-1.7c-.06-.63-.22-1.38-.37-2.24a15.75,15.75,0,0,1-.23-2.89,8.41,8.41,0,0,1,.76-3.23,23.84,23.84,0,0,1,2.86-4.47,14.69,14.69,0,0,0,1.08-1.65,1.69,1.69,0,0,0,.22-1.1,1.92,1.92,0,0,0-.27-.63c-.14-.24-.38-.47-.57-.73l-.8-.7a2.81,2.81,0,0,0-.75-.45,14,14,0,0,0-4.48-.77l-2.46-.09c-.85,0-1.68-.16-2.49-.26a22.12,22.12,0,0,0-4.85-.36,6.28,6.28,0,0,0-2.32.68,5,5,0,0,0-1,.7C477.25,57.63,477,58,476.74,58.27Zm0,0a5.79,5.79,0,0,1,4.08-2.48,32.55,32.55,0,0,1,4.93-.16,30.72,30.72,0,0,0,4.83-.47,16.37,16.37,0,0,1,5.26-.13,5.69,5.69,0,0,1,1.49.5l1.22.69a11.76,11.76,0,0,1,1.19,1,5.2,5.2,0,0,1,1,1.43A5.3,5.3,0,0,1,501,62.3a13.36,13.36,0,0,1-1.15,2.7,30,30,0,0,0-2.05,4,3.89,3.89,0,0,0-.29,1.52,12.29,12.29,0,0,0,.22,2c.11.75.28,1.61.36,2.6a10.38,10.38,0,0,1-.22,3.18,6.44,6.44,0,0,1-.67,1.72,5.61,5.61,0,0,1-1.3,1.61,5.28,5.28,0,0,1-4,1.14A4.5,4.5,0,0,1,489.9,82a3.89,3.89,0,0,1-1.51-2,4.5,4.5,0,0,1-.14-1.92c.05-.43.08-.65.08-.73a.9.9,0,0,0-.14-.5,4.65,4.65,0,0,0-.59-.76,13.13,13.13,0,0,1-1.77-2.14,4.17,4.17,0,0,1-.54-1.59,9.17,9.17,0,0,1-.05-1.34,2.75,2.75,0,0,0-.45-1.87A17.12,17.12,0,0,0,481.28,66a24.91,24.91,0,0,1-3.72-3.24,5.19,5.19,0,0,1-1.22-2.12A3,3,0,0,1,476.74,58.27Z"/><path d="M476.36,73.2a3.74,3.74,0,0,0-2.14-1.15,1.24,1.24,0,0,0-1,.4,1.75,1.75,0,0,0-.41,1,6.14,6.14,0,0,0,.25,2.16c.08.29.2.55.27.82s.12.59.23.88a3.34,3.34,0,0,0,1.07,1.51.77.77,0,0,0,.76.12,1.36,1.36,0,0,0,.65-.81,5.91,5.91,0,0,0,.23-2.42,6.07,6.07,0,0,1,.12-2.51,5.24,5.24,0,0,0,.05,2.49,6.92,6.92,0,0,1,.08,2.57,2.75,2.75,0,0,1-.59,1.34,2.18,2.18,0,0,1-.73.49,2.7,2.7,0,0,1-.89.12,4.16,4.16,0,0,1-2.82-1.53,4.53,4.53,0,0,1-.86-1.38,3.67,3.67,0,0,1-.14-1.65,5.6,5.6,0,0,1,1.24-2.73,2.68,2.68,0,0,1,2.54-1.08A4.22,4.22,0,0,1,476.36,73.2Z"/><path d="M404,159.37a22.12,22.12,0,0,1-2,1.21l-.54.26a3.07,3.07,0,0,0-.48.21.84.84,0,0,0-.24.67.66.66,0,0,0,.13.31c.06.11.14.15.3.36a2.25,2.25,0,0,0,.69.69c.58.35,1.39,0,1.69.23a2.66,2.66,0,0,0,2.77-.49,2.48,2.48,0,0,0,.9-1.39,1.68,1.68,0,0,0-.87-1.68,2.14,2.14,0,0,1,1.25.31,2.2,2.2,0,0,1,.92,1.16,3.7,3.7,0,0,1-.41,2.92,4.91,4.91,0,0,1-2.24,2.07,5.08,5.08,0,0,1-3.2.33c-1.2-.24-1.72-1.42-2.18-2.21a6.34,6.34,0,0,1-.36-.64,5.85,5.85,0,0,1-.22-.59,4.76,4.76,0,0,1-.22-.67,1.94,1.94,0,0,1,0-.83,1.76,1.76,0,0,1,1-1.21,3.54,3.54,0,0,1,.62-.11l.56-.12A8.9,8.9,0,0,0,404,159.37Z"/><path d="M398.18,171.64a13.94,13.94,0,0,1-2-1.53c-.3-.29-.61-.57-.9-.88s-.53-.66-.8-1a6.93,6.93,0,0,0-.82-.88,1.41,1.41,0,0,0-.42-.26h-.06s0,0,0,0a.23.23,0,0,0-.07.07,1.87,1.87,0,0,0-.21.88c0,.37,0,.78,0,1.24a17.81,17.81,0,0,0-.1,2.49,13,13,0,0,0,.47,2.38,9.75,9.75,0,0,0,.8,1.89c.14.25.28.5.41.69,0-.07,0,0,.15.09a13.38,13.38,0,0,0,3.54,1.71,5,5,0,0,0,1.48.36,1.74,1.74,0,0,0,1-.35,2.24,2.24,0,0,0,.74-1.27,4.81,4.81,0,0,0,0-2,8.94,8.94,0,0,0-2.21-4.12,7.65,7.65,0,0,1,4.24,3.3,6.74,6.74,0,0,1,.92,2.91,5.42,5.42,0,0,1-.86,3.37,5.1,5.1,0,0,1-1.36,1.38,5.72,5.72,0,0,1-1.76.79,7.55,7.55,0,0,1-3.46,0l-.71-.17-.6-.16c-.42-.12-.86-.24-1.32-.4a9.84,9.84,0,0,1-2.92-1.51,4.9,4.9,0,0,1-1.41-1.84,6.69,6.69,0,0,1-.4-1.66,8,8,0,0,1,.33-3.06c.52-1.76,1.17-3.5,1.59-5,.11-.35.17-.78.3-1.23a2.52,2.52,0,0,1,.75-1.37,1.14,1.14,0,0,1,.48-.2,1.63,1.63,0,0,1,.31,0l.24.09a2.35,2.35,0,0,1,.57.49,10.27,10.27,0,0,1,.75,1.06A10.69,10.69,0,0,0,398.18,171.64Z"/><path d="M388.16,184.38a12.38,12.38,0,0,1-2.13-1.71,4.26,4.26,0,0,1-1-2.63,11.33,11.33,0,0,1,.05-1.43c.08-.54.24-1,.27-1.35,0-.18,0-.34-.06-.37s0,.08-.08.08a2.86,2.86,0,0,0-.57.31A6.36,6.36,0,0,0,383,178.9l-.39.51c-.05.08-.17.21-.16.24l0,.12c0,.17-.06.38-.1.68A33.72,33.72,0,0,0,382,185a17.62,17.62,0,0,0,.13,2.21,7.19,7.19,0,0,0,.46,1.88,4.48,4.48,0,0,0,.45.84,2.65,2.65,0,0,0,.57.64,7.57,7.57,0,0,0,2.18.94,3.35,3.35,0,0,0,2.14.18,1.2,1.2,0,0,0,.64-.68,3,3,0,0,0,.17-1.19,34.94,34.94,0,0,0-.56-5.39c.47,1.76.79,3.53,1.26,5.31a4,4,0,0,1,.06,1.51,2.39,2.39,0,0,1-.84,1.53,5.25,5.25,0,0,1-3.14.82,10.84,10.84,0,0,1-3.11-.22,6,6,0,0,1-1.71-.81,8,8,0,0,1-1.34-1.19,8.39,8.39,0,0,1-1.73-3.05,12.56,12.56,0,0,1-.59-3.17,12.27,12.27,0,0,1,1.22-6.18,6.22,6.22,0,0,1,1.21-1.68,5.37,5.37,0,0,1,.44-.37,2.64,2.64,0,0,1,.35-.21l.65-.37a9.37,9.37,0,0,1,3-1.11,2.84,2.84,0,0,1,2.07.3,1.53,1.53,0,0,1,.71,1.12,2.06,2.06,0,0,1-.15,1c-.19.51-.45.89-.57,1.24a5.55,5.55,0,0,0-.3,1.25,3.55,3.55,0,0,0,.53,2.47A8.33,8.33,0,0,0,388.16,184.38Z"/><path d="M361.18,227.12l-3.85.06a13.84,13.84,0,0,0-3.74.44,18.64,18.64,0,0,0-1.82.51,1.44,1.44,0,0,0-.77.75c-.11.28,0,.36.06.36a6.37,6.37,0,0,0,.5.63c.45.49.84,1,1.09,1.26s.8.8,1.11,1.07l.38.32a1.08,1.08,0,0,0,.53.15,3.78,3.78,0,0,0,1.6-.31,9.16,9.16,0,0,0,3.18-2,7.37,7.37,0,0,0,1.19-1.47,3,3,0,0,0,.54-1.79,3.57,3.57,0,0,1-.41,1.86,10.14,10.14,0,0,1-1,1.66,28.42,28.42,0,0,1-2.66,3,6.48,6.48,0,0,1-1.86,1.31,3.45,3.45,0,0,1-1.37.31,4.28,4.28,0,0,1-1.45-.24,8.31,8.31,0,0,1-2.06-1.07,7.47,7.47,0,0,1-.91-.78l-.68-.7a4.71,4.71,0,0,1-1.31-2.7,3.57,3.57,0,0,1,1.34-3.1,4.16,4.16,0,0,1,2.64-.87c.85,0,1.42.23,2,.29,1.41.13,2.65.44,3.93.62A24.44,24.44,0,0,0,361.18,227.12Z"/><path d="M320.69,237c-.4,1.61-1.79,2.67-2.92,3.76a9.94,9.94,0,0,0-2.61,3.91,8,8,0,0,0-.34,4.46,5.15,5.15,0,0,0,5.86,4,2.85,2.85,0,0,0,1.35-.61,5.64,5.64,0,0,0,1-1.28c.34-.57.65-1.26,1.07-2a10.53,10.53,0,0,1,1.73-2.46,6,6,0,0,1,3.52-1.76c.59-.06.95-.07,1.06-.11h0l-.11,0c-.08,0-.13.09-.15.09a2.47,2.47,0,0,0,.33-.9,13,13,0,0,0,.26-1.94,37.1,37.1,0,0,0-.05-4.46c-.09-1.52-.22-3.08-.46-4.6a23.36,23.36,0,0,0-1-4.37,3.35,3.35,0,0,0-1.08-1.45,2.89,2.89,0,0,0-1.74-.68,6.77,6.77,0,0,0-4.09,1.54,4.58,4.58,0,0,0-1.46,1.73,4.35,4.35,0,0,0-.21,2.3A11.72,11.72,0,0,1,320.69,237Zm0,0a8,8,0,0,0,.16-2.39,19.26,19.26,0,0,0-.41-2.37,4.88,4.88,0,0,1,0-2.46,5.62,5.62,0,0,1,1.37-2.12,8.27,8.27,0,0,1,4.47-2.53,4.87,4.87,0,0,1,2.86.47,5.61,5.61,0,0,1,2.25,2,23.7,23.7,0,0,1,2.17,4.73,40.78,40.78,0,0,1,1.34,4.87,26.22,26.22,0,0,1,.58,5.16,13.71,13.71,0,0,1-.24,2.85,9.44,9.44,0,0,1-.47,1.6,5.39,5.39,0,0,1-1.18,1.82,5,5,0,0,1-1.11.81,6.85,6.85,0,0,1-.68.26l-.34.1-.27.05c-.68.1-1.13.09-1.34.12a1.11,1.11,0,0,0-.73.3,7.8,7.8,0,0,0-1.14,1.4c-.42.62-.9,1.33-1.48,2.09a8,8,0,0,1-2.41,2.11,6.41,6.41,0,0,1-3.22.78,8,8,0,0,1-5.35-2.29,7.28,7.28,0,0,1-1.62-2.34,7.67,7.67,0,0,1-.58-2.66,9.59,9.59,0,0,1,1.21-4.93,12.09,12.09,0,0,1,3.11-3.76C318.87,239.65,320.26,238.64,320.69,237Z"/><path d="M332.85,211.36a4,4,0,0,0-2.92,0,6.07,6.07,0,0,0-1.35.62,2.58,2.58,0,0,0-1,.93,1.92,1.92,0,0,0-.31,1.09.81.81,0,0,0,.29.58c.12.11.19.08.28.17a3,3,0,0,0,.56.34,15.57,15.57,0,0,0,2.37.8,3.48,3.48,0,0,0,2.49-.17,2.28,2.28,0,0,0,1-.88,2.32,2.32,0,0,0,.31-1.31,2.21,2.21,0,0,0-1.67-2.15,2.63,2.63,0,0,1,2,2.1,3,3,0,0,1-.06,1.64,4.52,4.52,0,0,1-.86,1.48,6.3,6.3,0,0,1-3.09,1.89,7.24,7.24,0,0,1-3.6.15,4.51,4.51,0,0,1-2.06-1.11,3.54,3.54,0,0,1-1.11-2.44,3.34,3.34,0,0,1,.83-2.33,4.29,4.29,0,0,1,1.69-1.14,7.4,7.4,0,0,1,1.69-.37c.51-.07,1-.19,1.53-.26A5.19,5.19,0,0,1,332.85,211.36Z"/><path d="M302,241.53a6.2,6.2,0,0,0-.11,2.93,2.25,2.25,0,0,0,.67,1.16,1.69,1.69,0,0,0,1.11.39,3,3,0,0,0,.6-.06l.58-.2a9.92,9.92,0,0,0,1.27-.48.92.92,0,0,0,.45-.45.82.82,0,0,0,.08-.46,4,4,0,0,0-.17-1c-.1-.37-.24-.76-.39-1.18a14.51,14.51,0,0,0-1.23-2.5,2.88,2.88,0,0,0-.94-.93.89.89,0,0,0-1.11,0,2.38,2.38,0,0,0-.64,1.24,6.63,6.63,0,0,0-.17,1.47,12.41,12.41,0,0,1,0-1.49,2.64,2.64,0,0,1,.51-1.47,1.56,1.56,0,0,1,1.64-.5,5.13,5.13,0,0,1,1.56.66,11,11,0,0,1,2.48,2.16,6.19,6.19,0,0,1,1,1.48,5,5,0,0,1,.48,1.93,3.41,3.41,0,0,1-.85,2.32,3.23,3.23,0,0,1-2,1.07,7.07,7.07,0,0,1-1.67,0,8.67,8.67,0,0,1-.91-.1,4.26,4.26,0,0,1-.87-.3,3.12,3.12,0,0,1-1.36-1.2,3.83,3.83,0,0,1-.44-1.57A9.26,9.26,0,0,1,302,241.53Z"/><path d="M309.89,320.88a9.51,9.51,0,0,0,.83,3.09c.44,1,1,1.91,1.53,2.86a38.63,38.63,0,0,1,2.78,5.89,40.74,40.74,0,0,1,3.09,12.92l.08,1.7,0,1.69c0,1.14-.1,2.25-.17,3.38-.21,2.23-.52,4.45-.86,6.64-.71,4.37-1.67,8.6-2.28,12.73a47.85,47.85,0,0,0-.51,11.76A34.67,34.67,0,0,0,317,394c.17.34.33.67.51,1a3.21,3.21,0,0,0,.26.41l.32.49c.53.84,1.18,1.85,1.84,3.06a19.62,19.62,0,0,1,1.85,4.53,13.42,13.42,0,0,1,0,7,13.41,13.41,0,0,1-2.65,5.06c-.19.23-.37.46-.58.68s-.46.46-.7.68a13.52,13.52,0,0,1-3.26,2.22,15.08,15.08,0,0,1-3.42,1.14,19.5,19.5,0,0,1-5.28.3c-1.38-.08-2.49-.2-3.16-.22h-.31l-.14,0a2.26,2.26,0,0,0-.3.08,1.91,1.91,0,0,0-.56.25,1.2,1.2,0,0,0-.28.27s0,0,0,.1l-.07.25a4.27,4.27,0,0,0,.09,1.94,9,9,0,0,0,.57,1.53c.28.59.63,1.24,1,1.94.85,1.41,2,3,3.22,4.92.63,1,1.3,2,2,3.15s1.27,2.28,1.87,3.53a32.4,32.4,0,0,1,2.78,8.63,25,25,0,0,1,.3,5.33,22.09,22.09,0,0,1-1.1,5.71,26.21,26.21,0,0,1-5.34,9,76.11,76.11,0,0,1-5.41,5.41c-.77.72-1.44,1.37-2,2s-1,1.18-1.48,1.75c-.24.31-.49.55-.72.89l-.68,1c-.22.33-.46.64-.68,1l-.66,1.11a99.53,99.53,0,0,0-5.08,10.23c-1.72,3.82-3.48,8-5.88,12.41a53.41,53.41,0,0,1-10,13.5,17.87,17.87,0,0,1-1.76,1.57l-1.87,1.51a15.81,15.81,0,0,1-2,1.39L266,522a32.28,32.28,0,0,1-4.39,2.22c-1.48.61-3,1.15-4.39,1.58a62.27,62.27,0,0,1-15,2.32l-5.71.29c-2,.09-4.15.19-6.43.21-1.14,0-2.31,0-3.52,0l-.91,0c-.3,0-.64,0-.83,0l-1.36-.11c-1.74-.12-3.26-.21-4.4-.21s-1.78,0-2.11,0-.66,0-1,.75c-.06.19-.13.47-.18.59a3.37,3.37,0,0,0-.05.53c0,.76,0,1.85.06,3s.09,2.56,0,4.16c-.05.79-.15,1.64-.14,2.66s.05,2.17,0,3.7a15.56,15.56,0,0,1-6.33,11.74,20.53,20.53,0,0,1-6.79,3.46,16.58,16.58,0,0,1-2.09.34,16.32,16.32,0,0,1-2,.13,19.88,19.88,0,0,1-3.47-.27,16.39,16.39,0,0,1-4.21-1.21,5.57,5.57,0,0,1-.57-.33,6.63,6.63,0,0,1-.69-.49,8.63,8.63,0,0,1-1.24-1.18,5.63,5.63,0,0,1-.92-1.38,14.87,14.87,0,0,1-.67-1.52c-.09-.26-.2-.52-.28-.77l-.19-.75-.36-1.47a16.62,16.62,0,0,0-.76-2.42,5.73,5.73,0,0,0-1.12-1.6c-.43-.47-.79-.88-1.15-1.29l-1-1.17c-1.28-1.48-2.32-2.64-3-3.36s-.92-.89-.93-1.09c0,0,0-.11-.06-.15s-.1-.06-.17-.13a.83.83,0,0,1-.29-.06c-.11,0-.16,0-.26,0a3.17,3.17,0,0,0-1.9,1,28.48,28.48,0,0,0-3.29,3.74c-1.3,1.62-2.65,3.58-4.5,5.7-.46.53-1,1.07-1.49,1.6s-1.13,1.09-1.7,1.61a26.17,26.17,0,0,1-4.05,2.94,27.78,27.78,0,0,1-9,3.38,30.54,30.54,0,0,1-9.18.33,31.81,31.81,0,0,1-8.69-2.26,29,29,0,0,1-4-2.05l-1-.6c-.33-.21-.71-.49-1.06-.74a21.69,21.69,0,0,1-2-1.62,35.76,35.76,0,0,1-3.1-3.33c-.87-1.07-1.59-2.09-2.28-3s-1.29-1.72-1.84-2.43a19.53,19.53,0,0,0-1.58-1.69,5.61,5.61,0,0,0-.68-.52l-.3-.2-.21-.1a1.18,1.18,0,0,0-.62-.06,5.5,5.5,0,0,0-.57.15l-.44.11-1,.2c-.89.18-2.13.44-3.71.63a18.16,18.16,0,0,1-6.17-.22,15.71,15.71,0,0,1-4.07-1.55,23.66,23.66,0,0,1-1.87-1.47,21.21,21.21,0,0,1-2-1.3l-.49-.35-.43-.33-.86-.68c-.29-.24-.58-.48-.86-.73a9.49,9.49,0,0,1-.9-1.05,11.2,11.2,0,0,1-2.44-6,12.91,12.91,0,0,1,.13-3.64,15.33,15.33,0,0,1,.89-3.21,17.82,17.82,0,0,1,2.61-4.48c.42-.51.85-1,1.3-1.5s.8-.78,1.22-1.16a14.82,14.82,0,0,1,1.16-1c.37-.29.77-.62,1.11-.86a49.13,49.13,0,0,1,7.67-4.37,115,115,0,0,1,13.35-5.08l3.11-1c1-.32,2-.65,2.67-.9l.23-.08.11,0,0,0,0,0-.45.2,0,0,.13-.08.26-.15.51-.3,1-.6c.33-.23.66-.46,1-.67a42.37,42.37,0,0,0,13.38-13.94,36.39,36.39,0,0,0,2.18-4.32c.67-1.47,1.05-3,1.69-4.5l.57-1.11.68-1.12c.54-.74,1-1.52,1.45-2.32l.33-.61a4.34,4.34,0,0,0,.27-.51,4.89,4.89,0,0,0,.41-1,8.22,8.22,0,0,0,.24-2.25,19.56,19.56,0,0,0-.78-5.17c-.46-1.85-1.13-3.79-1.84-5.87-.36-1-.7-2.11-1-3.23l-.25-.84-.3-1.09a21.84,21.84,0,0,1-.45-2.25c-.06-.37-.12-.75-.15-1.12s-.16-.73-.22-1.1c-.15-.74-.27-1.48-.36-2.21a36.32,36.32,0,0,1-.22-4.4,38.94,38.94,0,0,1,1-8.57c.35-1.45.81-2.9,1.24-4.15l1.13-3.31a13.86,13.86,0,0,0,.62-2.32,4.28,4.28,0,0,0,0-1.26c0-.14-.07-.25-.08-.34a.88.88,0,0,1-.05-.15c0-.06-.05,0-.05,0s-.11-.27-.22-.84l-.55-2.59a19.15,19.15,0,0,1-.44-4.34c0-.42,0-.91.08-1.36a9.78,9.78,0,0,1,.2-1.32c.08-.43.14-.86.26-1.29l.4-1.3A20.74,20.74,0,0,1,148.4,402c.47-.73,1-1.39,1.53-2s1.06-1.24,1.62-1.78c1-1.12,2.07-2.12,3-3.06,1.88-1.86,3.21-3.8,4.73-5.44l2.17-2.42c.71-.82,1.28-1.53,1.92-2.31a45.19,45.19,0,0,0,3.38-4.85c1-1.68,2-3.42,2.84-5.19a45.87,45.87,0,0,0,2.19-5.47,56.51,56.51,0,0,0,1.59-5.65c.41-1.92.68-3.83.91-5.77.45-3.91.52-8.29,1.29-13.16a40.18,40.18,0,0,1,1.93-7.66,28.57,28.57,0,0,1,4.28-7.76,40.94,40.94,0,0,1,5.79-5.83c1.89-1.61,3.65-3,5.16-4.14a38.51,38.51,0,0,0,3.91-3.56c1.23-1.3,2.45-2.7,3.73-4.19s2.61-3.06,4.07-4.64,2.94-3.28,4.6-4.91,3.43-3.32,5.34-4.93a51,51,0,0,1,6.19-4.49,56.22,56.22,0,0,1,6.67-3.44,65.31,65.31,0,0,1,6.8-2.45,104.25,104.25,0,0,1,13.43-3l3.28-.51,1.51-.22,1.68-.27a19.34,19.34,0,0,1,4.49-.3,11.7,11.7,0,0,1,2.92.58,9.63,9.63,0,0,1,2.9,1.66,9.26,9.26,0,0,1,2,2.34,13.17,13.17,0,0,1,1,2.08c.23.59.39,1.08.52,1.44s.12.34.13.4,0,.13,0,.18,0,.36.71.68a9.92,9.92,0,0,0,1.2.45c.43.14.87.27,1.32.38,3.6.93,7.72.78,11.93.42s8.51-1,13-1.19a28.21,28.21,0,0,1,6.72.43,11.94,11.94,0,0,1,6.07,3.1,8.29,8.29,0,0,1,1.9,2.85,9.93,9.93,0,0,1,.62,3.29,23.35,23.35,0,0,1-.19,3.25c-.11,1.07-.23,2.15-.4,3.21-.62,4.24-1.5,8.51-.95,12.8Zm-.09,0a25.13,25.13,0,0,1-.52-6.48c.05-2.17.17-4.35.34-6.47.09-1.07.1-2.1.15-3.17a22,22,0,0,0,0-3,8.79,8.79,0,0,0-.65-2.67,6.18,6.18,0,0,0-1.58-2.14,9.85,9.85,0,0,0-5.11-2.29,25.47,25.47,0,0,0-6.11,0c-4.14.46-8.36,1.4-12.64,2.05s-8.7,1.21-13.15.52a21.57,21.57,0,0,1-3.29-.73,6.52,6.52,0,0,1-3.12-2,12.69,12.69,0,0,1-1.63-3,5.81,5.81,0,0,0-1.61-2.32c-1.38-1.17-3.55-.94-5.56-.49s-4.21.95-6.27,1.44a98.59,98.59,0,0,0-12.3,3.62,54.14,54.14,0,0,0-11.41,5.78,52.49,52.49,0,0,0-9.47,8.65c-5.69,6.39-10.73,13.54-17.77,18.58-3.45,2.54-7.14,4.85-10,8.13a26.11,26.11,0,0,0-5.29,11.6c-.94,4.2-1.36,8.49-2.14,12.71a65.51,65.51,0,0,1-3.55,12.37A66.5,66.5,0,0,1,171.26,383c-1.18,1.8-2.42,3.56-3.76,5.24s-2.77,3.28-4.17,4.91c-2.78,3.23-5.52,6.73-6.57,10.94a17.9,17.9,0,0,0-.34,6.4c.29,2.13.94,4.19,1.33,6.3a16.47,16.47,0,0,1,.31,3.21,13.72,13.72,0,0,1-.46,3.18,24.09,24.09,0,0,1-2.59,5.88,47.62,47.62,0,0,0-2.94,5.73,26.63,26.63,0,0,0-1.66,6.21,20.27,20.27,0,0,0,.1,6.41,19.47,19.47,0,0,0,.85,3.1c.35,1,.72,2,1.09,3a68,68,0,0,1,3.72,12.32,24.65,24.65,0,0,1,.23,6.42,44,44,0,0,1-1,6.36,47.51,47.51,0,0,1-4.5,12,51.58,51.58,0,0,1-17.25,18.78l-1.35.88-1.4.79c-.47.26-.93.54-1.41.79a15,15,0,0,1-1.5.58c-2,.69-4.1,1.29-6.15,1.94a115.77,115.77,0,0,0-12.11,4.37,34.73,34.73,0,0,0-5.66,3.06,12.17,12.17,0,0,0-2.39,2.14,4.26,4.26,0,0,0-1.09,3,5.28,5.28,0,0,0,4.19,4.33,19.2,19.2,0,0,0,6.41-.24,12,12,0,0,1,11.6,4.07c2.94,3.14,4.92,7.08,8.15,10a21.53,21.53,0,0,0,11.75,4.79,18.71,18.71,0,0,0,17.14-7c1.39-1.64,2.58-3.43,3.82-5.19a44.24,44.24,0,0,1,4-5.07,15.5,15.5,0,0,1,5.17-3.77,12.06,12.06,0,0,1,6.3-.93,14,14,0,0,1,6,2.31c3.61,2.36,6.48,5.63,9.83,8.32a19.45,19.45,0,0,0,5.51,3.27,4.52,4.52,0,0,0,3.14-.07,4,4,0,0,0,2.13-2.3,17.43,17.43,0,0,0,.84-6.34c0-2.14-.18-4.33.41-6.42a11.3,11.3,0,0,1,3.11-5.55,14.23,14.23,0,0,1,5.52-3.22c4.09-1.4,8.45-1.53,12.68-2.19s8.49-1.32,12.78-1.65a78.06,78.06,0,0,0,12.75-1.75,24.78,24.78,0,0,0,6-2.29l1.4-.8a8.33,8.33,0,0,0,1.35-.86l1.29-1a10,10,0,0,0,1.24-1A41.68,41.68,0,0,0,273,496.37c4.37-7.39,7.52-15.47,12.36-22.61a43.61,43.61,0,0,1,8.64-9.5,55.89,55.89,0,0,0,4.74-4.36,15.66,15.66,0,0,0,3.45-5.37,13.37,13.37,0,0,0,.58-6.34A23.72,23.72,0,0,0,301,442c-1.67-4-4.26-7.45-6.24-11.26a21.76,21.76,0,0,1-2.21-6,12.21,12.21,0,0,1,.46-6.37,9.38,9.38,0,0,1,4-4.92,10.54,10.54,0,0,1,6.2-1.47c2.14.13,4.29.57,6.41.18a5.79,5.79,0,0,0,4.57-4c.61-2.08-.13-4.26-1-6.17a49.94,49.94,0,0,1-2.72-5.84,32.32,32.32,0,0,1-1.36-6.3,42,42,0,0,1-.32-6.44,53.64,53.64,0,0,1,2.06-12.7c1.11-4.16,2.43-8.25,3.53-12.4a51.47,51.47,0,0,0,2-12.69A39.4,39.4,0,0,0,314.14,333c-.65-2.05-1.41-4.06-2.2-6.06s-1.82-3.9-2.23-6Z"/><path d="M326.2,286.27a6.91,6.91,0,0,0-4.36-.43,1.68,1.68,0,0,0-1.38,1,2.07,2.07,0,0,0,.22,1.55,10.4,10.4,0,0,0,1.08,1.63c.43.56.89,1.07,1.34,1.56A15.57,15.57,0,0,0,326,294a3.8,3.8,0,0,1,1.12,1.2,2.44,2.44,0,0,0,.55.56,1.39,1.39,0,0,0,.53.18,1.14,1.14,0,0,0,.52-.09,1.09,1.09,0,0,0,.48-.34,3,3,0,0,0,.51-1.66,10.78,10.78,0,0,0-.68-4.26A5.89,5.89,0,0,0,326.2,286.27Zm0,0a7.79,7.79,0,0,1,3.16,3.15,18.31,18.31,0,0,1,1.89,4.29,4.94,4.94,0,0,1,0,2.75,3.67,3.67,0,0,1-.88,1.42,4,4,0,0,1-1.46.92,5.71,5.71,0,0,1-1.7.28,12.26,12.26,0,0,1-1.61,0,4.43,4.43,0,0,1-2.73-1.09,13,13,0,0,1-3.07-4.23,14.64,14.64,0,0,1-.86-2.34,11.51,11.51,0,0,1-.48-2.57,4,4,0,0,1,.84-2.78,2.9,2.9,0,0,1,2.51-.89,13.8,13.8,0,0,1,2.27.42A13.06,13.06,0,0,1,326.2,286.27Z"/><path d="M319,261.4a1.18,1.18,0,0,0-1,.81,6.51,6.51,0,0,0-.33,1.28,5.05,5.05,0,0,0,.25,2.54,3.71,3.71,0,0,0,1.42,1.85,4.64,4.64,0,0,0,2.08.67,12.26,12.26,0,0,0,4.42-.61c.35-.1.69-.23,1-.35a6.19,6.19,0,0,0,.85-.36,5,5,0,0,0,1.12-.85,4.27,4.27,0,0,0,.76-1,2.83,2.83,0,0,0,.34-1.22,4.08,4.08,0,0,0-1-3.07,2.58,2.58,0,0,0-1.92-.41c-.82.08-1.75.32-2.66.45a25.37,25.37,0,0,1-2.71.27A18.3,18.3,0,0,0,319,261.4Zm0,0c.87-.18,1.79,0,2.64-.21a10.39,10.39,0,0,0,2.5-.85c.79-.37,1.47-.89,2.33-1.38a5.21,5.21,0,0,1,3.32-.76,5.81,5.81,0,0,1,3.39,1.78,8,8,0,0,1,1.88,3.14,7.1,7.1,0,0,1,.08,4,7.83,7.83,0,0,1-2,3.48,8.38,8.38,0,0,1-3.33,2A8.9,8.9,0,0,1,328,273a10.92,10.92,0,0,1-1.61.08,11.93,11.93,0,0,1-6.07-1.74,7.26,7.26,0,0,1-2.32-2.26,6.14,6.14,0,0,1-.9-2.88,7.54,7.54,0,0,1,.36-2.74,8,8,0,0,1,.48-1.26A1.29,1.29,0,0,1,319,261.4Z"/></svg>