<svg id="Layer_1" data-name="Layer 1" xmlns="http://www.w3.org/2000/svg" viewBox="0 0 600 600"><title>Austria</title><path d="M76.53,312.59a15.93,15.93,0,0,1,1.81,2.13c.54.77,1,1.58,1.49,2.37L82.5,322a42.66,42.66,0,0,0,2.87,4.68,15,15,0,0,0,3.81,3.66,9.46,9.46,0,0,0,2.28,1.12,6.12,6.12,0,0,0,2.37.37,5.41,5.41,0,0,0,2.24-.56A6.1,6.1,0,0,0,98,329.94a13.43,13.43,0,0,0,2.47-4.35c.64-1.66,1.18-3.44,1.87-5.25a19,19,0,0,1,2.93-5.41,14,14,0,0,1,5.14-4,18.53,18.53,0,0,1,6.16-1.6,26.28,26.28,0,0,1,6.21.17,31.31,31.31,0,0,1,6,1.48,48.26,48.26,0,0,1,5.48,2.45c3.46,1.78,6.67,3.71,9.82,5.28a29.84,29.84,0,0,0,9.26,3.13,28,28,0,0,0,9.45-.42,49.1,49.1,0,0,0,9.56-3.11c3.17-1.36,6.34-3,9.53-4.67l4.92-2.66c1.69-.88,3.37-1.78,5.1-2.64,3.43-1.75,7-3.4,10.68-4.91a88.18,88.18,0,0,1,11.6-3.89A56.48,56.48,0,0,1,227,297.68a52.41,52.41,0,0,1,6.83.24l3.46.55a14.64,14.64,0,0,1,1.72.37l1.72.46c.57.15,1.15.3,1.72.47l1.67.63c1.1.44,2.28.82,3.3,1.34,2.16,1,4,2,5.78,3.07,3.48,2,6.52,4,9.11,5.19s4.52,1.57,5.45,1.33a.75.75,0,0,0,.36-.1c.11-.05.26,0,.33-.1a.71.71,0,0,1,.22-.13c.07,0,.12-.13.19-.16a4.14,4.14,0,0,0,.82-.92,9.67,9.67,0,0,0,1-1.84,12.18,12.18,0,0,0,.64-2.58,11.2,11.2,0,0,0,0-2.77,3.4,3.4,0,0,0-.09-.65,5.49,5.49,0,0,0-.12-.61c-.06-.19-.1-.38-.14-.57s-.15-.51-.22-.76a31.45,31.45,0,0,0-3.19-6.85c-.74-1.24-1.57-2.51-2.51-3.83s-1.87-2.71-2.93-4.15-2.16-2.9-3.28-4.49c-.52-.73-1.2-1.67-1.95-2.85a31.13,31.13,0,0,1-2.32-4.29,22.46,22.46,0,0,1-1.77-6.54,19.35,19.35,0,0,1,.92-8.29,21.12,21.12,0,0,1,3.45-6.2,27.23,27.23,0,0,1,3.55-3.66l.8-.67.73-.57c.49-.38,1-.78,1.47-1.12,1-.71,2-1.41,3-2a65.36,65.36,0,0,1,6-3.21A109.24,109.24,0,0,1,283.92,237c3.51-1.21,6.87-2.29,9.7-3.45,5.8-2.37,10.95-5.52,13.52-9.55a12.28,12.28,0,0,0,1.57-3.21c.21-.73.43-1.68.74-2.8a24,24,0,0,1,1.38-3.93,14.41,14.41,0,0,1,3.31-4.67c.4-.35.83-.71,1.24-1l1.08-.7a17,17,0,0,1,2.21-1.12,23.72,23.72,0,0,1,7.55-1.56c1-.06,1.89-.14,2.62-.22l.34-.05a.75.75,0,0,0,.2,0l.42-.12a3,3,0,0,0,1.41-1.06l.18-.3a.94.94,0,0,1,.06-.15l.09-.26c.15-.44.33-1.24.63-2.39a16.9,16.9,0,0,1,1.73-4.28,11.33,11.33,0,0,1,4.92-4.56,9.93,9.93,0,0,1,3.88-1,11.34,11.34,0,0,1,3.46.43,15.21,15.21,0,0,1,4.41,2.15,36.42,36.42,0,0,1,5,4.39c.66.66,1.27,1.29,1.8,1.76.25.22.47.41.6.51s.08.06,0,0,.05,0,.11,0l.18.07a6.94,6.94,0,0,0,3.07.67,10.64,10.64,0,0,0,3.36-.82,18.42,18.42,0,0,0,3.43-2,26,26,0,0,0,3.26-2.75,21.05,21.05,0,0,0,1.48-1.64l.71-.85.65-.9c.46-.57.83-1.22,1.24-1.82L376,189l.57-1c.82-1.43,1.6-3,2.41-4.61,1.62-3.24,3.33-6.77,5.54-10.48a50.39,50.39,0,0,1,9-11.39,39,39,0,0,1,6.77-5.06,38.06,38.06,0,0,1,8-3.55,46.74,46.74,0,0,1,16.38-2.07,67.9,67.9,0,0,1,14.65,2.32q3.42.94,6.62,2.12c1.09.38,2.12.8,3.18,1.2l2.94,1.19c.92.4,1.91.76,2.76,1.2a11.84,11.84,0,0,1,2.43,1.59,35.63,35.63,0,0,1,3.9,4.27,16.48,16.48,0,0,0,1.89,1.93,13.31,13.31,0,0,0,2.07,1.38c1.41.78,2.77,1.51,4.1,2.14.68.33,1.32.56,2,.85s1.29.49,1.92.7,1.27.39,1.87.51l.92.22.9.16a36.89,36.89,0,0,0,8,.25c3.09-.21,6.5-.56,10.34-.87,1.9-.14,3.93-.29,6-.36s4.31-.07,6.58,0a52.4,52.4,0,0,1,14.66,2.56,47.34,47.34,0,0,1,7.2,3c.6.31,1.19.67,1.78,1s1.17.7,1.74,1.11l1.73,1.21,1.68,1.37a31.92,31.92,0,0,1,6,6.74,30.7,30.7,0,0,1,2.29,4.08c.31.72.59,1.45.86,2.18l.4,1.09.31,1.11a31.83,31.83,0,0,1,.87,4.39,37.33,37.33,0,0,1,.22,4.16,42,42,0,0,1-.67,7.28c-.76,4.38-1.79,7.95-2.4,11a25.72,25.72,0,0,0-.57,4.16,19.29,19.29,0,0,0,.17,3.83,35.54,35.54,0,0,0,2.62,8.68c1.25,3.09,3,6.29,4.69,9.83.89,1.74,1.78,3.54,2.62,5.44s1.71,3.86,2.44,5.94a46.23,46.23,0,0,1,2.89,13.61c.06,1.19.06,2.39,0,3.57,0,.59-.05,1.18-.1,1.76l0,.44c0,.15-.06.49-.09.72-.08.52-.17,1-.28,1.54a17.08,17.08,0,0,1-2.63,5.86,19.27,19.27,0,0,1-4,4.12,23.29,23.29,0,0,1-4,2.5,35,35,0,0,1-3.66,1.57,57.7,57.7,0,0,1-6.36,1.87l-2.76.57c-.43.09-.89-.09-1.29.06a9.22,9.22,0,0,0-1.07.6,25.63,25.63,0,0,0-2.84,2.74,3.69,3.69,0,0,0-1.21,1.23,4.86,4.86,0,0,0-.48,1.31,3,3,0,0,0,0,1.29,1.33,1.33,0,0,0,.17.43,11,11,0,0,1,.35,1.07,57.62,57.62,0,0,1,1.49,5.82,26.83,26.83,0,0,1-.12,11.15,23.7,23.7,0,0,1-1.09,3.42,27.8,27.8,0,0,1-1.32,2.81c-.88,1.64-1.67,2.82-2.18,3.66a5,5,0,0,0-.75,1.44s0,0,0,.11l-.08.26c0,.16-.07.3-.09.45a7.62,7.62,0,0,0,.26,3.61l.91,4.86c.33,1.9.73,4.1.93,6.56a49.78,49.78,0,0,1,.1,8.26c0,.74-.14,1.51-.23,2.28s-.24,1.67-.41,2.51a35.13,35.13,0,0,1-1.48,5.29,32.23,32.23,0,0,1-2.56,5.4,33.53,33.53,0,0,1-3.65,4.95,45.58,45.58,0,0,1-6.94,6.27c-1.93,1.44-3.3,2.41-4,3.06s-.79.84-.37.39a2.56,2.56,0,0,0,.34-.44,4.93,4.93,0,0,0,.28-.43c.07-.08.1-.22.11-.18h0l0,.14c-.12.38-.37,1.63-.76,3.69a51.3,51.3,0,0,1-2.38,8.47c-.38.92-.78,1.85-1.26,2.81a29,29,0,0,1-1.69,3,30.06,30.06,0,0,1-4.58,5.55,33.42,33.42,0,0,1-10.67,6.73,25.29,25.29,0,0,1-9.48,2.11,18.92,18.92,0,0,1-4.18-.47c-.69-.17-1.25-.36-1.85-.56s-1.2-.44-1.77-.71a64.48,64.48,0,0,1-6.53-3.62,42.88,42.88,0,0,0-5.88-3.08,41.66,41.66,0,0,0-5.61-1.59,69.11,69.11,0,0,0-10.74-1.82,41.18,41.18,0,0,0-10.1.49,37.85,37.85,0,0,0-9.07,2.71,20.23,20.23,0,0,0-6.94,4.82,25.92,25.92,0,0,0-2.54,3.4c-.86,1.32-1.69,2.85-2.66,4.5s-2,3.47-3.4,5.38a31.63,31.63,0,0,1-5.2,5.77,26.42,26.42,0,0,1-7.63,4.6,33.67,33.67,0,0,1-8.17,2,52.19,52.19,0,0,1-13.82-.59c-2-.3-3.78-.65-5.62-1a32.94,32.94,0,0,1-5.42-1.4c-3.55-1.23-6.93-3.35-10.39-5.05-1.72-.89-3.48-1.58-5.22-2.38s-3.48-1.62-5.23-2.35c-3.5-1.48-7.22-1.87-10.86-2.66s-7.31-1.38-11-2.07l-11-1.84c-7.35-1.25-14.72-2.32-22.07-3.53s-14.69-2.44-22.06-3.55c-3.64-.57-7.51-1.13-11.56-2.09a46.7,46.7,0,0,1-12.55-4.74,31.65,31.65,0,0,1-6-4.52,33.27,33.27,0,0,1-4.75-5.73,74.23,74.23,0,0,1-5.77-11.29,86.7,86.7,0,0,0-4.31-9.16,14.72,14.72,0,0,0-2.08-2.84,6,6,0,0,0-1.59-1.18,3.49,3.49,0,0,1-.34-.15,2.92,2.92,0,0,1-.4-.1,4.36,4.36,0,0,0-.85-.1,9.64,9.64,0,0,0-2.64.3c-2.44.48-5.87,1.89-10.37,3a34.59,34.59,0,0,1-7.45,1.08,41.32,41.32,0,0,1-7.08-.41,114.9,114.9,0,0,1-11.72-2.54l-2.53-.59-1.21-.27-1.1-.22a29.23,29.23,0,0,0-4.31-.46,15.53,15.53,0,0,0-7.13,1.2,6.57,6.57,0,0,0-2.11,1.55,9.78,9.78,0,0,0-1.69,2.92c-.57,1.36-1.1,3.05-1.75,5a32.67,32.67,0,0,1-2.85,6.46,16.68,16.68,0,0,1-6.29,6.15,15.26,15.26,0,0,1-8.82,1.82,19.91,19.91,0,0,1-7.44-2.33,28.36,28.36,0,0,1-5.6-4,36.64,36.64,0,0,1-4.46-4.79c-1.39-1.84-2.3-3.34-3.33-4.89a48.9,48.9,0,0,0-6.2-8,10.68,10.68,0,0,0-7.21-3.49,13.14,13.14,0,0,0-4.33.73c-1.57.51-3.21,1.21-5,1.94a42.44,42.44,0,0,1-5.68,2,31.25,31.25,0,0,1-3.13.58l-1.58.13-.79.05-.78,0a27.22,27.22,0,0,1-11.8-3,32.16,32.16,0,0,1-9.36-7.25,31.21,31.21,0,0,1-6.08-10c-.29-.95-.66-1.8-.91-2.81a19.36,19.36,0,0,1-.44-2.94,43.86,43.86,0,0,1,0-5.73,80.42,80.42,0,0,1,1.43-11.18,88.52,88.52,0,0,1,2.86-10.86,54.18,54.18,0,0,1,2-5.22,38.35,38.35,0,0,1,2.6-5,20,20,0,0,1,3.58-4.31,9.51,9.51,0,0,1,5-2.43,9.34,9.34,0,0,1,5.44,1,19.08,19.08,0,0,1,4.51,3.26Zm-.06.06a19.54,19.54,0,0,0-4.64-3,8.19,8.19,0,0,0-9.72,1.8,15.16,15.16,0,0,0-1.72,2,21.05,21.05,0,0,0-1.45,2.25c-3.42,6.34-5.32,13.54-6.59,20.74a77.11,77.11,0,0,0-1.1,10.92,40.69,40.69,0,0,0,.17,5.42,17.08,17.08,0,0,0,.44,2.56c.22.79.6,1.66.89,2.48a29.45,29.45,0,0,0,14.5,15.2,23.7,23.7,0,0,0,10.31,2.34h.66l.66-.08,1.32-.14c.88-.1,1.73-.39,2.6-.57a35.6,35.6,0,0,0,5.06-2c1.68-.78,3.38-1.59,5.18-2.26a18.43,18.43,0,0,1,5.69-1.23,14.11,14.11,0,0,1,5.78,1.11,18.24,18.24,0,0,1,4.86,3.16,51.37,51.37,0,0,1,7.31,8.61c1.1,1.5,2.15,3.05,3.29,4.46a29.48,29.48,0,0,0,3.86,3.88c2.78,2.32,6.1,4.24,9.7,4.52a8.84,8.84,0,0,0,5.13-1.14,10,10,0,0,0,3.7-3.83c1.81-3.19,2.42-6.94,3.67-10.46a18.63,18.63,0,0,1,2.54-5,13.85,13.85,0,0,1,4.2-3.72,22.38,22.38,0,0,1,10.79-2.7,46.44,46.44,0,0,1,11.09,1.29c3.64.77,7.27,1.63,11,2.05a27.66,27.66,0,0,0,11-.75c3.59-1,7-2.55,10.62-3.44a18.37,18.37,0,0,1,5.52-.58,13.31,13.31,0,0,1,5.35,1.46,14.83,14.83,0,0,1,4.33,3.47,25.26,25.26,0,0,1,3.11,4.62,103,103,0,0,1,4.47,10.22,64.53,64.53,0,0,0,4.8,10.07,23.76,23.76,0,0,0,7.77,7.87,39.4,39.4,0,0,0,10.29,4.24c3.58,1,7.25,1.68,10.9,2.39l21.91,4.29,87.67,17.12a48.08,48.08,0,0,0,11.09,1,18.55,18.55,0,0,0,10.42-3.52c6-4.55,9-11.87,14.58-16.82a27.85,27.85,0,0,1,4.5-3.28,31.83,31.83,0,0,1,5-2.43,46.14,46.14,0,0,1,10.81-2.69c7.39-1,14.87-.43,22.28.09s14.9,1.08,22.29,0c3.64-.6,7.34-1.82,10.07-4.41a13,13,0,0,0,3-4.65,33.39,33.39,0,0,0,1.45-5.38c.38-1.82.72-3.66,1.27-5.44a15,15,0,0,1,2.46-5c2.31-3,5.6-4.88,8.62-7a27.49,27.49,0,0,0,4.26-3.58,14.88,14.88,0,0,0,3-4.69,20.15,20.15,0,0,0,1.29-5.41,34.58,34.58,0,0,0,.17-5.57c-.15-3.73-.71-7.41-1-11.13a22.79,22.79,0,0,1,4.85-15.64,14.85,14.85,0,0,0,2.66-4.87,14,14,0,0,0,.2-5.54c-.24-1.84-.69-3.65-1-5.49a17.58,17.58,0,0,1-.14-5.56,16.35,16.35,0,0,1,1.71-5.28,16.71,16.71,0,0,1,3.34-4.44,17.6,17.6,0,0,1,4.65-3.06c3.39-1.57,7.09-2.24,10.71-3.07,1.81-.41,3.62-.86,5.39-1.45a18.21,18.21,0,0,0,5-2.46,8.14,8.14,0,0,0,3.17-4.46,27.84,27.84,0,0,0,.44-5.55,35.23,35.23,0,0,0-1.93-10.95c-2.33-7.1-6.31-13.47-9.48-20.19a49.7,49.7,0,0,1-3.72-10.5,29.53,29.53,0,0,1-.67-5.54,38.44,38.44,0,0,1,.3-5.57c.43-3.7,1.19-7.35,1.6-11.05a34.56,34.56,0,0,0,.22-5.57,19.71,19.71,0,0,0-1-5.48l-.21-.66-.28-.64c-.19-.43-.36-.86-.56-1.28a20.71,20.71,0,0,0-1.48-2.36,19.52,19.52,0,0,0-3.89-4,26.86,26.86,0,0,0-4.76-2.89,33.82,33.82,0,0,0-5.24-1.9,41.14,41.14,0,0,0-11-1.42c-3.72,0-7.43.38-11.13.78-7.37.8-14.86,1.8-22.25.58s-14.24-4.37-20.83-7.77-13.07-7.18-20.12-9.64a50.42,50.42,0,0,0-10.82-2.63,31.55,31.55,0,0,0-11.09.45,25.48,25.48,0,0,0-10,4.74,42.76,42.76,0,0,0-7.74,8c-2.27,2.95-4.33,6-6.45,9.11a62.19,62.19,0,0,1-6.92,8.75,35.36,35.36,0,0,1-8.9,6.66,24.87,24.87,0,0,1-5.2,2,18.8,18.8,0,0,1-5.54.53c-.46,0-.92-.12-1.38-.18l-.69-.1-.67-.2c-.45-.13-.9-.24-1.34-.39l-1.28-.57a8.26,8.26,0,0,1-2.31-1.54c-.71-.61-1.38-1.24-2.06-1.88a35.6,35.6,0,0,0-4.27-3.59,9,9,0,0,0-2.5-1.21,3.84,3.84,0,0,0-2.71.16,4.6,4.6,0,0,0-2,1.9,9.68,9.68,0,0,0-1,2.58,14.47,14.47,0,0,1-1.94,5.21,10,10,0,0,1-4.29,3.46,18.79,18.79,0,0,1-5.46,1,18.57,18.57,0,0,0-5.42,1.23,8.33,8.33,0,0,0-2.33,1.51,7.17,7.17,0,0,0-1.5,2.33,29.24,29.24,0,0,0-1.31,5.41,21.86,21.86,0,0,1-1.79,5.27,24.7,24.7,0,0,1-3,4.72,30.55,30.55,0,0,1-3.84,4,49.76,49.76,0,0,1-9.16,6.35c-6.55,3.56-13.61,6.05-20.17,9.58a47.51,47.51,0,0,0-9.2,6.25,11,11,0,0,0-3.25,4.44,7.39,7.39,0,0,0,.48,5.4,27.13,27.13,0,0,0,3,4.71l3.29,4.51a97.33,97.33,0,0,1,6.13,9.33,39.8,39.8,0,0,1,4.16,10.34,23.71,23.71,0,0,1,0,11.08,20.69,20.69,0,0,1-5.2,9.74,14,14,0,0,1-10,4.25c-3.77.06-7.36-1.39-10.59-3.19s-6.29-4-9.41-6a36.68,36.68,0,0,0-20.93-6.62,50.2,50.2,0,0,0-11.07,1.14,81.94,81.94,0,0,0-10.74,3,204.65,204.65,0,0,0-20.49,8.83c-3.37,1.57-6.79,3.07-10.29,4.33a53.6,53.6,0,0,1-10.8,2.8,32.45,32.45,0,0,1-11.12-.22A34.76,34.76,0,0,1,142,322.24c-3.23-1.85-6.31-3.94-9.53-5.8a43,43,0,0,0-5-2.53,27.49,27.49,0,0,0-5.33-1.6,19.16,19.16,0,0,0-10.94.76,11.82,11.82,0,0,0-4.47,3.21,17.39,17.39,0,0,0-2.81,4.78c-.73,1.7-1.35,3.46-2.09,5.17a14.84,14.84,0,0,1-3,4.7,7.42,7.42,0,0,1-2.35,1.52,6.4,6.4,0,0,1-2.73.54,7.5,7.5,0,0,1-2.73-.54,10.48,10.48,0,0,1-2.46-1.34,16,16,0,0,1-3.85-4,33.24,33.24,0,0,1-2.58-4.95c-.77-1.69-1.51-3.4-2.4-5a16.82,16.82,0,0,0-3.39-4.38Z"/></svg>