<svg id="Layer_1" data-name="Layer 1" xmlns="http://www.w3.org/2000/svg" viewBox="0 0 600 600"><title>Bahrain</title><path d="M338.34,118a8.65,8.65,0,0,1-.68-4.68c0-.8.07-1.59.06-2.39a17,17,0,0,0-.24-2.36,29.19,29.19,0,0,0-1.21-4.54,23.16,23.16,0,0,0-1.88-4.21,15.19,15.19,0,0,0-6.43-6,10,10,0,0,0-8.18-.1,25.48,25.48,0,0,0-7.22,5.17l-3.44,3.29a30.79,30.79,0,0,1-4,3.2,24.92,24.92,0,0,1-4.72,2.5,15.23,15.23,0,0,1-5.7,1.09,11.54,11.54,0,0,1-6.11-1.86,24.27,24.27,0,0,1-4.1-3.72A16,16,0,0,0,283,102a12.08,12.08,0,0,0-1.57-1A12.24,12.24,0,0,0,278,99.64a5.77,5.77,0,0,0-2.85-.06,2.55,2.55,0,0,0-.81.39,5.15,5.15,0,0,0-.48.59c-.41.6-1,1.77-1.8,3.44a16.56,16.56,0,0,1-1.78,2.75,11.53,11.53,0,0,1-3.09,2.74,10.93,10.93,0,0,1-1.94,1c-.37.16-.57.21-.85.31s-.53.18-.79.25a23.09,23.09,0,0,1-3.14.65,37,37,0,0,1-5.74.25c-1.76,0-3.39-.16-4.84-.17s-3,0-4.45,0c-3,.09-5.93.33-8.86.67A87,87,0,0,0,228,113.9a80.85,80.85,0,0,0-8.19,2.36,48.06,48.06,0,0,0-7.41,3.3c-.55.34-1.15.62-1.67,1s-1.05.71-1.59,1a10.43,10.43,0,0,0-1.85,1.71,5.32,5.32,0,0,0-1.5,3.22,3.56,3.56,0,0,0,.21.88,10.86,10.86,0,0,0,.94,2c.52.9,1.23,2,2.11,3.24l1.41,2.08.77,1.18c.29.49.61,1.09.9,1.64l.88,1.69c.26.59.47,1.2.7,1.8s.44,1.22.63,1.83l.44,1.86c.12.62.29,1.26.35,1.87l.18,1.83a28.34,28.34,0,0,1,.07,3.55,47.56,47.56,0,0,1-2.18,12c-1,3.43-2.13,6.46-3,9.16l-.61,1.95-.49,1.79-.34,1.63c-.09.57-.19,1.14-.24,1.74a42.23,42.23,0,0,0-.08,7.66c.13,2.74.46,5.63.87,8.67l.62,4.39.16.89c0,.1-.08-.12-.28-.32s.06.16.65.81c.29.33.67.75,1.11,1.28s.9,1.17,1.31,1.77a24.68,24.68,0,0,1,3.13,7,55.4,55.4,0,0,1,1.2,5.49c.28,1.56.49,2.75.76,3.78a37.45,37.45,0,0,0,2.94,7.16c1.3,2.61,3,5.45,4.47,8.61a114,114,0,0,1,7.5,19.2l.72,2.47.36,1.23.29,1.25,1.15,5c.6,3.37,1.22,6.72,1.59,10.12a119.3,119.3,0,0,1,.85,20.44c0,.85,0,1.71-.07,2.56s-.11,1.71-.15,2.57l-.13,2.57c0,.86-.08,1.71-.16,2.57-.12,1.72-.25,3.44-.32,5.19l-.49,5.21a105.06,105.06,0,0,1-3.92,21c-2,6.85-4.84,12.6-6.63,17.81a46.81,46.81,0,0,0-1.93,7.15,19.88,19.88,0,0,0-.23,5.54,13.79,13.79,0,0,0,1.2,4.34,37.73,37.73,0,0,0,3,5.42c.67,1,1.4,2.14,2.2,3.31l1.25,1.81.33.47a3.36,3.36,0,0,0,.27.38l.37.46a41.36,41.36,0,0,0,4.28,4.33c.95.84,2,1.72,3.17,2.73s2.4,2.09,3.74,3.3,2.75,2.52,4.2,4c.71.7,1.48,1.55,2.23,2.38s1.43,1.66,2.13,2.5a97.84,97.84,0,0,1,6.78,9.69,18.89,18.89,0,0,1,2.28,4.59,30.63,30.63,0,0,1,1,4.79,18.51,18.51,0,0,0,1.09,4.24c.52,1.26,1.08,2.4,1.55,3.39A49.58,49.58,0,0,0,269,438c3.37,4.69,7.83,9.81,12,16a55.69,55.69,0,0,1,5.57,10.38,26.72,26.72,0,0,1,1,2.89c.33,1,.62,1.95.86,2.95a50.71,50.71,0,0,1,1,5.78,88.31,88.31,0,0,1,.42,10.41c0,3.24,0,6.14.22,9.16a96,96,0,0,0,3,18q1.19,4.46,2.71,8.85t3.36,8.81c.59,1.44,1.25,2.86,1.92,4.26l1.05,2.18c.38.81.68,1.6,1,2.35.62,1.5,1.18,2.93,1.81,4.21a10.12,10.12,0,0,0,2.2,3.13c.22.24.42.21.25.23a.41.41,0,0,0-.24.11s0,0,0-.07.08-.27,0-.91a10.34,10.34,0,0,0-.61-1.8,32.5,32.5,0,0,0-2.09-3.9c-.79-1.32-1.7-2.71-2.49-4.31a15,15,0,0,1-1.6-5.43,14.49,14.49,0,0,1,.75-5.68,26.61,26.61,0,0,1,5.42-8.92,41.94,41.94,0,0,1,3.59-3.59c1.26-1.1,2.56-2.14,3.88-3.11s2.66-1.89,4-2.8l3.85-2.77a38.49,38.49,0,0,0,6.79-6.05c.5-.53.92-1.13,1.36-1.7s.72-1.16,1.09-1.73.59-1.22.88-1.82.47-1.28.67-1.93a30.85,30.85,0,0,0,1.12-8.42c0-3-.24-6-.52-9.1s-.64-6.36-.81-9.83l-.34-9.72c-.41-12.82-.73-25.66-.65-38.49,0-3.21.11-6.41.18-9.61s.11-6.41.29-9.61l.49-9.59.26-4.79a27.24,27.24,0,0,1,.77-4.74c.78-3.14,2.36-6.18,3.67-9.24a39.24,39.24,0,0,0,2.86-9.32c.63-3.13,1.35-6.27,1.95-9.45s1.21-6.38,1.78-9.6l1.71-9.74c.61-3.26,1.31-6.52,2.06-9.82.19-.82.35-1.65.56-2.47l.3-1.24c.11-.42.18-.79.34-1.33a46.71,46.71,0,0,1,1.9-5.56c1.4-3.27,2.28-5.92,2.16-7.19a1.75,1.75,0,0,0-.52-1.2c0-.06-.14-.16-.2-.24a3.25,3.25,0,0,0-.23-.28,3.14,3.14,0,0,1-.25-.32,3,3,0,0,1-.28-.25c-.43-.45-1.23-1.26-2.18-2.35s-2.15-2.4-3.47-4.18a24.77,24.77,0,0,1-3.75-7.41c-.22-.83-.45-1.83-.57-2.6S341,282,341,281.22a23.49,23.49,0,0,1,.09-4.3,32.88,32.88,0,0,1,1.46-6.74c.55-1.77,1-3.13,1.41-4.06a11,11,0,0,1,.53-1.15,3.24,3.24,0,0,1,.22-.35,1.37,1.37,0,0,1,.25-.24c.29-.27.78-.35,1-1.13.57-1.46-.91-5.74-1.41-10.06a25.78,25.78,0,0,1,0-6.85,25.29,25.29,0,0,1,.56-3.17,25.66,25.66,0,0,1,3.6-8.61,21.49,21.49,0,0,1,2-2.48,16,16,0,0,1,2.67-2.28,20,20,0,0,1,5.67-2.51c1.7-.49,3.18-.83,4.31-1.22a5.9,5.9,0,0,0,2.29-1.23,2.88,2.88,0,0,1,.32-.39c.09-.16.18-.33.29-.49a4.94,4.94,0,0,0,.41-1.21,6.13,6.13,0,0,0-.18-2.89,20.39,20.39,0,0,0-1.5-3.72c-1.29-2.69-3.17-5.52-4.3-9.28a15,15,0,0,1-.55-6.21,10.64,10.64,0,0,1,.31-1.59,3.39,3.39,0,0,1,.15-.54,4.68,4.68,0,0,1,.41-.91,5.15,5.15,0,0,1,1.17-1.4,6.39,6.39,0,0,1,2.22-1.17,10.21,10.21,0,0,1,1.72-.38,32.13,32.13,0,0,1,5.38-.13c1.6.06,3.25.16,4.39.09.26,0,.5-.07.35,0a1,1,0,0,0-.23.12l.17-.1.34-.21a9.62,9.62,0,0,0,1.37-1.13,35.56,35.56,0,0,0,2.86-3.37A41.44,41.44,0,0,1,384.1,186a16.05,16.05,0,0,1,4.84-3.28,32.77,32.77,0,0,1,5-1.68c1.69-.43,3.14-.72,4.36-1.15a4.48,4.48,0,0,0,2.29-1.4,1.76,1.76,0,0,0,.28-.82,4.6,4.6,0,0,0,0-1.4,1.36,1.36,0,0,0-.26-.64,1.18,1.18,0,0,0-.58-.31,8.25,8.25,0,0,0-3.3,0,32.16,32.16,0,0,0-8.13,2.76,44.27,44.27,0,0,0-7.39,4.89c-1.25,1-2.54,2-3.91,2.93l-1.92,1.37c-.65.46-1.31.95-2.09,1.46a14,14,0,0,1-2.78,1.44,6.65,6.65,0,0,1-.92.29l-.5.11-.57.07a4.71,4.71,0,0,1-1.19,0,5,5,0,0,1-1.25-.22,7,7,0,0,1-2.19-1.1c-.27-.23-.55-.47-.81-.71a8.28,8.28,0,0,1-.64-.72,18.79,18.79,0,0,1-1.82-2.74,50.53,50.53,0,0,1-2.41-5.19c-.7-1.67-1.3-3.29-1.87-4.78s-1-2.86-1.43-4c-.18-.59-.39-1.09-.55-1.55,0-.21-.23-.55-.31-.84s-.23-.59-.35-.88a21.67,21.67,0,0,0-3.82-6.27,13.81,13.81,0,0,0-2.47-2.23A11.12,11.12,0,0,0,344.7,158c-.23-.07-.48-.18-.7-.24s-.38-.08-.58-.14a6.9,6.9,0,0,0-1.31-.1,9.53,9.53,0,0,0-2.86.53,7.85,7.85,0,0,0-4.31,3.44,4.29,4.29,0,0,0-.51,2.39,9,9,0,0,0,.87,3.36,43.68,43.68,0,0,0,2,3.93c.76,1.37,1.6,2.81,2.36,4.38a18.13,18.13,0,0,1,1.72,5.3,9.46,9.46,0,0,1-1,5.79l0,.08-.23.49-.26.15a25.36,25.36,0,0,1-2.42,1.51l-.65.32-.7.23a7,7,0,0,1-1.42.36,13.17,13.17,0,0,1-5.77-.26,20.87,20.87,0,0,1-5.18-2,24.51,24.51,0,0,1-4.47-3.09,26.19,26.19,0,0,1-3.75-3.91c-.28-.35-.55-.72-.82-1.09l-.69-1c-.46-.7-.92-1.39-1.35-2.11q-2.56-4.29-4.7-8.81a91.05,91.05,0,0,1-3.76-9.23c-.53-1.59-1.07-3.06-1.53-5a25.62,25.62,0,0,1-.55-5.53,18.08,18.08,0,0,1,.93-5.74,11.33,11.33,0,0,1,1.47-2.9l.53-.69a7.57,7.57,0,0,1,.63-.64,6.92,6.92,0,0,1,1.45-1.1,7.25,7.25,0,0,1,1.65-.76,11.62,11.62,0,0,1,1.71-.37,9.06,9.06,0,0,1,3.38.28,14.34,14.34,0,0,1,5,2.79c1.33,1,2.49,2.13,3.66,2.94a18,18,0,0,0,1.83,1.13c.32.16.63.35,1,.5l1,.41a24.08,24.08,0,0,0,8.89,1.49,69.86,69.86,0,0,0,18.6-3.33,8.14,8.14,0,0,0,3.79-2.48,6.23,6.23,0,0,0,1.11-2,7.4,7.4,0,0,0,.35-2.29,12.28,12.28,0,0,0-3.79-8.43,8.35,8.35,0,0,0-.88-.8l-.46-.38-.49-.33a12.45,12.45,0,0,0-2.14-1c-1.49-.57-3-1-4.58-1.43a30.5,30.5,0,0,1-4.54-1.58,7.89,7.89,0,0,1-3.66-3Zm.08,0a5.16,5.16,0,0,0,1.68,1.67,10.72,10.72,0,0,0,2.09,1.11,31.92,31.92,0,0,0,4.56,1.35c1.56.38,3.13.72,4.7,1.23a13.48,13.48,0,0,1,2.32,1l.57.34.51.39a9.46,9.46,0,0,1,1,.81,13.7,13.7,0,0,1,4.5,9.07,9.14,9.14,0,0,1-.29,2.74,7.82,7.82,0,0,1-1.25,2.54,10.1,10.1,0,0,1-4.36,3.26c-1.61.68-3.16,1.12-4.7,1.61s-3.1.94-4.68,1.36a56,56,0,0,1-9.76,1.79,28.13,28.13,0,0,1-10.27-.9l-1.27-.4c-.43-.15-.83-.34-1.24-.51a20.17,20.17,0,0,1-2.41-1.22c-1.56-.91-2.84-1.92-4.09-2.75a10.59,10.59,0,0,0-3.44-1.68,3.68,3.68,0,0,0-1.4,0,6.17,6.17,0,0,0-.65.19c-.16.12-.39.13-.53.29a4.29,4.29,0,0,0-1.49,2.43,12.33,12.33,0,0,0-.35,3.86,19.11,19.11,0,0,0,.69,4.1c.32,1.25.92,2.78,1.46,4.22q1.69,4.35,3.78,8.53t4.56,8.14l1.22,2,.62,1c.21.3.41.59.6.9a36.88,36.88,0,0,0,2.63,3.51c.46.57,1,1.08,1.46,1.64s1,1,1.59,1.51a16.19,16.19,0,0,0,3.54,2.49,8.64,8.64,0,0,0,4,1.08,4.46,4.46,0,0,0,1-.06l.53,0,.5-.15a5.48,5.48,0,0,0,1.94-.91l-.27.35,0-.06c1-2.7-.08-5.58-1.8-8.09s-3.83-5-5.49-7.89a15.63,15.63,0,0,1-1.91-4.82,10.09,10.09,0,0,1,.3-5.44,13.9,13.9,0,0,1,7.15-7.68,15.71,15.71,0,0,1,5.1-1.44,15.09,15.09,0,0,1,2.69,0l1.35.19c.44.09.86.21,1.29.31a20,20,0,0,1,8.77,5.39,29.53,29.53,0,0,1,5.64,8.36,22,22,0,0,1,1,2.34,19.58,19.58,0,0,1,.69,2.48,35.08,35.08,0,0,1,.6,4.89c.12,1.6.22,3.17.4,4.7a17.51,17.51,0,0,0,1,4.43,8.06,8.06,0,0,0,1,1.91,2.7,2.7,0,0,0,1.44,1.14c1.11.35,2.54-.33,3.81-1.14s2.6-1.81,3.91-2.67,2.56-1.84,3.84-2.79a47.27,47.27,0,0,1,8.14-5.19,35.54,35.54,0,0,1,9.2-2.94,11.32,11.32,0,0,1,4.94.16,4.74,4.74,0,0,1,2.21,1.38,4.81,4.81,0,0,1,1.09,2.34,8.08,8.08,0,0,1,.06,2.5,5.28,5.28,0,0,1-.87,2.39,7.76,7.76,0,0,1-4.08,2.75c-1.54.53-3.12.82-4.64,1.2a29.81,29.81,0,0,0-4.49,1.46c-2.94,1.18-5,3.67-7,6.13-1,1.23-2,2.51-3.09,3.65a13.68,13.68,0,0,1-1.84,1.56,5.31,5.31,0,0,1-1.07.61,5.16,5.16,0,0,1-1.21.23c-3.2.19-6.38-.31-9.52.12a4.47,4.47,0,0,0-2.15.78,1.54,1.54,0,0,0-.53.95,8.94,8.94,0,0,0-.21,1.15,11.18,11.18,0,0,0,.51,4.66c.95,3,2.72,5.71,4.21,8.51a25.85,25.85,0,0,1,1.94,4.37,10.41,10.41,0,0,1,.48,4.73A8.6,8.6,0,0,1,369,227.7a9.87,9.87,0,0,1-3.94,2.64c-2.94,1.18-6.19,1.67-8.81,3.52a15.08,15.08,0,0,0-5.17,7.82,15.82,15.82,0,0,0,0,9.39,27.19,27.19,0,0,0,1.91,4.36,39.44,39.44,0,0,1,2.1,4.28,12.34,12.34,0,0,1,.9,4.65,19.13,19.13,0,0,1-.68,4.7c-.79,3.08-2.07,6-2.43,9.21a13.25,13.25,0,0,0,.26,4.74,15.79,15.79,0,0,0,2,4.29c1.71,2.67,3.85,5.07,5.33,7.89a13.11,13.11,0,0,1,1.21,9.25c-.76,3.11-2.42,5.87-3.83,8.71a33.12,33.12,0,0,0-1.89,4.37c-.5,1.51-.95,3-1.38,4.57a164.39,164.39,0,0,0-3.95,18.65c-1,6.28-1.74,12.59-2.48,18.91l-2.13,19q-4.1,37.93-6.89,76c-.22,3.17-.47,6.34-.65,9.51s-.12,6.36-.14,9.54a94.47,94.47,0,0,1-.4,9.52,34.67,34.67,0,0,1-2.11,9.27,21.84,21.84,0,0,1-5.29,7.85,55.39,55.39,0,0,1-7.37,6c-5.17,3.66-10.67,7.05-14.8,11.94a24.77,24.77,0,0,0-4.93,8.09,11.9,11.9,0,0,0-.63,4.69,12.79,12.79,0,0,0,1.35,4.55c1.42,2.84,3.37,5.4,4.6,8.34a12,12,0,0,1,.74,2.27,3.82,3.82,0,0,1-.11,2.34,2.25,2.25,0,0,1-1.75,1.46,2.86,2.86,0,0,1-2.18-.79,13.42,13.42,0,0,1-2.83-3.81c-.75-1.4-1.36-2.87-2-4.32a44.52,44.52,0,0,0-2.15-4.25c-.75-1.41-1.47-2.82-2.17-4.25a180.31,180.31,0,0,1-7.56-17.5,111.8,111.8,0,0,1-4.9-18.41c-1.18-6.26-1.34-12.66-2.67-18.88A37.36,37.36,0,0,0,272.67,461c-4.09-4.87-8.84-9.13-13.26-13.7a73.8,73.8,0,0,1-6.24-7.21,86.11,86.11,0,0,1-5.17-8c-3.2-5.48-6.19-11.13-10.11-16.15s-9-9-13.55-13.39a48.56,48.56,0,0,1-6.24-7.19c-1.75-2.66-3.42-5.37-5-8.15a47.27,47.27,0,0,1-3.82-8.72,29.39,29.39,0,0,1-1.39-9.4c.09-6.39,2.16-12.56,4.71-18.36s5.66-11.39,8.26-17.19a105.69,105.69,0,0,0-3.15-92.1c-2.91-5.64-6.68-10.88-8.64-17-1-3-1.36-6.21-2.31-9.25a16,16,0,0,0-2-4.3c-.89-1.32-2.17-2.31-3.11-3.61a11.2,11.2,0,0,1-1.7-4.43c-.29-1.56-.54-3.13-.81-4.7-.51-3.14-1-6.29-1.23-9.46a53.22,53.22,0,0,1,0-9.53,42.27,42.27,0,0,1,2-9.31c1-3,2-6,3-9.06a38.17,38.17,0,0,0,1.82-9.32,17.84,17.84,0,0,0-1.9-9.2c-1.45-2.82-3.46-5.32-4.93-8.15a18.8,18.8,0,0,1-1.74-4.44,12.3,12.3,0,0,1-.15-4.76,15.57,15.57,0,0,1,4.49-8.27,27,27,0,0,1,8-5.2,56.75,56.75,0,0,1,8.93-3.34c12.27-3.45,25.26-3.81,37.85-2.16A29,29,0,0,0,260,106a14.35,14.35,0,0,0,2.35-.36,7.88,7.88,0,0,0,2.22-.81,8.87,8.87,0,0,0,3.18-3.42,26.42,26.42,0,0,1,2.61-4,7.29,7.29,0,0,1,1.89-1.47,7,7,0,0,1,2.28-.7,10.57,10.57,0,0,1,4.73.51,17.22,17.22,0,0,1,4.28,2.11,16.52,16.52,0,0,1,3.55,3.18,20.42,20.42,0,0,0,3.33,3.37,8.44,8.44,0,0,0,4.41,1.54,16.16,16.16,0,0,0,9-2.72c2.74-1.62,5-3.89,7.43-5.94a26.67,26.67,0,0,1,8-5.14,12.15,12.15,0,0,1,4.7-.73,11.28,11.28,0,0,1,4.58,1.26,16.13,16.13,0,0,1,6.61,6.71,24.94,24.94,0,0,1,2.6,9.13,28.15,28.15,0,0,1-.05,4.77,8.27,8.27,0,0,0,.83,4.59Z"/><path d="M373.94,64.21A6.4,6.4,0,0,1,371,61.13a4.94,4.94,0,0,1-.45-2.11,3.55,3.55,0,0,1,.72-2c.45-.59,1-1,1.47-1.6a2.52,2.52,0,0,0,.55-2,4,4,0,0,0-2.73-3,3.32,3.32,0,0,0-2.06-.17,5.39,5.39,0,0,0-1.87,1,11.92,11.92,0,0,1-3.72,2.3c-3.09.88-5.74-1.8-8.42-1.21a6.53,6.53,0,0,0-3.31,2.28c-.95,1.05-1.77,2.25-2.8,3.34a13.32,13.32,0,0,1-8,4,14.25,14.25,0,0,1-4.6-.22,15.05,15.05,0,0,1-4.25-1.75c-1.3-.74-2.5-1.53-3.71-2.13a9,9,0,0,0-3.65-1,4.57,4.57,0,0,0-1.67.26,3.21,3.21,0,0,0-1.21.87,2.41,2.41,0,0,0-.62,1.19.85.85,0,0,0,.26.77,4.07,4.07,0,0,0,1.28.76c.58.24,1.23.46,1.94.7a10.42,10.42,0,0,1,2.32,1c.64.41,1.28.83,1.9,1.29a18.29,18.29,0,0,1,6.21,7.22,13.2,13.2,0,0,1,1.11,4.93c.06,1.64-.1,3.12-.12,4.46a18,18,0,0,0,5.85,13.7,6.37,6.37,0,0,0,1.28.92,2.36,2.36,0,0,0,.54.22,3.07,3.07,0,0,0,.58.1,4.33,4.33,0,0,0,2.61-.78A22.36,22.36,0,0,0,349.46,92c.53-.46,1.08-1,1.68-1.45l.87-.71.91-.72a15.46,15.46,0,0,1,2.18-1.4,8.05,8.05,0,0,1,3-.92c.29,0,.61,0,.91,0a3.69,3.69,0,0,1,1,.13,5.54,5.54,0,0,1,1.05.38,7.54,7.54,0,0,1,1,.68,5.75,5.75,0,0,1,1.65,3.32,20.75,20.75,0,0,1,0,4.92c-.06.72-.11,1.42-.1,1.94a1.33,1.33,0,0,0,0,.32,1,1,0,0,0,0,.29c.06.26.14.52.22.77a6.14,6.14,0,0,0,1.66,2.6,3.25,3.25,0,0,0,1.08.67,2.69,2.69,0,0,0,.54.14l.27,0a.17.17,0,0,1,.1,0c.05,0,.09,0,.32-.28a5.59,5.59,0,0,0,.64-1.32c.2-.57.38-1.22.58-1.94.1-.36.2-.73.36-1.17l.2-.55.2-.54a7.25,7.25,0,0,1,1.63-2.68,5.46,5.46,0,0,1,.84-.64,4.52,4.52,0,0,1,.49-.25,2.47,2.47,0,0,1,.46-.17c.25-.07.49-.15.75-.21s.54-.1.82-.13a5.32,5.32,0,0,1,3.56,1,6.69,6.69,0,0,1,2,2.47,16.58,16.58,0,0,1,1.4,4.82,42.58,42.58,0,0,1,.42,4.54l.2,4.37a24,24,0,0,0,.31,4,4.16,4.16,0,0,0,.44,1.31s.06.12.08.11,0,0,.1.1a1,1,0,0,0,.34.16,3.73,3.73,0,0,0,2.59-.71,16.7,16.7,0,0,0,5.35-5.39,4,4,0,0,0,.35-.73,7.89,7.89,0,0,0,.29-.86,9.9,9.9,0,0,0,.36-1.8,11.38,11.38,0,0,0-.23-3.72,11,11,0,0,0-1.44-3.44,13.48,13.48,0,0,0-2.63-2.91,17,17,0,0,1-1.66-1.71,8.52,8.52,0,0,1-1.35-2.25,12.72,12.72,0,0,1-.8-4.83c0-.79,0-1.5.1-2.29a19.48,19.48,0,0,1,.35-2.3c.3-1.46.66-2.87,1-4.27s.71-2.78,1-4.16a21,21,0,0,0,.6-4.11,5.28,5.28,0,0,0-.25-1.89A4.1,4.1,0,0,0,386.26,67a6.9,6.9,0,0,0-3.79-1.5c-1.41-.21-2.87-.24-4.31-.38A11.71,11.71,0,0,1,373.94,64.21Zm0,0a11.5,11.5,0,0,0,4.23.82c1.44,0,2.88,0,4.35,0a7.9,7.9,0,0,1,4.33,1.19,5.12,5.12,0,0,1,1.59,1.8,6.85,6.85,0,0,1,.65,2.32,34.36,34.36,0,0,1-.64,8.89c-.26,1.43-.53,2.85-.74,4.24-.1.68-.21,1.38-.24,2s0,1.39,0,2a9.74,9.74,0,0,0,.69,3.66A8,8,0,0,0,390.47,94c.53.46,1.11,1,1.69,1.53a13.54,13.54,0,0,1,1.57,1.9,14.34,14.34,0,0,1,2,4.46,14.94,14.94,0,0,1,.46,4.9,13.86,13.86,0,0,1-.4,2.46c-.1.41-.24.8-.37,1.2a8.79,8.79,0,0,1-.56,1.24,20,20,0,0,1-2.89,3.87,18.86,18.86,0,0,1-3.72,3.1,10.53,10.53,0,0,1-2.44,1.12,6.09,6.09,0,0,1-3.2.13,5,5,0,0,1-1.62-.72,4.52,4.52,0,0,1-1.33-1.32,7.93,7.93,0,0,1-1.09-2.72,30,30,0,0,1-.5-4.67c0-.35,0-.71-.06-1l-.08-1.13-.12-2.15a40.36,40.36,0,0,0-.43-4.09,12.13,12.13,0,0,0-1-3.48,2.38,2.38,0,0,0-.68-.88.79.79,0,0,0-.54-.12,3.09,3.09,0,0,0-.54.14h0s0,0,0,0a3.49,3.49,0,0,0-.53,1l-.17.47-.17.47c-.08.25-.17.58-.26.91-.18.68-.37,1.43-.64,2.23a9.73,9.73,0,0,1-1.26,2.56,5.86,5.86,0,0,1-1.29,1.3,5.11,5.11,0,0,1-.89.5,7.13,7.13,0,0,1-1,.32l-1,.09-.82,0a8.22,8.22,0,0,1-1.56-.36,8.08,8.08,0,0,1-2.63-1.54A11.25,11.25,0,0,1,359,99.87a7.38,7.38,0,0,1-.2-1.53c0-.93,0-1.67.08-2.4a17.71,17.71,0,0,0,0-3.74c-.08-.44-.25-.68-.14-.54s0,.08.08.08,0,0,0,0h-.08a.91.91,0,0,0-.17,0,6,6,0,0,0-2.6,1.37l-.79.63-.81.67-1.6,1.38a24.58,24.58,0,0,1-3.83,2.9,9.24,9.24,0,0,1-5.63,1.38,7.64,7.64,0,0,1-3-.94,11.6,11.6,0,0,1-2.2-1.66A22.18,22.18,0,0,1,331.3,80c.11-1.54.31-2.94.32-4.19a9.16,9.16,0,0,0-.62-3.53,14.73,14.73,0,0,0-4.76-6c-.52-.43-1.08-.83-1.64-1.23a7.56,7.56,0,0,0-1.61-.78c-.65-.25-1.36-.52-2.11-.87a6.56,6.56,0,0,1-2.28-1.65,3.84,3.84,0,0,1-.8-3.28A5.15,5.15,0,0,1,319.26,56a5.85,5.85,0,0,1,2.39-1.47,7.28,7.28,0,0,1,2.61-.26,11.15,11.15,0,0,1,4.58,1.53c1.34.76,2.52,1.64,3.69,2.4a12.87,12.87,0,0,0,3.64,1.76,11.82,11.82,0,0,0,4,.41,12,12,0,0,0,7.42-3.19c1-1,1.88-2.12,2.92-3.18a10.88,10.88,0,0,1,1.7-1.47,7.59,7.59,0,0,1,1-.57,5,5,0,0,1,1.13-.33,8,8,0,0,1,4.35.9,6.44,6.44,0,0,0,4.08.61A12,12,0,0,0,366.46,51a5.5,5.5,0,0,1,2-1,3.54,3.54,0,0,1,2.18.24,4.19,4.19,0,0,1,2.77,3.17,2.58,2.58,0,0,1-.58,2.06c-.45.57-1,1-1.48,1.58a4,4,0,0,0-.3,4.09A6.4,6.4,0,0,0,373.94,64.21Z"/></svg>