<svg id="Layer_1" data-name="Layer 1" xmlns="http://www.w3.org/2000/svg" viewBox="0 0 600 600"><title>barbados</title><path d="M111.61,96A43.74,43.74,0,0,0,110,107c0,3.71-.11,7.38,0,11.06s.53,7.35.81,11,.63,7.38,1,11.07c1.33,14.74,3.15,29.44,5.08,44.12,3.85,29.36,8.35,58.61,13,87.87l3.53,21.94,1.78,11c.59,3.66,1.1,7.32,1.66,11s1.13,7.33,1.62,11L140,338c1,7.31,1.94,14.59,3,21.83s2.19,14.44,3.46,21.59c.62,3.57,1.29,7.15,2,10.68s1.48,7,2.26,10.73,1.51,7.7,2,11.89c.26,2.09.47,4.23.58,6.45s.12,4.32.12,6.19,0,3.62.05,5.26.12,3.15.25,4.48a22.41,22.41,0,0,0,.55,3.39,7.15,7.15,0,0,0,.55,1.46s-.05,0,.31.26a11.66,11.66,0,0,0,2.32,1.15c1.2.49,2.78,1,4.66,1.66a49.67,49.67,0,0,1,6.55,2.69,39,39,0,0,1,7,4.49,28.41,28.41,0,0,1,3.46,3.34,26.64,26.64,0,0,1,3.08,4.37,23.86,23.86,0,0,1,3.1,10.59,29.07,29.07,0,0,1-1.19,9.36,42.47,42.47,0,0,1-2.91,7.14l-.84,1.53-.43.76c-.09.16-.13.24-.12.19h0a.29.29,0,0,0-.24.15,1.87,1.87,0,0,0-.32,1.1,4.45,4.45,0,0,0,0,.56,1.92,1.92,0,0,1,0,.22s0,.1.08.17a2.44,2.44,0,0,1,.1.24.2.2,0,0,1,.11.13c0,.09.11.07.14.13l.05.09.14.05a5.48,5.48,0,0,0,.69.31,10.22,10.22,0,0,0,1.29.21,18.57,18.57,0,0,0,3.83,0c1.5-.09,3.15-.34,5-.58s3.84-.54,6.3-.68l.78-.06.51,0,1.15-.13c.82-.11,1.78-.24,2.86-.34s2.28-.2,3.62-.24,3.1.08,3.78.09c1.85.07,3.72.07,5.58.1,3.72.06,7.45.1,11.19.07l11.2,0c3.74,0,7.46,0,11.19.05s7.44.21,11.16.3,7.42.36,11.11.63a20.74,20.74,0,0,1,6,1,41.33,41.33,0,0,1,8.9,4.42c.84.52,1.68,1.14,2.53,1.75s1.67,1.3,2.44,2a44.67,44.67,0,0,1,4.34,4.24,32.49,32.49,0,0,1,5.28,8.85,51.4,51.4,0,0,1,2.35,7.22l1.44,5.44a36.89,36.89,0,0,0,1.22,3.66,7.58,7.58,0,0,0,.91,1.61,8.41,8.41,0,0,0,2.74,2.1c.37.18.77.36,1.19.54s.89.34,1.42.47l.75.24c.27.07.55.11.82.18a15.22,15.22,0,0,0,1.71.31,31.32,31.32,0,0,0,7.57.07c.32,0,.63-.06,1-.12l1.08-.18c.72-.1,1.43-.28,2.15-.42l2.16-.51c.7-.21,1.43-.38,2.14-.61a51.75,51.75,0,0,0,8.36-3.39,48.14,48.14,0,0,0,7.71-4.92,53.18,53.18,0,0,0,7-6.46c2.36-2.52,4.7-5.48,7.45-8.49,1.38-1.48,2.83-3.08,4.38-4.51l2.3-2.16c.78-.7,1.59-1.35,2.39-2,1.57-1.37,3.27-2.51,4.87-3.79s3.3-2.38,5-3.44l2.48-1.67,2.5-1.57c1.64-1.08,3.29-2.07,4.94-3.09,6.53-4,12.92-7.86,18.85-11.66,1.5-1,2.94-1.89,4.38-2.85.73-.47,1.4-1,2.1-1.46s1.41-1,2.07-1.45l2.06-1.41c.33-.23.85-.28,1.16-.59a10.64,10.64,0,0,0,.83-1c1.06-1.47,1.79-3.31,3-4.53a145.14,145.14,0,0,0,13.71-15.24,149.64,149.64,0,0,0,20.07-35,195.09,195.09,0,0,0,11.34-37.67c.33-1.59.6-3.19.88-4.79.15-.79.24-1.6.37-2.4l.18-1.2.09-.58.06-.45a34,34,0,0,0,.32-3.58,10.06,10.06,0,0,1,.33-3.27,10.68,10.68,0,0,1,2-3.18c.22-.25.45-.52.67-.81l.35-.44.32-.4c.22-.27.44-.58.66-.89A9,9,0,0,0,477,353l.26-.45.21-.4a5.48,5.48,0,0,0,.34-.84,3.65,3.65,0,0,0,.22-1.47,2.47,2.47,0,0,0-.39-1.17c-.14-.13-.28-.26-.43-.42L477,348l-.26-.19a7.11,7.11,0,0,0-3.27-1.07,35.11,35.11,0,0,0-5.14-.1,51.72,51.72,0,0,1-6.59,0A23.2,23.2,0,0,1,454,344.7a23.83,23.83,0,0,1-6.52-4.3,33.76,33.76,0,0,1-4.54-5.23c-2.53-3.52-4.34-7-6.13-9.95-.48-.81-.85-1.31-1.24-1.9a19.69,19.69,0,0,0-1.28-1.56,12.22,12.22,0,0,0-2.82-2.44c-2-1.2-3.81-1.61-5.42-1.16a7.88,7.88,0,0,0-2.52,1.06l-1.13.63c-.51.3-1.15.59-1.75.91a20.93,20.93,0,0,1-4.74,1.65,16.9,16.9,0,0,1-6.47.09,23.47,23.47,0,0,1-5.43-1.73c-1.45-.65-2.66-1.34-3.73-1.94s-1.83-1.1-2.72-1.69a34.68,34.68,0,0,1-8.28-8.25c-1.1-1.5-2.09-3.05-3-4.62l-2.68-4.69a48,48,0,0,0-2.86-4.39c-.53-.66-1.06-1.3-1.64-1.92a23.85,23.85,0,0,0-1.8-1.68c-.63-.52-1.31-.93-2-1.4s-1.4-.74-2.12-1.08l-2.2-.84c-.73-.25-1.52-.47-2.35-.7-1.66-.44-3.52-.87-5.5-1.45a29.89,29.89,0,0,1-6.21-2.5,40.76,40.76,0,0,1-9.89-8c-1.36-1.38-2.55-2.73-3.84-3.91l-1.92-1.82-2-1.76c-2.68-2.33-5.43-4.6-8.35-6.74s-5.87-4.29-8.9-6.4-6.11-4.23-9.19-6.42-6.15-4.49-9.2-6.91-6-5-8.87-7.8A133.29,133.29,0,0,1,279.35,216c-2.32-3.16-4.48-6.41-6.56-9.68-1-1.66-2-3.33-3-5S268,198,267,196.27l-2.66-5.09c-.86-1.7-1.66-3.43-2.49-5.14s-1.52-3.48-2.29-5.21-1.42-3.49-2.13-5.24c-2.8-7-5.42-13.92-8.07-20.89s-5.27-14.11-7.53-21.44c-1.13-3.66-2.19-7.37-3.07-11.14s-1.6-7.43-2.39-10.92c-1.55-7-3.46-13.34-7.22-18.4a37.64,37.64,0,0,0-6.87-7A64.13,64.13,0,0,0,213.62,80c-3.11-1.75-6.34-3.35-9.68-4.94s-6.77-3.33-10.08-5.2Q191.37,68.49,189,67c-.8-.51-1.6-1-2.4-1.57s-1.67-1.2-2.43-1.84c-3-2.55-5.5-5.3-8.21-7.55a20.62,20.62,0,0,0-4.16-2.84l-.55-.25-.58-.2-1.17-.4c-.8-.2-1.63-.36-2.47-.5a32.43,32.43,0,0,0-10.52.68,71.31,71.31,0,0,0-20.2,8.25,49,49,0,0,0-16,14.94A63.15,63.15,0,0,0,111.52,96Zm-.09,0a66.64,66.64,0,0,1,3-10.75,54.84,54.84,0,0,1,4.81-10.16,48.23,48.23,0,0,1,15.95-15.91,80.52,80.52,0,0,1,10-5.32,65.21,65.21,0,0,1,10.67-3.75A35.28,35.28,0,0,1,167.24,49c1,.13,1.94.27,2.9.48l1.42.43.71.21.69.29a23.62,23.62,0,0,1,4.94,3.08c3,2.34,5.58,5,8.42,7.23.71.56,1.43,1.07,2.18,1.55s1.56,1,2.35,1.42c1.59.92,3.2,1.81,4.83,2.65,3.26,1.7,6.6,3.24,10,4.72s6.8,3,10.11,4.7c6.61,3.39,13,7.61,17.78,13.47a39,39,0,0,1,5.68,9.66,81.44,81.44,0,0,1,3.48,10.59c1,3.58,1.81,7.19,2.81,10.75s2.13,7.08,3.35,10.58c2.46,7,5.28,13.83,8.17,20.64,5.84,13.61,11.55,27.3,18.47,40.4s15,25.69,25.18,36.44,22.57,19.14,34,28.5c2.87,2.33,5.68,4.76,8.39,7.27s5.28,5.2,7.81,7.9a35.65,35.65,0,0,0,8.49,7.09c3.27,1.79,7,2.47,10.55,3.39a37.63,37.63,0,0,1,10.23,4.21,60.52,60.52,0,0,1,8.94,6.58c5.59,4.86,10.59,10.35,16.13,15.27a38,38,0,0,0,4.33,3.47,7.83,7.83,0,0,0,5.26,1.38,17.81,17.81,0,0,0,5.22-1.82,15.3,15.3,0,0,1,15.76,1.69A22,22,0,0,1,439.9,317c.62.69,1.16,1.45,1.71,2.19s1,1.55,1.48,2.35c1.89,3.18,3.63,6.46,5.77,9.49s4.72,5.84,8.11,7.4a15.74,15.74,0,0,0,5.34,1.39,36.72,36.72,0,0,0,5.55,0c3.67-.24,7.45-.66,11,.36l.67.2.64.27,1.28.54a16.25,16.25,0,0,1,2.3,1.55,14.86,14.86,0,0,1,3.56,4.21l.67,1.22.55,1.27a25.38,25.38,0,0,1,.93,2.61,34,34,0,0,1,1.05,5.45c.91,7.4-.46,14.8-1.82,22.05a160,160,0,0,1-14.63,41.81,164.07,164.07,0,0,1-41.42,51.63c-2.88,2.33-5.79,4.62-8.84,6.73s-6.19,4.07-9.4,5.91c-6.4,3.73-13,7.11-19.42,10.79-3.2,1.87-6.39,3.74-9.44,5.85-1.56,1-3,2.15-4.52,3.23s-2.93,2.27-4.28,3.54c-.68.62-1.39,1.22-2.06,1.86l-2,2a53.69,53.69,0,0,0-3.7,4.13c-2.35,2.86-4.54,5.85-6.84,8.76a64.38,64.38,0,0,1-16.27,15,62.24,62.24,0,0,1-20.43,8.43,42.29,42.29,0,0,1-11,.86,32.53,32.53,0,0,1-10.79-2.36,21.25,21.25,0,0,1-8.74-6.65,23,23,0,0,1-2.71-4.84,54,54,0,0,1-1.75-5.26,81.31,81.31,0,0,0-3.3-10.6,18.37,18.37,0,0,0-2.94-4.68,14.51,14.51,0,0,0-2.09-1.82,10.39,10.39,0,0,0-2.41-1.36c-3.44-1.43-7.21-1.61-10.86-2.12l-11-1.39-22.05-2.77-22-2.77-5.51-.69a28.5,28.5,0,0,0-5.54-.25c-3.7.21-7.41.12-11.09.52a52.73,52.73,0,0,1-11.09.18,12.92,12.92,0,0,1-11.85-15.63,21.52,21.52,0,0,1,2-5.15,32.06,32.06,0,0,0,1.85-5.22,18.21,18.21,0,0,0,.49-5.5,12.13,12.13,0,0,0-1.69-5.23,13.69,13.69,0,0,0-1.64-2.22,16.39,16.39,0,0,0-2.05-1.86,26.2,26.2,0,0,0-4.71-2.91c-3.34-1.61-6.95-2.53-10.39-3.91a24.5,24.5,0,0,1-4.93-2.55,13.7,13.7,0,0,1-3.86-3.95,24.38,24.38,0,0,1-3.09-10.58,108.18,108.18,0,0,1-.27-11.1,80.58,80.58,0,0,0-.5-11.09c-.42-3.68-1.06-7.33-1.75-11-3-14.51-5.17-29.18-7.07-43.86s-3.44-29.43-5.06-44.15L121.27,273c-3.13-29.46-6.07-58.94-8.35-88.48q-1.73-22.16-2.89-44.34-.3-5.55-.54-11.1c-.14-3.7-.38-7.39-.38-11.1a100.2,100.2,0,0,1,.56-11.09c.19-1.84.44-3.68.75-5.5s.61-3.66,1-5.47Z"/></svg>