<svg id="Layer_1" data-name="Layer 1" xmlns="http://www.w3.org/2000/svg" viewBox="0 0 600 600"><title>Belarus</title><path d="M183.68,217.55a60.94,60.94,0,0,0,0-6.34c-.08-2.12-.25-4.23-.25-6.38a19.1,19.1,0,0,1,1-6.41,16.45,16.45,0,0,1,3.48-5.63,22.88,22.88,0,0,1,5.17-4.11c1.86-1.14,3.79-2.12,5.71-3.05,3.82-1.85,7.66-3.58,10.81-6a21,21,0,0,0,4.09-4.12,24.43,24.43,0,0,0,2.82-5.08,42.36,42.36,0,0,0,2.68-11.71c.47-4.09.66-8.28,1-12.57.15-2.15.35-4.32.64-6.52a53.88,53.88,0,0,1,1.24-6.68,35.68,35.68,0,0,1,2.39-6.76,27.39,27.39,0,0,1,4.18-6.32l1.33-1.42,1.46-1.29a26.41,26.41,0,0,1,3.15-2.27,42.62,42.62,0,0,1,6.55-3.17c4.27-1.66,8.24-2.83,11.33-4.46a42,42,0,0,0,8.88-6.48c2.84-2.62,5.6-5.56,8.46-8.66s5.82-6.33,9.22-9.51a53,53,0,0,1,12.1-8.74A38.12,38.12,0,0,1,298.82,71l2.06-.45,2.1-.31a35.57,35.57,0,0,1,4.23-.26,58.1,58.1,0,0,1,15,2.28c2.23.58,4.25,1.17,6.31,1.76s4.17,1.23,6.28,1.88c4.22,1.33,8.53,2.8,12.85,4.61,2.16.91,4.32,1.9,6.46,3,1.07.55,2.14,1.13,3.19,1.74l1.52.88,1.16.66a63.21,63.21,0,0,1,6.43,3.91c.63.46,1.29,1,2,1.58.34.28.71.64,1.06,1l.88.91a34.36,34.36,0,0,1,3,3.72c1.66,2.39,2.8,4.5,3.67,5.85a8.06,8.06,0,0,0,1.84,2.27,1.21,1.21,0,0,0,.28.18,1.91,1.91,0,0,0,.32.17c.07.07.33.09.48.16s.35.15.51.21a2.42,2.42,0,0,1,.47.07l.22.07.24,0a4,4,0,0,1,.49,0,5.93,5.93,0,0,1,.59-.07c.11,0,.19,0,.31,0l.38-.08c.27,0,.5-.06.79-.13.64-.19,1.2-.27,2-.56,1.42-.42,3.26-1.16,5.2-1.91,1.08-.41,2-.8,3.23-1.22l1.75-.62,1.93-.59,1-.29,1.07-.26,2.15-.49c.77-.13,1.56-.24,2.35-.35l1.18-.15c.41,0,.84,0,1.26-.06.84,0,1.69,0,2.53,0s1.74.13,2.61.22a21.51,21.51,0,0,1,2.42.35c.7.14,1.41.28,2.11.44a50.51,50.51,0,0,1,8,2.7,51.22,51.22,0,0,1,13.85,9,50.24,50.24,0,0,1,5.68,6c.89,1.06,1.69,2.2,2.5,3.34s1.55,2.36,2.16,3.49A67.5,67.5,0,0,1,455,139.76a89.2,89.2,0,0,1,3,14.45,168.11,168.11,0,0,1,.88,27.41,60.51,60.51,0,0,0,.25,10.44,14.53,14.53,0,0,0,.87,3.42,17.11,17.11,0,0,0,1.72,3.27,80,80,0,0,0,6.75,8.41q4.27,4.93,8.42,10,8.34,10,16.17,20.53l2,2.67c.79,1.11,1.54,2.19,2.25,3.27,1.41,2.14,2.63,4.22,3.75,6.15a99.08,99.08,0,0,0,6.07,9.66c.47.61.93,1.19,1.39,1.7a6.36,6.36,0,0,0,.59.63c.18.19.39.36.57.54a19.84,19.84,0,0,0,2.76,2,37,37,0,0,0,8,3.51l1.79.64,1.86.72c1.23.5,2.45,1,3.64,1.57q3.6,1.67,7,3.56c2.25,1.26,4.42,2.6,6.5,4,1,.69,2.06,1.4,3.07,2.11s2.08,1.5,3.15,2.34a57.84,57.84,0,0,1,6.52,5.92,43.23,43.23,0,0,1,6.21,8.32,40.55,40.55,0,0,1,2.49,5.22c.33.95.65,1.91,1,2.88l.44,1.46c.12.49.22,1,.32,1.48.2,1,.38,2,.53,3s.17,2,.23,3a42.41,42.41,0,0,1-.13,5.87,41.47,41.47,0,0,1-2.57,10.74,48.72,48.72,0,0,1-4.7,9.19,29.16,29.16,0,0,1-6.52,7.41,38.33,38.33,0,0,1-8.5,4.79c-1.52.61-3,1.26-4.47,1.83-.74.3-1.49.58-2.21.91l-2,.76a58.1,58.1,0,0,1-8.25,2.41,60.88,60.88,0,0,1-8.24,1.2,73.93,73.93,0,0,1-7.75.3c-2.46,0-4.81-.15-7.07-.28l-3.32-.2-1.3-.08-1.14-.05a18.31,18.31,0,0,0-6.31.74c-.48.16-.58.23-.72.26s-.37.22-.6.78a6.82,6.82,0,0,0-.35,2.39,8.91,8.91,0,0,0,.14,1.5l.18.9.26.93a41.09,41.09,0,0,0,4.41,9,118.06,118.06,0,0,1,6.91,12.29l.8,1.85.65,1.69c.44,1.11.81,2.27,1.22,3.41s.74,2.31,1.09,3.48.67,2.35.93,3.57a56.48,56.48,0,0,1,1.57,15.29,37.38,37.38,0,0,1-4.23,16.32c-.36.65-.71,1.29-1.09,1.93l-1.26,1.82a17.83,17.83,0,0,1-1.34,1.74c-.48.55-.94,1.14-1.45,1.64a36.15,36.15,0,0,1-6.4,5.32,69.19,69.19,0,0,1-13.16,6.52c-2.11.84-4.17,1.61-6.18,2.35s-3.9,1.5-5.74,2.25a41.6,41.6,0,0,0-9.24,5,13,13,0,0,0-2.67,2.7,9.3,9.3,0,0,0-1.38,2.74l-.21.75c0,.25-.11.47-.13.74a14,14,0,0,0-.1,1.66,29.52,29.52,0,0,0,.47,4.25c.12.82.26,1.66.45,2.56a9.76,9.76,0,0,0,.09,1.42c.2.45.43.89.68,1.35,1,1.77,2.56,3.72,3.26,6.1a49.49,49.49,0,0,1,1.55,7.91,34.9,34.9,0,0,1-.19,9.63,31.25,31.25,0,0,1-1.34,5.26,26,26,0,0,1-3,5.72,26.66,26.66,0,0,1-9,8.22,25.07,25.07,0,0,1-6.18,2.45,23.38,23.38,0,0,1-3.65.58c-.65.05-1.27.1-1.93.09s-1.36-.06-2-.12a15.28,15.28,0,0,1-2.06-.3,18.77,18.77,0,0,1-2.06-.51,21.34,21.34,0,0,1-4-1.66,22.65,22.65,0,0,1-6-4.69,39.57,39.57,0,0,1-3.23-4c-.76-1.06-1.29-1.79-1.63-2.17a11.44,11.44,0,0,0-2-1.7,12.4,12.4,0,0,0-5.36-1.92,10.61,10.61,0,0,0-2.66.07,9.88,9.88,0,0,0-1.16.25,4.6,4.6,0,0,1-.52.19c-.17.05-.45.17-.67.24-1,.37-2.4,1-4.09,1.81s-3.68,1.81-6.1,2.88a44.24,44.24,0,0,1-9,2.92,32.24,32.24,0,0,1-12.52.18,28.53,28.53,0,0,1-6.41-1.92,36.81,36.81,0,0,1-5.26-2.78,58.25,58.25,0,0,1-6.87-5.37c-.81-.72-1.58-1.39-2.1-1.83a11.78,11.78,0,0,0-1-.76,6.31,6.31,0,0,0-1.72-.83,5,5,0,0,0-1.46-.32c-.2,0-.1,0-.1,0s0,0,0,0-.1,0-.24,0l-.19,0-.29.08a43.18,43.18,0,0,0-4.35,1.71A33.49,33.49,0,0,1,330,508a25.12,25.12,0,0,1-10.74-.77,35,35,0,0,1-8.48-4.09c-1.24-.75-2.28-1.57-3.41-2.26-.51-.38-1-.74-1.56-1.07l-1.52-1c-2-1.32-3.93-2.28-5.79-3.33A51.36,51.36,0,0,0,288,490.72a23.77,23.77,0,0,0-5-.79,43.28,43.28,0,0,0-5.63.17c-4,.33-8.26,1-13.05,1.23a50.25,50.25,0,0,1-7.58-.26,37.56,37.56,0,0,1-8-1.87,48.62,48.62,0,0,1-7-3.17c-2.12-1.14-4.1-2.25-5.93-3.28-.92-.51-1.78-1-2.65-1.43l-2.64-1.21-2.6-1.21c-.44-.2-.86-.41-1.31-.59l-1.35-.51A174.91,174.91,0,0,0,203.45,471c-.93-.24-1.86-.47-2.79-.74s-1.88-.43-2.82-.65-1.89-.47-2.83-.71-1.86-.59-2.82-.84a55.19,55.19,0,0,1-5.67-2.05c-1.91-.74-3.84-1.55-5.78-2.36s-3.94-1.53-6-2.19a38.15,38.15,0,0,0-6.1-1.47c-4.1-.75-8.27-.54-12.43-.63s-8.33.1-12.51.34-8.36.5-12.55.82-8.37.75-12.57,1.2-8.22.87-10.54,2.05a7.85,7.85,0,0,0-1.48.95,14,14,0,0,0-1.52,1.5c-1.14,1.25-2.46,3-4.45,5a23.12,23.12,0,0,1-7.5,4.84l-1,.42c-.35.12-.7.21-1,.31l-2.13.57a29.71,29.71,0,0,1-4.28.5,29,29,0,0,1-16.34-4.26c-.63-.36-1.21-.83-1.82-1.26a14.31,14.31,0,0,1-1.75-1.4c-.56-.51-1.11-1-1.66-1.56s-1-1.18-1.51-1.78l-.73-.91-.63-1c-.42-.68-.85-1.35-1.22-2.06a27.93,27.93,0,0,1-1.7-4.38,37.77,37.77,0,0,1-1.36-7.94c-.18-2.43-.24-4.67-.33-6.71a41.22,41.22,0,0,0-.47-5.29c-.07-.35-.12-.73-.2-1s-.17-.58-.25-.87-.19-.46-.27-.69-.2-.35-.27-.54-.21-.26-.28-.41a1.22,1.22,0,0,0-.31-.33,3.22,3.22,0,0,0-.83-.69c-.89-.62-2.62-1.51-5-3a26.79,26.79,0,0,1-3.86-2.93,18.09,18.09,0,0,1-2-2.12,17.07,17.07,0,0,1-1.7-2.43,20.8,20.8,0,0,1-2.83-11,27.08,27.08,0,0,1,2-9.57A32.34,32.34,0,0,1,43.82,396c.42-.59.91-1.13,1.39-1.69s1-1.09,1.49-1.61a21.63,21.63,0,0,1,1.63-1.53c.56-.49,1.15-1,1.64-1.36a62.68,62.68,0,0,1,6.13-4.12c4-2.36,7.54-4.23,10.37-6.19a27.37,27.37,0,0,0,3.65-3,19.7,19.7,0,0,0,2.63-3.32,24.76,24.76,0,0,0,3.2-8.74,51,51,0,0,0,.63-10.87c-.13-3.83-.61-7.79-1.12-11.85l-1.77-12.51L71.9,316.65,70.19,304l-.43-3.11c-.1-.8-.29-1.77-.49-2.75L67.91,292a102.7,102.7,0,0,1-2.2-13.24,32.37,32.37,0,0,1,.15-7.45,15.51,15.51,0,0,1,1.23-4.26,11.75,11.75,0,0,1,1.34-2.21,10.69,10.69,0,0,1,.82-.92,7.62,7.62,0,0,1,.88-.82,12.57,12.57,0,0,1,4-2.3,15.75,15.75,0,0,1,4.11-.84,29,29,0,0,1,7.28.51,101.79,101.79,0,0,1,12.65,3.56c2,.65,4,1.31,6,1.86a28.33,28.33,0,0,0,5.71,1.12,8.19,8.19,0,0,0,1.31,0l1.43-.16a18.11,18.11,0,0,0,2.87-.54,32.69,32.69,0,0,0,5.65-2,102.58,102.58,0,0,0,11-6,84.81,84.81,0,0,1,11.31-6.14,33.62,33.62,0,0,1,6.23-1.95,20.84,20.84,0,0,1,3.24-.43,27.27,27.27,0,0,1,3.25-.06c2.14.07,4.26.25,6.36.41a25.1,25.1,0,0,0,6.25-.09,9.8,9.8,0,0,0,5.41-2.81,19.85,19.85,0,0,0,3.46-5.22,80.57,80.57,0,0,0,6.19-24.5Zm.1,0a81.43,81.43,0,0,1-5.15,25,20.5,20.5,0,0,1-3.49,5.72,11.46,11.46,0,0,1-6.11,3.39,25.76,25.76,0,0,1-6.63.29c-2.14-.11-4.22-.24-6.3-.25a25.29,25.29,0,0,0-3,.14,17.82,17.82,0,0,0-3,.47,31.16,31.16,0,0,0-5.77,2,81.27,81.27,0,0,0-10.82,6.26,106.87,106.87,0,0,1-11,6.58,30.7,30.7,0,0,1-12.66,3.45,31.85,31.85,0,0,1-6.49-1c-2.1-.5-4.14-1.08-6.18-1.65a103.34,103.34,0,0,0-12.22-3,25.14,25.14,0,0,0-6.11-.24,9.33,9.33,0,0,0-5.32,2.13,3,3,0,0,0-.5.5,4,4,0,0,0-.47.54,6,6,0,0,0-.69,1.21,9.87,9.87,0,0,0-.73,2.85,27,27,0,0,0,.1,6.15,92.9,92.9,0,0,0,2.55,12.34l1.62,6.15c.26,1,.51,2.06.71,3.13l.56,3.13,4.42,25c1.42,8.34,3.2,16.65,3.79,25.13a59.92,59.92,0,0,1-.34,12.7,32.59,32.59,0,0,1-4,12,28.6,28.6,0,0,1-3.83,5.07,34.66,34.66,0,0,1-4.84,4.12c-3.44,2.47-7.18,4.48-10.78,6.7s-7.14,4.68-9.68,8.11a20.49,20.49,0,0,0-4.48,11.66,11.42,11.42,0,0,0,1.5,6.08,11.82,11.82,0,0,0,2,2.48,17.59,17.59,0,0,0,2.52,1.94c1.77,1.15,3.66,2.12,5.37,3.38a12.13,12.13,0,0,1,2.3,2.17,6.9,6.9,0,0,1,.95,1.27,8.91,8.91,0,0,1,.8,1.37A17.9,17.9,0,0,1,64,438.15a58.26,58.26,0,0,1,.32,6.34c0,4.22-.11,8.51,1,12.63a21.25,21.25,0,0,0,1.06,3c.23.47.52.92.77,1.38l.4.69.48.63c.33.41.64.84,1,1.24l1.13,1.12a9.15,9.15,0,0,0,1.21,1c.43.31.82.67,1.28.94a19.67,19.67,0,0,0,2.77,1.53,21.12,21.12,0,0,0,9.23,2,22.31,22.31,0,0,0,3.16-.25l1.55-.37c.25-.07.52-.12.77-.2l.74-.28a16.35,16.35,0,0,0,5.41-3.25c1.56-1.43,2.89-3.09,4.37-4.6a15.28,15.28,0,0,1,5.14-3.65c4-1.64,8.28-1.74,12.47-2.11s8.44-.65,12.67-.95c8.45-.55,16.91-.95,25.38-1.05A246.93,246.93,0,0,1,181.59,455a146.88,146.88,0,0,1,25,4.48,106.15,106.15,0,0,1,23.59,9.26l1.42.72c.46.25.9.55,1.36.82l2.7,1.66,2.71,1.66c.88.59,1.75,1.19,2.62,1.8,3.47,2.41,6.93,4.91,10.85,6.55a26.39,26.39,0,0,0,6.1,1.73,41.81,41.81,0,0,0,6.33.41c4.23-.07,8.44-.58,12.67-.87a43.92,43.92,0,0,1,12.64.64,78.73,78.73,0,0,1,12,4.1,88.89,88.89,0,0,0,11.94,4.28,32.44,32.44,0,0,0,6.27,1,24.32,24.32,0,0,0,6.3-.65c4.12-1.06,7.81-3.26,11.84-4.55a19.63,19.63,0,0,1,12.49.12,23.61,23.61,0,0,1,5.68,2.79,43.84,43.84,0,0,1,4.92,4,44.93,44.93,0,0,0,5,4,15.81,15.81,0,0,0,5.81,2.45,16.29,16.29,0,0,0,6.3-.06,33.24,33.24,0,0,0,6.06-1.89c3.92-1.59,7.7-3.54,11.77-4.76a25.21,25.21,0,0,1,12.56-.46,26.77,26.77,0,0,1,11.33,5.47,25,25,0,0,1,4.34,4.61,58.86,58.86,0,0,0,3.67,5.17,8.5,8.5,0,0,0,5.44,3,10.55,10.55,0,0,0,6.12-1.29,13.68,13.68,0,0,0,7.15-9.94c.8-4.18.2-8.48-.7-12.59s-2.19-8.18-2.87-12.37a32,32,0,0,1-.44-6.33,19.56,19.56,0,0,1,1.26-6.19,20.74,20.74,0,0,1,7.93-9.67,55.07,55.07,0,0,1,11.37-5.59c4-1.52,8-2.86,11.92-4.4a56.09,56.09,0,0,0,11.31-5.71,27.85,27.85,0,0,0,4.81-4.12c.39-.37.69-.81,1-1.21a10.8,10.8,0,0,0,.94-1.28l.89-1.31.74-1.4a27.26,27.26,0,0,0,2.83-12.26,46.24,46.24,0,0,0-1.75-12.54,67.93,67.93,0,0,0-4.47-11.87c-3.79-7.58-9.86-13.85-12.9-21.83A22.25,22.25,0,0,1,477.1,358a15,15,0,0,1,2.5-5.79,15.32,15.32,0,0,1,2.15-2.33,16.64,16.64,0,0,1,2.63-1.78c3.74-2.05,8.07-2.65,12.27-2.77,2.12,0,4.24.1,6.35.14s4.24.06,6.35,0a54.28,54.28,0,0,0,12.56-1.7,38.87,38.87,0,0,0,11.51-5.21,34.28,34.28,0,0,0,8.83-9,27.58,27.58,0,0,0,4.45-11.77,20.93,20.93,0,0,0-2.4-12.27,34.76,34.76,0,0,0-8.21-9.59,77.2,77.2,0,0,0-21.55-13.22,50.44,50.44,0,0,1-11.2-5.92,33.92,33.92,0,0,1-4.77-4.19,39.34,39.34,0,0,1-3.86-5c-2.33-3.54-4.24-7.33-6.24-11.06-1-1.86-2-3.71-3.14-5.52s-2.35-3.52-3.58-5.24q-7.38-10.33-15.32-20.26-4-5-8.06-9.82a88.73,88.73,0,0,1-7.74-10.06,28.39,28.39,0,0,1-4.29-11.86,72.67,72.67,0,0,1-.21-12.69,154.5,154.5,0,0,0-.54-25.36c-1-8.38-3.2-16.74-7.42-24.1a40.26,40.26,0,0,0-18.43-16.83A28.53,28.53,0,0,0,407.48,112l-.79,0-.79.11-1.57.21c-1,.25-2.07.41-3.08.74-2,.56-4,1.33-6,2.06s-4,1.51-6,2.1c-1,.34-2.05.54-3.08.79-.52.11-1.05.16-1.57.24a8.37,8.37,0,0,1-1.58.15l-1.59,0-1.59-.16-.79-.09-.77-.19-1.54-.41c-.5-.18-1-.41-1.47-.61a9.94,9.94,0,0,1-1.44-.68,11.58,11.58,0,0,1-1.34-.84,12.08,12.08,0,0,1-1.25-1c-3.24-2.85-4.83-7-7.18-10.43a18.12,18.12,0,0,0-4.28-4.62,60.64,60.64,0,0,0-5.36-3.4,103.22,103.22,0,0,0-23-10.7q-6-2.07-12.07-3.94A47.54,47.54,0,0,0,307,79a27.19,27.19,0,0,0-12.29,2.6,46.5,46.5,0,0,0-10.52,7c-6.44,5.5-12,11.93-18.59,17.31a46.76,46.76,0,0,1-10.7,6.8c-3.88,1.72-8,2.67-12,4a35.74,35.74,0,0,0-5.83,2.49,20.05,20.05,0,0,0-2.64,1.74l-1.23,1L232,123.11a23.62,23.62,0,0,0-3.69,5.13,32.5,32.5,0,0,0-2.35,5.88c-2.38,8.14-2.58,16.7-3.95,25a47.94,47.94,0,0,1-3.4,12.22,27.6,27.6,0,0,1-3.31,5.42,22.93,22.93,0,0,1-4.65,4.31c-3.48,2.45-7.45,4-11.31,5.77a61.11,61.11,0,0,0-5.69,2.79,22,22,0,0,0-5.07,3.76,15.5,15.5,0,0,0-3.48,5.24,20.75,20.75,0,0,0-1.32,6.18c-.31,4.23.16,8.46.1,12.7Z"/></svg>