<svg id="Layer_1" data-name="Layer 1" xmlns="http://www.w3.org/2000/svg" viewBox="0 0 600 600"><title>Benin</title><path d="M188.71,162.29c.84-1.41,1.76-2.77,2.59-4.18s1.66-2.84,2.49-4.27a48.11,48.11,0,0,1,5.81-8.07A43.1,43.1,0,0,1,207,139a37,37,0,0,1,9.09-4.75,52.23,52.23,0,0,1,9.93-2.46c1.67-.26,3.35-.47,5-.62s3.35-.22,5-.29c6.66-.24,13.22-.15,19.6-.47s12.6-1.19,18-3.69a31.11,31.11,0,0,0,7.39-4.7,32.1,32.1,0,0,0,5.63-6.7,45.21,45.21,0,0,0,3.85-8.09A66.65,66.65,0,0,0,293,98.25c.54-3.09,1.06-6.21,1.34-9.44l.87-9.79c.3-3.31.57-6.69,1.06-10.14.12-.86.24-1.72.39-2.59s.27-1.74.46-2.68a39.32,39.32,0,0,1,1.7-6,25.14,25.14,0,0,1,3.57-6.58,25.75,25.75,0,0,1,5.91-5.62,28.69,28.69,0,0,1,6.6-3.38,43.92,43.92,0,0,1,6.31-1.8,55.14,55.14,0,0,1,5.85-.89l2.85-.3c.94-.1,1.89-.1,2.84-.15l2.86-.11c.95,0,1.89.05,2.84.08s1.9,0,2.85.11l2.83.27c1.9.14,3.77.46,5.64.76s3.72.73,5.57,1.14a86.37,86.37,0,0,1,30.74,14.46,83.25,83.25,0,0,1,16.37,16.16,113.15,113.15,0,0,1,11.4,18.81l1.22,2.4,1.1,2.44c.73,1.63,1.48,3.26,2.18,4.9l1.94,5c.32.84.67,1.66.95,2.5l.85,2.51a190.25,190.25,0,0,1,5.69,20.32c.71,3.41,1.48,6.82,2,10.23.29,1.71.62,3.42.87,5.12l.74,5.11c1.88,13.63,3.1,27.14,4.22,40.49l.82,10,.21,2.49.11,1.24c0,.41,0,.93.08,1.39.09,1.9.23,3.82.21,5.72a118.7,118.7,0,0,1-1.89,22.69,124,124,0,0,1-6.12,21.68c-1.34,3.5-2.86,6.9-4.45,10.25a18.34,18.34,0,0,1-2.88,4.77,47.52,47.52,0,0,1-4.37,3.85,19.27,19.27,0,0,0-2.09,1.92,26.9,26.9,0,0,0-1.74,2.16c-1.14,1.51-2.23,3-3.44,4.49l-1.74,2.21c-.59.74-1.21,1.44-1.81,2.16-1.17,1.46-2.41,2.85-3.64,4.24A144.54,144.54,0,0,1,387.47,308c-1.34,1.15-2.64,2.23-4,3.32s-2.75,2-4.11,3L371.28,320l-3.92,2.77-3.74,2.68a16.36,16.36,0,0,0-2.28,1.79,20.49,20.49,0,0,0-2.18,2.46c-2.91,3.7-5.11,9.07-7.09,15a166.25,166.25,0,0,0-4.87,18.29,127.3,127.3,0,0,0-2.57,18.89c-.38,6.38-.23,12.79-.29,19.19l0,4.8,0,2.41v2.41l-.09,2.4c0,.4-.3.8-.24,1.2s.2.81.32,1.21c.54,1.61,1.45,3.22,1.67,4.82.54,6.42,1.11,12.84,1.78,19.28l4.39,39.05,2.1,19.54c.3,2.39.82,5.36,1.37,8.62s1.15,6.87,1.54,10.91c.18,2.05.32,4.18.32,6.5a54,54,0,0,1-.53,7.54c-.22,1.39-.48,2.76-.82,4.27-.14.72-.35,1.5-.56,2.27a13.55,13.55,0,0,1-.81,2.31,15.26,15.26,0,0,1-2.92,4.29c-.64.66-1.26,1.31-1.93,1.92s-1.41,1.17-2.12,1.7a24.67,24.67,0,0,1-4.62,2.65,28.66,28.66,0,0,1-4.76,1.55,32.63,32.63,0,0,1-8.58.51c-.66,0-1.26-.12-1.87-.16l-.9-.08a8.08,8.08,0,0,1-.83-.08q-.64-.15-1.29-.24a11.42,11.42,0,0,0-1.28-.15,36.72,36.72,0,0,0-5,0,90.94,90.94,0,0,0-10,1c-3.33.54-6.64,1.2-10,1.88s-6.81,1.25-10.3,1.69c-1.77.16-3.52.39-5.33.46-.9.06-1.79.15-2.7.19s-1.83,0-2.75.1a76.46,76.46,0,0,1-11.33-.47l-1.45-.18-.73-.1-.82-.16a32.32,32.32,0,0,1-3.3-.8,28.66,28.66,0,0,1-3.29-1.17,26.05,26.05,0,0,1-3.19-1.55l-1.55-.9c-.5-.32-1-.66-1.47-1a26.42,26.42,0,0,1-2.8-2.21,39.62,39.62,0,0,1-4.71-5.11,40.64,40.64,0,0,1-6-11.35c-.31-1-.65-1.91-.91-2.88s-.5-1.91-.72-2.86-.36-1.9-.53-2.84-.18-1.9-.23-2.85a32.91,32.91,0,0,1,.38-5.62c.3-1.85.75-3.67,1.21-5.46l1.43-5.27c.41-1.72.8-3.43,1-5.11a91.63,91.63,0,0,0,.53-10c.12-3.32.22-6.58.25-9.81s.15-6.72.27-10.06c.27-6.68.66-13.3,1-19.89.83-13.18,1.19-26.06,1.1-39,0-6.47-.11-12.93-.27-19.38s-.32-12.89-.49-19.34l-.32-9.66-.36-9.66-.4-9.59c-.16-3.13-.27-6.2-.6-9.16-.7-5.93-1.65-11.44-3.93-16.58-2.19-5.34-5.81-10.89-8.91-17.22a53.17,53.17,0,0,1-3.89-10.12A58.51,58.51,0,0,1,221,279.83c-.26-3.44-.28-6.81-.25-10.13s0-6.59,0-9.83c-.1-6.46-.7-12.92-3.21-18.72a29.54,29.54,0,0,0-2.28-4.12,23.9,23.9,0,0,0-3-3.62,42.22,42.22,0,0,0-7.71-5.74c-5.53-3.41-11.65-6.08-16.8-10.39a23.88,23.88,0,0,1-6.26-7.78,28.92,28.92,0,0,1-2.68-9.59,43.78,43.78,0,0,1,.07-9.91,59.93,59.93,0,0,1,2-9.66,83,83,0,0,1,7.9-18Zm.08.05a83.83,83.83,0,0,0-6.72,18.34c-.2.78-.35,1.57-.51,2.36s-.31,1.59-.44,2.38-.29,1.58-.4,2.37l-.28,2.39a47.22,47.22,0,0,0,0,9.51,27.58,27.58,0,0,0,2.55,9,23.49,23.49,0,0,0,5.79,7.25c4.83,4.15,10.86,6.9,16.49,10.35a44.1,44.1,0,0,1,8,6,27,27,0,0,1,3.29,3.79,31.55,31.55,0,0,1,2.51,4.32,39.23,39.23,0,0,1,2.94,9.47,90.13,90.13,0,0,1,1.22,9.8c.5,6.55.63,13.11,1.57,19.59a50.92,50.92,0,0,0,2.26,9.52,46.41,46.41,0,0,0,4.25,8.81c3.35,5.62,7.44,10.8,10.56,16.59a57.51,57.51,0,0,1,6,18.68c1.05,6.48,1.42,13,1.82,19.59s.66,13.1.82,19.66q.47,19.67-.49,39.34-.48,9.84-1.33,19.64c-.56,6.53-1.25,13.06-1.9,19.58s-1.26,13.06-1.63,19.61-.43,13.11-.63,19.67-.19,13.12.26,19.67a78.25,78.25,0,0,0,3.46,19.32,37.93,37.93,0,0,0,4.22,8.86,25.25,25.25,0,0,0,6.82,7,24.91,24.91,0,0,0,9,3.74c1.58.42,3.21.63,4.83.9.81.12,1.63.17,2.45.26s1.63.17,2.45.18l2.46.1c.81,0,1.63,0,2.45,0,1.65,0,3.28-.13,4.92-.2,3.27-.27,6.53-.62,9.77-1.16,6.48-1,12.88-2.47,19.27-4l4.79-1.1c1.6-.37,3.21-.71,4.78-1.2a21.9,21.9,0,0,0,4.48-2,16.38,16.38,0,0,0,3.72-3.18,18.61,18.61,0,0,0,4-8.88,44.09,44.09,0,0,0,.48-9.81c-.3-6.55-1.46-13-1.8-19.59l-1-19.65-1-19.66c-.31-6.55-.71-13.1-.88-19.66-.41-13.11-.5-26.23,0-39.34.29-6.56.7-13.11,1.33-19.64s1.47-13,2.54-19.51,2.41-12.9,4-19.26,3.51-12.7,6.84-18.38a31.64,31.64,0,0,1,6.14-7.63c2.47-2.16,5-4.27,7.51-6.36,5.05-4.18,10.19-8.27,15.12-12.59a138.19,138.19,0,0,0,14-13.83,106.42,106.42,0,0,0,11.4-16,131.75,131.75,0,0,0,14.84-36.29A108.1,108.1,0,0,0,421,211.64c.17-3.28.11-6.56,0-9.84l-.2-9.83c-.36-13.11-1-26.23-2.62-39.26l-.64-4.87c-.21-1.63-.51-3.24-.76-4.86-.47-3.25-1.15-6.46-1.77-9.68a175.52,175.52,0,0,0-5.07-19l-.75-2.34c-.26-.78-.57-1.54-.85-2.31l-1.73-4.6-1.95-4.52-1-2.25-1.09-2.21a100.47,100.47,0,0,0-10-16.88,74,74,0,0,0-69.44-28.28A25.19,25.19,0,0,0,314,54.22a15.26,15.26,0,0,0-3.66,3.23,19.2,19.2,0,0,0-2.52,4.19A58.87,58.87,0,0,0,304.83,71c-.79,3.18-1.48,6.39-2.17,9.6C301.29,87,300,93.46,298.15,99.76a61.44,61.44,0,0,1-8,17.89,37.09,37.09,0,0,1-6.64,7.24,34.58,34.58,0,0,1-8.42,5c-6.07,2.57-12.72,3.34-19.25,3.58s-13.12-.09-19.68,0S223,134,216.71,136a37.19,37.19,0,0,0-8.87,4.15,42.31,42.31,0,0,0-7.54,6.26,64.7,64.7,0,0,0-6.24,7.59q-1.42,2-2.74,4.09c-.88,1.38-1.65,2.83-2.45,4.26Z"/></svg>