<svg id="Layer_1" data-name="Layer 1" xmlns="http://www.w3.org/2000/svg" viewBox="0 0 600 600"><title>Bhutan</title><path d="M62.32,332.88c2.68-2.29,5.52-4.35,8.36-6.48,1.42-1,2.88-2,4.21-3.11a14.22,14.22,0,0,0,3.39-3.64,7.13,7.13,0,0,0,1-4.47,33.06,33.06,0,0,0-1.1-5c-.43-1.77-.82-3.39-1.3-5.09L75.42,300a55.75,55.75,0,0,1-2-10.77,16.89,16.89,0,0,1,.57-6.06,10.74,10.74,0,0,1,1.51-3.13,9.89,9.89,0,0,1,2.62-2.5,23.38,23.38,0,0,1,5.59-2.33,14.53,14.53,0,0,0,2.13-.86,13.5,13.5,0,0,0,1.9-1.05,19.39,19.39,0,0,0,5.89-6.53c3.16-5.4,5-12.05,7.44-18.89a69,69,0,0,1,4.62-10.51,38.38,38.38,0,0,1,3.51-5.21,30.74,30.74,0,0,1,4.75-4.72,34.2,34.2,0,0,1,2.83-2c1-.57,1.9-1.09,2.79-1.53,1.79-.91,3.42-1.64,4.77-2.35a15.28,15.28,0,0,0,3.14-2,5.71,5.71,0,0,0,1.43-1.92c.83-1.58,1.5-4.4,2.43-8.08.53-1.88,1.13-3.91,1.86-5.8.35-1,.76-1.91,1.17-2.84s.84-1.87,1.31-2.79a67.43,67.43,0,0,1,14.67-19.45,72,72,0,0,1,20.39-13.34,72.83,72.83,0,0,1,24-6,67.51,67.51,0,0,1,12.7.28l3.18.48,3.16.66c2,.48,4,1,5.76,1.55,3.64,1.07,7,2.18,9.94,3a39.53,39.53,0,0,0,7.93,1.51,14.11,14.11,0,0,0,1.59,0l.74,0,.69-.09a10.69,10.69,0,0,0,1.32-.22l3.41-.6a40.47,40.47,0,0,1,15,.55,57.39,57.39,0,0,1,12.52,4.66c3.57,1.75,6.63,3.45,9.46,4.83A45.87,45.87,0,0,0,290,179.1c1.23.41,2.41.56,3.62.84l5.2.87,41.59,6.89c3.46.59,6.94,1.09,10.42,1.57,1.75.23,3.49.45,5.23.71s3.48.49,5.2.82l2.69.47c1,.16,1.93.37,2.85.58,1.86.42,3.64.85,5.38,1.28l9.82,2.68a71.76,71.76,0,0,0,8.81,1.88c.69.1,1.34.17,2,.22l1,0c.15,0,.35,0,.45,0h.3a6.8,6.8,0,0,0,1,0,1,1,0,0,1,.23-.05.13.13,0,0,1,.1,0c.05,0,.15,0,.93-.77s2-2.14,3.58-3.71c.37-.39.8-.79,1.23-1.2s.86-.81,1.33-1.21c.89-.83,1.84-1.6,2.85-2.39a34.3,34.3,0,0,1,7.72-4.45,34.74,34.74,0,0,1,18.35-2.1A60.8,60.8,0,0,1,446,186c1.95.8,3.79,1.62,5.48,2.43.87.4,1.71.84,2.55,1.28s1.69.88,2.51,1.36,1.67.91,2.45,1.45a12.35,12.35,0,0,1,2.19,1.85,41.26,41.26,0,0,1,3.54,4.82,18.62,18.62,0,0,0,3.86,4.26c1.44,1.21,2.83,2.42,4.27,3.68s3.14,2.65,4.84,4.32a44.21,44.21,0,0,1,5.27,5.86,32.71,32.71,0,0,1,4.58,8.25c.51,1.55,1,3.13,1.35,4.72a47.15,47.15,0,0,1,.6,4.81c0,.77,0,1.54,0,2.32a18.2,18.2,0,0,1-.11,2.26l-.25,2.14-.15,1.06-.21,1a45.77,45.77,0,0,1-2.09,7.07,107,107,0,0,1-4.86,10.43,74,74,0,0,0-3.36,7.4c-.13.46-.32,1-.44,1.4s-.22.83-.29,1.19a8.23,8.23,0,0,0-.2,2.06,10.63,10.63,0,0,0,1.51,4.85,11.87,11.87,0,0,0,3.68,3.93c.37.17.73.47,1.11.61.2.08.36.19.58.27l.72.22c.24.07.47.17.73.24l.82.15c.28.05.54.12.84.16l.93.09a42.38,42.38,0,0,0,8.86-.45c3.35-.39,7-1.09,11.05-1.43a43,43,0,0,1,13.44.68l1.81.43c.6.16,1.19.4,1.78.61l1.78.67c.56.23,1,.5,1.58.76l1.56.76,1.54.91c.51.33,1,.61,1.53,1l1.48,1.11a30.21,30.21,0,0,1,9.23,11.77,41.22,41.22,0,0,1,3.27,13.22c.22,2.12.24,4.15.25,6.16l0,2.95c-.07,1-.16,1.92-.3,2.86a18.45,18.45,0,0,0,0,5.6,32.09,32.09,0,0,1,.6,5.45c-.13,3.48-.29,6.79-.2,9.79a25,25,0,0,0,1,7.28,7.1,7.1,0,0,0,.51,1.08c.1.18.19.35.27.53s.25.38.36.56l.35.58.47.65c.17.23.28.42.48.67l.56.74c1.54,2,3.75,4.42,6.38,7.92a49.71,49.71,0,0,1,4,6.21l1,1.85.87,2.09a33.13,33.13,0,0,1,1.47,4.48,18.4,18.4,0,0,1,.5,2.39c.14.82.26,1.64.37,2.46a47.68,47.68,0,0,1,.18,4.93c-.07,1.6-.26,3.15-.45,4.72a30.66,30.66,0,0,1-1.26,5.08,35.92,35.92,0,0,1-11.52,16.58,32.18,32.18,0,0,1-9.55,5.41,31.57,31.57,0,0,1-12,1.91l-1.59-.11-.8-.07-.58-.06-1.58-.21c-1-.15-2.13-.26-3.13-.44l-3-.54-2.89-.6c-3.76-.77-7.11-1.65-9.46-2l-.87-.16-.68-.09c-.22,0-.48-.08-.66-.09l-.49,0a3.47,3.47,0,0,0-.77,0c-.25,0-.37.05-.54,0a4.21,4.21,0,0,0-1.15.25,5.54,5.54,0,0,0-.86.33,1.53,1.53,0,0,1-.54.09,4.64,4.64,0,0,1-.72.13,7.35,7.35,0,0,1-.82,0,7.32,7.32,0,0,0-1,0l-1.11,0-1.22-.11-.65-.09c-.32.06-.69.16-1,.23-.7.14-1.38.29-2.07.41-1.44.2-2.8.37-4.2.48-2.75.24-5.38.34-7.8.5s-4.7.48-6.94.49a77.4,77.4,0,0,1-12.35-1c-3.82-.48-7.39-1.07-10.83-1.39a82.4,82.4,0,0,0-9.78-.56,37.76,37.76,0,0,0-4.47.32,22.94,22.94,0,0,0-4.1,1c-1.33.45-2.81,1.05-4.49,1.7a59.51,59.51,0,0,1-5.79,2,28.32,28.32,0,0,1-7.66,1.1c-2.36,0-4.39-.09-6.37-.26l-5.41-.49a42,42,0,0,0-4.45-.29,24.38,24.38,0,0,0-3.31.16,9.28,9.28,0,0,0-1.28.23c-.24.07-.46.09-.71.16l-.76.2c-1.06.32-2.29.69-3.65,1.21-.34.14-.68.25-1.05.38l-1.11.39c-.79.26-1.58.5-2.46.75a45.46,45.46,0,0,1-5.71,1.18,49.87,49.87,0,0,1-6.6.41l-1.74,0c-.57,0-1-.1-1.54-.15-1-.13-2-.21-3-.31-2-.23-3.89-.37-5.79-.51-.95-.08-1.89,0-2.83-.13s-1.88-.05-2.81,0-1.87,0-2.8-.06-1.87,0-2.8-.13a104.14,104.14,0,0,1-22-3.83,102.13,102.13,0,0,1-10.55-3.68,106.4,106.4,0,0,1-10-4.83c-3.18-1.68-6.21-3.35-9.18-4.77a41,41,0,0,0-8.64-3.12,15.33,15.33,0,0,0-7.52.09l-5.1,1.36c-1.63.44-3.16.88-4.46,1.38a14.22,14.22,0,0,0-1.71.75,7.31,7.31,0,0,0-1.1.71s.08,0,.32-.25a3,3,0,0,0,.44-.61,16.46,16.46,0,0,1-.36,1.66l-.18.71c-.06.24-.11.48-.21.81-.17.6-.37,1.23-.61,1.85a20.27,20.27,0,0,1-1.85,3.66,23.71,23.71,0,0,1-2.31,3,32.38,32.38,0,0,1-2.45,2.52,34.66,34.66,0,0,1-11.69,7c-1.06.39-2.15.72-3.26,1-.55.13-1.11.27-1.67.38l-.85.17-.78.12a57.74,57.74,0,0,1-6.14.7c-4,.25-7.76.11-11.23.05s-6.72-.06-9.64,0c-1.48,0-2.85.06-4.23.15s-3,.34-4.66.62-3.57.6-5.58.87a43.32,43.32,0,0,1-6.47.4,44.51,44.51,0,0,1-12.68-2,66,66,0,0,1-11-4.56c-6.8-3.53-12.73-7.61-18.53-11.25a66.71,66.71,0,0,0-17.53-8.18c-6-1.67-12.26-1.93-17.57.48l-1.94,1c-.64.38-1.31.84-2,1.34a24.91,24.91,0,0,1-5.42,3,13.62,13.62,0,0,1-7,.61,17.2,17.2,0,0,1-6-2.45A25.06,25.06,0,0,1,90.91,412a33,33,0,0,1-3.56-4.47c-2.06-3-3.81-6-5.92-8.47A19.79,19.79,0,0,0,78,395.79a18.5,18.5,0,0,0-4.28-2.18c-1.58-.6-3.26-1.13-5-1.75a21.41,21.41,0,0,1-5-2.52,10.8,10.8,0,0,1-3.74-4.53,16.58,16.58,0,0,1-1.17-5.49c-.13-1.82,0-3.56-.25-5.24a14.56,14.56,0,0,0-1.31-4.84,28.29,28.29,0,0,0-2.75-4.38,46.12,46.12,0,0,1-2.89-4.47A13.61,13.61,0,0,1,50.36,350a27.38,27.38,0,0,1,4.86-9.33A52,52,0,0,1,62.38,333Zm.06.07A55.56,55.56,0,0,0,55.67,341a27.35,27.35,0,0,0-4.2,9.27,13.37,13.37,0,0,0-.17,4.83,12,12,0,0,0,1.63,4.48,48.7,48.7,0,0,0,2.91,4.19,31.66,31.66,0,0,1,3,4.58,16.66,16.66,0,0,1,1.64,5.42c.13.92.19,1.83.24,2.73s.08,1.74.16,2.58A14.38,14.38,0,0,0,62,383.83a8.16,8.16,0,0,0,3,3.44c2.67,1.78,6.15,2.48,9.54,3.64a21.35,21.35,0,0,1,5,2.34,22.36,22.36,0,0,1,4.19,3.61,106.13,106.13,0,0,1,6.48,8.45,24.82,24.82,0,0,0,7.32,6.95,13.2,13.2,0,0,0,4.58,1.71,9.15,9.15,0,0,0,4.69-.54c3-1.2,5.48-4,8.81-5.6A26.22,26.22,0,0,1,126.11,405a38.25,38.25,0,0,1,10.68.94,72.09,72.09,0,0,1,19.65,8c6.12,3.49,12.07,7.24,18.42,10.23s13.15,5.19,20.19,5a53.34,53.34,0,0,0,10.41-1.5,53.31,53.31,0,0,1,10.44-1.42c7-.23,14,.79,21.09.69a37.43,37.43,0,0,0,10.42-1.43,26.93,26.93,0,0,0,9.23-5,19.8,19.8,0,0,0,3.56-3.87,14.86,14.86,0,0,0,2.05-4.83,23.69,23.69,0,0,1,.77-2.52,4.56,4.56,0,0,1,1.65-2,18.22,18.22,0,0,1,4.76-2.25c3.35-1.08,6.82-1.7,10.23-2.55a21.83,21.83,0,0,1,10.44.3c6.84,1.82,12.85,5.7,18.93,9.18a83.55,83.55,0,0,0,40.1,11.66,82.37,82.37,0,0,0,10.54-.3c1.76-.12,3.5-.4,5.24-.62s3.48-.56,5.18-1c6.85-1.73,12.93-5.57,19.76-7.35a24.86,24.86,0,0,1,5.21-.79,30.81,30.81,0,0,1,5.26.26c3.49.44,6.91,1.31,10.36,2a51.31,51.31,0,0,0,5.22.77,20.09,20.09,0,0,0,5.25-.32c3.46-.65,6.78-1.86,10.22-2.62a42.45,42.45,0,0,1,10.49-.82,99.86,99.86,0,0,1,10.5,1.08c6.93,1,14,2.29,21,1.2a27.37,27.37,0,0,0,9.88-3.5c3.08-1.73,5.58-4.29,8.65-6a27.11,27.11,0,0,1,9.75-3.82,30.33,30.33,0,0,1,10.49.39c6.9,1.36,13.64,3.54,20.65,4.29a15,15,0,0,0,9.82-3.21,18.59,18.59,0,0,0,6.23-8.33,19,19,0,0,0,.78-10.38,28.37,28.37,0,0,0-4.27-9.58c-1.9-3-4-5.76-5.85-8.78a30.13,30.13,0,0,1-4-9.73,45.08,45.08,0,0,1-.44-10.51c.21-3.52.62-7,1-10.5.83-7,1.84-14,1.46-21a32,32,0,0,0-2.08-10.29,20.23,20.23,0,0,0-6.16-8.42,23.49,23.49,0,0,0-9.38-4.61,31,31,0,0,0-10.49-.25c-7,.84-13.79,2.94-20.86,3a24.8,24.8,0,0,1-10.29-1.9,23.17,23.17,0,0,1-8.25-6.43,23.5,23.5,0,0,1-4.67-9.37,21.38,21.38,0,0,1-.55-5.23c0-.88.15-1.75.22-2.63s.32-1.73.47-2.6c1.6-6.88,5.18-13.06,7.52-19.69A27.58,27.58,0,0,0,475,235.75c0-.88-.21-1.74-.31-2.62s-.48-1.69-.72-2.53a18.82,18.82,0,0,0-2.55-4.6,40.9,40.9,0,0,0-7.6-7.27q-4.15-3.25-8.46-6.32c-5.73-4.07-11.63-7.92-17.72-11.43a41.77,41.77,0,0,0-9.66-4.18,25,25,0,0,0-2.57-.55,23.24,23.24,0,0,0-2.63-.18,19.26,19.26,0,0,0-2.63.18c-.43.07-.86.18-1.29.27l-.64.14-.63.21a20.06,20.06,0,0,0-4.73,2.29,35.16,35.16,0,0,0-4.12,3.29c-2.58,2.34-4.87,5.2-8.18,6.56a15.57,15.57,0,0,1-5.13,1.12,44.29,44.29,0,0,1-5.28,0,87.79,87.79,0,0,1-10.46-1.37c-6.91-1.28-13.74-3-20.69-4.16l-20.77-3.72-41.55-7.46-5.19-.93a49.71,49.71,0,0,1-5.12-1.27,60,60,0,0,1-9.74-4c-3.14-1.59-6.21-3.32-9.35-4.89a45.18,45.18,0,0,0-9.82-3.77,28.12,28.12,0,0,0-10.46-.44l-2.6.44a25.7,25.7,0,0,1-2.61.4l-1.32.12-1.32,0c-.88,0-1.76,0-2.64-.09-7.05-.61-13.68-3.25-20.38-5.31a62.37,62.37,0,0,0-10.25-2.44,56.93,56.93,0,0,0-10.52-.48,63.66,63.66,0,0,0-51.63,31.83,55.82,55.82,0,0,0-4.18,9.66c-1.08,3.33-2,6.8-3.91,9.78s-5.08,4.95-8.29,6.32-6.6,2.52-9.45,4.6a27.43,27.43,0,0,0-7.07,7.72A66.71,66.71,0,0,0,106,250c-2.8,6.43-5,13.19-9,19.07a22.82,22.82,0,0,1-7.56,7.26,21.16,21.16,0,0,1-4.91,1.93A19.35,19.35,0,0,0,79.6,280a7.34,7.34,0,0,0-3.19,4,14.92,14.92,0,0,0-.67,5.19,55.64,55.64,0,0,0,1.46,10.42c.77,3.43,1.63,6.85,2.28,10.3a32.71,32.71,0,0,1,.91,5.2,8.17,8.17,0,0,1-1.33,5c-2,3-5.23,4.72-8.21,6.52q-2.26,1.35-4.39,2.92a45.13,45.13,0,0,0-4,3.4Z"/></svg>