<svg id="Layer_1" data-name="Layer 1" xmlns="http://www.w3.org/2000/svg" viewBox="0 0 600 600"><title>Botswana</title><path d="M105.36,100.15c.11-2.23.39-4.45.66-6.66a56.09,56.09,0,0,1,1.2-6.62,18.09,18.09,0,0,1,2.83-6.23A21.25,21.25,0,0,1,115.21,76a29.38,29.38,0,0,1,13.11-4.25c1.16-.12,2.32-.15,3.48-.16l3.39.07c2.26.08,4.51.21,6.76.37,4.48.33,8.91.79,13.24.89a54.37,54.37,0,0,0,6.41-.24l1.58-.19,1.56-.27c1-.16,2.06-.43,3.09-.67A61.36,61.36,0,0,0,179.73,67c3.9-1.9,7.72-4,11.57-6.25C199,56.35,206.81,51.61,215.62,48c1.09-.46,2.23-.85,3.34-1.28s2.29-.75,3.43-1.13a37,37,0,0,1,7.73-1.54,21.76,21.76,0,0,1,9.1,1,19.58,19.58,0,0,1,4.49,2.29,25.23,25.23,0,0,1,3.55,3,40.49,40.49,0,0,1,4.9,6.43c1.31,2.07,2.43,4,3.53,5.73a23.46,23.46,0,0,0,3.12,4.09,7.5,7.5,0,0,0,1.32,1,3.5,3.5,0,0,0,1.07.39,6,6,0,0,0,1.19.09c.26,0,.48,0,.78-.08l.43-.06c.11,0,.18-.08.27-.11l.27-.08.14,0,.18-.1.75-.33c.61-.37,1.19-.63,1.9-1.14a45.89,45.89,0,0,0,4.36-3.39c1.54-1.31,3.11-2.72,4.77-4.23a99.35,99.35,0,0,1,11.47-9.31c.55-.39,1.22-.76,1.86-1.13a22.11,22.11,0,0,1,2-1.09l2.23-1c.2-.09.36-.15.5-.2l.45-.16.9-.33,1.79-.65,1.81-.57c1.21-.4,2.42-.72,3.63-1a128,128,0,0,1,28.77-3.77c4.67-.16,9.26-.18,13.76-.18,2.17,0,4.61-.06,7.66.21a29,29,0,0,1,10.45,2.82,26.43,26.43,0,0,1,9,7.63,38.91,38.91,0,0,1,4.77,8.35c.57,1.32,1.06,2.61,1.48,3.84l.62,1.82.54,1.69c.73,2.27,1.38,4.51,2,6.77,5.09,18,8.28,35.32,13.77,50.68.32,1,.7,1.91,1.06,2.85s.72,1.9,1.12,2.77.76,1.8,1.16,2.68l1.27,2.63a94.23,94.23,0,0,0,5.83,9.95,72.34,72.34,0,0,0,7,8.71,50.84,50.84,0,0,0,8.07,6.89c.73.45,1.41,1,2.16,1.38l2.2,1.24a38.79,38.79,0,0,0,4.54,1.92l1.15.43,1.18.3,1.17.32c.38.11.78.21,1.25.3a45.3,45.3,0,0,1,8.37,2.23,23.53,23.53,0,0,1,5.8,3.27,22.41,22.41,0,0,1,4.9,5.22,23.73,23.73,0,0,1,2.73,5.73,26.78,26.78,0,0,1,1.1,5,59.42,59.42,0,0,1,.32,7.7,28.45,28.45,0,0,0,.27,4.75c.1.46.16.69.16.73s-.11-.06-.15-.07l.33.11a3.88,3.88,0,0,0,.77.15,18.73,18.73,0,0,0,2.49.11c1,0,2.29,0,3.79,0a24.26,24.26,0,0,1,2.42.18c.45.06.87.1,1.35.2a9.88,9.88,0,0,1,1.64.41,21,21,0,0,1,2.07.8c.67.33,1.35.69,2,1.07s1.23.85,1.83,1.31,1.09.95,1.62,1.45a22.83,22.83,0,0,1,4.39,6.07,27.66,27.66,0,0,1,2,5.39,39.36,39.36,0,0,1,.9,4.62c.41,2.9.6,5.44.78,7.84s.3,4.57.49,6.52a28.21,28.21,0,0,0,.72,4.68c.44,1.25,0-.36,1.06,1.62a33.56,33.56,0,0,0,2.52,3.43,28.65,28.65,0,0,0,6.26,5.53,24.26,24.26,0,0,0,7,3.08c.59.11,1.15.29,1.72.34s1.15.18,1.94.24c1.53.14,3.5.24,5.95.43a75.28,75.28,0,0,1,8.64,1.1c1.67.33,3.42.81,5.11,1.31.84.28,1.67.57,2.5.87s1.63.67,2.43,1a52.75,52.75,0,0,1,8.94,5.1,58.49,58.49,0,0,1,7.46,6.34,68.61,68.61,0,0,1,11,14.6,31.46,31.46,0,0,1,3.64,8.5,34.35,34.35,0,0,1,1,6.44,32.43,32.43,0,0,1,0,4.49,27.06,27.06,0,0,1-1.06,5.71,25.33,25.33,0,0,1-1.24,3.17,25.75,25.75,0,0,1-1.78,3,21.19,21.19,0,0,1-2.11,2.55c-.36.38-.74.76-1.11,1.09s-.71.61-1.07.9a28.06,28.06,0,0,1-7,4,58.19,58.19,0,0,1-8.29,2.48c-2.18.57-4.12,1.07-6,1.61l-1.35.45-1.45.51-2.91,1c-7.7,3-15.23,6.57-22.86,10.3-1.92.91-3.82,1.86-5.74,2.82s-3.85,1.91-5.77,2.86l-11.56,6c-7.7,4.12-15.57,8.35-23.38,12.62a253.58,253.58,0,0,0-22.11,13.19,102.7,102.7,0,0,0-9.75,7.62,124.8,124.8,0,0,0-9,8.86c-5.82,6.25-11.4,13.26-16.81,20.37s-10.59,14.38-16,21.52c-1.33,1.8-2.69,3.55-4,5.34s-2.73,3.58-4.16,5.35l-2.2,2.61c-.37.44-1,.7-1.28,1.17s-.58,1-.85,1.53c-1.07,2.11-1.87,4.48-3.26,6.37a163.62,163.62,0,0,1-19.69,21.32A94.36,94.36,0,0,1,325,498.81a75.24,75.24,0,0,1-7.87,2.75l-4.1,1.15c-1.38.29-2.76.54-4.15.8a76.44,76.44,0,0,1-8.29,1.07c-1.4.18-2.72.14-4.09.21s-2.73.1-4.05.06a168.44,168.44,0,0,1-29.5-3.72c-9-1.82-17.14-3.71-24.66-4.77L235.5,496c-.9-.08-1.85-.27-2.71-.29-1.72-.09-3.61-.28-5.07-.26-.38,0-.78,0-1.16,0l-1.1.05-1.1,0-1.05.12-1,.1c-.32.06-.65.12-1,.15a12.25,12.25,0,0,1-2,0,25.34,25.34,0,0,1-4.6-1,25.85,25.85,0,0,0-5.72-1,12.16,12.16,0,0,0-3,.16l-.75.12c-.24.05-.47.14-.71.2-.48.14-1,.29-1.41.47a14.74,14.74,0,0,0-2.59,1.41c-.8.6-1.63,1.14-2.41,1.8a60.79,60.79,0,0,0-8.92,9c-2.74,3.41-5.37,7.05-8.05,10.8A130.83,130.83,0,0,1,172.3,529c-1.63,1.79-3.31,3.56-5.12,5.24-.89.85-1.79,1.7-2.74,2.51L163,537.93l-1.4,1.16c-.94.76-1.87,1.55-2.83,2.3l-2.93,2.17c-1,.74-2,1.43-3,2.12s-2,1.42-3.06,2.05a108,108,0,0,1-13,7.12,78.42,78.42,0,0,1-29.27,7,56.71,56.71,0,0,1-15.16-1.17,46.27,46.27,0,0,1-7.26-2.36,48.18,48.18,0,0,1-7.56-3.92,26.46,26.46,0,0,1-7.37-6.87,21,21,0,0,1-3.72-9.4,22,22,0,0,1-.11-4.71,30.86,30.86,0,0,1,.63-4.24,41.07,41.07,0,0,1,2.42-7.32c1.9-4.49,4.23-8.41,6-12.31a50.52,50.52,0,0,0,2.39-5.58,27.88,27.88,0,0,0,1.32-5.57,34.34,34.34,0,0,0,.26-5.74,34,34,0,0,0-.77-5.69,32.15,32.15,0,0,0-4.38-10.39c-.49-.8-1.09-1.5-1.63-2.25s-1.15-1.4-1.83-2.06a57.14,57.14,0,0,0-4.42-4,117.78,117.78,0,0,1-10.62-9.39,38.91,38.91,0,0,1-4.94-6.5A42.59,42.59,0,0,1,47.24,445a61.08,61.08,0,0,1-3.48-14.9,140.27,140.27,0,0,1-.83-14.21l-.16-13.5c-.08-9-.14-18,.15-26.93s.8-17.93,1.55-26.88l1.1-13.13c.12-1.94.16-4.13.19-6.32l.09-6.7c.06-4.53.23-9.12.54-13.77A132.91,132.91,0,0,1,48,294.53a72,72,0,0,1,1.66-7.3,40.47,40.47,0,0,1,2.94-7.53,23.88,23.88,0,0,1,5.77-7.47,15.44,15.44,0,0,1,2.19-1.57l1.2-.69c.42-.2.86-.37,1.29-.55s.88-.35,1.3-.48l1.09-.29c.73-.21,1.46-.32,2.19-.46A32,32,0,0,1,76,268a64.23,64.23,0,0,1,7.26,1.21c2.26.49,4.43,1,6.41,1.4a35.86,35.86,0,0,0,5.72.7,20.52,20.52,0,0,0,5.19-.46,10.44,10.44,0,0,0,4-1.87c.26-.23.53-.47.76-.7a9,9,0,0,0,.61-.77l.3-.45c.1-.16.18-.35.28-.52a8,8,0,0,0,.53-1.14,26.66,26.66,0,0,0,1.48-5.51,75.55,75.55,0,0,0,.83-12.65c0-4.34-.25-8.74-.55-13.15s-.7-8.86-1-13.34c-.17-2.24-.33-4.49-.41-6.78,0-1.14-.07-2.33-.06-3.48l0-3.35.2-26.78,0-26.77c0-4.47,0-8.93,0-13.39s-.45-8.9-.84-13.34c-.78-8.88-1.6-17.8-1.19-26.73Zm.09,0c0,4.47.29,8.92.72,13.35s1.07,8.84,1.61,13.27,1.13,8.86,1.29,13.41.22,8.92.34,13.38l1.2,53.53.08,3.34c0,1.1.07,2.18.15,3.29.15,2.2.38,4.41.62,6.62.49,4.42,1,8.86,1.48,13.31s.83,8.91,1,13.4a81.21,81.21,0,0,1-.43,13.49,32,32,0,0,1-1.52,6.65,14.2,14.2,0,0,1-3.71,5.85,15.64,15.64,0,0,1-6.05,3.32,25.94,25.94,0,0,1-6.76.94,41.07,41.07,0,0,1-6.75-.54c-2.22-.35-4.4-.8-6.59-1.2-4.36-.79-8.82-1.42-13.17-.62a11.73,11.73,0,0,0-5.88,2.63,16.35,16.35,0,0,0-3.85,5.29,45.08,45.08,0,0,0-3.53,12.79c-1.27,8.82-1.34,17.78-1.27,26.69,0,4.46.17,8.92.07,13.39l-.77,13.36c-.51,8.91-.88,17.83-1.21,26.74s-.57,17.84-.74,26.76L51.58,416c0,4.46,0,8.93.44,13.38.2,2.22.52,4.43.93,6.62a48.11,48.11,0,0,0,1.74,6.46A34.52,34.52,0,0,0,61.3,454,124.13,124.13,0,0,0,71,463.22a43.23,43.23,0,0,1,8.6,10.18,38.32,38.32,0,0,1,4.63,12.48,41.33,41.33,0,0,1,.7,6.65,39.19,39.19,0,0,1-.49,6.67,36.15,36.15,0,0,1-1.62,6.48,59.46,59.46,0,0,1-2.67,6.13c-2,4-4.13,7.92-5.84,12a36.52,36.52,0,0,0-2,6.36,16.2,16.2,0,0,0-.1,6.65,12.28,12.28,0,0,0,3.11,5.83,15.47,15.47,0,0,0,5.56,3.62,35.92,35.92,0,0,0,6.42,1.84c2.2.41,4.38.87,6.6,1.1s4.44.46,6.66.63c1.12.07,2.23,0,3.35.08l1.67,0,1.67,0a86,86,0,0,0,13.3-1.39,96.5,96.5,0,0,0,12.93-3.41,98,98,0,0,0,12.26-5.34A90.38,90.38,0,0,0,157,532.73c7.3-5.17,13.32-11.9,18.73-19s10.43-14.51,16.49-21.08a55.66,55.66,0,0,1,10.06-8.77,45.1,45.1,0,0,1,5.83-3.28,43.68,43.68,0,0,1,6.29-2.27,50,50,0,0,1,13.23-1.71c2.23-.06,4.45.16,6.68.28,1.12,0,2.22.23,3.33.34s2.22.24,3.32.41c17.66,2.59,34.65,8.86,52.53,10.08a66.46,66.46,0,0,0,26.36-3.41A80.94,80.94,0,0,0,343,471.12a152.07,152.07,0,0,0,19.19-18.62c5.91-6.68,11.46-13.68,17.05-20.63L396,411c5.62-6.93,11.1-14,16.95-20.72,2.93-3.36,6-6.64,9.17-9.74a127.8,127.8,0,0,1,10.11-8.77c7-5.5,14.52-10.37,22.06-15.14,15.1-9.49,30.15-19.13,46-27.35a233.06,233.06,0,0,1,24.37-11c2.09-.76,4.18-1.56,6.29-2.26s4.27-1.32,6.41-2a56.08,56.08,0,0,0,6.34-2.11,10.73,10.73,0,0,0,2.85-1.72,5.18,5.18,0,0,0,1.72-2.8c.46-2.21-.24-4.45-1-6.52a52,52,0,0,0-2.89-6,50,50,0,0,0-7.9-10.76,41.21,41.21,0,0,0-5-4.38,34.6,34.6,0,0,0-5.77-3.36,31.26,31.26,0,0,0-6.34-2.11,61.51,61.51,0,0,0-6.61-.95c-2.22-.22-4.45-.41-6.66-.72-1.1-.14-2.2-.36-3.29-.61s-2.16-.56-3.23-.87a40.59,40.59,0,0,1-11.79-6.2A44.6,44.6,0,0,1,475,249.58c-.45-1-1-2-1.36-3.06a21,21,0,0,1-.77-3.25,106.48,106.48,0,0,1-.57-13.36c0-2.23-.09-4.47-.31-6.69a25.49,25.49,0,0,0-1.36-6.52,8.42,8.42,0,0,0-4.25-4.92A32.31,32.31,0,0,0,460,210a20.41,20.41,0,0,1-6.31-2.15,9.91,9.91,0,0,1-4-5.17c-1.55-4.22-1.65-8.76-2.74-13.08a16.57,16.57,0,0,0-2.68-6.07,11.4,11.4,0,0,0-5.35-3.84,43.56,43.56,0,0,0-6.49-1.58c-1.1-.2-2.16-.55-3.25-.82l-1.62-.42-1.57-.57a55.49,55.49,0,0,1-6.17-2.59l-2.92-1.63c-1-.53-1.88-1.21-2.82-1.81a63.3,63.3,0,0,1-10.2-8.64,84.91,84.91,0,0,1-8.39-10.41,100.31,100.31,0,0,1-6.68-11.59,112.86,112.86,0,0,1-5.1-12.37c-5.91-16.88-8.72-34.6-13.3-51.84-.6-2.15-1.18-4.3-1.83-6.43a64.7,64.7,0,0,0-2.14-6.34,26.15,26.15,0,0,0-3.17-5.86,14.43,14.43,0,0,0-5-4.36,18,18,0,0,0-6.4-1.77c-2.21-.24-4.45-.26-6.68-.32-4.46-.11-8.92-.2-13.38-.16a120.25,120.25,0,0,0-26.56,2.73c-1.08.26-2.17.52-3.24.84l-1.6.46-1.59.53a25.88,25.88,0,0,0-6,2.77,94.74,94.74,0,0,0-10.64,8.1,81.12,81.12,0,0,1-10.7,8,27.07,27.07,0,0,1-3,1.52,15.55,15.55,0,0,1-3.22.9,12.45,12.45,0,0,1-12.06-4.32,32.49,32.49,0,0,1-3.78-5.52c-2.22-3.86-4.09-8-7.05-11.33A14.17,14.17,0,0,0,236.92,51a16.2,16.2,0,0,0-6.55-1,47.79,47.79,0,0,0-13,3c-8.42,3-16.3,7.23-24.22,11.32-4,2-8,4-12.06,5.81a64,64,0,0,1-12.7,4.16,51,51,0,0,1-13.33.88c-4.46-.26-8.89-.89-13.32-1.37q-3.33-.36-6.66-.6a53.25,53.25,0,0,0-6.68-.14,28.31,28.31,0,0,0-12.72,3.69,20.65,20.65,0,0,0-5.08,4.28A18.93,18.93,0,0,0,107.54,87a44.9,44.9,0,0,0-2,13.18Z"/></svg>