<svg id="Layer_1" data-name="Layer 1" xmlns="http://www.w3.org/2000/svg" viewBox="0 0 600 600"><title>Brazil</title><path d="M350,110.15l1.63,2.84a31.24,31.24,0,0,0,1.91,2.65,10.55,10.55,0,0,0,1.09,1.22c.38.4.76.79,1.16,1.16a11.37,11.37,0,0,0,1.24,1.06l1.3,1a39.2,39.2,0,0,0,11.6,5.49,72.51,72.51,0,0,0,12.71,2.29c4.31.45,8.66.7,13,1a99,99,0,0,1,13.25,1.7c2.19.41,4.36.9,6.52,1.42s4.31,1,6.45,1.6c8.53,2.28,16.9,4.67,25.35,7s16.86,4.7,25.31,7c4.23,1.17,8.42,2.27,12.75,3.53a104.59,104.59,0,0,1,13.15,4.65,59.68,59.68,0,0,1,6.54,3.38c2.2,1.33,4.07,2.65,5.95,4,3.74,2.68,7.11,5.34,10.37,7.38a47.08,47.08,0,0,0,4.93,2.72l2.85,1.34L532.2,176c2.08,1,4.2,2.13,6.33,3.37a58.22,58.22,0,0,1,6.37,4.36,39.89,39.89,0,0,1,6,5.79,17.59,17.59,0,0,1,1.36,1.71c.44.6.88,1.19,1.29,1.8a38.4,38.4,0,0,1,2.2,3.91,34.81,34.81,0,0,1,1.71,4.15c.28.7.42,1.41.63,2.12l.28,1.07a10.46,10.46,0,0,1,.24,1,63.38,63.38,0,0,1-3.6,38.4,60.32,60.32,0,0,1-3.71,7.13,64.86,64.86,0,0,1-4.61,6.48A95.6,95.6,0,0,1,536.48,268c-3.43,3.15-6.78,6-9.8,8.77a77.44,77.44,0,0,0-8.08,8.18c-9.42,11-14.43,26.28-18.25,42.58-1.92,8.16-3.56,16.68-5.39,25.39-.93,4.37-1.87,8.78-3,13.26-.52,2.22-1.17,4.48-1.76,6.72s-1.3,4.52-2.09,6.79a104.85,104.85,0,0,1-12.87,26.88,81.58,81.58,0,0,1-10.19,12c-2,1.77-3.91,3.58-6.08,5.21-1.06.83-2.17,1.58-3.26,2.36s-2.23,1.47-3.36,2.15a94.57,94.57,0,0,1-13.79,6.79c-4.59,1.83-9.09,3.37-13.44,4.74-8.65,2.74-16.64,5.11-23.21,8.25a48.19,48.19,0,0,0-8.7,5.23c-.62.49-1.23,1-1.81,1.49s-1.17,1-1.68,1.58-1.07,1.07-1.55,1.66c-.25.29-.49.53-.76.87l-.84,1a109.68,109.68,0,0,0-12,19.08c-3.71,7.14-7.36,14.93-11.59,23.09L359.75,508c-1.08,2-2.21,4-3.38,6.07a28.93,28.93,0,0,1-4.08,5.94,61.24,61.24,0,0,1-5.72,5.08,44.37,44.37,0,0,0-5.51,5.37c-1.72,1.93-3.57,3.85-5.59,5.72a61.8,61.8,0,0,1-6.62,5.55,45.71,45.71,0,0,1-8.34,5,34,34,0,0,1-10.7,3c-1,.1-1.93.18-2.89.24s-1.93,0-2.9-.08a32.5,32.5,0,0,1-5.63-.8,22.81,22.81,0,0,1-2.62-.72c-.85-.28-1.72-.55-2.54-.86l-2.31-1-1.15-.54c-.37-.18-.69-.38-1-.57l-2.06-1.18c-.7-.4-1.26-.82-1.89-1.23s-1.24-.83-1.82-1.26l-1.65-1.3c-2.19-1.76-4.08-3.51-5.87-5.26l-2.53-2.61L270.57,530l-2.2-2.4-2.07-2.23-1.9-2c-.73-.74-1.77-1.72-2.94-3a28.79,28.79,0,0,1-3.75-5,20.63,20.63,0,0,1-1.6-3.43c-.22-.6-.43-1.19-.62-1.79s-.3-1.25-.42-1.88a20.14,20.14,0,0,1-.41-3.77,26.47,26.47,0,0,1,.19-3.59,30.28,30.28,0,0,1,.68-3.21,27.37,27.37,0,0,1,1-2.82,37.07,37.07,0,0,1,4.81-8.34c1.68-2.23,3.35-4.11,4.89-5.81l2.06-2.24c.64-.67,1.21-1.4,1.81-2.1,1.15-1.44,2.27-2.91,3.28-4.45a51.85,51.85,0,0,0,5.13-9.67,40,40,0,0,0,2.61-10.37l.15-1.32.06-1.31c.05-.9,0-1.73,0-2.6a37.15,37.15,0,0,0-.62-5.22,29.56,29.56,0,0,0-1.39-5.1,27.53,27.53,0,0,0-2.16-4.7,24.39,24.39,0,0,0-2.88-4,9.43,9.43,0,0,0-.82-.85c-.28-.26-.55-.56-.85-.79l-.88-.73-1-.72a42.73,42.73,0,0,0-4.65-2.69L260.16,419a49,49,0,0,1-6.88-4.11,32.55,32.55,0,0,1-6.59-6.34,34.55,34.55,0,0,1-4.59-7.87,41.71,41.71,0,0,1-2.49-8.08c-.25-1.34-.44-2.68-.57-4-.09-.67.13-1.34,0-2s-.31-1.28-.47-1.9c-.69-2.53-1.63-5.05-1.76-7.49s-.05-4.81,0-7.08.07-4.38.07-6.42a57.7,57.7,0,0,0-.83-10.92,26,26,0,0,0-1.2-4.23l-.38-.89a3.36,3.36,0,0,1-.33-.47c-.15-.38-.44-.51-.59-.74a8.85,8.85,0,0,0-1.61-1.11c-.29-.21-.92-.5-1.4-.78l-1-.49-.51-.25-.62-.3c-1.54-.73-3.73-1.73-6.14-3l-1.91-1.06c-.64-.37-1.38-.87-2.06-1.3l-1-.68-1.09-.83c-.73-.57-1.45-1.12-2.17-1.74a34.82,34.82,0,0,1-4.19-4.44,27.2,27.2,0,0,1-1.87-2.54c-.55-.89-1.09-1.8-1.6-2.72l-.38-.69-.28-.54-.43-.84-.86-1.7c-.56-1.12-1.06-2.21-1.57-3.32-.94-2.09-1.87-4.24-2.61-5.72-.2-.39-.39-.81-.55-1.05l-.47-.83-.35-.46c-.06-.12-.08-.09-.11-.1l-.07,0c0-.08,0,.07,0,.17a.34.34,0,0,0,.09.12,1.34,1.34,0,0,0,.13.23,4.06,4.06,0,0,0,.72.68.3.3,0,0,0,.14.17c.06,0,0,0,0,0h-.11s-.56,0-.9-.12a6.39,6.39,0,0,0-.81-.09l-.88-.09-2.22-.1-2.05-.13c-.78-.05-1.56-.11-2.33-.21-1.55-.17-3.08-.41-4.61-.69a62.89,62.89,0,0,1-32.29-16.85c-1.12-1.15-2.12-2.13-3.34-3.59l-.87-1-.75-1c-.47-.63-1-1.33-1.42-1.92a29.11,29.11,0,0,1-3.92-6.87,18,18,0,0,1-1.06-6.4c0-1.09.05-2,.09-3l.08-1.44c0-.48,0-.9,0-1.36a9.9,9.9,0,0,0-.82-4.44,5.73,5.73,0,0,0-2.49-2.2c-1.81-.89-4.79-.65-8.13,1.08a44.52,44.52,0,0,0-5.07,3.09l-5.48,3.89a41.47,41.47,0,0,1-14.25,6.71,28.11,28.11,0,0,1-8.77.52,36.91,36.91,0,0,1-4.18-.58c-1.28-.3-2.61-.59-3.8-.92s-2.36-.68-3.53-1l-3.28-1.07c-2.15-.71-4.18-1.32-6.21-1.92-.46-.13-1.12-.36-1.71-.56l-1.8-.61c-1.22-.39-2.37-.92-3.57-1.38a59.37,59.37,0,0,1-6.93-3.42c-1.15-.61-2.25-1.33-3.35-2.06l-1.65-1.09c-.53-.4-1.07-.8-1.59-1.22L54.21,258c-.52-.43-1-.9-1.52-1.35a39.83,39.83,0,0,1-2.94-2.88,42.75,42.75,0,0,1-9.1-14.59,35.18,35.18,0,0,1-2-17.82c.3-1.46.66-2.89,1.09-4.3a15.76,15.76,0,0,1,.76-2.14c.31-.71.59-1.43.93-2.11a33.55,33.55,0,0,1,5.1-7.31A46.74,46.74,0,0,1,52.62,200c1-.84,2.06-1.51,3-2.29.5-.36,1-.7,1.5-1.06s1-.73,1.46-1.06c3.9-2.73,7.42-5.6,11.07-8.12L75,183.72c1.74-1.26,3.47-2.52,5.12-3.8s3.24-2.59,4.74-3.94a49.08,49.08,0,0,0,4.1-4.21,23.88,23.88,0,0,0,5.14-9.33,21.68,21.68,0,0,0,.1-10.33,81.87,81.87,0,0,0-3.64-11.57c-.76-2-1.56-4.16-2.31-6.38-.37-1.08-.73-2.32-1.08-3.54s-.6-2.46-.83-3.72a38.43,38.43,0,0,1,.13-16.11,26.23,26.23,0,0,1,3.68-8.53c.49-.66,1-1.34,1.5-2s1.14-1.24,1.73-1.84,1.28-1.09,1.93-1.62a10.08,10.08,0,0,1,1.1-.79c.39-.25.78-.52,1.19-.73a23,23,0,0,1,9.82-2.75,38.11,38.11,0,0,1,8.44.46,68.81,68.81,0,0,1,7.32,1.56c2.32.6,4.55,1.27,6.7,2,4.3,1.39,8.4,2.8,12.28,4,1.94.59,3.82,1.11,5.59,1.5a30.63,30.63,0,0,0,4.77.72,12.57,12.57,0,0,0,1.7,0,4.45,4.45,0,0,0,.9-.22,1.11,1.11,0,0,0,.27-.13.93.93,0,0,0,.31-.34,8.27,8.27,0,0,0,1.09-2.81,29.8,29.8,0,0,0,.67-4.82c.07-.87.07-1.84.1-2.72a7.29,7.29,0,0,0-.12-1.42,14.4,14.4,0,0,0-1.39-3.79l-.55-1a7.55,7.55,0,0,0-.51-.78c-.56-.81-1.25-1.79-2-2.89a30.68,30.68,0,0,1-2.34-4.11l-.31-.75c-.1-.23-.21-.53-.32-.87s-.21-.62-.3-1-.2-.86-.27-1.3a11.08,11.08,0,0,1-.14-1.7,10.08,10.08,0,0,1,3.73-8,11.5,11.5,0,0,1,2.9-1.73c.37-.15.75-.29,1.05-.39s.63-.19.91-.26a21.76,21.76,0,0,1,2.82-.5,34,34,0,0,1,4.27-.15c1.28,0,2.52.09,3.62.16l3.33.2c4.61.31,8.77.78,12.54.8a36.28,36.28,0,0,0,5.33-.32l1.23-.21,1.21-.27c1-.23,1.94-.49,3-.77,4.1-1.1,8.78-2.62,14.3-3a30.31,30.31,0,0,1,4.27,0,25.07,25.07,0,0,1,4.52.73,23.88,23.88,0,0,1,8.27,3.92,18.42,18.42,0,0,1,6.17,8,17,17,0,0,1,1.06,5.23,20.38,20.38,0,0,1-.43,4.65,35.2,35.2,0,0,1-1,3.71l-1,3a10.81,10.81,0,0,0-.66,4c0,.1,0,.22,0,.33a2.46,2.46,0,0,1,.09.29c0,.23.16.36.19.57a3.86,3.86,0,0,0,.89,1.08,7.87,7.87,0,0,0,3.72,1.61,13.44,13.44,0,0,0,4.86,0,21.65,21.65,0,0,0,5.18-1.77c3.65-1.65,7.46-4.08,12-5.87a29.2,29.2,0,0,1,7.13-1.89,40.46,40.46,0,0,1,7.09-.29c4.63.2,9,1,13.31,1.48a51.73,51.73,0,0,0,12.55.49,19.38,19.38,0,0,0,5.8-1.56,14,14,0,0,0,1.34-.68,11.18,11.18,0,0,0,1.27-.79,12.72,12.72,0,0,0,2.23-1.93c2.73-3.05,4.68-7.07,7.32-10.68a18.09,18.09,0,0,1,4.87-4.84,10.19,10.19,0,0,1,6.77-1.46,12.06,12.06,0,0,1,6.12,2.94,24.22,24.22,0,0,1,4.34,5,37.1,37.1,0,0,1,5,12.13c1,4.26,1.7,8.58,2.66,12.85a49.89,49.89,0,0,0,4.37,12.31Zm-.08,0A48.61,48.61,0,0,1,345,98c-1.15-4.24-2.06-8.54-3.22-12.69a37.55,37.55,0,0,0-5.19-11.52,22.86,22.86,0,0,0-4.14-4.56,10.3,10.3,0,0,0-5.23-2.4,8.26,8.26,0,0,0-5.4,1.29,16,16,0,0,0-4.16,4.38c-2.43,3.46-4.24,7.51-7.21,11.08a19.84,19.84,0,0,1-12.11,6.29,53.8,53.8,0,0,1-13.36,0c-4.38-.39-8.69-1-13-1a29.24,29.24,0,0,0-12.4,2.3c-3.91,1.7-7.52,4.19-11.48,6.21a27.34,27.34,0,0,1-6.27,2.45,18.64,18.64,0,0,1-6.78.33,14,14,0,0,1-6.4-2.38,10.17,10.17,0,0,1-2.44-2.5,9.72,9.72,0,0,1-1.32-3.24,15.15,15.15,0,0,1,.45-6.75c.53-2.15,1.23-4.22,1.59-6.32a14,14,0,0,0,.22-3.15,10.16,10.16,0,0,0-.67-3,11.32,11.32,0,0,0-4-4.8,16.57,16.57,0,0,0-5.81-2.6,19.35,19.35,0,0,0-6.4-.35c-4.32.4-8.48,1.82-12.65,3.11a53.12,53.12,0,0,1-6.36,1.68,42.46,42.46,0,0,1-6.55.62c-4.39.11-8.75-.26-13.12-.45-2.18-.07-4.37-.17-6.55-.17a27.28,27.28,0,0,0-3.26.17,6.49,6.49,0,0,0-3,.93,1.27,1.27,0,0,0-.44.61,2.28,2.28,0,0,0,0,.78,6.52,6.52,0,0,0,.5,1.53,20.94,20.94,0,0,0,1.66,2.81,50.66,50.66,0,0,1,3.61,5.47,24,24,0,0,1,2.36,6.11,24.72,24.72,0,0,1,.32,6.54,37.51,37.51,0,0,1-.81,6.5,17.39,17.39,0,0,1-2.44,6,10.44,10.44,0,0,1-5,4,16.08,16.08,0,0,1-6.46.86,52.34,52.34,0,0,1-12.77-2.79c-4.16-1.34-8.26-2.88-12.39-4.31a87.78,87.78,0,0,0-12.6-3.58,29.16,29.16,0,0,0-6.52-.54,13.47,13.47,0,0,0-11.16,5.9,18.74,18.74,0,0,0-2.74,5.91,32,32,0,0,0-.49,13,76.93,76.93,0,0,0,3.43,12.64,86.6,86.6,0,0,1,3.43,12.65,28,28,0,0,1-.67,13,30.42,30.42,0,0,1-6.5,11.27,67.47,67.47,0,0,1-9.71,8.79c-3.47,2.66-7.07,5.14-10.62,7.69a118.37,118.37,0,0,0-10.32,8.08A42.85,42.85,0,0,0,54,209.86a29.92,29.92,0,0,0-2.67,6c-.17.52-.28,1-.42,1.58a11.08,11.08,0,0,0-.33,1.6c-.15,1.09-.34,2.17-.46,3.25a30.6,30.6,0,0,0,1.73,12.9,36.7,36.7,0,0,0,6.6,11.24,49.62,49.62,0,0,0,9.75,8.72,59.19,59.19,0,0,0,11.55,6.14c4.06,1.62,8,3.47,12.17,4.88a24.46,24.46,0,0,0,12.89,1.32,35,35,0,0,0,11.91-5.28c3.66-2.38,7.13-5.07,11-7.2s8.12-3.67,12.5-3.07a17.5,17.5,0,0,1,6.13,2.21,23.38,23.38,0,0,1,5,4.21,72,72,0,0,1,7.47,10.76,49.23,49.23,0,0,0,7.88,10.43,47,47,0,0,0,5,4.2,48.19,48.19,0,0,0,5.57,3.44,46.63,46.63,0,0,0,12.31,4.39c4.28.95,8.72.71,13,1.67a23.13,23.13,0,0,1,3.16.88,14,14,0,0,1,1.52.59l1.47.73a14.82,14.82,0,0,1,4.72,4.47,30.76,30.76,0,0,1,3,5.84c.84,2,1.6,4.07,2.4,6.1s1.61,4.07,2.57,6l.78,1.44a12.44,12.44,0,0,0,.93,1.35,20.13,20.13,0,0,0,2.15,2.47c3.21,3,7.19,4.95,11,7.14a35.59,35.59,0,0,1,5.4,3.7,20.24,20.24,0,0,1,2.35,2.28,12.34,12.34,0,0,1,1,1.28,10.13,10.13,0,0,1,.93,1.35,30.48,30.48,0,0,1,3.67,12.48c.9,8.74-.48,17.47-.76,26.19a59.49,59.49,0,0,0,.84,13.06,29.48,29.48,0,0,0,5,12c2.6,3.55,6.29,6.1,10.11,8.19s7.79,4,11.29,6.64a32.25,32.25,0,0,1,8.6,9.78,39,39,0,0,1,2.84,5.9,44.42,44.42,0,0,1,1.94,6.26A48.66,48.66,0,0,1,288,465.27,67.74,67.74,0,0,1,275.26,488c-2.71,3.4-5.48,6.89-7,11a15,15,0,0,0-.76,3.18,10.42,10.42,0,0,0,.19,3.25l.18.8.3.76a7.71,7.71,0,0,0,.72,1.47A14,14,0,0,0,271,511c.76.78,1.59,1.5,2.4,2.23s1.63,1.46,2.4,2.23c1.59,1.51,3.12,3.07,4.67,4.61a102.38,102.38,0,0,0,9.71,8.8l1.3,1c.45.32.91.61,1.36.92a32.07,32.07,0,0,0,2.81,1.68,10.58,10.58,0,0,0,1.47.73l1.5.67c.51.19,1,.34,1.55.51a10.58,10.58,0,0,0,1.58.45,19.83,19.83,0,0,0,12.78-1.37A37.25,37.25,0,0,0,325,525.77a79.86,79.86,0,0,0,8.36-10.08c10.07-14.34,17.42-30.3,26.13-45.46A118,118,0,0,1,374.74,449a53.11,53.11,0,0,1,9.91-8.53,68.21,68.21,0,0,1,11.61-6.07c8.1-3.32,16.62-5.44,25-7.87,4.2-1.22,8.37-2.52,12.46-4.07a78.5,78.5,0,0,0,11.83-5.61c.95-.55,1.86-1.15,2.78-1.74s1.81-1.22,2.67-1.9c1.77-1.29,3.36-2.78,5-4.21a67.74,67.74,0,0,0,8.55-9.91A91.52,91.52,0,0,0,476,375.55c5.6-16.59,8.23-34,12.36-50.95a168.25,168.25,0,0,1,7.81-25A102.56,102.56,0,0,1,502,287.84c.56-.94,1.17-1.85,1.75-2.78l.88-1.38,1-1.33c.65-.88,1.27-1.77,1.94-2.64l2.1-2.52c5.7-6.67,12.74-12,19.27-17.77a86,86,0,0,0,9.25-9.26,51.43,51.43,0,0,0,3.91-5.25,49.76,49.76,0,0,0,7-18.21,52.82,52.82,0,0,0,.67-13c-.36-4.33-.94-8.75-2.79-12.72a27.62,27.62,0,0,0-1.52-2.9c-.29-.46-.61-.9-.91-1.35a14,14,0,0,0-1-1.31,32.54,32.54,0,0,0-4.58-4.66,65.68,65.68,0,0,0-10.93-7.19l-5.79-3.08a58.11,58.11,0,0,1-5.56-3.48c-7.11-5.07-13.3-11.48-21.27-15.24s-16.29-6.3-24.57-9.09L446,144.42c-8.31-2.71-16.6-5.51-24.93-8.15s-16.84-4.84-25.56-5.62c-4.35-.46-8.7-.86-13-1.45a74.89,74.89,0,0,1-12.82-2.76,35,35,0,0,1-11.52-6.12,36,36,0,0,1-8.28-10.09Z"/></svg>