<svg id="Layer_1" data-name="Layer 1" xmlns="http://www.w3.org/2000/svg" viewBox="0 0 600 600"><title>andorra</title><path d="M141,116.09A27.1,27.1,0,0,1,153.66,112c4.51-.41,9,.24,13.43.88s8.81,1.41,13.16,1.62a36.87,36.87,0,0,0,12.7-1.37,62.58,62.58,0,0,0,11.93-5c1.94-1,3.86-2.1,5.78-3.2l5.77-3.4a84.66,84.66,0,0,1,12.37-6.23,51.23,51.23,0,0,1,14-3.43,35.48,35.48,0,0,1,7.56.1A29.75,29.75,0,0,1,258,94a27.63,27.63,0,0,1,6.91,4.32,37.66,37.66,0,0,1,5.24,5.73c3,4,5.13,7.77,7.69,10.81a59.86,59.86,0,0,0,8.46,8.68,64.35,64.35,0,0,0,43.93,15.16,99.68,99.68,0,0,0,12.2-1.48,120.58,120.58,0,0,1,14.31-1.68,55.06,55.06,0,0,1,8.07.22,64.88,64.88,0,0,1,7.9,1.4c5,1.19,9.37,2.77,13.36,4a95.67,95.67,0,0,0,23.64,4.09c2,.08,4,.12,6,.08,1,0,2,0,3-.1l1.5-.08,1.57-.11a90.91,90.91,0,0,1,15.17-.29,36.44,36.44,0,0,1,9.44,2.1,22.56,22.56,0,0,1,2.45,1,23,23,0,0,1,2.39,1.28,31.53,31.53,0,0,1,4.14,2.92c2.26,1.88,3.75,3.31,4.65,3.91a3.11,3.11,0,0,0,.3.2l.23.14a1.25,1.25,0,0,0,.32.14,4.93,4.93,0,0,0,1,.3,21.27,21.27,0,0,0,4.14.39c1.78,0,3.81,0,6.14-.08a68.85,68.85,0,0,1,8.05.18,33.83,33.83,0,0,1,5.18.9,23.7,23.7,0,0,1,6.15,2.54,21,21,0,0,1,5.81,5.07,16.3,16.3,0,0,1,1.11,1.55,14,14,0,0,1,.95,1.57,21.72,21.72,0,0,1,1.47,3.36,19.46,19.46,0,0,1,.93,3.7,24.21,24.21,0,0,1,.28,3.8,27.94,27.94,0,0,1-.37,3.6c-.12.55-.24,1.1-.37,1.65l-.21.82-.24.74a32.83,32.83,0,0,1-5.05,9.4,59.64,59.64,0,0,1-5.5,6.31c-.9.93-1.78,1.78-2.64,2.61-.51.48-.65.64-.93.92l-.71.77a13.43,13.43,0,0,0-1.91,2.75c-.3.69-.23.92-.18.43,0-.13,0-.24,0-.39s0-.27-.09-.39,0-.19-.11-.26a3.24,3.24,0,0,0-.21-.4,1.46,1.46,0,0,0-.16-.19,1.17,1.17,0,0,1-.08-.13,1,1,0,0,0-.19-.21s0,0,0-.07.08,0,.12.07.31.15.45.25l.72.33a29.83,29.83,0,0,0,4.33,1.41,94.62,94.62,0,0,0,11.46,2c4.09.48,8.34.82,12.7,1.14l6.69.47c2.31.17,4.62.35,7.33.68.67.09,1.51.2,2.15.31l2,.34c1.32.27,2.64.53,4,.87a59.6,59.6,0,0,1,8.17,2.6,44.52,44.52,0,0,1,8.63,4.54,29.48,29.48,0,0,1,8.54,8.95c.31.51.61,1,.89,1.54s.51,1.12.75,1.68a20,20,0,0,1,1.19,3.52,27.2,27.2,0,0,1,.84,7.25,26.05,26.05,0,0,1-1.29,7.34,27.94,27.94,0,0,1-3.05,6.28,32.06,32.06,0,0,1-8.49,8.7,37.5,37.5,0,0,1-10,5c-6.52,2.07-12.24,2.35-16.67,2.82-2.21.21-4.17.41-5.75.7a36.31,36.31,0,0,0-4.46,1.1,28.77,28.77,0,0,0-7.69,3.71,21.11,21.11,0,0,0-2.82,2.34c-.34.43-.77.8-1,1.23-.15.21-.34.39-.47.6s-.26.41-.4.6a12.78,12.78,0,0,0-1.19,2.44,26.44,26.44,0,0,0-.85,3.23,61.32,61.32,0,0,0-.86,9.88c-.14,4-.16,8.23-.13,12.57,0,1.08,0,2.17,0,3.28a20.28,20.28,0,0,1-.4,3.34c-.44,2.24-1.3,4.52-2,6.81a29.6,29.6,0,0,0-1.3,7c-.2,2.37-.42,4.75-.71,7.17s-.53,4.87-.88,7.33c-.18,1.24-.32,2.47-.53,3.72l-.63,3.75-.75,3.78c-.27,1.26-.6,2.53-.9,3.79l-.23.95-.29,1-.58,2c-.37,1.32-.85,2.6-1.32,3.88A70.76,70.76,0,0,1,481,386.53c-.78,1.13-1.6,2.25-2.4,3.37s-1.72,2.18-2.61,3.25-1.86,2.09-2.84,3.1l-1.47,1.51-1.59,1.43a56.29,56.29,0,0,1-14.52,9.68,47.14,47.14,0,0,1-17.68,4.19,42.82,42.82,0,0,1-8.74-.42c-2.71-.37-5.2-.88-7.51-1.41-4.61-1.07-8.54-2.09-11.94-2.54a20.37,20.37,0,0,0-8.53.52,8.44,8.44,0,0,0-2.76,1.35,5.23,5.23,0,0,0-.84.77c-.13.13-.19.29-.33.43s-.19.37-.31.55a15.58,15.58,0,0,0-1.05,4.37c-.29,2-.49,4.31-1,7.09a31.83,31.83,0,0,1-1.14,4.52c-.28.81-.63,1.66-1,2.49a23.7,23.7,0,0,1-1.41,2.55,18.58,18.58,0,0,1-1.85,2.41c-.35.38-.7.75-1.06,1.12s-.77.68-1.17,1a20.33,20.33,0,0,1-5.11,3,28.39,28.39,0,0,1-9.35,1.87c-2.73.16-5.15.08-7.23.09s-4.31.09-6.47.17-4.31.25-6.46.41q-6.45.5-12.85,1.33c-2.14.29-4.27.59-6.39.92s-4.26.62-6.35,1.18c-1,.26-2.08.58-3.11.93l-3.09,1a54.35,54.35,0,0,1-5.82,1.62,32.59,32.59,0,0,0-8.56,2.59,11.25,11.25,0,0,0-2.9,2.1c-1.17,1.14-2.45,2.55-3.83,4.2s-2.86,3.49-4.58,5.44a44.89,44.89,0,0,1-6.27,6,26,26,0,0,1-9.32,4.72,25.16,25.16,0,0,1-10.33.45c-.79-.12-1.53-.3-2.3-.46l-2.16-.6c-1.5-.45-2.72-.93-3.75-1.33a13.84,13.84,0,0,0-3.42-1.11,1.34,1.34,0,0,0,.32-.07c.16-.05.22-.14.16,0a11,11,0,0,0-.85,2.68,21.72,21.72,0,0,0-.22,2.25l0,.64-.07,1c-.05.67-.09,1.34-.19,2a49,49,0,0,1-1.58,8.17,44.18,44.18,0,0,1-3.3,8.21,34.92,34.92,0,0,1-5.57,7.7,32.85,32.85,0,0,1-7.78,6.15,23.07,23.07,0,0,1-2.2,1.16c-.74.36-1.5.73-2.18,1s-1.4.58-2.1.84l-2.1.71a62.87,62.87,0,0,1-8.27,2c-2.67.45-5.27.73-7.78.9s-4.89.31-7.18.34l-6.5.14c-1,0-2,0-3,.08l-3.31.1a68.62,68.62,0,0,1-6.88-.07,72.39,72.39,0,0,1-13.66-2.69c-2.26-.6-4.52-1.12-6.77-1.59s-4.52-.78-6.77-1.19c-4.51-.78-9-1.62-13.46-2.49s-8.9-1.81-13.42-2.57-9.23-1.6-14-2.78c-2.38-.62-4.81-1.27-7.22-2.15a53.25,53.25,0,0,1-7.23-3.09,51.34,51.34,0,0,1-13-9.63A57.2,57.2,0,0,1,82.05,477a78.74,78.74,0,0,1-8.28-28.82c-.29-2.49-.38-5-.44-7.41,0-1.2,0-2.37,0-3.5s.14-2.25.24-3.31c.45-4.25,1.32-7.95,1.7-10.14a4.69,4.69,0,0,0,0-2.83A5.9,5.9,0,0,0,72,418.51a15.44,15.44,0,0,0-2.62-.66c-.46-.07-1-.1-1.43-.14a11.85,11.85,0,0,0-1.47-.08H64.87c-.7,0-1.4,0-2.09-.08A26.73,26.73,0,0,1,58.7,417a23.58,23.58,0,0,1-8-3.34,15.25,15.25,0,0,1-3.74-3.6,11.87,11.87,0,0,1-2.17-5.52,8.37,8.37,0,0,1-.08-1.49,11.89,11.89,0,0,1,.07-1.46,12.17,12.17,0,0,1,.69-2.83,10,10,0,0,1,.59-1.39q.38-.66.78-1.29a8.75,8.75,0,0,1,.92-1.15,8.11,8.11,0,0,1,1-1c.34-.3.69-.59,1.05-.88s.7-.48,1.06-.71A15.77,15.77,0,0,1,53,391.13a25.69,25.69,0,0,1,4-1.4,50.71,50.71,0,0,1,7.5-1.21l3.44-.29,3-.32a66.31,66.31,0,0,0,12-2.91,76.76,76.76,0,0,0,21.8-11.37,60.93,60.93,0,0,0,8.76-8l1.8-2.2c.57-.75,1.06-1.52,1.6-2.27a6.15,6.15,0,0,0,.38-.56l.27-.49a10.52,10.52,0,0,0,.53-1l.46-1c.14-.34.24-.72.37-1.07a22.33,22.33,0,0,0,.88-9.53A35.08,35.08,0,0,0,117,337.35a42.68,42.68,0,0,0-5.51-9.33,36.3,36.3,0,0,0-7.5-7.19,23.17,23.17,0,0,0-4.17-2.34,17.53,17.53,0,0,0-4.18-1.31,24.69,24.69,0,0,0-9.55.42c-3.68.75-7.82,2.11-12.53,3.33l-1.8.44c-.32.08-.58.15-1,.22l-1.14.22a26.87,26.87,0,0,1-5,.5,19.37,19.37,0,0,1-6.06-.9c-.55-.18-1.1-.38-1.65-.59s-1.11-.57-1.66-.88a16,16,0,0,1-3-2.3A18.8,18.8,0,0,1,51,316.22l-.59-.74c-.17-.25-.32-.5-.47-.75-.31-.51-.61-1-.89-1.54s-.43-1-.63-1.51a18.63,18.63,0,0,1-.85-2.92c-.18-.93-.28-1.81-.37-2.7a31.49,31.49,0,0,1,.77-9.14,50.34,50.34,0,0,1,6-14.8,46.1,46.1,0,0,1,4.76-6.57,27.42,27.42,0,0,1,7.12-5.95l.59-.33c.21-.12.38-.2.53-.27l1-.44c.63-.28,1.26-.54,1.88-.78,1.24-.48,2.45-.89,3.62-1.26,2.34-.73,4.52-1.29,6.51-1.87a39.71,39.71,0,0,0,5.31-1.88c.42-.18.72-.34,1-.5s.62-.36.93-.54A13.35,13.35,0,0,0,89,260.37a10.41,10.41,0,0,0,2.4-3.13,4.13,4.13,0,0,0,.42-2.52,4.48,4.48,0,0,0-1.67-2.55,25.1,25.1,0,0,0-4.67-2.9c-1.9-1-4.06-2-6.3-3.46a18.77,18.77,0,0,1-1.68-1.16,20.92,20.92,0,0,1-3.25-3l-.39-.43-.3-.38-.59-.77A25.55,25.55,0,0,1,69.05,233a17.86,17.86,0,0,1-.76-8.69,19.67,19.67,0,0,1,3.17-7.72,31.18,31.18,0,0,1,5-5.68,62.52,62.52,0,0,1,11.66-8c4-2.19,8.18-4.08,12.32-5.87s8.33-3.41,12.51-5,8.42-3.06,12.34-4.84a19.62,19.62,0,0,0,9.14-8.35,20.16,20.16,0,0,0,1.91-6.05,35.41,35.41,0,0,0,.25-6.52c-.51-8.81-3.18-17.46-4.23-26.32a45.33,45.33,0,0,1-.28-6.69,24.59,24.59,0,0,1,1.11-6.59,20.4,20.4,0,0,1,7.86-10.54Zm.06.07a20.37,20.37,0,0,0-7.32,10.71,23.79,23.79,0,0,0-.78,6.45c0,1.09,0,2.18.17,3.27s.24,2.17.39,3.25c.33,2.17.79,4.32,1.26,6.48s1,4.32,1.45,6.49,1,4.37,1.37,6.59a68.06,68.06,0,0,1,.92,6.75,37.26,37.26,0,0,1-.1,6.92,22.3,22.3,0,0,1-1.95,6.78,22,22,0,0,1-10,9.67c-4.11,2-8.24,3.61-12.35,5.35S106,198.32,102,200.21s-8,3.88-11.75,6.13a58.9,58.9,0,0,0-10.58,7.76c-3.1,3-5.8,6.62-6.37,10.81a12.69,12.69,0,0,0,.72,6.18,20.09,20.09,0,0,0,3.23,5.54c2.58,3.49,6.72,5.26,10.75,7.14a34.27,34.27,0,0,1,5.91,3.34A11.35,11.35,0,0,1,98,252.65a10.5,10.5,0,0,1-.21,6.87,16.7,16.7,0,0,1-3.71,5.73,19.6,19.6,0,0,1-5.47,4,44.63,44.63,0,0,1-6.24,2.5c-4.23,1.41-8.59,2.5-12.45,4.66A19.65,19.65,0,0,0,65,280.77a37.47,37.47,0,0,0-3.78,5.47,41.94,41.94,0,0,0-4.77,12.37,23.27,23.27,0,0,0-.48,6.6,9.64,9.64,0,0,0,2.49,6,8.6,8.6,0,0,0,6.11,2.07,27.62,27.62,0,0,0,6.54-1.15c4.3-1.16,8.52-2.63,12.87-3.62a33.45,33.45,0,0,1,13.25-.65,26.45,26.45,0,0,1,6.38,2,31,31,0,0,1,5.8,3.29,46.7,46.7,0,0,1,16,20.92c.44,1,.76,2.1,1.13,3.15s.65,2.13.87,3.22a38.68,38.68,0,0,1,1,6.6,30.18,30.18,0,0,1-1.89,13.11,24.09,24.09,0,0,1-3.25,5.82c-.69.87-1.34,1.77-2.06,2.62L119,371a68.12,68.12,0,0,1-10.26,8.53,81.9,81.9,0,0,1-11.6,6.59c-2,1-4.08,1.79-6.14,2.63s-4.19,1.52-6.34,2.13a77.52,77.52,0,0,1-13.06,2.73l-3.33.26-3.34.21a42,42,0,0,0-6.6,1,13.83,13.83,0,0,0-6,2.82,6.91,6.91,0,0,0-2.26,6,6.5,6.5,0,0,0,1.2,3.07,9.9,9.9,0,0,0,2.4,2.3,18,18,0,0,0,6.16,2.5,24.48,24.48,0,0,0,3.3.46c1.11.08,2.23,0,3.34,0a35.31,35.31,0,0,1,6.65.61,16.18,16.18,0,0,1,6.15,2.48,11.59,11.59,0,0,1,4,5.22A24,24,0,0,1,84.74,427c.23,2.22.29,4.45.33,6.68.08,4.45.09,8.91.52,13.35.83,8.85,2.31,17.75,5.77,26a45.2,45.2,0,0,0,6.82,11.43,37.8,37.8,0,0,0,10.16,8.56,48.63,48.63,0,0,0,12.41,4.84,108.78,108.78,0,0,0,13.16,2.3q13.28,1.59,26.62,2.44t26.7,1c4.46.08,8.91,0,13.37.07s8.9.4,13.35.43a59.76,59.76,0,0,0,13.28-1.21,25,25,0,0,0,11.83-5.86,25.5,25.5,0,0,0,4.25-5.13,32,32,0,0,0,2.84-6,36,36,0,0,0,1.62-6.47,63.63,63.63,0,0,1,1-6.59,15.14,15.14,0,0,1,2.84-6,7.65,7.65,0,0,1,5.82-2.83,18.58,18.58,0,0,1,6.46,1.51,28.31,28.31,0,0,0,6.44,1.75,15,15,0,0,0,12.38-3.73c3.38-2.94,5.83-6.73,8.4-10.35s5.2-7.34,9-9.81a35.8,35.8,0,0,1,12.4-4.75c4.36-.92,8.78-1.53,13.19-2.14s8.85-1.06,13.29-1.43q13.32-1.12,26.7-.95c2.23,0,4.46.11,6.68,0a19.92,19.92,0,0,0,6.53-1.26,11.32,11.32,0,0,0,2.87-1.68c.21-.19.43-.36.62-.56L383,430a9.25,9.25,0,0,0,1-1.33,16.24,16.24,0,0,0,2.12-6.29c.69-4.39.54-8.93,2-13.18a14.36,14.36,0,0,1,3.58-5.57,18.22,18.22,0,0,1,5.57-3.63,29.67,29.67,0,0,1,13.08-2.11,128.35,128.35,0,0,1,13.23,1.86c4.38.7,8.85,1.34,13.29.86A35,35,0,0,0,449.6,397c8-4.07,14.38-10.7,19.16-18.18a65.51,65.51,0,0,0,5.87-12,76.36,76.36,0,0,0,3.45-12.89,167,167,0,0,0,2.14-26.61c.13-8.91,0-17.83.47-26.73a71,71,0,0,1,1.73-13.23,36.22,36.22,0,0,1,2.18-6.31,31.48,31.48,0,0,1,3.47-5.69,34.6,34.6,0,0,1,4.62-4.83,39.11,39.11,0,0,1,5.47-3.82,46,46,0,0,1,12.4-4.87,54.44,54.44,0,0,1,6.58-1.11c2.22-.23,4.45-.32,6.67-.42,4.44-.2,8.94-.39,13.23-1.64a19.65,19.65,0,0,0,10.78-7.43,13.77,13.77,0,0,0,1.51-3A12.14,12.14,0,0,0,550,245a11.75,11.75,0,0,0-1.6-6.37,16.3,16.3,0,0,0-4.54-4.82,30.1,30.1,0,0,0-5.86-3.16,44,44,0,0,0-6.34-2.1,58.25,58.25,0,0,0-6.54-1.32c-4.42-.57-8.87-.84-13.31-1.22s-8.87-.78-13.29-1.35a102.58,102.58,0,0,1-13.13-2.46A39.91,39.91,0,0,1,479,220a15.73,15.73,0,0,1-5.45-3.8,10.08,10.08,0,0,1-2.26-6.17,13.75,13.75,0,0,1,1.62-6.43,26.3,26.3,0,0,1,3.86-5.44c1.5-1.66,3.21-3.1,4.77-4.69a50,50,0,0,0,4.44-5,20.66,20.66,0,0,0,3.23-5.8,9.72,9.72,0,0,0-3.95-11.63,15.45,15.45,0,0,0-6.35-1.85,61.76,61.76,0,0,0-6.67-.2c-4.44,0-8.95.25-13.31-.83a16,16,0,0,1-6-2.86c-1.79-1.34-3.36-2.93-5.07-4.35a19.52,19.52,0,0,0-5.69-3.42,25.2,25.2,0,0,0-6.48-1.48,82.55,82.55,0,0,0-13.34.16,110.28,110.28,0,0,1-13.36,0,106.74,106.74,0,0,1-26.21-4.93c-4.25-1.35-8.44-2.87-12.75-4a52.29,52.29,0,0,0-6.55-1.29,51.05,51.05,0,0,0-6.66-.33c-8.91.11-17.69,2.2-26.63,2.13a71.71,71.71,0,0,1-48.49-19.43,65.69,65.69,0,0,1-8.8-10c-2.67-3.58-4.68-7.59-7.22-11.24a31.7,31.7,0,0,0-4.28-5.1A22.59,22.59,0,0,0,256,98.31a26,26,0,0,0-6.34-2A32.19,32.19,0,0,0,243,96a47.73,47.73,0,0,0-13,2.62,83.46,83.46,0,0,0-12.17,5.46c-3.95,2.07-7.84,4.23-11.86,6.16A65,65,0,0,1,193.4,115a38.79,38.79,0,0,1-13.28,1c-4.44-.38-8.81-1.31-13.2-2.09a69.48,69.48,0,0,0-13.25-1.48,25.36,25.36,0,0,0-6.59,1,19.18,19.18,0,0,0-5.94,2.94Z"/></svg>