<svg id="Layer_1" data-name="Layer 1" xmlns="http://www.w3.org/2000/svg" viewBox="0 0 600 600"><title>Cameroon</title><path d="M141.79,363.67c.7-1.91,1.33-3.84,2.08-5.73.35-1,.74-1.9,1-2.87l1.11-2.85a61.06,61.06,0,0,1,2.48-5.62c.46-.91,1-1.8,1.48-2.69s1-1.81,1.55-2.66a91.44,91.44,0,0,1,25.37-26.93c1.75-1.13,3.45-2.36,5.28-3.37l2.71-1.6,2.79-1.46a59.74,59.74,0,0,1,11.9-4.76A37.87,37.87,0,0,1,213,301.78a44.86,44.86,0,0,1,13,3.48c4,1.68,7.75,3.66,11.35,5.55a109.19,109.19,0,0,0,10.49,5,26.81,26.81,0,0,0,9.68,2.16,15.72,15.72,0,0,0,4.3-.59,15.9,15.9,0,0,0,3.85-1.71,23.35,23.35,0,0,0,6.64-6.4,37.56,37.56,0,0,0,2.66-4.28c.4-.75.79-1.52,1.15-2.3l.57-1.27.6-1.33c1.56-3.57,3.06-7.25,4.61-11s3.15-7.62,4.91-11.51c.89-1.94,1.8-3.9,2.8-5.86.48-1,1-1.95,1.53-2.94s1.16-2.06,1.77-3c2.4-3.95,5-7.46,7.26-10.72a91.84,91.84,0,0,0,6-9.22c3.12-5.8,5.21-12.64,6.88-20l.62-2.81c.09-.45.22-1,.28-1.37l.18-1.13c.13-.71.22-1.55.31-2.38s.16-1.69.22-2.58c.26-3.56.36-7.49.51-11.65s.35-8.58,1-13.32a61,61,0,0,1,3.81-15.15l.83-2,1-2,1.09-2c.42-.66.87-1.31,1.31-2a39.47,39.47,0,0,1,6-6.94c2.09-2,4.08-3.5,5.59-4.73a26.86,26.86,0,0,0,3.19-2.86,7.57,7.57,0,0,0,1.3-1.92c.09-.15.15-.37.24-.54s.07-.14.14-.3l.18-.46c.25-.58.49-1.26.73-1.95,1-2.79,1.9-6.45,3.17-10.75a66.18,66.18,0,0,1,6.07-14.65,61.79,61.79,0,0,1,10.36-12.83c3.5-3.4,6.75-6.14,9.4-8.61a10.08,10.08,0,0,1,2-1.65,6,6,0,0,1,1.21-.48c.43-.12.79-.18,1.21-.27a9.4,9.4,0,0,0,3.83-2.13c1.1-.85,2.05-1.77,3-2.64a18.88,18.88,0,0,0,2.34-2.62,12.24,12.24,0,0,0,1.56-2.58l.24-.68c0-.23.1-.47.16-.72a6.61,6.61,0,0,0,0-1.8,18.22,18.22,0,0,0-1.37-4.73c-.71-1.71-1.62-3.53-2.62-5.43l-1.54-3c-.52-1-1-2.14-1.56-3.3a33.82,33.82,0,0,1-1.35-3.81,18.67,18.67,0,0,1-.71-4.51,16.63,16.63,0,0,1,.52-4.89,18,18,0,0,1,2-4.5,13.42,13.42,0,0,1,1.51-2.06,12.52,12.52,0,0,1,1.85-1.79A16.25,16.25,0,0,1,387,44.81a21.26,21.26,0,0,1,8.72-1.53,29.13,29.13,0,0,1,8.08,1.32,28.24,28.24,0,0,1,7.56,3.64l.46.31.37.28.75.58,1.5,1.17a32.71,32.71,0,0,1,2.85,2.54c.45.45.95.87,1.37,1.35L420,55.9l1.27,1.44,1.14,1.5a36.76,36.76,0,0,1,2.16,3.1c.65,1,1.41,2.1,2,3.17a80.87,80.87,0,0,1,5.9,13.08c1.57,4.37,2.89,8.68,4,12.88s2.14,8.24,3.09,12.09c.24.93.47,2,.72,2.82l.73,2.66c.48,1.77,1,3.54,1.54,5.3s1.07,3.53,1.65,5.29,1.12,3.51,1.73,5.26c.27.88.64,1.74.89,2.63a13.76,13.76,0,0,1,.46,2.74,57.34,57.34,0,0,1-.32,5.91,15.62,15.62,0,0,0,.6,5.74q.76,2.73,1.6,5.45c.61,1.79,1.24,3.58,1.9,5.35l.25.66c0,.1,0-.08,0,0l.11.23.21.4c.31.6.79,1.42,1.27,2.25,1,1.69,2.15,3.59,3.29,5.65a66,66,0,0,1,3.43,7,40.91,40.91,0,0,1,1.56,4.49,27.8,27.8,0,0,1,1,6.12,21.63,21.63,0,0,1-1.42,9.05,19.56,19.56,0,0,1-2.87,5,17.68,17.68,0,0,1-1.93,2.1c-.34.31-.7.65-1,.92s-.68.52-1,.77a21.8,21.8,0,0,1-7.9,3.52,26.11,26.11,0,0,1-6.16.64c-.83,0-1.57-.05-2.21-.09l-1.81-.15c-1.29-.12-2.46-.27-3.61-.42-4.54-.62-8.41-1.38-12.07-2a70.05,70.05,0,0,0-9.82-1,16.37,16.37,0,0,0-6,.8,8.21,8.21,0,0,0-1.32.71s-.14,0-.2.16-.2.15-.23.28-.15.22-.22.36a2.34,2.34,0,0,1-.19.44,11.77,11.77,0,0,0,.45,6.58,22.85,22.85,0,0,0,1.73,4.1c.38.67.75,1.35,1.17,2,.19.32.45.68.7,1l.76,1.09a82.71,82.71,0,0,0,7.24,8.4c5.34,5.53,11.52,10.77,17.92,16.41a132.2,132.2,0,0,1,9.51,9.23A60.11,60.11,0,0,1,450,260.55a45.3,45.3,0,0,1,5.1,14.42c.22,1.27.28,2.6.4,3.89.08.65-.22,1.31-.14,1.95s.23,1.29.37,1.94l.78,3.95a19.52,19.52,0,0,1,.2,4,63.59,63.59,0,0,1-3.56,14.67,102,102,0,0,1-5.88,12.95c-4.34,8.15-9.62,15.46-14,22-2.2,3.26-4.19,6.35-5.79,9.28a43.86,43.86,0,0,0-3.57,8.26,26.9,26.9,0,0,0-1.26,7.4c0,.33-.05.55,0,1v1.17c0,.78,0,1.56,0,2.35,0,1.57.15,3.15.23,4.73a92.17,92.17,0,0,0,3.79,19.16c1,3.2,2.12,6.37,3.4,9.53.63,1.58,1.33,3.14,2,4.7l2.17,4.51c2.74,5.79,5.92,12.49,9.16,19.81q2.47,5.46,5.23,11.07t6,10.94c1.12,1.75,2.18,3.57,3.37,5.27s2.32,3.46,3.53,5.16l3.7,5.09c1.3,1.66,2.5,3.39,3.81,5.06,2.55,3.39,5.15,6.83,7.73,10.38a114.2,114.2,0,0,1,7.32,11.34,62.62,62.62,0,0,1,5.55,13,51,51,0,0,1,2.14,14.48c0,1.24,0,2.48-.09,3.7l-.38,3.67-.1.91c0,.32-.12.7-.19,1-.13.71-.29,1.41-.47,2.11a31.17,31.17,0,0,1-1.4,4.08,28.8,28.8,0,0,1-4.69,7.41,28,28,0,0,1-7,5.72c-.66.38-1.32.74-2,1.06s-1.38.62-2.08.88a21.14,21.14,0,0,1-2.14.67,16.49,16.49,0,0,1-2.15.54,23.43,23.43,0,0,1-9,.17,26.43,26.43,0,0,1-7.68-2.66,39.21,39.21,0,0,1-5.95-3.81c-.87-.68-1.74-1.36-2.54-2l-2.43-2c-1.57-1.31-3.07-2.52-4.54-3.56a46.91,46.91,0,0,0-9.86-5.15c-7-2.7-14.65-4-22.42-4.92-3.9-.43-7.84-.83-11.84-1.15s-8-.55-12.08-.76l-12.1-.51c-4-.11-8.06-.28-12.1-.35-16.13-.32-32.23-.63-48.33-.58-4-.11-8.05,0-12.07-.21l-6-.14-6-.2c-8.06-.22-16.12-.39-24.18-.41-4,0-8.07,0-12.1,0s-8.07.09-12.1.18-8.07.22-12.11.3l-6.17.15c-2.11,0-4.23,0-6.38,0a81.38,81.38,0,0,1-13.12-1.25,43.35,43.35,0,0,1-13.2-4.55,28.7,28.7,0,0,1-10.52-10.1,31.26,31.26,0,0,1-4.28-13.41,67.74,67.74,0,0,1,.21-12.94c.4-4.14.93-8.15,1.25-12.09a55.29,55.29,0,0,0,0-11.58,25.71,25.71,0,0,0-3.61-10.54,45,45,0,0,0-7.49-8.93c-2.88-2.79-6-5.51-8.76-8.61a37.54,37.54,0,0,1-6.94-10.4A71.57,71.57,0,0,1,140.61,412c-.23-1-.51-2-.7-3l-.57-3c-.29-2-.63-4-.81-6.07a95.58,95.58,0,0,1-.48-12.2,87.67,87.67,0,0,1,3.83-24Zm.09,0a90.43,90.43,0,0,0-2.19,12,95.63,95.63,0,0,0-.49,12.08,109,109,0,0,0,.91,12c.24,2,.62,3.95.95,5.92l.63,2.94c.21,1,.5,1.93.75,2.9a70.33,70.33,0,0,0,4.11,11.24,35.06,35.06,0,0,0,6.75,9.6c2.75,2.87,5.86,5.45,8.9,8.21a47.78,47.78,0,0,1,8.29,9.28,29.53,29.53,0,0,1,4.5,11.7,59.63,59.63,0,0,1,.5,12.36c-.36,8.17-1.67,16.26-.68,24.21a26.26,26.26,0,0,0,3.86,11.13,23,23,0,0,0,8.72,7.9,36.9,36.9,0,0,0,11.45,3.52,75,75,0,0,0,12.09.74c4,0,8.1-.32,12.16-.56s8.11-.54,12.18-.74,8.11-.44,12.18-.6,8.12-.32,12.18-.44q24.38-.74,48.77-.29t48.72,2.1c4.06.25,8.1.6,12.16.9l12.14,1.06c8.09.82,16.19,1.53,24.23,2.79a98.9,98.9,0,0,1,23.49,6.31,58.43,58.43,0,0,1,10.65,5.87c3.34,2.33,6.35,5.08,9.67,7.43a34,34,0,0,0,5.22,3.13,16.09,16.09,0,0,0,5.84,1.6,15.57,15.57,0,0,0,11.16-4.06,23.12,23.12,0,0,0,6.54-10.12,27.58,27.58,0,0,0,1.28-6l.31-3c.08-1,.07-2,.11-3A59.83,59.83,0,0,0,475.24,500a104.25,104.25,0,0,0-12-21.14c-9.49-13.23-20.79-25-31.09-37.56a143.6,143.6,0,0,1-14.06-19.88A113.08,113.08,0,0,1,408.5,399a95.72,95.72,0,0,1-4.11-24,78.54,78.54,0,0,1,.52-12.17,45,45,0,0,1,3.16-11.73c3.15-7.53,8.11-14.1,13.14-20.45s10.25-12.64,14.53-19.57,7.81-14.38,9.18-22.42a37.24,37.24,0,0,0-3.7-23.66c-3.72-7.27-9.37-13.31-15.24-18.88s-12.19-10.76-18.06-16.39a104.43,104.43,0,0,1-8.32-8.9A52.44,52.44,0,0,1,396,216a40.15,40.15,0,0,1-2.78-5.42,23.66,23.66,0,0,1-1.89-11.91,14.81,14.81,0,0,1,2.05-5.69,15,15,0,0,1,4.22-4.34,23.9,23.9,0,0,1,11.49-3.66,67.88,67.88,0,0,1,12.18.23c4.05.37,8.07.94,12.12,1.32,2,.18,4.05.32,6.09.3a9.84,9.84,0,0,0,5.77-1.59,5.17,5.17,0,0,0,1.85-2.36,6.92,6.92,0,0,0,.41-3A18.76,18.76,0,0,0,446,174a86.53,86.53,0,0,0-5.73-10.75,36.34,36.34,0,0,1-2.82-5.39q-1.14-2.83-2.22-5.68-2.13-5.71-3.93-11.54a192.78,192.78,0,0,1-5.78-23.68c-1.46-8-2-16.13-3-24.19-.49-4-1.08-8.06-1.91-12A63.05,63.05,0,0,0,417.12,69a40,40,0,0,0-6.27-10.4,36.38,36.38,0,0,0-4.33-4.27,19.58,19.58,0,0,0-5.29-3,20.34,20.34,0,0,0-5.92-1.32,14.17,14.17,0,0,0-6,.78,9.63,9.63,0,0,0-6.27,9.49,14.94,14.94,0,0,0,1.64,5.82,46.83,46.83,0,0,0,3.1,5.24c2.24,3.38,4.68,6.67,6.33,10.4a17.92,17.92,0,0,1,1.56,5.87,19.93,19.93,0,0,1-.49,6.06,30.44,30.44,0,0,1-5.33,10.88,56.09,56.09,0,0,1-8.44,8.78c-3.06,2.67-6.23,5.22-9.2,8a45.13,45.13,0,0,0-7.85,9.26,52.11,52.11,0,0,0-4.81,11.17c-1.25,3.86-2.34,7.78-3.84,11.57a39.05,39.05,0,0,1-2.65,5.49,23.62,23.62,0,0,1-3.83,4.74c-2.93,2.83-6.45,4.94-9.47,7.66a24.13,24.13,0,0,0-4.06,4.51l-.89,1.24-.75,1.32-.75,1.32-.62,1.4a49.24,49.24,0,0,0-3.3,11.69c-.68,4-1,8.05-1.34,12.11S327.48,213,327,217c-.12,1-.24,2-.42,3s-.32,2-.55,3c-.41,2-1,3.95-1.49,5.92-2.14,7.82-4.84,15.59-9.07,22.56s-9.84,12.94-14.33,19.72-7.83,14.23-11.27,21.59c-1.71,3.69-3.42,7.38-5.24,11a51.1,51.1,0,0,1-6.45,10.33,29.93,29.93,0,0,1-9.29,7.79,22,22,0,0,1-11.81,2.47,33.47,33.47,0,0,1-11.7-3.27,117.75,117.75,0,0,1-10.7-5.83c-3.5-2.06-7-4.13-10.68-5.87a40.29,40.29,0,0,0-11.56-3.67,34.41,34.41,0,0,0-12.09.7,57.86,57.86,0,0,0-11.48,4l-2.76,1.28-2.69,1.43c-1.82.91-3.51,2-5.26,3.07a89,89,0,0,0-25.83,25.5c-.59.83-1.09,1.71-1.62,2.58s-1.08,1.72-1.57,2.61c-.94,1.8-2,3.55-2.8,5.41A70.1,70.1,0,0,0,142,363.72Z"/><path d="M120.41,487.42c.23,2.49.53,5.14,2.08,7.19a7.05,7.05,0,0,0,3,2.26,9.26,9.26,0,0,0,3.68.62,11.13,11.13,0,0,0,6.85-2.6,18,18,0,0,0,4.39-5.93,55.09,55.09,0,0,0,2.67-7,49,49,0,0,0,2-7.28,44.49,44.49,0,0,0,.41-7.42c-.05-2.4-.08-4.65-.07-6.83l0-1.63c0-.51-.08-.9-.11-1.13s0-.2-.05-.25l-.16-.34a2.62,2.62,0,0,0-.36-.55,2.83,2.83,0,0,0-1.41-.82,9.13,9.13,0,0,0-2.65-.28,22.85,22.85,0,0,0-6.46,1.31,27.14,27.14,0,0,0-3.18,1.36,16.46,16.46,0,0,0-1.44.83,14.29,14.29,0,0,0-1.33,1c-3.57,3-5.88,7.55-7,12.41a41.34,41.34,0,0,0-1,7.46A60.09,60.09,0,0,0,120.41,487.42Zm0,0c-.23-2.52-.42-5.05-.53-7.59a56.2,56.2,0,0,1,.09-7.67,32.34,32.34,0,0,1,1.59-7.67,25.61,25.61,0,0,1,3.82-7.15,18,18,0,0,1,1.36-1.65,19.66,19.66,0,0,1,1.58-1.47,30,30,0,0,1,3.38-2.45,25.68,25.68,0,0,1,7.93-3.36,15.21,15.21,0,0,1,4.92-.28A10.42,10.42,0,0,1,150,450.4a10.13,10.13,0,0,1,2.08,2.32,13,13,0,0,1,.74,1.34,8.83,8.83,0,0,1,.56,1.55,13.05,13.05,0,0,1,.42,2.62c0,.74.09,1.45.09,2.17a21.46,21.46,0,0,1-1.69,8.25c-1.08,2.55-2.45,4.89-3.69,7.2-2.47,4.6-4.22,9.31-7,13.75a20.71,20.71,0,0,1-5.13,5.78,12.25,12.25,0,0,1-7.24,2.33,8.24,8.24,0,0,1-6.7-3.07C120.9,492.56,120.63,489.91,120.41,487.42Z"/></svg>