<svg id="Layer_1" data-name="Layer 1" xmlns="http://www.w3.org/2000/svg" viewBox="0 0 600 600"><title>Comoros</title><path d="M131.58,236.81c-2.74-5-6.19-9.55-8.8-14.61a49.3,49.3,0,0,1-5-16.27,110.37,110.37,0,0,1-.83-17.05c.06-5.7.26-11.38.37-17.07s.24-11.37.3-17.06.22-11.4.12-17a62.46,62.46,0,0,0-2.12-16.38,31.26,31.26,0,0,0-3.12-7.3,26.8,26.8,0,0,0-4.82-6,21.06,21.06,0,0,0-6.15-4.08,15.51,15.51,0,0,0-6.8-1.21c-4.57.2-8.9,2.6-12.53,5.94a36.78,36.78,0,0,0-5,5.65,49,49,0,0,0-3.89,6.62,63.32,63.32,0,0,0-6.53,29.87A73.41,73.41,0,0,0,69.16,166c.31,1.29.65,2.59,1,3.91s.71,2.65,1.21,4a41.64,41.64,0,0,0,4.18,7.86,69.88,69.88,0,0,1,5,8.4A27.49,27.49,0,0,1,83,200a69.62,69.62,0,0,1-2.39,21.89A51.29,51.29,0,0,1,76,233.1a50.67,50.67,0,0,1-3.42,5.24c-1.24,1.64-2.38,2.94-3.37,4.06-2,2.22-3.27,3.61-3.8,4.32a6.83,6.83,0,0,0-1.26,2.72A17,17,0,0,0,65,259c1.24,3.63,3.71,7.55,6.78,11.61,1.56,2,3.27,4.11,5.09,6.25s3.44,4.15,4.71,5.4a15.88,15.88,0,0,0,1.64,1.47,5.31,5.31,0,0,0,1.63.89,45.41,45.41,0,0,0,7.35,1.33A41.45,41.45,0,0,1,97.52,287a39.13,39.13,0,0,1,5.17,1.93,47.25,47.25,0,0,1,8.64,5.32c1.28,1,2.48,2,3.64,3l1.71,1.52,1.56,1.44a56.22,56.22,0,0,0,6.07,4.83,70,70,0,0,0,13.92,7.73,31.84,31.84,0,0,0,7.19,2c2.32.25,4.45.05,5.83-.9s2.46-2.84,2.85-5.27l.2-1.86,0-2c0-.66-.07-1.28-.1-1.93s-.15-1.3-.28-2c-.94-5.26-3.3-10.47-5.46-15.73-1.09-2.64-2.16-5.34-3-8.1s-1.63-5.48-2.4-8.22c-1.53-5.49-3-11-4.8-16.37A100.18,100.18,0,0,0,131.58,236.81Zm0,0c1.37,2.5,2.6,5.06,3.73,7.67s2.13,5.28,3.15,7.93c2,5.33,3.82,10.73,5.77,16.07,1,2.67,2,5.33,3,8a71.4,71.4,0,0,0,3.64,7.6c2.64,5,5.53,10,7.35,15.82.24.72.4,1.48.6,2.22s.31,1.55.39,2.31.17,1.53.23,2.31,0,1.59,0,2.39-.12,1.65-.27,2.49a14.44,14.44,0,0,1-.67,2.56,11.58,11.58,0,0,1-3.15,4.77,12.58,12.58,0,0,1-5,2.75,20.1,20.1,0,0,1-5.21.77,39.37,39.37,0,0,1-9.53-1.12,84.62,84.62,0,0,1-17.14-6.21,76.91,76.91,0,0,1-8.19-4.52l-1.81-1.17-1.7-1.05c-1.13-.67-2.25-1.32-3.36-1.89A31.72,31.72,0,0,0,97,303.91a19.67,19.67,0,0,0-3-.52,27.88,27.88,0,0,0-3.1-.05,58.31,58.31,0,0,1-9.63-.16,25.47,25.47,0,0,1-6.47-1.71,31.29,31.29,0,0,1-5.59-3,89.9,89.9,0,0,1-7.8-6.18c-2.2-1.88-4.48-3.87-6.77-6a66.68,66.68,0,0,1-12.9-16.1,45.54,45.54,0,0,1-4.3-11,41.35,41.35,0,0,1-1.24-12.59A36.36,36.36,0,0,1,39.73,233a63.65,63.65,0,0,1,6.12-9.53c.79-1.09,1.43-2,1.83-2.7a19.25,19.25,0,0,0,1-2,23.79,23.79,0,0,0,1.35-4.7,41,41,0,0,0,.26-12,26.61,26.61,0,0,1,.55-7.07c.49-2.6,1.22-5.43,1.74-8.35a34.65,34.65,0,0,0,.5-8.79c-.1-1.46-.35-2.91-.56-4.38s-.41-3-.59-4.46c-.36-3-.64-6.1-.74-9.25a79.53,79.53,0,0,1,.24-9.51,76.61,76.61,0,0,1,3.94-18.39,75.49,75.49,0,0,1,8.17-16.68,61.42,61.42,0,0,1,5.7-7.46,46.5,46.5,0,0,1,7.05-6.44,34.43,34.43,0,0,1,8.61-4.69,24.8,24.8,0,0,1,10-1.51,23.68,23.68,0,0,1,9.65,2.74,27.13,27.13,0,0,1,7.49,6A35.06,35.06,0,0,1,120,120.27a70.87,70.87,0,0,1,1,17.5l-2.3,34.09c-.35,5.68-.71,11.36-1,17a105,105,0,0,0,.44,17,48.44,48.44,0,0,0,4.72,16.27C125.43,227.24,128.86,231.82,131.58,236.81Z"/><path d="M212.93,469.58c1.91,1.5,4.08,2.7,5.63,4.62a19.6,19.6,0,0,1,1.94,3.1c.58,1.08,1.14,2.16,1.74,3.21a17,17,0,0,0,4.49,5.45,19.59,19.59,0,0,0,6.2,3.17,30.85,30.85,0,0,0,6.89,1.18c2.36.21,4.74.24,7.15.22l7.34-.08c1.23,0,2.54,0,3.74,0s2.32,0,3.5,0c2.35-.05,4.74-.16,7.2-.26,1.23,0,2.47-.1,3.73-.11s2.35,0,3.44-.09a22.25,22.25,0,0,0,5.73-.95,8.53,8.53,0,0,0,3.66-2.18,4.31,4.31,0,0,0,1.16-2.63,2.9,2.9,0,0,0-.15-1.12,4.16,4.16,0,0,0-.47-1c0-.09-.13-.17-.18-.27l-.08-.13-.15-.21c-.2-.3-.43-.59-.67-.89a23.08,23.08,0,0,0-1.7-1.8,45.42,45.42,0,0,0-4.61-3.81c-1.75-1.32-3.76-2.73-5.82-4.24l-2.81-2-2.84-2-2.88-1.91L261.19,463q-2.94-1.83-6-3.51a123.26,123.26,0,0,0-25.49-10.88c-1.11-.34-2.24-.64-3.36-.92s-2.26-.57-3.4-.82l-3.65-.79c-1.25-.3-2.47-.61-3.65-.92a38.25,38.25,0,0,0-6.33-1.34c-1.79,0-2.41,0-3.45,1.36a9.74,9.74,0,0,0-1.21,2.65,12,12,0,0,0-.4,1.51c-.07.52-.16,1.05-.2,1.6a19.69,19.69,0,0,0,.9,6.8A25.07,25.07,0,0,0,212.93,469.58Zm0,0a38.69,38.69,0,0,1-5.2-5.12,41.24,41.24,0,0,1-4.35-6,24.59,24.59,0,0,1-3-7.19,19.27,19.27,0,0,1-.31-2,16.69,16.69,0,0,1,0-2.12,19.49,19.49,0,0,1,.19-2.1l.24-1.1.13-.55.22-.57c.15-.38.32-.76.49-1.14a11.83,11.83,0,0,1,.72-1.13l.4-.55.51-.5a8.74,8.74,0,0,1,1.11-.92,10.68,10.68,0,0,1,5-1.65,41.11,41.11,0,0,1,8.11.43c1.21.15,2.38.28,3.52.38l3.57.27c1.27.08,2.53.19,3.79.35s2.53.29,3.79.49a118.21,118.21,0,0,1,29.41,8.33c2.35,1,4.67,2.1,7,3.23l3.4,1.79L275,454l3.29,2,3.23,2.07c1.92,1.27,4,2.52,6.19,4a44.56,44.56,0,0,1,6.64,5.42,28.22,28.22,0,0,1,3.11,3.67c.48.68.94,1.39,1.37,2.13.11.2.21.36.33.57l.34.67c.21.46.45.89.62,1.37a18.86,18.86,0,0,1,1.31,6,17.6,17.6,0,0,1-.84,6.1,18.46,18.46,0,0,1-6.74,9.33,21.7,21.7,0,0,1-9.49,3.81,33.28,33.28,0,0,1-8.77.15c-2.84-.32-4.93-.75-7.37-1.12s-4.86-.74-7.35-1.18c-1.24-.24-2.5-.5-3.75-.79s-2.31-.56-3.5-.81l-7.17-1.53c-4.83-1.11-9.8-2.14-14.42-4.48a24,24,0,0,1-6.16-4.43,17.92,17.92,0,0,1-2.37-2.92,27.88,27.88,0,0,1-1.75-3.27,40.65,40.65,0,0,0-3.27-6.49C217,472.32,214.81,471.11,212.93,469.58Z"/><path d="M448.61,443.43c2.24.79,4.54,1.4,6.76,2.22a40.22,40.22,0,0,1,6.4,3.11A60,60,0,0,1,473,457.5c6.88,6.6,12.86,14.05,19.66,20.55,1.7,1.64,3.43,3.24,5.18,4.82s3.53,3.08,5.33,4.74c3.53,3.26,6.83,6.54,10.59,8.43a17.59,17.59,0,0,0,11.87,1.46A29.59,29.59,0,0,0,537,492.12c2.17-1.49,3.28-5.55,3.89-9.81.31-2.15.5-4.39.66-6.72l.26-3.59c0-.6.12-1.26.18-1.91l.19-1.76a176.79,176.79,0,0,0,.77-27.46,126.48,126.48,0,0,0-4.23-26.4,98.54,98.54,0,0,0-10.06-23.94c-1.13-1.8-2.25-3.65-3.46-5.31a44.65,44.65,0,0,0-3.74-4.53,22,22,0,0,0-7.68-5.49,13.46,13.46,0,0,0-6.39-.71,7.74,7.74,0,0,0-2,.56c-.08.08-.24.08-.31.17a1,1,0,0,0-.35.24,4.69,4.69,0,0,0-.88.86,13.51,13.51,0,0,0-1.9,3.66c-.64,1.71-1.3,3.84-2.07,6.29a59,59,0,0,1-3.11,8.19c-.36.74-.73,1.47-1.19,2.23a26,26,0,0,1-1.42,2.23,31.28,31.28,0,0,1-3.35,4,32.59,32.59,0,0,1-7.91,5.88,40.2,40.2,0,0,1-8.54,3.37,49.31,49.31,0,0,1-17,1.21,60.36,60.36,0,0,1-8-1.4c-2.53-.65-5-1.4-7.37-2.21-4.75-1.66-9.21-3.56-13.58-5.38-2.19-.9-4.36-1.78-6.53-2.61-1.08-.42-2.17-.81-3.25-1.18s-2.15-.73-3.09-1a9,9,0,0,0-2.61-.35,5.22,5.22,0,0,0-1.93.44,1.18,1.18,0,0,0-.41.36,1.89,1.89,0,0,0-.26.83,7.41,7.41,0,0,0,.35,2.74,30.21,30.21,0,0,0,2.79,6.08c1.14,2,2.46,3.94,3.81,5.9s2.63,3.93,4.06,5.82,2.92,3.69,4.46,5.48a69.07,69.07,0,0,0,10.34,9.66A49.51,49.51,0,0,0,448.61,443.43Zm0,0A52.74,52.74,0,0,1,436,436.84a85.24,85.24,0,0,1-11-9.15c-1.7-1.68-3.36-3.39-4.95-5.18l-2.38-2.68-2.31-2.72c-1.55-1.79-3.11-3.63-4.61-5.56a33.64,33.64,0,0,1-4-6.37,12.43,12.43,0,0,1-1.18-4.18,6.8,6.8,0,0,1,.29-2.66,6.34,6.34,0,0,1,1.57-2.55A9.61,9.61,0,0,1,412,393.5a15.06,15.06,0,0,1,4.48-.31c1.4.09,2.67.29,3.87.48s2.42.39,3.63.6c2.4.42,4.78.89,7.13,1.37,4.69.95,9.29,1.87,13.75,2.48,2.23.29,4.43.49,6.58.6a46.65,46.65,0,0,0,6.19-.12,32.79,32.79,0,0,0,11-3,18.19,18.19,0,0,0,7.28-5.87,11.58,11.58,0,0,0,1.56-3.5,49.7,49.7,0,0,0,1.19-5.35c.41-2.15.78-4.64,1.51-7.48a37.43,37.43,0,0,1,3.69-9.37,28.86,28.86,0,0,1,3.42-4.79,20.94,20.94,0,0,1,2.2-2.23,26.73,26.73,0,0,1,13.73-6.5,31.25,31.25,0,0,1,11.09.09,33.42,33.42,0,0,1,10.13,3.68,37.65,37.65,0,0,1,7.89,6,48.4,48.4,0,0,1,5.89,6.9,74.67,74.67,0,0,1,4.44,7.11c1.33,2.34,2.42,4.69,3.56,7a117.06,117.06,0,0,1,9.09,29.47,136,136,0,0,1,1.73,30.08,187.9,187.9,0,0,1-3.93,29.19l-.37,1.76c-.11.52-.22,1-.32,1.6l-.62,3.47c-.42,2.38-.88,4.84-1.51,7.34a38.91,38.91,0,0,1-2.69,7.65,20.85,20.85,0,0,1-2.43,3.87,19.73,19.73,0,0,1-1.75,1.8c-.35.28-.7.55-1.06.81l-.53.37-.42.25a37.22,37.22,0,0,1-14.85,5.19,25.61,25.61,0,0,1-8.09-.37,22.69,22.69,0,0,1-7.5-3.08c-4.5-2.88-7.63-6.79-10.76-10.24-1.53-1.71-3.23-3.42-4.84-5.19s-3.21-3.54-4.77-5.36c-6.3-7.23-11.61-15.11-18.1-22a54.91,54.91,0,0,0-10.85-9.08,40.45,40.45,0,0,0-6.36-3.15C453.14,444.86,450.85,444.23,448.61,443.43Z"/></svg>