<svg id="Layer_1" data-name="Layer 1" xmlns="http://www.w3.org/2000/svg" viewBox="0 0 600 600"><title>costarica</title><path d="M482.59,468.36c-.84-2.45-1.61-4.92-2.51-7.35s-1.86-4.83-2.85-7.23a126.06,126.06,0,0,0-6.49-14,48.64,48.64,0,0,0-9.26-11.94,33.75,33.75,0,0,0-12.72-7.43,25.14,25.14,0,0,0-7.11-1.13,22.28,22.28,0,0,0-3.51.22,13.21,13.21,0,0,0-3.19,1,9.12,9.12,0,0,0-2.6,1.66,4.69,4.69,0,0,0-1.35,2.16c-.43,1.56.18,3.14,1.55,4.65A13.83,13.83,0,0,0,435,431c.45.31.94.6,1.43.88l1.63.87a51.8,51.8,0,0,1,7,4.39,31.84,31.84,0,0,1,10.85,13.63,21,21,0,0,1,1.21,9.56,18.58,18.58,0,0,1-1.15,4.89,16.31,16.31,0,0,1-2.64,4.63,15.26,15.26,0,0,1-4.3,3.66,17.09,17.09,0,0,1-5.11,1.9,35,35,0,0,1-9.16.37c-5.26-.3-10.57-.72-16-1.53a81.88,81.88,0,0,1-16.4-4,46.16,46.16,0,0,1-15.65-9.61,38.33,38.33,0,0,1-10.08-16.52,54.51,54.51,0,0,1-1.92-18.28c.14-2.9.41-5.71.75-8.45s.78-5.36,1.2-7.95c.83-5.16,1.67-10.1,2.09-14.76.2-2.33.37-4.6.37-6.77a42.78,42.78,0,0,0-.42-6.21,27.65,27.65,0,0,0-1.41-5.58,33.32,33.32,0,0,0-2.51-5.37,56.18,56.18,0,0,0-7.74-10.38q-2.32-2.5-4.92-4.92c-.85-.81-1.69-1.64-2.56-2.43l-2.68-2.3c-.88-.79-1.81-1.51-2.75-2.23l-2.78-2.19c-1.93-1.36-3.79-2.84-5.81-4.09-1-.64-2-1.31-3-1.94s-2-1.21-3.06-1.83-2.05-1.21-3.1-1.77-2.09-1.15-3.15-1.7c-2.16-1-4.27-2.14-6.49-3-1.1-.47-2.19-1-3.3-1.43l-3.36-1.27c-1.12-.45-2.26-.82-3.41-1.19s-2.28-.75-3.43-1.1c-2.32-.6-4.63-1.35-7-1.81-1.18-.26-2.36-.54-3.54-.78l-3.57-.59c-.6-.09-1.19-.21-1.79-.29l-1.8-.2-3.61-.41c-2.44-.14-4.76-.37-7.34-.38l-7.75-.14a129.57,129.57,0,0,1-16.37-1.12,58.08,58.08,0,0,1-8.53-1.88,39,39,0,0,1-8.45-3.81,28.88,28.88,0,0,1-3.89-2.79,19.77,19.77,0,0,1-1.77-1.66c-.55-.59-1.16-1.12-1.65-1.76l-1.45-1.92c-.24-.33-.49-.64-.71-1l-.62-1a30.74,30.74,0,0,1-2.09-4.23,43.09,43.09,0,0,1-2.31-8.49c-.48-2.74-.82-5.36-1.18-7.86a39.93,39.93,0,0,0-3.93-13.5,47,47,0,0,0-8.47-11.42A72.17,72.17,0,0,0,204,250.69a101.76,101.76,0,0,0-13.08-7.22c-2.28-1.05-4.57-2.11-6.74-2.87a23.43,23.43,0,0,0-6.14-1.37,7.39,7.39,0,0,0-2.31.18,3.24,3.24,0,0,0-1.32.7,5,5,0,0,0-1.21,1.31,3.08,3.08,0,0,0-.43,1.29,9.21,9.21,0,0,0,.59,3.86,22.35,22.35,0,0,0,2.58,5,28.83,28.83,0,0,0,3.84,4.6c.58.55,1.56,1.41,2.45,2.21l2.9,2.53a81.9,81.9,0,0,1,6.29,6,33.52,33.52,0,0,1,6,9,27.13,27.13,0,0,1,2.26,12.33,19.44,19.44,0,0,1-.29,3,22.33,22.33,0,0,1-.53,2.86l-1.18,4.46a80.19,80.19,0,0,1-2.62,8.43,33.82,33.82,0,0,1-5.94,10.23,23.36,23.36,0,0,1-10.46,7c-.7.22-1.39.39-2.1.56a15.25,15.25,0,0,1-2.28.4c-.86.08-1.73.14-2.6.16a27.7,27.7,0,0,1-3-.28,17.2,17.2,0,0,1-3.06-.78,15.5,15.5,0,0,1-2.91-1.26c-.47-.25-.92-.51-1.37-.78s-.78-.54-1.16-.82a19.46,19.46,0,0,1-2.07-1.73l-.85-.85c-.29-.29-.58-.6-.78-.84-.43-.51-.86-1-1.28-1.57-1.44-1.93-2.36-3.47-3.13-4.66a12.91,12.91,0,0,0-1.61-2.23,1.84,1.84,0,0,0-.18-.12.23.23,0,0,0,0,.14c0,.06-.09-.07-.17-.14l-.26-.23-.51-.45c-.7-.59-1.42-1.17-2.16-1.71a48.61,48.61,0,0,0-10-5.56c-.9-.39-1.86-.77-2.65-1s-1.7-.58-2.6-.82c-1.78-.49-3.63-.95-5.59-1.32s-4-.64-6.19-.93l-1.63-.2-1.23-.1c-.86,0-1.79-.08-2.85-.1a38.31,38.31,0,0,1-7.54-.52,60.69,60.69,0,0,1-9.67-2.87,99.32,99.32,0,0,1-11-4.78c-.93-.53-1.85-1.07-2.75-1.63s-1.75-1.22-2.6-1.85a42.44,42.44,0,0,1-4.33-3.9,53.35,53.35,0,0,1-6.46-8.18c-1.78-2.68-3.26-5.29-4.58-7.77s-2.48-4.83-3.62-7c-.57-1.07-1.13-2.1-1.68-3.07-.28-.51-.55-.93-.82-1.41s-.66-1.08-1-1.63c-2.82-4.62-5.73-9.39-8.3-14.66a77,77,0,0,1-6.28-17.33l-.45-2.44-.21-1.22-.13-1.27-.25-2.53c0-.86,0-1.73-.05-2.6a42.47,42.47,0,0,1,.29-5.26c.08-.87.29-1.76.44-2.63a23.52,23.52,0,0,1,.57-2.62,40.62,40.62,0,0,1,4-9.76,51.56,51.56,0,0,1,5.59-7.9c4-4.62,8-8.27,11.49-11.71.86-.85,1.72-1.7,2.51-2.53.42-.42.8-.84,1.17-1.25l.56-.62c.19-.21.3-.36.46-.54a24.37,24.37,0,0,0,3-4.61,18.11,18.11,0,0,0,2-9.7,11.13,11.13,0,0,0-.47-2.09c-.13-.31-.22-.7-.36-1s-.26-.55-.39-.78a5.59,5.59,0,0,0-2.21-2.12,25.42,25.42,0,0,0-5.35-2c-2.34-.69-5.1-1.44-8.06-2.56L57,140.16c-.21-.09-.32-.11-.62-.26l-.79-.37c-.25-.12-.53-.25-.76-.38l-.67-.38c-.44-.26-.88-.52-1.26-.79a31.06,31.06,0,0,1-4.27-3.42,29.9,29.9,0,0,1-3.67-4.23,22.56,22.56,0,0,1-3-6,16.69,16.69,0,0,1-.69-4.2c0-.39,0-.77,0-1.15s.08-.83.13-1.23a11.93,11.93,0,0,1,.53-2.44,22.89,22.89,0,0,1,1-2.34c.4-.68.83-1.35,1.29-2a7.44,7.44,0,0,1,1.06-1.28,11.32,11.32,0,0,1,1.8-1.47,12.79,12.79,0,0,1,3-1.46,19.26,19.26,0,0,1,3.81-.77c.94-.09,1.8-.14,2.48-.17l1.78-.09a3.83,3.83,0,0,0,.82-.11h-.12a3.74,3.74,0,0,0-.37.1c-.21.08-.11,0-.07,0l.14-.06c.18-.12.39-.23.62-.4A10.75,10.75,0,0,0,60.6,104a13.17,13.17,0,0,0,1.4-1.83,10.32,10.32,0,0,0,.6-1l.26-.5.16-.42.09-.2.1-.29.19-.55c.13-.46.27-.87.41-1.39s.27-1,.41-1.61l.42-1.78a67,67,0,0,1,2.48-8.59c.35-.84.64-1.63,1.1-2.53l.66-1.3c.25-.46.53-.91.81-1.36a23.27,23.27,0,0,1,2-2.71,16.9,16.9,0,0,1,1.24-1.32,16.54,16.54,0,0,1,1.37-1.25,20,20,0,0,1,6.81-3.69,21.46,21.46,0,0,1,7.34-.86A27.23,27.23,0,0,1,94.52,72c.89.28,1.67.84,2.48,1.1l2.48.67c3.23.82,6.37,1.46,8.83,2.86s4.58,2.93,6.53,4.13c1,.61,1.86,1.14,2.57,1.51.35.19.64.32.83.41l1.63.66q6.67,2.69,13.62,4.74a164.64,164.64,0,0,0,28.27,5.68c9.6,1.07,18.8,1.17,26.54-1l1.43-.43,1.4-.49,1.35-.54.78-.34.84-.38c2.23-1,4.55-2.1,7-3.21s5-2.29,7.85-3.38a52.3,52.3,0,0,1,9.45-2.61,39.49,39.49,0,0,1,10.47-.29l2.55.35c.85.13,1.64.35,2.46.52a46.39,46.39,0,0,1,4.68,1.34c1.52.49,2.9,1.11,4.35,1.67l3.67,1.63c2.35,1.06,4.51,2,6.57,2.81a32,32,0,0,0,5.71,1.68,19.32,19.32,0,0,0,5.42.22c2.19-.15,4.92-.55,8.2-.66.82,0,1.68,0,2.57,0s2.07.19,3.09.33a23.59,23.59,0,0,1,6,1.86,30.2,30.2,0,0,1,8.75,6.38,82.11,82.11,0,0,1,5.6,6.58c1.61,2,3,3.91,4.41,5.38l1,1,.95.84a27.08,27.08,0,0,0,2.44,1.73,45.38,45.38,0,0,0,12.27,5.14,139,139,0,0,0,14.6,2.93l3.87.63c1.2.21,2.33.34,3.48.46a39.22,39.22,0,0,0,6.55.14,15.1,15.1,0,0,0,5.18-1.19l.48-.22a3.28,3.28,0,0,1,.38-.27,4,4,0,0,0,.65-.5c.21-.16.28-.37.46-.51s.21-.37.3-.58a7,7,0,0,0,.39-1.49c0-.18.07-.31.08-.52l.06-.61c.06-.37.05-.93.08-1.39.08-2-.16-4.55-.07-7.69a29.13,29.13,0,0,1,.62-5.44,18.64,18.64,0,0,1,1.1-3.38,14,14,0,0,1,.87-1.79c.37-.61.77-1.22,1.19-1.8A13.61,13.61,0,0,1,361.26,95a11.44,11.44,0,0,1,1.66-1.48c.59-.42,1.19-.83,1.8-1.22a16,16,0,0,1,2.07-1,17.8,17.8,0,0,1,8.76-1.12,21,21,0,0,1,7.29,2.35A21.42,21.42,0,0,1,388.61,97a31.24,31.24,0,0,1,6.05,10.41c1.2,3.19,1.76,5.83,2.56,8s1.48,4.64,2.16,7c.37,1.16.65,2.34,1.08,3.48l1.22,3.44c.82,2.3,1.54,4.62,2.18,7s1.46,4.67,2.08,7.07c.3,1.2.61,2.4.88,3.63s.67,2.4,1,3.6a79.32,79.32,0,0,0,12.52,27.12c.69,1.05,1.34,2.12,2,3.15l2.22,3L429,190c1.52,2,3.17,3.87,4.78,5.79s3.16,3.88,4.94,5.64c3.48,3.6,6.78,7.36,10.56,10.65,1.85,1.68,3.67,3.4,5.54,5l5.81,4.73a192.79,192.79,0,0,0,51.5,29.48c2.31.89,4.56,1.83,7,2.63s4.9,1.68,7.47,2.66a75.14,75.14,0,0,1,15.82,7.83,41.8,41.8,0,0,1,7.43,6.47,41.36,41.36,0,0,1,5.84,8.15,29.64,29.64,0,0,1,3.5,10.71l.15,1.54c0,.52,0,1.06,0,1.59l-.05,1.6c-.06.54-.14,1.09-.22,1.63s-.16,1.08-.28,1.61l-.45,1.59c-.17.53-.3,1-.53,1.59s-.5,1.15-.78,1.71a11.3,11.3,0,0,1-1,1.72,13.4,13.4,0,0,1-1.22,1.67c-.48.54-1,1.06-1.48,1.57s-1.12.92-1.7,1.35a18.34,18.34,0,0,1-7.24,3,25.37,25.37,0,0,1-6.15.31,36.94,36.94,0,0,1-5.06-.71c-1.55-.32-3-.69-4.38-1.07s-2.39-.66-3.49-.94-2.06-.48-2.63-.54-.82-.05-.73-.09,0-.06-.47.23c-.12.08-.24.17-.37.24l-.46.39c-.3.21-.69.62-1,.92s-.76.76-1.14,1.14l-1.2,1.26-1.6,1.68c-.55.55-1.1,1.05-1.65,1.58-4.36,4-8.51,6.93-11.79,9.95a27.81,27.81,0,0,0-4,4.33c-.28.34-.41.66-.64,1s-.3.63-.48.94-.32.84-.49,1.25-.28.88-.4,1.33a24.73,24.73,0,0,0,0,11.67A30.11,30.11,0,0,0,501.55,358a36.21,36.21,0,0,0,9.55,8.79,27.65,27.65,0,0,0,2.85,1.53c1.1.54,2.33,1.1,3.64,1.77a23.89,23.89,0,0,1,8.23,6.27,17.06,17.06,0,0,1,2.77,5.35,20.69,20.69,0,0,1,.89,5.37,13.14,13.14,0,0,1-1.51,6.52,14.3,14.3,0,0,1-2,2.7,16.61,16.61,0,0,1-2.16,1.9,33.06,33.06,0,0,1-3.89,2.42c-1.17.64-2.19,1.19-3.07,1.74a7.82,7.82,0,0,0-3.29,3.31,6.2,6.2,0,0,0-.29,4.22,12.48,12.48,0,0,0,3,4.79,43.2,43.2,0,0,0,5.42,4.53,64.54,64.54,0,0,1,6.43,5.21,22,22,0,0,1,5.33,7.63,20.88,20.88,0,0,1,1.21,4.59,22.51,22.51,0,0,1-2.27,13.23,39.87,39.87,0,0,1-4.52,7.07c-3.36,4.27-7.05,7.93-10.33,11.77a45.3,45.3,0,0,0-4.42,5.92,18.91,18.91,0,0,0-2.61,6.46,14.22,14.22,0,0,0,.46,6.81,32.94,32.94,0,0,0,3.19,6.66c1.3,2.19,2.73,4.37,4,6.7a20,20,0,0,1,2.74,7.69,9.93,9.93,0,0,1-.49,4.22,8.58,8.58,0,0,1-.89,1.92,8.86,8.86,0,0,1-1.29,1.7,9.08,9.08,0,0,1-3.52,2.28,11.18,11.18,0,0,1-2,.48l-1,.13h-1a16.06,16.06,0,0,1-7.66-2.14,16.28,16.28,0,0,1-5.8-5.32,23.57,23.57,0,0,1-2.86-7.27,74.33,74.33,0,0,1-1.22-7.68,65.47,65.47,0,0,0-1.21-7.65,25.33,25.33,0,0,0-2.79-7.18,99.21,99.21,0,0,1-6.52-14.08Zm.08,0a105.72,105.72,0,0,0,7,13.8,26.2,26.2,0,0,1,3.12,7.27,69.17,69.17,0,0,1,1.48,7.7c.79,5.08,1.6,10.19,4.32,14.24a14.75,14.75,0,0,0,5.31,4.59,14.31,14.31,0,0,0,6.81,1.71l.87,0,.84-.14a9.77,9.77,0,0,0,1.61-.42,6.89,6.89,0,0,0,2.64-1.81,7.66,7.66,0,0,0,1.87-6.07,17.46,17.46,0,0,0-2.61-6.59c-1.29-2.15-2.78-4.26-4.2-6.47A36.34,36.34,0,0,1,508,489a17.57,17.57,0,0,1-.88-8.39,22.09,22.09,0,0,1,2.79-7.82,49.06,49.06,0,0,1,4.56-6.59c3.29-4.11,6.83-7.87,9.82-11.93s5.39-8.5,5.55-13.23a17.35,17.35,0,0,0-.2-3.53,15.34,15.34,0,0,0-1-3.35,16.49,16.49,0,0,0-4.2-5.62c-3.6-3.3-8.33-5.67-12.32-9.49a18.82,18.82,0,0,1-4.74-7,12.6,12.6,0,0,1,.09-8.75,12.17,12.17,0,0,1,2.32-3.79,17.51,17.51,0,0,1,3.24-2.78c2.26-1.55,4.63-2.68,6.46-4.11a7.41,7.41,0,0,0,2.09-2.35,6,6,0,0,0,.59-2.94,12.85,12.85,0,0,0-.67-3.35,9.48,9.48,0,0,0-1.54-2.85,16.24,16.24,0,0,0-5.73-4c-2.25-1.07-4.72-2-7.15-3.33a44.54,44.54,0,0,1-12.25-10.37,38.25,38.25,0,0,1-7.47-14.27,34,34,0,0,1-.45-16.16c.15-.67.34-1.33.52-2s.41-1.3.67-1.95a22,22,0,0,1,1.92-3.74,36.59,36.59,0,0,1,5.23-6.2c3.82-3.71,8-6.82,11.66-10.28l1.34-1.32,1.27-1.37c.88-1,1.77-1.95,2.72-2.9a25.87,25.87,0,0,1,3.13-2.7,11.89,11.89,0,0,1,4-1.93,12.62,12.62,0,0,1,4.39-.23,33.66,33.66,0,0,1,4,.73c2.58.62,5,1.39,7.47,1.86a19.72,19.72,0,0,0,7.14.33,6.66,6.66,0,0,0,5-3.6,12.39,12.39,0,0,0,1.09-6.73,19,19,0,0,0-2.23-6.83,33.32,33.32,0,0,0-9.85-11,65.65,65.65,0,0,0-13.54-6.91c-4.78-1.88-9.7-3.6-14.44-5.75-2.39-1-4.79-2-7.16-3.09l-7-3.52-3.47-1.76c-1.16-.59-2.25-1.3-3.38-1.94l-6.72-4c-1.13-.63-2.2-1.37-3.27-2.09L474.2,242,471,239.8c-1.08-.72-2.16-1.42-3.18-2.24l-6.18-4.71c-1-.8-2.09-1.55-3.08-2.38l-2.94-2.54c-15.73-13.47-29.93-28.84-41.22-46.21l-4.2-6.53c-.73-1.07-1.32-2.22-2-3.34l-1.92-3.37-1.92-3.38-1-1.68c-.3-.58-.57-1.16-.86-1.74l-3.42-7c-.55-1.17-1.19-2.3-1.66-3.51L396,147.62l-3-7.16-2.53-7.34-1.27-3.67a16.55,16.55,0,0,1-.58-1.85l-.51-1.87L386,118.25c-.74-2.48-1.19-5-2-7.5a19.73,19.73,0,0,0-3.51-6.87,11.31,11.31,0,0,0-6.57-3.83,7.75,7.75,0,0,0-3.82.32,8.1,8.1,0,0,0-3.12,2.24,9.9,9.9,0,0,0-1.7,3.46,22.37,22.37,0,0,0-.62,3.82c-.24,2.58-.23,5.17-.5,7.75A16.67,16.67,0,0,1,362,125a12.39,12.39,0,0,1-6,4.76,23.83,23.83,0,0,1-7.56,1.57,46.67,46.67,0,0,1-7.75-.24c-2.57-.27-5.12-.74-7.68-1.12-5.11-.78-10.23-1.59-15.26-2.81a55.92,55.92,0,0,1-14.48-5.45,38.36,38.36,0,0,1-3.26-2.09c-.51-.41-1-.8-1.52-1.21l-1.43-1.32c-1.84-1.81-3.5-3.81-5.16-5.79s-3.34-4-5.19-5.77a21.91,21.91,0,0,0-6.28-4.48,15.71,15.71,0,0,0-7.57-1.26c-2.59.12-5.15.53-7.72.78a29.49,29.49,0,0,1-7.74-.13,41.39,41.39,0,0,1-7.5-2c-2.44-.87-4.82-1.88-7.2-2.89l-3.58-1.51c-1.21-.44-2.4-.95-3.64-1.33a37,37,0,0,0-3.75-1c-.63-.12-1.26-.29-1.9-.37l-1.93-.24a29.37,29.37,0,0,0-7.72.33,41.72,41.72,0,0,0-7.43,2.2c-2.4,1-4.75,2.07-7.07,3.2s-4.64,2.29-7,3.4a48.05,48.05,0,0,1-7.2,2.88,61.82,61.82,0,0,1-15.28,2.48,116.26,116.26,0,0,1-15.5-.5,165.9,165.9,0,0,1-30.47-5.73q-7.47-2.13-14.7-5A34.81,34.81,0,0,1,108.61,91L102,86.83a65,65,0,0,0-6.8-3.73A21.72,21.72,0,0,0,87.81,81a10.23,10.23,0,0,0-7.24,2.21,15.52,15.52,0,0,0-4.32,6.34c-2,4.8-2.56,10-4.73,14.77A22.52,22.52,0,0,1,67,110.6,19.62,19.62,0,0,1,64,113a10.32,10.32,0,0,1-3.54,1.53c-2.56.41-5.2,0-7.72.68a2.76,2.76,0,0,0-1.55,1.08l-.54.81-.35.9a6.63,6.63,0,0,0,.05,3.82,13.29,13.29,0,0,0,1.75,3.44,21.43,21.43,0,0,0,2.55,2.92,17.64,17.64,0,0,0,6.51,4.1c2.42.9,4.93,1.56,7.42,2.26a34.4,34.4,0,0,1,7.25,2.72,14.86,14.86,0,0,1,5.62,5.23c.34.55.61,1.14.92,1.71s.48,1.2.72,1.79a20.34,20.34,0,0,1,1,3.76,27.09,27.09,0,0,1-2.47,15.11,34.39,34.39,0,0,1-4,6.6c-1.61,2-3.36,3.93-5.14,5.81-3.57,3.74-7.3,7.35-10.55,11.38a34.43,34.43,0,0,0-7.1,13.65A33.27,33.27,0,0,0,55,217.69a62.71,62.71,0,0,0,5.72,14.39,141.83,141.83,0,0,0,8.15,13.2c3,4.24,5.47,8.78,8.16,13.2a56.28,56.28,0,0,0,9.41,12.28,26.07,26.07,0,0,0,6.35,4.41,29.37,29.37,0,0,0,7.4,2.27c5.1.89,10.3.8,15.46,1.12a60.5,60.5,0,0,1,7.71.91c2.55.44,5.08,1,7.58,1.64a60.86,60.86,0,0,1,14.4,5.69,59.65,59.65,0,0,1,12.54,9.09c.93.89,1.84,1.82,2.7,2.78a20.15,20.15,0,0,1,2.39,3.06c1.37,2.19,2.36,4.6,3.81,6.75a8.72,8.72,0,0,0,2.76,2.68,6.11,6.11,0,0,0,3.73.75,10.44,10.44,0,0,0,6.76-3.4,24,24,0,0,0,4.14-6.52c1.08-2.35,1.94-4.79,2.8-7.23a28.3,28.3,0,0,0,2-7.48,16.34,16.34,0,0,0-1-7.61,25,25,0,0,0-4-6.6c-1.63-2-3.44-3.86-5.25-5.7s-3.67-3.65-5.38-5.6a36.17,36.17,0,0,1-4.35-6.41,28.05,28.05,0,0,1-2.76-7.23,14.23,14.23,0,0,1,.23-7.66,10.77,10.77,0,0,1,4.93-5.78,11.81,11.81,0,0,1,7.53-1.18,30.19,30.19,0,0,1,7.43,2.18c2.39,1,4.7,2.17,7,3.36A122.61,122.61,0,0,1,206.56,247a82,82,0,0,1,11.94,9.89,54,54,0,0,1,9.29,12.37,41,41,0,0,1,3,7.14,58.85,58.85,0,0,1,1.77,7.56c.92,5.07,1.63,10.26,3.73,15a23.66,23.66,0,0,0,10.24,11.27,32.33,32.33,0,0,0,7.15,2.94,55,55,0,0,0,7.62,1.42c10.3,1.22,20.68.15,31,.58a121.07,121.07,0,0,1,15.42,1.74c2.56.39,5.06,1.05,7.6,1.59,1.25.31,2.49.67,3.74,1s2.5.67,3.72,1.1l3.7,1.2c1.22.43,2.42.9,3.63,1.36,2.44.86,4.78,2,7.17,3A124.66,124.66,0,0,1,351,333.54a117,117,0,0,1,23.92,19.66A64.21,64.21,0,0,1,384,365.72a41.18,41.18,0,0,1,4.83,14.67,62.25,62.25,0,0,1-.25,15.49C388,401,386.93,406.1,386,411.19a141.73,141.73,0,0,0-2.31,15.33,45.25,45.25,0,0,0,1.08,15.39,29.7,29.7,0,0,0,2.92,7.15c.16.29.31.57.48.85l.54.8,1.09,1.6c.37.53.82,1,1.22,1.5s.81,1,1.29,1.45a39.54,39.54,0,0,0,12.83,8.5A76.09,76.09,0,0,0,420,468.09c5.07,1,10.21,1.65,15.36,2.19a28.92,28.92,0,0,0,7.72,0,10.94,10.94,0,0,0,6.64-3.61,11.74,11.74,0,0,0,2-3.28,13.68,13.68,0,0,0,1-3.72,15.57,15.57,0,0,0,.1-3.86,15.25,15.25,0,0,0-.79-3.77,27.94,27.94,0,0,0-9.13-12.26,50.51,50.51,0,0,0-6.41-4.35,20.58,20.58,0,0,1-6.13-4.72,9.25,9.25,0,0,1-1.85-3.4,6.51,6.51,0,0,1,.08-3.86,7.25,7.25,0,0,1,2.18-3.19,11.85,11.85,0,0,1,3.34-2,15.62,15.62,0,0,1,3.76-1,24,24,0,0,1,3.88-.12,27.07,27.07,0,0,1,7.61,1.46,35.78,35.78,0,0,1,13.08,8.17,49.67,49.67,0,0,1,9.13,12.49,94.23,94.23,0,0,1,6,14.31c1.7,4.89,3.4,9.78,5.22,14.62Z"/></svg>