<svg id="Layer_1" data-name="Layer 1" xmlns="http://www.w3.org/2000/svg" viewBox="0 0 600 600"><title>CzechRepublic</title><path d="M121.34,223.93c6.85-1.87,13.23-5.16,19.92-7.5,6.63-2.53,13.26-5.06,19.8-7.73s13-5.46,19.32-8.58c3.14-1.56,6.26-3.19,9.3-4.88a59.91,59.91,0,0,0,8.41-5.53,24.17,24.17,0,0,0,6-6.87,15.31,15.31,0,0,0,.92-1.92l.36-1,.31-1.06c.39-1.47.69-3.08,1-4.78s.57-3.51,1-5.41a27.88,27.88,0,0,1,1.9-6.08,15.08,15.08,0,0,1,5-6.14,14,14,0,0,1,3.8-1.88c.62-.18,1.26-.35,1.89-.5a19.27,19.27,0,0,1,2-.25,15.74,15.74,0,0,1,8,1.68,24.18,24.18,0,0,1,5.69,4.08c3.08,2.86,5.37,5.82,7.49,7.76a13.5,13.5,0,0,0,3,2.2,4.23,4.23,0,0,0,2.14.61,1.28,1.28,0,0,0,.52-.15.86.86,0,0,0,.35-.26c.07-.07.17-.22.37-.45s.47-.65.8-1.15c.7-1.09,1.53-2.66,2.93-4.64a19.65,19.65,0,0,1,4.4-4.66c.66-.5,1.11-.79,1.68-1.18A28.79,28.79,0,0,1,274.2,153a24.69,24.69,0,0,1,8.17,1.05,24.35,24.35,0,0,1,4,1.66,20.38,20.38,0,0,1,1.91,1.13c.59.42,1.26.89,1.76,1.3A43.91,43.91,0,0,1,299,168.23c1.13,1.7,2.08,3.26,3,4.71s1.71,2.71,2.48,3.7a20,20,0,0,0,2.16,2.49,8.78,8.78,0,0,0,1.05.82c.18.12.35.24.53.38s.4.19.59.3c1.12.67,5,1.65,8.13,2.38s6.53,1.47,9.89,2.08c6.72,1.23,13.65,2.18,20.71,3.19,3.56.53,7,1,10.89,1.69a46.33,46.33,0,0,1,6.35,1.59,20.37,20.37,0,0,1,7.47,4.43,18,18,0,0,1,4.7,7.76l.17.49.11.45.22.91c.13.6.3,1.24.36,1.78.14,1.12.33,2.29.37,3.32a82.07,82.07,0,0,1-.24,11.76c-.26,3.63-.56,7-.54,10.08a33,33,0,0,0,.26,4.34,21.59,21.59,0,0,0,.93,4,15,15,0,0,0,3.56,6.11,7.77,7.77,0,0,0,2.32,1.61,6.21,6.21,0,0,0,2.56.6,6,6,0,0,0,4.71-1.91,9,9,0,0,0,1.45-2.32,24.61,24.61,0,0,0,1.07-3.35c.31-1.29.57-2.76.87-4.39s.61-3.42,1.1-5.5a28.08,28.08,0,0,1,2.87-7.44c.23-.38.41-.73.69-1.13s.57-.82.87-1.22l.46-.6c.17-.21.37-.42.56-.63.39-.42.8-.82,1.22-1.22a17.91,17.91,0,0,1,1.46-1.19,15,15,0,0,1,1.61-1.08,18.06,18.06,0,0,1,3.64-1.66c.62-.21,1.28-.41,1.9-.56s1.2-.23,1.81-.32a20.33,20.33,0,0,1,3.39-.2,20.1,20.1,0,0,1,2.94.21c.44.06,1,.12,1.35.2l1.19.25a23,23,0,0,1,2.25.57l2.06.64,1.81.68.9.35.83.36c1.08.47,2.21,1,3.17,1.46s2,1,2.89,1.46l1.3.69,1.23.7c.81.46,1.56.87,2.28,1.32,2.85,1.67,5,3.09,6.55,3.91.73.41,1.29.64,1.7.86a3.93,3.93,0,0,0,1.7.48c1.09.1,2.75,0,5,0,1.13,0,2.39,0,3.81.1.72.05,1.44.11,2.22.21l.58.08.7.11,1.4.26a22.78,22.78,0,0,1,6.27,2.36,19.69,19.69,0,0,1,5.79,4.93,20.12,20.12,0,0,1,3.14,5.81,23.16,23.16,0,0,1,1.12,4.89,37.63,37.63,0,0,1,.11,7.2c-.16,2-.34,3.74-.43,5.13s-.06,2.46-.29,2.28c0,0-.09-.13-.1-.1l.08.26.07.27a1.18,1.18,0,0,1,.07.2c.08.3.16.44.19.57s-.1.24.18.42a4.48,4.48,0,0,0,2.15.26c.27,0,.56,0,.88-.05a4.77,4.77,0,0,0,1-.15,5.67,5.67,0,0,0,2-1c1.38-1,2.71-2.67,4.35-4.08a11.65,11.65,0,0,1,6.22-2.79,37.48,37.48,0,0,1,4.24-.5l1.23,0h2.62c2.19.07,4.37.25,6.54.51s4.33.72,6.47,1.25,4.25,1.2,6.34,2,4.13,1.69,6.15,2.7A63.82,63.82,0,0,1,542.48,269a61.33,61.33,0,0,1,5.33,4.87l2.41,2.72c.76.93,1.46,1.9,2.18,2.86a50.53,50.53,0,0,1,6.51,12.51,46.19,46.19,0,0,1,2.74,13.89,42.89,42.89,0,0,1-1.8,14.46c-.41,1.18-.78,2.36-1.27,3.51s-1.06,2.27-1.61,3.38a42.3,42.3,0,0,1-4.13,6.1,56.26,56.26,0,0,1-9.37,8.68c-3.1,2.32-5.74,4.3-8.45,6.43s-5.29,4.36-7.88,6.62a130.76,130.76,0,0,0-14.39,14.72c-2.19,2.64-4.29,5.36-6.32,8.12l-6.12,8.46c-2.11,2.86-4.19,5.85-6.54,8.73l-1.84,2.12c-.3.35-.81.53-1.09.92s-.47.84-.69,1.28c-.87,1.78-1.47,3.83-2.79,5.39a59.18,59.18,0,0,1-9.72,8.64A39.57,39.57,0,0,1,471.3,417a35.54,35.54,0,0,1-7.34,2.44,51.81,51.81,0,0,1-13.4,1c-3.87-.11-7.28-.36-10-.28a16.51,16.51,0,0,0-6,1,8.76,8.76,0,0,0-2.05,1.26c-1,.78-2.13,1.79-3.41,2.93s-2.66,2.4-4.24,3.75a52.94,52.94,0,0,1-5.38,4.16,31,31,0,0,1-7.93,3.84c-.88.23-1.77.44-2.66.63l-.67.14-.73.08c-.49.05-1,.08-1.48.11s-1,.06-1.49.07-1-.06-1.53-.11-1-.11-1.53-.18-1.07-.15-1.44-.24a38.06,38.06,0,0,1-7.62-2.7c-.91-.41-1.65-.74-2.25-1s-1.19-.4-1.79-.58a14.55,14.55,0,0,0-3.79-.43,19.71,19.71,0,0,0-3.84.51c-1.26.3-2.48.7-3.65,1.09-.58.19-1.15.45-1.71.62-.28.1-.56.21-.83.29l-.47.25a14,14,0,0,1-2.83.95l-1,.24-1.12.22-1.24.24-.65.1-.72.08a24.93,24.93,0,0,1-6.89-.34,36.67,36.67,0,0,1-8.14-2.55c-5-2.44-8.81-5.23-12.44-7-1.81-.92-3.65-1.5-5.41-2.21l-2.59-1.06-1.27-.53-1.33-.59c-2-.89-3.71-1.86-5.4-2.81s-3.25-2-4.83-2.92-3.09-1.94-4.62-2.86L309,411.86c-1.5-.9-3-1.71-4.54-2.51s-3-1.61-4.54-2.28a51.71,51.71,0,0,0-9-3.27,23.5,23.5,0,0,0-7.76-.82,9.85,9.85,0,0,0-2.62.64,6.18,6.18,0,0,0-1.76,1.07c-.26.17-.51.48-.79.69s-.55.62-.81.84a7.62,7.62,0,0,0-.7,1.18,13,13,0,0,0-.72,2.39c-.27,1.18-.59,2.73-1.1,4.64a35.44,35.44,0,0,1-2.46,6.5c-.31.59-.62,1.16-1,1.74s-.75,1.16-1.14,1.71a22.46,22.46,0,0,1-2.64,3,37.83,37.83,0,0,1-5.4,4.21c-1.82,1.2-3.61,2.28-5.37,3.3a82.16,82.16,0,0,1-10.62,5.48,41.83,41.83,0,0,1-11.76,2.92c-1.74.11-3.47.33-5.24.51s-3.55.35-5.33.57c-7.15.77-14.4,1.65-22,1.5a57.13,57.13,0,0,1-11.68-1.34A33.44,33.44,0,0,1,184,442.5a21.51,21.51,0,0,1-10.38-9.86,38.91,38.91,0,0,1-2.4-5.94c-1.16-3.67-2-6.56-3.28-8.45-2.8-4.34-7.88-8-13.52-11s-12-5.44-18.74-8.19c-3.36-1.38-6.81-2.84-10.28-4.59a52.8,52.8,0,0,1-10.11-6.55,54.83,54.83,0,0,1-8.82-8.94,93,93,0,0,1-6.54-9.66c-1.93-3.15-3.61-6.21-5.34-9.07-.86-1.4-1.72-2.8-2.62-4.09-.43-.66-.94-1.3-1.4-2s-1-1.31-1.49-2c-2-2.63-4.27-5.27-6.57-8s-4.61-5.61-6.85-8.7a65.74,65.74,0,0,1-6.18-10.06,38.4,38.4,0,0,1-3.63-12.1c-.07-1.08-.23-2.15-.21-3.24l.12-3.23a37.71,37.71,0,0,1,1.12-6.06c1-3.73,2.24-7,3-10.07a15.4,15.4,0,0,0,.24-8.18,15.34,15.34,0,0,0-5-6.82c-1.23-1.05-2.58-2.06-4-3.06-.68-.49-1.49-1.06-2.24-1.62s-1.5-1.16-2.22-1.78a28.24,28.24,0,0,1-7.34-9.07,15.44,15.44,0,0,1-1.06-2.95,12.84,12.84,0,0,1-.32-3.23,10.32,10.32,0,0,1,.69-3.25A10.67,10.67,0,0,1,50.27,248,15,15,0,0,1,55,244.36a26.28,26.28,0,0,1,5.27-2c3.51-.88,6.91-1.63,10.34-2.56S77.46,238,80.87,237c6.82-1.94,13.6-4,20.32-6.26s13.44-4.54,20.18-6.74Zm0,.08-19.82,7.77c-6.61,2.6-13.35,4.82-20.12,7S67.8,242.93,61,244.81c-3.24,1-6.45,2.5-8.41,5a8.06,8.06,0,0,0-1.12,2,7.77,7.77,0,0,0-.4,2.25,9.93,9.93,0,0,0,1.22,4.58,24.45,24.45,0,0,0,6.7,7.59,48.69,48.69,0,0,0,4.28,3c1.5,1,3,2,4.43,3.08a20.4,20.4,0,0,1,6.9,8.5,19.74,19.74,0,0,1,.52,10.89c-.66,3.55-1.75,6.93-2.51,10.36a33.68,33.68,0,0,0-.78,5.16l0,2.61c0,.86.18,1.72.26,2.59a31.34,31.34,0,0,0,3.32,9.88,59.34,59.34,0,0,0,5.84,8.79c4.34,5.58,9.35,10.63,13.88,16.1.57.68,1.13,1.37,1.67,2.07s1.12,1.39,1.63,2.11c1.06,1.43,2,2.91,3,4.39,1.94,3,3.75,6,5.64,9a87.44,87.44,0,0,0,6.1,8.69,45.42,45.42,0,0,0,7.56,7.43c5.6,4.38,12,7.51,18.46,10.47s13,5.72,19.09,9.34a57.88,57.88,0,0,1,8.67,6.15,39,39,0,0,1,3.75,3.75,29.89,29.89,0,0,1,3.09,4.33c1.77,3.09,2.56,6.6,3.55,10a30.43,30.43,0,0,0,1.86,5,15.94,15.94,0,0,0,3.06,4.31,20.63,20.63,0,0,0,9.33,4.85,52.47,52.47,0,0,0,10.51,1.53,147.61,147.61,0,0,0,21.23-.76L234,438.75a33.88,33.88,0,0,0,10.2-2.82,42.56,42.56,0,0,0,9.09-5.47,33.43,33.43,0,0,0,7.27-7.7c2.07-2.93,2.87-6.5,3.39-10s.89-7.08,2.46-10.3a16.92,16.92,0,0,1,7.36-7.42,17.1,17.1,0,0,1,5-1.75,21.3,21.3,0,0,1,5.29-.24,35.35,35.35,0,0,1,10.26,2.65,76.6,76.6,0,0,1,9.5,4.76c6.14,3.55,12,7.63,17.94,11.42A66.9,66.9,0,0,0,331,417a96.2,96.2,0,0,0,10,3.59,38.7,38.7,0,0,0,10.47,1.63A40.4,40.4,0,0,0,362,420.49a64.72,64.72,0,0,1,10.38-2.27,46.24,46.24,0,0,1,20.85,3.13c3.31,1.25,6.28,3.34,9.75,4.2a11.1,11.1,0,0,0,5.25-.16,20.07,20.07,0,0,0,4.79-2.28,73.55,73.55,0,0,0,8.27-6.67c2.66-2.31,5.33-4.76,8.62-6.15a28.11,28.11,0,0,1,10.38-2c3.55-.1,7.09.17,10.63.26a43.68,43.68,0,0,0,10.59-.7,27.32,27.32,0,0,0,9.69-4.22,51.49,51.49,0,0,0,8.08-6.88A196.92,196.92,0,0,0,493,380.53c4.35-5.6,8.81-11.11,13.54-16.4s9.66-10.39,14.78-15.28q3.86-3.68,7.85-7.19c2.65-2.35,5.39-4.6,8.07-6.91a50.31,50.31,0,0,0,7.38-7.64,32.64,32.64,0,0,0,2.75-4.54l1-2.46c.3-.83.51-1.69.76-2.54a33.68,33.68,0,0,0-1.9-20.82,38.49,38.49,0,0,0-12.91-16.55A53.3,53.3,0,0,0,515,271.58c-6.87-1.54-14.14-2.46-21-.46a70.08,70.08,0,0,1-10.44,2,15.64,15.64,0,0,1-5.28-.41,10.17,10.17,0,0,1-4.55-2.64,14.58,14.58,0,0,1-2.88-4.43,18.53,18.53,0,0,1-.92-5.22c-.22-3.54-.07-7.11-.77-10.6A10.43,10.43,0,0,0,467,245a7.51,7.51,0,0,0-4.6-2.41c-3.53-.52-7.07.27-10.59.51a21.44,21.44,0,0,1-10.39-1.77,54.61,54.61,0,0,1-9.17-5.35,101.33,101.33,0,0,0-8.94-5.75c-.77-.44-1.59-.78-2.38-1.17a22.59,22.59,0,0,0-2.5-.9,9.41,9.41,0,0,0-5.23-.22,6.52,6.52,0,0,0-2.32,1.24,9.46,9.46,0,0,0-1.74,2,24.66,24.66,0,0,0-2.34,4.75c-1.29,3.3-2.33,6.7-3.88,9.9a20.39,20.39,0,0,1-6.53,8.25,15.23,15.23,0,0,1-19.5-1.84,22.35,22.35,0,0,1-5.3-9.11A34.81,34.81,0,0,1,370,232.61c0-3.54.26-7.08.48-10.62a71,71,0,0,0,.06-10.62,23.7,23.7,0,0,0-1-5.21,10.27,10.27,0,0,0-2.74-4.47,12.21,12.21,0,0,0-4.59-2.55,38.14,38.14,0,0,0-5.19-1.15c-3.5-.55-7-.91-10.55-1.32-7-.79-14.1-1.53-21.11-2.58-3.51-.53-7-1.13-10.47-1.85q-2.61-.54-5.19-1.19a25.57,25.57,0,0,1-2.56-.71l-1.27-.41c-.42-.15-.81-.36-1.22-.54s-.81-.35-1.2-.57l-1.13-.7a18.27,18.27,0,0,1-2.15-1.58,26.1,26.1,0,0,1-3.61-3.89c-2.17-2.82-3.92-5.92-5.91-8.85a36.29,36.29,0,0,0-7-8,16,16,0,0,0-9.8-3.49,19.57,19.57,0,0,0-10.17,2.54,12.54,12.54,0,0,0-2.16,1.52,15.75,15.75,0,0,0-1.78,2c-1.09,1.4-2,2.92-3.06,4.35a11.69,11.69,0,0,1-3.89,3.58,8.78,8.78,0,0,1-5.18.91,12,12,0,0,1-4.94-1.91,21.45,21.45,0,0,1-4-3.44c-2.43-2.59-4.49-5.49-7-8a17.7,17.7,0,0,0-4.17-3.24,9.9,9.9,0,0,0-5.07-1.24,9.7,9.7,0,0,0-5,1.51,10.12,10.12,0,0,0-3.37,4c-1.57,3.18-2.15,6.74-2.92,10.18s-1.6,7-3.57,10a28.38,28.38,0,0,1-7.38,7.6,63.72,63.72,0,0,1-9.14,5.42q-4.77,2.37-9.64,4.51c-6.5,2.84-13.11,5.4-19.79,7.8-13.34,4.82-26.88,9-40.26,13.74Z"/></svg>