<svg id="Layer_1" data-name="Layer 1" xmlns="http://www.w3.org/2000/svg" viewBox="0 0 600 600"><title>DemocraticRepublicCongo</title><path d="M57.59,318.14a13.76,13.76,0,0,1,3.2-1.89,27.44,27.44,0,0,1,3.53-1.15c2.41-.59,4.86-1,7.31-1.38a51.69,51.69,0,0,0,7.19-1.44,32.83,32.83,0,0,0,6.59-3c2.12-1.21,4.23-2.54,6.51-3.68a21.91,21.91,0,0,1,7.47-2.45,7.71,7.71,0,0,1,4.35.72,9.54,9.54,0,0,1,3.31,2.8c.84,1,1.54,2.1,2.24,3a14.31,14.31,0,0,0,2.21,2.4,8.37,8.37,0,0,0,2.66,1.36,11.4,11.4,0,0,0,3.07.45,15,15,0,0,0,3.17-.43,21.5,21.5,0,0,0,3.11-1.13,39.3,39.3,0,0,0,11-8.36,52.57,52.57,0,0,0,8.34-11.25A74.48,74.48,0,0,0,148,279.51c2.67-9.23,4.17-19,6.64-28.83s6.11-19.94,12.85-28.55a56,56,0,0,1,5.53-6,33.72,33.72,0,0,1,7-5.13c2.74-1.45,5.31-2.26,7.15-3.12a8.29,8.29,0,0,0,3.64-2.84,9.25,9.25,0,0,0,1.64-4.29,25.16,25.16,0,0,0,.24-3,23.52,23.52,0,0,0-.11-3.6c-.25-2.67-.92-5.31-1.17-7.94a46.1,46.1,0,0,1,.2-7.64l.52-7.37c.15-2.44.45-4.95.68-7.42l.75-7.43.84-7.43,1.7-14.85.86-7.43c.31-2.47.69-4.93,1-7.4l4.23-29.61c.66-4.16,1-9.05,1.77-14.59a66,66,0,0,1,1.85-8.77,41.19,41.19,0,0,1,4-9.51c.5-.8,1-1.59,1.52-2.37s1.18-1.54,1.79-2.29a28.54,28.54,0,0,1,4.76-4.41A34.84,34.84,0,0,1,228,42.74a52.11,52.11,0,0,1,28.86-.21,38.37,38.37,0,0,1,9.94,4.35c.41.25.85.55,1.27.85s.85.59,1.28,1,.86.69,1.24,1l1.12,1.05c.74.7,1.36,1.42,2,2.15s1.2,1.45,1.7,2.15a71.36,71.36,0,0,1,4.84,7.63,52.37,52.37,0,0,0,3.24,5.07,13.88,13.88,0,0,0,2.3,2.45,16.58,16.58,0,0,0,3.08,2,71.83,71.83,0,0,0,2,1,9.9,9.9,0,0,0,1.11.45c.39.13.77.31,1.18.43a25.93,25.93,0,0,0,5.26,1.23,15.8,15.8,0,0,0,2.85.13,20,20,0,0,0,3.06-.28,35.79,35.79,0,0,0,12.32-4.93c2-1.25,4.07-2.61,6.15-4.08s4.27-3,6.47-4.37A76.36,76.36,0,0,1,336,57.81c2.31-1.21,4.7-2.23,7.08-3.29q7.19-3.06,14.62-5.46c2.49-.77,5-1.57,7.49-2.23l3.76-1,3.79-.94c5.05-1.28,10.13-2.41,15.23-3.43,2.55-.54,5.11-1,7.66-1.51s5.13-.94,7.71-1.34c5.15-.78,10.31-1.6,15.51-2.16l3.89-.44,3.91-.35c2.6-.25,5.24-.44,8-.57a110.09,110.09,0,0,1,17.27.43,74.83,74.83,0,0,1,9.27,1.62c.79.2,1.57.4,2.36.62l2.37.72,2.37.83c.8.3,1.63.66,2.45,1,6.47,2.79,11.56,6.43,14.87,8.31a19.36,19.36,0,0,0,3.9,1.81,9.15,9.15,0,0,0,2.4.35c.21,0,.43,0,.65,0H493l.84,0,3.69-.13a76.52,76.52,0,0,1,9.28.17,46.81,46.81,0,0,1,11.62,2.45,41,41,0,0,1,6,2.64c1,.53,1.76,1,2.6,1.5s1.6,1,2.38,1.58A60.74,60.74,0,0,1,544.2,74.14a48.85,48.85,0,0,1,2.66,4.27,25.72,25.72,0,0,1,1.94,4.44,56,56,0,0,1,1.84,8.87,62.1,62.1,0,0,0,1.78,8.38c.37,1.34.72,2.68,1,4l.76,3.28c.45,1.65,1.18,3.7,2,6.11A88.6,88.6,0,0,1,559.1,122a47.27,47.27,0,0,1,1.14,5.27,40.91,40.91,0,0,1,.44,6,34.26,34.26,0,0,1-2.4,12.53,37.39,37.39,0,0,1-6,10.14,52.51,52.51,0,0,1-7,7c-4.64,3.86-9,6.65-12.8,9.29a59.12,59.12,0,0,0-8.94,7.18,14.42,14.42,0,0,0-2.19,2.91,13.44,13.44,0,0,0-1.31,3.78c-.69,3.15-.65,7.65-.67,12.88,0,2.63-.06,5.46-.35,8.53a47.62,47.62,0,0,1-1.83,9.48,64.44,64.44,0,0,1-7.65,15.84c-2.91,4.55-5.81,8.65-8.39,12.54a54.26,54.26,0,0,0-6,11.2,17.64,17.64,0,0,0-.89,10,29.14,29.14,0,0,0,1.95,5.37c.93,2,2.06,4.05,3.26,6.39A138.18,138.18,0,0,1,510.91,308a121.27,121.27,0,0,1,2.9,15.75c.14,1.33.21,2.67.31,4,.06.66-.19,1.35-.1,2s.28,1.33.44,2a54.86,54.86,0,0,1,1.84,7.8,59.82,59.82,0,0,0,.63,6.15,12.68,12.68,0,0,0,1.22,3.82c.93,1.77,3.13,4.23,6.62,7.5,1.7,1.64,3.69,3.52,5.77,5.78s3.87,4.53,5.61,6.84,3.34,4.66,4.89,7.19a69.06,69.06,0,0,1,4.38,8.29,44.87,44.87,0,0,1,1.87,5,35.37,35.37,0,0,1,1.35,6.23,25.75,25.75,0,0,1-.37,8.59,26.79,26.79,0,0,1-1.5,4.63,23,23,0,0,1-1.11,2.22,17.76,17.76,0,0,1-1.37,2.17c-.51.7-1,1.41-1.62,2.06s-1.22,1.27-1.86,1.87-1.3,1.07-2,1.59c-.34.25-.68.5-1,.73l-1,.6c-.65.38-1.38.81-2,1.1s-1.28.58-1.93.85-1.21.44-1.83.65l-.91.29c-.29.09-.56.16-.84.23a48.07,48.07,0,0,1-11.15,1.45c-3.11.07-5.84,0-8.33-.06s-4.73-.1-6.61,0a18.56,18.56,0,0,0-4.14.51c-.29.11-.47.2-.21.18a2.63,2.63,0,0,0,.5-.19c.09-.06.29-.12.41-.21l.2-.14c.07-.06,0,0,.06,0s-.22.4-.89,1.63c-.33.6-.74,1.36-1.21,2.28l-1.52,3A66.58,66.58,0,0,0,492,443.15a25.53,25.53,0,0,0-.8,4,7.35,7.35,0,0,0,.13,2.26c0,.1,0,.24.09.31a.51.51,0,0,1,.1.24c.14.13.12.24.29.46a51,51,0,0,1,2.84,4.62,41.83,41.83,0,0,1,4.08,11.59,32.63,32.63,0,0,1-.38,14.09,42.87,42.87,0,0,1-4.3,9.53c-1.4,2.54-2.43,4.72-3.36,6.57a43.1,43.1,0,0,0-1.95,4.45,8.83,8.83,0,0,0-.56,3A4.42,4.42,0,0,0,489.2,507a8.81,8.81,0,0,0,3.6,2.42l1.23.4,1.32.31a13.5,13.5,0,0,0,2.62.26c2,.05,4.33-.24,7.32-.39a25.13,25.13,0,0,1,5.3.25,14.53,14.53,0,0,1,6.74,3,15.57,15.57,0,0,1,4.38,5.74,26.54,26.54,0,0,1,1.67,5.26l.24,1.21.17,1.28.15,1.28.06,1.28,0,1.28,0,1.26a19.32,19.32,0,0,1-.2,2.53,33,33,0,0,1-2.65,9.79,31.58,31.58,0,0,1-6,8.9,27.11,27.11,0,0,1-9.87,6.5c-1,.32-2,.63-3,.92s-1.87.39-2.81.56a30.54,30.54,0,0,1-5.72.36,37.34,37.34,0,0,1-10.78-2,43.32,43.32,0,0,1-9-4.35,57.11,57.11,0,0,1-7.47-5.57c-1.11-1-2.24-2-3.25-3.06-.53-.52-1-1.06-1.53-1.59s-1-1.07-1.43-1.56c-1.81-2-3.4-4-4.84-6s-2.7-3.87-3.91-5.71-2.29-3.61-3.45-5.22a30.42,30.42,0,0,0-3.61-4.37l-1-.93c-.34-.28-.69-.55-1.05-.82-.73-.51-1.53-.92-2.32-1.4A25,25,0,0,0,428,516.73c-4.55.21-9.36,1.26-14.61,1.78a61,61,0,0,1-17.21-.62,19.93,19.93,0,0,1-2.33-.52l-2.35-.64c-1.56-.46-3.12-1.14-4.66-1.77a50.13,50.13,0,0,1-8.07-4.78c-2.31-1.64-4.34-3.24-6.17-4.57a38.82,38.82,0,0,0-5-3.22,29.24,29.24,0,0,0-10.18-2.92,72.44,72.44,0,0,0-12.71-.06l-14.65,1.08c-1.3.08-2.61.16-4,.21l-2.07.07c-.77,0-1.6,0-2.53,0a28.4,28.4,0,0,1-6.55-1,22.19,22.19,0,0,1-4.05-1.6,21.27,21.27,0,0,1-4.1-2.82,22.11,22.11,0,0,1-5.11-6.89,43.7,43.7,0,0,1-1.89-4.77c-.86-2.47-1.69-4.94-2.46-7.44a8.25,8.25,0,0,1,.22-4.15c.08-.37.15-.72.19-1.07a6.41,6.41,0,0,0,.1-1,6.89,6.89,0,0,0-.27-1.94c-.62-2.51-1.18-5-1.71-7.56-2.18-10.09-4.09-20.22-5.32-30.47-.31-2.56-.56-5.12-.79-7.69s-.34-5.15-.44-7.73c-.15-5.21-.14-9.57-.88-12.64a13.05,13.05,0,0,0-.66-2.08c-.12-.33-.26-.57-.4-.88a10.31,10.31,0,0,0-.56-.92,19.31,19.31,0,0,0-3.43-3.87,37.45,37.45,0,0,0-10.23-6.33,33.7,33.7,0,0,0-11.52-2.8,15.76,15.76,0,0,0-4.93.48,8.29,8.29,0,0,0-1.86.72,6.14,6.14,0,0,0-1.43,1,11.56,11.56,0,0,0-2.51,3.93c-.82,1.87-1.61,4.23-2.75,6.9a25.91,25.91,0,0,1-5.44,8.36,19.57,19.57,0,0,1-4.39,3.28,21.36,21.36,0,0,1-2.38,1.12l-1.19.45-1,.3a56.23,56.23,0,0,1-16.36,2.54,57.69,57.69,0,0,1-16.2-2.15,54.91,54.91,0,0,1-27.05-17.06,56.72,56.72,0,0,1-8.62-13.36A51.34,51.34,0,0,1,161,366.39c-.33-2.79-.18-5.36-.36-7.52a9.52,9.52,0,0,0-1.87-5.42,11.84,11.84,0,0,0-5-3.44,30.9,30.9,0,0,0-6.7-1.72c-4.7-.76-9.66-.84-14.68-1.42s-9.8-1-14.73-1.28-9.86-.5-14.8-.65-9.89-.16-14.84-.25l-29.71-.31a5.28,5.28,0,0,1-3.44-1.4,5.66,5.66,0,0,1-1-3.56c-.06-2.48.11-4.95,0-7.42a38.35,38.35,0,0,1,.3-7.42,11.46,11.46,0,0,1,1.15-3.52,9.79,9.79,0,0,1,2.35-2.85Zm.06.07a8.41,8.41,0,0,0-2.21,2.92,11.6,11.6,0,0,0-1,3.5,38.4,38.4,0,0,0,0,7.35c.08,1.23.17,2.49.18,3.74s0,2.48.14,3.66a4.79,4.79,0,0,0,.93,2.92,4.36,4.36,0,0,0,2.8.93,33.48,33.48,0,0,0,3.6,0c1.23,0,2.47-.11,3.71-.12l7.41-.15c5-.12,9.91-.09,14.86-.14s9.91-.11,14.87-.05,9.92.15,14.88.35,9.92.49,14.87.91,9.84.4,14.86,1.07a34.44,34.44,0,0,1,7.45,1.7,15.53,15.53,0,0,1,6.58,4.32,11.82,11.82,0,0,1,2.05,3.47,16,16,0,0,1,.87,3.85c.28,2.56.2,5,.55,7.38a46.78,46.78,0,0,0,4.51,13.79,52.32,52.32,0,0,0,8.2,12.06,49.3,49.3,0,0,0,24.83,14.79A51.51,51.51,0,0,0,217.15,408a49.78,49.78,0,0,0,14.45-2.61,14.38,14.38,0,0,0,6.21-3.65,18.48,18.48,0,0,0,3.79-6.21c.93-2.29,1.64-4.66,2.55-7a19.73,19.73,0,0,1,3.82-6.39,14.87,14.87,0,0,1,6.3-3.91,23,23,0,0,1,7.36-1.1A41.29,41.29,0,0,1,276.15,380,46.24,46.24,0,0,1,289,387.38c3.82,3.11,7.08,7.18,8.34,12s1.32,9.81,1.58,14.73.64,9.88,1.2,14.8a229.78,229.78,0,0,0,5.25,29.21q1.78,7.2,4,14.29l1.14,3.53,1.22,3.51c.81,2.31,1.63,4.76,3.5,6.45s4.47,2.17,6.91,2.29c1.23.07,2.47,0,3.71,0s2.47-.07,3.71-.12c4.94-.2,9.88-.57,14.83-.71a81.46,81.46,0,0,1,14.81.7,40.22,40.22,0,0,1,14,4.74c4.29,2.5,7.95,5.88,11.92,8.83a38.19,38.19,0,0,0,6.28,3.93c1.15.47,2.26,1,3.44,1.41l1.77.53a12.54,12.54,0,0,0,1.8.47,62,62,0,0,0,14.77,1.11c4.94-.11,9.89-.46,14.84-.45a50.41,50.41,0,0,1,14.67,1.86c1.16.44,2.34.83,3.48,1.31l1.67.79,1.62.91a41.39,41.39,0,0,1,6,4.39,97,97,0,0,1,10.14,10.82,123.57,123.57,0,0,0,9.94,11A42.69,42.69,0,0,0,487.76,548a22.17,22.17,0,0,0,14.51,1.25,18.92,18.92,0,0,0,11-9.42,22.83,22.83,0,0,0,2.5-14.36c-.41-2.41-1.19-4.94-3.12-6.57a7.27,7.27,0,0,0-3.36-1.47,17,17,0,0,0-3.7-.19c-2.47.11-4.93.44-7.41.5a25.67,25.67,0,0,1-7.35-.84,19.24,19.24,0,0,1-6.68-3.14,14.5,14.5,0,0,1-4.6-5.72,16,16,0,0,1-1.26-7.24,30.61,30.61,0,0,1,1.38-7.28c1.41-4.73,3.39-9.34,3.92-14.29a18.19,18.19,0,0,0-.73-7.33,27.51,27.51,0,0,0-3.5-6.52,68.38,68.38,0,0,1-4-6.24,28.66,28.66,0,0,1-1.46-3.41l-.49-1.79c-.17-.59-.22-1.21-.34-1.82a27.37,27.37,0,0,1,0-7.4,44.44,44.44,0,0,1,1.7-7.21,87.31,87.31,0,0,1,6-13.55c1.17-2.18,2.32-4.37,3.66-6.46a22.67,22.67,0,0,1,4.82-5.6,14.94,14.94,0,0,1,6.76-2.87,40.69,40.69,0,0,1,7.4-.51c4.95,0,9.88.6,14.83.63a32.11,32.11,0,0,0,7.38-.68,10.41,10.41,0,0,0,6.21-3.75,9.67,9.67,0,0,0,1.55-3.35,11.42,11.42,0,0,0,.19-3.69,27,27,0,0,0-1.89-7.15,69.26,69.26,0,0,0-7.16-13c-1.4-2-2.87-4-4.46-5.92s-3.32-3.68-5-5.48c-3.37-3.58-6.76-7.34-8.62-12s-2-9.7-2-14.62a128.63,128.63,0,0,0-3.07-29.47,126.5,126.5,0,0,0-9.78-28c-2.16-4.44-4.59-8.82-5.72-13.67a27.31,27.31,0,0,1,.81-14.64,64.34,64.34,0,0,1,6.44-13.34c2.54-4.25,5.28-8.38,7.73-12.68a55.84,55.84,0,0,0,5.88-13.58c1.29-4.8,1.28-9.82,1-14.75s-.7-9.9-.13-14.83a27.38,27.38,0,0,1,1.74-7.19,25.61,25.61,0,0,1,3.77-6.37,60,60,0,0,1,10.9-10c3.93-3,8-5.84,11.73-9.09s7.17-7,9-11.62a22.38,22.38,0,0,0,.34-14.57c-1.3-4.78-3.48-9.26-4.95-14a137.47,137.47,0,0,0-4.57-14.12,70.42,70.42,0,0,0-6.69-13.22A42.08,42.08,0,0,0,518.7,73.73a26.92,26.92,0,0,0-6.49-3.54A29.34,29.34,0,0,0,505,68.58a73.31,73.31,0,0,0-7.41-.29c-2.48,0-4.95.07-7.42-.14A25.8,25.8,0,0,1,483,66.32a40.59,40.59,0,0,1-6.52-3.52c-4.14-2.7-8.11-5.72-12.61-7.81a51.34,51.34,0,0,0-14.21-4.09A92.83,92.83,0,0,0,434.82,50,259.14,259.14,0,0,0,376.1,58a264.69,264.69,0,0,0-28.32,8.88c-2.3.91-4.61,1.79-6.9,2.73s-4.58,1.88-6.82,2.93c-4.54,2-9,4.19-13.47,6.26A88.92,88.92,0,0,1,306.72,84,40.12,40.12,0,0,1,292,85.42a27.7,27.7,0,0,1-13.8-5A22.39,22.39,0,0,1,273.11,75a65,65,0,0,1-3.78-6.39,55.89,55.89,0,0,0-3.83-6.34,19.27,19.27,0,0,0-5.29-5.13,32.28,32.28,0,0,0-14-4.32,39.16,39.16,0,0,0-14.69,1.33,22.92,22.92,0,0,0-6.66,3.17,17.87,17.87,0,0,0-4.9,5.48c-2.54,4.27-3.72,9.17-4.51,14s-1.16,9.83-2,14.71l-4.77,29.31c-.39,2.44-.82,4.88-1.17,7.33l-1,7.35-2,14.71c-1.33,9.81-2.72,19.61-4,29.43-.64,4.91-1.25,9.83-1.53,14.77a54,54,0,0,1-.67,7.39,15.12,15.12,0,0,1-3.06,6.71,14.25,14.25,0,0,1-6,4.27c-2.29.93-4.68,1.62-6.9,2.73a36.82,36.82,0,0,0-11.21,9.54,56.66,56.66,0,0,0-7.72,12.62,91,91,0,0,0-4.91,14c-2.59,9.55-4.29,19.34-7.24,28.8a77.31,77.31,0,0,1-5.66,13.71,55.79,55.79,0,0,1-9.11,11.69,40.24,40.24,0,0,1-12.05,8.56,22.16,22.16,0,0,1-3.54,1.15,17.07,17.07,0,0,1-3.7.36,13.35,13.35,0,0,1-3.65-.66,10.68,10.68,0,0,1-3.24-1.82,16.31,16.31,0,0,1-2.42-2.82c-.71-1-1.36-2.07-2.11-3.05A8,8,0,0,0,103,305.2a6.48,6.48,0,0,0-3.57-.66,21.12,21.12,0,0,0-7,2.11c-2.25,1-4.38,2.3-6.57,3.46A33.92,33.92,0,0,1,79,313a45.58,45.58,0,0,1-7.34,1.07,55,55,0,0,0-7.34,1.08,15.57,15.57,0,0,0-6.62,3.15Z"/></svg>