<svg id="Layer_1" data-name="Layer 1" xmlns="http://www.w3.org/2000/svg" viewBox="0 0 600 600"><title>Djibouti</title><path d="M498.15,258a16.92,16.92,0,0,0,5.25-5.62,68,68,0,0,0,3.51-6.92l3.2-7.08c1.07-2.35,2.08-4.72,3-7.13a70.26,70.26,0,0,0,4-14.74,52.93,52.93,0,0,0,.51-7.53,59.55,59.55,0,0,0-.6-7.54,107.9,107.9,0,0,0-3.4-14.87l-2.24-7.42c-.78-2.53-1.5-5.08-2.14-7.62-2.59-10.19-4.42-20.41-7.41-30a82.56,82.56,0,0,0-5.52-13.7,27,27,0,0,0-8.39-10.26c-1.79-1.37-3.89-2.69-6.09-4.1-1.09-.71-2.22-1.44-3.34-2.2-.56-.37-1.18-.84-1.77-1.27s-1.18-.87-1.74-1.34a56,56,0,0,1-6.32-6,69.93,69.93,0,0,1-5.37-6.64,101.51,101.51,0,0,1-8.49-14.32c-.61-1.23-1.19-2.46-1.77-3.69l-1.64-3.61c-1-2.22-2.07-4.35-3.2-6.33a35.24,35.24,0,0,0-3.58-5.26,13.65,13.65,0,0,0-3.69-3.21,6.37,6.37,0,0,0-3.27-.83,12.13,12.13,0,0,0-4.21.9,11.72,11.72,0,0,0-1.24.52c-.42.17-.85.39-1.29.62l-3.56,1.8c-2.52,1.23-5,2.35-7.55,3.42-5,2.13-9.93,3.93-14.62,5.81C395.76,75.61,387.22,79.54,381,85c-.73.71-1.52,1.38-2.23,2.09s-1.37,1.41-2,2.19a34.17,34.17,0,0,0-3.36,4.83,41,41,0,0,0-2.54,5.35,38.55,38.55,0,0,0-1.66,5.74c-.24,1-.33,2-.51,3s-.25,2-.26,3a41.3,41.3,0,0,0,.1,6.09l.17,1.51.1,1c0,.51.1,1,.13,1.53a23.07,23.07,0,0,1-.77,7.71c-.21.74-.5,1.52-.79,2.26a24.08,24.08,0,0,1-1.12,2.21,18.33,18.33,0,0,1-1.34,2l-.72.91-.73.79a27.41,27.41,0,0,1-5.25,4.22c-1.49.95-2.77,1.67-3.76,2.25s-2.26,1.34-3.52,2a62.43,62.43,0,0,1-8.68,4.16,37.1,37.1,0,0,1-5.55,1.59c-1,.22-2.09.34-3.14.47a29.65,29.65,0,0,1-3.42.1c-.58,0-1.17-.05-1.76-.1l-1.79-.25a23.34,23.34,0,0,1-3.51-.84,29.86,29.86,0,0,1-6-2.67,54.86,54.86,0,0,1-8-5.92L306,139.54l-3-2.77c-3.92-3.64-7.52-7.13-11.07-10.12a52.38,52.38,0,0,0-10.3-7.14,21.66,21.66,0,0,0-4.59-1.72c-.73-.08-1.3-.3-2.23-.34a20.8,20.8,0,0,0-2.46-.11,14.72,14.72,0,0,0-8.08,2.49,28.09,28.09,0,0,0-7.38,7.65,87.89,87.89,0,0,0-6.7,11.74c-2.12,4.35-4.22,9-6.44,13.9-1.13,2.45-2.32,5-3.69,7.59l-3.86,7.12c-1.24,2.38-2.59,4.69-3.91,7s-2.63,4.66-4,6.94c-11,18.31-23.1,36-38.81,50.34-1.76,2-3.46,4-5,6l-4.71,6.3L175,250.75l-4.65,6.33c-6.25,8.4-12.31,16.93-18.4,25.4l-9.18,12.73q-4.66,6.46-10,12.92c-1.79,2.16-3.63,4.3-5.61,6.39s-4,4.2-6.12,6.24a61.26,61.26,0,0,1-6.8,5.83c-2.39,1.71-4.52,2.9-6.21,3.91-.85.5-1.57,1-2.19,1.38a16.56,16.56,0,0,0-1.43,1.14,9,9,0,0,0-1.79,2.25,26.16,26.16,0,0,0-2.63,9.48c-.27,2.08-.46,4.35-.6,6.79L99,359.13c-.24,5.09-.41,10.18-.56,15.27q-.87,30.59.38,61.3c.12,2.55.19,5.19.37,7.33a32.79,32.79,0,0,0,.83,5.56c.1.38.21.73.32,1.06a9.67,9.67,0,0,0,.47,1.15c.44,1,1,2,1.5,3.09,1.1,2.14,2.4,4.46,3.73,7.16a43.79,43.79,0,0,1,3.55,9.57,26.9,26.9,0,0,1,.07,11.78,30.27,30.27,0,0,1-1.7,5.31,33.86,33.86,0,0,1-2.21,4.51c-1.53,2.65-3.07,4.94-4.57,7.13-3,4.35-5.8,8.45-8,12.47a42.4,42.4,0,0,0-2.62,5.85,14.78,14.78,0,0,0-.83,4.77A5.55,5.55,0,0,0,90,524a4.25,4.25,0,0,0,.62,1.12l.08.13.16.18.3.35c.21.22.43.42.64.62a8.27,8.27,0,0,0,1.5,1A18.77,18.77,0,0,0,98,528.91c2,.45,4.44.83,7.19,1.33,1.43.26,2.69.52,4,.8l3.9.86q3.89.86,7.69,1.82l3.78,1c.63.17,1.18.61,1.82.73s1.31.13,2,.17c2.64.14,5.36-.11,7.88.33.63.1,1.26.24,1.88.36s1.28.27,1.78.35c1.09.21,2.11.35,3.11.47a23.94,23.94,0,0,0,5.24.09,12.45,12.45,0,0,0,3.84-1,12.22,12.22,0,0,0,1.62-.89l.4-.28c.12-.09.32-.21.21-.18s-.07,0-.06,0,0,0,.07-.13.61-.76,1.26-1.59,1.5-1.94,2.68-3.29a31,31,0,0,1,5-4.64c.58-.41,1.24-.84,1.82-1.2l1.39-.81a32.12,32.12,0,0,1,9.93-3.52,46.75,46.75,0,0,1,5.8-.63l4.1-.22,3.57-.27a231.88,231.88,0,0,0,28.78-4,155.1,155.1,0,0,0,26.43-7.66c2-.85,4.08-1.66,6-2.62,1-.46,2-.9,2.91-1.4l3-1.55a128.38,128.38,0,0,1,16.47-7.27,123.74,123.74,0,0,1,17.37-4.83l2.2-.44,2.2-.37c1.46-.24,2.93-.51,4.39-.68s2.92-.42,4.38-.53a35.69,35.69,0,0,1,4.39,0,33,33,0,0,1,8.7,1.92c2.88,1,5.66,2.27,8.4,3.45a60.87,60.87,0,0,0,8.07,2.89c1.34.34,2.65.63,4,.84l4.23.67a26,26,0,0,1,5.69,1.52,16.27,16.27,0,0,1,3.34,1.86,13.65,13.65,0,0,1,1.6,1.37c.25.25.5.52.73.78l.48.6a19.26,19.26,0,0,1,3,5.55,20,20,0,0,1,1,5.85c.1,3.52-.39,6.31-.18,7.35a1.85,1.85,0,0,0,.08.33s0-.09,0-.13.15.11.75.35a15.74,15.74,0,0,0,2.43.69l1.62.3,1.64.23a48.42,48.42,0,0,0,6.73.3,49.28,49.28,0,0,0,13.51-2.17,54.9,54.9,0,0,0,6.31-2.43c.48-.24,1.05-.47,1.45-.73l1.26-.75a12,12,0,0,0,1.19-.82,10.52,10.52,0,0,0,1.15-.87c3-2.39,5.41-5.61,7.92-9.5,1.26-1.92,2.51-4.08,3.88-6.28s2.89-4.54,4.53-6.9c.43-.59.84-1.19,1.28-1.77l1.39-1.77.67-.85.39-.56c.26-.37.53-.74.81-1.09.52-.76,1-1.59,1.52-2.38s1-1.7,1.43-2.64c.9-1.86,1.84-3.79,2.69-5.95.21-.54.43-1.06.67-1.6l.68-1.67c.49-1.08,1-2.25,1.51-3.39,1.07-2.28,2.3-4.67,3.65-7,.72-1.2,1.42-2.41,2.19-3.6s1.56-2.4,2.41-3.6,1.65-2.38,2.6-3.56,1.79-2.35,2.79-3.48l1.42-1.72c.52-.55,1-1.11,1.51-1.66,1-1.11,2-2.21,3-3.22,4.11-4,7.87-7.66,11.15-11.19.82-.88,1.56-1.77,2.29-2.66s1.39-1.85,2.06-2.83a63.49,63.49,0,0,0,3.68-6.14,53.6,53.6,0,0,0,4.93-13.29,37.88,37.88,0,0,0,.91-6.8,19.37,19.37,0,0,0-.43-6,7.23,7.23,0,0,0-2.47-3.82,27.19,27.19,0,0,0-5.39-3.32c-2.17-1.11-4.57-2.22-7-3.47l-.91-.46-1.22-.7a18.77,18.77,0,0,1-2.29-1.69,20.21,20.21,0,0,1-3.64-4.16,41.68,41.68,0,0,1-3.91-8.24,25.94,25.94,0,0,0-2.67-5.67,5.71,5.71,0,0,0-3-2.23,9.52,9.52,0,0,0-1.06-.3,10,10,0,0,0-1.22-.18,13,13,0,0,0-2.5,0c-3.33.24-7.16,2.09-11.56,4.54-2.21,1.21-4.56,2.55-7.22,3.83-1.32.63-2.75,1.25-4.25,1.8s-3,1-4.57,1.38a67.56,67.56,0,0,1-17.59,1.44c-5.56-.17-10.84-.67-15.77-1a70.89,70.89,0,0,0-13.88.21,43.79,43.79,0,0,0-6.37,1.23,29.22,29.22,0,0,0-5.65,2.08,24.91,24.91,0,0,0-4.59,2.8,15.51,15.51,0,0,0-3.39,3.48,38.41,38.41,0,0,0-3.11,5.69,35.08,35.08,0,0,1-5.73,8.69,27.76,27.76,0,0,1-9.33,6.48,31.35,31.35,0,0,1-10.45,2.43,32.75,32.75,0,0,1-10.43-1c-.85-.22-1.69-.51-2.53-.78s-1.66-.66-2.48-1-1.61-.81-2.4-1.23-1.48-.91-2.21-1.38a37.12,37.12,0,0,1-12.53-15.16,43.62,43.62,0,0,1-3-9,43,43,0,0,1-.76-4.63c-.11-.77-.15-1.56-.2-2.34a23.68,23.68,0,0,1-.05-2.73,24.38,24.38,0,0,1,.87-5.5,21.85,21.85,0,0,1,2.19-5.32,16.9,16.9,0,0,1,4.52-5.21,14.25,14.25,0,0,1,1.77-1.1,14.42,14.42,0,0,1,2.06-.86,15.84,15.84,0,0,1,2.25-.49,17.41,17.41,0,0,1,2.28-.06c.71.07,1.42.18,2.12.31a13.24,13.24,0,0,1,2,.65,14.64,14.64,0,0,1,3.19,1.84,29.66,29.66,0,0,1,3.57,3.32,9.56,9.56,0,0,0,1,1c.3.23.58.48.86.74s.65.38,1,.59a9,9,0,0,0,1,.48,12.63,12.63,0,0,0,5,.82,21.87,21.87,0,0,0,5.87-1.13,28.84,28.84,0,0,0,5.87-2.73,31.4,31.4,0,0,0,5.28-3.94c.8-.7,1.62-1.6,2.44-2.45s1.62-1.8,2.4-2.75c1.58-1.89,3.13-3.87,4.72-5.92a138.46,138.46,0,0,1,10.35-12.34,51.14,51.14,0,0,1,6.42-5.53c.59-.4,1.16-.84,1.77-1.21l1.85-1.09a37.59,37.59,0,0,1,3.79-1.94,61.64,61.64,0,0,1,15.8-4.46c5.28-.86,10.49-1.3,15.62-1.82a124.85,124.85,0,0,0,15.12-2.23A61.18,61.18,0,0,0,412,304c1.17-.47,2.37-.88,3.5-1.44s2.3-1,3.41-1.66a76.18,76.18,0,0,0,12.69-8.5c4-3.25,7.71-6.83,11.39-10.46l5.51-5.49,2.77-2.73,1.37-1.38c.48-.44,1-.86,1.47-1.3s1-.88,1.5-1.26l1.63-1.1.82-.55.87-.45,1.74-.89a34.3,34.3,0,0,1,7.46-2.25c5.11-1,10.32-1.06,15.46-1.7a35.17,35.17,0,0,0,14.64-4.76Zm.05.07a34.92,34.92,0,0,1-14.57,5.34c-5.15.82-10.37,1.11-15.31,2.23a33.64,33.64,0,0,0-7.09,2.4l-1.63.89-.82.44-.75.54L456.52,271c-.49.37-.92.82-1.38,1.23s-.91.82-1.36,1.27l-1.34,1.4-2.7,2.78-5.39,5.61c-7.2,7.45-14.89,14.8-24.15,20a61.07,61.07,0,0,1-14.65,5.92A124.91,124.91,0,0,1,390.12,312c-5.15.69-10.28,1.3-15.32,2.27a57.5,57.5,0,0,0-14.54,4.57,35.52,35.52,0,0,0-3.32,1.83l-1.61,1c-.53.34-1,.74-1.53,1.11a46.29,46.29,0,0,0-5.61,5.15,128.82,128.82,0,0,0-9.52,12.16c-1.52,2.1-3.05,4.2-4.67,6.25a61.32,61.32,0,0,1-5.16,5.91,37.88,37.88,0,0,1-6.15,4.93,35.63,35.63,0,0,1-7,3.56,29,29,0,0,1-7.69,1.77,20.08,20.08,0,0,1-7.84-.95,15.49,15.49,0,0,1-1.84-.76l-1.74-1a24.85,24.85,0,0,1-3.06-2.52,26.28,26.28,0,0,0-2.83-2.58,6.18,6.18,0,0,0-3.38-1.32,5.08,5.08,0,0,0-3.42,1.09,9.2,9.2,0,0,0-2.38,2.86,16.33,16.33,0,0,0-1.94,7.31,35.63,35.63,0,0,0,3.53,14.91A29,29,0,0,0,293,391.24,23.43,23.43,0,0,0,307.68,395a20.64,20.64,0,0,0,13.78-6.27c3.57-3.85,4.82-9.13,7.74-13.42a27.5,27.5,0,0,1,11.86-9.71,40,40,0,0,1,7.35-2.49,53.92,53.92,0,0,1,7.66-1.27c10.37-1.12,20.68.93,31,1.5a59.42,59.42,0,0,0,15.47-.85c5.11-1,9.73-3.55,14.33-5.9A68.15,68.15,0,0,1,424,353.4a24.24,24.24,0,0,1,7.56-1.63,20.14,20.14,0,0,1,3.88.24,15,15,0,0,1,3.73,1,12.47,12.47,0,0,1,5.88,4.9c2.82,4.39,3.49,9.77,6.28,14.18a13.44,13.44,0,0,0,5.72,5.1c2.28,1.23,4.61,2.37,6.9,3.58a32.06,32.06,0,0,1,6.48,4.25,14.88,14.88,0,0,1,1.35,1.4c.43.48.75,1.05,1.13,1.57s.6,1.15.87,1.74.44,1.22.61,1.84a25.1,25.1,0,0,1,.54,7.73,42.44,42.44,0,0,1-1.1,7.68,62.26,62.26,0,0,1-5.42,14.52,59.94,59.94,0,0,1-8.75,12.8c-3.48,3.85-7.35,7.32-10.67,11.3A54.53,54.53,0,0,0,441.06,459c-4.08,9.52-6.41,19.74-11.21,29-.58,1.16-1.28,2.25-1.92,3.38s-1.43,2.16-2.21,3.2-1.61,2-2.46,3-1.67,2-2.47,3c-3.21,4.07-6.07,8.4-9.27,12.48a45.61,45.61,0,0,1-11.17,10.7,17.46,17.46,0,0,1-1.67,1c-.57.3-1.11.67-1.71.92-1.18.54-2.35,1.09-3.57,1.53a66.27,66.27,0,0,1-7.43,2.26,64.49,64.49,0,0,1-15.41,1.76,54.22,54.22,0,0,1-7.74-.63,29.41,29.41,0,0,1-7.49-2,8.43,8.43,0,0,1-3.08-2.31,6.87,6.87,0,0,1-1.41-3.56c-.27-2.59.2-5.18,0-7.77a11.52,11.52,0,0,0-2.74-7.11A6.76,6.76,0,0,0,345,505.6a15.35,15.35,0,0,0-3.81-.71,228.36,228.36,0,0,0-31.06.46,124.14,124.14,0,0,0-30.31,6.52c-9.86,3.29-18.68,9-28.51,12.35a157.28,157.28,0,0,1-30.17,7.3,245.2,245.2,0,0,1-31,2.39c-2.59.08-5.18,0-7.77,0a21,21,0,0,0-7.63,1.24,17.3,17.3,0,0,0-3.45,1.77,18.66,18.66,0,0,0-2.91,2.57,71,71,0,0,1-5.36,5.61,16.94,16.94,0,0,1-3.26,2.1c-.59.28-1.17.56-1.77.82s-1.2.49-1.82.67a26.41,26.41,0,0,1-7.64,1.27c-5.2.13-10.3-1.13-15.29-2.45-10-2.6-20-5.43-30.13-7.68-2.53-.54-5.08-1-7.59-1.67a26.41,26.41,0,0,1-7.17-2.93,16.48,16.48,0,0,1-5.45-5.44,13.14,13.14,0,0,1-1.55-3.54,16.11,16.11,0,0,1-.48-3.85c.07-5.23,2.23-10.14,4.63-14.69s5.34-8.88,8.15-13.23,5.75-8.74,6.79-13.87a17.41,17.41,0,0,0-.23-7.7,30.69,30.69,0,0,0-3-7.17c-1.24-2.28-2.6-4.48-3.9-6.72a41.68,41.68,0,0,1-3.44-7c-1.69-4.92-2-10.17-2.51-15.3q-3-31-3.65-62.07c-.11-5.18-.19-10.36-.2-15.54s-.08-10.37.27-15.54a45.85,45.85,0,0,1,3.25-15.13,27.31,27.31,0,0,1,4.05-6.6,39,39,0,0,1,5.62-5.35c2-1.63,4.12-3.15,6.18-4.72s4.07-3.21,6-4.92c3.92-3.4,7.61-7,11.19-10.78,7.14-7.52,13.79-15.48,20.57-23.31,13.51-15.72,27-31.5,39.8-47.78q9.64-12.18,18.72-24.81c6-8.42,11.89-17,17.38-25.78,1.4-2.17,2.73-4.4,4.07-6.62s2.69-4.42,4-6.69,2.58-4.49,3.83-6.76,2.39-4.6,3.51-6.93c4.49-9.32,8.53-19,14.56-27.43a40.49,40.49,0,0,1,11-10.88,26.76,26.76,0,0,1,7.05-3.21,30.25,30.25,0,0,1,7.68-1.1,35.19,35.19,0,0,1,7.72.85,34.24,34.24,0,0,1,7.26,2.75,64.25,64.25,0,0,1,12.73,8.87c3.94,3.36,7.64,7,11.42,10.54q2.82,2.67,5.77,5.21a43.3,43.3,0,0,0,6.17,4.7,15.11,15.11,0,0,0,7.32,2.26,20.36,20.36,0,0,0,7.59-1.37c4.86-1.82,9.26-4.62,13.74-7.21a16.3,16.3,0,0,0,3.05-2.37,7.78,7.78,0,0,0,1.93-3.3,11.54,11.54,0,0,0,.36-3.84l-.34-3.87a51.68,51.68,0,0,1,0-7.77c0-1.3.27-2.58.41-3.87s.41-2.56.75-3.81A47.07,47.07,0,0,1,364,88.25,46.59,46.59,0,0,1,374.16,76.6a65.71,65.71,0,0,1,13.16-8.23,155,155,0,0,1,14.38-5.91c4.86-1.78,9.77-3.46,14.6-5.34,2.41-.94,4.81-1.92,7.17-3a65.37,65.37,0,0,1,7.14-3.08A20,20,0,0,1,438.28,50a15.22,15.22,0,0,1,7.29,2.5,22.86,22.86,0,0,1,5.58,5.39,44,44,0,0,1,4.07,6.61c2.41,4.6,4.06,9.54,6.23,14.25a97.08,97.08,0,0,0,7.39,13.64,62.79,62.79,0,0,0,4.64,6.22,48.24,48.24,0,0,0,5.43,5.55c3.89,3.42,8.43,6,12.41,9.34a32.65,32.65,0,0,1,9.2,12.38,86.9,86.9,0,0,1,5.21,14.63c2.68,10,4.1,20.32,6.27,30.45,1,5.08,2.52,10,3.82,15.06a109.89,109.89,0,0,1,3,15.25,54.77,54.77,0,0,1-.38,15.5A71.56,71.56,0,0,1,514,231.64c-2,4.8-4.32,9.43-6.75,14-1.24,2.28-2.41,4.59-3.79,6.79a18.47,18.47,0,0,1-5.17,5.75Z"/></svg>