<svg id="Layer_2" data-name="Layer 2" xmlns="http://www.w3.org/2000/svg" viewBox="0 0 600 600"><title>Finland</title><path d="M321.34,72.85a83.74,83.74,0,0,1,6.41-8.91c.58-.71,1.2-1.39,1.78-2.11l1.86-2c1.26-1.36,2.57-2.7,4-4A34.49,34.49,0,0,1,345,49.55a23.36,23.36,0,0,1,11.55-1.78,41.4,41.4,0,0,1,5.79,1c1.88.44,3.76.9,5.62,1.51a26,26,0,0,1,10.28,6,31.23,31.23,0,0,1,6.94,9.86,46,46,0,0,1,3.4,11.4,65.74,65.74,0,0,1,.83,11.7,79.63,79.63,0,0,1-1,11.64,78.64,78.64,0,0,1-2.7,11.48L384,117.59c-.54,1.67-1,3.27-1.36,4.82-.74,3.08-.91,5.93-.36,7.61a4.18,4.18,0,0,0,1.13,1.93,12.24,12.24,0,0,0,2.5,1.79c1.26.78,3,1.64,4.95,3l1.42,1c.46.35.9.73,1.36,1.1a33.15,33.15,0,0,1,2.57,2.33,39,39,0,0,1,7.92,11.25,41.12,41.12,0,0,1,3.78,13.39A37.8,37.8,0,0,1,408,173c-.14,1.19-.24,2.43-.45,3.58s-.45,2.27-.71,3.35c-1.07,4.31-2.48,8-3.51,11.2l-.71,2.32-.59,2.22c-.23.74-.33,1.51-.5,2.26l-.24,1.12-.17,1.15a50.6,50.6,0,0,0-.67,9.21,55.48,55.48,0,0,0,.83,9.19,56.62,56.62,0,0,0,2.22,8.91,58.24,58.24,0,0,0,3.62,8.33c.78,1.31,1.46,2.57,2.36,3.95l2.91,4.47A61,61,0,0,1,418.67,256a37.91,37.91,0,0,1,2,7.52,45.69,45.69,0,0,1,.55,7.33,87.72,87.72,0,0,1-1.2,12.58c-.55,3.72-1.13,7.11-1.32,10-.06.74-.1,1.46-.11,2.13s0,1.36,0,2a38.85,38.85,0,0,0,.42,4.19c.85,5.73,3,12,5.46,19l1.8,5.28c.6,1.78,1.22,3.65,1.81,5.61s1.15,4,1.64,6.19c.12.55.25,1.09.35,1.65l.17.88.16,1.07a37.11,37.11,0,0,1,.35,4c.09,2.53,0,4.63-.07,6.4a34.9,34.9,0,0,0,0,4.17,13.91,13.91,0,0,0,.56,2.83,6.91,6.91,0,0,0,.94,2,4.65,4.65,0,0,0,.47.54,3.2,3.2,0,0,0,.43.32,25.09,25.09,0,0,0,2.66,1.54,59.71,59.71,0,0,1,5.84,3.33,33.12,33.12,0,0,1,6.71,6A36.46,36.46,0,0,1,456,388.23a48.68,48.68,0,0,1,1.15,7.69,65.26,65.26,0,0,1,.14,7.23,96.66,96.66,0,0,1-1.55,13.35c-.39,2.13-.84,4.23-1.33,6.3-.26,1-.52,2.05-.79,3.07l-.79,2.94c-2,7.37-4.17,14.79-6.81,22.15-.64,1.84-1.36,3.67-2.06,5.51l-1.07,2.75c-.37.92-.78,1.82-1.17,2.73-1.53,3.64-3.29,7.23-5.11,10.79-1,1.77-1.9,3.54-2.89,5.3l-3.13,5.21c-.55.85-1.07,1.73-1.69,2.54a10,10,0,0,1-2.29,2.14,15.92,15.92,0,0,1-3.05,1.59c-1.07.47-2.22.89-3.27,1.36a21.12,21.12,0,0,0-2.91,1.57,12.47,12.47,0,0,0-2.3,2c-1.38,1.45-2.81,2.87-4.23,4.29s-2.78,2.89-4.23,4.29-2.76,2.92-4.24,4.29-2.83,2.88-4.33,4.25-3,2.76-4.49,4.1a99.09,99.09,0,0,1-9.64,7.37C370.35,532,355.43,537.73,340.66,542s-29.69,6.78-44.32,9.34c-7.33,1.22-14.58,2.56-21.74,4.24l-5.38,1.25c-1.85.42-3.71.85-5.66,1.19s-3.94.66-6,.91c-1,.1-2.06.24-3.13.3s-2.13.07-3.24.05a47.69,47.69,0,0,1-6.8-.25,29.52,29.52,0,0,1-7.17-1.67,15.71,15.71,0,0,1-1.78-.71c-.6-.26-1.19-.52-1.77-.81s-1-.87-1.62-1.14-1.23-.48-1.84-.78a23.12,23.12,0,0,1-7.06-4c-3.61-3.52-6-6.9-8.07-9.27a25.05,25.05,0,0,0-2.79-2.83,39.39,39.39,0,0,0-3.24-2.43,107.1,107.1,0,0,1-9.69-7.13,39.88,39.88,0,0,1-5.64-6,38.78,38.78,0,0,1-4.49-7.65,53,53,0,0,1-3.87-15.06c-.54-4.62-.68-8.82-.77-12.54l-.22-11c-.09-3.66,0-7.32,0-11-.05-7.33.16-14.64.41-21.95.16-3.66.31-7.31.51-11l.32-5.47a22.18,22.18,0,0,1,.7-5.47,20.17,20.17,0,0,1,2.61-5.38l1.86-2.67c.62-.89,1.29-1.77,1.89-2.66a27.94,27.94,0,0,0,2.94-5.37,36.8,36.8,0,0,0,1.39-5.44c.36-1.83.69-3.58,1-5.5s.58-4,1-6.1a35.42,35.42,0,0,1,1.88-6.7,19.8,19.8,0,0,1,4.44-6.85,15.57,15.57,0,0,1,1.69-1.45,16.5,16.5,0,0,1,1.85-1.23,19.83,19.83,0,0,1,3.8-1.64,47.83,47.83,0,0,1,6.31-1.39c.87-.15,1.65-.3,2.32-.47s1.27-.39,1.9-.59,1.23-.5,1.82-.86l.89-.47.86-.59a29.41,29.41,0,0,0,3.32-2.71,36.63,36.63,0,0,0,3.07-3.43,90.33,90.33,0,0,0,5.72-8.19l2.91-4.53,3.2-4.66c2.19-3.06,4.48-6.06,6.94-8.91,1.2-1.45,2.48-2.83,3.75-4.22.62-.71,1.3-1.36,2-2s1.39-1.28,2.11-1.89a46.26,46.26,0,0,1,4.65-3.36c1.64-1,3.37-2,5.06-2.92s3.43-1.86,5.09-2.83,3.24-2,4.75-3.12c3-2.19,5.6-4.87,8.38-7.32s5.53-4.93,8.35-7.34l4.19-3.56a38.88,38.88,0,0,0,3.48-3.39,13.29,13.29,0,0,0,2.25-3.28,4.7,4.7,0,0,0,.49-2.57,5.22,5.22,0,0,0-1.1-2.5,11.71,11.71,0,0,0-2.75-2.43c-1.22-.84-2.73-1.69-4.43-2.74-.83-.52-1.74-1.12-2.63-1.77s-1.66-1.26-2.46-1.91a61.79,61.79,0,0,1-8.54-8.66,69,69,0,0,1-11.84-21.09,64.91,64.91,0,0,1-2.94-12,67.39,67.39,0,0,1-.65-12.28c.13-3.94.44-7.66.62-11.16.1-1.75.17-3.45.17-5.09s0-3.22-.12-4.86c-.32-6.54-1.71-13.31-3-20.44-.66-3.57-1.32-7.24-1.81-11l-.73-5.45c-.25-1.9-.45-3.9-.58-6-.06-1.06-.09-2.15-.08-3.29,0-.55,0-1.17,0-1.69l.08-1.47c.12-1.87.22-3.51.24-5a19.09,19.09,0,0,0-.27-3.62,4.52,4.52,0,0,0-1.52-2.85,16.1,16.1,0,0,0-1.47-1.13c-1.17-.83-2.83-1.78-4.64-3-.44-.29-.93-.65-1.38-1s-1-.75-1.39-1.08c-.81-.67-1.58-1.36-2.35-2.05-1.51-1.4-2.93-2.85-4.27-4.33a101.11,101.11,0,0,1-7.31-9.16c-1.12-1.58-2.16-3.1-3.24-4.73s-2.11-3.32-3.08-5.1a38.08,38.08,0,0,1-4.38-11.93,24.91,24.91,0,0,1-.2-6.8,18.81,18.81,0,0,1,2.16-6.87,20.29,20.29,0,0,1,4.28-5.46,17.15,17.15,0,0,1,6.13-3.62,13.35,13.35,0,0,1,7.47-.29,13,13,0,0,1,3.42,1.38,14.79,14.79,0,0,1,2.86,2.2,18.58,18.58,0,0,1,3.67,5.44,46.76,46.76,0,0,1,2,5.48,68.51,68.51,0,0,0,3.52,10,13.7,13.7,0,0,0,2.75,3.89,17,17,0,0,0,4.06,2.77,53.74,53.74,0,0,0,10,3.61,105.38,105.38,0,0,0,10.62,2.24c1.79.29,3.59.52,5.39.71.9.1,1.8.16,2.7.22l1.35.06c.45,0,.86,0,1.3,0a8.23,8.23,0,0,0,4.71-1.87,11.68,11.68,0,0,0,3.1-4.28A51.63,51.63,0,0,0,313,93.09a70.36,70.36,0,0,1,3.41-10.44,65.58,65.58,0,0,1,4.95-9.79Zm.05,0a15.34,15.34,0,0,0-1.14,2.51c-.4.82-.79,1.64-1.16,2.47-.74,1.67-1.42,3.35-2,5.06a74.37,74.37,0,0,0-2.93,10.44,50,50,0,0,1-2.82,10.82,13.47,13.47,0,0,1-3.37,4.91,10,10,0,0,1-5.61,2.44c-.5,0-1,.11-1.51.1l-1.4,0c-.94,0-1.87-.07-2.79-.15-1.85-.14-3.7-.31-5.53-.56a107.13,107.13,0,0,1-10.91-2,59,59,0,0,1-10.61-3.46,20.16,20.16,0,0,1-4.9-3,16.59,16.59,0,0,1-3.58-4.55,68.76,68.76,0,0,1-4.18-10.31c-1.23-3.38-2.57-6.81-5.05-9.14a9.44,9.44,0,0,0-4.39-2.34,8.75,8.75,0,0,0-4.93.35,14,14,0,0,0-7.4,7,13.67,13.67,0,0,0-1.42,5,19.22,19.22,0,0,0,.34,5.29,32.14,32.14,0,0,0,4.07,9.93,93.72,93.72,0,0,0,6.25,8.94,96.91,96.91,0,0,0,7.12,8.29q1.91,2,4,3.74a33.63,33.63,0,0,0,4.35,3.27c1.55.95,3.17,1.79,4.74,2.76a16.86,16.86,0,0,1,4.28,3.48,12.52,12.52,0,0,1,2.52,4.9,24.48,24.48,0,0,1,.73,5.45c.15,3.67-.3,7.33.08,11s1,7.24,1.54,10.86,1.22,7.22,1.86,10.82c1.26,7.2,2.54,14.43,2.76,21.75s-.88,14.59-1.33,21.89a58.72,58.72,0,0,0,2.42,21.69,61.73,61.73,0,0,0,10,19.4,54.43,54.43,0,0,0,7.42,8.05,36.14,36.14,0,0,0,4.36,3.33c1.53,1,3.1,1.94,4.58,3A16.22,16.22,0,0,1,309.7,280a10.86,10.86,0,0,1,1.93,5.07,10.11,10.11,0,0,1-1,5.32,19.07,19.07,0,0,1-3.14,4.47,99.44,99.44,0,0,1-8.16,7.33c-2.76,2.4-5.51,4.82-8.21,7.29a386.25,386.25,0,0,0-30.68,31.35c-2.41,2.75-4.77,5.55-7.1,8.37l-6.91,8.52a93,93,0,0,1-7.38,8.12,40.23,40.23,0,0,1-8.74,6.56,28,28,0,0,1-5.05,2.14c-.88.24-1.76.47-2.66.66s-1.8.3-2.71.42a39.27,39.27,0,0,0-5.39,1,13,13,0,0,0-2.55,1,8.66,8.66,0,0,0-1.15.74,7.44,7.44,0,0,0-1.06.87,12.3,12.3,0,0,0-3,4.53,24.22,24.22,0,0,0-1.4,5.3c-.55,3.62-.55,7.29-.74,10.94l-3.66,87.71c-.15,3.66-.29,7.32-.08,11a36.32,36.32,0,0,0,2.07,10.73,24.35,24.35,0,0,0,2.54,4.85,28.86,28.86,0,0,0,3.56,4.16c2.62,2.56,5.58,4.73,8.38,7.09a48.77,48.77,0,0,1,4,3.72,44,44,0,0,1,3.48,4.24,97.28,97.28,0,0,0,6.63,8.73,22.07,22.07,0,0,0,4.15,3.57,9.43,9.43,0,0,0,1.17.72c.4.23.79.46,1.19.67a24.25,24.25,0,0,0,2.53,1.07A32,32,0,0,0,251.31,550c7.34.08,14.55-1.48,21.73-2.78s14.38-2.71,21.54-4.24a332.84,332.84,0,0,0,42.32-11.52c13.73-5,27.12-11.22,39.09-19.67,12.1-8.25,22.44-18.89,31.17-30.6s15.81-24.66,21.92-37.94q4.56-10,8.44-20.25A80.93,80.93,0,0,0,443,401.8a38.51,38.51,0,0,0-.39-10.93A22,22,0,0,0,438.1,381a19.94,19.94,0,0,0-4-3.72c-1.5-1-3.12-1.9-4.71-2.8a29.2,29.2,0,0,1-4.55-3.06,15.91,15.91,0,0,1-3.49-4.21,23.57,23.57,0,0,1-2.95-10.48c-.21-3.66.32-7.31.24-11a27.52,27.52,0,0,0-.67-5.43c-.38-1.79-.84-3.56-1.35-5.32-1-3.51-2.21-7-3.37-10.44-2.33-6.92-4.76-13.88-5.79-21.14a46.66,46.66,0,0,1-.31-10.95c.3-3.65.95-7.26,1.51-10.87a76.73,76.73,0,0,0,1.13-10.9A29.76,29.76,0,0,0,408,260c-2.6-6.89-7.56-12.5-10.87-19A66.78,66.78,0,0,1,391,198.26a64.43,64.43,0,0,1,2.93-10.57c1.25-3.44,2.65-6.83,3.62-10.35a31.6,31.6,0,0,0-1.48-21.42,32.37,32.37,0,0,0-5.94-9.15,27,27,0,0,0-1.95-1.91c-.35-.3-.68-.62-1-.91l-1.09-.83c-1.44-1.13-3-2-4.54-3.08a16,16,0,0,1-4-3.68,11.66,11.66,0,0,1-2.19-5,23.08,23.08,0,0,1,1.11-10.83c1.05-3.51,2.54-6.87,3.86-10.27a74.15,74.15,0,0,0,3.09-10.52A67.92,67.92,0,0,0,384.67,78a42.09,42.09,0,0,0-2.58-10.61,28.26,28.26,0,0,0-5.81-9.21c-5.08-5.3-12.49-8-19.75-8.06A36.27,36.27,0,0,0,336,56.76a50.72,50.72,0,0,0-14.61,16.13Z"/><path d="M173.06,524.91a31.18,31.18,0,0,0-.72-4.13,3.61,3.61,0,0,0-1-1.62,7.34,7.34,0,0,0-1.64-1.06,14.39,14.39,0,0,0-3.79-1.33,8.13,8.13,0,0,0-3.72.1,4.15,4.15,0,0,0-2.46,1.82,5.59,5.59,0,0,0-.59,1.44,3.55,3.55,0,0,0,0,1.49,4.68,4.68,0,0,0,.53,1.52,10.62,10.62,0,0,0,1,1.42c.36.45.78.86,1.15,1.25s.81.82,1.17,1.25a20.52,20.52,0,0,1,2.06,2.71c.62,1,1.21,2.2,2,3.35a11,11,0,0,0,1.22,1.65,7.22,7.22,0,0,0,.71.75c.12.12.25.23.38.34s.24.21.45.37c.73.58,1.19,1.1,1.62,1.49a3.5,3.5,0,0,0,.94.68,1,1,0,0,0,.84-.12,2.31,2.31,0,0,0,.74-1.15,9.92,9.92,0,0,0,.36-3.83l-.39-4.19c-.09-.7-.23-1.39-.35-2.09s-.25-1.4-.42-2.08l.49-.12c.61,2.77,1.27,5.52,1.75,8.33a12.48,12.48,0,0,1,0,4.31,4.06,4.06,0,0,1-1,2,2.8,2.8,0,0,1-2.08.83,3.93,3.93,0,0,1-2.06-.83c-.6-.41-1.13-.88-1.7-1.26-1.21-.72-2.43-1.48-3.58-2.33a27.17,27.17,0,0,1-3.28-2.79c-.51-.5-1-1-1.47-1.59s-.85-1.17-1.24-1.78a13.71,13.71,0,0,1-2.33-8.26,7.71,7.71,0,0,1,1.63-4,6.08,6.08,0,0,1,3.77-2.1,10.22,10.22,0,0,1,4.3.33,15.36,15.36,0,0,1,3.94,1.72,7.78,7.78,0,0,1,1.72,1.33,4.73,4.73,0,0,1,1,2c.36,1.42.4,2.83.62,4.22Z"/></svg>