<svg id="Layer_1" data-name="Layer 1" xmlns="http://www.w3.org/2000/svg" viewBox="0 0 600 600"><title>Gambia</title><path d="M528.41,291.79a21.13,21.13,0,0,0-6-1.31,19.68,19.68,0,0,0-3.07-.06c-1,.07-2,.18-3,.34A66.72,66.72,0,0,0,504.61,294c-3.8,1.45-7.5,3.14-11.22,4.87a114.58,114.58,0,0,1-11.54,4.79,53,53,0,0,1-12.49,2.71,29.34,29.34,0,0,1-13.16-1.78,27.78,27.78,0,0,1-10.74-8.05c-2.82-3.32-5.08-6.89-7.38-10.16-1.14-1.66-2.33-3.2-3.56-4.66a23.16,23.16,0,0,0-4-3.71c-2.84-2.15-6.09-2.88-9.89-3s-7.89.48-12.45.23a22.17,22.17,0,0,1-7.08-1.49,19.88,19.88,0,0,1-3.4-1.82,22.66,22.66,0,0,1-2.89-2.39c-3.42-3.47-5.52-7.24-7.92-9.95-.57-.69-1.23-1.26-1.83-1.89s-1.29-1.17-2-1.68a30.69,30.69,0,0,0-4.51-2.85,58.32,58.32,0,0,0-10.42-4c-3.67-1.11-7.53-2-11.47-3s-7.43-1.62-10.16-1.45a10.24,10.24,0,0,0-1.86.28,9.77,9.77,0,0,0-1.59.59,26.42,26.42,0,0,0-4.1,2.7,35.73,35.73,0,0,1-6.34,4,24.77,24.77,0,0,1-8,2.11A44,44,0,0,1,310.23,253c-4.29-1-8.22-2.3-11.93-3.24s-7.18-1.51-9.73-1.17a7.76,7.76,0,0,0-3.15,1.05c-.22.14-.42.32-.65.46s-.41.39-.63.57A8.17,8.17,0,0,0,283,252a50,50,0,0,0-2.63,4.72,34.5,34.5,0,0,1-1.76,3.08c-.64,1.06-1.36,2.06-2.1,3.05a40.26,40.26,0,0,1-5,5.41,45.23,45.23,0,0,1-5.84,4.36,51.34,51.34,0,0,1-6.32,3.29,64.75,64.75,0,0,1-6.54,2.35c-8.8,2.55-17.6,3.25-26.18,3.33-4.3,0-8.55-.12-12.76-.38l-6.21-.43-6.13-.51q-12.26-1.19-24.51-2.18l-49-4-12.24-.93a37.76,37.76,0,0,0-10.41.28,10.26,10.26,0,0,0-3.57,1.45,5.84,5.84,0,0,0-.67.5l-.17.13-.07.09a.93.93,0,0,1-.14.14,4.62,4.62,0,0,0-.6,1,11.46,11.46,0,0,0-.86,3.7,25.32,25.32,0,0,0,.09,4.82,38.47,38.47,0,0,0,.94,5.09,12.46,12.46,0,0,0,.84,2.5,13.35,13.35,0,0,0,.68,1.15c.29.37.55.73.84,1.08a30.32,30.32,0,0,1,3.3,3.93c.78,1.36,1.41,2.72,2,4s1,2.47,1.52,3.36c.13.18.17.39.41.58a6,6,0,0,0,.68.57,4.05,4.05,0,0,0,1.64.68,9.42,9.42,0,0,0,4.17-.42,27.06,27.06,0,0,0,4.81-1.92c3.29-1.67,6.66-3.86,10.24-6.12,1.81-1.11,3.68-2.26,5.71-3.34,1-.53,2.07-1.06,3.2-1.53.57-.26,1.09-.45,1.6-.65l1.56-.59A88.22,88.22,0,0,1,156.17,290,100.09,100.09,0,0,1,182,288.54c4.24.36,8.4,1,12.52,1.66s8.2,1.33,12.27,1.73,8.12.76,12.14,1.05,8,.47,12,.52a107.68,107.68,0,0,0,11.82-.44c.16,0,.66-.1,1.11-.18l1.47-.28c1-.19,2.07-.39,3.15-.57s2.2-.34,3.4-.45a18,18,0,0,1,4.21,0c.2,0,.49.08.73.13a5.74,5.74,0,0,1,.84.23,5.91,5.91,0,0,1,1,.4,5.82,5.82,0,0,1,1.21.76,5.56,5.56,0,0,1,1.27,1.35,5.78,5.78,0,0,1,.87,1.88,5.94,5.94,0,0,1,.2,1.81,6.19,6.19,0,0,1-.19,1.37,9,9,0,0,1-1.37,3,15.83,15.83,0,0,1-1.38,1.78,11.53,11.53,0,0,1-4.38,3.06,15.05,15.05,0,0,1-2.11.66l-1.6.38a137.76,137.76,0,0,1-25.28,3.38,244.78,244.78,0,0,1-25.16-.38c-8.28-.46-16.46-1.13-24.56-1.45l-6.05-.25-3-.1-1.5,0-.75,0h-.31a18.65,18.65,0,0,0-4.08,1.07c-.89.31-1.84.69-2.92,1.05-.53.18-1.13.37-1.7.54-.3.12-.6.23-.91.33-2.42.9-4.94,2.9-7.57,5.65s-5.4,5.92-8.75,9a33.28,33.28,0,0,1-5.71,4.26,28.64,28.64,0,0,1-3.33,1.65l-1.78.57a10,10,0,0,1-1.79.47l-1.83.32c-.6.11-1.22.09-1.83.14a21.71,21.71,0,0,1-3.61-.07,12.73,12.73,0,0,1-1.75-.26c-.57-.11-1.16-.19-1.72-.33a29.15,29.15,0,0,1-3.29-1l-1.59-.6c-.51-.22-1-.47-1.52-.7-1-.44-2-1-3-1.41s-2-.94-3-1.37-2-1-2.93-1.54a61,61,0,0,1-10.24-8.21c-3-3-5.76-6-8.6-8.36a30,30,0,0,0-4.28-3.08,21.18,21.18,0,0,0-2.17-1.11c-.36-.16-.67-.24-1-.38s-.68-.2-1-.28c-2.77-.65-5.87-.39-7.59.68a4.24,4.24,0,0,0-1.74,1.76,12.29,12.29,0,0,0-1,3.47c-.16.8-.31,1.72-.47,2.71l-.44,2.93c-.28,1.95-.53,3.91-.74,5.86-.46,3.92-.67,7.85-1,11.76l-.18,3c-.09,1.36-.24,2.53-.38,3.61l-.8,5.82a23.24,23.24,0,0,0-.2,4.46,4.7,4.7,0,0,0,.1.76,2.79,2.79,0,0,0,.11.53c0,.2.07.22.07.3s0,.06,0,.1,0,0,0,0,0,0,0,.07,0,0-.06.06,0,0,0,0a.6.6,0,0,0,.16.08s0,0,0,0,0,.07,0,0a2.38,2.38,0,0,0,.77-.67c.39-.44.88-1.12,1.49-2l1-1.41.3-.39.41-.5c.28-.32.56-.65.85-1a14.4,14.4,0,0,1,1.83-1.68,14.13,14.13,0,0,1,1.92-1.37,24.69,24.69,0,0,1,7.69-3.1,40.16,40.16,0,0,1,7.18-.9,97.18,97.18,0,0,1,13.18.56c4.09.39,8.18.63,12.28.78,2,.1,4.1.09,6.15.14s4.1.11,6.16.09l6.15,0c2,0,4.11-.08,6.16-.12l12.32-.29,12.31-.29c2.06-.06,4.11,0,6.16-.05s4.1,0,6.15,0l6.16.09c2.05,0,4.09.16,6.14.26,4.1.27,8.19.7,12.27,1.21s8.19,1,12.26,1.34a26.62,26.62,0,0,0,5.12,0,8.23,8.23,0,0,0,1.77-.47,4.54,4.54,0,0,0,1.26-.81,7.33,7.33,0,0,0,1.72-3,16.89,16.89,0,0,0,.69-4.39c.05-.8,0-1.63,0-2.5s-.1-1.52-.09-3.21a9.75,9.75,0,0,1,.08-1.25l.08-.69.17-.83a8,8,0,0,1,.25-.9,10.29,10.29,0,0,1,.38-1c.17-.36.36-.72.56-1.06a11.21,11.21,0,0,1,.76-1,9.86,9.86,0,0,1,3.49-2.64l.71-.3.61-.23c.43-.15.73-.23,1.08-.34l1.71-.43,1.53-.36q1.59-.36,3.18-.69c2.13-.43,4.27-.79,6.41-1.14,4.29-.66,8.62-1.18,13-1.41a117.7,117.7,0,0,1,26.09,1.46q3.22.56,6.44,1.29c2,.44,3.84.86,5.69,1.18a43.07,43.07,0,0,0,10.34.83,14.22,14.22,0,0,0,3.72-.77,3.78,3.78,0,0,0,1.7-1.24c.06-.14.19-.19.26-.35a2,2,0,0,1,.22-.47,4.49,4.49,0,0,0,.33-1.12,43.12,43.12,0,0,0,.44-4.95c.09-1.12.18-2.36.42-3.78a27.94,27.94,0,0,1,5-12.05,33.93,33.93,0,0,1,12.66-10.51,34.59,34.59,0,0,1,15.81-3.65,29.15,29.15,0,0,1,19.89,7.93,36.87,36.87,0,0,1,2.75,2.91c1.66,2,3,3.84,4.2,5.56,2.37,3.46,4.34,6.2,6.18,7.69a10.52,10.52,0,0,0,3,1.77,26.59,26.59,0,0,0,4.52,1.2c3.48.7,7.91,1,12.78,2.4a60.25,60.25,0,0,1,12.94,5.53c3.88,2.16,7.4,4.45,10.8,6.54a97.06,97.06,0,0,0,9.86,5.48,36.39,36.39,0,0,0,4.83,1.8,33.86,33.86,0,0,0,5.1,1.08c3.74.58,8.28.81,13.13,2.34A45.06,45.06,0,0,1,461.85,341c3.54,2.56,6.67,5.22,9.79,7.49a33.37,33.37,0,0,0,9.45,5.21,17.74,17.74,0,0,0,10,.05,46.78,46.78,0,0,0,10.41-4.78c3.51-2,7.07-4.23,11-6.05,1-.43,2-.9,3-1.25.51-.19,1-.39,1.54-.56l1.59-.46a39.22,39.22,0,0,1,6.33-1.13c2.06-.25,4.06-.44,6-.81a37.6,37.6,0,0,0,5.65-1.65,21.77,21.77,0,0,0,9.41-6.85,18.24,18.24,0,0,0,2.8-5.24,19.35,19.35,0,0,0,.84-6,22.91,22.91,0,0,0-.84-6,27,27,0,0,0-2.21-5.67,32.73,32.73,0,0,0-18.15-15.62Zm0-.09a32.91,32.91,0,0,1,19.07,15.13,27.37,27.37,0,0,1,2.54,5.81A24.4,24.4,0,0,1,551.2,319a19.72,19.72,0,0,1-.71,6.47,21.23,21.23,0,0,1-2.86,5.88,24.09,24.09,0,0,1-10,8,38.74,38.74,0,0,1-6,2c-2.07.49-4.13.77-6.14,1.09a36.09,36.09,0,0,0-5.86,1.27l-1.41.45-1.39.56c-.93.35-1.81.83-2.72,1.26-3.58,1.82-7,4.12-10.46,6.3a51.31,51.31,0,0,1-11.13,5.65,22.52,22.52,0,0,1-12.55.51,37.69,37.69,0,0,1-11.21-5.47c-3.44-2.29-6.67-4.83-10.06-7.09a39.75,39.75,0,0,0-10.82-5.41c-3.88-1.11-8-1.21-12.1-1.62a40.7,40.7,0,0,1-12-3,85.4,85.4,0,0,1-11-5.65c-7-4.13-14-8.69-21.95-10.78-3.95-1.09-8.06-1.35-12.11-2a36.4,36.4,0,0,1-6-1.48,19.21,19.21,0,0,1-5.4-3c-6.54-5.14-9.41-13.57-16.32-18.27a21.22,21.22,0,0,0-11.63-3.44,27.4,27.4,0,0,0-11.91,2.62,25.21,25.21,0,0,0-9.52,7.6,20.51,20.51,0,0,0-2.89,5.4,23.84,23.84,0,0,0-1.16,6,44.47,44.47,0,0,1-.77,6.09,11.88,11.88,0,0,1-1,2.89l-.77,1.33a13.91,13.91,0,0,1-.95,1.2,12.25,12.25,0,0,1-5.08,3.35,22.42,22.42,0,0,1-6,1.09A51.73,51.73,0,0,1,287,327.56c-4-.81-8-2-12-2.72a110.37,110.37,0,0,0-48.78,1.68,5.32,5.32,0,0,0-2.69,1.39,4.81,4.81,0,0,0-.83,2.91,52.49,52.49,0,0,1-.2,6.14A21.8,21.8,0,0,1,221,342.9a12.54,12.54,0,0,1-3.58,4.93,11.59,11.59,0,0,1-5.59,2.37,33.15,33.15,0,0,1-6.14.23l-12.3-.37-24.59-.76-49.19-1.5L95.05,347a85.33,85.33,0,0,0-12.28.34c-4,.49-8.19,1.37-11.63,3.65-3.65,2.16-4.73,6.68-8.08,9.15a8,8,0,0,1-5.83,1.43,7,7,0,0,1-2.86-1.05,7.62,7.62,0,0,1-2.28-2,11.23,11.23,0,0,1-2-5.74,29.91,29.91,0,0,1,.16-6.13c.24-2,.58-4.06.88-6.09s.45-4.08.61-6.12a179.88,179.88,0,0,1,3.61-24.32,16.54,16.54,0,0,1,2.33-5.66,11.06,11.06,0,0,1,4.72-3.81,14.82,14.82,0,0,1,6-1.21,19.37,19.37,0,0,1,6,1,21.7,21.7,0,0,1,5.46,2.8,37.69,37.69,0,0,1,4.72,3.93c2.94,2.86,5.53,6.06,8.28,9.1a60.29,60.29,0,0,0,9.11,8.23,38,38,0,0,0,10.87,5.65,20.92,20.92,0,0,0,12.11.4,8.83,8.83,0,0,0,1.45-.49l1.43-.57a21.92,21.92,0,0,0,2.65-1.56,28.21,28.21,0,0,0,4.65-4c2.82-3,5.23-6.31,7.91-9.42.65-.79,1.37-1.52,2.06-2.28s1.44-1.46,2.25-2.09a19.61,19.61,0,0,1,5.19-3.25l1.44-.55c.49-.16,1-.32,1.45-.5l2.89-1.06a20.44,20.44,0,0,1,6-1.43c4.1.08,8.19.34,12.29.61l24.53,1.91a237.18,237.18,0,0,0,24.58.63,131.68,131.68,0,0,0,24.39-3,21.25,21.25,0,0,0,3-.78,6.25,6.25,0,0,0,2.5-1.74,7.07,7.07,0,0,0,1.63-2.58,1.24,1.24,0,0,0-.41-1.37,3.29,3.29,0,0,0-1.43-.52,23.3,23.3,0,0,0-6.12.38c-2,.3-4,.77-6.06,1a162.65,162.65,0,0,1-24.58-.07c-16.35-1.09-32.68-3.54-49.1-2.67a89.74,89.74,0,0,0-24.15,4.31,50.68,50.68,0,0,0-11.09,5.24c-3.54,2.08-7,4.31-10.65,6.17s-7.59,3.39-11.73,3.22a13.69,13.69,0,0,1-5.9-1.57,17.73,17.73,0,0,1-4.63-4,37.33,37.33,0,0,1-6-10.67,46.77,46.77,0,0,1-2.81-11.94,31.6,31.6,0,0,1,0-6.15,17.88,17.88,0,0,1,1.59-5.91,11.12,11.12,0,0,1,1.7-2.55,12.34,12.34,0,0,1,2.4-1.92,16.9,16.9,0,0,1,5.69-2.25,43.71,43.71,0,0,1,12.25-.4l12.27.95,49.06,3.83,24.54,1.9c8.17.62,16.35,1.43,24.55,1.39s16.45-.66,24.35-2.91a56.13,56.13,0,0,0,5.8-2,45.46,45.46,0,0,0,5.47-2.8,37.39,37.39,0,0,0,4.93-3.65,33.5,33.5,0,0,0,4.18-4.49c.61-.83,1.21-1.65,1.74-2.53s1.05-1.77,1.53-2.67a55.3,55.3,0,0,1,3-5.37,15,15,0,0,1,4.37-4.28,14.4,14.4,0,0,1,5.78-2c4.1-.49,8.21.33,12.17,1.31s7.89,2.26,11.88,3.22a37.87,37.87,0,0,0,12.16,1.31,17.74,17.74,0,0,0,5.91-1.54,29.28,29.28,0,0,0,5.19-3.28,32.21,32.21,0,0,1,5.16-3.33,15.36,15.36,0,0,1,5.95-1.45c4.13-.19,8.17.85,12.12,1.9s7.91,2.15,11.78,3.52a58.78,58.78,0,0,1,11.16,5.15,33.27,33.27,0,0,1,9.14,8.15c2.48,3.27,4.36,7,7.18,10a18.46,18.46,0,0,0,2.3,2,16.33,16.33,0,0,0,2.68,1.49,18.74,18.74,0,0,0,6,1.36c4.09.32,8.19-.12,12.29,0a19.41,19.41,0,0,1,11.53,3.73c3.33,2.45,5.83,5.8,8.14,9.17s4.49,6.87,7.12,10a25.06,25.06,0,0,0,9.64,7.39A28.57,28.57,0,0,0,469.24,304a53.3,53.3,0,0,0,12.06-2.22,109.69,109.69,0,0,0,11.52-4.26c3.79-1.57,7.59-3.13,11.48-4.43a54.2,54.2,0,0,1,12-2.69,33.14,33.14,0,0,1,6.14,0,37.87,37.87,0,0,1,6,1.16Z"/></svg>