<svg id="Layer_1" data-name="Layer 1" xmlns="http://www.w3.org/2000/svg" viewBox="0 0 600 600"><title>guineabissau</title><path d="M313,157.33h.55c32.39-1.06,64.74-2.56,97-3.65l48.35-1.76,12.06-.44,12.06-.56c4.06-.19,8.14-.37,12.27-.46l6.1-.08a41.54,41.54,0,0,0,5.2-.48c3.68-.52,7.67-1.39,12.16-1.89a43.77,43.77,0,0,1,7.16-.29,32.05,32.05,0,0,1,7.8,1.3,20.39,20.39,0,0,1,8.3,4.65,16.7,16.7,0,0,1,3.34,4.38,20.16,20.16,0,0,1,1.78,4.68,34,34,0,0,1,.72,4.06c.13,1.23.22,2.34.3,3.37s.16,1.92.25,2.75a21.06,21.06,0,0,0,.36,2.12,8.69,8.69,0,0,0,.49,1.43,4.63,4.63,0,0,0,.55.85c.11.13.19.19.34.37l.74.72c.59.56,1.4,1.3,2.34,2.28a21.59,21.59,0,0,1,3,3.89,20.68,20.68,0,0,1,2.2,5.08,25.87,25.87,0,0,1,.75,9.7,32.83,32.83,0,0,1-1.77,7.65,42.73,42.73,0,0,1-2.87,6.09,33.77,33.77,0,0,1-4.07,5.67c-.85.9-1.7,1.78-2.63,2.63s-1.9,1.66-3,2.44c-4.12,3.05-9,5.68-14.19,6.5a21.17,21.17,0,0,1-7.47-.13c-2.26-.41-4.19-1-6-1.27a22.64,22.64,0,0,0-5.13-.28,17.23,17.23,0,0,0-4.92.91,11.21,11.21,0,0,0-3.89,2,5.69,5.69,0,0,0-1.78,2.77,6,6,0,0,0-.18,1.56,11.06,11.06,0,0,0,.32,1.85l.12.48.05.24.09.19c.13.24.19.48.33.72l.45.69c.2.23.38.45.56.68a23.15,23.15,0,0,0,7.78,4.9c3.27,1.42,6.93,2.57,11,4.09,2,.73,4,1.56,6.16,2.45,1.07.44,2.18.9,3.29,1.42s2.24,1.11,3.4,1.72a37.08,37.08,0,0,1,6.89,4.83c.57.49,1.1,1,1.63,1.58A19.59,19.59,0,0,1,545,263.5a31.65,31.65,0,0,1,2.69,3.86c.39.69.76,1.36,1.12,2.1a24.55,24.55,0,0,1,1.06,2.83,28,28,0,0,1,1,5.2,42,42,0,0,1,.23,4.22v1.72a6.33,6.33,0,0,0,0,.65v.55c0,1.57.21,3.5.3,5.47l.29,6.17c.06,2.13.08,4.32.06,6.55s-.17,4.56-.37,6.94a71.16,71.16,0,0,1-1.14,7.43,46.65,46.65,0,0,1-2.47,8.23,32.34,32.34,0,0,1-5.54,9.07,26.12,26.12,0,0,1-10.59,7.32,29.19,29.19,0,0,1-3.08.94c-1,.2-2,.41-3,.54s-1.91.15-2.87.2-1.78,0-2.68-.08c-.42,0-.92-.05-1.28-.09l-1.11-.13c-.71-.09-1.43-.2-2.09-.32-1.36-.23-2.57-.5-3.72-.77l-5.73-1.4c-.78-.18-1.45-.3-2.06-.41a18.22,18.22,0,0,0-1.91-.2c-6.63-.54-14.19.07-22.64.44-4.21.19-8.7.29-13.37.06l-1.36-.06c-.39,0-.78,0-1.17,0-.78,0-1.56,0-2.33,0a44,44,0,0,0-4.62.41,39,39,0,0,0-8.77,2.29l-.18.07-.13.06-.26.1-.55.28c-.4.24-.83.49-1.33.85a43.27,43.27,0,0,0-3.61,3c-1.44,1.29-3.14,2.87-5.21,4.52-1,.82-2.17,1.66-3.4,2.47-.33.23-.56.37-.8.52l-.72.45-1.46.89a76.14,76.14,0,0,1-13.06,6.34c-1.2.43-2.46.84-3.74,1.2-.66.18-1.29.36-2,.51l-1,.23-.9.18c-2.42.48-4.75.81-6.93,1.06-4.39.5-8.33.74-11.74,1.2a43.31,43.31,0,0,0-4.74.83,26.86,26.86,0,0,0-3.86,1.2,14.05,14.05,0,0,0-5.37,3.78,8.91,8.91,0,0,0-1.46,2.41c-.57,1.26-1.19,3-2,5.21a41.58,41.58,0,0,1-3.65,7.48c-1.29,2-2.61,3.83-3.9,5.57-2.59,3.46-5.06,6.51-7.09,9.39-1,1.45-1.92,2.84-2.7,4.21a43.57,43.57,0,0,0-2.18,4.43c-1.4,3.21-2.67,6.87-4.14,10.82a87.39,87.39,0,0,1-5.58,12.57,45.32,45.32,0,0,1-9.74,12.07,33,33,0,0,1-7.17,4.7,27.15,27.15,0,0,1-4.19,1.63,22.57,22.57,0,0,1-2.31.6l-1.3.24-1.38.14a19.42,19.42,0,0,1-5.77-.39,20.8,20.8,0,0,1-5.07-1.83,42.06,42.06,0,0,1-6.35-4.23l-1.09-.82-1.27-.92c-1.14-.83-2-1.59-2.68-2.13s-1.14-.9-1.38-1.07l-.22-.15s0,0,0,0a1.23,1.23,0,0,0,.2,0c.28,0,.14-.07-.45,0s-1.55.19-3.05.33a17.25,17.25,0,0,1-6.11-.46c-.32-.09-.64-.19-1-.3s-.58-.22-.76-.3l-1.19-.55a11.66,11.66,0,0,1-1.26-.69,13.56,13.56,0,0,1-1.29-.85,14.23,14.23,0,0,1-4.62-5.64,17,17,0,0,1-1.36-5.52c-.12-1.36-.14-2.32-.19-3a12,12,0,0,0-.18-1.41,7.83,7.83,0,0,0-1.3-2.58,16.68,16.68,0,0,0-3-2.87c-2.64-2.1-6.39-4.16-10.28-7.66a24.18,24.18,0,0,1-5.24-6.71,16.64,16.64,0,0,1-.91-2.07,16.88,16.88,0,0,1-.72-2.18,21.5,21.5,0,0,1-.63-4.28c-.11-2.61.08-4.73.1-6.41a10.06,10.06,0,0,0-.29-3.33,2.61,2.61,0,0,0-.14-.37,1.42,1.42,0,0,0-.26-.38,11.07,11.07,0,0,0-1.62-1.36c-.78-.58-1.77-1.27-2.87-2.25-.58-.51-1-1-1.5-1.5s-.92-1.06-1.33-1.64a19,19,0,0,1-2.12-3.75,19.56,19.56,0,0,1-1.19-4.06,23.4,23.4,0,0,1,0-7.75,51.8,51.8,0,0,1,4.12-12.71l2.52-5.54c.41-.9.78-1.77,1.14-2.65l1.08-2.71c1.35-3.5,2.16-6.88,1.48-9.36a4.72,4.72,0,0,0-2-2.94c-.66-.51-1.57-1.12-2.52-1.9a16.12,16.12,0,0,1-2.68-2.73,18.06,18.06,0,0,1-3.21-6.65,19.65,19.65,0,0,1-.58-3.58c0-.3,0-.6,0-.91s0-.76,0-1.13l.15-1,.21-.92a42.26,42.26,0,0,1,2.28-6.15c.84-1.9,1.72-3.74,2.57-5.56a63.64,63.64,0,0,0,4.25-10.76,10.61,10.61,0,0,0,.35-2.37,2.3,2.3,0,0,0-.18-1.09,0,0,0,0,1,0,0s0,0-.08-.06l-.36-.2c-.1-.1-.26-.1-.39-.16a2.45,2.45,0,0,0-.41-.12,5.05,5.05,0,0,0-1-.08h-.54l-.57.1a17,17,0,0,0-4.91,1.85,49.86,49.86,0,0,0-4.88,3.05,64.71,64.71,0,0,0-8.9,7.87c-2.79,2.89-5.35,6-8,9.19-1.35,1.59-2.71,3.19-4.22,4.78l-1.18,1.19-1.29,1.19c-.5.4-.91.8-1.49,1.2l-.85.61c-.32.21-.69.42-1,.62l-.52.27-.41.2-.83.41c-.55.28-1.12.49-1.68.73-1.14.45-2.29.84-3.44,1.17a40.8,40.8,0,0,1-6.93,1.31,54.08,54.08,0,0,1-13-.29l-1.52-.21-.84-.13-.91-.17-.92-.17-1-.23a18.28,18.28,0,0,1-2-.56l-1-.34c-.36-.14-.74-.31-1.11-.47a16.06,16.06,0,0,1-2.33-1.27,10.08,10.08,0,0,1-1.25-.95c-.21-.17-.41-.34-.61-.53s-.42-.45-.61-.68a10.19,10.19,0,0,1-1.92-3.24,10.4,10.4,0,0,1-.47-1.8A12.47,12.47,0,0,1,165,305c0-.5.05-1,.1-1.51s.15-.87.24-1.3a18.38,18.38,0,0,1,1.53-4.05,40.75,40.75,0,0,1,3.62-5.68c1.21-1.67,2.38-3.24,3.38-4.76a17.22,17.22,0,0,0,2-4.23,5.54,5.54,0,0,0,.14-.77,1.41,1.41,0,0,1,0-.29,4.29,4.29,0,0,0-.08-.53,6.19,6.19,0,0,0-.21-1.09,5.2,5.2,0,0,0-.31-1A5.92,5.92,0,0,0,173,276.9c-2.37-1.45-6.13-1.8-9.87-1.62a112.14,112.14,0,0,0-11.69,1.39c-2,.3-4,.61-6.12.84-1,.12-2.12.21-3.21.26-.57,0-1.11,0-1.7,0l-.86,0-.54,0c-.82,0-1.84.12-3,.15a10.72,10.72,0,0,1-4-.56,10.54,10.54,0,0,1-3.33-2.21c-.83-.78-1.5-1.5-2.13-2.06a7,7,0,0,0-.89-.68l-.2-.13-.32-.16-.62-.33c-.84-.42-1.73-.83-2.63-1.23-1.82-.82-3.74-1.63-5.67-2.67a18,18,0,0,1-5.44-4.3,13.58,13.58,0,0,1-2.86-6.66,15.37,15.37,0,0,1,.67-7.14,13.12,13.12,0,0,1,4.28-6.07,18,18,0,0,1,3.12-1.8l2.74-1.31a21.57,21.57,0,0,0,2.33-1.29,5.6,5.6,0,0,0,1.42-1.29,1.25,1.25,0,0,0,.13-.84,2.41,2.41,0,0,0-.53-1.14,4.94,4.94,0,0,0-3-1.59,13.37,13.37,0,0,0-2.18-.07,22.64,22.64,0,0,0-2.52.29A36.84,36.84,0,0,0,109.1,236a112,112,0,0,0-10.73,4.47,84.5,84.5,0,0,1-12.13,4.72A36.45,36.45,0,0,1,79,246.42a29.29,29.29,0,0,1-8-.54A29.69,29.69,0,0,1,63.38,243a33.4,33.4,0,0,1-6.34-4.5A59.81,59.81,0,0,1,47.79,228c-1.27-1.81-2.42-3.51-3.59-5.32a26.43,26.43,0,0,1-2.11-4,17.79,17.79,0,0,1-.93-2.91,17.31,17.31,0,0,1-.39-3.45,16.77,16.77,0,0,1,1.3-6.54,18.81,18.81,0,0,1,3.11-5A20.69,20.69,0,0,1,54,194.69a27.74,27.74,0,0,1,9-1.54,53.08,53.08,0,0,1,7.24.5l3,.38c1,.12,1.9.22,2.84.32,1.89.21,3.75.35,5.59.46a68.19,68.19,0,0,0,10.64-.16,39.09,39.09,0,0,0,9.54-2c.72-.29,1.47-.53,2.14-.88l1-.48,1-.55a29.19,29.19,0,0,0,4-2.68c2.71-2.13,5.63-4.93,9.16-7.74a49.55,49.55,0,0,1,5.82-4.11A43.12,43.12,0,0,1,131.5,173a44.64,44.64,0,0,1,28.24-1.62,57.26,57.26,0,0,1,12.44,5.27c3.73,2.05,7.15,4.19,10.51,6.06,1.68.92,3.35,1.79,5,2.55a45.53,45.53,0,0,0,5.11,1.94,63.77,63.77,0,0,0,11.11,2.3c3.86.49,7.82.76,11.84,1s7.89.5,11.43-.08a20.83,20.83,0,0,0,9.75-4.53,114.36,114.36,0,0,0,8.75-8.09c.74-.71,1.51-1.41,2.31-2.07s1.56-1.36,2.36-2c1.67-1.22,3.27-2.52,5-3.59a76.35,76.35,0,0,1,10.77-5.85,92.22,92.22,0,0,1,23.23-7A72.1,72.1,0,0,1,313,157.33Zm1.34.17-.79-.09a73.69,73.69,0,0,0-12.05-.55c-1,0-2,.12-3,.2s-2,.12-3,.29c-2,.29-4,.53-5.92,1A78.88,78.88,0,0,0,278,161.45c-1.86.7-3.73,1.35-5.55,2.15s-3.66,1.55-5.47,2.37a69.66,69.66,0,0,0-10.25,6c-1.67,1.09-3.16,2.4-4.72,3.62-.75.65-1.47,1.33-2.2,2s-1.45,1.35-2.15,2.07c-2.79,2.85-5.49,5.92-8.65,8.6a29.71,29.71,0,0,1-5.12,3.58A21.37,21.37,0,0,1,228,194c-4.12.87-8.25.73-12.27.68s-8.09-.14-12.15-.45a70.67,70.67,0,0,1-12.07-1.9,51.42,51.42,0,0,1-5.83-1.88c-1.9-.75-3.75-1.6-5.57-2.5-7.25-3.57-14.13-8-22-9.82a37.93,37.93,0,0,0-23.5,2.1,38.65,38.65,0,0,0-10.11,6.41c-3.07,2.61-5.91,5.49-9,8.07A37.49,37.49,0,0,1,105.13,201a45.59,45.59,0,0,1-11.78,2.81c-8.06.91-16.18.2-24.17-.79-4-.47-8.14-.8-12,.57a11.86,11.86,0,0,0-4.94,3.38A8.48,8.48,0,0,0,50,212.42a10.84,10.84,0,0,0,2,5.64c1.05,1.72,2.1,3.45,3.2,5.14a54.49,54.49,0,0,0,7.51,9.47A24.24,24.24,0,0,0,73,238.84a26,26,0,0,0,12,.07c7.92-1.67,15.22-5.4,23.09-7.27a41.54,41.54,0,0,1,6-1,18.45,18.45,0,0,1,6,.27,8.31,8.31,0,0,1,4.89,3.33,5.57,5.57,0,0,1,.92,2.85,4.46,4.46,0,0,1-.91,2.81,13.28,13.28,0,0,1-5,3.3l-2.77,1.2a13.94,13.94,0,0,0-2.66,1.44,11.54,11.54,0,0,0-4.16,10.78,11.21,11.21,0,0,0,2.31,5.52,15.55,15.55,0,0,0,4.74,3.7c1.78,1,3.65,1.73,5.5,2.52.93.4,1.85.81,2.76,1.25.45.24.91.44,1.34.7a10.68,10.68,0,0,1,1.23.89c1.53,1.28,2.82,3,4.74,3.69s4,.19,6,.13c4.05.18,8.05-.62,12-1.28A118.31,118.31,0,0,1,163,272a33,33,0,0,1,6,.09,15.53,15.53,0,0,1,5.76,1.74,9.71,9.71,0,0,1,4,4.36,8.89,8.89,0,0,1,.56,1.4,9.59,9.59,0,0,1,.4,1.46,7.23,7.23,0,0,1,.13,3,19.47,19.47,0,0,1-2,5.67c-.92,1.8-2,3.54-3,5.28a51.54,51.54,0,0,0-2.81,5.36,13.27,13.27,0,0,0-.93,2.88,5.31,5.31,0,0,0,.19,3,4.82,4.82,0,0,0,2,2.2,7.44,7.44,0,0,0,1.37.64,8,8,0,0,0,1.44.45,34.57,34.57,0,0,0,6,.77,92.17,92.17,0,0,0,12.1.27A35.81,35.81,0,0,0,206,308.1a25.84,25.84,0,0,0,5-3.32c1.58-1.26,3.11-2.58,4.62-3.91l9-8.07c3-2.66,6.11-5.27,9.38-7.65a48.48,48.48,0,0,1,5.09-3.28,19.49,19.49,0,0,1,5.61-2.19l.75-.13.75,0a6.93,6.93,0,0,1,1.51.1,5.54,5.54,0,0,1,2.69,1.29,4.19,4.19,0,0,1,.91,2.81,12.64,12.64,0,0,1-.37,3A70.85,70.85,0,0,1,246.82,298c-.81,1.85-1.63,3.69-2.4,5.56a39.83,39.83,0,0,0-2,5.71,8.21,8.21,0,0,0-.21,3,16.63,16.63,0,0,0,.54,3,15,15,0,0,0,2.71,5.37,19.32,19.32,0,0,0,4.64,3.84,10.24,10.24,0,0,1,2.21,2.05,8.86,8.86,0,0,1,1.36,2.69,14,14,0,0,1,.36,6,32.91,32.91,0,0,1-1.49,5.86c-1.27,3.84-2.9,7.54-4.4,11.28a48.13,48.13,0,0,0-3.35,11.6,18.49,18.49,0,0,0,.16,6,13.75,13.75,0,0,0,.93,2.87,13.53,13.53,0,0,0,1.56,2.58,15.47,15.47,0,0,0,2.09,2.19,28.9,28.9,0,0,0,2.45,1.78,20.3,20.3,0,0,1,2.41,1.82,8.31,8.31,0,0,1,1.8,2.41,9.68,9.68,0,0,1,.91,2.88,19,19,0,0,1,.28,3c.06,2,0,4,.13,6.06a14.22,14.22,0,0,0,.52,3,8.94,8.94,0,0,0,.52,1.42,10,10,0,0,0,.64,1.37,16.91,16.91,0,0,0,3.86,4.61c3.07,2.63,6.7,4.5,10,6.81a26.52,26.52,0,0,1,4.56,4,15.92,15.92,0,0,1,3,5.2,26.73,26.73,0,0,1,.94,6,9.79,9.79,0,0,0,.73,2.92,5.61,5.61,0,0,0,1.94,2.27,10,10,0,0,0,2.72,1.3,8.39,8.39,0,0,0,3,.12c2-.22,4-.74,6-.37a12.91,12.91,0,0,1,5.32,2.78c.8.62,1.58,1.25,2.41,1.83s1.67,1.13,2.49,1.73a35.71,35.71,0,0,0,5.08,3.27,10.61,10.61,0,0,0,5.85,1.15,20.24,20.24,0,0,0,10.74-5.17,34.94,34.94,0,0,0,7.38-9.52c3.84-7.13,5.72-15.08,8.77-22.55a58.06,58.06,0,0,1,2.54-5.49c1-1.78,2-3.5,3.14-5.18,2.25-3.35,4.73-6.55,7.08-9.83,1.18-1.64,2.32-3.3,3.39-5a30.62,30.62,0,0,0,2.54-5.48c1.37-3.77,2.5-7.76,5.07-10.94a25.62,25.62,0,0,1,9.51-7.33,45.49,45.49,0,0,1,11.64-3.2c4-.63,8-1,12-1.48a50.43,50.43,0,0,0,11.78-2.66,63.1,63.1,0,0,0,10.81-5.41,42.77,42.77,0,0,0,5-3.44c1.57-1.27,3-2.65,4.52-4,2.94-2.74,6-5.46,9.82-7A51.64,51.64,0,0,1,454.52,328a57.38,57.38,0,0,1,12.07-.63c4,.15,8.08,0,12.11-.21,8.05-.44,16.12-1.25,24.19-.75,4.06.14,8,1.29,11.9,2.17a36.62,36.62,0,0,0,6,.92,14,14,0,0,0,5.94-.8,12,12,0,0,0,4.89-3.44,18.52,18.52,0,0,0,3.07-5.17,43.57,43.57,0,0,0,2.64-11.78c.86-8,.4-16.13.61-24.2.1-2,.3-4,.21-6a14.58,14.58,0,0,0-1.37-5.85,23.76,23.76,0,0,0-7.59-9.25c-6.51-4.86-14.34-7.35-21.42-11.21-3.51-2-6.95-4.29-9.3-7.61a12.18,12.18,0,0,1-2.12-5.62,15.22,15.22,0,0,1-.13-3,11.46,11.46,0,0,1,.7-2.94,10.82,10.82,0,0,1,3.68-4.7,16.74,16.74,0,0,1,5.46-2.55,23.71,23.71,0,0,1,6-.9,27.15,27.15,0,0,1,6,.44c2,.36,3.93.91,5.92,1.26a16.87,16.87,0,0,0,6,.11,14.24,14.24,0,0,0,5.56-2.29,20.43,20.43,0,0,0,4.38-4.13,45.46,45.46,0,0,0,6-10.47,51.28,51.28,0,0,0,3.82-11.46,15.29,15.29,0,0,0-.14-6,11.65,11.65,0,0,0-2.94-5.2,41.15,41.15,0,0,1-4-4.5,14.54,14.54,0,0,1-2.18-5.61c-.75-4-.3-8.09-1.16-12a10.36,10.36,0,0,0-2.78-5.26,13,13,0,0,0-5.19-3,29.83,29.83,0,0,0-12-1.06c-4,.33-8,1-12,1.47a47.08,47.08,0,0,1-6.05.32l-6.06-.13c-4,0-8.07,0-12.11.05-8.07.15-16.14.17-24.22.18l-48.45.12Z"/><path d="M103.82,278.72a5.77,5.77,0,0,0-1.85-1.29,3.32,3.32,0,0,0-2.19-.23,3.1,3.1,0,0,0-1.7,1.32,7.35,7.35,0,0,0-.9,2,19.24,19.24,0,0,0,0,8.77,17.89,17.89,0,0,0,1.33,4,6.65,6.65,0,0,0,1,1.48l.25.22c.08.06.15.08.21.13s.11,0,.15,0l.35.11a11.87,11.87,0,0,0,3.67.14c1.47-.1,2.94-.19,4.4-.32s2.9-.27,4.31-.46a25.89,25.89,0,0,0,4-.8c.32-.08.52-.21.8-.3a1.79,1.79,0,0,0,.31-.15,1.16,1.16,0,0,0,.26-.14.87.87,0,0,1,.18-.11s0,.1,0,0a.37.37,0,0,0,.09-.2,1.39,1.39,0,0,0,.06-.33,9.64,9.64,0,0,0-.68-3.82,10.86,10.86,0,0,0-.91-1.84,4.36,4.36,0,0,0-1.36-1.42,24.17,24.17,0,0,0-3.88-2.23c-1.37-.65-2.78-1.26-4.13-2A19,19,0,0,1,103.82,278.72Zm0,0a14.79,14.79,0,0,0,3.83,2.43,39.74,39.74,0,0,0,4.3,1.5,31.11,31.11,0,0,1,4.39,1.56,9.64,9.64,0,0,1,1.12.6,5.68,5.68,0,0,1,1,.85,13.12,13.12,0,0,1,3.55,6.8,4.08,4.08,0,0,1,0,.8,3.6,3.6,0,0,1-.12.93,3.76,3.76,0,0,1-.42,1.06c-.18.26-.37.5-.57.74a8,8,0,0,1-2.47,1.8,20.8,20.8,0,0,1-4.81,1.58,39.2,39.2,0,0,1-4.74.68c-1.57.12-3.13.17-4.7.15a13.29,13.29,0,0,1-5.32-.93c-.24-.11-.46-.22-.7-.35a8.37,8.37,0,0,1-.81-.58c-.21-.21-.43-.43-.62-.65l-.47-.66a10.28,10.28,0,0,1-1.06-2.58,19.15,19.15,0,0,1-.53-4.92,27.59,27.59,0,0,1,.46-4.74,19.7,19.7,0,0,1,1.35-4.51,9.4,9.4,0,0,1,1.24-2,3.64,3.64,0,0,1,2-1.25,3.57,3.57,0,0,1,2.25.36A5.86,5.86,0,0,1,103.82,278.72Z"/><path d="M129.41,298.45a11.08,11.08,0,0,0,2.36,1.89,9.48,9.48,0,0,1,2.24,2.05,50.17,50.17,0,0,1,3.18,5.17,8.13,8.13,0,0,0,4.06,3.8,5.46,5.46,0,0,0,4.87-1,6.78,6.78,0,0,0,1.71-1.84,9.31,9.31,0,0,0,1-2.36,16.1,16.1,0,0,0,.44-5.36,14.19,14.19,0,0,1,0-1.75,5.58,5.58,0,0,1,.65-2.3,5.86,5.86,0,0,1,1.55-1.87,7.81,7.81,0,0,1,1.73-1.09c1.09-.53,2.06-.88,2.82-1.24a3.67,3.67,0,0,0,1.51-1,1.7,1.7,0,0,0,.36-1.2,3.9,3.9,0,0,0-.46-1.74,4.52,4.52,0,0,0-.52-.77c-.1-.13-.21-.22-.31-.33a4.88,4.88,0,0,0-.41-.32,7.48,7.48,0,0,0-2.06-1c-3.2-1-7.35-.75-11.27-.41a32.46,32.46,0,0,0-11.48,2.92,10.14,10.14,0,0,0-2.38,1.73,5.14,5.14,0,0,0-1.44,2.54,5.2,5.2,0,0,0,.32,2.94A11,11,0,0,0,129.41,298.45Zm0,0a10.77,10.77,0,0,1-1.58-2.57,5.56,5.56,0,0,1-.46-3,5.82,5.82,0,0,1,1.33-2.77,12.26,12.26,0,0,1,2.31-2.06,27.81,27.81,0,0,1,5.5-2.84,52.64,52.64,0,0,1,5.88-2,55.54,55.54,0,0,1,6.1-1.33,20.58,20.58,0,0,1,6.69,0,10.94,10.94,0,0,1,3.5,1.32c.28.17.55.35.83.55a9.11,9.11,0,0,1,.8.7,8.11,8.11,0,0,1,1.29,1.64,8.44,8.44,0,0,1,1.24,4,6.81,6.81,0,0,1-1.41,4.46,8.63,8.63,0,0,1-3.42,2.42c-1.09.46-2,.74-2.78,1.07a3.1,3.1,0,0,0-1.3.83,1.24,1.24,0,0,0-.23.58,8.83,8.83,0,0,0-.12,1.27,19.21,19.21,0,0,1-1.49,6.56,12.34,12.34,0,0,1-1.88,2.94,9.66,9.66,0,0,1-2.8,2.16,7.55,7.55,0,0,1-6.74.27,7,7,0,0,1-2.51-2.15,15.42,15.42,0,0,1-1.56-2.71,35.38,35.38,0,0,0-2.73-5.39,8.93,8.93,0,0,0-2.13-2.12A11,11,0,0,1,129.41,298.45Z"/><path d="M109.83,337.28c-1.32.82-1.62,2.44-2.49,3.63a8.52,8.52,0,0,1-3.45,2.75,15.57,15.57,0,0,1-4.29,1.2,36.94,36.94,0,0,1-4.45.29c-2.94.07-6,.14-8.59,1.39a8.86,8.86,0,0,0-3.22,2.73,5.54,5.54,0,0,0-1.14,3.83,4.89,4.89,0,0,0,2,3.34A11.28,11.28,0,0,0,88,358.21c2.74.74,5.76,1.2,8.25.31a10.08,10.08,0,0,0,1.8-.95,11.63,11.63,0,0,0,1.63-1.26c.53-.46.9-1,1.68-1.6a3.7,3.7,0,0,1,2.86-.79,3.64,3.64,0,0,1,2.49,1.76,5.6,5.6,0,0,1,.78,2.65c0,.9-.09,1.66,0,2.23a1.37,1.37,0,0,0,.5,1.12,3.83,3.83,0,0,0,3.18.53l4.41-.63q4.4-.65,8.82-1.17c2.94-.33,5.69-.6,8-1.88a8.66,8.66,0,0,0,2.9-2.33,2.56,2.56,0,0,0,.52-1.39,2.28,2.28,0,0,0-.28-1.38,5.48,5.48,0,0,0-3.11-1.77c-1.36-.4-2.83-.67-4.3-1a9.72,9.72,0,0,1-4.31-2,3.9,3.9,0,0,1-1.14-2.24,10.65,10.65,0,0,1,0-2.32,6.62,6.62,0,0,0-.59-4.17,4.72,4.72,0,0,0-1.54-1.47,10,10,0,0,0-2-1,14.43,14.43,0,0,0-4.31-.92A8.23,8.23,0,0,0,109.83,337.28Zm0,0a8.15,8.15,0,0,1,4.33-.77,17.24,17.24,0,0,1,4.38.79,11.09,11.09,0,0,1,2.06.9,5.07,5.07,0,0,1,1.73,1.5,5,5,0,0,1,.86,2.15,16,16,0,0,1,.13,2.27c0,1.45.18,2.94,1.19,3.69a8.58,8.58,0,0,0,3.86,1.29c1.44.22,2.92.35,4.45.64a12.92,12.92,0,0,1,2.34.66,5.54,5.54,0,0,1,2.25,1.63,4.65,4.65,0,0,1,.91,2.83,5.23,5.23,0,0,1-.78,2.8,10.51,10.51,0,0,1-3.73,3.47,15.74,15.74,0,0,1-4.54,1.83,38.65,38.65,0,0,1-4.56.71q-4.42.48-8.86.84l-4.44.38a8.54,8.54,0,0,1-2.6-.09,5,5,0,0,1-2.59-1.33,3.72,3.72,0,0,1-.9-1.34,4.08,4.08,0,0,1-.27-1.52c0-.92.15-1.63.14-2.21a3.55,3.55,0,0,0-.38-1.59,1.5,1.5,0,0,0-1-.81,1.67,1.67,0,0,0-1.31.35c-.41.27-1,.91-1.59,1.41A13.92,13.92,0,0,1,99,359.14a12.53,12.53,0,0,1-2.18,1,11.4,11.4,0,0,1-4.76.37,23.28,23.28,0,0,1-4.48-1,12.29,12.29,0,0,1-4.14-2.14,6,6,0,0,1-2.28-4.19,6.52,6.52,0,0,1,1.48-4.45,9.63,9.63,0,0,1,3.62-2.84c2.86-1.23,5.94-1.14,8.89-1.13s6,0,8.7-1.21a8.09,8.09,0,0,0,3.46-2.68C108.19,339.72,108.51,338.09,109.83,337.28Z"/><path d="M184.28,334.3a7,7,0,0,0-4.54-2.06,9.9,9.9,0,0,0-5,.91c-3.09,1.49-5.27,4.24-7.21,7-3.86,5.62-7.63,11.32-11.39,17a35.39,35.39,0,0,1-6.82,8.2A17.42,17.42,0,0,1,147,367a20.71,20.71,0,0,1-2.54,1.2,18.43,18.43,0,0,0-4.1,2,10.53,10.53,0,0,0-2.62,3.27l-.29.52c-.12.21-.27.45-.39.64l-.7,1.11c-.45.7-.88,1.38-1.19,2a3.05,3.05,0,0,0-.28.66s0,0,0,0l0,0s0,0,0,0a.16.16,0,0,0,0-.1c0-.05,0-.15-.1-.18s-.06-.06,0,0a.43.43,0,0,0,.17.08,1.27,1.27,0,0,0,.32.12,11.26,11.26,0,0,0,2,.37c.79.09,1.61.13,2.63.27a9.12,9.12,0,0,1,3.22,1.12,16.7,16.7,0,0,1,2.47,1.71,28.58,28.58,0,0,0,3.64,2.86,4.33,4.33,0,0,0,3,.65c.34-.11.51-.19,1-.82.26-.29.57-.69,1-1.11a5.87,5.87,0,0,1,1.63-1.13,11.65,11.65,0,0,1,2.93-.81,4,4,0,0,0,1.62-.56,11,11,0,0,0,2.7-3.38q2.79-4.38,5.92-8.5c2.07-2.75,4.26-5.41,6.52-8,1.12-1.29,2.29-2.57,3.44-3.82a32.6,32.6,0,0,0,3.14-4,33.54,33.54,0,0,0,2.53-4.39,20.32,20.32,0,0,0,1.67-4.79,12.5,12.5,0,0,0,.12-5.06A10.09,10.09,0,0,0,184.28,334.3Zm0,0a10.08,10.08,0,0,1,2.33,4.5,12.88,12.88,0,0,1,0,5.1,23.1,23.1,0,0,1-1.47,4.93,33.58,33.58,0,0,1-2.32,4.6,43.61,43.61,0,0,1-2.9,4.29c-1.05,1.35-2.08,2.69-3.09,4.06-2,2.75-3.86,5.59-5.62,8.47s-3.41,5.85-5,8.84a14.3,14.3,0,0,1-3.36,4.77,7,7,0,0,1-1.53.94,11.87,11.87,0,0,1-1.51.52,9.68,9.68,0,0,0-2,.63,1.46,1.46,0,0,0-.44.36c-.16.18-.38.47-.66.83a8.67,8.67,0,0,1-1.14,1.26,6,6,0,0,1-1.76,1.05,7.06,7.06,0,0,1-3.73.36,10.51,10.51,0,0,1-3.12-1,14.82,14.82,0,0,1-2.53-1.68l-2-1.6a6.93,6.93,0,0,0-3.33-1.74c-.67-.11-1.55-.17-2.45-.28a16.46,16.46,0,0,1-3-.6,6.47,6.47,0,0,1-.87-.34A5.85,5.85,0,0,1,132,382a5.94,5.94,0,0,1-1-.88,4.59,4.59,0,0,1-.71-1.3c-.07-.24-.14-.48-.19-.72a5,5,0,0,1,0-.66c0-.22,0-.43,0-.65a5.32,5.32,0,0,1,.13-.67,7.76,7.76,0,0,1,.73-1.68c1-1.8,2.1-3,2.92-4.38a14.68,14.68,0,0,1,4.06-4.39,19.59,19.59,0,0,1,5.22-2.15,14.81,14.81,0,0,0,4.14-1.93,33.79,33.79,0,0,0,6.9-6.88c4.32-5.3,8.6-10.61,12.83-16,2.1-2.67,4.51-5.33,7.69-6.73a10.35,10.35,0,0,1,5-.8A7,7,0,0,1,184.28,334.3Z"/><path d="M136.21,390.44c-2.14-1.27-4.65-1.39-7.07-1.52a11.16,11.16,0,0,0-1.75,0,7,7,0,0,0-4.13,2.54,8.21,8.21,0,0,0-1.89,5.53,5.54,5.54,0,0,0,.75,2.26l.36.44a2,2,0,0,0,.18.23l.23.2c.16.13.3.27.45.41a4.59,4.59,0,0,0,.51.35,10,10,0,0,0,5.45,1.2,22.86,22.86,0,0,0,6.63-1.11,7.78,7.78,0,0,0,2.77-1.67,3.76,3.76,0,0,0,1.14-3,8.41,8.41,0,0,0-3.63-5.93Zm0,0a8.4,8.4,0,0,1,2.63,2.51,9,9,0,0,1,1.68,3.33,5.21,5.21,0,0,1-.59,3.93,10.1,10.1,0,0,1-2.78,3,19.58,19.58,0,0,1-3.48,2,22.56,22.56,0,0,1-3.78,1.23,11.74,11.74,0,0,1-8.67-1.24,9.86,9.86,0,0,1-3.32-3.55,9,9,0,0,1-.83-4.8,10.25,10.25,0,0,1,1.58-4.18,11.27,11.27,0,0,1,3-3,9.27,9.27,0,0,1,3.75-1.58,9.54,9.54,0,0,1,2-.15c.65.1,1.32.18,1.89.33C131.6,388.82,134.1,389.17,136.21,390.44Z"/><path d="M142.11,410.58c-2.59,2.12-4.54,4.9-7.13,7a13.49,13.49,0,0,1-4.39,2.46c-1.59.56-3.23.93-4.76,1.52a9.92,9.92,0,0,0-2.16,1.08,6,6,0,0,0-1.59,1.67,4.46,4.46,0,0,0-.7,4.11,2.61,2.61,0,0,0,1.39,1.28,9.09,9.09,0,0,0,2.21.51,47,47,0,0,0,4.87.5,51.34,51.34,0,0,0,19.08-2.69,47.36,47.36,0,0,0,4.47-1.72,14.89,14.89,0,0,1,5.64-1.65,7.06,7.06,0,0,1,3.66.93,8.59,8.59,0,0,1,2.54,2.32,45.5,45.5,0,0,0,2.72,3.82c1.4,1.55,4.34,1.9,7.52,1.8a25.47,25.47,0,0,0,4.49-.37,6.9,6.9,0,0,0,1.78-.62,4.32,4.32,0,0,0,1.32-1,3.69,3.69,0,0,0,.76-1.31,2.44,2.44,0,0,0,.1-.65,7,7,0,0,0-.13-.81,22,22,0,0,0-1.79-4.2,67.58,67.58,0,0,0-5.2-8.3c-1-1.32-2-2.63-3.05-3.85a17.23,17.23,0,0,0-3.48-3.26,19.2,19.2,0,0,0-4.37-2,25.34,25.34,0,0,0-4.82-1,31.39,31.39,0,0,0-9.9.48A22.37,22.37,0,0,0,142.11,410.58Zm0,0a23.89,23.89,0,0,1,9-4.18,33,33,0,0,1,10-1,32.19,32.19,0,0,1,5,.66,20.29,20.29,0,0,1,4.85,1.8A19.86,19.86,0,0,1,175.2,411c1.26,1.17,2.43,2.41,3.57,3.67a69.53,69.53,0,0,1,6.28,8.11,24.9,24.9,0,0,1,2.51,4.83,8.45,8.45,0,0,1,.4,1.63,6.36,6.36,0,0,1-.08,1.85,7.27,7.27,0,0,1-1.44,3.13,8.79,8.79,0,0,1-2.47,2.2,11.36,11.36,0,0,1-2.86,1.21,25.06,25.06,0,0,1-5.45.75,23.54,23.54,0,0,1-5.56-.24,10.59,10.59,0,0,1-5.72-2.91,36.5,36.5,0,0,1-3.09-4.32,4.41,4.41,0,0,0-1.07-1.09,2,2,0,0,0-1.14-.32,11.94,11.94,0,0,0-3.94,1.05,49.48,49.48,0,0,1-15.25,3.21,52,52,0,0,1-10.29-.54c-1.7-.26-3.37-.61-5-1a11.26,11.26,0,0,1-2.58-.91,4.35,4.35,0,0,1-2-2.27,4.62,4.62,0,0,1,0-2.89,7.43,7.43,0,0,1,3.26-4.18,13.07,13.07,0,0,1,2.39-1c1.62-.52,3.27-.79,4.86-1.25a12.3,12.3,0,0,0,4.41-2.21C137.52,415.45,139.51,412.68,142.11,410.58Z"/><path d="M224.49,331.77c-2,1.57-3,4.09-3.5,6.49a20.21,20.21,0,0,0-.44,3.71,8.06,8.06,0,0,0,.7,3.46,6,6,0,0,0,2,2.61,4.25,4.25,0,0,0,.64.32,1.61,1.61,0,0,0,.58.1,1.42,1.42,0,0,0,.91-.46,15.34,15.34,0,0,0,1.92-2.83,8.41,8.41,0,0,1,1.36-1.72,9.62,9.62,0,0,1,1.77-1.28c.59-.34,1.13-.62,1.63-.91s1-.63,1.48-1a16.07,16.07,0,0,0,2.65-2.25,7.29,7.29,0,0,0,1.7-2.76,3.88,3.88,0,0,0-.29-3.05A5.41,5.41,0,0,0,235,330a8.39,8.39,0,0,0-3.56-.71A12.2,12.2,0,0,0,224.49,331.77Zm0,0a14.53,14.53,0,0,1,6.95-2.85,10,10,0,0,1,3.87.32,6.59,6.59,0,0,1,3.38,2.26,5.38,5.38,0,0,1,1,4.18,8.65,8.65,0,0,1-1.76,3.86,16,16,0,0,1-2.89,2.86c-.54.4-1.07.78-1.65,1.15s-1.15.66-1.66.95a6.09,6.09,0,0,0-2.31,2.11,15.18,15.18,0,0,1-2.61,3.18,3.48,3.48,0,0,1-2.55.77,4,4,0,0,1-1.24-.38,5.72,5.72,0,0,1-1-.66,7.31,7.31,0,0,1-2.07-3.66,9.35,9.35,0,0,1-.24-4,25.84,25.84,0,0,1,.89-3.72,18,18,0,0,1,1.46-3.5A9.09,9.09,0,0,1,224.49,331.77Z"/><path d="M216.46,352.61a7.66,7.66,0,0,0-3.54,1.41,5.44,5.44,0,0,0-1.95,2.43,3.36,3.36,0,0,0,.83,4.19,2.43,2.43,0,0,0,1.71.57,3.69,3.69,0,0,1,.5-.1,3,3,0,0,1,.55-.23,12.2,12.2,0,0,0,1.07-.74,4,4,0,0,0,1.11-2.57,4.61,4.61,0,0,0-1.05-3.45,4.54,4.54,0,0,1,3.46,3,6.21,6.21,0,0,1-.23,5.21,8.51,8.51,0,0,1-1.75,2.14c-.38.29-.77.57-1.18.83s-.93.4-1.41.57a10.1,10.1,0,0,1-1.56.22,7.47,7.47,0,0,1-1.57-.16,7,7,0,0,1-2.76-1.34,7.29,7.29,0,0,1-2.71-5.12,7.08,7.08,0,0,1,1.76-5.2C210,351.44,214.06,350.91,216.46,352.61Z"/><path d="M204.23,388c-.5,1.74.06,3.54-.24,5.33a10.13,10.13,0,0,1-2.62,4.7,24.7,24.7,0,0,0-3.22,4.11,4.52,4.52,0,0,0-.47,4.21,4.31,4.31,0,0,0,3.28,2,18.92,18.92,0,0,0,4.79.18,4.1,4.1,0,0,0,1.68-.34c.11-.09.15-.12.16-.2a1.52,1.52,0,0,0,.09-.28,8.3,8.3,0,0,0-.06-1.86,22.31,22.31,0,0,1-.14-3c0-.3.08-.64.13-1a7.07,7.07,0,0,1,.31-1.06,5,5,0,0,1,.55-1.05l.35-.5.38-.39a6.64,6.64,0,0,1,3.62-1.83,20.22,20.22,0,0,1,2.93-.23,6.91,6.91,0,0,0,1.89-.25c1.82-.25,2.83-4.28,2.48-7.3a4.48,4.48,0,0,0-.66-2.07,5.63,5.63,0,0,0-1.61-1.66,11.26,11.26,0,0,0-4.77-1.68,10.88,10.88,0,0,0-5.18.55A5.89,5.89,0,0,0,204.23,388Zm0,0a6.38,6.38,0,0,1,3.6-3.76,13.2,13.2,0,0,1,5.29-1.07,13,13,0,0,1,5.46,1.05A7.74,7.74,0,0,1,221,386a5.07,5.07,0,0,1,.94,1.31,8.3,8.3,0,0,1,.59,1.43,14.57,14.57,0,0,1,.57,5.92,8.9,8.9,0,0,1-.95,3.21,5,5,0,0,1-.52.8,5.92,5.92,0,0,1-.62.72,6.39,6.39,0,0,1-1.59,1.15,10.06,10.06,0,0,1-3.29.93c-1,.12-1.79.21-2.37.35a2,2,0,0,0-1.06.56l-.09.09a.08.08,0,0,1,0,.05s0,.09-.06.13,0,.15-.06.22l0,.36a16.57,16.57,0,0,0,.09,2.3,10.72,10.72,0,0,1-.22,3.45,5.29,5.29,0,0,1-3.05,3.49,8.11,8.11,0,0,1-3.57.44,20.83,20.83,0,0,1-5.78-1.16,9.25,9.25,0,0,1-2.78-1.64,5.94,5.94,0,0,1-1.83-2.9,5.66,5.66,0,0,1,.11-3.27,8.73,8.73,0,0,1,1.47-2.59,28.56,28.56,0,0,1,4-3.76,8.63,8.63,0,0,0,2.92-4.25C204.23,391.61,203.71,389.76,204.23,388Z"/><path d="M191.07,392.81a22.46,22.46,0,0,1,1.76-6.52,23.29,23.29,0,0,1,1.6-3.05c.61-1,1.31-1.9,1.83-2.77a4.56,4.56,0,0,0,.87-2.4,2.48,2.48,0,0,0-1-1.78,8.54,8.54,0,0,0-2.31-1.39,11.26,11.26,0,0,0-2.74-.76,11.08,11.08,0,0,0-10,3.5,10.37,10.37,0,0,0-2.36,4.77,9.3,9.3,0,0,0-.14,2.57,9.06,9.06,0,0,0,.64,2.56c.35.93.82,2,1.2,3.2a30.27,30.27,0,0,1,.93,3.48,32.47,32.47,0,0,1,.52,3.54c.06.59.09,1.19.12,1.79l0,.89c0,.31,0,.56,0,1a14.05,14.05,0,0,1-.33,1.94c-.12.55-.23,1-.29,1.46a4.45,4.45,0,0,0,0,.86c0,.11-.11-.11-.2-.12a2.25,2.25,0,0,0,.81.23c.45.07,1,.11,1.55.17.29,0,.61.07,1,.13s.66.15.82.18.22,0,.2.06-.1.05-.1.07.21-.15.37-.51c.08-.18.16-.39.25-.62l.27-.78c.36-1.05.72-2.1,1.11-3.14l2.29-6.26c1.6-4.15,3.18-8.3,5-12.39-.74,4.41-1.69,8.75-2.63,13.09l-1.51,6.49c-.25,1.09-.53,2.16-.79,3.24l-.21.81c-.08.3-.17.61-.29.95a4.91,4.91,0,0,1-1.47,2.21,3.61,3.61,0,0,1-1.59.75,4.89,4.89,0,0,1-1.46,0c-.39,0-.74-.11-.83-.11l-.67,0c-.52,0-1.12,0-1.78-.08a6.49,6.49,0,0,1-2.38-.61l-.37-.21-.39-.3a5.77,5.77,0,0,1-.64-.67,4.48,4.48,0,0,1-.7-1.54,6.77,6.77,0,0,1-.13-2.44c.07-.68.18-1.28.27-1.82a9.91,9.91,0,0,0,.17-1.34l0-.63,0-.76c0-.51-.08-1-.14-1.53a30.24,30.24,0,0,0-.53-3,25.86,25.86,0,0,0-.82-2.93c-.31-.95-.72-1.88-1.16-3a13.53,13.53,0,0,1-.64-7.91,15,15,0,0,1,3.67-6.92,14.08,14.08,0,0,1,6.67-4,15.09,15.09,0,0,1,11.14,1.22,10.58,10.58,0,0,1,3.12,2.39,6.35,6.35,0,0,1,1.14,1.89,5,5,0,0,1,.29,2.32,7,7,0,0,1-1.74,3.63c-.78.92-1.56,1.67-2.25,2.47a31,31,0,0,0-2,2.57A28.62,28.62,0,0,0,191.07,392.81Z"/><path d="M220.52,427.61c-.54.53-1,1.13-1.5,1.71a4.76,4.76,0,0,1-1.75,1.46,3.42,3.42,0,0,1-2.32,0c-.76-.22-1.45-.57-2.15-.81a4.4,4.4,0,0,0-2-.32,2.18,2.18,0,0,0-1.48.93A3.53,3.53,0,0,0,209,434a14.76,14.76,0,0,0,2.23,3.46,21.87,21.87,0,0,0,2.91,2.94,11.16,11.16,0,0,0,3.1,1.86c1,.35,1.43.51,2.13.08a3.86,3.86,0,0,0,1.06-1.1l.79-1.12a10.52,10.52,0,0,1,1.05-1.06A11.22,11.22,0,0,1,227.1,437a13.84,13.84,0,0,0,4-1.24,5.14,5.14,0,0,0,2.26-3,4.27,4.27,0,0,0-.68-3.84,7.72,7.72,0,0,0-3.56-2.46,10.79,10.79,0,0,0-4.45-.54A7.07,7.07,0,0,0,220.52,427.61Zm0,0a7.15,7.15,0,0,1,4.11-1.82,11.77,11.77,0,0,1,4.57.28,8.59,8.59,0,0,1,4.09,2.27,5.57,5.57,0,0,1,1.29,2.13,5.75,5.75,0,0,1,.21,2.54,7.72,7.72,0,0,1-.75,2.45,5.82,5.82,0,0,1-.73,1.12c-.14.17-.28.36-.44.52l-.5.45a15.19,15.19,0,0,1-4.4,2.25,8.6,8.6,0,0,0-3.27,1.92c-.17.21-.33.42-.48.64l-.42.8a8.06,8.06,0,0,1-1.79,2.42,6.06,6.06,0,0,1-3.16,1.5,6.68,6.68,0,0,1-3.29-.37,11.87,11.87,0,0,1-4.39-3.24,20.58,20.58,0,0,1-2.85-4.09,16.44,16.44,0,0,1-1.73-4.72,5.59,5.59,0,0,1,1.59-5.11,3.64,3.64,0,0,1,2.54-1,5.27,5.27,0,0,1,2.36.76c.68.37,1.32.79,2,1.08a3,3,0,0,0,2.13.2,4.45,4.45,0,0,0,1.78-1.34C219.49,428.72,220,428.13,220.52,427.61Z"/><path d="M104.4,390.13A58.88,58.88,0,0,1,98.7,388l-2.7-1.2a10.76,10.76,0,0,0-2.44-.59,14.78,14.78,0,0,0-5.07.13,5,5,0,0,0-1.84.73,1.18,1.18,0,0,0-.36.35.52.52,0,0,0-.08.28,3.08,3.08,0,0,0,.39,1.52,9.84,9.84,0,0,0,1.15,1.92,6.67,6.67,0,0,0,3.8,2.08,9.28,9.28,0,0,0,5-.38,12.74,12.74,0,0,0,4.82-3.06,10.46,10.46,0,0,1-10.15,7.36,9.89,9.89,0,0,1-6.88-2.72,8.88,8.88,0,0,1-1.23-1.49,13,13,0,0,1-.94-1.55,7.66,7.66,0,0,1-.91-4.23,5.4,5.4,0,0,1,.92-2.5A5.87,5.87,0,0,1,84,382.89a9.35,9.35,0,0,1,3.76-1.26,15.47,15.47,0,0,1,6.8.73,11.65,11.65,0,0,1,3.12,1.55,7.08,7.08,0,0,1,.65.51l.58.48,1.15,1C101.51,387.25,103,388.6,104.4,390.13Z"/></svg>