<svg id="Layer_1" data-name="Layer 1" xmlns="http://www.w3.org/2000/svg" viewBox="0 0 600 600"><title>Kazakhstan</title><path d="M70.84,296.76a30.84,30.84,0,0,0-5.21-3.69,29.22,29.22,0,0,1-5.27-3.69,26.66,26.66,0,0,1-4.25-4.92A47.26,47.26,0,0,1,53,278.77c-.93-2-1.76-3.95-2.56-5.94-.39-1-.81-2-1.18-3.06a8.6,8.6,0,0,1-.49-3.67,9,9,0,0,1,1.21-3.56,21.75,21.75,0,0,1,2-2.81c.69-.86,1.34-1.66,1.89-2.46a20.29,20.29,0,0,0,1.5-2.55,28.12,28.12,0,0,0,2-5.63c.24-1,.46-2,.65-3,.15-.83.21-1.87.31-3a26.55,26.55,0,0,1,.47-3.45,9.23,9.23,0,0,1,1.69-3.91,4.61,4.61,0,0,1,.92-1,5,5,0,0,1,1.19-.76,6.28,6.28,0,0,1,2.6-.61,8,8,0,0,1,4.54,1.27,11.71,11.71,0,0,1,3.11,2.85,20.81,20.81,0,0,1,2,3.2,21.86,21.86,0,0,0,2.82,4.82A4.35,4.35,0,0,0,79,246.66a1.45,1.45,0,0,0,1,.08,2.63,2.63,0,0,0,1-.62,4.22,4.22,0,0,0,.92-1.32,7.73,7.73,0,0,0,.48-1.92c.12-.79.17-1.74.3-3a15.73,15.73,0,0,1,1-4.21,13.59,13.59,0,0,1,1.12-2.18A19.89,19.89,0,0,1,86,231.76a26.76,26.76,0,0,1,5.89-5.15,41,41,0,0,1,6.41-3.46,50.61,50.61,0,0,1,13.89-3.65,110.79,110.79,0,0,1,13.56-.73c2.23,0,4.24,0,6.61,0a32.07,32.07,0,0,1,8,1.09,21.16,21.16,0,0,1,4.41,1.79,26,26,0,0,1,3.75,2.49c1.11.87,2.08,1.76,3,2.61L152.8,228l.59.59.3.3.39.42a68.62,68.62,0,0,1,4.59,5.75c1.3,1.74,2.51,3.36,3.72,4.84a33.29,33.29,0,0,0,3.51,3.8,13,13,0,0,0,1.55,1.19,3.61,3.61,0,0,0,1.05.48c.22.05.22,0,.11-.08s-.26-.07-.26-.09.15-.13.5-.39.85-.69,1.48-1.27,1.57-1.46,2.66-2.35a25.37,25.37,0,0,1,4.15-2.83,18.79,18.79,0,0,1,6.2-2,20.11,20.11,0,0,1,6.33.11l1.36.27,1.25.33.54.16.47.14.94.3c1.26.39,2.45.84,3.63,1.3,2.36.92,4.52,1.94,6.6,2.95.52.25,1,.5,1.54.77s1,.56,1.43.85l2.74,1.73c1.79,1.14,3.47,2.2,5.14,3.18s3.25,1.84,4.83,2.61c.79.39,1.56.73,2.34,1.05l.4.18a3,3,0,0,0,.34.14c.26.09.57.19.9.27a21.42,21.42,0,0,0,4.46.57,14.25,14.25,0,0,0,3.81-.37c.44-.1.69-.21.69-.15a6.6,6.6,0,0,0-.37.87c-.13.47,0,.84,0,.74a2.07,2.07,0,0,0-.19-.93l-.05-.17h0s0-.06,0,0a.13.13,0,0,0,.09,0,.27.27,0,0,0,.12.09c.18.12.27.06-.13-.1a19,19,0,0,0-2.18-.6,35.39,35.39,0,0,1-3.91-1.08,20.49,20.49,0,0,1-2.45-1l-.62-.33-.45-.26-.87-.53a32.1,32.1,0,0,1-3.36-2.41,24.75,24.75,0,0,1-3.35-3.26,14.57,14.57,0,0,1-3-5.65,11.32,11.32,0,0,1-.3-4.39c0-.39.11-.78.19-1.16a12.86,12.86,0,0,1,.41-1.35,12.32,12.32,0,0,1,.59-1.28,12.8,12.8,0,0,1,.69-1.11,13.11,13.11,0,0,1,2.7-2.76c.76-.6,1.34-1,1.76-1.28a2.84,2.84,0,0,0,.63-.51c-.19.14.08-.14.21-.33a17.61,17.61,0,0,0,1-1.66c.37-.68.77-1.49,1.21-2.38l.69-1.43.51-.94.49-.87c.63-1.1,1.22-2,1.77-3s1.05-1.76,1.52-2.6.9-1.62,1.22-2.34c.2-.37.3-.68.45-1a5.74,5.74,0,0,0,.25-.79c0-.09.07-.23.06-.27a.62.62,0,0,1,0-.13c-.05,0-.09.11-.15.58a8.54,8.54,0,0,0,.1,1.44,13.5,13.5,0,0,1-1.13-1.31,24.38,24.38,0,0,1-2.73-3.87,16.23,16.23,0,0,1-1.44-3.4,13.81,13.81,0,0,1-.47-2.1,11.67,11.67,0,0,1-.18-2.22c0-.38,0-.76,0-1.13s.07-.71.12-1.06a12.88,12.88,0,0,1,.43-2.18,15.36,15.36,0,0,1,1.92-4.28,19.64,19.64,0,0,1,1.23-1.68c.41-.48.83-.94,1.27-1.39s.84-.76,1.27-1.13.82-.63,1.24-.95a27.55,27.55,0,0,1,4.71-2.66,35.49,35.49,0,0,1,4.48-1.61,30.21,30.21,0,0,1,4.87-1,59.2,59.2,0,0,1,8.09-.25c2.32.06,4.27.12,5.81,0a14.7,14.7,0,0,0,2.08-.23c.34-.06.67-.08,1-.16l1-.24a32.58,32.58,0,0,0,4.32-1.39c3-1.18,6.3-2.93,9.94-4.77a132.65,132.65,0,0,1,12.28-5.51c2.27-.88,4.71-1.7,7.24-2.43,1.27-.34,2.63-.66,3.91-1l3-.59c1.66-.31,2.72-.72,2.49-.52a6.62,6.62,0,0,0-.94,1.15c-.39.5-.78,2-.35.77a28.2,28.2,0,0,1,1.15-3,16.93,16.93,0,0,1,1.31-2.32,15.13,15.13,0,0,1,1.7-2.13,17.5,17.5,0,0,1,3.67-2.94,20.76,20.76,0,0,1,3.18-1.55,30,30,0,0,1,4.32-1.28l3.33-.77a50.6,50.6,0,0,1,16.31-1.35c.78.08,1.55.2,2.34.34l.59.11.67.15c.46.11.88.2,1.35.33a21,21,0,0,1,5.93,2.71,17.8,17.8,0,0,1,5.13,5.28,20.26,20.26,0,0,1,2.42,5.64,50.58,50.58,0,0,1,1.17,7.59,21.41,21.41,0,0,0,.52,3.3c0,.17,0,.17,0,.23s0,.09,0,.08,0,0,0,.08a2.4,2.4,0,0,0,1.6.33,5.36,5.36,0,0,0,.68-.06l.15,0h.1l.16,0a19.94,19.94,0,0,0,2.26-.91,41.44,41.44,0,0,1,3.92-1.54c.44-.13.85-.26,1.31-.38s1-.22,1.53-.31,1.18-.15,1.77-.19a16.62,16.62,0,0,1,2,.05,13.23,13.23,0,0,1,4.16,1.1,9.71,9.71,0,0,1,1.83,1,9.5,9.5,0,0,1,1.55,1.17c.44.39.89.82,1.28,1.23l.9,1.09a13.45,13.45,0,0,1,.8,1.11,12.59,12.59,0,0,1,.69,1.12,27.62,27.62,0,0,1,1.85,3.9c.42,1.05.72,1.8.92,2.21a2.82,2.82,0,0,0,.3.56s.1.07.14.14.16.13.38.2l.26.13.35.1a2.66,2.66,0,0,0,.65.19,1.9,1.9,0,0,0,.54.09,1.49,1.49,0,0,0,.47,0,6,6,0,0,0,2.62-1,40.24,40.24,0,0,0,4.44-3.22,54,54,0,0,1,6.25-4.43,20.93,20.93,0,0,1,10-3,17.39,17.39,0,0,1,6.15,1,15.21,15.21,0,0,1,6.14,4,16.56,16.56,0,0,1,3.5,6.1,29,29,0,0,1,1.15,5c.21,1.46.32,2.69.45,3.74l.09.75.05.34c0,.08,0,.3.05.22a.29.29,0,0,0,.09-.16l0-.07.06,0c.19-.18.68.46,1.61,1.3a41.07,41.07,0,0,0,3.54,2.94c1.4,1.09,3,2.2,4.7,3.56l1.36,1.08,1.29,1.05,2.41,2c1.62,1.37,3.32,2.78,5,4.35a47.33,47.33,0,0,1,9.17,11.58c.32.57.65,1.14.95,1.73l1,2,.61,1.3c.2.44.32.84.48,1.26s.3.85.42,1.25l.3,1.16a32.25,32.25,0,0,1,.77,4.09l.21,1.65c.05.45.13,1,.19,1.37s.12.82.19,1.08l.09.45a3,3,0,0,1,.08.32l0,.17,0,.09a.6.6,0,0,1,.06.19c0,.06,0,.15.06.17s0,.07,0,.07l0,.06s.08,0,.11.06a.52.52,0,0,1,.11.1,2.5,2.5,0,0,1,.25.09,3.11,3.11,0,0,0,.5.21,20.21,20.21,0,0,0,4.69.33c.58,0,1.22,0,1.9.07l.52,0,.68.07,1.41.2a20.11,20.11,0,0,1,5.38,1.84,35.75,35.75,0,0,1,6.74,4.82,12.33,12.33,0,0,0,1.73,1.22,5.81,5.81,0,0,0,.53.28c.14,0,.27.1.37.09a6.72,6.72,0,0,0,2.2-.13,30.83,30.83,0,0,0,4.6-1.47,62.56,62.56,0,0,1,6.81-2.28l2.2-.48c.79-.14,1.65-.23,2.47-.32a25,25,0,0,1,2.75-.05,9.34,9.34,0,0,1,1.45.12c.5.07,1,.15,1.49.24a16.14,16.14,0,0,1,2.94.87,14.36,14.36,0,0,1,2.74,1.3c.44.25.87.5,1.29.76s.87.63,1.29,1,.79.68,1.17,1,.7.72,1,1.08a24.82,24.82,0,0,1,4.66,8.14c.44,1.15.74,2.22,1,3.14l.74,2.38c.2.65.38,1.12.45,1.42a.91.91,0,0,1,0,.55c0,.13,0,.3.31.49.08,0,.15.09.25.13a2,2,0,0,1,.33.09,4.22,4.22,0,0,0,.87.12,52,52,0,0,0,6.23-.42,25.24,25.24,0,0,1,4.67,0,14.08,14.08,0,0,1,3.13.77,11,11,0,0,1,3.4,2.07,10.78,10.78,0,0,1,2.41,3.15,12,12,0,0,1,.69,1.59c.16.49.31,1,.42,1.47a19.08,19.08,0,0,1,.43,4.88,18,18,0,0,1-.17,2.38,20.54,20.54,0,0,1-.44,2.31,29,29,0,0,1-1.36,4c-1,2.44-2.08,4.47-2.88,6.22a33.42,33.42,0,0,0-2.8,10.25c-.1.86-.17,1.78-.2,2.59.11-.42.15.23.36,1a43.1,43.1,0,0,1,1.31,7.3,16.18,16.18,0,0,1-.9,6.72,13.11,13.11,0,0,1-1,2.14,11.92,11.92,0,0,1-1.49,2.08,11.79,11.79,0,0,1-1.73,1.68,13,13,0,0,1-1.86,1.3,17.19,17.19,0,0,1-7,2.2,29.51,29.51,0,0,1-4.93.06l-3.45-.23a6.87,6.87,0,0,0-1.83.1A4.19,4.19,0,0,0,524,334a4,4,0,0,0-.6,2.28c0,.37-.13.79-.17,1.54s-.11,1.61-.23,2.7l-.2,1.83c-.07.63-.18,1.39-.29,2.13a27.23,27.23,0,0,1-1.36,5.12,25.81,25.81,0,0,1-1.24,2.78,5.56,5.56,0,0,1-.41.72l-.48.76c-.33.5-.66,1-1,1.47a25.08,25.08,0,0,1-2.47,2.7,22.52,22.52,0,0,1-2.83,2.16,31.05,31.05,0,0,1-2.86,1.47l-1.35.52a12.27,12.27,0,0,1-1.31.42,32.25,32.25,0,0,1-4.47.84c-2.6.27-4.55.29-5.9.36l-1.48.12h-.24a.32.32,0,0,1-.14,0,1.42,1.42,0,0,1-.23,0c-.17,0-.19-.13-.35,0a1.54,1.54,0,0,0-.44.69,3.55,3.55,0,0,0-.24,1.3,4.71,4.71,0,0,0,0,.75l.12.88a25.71,25.71,0,0,0,1.81,4.74,60.1,60.1,0,0,1,3,6.7,22.51,22.51,0,0,1,1.36,9.61,17.38,17.38,0,0,1-.41,2.6,16.44,16.44,0,0,1-.76,2.55c-.16.42-.3.84-.48,1.25l-.64,1.23-.68,1.2c-.24.39-.53.74-.8,1.11a21.61,21.61,0,0,1-7.88,6.4,32.19,32.19,0,0,1-8.14,2.63,58.78,58.78,0,0,1-15,.73l-12.79-.76-12.79-.77-6.39-.38c-1-.06-2.34-.16-3.44-.26l-3.35-.32c-4.35-.45-8.37-.91-12-1a39,39,0,0,0-5.07.18c-.78.08-1.48.22-2.16.35l-.95.24c-.21.08-.42.13-.63.23a6.81,6.81,0,0,0-2.11,1.32c-.51.47-.63.86-.6.91h0s0,0,0,0l0,.41c0,.39-.1,1.11-.25,2.08a17.54,17.54,0,0,1-1,3.8c-.14.38-.32.77-.51,1.16s-.48.87-.73,1.29a14.71,14.71,0,0,1-1.94,2.47,15,15,0,0,1-5,3.33,17.11,17.11,0,0,1-4.44,1.16c-.59.06-1.22.11-1.78.13s-1.1,0-1.58,0a32.26,32.26,0,0,1-5-.62c-1.45-.3-2.74-.63-4-1-2.43-.68-4.59-1.42-6.49-2-.94-.29-1.82-.56-2.41-.7-.3-.08-.49-.1-.43-.08l.14,0a3.14,3.14,0,0,0,.4,0c.22,0,.13,0,.11,0h-.08a6,6,0,0,0-1.89.6,9.83,9.83,0,0,0-1.3.74c-.23.15-.46.32-.69.49l-.83.66q-2.11,1.74-4.17,3.67c-2.73,2.56-5.33,5.4-7.92,8.34l-1.93,2.25-1,1.14-.48.58-.31.39c-.83,1.06-1.85,2.63-3.3,4.72-.38.54-.72,1-1.19,1.64l-.67.86-.79.92c-.48.6-1.16,1.28-1.77,1.9-.31.32-.71.66-1.07,1s-.72.64-1.15,1a23.65,23.65,0,0,1-2.71,1.81c-.5.28-1,.56-1.5.81s-1.06.46-1.6.68a21.65,21.65,0,0,1-3.28,1,26.69,26.69,0,0,1-3.24.48,27,27,0,0,1-11.25-1.62,31.54,31.54,0,0,1-8.64-4.95,29.68,29.68,0,0,1-3.34-3.17,28.8,28.8,0,0,1-2.82-3.41A46.07,46.07,0,0,1,294.9,435c-2.27-4.68-3.77-9.1-5.35-13.08-.8-2-1.6-3.87-2.42-5.63a46,46,0,0,0-2.63-4.78,17,17,0,0,0-1.42-2,15.07,15.07,0,0,0-1.47-1.65,11.36,11.36,0,0,0-1.5-1.33,7.34,7.34,0,0,0-1.56-1,8.52,8.52,0,0,0-3.07-1.09,17.34,17.34,0,0,0-3.77-.25,80.67,80.67,0,0,0-10.38,1.15c-2,.27-4.19.57-6.5.83-1.08.14-2.52.25-3.87.31s-2.74.06-4.12,0a45.73,45.73,0,0,1-17.33-4,32.44,32.44,0,0,1-8.93-6.15,27.38,27.38,0,0,1-6.53-10.13,32.1,32.1,0,0,1-1.83-10.4c-.05-2.95.13-5.28.22-7a20.52,20.52,0,0,0,0-3.31,2.83,2.83,0,0,0-.16-.88c-.09-.23.06-.21-.06-.37a2.59,2.59,0,0,0-1.51-.46,11.64,11.64,0,0,0-3.34.24,17.4,17.4,0,0,0-2,.5c-.33.1-.67.21-1,.34l-.51.19-.82.34c-2.18.9-4.15,1.65-6,2.4s-3.69,1.5-5.36,2.26a38,38,0,0,0-4.42,2.34,17.25,17.25,0,0,0-1.54,1.06c-.19.16-.4.31-.49.41L185,374l-.12.16a6.15,6.15,0,0,0-1.25,2.36,22.2,22.2,0,0,0-.87,4.49c-.19,1.74-.29,3.65-.35,5.7s0,4.24-.15,6.64c0,.59-.05,1.22-.09,1.86l-.13,1.66c-.07.94-.13,1.92-.17,2.91-.08,2-.11,4.06-.14,6.23s-.1,4.42-.23,6.75c-.06,1.17-.15,2.36-.27,3.56l-.2,1.86c-.09.66-.19,1.33-.31,2a34.69,34.69,0,0,1-1,4.2,21.7,21.7,0,0,1-2.21,4.93,14.88,14.88,0,0,1-2.43,3,12.25,12.25,0,0,1-4.54,2.75,11.93,11.93,0,0,1-5.61.46,13.61,13.61,0,0,1-4-1.33,14.38,14.38,0,0,1-1.42-.83,13.39,13.39,0,0,1-1.18-.83,19.21,19.21,0,0,1-2-1.71,21.19,21.19,0,0,1-3.26-4.09,30.12,30.12,0,0,1-1.95-3.81l-1.21-2.85c-.33-.79-.6-1.26-.81-1.67a5.4,5.4,0,0,0-.53-.72c-.06-.12-.23-.15-.32-.28l-.48-.28a4.23,4.23,0,0,0-.84-.31,3.74,3.74,0,0,0-1.13,0,20,20,0,0,0-2.33.56,29.18,29.18,0,0,1-8.34,1.53,20.29,20.29,0,0,1-2.46-.14,17.36,17.36,0,0,1-2.73-.55,13.59,13.59,0,0,1-3.08-1.33,11.71,11.71,0,0,1-2.95-2.49,12,12,0,0,1-1.91-3.18,14.15,14.15,0,0,1-.82-2.92,21.19,21.19,0,0,1-.2-4.57c.14-2.58.48-4.68.57-6.3a10.69,10.69,0,0,0,0-1.76,4.62,4.62,0,0,0-.41-1.35,10.25,10.25,0,0,0-2.65-3.2c-1.29-1.15-2.94-2.31-4.69-3.58a54,54,0,0,1-5.57-4.41,35.21,35.21,0,0,1-4.88-5.64,36.05,36.05,0,0,1-5.77-13.45,34.13,34.13,0,0,1-.53-3.63,27.37,27.37,0,0,1-.12-3.77,18.05,18.05,0,0,1,.62-4.11,12.49,12.49,0,0,1,5.29-7.26,17.27,17.27,0,0,1,3.65-1.78,39.86,39.86,0,0,1,6.81-1.59,38.28,38.28,0,0,0,11.32-3.29,17.2,17.2,0,0,0,2.32-1.47,14,14,0,0,0,1.94-1.79,11,11,0,0,0,2.31-4.64,9.3,9.3,0,0,0-.17-5.11,7.25,7.25,0,0,0-1.23-2.1,7,7,0,0,0-2-1.51,14.1,14.1,0,0,0-5.55-1.24,20,20,0,0,0-3,0,29,29,0,0,0-3,.46c-4.07.85-8.13,2.26-12.24,3.44S95.6,327,91.23,326.92a11.14,11.14,0,0,1-6.17-2A13.67,13.67,0,0,1,80.87,320c-2-3.83-3-8-4.18-12.12a43.81,43.81,0,0,0-2.17-6,16.59,16.59,0,0,0-3.62-5.22Zm.06-.07A21.12,21.12,0,0,1,73.09,299a19.89,19.89,0,0,1,1.69,2.75,43.43,43.43,0,0,1,2.43,6c1.39,4,2.5,8.21,4.58,11.78a12.48,12.48,0,0,0,4,4.34,9.75,9.75,0,0,0,5.49,1.5,43.53,43.53,0,0,0,12-2.55c4-1.31,8-2.87,12.28-3.93,1.07-.25,2.16-.47,3.27-.62a22.63,22.63,0,0,1,3.37-.16,17,17,0,0,1,6.69,1.27,9.9,9.9,0,0,1,3,2,10.24,10.24,0,0,1,2,3,12.35,12.35,0,0,1,.59,6.89,14.43,14.43,0,0,1-2.77,6.24,18.26,18.26,0,0,1-5.16,4.34,41,41,0,0,1-12.35,4.19,37.42,37.42,0,0,0-6,1.6,8.76,8.76,0,0,0-6.28,9,27.51,27.51,0,0,0,.74,6.16,30.71,30.71,0,0,0,5.24,11.26,29.34,29.34,0,0,0,4.23,4.61,45.51,45.51,0,0,0,5.07,3.75c1.77,1.19,3.58,2.35,5.27,3.72a17.39,17.39,0,0,1,4.39,4.88,11.74,11.74,0,0,1,1.23,3.1,15.36,15.36,0,0,1,.29,3.29c0,2.17-.3,4.3-.35,6.4a15.16,15.16,0,0,0,.19,3.1,5.62,5.62,0,0,0,1.19,2.7c1.3,1.5,3.53,1.86,5.57,1.82a20.66,20.66,0,0,0,6.12-1.36A16.58,16.58,0,0,1,147.4,409a11.27,11.27,0,0,1,8.3,4.66,20.17,20.17,0,0,1,1.61,2.81,53.25,53.25,0,0,0,2.84,5.71,12.45,12.45,0,0,0,4.54,4.29,3.92,3.92,0,0,0,3,.38,4.57,4.57,0,0,0,2.27-2.05,17.72,17.72,0,0,0,1.94-6,89,89,0,0,0,.73-12.75c0-2.14,0-4.27.07-6.41s.22-4.26.27-6.39c.09-4.27-.15-8.54.13-12.8a33.57,33.57,0,0,1,.92-6.32,17.58,17.58,0,0,1,2.59-5.81,18.51,18.51,0,0,1,4.62-4.38,49.12,49.12,0,0,1,5.49-3.28c3.78-2,7.72-3.63,11.6-5.41A29.18,29.18,0,0,1,210.59,352a15.69,15.69,0,0,1,6.25,1.11,12.46,12.46,0,0,1,5.07,3.81,14.32,14.32,0,0,1,2.76,5.71,26.11,26.11,0,0,1,.56,6.36c0,2.13-.15,4.26-.07,6.4a19.68,19.68,0,0,0,1.14,6.27,14.48,14.48,0,0,0,3.5,5.29,18.93,18.93,0,0,0,5.27,3.57,34.25,34.25,0,0,0,12.42,2.76c4.27.25,8.53-.32,12.78-.64a65.75,65.75,0,0,1,12.78-.14,23.33,23.33,0,0,1,11.84,4.4,30.29,30.29,0,0,1,8.28,9.62c4.27,7.42,6.66,15.73,11,23.12a33.34,33.34,0,0,0,8.21,9.71c3.36,2.57,7.56,4.33,11.86,4a10.83,10.83,0,0,0,5.87-2.31,22.46,22.46,0,0,0,4.23-4.78c1.23-1.74,2.38-3.54,3.7-5.22s2.73-3.28,4.14-4.88a117.07,117.07,0,0,1,9-9.13c1.58-1.43,3.21-2.81,4.89-4.12a23.37,23.37,0,0,1,5.44-3.33,16.61,16.61,0,0,1,6.2-1.43,9.62,9.62,0,0,1,3.15.46c1,.28,2,.62,3.05,1,2,.69,4,1.41,6.07,2a27.31,27.31,0,0,0,6.26,1.28,7.5,7.5,0,0,0,3.15-.42,3.86,3.86,0,0,0,2.19-2.2,12.27,12.27,0,0,0,.64-3.13,12.14,12.14,0,0,1,.75-3.09,13.05,13.05,0,0,1,3.82-5.06,17.39,17.39,0,0,1,5.58-3.06A35.89,35.89,0,0,1,415,394.75c4.27.25,8.49.88,12.72,1.44s8.49.89,12.74,1.29l12.75,1.13L466,399.74a49.55,49.55,0,0,0,12.76-.36,23.8,23.8,0,0,0,6.11-1.84,13.32,13.32,0,0,0,5-3.9,11.71,11.71,0,0,0,2.3-5.87,14.5,14.5,0,0,0-.85-6.29c-1.4-4-3.82-7.65-5-11.76a14.89,14.89,0,0,1-.52-6.33,9.69,9.69,0,0,1,2.71-5.67,12.83,12.83,0,0,1,5.51-3.09c2-.64,4.15-1,6.22-1.53a17.63,17.63,0,0,0,5.9-2.37,10,10,0,0,0,3.67-5.11c1.41-4.06,1-8.47,2.11-12.6a13.81,13.81,0,0,1,8.19-9.23,17.47,17.47,0,0,1,6.28-1.07,50.41,50.41,0,0,1,6.36.66c2.09.21,4.35.33,6.26-.71a4.55,4.55,0,0,0,2.08-2.33,8,8,0,0,0,.46-3.15,59,59,0,0,0-.78-6.34,12.64,12.64,0,0,1-.12-3.19c.14-1.06.32-2.11.53-3.16a44.69,44.69,0,0,1,4.34-12c1-1.88,2.09-3.72,3-5.67a16.29,16.29,0,0,0,1.6-6.15,12.64,12.64,0,0,0-.22-3.19,4.65,4.65,0,0,0-4.38-4,14.88,14.88,0,0,0-3.2,0c-2.12.22-4.21.67-6.34.85a10.48,10.48,0,0,1-6.2-1.15,11.07,11.07,0,0,1-4.12-4.78c-1-1.9-1.68-3.92-2.52-5.88a19.44,19.44,0,0,0-3.19-5.51,8.2,8.2,0,0,0-2.5-2,6.57,6.57,0,0,0-1.44-.69,8.43,8.43,0,0,0-1.54-.44,14.28,14.28,0,0,0-6.33.35c-2.07.53-4.08,1.26-6.09,1.95a35.88,35.88,0,0,1-6.17,1.68,14,14,0,0,1-6.33-.4A16.1,16.1,0,0,1,484,254.2a28.45,28.45,0,0,0-5.1-3.85,10.4,10.4,0,0,0-3-1,21.41,21.41,0,0,0-3.19-.24,32.33,32.33,0,0,1-6.37-.49,10.88,10.88,0,0,1-5.52-3,14.06,14.06,0,0,1-2.84-5.67c-.61-2-1.06-4.14-1.83-6.13a14.77,14.77,0,0,0-.63-1.47,10.63,10.63,0,0,0-.78-1.4c-.56-.9-1.21-1.75-1.86-2.6a77.89,77.89,0,0,0-8.79-9.28c-3.16-2.87-6.36-5.69-9.55-8.53a62.81,62.81,0,0,1-9.08-9,15.27,15.27,0,0,1-2.84-5.68,14.12,14.12,0,0,1-.24-3.18c0-1.07,0-2.13-.07-3.2-.14-2.1-.5-4.33-1.91-6A7.74,7.74,0,0,0,414.7,181a12.47,12.47,0,0,0-6.1,1.64,40.64,40.64,0,0,0-5.27,3.62,57.37,57.37,0,0,1-5.18,3.76,14,14,0,0,1-6,2.13,13,13,0,0,1-6.23-1.13,9.32,9.32,0,0,1-4.61-4.26c-1-1.87-1.63-3.95-2.75-5.77a9.77,9.77,0,0,0-2-2.47,5.12,5.12,0,0,0-2.87-1.25,7.59,7.59,0,0,0-3.13.49,30.65,30.65,0,0,0-2.94,1.27c-1,.47-1.92.94-2.92,1.32a12.65,12.65,0,0,1-3.1.75,12.28,12.28,0,0,1-6.29-.79,9.58,9.58,0,0,1-4.58-4.31c-2-3.85-1.77-8.32-3-12.4a8.62,8.62,0,0,0-3.57-5.12,12.91,12.91,0,0,0-6.09-1.71,38.29,38.29,0,0,0-12.62,1.65l-3.08.86a28.4,28.4,0,0,0-3,1,7.34,7.34,0,0,0-2.65,1.73,6.38,6.38,0,0,0-1.39,2.83,8.53,8.53,0,0,1-1.28,2.93,8.19,8.19,0,0,1-2.35,2.15,20.52,20.52,0,0,1-6,2.27l-3.12.74c-1,.28-2.06.55-3.08.85-2,.66-4,1.39-6,2.22-7.86,3.3-15.24,7.75-23.39,10.37a39.06,39.06,0,0,1-12.6,1.93c-4.27-.13-8.51-.89-12.78-.6a22.48,22.48,0,0,0-6.2,1.45,15.87,15.87,0,0,0-2.84,1.46,8,8,0,0,0-2.3,2.18,5.78,5.78,0,0,0-.12,6c1,1.89,2.54,3.43,3.54,5.33a6.45,6.45,0,0,1,.81,3.07,8.61,8.61,0,0,1-.72,3.11,33.19,33.19,0,0,1-3.09,5.6c-1.16,1.79-2.41,3.52-3.58,5.3s-2.09,3.73-3.28,5.5a13.77,13.77,0,0,1-4.44,4.54,9.05,9.05,0,0,0-2.47,2,2.85,2.85,0,0,0-.56,1.46,3.79,3.79,0,0,0,.1,1.57,7.37,7.37,0,0,0,1.5,2.78,16,16,0,0,0,2.28,2.23,26.19,26.19,0,0,0,2.6,1.86,13.34,13.34,0,0,0,2.86,1.41c2,.69,4.17.88,6.2,1.58a7.93,7.93,0,0,1,2.77,1.57,7.48,7.48,0,0,1,1.8,2.64,8.19,8.19,0,0,1,.53,6.23,7.91,7.91,0,0,1-4.73,4.1,21.59,21.59,0,0,1-6.26,1.27,29.69,29.69,0,0,1-6.39-.24,26.22,26.22,0,0,1-6.14-1.79c-2-.79-3.93-1.67-5.83-2.65-3.8-1.93-7.48-4.11-11.25-6.11a52.35,52.35,0,0,0-11.78-4.86,9.26,9.26,0,0,0-6.19.82,27.86,27.86,0,0,0-5.12,3.8,15.73,15.73,0,0,1-5.47,3.27,8.86,8.86,0,0,1-6.28-.51,17.57,17.57,0,0,1-5.11-3.83,44.88,44.88,0,0,1-4.07-4.94c-1.26-1.73-2.44-3.5-3.63-5.27a58.31,58.31,0,0,0-3.76-5.17,47,47,0,0,0-4.47-4.56,15.74,15.74,0,0,0-5.5-3.15,27.25,27.25,0,0,0-6.28-1.07c-2.13-.14-4.26-.24-6.39-.34a105,105,0,0,0-12.79.09,44.91,44.91,0,0,0-12.45,2.69,37.14,37.14,0,0,0-5.75,2.78,21.91,21.91,0,0,0-5,4,9.49,9.49,0,0,0-1.75,2.64,12,12,0,0,0-.82,3.07c-.31,2.09-.5,4.29-1.56,6.19a7,7,0,0,1-5,3.7,5.4,5.4,0,0,1-3.12-.65,8.38,8.38,0,0,1-2.42-2.1,26.31,26.31,0,0,1-3-5.65,11.39,11.39,0,0,0-3.8-5,5.13,5.13,0,0,0-3-.94,3.39,3.39,0,0,0-2.76,1.25,7.32,7.32,0,0,0-1.29,2.87,27.6,27.6,0,0,0-.53,3.15,31.44,31.44,0,0,1-.46,3.17c-.24,1-.5,2.08-.8,3.1a29.64,29.64,0,0,1-2.39,5.94,26.89,26.89,0,0,1-3.77,5.16c-1.36,1.61-2.75,3.37-3,5.51s.72,4.16,1.39,6.16,1.48,4,2.33,5.95a35.13,35.13,0,0,0,6.78,10.76,24.53,24.53,0,0,0,5,3.9A39.53,39.53,0,0,1,71,296.62Z"/></svg>