<svg id="Layer_1" data-name="Layer 1" xmlns="http://www.w3.org/2000/svg" viewBox="0 0 600 600"><title>Kuwait</title><path d="M50.4,367.11a5.45,5.45,0,0,1-.14-4,7.41,7.41,0,0,1,.9-1.83,16.09,16.09,0,0,1,1.18-1.66l2.6-3.15c.84-1.05,1.47-2.29,2.29-3.39a120.7,120.7,0,0,1,10.84-12.41,119.56,119.56,0,0,0,10.61-12c.74-1,1.52-2.14,2.29-3.27L83.28,322c1.51-2.25,3.08-4.46,4.61-6.69l18.18-26.83c1.49-2.25,3-4.48,4.44-6.77l4.33-6.88c1.45-2.29,2.87-4.59,4.3-6.9s2.82-4.62,4.21-7l2.08-3.49,2-3.56c1.32-2.38,2.7-4.74,4-7.14,2.62-4.79,5-9.7,7.42-14.63,4.7-9.92,9.06-20,14.21-29.66q1.92-3.63,4-7.15c1.35-2.37,2.78-4.69,4.14-7,2.77-4.54,5.42-8.87,7.81-13.1a85.62,85.62,0,0,0,6-12.55,49.08,49.08,0,0,0,1.78-6.25,58,58,0,0,0,.84-6.86c.13-2.48.18-5.12.25-7.93s.13-5.77.33-8.89a69.83,69.83,0,0,1,1.31-9.64,63.88,63.88,0,0,1,2.8-9.43,68.9,68.9,0,0,1,4.2-8.79,77.65,77.65,0,0,1,5.27-8,92.54,92.54,0,0,1,6-7.1c2.13-2.21,4.31-4.33,6.57-6.32a177.93,177.93,0,0,1,28.59-19.93c4.9-2.82,9.86-5.48,14.74-8a133.07,133.07,0,0,1,16.23-7.46,68.57,68.57,0,0,1,9.37-2.65c1.58-.33,3.17-.65,4.74-.84l2.36-.33,2.33-.23a126.45,126.45,0,0,1,18-.19c5.75.3,11.26.8,16.55,1.18,2.66.2,5.24.36,7.77.46s4.95.16,7.55.12c5.19,0,10.91-.28,17.2.1a71.44,71.44,0,0,1,9.8,1.25,64.86,64.86,0,0,1,9.71,2.77,161.6,161.6,0,0,1,16.13,7.28L400,64.26c9.77,4.81,19.6,9.49,29.4,14.24l7.37,3.55a39,39,0,0,1,5.34,3,25.94,25.94,0,0,1,3.48,2.84,22.2,22.2,0,0,1,3.51,4.45,20.82,20.82,0,0,1,2.38,5.86,23.56,23.56,0,0,1,.63,5.41,37.9,37.9,0,0,1-.71,6.86,17.06,17.06,0,0,0-.26,1.76l-.13,1.42c0,.47-.11.93-.15,1.41l0,1.43a41.79,41.79,0,0,0,1.77,11.72,69,69,0,0,0,5.05,12.27c4.23,8.31,9.9,16.67,16.16,25.36l1.17,1.64,1.29,1.84q1.29,1.83,2.54,3.73c.85,1.24,1.65,2.53,2.44,3.83s1.58,2.61,2.34,3.94a121.54,121.54,0,0,1,7.89,16.75,81,81,0,0,1,2.88,8.86,45,45,0,0,1,.78,9.36c0,1.57,0,3.12.12,4.64s.28,3,.46,4.51.45,3,.61,4.43l.25,2.22.14,1.15.16,1.62a30.91,30.91,0,0,1,.07,4.19,22.61,22.61,0,0,1-1.07,5.79,20.14,20.14,0,0,1-1.45,3.37c-.3.56-.65,1.12-1,1.67s-.68.93-1,1.39l-.54.65c-.19.21-.35.4-.63.68-.51.52-1.05,1-1.61,1.49a12.27,12.27,0,0,1-1,.76c-.38.27-.77.53-1.17.77s-.78.47-1.24.7-1,.47-1.56.67a15.84,15.84,0,0,1-1.6.54,16.67,16.67,0,0,1-1.79.37,15.55,15.55,0,0,1-3.65.18,17.81,17.81,0,0,1-1.79-.2,14.65,14.65,0,0,1-1.58-.35q-.78-.21-1.53-.48c-.49-.18-.84-.34-1.27-.53a19.18,19.18,0,0,1-6.38-4.85,24.66,24.66,0,0,1-3-4.4,24.38,24.38,0,0,1-1.08-2.3.91.91,0,0,0,.14.31c.23.42.44.59.37.51a7.84,7.84,0,0,0-1-.67c-.56-.35-1.33-.76-2.27-1.22l-1.55-.72c-.51-.23-1.3-.59-1.63-.72a32.57,32.57,0,0,0-10.94-2.7c-.95,0-1.9-.16-2.86-.21s-1.92-.06-2.87,0-2,.15-3.06.25-2.09.25-3.13.48a54.3,54.3,0,0,0-6.36,1.6,68.58,68.58,0,0,0-6.42,2.46,95.24,95.24,0,0,0-12.79,6.92c-2.12,1.33-4.23,2.76-6.33,4.23-1.91,1.35-4.65,3.37-7,4.92-4.83,3.17-9.37,5.87-13.35,8.69a40.06,40.06,0,0,0-9.57,8.82c-.26.39-.58.76-.81,1.16l-.68,1.19-.17.29a1.47,1.47,0,0,0-.1.22,2.3,2.3,0,0,0-.16.46c-.09.29-.07.47-.14.43s-.08-.11-.18-.21a1.45,1.45,0,0,0-.35-.31c-.24-.15-.41-.12-.19,0a3.68,3.68,0,0,0,1.42.22,8.55,8.55,0,0,0,1.1-.05c.19,0,.39,0,.59-.08l.31-.05.48-.1,4-.83,8-1.64c.28,0,.9-.2.4-.05l-.21.11-.05,0h0a5,5,0,0,0,1-.56c.5-.32,1.14-.76,2-1.26a17.54,17.54,0,0,1,3.33-1.62,10.21,10.21,0,0,1,1.23-.37,9.85,9.85,0,0,1,1.44-.26,10.9,10.9,0,0,1,3.39.13,15.54,15.54,0,0,1,1.72.49c.4.17.79.35,1.18.54a10.13,10.13,0,0,1,1.3.78,6.21,6.21,0,0,1,.66.49q.38.3.72.63a9.06,9.06,0,0,1,1.31,1.56,8.49,8.49,0,0,1,1,1.91,9.72,9.72,0,0,1,.56,2,13.79,13.79,0,0,1,.15,1.77,13.07,13.07,0,0,1-.88,4.49c-.38,1-.75,1.78-1,2.31l-.15.32-.08.2a2.14,2.14,0,0,0-.13.38,3.42,3.42,0,0,0-.14,1.07c0,.18,0,.09-.05,0s-.15-.11.13,0a1.11,1.11,0,0,1,.25.05c.1,0,.23,0,.33,0a1,1,0,0,0,.3,0h.13l.12,0a3.83,3.83,0,0,0,1.14-.5,15.91,15.91,0,0,0,2.05-1.57c.85-.71,1.76-1.66,2.87-2.67.54-.5,1.15-1,1.8-1.59l1.77-1.43c1.08-.84,2.13-1.77,3.29-2.69s2.35-1.86,3.66-2.78,2.66-1.87,4.18-2.73a35.67,35.67,0,0,1,4.88-2.38,30.7,30.7,0,0,1,5.53-1.72c.5-.1.94-.21,1.49-.29s1.16-.13,1.75-.18a14.46,14.46,0,0,1,1.71-.08h1.67c1.08,0,2.11.16,3.15.28s2,.31,2.9.53a62.3,62.3,0,0,1,9.84,3.15c2.9,1.18,5.55,2.39,7.93,3.4l1.7.73,1.55.6.69.23.38.13c.22.09.55.23,1,.44a16.21,16.21,0,0,1,3.87,2.65,15.64,15.64,0,0,1,2.46,2.87,15.8,15.8,0,0,1,1.75,3.45,18.08,18.08,0,0,1,1,5.15c.06,1.18,0,1.94,0,2.22,0,.62,0,1.23-.09,1.85-.1,1.25-.24,2.5-.37,3.77l-.77,7.77c-.53,5.3-1,10.81-1.19,16.47l-.05-1.08a92.61,92.61,0,0,0,1.62,12.11,118.66,118.66,0,0,0,3.2,12c2.49,7.93,5.32,15.82,8.35,23.73,1.54,3.95,3.17,7.9,4.81,11.87l2.45,6,1.23,3c.39.88.77,1.79,1.17,2.63a54.91,54.91,0,0,0,4.66,8.64,7.53,7.53,0,0,0,.58.78c.19.23.38.51.56.71a3.28,3.28,0,0,1,.74,1.31,3,3,0,0,1,.06.78,5.3,5.3,0,0,1,0,.78c0,.28,0,.46-.07.76l0,.42c0,.12,0,.24-.06.38s-.07.57-.09.85l-.06.84a6.65,6.65,0,0,0,0,.9,4.63,4.63,0,0,0,.14.93c.08.29.18.61.3.93a1.88,1.88,0,0,0,.25.46,4.65,4.65,0,0,0,.44.47,14,14,0,0,0,3.2,1.94,46.84,46.84,0,0,1,5,2.67,18.14,18.14,0,0,1,5.27,5,15.71,15.71,0,0,1,2.54,6.31,19.49,19.49,0,0,1,.17,5.14c-.14,1.46-.32,2.75-.53,3.87s-.38,2.18-.53,3.07a16,16,0,0,0-.22,2.3,6.35,6.35,0,0,0,0,1,8.62,8.62,0,0,0,.15,1,13.27,13.27,0,0,0,1.77,4.1,25,25,0,0,0,3.28,4,52.82,52.82,0,0,0,4.23,3.83l5,4A69.23,69.23,0,0,1,547.36,477c.42.55.85,1.1,1.24,1.69s.81,1.17,1.18,1.79c.19.33.37.57.58,1l.59,1.21a12,12,0,0,1,.55,1.26q.24.69.45,1.38a17,17,0,0,1,.62,2.92,21.46,21.46,0,0,1,.15,3,27.81,27.81,0,0,1-.29,2.81c-.17.84-.34,1.76-.56,2.48-.84,3.07-1.85,5.26-2.34,6.82a8.75,8.75,0,0,0-.56,2.86,2.15,2.15,0,0,0,0,.5c0,.21.06.34,0,.52a6.94,6.94,0,0,0,.24,1.08,13.59,13.59,0,0,0,.62,1.63c.18.37.33.69.56,1.12l.3.63.37.68c.23.45.53,1,.78,1.5l.85,1.71a42.6,42.6,0,0,1,1.59,4c.23.71.45,1.47.64,2.19s.29,1.36.4,2.14a24.21,24.21,0,0,1,.34,4.93,14.47,14.47,0,0,1-1.44,5.93,13,13,0,0,1-3.8,4.55,17.85,17.85,0,0,1-4,2.29l-1,.4-.92.32a18.08,18.08,0,0,1-1.8.6,67.76,67.76,0,0,1-14.1,2.9c-9.26.8-18.13-.08-26.47-.17-1,0-2.08,0-3.08,0l-1.52.06-1.62.09-6.45.34-12.91.82c-34.43,2.39-68.91,6.73-103.94,8.63l-6.46.34-3,.26a32,32,0,0,1-4.83,0A19.53,19.53,0,0,1,347.58,552a14.53,14.53,0,0,1-1.6-1.41,17.29,17.29,0,0,1-1.57-1.76,26.57,26.57,0,0,1-3.08-5.12c-.65-1.35-1.13-2.48-1.57-3.45a23.61,23.61,0,0,0-2.06-4.07c-.21-.26-.37-.4-.15-.08l-1.74-1.41-5-3.87a67.74,67.74,0,0,1-6-5.2,45,45,0,0,1-3.07-3.41,41.14,41.14,0,0,1-2.8-4,48,48,0,0,1-4-8.15,102,102,0,0,1-4.06-14.47c-.48-2.13-.94-4.05-1.43-6.06a46.74,46.74,0,0,1-1.29-6c-.57-4.07,0-8.48-.2-12.77a28.08,28.08,0,0,0-.94-6.24c-.56-2-1.24-4-1.9-5.95-1.32-4-2.82-7.85-4.39-11.71-.8-1.93-1.65-3.83-2.51-5.73l-2.7-5.82c-1.82-4-3.63-7.7-5.53-11.07q-1.43-2.54-3-4.76a36.57,36.57,0,0,0-3.24-4,18.45,18.45,0,0,0-3.29-2.84,18.85,18.85,0,0,0-3.7-2,43.57,43.57,0,0,0-10-2.26c-2-.28-4-.52-6.24-.79l-6.45-.77q-12.88-1.6-25.71-3.58c-8.55-1.37-17.11-2.6-25.54-4.82s-16.79-5-25.19-7.47c-4.21-1.19-8.42-2.37-12.65-3.34s-8.49-1.85-12.73-2.76c-17-3.57-34.11-6.25-51.19-9.15-4.27-.72-8.55-1.45-12.83-2.09S79.69,372.58,75.4,372s-8.6-1-12.9-1.5L56,369.88a11.92,11.92,0,0,1-3.17-.7,4.57,4.57,0,0,1-2.39-2.11Zm.08,0a4.14,4.14,0,0,0,2.44,2,12,12,0,0,0,3.15.55l6.49.4c4.32.31,8.64.65,13,1.06s8.63.82,12.94,1.31,8.59,1.07,12.88,1.68c17.16,2.3,34.27,5,51.43,7.36,8.57,1.22,17.16,2.31,25.75,3.4l25.8,3.11,12.87,1.7,12.86,1.83,25.72,3.68c4.29.62,8.56,1.2,12.86,1.91a51.71,51.71,0,0,1,12.69,3.5,29.81,29.81,0,0,1,10.52,8A57.09,57.09,0,0,1,299,419.46c2,3.86,3.76,7.84,5.51,11.79s3.55,7.91,5.16,11.93c3.26,8,6.07,16.24,8.58,24.53s4.54,16.71,6.22,25.21a86.08,86.08,0,0,0,3.2,12.57,30,30,0,0,0,6.71,11c3,3.14,6.49,5.73,9.76,8.56.82.71,1.64,1.42,2.4,2.19a12.61,12.61,0,0,1,1.94,2.59,43.65,43.65,0,0,1,2.7,5.9c.4,1,.79,2,1.24,3a14.52,14.52,0,0,0,1.58,2.83,7.42,7.42,0,0,0,2.47,2.05,8.7,8.7,0,0,0,3.11.86,63.87,63.87,0,0,0,6.49-.06l6.5,0c34.64-.25,69.22-2.57,103.83-3.71l13-.37c4.33-.06,8.66-.25,13-.1,8.65.29,17.29,1.31,26,.73A42.85,42.85,0,0,0,541,538.29a20.13,20.13,0,0,0,3-1.33,12.54,12.54,0,0,0,2.66-1.85,7.1,7.1,0,0,0,1.83-2.64,6.94,6.94,0,0,0,.4-3.19,13.66,13.66,0,0,0-.67-3.17,21.21,21.21,0,0,0-1.2-3,42.21,42.21,0,0,0-3.44-5.5,29.05,29.05,0,0,1-3.3-5.58,14.19,14.19,0,0,1-1.14-6.33,17.82,17.82,0,0,1,1.65-6.24c.87-2,1.9-3.9,2.62-5.94a13.74,13.74,0,0,0,.74-3.15,10.31,10.31,0,0,0-.24-3.23,18,18,0,0,0-2.83-5.79,49.65,49.65,0,0,0-9-9.31,103,103,0,0,1-9.63-8.69c-2.9-3.18-5.48-6.84-6.57-11.06a19.11,19.11,0,0,1-.51-6.44c.14-2.16.45-4.31.45-6.47a9.59,9.59,0,0,0-1.7-6.14,9,9,0,0,0-5.63-2.94,42.82,42.82,0,0,1-6.34-1.35,19,19,0,0,1-5.69-3.05,24.17,24.17,0,0,1-4.58-4.57,36.76,36.76,0,0,1-3.54-5.44,72.86,72.86,0,0,1-5-12q-3.94-12.37-7.51-24.87c-4.72-16.64-8.78-33.56-10.39-50.82h0c0-5.45-.16-10.89-.21-16.33,0-2.72,0-5.44,0-8.17q0-2,.12-4.08l.1-2a5.5,5.5,0,0,0-.14-2,2.61,2.61,0,0,0-1.39-1.42l-1.82-.92c-1.2-.64-2.39-1.31-3.56-2-2.36-1.37-4.69-2.77-7.09-4.06a45,45,0,0,0-7.45-3.3,17.88,17.88,0,0,0-8-.88,25,25,0,0,0-7.78,2.36,51.55,51.55,0,0,0-7,4.18c-1.12.77-2.23,1.57-3.33,2.36s-2.2,1.6-3.24,2.48a37.8,37.8,0,0,1-6.51,4.91,10.23,10.23,0,0,1-7.91.76,7.34,7.34,0,0,1-3.4-2.16,7.13,7.13,0,0,1-1.68-3.66,10.25,10.25,0,0,1,.26-4.05c.33-1.32,1-2.53,1.45-3.81a6.18,6.18,0,0,0,.4-2,2.48,2.48,0,0,0-.76-1.83,3.89,3.89,0,0,0-1.8-.9,3.71,3.71,0,0,0-2,.23,16.7,16.7,0,0,0-3.48,2.1,9.24,9.24,0,0,1-3.63,1.8l-7.93,1.94-4,1a21.12,21.12,0,0,1-4,.68,10.4,10.4,0,0,1-7.66-2.16,7.59,7.59,0,0,1-2.17-3.39,10.23,10.23,0,0,1-.37-4,17.39,17.39,0,0,1,3-7.5,48.92,48.92,0,0,1,11.21-11.76c4.27-3.38,8.81-6.41,13.21-9.6,2.2-1.6,4.33-3.3,6.46-5s4.3-3.33,6.53-4.9a111.1,111.1,0,0,1,13.89-8.55c2.41-1.26,4.91-2.34,7.44-3.37a68.67,68.67,0,0,1,7.76-2.49A50.78,50.78,0,0,1,445.1,225a46.62,46.62,0,0,1,15.8,3.78,59.89,59.89,0,0,1,7.3,3.65,15.46,15.46,0,0,1,5.73,5.68c.3.61.55,1.25.87,1.85A10.63,10.63,0,0,0,476,241.6a5,5,0,0,0,1.6,1.24,2.44,2.44,0,0,0,2,.1,3.78,3.78,0,0,0,1.57-1.26,5.3,5.3,0,0,0,1-1.78,10.06,10.06,0,0,0,.25-4.05,139.24,139.24,0,0,0-8.07-31.56A152.66,152.66,0,0,0,459,175.46c-5.92-9.13-11.73-18.38-16.19-28.33a83.08,83.08,0,0,1-5.35-15.4,56.33,56.33,0,0,1-1.43-16.21l.13-2c.08-.67.2-1.34.3-2,.22-1.34.39-2.69.71-4a22,22,0,0,0,.56-4,7.32,7.32,0,0,0-.95-3.91A9.59,9.59,0,0,0,434,96.6a29.42,29.42,0,0,0-3.53-2l-7.29-3.68L394,76.13l-14.57-7.37a156.11,156.11,0,0,0-14.78-6.9,53.5,53.5,0,0,0-15.89-3.46c-5.43-.41-10.88-.28-16.32-.31-10.9,0-21.72-1.55-32.57-2.27a113.84,113.84,0,0,0-16.31-.06A62.93,62.93,0,0,0,267.64,59a119.47,119.47,0,0,0-14.89,6.66c-4.86,2.46-9.68,5-14.43,7.64A158.78,158.78,0,0,0,211.4,91.64c-8.17,7.13-15.32,15.75-19.29,25.93a51.85,51.85,0,0,0-3.45,15.88c-.34,5.43,0,10.88-.14,16.32a74,74,0,0,1-.51,8.15,62,62,0,0,1-1.65,8,82.36,82.36,0,0,1-6.12,15.13c-2.5,4.84-5.32,9.51-8.21,14.12L163.3,209l-35,55.14-8.86,13.73c-3,4.57-5.87,9.16-9,13.63-6.18,9-12.58,17.78-19.29,26.36-3.35,4.29-6.73,8.55-10.24,12.73a127,127,0,0,1-11.79,11.29c-2,1.8-4.07,3.61-6,5.49a73,73,0,0,0-5.64,5.9c-.89,1-1.63,2.17-2.43,3.27s-1.78,2.06-2.65,3.11a9.79,9.79,0,0,0-2.07,3.48,5.38,5.38,0,0,0,.25,3.93Z"/><path d="M461.75,81.74a11.61,11.61,0,0,1,2.1-1.46,11.21,11.21,0,0,1,2.46-.79c1.68-.35,3.34-.7,5-1.13s3.32-.9,5-1.4a31.17,31.17,0,0,1,5.34-1.38,10.66,10.66,0,0,1,3.31.1,8.75,8.75,0,0,1,3.47,1.57,7.27,7.27,0,0,1,2.44,8.53,9.25,9.25,0,0,1-2.55,3.63,11.58,11.58,0,0,1-3.41,2,17.38,17.38,0,0,1-3.11.89c-.94.2-1.77.33-2.62.47l-4.77.7c-.75.13-1.49.23-2.2.38l-1.05.23-.49.11-.4.09a13.45,13.45,0,0,0-1.87.74c-.71.36-1.57.79-2.47,1.18a26.05,26.05,0,0,1-5.47,1.66,9.36,9.36,0,0,1-3.36.18,4.64,4.64,0,0,1-1.93-.77,3.67,3.67,0,0,1-1.28-1.72,4.45,4.45,0,0,1,.28-3.36,24.14,24.14,0,0,1,1.37-2.32C457.35,87,459.16,84,461.75,81.74Zm0,0a14.63,14.63,0,0,0-3.14,4,30.3,30.3,0,0,0-2,4.7,15.51,15.51,0,0,0-.67,2.36,2,2,0,0,0,.35,1.64c.3.24.49.14.92,0a6.83,6.83,0,0,0,1.64-.81,23.63,23.63,0,0,0,3.71-2.81c.56-.5,1.08-1.06,1.78-1.67a15.31,15.31,0,0,1,2.51-1.88c.26-.15.51-.29.78-.42l.7-.35c.45-.22.91-.41,1.37-.59a27.73,27.73,0,0,1,2.75-.92,43.2,43.2,0,0,1,5.3-1.1l2.44-.35c.73-.1,1.36-.21,1.85-.32a9.3,9.3,0,0,0,1.1-.33l.62-.32c.12-.08.24,0,.35,0s.15-.37,0-.72a2.84,2.84,0,0,0-.89-1,5.07,5.07,0,0,0-1.72-.73,24.38,24.38,0,0,0-4.84-.45c-1.73,0-3.45-.07-5.17,0s-3.43.1-5.13.22a8.44,8.44,0,0,0-2.47.56A9.52,9.52,0,0,0,461.75,81.74Z"/><path d="M485.2,97.89a13.71,13.71,0,0,0-4.77.52,6,6,0,0,0-2.08,1.17,5.62,5.62,0,0,0-1.37,1.93,5.76,5.76,0,0,0,0,4.62,8.4,8.4,0,0,0,3.23,3.38c1.34.86,2.79,1.57,4.18,2.44a11.54,11.54,0,0,1,3.6,3.43,12.07,12.07,0,0,1,1.89,4.68,11.06,11.06,0,0,1,.16,2.56,14,14,0,0,1-.28,2.55,7.73,7.73,0,0,1-2.74,4.68,9,9,0,0,1-5.25,1.65,33.83,33.83,0,0,1-10-1.69l-4.64-1.36a7.24,7.24,0,0,0-1.85-.33c-.46,0-.68.13-.74.25a1.37,1.37,0,0,0-.25.63,2.37,2.37,0,0,0,0,1.09,2.3,2.3,0,0,0,.19.47l.42.81.51.77c.17.25.39.49.58.74a31.35,31.35,0,0,0,6.74,5.36c1.33.87,2.72,1.77,4.15,2.81a28,28,0,0,1,4.25,3.7,43.7,43.7,0,0,1,6.17,8.92l4.51,8.57c1.48,2.79,3.05,5.52,4.59,8.26q1.17,2,2.38,4.07l1.21,2c.42.68.78,1.29,1.28,2.17,1.79,3.22,3.08,6,4.48,8.29a15.83,15.83,0,0,0,2,2.75,6.6,6.6,0,0,0,.48.46,3.42,3.42,0,0,0,.46.36,2.1,2.1,0,0,0,.43.28,2.94,2.94,0,0,0,.47.23,6.26,6.26,0,0,0,2.26.53,10.74,10.74,0,0,0,3-.33,25.38,25.38,0,0,0,6.93-3.05A54.07,54.07,0,0,0,534.57,177c.44-.55.86-1.1,1.25-1.65s.75-1.06,1.15-1.71q1.18-1.86,2.2-3.83a50.13,50.13,0,0,0,3.4-8.06c1.73-5.49,2.23-11.3.1-16.27a30.91,30.91,0,0,0-4.76-7.44,78.31,78.31,0,0,0-6.53-6.78q-7.07-6.59-14.28-13.07c-4.79-4.31-9.66-8.55-14.52-12.78a34.32,34.32,0,0,0-8-5.27A30.15,30.15,0,0,0,485.2,97.89Zm0,0a30.48,30.48,0,0,1,9.41,2.12,37.56,37.56,0,0,1,8.26,5c5.06,4,10.19,7.9,15.36,11.76s10.39,7.64,15.64,11.43a90.62,90.62,0,0,1,7.8,6.18,37,37,0,0,1,6.77,8,26,26,0,0,1,3.47,10.6,37.71,37.71,0,0,1-.44,10.84A54.68,54.68,0,0,1,548.55,174c-.65,1.64-1.34,3.25-2.13,4.83a26.56,26.56,0,0,1-1.3,2.44c-.47.82-1,1.59-1.48,2.34a56,56,0,0,1-6.79,8.26,53.72,53.72,0,0,1-8.29,6.93,35,35,0,0,1-10.56,5,23.13,23.13,0,0,1-6.62.78,18.74,18.74,0,0,1-7.1-1.61,14.94,14.94,0,0,1-1.68-.87,14,14,0,0,1-1.58-1.05,13.82,13.82,0,0,1-1.42-1.17,14.42,14.42,0,0,1-1.24-1.23,28.69,28.69,0,0,1-3.67-5c-1.91-3.28-3.13-6.43-4.41-8.88l-1.1-2-1.14-2.2c-.75-1.47-1.49-2.94-2.22-4.43-1.47-3-2.79-6-4.1-9s-2.47-6.18-3.63-9a36.54,36.54,0,0,0-3.91-7.51,21.15,21.15,0,0,0-2.67-3c-1.05-1-2.25-2-3.48-3.11a37.06,37.06,0,0,1-7.31-7.82c-.25-.43-.51-.83-.74-1.28s-.43-.89-.63-1.35l-.5-1.44a8.17,8.17,0,0,1-.34-1.88,8,8,0,0,1,.65-3.65,6.24,6.24,0,0,1,2.71-3.07,6.07,6.07,0,0,1,3.92-.63,12.18,12.18,0,0,1,2.82.89l4.44,2a29.26,29.26,0,0,0,8.75,2.6,6.62,6.62,0,0,0,3.94-.74,5.51,5.51,0,0,0,2.31-3.3,12.28,12.28,0,0,0,.43-2.22,9.61,9.61,0,0,0,.06-2.27,10.23,10.23,0,0,0-1.4-4.33,10.8,10.8,0,0,0-3.14-3.39c-1.28-.93-2.7-1.71-4-2.64a8.59,8.59,0,0,1-3.22-3.64,6.19,6.19,0,0,1,.12-4.78,5.9,5.9,0,0,1,1.43-2,6.16,6.16,0,0,1,2.12-1.15A13.83,13.83,0,0,1,485.2,97.89Z"/><path d="M509.2,258.07c-.14,2.29-.09,4.59,0,6.89a10.15,10.15,0,0,0,.32,3.29,1.3,1.3,0,0,0,.4.53,1.62,1.62,0,0,0,.61.28,2.82,2.82,0,0,0,1.41-.06,16.57,16.57,0,0,0,3-1.4c1-.54,2-1.15,3.08-1.7a19.82,19.82,0,0,1,3.49-1.5,10.46,10.46,0,0,1,4.32-.44,6.88,6.88,0,0,1,1.17.22,7.6,7.6,0,0,1,1.14.36,13.64,13.64,0,0,1,2,1c1.2.7,2.21,1.41,3.06,1.9a20.32,20.32,0,0,0,5.27,2.11,21.86,21.86,0,0,0,2.72.48,24.63,24.63,0,0,0,2.77.13c1,0,2,0,3.07-.08l1.66-.07h0a3.64,3.64,0,0,0-1.12.33,4.37,4.37,0,0,0-2,2,4.45,4.45,0,0,0-.44,2.65,3.72,3.72,0,0,0,.32,1l.08.15s0,.05,0,0l-.46-.71-.9-1.42c-.6-1-1.19-1.92-1.76-2.89s-1.13-2-1.67-2.94c-.43-.72-1-1.63-1.75-2.68-.35-.53-.73-1.1-1.08-1.76-.18-.32-.36-.66-.53-1s-.12-.27-.17-.4l-.14-.33a19.1,19.1,0,0,0-1.28-2.51,14.68,14.68,0,0,0-3.9-4.21c-3.23-2.35-7.87-3.45-12.35-3.66a14,14,0,0,0-6.59,1.18,6.43,6.43,0,0,0-2.61,2.12,5.91,5.91,0,0,0-.72,1.55C509.4,256.93,509.31,257.5,509.2,258.07Zm0,0c.1-.57.18-1.14.29-1.7a6.06,6.06,0,0,1,.68-1.59,7.19,7.19,0,0,1,2.52-2.38,18.21,18.21,0,0,1,6.66-2.26,49.2,49.2,0,0,1,7.12-.58,22.8,22.8,0,0,1,7.51,1.1,19.9,19.9,0,0,1,7,4.09,21.64,21.64,0,0,1,2.77,3.06l.3.42c.09.12.22.31.26.35l.39.43,1,1a35,35,0,0,1,2.52,2.74c.72,1,1.43,1.87,2.12,2.83s1.37,1.9,2,2.87l1,1.45.49.73.21.33c.09.15.18.32.29.53a6.17,6.17,0,0,1,.59,1.83,5.59,5.59,0,0,1-3.19,6,6.16,6.16,0,0,1-2,.54c-.44.05-.77.05-.85.06h-1.79c-1.22,0-2.5-.06-3.83-.2a26.21,26.21,0,0,1-4.06-.75,22.77,22.77,0,0,1-3.9-1.45,23.1,23.1,0,0,1-6.63-4.75c-1.82-1.95-2.78-3.43-4.06-4s-3.51-.61-5.66-.12c-1.08.24-2.2.53-3.32.86a23.1,23.1,0,0,1-3.55.8,4,4,0,0,1-2-.31,3.24,3.24,0,0,1-.86-.6,2.3,2.3,0,0,1-.52-.92,11.69,11.69,0,0,1,.07-3.56C509,262.66,509.06,260.36,509.2,258.07Z"/></svg>