<svg id="Layer_1" data-name="Layer 1" xmlns="http://www.w3.org/2000/svg" viewBox="0 0 600 600"><title>Latvia</title><path d="M50.78,339c.44-3.92.87-7.85,1.59-11.75.35-1.95.8-3.89,1.29-5.82s1.11-3.83,1.8-5.7a69.48,69.48,0,0,1,5-10.91,83,83,0,0,1,6.8-9.94c2.45-3.15,5-6.18,7.38-9.25,1.18-1.54,2.33-3.09,3.4-4.67a50.35,50.35,0,0,0,2.76-4.8,43.14,43.14,0,0,0,3.08-10.51,107.12,107.12,0,0,0,1-11.36c.15-3.9.28-7.91.6-12a64.42,64.42,0,0,1,2.21-12.63,42.45,42.45,0,0,1,5.91-12.27,43.72,43.72,0,0,1,9.75-9.65A81.41,81.41,0,0,1,114.45,201c1.85-.94,3.71-1.84,5.53-2.69l1.37-.64.68-.32c.24-.11.35-.18.53-.27.65-.32,1.41-.76,2.18-1.2,3.12-1.81,6.52-4,10-6A95.68,95.68,0,0,1,146.23,184,53.71,53.71,0,0,1,153,181.6a31.31,31.31,0,0,1,8.21-1.13A21.44,21.44,0,0,1,171.27,183a16,16,0,0,1,2.42,1.54c.38.28.76.58,1.13.88s.68.63,1,1,.66.65,1,1l.84,1,.81,1c.27.41.53.83.79,1.26a19.14,19.14,0,0,1,2.21,5.73,24.43,24.43,0,0,1,.47,5.08c0,1.37,0,2.37,0,3.05a3.52,3.52,0,0,0,.16,1.18,9.18,9.18,0,0,0,1,2.07,20.53,20.53,0,0,0,2.23,2.83,19.73,19.73,0,0,0,1.47,1.43c.52.46,1,.93,1.67,1.41,1.2,1,2.6,2,4.15,3.05a74.69,74.69,0,0,1,10.71,8.55l1.41,1.48,1.36,1.6c.88,1.11,1.8,2.38,2.41,3.33s1.35,2.07,1.92,3.09l.9,1.53.8,1.5.8,1.51.73,1.46c.5,1,1,1.93,1.39,2.87l2.48,5.42a75.4,75.4,0,0,0,4.68,9l1.2,1.74c.42.5.82,1,1.23,1.51s.79.94,1.22,1.33l.62.58a3.23,3.23,0,0,0,.63.55,19.43,19.43,0,0,0,2.6,1.75c.48.19.94.39,1.39.62s1,.28,1.48.46a21.37,21.37,0,0,0,7,.46,77.87,77.87,0,0,0,8.55-.91,31.36,31.36,0,0,0,9.24-2.86,26.44,26.44,0,0,0,4.19-2.65,24.28,24.28,0,0,0,1.94-1.54c.64-.54,1.23-1.05,1.86-1.68a39.19,39.19,0,0,0,6.23-7.71,30,30,0,0,0,3.39-7.88,19.72,19.72,0,0,0,.68-3.67c.11-1.23.29-2.5.32-3.88.23-5.47-1.23-12.3-2.95-20l-.64-3-.32-1.53-.32-1.63c-.43-2.18-.78-4.43-1.07-6.74a69.35,69.35,0,0,1-.43-14.75,53.62,53.62,0,0,1,1.34-8.1,43.52,43.52,0,0,1,3.07-8.35c.31-.7.72-1.37,1.1-2s.76-1.36,1.21-2a43.24,43.24,0,0,1,2.83-3.78,42.32,42.32,0,0,1,6.59-6.24,64.83,64.83,0,0,1,13.55-7.68c2.13-.93,4.18-1.75,6.13-2.5l5.58-2.16,11.05-4.27,5.52-2.14c1.75-.67,3.81-1.52,6.62-2.36a36.16,36.16,0,0,1,10.64-1.6,30.57,30.57,0,0,1,6.69.8,36.79,36.79,0,0,1,5.6,1.84,79.29,79.29,0,0,1,7.15,3.6l5.42,3q5.38,3,10.69,6.25c1.71,1.15,3.73,1.86,5,3.68,1.39,1.61,2.62,3.45,3.92,5.16a25.33,25.33,0,0,0,4.36,4.47l4.73,3.93,4.75,3.88,4.78,3.85c3.24,2.58,6.23,5,9.11,7.28s5.6,4.23,8.17,5.92a41.13,41.13,0,0,0,7.27,4l.86.34.85.26c.56.21,1.12.3,1.68.45a20.72,20.72,0,0,0,3.73.49,79.83,79.83,0,0,0,10.23-.48c2-.18,4.11-.38,6.37-.51s4.67-.15,7-.12a77.1,77.1,0,0,1,26.89,5.69c2.11.84,4.16,1.81,6.2,2.78s4,2.08,5.91,3.29,3.77,2.46,5.62,3.73l2.68,2.05c.9.67,1.72,1.45,2.58,2.17a87.07,87.07,0,0,1,9.42,9.68,51.61,51.61,0,0,1,7.75,12.34,43.15,43.15,0,0,1,2.31,7.38,51.13,51.13,0,0,1,.93,7.31,91.83,91.83,0,0,1-.62,13.27c-.46,4.1-.89,7.89-1.22,11.36-.09.86-.13,1.69-.2,2.54,0,.42-.34.83-.31,1.26a5.93,5.93,0,0,0,.3,1.28c.58,1.69,1.45,3.32,1.83,4.93a67,67,0,0,0,2.23,9.62c.58,1.58,1,3.16,1.71,4.74l1,2.36,1.09,2.35a176,176,0,0,0,10.86,18.94l6.38,9.93.81,1.27.41.63.46.8,1.87,3.29c.61,1.11,1.14,2.3,1.71,3.46l.82,1.76.71,1.85a58.48,58.48,0,0,1,3,32.9,62.69,62.69,0,0,1-15.18,29l-2.37,2.56c-.14.17-.29.34-.44.5a3.6,3.6,0,0,0-.47.53,35.33,35.33,0,0,0-2.06,2.88c-.38.62-.76,1.14-1.17,1.88s-.8,1.36-1.25,2.18-.84,1.56-1.37,2.45a12.66,12.66,0,0,1-.82,1.24c-.3.42-.66.88-1,1.29s-.74.83-1.14,1.23-.89.85-1.36,1.26l-1.48,1.18c-.56.4-1.1.8-1.67,1.18-1.13.71-2.39,1.48-3.64,2.18s-2.62,1.36-3.88,2c-2.62,1.28-5.22,2.47-7.69,3.63-1.22.58-2.47,1.11-3.63,1.71s-2.44,1-3.63,1.45a34.41,34.41,0,0,1-15.41,1.8,67,67,0,0,1-6.73-1.11c-2-.4-3.85-.78-5.55-1a22.49,22.49,0,0,0-4.65-.16c-.34,0-.74.05-1,.1s-.55.13-.82.17-.56.19-.84.26l-.42.13-.43.19a18.11,18.11,0,0,0-3.66,2.12,38,38,0,0,0-3.86,3.3l-4.1,4.06c-1.46,1.45-3,3-4.74,4.55a45.12,45.12,0,0,1-6.2,4.47A41.29,41.29,0,0,1,431.63,461a39.86,39.86,0,0,1-7.94-1.17c-1.31-.37-2.61-.74-3.89-1.23A40.51,40.51,0,0,1,416,457a38.2,38.2,0,0,1-12.32-9.78A41,41,0,0,1,397,434.94c-1.48-4.15-2.53-8.19-3.75-12-.61-1.91-1.27-3.76-2-5.54a20.07,20.07,0,0,0-3.22-4.63c-1.2-1.39-2.41-2.75-3.68-4-.62-.63-1.29-1.19-1.94-1.74s-1.34-1-2-1.55a27.67,27.67,0,0,0-8.33-4.06,20.78,20.78,0,0,0-2.17-.53c-.72-.16-1.49-.2-2.21-.34a29.45,29.45,0,0,0-4.47-.08c-1.64.06-3.48.23-5.44.4s-4.06.37-6.37.39a46.31,46.31,0,0,1-7.46-.52l-2-.39c-.69-.19-1.39-.39-2.08-.6a26.36,26.36,0,0,1-4.14-1.72l-2-1.05c-.68-.43-1.36-.91-2-1.39l-1-.73-1-.9a17.11,17.11,0,0,1-1.85-1.95c-.57-.72-1.11-1.47-1.63-2.22s-.88-1.57-1.28-2.38a25.25,25.25,0,0,1-1.62-4.54c-.71-2.83-.95-5.06-1.23-6.74a14.86,14.86,0,0,0-.86-3.4c-.09-.15-.13-.35-.22-.49a3.54,3.54,0,0,1-.26-.41c-.06-.15-.23-.25-.32-.4a2,2,0,0,0-.3-.37,5.62,5.62,0,0,0-1.64-1.12,6,6,0,0,0-2.13-.52,4.53,4.53,0,0,0-1,.05c-.17,0-.3.06-.45.07a4.43,4.43,0,0,1-.55.18,10.74,10.74,0,0,0-2.67,1.52,35.89,35.89,0,0,0-3.51,3c-2.63,2.49-5.61,5.79-10,8.9a35.32,35.32,0,0,1-7.35,3.87,37.76,37.76,0,0,1-7.79,2,46,46,0,0,1-7.54.37,59.93,59.93,0,0,1-7.09-.71c-2.27-.39-4.5-.86-6.65-1.43-1.07-.29-2.14-.56-3.19-.88l-2.92-.85a158.22,158.22,0,0,0-22-4.84c-7.46-1.13-15-1.93-22.6-2.66L199.71,377l-11.56-1c-7.74-.65-15.55-1.09-23.4-1.7l-11.82-.83-11.82-1-23.65-2-5.87-.48c-1.84-.15-3.69-.21-5.54-.18a47,47,0,0,0-11,1.35,31.74,31.74,0,0,0-10,4.26,28.85,28.85,0,0,0-4.16,3.65c-1.37,1.37-2.73,2.82-4.18,4.23a36.44,36.44,0,0,1-4.7,4,15.56,15.56,0,0,1-5.82,2.63,10.75,10.75,0,0,1-3.25.16,12.44,12.44,0,0,1-3.11-.78,13.2,13.2,0,0,1-1.42-.67l-1.35-.84a13.29,13.29,0,0,1-2.28-2.15,16.35,16.35,0,0,1-2.91-5.35,36,36,0,0,1-1.35-5.84,88.54,88.54,0,0,1-.62-11.84A205,205,0,0,1,50.78,339Zm.11,0a182.51,182.51,0,0,0,.17,23.62c.08,2,.22,3.92.36,5.86a54.83,54.83,0,0,0,.69,5.74,32.94,32.94,0,0,0,1.44,5.46,14.33,14.33,0,0,0,2.72,4.66,10.82,10.82,0,0,0,2,1.75l1.14.66a12.13,12.13,0,0,0,1.22.53,8.76,8.76,0,0,0,5.08.36,12.58,12.58,0,0,0,4.76-2.42,34.48,34.48,0,0,0,4.15-3.9c1.32-1.42,2.59-2.91,3.92-4.4a35.55,35.55,0,0,1,4.38-4.28,35.61,35.61,0,0,1,10.86-5.52,54.67,54.67,0,0,1,11.83-2.31c2-.19,4-.27,6-.26l5.92.08,23.66.37c15.77.28,31.55.35,47.33,1a330.15,330.15,0,0,1,47.07,4.87,203.57,203.57,0,0,1,23,5.64c1.89.55,3.77,1.16,5.68,1.65s3.84.89,5.79,1.21a50.43,50.43,0,0,0,5.88.57,36.36,36.36,0,0,0,5.9-.32,27.47,27.47,0,0,0,5.72-1.47,24.57,24.57,0,0,0,5.2-2.79,75.68,75.68,0,0,0,8.69-8c2.79-2.75,5.81-5.44,9.52-6.87a15.41,15.41,0,0,1,11.54.23,15,15,0,0,1,8.14,8.16,24.45,24.45,0,0,1,1.5,5.7c.31,1.95.55,3.91,1,5.82a13,13,0,0,0,2.55,5.29,10.18,10.18,0,0,0,1,1.06l.52.52.6.44c.4.28.79.58,1.2.86l1.31.7c3.48,1.9,7.52,2.4,11.44,2.53s7.89-.14,11.83,0a36.13,36.13,0,0,1,5.87.66c1,.26,1.92.45,2.86.75s1.89.58,2.78,1a33.16,33.16,0,0,1,9.87,6.41,55.74,55.74,0,0,1,7.62,9c4.47,6.5,8.05,13.56,12.34,20.18a64.73,64.73,0,0,0,7.18,9.38,35.26,35.26,0,0,0,9.34,7.17,32.65,32.65,0,0,0,23,2.35,32.12,32.12,0,0,0,5.56-2,33.27,33.27,0,0,0,5.06-3c3.19-2.33,6.11-5,9.17-7.47s6.32-4.82,10.06-6.12a17.35,17.35,0,0,1,5.79-1,30.61,30.61,0,0,1,5.89.48c3.89.63,7.7,1.77,11.64,2a21.87,21.87,0,0,0,11.47-2.24,27.08,27.08,0,0,0,9.17-7.32,58.85,58.85,0,0,0,6.36-10c1.86-3.47,3.62-7,5.7-10.36a46.27,46.27,0,0,1,3.4-4.84c1.26-1.51,2.63-2.93,4-4.39A46.72,46.72,0,0,0,548.94,372a41.46,41.46,0,0,0,.94-11.75c-.1-1-.09-2-.28-2.94l-.46-2.92-.7-2.88c-.2-1-.58-1.88-.86-2.83l-.46-1.4-.56-1.37c-.38-.91-.71-1.84-1.14-2.73-.87-1.77-1.73-3.54-2.69-5.27l-5.62-10.41a178.18,178.18,0,0,1-10-21.42l-1-2.78-.89-2.82c-.64-1.87-1-3.8-1.56-5.71A74.25,74.25,0,0,1,521.91,283c-.2-2-.14-3.94-.16-5.91,0-1,.09-2,.13-2.95s.11-2,.19-2.95c.4-3.93,1-7.82,1.59-11.73a78.75,78.75,0,0,0,1-11.78,39.9,39.9,0,0,0-.52-5.88,30.17,30.17,0,0,0-1.57-5.69,37,37,0,0,0-6.15-10,62.15,62.15,0,0,0-8.42-8.28,66.82,66.82,0,0,0-43.85-14.95c-7.91.16-15.59,2.43-23.48,2.73A34.43,34.43,0,0,1,429,204.11a46.56,46.56,0,0,1-10.72-5c-6.76-4.1-12.71-9.34-18.86-14.26s-12.44-9.69-18.88-14.25-13-8.93-19.7-13.1l-5-3.09a49.29,49.29,0,0,0-5.18-2.86,14.45,14.45,0,0,0-5.7-1.4A20.19,20.19,0,0,0,339,151c-1.91.51-3.77,1.16-5.64,1.79l-5.61,1.88-11.22,3.77c-3.73,1.27-7.49,2.46-11.16,3.9A46.71,46.71,0,0,0,295,167.78a25.23,25.23,0,0,0-7.73,8.79,29.21,29.21,0,0,0-2.18,5.49,36.8,36.8,0,0,0-1.08,5.8c-.85,7.87.47,15.77,2.09,23.46s3.29,15.51,2.86,23.43a34.71,34.71,0,0,1-2.49,11.51,42.84,42.84,0,0,1-6,10.17,69.24,69.24,0,0,1-17.6,15.66,60.65,60.65,0,0,1-10.62,5.18c-.93.31-1.85.7-2.8,1l-2.85.8-2.9.57c-1,.21-2,.25-2.94.38A33,33,0,0,1,229,279c-.93-.31-1.89-.57-2.81-.92l-2.69-1.25a32.91,32.91,0,0,1-4.88-3.34,35.3,35.3,0,0,1-7.52-9.07,89.17,89.17,0,0,1-5.22-10.61c-1.57-3.62-3.06-7.28-4.81-10.81-.42-.89-.88-1.76-1.36-2.62s-1-1.72-1.49-2.55a26.33,26.33,0,0,0-3.58-4.69c-5.42-5.74-12.69-9.42-17.75-15.58-2.5-3-4.62-6.55-5.17-10.5a33.45,33.45,0,0,1,.05-5.92,10.56,10.56,0,0,0-1.18-5.69,11.33,11.33,0,0,0-4.08-4.14,12,12,0,0,0-5.63-1.49,30.78,30.78,0,0,0-11.49,2.4c-7.38,2.8-14.15,6.92-21.16,10.54-1.75.91-3.59,1.65-5.41,2.39s-3.64,1.52-5.44,2.33a72.33,72.33,0,0,0-10.4,5.6A37,37,0,0,0,98.24,221a37.41,37.41,0,0,0-5.56,10.36,62,62,0,0,0-2.56,11.51c-.5,3.91-.83,7.85-1.18,11.77a112.74,112.74,0,0,1-1.64,11.72,45.72,45.72,0,0,1-4,11.13,63.25,63.25,0,0,1-6.9,9.6c-2.55,3-5.2,5.93-7.75,8.94a77.68,77.68,0,0,0-7,9.49,68,68,0,0,0-5.33,10.53C53.29,323.37,51.9,331.2,50.89,339Z"/></svg>