<svg id="Layer_1" data-name="Layer 1" xmlns="http://www.w3.org/2000/svg" viewBox="0 0 600 600"><title>Liberia</title><path d="M86.33,195.6c.87-.69,1.72-1.4,2.61-2.06l2.68-2c.89-.66,1.8-1.28,2.7-1.93s1.82-1.28,2.73-1.91c1.83-1.28,3.73-2.43,5.65-3.56s3.9-2.14,5.86-3.18c7.82-4.15,15.87-8,22.89-13a66.71,66.71,0,0,0,9.74-8.42,48.89,48.89,0,0,0,4-4.89l.88-1.29c.29-.44.54-.9.81-1.34a28.52,28.52,0,0,0,1.45-2.73l.34-.68.29-.71.57-1.41c.33-1,.62-1.92.9-2.89a31.83,31.83,0,0,0,.85-5.88c.18-4-.51-8.15-1.17-12.57-.32-2.22-.64-4.5-.81-6.9-.08-1.21-.15-2.39-.12-3.69,0-.65,0-1.29.08-1.94s.11-1.29.21-1.93a30.4,30.4,0,0,1,2-7.66,22.45,22.45,0,0,1,4.71-7.19A18.18,18.18,0,0,1,164.45,91a22.22,22.22,0,0,1,4.64-.63c1.4,0,2.63,0,3.78,0s2.14,0,3,0a10.26,10.26,0,0,0,2.09-.26,1.59,1.59,0,0,0,.77-.42s0-.07.05-.08l.13-.17a2.36,2.36,0,0,0,.28-.42,6.41,6.41,0,0,0,.76-2.75,22.65,22.65,0,0,0-.46-4.61c-.17-1-.37-2.18-.54-3.49-.09-.65-.13-1.36-.19-2.06s-.09-1.39-.09-2.09a36.55,36.55,0,0,1,.75-8.33,38.33,38.33,0,0,1,2.63-8.15A32.59,32.59,0,0,1,187,50a28.65,28.65,0,0,1,7.39-6.2c.72-.4,1.47-.76,2.22-1.12l.57-.27.65-.26c.44-.18.88-.32,1.32-.47a23.72,23.72,0,0,1,5.37-1,27.44,27.44,0,0,1,10.08,1.12c.15,0,.52.17.83.28l.94.37a15.16,15.16,0,0,1,1.71.86,19.38,19.38,0,0,1,2.72,1.88c1.45,1.2,2.4,2.19,3,2.73s.88.69.7.52l-.07,0,.09,0,.24.09.51.15a3.66,3.66,0,0,0,1.79,0,1,1,0,0,0,.28-.11,4.93,4.93,0,0,0,.52-.24c.44-.23,1.1-.63,1.94-1.16l1.42-.89.83-.51.45-.27.6-.33A27.18,27.18,0,0,1,238,43a31.75,31.75,0,0,1,9.61-1.41,39,39,0,0,1,8.87,1,44.11,44.11,0,0,1,8.18,2.72A43.52,43.52,0,0,1,272,49.38,52.52,52.52,0,0,1,284,60.45a51.79,51.79,0,0,1,4.53,6.6A64.87,64.87,0,0,1,292,74c1,2.34,1.91,4.7,2.69,7.06s1.39,4.73,2,7.07c1.13,4.7,1.9,9.32,2.57,13.85s1.18,9.16,1.56,13.73.69,9.12.86,13.67.29,9.07.35,13.59,0,9.18-.18,13.67l-.1,3.38c-.05,1.14-.07,2.14-.19,3.66-.24,2.73-.66,5.07-1,7.14a27.64,27.64,0,0,0-.47,5.31,3.92,3.92,0,0,0,.94,2.73c.1.14.31.23.42.36s.4.2.56.31a5.21,5.21,0,0,0,1.35.45,22.57,22.57,0,0,0,4.36.33l3,0c1.12,0,2.25,0,3.65.13a30.4,30.4,0,0,1,9.34,2.16,20.77,20.77,0,0,1,2.64,1.3c.45.27.89.53,1.34.83l.65.44.53.38c1.42,1,2.59,2.06,3.5,2.82a16.13,16.13,0,0,0,1.93,1.54,1.5,1.5,0,0,0,.74.34,17.26,17.26,0,0,0,12.94-.74,14,14,0,0,0,5.25-4,7.3,7.3,0,0,0,.77-1.22c.11-.21.22-.41.34-.61l.37-.85A27.86,27.86,0,0,0,356,178.4c.78-3.43,1.23-7.6,2-12.38.38-2.4.84-5,1.55-7.76a44.78,44.78,0,0,1,3.28-9.13,33.77,33.77,0,0,1,3-5,31.15,31.15,0,0,1,4.28-4.75,32.05,32.05,0,0,1,5.31-3.85c.94-.52,1.86-1,2.85-1.45s2.06-.82,3.11-1.19a32,32,0,0,1,13.1-1.3,38,38,0,0,1,11.18,3.12,46.92,46.92,0,0,1,8.69,5.07,55.86,55.86,0,0,1,7,6c1.08,1.06,2.09,2.16,3.08,3.28.51.55,1,1.15,1.45,1.73l.71.87.61.8c.8,1.07,1.62,2.13,2.4,3.22l2.24,3.31a104.55,104.55,0,0,1,12.86,29,118.28,118.28,0,0,1,3,15.47,31.24,31.24,0,0,1,.31,7.85,52.28,52.28,0,0,1-1.69,7.79,56.56,56.56,0,0,0-1.66,7.4c-.42,2.46-.9,4.91-1.46,7.34s-1.18,4.86-1.88,7.26-1.42,4.79-2.24,7.15-1.72,4.65-2.72,7.07a75.85,75.85,0,0,1-3.42,7.25,81,81,0,0,1-8.75,13c-1.6,1.94-3.24,3.74-4.84,5.49l-2.4,2.57-2.19,2.29a21,21,0,0,0-2.67,3.41,13.21,13.21,0,0,0-.8,1.49c-.18.44-.3.81-.39,1.11a3.09,3.09,0,0,0-.09,1.19,3.67,3.67,0,0,0,1.2,1.61,9.81,9.81,0,0,0,2.89,1.7,20.73,20.73,0,0,0,4.42,1,57.32,57.32,0,0,0,5.84.42l3.37.1c1.29.07,2.64.13,3.91.28a107,107,0,0,1,14.22,2.66,117,117,0,0,0,12.13,2.45c.94.12,1.86.21,2.78.28l3.36.22c2.34.17,4.8.4,7.38.82a42.72,42.72,0,0,1,8.15,2.09,26.42,26.42,0,0,1,8.5,5,23.08,23.08,0,0,1,6.08,8.72,39.63,39.63,0,0,1,2.2,8.34c.41,2.39.71,4.38,1.11,5.88a22.64,22.64,0,0,0,1.69,4.29A32.38,32.38,0,0,0,506.2,347q2,1.91,4.3,3.76t4.85,3.75l2.53,2c.43.32.69.88,1.17,1.16s1,.5,1.52.73c2.1.89,4.49,1.51,6.47,2.78a99.59,99.59,0,0,1,11.8,9.25,62.28,62.28,0,0,1,5.71,6c.93,1.08,1.76,2.27,2.61,3.45.42.59.85,1.18,1.26,1.78l1.13,1.86a63.11,63.11,0,0,1,6.7,15.69,79.75,79.75,0,0,1,2.7,16.12,120.82,120.82,0,0,1-2.19,30.64c-3.83,19-9.72,35.25-11.09,49.26a61.57,61.57,0,0,0-.34,10.19c0,1.81.19,3.81.34,5.85.08,1.07.19,2.09.25,3.21a23.08,23.08,0,0,1-.1,3.4,29.3,29.3,0,0,1-1.91,7.4c-.53,1.27-1.06,2.57-1.65,3.86s-1.24,2.61-1.83,3.88c-.32.65-.62,1.29-.91,1.92s-.59,1.28-.87,1.92l-.42.94c-.13.34-.23.59-.39,1-.29.81-.6,1.61-.91,2.4A42,42,0,0,1,534.7,546a20.91,20.91,0,0,1-3.33,4.54,20.21,20.21,0,0,1-9.24,5.36,25.31,25.31,0,0,1-4.67.82c-.76.06-1.53.09-2.28.09h-.57l-.48,0-1,0c-1.3,0-2.55-.15-3.81-.25s-2.49-.3-3.71-.47c-2.46-.32-4.82-.84-7.18-1.32A133.36,133.36,0,0,1,485,550.81c-2.17-.73-4.3-1.48-6.41-2.23s-4.18-1.46-6.31-2.14c-8.41-2.86-17-5.31-25.54-7.89s-17-5.36-25.27-8.67c-2.07-.8-4.11-1.69-6.15-2.58s-4-1.85-6-2.93-3.88-2.28-5.75-3.55-3.7-2.69-5.53-4.06c-3.65-2.78-7.26-5.66-11-8.12-.94-.63-1.9-1.21-2.85-1.81s-1.93-1.15-2.91-1.68c-2-1-3.88-2.22-5.88-3.22-3.93-2.11-7.95-4.06-12-6l-6.08-2.84c-2-1-4-2-6-3s-4-2-6-3.06-4-2.07-5.93-3.19l-5.89-3.28-5.82-3.43c-7.75-4.6-15.4-9.44-22.81-14.7-1.89-1.26-3.68-2.67-5.52-4s-3.66-2.71-5.44-4.13l-2.69-2.11-2.63-2.15c-1.77-1.43-3.5-2.9-5.22-4.37-13.79-11.79-26.34-24.64-38.62-37.29s-24.27-25.23-37-36.64-26.41-21.68-41.38-29.43c-.93-.48-1.88-.95-2.82-1.41s-1.77-.83-2.71-1.23c-1.83-.78-3.79-1.49-5.83-2.2-4.07-1.43-8.48-2.8-13-4.73-1.11-.49-2.23-1-3.34-1.58l-.83-.44c-.29-.16-.53-.26-.88-.49a22.33,22.33,0,0,1-2-1.26,20,20,0,0,1-5.83-6.9,45.45,45.45,0,0,1-2.74-6.89,41,41,0,0,0-2.13-5.44,21.58,21.58,0,0,0-7.58-7.84,93.1,93.1,0,0,0-11.23-6A183.7,183.7,0,0,1,81.84,282.8c-7.46-5.09-14.6-11.06-19.71-18.71a40.24,40.24,0,0,1-5.57-12.48A36.2,36.2,0,0,1,56,238.1c.21-1.11.32-2.23.63-3.31a30,30,0,0,1,.92-3.24l.55-1.59c.19-.52.44-1,.66-1.54l.65-1.54.76-1.49a66.47,66.47,0,0,1,7.37-11.08,147.77,147.77,0,0,1,18.88-18.64Zm.06.07c-6.46,6.05-12.76,12.32-18,19.34-1.32,1.75-2.54,3.56-3.69,5.4-.58.92-1.16,1.83-1.66,2.79l-.79,1.42c-.25.48-.46,1-.69,1.46l-.69,1.46-.58,1.5c-.2.5-.42,1-.59,1.5l-.47,1.52a27.6,27.6,0,0,0-.79,3.1c-.27,1-.34,2.11-.51,3.16A34,34,0,0,0,58.85,251a36.69,36.69,0,0,0,2.26,6,39.78,39.78,0,0,0,3.29,5.5c5,7,12,12.52,19.4,17.17a185.42,185.42,0,0,0,23.45,12.09,99,99,0,0,1,12,5.9A27.4,27.4,0,0,1,129,307c2.29,4,3.22,8.42,5.31,12.17a14.1,14.1,0,0,0,4.16,4.75,32.18,32.18,0,0,0,5.82,2.88c4.07,1.62,8.34,2.79,12.58,4.08,2.12.64,4.24,1.32,6.33,2.1s4.12,1.68,6.13,2.6c16.12,7.49,30.78,17.74,44.22,29.26s25.73,24.33,37.93,37.15,24.24,25.83,37.27,37.83a285.93,285.93,0,0,0,42.12,32.23,447.86,447.86,0,0,0,46.61,25.4c16,7.63,32.24,14.64,48.58,21.47l49.11,20.22c8.2,3.31,16.39,6.77,25,9A57,57,0,0,0,513.24,550a17.9,17.9,0,0,0,6.54-.9,12.07,12.07,0,0,0,5.45-3.64,13.3,13.3,0,0,0,2.68-6,23,23,0,0,0,.36-3.3c.1-1.1.1-2.21.13-3.32a122.14,122.14,0,0,0-.73-13.25c-.42-4.4-.92-8.81-1.14-13.23a76.15,76.15,0,0,1,.38-13.25,148.07,148.07,0,0,1,5.76-25.89c2.51-8.49,5.32-16.89,7.49-25.48a104,104,0,0,0,3.45-26.26c-.08-8.82-1.8-17.77-6-25.6l-.78-1.46-.9-1.4c-.6-.93-1.18-1.87-1.87-2.74a51.8,51.8,0,0,0-4.33-5,97.58,97.58,0,0,0-10-8.72c-7-5.43-14.41-10.36-20.61-16.71a39.64,39.64,0,0,1-7.67-10.76,32.44,32.44,0,0,1-2.14-6.27c-.48-2.17-.73-4.37-1.05-6.56a30.2,30.2,0,0,0-1.53-6.44,14.13,14.13,0,0,0-3.71-5.43,17.56,17.56,0,0,0-5.69-3.34,33,33,0,0,0-6.42-1.62c-17.83-.06-34.67-7.65-52.58-6.63a30.54,30.54,0,0,1-6.49-1.33,19.42,19.42,0,0,1-5.84-3.1,14.39,14.39,0,0,1-4.16-5.1,12.15,12.15,0,0,1-1-6.49,18.07,18.07,0,0,1,2.08-6.26,30,30,0,0,1,3.78-5.44c2.95-3.31,5.89-6.62,8.55-10.16a62.3,62.3,0,0,0,6.88-11.32A72,72,0,0,0,426.47,245a115.84,115.84,0,0,0,3.45-26.27,101.82,101.82,0,0,0-3-26.31A91.84,91.84,0,0,0,416.88,168l-1.76-2.81c-.61-.93-1.25-1.83-1.88-2.74a45.87,45.87,0,0,0-4.18-5.15,39.82,39.82,0,0,0-4.88-4.48,29.64,29.64,0,0,0-5.59-3.54,21.23,21.23,0,0,0-6.3-2,15.7,15.7,0,0,0-16.39,8.81c-2.08,3.93-3,8.31-3.88,12.64s-1.48,8.73-2.55,13a45.07,45.07,0,0,1-2,6.32c-.22.51-.44,1-.67,1.52l-.8,1.46a22.82,22.82,0,0,1-1.81,2.78,27.63,27.63,0,0,1-10.3,8.19,28.26,28.26,0,0,1-3.07,1.26c-1,.38-2.13.61-3.19.92a30.43,30.43,0,0,1-6.59.7,25.51,25.51,0,0,1-12.72-3.29c-3.89-2.23-6.15-6.44-10.17-8.45s-8.45-2.56-12.73-3.62a24,24,0,0,1-6.2-2.32,12.7,12.7,0,0,1-4.72-4.57,13.13,13.13,0,0,1-1.61-6.37,36.71,36.71,0,0,1,.62-6.61c.35-2.18.77-4.36.94-6.56s.18-4.43.25-6.64c.1-4.42.12-8.85,0-13.27-.56-17.68-2.38-35.42-7-52.52C285.27,82.18,281.72,73.85,276,67S262.78,54.9,254.11,52.93A26.07,26.07,0,0,0,241,53,24,24,0,0,0,235.09,56,18.82,18.82,0,0,1,229,58.61a14,14,0,0,1-6.59-.32A13.7,13.7,0,0,1,219.37,57a13,13,0,0,1-2.58-2.09c-1.55-1.55-3.08-3.29-5.22-3.94a17.65,17.65,0,0,0-6.53-.88,13.83,13.83,0,0,0-3.25.56,20.29,20.29,0,0,0-3,1.3A20,20,0,0,0,193.59,56a26.34,26.34,0,0,0-6,11.68,34.33,34.33,0,0,0-.42,13.17,25,25,0,0,1,.07,6.63,12.87,12.87,0,0,1-2.63,6,9.15,9.15,0,0,1-2.52,2.16,9.84,9.84,0,0,1-3.15,1,30.08,30.08,0,0,1-6.64-.09,22.45,22.45,0,0,0-6.6.11A12.53,12.53,0,0,0,160,99.91c-3.24,3-5,7.35-5.8,11.66s-.39,8.82,0,13.21a73.47,73.47,0,0,1,.51,13.26,34.52,34.52,0,0,1-1.29,6.52c-.35,1.05-.72,2.09-1.14,3.12l-.7,1.51-.35.75-.4.73a46,46,0,0,1-8,10.53,69,69,0,0,1-10.35,8.3c-7.39,4.91-15.55,8.46-23.49,12.34-4,1.94-7.93,3.94-11.75,6.18-1,.57-1.9,1.13-2.83,1.74s-1.85,1.21-2.76,1.84a60.6,60.6,0,0,0-5.18,4.14Z"/></svg>