<svg id="Layer_1" data-name="Layer 1" xmlns="http://www.w3.org/2000/svg" viewBox="0 0 600 600"><title>Luxembourg</title><path d="M216.36,64.76c1.18-1.53,2.44-3,3.65-4.47s2.44-3,3.77-4.4A25.51,25.51,0,0,1,228.2,52a18,18,0,0,1,5.45-2.5,16.44,16.44,0,0,1,6.09-.43,28.62,28.62,0,0,1,5.84,1.4c3.74,1.24,7.17,2.7,10.78,3a54.66,54.66,0,0,0,11.11-.33l5.73-.66c1.94-.24,3.91-.44,5.93-.55,1-.07,2.05,0,3.08-.07s2.1.11,3.16.19a25.62,25.62,0,0,1,6.42,1.57l1.59.65c.5.27,1,.57,1.5.85a17.1,17.1,0,0,1,1.47.91l1.39,1.06a23.83,23.83,0,0,1,4.58,5.2A35.42,35.42,0,0,1,307,74.58a82.91,82.91,0,0,1,1.32,12.22l.94,23.13.94,23.09.48,11.49c.17,3.76.43,7.36.89,10.76a47.58,47.58,0,0,0,2.16,9.43,34.12,34.12,0,0,0,4,7.78q2.65,3.79,6.28,8.05c2.4,2.81,5,6.06,7.48,9.27A196,196,0,0,1,345,210.05a188.2,188.2,0,0,1,10.82,21.81c1.63,3.87,2.88,7.32,4.25,10.12a17.35,17.35,0,0,0,4,5.77,5.42,5.42,0,0,0,1.73,1,16.13,16.13,0,0,0,3.33.61c3,.33,7,.14,12.5,1.09a26,26,0,0,1,8.91,3.34c.74.48,1.48,1,2.18,1.52s1.38,1.16,1.95,1.75,1.17,1.21,1.62,1.78l.72.89.62.85c1.61,2.26,2.67,4.25,3.55,5.72a17.52,17.52,0,0,0,1.94,2.85,1.15,1.15,0,0,1,.19.17s.05.06,0,0-.08-.07,0,0l.75.11c.45,0,1.05.06,1.8,0,1.54-.05,3.58-.19,6.26-.22.64,0,1.41,0,2.12.08s1.54.13,2.34.26,1.58.24,2.34.43,1.52.38,2.25.61a37.19,37.19,0,0,1,7.84,3.48,64.33,64.33,0,0,1,6.06,4.06c1.77,1.38,3.39,2.67,4.81,3.9l2.07,1.73.95.81.9.73a20.74,20.74,0,0,0,3,2.05,3.83,3.83,0,0,0,1.54.54,1.14,1.14,0,0,0,.25,0s.08,0,.12,0l.85-.09c1.25-.15,2.81-.46,5.16-.83.65-.1,1.26-.19,2-.27l1.16-.11.59,0,.68,0,1.39,0c.46,0,1.07,0,1.6.08a15.89,15.89,0,0,1,1.69.19c.62.1,1.24.22,1.85.36a14.89,14.89,0,0,1,1.93.58c.65.23,1.29.46,1.92.75s1.25.64,1.86,1c.3.17.6.35.89.54l.8.58c.53.4,1.05.81,1.56,1.24a16.93,16.93,0,0,1,1.28,1.25c.41.43.8.86,1.19,1.3s.61.81.92,1.22l.87,1.24c.27.41.45.76.68,1.14a25.14,25.14,0,0,1,1.25,2.3c.37.82.73,1.65,1.07,2.49s.51,1.49.75,2.24.41,1.46.57,2.14.34,1.39.46,2c.22,1.26.47,2.59.59,3.75.58,4.81.8,9.1.92,13.18s.14,7.94.36,11.3l.1,1.18,0,.58.06.5.31,2.72c.22,2.13.41,4.31.55,6.54a85.23,85.23,0,0,1-.3,14.11,60.65,60.65,0,0,1-3.63,15.23,52.32,52.32,0,0,1-3.56,7.53,43.73,43.73,0,0,1-5.41,7.47,50.31,50.31,0,0,1-6.45,6c-2.13,1.69-4.35,3.18-6,4.25s-3.09,2-4.11,2.78a10.08,10.08,0,0,0-1.84,1.63c-.23.28,0,.17.22-.24a2.84,2.84,0,0,0,.3-.68c.08-.22.11-.29.11-.22a5.74,5.74,0,0,1,0,.76,11.61,11.61,0,0,1-.28,1.76c-.16.77-.38,1.68-.64,2.71s-.52,2.23-.75,3.53c-.52,3.09-1,6.52-1.93,10.1a30.25,30.25,0,0,1-4.76,10.07,37.29,37.29,0,0,1-6.37,6.9c-2,1.78-4,3.22-5.7,4.44-3.35,2.45-6.32,4.51-8.46,6.32-1.05.88-1.84,1.72-2.53,2.41a16.63,16.63,0,0,0-1.49,1.94,13.38,13.38,0,0,0-1.87,5.42,59.47,59.47,0,0,0-.52,9.35c0,3.54.22,7.46.18,11.76l0,1.61,0,1.38-.06,2.78,0,5.62.06,11.54v11.07c.12,3.24.76,7.28.94,11.8a45.21,45.21,0,0,1-.21,7.43,24.75,24.75,0,0,1-2.68,8.8,21.07,21.07,0,0,1-15.92,10.76,23.12,23.12,0,0,1-4.89,0,22.36,22.36,0,0,1-4.48-.93,35,35,0,0,1-7.24-3.37c-2.09-1.25-3.86-2.58-5.53-3.8s-3.31-2.49-4.86-3.73c-.79-.61-1.55-1.29-2.36-1.85s-2.2-.48-3.05-1c-1.66-1-3.32-2-4.92-3-3.21-1.93-6.39-3.64-9.3-5A82.51,82.51,0,0,0,348.3,531a17.8,17.8,0,0,0-6.3-1l-.72,0h-.35l-.36.07a14.37,14.37,0,0,1-1.44.23l-1.83.44c-.62.13-1.23.39-1.85.56a52.89,52.89,0,0,0-15.07,8.46c-2.57,2-5.15,4.12-7.78,6.45-1.31,1.16-2.65,2.38-4,3.62l-2,1.89c-.66.63-1.28,1.21-1.94,1.8l-.48.43-.35.35-1.07,1c-.75.71-1.56,1.47-2.45,2.26a58.67,58.67,0,0,1-6.4,5.06,45.08,45.08,0,0,1-4.15,2.49,35.58,35.58,0,0,1-5.78,2.37,31.23,31.23,0,0,1-7.2,1.31,31.84,31.84,0,0,1-7.05-.37,42.52,42.52,0,0,1-5.35-1.27c-1.46-.44-2.7-.88-3.75-1.26a29.86,29.86,0,0,0-3.11-1,17.14,17.14,0,0,0-5.49-.45c-.85.05-2.55.27-5.09.55a42.38,42.38,0,0,1-10.4,0,30.76,30.76,0,0,1-6.94-1.76,32.43,32.43,0,0,1-3.46-1.56,35.89,35.89,0,0,1-3.11-1.91,30.61,30.61,0,0,1-2.76-2.15L219,556.56c-.4-.37-.73-.76-1.09-1.14a23.54,23.54,0,0,1-3.31-4.59,18.72,18.72,0,0,1-2.35-7.71,22.31,22.31,0,0,1,0-3c.08-.84.21-1.65.33-2.27a3.81,3.81,0,0,0,.13-1,6,6,0,0,0,0-1,6.49,6.49,0,0,0-2.08-4.55c-1.49-1.62-3.95-2.85-7.15-3.61a65.15,65.15,0,0,0-10.93-1.21c-8-.45-17.88-1.17-26.54-7.94a36.05,36.05,0,0,1-9.56-11.94,40.62,40.62,0,0,1-4.12-14.57,37.08,37.08,0,0,1,1.88-15.54,30.61,30.61,0,0,1,1.63-3.85c.58-1.15,1.1-2.18,1.67-3.12,1.1-1.91,2.1-3.51,3-4.91s1.51-2.57,1.93-3.51a5.05,5.05,0,0,1,.31-.66l.21-.46c.09,0,.19-.21.34-.5a17.48,17.48,0,0,0,.81-4.12c.15-1,.29-2.29.55-3.6a32.47,32.47,0,0,1,1.12-4.38c.23-.74.59-1.54.9-2.27l.58-1.12.29-.54c.1-.17.19-.28.28-.42.75-1.09,1.48-2.12,2.27-3.06,1.59-1.88,3.2-3.51,4.74-5,3.13-3,5.92-5.81,8.54-8.46a49.92,49.92,0,0,0,3.45-4.07,30.37,30.37,0,0,0,2.67-4.32,19.82,19.82,0,0,0,1.56-4.42,15.42,15.42,0,0,0,.26-4.19,13.46,13.46,0,0,0-1-3.86,9,9,0,0,0-.47-.93,8.56,8.56,0,0,0-.51-.93c-.38-.61-.81-1.23-1.31-1.89-1.93-2.64-4.87-5.47-7.36-9.82a24.09,24.09,0,0,1-1.63-3.55c-.2-.64-.41-1.29-.58-2s-.31-1.38-.4-2a35.18,35.18,0,0,1-.32-7.06c.21-4.31.7-7.94.34-10.59a9.08,9.08,0,0,0-.94-3.23,7.67,7.67,0,0,0-1.82-2.23,14.91,14.91,0,0,0-3.08-1.87c-1.36-.66-3.07-1.36-5.05-2.28a31.67,31.67,0,0,1-6.52-3.95c-.56-.44-1.11-1-1.65-1.47s-.94-1-1.41-1.46-.86-1-1.27-1.5-.8-1-1.15-1.53a58.59,58.59,0,0,1-6.24-11.89c-.77-1.81-1.48-3.53-2.2-5.1s-1.41-3-2.11-4.17a53.14,53.14,0,0,0-5.85-7.77c-2.33-2.74-4.95-5.67-7.61-9a53,53,0,0,1-7.3-11.71c-.53-1.09-.91-2.31-1.36-3.46s-.71-2.41-1-3.62a43.9,43.9,0,0,1-1-7.3,70.62,70.62,0,0,1,.73-13.1c.49-4,1.18-7.67,1.49-11,.08-.84.17-1.69.2-2.48s.06-1.6.06-2.38a29.25,29.25,0,0,0-.35-4.65l-.91-5.74a37,37,0,0,1-.47-7.16,25.75,25.75,0,0,1,.46-4.08c.34-1.61.57-2.27.83-3.22L124,224c2.06-7.51,4.34-15.36,8.19-22.94a50,50,0,0,1,7.26-10.82c.77-.8,1.55-1.67,2.31-2.38s1.52-1.41,2.29-2.07c1.53-1.34,3.07-2.6,4.58-3.82a108,108,0,0,0,8.38-7.21,37.27,37.27,0,0,0,3.46-3.9c.54-.67,1-1.39,1.5-2.1s1-1.54,1.45-2.33a124.32,124.32,0,0,0,9.38-20.45c1.33-3.58,2.58-7.21,3.87-10.85s2.69-7.29,4.21-10.87A196,196,0,0,1,191,103.33c3.77-6.74,7.92-13.23,12.11-19.68s8.69-12.71,13.34-18.83Zm.08.06c-.58.76-1.08,1.59-1.62,2.39s-1.15,1.54-1.7,2.33c-1.06,1.6-2.12,3.21-3.15,4.83-2.07,3.24-4.08,6.52-6,9.85-3.81,6.66-7.74,13.21-11.26,20a194.83,194.83,0,0,0-9.32,20.94c-1.35,3.57-2.56,7.2-3.7,10.85s-2.24,7.36-3.43,11a131.16,131.16,0,0,1-8.75,21.5,43.62,43.62,0,0,1-6.7,9.61,105.49,105.49,0,0,1-8.44,8,81.37,81.37,0,0,0-8.2,8,42.79,42.79,0,0,0-6,9.66c-3.2,6.94-5.12,14.42-6.91,21.88L130,231.25c-.22.93-.46,1.87-.64,2.8a17.82,17.82,0,0,0-.25,2.83c-.07,3.82.95,7.58,1.61,11.36a45,45,0,0,1,.55,11.53c-.24,3.84-.81,7.65-1.23,11.47a63.2,63.2,0,0,0-.49,11.5,34.13,34.13,0,0,0,.85,5.69c.27.92.52,1.85.83,2.76s.65,1.81,1.09,2.67a46.61,46.61,0,0,0,6.2,9.68c2.42,3,5,5.84,7.5,8.77a61.24,61.24,0,0,1,6.76,9.33,82.52,82.52,0,0,1,4.59,10.57,53.88,53.88,0,0,0,5,10.38,22,22,0,0,0,3.74,4.36,26.52,26.52,0,0,0,4.84,3.13c3.39,1.76,7,3.27,9.75,6.05a15.14,15.14,0,0,1,3.16,4.78,16.93,16.93,0,0,1,1.2,5.62c.19,3.85-.55,7.66-.85,11.49a27.05,27.05,0,0,0,0,5.76,15.23,15.23,0,0,0,1.76,5.45c1.81,3.41,4.49,6.23,6.68,9.39a26.91,26.91,0,0,1,1.53,2.44,12.05,12.05,0,0,1,.64,1.3c.19.44.43.86.58,1.32a19.29,19.29,0,0,1,1.17,5.62,21.16,21.16,0,0,1-.69,5.71,28.63,28.63,0,0,1-2.14,5.34,51,51,0,0,1-6.64,9.4c-2.52,2.91-5.13,5.74-7.43,8.83a37.26,37.26,0,0,0-3.1,4.85,17.25,17.25,0,0,0-2,5.39c-.62,3.83.43,7.67.14,11.51a16.19,16.19,0,0,1-1.47,5.55,38.11,38.11,0,0,1-2.75,5.06c-2,3.26-4.39,6.35-5.87,9.91a30.3,30.3,0,0,0-.08,22.52,24.56,24.56,0,0,0,6.5,9.4,24.18,24.18,0,0,0,10.23,5.08,53,53,0,0,0,11.44,1.29c3.85.1,7.7.05,11.53.42a28.51,28.51,0,0,1,11.05,3,24.15,24.15,0,0,1,8.39,7.75c2.16,3.19,3.63,6.79,5.85,9.94a16.62,16.62,0,0,0,4,4.11,11.86,11.86,0,0,0,5.35,2c3.85.48,7.65-.51,11.47-.83a36.5,36.5,0,0,1,11.46.88,42.75,42.75,0,0,1,5.51,1.7,30.37,30.37,0,0,0,5.51,1.65,12.25,12.25,0,0,0,5.71-.31,20.75,20.75,0,0,0,5.16-2.52,78.94,78.94,0,0,0,8.95-7.27,205.72,205.72,0,0,1,18.19-14.17,66,66,0,0,1,20.82-9.66c.94-.2,1.87-.46,2.82-.6l2.85-.43,2.88-.17.72,0,.72,0,1.44.09a33.59,33.59,0,0,1,11.12,2.84c7,3.21,13.07,8.12,18.82,13.2,2.89,2.54,5.72,5.15,8.63,7.66a85.27,85.27,0,0,0,9.09,7.09A22.08,22.08,0,0,0,396,548a13.23,13.23,0,0,0,5.69.55,12.11,12.11,0,0,0,9.09-6.36,15.22,15.22,0,0,0,1.46-5.54,31.66,31.66,0,0,0-.08-5.76c-.34-3.83-1.11-7.61-1.59-11.42l-1.69-23c-.28-3.83-.49-7.67-.67-11.51s-.63-7.67-.91-11.5a72.77,72.77,0,0,1-.1-11.53,39.24,39.24,0,0,1,.93-5.69,25.69,25.69,0,0,1,2.09-5.36,26.13,26.13,0,0,1,3.3-4.72,39.21,39.21,0,0,1,4.15-4c3-2.45,6.15-4.61,9.26-6.87s6.19-4.66,8.37-7.85a15.14,15.14,0,0,0,2.3-5.25,20.4,20.4,0,0,0,.44-5.73c-.22-3.83-.9-7.66-.53-11.51a15.46,15.46,0,0,1,1.56-5.52,17.41,17.41,0,0,1,3.44-4.6c2.77-2.7,6.14-4.63,9.41-6.63a42.26,42.26,0,0,0,9.15-7,32.16,32.16,0,0,0,6.18-9.67,46.3,46.3,0,0,0,3.12-11.07,72.48,72.48,0,0,0,.78-11.5c0-1.92-.09-3.84-.2-5.76s-.23-3.84-.25-5.76c0-7.69.55-15.4-.26-23.06a32,32,0,0,0-1-5.66A15.89,15.89,0,0,0,467,303.6a7.84,7.84,0,0,0-4.56-3.28,15.55,15.55,0,0,0-5.73,0c-1.9.29-3.79.65-5.7.85a15.83,15.83,0,0,1-5.74-.26c-3.78-.9-7-3.19-9.94-5.67s-5.61-5.26-8.49-7.8a31.24,31.24,0,0,0-9.6-6.27,17.71,17.71,0,0,0-5.62-1.11c-1.92-.09-3.84,0-5.77,0a19.31,19.31,0,0,1-5.71-.69,10.93,10.93,0,0,1-4.79-3.11c-2.61-2.88-4.05-6.54-6.27-9.67a13.92,13.92,0,0,0-4.08-4,15.76,15.76,0,0,0-5.36-2c-3.78-.73-7.66-.57-11.49-.93a26,26,0,0,1-5.66-1.08,16,16,0,0,1-5-2.79,27,27,0,0,1-6.77-9.24c-1.7-3.46-3-7.08-4.54-10.61A188.77,188.77,0,0,0,323,196.17c-4.55-6.19-9.95-11.75-14-18.3a41,41,0,0,1-4.67-10.52,59.23,59.23,0,0,1-1.9-11.37c-.57-7.69-.2-15.39-.15-23.07l.32-23.07.31-23.08a76,76,0,0,0-.64-11.49,30.42,30.42,0,0,0-3.49-10.9,19.65,19.65,0,0,0-3.59-4.47l-1.1-.92c-.37-.31-.8-.53-1.19-.8s-.8-.53-1.22-.77l-1.3-.61a26.76,26.76,0,0,0-11.24-2c-7.67,0-15.36,1.54-23,.45-3.85-.48-7.39-2.13-11-3.47a28.12,28.12,0,0,0-5.54-1.54,15.67,15.67,0,0,0-5.71.21c-3.77.84-7,3.12-9.86,5.69a55.25,55.25,0,0,0-7.49,8.74Z"/></svg>