<svg id="Layer_1" data-name="Layer 1" xmlns="http://www.w3.org/2000/svg" viewBox="0 0 600 600"><title>marshallislands</title><path d="M456.07,137.71a20.67,20.67,0,0,1-3.81.65,11.12,11.12,0,0,0-3.23.69,3.69,3.69,0,0,0-1.66,1.58,1.54,1.54,0,0,0-.2.74c0,.16.08.13.12.19l-1.64-1.14c4.72.65,9.41,1.07,14.29,1.44l-1.4,2.21a15.12,15.12,0,0,0-.87-3A18.13,18.13,0,0,0,456.1,138a9.46,9.46,0,0,1,3.16,1.91,11.38,11.38,0,0,1,2.36,3l.88,1.64-2.28.56a33.88,33.88,0,0,1-15.45.05l-1.11-.26-.53-.89a4.86,4.86,0,0,1-.53-3.38,5.82,5.82,0,0,1,1.29-2.62,6.81,6.81,0,0,1,4.45-2.36,10.23,10.23,0,0,1,4.16.63C453.73,136.72,454.85,137.24,456.07,137.71Z"/><path d="M443.06,177.06c-1.32.62-2.6,1.15-3,1.84-.25.34-.3.68-.21.8s.18.09.33.28a10,10,0,0,0,.74.81l.55.51.5.4a1.85,1.85,0,0,0,.35.23c.11.06.11.08.18.11s.11.08,0,.25l-.7,1.61a14.26,14.26,0,0,0,.2-3,19.53,19.53,0,0,0-.49-3.59,6.62,6.62,0,0,1,3.24,2.54,8.65,8.65,0,0,1,1.5,4.06l.08.82-.78.79a5,5,0,0,1-6.54.22,8.39,8.39,0,0,1-1-.84,9.55,9.55,0,0,1-.8-.86,7.27,7.27,0,0,1-1.35-2.41,4.51,4.51,0,0,1,.27-3.47,4.15,4.15,0,0,1,2.39-1.95,4.49,4.49,0,0,1,2.51-.06A6.7,6.7,0,0,1,443.06,177.06Z"/><path d="M427.22,184.14a3.12,3.12,0,0,0,.88,2.88,3.55,3.55,0,0,0,2.79.44c.49-.08,1-.2,1.48-.32s.69-.33.57-.44-.48.2-.5.22-.06-.19-.15-.48a22.58,22.58,0,0,0-.75-2.24,11.19,11.19,0,0,0-1.19-2.4,2.31,2.31,0,0,0-.85-.78,1,1,0,0,0-1.11.25A4.56,4.56,0,0,0,427.22,184.14Zm0,0a10.78,10.78,0,0,1,.62-3.27,2.33,2.33,0,0,1,1.57-1.35,4,4,0,0,1,2.2.11,8.2,8.2,0,0,1,3.44,2.05,7.68,7.68,0,0,1,2.08,3.54,5.61,5.61,0,0,1,0,2.72,3.91,3.91,0,0,1-.86,1.63,3.61,3.61,0,0,1-1.54,1,4.38,4.38,0,0,1-2.62,0,14.94,14.94,0,0,1-1.72-.72,6.55,6.55,0,0,1-2.85-2.45A5.47,5.47,0,0,1,427.22,184.14Z"/><path d="M488.84,218.09a1.77,1.77,0,0,0-1.53.59,1.8,1.8,0,0,0-.35.53c-.09.2-.16.4-.24.61-.14.42-.29.91-.5,1.49-.1.28-.11.44,0,.37a.94.94,0,0,0,0-.85c-.13-.3-.23-.36-.18-.36l.33.06c.49.12,1,.21,1.46.3a28.7,28.7,0,0,0,3,.35l-1.65,1.36a2,2,0,0,0,.57-1.5,4,4,0,0,0-.17-1.18,3.71,3.71,0,0,0-.7-1.3,2.89,2.89,0,0,1,1.75.18,4.18,4.18,0,0,1,1.53,1.13,4.71,4.71,0,0,1,1,4.09l-.21.9-1.44.46a10.38,10.38,0,0,1-4.33.43,11.26,11.26,0,0,1-2.15-.45,6,6,0,0,1-1.37-.62,4,4,0,0,1-1.51-1.61,3.33,3.33,0,0,1-.36-1.38,3.08,3.08,0,0,1,.21-1.25,3.67,3.67,0,0,1,.79-1.28,10.12,10.12,0,0,1,1.63-1.5,5,5,0,0,1,1.15-.6,3.29,3.29,0,0,1,1.33-.2A2.14,2.14,0,0,1,488.84,218.09Z"/><path d="M442.55,213.88a12.16,12.16,0,0,0-1.27,4.52,9,9,0,0,1-.71,2.3,4.27,4.27,0,0,1-1.67,1.86,6,6,0,0,1-2.47.6,12.46,12.46,0,0,0-2.26.29,10.6,10.6,0,0,0-3.89,1.89,10.4,10.4,0,0,0-2.71,3.12c-.18.28-.32.61-.45.86,0,.09,0,.11.08-.14a1.42,1.42,0,0,0-.31-1c-.18-.19-.2-.17-.08-.14l.51.15,1,.28a20.89,20.89,0,0,0,4.14.6,17.87,17.87,0,0,0,2.07,0,5.7,5.7,0,0,0,.84-.08,2.09,2.09,0,0,0,.5-.17c.37-.15,1-.64,2-1.1a12.75,12.75,0,0,1,2.7-1,18.87,18.87,0,0,1,5.27-.42c.84,0,1.65.11,2.45.19l1.18.13c.14,0,.19,0,.08.06a1.17,1.17,0,0,0-.5.43c-.08.16,0,.17,0,.06s.11-.35.17-.52l.32-1.1c.21-.74.4-1.48.56-2.23.62-3,1.06-6.15,0-9a3.84,3.84,0,0,0-3.52-2.39A4.63,4.63,0,0,0,442.55,213.88Zm0,0a5,5,0,0,1,4-2.19,4.9,4.9,0,0,1,2.36.52,4.45,4.45,0,0,1,1.78,1.74,13.65,13.65,0,0,1,1.51,4.69,30.91,30.91,0,0,1,.36,4.9c0,.82,0,1.64-.08,2.46l-.09,1.23c0,.22,0,.38-.06.65A3.07,3.07,0,0,1,452,229a2.66,2.66,0,0,1-1.44,1.1,4.45,4.45,0,0,1-1.09.17l-1.2.09-2.28.19a21.21,21.21,0,0,0-4.1.76,10.1,10.1,0,0,0-1.7.72c-.49.23-1.08.73-2.15,1.24a6.64,6.64,0,0,1-1.75.53,11,11,0,0,1-1.51.14,19.67,19.67,0,0,1-2.66-.14,19.42,19.42,0,0,1-5.11-1.32c-.41-.16-.81-.35-1.2-.54l-.58-.31a4.17,4.17,0,0,1-1.08-.77,2.65,2.65,0,0,1-.58-1,2.5,2.5,0,0,1-.1-1.13,2.92,2.92,0,0,1,.48-1.24,11.32,11.32,0,0,1,.85-1.12,12.89,12.89,0,0,1,4.25-3.2,13.05,13.05,0,0,1,5-1.24,15.29,15.29,0,0,1,2.47.11,4.44,4.44,0,0,0,2.16-.14,3.41,3.41,0,0,0,1.63-1.43,7.6,7.6,0,0,0,.88-2.14C441.51,216.86,441.67,215.22,442.55,213.88Z"/><path d="M406.55,236.31a41,41,0,0,0,3.3,4.95,3,3,0,0,0,2.28,1.12,16.77,16.77,0,0,0,2.81-.36l1.49-.26c.48-.09,1.06-.17,1.4-.27a3.06,3.06,0,0,0,.94-.38.59.59,0,0,0,.31-.38c0-.09,0-.14,0-.3s-.06-.41-.11-.7a9.9,9.9,0,0,0-.78-2.06,21.55,21.55,0,0,0-2.73-4.21,9.65,9.65,0,0,0-4.23-2.65,12.54,12.54,0,0,0-2.71-.69,2.48,2.48,0,0,0-2.32.71,3.54,3.54,0,0,0-.59,2.69A7.78,7.78,0,0,0,406.55,236.31Zm0,0a10.42,10.42,0,0,1-1.13-2.76,4.48,4.48,0,0,1,.18-3.09,3.15,3.15,0,0,1,1.18-1.25,5.21,5.21,0,0,1,1.62-.6,16.09,16.09,0,0,1,3.23-.28,15.77,15.77,0,0,1,3.3.35,11,11,0,0,1,1.71.56,8.51,8.51,0,0,1,1.64,1,14.43,14.43,0,0,1,4.38,5.29,10.62,10.62,0,0,1,1.06,3.59,6.91,6.91,0,0,1-.15,2.27,4.72,4.72,0,0,1-3.55,3.49,6.56,6.56,0,0,1-2,.13,14.56,14.56,0,0,1-1.59-.22L415,244.5a18.28,18.28,0,0,1-3.14-.67,4.6,4.6,0,0,1-1.51-.88,5.22,5.22,0,0,1-1-1.29c-.5-.92-.87-1.83-1.33-2.72S407,237.18,406.55,236.31Z"/><path d="M440.93,256.34a7.16,7.16,0,0,0,2.87,2.08,26.05,26.05,0,0,0,3.4,1.13,6.66,6.66,0,0,0,3.33.14,18.83,18.83,0,0,0,3.17-1.38,12.79,12.79,0,0,1,3.88-1.16,11.29,11.29,0,0,1,2.1-.09,3.4,3.4,0,0,0,1.28,0,.69.69,0,0,0-.53.18c-.21.17-.2.21-.17.06l.25-1.4a5.88,5.88,0,0,0-.15-2.36,2.93,2.93,0,0,0-1.08-1.55,6.23,6.23,0,0,0-2.31-1,11.31,11.31,0,0,0-3-.3,14.41,14.41,0,0,0-1.66.12c-.72.09-1.33.1-2,.12a34.22,34.22,0,0,0-7.13.45,4.59,4.59,0,0,0-2.94,1.67,2.06,2.06,0,0,0-.16,1.7A5.69,5.69,0,0,0,440.93,256.34Zm0,0a6.21,6.21,0,0,1-.88-1.57,2.32,2.32,0,0,1,.05-1.79,5.54,5.54,0,0,1,2.88-2.24,69.15,69.15,0,0,1,7-2.29,12.73,12.73,0,0,0,1.56-.55,14.27,14.27,0,0,1,1.85-.67,12.3,12.3,0,0,1,4.14-.52,9.15,9.15,0,0,1,4.44,1.27,7.31,7.31,0,0,1,3.18,4.06,9.5,9.5,0,0,1,.13,4.75,17.79,17.79,0,0,1-.66,2.08,4.28,4.28,0,0,1-1,1.59,3.51,3.51,0,0,1-2.15.9,6.41,6.41,0,0,1-2.28-.41,12.17,12.17,0,0,0-1.48-.32,10,10,0,0,0-3.18.06,21.42,21.42,0,0,1-3.77.48,9.34,9.34,0,0,1-3.71-1c-1.1-.53-2.18-1.05-3.24-1.62A8.49,8.49,0,0,1,440.93,256.34Z"/><path d="M448,263.88a4.58,4.58,0,0,0-1.28.15,2.63,2.63,0,0,0-1.08.67A2.82,2.82,0,0,0,445,267a2.25,2.25,0,0,0,.38,1,2.28,2.28,0,0,0,.8.67c.65.35,1.48.53,2.42,1a5.81,5.81,0,0,1,2.41,2.45,17.75,17.75,0,0,1,1.1,2.71c.13.4.28.75.4,1.07a3.29,3.29,0,0,0,.2.42c.06.19.14.07-.25-.36a1.8,1.8,0,0,0-.69-.42c-.18-.06-.26-.06-.27-.07a.8.8,0,0,1,.2,0l.33,0,1.3,0h1.2a1.53,1.53,0,0,0-.7.31,1.2,1.2,0,0,0-.47.63,2.23,2.23,0,0,0,.13-.35c.06-.16.12-.33.17-.51.1-.34.2-.7.29-1.05a15.48,15.48,0,0,0,.45-4.61,12.73,12.73,0,0,0-.41-2.43,10.53,10.53,0,0,0-.42-1.19,2.36,2.36,0,0,0-.66-.9,5.61,5.61,0,0,0-2.25-1.08A10.67,10.67,0,0,0,448,263.88Zm0,0a20.62,20.62,0,0,1,2.6.16,8.3,8.3,0,0,1,2.6.69,3.61,3.61,0,0,1,1.18.9c.29.35.59.71.86,1.08a15.11,15.11,0,0,1,1.48,2.41,13.35,13.35,0,0,1,1.45,5.69,9.54,9.54,0,0,1-.06,1.51c0,.26-.06.51-.1.76a5,5,0,0,1-.2.91,3.36,3.36,0,0,1-1.19,1.69,3.5,3.5,0,0,1-1.93.67l-1.4,0h-1.62l-.45,0a3.6,3.6,0,0,1-.92-.16,3.1,3.1,0,0,1-1.25-.74,3.23,3.23,0,0,1-.86-1.49c-.08-.28-.15-.55-.2-.82a12,12,0,0,1-.19-1.46c-.06-.9-.06-1.69-.14-2.33a3,3,0,0,0-.63-1.68c-.45-.55-1.23-1.1-1.91-1.87a3.79,3.79,0,0,1-.78-1.37,3.45,3.45,0,0,1-.11-1.49,3.77,3.77,0,0,1,1.29-2.37A3.52,3.52,0,0,1,448,263.88Z"/><path d="M490.86,277.61a8.88,8.88,0,0,0-4.22.54,4.21,4.21,0,0,0-2.59,3,5.52,5.52,0,0,0,.74,3.8,10.7,10.7,0,0,0,2.73,2.89,11.93,11.93,0,0,0,3.24,2,12.42,12.42,0,0,0,1.77.34,11.86,11.86,0,0,1,2.43.59,23.47,23.47,0,0,1,4.17,2.19,14.67,14.67,0,0,0,3.21,1.65,6.34,6.34,0,0,0,.68.19l.33,0c.13,0,.12,0-.05,0a1.73,1.73,0,0,0-1,.59,1.33,1.33,0,0,0-.35.69s0-.17.05-.27l0-.36a6.71,6.71,0,0,0-.11-1.48,9.72,9.72,0,0,1-.43-2.8,4,4,0,0,1,.71-2.06,4.69,4.69,0,0,1,1.28-1.23c.81-.53,1.44-.79,1.78-1s.41-.19.51-.5a1.73,1.73,0,0,0-.29-1.17,2.18,2.18,0,0,0-1.17-.92c-.56-.23-1.35-.38-2.13-.76-1.58-.81-2.27-2.1-3.43-2.88A15.73,15.73,0,0,0,490.86,277.61Zm0,0a22,22,0,0,1,8.26,2.51c1.34.65,2.48,1.78,3.61,2.05.56.15,1.23.11,2.06.22a4.58,4.58,0,0,1,2.53,1.16,4.51,4.51,0,0,1,1.46,2.68,3.77,3.77,0,0,1-.2,1.83,4.13,4.13,0,0,1-1,1.47c-.72.74-1.38,1.15-1.71,1.51-.16.17-.22.3-.19.33s.08-.06.1,0,.23.58.53,1.4a9.23,9.23,0,0,1,.51,2.77c0,.23,0,.47,0,.71a5.74,5.74,0,0,1-.07.81,3.44,3.44,0,0,1-.76,1.67,3.16,3.16,0,0,1-1.94,1.06,4.46,4.46,0,0,1-1.13,0l-.74-.08a8.94,8.94,0,0,1-1.4-.34,15.9,15.9,0,0,1-4.37-2.41,35.88,35.88,0,0,0-3.21-2.25,11.64,11.64,0,0,0-1.67-.74,14.34,14.34,0,0,1-2.32-1,8.72,8.72,0,0,1-2-1.64c-.53-.58-1-1.12-1.49-1.72a13.53,13.53,0,0,1-2.34-4,6.94,6.94,0,0,1,0-4.61,4.94,4.94,0,0,1,3.18-3A10.17,10.17,0,0,1,490.86,277.61Z"/><path d="M497.15,300.87a11.5,11.5,0,0,0-1.3-.26,1.88,1.88,0,0,0-1.21.38,2.68,2.68,0,0,0-1.07,2.17,6.87,6.87,0,0,0,1.67,4.51,12.06,12.06,0,0,0,3.73,2.68c1.41.72,3,1.47,4.54,2.39l.48.29.14.08a1.17,1.17,0,0,0-.47,0,1.79,1.79,0,0,0-.59.25,1.5,1.5,0,0,0-.46.48c-.2.34-.15.42-.11.28s.09-.32.13-.48c.07-.32.15-.66.19-1a9.36,9.36,0,0,0,0-2.12,5.83,5.83,0,0,0-.19-1.08c-.1-.39-.24-.8-.39-1.23a8.17,8.17,0,0,1-.63-3c0-.51.12-1,.15-1.35a2.37,2.37,0,0,0-.16-1.14,2.25,2.25,0,0,0-1.84-1.47C498.91,301.09,498,301.07,497.15,300.87Zm0,0a19.46,19.46,0,0,0,2.65.22,3.63,3.63,0,0,1,1.34.34,3,3,0,0,1,1.08,1c.14.21.25.4.38.64a4.54,4.54,0,0,1,.24.74c.1.47.18.92.29,1.3a6.25,6.25,0,0,0,1.31,1.9c.29.33.59.68.9,1.09a9.37,9.37,0,0,1,.84,1.36,9.6,9.6,0,0,1,1,3.09,10.08,10.08,0,0,1,.09,1.65c0,.28,0,.56-.07.84a3.44,3.44,0,0,1-.53,1.52,3.2,3.2,0,0,1-.93.94,3.25,3.25,0,0,1-1.21.49,3.72,3.72,0,0,1-1.77-.1A8.25,8.25,0,0,1,501,317a29.28,29.28,0,0,1-4.49-3.19,11.87,11.87,0,0,1-3.44-5,10.18,10.18,0,0,1-.13-5.78,3.52,3.52,0,0,1,1.64-2.2,2.2,2.2,0,0,1,1.32-.27A9.3,9.3,0,0,1,497.15,300.87Z"/><path d="M518.45,351.6a21.47,21.47,0,0,0-1.5,3.19,2.34,2.34,0,0,0,.19,1.63,2.78,2.78,0,0,0,1.16,1.12,5.39,5.39,0,0,0,3.22.31,26.53,26.53,0,0,0,3.37-.73,31.74,31.74,0,0,0,6.19-2.57c1-.51,1.91-1.06,2.82-1.64.46-.28.91-.59,1.34-.89s.6-.45.65-.56l.12-.17,0-.05a1.19,1.19,0,0,0,0,.79,1.08,1.08,0,0,0,.58.74.6.6,0,0,0-.2-.09,14.77,14.77,0,0,0-2.89-.41l-3.47-.2c-.6,0-1.2-.08-1.84-.14-.33,0-.63-.06-1-.13l-.32-.06-.18-.05-.27-.08-.19-.09-.13-.08-.26-.16a9.1,9.1,0,0,1-2.47-3.12,6.17,6.17,0,0,0-1-1.29,2.66,2.66,0,0,0-.63-.47l-.36-.2-.36-.12a1.09,1.09,0,0,0-1.28.46,4.74,4.74,0,0,0-.6,1.6A26.61,26.61,0,0,1,518.45,351.6Zm0,0a15.61,15.61,0,0,0,.57-3.49,6,6,0,0,1,.44-1.77c.09-.13.17-.28.28-.41a1.91,1.91,0,0,1,.41-.33,1.85,1.85,0,0,1,1-.2l.51.07.46.14a3.2,3.2,0,0,1,.91.4,8,8,0,0,1,1.52,1.2,7.22,7.22,0,0,0,2.5,1.86l.15,0,.07,0s0,0,0,0l0,0h0l.11,0,.75-.13,1.7-.35c1.16-.24,2.36-.47,3.61-.62a13.3,13.3,0,0,1,4.16.06,5.23,5.23,0,0,1,1.47.52,3.61,3.61,0,0,1,1.72,2,3.77,3.77,0,0,1-.14,2.52c-.11.27-.23.5-.35.74l-.38.57a6.87,6.87,0,0,1-2,1.77c-.56.34-1.12.65-1.69.95a22.35,22.35,0,0,1-3.57,1.43,24.86,24.86,0,0,1-7.48,1,32.38,32.38,0,0,1-3.7-.25,7.21,7.21,0,0,1-3.6-1.24,3.54,3.54,0,0,1-1.13-1.52,2.83,2.83,0,0,1,0-1.84C517.18,353.59,518,352.69,518.45,351.6Z"/><path d="M504,350.25a2.69,2.69,0,0,1-2.4-.93,3.24,3.24,0,0,0-2.38-.66,6.91,6.91,0,0,0-1.26.21,8.15,8.15,0,0,0-1.2.36.49.49,0,0,0-.34.48,2,2,0,0,0,.13.74,3.48,3.48,0,0,0,2.56,2.13,14.56,14.56,0,0,0,2,.12c.41,0,.87,0,1.37.06a10.47,10.47,0,0,1,1.66.28,6.45,6.45,0,0,1,3.48,2.15,4.6,4.6,0,0,1,.73,1.3s-.06,0-.21-.09a.55.55,0,0,0-.34,0c-.15,0-.06.13,0,.15s.06,0,.16,0a1,1,0,0,0,.28-.18,9.56,9.56,0,0,0,1.35-2,9.4,9.4,0,0,0,1.05-1.76c0-.17-.2-.5-.5-.75a3.81,3.81,0,0,0-1-.67A14,14,0,0,0,504,350.25Zm0,0a42.13,42.13,0,0,1,5.34.26,6.27,6.27,0,0,1,1.38.42,2.65,2.65,0,0,1,1.33,1.09,2.22,2.22,0,0,1,.25,1.05,4.45,4.45,0,0,1-.09.86L512,355.3a11,11,0,0,1-.7,2.89,4.5,4.5,0,0,1-.52.88,4.12,4.12,0,0,1-3.36,1.6,3.82,3.82,0,0,1-1.58-.45,4,4,0,0,1-1.16-1c-.5-.66-.67-.93-.72-.92a3.33,3.33,0,0,0-1-.43,5.69,5.69,0,0,0-.95-.19l-1.25-.19a10.21,10.21,0,0,1-3.19-.93,6.33,6.33,0,0,1-3.41-6,3.66,3.66,0,0,1,.63-1.83,2.34,2.34,0,0,1,1.76-1c.56,0,.95,0,1.43.05s.92.09,1.38.16a4.29,4.29,0,0,1,2.46,1.21,3.17,3.17,0,0,0,1,.85A3.81,3.81,0,0,0,504,350.25Z"/><path d="M544.65,390a4.32,4.32,0,0,0-2-1.19,8.6,8.6,0,0,0-2.37-.24c-1.59.06-3.18.33-4.8.44a22.62,22.62,0,0,1-4.93-.06,11.43,11.43,0,0,0-2.22-.25,3.18,3.18,0,0,0-1.55.77,4.65,4.65,0,0,0-1.68,3.12,3.22,3.22,0,0,0,1.15,2.68,8,8,0,0,0,3.17,1.64,11.73,11.73,0,0,0,1.91.36c.71.09,1.48.15,2.31.23a14,14,0,0,1,5.51,1.5,8.68,8.68,0,0,1,2.43,2,17.86,17.86,0,0,1,1.55,2.17,10.7,10.7,0,0,0,2.44,3.12,3,3,0,0,0,2.83.62,1.26,1.26,0,0,0,.41-.44,2.34,2.34,0,0,0,.22-.81,4.81,4.81,0,0,0-.28-2c-.49-1.42-1.33-2.82-2-4.34a12.72,12.72,0,0,1-.76-4.81A7.11,7.11,0,0,0,544.65,390Zm0,0a7.86,7.86,0,0,1,1.51,4.49,10.36,10.36,0,0,0,1.2,4.51c.8,1.34,1.89,2.53,2.73,4a7,7,0,0,1,.9,2.59,4.6,4.6,0,0,1-.07,1.56,3.65,3.65,0,0,1-.85,1.58A4.46,4.46,0,0,1,546.9,410a6.78,6.78,0,0,1-3-.63,12.81,12.81,0,0,1-4.26-3.65,8.57,8.57,0,0,0-2.77-2.5,11.7,11.7,0,0,0-3.76-.79c-.76-.09-1.58-.17-2.46-.29a15.31,15.31,0,0,1-2.76-.7,11,11,0,0,1-4.89-3.38,7,7,0,0,1-1.32-6.24,7.54,7.54,0,0,1,3.77-4.49,6.52,6.52,0,0,1,1.36-.53,4.26,4.26,0,0,1,1.6-.12,14.6,14.6,0,0,1,2.45.77,19,19,0,0,0,4.61.84c1.59.12,3.19,0,4.8.07S543.56,388.72,544.65,390Z"/><path d="M434.38,393.48a72.35,72.35,0,0,1-5.77-7.35,6.29,6.29,0,0,0-1.36-1.68,1,1,0,0,0-.71-.17,2.23,2.23,0,0,0-.8.34,4.61,4.61,0,0,0-2,3.17,4.35,4.35,0,0,0,.66,3.32c.26.38.76.78,1.43,1.54a6.06,6.06,0,0,1,1.38,3.08,16.47,16.47,0,0,1-.42,5.31,6.45,6.45,0,0,0,1.77,6.17,6.7,6.7,0,0,0,1.29,1,4.23,4.23,0,0,0,1.22.48,1.78,1.78,0,0,0,1.1-.25,7.4,7.4,0,0,0,1.51-1.13c1-.94,2-2.12,3.09-3.32a22.26,22.26,0,0,1,1.76-1.74c.64-.57,1.34-1,1.92-1.45a4.89,4.89,0,0,0,1.42-1.49,2.06,2.06,0,0,0,.18-1.88,1,1,0,0,0-.64-.61,3.12,3.12,0,0,0-1.07-.05,5.9,5.9,0,0,1-1.19,0,4.27,4.27,0,0,1-1.15-.34A11,11,0,0,1,434.38,393.48Zm0,0a9.69,9.69,0,0,0,3.64,2.79,3.6,3.6,0,0,0,1.1.23,6.46,6.46,0,0,0,1.13-.14,3.59,3.59,0,0,1,1.24-.08,1.6,1.6,0,0,1,1.12.8,3.05,3.05,0,0,1,.22,2.62,6.13,6.13,0,0,1-1.39,2.18A20,20,0,0,0,440,403.6a20.26,20.26,0,0,0-1.2,1.85,41.1,41.1,0,0,1-2.48,4.14,10.73,10.73,0,0,1-1.88,2,5.77,5.77,0,0,1-3.21,1.36,7.4,7.4,0,0,1-3.28-.6,9.44,9.44,0,0,1-2.58-1.57,10.43,10.43,0,0,1-3.28-4.95,10.61,10.61,0,0,1-.42-3,12.33,12.33,0,0,1,.42-2.79,19.89,19.89,0,0,0,.85-3.87,2.22,2.22,0,0,0-.26-1.22,24.52,24.52,0,0,1-1.34-2.2,7.23,7.23,0,0,1,0-5.72,6.66,6.66,0,0,1,3.77-3.77,3.56,3.56,0,0,1,1.42-.27,2.18,2.18,0,0,1,1.43.63,8.5,8.5,0,0,1,1.25,2.15A34.1,34.1,0,0,0,434.38,393.48Z"/><path d="M417.92,413.31a19.78,19.78,0,0,1-2.68.52,19.4,19.4,0,0,0-2.43.33.73.73,0,0,0-.47.32.7.7,0,0,0,0,.32,1.64,1.64,0,0,0,.53,1.07,3.48,3.48,0,0,0,1.61.64c.71.13,1.55.17,2.44.26l.33,0c.09,0,.26,0,.25,0a1,1,0,0,0-.4.3c-.15.24-.09.31-.08.27a3,3,0,0,0,.12-1,4.26,4.26,0,0,0-.81-2.32,3.64,3.64,0,0,1,2.22,1.89,4.12,4.12,0,0,1,.44,1.58,1.41,1.41,0,0,1-.27.9,1.51,1.51,0,0,1-1,.56l-.73.12a12.74,12.74,0,0,1-2.84.22,5.5,5.5,0,0,1-3.25-1.2,4.12,4.12,0,0,1-1.39-3.64,3,3,0,0,1,1.09-2,3.16,3.16,0,0,1,1.93-.68,9.76,9.76,0,0,1,2.84.54A21.51,21.51,0,0,1,417.92,413.31Z"/><path d="M394.36,454.34a4.21,4.21,0,0,0-2.95,2.14c-.55,1.11-.17,2.22.2,3.46a2.51,2.51,0,0,0,.32.71c.11.16.24.16.25.05s0-.22.05-.25a1.79,1.79,0,0,1,.51-.12,22.13,22.13,0,0,1,3.83-.13c.64,0,1.28.09,1.92.18l.18,0-.3.06a2,2,0,0,0-.91.51,1.85,1.85,0,0,0-.51.85.73.73,0,0,0,0,.32v0l0-.16c0-.21.07-.39.11-.57.31-1.41.82-2.55,1.19-3.74a8,8,0,0,0,.36-1.69,1.38,1.38,0,0,0-.61-1.3,3.26,3.26,0,0,0-1.74-.5A7.68,7.68,0,0,0,394.36,454.34Zm0,0a19.32,19.32,0,0,1,1.9-.35,5.37,5.37,0,0,1,2,.05,2.74,2.74,0,0,1,1.78,1.53,9.89,9.89,0,0,1,.7,2.14c.31,1.38.48,2.79.62,3.94q0,.23.06.39a2.4,2.4,0,0,1-.06,1.09,2.69,2.69,0,0,1-.75,1.27,2.91,2.91,0,0,1-1.34.72,3.38,3.38,0,0,1-.78.08h-.3c-.64,0-1.28,0-1.92,0a23.19,23.19,0,0,1-3.87-.57,6.46,6.46,0,0,1-1.39-.43,3.6,3.6,0,0,1-1.55-1.27,3.16,3.16,0,0,1-.5-1.7,5,5,0,0,1,.14-1.2,7.52,7.52,0,0,1,1.72-3.94A7.06,7.06,0,0,1,394.36,454.34Z"/><path d="M371.61,415.05a4.51,4.51,0,0,0-3.69-.28,3.62,3.62,0,0,0-2,2.11,2.79,2.79,0,0,0-.12.59c0,.13,0,.1,0,.12a1.24,1.24,0,0,0,.75.4,2.5,2.5,0,0,0,.72.1c.3,0,.64,0,1,0a6.24,6.24,0,0,1,2.51.35l-1.22,1a11.27,11.27,0,0,0,.12-1.77,16.81,16.81,0,0,0-.17-1.93,5.6,5.6,0,0,1,1.27,1.62,6.82,6.82,0,0,1,.72,2l.19,1h-1.4a7.8,7.8,0,0,0-1.72.29c-.34.07-.71.16-1.12.21a5.43,5.43,0,0,1-1.4,0,3.79,3.79,0,0,1-2.81-1.69,3.14,3.14,0,0,1-.43-1.91,4.39,4.39,0,0,1,.41-1.46,5.16,5.16,0,0,1,4.33-3A4.2,4.2,0,0,1,371.61,415.05Z"/><path d="M390.33,335.49a2.34,2.34,0,0,0-1.89.51,8.89,8.89,0,0,0-1.08,1.7c-.61,1.17-1,2.64-.33,3.69a7.3,7.3,0,0,0,1.33,1.42l1.49,1.4,3,2.75c1,.88,2.07,1.9,3,2.63a5,5,0,0,0,1.32.78,3,3,0,0,0,1.14.13,3.7,3.7,0,0,0,2.16-.92,2.62,2.62,0,0,0,.61-.81,3.55,3.55,0,0,0,.29-1.15l.26-2a8.39,8.39,0,0,1,.27-1.28c.06-.21.15-.47.25-.72s.19-.43.28-.61c.75-1.45,1.5-2.49,2.19-3.59a12.84,12.84,0,0,0,1.58-3,2.48,2.48,0,0,0,.13-1.08,1.4,1.4,0,0,0-.67-.89,2.27,2.27,0,0,0-.58-.32,2.66,2.66,0,0,0-.74-.12,8.24,8.24,0,0,0-1.85.22c-.64.15-1.29.34-2,.51a15.21,15.21,0,0,1-2.08.39A50.75,50.75,0,0,1,390.33,335.49Zm0,0a25,25,0,0,0,8-1.07,23.41,23.41,0,0,0,3.69-1.64,10.18,10.18,0,0,1,2.1-.79,5.14,5.14,0,0,1,1.28-.13,4.38,4.38,0,0,1,1.36.29,4.3,4.3,0,0,1,2.28,1.79,5,5,0,0,1,.66,2.9,14.09,14.09,0,0,1-1.22,4.57c-.55,1.32-1.23,2.6-1.64,3.61-.05.12-.08.22-.12.32l-.06.25c0,.2-.07.44-.11.72-.07.54-.1,1.23-.21,2a8.46,8.46,0,0,1-.87,2.74,7.16,7.16,0,0,1-2,2.28,7.59,7.59,0,0,1-5.45,1.42,6.5,6.5,0,0,1-2.73-1,8.49,8.49,0,0,1-1.87-1.73c-1-1.22-1.61-2.32-2.41-3.46l-2.3-3.4-1.17-1.68a10.42,10.42,0,0,1-1.13-1.82,3.55,3.55,0,0,1-.08-2.18,7.72,7.72,0,0,1,.86-1.89,11.48,11.48,0,0,1,1.2-1.66A2.37,2.37,0,0,1,390.33,335.49Z"/><path d="M408.18,324.21a1.38,1.38,0,0,0-1.4,1.12,4,4,0,0,0,.24,1.72l.16.51c.06.21.11.34.12.31s0-.08-.07-.18a.93.93,0,0,0-.3-.23c-.2-.07-.16,0,0-.08a5.61,5.61,0,0,0,1.69-.47,1.7,1.7,0,0,0,.83-.82,2.18,2.18,0,0,0,.15-1.32,2.63,2.63,0,0,0-3-1.73c1.07-1.37,3.84-1.34,5.09.7a4.16,4.16,0,0,1,.44,3.24,4.37,4.37,0,0,1-.83,1.56,4.61,4.61,0,0,1-1.36,1,6.62,6.62,0,0,1-2.83.63,2.87,2.87,0,0,1-1.15-.16,1.86,1.86,0,0,1-.78-.55,1.92,1.92,0,0,1-.37-.68,2.73,2.73,0,0,1-.14-.83l0-.64a4.08,4.08,0,0,1,.87-2.83,2.47,2.47,0,0,1,1.33-.72A1.36,1.36,0,0,1,408.18,324.21Z"/><path d="M374,315.06c-.57-1.57.26-3.25-.1-4.81a2.51,2.51,0,0,0-1.44-1.71,5.1,5.1,0,0,0-2.26-.44c-.79,0-1.6.1-2.46.1a6.63,6.63,0,0,1-2.61-.54c-.81-.33-1.55-.72-2.25-1a6.07,6.07,0,0,0-1-.35,2.82,2.82,0,0,0-.87-.06,2.12,2.12,0,0,0-1.39.54c-.24.27-.13.42-.06.6a3.09,3.09,0,0,0,.85.75,16.8,16.8,0,0,0,1.84,1,18.61,18.61,0,0,1,7.8,7.5,18.92,18.92,0,0,1,2,5.13,18,18,0,0,1,.39,2.73,22,22,0,0,1,0,2.56,9.68,9.68,0,0,0,.1,1.82A2.36,2.36,0,0,0,373,330a.87.87,0,0,0,.84.3,2.75,2.75,0,0,0,1.41-.82c1.1-1.22,2.28-2.34,3.27-3.56a12.76,12.76,0,0,0,1.32-1.91,3.07,3.07,0,0,0,.48-2c-.4-1.45-1.82-2.48-3.1-3.43S374.53,316.61,374,315.06Zm0,0c.61,1.54,2.06,2.48,3.4,3.34a22.56,22.56,0,0,1,2,1.37,5.23,5.23,0,0,1,1.62,2,4.11,4.11,0,0,1-.13,2.69,15.26,15.26,0,0,1-1.06,2.32c-.8,1.49-1.72,2.85-2.53,4.25a5.69,5.69,0,0,1-2.37,2.13,4.08,4.08,0,0,1-3.81-.21,5.93,5.93,0,0,1-2.33-2.68,10.46,10.46,0,0,1-.73-3c-.1-.89-.17-1.61-.29-2.29a17.43,17.43,0,0,0-.47-2.05,18.11,18.11,0,0,0-1.65-3.87,18.47,18.47,0,0,0-5.63-6.24,15.82,15.82,0,0,1-2.18-1.73,7.61,7.61,0,0,1-1.08-1.3,4.48,4.48,0,0,1-.69-1.92,3.78,3.78,0,0,1,.41-2.11,3.63,3.63,0,0,1,1.42-1.48,4.93,4.93,0,0,1,3.25-.54,4.84,4.84,0,0,1,1.5.46,8.23,8.23,0,0,1,1.17.7c.72.5,1.32,1,2,1.42a5.37,5.37,0,0,0,2,.8c.76.14,1.58.19,2.4.29a6.21,6.21,0,0,1,2.41.78,2.9,2.9,0,0,1,1.42,2C374.26,311.87,373.4,313.46,374,315.06Z"/><path d="M340.36,303.41a4,4,0,0,0-2.58-.62,1,1,0,0,0-.52.42.12.12,0,0,0,0,.17c.05,0,.13,0,.2,0s.18-.2.28,0,.3.49.53.91a9.63,9.63,0,0,1,.77,1.65,4.91,4.91,0,0,1,.13,2.82l-1.62-2.95c.7.28,1.14.39,1.12.46s0,.16.12.12a2,2,0,0,0,.68-.41c.61-.54,1.14-.87,1.48-1.2a1,1,0,0,0-.05-1.63,1.39,1.39,0,0,1,1.5.33,2.39,2.39,0,0,1,.78,1.65,4.64,4.64,0,0,1-.23,1.71c-.17.51-.32.9-.5,1.31a5.51,5.51,0,0,1-.9,1.4,4.2,4.2,0,0,1-2,1.19,6.62,6.62,0,0,1-3.58-.24l-1.62-2.95c0,.12,0,.15-.07-.09s-.22-.6-.4-1.06a9.7,9.7,0,0,1-.58-1.83,4.21,4.21,0,0,1,.4-2.9,3.44,3.44,0,0,1,1.08-1.19,3.64,3.64,0,0,1,3.71-.16,3.44,3.44,0,0,1,1.39,1.45A4,4,0,0,1,340.36,303.41Z"/><path d="M344.19,265.57c1.73,1.86,3.85,3.29,5.58,5.18a17.93,17.93,0,0,1,3.65,6.71,32,32,0,0,1,.92,3.75,9.57,9.57,0,0,1,0,4.06,4.41,4.41,0,0,1-1.07,2,3.68,3.68,0,0,1-2.21,1.12,5.44,5.44,0,0,1-4.35-1.62,17.33,17.33,0,0,1-2.49-3.3l-2.06-3.21-1-1.61c-.34-.53-.68-1.1-1-1.55a5.14,5.14,0,0,0-.91-1.07,2.47,2.47,0,0,0-.89-.47,7.24,7.24,0,0,0-2.77,0,36.75,36.75,0,0,1-4,.48,18.52,18.52,0,0,1-8.48-1.7,20,20,0,0,1-3.69-2.28c-1.09-.85-2-1.73-2.94-2.48a15.52,15.52,0,0,0-2.65-1.84c-.78-.43-2-.68-3.56-1.44a5.55,5.55,0,0,1-2.26-2,4.2,4.2,0,0,1-.59-1.78,3.22,3.22,0,0,1,.74-2.35,3.59,3.59,0,0,1,1.71-1.08,5.72,5.72,0,0,1,1.38-.21c.43,0,.71,0,1,0l1,0c2.55.05,5.12.15,7.7.38a53.82,53.82,0,0,1,7.67,1.17c.63.15,1.26.3,1.88.48a14.26,14.26,0,0,0,1.76.45,3.63,3.63,0,0,0,3-1.34,11.69,11.69,0,0,1,3-2.45,2.7,2.7,0,0,1,2-.29,2.53,2.53,0,0,1,1.42,1.34c.38,1.27-.12,2.58.49,3.75A10.7,10.7,0,0,0,344.19,265.57Zm0,0a10.6,10.6,0,0,1-2.09-3.16c-.63-1.16-.22-2.56-.61-3.71a2.26,2.26,0,0,0-1.33-1.14,2.44,2.44,0,0,0-1.7.38,10.16,10.16,0,0,0-2.66,2.58,7.52,7.52,0,0,1-1.5,1.35,3.63,3.63,0,0,1-2.07.59,15.7,15.7,0,0,1-2-.26c-.62-.11-1.24-.18-1.85-.26a49,49,0,0,0-7.47-.15c-2.5.11-5,.37-7.51.62l-.95.09-.86.09a1.74,1.74,0,0,0-.49.14c-.1,0,0,.08.13-.08a.85.85,0,0,0,.23-.56c0-.11,0-.08.07,0a2.8,2.8,0,0,0,.64.36c.76.33,2.08.49,3.59,1.14a16.82,16.82,0,0,1,3.74,2.26l3,2.32a14.35,14.35,0,0,0,2.78,1.69,15.12,15.12,0,0,0,6.27,1.42c1,0,2.22-.14,3.61-.25a10.54,10.54,0,0,1,4.75.56,6.28,6.28,0,0,1,2.28,1.58,9.68,9.68,0,0,1,1.35,2c.33.63.59,1.19.87,1.76l.83,1.71,1.63,3.45a15.08,15.08,0,0,0,1.67,3,3.27,3.27,0,0,0,2.39,1.35,2.13,2.13,0,0,0,2-1.61,8.15,8.15,0,0,0,.35-3.48,24.49,24.49,0,0,0-.52-3.72,15.7,15.7,0,0,0-3.13-6.76C348,268.92,345.9,267.45,344.19,265.57Z"/><path d="M276.66,232.06a1.43,1.43,0,0,1,.28-1.38c.36-.34.79-.57,1.17-.87a6,6,0,0,0,1.87-2.1,2.7,2.7,0,0,0,0-2.4c-.38-.65-.88-.72-1.77-.83a10.59,10.59,0,0,0-4.9.73,11.42,11.42,0,0,0-1.06.49,4.7,4.7,0,0,0-.86.52c-.21.15-.29.3-.25.28s.09-.28.09-.17a5.84,5.84,0,0,0,.23,1,6.65,6.65,0,0,1,.22,2.08,7.14,7.14,0,0,1-.07.87,3.39,3.39,0,0,0,.25.93c.35.89.69,1.86,1,2.74a7.91,7.91,0,0,0,1,2.18,3.27,3.27,0,0,0,.86.73,6,6,0,0,0,1.16.58c.79.3,1.77.41,2.23-.13a1.46,1.46,0,0,0,.11-1.19,8.37,8.37,0,0,0-.46-1.36A19.61,19.61,0,0,1,276.66,232.06Zm0,0a11.08,11.08,0,0,0,1.24,2.63c.22.43.48.85.67,1.32a2.1,2.1,0,0,1,.12,1.65,2.2,2.2,0,0,1-1.41,1.09,5.64,5.64,0,0,1-1.67.19,9.3,9.3,0,0,1-1.64-.2,5.52,5.52,0,0,1-1.7-.64,9.61,9.61,0,0,1-2.5-2.46c-.62-.84-1.17-1.6-1.73-2.43a6.89,6.89,0,0,1-.88-1.75,6.31,6.31,0,0,1-.23-1.2c0-.35,0-.63-.06-.83a1.74,1.74,0,0,0-.05-.39l-.12-.41a9.39,9.39,0,0,1-.43-1.82,4.71,4.71,0,0,1,.71-3,5.71,5.71,0,0,1,1.87-1.7,8.21,8.21,0,0,1,1.76-.74,10.46,10.46,0,0,1,1.73-.37,11.46,11.46,0,0,1,6.62,1.08,5.47,5.47,0,0,1,1.55,1,3.21,3.21,0,0,1,.92,1.76,4.1,4.1,0,0,1-.88,3.19,8,8,0,0,1-2.34,1.88,11.72,11.72,0,0,0-1.24.76A1.42,1.42,0,0,0,276.66,232.06Z"/><path d="M266.4,273.78a32,32,0,0,0-5.22-5.09,9.47,9.47,0,0,0-2.91-1.36,6.62,6.62,0,0,0-1.44-.19c-.11,0-.23,0-.34,0s-.21,0-.19,0a.54.54,0,0,0,.35-.08,2.1,2.1,0,0,0,.29-.2,3.59,3.59,0,0,0,.16,2c.14.49.34,1,.54,1.61s.41,1.27.59,1.91a29.49,29.49,0,0,1,.78,4c.08.66.13,1.37.17,2a6.11,6.11,0,0,0,.16,1.32c.08.25.08.23.19.35a2.07,2.07,0,0,0,.75.39,28.72,28.72,0,0,0,3.36.63,8.5,8.5,0,0,1,2.36.85c.7.37,1.19.73,1.56.93s.59.25.56.28-.1.06-.24.21-.12.28-.08.22a1.91,1.91,0,0,0,.1-.48l.07-.91.15-1.86.16-1.77a3.26,3.26,0,0,0,0-.53,2,2,0,0,0-.21-.56c-.22-.44-.65-1-1-1.61a12.31,12.31,0,0,1-.85-1.8,12.08,12.08,0,0,1-.77-3.8,18.2,18.2,0,0,0,2,3.12c.39.46.77.91,1.19,1.32s.85.74,1.39,1.29a4.61,4.61,0,0,1,.73,1.05,4.75,4.75,0,0,1,.39,1.28c.12.8.16,1.32.24,2l.19,1.86.09,1a4.79,4.79,0,0,1-.07,1.37,3.54,3.54,0,0,1-1,1.84,3.71,3.71,0,0,1-1.91,1,5.48,5.48,0,0,1-3.05-.43c-.76-.32-1.32-.64-1.74-.82a4,4,0,0,0-1.18-.3,24.29,24.29,0,0,1-4-.58,6.89,6.89,0,0,1-2.53-1.35,5.64,5.64,0,0,1-1.74-2.77,10.68,10.68,0,0,1-.3-2.39c0-.61-.07-1.15-.12-1.73a30.34,30.34,0,0,0-.47-3.39c-.11-.57-.24-1.11-.39-1.69s-.31-1.27-.44-2a9.29,9.29,0,0,1-.11-2.46,5.66,5.66,0,0,1,1.06-2.76,3.23,3.23,0,0,1,.95-.84,2.9,2.9,0,0,1,1.24-.35,3.85,3.85,0,0,1,.75,0c.2,0,.39.05.58.09a8.74,8.74,0,0,1,2.18.73,10.93,10.93,0,0,1,3.37,2.6A19.65,19.65,0,0,1,266.4,273.78Z"/><path d="M290.36,280.44a3.74,3.74,0,0,0-1-1.44,1.77,1.77,0,0,0-1.13-.47,1.17,1.17,0,0,0-.8.29,1.34,1.34,0,0,0-.21.62,9.81,9.81,0,0,0-.06,1.4,1.15,1.15,0,0,0-.13-.29,1,1,0,0,0-.34-.3,1.31,1.31,0,0,0-.21-.08c-.06,0,.12,0,.28.05l.45.08a23,23,0,0,1,3.58.93l-.86.65a3.63,3.63,0,0,0,.39-2.16,3,3,0,0,1,1.19,2.47v.51l-.88.14a23,23,0,0,1-3.69.24h-.46a4.09,4.09,0,0,1-.63-.06,2,2,0,0,1-.64-.23,2,2,0,0,1-.67-.61,2.24,2.24,0,0,1-.36-1.16,9.63,9.63,0,0,1,0-1.07,5.7,5.7,0,0,1,.17-1.17,3.42,3.42,0,0,1,1.8-2.3,3.19,3.19,0,0,1,2.75,0,2.93,2.93,0,0,1,1.58,1.86A2.79,2.79,0,0,1,290.36,280.44Z"/><path d="M342,173.41a11.09,11.09,0,0,0-7.66.69.8.8,0,0,0-.38.3c0,.08.16,0,.24-.19s.08-.15.13,0l.27.84c.44,1.37.82,2.75,1.18,4.15.17.68.33,1.46.47,1.94a5.23,5.23,0,0,0,.29.82c0,.05,0,.15.32.22a2,2,0,0,0,1-.12,9.77,9.77,0,0,0,2.81-2.28,6.38,6.38,0,0,0,2.15-3.41,3.72,3.72,0,0,1,.5,2.34,8.75,8.75,0,0,1-.56,2.36,14.45,14.45,0,0,1-1,2.14,7.36,7.36,0,0,1-1.74,2.12,5.74,5.74,0,0,1-3,1.25,4.88,4.88,0,0,1-3.68-1.08,6.32,6.32,0,0,1-1.84-2.86c-.29-.9-.43-1.53-.62-2.23-.34-1.4-.66-2.8-.92-4.22,0-.34-.14-.71-.21-1.27a4.56,4.56,0,0,1,.22-2.1,3.78,3.78,0,0,1,1.55-1.87,5.14,5.14,0,0,1,1.56-.6A8.86,8.86,0,0,1,342,173.41Z"/><path d="M323,171.8a4.63,4.63,0,0,1-.93,2.37,11.68,11.68,0,0,1-1.79,1.86,23,23,0,0,1-4.24,2.89,6.36,6.36,0,0,1-.58.3,4.9,4.9,0,0,0-.51.25c-.25.18,0,.06-.08.16a5,5,0,0,0,0,.73,6.65,6.65,0,0,0,.11,1,7.2,7.2,0,0,0,.62,1.85,21.72,21.72,0,0,0,1.16,1.86,11.26,11.26,0,0,1,1.36,2.63,6.07,6.07,0,0,1,.31,1.81,3,3,0,0,1-.46,1.77,3.12,3.12,0,0,1-1.63,1.22,6.24,6.24,0,0,1-3.77.08,10.5,10.5,0,0,1-2.86-1.33,16.79,16.79,0,0,1-2.15-1.64L305.62,188a27.12,27.12,0,0,1-3.85-3.78,8.62,8.62,0,0,1-1.47-3.08,14.29,14.29,0,0,1-.37-2.89,13.91,13.91,0,0,1,.59-5.86,7,7,0,0,1,2.15-3,5.46,5.46,0,0,1,1.78-.95,6.91,6.91,0,0,1,1.73-.3c1.05-.06,1.79,0,2.43,0a12.49,12.49,0,0,0,2.1-.3c1.44-.32,3-.85,4.59-1.33.81-.23,1.65-.45,2.52-.63a10.28,10.28,0,0,1,2.82-.23,4.88,4.88,0,0,1,2.9,1.21,3.49,3.49,0,0,1,1.12,2.92,2.66,2.66,0,0,1-.7,1.42,5.16,5.16,0,0,1-1.08.81c-.72.42-1.45.76-1.78,1.55,0-.88.77-1.56,1.31-2.14a4.45,4.45,0,0,0,.7-.87,1.39,1.39,0,0,0,.17-.84,2.07,2.07,0,0,0-1-1.35,2.7,2.7,0,0,0-1.7-.25,14.57,14.57,0,0,0-4.16,1.47,46,46,0,0,1-4.65,2,15.48,15.48,0,0,1-2.72.7c-1,.16-1.89.15-2.48.25a2.28,2.28,0,0,0-.67.19,1.26,1.26,0,0,0-.36.24A2.47,2.47,0,0,0,305,174a10.48,10.48,0,0,0-.11,3.87,11.28,11.28,0,0,0,.27,2,3.56,3.56,0,0,0,.66,1.32,12.91,12.91,0,0,0,1.39,1.52l1.76,1.59,1.74,1.62a16.51,16.51,0,0,0,1.68,1.42,6,6,0,0,0,1.53.86,2.06,2.06,0,0,0,1.07.14,1.38,1.38,0,0,0-.61.55c-.31.53-.2.72-.21.59a2.29,2.29,0,0,0,0-.62,7.64,7.64,0,0,0-.73-1.81,17.9,17.9,0,0,1-1.13-2.49,9.43,9.43,0,0,1-.51-2.91,10.35,10.35,0,0,1,.08-1.47,5.52,5.52,0,0,1,.45-1.67A2.74,2.74,0,0,1,313.9,177c.27-.1.46-.14.64-.2l.57-.16a25,25,0,0,0,4.4-1.78,11.07,11.07,0,0,0,2-1.24A4.44,4.44,0,0,0,323,171.8Z"/><path d="M297,184a20.22,20.22,0,0,1-4.79.69c-.81,0-1.63,0-2.45-.06a3.78,3.78,0,0,0-.92,0,.33.33,0,0,0-.19.08s0,0,.08,0,0,0,0,.1v.53a8.46,8.46,0,0,0,.05,1,2.09,2.09,0,0,0,.47,1.32,1.08,1.08,0,0,0,.43.24,3.35,3.35,0,0,0,.84.17,6.57,6.57,0,0,0,1.93,0,7.63,7.63,0,0,0,.95-.2c.34-.09.5-.18,1.07-.38a3.21,3.21,0,0,1,1.13-.15,2.8,2.8,0,0,1,1.23.4,4.52,4.52,0,0,1,1.19,1.21,3.89,3.89,0,0,0,.48.6.32.32,0,0,0,.22.1,1.29,1.29,0,0,0,1-.5c.49-.62.23-2.16-.69-3.16a6.19,6.19,0,0,0-3.84-2.12,5.88,5.88,0,0,1,4.84,1,5.52,5.52,0,0,1,1.74,2.17,3.91,3.91,0,0,1,0,3.17,3.62,3.62,0,0,1-2.81,2,3,3,0,0,1-2-.47,5.75,5.75,0,0,1-1.14-1.1,2.43,2.43,0,0,0-.46-.48s.3,0,.08.08-.74.3-1.16.42a8.94,8.94,0,0,1-1.36.31,9.66,9.66,0,0,1-2.79,0,6.43,6.43,0,0,1-1.45-.39,3.72,3.72,0,0,1-1.52-1.07,4.71,4.71,0,0,1-1-3.08,11.3,11.3,0,0,1,.09-1.34l.11-.65a2.58,2.58,0,0,1,.39-1,2.08,2.08,0,0,1,.95-.78,2.57,2.57,0,0,1,1-.2,4.74,4.74,0,0,1,1.44.19c.74.2,1.49.38,2.25.53C293.86,183.55,295.42,183.76,297,184Z"/><path d="M237.93,163.57a5.79,5.79,0,0,0-.12,2,14,14,0,0,0,.21,1.94,6,6,0,0,0,1.66,3.36,3.33,3.33,0,0,0,3.15,1c1.13-.23,2.22-.93,3.79-1.25a5.65,5.65,0,0,1,2.55.07,12,12,0,0,1,2.16.84c.62.31,1.19.6,1.69.8a4.89,4.89,0,0,0,1.37.36,5.18,5.18,0,0,0,2.57-.34,3.43,3.43,0,0,0,1-.62,6.63,6.63,0,0,0,1-1,2.18,2.18,0,0,0,.42-.71.82.82,0,0,0,0-.5,5.5,5.5,0,0,0-1.57-2.15,41.76,41.76,0,0,0-6-4.46,14.51,14.51,0,0,0-3.27-1.77,10.34,10.34,0,0,0-3.72-.41,14.25,14.25,0,0,0-3.83.61A4.76,4.76,0,0,0,237.93,163.57Zm0,0a3.42,3.42,0,0,1,1.26-1.48,8.54,8.54,0,0,1,1.74-.93,21.46,21.46,0,0,1,3.81-1.14,13.75,13.75,0,0,1,4.09-.37,16.71,16.71,0,0,1,4.07,1,30.47,30.47,0,0,1,7.6,3.32,11.9,11.9,0,0,1,1.83,1.51,7.15,7.15,0,0,1,1.56,2.31,5.51,5.51,0,0,1,.3,3.35,6.84,6.84,0,0,1-1.37,2.75,11.31,11.31,0,0,1-1.85,1.72,8,8,0,0,1-2.44,1.25,8.67,8.67,0,0,1-5.17,0,8.47,8.47,0,0,1-2.26-1.1,19.69,19.69,0,0,1-1.64-1.28,10.41,10.41,0,0,0-1.31-1,2.9,2.9,0,0,0-1.31-.42c-1.05-.09-2.41.3-3.91.26a4.58,4.58,0,0,1-2.18-.58,5.26,5.26,0,0,1-1.59-1.44,7.48,7.48,0,0,1-1.31-3.79,18.36,18.36,0,0,1-.09-2A6.07,6.07,0,0,1,237.93,163.57Z"/><path d="M122.49,165.52a4.34,4.34,0,0,1-1.82-1c-.52-.47-1-1-1.46-1.37a4.42,4.42,0,0,0-3.12-1,14.55,14.55,0,0,0-3.55.54,4.93,4.93,0,0,0-1.38.59,2.93,2.93,0,0,0-.83.88,12.11,12.11,0,0,0-.82,1.48,14.68,14.68,0,0,0-.7,1.6,7.7,7.7,0,0,0-.51,3,4,4,0,0,0,.8,2.29,7.86,7.86,0,0,0,2.42,1.72,76,76,0,0,0,6.91,3.37,8.07,8.07,0,0,0,1.42.51,1.87,1.87,0,0,0,.68.06.77.77,0,0,0,.48-.37,4,4,0,0,0,.51-1.23,22.14,22.14,0,0,0,.44-3.61,38.2,38.2,0,0,0,0-3.86,47.22,47.22,0,0,0-1-7.89,26.4,26.4,0,0,1,3.4,7.5,28.88,28.88,0,0,1,.82,4.12c.09.7.15,1.4.18,2.11a11.69,11.69,0,0,1,0,2.28,8.06,8.06,0,0,1-.7,2.57,5.16,5.16,0,0,1-2.33,2.39,5.62,5.62,0,0,1-3.24.47,12.1,12.1,0,0,1-2.42-.63,51.9,51.9,0,0,1-7.61-3.42,11.94,11.94,0,0,1-3.92-3.09,8.63,8.63,0,0,1-1.61-5.22,11.37,11.37,0,0,1,1.2-4.79,17.57,17.57,0,0,1,1.12-2,17.07,17.07,0,0,1,1.4-1.86,6.19,6.19,0,0,1,2.25-1.63,7.74,7.74,0,0,1,2.44-.59,14.51,14.51,0,0,1,4.44.27,7.29,7.29,0,0,1,2.17.9,5.13,5.13,0,0,1,1.66,1.65C121.05,163.45,121.37,164.7,122.49,165.52Z"/><path d="M94.47,173.43a3,3,0,0,0-2.88,1.74,2.51,2.51,0,0,0,.89,2.72,4.38,4.38,0,0,0,2.47.69,22.37,22.37,0,0,0,2.79-.18l1.69-.14a3.47,3.47,0,0,1,.44,0c.1,0,.15,0,.13,0s-.12.08-.28.24a1.44,1.44,0,0,0-.37.64c0,.2,0,.23,0,.17a2.58,2.58,0,0,0,.1-.33,7.07,7.07,0,0,0,.18-.69,4.2,4.2,0,0,0,.09-1.41A3.49,3.49,0,0,0,98,174.32,6.84,6.84,0,0,0,94.47,173.43Zm0,0a20.89,20.89,0,0,1,3.75.24,6.91,6.91,0,0,1,2,.64,5.24,5.24,0,0,1,1.8,1.41,6.29,6.29,0,0,1,1.17,2.1,6.85,6.85,0,0,1,.3,1.14c0,.21.07.37.09.6a2.86,2.86,0,0,1-.12,1.07,3,3,0,0,1-.9,1.38,3.47,3.47,0,0,1-1.09.66,7.8,7.8,0,0,1-.77.24c-.19.06-.31.08-.47.12a14.4,14.4,0,0,1-2,.35,8.92,8.92,0,0,1-4.52-.68,6.25,6.25,0,0,1-3.37-3.56,4.58,4.58,0,0,1,.68-4.32A4.43,4.43,0,0,1,94.47,173.43Z"/><path d="M52.8,239.9a3,3,0,0,0-2.3.67,1.08,1.08,0,0,0-.29,1,1.18,1.18,0,0,0,.7.75,7.56,7.56,0,0,0,2.39.27,9.16,9.16,0,0,1,2.74.77c1.71.74,3.2,1.69,4.46,2.2a6.75,6.75,0,0,0,1.71.48,7.52,7.52,0,0,0,.82.05,3.3,3.3,0,0,0,.66,0l-.11,0s.09,0,.11-.06.06,0,.07,0,.08-.08.13-.22a2.24,2.24,0,0,0,0-.65,5.47,5.47,0,0,0-.5-1.69,6.29,6.29,0,0,0-.44-.74,1.58,1.58,0,0,0-.12-.15l-.21-.18a4.78,4.78,0,0,0-.42-.34,11.12,11.12,0,0,0-4.42-1.8A27.89,27.89,0,0,0,52.8,239.9Zm0,0c1.68,0,3.34-.15,5-.28a18.42,18.42,0,0,1,5.36.18,6.06,6.06,0,0,1,.7.19l.36.11.41.18a6.49,6.49,0,0,1,1.4.95,7.7,7.7,0,0,1,2,2.64,6.25,6.25,0,0,1,.48,1.81,5.06,5.06,0,0,1-.28,2.23,4.81,4.81,0,0,1-1.41,2,8,8,0,0,1-.93.63,4.33,4.33,0,0,1-1.29.45,7.94,7.94,0,0,1-3.5-.24,8.43,8.43,0,0,1-2.87-1.5,33.57,33.57,0,0,1-3.57-3.79,6.75,6.75,0,0,0-1.76-1.4,11.61,11.61,0,0,1-2.38-1.15,1.91,1.91,0,0,1-.7-1.25,1.53,1.53,0,0,1,.56-1.22A3.52,3.52,0,0,1,52.8,239.9Z"/></svg>