<svg id="Layer_1" data-name="Layer 1" xmlns="http://www.w3.org/2000/svg" viewBox="0 0 600 600"><title>Mexico</title><path d="M441.34,460.12c1.76,1.76,3.29,3.73,4.89,5.62s3.19,3.79,4.92,5.53a26.86,26.86,0,0,0,5.65,4.56,8.36,8.36,0,0,0,6.55,1.12,7.67,7.67,0,0,0,4.64-4.49c1-2.12,1.69-4.48,2.63-6.87a22.14,22.14,0,0,1,1.76-3.51,34.17,34.17,0,0,1,2.19-3.2,21.62,21.62,0,0,1,5.86-5.35,16.42,16.42,0,0,1,3.72-1.69,21.89,21.89,0,0,1,3.93-.83c2.54-.31,4.89-.5,6.49-1.47a10.19,10.19,0,0,0,1.08-.86c.16-.16.27-.35.42-.51s.14-.17.2-.26l.15-.29A5.12,5.12,0,0,0,497,445a10.17,10.17,0,0,0-.51-3,16.92,16.92,0,0,0-1.36-3,19.1,19.1,0,0,0-4.22-5.1l-.62-.52-.73-.56-1.47-1.12c-1-.76-2-1.53-3-2.34s-2-1.68-3-2.65a15.29,15.29,0,0,1-2.75-3.54,7.35,7.35,0,0,1-.87-2.69,6.25,6.25,0,0,1,.49-3.24,7.7,7.7,0,0,1,1.73-2.37,12.34,12.34,0,0,1,2-1.45,19.11,19.11,0,0,1,3.89-1.77,30.88,30.88,0,0,1,3.93-1.15,52.39,52.39,0,0,1,7.85-1c2.55-.12,5.05-.16,7.47-.25a57.35,57.35,0,0,0,7-.68,27.07,27.07,0,0,0,6.3-2,25.64,25.64,0,0,0,5.49-3.58,42.37,42.37,0,0,0,8.66-10.66c2.42-4.05,4.51-8.46,6.61-12.91a81,81,0,0,0,5.08-13.27,35.39,35.39,0,0,0,1.15-6.61,22.13,22.13,0,0,0-.46-6.24,15.58,15.58,0,0,0-6.65-9.57A24.48,24.48,0,0,0,527,339.86c-.53-.06-1.07,0-1.61-.07s-1.14,0-1.72,0c-1.15,0-2.3.08-3.46.17a58,58,0,0,0-6.84,1,46.09,46.09,0,0,0-12.77,4.47c-1,.51-1.91,1.09-2.83,1.68-.44.31-.91.62-1.33.93l-1.19,1a23.69,23.69,0,0,0-4.06,4.62,33.12,33.12,0,0,0-2.94,5.72,52.44,52.44,0,0,0-2,6.47,142.67,142.67,0,0,0-2.44,14.15,66.18,66.18,0,0,1-1.37,7.95,20.43,20.43,0,0,1-1.84,4.61,15.18,15.18,0,0,1-3.31,4.09,25.17,25.17,0,0,1-8,4.59,62,62,0,0,1-7.73,2.29l-7.23,1.65-1.7.44-1.77.48c-1.25.34-2.49.67-3.75,1a100.11,100.11,0,0,1-15.36,2.46,67.87,67.87,0,0,1-31-4.56,49.17,49.17,0,0,1-13.58-8.46c-1-.93-2-1.85-2.88-2.84s-1.81-2-2.62-3.08a57.47,57.47,0,0,1-4.3-6.62c-1.27-2.25-2.4-4.53-3.51-6.78l-3.29-6.68c-2.23-4.43-4.42-8.87-6.73-13.28-4.54-8.88-9.09-17.95-12.11-28A61.92,61.92,0,0,1,349,313.17l0-1.05,0-1.05.09-2.12c.08-1.41.32-2.82.48-4.24a56.65,56.65,0,0,1,2-8.07c1.62-5.08,3.47-9.54,4.47-13.55a26.7,26.7,0,0,0,.79-5.55,16.77,16.77,0,0,0-.51-4.79,11.4,11.4,0,0,0-.69-1.78,7,7,0,0,0-.92-1.34,9.44,9.44,0,0,0-3.3-2.28,45.38,45.38,0,0,0-6.06-2.07,74.38,74.38,0,0,1-8-2.66c-.73-.33-1.44-.62-2.2-1A24.38,24.38,0,0,1,333,260.3l-1.11-.73c-.36-.27-.72-.56-1.08-.85a22.34,22.34,0,0,1-2.06-1.85,28.7,28.7,0,0,1-5.48-8.48c-1.24-2.8-2-5.49-2.9-7.89s-1.77-4.67-2.77-6.9-2-4.38-3.09-6.44l-2.94-6a66.9,66.9,0,0,0-5.76-10.42,30,30,0,0,0-3.36-3.91,31.22,31.22,0,0,0-4.24-3.3,22.59,22.59,0,0,0-4.79-2.23,14.78,14.78,0,0,0-4.89-.73,9.65,9.65,0,0,0-4.48,1.12,9.5,9.5,0,0,0-2.24,1.43c-.82.65-1.73,1.42-2.76,2.31a45.06,45.06,0,0,1-3.58,2.79,20.59,20.59,0,0,1-4.84,2.5,21,21,0,0,1-11,.91,28.4,28.4,0,0,1-9.43-3.5,34.87,34.87,0,0,1-7.65-5.93c-4.44-4.68-7.36-9.56-10.05-13.91-1.34-2.17-2.6-4.17-3.86-5.95-.62-.9-1.25-1.72-1.87-2.49s-1.23-1.47-1.93-2.15a43,43,0,0,0-8.89-7,49.2,49.2,0,0,0-4.95-2.54c-1.69-.7-3.34-1.43-5-2.1a41.42,41.42,0,0,0-10.76-3c-4.12-.61-8.86-.92-14-1.29-2.57-.21-5.34-.45-8-.84-1.36-.16-2.7-.37-4-.59s-2.66-.44-4-.71c-5.28-1-10.41-2.36-15.46-3.68s-9.94-3-14.73-4.76c-9.58-3.52-18.76-7.52-28-10.86-4.62-1.67-9.24-3.19-13.9-4.48-2.33-.64-4.66-1.21-7-1.7a30.4,30.4,0,0,0-6.1-.24,42.65,42.65,0,0,1-4.41-.11,24.47,24.47,0,0,1-5.12-1c-3.18-1-5.49-2.17-7.08-2.59A5.83,5.83,0,0,0,60,130a3.34,3.34,0,0,0-1.81,1c-.06.09,0,0,0,0a1.18,1.18,0,0,1,0,.19,3.94,3.94,0,0,0,0,.58,15.22,15.22,0,0,0,.39,2.28c.22.94.59,2.18.88,3.3,1.24,4.57,2.56,9.16,4.13,13.69,3.09,9.09,6.78,18.06,10.71,27,2,4.47,4,8.91,6.14,13.34,1,2.21,2.15,4.41,3.24,6.62l1.68,3.34a31.44,31.44,0,0,1,1.82,4.23,20.39,20.39,0,0,1,1,5.22,16.25,16.25,0,0,1-.69,5.75,18.56,18.56,0,0,1-2.31,4.79c-.87,1.31-1.7,2.36-2.34,3.27a12.87,12.87,0,0,0-1.34,2.15,3.26,3.26,0,0,0-.31,1.33,1.67,1.67,0,0,0,0,.37c0,.13,0,.27,0,.4a3.33,3.33,0,0,0,.23.65,3.56,3.56,0,0,0,1,1.24,28.92,28.92,0,0,0,5.2,3.17,36.14,36.14,0,0,1,3.78,2.28,25,25,0,0,1,2,1.56L95.1,239a63.45,63.45,0,0,1,10.61,12c6,8.69,10.65,17.6,15.45,26.12,2.4,4.26,4.78,8.43,7.31,12.41a104.86,104.86,0,0,0,8.21,11.21c1.47,1.74,3,3.37,4.65,4.94.82.77,1.66,1.52,2.5,2.26l1.3,1.06c.43.35.88.73,1.26,1a15,15,0,0,0,4.55,2.44,2.83,2.83,0,0,0,2.34-.05,2.32,2.32,0,0,0,.8-.93,5.35,5.35,0,0,0,.56-1.81,9.81,9.81,0,0,0-.86-4.84,58,58,0,0,0-3.1-6.12l-3.59-6.52-7.27-13a24.51,24.51,0,0,0-1.95-3.17,25.21,25.21,0,0,0-2.6-2.79,23.58,23.58,0,0,1-2.6-2.8c-.76-1-1.36-2.08-2-3.12-5.25-8.45-10.38-16.87-15.41-25.52s-9.38-17.58-14.48-25.54c-.66-1-1.2-1.89-1.86-2.81s-1.33-1.84-2-2.77l-4.52-5.9A73.32,73.32,0,0,1,87.83,198c-.7-1.22-1.36-2.48-2-3.78s-1.09-2.52-1.56-3.73a121.62,121.62,0,0,1-4.78-14.94,60,60,0,0,1-1.44-8,31.54,31.54,0,0,1,.2-8.9,18.91,18.91,0,0,1,1.64-4.89,14.37,14.37,0,0,1,3.54-4.46,15.77,15.77,0,0,1,10.36-3.68,20.76,20.76,0,0,1,9.83,2.53c.8.41,1.34.77,2,1.16s1.25.75,1.82,1.18c1.17.84,2.35,1.68,3.42,2.62A68.36,68.36,0,0,1,122,165.34c3.14,4.33,5.9,8.74,8.52,13s5.08,8.21,7.83,12.12,5.53,7.76,8.43,11.58,5.91,7.61,8.95,11.39,6.16,7.57,9.31,11.35l9.54,11.45,4.75,5.83c1.57,1.95,3.2,4,4.82,6.16A82.5,82.5,0,0,1,189,255.3a56.26,56.26,0,0,1,4,8.15c2.13,5.35,3.36,9.77,5,12.95,3.27,6.73,9.39,13.35,16.27,20.28,3.43,3.5,7.05,7.14,10.58,11.21,1.75,2.06,3.5,4.2,5.15,6.51a62.84,62.84,0,0,1,4.56,7.48,42.42,42.42,0,0,1,4.81,17.75,41.44,41.44,0,0,1-.63,9,73.73,73.73,0,0,1-1.91,8c-1.43,5-3,9.5-3.71,13.76a37.8,37.8,0,0,0,0,13.08c.18,1.09.44,2.15.7,3.22s.6,2.12,1,3.12a29,29,0,0,0,2.92,5.81,23.37,23.37,0,0,0,1.94,2.57,21.83,21.83,0,0,0,2.21,2.3,24.16,24.16,0,0,0,5.25,3.56,45,45,0,0,0,13.19,3.53l7.38,1c2.52.36,5.09.89,7.61,1.43a121.73,121.73,0,0,1,28.52,10.9c9,4.63,17.34,10,25.89,15a162.89,162.89,0,0,0,26.55,13,83.23,83.23,0,0,0,28.61,5.3,80.25,80.25,0,0,0,14.46-1.36c4.83-.87,9.71-2,14.74-2.53a43.9,43.9,0,0,1,7.61-.27,26.86,26.86,0,0,1,7.53,1.4,16.77,16.77,0,0,1,1.78.69,18.32,18.32,0,0,1,1.74.81,25.78,25.78,0,0,1,3.19,2,34.49,34.49,0,0,1,5.39,5.2Zm-.06.05c-3.65-3.34-7.81-6.21-12.53-7.29a35,35,0,0,0-14.37-.1c-2.4.4-4.8.91-7.2,1.48s-4.82,1.13-7.27,1.65a61.74,61.74,0,0,1-7.48,1.24l-1.9.22c-.63.05-1.27.07-1.9.11-1.27,0-2.54.13-3.81.07a73,73,0,0,1-15.06-1.81,116.57,116.57,0,0,1-14.43-4.36c-9.42-3.45-18.48-7.67-27.53-11.81s-18.1-8.26-27.1-12.08c-4.5-1.91-9-3.71-13.56-5.33a126.33,126.33,0,0,0-13.74-4.11c-2.32-.52-4.61-1-7-1.38l-7.34-1.14c-2.52-.4-5.08-.87-7.67-1.53a41.16,41.16,0,0,1-7.76-2.71,35.18,35.18,0,0,1-7.17-4.55,37.43,37.43,0,0,1-5.83-6.11,45.56,45.56,0,0,1-7.26-14.92,53.28,53.28,0,0,1-1.94-16.48c.19-5.63,1.23-10.74,1.82-15.46s.82-9,0-12.54a24,24,0,0,0-1.7-5.29,29.25,29.25,0,0,0-2.83-5c-4.5-6.5-11.61-12.5-19-19.23-3.7-3.39-7.57-6.95-11.3-11.06a80.59,80.59,0,0,1-5.41-6.63c-.87-1.16-1.69-2.42-2.51-3.67s-1.56-2.6-2.26-4a67.82,67.82,0,0,1-3.48-8c-.92-2.48-1.68-4.73-2.46-6.67a40.61,40.61,0,0,0-2.5-5.23,62.28,62.28,0,0,0-3.44-5.31c-1.29-1.82-2.7-3.73-4.19-5.69l-4.45-5.85-9-11.84c-6-8-12.1-16.08-17.64-24.71-2.81-4.29-5.41-8.76-7.92-13.29s-4.78-9.32-6.82-13.78-4.1-8.78-6.35-12.78a52,52,0,0,0-7.72-10.67c-.73-.78-1.51-1.46-2.29-2.16-.37-.37-.8-.64-1.2-1s-.86-.69-1.15-.88a10.38,10.38,0,0,0-4.26-1.76,5.08,5.08,0,0,0-3.56.56,3.48,3.48,0,0,0-1.23,1.19,6.78,6.78,0,0,0-.85,2.08,17.44,17.44,0,0,0-.15,5.91A39.5,39.5,0,0,0,89,173.06a77.93,77.93,0,0,0,5.33,13c.53,1.06,1.1,2.15,1.61,3s1.12,1.79,1.75,2.67A65.48,65.48,0,0,0,102,197c1.55,1.78,3.22,3.6,4.92,5.59.84,1,1.69,2,2.52,3.11s1.66,2.28,2.36,3.32c5.8,8.64,10.53,17.53,15.34,26s9.8,17.23,14.53,25.94c.58,1.09,1.23,2.15,1.72,3.3a24.89,24.89,0,0,1,1.14,3.64,19,19,0,0,0,2.93,6.9l7.7,12.74,3.89,6.34a67.29,67.29,0,0,1,4,7c2.49,5.09,4,13.82-2.68,20a12.84,12.84,0,0,1-5.82,2.86,15.33,15.33,0,0,1-5.89,0,26,26,0,0,1-8.91-3.68c-.66-.41-1.19-.79-1.76-1.18l-1.68-1.17c-1.08-.82-2.16-1.65-3.22-2.5a79.64,79.64,0,0,1-6-5.47,104.88,104.88,0,0,1-10.24-12.11c-3.08-4.2-5.89-8.49-8.57-12.76-5.34-8.51-10.22-17-15.63-24.62-2.72-3.78-5.34-7.56-8-11.18l-1-1.35-.39-.49a2.87,2.87,0,0,0-.37-.46,20.19,20.19,0,0,0-2.22-2.1A57.52,57.52,0,0,1,74,238.74a20.31,20.31,0,0,1-1.69-2.25,15.41,15.41,0,0,1-1.36-2.69,15.73,15.73,0,0,1-.84-2.9c-.07-.49-.12-1-.17-1.45a8.88,8.88,0,0,1-.08-1.48,14.68,14.68,0,0,1,1.27-5.88,23.51,23.51,0,0,1,2.49-4.21c1.65-2.22,2.6-3.69,2.84-4.72a4.76,4.76,0,0,0,.13-1.6,8.54,8.54,0,0,0-.56-2A19.83,19.83,0,0,0,74.74,207l-1.85-3.2-3.74-6.52c-2.49-4.36-4.94-8.76-7.3-13.22A279.54,279.54,0,0,1,49,156.4c-1.89-4.76-3.66-9.61-5.18-14.57-.38-1.27-.74-2.4-1.12-3.86a27.87,27.87,0,0,1-.87-5.05,18.15,18.15,0,0,1,.66-6.6,16.54,16.54,0,0,1,3.7-6.41A18,18,0,0,1,51.63,116a20.06,20.06,0,0,1,5.81-1.73,20.82,20.82,0,0,1,6,0,21.33,21.33,0,0,1,5.32,1.52c3.06,1.31,5.09,2.63,6.59,3.29a8.48,8.48,0,0,0,2.09.73,26.45,26.45,0,0,0,3,.4c1.17.09,2.51.16,4,.32.73.07,1.51.18,2.3.31l1.22.23.63.14.56.14,7.41,2,14.6,4.09c9.66,2.73,19.24,5.22,28.69,7.3,4.73,1.05,9.41,2,14.05,2.79A96.57,96.57,0,0,0,167.67,139c1.14.06,2.28.09,3.41.09s2.27,0,3.39,0c2.25,0,4.44-.2,6.83-.38,4.74-.34,9.93-.91,15.71-.82a59.58,59.58,0,0,1,18.28,3,43.75,43.75,0,0,1,8.51,4.06,60.67,60.67,0,0,1,7.52,5.57A57.08,57.08,0,0,1,243.1,164.7c.81,1.3,1.48,2.71,2.18,4.06s1.24,2.71,1.75,4c1,2.62,1.87,5.11,2.65,7.42s1.54,4.47,2.34,6.45c.4,1,.82,1.93,1.28,2.8a22.62,22.62,0,0,0,1.39,2.42,14.61,14.61,0,0,0,7.74,6,6.49,6.49,0,0,0,3.7.06,10.89,10.89,0,0,0,4-2.67,49.85,49.85,0,0,1,6.62-5.52,21.25,21.25,0,0,1,2.2-1.31l2.32-1.12a32,32,0,0,1,4.88-1.51,32.35,32.35,0,0,1,9.92-.59,40.71,40.71,0,0,1,9.4,2.11,42,42,0,0,1,8.52,4.3,39,39,0,0,1,7.33,6.39l1.51,1.76,1.37,1.83c.47.61.87,1.24,1.3,1.86s.83,1.27,1.2,1.91a46.3,46.3,0,0,1,3.8,7.84c2,5.31,2.73,10.69,3.41,15.79.34,2.54.7,5,1.17,7.44a35.48,35.48,0,0,0,1.71,6.24,12,12,0,0,0,2.39,4.05A10.49,10.49,0,0,0,343,249a50.45,50.45,0,0,0,6.25,1.7,58,58,0,0,1,8.14,2.3,24.42,24.42,0,0,1,9,5.86,21.12,21.12,0,0,1,3.39,4.69,24.45,24.45,0,0,1,2,5.14,32.39,32.39,0,0,1-1.31,19c-2,5.46-4.7,9.87-6.89,13.95a60.35,60.35,0,0,0-2.82,6c-.31,1-.71,2-1,3l-.39,1.57-.19.8-.13.81a40.41,40.41,0,0,0,.13,13.56,67.11,67.11,0,0,0,4,13.7c1.77,4.51,3.86,8.94,6.05,13.36s4.46,8.86,6.71,13.28,4.51,8.88,7,12.91a50.5,50.5,0,0,0,4,5.7c.71.89,1.53,1.68,2.29,2.51s1.66,1.54,2.5,2.29a43.92,43.92,0,0,0,11.81,6.81A58.24,58.24,0,0,0,431,401.1a88.65,88.65,0,0,0,13.9-2.79c1.15-.32,2.29-.67,3.42-1l1.79-.57,1.89-.56,7.2-2a50.91,50.91,0,0,0,6.46-2.18,15.6,15.6,0,0,0,4.77-2.91,8.4,8.4,0,0,0,1.32-1.69,10,10,0,0,0,.95-2.26,60.65,60.65,0,0,0,1.26-6.69c.79-4.92,1.6-10,2.95-15.1a62.86,62.86,0,0,1,2.58-7.67,42.28,42.28,0,0,1,4-7.4,32.93,32.93,0,0,1,5.88-6.39l1.73-1.34c.58-.41,1.16-.77,1.74-1.16,1.18-.74,2.38-1.43,3.6-2a55.25,55.25,0,0,1,15.33-5,65.84,65.84,0,0,1,7.91-.92c1.32-.08,2.64-.11,4-.11l2,0c.7.05,1.41.06,2.1.15a32.49,32.49,0,0,1,15.88,5.68,24.18,24.18,0,0,1,6.19,6.32,26.73,26.73,0,0,1,2.1,3.95l.76,2.09c.22.7.37,1.43.55,2.14a29.48,29.48,0,0,1,.47,8.55,42.42,42.42,0,0,1-1.55,8,87.32,87.32,0,0,1-5.82,14.38c-2.23,4.47-4.48,9-7.24,13.41a49.09,49.09,0,0,1-10.31,12.11,39.14,39.14,0,0,1-3.36,2.4,16.91,16.91,0,0,1-1.81,1c-.62.31-1.21.68-1.86.93a33.6,33.6,0,0,1-7.91,2.32,62.43,62.43,0,0,1-7.84.61c-2.54,0-5,0-7.4.09a46.75,46.75,0,0,0-6.92.69,26,26,0,0,0-3.23.87,15.07,15.07,0,0,0-2.92,1.21,3.93,3.93,0,0,0-1.55,1.29.65.65,0,0,0-.09.38,2.23,2.23,0,0,0,.25.84,10.45,10.45,0,0,0,1.72,2.37c.75.81,1.6,1.61,2.49,2.4s1.82,1.57,2.77,2.36l1.43,1.19.73.61.77.7a23.56,23.56,0,0,1,4.94,6.53,16.55,16.55,0,0,1,2.09,8.18,8.94,8.94,0,0,1-1.29,4.48l-.3.52c-.12.16-.26.31-.39.47s-.52.61-.8.88a12,12,0,0,1-1.9,1.36,12.57,12.57,0,0,1-4.16,1.27c-1.34.19-2.6.24-3.79.35a18.53,18.53,0,0,0-3.37.55,13.6,13.6,0,0,0-3.1,1.25,18.75,18.75,0,0,0-5.24,4.41,33.78,33.78,0,0,0-2.14,2.86,18.81,18.81,0,0,0-1.73,3.05c-1,2.17-1.78,4.58-3,6.87a12.43,12.43,0,0,1-2.42,3.22,8.33,8.33,0,0,1-3.64,1.95,8.44,8.44,0,0,1-4.06,0,12.1,12.1,0,0,1-3.59-1.59,28.16,28.16,0,0,1-5.65-5c-1.67-1.87-3.18-3.85-4.67-5.84s-2.93-4-4.58-5.85Z"/></svg>