<svg id="Layer_1" data-name="Layer 1" xmlns="http://www.w3.org/2000/svg" viewBox="0 0 600 600"><title>Nepal</title><path d="M55.62,253.76c0-1.74,0-3.48-.06-5.22s-.09-3.48,0-5.24c0-.87.13-1.75.23-2.63s.3-1.75.47-2.62.48-1.7.73-2.56.6-1.67.9-2.51c2.63-6.63,6.85-12.42,10.88-18.08,2-2.84,4-5.62,5.9-8.5,1-1.46,1.93-2.94,3-4.4a47.36,47.36,0,0,1,3.4-4.35,29.53,29.53,0,0,1,4.24-3.94,23.62,23.62,0,0,1,5.26-3,18.91,18.91,0,0,1,6.27-1.39,14,14,0,0,1,6.94,1.52,17.93,17.93,0,0,1,2.86,1.88l2.11,1.74a8,8,0,0,0,1.49,1,2.36,2.36,0,0,0,1,.28,3.18,3.18,0,0,0,.54,0,5.47,5.47,0,0,0,.66-.09c.23-.06.48-.1.7-.15a3.85,3.85,0,0,1,.52-.22,3.69,3.69,0,0,0,1.35-1.57,38.63,38.63,0,0,0,1.75-4,25.88,25.88,0,0,1,3.1-5.77,25.24,25.24,0,0,1,2.4-2.69l1.26-1.14c.43-.37.88-.7,1.32-1a32.5,32.5,0,0,1,5.65-3.34,38.58,38.58,0,0,1,12.27-3.24,37.58,37.58,0,0,1,6.46-.07c1.08.11,2.16.23,3.24.39s2.15.37,3.2.68a44.46,44.46,0,0,1,11.71,4.94,96.59,96.59,0,0,1,9.4,6.41l4.1,3.06,2,1.41,2,1.4c2.74,1.85,5.49,3.67,8.3,5.37s5.64,3.32,8.51,4.84,5.71,3.06,8.63,4.43,5.8,2.61,8.93,3.84,6.4,2.46,9.82,3.87A107.37,107.37,0,0,1,239.59,218c.89.48,1.77,1,2.66,1.52.4.22,1,.6,1.51,1s1.08.72,1.57,1.09a45.43,45.43,0,0,1,5.19,4.55c2.95,3,5.21,5.72,7.2,7.72a29.66,29.66,0,0,0,2.73,2.48,11.39,11.39,0,0,0,1.18.78c.18.1.39.26.53.32l.41.19c.47.17.5.11.2.07s-.38,0,.21-.25a27.06,27.06,0,0,0,2.86-1.7c1.31-.86,2.82-1.88,4.53-3l1.33-.81.68-.4a5,5,0,0,1,.46-.26l.52-.27a24.12,24.12,0,0,1,4.65-1.89,21.78,21.78,0,0,1,5.65-.87c.5,0,1,0,1.51,0s1,.08,1.54.15a18.46,18.46,0,0,1,3,.6,20.06,20.06,0,0,1,2.88,1,29,29,0,0,1,2.6,1.35,25.13,25.13,0,0,1,4.22,3.31A29.07,29.07,0,0,1,304.8,242c.67,1.28,1.14,2.37,1.58,3.41s.79,2,1.11,2.89c.64,1.75,1.15,3.15,1.61,4.14.11.25.23.5.27.56s.14.21.19.32.28.39.47.59a9.91,9.91,0,0,0,1.61,1.41c.39.26.8.55,1.3.84.23.15.51.3.77.45l1.05.59c1.94,1.1,3.7,2.24,5.29,3.32,3.19,2.15,5.86,4.16,8.2,5.5a21.91,21.91,0,0,0,3.2,1.62l.71.26.67.2s.21.09.06,0l-.27-.12a2.75,2.75,0,0,0-.56-.16.59.59,0,0,1-.2-.05l-.12,0a1.11,1.11,0,0,0-.25,0c-.3-.08.74-.22,2.08-.57s3.2-.8,5.53-1.24l1.9-.28c.7-.08,1.48-.14,2.22-.19a12.54,12.54,0,0,1,1.26,0l1.34,0c.23,0,.43,0,.68,0l.8.09,1.58.21a21.17,21.17,0,0,1,7.25,2.71,21.87,21.87,0,0,1,3.44,2.62,8.32,8.32,0,0,1,.9.9q.52.58,1,1.2c.35.44.56.77.81,1.14s.47.75.69,1.13a22,22,0,0,1,2.28,6c.31,1.32.46,2.16.57,2.63s.18.54-.09,0l-.27-.48c-.13-.21-.25-.37-.46-.68-.59-.75-.41-.46-.5-.54s0,.17.28.49a7.07,7.07,0,0,0,1.4.92l.21.1a.88.88,0,0,0,.28.11l.83.24c.6.14,1.21.33,1.89.47,1.36.29,2.88.55,4.53.83s3.49.56,5.41.9,4,.74,6.11,1.3c1.07.29,2.14.59,3.25,1,.55.19,1.09.36,1.65.59l1.76.72a19.6,19.6,0,0,1,4.53,2.59A19.9,19.9,0,0,1,400,296a24.91,24.91,0,0,1,3.71,6.61c.81,2,1.36,3.86,1.85,5.39a29.85,29.85,0,0,0,1.49,4,9.47,9.47,0,0,0,1.48,2.45c.41.45.43.56.77.64a1.43,1.43,0,0,0,.39.06s.11,0,.37-.17a34.85,34.85,0,0,0,2.92-3.51l.29-.32c.08-.1.18-.21.36-.4a11.14,11.14,0,0,1,1-.94,12.28,12.28,0,0,1,2.29-1.48,11.36,11.36,0,0,1,5.31-1.16,11,11,0,0,1,2.78.44,12.56,12.56,0,0,1,1.34.48l.9.42a26.26,26.26,0,0,1,3,1.72,18.68,18.68,0,0,0,3.62,2.17.72.72,0,0,0,.59,0c.09,0,.24-.14.45-.22.48-.29.42-.43.62-.85s.54-1.3.93-2.58l.65-2.16.38-1.29.11-.34a4.23,4.23,0,0,1,.16-.47,13.38,13.38,0,0,1,.74-1.53,12.91,12.91,0,0,1,5.29-5.16,14,14,0,0,1,6.88-1.6,14.55,14.55,0,0,1,1.63.11l.77.12.67.13c.69.16,1.41.31,2.07.52a26.1,26.1,0,0,1,3.8,1.45c4.73,2.25,7.81,4.89,10.18,6.36a17.44,17.44,0,0,0,1.56.94l.65.31c.29.12.58.26.86.39a32.87,32.87,0,0,0,3.49,1.38,35.69,35.69,0,0,0,3.69,1,34.29,34.29,0,0,0,3.89.71,39.12,39.12,0,0,0,4.1.31c1.4.06,2.83.09,4.28.05s2.92-.12,4.41-.28l2.1-.2c.7-.1,1.38-.18,2.1-.3,2.84-.48,5.89-1.21,9.18-2s6.79-1.8,10.6-2.6c.94-.21,1.91-.39,2.9-.57.48-.09,1-.17,1.48-.24l1.57-.24a25.68,25.68,0,0,1,8.37.21,21.5,21.5,0,0,1,8.6,3.68,19.19,19.19,0,0,1,3.65,3.49,19.68,19.68,0,0,1,2.49,4.08,23.85,23.85,0,0,1,2.05,8.27,26.23,26.23,0,0,1,0,4l-.18,1.65-.24,1.59a106.54,106.54,0,0,1-2.75,11.24c-.46,1.69-.9,3.3-1.28,4.83s-.63,3-.8,4.37l-.29,2.39c-.09.77-.16,1.51-.2,2.19a16.1,16.1,0,0,0,.13,3.46,8.57,8.57,0,0,0,.3,1.19,9.43,9.43,0,0,0,.45,1,25.76,25.76,0,0,0,1.8,2.86l3,4.12a42.91,42.91,0,0,1,3.38,5.54c.48,1,.92,2,1.33,3,.2.51.13,1.13.38,1.62s.56,1,.86,1.44c1.22,1.9,2.7,3.85,3.32,6.06a49.68,49.68,0,0,1,1.54,13.64,53.49,53.49,0,0,1-.68,7,39.14,39.14,0,0,1-2.13,7.63,32,32,0,0,1-4.33,7.72,26.26,26.26,0,0,1-8.26,7.18,24.07,24.07,0,0,1-12.42,2.93,27,27,0,0,1-5.83-.86l-1.34-.37a2.86,2.86,0,0,0-.46-.12H527c-.18,0-.36-.06-.52-.07a8.91,8.91,0,0,0-3.6.66c-.8.27-1.83.65-3.08,1.15l-2,.83-1.12.46-.58.24-.3.11-.37.14a38,38,0,0,1-9,2.1,42.74,42.74,0,0,1-8.92,0,63.37,63.37,0,0,1-7-1.17c-2-.42-3.59-.79-5-1.07l-.54-.1-.36-.06c-.24,0-.49-.06-.73-.09-.49-.05-1-.1-1.48-.12a29.43,29.43,0,0,0-3,0c-1.83,0-4.62.53-4.38.69-.65.26-1.94.77-3.78,1.53a48.45,48.45,0,0,1-7.93,2.56c-.95.19-1.84.37-2.95.5-.54.06-1,.13-1.62.16s-1.17.06-1.76.07-1.07,0-1.6,0l-1.54-.11a21.92,21.92,0,0,1-3-.4c-1-.19-1.93-.4-2.88-.64s-1.73-.53-2.58-.86c-.41-.15-.87-.31-1.24-.48s-.73-.33-1.09-.53c-.7-.37-1.49-.75-2.09-1.14l-1.77-1.21c-.61-.45-1-.84-1.51-1.27s-1-.89-1.3-1.29-.73-.85-1.08-1.29-.59-.85-.88-1.28a13.93,13.93,0,0,1-.79-1.23L433,426c-.23-.41-.36-.73-.56-1.1-.39-.75-.61-1.39-.95-2-.17-.32-.26-.55-.4-.84s-.28-.57-.38-.76-.23-.44-.36-.65l-.31-.52-.59-1-.3-.4a1.63,1.63,0,0,0-.17-.22l-.32-.19a10.71,10.71,0,0,0-1.31-.66,4.79,4.79,0,0,0-2.89-.17,9,9,0,0,0-3.26,1.6,16,16,0,0,0-1.65,1.42c-.56.55-1,1.09-1.84,1.9A27,27,0,0,1,415,424.9a15.35,15.35,0,0,1-4.69,2.58,13.44,13.44,0,0,1-3.82.71,15.69,15.69,0,0,1-3.78-.35,13.91,13.91,0,0,1-4.25-1.77c-.33-.21-.67-.43-1-.65l-.81-.67a13,13,0,0,1-1.39-1.39,22.14,22.14,0,0,1-2.86-4.27l-.71-1.35-.56-1a7.09,7.09,0,0,0-1.56-2.07,5.49,5.49,0,0,0-1.42-.84,4.57,4.57,0,0,0-1.6-.37,8.73,8.73,0,0,0-3.58.9,17.53,17.53,0,0,0-2.51,1.37,2.67,2.67,0,0,0-.6.42l-.08.09L379,417c-.19.19-.29.29-.57.55a10,10,0,0,1-.81.71c-.34.28-.68.54-1.05.8s-.82.53-1.24.77a16.86,16.86,0,0,1-4.55,1.71,18.39,18.39,0,0,1-4,.42,15.1,15.1,0,0,1-2.12-.14l-1-.16c-.33-.06-.63-.13-1-.21a20,20,0,0,1-3.34-1.15,24,24,0,0,1-2.31-1.22c-.32-.19-.69-.4-.95-.58l-.79-.55c-.55-.38-.92-.68-1.38-1-1.66-1.29-2.92-2.36-4.22-3.41s-2.44-2.12-3.59-3.26-2.24-2.39-3.3-3.64-2.06-2.55-3.14-3.79c-.54-.62-1.11-1.23-1.84-1.94s-1.76-1.55-2.78-2.65a19.55,19.55,0,0,1-2.37-3.09c-.32-.49-.68-1.12-1-1.66s-.62-1.11-.84-1.65a32.19,32.19,0,0,1-1.23-3.07l-1-2.6a17.62,17.62,0,0,0-1.71-3.57,5.37,5.37,0,0,0-.83-1l-.49-.37c-.24-.16-.49-.31-.75-.46a20.44,20.44,0,0,0-3.82-1.55c-.74-.23-1.53-.45-2.35-.68s-1.54-.4-2.92-.89a21.66,21.66,0,0,1-6-3.42c-1.61-1.25-2.95-2.48-4.18-3.51a16.92,16.92,0,0,0-3.22-2.3,3.61,3.61,0,0,0-2.25-.47,3.71,3.71,0,0,0-2,.77,15.15,15.15,0,0,0-2.49,2.55c-1,1.17-2,2.59-3.34,4.17A25,25,0,0,1,290,378a20.82,20.82,0,0,1-2.94,2.23,15.1,15.1,0,0,1-3.9,1.78,13.5,13.5,0,0,1-4.9.52,14.78,14.78,0,0,1-4.49-1.1,25.33,25.33,0,0,1-3.27-1.67c-1.84-1.11-3.19-2-4.28-2.61s-1.66-.63-1.88-.55a2.77,2.77,0,0,0-.42.15,2,2,0,0,0-.35.27,5.19,5.19,0,0,0-1.16,1.45c-.1.17-.18.35-.27.54s0,.05,0,0h0l0,.13-.53,2.05a17.45,17.45,0,0,1-1.67,4.15,12.62,12.62,0,0,1-2.25,2.84,10.64,10.64,0,0,1-1.69,1.3,10.1,10.1,0,0,1-1.91,1,10.46,10.46,0,0,1-1.92.59c-.3.06-.65.14-.92.17l-.77.07a12.31,12.31,0,0,1-3.09-.07,15,15,0,0,1-1.54-.27q-.72-.19-1.41-.45a14.54,14.54,0,0,1-2.51-1.15,20.16,20.16,0,0,1-2-1.31c-.55-.43-1.08-.87-1.58-1.3s-.9-.84-1.29-1.23l-1.1-1.13c-1.35-1.44-2.42-2.63-3.17-3.25l-.26-.21a.69.69,0,0,0-.18-.12l-.15-.11,0,0a.48.48,0,0,0,.2.13l-.74-.21c-1.26-.35-2.54-.65-4.12-.93a55.58,55.58,0,0,1-6-1.33,26.3,26.3,0,0,1-7.11-3.29l-1.57-1.1-1.42-1.14-.25-.19-.14-.1-.27-.19a2.65,2.65,0,0,0-.55-.37,13.64,13.64,0,0,0-2.65-1.29c-2.13-.78-5.2-1.34-9-2.37a40.9,40.9,0,0,1-6.2-2.1,31.84,31.84,0,0,1-6.36-3.7,83.92,83.92,0,0,0-7.28-5.53l-.67-.38a4.27,4.27,0,0,0-.51-.24,1.13,1.13,0,0,1-.18-.12s-.06,0-.09-.08-.35-.17-1.35.17-2.44,1.05-4.42,1.9a22.27,22.27,0,0,1-7.88,2,13.91,13.91,0,0,1-2.41-.08,11.94,11.94,0,0,1-2.34-.43,16.28,16.28,0,0,1-4.12-1.59,22.65,22.65,0,0,1-5.89-4.67,48,48,0,0,1-3.74-4.67l-1.38-1.88c-.41-.53-.83-1.05-1.26-1.51a15.18,15.18,0,0,0-6.16-4.13,18.32,18.32,0,0,0-1.94-.59,22.29,22.29,0,0,0-2.19-.46c-.88-.15-1.93-.31-3.12-.62a15,15,0,0,1-3.84-1.56,16.61,16.61,0,0,1-5.28-5.27c-1.15-1.74-1.94-3.28-2.71-4.49a20.94,20.94,0,0,0-6-6.07,55.46,55.46,0,0,0-8.61-4.59l-2.37-1.07-1.38-.66-1.29-.72c-1.66-1-3.15-2-4.58-3.07a49.27,49.27,0,0,0-8.27-5.34,12,12,0,0,0-4.19-1.08l-.53,0a2.29,2.29,0,0,0-.47,0,3.34,3.34,0,0,0-.8.16,6.29,6.29,0,0,0-1.69,1,39.84,39.84,0,0,1-4.28,3.42,6.37,6.37,0,0,1-3.36.88,8.41,8.41,0,0,1-3.09-.77,19.84,19.84,0,0,1-4.67-3.09,43.92,43.92,0,0,1-3.85-3.74,31.45,31.45,0,0,1-7.39-14,29.07,29.07,0,0,1-.63-5.25A27.31,27.31,0,0,1,51.81,274a73.75,73.75,0,0,0,3.3-9.87,46.66,46.66,0,0,0,.61-10.37Zm.1,0a43.85,43.85,0,0,1-.07,10.49,72.82,72.82,0,0,1-2.82,10.11,26.54,26.54,0,0,0-1.55,9.81,26.81,26.81,0,0,0,.81,4.86,28.94,28.94,0,0,0,1.74,4.65,31.46,31.46,0,0,0,5.62,8.17,41.17,41.17,0,0,0,3.72,3.4,17.9,17.9,0,0,0,4.1,2.56,6.07,6.07,0,0,0,2.06.48,3.29,3.29,0,0,0,1.84-.54,36.31,36.31,0,0,0,3.8-3.28,9.42,9.42,0,0,1,2.48-1.59,6.43,6.43,0,0,1,1.5-.42,10.65,10.65,0,0,1,1.46-.1,15.26,15.26,0,0,1,5.48,1,50.31,50.31,0,0,1,9.23,5.27c1.45.95,2.89,1.88,4.38,2.68l1.12.57,1.14.49,2.43.95a63.75,63.75,0,0,1,9.54,4.5,26.43,26.43,0,0,1,7.9,7.14c1,1.45,1.91,2.95,2.9,4.33a11.35,11.35,0,0,0,3.53,3.41,12.65,12.65,0,0,0,4.79,1.25,30.88,30.88,0,0,1,5.19,1,22.09,22.09,0,0,1,9.14,5.26,34.06,34.06,0,0,1,3.48,3.94,49,49,0,0,0,3.39,3.91,16,16,0,0,0,4.07,3.08,8.89,8.89,0,0,0,2.38.84,5.34,5.34,0,0,0,1.25.2,5.9,5.9,0,0,0,1.26,0,13.29,13.29,0,0,0,4.88-1.45c1.57-.73,3.08-1.6,4.7-2.27a11.56,11.56,0,0,1,5.16-1l1.31.19c.43.09.85.25,1.27.37a14.3,14.3,0,0,1,2.41,1.05c3.11,1.62,5.77,3.91,8.58,5.94a26.83,26.83,0,0,0,9.48,4.09,90,90,0,0,1,10.07,2.68,21.27,21.27,0,0,1,4.62,2.38c.74.46,1.37,1.06,2.06,1.59l1,.83,1.06.77a17.58,17.58,0,0,0,4.68,2.25c1.66.52,3.37.85,5.06,1.21a46.09,46.09,0,0,1,5,1.32,9.93,9.93,0,0,1,2.38,1,8.14,8.14,0,0,1,1.06.76,10,10,0,0,1,1,.87c1.25,1.2,2.35,2.56,3.5,3.86a17.46,17.46,0,0,0,3.86,3.47,6.07,6.07,0,0,0,5,.7,3.86,3.86,0,0,0,1.92-1.69,10.77,10.77,0,0,0,1-2.4,12.72,12.72,0,0,1,5.85-8.27,8.78,8.78,0,0,1,5-1.11,11.32,11.32,0,0,1,4.86,1.76c1.49.9,2.86,2,4.32,2.91a11,11,0,0,0,4.78,1.95,8.1,8.1,0,0,0,5-1.26,17,17,0,0,0,4-3.34c2.34-2.55,4.27-5.55,7.21-7.48a9.61,9.61,0,0,1,9.91-.31c3.08,1.66,5.42,4.32,8.15,6.46a16.28,16.28,0,0,0,4.46,2.66c1.64.58,3.34.93,5,1.46a25.57,25.57,0,0,1,4.83,2,12.87,12.87,0,0,1,2.15,1.45,10.63,10.63,0,0,1,1.74,1.93c2,2.87,2.69,6.4,4.48,9.39a14,14,0,0,0,3.41,3.91,41.11,41.11,0,0,0,4.51,2.59,145.52,145.52,0,0,1,17.26,11.67c.71.5,1.42,1,2.17,1.43a8.41,8.41,0,0,0,2.39,1,5.62,5.62,0,0,0,2.58,0,4.48,4.48,0,0,0,1.22-.45,4.66,4.66,0,0,0,1-.81,15.71,15.71,0,0,1,4.05-3.24,27,27,0,0,1,4.73-2.18,18.22,18.22,0,0,1,10.26-.63,16.5,16.5,0,0,1,8.67,5.46,21,21,0,0,1,2.71,4.44,22.93,22.93,0,0,0,2.44,4.59,4.48,4.48,0,0,0,4.7,1.44,13.92,13.92,0,0,0,4.5-2.57,39.77,39.77,0,0,1,8.64-5.78,18.26,18.26,0,0,1,10.18-1.45,24.7,24.7,0,0,1,9.42,4.27,94.54,94.54,0,0,0,8.73,5.68c3.07,1.56,6.64,2.49,10.07,1.68s6.51-2.4,9.81-3.48a24.6,24.6,0,0,1,5.1-1.06,42.92,42.92,0,0,1,5.2-.27,42.21,42.21,0,0,1,10.31,1.35c3.37.84,6.7,1.89,10.14,2.4a22.07,22.07,0,0,0,10.3-.79,70,70,0,0,1,10-2.74,23,23,0,0,1,10.33.53,22,22,0,0,0,5,1.27,9.55,9.55,0,0,0,5-1,15.75,15.75,0,0,0,6.72-7.72,31.26,31.26,0,0,0,2.43-10.08A38.83,38.83,0,0,0,549.3,388a38,38,0,0,0-3.29-9.85,38.8,38.8,0,0,0-2.62-4.5c-1-1.45-2-2.86-2.92-4.32a28.53,28.53,0,0,1-2.48-4.58,17.24,17.24,0,0,1-1.2-5,43,43,0,0,1,.86-10.37c1.19-6.86,3.92-13.34,5-20.23a22.57,22.57,0,0,0,.3-5.19,14,14,0,0,0-1.31-5,10,10,0,0,0-3.3-4,11.43,11.43,0,0,0-4.81-1.89,15.53,15.53,0,0,0-5.18.05c-1.71.31-3.41.67-5.09,1.12-3.37.87-6.67,1.95-10,3s-6.66,2-10.06,2.72a65.34,65.34,0,0,1-10.34,1.26,50.28,50.28,0,0,1-20.49-3,39.69,39.69,0,0,1-4.72-2.21,27.15,27.15,0,0,1-4.33-2.88c-2.73-2.14-5.26-4.58-8.31-6.27a13.18,13.18,0,0,0-4.88-1.71,4.7,4.7,0,0,0-4.43,2.18c-1.53,3.09-2.52,6.57-5,9.08a8.34,8.34,0,0,1-9.62,1.65,32.92,32.92,0,0,1-4.32-2.9,19.35,19.35,0,0,0-2.21-1.37,5.37,5.37,0,0,0-7,1.44,51.24,51.24,0,0,1-3.3,4,7.33,7.33,0,0,1-9.56.38,14.67,14.67,0,0,1-3.46-3.86,38.92,38.92,0,0,1-2.49-4.58c-1.48-3.12-2.86-6.39-5.27-8.93a10.24,10.24,0,0,0-4.34-2.77,32.66,32.66,0,0,0-5.09-1.07,95.11,95.11,0,0,0-10.4-.58,60,60,0,0,1-10.37-.93,17.94,17.94,0,0,1-9.06-4.88,9.14,9.14,0,0,1-2.26-4.63,21.8,21.8,0,0,0-1.47-5,6.13,6.13,0,0,0-4.24-2.7,16.43,16.43,0,0,0-5.19.06c-1.71.25-3.42.6-5.13.9a23.73,23.73,0,0,1-5.18.47,13.17,13.17,0,0,1-5-1.54,42.91,42.91,0,0,1-4.54-2.55c-2.94-1.86-5.7-4-8.55-6-1.42-1-2.87-2-4.37-2.83a40.47,40.47,0,0,1-4.38-2.84,19,19,0,0,1-6.38-8.09c-1.36-3.2-2.2-6.61-3.77-9.71a16.53,16.53,0,0,0-3-4.22,9.89,9.89,0,0,0-4.39-2.67,9.28,9.28,0,0,0-5.12.05,19.67,19.67,0,0,0-4.67,2.24c-3,1.79-5.78,3.89-9,5.29a11.1,11.1,0,0,1-10.1-.19l-1.16-.6c-.38-.2-.73-.46-1.1-.69-.74-.46-1.43-1-2.12-1.52a40.1,40.1,0,0,1-3.79-3.58c-2.4-2.52-4.57-5.24-7-7.74a34.46,34.46,0,0,0-3.87-3.48,37.78,37.78,0,0,0-4.39-2.78,96.33,96.33,0,0,0-9.38-4.53c-6.39-2.73-12.93-5.13-19.14-8.26A172.77,172.77,0,0,1,171,191.91a95.71,95.71,0,0,0-8.27-6.33,36.17,36.17,0,0,0-9.34-4.52,29.25,29.25,0,0,0-10.27-1.29A31.45,31.45,0,0,0,133,181.9a21.66,21.66,0,0,0-8.47,5.86c-2.21,2.7-3.12,6.18-5.12,9.05a8.35,8.35,0,0,1-4,3.22c-.42.13-.84.23-1.26.34s-.87.1-1.3.16a8.8,8.8,0,0,1-2.61-.19,9.69,9.69,0,0,1-4.44-2.65,21.81,21.81,0,0,0-4-3.3,10.22,10.22,0,0,0-5-1.29,15.29,15.29,0,0,0-5.09.9,22.72,22.72,0,0,0-8.61,5.66,67,67,0,0,0-6.54,8.09c-2,2.83-4.19,5.55-6.35,8.27-4.29,5.45-8.62,11-11.45,17.34a35.52,35.52,0,0,0-2.85,10,43.15,43.15,0,0,0-.28,5.2c0,1.74.15,3.47.23,5.21Z"/></svg>