<svg id="Layer_1" data-name="Layer 1" xmlns="http://www.w3.org/2000/svg" viewBox="0 0 600 600"><title>Netherlands</title><path d="M242.12,152.44a10.62,10.62,0,0,0-3.67,5.43,21.15,21.15,0,0,0-.36,6.64c.14,2.22.37,4.47.32,6.72s-.14,4.49-.35,6.73c-.4,4.47-1.05,8.91-1.71,13.33l-2,13.25c-1.38,8.85-3.09,17.67-5.26,26.41A198.59,198.59,0,0,1,221,256.74l0,.1,0,.1c-2.33,4.71-4.9,9.27-7.59,13.76s-5.5,8.9-8.32,13.31-5.76,8.76-8.71,13.09l-4.43,6.49-4.46,6.46L178.56,323c-2.92,4.31-5.88,8.63-9,12.92s-6.31,8.57-9.77,12.72c-1.74,2.07-3.52,4.09-5.31,6.09s-3.62,3.93-5.48,5.81a262.63,262.63,0,0,1-22.79,20.88q-2.94,2.36-5.88,4.65c-2,1.52-3.95,3-5.87,4.55l-2.59,2c-.77.62-1.51,1.26-2.22,1.91a30.81,30.81,0,0,0-3.56,3.86,15.39,15.39,0,0,0-1.7,2.89l-.11.21c0,.05,0,.08-.06.13a.88.88,0,0,0-.07.13.13.13,0,0,1,0,.08.49.49,0,0,0-.09.41c-.06.1.26.6.91,1.42s1.74,1.91,3,3.51a24.85,24.85,0,0,1,2,2.89,19,19,0,0,1,1.71,4,18,18,0,0,1,.5,2.06l.18,1c0,.35.08.76.11,1.14a14,14,0,0,1,0,2.43,14.82,14.82,0,0,1-.37,2.64c-.11.45-.23.89-.36,1.34s-.31.86-.49,1.29a15.5,15.5,0,0,1-1.22,2.37,17.33,17.33,0,0,1-1.4,2c-.48.59-.92,1-1.4,1.53a40.52,40.52,0,0,1-4.22,3.52,13.11,13.11,0,0,0-1.72,1.43,5,5,0,0,0-.58.76,3.69,3.69,0,0,0-.71,2.42,1.15,1.15,0,0,0,.14.52c0,.12.15.22.19.36s.19.26.33.38a4.41,4.41,0,0,0,.89.75,4.58,4.58,0,0,0,2,.72,2,2,0,0,0,.35,0,1.3,1.3,0,0,0,.59-.1,17.31,17.31,0,0,0,2.46-1l1.82-.88,1.08-.5.58-.26.72-.29a23.08,23.08,0,0,1,6.56-1.64,19.94,19.94,0,0,1,7.43.69,24,24,0,0,1,5.76,2.61,45,45,0,0,1,4,2.71l1.61,1.22.38.29a3.21,3.21,0,0,0,.34.24l.55.36,1.11.76a12.17,12.17,0,0,0,1.19.62l1.21.62,1.3.47a13.33,13.33,0,0,0,1.3.47l1.36.34a13,13,0,0,0,2.79.41,6.21,6.21,0,0,0,1.43,0c.48,0,1-.08,1.43-.11a8.88,8.88,0,0,0,1.42-.27l1.4-.31,2.69-.95c.85-.43,1.71-.76,2.52-1.17,3.3-1.6,6.15-3.2,9.21-4.65.82-.33,1.54-.75,2.34-1.15a22.18,22.18,0,0,0,2.37-1.32l.3-.18c.14-.11.14,0,.38-.29l1.21-1.18c.39-.39.86-.73,1.29-1.09a15.53,15.53,0,0,1,1.36-1,25.57,25.57,0,0,1,5.53-2.85,50,50,0,0,1,4.84-1.56c1.42-.43,2.74-.78,3.8-1.21a24.94,24.94,0,0,0,2.76-1.25c.2-.1.35-.21.53-.31l.24-.15.07-.08a.81.81,0,0,0,.17-.31,7.55,7.55,0,0,1,.25-.85l.68-2.43c.33-1.11.67-2.53,1.27-4.17a27,27,0,0,1,1.1-2.62l.34-.7a6.49,6.49,0,0,1,.52-.91,16,16,0,0,1,1.79-2.31c.32-.33.65-.67,1-1s.63-.53,1-.79a16.43,16.43,0,0,1,1.9-1.32,23.93,23.93,0,0,1,3.44-1.72,37.42,37.42,0,0,1,5.77-1.75,71.62,71.62,0,0,1,9.65-1.45c6-.54,11.69-.59,17-.63,1.31,0,2.64,0,3.67-.1.36-.05,1.25,0,1.93,0l2.18,0c2.93.06,5.93.17,9,.5s6.12.8,9.25,1.44a32.29,32.29,0,0,1,9.25,3.08l.55.29.46.27.91.55c.63.38,1.26.77,1.93,1.21,1.32.87,2.75,1.79,4.23,2.9a54,54,0,0,1,4.67,3.88c.39.38.85.81,1.19,1.18s.7.75,1,1.1c.63.73,1.21,1.44,1.72,2.1a72.46,72.46,0,0,1,4.12,6.17c.43.72.72,1.18,1.07,1.66a12.47,12.47,0,0,0,1.58,1.52,7.88,7.88,0,0,0,3.12,1.71,3.6,3.6,0,0,0,1.23.1,9.72,9.72,0,0,0,1.58-.36c1.47-.39,3.79-1.28,7.09-2.21.84-.23,1.67-.44,2.72-.66a31.92,31.92,0,0,1,3.63-.48,30.91,30.91,0,0,1,6.92.25,38.81,38.81,0,0,1,6,1.39,46.53,46.53,0,0,1,5.14,2,47.52,47.52,0,0,1,9.41,5.82,45.06,45.06,0,0,1,13.64,18,42.71,42.71,0,0,1,2.85,11.66,57,57,0,0,1,0,10.61,89.2,89.2,0,0,1-1.33,9.26c-.54,2.91-1.18,5.61-1.74,8.18s-1.12,5-1.56,7.22l-.3,1.62-.24,1.5c-.14,1-.28,2.07-.37,3.08a51.36,51.36,0,0,0-.29,6,33.21,33.21,0,0,0,.41,5.31,21.09,21.09,0,0,0,.45,2.24c.09.34.2.64.29,1a4.09,4.09,0,0,0,.32.84c.19.57.44.93.62,1.36a5.46,5.46,0,0,0,.62.8,1,1,0,0,1,.11.17l.15.08c.1,0,.13.18.24.19a.44.44,0,0,1,.22.15,3,3,0,0,1,.37.16c.17.18.57.22.82.42s.38.09.56.17a1.85,1.85,0,0,0,.6.18,18.56,18.56,0,0,0,7,.18l1-.14,1-.24c.68-.11,1.31-.4,2-.57.33-.09.61-.26.92-.37a7.53,7.53,0,0,0,.91-.38,14.89,14.89,0,0,1,1.68-.72c1.23-.28,2.26-.6,3.25-.83a5.76,5.76,0,0,0,2.38-.81,6.32,6.32,0,0,0,1.94-2.15,9.56,9.56,0,0,0,1.24-3.69,8.67,8.67,0,0,0,.05-2.28,9.68,9.68,0,0,0-.15-1.19l-.11-.53-.05-.35c-.18-1-1.26-2.56-2.85-4.19-.37-.39-.84-.83-1.29-1.27a14.16,14.16,0,0,0-1.49-1.3c-.28-.21-.56-.38-.87-.58a10.76,10.76,0,0,0-1-.61l-2.21-1.19-1.21-.62-1.29-.78c-.43-.27-.86-.51-1.31-.82l-1.32-1.08a11,11,0,0,1-1.3-1.19c-.43-.47-.85-1-1.23-1.48a15.75,15.75,0,0,1-2.09-3.56l-.44-1c-.12-.34-.23-.71-.34-1.07-.21-.72-.4-1.46-.57-2.2a22.76,22.76,0,0,1-.44-4.51,12.75,12.75,0,0,1,.14-2.18c.08-.7.2-1.41.33-2.1l.2-1c.08-.32.17-.62.27-.93.19-.61.37-1.23.61-1.82a31.25,31.25,0,0,1,3.43-6.53,31.86,31.86,0,0,1,4.06-4.91,52.93,52.93,0,0,1,7.28-5.65l4.14-2.77c.78-.52,1.16-.45,1.65-1.11a3.8,3.8,0,0,0,.46-1.51c.17-.15.17-.84,0-1.83s-.59-2.27-1-3.86a30.59,30.59,0,0,1-1.14-5.81c0-.61-.07-1.19,0-1.83a11,11,0,0,1,.14-1.72c.14-.91.28-1.82.47-2.71s.47-1.7.71-2.54.59-1.58.9-2.36c2.63-6,6.18-10.14,8.71-14.15s3.88-8,2.95-11.57-3.35-6.74-6.93-9.24-7.92-4.41-12.51-6.48l-3.55-1.6c-.57-.24-1.25-.62-1.93-1s-1.36-.72-2-1.13a49.56,49.56,0,0,1-7.7-5.6,41.38,41.38,0,0,1-3.59-3.55l-1.71-2c-.56-.68-1.07-1.47-1.6-2.21a39.27,39.27,0,0,1-5.25-10.81,32.15,32.15,0,0,1-.94-14.12c.1-.61.19-1.23.31-1.83s.31-1.19.48-1.78a25.66,25.66,0,0,1,1.22-3.45c.5-1.11,1-2.22,1.58-3.28s1.31-2.08,2-3.09a32.36,32.36,0,0,1,10.32-8.93,40.61,40.61,0,0,1,10.66-3.93c1.72-.4,3.35-.61,5-.85s3.21-.33,4.74-.38a83.49,83.49,0,0,1,9,.06c1.45.08,2.87.18,4.27.28l3.79.33c2.53.23,5.07.37,7.63.52s5.14.3,7.71.21a53,53,0,0,1,7.77-.08c2.59-.4,5.19-1.49,7.82-2a16.43,16.43,0,0,1,4-.2c1.33.08,2.65.11,4,.25q4,.33,8,1c1.48.22,2.3.47,3.27.64s1.78.3,2.53.4,1.42.14,2,.15a7.1,7.1,0,0,0,1.4-.13,2.48,2.48,0,0,0,2-1.55,5.15,5.15,0,0,0,.14-3.59l-.07-.23c0-.1,0-.16-.06-.16s0-.06-.12-.2l-.24-.38-.35-.5A7.45,7.45,0,0,0,459,318c-.65-.36-1.45-.77-2.28-1.18a19.78,19.78,0,0,1-2.75-1.65,10.1,10.1,0,0,1-1.47-1.19l-.74-.7c-.24-.25-.48-.58-.72-.87a11.28,11.28,0,0,1-1.34-2.06c-.21-.4-.39-.82-.57-1.24a9,9,0,0,1-.49-1.37,19,19,0,0,1-.59-3.11,20.21,20.21,0,0,1,.06-3.39,21.51,21.51,0,0,1,.72-3.33c.24-.78.51-1.47.79-2.2A28.45,28.45,0,0,1,454,288.3a38.09,38.09,0,0,1,4.74-4.86c1.46-1.3,2.84-2.34,4-3.22l1.61-1.23.66-.53.33-.26.27-.22a8.8,8.8,0,0,0,1.36-1.29l0-.07.1-.11.51-.54,1-1.08c.66-.69,1.27-1.39,1.84-2.08a33.5,33.5,0,0,0,2.93-4,20.87,20.87,0,0,0,1.83-3.67,8.54,8.54,0,0,0,.48-2.65,6.39,6.39,0,0,0-1.17-4.13,4.35,4.35,0,0,0-1.16-1,5.31,5.31,0,0,0-1.36-.64,9,9,0,0,0-1.66-.31c-.38,0-.18,0-1.11,0s-2.47.06-5.16-.16a32,32,0,0,1-10.16-2.62,29.19,29.19,0,0,1-4.92-2.84l-1.08-.8c-.4-.3-.55-.44-.82-.66-.49-.42-1-.82-1.45-1.26a37.37,37.37,0,0,1-9.22-12.95A35.36,35.36,0,0,1,434,226.8a33.53,33.53,0,0,1,5.88-24.69,23.06,23.06,0,0,1,5.68-5.52,23.62,23.62,0,0,1,7.09-3.21,31.42,31.42,0,0,1,3.8-.73c.65-.08,1.24-.12,1.93-.18s1.42-.11,2.16-.11a28.72,28.72,0,0,1,4.28.24c.67.12,1.36.23,2,.4a17.47,17.47,0,0,1,1.8.47,39.2,39.2,0,0,1,5.15,2.07l1.7.74a14.15,14.15,0,0,0,1.52.61,17.45,17.45,0,0,0,5.59,1.19,8.42,8.42,0,0,0,1.85-.22,3.31,3.31,0,0,0,.88-.38c.13-.13.18,0,.29-.15a3.8,3.8,0,0,0,.35-1.29c.24-1.54-.43-3.8-.95-6.52a36.14,36.14,0,0,1-.67-4.79,27.45,27.45,0,0,1,.19-5.07,35.66,35.66,0,0,1,2.52-9.25,41.22,41.22,0,0,1,2-4.18c.72-1.3,1.46-2.54,2.23-3.72,2.95-4.79,6-8.79,7.88-12.7a26,26,0,0,0,2-5.68,37.48,37.48,0,0,0,.75-6.29,65.16,65.16,0,0,0-.07-7c-.13-2.4-.29-5-.48-7.44A46.13,46.13,0,0,0,499.06,111a14.58,14.58,0,0,0-2.13-3.83A13.79,13.79,0,0,0,494,104.6c-.67-.48-1.54-1-2.45-1.59l-3.17-2c-1.18-.73-2.42-1.52-3.76-2.49a42.68,42.68,0,0,1-4.14-3.37c-.35-.34-.7-.67-1.05-1l-1-1.12c-.68-.75-1.27-1.57-1.89-2.37s-1.08-1.59-1.6-2.39-.89-1.57-1.32-2.36-.71-1.52-1.06-2.28-.55-1.47-.83-2.2-.47-1.37-.68-2.07l-.53-2c-.65-2.53-1-4.77-1.39-6.64a22,22,0,0,0-1.23-4.68,7.79,7.79,0,0,0-1.1-1.85,5.88,5.88,0,0,0-.84-.81l-.48-.38-.54-.34a9.22,9.22,0,0,0-2.56-1,11.11,11.11,0,0,0-3-.37,16.92,16.92,0,0,0-6.25,1.2,59.79,59.79,0,0,0-6.35,3l-6.64,3.9a71.35,71.35,0,0,1-7.45,4,75.56,75.56,0,0,1-8.11,3.28c-2.75.91-5.55,1.73-8.33,2.39C405.08,81.93,394,82.9,383.88,84s-19.33,2.11-26.39,4.31c-.9.26-1.72.59-2.57.85s-1.63.6-2.39.94-1.52.7-2.23,1.06-1.45.72-2.2,1c-2.83,1.29-6.22,2.81-10.17,4.89a68.2,68.2,0,0,0-11.93,8,39.45,39.45,0,0,0-9.14,11.08,47.81,47.81,0,0,0-5.11,13,43,43,0,0,0-.89,13.35c.05.54.08,1.08.15,1.61l.24,1.59a13,13,0,0,0,.59,2.59,20.9,20.9,0,0,0,2,4.2,14.37,14.37,0,0,0,2.56,3.17,4.14,4.14,0,0,0,.64.56c.1.08.2.19.3.27a3.3,3.3,0,0,1,.32.18,2.18,2.18,0,0,0,.56.39c.19.07.35.26.53.29a2.23,2.23,0,0,1,.49.24,2,2,0,0,1,.46.18c.34,0,.62.21,1,.24.09,0,.18,0,.27.09h.32c.22,0,.43.1.69.11.54,0,1.62-.1,3.24-.25a29.77,29.77,0,0,1,6.48-.09l1,.13c.41.06.82.14,1.23.22a18.66,18.66,0,0,1,2.45.68,18.08,18.08,0,0,1,4.58,2.47,17.58,17.58,0,0,1,5.65,7.2,19.78,19.78,0,0,1,1.56,7.25,22.27,22.27,0,0,1-.7,6.11,33.66,33.66,0,0,1-1.57,4.65c-1.15,2.78-2.31,5.11-3.25,7.33-.47,1.1-.86,2.16-1.2,3.16a20.74,20.74,0,0,0-.63,2.78,8.43,8.43,0,0,0,.05,2.17,4.41,4.41,0,0,0,.74,1.6,9.58,9.58,0,0,0,4.57,2.58c1.09.37,2.35.68,3.7,1.08.69.2,1.41.41,2.15.67.38.13.75.23,1.17.41l1.28.56a22.73,22.73,0,0,1,9,7.4,26.74,26.74,0,0,1,2.88,5,31,31,0,0,1,1.74,5.13c1.69,6.89.9,13.38-.67,19.4a53.05,53.05,0,0,1-3.07,8.91,43.7,43.7,0,0,1-5.08,8.8,44.46,44.46,0,0,1-7.07,7.3,46.33,46.33,0,0,1-8.46,5.44,44.06,44.06,0,0,1-9.49,3.35,42.28,42.28,0,0,1-10.11,1,40.63,40.63,0,0,1-5.08-.45c-1.54-.28-3.07-.56-4.54-.94a65.94,65.94,0,0,1-8.46-2.72,103.66,103.66,0,0,1-14.55-7.12c-2.23-1.23-4.35-2.53-6.51-3.7l-1.6-.88-1.6-.84c-1.06-.56-2-1-3.17-1.5s-2.33-.92-3.76-1.5a16.51,16.51,0,0,1-4.73-2.71,12.13,12.13,0,0,1-3.23-4.59,9.83,9.83,0,0,1-.42-1.13,7.64,7.64,0,0,1-.36-1.17l-.3-1.24-.16-1.18a35.51,35.51,0,0,1,.29-8.52c.35-2.69.86-5.28,1.43-7.83l1.78-7.56a48.21,48.21,0,0,1,2.09-7.72,15.86,15.86,0,0,1,2.12-3.72c.49-.53.93-1.11,1.46-1.58a14.67,14.67,0,0,1,1.63-1.34,32.68,32.68,0,0,1,7.19-3.6c2.43-.94,4.84-1.76,7.08-2.84a13.8,13.8,0,0,0,5.6-4.44,11.09,11.09,0,0,0,1.92-6.73,13.72,13.72,0,0,0-2.56-6.76,54.32,54.32,0,0,0-4.74-6,35,35,0,0,1-4.72-6.22c-2.47-4.63-3.83-9.63-5.53-14.47a44.48,44.48,0,0,0-3-7.07,16.75,16.75,0,0,0-1.06-1.58l-.6-.73c-.22-.22-.47-.42-.7-.63a8.19,8.19,0,0,0-3.46-1.48,36.77,36.77,0,0,0-7.64-.7,73.25,73.25,0,0,0-7.69.43,59.29,59.29,0,0,0-7.6,1.24c-.63.15-1.25.33-1.87.49s-1.22.39-1.81.66a13.76,13.76,0,0,0-3.28,2Zm-.06-.07a17,17,0,0,1,3.22-2.13c.58-.3,1.21-.49,1.81-.73s1.23-.39,1.86-.56a61.69,61.69,0,0,1,7.61-1.51,74.11,74.11,0,0,1,7.75-.69,36.84,36.84,0,0,1,7.88.47,13.77,13.77,0,0,1,2,.53,4.79,4.79,0,0,1,1,.46l.51.26a3.46,3.46,0,0,1,.44.34c.28.23.58.47.84.72l.7.8A17.47,17.47,0,0,1,278.9,152a44.19,44.19,0,0,1,3.28,7.21l2.64,7.24a48.78,48.78,0,0,0,3,6.86,12.37,12.37,0,0,0,1,1.53l.51.73.59.72c.8,1,1.65,1.91,2.51,2.87a56.81,56.81,0,0,1,5,6.11,15.7,15.7,0,0,1,2.92,7.71l0,1.07c0,.36-.06.71-.1,1.06a9.14,9.14,0,0,1-.42,2.08,13.7,13.7,0,0,1-1.77,3.8,15.64,15.64,0,0,1-6.35,5.13c-2.38,1.18-4.84,2-7.2,3a29.15,29.15,0,0,0-6.65,3.4,12,12,0,0,0-4.32,5.72,44.14,44.14,0,0,0-1.71,7.38c-.49,2.53-1,5-1.45,7.57s-.82,5.05-1,7.58a28.48,28.48,0,0,0,.27,7.51l.19.9.29.86a5.64,5.64,0,0,0,.35.85,8.86,8.86,0,0,0,.4.82,7.17,7.17,0,0,0,2.25,2.67c1.9,1.32,4.51,1.59,7,2.18a97.82,97.82,0,0,1,14.78,4.93c4.77,1.95,9.5,3.91,14.31,5.48a56.45,56.45,0,0,0,7.31,1.89,34.46,34.46,0,0,0,7.4.69,32.09,32.09,0,0,0,14.21-3.82,32.52,32.52,0,0,0,15.1-16,47.71,47.71,0,0,0,2.6-7.09,49,49,0,0,0,1.51-7.4,33,33,0,0,0,.13-7.5,26.81,26.81,0,0,0-.62-3.69,18.83,18.83,0,0,0-1.29-3.5,14.14,14.14,0,0,0-4.83-5.58,48.6,48.6,0,0,0-6.86-3.39,17.32,17.32,0,0,1-6.36-4.38A11,11,0,0,1,335,200a31.24,31.24,0,0,1,1.08-7.64c.61-2.5,1.33-5,1.89-7.48a22.09,22.09,0,0,0,.62-7.63,9.17,9.17,0,0,0-3.69-6.47,6.94,6.94,0,0,0-3.63-1.11,17.54,17.54,0,0,0-3.82.36c-1.27.23-2.52.51-3.8.68-.64.08-1.29.08-1.93.12-.32,0-.64,0-1,0l-1-.08a16.74,16.74,0,0,1-7.33-2.18A22.94,22.94,0,0,1,302.8,157a28.62,28.62,0,0,1-1.89-7.45,31,31,0,0,1-.14-3.85l0-1.93c0-.65.09-1.29.13-1.93.73-10.28,4.1-20.24,8.89-29.32a124,124,0,0,1,17.73-25.16,54.14,54.14,0,0,1,11.86-9.8A49.69,49.69,0,0,1,353.7,72c10.07-2.32,20.48-2.06,30.73-1.69s20.58,1.07,30.83,0A76,76,0,0,0,422.88,69a59,59,0,0,0,7.4-2.13c4.87-1.71,9.36-4.27,14-6.48a63.9,63.9,0,0,1,7.11-3,31.84,31.84,0,0,1,7.54-1.58,22.4,22.4,0,0,1,7.65.6,15.77,15.77,0,0,1,6.73,3.62,21.31,21.31,0,0,1,4.57,6.16,75.1,75.1,0,0,1,3.05,7.08A69.34,69.34,0,0,0,484,80.37a22.71,22.71,0,0,0,4.6,6.15c3.77,3.54,8.5,5.77,12.55,9a22.34,22.34,0,0,1,5.21,5.63,25,25,0,0,1,3.05,7.06A58.35,58.35,0,0,1,511,123.47a141.54,141.54,0,0,1-.69,15.41,37.89,37.89,0,0,1-4.59,14.62c-2.54,4.48-5.78,8.5-8.58,12.82a33.24,33.24,0,0,0-5.71,14.18,21.57,21.57,0,0,0-.14,3.85,28.77,28.77,0,0,0,.53,3.82,51.61,51.61,0,0,1,1.25,7.61,12,12,0,0,1-.46,3.81,7.9,7.9,0,0,1-2,3.24,11.87,11.87,0,0,1-6.92,3.08,31,31,0,0,1-7.7-.09c-2.56-.24-5.07-.92-7.64-1a12.73,12.73,0,0,0-7.3,2.12,17.35,17.35,0,0,0-5.48,5.34,15.76,15.76,0,0,0-2.52,7.21,15.3,15.3,0,0,0,1.35,7.51,18.29,18.29,0,0,0,4.56,6.15,12.66,12.66,0,0,0,3.17,2.17,11.72,11.72,0,0,0,3.73.91c2.56.2,5.16,0,7.7.46a25.14,25.14,0,0,1,7.31,2.37,23.51,23.51,0,0,1,3.3,2c.53.37,1,.79,1.51,1.2l.73.62.69.69a24.44,24.44,0,0,1,4.52,6.2,26.26,26.26,0,0,1,2.51,15,32.44,32.44,0,0,1-5.6,14.22,57.46,57.46,0,0,1-10.34,11.4c-4,3.23-8.94,5.2-12.55,8.93a12.28,12.28,0,0,0-2.22,3.13,6.17,6.17,0,0,0-.74,3.72,10,10,0,0,0,1.25,3.62A29.72,29.72,0,0,0,466,313c1.45,2.1,3.15,4.14,3.83,6.65a14.39,14.39,0,0,1,.13,7.62,11.6,11.6,0,0,1-4.16,6.33,15.24,15.24,0,0,1-7.09,2.84,38.86,38.86,0,0,1-7.7.24c-2.57-.1-5.14-.14-7.71-.17-5.15,0-10.29,0-15.43.14l-15.43.42-7.72.17c-2.57.05-5.14.05-7.71.17a73,73,0,0,0-7.68.7,47,47,0,0,0-7.53,1.64c-4.9,1.44-9.66,4.07-12.65,8.31a17,17,0,0,0-2.79,7.11,17.59,17.59,0,0,0,.55,7.63,34.05,34.05,0,0,0,8,13.05,59.67,59.67,0,0,0,5.58,5.32c2,1.66,4,3.19,6.06,4.78a80.07,80.07,0,0,1,11.4,10.36A25.66,25.66,0,0,1,404.53,410a20,20,0,0,1-.55,7.65,37,37,0,0,1-2.77,7.18c-2.27,4.61-5.07,9-6.67,13.9a18.5,18.5,0,0,0-1,7.59c.4,2.56,1.62,4.87,2.59,7.24a16.2,16.2,0,0,1,1.44,7.52,14.08,14.08,0,0,1-2.44,7.22c-2.91,4.29-7.29,7.23-10.66,11.12a18.6,18.6,0,0,0-3.88,6.6,14.79,14.79,0,0,0-.62,3.79,11,11,0,0,0,.61,3.78,18.4,18.4,0,0,0,4.17,6.42c1.75,1.88,3.68,3.59,5.53,5.37a31.32,31.32,0,0,1,5,5.83,26.15,26.15,0,0,1,2.95,7.1,23.29,23.29,0,0,1-1,15.12,21.57,21.57,0,0,1-4.27,6.38,29.89,29.89,0,0,1-6,4.76,37.84,37.84,0,0,1-14.47,5.05,34,34,0,0,1-15.26-1.14,13,13,0,0,1-1.8-.67c-.59-.26-1.2-.48-1.77-.77a25.59,25.59,0,0,1-3.29-2,20.11,20.11,0,0,1-5.34-5.5,25.87,25.87,0,0,1-1.9-3.36,30.78,30.78,0,0,1-1.34-3.62,35.93,35.93,0,0,1-1.44-7.56,52.24,52.24,0,0,1-.14-7.71,70.59,70.59,0,0,1,.78-7.68,134.06,134.06,0,0,1,3.47-15,106.33,106.33,0,0,0,3.21-15.07,40.47,40.47,0,0,0,.21-7.7,27.26,27.26,0,0,0-1.63-7.51,31.73,31.73,0,0,0-22.67-19.07,16.94,16.94,0,0,0-3.83-.24,18.65,18.65,0,0,0-3.79.64c-2.5.63-4.92,1.51-7.43,2.08a19.63,19.63,0,0,1-7.67.38,24.49,24.49,0,0,1-7.31-2.38,29,29,0,0,1-6.39-4.3c-1.93-1.71-3.67-3.61-5.54-5.37-3.65-3.69-8.42-5.89-13.1-8a79.07,79.07,0,0,0-14.66-4.72q-3.75-.84-7.58-1.41c-2.54-.38-5.09-.69-7.63-1.11A146,146,0,0,0,223.27,419a47.12,47.12,0,0,0-7.7.16,20,20,0,0,0-3.77.76,8.39,8.39,0,0,0-3.33,1.84,6.34,6.34,0,0,0-1.14,1.54c-.32.56-.61,1.13-.88,1.72-.54,1.16-1,2.36-1.48,3.56-.95,2.36-2.08,4.79-4.1,6.45a20.78,20.78,0,0,1-7,3.21,47.49,47.49,0,0,0-7.27,2.56,13.63,13.63,0,0,0-3.19,2.12,7.39,7.39,0,0,0-.7.67,8.54,8.54,0,0,0-.64.71l-1.19,1.52a25.94,25.94,0,0,1-2.5,2.93l-1.36,1.37c-.45.47-1,.83-1.47,1.25a37.84,37.84,0,0,1-29,7.9,33.71,33.71,0,0,1-14.3-5.44c-2.15-1.41-4.1-3.11-6.33-4.39a14.84,14.84,0,0,0-3.51-1.55,10,10,0,0,0-3.81-.31c-2.58.25-4.88,1.54-7.15,2.73A31.71,31.71,0,0,1,108,452a11.63,11.63,0,0,1-1.85.56,11.17,11.17,0,0,1-1.91.3A14.85,14.85,0,0,1,91,446.26a12.45,12.45,0,0,1-2-7.33,14.85,14.85,0,0,1,2.24-7.32,14.64,14.64,0,0,1,2.44-3,24.93,24.93,0,0,1,3.06-2.36,26.79,26.79,0,0,0,3-2.34,6.6,6.6,0,0,0,2-3.21,7.58,7.58,0,0,0-.18-3.78,10,10,0,0,0-1.84-3.34c-1.59-2-3.62-3.68-4.92-5.93a12.26,12.26,0,0,1-1.62-7.44,20.43,20.43,0,0,1,2.3-7.34A46.45,46.45,0,0,1,105,380.81c3.69-3.58,7.48-7.06,11.32-10.49,7.67-6.86,15.51-13.52,23.17-20.39,15.48-13.59,29-29.13,42.86-44.36,6.84-7.68,13.56-15.49,19.7-23.75a173.39,173.39,0,0,0,16.34-26.12h0a271.44,271.44,0,0,0,14.43-51.44l2.35-13.18c.79-4.39,1.55-8.78,2.07-13.21a80.53,80.53,0,0,0,.63-13.35,23.94,23.94,0,0,1,.54-6.65A10.68,10.68,0,0,1,242,152.3Z"/><path d="M308.37,224.1a28.24,28.24,0,0,0-7.18,4.44,12.83,12.83,0,0,0-4.38,6.82,12,12,0,0,0,1.12,7.67,14.06,14.06,0,0,0,5,5.55,17.82,17.82,0,0,0,6.81,2.55,24.62,24.62,0,0,0,3.64.32c.6,0,1.21,0,1.82,0s1.11-.13,1.58-.19a26.69,26.69,0,0,0,6.47-2.43,55.48,55.48,0,0,0,6.45-4,57.49,57.49,0,0,0,5.94-4.78,35.91,35.91,0,0,0,4.87-5.4,11,11,0,0,0,2.25-5.46,4.69,4.69,0,0,0-.58-2.49,2.34,2.34,0,0,0-.4-.62c-.16-.21-.3-.43-.47-.64A15.92,15.92,0,0,0,340,224.3a17.83,17.83,0,0,0-3.2-2,16.13,16.13,0,0,0-3.71-1.2,35.88,35.88,0,0,0-8.26-.64A44.85,44.85,0,0,0,308.37,224.1Zm0,0a78.54,78.54,0,0,1,16.31-5,51.48,51.48,0,0,1,8.69-1,21.12,21.12,0,0,1,4.63.36,22.35,22.35,0,0,1,4.55,1.47,19.7,19.7,0,0,1,2.24,1.22c.36.26.71.55,1.06.83a6.5,6.5,0,0,1,1,.95,10.79,10.79,0,0,1,2.8,5.18,13.53,13.53,0,0,1,0,5.77l-.3,1.34-.41,1.26a20.27,20.27,0,0,1-1,2.39,33.35,33.35,0,0,1-5.54,8,44.17,44.17,0,0,1-7.05,6.15,42.74,42.74,0,0,1-8.23,4.56,28.1,28.1,0,0,1-9.78,2.23l-1.41,0c-.49,0-.84-.08-1.26-.12-.81-.11-1.61-.25-2.41-.42a27.29,27.29,0,0,1-4.66-1.44,23.33,23.33,0,0,1-8-5.46,18.49,18.49,0,0,1-4.51-8.32,15.52,15.52,0,0,1,.39-9,15.17,15.17,0,0,1,5.46-6.7A38.62,38.62,0,0,1,308.37,224.1Z"/><path d="M299.83,66.68c-15.41,7.47-30.06,17-41.76,29.51a79.08,79.08,0,0,0-14.26,20.94,56.41,56.41,0,0,0-4.33,11.68,12.85,12.85,0,0,0-.26,5.45l.14.54a4.54,4.54,0,0,0,.21.45,4,4,0,0,0,.59.83,4.27,4.27,0,0,0,1.68,1.1,5.27,5.27,0,0,0,4.1-.64,16.46,16.46,0,0,0,2.21-1.55c.76-.61,1.5-1.26,2.21-2a34.47,34.47,0,0,0,3.89-4.43,23.77,23.77,0,0,0,1.55-2.42c.5-.86,1-1.74,1.43-2.65,1.85-3.62,3.42-7.6,5.43-11.65a51.64,51.64,0,0,1,3.49-6,39.12,39.12,0,0,1,4.56-5.52,61.22,61.22,0,0,1,10.9-8.54c3.82-2.39,7.67-4.49,11.43-6.52l11.34-6.11,11.37-6c3.81-2,7.56-4,11.6-6a69.17,69.17,0,0,1,12.91-4.86A67.65,67.65,0,0,1,347,61c2.24-.33,4.46-.57,6.67-.77,4.41-.39,8.77-.54,13.05-.7l6.39-.24c2.09-.1,4.28-.17,6.09-.39a92,92,0,0,0,12.08-2.79A51.35,51.35,0,0,1,398.08,55a23.68,23.68,0,0,0,5.48-1.13l.33-.12.22-.14a1.24,1.24,0,0,0,.26-.25s0,0,.07.07.06,0,0-.1A1.11,1.11,0,0,0,404,53a1.29,1.29,0,0,0-.31-.14,4.6,4.6,0,0,0-.51-.14,11.2,11.2,0,0,0-2.62-.16c-1,0-2,.11-3.12.19-.56,0-1.13.07-1.74.09l-1.63,0-6.5-.09c-2.16,0-4.32,0-6.5-.17s-4.32-.29-6.46-.43a118.41,118.41,0,0,0-12.74-.39c-4.25.21-8.53.52-12.78,1A155.78,155.78,0,0,0,299.83,66.68Zm0,0a185.21,185.21,0,0,1,49.1-15.25c4.25-.71,8.5-1.36,12.81-1.85a120.62,120.62,0,0,1,13-.46c4.32,0,8.51,0,12.78-.39l6.38-.42,1.58-.1L397,48c1-.16,2.12-.34,3.28-.47a16.52,16.52,0,0,1,3.8,0,8.61,8.61,0,0,1,1.07.19,5.83,5.83,0,0,1,1.2.4,6.74,6.74,0,0,1,2.2,1.5,5.79,5.79,0,0,1,1.49,2.7,5.67,5.67,0,0,1-.24,3.23,6.64,6.64,0,0,1-1.55,2.38,7.86,7.86,0,0,1-1,.87,8.72,8.72,0,0,1-1.09.62,29,29,0,0,1-6.94,2.1,52.29,52.29,0,0,0-5.87,1.34,96.71,96.71,0,0,1-12.79,3.82c-2.43.45-4.53.64-6.71.9s-4.33.42-6.47.6c-4.28.37-8.5.75-12.62,1.25-2.06.27-4.1.56-6.1.93s-4,.79-5.84,1.29C335.34,73.71,328.08,78,320.4,82l-11.42,6L297.52,93.8c-7.66,3.89-15.11,7.52-20.83,12.71a37.22,37.22,0,0,0-3.87,4.18,43.08,43.08,0,0,0-3.28,4.9c-2.05,3.52-3.9,7.44-6.21,11.33-.58,1-1.18,1.94-1.84,2.89a31.75,31.75,0,0,1-2.16,2.84,41.76,41.76,0,0,1-5,4.87c-.89.73-1.82,1.44-2.79,2.1a21.64,21.64,0,0,1-3.23,1.86,12,12,0,0,1-4,1,9.18,9.18,0,0,1-4.35-.73,9,9,0,0,1-3.44-2.71,8.76,8.76,0,0,1-1.11-1.89,8.19,8.19,0,0,1-.37-1.05l-.2-1-.09-.52,0-.49,0-1c0-.63.08-1.25.17-1.86a24.84,24.84,0,0,1,.78-3.43,62.72,62.72,0,0,1,5.52-12.06,80.9,80.9,0,0,1,7.19-10.91,99.75,99.75,0,0,1,8.75-9.61C269.59,83.24,284.4,74.15,299.83,66.68Z"/></svg>