<svg id="Layer_1" data-name="Layer 1" xmlns="http://www.w3.org/2000/svg" viewBox="0 0 600 600"><title>NorthKorea</title><path d="M130.82,283.53a52.85,52.85,0,0,1,5.18-3.18c1.75-1,3.57-1.9,5.38-2.82a109.08,109.08,0,0,1,11.18-4.81,145.49,145.49,0,0,0,22-9.85,125.41,125.41,0,0,0,19.6-13.67,130.11,130.11,0,0,0,16.59-17,117.49,117.49,0,0,0,13.08-19.64c.89-1.76,1.81-3.49,2.57-5.3s1.6-3.57,2.23-5.43,1.38-3.64,1.94-5.54l1.75-5.78a107.93,107.93,0,0,1,4.24-12.26,58.29,58.29,0,0,1,3.27-6.3l1-1.56c.36-.51.74-1,1.12-1.52s.79-1,1.21-1.49l.63-.74c.19-.24.51-.52.77-.78a33,33,0,0,1,14.55-8.1,28.07,28.07,0,0,1,9.08-.9,22.72,22.72,0,0,1,10.59,3.34c.86.58,1.71,1.2,2.53,1.86a29.45,29.45,0,0,1,2.24,2.23l.53.59.52.7a16.14,16.14,0,0,1,1,1.42,25,25,0,0,1,1.47,2.75,42.93,42.93,0,0,1,1.7,4.42c.41,1.19.73,2.1,1,2.73s.55.94.68,1,.07,0,.09,0a.29.29,0,0,0,0-.14v-.13l.06.05.25.2a2.41,2.41,0,0,0,1.47.64,9.28,9.28,0,0,1,1.47,0l1.36.08.88,0,.52,0,.81.07c2.17.16,4.31.39,6.42.65s4.18.5,6.23.81a72.49,72.49,0,0,1,11.8,2.33A82.76,82.76,0,0,1,332.62,187a60,60,0,0,0,10.72,4,4.53,4.53,0,0,0,.75,0c.26,0,.52.06.78.09l1.4.2c.9.12,1.7.22,2.37.29,1.39.19,2.1.2,2.22.41s0,.29.1.42a.22.22,0,0,0,.18.08l.14,0,.09,0,.09-.09a4.92,4.92,0,0,0,.66-.62,5,5,0,0,0,.42-1.23,10.61,10.61,0,0,0-2-7.45c-1.87-2.65-4.75-5.24-7.82-8.36a68.83,68.83,0,0,1-4.72-5.27,36.17,36.17,0,0,1-4.36-7c-.16-.35-.31-.64-.48-1s-.34-.91-.49-1.37a19.15,19.15,0,0,1-.67-2.9,17.9,17.9,0,0,1,1.34-10.23,16.84,16.84,0,0,1,2.15-3.53,19.11,19.11,0,0,1,5.82-4.89,28.62,28.62,0,0,1,5.37-2.26c1.59-.5,3-.85,4.2-1.16.28-.07.62-.15.84-.22l.7-.2,1.4-.42,2.84-.86c7.65-2.38,15.9-4.9,25.57-6.23l-1.42,0c.86-.25,1.74-.46,2.59-.76s1.66-.57,2.46-.88l2.34-.94c.75-.28,1.51-.57,2.23-.79a33.58,33.58,0,0,1,7.9-1.13c2.32-.16,4.26-.13,6-.21a7.28,7.28,0,0,0,4.85-1.59,9.07,9.07,0,0,0,1.17-1.43,20.46,20.46,0,0,0,1.14-2c.75-1.51,1.46-3.37,2.27-5.47.39-1,.83-2.16,1.33-3.31.26-.6.45-1.09.86-1.93l.55-1.14c.2-.38.43-.77.65-1.15a24.73,24.73,0,0,1,7.61-8.24,28.51,28.51,0,0,1,4.6-2.52,32.55,32.55,0,0,1,4.17-1.48c2.59-.76,4.72-1.21,6.5-1.64a26.47,26.47,0,0,0,4.05-1.29,4.29,4.29,0,0,0,1.61-1.07,2.87,2.87,0,0,0,.28-.43c.09-.1.2-.5.37-.71a1,1,0,0,0,.19-.39,2.76,2.76,0,0,1,.18-.39c.05-.14.08-.32.13-.48a2,2,0,0,0,.14-.51,13.29,13.29,0,0,0,.26-1.36l.12-.81.07-1c.06-.6.06-1.46.09-2.22l0-2.62a64.34,64.34,0,0,1,1.28-14.35,21.75,21.75,0,0,1,.59-2.15l.69-2.17a46.07,46.07,0,0,1,2-4.29c.4-.69.81-1.37,1.23-2.05l.63-1c.23-.33.5-.67.75-1,.52-.66,1-1.34,1.59-2L458,46.5A33.2,33.2,0,0,1,465.59,41a34.32,34.32,0,0,1,8.73-3.28,31.46,31.46,0,0,1,10.05-.66,25.85,25.85,0,0,1,11,3.58,22.42,22.42,0,0,1,2.57,1.75l1.23,1c.38.35.74.72,1.11,1.08a29,29,0,0,1,2.07,2.28c.59.78,1.18,1.58,1.7,2.39a35,35,0,0,1,4,9.44c.82,2.82,1.4,5.22,2.08,7.21a16.79,16.79,0,0,0,2.17,4.6c.73,1,1.52,1.3,1.86,1a3.51,3.51,0,0,0,.36-.52c0-.06.07-.12.15-.15s.1,0,.16,0a7.93,7.93,0,0,1,1.41,1c.78.53,1.76,1.26,3.06,2s3,1.81,4.85,3c.93.61,1.94,1.27,3,2s2.14,1.56,3.26,2.47a46.58,46.58,0,0,1,6.91,6.73,37.44,37.44,0,0,1,3.45,5,34.29,34.29,0,0,1,4.49,17.6c0,.57,0,1.17-.1,1.79s-.12,1.22-.22,1.88l-.16.95c-.06.33-.16.71-.24,1.06-.18.72-.37,1.43-.58,2.14l-.34,1c-.16.4-.32.79-.49,1.19-.35.78-.72,1.55-1.12,2.3a24.58,24.58,0,0,1-3.18,4.38,23.17,23.17,0,0,1-3.91,3.34c-.65.44-1.34.88-2,1.24s-1.2.6-1.82.88l-.92.4c-.29.12-.53.19-.8.29q-.79.27-1.59.51l-.72.21-.68.16-1.33.31c-.73.13-1.56.28-2.21.37l-1,.12-.88.1-2.62.27-.76.08c-.26,0-.26,0-.31,0h0l.09,0,.18-.11c.06-.05-.07,0-.1,0l-.16.07-.33.14-.65.28a7,7,0,0,0-.64.37,6.85,6.85,0,0,0-1.29.83,18.71,18.71,0,0,0-4.84,5.9c-3.06,5.24-5.7,12.52-11.75,20-.75.92-1.62,1.85-2.49,2.72a36.5,36.5,0,0,1-3,2.52,14.3,14.3,0,0,1-1.45,1c-.47.28-1,.58-1.41.83l-2.7,1.52a29.12,29.12,0,0,0-4.6,3c-1.29,1.11-2.39,2.23-3.39,3.27a24.06,24.06,0,0,0-2.54,3,16.6,16.6,0,0,0-1.64,2.76l-.29.66c-.06.22-.14.44-.22.66a2.62,2.62,0,0,0-.15.58c-.05.19-.1.37-.16.55a6.43,6.43,0,0,0,0,1.68,8.72,8.72,0,0,0,.58,2.24,6.7,6.7,0,0,0,.31.8l.37.91c.33.7.62,1.36,1,2.2l1.27,2.62.69,1.52c.22.49.46,1,.69,1.62a49.25,49.25,0,0,1,2.56,7.57c.31,1.41.63,2.9.77,4.11s.33,2.53.43,3.78.13,2.46.18,3.69,0,2.4-.06,3.57a100.89,100.89,0,0,1-1.47,13.31c-.76,4.18-1.67,8.15-2.56,12l-1.35,5.68a56.35,56.35,0,0,1-2.18,7.33,28.43,28.43,0,0,1-5.29,8.83,25.42,25.42,0,0,1-8.68,6.23,33.3,33.3,0,0,1-8.24,2.32c-2.36.38-4.34.57-5.95.78-.81.1-1.5.2-2.11.3s-1.08.22-1.55.35a10.17,10.17,0,0,0-2.6,1.12,18.48,18.48,0,0,0-5.27,5.65c-1.85,2.79-3.74,6.34-6.45,10.18a42.4,42.4,0,0,1-4.91,5.8,29,29,0,0,1-6.77,4.91,17.54,17.54,0,0,1-1.91.91,20.16,20.16,0,0,1-1.95.76l-1,.32-.43.14-.36.1-1.42.41q-2.81.78-5.12,1.58a22.69,22.69,0,0,0-4,1.73,12.77,12.77,0,0,0-2.78,2.11,4.66,4.66,0,0,0-.56.61l-.27.34-.36.47c-.48.64-1,1.34-1.52,2.11-1.09,1.52-2.3,3.3-3.83,5.2a35.07,35.07,0,0,1-2.58,2.84c-.93.91-1.9,1.78-2.9,2.58a40.13,40.13,0,0,1-6.28,4.12,48.74,48.74,0,0,1-13.48,4.78c-4.5.88-8.18,1.21-10.56,1.95a11.78,11.78,0,0,0-2.8,1.17c-.19.13-.33.2-.58.35l-1.18.79a5.82,5.82,0,0,1-1.24.7,2.68,2.68,0,0,0-1.19.76,43.91,43.91,0,0,0-3.68,4.45,16.69,16.69,0,0,1-1.92,2c-.69.6-1.44,1.12-2.14,1.68-2.84,2.21-5.56,4.47-8.07,6.78-1.25,1.16-2.43,2.32-3.58,3.46s-2.18,2.31-3.09,3.45l-.68.86c-.1.16-.13.22-.21.33l-.12.13c0,.05,0,.08,0,.11a.48.48,0,0,1-.12.17,3,3,0,0,0-.22,1.15,22.66,22.66,0,0,0,.47,3.95l.52,3.07.26,1.85c.09.58.13,1.36.19,2a27.76,27.76,0,0,1-.87,9.64,17.92,17.92,0,0,1-.83,2.47,19.7,19.7,0,0,1-1.07,2.41c-.43.77-.85,1.6-1.33,2.29s-1,1.4-1.49,2.05a36.17,36.17,0,0,1-5.95,5.7c-1.77,1.4-3.26,2.46-4.28,3.32A8.55,8.55,0,0,0,309,409c0,.11-.09.15-.1.21s0,.08,0,.13a.2.2,0,0,1,0,.08s0,.07,0,.1-.06.15,0,.22a.37.37,0,0,1,0,.21c.09.13.07.29.19.47a4.77,4.77,0,0,0,.94,1.33,8.26,8.26,0,0,0,1.88,1.36,7.38,7.38,0,0,0,2.23.68,5.42,5.42,0,0,0,1,.05,1.69,1.69,0,0,1,.38-.07l.48-.05.66-.09a54.49,54.49,0,0,1,7.35-.57,28.6,28.6,0,0,1,5,.47l1.26.24,1,.23c.68.16,1.35.34,2,.52,2.56.68,4.77,1.46,6.69,2l1.37.38.65.16.32.06.42.13,1.81.57c.61.19,1.3.46,1.94.69s1.35.55,2.05.86l1.05.49,1.08.57a23,23,0,0,1,2.1,1.22l1,.65.93.64c2.5,1.74,4.28,3.18,5.89,4.36l2.3,1.67,2.17,1.6c2.86,2.11,5.54,4.33,8.25,6.68,1.32,1.2,2.65,2.4,3.94,3.7a37,37,0,0,1,5.18,6.26,30.88,30.88,0,0,1,2.67,5.05,28.3,28.3,0,0,1,1.75,6.18,25.45,25.45,0,0,1-1.06,11.88,29.62,29.62,0,0,1-4.71,8.78,49,49,0,0,1-5.81,6.26,41.75,41.75,0,0,1-6.36,4.66c-.56.33-1.11.67-1.68,1s-1.16.6-1.73.89c-1.13.51-2.17,1-3.27,1.47a81.8,81.8,0,0,1-12.86,4.28c-4.21,1.07-8.35,2.06-12.32,3-2,.46-3.9.88-5.82,1.24s-3.84.69-5.76.94c-3.85.45-7.7.67-11.56.77-1.93.05-3.86.11-5.79.08s-3.86,0-5.79-.09l-5.68-.14c-1.76,0-3.48-.05-5.07,0a22.21,22.21,0,0,0-8.06,1.7c-.24.14-.48.27-.73.39s-.42.29-.64.42l-.32.2-.27.23c-.18.16-.37.31-.53.48a8.7,8.7,0,0,0-1.58,2.3,7.33,7.33,0,0,0-.29.7l-.15.36-.08.17a.34.34,0,0,0,0,.1l0,.17,0,.26-.11.66c-.17,1-.35,2.65-.64,4.65a37.2,37.2,0,0,1-1.84,7.5,25.61,25.61,0,0,1-2.35,4.73c-.27.42-.57.82-.86,1.22l-.45.6-.41.49a23.37,23.37,0,0,1-1.71,1.84,31.07,31.07,0,0,1-3.44,2.88c-1.06.73-2.09,1.4-2.91,1.85a22.44,22.44,0,0,1-3.52,1.75c-.4.13-.65.25-1,.35-.14.08-.32.12-.48.22l-.25.15-.13.08a2.74,2.74,0,0,0-.2.26c-1.19,1.58-2.44,3.33-3.92,5.2-.76.93-1.54,1.94-2.5,3a23.85,23.85,0,0,1-3.71,3.31,13.5,13.5,0,0,1-2.89,1.55,11.09,11.09,0,0,1-3.72.74,10.79,10.79,0,0,1-3.58-.46,12.35,12.35,0,0,1-2.68-1.23,16.64,16.64,0,0,1-3.47-2.83c-.48-.48-.85-.94-1.27-1.41s-.77-.92-1.1-1.37c-.75-1-1.18-1.67-1.7-2.38a14.59,14.59,0,0,0-1.53-1.89,8.08,8.08,0,0,0-3-1.92,6.56,6.56,0,0,0-1.44-.27,9.82,9.82,0,0,0-1.75.09c-.15,0-.36,0-.45.07a2.1,2.1,0,0,1-.24.06l-.22.08-.21.1a4.23,4.23,0,0,0-.91.68,32.66,32.66,0,0,0-3,3.73,17.85,17.85,0,0,1-2.87,3.08,11.33,11.33,0,0,1-2.56,1.59,10.25,10.25,0,0,1-3.36.84,12,12,0,0,1-5.62-1,19.1,19.1,0,0,1-3.58-2,40.8,40.8,0,0,1-5.25-4.38c-1.5-1.45-2.86-2.86-4.16-4.14a41.41,41.41,0,0,0-3.7-3.27,11.51,11.51,0,0,0-3.29-1.81,6.69,6.69,0,0,0-1.46-.34,6,6,0,0,1-.73,0c-.19,0,0,0,0,0s.1,0,.14,0c.2-.05.15,0,0,.12a7.55,7.55,0,0,0-1,1,26.52,26.52,0,0,0-2.5,3.74c-.86,1.49-1.72,3.13-2.63,4.85s-1.87,3.54-3.07,5.48a33.46,33.46,0,0,1-2.15,3l-.66.8-.8.85-.42.41-.5.45c-.36.29-.66.56-1.09.86s-.88.58-1.33.84a14.26,14.26,0,0,1-1.67.75,10.24,10.24,0,0,1-1.93.51,8.48,8.48,0,0,1-2.09.17,8.88,8.88,0,0,1-2-.23,13.33,13.33,0,0,1-1.87-.52c-.52-.22-1-.46-1.54-.72a4.41,4.41,0,0,1-.67-.39l-.6-.39c-.37-.27-.82-.56-1.11-.82l-.9-.81-.45-.41c-.12-.1-.39-.42-.58-.63a9.84,9.84,0,0,1-1.13-1.52,12,12,0,0,1-1.47-3.42,15.22,15.22,0,0,1-.44-2.84c-.09-1.56,0-2.55-.1-2.87s-.07.07.2.56c.07.1,0,0,0,0l-.07-.1c-.06-.05-.09-.15-.15-.18s-.17-.21-.26-.25a1.44,1.44,0,0,0-.51-.3,7.25,7.25,0,0,0-2.52-.41,38.78,38.78,0,0,0-4.74.23c-1.84.16-3.92.39-6.41.41a25.77,25.77,0,0,1-4.19-.3,16.94,16.94,0,0,1-5.16-1.65,15.24,15.24,0,0,1-4.92-4,17,17,0,0,1-2.72-5.19,29.41,29.41,0,0,1-1.16-8.14c0-2.2,0-4.11-.1-5.5a7.54,7.54,0,0,0-.19-1.39,9.72,9.72,0,0,0-.46-1.41c-.1-.29-.23-.16.41.55a5.21,5.21,0,0,0,1.57,1.07,4.71,4.71,0,0,0,1.64.41c.67,0,.41,0-.16.19l-2.47.81c-1,.33-2.2.7-3.52,1-.65.15-1.35.29-2.07.4-.36.06-.74.1-1.11.14l-.62.06c-.32,0-.63,0-.94,0a14.32,14.32,0,0,1-3.78-.46,13.16,13.16,0,0,1-4.11-1.84,12.06,12.06,0,0,1-5.35-9.89,13.06,13.06,0,0,1,.94-4.94,14,14,0,0,1,3.68-5.21c.27-.23.54-.47.84-.69s.69-.49.84-.59l1.32-.87c1.74-1.12,3.39-2.15,4.59-3a13.08,13.08,0,0,0,2.35-2A8.79,8.79,0,0,0,106,487l.32-.86.29-1,.43-1.49q.22-.81.51-1.65a43.4,43.4,0,0,1,2.78-6.79,33.75,33.75,0,0,1,4.47-6.57,32.62,32.62,0,0,1,5.77-5.21,46.93,46.93,0,0,1,6.07-3.67c1.89-1,3.47-1.72,5-2.53a34.49,34.49,0,0,0,3.9-2.36c.25-.19.56-.39.76-.57s.44-.37.66-.54a5.67,5.67,0,0,1,.5-.48c.16-.15.22-.28.36-.41a2.63,2.63,0,0,0,.54-.88c0-.09.07-.14,0-.28a1.53,1.53,0,0,1,0-.43,4.58,4.58,0,0,0-.17-.59,3.63,3.63,0,0,0-.17-.6,35.58,35.58,0,0,0-2.51-4.19l-.48-.8c-.17-.29-.33-.56-.53-1a17,17,0,0,1-1-2.3,19,19,0,0,1-.7-2.45,19.54,19.54,0,0,1-.31-2.48,22.09,22.09,0,0,1,1.28-8.47,56,56,0,0,1,2.56-6,61.8,61.8,0,0,1,3.1-5.76c1.1-1.8,2.22-3.48,3.3-5.1a90.16,90.16,0,0,0,5.68-9.14,30.82,30.82,0,0,0,1.83-4.35c.53-1.72,1-3.4,1.32-5a19.52,19.52,0,0,0,.13-8.88,8.74,8.74,0,0,0-.68-1.85,12,12,0,0,0-1-1.75,15.42,15.42,0,0,0-3-3.07,40.49,40.49,0,0,0-9.15-4.84l-5.41-2.24c-.92-.38-1.86-.81-2.8-1.26-.47-.21-.94-.47-1.42-.71l-1.32-.69a21.65,21.65,0,0,0-9.29-2.86,9.56,9.56,0,0,0-4.14.78c-.33.12-.6.33-.92.48a3.34,3.34,0,0,0-.65.49,19,19,0,0,0-1.65,1.85,48.8,48.8,0,0,1-4,4.7,11,11,0,0,1-3.22,2.21,6.66,6.66,0,0,1-4.7.26,7.84,7.84,0,0,1-2-.94,9.41,9.41,0,0,1-1.52-1.23,11.57,11.57,0,0,1-2.13-3,21.72,21.72,0,0,1-1.2-3L91.13,366l-.4-1.28a25.68,25.68,0,0,0-5.41-9.22A61.14,61.14,0,0,0,76.9,348a39.67,39.67,0,0,1-4.66-3.84,5.78,5.78,0,0,1-.56-.69,5.39,5.39,0,0,1-.49-.82,4.2,4.2,0,0,1-.39-2,8.3,8.3,0,0,1,1-3.23c.92-1.83,1.93-3.43,2.89-5.12s2-3.33,3-5a57.11,57.11,0,0,1,7.13-9.3l1.07-1,1.14-1,1.21-.87,1.24-.78c1.66-1,3.38-1.92,5.1-2.8,3.45-1.76,7-3.32,10.34-5.21a46.38,46.38,0,0,0,4.84-3.12,55.94,55.94,0,0,0,4.41-3.72c5.63-5.26,10.42-11.45,16.7-16Zm.05.07c-6.08,4.82-10.61,11.09-16.07,16.66a52.92,52.92,0,0,1-4.35,4,48.53,48.53,0,0,1-4.86,3.38c-3.37,2-6.88,3.68-10.23,5.5-1.68.91-3.34,1.82-4.92,2.83l-1.17.78-1.07.8-1,.9-1,1a54.16,54.16,0,0,0-6.66,9.1c-1,1.63-1.94,3.29-2.88,5s-1.92,3.39-2.68,5a6.05,6.05,0,0,0-.69,2.26,2.25,2.25,0,0,0,.81,1.69,40.07,40.07,0,0,0,4.39,3.4,63.25,63.25,0,0,1,9,7.56,29.19,29.19,0,0,1,6.37,10.12l.5,1.42.44,1.34a18.23,18.23,0,0,0,1.06,2.5,7.75,7.75,0,0,0,1.5,2,5.18,5.18,0,0,0,2,1.23c1.36.47,2.82-.34,4.08-1.63A42.17,42.17,0,0,0,107,366a24.09,24.09,0,0,1,1.94-2.32,8.13,8.13,0,0,1,1.25-1.06,14.15,14.15,0,0,1,1.36-.79,13.9,13.9,0,0,1,6-1.44,25.82,25.82,0,0,1,11.53,3,95.75,95.75,0,0,0,10.63,4.34,47,47,0,0,1,10.55,5.13,21.19,21.19,0,0,1,4.36,4.1,17.27,17.27,0,0,1,1.61,2.54,14.65,14.65,0,0,1,1.19,2.76,25.06,25.06,0,0,1,.48,11.76c-.31,1.93-.76,3.83-1.25,5.7a35.31,35.31,0,0,1-2,5.51,94.54,94.54,0,0,1-5.79,10.09,73.86,73.86,0,0,0-5.6,10.05,54.88,54.88,0,0,0-2.12,5.34,14.81,14.81,0,0,0-.79,5.58,10.51,10.51,0,0,0,1.91,5.24,50.26,50.26,0,0,1,3.12,4.9,9.92,9.92,0,0,1,.55,1.36,12,12,0,0,1,.47,1.39l.29,1.45a14.33,14.33,0,0,1,.07,1.47,10.11,10.11,0,0,1-1.78,5.5,17.4,17.4,0,0,1-4.06,4.15,40.8,40.8,0,0,1-4.85,3.17c-3.36,1.92-6.91,3.48-10,5.82a24.48,24.48,0,0,0-7.44,8.7,33.84,33.84,0,0,0-2.14,5.36c-.6,1.84-1,3.74-1.69,5.54a17.14,17.14,0,0,1-2.86,5,20.13,20.13,0,0,1-4.37,3.76c-1.6,1.07-3.28,2-4.92,3a9.34,9.34,0,0,0-2.31,1.72,4.24,4.24,0,0,0-1,2.64,3,3,0,0,0,1.33,2.44,4.93,4.93,0,0,0,2.75.77,22.38,22.38,0,0,0,5.66-1.13,19.18,19.18,0,0,1,5.62-1.27,3.82,3.82,0,0,1,2.59,1.12,7.12,7.12,0,0,1,1.49,2.46,17,17,0,0,1,1.13,5.64c.07,1.93,0,3.86,0,5.79a20.43,20.43,0,0,0,.67,5.73,8.5,8.5,0,0,0,1.29,2.57,7,7,0,0,0,2.21,1.84,12.33,12.33,0,0,0,5.62,1.12c1.93,0,3.86-.15,5.78-.28a44.62,44.62,0,0,1,5.78-.11,13.83,13.83,0,0,1,5.58,1.38,10,10,0,0,1,4.1,4,6.2,6.2,0,0,1,.72,2.77c.06,1,0,1.93.05,2.89a5.55,5.55,0,0,0,.75,2.76,3.48,3.48,0,0,0,.43.58,4.1,4.1,0,0,0,.5.52,8.09,8.09,0,0,0,1.11.92,4.68,4.68,0,0,0,2.67,1,4.53,4.53,0,0,0,2.69-.9,16.4,16.4,0,0,0,3.78-4.35c1-1.62,2-3.31,2.92-5,1.88-3.35,3.67-6.82,6.22-9.73a13.59,13.59,0,0,1,2.13-2,7.2,7.2,0,0,1,2.62-1.17,11.6,11.6,0,0,1,5.67.78c3.65,1.36,6.54,4.1,9.23,6.82s5.22,5.72,8.38,8a13.5,13.5,0,0,0,2.48,1.47,6.07,6.07,0,0,0,2.81.59,4.67,4.67,0,0,0,2.63-1.09,13.6,13.6,0,0,0,2-2.1,31.47,31.47,0,0,1,3.76-4.39,8.68,8.68,0,0,1,5.22-2.25,14.58,14.58,0,0,1,2.88,0,11.27,11.27,0,0,1,2.81.66,13.87,13.87,0,0,1,4.77,3.2c1.4,1.33,2.59,2.86,3.85,4.32a21.93,21.93,0,0,0,2,2.07,11.41,11.41,0,0,0,2.36,1.66,4.91,4.91,0,0,0,2.78.62,4.7,4.7,0,0,0,2.6-1.15,15.5,15.5,0,0,0,3.4-4.65c.9-1.7,1.68-3.47,2.47-5.23a15,15,0,0,1,3.24-4.75c2.72-2.76,6.33-4.42,9-7.21a12.82,12.82,0,0,0,3.11-4.83,35.85,35.85,0,0,0,1.52-5.57c.4-1.89.75-3.79,1.33-5.63a18.38,18.38,0,0,1,1.07-2.69c.45-.85.95-1.68,1.48-2.48a21.32,21.32,0,0,1,3.89-4.27,22.48,22.48,0,0,1,4.91-3,36.41,36.41,0,0,1,11.2-2.74c3.84-.42,7.7-.45,11.56-.56l11.57-.31,23.14-.64a99,99,0,0,0,11.54-.92,40,40,0,0,0,11.07-3.24,23.36,23.36,0,0,0,8.91-7.19,20.17,20.17,0,0,0,4.14-10.64,14,14,0,0,0-.75-5.7,11.74,11.74,0,0,0-.56-1.33,8.22,8.22,0,0,0-.67-1.28,18.35,18.35,0,0,0-1.7-2.34,46.32,46.32,0,0,0-4.09-4.08c-1.41-1.32-2.84-2.62-4.23-4q-4.2-4-8.17-8.21c-1.32-1.4-2.61-2.84-3.9-4.27s-2.58-2.88-4-4.19a23.18,23.18,0,0,0-4.68-3.37c-1.68-.95-3.47-1.69-5.21-2.53s-3.5-1.63-5.31-2.29a17.9,17.9,0,0,0-5.64-1.21,42.82,42.82,0,0,0-5.77.3,27.83,27.83,0,0,1-2.89.15,18.43,18.43,0,0,1-2.87-.34,19.11,19.11,0,0,1-10-5.52,15.76,15.76,0,0,1-3.1-4.84,14.21,14.21,0,0,1-.79-2.78l-.14-1.44a14.09,14.09,0,0,1,0-1.45,12.15,12.15,0,0,1,1.68-5.47,18.08,18.08,0,0,1,3.81-4.33c2.89-2.53,6.22-4.63,8.63-7.67a14.27,14.27,0,0,0,2.56-5.14,16.08,16.08,0,0,0,.4-5.74c-.31-3.85-1.57-7.57-1.72-11.44a15.48,15.48,0,0,1,.8-5.69c.18-.45.4-.88.59-1.32.11-.22.19-.45.31-.66l.39-.6.79-1.22.89-1.14A69.38,69.38,0,0,1,325,350c2.85-2.6,5.84-5,8.9-7.39s6.19-4.61,9.36-6.81c1.6-1.08,3.15-2.23,4.81-3.23a20.71,20.71,0,0,1,5.37-2.11c3.74-1,7.62-1.16,11.42-1.81a40.43,40.43,0,0,0,11-3.52,28,28,0,0,0,9.12-7c2.54-2.91,4.48-6.3,7.19-9.06a26.22,26.22,0,0,1,9.86-5.88c1.81-.66,3.66-1.24,5.5-1.82a27,27,0,0,0,5.37-2.1,23.27,23.27,0,0,0,8.2-8c2.14-3.22,3.83-6.7,5.8-10a30.47,30.47,0,0,1,7.31-8.89,20.54,20.54,0,0,1,5-2.87,29.86,29.86,0,0,1,5.57-1.54c3.78-.73,7.69-1.13,11.2-2.79a13.66,13.66,0,0,0,4.57-3.48,15.77,15.77,0,0,0,2.75-5.06,38.57,38.57,0,0,0,1.37-5.61l1-5.7c.69-3.79,1.37-7.59,1.88-11.42,1-7.62,1.46-15.47-.36-23a59.76,59.76,0,0,0-4.36-10.7,54.13,54.13,0,0,1-2.27-5.32,23.56,23.56,0,0,1-1.31-5.62,21.07,21.07,0,0,1,.23-5.77,27.33,27.33,0,0,1,1.7-5.52,38,38,0,0,1,6.2-9.72c2.49-3,5.26-5.65,8-8.34a83,83,0,0,0,7.91-8.44c4.81-6,8.7-12.76,13.57-18.75a46.73,46.73,0,0,1,8.23-8.1,22.92,22.92,0,0,1,2.4-1.62c.41-.25.8-.53,1.23-.75l1.3-.65a16.79,16.79,0,0,1,5.48-1.78c1.9-.35,3.81-.59,5.69-1a9.83,9.83,0,0,0,5-2.63,8,8,0,0,0,.81-1.19l.29-.66a2.28,2.28,0,0,0,.23-.68,9.82,9.82,0,0,0,.36-2.85,15.56,15.56,0,0,0-1.24-5.62c-1.43-3.62-4.32-6.41-7.42-8.66s-6.56-4-9.89-6a37,37,0,0,1-9.13-7,17.53,17.53,0,0,1-3.1-4.87A22.88,22.88,0,0,1,495.64,73c-.6-3.82-.66-7.7-1.45-11.48a17.65,17.65,0,0,0-2-5.4,12.61,12.61,0,0,0-4-4.11,12.77,12.77,0,0,0-5.42-1.84,16.55,16.55,0,0,0-5.74.31A21.06,21.06,0,0,0,467,55.81a19.79,19.79,0,0,0-5.46,10,54.09,54.09,0,0,0-.9,11.51,43.94,43.94,0,0,1-1.15,11.49c-.26.93-.63,1.82-1,2.72l-.67,1.28a7.48,7.48,0,0,1-.74,1.25,16,16,0,0,1-3.92,4.23c-3.14,2.32-7,3.25-10.77,4s-7.69,1.37-10.91,3.57a12.1,12.1,0,0,0-3.79,4.28,30.3,30.3,0,0,0-2.07,5.39c-1.12,3.68-2,7.47-3.52,11a24.32,24.32,0,0,1-7,9.12A34.53,34.53,0,0,1,405,141.19c-7.3,2.59-15.06,3.48-22.73,4.11h0c-8.09,0-16.13,1-24.18,1.84-2,.2-4,.38-6,.55a18.22,18.22,0,0,0-5.89,1.28,6.65,6.65,0,0,0-3.85,4.36,9.64,9.64,0,0,0,.4,5.93A34.24,34.24,0,0,0,349,169.52c2.56,3.13,5.34,6.09,7.61,9.45a22,22,0,0,1,3.77,11.39,14.66,14.66,0,0,1-.27,3,11.57,11.57,0,0,1-1,2.85,9,9,0,0,1-4.22,4.24,15.05,15.05,0,0,1-5.93,1.18c-2,.06-4-.07-6.06-.16-4.05-.18-8.08-.58-12.09-1.12-8-1.1-15.95-2.74-23.89-4.28-4-.77-7.95-1.51-11.94-2.14s-8.06-1.6-11.32-4.1a17.06,17.06,0,0,1-6.45-10,48.44,48.44,0,0,0-1.47-5.87,9.35,9.35,0,0,0-1.44-2.63c-.33-.37-.64-.78-1-1.14l-1.14-1a12.89,12.89,0,0,0-5.57-2.18,18.94,18.94,0,0,0-6,.06,23.13,23.13,0,0,0-11,4.76,33.89,33.89,0,0,0-7.42,9.48,92.87,92.87,0,0,0-4.94,11.07,141.54,141.54,0,0,1-10.15,22,130.26,130.26,0,0,1-14,19.75A132.3,132.3,0,0,1,195.55,251a128.63,128.63,0,0,1-20.32,13.21,146.79,146.79,0,0,1-22.41,9.25c-3.83,1.32-7.65,2.64-11.37,4.25-1.86.79-3.67,1.69-5.45,2.65a50.22,50.22,0,0,0-5.07,3.32Z"/><path d="M109.74,377.73c1-1,1.71-2.1,2.68-3.15a6.72,6.72,0,0,1,1.77-1.43,4.15,4.15,0,0,1,2.63-.43,4.9,4.9,0,0,1,2.63,1.29,5.93,5.93,0,0,1,1.49,2.61,8.52,8.52,0,0,1-.38,5.26A7.86,7.86,0,0,1,117,386a5.08,5.08,0,0,1-3.08.5,5.71,5.71,0,0,1-2.52-1.07,7.33,7.33,0,0,1-2.66-3.8,4.24,4.24,0,0,1,0-2.15A3.77,3.77,0,0,1,109.74,377.73Zm0,0a6,6,0,0,0-.61.82,2.72,2.72,0,0,0-.28,1,2.82,2.82,0,0,0,.51,1.84,4.45,4.45,0,0,0,3.08,1.8,2.79,2.79,0,0,0,1.45-.17,1.69,1.69,0,0,0,.78-.64,10,10,0,0,0,1.25-2.32,12.35,12.35,0,0,0,.77-2.76,2.24,2.24,0,0,0-.68-2.19,2.05,2.05,0,0,0-1.39-.5,4,4,0,0,0-1.78.54A14.33,14.33,0,0,0,109.74,377.73Z"/></svg>