<svg id="Layer_1" data-name="Layer 1" xmlns="http://www.w3.org/2000/svg" viewBox="0 0 600 600"><title>Norway</title><path d="M284.49,195.24a12.35,12.35,0,0,0-.69-5.9,10.55,10.55,0,0,0-3.66-4.6,13.44,13.44,0,0,0-5.37-2.13,60.86,60.86,0,0,1-6-1.42,15.9,15.9,0,0,1-1.51-.61,11.56,11.56,0,0,1-1.48-.91,7.09,7.09,0,0,1-2.15-2.95,12.58,12.58,0,0,1-.16-6.87,33.52,33.52,0,0,1,2-6.15,59.74,59.74,0,0,1,2.76-5.69c1-1.83,2.05-3.62,3.14-5.39s2.28-3.45,3.46-5.13,2.38-3.35,3.6-5l3.67-4.79,1.8-2.4c.62-.84,1.26-1.65,1.9-2.46q1.92-2.46,3.93-4.83,4-4.77,8.39-9.26t9.06-8.69c3.14-2.8,6.42-5.42,9.78-8s6.81-4.94,10.22-7.19l10.07-6.56c3.27-2.15,6.39-4.36,9.4-6.54,1.5-1.1,3-2.22,4.35-3.36s2.74-2.32,4.15-3.6l4.31-4c1.52-1.36,3.09-2.76,4.76-4.17s3.43-2.82,5.33-4.19a63.92,63.92,0,0,1,6-3.87c8.41-4.65,17.3-7.15,25.69-8.87,4.22-.86,8.35-1.53,12.39-2.14a37.18,37.18,0,0,0,5.92-1.39c1.95-.52,3.89-1.1,5.84-1.67,3.89-1.13,7.76-2.39,11.64-3.58l11.62-3.76c3.88-1.24,7.74-2.54,11.62-3.72a70.21,70.21,0,0,1,14.36-3,48.45,48.45,0,0,1,9.45.09,41.55,41.55,0,0,1,10.75,2.7,50.34,50.34,0,0,1,5.26,2.6,39.3,39.3,0,0,1,4.9,3.35,56.49,56.49,0,0,1,4.33,4c1.29,1.41,2.47,2.9,3.61,4.41,1,1.51,2,3.06,2.85,4.61s1.58,3.09,2.19,4.64c.29.76.57,1.52.82,2.29s.56,1.56.71,2.3c.36,1.49.74,3,.95,4.49a44.53,44.53,0,0,1-.67,16.52,75.17,75.17,0,0,1-5,14.23c-.48,1.1-1,2.14-1.51,3.25s-1,2.24-1.62,3.4-1.14,2.35-1.77,3.54-1.29,2.42-2.07,3.64-1.55,2.47-2.45,3.66a36.89,36.89,0,0,1-3,3.51,22.07,22.07,0,0,1-1.71,1.64l-.46.4-.53.43-1.08.85a27.5,27.5,0,0,1-4.53,2.58,26.91,26.91,0,0,1-9.9,2.33,20.81,20.81,0,0,1-11.6-2.8,19.15,19.15,0,0,1-5.25-4.69,22.32,22.32,0,0,1-3.13-5.58,51.44,51.44,0,0,1-2.15-8,14.4,14.4,0,0,0-.5-1.8c-.08-.17-.14-.19-.16-.3s-.12-.19-.15-.28a1.87,1.87,0,0,1-.15-.32c-.07-.11-.11-.23-.18-.35a5.82,5.82,0,0,0-.41-.77,10.36,10.36,0,0,0-2.6-2.79,3.81,3.81,0,0,0-1.81-.83,6.73,6.73,0,0,0-2.7,0,9,9,0,0,0-2.85,1,6.78,6.78,0,0,0-2.2,2c-1.27,1.83-1.81,4.66-1.57,8a34.74,34.74,0,0,0,.85,5.31,33.62,33.62,0,0,0,2.2,5.69c2,4.19,4.32,9,4.8,14.84a24,24,0,0,1-1.26,9.56,27.94,27.94,0,0,1-5.88,10c-.71.73-1.45,1.45-2.21,2.15-.65.54-1.28,1-1.94,1.55s-1.28,1-2,1.48-1.5.91-2.27,1.35a30.23,30.23,0,0,1-4.95,2.26,21.5,21.5,0,0,1-2.66.8c-.9.22-1.82.47-2.72.62a35.79,35.79,0,0,1-5.38.47c-.87,0-1.75,0-2.62,0l-2.44-.24-1.22-.14-1.13-.2-2.25-.43c-.73-.15-1.38-.34-2.08-.51s-1.41-.35-2-.55c-5.12-1.6-9.28-3.37-12.81-4.81l-2.48-1c-.76-.27-1.5-.56-2.26-.79a35.84,35.84,0,0,0-4-1.17c-1.08-.26-1.8-.2-1.53-.14s1.8-.22-1.19.55l-.55.14c-.19,0-.08,0-.13,0l-.1,0s0,0,.11,0,.29-.06.22,0-1.1.88-2.24,1.92a20.2,20.2,0,0,1-4.17,3.25c-1.69.94-3.75,1.66-5.64,2.53a19,19,0,0,0-5.15,3.32l-4.61,3.93-4.57,4-4.55,4.06-2,1.9c-.54.52-1,1-1.7,1.73l-4,4.32c-2.62,2.84-5.09,5.72-7.14,8.41a40,40,0,0,0-4.94,7.95c-.3.7-.59,1.4-.86,2.14s-.5,1.38-.72,2.08a37.61,37.61,0,0,0-1,4.29c-.25,1.47-.45,3-.6,4.55l-.06.59c0,.17-.06.5-.1.75l-.22,1.59-.47,3.17c-.38,2.09-.76,4.18-1.19,6.25s-.95,4.09-1.5,6.11a132.74,132.74,0,0,1-8.75,23c-.91,1.82-1.82,3.62-2.77,5.42L313,267.9c-1.93,3.59-3.9,7.16-5.75,10.78-.94,1.8-1.84,3.61-2.81,5.4s-2.11,3.52-3.26,5.26-2.29,3.46-3.28,5.25a31.1,31.1,0,0,0-2.37,5.55c-.14.46-.32,1-.41,1.39l-.27,1.18c-.18.85-.35,1.7-.48,2.63-.29,1.84-.5,3.8-.69,5.86s-.31,4.19-.55,6.43-.45,4.58-.91,7.08a38.71,38.71,0,0,1-2.33,8.27l-.48,1.15c-.19.39-.42.81-.63,1.22-.43.8-.95,1.73-1.26,2.23-.73,1.17-1.44,2.39-2.25,3.51A59.63,59.63,0,0,1,275,352q-.5.45-1,.87l-.51.41a3.36,3.36,0,0,1-.41.34l-.83.64-.66.45-.57.34c-.15.09-.41.17-.53.23a7.59,7.59,0,0,1-.93.27,4.62,4.62,0,0,0-1,.37,1.53,1.53,0,0,0-.55.34l-.55.44a14.49,14.49,0,0,0-1.05,1.32c-.3.56-.57,1.18-.83,1.79,0,.09-.06.14-.1.25l-.11.39c-.07.26-.13.53-.19.79l-.37,1.57c-.21,1.07-.47,2.06-.63,3.09a53.83,53.83,0,0,0-.77,6.05c-.34,4-.62,7.8-.78,11.48a84.3,84.3,0,0,0,.11,10.48,43.29,43.29,0,0,0,1.54,8.93,25.84,25.84,0,0,0,1.4,3.61l.37.84c.14.26.31.5.46.76l.43.75.7,1.25a58.46,58.46,0,0,1,3.55,7.56,46.1,46.1,0,0,1,2.39,9.09,54.41,54.41,0,0,1,.61,8.88c0,2.65-.14,4.92-.26,7l-.15,2.93-.05,1.39,0,.68v.34a.54.54,0,0,0,0,.22c.05.52.19,1.41.43,2.59.46,2.37,1.46,6.06,2.55,11.07a27,27,0,0,1,.79,8.89c0,.42-.1.84-.15,1.26s-.16.88-.24,1.31a22.89,22.89,0,0,1-.69,2.64c-.31.89-.58,1.78-.94,2.64s-.77,1.72-1.2,2.51-.91,1.55-1.38,2.27-1,1.39-1.53,2a34.12,34.12,0,0,1-3.28,3.3,59.85,59.85,0,0,1-6.46,4.62,35.66,35.66,0,0,0-5.18,3.93,43.25,43.25,0,0,0-4,4.55,80,80,0,0,0-6.77,9.95c-1,1.76-1.95,3.51-2.87,5.31l-2.73,5.4-.69,1.35c-.25.48-.5,1-.76,1.43-.54,1-1.1,1.93-1.7,2.91a38.56,38.56,0,0,1-4.38,5.93,32.73,32.73,0,0,1-6.53,5.66,24.79,24.79,0,0,1-9.53,3.71,26.55,26.55,0,0,1-10-.36c-2.81-.6-5.12-1.37-6.94-1.92a21.79,21.79,0,0,0-4.19-1,3,3,0,0,0-.58,0,2,2,0,0,0-.49.07c-.16,0-.31,0-.47.05a2.17,2.17,0,0,1-.47.12,10.46,10.46,0,0,0-2.37,1c-.45.19-1,.59-1.56.9-.27.17-.58.4-.87.6s-.59.39-.91.65l-2,1.49c-.67.5-1.41,1.1-2.14,1.68l-2.29,1.86c-.84.67-1.62,1.28-2.53,2l-1.33,1-1.43,1c-.92.67-2,1.36-3,2-.51.35-1.12.67-1.69,1a19.54,19.54,0,0,1-1.77.91,24.89,24.89,0,0,1-3.88,1.46,28.77,28.77,0,0,1-8.09,1.12,47,47,0,0,1-7.8-.75,72.08,72.08,0,0,1-7.16-1.71,62.44,62.44,0,0,1-6.57-2.49,103.15,103.15,0,0,1-12.13-5.76c-1.9-1.14-3.72-2.41-5.52-3.69a62.58,62.58,0,0,1-5.13-4.23,63.93,63.93,0,0,1-4.66-4.79,55.48,55.48,0,0,1-4.08-5.38,74.27,74.27,0,0,1-6.14-11.63,93.35,93.35,0,0,1-4-12.38A118.06,118.06,0,0,1,92,493.58c-.47-4.22-.75-8.43-.9-12.62s-.09-8.34,0-12.47.32-8.21.58-12.3A375.72,375.72,0,0,1,98,407.39c.78-4,1.67-8.05,2.64-12.05.52-2,1-4,1.69-6.15a50.41,50.41,0,0,1,2.58-6.88,36.15,36.15,0,0,1,1.93-3.6,32.66,32.66,0,0,1,2.5-3.49,36.28,36.28,0,0,1,5.85-5.58,58.15,58.15,0,0,1,5.92-4c1-.56,1.89-1.11,2.8-1.61l2.72-1.51c7.31-4,14.61-7.61,21.79-11.15s14.26-7.06,21.09-10.75c3.4-1.87,6.78-3.71,10-5.7s6.42-4,9.48-6.18a91.8,91.8,0,0,0,16.44-14.52c.61-.67,1.16-1.37,1.72-2.08l.85-1.05.8-1.08c.54-.71,1.09-1.43,1.58-2.17s1-1.4,1.6-2.29c1.13-1.66,2.28-3.32,3.47-4.95s2.43-3.23,3.64-4.85c5-6.41,10.19-12.67,14.88-19.23s9-13.35,13.11-20.24c2-3.45,4-6.94,6-10.42,1-1.74,2-3.49,3.1-5.2s2.3-3.33,3.53-4.93c2.4-3.23,5.09-6.22,7.54-9.39s4.94-6.31,7.28-9.57a84.85,84.85,0,0,0,6.33-10.19,31.49,31.49,0,0,0,3.66-11.37Zm.09,0a30.58,30.58,0,0,1-3.18,11.61,84.72,84.72,0,0,1-5.95,10.55c-4.47,6.73-9.22,13.25-14.21,19.44-1.22,1.58-2.39,3.18-3.49,4.81s-2.1,3.35-3.12,5.08l-6.14,10.36c-2.05,3.44-4.05,6.92-6.05,10.4s-4,7-5.89,10.49l-2.92,5.27-2.84,5.3-5.68,10.62-2.85,5.3-2.92,5.26c-1,1.74-2,3.54-3.16,5.22-.55.87-1.15,1.69-1.77,2.5s-1.21,1.64-1.87,2.42a94,94,0,0,1-17.73,16.61,166.42,166.42,0,0,1-20.57,12.71c-7.09,3.8-14.33,7.28-21.55,10.76s-14.49,6.9-21.5,10.8A80.4,80.4,0,0,0,121,377.05a27.75,27.75,0,0,0-4.34,4.12,23.46,23.46,0,0,0-3.17,5.09,65.17,65.17,0,0,0-3.67,11.44q-1.5,5.82-2.81,11.7a375.6,375.6,0,0,0-7.49,47.51c-.74,8-1.27,16-1.26,24,0,4,.2,8,.54,12a113.62,113.62,0,0,0,1.77,11.89,87.21,87.21,0,0,0,3.39,11.54,71.83,71.83,0,0,0,5.32,10.77,50.14,50.14,0,0,0,17.16,16.55A43.42,43.42,0,0,0,149.32,550,32.6,32.6,0,0,0,161,547.45a44.27,44.27,0,0,0,10.14-6.4c3.15-2.49,6.19-5.12,9.47-7.43a34,34,0,0,1,5.17-3.07,20,20,0,0,1,5.71-1.8l1.49-.18c.5,0,1,0,1.51,0a14.22,14.22,0,0,1,3,.31,40.18,40.18,0,0,1,5.76,1.74,56.78,56.78,0,0,0,5.71,1.86,15.42,15.42,0,0,0,6,.41,14.62,14.62,0,0,0,5.6-2,23.27,23.27,0,0,0,4.64-3.81,64.33,64.33,0,0,0,7.19-9.63l13.18-20.14,6.58-10.07a40.05,40.05,0,0,0,5.29-10.76,29.1,29.1,0,0,0,.33-11.94c-.57-4-1.49-7.88-1.9-11.88a31.65,31.65,0,0,1-.12-6c.17-2,.4-4,.62-6a52.4,52.4,0,0,0,.41-12,29.35,29.35,0,0,0-1.29-5.86,41.43,41.43,0,0,0-2.32-5.55c-.45-.89-.84-1.82-1.26-2.73-.2-.46-.42-.91-.61-1.37l-.49-1.42a43.22,43.22,0,0,1-1.61-5.79,60.88,60.88,0,0,1-1.1-12,102.38,102.38,0,0,1,.72-12c.87-8,2.32-15.88,3.3-23.84a26.57,26.57,0,0,1,3.8-11.31c2.13-3.43,5.34-6,8.49-8.44a65.46,65.46,0,0,0,9-8,29.49,29.49,0,0,0,3.6-4.8,34.16,34.16,0,0,0,2.45-5.49,114.78,114.78,0,0,0,3.28-11.57c1-3.89,1.83-7.81,3.16-11.6l7.61-22.84,7.6-22.83c2.54-7.61,5.06-15.23,7.4-22.9q1.76-5.76,3.34-11.56c1.07-3.87,1.93-7.8,3.32-11.57a64.61,64.61,0,0,1,12.2-20.59c2.6-3.05,5.38-5.94,8.17-8.82s5.57-5.78,8.6-8.42c6-5.37,11.85-10.82,17.74-16.27,2.95-2.71,5.87-5.47,8.94-8.05a37.18,37.18,0,0,1,4.84-3.56,18,18,0,0,1,5.61-2.11,20.27,20.27,0,0,1,5.94-.85,24.75,24.75,0,0,1,5.9,1.09,75.76,75.76,0,0,1,11.14,4.52c3.61,1.74,7.2,3.55,11,4.94a26.2,26.2,0,0,0,11.77,1.82,19.65,19.65,0,0,0,10.68-5.08c2.9-2.84,4.24-6.88,4.63-10.84a41.44,41.44,0,0,0-.77-12c-.75-3.94-1.67-7.85-2.09-11.85a24.72,24.72,0,0,1,1.26-11.85,17.91,17.91,0,0,1,19.54-10.72,18.12,18.12,0,0,1,10.14,6.09,17.62,17.62,0,0,1,3.06,5.16,20.39,20.39,0,0,1,1.16,5.89,32.07,32.07,0,0,0,.83,5.94,9.69,9.69,0,0,0,1.21,2.73,8.14,8.14,0,0,0,2.08,2.14,9.93,9.93,0,0,0,5.65,1.72,13.46,13.46,0,0,0,5.82-1.25,13.32,13.32,0,0,0,2.57-1.53,14.65,14.65,0,0,0,2.13-2.11,20.18,20.18,0,0,0,3.1-5.13,46.91,46.91,0,0,0,2.92-11.63,77.44,77.44,0,0,0,.87-12,54.88,54.88,0,0,0-1.36-11.92,32.16,32.16,0,0,0-4.68-11,22.08,22.08,0,0,0-9.13-7.55,28.29,28.29,0,0,0-11.72-2.12,90.64,90.64,0,0,0-12,1.14L451,52.91l-23.83,3.4c-7.94,1.17-15.91,2.15-23.78,3.7s-15.64,3.85-22.67,7.73-12.82,9.58-18.89,14.8a135.22,135.22,0,0,1-19.67,13.84c-6.87,4.14-13.88,8.07-20.52,12.56a169.31,169.31,0,0,0-18.91,14.83A177,177,0,0,0,286,141.09a185.35,185.35,0,0,0-15.1,18.7,43.31,43.31,0,0,0-5.51,10.63,10.76,10.76,0,0,0-.37,5.89,5.8,5.8,0,0,0,1.56,2.5,10.57,10.57,0,0,0,1.2.88,9.32,9.32,0,0,0,1.35.65,45.87,45.87,0,0,0,5.79,1.59,13,13,0,0,1,5.4,2.57,12,12,0,0,1,3.47,4.83,13.74,13.74,0,0,1,.85,5.93Z"/></svg>