<svg id="Layer_1" data-name="Layer 1" xmlns="http://www.w3.org/2000/svg" viewBox="0 0 600 600"><title>Oman</title><path d="M82.86,410.71A8,8,0,0,1,86.35,407a32.24,32.24,0,0,1,4.72-2.12c3.24-1.23,6.61-2.13,9.89-3a38.47,38.47,0,0,0,4.77-1.68c1.55-.67,3.1-1.42,4.67-2.15,3.16-1.41,6.33-3,10.3-3.24h0l-.46.07c7.77-2.41,15.37-5.38,22.9-8.52,3.78-1.54,7.5-3.27,11.25-4.89s7.45-3.4,11.14-5.19c7.41-3.54,14.78-7.17,22.23-10.54,3.72-1.74,7.49-3.29,11.25-4.9,1.88-.78,3.79-1.51,5.68-2.26s3.78-1.53,5.7-2.2c1-.35,1.91-.72,2.88-1s1.85-.64,3-1l1.66-.49,1.59-.43c1.08-.3,2.07-.5,3.11-.74s2-.45,3-.64l2.9-.58c1.89-.41,3.76-.77,5.52-1.19a35.31,35.31,0,0,0,9.35-3.38l.89-.59a4.76,4.76,0,0,0,.82-.62l.76-.64a6.86,6.86,0,0,0,.63-.7,4.9,4.9,0,0,0,.59-.72l.47-.77a5.1,5.1,0,0,0,.48-.91,10,10,0,0,0,.45-1,45,45,0,0,0,2-10.81c.22-2.14.42-4.46.8-7,.09-.63.22-1.28.33-1.92l.17-1.48c.11-1,.17-2,.24-3,.21-4,.24-8.13.47-12.31q.18-3.13.65-6.3c.14-1.05.37-2.12.55-3.15s.44-2,.66-3c1-4,2.29-7.82,3.44-11.73l3.54-11.7,1.78-5.84.91-2.91c.27-.88.69-2.2,1.05-3.26,1.51-4.42,3-8.14,4.08-11.46a43.82,43.82,0,0,0,2.1-8.35,7.66,7.66,0,0,0,0-2,5,5,0,0,0-.4-1.34,18.8,18.8,0,0,0-1.55-2.79c-.81-1.25-1.95-2.83-3.2-4.63-.62-.88-1.3-1.88-2-2.88l-1-1.56-.82-1.31c-1.09-1.72-2.17-3.44-3.22-5.19L252.8,204.6l-3.18-5.21-.79-1.31-.47-.79c-.28-.48-.55-1-.82-1.47a29.29,29.29,0,0,1-2.41-6.07,32.84,32.84,0,0,1-1-11.31,42.58,42.58,0,0,1,1.83-9.25,50.79,50.79,0,0,1,3.16-7.83,70.15,70.15,0,0,1,3.83-6.63c2.57-4,5-7.14,6.7-9.88a28.84,28.84,0,0,0,3.63-7.43,26,26,0,0,0,1.14-7.95c0-.34,0-.67,0-1l-.14-2c-.05-.69,0-1.5,0-2.25s0-1.6.11-2.43a21.87,21.87,0,0,1,.33-2.64c.06-.43.19-1,.3-1.44s.22-.94.4-1.49a20.68,20.68,0,0,1,3.27-6.58,18.74,18.74,0,0,1,2.81-3,17.54,17.54,0,0,1,2.87-2c1-.56.16.05,2-1a17.2,17.2,0,0,1,4-1.53c.69-.16,1.41-.28,2.09-.37s1.27-.08,1.9-.09a17.51,17.51,0,0,1,3,.28,17.83,17.83,0,0,1,3.44,1,9.58,9.58,0,0,1,1.53.71c.2.12.33.17.51.28s.34.16.53.21a4.55,4.55,0,0,0,1.4.15,10.14,10.14,0,0,0,1.79-.36,12.34,12.34,0,0,1,2.26-.64c.17,0,.39.16.53,0a1,1,0,0,0,.15-.37c0-.07,0-.15.05-.18s.09.07.09,0a.09.09,0,0,0,0-.05c.08-.13-.05-.46-.43-.85a7.61,7.61,0,0,0-1.78-1.16c-1.54-.81-3.87-1.47-6.32-3.11-.31-.2-.62-.43-.92-.66l-.45-.37c-.17-.13-.34-.3-.5-.45a11.43,11.43,0,0,1-1.74-2.09c-.22-.37-.45-.75-.63-1.13l-.52-1.13c-.27-.73-.53-1.47-.71-2.16a58.36,58.36,0,0,1-1.38-7.6c-.15-1.13-.24-2.2-.43-3a1.52,1.52,0,0,1-.06-.32l0-.41-.08-.82-.09-1.63a59.83,59.83,0,0,1,.28-6.22c.29-4,.69-7.81.71-11.32,0-.87,0-1.73,0-2.57V55l0-.82a12.86,12.86,0,0,1,.19-1.69,11.83,11.83,0,0,1,.38-1.76,13.35,13.35,0,0,1,.64-1.83,13.7,13.7,0,0,1,2.32-3.7c.27-.3.54-.59.83-.88s.66-.57,1-.84A12.17,12.17,0,0,1,292.29,42a11.91,11.91,0,0,1,5.84-1.13,12,12,0,0,1,2.84.5c.44.13.88.28,1.3.45s.74.35,1.11.54a15.47,15.47,0,0,1,5.55,5.26c.51.77,1,1.51,1.48,2.18a20.23,20.23,0,0,0,2.9,3.31,6.19,6.19,0,0,0,2.42,1.47,3,3,0,0,0,.88.06l.84,0,1.06,0c.73,0,1.58-.09,2.58-.17s2.22-.13,3.72-.13a30.44,30.44,0,0,1,5.08.47,28.86,28.86,0,0,1,5.47,1.61,38.25,38.25,0,0,1,4.8,2.33l2,1.19c.68.4,1.34.81,2,1.25A50.82,50.82,0,0,1,360.47,79a13.64,13.64,0,0,1,1.91,5.6c.16,1.85.05,3.66.18,5.23A7.69,7.69,0,0,0,363,92a12.87,12.87,0,0,0,1,1.79c.36.58.72,1.16,1.14,1.72a14.3,14.3,0,0,0,1.28,1.65,33.82,33.82,0,0,0,3,3.07,43.91,43.91,0,0,0,3.63,2.71c5.18,3.39,11.51,5.87,18.25,8,1.69.55,3.4,1,5.15,1.53s3.51,1,5.31,1.39c3.59.86,7.28,1.58,11,2.25s7.54,1.18,11.39,1.68,7.56.83,12,1.25a71.6,71.6,0,0,1,14.5,2.71,35.52,35.52,0,0,1,7.94,3.59,31.15,31.15,0,0,1,7,6,39.47,39.47,0,0,1,4.65,6.84c1.2,2.22,2.16,4.33,3,6.27s1.56,3.76,2.33,5.29,1.62,3.17,2.52,4.72a68.19,68.19,0,0,0,14.26,16.86c1.44,1.25,2.91,2.47,4.44,3.65l2.31,1.76c.76.57,1.6,1.19,2.32,1.69,2.92,2,6.29,4,9.94,6.41s7.73,5.14,11.59,10.14a22.91,22.91,0,0,1,4.26,9.42l.22,1.35a6.82,6.82,0,0,1,.1,1.35,14.68,14.68,0,0,0-.07,2.64c.17,1.75.21,3.43.24,5.1a21.37,21.37,0,0,1-.45,4.74,15,15,0,0,1-1.59,4l-.49.91c-.18.33-.27.47-.41.72l-.76,1.32-1.53,2.65-6.11,10.58-6.12,10.58-6.22,10.52-6.22,10.53a92.69,92.69,0,0,1-7.66,11.37A65.2,65.2,0,0,1,480,292.42c-3.36,2.66-6.47,4.95-9,7.27a68.76,68.76,0,0,0-13.5,17.12l-.65,1.17c-.17.32-.36.7-.55,1.09-.38.81-.77,1.68-1.2,2.64a53.48,53.48,0,0,1-3.18,6.33,24.61,24.61,0,0,1-2.51,3.49,17.83,17.83,0,0,1-3.69,3.23,24.16,24.16,0,0,1-7.77,3.22,24.85,24.85,0,0,1-8.27.49,19.58,19.58,0,0,1-2.39-.46l-.63-.18-.7-.25a9.36,9.36,0,0,1-1.5-.68c-.27-.14-.53-.3-.8-.46a9.94,9.94,0,0,1-.91-.71,7.94,7.94,0,0,1-.9-.86,10.35,10.35,0,0,1-.91-1.26,6.94,6.94,0,0,1-.8-1.81,7.57,7.57,0,0,1-.29-1.87,8.61,8.61,0,0,1,.25-2.27,17.17,17.17,0,0,1,.7-2.2l.6-1.53a33.68,33.68,0,0,1,1.55-3.37c.57-1.1,1.27-2.21,1.68-2.87a3.83,3.83,0,0,0,.39-.69,2.94,2.94,0,0,0,0-1,6.11,6.11,0,0,0-.22-.81,2.87,2.87,0,0,0,.65.51l.17.09a.45.45,0,0,0-.13-.06c-.14-.05-.09-.07-.19-.08a1.73,1.73,0,0,0-.78.35,7.87,7.87,0,0,0-1.32,1.22,21.8,21.8,0,0,0-2.69,4,44.15,44.15,0,0,0-2.21,4.93,46,46,0,0,0-1.62,5.33c-.52,1.91-1,3.83-1.44,5.76s-.83,3.88-1.22,5.82a111.22,111.22,0,0,0-1.78,23.67,153,153,0,0,0,2.78,23.47c.68,3.85,1.6,7.64,2.45,11.42.44,1.89.94,3.74,1.42,5.63a32.38,32.38,0,0,1,.81,4,22.66,22.66,0,0,1,0,6.41,20.82,20.82,0,0,1-2.64,7.52,25.55,25.55,0,0,1-2.26,3.24,24.56,24.56,0,0,1-2.55,2.63,28.8,28.8,0,0,1-5.27,3.73,37,37,0,0,1-5.06,2.34,42.59,42.59,0,0,1-4.86,1.4c-.8.17-1.6.36-2.41.46l-2.15.28-1.89.19c-.61.06-1.19.09-1.78.11l-1.76.07h-1.67A83.91,83.91,0,0,1,374,438.6c-3.19-.48-5.5-.86-7.37-1.22-.27-.06-.43-.07-.67-.12a6,6,0,0,0-.68-.11,7.26,7.26,0,0,0-1.32,0,5.07,5.07,0,0,0-1.44.14,6,6,0,0,0-1.61.65,16,16,0,0,0-3.57,2.93,44,44,0,0,0-3.62,4.56c-2.47,3.47-4.76,6.89-6.85,10.34a66.68,66.68,0,0,0-5.31,10.58l-.55,1.42c-.22.55-.42,1.1-.68,1.66a35.93,35.93,0,0,1-1.62,3.39,28.07,28.07,0,0,1-4.92,6.5,26.17,26.17,0,0,1-6.87,4.79,37.43,37.43,0,0,1-7.26,2.69,87.18,87.18,0,0,1-13.47,2.42c-4.23.53-8.21,1-11.66,1.71a30.42,30.42,0,0,0-8.8,3,17.82,17.82,0,0,0-3.19,2.16,20.3,20.3,0,0,0-2.47,2.55,11.49,11.49,0,0,0-1.62,2.6,5.29,5.29,0,0,0-.23.58,2.76,2.76,0,0,0,0,.37,4.61,4.61,0,0,0,0,.54c.05.39.06,1,.1,2.62l.1,2.84c0,1.15,0,2.37,0,3.78,0,.66-.08,1.42-.13,2.13s-.21,1.69-.33,2.52a22.92,22.92,0,0,1-.5,2.52c-.2.83-.39,1.67-.66,2.47a40.57,40.57,0,0,1-4.17,9,38.13,38.13,0,0,1-6.25,7.42l-1.84,1.57c-.61.52-1.3,1-1.95,1.42a34.14,34.14,0,0,1-4.16,2.49,36.83,36.83,0,0,1-9.28,3.15,32.63,32.63,0,0,1-9.6.3,50.06,50.06,0,0,1-15.08-4.34c-4.15-1.89-7.66-3.64-10.8-4.7a17.22,17.22,0,0,0-8.18-1A15.4,15.4,0,0,0,201.7,538l-2,1c-.61.35-1.33.84-2.14,1.4a51.31,51.31,0,0,1-6.18,3.93,20.29,20.29,0,0,1-4.53,1.69,18.35,18.35,0,0,1-4.89.44,45.21,45.21,0,0,1-6.84-1,17.89,17.89,0,0,0-2.24-.31,17,17,0,0,0-2.26,0,22.76,22.76,0,0,0-9.33,2.69c-1.44.74-3.12,1.87-5,3A29.76,29.76,0,0,1,149.6,554a16.15,16.15,0,0,1-8.61.34,12.65,12.65,0,0,1-2.27-.82c-.39-.2-.79-.41-1.17-.64s-.73-.52-1.09-.8a11.34,11.34,0,0,1-2.92-3.85,31.18,31.18,0,0,1-2-6.65c-.11-.46-.21-.88-.32-1.27l-.17-.56-.26-.72-1-2.87-4.23-11.46-8.49-22.93c-5.64-15.3-11.72-30.4-17.36-45.71-2.82-7.65-5.67-15.28-9-22.71q-2.48-5.58-5.24-11a35.14,35.14,0,0,1-2.57-5.53,8.72,8.72,0,0,1,0-6Zm.08,0a6.2,6.2,0,0,0-.41,3,11.27,11.27,0,0,0,.63,2.93A36.57,36.57,0,0,0,86,422c2,3.56,4,7.15,5.77,10.82.9,1.83,1.79,3.68,2.65,5.53L96.82,444c1.63,3.74,3.11,7.54,4.63,11.32,3,7.56,6.14,15.06,9.26,22.59L120,500.48l9.25,22.61,4.62,11.31,1.16,2.83a24.08,24.08,0,0,1,1,3,31.25,31.25,0,0,0,1.88,5.63,6.51,6.51,0,0,0,1.68,2.15,6,6,0,0,0,2.46,1.13,10.62,10.62,0,0,0,5.65-.44c3.73-1.24,6.81-4,10.35-6.14a30,30,0,0,1,11.63-4.13,24.2,24.2,0,0,1,6.19,0,53,53,0,0,0,6,.67,11.05,11.05,0,0,0,5.68-1.47,39.46,39.46,0,0,0,4.94-3.49,25.07,25.07,0,0,1,23-5.41c4,.86,7.85,2.18,11.77,3.26a43.8,43.8,0,0,0,12,1.87,23.56,23.56,0,0,0,6-.75,27.12,27.12,0,0,0,5.62-2.34,28.34,28.34,0,0,0,4.88-3.65,27.71,27.71,0,0,0,3.89-4.68,25.5,25.5,0,0,0,2.63-5.5,24.84,24.84,0,0,0,1.11-6c.31-4.05-.11-8.2,1-12.14a22.24,22.24,0,0,1,6.77-10,30.67,30.67,0,0,1,10.5-6.09,45.46,45.46,0,0,1,12-2.29c8.11-.58,16.33.11,24.36-1.47a22.68,22.68,0,0,0,11-4.95c3.09-2.71,5-6.43,6.52-10.19,3.18-7.51,7-14.69,10.56-22a58.44,58.44,0,0,1,6-10.63,19.71,19.71,0,0,1,4.35-4.25,20.66,20.66,0,0,1,5.38-2.83,36.59,36.59,0,0,1,12-1.72c4.08,0,8.14.32,12.21.52,2,.11,4.06.19,6.1.17a25.75,25.75,0,0,0,6.06-.65,15.28,15.28,0,0,0,5.56-2.42,8.41,8.41,0,0,0,3.32-5,17.2,17.2,0,0,0-.15-6.07c-.25-2-.54-4-.76-6.06-.43-4.05-.81-8.11-1-12.18a194.92,194.92,0,0,1,.23-24.41,199.21,199.21,0,0,1,3.17-24.21c.79-4,1.64-8,2.68-11.91a48.89,48.89,0,0,1,4.19-11.44,27.54,27.54,0,0,1,3.35-5.1,10,10,0,0,1,4.94-3.41,5.84,5.84,0,0,1,3,.06,4.72,4.72,0,0,1,.72.25,4.32,4.32,0,0,1,.69.32,3.89,3.89,0,0,1,1.07,1.07,9,9,0,0,1,1.33,5.84,7.42,7.42,0,0,1-1,2.85c-.51.88-1.05,1.75-1.5,2.66a28.9,28.9,0,0,0-1.22,2.8,26.55,26.55,0,0,0-1,2.89,1.84,1.84,0,0,0,.15,1.47,1.92,1.92,0,0,0,.5.56,2.72,2.72,0,0,0,.64.42,8.76,8.76,0,0,0,2.93.77,18.46,18.46,0,0,0,6.06-.53,18,18,0,0,0,5.56-2.44,13.25,13.25,0,0,0,3.95-4.59c2-3.55,3.06-7.54,4.94-11.16a78.21,78.21,0,0,1,14.13-19.81c5.73-5.77,12.71-10.28,17.64-16.83a81.45,81.45,0,0,0,6.39-10.4l5.82-10.74,11.64-21.48,5.82-10.74c1.88-3.59,4.14-7.07,5-11.08a14.74,14.74,0,0,0,.16-6.06,14.35,14.35,0,0,0-2.51-5.52c-2.42-3.3-5.72-5.79-9-8.15s-6.73-4.58-9.95-7.09-6.33-5.12-9.33-7.87a94.65,94.65,0,0,1-15.94-18.43,90.23,90.23,0,0,1-5.81-10.73c-1.78-3.65-3.68-7.32-6.48-10.3a20.72,20.72,0,0,0-4.81-3.72,24.05,24.05,0,0,0-5.66-2.25,54.09,54.09,0,0,0-12.09-1.52c-8.14-.19-16.29-.49-24.38-1.4a148,148,0,0,1-24-4.49,80.51,80.51,0,0,1-22.28-9.79,48.64,48.64,0,0,1-16.53-17.64c-3.85-7.18-6.13-15.13-10.51-22a34.14,34.14,0,0,0-3.75-4.81,20.22,20.22,0,0,0-4.71-3.84,14.11,14.11,0,0,0-5.8-1.74c-2-.18-4.07-.15-6.1-.32a17.25,17.25,0,0,1-5.93-1.35,17.8,17.8,0,0,1-5-3.51,33.51,33.51,0,0,1-3.89-4.69c-.59-.83-1.15-1.69-1.7-2.55a6.26,6.26,0,0,0-2.14-2.11,3.15,3.15,0,0,0-2.92-.15,4.28,4.28,0,0,0-2,2.21,7.39,7.39,0,0,0-.53,3c0,1,0,2-.06,3-.18,4.07-.73,8.11-1.31,12.14l-.87,6c-.26,2-.49,4-.82,6.05a23.39,23.39,0,0,0-.26,6.08,7.52,7.52,0,0,0,.91,2.89,6.2,6.2,0,0,0,2.13,2.13A27.22,27.22,0,0,0,299,96.16a10.27,10.27,0,0,1,5.05,3.28,6.66,6.66,0,0,1,.84,5.84,10.52,10.52,0,0,1-3.76,4.71,16.41,16.41,0,0,1-5.42,2.74,15.71,15.71,0,0,1-6.07.34c-2-.2-4.07-.67-6.05-.08a10.34,10.34,0,0,0-2.67,1.45,7.36,7.36,0,0,0-2.17,2.1,10.88,10.88,0,0,0-1.61,5.79,42.7,42.7,0,0,0,.38,6.08,39,39,0,0,1-.92,12.14,41.65,41.65,0,0,1-4.55,11.3c-2,3.55-4.32,6.91-6.39,10.41a46.76,46.76,0,0,0-5,11.1c-1.08,3.88-1.6,8.09-.46,12a13.26,13.26,0,0,0,1.17,2.8c.48.9,1.07,1.73,1.61,2.59l3.31,5.14,6.62,10.26c2.23,3.41,4.34,6.89,6.73,10.19s4.89,6.55,6.54,10.3a21.91,21.91,0,0,1,1.68,5.87,24.5,24.5,0,0,1,0,6.11,56.38,56.38,0,0,1-3,11.84c-1.33,3.85-2.88,7.62-4.22,11.46s-2.53,7.74-3.8,11.61l-7.56,23.23c-2.58,7.72-4.8,15.56-7.45,23.27-.64,1.93-1.39,3.83-2,5.75s-1.09,3.92-1.52,5.91c-.87,4-1.56,8-3.07,11.82a18.83,18.83,0,0,1-1.31,2.76l-.78,1.31a10,10,0,0,1-.91,1.23A22.28,22.28,0,0,1,247.8,353a43.56,43.56,0,0,1-11,5.26c-3.86,1.31-7.81,2.31-11.74,3.36-2,.54-3.93,1.06-5.86,1.69s-3.87,1.29-5.8,1.93l-92.67,31h0a17.38,17.38,0,0,0-5,1c-1.63.53-3.23,1.18-4.81,1.84s-3.16,1.37-4.77,2a40.17,40.17,0,0,1-4.93,1.53c-3.34.84-6.74,1.44-10,2.46A24.19,24.19,0,0,0,86.35,407,7.85,7.85,0,0,0,83,410.79Z"/></svg>