<svg id="Layer_1" data-name="Layer 1" xmlns="http://www.w3.org/2000/svg" viewBox="0 0 600 600"><title>Paraguay</title><path d="M72.88,228.68c-.4-2.15-.9-4.28-1.22-6.44-.18-1.07-.31-2.15-.53-3.23s-.28-2.17-.45-3.26a57.58,57.58,0,0,1-.5-6.57c0-1.1,0-2.2.06-3.3s.05-2.21.15-3.3c.56-8.81,2.3-17.46,3.71-26,.69-4.29,1.39-8.57,1.78-12.84l.17-1.6.11-1.6.2-3.2c0-2.14.08-4.21,0-6.4-.1-4.35-.26-8.77-.07-13.31a55.94,55.94,0,0,1,2.09-13.83A39.86,39.86,0,0,1,81.09,117a53.11,53.11,0,0,1,3.69-6.12c2.67-3.87,5.58-7.34,8.31-10.68a78.25,78.25,0,0,0,7.18-9.91c.45-.83,1-1.64,1.31-2.48l.58-1.24.47-1.25a22.94,22.94,0,0,0,.84-2.58c.25-.93.5-1.91.75-3a64.74,64.74,0,0,1,2-6.94A31.84,31.84,0,0,1,107.92,69a24.73,24.73,0,0,1,2.57-3.84,26,26,0,0,1,6.91-5.91A36.91,36.91,0,0,1,125,55.81,92.6,92.6,0,0,1,139,52.74q6.47-1.1,12.94-2.08c8.63-1.35,17.26-2.71,25.9-4s17.27-2.58,25.92-3.79l13-1.85c4.32-.62,8.62-1.23,13.23-1.75a124.81,124.81,0,0,1,14.4-.89A68.14,68.14,0,0,1,260,40.28a56.15,56.15,0,0,1,7.85,2.54,73,73,0,0,1,7,3.34c2.2,1.17,4.26,2.39,6.22,3.56l5.66,3.45,22.29,13.74c1.87,1.16,3.63,2.2,5.88,3.68a40.85,40.85,0,0,1,7.19,5.88,22.8,22.8,0,0,1,1.75,2c.54.7,1.11,1.4,1.59,2.14s.93,1.5,1.38,2.26.78,1.53,1.16,2.3a40,40,0,0,1,2.88,9,64.66,64.66,0,0,1,1.07,8c.12,1.26.17,2.4.25,3.59l.17,3.31c.11,2.16.24,4.09.43,5.88a32.93,32.93,0,0,0,.82,4.78c1.44,6,5.19,12.66,9.62,20.4A136.32,136.32,0,0,1,349.87,153l.77,1.78c.25.62.48,1.26.71,1.88l.7,1.9c.23.64.42,1.32.62,2l.6,2c.19.67.33,1.38.49,2.08l.46,2.09c.07.32.14.76.2,1.18l.18,1.26a42.85,42.85,0,0,1,.08,9.52,67.66,67.66,0,0,1-1.34,8.06c-1.07,4.88-2.18,9-2.62,12.08a14.34,14.34,0,0,0-.17,3.73,4.85,4.85,0,0,0,.55,1.86,6.69,6.69,0,0,0,1.15,1.47,3.59,3.59,0,0,0,.48.47,7.18,7.18,0,0,0,.6.5c.23.18.44.37.67.54s.47.31.7.48a17,17,0,0,0,6.51,2.45,27.29,27.29,0,0,0,4.13.4,39.71,39.71,0,0,0,4.69-.14c6.59-.52,14-2.4,22-4.68l6.19-1.77,3.28-.92c1.26-.34,2.52-.65,3.83-.93a81.08,81.08,0,0,1,8.07-1.41,64.68,64.68,0,0,1,8.75-.56,57,57,0,0,1,9.52.85,47,47,0,0,1,10.06,2.9,36.9,36.9,0,0,1,5,2.43,28.16,28.16,0,0,1,2.33,1.59c.37.29.75.57,1.1.88l1,1c.66.66,1.31,1.33,1.92,2a48,48,0,0,1,3.15,4.5l1.29,2.32c.22.39.44.77.63,1.15s.35.78.54,1.16c.37.76.75,1.5,1.12,2.24l2.06,4.32c.59,1.4,1.26,2.83,1.7,4.21l.72,2.09c.22.7.39,1.37.59,2.06.43,1.37.75,2.71,1.06,4s.54,2.63.8,3.94.43,2.56.65,3.84l.48,3.74c.6,4.9.88,9.7,1.11,14.08s.42,8.71.52,13.08l.11,6.55v6.55c0,4.37,0,8.74,0,13.11l0,3.28c0,1,0,2,0,2.87a47.3,47.3,0,0,0,.24,4.81,17.75,17.75,0,0,0,.57,3.06c.21.63.23.82.31,1.07s.17.46.75.67a6.83,6.83,0,0,0,2.84.15,20.34,20.34,0,0,0,4.26-1.06c.77-.28,1.54-.59,2.33-.94.4-.19.75-.34,1.2-.56l1.36-.7c3.74-1.89,7.89-4.45,13.21-6.36a34.2,34.2,0,0,1,8.88-2c.81-.05,1.61-.11,2.44-.08l1.23,0c.4,0,.77.07,1.16.11a27.16,27.16,0,0,1,4.59.81,26.68,26.68,0,0,1,9,4.15,28,28,0,0,1,6.66,7,35.88,35.88,0,0,1,3.87,7.74,52,52,0,0,1,2.21,7.61,92.73,92.73,0,0,1,1.85,14.54c.26,4.74.24,9.39,0,14s-.58,9.11-1.11,13.56l-.48,3.31a16.31,16.31,0,0,0-.45,1.62c0,.56,0,1.12.09,1.69.24,2.26.85,4.56.76,6.69,0,1.07-.14,2.11-.2,3.11l-.15,3.05c-.14,2.25-.22,4.5-.39,6.76-.3,4.52-.69,9-1.14,13.59a274.54,274.54,0,0,1-4,27.39A203.53,203.53,0,0,1,524,473.29c-1.65,4.5-3.42,9-5.44,13.39L517,490c-.53,1.1-1.11,2.17-1.67,3.25l-1.69,3.25-1.79,3.16a166.23,166.23,0,0,1-16.65,23.68c-3.16,3.68-6.44,7.28-10,10.72-1.78,1.69-3.54,3.4-5.42,5-.95.81-1.83,1.67-2.83,2.44a24.71,24.71,0,0,1-3.13,2.09,26.38,26.38,0,0,1-7.46,2.62c-1.36.25-2.7.5-4.09.67l-2.07.25-1,.12-.51.07-.62.12c-3.33.67-6.35,1-9.09,1.26s-5.19.76-7.58,1l-6.8.69c-2.17.24-4.34.55-6.51.9-4.33.75-8.66,1.63-13,2.57s-8.81,1.78-13.32,2.46c-2.27.3-4.53.64-6.84.85s-4.62.42-7,.68-4.71.31-7.11.3c-.6,0-1.19,0-1.8,0s-1.2,0-1.81,0c-1.21,0-2.43,0-3.65-.11l-3.68-.27c-1.23-.1-2.47-.29-3.71-.44-.6-.08-1.29-.16-1.82-.25l-1.65-.25-3.3-.53c-8.79-1.39-17.36-3.17-25.66-5.25-2.08-.49-4.13-1.06-6.19-1.58-1-.25-2-.57-3.05-.85s-2-.66-3-1c-2-.72-3.95-1.56-5.91-2.45l-5.86-2.84c-2-.91-3.94-1.87-6-2.65-1-.38-2-.78-3-1.07s-2-.6-3.1-.86-2.2-.44-3.39-.7-2.42-.47-3.71-.78a24.13,24.13,0,0,1-4-1.31,19.63,19.63,0,0,1-2-1,22,22,0,0,1-2-1.34,15.32,15.32,0,0,1-3.39-3.79,15.67,15.67,0,0,1-1.91-4.48,23.11,23.11,0,0,1-.54-8.41,43.09,43.09,0,0,1,1.43-7.35,69.86,69.86,0,0,1,2.25-6.73,130.53,130.53,0,0,1,5.72-12.5c1-2,2.22-4.05,3.38-6.13s2.53-4,3.94-5.84,2.81-3.68,4.25-5.49,2.95-3.48,4.45-5.15c3-3.39,6-6.62,9-9.8s5.83-6.32,8.47-9.51c1.36-1.58,2.57-3.2,3.83-4.8s2.37-3.24,3.37-4.9,2-3.33,2.95-5c.38-.81.83-1.63,1.17-2.44s.73-1.62.94-2.4l.4-1.18c.11-.38.18-.76.28-1.14a21.05,21.05,0,0,0,.41-2.2,15.91,15.91,0,0,0-.11-3.82,13.23,13.23,0,0,0-3.64-6.55,38.67,38.67,0,0,0-8.19-6.22,113.33,113.33,0,0,0-10.63-5.4c-3.76-1.7-7.7-3.32-11.72-5A210.19,210.19,0,0,1,274.32,384c-15.45-9.22-29.54-19.49-44-28.33-1.8-1.15-3.65-2.14-5.48-3.21s-3.69-2.05-5.54-3l-2.79-1.49-2.82-1.37-2.83-1.37c-.95-.44-1.91-.82-2.87-1.23-1.93-.8-3.83-1.68-5.81-2.32l-2.94-1.05-1.47-.53-1.58-.53c-2.12-.71-4.25-1.38-6.35-2.17s-4.2-1.52-6.27-2.36a218.23,218.23,0,0,1-24.22-11.25,228.55,228.55,0,0,1-22.53-14.08,231.28,231.28,0,0,1-20.7-16.39,162.07,162.07,0,0,1-18.48-18.76c-2.82-3.36-5.4-6.9-7.93-10.47-.62-.9-1.21-1.82-1.82-2.73s-1.21-1.82-1.76-2.76l-1.72-2.79-1.62-2.85c-.55-.95-1-1.92-1.54-2.89s-1-1.94-1.49-2.92c-.9-2-1.86-4-2.64-6A93.54,93.54,0,0,1,73,228.66Zm.09,0a100.23,100.23,0,0,0,10.77,23.66l1.71,2.76c.6.9,1.23,1.78,1.81,2.69s1.18,1.8,1.81,2.68,1.24,1.78,1.88,2.65c2.6,3.44,5.22,6.88,8.09,10.12s5.82,6.41,9,9.39,6.37,5.88,9.71,8.64a232.2,232.2,0,0,0,21,15.45,217.77,217.77,0,0,0,22.6,12.95,214.44,214.44,0,0,0,24,10.07c2,.74,4.12,1.4,6.19,2.06s4.16,1.26,6.25,1.88c4.18,1.27,8.41,2.48,12.48,4.11a179.47,179.47,0,0,1,23.67,11.29c15.23,8.57,29.63,18.48,44.81,27.09a203.46,203.46,0,0,0,23.46,11.58c8.07,3.29,16.23,6.5,23.75,11a45,45,0,0,1,10.24,8.07,21.74,21.74,0,0,1,5.71,11.56,23.35,23.35,0,0,1-.1,6.52A31.21,31.21,0,0,1,341,428c-.16.53-.3,1.05-.48,1.57l-.58,1.53c-.35,1-.88,2-1.32,3s-1,1.93-1.53,2.89c-1.16,1.85-2.25,3.75-3.56,5.5-10.12,14.32-24.48,24.86-35.23,38.66-1.37,1.7-2.57,3.52-3.82,5.31s-2.3,3.71-3.32,5.64a112.06,112.06,0,0,0-5.66,11.8,47.57,47.57,0,0,0-3.45,12.58,18,18,0,0,0,.36,6.5,10,10,0,0,0,3.46,5.42,16,16,0,0,0,6,2.63,52.16,52.16,0,0,0,6.46,1c4.34.49,8.67,1.08,13,1.84,8.6,1.5,17.1,3.51,25.55,5.71s16.84,4.59,25.28,6.82a107.05,107.05,0,0,0,12.78,2.81,94.86,94.86,0,0,0,13.05.79c4.37-.07,8.72-.38,13.06-.86s8.65-1.17,12.95-1.93,8.57-1.63,12.85-2.51,8.55-1.73,12.8-2.73a40.44,40.44,0,0,0,12.16-4.69,119,119,0,0,0,10.56-7.73c3.36-2.79,6.57-5.74,9.67-8.81s6-6.31,8.87-9.63,5.51-6.76,8.1-10.28,5-7.16,7.31-10.86a167.91,167.91,0,0,0,11.93-23.27c6.77-16.11,11-33.17,13.89-50.37.72-4.3,1.32-8.63,1.86-13s.93-8.68,1.57-13c1.23-8.64,2.51-17.28,3.18-26,.34-4.35.53-8.71.47-13.08a75.78,75.78,0,0,0-1.19-13,34,34,0,0,0-4.6-12.16,19.36,19.36,0,0,0-2.07-2.53,10.5,10.5,0,0,0-1.17-1.14l-1.29-1a16.62,16.62,0,0,0-6-2.61,18.39,18.39,0,0,0-3.23-.49,9.84,9.84,0,0,0-1.63-.07,14.83,14.83,0,0,0-1.63.08,23,23,0,0,0-6.32,1.61,81.26,81.26,0,0,0-11.5,6.22,39.5,39.5,0,0,1-11.94,5.22,20,20,0,0,1-6.5.44,12.91,12.91,0,0,1-6.08-2.24,14.12,14.12,0,0,1-4.29-4.86,23.27,23.27,0,0,1-2.19-6.15,78.78,78.78,0,0,1-1.27-13L455,279.42l-.63-13.08c-.21-4.35-.46-8.71-1-13a69.75,69.75,0,0,0-2.63-12.8,34.94,34.94,0,0,0-5.94-11.57,26.25,26.25,0,0,0-10.32-7.83,29,29,0,0,0-6.25-1.85,38.51,38.51,0,0,0-6.51-.65,52.76,52.76,0,0,0-6.53.29c-2.17.22-4.33.56-6.47,1-4.28.86-8.49,2-12.74,3-8.49,2-17.1,3.74-25.85,3.86a48,48,0,0,1-13-1.47,34.23,34.23,0,0,1-6.14-2.26,32.19,32.19,0,0,1-5.55-3.46,23.74,23.74,0,0,1-7.89-10.24,20,20,0,0,1-1.17-6.41,31.71,31.71,0,0,1,.59-6.52c.78-4.3,2.09-8.47,3.09-12.72a37.81,37.81,0,0,0,1.2-13,50.27,50.27,0,0,0-3.63-12.53,128.92,128.92,0,0,0-5.89-11.68c-4.2-7.61-8.67-15.27-10.65-23.83s-.92-17.43-2.57-26A22.94,22.94,0,0,0,313.1,85c-3-3.18-6.92-5.28-10.58-7.63l-22.18-13.9c-3.71-2.31-7.37-4.69-11.2-6.79a49.88,49.88,0,0,0-12.07-4.92c-8.49-2.17-17.36-1.9-26-1.07-4.34.4-8.67,1-13,1.45l-13,1.52-52,6.08-13,1.52a81.22,81.22,0,0,0-12.88,2.21C123,64.62,118.88,66.6,116,69.92a18.79,18.79,0,0,0-3.33,5.58c-.82,2-1.44,4.11-2.06,6.2a40.42,40.42,0,0,1-5.34,11.91,88.24,88.24,0,0,1-8.24,10.17c-2.93,3.23-5.91,6.43-8.53,9.91a39.82,39.82,0,0,0-6.29,11.39,53.21,53.21,0,0,0-2.49,12.81c-.38,4.34-.42,8.71-.53,13.07-.09,8.75-1.59,17.4-3.31,25.95S72.17,194,71.32,202.67c-.13,1.08-.21,2.17-.26,3.26s-.14,2.18-.17,3.27c0,2.18-.08,4.36.13,6.53a62,62,0,0,0,2,12.91Z"/></svg>