<svg id="Layer_1" data-name="Layer 1" xmlns="http://www.w3.org/2000/svg" viewBox="0 0 600 600"><title>Serbia</title><path d="M220.77,50.57a204.17,204.17,0,0,0-24,.45,57.53,57.53,0,0,0-11.58,2.12,38.17,38.17,0,0,0-5.43,2.06,18.6,18.6,0,0,0-4.66,3c-2.9,2.48-5.4,5.61-8.78,8.35a23.41,23.41,0,0,1-2.77,1.92c-.52.27-1,.55-1.58.78l-1.63.62A24.41,24.41,0,0,1,153.69,71c-4.31.16-8.35-.33-11.92,0a16.68,16.68,0,0,0-4.85,1,15.34,15.34,0,0,0-2.07,1A14,14,0,0,0,133,74.38a16.21,16.21,0,0,0-1.62,1.69,20.38,20.38,0,0,0-1.38,2,24.62,24.62,0,0,0-2.17,4.63,54.44,54.44,0,0,0-2.51,10.73c-.27,1.89-.48,3.8-.7,5.79s-.4,3.88-.52,5.78a57.72,57.72,0,0,0,.14,10.88,34.08,34.08,0,0,0,1,4.85,23,23,0,0,0,1.75,4.2,21.92,21.92,0,0,0,2.51,3.59A46.84,46.84,0,0,0,133,132.1c2.64,2.47,5.9,5,9.26,8.43a39.73,39.73,0,0,1,4.94,6,29.46,29.46,0,0,1,3.9,8.36,33.46,33.46,0,0,1,1.13,9.08,56.33,56.33,0,0,1-.68,7.77c-.34,2.34-.7,4.35-.94,6.18a40.29,40.29,0,0,0-.41,4.75,27.84,27.84,0,0,0,.21,4,18.92,18.92,0,0,0,.72,3.44,11.64,11.64,0,0,0,1.18,2.52c.12.16.21.33.33.47l.17.22.26.32.5.64.6.71c.87,1,1.89,2.1,3.24,3.52l2.12,2.28,1.19,1.34c.38.42.84,1,1.25,1.5a39.51,39.51,0,0,1,5.19,8c.2.41.4.8.58,1.25l.54,1.36a25,25,0,0,1,.93,2.81c.26,1,.49,2,.71,3s.28,2,.39,3a23.22,23.22,0,0,1,.14,3c0,1,0,2-.08,2.91s-.2,1.82-.33,2.72l-.19,1.36-.22,1.1-.47,2.19-.54,2.05-.28,1-.29,1-.61,1.91c-1.61,4.85-3.46,8.82-4.63,12-.29.78-.58,1.57-.79,2.24s-.43,1.31-.63,1.93a13.8,13.8,0,0,0-.54,2.84,6.38,6.38,0,0,0,0,1c0,.16,0,.26,0,.39v.27c0,.06,0-.06,0-.09,0-.77-.23-1.29.12-.54l.89,1.78c.43.86,1,2,1.57,3.32a45.53,45.53,0,0,1,1.85,4.86,42.63,42.63,0,0,1,1.28,5.19,51.78,51.78,0,0,1,.85,9.22c0,2.75-.13,5.16-.34,7.29l-.29,2.92c-.06.5-.08.8-.13,1.15l-.13,1c-.07.63-.13,1.21-.16,1.74s-.1,1-.13,1.48a20.71,20.71,0,0,0,0,2.61,13,13,0,0,0,.17,1.42c.06.25.09.5.17.77l.09.41c0,.07-.05,0-.08,0s0,0-.05,0a1.93,1.93,0,0,0,.25.77c.16.37.39.82.63,1.31.49,1,1.08,2.11,1.71,3.42a50.27,50.27,0,0,1,2,4.68c.34,1,.67,2,1,3.25a24.56,24.56,0,0,1,.68,4.36,20.68,20.68,0,0,1-.45,6,18.8,18.8,0,0,1-2.87,6.57,17.1,17.1,0,0,1-1.06,1.4c-.36.42-.74.83-1.13,1.23a15.37,15.37,0,0,1-1.14,1.05c-.37.31-.8.67-1.15.91l-1.1.74a8.34,8.34,0,0,1-.82.48c-.41.22-.82.43-1.21.61a37.63,37.63,0,0,1-4.11,1.66c-1.15.4-2.08.67-2.76.87l-.87.27-.3.09a1.06,1.06,0,0,0-.28.1l-.77.35-.4.17-.29.19-.61.34a3.65,3.65,0,0,1-.43.31,1.27,1.27,0,0,0-.33.24c-.07.08-.22.15-.22.19-.24.21-.17.05-.15,0s0,0,0,.11,0,.14.07.23l0,.15.09.21a1.54,1.54,0,0,0,.2.48c.12.18.16.34.31.56s.25.42.37.63l.52.69a23.57,23.57,0,0,0,2.75,3c.59.49,1.14,1,1.77,1.48s1.3,1,2,1.44c1.4.93,2.84,1.84,4.36,2.74s3.09,1.75,4.72,2.62l5,2.7c.86.44,1.73.95,2.59,1.45s1.65.93,2.45,1.41c1.64.93,3.22,1.91,4.82,2.86,6.29,3.91,12.29,7.92,18.08,12.11,1.44,1.06,2.9,2.08,4.36,3.09l.77.55c.2.17.54.36.81.54s.6.38.93.58.65.39,1,.6c1.42.83,3.07,1.63,4.84,2.52l5.62,2.82c2,1,4.06,2.11,6.24,3.35a73.11,73.11,0,0,1,6.91,4.57,45.07,45.07,0,0,1,7.7,7.21,32,32,0,0,1,2,2.6,29.1,29.1,0,0,1,1.83,3c.28.55.56,1.11.83,1.67s.5,1.21.74,1.82.45,1.24.64,1.87.35,1.32.5,2a27.52,27.52,0,0,1,.59,8,28.88,28.88,0,0,1-1.37,7c-.16.51-.33,1.06-.52,1.53l-.58,1.37a24.47,24.47,0,0,1-1.25,2.56c-.43.77-.87,1.56-1.33,2.29l-1.37,2c-.49.73-.85,1.17-1.24,1.67l-1.14,1.42c-.74.89-1.46,1.75-2.14,2.53-1.38,1.57-2.57,2.91-3.56,4.13a29.26,29.26,0,0,0-2.29,3.15c-.29.43-.47.87-.71,1.3s-.35.79-.43,1.07a4.38,4.38,0,0,0-.24,1.15,1.6,1.6,0,0,0,.22.69,8.94,8.94,0,0,0,1.3,1.72c.37.36.78.77,1.28,1.18s1.09.81,1.71,1.25a86.78,86.78,0,0,0,10,5.24,65.83,65.83,0,0,1,6.56,3.53c.6.39,1.18.74,1.79,1.17l1.8,1.27c1.09.8,2.22,1.6,3.24,2.47a55.76,55.76,0,0,1,10.78,11.61,52.23,52.23,0,0,1,4,6.64,29.5,29.5,0,0,1,2.44,7.27c1,5,.6,10.53.34,15.46-.18,2.38-.32,4.34-.28,6s.21,2.93.3,3.95c0,.26.07.53.08.72s0,.32,0,.48,0,.31,0,.45,0,.3,0,.43a7,7,0,0,0,.25,1.46,2.48,2.48,0,0,0,.75,1.23,3.09,3.09,0,0,0,1.89.76l.22,0,.18.07c.12,0,.25,0,.4.06a3.2,3.2,0,0,0,1.2-.26,17.54,17.54,0,0,0,3.86-2.55c1.62-1.26,3.49-2.9,5.91-4.46.57-.39,1.27-.77,1.9-1.14s1.38-.71,2.07-1l1.93-.78c.65-.25,1.29-.44,1.93-.65a49.65,49.65,0,0,1,7.33-1.61c2.32-.38,4.49-.57,6.53-.8s3.95-.42,5.69-.76l1.28-.24,1.2-.28a20,20,0,0,0,2.15-.73,23.13,23.13,0,0,0,7.45-5.19c2.44-2.33,4.86-5.32,7.64-8.53a73.38,73.38,0,0,1,10.43-10.1c1-.84,2.31-1.62,3.49-2.42s2.52-1.5,3.8-2.14a55,55,0,0,1,7.79-3.25,66.94,66.94,0,0,1,7.64-2c2.49-.45,4.9-.87,7.24-1.07s4.55-.39,6.7-.46l6.15-.24c4-.13,8-.32,12-.42l12-.2,5.56-.09a11.19,11.19,0,0,0,1.36-.08l.63,0,.53-.1c.39,0,.6-.16.9-.19s.2-.09.31-.12a1.46,1.46,0,0,0,.27-.08c.06-.08.26-.08.22-.1s.05,0,0,0a.06.06,0,0,0-.06.06s-.06.07-.11.12,0,.12-.1.17-.14.3-.26.4c-.08.34-.21.46-.09.51a.17.17,0,0,1,0-.11c0-.05.09,0,.08-.16a1.5,1.5,0,0,1,.06-.29l.06-.15V487c0-.34.1-.57.07-1a13.6,13.6,0,0,0-.1-1.46,62.81,62.81,0,0,0-2.05-9.19c-.53-2-1.12-4.11-1.69-6.55a60.4,60.4,0,0,1-1.46-9.07,41.23,41.23,0,0,1,.64-11.51c.25-1.1.54-2.21.86-3.3s.8-2.25,1.24-3.35,1.06-2.21,1.65-3.28,1.29-2.08,2-3.05a36.33,36.33,0,0,1,9.23-8.67,53.29,53.29,0,0,1,8.09-4.32c2.39-1.05,4.52-1.85,6.4-2.56s3.51-1.49,5.25-1.56a26.28,26.28,0,0,1,5.17.43c1.7.25,3.54.7,5.27.8a10.24,10.24,0,0,0,5-.79,11.76,11.76,0,0,0,3.58-2.78,13.58,13.58,0,0,0,3.62-7.67,16.91,16.91,0,0,0-.16-4.42,26,26,0,0,0-1.25-4.49,41,41,0,0,0-4.64-8.66,24.14,24.14,0,0,0-3.48-3.92c-1.27-1.25-2.65-2.46-4.06-3.68-5.64-4.87-12.11-9.56-18.63-15.17-1.64-1.39-3.26-2.89-4.89-4.43s-3.26-3.2-4.81-5A55.14,55.14,0,0,1,425,345.83a45.24,45.24,0,0,1-2.89-7.48c-.17-.65-.35-1.3-.55-2s-.3-1.35-.45-2c-.28-1.37-.64-2.76-.89-4.15a103.94,103.94,0,0,1-1.62-16.55l.08-3.94c0-1.28.18-2.48.3-3.72s.31-2.38.56-3.5.48-2.29.77-3.27.63-2,1-3,.72-1.83,1.13-2.73l1.15-2.55c.36-.8.78-1.69,1.07-2.42l1.81-4.35c.32-.72.5-1.32.72-1.94a17.57,17.57,0,0,0,.59-1.78c.16-.54.36-1.1.54-1.63s.2-.95.33-1.43l.11-.37,0-.32a4.92,4.92,0,0,1,.09-.64c.05-.21.1-.43.16-.65s0-.69.05-1c.05-1.5-.06-3.34-.1-5.64s-.13-5.06.1-8.3a40.17,40.17,0,0,1,2.21-10.53c.34-.89.7-1.77,1.07-2.64s.84-1.67,1.28-2.49.94-1.56,1.43-2.32a12.09,12.09,0,0,1,.7-1l.68-.91a52.13,52.13,0,0,1,5.12-5.68c1.49-1.46,2.68-2.54,3.53-3.34s1.38-1.3,1.83-1.78a6.76,6.76,0,0,0,.62-.82c.06,0,.1-.23.15-.36l.14-.43.32-.87c.18-.55.26-1,.42-1.55.05-.24.06-.42.11-.64s.12-.47.12-.61a2.1,2.1,0,0,1,.06-.48c0-.07.05-.19.05-.23a.45.45,0,0,1,0-.16,2.61,2.61,0,0,1,.06-.32.45.45,0,0,1,0-.21c.06-.13,0-.1.05-.17s.08-.17.05-.19a.73.73,0,0,1,0-.22.44.44,0,0,1-.12-.19,2.78,2.78,0,0,0-1.63-.92,14.28,14.28,0,0,0-7.53.54c-1.62.48-3.21,1.08-4.81,1.73a49.69,49.69,0,0,0-4.68,2.33,40.78,40.78,0,0,0-4.58,2.84,24,24,0,0,0-4,4c-.6.76-1.19,1.56-1.74,2.42l-.81,1.31a13.51,13.51,0,0,1-1.23,1.64,34.51,34.51,0,0,1-7.45,6.9,33.19,33.19,0,0,1-10.05,4.53,23.51,23.51,0,0,1-2.67.56,24.85,24.85,0,0,1-2.64.35,25.52,25.52,0,0,1-2.59.13c-.83,0-1.71,0-2.5-.08a31.75,31.75,0,0,1-9-1.91c-.68-.24-1.34-.49-2-.78l-.94-.42-.47-.21-.4-.19c-1.06-.51-2.1-1-3.17-1.54a88.58,88.58,0,0,1-12.87-7.82,62.65,62.65,0,0,1-6.37-5.41l-1.56-1.54-1.53-1.67a42.78,42.78,0,0,1-2.91-3.63c-.94-1.27-1.82-2.68-2.67-4.06l-1.19-2.22-.58-1.12-.51-1.18c-.33-.8-.65-1.59-1-2.39s-.53-1.66-.77-2.49a36.66,36.66,0,0,1-1.12-5.09,21.85,21.85,0,0,1-.3-2.62c-.07-.87-.13-1.79-.13-2.62l.08-2.41.06-1.19L341,197l.28-2.16c.11-.68.24-1.31.36-2,.24-1.34.57-2.45.86-3.63s.63-2.15.94-3.23l.92-2.88.84-2.59.39-1.21.33-1.1c.25-.77.4-1.36.6-2,.12-.35.15-.57.23-.86s.17-.59.21-.82c.07-.42.25-1,.27-1.3l.12-.58a4.79,4.79,0,0,1,.05-.49c0-.09,0-.18.05-.27l0-.23c0-.16,0-.33,0-.52-.24-.56-.48-1.21-.77-1.81a19.66,19.66,0,0,0-2.24-3.56,26.7,26.7,0,0,0-3.21-3.41c-.62-.55-1.3-1.06-2-1.59s-1.4-1-2.17-1.52a93.79,93.79,0,0,0-9.94-5.6c-3.57-1.73-7.31-3.47-11.06-5.34a99.63,99.63,0,0,1-11-6.44,42.41,42.41,0,0,1-9.71-8.84,32,32,0,0,1-5.5-11.86c-.23-1.06-.51-2.07-.67-3.17s-.28-2.14-.36-3.18c-.16-2.1-.2-4.12-.3-6.07a39.38,39.38,0,0,0-.61-5.66,20.5,20.5,0,0,0-1.78-5.18,37,37,0,0,0-6.95-9.13c-2.78-2.77-5.81-5.49-8.63-8.37s-5.61-5.74-8.42-8.6c-5.59-5.69-11.43-11.28-18.43-15.22A44.38,44.38,0,0,0,232.65,52l-2.92-.7-3-.42c-.49-.07-1-.15-1.48-.2l-1.5-.08-3-.16Zm0-.09c2,.11,4-.16,6,.14l3,.29,3,.58a44.48,44.48,0,0,1,11.46,4.11,59.24,59.24,0,0,1,10.2,6.7c3.18,2.52,6.15,5.28,9.06,8l8.7,8.29c2.86,2.78,5.88,5.34,8.85,8.15a40.23,40.23,0,0,1,7.76,9.62,23.81,23.81,0,0,1,2.25,5.9,41.77,41.77,0,0,1,.86,6.11c.32,4,.42,8,1.56,11.7a29.89,29.89,0,0,0,5,10.42,32.88,32.88,0,0,0,8.74,7.69A64.08,64.08,0,0,0,318,143.3c7.44,2.84,15.24,4.94,22.59,8.33A44.88,44.88,0,0,1,350.87,158a32.35,32.35,0,0,1,4.29,4.31c.64.79,1.21,1.63,1.81,2.45l.75,1.34.38.67c.1.23.18.48.28.71l.55,1.44c.15.48.24,1,.37,1.48a21.9,21.9,0,0,1,.47,3,35.93,35.93,0,0,1-.14,6.05c-.38,4-1.21,7.95-1.77,11.9-.13,1-.28,2-.36,3l-.14,1.49-.06,1.49c-.07,1,0,2,.06,3,0,.49.12,1,.18,1.48a10.14,10.14,0,0,0,.26,1.46,25.07,25.07,0,0,0,5.26,10.61,42,42,0,0,0,8.94,7.93,77.88,77.88,0,0,0,10.5,5.82,47.84,47.84,0,0,0,11.3,4,22.75,22.75,0,0,0,11.86-.62,21.15,21.15,0,0,0,5.3-2.79c1.64-1.16,3.19-2.43,4.82-3.6a105.82,105.82,0,0,1,10-6.64,67.32,67.32,0,0,1,10.88-5.09,27.14,27.14,0,0,1,11.79-1.78,14.78,14.78,0,0,1,5.73,1.65l1.29.76,1.16,1a6.26,6.26,0,0,1,1,1.08,6.88,6.88,0,0,1,.91,1.18l.77,1.29c.24.44.39.93.59,1.39a17.87,17.87,0,0,1,.82,2.88c.16,1,.24,2,.32,3s0,2-.08,3-.21,2-.37,3a19.39,19.39,0,0,1-.74,2.91,23.78,23.78,0,0,1-2.7,5.35c-2.22,3.35-5,6.27-7.13,9.67a20.36,20.36,0,0,0-2.53,5.43,21,21,0,0,0-.8,5.94c0,4,.76,8,1.15,12a38.36,38.36,0,0,1-.68,11.95,71.79,71.79,0,0,1-3.55,11.47c-2.91,7.46-6.5,14.68-8.73,22.39a44.48,44.48,0,0,0-1.81,11.85c0,1,.13,2,.19,3a21.32,21.32,0,0,0,.39,3,33.94,33.94,0,0,0,1.65,5.77c.33,1,.78,1.85,1.17,2.77s.89,1.8,1.42,2.65a43.82,43.82,0,0,0,3.34,5,75.61,75.61,0,0,0,8.11,8.86c5.81,5.52,12.13,10.47,17.89,16.06a68.7,68.7,0,0,1,8,9,40.42,40.42,0,0,1,5.56,10.61,29.37,29.37,0,0,1,1.58,11.83,25.37,25.37,0,0,1-3.83,11.27,33.76,33.76,0,0,1-8.06,8.83,50,50,0,0,1-10.42,5.94c-3.67,1.62-7.45,3-11.09,4.65s-7.24,3.71-9.61,7a13.93,13.93,0,0,0-2.33,5.5,21.4,21.4,0,0,0-.18,6,61,61,0,0,0,2.75,11.68,91.5,91.5,0,0,1,3,11.63,29.82,29.82,0,0,1-.2,11.94,18.77,18.77,0,0,1-6.37,9.95l-1.2.91c-.41.28-.86.52-1.28.78a22.47,22.47,0,0,1-2.68,1.36c-.93.37-1.87.72-2.83,1a29,29,0,0,1-2.93.69c-3.94.78-8,.6-12,.62h-24c-4,0-8,0-12,.13a73.63,73.63,0,0,0-11.93,1.36,41.06,41.06,0,0,0-11.28,4c-7.1,3.78-13,9.3-19.82,13.59a39,39,0,0,1-10.88,5,73.41,73.41,0,0,1-11.89,1.7,50.91,50.91,0,0,0-11.81,2.1,19.43,19.43,0,0,0-5.34,2.69,41.47,41.47,0,0,0-4.52,4,41.44,41.44,0,0,1-4.5,4,14.75,14.75,0,0,1-5.38,2.59,15.89,15.89,0,0,1-11.65-1.36,18.19,18.19,0,0,1-7.8-8.87,76.19,76.19,0,0,1-3.57-11.47,86,86,0,0,0-9.29-22.09,64.07,64.07,0,0,0-15.7-18c-3.11-2.53-6.3-5-9.25-7.67a30.61,30.61,0,0,1-7.39-9.39,17.11,17.11,0,0,1-1.52-5.79,18.72,18.72,0,0,1,.54-6,32.86,32.86,0,0,1,5.2-10.77c2.26-3.3,4.83-6.4,7-9.77a20.33,20.33,0,0,0,2.52-5.43A11.23,11.23,0,0,0,229,427a12.45,12.45,0,0,0-2.92-5.17,24.54,24.54,0,0,0-4.58-3.86,71.21,71.21,0,0,0-10.63-5.57c-3.67-1.63-7.38-3.13-11-4.8a90.54,90.54,0,0,1-10.52-5.81A223.39,223.39,0,0,1,169.59,388c-3.16-2.47-6.25-5-9.32-7.6s-6.08-5.23-9-8a78.27,78.27,0,0,1-8-9,31.14,31.14,0,0,1-5.46-10.63,14.83,14.83,0,0,1-.32-6,12.6,12.6,0,0,1,2.31-5.5,9.63,9.63,0,0,1,.94-1.17,9.78,9.78,0,0,1,1-1.1l1.1-1,1.19-.91a26.73,26.73,0,0,1,5.18-3.06c1.82-.83,3.7-1.54,5.44-2.53a6,6,0,0,0,2.27-1.89,4.25,4.25,0,0,0,.6-2.85,14.4,14.4,0,0,0-2.24-5.51c-1-1.71-2.23-3.32-3.3-5a31.78,31.78,0,0,1-4-11.29,40.06,40.06,0,0,1-.41-6c0-2,.14-4,.24-6a52.07,52.07,0,0,0-.38-12,24.43,24.43,0,0,0-1.79-5.71c-.81-1.83-1.76-3.59-2.54-5.44a17.47,17.47,0,0,1-1.49-5.82,27.41,27.41,0,0,1,.4-6,47,47,0,0,1,3.84-11.37c1.65-3.66,3.47-7.23,5-10.95a44.11,44.11,0,0,0,1.86-5.7l.19-.73.12-.74.24-1.47c.06-.5.06-1,.09-1.5a8.24,8.24,0,0,0,0-1.49c-.18-4-2.06-7.75-4.43-10.94s-5.09-6.19-7.34-9.52l-.83-1.25c-.27-.43-.51-.87-.76-1.31a20.43,20.43,0,0,1-1.34-2.69,27.25,27.25,0,0,1-1.66-5.78,36.82,36.82,0,0,1,.07-12c.63-4,1.9-7.8,2.86-11.68a27,27,0,0,0,.79-11.87,19.23,19.23,0,0,0-2.13-5.57,32.23,32.23,0,0,0-3.46-4.89c-2.57-3.08-5.52-5.81-8.24-8.75a34,34,0,0,1-6.82-9.85,30.78,30.78,0,0,1-1.81-5.73,40,40,0,0,1-.74-6,66.87,66.87,0,0,1,.61-12c.53-4,1.2-7.93,2-11.87a59.22,59.22,0,0,1,3.41-11.51,28.75,28.75,0,0,1,2.88-5.28,26.56,26.56,0,0,1,1.86-2.37,20.32,20.32,0,0,1,2.22-2A18.55,18.55,0,0,1,133,69.51a18.32,18.32,0,0,1,2.78-1.16,20.52,20.52,0,0,1,5.93-.88c4-.07,8,.63,12,.66a21.59,21.59,0,0,0,5.94-.67,16,16,0,0,0,5.31-2.7c3.21-2.4,5.88-5.43,9-7.91s7-4,10.84-5a58.15,58.15,0,0,1,11.89-1.75c4-.21,8-.11,12,0s8,.37,12,.27Z"/></svg>