<svg id="Layer_1" data-name="Layer 1" xmlns="http://www.w3.org/2000/svg" viewBox="0 0 600 600"><title>SouthSudan</title><path d="M73.55,256.26a25.52,25.52,0,0,0,3.18-12.14,100,100,0,0,1,1-12.73,58.28,58.28,0,0,1,9.76-23.88,52.74,52.74,0,0,1,19.77-17.38,33.62,33.62,0,0,1,13.45-3.44,27.93,27.93,0,0,1,14.07,3.36A24,24,0,0,1,145.25,201a30.12,30.12,0,0,1,2.13,7.15,52.5,52.5,0,0,0,1.27,5.72,10.74,10.74,0,0,0,.86,2.07,11.13,11.13,0,0,0,1.18,1.67,9.9,9.9,0,0,0,3.29,2.53,24.7,24.7,0,0,0,9.81,2.24,53.56,53.56,0,0,0,5.67,0c1,0,1.93-.11,2.91-.2.49,0,1-.08,1.48-.13l.73-.08c.26,0,.46-.05.83-.07a53.46,53.46,0,0,1,7.36,0l6.36.35a52.87,52.87,0,0,0,5.62,0,16.8,16.8,0,0,0,4.4-.74,7,7,0,0,0,1.44-.62,3.54,3.54,0,0,1,.48-.34c.15-.12.23-.27.36-.37s.24-.27.36-.4.18-.29.26-.43a5.3,5.3,0,0,0,.35-.93,13.45,13.45,0,0,0,.23-1.43c.05-.62.08-1.34.09-2.19a53.28,53.28,0,0,1,.28-7.32,17,17,0,0,1,2.13-6.32,14.25,14.25,0,0,1,2.7-3.35,15.8,15.8,0,0,1,3.38-2.38,20,20,0,0,1,6-1.92,32.34,32.34,0,0,1,4.69-.35c1.44,0,2.76.06,4,.14l2.72.09c1.84,0,3.7,0,5.6-.15a21.64,21.64,0,0,0,2.87-.24c1-.13,1.91-.28,2.89-.46,1.92-.31,3.89-.72,5.84-1.15,7.87-1.75,15.82-4.26,24.37-6.2,2.13-.48,4.3-1,6.53-1.34s4.54-.79,6.79-1,4.4-.5,6.83-.68c1.22-.07,2.48-.11,3.77-.13s2.64,0,4,.11a47.63,47.63,0,0,1,8.75,1.35A41.93,41.93,0,0,1,316,187a43.47,43.47,0,0,1,7.72,5.49,54.4,54.4,0,0,1,5.87,6.22c1.79,2.12,3,4,4.07,5.36a15,15,0,0,0,2.2,2.5,2.15,2.15,0,0,0,1.18.54,6.91,6.91,0,0,0,2.37-.24A24.9,24.9,0,0,0,347,203c.71-.5,1.41-1,2.14-1.55l2.3-1.73c.78-.57,1.53-1.19,2.29-1.77s1.53-1.14,2.25-1.74l8.64-6.77c2.81-2.18,5.48-4.27,8.26-6.2A54,54,0,0,0,380.6,177a15.76,15.76,0,0,0,1.59-1.8,19.73,19.73,0,0,0,1.41-1.89c.4-.66.76-1.34,1.16-2s.58-1.4.9-2.1a12.7,12.7,0,0,0,.71-2.16l.31-1.09.07-.27a.19.19,0,0,0,0-.08.49.49,0,0,1,0-.12,8.65,8.65,0,0,0-.32-2.56,41.07,41.07,0,0,0-1.33-4.35c-.58-1.64-1.28-3.4-2.05-5.28s-1.56-3.94-2.4-6.28c-.41-1.14-.88-2.59-1.17-3.56l-.5-1.62-.51-1.75-.25-.89-.25-1c-.16-.68-.33-1.26-.5-2.12l-.24-1.2-.11-.61-.1-.76a21.88,21.88,0,0,1-.21-3.4c0-.68,0-1.3.09-2s.24-1.65.41-2.46a15.54,15.54,0,0,1,.78-2.54,16.24,16.24,0,0,1,1.12-2.45c.42-.74.88-1.47,1.37-2.17s.88-1.11,1.35-1.65l.7-.77a8.15,8.15,0,0,1,.6-.59l1.18-1.08c.43-.4.68-.57,1-.85l1-.76c.61-.46,1.1-.8,1.66-1.21l2.8-2,5.05-3.66c1.82-1.31,3.88-2.76,6.31-4.2a43.27,43.27,0,0,1,8.57-4c.81-.28,1.68-.51,2.54-.74s1.94-.44,2.92-.57a31.66,31.66,0,0,1,12,.44,27.53,27.53,0,0,1,6.34,2.24,26.36,26.36,0,0,1,6.2,4.23,24.73,24.73,0,0,1,2.75,2.93c.42.54.83,1.09,1.22,1.64s.69,1.11,1,1.67a25.85,25.85,0,0,1,1.71,3.51,29.22,29.22,0,0,1,1.14,3.59,28.83,28.83,0,0,1,.63,3.46c.06.55.14,1.13.17,1.66l.07,1.55a45.48,45.48,0,0,1-1,10.11c-.55,2.75-1.16,5-1.58,6.89l-.15.68-.11.58-.22,1.14c-.12.79-.27,1.56-.35,2.37-.21,1.58-.31,3.19-.42,4.76a42.73,42.73,0,0,0,.48,8.77,13.49,13.49,0,0,0,1.79,5.24l.09.15a.36.36,0,0,1,0,.07l0,0s0,0,0,0,0,0,0,0a.65.65,0,0,1,.15.1,18.61,18.61,0,0,0,2.13,1.32l1,.53c.4.2.78.41,1.16.63s.87.52,1.3.8.95.66,1.4,1a58.81,58.81,0,0,1,6.4,6l1.74,1.89,1.78,2c1.19,1.43,2.4,2.95,3.34,4.29a44.87,44.87,0,0,1,2.87,4.67,37.18,37.18,0,0,1,2.3,5.48,35.41,35.41,0,0,1,1.33,5.72,40.16,40.16,0,0,1,.38,5.12,75.29,75.29,0,0,1-.43,7.75l-.22,2.69c0,.79-.08,1.58-.08,2.35a29.91,29.91,0,0,0,.31,4.5,36.81,36.81,0,0,0,.86,4.18,35.43,35.43,0,0,0,1.36,3.91,33.43,33.43,0,0,0,1.81,3.78c.05.1.05.12.14.28l.35.59.66,1.18c.41.81.83,1.62,1.17,2.44a35.55,35.55,0,0,1,1.71,4.92,54.18,54.18,0,0,1,1.39,15.87l0,1.74,0,1.85c0,.62-.05,1.26-.09,1.91s-.08,1.28-.15,2a45.82,45.82,0,0,1-1.56,8.56,28.43,28.43,0,0,1-4.95,10c-.34.42-.68.84-1,1.25s-.82.8-1.24,1.19-.86.77-1.3,1.14-1,.68-1.45,1-1,.62-1.51.91a15.51,15.51,0,0,1-1.55.72,16.45,16.45,0,0,1-3.15,1.06,26.74,26.74,0,0,1-3,.55c-.94.06-1.88.1-2.82.11a29.89,29.89,0,0,1-4.65-.44c-2.77-.47-4.9-1.09-6.62-1.5a16.13,16.13,0,0,0-3.63-.63A5.54,5.54,0,0,0,443,290a8,8,0,0,0-4.11,4.43,6.41,6.41,0,0,0-.32,1.31l-.06.91c0,.31,0,.56,0,.84s.07.5.08.75.1.42.14.63a5,5,0,0,0,.48,1,5.88,5.88,0,0,0,2,1.9l.37.24.43.25c.27.17.61.33.92.49.67.29,1.41.58,2.19.86a50.87,50.87,0,0,0,5.31,1.45c1.95.39,4,.82,6.24,1.22s4.63.92,7.3,1.73a36.88,36.88,0,0,1,4.27,1.55l1.78.74,1.69.73a103.12,103.12,0,0,1,13.13,7,85.1,85.1,0,0,1,11.81,8.93,94.2,94.2,0,0,1,10,10.37,96.7,96.7,0,0,1,14.72,24.52c1.82,4.33,3.4,8.71,4.83,13.06l.53,1.57.38,1.19c.26.76.51,1.55.8,2.28a37.18,37.18,0,0,0,1.88,4,16.67,16.67,0,0,0,2.07,3.1,9,9,0,0,0,2,1.85,5,5,0,0,0,1.46.69c.24,0,.32.07.71.1l2,.15a45.71,45.71,0,0,1,9,1.35c.53.15,1,.28,1.58.47l.81.28a9,9,0,0,1,.92.35c.67.29,1.34.58,2,.9a17.58,17.58,0,0,1,2,1.07,24.29,24.29,0,0,1,3.82,2.82c.6.54,1.18,1.1,1.74,1.67a22.45,22.45,0,0,1,1.5,1.78c.47.61,1,1.24,1.36,1.86s.74,1.22,1.08,1.84a28,28,0,0,1,1.69,3.6c.25.62.42,1.15.6,1.68l.49,1.64c.29,1,.48,2,.7,3a62.65,62.65,0,0,1,1,9.32l.14,3.34,0,.69,0,.55c0,.07,0,1.41,0,2.36s0,2-.12,3-.32,2.22-.52,3.32c-.1.56-.2,1.1-.32,1.66s-.33,1.16-.52,1.74c-.37,1.16-.73,2.31-1.22,3.45A34,34,0,0,1,557,455.48c-.87.7-1.76,1.39-2.66,2a29.22,29.22,0,0,1-2.65,1.7,40,40,0,0,1-5.17,2.57c-.86.37-1.61.61-2.43.91s-1.64.59-2.37.78c-1.51.41-3.07.83-4.47,1.09l-2.15.42c-.69.1-1.37.22-2.05.31-1.39.2-2.68.3-4,.42-2.59.25-5,.3-7.46.31-1.2,0-2.36,0-3.54,0a21.4,21.4,0,0,1-3.44-.48,24.83,24.83,0,0,1-3.34-1.06l-1.64-.73c-.54-.28-1.08-.54-1.62-.84-2.14-1.2-4.25-2.48-6.33-3.63a23.41,23.41,0,0,0-6.13-2.41,15.48,15.48,0,0,0-3-.34c-1,0-1.94,0-2.87,0-3.74.15-7.26,1.2-8.6,2.65a22.5,22.5,0,0,0-2.74,3.38c-.92,1.38-1.85,2.94-2.81,4.59a107,107,0,0,1-6.62,10.59c-1.31,1.83-2.77,3.65-4.35,5.54a56.34,56.34,0,0,1-5.47,5.65,37.43,37.43,0,0,1-7.43,5.31,30.39,30.39,0,0,1-10.19,3.41,29.84,29.84,0,0,1-5.66.24c-.92-.08-1.88-.17-2.75-.3s-1.67-.29-2.42-.49a49,49,0,0,1-7.93-2.69c-2.2-.93-4-1.76-5.48-2.31-.75-.3-1.37-.5-1.94-.67-.26-.06-.55-.16-.76-.19l-.34-.08-.42-.07a8.2,8.2,0,0,0-2.6-.05,23,23,0,0,0-4,1.16l-2.91,1c-1,.35-2.08.69-3.31,1.07a38.29,38.29,0,0,1-9,1.71,25.89,25.89,0,0,1-2.78,0,20.7,20.7,0,0,1-3.59-.51A21,21,0,0,1,380,493.2a29.79,29.79,0,0,1-3.49-2.34c-.89-.67-1.57-1.21-2-1.57a43.8,43.8,0,0,0-9.79-5.13,21.66,21.66,0,0,0-9.61-1.3,14.93,14.93,0,0,0-4.21,1.11,17,17,0,0,0-3.68,2.11,23.34,23.34,0,0,0-3.11,2.82c-.47.5-.89,1-1.31,1.55-.21.26-.41.53-.6.79a.16.16,0,0,0,.15,0,1.12,1.12,0,0,1-.11.26,22.78,22.78,0,0,1-1.68,2.43,26.17,26.17,0,0,1-3.53,3.86l-.66.57a8.88,8.88,0,0,1-.73.58c-.56.43-1.11.8-1.74,1.2s-1.48.82-2.25,1.18a22.48,22.48,0,0,1-2.83,1,20.41,20.41,0,0,1-3.34.57,17.44,17.44,0,0,1-3.53-.09,16.4,16.4,0,0,1-3.28-.73c-.52-.16-1.07-.35-1.53-.54s-.84-.38-1.25-.59-.82-.43-1.22-.66-.79-.47-1-.63c-.51-.35-1-.72-1.51-1.11s-.93-.78-1.36-1.17l-1.21-1.21A28.29,28.29,0,0,1,306,491.5a42.57,42.57,0,0,1-3.5-7.39l-1.15-3c-.42-1.15-.77-2.17-1-3.08-.57-1.81-1-3.13-1.2-3.95a.49.49,0,0,0-.1-.24l-.17-.34-.35-.68-.71-1.35-1.44-2.67c-1-1.76-1.94-3.49-2.95-5.17s-2.09-3.28-3.17-4.82a38.5,38.5,0,0,0-3.38-4.17c-.65-.68-1-.95-1.47-1.42a4.06,4.06,0,0,0-.54-.41l-.24-.21-.16-.07-.15-.13c-.06-.06-.07,0-.1-.05s-.11-.13-.18-.1-.12-.08-.28,0a.74.74,0,0,1-.21,0c-.07,0-.21.07-.32.09a24.72,24.72,0,0,0-4.31,2.33,39.74,39.74,0,0,1-7.17,3.59c-.74.25-1.52.45-2.29.66a19.08,19.08,0,0,1-2.42.39,15.62,15.62,0,0,1-2.61.13,18.79,18.79,0,0,1-2.55-.27,24.94,24.94,0,0,1-4.36-1.11c-1.3-.45-2.42-.92-3.47-1.37a36.88,36.88,0,0,0-5.16-2c-.31-.06-.64-.16-.89-.18a7.36,7.36,0,0,0-1-.08l-1-.07-1.1.06c-3,.12-6.49,1.12-10.53,2.25-2.06.57-4.23,1.17-6.69,1.67a38.51,38.51,0,0,1-8.07.85,28.48,28.48,0,0,1-4.54-.41c-.78-.15-1.55-.24-2.32-.46s-1.52-.46-2.29-.7a16.82,16.82,0,0,1-2.2-.88c-.72-.33-1.44-.67-2.15-1-1-.56-2.05-1.11-3.05-1.71a101.76,101.76,0,0,1-11.73-8A77.6,77.6,0,0,1,180.64,436c-.83-.93-1.62-1.92-2.41-2.91l-1.15-1.52c-.19-.27-.36-.48-.58-.81l-.65-1a36.51,36.51,0,0,1-2.28-4.14l-.88-2.09c-.29-.71-.49-1.37-.74-2.06a66.59,66.59,0,0,1-1.95-7.55c-.47-2.23-.86-4.18-1.25-5.75a13.65,13.65,0,0,0-1.25-3.44,5.59,5.59,0,0,0-.62-.83c0-.06-.06-.11-.13-.19l-.22-.27-.52-.54a22.76,22.76,0,0,0-3-2.49c-1.31-.9-2.83-1.88-4.57-3l-1.19-.74L156,395.9l-2.59-1.56c-1.81-1.08-3.78-2.24-5.83-3.62a56.37,56.37,0,0,1-6.37-4.85,38.19,38.19,0,0,1-6.26-7c-.23-.34-.49-.72-.68-1l-.52-.88c-.34-.59-.7-1.19-1-1.77-.64-1.17-1.19-2.32-1.73-3.46-1-2.25-1.91-4.41-2.66-6.45s-1.45-3.92-2.13-5.65-1.3-3.32-2-4.74c-.35-.68-.7-1.37-1.06-2-.17-.33-.36-.61-.54-.92l-.28-.45c-.11-.17-.26-.36-.39-.54-1-1.47-2.23-2.89-3.44-4.38-2.44-2.95-5.24-5.85-8.16-8.76l-9-8.88c-1.55-1.51-3.09-3-4.64-4.61-.77-.77-1.53-1.59-2.3-2.38s-1.52-1.6-2.33-2.51a22.63,22.63,0,0,1-4.41-6.75,24.08,24.08,0,0,1-1.45-7.44,58.47,58.47,0,0,0-.43-6.05,13,13,0,0,0-1.74-5,10.82,10.82,0,0,0-3.88-3.61,20.14,20.14,0,0,0-5.57-1.92c-4-.91-8.31-1-12.55-1.82a20.26,20.26,0,0,1-6.2-1.95,11.31,11.31,0,0,1-4.59-4.58c-.25-.48-.44-1-.66-1.48s-.32-1-.48-1.54a10.3,10.3,0,0,1-.29-3.22,10.86,10.86,0,0,1,7.33-9.66,41.17,41.17,0,0,1,6.14-1.63,18.88,18.88,0,0,0,6-2,12.78,12.78,0,0,0,4.38-4.48Zm.08.05a18.46,18.46,0,0,1-1.8,2.62,12,12,0,0,1-2.42,2.12,19.71,19.71,0,0,1-6,2.34,39.81,39.81,0,0,0-6,1.86,10.38,10.38,0,0,0-4.55,3.57,10.09,10.09,0,0,0-1.73,5.37,8.55,8.55,0,0,0,.35,2.76c.16.46.3.93.47,1.38s.4.87.63,1.27a9.53,9.53,0,0,0,4,3.74,19,19,0,0,0,5.69,1.56c4,.56,8.31.49,12.65,1.09a24.19,24.19,0,0,1,6.48,1.71A14.36,14.36,0,0,1,87,291.9a17.55,17.55,0,0,1,3,6.16c.59,2.18.85,4.33,1.2,6.38a19.71,19.71,0,0,0,1.63,5.66,15.56,15.56,0,0,0,3.66,4.48c6.28,5.44,13.19,10.39,19.85,15.67,3.33,2.64,6.62,5.36,9.73,8.32,1.56,1.48,3.08,3,4.51,4.62a36.51,36.51,0,0,1,3.95,5.24c4.57,7.44,6.77,15.81,11.45,22.57a32.8,32.8,0,0,0,9.07,8.16c3.48,2.3,7.21,4.34,10.77,6.71a48.87,48.87,0,0,1,10,8.08,20.65,20.65,0,0,1,3.51,5.51,29.33,29.33,0,0,1,1.74,6.23c.76,4.21,1,8.43,2.15,12.48s3.32,7.67,5.91,11a74.43,74.43,0,0,0,19,16.65c.89.57,1.8,1.1,2.71,1.65l1.42.71a8.44,8.44,0,0,0,1.45.62l1.5.51a14.28,14.28,0,0,0,1.55.33,19.62,19.62,0,0,0,3.15.37c4.25.13,8.42-.82,12.54-1.75s8.28-1.9,12.53-1.8l1.59,0,1.57.21a14.71,14.71,0,0,1,3.09.69,62.45,62.45,0,0,1,5.85,2.47,24.51,24.51,0,0,0,6,2.07,9.86,9.86,0,0,0,3.16.08,11.81,11.81,0,0,0,1.56-.26c.51-.14,1-.27,1.53-.43,4-1.39,7.2-4.44,11.13-6.05a9.12,9.12,0,0,1,6.2-.35l.76.22c.24.1.48.22.72.34a13.37,13.37,0,0,1,1.41.72,28.85,28.85,0,0,1,2.59,1.83,71,71,0,0,1,8.95,9c2.75,3.21,5.34,6.57,7.84,10a33.3,33.3,0,0,1,3.08,5.54c.88,1.93,1.79,3.83,2.72,5.73a47.79,47.79,0,0,0,3,5.61,12.4,12.4,0,0,0,4.46,4.41,4.25,4.25,0,0,0,3.07.38,7,7,0,0,0,2.73-1.56,47.46,47.46,0,0,0,4.31-4.65,32.08,32.08,0,0,1,22.86-9.41,40.7,40.7,0,0,1,12.46,2.18,76.34,76.34,0,0,1,11.64,5c1.87,1,3.59,2.23,5.5,3.16a12.19,12.19,0,0,0,3,1,10.46,10.46,0,0,0,3.16.1,26.21,26.21,0,0,0,6.15-1.51c2-.71,4-1.49,5.94-2.23A34,34,0,0,1,409,479a20,20,0,0,1,6.32-.11c4.23.51,8.11,2.39,12,4a37.68,37.68,0,0,0,6,2,16.91,16.91,0,0,0,6.3.33c4.23-.59,8-2.93,11.14-5.7a72.2,72.2,0,0,0,8.57-9.34c2.65-3.31,5.18-6.7,7.91-9.94s5.66-6.36,9.3-8.55a21.62,21.62,0,0,1,5.9-2.28,49,49,0,0,1,6.26-1.05c8.42-.87,16.91-.62,25.37-.86,4.23-.11,8.46-.3,12.66-.79a47.91,47.91,0,0,0,12.34-2.84,22.28,22.28,0,0,0,5.46-3.18,15.21,15.21,0,0,0,3.85-5c.22-.48.36-1,.55-1.49l.26-.75.16-.77.3-1.56.09-1.59c.09-1,0-2.11.09-3.17l.08-3.17a39.32,39.32,0,0,0-.32-6.33,13.17,13.17,0,0,0-2.24-5.87,8.45,8.45,0,0,0-2.31-2.15,11.63,11.63,0,0,0-2.89-1.26,39.07,39.07,0,0,0-6.25-1.07,28.56,28.56,0,0,1-6.21-1.28,23.22,23.22,0,0,1-5.59-3A27.87,27.87,0,0,1,519.5,398a38.32,38.32,0,0,1-3.79-5.08,67.51,67.51,0,0,1-5.66-11.35c-1.62-3.9-3.36-7.77-5.24-11.56a143.26,143.26,0,0,0-13.15-21.68c-2.51-3.41-5.19-6.69-8-9.85a101.36,101.36,0,0,0-9-9,91.61,91.61,0,0,0-10.07-7.71,38.05,38.05,0,0,0-5.51-3.15c-1.92-.88-3.91-1.6-5.91-2.29-4-1.38-8.07-2.6-11.93-4.35a29.05,29.05,0,0,1-5.47-3.19,15.13,15.13,0,0,1-4.19-4.71,13.93,13.93,0,0,1-1.72-6.05,16.81,16.81,0,0,1,.7-6.27,17.62,17.62,0,0,1,7.81-9.66,16.05,16.05,0,0,1,6-2.07,22.77,22.77,0,0,1,6.33.21c2.09.31,4.17.74,6.27,1a16.06,16.06,0,0,0,6.29-.37,9.58,9.58,0,0,0,5.08-3.59,15.64,15.64,0,0,0,2.45-5.79,46.56,46.56,0,0,0,.58-12.64c-.24-4.22-.39-8.49-1.62-12.56a21.41,21.41,0,0,0-2.7-5.72,42.42,42.42,0,0,1-6.45-17.75,55.92,55.92,0,0,1-.09-12.67c.19-2.11.37-4.22.35-6.34a19.47,19.47,0,0,0-1-6.24,18,18,0,0,0-3.11-5.49,22,22,0,0,0-4.61-4.33c-3.46-2.46-7.37-4.15-11-6.28s-7.12-4.82-9.1-8.61a32.58,32.58,0,0,1-3.68-12.07,59.72,59.72,0,0,1,0-12.68,71.16,71.16,0,0,1,2.42-12.45c1.15-4.05,2.55-8.12,2.59-12.38a12.21,12.21,0,0,0-1.42-6.1,10.56,10.56,0,0,0-4.49-4.34,16.54,16.54,0,0,0-12.34-.81c-4.07,1.22-7.7,3.5-11.22,5.82l-5.31,3.49a60.32,60.32,0,0,0-5.2,3.62,10.8,10.8,0,0,0-1.15,1.09c-.17.21-.36.39-.51.6l-.43.67a6.19,6.19,0,0,0-.74,3,25.11,25.11,0,0,0,1.07,6.23c.55,2,1.14,4.07,1.81,6.08s1.44,4,2.18,6a68.94,68.94,0,0,1,3.62,12.15,19.14,19.14,0,0,1-.44,9.43,26.64,26.64,0,0,1-.89,3.05,47.1,47.1,0,0,1-5.56,11.38,60.43,60.43,0,0,1-8,9.84,101.07,101.07,0,0,1-20.11,15.4c-3.65,2.15-7.34,4.23-11.18,6a41,41,0,0,1-12.08,3.76,20.37,20.37,0,0,1-6.33-.17,15.88,15.88,0,0,1-5.83-2.44c-3.53-2.42-6-6-8.91-9a33.6,33.6,0,0,0-10.1-7.54,31.92,31.92,0,0,0-12.3-2.72c-17-.24-33.63,3.55-50.46,5.19-4.21.41-8.44.69-12.68.72-2.11,0-4.23-.05-6.34-.17l-3.17-.28c-1-.1-2.1-.2-3.16-.22a13.53,13.53,0,0,0-6.18,1,5.57,5.57,0,0,0-2.3,2.08,8.27,8.27,0,0,0-1,3c-.35,2.08-.31,4.21-.46,6.32a20.73,20.73,0,0,1-1.2,6.23,12.93,12.93,0,0,1-9.42,7.79,25.74,25.74,0,0,1-6.31.67c-2.12,0-4.24-.14-6.34-.34-4.21-.37-8.42-1.05-12.65-.88a74.7,74.7,0,0,1-12.69-.14,37.88,37.88,0,0,1-6.24-1.16,23.47,23.47,0,0,1-5.85-2.45,15.66,15.66,0,0,1-7.38-9.94c-1.05-4.11-1-8.47-2.62-12.39a19.8,19.8,0,0,0-8.31-9.25,24.26,24.26,0,0,0-12.06-3.39,30.83,30.83,0,0,0-12.3,2.62,49.49,49.49,0,0,0-19.41,15.89A56.84,56.84,0,0,0,78.6,231.57c-.86,4.15-1,8.4-1.56,12.59a50.78,50.78,0,0,1-1.11,6.25,24.47,24.47,0,0,1-2.22,5.94Z"/></svg>