<svg id="Layer_1" data-name="Layer 1" xmlns="http://www.w3.org/2000/svg" viewBox="0 0 600 600"><title>SouthAfrica</title><path d="M58.55,296a19.47,19.47,0,0,1,6.86-2,5,5,0,0,1,3.46.82,5.61,5.61,0,0,1,1.76,3.2,31.66,31.66,0,0,0,.82,3.45,15.53,15.53,0,0,0,1.43,3.13,16.45,16.45,0,0,0,4.58,5c3.74,2.67,8.28,4.09,12.85,5.06s9.38,1.67,14.06,2.34a79.19,79.19,0,0,0,13.94.84,44,44,0,0,0,6.75-.81,33.34,33.34,0,0,0,6.32-2,24.84,24.84,0,0,0,10-7.67,18.42,18.42,0,0,0,2.75-5.34,29.08,29.08,0,0,0,1.23-6.21c.42-4.34.35-9.21.42-13.93s0-9.48-.15-14.22q-.33-14.21-1.52-28.34T141,211.13q-1-7-2.17-14c-.37-2.27-.87-4.76-1.14-7.7a29.44,29.44,0,0,1,.67-10.06,20.74,20.74,0,0,1,1-2.89,21.26,21.26,0,0,1,1.49-2.89,20.44,20.44,0,0,1,4.2-4.87,18.82,18.82,0,0,1,6.11-3.5,16.47,16.47,0,0,1,8.21-.65,17.46,17.46,0,0,1,7.29,3.15A24.06,24.06,0,0,1,171,171.9a23.25,23.25,0,0,1,1.46,1.92l1.33,1.91a20,20,0,0,1,1.21,2l1.13,2c.71,1.36,1.29,2.76,1.91,4.15s1,2.81,1.42,4.21a71.48,71.48,0,0,1,1.86,8.2c.9,5.33,1.24,10.3,1.75,14.84a66.94,66.94,0,0,0,2.21,12.14l.2.66a4.14,4.14,0,0,0,.19.57,7.32,7.32,0,0,0,.35.84l.18.4.21.36c.12.25.28.44.41.67a7.31,7.31,0,0,0,2.05,2,10.76,10.76,0,0,0,6.76,1.38,17.44,17.44,0,0,0,8.08-2.92c.31-.19.59-.43.89-.63s.55-.43.87-.72c.62-.61,1.29-1.14,1.89-1.82a37.9,37.9,0,0,0,3.56-4.25A84.06,84.06,0,0,0,217.27,209c2-4,4.07-8.36,6.42-12.9.58-1.13,1.19-2.27,1.83-3.43s1.35-2.43,2.2-3.75c.38-.69,1-1.25,1.38-2,.18-.38.39-.77.61-1.17s.44-.78.7-1.19a27.93,27.93,0,0,1,3.92-5,23.46,23.46,0,0,1,15.26-6.78,33.85,33.85,0,0,1,8,.52,58.56,58.56,0,0,1,6.13,1.51c1.76.52,3.28,1,4.59,1.39.31.08.66.19.94.25l.82.17,1.62.34,6.17,1.24c3.94.77,7.45,1.51,10.52,2.19a39.45,39.45,0,0,1,4.32,1.09,14.11,14.11,0,0,1,3.81,2.1c.32.27.63.44.95.71s.7.54,1,.78a18,18,0,0,0,1.92,1.62,17.2,17.2,0,0,0,4.73,2.57,10.15,10.15,0,0,0,5,.49,11.21,11.21,0,0,0,4.15-1.76,13.79,13.79,0,0,0,1.71-1.27,2.17,2.17,0,0,0,.29-.25,2.25,2.25,0,0,1,.24-.21c.17-.15.32-.39.49-.57a17.39,17.39,0,0,0,2.19-4l1.22-3.11.67-1.8.78-1.95a42.7,42.7,0,0,1,4.83-9.08c.62-.8,1.15-1.61,1.87-2.39l1.82-2q1.11-1.25,2.16-2.49c1.4-1.66,2.72-3.35,4-5a104.88,104.88,0,0,0,6.61-10.23c.48-.87,1-1.75,1.41-2.63l1.87-3.39c1.27-2.26,2.46-4.59,3.69-6.91s2.5-4.62,3.9-6.84,2.92-4.35,4.5-6.44,3.24-4.11,5-6.07,3.49-3.9,5.32-5.78q5.46-5.64,11.31-10.91a171.33,171.33,0,0,1,25.81-19.4,133.05,133.05,0,0,1,14.9-7.82,105.86,105.86,0,0,1,16.4-5.71,81.07,81.07,0,0,1,8.69-1.78c1.48-.2,2.94-.41,4.44-.58s3.07-.22,4.61-.31a64.85,64.85,0,0,1,17.93,3.26c1.43.49,2.86.88,4.26,1.4s2.79,1,4.19,1.5,2.79,1,4.2,1.38,2.78,1,4.17,1.48a75.79,75.79,0,0,1,15.88,8.44,60.61,60.61,0,0,1,13.51,12.75c.48.63,1,1.21,1.44,1.87l1.32,2,1.31,2c.41.67.8,1.35,1.18,2a69,69,0,0,1,3.74,8.19,104.24,104.24,0,0,1,4.37,15.64q.8,3.73,1.47,7.47c.43,2.5.81,5,1.16,7.52A224.67,224.67,0,0,1,537.11,166a249.08,249.08,0,0,1-1.62,30l-.41,3.71-.15,1.18,0,.59c0,.2,0,.47,0,.7,0,1,0,2.12.07,3.41s0,2.69,0,4.22a28.92,28.92,0,0,1-.56,5.16,19,19,0,0,1-2.52,6.23,16.35,16.35,0,0,1-5.42,5.08,17.94,17.94,0,0,1-6.25,2.11,20.7,20.7,0,0,1-5.88,0,23.26,23.26,0,0,1-2.76-.56l-.55-.16-.48-.14-.94-.29c-2.48-.77-4.81-1.54-6.43-1.93l-.31-.08-.26,0a4.71,4.71,0,0,0-1.23-.1c-.21,0-.36.06-.53.05a1.12,1.12,0,0,1-.26.08,1,1,0,0,0-.28.1,14.4,14.4,0,0,0-3.59,2.4C492,231.76,490,239,491,246a19.31,19.31,0,0,0,1.4,5.09,46.47,46.47,0,0,0,2.31,4.57c.42.72.8,1.44,1.24,2.1a16.57,16.57,0,0,0,1.28,1.87,14.18,14.18,0,0,0,2.7,2.72,7.07,7.07,0,0,0,.68.48c.11.08.23.13.34.2l.17.11.1.05a2.9,2.9,0,0,0,1.12.43,9.27,9.27,0,0,0,1.65.15,9.41,9.41,0,0,0,1.75-.22,6.94,6.94,0,0,0,2.6-1.17c.18-.1.24-.22.4-.33a9.31,9.31,0,0,0,.57-1,29.11,29.11,0,0,0,1.12-2.91c.39-1.13.81-2.42,1.38-3.82a25,25,0,0,1,2.28-4.49A19.6,19.6,0,0,1,522,243a25,25,0,0,1,4.46-1.61,28,28,0,0,1,4.43-.83,36.16,36.16,0,0,1,8.7.07,30.47,30.47,0,0,1,4.34.82l1.14.31c.38.11.79.27,1.18.41a17.5,17.5,0,0,1,2.42,1.08,15.16,15.16,0,0,1,4.66,3.85,16,16,0,0,1,2.84,5.53,10,10,0,0,1,.34,1.39l.25,1.37c.08.84.2,1.76.2,2.56a38.71,38.71,0,0,1-.17,4.65c-.15,1.56-.32,2.69-.48,4s-.29,2.5-.48,3.74c-.34,2.51-.75,5-1.12,7.52s-.86,5-1.36,7.52c-1,5-2.08,10.07-3.46,15.07s-2.95,10-4.81,14.89L543.66,319l-1.57,3.62c-1.07,2.4-2.2,4.79-3.44,7.12a141,141,0,0,1-8,13.47c-1.37,2.12-2.8,4.11-4.16,6.08-.69,1-1.34,2-2,2.9s-1.42,1.81-2.15,2.67a35.94,35.94,0,0,1-4.92,4.56c-1.77,1.37-3.61,2.61-5.42,4a44.5,44.5,0,0,0-5.19,4.64c-1.62,1.7-3.06,3.54-4.59,5.41-6,7.47-12.6,15.42-19.66,23-3.55,3.73-7.07,7.36-10.64,10.88-.91.87-1.8,1.75-2.68,2.63l-2.7,2.58-5.39,5.1c-7.21,6.73-14.25,13.46-21.16,20.11S426.05,451,418.64,457.09c-3.71,3-7.41,6.05-11.41,8.71a117.22,117.22,0,0,1-12.65,7.12c-4.35,2.21-8.75,4.36-12.84,6.9-2,1.28-4,2.59-5.95,4-1,.71-1.91,1.43-2.85,2.18l-2.89,2.28c-2,1.55-4,3.15-6.3,4.69-1.13.76-2.31,1.53-3.55,2.25a42.44,42.44,0,0,1-3.86,2,63,63,0,0,1-7.81,3c-2.57.82-5.08,1.48-7.49,2.1s-4.69,1.22-7.05,1.77-4.71,1.14-7.1,1.62c-4.75,1-9.56,1.93-14.43,2.79a291.67,291.67,0,0,1-30,4c-10.35.76-20.2.71-29.3.86-4.55,0-8.91.16-13.06.41-2.08.12-4.11.3-6.08.5l-1.48.15-1.47.21c-1,.16-2,.22-2.95.42l-3,.5c-1,.22-2,.38-3,.56l-3.05.54c-1,.17-2.07.3-3.11.49-4.19.62-8.63,1-13.2,1.49-2.29.23-4.6.5-6.93.85s-4.67.71-7,1.21a142.76,142.76,0,0,0-13.79,3.83c-2.31.7-4.59,1.48-6.91,2.22s-4.8,1.62-7.5,2.33a44.74,44.74,0,0,1-8.88,1.59,26.45,26.45,0,0,1-10.3-1.23,24.66,24.66,0,0,1-4.86-2.3,30,30,0,0,1-3.9-3,53.75,53.75,0,0,1-5.49-6.11c-1.5-1.88-2.85-3.6-4.15-5-.33-.33-.68-.69-.86-.91a10.16,10.16,0,0,0-.76-.7,10.66,10.66,0,0,0-1.73-1.29,7.12,7.12,0,0,0-2-.85,5.55,5.55,0,0,0-1.06-.16,4.73,4.73,0,0,0-.53,0l-.44.05a7.06,7.06,0,0,0-2,1.2c-.51.38-1.16.82-1.93,1.29a10.49,10.49,0,0,1-3.23,1.26,8.49,8.49,0,0,1-4.79-.5,8.27,8.27,0,0,1-1-.49c-.31-.18-.66-.38-.93-.57a13.88,13.88,0,0,1-1.46-1.22,11.17,11.17,0,0,1-2.28-3.14,13.84,13.84,0,0,1-1.2-3.38,18,18,0,0,1-.14-6.4,38.33,38.33,0,0,1,1.16-5,27.24,27.24,0,0,0,.75-3.19c.05-.69.06-1.26.08-1.87,0-1.18.07-2.32,0-3.46a8.86,8.86,0,0,0-.22-1.65,5.94,5.94,0,0,0-.4-1.17,6.77,6.77,0,0,0-.89-1.37c-.46-.57-1.13-1.3-1.95-2.16a49.83,49.83,0,0,1-5.68-6.82,29.47,29.47,0,0,1-2.55-4.79,21.51,21.51,0,0,1-1.58-6.32,17.45,17.45,0,0,1,1-7.59,17.92,17.92,0,0,1,3.88-6.1,26.33,26.33,0,0,1,4.09-3.4c1.2-.83,2.16-1.41,2.91-1.89A15.25,15.25,0,0,0,99,439.35c.2-.21.42-.41.63-.62s.38-.48.59-.73a11.56,11.56,0,0,0,1.75-3.91,22.44,22.44,0,0,0-.11-10.58,32.5,32.5,0,0,0-2-5.61,60.67,60.67,0,0,0-3-5.8c-2.27-3.9-5-7.84-7.59-12.07a102.72,102.72,0,0,1-7-13.29c-2-4.53-3.73-9.12-5.31-13.7s-3-9.16-4.56-13.7-3-9.06-4.69-13.5A87.61,87.61,0,0,0,61.58,333c-1.19-2.06-2.44-4.08-3.69-6.12s-2.49-4.11-3.79-6.07-3.05-3.72-4-6.09a10.85,10.85,0,0,1,.34-7.25,32.62,32.62,0,0,1,1.39-3.34c.53-1.07,1-2.17,1.62-3.21A13.21,13.21,0,0,1,58.55,296Zm.05.11a7.3,7.3,0,0,0-2.8,2.15,13.88,13.88,0,0,0-1.9,3,41,41,0,0,0-2.36,6.66c-.54,2.23-.64,4.54.28,6.26s2.63,3.32,4.31,5.26C59.2,323.26,62,327,64.84,331c1.35,2,2.69,4.09,3.9,6.25s2.31,4.46,3.29,6.65c3.88,8.92,7.14,17.94,10.68,26.71,1.78,4.37,3.67,8.68,5.79,12.83a94.62,94.62,0,0,0,7.07,12c2.66,3.86,5.59,7.68,8.3,11.76a53,53,0,0,1,6.73,13.35,31.9,31.9,0,0,1,1,15.16A22.05,22.05,0,0,1,108.9,443a18.68,18.68,0,0,1-5.29,5.68,42.06,42.06,0,0,0-5.52,4.18,6.82,6.82,0,0,0-2,5.51,13.28,13.28,0,0,0,2.41,6.06,38,38,0,0,0,4.5,5.34,27.48,27.48,0,0,1,4.6,5.76,17.82,17.82,0,0,1,2,7.15,20.78,20.78,0,0,1-.72,7.32,19.74,19.74,0,0,1-1.34,3.42c-.55,1.1-1.17,2.13-1.75,3.16a11.8,11.8,0,0,0-2,6.55,5.27,5.27,0,0,0,1.15,3.13,3.21,3.21,0,0,0,2.87,1.33,8.42,8.42,0,0,0,3.15-1.42,15.32,15.32,0,0,1,3.18-1.76,12.71,12.71,0,0,1,7.18,0,15.12,15.12,0,0,1,6.24,3.57,69.56,69.56,0,0,1,5,5.16,51.32,51.32,0,0,0,5.05,5.06,21.23,21.23,0,0,0,2.91,2.06,16,16,0,0,0,3.26,1.42,17.74,17.74,0,0,0,7.07.56,34,34,0,0,0,7-1.61c2.27-.75,4.48-1.67,6.69-2.59l6.61-2.79c8.81-3.72,17.6-7.52,26.61-10.73,4.5-1.62,9.06-3.08,13.68-4.32a121.89,121.89,0,0,1,14-3c9.47-1.45,19.1-1.38,28.64-.82s19.08,1.48,28.64,1.67a251.6,251.6,0,0,0,28.66-1.23c9.53-.89,19-2.12,28.51-3.34a65.5,65.5,0,0,0,14-3,46.5,46.5,0,0,0,12.33-7.23l45.14-35.46,22.56-17.74c7.51-5.93,15.08-11.78,22.31-18.05a151.51,151.51,0,0,0,20-20.5c5.95-7.52,10.71-15.85,15.52-24.11,2.41-4.14,4.84-8.26,7.44-12.27s5.43-7.88,8.35-11.67c5.84-7.57,12-14.91,17.25-22.92A170.45,170.45,0,0,0,548,268.34c.31-1.15.58-2.32.84-3.48s.56-2.33.76-3.51a17.61,17.61,0,0,0,.08-7.12,8.61,8.61,0,0,0-1.48-3.24,9,9,0,0,0-2.67-2.35,19.59,19.59,0,0,0-6.8-2.15,23.81,23.81,0,0,0-14,1.81,12.87,12.87,0,0,0-5.23,4.77,24,24,0,0,0-2.39,6.74c-.28,1.16-.57,2.32-.94,3.46a12.72,12.72,0,0,1-1.47,3.25,13,13,0,0,1-5.42,4.56,16.38,16.38,0,0,1-6.95,1.54,14.27,14.27,0,0,1-6.87-1.81,24.75,24.75,0,0,1-9.69-10.3,36.07,36.07,0,0,1-4-13.67,33.09,33.09,0,0,1,1.75-14.13,25.43,25.43,0,0,1,8.23-11.52,20.73,20.73,0,0,1,6.19-3.54,12.63,12.63,0,0,1,7.08-.1c2.33.55,4.59,1.36,6.89,2a22,22,0,0,0,3.48.81,12.63,12.63,0,0,0,3.58,0,9.78,9.78,0,0,0,3.36-1.19,6.86,6.86,0,0,0,1.41-1.1,7.21,7.21,0,0,0,1.15-1.37,10.54,10.54,0,0,0,1.25-3.34,22.42,22.42,0,0,0,.28-3.57c0-2.39-.3-4.77-.44-7.16a61.36,61.36,0,0,1,.24-7.17,233.74,233.74,0,0,0-4-57.11q-1.38-7-3.19-14a107.39,107.39,0,0,0-4.36-13.66,48.69,48.69,0,0,0-17.53-22.19,59.35,59.35,0,0,0-12.67-6.65c-1.13-.39-2.23-.85-3.38-1.19l-3.44-1-3.51-.78c-1.16-.27-2.35-.39-3.53-.6a69.91,69.91,0,0,0-14.31-.55,75.17,75.17,0,0,0-14.12,2.43,92.19,92.19,0,0,0-13.51,4.77,113.53,113.53,0,0,0-12.68,6.69,151.88,151.88,0,0,0-22.85,17.29,203.08,203.08,0,0,0-19.86,20.68q-4.59,5.51-8.8,11.33c-1.4,1.94-2.76,3.91-4.09,5.89s-2.6,4-4,6a99.65,99.65,0,0,1-9.08,11.1c-1.64,1.74-3.34,3.43-5.07,5.08a55,55,0,0,0-5.1,5c-3,3.77-4.55,8.39-6.5,12.73a34.9,34.9,0,0,1-3.48,6.27,24.76,24.76,0,0,1-5,5.08,37.12,37.12,0,0,1-12.82,6.28A41.85,41.85,0,0,1,295,205.73c-9.61-.61-18.77-4.1-27.21-8.54-2.11-1.12-4.18-2.31-6.23-3.55s-4-2.57-6.13-3.73a16.22,16.22,0,0,0-6.73-2.24,9.91,9.91,0,0,0-6.66,2.13,21,21,0,0,0-4.72,5.35c-.65,1-1.25,2-1.82,3.08s-1.15,2.1-1.71,3.16c-2.22,4.23-4.27,8.56-6.47,12.81A95,95,0,0,1,220,226.49a50.4,50.4,0,0,1-4.65,5.46,34,34,0,0,1-5.48,4.62,28.43,28.43,0,0,1-13.44,4.65,21.69,21.69,0,0,1-13.71-3.32,18.29,18.29,0,0,1-5-5.07,21.81,21.81,0,0,1-2.86-6.56,78.47,78.47,0,0,1-2.41-14.13c-.45-4.76-.76-9.54-1.47-14.27a46.87,46.87,0,0,0-4-13.72,38.44,38.44,0,0,0-3.76-6.08c-1.46-1.84-3.34-3.57-5.72-4a8.18,8.18,0,0,0-6.62,1.95,11.55,11.55,0,0,0-3.83,5.89,21.48,21.48,0,0,0-.63,7.1c.13,2.38.49,4.75.77,7.13.59,4.74,1.13,9.5,1.58,14.26q1.4,14.28,1.93,28.63t.29,28.7c-.08,4.78-.26,9.56-.48,14.34s-.39,9.57-1.07,14.31a32.7,32.7,0,0,1-1.74,7,22.44,22.44,0,0,1-3.6,6.19,28,28,0,0,1-11.67,8.13,39.28,39.28,0,0,1-14.07,2.5,81.52,81.52,0,0,1-14.28-1.35c-2.36-.4-4.71-.85-7-1.31s-4.7-.92-7-1.49c-4.63-1.14-9.27-2.73-13.1-5.65a17.3,17.3,0,0,1-4.64-5.43,15.24,15.24,0,0,1-1.33-3.33,26.59,26.59,0,0,1-.61-3.53,5.3,5.3,0,0,0-1.52-3.16,4.76,4.76,0,0,0-3.38-.9A17.79,17.79,0,0,0,58.6,296.06Z"/></svg>