<svg id="Layer_1" data-name="Layer 1" xmlns="http://www.w3.org/2000/svg" viewBox="0 0 600 600"><title>Sweden</title><path d="M344.83,59.32c-1,1.26-2,2.45-3,3.66a43,43,0,0,1-3.26,3.51,12.27,12.27,0,0,1-9,3.64c-1.63,0-3.21-.06-4.69.06a8.33,8.33,0,0,0-3.95,1.24c-2.33,1.48-4,4.06-5.41,6.77-5.91,11.19-11.64,22.57-17.4,33.88l-8.64,17c-2.88,5.67-5.78,11.31-8.5,16.93-5.45,11.24-10.19,22.57-12.68,34-.31,1.42-.57,2.85-.82,4.26s-.46,2.83-.61,4.28c-.35,2.89-.6,6-.95,9.31a88.12,88.12,0,0,1-1.68,10.54,58.44,58.44,0,0,1-1.61,5.69,41.89,41.89,0,0,1-2.47,5.77,56.66,56.66,0,0,1-6.67,10c-2.38,2.88-4.7,5.45-6.85,7.81s-4.08,4.54-5.62,6.59a28,28,0,0,0-2,3l-.86,1.49c-.29.5-.5,1.05-.76,1.56-4,8.28-5,18.54-4.44,29.36.15,2.72.32,5.45.65,8.25s.74,5.58,1.12,8.52.86,5.95,1.35,9.05,1,6.24,1.4,9.48.83,6.56,1.17,10,.69,6.93.7,10.54a58.76,58.76,0,0,1-1,11c-.37,1.86-.8,3.72-1.32,5.58s-1.13,3.69-1.8,5.53c-1.31,3.66-2.89,7.18-4.43,10.62l-4.7,10.17c-1.53,3.36-3.07,6.72-4.85,10-.9,1.65-1.75,3.22-2.79,4.88l-1.61,2.55c-.53.86-1.1,1.6-1.66,2.4-1.13,1.63-2.24,3-3.36,4.53l-3.23,4.06c-2.08,2.65-4,4.93-5.45,7.12-.34.53-.77,1.09-1,1.58l-.87,1.48a18.91,18.91,0,0,0-1.16,2.62,16,16,0,0,0-.59,2.21,18.62,18.62,0,0,0-.07,2,14.5,14.5,0,0,0,.15,2c0,.35.18.78.24,1.16,0,.2.07.39.09.59l0,.29.08.36c.18,1,.47,2,.75,3s.67,2.09,1.08,3.21.81,2.26,1.3,3.46,1,2.45,1.52,3.72a13.31,13.31,0,0,1,1.34,4.15c.2,1.55,0,3.26.11,5.06a16.58,16.58,0,0,0,.95,5.18c.54,1.64,1.06,3.28,1.56,4.94s1.07,3.29,1.56,5,1,3.33,1.53,5a105.59,105.59,0,0,1,4.41,21c.16,1.83.27,3.63.31,5.52v2.84l-.1,2.73c-.16,3.59-.48,6.95-.82,10-.59,6.08-1.12,11-.32,14.8a19,19,0,0,0,2,5.72,16.26,16.26,0,0,0,.87,1.41c.31.47.6,1,.9,1.37a18.24,18.24,0,0,0,1.9,2.19,10.1,10.1,0,0,0,1.83,1.45,6.6,6.6,0,0,0,1.37.64,2.21,2.21,0,0,0,1.23.09,5.87,5.87,0,0,0,1.86-.76,10.21,10.21,0,0,0,2.06-1.66,32.53,32.53,0,0,0,2.33-2.94c1.62-2.27,3.29-4.92,5.15-7.76a56.59,56.59,0,0,1,6.72-8.77,35.85,35.85,0,0,1,4.74-4.17,24.54,24.54,0,0,1,2.78-1.71l1.38-.74a12.47,12.47,0,0,1,1.38-.67c.92-.38,1.86-.81,2.79-1.14l2.75-.9,2.68-.73c.88-.22,1.73-.4,2.59-.6,3.4-.7,6.54-1.32,9.33-2a26.58,26.58,0,0,0,6.93-2.59,9.74,9.74,0,0,0,3.71-3.79c1.93-3.18,2.39-7.18,2-12.1a68.6,68.6,0,0,0-1.17-7.91c-.54-2.81-1.22-5.76-1.87-9-.32-1.56-.62-3.29-.93-5s-.58-3.52-.78-5.48c-.1-1-.23-1.89-.26-3l-.07-1.55,0-.78a6.29,6.29,0,0,1,0-.9,36,36,0,0,1,.47-4.68c.13-.76.27-1.53.44-2.28s.39-1.44.61-2.15a45,45,0,0,1,7.06-13.55c2.56-3.55,5.08-6.19,7.15-8.58l1.5-1.66c.45-.5.9-1,1.28-1.46l1.37-1.62c.6-.72,1.21-1.41,1.81-2l1.77-1.91,1.72-1.82c.57-.59,1.1-1.18,1.67-1.72a9.77,9.77,0,0,1,1.88-1.4,11,11,0,0,1,2.25-.94l1.26-.32c.44-.08.86-.17,1.32-.23l2.79-.33c.95-.1,1.9-.18,2.8-.32a15.7,15.7,0,0,0,4.82-1.37,13.94,13.94,0,0,0,3.26-2.59,20.06,20.06,0,0,0,2.47-3,25.26,25.26,0,0,0,2-3.67,23.93,23.93,0,0,0,1.83-7.81,24.32,24.32,0,0,0-.62-7.4,14,14,0,0,0-.51-1.71,14.35,14.35,0,0,0-.63-1.65,17.57,17.57,0,0,0-1.79-3,27.21,27.21,0,0,0-2.33-2.66,36.1,36.1,0,0,0-2.95-2.43c-2.16-1.64-4.76-3.23-7.53-5.25-1.38-1-2.85-2.11-4.31-3.38a44.52,44.52,0,0,1-4.32-4.43,31.44,31.44,0,0,1-3.79-5.62,36.32,36.32,0,0,1-2.55-6.11,39.53,39.53,0,0,1-1.41-6.11,25.85,25.85,0,0,1-.29-5.93,45.49,45.49,0,0,1,.95-5.7,52.28,52.28,0,0,1,2-5.43l.54-1.32c.18-.43.42-.85.63-1.27.44-.85.83-1.69,1.24-2.51l1.14-2.47c.43-.79.8-1.59,1.17-2.39.72-1.6,1.3-3.22,2-4.78l.93-2.38.47-1.19.55-1.14a146.6,146.6,0,0,1,9.57-17.6,173.9,173.9,0,0,1,11.3-16.23c1-1.31,2.07-2.54,3.1-3.81s2.09-2.52,3.19-3.72c2.16-2.45,4.39-4.81,6.63-7.16l6.68-6.86c2.14-2.26,4.21-4.48,6.09-6.75a67.2,67.2,0,0,0,5.09-6.84,40.69,40.69,0,0,0,3.54-6.9,30.37,30.37,0,0,0,1.74-6.8,29.75,29.75,0,0,0,.22-3.63c.05-1.27,0-2.62,0-4s-.17-2.9-.27-4.43l-.25-4.81a63.71,63.71,0,0,1,.22-10.94,42.39,42.39,0,0,1,3.09-11.72,33.67,33.67,0,0,1,3.15-5.73,29.34,29.34,0,0,1,4.73-5.23,24.5,24.5,0,0,1,6.33-3.82,27.49,27.49,0,0,1,6.54-1.67,53.25,53.25,0,0,1,5.47-.43c1.64-.07,3.12-.1,4.34-.2.66,0,1.15-.13,1.71-.18a11.28,11.28,0,0,0,1.31-.29c.42-.07.67-.24,1-.32a5.27,5.27,0,0,0,.8-.45c.12-.1.28-.13.4-.27a3.33,3.33,0,0,1,.39-.36,5.25,5.25,0,0,0,.66-.78,5.17,5.17,0,0,0,.84-2c.4-1.79.16-4.62-.09-8-.06-.86-.11-1.75-.13-2.69l0-2.33c0-1.52-.08-3.05-.16-4.58-.3-6.12-1-12.29-1.88-18.44A185.13,185.13,0,0,0,399.54,86c-1.08-2.94-2.26-5.86-3.49-8.75a57.51,57.51,0,0,0-4.21-8.24,24.64,24.64,0,0,0-6.12-6.66,49.63,49.63,0,0,0-8.15-4.56c-2.86-1.33-5.77-2.6-8.69-3.87-1.46-.63-2.89-1.35-4.31-2a23.07,23.07,0,0,0-4.47-1.51,11.14,11.14,0,0,0-4.67-.12,10.33,10.33,0,0,0-4.22,2,38,38,0,0,0-6.46,6.93Zm-.08,0c.5-.62.91-1.31,1.36-2s.93-1.3,1.44-1.91a23.9,23.9,0,0,1,3.32-3.51,11.19,11.19,0,0,1,4.38-2.42,11.79,11.79,0,0,1,5.08-.16,23.65,23.65,0,0,1,4.78,1.35c1.54.65,2.91,1.27,4.38,1.84,2.92,1.13,5.88,2.32,8.83,3.56A53,53,0,0,1,387,60.53a27.51,27.51,0,0,1,7,7,59.77,59.77,0,0,1,4.8,8.42c1.38,2.88,2.71,5.77,3.95,8.71a192.11,192.11,0,0,1,11.17,36.5A190.16,190.16,0,0,1,416.74,140c.16,1.59.3,3.17.41,4.76s.17,3.16.36,4.72c.34,3.13.91,6.32.56,9.55a12.65,12.65,0,0,1-4.35,8.42,13.7,13.7,0,0,1-2,1.42,16,16,0,0,1-2.19,1,20.86,20.86,0,0,1-4.66,1.07c-3.16.42-6.34.44-9.46,1a19.92,19.92,0,0,0-4.54,1.28,16.39,16.39,0,0,0-4,2.51,19.47,19.47,0,0,0-3.09,3.56,24.6,24.6,0,0,0-2.2,4.19,32.86,32.86,0,0,0-2.2,9.21c-.59,6.34.37,12.67.56,19a48.5,48.5,0,0,1-.48,9.48,36.3,36.3,0,0,1-2.82,9,58.8,58.8,0,0,1-11,15.42c-4.34,4.63-9.08,8.85-13.63,13.26s-9,9-13.18,13.71a143.24,143.24,0,0,0-11.68,15,91.28,91.28,0,0,0-9.07,16.68,67,67,0,0,0-4.7,18.36c-.09,1.58-.29,3.16-.3,4.74l.11,4.76a40.15,40.15,0,0,0,1.6,9.35A27.45,27.45,0,0,0,319,350a49.51,49.51,0,0,0,6.43,7c2.32,2.16,4.72,4.24,6.93,6.51a44.29,44.29,0,0,1,3.14,3.57,32.77,32.77,0,0,1,2.6,4,28.56,28.56,0,0,1,3.17,8.92,32.32,32.32,0,0,1,.23,9.47,46.53,46.53,0,0,1-6.21,17.83c-3.35,5.4-7.72,10.06-12.1,14.63-2.21,2.28-4.44,4.53-6.6,6.85-1.09,1.15-2.13,2.35-3.21,3.51s-2.18,2.3-3.3,3.43c-2.21,2.26-4.46,4.5-6.46,7a28,28,0,0,0-4.88,8.11l-.39,1.13-.28,1.15a16.67,16.67,0,0,0-.37,2.35c-.09,1.58-.17,3.16-.13,4.75,0,3.17.24,6.33.47,9.5.45,6.31,1,12.66.49,19a36.77,36.77,0,0,1-1.88,9.29,25.34,25.34,0,0,1-4.66,8.23,20.37,20.37,0,0,1-7.56,5.62,40.17,40.17,0,0,1-9.13,2.59c-3.12.56-6.27,1-9.39,1.53a39.65,39.65,0,0,0-9.12,2.62,24.75,24.75,0,0,0-4.14,2.32,23,23,0,0,0-3.52,3.17,47.84,47.84,0,0,0-5.56,7.7c-1.66,2.7-3.2,5.48-4.91,8.15a26,26,0,0,1-6.18,7.16,13.69,13.69,0,0,1-8.83,3,16.15,16.15,0,0,1-8.76-3.34,25.33,25.33,0,0,1-3.57-3.13c-.56-.56-1.05-1.19-1.56-1.8s-1-1.2-1.47-1.86a31.61,31.61,0,0,1-4.31-8.44c-.22-.76-.5-1.5-.67-2.28l-.51-2.32-.34-2.35c-.12-.79-.15-1.58-.22-2.37a94.29,94.29,0,0,1-.11-9.51c.08-3.17.19-6.34.16-9.51a81.12,81.12,0,0,0-.62-9.48c-1.53-12.61-5.52-24.8-10.53-36.42a152.47,152.47,0,0,1-6.87-17.73,54.56,54.56,0,0,1-1.92-9.31c-.12-.78-.1-1.58-.15-2.37s-.12-1.58-.07-2.37a31.61,31.61,0,0,1,1.7-9.32,35.19,35.19,0,0,1,2-4.31,45.63,45.63,0,0,1,5.47-7.76c4.08-4.86,8.68-9.26,12.46-14.37A74,74,0,0,0,213,373.05a84.18,84.18,0,0,0,5.15-18.27c2.06-12.55,1.15-25.34-.12-37.92s-3-25.23-2.5-37.93a92.54,92.54,0,0,1,2.54-18.83,58.6,58.6,0,0,1,7.34-17.47c.44-.66.83-1.36,1.31-2l1.43-1.9a44.39,44.39,0,0,1,3.08-3.63c2.15-2.33,4.48-4.49,6.79-6.66,4.6-4.32,9.31-8.72,12.5-14.22s4.58-11.82,5.63-18c.52-3.12,1-6.26,1.56-9.38.27-1.56.65-3.1,1-4.65s.78-3.08,1.22-4.6c3.54-12.21,9.27-23.64,15.49-34.67,3.11-5.53,6.35-11,9.57-16.45l9.65-16.39,19.31-32.78c1.63-2.68,3.48-5.43,6.28-7a9.65,9.65,0,0,1,4.58-1.19c1.59-.06,3.17.11,4.75.15a12.54,12.54,0,0,0,4.67-.66,14.84,14.84,0,0,0,4.13-2.3,31.92,31.92,0,0,0,6.34-7Z"/><path d="M337.57,443.64a11.44,11.44,0,0,0-6.67,3.28,20.46,20.46,0,0,0-4.25,6.12,37.9,37.9,0,0,0-2.06,7.18c-.28,1.24-.49,2.47-.77,3.75s-.6,2.57-.91,3.82c-.62,2.48-1.21,4.92-1.66,7.3a38.24,38.24,0,0,0-.78,6.76,8.24,8.24,0,0,0,1,4.66c.08.1.14.29.2.32l.18.17a2.8,2.8,0,0,0,.46.3,2.16,2.16,0,0,0,.5.18,1.76,1.76,0,0,0,.48,0,3.85,3.85,0,0,0,1.5-.38,7.85,7.85,0,0,0,.93-.51,11.26,11.26,0,0,0,1-.78,30.73,30.73,0,0,0,4.33-4.76,38.2,38.2,0,0,0,3.64-5.64,48.37,48.37,0,0,0,2.47-6.77c1.52-5,3.49-9.81,5.27-14.53a22.65,22.65,0,0,0,1-3.6,9.13,9.13,0,0,0,0-3.68,3.83,3.83,0,0,0-2.24-2.78A8.28,8.28,0,0,0,337.57,443.64Zm0,0a9.22,9.22,0,0,1,3.76.36c.29.14.56.3.85.45s.49.42.74.63.39.52.56.8.29.59.39.89a10.79,10.79,0,0,1,.41,3.87,38.15,38.15,0,0,1-.46,3.85c-.46,2.54-.86,5-1.13,7.53s-.42,5-.52,7.53a49.63,49.63,0,0,1-.73,8.08,33.68,33.68,0,0,1-3,8,30.06,30.06,0,0,1-5,7.2,14.4,14.4,0,0,1-10,4.68,11.54,11.54,0,0,1-3.28-.42,11.7,11.7,0,0,1-5.47-3.4,10.85,10.85,0,0,1-1-1.31,10.46,10.46,0,0,1-.73-1.34,14.46,14.46,0,0,1-.6-1.34l-.39-1.36-.17-.67-.09-.66-.16-1.31a22.94,22.94,0,0,1,0-2.49c.09-.78.17-1.56.31-2.31,1.18-5.91,3.91-10.47,6.37-15,.61-1.11,1.24-2.21,1.79-3.29l1.7-3.43a59.31,59.31,0,0,1,3.69-6.87,27.24,27.24,0,0,1,5.21-5.7A13.15,13.15,0,0,1,337.57,443.64Z"/></svg>