<svg id="Layer_1" data-name="Layer 1" xmlns="http://www.w3.org/2000/svg" viewBox="0 0 600 600"><title>Zambia</title><path d="M549.61,198.24a13.4,13.4,0,0,1-1.5,3.37,32.09,32.09,0,0,1-2.17,3,25.4,25.4,0,0,0-4,6.16,21.9,21.9,0,0,0-1.11,3.44,19.1,19.1,0,0,0-.39,3.55c-.08,2.4.22,4.83.34,7.33q.06.93.06,1.89a10.63,10.63,0,0,1-.19,2,10.8,10.8,0,0,1-1.54,3.77c-1.44,2.22-3.16,4-4,6a11.41,11.41,0,0,0-.6,6.45,44,44,0,0,0,1.89,6.86c1.38,4.32,4.43,8.21,6.64,13a17.65,17.65,0,0,1,1.87,8.24,14.06,14.06,0,0,1-.27,2.21,6.53,6.53,0,0,1-.27,1.1c-.11.37-.21.74-.34,1.1a10.7,10.7,0,0,1-2.81,4.07,13,13,0,0,1-4.05,2.37,37,37,0,0,1-3.85,1.2c-1.2.33-2.35.63-3.37,1-.53.16-1,.38-1.48.56a12.51,12.51,0,0,0-1.26.65c-3.3,1.92-5.64,5.65-7.38,9.75a37.24,37.24,0,0,0-1.3,26.16,19,19,0,0,0,2.81,5.72c1.21,1.56,3,3.08,4.88,5.1.46.49,1,1.11,1.44,1.67a22.22,22.22,0,0,1,1.45,2c.24.4.46.81.69,1.22.11.22.22.41.33.64s.21.49.3.74l.56,1.5a16.68,16.68,0,0,1,.4,1.76,15.2,15.2,0,0,1,.27,3.87,16.9,16.9,0,0,1-.75,4,16.65,16.65,0,0,1-1.58,3.51c-.31.51-.63,1-1,1.52a5.56,5.56,0,0,1-.5.67l-.5.61a17.79,17.79,0,0,1-2.09,2.2l-1,.92-.53.45c-.17.14-.35.29-.59.47a20.18,20.18,0,0,1-2.87,1.78,19,19,0,0,1-3.06,1.31,24.58,24.58,0,0,1-11.09.78,60.89,60.89,0,0,1-7.89-1.77c-1.15-.31-2.11-.55-3.07-.77S493,363,492,362.9a40.61,40.61,0,0,0-13.28.66,45.93,45.93,0,0,0-13,4.87c-1,.56-2.08,1.16-3.1,1.8s-2,1.27-3.06,1.93l-3.05,2-1.54,1c-.51.33-1,.64-1.65,1a79.2,79.2,0,0,1-14.42,6.5c-4.67,1.66-9.12,3-13.06,4.79a43.8,43.8,0,0,0-5.51,2.85,34.86,34.86,0,0,0-4.64,3.29c-2.7,2.28-4.17,4.68-4.47,6.35a39.71,39.71,0,0,0-.43,5.12l-.08,1.09c0,.36-.05.74-.1,1.18l-.15,1.27-.25,1.44c-.07.46-.2,1-.34,1.54s-.25,1-.46,1.64-.41,1.17-.64,1.74-.56,1.21-.86,1.8a12.87,12.87,0,0,1-1,1.76c-.39.58-.79,1.16-1.23,1.7a21.18,21.18,0,0,1-2.88,2.88c-.5.42-1,.82-1.54,1.21s-1,.63-1.5.94-1.06.64-1.51.85-.93.47-1.4.66a35.23,35.23,0,0,1-10.55,2.65c-1.58.17-3.07.25-4.45.3l-2,0h-2.16c-3.07,0-5.73-.3-8.09-.46a56.45,56.45,0,0,0-6.09-.2,9.91,9.91,0,0,0-3.69.72,4.94,4.94,0,0,0-1,.62,1.71,1.71,0,0,0-.57.64,4.8,4.8,0,0,0-.15.76c-.07.38-.19,1-.34,1.9a40.78,40.78,0,0,1-2.33,8.73c-.17.46-.41,1-.63,1.43a15.93,15.93,0,0,1-.76,1.47c-.29.5-.59,1-.89,1.49l-.93,1.36a29.68,29.68,0,0,1-4,4.54,39.57,39.57,0,0,1-8.07,5.78,59.08,59.08,0,0,1-7.16,3.28c-4.27,1.61-8.79,3.14-13,5.14a53.22,53.22,0,0,0-11.79,7.53c-1.81,1.47-3.63,2.93-5.32,4.54s-3.42,3.17-5,4.87l-1.21,1.27c-.4.43-.68.78-1,1.17-.67.73-1.31,1.64-2,2.46-1.32,1.75-2.64,3.62-4,5.62s-2.77,4.08-4.35,6.26c-.76,1.07-1.62,2.19-2.46,3.27s-1.77,2.21-2.79,3.32a50.17,50.17,0,0,1-6.79,6.47,45.63,45.63,0,0,1-8.78,5.49,36,36,0,0,1-10.12,3.18,33.77,33.77,0,0,1-9.59,0,49.35,49.35,0,0,1-7.91-1.82c-2.38-.78-4.6-1.53-7-2.27a53.46,53.46,0,0,0-14.49-2.6c-2.46-.08-4.93,0-7.42.12l-7.5.2c-2.53.08-5.12.14-7.8.08a77,77,0,0,1-8.29-.52,49.51,49.51,0,0,1-8.77-1.87A46.12,46.12,0,0,1,167,510c-2.57-1.43-4.9-2.88-7-4.14a43.39,43.39,0,0,0-5.87-3.09,16.92,16.92,0,0,0-2.5-.86l-2.41-.49c-.85-.07-1.68-.12-2.48-.21H144.1a21,21,0,0,0-2.71.29,8.38,8.38,0,0,0-1.44.39c-.48.15-1,.33-1.44.53a43.11,43.11,0,0,0-6,3.46c-1,.65-2.13,1.28-3.19,1.92a31.85,31.85,0,0,1-3.38,1.6c-.59.25-1.15.44-1.75.64s-1.25.38-1.88.56l-1.88.52c-.64.18-1.34.3-2,.45-1.35.3-2.67.54-4.17.73-.73.11-1.47.18-2.2.25s-1.49.14-2.29.17l-2.36.07c-.78,0-1.57.05-2.43,0-1.71-.07-3.34-.08-5.11-.23s-3.57-.34-5.41-.6-3.78-.68-5.66-1.06-3.85-1.06-5.74-1.68-3.69-1.42-5.47-2.24a68.22,68.22,0,0,1-10-5.76,82.1,82.1,0,0,1-8.72-6.89c-.68-.6-1.42-1.14-2.06-1.79a17.11,17.11,0,0,1-1.67-2.12l-1.56-2.19c-.5-.73-1-1.48-1.43-2.22l-1.39-2.23-1.25-2.26c-.41-.76-.83-1.5-1.21-2.26L47.14,477A86.29,86.29,0,0,1,41,458.4a97.77,97.77,0,0,1-2-18.15,141,141,0,0,1,.7-16.9c.46-5.43,1.26-10.68,2-15.8s1.71-10.13,2.38-15.07,1.15-9.85,1.41-14.77.36-9.86.54-14.78.35-9.86.39-14.79c0-2.46,0-4.92-.1-7.39l-.1-1.85-.14-1.51c-.12-1-.35-2-.58-3.09a66.4,66.4,0,0,0-1.94-6.54c-.83-2.27-1.76-4.66-2.84-7.23l-.8-2c-.27-.67-.54-1.35-.79-2.07A45.8,45.8,0,0,1,37.56,312c-.46-1.56-.88-3.22-1.22-5a38.3,38.3,0,0,1-.66-5.4,35.1,35.1,0,0,1,1.15-11.51,32.42,32.42,0,0,1,5.89-11.61,33.45,33.45,0,0,1,11.14-8.94,37.67,37.67,0,0,1,12.56-3.76,40.75,40.75,0,0,1,11.57.26,59.21,59.21,0,0,1,8.94,2.36,145.69,145.69,0,0,1,14.6,6.43c2.2,1,4.27,2,6.34,2.84a53.33,53.33,0,0,0,6.06,2l1.49.39,1.64.36c1.06.21,2.08.47,3,.65s1.86.33,2.7.44a22,22,0,0,0,2.25.18,8.54,8.54,0,0,0,1.63-.09,1.39,1.39,0,0,0,.33-.06c.1,0,.21,0,.33-.12a3.48,3.48,0,0,0,.78-.56,12,12,0,0,0,3-4.52,28.31,28.31,0,0,0,1.72-6,23.06,23.06,0,0,0,.33-6,10.4,10.4,0,0,0-.19-1.2,7.14,7.14,0,0,0-.31-1.08,12.47,12.47,0,0,0-1.07-2.37,47.74,47.74,0,0,0-3.74-5.27c-1.5-1.86-3.16-3.84-4.8-6.18a35.06,35.06,0,0,1-2.38-3.9l-.56-1.09-.46-1c-.3-.67-.59-1.35-.86-2a40.1,40.1,0,0,1-2.33-8.85,31.82,31.82,0,0,1,.18-9.77,25.41,25.41,0,0,1,1.38-4.93,16.54,16.54,0,0,1,1-2.41l.62-1.21a9.42,9.42,0,0,1,.71-1.2c.55-.8,1.06-1.6,1.7-2.37s1.35-1.52,2.11-2.22a26.35,26.35,0,0,1,2.52-1.94,25.15,25.15,0,0,1,2.86-1.5,20.67,20.67,0,0,1,6.07-1.56,16.53,16.53,0,0,1,3-.08,21.19,21.19,0,0,1,2.82.29,27.55,27.55,0,0,1,5.13,1.38,32.42,32.42,0,0,1,4.47,2.16l2,1.27,1.89,1.39c1.14.87,2,1.63,2.94,2.36a29.43,29.43,0,0,0,4.83,3.4,11,11,0,0,0,1.06.49c.3.1.53.2.8.28a3.88,3.88,0,0,0,.75.11l.38,0,.41,0a12.07,12.07,0,0,0,4.39-1.62c.91-.54,1.86-1,2.91-1.75s2.09-1.51,3.24-2.42c.6-.47,1.16-.94,1.84-1.44.35-.24.62-.5,1-.77s1-.57,1.57-.84a11.88,11.88,0,0,1,1.69-.77c.61-.22,1.24-.42,1.88-.6.32-.09.65-.18,1-.25l1-.15c.69-.08,1.38-.15,2.08-.19a20.26,20.26,0,0,1,2.06.07,15.8,15.8,0,0,1,2,.27,19.56,19.56,0,0,1,3.68,1.1c.57.22,1.14.47,1.67.73s1,.52,1.47.81a14.76,14.76,0,0,1,2.52,1.88,15,15,0,0,1,1.89,2.13c.53.72,1,1.44,1.49,2.15.88,1.4,1.68,2.77,2.35,4.08s1.28,2.58,1.78,3.79l.73,1.76c.16.4.31.79.45,1.2l.22.63c.08.21.2.41.29.62l.61,1.28c.48.84,1,1.71,1.53,2.56a31.72,31.72,0,0,0,9,8.8,23.24,23.24,0,0,0,5.74,2.73,12.81,12.81,0,0,0,3.08.28,16.71,16.71,0,0,0,3-.44l1.39-.33c.44-.15.86-.33,1.28-.48a9.65,9.65,0,0,0,2.27-1.14,3.41,3.41,0,0,0,.93-.76l.85-.79c.69-.64,1.39-1.4,2.13-2.21a65.87,65.87,0,0,1,5.38-5.48c.56-.49,1.13-1,1.77-1.48s1.32-1,2-1.43,1.51-.91,2.31-1.34,1.62-.78,2.5-1.15c.46-.19.92-.35,1.39-.51l.7-.24.76-.22c.52-.13,1-.29,1.56-.4s1.14-.2,1.71-.29l.87-.12.94-.08c.65,0,1.26-.07,1.93-.06s1.38.06,2.07.12a21.19,21.19,0,0,1,2.16.31,20.16,20.16,0,0,1,8.29,3.76,18.49,18.49,0,0,1,5.08,6,20.31,20.31,0,0,1,1.94,5.69,32.84,32.84,0,0,1,.54,4.84,38,38,0,0,0,.89,7.7,20.61,20.61,0,0,0,1.09,3,15.44,15.44,0,0,0,1.29,2.47,14.33,14.33,0,0,0,3.5,3.8,14.62,14.62,0,0,0,4.81,2c1.9.52,4.34.85,6.91,1.38a48.44,48.44,0,0,1,16.18,6,52.47,52.47,0,0,1,13.31,11.21,28.69,28.69,0,0,1,2.45,3.58c.78,1.22,1.38,2.47,2.06,3.7s1.23,2.47,1.77,3.65,1,2.4,1.47,3.52l1.35,3.24c.43,1,.86,2,1.29,2.79a12.71,12.71,0,0,0,2.95,4.12,5,5,0,0,0,1,.76,4.84,4.84,0,0,0,1.09.7c.41.2.81.43,1.23.6a10.52,10.52,0,0,0,1.4.29,28.8,28.8,0,0,0,6.15.58,37.65,37.65,0,0,0,6.62-.64c1.07-.21,2.46-.47,3.58-.71a16.26,16.26,0,0,0,3-.91,7.13,7.13,0,0,0,1.93-1.15l.27-.27a1.25,1.25,0,0,1,.21-.24c.06-.07.19-.1.21-.2a1.67,1.67,0,0,0,0-.32c0-.14.08-.64,0-1a6.25,6.25,0,0,0-.15-.95c-.17-.66-.37-1.75-.56-3-.09-.63-.17-1.3-.23-2l-.05-2.25a24.56,24.56,0,0,1,.59-4.62,26.16,26.16,0,0,1,3.54-8.28c.7-1,1.22-1.79,1.62-2.33a5,5,0,0,0,.85-1.44,4.62,4.62,0,0,0,.23-.94c0-.43,0-.95,0-1.42A23.64,23.64,0,0,0,381,273a10.2,10.2,0,0,0-1-3.8,2.55,2.55,0,0,0-.4-.47c-.06-.09-.2-.13-.31-.18s-.24-.17-.33-.16a1.77,1.77,0,0,0-1.38,0,6.29,6.29,0,0,0-2,1.26c-.76.61-1.6,1.42-2.53,2.26a36.07,36.07,0,0,1-3.17,2.76l-1,.72-1.1.7c-.36.23-.81.43-1.23.64a11.39,11.39,0,0,1-1.23.53c-.75.27-1.5.54-2.26.79l-2.32.56a30.07,30.07,0,0,1-4.7.6,38.4,38.4,0,0,1-9.19-.74,47.09,47.09,0,0,1-8.56-2.61,41,41,0,0,1-8-4.43,39.74,39.74,0,0,1-12.48-14.18,30.3,30.3,0,0,1-2-4.91c-.14-.49-.28-1-.41-1.47l-.18-.83c-.05-.24-.13-.62-.14-.74l-.33-2.06A65.9,65.9,0,0,1,314,239a128.63,128.63,0,0,1,1-16.09c.66-5.24,1.47-10.36,2.58-15.35s2.36-9.86,3.57-14.67l.92-3.64c.19-.72.38-1.46.58-2.16l.65-2c.89-2.64,1.82-5,2.65-7.25a43.87,43.87,0,0,0,1.85-6.2,10.23,10.23,0,0,0-.09-5,4.2,4.2,0,0,0-.37-1,5.7,5.7,0,0,0-.5-.9l-.29-.43c-.09-.14-.18-.28-.33-.48-.25-.36-.54-.72-.83-1.09-1.16-1.47-2.63-3-4.18-4.83s-3.33-3.8-5.2-6.22a34.1,34.1,0,0,1-5-8.76,23.9,23.9,0,0,1-1.38-5.67,22,22,0,0,1,.23-6.49,20.64,20.64,0,0,1,2.24-6.34,20.11,20.11,0,0,1,3.83-4.89,21.29,21.29,0,0,1,4.6-3.24,20,20,0,0,1,2.41-1.11c.4-.16.81-.3,1.21-.45l1.13-.34c3-.89,6-1.29,7.93-1.84s2.95-1.11,3.75-2.53,1.13-3.46,1.4-6a26.13,26.13,0,0,1,2.24-9A16.62,16.62,0,0,1,347,88.06c.46-.27.94-.5,1.41-.73.23-.12.49-.25.71-.34l.61-.23a32.18,32.18,0,0,1,9.64-2,55.69,55.69,0,0,1,8.36.15c2.56.2,4.93.41,7.08.54,1.08.08,2.09.11,3.06.11l3.72,0,14.93,0c5,0,9.94,0,14.9-.07l3.72-.09c1.26,0,2.57,0,3.92,0a36,36,0,0,1,8.56,1.14,21,21,0,0,1,4.48,1.81l1.08.66,1,.74c.62.51,1.25,1,1.79,1.55,2.24,2.14,3.86,4.36,5.36,5.78a6.73,6.73,0,0,0,2.05,1.43,3.46,3.46,0,0,0,1.75.3,5.48,5.48,0,0,0,1-.08c.35,0,.87-.09,1.32-.16,1-.13,2-.36,3.21-.55s2.52-.38,4-.49a22.25,22.25,0,0,1,4.89.19,16.11,16.11,0,0,1,2.61.53,17.73,17.73,0,0,1,2.6.89,21,21,0,0,1,2.46,1.25,15.75,15.75,0,0,1,2.23,1.55,26,26,0,0,1,6.12,7.12c.34.58.68,1.13,1,1.71l.85,1.64,1.58,3a22.74,22.74,0,0,0,3.41,5,19.77,19.77,0,0,0,5.38,3.77c4.2,2.11,9.19,3.21,13.89,5.14a75.84,75.84,0,0,1,25.14,16,82.74,82.74,0,0,1,17,24.18,73.82,73.82,0,0,1,4.7,14,72.15,72.15,0,0,1,1.27,7.29,30.53,30.53,0,0,1,.27,3.69A20.75,20.75,0,0,1,549.61,198.24Zm-.11,0a9.78,9.78,0,0,0,.37-3.65,28.29,28.29,0,0,0-.4-3.65,73,73,0,0,0-1.5-7.2A74,74,0,0,0,542.84,170a84.78,84.78,0,0,0-17.39-23.18,70.52,70.52,0,0,0-11.54-8.75,65.34,65.34,0,0,0-13.1-6.18c-1.14-.37-2.31-.71-3.46-1.06s-2.36-.62-3.55-.91c-2.38-.63-4.8-1.24-7.18-2a27.19,27.19,0,0,1-6.82-3.3,25.35,25.35,0,0,1-5.4-5.24c-1.56-1.94-2.87-4-4.35-6A24.62,24.62,0,0,0,465,108a15,15,0,0,0-6.76-2.77,29.62,29.62,0,0,0-7.35-.07,25.13,25.13,0,0,1-7.48-.27,12.17,12.17,0,0,1-6.33-4.17,63.88,63.88,0,0,0-4.8-5.5,13.3,13.3,0,0,0-2.8-2.08,14.33,14.33,0,0,0-3.26-1.27,26.87,26.87,0,0,0-7.13-.71c-2.43,0-4.89.21-7.35.38l-14.74,1-14.74,1-3.69.24c-1.25.09-2.5.14-3.75.13-2.49,0-4.95-.16-7.41-.26-4.88-.21-9.86-.22-14.37,1.52a11,11,0,0,0-5.5,4.31,30.67,30.67,0,0,0-3,6.63,31.61,31.61,0,0,1-3,6.77,14,14,0,0,1-5.55,4.84c-2.2,1.14-4.46,2.11-6.55,3.41a20.74,20.74,0,0,0-5.55,4.75,14,14,0,0,0-3,6.57,16,16,0,0,0,.62,7.24c1.4,4.74,4.39,8.77,7.26,12.75a61.47,61.47,0,0,1,4,6.2,19.25,19.25,0,0,1,2.38,7,22.15,22.15,0,0,1-.4,7.35,58.18,58.18,0,0,1-2,7.1c-.79,2.33-1.64,4.65-2.33,7a68.33,68.33,0,0,0-1.59,7.22c-.92,4.84-1.81,9.69-2.57,14.56a137.73,137.73,0,0,0-1.84,29.45c.08,1.23.16,2.46.31,3.69s.26,2.45.46,3.66a23.5,23.5,0,0,0,.7,3.63,26.67,26.67,0,0,0,1.35,3.44,35.35,35.35,0,0,0,9.05,11.55,38.53,38.53,0,0,0,12.85,7.12c4.66,1.51,9.81,2,14.54.53S371.32,265.8,376,264a7.48,7.48,0,0,1,7,1,11.7,11.7,0,0,1,3.87,6.14,23.48,23.48,0,0,1,.79,3.61,18.25,18.25,0,0,1,.21,3.69,16.81,16.81,0,0,1-2.27,7,34.69,34.69,0,0,0-2.76,6.85,39,39,0,0,0-1.14,7.29,34.63,34.63,0,0,1-.42,3.67,11.24,11.24,0,0,1-1.29,3.45,8.11,8.11,0,0,1-2.52,2.66,13.68,13.68,0,0,1-3.34,1.54c-2.36.75-4.8,1.12-7.21,1.65a50,50,0,0,1-7.32.92,32.5,32.5,0,0,1-7.37-.42,20.37,20.37,0,0,1-6.87-2.59,18.72,18.72,0,0,1-5.29-5.09,58,58,0,0,1-3.89-6.28c-1.2-2.16-2.42-4.3-3.73-6.39a55.16,55.16,0,0,0-4.35-6,50.73,50.73,0,0,0-11-9.79l-1.56-1-1.62-.89a36.46,36.46,0,0,0-3.33-1.61,54.78,54.78,0,0,0-7-2.38c-2.36-.68-4.77-1.22-7.11-2a24.62,24.62,0,0,1-6.59-3.28l-1.43-1.16c-.49-.39-.87-.87-1.32-1.3a26.74,26.74,0,0,1-2.35-2.85,35.36,35.36,0,0,1-3.53-6.48c-1-2.25-1.89-4.55-2.89-6.8a29.62,29.62,0,0,0-3.64-6.41,10.2,10.2,0,0,0-6.1-3.88,15.15,15.15,0,0,0-7.28.69c-4.75,1.46-8.84,4.34-13.13,6.73-1.08.6-2.17,1.17-3.29,1.67-.57.24-1.16.43-1.74.65a10.8,10.8,0,0,1-1.75.56,22.51,22.51,0,0,1-3.64.62L236,248l-1.85-.06a26.81,26.81,0,0,1-3.68-.36c-1.21-.17-2.4-.51-3.61-.76s-2.36-.71-3.51-1.15l-1.72-.69-.86-.34-.83-.41A48.68,48.68,0,0,1,207.71,236c-.89-.85-1.75-1.74-2.59-2.64a35.5,35.5,0,0,1-2.31-2.88l-1.06-1.51-1-1.56c-.66-1-1.34-2.07-2-3.08a32.59,32.59,0,0,0-4.78-5.63,12.33,12.33,0,0,0-6.47-3.32,9,9,0,0,0-3.65.34l-.88.27c-.29.11-.57.24-.85.36-.57.23-1.12.51-1.68.77-2.21,1.1-4.34,2.35-6.55,3.44a20.18,20.18,0,0,1-7,2.19,13,13,0,0,1-3.68-.19c-.6-.13-1.19-.32-1.78-.49s-1.15-.44-1.71-.7a36.85,36.85,0,0,1-6.29-3.86,51.33,51.33,0,0,0-6.14-4.11,21.84,21.84,0,0,0-7-2.35,13.37,13.37,0,0,0-7.24.82,12.25,12.25,0,0,0-5.5,4.77,14.85,14.85,0,0,0-.91,1.61,10.12,10.12,0,0,0-.75,1.68,19.94,19.94,0,0,0-1.1,3.52A28.12,28.12,0,0,0,125.92,238a29.26,29.26,0,0,0,3.12,6.68c1.3,2.09,2.77,4.07,4.2,6.08a51.34,51.34,0,0,1,4,6.24,18.17,18.17,0,0,1,2.06,7,33.09,33.09,0,0,1-.43,7.37,41,41,0,0,1-1.84,7.15,25.22,25.22,0,0,1-3.38,6.54,11.74,11.74,0,0,1-5.86,4.3,24.86,24.86,0,0,1-7.26,1.25,67.53,67.53,0,0,1-7.39-.18c-9.86-.76-19.3-3.93-29-5.61-4.84-.79-9.81-1.44-14.7-.62a24,24,0,0,0-7,2.22,20,20,0,0,0-5.83,4.47,26.78,26.78,0,0,0-6,13.28,44.31,44.31,0,0,0,.34,14.71c.78,4.86,1.92,9.67,2.45,14.58a52,52,0,0,1,.25,7.38l-.11,7.39L53,377.82c-.11,9.85-.39,19.71-.27,29.57a154.19,154.19,0,0,0,2.8,29.39,86.12,86.12,0,0,0,4.2,14.15A70.38,70.38,0,0,0,66.56,464c5.47,8.17,12.85,15.24,21.83,19.38,1.11.52,2.28.94,3.41,1.41s2.36.73,3.53,1.1l3.61.79c1.22.2,2.44.34,3.66.51a99.61,99.61,0,0,0,14.76.26c4.93-.21,9.85-.56,14.78-.65a67.75,67.75,0,0,1,14.71,1.09,35.61,35.61,0,0,1,13.54,5.71c4.07,2.79,7.66,6.2,11.72,9a33.58,33.58,0,0,0,13.55,5.6,81.5,81.5,0,0,0,14.72,1.07c9.86.05,19.71-.42,29.57-.23,4.93.05,9.85.53,14.77.58a44.24,44.24,0,0,0,7.37-.49,30.68,30.68,0,0,0,7.08-2,38,38,0,0,0,11.93-8.55,144.66,144.66,0,0,0,9.6-11.23c6-7.87,13.44-14.44,21.07-20.66A187.64,187.64,0,0,1,326.2,450c4.28-2.42,8.7-4.7,12.41-8a18.9,18.9,0,0,0,4.54-5.75,60.38,60.38,0,0,0,2.64-6.89,26.28,26.28,0,0,1,1.48-3.4,15.82,15.82,0,0,1,2.14-3,16.86,16.86,0,0,1,6.13-4.06,23.45,23.45,0,0,1,7.23-1.42,67.42,67.42,0,0,1,7.39.13c2.46.14,4.92.32,7.39.32s4.92-.1,7.37-.35a25.1,25.1,0,0,0,7.15-1.73,10.69,10.69,0,0,0,5.47-4.68,18,18,0,0,0,1.67-7.13,36.91,36.91,0,0,1,1-7.31c1.39-4.79,4.77-8.73,8.63-11.75a55.18,55.18,0,0,1,12.85-7.25c4.55-1.91,9.26-3.39,13.95-4.91a143,143,0,0,0,13.89-5c4.49-2,9-4,13.59-5.81,9.16-3.56,18.82-6.3,28.72-6.39,1.24-.05,2.47.05,3.7.07s2.46.2,3.68.37c2.45.32,4.88.71,7.34.85a18.2,18.2,0,0,0,7.26-.85,12,12,0,0,0,3.2-1.78,18.11,18.11,0,0,0,2.62-2.56,8.82,8.82,0,0,0,1.06-1.5,8,8,0,0,0,.76-1.65,3.94,3.94,0,0,0,.23-.88c0-.3.14-.6.16-.9a9.31,9.31,0,0,0,0-1.83,19.36,19.36,0,0,0-2.64-6.82c-1.2-2.15-2.49-4.26-3.49-6.52a41,41,0,0,1-2.3-7,46,46,0,0,1,2.88-28.95A30.78,30.78,0,0,1,520,289.3a17.42,17.42,0,0,1,5.57-4.82,27.07,27.07,0,0,1,7-2.24,33.32,33.32,0,0,0,3.56-.95,9.79,9.79,0,0,0,3.23-1.73,8.08,8.08,0,0,0,2.14-2.93,12.45,12.45,0,0,0,.82-3.57,15.39,15.39,0,0,0-1.46-7.14c-1.91-4.53-4.9-8.58-6.29-13.36a44.24,44.24,0,0,1-1.71-7.19,12.78,12.78,0,0,1,1-7.25c1.06-2.26,2.91-4,4.29-6a9.63,9.63,0,0,0,1.48-3.34,15,15,0,0,0,.22-3.67c-.05-2.46-.28-4.93-.12-7.39a17.25,17.25,0,0,1,.58-3.65,21.24,21.24,0,0,1,1.34-3.45,31.62,31.62,0,0,1,4.26-6A16.26,16.26,0,0,0,549.5,198.21Z"/></svg>