<svg id="Layer_1" data-name="Layer 1" xmlns="http://www.w3.org/2000/svg" viewBox="0 0 600 600"><title>Uganda</title><path d="M210.18,86.47a86.61,86.61,0,0,0,28.1-3.62c4.39-1.56,8.56-3.93,13.19-5.58a23.58,23.58,0,0,1,7.45-1.52A13.55,13.55,0,0,1,266.59,78a23.41,23.41,0,0,1,5.57,5.38c1.54,2,2.87,4,4.21,5.93a33.79,33.79,0,0,0,4.2,5.19,9.12,9.12,0,0,0,4.85,2.6,10.92,10.92,0,0,0,5.48-.85,24.44,24.44,0,0,0,5.45-3.18c1.8-1.32,3.59-2.82,5.54-4.35.49-.37,1-.76,1.5-1.13L305,86.51l1.62-1.09c.55-.35,1.13-.64,1.7-1A55.83,55.83,0,0,1,322.72,79c4.92-1.19,9.79-1.89,14.47-2.63a102.38,102.38,0,0,0,13.32-2.76c1-.34,2.06-.64,3.05-1s2-.78,2.92-1.19L359.26,70l2.13-1c.77-.29,1.53-.59,2.33-.82a22.36,22.36,0,0,1,9.94-.54,34.23,34.23,0,0,1,8.47,2.72c5,2.27,9,4.79,12.81,6.48s7.19,2.55,10.21,2.29a13.69,13.69,0,0,0,2.28-.36,8,8,0,0,0,1.13-.32l.58-.17.66-.26a27,27,0,0,0,2.62-1.11A23,23,0,0,0,415,75.56c6.78-3.87,12.89-10.19,19.55-17.06,3.34-3.44,6.86-7,10.9-10.54.52-.42,1-.87,1.56-1.29s1-.81,1.69-1.25l1.87-1.3,2.11-1.26a27.6,27.6,0,0,1,5.2-2.3l.75-.25.89-.21c.59-.13,1.19-.25,1.79-.36s1.38-.13,2.07-.16l1,0c.35,0,.77,0,1.16.09a23,23,0,0,1,2.33.37,24,24,0,0,1,2.35.78,13.94,13.94,0,0,1,2.15,1.08q.53.3,1,.63l.86.66a18.66,18.66,0,0,1,1.58,1.4c.44.46.87.93,1.28,1.41s.68.9,1,1.36.64.92.87,1.32a42.4,42.4,0,0,1,3.78,8.79c.82,2.56,1.46,4.89,2.11,7a52.42,52.42,0,0,0,2,5.63,11.69,11.69,0,0,0,1.78,3l.06.09.05,0a.19.19,0,0,1,.07.08s0,0,0,0h0s0,0,.11.08a22.14,22.14,0,0,0,2.13,1c1.72.73,4,1.43,6.78,2.58a34.28,34.28,0,0,1,4.49,2.22c.79.43,1.63,1,2.42,1.58a29.73,29.73,0,0,1,2.39,2,22,22,0,0,1,4.11,5.38,22.64,22.64,0,0,1,2.27,6.31,32.08,32.08,0,0,1,.12,10.73c-.43,3-1,5.61-1.57,8s-1,4.44-1.25,6.24a17.64,17.64,0,0,0-.15,2.36,8.36,8.36,0,0,0,.05.92,5.32,5.32,0,0,0,.15.65,8,8,0,0,0,1.4,2.52,31.23,31.23,0,0,0,3.36,3.55l5.12,4.57c1,.88,2,1.87,3,2.88l3,3c1,1,1.88,2.09,2.83,3.15s1.89,2.12,2.82,3.21c1.67,2.24,3.55,4.45,5.16,6.78l2.39,3.52,1.19,1.79,1.08,1.81c1.44,2.43,2.93,4.88,4.16,7.38.65,1.25,1.28,2.51,1.9,3.78l1.69,3.81c.55,1.27,1.14,2.56,1.64,3.84s1,2.57,1.43,3.86c1,2.6,1.7,5.18,2.49,7.78a138.77,138.77,0,0,1,4.9,30.88,89.2,89.2,0,0,1-.78,14.93l-.55,3.67-.67,3.69c-.5,2.44-1.06,5-1.6,7.48-1.1,5-2.44,10.17-3.56,15.31-.33,1.3-.59,2.59-.85,3.88s-.62,2.61-.87,3.91l-1.65,7.88-.82,4c-.32,1.34-.59,2.69-.89,4s-.7,2.71-1.05,4.07c-.19.68-.35,1.35-.57,2l-.67,2a81.2,81.2,0,0,1-7,16.15c-.38.65-.71,1.33-1.13,2l-1.23,1.92c-.82,1.27-1.62,2.59-2.55,3.78s-1.82,2.45-2.77,3.56-1.87,2.31-2.82,3.35-1.92,2.15-2.88,3.12-1.91,2-2.85,3-1.9,1.91-2.81,2.79l-2.72,2.68c-3.55,3.5-6.85,6.7-9.54,9.75a45.32,45.32,0,0,0-6.14,8.49,55.34,55.34,0,0,0-3.33,8.39c-.93,3.07-1.69,6.35-2.64,10.73l-.82,3.51c-.27,1.16-.68,2.67-1,4.07-.16.66-.47,1.54-.72,2.32s-.5,1.57-.83,2.45l-1.08,2.73c-.2.47-.34.87-.6,1.39l-.74,1.51c-.53,1-1,2-1.61,3s-1.34,2.12-2.1,3.12a19,19,0,0,1-2.7,2.86,19.78,19.78,0,0,1-3.19,2.41,23.24,23.24,0,0,1-7.3,2.89,31.17,31.17,0,0,1-3.62.66l-3.24.13c-1.06,0-2,.12-3.08.12s-2.05,0-3,.13c-.49,0-1,.08-1.44.14s-1,.05-1.44.09c-1,.08-1.89.2-2.83.31s-1.85.09-2.77.12-1.85.05-2.72,0a43.72,43.72,0,0,1-5.14-.49,116.77,116.77,0,0,1-16.59-4.07l-3.36-.92-1.6-.43c-.51-.13-1-.25-1.51-.35a49.26,49.26,0,0,0-5.54-.91c-.83-.06-1.58-.1-2.42-.13s-1.79.07-2.68.07a16.58,16.58,0,0,0-2.64.2l-1.31.13-.66.05-.66.12-2.62.43-2.64.66a26.24,26.24,0,0,0-2.69.79c-.89.29-1.79.55-2.72.95a108.21,108.21,0,0,0-11.59,5.28c-8.12,4.09-17.42,9.43-28.44,12.73a70.68,70.68,0,0,1-17.47,3.05,55.88,55.88,0,0,1-9.42-.4c-3.12-.38-5.93-1-8.32-1.55l-3.27-.74-1.4-.3c-.47-.11-.85-.15-1.29-.24a24.92,24.92,0,0,0-4.74-.39c-.4,0-.79,0-1.21,0s-.83.08-1.24.1l-.63,0-.59.08-1.17.15a30.21,30.21,0,0,0-4.69,1.21,33.28,33.28,0,0,0-8.16,4.28,24.38,24.38,0,0,0-3,2.6,14.16,14.16,0,0,0-2.1,2.91l-.33.84-.19.44-.12.49a11,11,0,0,0-.36,2.38,48.34,48.34,0,0,0,.21,6.58c.18,2.53.34,5.39.33,8.65,0,.82-.05,1.69-.09,2.54s-.13,1.77-.31,2.69a25.62,25.62,0,0,1-1.55,5.52,41.88,41.88,0,0,1-5.05,8.35,28.36,28.36,0,0,0-3.21,5.06,24.27,24.27,0,0,0-1.7,6.42c-.1.73-.14,1.46-.17,2.19s0,1.45.06,2.16c0,.18,0,.35.06.53l0,.26c0,.11,0,.16,0,.14a.15.15,0,0,1,.05.07c0,.09.07.18.1.27l.8,2.41a43.59,43.59,0,0,1,1.28,4.55,23.23,23.23,0,0,1,.4,7.58,20,20,0,0,1-1.16,4.78c-.32.79-.68,1.58-1.06,2.34s-.84,1.4-1.29,2.08a16.13,16.13,0,0,1-1.42,1.8,19.24,19.24,0,0,1-1.52,1.6c-.52.48-1.09,1-1.62,1.4s-1.07.8-1.6,1.16a31.05,31.05,0,0,1-5.82,3,50.27,50.27,0,0,1-9.7,2.62c-3,.51-5.77.84-8.49,1.06-5.42.43-10.6.52-15.49.56l-3.53,0-1.58,0-1.68.07-6.91.31c-4.69.23-9.51.54-14.51.68s-10.19.12-15.53-.13c-2.68-.13-5.39-.35-8.14-.69l-2.05-.24-1.46-.14c-1-.1-1.95-.22-2.89-.26a64.68,64.68,0,0,0-10.89,0,36.52,36.52,0,0,0-8.93,2,20.25,20.25,0,0,0-6.29,3.56c-.22.19-.44.36-.67.53s-.39.43-.59.63a9.31,9.31,0,0,0-1.18,1.31c-.18.25-.37.49-.56.73a4.92,4.92,0,0,0-.57.75,6.48,6.48,0,0,1-1.43,1.5,36.59,36.59,0,0,1-6.2,5.75,87.83,87.83,0,0,1-8.44,5.47,81,81,0,0,1-10,5.1c-1,.36-2,.73-3,1a22.93,22.93,0,0,1-3.17.66,16.83,16.83,0,0,1-3.2.21l-1.64-.06c-.53-.06-1.06-.16-1.6-.24s-1.08-.18-1.57-.32l-1.46-.45A25.18,25.18,0,0,1,94,556.19c-.86-.37-1.52-.77-2.28-1.17l-2-1.15a31.76,31.76,0,0,0-5.91-3.16c-1.6-.53-2.59-.38-3.15,0,.18.2-1.7.3-3,.46-1.42.1-2.82.18-4.42.15-.75,0-1.62-.07-2.49-.15-.44,0-.84-.07-1.32-.14s-1-.18-1.44-.28a14,14,0,0,1-1.48-.34L65,549.9l-.8-.27c-.27-.1-.57-.25-.85-.38-.58-.27-1.15-.55-1.72-.84a18.79,18.79,0,0,1-1.74-1.08c-.57-.4-1.15-.78-1.69-1.24a23.16,23.16,0,0,1-3-3.08c-.42-.55-.84-1.11-1.23-1.68a17.85,17.85,0,0,1-1-1.66c-.29-.56-.61-1.15-.84-1.69l-.6-1.56c-.19-.51-.41-1.09-.54-1.55s-.26-1-.37-1.43-.24-1-.33-1.42l-.21-1.29c-.31-1.79-.39-3.28-.52-4.86l0-2.19v-2c0-1.21,0-2.43.07-3.66a138.2,138.2,0,0,1,4-30.34,99.43,99.43,0,0,1,5.12-15.16,79,79,0,0,1,3.52-7.31,80.37,80.37,0,0,1,4.37-7,62.18,62.18,0,0,1,5.28-6.45c1-1,2-2,3-2.95s2.2-2,3.26-2.79c2.12-1.72,4-3,5.37-4.33A10.5,10.5,0,0,0,85,440a4.14,4.14,0,0,0,.58-1.31,3.4,3.4,0,0,0,0-1.11,4.93,4.93,0,0,0-.08-.68,4.58,4.58,0,0,0-.17-.58,4.73,4.73,0,0,0-.47-.72,9.81,9.81,0,0,0-.87-.88,32.6,32.6,0,0,0-4.12-3,67.21,67.21,0,0,1-6.65-4.86,24.45,24.45,0,0,1-3.81-4.12,18.8,18.8,0,0,1-3-6,19.3,19.3,0,0,1-.77-6.54,24.83,24.83,0,0,1,.91-5.6,36.32,36.32,0,0,1,3.79-8.68,68.48,68.48,0,0,1,4.68-6.82c3.11-4,5.9-7.39,7.6-10.46.19-.37.41-.75.59-1.12l.49-1.09a25.19,25.19,0,0,0,.81-2.41,38.86,38.86,0,0,0,1.11-5.73c.57-4.19.76-9.09,1.66-14.51a82,82,0,0,1,21.31-42.73l1.42-1.44,1.38-1.38,2.7-2.58c1.89-1.76,3.87-3.51,6.09-5.23a39.14,39.14,0,0,1,8-5,22.68,22.68,0,0,1,3-1,16.63,16.63,0,0,1,4-.6,15.08,15.08,0,0,1,2.53.15c.46.08.92.17,1.38.28s.73.23,1.1.36a19.48,19.48,0,0,1,2.11.87c.68.38,1.35.79,2,1.23a17.31,17.31,0,0,1,5.05,6,12.8,12.8,0,0,1,.66,1.36c.19.43.41.91.55,1.3.29.78.6,1.61.79,2.29.87,2.85,1.37,5.15,1.89,6.58a7.25,7.25,0,0,0,.55,1.28s-.11-.1.13.13.34.32.49.5a8.8,8.8,0,0,0,1.23.89,9.28,9.28,0,0,0,1.47.66,10.07,10.07,0,0,0,1.59.35,8.62,8.62,0,0,0,1.52,0,4.8,4.8,0,0,0,1.33-.33,8.27,8.27,0,0,0,1.28-.58,16.29,16.29,0,0,0,3-2.84,43.07,43.07,0,0,0,3.25-4.68c1.08-1.79,2.13-3.72,3.23-5.8s2.22-4.24,3.5-6.52l1-1.73,1.13-1.79c.35-.58.84-1.22,1.27-1.83L180,291l.68-.84a58.78,58.78,0,0,1,5.7-6.12c7.84-7.38,16.2-12.12,21.7-18a56.75,56.75,0,0,0,7.7-9.94A40.55,40.55,0,0,0,220.57,245a23.42,23.42,0,0,0,.31-11,18.74,18.74,0,0,0-5.4-9.26,34,34,0,0,0-10.4-6.43c-2-.85-4.12-1.61-6.3-2.32s-4.41-1.35-6.73-2a105.83,105.83,0,0,1-14.1-5,46.59,46.59,0,0,1-6.86-3.85,39,39,0,0,1-3.19-2.44c-.5-.46-1-.89-1.49-1.38L165,199.71a26.78,26.78,0,0,1-6.29-15,20.26,20.26,0,0,1,1-8.35,13.49,13.49,0,0,1,.85-2,16.86,16.86,0,0,1,2.45-3.58,16.79,16.79,0,0,1,1.48-1.46c3.72-3.39,8.19-5.78,8.62-9a11.17,11.17,0,0,0-1-5.83,42,42,0,0,0-3.14-6.09,53.22,53.22,0,0,1-3.47-6.49,17.43,17.43,0,0,1-1.16-3.69,18.57,18.57,0,0,1-.26-3.85c.25-5.12,2.26-9.69,4.5-13.93s4.95-8.22,7.43-12.28c.63-1,1.25-2,1.85-3.06S179,103,179.6,102A29.25,29.25,0,0,1,184,96.29a31.53,31.53,0,0,1,5.61-4.48,35.85,35.85,0,0,1,6.45-3.12A40.54,40.54,0,0,1,203,86.94,53.29,53.29,0,0,1,210.18,86.47Zm0,.08a19.39,19.39,0,0,0-3.57.19c-1.18.09-2.35.3-3.52.48a40.48,40.48,0,0,0-6.8,2,35.52,35.52,0,0,0-6.22,3.29A30.7,30.7,0,0,0,184.78,97a29.28,29.28,0,0,0-4.07,5.59l-.83,1.53c-.27.54-.56,1.08-.84,1.61-.58,1.06-1.16,2.11-1.76,3.15-2.3,4.19-4.95,8.13-7,12.34s-3.78,8.6-3.85,13.08a13.92,13.92,0,0,0,1.39,6.43,51.65,51.65,0,0,0,3.49,6.06,45.35,45.35,0,0,1,3.55,6.39,14.55,14.55,0,0,1,1.47,7.48,8.83,8.83,0,0,1-1.42,3.74,16.16,16.16,0,0,1-2.52,2.85c-1.81,1.67-3.69,3.1-5.38,4.71a12.87,12.87,0,0,0-3.58,5.55,16,16,0,0,0-.63,6.69,22.47,22.47,0,0,0,5.56,12.37,33.7,33.7,0,0,0,11.55,7.69,100.33,100.33,0,0,0,13.51,4.34,126.28,126.28,0,0,1,13.75,4.15,40.26,40.26,0,0,1,12.48,7.2,25.4,25.4,0,0,1,7.69,12.12,30,30,0,0,1,.23,14.33,47.65,47.65,0,0,1-5.18,13.36A63.86,63.86,0,0,1,214,271.42a85.47,85.47,0,0,1-10.59,9.63c-3.7,3-7.44,6-10.85,9.31a52.25,52.25,0,0,0-4.76,5.31,44.31,44.31,0,0,0-3.83,6c-2.29,4.18-4.29,8.52-6.71,12.63a50.43,50.43,0,0,1-4,5.92,25.56,25.56,0,0,1-5.22,4.85,17.58,17.58,0,0,1-3.21,1.55,13.85,13.85,0,0,1-3.47.84,17.74,17.74,0,0,1-3.57,0,19,19,0,0,1-3.49-.73,20.35,20.35,0,0,1-3.28-1.43,18.49,18.49,0,0,1-2.9-2.08,14.31,14.31,0,0,1-2.34-2.69,15.87,15.87,0,0,1-1.47-3.25c-.77-2.25-1.25-4.6-1.95-6.88a18.94,18.94,0,0,0-1.31-3.32,7.83,7.83,0,0,0-2.24-2.74l-.75-.48c-.27-.13-.56-.22-.84-.33a4.12,4.12,0,0,0-1.74-.29,9.58,9.58,0,0,0-3.45.86,30.54,30.54,0,0,0-6.07,3.75,109.55,109.55,0,0,0-10.59,9.61,72.35,72.35,0,0,0-15.26,24,67.15,67.15,0,0,0-3.75,13.77c-.79,4.71-1,9.49-1.57,14.22a36.48,36.48,0,0,1-4,13.63c-2.32,4.18-5.43,7.84-8.32,11.62s-5.6,7.81-6.92,12.42a12.72,12.72,0,0,0-.21,7.05,12.41,12.41,0,0,0,4,5.81c3.58,3.14,8,5.22,11.28,8.75a14.46,14.46,0,0,1,2.06,2.91,12,12,0,0,1,1.08,3.4,12.6,12.6,0,0,1-.93,7,13.87,13.87,0,0,1-1.94,3,24.17,24.17,0,0,1-2.57,2.49c-1.83,1.53-3.81,2.86-5.69,4.33a42.69,42.69,0,0,0-9.48,10.62,57.73,57.73,0,0,0-6.07,12.92,80.57,80.57,0,0,0-3.31,13.9,168,168,0,0,0-1.4,28.54c.13,4.74,0,9.61,1.52,14.15a10,10,0,0,0,4.3,5.52A18.33,18.33,0,0,0,75,539.57c1.18.18,2.36.27,3.55.38s2.38.11,3.57.27a17.07,17.07,0,0,1,6.62,2.55c2,1.25,3.89,2.75,5.85,4.11a16.09,16.09,0,0,0,6.44,3,10.87,10.87,0,0,0,6.91-1.23,19.94,19.94,0,0,0,5.34-4.69c3-3.68,5.26-7.95,7.46-12.17a39.15,39.15,0,0,1,8.74-11.22,38.07,38.07,0,0,1,12.28-7.15c9-3.24,18.81-3.56,28.25-2.5,4.74.54,9.43,1.46,14.18,1.85s9.52.66,14.28.78c9.54.23,19.08.07,28.6.66,4.76.25,9.53.44,14.3.32a49.14,49.14,0,0,0,14.11-2,11.63,11.63,0,0,0,5.85-3.9,8.47,8.47,0,0,0,1.18-6.83c-.42-2.35-1.24-4.6-1.68-6.95a25,25,0,0,1-.06-7.13,29.66,29.66,0,0,1,5-13.25c2.72-3.91,6.64-6.92,8.75-11.26a16.77,16.77,0,0,0,1.51-6.94,43.52,43.52,0,0,0-.65-7.11c-.74-4.68-1.71-9.48-.76-14.2a23.84,23.84,0,0,1,2.52-6.66,27.23,27.23,0,0,1,4.4-5.62,32.35,32.35,0,0,1,5.61-4.41,37.73,37.73,0,0,1,6.36-3.25,42.75,42.75,0,0,1,6.83-2.09,43.43,43.43,0,0,1,7.09-.85,51.33,51.33,0,0,1,14.16,1.7,50.54,50.54,0,0,0,14.17,1.52,59.35,59.35,0,0,0,14-2.54c9.16-2.76,17.55-7.44,26-11.84s17.27-8.38,26.76-9.71l.88-.15.89-.07,1.78-.14a26.67,26.67,0,0,1,3.57-.17l3.58,0c1.19.08,2.38.2,3.56.34a100.79,100.79,0,0,1,13.91,3.3,72.52,72.52,0,0,0,14,3,35.38,35.38,0,0,0,3.57.11c.59,0,1.19-.09,1.78-.13a17.42,17.42,0,0,0,1.77-.2l1.76-.36.87-.18.85-.28,1.7-.56a13,13,0,0,0,1.63-.72l1.62-.75c.52-.29,1-.63,1.52-.94a18.06,18.06,0,0,0,2.82-2.19,20.42,20.42,0,0,0,4.17-5.75,30.53,30.53,0,0,0,1.45-3.26c.4-1.12.8-2.25,1.15-3.39.71-2.28,1.32-4.58,2-6.87A93.37,93.37,0,0,1,478,358.29c.45-1.11,1-2.17,1.55-3.22l.81-1.6.92-1.53a45.62,45.62,0,0,1,4-5.91c6-7.49,13.79-13.15,21.29-19a133.46,133.46,0,0,0,10.91-9.24c.88-.8,1.69-1.68,2.5-2.54s1.59-1.78,2.37-2.69,1.45-1.88,2.16-2.84l1-1.44c.36-.48.63-1,1-1.52a58.51,58.51,0,0,0,6.08-12.9A81.49,81.49,0,0,0,536,280a168.91,168.91,0,0,0,1.68-28.52c-.16-9.53-.46-19.07-1-28.59a246.62,246.62,0,0,0-3.08-28.42A131.13,131.13,0,0,0,525.87,167l-.66-1.66-.77-1.61-1.54-3.23c-.48-1.09-1.14-2.09-1.7-3.14l-1.77-3.11-2-3c-.68-1-1.28-2-2-2.94l-2.22-2.8c-.74-.94-1.47-1.88-2.27-2.76-3.15-3.57-6.53-7-8.86-11.2a18.85,18.85,0,0,1-2.3-6.75,25.08,25.08,0,0,1,.3-7.13c.79-4.71,2.28-9.27,3-14a21.16,21.16,0,0,0,0-7.1,11.47,11.47,0,0,0-3.31-6.18,19.2,19.2,0,0,0-6-3.74c-2.19-.93-4.46-1.67-6.67-2.59a16,16,0,0,1-6-3.75,21.14,21.14,0,0,1-3.76-6.06c-1.89-4.4-3-9.06-4.46-13.59a32.16,32.16,0,0,0-2.78-6.56,9.59,9.59,0,0,0-2.28-2.7,5.86,5.86,0,0,0-3.24-1.32,3.23,3.23,0,0,0-.88,0,8.87,8.87,0,0,0-.89.06,11.39,11.39,0,0,0-1.72.43A17.86,17.86,0,0,0,457.8,52,44.41,44.41,0,0,0,452,56.14c-3.73,3-7.2,6.25-10.66,9.52s-6.91,6.58-10.58,9.63a63.92,63.92,0,0,1-11.83,8,32.82,32.82,0,0,1-3.25,1.49A33.89,33.89,0,0,1,412.28,86a23.73,23.73,0,0,1-7,1.19c-4.81.08-9.46-1.54-13.69-3.7s-8.21-4.86-12.48-7a27.23,27.23,0,0,0-6.69-2.43,15.73,15.73,0,0,0-7.06.17c-.58.15-1.14.36-1.7.54l-1.63.71L358.71,77c-1.11.42-2.25.79-3.37,1.2s-2.3.64-3.45,1a111.84,111.84,0,0,1-14.11,2.31c-4.73.55-9.48,1-14.15,2A51.26,51.26,0,0,0,310.14,88c-.53.27-1.08.52-1.59.82l-1.51.94c-1,.62-2,1.25-3,2-1.93,1.39-3.82,2.85-5.8,4.18a27.47,27.47,0,0,1-6.34,3.29,13.74,13.74,0,0,1-7.07.68,12,12,0,0,1-6.09-3.61,36.77,36.77,0,0,1-4.31-5.7c-1.29-2-2.54-4-3.94-6a21.52,21.52,0,0,0-4.94-5.09,11.75,11.75,0,0,0-6.67-2.18,22.36,22.36,0,0,0-7,1.23c-4.53,1.47-8.78,3.7-13.33,5.17C229.34,86.33,219.69,86.61,210.18,86.55Z"/></svg>