<svg id="Layer_1" data-name="Layer 1" xmlns="http://www.w3.org/2000/svg" viewBox="0 0 600 600"><title>Ukraine</title><path d="M200.06,154c4.14,1.35,8.25,2.79,12.47,3.86,2.11.54,4.22,1.1,6.31,1.69s4.17,1.19,6.27,1.72c8.38,2.12,17,3.52,25.41,3.15l3.14-.26.79-.07.77-.13,1.55-.27a47.45,47.45,0,0,0,6-1.46c1-.32,1.93-.75,2.89-1.11l1.44-.56c.46-.22.91-.48,1.37-.71.92-.45,1.81-1,2.72-1.43s1.75-1.1,2.61-1.69c3.44-2.37,6.77-5.16,10.57-7.73a46.36,46.36,0,0,1,6.09-3.53l1.63-.74,1.49-.64,3-1.3c8-3.45,16-6.94,24.3-10.1,4.14-1.58,8.33-3.08,12.62-4.44,1.07-.35,2.15-.67,3.24-1s2.18-.64,3.28-.92,2.21-.59,3.34-.84l1.68-.39c.58-.13,1.24-.23,1.87-.35a43.41,43.41,0,0,1,15.29.13c1.28.21,2.56.58,3.83.9a39.83,39.83,0,0,1,3.79,1.34,32.88,32.88,0,0,1,7.29,4.1,28.91,28.91,0,0,1,6.19,6.47,21.7,21.7,0,0,1,1.2,2,16.08,16.08,0,0,1,1.05,2.07c.3.72.59,1.44.87,2.17.16.39.22.64.33,1l.29.91c.72,2.39,1.24,4.46,1.82,6.16a14.36,14.36,0,0,0,1.81,3.87,7.34,7.34,0,0,0,1,1.08c.46.41,1,.84,1.6,1.3,1.27.93,2.91,1.92,4.9,3.21a40.74,40.74,0,0,1,6.56,5.09c.57.57,1.14,1.16,1.68,1.8l.8,1,.61.79c.77,1,1.47,2,2.16,3,2.71,3.93,4.89,7.44,7.09,10.07a21.39,21.39,0,0,0,3.28,3.26,24.4,24.4,0,0,0,3.67,2.39,31.13,31.13,0,0,0,4.38,1.84,50,50,0,0,0,5,1.34A101.15,101.15,0,0,0,445,193.57l12.9,1.19c4.34.38,8.67.84,13,1.28,8.66.9,17.3,1.93,25.91,3.15,4.46.58,9.08,1.41,13.81,2.47,1.17.25,2.37.55,3.57.85s2.4.62,3.62,1,2.41.75,3.63,1.19l1.83.65c.6.23,1.22.51,1.83.77a53.48,53.48,0,0,1,14.17,8.73A45.15,45.15,0,0,1,550.18,229a44.39,44.39,0,0,1,3.07,8.28,55.11,55.11,0,0,1,1.46,8.22,112.41,112.41,0,0,1,.23,14.91,37.73,37.73,0,0,0,.29,6.76,31.39,31.39,0,0,0,.61,3.24c.25,1.05.52,2.1.83,3.1s.59,2,.92,2.93c.08.23.15.47.22.7a2.23,2.23,0,0,0,.22.59l.43.86c.57,1.24,1.14,2.9,1.89,4.73s1.58,3.91,2.4,6.24a55.82,55.82,0,0,1,2.23,8,41,41,0,0,1,.55,5,35.18,35.18,0,0,1-.36,5.91,28,28,0,0,1-5.53,12.71,26.85,26.85,0,0,1-4.8,4.84c-.42.31-.84.63-1.28.91s-.9.58-1.4.85c-1,.51-2,1-3,1.43a23,23,0,0,1-6.27,1.31l-1.52.09-1.41-.05c-.91-.05-1.9-.09-2.69-.21-3.44-.44-6.05-1.06-8.42-1.26s-4.33-.55-5.82-.66a17.91,17.91,0,0,0-3.1,0,1.14,1.14,0,0,1-.33.07c-.11,0-.15.1-.26.11s-.26.12-.43.23-.36.26-.55.41a14.87,14.87,0,0,0-2.47,3c-.44.68-.88,1.43-1.33,2.26l-.7,1.28-1,1.7a44.24,44.24,0,0,1-10.68,12.87l-1.67,1.32c-.56.42-1.15.8-1.72,1.2-1.15.83-2.34,1.47-3.52,2.18s-2.39,1.24-3.54,1.81-2.31,1.19-3.44,1.7c-4.55,2.17-8.91,3.77-13,5.31-2.18.8-3.78,1.44-5.6,2.23s-3.57,1.62-5.38,2.51c-3.63,1.79-7.32,3.78-11.18,5.85q-2.89,1.54-5.93,3.11c-2.08,1.05-4,2-6.57,3.17-2.38,1-4.5,1.86-6.52,2.67s-3.89,1.57-5.62,2.34a31.4,31.4,0,0,0-7.91,4.61,3.63,3.63,0,0,0-1.13,1.48c-.06.24.12.08.05.1s-.05.1-.08.28-.05.08-.05.19a1.91,1.91,0,0,0,.23.89,3.71,3.71,0,0,0,.74,1,1.08,1.08,0,0,0,.2.18l0,0-.06,0a.23.23,0,0,0-.14,0s0,0,0,0l.12,0s.07.05.17.07a15,15,0,0,0,3.42.56c1.57.12,3.43.15,5.45.14l3.17,0h1.67a10.18,10.18,0,0,0,1.73-.19c2.35-.36,4.88-.67,7.7-.86a42.4,42.4,0,0,1,9.61.38c.89.13,1.9.37,2.84.58s2,.58,3,.91,2.1.85,3.16,1.38a32.81,32.81,0,0,1,3.19,1.88,28.92,28.92,0,0,1,9.91,11.41q.21.4.39.81a9.79,9.79,0,0,1,.4,1,19.79,19.79,0,0,1,.81,2.51,23.45,23.45,0,0,1,.74,5,25.14,25.14,0,0,1-.22,4.5,30.26,30.26,0,0,1-.82,3.83,33.67,33.67,0,0,1-1.12,3.23c-.21.51-.42,1-.63,1.44s-.59,1.2-.9,1.78-.63,1.18-1,1.78-.82,1.21-1.25,1.8a26,26,0,0,1-3,3.37,27.62,27.62,0,0,1-3.48,2.79,25.93,25.93,0,0,1-3.59,2,28.83,28.83,0,0,1-6.45,2.07,43.28,43.28,0,0,1-8.63.7l-1.46,0-1.15,0a18.22,18.22,0,0,0-2.55.12q-5.87.46-11.75,1.52a111.94,111.94,0,0,0-11.7,2.73,121.06,121.06,0,0,0-11.47,4c-.95.37-1.88.78-2.82,1.19a21.11,21.11,0,0,0-2.74,1.35,14.48,14.48,0,0,0-2.47,1.78c-.78.67-1.54,1.35-2.28,2.05-2.94,2.68-5.8,6.07-9.89,9.52a39,39,0,0,1-7.18,4.87c-.7.36-1.45.73-2.11,1s-1.37.59-2.1.86a30.33,30.33,0,0,1-4.71,1.37,27.35,27.35,0,0,1-5.76.57,19.15,19.15,0,0,1-7-1.44,19.72,19.72,0,0,1-6.78-4.76c-.46-.52-.88-1.05-1.29-1.59a12,12,0,0,1-1.11-1.62c-.33-.55-.63-1.1-.92-1.66a16.79,16.79,0,0,1-.69-1.6c-.2-.53-.42-1.08-.58-1.59s-.26-1-.37-1.49-.24-1-.29-1.45-.1-.88-.13-1.32-.07-.89-.08-1.31l0-1.25,0-1.23.14-1.17a48.4,48.4,0,0,1,1.81-7.82,20.24,20.24,0,0,0,.92-5.75,7.7,7.7,0,0,0-.35-2.13,5.29,5.29,0,0,0-1.67-2.64,4,4,0,0,0-.6-.44,2.47,2.47,0,0,0-.61-.3,6.49,6.49,0,0,0-1.4-.36l-.87-.15c-.35-.06-.65-.09-1.06-.14-1.51-.21-3.6-.4-6.14-.9-.63-.12-1.31-.27-2-.44s-1.49-.42-1.92-.5c-1-.23-2.22-.52-3.47-.87a34.4,34.4,0,0,1-8.39-3.67,26.14,26.14,0,0,1-5-4,23.28,23.28,0,0,1-4.8-7.46,24.38,24.38,0,0,1-.87-3,13.2,13.2,0,0,1-.29-1.73c-.07-.64-.11-1.27-.13-1.91a12.29,12.29,0,0,1,0-2c.06-.69.16-1.39.29-2.08a18.22,18.22,0,0,1,1.21-4,13.12,13.12,0,0,1,.86-1.72c.3-.54.63-1.07,1-1.58a14.16,14.16,0,0,1,1-1.3c.33-.4.66-.8,1-1.18.66-.7,1.24-1.22,1.89-1.8s1.12-.89,1.7-1.32a32.42,32.42,0,0,1,5.12-2.92c1.32-.63,2.33-1.06,2.68-1.25a7.91,7.91,0,0,0,1.49-.91c.22-.17.17-.14.19,0s.09.15.15-.09a3.15,3.15,0,0,0-.09-1.41,10.31,10.31,0,0,0-.93-2.31,12.3,12.3,0,0,0-1.77-2.39,13.23,13.23,0,0,0-2.34-2c-.43-.26-.9-.56-1.36-.81a12.16,12.16,0,0,0-1.43-.63,15.71,15.71,0,0,0-7.19-.71,40.15,40.15,0,0,0-9.8,2.68c-1.75.67-3.59,1.51-5.4,2.33s-3.47,1.69-5.16,2.61-3.32,1.95-4.77,2.93l-1,.66c-.14.1-.23.16-.25.15s.13-.17,0,0l-.26.24c-.68.62-1.35,1.28-2,2-5.39,5.47-10.26,12.79-16.57,19.88s-14.42,13.85-24.78,17.13a35.4,35.4,0,0,1-8.14,1.53,39.93,39.93,0,0,1-4.24,0,29.16,29.16,0,0,1-4.28-.57A32.17,32.17,0,0,1,210.4,426a28.68,28.68,0,0,1-5.61-7.2,31,31,0,0,1-3.17-8.69,30.43,30.43,0,0,1-.33-9.5,28.94,28.94,0,0,1,1.06-4.86c.24-.8.55-1.61.87-2.39s.69-1.49,1.05-2.23a35.68,35.68,0,0,1,5.49-7.68A61.48,61.48,0,0,1,216,378c2-1.56,4-2.85,5.81-4.07l5-3.31c1.47-1,2.77-2,3.82-2.9s1.82-1.72,2.73-2.7a34.37,34.37,0,0,0,2.71-3.31,33.19,33.19,0,0,0,2.66-4.14,31.36,31.36,0,0,0,2.32-5,36.07,36.07,0,0,0,1.59-5.62c.22-1,.33-2,.46-3,.07-.5.1-1,.15-1.51a5.89,5.89,0,0,0,0-1.51c-.34-2-.74-3.95-1.23-5.9s-1.08-3.87-1.73-5.77-1.42-3.74-2.24-5.56a45.33,45.33,0,0,0-6-9.91c-.29-.36-.54-.76-.87-1.1l-1-1a22,22,0,0,0-2-2l-2.12-1.86-2.28-1.68a46.61,46.61,0,0,0-10.11-5.24,54,54,0,0,0-11.15-2.63,52.24,52.24,0,0,0-11.39.07,47.51,47.51,0,0,0-10.88,2.78c-3.58,1.42-7.3,3.35-11.44,5.29-2.05,1-4.29,1.91-6.52,2.74s-4.51,1.51-6.76,2.22c-4.53,1.35-9,2.74-13.58,3.89a191.22,191.22,0,0,1-27.52,5.3,96.79,96.79,0,0,1-14,.38c-2.34-.12-4.67-.31-7-.59-1.16-.13-2.32-.3-3.48-.47l-1.74-.27-1.89-.33A76.33,76.33,0,0,1,71.24,315a62.5,62.5,0,0,1-14.34-8c-1.14-.82-2.24-1.76-3.33-2.68s-2.16-1.93-3.17-3a43.37,43.37,0,0,1-5.57-7,41,41,0,0,1-6.38-17.23,40.43,40.43,0,0,1-.21-9,46.57,46.57,0,0,1,1.48-8.42A60,60,0,0,1,46,245.08a78.06,78.06,0,0,1,8.79-12,79.41,79.41,0,0,1,10-9.76c7-5.83,14.79-10.13,21.27-15.74a55.59,55.59,0,0,0,8.82-9.14,42.86,42.86,0,0,0,3.42-5.28,42.56,42.56,0,0,0,2.7-5.57A56.31,56.31,0,0,0,104,175.43c.67-4.23,1.11-8.58,1.88-12.94.18-1.09.4-2.18.64-3.26l.37-1.63c.15-.55.31-1.13.5-1.68a16.31,16.31,0,0,1,3.63-6,19.35,19.35,0,0,1,5.57-4,29.61,29.61,0,0,1,6.31-2.28,57.64,57.64,0,0,1,13.11-1.5,111.8,111.8,0,0,1,13.08.68c4.34.45,8.64,1.15,12.93,1.86s8.56,1.58,12.8,2.54C183.36,149.09,191.79,151.29,200.06,154Zm0,0c-8.44-2.15-16.81-4.44-25.32-6.22a225.89,225.89,0,0,0-25.69-4,110.15,110.15,0,0,0-13-.45A57,57,0,0,0,123.31,145a28.23,28.23,0,0,0-6,2.28,17.68,17.68,0,0,0-5,3.79,14.58,14.58,0,0,0-3.11,5.41c-.16.5-.28,1-.41,1.53l-.33,1.58c-.2,1.06-.39,2.12-.54,3.19-.65,4.28-1,8.62-1.53,13-.28,2.16-.61,4.33-1.08,6.47a39.9,39.9,0,0,1-1.85,6.33c-3.24,8.23-8.76,15.19-14.55,21.66S76.76,222.66,70.84,229s-11.5,13.07-15.42,20.81A51.16,51.16,0,0,0,51,262a36.56,36.56,0,0,0-.78,6.42,30.26,30.26,0,0,0,.44,6.45,29.54,29.54,0,0,0,4.93,11.89,32.48,32.48,0,0,0,4.19,4.95,38.89,38.89,0,0,0,5,4.16,60.23,60.23,0,0,0,24,9.62,173.77,173.77,0,0,0,26,2.49,166.56,166.56,0,0,0,26-1.37,89.66,89.66,0,0,0,25-7c4-1.77,7.87-3.71,11.95-5.24a55.17,55.17,0,0,1,12.67-2.95,59.05,59.05,0,0,1,13,.2,59.7,59.7,0,0,1,12.6,3.25,53.38,53.38,0,0,1,11.42,6.23l2.59,2,2.4,2.2a29.47,29.47,0,0,1,2.25,2.36l1.09,1.22c.36.4.66.86,1,1.29a51.58,51.58,0,0,1,6.51,11.26c.86,2,1.63,4,2.32,6.1s1.25,4.16,1.75,6.28c1.92,8.46,2.48,17.36.56,25.87a34.14,34.14,0,0,1-5.11,11.92,29.38,29.38,0,0,1-4.28,4.9,51,51,0,0,1-5.17,4c-3.62,2.41-7.44,4.51-11,6.94a46.08,46.08,0,0,0-5.14,4,24.84,24.84,0,0,0-4.12,5c-4.64,7.47-3.21,17.92,3,24.09a22.61,22.61,0,0,0,11.25,6.25,21.72,21.72,0,0,0,6.48.49,25.89,25.89,0,0,0,6.39-1.23,34.73,34.73,0,0,0,6-2.63,44.39,44.39,0,0,0,5.4-3.64,56.78,56.78,0,0,0,9.15-9.25c5.47-6.78,9.93-14.29,15.53-21a29.87,29.87,0,0,1,4.55-4.65c1.69-1.37,3.46-2.64,5.26-3.85a106.35,106.35,0,0,1,11.28-6.54,56,56,0,0,1,12.18-4.6,29.4,29.4,0,0,1,12.93-.26,26.5,26.5,0,0,1,19.12,16.17,17.31,17.31,0,0,1,.12,12.74A16.23,16.23,0,0,1,338,403.9a21.43,21.43,0,0,1-5.34,3.7,46.59,46.59,0,0,0-5.8,3,6,6,0,0,0-2.15,2.39,4.26,4.26,0,0,0,0,3.18,11.55,11.55,0,0,0,4.09,5,36.7,36.7,0,0,0,5.59,3.34c2,.95,3.9,1.93,5.91,2.76s4.07,1.56,6,2.48a18.36,18.36,0,0,1,5.38,3.61,15.19,15.19,0,0,1,3.49,5.45,19.37,19.37,0,0,1,1.12,6.4c.05,2.17-.13,4.34-.27,6.51a45.79,45.79,0,0,0-.11,6.52,17.44,17.44,0,0,0,1.52,6.29,9.2,9.2,0,0,0,1.91,2.63,8.71,8.71,0,0,0,2.78,1.66,13.62,13.62,0,0,0,6.44.41,29.6,29.6,0,0,0,6.26-1.77,35.27,35.27,0,0,0,5.76-3.05c3.67-2.34,7-5.13,10.59-7.61a130.16,130.16,0,0,1,11-7A132,132,0,0,1,426,439.15q6.19-2,12.56-3.49c4.22-1.14,8.63-1.13,12.85-2.2A12.07,12.07,0,0,0,457,430.4a12.64,12.64,0,0,0,2.89-5.76,9.24,9.24,0,0,0-.55-6.36,12.91,12.91,0,0,0-4-5,15.79,15.79,0,0,0-5.9-2.67,34.16,34.16,0,0,0-6.45-.87c-4.35-.22-8.7.06-13,.19s-8.74.21-13-.83a16.74,16.74,0,0,1-3.07-1.09,15.75,15.75,0,0,1-2.75-1.74,18.52,18.52,0,0,1-4.34-4.83,17.49,17.49,0,0,1-2.38-6,16.44,16.44,0,0,1,.09-6.48,15,15,0,0,1,2.67-5.9,20.6,20.6,0,0,1,4.67-4.51,50,50,0,0,1,11.65-5.81c4.07-1.53,8.24-2.78,12.31-4.31,8.08-3.23,15.81-7.26,23.83-10.61,8-3.56,16.57-5.31,24.6-8.68a52.73,52.73,0,0,0,5.86-2.84c.92-.58,1.88-1.09,2.76-1.75.44-.31.89-.61,1.32-.94l1.27-1a35.07,35.07,0,0,0,8.18-10.06c2.07-3.8,4.07-7.75,7.22-10.8a15,15,0,0,1,2.56-2c.48-.27.92-.59,1.42-.81l1.51-.63a21.85,21.85,0,0,1,6.43-.94c4.35-.07,8.7.59,13,.13a18.57,18.57,0,0,0,6.24-1.75,15.61,15.61,0,0,0,5-4.13,13.5,13.5,0,0,0,2.6-5.89,22.41,22.41,0,0,0,.16-6.49,109.58,109.58,0,0,0-2.59-12.78,55.57,55.57,0,0,1-1.17-6.41,32.2,32.2,0,0,1-.17-3.26c0-1.09,0-2.18,0-3.26,0-4.35.29-8.7.33-13.05a67.24,67.24,0,0,0-1-13,34.15,34.15,0,0,0-4.78-12,33.8,33.8,0,0,0-9.07-9.24,52.48,52.48,0,0,0-11.57-5.93c-8.16-3-16.76-4.65-25.33-6l-25.78-4-25.77-4.07a113.05,113.05,0,0,1-12.75-2.76,60.78,60.78,0,0,1-6.17-2.14,46.72,46.72,0,0,1-5.81-3,33.68,33.68,0,0,1-9.49-8.86c-2.58-3.51-4.69-7.33-7-11a26.21,26.21,0,0,0-8.85-9.39c-1.77-1.26-3.58-2.47-5.26-3.86a18.39,18.39,0,0,1-4.32-4.86c-2.24-3.8-2.89-8.21-4-12.39a21.16,21.16,0,0,0-2.49-6,21.42,21.42,0,0,0-4.34-4.82,26.13,26.13,0,0,0-5.54-3.37c-1-.5-2-.8-3-1.2s-2.07-.64-3.14-.85a36.81,36.81,0,0,0-12.94-.6,158.1,158.1,0,0,0-25.22,6.53c-8.25,2.75-16.38,5.85-24.51,8.94-2,.79-4.08,1.51-6.08,2.34a44.51,44.51,0,0,0-5.76,3c-3.71,2.28-7.17,4.92-10.87,7.22q-1.38.87-2.82,1.65l-2.94,1.41c-.5.23-1,.48-1.48.69l-1.54.54c-1,.34-2.05.75-3.1,1a51.65,51.65,0,0,1-6.39,1.29l-1.62.22-.81.1-.81,0-3.26.15c-8.72,0-17.35-1.71-25.69-4.13S208.35,156.6,200.06,154Z"/></svg>