<svg id="Layer_1" data-name="Layer 1" xmlns="http://www.w3.org/2000/svg" viewBox="0 0 600 600"><title>UnitedStates</title><path d="M395.1,203.49a8.71,8.71,0,0,0,1-3.53,6,6,0,0,0-.91-3.52,6.57,6.57,0,0,0-2.77-2.29,28.54,28.54,0,0,0-3.38-1.26,44.75,44.75,0,0,0-14.47-.22c-4.61.61-8.9,2.66-13.27,4.76-2.19,1.06-4.4,2.19-6.75,3.14a20.64,20.64,0,0,1-3.91,1.27,8.86,8.86,0,0,1-2.5.16c-.22,0-.45-.05-.66-.08l-.58-.13a7.19,7.19,0,0,1-1.23-.39,4.11,4.11,0,0,1-.67-.33,3.06,3.06,0,0,1-.71-.48,3.78,3.78,0,0,1-1.36-3.51,6.24,6.24,0,0,1,.35-1.36,22.23,22.23,0,0,1,2-3.62c.7-1,1.36-2.06,1.91-3.08a10.52,10.52,0,0,0,1.21-3,2.6,2.6,0,0,0-.26-2.07,4.53,4.53,0,0,0-1.84-1.33,13.24,13.24,0,0,0-6.12-.86c-2.27.11-4.83.37-7.28.55s-4.95.39-7.43.55-4.95.34-7.43.46-5,.25-7.44.34-5,.2-7.44.26-5,.14-7.45.17c-5,.12-9.94.2-14.91.2q-14.93,0-29.87-.29l-15-.37c-2.5-.07-5,0-7.51,0s-5,0-7.54,0c-10.07.14-20.21.29-30.22-.7a199.77,199.77,0,0,1-29.63-5.22c-4.87-1.18-9.69-2.63-14.48-4.15s-9.58-3-14.37-4.44l-1.8-.55-.45-.13-.22-.07a4.63,4.63,0,0,0-.55-.16c-.84-.23-2.15-.44-3.85-.86a26,26,0,0,1-2.8-.85c-.86-.32-1.61-.66-2.36-1-1.47-.7-2.77-1.43-3.93-2.13l-3.14-1.91c-.89-.54-1.74-1-2.53-1.41a11.29,11.29,0,0,0-3.65-1.23,2.49,2.49,0,0,0-2.06.65,7.37,7.37,0,0,0-.77.68c-.14.13-.28.28-.42.43l-.16.19s0-.06,0,0-.39.58-.71,1.11-.69,1.16-1.18,1.9a16.8,16.8,0,0,1-2.14,2.64,10.19,10.19,0,0,1-2.22,1.69,9.5,9.5,0,0,1-3.16,1.15,10,10,0,0,1-6.29-1,10.14,10.14,0,0,1-2.56-1.94,11,11,0,0,1-1.44-1.91A17.24,17.24,0,0,1,82.62,162c-.22-.55-.35-.78-.23-.64a1.15,1.15,0,0,0,.14.17l-.12-.14a1.54,1.54,0,0,1-.21-.29c-.16-.09-.27-.31-.4-.36a1.5,1.5,0,0,0-.67-.37,1.88,1.88,0,0,0-1,0,5.59,5.59,0,0,0-2.92,1.86,7.16,7.16,0,0,0-.63.8l-.66,1.1c-.2.39-.36.79-.56,1.19s-.31.84-.48,1.26a22.59,22.59,0,0,0-1,5.82,86.09,86.09,0,0,0,.92,14l.2,1.91c.06.65.13,1.28.15,2l.08,2.11c0,.7.1,1.39,0,2.11l-.14,2.15a15.67,15.67,0,0,1-.22,2.15l-.4,2.15c-.07.36-.13.72-.21,1.07l-.32,1-.64,2.08c-.22.69-.53,1.33-.79,2a35.56,35.56,0,0,1-1.79,3.78c-.63,1.25-1.34,2.32-2,3.48l-2,3.22A72.36,72.36,0,0,0,60,229.85a32.73,32.73,0,0,0-2,13.22A65.18,65.18,0,0,0,60,256c1,4.26,1.94,8.57,2.84,13.07s1.83,9.17,2.69,14,1.51,9.68,2.26,14.55c.35,2.43.73,4.87,1.16,7.29s.95,4.82,1.53,7a31,31,0,0,0,2.23,5.9,17.75,17.75,0,0,0,3.69,4.94,28.49,28.49,0,0,0,6.28,3.85c1.27.72,2.55,1.44,3.78,2.18a36.35,36.35,0,0,1,3.39,2.38,24.42,24.42,0,0,1,2.81,2.62c.84.91,1.55,1.88,2.28,2.78,1.41,1.85,2.66,3.66,3.79,5.42s2.14,3.51,3.23,5.11a29.13,29.13,0,0,0,3.41,4.33,10.81,10.81,0,0,0,3.7,2.56,9.17,9.17,0,0,0,1.9.51,19.92,19.92,0,0,0,2.8.2l4,.08a35,35,0,0,1,5.1.53,20.55,20.55,0,0,1,5.89,2,19.12,19.12,0,0,1,5.15,3.93,35.78,35.78,0,0,1,2.79,3.57,11,11,0,0,0,1.39,1.68,22.24,22.24,0,0,0,4.78,3.21,104.25,104.25,0,0,0,12.89,6.15c1.08.42,2.17.85,3.25,1.18s2.16.72,3.25,1a31.34,31.34,0,0,0,6.45,1.23,24.25,24.25,0,0,0,3.19,0,27.32,27.32,0,0,0,3-.51,19.7,19.7,0,0,0,5.34-2.29l1.13-.71,1-.81c.68-.46,1.25-1.08,1.83-1.56.3-.25.53-.46.91-.77a12.81,12.81,0,0,1,1.39-.93,26.26,26.26,0,0,1,4.63-2.17,31.42,31.42,0,0,1,3.43-.95,23.93,23.93,0,0,1,4.15-.55,24.78,24.78,0,0,1,8.37,1,26.85,26.85,0,0,1,12,7.83,42.1,42.1,0,0,1,3.91,4.94c.58.84,1.12,1.66,1.67,2.57l.8,1.33.39.67.31.64c.4.84.86,1.73,1.18,2.53s.65,1.62.92,2.4l.69,2.28.54,2.14c.62,2.76,1,5.21,1.4,7.38a27.86,27.86,0,0,0,1.41,5.39,6.4,6.4,0,0,0,2,2.82,3.32,3.32,0,0,0,2.93.66,3.5,3.5,0,0,0,2.36-2,35.29,35.29,0,0,1,5.82-4.29l1-.56c.34-.18.8-.36,1.2-.54s.78-.35,1.27-.53l1.5-.47c.26-.07.47-.15.77-.22l.9-.2c.61-.12,1.18-.23,1.82-.32a21.63,21.63,0,0,1,4.36-.08,18.93,18.93,0,0,1,2.34.29c.8.16,1.6.36,2.38.58a16.13,16.13,0,0,1,2.24.83,21.76,21.76,0,0,1,2.11,1,23.41,23.41,0,0,1,6,4.89l1.05,1.24.51.62.41.58c.53.78,1.08,1.56,1.56,2.35l1.28,2.35c.43.79.72,1.56,1.08,2.34a47.74,47.74,0,0,1,2.75,8.85c.56,2.74.95,5.28,1.32,7.62s.65,4.44,1.07,6.37a24.49,24.49,0,0,0,1.64,5.21,20.14,20.14,0,0,0,1.19,2.26,6.82,6.82,0,0,0,1.46,1.77,16.87,16.87,0,0,0,4.48,3,11.59,11.59,0,0,0,2.08.68,5.22,5.22,0,0,0,1.3.1c.3-.08.45,0,.63-.15a2.73,2.73,0,0,0,.5-1.61,17.28,17.28,0,0,0,0-3.11l-.32-3.85c-.07-.68-.07-1.46-.09-2.23v-1.23c0-.44.09-.89.15-1.34a33.28,33.28,0,0,1,1.3-4.56c.91-2.62,1.91-5.22,3-7.78a64.35,64.35,0,0,1,3.9-7.4c.74-1.16,1.51-2.32,2.35-3.39s1.78-2.11,2.7-3.15a29.75,29.75,0,0,1,3.06-2.87c.54-.46,1.06-.93,1.63-1.35l1.75-1.23L318.8,410c.6-.4,1.24-.75,1.86-1.12a36,36,0,0,1,3.82-2.08,46,46,0,0,1,17-4.55,48.8,48.8,0,0,1,17.12,1.95,65.63,65.63,0,0,1,15,6.58c.61.32,1.11.64,1.61.93l1.5.85c1,.54,1.93,1,2.86,1.45a21.27,21.27,0,0,0,2.71,1,12.46,12.46,0,0,0,2.56.43,8.33,8.33,0,0,0,4.36-.79,5.08,5.08,0,0,0,.69-.47,4.91,4.91,0,0,0,.59-.61,4.5,4.5,0,0,0,.83-1.63,3.25,3.25,0,0,0,.09-1.45,1.19,1.19,0,0,0-.48-.77,2.12,2.12,0,0,0-.5-.27,8.46,8.46,0,0,0-.94-.25c-.81-.13-2-.26-3.42-.45-.36-.05-.75-.11-1.16-.19l-.63-.14-.77-.24-.78-.26-.76-.35-.77-.36c-.25-.15-.5-.3-.76-.43a13.57,13.57,0,0,1-5.88-5.84,10.06,10.06,0,0,1-.92-5.47A10.58,10.58,0,0,1,376,390a13.62,13.62,0,0,1,7.71-4.3,19.39,19.39,0,0,1,5.23-.22,29.24,29.24,0,0,1,4.23.73c2.6.62,4.94,1.39,7,1.7l.74.1.37,0h.45c.61,0,1.23,0,1.85,0l3.77-.07c2.53,0,5.13,0,7.74.08s5.25.31,7.89.6,5.16.61,7.77,1,5.21.82,8,1.18,5.65.72,8.6,1.42a39,39,0,0,1,4.42,1.32,26.48,26.48,0,0,1,4.27,2c.66.43,1.36.84,2,1.32s1.27,1,1.86,1.54a23.39,23.39,0,0,1,1.72,1.73c.28.3.55.58.82.93s.55.7.81,1.07a37.76,37.76,0,0,1,4.45,8.28,61.49,61.49,0,0,1,2.44,7.64c.63,2.45,1.08,4.83,1.61,7.09s1,4.45,1.62,6.45a23,23,0,0,0,2.3,5.39,10.76,10.76,0,0,0,3.32,3.61,10,10,0,0,0,2.13,1l.59.21.62.15a8.53,8.53,0,0,0,1.18.24,12.19,12.19,0,0,0,5.22-.57,9.39,9.39,0,0,0,2.39-1.13,6.68,6.68,0,0,0,1.79-1.55,4.54,4.54,0,0,0,1-3.59,4.61,4.61,0,0,0-.7-2.14,7.11,7.11,0,0,0-2.19-2l-2.93-1.72a9.42,9.42,0,0,1-2.45-2.17,10.38,10.38,0,0,1-1-1.53c-.3-.56-.64-1.09-.91-1.66-.58-1.12-1.09-2.27-1.56-3.42a68.13,68.13,0,0,1-2.28-7.14,68.76,68.76,0,0,0-2.23-7,32.6,32.6,0,0,0-3.47-6.41c-1.42-2.1-3-4.23-4.52-6.57-.76-1.17-1.53-2.39-2.23-3.69-.36-.64-.69-1.35-1-2s-.59-1.22-.87-1.84a37.57,37.57,0,0,1-3.94-16.39,25.12,25.12,0,0,1,1.64-8.88,28.18,28.18,0,0,1,4.64-7.73c1.83-2.24,3.76-4.15,5.49-6s3.33-3.75,4.87-5.56c3.19-3.86,6.6-7.65,10-11.36,1.7-1.86,3.45-3.68,5.18-5.52l5.22-5.38a62.84,62.84,0,0,0,4.6-5.3l.49-.69.42-.72a9.46,9.46,0,0,0,.71-1.47l.28-.75.2-.76.18-.75c.05-.25.07-.5.1-.74l.07-.73v-.69c0-.22,0-.44,0-.65l-.08-.62a5.9,5.9,0,0,0-.18-1.09,3.43,3.43,0,0,0-.08-.48,2.57,2.57,0,0,1-.11-.44c0-.29-.15-.56-.17-.83s-.11-.53-.15-.81c0-.56-.14-1.09-.19-1.67a18.77,18.77,0,0,0-.28-1.86,8.35,8.35,0,0,0-.7-2.14,7.48,7.48,0,0,0-1.51-2.05,12.35,12.35,0,0,0-2.91-1.72c-1.14-.53-2.39-1-3.71-1.48a32.89,32.89,0,0,0-4.6-1.32,23.16,23.16,0,0,1-2.9-.95,13,13,0,0,1-3-1.81,9.41,9.41,0,0,1-1.37-1.31l-.63-.73c-.22-.3-.4-.67-.6-1a9.42,9.42,0,0,1-.93-2.54,10.52,10.52,0,0,1-.15-3.39,9.76,9.76,0,0,1,2.81-5.94,6.19,6.19,0,0,1,4.06-1.66,28.09,28.09,0,0,1,3.24.23,7.88,7.88,0,0,0,1.22,0l1.06-.21a57.6,57.6,0,0,0,7.19-1.48c2.08-.67,3.68-1.76,4.08-2.93a12,12,0,0,0,.79-5.92,31.41,31.41,0,0,0-1.63-6.67c-.39-1.17-.81-2.36-1.2-3.63-.18-.67-.36-1.43-.54-2.15s-.3-1.48-.41-2.24a25.57,25.57,0,0,1,.37-9.36,22.6,22.6,0,0,1,4.21-9,20.68,20.68,0,0,1,7.95-6.11,26.53,26.53,0,0,1,4.58-1.54,39.72,39.72,0,0,1,4.28-.77,36,36,0,0,0,7.11-1.51,10.4,10.4,0,0,0,4.83-3,4.06,4.06,0,0,0,.63-4,4.11,4.11,0,0,0-.48-.93,3.37,3.37,0,0,0-.32-.45,1.93,1.93,0,0,0-.17-.2l-.13-.09a6.45,6.45,0,0,0-1.53-.68,10.46,10.46,0,0,0-1.55-.44l-2.32-.38a10.53,10.53,0,0,1-3.19-1.17,8.6,8.6,0,0,1-1.66-1.25,9.49,9.49,0,0,1-.73-.82,6,6,0,0,1-.67-1,8.83,8.83,0,0,1-.91-2.16,9.69,9.69,0,0,1-.31-2,12,12,0,0,1,.23-3.27,14,14,0,0,1,2-4.84,23.29,23.29,0,0,1,1.4-2,15.82,15.82,0,0,1,1.59-1.71c1-1,2.05-1.89,3-2.83a56.7,56.7,0,0,0,5.32-5.89,29.41,29.41,0,0,1,2.79-2.92l1.41-1.25c.44-.4.88-.81,1.3-1.22a23.13,23.13,0,0,0,4.21-5.15,8.36,8.36,0,0,0,1.2-5.27,12.84,12.84,0,0,0-.82-2.63,18.56,18.56,0,0,0-1.45-2.69,27.53,27.53,0,0,0-4.16-5,38.12,38.12,0,0,0-5.12-4.2c-.44-.32-.9-.62-1.35-.91a5.17,5.17,0,0,0-.59-.32,4,4,0,0,0-.55-.27,12.14,12.14,0,0,0-2.32-.77,8.18,8.18,0,0,0-4.22,0,3.75,3.75,0,0,0-1.3.64.7.7,0,0,0-.22.2c-.06.07-.15.1-.19.19a1.08,1.08,0,0,1-.16.2,2.46,2.46,0,0,1-.17.27c-.16.15-.17.37-.29.51s-.14.34-.17.57a8.27,8.27,0,0,0-.29,1.51,20.88,20.88,0,0,0-.11,2.25c0,.89,0,1.81.14,2.85l.67,6.85a56,56,0,0,1,.21,8.23,37,37,0,0,1-.58,4.77,25.92,25.92,0,0,1-1.61,5.28,19.53,19.53,0,0,1-8,9.34,17.45,17.45,0,0,1-5.45,2.08,24,24,0,0,1-4.77.49c-2.87,0-5.25-.3-7.26-.29a11.75,11.75,0,0,0-2.78.22,12.92,12.92,0,0,0-1.31.38c-.42.19-.86.36-1.28.6a14.21,14.21,0,0,0-4.47,4.14,37.07,37.07,0,0,0-3.43,5.77,128.29,128.29,0,0,0-5.26,13.4c-1.61,4.66-3.1,9.45-5,14.28a79.29,79.29,0,0,1-7.05,14.38A46.38,46.38,0,0,1,454,257a41.83,41.83,0,0,1-7.78,4.36c-1.39.61-2.76,1.1-4.14,1.55a36.11,36.11,0,0,1-4.3,1.14,34.21,34.21,0,0,1-4.79.65,21.18,21.18,0,0,1-5.84-.45,14.1,14.1,0,0,1-7.3-4.06,12.94,12.94,0,0,1-2.55-4.09,13.87,13.87,0,0,1-.92-4.07,17.52,17.52,0,0,1,.79-6.42c.26-.84.55-1.65.81-2.26l.63-1.53c.87-2,1.61-4.1,2.32-6.17A35.41,35.41,0,0,0,423,223.13c-.05-.51-.06-1-.12-1.54s-.15-1.05-.24-1.46a11.45,11.45,0,0,0-.81-2.53,11.66,11.66,0,0,0-3.25-4.18,7.45,7.45,0,0,0-2.08-1.23,6.14,6.14,0,0,0-2.21-.48,6,6,0,0,0-2.28.38,7.42,7.42,0,0,0-2.21,1.21,14,14,0,0,0-3.73,4.52,22.41,22.41,0,0,0-2.21,6c-.91,4.43-1.11,9.39-2,14.53a31.34,31.34,0,0,1-2.28,7.69,16.45,16.45,0,0,1-2.27,3.61,19.13,19.13,0,0,1-2.92,2.91,17.49,17.49,0,0,1-1.67,1.19c-.3.18-.58.37-.88.54l-.92.47a18.82,18.82,0,0,1-1.92.78,14.32,14.32,0,0,1-2,.46,9,9,0,0,1-6.1-1l-.89-.52-.78-.64a13.83,13.83,0,0,1-4.14-6.46,26.85,26.85,0,0,1-1.18-7.41c-.08-5,1.41-9.84,2.72-14.58a41.76,41.76,0,0,1,2.62-6.94,18.18,18.18,0,0,1,4.41-5.94,48.08,48.08,0,0,1,6.3-3.89A13,13,0,0,0,395.1,203.49Zm0,0a11.42,11.42,0,0,1-2.19,3,18.86,18.86,0,0,1-2.95,2.25c-2.07,1.34-4.36,2.39-6.14,4.05a17.64,17.64,0,0,0-4,6,40.6,40.6,0,0,0-2.27,6.92c-1.12,4.79-2.31,9.57-2.15,14.26a26,26,0,0,0,1.22,6.89,12.09,12.09,0,0,0,3.65,5.59l.65.53.72.4a7.58,7.58,0,0,0,1.53.63,8.38,8.38,0,0,0,3.39.12,11.4,11.4,0,0,0,1.7-.42,14,14,0,0,0,1.64-.71l.8-.42c.26-.15.51-.32.76-.49a15.05,15.05,0,0,0,4-3.75,13.81,13.81,0,0,0,1.86-3.17,29,29,0,0,0,1.81-7.16c.69-4.89.63-9.86,1.48-14.73a25.79,25.79,0,0,1,2.32-7,18.14,18.14,0,0,1,4.47-5.84,11.8,11.8,0,0,1,3.15-1.91,10.4,10.4,0,0,1,3.6-.8,11.32,11.32,0,0,1,6.95,2.13,16.42,16.42,0,0,1,4.91,5.47,20.73,20.73,0,0,1,2.29,7,42.11,42.11,0,0,1-.51,14.72,65,65,0,0,1-1.86,7.17c-.73,2.33-1.78,4.68-1.57,7.18a5.56,5.56,0,0,0,1.39,3.36,6.14,6.14,0,0,0,3.21,1.73,18.76,18.76,0,0,0,7.35-.16A37.56,37.56,0,0,0,450,250.84a41.18,41.18,0,0,0,10.67-10.14,74.48,74.48,0,0,0,7.3-12.86c4.1-9,7-18.46,11.46-27.31,2.23-4.38,5-8.67,9.08-11.58a17.31,17.31,0,0,1,6.77-2.94c2.42-.53,4.89-.71,7.32-1.1a16.92,16.92,0,0,0,6.92-2.4,13.12,13.12,0,0,0,1.45-1.13,11.36,11.36,0,0,0,1.23-1.37,11.65,11.65,0,0,0,1.76-3.23,22.12,22.12,0,0,0,1.14-7.27c.05-2.47-.14-4.94-.31-7.4s-.39-4.92-.43-7.39a27.87,27.87,0,0,1,.69-7.35,13.63,13.63,0,0,1,1.36-3.44,14.15,14.15,0,0,1,1-1.54,12.39,12.39,0,0,1,1.28-1.33,11,11,0,0,1,6.69-2.84,17.64,17.64,0,0,1,13.4,5.21A40.81,40.81,0,0,1,548,154.94a17.74,17.74,0,0,1,2,7.06,11.3,11.3,0,0,1-.55,3.65,13.77,13.77,0,0,1-1.63,3.31,28,28,0,0,1-4.95,5.48c-.91.83-1.88,1.6-2.82,2.4a26.9,26.9,0,0,0-2.61,2.62,42,42,0,0,0-4.32,6c-.63,1.05-1.23,2.13-1.8,3.23a21.19,21.19,0,0,0-1.45,3.4,16.68,16.68,0,0,0-.77,3.62,6.79,6.79,0,0,0,.52,3.62,6.15,6.15,0,0,0,2.64,2.51c1.08.59,2.24,1,3.33,1.61a7.64,7.64,0,0,1,2.84,2.32,9.51,9.51,0,0,1,1.43,3.39,8.34,8.34,0,0,1-1.77,6.94,15.59,15.59,0,0,1-6.07,4.11c-2.28,1-4.65,1.67-7,2.51a25.82,25.82,0,0,0-6.59,3.32,20.81,20.81,0,0,0-5.13,5.29,25.94,25.94,0,0,0-4.15,14,63.06,63.06,0,0,0,.46,7.39,49.3,49.3,0,0,1,.22,7.39,18.63,18.63,0,0,1-1.76,7.15,7.69,7.69,0,0,1-2.35,2.81,17,17,0,0,1-3.17,1.9c-2.22,1.08-4.57,1.87-6.85,2.82a19.6,19.6,0,0,0-3.3,1.66,7,7,0,0,0-1.41,1.19,3.43,3.43,0,0,0-.79,1.65,5.09,5.09,0,0,0,1,3.47,9.2,9.2,0,0,0,2.63,2.57,26.49,26.49,0,0,0,6.81,2.85c1.17.37,2.36.73,3.5,1.19a14.55,14.55,0,0,1,3.23,1.79,14.35,14.35,0,0,1,4.62,5.68,13.38,13.38,0,0,1,1.06,3.54,10.37,10.37,0,0,1,.21,1.84,11.31,11.31,0,0,1,0,1.84,17.57,17.57,0,0,1-2.22,7c-2.4,4.34-6,7.87-9.56,11.23s-7.2,6.76-10.56,10.38-6.58,7.37-9.6,11.28-6.42,7.53-8.9,11.82a28.16,28.16,0,0,0-3.86,14.13,45.63,45.63,0,0,0,2.31,14.56,30.27,30.27,0,0,0,3,6.77,58.89,58.89,0,0,0,4.21,6.09c1.49,2,3,3.9,4.44,5.92s2.79,4.08,4.13,6.16c2.66,4.16,5.19,8.39,7.83,12.57a44.85,44.85,0,0,1,3.47,6.53,17.37,17.37,0,0,1,1.49,7.2,10.51,10.51,0,0,1-2.74,6.72,15.88,15.88,0,0,1-6.09,4.09,18.87,18.87,0,0,1-7.24,1.34,17.63,17.63,0,0,1-7.12-1.8,18.83,18.83,0,0,1-5.72-4.63,32.72,32.72,0,0,1-4-6.19,121.55,121.55,0,0,1-5.61-13.7c-1.73-4.61-3.42-9.31-6.2-13.42a35.24,35.24,0,0,0-10.9-9.86A48.1,48.1,0,0,0,430,392.91a60.12,60.12,0,0,0-7.31-1.17,49.4,49.4,0,0,0-7.4-.09c-4.94.27-9.8,1.18-14.71,1.73-2.46.19-4.93.1-7.4.11a31.26,31.26,0,0,0-7.36.62,6.21,6.21,0,0,0-3.2,1.75,3.89,3.89,0,0,0-.87,1.61,4,4,0,0,0,0,1.83,5.17,5.17,0,0,0,2,3,8.53,8.53,0,0,0,3.39,1.41c1.2.27,2.43.46,3.62.79a7.84,7.84,0,0,1,3.26,1.69,6.3,6.3,0,0,1,1.9,3.11,7.85,7.85,0,0,1,0,3.67,9.38,9.38,0,0,1-4.12,5.92,13.09,13.09,0,0,1-7.07,1.85,20.82,20.82,0,0,1-7.22-1.48,71.74,71.74,0,0,1-6.72-3.11A60.15,60.15,0,0,0,357,411a44.33,44.33,0,0,0-14.7-1,41.36,41.36,0,0,0-14.12,4.19,54.26,54.26,0,0,0-12.12,8.43,62.12,62.12,0,0,0-9.8,11.06,42.06,42.06,0,0,0-3.65,6.43,17.61,17.61,0,0,0-1.24,3.48,13.42,13.42,0,0,0,0,3.69c.22,2.46.78,4.89.78,7.36a8.4,8.4,0,0,1-.67,3.61,6,6,0,0,1-2.51,2.64,10.32,10.32,0,0,1-7.22.49,23.57,23.57,0,0,1-6.78-2.91,18.3,18.3,0,0,1-3-2.22,26.71,26.71,0,0,1-2.44-2.77,29.41,29.41,0,0,1-3.71-6.4c-2-4.53-3.19-9.34-4.79-14a47.35,47.35,0,0,0-2.85-6.83,24.85,24.85,0,0,0-4.22-6,12.5,12.5,0,0,0-2.91-2.26,8.33,8.33,0,0,0-3.54-1,10.3,10.3,0,0,0-1.84.06c-.61.12-1.22.2-1.82.38a28.8,28.8,0,0,0-3.49,1.21c-2.29.93-4.53,2-6.85,2.82a16.58,16.58,0,0,1-7.29.88,15.8,15.8,0,0,1-6.95-2.38,17.65,17.65,0,0,1-5.25-5.15c-2.78-4.11-4.37-8.84-6.34-13.36a41.17,41.17,0,0,0-3.4-6.56,22.62,22.62,0,0,0-5-5.42,18.25,18.25,0,0,0-6.56-3.32,14.3,14.3,0,0,0-7.32.11c-2.39.6-4.67,1.61-7.07,2.21a31.78,31.78,0,0,1-3.61.78l-1.83.28-1.85.13a46,46,0,0,1-14.67-1.57,87.59,87.59,0,0,1-13.92-5c-4.51-2-8.9-4.28-13.26-6.59a35.61,35.61,0,0,1-6.25-3.95c-1.95-1.55-3.23-3.73-4.95-5.49a11.33,11.33,0,0,0-6.52-3.21,38.82,38.82,0,0,0-7.39-.1A22.36,22.36,0,0,1,100,360.24a48.59,48.59,0,0,1-11-9.8c-3.23-3.74-6.11-7.76-9.09-11.7-1.49-2-3-3.91-4.61-5.79s-3.22-3.75-4.71-5.72a42,42,0,0,1-4-6.21,48.11,48.11,0,0,1-2.82-6.85c-1.55-4.69-2.74-9.48-4.09-14.23l-3.94-14.28c-2.55-9.53-4.92-19.19-5.52-29.06a60.29,60.29,0,0,1,.8-14.76,56.87,56.87,0,0,1,4.24-14.15,87.42,87.42,0,0,1,7.37-12.84c2.72-4.09,5.36-8.36,6.66-13.14l.27-.89c.07-.3.11-.6.16-.91l.32-1.82a11.43,11.43,0,0,0,.16-1.84l.1-1.85a55.19,55.19,0,0,0-.59-7.37c-.67-4.89-1.51-9.78-1.47-14.73a28.72,28.72,0,0,1,.93-7.33,18.76,18.76,0,0,1,3.18-6.65,12.19,12.19,0,0,1,6-4.22,8.61,8.61,0,0,1,3.67-.35A8,8,0,0,1,85.35,155a11.43,11.43,0,0,1,1.48,1.11,16.09,16.09,0,0,1,1.24,1.38c.7,1,1.05,2.25,1.7,3.29A3.42,3.42,0,0,0,91.05,162a2.85,2.85,0,0,0,1.79.26c1.24-.23,2-1.35,2.69-2.35s1.2-2.16,1.87-3.2A17.49,17.49,0,0,1,99.85,154a11.42,11.42,0,0,1,3.08-2,10.59,10.59,0,0,1,3.59-.85,16.76,16.76,0,0,1,7.21,1.47,70.61,70.61,0,0,1,6.6,3.37,25,25,0,0,0,6.83,2.76c1.21.25,2.43.39,3.65.6s2.41.53,3.62.79l14.45,3.28L156.1,165l7.26,1.49q14.52,2.9,29.16,5.22a685.21,685.21,0,0,0,118,8.55q3.71,0,7.4-.16t7.41-.24c4.93-.14,9.86-.49,14.8-.66a15.49,15.49,0,0,1,7.23,1.35,6.33,6.33,0,0,1,2.75,2.45,5,5,0,0,1,.23,3.64,27.47,27.47,0,0,1-3.45,6.54,18.12,18.12,0,0,0-1.73,3.25,2.7,2.7,0,0,0-.1,1.77,2.11,2.11,0,0,0,1.33,1.12,5.28,5.28,0,0,0,.89.23,5.55,5.55,0,0,0,.9.12,6.59,6.59,0,0,0,1.82-.19,23.19,23.19,0,0,0,3.46-1.27c2.27-1,4.51-2,6.77-3,4.51-2,9.21-3.81,14.18-4.08a67.82,67.82,0,0,1,7.41.08,34.17,34.17,0,0,1,7.31,1.23c2.32.71,4.73,1.87,6,4a6.37,6.37,0,0,1,.88,3.54A8.46,8.46,0,0,1,395.14,203.51Z"/></svg>