<svg id="Layer_1" data-name="Layer 1" xmlns="http://www.w3.org/2000/svg" viewBox="0 0 600 600"><title>Venezuela</title><path d="M176.18,139.84a15.11,15.11,0,0,0-6.16-3.27c-2.26-.68-4.59-1-6.91-1.45a13.44,13.44,0,0,1-6.64-2.94,11,11,0,0,1-3.16-6.72,19.71,19.71,0,0,1-.2-3.68l.15-1.89.44-1.87a12.08,12.08,0,0,1,12-8.59,13.47,13.47,0,0,1,9,4.14c.43.5.88,1,1.3,1.53a18.26,18.26,0,0,1,1.93,3.46,63.32,63.32,0,0,1,2.33,6.92c1.3,4.45,3,8.5,6.1,10a5.9,5.9,0,0,0,2.1.13c1-.07,2.11-.24,3.22-.42,2.25-.37,4.52-.88,7.08-1.21a18.64,18.64,0,0,1,2.08-.15c.88,0,1.4.06,2,.1,1.21.09,2.43.2,3.66.35a43.54,43.54,0,0,1,7.44,1.53,27,27,0,0,1,13.18,8.74c.86,1,1.61,2,2.3,3l2.05,2.93a60,60,0,0,0,4,5.31,20.51,20.51,0,0,0,4.41,3.92,14.46,14.46,0,0,0,5.08,1.95,24.17,24.17,0,0,0,11.75-1.33,99.54,99.54,0,0,0,12.08-5.69c2.12-1.1,4.34-2.21,6.73-3.2a45.13,45.13,0,0,1,7.65-2.52,45.61,45.61,0,0,1,16.35-.48,82.83,82.83,0,0,1,14.63,3.78c4.56,1.57,8.89,3.27,13.15,4.66,1.06.35,2.13.7,3.18,1s2.12.63,3.17.82,2.12.47,3.16.6a28.12,28.12,0,0,0,3.13.38,34.48,34.48,0,0,0,12.4-1.38,56.13,56.13,0,0,0,11.92-5.16c1.93-1.07,3.84-2.24,5.72-3.49s3.77-2.54,5.64-3.9,3.73-2.76,5.62-4.19l2.85-2.15c1-.72,2-1.47,3.08-2.2A103.44,103.44,0,0,1,415.1,123a94.68,94.68,0,0,1,31.48-4.52c1.33,0,2.64.07,3.95.16l2,.13.51,0,.72.08,1.45.18a27.24,27.24,0,0,1,6.3,1.7,19.37,19.37,0,0,1,6.37,4.28,19,19,0,0,1,4.42,6.93,19.68,19.68,0,0,1,1.08,7.27,25.52,25.52,0,0,1-1,5.89l-.35,1.28c-.13.37-.25.71-.36,1.06-.24.66-.46,1.3-.63,1.9a20.48,20.48,0,0,0-.78,3.23,15,15,0,0,0-.29,2.49,3,3,0,0,0,.81,2.6,6.85,6.85,0,0,0,3.3,1.4,18.58,18.58,0,0,0,2.47.25c.88,0,1.74,0,2.83,0a48.13,48.13,0,0,0,7.69-1,28.31,28.31,0,0,1,5.15-.39,18.83,18.83,0,0,1,6,1.05,20.56,20.56,0,0,1,5.63,3,29.19,29.19,0,0,1,4.24,4.13,31.39,31.39,0,0,1,5.08,8.84,41.13,41.13,0,0,1,2.07,8.23c.42,2.49.67,4.77,1.1,6.77a16.69,16.69,0,0,0,1.79,5.09l.29.51.34.45s.17.24.1.12a.76.76,0,0,0-.11-.14c-.06-.08-.26-.17-.19-.17v0l.21.08a3.31,3.31,0,0,0,.71.26,23.71,23.71,0,0,0,5.27.89c2.1.16,4.38.18,6.79.16s4.91,0,7.63.11a40.14,40.14,0,0,1,9,1.38c.8.21,1.73.55,2.64.88a24.2,24.2,0,0,1,2.9,1.33,15.85,15.85,0,0,1,1.61.93c.55.35,1.08.68,1.64,1.09s1.19,1,1.77,1.51c.29.26.57.51.86.8s.62.68.92,1a25.68,25.68,0,0,1,1.71,2.2,28.26,28.26,0,0,1,1.52,2.75,22.54,22.54,0,0,1,1.79,6.19,29,29,0,0,1,.19,3.1,10.09,10.09,0,0,1-.09,1.4c0,.44-.1.89-.17,1.33s-.14.88-.23,1.32a8.57,8.57,0,0,1-.3,1.19c-.22.7-.47,1.39-.74,2.08-.13.34-.27.68-.42,1s-.29.55-.44.83c-.3.53-.61,1-.93,1.55a16.2,16.2,0,0,1-2,2.53c-.35.37-.69.74-1,1.09s-.7.58-1,.86c-.7.56-1.41,1.06-2.14,1.59a31.47,31.47,0,0,1-4.55,2.63c-1.44.71-2.79,1.29-4,1.88a23.52,23.52,0,0,0-5.7,3.63,20.39,20.39,0,0,0-3.3,3.26,6.13,6.13,0,0,0-1.24,2.36c0,.13,0,.3-.06.47a1.18,1.18,0,0,0,0,.32,1.64,1.64,0,0,0,0,.37,10.66,10.66,0,0,0,.47,2.14c.5,1.7,1.43,3.94,2.29,6.75a32.3,32.3,0,0,1,1.12,4.93,21.26,21.26,0,0,1,.2,3c0,.51,0,1.06-.08,1.59a11.41,11.41,0,0,1-.21,1.62c-.1.54-.21,1.09-.34,1.63s-.29,1-.44,1.45a20.69,20.69,0,0,1-1.19,2.79,22.43,22.43,0,0,1-3.26,4.81,41.06,41.06,0,0,1-7,6,49.38,49.38,0,0,0-4.79,3.71,5.36,5.36,0,0,0-1,1.27,1.64,1.64,0,0,0-.21.74c0,.2,0,.41,0,.75a9.43,9.43,0,0,0,.25,1.33,12.81,12.81,0,0,0,1.49,3.31,13,13,0,0,0,1.3,1.78,17.89,17.89,0,0,0,1.78,1.86c1.34,1.28,3.09,2.61,5.09,4.25a58.63,58.63,0,0,1,6.68,6.11c.58.65,1.16,1.33,1.73,2l.85,1.11c.12.15.31.47.49.77l.52.9a27.7,27.7,0,0,1,2.85,7.66,17.24,17.24,0,0,1,.36,1.91c.1.62.19,1.28.25,1.89a33.29,33.29,0,0,1,.11,3.57,37.18,37.18,0,0,1-.68,6.42,42.26,42.26,0,0,1-3.5,10.31,47.22,47.22,0,0,1-4.93,8,76.64,76.64,0,0,1-5.61,6.75,79.74,79.74,0,0,1-6.09,6,77.67,77.67,0,0,1-6.9,5.48,72.86,72.86,0,0,1-15.6,8.29,91.11,91.11,0,0,1-16.17,4.57c-2.69.52-5.37.91-8,1.23q-2,.23-4,.39c-1.34.1-2.58.18-4.19.27a62.47,62.47,0,0,1-8.79-.11c-2.77-.29-5.48-.6-8-1-5.09-.8-9.64-1.71-13.88-2.37-2.1-.31-4.15-.59-6.07-.69a41.07,41.07,0,0,0-5.55,0,12.88,12.88,0,0,0-7.9,3.27,6.68,6.68,0,0,0-2,2.9,6.15,6.15,0,0,0-.11,3.26c.52,2.3,2.53,5.26,5.64,7.82a31.18,31.18,0,0,0,5.54,3.4l1.6.77.84.37.94.5,1.93,1c.64.36,1.29.75,1.94,1.13a23,23,0,0,1,2,1.26l2,1.4a30.45,30.45,0,0,1,3.85,3.59l.91,1c.3.36.59.78.89,1.18s.56.83.84,1.25a12,12,0,0,1,.8,1.33c.51,1,1,1.92,1.42,2.95s.76,2.2,1.07,3.33a25.64,25.64,0,0,1-.67,14.41l-.61,1.63c-.22.53-.48,1-.73,1.47a22.17,22.17,0,0,1-1.64,2.73c-.58.8-1.24,1.56-1.86,2.31a21.2,21.2,0,0,1-2,1.93,14.89,14.89,0,0,1-2.08,1.65c-.69.48-1.4.94-2.12,1.37a6.73,6.73,0,0,1-1,.52l-.92.44-1.84.86c-2.48,1.11-4.9,2.2-7.12,3.47a31.49,31.49,0,0,0-3.21,2,31.06,31.06,0,0,0-2.94,2.27c-.95.8-1.85,1.64-2.79,2.45L416.41,471l-2.85,2.41-2.91,2.35-2.92,2.35-3,2.31c-4,3.08-8.15,6.05-12.5,8.91a118.28,118.28,0,0,1-13.78,7.84A89.26,89.26,0,0,1,363.07,503a74.16,74.16,0,0,1-16.79,2.49l-2.15.06-2.17,0c-1.44,0-2.88-.14-4.32-.27a59.25,59.25,0,0,1-8.58-1.3,65.56,65.56,0,0,1-8.35-2.29,80.24,80.24,0,0,1-8-3.13,84.94,84.94,0,0,1-27.33-19.83c-.94-1-1.87-2.09-2.77-3.16s-1.77-2.17-2.6-3.3a77,77,0,0,1-4.87-7.33,60.49,60.49,0,0,1-6.6-16.52,90,90,0,0,1-2.19-16.11c-.29-5.1-.24-9.9-.41-14.51-.06-2.3-.15-4.57-.32-6.78-.06-1.13-.18-2.21-.27-3.31s-.24-2.1-.38-3.09a92.2,92.2,0,0,0-3.17-12.81,37.62,37.62,0,0,0-2.62-6.65c-.56-1.11-1.15-2.21-1.8-3.3l-1.91-3.39c-.61-1.19-1.22-2.38-1.75-3.62a36.74,36.74,0,0,1-1.34-3.91,34.11,34.11,0,0,1-.75-4.24l-.15-2.22-.07-1.11c0-.38,0-.77,0-1.15a32.58,32.58,0,0,1,.35-4.68l.38-2.37c.15-.79.41-1.59.63-2.37s.46-1.61.72-2.31.53-1.31.81-1.92c.55-1.27,1.13-2.43,1.7-3.57,2.33-4.48,4.67-8.18,5.94-11.76a21.4,21.4,0,0,0,.71-2.56,12,12,0,0,0,.21-2.46,10.51,10.51,0,0,0-.25-2.4,8.41,8.41,0,0,0-.74-2.12,5.1,5.1,0,0,0-2.29-2.53,4.29,4.29,0,0,0-2.67-.2,17,17,0,0,0-1.9.5c-.71.26-1.5.56-2.35.92s-1.76.8-2.74,1.28-2,1-3,1.5c-3.91,2-8,4.46-12.65,6.62a59.65,59.65,0,0,1-16.12,5.08l-2.38.29-1.19.13-1.26.07a20.27,20.27,0,0,1-5.13-.24c-.87-.15-1.73-.37-2.59-.6a10.09,10.09,0,0,1-1.29-.47c-.43-.16-.86-.34-1.28-.54q-1.26-.57-2.46-1.26c-.81-.5-1.59-1-2.35-1.55s-1.52-1-2.23-1.64l-2.08-1.74c-1.41-1.09-2.63-2.32-3.93-3.37a36.32,36.32,0,0,1-3.61-3.3c-1.06-1.1-2-2.18-2.82-3.21-1.67-2.05-3-3.87-4.17-5.36a15.86,15.86,0,0,0-1.77-2,18.67,18.67,0,0,0-2-1.8l-1.08-.81c-.36-.27-.78-.47-1.17-.72s-.79-.48-1.19-.7-.87-.39-1.3-.59l-1.31-.55-1.41-.43c-.47-.13-.93-.29-1.41-.41l-1.48-.29a46.7,46.7,0,0,0-12.63-.45,106.52,106.52,0,0,0-13.55,2.16L132,309l-1.83.39-2,.35c-1.35.23-2.71.41-4.08.57a65.92,65.92,0,0,1-17,0,49.67,49.67,0,0,1-17.83-6,40.08,40.08,0,0,1-8.49-6.38,41.78,41.78,0,0,1-3.67-4.25,36.72,36.72,0,0,1-3-4.85,36.31,36.31,0,0,1-2.19-5.26,39.17,39.17,0,0,1-1.29-5.4c-.11-.9-.23-1.8-.3-2.68s-.1-1.76-.12-2.63c0-1.47.16-2.8.28-4.05.49-5,1.24-8.64,1-11.39a8.8,8.8,0,0,0-1.28-4.06,19.42,19.42,0,0,0-3.59-4.25,52.05,52.05,0,0,0-5.25-4.17c-.47-.35-1-.71-1.49-1L58.1,242.5c-.56-.45-1.16-.87-1.74-1.31s-1.07-1-1.63-1.44a52,52,0,0,1-11.24-13.61,39.26,39.26,0,0,1-5.1-17.4,36.59,36.59,0,0,1,.72-9.27c.17-.76.35-1.52.57-2.27a14.45,14.45,0,0,1,.74-2.22,33.53,33.53,0,0,1,2-4.24c3.06-5.44,7.95-9.73,12.48-12.85l6.46-4.44,5.86-4.15c1.88-1.34,3.69-2.64,5.31-4.06A40.86,40.86,0,0,0,77,160.81c1.36-1.63,2.65-3.39,3.92-5.24s2.44-3.84,3.68-5.84a105.43,105.43,0,0,1,8.3-12.25l.61-.75.72-.81c.48-.51,1-1,1.45-1.47,1-.94,2-1.79,3-2.6a48.59,48.59,0,0,1,6.55-4.34,33.62,33.62,0,0,1,7.66-3,20.1,20.1,0,0,1,4.49-.63,14.18,14.18,0,0,1,5,.76,11.8,11.8,0,0,1,4.51,2.84,11.67,11.67,0,0,1,2.79,4.52,12.24,12.24,0,0,1-.84,9.67,11.68,11.68,0,0,1-3.09,3.61,19.25,19.25,0,0,1-3.52,2.21c-2.3,1.14-4.45,1.93-6.12,3a7.63,7.63,0,0,0-3.38,3.94,17.38,17.38,0,0,0-.85,6c0,2.24.17,4.59.17,7.07a31,31,0,0,1-.89,7.5c-1.17,4.87-3.16,9.25-4.86,13.57s-3.15,8.65-3.37,13a16.56,16.56,0,0,0,.77,6.32,14.47,14.47,0,0,0,3.35,5.34c3,3.12,7.18,5.27,11.44,6.92,2.14.82,4.37,1.56,6.57,2.17a17.93,17.93,0,0,0,6.52.74,10.5,10.5,0,0,0,5.76-2.47,13.37,13.37,0,0,0,3.58-5.39,28.57,28.57,0,0,0,1.24-13.46A33.54,33.54,0,0,0,140.6,195c-.74-2.22-1.54-4.43-2.31-6.66a61.13,61.13,0,0,1-3.46-13.79,23.52,23.52,0,0,1,.39-7.15,17.14,17.14,0,0,1,2.93-6.53c2.91-3.83,7-6.51,11.09-8.74,8.33-4.45,17.33-7.36,26.28-10.24-8.81,3.27-17.69,6.59-25.7,11.3a49.05,49.05,0,0,0-5.69,3.87,23.91,23.91,0,0,0-4.68,4.75l-.87,1.36-.7,1.48a15.31,15.31,0,0,0-1,3.1,21.85,21.85,0,0,0-.3,6.62,59.77,59.77,0,0,0,3.51,13.31c.78,2.21,1.61,4.41,2.38,6.66a35,35,0,0,1,1.72,7.08A30.15,30.15,0,0,1,143,215.94a15.63,15.63,0,0,1-4.15,6.29,12.72,12.72,0,0,1-7,3.07,20.06,20.06,0,0,1-7.37-.76c-2.33-.63-4.57-1.36-6.82-2.2-4.44-1.7-8.87-3.9-12.35-7.41a16.78,16.78,0,0,1-4-6.21,19.16,19.16,0,0,1-1-7.25c.22-4.88,1.76-9.47,3.45-13.87s3.58-8.7,4.6-13.23a27.88,27.88,0,0,0,.75-6.87c0-2.33-.22-4.67-.25-7.05a20.09,20.09,0,0,1,.94-7.11,10.83,10.83,0,0,1,4.54-5.54c2-1.29,4.26-2.12,6.34-3.18a10.77,10.77,0,0,0,5-4.48,8.16,8.16,0,0,0,.16-6.62,7.58,7.58,0,0,0-2-2.75,7.86,7.86,0,0,0-3-1.63,12.79,12.79,0,0,0-6.83.16,28.14,28.14,0,0,0-6.44,2.69,42.31,42.31,0,0,0-5.83,3.9,31.4,31.4,0,0,0-5.05,4.86,98.1,98.1,0,0,0-8,11.61A106.39,106.39,0,0,1,81,164a63.07,63.07,0,0,1-10.24,9.69,110,110,0,0,0-10.71,9.17,34.64,34.64,0,0,0-7.63,11.75,37.37,37.37,0,0,0,8.3,39.2c3.29,3.38,7.35,5.85,11,8.82a40.52,40.52,0,0,1,5.13,4.84,22.57,22.57,0,0,1,3.76,5.93c1.86,4.36,2.29,9.12,2.84,13.77a44,44,0,0,0,1.21,6.94,25.75,25.75,0,0,0,2.8,6.46,28.62,28.62,0,0,0,10.08,9.66,47.3,47.3,0,0,0,13.09,5.12,72.88,72.88,0,0,0,14,1.86c2.35.1,4.71.08,7.06,0s4.7-.18,7.05-.28c4.69-.21,9.4-.41,14.1-.36a80.62,80.62,0,0,1,14,1.24,42.43,42.43,0,0,1,13.23,4.7,24.81,24.81,0,0,1,3,1.9,24.34,24.34,0,0,1,2.79,2.15c1.79,1.54,3.45,3.2,5.18,4.8a31.59,31.59,0,0,0,11.85,7.41,34.77,34.77,0,0,0,13.94,1.41,82.66,82.66,0,0,0,13.85-2.6c4.55-1.18,9.06-2.52,13.64-3.63,2.28-.55,4.58-1.07,6.9-1.43a23.68,23.68,0,0,1,7-.16,12.59,12.59,0,0,1,6.36,2.82,14.39,14.39,0,0,1,4,5.73,23.38,23.38,0,0,1,.8,13.87c-1,4.6-2.86,9-4.47,13.37-.39,1.11-.79,2.22-1.14,3.34-.19.56-.35,1.12-.52,1.69s-.25,1.14-.38,1.72-.27,1.14-.35,1.72l-.18,1.76a27.61,27.61,0,0,0-.12,3.52,55,55,0,0,0,2.38,13.87c1.29,4.52,2.9,8.95,4.46,13.38a127.84,127.84,0,0,1,4.18,13.47c1,4.59,1.65,9.26,2.23,13.93,1.15,9.31,1.9,18.78,4.95,27.73a49.7,49.7,0,0,0,6.3,12.57A72,72,0,0,0,296,467.49,81.19,81.19,0,0,0,319.39,483a74.87,74.87,0,0,0,27.37,6.11A82.94,82.94,0,0,0,374.54,485,111.57,111.57,0,0,0,400,472.89a145.6,145.6,0,0,0,22.2-17.36l2.54-2.45,2.48-2.51a51.92,51.92,0,0,0,4.64-5.3,19.89,19.89,0,0,0,3.23-6.23,14.52,14.52,0,0,0,.39-7,18.82,18.82,0,0,0-2.7-6.47,31.91,31.91,0,0,0-2-2.88c-.77-.88-1.5-1.81-2.34-2.63-1.61-1.72-3.4-3.25-5.13-4.84s-3.46-3.19-5.07-4.91a37.45,37.45,0,0,1-4.38-5.51,19.87,19.87,0,0,1-2.73-6.47,14.85,14.85,0,0,1,.22-7,15.45,15.45,0,0,1,3.44-6.09,22.38,22.38,0,0,1,12.09-6.8,55.63,55.63,0,0,1,14.06-.67c4.69.29,9.36.87,14.06,1.2,2.34.19,4.69.24,7,.25a53.28,53.28,0,0,0,7-.55,92.54,92.54,0,0,0,26.81-8.44,70.52,70.52,0,0,0,11.88-7.57A82.21,82.21,0,0,0,517.84,353a66,66,0,0,0,8.25-11.41,33.65,33.65,0,0,0,2.8-6.46,17.63,17.63,0,0,0,.82-6.95,14.48,14.48,0,0,0-2.52-6.51A52.42,52.42,0,0,0,523,316c-3-3.6-6.18-7.16-8.16-11.46a21.81,21.81,0,0,1-2-6.75A13.15,13.15,0,0,1,518,285.32a69.53,69.53,0,0,1,5.77-4.05,29.57,29.57,0,0,0,5.48-4.42,12.52,12.52,0,0,0,3.16-6.2,14.76,14.76,0,0,0-.75-6.93c-.7-2.25-1.63-4.41-2.35-6.65a17.11,17.11,0,0,1-1-6.94,14.64,14.64,0,0,1,2.47-6.54c2.58-4,6.45-6.83,10-9.84a39,39,0,0,0,5-4.92,21.61,21.61,0,0,0,3.61-6,7.23,7.23,0,0,0,.41-1.71,5.14,5.14,0,0,0,.09-.87l-.05-.88a6,6,0,0,0-1.42-3.15,10.37,10.37,0,0,0-1.25-1.23c-.48-.34-.94-.7-1.45-1a21.49,21.49,0,0,0-3.17-1.53A89.87,89.87,0,0,0,529,208.82c-2.3-.5-4.6-1-6.88-1.58a40.71,40.71,0,0,1-6.7-2.2,14.38,14.38,0,0,1-1.56-.81,9.85,9.85,0,0,1-1.46-1,13.33,13.33,0,0,1-2.28-2.69,42.56,42.56,0,0,1-3.42-6.16c-2-4.27-3.48-8.75-5.72-12.9s-5.16-8-9.34-10.27-9-2.55-13.63-3.28a29.83,29.83,0,0,1-6.83-1.76,14.73,14.73,0,0,1-5.77-3.94,11.21,11.21,0,0,1-2.56-6.47,40.4,40.4,0,0,1,.22-7,22,22,0,0,0-.22-7,10.28,10.28,0,0,0-3.61-5.86,14.06,14.06,0,0,0-6.43-2.65c-1.16-.19-2.33-.28-3.5-.37s-2.34-.21-3.52-.26a100.32,100.32,0,0,0-28,2.23A97.63,97.63,0,0,0,391.56,145c-8.16,4.66-16.06,9.83-24.59,13.82a71.67,71.67,0,0,1-13.24,4.85,47.41,47.41,0,0,1-14,1.43c-9.45-.48-18.44-3.67-27.44-6.3a96.36,96.36,0,0,0-13.71-3.2,43.11,43.11,0,0,0-14,.15c-9.29,1.81-17.39,7.11-26.51,9.54a30.11,30.11,0,0,1-14,.68,19.22,19.22,0,0,1-6.46-2.78,25.27,25.27,0,0,1-5.11-4.85c-3-3.64-5.24-7.82-8.14-11.52a23.64,23.64,0,0,0-11.43-7.86,39.33,39.33,0,0,0-6.86-1.54c-1.16-.18-2.33-.31-3.5-.42a14.72,14.72,0,0,0-3.51,0c-2.33.25-4.64.72-7,1.06a34.49,34.49,0,0,1-3.51.36,7.12,7.12,0,0,1-3.48-.51,11.51,11.51,0,0,1-4.75-5.11,33.49,33.49,0,0,1-2.32-6.66,60.18,60.18,0,0,0-2-6.74,15.89,15.89,0,0,0-1.61-3.12c-.35-.47-.74-.91-1.1-1.36a12.2,12.2,0,0,0-1.27-1.22,11,11,0,0,0-6.39-2.58,10.77,10.77,0,0,0-6.65,1.82,11.05,11.05,0,0,0-4.16,5.52l-.45,1.7-.2,1.74a18.83,18.83,0,0,0,.09,3.52,10.24,10.24,0,0,0,2.73,6.32,13.71,13.71,0,0,0,6.21,3.12c2.27.62,4.59,1,6.84,1.75a18.16,18.16,0,0,1,6.27,3.15Z"/><path d="M394.06,127.51a10.33,10.33,0,0,0,2.74-4.18,12.67,12.67,0,0,0,.75-4.89A6.71,6.71,0,0,0,396,114.2a4.41,4.41,0,0,0-.77-.67,5,5,0,0,0-.9-.45,5.13,5.13,0,0,0-2-.35,11.21,11.21,0,0,0-4.16.92,26.65,26.65,0,0,0-4,2,39.76,39.76,0,0,0-7.11,5.51,16.63,16.63,0,0,0-2.52,3c-.13.24-.25.47-.34.66a1.86,1.86,0,0,0-.21.62,8.3,8.3,0,0,0-.2,1.75,8.67,8.67,0,0,0,.81,3.65,6.74,6.74,0,0,0,2.49,2.95,6.06,6.06,0,0,0,4,.87,12.86,12.86,0,0,0,4.52-1.63c1.47-.8,2.87-1.78,4.3-2.69A47.36,47.36,0,0,0,394.06,127.51Zm0,0c-1.29,1.08-2.67,2.07-4,3.13s-2.57,2.18-3.89,3.28a17.68,17.68,0,0,1-4.51,2.86,9,9,0,0,1-5.91.36,10.65,10.65,0,0,1-5.2-3.4,12.53,12.53,0,0,1-2.78-5.71,11.72,11.72,0,0,1-.21-3.3,8.61,8.61,0,0,1,.31-1.85,9.77,9.77,0,0,1,.63-1.68,17.81,17.81,0,0,1,3.62-5,26.91,26.91,0,0,1,9.46-6,23.19,23.19,0,0,1,5.5-1.36,14.84,14.84,0,0,1,5.9.42,7.64,7.64,0,0,1,4.72,3.73,9,9,0,0,1,.79,5.44,16.63,16.63,0,0,1-1.48,4.94A12.27,12.27,0,0,1,394.06,127.51Z"/></svg>