<svg id="Layer_1" data-name="Layer 1" xmlns="http://www.w3.org/2000/svg" viewBox="0 0 600 600"><title>Yemen</title><path d="M129.59,224.43c3.87.87,7.62,2.09,11.44,3.22s7.47,2.61,11.17,4c7.41,2.78,14.79,5.6,22.22,8.32,3.7,1.39,7.43,2.71,11.16,4s7.43,2.7,11.26,3.76l5.72,1.67,2.86.83c1,.28,1.9.55,2.81.78,3.71,1,7.47,1.49,11.62,2.64a23.1,23.1,0,0,1,6.93,3.05,16.41,16.41,0,0,1,1.89,1.56c.31.31.61.67.91,1a8.62,8.62,0,0,1,.82,1.11c.26.39.51.8.74,1.21s.37.85.54,1.29a7.7,7.7,0,0,1,.4,1.27,12.15,12.15,0,0,1,.28,1.24,17.46,17.46,0,0,1,.21,4.31,27.38,27.38,0,0,1-.49,3.61,54.29,54.29,0,0,1-1.74,6.18c-1.28,3.82-2.65,7.39-3.15,10.69a12.77,12.77,0,0,0-.2,2.32c0,.37,0,.68,0,1a8.85,8.85,0,0,0,.24.86,2.9,2.9,0,0,0,1.82,1.74l.31.13.39.1a4.33,4.33,0,0,0,.83.17,7,7,0,0,0,1,.09l.5,0,.42,0a2.92,2.92,0,0,0,2.17-1,8.25,8.25,0,0,0,1.46-2.35,23.06,23.06,0,0,0,1.29-3.94,67.47,67.47,0,0,0,1.39-9.9l.17-2.64,0-.33c0-.12,0-.2,0-.4l.14-1,.3-2.07a15.22,15.22,0,0,1,.44-2l.53-2a14.65,14.65,0,0,1,.66-1.83l.72-1.78a45.88,45.88,0,0,1,3.45-6.34c.62-1,1.31-1.87,2-2.79s1.33-1.78,2-2.62c1.33-1.74,2.75-3.27,4.16-4.81l2.11-2.25c.69-.74,1.4-1.44,2.11-2.16,2.81-2.85,5.59-5.6,8.22-8.35a88,88,0,0,0,7.22-8.56c2.27-3,4.44-6.34,6.5-9.66s4-6.76,5.87-10.3c.92-1.77,1.83-3.55,2.71-5.37l2.68-5.47c.89-1.83,1.8-3.68,2.74-5.51l1.44-2.75,1.2-2.4c.84-1.63,1.71-3.49,2.79-5.36a56.85,56.85,0,0,1,3.79-5.85,34.08,34.08,0,0,1,6-6.23,23.44,23.44,0,0,1,4.64-3,30.06,30.06,0,0,1,4.53-1.78,69.48,69.48,0,0,1,7-1.66c1.85-.38,3.36-.72,4.1-.93l5.48-1.87c1.87-.64,3.74-1.29,5.62-1.88,15-5,30.23-9.26,45.36-13.91,3.78-1.16,7.56-2.37,11.31-3.61l5.64-1.85c1.88-.63,3.78-1.2,5.6-1.95,7.18-3.37,14.15-7.27,21.19-11s14.18-7.16,21.17-11c3.5-1.9,7-3.82,10.56-5.57.92-.43,1.73-.84,2.74-1.28s2.1-.91,3.36-1.34a36.81,36.81,0,0,1,4.11-1.23,31.69,31.69,0,0,1,5.12-.79,26.09,26.09,0,0,1,6.37.29,24.19,24.19,0,0,1,3.56.86,25.09,25.09,0,0,1,3.59,1.55,22.52,22.52,0,0,1,3.29,2.12,15.7,15.7,0,0,1,1.36,1.11c.41.36.78.73,1.17,1.1a28.38,28.38,0,0,1,3.57,4.6,28.91,28.91,0,0,1,2.21,4.3c.28.69.52,1.33.75,2l.31.92c.1.3.21.64.25.79.35,1.6.84,3.22,1.33,5,1,3.44,2.27,7.24,3.55,11.23l1.83,5.77c.61,1.91,1.22,3.84,1.9,5.72a136,136,0,0,0,9.7,21.74c1,1.7,2,3.43,3,5.11s2.09,3.36,3.24,5l1.69,2.46,1.77,2.4c.58.82,1.19,1.59,1.82,2.4l1.88,2.47c5.07,6.51,10.14,12.79,15.07,18.16l.45.5c.16.17.31.34.42.44l.78.76c.58.55,1.19,1.15,1.84,1.83l2.07,2.17c.7.78,1.42,1.64,2.17,2.55a41.23,41.23,0,0,1,4.5,6.71,28.27,28.27,0,0,1,2,4.81,26.71,26.71,0,0,1,1.26,6.46,23.2,23.2,0,0,1-.92,7.91,22.84,22.84,0,0,1-3.62,7.08,24.4,24.4,0,0,1-9.26,7.35c-.74.31-1.54.7-2.22.92s-1.39.48-2.09.69l-1.94.47c-.66.17-1.23.22-1.84.33a62.94,62.94,0,0,1-6.49.65c-3.93.19-7.21.44-9.4,1.21a7.88,7.88,0,0,0-1.36.62l-.31.16c-.07.06-.13.13-.21.19s-.32.19-.48.46-.36.44-.52.67a5.24,5.24,0,0,0-.41.73,8.74,8.74,0,0,0-.63,1.6,13.46,13.46,0,0,0-.2,4.1c.13,1.6.47,3.28.84,5.27a61.2,61.2,0,0,1,1,6.53,33.64,33.64,0,0,1,.16,3.82c0,.67-.08,1.38-.14,2.07l-.09,1-.17,1.08c-.13.73-.25,1.45-.44,2.16s-.44,1.45-.68,2.17l-.18.53c-.06.17-.12.35-.23.6-.2.45-.4.92-.63,1.34a19.66,19.66,0,0,1-1.48,2.45,27.14,27.14,0,0,1-6.92,6.52c-1.14.74-2.25,1.36-3.3,1.92l-3,1.5c-1,.49-2,.91-3.06,1.31s-2,.84-3.06,1.2c-8.17,3-16.16,4.81-23.51,7.36a85.12,85.12,0,0,0-10.5,4.21c-.83.39-1.64.82-2.41,1.25s-1.56.87-2.32,1.32a45.75,45.75,0,0,0-4.22,2.95c-.64.52-1.35,1-1.93,1.55l-1.77,1.63c-.57.55-1.07,1.15-1.6,1.71l-.79.83-.75.88c-2,2.42-4.16,5.35-7,8.55A55,55,0,0,1,433.82,356a39.91,39.91,0,0,1-7.76,3.88,34.09,34.09,0,0,1-7.7,1.82,50.4,50.4,0,0,1-13-.52l-2.79-.37c-.91-.1-1.74-.14-2.64-.22s-1.76,0-2.65,0-1.74.15-2.62.26c-6.84,1.16-13.38,4.79-17.24,10.23a17.37,17.37,0,0,0-1.35,2.06c-.21.35-.42.69-.61,1.05l-.54,1.09a27.41,27.41,0,0,0-1.75,4.55c-.47,1.72-.85,3.7-1.34,6-.24,1.15-.53,2.33-.93,3.62a28,28,0,0,1-1.52,4,27.08,27.08,0,0,1-2.45,4.16c-.47.62-1,1.25-1.46,1.87s-1.1,1.17-1.67,1.74a26.21,26.21,0,0,1-8.14,5.28,40.09,40.09,0,0,1-16.32,2.44A98.92,98.92,0,0,1,327,407.34c-1.78-.33-3.47-.6-5-.81a38.47,38.47,0,0,0-4.24-.37,11.1,11.1,0,0,0-6.41,1.41,4.75,4.75,0,0,0-.72.48l-.35.26c-.13.09-.29.25-.43.37-.58.53-1.16,1.11-1.75,1.76-1.2,1.28-2.42,2.78-3.75,4.38s-2.81,3.32-4.51,5c-.89.81-1.73,1.66-2.63,2.44s-1.79,1.56-2.75,2.23-1.89,1.39-2.88,2-2,1.22-3,1.8a57.77,57.77,0,0,1-6.09,3.06,75.67,75.67,0,0,1-12.58,4.1c-4.23,1-8.46,1.75-12.69,2.43-8.19,1.36-16.39,2.11-24.53,2.64l-6.09.41-3,.19-2.73.2a48.93,48.93,0,0,0-9.25,1.55,18.65,18.65,0,0,0-3.39,1.28,17.19,17.19,0,0,1-2.57,1.18,12,12,0,0,0-2.63,1.1,13.31,13.31,0,0,0-2.45,2.05c-.19.23-.41.45-.6.71l-.31.38a4,4,0,0,0-.32.55c-.43.79-.86,1.66-1.28,2.59s-.8,1.88-1.21,2.87-.73,2-1.05,3c-.68,2.07-1.24,4.24-2,6.56a19.78,19.78,0,0,1-3.95,7.11,15,15,0,0,1-3.69,3,17.24,17.24,0,0,1-4.42,1.66,23.12,23.12,0,0,1-8.15.11c-4.92-.83-8.68-2.15-11.51-2.26A23.18,23.18,0,0,0,149.3,478a8.29,8.29,0,0,0-.84.53c-.26.15-.53.35-.8.54-.54.38-1.11.84-1.72,1.33-2.44,2-5.54,5.1-10.51,7.82a29,29,0,0,1-8.39,3,29.35,29.35,0,0,1-8.91.32c-.73-.08-1.46-.18-2.18-.32s-1.44-.28-2.15-.47-1.4-.41-2.09-.66a15.45,15.45,0,0,1-2-.83,23,23,0,0,1-7.07-5.15,22.56,22.56,0,0,1-2.67-3.49,24,24,0,0,1-1.88-3.71,40.92,40.92,0,0,1-2-7c-.49-2.2-.9-4.22-1.44-6.14a49.1,49.1,0,0,0-2.06-5.62c-1.56-3.69-3.4-7.3-5.33-11q-1.49-2.76-2.94-5.64c-.93-1.94-1.86-3.91-2.67-6a45.6,45.6,0,0,1-2-6.39c-.27-1.08-.48-2.15-.65-3.2s-.32-2.06-.44-3.06c-.46-4-.59-7.56-1.06-10.67q-.15-1.15-.36-2.25c-.2-.73-.29-1.46-.51-2.22a46.87,46.87,0,0,0-1.48-4.72c-.61-1.61-1.29-3.32-2-5.05l-2.41-5.35-2.54-5.62c-.83-2-1.63-3.93-2.39-6a52.65,52.65,0,0,1-1.9-6.33,32.77,32.77,0,0,1-.65-3.25c-.19-1.05-.34-2.07-.48-3.05a17.4,17.4,0,0,0-.53-2.82A9.2,9.2,0,0,0,61,363.05a10.38,10.38,0,0,0-1.59-1.89c-.27-.28-.57-.5-.83-.74s-.58-.5-.87-.73a9.37,9.37,0,0,0-4-1.84c-.35-.08-.7-.13-1-.18l-1-.14A10.11,10.11,0,0,1,48.22,356a12.44,12.44,0,0,1-3.35-3.53,15.62,15.62,0,0,1-.84-1.56,15.23,15.23,0,0,1-.6-1.72A13.15,13.15,0,0,1,43,346a13.73,13.73,0,0,1,.19-2.4c.06-.38.12-.6.19-.9s.14-.59.21-.84c.14-.44.28-.92.44-1.33l.47-1.09,2.16-4.09a31.21,31.21,0,0,0,3.63-9.44,20.07,20.07,0,0,0,.19-5.25c-.08-.89-.23-1.7-.4-2.65s-.46-2-.68-3.15A21.8,21.8,0,0,1,49,307c.05-.34.1-.68.18-1l.19-.88.34-1.51c.22-1,.43-1.91.6-2.78a8.2,8.2,0,0,0,.15-3.95,2.33,2.33,0,0,0-.65-.9,1.18,1.18,0,0,0-.2-.17c-.08-.06-.11-.12-.19-.18s-.27-.26-.49-.41c-.36-.32-.71-.54-1.46-1.1-.34-.26-.85-.65-1.4-1.16a11.64,11.64,0,0,1-2-2.43,10.86,10.86,0,0,1-1.43-3.9,12,12,0,0,1-.14-1.95,12.45,12.45,0,0,1,.16-1.67c.09-.48.19-1,.31-1.41l.39-1.22A14.61,14.61,0,0,1,48,273.91a19,19,0,0,1,3.57-2.38,22.37,22.37,0,0,1,3.78-1.5c.32-.1.66-.19,1-.27l.85-.18c.57-.11,1.1-.2,1.64-.28,2.12-.32,4-.52,5.76-.81A13.29,13.29,0,0,0,69,267.12a6.92,6.92,0,0,0,2.84-3.06,10.23,10.23,0,0,0,.79-4.77c-.17-3.58-1.48-7.31-2.71-11.05s-2.76-7.53-3.16-11.74a13.27,13.27,0,0,1,.89-6.35,11.49,11.49,0,0,1,4.22-4.79,11.17,11.17,0,0,1,6-1.71,21.85,21.85,0,0,1,6,1c3.85,1.13,7.44,2.82,11.23,3.81a17.93,17.93,0,0,0,5.77.67,22.35,22.35,0,0,0,5.64-1.56c3.67-1.39,7.25-3.27,11.22-3.78a26.72,26.72,0,0,1,5.93-.1,44.46,44.46,0,0,1,5.86.84Zm0,.09a24.08,24.08,0,0,0-2.94-.36c-1-.1-2-.16-2.94-.19a26.32,26.32,0,0,0-5.83.37C114,225,110.65,227,107,228.59c-.92.41-1.86.79-2.82,1.13a13.8,13.8,0,0,1-3.1.77,19,19,0,0,1-6.28-.51c-4-.9-7.64-2.57-11.34-3.55a19.72,19.72,0,0,0-5.46-.8,8.94,8.94,0,0,0-4.9,1.48A9.25,9.25,0,0,0,69.74,231a10.88,10.88,0,0,0-.6,5.23c.43,3.7,1.89,7.37,3.27,11.05s2.92,7.45,3.49,11.58a15,15,0,0,1-.4,6.34,11.74,11.74,0,0,1-3.56,5.41,18.16,18.16,0,0,1-5.51,3.05c-1.92.71-3.84,1.25-5.69,1.85-.91.3-1.86.61-2.66,1a14.65,14.65,0,0,0-2.39,1.32,10.85,10.85,0,0,0-3.59,3.78,6.1,6.1,0,0,0-.44,1.11,8.2,8.2,0,0,0-.24,1.22,3.11,3.11,0,0,0,.34,2c.71,1.22,2.56,2.59,3.73,4.4a11.06,11.06,0,0,1,2.06,6.11,19.62,19.62,0,0,1-1.08,6.1c-.59,1.91-1.34,3.79-1.81,5.6a13,13,0,0,0,0,5.63c.38,1.9,1,3.82,1.31,5.79a45.6,45.6,0,0,1,.81,5.94,42.41,42.41,0,0,1-.87,11.94,41.83,41.83,0,0,1-1.72,5.76,7.5,7.5,0,0,0-.62,2.63,2.44,2.44,0,0,0,1.13,2.05,49,49,0,0,1,4.71,3.62,22.42,22.42,0,0,1,3.78,4.69c2.16,3.44,2.89,7.45,3.61,11.31a51.63,51.63,0,0,0,1.36,5.75,43.87,43.87,0,0,0,2.16,5.5c3.35,7.16,8.28,13.45,11.88,20.5a41.11,41.11,0,0,1,4,11.12,94.91,94.91,0,0,1,1.28,11.78A81.36,81.36,0,0,0,89,433.89a90.27,90.27,0,0,0,3.24,11.4c1.29,3.73,2.79,7.39,4.34,11s3.1,7.27,4.81,10.83a25.72,25.72,0,0,0,7.09,9.38,21.73,21.73,0,0,0,10.84,4.4,20.34,20.34,0,0,0,11.51-2c3.56-1.77,6.59-4.36,9.89-6.52a30,30,0,0,1,10.9-4.47,30.72,30.72,0,0,1,11.78-.07c3.9.73,7.51,2.47,11.39,3.27a15.78,15.78,0,0,0,5.89.21,10.14,10.14,0,0,0,2.79-1,9.34,9.34,0,0,0,2.32-1.82,14.31,14.31,0,0,0,2.88-5.13,35.52,35.52,0,0,0,1.38-5.76c.33-1.95.57-3.91.82-5.87a38.28,38.28,0,0,1,1-5.83,19.09,19.09,0,0,1,6.53-9.67,25.66,25.66,0,0,1,10.73-4.78c7.78-1.66,15.77-.68,23.64-.64a228.6,228.6,0,0,0,23.7-.67,72.57,72.57,0,0,0,22.94-5.55,46.51,46.51,0,0,0,10.11-6.12,41.43,41.43,0,0,0,4.33-4.05c1.33-1.46,2.54-3,3.72-4.61,2.36-3.16,4.55-6.5,7.47-9.18a21.42,21.42,0,0,1,10.55-5.07,51.31,51.31,0,0,1,11.81-.58c3.95.16,7.89.49,11.85.46A33.92,33.92,0,0,0,351,393.73a20.59,20.59,0,0,0,9.34-7c2.33-3.21,3.75-6.95,5.46-10.51a40.41,40.41,0,0,1,6.53-9.84,50.73,50.73,0,0,1,19.54-13.05,65.16,65.16,0,0,1,11.4-3.19c3.88-.76,7.79-1.36,11.62-2.33a35.88,35.88,0,0,0,10.91-4.51,60.25,60.25,0,0,0,9.14-7.51c2.85-2.74,5.62-5.56,8.66-8.1l1.14-.94,1.2-.87c.8-.58,1.58-1.19,2.41-1.73,1.67-1.05,3.33-2.13,5.09-3s3.54-1.77,5.32-2.62,3.64-1.55,5.5-2.21c3.7-1.41,7.47-2.6,11.24-3.78,7.55-2.33,15.15-4.54,22.46-7.58.91-.37,1.8-.8,2.71-1.2s1.8-.81,2.67-1.28l2.63-1.36c.87-.48,1.72-1,2.54-1.53a16.81,16.81,0,0,0,4.33-4,9.82,9.82,0,0,0,1.38-2.62l.49-1.39c.14-.48.24-1,.36-1.44,1.75-7.8-1.13-15.81.74-23.6a19.76,19.76,0,0,1,1-2.81,17.17,17.17,0,0,1,1.37-2.62,15.54,15.54,0,0,1,4.08-4.24A42.77,42.77,0,0,1,532.94,252c1.87-.63,3.74-1.25,5.59-1.95a31.92,31.92,0,0,0,5.37-2.49,14.3,14.3,0,0,0,4.43-3.86,8.49,8.49,0,0,0,1.64-5.57,15.17,15.17,0,0,0-1.62-5.65,40.27,40.27,0,0,0-3-5.11c-2.2-3.28-4.69-6.36-6.68-9.79-4.06-6.79-7.47-13.93-11.2-20.89l-23-41.47-5.76-10.37c-1.92-3.45-3.93-6.86-5.76-10.36-.92-1.75-1.79-3.53-2.59-5.34a28.68,28.68,0,0,0-2.79-5.21,12,12,0,0,0-4.32-3.94,10.77,10.77,0,0,0-5.76-1c-4,.35-7.64,2-11.33,3.36l-11.07,4.25-22.13,8.49-44.28,17-44.4,16.68-11.1,4.15c-3.75,1.33-7.73,1.69-11.5,2.88a15.53,15.53,0,0,0-5.23,2.67,27.54,27.54,0,0,0-4.15,4.21c-2.49,3.06-4.6,6.41-6.81,9.69Q298.6,202,292.18,212c-4.31,6.62-8.54,13.3-13,19.8s-9.8,12.41-15,18.37c-2.6,3-5.16,6-7.55,9.13a53.84,53.84,0,0,0-6.25,10c-.36.92-.81,1.81-1.1,2.75l-.42,1.41a9.11,9.11,0,0,0-.37,1.43c-.15,1-.36,1.94-.46,2.92s-.23,2-.38,2.94a52.86,52.86,0,0,1-2.88,11.49,24.11,24.11,0,0,1-2.77,5.24,12.3,12.3,0,0,1-4.39,3.94,9.84,9.84,0,0,1-5.8.91,13.63,13.63,0,0,1-5.56-2,8.34,8.34,0,0,1-2.14-2.05,9.11,9.11,0,0,1-1.25-2.68,16.06,16.06,0,0,1-.39-5.9,82.14,82.14,0,0,1,2.33-11.62c.46-1.92.91-3.85,1.22-5.79a18.73,18.73,0,0,0,.16-5.88,7.29,7.29,0,0,0-3.05-4.81,21.94,21.94,0,0,0-5.26-2.63c-3.71-1.36-7.5-2.49-11.18-3.94s-7.31-3-11-4.51l-21.92-9.06-21.91-9c-7.34-2.86-14.45-6.61-22.3-7.88Z"/><path d="M61.7,419.1a4,4,0,0,0-3.88-.19,2.78,2.78,0,0,0-1.26,1.3,3.85,3.85,0,0,0-.29,1.73,9.64,9.64,0,0,0,.22,1.85,6,6,0,0,0,.56,1.49,7.32,7.32,0,0,0,.85,1.2,5.63,5.63,0,0,0,1,.82,3.18,3.18,0,0,0,2.31.38l.72-.2a2.73,2.73,0,0,0,.6-.28,2.47,2.47,0,0,0,1-1.09A5.72,5.72,0,0,0,61.7,419.1Zm0,0a8.69,8.69,0,0,1,2.73,3.12,9.91,9.91,0,0,1,.83,2,6.53,6.53,0,0,1,.24,2.36,5.07,5.07,0,0,1-1.89,3.54,7,7,0,0,1-1.12.73,6,6,0,0,1-2.78.67,6.15,6.15,0,0,1-2.85-.82,7,7,0,0,1-2-1.94,7.4,7.4,0,0,1-1-2.44,7.23,7.23,0,0,1-.08-2.58,11.13,11.13,0,0,1,.62-2.24,5.61,5.61,0,0,1,1.29-2.05,4.22,4.22,0,0,1,2-1.09A5.53,5.53,0,0,1,61.7,419.1Z"/><path d="M61,403.69a4,4,0,0,0-3.88-.19,2.82,2.82,0,0,0-1.26,1.3,4,4,0,0,0-.29,1.73,9.65,9.65,0,0,0,.23,1.85,5.66,5.66,0,0,0,.56,1.49,7.11,7.11,0,0,0,.84,1.2,5.35,5.35,0,0,0,1,.82,3.15,3.15,0,0,0,2.3.38l.72-.2a2.73,2.73,0,0,0,.6-.28,2.47,2.47,0,0,0,1-1.09A5.72,5.72,0,0,0,61,403.69Zm0,0a8.6,8.6,0,0,1,2.73,3.12,9.48,9.48,0,0,1,.83,2,6.11,6.11,0,0,1,.24,2.36,4.9,4.9,0,0,1-.91,2.5,5.07,5.07,0,0,1-1,1,8.17,8.17,0,0,1-1.11.73,6,6,0,0,1-2.79.67,6.11,6.11,0,0,1-2.84-.82,7,7,0,0,1-2-1.94,7.14,7.14,0,0,1-1-2.45,7,7,0,0,1-.08-2.57,11.6,11.6,0,0,1,.61-2.24,5.61,5.61,0,0,1,1.29-2.05,4.26,4.26,0,0,1,2-1.09A5.48,5.48,0,0,1,61,403.69Z"/></svg>