<svg id="Layer_1" data-name="Layer 1" xmlns="http://www.w3.org/2000/svg" viewBox="0 0 600 600"><title>EquatorialGuinea</title><path d="M547.25,171.61a7.21,7.21,0,0,1,2.51,3.89,13.09,13.09,0,0,1,.1,4.67,44.75,44.75,0,0,1-2.52,9.08,36.08,36.08,0,0,0-2.48,8.75c-.28,3.1-.49,6.2-.65,9.3-.33,6.21-.39,12.42-.3,18.62s.35,12.41.84,18.6c.93,12.39,2.39,24.73,4,37.07L554,318.72c1.67,12.44,3.17,25,4.19,37.66.51,6.34.79,12.72,1,19.13.08,3.21.13,6.42.08,9.65l-.1,4.83-.07,2.43c-.06.89-.09,1.81-.16,2.69-.55,7.05-1.76,13.34-2.46,19a58.65,58.65,0,0,0-.53,8v.9l0,.73c0,.55.11,1.21.19,1.91l.54,4.49c.36,3.15.72,6.47.91,10a59.62,59.62,0,0,1-.34,11.55,29.22,29.22,0,0,1-1.91,7.27c-.32.71-.61,1.39-1,2.11a23.73,23.73,0,0,1-1.39,2.22,19.17,19.17,0,0,1-4.25,4.3c-.45.32-.9.62-1.36.91s-1,.53-1.45.77A18.7,18.7,0,0,1,540,471a16.73,16.73,0,0,1-2.67.15l-1.21,0-.58,0L534.4,471l-2.33-.12q-18.63-1-37.07-1.53c-12.29-.32-24.51-.43-36.62.11-1.52.05-3,.13-4.53.22l-4.88.24a50.63,50.63,0,0,1-6.09-.09,35,35,0,0,1-13.8-3.94l-4.15-2.2a25.78,25.78,0,0,0-2.9-1.32,7.82,7.82,0,0,0-1.87-.47,5.59,5.59,0,0,0-.83-.06,3.61,3.61,0,0,0-.46,0,2.42,2.42,0,0,0-.42,0,5.86,5.86,0,0,0-1.36.34,34.81,34.81,0,0,0-5.63,3.17l-2.29,1.39c-.89.5-1.74,1-2.77,1.5a34.43,34.43,0,0,1-6.86,2.64l-1,.25-.81.18-1.58.32c-1.05.18-2.09.34-3.12.47-2,.24-4.06.4-6,.44-3.85.12-7.36-.11-10.59-.27s-6.16-.34-8.77-.34c-.67,0-1.27,0-1.9,0l-2.28.07-4.68.18-9.36.37c-12.48.56-25,1.28-37.45,2-6.24.33-12.48.7-18.72,1l-9.29.4-9.34.35c-3.16.13-6.38.18-9.66.19s-6.6,0-10-.12a20.93,20.93,0,0,1-5.11-.72,42.91,42.91,0,0,1-5.08-1.89c-.42-.18-.84-.36-1.26-.51l-1.42-.54-1.37-.49-1.31-.43c-1.72-.55-3.22-.83-4.58-1.15s-2.49-.55-3.44-.69a15.33,15.33,0,0,0-2.3-.16,5,5,0,0,0-1.57.22,1.92,1.92,0,0,0-.37.11l-.19.06-.12,0s0,0-.12.08a14.36,14.36,0,0,0-2.77,3c-1.47,1.92-3.2,4.66-6.11,8.05a33.69,33.69,0,0,1-5.81,5.38,26,26,0,0,1-9.29,4.31,26.34,26.34,0,0,1-10,.31,29.73,29.73,0,0,1-4.09-.93l-1.88-.61-1.76-.71a48.71,48.71,0,0,1-10.56-6.43L171.09,480c-.52-.4-1-.74-1.44-1.06l-.66-.46-.84-.55c-2.32-1.48-5.27-3.1-8.56-5.33a39.62,39.62,0,0,1-9.78-9.15,24.17,24.17,0,0,1-3.81-7.72,38.48,38.48,0,0,1-1.19-6.19c-.19-1.69-.32-3-.45-4s-.25-1.45-.29-1.71c0,0,0-.06,0-.09s0-.07-.06-.17-.2-.32-.29-.49a2.8,2.8,0,0,0-.27-.42c-.09-.12-.17-.29-.25-.38a5.34,5.34,0,0,0-.82-.83,2.46,2.46,0,0,0-1.23-.45,7.65,7.65,0,0,0-2.5.06,24.09,24.09,0,0,0-3.42.79c-1.23.36-2.55.82-3.92,1.32-2.75,1-5.65,2.27-8.89,3.46-1.63.58-3.31,1.22-5.17,1.74a35.09,35.09,0,0,1-6.07,1.26,23.72,23.72,0,0,1-7.33-.2,10.88,10.88,0,0,1-1.1-.27l-1.15-.33a12.73,12.73,0,0,1-2.25-.93c-.37-.18-.74-.36-1.1-.56l-1-.67a13.53,13.53,0,0,1-1.83-1.44,25.58,25.58,0,0,1-4.62-5.76c-1-1.66-1.78-3-2.43-4a5.67,5.67,0,0,0-1.44-1.74c-.07-.09-.12-.07-.14-.07s0,0-.06,0v0l-.08,0a3,3,0,0,1-.42-.14,1,1,0,0,0-.41-.09l-.39-.09c-.29,0-.51-.08-.83,0a10.7,10.7,0,0,0-2.27.25c-.95.21-2.1.5-3.39.88a29.27,29.27,0,0,1-4.51,1c-1.55.71-3.25,1.76-5.22,2.65a17.93,17.93,0,0,1-6.54,1.45,36.45,36.45,0,0,1-6.92-.22,25,25,0,0,1-8.6-2.66,24.12,24.12,0,0,1-2.51-1.58,21.57,21.57,0,0,1-2.51-2.23A19.8,19.8,0,0,1,39.88,430a19.29,19.29,0,0,1-1.67-3.34c-.21-.57-.39-1.15-.56-1.73a12.5,12.5,0,0,1-.4-1.7c-.17-1.07-.29-2.17-.35-3.23s.05-1.87.12-2.8l.06-.7.1-.58.21-1.18,2.16-10,4-18.35a181.26,181.26,0,0,1,5-19.7,70.57,70.57,0,0,1,4.54-10.84c.47-.92,1-1.83,1.5-2.74.12-.21.29-.49.47-.77l.53-.83c.36-.55.7-1.1,1.11-1.63A43.55,43.55,0,0,1,61.82,344a79.12,79.12,0,0,1,9.45-7.51l1.57-1.17c.42-.34.88-.68,1.21-1s.66-.59,1-.87l.4-.41.18-.18v-.05a2,2,0,0,1,.09-.28c.08-.18.24-.55.49-1.27.54-1.41,1.28-4.24,2.49-8l.23-.71.22-.6.43-1.21.86-2.41,1.83-4.77c1.28-3.15,2.64-6.26,4-9.34a28.26,28.26,0,0,1,2.38-4.48,19.25,19.25,0,0,1,3.52-3.9c.67-.6,1.42-1.16,2.16-1.72l2.37-1.58c1.58-1,3.26-2,4.8-3a41.11,41.11,0,0,0,4.25-3.22,27.48,27.48,0,0,0,3.38-3.64c2.09-2.5,4.12-5,6.08-7.56s3.82-5.14,5.66-7.74c.47-.64.91-1.31,1.36-2l1.42-2c.95-1.37,1.89-2.68,2.85-4,3.8-5.26,7.71-10.09,11.14-15a61.09,61.09,0,0,0,7.92-15,32,32,0,0,0,1.65-14c-.08-.53-.12-1-.24-1.61l-.15-.83-.2-.88c-.24-1.15-.53-2.42-.87-3.71l-1.07-4.2c-.36-1.46-.76-3-1.12-4.68a45.65,45.65,0,0,1-1.32-11.07c0-1,.14-2.06.23-3.08s.32-2.12.55-3.12a31.49,31.49,0,0,1,1.95-5.67,93.75,93.75,0,0,1,5.06-9.12,29.43,29.43,0,0,0,3.49-8.08,48.56,48.56,0,0,0,1-8.59,58.21,58.21,0,0,0-.24-8.66,62.73,62.73,0,0,0-1.42-8.53,30.65,30.65,0,0,1-1.07-5.53,12,12,0,0,1,.47-4.23,9.87,9.87,0,0,1,2.84-4.41,9.27,9.27,0,0,1,5.32-2.38,8.11,8.11,0,0,1,3.64.52,8.28,8.28,0,0,1,2.89,1.88,11.23,11.23,0,0,1,2.5,4c.42,1.1.6,1.71.88,2.49,1,3,2,5.84,3.14,8.45a33.05,33.05,0,0,0,3.82,6.86,18,18,0,0,0,5.12,4.56h0l.63.48a64.73,64.73,0,0,0,18.73,9.69c1.71.53,3.43,1.06,5.17,1.52s3.5.89,5.31,1.22l2.68.55,2.72.45c1.8.32,3.65.53,5.49.77,7.37.88,14.93,1.24,22.59,1.52,7.42.33,15.47,0,23.29.18,31.44.36,62.85,1.13,94.34,2.59l47.24,2.21,47.24,2.31,23.62,1.08c2,.08,3.93.12,5.93.24a57.47,57.47,0,0,0,5.79.24,11.74,11.74,0,0,0,5.29-1.39,15.82,15.82,0,0,0,2.32-1.58,22.84,22.84,0,0,0,2.06-2,10.78,10.78,0,0,1,2.37-2,6.49,6.49,0,0,1,3-.78,17.49,17.49,0,0,1,5.89,1.17,43.11,43.11,0,0,1,5.38,2.5c1.75.92,3.47,1.86,5.23,2.73a43,43,0,0,0,5.39,2.37,10.42,10.42,0,0,0,5.76.52c1.91-.42,3.67-1.41,5.61-1.8a6.84,6.84,0,0,1,5.6,1.27Zm0,.08a5.92,5.92,0,0,0-2.69-1.11,6.85,6.85,0,0,0-2.85.12c-1.87.46-3.55,1.52-5.55,2.05a11.23,11.23,0,0,1-6.14-.26,39.75,39.75,0,0,1-5.61-2.17c-1.81-.79-3.61-1.69-5.37-2.51a40.64,40.64,0,0,0-5.26-2.26,18.15,18.15,0,0,0-2.68-.68,12.74,12.74,0,0,0-2.63-.22,4.57,4.57,0,0,0-2.2.6,8.92,8.92,0,0,0-1.91,1.71,27.7,27.7,0,0,1-2.15,2.22,18.42,18.42,0,0,1-2.6,1.87,13.79,13.79,0,0,1-6.14,1.82,60.31,60.31,0,0,1-6-.07c-1.92-.08-3.91-.06-5.88-.09l-23.6-.23c-7.87,0-15.74-.22-23.62-.24l-23.61-.13-47.24-.27-23.62-.15-23.61-.08L269,171.49H257.15c-3.93,0-7.87-.09-11.8-.29a215.21,215.21,0,0,1-23.5-2.23A112.92,112.92,0,0,1,199,163.11a72.17,72.17,0,0,1-20.3-11.85h0a25.76,25.76,0,0,1-6.62-6.55,40.25,40.25,0,0,1-4.22-8.33c-1.11-2.92-2-5.9-3-8.88-.5-1.45-.8-3.07-1.89-4.23a2.67,2.67,0,0,0-2.12-.81,3.64,3.64,0,0,0-2.09,1,4.41,4.41,0,0,0-1.27,1.93,6.65,6.65,0,0,0-.26,2.31,28.79,28.79,0,0,0,.87,4.59,70.28,70.28,0,0,1,1.49,9.24,71.91,71.91,0,0,1-.66,18.65c-1,6.18-3.3,12-4.51,18.16a35.05,35.05,0,0,0-.67,9.31,61.2,61.2,0,0,0,1.42,9.24c1.33,6.08,3.06,12.15,3.08,18.43a41.5,41.5,0,0,1-4.48,18A89,89,0,0,1,143.64,249c-3.82,4.93-7.91,9.65-11.75,14.57s-7.3,10.13-10.68,15.37-6.54,10.63-9.52,16.11a221.53,221.53,0,0,0-15.1,34.22c-1,2.95-1.77,6-2.9,8.89a21.88,21.88,0,0,1-5,7.86,47.06,47.06,0,0,1-7.39,5.72,61.84,61.84,0,0,0-7.57,5.49A28.24,28.24,0,0,0,68,364.54,65.92,65.92,0,0,0,64,373c-2.34,5.79-4,11.81-5.79,17.79l-5.29,18c-.86,3-1.81,6-2.59,9A11.36,11.36,0,0,0,50,420l.1,1.16a7.5,7.5,0,0,0,.29,1.13,6.5,6.5,0,0,0,3,3.43,13.54,13.54,0,0,0,4.42,1.46,25.09,25.09,0,0,0,4.66.34A33.12,33.12,0,0,0,71.7,426a78.08,78.08,0,0,1,9-2.35,16.56,16.56,0,0,1,9.19.88,10.73,10.73,0,0,1,3.87,2.56,17.94,17.94,0,0,1,2.71,3.81c1.54,2.68,2.71,5.68,5,7.85a8.5,8.5,0,0,0,4.09,2.13,15.12,15.12,0,0,0,4.65.17,35.71,35.71,0,0,0,9-2.45c5.82-2.22,11.39-5.2,17.52-6.51a15.72,15.72,0,0,1,9.21.47,13.6,13.6,0,0,1,3.91,2.53,18.28,18.28,0,0,1,2.94,3.62c1.6,2.71,2,5.89,2.6,8.94s1.26,6.2,3.25,8.66a26.68,26.68,0,0,0,7.14,6c2.67,1.61,5.5,3,8.26,4.4,5.57,2.83,10.22,7.24,16.06,9.55a15.27,15.27,0,0,0,9.16,1c3.07-.74,5.53-2.93,7.53-5.28s3.72-5,5.62-7.48a26.24,26.24,0,0,1,6.67-6.5,18.08,18.08,0,0,1,4.27-1.88,21.74,21.74,0,0,1,4.59-.86,38.33,38.33,0,0,1,9.32.63c3.08.5,6.15,1.09,9.26,1.37s6.22.53,9.33.68c6.24.29,12.48.29,18.72.26,12.48-.1,25-.05,37.44-.07l37.45,0c6.24,0,12.48-.06,18.72,0s12.44,1.13,18.68,1.05a39.57,39.57,0,0,0,9.27-1.1,31.1,31.1,0,0,0,8.44-3.94,41.35,41.35,0,0,1,8.31-4.28,19.48,19.48,0,0,1,9.25-.73,27.79,27.79,0,0,1,8.75,3.22c2.75,1.45,5.4,3.18,8.42,4a29.53,29.53,0,0,0,9.27.93c3.11-.1,6.23-.28,9.35-.36,25-.77,49.93.57,74.83,2.13,1.56.09,3.12.23,4.67.26a7.14,7.14,0,0,0,4.38-1.26,8.48,8.48,0,0,0,2.76-3.68,19.31,19.31,0,0,0,1.21-4.5,50.12,50.12,0,0,0,.39-9.33c-.12-3.11-.39-6.22-.68-9.33a78.73,78.73,0,0,1-.59-9.34,71.18,71.18,0,0,1,.9-9.32c.94-6.17,2.32-12.27,3-18.47a333.52,333.52,0,0,0,.71-37.41c-.38-12.48-1.26-24.93-2.29-37.37-2.06-24.87-4.75-49.71-5.4-74.68a331.39,331.39,0,0,1,1-37.42c.27-3.11.59-6.21,1-9.31a37.28,37.28,0,0,1,2.86-8.9,48.7,48.7,0,0,0,3.05-8.82,11.34,11.34,0,0,0,0-4.64,7.08,7.08,0,0,0-2.61-3.75Z"/></svg>