<svg id="Layer_2" data-name="Layer 2" xmlns="http://www.w3.org/2000/svg" viewBox="0 0 600 600"><title>Estonia</title><path d="M208.33,195.67c1.68-.08,3.36-.18,5-.3s3.36-.32,5-.51a23.21,23.21,0,0,0,9.42-3A27.25,27.25,0,0,0,235,185c2.12-2.6,3.88-5.51,6.18-8.21a17,17,0,0,1,4-3.61l1.16-.74c.4-.22.82-.39,1.24-.58s.85-.34,1.28-.48.88-.21,1.32-.31a83.22,83.22,0,0,1,10.41-1.41c6.88-.35,13.64.37,20.18-.15a38.44,38.44,0,0,0,9.51-1.93,54.62,54.62,0,0,0,8.92-4.08c2.88-1.62,5.71-3.41,8.55-5.21s5.68-3.72,8.66-5.47a68.78,68.78,0,0,1,9.41-4.82c1.65-.72,3.41-1.24,5.15-1.82s3.56-.92,5.35-1.25A97,97,0,0,1,347,143.58l10.34-.81c6.8-.53,13.6-1.12,20.37-1.27s13.53,0,20.28.12c3.39.09,6.7.14,10.24.27s7.2.33,11,.84a66.92,66.92,0,0,1,11.85,2.6,56.63,56.63,0,0,1,6,2.33c1.92.88,3.72,1.83,5.39,2.78,3.37,1.88,6.3,3.82,9,5.43,1.33.8,2.6,1.54,3.81,2.18s2.44,1.12,3.64,1.71a56.37,56.37,0,0,0,16,4.05,109.76,109.76,0,0,0,17.86.41c6.17-.32,12.51-1.05,19-1.93l10-1.41a69.23,69.23,0,0,1,12.61-.8,35.93,35.93,0,0,1,16.09,4.32,28.25,28.25,0,0,1,8,6.74,28.82,28.82,0,0,1,5,9,26.46,26.46,0,0,1,1.25,11.41A24.39,24.39,0,0,1,563,198c-.24.57-.49,1.13-.76,1.68s-.63,1.1-1,1.64a23.29,23.29,0,0,1-2.26,3c-.42.48-.83.86-1.25,1.28s-.89.85-1.29,1.16a25.27,25.27,0,0,1-2.51,1.82c-.39.25-.82.53-1.2.74l-1.11.6-.55.29-.5.23-1,.46c-2.5,1.08-4.25,1.65-5.25,2.08a4,4,0,0,0-2.06,1.68,25.12,25.12,0,0,0-2.31,4.8c-1,2.51-2.14,5.92-4,10-.24.52-.46,1-.72,1.55l-.86,1.64c-.31.56-.56,1.08-.92,1.65l-1.09,1.71a33.51,33.51,0,0,1-2.5,3.4,32.86,32.86,0,0,1-3,3.27,30.33,30.33,0,0,1-3.63,3.09,36.33,36.33,0,0,1-4,2.55,37.54,37.54,0,0,1-8.11,3.27,65.1,65.1,0,0,1-13.67,2.1l-5.16.3c-1.56.1-3,.23-4.41.33a47.58,47.58,0,0,0-7.22,1.09,15.38,15.38,0,0,0-4.45,1.61c-.29.11-.41.32-.68.39a1.52,1.52,0,0,1-.8.15,15.73,15.73,0,0,0-2.63.25,3.15,3.15,0,0,0-2.09,1.42,9.87,9.87,0,0,0-1.75,4.47,14.67,14.67,0,0,0,0,2.67,25.76,25.76,0,0,0,1.54,6.29c.21.55.44,1.14.68,1.67l.72,1.59c.5,1.12,1.19,2.33,1.88,3.68,1.43,2.69,3.22,5.85,5,9.7,1.63,3.64,2.83,7,3.92,10L489.07,318l7.35,18.9c2.47,6.23,5,12.23,8,17.91A63.56,63.56,0,0,0,515,370.17c1,1.1,2.11,2.15,3.32,3.29s2.47,2.35,3.76,3.71a54.48,54.48,0,0,1,4,4.56c.65.85,1.29,1.76,1.9,2.73s1.13,2,1.64,3.13l.74,1.67c.25.57.5,1.3.73,1.95s.38,1.33.56,2,.26,1.33.38,2,.15,1.34.21,2,0,1.36.05,2-.1,1.37-.17,2.05-.22,1.37-.35,2.05-.37,1.38-.57,2.06-.47,1.39-.76,2.06-.89,1.25-1.21,1.95-.63,1.45-1,2.18a19.71,19.71,0,0,1-3,4.37,15.25,15.25,0,0,1-2.12,2,13,13,0,0,1-2.51,1.55,20.5,20.5,0,0,1-5,1.68c-1.44.29-2.54.42-3.35.52a8.44,8.44,0,0,0-1.35.27c-.06,0-.09.09-.13.11l-.07,0,0,.07a5.62,5.62,0,0,0-.57.66c-.14.14-.32.43-.51.66s-.41.58-.63,1a35,35,0,0,0-2.79,6.39c-.45,1.33-.89,2.72-1.34,4.22l-.43,1.36c-.15.47-.3.94-.47,1.42-.33,1-.68,1.92-1.07,2.9a54.44,54.44,0,0,1-2.71,6A43,43,0,0,1,496,453a33.43,33.43,0,0,1-6.12,6.23,28.13,28.13,0,0,1-9.25,4.78c-.89.24-1.78.52-2.68.67s-1.81.28-2.72.38a25,25,0,0,1-2.74.11h-1.37l-1.3-.12c-.85-.1-1.78-.19-2.56-.35s-1.57-.33-2.36-.52-1.42-.41-2.13-.63l-1-.34-.92-.35a66.46,66.46,0,0,1-6.18-2.75c-1.74-.87-3.05-1.52-4.16-2l-.77-.32-.59-.19a2,2,0,0,0-.47-.11c-.11,0-.29-.09-.31,0-.37-.05,0,.25.38.26s.62.08.32.28l-2,1.26c-1,.67-2.34,1.57-4,2.62-.83.53-1.74,1.1-2.79,1.69l-.79.44-.88.44-1.81.86c-2.42,1.22-4.94,1.94-7.45,2.91a11.11,11.11,0,0,1-3.95.2,22.37,22.37,0,0,1-3.91-.68,29.55,29.55,0,0,1-3.74-1.14c-1.21-.5-2.38-1-3.52-1.54S412,463.8,411,463.2c-.53-.31-1-.58-1.55-.92s-1-.69-1.48-1c-3.9-2.56-7.43-4.73-10.83-7a65.41,65.41,0,0,1-9.29-7.72c-.69-.72-1.43-1.4-2.11-2.13s-1.28-1.56-1.95-2.31a25.45,25.45,0,0,1-1.83-2.41,23.91,23.91,0,0,1-1.7-2.54,59.27,59.27,0,0,1-4.81-10.24c-.62-1.54-1.22-3-1.84-4.24a16.35,16.35,0,0,0-2.05-3.2,8.33,8.33,0,0,0-1.15-1.15l-.59-.53-.67-.48a16.35,16.35,0,0,0-3-1.59,48.72,48.72,0,0,0-8-2.23l-4.76-1c-1.68-.4-3.39-.81-5.22-1.31-.91-.24-1.81-.52-2.76-.86s-1.89-.65-2.85-1.06a47.58,47.58,0,0,1-5.55-2.7c-1.73-1-3.29-2-4.78-3a37.76,37.76,0,0,1-4-3.09c-1.21-1.08-2.29-2.18-3.31-3.29s-1.95-2.23-3-3.29a27.68,27.68,0,0,0-3.35-3,19.17,19.17,0,0,0-3.95-2.27,26.61,26.61,0,0,0-9-1.74,48.41,48.41,0,0,0-18.38,2.62,69.38,69.38,0,0,0-16.67,8.68,86,86,0,0,0-7.29,5.87l-3.7,3.28-1.9,1.69-.49.42-.24.22-.39.32a14.3,14.3,0,0,1-1.93,1.33,12.63,12.63,0,0,1-5.07,1.64,10.62,10.62,0,0,1-3-.12c-.49-.08-1-.19-1.47-.31a14.89,14.89,0,0,1-1.52-.59,11.24,11.24,0,0,1-2.7-1.74,8.22,8.22,0,0,1-1.06-1.07,11.18,11.18,0,0,1-.91-1.12,15.23,15.23,0,0,1-2-4.25,24.17,24.17,0,0,1-1-7.12,32.2,32.2,0,0,1,.17-3.26,26.6,26.6,0,0,1,.55-3.38l.24-.93.2-.69c.13-.46.27-.91.41-1.35.29-.89.59-1.76.89-2.61.61-1.7,1.23-3.32,1.83-4.89a83.43,83.43,0,0,0,3-8.8c.26-1.08.78-3.45,1.32-5.13l1.56-4.9a24.72,24.72,0,0,0,1.48-7.54l0-.75-.06-.61a8.51,8.51,0,0,0-.3-1.26,9.6,9.6,0,0,0-1.14-2.34,5.83,5.83,0,0,0-1.42-1.46,2.88,2.88,0,0,0-1.16-.46,4.64,4.64,0,0,0-2.11.43,16.74,16.74,0,0,0-3.17,1.81c-2.41,1.63-5.23,4.25-9.53,6.25a18.08,18.08,0,0,1-3.73,1.22,19.92,19.92,0,0,1-3.7.4,25.79,25.79,0,0,1-6.53-.83c-1-.24-1.93-.51-2.82-.8l-1.36-.46c-.49-.17-1-.36-1.47-.56a28.12,28.12,0,0,1-5.57-3,25.4,25.4,0,0,1-4.78-4.32,24,24,0,0,1-1.95-2.59c-.57-.88-1.07-1.76-1.53-2.64a80.71,80.71,0,0,1-4-10,31.56,31.56,0,0,0-3.82-7.9,95.82,95.82,0,0,0-6.43-7.24,37.34,37.34,0,0,1-3.52-4.5c-.27-.42-.52-.86-.78-1.3l-.65-1.36-.64-1.36a11.76,11.76,0,0,1-.49-1.41,30.7,30.7,0,0,1-1.4-11.3c.39-7.26,2.15-13.8,2.85-20.27a36.42,36.42,0,0,0,0-9.45,49.8,49.8,0,0,0-2.6-9.39,54.55,54.55,0,0,1-2.79-10.06,28.91,28.91,0,0,1-.23-5.34,49.21,49.21,0,0,1,.69-5.17c.6-3.37,1.37-6.68,2.19-10l1.28-4.91c.45-1.62.85-3.26,1.41-4.9a27.74,27.74,0,0,1,12.52-15.61,29.34,29.34,0,0,1,9.57-3.22A89.75,89.75,0,0,1,208.33,195.67Zm0,0a88.92,88.92,0,0,0-10,1.38,29.31,29.31,0,0,0-9.13,3.62,27.11,27.11,0,0,0-11.33,15.18c-.48,1.53-.84,3.18-1.24,4.82l-1.14,4.91c-.72,3.28-1.39,6.56-1.88,9.86a44.1,44.1,0,0,0-.52,4.9,25.16,25.16,0,0,0,.33,4.82,50.83,50.83,0,0,0,2.91,9.45,53.53,53.53,0,0,1,3,9.82,39.4,39.4,0,0,1,.38,10.33c-.56,6.81-2.1,13.41-2.27,20.07a26.57,26.57,0,0,0,1.41,9.72,9.29,9.29,0,0,0,.42,1.15l.56,1.1.55,1.1c.21.35.42.7.66,1a31,31,0,0,0,3.16,3.84c2.29,2.42,4.85,4.68,7,7.38a35.69,35.69,0,0,1,4.79,9,83.68,83.68,0,0,0,4,9.27,20.14,20.14,0,0,0,6.65,7.37,22.64,22.64,0,0,0,4.46,2.29,38.38,38.38,0,0,0,4.84,1.42c3.24.74,6.79.89,9.84-.6s5.54-3.79,8.23-5.82a24.45,24.45,0,0,1,4.29-2.68,12.38,12.38,0,0,1,4.87-1.26,10,10,0,0,1,4.87,1.19,12.62,12.62,0,0,1,3.78,3.31,15.65,15.65,0,0,1,3.23,9.4,31.62,31.62,0,0,1-1.87,9.9l-1.54,4.82c-.52,1.61-.88,3.25-1.31,4.89-1.76,6.52-4.91,12.56-6.74,19.07a22.81,22.81,0,0,0-.61,5,17.2,17.2,0,0,0,.58,5,5.83,5.83,0,0,0,2.93,3.92l.58.26.62.11a3.83,3.83,0,0,0,1.26.08,6.11,6.11,0,0,0,2.39-.77,13,13,0,0,0,2-1.5l1.94-1.62q1.93-1.63,3.9-3.23a83.08,83.08,0,0,1,8.2-5.91,79.32,79.32,0,0,1,18.38-8.34,63.7,63.7,0,0,1,20-2.82,49.88,49.88,0,0,1,19.61,4.39c6.16,2.8,11.47,7.08,17.3,10.47s12.41,5.24,18.75,7.5a49.81,49.81,0,0,1,9.19,4.19,23.1,23.1,0,0,1,7.24,6.95c3.68,5.72,4.56,12.7,8,18.54a31.7,31.7,0,0,0,6.33,7.84,35.55,35.55,0,0,0,8.33,5.67l1.13.57,1.17.47c.79.3,1.55.67,2.36.92l2.42.73c.8.26,1.65.37,2.47.56l1.24.25c.41.08.83.1,1.25.16.84.09,1.68.2,2.52.26a37.9,37.9,0,0,0,10-.85,34.59,34.59,0,0,0,4.79-1.62c3.15-1.24,5.95-3.17,8.91-4.78s6.12-3,9.52-3.12,6.66,1.2,9.62,2.75,5.84,3.4,9,4.7a14.74,14.74,0,0,0,9.86,1,16.22,16.22,0,0,0,8.15-5.7,38,38,0,0,0,5.14-8.68c1.39-3.08,2.39-6.31,3.71-9.41a41.85,41.85,0,0,1,4.84-8.86A19.47,19.47,0,0,1,502,413.2a13.83,13.83,0,0,1,4.36-2.5l.59-.22.62-.15c.41-.09.81-.21,1.23-.28.83-.13,1.68-.19,2.52-.24a15.19,15.19,0,0,0,5-.83,8.92,8.92,0,0,0,3.92-3.08,12.36,12.36,0,0,0,2-4.61,15.47,15.47,0,0,0-1.12-9.87,33.63,33.63,0,0,0-5.76-8.27c-2.25-2.52-4.66-4.89-6.83-7.47A108.56,108.56,0,0,1,497,359.07c-3.36-5.85-6.35-11.9-9.27-18L479,322.83c-2.9-6.1-5.87-12.16-8.69-18.28-1.38-3.08-2.7-6.19-4.22-9.2s-3.32-5.87-5-8.79a45.41,45.41,0,0,1-6.68-18.93,27.27,27.27,0,0,1,5.34-19,25.18,25.18,0,0,1,7.48-6.72,33,33,0,0,1,9.41-3.62c6.59-1.54,13.39-1.61,20.12-1.81a47.47,47.47,0,0,0,10-1.27,19.76,19.76,0,0,0,8.83-4.69,27.25,27.25,0,0,0,5.84-8.18c1.49-3,2.67-6.19,4-9.28a32.94,32.94,0,0,1,5.19-8.65,20.08,20.08,0,0,1,8.29-5.62c1.58-.6,3.19-1.1,4.75-1.76a12.09,12.09,0,0,0,4.19-2.74,8.46,8.46,0,0,0,2-4.55,11.69,11.69,0,0,0-.52-5,14.16,14.16,0,0,0-6.19-7.71,21.86,21.86,0,0,0-9.66-2.62,56.79,56.79,0,0,0-10.09.5l-10,1.22c-13.38,1.54-27,2.58-40.37.64a68.62,68.62,0,0,1-19.38-5.6c-6.19-2.76-11.56-6.95-17.32-10.44a48.19,48.19,0,0,0-9.08-4.41,57.71,57.71,0,0,0-9.79-2.45c-6.66-1.09-13.42-1.36-20.14-1.85l-40.39-2.75c-6.72-.43-13.48-1.09-20.2-.42a40.28,40.28,0,0,0-5,.78,45.51,45.51,0,0,0-4.85,1.4,60.92,60.92,0,0,0-9.22,4.13c-5.95,3.18-11.58,6.92-17.56,10.07a65.07,65.07,0,0,1-9.28,4,40,40,0,0,1-9.92,1.88c-6.75.45-13.49-.36-20.23-.1a34.84,34.84,0,0,0-9.94,1.65c-.39.14-.8.27-1.19.42l-1.15.53c-.37.18-.77.33-1.13.54l-1.08.65a19.91,19.91,0,0,0-4,3.09,96.58,96.58,0,0,0-6.65,7.61,29.7,29.7,0,0,1-7.47,6.76,22.39,22.39,0,0,1-9.63,2.86C215.06,195.31,211.69,195.46,208.33,195.71Z"/><path d="M100.82,229.09c-1.31,1.91-2,4.15-3.12,6.35a15.35,15.35,0,0,1-2.14,3.19,18.47,18.47,0,0,1-3,2.59,29.69,29.69,0,0,1-7.1,3.67,32.37,32.37,0,0,1-7.42,1.68c-4.68.47-8.7.69-11.59,1.92a9.27,9.27,0,0,0-3.73,2.7,4.65,4.65,0,0,0-1,3.61,8.31,8.31,0,0,0,2.17,4.27A10.77,10.77,0,0,0,66,260.83a16.12,16.12,0,0,0,2.65,1.37,27.71,27.71,0,0,0,6.3,1.66c2.24.37,4.6.62,7,1a30,30,0,0,1,7.41,1.91,15.77,15.77,0,0,1,6.42,5,11.57,11.57,0,0,1,1.9,3.91,11.1,11.1,0,0,1,.35,2.19c0,.7,0,1.35,0,1.95a9.94,9.94,0,0,0,.19,2.9,5,5,0,0,0,1.13,2.06,8.57,8.57,0,0,0,4.72,2.48,9.72,9.72,0,0,0,2.79.13,16.61,16.61,0,0,0,3-.62,46.08,46.08,0,0,0,12-6.29,56.17,56.17,0,0,0,10.47-9.2,40.19,40.19,0,0,0,4-5.57,27.86,27.86,0,0,0,2.71-6.2,8.31,8.31,0,0,0-.82-6.14,18.59,18.59,0,0,0-4.32-5.09c-3.47-3-7.53-5.33-11.47-8a39.42,39.42,0,0,1-5.33-4.85c-1.65-1.68-3.3-3.33-5-4.87a17,17,0,0,0-5.63-3.72,4.6,4.6,0,0,0-3.21.09A6,6,0,0,0,100.82,229.09Zm-.53-.38a7.52,7.52,0,0,1,2.77-2.38,6,6,0,0,1,3.69-.38,16.08,16.08,0,0,1,6.4,3.43c1.87,1.51,3.52,3.22,5.2,4.86a37.74,37.74,0,0,0,5.15,4.57c3.85,2.58,8.06,4.86,11.72,8a20.43,20.43,0,0,1,4.76,5.62,10.86,10.86,0,0,1,1.21,3.64A9.83,9.83,0,0,1,141,260a30.27,30.27,0,0,1-7.36,12.4,64.89,64.89,0,0,1-5.16,4.94c-1.78,1.58-3.61,3.09-5.4,4.63s-3.5,3.16-5.33,4.78a23.65,23.65,0,0,1-6.29,4.16,15.67,15.67,0,0,1-3.87,1.11,13.11,13.11,0,0,1-4.24,0,12.68,12.68,0,0,1-7.49-4,9.3,9.3,0,0,1-2.1-4.12,14.22,14.22,0,0,1-.21-4.12,9.08,9.08,0,0,0-.17-2.86,6.86,6.86,0,0,0-1.14-2.42,11.31,11.31,0,0,0-4.56-3.59,21.26,21.26,0,0,0-6.23-1.56c-4.46-.49-9.36-.2-14.52-1.47A22.92,22.92,0,0,1,63,266.44a18,18,0,0,1-3.7-2.27,15,15,0,0,1-5.2-7.52,12.58,12.58,0,0,1-.39-5.09,13.28,13.28,0,0,1,1.61-4.86A18.12,18.12,0,0,1,62,240a19,19,0,0,1,4.16-1.87,25,25,0,0,1,4.16-.89,38.32,38.32,0,0,1,7.62-.09c2.37.19,4.54.62,6.67.92A17.31,17.31,0,0,0,91,238a10.35,10.35,0,0,0,5.38-3.38C97.84,232.85,98.84,230.63,100.29,228.71Z"/><path d="M59.84,317.74a8.7,8.7,0,0,0-4.66,2.43,11.47,11.47,0,0,0-2.58,4.57,32.35,32.35,0,0,0-1,10.69,26.68,26.68,0,0,0,.58,5.19,19.7,19.7,0,0,0,1.66,4.66A14,14,0,0,0,56.65,349a12.94,12.94,0,0,0,1.75,1.4c.63.4,1.41.82,2.29,1.35a13,13,0,0,1,2.7,2.1,12.08,12.08,0,0,1,2.12,2.9,14.36,14.36,0,0,1,1.47,6.6,28.88,28.88,0,0,1-2.9,11.81l-2.39,5A41.41,41.41,0,0,0,59.75,385c-1,3.22-1.31,6.44,0,9.11l.08.17,0,.08a2,2,0,0,0,1.22,1.3,4.66,4.66,0,0,0,2.49.24,7,7,0,0,0,2.65-1,6,6,0,0,0,1.06-.87,5.8,5.8,0,0,0,.82-1.12,16.65,16.65,0,0,0,1.81-6.36c.3-2.37.44-4.88,1-7.51a32.17,32.17,0,0,1,6.93-14.15A30.74,30.74,0,0,1,80.63,362a16,16,0,0,1,3.66-2.4,18.23,18.23,0,0,1,4.09-1.37,26.7,26.7,0,0,1,4.1-.51c2.68-.14,5.23,0,7.65,0q1.82,0,3.51,0l1.68-.12,1.76-.18A93.4,93.4,0,0,0,121,354.69a69.23,69.23,0,0,0,12.86-5,25.62,25.62,0,0,0,9.93-8.56,19.06,19.06,0,0,0,2.56-6,21.48,21.48,0,0,0,.54-3.32c.11-1.14.16-2.42.2-3.6a25.26,25.26,0,0,0-.6-6.9,14.58,14.58,0,0,0-1.27-3.08,15.12,15.12,0,0,0-2.05-2.68,21.49,21.49,0,0,0-5.7-4,40.72,40.72,0,0,0-6.73-2.59,77.78,77.78,0,0,0-14.32-2.86c-9.67-1-19.61.15-28.14,4.81-2.17,1.12-4.31,2.34-6.52,3.5a38.83,38.83,0,0,1-7,2.88A18.16,18.16,0,0,1,71,318a21.87,21.87,0,0,1-3.8-.09A28.7,28.7,0,0,0,59.84,317.74Zm-.08-.51a54.62,54.62,0,0,1,7.46,0,17.32,17.32,0,0,0,3.61-.31,17.79,17.79,0,0,0,3.39-1.14c2.21-1,4.35-2.11,6.48-3.3s4.29-2.42,6.5-3.59A42.15,42.15,0,0,1,101.53,304a60.91,60.91,0,0,1,15.08-.21,88.86,88.86,0,0,1,14.73,2.91c4.79,1.41,9.72,3.23,13.64,6.9a17,17,0,0,1,4.42,6.71,28.89,28.89,0,0,1,1.5,7.73c.1,1.29.21,2.48.24,3.81a25.07,25.07,0,0,1-.18,4.05,24,24,0,0,1-2.44,7.87,32.35,32.35,0,0,1-11.11,11.87,48.31,48.31,0,0,1-14.48,6.22,72.44,72.44,0,0,1-15.31,2.28c-.64,0-1.29,0-1.93.07s-1.37,0-2,0c-1.33-.06-2.64-.16-3.89-.29-2.51-.25-4.89-.56-7.16-.58a15.88,15.88,0,0,0-6.26.92,11.4,11.4,0,0,0-2.64,1.47A27.85,27.85,0,0,0,81.18,368a24.56,24.56,0,0,0-6.61,11.86c-.49,2.21-.58,4.66-.88,7.19a21.27,21.27,0,0,1-2.16,7.83,9.6,9.6,0,0,1-1.31,1.89,9.76,9.76,0,0,1-1.75,1.54A11.23,11.23,0,0,1,64.29,400a8.94,8.94,0,0,1-4.8-.31,6.42,6.42,0,0,1-2.32-1.45,7.32,7.32,0,0,1-.9-1.1,12,12,0,0,1-.63-1.24l.11.25a14,14,0,0,1-1.61-6.36,21.75,21.75,0,0,1,.85-6.17A73.34,73.34,0,0,1,59.2,373a25.39,25.39,0,0,0,2.28-9.62,9.78,9.78,0,0,0-.84-4.16,6.76,6.76,0,0,0-1.12-1.58,7.43,7.43,0,0,0-1.65-1.31c-.7-.44-1.54-.91-2.44-1.55a14.86,14.86,0,0,1-2.49-2.19,17.13,17.13,0,0,1-3.34-5.44,20.38,20.38,0,0,1-1.35-6,26.63,26.63,0,0,1,.22-5.89,37.51,37.51,0,0,1,2.72-11.11,13.09,13.09,0,0,1,3.37-4.69A9.93,9.93,0,0,1,59.76,317.23Z"/><path d="M167.06,294.52A8.12,8.12,0,0,1,164,292a6.47,6.47,0,0,0-2.52-2.17l-1.64-.3a14.83,14.83,0,0,0-1.76-.22,4.4,4.4,0,0,0-1.38.11,1,1,0,0,0-.66.45.91.91,0,0,1-.08.13,1.28,1.28,0,0,1-.11.2,1.44,1.44,0,0,0-.15.37,3,3,0,0,0-.06.81,6.62,6.62,0,0,0,.58,2.24,7.22,7.22,0,0,0,1.56,2.24,15.22,15.22,0,0,1,1.8,2.33,6.17,6.17,0,0,1,.71,1.35,11.79,11.79,0,0,1,.43,1.75,7.06,7.06,0,0,0,1.45,3.57,11.81,11.81,0,0,0,1.35,1.2,12.66,12.66,0,0,0,1.54.94,10.43,10.43,0,0,0,1.62.69,1.19,1.19,0,0,0,.7.09s0,0,.07-.15a5.45,5.45,0,0,0,.13-.66c.07-.52.09-1.11.11-1.73a19.34,19.34,0,0,1,.13-2l.19-1.93c.1-1.28.34-2.59.39-3.8a5,5,0,0,0-.23-1.76,2.08,2.08,0,0,0-1.25-1.26,2.22,2.22,0,0,1,1.49,1.13,4.72,4.72,0,0,1,.5,1.84c.11,1.29,0,2.58,0,3.86s-.05,2.57,0,3.86a13.68,13.68,0,0,1,0,1.92,2.39,2.39,0,0,1-.74,1.73,2.11,2.11,0,0,1-1.85.12,16.29,16.29,0,0,1-1.8-.69,21.27,21.27,0,0,1-3.4-1.81,22.38,22.38,0,0,1-5.59-5.26,16,16,0,0,1-3.18-7,8.84,8.84,0,0,1,.13-3.83,5.88,5.88,0,0,1,.87-1.71,4.45,4.45,0,0,1,5.24-1.39c.63.16,1.23.37,1.84.59a12.09,12.09,0,0,1,1.78.73c2.2,1.47,2.62,4.48,4.87,5.88Z"/></svg>