<svg id="Layer_1" data-name="Layer 1" xmlns="http://www.w3.org/2000/svg" viewBox="0 0 600 600"><title>Ethiopia</title><path d="M75.87,322.56a8.68,8.68,0,0,0,3.63-4.49,34.75,34.75,0,0,0,1.58-5.69c.38-1.93.78-3.86,1.11-5.79.2-1,.36-1.93.52-2.89s.33-1.94.45-2.91A111.93,111.93,0,0,0,84,277.45a106,106,0,0,0-1.44-11.54c-.15-1-.36-1.9-.55-2.84l-.59-2.93a52.92,52.92,0,0,1-.92-6.15,31.73,31.73,0,0,1,0-6.53,15.8,15.8,0,0,1,2.43-7,11.29,11.29,0,0,1,2.93-3,9.48,9.48,0,0,1,1.84-1.07,9.76,9.76,0,0,1,2-.72,16.33,16.33,0,0,1,7.72,0c2.26.49,4.23,1.16,6,1.67a15,15,0,0,0,4.49.78,1.17,1.17,0,0,0,.39,0l.33,0c.22-.05.36-.16.54-.19a2.71,2.71,0,0,1,.43-.29,2.24,2.24,0,0,0,.34-.35,3.38,3.38,0,0,0,.53-1,9.12,9.12,0,0,0,.43-1.62,24.08,24.08,0,0,0,.19-4.64l-.34-5.81q-.3-6.09-.25-12.21c0-4.08.2-8.16.47-12.24q.21-3.06.5-6.12a55.07,55.07,0,0,1,1-6.71,39.24,39.24,0,0,1,2.24-7.08,26.41,26.41,0,0,1,4.56-7.3,21,21,0,0,1,8.24-5.7,22.19,22.19,0,0,1,4.74-1.21c1.44-.21,2.72-.3,3.84-.37a25.92,25.92,0,0,0,4.53-.44c.72-.23.44-.3.59-.44a13.24,13.24,0,0,0,.63-1.35,12.13,12.13,0,0,0,.56-2.9c0-.55,0-1.12,0-1.67l0-.43-.06-.53c0-.34-.09-.73-.13-1.09-.21-1.53-.55-3.25-.93-5.19a48.75,48.75,0,0,1-1.13-14.56,33.84,33.84,0,0,1,6-15.72,37.47,37.47,0,0,1,12-10.67,36,36,0,0,1,15.39-4.56,36.93,36.93,0,0,1,7.65.4l2.85.43c.82.12,1.54.21,2.13.26a9.67,9.67,0,0,0,1.35,0,4.54,4.54,0,0,0,.74-.15c.06,0,.11,0,.16-.06s.15-.06.05,0a.27.27,0,0,0-.07.08s0,0,0,0v0l.06,0a5,5,0,0,0,.92-1.08c.8-1.13,1.72-2.72,2.74-4.46s2.14-3.66,3.67-5.78A26,26,0,0,1,198.68,92a17.44,17.44,0,0,1,4.64-3.26,14.55,14.55,0,0,1,6.73-1.38,12.45,12.45,0,0,1,1.67.16,13.67,13.67,0,0,1,1.55.32c.49.13,1,.26,1.45.43s1.07.44,1.59.68a16.1,16.1,0,0,1,4.9,3.79,27.33,27.33,0,0,1,2.61,3.57c.66,1,1.17,1.87,1.6,2.52a8.18,8.18,0,0,0,1,1.29,1.58,1.58,0,0,0,.56.29.67.67,0,0,0,.37,0c.24-.07.86-.14,1.88-.43A30.14,30.14,0,0,0,233,98.48c1.43-.7,3-1.56,4.65-2.48.83-.45,1.7-.94,2.58-1.46s1.82-1,2.79-1.61l3.08-1.74a39,39,0,0,1,3.64-1.75,50.3,50.3,0,0,1,17.21-4.32A48.76,48.76,0,0,1,283.78,87a51.31,51.31,0,0,1,13.69,6.43,71.24,71.24,0,0,1,10.68,8.53l2.29,2.31,2.16,2.36,3.87,4.62a210.27,210.27,0,0,0,15.81,18c2.85,2.74,5.79,5.37,8.7,8s5.83,5.34,8.77,8l8.82,7.9,4.66,4.12a41.38,41.38,0,0,1,5.77,6.31,26.16,26.16,0,0,1,2.77,4.86,22.08,22.08,0,0,1,1.71,6.22,29.81,29.81,0,0,1,.14,3.27,26.44,26.44,0,0,1-.35,3.29c-.21,1.08-.52,2.12-.83,3.16s-.77,1.91-1.2,2.82a29.9,29.9,0,0,1-6,7.84,61.34,61.34,0,0,1-5.59,4.68c-1.71,1.29-3.27,2.42-4.55,3.42l-.48.38-.32.26c-.19.16-.38.32-.58.52a16.66,16.66,0,0,0-1.2,1.27A30.12,30.12,0,0,0,350,209l-.61,1-.67,1.16-1.47,2.59a28.66,28.66,0,0,0-1.82,3.68,4.24,4.24,0,0,0-.32,1.26s0,0,0,.08a1.48,1.48,0,0,0,.14.3,2.31,2.31,0,0,0,.59.65.93.93,0,0,0,.47.19,2.23,2.23,0,0,0,.92-.25,4.35,4.35,0,0,0,.39-.23l.22-.14a1.46,1.46,0,0,1,.24-.13l.6-.28a31.88,31.88,0,0,1,4.58-1.67,74.19,74.19,0,0,1,7.3-1.68l1.41-.31c.16,0,.56-.1.91-.16l1.05-.17c.68-.12,1.52-.17,2.28-.25s1.7-.07,2.55-.08l1.45.08.73.06c.26,0,.54.07.81.11.55.08,1.09.17,1.65.29s1.23.31,1.83.49a17,17,0,0,1,1.95.74,15.21,15.21,0,0,1,2,1c.34.2.68.4,1,.61s.66.48,1,.74a15.25,15.25,0,0,1,1.87,1.64,21,21,0,0,1,4.78,7.52,25.78,25.78,0,0,1,1.43,5.91,40,40,0,0,1,.35,4.3l0,1.78v1.58c0,2-.06,3.65,0,5,0,.67,0,1.24.05,1.74,0,.23,0,.49.06.67s0,.17,0,.33l.12.57a64.39,64.39,0,0,0,2.47,9c.24.75.54,1.49.84,2.22s.59,1.48.94,2.19.62,1.48,1,2.18l1.08,2.15,1.19,2.1c.4.7.86,1.36,1.28,2.05s.9,1.34,1.35,2l.69,1,.75.95a49.59,49.59,0,0,0,6.6,7.14,52.56,52.56,0,0,0,8,5.83c5.94,3.5,13,6.15,20.48,8.8s14.91,5.16,22.51,7.29,15.25,4.07,22.86,6.18c3.79,1.07,7.6,2.12,11.37,3.27l2.8.93c.47.16.87.53,1.35.66s1,.18,1.47.24a45,45,0,0,1,6,.71c1.91.51,3.8,1.11,5.68,1.65s3.64,1.07,5.38,1.52a49.7,49.7,0,0,0,9.42,1.73,54,54,0,0,0,9.6-.49l5.64-.75,3.05-.4.78-.1.74-.07,1-.05a9.5,9.5,0,0,1,1.07,0l1.15.06a12,12,0,0,1,1.29.18c.45.08.89.16,1.35.28a15.23,15.23,0,0,1,6.56,3.57,14.8,14.8,0,0,1,4.36,7.87,15.7,15.7,0,0,1-.23,6.91A17.72,17.72,0,0,1,559.9,343c-.17.3-.36.61-.55.9l-.55.79a17.11,17.11,0,0,1-1.19,1.48,21.26,21.26,0,0,1-2.63,2.51,25.05,25.05,0,0,1-4.93,3c-1.4.67-2.51,1.11-3.3,1.45a8.49,8.49,0,0,0-1.33.64,9,9,0,0,0-1.75,1.45,8,8,0,0,0-.65.79c-.19.28-.46.71-.82,1.36l-1.33,2.46-.91,1.61-.63,1.17-1.21,2.26c-.4.77-.81,1.43-1.22,2.36l-2.46,5.24L532,377.79c-.92,1.87-1.9,3.76-2.85,5.64L526.06,389l-3.23,5.45-3.45,5.31-3.62,5.19a113.28,113.28,0,0,1-7.85,9.9,49.13,49.13,0,0,1-4.76,4.22c-1.73,1.28-3.46,2.53-5.21,3.75a108.42,108.42,0,0,0-9.87,7.71c-6.39,5.24-13,10.12-19.62,15-.83.59-1.67,1.18-2.5,1.79s-1.65,1.22-2.52,1.82c-1.75,1.19-3.55,2.43-5.52,3.57a45.51,45.51,0,0,1-6.41,3.16,32.9,32.9,0,0,1-7.61,1.94,30.56,30.56,0,0,1-8-.07c-2.43-.3-4.56-.68-6.45-1-.93-.15-1.81-.28-2.62-.36a14.23,14.23,0,0,0-2.24-.07c-.73,0-1.44,0-2.16.06l-2.13.3a38.39,38.39,0,0,0-8.49,2.72c-.72.37-1.44.7-2.16,1s-1.45.77-2.18,1.14l-1.09.59-1.1.66c-.73.45-1.48.82-2.23,1.29-1.5.92-3,1.84-4.53,2.87-.75.51-1.54,1-2.35,1.46a26.15,26.15,0,0,1-2.55,1.24c-1.77.79-3.67,1.37-5.58,2.07s-3.81,1.47-5.72,2.2c-3.88,1.48-8.06,2.58-12.15,3.9s-7.92,2.89-11.95,4.14a118.94,118.94,0,0,1-12.31,3.25,55,55,0,0,1-13,1c-1.1,0-2.2-.14-3.3-.26s-2.21-.3-3.31-.49c-2.22-.37-4.3-1-6.2-1.45a49,49,0,0,0-5.29-1.19,16.9,16.9,0,0,0-4.43-.2,19,19,0,0,0-8.24,3,59.07,59.07,0,0,0-8.24,6.49c-2.79,2.53-5.64,5.3-8.81,8.06A62.78,62.78,0,0,1,274.22,508a39,39,0,0,1-6.83,3c-1.23.34-2.47.64-3.71.94-.31.07-.62.15-.93.21l-.95.12-1.9.23a40.38,40.38,0,0,1-14.79-1.4,63.1,63.1,0,0,1-12.69-5.23c-2-1-3.8-2.12-5.65-3.22s-3.55-2.3-5.23-3.47c-3.41-2.33-6.66-4.74-9.77-7.06s-6.1-4.45-9.16-6.49-6.2-3.87-9.37-5.63-6.43-3.35-9.73-4.78a82.66,82.66,0,0,0-10.08-3.65A77.67,77.67,0,0,0,163,469.18l-2.63-.36-2.92-.3a55.06,55.06,0,0,1-6.85-1,23,23,0,0,1-7.91-3.3,18.91,18.91,0,0,1-6.09-6.84,28.26,28.26,0,0,1-2.58-7.14c-.51-2.18-.85-4.19-1.2-6a33.8,33.8,0,0,0-1.2-4.67,7.32,7.32,0,0,0-1.66-2.85,10.28,10.28,0,0,0-3.49-2.17,27.71,27.71,0,0,1-6.36-3.73,14.45,14.45,0,0,1-3-3.49,16.05,16.05,0,0,1-1.69-3.88,30.85,30.85,0,0,1-1-6.87c-.06-1-.09-2-.16-2.91l-.24-2.7-.4-2.7c-.17-.9-.37-1.79-.55-2.69A59.78,59.78,0,0,0,109.55,395,76.13,76.13,0,0,0,97.21,376c-1.27-1.44-2.57-2.86-3.93-4.23a49.06,49.06,0,0,0-4.22-3.8,87.76,87.76,0,0,0-9.63-6.51c-3.36-2-6.8-4-10.18-6a87.38,87.38,0,0,1-9.87-6.7,34.31,34.31,0,0,1-8-8.87A9.45,9.45,0,0,1,49.86,334a5.56,5.56,0,0,1,1.19-2.77,9.41,9.41,0,0,1,2.25-2c7-3.94,15.43-3.39,22.62-6.66Zm0,.08a17.34,17.34,0,0,1-2.67,1.3c-.93.34-1.89.61-2.85.86l-5.72,1.49c-1.9.5-3.82,1-5.66,1.6a19.71,19.71,0,0,0-5.1,2.37,8.27,8.27,0,0,0-1.88,1.8,4.32,4.32,0,0,0-.8,2.14A8,8,0,0,0,52.75,339a32.94,32.94,0,0,0,7.79,8.16c6.15,4.65,13.27,8.08,20.17,11.95a96,96,0,0,1,10.16,6.33,50.73,50.73,0,0,1,4.65,3.87c1.46,1.36,2.86,2.78,4.24,4.22A80.91,80.91,0,0,1,113.52,393a63.83,63.83,0,0,1,4.31,11.17c.24,1,.5,1.94.73,2.91l.57,2.95.41,3c.12,1,.19,2,.29,3a27.59,27.59,0,0,0,1,5.66,9.36,9.36,0,0,0,3,4.58,20.92,20.92,0,0,0,5,2.7,17.83,17.83,0,0,1,5.25,3,13.07,13.07,0,0,1,3.49,5,35.68,35.68,0,0,1,1.78,5.72c.92,3.82,1.53,7.78,3.45,11.16a11.85,11.85,0,0,0,3.86,4.19,15.19,15.19,0,0,0,5.4,2c3.84.77,7.82.64,11.74,1.11a88.74,88.74,0,0,1,22.92,5.71,115.26,115.26,0,0,1,21,10.89c6.61,4.31,12.74,9.28,19.19,13.82a109.09,109.09,0,0,0,10,6.38,54,54,0,0,0,10.8,4.78,32.92,32.92,0,0,0,11.66,1.44l1.47-.13.74-.07c.24,0,.48-.1.72-.15,1-.21,1.93-.41,2.89-.63a30.64,30.64,0,0,0,5.48-2.21,55.74,55.74,0,0,0,9.76-6.63c3.06-2.5,6-5.15,9-7.69a60.64,60.64,0,0,1,9.59-6.89,25.34,25.34,0,0,1,11.23-3.36c4-.17,7.83,1,11.59,2.08a50.23,50.23,0,0,0,11.56,2.32,57.06,57.06,0,0,0,23.21-3.59,83.33,83.33,0,0,0,10.8-4.8c3.49-1.84,6.84-3.93,10.16-6,6.63-4.27,13.13-8.75,20.07-12.51A74.86,74.86,0,0,1,408.37,449,44,44,0,0,1,420,446.81h2.95c1,.05,2,.2,2.94.29a39.46,39.46,0,0,1,5.8,1.17c3.79,1,7.67,2.06,11.64,1.72a27.86,27.86,0,0,0,11.14-3.69,93.3,93.3,0,0,0,9.84-6.54,180.06,180.06,0,0,0,18.1-15.21,182.77,182.77,0,0,0,29.57-36.76l3-5.1,2.83-5.2,2.65-5.28,2.55-5.34,2.56-5.33c.86-1.77,1.87-3.47,2.79-5.21,2-3.36,3.52-7.13,6.37-9.92a20.65,20.65,0,0,1,4.7-3.56c1.73-1,3.63-1.53,5.42-2.37a9.56,9.56,0,0,0,4.48-3.7,4.13,4.13,0,0,0,.66-2.81,2.41,2.41,0,0,0-.69-1.28A3.15,3.15,0,0,0,548,332a8.07,8.07,0,0,0-2.94,0l-2.94.33c-2,.23-3.91.47-5.88.66a52.66,52.66,0,0,1-23.38-2.08c-3.79-1.1-7.53-2.34-11.29-3.52L479,320.21l-45.09-14.33c-7.5-2.39-15.07-4.71-22.19-8.14a62.77,62.77,0,0,1-18.95-13.92,68.86,68.86,0,0,1-7.29-9.29,71.44,71.44,0,0,1-5.56-10.43,63.48,63.48,0,0,1-3.68-11.22c-1-3.84-.89-7.84-.81-11.77a48.38,48.38,0,0,0-.11-5.9,8.93,8.93,0,0,0-2.06-5.42,6.3,6.3,0,0,0-2.47-1.56,11.48,11.48,0,0,0-2.89-.57,32.4,32.4,0,0,0-5.9.33,46,46,0,0,0-5.84.9,17.38,17.38,0,0,0-2.81.91,22.39,22.39,0,0,1-2.76,1,13.8,13.8,0,0,1-5.85.48,12.9,12.9,0,0,1-5.45-2.18,13.2,13.2,0,0,1-5.64-10,14.88,14.88,0,0,1,1-5.79,38.82,38.82,0,0,1,2.58-5.31c1-1.71,1.92-3.45,2.94-5.14a42.81,42.81,0,0,1,3.4-4.83c2.47-3.11,5.82-5.31,8.92-7.73a51.15,51.15,0,0,0,4.51-3.82,17.68,17.68,0,0,0,3.57-4.67,9.9,9.9,0,0,0,1-5.74,11.61,11.61,0,0,0-2.32-5.36c-2.4-3.15-5.66-5.47-8.66-8l-9.12-7.52-36.52-30.09a204,204,0,0,0-18.77-14.37c-6.6-4.25-13.82-7.85-21.64-9a30.87,30.87,0,0,0-11.73.49,39.62,39.62,0,0,0-5.64,1.76c-1.85.69-3.67,1.43-5.51,2.16a47.63,47.63,0,0,1-11.31,3.36,13.51,13.51,0,0,1-5.86-.46,10.54,10.54,0,0,1-4.8-3.33,41.22,41.22,0,0,1-3.17-5,10.43,10.43,0,0,0-4-4.25,6.57,6.57,0,0,0-5.69-.15,12.15,12.15,0,0,0-4.32,3.93c-2.33,3.18-4,6.8-6.21,10.06a10.81,10.81,0,0,1-4.28,4,11.59,11.59,0,0,1-2.81.93,17.12,17.12,0,0,1-2.94.28c-3.95,0-7.86-1-11.8-.52a26,26,0,0,0-11.09,3.76,28.45,28.45,0,0,0-8.5,8.07,24,24,0,0,0-4.11,10.94c-.82,7.91,2.61,15.57,1.77,23.51a21,21,0,0,1-1.48,5.72,13.4,13.4,0,0,1-3.43,4.79,10.93,10.93,0,0,1-5.34,2.43,41.6,41.6,0,0,1-5.9.33,18.09,18.09,0,0,0-5.81.84,12.25,12.25,0,0,0-4.88,3.2c-2.7,2.88-4.21,6.66-5.23,10.44a87.6,87.6,0,0,0-2,11.64q-.72,5.87-1.11,11.77c-.26,3.93-.4,7.88-.44,11.82s.25,7.92-.74,11.78a9.77,9.77,0,0,1-2.93,5.07,7.64,7.64,0,0,1-5.52,1.79,21.09,21.09,0,0,1-5.76-1.34c-1.86-.65-3.7-1.37-5.6-1.87a12.22,12.22,0,0,0-5.82-.3,8.16,8.16,0,0,0-4.79,3.15A12.67,12.67,0,0,0,83.68,248a29,29,0,0,0-.32,5.89,55.28,55.28,0,0,0,.58,5.87c.31,1.95.65,3.89.91,5.85a110.64,110.64,0,0,1,1,11.79A114.87,114.87,0,0,1,84.08,301a113,113,0,0,1-2.69,11.51c-.59,1.88-1.09,3.8-1.86,5.61A9.49,9.49,0,0,1,76,322.72Z"/></svg>