<svg id="Layer_2" data-name="Layer 2" xmlns="http://www.w3.org/2000/svg" viewBox="0 0 600 600"><title>France</title><path d="M495.43,334a94.4,94.4,0,0,0,2,11l1.17,5.51c.2.91.36,1.9.52,2.82l.49,2.75c.63,3.64,1.4,7.29,2.09,11A79.18,79.18,0,0,1,503,378.58a32.89,32.89,0,0,1-1.47,11.74,33.5,33.5,0,0,1-2.46,5.45c-.89,1.69-1.79,3.33-2.53,5-.36.83-.71,1.65-1,2.47a15.24,15.24,0,0,0-.59,2.47,11.44,11.44,0,0,0,.23,4.74,23.14,23.14,0,0,0,4.75,8.8,60.37,60.37,0,0,0,7.51,7.58c1.36,1.15,2.82,2.37,4.17,3.38a12.44,12.44,0,0,0,3.83,2.11,4.28,4.28,0,0,0,.82.17,5.79,5.79,0,0,0,.9,0,18.61,18.61,0,0,0,2.31-.13c1.6-.17,3.34-.56,5.51-.82.51-.08,1.15-.09,1.72-.13s1.26,0,1.91.05a12.71,12.71,0,0,1,4.06,1.06,16.46,16.46,0,0,1,6,4.83l1.05,1.36c.34.53.72,1.07,1,1.59a26,26,0,0,1,1.5,3.12,40.28,40.28,0,0,1,1.87,6.18A55,55,0,0,1,545.31,462a42.49,42.49,0,0,1-2,12.83A24.37,24.37,0,0,1,540,481.5a17.06,17.06,0,0,1-6.92,5.7l4.16-6.17a7.11,7.11,0,0,1-1.63,4.55,9.16,9.16,0,0,1-1.15,1.2c-.26.22-.55.46-.74.6l-.61.43c-.73.49-1.33.84-1.92,1.18-1.15.65-2.22,1.2-3.28,1.72-2.11,1-4.17,2-6.22,2.88-4.11,1.81-8.2,3.52-12.28,5.19l-12.24,4.92-3,1.21-2.86,1.18-2.66,1.22-2.83,1.36c-3.83,1.85-7.84,3.95-12.48,5.79a43.27,43.27,0,0,1-16.19,3.37,44.37,44.37,0,0,1-4.59-.38l-2.28-.45-1.13-.25c-.37-.09-.73-.22-1.09-.34a32,32,0,0,1-4.24-1.59,33.74,33.74,0,0,1-3.88-2l-3.21-2-1.05-.67-1.1-.6c-.71-.43-1.52-.75-2.27-1.14s-1.57-.71-2.41-1a54.83,54.83,0,0,0-10.69-2.76,116.12,116.12,0,0,0-11.93-1.24c-8.42-.45-16.59-.75-23.57.52-.89.13-1.71.35-2.57.52s-1.65.4-2.43.68a29,29,0,0,0-4.46,1.77l-1,.53a.47.47,0,0,0-.16.1l-.08.07-.18.13a2.33,2.33,0,0,0-.49.38,4,4,0,0,0-.61.54l-.69.68c-.24.24-.49.57-.73.84-.5.53-1,1.26-1.52,1.9a81.87,81.87,0,0,0-5.95,9.75c-1.92,3.59-3.74,7.37-5.77,11.43l-.79,1.56-.41.79c-.08.16,0,.09,0,.14l0,.07a2.38,2.38,0,0,0-.12.33,1.5,1.5,0,0,0-.07.27,2.65,2.65,0,0,0-.09.34c-.11.46-.25,1.34-.43,2.43a42.31,42.31,0,0,1-1,4.52,23.73,23.73,0,0,1-2.74,6.08,21.81,21.81,0,0,1-2.17,2.79c-.39.42-.79.86-1.19,1.24l-1.21,1.05A28.23,28.23,0,0,1,342,558a32,32,0,0,1-4.78,2,35.78,35.78,0,0,1-9.51,1.77,47.31,47.31,0,0,1-8.83-.39c-1.4-.21-2.79-.45-4.14-.75-.69-.14-1.34-.31-2-.49l-1.91-.54a74.35,74.35,0,0,1-7.38-2.5,112.4,112.4,0,0,1-13.2-6.45c-2.1-1.15-4-2.34-6-3.51l-5.67-3.49c-3.73-2.33-7.26-4.46-10.78-6.46-1.73-.89-3.48-1.9-5.18-2.65-.85-.38-1.71-.84-2.55-1.17l-2.51-1a39.1,39.1,0,0,0-9.74-2.42,26.61,26.61,0,0,0-4.86-.27c-1.71,0-3.52.16-5.44.37-3.85.43-8.1,1.13-12.81,1.71-2.34.28-4.87.53-7.41.64-1.27.07-2.53.12-3.79.12s-2.51,0-3.75,0a107.52,107.52,0,0,1-15-1.44,80.49,80.49,0,0,1-15.17-4,56.34,56.34,0,0,1-15.24-8.29c-.62-.49-1.24-.95-1.84-1.48l-1.77-1.66-.88-.85-.44-.43-.46-.53c-.61-.69-1.22-1.4-1.81-2.12a33.19,33.19,0,0,1-5.38-10.46,40.51,40.51,0,0,1-1.64-10.34c-.11-3.07,0-5.71.12-7.94s.16-4.14.11-5.74l-.05-1.21-.08-1.44c0-.94-.12-1.92-.2-2.9-.64-7.81-1.94-16.17-3-25.29-.48-4.56-.89-9.31-1-14.26a119.54,119.54,0,0,1,.53-15.12l.41-3.72.49-3.66a27.63,27.63,0,0,1,1.94-7c.48-1.11,1-2.21,1.57-3.3s1.1-2.15,1.61-3.23a37.15,37.15,0,0,0,2.51-6.46l2-6.44,1.9-6.32c.64-2.08,1.19-4.17,1.78-6.23s1.05-4,1.54-6c1-4,1.85-8.14,2.68-12.28l1.26-6.26c.5-2.53,1.07-4.74,1.53-6.64.95-3.87,1.28-6.23,1.17-7.8,0-.19-.05-.39-.07-.59s-.06-.4-.11-.57a2.73,2.73,0,0,1-.14-.51c0-.18-.13-.3-.17-.47a7.48,7.48,0,0,0-1.43-2.23,35.45,35.45,0,0,0-3.81-3.47,76.58,76.58,0,0,1-5.88-5.25,33.36,33.36,0,0,1-6-8.1c-.2-.39-.42-.8-.59-1.16l-.44-1c-.28-.67-.6-1.35-.82-2l-.71-2-.6-1.95c-1.47-5.13-2.12-9.73-2.92-13.65a39,39,0,0,0-2.94-9.78,22.16,22.16,0,0,0-5.93-7.26,65.83,65.83,0,0,0-9.65-6.48l-11.39-6.29c-1.91-1.06-3.85-2.06-5.78-3.1s-3.85-2-5.81-3-3.88-2-5.84-3L95,248.29c-1-.48-2-1-2.81-1.36-3.48-1.57-7.4-2.9-11.62-4.37-2.12-.75-4.31-1.54-6.55-2.46-1.12-.47-2.26-.95-3.39-1.5s-2.25-1.11-3.5-1.82a38.57,38.57,0,0,1-7-5.09,31.85,31.85,0,0,1-5.88-7.29A26.24,26.24,0,0,1,51,215.13a9,9,0,0,1-.11-2.37,11.2,11.2,0,0,0-.23-2.32c-.22-1.54-.44-3.07-.59-4.62a23.57,23.57,0,0,1,0-4.6,18.24,18.24,0,0,1,1.06-4.34c.24-.7.51-1.39.78-2.07s.54-1.2.81-1.81c.56-1.18,1-2.36,1.67-3.53a49.45,49.45,0,0,1,9.87-13.59,38.48,38.48,0,0,1,16-9.14,46.4,46.4,0,0,1,17.07-1.18A86,86,0,0,1,112,168.63c9.14,2.7,17.34,6.1,25.28,8.92a114.82,114.82,0,0,0,11.56,3.59c3.79.89,7.94,1.59,12.36,2.36l1.68.29a3.82,3.82,0,0,0,.43,0,3.68,3.68,0,0,0,.92-.06,3.89,3.89,0,0,0,1.6-.7,1.52,1.52,0,0,0,.36-.38,3.17,3.17,0,0,0,.33-.71,5.72,5.72,0,0,0,0-2.53c-.45-2.17-1.66-3.9-3.87-6.81-.56-.71-1.16-1.51-1.77-2.37s-1.33-1.8-2-2.84-1.39-2.17-2.06-3.46c-.33-.6-.71-1.34-1-1.93s-.53-1.15-.79-1.76a42.74,42.74,0,0,1-2.54-7.85,31.85,31.85,0,0,1-.62-9.27,28.64,28.64,0,0,1,2.51-9.85l.55-1.17c.09-.18.2-.4.34-.64l.38-.7a20.33,20.33,0,0,1,1.68-2.54,21.73,21.73,0,0,1,1.87-2.13c.65-.64,1.32-1.22,2-1.79a28.92,28.92,0,0,1,8.83-4.84,24.49,24.49,0,0,1,5.09-1.12,19.19,19.19,0,0,1,5.62.31c.48.1,1,.21,1.43.33s.95.34,1.41.52a14.59,14.59,0,0,1,2.68,1.34,8.62,8.62,0,0,1,1.21.83,12.4,12.4,0,0,1,1.14.92c.36.35.73.69,1.07,1.05s.65.76,1,1.15a18.68,18.68,0,0,1,2.62,4.85,25.84,25.84,0,0,1,1.09,4.19l.6,3.18.13.65.14.58a7.37,7.37,0,0,0,.33,1.05,8.85,8.85,0,0,0,1.7,3.19,2.54,2.54,0,0,0,.82.54,6.86,6.86,0,0,0,1.68.46c1.51.26,3.56.4,5.73.55,4.39.4,8.78.74,13.19,1,1.09.07,2.24.15,3.28.18s2,0,3,0a37.28,37.28,0,0,0,5.55-.37,16.53,16.53,0,0,0,4.36-1.26,5.11,5.11,0,0,0,2.22-1.79,9.84,9.84,0,0,0,1-2.42c.43-1.34.92-3.41,1.88-6.12a28.91,28.91,0,0,1,2.09-4.45,27.73,27.73,0,0,1,11.37-10.64,53.84,53.84,0,0,1,15.42-4.73c4.51-.8,8.43-1.36,11.76-1.74,1.67-.17,3.16-.37,4.55-.58.66-.14,1.35-.25,2-.43a13.4,13.4,0,0,0,1.92-.73,12,12,0,0,0,6.09-7.26c1.25-3.52,1.34-7.6,1.24-11.74s-.44-8.45-.77-12.9a54.3,54.3,0,0,1,.64-14.49,28.67,28.67,0,0,1,2.64-7.53,22.48,22.48,0,0,1,5.32-6.65,22.89,22.89,0,0,1,3.53-2.5,21.27,21.27,0,0,1,4.15-1.75,17.53,17.53,0,0,1,4.67-.72,16.52,16.52,0,0,1,4.88.58,22.45,22.45,0,0,1,7.74,4.12c1,.81,1.94,1.61,2.8,2.37l2.47,2.2c3.25,2.92,6.5,5.84,9.79,8.72L364,79.83l9.84,8.68,9.7,8.64a33,33,0,0,0,4.19,3.2,14.7,14.7,0,0,0,1.83,1,10.72,10.72,0,0,0,1.76.56c1.38.38,3.4.66,6,1.23a33.25,33.25,0,0,1,4.29,1.24c.75.31,1.49.63,2.23,1s1.4.74,2.1,1.12a36,36,0,0,1,6.82,5.34c1.9,1.85,3.5,3.66,5,5.33,2.88,3.38,5.24,6.11,7.6,7.61,4.65,3.41,12.2,4.73,20.86,5.94a118.22,118.22,0,0,1,13.9,2.6,42.38,42.38,0,0,1,14.76,6.89,26.72,26.72,0,0,1,3.25,2.72c.95.92,1.78,1.8,2.53,2.59a33.42,33.42,0,0,0,3.68,3.59,17.46,17.46,0,0,0,8.37,3,85.63,85.63,0,0,0,12,.45,105.86,105.86,0,0,1,14.13.55,34,34,0,0,1,8.07,2.05,22.44,22.44,0,0,1,7.8,5.22,16.85,16.85,0,0,1,1.55,1.83,17.26,17.26,0,0,1,1.31,1.93,19.46,19.46,0,0,1,2,4.24,27,27,0,0,1,1.31,8.42,51.71,51.71,0,0,1-.55,7.4c-.32,2.3-.65,4.4-1,6.6-.7,4.37-1.44,8.75-2.3,13.11a204,204,0,0,1-6.73,26c-.71,2.11-1.52,4.3-2.28,6.31s-1.57,4.14-2.46,6.24c-1.81,4.19-3.88,8.48-7.31,12.25-.43.46-.91.9-1.37,1.35s-1,.84-1.53,1.25-1.14.76-1.7,1.07l-1.68.84a25.75,25.75,0,0,1-7.09,2c-2.33.32-4.51.39-6.4.73a11.26,11.26,0,0,0-5,2.07,8.88,8.88,0,0,0-1.08.9l-.53.47-.49.55c-.32.38-.66.72-1,1.12l-.9,1.23c-.3.4-.6.84-.9,1.31l-.9,1.37-1.81,2.73-7.2,11c-4.76,7.33-9.6,14.62-14.3,22a52.75,52.75,0,0,0-3.18,5.68,10.47,10.47,0,0,0-.94,3,2.49,2.49,0,0,0,1.11,2.6,9,9,0,0,0,3,1c1.06.2,2.14.34,3.22.46,2.17.23,4.34.41,6.52.67a25,25,0,0,1,3.27.53,12.38,12.38,0,0,1,1.61.46c.52.18,1,.38,1.55.6a33.44,33.44,0,0,1,5.75,3.24,37.46,37.46,0,0,1,9.25,9.25,19.36,19.36,0,0,0-4.64-4.57,33.49,33.49,0,0,0-5.51-3.35,49.94,49.94,0,0,0-5.73-2.41c-.48-.18-.95-.33-1.43-.46s-.95-.25-1.42-.37-.95-.17-1.41-.26l-1.58-.2c-2.15-.28-4.31-.57-6.5-1-1.1-.2-2.21-.41-3.34-.71a10.85,10.85,0,0,1-3.56-1.49,4.2,4.2,0,0,1-1.53-1.91,4.58,4.58,0,0,1-.24-2.27,12.58,12.58,0,0,1,1.1-3.51,63.86,63.86,0,0,1,3.14-5.92c4.55-7.51,9.18-14.88,13.77-22.33l6.9-11.15c1.16-1.86,2.25-3.71,3.48-5.58l.95-1.39c.34-.46.72-.89,1.08-1.33l.54-.65.62-.6a11.77,11.77,0,0,1,1.29-1.15,14.42,14.42,0,0,1,6.24-2.87c2.23-.47,4.42-.6,6.53-1a21.72,21.72,0,0,0,6-1.84l1.39-.74c.45-.27.86-.58,1.3-.86s.79-.67,1.18-1,.74-.74,1.09-1.13a38.23,38.23,0,0,0,6.19-11.22c.78-2,1.49-4.08,2.19-6.15s1.4-4.12,2-6.21a197.91,197.91,0,0,0,5.74-25.5c.71-4.3,1.28-8.63,1.83-13s1.2-8.67,1.06-13a20.93,20.93,0,0,0-1.13-6.34,12.89,12.89,0,0,0-1.43-2.88,10,10,0,0,0-.92-1.31,9.45,9.45,0,0,0-1.07-1.21,14.85,14.85,0,0,0-5.39-3.44,25.59,25.59,0,0,0-6.31-1.44c-8.67-.88-17.44.61-26.18-.35a25.94,25.94,0,0,1-12.32-4.24c-3.6-2.57-6.13-6.28-9.72-8.78a33.53,33.53,0,0,0-11.83-5.34,110.1,110.1,0,0,0-12.9-2.25,120.12,120.12,0,0,1-12.92-2.18,35.17,35.17,0,0,1-12-5.11c-7.29-5-11.2-13.5-18.75-18.15a19.55,19.55,0,0,0-6.07-2.4c-2.12-.5-4.29-.83-6.39-1.43-4.26-1.17-7.79-4-11-6.93l-19-18-19-18-9.51-9c-1.59-1.5-3.14-3-4.82-4.43a16.42,16.42,0,0,0-5.65-3.23,11.67,11.67,0,0,0-6.47,0,15.59,15.59,0,0,0-3,1.24,17.05,17.05,0,0,0-2.7,1.86,17.31,17.31,0,0,0-4.13,5,24,24,0,0,0-2.22,6.14,46.79,46.79,0,0,0-.62,13c.29,4.36.67,8.71.8,13.08a56.4,56.4,0,0,1-.89,13,27.12,27.12,0,0,1-2.06,6.21,20.36,20.36,0,0,1-3.64,5.4,21.1,21.1,0,0,1-5.17,4,30.92,30.92,0,0,1-6.06,2.46,114,114,0,0,1-12.82,2.68,49.22,49.22,0,0,0-12.57,3.55A18.63,18.63,0,0,0,253,132a17.36,17.36,0,0,0-3.55,5.47c-.87,2-1.54,4.08-2.45,6.07a18.65,18.65,0,0,1-1.6,2.86,12.43,12.43,0,0,1-1,1.27,10.5,10.5,0,0,1-1.16,1.15,15.69,15.69,0,0,1-5.72,3.1,27,27,0,0,1-6.44,1.09,78.25,78.25,0,0,1-13.07-.7l-13-1.39a62,62,0,0,1-6.5-.78,11.19,11.19,0,0,1-5.82-2.8,15.45,15.45,0,0,1-3.36-5.56,42.72,42.72,0,0,1-1.67-6.33,14.07,14.07,0,0,0-2.55-6,9.27,9.27,0,0,0-5.57-3.17,11.75,11.75,0,0,0-6.41.79,16.34,16.34,0,0,0-5.44,3.58,13.05,13.05,0,0,0-3.31,5.57,19.7,19.7,0,0,0-.77,6.48,36.7,36.7,0,0,0,3.21,12.63c1.62,4.08,4.1,7.71,6.24,11.51a34.69,34.69,0,0,1,2.74,5.94,21.34,21.34,0,0,1,1.16,6.43,16.55,16.55,0,0,1-1.07,6.42,12.28,12.28,0,0,1-3.84,5.21,13.55,13.55,0,0,1-5.93,2.64,13.69,13.69,0,0,1-3.26.21,25.55,25.55,0,0,1-3.24-.47c-4.3-.74-8.62-1.4-12.89-2.37s-8.43-2.27-12.58-3.66c-8.28-2.76-16.44-6-24.87-8.25a75,75,0,0,0-12.85-2.47,36,36,0,0,0-13,1,27,27,0,0,0-11.2,6.55,39.11,39.11,0,0,0-7.6,10.6c-.53,1-.92,2-1.4,3a31.27,31.27,0,0,0-2.74,9.4,20.91,20.91,0,0,0,2.25,12.69,25.38,25.38,0,0,0,9.22,9.1,82.06,82.06,0,0,0,11.88,5.51c4.06,1.6,8.16,3.13,12.08,5l11.67,6,23.3,12A83.18,83.18,0,0,1,142,264.22a33.89,33.89,0,0,1,8.84,9.57A45.78,45.78,0,0,1,155.51,286c1.09,4.23,2,8.52,3.38,12.66a36.3,36.3,0,0,0,2.61,6,20.72,20.72,0,0,0,4.09,5.09c3.19,3,7,5.25,10.17,8.25a21.82,21.82,0,0,1,4.06,5.11,19.46,19.46,0,0,1,2.2,6.14c.78,4.33.13,8.75-.79,13-.45,2.14-.95,4.26-1.36,6.41l-1.26,6.43q-1.31,6.42-2.84,12.79c-2.07,8.49-4.59,16.86-6.76,25.33a182.9,182.9,0,0,0-5,25.7,135.4,135.4,0,0,0,0,26.17c.68,8.71,1.7,17.4,2,26.14.06,2.18.09,4.37,0,6.55s-.27,4.36-.46,6.54c-.38,4.32-.73,8.78.45,13a18.52,18.52,0,0,0,2.82,5.87,24,24,0,0,0,2.16,2.45l1.16,1.16c.4.37.84.7,1.26,1.05a42.59,42.59,0,0,0,11.32,6.48,78.72,78.72,0,0,0,25.59,5,87.93,87.93,0,0,0,13.08-.47c4.34-.46,8.67-1.11,13-1.51a54.42,54.42,0,0,1,13.07.11,52.67,52.67,0,0,1,12.65,3.32l3,1.26c1,.43,2,1,3,1.41,2,.92,3.87,2,5.8,3.06,3.78,2.18,7.51,4.47,11.2,6.81C292.45,538,299.89,542.66,308,546a59.5,59.5,0,0,0,6.19,2.13,39.75,39.75,0,0,0,6.37,1.47,28.5,28.5,0,0,0,12.95-.82,17.76,17.76,0,0,0,5.75-3l.62-.53c.2-.18.37-.39.56-.59a10.31,10.31,0,0,0,1-1.27,12,12,0,0,0,1.33-3c.6-2.1.79-4.29,1.31-6.42a15.58,15.58,0,0,1,1.07-3.1c.46-1,1-1.94,1.49-2.92,4-7.77,7.74-15.71,13-22.75.68-.85,1.32-1.74,2.07-2.54.36-.41.71-.83,1.1-1.22l1.17-1.14a19.74,19.74,0,0,1,5.45-3.61,39.32,39.32,0,0,1,6.13-2.3,46.89,46.89,0,0,1,6.4-1.42c8.66-1.36,17.46-.86,26.16-.2a121.22,121.22,0,0,1,13,1.65A63.93,63.93,0,0,1,433.67,498c1,.39,2,.88,3,1.32s2,1,2.89,1.56l1.41.84,1.36.92c.9.62,1.82,1.19,2.73,1.79a24.59,24.59,0,0,0,12.32,3.91,35.23,35.23,0,0,0,12.77-2.46c4.1-1.49,8.05-3.38,12-5.16,2-.89,4-1.76,6-2.58s4.11-1.48,6.16-2.21l12.35-4.41c4.1-1.5,8.2-3,12.26-4.63,2-.81,4-1.64,6-2.53,1-.44,2-.91,3-1.41.48-.25,1-.52,1.42-.81s1-.61,1.1-1.09v0h0a10.75,10.75,0,0,0,4.33-3.43,18.83,18.83,0,0,0,2.63-4.9,37.29,37.29,0,0,0,2.11-11,49.66,49.66,0,0,0-.64-11.16,33.35,33.35,0,0,0-1.41-5.41,16.73,16.73,0,0,0-2.63-4.91,11.62,11.62,0,0,0-4.15-3.64,10.16,10.16,0,0,0-5.45-.79c-1.86.15-3.71.47-5.58.59a22,22,0,0,1-2.81,0,9,9,0,0,1-2.75-.54,16.61,16.61,0,0,1-4.78-2.91c-1.45-1.19-2.83-2.45-4.2-3.72a63.77,63.77,0,0,1-7.54-8.3,25.42,25.42,0,0,1-4.79-10.07,16.38,16.38,0,0,1-.25-2.8,15.51,15.51,0,0,1,.33-2.79A27.42,27.42,0,0,1,494.8,400c1.53-3.41,3.43-6.67,4.42-10.28a42.73,42.73,0,0,0,1.24-11.1c0-7.48-1.62-14.83-2.39-22.27-.23-1.87-.4-3.72-.66-5.57l-.85-5.54c-.28-1.84-.58-3.69-.83-5.55A27.68,27.68,0,0,1,495.43,334Z"/></svg>