<svg id="Layer_1" data-name="Layer 1" xmlns="http://www.w3.org/2000/svg" viewBox="0 0 600 600"><title>FrenchGuiana</title><path d="M174.82,61.56c-3.69,6.88-4.67,14.73-7.78,21.93A59.1,59.1,0,0,1,161.54,94c-.55.83-1.15,1.62-1.72,2.44l-1.75,2.32-3.53,4.64-7,9.23c-1.17,1.54-2.29,3.09-3.44,4.64s-2.21,3.13-3.25,4.73c-2.15,3.16-4.11,6.41-6,9.68a100.52,100.52,0,0,0-4.91,10.07,76.21,76.21,0,0,0-3.53,10.43c-.23.9-.47,1.74-.68,2.67l-.61,2.78c-.43,1.85-.78,3.72-1.15,5.58-1.44,7.45-2.53,15-3.25,22.45s-1,15-1.1,22.51.27,14.93.92,22.31c1.37,14.75,4.5,29.29,10.15,42.62a115.79,115.79,0,0,0,10,18.95,122.71,122.71,0,0,0,12.93,16.42c1.18,1.26,2.42,2.45,3.59,3.69s2.29,2.19,3.62,3.37c2.59,2.29,5.41,4.75,8.4,7.46s6.08,5.71,9.15,9.13l2.31,2.67c.77.91,1.52,1.93,2.27,2.9s1.49,2.05,2.22,3.12l1.09,1.62c.36.56.69,1.17,1,1.76a63.71,63.71,0,0,1,3.76,7.63c.53,1.42,1,2.85,1.49,4.29s.75,3,1.09,4.56a38,38,0,0,1,.69,4.72c.07.79.17,1.59.21,2.38v2.34c0,.78,0,1.56-.06,2.34s-.17,1.63-.29,2.44l-.38,2.44c-.15.82-.37,1.66-.59,2.48s-.48,1.64-.73,2.45-.62,1.6-.94,2.39a35.55,35.55,0,0,1-2.29,4.48c-.21.36-.41.72-.63,1.06l-.69,1L186.5,393c-.46.63-.95,1.12-1.43,1.67s-1,1.09-1.46,1.55a66.69,66.69,0,0,1-10.25,7.87,23.53,23.53,0,0,0-6.45,5.57,16.48,16.48,0,0,0-3,7.7,38.78,38.78,0,0,0,0,9.8l.36,2.78.42,2.9.48,3.06.41,3.21a60.31,60.31,0,0,1,.23,14.35l-.09,1-.13.87-.27,1.74c-.19,1.17-.45,2.32-.68,3.48s-.53,2.3-.86,3.44-.69,2.26-1.08,3.38a80.38,80.38,0,0,1-13.57,23.82c-2.69,3.44-5.8,6.79-8.13,9.4s-4.72,5.41-6.77,8.06a63.44,63.44,0,0,0-5.18,7.76,24.9,24.9,0,0,0-2.66,6.68,11.27,11.27,0,0,0-.24,2.33,5.5,5.5,0,0,0,.25,1.61,5.75,5.75,0,0,0,.72,1.56,8.75,8.75,0,0,0,1.24,1.58,12.91,12.91,0,0,0,4.35,2.75c.91.36,1.86.65,2.82,1,.48.16,1,.35,1.46.49s1.22.25,1.82.36c.32,0,.63.11,1,.15s.64,0,1,0c.65,0,1.29,0,1.94-.13a32,32,0,0,0,4-1c1.32-.39,2.73-1,4.1-1.55.69-.31,1.41-.69,2.11-1l1.05-.52,1.09-.59c2.85-1.51,5.9-3.36,9.11-5.15a105.79,105.79,0,0,1,10.6-5.19,101.27,101.27,0,0,1,12.68-4.23c1.13-.3,2.35-.54,3.52-.81l1.78-.38,1.75-.26c2.34-.34,4.68-.62,7-.9,2.34-.13,4.69-.16,7-.23.58,0,1.16,0,1.74,0l1.73.11,3.45.25c1.14.1,2.29.14,3.41.29l3.35.49,3.32.55c1.11.18,2.16.47,3.24.71a180.62,180.62,0,0,1,24.07,7.43c7.53,2.78,14.77,5.45,22,7.58,1.79.5,3.6,1.09,5.39,1.49s3.6.82,5.4,1.18l5.4.79c1.8.2,3.59.22,5.38.34a52.54,52.54,0,0,0,5.33-.07l2.65-.13c.87-.07,1.71-.19,2.56-.28s1.69-.23,2.53-.37,1.68-.26,2.52-.46l2.49-.52,2.47-.63a93.7,93.7,0,0,0,9.65-3.14c.8-.27,1.58-.59,2.37-.88.39-.16.9,0,1.27-.27s.68-.54,1-.83c1.33-1.18,2.34-2.84,3.71-3.73a78.32,78.32,0,0,0,7.89-5.73,60.51,60.51,0,0,0,6.75-6.74,52,52,0,0,0,5.16-7.5,82.07,82.07,0,0,0,4.17-8.84c2.52-6.31,4.57-13.3,6.86-20.8,1.17-3.72,2.4-7.57,3.83-11.53.67-2,1.49-4,2.3-6l2.34-5.49,2.35-5.44,2.48-5.39c1.64-3.59,3.37-7.14,5.08-10.7s3.59-7,5.39-10.56c.9-1.75,1.85-3.49,2.77-5.23a36.05,36.05,0,0,1,3-5.1c2.37-3.21,5.89-5.81,9.18-8.49a37.15,37.15,0,0,0,4.49-4.25c1.33-1.5,2.42-3.13,3.59-4.71,2.35-3.17,4.52-6.43,6.71-9.68s4.15-6.62,6.12-10c3.85-6.81,7.92-13.47,11.63-20.39q1.37-2.61,2.79-5.19c.93-1.72,1.81-3.49,2.73-5.23l5.5-10.49q1.41-2.59,2.86-5.18l3-5.1c1-1.68,2.1-3.33,3.18-5l3.19-4.74c1-1.5,2.09-2.92,3.05-4.4a48.1,48.1,0,0,1,3.12-4.31,49.66,49.66,0,0,1,3.39-4.12l3.62-4.06,1-1,.86-1.06c.58-.7,1.14-1.43,1.71-2.16a18.07,18.07,0,0,0,1.61-2.24c.49-.76,1-1.55,1.41-2.34a28.17,28.17,0,0,0,2.24-4.95,22.11,22.11,0,0,0,.83-2.58c.19-.88.4-1.75.57-2.64a27.49,27.49,0,0,0,.5-5.36,47.91,47.91,0,0,0-.16-5.36,50.19,50.19,0,0,0-.58-5.33,26.48,26.48,0,0,0-.4-2.65l-.57-2.62a79.74,79.74,0,0,0-7.74-20.2L472,227.23a40.77,40.77,0,0,0-2.95-4.17,29.86,29.86,0,0,0-7-6.51,26.74,26.74,0,0,0-8.47-3.61l-1.14-.25a8.47,8.47,0,0,0-.88-.12c-.6-.07-1.37-.11-2.18-.14-1.65-.06-3.59,0-5.87-.18a28.27,28.27,0,0,1-8.06-1.52l-1.19-.47-1-.45c-.68-.31-1.27-.63-1.87-1-1.2-.66-2.27-1.34-3.3-2-2-1.38-3.78-2.8-5.42-4.15s-3.15-2.65-4.53-3.86c-.7-.6-1.37-1.17-2-1.68-.31-.24-.64-.51-.93-.72l-1-.75c-1.57-1.14-3.06-2.37-4.6-3.56L405,188.51l-4.48-3.69c-1.48-1.25-3-2.43-4.45-3.73a15,15,0,0,1-3.13-5.28,18.38,18.38,0,0,0-3-5.45c-1.35-1.4-2.82-2.66-4.23-4-5.64-5.3-11.54-10.32-17.53-15.23s-12.05-9.73-18-14.71-11.69-10.16-17.38-15.4-11.12-10.33-17-14.69a74.13,74.13,0,0,0-9-5.91,50.23,50.23,0,0,0-9.72-4.06c-6.71-2-14.34-2.37-22.18-3.18a87.71,87.71,0,0,1-11.9-1.92,72,72,0,0,1-11.49-3.71,91.6,91.6,0,0,1-20.42-12.08c-3.11-2.39-6.1-4.9-9.05-7.44s-5.75-5.16-8.8-7.52a66.14,66.14,0,0,0-9.59-6.4,32.23,32.23,0,0,0-10.84-3.8,15.49,15.49,0,0,0-11,2.28,17.87,17.87,0,0,0-4.17,4,29.74,29.74,0,0,0-3,5Zm-.08,0c.46-.85.75-1.79,1.23-2.64.24-.42.46-.86.71-1.28l.8-1.23a18.56,18.56,0,0,1,4.08-4.27A15,15,0,0,1,187,49.57a18.13,18.13,0,0,1,6-.38,32.82,32.82,0,0,1,11.41,3.51,67.11,67.11,0,0,1,10.05,6.22c3.17,2.28,6.18,4.85,9.13,7.28s6,4.77,9.14,7a87.57,87.57,0,0,0,20.08,10.88,75,75,0,0,0,22.39,4.47c7.67.5,15.54.49,23.21,2.35a65.64,65.64,0,0,1,21.15,9.84,190.18,190.18,0,0,1,18.2,14.49c11.67,10.19,23.43,20.25,35.14,30.39s23.44,20.24,35.22,30.29l8.82,7.56c2.92,2.53,5.95,5,8.66,7.72a105.81,105.81,0,0,0,8.48,7.93,23.33,23.33,0,0,0,4.91,3.06,21.76,21.76,0,0,0,5.63,1.37c3.82.53,7.76.6,11.41,2a36.33,36.33,0,0,1,10.23,5.39,39.65,39.65,0,0,1,4.32,3.87,44.13,44.13,0,0,1,3.69,4.48,48.84,48.84,0,0,1,3.11,4.9l2.72,5.13a88.74,88.74,0,0,1,7.69,21.83,67.85,67.85,0,0,1,.7,23.09,79.89,79.89,0,0,1-6.73,22.14c-.86,1.73-1.64,3.51-2.57,5.2l-2.85,5.07-3.1,4.9c-1,1.63-2.2,3.19-3.3,4.78a772.1,772.1,0,0,0-50.29,78q-11.4,20.24-21.52,41.16c-1.67,3.49-3.37,7-5,10.49s-3.26,7-4.83,10.56a214.1,214.1,0,0,0-8.52,21.59c-2.54,7.31-5.05,14.65-8.26,21.7a93.85,93.85,0,0,1-5.48,10.23,64.2,64.2,0,0,1-7.09,9.18,76.65,76.65,0,0,1-40.08,22,78.2,78.2,0,0,1-11.5,1.51c-1,0-1.94.1-2.9.11l-2.91,0c-1.93,0-3.87,0-5.8-.21s-3.86-.25-5.78-.5l-5.76-.78-5.71-1c-1.91-.33-3.79-.79-5.69-1.17-7.56-1.65-15.06-3.6-22.6-5.35a166.91,166.91,0,0,0-22.87-3.94,95.92,95.92,0,0,0-23.15.57l-5.69,1.15-1.42.3-1.4.39c-.93.27-1.87.5-2.79.81-3.69,1.17-7.29,2.58-10.87,4.07-7.13,3-14.12,6.36-21.44,8.92l-1.36.49-1.39.43c-.93.27-1.85.58-2.78.84-1.88.46-3.75,1-5.66,1.27a55.68,55.68,0,0,1-5.76.76c-1,0-1.93,0-2.9.07-.48,0-1,0-1.45,0l-1.45-.11a31.76,31.76,0,0,1-11.28-2.49,28.28,28.28,0,0,1-9.55-6.46,22.38,22.38,0,0,1-5.65-21.49,40.35,40.35,0,0,1,4.46-10.68,78.22,78.22,0,0,1,6.6-9.54c2.42-3,5-5.92,7.62-8.76s5.31-5.64,7.77-8.63A76.59,76.59,0,0,0,150,462.13a58.86,58.86,0,0,0,3.33-11.1,51.39,51.39,0,0,0,.79-11.55c-.25-7.73-1.59-15.45-.79-23.19a36.93,36.93,0,0,1,2.86-11.22,40.9,40.9,0,0,1,6.13-9.83c2.42-3,5.06-5.86,7.32-9a27.38,27.38,0,0,0,4.79-10.46,30.11,30.11,0,0,0,0-11.51,34.71,34.71,0,0,0-4.06-10.8c-3.77-6.78-9-12.55-14.33-18.18-2.66-2.81-5.35-5.6-7.94-8.48-1.3-1.43-2.55-2.91-3.78-4.41s-2.4-3-3.54-4.6A144.56,144.56,0,0,1,120,276.52a180.71,180.71,0,0,1-8.25-45.59,223.73,223.73,0,0,1,2.41-46.32q1.76-11.48,4.61-22.76c.48-1.87,1-3.75,1.49-5.61l.78-2.8c.26-.93.58-1.84.87-2.77a82.2,82.2,0,0,1,4.35-10.77,106.9,106.9,0,0,1,5.67-10.13c2.11-3.25,4.29-6.45,6.64-9.53,4.64-6.2,9.68-12.08,14.63-18l3.69-4.48,1.84-2.25c.58-.77,1.19-1.52,1.76-2.3a57.88,57.88,0,0,0,5.75-10.06c1.57-3.53,2.87-7.18,4.21-10.81s2.73-7.25,4.25-10.81Z"/></svg>