<svg xmlns="http://www.w3.org/2000/svg" viewBox="0 0 600 600"><title>Greece</title><g id="Layer_2" data-name="Layer 2"><path d="M401.81,79a14.52,14.52,0,0,1-3.28,2.8,17.39,17.39,0,0,1-2,1,18.59,18.59,0,0,1-2,.8,25.3,25.3,0,0,1-8.61,1.35,41.69,41.69,0,0,1-8.5-1.5,39.5,39.5,0,0,0-4.2-.68c-1.4-.17-2.82-.28-4.25-.33-2.86-.11-5.77,0-8.61-.34A56.72,56.72,0,0,1,352,80.47c-2.74-.75-5.44-1.67-8.14-2.55s-5.44-1.62-8.19-2.34l-8.29-2c-2.72-.66-5.42-1.29-8.12-1.78a56.14,56.14,0,0,0-16-.8,76.68,76.68,0,0,0-8,1.23c-1.33.27-2.66.57-4,.89l-4.1,1c-5.48,1.32-10.92,2.68-16.31,4.14s-10.71,3-15.93,4.76c-2.61.87-5.19,1.78-7.73,2.76l-1,.36-.84.34c-.56.22-1.13.49-1.69.74-1.13.53-2.29,1.11-3.46,1.73l-7.44,4c-1.33.7-2.69,1.4-4.16,2.05-.72.34-1.48.66-2.24,1l-1.18.45-1.28.43a44.08,44.08,0,0,1-10,1.91c-3.18.29-6.12.35-8.84.48a54.62,54.62,0,0,0-7.36.72,44.81,44.81,0,0,0-6.76,1.89c-2.34.84-4.74,1.85-7.26,2.94L176,108.1c-2.5,1.11-5,2.21-7.38,3.37s-4.75,2.28-7,3.5a69.76,69.76,0,0,0-12.21,8.2,44.69,44.69,0,0,0-4.9,4.82,35.26,35.26,0,0,0-3.78,5.38c-2.26,3.89-4,8.79-6.15,14.17-1.07,2.69-2.2,5.52-3.61,8.44-.71,1.46-1.46,2.93-2.31,4.4-.4.74-.88,1.47-1.34,2.2s-.94,1.44-1.43,2.12c-3.89,5.45-8,9.68-11.41,13.64s-6,7.64-7.28,11.16l-.22.66-.12.33-.15.53-.61,2.11-1.2,4.06c-.79,2.65-1.51,5.24-2.17,7.81s-1.19,5.09-1.61,7.54a40.82,40.82,0,0,0-.65,6.92v.79c0,.25,0,.47.05.71a9.63,9.63,0,0,0,.15,1.32l.1.58a2.18,2.18,0,0,0,0,.29l.07.21a5.58,5.58,0,0,0,.3.9,17.79,17.79,0,0,0,3.32,4.69c1.63,1.84,3.76,3.91,6,6.54a36.71,36.71,0,0,1,3.21,4.49,32.08,32.08,0,0,1,2.5,5.23A37,37,0,0,1,118.32,256a54.24,54.24,0,0,1-.52,10,87.31,87.31,0,0,1-1.82,9.16l-2.06,8.2c-1.28,5.24-2.13,10.1-1.88,14.39,0,.54.09,1.05.13,1.58l.24,1.52a17.6,17.6,0,0,0,.84,2.87,19.24,19.24,0,0,0,2.83,5.15,9.05,9.05,0,0,0,1.48,1.46,2,2,0,0,0,.8.39,1.61,1.61,0,0,0,.64,0,3.42,3.42,0,0,0,1-.44,2.24,2.24,0,0,0,.63-.66,2.15,2.15,0,0,0,.19-.4,13.46,13.46,0,0,0,.47-1.5c.19-.73.43-1.65.81-2.81a19.23,19.23,0,0,1,.74-1.85,14.16,14.16,0,0,1,1.27-2.22,12.78,12.78,0,0,1,1.89-2.27,14.46,14.46,0,0,1,2.51-2,18,18,0,0,1,2.78-1.39,22.62,22.62,0,0,1,2.67-.81,33.68,33.68,0,0,1,7.83-.67c2,0,3.57.12,4.49.08l.49-.06.05-.06s.09,0-.05-.08l-.28-.08s-.16,0-.07,0l.14,0,.54-.09c.76-.16,1.52-.33,2.39-.6,3.39-1,7.75-3,13.39-5.21,1.41-.55,2.95-1.11,4.56-1.65s3.21-1,4.83-1.43a95.27,95.27,0,0,1,9.85-2.08,102.53,102.53,0,0,1,20-1.16c3.35.13,6.7.41,10,.84l2.5.36,2.28.37c1.51.24,3.05.52,4.6.82a93.54,93.54,0,0,1,19.73,5.89c.44.21.79.35,1.34.62s1,.5,1.52.76c1,.53,2,1.08,3,1.7a37.76,37.76,0,0,1,6,4.59,29.53,29.53,0,0,1,6.32,8.42,24.72,24.72,0,0,1,2.25,7.06,23.92,23.92,0,0,1-.19,8.32c-.07.33-.13.69-.21,1l-.27.93c-.19.62-.39,1.24-.61,1.84a23.15,23.15,0,0,1-1.76,3.73,24.56,24.56,0,0,1-5.17,6.12,25.89,25.89,0,0,1-5.43,3.54,30.7,30.7,0,0,1-4.72,1.82,39.47,39.47,0,0,1-7.57,1.38,43.62,43.62,0,0,1-6.2.13A34,34,0,0,1,219,338.75l-4.93-1.93c-1.61-.62-3.19-1.14-4.76-1.62-6.23-2-11.76-4.31-16.93-6.18-1.29-.47-2.56-.93-3.79-1.35l-1.85-.61-.9-.29-.83-.25A55.91,55.91,0,0,0,178.4,325a43.05,43.05,0,0,0-12.21-.38l-.69.09-.57.1a9.2,9.2,0,0,0-1.11.24,18.05,18.05,0,0,0-2.2.67,12.79,12.79,0,0,0-3.5,2,7.92,7.92,0,0,0-1.62,1.66,3,3,0,0,0-.32.74c0,.15-.12.33-.09.44s-.09.28-.05.37a.55.55,0,0,1,0,.17c0,.06,0,.12,0,.19a1.7,1.7,0,0,1,0,.22,2.36,2.36,0,0,1,.12.28c0,.1,0,.19.1.32a3.72,3.72,0,0,1,.21.39,6.3,6.3,0,0,0,.59.93,54.74,54.74,0,0,0,4.89,5.45,46.15,46.15,0,0,1,7,8.92l.8,1.46c.25.51.48,1.05.71,1.59s.46,1.09.64,1.59l.43,1.35a45.29,45.29,0,0,1,1.29,5.33c1.22,7,.92,13.24.86,18.73,0,1.38,0,2.69,0,4l.07,1.72c0,.57.1,1.15.14,1.72a35.42,35.42,0,0,0,1.3,6.68c1.26,4.26,3.42,7.75,5.74,9.18a6.7,6.7,0,0,0,1.82.85,6.73,6.73,0,0,1,1,.23,10.87,10.87,0,0,1,1.14.05,2.16,2.16,0,0,0,.29,0l.44,0,1,0c.71,0,1.49-.07,2.37-.08a25.44,25.44,0,0,1,6.3.6,17.06,17.06,0,0,1,7.49,3.95,18.27,18.27,0,0,1,4.46,6.64,31.89,31.89,0,0,1,1.64,5.69c.34,1.67.55,3.16.77,4.49a32.78,32.78,0,0,0,.67,3.35,4.7,4.7,0,0,0,.62,1.58c0,.06.05,0,.05,0s-.06-.09,0,0a2.45,2.45,0,0,0,.38.36,1.79,1.79,0,0,0,.85.29,7.82,7.82,0,0,0,1.59.08c.36,0,.74,0,1.16-.1l.65-.09.34,0,.14,0c.31-.08,1.08-.3,2.17-.7l.87-.33.47-.16c.18-.05.37-.08.56-.12a3.37,3.37,0,0,0,1.13-.36c.36-.2.73-.42,1.17-.64a23.7,23.7,0,0,1,6.54-2.66c.36-.07.71-.15,1.08-.2l1.16-.1a11.72,11.72,0,0,1,1.19-.05c.4,0,.81,0,1.22.07a13.43,13.43,0,0,1,2.43.42,10.21,10.21,0,0,1,1.2.34c.41.15.83.32,1.23.49a14.94,14.94,0,0,1,2.43,1.27,16,16,0,0,1,2.32,1.72,15.72,15.72,0,0,1,2,2,16.35,16.35,0,0,1,1.53,2.11,27.68,27.68,0,0,1,2.84,6.51,20.85,20.85,0,0,0,.88,2.55s0,.07,0,0a.41.41,0,0,0-.12-.18,1,1,0,0,0-.27-.3,1.07,1.07,0,0,0-.34-.33,1.66,1.66,0,0,0,.88.28,1.55,1.55,0,0,0,.42,0,1.18,1.18,0,0,1,.41-.17c.13-.05.08-.11.19-.09s0,0,.05,0,0,0,0,0a2.73,2.73,0,0,0,.3-.68,13.22,13.22,0,0,0,.26-4.52,42.17,42.17,0,0,0-1.13-6.59c-.29-1.16-.63-2.37-1-3.7L249,420.86l-2.45-8.05c-1.68-5.46-3.34-11.13-4.74-17.05l-1-4.31-.48-2.27-.26-1.43-.13-.94-.06-.48,0-.63,0-.65c0-.24,0-.38,0-.72,0-.59.06-1.18.13-1.77a16.54,16.54,0,0,1,.47-2.15,15.8,15.8,0,0,1,.86-2.15,16.59,16.59,0,0,1,1.07-1.77c.21-.31.38-.51.53-.7l.5-.58c.16-.18.36-.41.5-.55l.39-.38c.25-.24.57-.55.77-.72.88-.75,1.56-1.29,2.15-1.74l1.67-1.3a51,51,0,0,1,9-5.43,45.89,45.89,0,0,0,6.11-3.28c.13-.11.33-.22.42-.31a2.44,2.44,0,0,1,.29-.27l.15-.12s.05-.08.08-.11a.86.86,0,0,1,.18-.2c.09-.12.1-.23.21-.32a3.84,3.84,0,0,1,.13-.41,5.7,5.7,0,0,1,.11-.61,6.4,6.4,0,0,1,.08-.87c0-.39,0-.77,0-1.16v-.14c0-.07,0-.07,0,0a.29.29,0,0,0,0,.09s0,.07,0,.07l-.05,0c-.08-.12-.35-.85-.86-1.94a46.35,46.35,0,0,1-1.93-4.77c-.18-.48-.35-1.14-.51-1.77-.08-.32-.16-.6-.23-1l-.19-1.13c-.05-.37-.11-.74-.15-1.13s0-.87-.05-1.3,0-.87,0-1.31.08-.94.15-1.42.13-.94.22-1.41.24-1,.38-1.42a15,15,0,0,1,1-2.7c.21-.42.43-.84.65-1.25l.35-.61.36-.52c.48-.68,1-1.36,1.52-2l-.78.95c.35-.47.71-.93,1.09-1.38l.57-.66.29-.33.39-.37a19.33,19.33,0,0,1,3.61-2.73,17.78,17.78,0,0,1,4.86-2,24.67,24.67,0,0,1,2.62-.41,11.19,11.19,0,0,1,1.25-.06c.4,0,.81,0,1.21,0s.81.05,1.21.09.69.1,1,.17a15.49,15.49,0,0,1,3.65,1.15,13.16,13.16,0,0,1,1.41.74A16.65,16.65,0,0,1,291,328.6a18.42,18.42,0,0,1,1.73,1.67,22.42,22.42,0,0,1,2.55,3.27,36.92,36.92,0,0,1,1.8,3.26,23.39,23.39,0,0,1,1.2,3c.31.89.52,1.64.69,2.24a6,6,0,0,1,.4,2.1.35.35,0,0,0,.14.37,2.1,2.1,0,0,0,.32.13c.14,0,.33.09.43.09a2,2,0,0,0,1.11,0,2.27,2.27,0,0,0,1.17-1.24,5.72,5.72,0,0,0,.44-1.27,5.55,5.55,0,0,0,.13-.73,2.27,2.27,0,0,0,0-.58c0-.52-.09-1.32-.2-2.22l-.36-3a25,25,0,0,1-.09-3.86,13.16,13.16,0,0,1,1.46-5.4,10.46,10.46,0,0,1,2.26-2.87,8.49,8.49,0,0,1,1.37-1,9.85,9.85,0,0,1,1.35-.75,16.67,16.67,0,0,1,4.54-1.35A43.62,43.62,0,0,1,320,320c.9,0,1.75,0,2.28-.07l1-.12,1.13-.17a14.89,14.89,0,0,0,3.62-1.09,4.08,4.08,0,0,0,1.7-1.41,2.28,2.28,0,0,0,.24-.67,5.54,5.54,0,0,0-.43-3,7.73,7.73,0,0,0-1.43-2.27,21.6,21.6,0,0,0-2.76-2.71c-2.19-1.93-5.49-4.21-8.87-8.07a35.34,35.34,0,0,1-2.4-3.13,36.19,36.19,0,0,1-1.94-3.35c-1.12-2.17-1.94-4.15-2.69-5.88-1.41-3.49-2.56-6-3.45-7a4.52,4.52,0,0,0-1.08-1,12.31,12.31,0,0,0-2.47-1.2c-1.29-.52-3-1.16-5.07-2.1a38.87,38.87,0,0,1-5.85-3.38A48.83,48.83,0,0,1,282,264.3,99.92,99.92,0,0,1,274.71,254a98.58,98.58,0,0,1-5.94-10.66c-1.71-3.7-2.78-7.37-4-10.71-.63-1.66-1.25-3.27-1.94-4.77a49.24,49.24,0,0,0-2.33-4.41c-1.79-2.88-3.9-5.71-6.09-8.65s-4.52-6-6.65-9.09a193.91,193.91,0,0,1-11.93-19.32c-3.62-6.75-6.63-13.64-9.56-20.27l-.57-1.27c-.21-.48-.45-1-.68-1.68a14.23,14.23,0,0,1-.92-5.18,10.73,10.73,0,0,1,.15-1.63,12.23,12.23,0,0,1,.35-1.57c.09-.28.18-.56.28-.84s.26-.61.4-.91a11.27,11.27,0,0,1,1.13-1.82,10.65,10.65,0,0,1,3.58-2.88,11.77,11.77,0,0,1,3.67-1,15.51,15.51,0,0,1,5.2.38,23.52,23.52,0,0,1,3.8,1.25,29.51,29.51,0,0,1,3.28,1.64,24.9,24.9,0,0,1,3.2,2.15,15.7,15.7,0,0,1,1.89,1.77c.22.24.26.3.38.44l.31.37c.2.25.41.49.59.74a34.54,34.54,0,0,1,2,3,58.92,58.92,0,0,1,2.89,5.69c.8,1.74,1.51,3.34,2.22,4.69a23.36,23.36,0,0,0,2.22,3.53,25,25,0,0,0,6,5.64,26.56,26.56,0,0,0,7.48,3.58c.58.18,1.54.44,2.18.59a8.93,8.93,0,0,0,1.47.26c.29,0,.29,0,.16,0s-.33.07-.32,0,0,0,0,0l.61-.42c.47-.32.95-.64,1.42-.92.95-.6,1.89-1.14,2.79-1.64,1.82-1,3.54-1.87,5.07-2.67a30.47,30.47,0,0,0,7-4.53c.16-.14.53-.51.85-.83l1-1c.72-.71,1.49-1.45,2.36-2.21a12.47,12.47,0,0,1,3-2.07,15.22,15.22,0,0,1,4.05-1.24,49.13,49.13,0,0,1,8.29-.45l2.67-.06c.36,0,.66,0,.92-.06l.17,0H319c.05,0,.11,0,.15,0a1.35,1.35,0,0,0,.91-.59,2,2,0,0,0,.34-1.37,1.93,1.93,0,0,0-.23-.75,6.9,6.9,0,0,0-.94-1.25,30.37,30.37,0,0,0-3.6-3,27.28,27.28,0,0,1-4.87-4.71,20.87,20.87,0,0,1-3.44-6.3,22,22,0,0,1-1.16-6.89,26.53,26.53,0,0,1,.79-6.67,24.2,24.2,0,0,1,6.54-11.6,19.75,19.75,0,0,1,5.76-3.91,11.57,11.57,0,0,1,1.64-.63,12.66,12.66,0,0,1,1.66-.47,23,23,0,0,1,3.27-.55,27.44,27.44,0,0,1,6.42.14,42.23,42.23,0,0,1,5.92,1.34c3.77,1.12,7.24,2.55,10.6,3.81a57.81,57.81,0,0,0,9.92,3c6.53,1.11,13.51-.11,20.51-1.85s14.22-4,21.92-4.62l2.9-.15,2.91.08c1.9.11,3.73.28,5.57.46,3.67.35,7.28.77,10.76.75a16.47,16.47,0,0,0,9.4-2.51c2.6-1.87,4.38-4.89,5.64-8.13l.87-2.49.79-2.63,1.54-5.27c1-3.51,1.92-7,2.63-10.58a60.24,60.24,0,0,0,1.3-10.74,34,34,0,0,0-.3-5.34,20.09,20.09,0,0,0-1.46-5.08,28.29,28.29,0,0,0-15.19-14.59,24,24,0,0,0-5.25-1.36,9.37,9.37,0,0,0-5.29.58,10,10,0,0,0-4,3.52,24.88,24.88,0,0,0-2.56,4.84c-1.41,3.38-2.49,6.89-3.86,10.3A27.65,27.65,0,0,1,401.81,79Zm0,0a18.51,18.51,0,0,0,3.13-4.48,39.07,39.07,0,0,0,2.15-5c1.24-3.43,2.17-7,3.47-10.47A25.92,25.92,0,0,1,413,53.84a11.14,11.14,0,0,1,4.39-4.07,10.52,10.52,0,0,1,6-.82,24.51,24.51,0,0,1,5.63,1.3,29.93,29.93,0,0,1,9.67,6.06,28.58,28.58,0,0,1,6.72,9.22,22.66,22.66,0,0,1,1.68,5.53,36.14,36.14,0,0,1,.41,5.67,62.44,62.44,0,0,1-1.17,11.13c-.68,3.65-1.55,7.25-2.51,10.81L442.35,104l-.76,2.65-.88,2.69c-1.31,3.51-3.23,7.05-6.41,9.44A19.25,19.25,0,0,1,423.35,122a109.6,109.6,0,0,1-11.09-.59c-1.82-.15-3.65-.3-5.45-.38l-2.69,0-2.69.17c-7.2.69-14.2,3-21.3,4.85a86.13,86.13,0,0,1-10.86,2.27,40.5,40.5,0,0,1-11.16,0c-7.42-1.2-14.07-4.58-21.07-6.55a38.55,38.55,0,0,0-5.31-1.12,23,23,0,0,0-5.37,0,16.67,16.67,0,0,0-5.17,1.36,15.24,15.24,0,0,0-4.36,3.07,19.38,19.38,0,0,0-5.05,9.4,19.15,19.15,0,0,0,.42,10.69,17.89,17.89,0,0,0,6.65,8.39,38.49,38.49,0,0,1,4.3,3.48,9.57,9.57,0,0,1,2.82,4.71,7.74,7.74,0,0,1-.79,5.4,7.22,7.22,0,0,1-4.16,3.46,22.91,22.91,0,0,1-5.47.58,13,13,0,0,0-5.31,1.28c-3.32,1.62-5.85,4.41-8.45,7a37.08,37.08,0,0,1-9.14,6.06,79.68,79.68,0,0,0-9.58,5.39,8.2,8.2,0,0,1-5.31,1,29.72,29.72,0,0,1-5.33-1.34A34.4,34.4,0,0,1,255,177.61a50.14,50.14,0,0,1-4.93-9.82,49,49,0,0,0-2.37-5,22.68,22.68,0,0,0-1.49-2.31,9.61,9.61,0,0,0-1.84-2,21.25,21.25,0,0,0-4.7-2.84,11.27,11.27,0,0,0-5.31-1.18,4.34,4.34,0,0,0-1.33.34,3.53,3.53,0,0,0-1.07.85,4.61,4.61,0,0,0-.84,2.57c0,1.87.82,3.57,1.5,5.25,2.82,6.77,5.52,13.6,8.76,20.19a186.79,186.79,0,0,0,10.83,19.15c2,3.08,4.09,6.1,6.24,9.07s4.29,6,6.17,9.11a56,56,0,0,1,4.66,9.95c1.29,3.43,2.44,6.93,4,10.23a49.77,49.77,0,0,0,13.53,17.14,50.27,50.27,0,0,0,9.22,6,49,49,0,0,0,5.05,2.18c1.72.64,3.48,1.16,5.2,1.79a22.16,22.16,0,0,1,4.95,2.39,15.77,15.77,0,0,1,3.9,3.83c2.15,3,3.34,6.53,4.55,10s2.51,6.95,4.79,9.85,5.06,5.31,7.54,8a28.31,28.31,0,0,1,3.38,4.33,16.38,16.38,0,0,1,2.07,5.07,13.57,13.57,0,0,1,.13,5.46,10.1,10.1,0,0,1-2.39,4.89,12.16,12.16,0,0,1-4.51,3.07,22.17,22.17,0,0,1-5.31,1.36c-3.63.69-7.34,0-11,.52a9.58,9.58,0,0,0-2.64.73,4.26,4.26,0,0,0-2,1.82,9.7,9.7,0,0,0-.57,5.39c.19,1.83.57,3.63.71,5.46a14.19,14.19,0,0,1-.74,5.41,10.51,10.51,0,0,1-3,4.53,9.26,9.26,0,0,1-5,2.13,12,12,0,0,1-2.75,0,9.35,9.35,0,0,1-2.63-.77,12.58,12.58,0,0,1-4.21-3.46c-1.19-1.4-2.22-2.92-3.38-4.35a30.35,30.35,0,0,0-3.78-4,12.9,12.9,0,0,0-2.22-1.6,7,7,0,0,0-2.57-.95,5.23,5.23,0,0,0-1.37,0,4.23,4.23,0,0,0-1.29.46,6.27,6.27,0,0,0-2,1.81h0a7.27,7.27,0,0,0-1.84,3.74,9.68,9.68,0,0,0,.42,4.17c.79,2.71,2.16,5.24,2.64,8a17.34,17.34,0,0,1-1,8.32,13.69,13.69,0,0,1-5.31,6.43,60.48,60.48,0,0,1-7.43,4,41.2,41.2,0,0,0-7.26,4.33c-1.11.87-2.25,1.71-3.32,2.63a6.16,6.16,0,0,0-1.36,1.61,3.73,3.73,0,0,0-.32,2.06,32.79,32.79,0,0,0,.79,4.16l.95,4.12c2.68,11,6.78,21.54,9.8,32.42a53.54,53.54,0,0,1,1.58,8.32,24.51,24.51,0,0,1-.45,8.41,12,12,0,0,1-4.48,7A13.19,13.19,0,0,1,250.5,452a13,13,0,0,1-7.86-2.71,8.88,8.88,0,0,1-2.55-3.33,31,31,0,0,1-1.42-4,17,17,0,0,0-1.63-3.89,6.68,6.68,0,0,0-3.14-2.73,8.58,8.58,0,0,0-4.13-.67,16,16,0,0,0-4.1,1c-2.66.94-5.2,2.27-8,2.76a18.3,18.3,0,0,1-8.39-.41,11.42,11.42,0,0,1-6.46-5.17c-1.35-2.5-1.72-5.37-2.11-8.15a38.9,38.9,0,0,0-1.64-8.29,9.5,9.5,0,0,0-2.23-3.55,8.52,8.52,0,0,0-3.69-2c-2.76-.72-5.62-.31-8.43-.38a15.48,15.48,0,0,1-8.06-2.24,19.73,19.73,0,0,1-6-5.82,31.1,31.1,0,0,1-3.76-7.57,47.25,47.25,0,0,1-2-8.2,68.11,68.11,0,0,1-.69-8.44c-.23-5.63-.31-11.32-1.54-16.84a25.77,25.77,0,0,0-3-7.89,32.65,32.65,0,0,0-5.52-6.39c-2-1.94-4.18-3.8-6-5.94a17.63,17.63,0,0,1-4-7.35,15.82,15.82,0,0,1,.31-8.36,17.78,17.78,0,0,1,4.51-7.08,28,28,0,0,1,15-7.28,50.23,50.23,0,0,1,16.86.24A94,94,0,0,1,197,316c5.32,1.89,10.61,3.88,16.06,5.36a68,68,0,0,0,16.71,2.52,28.21,28.21,0,0,0,8.38-.93,10.54,10.54,0,0,0,3.74-1.91,6.72,6.72,0,0,0,1.36-1.6,7,7,0,0,0,.73-2,6.26,6.26,0,0,0-.6-4.1,12.05,12.05,0,0,0-2.55-3.35,26.71,26.71,0,0,0-7.06-4.61,79.59,79.59,0,0,0-16.06-5.24c-2.76-.63-5.52-1.2-8.31-1.67s-5.59-.78-8.4-1a85.24,85.24,0,0,0-16.9.52,83.79,83.79,0,0,0-16.46,3.86c-5.34,1.79-10.66,3.83-16.27,4.63a33.17,33.17,0,0,1-4.22.33c-.71,0-1.41,0-2.12-.09a16.18,16.18,0,0,1-2.07-.43c-2.72-.69-5.42-1.77-8.27-1.63a5,5,0,0,0-3.65,1.84,11,11,0,0,0-1.83,3.79,15.13,15.13,0,0,1-1.7,3.86,10.7,10.7,0,0,1-3,3,10,10,0,0,1-11.89-.29,16.87,16.87,0,0,1-3-3,28.67,28.67,0,0,1-5.7-15.7c-.32-5.66.76-11.28,2.08-16.75s2.92-10.92,3.63-16.53a45.93,45.93,0,0,0,.38-8.45,28,28,0,0,0-1.68-8.25,24.26,24.26,0,0,0-1.83-3.81A30.72,30.72,0,0,0,104,241c-1.83-2.15-3.87-4.1-5.79-6.17a26.72,26.72,0,0,1-4.92-6.87,20.84,20.84,0,0,1-1.64-8.25,48.72,48.72,0,0,1,.61-8.44c.43-2.79,1-5.57,1.63-8.31,1.31-5.5,2.88-10.92,4.44-16.35,1.78-5.39,5.18-10.06,8.78-14.38s7.53-8.43,10.75-13.07,5.44-9.89,7.45-15.15,3.93-10.61,6.73-15.53a46.24,46.24,0,0,1,4.86-6.94,53.69,53.69,0,0,1,6-6,75.74,75.74,0,0,1,14.1-9.33c5-2.63,10.2-4.87,15.43-7s10.47-4.25,15.86-5.94a50.88,50.88,0,0,1,8.26-1.87A66.33,66.33,0,0,1,205,91c5.62,0,11.35.17,16.8-1.4S232.2,85.1,237.3,82.7s10.56-4,16-5.59,10.94-2.84,16.45-4,11.06-2.29,16.61-3.34a112.79,112.79,0,0,1,16.77-2.34,59.78,59.78,0,0,1,16.8,1.71c5.51,1.29,10.86,3.13,16.3,4.63,10.87,3.06,21.88,5.58,33,7.77a87.85,87.85,0,0,0,16.77,2,35.78,35.78,0,0,0,8.38-.88,20.19,20.19,0,0,0,4-1.33A14.48,14.48,0,0,0,401.77,78.92Z"/><path d="M293.64,489.53A22.9,22.9,0,0,0,282.36,493a16.64,16.64,0,0,0-6.8,8.68,11.42,11.42,0,0,0-.44,5,6.85,6.85,0,0,0,1.62,3.81A3.25,3.25,0,0,0,278,511c.58.19,1.39.39,2.38.62,1.91.46,3.83.85,5.75,1.19s3.83.64,5.75.91,3.81.56,5.72.75,3.79.33,5.76.42l6.12.29A67.89,67.89,0,0,1,323,517a33.63,33.63,0,0,1,7.4,2.94,27.53,27.53,0,0,1,6.84,5.27,41.25,41.25,0,0,1,4.7,6.13c1.24,1.91,2.28,3.62,3.25,5a13.08,13.08,0,0,0,2.43,2.83,3.1,3.1,0,0,0,.81.47c.2.12.51.08.7.22a6.41,6.41,0,0,0,1.71-.05c.23,0,.46-.1.69-.13l.83-.24c.26-.06.6-.19.92-.29s.63-.18,1-.35c1.4-.5,3-1.26,4.72-2.06s3.56-1.75,5.64-2.64c.49-.23,1-.43,1.59-.64s1.07-.42,1.65-.62c1.18-.39,2.32-.78,3.63-1.09a28,28,0,0,1,4-.74c1.33-.14,2.64-.23,3.91-.24a60,60,0,0,1,13.64,2c4,1,8.07,1.77,12.11,2.44a35.66,35.66,0,0,0,6.09.57c2,0,4.06,0,6.08.09.51,0,1,0,1.53-.09l.87-.09a5.38,5.38,0,0,0,.9-.22,16.5,16.5,0,0,0,1.59-.52,4.23,4.23,0,0,1,1.24-.41,4.18,4.18,0,0,0,1.32-.16c.17-.07.05-.08-.07,0s0,0,.26-1.5a30.33,30.33,0,0,0,.54-5c.16-2.93.62-5,.69-6.14a3.11,3.11,0,0,0,0-.85s0,0,0,0,0-.06,0-.06,0,0,0,0a.6.6,0,0,0,.3.22c.06,0,0-.07-.33-.12a16.06,16.06,0,0,0-4.09.08,15.85,15.85,0,0,0-3.82,1,10.83,10.83,0,0,0-2,1l-2.59,1.57a32,32,0,0,1-3.3,1.8,19.63,19.63,0,0,1-2,.79,13.24,13.24,0,0,1-2.27.57,13.71,13.71,0,0,1-4.65,0,10.55,10.55,0,0,1-4.7-2.06,9,9,0,0,1-2.91-4.3,14.66,14.66,0,0,1-.55-3.85,20.34,20.34,0,0,0-.24-2.66,3.15,3.15,0,0,0-.68-1.57,5.34,5.34,0,0,0-3.55-1.76,11.6,11.6,0,0,0-2.36-.08,8.15,8.15,0,0,0-1.19.18c-.42.09-.85.2-1.29.32-1.76.46-3.61,1.18-5.73,1.86a27.64,27.64,0,0,1-3.4.86c-.61.11-1.24.21-1.88.27l-1.94.1a25.91,25.91,0,0,1-7.32-1.19,44.81,44.81,0,0,1-6.22-2.54c-3.81-1.87-7-3.93-10.17-5.07a9.58,9.58,0,0,0-1.11-.37c-.33-.1-.65-.22-1-.31a13.43,13.43,0,0,0-2.26-.28c-.79-.09-1.65,0-2.51,0s-1.78.14-2.72.3c-1.85.27-3.8.69-5.82,1.07s-4.12.82-6.34,1.05a17.47,17.47,0,0,1-7-.41c-.59-.19-1.17-.46-1.73-.69s-1-.58-1.48-.86-.91-.65-1.36-1-.85-.68-1.25-1.05a41.9,41.9,0,0,1-4.31-4.57c-1.35-1.55-2.66-3.09-4.09-4.51a18.18,18.18,0,0,0-4.87-3.56A17.48,17.48,0,0,0,293.64,489.53Zm0,0a18.41,18.41,0,0,1,6.11,1,16.55,16.55,0,0,1,5.31,3.33c3.11,2.74,5.67,5.94,8.85,8.33a11.73,11.73,0,0,0,11,2.53c3.95-.76,7.79-2.24,11.77-3.15,1-.26,2-.41,3-.6a28.57,28.57,0,0,1,3-.28,20.83,20.83,0,0,1,3.06.11,21.5,21.5,0,0,1,3,.7c3.89,1.25,7.44,3.31,11.07,5.13s7.41,3.53,11.5,3.83,8-1.17,12-1.88a15.45,15.45,0,0,1,6.06,0,9,9,0,0,1,5.24,2.88,6.78,6.78,0,0,1,1.33,2.72,25.59,25.59,0,0,1,.46,3,12.08,12.08,0,0,0,.62,3,4.93,4.93,0,0,0,1.84,2.38,7.16,7.16,0,0,0,5.88.64,15,15,0,0,0,5.24-3,41.35,41.35,0,0,1,4.86-3.68,19.36,19.36,0,0,1,5.68-2.15,21.35,21.35,0,0,1,6.07-.44,7.06,7.06,0,0,1,5.29,2.64,7.3,7.3,0,0,1,1.28,2.75,9.94,9.94,0,0,1,.18,3c-.15,2-.67,4-.79,6a38.54,38.54,0,0,1-.86,6,8.89,8.89,0,0,1-2.8,5.28,8.38,8.38,0,0,1-5.78,1.51c-1,0-2-.15-3-.24s-2-.11-3.05-.16l-24.39-1.14a71.92,71.92,0,0,0-12.19.19,37.63,37.63,0,0,0-11.6,3.61c-3.69,1.71-7.29,3.63-11.11,5a24.72,24.72,0,0,1-5.91,1.47,14.65,14.65,0,0,1-6-.6,16.17,16.17,0,0,1-2.74-1.34,13.66,13.66,0,0,1-2.38-1.91,23.86,23.86,0,0,1-3.64-4.88c-2.09-3.48-3.77-7.24-6.41-10.36a22.28,22.28,0,0,0-10.13-6.51A60.76,60.76,0,0,0,308.63,522c-4-.48-8.1-.83-12.11-1.55a103,103,0,0,1-11.88-2.81q-2.92-.89-5.79-1.93a18.84,18.84,0,0,1-2.81-1.2,6.21,6.21,0,0,1-2.28-2,10.84,10.84,0,0,1-1.56-5.83,14.31,14.31,0,0,1,1.31-5.93C277.05,493.28,285.53,488.76,293.64,489.51Z"/><path d="M378.64,181.55c.43-.69.87-1.39,1.25-2.09a4.27,4.27,0,0,0,.65-2.07,5.25,5.25,0,0,0-.69-2.09,8,8,0,0,0-1.34-1.83,10.87,10.87,0,0,0-3.92-2.39,17,17,0,0,0-4.59-1,14.68,14.68,0,0,0-8.94,1.93,6.19,6.19,0,0,0-2.68,3.11,7.35,7.35,0,0,0-.28,1.92,9.7,9.7,0,0,0,.2,1.95,31,31,0,0,0,1.06,3.57c.38,1.15.78,2.26,1.18,3.33a24.34,24.34,0,0,0,1.38,3.17,5.49,5.49,0,0,0,2.67,2.46,6.18,6.18,0,0,0,4.2,0,12.21,12.21,0,0,0,4.07-2.22,22.43,22.43,0,0,0,5.76-7.74l.88.49c-1.8,2.77-3.38,5.71-5.72,8.24a18.71,18.71,0,0,1-1.88,1.78,14.18,14.18,0,0,1-2.18,1.53,15.21,15.21,0,0,1-5.4,1.87,11.63,11.63,0,0,1-6.43-1,12,12,0,0,1-5-4.29A13.43,13.43,0,0,1,351.56,178a15.24,15.24,0,0,1,1.43-2.82,14.33,14.33,0,0,1,2-2.46,14.89,14.89,0,0,1,4.89-3.08,20.65,20.65,0,0,1,5.15-1.23,22.84,22.84,0,0,1,5.16-.07c3.38.4,6.88,1.58,9.3,4.23a10.63,10.63,0,0,1,1.47,2.21,6.3,6.3,0,0,1,.71,2.61,5.76,5.76,0,0,1-.85,2.57c-.42.74-.87,1.44-1.32,2.13Z"/><path d="M399.05,232.34a4.84,4.84,0,0,0-.76,3.68,6,6,0,0,0,2.21,3.2,9.87,9.87,0,0,0,7.35,2.43,5.86,5.86,0,0,0,3.25-1.6,8.45,8.45,0,0,0,1.13-1.52,5.93,5.93,0,0,1,1.67-1.81,3.67,3.67,0,0,1,1.35-.53,4.11,4.11,0,0,1,1.4,0,4,4,0,0,1,2.38,1.48,6.77,6.77,0,0,1,1.34,4.68c-.08,1.52-.4,2.88-.41,4.11a5.38,5.38,0,0,0,1,3.27,6.08,6.08,0,0,0,2.85,2.05,12.15,12.15,0,0,0,3.73.7,14.44,14.44,0,0,0,7.36-1.58,9.87,9.87,0,0,0,4.6-5,7.14,7.14,0,0,0-.19-5.65,21.48,21.48,0,0,0-3.74-5.61c-1.77-2.15-3.44-4.2-5-5.89a17.69,17.69,0,0,0-2.4-2.14,11.12,11.12,0,0,0-2.35-1.31,16.15,16.15,0,0,0-5.55-1.17,28.24,28.24,0,0,0-7.18.65C408,226,402.21,228,399.05,232.34Zm-.87-.49a34.48,34.48,0,0,1,5.49-6.78,66.45,66.45,0,0,1,6.58-6.07,24,24,0,0,1,8.71-4.35,21.21,21.21,0,0,1,2.57-.47,20.48,20.48,0,0,1,2.73-.12,17,17,0,0,1,5.6,1.16,19.59,19.59,0,0,1,4.84,2.89,26.7,26.7,0,0,1,3.67,3.6,48.41,48.41,0,0,1,5.07,7.44,25.59,25.59,0,0,1,3.57,9.31,14.42,14.42,0,0,1-.25,5.54,13.31,13.31,0,0,1-2.37,4.9,16.32,16.32,0,0,1-8.05,5.52,18.68,18.68,0,0,1-4.57.85,23.08,23.08,0,0,1-4.48-.17,16.29,16.29,0,0,1-4.39-1.16,8.75,8.75,0,0,1-3.75-2.91,7.18,7.18,0,0,1-1.07-2.21,7.49,7.49,0,0,1-.34-2.38c0-1.56.34-2.94.4-4.21a4.77,4.77,0,0,0-.83-3.2,1.87,1.87,0,0,0-1.06-.74,2.55,2.55,0,0,0-.68,0,1.91,1.91,0,0,0-.6.19c-.8.41-1.43,1.83-2.69,2.91A7.32,7.32,0,0,1,408,243a9.61,9.61,0,0,1-4.33-.89,16,16,0,0,1-3.62-2.33,7.63,7.63,0,0,1-2.44-3.59A6.08,6.08,0,0,1,398.18,231.85Z"/><path d="M416.61,292.48a21.17,21.17,0,0,0-.25-5.86,12.14,12.14,0,0,0-.84-2.66,6.4,6.4,0,0,0-1.54-2.19,13.55,13.55,0,0,0-3.9-2.1,14.93,14.93,0,0,0-2.76-1.31,4.22,4.22,0,0,0-3.32.23,3,3,0,0,0-1.36,1.38,4.22,4.22,0,0,0-.36,2.28,10.72,10.72,0,0,0,2.14,5.07c1.1,1.71,2.59,3.37,3.52,5.93a9.83,9.83,0,0,1,.53,4.36,12.63,12.63,0,0,1-1.17,4,24.16,24.16,0,0,1-1.5,2.69l-1,1.67a7.76,7.76,0,0,1-.65.88,1.62,1.62,0,0,0-.21,1.32,3.68,3.68,0,0,0,3.1,2.8,5.29,5.29,0,0,0,2.65-.29,6.9,6.9,0,0,0,2.34-1.52,11.85,11.85,0,0,0,2.94-4.92,21.44,21.44,0,0,0,.93-5.81,28.26,28.26,0,0,1,.18-3c.14-1,.37-2,.59-3l1,.28a20.61,20.61,0,0,0-.83,2.82,19.92,19.92,0,0,0-.29,2.93,28.2,28.2,0,0,1-.92,6,13.71,13.71,0,0,1-2.85,5.41,12.89,12.89,0,0,1-2.42,2,12.15,12.15,0,0,1-3,1.46,8.88,8.88,0,0,1-3.76.35,8.61,8.61,0,0,1-3.94-1.53,7.83,7.83,0,0,1-2.9-3.92,9.22,9.22,0,0,1-.12-5,12.91,12.91,0,0,1,1.59-3.68,21.41,21.41,0,0,1,1.7-2.36c.5-.62.91-1.08,1.24-1.47a3.61,3.61,0,0,0,.79-1.57,9.78,9.78,0,0,0-.56-5.24c-.64-1.92-1.57-3.83-2.16-6a11.55,11.55,0,0,1-.42-3.65,9.23,9.23,0,0,1,1.15-4,9.93,9.93,0,0,1,7.07-5,10.82,10.82,0,0,1,8.41,2.25,8.32,8.32,0,0,1,2.44,3.44,14.35,14.35,0,0,1,.86,3.82c.12,1.24.18,2.39.22,3.51a21.88,21.88,0,0,1-.18,3.27c-.27,2.12-.78,4.08-1.07,6.05Z"/><path d="M340.92,323.25l-.05.05a7.63,7.63,0,0,0-1.7,2.41,6.44,6.44,0,0,0-.2.72l0,.76a13.83,13.83,0,0,0,.06,1.45,13.27,13.27,0,0,1,0,1.41c.05.47,0,.95,0,1.44a9.25,9.25,0,0,0,.45,2.9,20.45,20.45,0,0,0,2.92,5.12,23.94,23.94,0,0,0,2,2.17l2.17,2.09c1.45,1.4,2.87,2.83,4.24,4.34.68.77,1.35,1.51,2,2.36a11.25,11.25,0,0,1,1.72,2.91,5,5,0,0,1,.34,2,4.07,4.07,0,0,1-.85,2.21,8.05,8.05,0,0,1-3.09,2.16c-2,.88-3.86,1.46-5.45,2.29a6.37,6.37,0,0,0-3.23,3l-.15.45c-.05.16-.07.33-.11.48a10,10,0,0,0-.13,1.17,13.9,13.9,0,0,0,.1,2.55c.19,1.79.61,3.72.89,5.88A26.66,26.66,0,0,1,343,379a16.66,16.66,0,0,1-.52,3.72,18.43,18.43,0,0,1-3.37,6.53,33.12,33.12,0,0,1-4.78,4.83c-1.69,1.41-3.38,2.62-4.92,3.8a53,53,0,0,0-4.22,3.48,14.81,14.81,0,0,0-2.85,3.6,6.94,6.94,0,0,0-.38.82,7.24,7.24,0,0,0-.24.83,6.58,6.58,0,0,0-.18,1.77,4.91,4.91,0,0,0,.82,2.83,1.27,1.27,0,0,0,.6.49,1.57,1.57,0,0,0,.62.15,5.4,5.4,0,0,0,2.46-.86,14.91,14.91,0,0,0,1.76-1.2c.29-.24.59-.48.89-.75l1-.88a64.28,64.28,0,0,1,4.93-4.31,25.58,25.58,0,0,1,6.82-3.75c.61-.23,1.23-.43,1.84-.6l1.66-.44,2.89-.75c1.9-.5,3.76-1,5.56-1.55a63.27,63.27,0,0,0,10.12-3.94l.77-.36.91-.4q.92-.39,1.89-.72a23.09,23.09,0,0,1,4.24-1,18.28,18.28,0,0,1,5,0,15.51,15.51,0,0,1,5.34,1.78,14.51,14.51,0,0,1,4.61,4,13.3,13.3,0,0,1,2.6,6.33,13.57,13.57,0,0,1,.08,2,13.38,13.38,0,0,1-.31,2.16,11.59,11.59,0,0,1-1.85,4,13.73,13.73,0,0,1-5.5,4.4,34.59,34.59,0,0,1-3.79,1.38,9,9,0,0,0-1,.35c-.08.07,0,0,0,.07s-.09.12-.22.29a4.78,4.78,0,0,0-.78,2.81c0,.06,0,.1,0,.19l.07.38a6.55,6.55,0,0,0,.15.77,12.54,12.54,0,0,0,.52,1.57,16,16,0,0,0,4.73,5.93c.55.42,1.1.82,1.68,1.18s1,.54,1.54.83c.25.11.53.18.78.29a4.13,4.13,0,0,0,.82.25c.29.07.57.15.85.24l.94.16a6,6,0,0,0,1,.13l1,.1c.74,0,1.43.07,2.23,0a42.3,42.3,0,0,0,4.92-.44c3.5-.51,7.19-1.34,11.35-2.1l1.56-.29,1.64-.26c.25,0,.6-.09.76-.13l.58-.11,1.15-.22a45.34,45.34,0,0,0,4.82-1.31c3.33-1.09,6.84-2.54,10.64-4l2.9-1.1c1-.37,2-.73,3-1.08s2.07-.67,3.18-1,2.16-.62,3.33-.86a39,39,0,0,1,15-.79l2,.33c.65.13,1.29.36,1.93.54l1.91.59c.63.21,1.24.49,1.86.74a33.1,33.1,0,0,1,6.55,3.88,61.3,61.3,0,0,1,9.56,9.37l3.92,4.64,3.93,4.55q2,2.3,4,4.51l2,2.26c.71.8,1.47,1.67,2.22,2.69a19,19,0,0,1,2,3.57,18.69,18.69,0,0,1,1.05,3.77l.54,2.91a6,6,0,0,0,.33,1.06,5.62,5.62,0,0,0,.39.94,8.43,8.43,0,0,0,2.52,3.08,13.81,13.81,0,0,0,3.78,2,8.85,8.85,0,0,0,1.07.31,9.91,9.91,0,0,0,1.11.22,8.36,8.36,0,0,0,1.12.14,3.09,3.09,0,0,1,1.13.49,1.76,1.76,0,0,0,2.3-.39,6.6,6.6,0,0,0,.92-1.05,5.29,5.29,0,0,1,.85-.81,17.07,17.07,0,0,0,6.48-5.61,46.78,46.78,0,0,0,5-8.86c.74-1.71,1.31-3.2,1.82-4.78a23.2,23.2,0,0,0,1-4.4,6.49,6.49,0,0,0-.14-2.83c-.07-.24-.17-.2-.14-.13s0,.14,0,.16a.12.12,0,0,0,.07.15,1.52,1.52,0,0,0,.73.47c.31.08.38.11.2.18s-.26.11-.42.17-.41.18-.69.33c-.52.24-1.18.61-1.88,1-1.44.82-3.1,1.88-5.17,3a32.76,32.76,0,0,1-3.64,1.77,18.81,18.81,0,0,1-5.44,1.41c-.59.05-1.23.07-1.85.08a18.66,18.66,0,0,1-2.05-.17,14.21,14.21,0,0,1-4.28-1.32,16.43,16.43,0,0,1-6-5.17c-.32-.45-.56-.86-.83-1.3l-.37-.65c-.13-.22-.29-.57-.42-.85-.26-.6-.53-1.2-.73-1.82s-.35-1.24-.49-1.87a17.48,17.48,0,0,1,0-6.57,27,27,0,0,1,1.31-4.57c.52-1.25,1-2.3,1.5-3.24l1.14-2.24.18-.35a2.3,2.3,0,0,1,.12-.23c.08-.13.12-.28.21-.43a5.09,5.09,0,0,0,.42-2.41,9.59,9.59,0,0,0-.24-1.59c-.05-.29-.15-.57-.22-.87s-.19-.59-.31-.88a13.63,13.63,0,0,0-2-3.43,15.62,15.62,0,0,0-3.31-3,28.9,28.9,0,0,0-9.6-4.12c-.91-.23-1.83-.45-2.77-.63s-1.88-.3-2.86-.44c-2-.26-4.05-.52-6.2-.93a26.29,26.29,0,0,1-6.48-1.94,10.37,10.37,0,0,1-1.53-.76l-1.48-.83-1.4-1-.69-.48-.64-.54-1.27-1.1c-.39-.39-.76-.8-1.14-1.19a27.88,27.88,0,0,1-2.11-2.52,54.49,54.49,0,0,1-3.41-5.42,80.08,80.08,0,0,1-4.86-11.48c-.66-1.95-1.27-3.9-1.85-5.85-.3-1-.61-1.93-.88-3.1a11.67,11.67,0,0,1-.28-4,9,9,0,0,1,1.77-4.36,12.88,12.88,0,0,1,3.06-2.79c2-1.36,3.95-2.18,5.22-3.08a11.89,11.89,0,0,0,4.64-7.25,11.1,11.1,0,0,0,.19-4.24,10,10,0,0,0-1.35-3.64,9.4,9.4,0,0,0-2.84-2.77,12.33,12.33,0,0,0-3.86-1.58,9.69,9.69,0,0,0-4,0,7.35,7.35,0,0,0-1.8.61,11.39,11.39,0,0,0-1.87,1.16c-1.31,1-2.76,2.31-4.5,3.71a24.23,24.23,0,0,1-2.92,2,16.35,16.35,0,0,1-1.59.87c-.54.27-1.08.54-1.63.75a32.86,32.86,0,0,1-13.23,2.11c-4.24-.07-8.27-.53-12.2-.85a55.16,55.16,0,0,0-11.41-.06,20.25,20.25,0,0,0-5.22,1.35,8.85,8.85,0,0,0-1.21.56l-.6.3-.56.36a10.25,10.25,0,0,0-1.1.76l-1.14.88a34.9,34.9,0,0,1-5.15,3.61,15.52,15.52,0,0,1-6.15,2.11,9.48,9.48,0,0,1-6.37-1.66,17.88,17.88,0,0,1-4.35-4.51c-2.38-3.33-4.17-6.91-6.18-10.36a48.19,48.19,0,0,0-3.22-5c-.58-.81-1.23-1.56-1.88-2.31a19.76,19.76,0,0,0-2.2-2,14,14,0,0,0-5.24-2.64,13.55,13.55,0,0,0-2.91-.36,7.62,7.62,0,0,0-1.44,0A14,14,0,0,0,340.92,323.25Zm-.13,0h.06c.13,0,.26,0,.35-.1a1.06,1.06,0,0,0,.26-.4c.15-.37.38-.77.69-.81a7.85,7.85,0,0,1,1.71-.09,12.29,12.29,0,0,1,3.24.4,14.57,14.57,0,0,1,5.56,3.18,29.24,29.24,0,0,1,4.08,4.64c1.18,1.66,2.31,3.33,3.34,5.06,2.1,3.42,4,7,6.33,10.11a17.15,17.15,0,0,0,4.14,4.06,7.93,7.93,0,0,0,5.42,1.25,13.23,13.23,0,0,0,5.39-2.08,32.56,32.56,0,0,0,4.71-3.59,20.14,20.14,0,0,1,5-3.43,22.61,22.61,0,0,1,5.77-1.8,56.72,56.72,0,0,1,12-.5c4,.15,8,.43,12,.33a31.21,31.21,0,0,0,11.67-2.23,20.68,20.68,0,0,0,5-3.17c1.53-1.28,3-2.69,4.53-3.92a13.79,13.79,0,0,1,5.33-2.69,14.38,14.38,0,0,1,5.95-.1,15,15,0,0,1,9.77,6.39,14.55,14.55,0,0,1,1.5,11.56,15.77,15.77,0,0,1-7,9.41c-1.71,1-3.6,1.73-5.3,2.78a9.17,9.17,0,0,0-2.29,1.91,5.7,5.7,0,0,0-1.21,2.71,15.62,15.62,0,0,0,.81,5.9c.48,1.94,1,3.87,1.6,5.78a63.57,63.57,0,0,0,4.45,11.12,29.42,29.42,0,0,0,7.37,9.35l.58.47.63.42,1.24.83,1.34.69a8.7,8.7,0,0,0,1.36.61,21.12,21.12,0,0,0,5.81,1.42c2,.23,4,.29,6,.38s4,.21,6,.44a39.15,39.15,0,0,1,11.57,3,22.08,22.08,0,0,1,9.2,7.47,16.47,16.47,0,0,1,3.08,11.31,22.89,22.89,0,0,1-1.79,5.7,26.68,26.68,0,0,0-1.83,5.7,9,9,0,0,0,0,3,7.59,7.59,0,0,0,1.24,2.71,6.15,6.15,0,0,0,2.21,2,5.54,5.54,0,0,0,2.92.52,17,17,0,0,0,5.65-1.89c1.8-.88,3.55-1.85,5.35-2.72a20.89,20.89,0,0,1,5.63-2,7.86,7.86,0,0,1,3,0,6.91,6.91,0,0,1,2.7,1.23,8.09,8.09,0,0,1,3,5,15.93,15.93,0,0,1-.07,6,40.72,40.72,0,0,1-4.1,11.23,47.8,47.8,0,0,1-6.62,10,22.25,22.25,0,0,1-9.79,6.67,19,19,0,0,1-11.79-.16,14.44,14.44,0,0,1-8.75-7.69,11.16,11.16,0,0,1-.52-1.4,11.92,11.92,0,0,1-.39-1.45c-.21-1-.36-2-.55-2.94a14.37,14.37,0,0,0-.86-2.87,11.45,11.45,0,0,0-1.57-2.54c-1.26-1.56-2.74-2.92-4.13-4.35l-4.23-4.25-8.47-8.5A58.72,58.72,0,0,0,467,430.5a27,27,0,0,0-5.33-2.71c-.47-.16-.94-.35-1.42-.47l-1.46-.35c-.49-.1-1-.25-1.46-.32l-1.49-.17A32.8,32.8,0,0,0,444,427.7a101.08,101.08,0,0,0-11.3,4c-3.7,1.49-7.4,3-11.21,4.26a55.41,55.41,0,0,1-5.78,1.56c-2,.4-3.94.68-5.91,1.05-3.93.72-7.84,1.56-11.81,2.09a49.68,49.68,0,0,1-6,.47c-1,.05-2,0-3-.06-.5,0-1-.11-1.49-.16a12,12,0,0,1-1.48-.22,21.9,21.9,0,0,1-5.7-1.81,26,26,0,0,1-5-3.32,24.25,24.25,0,0,1-7-9.6,18,18,0,0,1-1.18-5.85,12.91,12.91,0,0,1,1.37-5.79,10.24,10.24,0,0,1,4-4.39c1.74-1,3.81-1.19,5.63-2a5.62,5.62,0,0,0,2.37-1.76,3.85,3.85,0,0,0,.73-2.82,6.61,6.61,0,0,0-3.31-4.73,9.3,9.3,0,0,0-5.79-1,18.87,18.87,0,0,0-5.72,1.7,71.5,71.5,0,0,1-11.32,3.93c-1.93.5-3.88,1-5.83,1.4s-3.92.79-5.82,1.42a19.62,19.62,0,0,0-5.3,2.74c-1.62,1.17-3.11,2.5-4.63,3.81a23.49,23.49,0,0,1-4.89,3.45,9.85,9.85,0,0,1-5.8,1.19A6.86,6.86,0,0,1,318,414a10.22,10.22,0,0,1-1.36-5.77,11.54,11.54,0,0,1,1.72-5.68,19.69,19.69,0,0,1,3.92-4.52c3-2.64,6.53-4.62,9.71-7a28.72,28.72,0,0,0,4.4-4.06,14.76,14.76,0,0,0,2.95-5.16,15.36,15.36,0,0,0,.49-5.92c-.15-2-.48-4-.58-6a16.69,16.69,0,0,1,.08-3,8.59,8.59,0,0,1,.8-2.89,8.75,8.75,0,0,1,4.51-3.79c1.84-.81,3.79-1.3,5.65-2a6.39,6.39,0,0,0,2.51-1.55,2.81,2.81,0,0,0,.37-2.81,10.18,10.18,0,0,0-1.4-2.62c-.56-.83-1.19-1.61-1.81-2.39-1.25-1.56-2.58-3.06-3.93-4.53a45.71,45.71,0,0,1-3.94-4.52,21.91,21.91,0,0,1-2.8-5.28,13.18,13.18,0,0,1-.93-5.89A9.14,9.14,0,0,1,340.79,323.27Z"/><path d="M477.06,498.31a37.19,37.19,0,0,1-1.24-5.95c-.07-.51-.13-1-.17-1.53a11.2,11.2,0,0,1,0-1.64c0-1.1.2-2.13.3-3.09a10.89,10.89,0,0,0,0-2.6,5.46,5.46,0,0,0-.7-2.06A3.47,3.47,0,0,0,474,480.2a1.94,1.94,0,0,0-1.26-.2,4.46,4.46,0,0,0-2.43,2,21.89,21.89,0,0,0-2.21,4.47c-.35.88-.72,1.8-1.13,2.78L465.77,492c-.74,1.74-1.41,3.49-2,5.27a15.38,15.38,0,0,1-1.12,2.57c-.45.82-1,1.63-1.46,2.45a21.78,21.78,0,0,0-1.29,2.55l-.56,1.32-.5,1.25a10,10,0,0,0-.59,2c-.1.58-.05.86-.11,1s-.06.3.44.46a5.49,5.49,0,0,0,2.13.07,27.2,27.2,0,0,0,10.71-3.23,11.06,11.06,0,0,0,5.66-9.36,12.21,12.21,0,0,1-.55,6.08,13.46,13.46,0,0,1-3.61,5.23,30.66,30.66,0,0,1-11.1,6.08,11.14,11.14,0,0,1-3.78.65,6.75,6.75,0,0,1-2.46-.52,6.66,6.66,0,0,1-2.28-1.65,8.09,8.09,0,0,1-1.82-4.64,16,16,0,0,1,.18-3.91l.29-1.63.3-1.54c.22-1,.41-2.06.59-3.11s.35-2.12.62-3.15a14.09,14.09,0,0,1,1.17-2.94c1-1.87,2.05-3.71,3.17-5.49l1.6-2.48,1.56-2.55a28,28,0,0,1,4.26-5.52,12,12,0,0,1,3.41-2.33,8.62,8.62,0,0,1,4.56-.71,7.52,7.52,0,0,1,4.18,2,8.08,8.08,0,0,1,2.18,3.59,9.83,9.83,0,0,1,.34,3.78,14.1,14.1,0,0,1-.82,3.3c-.35,1-.73,1.86-1,2.74a9.09,9.09,0,0,0-.32,1.32l-.22,1.46A50.79,50.79,0,0,0,477.06,498.31Z"/><path d="M78,210.84a21.14,21.14,0,0,1-.81-7.17c.07-2.43.38-4.85.54-7.25a16.6,16.6,0,0,0-.56-6.78,5.07,5.07,0,0,0-1.53-2.31,3.48,3.48,0,0,0-1-.59,5.28,5.28,0,0,0-1.24-.33,4.51,4.51,0,0,0-2.33.18,1.17,1.17,0,0,0-.55.42c-.09.14-.14.29-.28.56s-.32.67-.54,1.17l-.37.82-.42.84c-.48,1-.88,2-1.24,2.95a15.62,15.62,0,0,0-1.06,5.35,8.17,8.17,0,0,0,.94,4.13,18.82,18.82,0,0,0,3.75,4,30.82,30.82,0,0,1,2.91,3c.25.29.49.62.73.94s.5.77.74,1.15a13.71,13.71,0,0,1,1.06,2.42,20.72,20.72,0,0,1,.84,4.12,14.53,14.53,0,0,0,.37,2.24,2.35,2.35,0,0,0,1.11,1.33,5.55,5.55,0,0,0,.59.34l.91.42c.58.28,1.14.57,1.68.86,1.09.57,2.1,1.12,3.11,1.58.5.22,1,.43,1.52.6s.75.22.81.25,0,.12.06.06a.93.93,0,0,0,.24-.41,4.67,4.67,0,0,0,.2-1.47,9.36,9.36,0,0,0-.13-1.66,4.33,4.33,0,0,0-.48-1.5,8.24,8.24,0,0,0-2.25-2.53c-.94-.74-1.91-1.47-2.87-2.2A17.38,17.38,0,0,1,79.8,214,9.5,9.5,0,0,1,78,210.84Zm0,0a8.47,8.47,0,0,0,1.83,3.08,13.51,13.51,0,0,0,2.8,2.24c1,.65,2.08,1.2,3.12,1.84a10.79,10.79,0,0,1,2.95,2.41,7,7,0,0,1,1,1.79,13.21,13.21,0,0,1,.58,1.88,8.43,8.43,0,0,1,.2,2.13,3.88,3.88,0,0,1-.3,1.31A2.85,2.85,0,0,1,89,228.85a4.78,4.78,0,0,1-2.73.5,18.56,18.56,0,0,1-2-.19c-1.32-.19-2.57-.47-3.75-.71-.59-.13-1.17-.24-1.72-.34L78,228c-.29,0-.75-.17-1.11-.25a6.76,6.76,0,0,1-1.2-.4l-.61-.25c-.2-.1-.4-.22-.61-.34l-.6-.37c-.2-.14-.39-.3-.58-.46a7.37,7.37,0,0,1-1-1,13.74,13.74,0,0,1-2.33-4.41,18,18,0,0,0-1.19-2.81,4,4,0,0,0-.58-.79c-.12-.11-.19-.19-.32-.33s-.28-.28-.45-.42c-.62-.59-1.43-1.18-2.35-1.9A36.76,36.76,0,0,1,62,211.67a16.68,16.68,0,0,1-3.09-3.87A16.11,16.11,0,0,1,57,198a21.15,21.15,0,0,1,3-8.44,32.28,32.28,0,0,1,2.32-3.34l1.13-1.4A21,21,0,0,1,65,183a8.09,8.09,0,0,1,2.49-1.72,7.64,7.64,0,0,1,2.88-.64,10.17,10.17,0,0,1,4.78,1.07,10.47,10.47,0,0,1,2,1.27,8,8,0,0,1,1.65,1.83,9,9,0,0,1,1.36,4.22,22.19,22.19,0,0,1-1,7.59,56.18,56.18,0,0,0-1.54,7.05A16.77,16.77,0,0,0,78,210.84Z"/><path d="M127.17,328.45c-.81-.21-1.64.31-2.71-.11-.87-.3-1.49-.88-2.12-1.12a2.9,2.9,0,0,0-.9-.25,1.59,1.59,0,0,0-.74.13,2.26,2.26,0,0,0-1.14,1.14c-.5,1.08-.36,2.6-.29,4.26s.2,3.22.43,4.76a15.58,15.58,0,0,0,3.33,8.11,6.46,6.46,0,0,0,1.41,1.22,1.15,1.15,0,0,0,.92.19c.09,0,.06,0,0-.08a1.52,1.52,0,0,1,.13-.27,1.67,1.67,0,0,0,.11-.92,3.81,3.81,0,0,1,.14-1.49,5.43,5.43,0,0,1,1.21-1.77,5.64,5.64,0,0,1,2.28-1.42,6.53,6.53,0,0,1,4.38.25,11,11,0,0,1,2.7,1.73c.67.56,1.15,1,1.6,1.3a2.89,2.89,0,0,0,1,.49,1.13,1.13,0,0,0,.9-.37,2.32,2.32,0,0,0,.72-1.22,2.63,2.63,0,0,0-.2-1.55,6.33,6.33,0,0,0-1-1.54,17.74,17.74,0,0,0-1.45-1.41c-.54-.48-1.12-.93-1.67-1.52s-1.13-1.21-1.74-1.81-1.28-1.07-1.93-1.66-1.24-1.17-1.82-1.76a24.86,24.86,0,0,0-3.62-3.34,6,6,0,0,1,2.08,1.35l1.83,1.65a20.87,20.87,0,0,0,4,2.87,33.19,33.19,0,0,1,4.12,2.7,9,9,0,0,1,2.95,3.87,5.12,5.12,0,0,1,.28,2.42,4.59,4.59,0,0,1-1,2.22,3.43,3.43,0,0,1-2.08,1.23,4.21,4.21,0,0,1-2.39-.43c-1.5-.69-2.68-1.92-4.25-2.48a3.78,3.78,0,0,0-2.42-.08,3,3,0,0,0-1.7,1.68c-.37.73-.62,1.53-1,2.23a2.56,2.56,0,0,1-2,1.33,3.51,3.51,0,0,1-2.32-.68,8.65,8.65,0,0,1-1.75-1.72,17.8,17.8,0,0,1-3.36-9.14c-.18-1.63-.24-3.28-.26-4.92s-.15-3.35.64-4.84a3.31,3.31,0,0,1,1.84-1.57,3,3,0,0,1,2.39.28c.74.38,1.37.92,2.07,1.34a12.1,12.1,0,0,0,2.36.67Z"/><path d="M338.24,259.54c-1.31-.61-2.36-1.11-3.36-1.6s-1.89-1-2.71-1.42-1.58-.85-2.23-1.17a3,3,0,0,1-1.36-1c-.24-.33-.32-1-1-1.22a2.24,2.24,0,0,0-2.24.9,3,3,0,0,0-.64,2.55,4.82,4.82,0,0,0,1.46,2.46,12.61,12.61,0,0,0,1.07.91c.37.32.72.64,1,1a11.09,11.09,0,0,1,1.57,2c.91,1.34,1.34,3,2.52,4.14a3.6,3.6,0,0,0,4.52.16,4.13,4.13,0,0,0,1.61-2.14,3.63,3.63,0,0,0-.34-2.79l.83-.56a5.6,5.6,0,0,1,1.16,3.59,6.89,6.89,0,0,1-1.41,3.72,7.79,7.79,0,0,1-3.39,2.54,11.73,11.73,0,0,1-4.48.6,11.61,11.61,0,0,1-8.06-3.77,9.52,9.52,0,0,1-2-3.6,10.9,10.9,0,0,1-.37-2.08,12.28,12.28,0,0,1,0-2.27,26.3,26.3,0,0,1,.86-4.19,34.83,34.83,0,0,1,1.26-3.82,12.54,12.54,0,0,1,2.19-4.05,7.15,7.15,0,0,1,2.46-1.72,7.43,7.43,0,0,1,3-.53,8,8,0,0,1,4.72,1.75,11.92,11.92,0,0,1,4.38,7,8.51,8.51,0,0,1-.13,4.27Z"/></g></svg>