<svg id="Layer_1" data-name="Layer 1" xmlns="http://www.w3.org/2000/svg" viewBox="0 0 600 600"><title>Namibia</title><path d="M398.75,131.18a15.24,15.24,0,0,0-3.54,5.74,19.06,19.06,0,0,0-.88,6.7,103.47,103.47,0,0,0,1.61,13.45,134.26,134.26,0,0,1,1.94,13.63c.15,2.35.18,4.58.27,6.87l.23,6.82.94,27.28.49,13.64.24,6.82.12,3.41c0,1.14.1,2.18.18,3.27.32,4.35,1,8.77,1.53,13.42a45.85,45.85,0,0,1,.41,7.57c-.09.76-.14,1.5-.31,2.28l-.32,1.2a6.55,6.55,0,0,1-.41,1.2,11.54,11.54,0,0,1-1.3,2.38c-.28.38-.55.77-.86,1.12s-.67.66-1,1l-.53.47-.56.38-1.14.74a19.91,19.91,0,0,1-2.31,1,17.08,17.08,0,0,1-2.24.61,18.88,18.88,0,0,1-2.13.35,44.77,44.77,0,0,1-7.72.13c-4.83-.27-9.32-.85-13.48-.95a24.94,24.94,0,0,0-5.6.38,5.14,5.14,0,0,0-3,1.37c0,.06-.12.09-.14.16a.93.93,0,0,1-.1.2c-.1.07-.1.31-.19.43a.81.81,0,0,0-.06.13l-.08.26-.16.51-.18.5-.12.57a21.67,21.67,0,0,0-.48,5.1,51.13,51.13,0,0,0,.4,5.89c.31,2.07.67,4.16,1.1,6.34s.93,4.39,1.4,6.73,1,4.77,1.32,7.49l1.59,13.93q.8,6.82,1.36,13.64c.82,9.1.92,18.19,1.11,27.29.35,18.18.09,36.37-.29,54.56s-.66,36.38-.55,54.57l0,6.82,0,1.66c0,.32,0,.54.05,1l.05.66.07.74.16,1.56c.47,4.36,1.09,9.13,1.27,14.54l0,2.11-.06,2.26-.2,2.51-.22,1.47c-.09.51-.14.93-.28,1.52s-.31,1.22-.49,1.83c-.1.31-.17.59-.29.93s-.33.81-.51,1.21a19.35,19.35,0,0,1-1.18,2.32c-.41.64-.85,1.28-1.31,1.89a22.74,22.74,0,0,1-6.12,5.38,31.19,31.19,0,0,1-5.48,2.54c-1.63.57-3.05,1-4.36,1.31l-3.28.85a14.33,14.33,0,0,0-1.69.54,17.32,17.32,0,0,0-2.94,1.84c-1.37,1-3.1,2.41-5.29,4.05a38.51,38.51,0,0,1-8.49,4.88,31.24,31.24,0,0,1-5.55,1.69,32.13,32.13,0,0,1-5.63.58,43.31,43.31,0,0,1-9.31-1c-2.61-.54-4.79-1.1-6.61-1.5-.87-.19-1.71-.38-2.41-.48l-.55-.1-.75-.08-1.53-.15c-2.06-.18-4.19-.31-6.38-.41l-6.76-.26c-.56,0-1.28,0-1.44-.06a10,10,0,0,0-1.13,0c-.89,0-2,.11-3.27.19a33.59,33.59,0,0,1-10.05-.49c-.55-.15-1.09-.3-1.65-.47l-.85-.32c-.34-.13-.42-.15-1-.4a9.94,9.94,0,0,1-1.18-.61c-.26-.15-.51-.3-.72-.44-.45-.29-.85-.57-1.23-.86a24.13,24.13,0,0,1-4.16-4,21.26,21.26,0,0,1-3.14-5.28,18.47,18.47,0,0,1-1-3,23.33,23.33,0,0,1-.42-2.51c-.15-1.42-.2-2.09-.19-2.3s0-.08.09-.06,0-.21-.11-.35a4.83,4.83,0,0,0-1.53-1.81,3.26,3.26,0,0,0-2.24-.6,5.3,5.3,0,0,0-1.36.33,3.14,3.14,0,0,0-.61.3l-.25.18s0,0,0,0a4.63,4.63,0,0,0-.43.79c-.33.66-.76,1.72-1.52,3.16a17.57,17.57,0,0,1-3.71,4.94,14.58,14.58,0,0,1-3.24,2.21,9.93,9.93,0,0,1-1,.45c-.37.14-.74.26-1.12.37l-1.14.31c-.39.07-.79.12-1.19.16s-.8.08-1.2.1-.76,0-1.14,0l-1.14-.11a9.65,9.65,0,0,1-1-.21,12.86,12.86,0,0,1-1.88-.54,16.51,16.51,0,0,1-1.6-.66,29.79,29.79,0,0,1-4.6-2.77c-1.22-.85-2.24-1.67-3.11-2.26l-.61-.39-.48-.26L210.21,518c-2.16-1.5-4.23-3-6.32-4.77-1-.87-2.09-1.82-3.16-2.89a28.28,28.28,0,0,1-3.34-4q-.21-.28-.45-.69l-.46-.77c-.19-.35-.24-.4-.26-.39l-.12-.09a5.48,5.48,0,0,0-.46-.34c-.31-.23-.69-.45-1.14-.74-.94-.59-2.25-1.35-4.25-2.61-1-.58-2.16-1.37-3.38-2.25a36.84,36.84,0,0,1-4-3.42c-.7-.65-1.41-1.48-2.1-2.25l-1.17-1.18-2.34-2.31c-1.59-1.55-3.18-3.2-4.82-4.89s-3.24-3.5-4.75-5.38l-2.29-2.81-.28-.36-.48-.69c-.33-.48-.65-1-.93-1.41-.59-.93-1.09-1.82-1.54-2.69a27.75,27.75,0,0,1-3.08-8.26,9.44,9.44,0,0,1-.08-2.61l.07-.48.1-.42-.58-2c-.17-.66-.28-1.22-.4-1.83a45.76,45.76,0,0,1-.57-5.75c-.08-1.59-.12-2.94-.22-4.17l-.18-3.17c-.06-.89-.16-1.6-.18-1.9,0-.11,0-.11,0-.13s0,0,0,0l-.13-.46-.52-1.84c-.34-1.23-.7-2.45-1.07-3.67-.71-2.44-1.26-4.88-1.9-7.32a204.72,204.72,0,0,1-4.25-28.88c-.14-2.31-.31-4.68-.4-6.95l-.25-6.82c-.09-2.24-.17-4.48-.28-6.66l-.16-3.28-.22-3.21c-.62-8.55-1.6-16.67-3.82-24.18l-.86-2.8-.21-.71c0-.1-.07-.23-.14-.44l-.19-.55c-.25-.74-.52-1.47-.72-2.21a46.16,46.16,0,0,1-1.66-8.79,73.41,73.41,0,0,1,.44-15.86c.58-4.87,1.36-9.33,1.88-13.54a55.49,55.49,0,0,0,.5-11.51,20.19,20.19,0,0,0-1-4.82,6.46,6.46,0,0,0-.45-1.08,8.43,8.43,0,0,0-.54-1,8.27,8.27,0,0,0-.61-1c-.25-.33-.41-.59-.71-1-1.19-1.58-2.72-3.38-4.31-5.67a29.17,29.17,0,0,1-4.31-8.68c-.06-.18-.15-.54-.17-.57l0-.08a1.13,1.13,0,0,0-.09-.2,1,1,0,0,0-.12-.23,2.14,2.14,0,0,0-.16-.28,14.65,14.65,0,0,0-1.14-1.62l-2-2.48a32.5,32.5,0,0,1-2.75-3.89c-2.39-4.12-4.63-8.1-6.87-12.16s-4.43-8.09-6.5-12.18l-1.49-3.1c-.25-.51-.24-1.15-.54-1.64s-.69-.93-1.06-1.39c-1.5-1.81-3.34-3.44-4.52-5.4L90.4,198.47l-3.35-5.88-.84-1.45-.81-1.33-1.61-2.65c-1.11-1.77-2.29-3.53-3.43-5.29s-2.41-3.52-3.68-5.29c-5-7.05-10.52-14.07-16.09-21.49l-4.15-5.7c-1.38-2-2.78-3.9-4.15-6s-2.75-4.11-4.09-6.35-2.65-4.54-4-6.89c-.64-1.21-1.24-2.54-1.85-3.81-.3-.65-.61-1.27-.9-1.95l-.84-2.13-.81-2.14c-.13-.36-.27-.7-.39-1.08l-.33-1.2-1.21-4.48c-.17-.51-.58-1.67-1.4-3.55a82.31,82.31,0,0,1-3-7.76c-.27-.87-.53-1.74-.77-2.77s-.44-2.06-.62-3.15C32,95.64,32,95,31.9,94.43s-.12-1.17-.14-1.8a32.8,32.8,0,0,1,0-3.83c.05-.65.1-1.31.18-2s.2-1.32.33-2a32.07,32.07,0,0,1,.93-3.66,34.42,34.42,0,0,1,2.82-6.54,33.63,33.63,0,0,1,4.19-6,31.3,31.3,0,0,1,6.2-5.46,27.29,27.29,0,0,1,8.92-4,24.36,24.36,0,0,1,5.28-.62c.64,0,1.16.06,1.75.13a12.1,12.1,0,0,1,1.65.26,21.92,21.92,0,0,1,5.61,2,40.25,40.25,0,0,1,3.93,2.32,13.46,13.46,0,0,1,2.59,2.18,18.71,18.71,0,0,1,1.67,2.19,13.61,13.61,0,0,0,1.48,1.9,3.83,3.83,0,0,0,2,1c1.53.3,3.2-.4,5.11-1.09s4-1.75,6.39-2.81a40.87,40.87,0,0,1,8.48-2.82,24.78,24.78,0,0,1,2.53-.39l1.32-.12,1.27,0a19.39,19.39,0,0,1,2.53.09c.85.05,1.66.15,2.48.27a40.21,40.21,0,0,1,8.88,2.48c5.25,2.11,9.37,4.53,12.62,5.89l.6.24a3.75,3.75,0,0,1,.47.17c.29.17.62.29.93.44.65.27,1.34.53,2.08.76a36.38,36.38,0,0,0,5,1.1c1.83.28,3.81.48,5.92.64s4.38.3,6.62.43q6.74.42,13.47.74c4.5.18,9,.37,13.49.5s9,.14,13.5.19l6.75,0c2.25,0,4.5-.1,6.75-.14,4.5-.08,9-.36,13.49-.64,9-.71,18-1.44,26.9-2.49s17.86-2.64,26.73-4.19l6.66-1.08,3.33-.47c1.09-.16,2.29-.3,3.67-.44s2.9-.24,4.6-.27a41.93,41.93,0,0,1,5.63.28,38,38,0,0,1,6.58,1.36A37.38,37.38,0,0,1,312.64,72a40.62,40.62,0,0,1,5,3.24q2.1,1.57,3.57,2.9l2.47,2.25L325.57,82c.63.55,1.22,1.14,1.88,1.66l2,1.57c1.29,1.11,2.78,2,4.2,3.08a87.64,87.64,0,0,0,20.51,10.46,99,99,0,0,0,25,5.33c2.18.14,4.37.37,6.57.4s4.4,0,6.62-.09A131.92,131.92,0,0,0,405.6,103c4.45-.67,8.89-1.3,13.35-1.86,2.23-.27,4.45-.64,6.69-.74,1.13-.07,2.26-.06,3.39-.07s2.26,0,3.4,0c4.53,0,9.11.22,13.66.19a94.2,94.2,0,0,0,13.56-1q6.69-1,13.35-2.29c4.44-.91,8.95-1.82,13.48-2.71a183.86,183.86,0,0,1,28-3.83c4.57-.22,9.31-.32,14.25-.07a68.42,68.42,0,0,1,7.52.9c.64.12,1.27.23,1.92.38l1.81.4c1.12.26,2.37.56,3.61.94s2.55.8,3.91,1.36A22.15,22.15,0,0,1,551.94,97a14.2,14.2,0,0,1,2.6,2.32,11.06,11.06,0,0,1,2.38,4.43,10.29,10.29,0,0,1-.17,5.69,12,12,0,0,1-1.91,3.55,15.32,15.32,0,0,1-4.7,4.1,21.57,21.57,0,0,1-4.77,1.94,30.52,30.52,0,0,1-4.35.81c-1.38.14-2.73.2-4,.21s-2.54,0-3.72-.09l-3.37-.15c-2.18-.1-4.22-.2-6.14-.11-3.81.21-7,.95-9.88,3s-5.72,5.72-9.12,9.24a29.74,29.74,0,0,1-5.95,4.86,14.67,14.67,0,0,1-8,2.38,9.45,9.45,0,0,1-7.82-4,8.61,8.61,0,0,1-1.28-4.15,24.66,24.66,0,0,1,.07-3.68c.08-1.15.18-2.24.16-3.26a8.66,8.66,0,0,0-.12-1.47c-.07-.47-.27-1-.39-1.44a6.51,6.51,0,0,0-3.77-4.13,10.45,10.45,0,0,0-3-.69,20.65,20.65,0,0,0-3.24,0,63,63,0,0,0-6.65,1c-4.45.89-8.89,1.85-13.35,2.71s-8.91,1.77-13.39,2.53l-3.36.59c-1.13.21-2.27.41-3.41.55-2.3.3-4.6.42-6.87.52s-4.52.22-6.76.48-4.48.63-6.71,1.06a47.57,47.57,0,0,0-6.57,1.68,17.2,17.2,0,0,0-3.08,1.42,12.68,12.68,0,0,0-2.63,2.15Zm-.06-.07a19.12,19.12,0,0,1,5.5-4.09,54.43,54.43,0,0,1,6.47-2.57c2.18-.74,4.41-1.44,6.69-2s4.6-1,6.87-1.42l3.31-.56c1.08-.19,2.13-.43,3.17-.65s2.06-.49,3.12-.78,2.22-.53,3.33-.8l3.33-.78,3.36-.7c2.23-.48,4.48-.89,6.72-1.29,4.5-.81,9-1.45,13.55-2.07a66.55,66.55,0,0,1,7-.66,18.89,18.89,0,0,1,7.77,1.14,10.36,10.36,0,0,1,5.73,6.07,18.63,18.63,0,0,1,.56,1.92,13.22,13.22,0,0,1,.26,2,35.5,35.5,0,0,1,0,3.59c-.08,2.22-.07,4.31.79,5.52a4.42,4.42,0,0,0,1.85,1.45,6.24,6.24,0,0,0,2.6.49c3.84,0,7.28-3,10.08-6.31s5.32-7.31,8.94-10.56a20.84,20.84,0,0,1,6.18-3.85,27.22,27.22,0,0,1,7-1.74c4.69-.57,9.33-.25,13.74-.43a28.26,28.26,0,0,0,6.43-.93,9.25,9.25,0,0,0,5-3.09,2.58,2.58,0,0,0,.7-2.13,3.82,3.82,0,0,0-1.61-1.93,21.51,21.51,0,0,0-5.88-2.61c-2.13-.64-4.34-1.23-6.51-1.69a63.78,63.78,0,0,0-6.65-1c-4.48-.44-9-.52-13.55-.57a161,161,0,0,0-27.07,2.3c-4.49.7-9,1.5-13.44,2.29s-9,1.53-13.46,2.26q-26.91,4.5-54.09,7.12c-18.06,1.73-36.4,2.8-54.41-.06-1.12-.18-2.25-.34-3.37-.55l-3.33-.71c-2.24-.42-4.41-1.11-6.61-1.69-1.1-.26-2.17-.67-3.25-1l-3.22-1.11-3.15-1.32c-1-.46-2.11-.84-3.11-1.39a67.87,67.87,0,0,1-6-3.25l-2.9-1.79c-.95-.62-1.84-1.33-2.77-2-3.76-2.56-6.88-6-10.91-8.16A17.94,17.94,0,0,0,297,87a38.75,38.75,0,0,0-6.81-.16l-13.62.8c-9.08.51-18.17.87-27.26,1.14q-27.27.83-54.56.27-13.63-.27-27.27-.87c-4.54-.22-9.08-.42-13.62-.69s-9.09-.47-13.59-1.12a37.19,37.19,0,0,1-12.93-4.1c-4-2.2-7.67-4.9-11.71-7a28,28,0,0,0-6.35-2.44,18.16,18.16,0,0,0-6.77-.35c-4.54.65-8.61,2.88-12.76,4.68a36.86,36.86,0,0,1-6.44,2.22,19.76,19.76,0,0,1-6.77.4c-4.53-.49-8.81-2.33-13.38-2.55a9.9,9.9,0,0,0-6.49,1.6,14.45,14.45,0,0,0-4.55,5,15.47,15.47,0,0,0-2,6.44A18.12,18.12,0,0,0,50.92,97c1.29,4.35,3.47,8.42,4.39,12.9a57.4,57.4,0,0,0,4.49,12.84A196.7,196.7,0,0,0,74,146c5.12,7.52,10.34,15,15.23,22.64,1.22,1.91,2.39,3.87,3.59,5.8s2.29,3.92,3.39,5.91c2.16,4,4.2,8.07,6.22,12.14,8.15,16.27,15.88,32.74,24.19,48.91,2.09,4,4.21,8.06,6.4,12a61.47,61.47,0,0,0,4,5.52,17,17,0,0,1,3,6.07,21,21,0,0,0,3,6.12c1.26,1.89,2.68,3.67,4,5.52a29.2,29.2,0,0,1,5,12.55,61.23,61.23,0,0,1,.33,13.6c-.3,4.54-.83,9.06-1.14,13.6a66.57,66.57,0,0,0,.23,13.61,35.12,35.12,0,0,0,1.52,6.64l2.39,6.38c3.11,8.57,4.69,17.59,5.78,26.61s1.64,18.11,2.48,27.17a201.09,201.09,0,0,0,4,27c.58,2.2,1,4.43,1.7,6.6s1.34,4.34,2,6.53c1.08,4.42,1,9.06,2.39,13.42.34,1.08.92,2.07,1.34,3.13s.83,2.12,1.22,3.19a63.6,63.6,0,0,0,2.49,6.34,45.33,45.33,0,0,0,3.66,5.74c1.3,1.86,2.63,3.71,4,5.55l4,5.51,2,2.77c.66.93,1.29,1.88,2,2.74,2.94,3.49,6.92,5.9,9.94,9.32a20.92,20.92,0,0,1,2.05,2.73c.63.94,1,2,1.61,3a32.79,32.79,0,0,0,4.14,5.4c1.53,1.68,3.15,3.28,4.83,4.81.84.77,1.73,1.48,2.54,2.27s1.65,1.57,2.51,2.31a15,15,0,0,0,2.77,2,6,6,0,0,0,3.26.8,5.63,5.63,0,0,0,3.06-1.35,9.7,9.7,0,0,0,2.09-2.67c1.11-2,1.91-4.18,3.62-5.74a12.51,12.51,0,0,1,6.14-2.79,12.06,12.06,0,0,1,6.69.76,12.91,12.91,0,0,1,5.29,4.19,9.54,9.54,0,0,1,1.56,3,27,27,0,0,1,.66,3.34,11.57,11.57,0,0,0,2.75,6.13,14,14,0,0,0,2.53,2.27,9.7,9.7,0,0,0,1.46.87l.8.28.82.21a21.19,21.19,0,0,0,6.79,0c4.49-.75,9.07-.64,13.6-.81,2.28,0,4.55-.07,6.83,0a48.14,48.14,0,0,1,6.79.5c4.49.66,9,1.82,13.52,1.6a18,18,0,0,0,6.59-1.53,29.47,29.47,0,0,0,5.83-3.5c3.63-2.7,7.06-5.83,11.35-7.5s9-1.84,13-4.14a10,10,0,0,0,2.56-2.19,7.78,7.78,0,0,0,1.39-3.07,29.59,29.59,0,0,0,.49-6.78c-.09-4.55-.59-9.07-1-13.6a57.41,57.41,0,0,1-.34-6.81V417.17l0-109.13c-.38-9.07-2.62-18-2.11-27.17a27.33,27.33,0,0,1,1.14-6.72l.24-.82.34-.78a10.37,10.37,0,0,1,.71-1.55,8.63,8.63,0,0,1,1-1.42l.57-.64a5.81,5.81,0,0,1,.65-.56,12.37,12.37,0,0,1,6.29-2.45,35.32,35.32,0,0,1,6.82-.08c4.54.32,9,1.11,13.56,1.53a39.6,39.6,0,0,0,6.8.14,15.63,15.63,0,0,0,3.33-.61c.54-.16,1.05-.42,1.57-.63l.72-.45.37-.22.31-.28a8.55,8.55,0,0,0,2.79-6,45.61,45.61,0,0,0-.17-6.81c-.35-4.53-.89-9.05-1.06-13.6-.11-18.19,0-36.37,0-54.56,0-4.55,0-9.1,0-13.64A134,134,0,0,0,395,157.2a77.38,77.38,0,0,1-1-13.59,19.35,19.35,0,0,1,4.62-12.56Z"/></svg>