<svg id="Layer_1" data-name="Layer 1" xmlns="http://www.w3.org/2000/svg" viewBox="0 0 600 600"><title>nauru</title><path d="M387.65,58C380,55.52,371.9,54.82,364,53.45a147.74,147.74,0,0,0-23.8-2.12A74.82,74.82,0,0,0,317,55.14,71,71,0,0,0,296.6,65.88,153.26,153.26,0,0,0,279.25,81.4c-2.78,2.79-5.51,5.74-8.27,8.54s-5.46,5.72-8.17,8.59l-8.17,8.5c-1.4,1.37-2.77,2.76-4.14,4.17s-2.78,2.75-4.17,4.13c-2.73,2.83-5.64,5.41-8.41,8.19l-4.31,4c-1.41,1.37-2.85,2.7-4.31,4-11.51,10.67-23.15,21.39-35,32S170.14,184.7,157.73,195l-18.58,15.48q-9.36,7.69-18.37,15.51c-12,10.35-23.37,21.3-32.79,33.61-1.16,1.55-2.42,3-3.47,4.65s-2.19,3.18-3.24,4.79l-3,4.92c-1,1.63-1.84,3.35-2.72,5.05a40.61,40.61,0,0,0-2.21,5.28c-.31.9-.66,1.78-.94,2.69s-.48,1.84-.71,2.76a46.57,46.57,0,0,0-1,5.59c-.17,1.89-.34,3.77-.48,5.62a146.69,146.69,0,0,0,1.57,21.89A130.78,130.78,0,0,0,76,344.19a224,224,0,0,0,7.53,21.3c2.83,7.14,6,14.33,9,21.8s5.81,15,8.37,22.67c1.31,3.8,2.47,7.64,3.68,11.47s2.3,7.75,3.29,11.51l3,10.7c1,3.34,1.88,6.58,2.94,9.54.53,1.5,1,2.94,1.53,4.35s1.18,2.71,1.73,4.1,1.26,2.72,1.91,4.1,1.45,2.72,2.18,4.11c1.56,2.72,3.27,5.47,5.18,8.18.92,1.38,2,2.71,3,4.09s2.17,2.67,3.26,4A131.73,131.73,0,0,0,148,501.45,175.12,175.12,0,0,0,187,526.09a106.73,106.73,0,0,0,22,7.8A214.59,214.59,0,0,0,232,537.45c1.92.16,3.82.46,5.73.64s3.81.34,5.71.56c.95.14,1.9.2,2.85.31.48,0,.93.29,1.41.34l1.43.06c1.91.1,3.83.06,5.73.07a158,158,0,0,0,22.66-1.55A133.86,133.86,0,0,0,319.32,525c3.19-1.63,6.31-3.36,9.31-5.23s5.9-3.79,8.75-5.94,5.8-4.46,8.82-6.9,6.14-5,9.44-7.61,6.82-5.18,10.58-7.72c1.89-1.27,3.83-2.51,5.85-3.72a46.06,46.06,0,0,1,6.27-3.26c4.33-1.81,9-2.37,13.4-2.79,2.21-.22,4.37-.43,6.45-.77s4.08-.75,6.08-1.12c4-.75,7.88-1.47,11.66-2.29a67.78,67.78,0,0,0,10.93-3.08,44.13,44.13,0,0,0,9.62-5.13,41.59,41.59,0,0,0,4.2-3.34c.67-.59,1.26-1.23,1.88-1.85a21.16,21.16,0,0,0,1.73-1.95,29,29,0,0,0,5-8.57,26.24,26.24,0,0,0,1.62-8.93c0-6-1.71-12.63-3-20.62a67.8,67.8,0,0,1-1.16-12.78,49,49,0,0,1,.62-6.51c.38-2.16.86-4.3,1.41-6.4l1.69-6.26q.88-3.09,1.57-6.15c.93-4.07,1.42-8.12,2.14-12.14s1.47-8,2.26-12L458.68,350c1.47-7.9,2.72-15.94,4.6-23.91a110.54,110.54,0,0,1,3.37-11.88c.62-2,1.42-3.88,2.15-5.81s1.6-3.81,2.5-5.67,1.82-3.7,2.73-5.56,2-3.64,3-5.44,2.08-3.57,3.16-5.34,2.23-3.49,3.38-5.21a209.11,209.11,0,0,1,15-19.87c2.69-3.19,5.45-6.23,8.16-9.18l4-4.41c1.32-1.44,2.63-2.87,3.87-4.31,5-5.79,9.31-11.47,12.17-17.35a46.3,46.3,0,0,0,3.3-9.17c.4-1.64.79-3.32,1.09-5.07s.56-3.54.8-5.38c.45-3.67.83-7.57,1.09-11.37s.41-7.66.38-11.48a140,140,0,0,0-2-22.72,105.66,105.66,0,0,0-6-21.84c-.36-.87-.75-1.73-1.12-2.6s-.74-1.75-1.17-2.56l-1.24-2.48c-.41-.84-.92-1.61-1.38-2.43a79.45,79.45,0,0,0-6.39-9.29,104.91,104.91,0,0,0-16.56-16.11,149.77,149.77,0,0,0-19.75-13,264,264,0,0,0-43.92-19.1c-7.58-2.62-15.24-5-23-7.21l-23.23-6.38Zm0-.09c7.84,1.77,15.7,3.44,23.53,5.28,1.95.48,3.92.91,5.86,1.43l5.82,1.58q2.91.8,5.8,1.68c1.93.58,3.85,1.18,5.77,1.78,15.34,4.84,30.55,10.39,44.94,17.74a158.31,158.31,0,0,1,20.77,12.45,110.35,110.35,0,0,1,18.1,16.1,81,81,0,0,1,13.09,20.34,112.74,112.74,0,0,1,7.4,23c3.33,15.77,3.82,32,2.53,48-.71,8-2.27,16-6.08,23.16s-9,13.33-14.65,19S508.77,260.36,503,266a177.14,177.14,0,0,0-16.12,17.87c-2.47,3.17-4.82,6.43-7,9.82-1.11,1.67-2.1,3.41-3.14,5.13s-2,3.5-2.84,5.31-1.72,3.63-2.56,5.45-1.55,3.7-2.19,5.61a98.6,98.6,0,0,0-3.36,11.56c-1.8,7.83-2.87,15.8-3.93,23.75s-2.11,15.92-2.9,23.91-1.31,16-1.29,24.05a151.73,151.73,0,0,0,1.89,24c1.15,7.91,2.43,16,1.13,24a37.63,37.63,0,0,1-3.88,11.34,45.28,45.28,0,0,1-7.05,9.72,70.44,70.44,0,0,1-19.35,14.14,194.19,194.19,0,0,1-22.27,9.13,212.5,212.5,0,0,0-22.31,9.05,132.64,132.64,0,0,0-20.29,12.91c-6.44,4.79-12.73,9.8-19.41,14.27A128.87,128.87,0,0,1,325,538.37a148.39,148.39,0,0,1-46.67,11.08,185.88,185.88,0,0,1-24.07.26,204.74,204.74,0,0,1-23.93-2.61q-11.88-2-23.52-5.12c-7.75-2.1-15.4-4.58-22.94-7.33s-15-5.84-22.25-9.2a231.26,231.26,0,0,1-21.34-11.16c-13.76-8.2-26.64-18.29-36.51-31-1.18-1.62-2.48-3.16-3.54-4.87s-2.27-3.32-3.21-5.09-2-3.47-2.91-5.28-1.73-3.62-2.51-5.47A194.13,194.13,0,0,1,84,439.76L70.87,393.4c-4.36-15.44-8.68-31-11-46.86a145.15,145.15,0,0,1-1.64-24,105.32,105.32,0,0,1,3.2-23.83c4.11-15.55,11.61-30,21-43.06s20.2-25,31.39-36.49,22.7-22.71,34.06-34.07c22.78-22.63,45.28-45.58,69-67.21,5.92-5.43,12-10.69,18.08-15.92s12.33-10.3,18.7-15.19c3.14-2.49,6.4-4.85,9.59-7.28s6.49-4.73,9.8-7A169,169,0,0,1,293.63,60a95.59,95.59,0,0,1,11.07-4.76c1.88-.7,3.83-1.22,5.75-1.8,1-.31,1.94-.52,2.92-.75L316.3,52a107.68,107.68,0,0,1,24-2,155.06,155.06,0,0,1,23.93,2.54c2,.35,3.95.72,5.92,1.14S374,54.53,376,55c3.91.91,7.79,1.94,11.7,2.86Z"/></svg>