<svg id="Layer_1" data-name="Layer 1" xmlns="http://www.w3.org/2000/svg" viewBox="0 0 600 600"><title>newzealand</title><path d="M317.74,50.66a6.74,6.74,0,0,0-3.07-.63,5.76,5.76,0,0,0-2.95.95,6,6,0,0,0-2.85,4.73,7.69,7.69,0,0,0,.42,2.76A10.52,10.52,0,0,0,310.62,61a34.21,34.21,0,0,0,4.06,4.57c.76.76,1.53,1.54,2.28,2.39s1.44,1.75,2.1,2.65,1.28,1.82,1.88,2.75,1.2,1.87,1.77,2.82c2.26,3.8,4.17,7.76,6,11.65s3.57,7.69,5.5,11.22a63.23,63.23,0,0,0,6.52,9.75c4.9,6.14,10.95,11.66,17,17.94a114.08,114.08,0,0,1,8.82,10.36,100.53,100.53,0,0,1,8.06,12.22A84.17,84.17,0,0,1,384.37,178a69,69,0,0,1,.4,15.62,78.48,78.48,0,0,1-1.18,7.86c-.06.33-.14.65-.21,1l-.19.83-.42,1.71c-.31,1.22-.68,2.58-1.17,4.07a33.05,33.05,0,0,1-2,4.74,23.09,23.09,0,0,1-3.25,4.63,24.17,24.17,0,0,1-4.35,3.74,27,27,0,0,1-5.28,2.92c-1.66.69-3.2,1.16-4.53,1.59s-2.49.8-3.47,1.15a14.38,14.38,0,0,0-3.91,1.9c-.2.13-.23.24-.38.38a3.22,3.22,0,0,0-.38.51,5,5,0,0,0-.56,1,5.15,5.15,0,0,0-.52,1.76,2.08,2.08,0,0,0,0,.66,1.85,1.85,0,0,0,.13.59,2.36,2.36,0,0,0,.53,1,5.53,5.53,0,0,0,1.11.94,10.05,10.05,0,0,0,2.15,1,8.18,8.18,0,0,0,1.4.37c.5.09.93.14,1.66.22,1.38.14,3.2.23,5.45.38a60.41,60.41,0,0,1,8.2,1,32.43,32.43,0,0,1,10.72,4.24c.9.6,1.79,1.23,2.65,1.89s1.64,1.41,2.42,2.15,1.43,1.53,2.12,2.33,1.38,1.85,2,2.81a29.77,29.77,0,0,1,4.34,12.53,38.16,38.16,0,0,1-.33,10.82,58,58,0,0,1-2.25,8.66c-.45,1.3-.92,2.56-1.4,3.79L392.62,292c-.18.44-.33.89-.55,1.32a9.86,9.86,0,0,1-.65,1.19,12.4,12.4,0,0,1-.79,1l-.81,1a8.93,8.93,0,0,0-1.68,3.43l-.15.63c0,.19,0,.33-.09.49a1.83,1.83,0,0,1,0,.34.31.31,0,0,1,0,.19s0,0,0,.07,0,0,0,0,0,0,0,0-.08-.08-.1-.13-.27-.12-.1.15a3.87,3.87,0,0,0,1.27,1.05,10.62,10.62,0,0,0,2.37.85,9.7,9.7,0,0,0,1.28.2,11.43,11.43,0,0,0,1.73,0,17,17,0,0,0,4.08-.92,42.08,42.08,0,0,0,9.49-4.94c1.66-1.08,3.35-2.36,5-3.53s3.11-2.46,4.55-3.7a37.27,37.27,0,0,0,3.92-3.93,28.12,28.12,0,0,0,3-4.42,46.35,46.35,0,0,0,3.79-10c.47-1.74.93-3.48,1.28-5.27a12.26,12.26,0,0,1,1-2.58,13.33,13.33,0,0,0,1.14-2.6,68,68,0,0,0,1.68-11.2c.14-1.83.2-4,.3-6.23s.27-4.64.64-7.17a34.5,34.5,0,0,1,2.09-8,21.4,21.4,0,0,1,5.52-8c.65-.54,1.31-1.06,2-1.55a19.61,19.61,0,0,1,2.23-1.29,17.39,17.39,0,0,1,5-1.62,20.87,20.87,0,0,1,9.23.66,35.93,35.93,0,0,1,3.64,1.25c.57.22,1.11.45,1.64.68l1.44.64a13.4,13.4,0,0,0,3.62,1.19,1.29,1.29,0,0,0,.62-.05,2.69,2.69,0,0,0,.45-.23c.12-.1.27-.17.28-.2s.06.06.16-.14a5.32,5.32,0,0,0,.16-1.57,53.46,53.46,0,0,1,0-7.05,36.43,36.43,0,0,1,1.84-7.5l1.16-3.35.3-.81c.09-.27.16-.51.29-.85.24-.66.48-1.25.72-1.83.93-2.27,1.87-4.27,2.77-6.22,1.76-3.9,4-7.21,5.63-10.51a36.32,36.32,0,0,0,2-4.67,12.32,12.32,0,0,0,.62-3.44,2.61,2.61,0,0,0-.62-1.8,1.88,1.88,0,0,0-.61-.57,3.49,3.49,0,0,0-1.09-.42,4.31,4.31,0,0,0-1.29-.06,4.66,4.66,0,0,0-1.43.42,35.42,35.42,0,0,0-4.67,3.12c-.49.35-1,.71-1.62,1.07s-1,.59-1.49.88c-1,.56-2,1.11-3,1.64a70.45,70.45,0,0,0-6.34,3.25c-2.12,1.31-4.3,2.49-6.54,3.73a41.92,41.92,0,0,1-7.14,3.24,22.75,22.75,0,0,1-7.76,1.09,53.7,53.7,0,0,1-7.87-.88,44.64,44.64,0,0,1-7.74-2.11,40.31,40.31,0,0,1-7.72-3.76,33.1,33.1,0,0,1-7.2-6.18,38.25,38.25,0,0,1-4.89-7.38,43.39,43.39,0,0,1-2.94-7.64c-.71-2.46-1.21-4.76-1.67-6.9l-.37-1.91c-.14-.69-.2-1.25-.3-1.88-.18-1.2-.32-2.33-.44-3.36-.25-2.09-.47-3.93-.76-5.44a15,15,0,0,0-.93-3.26,2.74,2.74,0,0,0-.77-1.11c-.06-.11-.27-.14-.39-.24a1.24,1.24,0,0,0-.35-.21,2.74,2.74,0,0,0-.86-.24,5.57,5.57,0,0,0-1.1,0c-.19,0-.39,0-.59.07l-.29.07-.13,0,0-.05c.1-.16-.25,0-.88.49s-1.6,1.4-3,2.46a15.5,15.5,0,0,1-6,2.81,16.5,16.5,0,0,1-2,.26,15.86,15.86,0,0,1-2.07-.06,14.72,14.72,0,0,1-2-.39,16.48,16.48,0,0,1-1.83-.68,14.6,14.6,0,0,1-5-3.86,20.52,20.52,0,0,1-2.63-4,25.86,25.86,0,0,1-1.6-3.94c-.34-1.1-.65-2.21-.95-3.32a88,88,0,0,1-2.42-13.48c-.22-2.26-.37-4.52-.4-6.77s0-4.57.17-6.69c.26-4.2.42-7.94-.83-10.82A10.71,10.71,0,0,0,362,84a49.26,49.26,0,0,0-4.94-3.49q-2.62-1.68-5.36-3.24c-1.83-1-3.7-2-5.59-2.88s-3.8-1.78-5.77-2.59-3.94-1.65-5.85-2.66a22.92,22.92,0,0,1-5.32-3.69A18.48,18.48,0,0,1,325.71,60a29.58,29.58,0,0,0-3-5.55,11.81,11.81,0,0,0-4.89-3.9Zm0-.08a11.68,11.68,0,0,1,5.34,3.56,29.06,29.06,0,0,1,3.62,5.39,18.88,18.88,0,0,0,3.52,4.73,22.44,22.44,0,0,0,5,3.12c3.7,1.71,7.84,2.9,11.79,4.56a105.08,105.08,0,0,1,11.58,5.54,57.19,57.19,0,0,1,5.54,3.36,15.35,15.35,0,0,1,4.59,4.92,17.68,17.68,0,0,1,2,6.35,54,54,0,0,1,.36,6.44,81.41,81.41,0,0,0,4,24.85,32.73,32.73,0,0,0,2.36,5.84,10,10,0,0,0,4.29,4.37,4.59,4.59,0,0,0,3,.27,7,7,0,0,0,2.74-1.42c1.62-1.32,2.94-3.08,4.83-4.13a13,13,0,0,1,12.27-.06,11.9,11.9,0,0,1,4.57,4.31,21.12,21.12,0,0,1,2.33,5.89c1,4.12,1.34,8.37,2.37,12.49A52.86,52.86,0,0,0,418,163a28.32,28.32,0,0,0,3.58,5.23,22.59,22.59,0,0,0,4.84,4.09,36.3,36.3,0,0,0,11.8,4.57,45.29,45.29,0,0,0,25-1.93,54.21,54.21,0,0,0,11.15-6.06,49.45,49.45,0,0,1,5.16-3.7,10.51,10.51,0,0,1,6.1-1.42,9.27,9.27,0,0,1,5.72,2.47,10,10,0,0,1,1.91,2.52,9.44,9.44,0,0,1,1,3,15.74,15.74,0,0,1-.55,6.29,36.11,36.11,0,0,1-2.28,5.93,115.84,115.84,0,0,1-6.33,11c-1.11,1.8-2.24,3.59-3.25,5.46a44.09,44.09,0,0,0-2.5,5.83,25.85,25.85,0,0,0-1.45,6.18,46.48,46.48,0,0,0,.15,6.35,11.91,11.91,0,0,1-.25,3.15,6.24,6.24,0,0,1-1.47,2.78,7.93,7.93,0,0,1-5.6,2.62,15.79,15.79,0,0,1-6.16-1.37,47.38,47.38,0,0,0-6-2.07,14.54,14.54,0,0,0-6.29-.33,11.22,11.22,0,0,0-5.56,2.91,13.86,13.86,0,0,0-3.38,5.32A25.73,25.73,0,0,0,442,238c-.44,4.22-.19,8.47-.25,12.71a75.33,75.33,0,0,1-4.41,24.92,57.23,57.23,0,0,1-13.58,21.25c-3,3-6.16,5.83-9.37,8.59a66,66,0,0,1-10.27,7.47,28.27,28.27,0,0,1-12,3.89,20.79,20.79,0,0,1-12.18-2.9,14.68,14.68,0,0,1-4.53-4.38,14.49,14.49,0,0,1-2.18-5.92c-.56-4.24.52-8.49,1.95-12.45.73-2,1.56-3.94,2.42-5.87s1.74-3.87,2.46-5.86A29.63,29.63,0,0,0,382.15,267a14,14,0,0,0-1.88-6,14.94,14.94,0,0,0-4.36-4.56,18.12,18.12,0,0,0-5.82-2.45,49.31,49.31,0,0,0-6.27-1c-4.2-.46-8.49-.86-12.4-2.6a19.66,19.66,0,0,1-9.49-8.14,16.36,16.36,0,0,1-1.5-12.31,19.14,19.14,0,0,1,7.2-10.22c3.45-2.5,7.57-3.84,11.05-6.26A20.36,20.36,0,0,0,366,203.34c.71-2,1.28-4,1.81-6.08a60.15,60.15,0,0,0,1.32-6.21,66.26,66.26,0,0,0,.82-12.66,67.42,67.42,0,0,0-5.48-24.66c-3.35-7.81-8.44-14.7-13.78-21.26s-11-13-15.56-20.1a69.63,69.63,0,0,1-5.88-11.26c-1.64-3.91-3-7.92-4.43-11.92s-2.89-8-4.7-11.8a43.64,43.64,0,0,0-6.81-10.66,37.07,37.07,0,0,1-3.86-5.05A9.66,9.66,0,0,1,308,55.59a6.07,6.07,0,0,1,1.15-2.94,6.46,6.46,0,0,1,2.49-2,8.51,8.51,0,0,1,6.22-.2Z"/><path d="M324.44,299.58a18.56,18.56,0,0,1-5.77-2.54,11,11,0,0,1-4.13-5.06,12.32,12.32,0,0,1-.89-3.29,19.89,19.89,0,0,1-.08-3.35,29.67,29.67,0,0,0,.1-6,5.07,5.07,0,0,0-.75-2.16,1.65,1.65,0,0,0-1.26-.71,5.41,5.41,0,0,0-2.09.21,22.41,22.41,0,0,0-2.52,1,22.71,22.71,0,0,0-8.33,7,35.84,35.84,0,0,0-5.11,9.94c-1.23,3.61-2.17,7.52-3.16,11.6A114,114,0,0,1,286.67,319a58,58,0,0,1-3,6.7c-.62,1.11-1.26,2.24-1.93,3.27s-1.35,2-2,2.89c-2.59,3.58-4.42,6.44-4.92,8.41a24.73,24.73,0,0,0-.62,4c-.18,1.74-.35,3.86-.73,6.42a37.57,37.57,0,0,1-.83,4.12c-.18.74-.42,1.47-.67,2.2a21.32,21.32,0,0,1-.8,2.16,37.71,37.71,0,0,1-4.34,7.72A58,58,0,0,1,256,377.89c-1.83,1.48-3.63,2.84-5.37,4.14l-5.06,3.76c-3.35,2.5-6.76,4.93-10.13,7.4l-10.15,7.39L215.21,408l-10.09,7.48c-1.62,1.2-3.41,2.6-5.8,4.14a34.74,34.74,0,0,1-9,4.26,30.81,30.81,0,0,1-5.55,1.09c-1.65.18-3,.23-4,.29a19.86,19.86,0,0,0-2.25.19c-.41.06-.58.23-.88.28-.14,0-.26.15-.4.19l-.19.09a1.56,1.56,0,0,0-.2.16c-.14.11-.27.19-.42.29s-.3.28-.45.4a17.22,17.22,0,0,0-2.19,2.41,90.17,90.17,0,0,0-5.6,8.43c-1.07,1.76-2.15,3.59-3.45,5.6-.6,1-1.33,2-2,3.06s-1.57,2.09-2.36,3.13a95.57,95.57,0,0,1-10,10.79c-1.64,1.55-3.37,3-4.95,4.42a8.36,8.36,0,0,1-2.6,1.81,22.66,22.66,0,0,1-3.27.82,7.61,7.61,0,0,0-2.85,1.19l-2.37,1.59c-.8.55-1.48,1.1-2.2,1.64s-1.4,1.15-2,1.72-1.33,1.13-1.87,1.71l-1.7,1.72c-.5.57-1,1.16-1.51,1.71s-.89,1.14-1.4,1.68a16.72,16.72,0,0,0-1.31,1.66l-.65.82a8.88,8.88,0,0,0-.56.85c-.34.56-.8,1.17-1.1,1.7s-.6,1-.83,1.46c-.47.89-.76,1.54-1,1.95-.13.22-.23.34-.32.53a1.53,1.53,0,0,0-.13.75c0,1.26,1.34,3.24,3.2,4.43a12.14,12.14,0,0,0,3.58,1.5,20.51,20.51,0,0,0,4.6.58,26.87,26.87,0,0,0,5.2-.37c.94-.17,2.08-.4,3.41-.6a24.87,24.87,0,0,1,4.65-.42,18.41,18.41,0,0,1,5.95.93,23,23,0,0,1,4.94,2.38c1.3.81,2.29,1.52,3.07,2l2.25,1.39c.78.41,1.5.91,2.27,1.33l1.17.63a9.61,9.61,0,0,1,1.09.75,5.89,5.89,0,0,0,2.34,1.28,12.72,12.72,0,0,0,1.38.19,7.65,7.65,0,0,1,1.38.21,61.86,61.86,0,0,0,10.37,2.56,66.69,66.69,0,0,0,10.76.69c.9,0,1.79,0,2.69-.09l2.76-.15c1.88-.12,3.65-.33,5.28-.55a29.43,29.43,0,0,0,7.79-2,11.59,11.59,0,0,0,1.32-.64c.41-.21.79-.43,1.24-.71a35.94,35.94,0,0,0,3.1-2.24c1.21-.92,2.54-2.06,4-3.34l2.69-2.28a8.79,8.79,0,0,1,3.19-2,9.47,9.47,0,0,1,4.14-.13c1.55.26,3.12.61,4.61.89a10.82,10.82,0,0,0,3.89.12,7.52,7.52,0,0,0,2.64-1.26c.38-.27.75-.54,1.09-.83a10.44,10.44,0,0,0,1-1,9.88,9.88,0,0,0,1.56-2.15,7.62,7.62,0,0,0,.8-2.27,8.34,8.34,0,0,0,.12-1.07,3.52,3.52,0,0,0,0-.47,3.18,3.18,0,0,0-.1-.33l-.56-1.49a21.91,21.91,0,0,1-.76-2.86,19.43,19.43,0,0,1-.4-4.67c0-.44.07-.92.11-1.35l.15-1.13c.1-.76.26-1.46.38-2.21a49.67,49.67,0,0,1,2.47-7.88c.94-2.34,1.87-4.47,2.71-6.36.4-.92.78-1.83,1.09-2.63s.57-1.51.83-2.22l1.45-4.21.69-2.11c.08-.36.26-.7.37-1.06s.32-.69.5-1a18.59,18.59,0,0,1,1.42-2.11c.56-.71,1.2-1.46,1.79-2.25a18.12,18.12,0,0,0,1.7-2.87,30.23,30.23,0,0,0,1.31-3.65c.23-.69.39-1.37.66-2.11a20,20,0,0,1,.77-2.21,14.91,14.91,0,0,1,2.45-4.08,18.69,18.69,0,0,1,3.1-2.92,23.37,23.37,0,0,1,3.32-2.07c2.17-1.11,4.08-1.89,5.6-2.7a13.85,13.85,0,0,0,2-1.27,17.61,17.61,0,0,0,1.92-1.78,27.84,27.84,0,0,0,3.31-4.42,25.85,25.85,0,0,0,1.37-2.47c.4-.81.79-1.87,1.52-3.12a9.88,9.88,0,0,1,1.43-1.93,7.54,7.54,0,0,1,2.38-1.69,8,8,0,0,1,2.55-.64,13.79,13.79,0,0,1,2.09-.07,42.62,42.62,0,0,1,6.81,1c2.3.52,4.36,1.15,6.29,1.69a20.44,20.44,0,0,0,5.34.92c.4,0,.78,0,1.16-.05a8.43,8.43,0,0,0,1-.2,6.06,6.06,0,0,0,1.77-.78,3.82,3.82,0,0,0,1.11-1.08,2.41,2.41,0,0,0,.35-1.1,4.27,4.27,0,0,0-.18-1.51,6.68,6.68,0,0,0-.33-.87,4.25,4.25,0,0,0-.21-.43l-.33-.61a6.33,6.33,0,0,0-.79-1.24,5.92,5.92,0,0,0-1.34-1.06c-1.08-.64-2.58-1.21-4-2.17a7.53,7.53,0,0,1-3-4.52,17.24,17.24,0,0,1,.15-6.36,19.31,19.31,0,0,1,.85-2.87c.17-.43.34-.9.53-1.29l.59-1.17a22,22,0,0,1,1.25-2.1c.11-.17.2-.32.33-.51l.47-.62c.31-.41.62-.81,1-1.2a18.3,18.3,0,0,1,5-3.87,25.88,25.88,0,0,1,4.33-1.74c1.17-.36,2-.59,2.73-.79a14.81,14.81,0,0,0,1.76-.61,8.38,8.38,0,0,0,1.47-.79c.25-.14.48-.36.73-.53a7.35,7.35,0,0,0,.67-.56,22.7,22.7,0,0,0,2.88-3.71l3.38-5.23,3.4-5.3,3.48-5.26,6.91-10.48a18.89,18.89,0,0,0,3.48-9.86c.17-1.94.22-4.09.38-6.26,0-.54.08-1.08.12-1.63,0-.28,0-.51.09-.84l.13-1a15.8,15.8,0,0,1,1.12-3.58c.95-2.16,2.11-3.87,2.78-5.55a8.21,8.21,0,0,0,.58-2.47,6.94,6.94,0,0,0-.43-2.53,11.4,11.4,0,0,0-3.17-4.66,10.4,10.4,0,0,0-5.23-2.41,16.62,16.62,0,0,0-6.08.17,22.44,22.44,0,0,0-3,.82,27.74,27.74,0,0,0-2.85,1.26c-1.87.93-3.69,2-5.65,2.75a15.26,15.26,0,0,1-3,.82,10.66,10.66,0,0,1-3.14-.05Zm0-.09a5.9,5.9,0,0,0,1.57,0,11.13,11.13,0,0,0,1.52-.22,15.19,15.19,0,0,0,2.87-1.06c1.83-.92,3.5-2.16,5.33-3.24a24.41,24.41,0,0,1,2.86-1.54,22.74,22.74,0,0,1,3.14-1.06,17.05,17.05,0,0,1,3.28-.57,17.37,17.37,0,0,1,3.38,0,12.65,12.65,0,0,1,6.38,2.53,13.89,13.89,0,0,1,4.16,5.38,9.85,9.85,0,0,1,.87,3.45,10.54,10.54,0,0,1-.48,3.48c-.68,2.18-1.74,4-2.41,5.86a11.69,11.69,0,0,0-.7,2.78,29,29,0,0,0-.08,3c0,2.07.12,4.15.12,6.28a23.71,23.71,0,0,1-3.1,12.42l-12.11,22-3,5.5a33.18,33.18,0,0,1-3.48,5.25,18.75,18.75,0,0,1-4.85,4,30.9,30.9,0,0,1-5.82,2.37,20.17,20.17,0,0,0-2.88,1.21,9.57,9.57,0,0,0-2.42,1.93,13.64,13.64,0,0,0-2.73,5.57,9,9,0,0,0,0,3.11,13.84,13.84,0,0,0,.91,3c.84,1.92,1.9,3.72,2.82,5.6a9.64,9.64,0,0,1,1.21,6.05,6.48,6.48,0,0,1-1.24,2.84,7.71,7.71,0,0,1-2.37,2,10.86,10.86,0,0,1-6.05,1.31,26.82,26.82,0,0,1-6.14-1.21c-2-.59-4-1.26-6-1.71a39.19,39.19,0,0,0-6.19-.93,7,7,0,0,0-3.08.44,4.94,4.94,0,0,0-2.17,2.19c-.52.91-.88,1.9-1.31,2.85s-.9,1.89-1.41,2.81a32.34,32.34,0,0,1-3.53,5.17,18.87,18.87,0,0,1-4.67,4.15c-1.77,1.11-3.68,2-5.47,3.07a16.6,16.6,0,0,0-4.73,4.06,10.82,10.82,0,0,0-2.11,5.81c-.16,2.09-.05,4.19-.12,6.28A40.53,40.53,0,0,1,261.78,454a40,40,0,0,1-2.55,5.72,62.33,62.33,0,0,1-3.35,5.31c-2.35,3.44-4.83,6.88-6.2,10.86a18.83,18.83,0,0,0-.74,3.05,15.59,15.59,0,0,0,0,3.13,20.1,20.1,0,0,1,.07,6.24,16.92,16.92,0,0,1-2.67,5.64,36.2,36.2,0,0,1-4,4.8,121.3,121.3,0,0,1-9.52,8.17c-3.26,2.63-6.11,5.72-9.36,8.35a40.44,40.44,0,0,1-5.11,3.63,28.69,28.69,0,0,1-5.71,2.57,41.76,41.76,0,0,1-12.37,1.86,92.44,92.44,0,0,1-24.84-3,70.63,70.63,0,0,1-22.67-10.47l-2.5-1.89c-.82-.66-1.62-1.33-2.47-1.93a12.26,12.26,0,0,0-2.74-1.52A9.72,9.72,0,0,0,142,504a29.59,29.59,0,0,0-6.21.73,52.17,52.17,0,0,1-6.23.75,29.09,29.09,0,0,1-12.34-1.7,19.18,19.18,0,0,1-9.5-7.85,14.49,14.49,0,0,1-2-5.92,19.25,19.25,0,0,1,.5-6.23,25.89,25.89,0,0,1,.9-3c.35-1,.82-1.93,1.22-2.89.22-.48.4-1,.65-1.43l.76-1.37a26.93,26.93,0,0,1,1.61-2.69c.6-.86,1.14-1.76,1.79-2.58l1.95-2.46c1.39-1.56,2.77-3.13,4.28-4.58,3-2.94,6.14-5.68,9.37-8.34,6.44-5.33,13.1-10.46,18.78-16.62s9.95-13.49,16-19.28a24.2,24.2,0,0,1,10.71-6.28c4.08-1.11,8.39-.09,12.45-1.26s7.45-3.75,10.86-6.13l10.25-7.24,20.5-14.49,10.25-7.24c3.41-2.42,6.87-4.78,10.18-7.34a50,50,0,0,0,9-8.67,25.67,25.67,0,0,0,5.07-11.32c.81-4.08,1-8.34,2.71-12.23s4.5-7.07,7.15-10.28a45.88,45.88,0,0,0,6.8-10.48c1.79-3.78,3.22-7.72,4.64-11.65a121.93,121.93,0,0,1,4.64-11.66,41.93,41.93,0,0,1,7-10.41A26,26,0,0,1,306.13,275c2-.61,4.1-1.27,6.18-.7a3.91,3.91,0,0,1,2.41,1.93,7.34,7.34,0,0,1,.75,3.05,35.3,35.3,0,0,1-.54,6.24,17.27,17.27,0,0,0-.14,3.13,11.34,11.34,0,0,0,.63,3.05,12.56,12.56,0,0,0,3.46,5.13,10.1,10.1,0,0,0,5.59,2.6Z"/><path d="M162,528.31a6.76,6.76,0,0,1-.71-.89,10.89,10.89,0,0,0-.88-.78,12.51,12.51,0,0,0-1.94-1.35,4.44,4.44,0,0,0-2-.6,1.83,1.83,0,0,0-1.42.57,1.63,1.63,0,0,0-.37,1.29,12,12,0,0,0,.42,2.13c.22.81.48,1.7.67,2.75a10,10,0,0,1,0,3.7,7.67,7.67,0,0,1-.31,1.11,11.38,11.38,0,0,1-.52,1.12A6.21,6.21,0,0,1,153.6,539a11.06,11.06,0,0,1-2.9,1.6,9.4,9.4,0,0,0-1.15.59,10.53,10.53,0,0,0-1,.66,22,22,0,0,0-2,1.66,18.64,18.64,0,0,0-3.26,3.95l-.31.53a1.58,1.58,0,0,0-.16.35.75.75,0,0,0,0,.58c.14.36,1,.56,1.83.43a53.22,53.22,0,0,1,5.55-.42,15.34,15.34,0,0,0,2.69-.41,13.67,13.67,0,0,0,2.52-1c1.66-.78,3.23-1.7,4.95-2.48s3.7-1,5.29-1.56a5.29,5.29,0,0,0,1.1-.51,4.28,4.28,0,0,0,.9-.64,3.34,3.34,0,0,0,.95-1.73,7.79,7.79,0,0,0-.66-4.45,15.9,15.9,0,0,0-1.17-2.19c-.45-.72-1-1.43-1.47-2.1A20.66,20.66,0,0,0,162,528.31Zm3.53-3.84a19.9,19.9,0,0,1,3.53,5,26.89,26.89,0,0,1,1.2,2.69,20.36,20.36,0,0,1,.94,2.86,16,16,0,0,1,.5,3.06,7.79,7.79,0,0,1-.47,3.27,5.85,5.85,0,0,1-2.1,2.72,8.26,8.26,0,0,1-2.94,1.16c-2,.37-3.76.27-5.43.71s-3.44,1.19-5.14,1.86a23.44,23.44,0,0,1-5.33,1.42,27.56,27.56,0,0,0-5.3,1.14,4.87,4.87,0,0,1-1.56.33,2.63,2.63,0,0,1-1.81-.61,2.56,2.56,0,0,1-.84-1.94,3.29,3.29,0,0,1,.13-1l.21-.73a23.5,23.5,0,0,1,2.58-5.31c.53-.83,1.08-1.64,1.69-2.43a12.64,12.64,0,0,1,1-1.21c.36-.39.7-.75,1-1.12a11,11,0,0,0,1.25-2,5.36,5.36,0,0,1,.32-.58.18.18,0,0,1,.08-.11c0-.05,0-.14.1-.2a7,7,0,0,0,.37-1.76c.1-.77.14-1.71.24-2.71a16.14,16.14,0,0,1,.59-3.34c.11-.32.24-.63.37-.93a9.27,9.27,0,0,1,.51-.92A9.06,9.06,0,0,1,152,523a7,7,0,0,1,.81-.65,6.3,6.3,0,0,1,3.7-1.08,13.9,13.9,0,0,1,3.31.49,17.2,17.2,0,0,1,3,1.08c.47.23.93.49,1.39.76A5,5,0,0,1,165.57,524.47Z"/><path d="M348.8,285.12a4.38,4.38,0,0,0-1,2.12,2.57,2.57,0,0,0,0,.55c0,.18,0,.39.06.36a2.1,2.1,0,0,0,.64.12,3.85,3.85,0,0,0,1.92-.74,9.81,9.81,0,0,0,.93-.7c.27-.26.62-.41.9-.66a4,4,0,0,0,1.19-1.76,2.79,2.79,0,0,0,.13-1c0-.12,0-.14-.09-.21a1.52,1.52,0,0,0-.42-.17,3.65,3.65,0,0,0-2.22.52A5.35,5.35,0,0,0,348.8,285.12Zm-.35-.35c.73-.5,1.32-1.14,2-1.66a4.29,4.29,0,0,1,2.61-1,2.16,2.16,0,0,1,.82.19,1.39,1.39,0,0,1,.68.77,3.5,3.5,0,0,1,.12,1.58,5.58,5.58,0,0,1-1.2,2.73,4.47,4.47,0,0,1-1,1.05,11.62,11.62,0,0,1-1.24.68,4.92,4.92,0,0,1-3,.55,2.82,2.82,0,0,1-.8-.28,1.52,1.52,0,0,1-.75-.77,1.72,1.72,0,0,1-.05-.91,4.2,4.2,0,0,1,.17-.72A5.09,5.09,0,0,1,348.45,284.77Z"/><path d="M395.51,111.35a3,3,0,0,1,1.37.42,4.16,4.16,0,0,1,.89.72,7.06,7.06,0,0,1,1.15,1.62,13.71,13.71,0,0,1,1,3.44l.42,1.65c.07.29.13.53.19.86a3.57,3.57,0,0,1,0,1.09,2.16,2.16,0,0,1-.48,1.11,1.52,1.52,0,0,1-1.19.55,3.74,3.74,0,0,1-1.78-.7,13.85,13.85,0,0,1-4.93-4.66,4.55,4.55,0,0,1-.59-1.73,3.65,3.65,0,0,1,.46-1.93,5.06,5.06,0,0,1,1.21-1.57A3.32,3.32,0,0,1,395.51,111.35Zm-.19,2.38a1.41,1.41,0,0,0-.92.14,5.13,5.13,0,0,0-1.18.76,2.46,2.46,0,0,0-.79,1.14,2.68,2.68,0,0,0,.13,1.52,6.45,6.45,0,0,0,2,2.58,9.3,9.3,0,0,0,2.89,1.6,2.73,2.73,0,0,0,1.39.27.28.28,0,0,0,.24-.22.93.93,0,0,0,.06-.45,2.7,2.7,0,0,0-.18-.58l-.34-.72c-.24-.52-.46-1-.71-1.53a20,20,0,0,0-1.21-2.88,13,13,0,0,0-.81-1.12,4.25,4.25,0,0,0-.37-.37C395.4,113.78,395.4,113.76,395.32,113.73Z"/></svg>