<svg id="Layer_1" data-name="Layer 1" xmlns="http://www.w3.org/2000/svg" viewBox="0 0 600 600"><defs><style>.cls-1{fill:#231f20;}</style></defs><title>papanewguinea</title><g id="medium_islands" data-name="medium islands"><path class="cls-1" d="M336.57,265c-3.7.34-7.4.7-11.14.74a40.4,40.4,0,0,1-11.19-1.26,35.24,35.24,0,0,0-5.31-1.08,7.62,7.62,0,0,0-4.73.93,3.89,3.89,0,0,0-2.17,3.3A4.62,4.62,0,0,0,304.1,271a9.63,9.63,0,0,0,2,1.17c.76.33,1.58.63,2.45,1a19.31,19.31,0,0,1,5.54,2.78c3.55,2.77,5.37,6.43,7.42,9.11a14.47,14.47,0,0,0,1.53,1.79,11.85,11.85,0,0,0,1.71,1.41,6.16,6.16,0,0,0,3.41,1.24,3.38,3.38,0,0,0,1.38-.34,16.59,16.59,0,0,0,2-1.2,18.43,18.43,0,0,1,2.9-1.65,7.82,7.82,0,0,1,2.26-.59,6.08,6.08,0,0,1,2.8.37,6.39,6.39,0,0,1,2.24,1.48,11.63,11.63,0,0,1,1.16,1.41,10.1,10.1,0,0,0,.66.8,5.15,5.15,0,0,0,.68.64A9.82,9.82,0,0,0,348,292.2c3,.8,6.59.71,10.21.64a145.85,145.85,0,0,0,21.71-2.64c3.62-.67,7.27-1.46,10.86-2.23a15.12,15.12,0,0,0,4.77-1.76,5.49,5.49,0,0,0,2.55-3.68,41.7,41.7,0,0,0,.39-5.39,13.31,13.31,0,0,1,.52-3,11.21,11.21,0,0,1,1.38-2.77,11.82,11.82,0,0,1,4.63-3.9,10.44,10.44,0,0,1,6-.92c2,.32,3.77,1,5.42,1.2a9.29,9.29,0,0,0,4.79-.72,9.92,9.92,0,0,0,5.88-7.24,20.78,20.78,0,0,0-.12-5.13,26.49,26.49,0,0,1-.18-6,9.39,9.39,0,0,1,1.1-3.37l.52-.79c.19-.25.41-.48.62-.71a7.88,7.88,0,0,1,1.38-1.19c.93-.63,1.74-1,2.28-1.48a6.89,6.89,0,0,0,1.44-1.51c1.67-2.36,2.27-5.78,2.25-9.1A36.45,36.45,0,0,0,435,220.47a13.57,13.57,0,0,0-2-4,8,8,0,0,0-.6-.66.62.62,0,0,1-.19-.12l-.09-.08-.16-.05c-.1,0-.21-.09-.31-.15a3,3,0,0,0-.41-.11c-.14,0-.28-.09-.43-.12l-.52-.07a21.07,21.07,0,0,0-4.76,0c-1.7.16-3.46.45-5.24.77l-5.49,1c-.49.08-1,.17-1.47.24l-1.44.18a2.41,2.41,0,0,0-1.1.27,1.43,1.43,0,0,0-.33.55,3.81,3.81,0,0,0-.2,1.35,5,5,0,0,0,.08.77c.06.3.15.62.25,1,.21.68.51,1.44.86,2.29s.74,1.78,1.08,2.85a19,19,0,0,1,.77,3.36,19.5,19.5,0,0,1-.35,6.85c-.13.56-.29,1.12-.47,1.67a13.88,13.88,0,0,1-.69,1.74,8.7,8.7,0,0,1-1.34,2,6.92,6.92,0,0,1-2.38,1.74,8.15,8.15,0,0,1-2.55.64,12.75,12.75,0,0,1-2,0,21.32,21.32,0,0,0-2.36-.13,5.64,5.64,0,0,0-3.08,1.18,13.84,13.84,0,0,0-3,3.14c-.44.64-.85,1.31-1.25,2s-.82,1.53-1.23,2.34c-.83,1.63-1.68,3.38-2.77,5.16a20.7,20.7,0,0,1-4.2,5.1,15.71,15.71,0,0,1-6.17,3.25,16.39,16.39,0,0,1-13.19-1.95l-.42-.26-.21-.26a7.93,7.93,0,0,1-1.54-2.74,8.81,8.81,0,0,1-.4-2.84,16.1,16.1,0,0,1,.88-4.69c.22-.7.47-1.36.71-2l.34-.89L366,250a11.62,11.62,0,0,0,.51-3.26,3.49,3.49,0,0,0-.78-2.36,2.22,2.22,0,0,0-1-.62,4.2,4.2,0,0,0-1.41-.17,7.81,7.81,0,0,0-3.19.84,6,6,0,0,0-2.3,2.33c-1.15,2.08-1.57,4.75-2.11,7.38a30,30,0,0,1-1,4,8.72,8.72,0,0,1-6,5.65,18.21,18.21,0,0,1-4,.81C341.91,264.83,339.22,264.82,336.57,265Zm-.07-.7c2.7-.26,5.39-.23,8-.6s5.26-1.08,7-2.86a7.82,7.82,0,0,0,1.8-3.2,23.81,23.81,0,0,0,.68-3.85c.15-1.32.27-2.67.49-4a15.89,15.89,0,0,1,1.15-4.16,8.78,8.78,0,0,1,2.92-3.65,10.88,10.88,0,0,1,4.38-1.7,7.79,7.79,0,0,1,2.59,0,6,6,0,0,1,2.58,1.2,6.31,6.31,0,0,1,1.77,2.26,9.71,9.71,0,0,1,.73,2.52,14.81,14.81,0,0,1-.17,4.72c-.07.38-.14.75-.24,1.12l-.27,1c-.16.63-.32,1.25-.45,1.84a10.93,10.93,0,0,0-.29,3.24A2.64,2.64,0,0,0,370,260l-.63-.51a10.66,10.66,0,0,0,8.29.56,9.83,9.83,0,0,0,3.5-2.06,15.66,15.66,0,0,0,2.69-3.58c.81-1.41,1.55-3,2.35-4.72.4-.85.82-1.72,1.28-2.62a31,31,0,0,1,1.64-2.74,20.71,20.71,0,0,1,4.6-4.94,12.87,12.87,0,0,1,7.16-2.7,24.28,24.28,0,0,1,3.19.13,3.25,3.25,0,0,0,1,0,.52.52,0,0,0-.15.11,1.52,1.52,0,0,0,.17-.3,7.15,7.15,0,0,0,.34-.84c.11-.33.21-.66.3-1a12.11,12.11,0,0,0,.25-4.2,12.25,12.25,0,0,0-.42-2.07c-.21-.71-.51-1.49-.85-2.37s-.7-1.85-1-3a14.78,14.78,0,0,1-.4-1.74,12.08,12.08,0,0,1-.16-2,10.73,10.73,0,0,1,.8-4.08,8.15,8.15,0,0,1,3.07-3.75,7.8,7.8,0,0,1,2.29-1,12.42,12.42,0,0,1,1.89-.32l1.33-.13c.4,0,.85-.11,1.28-.17l5.48-.83c1.88-.28,3.79-.54,5.79-.66a27.38,27.38,0,0,1,6.34.2l.85.16c.3.07.61.18.91.27s.59.17.91.31l.94.46.46.24.47.35c.31.24.61.48.9.74a14.65,14.65,0,0,1,1.22,1.45,19.16,19.16,0,0,1,2.71,6,38.17,38.17,0,0,1,1.21,11.93,25.24,25.24,0,0,1-1,6.09,16.43,16.43,0,0,1-3,5.79,11.59,11.59,0,0,1-2.58,2.3c-1,.64-1.86,1-2.49,1.39a3.84,3.84,0,0,0-.77.56c-.11.11-.23.2-.33.31a3,3,0,0,1-.27.35,5.5,5.5,0,0,0-.74,1.84,22.9,22.9,0,0,0-.17,5.12,24.06,24.06,0,0,1-.31,6,12.07,12.07,0,0,1-2.93,5.55,13.77,13.77,0,0,1-5.07,3.46,11.78,11.78,0,0,1-6.11.69c-2-.34-3.74-1.1-5.4-1.35a9,9,0,0,0-8.61,3.83,9.21,9.21,0,0,0-1.07,2.21,10.29,10.29,0,0,0-.4,2.48,46.12,46.12,0,0,1-.27,5.71,8.44,8.44,0,0,1-1.13,3,8.11,8.11,0,0,1-2.25,2.34,18.49,18.49,0,0,1-5.49,2.4c-3.6,1.05-7.15,2.05-10.76,3.05a134.72,134.72,0,0,1-22.18,4.49c-.95.09-1.9.18-2.86.24s-1.92.13-2.92.13a28.73,28.73,0,0,1-6.17-.58,15.21,15.21,0,0,1-6.26-2.77,12.18,12.18,0,0,1-1.37-1.23,13,13,0,0,1-1.12-1.33,8.07,8.07,0,0,0-.61-.73c-.12-.12-.06,0-.06-.05s.12,0,.07,0a1.51,1.51,0,0,0-.41.13,16.56,16.56,0,0,0-1.93,1.11,21.41,21.41,0,0,1-2.81,1.6,9.39,9.39,0,0,1-4,.85,12.12,12.12,0,0,1-6.86-2.57,18.87,18.87,0,0,1-4.4-4.82c-2.15-3.37-3.56-6.63-5.78-8.68a16.27,16.27,0,0,0-4.17-2.57c-.83-.41-1.71-.84-2.6-1.36a12.89,12.89,0,0,1-2.6-1.93,9.66,9.66,0,0,1-2-2.71,6.55,6.55,0,0,1-.68-3.54,5.93,5.93,0,0,1,1.4-3.3,7.5,7.5,0,0,1,2.66-2,10,10,0,0,1,6.1-.69,37.47,37.47,0,0,1,5.47,1.6,35,35,0,0,0,10.78,1.78A97.72,97.72,0,0,0,336.5,264.33Z"/><path class="cls-1" d="M393.29,156.63a5.49,5.49,0,0,0-3.34-1.48,2.44,2.44,0,0,0-1.53.66,1.59,1.59,0,0,0-.41,1.49,5.76,5.76,0,0,1,.08,1.07,3.67,3.67,0,0,1-.28,1.14,15.33,15.33,0,0,1-1,1.82,3.41,3.41,0,0,0-.61,1.52,1.47,1.47,0,0,0,.51,1.16,4.57,4.57,0,0,0,1.38.81,16.39,16.39,0,0,0,1.79.58c1.3.37,2.59.77,3.88,1.2a67.69,67.69,0,0,1,7.63,3,69.23,69.23,0,0,1,7.14,4.09c2.28,1.52,4.4,2.93,6.66,4.7.56.45,1.11.93,1.66,1.43s1.1,1.06,1.55,1.55a15,15,0,0,0,2.35,2.24c.77.56,2,1.12,3.21,1.88s2.39,1.49,3.52,2.3a94,94,0,0,1,12.09,10.94c.92,1,1.85,1.88,2.83,2.95a12.9,12.9,0,0,1,2.47,3.77,16.62,16.62,0,0,1,.95,4.23l.49,4c.32,2.65.61,5.34.73,8s.09,5.33.44,7.88a23.76,23.76,0,0,0,.72,3.72,15.87,15.87,0,0,0,1.42,3.38,10.37,10.37,0,0,0,2.17,2.72,8.73,8.73,0,0,0,2.7,1.69,1.18,1.18,0,0,0,.81,0,1.44,1.44,0,0,0,.5-.49,9.35,9.35,0,0,0,1.13-2.84c.57-2.32.85-4.88,1.33-7.61.13-.7.27-1.41.49-2.22.07-.21.13-.42.21-.64s.2-.51.29-.69c.18-.38.36-.73.54-1.06a26.93,26.93,0,0,0,1.72-3.21,9.27,9.27,0,0,0,.18-5.8,20.77,20.77,0,0,0-2.91-6.1c-.33-.48-.67-1-1-1.43a16,16,0,0,0-1.06-1.29,4.72,4.72,0,0,0-.88-.78,2.62,2.62,0,0,0-.77-.33c-.69-.21-1.9-.28-3.53-.57a13,13,0,0,1-2.61-.77,13.79,13.79,0,0,1-2.41-1.27,23.23,23.23,0,0,1-6.34-6.93,47,47,0,0,0-4.12-6,20.58,20.58,0,0,0-2.54-2.32,38.91,38.91,0,0,1-3.21-2.85c-2-2-3.59-4-5.29-5.58-.87-.78-1.87-1.52-2.91-2.32s-2.18-1.67-3.21-2.52c-2.09-1.71-4.07-3.44-6.14-5-1-.79-2.09-1.53-3.18-2.21s-2.2-1.21-3.46-1.87C401.19,163.73,397.47,159.85,393.29,156.63Zm.43-.56c4.21,3.21,8.27,6.82,13.14,8.58,1.16.41,2.54.84,3.8,1.38s2.52,1.1,3.74,1.72c2.43,1.24,4.78,2.59,7.07,3.88,1.15.65,2.27,1.26,3.43,1.86a32.92,32.92,0,0,1,3.67,2.15,68.64,68.64,0,0,1,6.32,5.3c.92.81,1.8,1.43,2.9,2.25a28.3,28.3,0,0,1,3.46,2.9,45.61,45.61,0,0,1,5.13,6.89,17.34,17.34,0,0,0,4.27,4.8,6.63,6.63,0,0,0,1.1.6,4.91,4.91,0,0,0,1.19.37,34.41,34.41,0,0,1,4.28.91,9.81,9.81,0,0,1,2.79,1.42,12.19,12.19,0,0,1,2,1.93c.55.65,1,1.23,1.4,1.83s.83,1.22,1.22,1.85a26.74,26.74,0,0,1,3.46,8.41,15.37,15.37,0,0,1-1,9.79,32.28,32.28,0,0,1-2.25,3.68c-.15.24-.29.47-.41.69l-.11.22-.13.29a16.63,16.63,0,0,0-.52,1.63,78.06,78.06,0,0,1-2.28,7.88,13,13,0,0,1-2.45,4.21,5.35,5.35,0,0,1-2.81,1.6,5.25,5.25,0,0,1-3.09-.4,12.13,12.13,0,0,1-3.74-2.89,15.06,15.06,0,0,1-2.41-3.75,23.9,23.9,0,0,1-1.86-8.22c-.15-2.73-.13-5.4-.2-8a54.23,54.23,0,0,0-.84-7.79c-.21-1.3-.47-2.61-.72-3.9a12.63,12.63,0,0,0-1.09-3.44c-1-1.91-3.14-3.36-5.26-5a127.33,127.33,0,0,0-12.74-8.94c-1.08-.65-2.17-1.26-3.28-1.84s-2.3-1.09-3.73-2a13.78,13.78,0,0,1-2-1.59c-.56-.56-1.05-1.09-1.49-1.56s-.81-.88-1.23-1.29-.87-.81-1.33-1.21c-.93-.8-1.92-1.61-3-2.44l-3-2.52c-2-1.65-4-3.29-6.09-4.74a63.93,63.93,0,0,0-6.6-4.09c-1.15-.62-2.31-1.22-3.5-1.79a9.67,9.67,0,0,1-3.7-2.44,3.15,3.15,0,0,1-.64-2.53,5,5,0,0,1,1-2.05,10.53,10.53,0,0,0,1.09-1.55,2.77,2.77,0,0,0,.26-1.68,3.34,3.34,0,0,1,.12-1.15,2.29,2.29,0,0,1,.65-1,3.21,3.21,0,0,1,2.08-.81A6.35,6.35,0,0,1,393.72,156.07Z"/><path class="cls-1" d="M518.5,262.86a28.59,28.59,0,0,1-2.69-1.5,7.77,7.77,0,0,1-2.33-2.21,7.41,7.41,0,0,1-1.07-3.09,24.12,24.12,0,0,1-.08-3.16,16.85,16.85,0,0,0-.13-2.89,5.44,5.44,0,0,0-.9-2.27,5.07,5.07,0,0,0-1.72-1.48,3.51,3.51,0,0,0-1.89-.43c-1,.15-1.41.75-1.8,2a7.37,7.37,0,0,0-.24,2.11,16.35,16.35,0,0,0,.19,2.49,34.52,34.52,0,0,0,1.32,5.28l.9,2.81.27.81s0,0-.14-.08-.22-.11-.13-.05a10.11,10.11,0,0,1,1.91,1,5,5,0,0,1,1.81,2.77,6.11,6.11,0,0,1,.06,2.65,8.07,8.07,0,0,1-.66,1.95,20.14,20.14,0,0,0-1.14,2.49,11.62,11.62,0,0,0-.55,2.53,13.28,13.28,0,0,0,.6,5.38,13,13,0,0,0,1.11,2.56,11.21,11.21,0,0,0,1.67,2.2,33.33,33.33,0,0,0,4.63,3.69c.84.6,1.66,1.24,2.46,1.84a25.52,25.52,0,0,1,2.5,2,4.61,4.61,0,0,1,1.12,1.64,3.81,3.81,0,0,1,.2,2.17,10.31,10.31,0,0,1-1.28,3.28l-.19.36-.12.24a2.35,2.35,0,0,0-.15.47,3.9,3.9,0,0,0-.07,1,8,8,0,0,0,.61,2.38,22.69,22.69,0,0,0,1.23,2.47,18.26,18.26,0,0,0,1.51,2.27,12.44,12.44,0,0,0,1.76,1.85,9,9,0,0,0,2,1.34c2.76,1.44,6.31,1.57,9.84.94a20,20,0,0,0,4.92-1.44,5.58,5.58,0,0,0,1.52-1,2.9,2.9,0,0,0,.72-1.2,6.52,6.52,0,0,0-.07-3.68,23.75,23.75,0,0,0-2.09-4.71c-1.85-3.49-3.82-6.91-5.86-10.29-.28-.47-.45-.74-.36-.68l.13.08.11.05s0,0,0,0l-.06-.08c0-.05-.19-.11-.66-.13a10.94,10.94,0,0,1-2.09-.19,7,7,0,0,1-2.41-1,7.75,7.75,0,0,1-1.69-1.59,8.62,8.62,0,0,1-1.64-3.79,16.47,16.47,0,0,0-.54-2.55,10.34,10.34,0,0,0-1.35-2.3,18.41,18.41,0,0,1-1.76-2.82,17.53,17.53,0,0,1-1-3.11,21.68,21.68,0,0,0-1.79-5.66,7.93,7.93,0,0,0-1.86-2.18A17.86,17.86,0,0,0,518.5,262.86Zm.32-.62a21.37,21.37,0,0,1,2.69,1.54,9.81,9.81,0,0,1,2.24,2.26,33,33,0,0,1,2.71,5.6,13.29,13.29,0,0,0,1.38,2.46,16.81,16.81,0,0,0,2,1.95,14.66,14.66,0,0,1,2.38,2.49,17.32,17.32,0,0,1,1.58,3.13,3.27,3.27,0,0,0,1.11,1.57,3.39,3.39,0,0,0,.66.33.71.71,0,0,0,.43,0c.13,0,.37-.06.93-.12a7.68,7.68,0,0,1,2.37.05,7.54,7.54,0,0,1,1.37.43l.33.15c.15.08.3.16.44.25a5.24,5.24,0,0,1,.72.55,10.5,10.5,0,0,1,1.5,1.72,105.74,105.74,0,0,1,6.78,10.47,27.29,27.29,0,0,1,2.8,6.38,13.12,13.12,0,0,1-.37,8.27,10.23,10.23,0,0,1-2.66,3.79,12.65,12.65,0,0,1-3.58,2.21,19.62,19.62,0,0,1-3.49,1c-1.11.23-2.2.41-3.33.53a25,25,0,0,1-6.91-.1,16.43,16.43,0,0,1-6.8-2.61,15.17,15.17,0,0,1-4.77-5.36,23.35,23.35,0,0,1-1.42-3.06,27.46,27.46,0,0,1-1-3.18,11.48,11.48,0,0,1-.31-3.61,7,7,0,0,1,.45-1.93,5.74,5.74,0,0,1,.46-.93l.27-.41.2-.29a8,8,0,0,0,1.24-2.21,1.36,1.36,0,0,0,0-.82,2.3,2.3,0,0,0-.53-.88,15.31,15.31,0,0,0-2.1-1.93c-.79-.64-1.55-1.27-2.36-1.85a60.27,60.27,0,0,1-4.95-3.78,15.7,15.7,0,0,1-2.2-2.46,19.37,19.37,0,0,1-1.67-2.84,18.21,18.21,0,0,1-1.8-6.46,15.84,15.84,0,0,1,.1-3.5,24.2,24.2,0,0,1,.81-3.26,4,4,0,0,0,.15-1c0-.17-.06-.33-.12-.36s-.05.12.14.3-.07.07-.87-.2a5.4,5.4,0,0,1-1.44-.81,5.52,5.52,0,0,1-1.13-1.23,10.25,10.25,0,0,1-1-2c-.39-.94-.75-1.92-1.11-2.92a28.25,28.25,0,0,1-1.52-6.52,19.46,19.46,0,0,1,0-3.58,12,12,0,0,1,1-3.81,8,8,0,0,1,2.85-3.44,6.5,6.5,0,0,1,4.6-1,7.55,7.55,0,0,1,3.68,1.84,8.54,8.54,0,0,1,2.2,3.1,8.23,8.23,0,0,1,.55,3.58,23.16,23.16,0,0,1-.48,3.17c-.41,2-.69,3.92.21,5.59a6.23,6.23,0,0,0,1.93,2.07A26.14,26.14,0,0,0,518.82,262.24Z"/></g><g id="small_islands" data-name="small islands"><path class="cls-1" d="M354.19,109a4.9,4.9,0,0,0-2.08-1,3.33,3.33,0,0,0-2.14.58,10.06,10.06,0,0,0-.94.67,2.66,2.66,0,0,0-.74.71,3.4,3.4,0,0,0-.19,1.93,4.77,4.77,0,0,0,.66,1.84,10.79,10.79,0,0,0,1.32,1.61,8.25,8.25,0,0,1,.8,1c.25.39.44.74.62,1a3.27,3.27,0,0,0,.47.67.84.84,0,0,0,.36.26,5.08,5.08,0,0,0,.82.19,9.08,9.08,0,0,1,1.28.31,12.81,12.81,0,0,0,1.79.54,1,1,0,0,0,.39,0A.84.84,0,0,0,357,119a2.11,2.11,0,0,0,.23-.8c0-.38.08-.76.11-1.14a11.72,11.72,0,0,0-.38-4.49A7.22,7.22,0,0,0,354.19,109Zm0,0a9.92,9.92,0,0,1,3.14,3.42,15.55,15.55,0,0,1,1.51,4.57c.08.39.14.79.2,1.18a3.64,3.64,0,0,1,0,1.5,3.21,3.21,0,0,1-.85,1.54,3,3,0,0,1-1.74.81,8.12,8.12,0,0,1-2.75-.34,9.8,9.8,0,0,0-1-.16,6.88,6.88,0,0,1-1.44-.35,3.86,3.86,0,0,1-1.5-1.09,5.74,5.74,0,0,1-.79-1.27,14.8,14.8,0,0,0-.94-1.91,11.14,11.14,0,0,1-1.16-2.32,6.29,6.29,0,0,1-.24-2.68,6.71,6.71,0,0,1,.3-1.27,3.18,3.18,0,0,1,.7-1.21,3.34,3.34,0,0,1,1.1-.69c.35-.17.72-.33,1.09-.48a4,4,0,0,1,2.34-.32A5.8,5.8,0,0,1,354.19,109Z"/><path class="cls-1" d="M365.67,121.49c-.28-.26-.51-.56-.79-.81a1.46,1.46,0,0,0-.93-.45c-.64,0-1.08.7-1.23,1.27a3.88,3.88,0,0,0,0,1.76l.09.44c0,.06,0,.21,0,.1a1,1,0,0,0-.3-.58c-.13-.12-.15-.12-.08-.1l.17.06a2.12,2.12,0,0,0,.36.1,14.73,14.73,0,0,0,1.8.33l1.09.15c.4,0,.67.13.86.14a1.9,1.9,0,0,0,.7-.23c.15-.06.1-.43-.13-.71A8.48,8.48,0,0,0,365.67,121.49Zm0,0c.59.47,1.3.72,2,1.17a2.25,2.25,0,0,1,.49.45,1,1,0,0,1,.21.82,2.33,2.33,0,0,1-.87,1.31,5.43,5.43,0,0,1-1.34.62,9.82,9.82,0,0,1-1.16.34,5.74,5.74,0,0,1-2.7,0,4.61,4.61,0,0,1-.71-.25,2.81,2.81,0,0,1-.35-.17,2.46,2.46,0,0,1-.56-.39,1.81,1.81,0,0,1-.56-1.07,2.48,2.48,0,0,1,0-.46,5.43,5.43,0,0,1,.09-.69,4.59,4.59,0,0,1,1.32-2.51,3.51,3.51,0,0,1,1.19-.73,2,2,0,0,1,1.35-.08C364.88,120.19,365.11,121,365.67,121.49Z"/><path class="cls-1" d="M267.44,131.88a36.74,36.74,0,0,0-5.34-.43,32.56,32.56,0,0,0-5.31.48,25.08,25.08,0,0,0-2.6.58,6.22,6.22,0,0,0-2.27,1,2.06,2.06,0,0,0-.65.87,2.31,2.31,0,0,0-.09,1.07,6.24,6.24,0,0,1,.06,1.48,2.24,2.24,0,0,1-.3.89,2.78,2.78,0,0,1-.57.67,4.61,4.61,0,0,0-.83.85,3.15,3.15,0,0,0-.43,1,3.45,3.45,0,0,0,.08,2,2.54,2.54,0,0,0,1.2,1.39,3.34,3.34,0,0,0,1.85.31,2.48,2.48,0,0,0,1.56-.77,13.37,13.37,0,0,1,1.06-1,4.88,4.88,0,0,1,1.64-.86,8.38,8.38,0,0,1,3.22-.24,26.71,26.71,0,0,1,2.82.48c1.81.42,3.5,1,5.16,1.31a22.24,22.24,0,0,0,2.43.39,4,4,0,0,0,2-.26,10.36,10.36,0,0,0,1.07-.52c.38-.21.77-.42,1.07-.61a2.93,2.93,0,0,0,.73-.61,1.3,1.3,0,0,0,.21-.35l.25-.62a2.93,2.93,0,0,1,1.32-1.5,4,4,0,0,1,1.66-.41,7.17,7.17,0,0,0,2.35-.28,2.32,2.32,0,0,0,1.23-1.59,4.32,4.32,0,0,0-.1-2.36,3.27,3.27,0,0,0-1.43-1.84,4.35,4.35,0,0,0-2.47-.33c-.87.09-1.73.33-2.62.49a11.53,11.53,0,0,1-2.69.18A39.12,39.12,0,0,1,267.44,131.88Zm0,0a39.52,39.52,0,0,0,5.3.74,9,9,0,0,0,2.63-.32c.86-.21,1.71-.5,2.61-.66a5.27,5.27,0,0,1,2.8.16,4,4,0,0,1,2,2.1,5.41,5.41,0,0,1,.44,2.91,3.66,3.66,0,0,1-1.68,2.69,8.09,8.09,0,0,1-2.86.76,2.33,2.33,0,0,0-.9.31,1,1,0,0,0-.33.55l-.19.64a3.56,3.56,0,0,1-.4.84,5.13,5.13,0,0,1-1.18,1.26c-.41.32-.8.58-1.18.83a9.74,9.74,0,0,1-1.29.75,6.33,6.33,0,0,1-1.59.53,8.25,8.25,0,0,1-1.61.13,17.62,17.62,0,0,1-2.88-.32c-1.84-.35-3.58-.85-5.26-1.22a10.35,10.35,0,0,0-4.55-.4,3.55,3.55,0,0,0-1.64,1.13,5.23,5.23,0,0,1-3.24,1.35,5.38,5.38,0,0,1-3.28-.89,4.75,4.75,0,0,1-2-2.79,5.31,5.31,0,0,1,.22-3.23,5,5,0,0,1,.85-1.38,5.71,5.71,0,0,1,1.15-1,1.08,1.08,0,0,0,.51-.65,5.42,5.42,0,0,0,.07-1.21,3.27,3.27,0,0,1,.34-1.54,3.22,3.22,0,0,1,1.06-1.16,6.93,6.93,0,0,1,2.66-1c.89-.15,1.79-.26,2.68-.36a37.13,37.13,0,0,1,5.37-.18A35.4,35.4,0,0,1,267.44,131.88Z"/><path class="cls-1" d="M288,147.62a.66.66,0,0,0,.38.63c.24.11.49.19.74.29a9.21,9.21,0,0,0,1.48.5,2.25,2.25,0,0,0,2.45-.64c.14-.17.28-.39.5-.64a2.22,2.22,0,0,1,1.05-.7l.19,0,.07,0,.08-.05.14-.11a1.91,1.91,0,0,0,.3-1.84,3.09,3.09,0,0,0-1.3-1.36,3.69,3.69,0,0,0-1.07-.43,1.76,1.76,0,0,0-1,0,1.92,1.92,0,0,0-.89.88,4.45,4.45,0,0,1-.91,1.41,7.24,7.24,0,0,1-1.37.86A1.43,1.43,0,0,0,288,147.62Zm0,0a1.59,1.59,0,0,1,.76-1.32,4.52,4.52,0,0,0,1.12-1.05,3.76,3.76,0,0,0,.37-1.44,3.31,3.31,0,0,1,.79-1.75,3.24,3.24,0,0,1,1.91-1,5,5,0,0,1,2,.1,4.87,4.87,0,0,1,1.85.92,4.24,4.24,0,0,1,1.37,1.86,4,4,0,0,1,.11,2.33,3.88,3.88,0,0,1-1.17,2A3.19,3.19,0,0,1,296,149a4.47,4.47,0,0,1-.61.14l-.3,0H295v0c0-.14-.49.1-1,.44a2.9,2.9,0,0,1-1.91.41,4.81,4.81,0,0,1-1.63-.53c-.48-.25-.93-.54-1.39-.79l-.7-.37A.66.66,0,0,1,288,147.62Z"/><path class="cls-1" d="M374.1,150.4a8,8,0,0,0-2.81-1.61,12.15,12.15,0,0,0-3.24-.22,8.24,8.24,0,0,0-3.08.6,6.35,6.35,0,0,0-2.32,1.92,9.8,9.8,0,0,0-.9,1.19,1,1,0,0,0-.15.44.25.25,0,0,0,.08.17,3,3,0,0,0,.8.6c.39.21.87.4,1.4.66a6.4,6.4,0,0,1,1.68,1.11,5.37,5.37,0,0,1,1.2,1.82,11.1,11.1,0,0,0,1.09,2.55,3.82,3.82,0,0,0,2.09.85c1,.23,2.19.56,3.06.74a4.15,4.15,0,0,0,1.2.06,5,5,0,0,0,1.28-.41c.44-.21.95-.46,1.41-.7a5.49,5.49,0,0,0,1.18-.78c1.32-1.15,1.1-3.81,1.26-5.81,0-1.08-1.24-1.55-2.22-1.91A11.94,11.94,0,0,1,374.1,150.4Zm0,0a10.2,10.2,0,0,0,3,1.17,8.32,8.32,0,0,1,1.55.58,2,2,0,0,1,1.05,1.36,9.81,9.81,0,0,1,.16,1.67c0,.53.12,1.08.14,1.65a5.2,5.2,0,0,1-.83,3.54,7.1,7.1,0,0,1-1.32,1.31c-.47.36-.87.69-1.38,1a7.18,7.18,0,0,1-1.73.87,5.65,5.65,0,0,1-2,.23c-1.3-.1-2.27-.31-3.37-.48a10.62,10.62,0,0,1-1.81-.43,4.58,4.58,0,0,1-2-1.32,9.86,9.86,0,0,1-1.49-3.43,3.09,3.09,0,0,0-.49-.95,4.43,4.43,0,0,0-1-.79c-.43-.27-.93-.58-1.45-1a4.2,4.2,0,0,1-1.42-1.74,2.23,2.23,0,0,1,0-1.44,3.1,3.1,0,0,1,.58-1,10.93,10.93,0,0,1,1.32-1.21,7.77,7.77,0,0,1,3.07-1.7,9.93,9.93,0,0,1,3.38-.16,15.73,15.73,0,0,1,3.26.53A9.08,9.08,0,0,1,374.1,150.4Z"/><path class="cls-1" d="M386.89,171a13.18,13.18,0,0,1-1.44,1,2.69,2.69,0,0,1-.85.3c-.29,0-.7,0-.69.11-.27.83,1.16,1.69,1.85,1.66a11.2,11.2,0,0,0,1.48-.36,14.58,14.58,0,0,1,1.85-.31,23.55,23.55,0,0,1,3.55-.05l1.66.09.41,0c.08,0,.07,0,0,0a1.17,1.17,0,0,0-.58.38.79.79,0,0,0-.2.44s0,0,0,0a.33.33,0,0,0,0-.14.73.73,0,0,0-.27-.72c-.29-.3-.93-.7-1.38-1.21a7.74,7.74,0,0,1-1.08-1.53,1.84,1.84,0,0,0-1.21-.85A4.59,4.59,0,0,0,386.89,171Zm0,0a6.76,6.76,0,0,1,3.15-1.6,2.67,2.67,0,0,1,1.85.64,6.59,6.59,0,0,0,1.35,1c.45.24.9.3,1.59.61a3.26,3.26,0,0,1,1,.78,3.08,3.08,0,0,1,.65,1.27,2.92,2.92,0,0,1,.09.73,2.89,2.89,0,0,1,0,.4,1.75,1.75,0,0,1-.37.84,1.72,1.72,0,0,1-1,.58,3,3,0,0,1-.47.07l-.47,0a16,16,0,0,1-1.83,0c-1.2-.05-2.33-.22-3.43-.36-.56-.07-1.1-.16-1.65-.19a7.5,7.5,0,0,1-2-.27,2.72,2.72,0,0,1-.95-.6,4.8,4.8,0,0,1-.66-.76,1.74,1.74,0,0,1-.22-2,.59.59,0,0,1,.58-.14,2,2,0,0,0,1.24-.11A7.23,7.23,0,0,0,386.89,171Z"/><path class="cls-1" d="M428.72,155.59a3.56,3.56,0,0,0-1.37-.23,1.79,1.79,0,0,0-1.22.56,3.43,3.43,0,0,0-.72,2.55,14.13,14.13,0,0,1,.15,2.88c-.07.53-.22,1-.29,1.42a4,4,0,0,0,0,1.2,9.37,9.37,0,0,0,.79,2.42c.36.84.74,1.7,1.14,2.43a6.36,6.36,0,0,0,1.36,1.81,3,3,0,0,0,1.61.8,1.8,1.8,0,0,0,1.34-.39,1.19,1.19,0,0,0,.33-1.22,4.42,4.42,0,0,0-1-1.94,8.6,8.6,0,0,1-.94-1.26,3.72,3.72,0,0,1-.51-1.69c0-1.07.06-1.92.07-2.88,0-.25,0-.45,0-.73a1.85,1.85,0,0,1,.24-.82,4,4,0,0,1,1.08-1,1.55,1.55,0,0,0,.23-2.31A4.79,4.79,0,0,0,428.72,155.59Zm0,0a5.52,5.52,0,0,1,2.35,1.49,2.18,2.18,0,0,1,.55,1.32,1.83,1.83,0,0,1-.58,1.36,3.07,3.07,0,0,0-.79,1,1.22,1.22,0,0,0,0,.54c0,.18.07.45.1.67l.24,1.38a10,10,0,0,0,.27,1.31,2,2,0,0,0,.5.9,10.86,10.86,0,0,0,.94.81,6.44,6.44,0,0,1,2,2.66,4.07,4.07,0,0,1,.23,2,3.71,3.71,0,0,1-.95,2,4.48,4.48,0,0,1-3.78,1.36,5.61,5.61,0,0,1-3.28-1.71,7.93,7.93,0,0,1-1.7-2.84,23.52,23.52,0,0,1-.77-2.83,10.48,10.48,0,0,1-.29-3.05,5.23,5.23,0,0,1,.37-1.56c.2-.48.43-.86.56-1.26a11.92,11.92,0,0,0,.31-2.7,4,4,0,0,1,1.06-2.61,2,2,0,0,1,1.29-.52A3.59,3.59,0,0,1,428.72,155.59Z"/><path class="cls-1" d="M451,175.53a4.17,4.17,0,0,0-.22-1.69,2.35,2.35,0,0,0-2.61-1.37,3.66,3.66,0,0,0-1.31.76,5,5,0,0,1-.86.51,2.54,2.54,0,0,0-.64.36c-.11.15-.07.28-.05.56a6.6,6.6,0,0,0,1.3,2.1,17.18,17.18,0,0,1,1.72,3.15c.22.53.45,1.25.48,1.35s0,.11.05.17a.46.46,0,0,0,.33,0,.34.34,0,0,0,.14-.05l.29-.36.58-.65a1.89,1.89,0,0,0,.37-.62,7.16,7.16,0,0,0,.15-.82A30.86,30.86,0,0,0,451,175.53Zm0,0a30.52,30.52,0,0,0,.13,3.44c0,.29.08.55.08.91a2.55,2.55,0,0,1-.22,1c-.12.3-.24.57-.34.81l-.13.39a1.75,1.75,0,0,1-.4.6,2.16,2.16,0,0,1-1.28.58,2.06,2.06,0,0,1-1.5-.47,4.75,4.75,0,0,1-.79-.92l-.5-.68-1.91-2.7a12.47,12.47,0,0,1-1-1.61,4.62,4.62,0,0,1-.39-1.12,3.77,3.77,0,0,1,0-1.34,2.92,2.92,0,0,1,.55-1.29,2.58,2.58,0,0,1,1.19-.91,3.83,3.83,0,0,1,1-.17,3.63,3.63,0,0,0,.72-.14,4.91,4.91,0,0,1,1.94-.32,3.21,3.21,0,0,1,1.75.76,2.93,2.93,0,0,1,1,1.47A5.92,5.92,0,0,1,451,175.53Z"/><path class="cls-1" d="M472.51,184.87a2.6,2.6,0,0,0-2.13-1.12,2.14,2.14,0,0,0-1.82,1.37c-.4.73-.77,1.5-1.26,2.27a5.34,5.34,0,0,1-2.18,2c-.43.2-.61.37-.52.38s.08.09.14.19a3.17,3.17,0,0,0,1.15.75,9.52,9.52,0,0,0,4.08.85l-1.06.69c0,.05,0,.06.06,0a1.18,1.18,0,0,0,0-.44c-.09-.38-.4-.92-.62-1.65a2.16,2.16,0,0,1,.09-1.58,1.39,1.39,0,0,1,.84-.67,1.53,1.53,0,0,1,.85,0,1.82,1.82,0,0,1,1,.8c.2.29.31.55.43.75a1,1,0,0,0,.39.38.31.31,0,0,0,.4-.11,3.64,3.64,0,0,0,.52-1.51A4.2,4.2,0,0,0,472.51,184.87Zm0,0a5.1,5.1,0,0,1,.63,3.32,4.65,4.65,0,0,1-.26,1.8,1.11,1.11,0,0,1-.41.46,1.08,1.08,0,0,1-.65.13,1.86,1.86,0,0,1-1-.5c-.26-.23-.45-.47-.63-.6s-.27-.15-.36-.13-.05.05,0,.05a.31.31,0,0,0,.21-.11c.09-.16.08-.07.2.08.2.34.57.74.95,1.39a3.39,3.39,0,0,1,.41,1.21,2.67,2.67,0,0,1-.26,1.62l-.3.57-.76.12a8.67,8.67,0,0,1-5.72-1,5.78,5.78,0,0,1-1.3-1,3.31,3.31,0,0,1-1-1.78,2.62,2.62,0,0,1,.57-2.21,2.35,2.35,0,0,1,.94-.63,3.4,3.4,0,0,1,.72-.18c1.3-.13,2.51-1.46,3.61-2.74a4.45,4.45,0,0,1,1-.88,2.12,2.12,0,0,1,1.29-.29A3,3,0,0,1,472.51,184.87Z"/><path class="cls-1" d="M481.77,207.46a11.08,11.08,0,0,0-3.16.54,1.73,1.73,0,0,0-1,.92,2.39,2.39,0,0,0,.06,1.31l.32,1.62a5.25,5.25,0,0,0,.32,1.35c.16.32.22.25.32.28a4.29,4.29,0,0,0,.92.09h.36c.11,0,0,0-.2.08s-.34.28-.32.27l.09-.14a1.42,1.42,0,0,0,.17-.39,9.23,9.23,0,0,1,.23-.91,2.45,2.45,0,0,1,.92-1.32,2.27,2.27,0,0,1,1.45-.37,3.88,3.88,0,0,1,.93.19,2.26,2.26,0,0,0,.55.13.91.91,0,0,0,.29,0c.07,0,.17-.29.21-.53a3,3,0,0,0,0-1.48,2.35,2.35,0,0,0-.88-1.25A2.51,2.51,0,0,0,481.77,207.46Zm0,0a3,3,0,0,1,1.59.3,3.16,3.16,0,0,1,1.21,1.17,4.15,4.15,0,0,1,.57,1.67,2.09,2.09,0,0,1-.06,1.06,1.63,1.63,0,0,1-1,.91,3.52,3.52,0,0,1-1.06.22,4,4,0,0,0-.69.1c-.16.05-.16.13-.07.12s.14-.07.13.07,0,.36,0,.69a3.93,3.93,0,0,1-.26,1.17,3.73,3.73,0,0,1-.28.57,2,2,0,0,1-.9.83,2.6,2.6,0,0,1-1,.22h-.46a4.55,4.55,0,0,1-2.23-.52,3,3,0,0,1-1.07-1,3.09,3.09,0,0,1-.42-1.24,6.75,6.75,0,0,1,.11-1.88l.27-1.63a3.63,3.63,0,0,1,.68-1.82,2.57,2.57,0,0,1,1.65-.83C479.62,207.45,480.69,207.56,481.77,207.46Z"/><path class="cls-1" d="M440.07,212.38a16.4,16.4,0,0,0-.77,1.81c-.21.56-.75,1.51-.36,1.44a5,5,0,0,0,1.14.4c.23,0,.44.08.65.1l.31,0h.23a.69.69,0,0,0-.32.13c-.13.09-.12.16-.11.15a.68.68,0,0,0,.24-.36c.1-.22.2-.56.31-.88l.36-.95c.24-.57.46-1.13.1-1.57a1.47,1.47,0,0,0-.83-.34A1.8,1.8,0,0,0,440.07,212.38Zm0,0a3.06,3.06,0,0,1,1-.15,2.62,2.62,0,0,1,1.05.11,2.66,2.66,0,0,1,1.18,2l.24,1a5.26,5.26,0,0,1,.16,1.07,2.93,2.93,0,0,1-.31,1.49,2.33,2.33,0,0,1-.75.87,2.38,2.38,0,0,1-1.25.4,4.63,4.63,0,0,1-.73-.07,3.46,3.46,0,0,1-.65-.18,4,4,0,0,1-1.15-.63,4.15,4.15,0,0,1-.89-1,2.62,2.62,0,0,1-.47-1.47,1.42,1.42,0,0,1,.27-.83,1.94,1.94,0,0,1,.47-.43A4.88,4.88,0,0,0,439,214,7.26,7.26,0,0,0,440.07,212.38Z"/><path class="cls-1" d="M496.83,222.28a2.17,2.17,0,0,0-1.34-1.41,1.78,1.78,0,0,0-1.8.34,4.6,4.6,0,0,0-1.15,1.51,1.49,1.49,0,0,0-.14.77.77.77,0,0,0,.27.48,16.83,16.83,0,0,1,1.62,1.19,3.84,3.84,0,0,1,1.29,2.51,3.52,3.52,0,0,1-.27,1.53l-.36.92c-.07.22-.05.3,0,.32a.48.48,0,0,0,.1.22,1.78,1.78,0,0,0,.86.59,6,6,0,0,0,1.41.37l.33,0c.08,0,.21-.11.33-.31a6.47,6.47,0,0,0,.6-1.65,4.29,4.29,0,0,0-.54-3.6c-.2-.25-.46-.49-.68-.78a2,2,0,0,1-.36-1A19.59,19.59,0,0,0,496.83,222.28Zm0,0c.18.66.08,1.36.23,2a1.74,1.74,0,0,0,.44.85c.23.24.52.41.79.64a5.7,5.7,0,0,1,1.75,4,7.29,7.29,0,0,1-.14,2.34,3,3,0,0,1-.79,1.36,2.86,2.86,0,0,1-1.55.74,4.62,4.62,0,0,1-1.38,0A8,8,0,0,1,495,234a4.33,4.33,0,0,1-2.44-1.67,3.37,3.37,0,0,1-.58-1.67,3.51,3.51,0,0,1,.33-1.66c.42-.82.68-1.19.72-1.35a1.48,1.48,0,0,0-.3-1.14,6.58,6.58,0,0,0-.52-.73,5.67,5.67,0,0,1-.73-1,2.12,2.12,0,0,1-.23-1.45,2.69,2.69,0,0,1,.56-1.12,5.76,5.76,0,0,1,1.68-1.38,2.18,2.18,0,0,1,2.07-.09A2.34,2.34,0,0,1,496.83,222.28Z"/><path class="cls-1" d="M343.77,231.05a1.93,1.93,0,0,0-1.42.36,6.19,6.19,0,0,0-1.06,1.05,2.41,2.41,0,0,0-.58,1.22,3.83,3.83,0,0,0,.19,1.3,1.09,1.09,0,0,0,.24.47.77.77,0,0,0,.29.17.88.88,0,0,0,.64,0c.2-.11,0,0,.57-.49a2.86,2.86,0,0,1,1.35-.56,2.9,2.9,0,0,1,1.56.28,3.51,3.51,0,0,1,.89.69c.06.05,0,0,0,0s0,0,0,0a2.08,2.08,0,0,0,.43.1,1.16,1.16,0,0,1,.45.08c-.07.09.1.14.26-.06a1,1,0,0,0,.17-.85,3.76,3.76,0,0,0-.51-1.19,4,4,0,0,0-.49-.54,4.17,4.17,0,0,1-.52-.62A3.57,3.57,0,0,0,343.77,231.05Zm0,0a5.36,5.36,0,0,1,2.79,1.18,8.24,8.24,0,0,0,1.31.78,4.89,4.89,0,0,1,1.27,1.22,3.14,3.14,0,0,1,.44.92,2.65,2.65,0,0,1,.06,1.16,2.72,2.72,0,0,1-.5,1.17,2.42,2.42,0,0,1-1.24.83,5.9,5.9,0,0,1-1.06.16,4.08,4.08,0,0,1-1.06-.06,2.72,2.72,0,0,1-1.3-.64c-.29-.27-.36-.3-.28-.25a.15.15,0,0,0,.09,0s.12-.09,0,0a8.24,8.24,0,0,1-.82.46,3,3,0,0,1-1.33.23,3.06,3.06,0,0,1-2.11-1.06,2.53,2.53,0,0,1-.54-1.07,2.94,2.94,0,0,1,0-1,5.09,5.09,0,0,1,.46-1.68,3.67,3.67,0,0,1,1.14-1.23,15,15,0,0,1,1.29-.84A2.22,2.22,0,0,1,343.77,231.05Z"/><path class="cls-1" d="M330.83,239.05a4,4,0,0,0-.94.69,3.71,3.71,0,0,0-.73.88c-.28.65.3,1.12.88,1.56s1.3,1,1.87,1.5c.12.11.21.13.19.09s-.14-.12-.19-.13-.07,0-.05-.07c.18-.1.46-.76,1.1-1.64a3.56,3.56,0,0,1,.61-.62A2.36,2.36,0,0,1,334,241c.09,0,.09.07.14.1s.11,0,.1-.1a1.64,1.64,0,0,0-.45-.83,10.84,10.84,0,0,0-.84-.82,2.4,2.4,0,0,0-1-.5A2,2,0,0,0,330.83,239.05Zm0,0a2.83,2.83,0,0,1,2.35,0l1.15.44a3,3,0,0,1,1.23.78,1.68,1.68,0,0,1,.42,1,2,2,0,0,1-.34,1.14c-.17.27-.31.45-.36.56s-.06.19-.1.32-.16.57-.32,1a3.94,3.94,0,0,1-.9,1.43,2.81,2.81,0,0,1-2.15.82,2.37,2.37,0,0,1-1.3-.5,2.64,2.64,0,0,1-.62-.74c-.4-.72-.7-1.45-1-2.2a4.83,4.83,0,0,1-.43-1.33,1.62,1.62,0,0,1,.4-1.38,7.73,7.73,0,0,1,1-.72A8.74,8.74,0,0,1,330.83,239.05Z"/><path class="cls-1" d="M295.22,258.3a1.47,1.47,0,0,0-.78,1.61,3.59,3.59,0,0,0,1,1.59c.43.53.95.92,1.08.77a1.41,1.41,0,0,1,.38-.07l.34-.05s-.17,0-.4.18l-.06.06a.5.5,0,0,0,.1-.14,5.44,5.44,0,0,0,.25-.69,8,8,0,0,0,.44-1.63,1.85,1.85,0,0,0-.47-1.58A2.07,2.07,0,0,0,295.22,258.3Zm0,0a3.79,3.79,0,0,1,2-.34,2.17,2.17,0,0,1,1,.61,4.21,4.21,0,0,1,.74.94,5.37,5.37,0,0,1,.71,2.28,4,4,0,0,1-.06,1.26,3,3,0,0,1-.27.78,2.7,2.7,0,0,1-.67.83,2.23,2.23,0,0,1-1.33.46,4.88,4.88,0,0,1-.64,0,3.26,3.26,0,0,1-1.52-.57,2.63,2.63,0,0,1-.93-1.28,5.8,5.8,0,0,1-.22-1.12,6.56,6.56,0,0,1,0-2.21A2.27,2.27,0,0,1,295.22,258.3Z"/><path class="cls-1" d="M287.2,262.1a1.77,1.77,0,0,0-1.24-.6,1.69,1.69,0,0,0-1.12.78,6.36,6.36,0,0,0-.88,2.63,7.27,7.27,0,0,0,.21,2.72,4.72,4.72,0,0,0,1.22,2.2c1.28,1.15,3,2,4.55,3.44a8.81,8.81,0,0,1,2,2.64,6.1,6.1,0,0,1,.33.84,7,7,0,0,1,.21.81c0,.19,0,0-.16-.17a.48.48,0,0,0-.26-.15s.44-.1.77-.75l.33-.64c.14-.26.24-.48.42-.76a9,9,0,0,1,1-1.12,2.54,2.54,0,0,0,.64-1.81,9.55,9.55,0,0,0-.44-2.55,11.33,11.33,0,0,0-1-2.55,4.92,4.92,0,0,0-1.85-1.91A15.52,15.52,0,0,1,287.2,262.1Zm0,0a11.15,11.15,0,0,0,4.95,2.68c1.93.69,3.17,2.56,4.06,4.26a10.83,10.83,0,0,1,1.14,2.9,4.81,4.81,0,0,1-.68,3.6c-.36.51-.66.85-.77,1.08s-.14.35-.21.52-.13.33-.27.64a4.54,4.54,0,0,1-1.2,1.64,3.39,3.39,0,0,1-2.34.81,2.51,2.51,0,0,1-1.58-.64,2.43,2.43,0,0,1-.56-.83,3.26,3.26,0,0,1-.18-.62c-.05-.3-.06-.37-.1-.57s-.1-.33-.17-.5a7.61,7.61,0,0,0-1.22-2c-1.06-1.35-2.59-2.56-3.83-4.26a6.1,6.1,0,0,1-.95-3,8.54,8.54,0,0,1,.27-3,7.53,7.53,0,0,1,1.2-2.62,1.77,1.77,0,0,1,1.19-.75A1.79,1.79,0,0,1,287.2,262.1Z"/><path class="cls-1" d="M280,254.8c-.65,0-1,.63-1.23,1.16a1.82,1.82,0,0,0-.18.82c0,.26.14.34.29.51a2.75,2.75,0,0,1,.61.87c.06.15.13.29.19.44l.09.23c0,.08,0,0,.05,0s0-.13-.11-.28a.86.86,0,0,0-.52-.25c-.24,0-.17,0-.05-.1a14,14,0,0,1,1.33-1.08,4.44,4.44,0,0,1,1-.48c.19-.07.37-.12.32,0a.59.59,0,0,0,0,.2c0,.06.05.06.07,0a1,1,0,0,0-.25-1.28A2.78,2.78,0,0,0,280,254.8Zm0,0a9.3,9.3,0,0,1,1.79.43,2.29,2.29,0,0,1,1.55,1.67,1.17,1.17,0,0,1,0,.46,1.35,1.35,0,0,1-.28.59c-.26.3-.36.38-.43.49s-.28.42-.41.62a5,5,0,0,1-1.2,1.51,2.74,2.74,0,0,1-1.67.65,2.05,2.05,0,0,1-1.38-.5,1.91,1.91,0,0,1-.59-1,1.79,1.79,0,0,1-.05-.41l0-.23.07-.46a1.7,1.7,0,0,0,0-.83,2,2,0,0,1,.27-1.27,3.69,3.69,0,0,1,.69-.76A2.66,2.66,0,0,1,280,254.8Z"/><path class="cls-1" d="M268.44,254.57l-.2-1a2.24,2.24,0,0,0-.47-.87,2.55,2.55,0,0,0-3.38-.52l-1.47,1.33a6.76,6.76,0,0,1-.93.68,4.58,4.58,0,0,0-.76.49c-.13.15,0,.08-.05.25a3.52,3.52,0,0,0,0,.65,4.78,4.78,0,0,0,1.32,2.59c.19.21.38.42.6.62l.72.68a4.08,4.08,0,0,1,.49.56,3.48,3.48,0,0,1,.38.67,1.79,1.79,0,0,1,.12.31s0,0,0,.07.41.33.94.27a8,8,0,0,0,1.76-.37,3.12,3.12,0,0,0,1.43-.91,2.25,2.25,0,0,0,.46-1.68,2.44,2.44,0,0,0-.29-.9,3.47,3.47,0,0,1-.47-.92Zm0,0c.1.66.17,1.34.31,2a2.69,2.69,0,0,0,.55.82,3.14,3.14,0,0,1,.5.94,3.05,3.05,0,0,1-.07,2.22,4.46,4.46,0,0,1-1.49,1.78,8.81,8.81,0,0,1-2,1.1,3.34,3.34,0,0,1-2.94-.21,2.55,2.55,0,0,1-.7-.65,4.63,4.63,0,0,1-.37-.57.64.64,0,0,0-.15-.18l-.2-.17c-.19-.15-.54-.4-.8-.65a10.42,10.42,0,0,1-.82-.81,6.1,6.1,0,0,1-1.66-4.7,4.45,4.45,0,0,1,.38-1.33,2.51,2.51,0,0,1,.48-.74,2.33,2.33,0,0,1,.72-.52,5.4,5.4,0,0,1,1.09-.32,6.46,6.46,0,0,0,.84-.29l1.89-.89a3.41,3.41,0,0,1,2.21,0,3.3,3.3,0,0,1,1.65,1.25,2.76,2.76,0,0,1,.41.93Z"/><path class="cls-1" d="M234.69,239.1a1.63,1.63,0,0,0,1.07,1.21,2.76,2.76,0,0,0,1.61,0c.27-.06.54-.14.82-.22.1,0,.15-.11,0-.11a.6.6,0,0,0-.35.16,1,1,0,0,0-.26.34c0,.07,0,0-.05,0a.7.7,0,0,1,0-.14c0-.1,0-.2-.06-.3l-.14-.59-.23-1a1.16,1.16,0,0,0-.17-.41,2.22,2.22,0,0,0-.48-.44,1.06,1.06,0,0,0-1.29,0A1.68,1.68,0,0,0,234.69,239.1Zm0,0a3.13,3.13,0,0,1,.12-1.78,2.29,2.29,0,0,1,1.77-1.24,3.53,3.53,0,0,1,1.17,0,2.84,2.84,0,0,1,1.24.59,3.73,3.73,0,0,1,1.25,2.08,4.32,4.32,0,0,1,.09,1.13,3.68,3.68,0,0,1-.06.56c0,.09,0,.19-.07.29l-.11.4a1.8,1.8,0,0,1-.46.72,1.5,1.5,0,0,1-.72.37,1.65,1.65,0,0,1-.85-.05,9.8,9.8,0,0,1-.9-.39A4.07,4.07,0,0,1,234.69,239.1Z"/><path class="cls-1" d="M228,226.88a5.37,5.37,0,0,0-1.62,2.81,7.81,7.81,0,0,0-.36,3.14c.16,1.11.48,1,1.35,1.35a2.91,2.91,0,0,0,2-.13,2.45,2.45,0,0,0,1.1-1.61c.3-.9.58-2.08.9-3.12a5.33,5.33,0,0,0,.27-1.49,1.35,1.35,0,0,0-.55-1.21,2.44,2.44,0,0,0-1.53-.27A3.2,3.2,0,0,0,228,226.88Zm0,0a4.22,4.22,0,0,1,1.53-.64,3.24,3.24,0,0,1,1.72,0,2.08,2.08,0,0,1,1.26,1.4,6.49,6.49,0,0,1,.34,1.81,25.57,25.57,0,0,1,.15,3.45,5.33,5.33,0,0,1-.53,2,4,4,0,0,1-1.73,1.76,4.7,4.7,0,0,1-4.42-.17,4.6,4.6,0,0,1-.88-.64,3.5,3.5,0,0,1-.78-1,3.21,3.21,0,0,1-.13-2.22,12.08,12.08,0,0,1,1.48-3.18A8.83,8.83,0,0,1,228,226.88Z"/><path class="cls-1" d="M201.09,207.4a1.28,1.28,0,0,0-.34,1.34,1,1,0,0,0,.89.72,10.5,10.5,0,0,0,1.16-.17c.24,0,.53,0,.42-.09h-.13l-.1,0h-.05c-.06,0-.08.07-.12.08-.1.16.09,0,.17-.29a2.61,2.61,0,0,0,.13-1.08,1,1,0,0,0-.68-.94A1.59,1.59,0,0,0,201.09,207.4Zm0,0a3.94,3.94,0,0,1,1.35-.82,2.29,2.29,0,0,1,1.87.43,3.29,3.29,0,0,1,1.25,1.67,2.68,2.68,0,0,1-.45,2.57,2.15,2.15,0,0,1-.69.56,1.24,1.24,0,0,1-.2.1l-.27.1a2.4,2.4,0,0,1-.5.07,2.51,2.51,0,0,1-1.08-.24,4,4,0,0,1-1.64-1.19,2.31,2.31,0,0,1-.39-1.89A2.49,2.49,0,0,1,201.09,207.4Z"/><path class="cls-1" d="M185.73,192.22a1.29,1.29,0,0,0,1.26.27,1.05,1.05,0,0,0,.68-.88.8.8,0,0,0-.25-.74,1.61,1.61,0,0,1-.35-.25c-.15-.13-.11-.17-.07-.3s-.29-.29-.65-.16a1.47,1.47,0,0,0-.89.81A1.1,1.1,0,0,0,185.73,192.22Zm0,0a2.82,2.82,0,0,1-.55-3,2.23,2.23,0,0,1,1.7-1.48,1.7,1.7,0,0,1,.71,0,1.74,1.74,0,0,1,.66.18,2,2,0,0,1,.56.3A2.89,2.89,0,0,1,190,190.8a2.47,2.47,0,0,1-1.22,1.81,2.55,2.55,0,0,1-1.77.29A2.92,2.92,0,0,1,185.73,192.22Z"/><path class="cls-1" d="M166.91,179.08a.9.9,0,0,0-.64.47,1.69,1.69,0,0,0-.08.81,2.23,2.23,0,0,0,.2.77c.11.23.29.35.39.3s.76-.24,1.25-.31a6.56,6.56,0,0,1,.76,0,3.29,3.29,0,0,0,.58,0c.12,0,.1,0,0,.1s-.12.41,0,.4.15-.56,0-1.09a2,2,0,0,0-.77-1.28A2.08,2.08,0,0,0,166.91,179.08Zm0,0a5,5,0,0,1,1.72-.27,3.79,3.79,0,0,1,1.85.75,2.86,2.86,0,0,1,1.41,1.91,2.14,2.14,0,0,1-.66,1.9,2.62,2.62,0,0,1-1.58.68,3.11,3.11,0,0,1-1.11-.09,9.37,9.37,0,0,1-.9-.28c-.3-.12-.59-.24-.87-.38a4.32,4.32,0,0,1-.5-.29,1.76,1.76,0,0,1-.57-.55,1.69,1.69,0,0,1-.2-1.25,5.12,5.12,0,0,1,.29-.91,3.49,3.49,0,0,1,.39-.8A1.24,1.24,0,0,1,166.91,179.08Z"/><path class="cls-1" d="M154,178.87a1.31,1.31,0,0,0-.76.51,1.22,1.22,0,0,0-.2.84,1.47,1.47,0,0,0,1,1.14,5.76,5.76,0,0,0,1.53.25l.82.1a1.86,1.86,0,0,0,.43,0s0,0,0,.07-.09.33,0,.4.12-.12,0-.36a8.24,8.24,0,0,0-.37-.86,10.74,10.74,0,0,0-.84-1.73A1.53,1.53,0,0,0,154,178.87Zm0,0a2.46,2.46,0,0,1,1.92,0c.63.34,1.15.77,1.7,1a9.46,9.46,0,0,1,.89.55,2.43,2.43,0,0,1,.9,1.29,2.25,2.25,0,0,1,0,1.15,2.36,2.36,0,0,1-.57,1,2.74,2.74,0,0,1-1.7.81,3.59,3.59,0,0,1-1.43-.19,5.91,5.91,0,0,1-1-.47,4.71,4.71,0,0,1-1.71-1.62,2.79,2.79,0,0,1-.35-2.24A1.81,1.81,0,0,1,154,178.87Z"/><path class="cls-1" d="M132.17,122.51a1.67,1.67,0,0,0-.4.09,1.24,1.24,0,0,0-.27.29,6.46,6.46,0,0,0-.44.71,1.66,1.66,0,0,0-.25,1.37c0,.08.1.13.15.11s.06-.13,0-.2.2-.09.34-.13a5.92,5.92,0,0,0,.78-.23,7.71,7.71,0,0,1,.74-.23,1.18,1.18,0,0,1,.27-.06l.14,0h0l.11.05.06,0,.15-.06a.44.44,0,0,1,.21,0c.07,0,.17.27.26.14s0-.37-.16-.66a4.63,4.63,0,0,0-.36-.74C133.34,122.45,132.7,122.47,132.17,122.51Zm0,0c.27,0,.54-.07.82-.09a1.44,1.44,0,0,1,.87.21l.77.45a2.32,2.32,0,0,1,.85.62,1.48,1.48,0,0,1,.29.81,1.85,1.85,0,0,1-.18.88,3.74,3.74,0,0,1-.33.58l-.15.21a2.44,2.44,0,0,1-.29.27,1.86,1.86,0,0,1-.62.38l-.16.07,0,0-.13.07a4.66,4.66,0,0,1-.78.35,3.3,3.3,0,0,1-2.45-.13,3.19,3.19,0,0,1-1.11-.87,1.56,1.56,0,0,1-.32-.92,1.66,1.66,0,0,1,.14-.71,3.49,3.49,0,0,1,1.42-1.4,8.27,8.27,0,0,0,.66-.51,1.39,1.39,0,0,1,.34-.24A2.7,2.7,0,0,1,132.17,122.51Z"/><path class="cls-1" d="M387.14,373.8a5.57,5.57,0,0,0-.7-3.27,2.71,2.71,0,0,0-1.33-1,4.32,4.32,0,0,0-1.64-.14,11.54,11.54,0,0,0-3.19.92,4.62,4.62,0,0,0-2.34,1.81c-.37.75-.08,1.41.57,2.19.32.4.71.81,1.1,1.32a5.25,5.25,0,0,1,1,1.91,7.44,7.44,0,0,1-.28,4.09,26.79,26.79,0,0,0-.89,3.07,3,3,0,0,0,.33,2.25,4.25,4.25,0,0,0,1.85,1.65,3.37,3.37,0,0,0,4.5-1.59,14.38,14.38,0,0,0,1.29-6.42C387.46,378.35,387.18,376.08,387.14,373.8Zm0,0c.05,2.28.46,4.53.68,6.81a28.49,28.49,0,0,1,.2,3.47,10.94,10.94,0,0,1-.52,3.58,5.25,5.25,0,0,1-2.56,3.08,5.38,5.38,0,0,1-2.06.59,5.91,5.91,0,0,1-2.14-.25,6.4,6.4,0,0,1-3.41-2.53,5.79,5.79,0,0,1-.87-2.11,6.73,6.73,0,0,1,0-2.2,20.63,20.63,0,0,1,1.1-3.47,5.71,5.71,0,0,0,.52-2.62,7.77,7.77,0,0,0-1.32-2.63,4.8,4.8,0,0,1-.71-2,3.11,3.11,0,0,1,.61-2.17,5.89,5.89,0,0,1,3.3-1.85,13.65,13.65,0,0,1,3.48-.48,5.11,5.11,0,0,1,1.73.33,3,3,0,0,1,1.33,1.12A6.07,6.07,0,0,1,387.14,373.8Z"/><path class="cls-1" d="M353.39,399.82a5,5,0,0,0-3.86,1.63,2.6,2.6,0,0,0-.54,1.86,15,15,0,0,0,.45,2.06,6.74,6.74,0,0,0,.74,1.83,19.41,19.41,0,0,1,1.14,2,16,16,0,0,0,.78,1.84,2.06,2.06,0,0,0,.9.77,2,2,0,0,0,.56.16,2,2,0,0,0,.37,0s0,.08.13-.09a4.89,4.89,0,0,0,.4-.78,20.85,20.85,0,0,0,1.55-3.87,5.53,5.53,0,0,0-.39-4,13.56,13.56,0,0,1-.91-2,4.07,4.07,0,0,0-.33-1A1.11,1.11,0,0,0,353.39,399.82Zm0,0a1.13,1.13,0,0,1,1,.3,5,5,0,0,1,.42,1A7.87,7.87,0,0,0,356,403a7.4,7.4,0,0,1,1.55,4.36,16.1,16.1,0,0,1-.61,4.61,6.09,6.09,0,0,1-.42,1.25,2.94,2.94,0,0,1-1.4,1.42,3.56,3.56,0,0,1-1.79.28,4.48,4.48,0,0,1-1.54-.39,4.54,4.54,0,0,1-2.23-2.18,10.3,10.3,0,0,1-.64-2.31c-.12-.56-.4-1.23-.65-2a8.34,8.34,0,0,1-.28-2.43,20.33,20.33,0,0,1,.13-2.3,3.49,3.49,0,0,1,1.14-2.09A6.43,6.43,0,0,1,353.39,399.82Z"/><path class="cls-1" d="M373.75,409.32a11.4,11.4,0,0,0-2.51-2.49,3.81,3.81,0,0,0-3.36-.51,3.24,3.24,0,0,1-1.77.28,5.16,5.16,0,0,1-1.57-.89,3.82,3.82,0,0,0-3.28-.33,3.11,3.11,0,0,0-2.19,2.25,2.36,2.36,0,0,0,.17,1.51c.23.47.61.91.95,1.45a2.91,2.91,0,0,1,.5,2,2.06,2.06,0,0,1-.55,1,5.87,5.87,0,0,1-.76.64c-.5.35-.82.68-.83.94a1.43,1.43,0,0,0,.44,1,2.58,2.58,0,0,0,1.17.68,4.14,4.14,0,0,0,1.47.14c1.06,0,2.15-.39,3.53-.47a5.15,5.15,0,0,1,2.22.35,3.8,3.8,0,0,1,1.81,1.73,10,10,0,0,1,.78,3.91,4.15,4.15,0,0,0,.3,1.34,3.81,3.81,0,0,0,.8,1.08,8.8,8.8,0,0,1,.65.81,4.87,4.87,0,0,1,.57,1.08c.27.7.39,1.3.55,1.7a1.61,1.61,0,0,0,.22.44l.06.07.16.18c.12.13.22.23.35.39a4.09,4.09,0,0,1,.72,2.59l0,.5v.26a.87.87,0,0,0,.08.28c0,.05,0,.06.06.07l.13,0c.1,0,.44,0,.93,0a4.74,4.74,0,0,1,1.32.34,7.54,7.54,0,0,1,1.84,1.23,5.9,5.9,0,0,0,2.31,1.57,2.44,2.44,0,0,0,2.07-.51,6.93,6.93,0,0,0,1.48-2.52,20.59,20.59,0,0,0,1-3.18,5.2,5.2,0,0,0,.05-2.87,2.28,2.28,0,0,0-.7-1,1.32,1.32,0,0,0-1-.27,7.53,7.53,0,0,0-1.52.47,16.88,16.88,0,0,1-1.78.58,4.87,4.87,0,0,1-4-.49,4,4,0,0,1-1.27-1.6,11.22,11.22,0,0,0-.81-1.51,7,7,0,0,0-1.11-1.26,4.93,4.93,0,0,1-.7-.65,1.52,1.52,0,0,1-.28-1.08,3.12,3.12,0,0,1,2.48-2.68,6.21,6.21,0,0,1,1.81.11,1.69,1.69,0,0,0,1.33-.84,8,8,0,0,0,.8-1.54,1.63,1.63,0,0,0,.1-.84,1.67,1.67,0,0,0-.37-.77,5.4,5.4,0,0,0-1.24-1.24,1.77,1.77,0,0,0-.82-.27,1.09,1.09,0,0,1-.78-.42A19,19,0,0,0,373.75,409.32Zm0,0a20.26,20.26,0,0,1,2.08,2.88c.35.54,1.09.28,1.6.65a5.84,5.84,0,0,1,1.28,1.25,1.75,1.75,0,0,1,.34,1.73,8.06,8.06,0,0,1-.75,1.64,2,2,0,0,1-1.53,1,6.37,6.37,0,0,0-1.73,0,2.54,2.54,0,0,0-1.92,2.31.84.84,0,0,0,.18.59,5.35,5.35,0,0,0,.65.5,7.61,7.61,0,0,1,1.34,1.32c.81,1,1.19,2.23,2,2.64a3.6,3.6,0,0,0,2.9.05,16.88,16.88,0,0,0,1.56-.66,8.83,8.83,0,0,1,1.83-.72,3.23,3.23,0,0,1,2.4.41,4.15,4.15,0,0,1,1.55,1.75,7.24,7.24,0,0,1,.34,4.14,18.56,18.56,0,0,1-.9,3.67,9.33,9.33,0,0,1-2,3.61,5.13,5.13,0,0,1-4.52,1.35,5.47,5.47,0,0,1-2.17-1c-.59-.42-1-.84-1.48-1.19a4.68,4.68,0,0,0-1.1-.74,1.36,1.36,0,0,0-.41-.1c-.09,0-.35,0-.84,0a3.21,3.21,0,0,1-1.55-.49,3.16,3.16,0,0,1-1.12-1.24,3.72,3.72,0,0,1-.38-1.42,4.53,4.53,0,0,1,0-.64l0-.38a1.59,1.59,0,0,0-.11-.81l-.25-.27-.13-.14-.22-.29a4.34,4.34,0,0,1-.57-1.14c-.25-.71-.35-1.29-.49-1.7a2,2,0,0,0-.23-.51,6.84,6.84,0,0,0-.44-.59,6.78,6.78,0,0,1-1.17-1.86,7,7,0,0,1-.4-2.14l0-1.74a4,4,0,0,0-.27-1.33,1.41,1.41,0,0,0-.64-.75,2.9,2.9,0,0,0-1.25-.27c-1,0-2.24.22-3.55.18a4.88,4.88,0,0,1-3.79-1.66,2.73,2.73,0,0,1-.61-2.25,2.18,2.18,0,0,1,.66-1.08,5.93,5.93,0,0,1,.81-.58c.51-.31.88-.57,1-.92a1.9,1.9,0,0,0-.26-1.36,15.55,15.55,0,0,1-.88-1.6,3,3,0,0,1-.09-2,3.71,3.71,0,0,1,2.69-2.49,5,5,0,0,1,1.84-.13,3.08,3.08,0,0,1,1.7.66,5.27,5.27,0,0,0,1.47.93,2.9,2.9,0,0,0,1.7-.23,3.87,3.87,0,0,1,3.42.58A11.23,11.23,0,0,1,373.75,409.32Z"/><path class="cls-1" d="M442.75,393.18c-4.5-3.54-10.74-4.13-15.95-2.94a2.62,2.62,0,0,0-1.38.83,7,7,0,0,0-1,4.94,1.58,1.58,0,0,0,1.92,1,4,4,0,0,0,1.42-.5,7,7,0,0,0,.76-.52,3.2,3.2,0,0,1,1.81-.64,3,3,0,0,1,1.95.75,4,4,0,0,1,1,1.35,4.22,4.22,0,0,1,.39,1.55,7.56,7.56,0,0,1-.07,1.31,18.12,18.12,0,0,0-.22,1.87,2.08,2.08,0,0,0,.4,1.23,5.53,5.53,0,0,0,2.85,1.86,10.7,10.7,0,0,0,3.84.54,5.51,5.51,0,0,0,3.47-1.46,4.09,4.09,0,0,0,1-1.63,10,10,0,0,0,.55-2,8.28,8.28,0,0,0-.26-4.13,7.17,7.17,0,0,0-1-1.85A10.06,10.06,0,0,0,442.75,393.18Zm0,0a8.18,8.18,0,0,1,2.56,3.34,8.88,8.88,0,0,1,.58,4.22,17.16,17.16,0,0,1-.34,2.13,4.89,4.89,0,0,1-1,2.05,6.74,6.74,0,0,1-3.92,2.35,11.91,11.91,0,0,1-4.57,0,9.61,9.61,0,0,1-2.28-.73,6.09,6.09,0,0,1-2.1-1.57,4.85,4.85,0,0,1-1.11-2.65,12.87,12.87,0,0,1,.09-2.35,3.7,3.7,0,0,0,0-.81,1.58,1.58,0,0,0-.14-.49,1.44,1.44,0,0,0-.25-.35c-.08-.06-.06,0,0,0s.09-.06-.14.09a9.1,9.1,0,0,1-1,.66,6.56,6.56,0,0,1-2.59.78,4.71,4.71,0,0,1-2.89-.65,4.13,4.13,0,0,1-1.78-2.46,5.59,5.59,0,0,1,0-2.67,9.79,9.79,0,0,1,.81-2.24,6.69,6.69,0,0,1,1.41-2,4.39,4.39,0,0,1,2.36-1,22.16,22.16,0,0,1,4.39,0,25.1,25.1,0,0,1,4.23.72A20.58,20.58,0,0,1,442.75,393.18Z"/><path class="cls-1" d="M402.91,436.77a2.4,2.4,0,0,0-2.23.67c-.57.56-.29,1.28-.08,2.07s.56,1.49.83,2.25a3.84,3.84,0,0,0,.39.81c.13.18.14.09.07.07s.43,0,.3.07-.19.16-.1.11a3.14,3.14,0,0,0,.34-.29,8.4,8.4,0,0,0,1.4-1.69,5.86,5.86,0,0,0,.48-1,2.53,2.53,0,0,0,0-1.12A2.49,2.49,0,0,0,402.91,436.77Zm0,0a3.88,3.88,0,0,1,1.74,1.77,4.06,4.06,0,0,1,.56,1.28,6.29,6.29,0,0,1,.07,1.42,6.66,6.66,0,0,1-.73,2.79,3.6,3.6,0,0,1-.42.68,2.43,2.43,0,0,1-1.13.78,3.13,3.13,0,0,1-1.09.15,3.3,3.3,0,0,1-1.05-.19,2.81,2.81,0,0,1-1.08-.72,3.21,3.21,0,0,1-.57-.92,4.52,4.52,0,0,1-.31-1.56,11.59,11.59,0,0,1,.21-2.68,8.07,8.07,0,0,1,.36-1.36,2,2,0,0,1,1-1.1A3.65,3.65,0,0,1,402.91,436.77Z"/><path class="cls-1" d="M409.92,442.34a1.44,1.44,0,0,0-.8,0,1.29,1.29,0,0,0-.56.55,4.15,4.15,0,0,0-.53,1.51,1.11,1.11,0,0,0,.09.58c.07.13.2.15.21,0a.38.38,0,0,0-.18-.3c-.15-.11-.25-.14-.2-.14s.28-.08.14,0l.11-.06c.09-.06.29-.16.44-.24a4.13,4.13,0,0,1,.94-.31,5.5,5.5,0,0,1,.87-.12,3.61,3.61,0,0,1,.67,0,.45.45,0,0,0,.33,0c.1-.08-.07-.42-.2-.63A1.86,1.86,0,0,0,409.92,442.34Zm0,0a4.39,4.39,0,0,1,1.62.55c.25.18.52.23.78.68a1.39,1.39,0,0,1-.23,1.43,8,8,0,0,1-.79.78l-.65.54-.53.44a2.08,2.08,0,0,1-.25.21,2.56,2.56,0,0,1-.61.36,2.75,2.75,0,0,1-1.48.16,2.21,2.21,0,0,1-1-.35,1.88,1.88,0,0,1-.74-.9,2.18,2.18,0,0,1,0-1.58,2.71,2.71,0,0,1,.68-1,10.61,10.61,0,0,1,1.53-1.06,2.39,2.39,0,0,1,.82-.36A2.86,2.86,0,0,1,409.92,442.34Z"/><path class="cls-1" d="M432.73,451.17a4.5,4.5,0,0,0-4.48.5,4.76,4.76,0,0,1-1.11.62,5.19,5.19,0,0,1-1.26.28l-2.42.22-1.21.11c-.37,0-.87.07-1.1.12s-.13.07-.12.08,0,0,0,.11a1.65,1.65,0,0,0,0,.53,3,3,0,0,0,1.91,2.18,12.76,12.76,0,0,0,4.08.59c.8,0,1.67.13,2.44.21a14.79,14.79,0,0,0,2.26.17,4.7,4.7,0,0,0,2.07-.48,2.42,2.42,0,0,0,1.32-1.6,2.7,2.7,0,0,0-.47-2.18A4.65,4.65,0,0,0,432.73,451.17Zm0,0a5.24,5.24,0,0,1,1.93,1.4,3.2,3.2,0,0,1,.8,2.3,3.23,3.23,0,0,1-1.2,2.28,6.17,6.17,0,0,1-2.35,1.23,15.36,15.36,0,0,1-2.52.45c-.82.07-1.55.18-2.34.27a10.53,10.53,0,0,1-5.36-.43,5.87,5.87,0,0,1-2.42-1.94,4.43,4.43,0,0,1-.88-3.21,3.38,3.38,0,0,1,.74-1.7,2.61,2.61,0,0,1,.87-.68,2.46,2.46,0,0,1,1-.21,11.47,11.47,0,0,1,1.29.18l1.19.19c.78.12,1.6.27,2.36.37a3.44,3.44,0,0,0,2.17-.36A5.51,5.51,0,0,1,432.73,451.17Z"/><path class="cls-1" d="M445,473.06a3.43,3.43,0,0,0-1.15-.09,4.31,4.31,0,0,1-1.13-.25c-.73-.25-1.42-.62-2.13-.92a4.24,4.24,0,0,0-4.27.26,2.44,2.44,0,0,0-.84,1.85,1.66,1.66,0,0,0,1,1.54c.3.17.66.3,1.05.51a2.8,2.8,0,0,1,1.06,1,4.89,4.89,0,0,1,.54,2.6,10,10,0,0,0,.14,2.17,15.67,15.67,0,0,0,.59,2.09c.25.7.51,1.46.79,2.05a3,3,0,0,0,1,1.28.74.74,0,0,0,.43.12,6.09,6.09,0,0,0,.9-.1,4.45,4.45,0,0,1,1.66,0,3.69,3.69,0,0,1,1.61.9c.76.73,1.17,1.37,1.53,1.64a3,3,0,0,0,1.42.58,15.52,15.52,0,0,0,2.1.21c.75,0,1.5.1,2.26.12,1.5.06,3,.1,4.53.06l1.14,0c.19,0,.43,0,.25,0a.76.76,0,0,0-.36.31.43.43,0,0,0-.09.3,1.56,1.56,0,0,0,0-.32l-.06-.52c-.05-.35-.12-.7-.2-1a11.28,11.28,0,0,0-1.7-3.9,8.33,8.33,0,0,0-3.48-2.51,25.3,25.3,0,0,1-4.15-2.18,9.86,9.86,0,0,1-3.2-3.38,4.68,4.68,0,0,1-.67-2.21c0-.38,0-.77,0-1.15A1.1,1.1,0,0,0,445,473.06Zm0,0a1.14,1.14,0,0,1,.5,1,11,11,0,0,1,0,1.15,4.65,4.65,0,0,0,.74,2.16,9,9,0,0,0,3.34,3.07,22.18,22.18,0,0,0,4.25,1.7,9.64,9.64,0,0,1,4.29,2.37,12.43,12.43,0,0,1,2.57,4.26,12.15,12.15,0,0,1,.38,1.21l.14.62a2.75,2.75,0,0,1,.1.83,1.63,1.63,0,0,1-1.06,1.5,3.15,3.15,0,0,1-.59.15l-.31,0-1.17.13c-1.58.14-3.16.25-4.74.26-.79,0-1.58,0-2.37-.05a18.1,18.1,0,0,1-2.51-.24,5.88,5.88,0,0,1-2.78-1.26c-.82-.74-1.22-1.46-1.58-1.79s-.23-.33-1-.32a7.62,7.62,0,0,1-1.41,0,3.52,3.52,0,0,1-1.71-.68,5.15,5.15,0,0,1-1.63-2.5c-.28-.84-.43-1.58-.62-2.36a15.93,15.93,0,0,1-.36-2.44,11.46,11.46,0,0,1,.15-2.46,3.8,3.8,0,0,0-.09-1.93c-.19-.51-.83-.82-1.55-1.29a2.42,2.42,0,0,1-1.12-2.33,3.09,3.09,0,0,1,1.23-2.15,4.53,4.53,0,0,1,4.56,0c.71.32,1.37.72,2.1,1a4.32,4.32,0,0,0,1.12.25A3.41,3.41,0,0,1,445,473.06Z"/><path class="cls-1" d="M468,477.11c-.24.32-.41.72-.8.89a3.53,3.53,0,0,1-1.21.08,2,2,0,0,0-1.73,1.28c-.44,1.44.85,2.84,2,3.53a2.49,2.49,0,0,0,1.75.27,2.86,2.86,0,0,0,.8-.31,8.86,8.86,0,0,1,1.16-.58,3.22,3.22,0,0,1,2-.15,5.4,5.4,0,0,1,1.44.74,4.08,4.08,0,0,0,1.66.4,4.84,4.84,0,0,0,1.7,0c.13,0,.16,0,.23-.1a1.34,1.34,0,0,0,.24-.6,3.93,3.93,0,0,0-1-3.57,10.09,10.09,0,0,0-1.69-1.56,7.52,7.52,0,0,0-2.06-1.09,5.61,5.61,0,0,0-2.34-.31A3,3,0,0,0,468,477.11Zm0,0A3.3,3.3,0,0,1,470,476a7.75,7.75,0,0,1,2.45,0,9.48,9.48,0,0,1,2.41.7,11.07,11.07,0,0,1,2.25,1.24,6.33,6.33,0,0,1,1.9,2,5.54,5.54,0,0,1,.67,2.94,3.81,3.81,0,0,1-.43,1.7,3,3,0,0,1-1.59,1.41,6.31,6.31,0,0,1-3.08.24,10.72,10.72,0,0,1-1.39-.26,4.75,4.75,0,0,1-1.53-.72c-.22-.15-.36-.28-.47-.36s-.16-.12-.16-.14-.12-.08-.4,0-.65.17-1.09.3a4.92,4.92,0,0,1-1.55.21,4.27,4.27,0,0,1-2.76-1.18,6.53,6.53,0,0,1-1.44-2.26,3.06,3.06,0,0,1,0-2.61,2.38,2.38,0,0,1,2.1-1.23,3,3,0,0,0,1.19,0C467.52,477.82,467.7,477.42,468,477.11Z"/></g><path class="cls-1" d="M365.07,439.71a18.53,18.53,0,0,1,.07,2,18.34,18.34,0,0,1-.21,2c-.17,1.31-.46,2.59-.73,3.89a20,20,0,0,1-3,7.43,10.69,10.69,0,0,1-.7.81,5,5,0,0,1-.84.7,5.8,5.8,0,0,1-.92.56,7.1,7.1,0,0,1-1,.43,13.21,13.21,0,0,1-4.1.73,31.88,31.88,0,0,1-8.06-1,141.08,141.08,0,0,1-15.19-4.75c-1.23-.43-2.46-.86-3.69-1.24l-1.82-.51-.88-.21-1-.2-7.7-1.59c-10.3-2.07-20.71-4.09-31.08-7.1-1.3-.37-2.59-.79-3.88-1.19l-3.9-1.38c-1.31-.44-2.58-1-3.85-1.54s-2.58-1-3.81-1.7a83.32,83.32,0,0,1-14.33-8.69A95.16,95.16,0,0,1,242,416a128.61,128.61,0,0,1-10.49-12.91c-3.2-4.49-6.12-9.1-8.91-13.74l-2.06-3.5c-.68-1.2-1.34-2.42-2-3.59-1.25-2.34-2.43-4.55-3.63-6.52a31.83,31.83,0,0,0-3.7-5.07,15.9,15.9,0,0,0-4.06-3.22l-1.13-.55-1.2-.47a24.86,24.86,0,0,0-2.9-.85c-2.16-.54-4.71-1-7.63-1.78-.72-.18-1.47-.39-2.24-.62-.34-.09-.89-.29-1.35-.45a13.34,13.34,0,0,1-1.41-.56,25.84,25.84,0,0,1-5.06-2.86,44.44,44.44,0,0,1-3.81-3c-1.06-.93-2-1.74-2.75-2.37a13.37,13.37,0,0,0-2-1.44,8.39,8.39,0,0,0-.9-.45c-.35-.15-.72-.29-1.1-.42a14.32,14.32,0,0,0-4.62-.76,8.39,8.39,0,0,0-1.83.24,4.74,4.74,0,0,0-1.11.45,4.17,4.17,0,0,0-.74.71A12.39,12.39,0,0,0,164.1,354c-.47.82-1,1.78-1.61,3a45.72,45.72,0,0,1-2.42,4.23c-.47.76-1.12,1.6-1.74,2.4a23.74,23.74,0,0,1-2.25,2.37,22.6,22.6,0,0,1-2.64,2.11,27.8,27.8,0,0,1-2.88,1.66,26.84,26.84,0,0,1-5.78,2c-1.79.41-3.36.62-4.69.81a18.16,18.16,0,0,0-4.9,1,2.85,2.85,0,0,0-1.2,1.25,2.59,2.59,0,0,0-.25.78s0,.05,0,.08,0,0,0-.05a.19.19,0,0,1,0-.1s0,0,0,0a1.57,1.57,0,0,1,0,.16,12.63,12.63,0,0,0,.7,1.79c.39.84.92,1.87,1.54,3.07s1.34,2.59,2.05,4.31a23.25,23.25,0,0,1,1.73,6.55,18,18,0,0,1-.1,4.44,17.81,17.81,0,0,1-1.37,4.56,19.69,19.69,0,0,1-4.84,6.43,30.52,30.52,0,0,1-10.17,5.92,42.68,42.68,0,0,1-10.18,2.25,52.53,52.53,0,0,1-10,.12,48.27,48.27,0,0,1-5.1-.75l-1.29-.28-1.08-.25-2.09-.52c-2.72-.7-5.16-1.38-7.39-1.86a30.67,30.67,0,0,0-5.86-.76,10.53,10.53,0,0,0-3.87.59c-1,.36-3,1.28-6,2.52-.77.3-1.58.61-2.5.91-.46.15-.92.3-1.44.44s-1.09.3-1.66.41a27,27,0,0,1-7.32.64,23.86,23.86,0,0,1-4.25-.6,22.5,22.5,0,0,1-4.62-1.64,21.27,21.27,0,0,1-4.51-3,21.57,21.57,0,0,1-3.53-4,23.66,23.66,0,0,1-2.3-4.33,26.15,26.15,0,0,1-1.21-4,35.44,35.44,0,0,1-.78-6.5c0-.93,0-1.82,0-2.62l.07-2.18.13-3.91.13-3.93a13.37,13.37,0,0,1,.66-3.92c.38-1.31,1-2.6,1.45-3.91a16.89,16.89,0,0,0,1-3.94c.29-2.65.62-5.31.85-8s.44-5.36.7-8.06l.74-8c.44-5.17,1-10.09,1.31-14.79A55.15,55.15,0,0,0,43,315.88l-.19-.94c-.15-1.55-.32-3.34-.35-5.46a27.17,27.17,0,0,1,.78-7.35A19.59,19.59,0,0,1,45,297.77a17.06,17.06,0,0,1,3.11-3.93,19,19,0,0,1,3.16-2.37c.9-.55,1.6-.92,2.08-1.19l.85-.46a1.25,1.25,0,0,0,.43-.29,4.43,4.43,0,0,0,1-1.78,17.16,17.16,0,0,0,.81-3.32c.22-1.3.35-2.71.47-4.33,1-12.53,2-25.07,1.76-37.64,0-3.17-.09-6.21-.18-9.33l-.21-9.34c0-1.57-.08-3.13-.07-4.7a23.28,23.28,0,0,1,.1-2.36,3.86,3.86,0,0,0,.12-.59,2,2,0,0,0-.07-.59c-.08-.39-.17-.78-.29-1.18L57.35,212a11.57,11.57,0,0,1-.42-2.37l-.24-4.77-.8-19c-.12-3.23-.21-6.52-.18-9.9l0-2.45,0-2.14c0-1.51,0-3.18,0-5a53.17,53.17,0,0,1,.45-6c.15-1.07.34-2.19.61-3.34l.21-.87.06-.24.11-.34.22-.67c.16-.46.3-.88.5-1.36s.46-1,.72-1.5c.13-.25.24-.48.4-.74l.52-.81a17.66,17.66,0,0,1,1.16-1.58c.46-.54,1-1.07,1.47-1.57a17.43,17.43,0,0,1,9.75-4.52,22.27,22.27,0,0,1,6.21.14,29.69,29.69,0,0,1,4.38,1.1,43.65,43.65,0,0,1,6.39,2.75c1.82,1,3.45,2,5,3s3,2,4.29,2.85c.64.43,1.28.87,1.7,1.13l.71.42.92.58a121.09,121.09,0,0,0,14.44,7.86,67.93,67.93,0,0,0,7.27,2.77,11.67,11.67,0,0,1,3.53,2l.86.73c.29.28.56.55.9.84l2,1.84a44.87,44.87,0,0,0,4.14,3.62,21.51,21.51,0,0,0,4.47,2.59c1.56.65,3.1,1.36,4.66,2.07s3.11,1.49,4.68,2.21c.78.4,1.56.78,2.33,1.22s1.56.82,2.33,1.26c.39.21.76.46,1.14.69l1.09.64c.62.35,1.21.73,1.84,1.05a61.14,61.14,0,0,0,8.07,3.35c2.84,1,5.87,1.92,9,3,1.56.54,3.16,1.06,4.76,1.69.81.3,1.61.63,2.41,1l.61.24c.2.08.48.23.71.34l1.46.73a41.46,41.46,0,0,1,9,7.27l3.39,3.54L198,209c.49.5,1,1,1.46,1.49s1,.92,1.41,1.31.88.8,1.31,1.16.85.63,1.26.94l.6.36.3.2.44.26c1.13.7,2.42,1.42,3.74,2.22a40.4,40.4,0,0,1,4.13,2.67,30.16,30.16,0,0,1,4.12,3.67,29.09,29.09,0,0,1,3.67,4.88,27,27,0,0,1,2.64,5.85,29.17,29.17,0,0,1,1.17,6.05c.15,1.92.22,3.69.26,5.36l.18,4.72a17.58,17.58,0,0,0,1.56,7.4,6,6,0,0,0,.4.64,3,3,0,0,0,.37.47,4.13,4.13,0,0,0,.95.78,14.34,14.34,0,0,0,3.39,1.18,35,35,0,0,1,5.07,1.58,19.68,19.68,0,0,1,5,3.2c2.77,2.4,4.84,4.67,6.82,6a10.15,10.15,0,0,0,3,1.42,15.68,15.68,0,0,0,3.54.58c2.58.15,5.55-.13,8.88-.27a44.67,44.67,0,0,1,5.29,0,24.85,24.85,0,0,1,2.89.37c.49.09,1,.17,1.47.28l1.44.39a30.11,30.11,0,0,1,17.88,14.61,28.46,28.46,0,0,1,3.43,11.67,17.4,17.4,0,0,1-1,7.57,13,13,0,0,1-2.74,4.24,14,14,0,0,1-3.91,2.78,20.54,20.54,0,0,1-6.88,1.79l-1.41.1c-.45,0-.86.05-1.41.06-1,0-2,0-2.88-.05-3.55-.2-6.47-.57-8.78-.46a11.29,11.29,0,0,0-2.68.37c-.12.06-.29.09-.4.14s-.22.09-.31.14a1.36,1.36,0,0,1-.27.15c-.11.11-.26.2-.36.3a3.15,3.15,0,0,0-.86,1.15,3.46,3.46,0,0,0-.2,1.64,6.83,6.83,0,0,0,.67,2.42l.84,1.73c.31.57.65,1.12,1,1.68a39.66,39.66,0,0,0,4.86,6.39c3.73,4.09,8.51,7.53,13.46,10.93,2.5,1.69,5.11,3.3,7.77,4.91a38,38,0,0,1,4.64,3.09,12.61,12.61,0,0,1,2.57,2.89,11.77,11.77,0,0,1,1.52,3.63,18.91,18.91,0,0,1,.29,6.15c-.16,1.75-.34,3.09-.43,4.58a63.75,63.75,0,0,0,0,8.85c.1,1.47.25,2.95.45,4.42a20.7,20.7,0,0,0,.85,3.92,9.36,9.36,0,0,0,1.55,3,3.35,3.35,0,0,0,2.11,1.24,6.38,6.38,0,0,0,3.23-.5,43.48,43.48,0,0,0,4-1.86,23.73,23.73,0,0,1,4.89-1.94c.46-.12,1-.17,1.48-.25s1.06,0,1.59,0,1.08.2,1.61.33,1,.42,1.48.65l.1.05.07.06a7.45,7.45,0,0,1,2.26,2.59,8,8,0,0,1,.82,3.14,19.18,19.18,0,0,1-.63,5.46c-.38,1.66-.81,3.26-1.06,4.79a7.58,7.58,0,0,0,.2,4.17,3.86,3.86,0,0,0,1.22,1.43,6.82,6.82,0,0,0,1.94.92,19.85,19.85,0,0,0,4.72.63,42.44,42.44,0,0,1,5.08.39,9.31,9.31,0,0,1,4.85,2.14,9,9,0,0,1,2.56,4.55,33.25,33.25,0,0,1,.77,5,29.33,29.33,0,0,0,.88,4.88,8.7,8.7,0,0,0,2.55,4.12,10.36,10.36,0,0,0,4.48,2c1.62.36,3.29.52,4.94.78a10.79,10.79,0,0,1,4.69,1.66,4.78,4.78,0,0,1,1.55,1.95,8.71,8.71,0,0,1,.62,2.42Zm-.07,0a5.88,5.88,0,0,0-2.31-4.18,10.67,10.67,0,0,0-4.63-1.38c-1.63-.18-3.32-.26-5-.56a11.12,11.12,0,0,1-4.93-2l-.54-.45-.47-.51a5.8,5.8,0,0,1-.47-.52l-.39-.57a6.47,6.47,0,0,1-.66-1.21,10.11,10.11,0,0,1-.49-1.25,29.41,29.41,0,0,1-1.05-5.06,33.5,33.5,0,0,0-.85-4.78,7.55,7.55,0,0,0-2.22-3.8,7.71,7.71,0,0,0-4.09-1.68,40.76,40.76,0,0,0-4.89-.24,21.39,21.39,0,0,1-5.16-.58,8.68,8.68,0,0,1-2.54-1.08,6,6,0,0,1-2-2.12,9.44,9.44,0,0,1-.6-5.37c.22-1.72.61-3.36.92-5a17.74,17.74,0,0,0,.43-4.76,5.58,5.58,0,0,0-.59-2.12A5,5,0,0,0,321,389l.06,0a5.25,5.25,0,0,0-4.07-.31,19.59,19.59,0,0,0-4.15,1.86c-1.37.75-2.75,1.54-4.24,2.18a10.21,10.21,0,0,1-4.85,1,6.85,6.85,0,0,1-2.47-.65,8,8,0,0,1-2.05-1.49,12.33,12.33,0,0,1-2.58-4.16,23.86,23.86,0,0,1-1.28-4.64c-.29-1.55-.53-3.12-.71-4.69a66.56,66.56,0,0,1-.39-9.47c0-3.15.7-6.32,0-9.28a6.73,6.73,0,0,0-2.44-3.7,30.26,30.26,0,0,0-4-2.43c-2.74-1.52-5.48-3.07-8.16-4.72a80.73,80.73,0,0,1-15-11.4,45,45,0,0,1-5.94-7.32c-.4-.67-.82-1.34-1.21-2l-1.08-2.1a13.94,13.94,0,0,1-1.35-4.5,10.56,10.56,0,0,1,.44-4.67,10.37,10.37,0,0,1,6.51-6.37,17,17,0,0,1,4.63-.75c3.15-.12,6.27.3,9.41.45a32,32,0,0,0,4.7-.1,13.8,13.8,0,0,0,4.57-1.07,6.15,6.15,0,0,0,3.21-3.29,10.86,10.86,0,0,0,.61-4.63,23.14,23.14,0,0,0-2.44-9,24.74,24.74,0,0,0-5.75-7.38,22.88,22.88,0,0,0-8.1-4.69l-1.12-.35-1.15-.26a20,20,0,0,0-2.32-.38,43.55,43.55,0,0,0-4.71-.22,84.44,84.44,0,0,1-9.41-.18,16.7,16.7,0,0,1-8.71-3.23c-2.51-1.91-4.5-4.38-6.87-6.44a15.32,15.32,0,0,0-3.91-2.6,31.55,31.55,0,0,0-4.47-1.46,17.89,17.89,0,0,1-4.37-1.71,8.78,8.78,0,0,1-3.16-3.41,21.38,21.38,0,0,1-2.06-9.12,60.11,60.11,0,0,0-.73-9.38,16.58,16.58,0,0,0-4.35-8.21,35.7,35.7,0,0,0-7.45-5.71c-2.68-1.64-5.45-3.13-8.11-4.81a29.51,29.51,0,0,1-7-6.27c-2-2.38-3.88-4.94-5.85-7.38A32.09,32.09,0,0,0,180.5,202c-5.4-3.25-11.44-5.17-17.27-7.48a68.85,68.85,0,0,1-8.54-4c-1.37-.76-2.68-1.62-4.05-2.39a43.56,43.56,0,0,0-4.24-2c-5.8-2.43-12-3.76-18.12-5.07a85.49,85.49,0,0,1-18-5.49,111,111,0,0,1-16.47-9.1c-2.66-1.67-5.09-3.68-7.69-5.44a39.57,39.57,0,0,0-8.22-4.56,10.37,10.37,0,0,0-4.6-.78,4.74,4.74,0,0,0-3.73,2.54,16.63,16.63,0,0,0-1.38,4.48,43.59,43.59,0,0,0-.62,4.67c-.25,3.13-.39,6.27-.68,9.4s-.37,6.27-.47,9.4c-.16,6.28-.36,12.56-.46,18.84-.18,12.56,0,25.12-.52,37.68l-1.24,37.66a43.76,43.76,0,0,1-.94,9.35A14,14,0,0,1,61.45,294a11.23,11.23,0,0,1-3.34,3.28,25.22,25.22,0,0,0-3.79,2.77A8.31,8.31,0,0,0,52.93,302a9.57,9.57,0,0,0-.8,2.21c-.67,3.09-.13,6.27.31,9.36h0A62.74,62.74,0,0,1,54,329.16c-.06,5.26-.53,10.5-1,15.73-1.1,10.45-1.73,20.95-2.23,31.44l-.38,7.88c-.1,2.62-.32,5.24-.32,7.87s.35,5.34,1.81,7.55a7.67,7.67,0,0,0,2.9,2.61,10.1,10.1,0,0,0,3.78,1,18.67,18.67,0,0,0,7.7-1.34,72,72,0,0,1,7.46-2.54c5.17-1.2,10.53-.27,15.56,1.14,2.53.69,5,1.5,7.55,2.26a44.84,44.84,0,0,0,7.67,1.75,36,36,0,0,0,15.57-1.4,20.16,20.16,0,0,0,6.84-3.79,9.36,9.36,0,0,0,2.42-3.06,7.2,7.2,0,0,0,.63-3.83c-.28-2.63-1.53-5-2.68-7.36a32,32,0,0,1-3-7.27,10.86,10.86,0,0,1,1.27-7.62,12.51,12.51,0,0,1,5.69-5.29c4.85-2.19,10.48-1.29,15.26-3.64a14,14,0,0,0,5.77-5.19c1.46-2.19,2.5-4.62,3.87-6.87a15.84,15.84,0,0,1,5.31-5.72,15.28,15.28,0,0,1,7.58-1.88,22.15,22.15,0,0,1,14.5,5.33c2,1.68,3.86,3.58,6,5.11a18,18,0,0,0,3.4,2,25.89,25.89,0,0,0,3.73,1.24c2.54.68,5.12,1.19,7.65,1.89a29.11,29.11,0,0,1,7.3,2.95,24.53,24.53,0,0,1,6,5.09,40.63,40.63,0,0,1,4.48,6.48c1.3,2.28,2.48,4.63,3.66,7s2.43,4.65,3.69,7c2.54,4.6,5.2,9.14,8.09,13.52,5.83,8.72,12.56,16.95,20.74,23.57a80.74,80.74,0,0,0,13,8.79,97.28,97.28,0,0,0,14.43,6.3c9.92,3.49,20.15,6,30.33,8.54,5.08,1.32,10.24,2.45,15.09,4.54a137,137,0,0,0,14.84,5.27,30.91,30.91,0,0,0,7.76,1.2,12.13,12.13,0,0,0,3.87-.56,6.59,6.59,0,0,0,3.2-2.16,22.26,22.26,0,0,0,3.28-7.11,17.64,17.64,0,0,0,.88-7.75Z"/></svg>