<svg id="Layer_1" data-name="Layer 1" xmlns="http://www.w3.org/2000/svg" viewBox="0 0 600 600"><defs><style>.cls-1{fill:none;stroke:#000;stroke-miterlimit:10;}</style></defs><title>saintvincentandthegrenadines</title><g id="big_island" data-name="big island"><path d="M385.23,50.81c-2.13,0-4.25.86-6.54,1a24.16,24.16,0,0,1-6.76-.55,15.56,15.56,0,0,0-6.35-.23,9.11,9.11,0,0,0-2.85,1.18c-.88.51-1.8,1.25-2.8,1.83a9.42,9.42,0,0,1-3.39,1.29,19.81,19.81,0,0,1-3.45-.1c-1.07,0-1.54.19-2,.95a10.08,10.08,0,0,0-.85,2.88,17.36,17.36,0,0,1-.4,1.72l-.53,1.62c-.36,1.06-.74,2.12-1.14,3.17q-1.2,3.17-2.66,6.22a86.66,86.66,0,0,1-6.81,11.71c-2.49,3.8-5.67,7.12-7.5,10.7-.23.45-.44.9-.62,1.35l-.14.34a1.67,1.67,0,0,0-.06.24,2.88,2.88,0,0,0-.1.51,24.82,24.82,0,0,0,0,3,11.43,11.43,0,0,1-.44,4.07,6.42,6.42,0,0,1-.55,1.21,5.54,5.54,0,0,1-1,1.18,7.29,7.29,0,0,1-2.18,1.25c-.62.25-1.17.43-1.63.61a5,5,0,0,0-.55.25l-.51.32a15.55,15.55,0,0,0-2.26,1.76,17.84,17.84,0,0,0-3.4,4.58,44.51,44.51,0,0,0-2.41,5.6l-2.25,6.15c-1.55,4.1-3.12,8-4.3,11.9a42.59,42.59,0,0,0-1.36,5.69,31.77,31.77,0,0,0-.37,5.9A62,62,0,0,0,309,162.82c.49,2.16,1.05,4.33,1.58,6.53s1.14,4,2.24,5.07a4,4,0,0,0,.87.61,3.23,3.23,0,0,0,.49.18l.26.07.33.06c.92.16,2,.18,3.31.37a9.42,9.42,0,0,1,2.12.56,6.25,6.25,0,0,1,2.17,1.4,7.39,7.39,0,0,1,1.47,2.07,15,15,0,0,1,.78,1.93,8,8,0,0,0,1,2.4.54.54,0,0,0,.31.18,3.71,3.71,0,0,0,.56.12,12.59,12.59,0,0,0,2.31,0,15.14,15.14,0,0,1,2.1,0,8.84,8.84,0,0,1,2.6.65,6.83,6.83,0,0,1,2.72,2,6.68,6.68,0,0,1,1.39,3.21,12.72,12.72,0,0,1-.32,4.52,6.37,6.37,0,0,0-.16,1.06,2.54,2.54,0,0,0,0,.45,1.16,1.16,0,0,0-.32-.35.61.61,0,0,0-.32-.13,2.48,2.48,0,0,0,.63-.1c.37-.09.58-.19,1.43-.45a11.63,11.63,0,0,1,4.68-.49,12,12,0,0,1,4.41,1.42,23.49,23.49,0,0,1,3.27,2.18l2.62,2.11a22.12,22.12,0,0,0,2.36,1.64,23.53,23.53,0,0,0,5.27,2.41,43.36,43.36,0,0,0,5.74,1.42,22.78,22.78,0,0,0,3,.29,10,10,0,0,0,2.73-.27,4.76,4.76,0,0,0,2-1,2.17,2.17,0,0,0,.76-1.24,15.69,15.69,0,0,0,.17-2.45,11.23,11.23,0,0,1,.27-2.25,9.81,9.81,0,0,1,1-2.51,19.63,19.63,0,0,1,2.56-3.49,17.15,17.15,0,0,0,1.79-2.28,2.74,2.74,0,0,0,.21-.42c0-.13.07-.2.11-.36a4.65,4.65,0,0,0,.2-.88,6.86,6.86,0,0,0,0-1.93,48.48,48.48,0,0,0-1.12-5.52,25.81,25.81,0,0,1-.68-8.58l.08-.65.15-.77c.11-.52.24-1,.38-1.43a24.61,24.61,0,0,1,.88-2.38c.62-1.43,1.22-2.56,1.69-3.59s.82-1.88,1.09-2.36l.24-.46.32-.65.62-1.32a55.07,55.07,0,0,0,2.13-5.43c.31-.93.59-1.83.88-2.83l.91-3.26c.34-1.17.7-2.42,1.2-3.71l.39-1,.21-.49.24-.57a17.06,17.06,0,0,1,1.46-2.57,24.21,24.21,0,0,1,3-3.43c.82-.82,1.34-1.32,1.58-1.57l.15-.15s0,.09,0,.12.06.08.1-.06a4.57,4.57,0,0,0,.13-1.62c-.05-.77-.16-1.7-.32-2.74s-.39-2.37-.52-3.59a76.34,76.34,0,0,1-.06-14.25c.31-4.53.8-8.89.89-13.15,0-2.15,0-4.19-.15-6.42s-.29-4.4-.52-6.59c-.43-4.38-1-8.77-1.67-13.14s-1.61-8.71-2.63-13a18.88,18.88,0,0,0-2.25-6.09,8,8,0,0,0-2.24-2.24A5.63,5.63,0,0,0,385.23,50.81Zm0-.74a6.42,6.42,0,0,1,3.32,1,9.29,9.29,0,0,1,2.5,2.38A23.31,23.31,0,0,1,394,59.63c1.52,4.2,2.92,8.44,4.26,12.72s2.62,8.58,3.75,12.94,2.3,8.68,3,13.37,1.15,9.14,1.63,13.49a84.13,84.13,0,0,0,2.15,12.27c.24,1,.51,1.78.86,2.93a33.63,33.63,0,0,1,1,3.79,18.62,18.62,0,0,1,.3,5,13.73,13.73,0,0,1-.65,3.18,15.91,15.91,0,0,1-.68,1.64c-.23.45-.47.89-.71,1.28a29.35,29.35,0,0,1-2.66,3.56,9,9,0,0,0-1.25,1.72,1.35,1.35,0,0,0-.11.36l-.15.49-.16.59c-.22.81-.44,1.7-.65,2.69l-.66,3.21c-.25,1.15-.54,2.4-.86,3.6A72.24,72.24,0,0,1,400,165.6l-.7,1.74-.37.86-.2.46-.29.58a15.21,15.21,0,0,1-2.32,3.36c-.71.85-1.31,1.58-1.73,2.12l-.51.64a.52.52,0,0,1-.14.15l-.06,0-.07.17a12.1,12.1,0,0,0-.72,4.69,48.63,48.63,0,0,1-.51,7.77,16.91,16.91,0,0,1-1.46,4.54,15.4,15.4,0,0,1-1.23,2.12c-.21.33-.52.7-.79,1s-.55.63-.82.88a29.36,29.36,0,0,1-2.94,2.42,13.13,13.13,0,0,0-1.81,1.5,3.64,3.64,0,0,0-.41.5,3,3,0,0,0-.33,1,19.17,19.17,0,0,1-1.17,4.06A8.71,8.71,0,0,1,378,210a14.11,14.11,0,0,1-4.08,1.55,27,27,0,0,1-3.87.56c-1.21.1-2.44.15-3.67.15a25.33,25.33,0,0,1-7.32-1.07,30.87,30.87,0,0,1-6.86-3,29,29,0,0,1-3.09-2.17l-2.56-2.08a8.78,8.78,0,0,0-4.12-2.19,4.62,4.62,0,0,0-1.89.21c-.21.05-1,.37-1.76.54a8.87,8.87,0,0,1-2.66.28,6.25,6.25,0,0,1-3.43-1.14,6.17,6.17,0,0,1-2.23-3,10.43,10.43,0,0,1-.27-5.08,7.53,7.53,0,0,0,.19-2.09c0-.07,0,.07.11.18s.17.12.07.06a2.48,2.48,0,0,0-.61-.2,8.72,8.72,0,0,0-1.23-.13c-.52,0-1.16-.05-1.88-.13a9.58,9.58,0,0,1-2.39-.56,8.31,8.31,0,0,1-2.42-1.35,6.86,6.86,0,0,1-1.81-2.36,9.24,9.24,0,0,1-.7-2.24c-.13-.66-.19-1.22-.26-1.7a5.56,5.56,0,0,0-.53-2c-.17-.37-.68-.71-1.57-1s-2-.41-3.25-.71l-.48-.13-.54-.17a7.58,7.58,0,0,1-1.05-.46,8.45,8.45,0,0,1-1.81-1.35c-2.07-2.13-2.8-4.63-3.51-6.78s-1.42-4.15-2.22-6.23A85,85,0,0,1,299.91,151a33.33,33.33,0,0,1-.76-7.39,33.77,33.77,0,0,1,1-7.41,64.56,64.56,0,0,1,4.84-13.1c1-2,2-4,3.14-6a44.56,44.56,0,0,1,4-6c3.1-3.87,7.59-7.27,12.41-8.21a4.61,4.61,0,0,0,.76-.28c0,.06.05,0,.1-.08a1.48,1.48,0,0,0,.17-.29,7.64,7.64,0,0,0,.36-2.51,24.12,24.12,0,0,1,.26-3.66,7.41,7.41,0,0,1,.28-1.1l.21-.55.2-.42c.27-.56.56-1.1.87-1.63a39.12,39.12,0,0,1,4.2-5.58c1.48-1.7,2.88-3.31,4.21-5a82.53,82.53,0,0,0,7.1-11c1-1.93,2-3.9,2.86-5.91.44-1,.84-2,1.23-3l.55-1.54c.15-.44.27-1,.4-1.51a11.29,11.29,0,0,1,1.18-3.43,3.58,3.58,0,0,1,1.63-1.48,4.67,4.67,0,0,1,2-.3,18,18,0,0,0,3.18.22,7.75,7.75,0,0,0,2.82-1c1-.5,1.78-1.14,2.84-1.72a10.46,10.46,0,0,1,3.31-1.26,16.68,16.68,0,0,1,6.85.44,23.45,23.45,0,0,0,6.46.74C380.76,50.81,382.9,50,385.25,50.07Z"/></g><g id="medium_islands" data-name="medium islands"><path d="M350.86,234.15A3,3,0,0,0,349,233a2,2,0,0,0-2,.65h0a1.22,1.22,0,0,0-.91.87,4.36,4.36,0,0,0-.17,1.31,8,8,0,0,1-.26,2.66c-.31.92-1.25,1.35-2,1.74l-2.37,1.23c-3.16,1.65-6.34,3.25-9.48,5L327,248.89c-1.56.86-3.25,1.6-4.24,2.72a2.13,2.13,0,0,0,.2,3.28,3.61,3.61,0,0,0,1.78.85,6.47,6.47,0,0,0,1.1.08l.57,0s.26-.05.45-.1a14.72,14.72,0,0,1,1.46-.28,4.53,4.53,0,0,1,.54,0h.18l.24,0a2,2,0,0,1,.65.29,2.43,2.43,0,0,1,1,1.38,5.27,5.27,0,0,1,.1,2,10.71,10.71,0,0,1-.34,1.59,9.6,9.6,0,0,1-4,5,10.66,10.66,0,0,1-2.92,1.35,17.22,17.22,0,0,1-3,.55,36.38,36.38,0,0,1-5.65-.07,34.2,34.2,0,0,0-5-.08,24.44,24.44,0,0,0-4.73.85c-.78.23-1.53.49-2.27.79-.37.16-.74.31-1.1.48s-.77.37-1,.51a1.3,1.3,0,0,0-.3.21s.07-.09.08-.14a.79.79,0,0,0,0-.28c0-.21-.08-.27,0-.2a1.65,1.65,0,0,0,.37.32,2.66,2.66,0,0,0,1.22.42,11.92,11.92,0,0,0,2.14-.2c1.52-.26,3.2-.82,5.09-1.24a17,17,0,0,1,3-.41,11.8,11.8,0,0,1,3.26.31c2,.48,3.64,1.2,5.07,1.49a4.32,4.32,0,0,0,1.74.11,2.16,2.16,0,0,0,.64-.24,2.26,2.26,0,0,0,.63-.52c.49-.5,1-1.28,1.89-2.14a5.76,5.76,0,0,1,1.65-1,4.33,4.33,0,0,1,2.21-.31,3.49,3.49,0,0,1,2.18,1.25,13.09,13.09,0,0,1,.78,1.22,1.4,1.4,0,0,0,1.13.65c1.15.2,2.46-.57,3.74-1.71,2.63-2.33,5.36-4.63,6.59-7.75a8.27,8.27,0,0,0,.41-4.89,5.69,5.69,0,0,0-1.05-2.22c-.24-.33-.58-.62-.89-1a2.55,2.55,0,0,1-.63-1.38,2.93,2.93,0,0,1,1.29-2.54,7.58,7.58,0,0,1,2.45-1.25c.45-.12.88-.22,1.29-.34a6.36,6.36,0,0,0,1.2-.51,7.55,7.55,0,0,0,2-1.66,8.65,8.65,0,0,0,1.94-4.86A8.41,8.41,0,0,0,350.86,234.15Zm0,0a8.8,8.8,0,0,1-.54,10.06,8.39,8.39,0,0,1-2,1.78,6.32,6.32,0,0,1-1.23.59l-1.27.42a6.57,6.57,0,0,0-2.23,1.27,2.34,2.34,0,0,0-1,2c.1.76.82,1.21,1.48,1.93a6.57,6.57,0,0,1,1.42,2.47,9.56,9.56,0,0,1,0,5.63,15.87,15.87,0,0,1-2.68,4.94c-1.14,1.48-2.38,2.78-3.62,4.1a11.6,11.6,0,0,1-2.28,1.93,6,6,0,0,1-3.29.93,4.83,4.83,0,0,1-1.86-.4,4.35,4.35,0,0,1-1.63-1.26,10.67,10.67,0,0,0-.74-1c-.12-.1-.05,0-.1,0a1.92,1.92,0,0,0-.95.59c-.38.4-.81,1.15-1.48,2a6.28,6.28,0,0,1-1.33,1.28,6.11,6.11,0,0,1-1.77.88,8.25,8.25,0,0,1-3.56.18c-2.09-.35-3.77-1-5.25-1.26a7.52,7.52,0,0,0-2.06-.09,14,14,0,0,0-2.22.43c-1.58.4-3.28,1-5.26,1.43a15.27,15.27,0,0,1-3.17.32,7.45,7.45,0,0,1-3.81-1.18,6.4,6.4,0,0,1-1.63-1.45,4.65,4.65,0,0,1-1-2.63,4.21,4.21,0,0,1,.24-1.59,4.39,4.39,0,0,1,.72-1.31,6,6,0,0,1,1.77-1.45c.53-.29.92-.46,1.38-.68s.9-.39,1.36-.58a27.46,27.46,0,0,1,2.79-.9,25.86,25.86,0,0,1,5.8-.84,39.19,39.19,0,0,1,5.65.36,39.13,39.13,0,0,0,5,.36,12.65,12.65,0,0,0,2.27-.23,7.38,7.38,0,0,0,2-.72,6.4,6.4,0,0,0,2.84-2.92,6.85,6.85,0,0,0,.32-1,4.34,4.34,0,0,0,.09-.68,1.14,1.14,0,0,0,.27.27,1.22,1.22,0,0,0,.34.15h0a10.44,10.44,0,0,0-1.18.12,6.65,6.65,0,0,1-.87.08l-.77,0a8.9,8.9,0,0,1-1.55-.28,6,6,0,0,1-2.83-1.7,4.63,4.63,0,0,1-1.3-3.17,4.24,4.24,0,0,1,1.45-3,9.33,9.33,0,0,1,2.47-1.57c.85-.4,1.64-.73,2.46-1.1l4.9-2.15c3.27-1.43,6.49-2.94,9.74-4.41l2.44-1.11c.79-.36,1.67-.75,2-1.59a7.86,7.86,0,0,0,.32-2.62,5,5,0,0,1,.2-1.32,1.28,1.28,0,0,1,.95-.89h0a2,2,0,0,1,2.07-.65A3,3,0,0,1,350.86,234.15Z"/><path d="M369.77,325.09a1.33,1.33,0,0,0-1.11.31,3,3,0,0,0-.74.93,7.58,7.58,0,0,1-1.14,2.11,2.76,2.76,0,0,1-2.3.59c-.81-.1-1.57-.38-2.34-.48a2.31,2.31,0,0,0-2.06.54,1.16,1.16,0,0,0-.35.87c0,.32.19.67.25,1.16a1.49,1.49,0,0,1-.64,1.38,7.06,7.06,0,0,1-1.14.6c-.73.35-.91.68-.77,1.29a11.83,11.83,0,0,0,1,2,3,3,0,0,1,.29,1.55,3.92,3.92,0,0,1-.47,1.46c-.44.83-1,1.45-1.32,2a2.33,2.33,0,0,0-.31.76.93.93,0,0,0,.09.55c.16.39.73.9,1.31,1.75a4.31,4.31,0,0,1,.62,1.54,7.73,7.73,0,0,1,.11,1.47l0,.66,0,.31v.19c0,.23.13.48,0,.25a.74.74,0,0,0-.49-.28c-.19,0-.17,0-.05,0a5.52,5.52,0,0,1,.68-.28,2.18,2.18,0,0,1,.76-.11,2,2,0,0,1,1,.28l.39.23.18.4a4.67,4.67,0,0,1,.33,2.16,9.92,9.92,0,0,0,0,1.27c.05.26,0,.13,0,.14a1.84,1.84,0,0,0,.65.09l.5,0a.86.86,0,0,0-.41.23.73.73,0,0,0-.23.36,3.25,3.25,0,0,0,0-1,7.2,7.2,0,0,1,0-1.87,3.41,3.41,0,0,1,1.26-2.18,2.64,2.64,0,0,1,1.5-.52,3.31,3.31,0,0,1,1.25.25,7.36,7.36,0,0,0,1,.41.82.82,0,0,0,.55-.18,1.5,1.5,0,0,0,.54-.65,3.48,3.48,0,0,0,.28-1.1,3.83,3.83,0,0,0,0-1.17,2.22,2.22,0,0,0-1.05-1.69,11.43,11.43,0,0,0-1.38-.28,1.84,1.84,0,0,1-1.06-.73,1.68,1.68,0,0,1-.23-1.28,2.8,2.8,0,0,1,1.09-1.6,6.31,6.31,0,0,0,1-.86,1.64,1.64,0,0,0,.26-1.12,2.34,2.34,0,0,1,.48-1.7,2.57,2.57,0,0,1,1.53-.76c.52-.11,1-.15,1.48-.26a2.29,2.29,0,0,0,1.23-.59,1.75,1.75,0,0,0,.55-1.21,6.72,6.72,0,0,0-1-2.74,5.79,5.79,0,0,1-.4-3,5.27,5.27,0,0,0-.18-1.48A1.41,1.41,0,0,0,369.77,325.09Zm0,0a1.42,1.42,0,0,1,1,1,5.36,5.36,0,0,1,.21,1.49,5.62,5.62,0,0,0,.46,2.91,7,7,0,0,1,1.2,2.79,2.13,2.13,0,0,1-.57,1.5,3,3,0,0,1-1.38.81c-.5.16-1,.25-1.46.39a1.93,1.93,0,0,0-1.07.62,1.59,1.59,0,0,0-.17,1.16,4.46,4.46,0,0,1,0,.84,2.14,2.14,0,0,1-.31.94,6.11,6.11,0,0,1-1.13,1.21,1.46,1.46,0,0,0-.5.88c0,.12,0,.15.06.15s.05,0,.19,0A7.89,7.89,0,0,1,368,342a3.35,3.35,0,0,1,1.67,1.18,4.66,4.66,0,0,1,.84,1.68,6.31,6.31,0,0,1-.06,3.65,3.67,3.67,0,0,1-3.41,2.59,6.06,6.06,0,0,1-1.85-.48c-.16-.05-.24-.05-.22,0s.1,0,.11,0-.1.18-.12.42a5.39,5.39,0,0,0,0,1.13,5.81,5.81,0,0,1-.06,2,2.21,2.21,0,0,1-.58,1,2.14,2.14,0,0,1-1.09.54,4.26,4.26,0,0,1-.56.06l-.43,0a4,4,0,0,1-2.27-.51,3.08,3.08,0,0,1-1.4-2.37,10,10,0,0,1,.05-1.74,2.12,2.12,0,0,0,0-.79l.56.63a.88.88,0,0,0,.43.12c.12,0,.18,0,.16,0l-.42.18a2.75,2.75,0,0,1-1.21.22,2.11,2.11,0,0,1-1.52-.8,2.69,2.69,0,0,1-.5-1.15,4,4,0,0,1-.06-.9c0-.13,0-.28,0-.4l0-.29.06-.54a2.82,2.82,0,0,0-.22-1.61,15.14,15.14,0,0,1-1.3-2.25,3.23,3.23,0,0,1-.06-1.82,4.42,4.42,0,0,1,.71-1.39c.55-.74,1.13-1.28,1.5-1.82a1.59,1.59,0,0,0,.31-1.57,10.66,10.66,0,0,1-.87-2.37,2.16,2.16,0,0,1,.38-1.56,2.58,2.58,0,0,1,1.23-.79c.8-.29,1.46-.47,1.42-1.07,0-.31-.14-.71-.13-1.2a1.72,1.72,0,0,1,.62-1.24,2.78,2.78,0,0,1,2.45-.51c.81.16,1.55.49,2.32.63a2.44,2.44,0,0,0,2.2-.48,7.3,7.3,0,0,0,1.17-2.06,3,3,0,0,1,.77-.92A1.34,1.34,0,0,1,369.77,325.09Z"/><path d="M286.12,431a10,10,0,0,0,1.8.66,1.25,1.25,0,0,0,1.49-.85,2.28,2.28,0,0,0-.33-1.81c-.33-.54-.76-1-1.06-1.6a6.48,6.48,0,0,1-.24-3.82,4.93,4.93,0,0,0-.58-3.54,2.61,2.61,0,0,0-1.23-1.1c-.36-.11-.9.35-1.39.7a8.68,8.68,0,0,0-1.32,1.25,9.91,9.91,0,0,1-1.37,1.53,2,2,0,0,1-1.28.39,2.7,2.7,0,0,1-1.21-.38,19.65,19.65,0,0,1-1.61-1.17,6.37,6.37,0,0,0-3.09-1.19c-.52,0-.86.09-1,.26a2,2,0,0,0-.36,1.05,3.3,3.3,0,0,0,.18,1.36,3.25,3.25,0,0,0,.73,1.15A14.19,14.19,0,0,1,277,427a7.89,7.89,0,0,1,.69,2.32c.11.73.16,1.36.21,2a39,39,0,0,1,.12,8,4.29,4.29,0,0,1-1.53,3,3.28,3.28,0,0,1-2.18.7,3,3,0,0,1-1.36-.41,3.2,3.2,0,0,1-.91-.82,5.87,5.87,0,0,1-.67-1.21c-.07-.15-.13-.18,0-.08a1,1,0,0,0,.46.21,1.25,1.25,0,0,0,.67-.05c.1-.05.06,0-.05,0l-.27.2c-.18.15-.35.3-.51.46s-.25.29-.59.68a3.79,3.79,0,0,1-1.64,1.08,4,4,0,0,1-1.92.11,4.8,4.8,0,0,1-1.5-.56,5.31,5.31,0,0,1-.63-.42c-.18-.14-.35-.29-.5-.43-.6-.57-1-1.08-1.34-1.41a4.12,4.12,0,0,0-.45-.37,3.24,3.24,0,0,0-.49-.26,2.81,2.81,0,0,0-1.15-.23,2.63,2.63,0,0,0-1.1.21,3.52,3.52,0,0,0-.43.27,1.22,1.22,0,0,0-.26.25s0-.08,0-.13,0,0,0,.06a.93.93,0,0,0,.26.27,1.52,1.52,0,0,0,.48.23c.44.16,1.07.26,1.81.47a6.5,6.5,0,0,1,2.19,1.08,6.38,6.38,0,0,1,1.61,1.79,15.47,15.47,0,0,0,.87,1.49,1.12,1.12,0,0,0,.65.45s0,.05.24-.11a6.93,6.93,0,0,1,.87-.73,3.33,3.33,0,0,1,2.61-.27,7.13,7.13,0,0,1,2,.93,8.36,8.36,0,0,0,3.12,1.62,3.2,3.2,0,0,0,2.83-1.4,7.52,7.52,0,0,0,1.38-3.36,73.48,73.48,0,0,0,.69-7.6,6,6,0,0,1,1.33-3.56,2.7,2.7,0,0,1,1.68-.85A3.88,3.88,0,0,1,286.12,431Zm0,0a3.75,3.75,0,0,0-1.87-.27,2.57,2.57,0,0,0-1.65.86,5.86,5.86,0,0,0-1.22,3.54c0,2.54,0,5.11-.28,7.68a8.82,8.82,0,0,1-1.23,3.78,5.12,5.12,0,0,1-1.47,1.5,3.76,3.76,0,0,1-2.14.6,9.59,9.59,0,0,1-3.83-1.43,5.09,5.09,0,0,0-1.56-.56,1.44,1.44,0,0,0-1.09.16c-.09.07-.25.28-.52.58a2.48,2.48,0,0,1-1.41.79,3.19,3.19,0,0,1-2.74-1,15.37,15.37,0,0,1-1.28-1.68,3.86,3.86,0,0,0-1-.94,3.62,3.62,0,0,0-1.28-.49c-.5-.1-1.16-.14-1.95-.32l-.61-.18a5.12,5.12,0,0,1-.68-.31,4.31,4.31,0,0,1-1.19-1,3.39,3.39,0,0,1-.78-1.66,3.2,3.2,0,0,1,.34-2,5.64,5.64,0,0,1,4.67-2.77,6.44,6.44,0,0,1,2.61.34,6.54,6.54,0,0,1,2.29,1.38c.59.56,1,1,1.34,1.33a1.8,1.8,0,0,0,.24.19l.16.1a1.08,1.08,0,0,0,.29.11c.07,0,.07,0,0,0s-.21.14-.09,0,.38-.48.67-.77a7.93,7.93,0,0,1,.91-.83,5.74,5.74,0,0,1,.5-.36A4.08,4.08,0,0,1,271,437a2.79,2.79,0,0,1,1.6-.15,2.87,2.87,0,0,1,1.31.63A4.13,4.13,0,0,1,275,439c.15.33.25.52.22.48a.9.9,0,0,0-.65-.31c-.28,0-.35.07-.4.11-.19.2,0,.06.07-.41a40.14,40.14,0,0,0,.27-7.27,11.12,11.12,0,0,0-.32-3.2c-.23-.73-1.15-1.52-2.09-2.73a5.82,5.82,0,0,1-1.06-2.21,5.74,5.74,0,0,1,0-2.44,4,4,0,0,1,1.29-2.32,2.91,2.91,0,0,1,1.38-.6,3.87,3.87,0,0,1,1.28,0,8.14,8.14,0,0,1,3.82,1.91c1,1,1.78,1.87,2.46,1.41a8.81,8.81,0,0,0,1.28-1.23,9.55,9.55,0,0,1,1.58-1.25,8.2,8.2,0,0,1,.87-.5,1.54,1.54,0,0,1,1.19-.16,2.36,2.36,0,0,1,.92.64,4.85,4.85,0,0,1,.61.82,4.29,4.29,0,0,1,.58,1.93,8.38,8.38,0,0,1-.15,2c-.21,1.25-.54,2.56,0,3.71.27.57.69,1.07,1,1.63a2.44,2.44,0,0,1,.3,1.86,1.27,1.27,0,0,1-1.54.85A9,9,0,0,1,286.12,431Z"/><path d="M210.54,501.62c-.14-.46-.2-.94-.38-1.38a2.5,2.5,0,0,0-.9-1.08,2.46,2.46,0,0,0-2.68-.08,2.35,2.35,0,0,0-.93,1,2.33,2.33,0,0,1-.93,1.16,2.21,2.21,0,0,1-1.5,0,7,7,0,0,0-1.37-.25,1.82,1.82,0,0,0-1.8,1.47,2.2,2.2,0,0,0,1,2.14,6.65,6.65,0,0,1,1.08,1.1,2.93,2.93,0,0,1,.54,1.66,3.33,3.33,0,0,1-1.7,3,7.08,7.08,0,0,1-1.54.51,2.52,2.52,0,0,0-1,.42,3.29,3.29,0,0,0-.66.86,13.15,13.15,0,0,0-.66,1.15A1.73,1.73,0,0,0,197,515a2.29,2.29,0,0,0,1.61.57,11,11,0,0,1,3.19.42,3.93,3.93,0,0,1,.95.5c.29.22.48.39.61.48s.15.08.09,0a.19.19,0,0,0-.1,0,1.33,1.33,0,0,0,.4-.38,11.23,11.23,0,0,0,.56-1.07,5,5,0,0,1,1.19-1.63c.71-.55,1.22-.7,1.23-.77a2.16,2.16,0,0,0,.43-1.52,6.3,6.3,0,0,1,.11-.95,2.9,2.9,0,0,1,.63-1.32,2.29,2.29,0,0,1,1.75-.77,2.56,2.56,0,0,1,1.5.53,3.25,3.25,0,0,1,.86,1,4.56,4.56,0,0,1,.39.93,4.69,4.69,0,0,0,.33.92,1,1,0,0,0,.51.36,2.15,2.15,0,0,0,.47.13,3.43,3.43,0,0,0,.47,0l-.16.06c-.1.06-.08.07,0,0a2.5,2.5,0,0,1,.5-.36,2.35,2.35,0,0,1,.6-.24,4.06,4.06,0,0,1,2,0,18.16,18.16,0,0,0,2.65.64,2.81,2.81,0,0,0,2-.44,2.14,2.14,0,0,0,.62-.84,8.94,8.94,0,0,1,.72-1.4,3.16,3.16,0,0,1,.67-.7,4.24,4.24,0,0,1,.74-.4c.44-.21.64-.32.8-.61a1.82,1.82,0,0,0-.42-2.06,4.77,4.77,0,0,0-2.27-1.32,5.82,5.82,0,0,0-2.75,0,2.06,2.06,0,0,1-1.52-.25c-.43-.32-.65-.78-1-1a1.12,1.12,0,0,0-1.25.06c-.41.23-.74.59-1.18.82a1.94,1.94,0,0,1-1.44,0,3.93,3.93,0,0,1-1.31-.61A4.14,4.14,0,0,1,210.54,501.62Zm0,0a4.12,4.12,0,0,0,1.71,2.24,4.44,4.44,0,0,0,1.3.57,1.85,1.85,0,0,0,1.37-.05c.41-.22.73-.59,1.14-.87a1.82,1.82,0,0,1,.7-.29,1.31,1.31,0,0,1,.77.16c.46.27.71.73,1.07.95a1.77,1.77,0,0,0,1.27.12,14.44,14.44,0,0,1,1.43-.29,6,6,0,0,1,1.52,0,5.48,5.48,0,0,1,2.77,1.31,3.33,3.33,0,0,1,.92,1.4,2.69,2.69,0,0,1,0,1.79,2.27,2.27,0,0,1-.56.82,3.75,3.75,0,0,1-.7.49,1.73,1.73,0,0,0-.78.72A8.85,8.85,0,0,0,224,512a3.75,3.75,0,0,1-.93,1.55,4.61,4.61,0,0,1-3.34,1.21,18.74,18.74,0,0,1-3-.43,1.62,1.62,0,0,0-.84,0l-.05,0-.08.08a2.45,2.45,0,0,1-.56.41,2.17,2.17,0,0,1-.85.23,5.84,5.84,0,0,1-1,0,4.75,4.75,0,0,1-.94-.19,3.71,3.71,0,0,1-1.85-1.2,5.63,5.63,0,0,1-.84-1.69c-.17-.44-.21-.43-.28-.49s0,0,.17,0a.65.65,0,0,0,.48-.2c.16-.26,0,0,0,.46a6.91,6.91,0,0,1-.26,1.8,3.92,3.92,0,0,1-1.22,1.92,4.63,4.63,0,0,1-.88.54l-.35.19a2.58,2.58,0,0,0-.48.69,10.24,10.24,0,0,1-.83,1.46,3.85,3.85,0,0,1-1.82,1.38,2.65,2.65,0,0,1-1.51.06,2.9,2.9,0,0,1-1.17-.63c-.52-.46-.54-.51-.81-.64a9.49,9.49,0,0,0-2.47-.4,5.75,5.75,0,0,1-1.74-.5,3.49,3.49,0,0,1-1.6-1.46,3.89,3.89,0,0,1,.3-3.83,12.24,12.24,0,0,1,.9-1.27,4.87,4.87,0,0,1,1.27-1.25,4.32,4.32,0,0,1,1.68-.53,5.64,5.64,0,0,0,1.23-.25,2,2,0,0,0,1.15-1.67,1.82,1.82,0,0,0-.22-1.07,5.07,5.07,0,0,0-.84-1,4.77,4.77,0,0,1-.92-1.28,2.47,2.47,0,0,1-.1-1.65,2.43,2.43,0,0,1,2.44-1.74,6.9,6.9,0,0,1,1.44.35,2,2,0,0,0,1.32.07,2.1,2.1,0,0,0,.88-1,2.71,2.71,0,0,1,1-1,2.52,2.52,0,0,1,2.76.13,2.58,2.58,0,0,1,.89,1.12A13.51,13.51,0,0,1,210.54,501.62Z"/></g><g id="small_islands" data-name="small islands"><path d="M259.6,454.34a1.47,1.47,0,0,0,.28.86,2.18,2.18,0,0,0,.71.56c.53.31,1.09.59,1.64.87a1.22,1.22,0,0,0,.36.14c.07,0,.08,0,.12-.07a.53.53,0,0,0,.08-.17,1.91,1.91,0,0,0,0-.2,5.08,5.08,0,0,0-.27-.63,2.94,2.94,0,0,1-.36-1.12l-.06-.77.92-.11.76-.07.38,0,.17,0h.05c.07,0-.06,0-.07,0a.23.23,0,0,0-.05.05s0,0,0-.05a.81.81,0,0,0-.13-.34,2,2,0,0,0-.33-.42,6.26,6.26,0,0,1-1.1-1.32,1.67,1.67,0,0,1-.12-.23c0-.07-.09-.22,0-.12s.09.08.14.07,0,0,0,0a1.08,1.08,0,0,0-.54,0,4.14,4.14,0,0,0-1.31.5A3,3,0,0,0,259.6,454.34Zm0,0a4.31,4.31,0,0,1,.93-2.9,5.8,5.8,0,0,1,1.29-1,2,2,0,0,1,.93-.32,1.09,1.09,0,0,1,.38,0,1.08,1.08,0,0,1,.43.31c.15.21.12.17.16.21l.09.09a12.38,12.38,0,0,0,1.11.74,3,3,0,0,1,1.24,1.69,2,2,0,0,1-.16,1.43,1.74,1.74,0,0,1-.54.61,1.4,1.4,0,0,1-.77.29l-.33,0h-.21l-.38,0-.76-.07.86-.87a1.7,1.7,0,0,0,.05.67,3,3,0,0,1,.05,1.18,1.46,1.46,0,0,1-.29.67,1.19,1.19,0,0,1-.6.43,1,1,0,0,1-.78,0,2.35,2.35,0,0,1-.42-.34c-.45-.43-.91-.85-1.38-1.24a3,3,0,0,1-.66-.67A1.74,1.74,0,0,1,259.6,454.34Z"/><path d="M307.87,292.37c-.2-.1-.38-.26-.61-.22a1.51,1.51,0,0,0-.61.23.49.49,0,0,0-.21.18.36.36,0,0,0,0,.17.75.75,0,0,0,.3.34c.12.08.37.2.55.3l.29.17a2.29,2.29,0,0,1,.33.24,4.45,4.45,0,0,1,.86,1.16c.07.1,0,0-.05,0s0,0,.05,0l.12,0h0a.51.51,0,0,0-.17.07l-.08.05a.45.45,0,0,0-.13.11c-.29.4-.15.45-.17.36l0-.15.1-.3.21-.63c.16-.47.31-.79,0-1.14A6.47,6.47,0,0,0,307.87,292.37Zm0,0a7.1,7.1,0,0,0,1.05.85,1.2,1.2,0,0,1,.55.6,3.45,3.45,0,0,1,.24.73l.18.72.07.37,0,.19s0,.05,0,.17a1,1,0,0,1-.25.51,1,1,0,0,1-.17.14l-.12.06a1.06,1.06,0,0,1-.25.09l-.13,0H309l-.22,0a1.73,1.73,0,0,1-.62,0,1.84,1.84,0,0,1-1.07-.8,10.16,10.16,0,0,1-.53-1.16,2.72,2.72,0,0,0-.12-.25l-.19-.32a4.83,4.83,0,0,1-.36-.69,1.58,1.58,0,0,1-.05-.94.66.66,0,0,1,.29-.43,1,1,0,0,1,.4-.11,2.36,2.36,0,0,1,.7-.05A1.33,1.33,0,0,1,307.87,292.37Z"/><path class="cls-1" d="M321.84,284.29c-.27.49-.47,1-.79,1.5a7.22,7.22,0,0,1-1.21,1.32l-1,.9a3.25,3.25,0,0,1-.9.67,7.49,7.49,0,0,1-1.71.32,5.89,5.89,0,0,0-2.48,1.36,4.85,4.85,0,0,0-1.41,1.65,1.92,1.92,0,0,0,.23,2.05,2.93,2.93,0,0,0,2.4.51.77.77,0,0,0,.34-.08,1,1,0,0,0,.29-.41,1.86,1.86,0,0,1,1.3-.93,1.84,1.84,0,0,1,1.53.49,4.63,4.63,0,0,0,.7.7,1.86,1.86,0,0,0,.84.2,12.28,12.28,0,0,0,2.1,0,2.3,2.3,0,0,0,1.15-.34,2.16,2.16,0,0,0,.48-2.29,6,6,0,0,1-.41-2.44,3.22,3.22,0,0,1,1.38-1.87,2.15,2.15,0,0,0,.6-.52,1.67,1.67,0,0,0,.25-.73,6,6,0,0,0,0-1.64,2.67,2.67,0,0,0-.22-.84,1.71,1.71,0,0,0-1.84-.83A2.24,2.24,0,0,0,321.84,284.29Z"/><path d="M324.72,277.89c-.24.7-.9,1.18-1.14,1.84a1.14,1.14,0,0,0,0,.91.62.62,0,0,0,.61.25.85.85,0,0,0,.57-.31l0-.06.09-.11.19-.22a2,2,0,0,1,.2-.24,1.78,1.78,0,0,1,.38-.25,7.15,7.15,0,0,1,2.29-.4c.22,0,.31-.13.28-.07s.08,0,0-.28a1.45,1.45,0,0,0-.2-.59c0-.13-.34-.22-.81-.43a2,2,0,0,1-.86-1c-.17-.31-.32-.59-.63-.61a.75.75,0,0,0-.74.55A9.05,9.05,0,0,0,324.72,277.89Zm0,0c.1-.35.13-.72.23-1.07a1,1,0,0,1,.79-.81,1.36,1.36,0,0,1,1.13.52c.28.27.54.5.71.45a2.71,2.71,0,0,1,1.27.21,2.58,2.58,0,0,1,1,1.18,2.26,2.26,0,0,1,.22.78,1.76,1.76,0,0,1-.21,1.05,2.22,2.22,0,0,1-1.52,1.05,4.91,4.91,0,0,1-.74.08l-.57,0a6.9,6.9,0,0,0-.73,0l-.1,0a1.67,1.67,0,0,0-.2.13l-.22.14-.11.08-.18.1a2,2,0,0,1-1.52.13,1.4,1.4,0,0,1-1-1.06,1.63,1.63,0,0,1,.33-1.2C323.78,279,324.46,278.61,324.72,277.89Z"/><path d="M327.49,274.36a.62.62,0,0,0,.37.75l0,0c.15,0,.26-.16.36-.31a1.64,1.64,0,0,0,.15-.44,1,1,0,0,0,0-.28s0,.08.06.14.1-.09.12-.18a.24.24,0,0,0-.17-.31A.81.81,0,0,0,327.49,274.36Zm0,0a4.12,4.12,0,0,1,.18-.64,1.61,1.61,0,0,1,.41-.7,1.19,1.19,0,0,1,1.09-.3,1.51,1.51,0,0,1,1,.72,1.6,1.6,0,0,1,0,1.4,1.74,1.74,0,0,1-2.59.61l0,0A1.61,1.61,0,0,1,327.49,274.36Z"/><path d="M394.75,283.46a3.49,3.49,0,0,0-1.59-.39.75.75,0,0,0-.56.49,3.82,3.82,0,0,0-.15.79,2.14,2.14,0,0,1-.29.86,3.61,3.61,0,0,1-.6.68,3.42,3.42,0,0,0-1,1.11c-.13.38,0,.53.31.94a8.34,8.34,0,0,1,.53.73,2.13,2.13,0,0,1,.33,1.23c0,.42-.12.72-.13.9s.06.12,0,0-.09-.07,0-.08l.1,0,.11-.07a14.81,14.81,0,0,0,1-1.08,2.92,2.92,0,0,1,1-.64,2.25,2.25,0,0,1,.71-.12,2.13,2.13,0,0,1,.64.09c.32.11.36.1.25.16s0,.08,0,.06a.58.58,0,0,0,.1-.19,6.21,6.21,0,0,1,.3-.91,2.9,2.9,0,0,1,.19-.29c.07-.06.13-.13.19-.19a3.47,3.47,0,0,1,.4-.3c.52-.33.9-.5,1.09-.93a1.5,1.5,0,0,0-.08-1.41C397,284.05,395.76,283.82,394.75,283.46Zm0,0c.52.18,1.06.3,1.6.47a3.31,3.31,0,0,1,1.5.79,2,2,0,0,1,.43.82,2.69,2.69,0,0,1,0,.94,3.07,3.07,0,0,1-1,1.54,1.74,1.74,0,0,0-.22.27.54.54,0,0,0-.07.13.15.15,0,0,0,0,.07c0,.13,0,.39,0,.72a1.76,1.76,0,0,1-.15.59,1.34,1.34,0,0,1-.58.65,1.47,1.47,0,0,1-.85.2c-.24,0-.4,0-.52-.06s-.16,0-.28.05a2.1,2.1,0,0,0-.34.31,7.88,7.88,0,0,1-1.24,1.33,2.56,2.56,0,0,1-.62.32,2.27,2.27,0,0,1-.72.12,1.89,1.89,0,0,1-1.51-.69,1.79,1.79,0,0,1-.28-1.56c.09-.37.19-.6.21-.73s0-.51-.35-1.07a2.77,2.77,0,0,1-.3-1.05,1.66,1.66,0,0,1,.34-1.13,4.35,4.35,0,0,1,1.48-1.08,1.78,1.78,0,0,0,1-1.12,4.44,4.44,0,0,1,.27-.8.93.93,0,0,1,.7-.49A3.89,3.89,0,0,1,394.75,283.46Z"/><path d="M390.14,295.48c-.61-.72-1.4-1.28-2-2a3.42,3.42,0,0,1-1.05-2.63c.07-1,.25-1.92-.3-2.6a8.88,8.88,0,0,1-.83-1.24,3.93,3.93,0,0,1-.25-1.57,2.62,2.62,0,0,0-.19-1.15c-.07-.14-.17-.2-.18-.18s-.13,0-.37.05c-.44.05-.64.19-.64.28s0,0,0-.08.05,0,.24.15a2.58,2.58,0,0,1,.77.73,1.81,1.81,0,0,1,.18,1.38,4.36,4.36,0,0,1-.88,1.54l-.84,1.13a4.26,4.26,0,0,0-.57.95,4,4,0,0,0-.22,1.14,6.33,6.33,0,0,0,0,1.21,1,1,0,0,0,.3.7c.23.24.71.61,1.06,1a3.92,3.92,0,0,1,.9,1.52,2.62,2.62,0,0,1-.07,1.87l-.32.65a1.11,1.11,0,0,0-.11.45,1.54,1.54,0,0,0,.33,1,1.19,1.19,0,0,0,.85.49.39.39,0,0,0,.34-.16,1.66,1.66,0,0,0,.26-.55,2.84,2.84,0,0,1,.36-.72.93.93,0,0,1,.84-.34,4.86,4.86,0,0,1,1.37.56,1.71,1.71,0,0,0,1.3.16.8.8,0,0,0,.48-.42,1.68,1.68,0,0,0,.06-.68,3.29,3.29,0,0,0-.08-1.4A3.74,3.74,0,0,0,390.14,295.48Zm0,0a3.88,3.88,0,0,1,.73,1.22,3.55,3.55,0,0,1,.12,1.41,2,2,0,0,1,0,.72.92.92,0,0,1-.52.54,1.89,1.89,0,0,1-1.46-.06,4.15,4.15,0,0,0-1.3-.39c-.38,0-.48.33-.59.8a2.41,2.41,0,0,1-.26.77,1.1,1.1,0,0,1-.83.56,2.05,2.05,0,0,1-1.67-.59,2.64,2.64,0,0,1-.8-1.58,2.37,2.37,0,0,1,.07-.95l.23-.66a1.76,1.76,0,0,0-.73-1.75c-.31-.29-.61-.47-1.08-.86a2.74,2.74,0,0,1-.66-.82,3.21,3.21,0,0,1-.3-1,7.48,7.48,0,0,1,0-1.63,6,6,0,0,1,.29-1.65,6.46,6.46,0,0,1,.89-1.48l.9-1.12a4.9,4.9,0,0,0,.63-.85c0-.08,0,0,.05,0s-.06-.1-.26-.25a2.17,2.17,0,0,1-.73-.87,1.51,1.51,0,0,1,.18-1.43,1.79,1.79,0,0,1,.95-.69,3.15,3.15,0,0,1,.9-.13,2.08,2.08,0,0,1,1,.17,1.5,1.5,0,0,1,.72.89,3.54,3.54,0,0,1,.08,1.66,3.43,3.43,0,0,0,0,1.24,7.22,7.22,0,0,0,.61,1.21,2.62,2.62,0,0,1,.3,1.52c-.05.5-.19,1-.24,1.42a3.07,3.07,0,0,0,.83,2.55C388.77,294.16,389.55,294.74,390.14,295.48Z"/><path d="M369.06,315.51a2.9,2.9,0,0,0-.5.23,1.37,1.37,0,0,0-.4.25c-.1.08-.12.16-.09.21s0,0,.07,0l.07.07a1.46,1.46,0,0,0,.22.54.41.41,0,0,0,.21.14c.07,0,.1,0,.22,0a.53.53,0,0,0,.2-.05s.06,0,.05,0,.06.06.06,0,0,0,.07-.08a.34.34,0,0,1,.07-.16c0-.06.07,0,0-.11l0-.23a1.4,1.4,0,0,0,0-.41A1,1,0,0,0,369.06,315.51Zm0,0a1.07,1.07,0,0,1,1.17.45l.2.22a1,1,0,0,1,.18.38c0,.14.06.26.08.35a1.51,1.51,0,0,1-.39,1.28,2.15,2.15,0,0,1-.64.52,2.63,2.63,0,0,1-.85.26,2.27,2.27,0,0,1-.9-.15,2.11,2.11,0,0,1-1.21-1.24,2.2,2.2,0,0,1-.14-.76,3.05,3.05,0,0,1,.09-.7,3.09,3.09,0,0,1,.14-.43,1.09,1.09,0,0,1,.35-.41,1.38,1.38,0,0,1,.8-.25,1.82,1.82,0,0,1,.61.16A1.37,1.37,0,0,1,369.06,315.51Z"/><path d="M365.3,317.2a.67.67,0,0,0-.18.66,1.45,1.45,0,0,0,.39.62c.19.14.18-.06.31-.09l.1-.07s0-.07-.23,0a.78.78,0,0,0-.39.44c-.06.18,0,.23,0,.16a2.42,2.42,0,0,1,.1-.45,1.89,1.89,0,0,1,.09-.21,1.08,1.08,0,0,1,.12-.22.48.48,0,0,1,.23-.16c.17,0,.1-.41.05-.57A.37.37,0,0,0,365.3,317.2Zm0,0a.69.69,0,0,1,.76-.08,2.87,2.87,0,0,1,.39.23,1,1,0,0,1,.38.44,4.41,4.41,0,0,1,.15.56.26.26,0,0,0,.06.15,1.09,1.09,0,0,1,.08.15,1.9,1.9,0,0,1,.1.28,1.21,1.21,0,0,1-.05.52,1.27,1.27,0,0,1-.64.7,1.28,1.28,0,0,1-.95.06,1.59,1.59,0,0,1-.59-.31,1.77,1.77,0,0,1-.42-.58,1.31,1.31,0,0,1,0-.67A3.23,3.23,0,0,1,365.3,317.2Z"/><path d="M362.18,319.13a1,1,0,0,0,.72,1.16c.25,0,.15-.15.32-.23l.14-.07a.44.44,0,0,0-.29.06.55.55,0,0,0-.18.13l-.06.08h0s0,0,0,0,0-.08.05-.16,0-.08.11,0,.14,0,.08-.12a2,2,0,0,1-.17-.51c-.05-.29,0-.5-.2-.64S362.2,318.86,362.18,319.13Zm0,0a.63.63,0,0,1,.55-.6,2,2,0,0,1,1,.33c.14.08.21.05.34.09a1.16,1.16,0,0,1,.55.49,2,2,0,0,1,.21.73,1.74,1.74,0,0,1-.05.62,1.8,1.8,0,0,1-.15.37.41.41,0,0,1,0,.09c0,.06-.09.11-.13.16a1.31,1.31,0,0,1-.31.27,1.41,1.41,0,0,1-.66.15l-.25-.05a2.06,2.06,0,0,1-.64-.29,1.36,1.36,0,0,1-.41-.56A3.93,3.93,0,0,1,362.18,319.13Z"/><path d="M362.26,324.29c0,.16,0,.34.1.47a.76.76,0,0,0,.37.29,4.05,4.05,0,0,0,.5.12c.18.06.29,0,.63.21l.11.11h0s.06.05,0,0-.11-.13,0-.15.23-.1.13-.14a.34.34,0,0,0-.25.09.68.68,0,0,0-.17.22c0,.05,0,.06,0,0s0,0,.06.17,0,0,0,0l-.09-.14c-.06-.09-.1-.19-.15-.28a2.86,2.86,0,0,1-.18-.57,2.77,2.77,0,0,1,0-.84.39.39,0,0,0-.51-.33A.85.85,0,0,0,362.26,324.29Zm0,0a1.71,1.71,0,0,1,.34-1,1.09,1.09,0,0,1,1.32-.21,3.79,3.79,0,0,1,.95.88l.28.31.11.14.06.07a.89.89,0,0,1,.14.19,1.37,1.37,0,0,1,.18.65,1.77,1.77,0,0,1-.05.53,1.29,1.29,0,0,1-.38.66,1.27,1.27,0,0,1-.68.33,1.45,1.45,0,0,1-.85-.18,1.93,1.93,0,0,1-.48-.33c-.12-.14-.08-.16-.12-.25l0-.1,0,0c.11,0-.11-.23-.2-.35l-.34-.4a1.41,1.41,0,0,1-.26-.48A2.15,2.15,0,0,1,362.26,324.29Z"/><path d="M357.4,359.51c-.33-.26-.68-.63-1.13-.57a11.91,11.91,0,0,0-1.3.25l-1.28.33c-.44.1-.84.28-.82.45a.78.78,0,0,0,.3.56,3.87,3.87,0,0,0,.9.48,4.59,4.59,0,0,1,.68.4,3.12,3.12,0,0,1,.65.66c.33.46.5.83.68,1a3,3,0,0,0,1.56,1l.32.06c.07,0,0,.06,0,.1s.08-.18.13-.48a1.88,1.88,0,0,1,.4-.84c.35-.41.73-.63.93-.92a1,1,0,0,0,0-1C359.09,360.24,358.1,360,357.4,359.51Zm0,0c.72.52,1.68.58,2.31,1.34a1.46,1.46,0,0,1,.3,1.45c-.19.51-.51.88-.63,1.21a.57.57,0,0,0-.05.39,1.8,1.8,0,0,1,0,.83,1.44,1.44,0,0,1-.89.95,2.39,2.39,0,0,1-1,.16,3.91,3.91,0,0,1-2.94-1.49,8.59,8.59,0,0,1-.71-1.2,1.31,1.31,0,0,0-.23-.32,2.93,2.93,0,0,0-.4-.35,4.2,4.2,0,0,1-1.15-1.16,2.25,2.25,0,0,1-.27-.9,1.45,1.45,0,0,1,.3-1,1.3,1.3,0,0,1,.84-.46,4.45,4.45,0,0,1,.72,0h1.33c.44,0,.88-.06,1.33-.05S357.07,359.24,357.4,359.51Z"/><path d="M353,354.86a.69.69,0,0,0-.64,1.12c.07.07.16,0,.31,0a1.45,1.45,0,0,1,.74.09,1.33,1.33,0,0,1,.49.39,2.78,2.78,0,0,1,.25.34c.06.08.1.1.1.07s-.09-.14-.12-.16,0,0,.16,0a2.17,2.17,0,0,1,.45.19l.13.1.06,0,0,0a.72.72,0,0,0-.64.11.52.52,0,0,0-.25.47c0,.12.05.1.06.1s0-.18-.06-.36-.07-.2-.11-.29a2.49,2.49,0,0,1-.11-.29.72.72,0,0,1,0-.35c.08-.28.16-.37.21-.57a.76.76,0,0,0,0-.47A1.3,1.3,0,0,0,353,354.86Zm0,0a2.74,2.74,0,0,1,1.16.36c.41.33.45.91.58,1.22,0,0,0-.06,0-.07s0,0,.05,0l.26.17a1.8,1.8,0,0,1,.58.61,1.35,1.35,0,0,1,.16.67,1.19,1.19,0,0,1-.5,1,1.27,1.27,0,0,1-1.21.13l-.18-.09-.05,0-.12-.07c-.12-.09,0,0-.07-.06s-.19-.07-.4-.17a1.51,1.51,0,0,1-.56-.53,1.32,1.32,0,0,1-.17-.46c-.06-.23,0-.18.09-.22s-.13-.19-.36-.34a1.08,1.08,0,0,1-.5-.75,1.39,1.39,0,0,1,.15-.73A1.5,1.5,0,0,1,353,354.86Z"/><path d="M347.31,379.4c-.66-.41-.17-1.43-.77-1.75a1.44,1.44,0,0,0-.86-.22c-.17.05-.19.22-.27.51s0,.55.09.48-.05-.11.05-.1a1.63,1.63,0,0,1,.67.22,1.8,1.8,0,0,1,.86,1.74,2.22,2.22,0,0,1-.25.79,4,4,0,0,0-.18.4,6.36,6.36,0,0,0-.27.77c-.07.25-.1.6-.15.52s-.18-.14-.19-.09.09.07.24.09.19,0,.16.09.11,0,.24-.18c.65-.69,1.36-.67,1.29-1.37A3.11,3.11,0,0,0,347.31,379.4Zm0,0a5.06,5.06,0,0,1,.92,1.84,1.23,1.23,0,0,1,.07.61,1.39,1.39,0,0,1-.27.56,3,3,0,0,0-.5.8,1.54,1.54,0,0,1-.38.63,1.76,1.76,0,0,1-.82.33,1.86,1.86,0,0,1-.78,0,1.34,1.34,0,0,1-.92-.76,2,2,0,0,1-.18-.88,4.36,4.36,0,0,1,0-.63,4.55,4.55,0,0,1,.33-1.2c.08-.18.19-.4.26-.52s.1-.18.1-.16.05,0,.07-.05,0-.08-.27-.19a1.48,1.48,0,0,1-.72-.74,1.69,1.69,0,0,1,.26-1.51,2.11,2.11,0,0,1,.46-.5,1,1,0,0,1,.76-.18,2,2,0,0,1,1,.61,1.26,1.26,0,0,1,.25,1,1.4,1.4,0,0,0,0,.5A2.34,2.34,0,0,0,347.31,379.4Z"/><path d="M343.75,383.25c-.1,0-.21-.1-.3-.05a.27.27,0,0,0-.14.23,1.06,1.06,0,0,0,.19.59c.13.15.3.13.32,0s-.16-.27,0-.23a1.92,1.92,0,0,1,.32.05s-.1.05-.17.15a.27.27,0,0,0-.05.3.14.14,0,0,0,.19,0,.48.48,0,0,0,.07-.54A.9.9,0,0,0,343.75,383.25Zm0,0a6.06,6.06,0,0,0,.62.27,1.39,1.39,0,0,1,.73.55,1,1,0,0,1,.16.62,1.08,1.08,0,0,1-.43.79,1.43,1.43,0,0,1-.79.28,1.22,1.22,0,0,1-.33,0,1.47,1.47,0,0,1-1.19-.63,1.2,1.2,0,0,1,0-1.22,3.22,3.22,0,0,1,.57-.64.64.64,0,0,1,.36-.15C343.56,383.12,343.65,383.22,343.75,383.25Z"/><path d="M342.22,386.44a.49.49,0,0,0-.12.49.63.63,0,0,0,.38.3c.17.06.36.06.57.14a2.11,2.11,0,0,1,.61.37.35.35,0,0,0,.33.06l.34-.05.43,0s-.12-.05-.35.08a.69.69,0,0,0-.32.45c0,.28.07.27,0,.07a5,5,0,0,1-.14-.55,9.38,9.38,0,0,0-.16-.93,1.13,1.13,0,0,0-.6-.71A.83.83,0,0,0,342.22,386.44Zm0,0a1.38,1.38,0,0,1,1-.58,2.21,2.21,0,0,1,1.3.27,3.73,3.73,0,0,1,1,.9,4.6,4.6,0,0,1,.31.45,1.45,1.45,0,0,1,.26,1.1,1.3,1.3,0,0,1-.59.89,1.25,1.25,0,0,1-.88.17,2.61,2.61,0,0,1-.65-.21,2.8,2.8,0,0,1-.67-.43,1.6,1.6,0,0,1-.44-.7c-.06-.21,0-.3-.11-.44a4.5,4.5,0,0,0-.38-.4,1,1,0,0,1-.3-.52A.6.6,0,0,1,342.22,386.44Z"/><path d="M304.38,386.77a1.47,1.47,0,0,0-1.37.48,1.13,1.13,0,0,0-.08,1.24,1.27,1.27,0,0,0,.83.54.78.78,0,0,0,.21,0,1.69,1.69,0,0,1,.44.07,1.58,1.58,0,0,1,.79.56c.12.18.14.14,0,0-.31-.11.09,0,.22,0s.19,0,.19.07.35-.16.29-.6a7.13,7.13,0,0,0-.44-1.48,1.51,1.51,0,0,0-.36-.67A1.11,1.11,0,0,0,304.38,386.77Zm0,0a1.48,1.48,0,0,1,.76.21,2.62,2.62,0,0,1,.56.59c.31.41.74.7,1.12,1.23a1.8,1.8,0,0,1-.1,2.31,2.06,2.06,0,0,1-1.27.53,2.89,2.89,0,0,1-.51,0,1.68,1.68,0,0,1-.81-.24,1.84,1.84,0,0,1-.53-.55c-.06-.06.18.13.19.09a1.38,1.38,0,0,0-.33-.12,2.41,2.41,0,0,1-1.51-2.15,2,2,0,0,1,.87-1.62A2.29,2.29,0,0,1,304.38,386.77Z"/><path d="M231.54,470.37a2.57,2.57,0,0,0-1.27-.16.91.91,0,0,0-.16.46c0,.2.08.2.19.28.32.24.69.58,1,.79a6.19,6.19,0,0,0,.8.52,2.22,2.22,0,0,0,.32.14,1.52,1.52,0,0,1,.38.11s-.05,0-.15.18,0,.2,0,.15a2.84,2.84,0,0,0,.2-.45.55.55,0,0,0-.07-.46c-.1-.19-.23-.39-.35-.59A1.88,1.88,0,0,0,231.54,470.37Zm0,0a4.32,4.32,0,0,1,1.07.78c.18.13.38.22.59.36a3,3,0,0,1,.32.24,1.57,1.57,0,0,1,.29.42,2.76,2.76,0,0,1,.21.87,1.14,1.14,0,0,1-.26.75,1.35,1.35,0,0,1-.74.43,4.4,4.4,0,0,1-.94.09,2.65,2.65,0,0,1-.93-.28,3,3,0,0,1-1.2-1.2,6.57,6.57,0,0,1-.52-1.4,1.46,1.46,0,0,1-.06-.53,1.14,1.14,0,0,1,.19-.46,1.56,1.56,0,0,1,.27-.3.64.64,0,0,1,.41-.2A9.9,9.9,0,0,1,231.54,470.37Z"/><path d="M249.92,472.39c-.75-.45-2.12-.66-2.21.12a.57.57,0,0,0,.29.59c.08,0,.1,0,.26.09a5.47,5.47,0,0,1,.59.27,11.67,11.67,0,0,1,1.13.67,2.9,2.9,0,0,0,.43.26l.21.08s.1,0,.06,0-.15.17-.13.22.06-.08.08-.17a3.43,3.43,0,0,0,.06-.34,2.61,2.61,0,0,0,0-.68A1.79,1.79,0,0,0,249.92,472.39Zm0,0a3.58,3.58,0,0,1,1,1.05,5,5,0,0,1,.36.69c.05.12.11.24.15.37a.94.94,0,0,1,.08.54.8.8,0,0,1-.36.48l-.29.14a2.26,2.26,0,0,1-.49.14,3,3,0,0,1-1,0,5.88,5.88,0,0,1-1.46-.53c-.21-.12-.39-.2-.67-.39a2,2,0,0,1-.76-.87,1.79,1.79,0,0,1,.41-2.09,1.47,1.47,0,0,1,1.71-.16A11.83,11.83,0,0,1,249.92,472.39Z"/><path d="M258.65,483.32a2.14,2.14,0,0,0-1.74-.28,3,3,0,0,0-1.48.95,1.72,1.72,0,0,0-.54,1.42c.06.19.19.27.46.49a1.54,1.54,0,0,1,.41.5,1.24,1.24,0,0,1,.08.8,5.78,5.78,0,0,1-.42,1,.5.5,0,0,0,0,.43.81.81,0,0,0,.6.52,4.84,4.84,0,0,1,1,.14,2,2,0,0,1,.72.38c.19.14.3.26.37.31s.08.05,0,0-.06,0-.06,0,0,0,0,.09l.76-.67a3.84,3.84,0,0,1,1.06,0,2,2,0,0,1,.71.24,2.51,2.51,0,0,1,.43.34.48.48,0,0,0,.27.16,2.29,2.29,0,0,0,.6.07.89.89,0,0,1,.22,0s-.09.09-.08.12.09-.08.08-.27a2.45,2.45,0,0,0-.47-1.18,13.68,13.68,0,0,1-.84-1.36,14.35,14.35,0,0,1-.62-1.47C259.71,485.07,259.53,484,258.65,483.32Zm0,0c.87.62,1.14,1.73,1.66,2.6a8.17,8.17,0,0,0,.84,1.29,9.07,9.07,0,0,0,1.07,1.08,3.37,3.37,0,0,1,1,1.52,1.54,1.54,0,0,1-.1,1.24,1.21,1.21,0,0,1-.69.57,2.64,2.64,0,0,1-.55.12,3.54,3.54,0,0,1-.95.05,2.32,2.32,0,0,1-1.15-.43c-.3-.21-.15-.09-.23-.11a3.21,3.21,0,0,0-.48.08l.76-.67a1.9,1.9,0,0,1-1.37,1.25,1.75,1.75,0,0,1-1,0,2,2,0,0,1-.76-.44c-.16-.14-.26-.25-.31-.3s0,0-.07-.06-.4-.09-.83-.21a2.35,2.35,0,0,1-1.67-2.08,2,2,0,0,1,.39-1.32c.23-.3.42-.5.49-.6s.12-.1-.06-.35a1.88,1.88,0,0,1-.5-1,2.28,2.28,0,0,1,1-1.75A2.88,2.88,0,0,1,258.65,483.32Z"/><path d="M265.41,494.53a1.57,1.57,0,0,0-1.3-.47,1.12,1.12,0,0,0-.92.72.71.71,0,0,0,.15.76,4.09,4.09,0,0,0,.68.47,9.28,9.28,0,0,1,1.12.77c.14.13.29.23.28.27s-.13.11-.12.17.08,0,.12-.07a5.47,5.47,0,0,0,.31-.64,2.52,2.52,0,0,0,.16-.67A1.69,1.69,0,0,0,265.41,494.53Zm0,0a4.11,4.11,0,0,1,1,2.84,1.22,1.22,0,0,1-.16.6,1.12,1.12,0,0,1-.75.49,2.56,2.56,0,0,1-1.11-.12,7,7,0,0,1-1.43-.63,2.64,2.64,0,0,1-1.25-1.62,1.93,1.93,0,0,1,.73-2,2,2,0,0,1,1.69-.34A2.7,2.7,0,0,1,265.41,494.53Z"/><path d="M238,489.18a5.41,5.41,0,0,0-.07-2.85.5.5,0,0,1,.45-.55l.72-.07,1.44-.15c.92-.09,2-.31,2.37-1s-.08-1.55-.67-2.14a2.44,2.44,0,0,0-.46-.35,3.19,3.19,0,0,0-.57-.21,3.06,3.06,0,0,1-1.45-1c-.72-.9-1.05-1.82-1.58-2.33a1.23,1.23,0,0,0-.71-.44c-.12,0-.16,0-.2,0s0,0,0-.07,0-.15,0,0a1.9,1.9,0,0,1-.05.66,1.44,1.44,0,0,1-.71.87,1.84,1.84,0,0,1-.81.19,3.09,3.09,0,0,1-.62-.09l-.34-.11c-.18-.05-.15,0,0-.07l.32-.27s-.11.24-.06.64a14.7,14.7,0,0,1,.17,1.47,6,6,0,0,1-.14,1.66,2.85,2.85,0,0,1-1.09,1.72A2,2,0,0,1,233,485c-.29,0-.43,0-.37,0s0-.06,0,0a.35.35,0,0,0,0,.15s0,0,0,0a1.14,1.14,0,0,0,.23.1,1.41,1.41,0,0,1,.9.77,1.7,1.7,0,0,1-.48,1.89c-.42.4-.86.6-1.17.87a1.14,1.14,0,0,0-.48,1,1.93,1.93,0,0,0,1.68,1.66,3.8,3.8,0,0,0,2.68-.48c.41-.22.85-.41,1.25-.65A2.1,2.1,0,0,0,238,489.18Zm0,0a2.08,2.08,0,0,1-.88,1.08c-.4.26-.83.46-1.24.69a4.15,4.15,0,0,1-2.75.68,3,3,0,0,1-1.4-.53,2.11,2.11,0,0,1-.83-1.34,1.91,1.91,0,0,1,.52-1.59c.36-.4.76-.67,1-1a.59.59,0,0,0,.13-.7c-.06-.05,0,0-.19-.05a3,3,0,0,1-.44-.13,1.34,1.34,0,0,1-.55-.45,1.63,1.63,0,0,1-.27-1.21,1.51,1.51,0,0,1,.77-1.11,2.43,2.43,0,0,1,1-.22c.18,0,.15-.05.21-.09a1.33,1.33,0,0,0,.28-.69,5.55,5.55,0,0,0,0-1.16c0-.4-.12-.77-.21-1.34a2.75,2.75,0,0,1,.41-2.07l.11-.17.2-.11a1.55,1.55,0,0,1,.87-.2,2,2,0,0,1,.59.11l.35.11.09,0s0,0-.11,0a.54.54,0,0,0-.26.33c0,.13,0,.09,0-.05a1.76,1.76,0,0,1,.11-.75,2,2,0,0,1,2.32-1,3,3,0,0,1,1.66,1.12,5.9,5.9,0,0,1,.81,1.42,7.34,7.34,0,0,0,.58,1.19,1.8,1.8,0,0,0,.78.74,4.73,4.73,0,0,1,.73.41,2.92,2.92,0,0,1,.6.62,3.9,3.9,0,0,1,.71,1.46,2,2,0,0,1-.3,1.67,2.26,2.26,0,0,1-1.38.81,7.37,7.37,0,0,1-1.47.13l-1.45,0h-.72a.39.39,0,0,0-.38.44A5.4,5.4,0,0,1,238,489.18Z"/><path d="M209,518c-.12.48,0,1-.16,1.48a3.2,3.2,0,0,0-.18.67c0,.22.09.29.21.29a2.79,2.79,0,0,0,.57,0l.06,0s0,0,0,0a.67.67,0,0,1,.12-.06,1.18,1.18,0,0,1,.29-.11,1.05,1.05,0,0,1,.52.09,5.1,5.1,0,0,1,.47.28c.07,0,.07,0,.11,0s.11-.06.11-.08l-.57.53c0-.06,0-.22-.09-.54a5.07,5.07,0,0,1-.09-.56,1.31,1.31,0,0,1,0-.44,1.2,1.2,0,0,1,.4-.69,1.37,1.37,0,0,1,.66-.28s.1,0,.16,0,.07,0,.09-.05a.89.89,0,0,0,0-.34,2.33,2.33,0,0,0-.39-.79.93.93,0,0,0-.72-.43A1.58,1.58,0,0,0,209,518Zm0,0a2.29,2.29,0,0,1,1.49-1.51,1.65,1.65,0,0,1,1.26.15,3.57,3.57,0,0,1,1,.77,2.18,2.18,0,0,1,.39.64,1.62,1.62,0,0,1,.06,1,1.87,1.87,0,0,1-1.33,1.36c-.12,0-.1.09.16-.1a.83.83,0,0,0,.28-.46c0-.14,0-.18,0-.17s.05.29.08.48a2.71,2.71,0,0,1-.16,1.56l-.2.43-.37.1a1.78,1.78,0,0,1-1.33-.17,1.82,1.82,0,0,1-.49-.4c-.09-.13-.14-.19-.09-.19a.47.47,0,0,0,.17,0s0,0-.06,0h-.06l-.18,0a1.36,1.36,0,0,1-.3,0,2.44,2.44,0,0,1-.83-.4.79.79,0,0,1-.26-1,5.62,5.62,0,0,1,.42-.65A5.8,5.8,0,0,0,209,518Z"/><path d="M234.28,514.35a1.34,1.34,0,0,0-1.79-.42,1.45,1.45,0,0,0-.52,1.6,2.72,2.72,0,0,0,.84,1.42,4.3,4.3,0,0,0,1.34.8,6.61,6.61,0,0,0,.79.25c.13,0,.34.07.28.08a.39.39,0,0,0-.19.1c-.06.06-.05.08,0,.07a.8.8,0,0,0,.11-.14c.07-.1.16-.22.23-.3s.3-.29.43-.41.53-.43.72-.62.28-.26.15-.47a3,3,0,0,0-.8-.54A5.08,5.08,0,0,1,234.28,514.35Zm0,0a3.11,3.11,0,0,0,1.66,1.16,4.09,4.09,0,0,1,1.08.33.93.93,0,0,1,.45.66,1.59,1.59,0,0,1-.1.75,6.42,6.42,0,0,1-.52,1,3.41,3.41,0,0,0-.22.41.56.56,0,0,0,0,.15,1.64,1.64,0,0,1-.13.32,1.46,1.46,0,0,1-.38.45,1.29,1.29,0,0,1-.67.28,3.81,3.81,0,0,1-.77,0,4.84,4.84,0,0,1-1.22-.3,4,4,0,0,1-2-1.62,3.54,3.54,0,0,1-.46-2.48,2.87,2.87,0,0,1,.46-1.13,1.59,1.59,0,0,1,.95-.7,2,2,0,0,1,1.08,0,1.44,1.44,0,0,1,.48.24A3.19,3.19,0,0,1,234.28,514.35Z"/><path d="M242.72,543.8a1.67,1.67,0,0,0-.64-.41,1.47,1.47,0,0,0-.75,0,3.7,3.7,0,0,1-1.54.27,9.15,9.15,0,0,0-1.44-.34.6.6,0,0,0-.47.17.55.55,0,0,0-.09.39,1.41,1.41,0,0,0,.46,1,1.55,1.55,0,0,0,.94.38,9,9,0,0,1,1.6.28,3.1,3.1,0,0,1,1,.51,2.24,2.24,0,0,1,.75,1.05c.23.81.18,1.26.25,1.33a1.2,1.2,0,0,0,.61.51,1.3,1.3,0,0,0,1.72-.42.34.34,0,0,0,0-.35,2.4,2.4,0,0,0-.51-.46,1,1,0,0,1-.45-.87,4.34,4.34,0,0,1,.27-.76c.18-.45-.14-.92-.5-1.26S243.1,544.14,242.72,543.8Zm0,0c.39.33.82.6,1.21.93a3.25,3.25,0,0,1,.54.57,1.07,1.07,0,0,1,.18.8,3.14,3.14,0,0,0-.1.72c0,.16.14.25.34.35a3.61,3.61,0,0,1,.75.41,1.28,1.28,0,0,1,.44,1,2.12,2.12,0,0,1-1.18,1.69,3.1,3.1,0,0,1-2,.26,2.81,2.81,0,0,1-1.82-1.22,6,6,0,0,1-.46-1.64c0-.1-.14-.24-.49-.4s-.8-.23-1.37-.43a2.94,2.94,0,0,1-1.61-1.2,2.51,2.51,0,0,1-.33-1.92,1.27,1.27,0,0,1,1.61-1,11.53,11.53,0,0,1,1.44.68,3.06,3.06,0,0,0,1.46-.08,1.67,1.67,0,0,1,.77,0A1.81,1.81,0,0,1,242.72,543.8Z"/></g></svg>