<svg id="Layer_1" data-name="Layer 1" xmlns="http://www.w3.org/2000/svg" viewBox="0 0 600 600"><title>samoa</title><path d="M64.72,205.18c.41.07.82.14,1.23.19s.8.17,1.21.22c.81.15,1.64.22,2.48.33a18.59,18.59,0,0,1,4.88,1.28c3.15,1.19,6.16,2.75,9.1,4.19a8.48,8.48,0,0,0,3.83,1.12,2.63,2.63,0,0,0,.7-.13,4.19,4.19,0,0,0,.69-.29,5.87,5.87,0,0,0,1.3-1.05c.92-.91,1.88-2.23,3.38-3.67a10.86,10.86,0,0,1,2.91-2,9.3,9.3,0,0,1,4.13-.78c1.19,0,2.06.12,2.73.1a14.35,14.35,0,0,0,1.85-.21,15,15,0,0,0,3.6-1.22,9.89,9.89,0,0,0,1.56-.93l1.74-1.19c.65-.45,1.37-.93,2.21-1.44.42-.25.86-.51,1.34-.76a12.6,12.6,0,0,1,1.73-.77c2.91-1,5.12-1.18,6.18-1.52a2.66,2.66,0,0,0,.62-.24c.12-.08.43-.19.63-.3a13.69,13.69,0,0,0,1.35-.62,17.85,17.85,0,0,0,2.29-1.48,32.46,32.46,0,0,1,3.28-2.46,21.5,21.5,0,0,1,3.24-1.65,17,17,0,0,1,4.49-1.15,17.23,17.23,0,0,1,8,1.15,48.4,48.4,0,0,0,5,1.73,12,12,0,0,0,3,.4c.14,0,.19,0,.3,0s.1,0,.14-.05.11,0,.16-.07a5.38,5.38,0,0,0,.42-.4,22.19,22.19,0,0,1,2.44-2.39,9.63,9.63,0,0,1,5.11-2.05,12.76,12.76,0,0,1,4.44.39,17.12,17.12,0,0,1,3.41,1.27c2.09,1.07,3.57,2.09,4.8,2.82a5.71,5.71,0,0,0,2.59,1,3.73,3.73,0,0,0,1.75-.45,3.81,3.81,0,0,0,.81-.54,3.14,3.14,0,0,0,.71-.72c.06-.09.07-.16,0-.15a.2.2,0,0,0-.11.07l-.09.1c-.06.07-.11.16-.16.23-.19.3-.25.47-.25.3a8.86,8.86,0,0,1,.2-1.48,11.16,11.16,0,0,1,1.14-3.08,10.89,10.89,0,0,1,2.47-3,12.2,12.2,0,0,1,3-1.88,16.81,16.81,0,0,1,2.58-.88,30.5,30.5,0,0,1,3.68-.63,8.17,8.17,0,0,0,2-.38c1.53-.57,3.73-1.84,6.95-3.49a37.61,37.61,0,0,1,5.88-2.47,24.3,24.3,0,0,1,8.56-1.09,21.56,21.56,0,0,1,4.84.8,27.41,27.41,0,0,1,4.36,1.67,36,36,0,0,1,6.71,4.32A57.51,57.51,0,0,1,239,184c.67.65,1.24,1.3,1.8,1.95l1.7,2c1.15,1.29,2.35,2.5,3.53,3.74s2.34,2.47,3.52,3.67c4.68,4.85,9.39,9.45,13.79,13.9l6.41,6.56,1.52,1.6.19.2.1.1.17.2.68.79,1.35,1.6a9,9,0,0,1,2,3.48,10.47,10.47,0,0,1,.22,2c0,.7,0,1.42,0,2.06a8.65,8.65,0,0,0,.5,3.47l1,2.92c.36.94.65,1.82.94,2.68l.94,2.46c1.28,3.14,2.44,5.68,3.17,7.81.09.26.18.53.25.8s.16.48.23.74.12.52.19.74a6.55,6.55,0,0,1,.2.67,5,5,0,0,0,.18.67l.16.67a3.62,3.62,0,0,0,.47,1c.23.44.46.83.71,1.32a45.12,45.12,0,0,1,3,7,25.32,25.32,0,0,1,1.07,4.78,20.56,20.56,0,0,1-.09,5.53,17.69,17.69,0,0,1-1.69,5.24,18,18,0,0,1-2.63,3.92,42.56,42.56,0,0,1-4.61,4.23l-.41.35-.12.1-.07,0a1.24,1.24,0,0,0-.27.17,2.33,2.33,0,0,0-.59.66,17.41,17.41,0,0,0-1.31,3.7c-.25.86-.56,1.92-.94,3a20.42,20.42,0,0,1-1.62,3.44,19.9,19.9,0,0,1-1.12,1.7c-.17.26-.44.59-.69.9l-.73.79c-1,1-1.73,1.59-2.23,2s-.68.68-.58.55a1,1,0,0,0,.24-.52c0-.14,0-.1,0,.12s.16.66.34,1.21.43,1.2.73,2,.64,1.63,1,2.67a18.07,18.07,0,0,1,.88,3.82,13.45,13.45,0,0,1,.05,2.46c0,.41-.07.82-.11,1.24s-.17.8-.26,1.2a14.63,14.63,0,0,1-1.88,4.29c-.41.59-.83,1.17-1.28,1.7s-.92,1-1.4,1.45a21.28,21.28,0,0,1-6.05,3.87,23.92,23.92,0,0,1-6.58,1.78,19,19,0,0,1-7.4-.48,21.12,21.12,0,0,1-6.41-3,30.82,30.82,0,0,1-4.65-4.06c-1.31-1.37-2.53-2.77-3.6-4.07s-2-2.44-2.94-3.38c-.46-.47-.9-.89-1.32-1.25-.21-.18-.42-.34-.62-.49l-.3-.22-.22-.13c-.59-.36-1-.4-.95-.36s0,0-.08.07a3.18,3.18,0,0,0-.52.45,12.11,12.11,0,0,0-1.65,2.63,24.13,24.13,0,0,1-1.73,2.81,12.35,12.35,0,0,1-3.68,3.39,12.13,12.13,0,0,1-5,1.56,15.54,15.54,0,0,1-4.16-.17,26.49,26.49,0,0,1-3.24-.76L204,321a4.58,4.58,0,0,0-2.4-.28s-.05,0-.07,0l0,0-.17.05a6.72,6.72,0,0,0-.69.22c-.49.18-1,.38-1.63.66a4.7,4.7,0,0,0-.92.51l-1,.63c-.69.43-1.49.9-2.35,1.38a30.36,30.36,0,0,1-3,1.39,23.59,23.59,0,0,1-3.64,1.11,59.8,59.8,0,0,1-6.1,1.05c-3.72.46-6.68.84-8.52,1.6a8.65,8.65,0,0,0-1.18.61c-.19.09-.31.29-.56.29s-.54-.24-.84-.33l-1-.3c-.34-.08-.71-.15-1.08-.22-.77-.14-1.58-.27-2.45-.35-1.74-.18-3.65-.26-5.64-.37l-1.52-.1-.77-.06-.38,0a2.24,2.24,0,0,1-.34.11c-.92.27-1.86.52-2.86.71a23.12,23.12,0,0,1-6.34.42,14.21,14.21,0,0,1-3.74-.82,10.12,10.12,0,0,1-3.92-2.58,11.47,11.47,0,0,1-2.08-3.38l-.79-2a5.83,5.83,0,0,0-.71-1.19,9.71,9.71,0,0,0-1.24-1.26c-1-.87-2.37-1.73-3.83-2.78-.74-.56-1.48-1.08-2.31-1.8a11.73,11.73,0,0,1-2.28-2.77c-1.09-1.89-1.7-3.44-2.33-4.47a5.59,5.59,0,0,0-1-1.26c-.41-.38-.9-.74-1.63-1.3a11.55,11.55,0,0,1-2.5-2.51,10.82,10.82,0,0,1-1.61-3.75,8.26,8.26,0,0,1-.18-.89c0-.28-.12-.62-.15-.82l-.24-1.35a19.92,19.92,0,0,0-.61-2.45,4.4,4.4,0,0,0-.88-1.67,1.48,1.48,0,0,0-1.06-.45A7.21,7.21,0,0,1,113,290a19,19,0,0,1-3.54-1.27,30.32,30.32,0,0,1-4.42-2.68,30.84,30.84,0,0,1-2.54-1.92l-1.28-1.07c-.41-.36-.78-.74-1.16-1.11-.79-.74-1.49-1.5-2.16-2.26s-1.3-1.52-1.9-2.3c-2.33-3.11-4.1-6.11-5.78-8.82a68.93,68.93,0,0,0-4.69-7.31c-.39-.54-.79-1-1.19-1.51s-.82-.91-1.25-1.32-.84-.82-1.35-1.2-1.18-.84-1.93-1.36a22.85,22.85,0,0,1-5.19-4.52,14.88,14.88,0,0,1-1.84-3.08c-.41-.9-.68-1.62-.91-2.17a6.84,6.84,0,0,0-.64-1.33,8.06,8.06,0,0,0-1.12-1.35,31.58,31.58,0,0,0-3.55-2.87,58.06,58.06,0,0,1-7.83-7,43.21,43.21,0,0,1-6.25-8.24,25.33,25.33,0,0,1-2.21-4.68,9.92,9.92,0,0,1-.38-1.24,10.08,10.08,0,0,1-.31-1.26c-.07-.45-.16-.88-.21-1.32l0-1.34a9.16,9.16,0,0,1,2-4.73,13.32,13.32,0,0,1,3.82-3.24,16.89,16.89,0,0,1,9.5-2.29Zm0,.09a16.58,16.58,0,0,0-8.93,3.23,13.37,13.37,0,0,0-3.11,3.23,7.35,7.35,0,0,0-1.28,3.87l0,1c0,.34.14.68.21,1A7.11,7.11,0,0,0,52,218.7a7.35,7.35,0,0,0,.41,1.07,21.93,21.93,0,0,0,2.25,4.1A39.18,39.18,0,0,0,61,231a50.93,50.93,0,0,0,7.78,5.75A49.75,49.75,0,0,1,73,239.43a12.93,12.93,0,0,1,3.53,3.76,26.73,26.73,0,0,0,2.55,4.1,13.94,13.94,0,0,0,3.83,2.79l2.16,1.2c.73.4,1.4.91,2.1,1.37s1.31,1,2,1.55,1.22,1.13,1.79,1.73a64.11,64.11,0,0,1,6.12,7.77c1.91,2.68,3.76,5.4,5.86,7.93a32.85,32.85,0,0,0,7.25,6.62c2.74,1.81,5.71,3.28,8.23,5.41a11.25,11.25,0,0,1,3.11,3.78,11.43,11.43,0,0,1,.89,4.81,42.52,42.52,0,0,0,.2,4.92,5.71,5.71,0,0,0,.87,2.29,9,9,0,0,0,1.71,1.77,12.81,12.81,0,0,1,3.33,3.59c.83,1.42,1.4,3,2.28,4.37a8.18,8.18,0,0,0,1.59,1.88,23.4,23.4,0,0,0,2,1.44c1.38.9,2.82,1.71,4.15,2.68a11.77,11.77,0,0,1,3.37,3.55c.82,1.41,1.27,3.07,2.43,4.26a6.63,6.63,0,0,0,4.51,1.69,18.7,18.7,0,0,0,4.89-.51,60,60,0,0,0,9.24-3.43A31.84,31.84,0,0,1,172.4,318a83.17,83.17,0,0,1,9.86,0,38.46,38.46,0,0,0,4.92-.15,19.7,19.7,0,0,0,4.77-1.23c3.07-1.12,6.06-2.68,9.37-2.94s6.32,1.73,9.54,2.32a7.09,7.09,0,0,0,4.8-.53,9.37,9.37,0,0,0,3.09-3.76,16.38,16.38,0,0,1,2.81-4,7.37,7.37,0,0,1,4.32-2.19,7.82,7.82,0,0,1,4.71,1.16,19.26,19.26,0,0,1,3.8,3.12c2.28,2.37,4.21,5.06,6.54,7.39a18.24,18.24,0,0,0,8.2,5.25,15.8,15.8,0,0,0,13.7-3.85,8.51,8.51,0,0,0,2.52-4.16,8.25,8.25,0,0,0-.44-4.83c-.52-1.56-1.22-3.05-1.75-4.61a16.36,16.36,0,0,1-.63-2.38,8.12,8.12,0,0,1,0-2.46,6.08,6.08,0,0,1,.92-2.27,10.55,10.55,0,0,1,1.68-1.79c.61-.55,1.25-1.07,1.82-1.67a9.42,9.42,0,0,0,1.45-2,17.29,17.29,0,0,0,1.65-4.63,35.56,35.56,0,0,1,1.28-4.76A11.74,11.74,0,0,1,274,279a34.59,34.59,0,0,0,3.22-3.73,8.73,8.73,0,0,0,1.65-4.58,9.57,9.57,0,0,0-1.15-4.73,24,24,0,0,0-2.76-4.08,47.12,47.12,0,0,1-3.05-3.87c-.46-.68-.92-1.37-1.31-2.09s-.81-1.43-1.17-2.17c-3-5.89-4.61-12.33-7.75-18.13-.37-.73-.83-1.42-1.24-2.13s-.92-1.36-1.4-2c-1-1.29-2.11-2.52-3.19-3.76-2.13-2.5-4.2-5.06-6.24-7.64-4.07-5.17-8-10.46-12-15.7q-3-3.94-6-7.81a86.53,86.53,0,0,0-6.41-7.5c-2.32-2.27-5.17-4.25-8.47-4.66s-6.55.51-9.63,1.56-6.21,2.29-9.51,2.56c-1.63.15-3.29,0-4.91.3a4.9,4.9,0,0,0-2.24.93,3.73,3.73,0,0,0-1.26,2.06,12.21,12.21,0,0,1-.64,2.37,6.56,6.56,0,0,1-1.55,1.92,11.33,11.33,0,0,1-4.32,2.32,10,10,0,0,1-4.89.15,13.9,13.9,0,0,1-4.44-2.13,46.2,46.2,0,0,0-4.14-2.66,9,9,0,0,0-4.71-1.14,4.1,4.1,0,0,0-2.24.9,15,15,0,0,0-1.72,1.75,6.85,6.85,0,0,1-4.2,2.42,15.63,15.63,0,0,1-4.92-.19c-1.63-.27-3.24-.62-4.87-.81a12.47,12.47,0,0,0-4.87.21,13.45,13.45,0,0,0-4.28,2.34c-1.31,1-2.56,2.06-4,2.93a20.94,20.94,0,0,1-4.49,2.06,20.05,20.05,0,0,1-4.85,1,28.43,28.43,0,0,0-4.89.47c-3.15.87-6,2.63-9.3,3.24a21.41,21.41,0,0,1-4.92.44,18.49,18.49,0,0,1-2.46-.26c-.81-.14-1.61-.33-2.42-.43a5.06,5.06,0,0,0-2.41.25,8.3,8.3,0,0,0-2.12,1.21c-1.3,1-2.41,2.22-3.73,3.21a6.55,6.55,0,0,1-4.62,1.51A11.27,11.27,0,0,1,82.67,213a96.54,96.54,0,0,0-8.56-4.9,36.91,36.91,0,0,0-4.57-1.83,16.52,16.52,0,0,0-4.83-.86Z"/><path d="M285.27,327.45a1.94,1.94,0,0,0-1.35,2.41.71.71,0,0,0,.67.45,1.18,1.18,0,0,0,.51,0,1.65,1.65,0,0,0,1.37-.68,1.68,1.68,0,0,0,.11-1.41A1.43,1.43,0,0,0,285.27,327.45Zm0,0a2.66,2.66,0,0,1,1.61.48,3.27,3.27,0,0,1,1.1,1.65,2.85,2.85,0,0,1-.39,2.4,3,3,0,0,1-2.29,1.32,2.88,2.88,0,0,1-2.48-1.11,2.72,2.72,0,0,1-.55-1.28,2.42,2.42,0,0,1,.18-1.25,3.64,3.64,0,0,1,1.3-1.49A3.79,3.79,0,0,1,285.27,327.45Z"/><path d="M301.88,336.11c-.35-.45-.88-.94-1.47-.77a7.82,7.82,0,0,0-1.56.83c-.5.29-1,.69-1.51,1a5.82,5.82,0,0,0-1.31,1c-.29.35-.22.56-.14.93a2.82,2.82,0,0,0,.56,1.07,8,8,0,0,0,2.22,1.71,13,13,0,0,0,1.36.64,7.23,7.23,0,0,0,1.26.41,2.43,2.43,0,0,0,2.24-.86,2.49,2.49,0,0,0,.56-1.34,3,3,0,0,0-.33-1.59A33.74,33.74,0,0,0,301.88,336.11Zm0,0a31.09,31.09,0,0,0,2.23,2.8,3.88,3.88,0,0,1,.76,3.84,4.21,4.21,0,0,1-3.52,2.76,6.19,6.19,0,0,1-2.23-.24,9.35,9.35,0,0,1-1.91-.78,7.14,7.14,0,0,1-3-3,4.6,4.6,0,0,1-.42-2.32,3.06,3.06,0,0,1,.39-1.27,2.7,2.7,0,0,1,.93-.89,8,8,0,0,1,1.86-.63c.57-.15,1.11-.35,1.7-.54a16.32,16.32,0,0,1,1.71-.57A1.72,1.72,0,0,1,301.88,336.11Z"/><path d="M506.36,370.41c.54-.57,1.06-1.16,1.58-1.75a6.08,6.08,0,0,1,1.88-1.51,4.07,4.07,0,0,1,2.51-.31,6.26,6.26,0,0,1,2.37,1,6.43,6.43,0,0,1,1.81,1.93,8.17,8.17,0,0,1,.94,2.45c.18.83.28,1.64.45,2.31a2,2,0,0,0,.78,1.34,3.56,3.56,0,0,0,1.6.49,20.59,20.59,0,0,0,2.21.12,11.39,11.39,0,0,1,2.71.35,10.53,10.53,0,0,1,2.63,1.12c1.56.9,2.86,2,4,2.74a6.31,6.31,0,0,0,1.6.78,3.89,3.89,0,0,0,1.44.15,11.4,11.4,0,0,0,1.79-.33,11.22,11.22,0,0,1,3.17-.21,13.43,13.43,0,0,1,5.89,1.9,17.88,17.88,0,0,1,7.47,9.19,29.68,29.68,0,0,1,1.51,11.07c-.06,1.77-.21,3.48-.38,5.13l-.27,2.43a15.83,15.83,0,0,1-.72,3.36,11.22,11.22,0,0,1-2.48,4.14,11.75,11.75,0,0,1-4.23,2.77,15.56,15.56,0,0,1-2,.62l-1.48.34c-.95.19-1.91.37-2.86.48a44.83,44.83,0,0,1-5.59.37c-1.82,0-3.6.05-5.32,0s-3.4,0-5,0-3.17.1-4.63.21a3.62,3.62,0,0,0-.89.15l-.75.16-1.6.45-3.57,1.11a58.79,58.79,0,0,1-9.14,2.24l-1.36.19c-.47.06-1,.13-1.44.15a12.12,12.12,0,0,1-3-.15,16.27,16.27,0,0,1-3.2-1,34.33,34.33,0,0,1-3.22-1.59c-1.07-.57-2.09-1.14-3.13-1.74l-2.77-1.46c-1.66-.79-3-1.55-4.24-2.18q-.9-.46-1.68-.84a6.75,6.75,0,0,0-.76-.31l-.16-.07-.06,0-.11-.08a3.54,3.54,0,0,0-2.21-.08c-1.13.21-2.59.63-4.4,1.13a22.92,22.92,0,0,1-6.84.91,17.33,17.33,0,0,1-2.1-.24c-.7-.13-1.4-.34-2.09-.54a19.8,19.8,0,0,1-3.37-1.54c-1.91-1-3.21-2-4.16-2.44a4.7,4.7,0,0,0-.61-.24,1.63,1.63,0,0,0-.35-.05,2.76,2.76,0,0,0-.78.05,13.27,13.27,0,0,0-2.35.67c-1.78.67-4.1,2.08-7.46,3.49a28,28,0,0,1-6,1.83,26.51,26.51,0,0,1-3.64.39,13.1,13.1,0,0,1-3.89-.39,15.72,15.72,0,0,1-7.38-4.63,23.22,23.22,0,0,1-2.51-3.36c-.62-1.06-1.22-2-1.68-2.88a25,25,0,0,0-2.51-4.06,6.36,6.36,0,0,0-1-1l-.38-.27s.06-.05,0-.12-.32-.14-.68-.22a31.32,31.32,0,0,0-4,0,25.51,25.51,0,0,1-3.07-.09,15.32,15.32,0,0,1-3.77-.79,12.22,12.22,0,0,1-3.73-2.06,16.5,16.5,0,0,1-2.33-2.4c-1.14-1.47-1.84-2.49-2.27-2.88a1.89,1.89,0,0,0-1.61-.66,6.26,6.26,0,0,0-1.47.16,16.78,16.78,0,0,0-1.72.59,18.55,18.55,0,0,0-1.83.85l-1,.59c-.38.21-.78.41-1.17.61a28.59,28.59,0,0,1-10.82,3.28,19.34,19.34,0,0,1-6.26-.59,21,21,0,0,1-5.73-2.49,27.9,27.9,0,0,1-4.55-3.53c-1.35-1.25-2.54-2.53-3.6-3.62s-2-2.09-2.9-2.83a11.38,11.38,0,0,0-1.26-.94,1.34,1.34,0,0,0-.39-.19c-.07-.06-.2-.05-.29-.08a8.76,8.76,0,0,0-2.32-.12c-1.22,0-2.82.22-5,.18-.57,0-1.11,0-1.71-.11a17,17,0,0,1-1.9-.3,14.43,14.43,0,0,1-4.06-1.5,12.65,12.65,0,0,1-1.83-1.27,4.55,4.55,0,0,1-1.37-1.86,9.72,9.72,0,0,1-.79-2.39c-.08-.41-.19-.79-.25-1.17s-.1-.75-.18-1.1a13.73,13.73,0,0,1-.26-2,14.32,14.32,0,0,1,0-1.75c.12-1,.28-2,.45-2.78a7.58,7.58,0,0,0,.34-3.54c-.21-.7-.59-1-1.54-1.48a17.73,17.73,0,0,0-3.75-1.11c-.37-.08-.85-.19-1.29-.31s-.89-.25-1.32-.39c-.88-.27-1.73-.6-2.57-.93s-1.65-.69-2.45-1.07l-1.17-.57-.58-.3-.66-.38a16.52,16.52,0,0,1-2.6-1.84,13.77,13.77,0,0,1-2.4-2.65,11.48,11.48,0,0,1-2-8.15c.89-5.79,4.61-9.16,7.28-11.45,1.37-1.19,2.6-2.1,3.51-2.93a11.87,11.87,0,0,0,1.86-2.07,2.37,2.37,0,0,0,.29-.34,5.67,5.67,0,0,0,.47-.63c.4-.54.9-1.35,1.62-2.33a18.41,18.41,0,0,1,1.3-1.59,15.2,15.2,0,0,1,1.83-1.68,10.07,10.07,0,0,1,5.4-2.05,11.71,11.71,0,0,1,4.4.63,21,21,0,0,1,2.69,1.15l1,.5.38.19.33.14a5.27,5.27,0,0,0,1.4.4,10.33,10.33,0,0,0,6.69-1.71c2.31-1.35,4.21-3.32,6.61-5.51a31.41,31.41,0,0,1,8.88-6.07,16.92,16.92,0,0,1,6.2-1.59,12.51,12.51,0,0,1,3.36.38,16.8,16.8,0,0,1,3,1.13c.92.42,1.75.91,2.55,1.31a14.83,14.83,0,0,0,2.32,1,11.55,11.55,0,0,0,4.23.36,85.52,85.52,0,0,0,9.06-1.46,22.22,22.22,0,0,1,5.68-.27,17.41,17.41,0,0,1,3.16.61,11.46,11.46,0,0,1,1.57.59l.78.35c.26.14.52.3.79.46a16.6,16.6,0,0,1,4.51,4.53,15.06,15.06,0,0,0,2.48,2.92,4.69,4.69,0,0,0,2.13,1,1.33,1.33,0,0,0,.69,0c.15-.06.17-.11.51-.28l1.54-.87c.36-.2.76-.43,1.23-.66.24-.12.48-.24.75-.35s.66-.26,1-.38a11.12,11.12,0,0,1,4.89-.52,14.18,14.18,0,0,1,3.89,1.09l2.25,1c.85.36,1.68.76,2.5,1.18a33.52,33.52,0,0,1,4.74,2.86,43.88,43.88,0,0,1,4.3,3.51c.34.31.67.64,1,1s.79.82,1.1,1.18c.69.77,1.19,1.47,1.67,2.08s.88,1.14,1.26,1.59.68.73.89,1a2.68,2.68,0,0,1,.32.32s-.07.06,0,.07,0,.11.39.05a10.32,10.32,0,0,0,1.62-.47c.72-.26,1.62-.57,2.74-.88a13.71,13.71,0,0,1,4.14-.53,11.19,11.19,0,0,1,2.46.37,11.59,11.59,0,0,1,2.11.84,18,18,0,0,1,2.61,1.72,15.15,15.15,0,0,0,1.32,1,4.68,4.68,0,0,0,.66.37,3.65,3.65,0,0,0,.72.32c2,.84,4.82,1,8,1.07a36.52,36.52,0,0,1,10.41,1.31c2.94,1,6.07,1.95,9.15,3.23a28.94,28.94,0,0,1,8.7,5.34,20.3,20.3,0,0,1,1.79,1.91,10,10,0,0,1,1.42,2.36,9.24,9.24,0,0,1,.69,5.32,6.54,6.54,0,0,1-2.87,4.43,21.34,21.34,0,0,1-4.43,2,10,10,0,0,0-2.05,1,7.77,7.77,0,0,0-1.75,1.48,2.85,2.85,0,0,0-.88,2c.06.72.81,1.18,1.54,1.38a6.51,6.51,0,0,0,4.54-.6,12.93,12.93,0,0,0,3.86-2.66Zm0,0a12.68,12.68,0,0,1-3.7,3,9.84,9.84,0,0,1-2.29.94,5.3,5.3,0,0,1-2.63.06l-.66-.19c-.23-.11-.45-.21-.68-.34a3,3,0,0,1-.62-.61c-.08-.13-.17-.27-.24-.41a3.84,3.84,0,0,1-.11-.46,2.64,2.64,0,0,1,0-.89,4.8,4.8,0,0,1,.25-.73,5.85,5.85,0,0,1,.74-1.19,9.58,9.58,0,0,1,1.88-1.78,11.64,11.64,0,0,1,2.21-1.25,21,21,0,0,0,4-2.08,4.79,4.79,0,0,0,2-3.35,7.13,7.13,0,0,0-.78-4.07,7.57,7.57,0,0,0-1.2-1.77,15.86,15.86,0,0,0-1.63-1.54,25.25,25.25,0,0,0-8.09-4.25c-2.94-1-6-1.73-9.07-2.51-6-1.59-12.49.49-18.76-1.19a14.53,14.53,0,0,1-4.34-2,7.75,7.75,0,0,0-4.23-1.72c-3.13,0-5.78,2.49-9.06,2.39a6.4,6.4,0,0,1-2.32-.5,8.2,8.2,0,0,1-2-1.26,22.47,22.47,0,0,1-3.15-3.53,30.94,30.94,0,0,0-6.74-6.58,35.31,35.31,0,0,0-4-2.56c-1.38-.77-2.82-1.42-4.23-2.11a8.19,8.19,0,0,0-2.24-.74,5.3,5.3,0,0,0-2.34.17c-1.51.47-2.85,1.34-4.34,1.86a6.91,6.91,0,0,1-4.64,0,10,10,0,0,1-3.93-2.54c-2.21-2.26-3.21-5.52-5.9-7.33a10.23,10.23,0,0,0-4.42-1.55,18.12,18.12,0,0,0-4.71.14c-3.13.42-6.19,1.25-9.35,1.44s-6.29-.29-9.44-.35a21.84,21.84,0,0,0-4.71.34,23.13,23.13,0,0,0-4.52,1.38c-5.85,2.42-10.73,6.65-16.62,9a19.88,19.88,0,0,1-9.22,1.64,15.63,15.63,0,0,1-4.55-1.21,10.56,10.56,0,0,0-4.58-1,3.87,3.87,0,0,0-2.14.9,7.3,7.3,0,0,0-1.48,1.84,42.54,42.54,0,0,1-2.27,4.14c-1.88,2.57-4.67,4.22-7.19,6.07a20.28,20.28,0,0,0-3.52,3.15,9.1,9.1,0,0,0-2.13,4.16,6.29,6.29,0,0,0,.89,4.53,11.3,11.3,0,0,0,3.3,3.34,29.57,29.57,0,0,0,8.49,4.08,21,21,0,0,1,4.42,1.65,7.66,7.66,0,0,1,1.86,1.44,4.32,4.32,0,0,1,.7.95,4.48,4.48,0,0,1,.5,1.06c1,3-.11,6.34,1,9.35a6.82,6.82,0,0,0,3.09,3.44,9.93,9.93,0,0,0,4.53,1.19c3.12.17,6.38-.39,9.36.83a12.42,12.42,0,0,1,3.85,2.7,42,42,0,0,1,3.17,3.5,36.63,36.63,0,0,0,6.62,6.72,14.48,14.48,0,0,0,8.83,2.9,21.14,21.14,0,0,0,9-2.49c1.41-.7,2.75-1.54,4.2-2.17a14,14,0,0,1,4.53-1.28,7,7,0,0,1,4.52,1.05,21,21,0,0,1,3.43,3.24,8.4,8.4,0,0,0,3.88,2.58,12.54,12.54,0,0,0,4.69.2,44,44,0,0,1,4.72-.39,7.8,7.8,0,0,1,4.48,1.28,10.93,10.93,0,0,1,3.06,3.56c.82,1.35,1.51,2.77,2.33,4.12a11.48,11.48,0,0,0,3.07,3.54,9.94,9.94,0,0,0,4.37,1.67,15.76,15.76,0,0,0,4.7-.12,29.74,29.74,0,0,0,4.55-1.25,60.5,60.5,0,0,1,9-2.9,16.17,16.17,0,0,1,4.71-.19,11,11,0,0,1,4.43,1.58c1.36.81,2.61,1.77,4,2.56a9.3,9.3,0,0,0,4.45,1.41c3.19.13,6.14-1.26,9.18-2a13.3,13.3,0,0,1,4.69-.46,22.71,22.71,0,0,1,4.59,1.16c3,1,5.89,2.3,9,2.71a37.59,37.59,0,0,0,9.42-.08c3.14-.34,6.25-.86,9.39-1.16a36.38,36.38,0,0,1,9.44.12c3.12.49,6.21,1.12,9.33,1.6a47.11,47.11,0,0,0,9.41.66c.79,0,1.57-.1,2.35-.19a12.75,12.75,0,0,0,2.31-.45,5.37,5.37,0,0,0,2-1.16,5.9,5.9,0,0,0,1.28-1.95,28.65,28.65,0,0,0,1.09-4.59c.29-1.55.55-3.1.72-4.67a24.25,24.25,0,0,0-.56-9.37,14.13,14.13,0,0,0-5.4-7.51,10,10,0,0,0-4.35-1.7,8.34,8.34,0,0,0-2.34,0,11,11,0,0,1-2.37.17,7.45,7.45,0,0,1-4.32-1.77c-1.25-1-2.37-2.09-3.68-3a8.4,8.4,0,0,0-2.09-1.06,10.71,10.71,0,0,0-2.31-.44,17,17,0,0,1-2.35-.31,4.32,4.32,0,0,1-2.15-1,3.37,3.37,0,0,1-1-2.1c-.13-.78-.17-1.57-.3-2.34a6,6,0,0,0-2.21-4,4.8,4.8,0,0,0-4.4-1,4.63,4.63,0,0,0-1.93,1.3c-.55.57-1,1.23-1.51,1.83Z"/></svg>