<svg id="Layer_1" data-name="Layer 1" xmlns="http://www.w3.org/2000/svg" viewBox="0 0 600 600"><title>sanmarino</title><path d="M390.8,102.17c3.71-1.93,7.65-3.28,11.52-4.89,1.95-.75,3.91-1.49,5.9-2.07s3.9-1.38,5.8-2.17a36.36,36.36,0,0,0,10.31-6.31,66.82,66.82,0,0,0,8.27-9c2.57-3.24,5.07-6.6,7.89-9.83,1.39-1.62,2.92-3.18,4.45-4.67s3.13-2.94,4.76-4.34a77.8,77.8,0,0,1,10.57-7.61,39.51,39.51,0,0,1,12.79-5.11,20.54,20.54,0,0,1,7.78,0,15.88,15.88,0,0,1,2,.55c.34.12.67.23,1,.36l1,.44c.7.32,1.12.59,1.67.89s1,.59,1.54.92a27.53,27.53,0,0,1,5.8,4.83A22.62,22.62,0,0,1,498.1,61a24,24,0,0,1,1.62,7.86,35.29,35.29,0,0,1-.51,7.49,73.92,73.92,0,0,1-3.77,13.14c-.75,2-1.53,4-2.28,6l-2.25,5.8a54.91,54.91,0,0,0-3.14,10.48,23.34,23.34,0,0,0-.29,4.66,27.69,27.69,0,0,0,.69,4.73l1.41,6a35.7,35.7,0,0,1,1,8.07,24,24,0,0,1-2.13,9.67,24.34,24.34,0,0,1-1.14,2.22c-.43.68-.86,1.36-1.31,2s-.93,1.19-1.41,1.79l-.72.87-.61.67c-1.61,1.78-3.29,3.41-4.82,4.9s-2.91,2.82-3.78,3.88a6.3,6.3,0,0,0-1.39,2.39,9.42,9.42,0,0,0-.31,2.78,16.32,16.32,0,0,0,.07,2.05c.13.71.2,1.42.37,2.12a30,30,0,0,0,1.29,4.27,84.88,84.88,0,0,0,4.79,9.67,99.49,99.49,0,0,1,6.11,12.69,59.55,59.55,0,0,1,2.28,7.73c.57,2.56.95,5,1.29,7.22l.89,6.26c.29,1.92.59,3.67,1,5.2a25.31,25.31,0,0,0,1.27,4.08c.1.31.25.56.37.84s.24.53.43.88l.49,1,.56,1a99.44,99.44,0,0,0,5.74,8.79l3.6,5c1.25,1.76,2.55,3.62,3.85,5.63a87.37,87.37,0,0,1,14.37,43.94c.11,2.65.15,5.31,0,8l-.1,2-.19,2c-.12,1.32-.29,2.68-.51,4.11a49.65,49.65,0,0,1-2.35,9.36A40.87,40.87,0,0,1,513,330.67a45,45,0,0,1-7.53,7.77c-2.28,1.89-4.17,3.29-5.56,4.3-.69.5-1.22.94-1.82,1.4s-1.15,1-1.73,1.44q-1.68,1.5-3.32,3.1a83.86,83.86,0,0,0-6.22,6.8c-1,1.17-2,2.4-2.87,3.66-.49.61-.91,1.25-1.38,1.88l-1.28,2c-.82,1.31-1.63,2.64-2.33,4l-.53,1-.42.8a8.5,8.5,0,0,0-.4.88c-.14.29-.27.69-.41,1.08-1.1,3.16-2,7.75-3.83,13.28-.24.69-.48,1.38-.79,2.13s-.56,1.43-.94,2.21c-.18.38-.36.76-.52,1.14s-.29.78-.48,1.2c-.38.82-.73,1.63-1.16,2.45s-1,1.67-1.46,2.48-1.18,1.64-1.8,2.44-1.37,1.53-2.09,2.28l-.53.53-.43.39-.88.77a48.2,48.2,0,0,1-7.18,5.22c-2.38,1.43-4.47,2.51-6.27,3.48a33.63,33.63,0,0,0-3.86,2.34,6.46,6.46,0,0,0-1.39,1.46,1.77,1.77,0,0,1-.16.34l-.1.15-.07.22a3.89,3.89,0,0,1-.19.41l-.18.56a4.41,4.41,0,0,0-.21.59c-.05.25-.12.5-.18.75a11.24,11.24,0,0,0-.35,1.54,37.77,37.77,0,0,0-.19,8.25c.22,3.33.75,7.19,1.22,11.62.24,2.18.44,4.63.54,7s.11,4.82.15,7.24a116,116,0,0,1-1.14,14.41c-.31,2.39-.75,4.76-1.21,7.12s-1.06,4.7-1.69,7c-.34,1.16-.63,2.33-1,3.47a20,20,0,0,1-1.47,3.32,56.65,56.65,0,0,1-4.14,6.12c-.68,1-1.43,2-2,3s-1.14,2.07-1.68,3.12c-1.09,2.08-2.16,4.17-3.37,6.19s-2.34,4.07-3.58,6.06-2.51,4-3.82,5.91l-2,2.89c-.34.48-.65,1-1,1.47l-1.31,1.73a30.74,30.74,0,0,1-3.92,4.19,23.72,23.72,0,0,1-6.54,4.12,25.06,25.06,0,0,1-7,1.75,38.62,38.62,0,0,1-5,.19l-1.78-.06-1.43,0-2.83,0c-1.88,0-3.77,0-5.66.07s-3.77.17-5.65.35a105.88,105.88,0,0,0-11.21,1.65c-7.41,1.47-14.68,3.39-21.95,5.39l-22.08,6.24c-1.87.59-3.68,1.14-5.62,1.83s-4,1.47-6.14,2.27a119,119,0,0,1-13.86,4.61,40.16,40.16,0,0,1-8.33,1.14,28.3,28.3,0,0,1-9.12-1.26,27.25,27.25,0,0,1-4.36-1.72,29.65,29.65,0,0,1-4.06-2.46,32.65,32.65,0,0,1-6.55-6.46,63.33,63.33,0,0,1-7.43-13.62c-1.82-4.25-3.19-8.2-4.66-11.59a47.25,47.25,0,0,0-4.08-8.21,8.62,8.62,0,0,0-.58-.82l-.64-.88c-.41-.64-.84-1.08-1.24-1.6a11.19,11.19,0,0,0-1.2-1.31,13.32,13.32,0,0,0-1.11-1,1.79,1.79,0,0,0-.5-.38,5.46,5.46,0,0,1-.48-.36c-.15-.08-.3-.13-.45-.22a1.2,1.2,0,0,0-.43-.23,2.93,2.93,0,0,1-.44-.21c-.15-.07-.32-.07-.48-.13a9.29,9.29,0,0,0-1.11-.24,20,20,0,0,0-7.44,1.09A84.27,84.27,0,0,0,219,511.33c-3.54,1.71-7.21,3.65-11,5.61a134.41,134.41,0,0,1-12.3,5.79c-1.11.46-2.23.9-3.43,1.3s-2.41.77-3.65,1.13c-.6.2-1.27.33-1.93.48s-1.3.3-2,.41c-1.36.19-2.9.41-4,.48-2.35.18-4.48.23-6.41.35a42.86,42.86,0,0,0-5.17.59,10.43,10.43,0,0,0-3.57,1.3,14.54,14.54,0,0,0-1.65,1.18c-.61.52-1.27,1.07-2,1.77a52.11,52.11,0,0,1-5.84,4.81,29.57,29.57,0,0,1-4.22,2.36c-1.73.75-2.71,1.12-4,1.59a46.84,46.84,0,0,1-15.89,2.88,37.67,37.67,0,0,1-17.08-4c-.68-.35-1.34-.73-2-1.1s-1.39-.85-2.1-1.35a24.44,24.44,0,0,1-4.32-3.75,21.16,21.16,0,0,1-3.89-6,19.37,19.37,0,0,1-1.54-8.09,19.1,19.1,0,0,1,1.44-6.57,22.1,22.1,0,0,1,2.25-4.07c.35-.51.7-1,1-1.4l.89-1.14a25,25,0,0,0,1.66-2.35,25.72,25.72,0,0,0,3.81-10.64,39.53,39.53,0,0,0,0-11.34,85.66,85.66,0,0,0-2.48-11c-1-3.55-1.92-6.95-2.78-10.39l-1.39-5.48c-.5-2-1.09-3.91-1.59-6.05s-1-4.34-1.5-6.68-.79-4.83-1.07-7.38a54.49,54.49,0,0,1-.2-8.13c0-1.39.21-2.84.37-4.26s.44-2.89.79-4.3a56.38,56.38,0,0,1,5.94-14.87c2.37-4.25,4.86-7.87,7.07-11.25q1.66-2.51,3.11-4.85l.71-1.15.35-.57.3-.51c.19-.35.43-.67.63-1s.39-.7.61-1a48.21,48.21,0,0,0,4.26-8.65,17.15,17.15,0,0,0,.95-4.44,9.82,9.82,0,0,0-.55-4.06c-.93-2.54-2.8-4-6-5.72s-7.38-3.06-12-6c-.58-.37-1.11-.81-1.67-1.21s-1.13-.81-1.64-1.27a33.78,33.78,0,0,1-3-2.87l-1.38-1.54-1.23-1.63c-.85-1.09-1.49-2.23-2.24-3.37a55.69,55.69,0,0,1-5.72-14.07,96.11,96.11,0,0,1-2.5-13.7c-.15-1.11-.23-2.2-.33-3.29l-.07-.82c0-.21,0-.27-.07-.41l-.09-.45-.08-.54c-.26-1.6-.69-3.58-1-5.62s-.73-4.2-1-6.43c-.15-1.12-.29-2.25-.4-3.41s-.17-2.34-.22-3.56c0-.6-.06-1.21,0-1.84s0-1.24,0-1.88a36.32,36.32,0,0,1,.28-3.95,34.06,34.06,0,0,1,2.17-8.9,23.13,23.13,0,0,1,1.17-2.5l.71-1.28c.24-.41.57-.88.87-1.3s.6-.85,1-1.27.76-.85,1.16-1.26l.59-.6.68-.58c.45-.38.92-.75,1.39-1.1a22.5,22.5,0,0,1,3.1-1.72,18.47,18.47,0,0,1,3.21-1.05,16.54,16.54,0,0,1,3.06-.43,15,15,0,0,1,2.77,0,24.72,24.72,0,0,1,4.78.84,27.41,27.41,0,0,1,4,1.47c2.4,1.07,4.3,2.17,6,3a17.62,17.62,0,0,0,4.44,1.71,10.27,10.27,0,0,0,4,.23,8.08,8.08,0,0,0,1.65-.49,7.31,7.31,0,0,0,1.48-.93,10.85,10.85,0,0,0,1.37-1.47,19.22,19.22,0,0,0,1.21-2,35.16,35.16,0,0,0,2-5.13c.63-1.93,1.25-4,2.08-6.26a39,39,0,0,1,3.38-7.09c.37-.6.83-1.21,1.25-1.82s.89-1.15,1.37-1.71a28.48,28.48,0,0,1,3.12-3.2c.59-.5,1.18-1,1.79-1.47s1.29-.88,1.94-1.31a17.31,17.31,0,0,1,2-1.2c.71-.35,1.4-.74,2.14-1a36.9,36.9,0,0,1,8.9-2.47,58.52,58.52,0,0,1,15.84,0c4.63.57,8.75,1.28,12.42,1.85a47.23,47.23,0,0,0,9.82.65,24,24,0,0,0,4-.6,40.83,40.83,0,0,0,4-1.4,37.51,37.51,0,0,0,8.1-5.2A81.89,81.89,0,0,0,228,217.2c2.6-2.93,5.15-6,7.8-9.33l4.06-4.91c1.45-1.66,2.8-3.32,4.34-5a86.91,86.91,0,0,1,9.8-9.43l2.76-2.13c.94-.68,1.93-1.31,2.89-2,.53-.36.82-.52,1.22-.77s.75-.5,1.13-.75c.74-.52,1.48-1.06,2.22-1.66a118.46,118.46,0,0,0,8.88-8.16l4.53-4.32,4.42-4.36c3-2.94,5.95-6,9.18-8.85,1.62-1.43,3.3-2.81,5-4.11.88-.65,1.76-1.28,2.68-1.89.43-.29.95-.63,1.46-.92s1-.56,1.53-.81c2.05-1,4.05-1.67,5.88-2.47a28.48,28.48,0,0,0,2.67-1.3l2.75-1.48,5.51-3,5.46-3c7.3-4,14.41-8.36,21.79-12.27q5.52-3,11.22-5.57c3.8-1.72,7.6-3.41,11.36-5.21q11.28-5.35,22.24-11.36Zm0,.08c-7.09,4.37-14.39,8.45-21.77,12.34-1.85,1-3.69,1.94-5.56,2.87l-5.59,2.77c-3.69,1.86-7.35,3.79-10.94,5.86s-7.15,4.18-10.72,6.32-7.12,4.31-10.72,6.43l-10.77,6.34-2.69,1.58c-.88.53-1.88,1.07-2.83,1.52-1.92.93-3.84,1.7-5.6,2.66a18.9,18.9,0,0,0-2.5,1.6c-.83.6-1.63,1.24-2.42,1.89-1.58,1.3-3.1,2.68-4.58,4.12-2.94,2.88-5.72,6-8.48,9.07l-4.18,4.66-4.25,4.58c-2.8,3.06-5.56,6.22-8.66,9.08a51.83,51.83,0,0,1-4.9,4c-.82.62-1.65,1.23-2.45,1.87l-2.32,2a78,78,0,0,0-8.39,9.12c-5.21,6.46-9.7,13.51-14.8,20.11a89.19,89.19,0,0,1-8.27,9.42,41.42,41.42,0,0,1-15.82,10,34.55,34.55,0,0,1-6.13,1.34,55.58,55.58,0,0,1-12.5-.12c-4.15-.42-8.26-1.07-12.4-1.48a47.17,47.17,0,0,0-12.45.14,26.58,26.58,0,0,0-6,1.73,26.87,26.87,0,0,0-5.38,3.15,32.2,32.2,0,0,0-4.54,4.27,48.21,48.21,0,0,0-3.7,5c-2.28,3.48-4.3,7.14-6.88,10.41a22.42,22.42,0,0,1-4.47,4.34,14.72,14.72,0,0,1-5.68,2.47,19.1,19.1,0,0,1-6.22.14,27.61,27.61,0,0,1-6-1.5c-2-.69-3.89-1.47-5.89-2.08a19.39,19.39,0,0,0-6.14-.94,9.52,9.52,0,0,0-5.83,1.91,10.93,10.93,0,0,0-3.29,5.2c-1.24,4-1.21,8.24-1,12.38s.82,8.29,1.41,12.41c.29,2.06.59,4.12.8,6.2s.14,4.16.25,6.24a94.28,94.28,0,0,0,1.13,12.43,44.31,44.31,0,0,0,3.57,11.92,26.2,26.2,0,0,0,7.78,9.62c3.35,2.49,7.27,4.05,10.89,6.08a25.62,25.62,0,0,1,5.1,3.59,17.81,17.81,0,0,1,3.74,5,23.76,23.76,0,0,1,2.31,12.12c0,1.05-.17,2.08-.27,3.11s-.31,2.06-.57,3.07a43.25,43.25,0,0,1-1.76,6A84.82,84.82,0,0,1,126,397.82c-2,3.64-4.12,7.25-5.93,11A47.62,47.62,0,0,0,116,420.58a41.12,41.12,0,0,0-.35,12.43,102.41,102.41,0,0,0,2.32,12.27c1,4.05,2,8.08,2.83,12.17a91.88,91.88,0,0,1,1.57,12.38,94.17,94.17,0,0,1-1.84,24.84,92.36,92.36,0,0,1-3.41,12c-.69,2-1.48,3.9-2.27,5.82a15.07,15.07,0,0,0-1.39,6,8.57,8.57,0,0,0,2.55,5.55,19.7,19.7,0,0,0,5,3.64,31.14,31.14,0,0,0,11.93,3.41,39.82,39.82,0,0,0,12.4-1,31.06,31.06,0,0,0,3-.85,17.29,17.29,0,0,0,2.83-1.31,44.25,44.25,0,0,0,5.13-3.56,35.16,35.16,0,0,1,5.19-3.45,21.67,21.67,0,0,1,5.91-2c4.09-.82,8.28-.84,12.42-1.24a36.18,36.18,0,0,0,11.93-3.49,111.69,111.69,0,0,0,10.95-6c7.12-4.29,14.07-9,21.76-12.23a32.71,32.71,0,0,1,12.11-2.73,19.39,19.39,0,0,1,11.63,3.93,34.54,34.54,0,0,1,8.22,9.31A49.27,49.27,0,0,1,261.24,518c1.21,4,2.18,8,3.37,12a43.48,43.48,0,0,0,4.87,11.46,18.14,18.14,0,0,0,9.62,7.57,21,21,0,0,0,12.3,0c8.07-2.27,15-7.14,22.42-10.9a158.81,158.81,0,0,1,23-9.59A157,157,0,0,1,386,520.9c2.08.05,4.16.07,6.24.15a15,15,0,0,0,6.14-.83,12.29,12.29,0,0,0,4.74-4c1.29-1.64,2.39-3.41,3.58-5.12a117.61,117.61,0,0,0,18.93-71.21c-.22-4.16-.54-8.31-.56-12.48a48.71,48.71,0,0,1,1.32-12.39A26.94,26.94,0,0,1,432,404a24.94,24.94,0,0,1,4.82-3.94,60.66,60.66,0,0,1,5.53-2.91c3.76-1.77,7.57-3.56,10.77-6.25a15.16,15.16,0,0,0,4.05-4.68,24.26,24.26,0,0,0,2.24-5.81c1.05-4,1.41-8.2,2.1-12.31a40.88,40.88,0,0,1,1.44-6.07c.61-2,1.34-3.95,2.13-5.88a72.53,72.53,0,0,1,22.8-29.23c3.31-2.51,6.82-4.88,9.35-8.21a27.17,27.17,0,0,0,4.61-11.47,69.11,69.11,0,0,0-3.41-36.84A71.22,71.22,0,0,0,493,259.2c-2.1-3.59-4.41-7.06-6.62-10.59a96,96,0,0,1-6.08-10.91,43.23,43.23,0,0,1-2.23-5.83,42.67,42.67,0,0,1-1.33-6.11c-1.25-8.22-.77-16.72-3.41-24.69S466.25,186,463.9,178a35.18,35.18,0,0,1-1.43-12.36,18,18,0,0,1,1.39-6.08,17.71,17.71,0,0,1,3.51-5.14c2.91-3,6.22-5.55,9.11-8.56a14.18,14.18,0,0,0,1-1.14c.33-.4.69-.78,1-1.19l.87-1.29a13.73,13.73,0,0,0,.74-1.36,14.73,14.73,0,0,0,1.47-6c.16-4.18-1.07-8.23-1.73-12.33a34.17,34.17,0,0,1-.55-6.22,31.63,31.63,0,0,1,.73-6.21,61.38,61.38,0,0,1,4.14-11.77c1.68-3.81,3.42-7.6,5.06-11.43a67.49,67.49,0,0,0,4-11.8c.86-4,1.1-8.36-.3-12.3a19.5,19.5,0,0,0-7.66-9.55,13.77,13.77,0,0,0-1.29-.86,15.32,15.32,0,0,0-1.35-.79l-.69-.36-.72-.28a11.06,11.06,0,0,0-1.48-.47,16.48,16.48,0,0,0-6.18-.23,35.78,35.78,0,0,0-11.71,4.1,74,74,0,0,0-10.45,6.81,78.83,78.83,0,0,0-9.28,8.33c-2.85,3-5.47,6.27-8.19,9.43a70.74,70.74,0,0,1-8.78,8.87,37.34,37.34,0,0,1-10.84,6.12c-3.9,1.49-7.93,2.56-11.91,3.76-2,.6-4,1.23-5.93,2a39.71,39.71,0,0,0-5.62,2.69Z"/></svg>