<svg id="Layer_1" data-name="Layer 1" xmlns="http://www.w3.org/2000/svg" viewBox="0 0 600 600"><title>saotomeandprincipe</title><path d="M167.85,130.86c-.7,1.15-1.48,2.25-2.11,3.45s-1.22,2.4-1.78,3.64-1.12,2.47-1.76,3.67-1.34,2.37-2.11,3.51a33,33,0,0,1-5.33,6.4c-.54.45-1.07.93-1.64,1.35l-1.75,1.21-1.87,1c-.62.36-1.28.61-1.93.92a15.5,15.5,0,0,1-2,.78,20.76,20.76,0,0,1-2,.64c-.69.16-1.38.38-2.07.56s-1.4.31-2.11.45c-1.41.26-2.84.47-4.25.59s-2.81.27-4.19.36c-5.5.36-10.69.59-14.36,2.69a37.94,37.94,0,0,0-10.65,8.95,64.23,64.23,0,0,0-4.42,5.76A66.59,66.59,0,0,0,97.77,183a127.38,127.38,0,0,0-6.2,13.49c-1,2.35-1.93,4.76-2.89,7.23l-1.44,3.73-1.52,3.74-5.83,14.59q-1.4,3.57-2.6,7.06c-.81,2.33-1.63,4.6-2.32,6.87A95.47,95.47,0,0,0,71.77,253c-.21,1.08-.31,2.14-.44,3.2s-.2,2.1-.29,3.14a46.55,46.55,0,0,0-.18,6.13,102.85,102.85,0,0,0,3.87,25.38l1.91,6.77,2.25,6.94c1.54,4.72,3.27,9.49,5,14.46l2.69,7.54L88,330.34c.48,1.3.91,2.61,1.33,3.93a52.79,52.79,0,0,1,1.78,8.31,88.17,88.17,0,0,1,.62,8.87c.07,1.47.07,3,.09,4.53s.08,3,.17,4.49a82,82,0,0,0,.78,8.86,73,73,0,0,0,3.59,15.05,42.67,42.67,0,0,0,6.32,11.33c.61.73,1.13,1.42,1.78,2.14s1.33,1.43,2,2.25A69.49,69.49,0,0,1,112,407a42.76,42.76,0,0,1,3.21,5.65c.49,1,.9,2.2,1.31,3.3a33,33,0,0,1,.92,3.44,27.59,27.59,0,0,1,.52,3.39c0,.55.1,1.1.13,1.65s0,1.06,0,1.59l0,1.56c0,.56-.08,1.31-.13,1.95a30.88,30.88,0,0,1-.52,3.09,36,36,0,0,1-1.43,4.72c-.5,1.43-1,2.75-1.54,4.06a69.47,69.47,0,0,0-2.53,7.48,37.23,37.23,0,0,0-1.09,7,29.59,29.59,0,0,0,0,5.71c.08.74.22,1.24.27,1.59s0,.27-.17.26-.37,0-.25.12a.61.61,0,0,1,.14.1c.15,0,.43.08.64.12.46.06.91.19,1.38.21a22.15,22.15,0,0,0,11.54-2,28.42,28.42,0,0,0,2.74-1.42,29.75,29.75,0,0,0,2.47-1.83l.61-.49.55-.53c.35-.36.77-.68,1.08-1.07l1-1.14c.31-.39.58-.82.88-1.22a12.13,12.13,0,0,0,.79-1.27,10.35,10.35,0,0,0,.7-1.31c.2-.46.44-.86.62-1.36l.56-1.49a49.94,49.94,0,0,0,1.62-6.85c.42-2.5.85-5.13,1.21-7.92a80.49,80.49,0,0,1,1.76-8.89l.71-2.38.87-2.46a26.46,26.46,0,0,1,1.06-2.51l.56-1.29c.21-.42.45-.85.69-1.28l.72-1.28a11.64,11.64,0,0,1,.79-1.28c.57-.84,1.14-1.7,1.78-2.52s1.34-1.6,2-2.39a12.6,12.6,0,0,1,1.16-1.15l1.23-1.15a39.88,39.88,0,0,1,11.22-6.59,88.53,88.53,0,0,1,10.4-3.26c3.06-.79,5.69-1.38,7.6-1.95.23-.07.49-.13.7-.21l.58-.22.29-.09.47-.1,1-.21c1.33-.32,2.61-.48,3.87-.72a103.23,103.23,0,0,0,13.34-2.69c1-.25,1.8-.57,2.66-.85a12.35,12.35,0,0,0,1.19-.46c.37-.16.77-.3,1.12-.47s.64-.35,1-.49l.5-.22.4-.24.82-.46.66-.48a12.42,12.42,0,0,0,1.1-.89c.18-.14.27-.31.42-.43s.33-.23.42-.4c.19-.33.52-.51.68-.9a3.72,3.72,0,0,1,.34-.47c.14-.23.31-.56.49-.82a27.09,27.09,0,0,0,2.08-4.15c.64-1.68,1.43-3.46,2.1-5.62L222.67,357c1-2.9,2-5.89,3.33-9.08.65-1.55,1.37-3,2.06-4.53.36-.74.67-1.51,1.07-2.22a11.88,11.88,0,0,1,1.48-2,14.26,14.26,0,0,1,4.32-3.23c1.75-.87,3.57-1.65,5.3-2.42a24.88,24.88,0,0,0,4.58-2.48,33.27,33.27,0,0,0,3.28-3.06,74.73,74.73,0,0,0,5.57-6.51c.82-1.15,1.69-2.25,2.49-3.41s1.59-2.31,2.43-3.43,1.67-2.25,2.53-3.34,1.82-2.11,2.73-3.17a29.31,29.31,0,0,0,2.51-3.33l2.41-3.43c3.19-4.6,6.38-9.2,9.69-13.66l2.54-3.29,2.64-3.15c1.8-2.09,3.61-4,5.6-6,1-1,2-1.9,3-2.8.48-.47,1-.87,1.5-1.29s1-.79,1.58-1.15a28.17,28.17,0,0,1,3.41-1.88c1.18-.56,2.44-1,3.64-1.56a35.29,35.29,0,0,0,3.57-1.67,16.39,16.39,0,0,0,1.65-1,14.55,14.55,0,0,0,1.51-1.18,27.29,27.29,0,0,0,4.69-6,68.44,68.44,0,0,0,3.77-6.78c1.09-2.38,2.18-4.77,3.09-7.27s1.85-5.05,2.71-7.55,1.67-5,2.41-7.45a69.73,69.73,0,0,0,3.1-14.31,30.06,30.06,0,0,0-.1-6.59,29.67,29.67,0,0,0-.55-3,23.9,23.9,0,0,0-1-2.81c-1.34-3.5-4.36-7-7.82-11.79a47.48,47.48,0,0,1-5-8.44l-.53-1.25c-.18-.46-.36-1-.52-1.48l-.4-1.36-.32-1.25c-.37-1.6-.62-3-.88-4.12a18.9,18.9,0,0,0-.76-2.75c-.24-.65-.47-.88-.41-.73s.36.44.39.48.06,0,0,0a.79.79,0,0,1-.22-.06c-.3,0-.53-.1-1.07-.15s-1.12-.12-1.76-.18l-1.19-.13-1.39-.22-.75-.14-.87-.21a15.11,15.11,0,0,1-1.85-.55l-1-.39a8.45,8.45,0,0,1-1-.48,14.32,14.32,0,0,1-4.1-3,15.33,15.33,0,0,1-1.56-2,11,11,0,0,1-.66-1l-.48-1a19.45,19.45,0,0,1-.82-1.95c-.17-.58-.33-1.17-.48-1.75a14.06,14.06,0,0,1-.35-1.68c-.16-1-.24-2-.29-2.82-.09-1.7-.07-3-.11-3.93s-.15-1.64,0-1.34c.12.09.33.09.09-.21a6.16,6.16,0,0,0-1.68-1.21c-.85-.48-2-1-3.27-1.56s-2.72-1.37-4.07-2.06-2.62-1.52-3.92-2.29c-.63-.41-1.28-.79-1.9-1.21l-1.8-1.3c-9.65-7-16.64-15.42-24.52-21.75a46,46,0,0,0-12.8-7.61,47.57,47.57,0,0,0-14.93-2.86,64.14,64.14,0,0,0-7.84.12c-1.31.14-2.62.24-3.93.41l-3.89.71a68.58,68.58,0,0,0-15,5.16,55.05,55.05,0,0,0-13.36,8.86,58.78,58.78,0,0,0-10.35,12.32Zm-.08-.05a57.44,57.44,0,0,1,9.58-13.16,52.62,52.62,0,0,1,13.2-9.73,70.74,70.74,0,0,1,15.28-6,67.72,67.72,0,0,1,16.27-2.16,53.12,53.12,0,0,1,16.27,2.15A50.54,50.54,0,0,1,253,109.29c8.87,6.32,16.23,14.31,25.31,20.09l1.69,1.09c.57.35,1.17.65,1.75,1,1.19.62,2.33,1.34,3.57,1.85s2.44,1.12,3.68,1.62,2.52,1,3.75,1.53a17.3,17.3,0,0,1,3.52,2.07,8.53,8.53,0,0,1,2.53,3.18,12.69,12.69,0,0,1,.92,4c.15,1.34.19,2.69.32,4a19,19,0,0,0,.27,2c.11.66.35,1.29.52,1.94a7,7,0,0,0,2.3,3.21,9.17,9.17,0,0,0,3.74,1.36c1.33.22,2.68.3,4,.48,2.65.27,5.42,1.2,7.09,3.4s2.25,4.89,2.76,7.51a37.47,37.47,0,0,0,1.91,7.83,39.86,39.86,0,0,0,3.89,7.07c2.95,4.47,6.39,8.77,8.1,13.92a32.46,32.46,0,0,1,1.08,3.89,36,36,0,0,1,.51,4,37.39,37.39,0,0,1-.31,8,54.69,54.69,0,0,1-1.68,7.9c-.72,2.6-1.58,5.15-2.54,7.67-1.89,5.05-4.09,10-6.25,14.9a158.32,158.32,0,0,1-7.15,14.49,76.87,76.87,0,0,1-9.31,13.18c-3.58,4-7.56,7.67-11.45,11.4-7.74,7.49-15.46,15-22.74,23-3.62,4-7.2,8-10.52,12.28a145.06,145.06,0,0,0-9.39,13.14c-.74,1.13-1.46,2.26-2.11,3.44s-1.37,2.33-2,3.51l-1.84,3.59c-.65,1.19-1.13,2.45-1.7,3.67l-.82,1.85c-.26.62-.48,1.26-.72,1.88-.47,1.27-1,2.52-1.4,3.79-.86,2.56-1.54,5.17-2.2,7.78-1.28,5.23-2.32,10.52-3.71,15.73a62.07,62.07,0,0,1-5.83,15c-.35.58-.68,1.17-1,1.74l-1.17,1.64a28.34,28.34,0,0,1-2.6,3.09,19.07,19.07,0,0,1-1.47,1.38c-.52.43-1,.93-1.54,1.31a31.16,31.16,0,0,1-3.34,2.27c-.58.34-1.16.69-1.75,1l-1.82.87-.91.44-.94.36-1.89.73a60.15,60.15,0,0,1-7.79,2.11,123.6,123.6,0,0,1-16,2c-2.69.18-5.37.42-8.07.47s-5.39-.09-8.08-.13a48.31,48.31,0,0,0-8.06.45,20.18,20.18,0,0,0-7.57,2.64,17.53,17.53,0,0,0-1.65,1.17l-1.53,1.32a21.17,21.17,0,0,0-2.56,3.11,28,28,0,0,0-3.41,7.29c-1.6,5.16-2.34,10.52-3.42,15.79a65.53,65.53,0,0,1-2.07,7.81,31.29,31.29,0,0,1-3.58,7.21A33.16,33.16,0,0,1,112.67,473c-.68,0-1.35-.09-2-.13-.33,0-.67-.05-1-.09l-1-.19a8.65,8.65,0,0,1-3.62-1.71,10.31,10.31,0,0,1-2.53-3.11,17,17,0,0,1-1.39-3.78,35.49,35.49,0,0,1-.85-8,80.44,80.44,0,0,1,.38-8.07c.44-5.37,1.32-10.7,1.67-16.08a20.12,20.12,0,0,0-.1-4A23.06,23.06,0,0,0,98,416.54c-1.53-2.22-3.25-4.29-4.86-6.45a55.75,55.75,0,0,1-4.4-6.78,74.81,74.81,0,0,1-5.9-15c-1.5-5.18-2.65-10.45-3.89-15.69-.67-2.61-1.34-5.22-2.06-7.81s-1.53-5.17-2.39-7.72c-3.36-10.24-7.34-20.26-11.14-30.34a266.84,266.84,0,0,1-10-30.73A104.94,104.94,0,0,1,50.21,264c.64-10.79,3.73-21.29,7.81-31.24s9.26-19.47,14.49-28.89S82.9,184.9,89.68,176.48A73.85,73.85,0,0,1,101.06,165c4.2-3.34,8.8-6.36,14-8a27.43,27.43,0,0,1,8-1.08c2.7,0,5.39.22,8.07.38a54.35,54.35,0,0,0,8.07,0A31.41,31.41,0,0,0,147,154.6c.62-.27,1.26-.47,1.86-.78l1.79-.92,1.69-1.1c.56-.38,1.06-.82,1.6-1.23a32.27,32.27,0,0,0,5.4-6c1.57-2.18,3-4.49,4.32-6.82s2.72-4.65,4-7Z"/><path d="M111.62,482a9.83,9.83,0,0,0-3.18,1.94c-1,.8-2,1.53-3,2.31a16.8,16.8,0,0,0-2.67,2.5,4.92,4.92,0,0,0-.81,1.43,2.4,2.4,0,0,0,0,1.38,2.19,2.19,0,0,0,.27.64,2.89,2.89,0,0,0,.41.62,4.15,4.15,0,0,0,.53.6l.62.63c1,1,1.73,2.11,2.46,2.94a4.42,4.42,0,0,0,2.13,1.54,7.54,7.54,0,0,0,2.87.12l1.76-.22c.59-.09,1.15-.15,1.64-.27a3.94,3.94,0,0,0,2.2-1.08A5.24,5.24,0,0,0,118,494.4c.1-.56.19-1.16.25-1.77s.17-1.33.28-1.95c.22-1.25.46-2.45.55-3.66a5.7,5.7,0,0,0-.59-3.41,5,5,0,0,0-3.1-1.71A8.35,8.35,0,0,0,111.62,482Zm0,0a9.8,9.8,0,0,1,3.74-.21,5.83,5.83,0,0,1,3.51,1.5,6.67,6.67,0,0,1,1.36,3.72c.17,1.29.21,2.59.25,3.84,0,2.25,1,5.12-.79,8.23a6,6,0,0,1-1.86,1.85,8,8,0,0,1-2.18,1,17.28,17.28,0,0,1-2,.46c-.63.1-1.27.2-2,.27a10,10,0,0,1-4.56-.46,6.54,6.54,0,0,1-2.16-1.36,8.55,8.55,0,0,1-1.44-1.77c-.76-1.18-1.23-2.31-1.84-3.21a7.93,7.93,0,0,1-1.66-4,4.26,4.26,0,0,1,.55-2.28,7,7,0,0,1,1.39-1.59,20.15,20.15,0,0,1,3.23-2.12c1.09-.63,2.17-1.25,3.19-2A11.86,11.86,0,0,1,111.62,482Z"/><path d="M535.68,134.31l-2.06.12a11.65,11.65,0,0,0-2,.4,12.14,12.14,0,0,0-3.67,1.83,12.33,12.33,0,0,0-4.59,6.57,7.93,7.93,0,0,0-.26,3.84,9,9,0,0,0,1.73,3.38,32.72,32.72,0,0,0,5.84,5.47c4.34,3.3,9,6.16,13.6,9.77a36.45,36.45,0,0,1,3.39,3.06,15.18,15.18,0,0,1,3.07,4.4,9.24,9.24,0,0,1,.82,3.41,8.88,8.88,0,0,1-.76,3.9,10.82,10.82,0,0,1-2,2.95,16,16,0,0,1-2.26,2,26.77,26.77,0,0,1-4.43,2.56c-1.45.68-2.89,1.26-4.32,1.77-2.94,1.06-5.47,1.83-7.78,2.78a19.87,19.87,0,0,0-5.52,3.16,7.55,7.55,0,0,0-1.51,1.76,5.66,5.66,0,0,0-.42.8,4.27,4.27,0,0,0-.2.76c-.07.24-.08.53-.13.79a9.23,9.23,0,0,0,0,.94,18.73,18.73,0,0,0,.2,2.45c.25,1.87.78,4.21,1.4,6.77a52.44,52.44,0,0,1,1.58,8.63,31.4,31.4,0,0,1-1.2,10.56,33.88,33.88,0,0,1-2.07,5.49c-.49.88-.89,1.78-1.45,2.6l-.78,1.25-.87,1.17a23.32,23.32,0,0,1-1.86,2.19c-.28.33-.75.75-1.12,1.1s-.78.67-1.15.94c-1.49,1.14-2.77,1.89-3.76,2.57a13,13,0,0,0-2,1.56,2.61,2.61,0,0,0-.3.38l0,0-.05.1-.1.21-.19.41L508,250c-1.05,2.32-2,5-3.37,7.84a39.62,39.62,0,0,1-2.38,4.33,29.72,29.72,0,0,1-3.15,4.11,23,23,0,0,1-9.23,6.34,17.94,17.94,0,0,1-6.11,1.11,20.33,20.33,0,0,1-5.9-.85,27.27,27.27,0,0,1-9.36-5.12c-.66-.54-1.29-1.1-1.9-1.67l-1.51-1.44-3-2.85-6-5.64c-2-1.86-4-3.7-5.94-5.38-1-.84-2-1.64-2.84-2.28-.44-.32-.85-.58-1.13-.75a3.47,3.47,0,0,0-.33-.16l-.71-.26a14.48,14.48,0,0,0-5.91-.92c-1.08,0-2.28.16-3.73.3a22.08,22.08,0,0,1-5.64,0c-.64-.13-1.27-.26-1.91-.45a19.67,19.67,0,0,1-1.95-.83c-.6-.36-1.19-.74-1.76-1.15s-1-.87-1.41-1.33a17.94,17.94,0,0,1-3.33-5.31,28.36,28.36,0,0,1-1.79-10.33c0-1.57,0-3,.08-4.43s.09-2.72.07-3.89a25.87,25.87,0,0,0-.9-6.62,21.2,21.2,0,0,0-1.11-3c-.22-.49-.47-1-.74-1.44s-.55-.93-.9-1.5c-.71-1.12-1.54-2.38-2.37-3.89a22.45,22.45,0,0,1-2.22-5.49,15.86,15.86,0,0,1,0-7.35A16.43,16.43,0,0,1,413,183a17.5,17.5,0,0,1,5.66-4.52,16.77,16.77,0,0,1,7.31-1.87,23.11,23.11,0,0,1,6.3.84l1.85.45a1.13,1.13,0,0,0,.42,0l.28,0a1.06,1.06,0,0,1,.25,0h.13l.14,0a1.09,1.09,0,0,1,.26,0,1.71,1.71,0,0,1,.3-.09l.16,0,.16-.07.35-.13c.25-.17.52-.21.79-.41a13,13,0,0,0,3.51-3.2,17.32,17.32,0,0,0,1.49-2.23c.22-.38.41-.77.6-1.15a13,13,0,0,0,.5-1.27,39.51,39.51,0,0,0,1.58-6.65c.34-2.4.54-5,.66-7.65.26-5.37.14-11.26,1.17-17.4a35.8,35.8,0,0,1,1.12-4.57,28.55,28.55,0,0,1,1.73-4.44,31.4,31.4,0,0,1,5.34-7.73,22.65,22.65,0,0,1,1.62-1.63c.54-.54,1.12-1,1.7-1.5l.86-.71.79-.63,1.58-1.27,6.43-5.25A88,88,0,0,1,482,100.17a26.05,26.05,0,0,1,8.6-2.87l1.2-.11c.41,0,.84,0,1.25,0l.63,0,.63.12a9.19,9.19,0,0,1,1.26.29,12.39,12.39,0,0,1,4.25,2.4c1.19,1,2.16,2,3.14,2.87a23.92,23.92,0,0,0,3,2.43,13.19,13.19,0,0,0,1.62,1l.84.43.88.34a11.22,11.22,0,0,0,3.57.8,27.88,27.88,0,0,0,7.81-1c2.67-.57,5.41-1.39,8.45-1.26a17,17,0,0,1,8.23,2.74,28.69,28.69,0,0,1,6.3,5.67A39.63,39.63,0,0,1,548.4,121c.34.61.63,1.25.94,1.87a10.87,10.87,0,0,1,.75,2,9.15,9.15,0,0,1,.09,4.29,6.41,6.41,0,0,1-2.28,3.62,7.74,7.74,0,0,1-3.92,1.55C541.18,134.73,538.42,134.3,535.68,134.31Zm0-.19c2.76-.09,5.55.24,8.23-.21a7.25,7.25,0,0,0,3.63-1.56,5.76,5.76,0,0,0,1.93-3.32,8.31,8.31,0,0,0-.21-3.9,9.78,9.78,0,0,0-.76-1.84c-.32-.6-.61-1.21-1-1.79a38.46,38.46,0,0,0-4.79-6.58,26.6,26.6,0,0,0-6.21-5.07,15.15,15.15,0,0,0-7.41-2.09c-2.5,0-5.13.87-7.79,1.59a31.91,31.91,0,0,1-8.51,1.48,13.86,13.86,0,0,1-4.52-.74l-1.07-.34c-.35-.14-.69-.3-1-.45a16.54,16.54,0,0,1-2-1c-2.61-1.5-4.71-3.67-6.7-5.12a8.41,8.41,0,0,0-3-1.5,6.19,6.19,0,0,0-.77-.12l-.38-.06-.41,0c-.28,0-.54,0-.82,0l-.85.14a21.54,21.54,0,0,0-6.86,2.79,82.55,82.55,0,0,0-12.62,9.85l-6.09,5.59-1.57,1.41-.8.7-.7.64c-.46.43-.92.85-1.34,1.31a17.69,17.69,0,0,0-1.23,1.37,19.08,19.08,0,0,0-3.54,6.14,21.89,21.89,0,0,0-.84,3.42,26.46,26.46,0,0,0-.25,3.58c-.05,4.89,1.21,10,2.25,15.65a77.22,77.22,0,0,1,1.21,8.89,42.51,42.51,0,0,1-.4,9.76,24.37,24.37,0,0,1-.58,2.72c-.27.92-.55,1.83-.9,2.71s-.71,1.74-1.14,2.56a25.46,25.46,0,0,1-1.38,2.44c-.47.8-1.07,1.55-1.61,2.32s-1.21,1.48-1.89,2.18a24.39,24.39,0,0,1-4.67,3.85,20.48,20.48,0,0,1-13.19,3.23c-.6-.08-1.18-.2-1.77-.32a14.14,14.14,0,0,1-1.6-.38c-.85-.25-1.56-.49-2.13-.69-1.15-.41-1.75-.56-1.82-.63a1,1,0,0,0-.7-.11,2.91,2.91,0,0,0-1,.33,1.85,1.85,0,0,0-.65.55,1.14,1.14,0,0,0-.3.83,6.38,6.38,0,0,0,.59,2.27c.39,1,1,2.08,1.64,3.36.32.62.72,1.37,1.08,2.13s.69,1.53,1,2.31A40.51,40.51,0,0,1,429,209.2a38.19,38.19,0,0,1,1.09,9.77c0,1.59-.12,3-.18,4.38s-.12,2.65-.12,3.85a16.45,16.45,0,0,0,.8,5.91,6.3,6.3,0,0,0,1,1.67.13.13,0,0,1,.09.11s0,0,0,0,0,0,0,0,.08,0,.11,0a12.19,12.19,0,0,0,2.61-.1c1.29-.13,2.84-.32,4.52-.36A27.57,27.57,0,0,1,449.24,236l1.23.45a16.29,16.29,0,0,1,1.54.72,25,25,0,0,1,2.35,1.49c1.37,1,2.53,1.91,3.66,2.85,2.25,1.89,4.33,3.77,6.4,5.65l6.13,5.65,3,2.83,1.51,1.4c.4.36.8.71,1.22,1a14.83,14.83,0,0,0,5.07,2.76,6.61,6.61,0,0,0,4.25,0,10.73,10.73,0,0,0,4.25-3,18.09,18.09,0,0,0,1.88-2.44,27.16,27.16,0,0,0,1.62-2.91c1-2.13,1.94-4.65,3.06-7.41l.44-1.05.23-.53.12-.26.05-.14.11-.2a14.56,14.56,0,0,1,2-3.07,23.72,23.72,0,0,1,4.2-3.86c1.25-.93,2.29-1.68,2.93-2.28.19-.16.29-.29.43-.42s.16-.17.3-.38a10,10,0,0,0,.74-1.05,5.76,5.76,0,0,0,.83-2.23,8.72,8.72,0,0,0-.11-2.53c-.31-1.75-1-3.71-1.57-5.94s-.92-4.8-1.39-7.65a57.53,57.53,0,0,1-.86-9.61c0-.88.06-1.87.14-2.81a27.35,27.35,0,0,1,.49-3,26,26,0,0,1,.87-3.09,20.63,20.63,0,0,1,1.41-3.06,23.2,23.2,0,0,1,1.88-2.8,22.06,22.06,0,0,1,2.26-2.36,21.55,21.55,0,0,1,4.94-3.39,34,34,0,0,1,9.76-3c3-.53,5.91-.77,8.3-1.14a36.32,36.32,0,0,0,3.57-.72,17.93,17.93,0,0,0,3-1,13.75,13.75,0,0,0,1.54-.84c.08,0,.14,0,.21-.08s.11-.3.05-.64a7.8,7.8,0,0,0-1.2-2.65,28.66,28.66,0,0,0-2.23-3c-3.38-4-7.57-7.8-11.37-12a38.12,38.12,0,0,1-5.24-6.79,10.63,10.63,0,0,1-1.45-4.18A6.33,6.33,0,0,1,522,145a8.81,8.81,0,0,1,.27-1,8,8,0,0,1,.36-1,14.79,14.79,0,0,1,5.22-6.43,13.23,13.23,0,0,1,3.71-1.83,11.68,11.68,0,0,1,2-.45Z"/><path d="M366.51,370.45a2.55,2.55,0,0,0-1.63,2c-.08.9-.05,1.82,0,2.73a9.7,9.7,0,0,0,.27,2.63,2.8,2.8,0,0,0,1.3,1.75,14.86,14.86,0,0,0,2.21,1.2,6.28,6.28,0,0,0,2.13.55,15.28,15.28,0,0,0,2.34,0l1.31-.09a4.76,4.76,0,0,0,.93-.11,1.79,1.79,0,0,0,1-.75,2.21,2.21,0,0,0,.51-1.36,5.8,5.8,0,0,0-.44-2.09,26.06,26.06,0,0,0-1.07-2.42l-.55-1.16a4.05,4.05,0,0,0-.77-.91,8.26,8.26,0,0,0-2.2-1.43A7.2,7.2,0,0,0,366.51,370.45Zm0,0a9.81,9.81,0,0,1,5.45,0,12.25,12.25,0,0,1,2.7,1,6.36,6.36,0,0,1,1.3.86c.46.45.68.74,1,1.08a26.24,26.24,0,0,1,1.87,2.2,7.69,7.69,0,0,1,1.4,3,5.42,5.42,0,0,1-.68,3.85,6,6,0,0,1-1.27,1.53,5,5,0,0,1-2,1,8.69,8.69,0,0,1-1.79.2l-1.42,0a12.1,12.1,0,0,1-3.1-.47,8.41,8.41,0,0,1-2.88-1.55A15.79,15.79,0,0,1,365,381a5,5,0,0,1-.85-1.44,5,5,0,0,1-.26-1.59,16.56,16.56,0,0,1,.37-2.82l.45-2.72A2.81,2.81,0,0,1,366.51,370.45Z"/><path d="M374.7,402.48a7.74,7.74,0,0,0-2.76,1.43,13.78,13.78,0,0,0-2.26,2.12,6.42,6.42,0,0,0-1.33,2.61,3.68,3.68,0,0,0,.29,2.55,5,5,0,0,0,1.81,1.73,25.82,25.82,0,0,0,2.56,1.37,38.08,38.08,0,0,0,5.41,2.11c.46.14,1,.3,1.21.34s.24.06.45,0a2.62,2.62,0,0,0,.72-.46,4.05,4.05,0,0,0,.7-.78,4.35,4.35,0,0,0,.77-2.14,6.26,6.26,0,0,0-.45-2.63,36.08,36.08,0,0,0-2-6,4.61,4.61,0,0,0-2.11-2.12A4.75,4.75,0,0,0,374.7,402.48Zm0,0a5.37,5.37,0,0,1,3.1,0,5.6,5.6,0,0,1,2.52,2c1.34,1.69,2.22,3.71,3.32,5.4.27.43.58.91.85,1.45a6.49,6.49,0,0,1,.58,1.84,7.07,7.07,0,0,1-.49,3.92,7,7,0,0,1-1.11,1.76,5.83,5.83,0,0,1-1.78,1.4,4.56,4.56,0,0,1-2.62.41,12.5,12.5,0,0,1-1.82-.44,20.71,20.71,0,0,1-6-3,20.94,20.94,0,0,1-2.58-2.19,7.17,7.17,0,0,1-1.91-3.21,5.53,5.53,0,0,1,.47-3.6,7.81,7.81,0,0,1,2.07-2.59,23,23,0,0,1,2.57-1.86A9.77,9.77,0,0,1,374.7,402.48Z"/><path d="M385.73,432.32a4.22,4.22,0,0,0-.13,3.74,5.86,5.86,0,0,0,3,2.1,9.81,9.81,0,0,0,3.4.54c.52,0,.93-.13.87-.18s-.17.08-.19.11,0-.1.06-.32A17.68,17.68,0,0,0,393,435a4.58,4.58,0,0,0-.72-2.82,5.16,5.16,0,0,0-3.24-1.44,4.26,4.26,0,0,0-1.9.26A2.58,2.58,0,0,0,385.73,432.32Zm0,0a4.33,4.33,0,0,1,3.29-2.09,9.17,9.17,0,0,1,2.11-.16,6.07,6.07,0,0,1,2.25.46,5,5,0,0,1,2,1.69,7.76,7.76,0,0,1,1.05,2.22,10,10,0,0,1,.23,4.61,4.74,4.74,0,0,1-.56,1.55,3.48,3.48,0,0,1-1.62,1.42,4.58,4.58,0,0,1-3,.08,9.5,9.5,0,0,1-3.94-2.27,10.08,10.08,0,0,1-1.42-1.65,5.64,5.64,0,0,1-1-1.92A6,6,0,0,1,385.73,432.32Z"/></svg>