<svg id="Layer_1" data-name="Layer 1" xmlns="http://www.w3.org/2000/svg" viewBox="0 0 600 600"><title>Senegal</title><path d="M93.88,235.39a4.43,4.43,0,0,0,2-.62,14,14,0,0,0,1.74-1.13,28.9,28.9,0,0,0,3.12-2.73,69.13,69.13,0,0,0,5.55-6.18c1.76-2.14,3.36-4.4,5-6.65l4.72-6.91c3.27-4.5,6.29-9.06,9.16-13.68a110.35,110.35,0,0,0,7.55-14.28l.77-1.84.64-1.77c.39-1.23.79-2.45,1.13-3.72.71-2.54,1.29-5.16,1.87-7.81s1.11-5.33,1.63-8l1.67-8.12c.59-2.71,1.22-5.42,1.87-8.15s1.39-5.43,2.14-8.14c1.52-5.43,3.25-10.85,5.28-16.25.5-1.35,1.06-2.69,1.59-4s1.13-2.7,1.8-4a57.92,57.92,0,0,1,4.43-7.93,47.78,47.78,0,0,1,2.89-3.81,37.25,37.25,0,0,1,3.59-3.5c.33-.27.63-.57,1-.82L166,94.5l1.1-.74c.36-.24.77-.43,1.16-.65l1.19-.64.6-.32.67-.27a19,19,0,0,1,2.76-.92,30.34,30.34,0,0,1,11-.67c3.41.37,6.51,1,9.33,1.42a34.44,34.44,0,0,0,7.34.65l3.51-.18c1.21,0,2.42-.18,3.62-.3,4.8-.55,9.4-1.42,14-2.38s9.31-2,14.2-3.16l3.72-.83c1.26-.3,2.51-.55,3.8-.81l3.88-.83,4-.77c1.34-.29,2.72-.48,4.07-.72s2.77-.47,4.16-.66c2.81-.43,5.61-.77,8.67-1.09a170.19,170.19,0,0,1,18.25-.71q9.22.21,18.54,1.31A111.87,111.87,0,0,1,324.4,85l1.17.33,1.17.42,2.34.82a42.77,42.77,0,0,1,4.64,1.91c.76.35,1.53.68,2.29,1.06l2.22,1.26L340.46,92c.74.42,1.42,1,2.13,1.44a62.73,62.73,0,0,1,8,6.56,95.83,95.83,0,0,1,6.41,7.13c2,2.36,3.69,4.69,5.45,6.91s3.39,4.33,5,6.32a67.34,67.34,0,0,0,4.88,5.4,38.69,38.69,0,0,0,4.87,4,13.15,13.15,0,0,0,1.19.76,7,7,0,0,0,1.07.6,7.44,7.44,0,0,0,1.62.53,17.26,17.26,0,0,0,1.79.23c.75.06,1.58.12,2.77.17a71.14,71.14,0,0,1,9.64,1c1,.17,2,.41,3,.65a7.27,7.27,0,0,1,.83.23l.91.29,1.83.61c1.2.5,2.41,1,3.57,1.62a34.93,34.93,0,0,1,3.35,2,39.83,39.83,0,0,1,10,10,74.14,74.14,0,0,1,5.68,9.63c1.49,2.94,2.69,5.65,3.78,7.77l1.67,3.38,1.79,3.33c1.15,2.23,2.48,4.37,3.72,6.54s2.65,4.26,4,6.38,2.71,4.2,4.06,6.3q1,1.59,1.92,3.21c.62,1.09,1.3,2.14,1.91,3.23,2.49,4.36,5.25,8.55,8,12.77a207.79,207.79,0,0,0,18.84,24l2.65,2.79c.89.93,1.77,1.87,2.71,2.74,1.86,1.79,3.67,3.55,5.73,5.39s4.21,3.77,6.43,5.84,4.47,4.31,6.8,6.7a78.66,78.66,0,0,1,6.92,7.88l.82,1.11.78,1.17a28.05,28.05,0,0,1,1.5,2.42c.48.83,1,1.66,1.37,2.55s.9,1.82,1.18,2.56a81.94,81.94,0,0,1,3.3,9.41c.84,3.08,1.56,6.11,2.15,9,1.17,5.81,2.1,11.23,3.27,16,.57,2.43,1.22,4.66,1.93,6.77l.56,1.56.6,1.47.3.74.51,1.32,1,2.65a64.16,64.16,0,0,1,3,21.21c-.13,6.63-.92,12.64-1.51,18a88.4,88.4,0,0,0-.76,14.31c0,.52,0,1.06.07,1.55l.18,1.34a15.49,15.49,0,0,0,.43,2.26l.05.26a1.38,1.38,0,0,0,.08.17c0,.1.1.21.14.31s.13.5.23.52a1.19,1.19,0,0,1,.17.27c.07,0,.11,0,.11.05s.13,0,.14,0a0,0,0,0,0,0,0l.09,0a.53.53,0,0,1,.15.08c.07,0,0,.07.18.13l.32.17.31.19.49.25.5.26.25.14.34.15,1.37.64,3.44,1.49c2.45,1,5.34,2.29,8.17,3.63l2.18,1.08,1.09.55.56.29.94.57a40.08,40.08,0,0,1,3.64,2.47c1.1.93,2.18,1.9,3.22,2.9a39.08,39.08,0,0,1,8,12.73,56,56,0,0,1,3.16,11.59,134.71,134.71,0,0,1,1.49,19.34l0,1,.05.8,0,.76.07.85.31,3.6c.22,2.52.42,5.24.55,8.06a55.37,55.37,0,0,1-.12,8.8c-.36,3.05-.95,6.16-1.45,9.38-.28,1.63-.62,3.23-1,4.91l-.55,2.53c-.17.86-.29,1.68-.51,2.59a52.51,52.51,0,0,1-3.54,11.14c-.44,1-1,2-1.55,3s-1.27,2-1.93,3-1.57,2-2.39,2.94-1.9,1.85-2.88,2.72-2.19,1.62-3.33,2.32a26.71,26.71,0,0,1-7.26,3c-1.19.25-2.4.49-3.57.65a36.74,36.74,0,0,1-12.2-.87l-2.6-.64-.62-.17-.45-.14-.9-.27c-1.2-.39-2.42-.71-3.64-1s-2.45-.58-3.7-.79-2.48-.41-3.73-.59-2.5-.3-3.75-.36l-1.87-.12-1.88,0A57.39,57.39,0,0,0,488,512.77c-1.17.27-2.27.65-3.39,1l-1.63.58-1.88.72c-2.67,1-5.49,2.06-8.54,3a67.59,67.59,0,0,1-10,2.46,46,46,0,0,1-11.8.37c-7.86-.8-14.12-3-19-4.07a28.23,28.23,0,0,0-3.17-.59,25.71,25.71,0,0,0-2.58-.19,32.4,32.4,0,0,0-5,.24c-1.69.18-3.45.53-5.37.93-.95.19-1.95.46-3,.71l-.65.13-.88.15-1.74.29c-1.24.16-2.58.27-3.88.35a33.11,33.11,0,0,1-9.33-.92,33.47,33.47,0,0,1-5.09-1.71,32.93,32.93,0,0,1-8.95-5.86c-.62-.58-1.12-1.13-1.68-1.7l-.8-.87c-.25-.29-.46-.56-.69-.84q-.68-.82-1.32-1.68l-1.1-1.6-.54-.8-.46-.76-.87-1.51q-.78-1.44-1.44-2.82c-.39-.87-.83-1.8-1.17-2.61l-.83-2c-.11-.28-.21-.57-.3-.86a24.08,24.08,0,0,0-1.13-2.31,6.57,6.57,0,0,0-1.31-1.73,11.35,11.35,0,0,0-3.12-1.93,31.26,31.26,0,0,0-5.33-1.62,62.94,62.94,0,0,0-6.84-1c-2.46-.26-5.06-.44-7.78-.58l-8.47-.34c-2.93-.14-6-.25-9.17-.53-1.6-.14-3.23-.28-4.91-.51-.91-.11-1.46-.21-2.16-.32l-1-.16a3.06,3.06,0,0,0-1-.08c-11,1.9-22,5.36-33.37,6.58a56,56,0,0,1-8.58.48c-2.88-.08-5.75-.44-8.65-.78-5.79-.68-11.67-1.42-17.55-2.61l-4.17-.84c-1.06-.23-2.12-.47-3.17-.65a51,51,0,0,0-6.31-.83,55.76,55.76,0,0,0-6.19-.09,47.4,47.4,0,0,0-5.92.72,30.4,30.4,0,0,0-10.54,4c-.4.22-.75.51-1.14.76l-.57.38-.31.21-.54.37c-1.44,1-2.82,2-4.34,2.91s-3,1.85-4.56,2.68c-.78.42-1.55.86-2.35,1.26l-2.4,1.16a82.64,82.64,0,0,1-20.05,6.4,116.46,116.46,0,0,1-19.45,1.89c-3.11.08-6.13.05-9.11,0l-.57,0-.68,0L146.8,505l-2.56-.17-2.38-.21-2.21-.22c-2.84-.3-5.33-.56-7.45-.66a27,27,0,0,0-5,.1,4.28,4.28,0,0,0-.77.14l-.33.06-.24.09-.23.06-.14.08-.08,0h0c.09,0,.22-.11.24-.1.22-.09,0,0-.48.4s-1.19,1-2.08,1.83-2,1.84-3.32,3a49.69,49.69,0,0,1-5.24,4.09,30.7,30.7,0,0,1-9.35,4.27,26,26,0,0,1-3.23.6,24.73,24.73,0,0,1-3.44.12,22.05,22.05,0,0,1-6.58-1.33,24.38,24.38,0,0,1-8.84-5.64,29.24,29.24,0,0,1-2.51-3c-.35-.49-.72-1-1-1.47s-.57-1-.83-1.43a39.61,39.61,0,0,1-4.63-13.24,35.54,35.54,0,0,1-.31-3.69,29.94,29.94,0,0,1,.14-3.57,32.8,32.8,0,0,1,1.26-6.3,67.94,67.94,0,0,1,3.65-9.27c2.44-5.12,4.06-9.1,3.76-12.85a49.38,49.38,0,0,0-1.35-7.28L79,441.36a37.62,37.62,0,0,1-1.48-10,24.68,24.68,0,0,1,2.72-11.25c.46-.84,1-1.62,1.47-2.43a16.85,16.85,0,0,1,1.61-2.2c.57-.68,1.12-1.43,1.72-2l1.81-1.79.91-.89c.32-.28.67-.55,1-.82.67-.54,1.33-1.11,2-1.61,1.42-1,2.85-1.94,4.35-2.76a45.32,45.32,0,0,1,9.26-3.89,67,67,0,0,1,9.36-2.14,129.61,129.61,0,0,1,18-1.33l4.32,0c1.63,0,3.23.07,4.73.18l8.4.66c2.61.18,5,.35,7.2.29a26.64,26.64,0,0,0,5.59-.67c3.23-.78,5.58-2.38,10.67-5.67a46.47,46.47,0,0,1,9.59-4.8,34.42,34.42,0,0,1,11.72-1.88,45.09,45.09,0,0,1,5.05.31l4.11.47a36.16,36.16,0,0,0,6.41.33,9.71,9.71,0,0,0,2.06-.35l.38-.11a1.75,1.75,0,0,1,.32-.12c.13,0,.16-.09.26-.12a.75.75,0,0,0,.27-.17,9.06,9.06,0,0,0,1.6-1.56c.7-.78,1.45-1.83,2.46-3.12a37.43,37.43,0,0,1,3.85-4.28,22.42,22.42,0,0,1,6.1-4,24.13,24.13,0,0,1,10.59-1.75,16,16,0,0,1,1.89.24c.64.11,1.28.2,1.91.37a23,23,0,0,1,6.79,3.09,35.77,35.77,0,0,1,4.58,3.75c.65.61,1.14,1.1,1.69,1.64l.72.71c.23.23.48.47.68.65l.63.57c.21.19.38.31.56.47a12.22,12.22,0,0,0,1,.73,2.67,2.67,0,0,0,.39.22c.12.06.26.18.35.18a2.91,2.91,0,0,0,.59.19l.31.08.38,0c.21.07.59.05.88.1a52.63,52.63,0,0,0,6.3-.2,47.4,47.4,0,0,1,10.59.26c.53.09,1.06.16,1.61.28l1.68.42a27.83,27.83,0,0,1,3.39,1.17,36.5,36.5,0,0,1,3.32,1.64,32.27,32.27,0,0,1,2.86,1.91c3.46,2.61,5.55,4.9,7,6.1a12.1,12.1,0,0,0,1.72,1.19c.58.27,1.15.57,1.83.83,2.65,1.08,6.73,1.63,11.56,1.87,1.21.06,2.48.09,3.78.12l4,.08c2.61.07,5,0,7.1-.08a31,31,0,0,0,5.5-.76,17.55,17.55,0,0,0,2.07-.64,4.68,4.68,0,0,0,.45-.2c.12-.06.34-.14.4-.18a3.34,3.34,0,0,0,.48-.26,7.52,7.52,0,0,0,2-1.94,15.79,15.79,0,0,0,.86-1.49c0-.09.48.39.39,0a.27.27,0,0,1,0-.08s0,0,0-.06-.08-.13-.15-.23-.1-.1-.19-.15l-.23-.17c-.24-.1-.47-.23-.77-.35a20,20,0,0,0-5.44-1c-2.26-.17-4.8-.16-7.57-.1l-2.12,0c-.7,0-1.57,0-2.34,0l-2.38,0-2.37-.13q-4.74-.3-9.37-1a111.82,111.82,0,0,1-34.55-12.31l-4-2.2-3.92-2.32-3.85-2.4-3.58-2.29a47.81,47.81,0,0,0-6.31-3.52l-1.44-.58a12,12,0,0,0-1.45-.54,28.1,28.1,0,0,0-3-.85c-.51-.11-1-.24-1.51-.36a15.27,15.27,0,0,0-1.53-.27l-1.52-.25-1.56-.13a29.14,29.14,0,0,0-3.1-.18l-.77-.05-.78,0-1.55,0c-1,0-2.07.15-3.1.19l-3.08.41c-2,.4-4,.75-6,1.25a51.12,51.12,0,0,0-12,4,41.46,41.46,0,0,0-6.4,4.43,79.38,79.38,0,0,1-8.13,6,30.25,30.25,0,0,1-5.29,2.6,33.32,33.32,0,0,1-5.55,1.5,78.89,78.89,0,0,1-9.65,1c-2.8.15-5.55.38-8.33.61s-5.54.47-8.31.74l-8.3.75c-2.76.26-5.59.49-8.55.61a69.77,69.77,0,0,1-18.95-1.51,44.15,44.15,0,0,1-5-1.44,47.89,47.89,0,0,1-5-2,45.92,45.92,0,0,1-9.29-6,37.71,37.71,0,0,1-7.67-8.58A32.49,32.49,0,0,1,89,357a35.92,35.92,0,0,1-.39-11.09,69.06,69.06,0,0,1,1.69-9.05c.67-2.72,1.32-5.23,1.75-7.58.23-1.15.35-2.32.51-3.51s.18-2.42.16-3.65a45.24,45.24,0,0,0-.59-7.55,58,58,0,0,0-1.71-7.65,70.5,70.5,0,0,0-2.74-7.51c-.52-1.25-1.1-2.46-1.68-3.69s-1.25-2.4-1.93-3.57-1.39-2.36-2.13-3.46l-1.14-1.56-1.31-1.46A29.07,29.07,0,0,0,73,280.84c-4.76-2.72-10.11-4.43-15-7.25a23.84,23.84,0,0,1-6.46-5.38,8.05,8.05,0,0,1-1.89-3.87,3.68,3.68,0,0,1,.38-2.21,5.55,5.55,0,0,1,1.4-1.7,15.16,15.16,0,0,1,3.7-2.06c1.3-.53,2.62-1,4-1.38,2.64-.84,5.32-1.56,7.89-2.54a17.58,17.58,0,0,0,3.68-1.84c1.14-.77,2.22-1.64,3.29-2.51,2.14-1.75,4.23-3.58,6.33-5.38s4.22-3.59,6.41-5.29c1.1-.85,2.22-1.67,3.38-2.42A9.59,9.59,0,0,1,93.88,235.39Zm0,0a4.28,4.28,0,0,0-2,.6,17.74,17.74,0,0,0-1.74,1.12c-1.14.78-2.22,1.63-3.29,2.51-2.12,1.76-4.18,3.62-6.22,5.49s-4.07,3.75-6.17,5.59c-1,.92-2.12,1.82-3.28,2.67a18.79,18.79,0,0,1-3.81,2.06c-2.63,1.09-5.29,1.92-7.88,2.82-1.3.44-2.58.9-3.8,1.44a13.52,13.52,0,0,0-3.25,1.91,2.65,2.65,0,0,0-1.13,2.5,6.49,6.49,0,0,0,1.56,3,23.86,23.86,0,0,0,6,4.94c4.59,2.74,9.91,4.44,15,7a37,37,0,0,1,7.24,4.62l1.62,1.47,1.46,1.64c.91,1.11,1.76,2.21,2.57,3.36a78.52,78.52,0,0,1,4.6,7.07,75,75,0,0,1,3.87,7.51,67,67,0,0,1,3,7.93,54.26,54.26,0,0,1,1.94,8.29c.25,1.4.35,2.83.49,4.25s.14,2.86.09,4.29c-.07,2.86-.38,5.66-.68,8.41-.59,5.47-1.09,10.92.3,15.89a23.9,23.9,0,0,0,8.87,12.42,37.26,37.26,0,0,0,14.39,6.5,84.31,84.31,0,0,0,16.18,1.8c5.5.16,11.06.18,16.6.28L173,375a51.25,51.25,0,0,0,8.15-.36A19.72,19.72,0,0,0,188.7,372c4.63-2.83,8.2-7.18,12.53-10.73a46.83,46.83,0,0,1,14.61-8.12,49.3,49.3,0,0,1,32.85.35,41.7,41.7,0,0,1,3.84,1.63,16.21,16.21,0,0,1,1.85,1l1.83,1a76.31,76.31,0,0,1,6.84,4.73,117.09,117.09,0,0,0,13.75,9.29A92.2,92.2,0,0,0,291.91,378,82.1,82.1,0,0,0,308,382a79.92,79.92,0,0,0,16.58.44c2.77-.18,5.53-.35,8.3-.33a34.07,34.07,0,0,1,8.24.9,14.45,14.45,0,0,1,7.14,4,12.58,12.58,0,0,1,2.27,3.45,12.15,12.15,0,0,1,.89,4,15.63,15.63,0,0,1-2,8,19.15,19.15,0,0,1-5.36,6.27,23.28,23.28,0,0,1-7.44,3.58,40.6,40.6,0,0,1-8.18,1.41c-2.76.21-5.53.23-8.3.19s-5.54-.1-8.31-.25c-5.51-.32-11.11-1-16.19-3.31a23.92,23.92,0,0,1-6.87-4.6c-2-1.9-3.84-4-6-5.73a16.4,16.4,0,0,0-7.48-3.41,41.67,41.67,0,0,0-8.28-.53,45,45,0,0,1-8.28-.46,16.26,16.26,0,0,1-7.49-3.37,73.89,73.89,0,0,1-5.89-5.85,23.12,23.12,0,0,0-3.12-2.73,12.62,12.62,0,0,0-3.72-1.82c-.33-.1-.68-.14-1-.21a6.09,6.09,0,0,0-1-.15,14,14,0,0,0-6.11.88,12.77,12.77,0,0,0-3.49,2.22,25.35,25.35,0,0,0-2.79,3.07c-1.72,2.16-3.28,4.5-5.46,6.23a15.84,15.84,0,0,1-7.59,3.16c-5.49.91-11.06,0-16.59.25a25.56,25.56,0,0,0-8.1,1.68,39.24,39.24,0,0,0-7.28,4,81.25,81.25,0,0,1-7.06,4.37,30.16,30.16,0,0,1-7.8,2.79c-5.46,1.09-11.07.54-16.54-.19-2.74-.36-5.48-.8-8.23-1.14s-5.52-.51-8.28-.65a109.5,109.5,0,0,0-16.6.15,44.7,44.7,0,0,0-16,4.3,29.55,29.55,0,0,0-6.82,4.69l-1.52,1.42c-.49.48-.91,1-1.37,1.55a23.54,23.54,0,0,0-2.39,3.39,17.59,17.59,0,0,0-2.07,8,31.33,31.33,0,0,0,1.07,8.22c.66,2.69,1.44,5.35,2.14,8A66.74,66.74,0,0,1,89.29,456a24.63,24.63,0,0,1-.51,8.25,73.45,73.45,0,0,1-2.4,7.95,46.55,46.55,0,0,0-2.15,8,16,16,0,0,0,.76,8.18,20.19,20.19,0,0,0,4.56,6.87,15.31,15.31,0,0,0,6.84,4.53,8,8,0,0,0,4.1,0,12.57,12.57,0,0,0,3.74-1.76,57.81,57.81,0,0,0,6.36-5.34,31.85,31.85,0,0,1,6.64-5,24,24,0,0,1,8-2.16c5.53-.58,11.07.18,16.56.82a117.76,117.76,0,0,0,16.58.82,98.66,98.66,0,0,0,16.55-1.37,63.71,63.71,0,0,0,15.84-4.86l1.88-.88c.62-.31,1.22-.66,1.83-1,1.24-.63,2.41-1.37,3.59-2.1,2.34-1.47,4.55-3.15,6.88-4.65a55.44,55.44,0,0,1,15.2-6.56,67.46,67.46,0,0,1,16.43-2.22,98.66,98.66,0,0,1,16.55,1.28c22,2.82,44.22,2.74,66.33,4.11,11.08,1.13,22.13-.66,33.19-1A66.9,66.9,0,0,1,369.16,469a31.73,31.73,0,0,1,7.82,2.74,25.12,25.12,0,0,1,6.64,4.93,28.9,28.9,0,0,1,4.78,6.77c1.2,2.49,2.16,5.1,3.53,7.52a17.8,17.8,0,0,0,5.34,6.25,13.37,13.37,0,0,0,7.88,2.14c2.78,0,5.48-.77,8.24-1a53.52,53.52,0,0,1,8.3-.35,45.47,45.47,0,0,1,16.11,3.68c5.14,2.06,10.2,4.41,15.66,5.5s11.09.46,16.47-.73c2.71-.61,5.38-1.35,8-2.12,1.33-.39,2.67-.74,4-1.1s2.69-.64,4.06-.86A87.31,87.31,0,0,1,502.58,501a111.78,111.78,0,0,1,16.54,1.42c2.74.42,5.44,1.05,8.18,1.49a26.37,26.37,0,0,0,8.27,0,14.84,14.84,0,0,0,7.38-3.56,18.24,18.24,0,0,0,4.47-6.92,34.87,34.87,0,0,0,2-8.06,73.84,73.84,0,0,0,.6-8.28c.09-5.54-.24-11.07-.62-16.6s-.85-11.06-.74-16.6a106.79,106.79,0,0,0-.71-16.58,38.42,38.42,0,0,0-2-8.06,21.56,21.56,0,0,0-4.18-7.11c-1.89-2.07-4.43-3.29-6.86-4.61s-5-2.44-7.48-3.6a75.74,75.74,0,0,1-7.39-3.8,20.92,20.92,0,0,1-6.18-5.48A20.31,20.31,0,0,1,510.7,387a31.5,31.5,0,0,1-.57-4.11l-.16-2.07c0-.7,0-1.39,0-2.08a106.67,106.67,0,0,1,1.46-16.54c.79-5.48,1.65-11,1.91-16.5a47.89,47.89,0,0,0-1.85-16.42c-.48-1.31-.92-2.62-1.42-3.91l-.73-1.95-.63-2c-.82-2.65-1.51-5.34-2.07-8-1.15-5.42-1.93-10.91-3-16.35-.51-2.72-1.12-5.43-1.82-8.11a67.79,67.79,0,0,0-2.64-7.86,39.75,39.75,0,0,0-9.54-13.45,140.94,140.94,0,0,0-12.86-10.51c-4.43-3.33-8.71-6.85-12.89-10.49a199.58,199.58,0,0,1-41.56-51.51c-1.33-2.43-2.67-4.86-3.92-7.33s-2.49-5-3.59-7.5l-1.71-3.78-1.58-3.85c-1.08-2.55-2-5.16-3.12-7.7a49.3,49.3,0,0,0-3.77-7.38,22.92,22.92,0,0,0-5.53-6.12,17.66,17.66,0,0,0-1.72-1.14c-.6-.35-1.23-.64-1.85-.94a27,27,0,0,0-3.94-1.27c-2.69-.67-5.45-1-8.18-1.39a31,31,0,0,1-8-2.13,23,23,0,0,1-3.62-2c-.59-.37-1.13-.81-1.68-1.23s-1.11-.83-1.62-1.31a70.34,70.34,0,0,1-11-12.46c-3.23-4.49-6.25-9.14-9.58-13.57a73.64,73.64,0,0,0-5.34-6.36,47.57,47.57,0,0,0-6.28-5.4,49.44,49.44,0,0,0-14.89-7.14,68.05,68.05,0,0,0-16.35-2.62,110.78,110.78,0,0,0-16.59.54,159.79,159.79,0,0,0-16.38,2.71c-10.81,2.36-21.49,5.4-32.39,7.44s-22.09,3-33.1,1.39c-1.37-.2-2.75-.36-4.1-.67s-2.73-.49-4.07-.87a75.23,75.23,0,0,1-7.86-2.72,67.84,67.84,0,0,0-7.86-2.65,19.76,19.76,0,0,0-8.2-.53,14.72,14.72,0,0,0-3.94,1.2c-.31.14-.65.25-1,.42l-.9.51-.9.51a9.86,9.86,0,0,0-.84.6,26.06,26.06,0,0,0-3.18,2.66l-1.4,1.53c-.48.49-.86,1.08-1.3,1.61a44,44,0,0,0-4.35,7,73.13,73.13,0,0,0-3.32,7.6c-3.87,10.39-6.19,21.27-8.52,32.09-1.15,5.41-2.27,10.84-3.61,16.22-.66,2.69-1.41,5.37-2.25,8a49.94,49.94,0,0,1-3.14,7.7c-4.94,9.95-11.64,18.9-18.91,27.24-3.53,4.27-6.94,8.65-10.6,12.81-1.82,2.08-3.7,4.12-5.69,6a35.16,35.16,0,0,1-3.13,2.73,13.36,13.36,0,0,1-1.74,1.14A4.45,4.45,0,0,1,93.88,235.43Z"/></svg>