<svg id="Layer_1" data-name="Layer 1" xmlns="http://www.w3.org/2000/svg" viewBox="0 0 600 600"><title>Seychelles</title><path d="M53.45,269.13a28.84,28.84,0,0,0,12,11.07,25,25,0,0,0,3.77,1.52,18.33,18.33,0,0,0,3.87.83l.94.08.94,0a12.54,12.54,0,0,0,1.83-.23,13.48,13.48,0,0,0,3.41-1.23,15.49,15.49,0,0,0,7.86-10.77c.69-3.88-1-8.3-3.28-13.12-2.33-5-4.24-9.67-7.39-12.15a8,8,0,0,0-5.18-2,7.21,7.21,0,0,0-2.91.75,24.17,24.17,0,0,0-3.28,2,32.15,32.15,0,0,1-3.81,2.35,14.75,14.75,0,0,1-2.21.88c-.38.09-.82.22-1.13.28l-1,.21a10,10,0,0,0-6.32,4c-1.42,2.2-1.5,5.12-1,7.8A25,25,0,0,0,53.45,269.13Zm0,0a30.83,30.83,0,0,1-3.18-7.69c-.67-2.67-1-5.66.23-8.44a10.22,10.22,0,0,1,2.71-3.58A17.3,17.3,0,0,1,57,247l1-.46c.34-.15.55-.28.83-.42a11.74,11.74,0,0,0,1.48-1,30.84,30.84,0,0,0,2.78-2.73,30.86,30.86,0,0,1,3.27-3.12,12.82,12.82,0,0,1,4.73-2.41,12.68,12.68,0,0,1,5.58-.17,16,16,0,0,1,5,1.91,18.49,18.49,0,0,1,4.09,3.24,24.5,24.5,0,0,1,3,3.85,40.21,40.21,0,0,1,2.27,3.95c.66,1.32,1.26,2.53,1.87,3.85a40.18,40.18,0,0,1,3,8.67,19.66,19.66,0,0,1-.43,10.26,20.24,20.24,0,0,1-13.78,12.92,17.26,17.26,0,0,1-4.68.59,15,15,0,0,1-2.32-.23c-.38-.07-.76-.13-1.13-.21l-1.11-.32a30.33,30.33,0,0,1-7.7-3.91A38.8,38.8,0,0,1,53.45,269.13Z"/><path d="M215,317.28a11.94,11.94,0,0,0-1.85,3.81,20.45,20.45,0,0,0-.61,4.28c-.1,2.9.06,5.85,0,8.78l-.05,8.81a16.42,16.42,0,0,1-.58,4.59,5.44,5.44,0,0,1-1.28,2.23,6.55,6.55,0,0,1-2.24,1.37,40.42,40.42,0,0,1-4.38,1.12,6.62,6.62,0,0,0-.92.3l-1,.44c-.67.3-1.35.61-2,1-2.64,1.38-5.18,3.09-7.81,4.48a33.74,33.74,0,0,1-4,1.81c-1.34.53-2.65.92-3.82,1.43a27.84,27.84,0,0,0-3.18,1.52,12.8,12.8,0,0,0-1.27.87,7,7,0,0,0-1.06,1,7.38,7.38,0,0,0-.83,1.1c-.12.2-.27.38-.38.59s-.18.44-.28.66a3.19,3.19,0,0,0-.23.7c0,.24-.16.47-.19.73a9.31,9.31,0,0,0-.12,1.61,12.55,12.55,0,0,0,2.09,6.79,16.56,16.56,0,0,0,1.07,1.56c.39.5.86.93,1.28,1.4a15.51,15.51,0,0,0,2.94,2.27,22.51,22.51,0,0,0,3.54,1.61c1.28.4,2.57.77,3.92,1.07,5.4,1.18,11.39,1.11,18,2.83.82.2,1.67.44,2.48.72s1.64.61,2.44.94,1.61.67,2.38,1.05,1.54.78,2.27,1.21,1.48.86,2.18,1.33a21.09,21.09,0,0,1,2.06,1.44,13,13,0,0,1,3.17,3.85c.81,1.5,1.51,3.05,2.28,4.48a16.94,16.94,0,0,0,2.78,3.68l3,3.3,3.06,3.19c4.1,4.19,8.48,8.12,12.79,12.12l3.2,3c1.07,1,2.13,2.05,3.27,3.23a41.75,41.75,0,0,1,3.39,4,27.23,27.23,0,0,1,3,5.08,20.54,20.54,0,0,1,1.11,3.18,11.94,11.94,0,0,1,.24,5.1A9.46,9.46,0,0,1,263,453a9.3,9.3,0,0,1-1.9,1.78,9.68,9.68,0,0,1-1,.63c-.3.15-.6.29-.91.42l-.46.17-.38.12-.77.22c-.47.11-.86.16-1.3.23l-1.06.1-.92,0c-1.13,0-2,0-2.78-.1s-1.39-.07-1.68-.05H250l-.1,0-.2.05-.4.09c-.51.13-1,.27-1.4.42a5.3,5.3,0,0,0-1.72,1,2.26,2.26,0,0,0-.6.9,3.16,3.16,0,0,0-.25,1.21,3.92,3.92,0,0,0,.24,1.35,2.71,2.71,0,0,0,.62,1c.05.06.15.12.2.19s.11.07.15.12.08,0,.13,0a2.39,2.39,0,0,1,.32.07c.25,0,.56.1,1.09.15,1,.12,2.53.2,4.42.45.46.06.95.14,1.46.23l.38.07.2,0,.36.09c.48.12,1,.26,1.43.42A15,15,0,0,1,261,467.1a18.35,18.35,0,0,1,2.87,3.16c.39.52.66,1,1,1.46s.56.94.78,1.36c.94,1.74,1.59,3.29,2.1,4.35a23.15,23.15,0,0,0,1.58,2.75,29.68,29.68,0,0,0,4.2,5,32.42,32.42,0,0,0,5.35,4.05,57.34,57.34,0,0,1,5.92,4.89,14.93,14.93,0,0,0,6.66,3.63,12.62,12.62,0,0,0,3.08.43,4.31,4.31,0,0,0,2.08-.49,2.21,2.21,0,0,0,.49-.36,1.66,1.66,0,0,0,.24-.59,5.74,5.74,0,0,0-.27-2.58,24.23,24.23,0,0,0-3.58-6.7,49.75,49.75,0,0,0-5.57-6.22,47.5,47.5,0,0,1-6.41-7.32,26.75,26.75,0,0,1-2.59-4.85,35,35,0,0,1-2.29-15.82,35.16,35.16,0,0,1,.9-5.35,28,28,0,0,1,1.81-5.21,28.69,28.69,0,0,1,2.76-4.88c1.05-1.49,1.94-2.64,2.57-3.5a6.16,6.16,0,0,0,1-1.72,4.41,4.41,0,0,0,.28-1.74,19.2,19.2,0,0,0-.31-3.17l-.82-4.41a26.73,26.73,0,0,1-.45-5.8,16.93,16.93,0,0,1,.52-3.54,14.73,14.73,0,0,1,1.4-3.49,16.92,16.92,0,0,1,2-2.77q.51-.6,1-1.11l.48-.47.28-.26a8.49,8.49,0,0,0,1.61-1.94,3.14,3.14,0,0,0,.51-1.59,2.53,2.53,0,0,0,0-.47c0-.17-.08-.33-.11-.5l-.05-.27a1.33,1.33,0,0,0-.09-.21c-.06-.14-.1-.3-.16-.44a4.39,4.39,0,0,0-1.51-1.5,11.65,11.65,0,0,0-3-1,37.31,37.31,0,0,0-3.8-.46c-1.36-.07-2.77-.09-4.31-.15l-2.39-.09c-.87-.07-1.74-.13-2.65-.28a39.28,39.28,0,0,1-5.2-1.12,46.81,46.81,0,0,1-4.83-1.74,48.2,48.2,0,0,1-4.5-2.22,55.36,55.36,0,0,1-14.78-12.58,64.44,64.44,0,0,1-10.47-16.41,43.48,43.48,0,0,1-2.89-9.75,33.15,33.15,0,0,1-.42-5.3c0-.46,0-.9,0-1.36l.12-1.37.07-.68.13-.76a12.08,12.08,0,0,1,.32-1.46,41.27,41.27,0,0,1,4-8.91c.68-1.25,1.27-2.43,1.78-3.59a14.48,14.48,0,0,0,1-3.26,6.89,6.89,0,0,0-.28-2.95,10,10,0,0,0-1.78-3,19.3,19.3,0,0,0-6.3-4.74,16.88,16.88,0,0,0-7.87-1.83A9.16,9.16,0,0,0,215,317.28Zm-.83-.57a10.6,10.6,0,0,1,7.76-4.52,19.58,19.58,0,0,1,8.95,1.2,22.83,22.83,0,0,1,7.76,4.69,14.11,14.11,0,0,1,2.85,3.71,10.87,10.87,0,0,1,1.13,4.65,17.2,17.2,0,0,1-.69,4.62c-.44,1.46-1,2.88-1.53,4.25a45.36,45.36,0,0,0-2.84,8.05,15.36,15.36,0,0,0-.16,4.08,24.46,24.46,0,0,0,.65,4.13,37,37,0,0,0,3,7.9,61.24,61.24,0,0,0,10,13.88,75.58,75.58,0,0,0,13.13,11,45.63,45.63,0,0,0,7.48,4.08,30.34,30.34,0,0,0,8.18,2.14,69,69,0,0,1,8.78,1.58,21.94,21.94,0,0,1,4.31,1.7,11.67,11.67,0,0,1,3.58,3.18c.22.34.41.71.61,1.06a5.61,5.61,0,0,1,.29.54l.2.57c.13.38.28.75.39,1.14a8.19,8.19,0,0,1,.23,1.2,9.34,9.34,0,0,1-.64,4.82,14.38,14.38,0,0,1-2.53,4c-.54.6-1,1.06-1.39,1.61a9.9,9.9,0,0,0-1.05,1.67c-1.18,2.3-.82,5.08-.17,7.84s1.63,5.63,1.86,8.78a13.48,13.48,0,0,1-.47,4.79,14.45,14.45,0,0,1-2.17,4.25c-.88,1.27-1.84,2.38-2.67,3.52a27.13,27.13,0,0,0-2.18,3.58,29.06,29.06,0,0,0-2.74,16.47,21,21,0,0,0,2.58,8,44.84,44.84,0,0,0,5.14,6.93,80.3,80.3,0,0,1,5.38,7,34.74,34.74,0,0,1,4.13,7.93,10.85,10.85,0,0,1,.54,4.58,6.53,6.53,0,0,1-.73,2.29,6.68,6.68,0,0,1-1.57,1.82,9,9,0,0,1-4.26,1.81,16.46,16.46,0,0,1-4.54.07,41.53,41.53,0,0,1-8.71-2,47.54,47.54,0,0,1-8.23-3.5,37.77,37.77,0,0,1-13-12.25,34.66,34.66,0,0,1-2.19-4c-.63-1.36-1.18-2.69-1.84-3.94a11.63,11.63,0,0,0-2.36-3.28,5.31,5.31,0,0,0-1.56-1,12.06,12.06,0,0,0-2-.43c-1.4-.23-2.85-.34-4.36-.56a13.28,13.28,0,0,1-4.48-1.38,11.59,11.59,0,0,1-5.49-7.5,12.3,12.3,0,0,1,1.35-9.16,11,11,0,0,1,3.22-3.47,14.62,14.62,0,0,1,4.22-2,21.16,21.16,0,0,1,2.22-.55l1.13-.19a6.49,6.49,0,0,1,1.23,0c1.56,0,3,.28,4.38.3a5.15,5.15,0,0,0,1.84-.23,1.14,1.14,0,0,0,.8-1,4.43,4.43,0,0,0-.11-1.82,13.51,13.51,0,0,0-.63-2,25.5,25.5,0,0,0-4.72-7c-1.93-2.15-4-4.28-6-6.42q-6-6.44-12.09-12.79c-4.06-4.22-8-8.63-12.67-12.06-2.31-1.75-4.55-3.54-6.92-5.15a46.62,46.62,0,0,0-7.49-4.12c-5.25-2.34-11-3.8-16.47-6a37.42,37.42,0,0,1-8-4.1,26.17,26.17,0,0,1-3.47-2.92,25.41,25.41,0,0,1-2.82-3.55,25,25,0,0,1-2.12-4,17.59,17.59,0,0,1-1.16-4.48,12.66,12.66,0,0,1,2.28-9.1,13.1,13.1,0,0,1,3.5-3.27,23.82,23.82,0,0,1,4.14-2.12,75.44,75.44,0,0,1,8.47-2.7c2.85-.73,5.72-1.38,8.55-2.13,1.44-.37,2.79-.81,4.33-1.11a39.85,39.85,0,0,0,4.27-.74,3.63,3.63,0,0,0,2.73-2.56,13.39,13.39,0,0,0,.63-4.18l.13-8.79c.06-2.94.08-5.85.26-8.82A17.3,17.3,0,0,1,214.21,316.71Z"/><path d="M261.69,367.47a8.1,8.1,0,0,0,2.77,2.17,15.28,15.28,0,0,0,3.38,1.07c2.3.51,4.82,1,7,2.57a20.11,20.11,0,0,1,4.89,5.79c1.26,2,2.56,3.95,4.1,4.88a3.66,3.66,0,0,0,2.15.48c.72-.07,1.14-.4,1.21-.64a1.71,1.71,0,0,0-.08-1.09,3.33,3.33,0,0,0-1-1.52,12,12,0,0,0-2.32-1.51,31.35,31.35,0,0,1-3.36-2,21.09,21.09,0,0,1-6-6.27,15.92,15.92,0,0,1-1.81-4,24.37,24.37,0,0,1-.78-4.31,28,28,0,0,1-.07-4.28c.08-1.31.21-2.47.3-3.61a22,22,0,0,0-.12-6.09,4.29,4.29,0,0,0-.9-1.92c-.12-.1-.21-.26-.36-.35s-.3-.18-.45-.28a2.93,2.93,0,0,0-.57-.21,3.47,3.47,0,0,0-.6-.19,6.43,6.43,0,0,0-5.29,1.79,9.89,9.89,0,0,0-2,2.55,11,11,0,0,0-1.27,3.19,40.11,40.11,0,0,0-.73,7A11.2,11.2,0,0,0,261.69,367.47Zm-.06,0a15.78,15.78,0,0,1-2.36-6.74,23.63,23.63,0,0,1,0-7.27,27,27,0,0,1,.77-3.67,12.12,12.12,0,0,1,1.75-3.53,10.88,10.88,0,0,1,3-2.82,9.08,9.08,0,0,1,4.24-1.4,6.51,6.51,0,0,1,1.17,0,6.9,6.9,0,0,1,1.19.14c.41.11.81.23,1.22.36a9.86,9.86,0,0,1,1.17.59,9.4,9.4,0,0,1,3.35,3.74,25.34,25.34,0,0,1,2.16,8c.18,1.25.31,2.48.49,3.56a14.15,14.15,0,0,0,.71,2.85,20.2,20.2,0,0,0,1.19,2.58l1.27,2.48a25.47,25.47,0,0,0,3,4.78,26.84,26.84,0,0,0,2.3,2.43,23.37,23.37,0,0,1,2.95,3.34,10.08,10.08,0,0,1,1.81,5,7.81,7.81,0,0,1-.34,2.91,6.53,6.53,0,0,1-1.67,2.67,6.29,6.29,0,0,1-2.67,1.48,7.12,7.12,0,0,1-2.69.19,8.15,8.15,0,0,1-4.47-2,19.24,19.24,0,0,1-4.16-6.74,17.83,17.83,0,0,0-3.45-5.77c-1.52-1.57-3.77-2.42-6-3.25a22.49,22.49,0,0,1-3.31-1.52A8.52,8.52,0,0,1,261.63,367.51Z"/><path d="M404.5,178.32a12.81,12.81,0,0,1-6.63-2.7,43.92,43.92,0,0,0-6.1-3.88,9.62,9.62,0,0,0-3.44-.85,14.25,14.25,0,0,0-3.55.38c-1.18.25-2.36.53-3.59.7a12.87,12.87,0,0,1-1.87.1,10.06,10.06,0,0,1-1.89-.3,11.15,11.15,0,0,1-6-4.56,26.23,26.23,0,0,1-3.28-6.73,9.34,9.34,0,0,0-1.4-2.92,3.91,3.91,0,0,0-2.34-1.39,13.69,13.69,0,0,0-1.58-.22,14.75,14.75,0,0,0-4.87.39,16,16,0,0,0-5.75,2.91,35.09,35.09,0,0,0-4.87,4.75,20,20,0,0,0-3.59,5.27,6.56,6.56,0,0,0-.22,5,9.16,9.16,0,0,0,3.29,4.11,14.62,14.62,0,0,0,5.36,2.28,40.48,40.48,0,0,0,6.59.83,31.37,31.37,0,0,1,8,1.29,12.24,12.24,0,0,1,4.38,2.45,9.55,9.55,0,0,1,3,4.84,15.87,15.87,0,0,1,.33,4.62,20.67,20.67,0,0,0,0,3,2,2,0,0,0,.45,1.22,3.12,3.12,0,0,0,1.55.77,23.74,23.74,0,0,0,3.16.46,30.3,30.3,0,0,1,4,.6,11.49,11.49,0,0,1,4.31,2,18,18,0,0,1,3,3c1.6,2,2.89,3.86,4.3,4.69a2.65,2.65,0,0,0,.53.27,2.72,2.72,0,0,0,.55.18,3.39,3.39,0,0,0,1.22.11,21.63,21.63,0,0,0,3.26-.64,20.19,20.19,0,0,0,6.28-2.39,7.74,7.74,0,0,0,2.27-2.14,3.74,3.74,0,0,0,.65-1.27,5.73,5.73,0,0,0,.19-1.51,6.4,6.4,0,0,0-.68-3,1.81,1.81,0,0,0-.94-.82,16.13,16.13,0,0,0-1.64-.52c-.3-.09-.61-.19-.91-.3a3.59,3.59,0,0,1-1-.53,2.71,2.71,0,0,1-1.15-2,2.9,2.9,0,0,1,.84-2.08,6.46,6.46,0,0,1,1.64-1.16,8,8,0,0,1,3.76-.73,30.88,30.88,0,0,1,3.65.39,8.46,8.46,0,0,0,3.47,0,3,3,0,0,0,2-2.53,10.91,10.91,0,0,0,0-3.56,8.1,8.1,0,0,0-1.44-3.24,9.49,9.49,0,0,0-2.73-2.31,15.85,15.85,0,0,0-3.36-1.32A33.37,33.37,0,0,0,404.5,178.32Zm0,0a32.86,32.86,0,0,1,7.18.93,11.8,11.8,0,0,1,6.2,3.58,8.4,8.4,0,0,1,1.56,3.29,11.88,11.88,0,0,1,.14,3.67,4.29,4.29,0,0,1-.63,1.77,3,3,0,0,1-1.52,1.19,8.86,8.86,0,0,1-3.72.16c-2.37-.24-4.88-.49-6.82.63a5,5,0,0,0-1.26,1,1.69,1.69,0,0,0-.44,1.21,1.39,1.39,0,0,0,.67,1,2.18,2.18,0,0,0,.64.28c.27.08.54.15.83.21a17.64,17.64,0,0,1,1.85.43A3.7,3.7,0,0,1,411,199a8.26,8.26,0,0,1,1.25,3.92,8.13,8.13,0,0,1-.11,2.08,6.4,6.4,0,0,1-.77,2,10.54,10.54,0,0,1-2.68,3.1,24.9,24.9,0,0,1-6.88,3.55,24.63,24.63,0,0,1-3.76,1.17,8.07,8.07,0,0,1-4.75-.55,13.08,13.08,0,0,1-3.62-2.5c-1-.92-1.82-1.82-2.63-2.62a12.66,12.66,0,0,0-2.33-1.92,5.57,5.57,0,0,0-2.32-.75,26.7,26.7,0,0,0-3.19-.19,29.34,29.34,0,0,1-4.05-.28c-.39-.08-.76-.13-1.19-.26a7.35,7.35,0,0,1-1.25-.42l-.64-.28-.64-.38a7,7,0,0,1-1.22-.91,8.52,8.52,0,0,1-1.85-2.44,9.71,9.71,0,0,1-.85-2.71,24,24,0,0,1-.17-4.24,9.41,9.41,0,0,0-.18-2.59,2.54,2.54,0,0,0-.79-1.23,5.49,5.49,0,0,0-1.92-1,16.83,16.83,0,0,0-2.87-.67c-1.07-.17-2.12-.26-3.38-.36a45,45,0,0,1-7.74-1.26,23.34,23.34,0,0,1-4-1.45,17.71,17.71,0,0,1-3.74-2.34,15.18,15.18,0,0,1-5.08-7.47,11.72,11.72,0,0,1-.35-4.78,13.47,13.47,0,0,1,1.42-4.36,24.75,24.75,0,0,1,5.05-6.3,36.94,36.94,0,0,1,6-4.81,19.78,19.78,0,0,1,7.44-2.86,16.26,16.26,0,0,1,4-.15,15.76,15.76,0,0,1,1.95.26,13.09,13.09,0,0,1,2,.48,6.55,6.55,0,0,1,3.52,2.64,12.52,12.52,0,0,1,1.43,3.73,23.87,23.87,0,0,0,2.53,6.5,9.49,9.49,0,0,0,5,4.47c2.17.8,4.6.28,7-.11a14.91,14.91,0,0,1,3.66-.24,11,11,0,0,1,3.52,1,45.69,45.69,0,0,1,6,4A12.83,12.83,0,0,0,404.5,178.32Z"/><path d="M466.37,148.28a3.24,3.24,0,0,0-1.64.77,4.12,4.12,0,0,0-.92,1.55,9,9,0,0,0-.53,3.55,12.1,12.1,0,0,0,2.32,6.51,11.37,11.37,0,0,0,5,3.77c1.78.7,4.41,1.25,5.56,1,.78,0,1.93-1.48,2.18-3.28a12.16,12.16,0,0,0-.93-6.24,11.34,11.34,0,0,0-4.26-5.43,14.79,14.79,0,0,0-3.23-1.68A7.85,7.85,0,0,0,466.37,148.28Zm0,0a9.62,9.62,0,0,1,3.65.33,24.7,24.7,0,0,1,3.5,1.24c.57.27,1.15.52,1.71.85a11.71,11.71,0,0,1,1.6,1.11,16.37,16.37,0,0,1,2.78,2.8,13.36,13.36,0,0,1,3.09,7.69,8.87,8.87,0,0,1-1.09,4.67c-.22.35-.46.7-.71,1a3.88,3.88,0,0,1-.45.54,3.38,3.38,0,0,1-.56.5,6.25,6.25,0,0,1-2.68,1.25,9.91,9.91,0,0,1-4.73-.35,15,15,0,0,1-3.86-1.72,13,13,0,0,1-5.23-6.42,16.31,16.31,0,0,1-.79-7.69,12.19,12.19,0,0,1,1-3.59A4.46,4.46,0,0,1,464.7,149,3.28,3.28,0,0,1,466.37,148.28Z"/><path d="M466.31,180a4.43,4.43,0,0,0-2.5.12,5.61,5.61,0,0,0-2,1.5,12.2,12.2,0,0,0-2.55,4.26,16.79,16.79,0,0,0-.47,9.55,15.86,15.86,0,0,0,4.47,7.47c1.91,1.82,5,3.91,6.57,4.16.83.12,1,.11,2.13-.53a7.77,7.77,0,0,0,2.36-2.49,16.71,16.71,0,0,0,2.11-8.45,15.72,15.72,0,0,0-2.55-9.2,20.54,20.54,0,0,0-3.25-3.84A10.64,10.64,0,0,0,466.31,180Zm0,0a13.15,13.15,0,0,1,4.49,2.35,33.71,33.71,0,0,1,3.84,3.44c.59.63,1.19,1.27,1.74,2,.27.36.53.73.77,1.11a10.42,10.42,0,0,1,.69,1.16,22.49,22.49,0,0,1,2.08,5,18.53,18.53,0,0,1-.09,11.5A12.26,12.26,0,0,1,476,212c-.47.33-1,.65-1.46,1a5.67,5.67,0,0,1-.86.45,6.47,6.47,0,0,1-1,.36,9,9,0,0,1-4.1.18,13.72,13.72,0,0,1-5.89-3,25.73,25.73,0,0,1-2.13-1.94,18.86,18.86,0,0,1-1.9-2.3,17.94,17.94,0,0,1-3.29-11,20.51,20.51,0,0,1,1-5.4,22.69,22.69,0,0,1,2.11-4.86,16.73,16.73,0,0,1,3.25-4,6.42,6.42,0,0,1,2.14-1.39A4.5,4.5,0,0,1,466.31,180Z"/><path d="M492.54,177.87a3.24,3.24,0,0,0-1.5,1,3.94,3.94,0,0,0-.64,1.71,8.61,8.61,0,0,0,.15,3.61,11.57,11.57,0,0,0,3.64,5.87,11.38,11.38,0,0,0,5.56,2.45c1.72.29,4.49.28,5.11-.05a1.49,1.49,0,0,0,.24-.11l0,0s0,0,.09-.09a3.22,3.22,0,0,1,.25-.39,4.93,4.93,0,0,0,.55-2,11.69,11.69,0,0,0-1.5-5.87,10.91,10.91,0,0,0-4.83-4.93,14.08,14.08,0,0,0-3.47-1.24A7.64,7.64,0,0,0,492.54,177.87Zm0,0a9.9,9.9,0,0,1,3.72-.3,27,27,0,0,1,3.75.57c.63.15,1.26.29,1.89.5a13.48,13.48,0,0,1,1.87.8,17.5,17.5,0,0,1,3.44,2.27,13.67,13.67,0,0,1,4.82,7.4,9.61,9.61,0,0,1-.29,5.31c-.18.43-.38.85-.58,1.28a4.57,4.57,0,0,1-.41.69,4.38,4.38,0,0,1-.55.69,7.29,7.29,0,0,1-2.83,1.95,10.6,10.6,0,0,1-5.22.45A19.25,19.25,0,0,1,500,199a13.71,13.71,0,0,1-2.17-.79,13.51,13.51,0,0,1-6.42-6.06,17.46,17.46,0,0,1-1.8-7.85,13.32,13.32,0,0,1,.56-3.79,4.64,4.64,0,0,1,.83-1.68A3.26,3.26,0,0,1,492.54,177.87Z"/><path d="M504.32,158.33a3.26,3.26,0,0,0-.79,1.65,4.12,4.12,0,0,0,.3,1.8,8.68,8.68,0,0,0,1.94,3.06,11.66,11.66,0,0,0,6.09,3.26,11.28,11.28,0,0,0,6-.66c1.64-.6,4-2,4.4-2.59a1,1,0,0,0,.16-.21s0,0,0,0,0,0,0-.12a3.83,3.83,0,0,1,0-.47,4.89,4.89,0,0,0-.54-2,11.55,11.55,0,0,0-4.24-4.34,10.81,10.81,0,0,0-6.64-1.86,14,14,0,0,0-3.62.66A7.58,7.58,0,0,0,504.32,158.33Zm0,0a9.76,9.76,0,0,1,3.06-2.12,27,27,0,0,1,3.54-1.38c.62-.18,1.24-.38,1.89-.51a13.91,13.91,0,0,1,2-.24,17.25,17.25,0,0,1,4.11.25,13.71,13.71,0,0,1,7.88,4,9.64,9.64,0,0,1,2.4,4.74c.06.46.1.93.13,1.4a4.25,4.25,0,0,1,0,.8,6.67,6.67,0,0,1-.13.88,7.47,7.47,0,0,1-1.49,3.1,10.73,10.73,0,0,1-4.29,3,18.46,18.46,0,0,1-2.1.7,13.82,13.82,0,0,1-10.86-1.65,17.46,17.46,0,0,1-5.48-5.9,13.13,13.13,0,0,1-1.4-3.55,4.78,4.78,0,0,1-.13-1.88A3.25,3.25,0,0,1,504.32,158.33Z"/><path d="M342.51,200.75a2.06,2.06,0,0,0-1-.81,3.45,3.45,0,0,0-1.32-.06,7.22,7.22,0,0,0-2.51.79,10,10,0,0,0-3.7,3.46,8.07,8.07,0,0,0-1.21,4.22c0,.34,0,.68.05,1s0,.33.07.49l.1.55a3.38,3.38,0,0,0,.44,1.32c0,.06,0,0,0,.06a2.15,2.15,0,0,0,.48.15,4.56,4.56,0,0,0,1.68,0,10,10,0,0,0,4.08-2,8.16,8.16,0,0,0,3-4,9.27,9.27,0,0,0,.43-2.62A4.63,4.63,0,0,0,342.51,200.75Zm0,0a5.89,5.89,0,0,1,.78,2.57,17.82,17.82,0,0,1,.07,2.74,12.17,12.17,0,0,1-1.77,5.5,10.94,10.94,0,0,1-4.48,4.38,7.54,7.54,0,0,1-3.6.8,6.3,6.3,0,0,1-2.12-.46,5,5,0,0,1-2-1.62,7.08,7.08,0,0,1-1.19-3.75c0-.27,0-.53,0-.78s0-.58,0-.86a9.3,9.3,0,0,1,.32-1.67,9.63,9.63,0,0,1,3.66-5.2,15,15,0,0,1,5.25-2.37,11,11,0,0,1,2.73-.32,4,4,0,0,1,1.34.19A2.08,2.08,0,0,1,342.51,200.75Z"/><path d="M334.29,181.46a1.7,1.7,0,0,0-1-.3,2.6,2.6,0,0,0-1,.33,5,5,0,0,0-1.55,1.34,6.73,6.73,0,0,0-1.36,3.65,6,6,0,0,0,.72,3.17,9.78,9.78,0,0,0,.82,1.28,2.47,2.47,0,0,0,.6.65.49.49,0,0,0-.17,0h0s0,0,0,0h.21a2.54,2.54,0,0,0,1-.33,6.8,6.8,0,0,0,2.35-2.37,6,6,0,0,0,1-3.72,7,7,0,0,0-.47-2A3.83,3.83,0,0,0,334.29,181.46Zm0,0a5.13,5.13,0,0,1,1.36,1.6,15.18,15.18,0,0,1,1,1.93,9.86,9.86,0,0,1,.72,4.59,8.25,8.25,0,0,1-1.82,4.83,6.1,6.1,0,0,1-2.59,1.8c-.27.08-.55.15-.82.21a2.87,2.87,0,0,1-.49.07,2.7,2.7,0,0,1-.57,0,4.55,4.55,0,0,1-2.15-.68,6.13,6.13,0,0,1-2.13-2.49,8.25,8.25,0,0,1-.8-2.59,7.7,7.7,0,0,1,1.1-5.11,11.47,11.47,0,0,1,3.24-3.3,8.92,8.92,0,0,1,1.94-1,3.12,3.12,0,0,1,1-.22A1.7,1.7,0,0,1,334.29,181.46Z"/><path d="M381.31,154.3a3.29,3.29,0,0,0,1.73.37,3.9,3.9,0,0,0,1.64-.65,8.41,8.41,0,0,0,2.49-2.48,10.87,10.87,0,0,0-.16-12.33c-1.05-1.56-2.83-3.5-3.91-4-.58-.24-.66-.25-1.57,0a5.09,5.09,0,0,0-2,1.25,11.3,11.3,0,0,0-2.78,5.45,11.09,11.09,0,0,0,.37,6.75,14.86,14.86,0,0,0,1.63,3.17A8,8,0,0,0,381.31,154.3Zm0,0a9.86,9.86,0,0,1-2.71-2.36,25.36,25.36,0,0,1-2.11-3,14.91,14.91,0,0,1-2.25-7.23,12.74,12.74,0,0,1,1.89-8,8.54,8.54,0,0,1,3.65-3.06l1.18-.4a5.65,5.65,0,0,1,1.42-.21,6.51,6.51,0,0,1,2.82.61,10,10,0,0,1,3.54,3,19.72,19.72,0,0,1,1.15,1.67,13.8,13.8,0,0,1,.95,1.88,12.73,12.73,0,0,1,.62,8.11,15.14,15.14,0,0,1-3.76,6.6,11.36,11.36,0,0,1-2.93,2.21,4.4,4.4,0,0,1-1.72.55A3.3,3.3,0,0,1,381.31,154.3Z"/><path d="M345.7,103.67a2.21,2.21,0,0,0,.14-1.32,3.14,3.14,0,0,0-.65-1.15,6.87,6.87,0,0,0-2-1.69,9.33,9.33,0,0,0-5-1.09,8.09,8.09,0,0,0-4.16,1.5,8.64,8.64,0,0,0-2.48,2.58l-.05.12s0,0,0,0,0,0,0,.11a3.37,3.37,0,0,1,.1.34,4.31,4.31,0,0,0,.91,1.36,9.45,9.45,0,0,0,3.92,2.23,8.12,8.12,0,0,0,5,.1,10.09,10.09,0,0,0,2.41-1.16A5.17,5.17,0,0,0,345.7,103.67Zm0,0a6.39,6.39,0,0,1-1.69,2.11,19,19,0,0,1-2.22,1.64,12.09,12.09,0,0,1-5.55,1.78A10.53,10.53,0,0,1,330,108a7.25,7.25,0,0,1-2.67-2.64c-.15-.29-.29-.6-.42-.91a2.39,2.39,0,0,1-.19-.54,3.1,3.1,0,0,1-.13-.62,5.13,5.13,0,0,1,.29-2.54,7.25,7.25,0,0,1,2.4-3,10.4,10.4,0,0,1,2.88-1.63,9.7,9.7,0,0,1,6.4-.09,13.89,13.89,0,0,1,5,3,10.89,10.89,0,0,1,1.78,2.13,4.22,4.22,0,0,1,.55,1.25A2.24,2.24,0,0,1,345.7,103.67Z"/><path d="M403.36,363a2.45,2.45,0,0,0-1.18.79,3.37,3.37,0,0,0-.51,1.32,7.23,7.23,0,0,0,0,2.82,9.73,9.73,0,0,0,2.56,4.77,8.7,8.7,0,0,0,4.18,2.3,9.65,9.65,0,0,0,4,.2c.26-.13.17,0,.57-.59a4.55,4.55,0,0,0,.46-1.71,9.82,9.82,0,0,0-1-4.72,8.71,8.71,0,0,0-3.57-4,10.93,10.93,0,0,0-2.65-1.08A5.62,5.62,0,0,0,403.36,363Zm0,0a7.21,7.21,0,0,1,2.89-.11,21.16,21.16,0,0,1,2.88.62,12.56,12.56,0,0,1,5.31,3.17,11,11,0,0,1,3.34,5.84,7.64,7.64,0,0,1-.32,4c-.14.32-.29.64-.45,1a2.94,2.94,0,0,1-.3.52,3.35,3.35,0,0,1-.42.51,5.4,5.4,0,0,1-2.18,1.44,7.93,7.93,0,0,1-4,.2A11.84,11.84,0,0,1,406.8,379a10.33,10.33,0,0,1-4.63-4.93A14.1,14.1,0,0,1,401,368a10.56,10.56,0,0,1,.48-2.92,3.78,3.78,0,0,1,.65-1.3A2.39,2.39,0,0,1,403.36,363Z"/><path d="M527.79,359.58a4.34,4.34,0,0,0-2.15,1.43,6.46,6.46,0,0,0-1,2.4,14.27,14.27,0,0,0-.15,5.17,19.78,19.78,0,0,0,4,9.21,16.54,16.54,0,0,0,7.73,5.33,20,20,0,0,0,4.57.92,9.33,9.33,0,0,0,4-.24c1-.36,1.44-.88,2.14-2.22a9.69,9.69,0,0,0,.77-4.05,19,19,0,0,0-2.78-9,17.35,17.35,0,0,0-7.13-7,21.29,21.29,0,0,0-4.89-1.81A10.56,10.56,0,0,0,527.79,359.58Zm0,0a12.09,12.09,0,0,1,5.22-.11,30.66,30.66,0,0,1,5.12,1.35c.83.32,1.67.63,2.49,1a18,18,0,0,1,2.32,1.45A25.81,25.81,0,0,1,547,367a20.11,20.11,0,0,1,5.06,10.17,12.54,12.54,0,0,1-.62,6.26c-.21.5-.46,1-.71,1.48a3.87,3.87,0,0,1-.45.76,4.81,4.81,0,0,1-.6.75,7.67,7.67,0,0,1-3.16,2.1,12.86,12.86,0,0,1-6.37.31,20.51,20.51,0,0,1-5.57-1.73,18.28,18.28,0,0,1-8.15-7.95,23.7,23.7,0,0,1-1.91-5.17,23.15,23.15,0,0,1-.7-5.34,17.54,17.54,0,0,1,.66-5.26,7.23,7.23,0,0,1,1.1-2.39A4.42,4.42,0,0,1,527.79,359.58Z"/><path d="M507.78,376.58a2.45,2.45,0,0,0-1.18.79,3.48,3.48,0,0,0-.51,1.33,7.23,7.23,0,0,0,0,2.82,9.77,9.77,0,0,0,2.56,4.77,8.82,8.82,0,0,0,4.18,2.3,9.62,9.62,0,0,0,4,.19c.26-.13.17,0,.56-.58a4.37,4.37,0,0,0,.47-1.72,10,10,0,0,0-1-4.72,8.81,8.81,0,0,0-3.57-4,10.93,10.93,0,0,0-2.65-1.08A5.73,5.73,0,0,0,507.78,376.58Zm0,0a7,7,0,0,1,2.89-.1,19.35,19.35,0,0,1,2.87.62,12.57,12.57,0,0,1,5.32,3.16,11,11,0,0,1,3.34,5.85,7.64,7.64,0,0,1-.32,4c-.14.32-.29.63-.45.95a2.58,2.58,0,0,1-.3.51,4,4,0,0,1-.42.52,5.4,5.4,0,0,1-2.18,1.44,7.8,7.8,0,0,1-4,.19,11.52,11.52,0,0,1-3.29-1.11,10.37,10.37,0,0,1-4.64-4.92,14.28,14.28,0,0,1-1.15-6.08,10.57,10.57,0,0,1,.49-2.92,3.83,3.83,0,0,1,.65-1.31A2.46,2.46,0,0,1,507.78,376.58Z"/><path d="M191.86,396.8a2.47,2.47,0,0,0-1.18.79,3.48,3.48,0,0,0-.51,1.33,7.23,7.23,0,0,0,0,2.82,9.84,9.84,0,0,0,2.55,4.77,8.73,8.73,0,0,0,4.19,2.3,9.45,9.45,0,0,0,4,.19c.26-.12.16,0,.56-.58a4.37,4.37,0,0,0,.47-1.72,10,10,0,0,0-1-4.72,8.76,8.76,0,0,0-3.58-4,10.36,10.36,0,0,0-2.64-1.09A5.73,5.73,0,0,0,191.86,396.8Zm0,0a7.34,7.34,0,0,1,2.88-.1,19.21,19.21,0,0,1,2.88.62,12.63,12.63,0,0,1,5.32,3.16,11,11,0,0,1,3.34,5.85,7.64,7.64,0,0,1-.32,4c-.14.32-.29.63-.45.95a5.18,5.18,0,0,1-.72,1,5.4,5.4,0,0,1-2.18,1.44,7.8,7.8,0,0,1-4,.19,11.52,11.52,0,0,1-3.29-1.11,10.37,10.37,0,0,1-4.64-4.92,14.28,14.28,0,0,1-1.15-6.08,10.57,10.57,0,0,1,.49-2.92,4,4,0,0,1,.64-1.31A2.61,2.61,0,0,1,191.86,396.8Z"/><path d="M175.43,395.91a2.42,2.42,0,0,0-.11-1.41,3.41,3.41,0,0,0-.9-1.1A7.07,7.07,0,0,0,172,392a9.69,9.69,0,0,0-5.41-.12,8.82,8.82,0,0,0-4.06,2.51,9.75,9.75,0,0,0-2.14,3.39c0,.3-.11.14.23.78a4.21,4.21,0,0,0,1.27,1.25,9.77,9.77,0,0,0,4.62,1.42,8.74,8.74,0,0,0,5.26-1.13,10.66,10.66,0,0,0,2.24-1.77A5.66,5.66,0,0,0,175.43,395.91Zm0,0a7.33,7.33,0,0,1-1.33,2.57,21.28,21.28,0,0,1-2,2.2,12.64,12.64,0,0,1-5.37,3.07,11,11,0,0,1-6.73,0,7.56,7.56,0,0,1-3.29-2.23c-.21-.27-.41-.56-.61-.85a4.63,4.63,0,0,1-.29-.52,4.23,4.23,0,0,1-.25-.62,5.4,5.4,0,0,1-.18-2.6,7.91,7.91,0,0,1,1.81-3.6,11.39,11.39,0,0,1,2.59-2.32,10.34,10.34,0,0,1,6.56-1.61,14,14,0,0,1,5.86,2,10.37,10.37,0,0,1,2.3,1.86,3.66,3.66,0,0,1,.82,1.2A2.41,2.41,0,0,1,175.43,395.91Z"/></svg>