<svg id="Layer_1" data-name="Layer 1" xmlns="http://www.w3.org/2000/svg" viewBox="0 0 600 600"><title>Singapore</title><path d="M62,290.21a52.28,52.28,0,0,1,1.55-6,26,26,0,0,1,1.21-2.89,19.53,19.53,0,0,1,1.71-2.67c2.57-3.39,6-5.9,8.85-8.81A31.92,31.92,0,0,0,82,259.9a37.9,37.9,0,0,0,1.93-5.64c.52-2.06,1.17-4.12,1.87-6.11,1.41-4,3.11-7.86,4.67-11.7.79-1.92,1.55-3.82,2.27-5.72s1.55-4,2.43-5.94a47.57,47.57,0,0,1,7-11.53,24.39,24.39,0,0,1,5.56-4.88,21.47,21.47,0,0,1,7.3-2.94h0l-3.89,3.61c.95-6.3,2-12.59,3-18.87l.76-4.72a24.39,24.39,0,0,1,.67-3,13,13,0,0,1,2-4,10.76,10.76,0,0,1,1.85-2,11.8,11.8,0,0,1,2.28-1.53,13.37,13.37,0,0,1,4.89-1.3,24.68,24.68,0,0,1,6.75.71,35.69,35.69,0,0,0,4.06.76,5.82,5.82,0,0,0,2.13-.24,11.07,11.07,0,0,0,4.28-3.09,37.49,37.49,0,0,0,2.53-2.93q1.31-1.63,2.68-3.5c1.84-2.47,3.78-5.19,6.16-8a40.81,40.81,0,0,1,9-8.15,29,29,0,0,1,6.52-3.06,25.5,25.5,0,0,1,7.62-1.15,27.11,27.11,0,0,1,7.43,1.05,32.77,32.77,0,0,1,6.5,2.7,36.06,36.06,0,0,1,5.54,3.74c.83.71,1.65,1.44,2.41,2.21l1,1.06.89.93c1.18,1.28,2.32,2.63,3.45,4,.56.7,1.09,1.42,1.62,2.13l1.4,2A11.36,11.36,0,0,0,212,168.3a2.73,2.73,0,0,0,1.26.33,7.37,7.37,0,0,0,.93,0q.56-.08,1.26-.21c1.93-.35,4.58-1.39,8.12-2.46l1.35-.4,1-.32c.66-.22,1.31-.44,1.94-.68,1.27-.5,2.49-1,3.67-1.6s2.3-1.16,3.37-1.79a34.69,34.69,0,0,0,3-2.09c4.55-3.22,9.21-7.35,15-11.47,1.43-1,3-2.06,4.56-3.09s3.31-2,5.11-2.88,3.76-1.85,5.66-2.64,3.86-1.43,5.79-2a94,94,0,0,1,22.19-3.71,62,62,0,0,1,10.07.38l2.57.34,2.6.44c1.74.35,3.48.72,5.24,1.13s3.51.86,5.28,1.36,3.54.93,5.31,1.46c3.55,1,7.13,2,10.77,3.09a102,102,0,0,1,11.06,3.87,65.26,65.26,0,0,1,11,5.94,48.6,48.6,0,0,1,9.9,8.89,44.64,44.64,0,0,1,7,11.36,48.78,48.78,0,0,1,2.08,6.06l.21.77.21.92c.12.6.29,1.26.37,1.82l.25,1.74.16,1.59c.18,2,.2,3.8.25,5.19s0,2.33.08,2.89,0,.67-.1.6-.25-.06-.17.19a10.85,10.85,0,0,0,4,2.77c1.07.48,2.28,1,3.64,1.52l2.2.82c1,.33,1.86.68,2.7,1,3.34,1.37,6.19,2.72,9,4s5.47,2.41,8,3.35a37,37,0,0,0,7.07,2,15.2,15.2,0,0,0,2.55.2,7.47,7.47,0,0,0,1.33-.12,10.52,10.52,0,0,0,2.51-2.15l1.08-1c.44-.39.8-.73,1.35-1.16a16.67,16.67,0,0,1,3.89-2.38,13.08,13.08,0,0,1,5.71-1c.48,0,.93.1,1.39.17a8.64,8.64,0,0,1,1.3.29,13.11,13.11,0,0,1,2.41.94c.41.21.83.44,1.23.68s.73.54,1.08.82a12.28,12.28,0,0,1,1.81,1.79,17.23,17.23,0,0,1,1.29,1.85,18.47,18.47,0,0,1,.9,1.77,24.9,24.9,0,0,1,1.7,6.21c.3,1.88.46,3.63.59,5.21l.09,1.12.11,1.12.28,2.46c.16,1.62.38,3.18.61,4.69a33.12,33.12,0,0,0,2.29,8.25,15.65,15.65,0,0,0,1.88,3l.57.65c.2.21.43.4.64.59a9.59,9.59,0,0,0,1.4,1,12,12,0,0,0,3.23,1.42,18.89,18.89,0,0,0,3.53.72c1.17.2,2.42.24,3.6.36.31,0,.58.05.91.09l1,.1c.65.09,1.31.17,1.94.3a18.49,18.49,0,0,1,1.85.45c.64.13,1.3.24,1.92.43,1.28.28,2.48.8,3.76,1.08a94.15,94.15,0,0,0,14.8,2.59,22.63,22.63,0,0,0,3,.06,25.47,25.47,0,0,0,3-.32,18.37,18.37,0,0,0,5-1.42,2.49,2.49,0,0,0,1.26-.63,7.88,7.88,0,0,0,.89-.87c.15-.18.32-.38.48-.59a5.49,5.49,0,0,0,.44-.57c.34-.48.79-1.26,1.39-2.23l.49-.77.58-.86a20.29,20.29,0,0,1,1.66-2.1l.51-.57c.22-.22.45-.44.69-.65a13.58,13.58,0,0,1,1.58-1.28,14.23,14.23,0,0,1,4.57-2.13,15,15,0,0,1,2.69-.42,17.65,17.65,0,0,1,2.52.11,14.91,14.91,0,0,1,3.75,1.07c.49.22,1,.47,1.44.7s.74.45,1.11.69a17.63,17.63,0,0,1,1.56,1.14c.83.65,1.55,1.28,2.13,1.79,1.18,1.06,1.74,1.57,2.15,1.9a2.62,2.62,0,0,0,.34.24,1.76,1.76,0,0,0,.2.13l.35.16a14.43,14.43,0,0,0,1.74.65c1.34.44,3,.91,5,1.63l1.53.58.79.34a4.31,4.31,0,0,1,.47.22l.56.27a17.27,17.27,0,0,1,4,2.83,20.4,20.4,0,0,1,4.73,7,30.56,30.56,0,0,1,1.8,6.56c.19,1,.31,2,.4,3.05l.11,1.47.06,1.33a158.94,158.94,0,0,1-.37,20.55c-.26,3.34-.63,6.62-1,9.86l-.34,2.44c-.12.85-.25,1.71-.4,2.56-.27,1.71-.62,3.41-1,5.12l-.69,2.54c-.07.21-.12.42-.21.63a5,5,0,0,1-.32.6,2.48,2.48,0,0,0-.29,1.29c-.17,1.8,0,3.76-.2,5.65a24.39,24.39,0,0,1-1.6,5.42c-.69,1.8-1.45,3.6-2.35,5.41a53,53,0,0,1-3.06,5.42c-.56.9-1.26,1.83-1.91,2.73s-1.36,1.75-2.08,2.54a63.86,63.86,0,0,1-8.92,8.41c-3,2.39-6,4.43-8.85,6.31l-8.12,5.34a158.69,158.69,0,0,1-18.17,10.59,89.58,89.58,0,0,1-10.86,4.29,91.55,91.55,0,0,1-11.11,2.83c-7.21,1.39-13.9,2.06-19.9,2.73-3,.32-5.79.71-8.66,1.08-1.43.2-2.86.38-4.27.63s-2.85.43-4.27.69c-2.87.36-5.58,1.39-8.65,1s-6.5-2-10-3.22a18.55,18.55,0,0,0-9.84-1.09c-1.53.22-3.05.5-4.57.82s-3,.72-4.46,1.18c-5.88,1.81-11.38,4.71-16.7,7.63a65.87,65.87,0,0,0-7.2,4.48,28.9,28.9,0,0,0-2.93,2.47,12.89,12.89,0,0,0-1.25,1.32l-.29.34-.22.29c-.14.2-.3.41-.46.66-.65.95-1.42,2.23-2.38,3.78a27.22,27.22,0,0,1-4,5.14l-.43.39-.49.42c-.32.26-.64.5-1,.74a21.25,21.25,0,0,1-1.82,1.11c-1.15.62-2.13,1-3,1.39s-1.46.63-1.91.86a4,4,0,0,0-.5.3.46.46,0,0,0-.12.09l-.37.25c-1.14.78-2.28,1.61-3.4,2.48l-1.68,1.32-1.8,1.46a25.45,25.45,0,0,1-3.05,2.08,17,17,0,0,1-4.51,1.76,15.43,15.43,0,0,1-5.63.24,16.92,16.92,0,0,1-4.81-1.45,18.81,18.81,0,0,1-3.45-2,31.87,31.87,0,0,1-2.53-2c-1.43-1.27-2.48-2.29-3.22-2.88-.35-.32-.65-.55-.83-.7a1.11,1.11,0,0,0-.33-.31,5.32,5.32,0,0,0-1.71-.76,6.75,6.75,0,0,0-1.22-.22,9.17,9.17,0,0,0-1.28-.08,24.77,24.77,0,0,0-4.56,1.11c-.55.14-1.16.29-1.8.41q-.48.09-1,.15c-.32.05-.83.09-1.23.11a11.2,11.2,0,0,1-5.13-1,12.94,12.94,0,0,1-3.53-2.46c-.44-.43-.83-.86-1.19-1.26l-.51-.61-.24-.3a3.56,3.56,0,0,0-1.71-1.25,2.19,2.19,0,0,0-1.4.05,4.73,4.73,0,0,0-1,.48,15.26,15.26,0,0,0-1.45,1,43.12,43.12,0,0,1-4.46,3.13,14.94,14.94,0,0,1-3.54,1.44,12.57,12.57,0,0,1-4.24.35c-.36,0-.68-.06-1.07-.13a11.43,11.43,0,0,1-1.19-.27,10.79,10.79,0,0,1-2.17-.86,15.07,15.07,0,0,1-3.14-2.19c-1.65-1.48-2.63-2.7-3.54-3.46a23.91,23.91,0,0,0-3.06-2.41,39.93,39.93,0,0,0-7.41-3.92c-2.69-1.14-5.58-2.16-8.56-3.22s-6.09-2.16-9.27-3.49a55.07,55.07,0,0,1-9.71-5.1,33.41,33.41,0,0,1-8.85-8.61,48.15,48.15,0,0,1-2.91-5.07c-.7-1.31-1.4-2.62-2.05-3.6a10.75,10.75,0,0,0-1.67-2.11,3.18,3.18,0,0,0-1.18-.67,14.28,14.28,0,0,0-2.39-.47c-.58,0-1-.12-1.8-.13l-2.16-.1c-2.8-.13-5.6-.11-8.69,0s-6.31.28-9.76.31c-1.73,0-3.5,0-5.32-.14-.91-.05-1.84-.14-2.76-.23l-2.28-.22a41.32,41.32,0,0,1-6-.89,24.49,24.49,0,0,1-3.72-1.2l-1-.44-1-.53a18.8,18.8,0,0,1-1.87-1.19,32,32,0,0,1-5-4.42c-1.27-1.39-2.22-2.53-2.9-3.21a7,7,0,0,0-1.16-1,2.46,2.46,0,0,0-1.09-.28c-1.42-.14-3.69.31-6.77,1.13-1.54.39-3.3.85-5.28,1.23-1.44.26-2.86.5-4.24.8a49.29,49.29,0,0,0-7.77,2.28l-.87.36-.68.3q-.72.36-1.59.87c-1.15.68-2.54,1.6-4.22,2.57a30.66,30.66,0,0,1-2.76,1.45l-.64.29-.56.25-1.11.47L115,370.55q-2.3.92-4.65,1.79c-1.58.58-3.11,1.13-4.85,1.68a38.14,38.14,0,0,1-5.75,1.4,21.7,21.7,0,0,1-6.92,0c-1.18-.23-2.23-.57-3.33-.89a29.87,29.87,0,0,1-3.16-1.42,21.14,21.14,0,0,1-5.26-4.21A32.71,32.71,0,0,1,75.19,359c-1.3-3.22-2.27-6.3-3.3-9.11A42,42,0,0,0,70.26,346a31.86,31.86,0,0,0-2.05-3.65,19.44,19.44,0,0,0-2.33-3,7.89,7.89,0,0,0-.85-.75c-.08-.07,0-.05.08-.07a1.38,1.38,0,0,0,.59-.15c.21-.12.31-.19.32-.26s-.06,0-.19.17l-.44.63c-.11.22-.25.44-.35.66a6.77,6.77,0,0,0-.56,3.1c.07,2.4,1.12,5.25,2.21,8.28l.41,1.16c.14.4.28.85.4,1.26.25.84.46,1.66.64,2.5a26,26,0,0,1,.68,5.27,9.72,9.72,0,0,1-.42,3.14,5.16,5.16,0,0,1-1.12,1.9A4.2,4.2,0,0,1,65,367.32a6.23,6.23,0,0,1-3.5-.66,15.28,15.28,0,0,1-2.36-1.39l.18.11c-.29-.19-.58-.39-.84-.59l-.56-.55c-.34-.36-.63-.71-.91-1.06-.54-.71-1-1.41-1.48-2.12-.92-1.41-1.76-2.84-2.55-4.29s-1.54-2.92-2.27-4.41c-.35-.76-.7-1.5-1-2.34a12.49,12.49,0,0,1-.66-2.61c-.42-3.57.5-6.89,1.44-10,.48-1.57,1-3.1,1.41-4.64l1.25-4.7c1.66-6.27,3.2-12.57,4.68-18.88.75-3.16,1.47-6.32,2.25-9.47s1.49-6.31,2-9.51Zm.09,0c-.38,3.23-.93,6.44-1.56,9.63s-1.15,6.38-1.72,9.58q-1.74,9.58-4,19.05l-1.1,4.75c-.4,1.62-.86,3.18-1.29,4.73-.84,3.07-1.54,6.17-1.1,9.06A10.51,10.51,0,0,0,52,349.1c.27.67.63,1.4,1,2.1.73,1.4,1.53,2.8,2.35,4.17s1.68,2.71,2.6,4q.68,1,1.41,1.86c.25.29.5.57.75.82l.36.34a2.28,2.28,0,0,1,.3.21l.11.06a12.36,12.36,0,0,0,1.91,1,3.62,3.62,0,0,0,1.69.36.8.8,0,0,0,.41-.21,1.84,1.84,0,0,0,.31-.6,6.25,6.25,0,0,0,.18-2,22.75,22.75,0,0,0-.76-4.46,30.91,30.91,0,0,0-1.5-4.37c-1.17-2.92-2.57-5.92-2.94-9.32a11.58,11.58,0,0,1,.57-5.11c.15-.4.34-.79.51-1.19s.43-.74.65-1.12A4.41,4.41,0,0,1,64,333.8,3.94,3.94,0,0,1,67,334a8.69,8.69,0,0,1,2.19,1.45,22.7,22.7,0,0,1,3.28,3.68,40.15,40.15,0,0,1,4.7,8.47c1.25,2.94,2.35,5.92,3.65,8.78a27.42,27.42,0,0,0,5,7.83A15,15,0,0,0,89.46,367c.69.32,1.41.61,2.13.88s1.49.4,2.25.53A19.21,19.21,0,0,0,103,367c3-1.07,5.9-2.31,8.8-3.59l4.33-2a38.1,38.1,0,0,0,4.22-2.17c2.68-1.66,5.22-3.67,8.19-4.89a56.65,56.65,0,0,1,9.05-3c1.54-.39,3.09-.73,4.65-1s3.09-.73,4.62-1.16a32.52,32.52,0,0,1,9.37-1.63,12.2,12.2,0,0,1,4.65,1,13.49,13.49,0,0,1,3.88,2.73c2.27,2.21,4.19,4.82,6.83,6.62a11.74,11.74,0,0,0,4.36,1.86,35.39,35.39,0,0,0,4.71.68,86.39,86.39,0,0,0,9.51.59c6.35.05,12.71-.46,19.06,0,1.58.15,3.17.23,4.74.49a19.23,19.23,0,0,1,4.57,1.3,12.1,12.1,0,0,1,3.85,2.76,20.29,20.29,0,0,1,2.74,3.88c.79,1.38,1.46,2.82,2.15,4.26a33.81,33.81,0,0,0,2.2,4.22,25.57,25.57,0,0,0,6.59,6.81c5.16,3.75,11.16,6.06,17,8.46s11.83,4.79,17,8.56a31.28,31.28,0,0,1,3.64,3.07c1.15,1.09,2.13,2.36,3.3,3.43a6.82,6.82,0,0,0,4.19,2.07,7.7,7.7,0,0,0,4.56-1.07c2.77-1.54,5-4,8.09-5a7.67,7.67,0,0,1,4.69.07,9.85,9.85,0,0,1,3.92,2.63,10.07,10.07,0,0,0,3.66,3,4.91,4.91,0,0,0,2.34.33,10.08,10.08,0,0,0,2.29-.62c1.48-.58,2.86-1.39,4.35-1.94a15.79,15.79,0,0,1,4.65-1,13.62,13.62,0,0,1,4.71.54,12.33,12.33,0,0,1,4.15,2.29c2.49,2,4.6,4.46,7.5,5.84a6.94,6.94,0,0,0,4.63.62,11.23,11.23,0,0,0,4.21-2.15,81,81,0,0,1,7.85-5.41c2.68-1.73,6.09-2,8.51-4.18s3.85-5.05,5.75-7.58a32.12,32.12,0,0,1,6.92-6.5,65,65,0,0,1,8.19-4.87,202,202,0,0,1,35.41-14,204.27,204.27,0,0,1,37.41-7.1c6.32-.62,12.67-1.08,18.95-2a78.85,78.85,0,0,0,18.37-4.95A165.17,165.17,0,0,0,509.43,349c5.54-3.09,11.25-5.94,16.5-9.54a47.31,47.31,0,0,0,7.33-6.06,36.19,36.19,0,0,0,5.63-7.66,71,71,0,0,0,6.68-17.79c.75-3.09,1.35-6.21,1.86-9.35s1-6.27,1.42-9.43a114,114,0,0,0,1.08-19,26,26,0,0,0-1.72-9.32,11.37,11.37,0,0,0-2.66-3.91,10.85,10.85,0,0,0-4.19-2.18c-3-1-6.22-1.4-9.11-2.76a23.73,23.73,0,0,1-4-2.61,20,20,0,0,0-4-2.6,3.44,3.44,0,0,0-2.32-.22,3.93,3.93,0,0,0-1.9,1.36,21.63,21.63,0,0,0-2.36,4.13,20.7,20.7,0,0,1-5.85,7.42,28,28,0,0,1-8.54,4.15,36.81,36.81,0,0,1-9.39,1.49,74.9,74.9,0,0,1-18.83-2.56c-1.55-.38-3-.94-4.56-1.4-.76-.24-1.52-.47-2.27-.73l-2.2-.91-2.2-.91c-.74-.3-1.47-.61-2.18-1a36.69,36.69,0,0,1-4.12-2.38,29.88,29.88,0,0,1-7-6.39,25.7,25.7,0,0,1-4.4-8.4,61.68,61.68,0,0,1-1.93-9.32l-1.35-9.44c-.43-3.14-.83-6.35-2.19-9.24a6.94,6.94,0,0,0-3.17-3.42,6.45,6.45,0,0,0-2.29-.58,5.57,5.57,0,0,0-2.31.49c-2.89,1.46-4.45,4.49-7,6.45s-5.87,2.54-9,2.5a41.64,41.64,0,0,1-9.41-1.4c-3.08-.77-6.11-1.76-9.11-2.78s-6-2.12-9-3.09-6.15-1.63-9.14-2.7a26.51,26.51,0,0,1-8.37-4.47,14.2,14.2,0,0,1-3.07-3.62,14.91,14.91,0,0,1-1.63-4.47c-.65-3.12-.62-6.32-.95-9.48a34.84,34.84,0,0,0-2.29-9.21,33,33,0,0,0-11.43-14.91,46.67,46.67,0,0,0-17.39-7.46c-12.46-2.77-25.31-2.33-38-1.81a103.46,103.46,0,0,0-18.88,2.41,60.12,60.12,0,0,0-9.06,2.91,89,89,0,0,0-8.57,4.15c-5.58,3-11,6.42-16.64,9.29a66.65,66.65,0,0,1-18.1,5.84c-3.1.67-6.17,1.56-9.34,1.92a16.05,16.05,0,0,1-9.31-1.41,21.35,21.35,0,0,1-7.06-6.31,94.53,94.53,0,0,0-6-7.39,29,29,0,0,0-7.18-6.17,18.71,18.71,0,0,0-9-2.76,15.26,15.26,0,0,0-4.7.57,19,19,0,0,0-4.34,1.89,32.9,32.9,0,0,0-7.24,6.13c-4.32,4.65-7.86,10-12.57,14.32a17.38,17.38,0,0,1-8.3,4.51,14.09,14.09,0,0,1-4.76,0c-1.57-.27-3.09-.74-4.63-1.14a16.55,16.55,0,0,0-4.67-.73,6.22,6.22,0,0,0-2.29.52,5.52,5.52,0,0,0-1.82,1.47,11.14,11.14,0,0,0-1.69,4.39L120,191.5l-4.2,18.59v0h0a18.6,18.6,0,0,0-10.64,5.91,44,44,0,0,0-7,10.26c-1.89,3.69-3.44,7.55-5.25,11.28s-3.58,7.49-5.13,11.34-2.44,7.94-4.33,11.66a33.4,33.4,0,0,1-7.32,10c-3,2.83-6.47,5.23-9.23,8.34a15.53,15.53,0,0,0-3.22,5.27,30.49,30.49,0,0,0-1.42,6Z"/><path d="M325.3,432.49a67.42,67.42,0,0,1-13.14-4.26c-1.06-.45-2.15-.82-3.24-1.35s-2.12-1.09-3.12-1.69a46.71,46.71,0,0,0-5.92-3.2,13.94,13.94,0,0,0-5.71-1.12c-.34,0-.51.18-.39.18a.37.37,0,0,0,.24-.11c.07,0,0,.12.1-.05a.29.29,0,0,0,0-.09.67.67,0,0,0,.05-.19,2,2,0,0,0,0-.42,2.56,2.56,0,0,0-.17-.46c0-.07.3.12.68.26s.88.33,1.45.54l.46.18.54.23.63.34.4.25c.54.33,1.08.65,1.59,1s1,.69,1.52,1.07a57.44,57.44,0,0,1,5.49,4.73c3.39,3.32,6.36,6.84,9.35,10.15,1.51,1.64,3,3.36,4.54,4.73a12,12,0,0,0,5,3,7.69,7.69,0,0,0,5.65-.92,7.29,7.29,0,0,0,3.31-5.13,4.92,4.92,0,0,0-.47-3.13,6.18,6.18,0,0,0-2.33-2.35A19.07,19.07,0,0,0,325.3,432.49Zm0,0a23,23,0,0,1,6.62,1.95,7.34,7.34,0,0,1,2.67,2.29,6,6,0,0,1,1,3.49,9.29,9.29,0,0,1-3,6.71,10.61,10.61,0,0,1-7.31,2.76,15.6,15.6,0,0,1-7.52-2.49,33.16,33.16,0,0,1-3.07-2.11c-1-.74-1.85-1.45-2.78-2.23-3.64-3.08-6.83-6.4-10-9.51-1.58-1.57-3.18-3.07-4.8-4.46-.81-.69-1.62-1.37-2.46-2l-.31-.23a.5.5,0,0,1-.12-.1l-.24-.14-.32-.18c-.48-.25-1.06-.53-1.69-.9a8.23,8.23,0,0,1-2.15-1.68,4.75,4.75,0,0,1-1-1.93,3.64,3.64,0,0,1-.13-1.26c0-.21,0-.42.07-.62a4.28,4.28,0,0,1,.15-.51,3.75,3.75,0,0,1,.39-.87,5.8,5.8,0,0,1,.47-.71,4.87,4.87,0,0,1,1.53-1.24,5.49,5.49,0,0,1,2.95-.54,12.44,12.44,0,0,1,4,1.13c.59.27,1.12.52,1.68.83a16.69,16.69,0,0,1,1.65,1A53.25,53.25,0,0,1,307,423.5a28.92,28.92,0,0,0,2.63,2.11c.91.62,1.92,1.2,2.92,1.76A40.57,40.57,0,0,0,325.3,432.49Z"/><path d="M485.93,206.68a88,88,0,0,1-10.66-5.17A29.59,29.59,0,0,0,470,199a9.27,9.27,0,0,0-5.6-.24,5.84,5.84,0,0,0-4,3.33,5.06,5.06,0,0,0,1.06,4.84,7.17,7.17,0,0,0,2,1.72c.82.51,1.66,1,2.51,1.4,1.72.85,3.52,1.57,5.35,2.27,3.65,1.41,7.56,2.84,11,5.41a24.34,24.34,0,0,1,2.44,2.1c.77.74,1.43,1.46,2.12,2.19,1.37,1.45,2.69,2.88,4.05,4.16a20.7,20.7,0,0,0,4.2,3.2,10.69,10.69,0,0,0,4.5,1.35,13.31,13.31,0,0,0,4.75-.59,29.46,29.46,0,0,0,4.89-2.08c1.7-.84,3.4-2,5.34-3a18.38,18.38,0,0,1,6.59-2.28,47.44,47.44,0,0,1,6.44-.16l2.84,0c.88,0,1.87,0,2.56-.06a7.89,7.89,0,0,0,3.58-1,2.14,2.14,0,0,0,1.14-1.91,4.82,4.82,0,0,0-1.6-3.17,10.52,10.52,0,0,0-4.08-2.34c-3.3-1.09-7.2-1.06-11.16-1a90.5,90.5,0,0,1-12-.63A91.57,91.57,0,0,1,485.93,206.68Zm0,0a63.55,63.55,0,0,0,34.72,3.62c3.88-.61,8-1.42,12.44-.79a15.41,15.41,0,0,1,6.62,2.51,11.09,11.09,0,0,1,4.63,6.6,9,9,0,0,1-.27,4.72,9.56,9.56,0,0,1-2.59,3.95,14.71,14.71,0,0,1-7.25,3.44c-1.26.24-2.25.34-3.34.46s-2.09.18-3.08.24c-2,.11-3.77.28-5.39.53s-3.07.35-4.83.74a32.68,32.68,0,0,0-5.5,1.74,35.79,35.79,0,0,1-6.23,1.95,19.54,19.54,0,0,1-7,.17,16.42,16.42,0,0,1-6.55-2.67,26,26,0,0,1-4.83-4.41c-1.37-1.57-2.59-3.17-3.8-4.72-.6-.76-1.21-1.56-1.8-2.24a19.24,19.24,0,0,0-1.88-2c-2.68-2.47-6.18-4.13-9.76-5.82-1.79-.86-3.61-1.75-5.35-2.79-.87-.54-1.72-1.09-2.55-1.7a8.83,8.83,0,0,1-2.28-2.32,7.66,7.66,0,0,1-1.28-3,5.7,5.7,0,0,1,.37-3.31,6,6,0,0,1,2.08-2.5,8.27,8.27,0,0,1,2.89-1.26,10,10,0,0,1,6,.61,33,33,0,0,1,5.24,2.84c1.68,1,3.38,2,5.14,2.94S484.1,205.94,485.93,206.68Z"/><path d="M147.88,371.51c-3.36.05-6.75-.41-10.08,0s-6.62,1.69-8.36,4.27a10.74,10.74,0,0,0-1.32,8.7,17.48,17.48,0,0,0,4.63,7.5A41.39,41.39,0,0,0,140,397.7a52.76,52.76,0,0,0,8.08,4.23,58.28,58.28,0,0,0,8.48,2.85,39.69,39.69,0,0,0,4.26.88c1.46.26,3,.46,4.58.63l2.42.31,1.25.15.88.09a8.94,8.94,0,0,0,2.73-.17,6.26,6.26,0,0,0,2.17-1,6.85,6.85,0,0,0,1.88-2.06,18.38,18.38,0,0,0,1.62-3.52c.44-1.35.91-2.93,1.25-4.37a19.39,19.39,0,0,0,.52-8.37,13.89,13.89,0,0,0-4.21-7.38,19.89,19.89,0,0,0-3.84-2.71,34.21,34.21,0,0,0-4.52-2A55.92,55.92,0,0,0,147.88,371.51Zm0,0a107.56,107.56,0,0,1,20.17,2.1c1.65.33,3.38.61,5.09,1.13a26.24,26.24,0,0,1,5,2.07,20.63,20.63,0,0,1,4.59,3.44,19.42,19.42,0,0,1,3.49,4.85,26.14,26.14,0,0,1,2.46,11.57,44.59,44.59,0,0,1-.3,5.62,24.82,24.82,0,0,1-1.46,6.08,17.35,17.35,0,0,1-3.9,6.14,16.94,16.94,0,0,1-6.48,4.1,19.7,19.7,0,0,1-7.24,1.1l-.89-.06-.76-.07-1.26-.12c-.85-.08-1.72-.16-2.59-.27-1.76-.24-3.56-.52-5.41-.89a43,43,0,0,1-5.54-1.56,47.53,47.53,0,0,1-18.72-12.1,46.17,46.17,0,0,1-3.57-4.23,41.41,41.41,0,0,1-3.07-4.64,22.76,22.76,0,0,1-3.25-10.86,14.48,14.48,0,0,1,3.81-10.29,11.64,11.64,0,0,1,4.58-2.77,18.64,18.64,0,0,1,5.09-.81,47.43,47.43,0,0,1,5.07.2C144.52,371.35,146.19,371.49,147.88,371.51Z"/></svg>