<svg id="Layer_1" data-name="Layer 1" xmlns="http://www.w3.org/2000/svg" viewBox="0 0 600 600"><title>Syria</title><path d="M143.66,524.65A30.21,30.21,0,0,0,155.44,519a95.28,95.28,0,0,0,9.39-9.25,80.44,80.44,0,0,1,9.9-9.22c3.57-2.8,7.28-5.43,11-7.89s7.47-4.84,11-7.31c1.77-1.23,3.53-2.46,5.18-3.73l5.25-4c7-5.35,14.05-10.76,21.14-16,14.13-10.64,28.41-21,43-30.93l5.46-3.72,5.5-3.67c3.66-2.44,7.32-4.88,11.07-7.18a254.33,254.33,0,0,1,23.15-12.71c7.92-3.9,16-7.54,23.91-11.44,4-1.89,7.88-3.95,11.82-5.94.48-.25,1-.49,1.46-.76l1.4-.87,2.81-1.74,5.61-3.47,44.86-27.77,22.44-13.89,5.56-3.45a40.16,40.16,0,0,0,4.22-2.93,13.75,13.75,0,0,0,2.58-2.74,38.34,38.34,0,0,0,2.61-4.17c2.34-4.16,4.66-7.91,6.68-11.48a69.2,69.2,0,0,0,4.86-10.06,23.33,23.33,0,0,0,1.64-8.55,13.28,13.28,0,0,0-.12-1.9,14.56,14.56,0,0,0-.34-2c-.31-1.41-.83-3.06-1.5-5.08s-1.48-4.38-2.18-7.18a43.42,43.42,0,0,1-1.31-9.24c0-.87,0-1.51,0-2.18s0-1.35.06-2c0-1.34.14-2.69.27-4a70.66,70.66,0,0,1,1.24-8,74.48,74.48,0,0,1,5-15.17c.52-1.17,1.2-2.52,1.84-3.74l1-1.75.94-1.62,3.44-5.7a51.43,51.43,0,0,0,2.52-4.7c.14-.33.33-.7.44-1l.37-.93c.08-.28.16-.56.25-.83s.1-.49.17-.73a5.48,5.48,0,0,0,0-2c-.14-.74-.27-1.48-.39-2.21s-.4-1.5-.57-2.25a59.93,59.93,0,0,0-4.09-9.91c-1.79-3.68-4-7.82-6.08-12.84a54.67,54.67,0,0,1-4.17-17.58c0-1.61-.12-3.25,0-4.85s.26-3.2.43-4.8.57-3.07.88-4.61a40.72,40.72,0,0,1,1.19-4.46,42.67,42.67,0,0,1,4.29-9.5,35.92,35.92,0,0,1,3.54-4.84c.68-.74,1.38-1.46,2.09-2.17l1.08-1.05c.38-.35.81-.68,1.22-1,.83-.66,1.67-1.32,2.55-1.94s1.86-1.14,2.81-1.68a26.09,26.09,0,0,1,2.92-1.41l1.5-.62c.5-.2,1-.33,1.46-.5,1-.29,2-.63,2.92-.84s1.85-.39,2.78-.57c1.71-.27,3.49-.51,4.94-.6,3-.25,5.56-.27,7.45-.37l.73,0,.61,0c.39,0,.89,0,1.16-.11s.64-.08,1-.11.45-.11.68-.15a1.42,1.42,0,0,0,.5-.15c.15,0,.3-.07.33-.13a.9.9,0,0,1,.22-.11,2.91,2.91,0,0,1,.42-.23,15.56,15.56,0,0,0,2.07-1.53c1.58-1.38,3.5-3.41,5.79-5.77a46,46,0,0,1,3.77-3.73c.17-.16.37-.31.55-.47l.29-.23.35-.33c.46-.44,1-.86,1.43-1.28l2.73-2.28a31.76,31.76,0,0,0,4.57-4.56l1.87-2.33c.57-.77,1.17-1.56,1.69-2.31a32,32,0,0,0,4.4-8.53,12.36,12.36,0,0,0,.59-2.68,1.3,1.3,0,0,1,0-.34,4,4,0,0,0,0-.48c0-.24-.05-.16.14.3A7,7,0,0,0,537,88.11a5.65,5.65,0,0,0,1.48,1.13c.15.08,0,0-.53-.15-.19-.06-.58-.14-.82-.19a3.35,3.35,0,0,1-.54-.08c-.64-.12-.73-.12-.73-.22s0,0-.07-.06a.35.35,0,0,1-.21,0,2,2,0,0,1-.39.16c-.17.1-.38.24-.58.35a41.59,41.59,0,0,0-3.92,3.2c-1.67,1.47-3.65,3.25-6,5l-1.88,1.33-.49.34-.59.36-1.19.72a31.86,31.86,0,0,1-4.78,2.27,41.37,41.37,0,0,1-9.13,2.29,71.46,71.46,0,0,1-15.77.14l-3.5-.34c-1.21-.15-2.45-.27-3.63-.44-2.39-.32-4.69-.71-7-1.13-4.51-.83-8.8-1.76-12.91-2.49a102.62,102.62,0,0,0-11.93-1.47c-1.9-.09-3.8,0-5.71.11a23.42,23.42,0,0,0-2.87.28c-1,.14-1.92.21-2.89.39a87.74,87.74,0,0,0-23.12,7.83c-1.93.9-3.83,1.85-5.76,2.84l-5.82,3c-3.92,2-7.9,4-12,6l-3.1,1.47-3.18,1.4c-2.09,1-4.33,1.79-6.52,2.63-1.11.4-2.28.73-3.41,1.1a17.26,17.26,0,0,0-1.77.33c-.55.27-1.08.56-1.63.84-2.15,1.2-4.24,2.71-6.51,3.46-4.55,1.37-9.06,2.41-13.42,3.44l-3.25.76-3,.74c-1,.23-2,.51-3,.79l-3,.84c-4.1,1.16-8.39,2.43-12.87,3.62-2.21.61-4.56,1.13-6.88,1.68s-4.77,1-7.29,1.39a80.17,80.17,0,0,1-16,1.13,59.41,59.41,0,0,1-17.62-3.24c-1.46-.6-2.92-1.21-4.37-1.85l-1.06-.48-.85-.42-1.68-.85c-2.2-1.12-4.23-2.23-6.12-3.23a68.61,68.61,0,0,0-9.81-4.56,20.41,20.41,0,0,0-3.64-.9q-.39,0-.78-.09c-.2,0-.3,0-.45,0a8.61,8.61,0,0,0-.92.09,26.83,26.83,0,0,0-6.51,2.32c-2.88,1.38-6.22,3.34-10,5.57l-3,1.72-1.61.9-1.64,1a9.13,9.13,0,0,1-1.77.88,12.07,12.07,0,0,1-2.12.44,32.83,32.83,0,0,1-4.27.37c-5.7.22-11.5-1.06-16.77-1.88a65.53,65.53,0,0,0-7.67-.77c-1.25,0-2.49-.06-3.72,0s-2.46,0-3.69.09c-4.93.11-9.9.35-15.08.4h-3.92l-4-.17-4-.36c-1.33-.15-2.6-.35-3.85-.55-4.95-.83-9.09-2-12.37-2.84l-1.18-.33-.57-.16-.39-.08c-.53-.15-1-.18-1.48-.27a13.2,13.2,0,0,0-2.14-.09l-1.05.07a1.42,1.42,0,0,0-.87.22,5.71,5.71,0,0,0-1.44,1.43,5.16,5.16,0,0,0-1,1.92,13.76,13.76,0,0,0-.38,3.84c.06,1.62.26,3.52.54,5.68s.69,4.55,1,7.28a47.7,47.7,0,0,1,.25,9.18,31.2,31.2,0,0,1-2.7,10.54c-.38.86-.84,1.67-1.26,2.49l-1.32,2.12c-.45.72-.87,1.27-1.31,1.92l-.67.93-.66.85c-1.75,2.35-3.52,4.32-5.26,6.4s-3.57,3.91-5.47,5.72a66.25,66.25,0,0,1-6,5.22,46.6,46.6,0,0,1-6.93,4.49,44.42,44.42,0,0,1-4,1.89c-.71.28-1.52.55-2.28.81l-1.18.39-1.32.34c-2.13.53-2.61.58-3.68.81s-1.83.41-2.75.62a38,38,0,0,0-8.31,2.86,13.28,13.28,0,0,0-1.16.73,5.55,5.55,0,0,0-.48.34,2.18,2.18,0,0,1-.4.34,5.81,5.81,0,0,0-1.3,1.56,10.45,10.45,0,0,0-1.08,2.69c-.15.56-.22,1.26-.37,1.89-.08.32-.08.68-.13,1a8.91,8.91,0,0,0-.09,1.05,35,35,0,0,0,.8,9.37,76.32,76.32,0,0,0,3.25,10.83c.34.94.71,1.91,1.08,2.87l1.18,3A71.65,71.65,0,0,1,85.84,257a37.81,37.81,0,0,1,1.39,9.5,61.71,61.71,0,0,1-.44,8.07l-.45,3.64c-.19,1.39-.43,2.67-.67,3.9-.5,2.45-1,4.69-1.58,6.83a99.81,99.81,0,0,0-2.32,11.61,26.42,26.42,0,0,0-.18,4.58,9.41,9.41,0,0,0,.63,3A5.06,5.06,0,0,0,83.57,310a7.52,7.52,0,0,0,1.28.9,6.55,6.55,0,0,0,.83.45,7.92,7.92,0,0,0,.92.41,27.84,27.84,0,0,0,4.74,1.35c1.89.4,4.08.7,6.53,1.18a43.87,43.87,0,0,1,8,2.26,30.38,30.38,0,0,1,4.24,2c.74.39,1.31.78,1.92,1.17s1.19.8,1.75,1.23a42.55,42.55,0,0,1,6.29,5.69,57.71,57.71,0,0,0,6.09,6.29c.59.52,1.17,1.06,1.78,1.61s1.24,1.11,1.83,1.72,1.22,1.22,1.79,1.9a18.8,18.8,0,0,1,1.66,2.09,19.11,19.11,0,0,1,3.62,10.39c0,1.72,0,3.35-.18,5a17.42,17.42,0,0,1-.38,2.59l-.57,2.61a19.53,19.53,0,0,1-.86,2.62c-.32.88-.68,1.73-1,2.58a19.13,19.13,0,0,1-1.33,2.48c-.49.8-1,1.61-1.49,2.37a49.85,49.85,0,0,1-3.53,4.16l-1.91,1.76-1,.85-1,.72-1.93,1.43c-.65.49-1.27.81-1.91,1.22l-1.87,1.16c-.61.33-1.21.65-1.8,1l-6.57,3.62-5.64,3.2c-.84.5-1.69,1-2.49,1.5s-1.52,1-2.2,1.53l-1,.77c-.33.25-.69.52-.9.71A11.47,11.47,0,0,0,96,395.89a14.06,14.06,0,0,0-2,2.94,8.45,8.45,0,0,0-.74,2.6,6.05,6.05,0,0,0,0,1v.11a.51.51,0,0,0,0,.19l.08.5c.08.39.14.73.24,1.19.18.85.46,1.91.72,3.21.13.62.27,1.4.39,2.16L95,411c0,.42.08.94.12,1.41a23.13,23.13,0,0,1-.51,6.66,21.34,21.34,0,0,1-2.79,6.46,23.53,23.53,0,0,1-2,2.59c-.38.42-.76.88-1.15,1.25l-1.18,1.08c-.41.37-.8.66-1.19.95l-1.18.86c-.75.46-1.55,1-2.27,1.35a45,45,0,0,1-7.68,3.09c-2.15.69-4,1.22-5.2,1.65-.32.11-.53.21-.78.28s-.33.06-.61.26-.52.3-.8.44-.51.35-.77.52a13.81,13.81,0,0,0-3,2.89,33.86,33.86,0,0,0-5.13,9.49,95,95,0,0,0-3.54,12.16c-.24,1-.47,2.08-.68,3.12s-.36,2.08-.5,3.11a42,42,0,0,0-.5,6.19,23.27,23.27,0,0,0,2.54,11.54,15.62,15.62,0,0,0,3.73,4.45,4.9,4.9,0,0,0,2.18.93,10.56,10.56,0,0,0,2.86,0c2-.29,4.16-.9,6.43-1.29a16.39,16.39,0,0,1,3.54-.28l.93.08c.31.05.63.13.94.2a15.06,15.06,0,0,1,1.71.63,8.34,8.34,0,0,1,4.61,5.47c.69,2.23.9,4.41,1.6,6.38a12,12,0,0,0,.58,1.44c.25.47.48.95.76,1.4a15.07,15.07,0,0,0,1.86,2.54,11.7,11.7,0,0,0,5.27,3.29,26.41,26.41,0,0,0,6.37,1c1.09.07,2.18.08,3.3.19.55.06,1.11.06,1.66.17l1.64.29a32.58,32.58,0,0,1,6.31,2.06c2,.85,4,1.83,6,2.83a52.46,52.46,0,0,0,12.19,4.9A29.81,29.81,0,0,0,143.66,524.65Zm0,0a30.36,30.36,0,0,1-13.18,1,52.18,52.18,0,0,1-12.56-4.47c-2-.92-4-1.8-6-2.56a31.08,31.08,0,0,0-6.09-1.77l-1.55-.23c-.52-.08-1-.06-1.56-.11-1-.09-2.15-.07-3.28-.13a27.63,27.63,0,0,1-6.83-1,13.61,13.61,0,0,1-6.15-3.7,15.44,15.44,0,0,1-2.16-2.84c-.31-.5-.56-1-.85-1.53s-.51-1.11-.69-1.67c-.8-2.25-1-4.5-1.65-6.42a6.21,6.21,0,0,0-3.51-4.16,10.72,10.72,0,0,0-1.37-.49l-.67-.14-.72-.05a13.36,13.36,0,0,0-3,.3c-2.07.41-4.19,1.1-6.45,1.49a14.28,14.28,0,0,1-3.54.2,7.81,7.81,0,0,1-3.51-1.27,19.55,19.55,0,0,1-4.74-5,23.4,23.4,0,0,1-2.77-6.22,34,34,0,0,1-1.27-6.6A73,73,0,0,1,49.6,464a130,130,0,0,1,1.66-13.16,43.7,43.7,0,0,1,4.26-12.66,23.05,23.05,0,0,1,9.37-9.55c4-2.05,8.35-3.08,12.1-5.18a12.5,12.5,0,0,0,4.65-4.18,10.29,10.29,0,0,0,1.23-2.85,11.29,11.29,0,0,0,.23-3.13c-.32-4.23-2.22-8.53-1.64-13.1a22.49,22.49,0,0,1,5.63-12,29.07,29.07,0,0,1,2.35-2.36c.83-.75,1.72-1.4,2.58-2.1s1.79-1.3,2.68-1.94L97.47,380c3.72-2.35,7.55-4.52,11.1-7.1a30.46,30.46,0,0,0,9-9.43,25.79,25.79,0,0,0-.57-25.15c-4.36-7.58-12-13.54-20.83-14.69-4.32-.79-8.74-1.21-12.89-2.73a21.25,21.25,0,0,1-5.78-3.11,15,15,0,0,1-4.18-5,19.45,19.45,0,0,1-1.87-6.29,34.45,34.45,0,0,1-.14-6.58,106.3,106.3,0,0,1,2-13,87,87,0,0,0,1.88-13c.31-4.37.34-8.87-1.06-13.07a52,52,0,0,0-2.47-6.11c-.92-2-1.83-4-2.69-6a92.63,92.63,0,0,1-4.45-12.41,50.63,50.63,0,0,1-1.36-6.45,40.1,40.1,0,0,1-.47-6.57,30.33,30.33,0,0,1,2.62-12.82,20.93,20.93,0,0,1,3.66-5.45l1.17-1.16a16.2,16.2,0,0,1,1.27-1.06A24.06,24.06,0,0,1,74,200.77,47.63,47.63,0,0,1,86.28,196c1.07-.25,2.13-.54,3.21-.77s2.15-.46,3.21-.75a34.64,34.64,0,0,0,6.16-2.32,66.3,66.3,0,0,0,11.24-6.87,58.48,58.48,0,0,0,9.69-8.91,24.6,24.6,0,0,0,3.63-5.48,17.82,17.82,0,0,0,1.54-6.38c.27-4.41-.75-8.76-1.66-13s-1.83-8.65-1.57-13.06a21,21,0,0,1,1.41-6.41,22.1,22.1,0,0,1,3.34-5.66,17.38,17.38,0,0,1,11.31-6.16,23.71,23.71,0,0,1,6.57.07,37.1,37.1,0,0,1,6.37,1.67c4.16,1.44,8.16,3.27,12.26,4.88a66.46,66.46,0,0,0,25.76,4.83,74,74,0,0,0,25.76-5c8.24-3.14,15.61-8.12,23.75-11.47A37.8,37.8,0,0,1,251,112a21.25,21.25,0,0,1,3.29.12c.55.06,1.09.1,1.64.19l1.61.32a40.66,40.66,0,0,1,6.28,2,92.57,92.57,0,0,1,11.68,6.1A99,99,0,0,0,287.13,127,44.84,44.84,0,0,0,300,129.73a67.33,67.33,0,0,0,13.16-.47c4.37-.5,8.69-1.33,13-2.25s8.58-2,12.87-2.92,8.6-1.82,12.94-2.56,8.65-1.6,12.93-2.61a136.29,136.29,0,0,0,24.89-8.63c8.06-3.53,15.93-7.47,24-11a123.61,123.61,0,0,1,25-8.36c1.08-.23,2.17-.36,3.25-.54a32.91,32.91,0,0,1,3.27-.44c2.19-.19,4.38-.41,6.58-.42a107.13,107.13,0,0,1,13.16.81c8.73,1,17.43,2.51,26.24,2.69a62.79,62.79,0,0,0,13.14-.72,30,30,0,0,0,6.32-1.84A22.19,22.19,0,0,0,516.27,87c3.42-2.78,6.26-6.19,9.69-9a17.21,17.21,0,0,1,5.76-3.14,16.36,16.36,0,0,1,6.53-.49l1.63.24c.54.11,1.08.21,1.61.35a17.15,17.15,0,0,1,3.12,1.07A9,9,0,0,1,547.32,78a7.89,7.89,0,0,1,1.76,2.76,16.66,16.66,0,0,1,.89,6.5,25.33,25.33,0,0,1-1.26,6.45,54.45,54.45,0,0,1-5.79,11.82c-2.31,3.74-4.89,7.31-7.45,10.88s-5,7.28-7.75,10.68a49.34,49.34,0,0,1-9.43,9.17,30.87,30.87,0,0,1-5.72,3.27,24.12,24.12,0,0,1-6.36,1.7c-4.37.57-8.79.12-13.18.32s-8.86,1.18-12.32,4-5.87,6.62-7.33,10.73a51.49,51.49,0,0,0-1.69,6.37l-.41,3.27c-.1,1.09,0,2.2-.08,3.29A39.92,39.92,0,0,0,473.85,182c1.5,4.14,3.43,8.1,5.21,12.12a76.07,76.07,0,0,1,4.48,12.39c.22,1.08.52,2.14.69,3.23l.45,3.27a20.28,20.28,0,0,1-.54,6.54,29.39,29.39,0,0,1-2.31,6.17c-1,2-2.07,3.89-3.22,5.76a110.76,110.76,0,0,0-6.6,11.41,61.66,61.66,0,0,0-4.24,12.46,57.59,57.59,0,0,0-1.4,13.08,30.54,30.54,0,0,0,.88,6.52c.51,2.14,1.19,4.23,1.85,6.33a60.4,60.4,0,0,1,1.75,6.36,25.64,25.64,0,0,1,.49,3.26,26,26,0,0,1,.15,3.3A36,36,0,0,1,468.86,307c-3.18,8.24-8.28,15.51-12.66,23.11A33.34,33.34,0,0,1,448,340.35a52.78,52.78,0,0,1-5.46,3.69l-5.65,3.41-22.61,13.6-90.44,54.42-90.46,54.38-22.62,13.59c-3.76,2.26-7.52,4.56-11.42,6.61s-7.81,4-11.71,6.08-7.74,4.17-11.43,6.55a79.79,79.79,0,0,0-10.42,8.06,120.22,120.22,0,0,1-10.16,8.41A36,36,0,0,1,143.67,524.68Z"/></svg>