<svg id="Layer_1" data-name="Layer 1" xmlns="http://www.w3.org/2000/svg" viewBox="0 0 600 600"><title>Tanzania</title><path d="M115.69,150.47a10.32,10.32,0,0,0,1.4-2.4,4.65,4.65,0,0,0-1-5.17,5.86,5.86,0,0,0-2.22-1.59,12.16,12.16,0,0,0-5.38-.77c-1.82.06-3.67.34-5.6.31a11.7,11.7,0,0,1-5.75-1.33,11.27,11.27,0,0,1-4.26-4.27,11,11,0,0,1-1.47-5.95,9.85,9.85,0,0,1,2.22-5.89,14.77,14.77,0,0,1,4.88-3.7c1.73-.91,3.47-1.63,5.06-2.44a18.58,18.58,0,0,0,4.23-2.85,23,23,0,0,0,3.45-3.8,24.4,24.4,0,0,0,4.11-9.27,22.38,22.38,0,0,0,.46-5,25.34,25.34,0,0,0-.53-5A27.67,27.67,0,0,0,104.84,75a27.18,27.18,0,0,0-4.13-2.55,24.12,24.12,0,0,1-5.57-3.83,13.78,13.78,0,0,1-4.21-6.94,11.1,11.1,0,0,1,0-4.8,12,12,0,0,1,1.93-4.32,14.82,14.82,0,0,1,6.68-5.11c.31-.11.7-.26.94-.33l.8-.24c.53-.16,1.06-.34,1.59-.45l1.58-.37,1.56-.3a78.77,78.77,0,0,1,12-1l11.18-.1c.89,0,1.77-.05,2.62-.09l1.27-.08,1.12-.11c1.59-.18,3.37-.46,5.22-.73s3.78-.54,5.78-.76a53.65,53.65,0,0,1,6.42-.37,24.54,24.54,0,0,1,7.93,1.24,15.91,15.91,0,0,1,8.36,6.69,18.8,18.8,0,0,1,2,4.71,23.79,23.79,0,0,1,.72,4.34,33.84,33.84,0,0,1-.35,7.46,63.18,63.18,0,0,1-3.38,12.52c-.37,1-.73,1.91-1.17,2.93s-.91,2-1.35,3c-.89,1.83-1.72,3.44-2.33,4.82a15.23,15.23,0,0,0-1.13,3.38,7.17,7.17,0,0,0,0,2.4,13.18,13.18,0,0,0,.83,2.79,22.44,22.44,0,0,0,1.79,3.28,33.64,33.64,0,0,0,5.58,6.43,39.91,39.91,0,0,0,3.44,2.79c.29.22.6.42.9.63s.58.45.88.65A19,19,0,0,1,176,114c.54.52,1,1.11,1.55,1.69s1,1.2,1.57,1.77a10.63,10.63,0,0,0,3.62,2.69,8.94,8.94,0,0,0,4,.5,10.68,10.68,0,0,0,3.33-.69,9.62,9.62,0,0,0,2.64-1.66,9.44,9.44,0,0,0,1.93-2.42,9.22,9.22,0,0,0,.6-1.33,12.84,12.84,0,0,0,.35-1.36,28.29,28.29,0,0,0,.36-4c.09-1.66.15-3.68.44-6a26.8,26.8,0,0,1,.7-3.71l.45-1.87.25-.94.35-1a29.79,29.79,0,0,1,3.86-7.6c.44-.61.89-1.21,1.34-1.81s1-1.1,1.51-1.65,1-1.11,1.58-1.58L208,81.63l.85-.69.85-.59,1.72-1.15c1.13-.71,2.25-1.32,3.37-1.93s2.2-1.1,3.2-1.55,2.08-.92,3-1.28c3.85-1.58,7.06-2.88,9.5-4.18L231,70l.4-.24.81-.48.2-.12.1-.06,0,0,.13-.15c.08-.11.2-.17.25-.28a8.51,8.51,0,0,0,.65-1.22c.26-.45.69-1.3,1.25-2.45l1-2,1.26-2.6a50.3,50.3,0,0,1,3.71-6.44c.37-.57.84-1.18,1.28-1.77s.88-1.18,1.41-1.77L245,48.62c.72-.7,1.46-1.39,2.22-2.06a29.93,29.93,0,0,1,11.5-6.06,32.84,32.84,0,0,1,12-.8A42,42,0,0,1,280,41.83a68.37,68.37,0,0,1,7.29,3.08c1.07.54,2.14,1.09,3.12,1.63L293,47.9l4.75,2.57,9.58,5.12c12.79,6.85,25.79,13.76,38.77,21.14,6.46,3.74,12.79,7.84,19,12.15l1.18.81,1.51,1c.64.41,1.23.84,1.79,1.27s1.13.86,1.63,1.29a60.09,60.09,0,0,1,5.23,4.91c2.89,3,4.82,5.28,6.33,6.55a9.69,9.69,0,0,0,1.11.9,10.6,10.6,0,0,0,1.29.84,17.47,17.47,0,0,0,3.18,1.36,33.19,33.19,0,0,0,4.19,1c1.57.31,3.3.61,5.23.89s4,.64,6.17,1c1.08.2,2.24.46,3.37.72l1.74.44,1.52.4c3.44,1,7.39,1.82,11.6,3.21A51.12,51.12,0,0,1,436,122.14a31.63,31.63,0,0,1,7.24,7,28.63,28.63,0,0,1,4.83,10.18c1.89,7.25.39,14.24-.32,17.91-.39,2-.68,3.54-.77,4.6a5.57,5.57,0,0,0,0,1.24,3.63,3.63,0,0,0,.16.65,11.53,11.53,0,0,0,1.83,3.19,20.29,20.29,0,0,0,4.19,3.95,50.93,50.93,0,0,0,6.83,4.05c1.37.69,2.85,1.41,4.42,2.15l5,2.43,2.7,1.35c.42.21,1,.52,1.5.8l1.57.86c1.05.59,2.06,1.23,3.08,1.86s2,1.33,3,2a79.55,79.55,0,0,1,11,9.27A78.55,78.55,0,0,1,508,218.71l-1.87-3a60.42,60.42,0,0,1,3.66,5.73,32.06,32.06,0,0,1,3.58,10.06,30.83,30.83,0,0,1,0,10.4,47.14,47.14,0,0,1-1.54,6.3c-1.89,6.3-4.26,12-6.39,17.36s-4.17,10.4-5.72,15.23c-.82,2.44-1.43,4.78-2,7.12a60.92,60.92,0,0,0-1.18,6.82c-.15,1.06-.22,2.42-.28,3.46s-.07,1.95-.08,2.53a2.72,2.72,0,0,1-.06,1,.67.67,0,0,0,0,.62,7.86,7.86,0,0,0,1.2,1.52,28.15,28.15,0,0,0,2.47,2.13l3.6,2.73c1.35,1,2.81,2.19,4.36,3.63a34.56,34.56,0,0,1,4.62,5.18,26,26,0,0,1,3.57,7.06,24.31,24.31,0,0,1,.94,4,14.25,14.25,0,0,1,.2,2c0,.65,0,1.3,0,1.95,0,1.26-.17,2.42-.3,3.61s-.42,2.17-.67,3.19a51.6,51.6,0,0,1-4,10.09c-1.45,2.88-2.91,5.44-4.16,7.81a39.13,39.13,0,0,0-2.78,6.18,36.05,36.05,0,0,0-1.4,7.78,113.18,113.18,0,0,0,.29,16.23c.46,5.48,1.29,11,2.25,16.61s2.12,11.07,3.45,16.53l2,8.19.49,2.05c.24.66.06,1.44.31,2.1a26.63,26.63,0,0,0,2.11,3.78,28.6,28.6,0,0,1,2.1,3.76c.51,1.3,1,2.62,1.48,3.92q1.5,3.92,3.11,7.77l1.64,3.81c.54,1.21,1.06,2.28,1.56,3.19a14.59,14.59,0,0,0,1.44,2.24,7.51,7.51,0,0,0,1.28,1.26,32.77,32.77,0,0,0,4.5,2.8c2.1,1.14,4.79,2.46,7.92,4.31.77.46,1.59,1,2.41,1.52s1.57,1.05,2.38,1.65a41.69,41.69,0,0,1,5.06,4.34,28.46,28.46,0,0,1,2.77,3.22,24.67,24.67,0,0,1,2.81,4.86,21.51,21.51,0,0,1,1.75,7.53,21.17,21.17,0,0,1-1.5,8.74,22.59,22.59,0,0,1-3.74,6.18,27.55,27.55,0,0,1-3.74,3.71c-.61.52-1.13.89-1.71,1.33s-1.09.78-1.59,1.1c-1,.68-2,1.26-3,1.79s-1.85,1-2.73,1.43l-.3.16-.18.09-.34.2-.69.39c-.46.25-.92.56-1.37.84s-.92.57-1.38.89A115.25,115.25,0,0,0,523,528.94a177.12,177.12,0,0,1-14.89,11.8,77.34,77.34,0,0,1-9.73,5.68,88.18,88.18,0,0,1-10.06,4.23,85.45,85.45,0,0,1-21.7,4.67c-1,.06-2,.13-2.89.16l-2.62.06c-1.7,0-3.41,0-5-.06s-3.14-.1-4.65-.16c-.72,0-1.45-.05-2.18-.11a17.56,17.56,0,0,1-2.06-.25,22.83,22.83,0,0,1-7.47-2.77l-1.77-1-1.76-1c-.61-.33-1.18-.6-1.79-.88a14.1,14.1,0,0,0-1.81-.71,12.23,12.23,0,0,0-7.2-.4,38.79,38.79,0,0,0-7.47,2.92,88.23,88.23,0,0,1-9.23,4,34.63,34.63,0,0,1-5.6,1.34l-1.43.2-1.42.07-1.41.09c-.47,0-.92,0-1.39,0a49.3,49.3,0,0,1-10.11-1.45c-3-.73-5.79-1.45-8.27-2a24,24,0,0,0-6.73-.62l-.75.06a5.77,5.77,0,0,0-.72.16l-.71.16-.37.08-.42.13c-1.14.33-2.38.83-3.77,1.33a43.22,43.22,0,0,1-10.25,2.74,22.83,22.83,0,0,1-6.89-.26c-.6-.14-1.21-.29-1.81-.45s-1.18-.41-1.77-.62a20.3,20.3,0,0,1-3.3-1.64c-1.94-1.18-3.36-2.33-4.46-3.13-.55-.4-1-.71-1.42-.94a3.37,3.37,0,0,0-.81-.33,4,4,0,0,0-1.31-.1,10.65,10.65,0,0,0-1.86.25,37,37,0,0,0-6.06,1.94l-3.92,1.57c-1.45.57-2.89,1.1-4.79,1.66a37.86,37.86,0,0,1-6,1.28,28,28,0,0,1-3.2.25l-1.63,0-1.66-.09a32.54,32.54,0,0,1-6.61-1.07c-1.08-.31-2.13-.68-3.18-1.06s-2.06-.85-3-1.36a37,37,0,0,1-9.9-7.47,41.15,41.15,0,0,1-3.67-4.38,47.88,47.88,0,0,1-3.18-4.86,45.53,45.53,0,0,1-4.4-10.79,52.88,52.88,0,0,1-1.2-5.35c-.32-1.73-.59-3.44-.78-5.07-.83-6.59-1.17-12-1.91-17.78-.35-2.86-.71-5.71-1.1-8.56l-1.29-8.54-1.38-8.51a35.88,35.88,0,0,0-1.45-6.52,3.82,3.82,0,0,0-.66-1.19c-.2-.25-.26-.17-.09,0a2.85,2.85,0,0,0,.63.49c.1.08-.11,0-.66,0a37,37,0,0,0-5.95.9,93.78,93.78,0,0,1-10.06,1.58,33.37,33.37,0,0,1-7.32-.16c-1.21-.22-2.35-.45-3.5-.74s-2.24-.63-3.26-1A48.66,48.66,0,0,1,220,459.93c-2.91-1.93-5.3-3.89-7.45-5.51a54,54,0,0,0-5.63-3.88l-.59-.35-.91-.47-1.81-.92c-1.22-.59-2.43-1.21-3.66-1.77-2.46-1.17-5-2.22-7.48-3.27a156.17,156.17,0,0,0-31.45-9.1c-1.13-.17-3.29-.59-5.07-1a23.1,23.1,0,0,1-2.69-.73l-2.64-.85c-1.69-.65-3.34-1.37-5-2.11s-3.16-1.58-4.64-2.48A79.42,79.42,0,0,1,125.32,415a100,100,0,0,1-12.14-15.22c-.92-1.34-1.74-2.75-2.57-4.16s-1.58-2.87-2.34-4.32a91.77,91.77,0,0,1-4-9.06c-2.28-6.08-3.84-12-5.49-17.33s-3.46-10.64-5.49-15.85-4.17-10.37-6.53-15.42c-2.34-4.85-5-10.88-6.88-13.31A10.09,10.09,0,0,0,78.63,319a3.68,3.68,0,0,0-.47-.36,2.82,2.82,0,0,1-.29-.18c-.1-.07-.28-.13-.41-.2l-.21-.11L77,318l-.59-.22c-.49-.14-.91-.3-1.5-.45-1.08-.3-2.45-.6-3.95-.95s-3.26-.78-5.15-1.39a28.11,28.11,0,0,1-6.36-3,21.22,21.22,0,0,1-6-6.14,19.29,19.29,0,0,1-2.73-8.12c-.78-10.66,5.15-17.33,8.74-21.62a63.44,63.44,0,0,0,5-6.14A12.8,12.8,0,0,0,66,267.09a12.48,12.48,0,0,0,.48-1.42,11.86,11.86,0,0,0,.24-1.47c0-.27.07-.48.07-.8l0-1c0-.65-.09-1.32-.15-2-.12-1.33-.36-2.68-.61-4-.53-2.72-1.26-5.46-2.05-8.23-1.58-5.53-3.51-11.1-5.07-16.91a71.26,71.26,0,0,1-1.93-8.88,27.62,27.62,0,0,1,.16-9.5,17.91,17.91,0,0,1,4.46-8.59,26.12,26.12,0,0,1,7.64-5.35c5.45-2.63,11.14-4.05,15.89-7.1s8.14-7.92,10.85-13,4.83-10.62,7.7-15.75c.34-.64.75-1.26,1.12-1.89a7.93,7.93,0,0,1,1.35-1.76,42.79,42.79,0,0,1,3.29-2.91A39.74,39.74,0,0,0,115.69,150.47Zm0,0a70.06,70.06,0,0,1-6,6.48,43,43,0,0,0-3,3.14,9.69,9.69,0,0,0-.59.81l-.23.4-.23.48c-.3.66-.62,1.29-.9,2-2.28,5.27-3.77,10.9-6.19,16.44a44.21,44.21,0,0,1-4.5,8.09,28.7,28.7,0,0,1-6.83,6.86,44.6,44.6,0,0,1-8.27,4.37c-2.75,1.16-5.4,2.22-7.82,3.44A21.59,21.59,0,0,0,65,207.35a13,13,0,0,0-3.28,6.37,22,22,0,0,0,0,7.81,65.41,65.41,0,0,0,1.91,8.23c.78,2.75,1.72,5.47,2.69,8.22l2.95,8.28c1,2.79,1.89,5.61,2.67,8.51.4,1.44.76,2.9,1.06,4.38.15.75.31,1.49.41,2.25a22.66,22.66,0,0,1,.29,2.34A20.37,20.37,0,0,1,72,273.25a61.53,61.53,0,0,1-4.27,8,47.08,47.08,0,0,0-3.83,7.34,14.68,14.68,0,0,0-.93,7.19,7.19,7.19,0,0,0,1.14,2.93A8.29,8.29,0,0,0,66.37,301a24.63,24.63,0,0,0,7.32,2.55A49.47,49.47,0,0,1,82.57,306a17.62,17.62,0,0,1,4.35,2.62,21,21,0,0,1,3.38,3.63,46.85,46.85,0,0,1,4.49,8c1.25,2.67,2.43,5.38,3.55,8.1q3.38,8.18,6.12,16.57t4.9,16.93c1.43,5.69,2.66,11.38,4.45,16.92a70.78,70.78,0,0,0,7.41,15.75A79.17,79.17,0,0,0,132,408.36a63.8,63.8,0,0,0,13.75,10.78c1.25.74,2.6,1.33,3.89,2s2.7,1.11,4.08,1.6l2.1.61a15.39,15.39,0,0,0,2.13.52c1.44.25,2.87.54,4.32.69a168.16,168.16,0,0,1,34.06,8.07,163,163,0,0,1,16.2,6.65c5.24,2.64,9.71,6.5,14.6,9.68a36.66,36.66,0,0,0,7.76,4c.68.26,1.39.42,2.09.64s1.43.3,2.15.43a20,20,0,0,0,4.37.07c5.83-.48,11.46-2.45,17.34-2.38a15.38,15.38,0,0,1,4.32.65,11,11,0,0,1,3.81,2.1,15.2,15.2,0,0,1,4.49,7.38,53.74,53.74,0,0,1,1.56,8.62l1.05,8.7q1,8.7,1.81,17.44l.75,8.73c.23,2.91.44,5.82.8,8.72a40,40,0,0,0,5.24,16.58,33.65,33.65,0,0,0,12.42,12.09,22,22,0,0,0,8.36,2.42,25.93,25.93,0,0,0,8.68-.78c5.64-1.47,11.06-3.94,16.94-4.36a15.13,15.13,0,0,1,8.46,1.72c2.57,1.43,4.51,3.7,7,5.32a12.91,12.91,0,0,0,4,1.76,15.21,15.21,0,0,0,4.36.33,39.24,39.24,0,0,0,8.54-1.86c1.4-.42,2.8-.85,4.22-1.19.7-.2,1.43-.28,2.15-.41.36-.06.72-.14,1.08-.17l1.09-.06a32.25,32.25,0,0,1,8.7.83c5.69,1.24,11.23,3.4,17.11,3.63a22.73,22.73,0,0,0,8.61-1.28,48,48,0,0,0,7.83-3.9,80.63,80.63,0,0,1,7.69-4.2,39.65,39.65,0,0,1,8.29-2.79c5.71-1.32,11.6-1.4,17.43-1.28s11.69.44,17.52,0A74.15,74.15,0,0,0,498,525.28c9.79-6.39,18.25-14.67,28.5-20.37.63-.37,1.27-.71,1.93-1s1.29-.68,2-1c1.32-.62,2.67-1.19,4-1.84a23.22,23.22,0,0,0,3.72-2.29,8.7,8.7,0,0,0,2.79-3.32,5.48,5.48,0,0,0-.07-4.26,12.68,12.68,0,0,0-2.44-3.62,37.85,37.85,0,0,0-6.75-5.55c-4.84-3.24-10.23-5.8-14.26-10.12a26.87,26.87,0,0,1-4.67-7.36c-1.2-2.67-2.15-5.44-3.15-8.18a270.05,270.05,0,0,1-9.5-33.72q-1.8-8.58-3.05-17.26c-.82-5.79-1.5-11.6-1.84-17.43a121.83,121.83,0,0,1,.15-17.51,87.43,87.43,0,0,1,1.18-8.68,40.47,40.47,0,0,1,2.77-8.3c2.29-5.36,5.08-10.58,6.32-16.32a15.36,15.36,0,0,0-.37-8.63,16.42,16.42,0,0,0-5.19-6.92c-4.48-3.75-10.06-6.08-14-10.53a15.93,15.93,0,0,1-3.66-7.84,46.38,46.38,0,0,1-.5-8.73,71,71,0,0,1,.69-8.74c.45-2.88,1-5.76,1.65-8.6,1.31-5.7,3.07-11.28,4.84-16.84s3.6-11.13,5.1-16.77c.73-2.81,1.46-5.74.92-8.64s-2.3-5.36-4.05-7.67h0A75,75,0,0,0,478.29,209a65.87,65.87,0,0,0-8.35-7.39,76.3,76.3,0,0,0-9.46-5.9c-6.49-3.59-13.2-7-18.78-12a34.76,34.76,0,0,1-7.06-8.59,23.82,23.82,0,0,1-3.3-10.56c-.23-3.75.78-7.4,1.67-11a41.12,41.12,0,0,0,1.07-5.48,16.91,16.91,0,0,0-.28-5.54,15.31,15.31,0,0,0-6.21-9,38,38,0,0,0-10-4.92c-3.51-1.22-7.11-2.17-10.7-3.16A71.28,71.28,0,0,0,396,123.37a100.24,100.24,0,0,1-11-1.81,33.79,33.79,0,0,1-10.26-4.28,79.91,79.91,0,0,1-8.69-7c-1.41-1.21-2.84-2.4-4.36-3.47a44.47,44.47,0,0,0-4.78-2.87c-6.53-3.57-13.1-7.07-19.67-10.57-13.14-7-26.3-13.94-39.26-21.27q-4.86-2.75-9.67-5.58c-3.22-1.86-6.36-3.87-9.61-5.67A31.74,31.74,0,0,0,268.24,57a14.92,14.92,0,0,0-5.53.17,12.7,12.7,0,0,0-4.92,2.47A31.39,31.39,0,0,0,251,68.44c-1.87,3.21-3.6,6.55-6.13,9.32a19.69,19.69,0,0,1-4.29,3.54,31.86,31.86,0,0,1-5.08,2.32c-3.49,1.3-7.1,2.23-10.66,3.31a36.12,36.12,0,0,0-10.18,4.44,19.28,19.28,0,0,0-7,8.49l-.29.63-.22.66-.44,1.32a19.08,19.08,0,0,0-.73,2.69c-.38,1.82-.62,3.66-.92,5.5a31.52,31.52,0,0,1-1.28,5.43,17.24,17.24,0,0,1-2.67,4.89,17.79,17.79,0,0,1-9.1,6.17A21.93,21.93,0,0,1,181,127a38.27,38.27,0,0,1-10.24-4.36,49.51,49.51,0,0,1-8.84-6.8,44,44,0,0,1-7-8.67,24.63,24.63,0,0,1-3.74-10.44,17.08,17.08,0,0,1,.44-5.56,26.32,26.32,0,0,1,2-5.21c1.66-3.33,3.59-6.52,4.94-10a54.1,54.1,0,0,0,3.3-10.63,25.09,25.09,0,0,0,.47-5.54,11.75,11.75,0,0,0-1.4-5.32,8,8,0,0,0-4.19-3.45,18,18,0,0,0-5.45-1,79.7,79.7,0,0,0-11.13.61c-7.41,1.09-14.88.24-22.3.06a72.68,72.68,0,0,0-11.14.4,30.45,30.45,0,0,0-5.44,1.16,9.74,9.74,0,0,0-4.46,3.17,6.39,6.39,0,0,0-1.25,5.21,9.51,9.51,0,0,0,2.76,4.72,20.08,20.08,0,0,0,4.47,3.29,32.12,32.12,0,0,1,4.6,3.17,31.13,31.13,0,0,1,10.92,19,28.21,28.21,0,0,1,.32,5.58,25.24,25.24,0,0,1-.77,5.53,26.74,26.74,0,0,1-4.85,10,23.27,23.27,0,0,1-8.64,7c-1.69.78-3.43,1.44-5.1,2.25a13.21,13.21,0,0,0-4.5,3.2,8.57,8.57,0,0,0-2.06,5,9.9,9.9,0,0,0,1.19,5.35,10.1,10.1,0,0,0,3.76,4,10.82,10.82,0,0,0,5.32,1.38c1.86.07,3.72-.08,5.58-.05a12.8,12.8,0,0,1,5.43,1.12,6.62,6.62,0,0,1,2.2,1.69,5.23,5.23,0,0,1,1.24,2.46,5.12,5.12,0,0,1-.3,2.74A10.41,10.41,0,0,1,115.72,150.49Z"/></svg>