<svg id="Layer_1" data-name="Layer 1" xmlns="http://www.w3.org/2000/svg" viewBox="0 0 600 600"><title>Thailand</title><path d="M228.11,350.75a17.16,17.16,0,0,0,2.9-5.93,22.46,22.46,0,0,0,.7-6.52,34.43,34.43,0,0,0-3.09-12.63c-3.66-7.93-9.24-15-12.77-23.54a36,36,0,0,1-2-6.69,42.87,42.87,0,0,1-.78-7c-.09-2.29-.09-4.52-.16-6.69a44.23,44.23,0,0,0-.63-6.25c-1.26-7.89-7.8-13.31-14.69-18.67a102.66,102.66,0,0,1-10.64-9,31.86,31.86,0,0,1-4.82-6.2,21.34,21.34,0,0,1-2.77-8.24c-.05-.74-.14-1.49-.13-2.23s0-1.47.09-2.22a23,23,0,0,1,.86-4.32,37.34,37.34,0,0,1,3.16-7.26c.59-1.07,1.18-2.09,1.74-3.06s1.37-2.2,2.09-3.21c1.44-2,2.94-3.91,4.31-5.63,2.76-3.44,4.92-6.44,5.59-9a12.13,12.13,0,0,0,.35-4,9.86,9.86,0,0,0-1-3.77,24.76,24.76,0,0,0-2.64-4c-1.21-1.61-2.78-3.62-4.22-5.93-2.73-4.34-4.7-8.55-6.66-12a42.17,42.17,0,0,0-3-4.68c-.26-.35-.51-.69-.78-1l-1-1.17L176,157.21c-2.85-3.53-5.51-7-8.21-10.24a92.48,92.48,0,0,0-8.19-8.82c-.7-.66-1.38-1.22-2.11-1.87s-1.71-1.45-2.7-2.35a37,37,0,0,1-3.24-3.26,18.7,18.7,0,0,1-3.77-6.54c-.13-.42-.24-.83-.35-1.25a11.36,11.36,0,0,1-.23-1.4,12.77,12.77,0,0,1-.1-2.9,15.87,15.87,0,0,1,1.28-5.26c.32-.68.66-1.34,1-2s.69-1,1.05-1.56L151,109c.19-.25.34-.39.51-.59l1-1.12c.36-.4.65-.63,1-.94l1-.87,1.18-1c.68-.63,1.35-1.24,1.9-1.82A15.88,15.88,0,0,0,160,99.54a6.65,6.65,0,0,0,.89-2.42c0-.2,0-.43.08-.63s0-.43,0-.74c0-.65,0-1.66-.07-2.73-.08-2.16-.19-4.67-.09-7.45a34.73,34.73,0,0,1,1.61-9.74,21.66,21.66,0,0,1,3.24-6.28,18.66,18.66,0,0,1,6.77-5.61,20.21,20.21,0,0,1,7.73-2,26.36,26.36,0,0,1,6,.4c3.36.61,5.46,1.34,6.51,1.41.29,0,.58.08.86.14l.83,0,.4,0,.4,0,.79,0a15.65,15.65,0,0,0,3.29-.9,36,36,0,0,0,8.16-5.25c1.51-1.21,3.08-2.55,4.75-4l2.57-2.21.72-.61.79-.65c.53-.44,1.06-.85,1.6-1.25a65,65,0,0,1,6.73-4.54,56.38,56.38,0,0,1,7.58-3.78c1.32-.57,2.8-1,4.24-1.51a41.08,41.08,0,0,1,4.71-1.1A31.21,31.21,0,0,1,252.06,38a20.13,20.13,0,0,1,2.94.69l1.48.44c.48.17,1,.39,1.44.59a23.93,23.93,0,0,1,5.81,3.36,21.31,21.31,0,0,1,5.17,6,29.89,29.89,0,0,1,2.38,5.27c.46,1.3.74,2.15,1,2.77.13.32.24.56.35.81s.28.58.45.86a15.89,15.89,0,0,0,2.16,3.1,14.42,14.42,0,0,0,2.67,2.37,13.68,13.68,0,0,0,1.47.89c.53.28,1.26.6,2.08,1,1.65.72,3.83,1.51,6.46,2.72a35.26,35.26,0,0,1,8.78,5.57c.77.65,1.44,1.39,2.14,2.11s1.34,1.55,1.95,2.37a28.34,28.34,0,0,1,3.07,5.31,34.15,34.15,0,0,1,2.69,10.38,74.34,74.34,0,0,1,.31,8.23c0,2.38-.07,4.45,0,6.19a20.08,20.08,0,0,0,.46,4,4.46,4.46,0,0,0,.68,1.53c.09,0,.1.14.2.2a.57.57,0,0,1,.11.11l.12.1.18.14.69.6a4.28,4.28,0,0,0,.72.59c.56.35,1,.77,1.62,1.12l1.82,1A27.88,27.88,0,0,0,322,121a29.29,29.29,0,0,0,9-.06,19.35,19.35,0,0,0,7.24-2.57c.4-.35.87-.61,1.25-.92a12.07,12.07,0,0,1,1-1l4-4.26a42,42,0,0,1,8-6.63,30.78,30.78,0,0,1,6.71-3.07c.61-.2,1.23-.39,1.85-.57s1.29-.26,1.94-.37a25.11,25.11,0,0,1,3.92-.42,37.89,37.89,0,0,1,3.86.1c1.21.14,2.43.33,3.63.55s2.19.57,3.27.89a13.37,13.37,0,0,1,1.52.53l1.44.57a45.5,45.5,0,0,1,9.29,5.33,85.13,85.13,0,0,1,6.71,5.54c.95.89,1.91,1.78,2.77,2.61l1.26,1.23.6.6a1.33,1.33,0,0,0,.22.19l.16.15c.88.8,2.17,1.84,3.78,3.09s3.55,2.7,5.7,4.53A56.49,56.49,0,0,1,418,134a40.71,40.71,0,0,1,3.4,4.77,37.55,37.55,0,0,1,2.9,5.78c.44,1.06.75,2.09,1.09,3.15s.54,2,.75,3.07.29,2,.35,2.92a20.77,20.77,0,0,1,0,2.73,33.8,33.8,0,0,1-1.86,8.65,21.63,21.63,0,0,0-1.31,5.74c0,.34-.05.75-.05,1s0,.59,0,1c0,.69,0,1.36.11,2a18.94,18.94,0,0,0,.69,3.61,16.19,16.19,0,0,0,1.46,3.17,16.67,16.67,0,0,0,2.42,3l2.36,2.19c.83.76,1.65,1.52,2.49,2.26,3.39,3.06,7.09,6.29,10.81,10.24.94,1,1.87,2.08,2.79,3.12s1.8,2.34,2.73,3.49,1.75,2.59,2.66,3.88,1.7,2.85,2.51,4.35,1.54,3.15,2.2,4.83c.31.85.62,1.71.92,2.59a22.33,22.33,0,0,1,.78,2.65l.6,2.73a20.91,20.91,0,0,1,.46,2.76,49,49,0,0,1,.35,5.52c-.07,1.76-.1,3.6-.32,5.36s-.59,3.34-1,5a22.64,22.64,0,0,1-.77,2.59,23,23,0,0,1-1,2.59c-.38.83-.74,1.68-1.16,2.49s-.89,1.59-1.35,2.38a44.48,44.48,0,0,1-15.23,14.64,45,45,0,0,1-9.61,4.17,42.14,42.14,0,0,1-10.36,1.8c-.87,0-1.75.07-2.64,0s-1.77,0-2.6-.11a45.29,45.29,0,0,1-4.81-.68,54.62,54.62,0,0,1-8.27-2.34c-5-1.84-9.25-3.91-13.28-5.65a61,61,0,0,0-11.4-3.91,18.58,18.58,0,0,0-9.42.1,12.24,12.24,0,0,0-3.69,1.95l-.83.71c-.33.32-.67.63-1,1-.68.67-1.36,1.43-2.06,2.19-1.39,1.57-2.84,3.33-4.53,5.16a47.86,47.86,0,0,1-5.86,5.59l-.87.67-.73.55-1.4,1c-.91.67-1.79,1.32-2.58,1.93a25.87,25.87,0,0,0-3.75,3.31,12.2,12.2,0,0,0-2,3c-.13.25-.22.56-.35.82l-.23.83a8.69,8.69,0,0,0-.38,1.5c0,.24,0,.47-.08.7l-.06.35,0,.36c0,.25-.29.51-.19.77a6.39,6.39,0,0,0,.46.76,5.65,5.65,0,0,0,.67.75c.23.24.47.47.77.75s.51.51.76.78a8.43,8.43,0,0,1,.72.91c.86,1.35,1.81,2.83,3,4.51l1.86,2.6c.69,1,1.33,1.86,2.06,2.93l1.06,1.56,1.09,1.7c.36.54.72,1.2,1.08,1.82l.54.95c.08.13.2.36.24.42l.08.08.09.1.16.24.35.52.88,1.3c.62.92,1.29,2,2,3.05a46.59,46.59,0,0,1,4.18,8.21c.17.47.34,1,.5,1.5l.24.76c.07.27.15.62.22.93.14.65.27,1.24.38,1.95s.17,1.66.21,2.49a13.1,13.1,0,0,1,0,1.49c0,.55-.09,1.11-.16,1.66a12.35,12.35,0,0,1-.32,1.76c-.18.69-.4,1.38-.65,2.06s-.58,1.45-.79,1.87l-.54,1a19.34,19.34,0,0,1-1.41,2.23,14.92,14.92,0,0,1-1,1.26,16.6,16.6,0,0,1-1.25,1.31c-.52.48-1.07.94-1.63,1.37a19.39,19.39,0,0,1-2.07,1.32,16.59,16.59,0,0,1-2.43,1.1,15.67,15.67,0,0,1-2.69.74,15.5,15.5,0,0,1-2.72.3,18.8,18.8,0,0,1-2.55-.1,17.93,17.93,0,0,1-2.26-.4c-.64-.16-1.28-.35-1.91-.56a19.52,19.52,0,0,1-2.9-1.29c-.43-.22-.84-.45-1.16-.65l-1-.65c-.55-.39-1.17-.84-1.62-1.2a37.15,37.15,0,0,1-4.29-4.08c-1.1-1.2-2-2.31-2.8-3.31l-1.08-1.36a8,8,0,0,0-.64-.75l.09.12c.13.15.15.17,0,0l-.46-.47-.93-.91c-1.27-1.2-2.54-2.39-3.88-3.5s-2.7-2.22-4.12-3.25c-.7-.53-1.41-1-2.14-1.52l-.54-.37-.5-.32c-.24-.14-.47-.3-.7-.46-.91-.57-1.61-.88-2.22-1.22a1.6,1.6,0,0,1-.5-.26c-.18-.09-.39-.16-.59-.26a10.18,10.18,0,0,0-1.66-.57,52,52,0,0,0-5.76-1.1c-2.38-.41-5.06-.82-7.79-1.45-.67-.14-1.36-.34-2-.51l-1-.26-1.34-.33a25.89,25.89,0,0,1-5.11-2,23.28,23.28,0,0,1-4.66-3.12,17.86,17.86,0,0,1-3.79-4.51,18.82,18.82,0,0,1-2.48-10.31c.06-.74.11-1.54.21-2.24s.22-1.41.36-2c.25-1.28.54-2.45.78-3.49a16.63,16.63,0,0,0,.62-5c0-.29-.11-.5-.14-.75s-.16-.39-.27-.57a2.58,2.58,0,0,0-.77-.86,4.88,4.88,0,0,0-2.7-.75,10.18,10.18,0,0,0-3.9.67,11.6,11.6,0,0,0-1.77.84,6.87,6.87,0,0,0-.69.5l-.29.24-.29.29a12.17,12.17,0,0,0-1.08,1.28,9.16,9.16,0,0,0-.84,1.5,10.09,10.09,0,0,0-.82,3.19,6.47,6.47,0,0,0,0,1.52,9.88,9.88,0,0,0,.34,2c.37,1.48,1,3.4,1.74,5.7a38.25,38.25,0,0,1,1,3.83,32.24,32.24,0,0,1,.66,4.56,27.71,27.71,0,0,1-1.11,9.2,49.84,49.84,0,0,1-2.91,7.4l-3.1,6.22c-1,1.95-1.85,4-2.76,6q-2.64,6-4.8,12.22c-2.94,8.25-5.21,16.73-7.38,25.19-1.65,5.72-3.88,9.94-5.59,13.82a55.47,55.47,0,0,0-3.71,9.62,9,9,0,0,0-.26,2.45,9.74,9.74,0,0,0,.12,1.45,3,3,0,0,0,.14.58,1.46,1.46,0,0,1,.06.46,1.7,1.7,0,0,1,0,.4,2,2,0,0,0,0,.4,1.45,1.45,0,0,0,.4,1l.1.15.18.14.37.3a8.27,8.27,0,0,0,1,.58,54.92,54.92,0,0,0,6.64,2.23,33.36,33.36,0,0,1,4.32,1.64,17.31,17.31,0,0,1,2.19,1.19,13.2,13.2,0,0,1,2.05,1.43,18.13,18.13,0,0,1,1.82,1.63l.81.86a7.18,7.18,0,0,1,.77.93,17.27,17.27,0,0,1,1.44,2l.6,1.12a8.58,8.58,0,0,1,.54,1.15,20.53,20.53,0,0,1,1.41,7l0,1.07v1c-.06,2.66-.3,5-.21,6.92a6.77,6.77,0,0,0,1,4.08c.59.82,1.63,2,3.1,3.74.73.85,1.55,2,2.3,3.12s1.44,2.23,2,3.36A62.6,62.6,0,0,1,266.7,472c1.21,4.26,2.3,8.21,3.52,11.71a41.54,41.54,0,0,0,4.31,9.16,16.43,16.43,0,0,0,2.64,3,10.82,10.82,0,0,0,1.47,1.08,4.86,4.86,0,0,0,1.37.66,19.3,19.3,0,0,0,5.09.63,69,69,0,0,1,7.74.46,21.64,21.64,0,0,1,2.34.48l1.19.33c.4.12.81.3,1.22.45s.8.32,1.19.52l1.17.64a17,17,0,0,1,2.17,1.49l.51.4.42.37c.28.25.53.51.8.76.5.51,1,1,1.42,1.54.89,1,1.68,2,2.38,3s1.35,1.86,2,2.66l.47.59a5.22,5.22,0,0,0,.36.41,4.15,4.15,0,0,1,.27.32c.1.1.25.21.36.32a26.15,26.15,0,0,0,4.77,2.85l.82.44.9.51c.58.31,1.28.81,1.92,1.25.34.25.7.57,1,.86l.51.46c.17.16.34.37.51.56.35.39.68.77,1,1.18s.58.94.84,1.42A7.4,7.4,0,0,1,324,524a13.65,13.65,0,0,1,.47,1.55c.08.49.15,1,.21,1.49l.09.75c0,.23,0,.44,0,.67l0,1.33c0,.22,0,.45,0,.66l-.09.58c-.12.78-.22,1.56-.39,2.34a39.85,39.85,0,0,1-1.13,4c-.4,1.24-.84,2.47-1.38,3.74a25.34,25.34,0,0,1-2.11,4.07c-.22.36-.57.79-.87,1.19-.14.19-.38.45-.58.67s-.4.44-.69.7-.63.53-1,.77a9,9,0,0,1-.85.57A11.26,11.26,0,0,1,314,550a16.8,16.8,0,0,1-6.77,1.42c-1.94,0-3.43-.17-4.59-.24a6.13,6.13,0,0,0-2.27.09c-.1,0-.12.07-.13.12s0,.08.09.11a.78.78,0,0,0,.25.09.76.76,0,0,1,.25.06c.3.08.27.19,0,.55s-.84.94-1.56,1.68a35.82,35.82,0,0,1-2.88,2.68,22.18,22.18,0,0,1-5.18,3.22c-.27.12-.57.26-.84.36l-.78.27c-.53.18-1,.35-1.6.5a21,21,0,0,1-3.66.62,18.13,18.13,0,0,1-8.9-1.59,24.91,24.91,0,0,1-2.35-1.34,20.32,20.32,0,0,1-2.16-1.77,20.77,20.77,0,0,1-1.84-2.14,18.82,18.82,0,0,1-1.42-2.35,17.79,17.79,0,0,1-1.76-9.05c0-.63.12-1.27.2-1.9s.22-1.14.36-1.7a23.23,23.23,0,0,1,1-3l.22-.57a3.54,3.54,0,0,1,.16-.34l.19-.34.11-.3a9.72,9.72,0,0,0,.71-2.09,4,4,0,0,0,0-2.13,6.23,6.23,0,0,0-1.7-2.57,9.53,9.53,0,0,0-3.51-2.11c-.36-.12-.71-.27-1.09-.38l-1.15-.28a13.15,13.15,0,0,0-2.53-.31c-1.93-.09-4.35.06-7.23-.15a24.14,24.14,0,0,1-4.6-.77,30.93,30.93,0,0,1-4-1.46,31.39,31.39,0,0,1-7.08-4.34,42.67,42.67,0,0,1-5.53-5.46c-.81-.94-1.59-1.9-2.31-2.87s-1.4-1.88-2.14-3c-1.37-2.06-2.45-3.92-3.55-5.51a13.52,13.52,0,0,0-3.2-3.54c-.13-.1-.25-.15-.37-.24l-.27-.14-.34-.18-1.44-.7c-1-.48-2.1-1-3.28-1.69a17.7,17.7,0,0,1-3.73-2.73,11.87,11.87,0,0,1-2.87-4.56,15.27,15.27,0,0,1-.74-4.78,19.2,19.2,0,0,1,.59-4.4c.31-1.25.64-2.32.84-3.17a6.23,6.23,0,0,0,.23-1.79,1,1,0,0,0-.28-.63,1.25,1.25,0,0,1-.23-.23,2.71,2.71,0,0,0-.34-.26,2,2,0,0,0-.57-.37,3.68,3.68,0,0,0-2.93.05,2.43,2.43,0,0,0-1.15,1,1.24,1.24,0,0,0-.1,1.11,21.9,21.9,0,0,1,.09,2.78,13.24,13.24,0,0,1-.37,2.55,10.53,10.53,0,0,1-1.42,3.29,12.1,12.1,0,0,1-6.39,4.83,13.3,13.3,0,0,1-7.26.22,13.45,13.45,0,0,1-3.47-1.43,14.92,14.92,0,0,1-2.73-2.06,17.49,17.49,0,0,1-3.61-4.95,19.57,19.57,0,0,1-1-2.6c-.14-.44-.25-.87-.36-1.31s-.19-.9-.25-1.25a32.37,32.37,0,0,1-.44-4.36,43.26,43.26,0,0,1,.57-7.87c.2-1.24.45-2.46.71-3.65s.51-2.17.78-3.26c1-4.33,2.13-8.66,3.14-13,2-8.68,3.87-17.38,5.8-26.07l2.91-13a131,131,0,0,1,3.46-13.19,55.48,55.48,0,0,1,6-12.46A63.09,63.09,0,0,1,207,367.09c6.37-6.38,13.71-11.49,21.14-16.34-7.17,5.23-14.15,10.81-19.88,17.5a54,54,0,0,0-11.95,22.87,121.17,121.17,0,0,0-2.13,13l-1.71,13.23L189,443.75,187.3,457c-.14,1.1-.3,2.21-.46,3.3s-.28,2.09-.37,3.13a41.53,41.53,0,0,0-.14,6.08,23.06,23.06,0,0,0,.31,2.84,8.77,8.77,0,0,0,.71,2.29,6,6,0,0,0,1.18,1.71,4.06,4.06,0,0,0,.71.56,3,3,0,0,0,.67.35,4.22,4.22,0,0,0,1.61.22,2.81,2.81,0,0,0,1.29-.4,4.17,4.17,0,0,0,1.17-1.86c.37-.94.71-2.12,1.31-3.37a10.41,10.41,0,0,1,6.06-5.15,9.77,9.77,0,0,1,7.59.36,8,8,0,0,1,1.61,1.08,9.67,9.67,0,0,1,1.38,1.34,6.79,6.79,0,0,1,1.5,3.67c.19,2.67-.79,4.82-1.31,6.89a12.75,12.75,0,0,0-.49,3.06,9.88,9.88,0,0,0,.43,3,7.88,7.88,0,0,0,4.07,4.31c1.88,1.07,3.94,1.81,6,3a19.13,19.13,0,0,1,4.9,4.8c1.36,1.8,2.54,3.69,3.82,5.47a62.23,62.23,0,0,0,4.17,5.13,29.19,29.19,0,0,0,10.53,7.69,18.25,18.25,0,0,0,6.37,1.46c2.19.1,4.41-.12,6.63-.2a24.29,24.29,0,0,1,12.94,2.81,17.43,17.43,0,0,1,5.07,4.29,14.83,14.83,0,0,1,2.76,6,15.4,15.4,0,0,1-.1,6.62c-.43,2.18-1.55,4.19-1.66,6.43a6.71,6.71,0,0,0,.59,3.24,4.89,4.89,0,0,0,2.33,2.29,6.69,6.69,0,0,0,3.24.56,9.7,9.7,0,0,0,3.23-.75c4.14-1.72,6.78-5.86,11.12-7.21s8.75,2.06,13.13.49a5.54,5.54,0,0,0,1.45-.8,7.74,7.74,0,0,0,1.15-1.21,20.49,20.49,0,0,0,1.81-2.79,34.75,34.75,0,0,0,2.63-6.11,15.18,15.18,0,0,0,.54-3.28,2.89,2.89,0,0,0,0-.83l-.08-.83a6,6,0,0,0-.23-.8,3,3,0,0,0-.3-.77l-.4-.73c-.17-.22-.36-.43-.53-.65a3.59,3.59,0,0,0-.58-.59c-.21-.18-.41-.38-.63-.54a21.2,21.2,0,0,0-2.83-1.76,33.26,33.26,0,0,1-5.69-3.44,35.47,35.47,0,0,1-4.4-5,26.09,26.09,0,0,0-4.65-4.74,12.2,12.2,0,0,0-6.19-2.21c-4.44-.38-8.88.7-13.31.09a15.74,15.74,0,0,1-6.21-2.27,21.92,21.92,0,0,1-5.07-4.29,40,40,0,0,1-6.73-11.43c-3.38-8.23-4.91-17.08-8.34-25.3-.41-1-.9-2-1.37-3s-1-2-1.57-2.93a26.06,26.06,0,0,1-2.79-6,18.19,18.19,0,0,1-.21-6.62c.25-2.21.66-4.39.82-6.61a14.12,14.12,0,0,0-.84-6.54,11.75,11.75,0,0,0-4.26-5,14.14,14.14,0,0,0-6.23-2.17c-2.2-.3-4.43-.3-6.64-.54a15.46,15.46,0,0,1-6.34-1.86,14,14,0,0,1-4.66-4.67,14.45,14.45,0,0,1-2.21-6.22,18.9,18.9,0,0,1,.52-6.61c2.21-8.7,8-15.82,11.18-24.13s6.32-16.62,9.82-24.78q2.64-6.12,5.43-12.17l2.85-6c1-2,2-4,2.83-6,1.75-4.05,3.18-8.43,2.77-12.89s-2.56-8.5-3.64-12.8a17.31,17.31,0,0,1-.52-6.6,16.6,16.6,0,0,1,2.15-6.26,16.14,16.14,0,0,1,4.43-4.91,15.83,15.83,0,0,1,6.08-2.61,16.58,16.58,0,0,1,6.62-.14,13,13,0,0,1,3.16,1,9.91,9.91,0,0,1,2.68,1.95,9.42,9.42,0,0,1,2.63,6,24.47,24.47,0,0,1-.71,6.6,35,35,0,0,0-.94,6.59,10.68,10.68,0,0,0,1.9,6.27,10.4,10.4,0,0,0,5.4,3.7,14,14,0,0,0,3.27.62c1.11.07,2.22,0,3.33,0,4.45-.14,8.82-1,13.26-1.28a23.07,23.07,0,0,1,12.85,2.81,66.9,66.9,0,0,1,10.94,7.58q2.55,2.14,4.89,4.52c.77.8,1.56,1.58,2.27,2.44s1.34,1.77,2,2.66a29.79,29.79,0,0,0,4.39,5A6,6,0,0,0,341,342a3.05,3.05,0,0,0,2.84-1.4,4.84,4.84,0,0,0,1.09-3.07,11.73,11.73,0,0,0-.6-3.26,40.29,40.29,0,0,0-2.74-6.06c-1-2-2.21-3.86-3.22-5.84s-2-4-3.17-5.86c-2.27-3.81-4.81-7.49-6.72-11.5a28.17,28.17,0,0,1-2.18-6.28,19.18,19.18,0,0,1-.16-6.63,18.8,18.8,0,0,1,.87-3.21c.19-.52.37-1.05.58-1.56s.46-1,.74-1.49a20.94,20.94,0,0,1,4.05-5.26c3.23-3.08,7.2-5.19,10.83-7.74s6.57-6,9.64-9.17a49.74,49.74,0,0,1,4.84-4.57,22.44,22.44,0,0,1,5.78-3.27,29.54,29.54,0,0,1,13.13-1.48c8.88.76,17.38,3.65,26.15,5.07a39.63,39.63,0,0,0,13.26.3,28.3,28.3,0,0,0,6.38-1.86,31.22,31.22,0,0,0,5.85-3.17,31.9,31.9,0,0,0,9.17-9.53,29.5,29.5,0,0,0,2.86-6l1-3.18c.23-1.09.4-2.18.61-3.28a25.7,25.7,0,0,0-1.57-13.07,38.52,38.52,0,0,0-7.23-11.12,121.21,121.21,0,0,0-9.51-9.32c-3.25-3-6.83-5.75-9.4-9.41A30.44,30.44,0,0,1,409,177.62a36.82,36.82,0,0,1-.7-6.62c0-2.22.1-4.44.19-6.66.18-4.4.28-9-1.36-13.15s-4.72-7.55-8-10.46-7-5.55-10.09-8.7a94,94,0,0,0-9.66-9.17,28.29,28.29,0,0,0-5.65-3.49,14.51,14.51,0,0,0-6.43-1.46,13.6,13.6,0,0,0-6.33,1.82,29.14,29.14,0,0,0-5.2,4.13c-1.61,1.53-3.16,3.13-4.85,4.58-.87.68-1.78,1.33-2.67,2s-1.92,1.11-2.88,1.67a36,36,0,0,1-12.77,3.56,46.1,46.1,0,0,1-13.26-.67,43.08,43.08,0,0,1-12.51-4.46c-1-.56-1.9-1.17-2.84-1.75s-1.78-1.34-2.67-2a25.15,25.15,0,0,1-4.56-4.83,18.22,18.22,0,0,1-2.51-6.14,34.35,34.35,0,0,1-.66-6.63c-.07-4.44.34-8.89-.08-13.32a20.91,20.91,0,0,0-1.58-6.43A15.1,15.1,0,0,0,288,84.08c-3.34-3-7.68-4.4-11.72-6.18a30.66,30.66,0,0,1-5.83-3.22,26.81,26.81,0,0,1-4.89-4.51,28.27,28.27,0,0,1-3.72-5.52,37.93,37.93,0,0,1-2.47-6.18,16.83,16.83,0,0,0-1.32-3,8.6,8.6,0,0,0-2.15-2.5A12,12,0,0,0,253,51.27c-.26-.1-.5-.24-.76-.33l-.8-.23a10.2,10.2,0,0,0-1.61-.39,18.64,18.64,0,0,0-6.62,0,29.12,29.12,0,0,0-6.38,1.85,42.27,42.27,0,0,0-6,2.94,51.26,51.26,0,0,0-5.54,3.69c-3.53,2.69-6.77,5.76-10.28,8.49a45.59,45.59,0,0,1-11.33,6.93,26.65,26.65,0,0,1-6.47,1.6c-.55,0-1.11,0-1.66.08l-.84,0-.83,0-1.66-.11-1.65-.27c-2.2-.34-4.31-1.1-6.49-1.49a10.65,10.65,0,0,0-6.51.52,8.17,8.17,0,0,0-4,5,24.52,24.52,0,0,0-1.08,6.54c-.11,2.22-.06,4.44,0,6.66a28,28,0,0,1-.4,6.65c-.88,4.4-3.6,8.2-6.82,11.23-.8.78-1.64,1.51-2.48,2.23s-1.72,1.41-2.51,2.18a9.4,9.4,0,0,0-2,2.65,4.45,4.45,0,0,0-.21,3.21c.7,2.11,2.4,3.7,4,5.22s3.31,3,4.88,4.54a107.31,107.31,0,0,1,8.74,10.06c2.73,3.51,5.34,7.11,8,10.67,1.31,1.79,2.72,3.51,4,5.35a53.46,53.46,0,0,1,3.35,5.77c2,4,3.75,8.06,6,11.91s5.25,7.21,6.86,11.4a18.09,18.09,0,0,1,.89,3.22,24.66,24.66,0,0,1,.28,3.33A19.51,19.51,0,0,1,203.9,199c-1.52,4.23-4.54,7.65-7.45,11-1.47,1.67-2.94,3.33-4.3,5.09a60.55,60.55,0,0,0-3.72,5.52,30.21,30.21,0,0,0-2.92,6,16.33,16.33,0,0,0-.87,6.54,16,16,0,0,0,1.88,6.32,26.92,26.92,0,0,0,3.86,5.39,105.67,105.67,0,0,0,9.8,9,71.07,71.07,0,0,1,9.52,9.32,26.87,26.87,0,0,1,3.54,5.64,22,22,0,0,1,1.81,6.4c.61,4.43.25,8.89.27,13.33a35.84,35.84,0,0,0,2.24,13c3.07,8.36,8.46,15.61,11.93,23.81a35.74,35.74,0,0,1,2.73,13,22.76,22.76,0,0,1-.93,6.61,15.93,15.93,0,0,1-3.18,5.84Z"/><path d="M168.33,401a3.12,3.12,0,0,0,0,1.74,1.54,1.54,0,0,0,.45.69,2.56,2.56,0,0,0,.72.36,3.35,3.35,0,0,0,2.93-.72,7.61,7.61,0,0,0,2.75-4,4.52,4.52,0,0,0,.05-.49.67.67,0,0,0,0-.43,2.13,2.13,0,0,0-1.83-1A5.28,5.28,0,0,0,168.33,401Zm0,0a11.72,11.72,0,0,1,1.5-3.29,9,9,0,0,1,2.81-2.9,5.17,5.17,0,0,1,5-.23,4.66,4.66,0,0,1,2.14,2.32,5.36,5.36,0,0,1,.36,3,6.43,6.43,0,0,1-2.8,4.16,8.06,8.06,0,0,1-4.15,1.38,5.85,5.85,0,0,1-4-1.07,4.15,4.15,0,0,1-.69-.7,2.24,2.24,0,0,1-.33-.9A4.43,4.43,0,0,1,168.33,401Z"/><path d="M170,420.73a3.11,3.11,0,0,0,0,1.74,1.44,1.44,0,0,0,.45.69,2.56,2.56,0,0,0,.72.36,3.36,3.36,0,0,0,2.93-.71,7.66,7.66,0,0,0,2.75-4,4.28,4.28,0,0,0,.05-.49.67.67,0,0,0,0-.43,2.15,2.15,0,0,0-1.83-1A5.28,5.28,0,0,0,170,420.73Zm0,0a11.85,11.85,0,0,1,1.5-3.29,9,9,0,0,1,2.81-2.9,5.14,5.14,0,0,1,5-.22,4.64,4.64,0,0,1,2.14,2.31,5.38,5.38,0,0,1,.36,3,6.44,6.44,0,0,1-2.8,4.16,8.16,8.16,0,0,1-4.15,1.39,6,6,0,0,1-4-1.07,3.87,3.87,0,0,1-.69-.71,2.25,2.25,0,0,1-.33-.89A4.49,4.49,0,0,1,170,420.73Z"/><path d="M245,401a3,3,0,0,0,0,1.74,1.65,1.65,0,0,0,.46.69,2.43,2.43,0,0,0,.72.36,3.37,3.37,0,0,0,2.93-.72,7.67,7.67,0,0,0,2.75-4,4.4,4.4,0,0,0,0-.49.66.66,0,0,0,0-.43,2.14,2.14,0,0,0-1.83-1A5.26,5.26,0,0,0,245,401Zm0,0a11.44,11.44,0,0,1,1.5-3.29,8.88,8.88,0,0,1,2.81-2.9,5.16,5.16,0,0,1,5-.23,4.64,4.64,0,0,1,2.13,2.32,5.46,5.46,0,0,1,.37,3,6.48,6.48,0,0,1-2.81,4.16,8,8,0,0,1-4.15,1.38,5.85,5.85,0,0,1-4-1.07,4.15,4.15,0,0,1-.69-.7,2.4,2.4,0,0,1-.33-.9A4.26,4.26,0,0,1,245,401Z"/><path d="M241.72,414.44a3,3,0,0,0,0,1.74,1.54,1.54,0,0,0,.45.69,2.43,2.43,0,0,0,.72.36,3.36,3.36,0,0,0,2.93-.72,7.61,7.61,0,0,0,2.75-4,4.52,4.52,0,0,0,0-.49.67.67,0,0,0,0-.43,2.13,2.13,0,0,0-1.83-1A5.28,5.28,0,0,0,241.72,414.44Zm0,0a11.72,11.72,0,0,1,1.5-3.29,9,9,0,0,1,2.81-2.9,5.17,5.17,0,0,1,5-.23,4.66,4.66,0,0,1,2.14,2.32,5.36,5.36,0,0,1,.36,3,6.44,6.44,0,0,1-2.81,4.16,8,8,0,0,1-4.14,1.38,5.89,5.89,0,0,1-4-1.07,4.57,4.57,0,0,1-.69-.7,2.38,2.38,0,0,1-.32-.9A4.26,4.26,0,0,1,241.72,414.44Z"/><path d="M232.3,525.86a3.1,3.1,0,0,0-1.7-.36,1.51,1.51,0,0,0-.78.29,2.23,2.23,0,0,0-.51.62,3.36,3.36,0,0,0,0,3,7.67,7.67,0,0,0,3.25,3.59c.11.06.37.12.47.16a.66.66,0,0,0,.42.06,2.14,2.14,0,0,0,1.36-1.56A5.27,5.27,0,0,0,232.3,525.86Zm0,0a12,12,0,0,1,2.86,2.22,9,9,0,0,1,2.18,3.4,5.11,5.11,0,0,1-.93,4.92,4.66,4.66,0,0,1-2.74,1.56,5.5,5.5,0,0,1-3-.34,6.48,6.48,0,0,1-3.41-3.68,8.07,8.07,0,0,1-.4-4.36,5.88,5.88,0,0,1,2-3.63,3.84,3.84,0,0,1,.85-.51,2.37,2.37,0,0,1,.94-.12A4.4,4.4,0,0,1,232.3,525.86Z"/><path d="M220.74,522.41a2.54,2.54,0,0,0,0,1.47,1.32,1.32,0,0,0,1,.85,2.7,2.7,0,0,0,2.41-.74,6.49,6.49,0,0,0,2-3.27s0-.2.07-.23.14-.07.13-.22-.54-.82-1.32-.91A4.26,4.26,0,0,0,220.74,522.41Zm0,0a11.79,11.79,0,0,1,1.24-2.84,7.8,7.8,0,0,1,2.37-2.6,4.53,4.53,0,0,1,4.5-.29,4.29,4.29,0,0,1,2,2.11,4.83,4.83,0,0,1,.33,2.75,5.59,5.59,0,0,1-2.53,3.71,6.94,6.94,0,0,1-3.7,1.12,5.2,5.2,0,0,1-3.46-1,3.84,3.84,0,0,1-.58-.63,1.92,1.92,0,0,1-.27-.77A4.06,4.06,0,0,1,220.74,522.41Z"/><path d="M206,527.74a3,3,0,0,0,0,1.73,1.44,1.44,0,0,0,.45.69,2.43,2.43,0,0,0,.72.36,3.36,3.36,0,0,0,2.93-.71,7.62,7.62,0,0,0,2.75-4,4.07,4.07,0,0,0,.05-.49.64.64,0,0,0,0-.42,2.13,2.13,0,0,0-1.83-1A5.29,5.29,0,0,0,206,527.74Zm0,0a11.78,11.78,0,0,1,1.5-3.3,9,9,0,0,1,2.81-2.89,5.12,5.12,0,0,1,5-.23,4.64,4.64,0,0,1,2.14,2.31,5.38,5.38,0,0,1,.36,3,6.48,6.48,0,0,1-2.81,4.17,8.21,8.21,0,0,1-4.15,1.38,6,6,0,0,1-4-1.07,4.22,4.22,0,0,1-.69-.71,2.33,2.33,0,0,1-.32-.89A4.26,4.26,0,0,1,206,527.74Z"/></svg>