<svg id="Layer_1" data-name="Layer 1" xmlns="http://www.w3.org/2000/svg" viewBox="0 0 600 600"><title>CapeVerde</title><path d="M109.39,68.24a22,22,0,0,0-7.52-.67,12.5,12.5,0,0,0-6.48,3.29c-1.91,1.61-3.64,3.56-5.86,5.27a38,38,0,0,1-7,4.18c-2.42,1.15-4.83,2.11-7.1,3.11A53.75,53.75,0,0,0,69,86.67c-4.09,2.44-8,5.48-12.13,8.54l-1.43,1.06c-.43.34-.84.68-1.19,1a6.23,6.23,0,0,0-1.39,1.81,1.08,1.08,0,0,0-.12.5,1,1,0,0,0,.27.65,18,18,0,0,0,2.69,2.18,15.89,15.89,0,0,1,5.06,7.11,16.45,16.45,0,0,1,.81,8.39c-.47,2.88-1.87,5.18-2.45,7.48a5.85,5.85,0,0,0-.11,3.17,3.64,3.64,0,0,0,1.79,2.19,6.65,6.65,0,0,0,3.07.82,11.1,11.1,0,0,0,3.36-.46c2.33-.57,4.78-1.72,7.8-2a59.35,59.35,0,0,1,8.07.2,12.65,12.65,0,0,0,3.18-.23,6.42,6.42,0,0,0,2.45-1,35.52,35.52,0,0,0,4.94-4.77c1-1,2-1.94,3-2.86s2.07-1.82,3.16-2.62A120.46,120.46,0,0,1,113.14,109c4.44-2.65,8.86-5.08,12.94-7.77a70,70,0,0,0,5.8-4.28c.45-.38.92-.74,1.36-1.14l1.27-1.21a16.81,16.81,0,0,0,2.15-2.27,5,5,0,0,0,.93-1.7c0-.1,0-.19.06-.29a1.76,1.76,0,0,1,0-.4,2.53,2.53,0,0,0-.23-.78,6.23,6.23,0,0,0-1.67-1.92,31.41,31.41,0,0,0-2.95-2c-1.08-.67-2.25-1.39-3.41-2.23a13,13,0,0,1-3.29-3.22,10.64,10.64,0,0,1-1.49-4.22,6,6,0,0,0-1.18-3,6.67,6.67,0,0,0-2.8-1.92,21.14,21.14,0,0,0-3.6-1.08c-1.24-.29-2.51-.47-3.78-.69S110.67,68.52,109.39,68.24Zm.17-.79c2.48.47,5.07.62,7.66,1a29.12,29.12,0,0,1,3.91.73A9.43,9.43,0,0,1,125,71.05a7.39,7.39,0,0,1,1.46,1.78,13.06,13.06,0,0,1,.91,2A7.18,7.18,0,0,0,129,77.56a8.94,8.94,0,0,0,2.69,1.62c1.06.46,2.22.86,3.46,1.31A33.69,33.69,0,0,1,139,82.13a11.94,11.94,0,0,1,4,3.22A9.34,9.34,0,0,1,144.42,88c.14.49.27,1,.38,1.5a10,10,0,0,1,.11,1.64,11.46,11.46,0,0,1-1.78,5.45,21.21,21.21,0,0,1-2.84,3.61l-1.45,1.53c-.49.49-1,.95-1.52,1.43a62.35,62.35,0,0,1-6.45,5.14,138.13,138.13,0,0,1-13.64,8,135.76,135.76,0,0,0-12.93,7.55c-1,.66-2,1.43-2.92,2.14s-1.83,1.54-2.75,2.32-1.85,1.75-2.94,2.67a19.23,19.23,0,0,1-3.8,2.61A12.87,12.87,0,0,1,87.06,135a18.81,18.81,0,0,1-4.53-.29,61.35,61.35,0,0,0-7.3-1.26c-2.15-.1-4.62.56-7.33,1a14.74,14.74,0,0,1-4.31.1,10,10,0,0,1-4.23-1.51,6.44,6.44,0,0,1-2.76-3.81,8.55,8.55,0,0,1,.19-4.46c.75-2.68,2-5,2.23-7.22a11.86,11.86,0,0,0-5.81-11.48,20.57,20.57,0,0,1-3.67-2.17,6.43,6.43,0,0,1-1.85-2.53,6.5,6.5,0,0,1-.4-3.31,10.24,10.24,0,0,1,2.28-4.88,18.42,18.42,0,0,1,1.54-1.72c.27-.27.54-.52.81-.77l.72-.65a65.58,65.58,0,0,1,12.88-9.56c1.23-.65,2.5-1.23,3.79-1.77s2.62-1,3.91-1.32c2.58-.74,5.1-1.28,7.52-1.89a34.27,34.27,0,0,0,6.93-2.35,74.87,74.87,0,0,0,6.54-4,22.86,22.86,0,0,1,3.59-1.83,13.28,13.28,0,0,1,4-.88,18.08,18.08,0,0,1,4,.23C107,66.91,108.3,67.18,109.56,67.45Z"/><path d="M127.86,132.61c-1.07.73-2.08,1.56-3.23,2.27a11.57,11.57,0,0,1-3.82,1.45c-1.32.28-2.64.48-3.8.84a6.36,6.36,0,0,0-2.8,1.61,2.81,2.81,0,0,0-.38.51,3,3,0,0,0-.25.59,5.32,5.32,0,0,0-.34,1.39,7.32,7.32,0,0,0,.34,2.87,10.14,10.14,0,0,0,1.38,2.75,13.78,13.78,0,0,0,2.25,2.37,35,35,0,0,0,6.24,4,24,24,0,0,0,7,2.83,12.43,12.43,0,0,0,7.25-1.17c2.36-1,4.62-2.39,7.22-3.37,5.1-2,10.32-2.79,13.56-5.7a8.25,8.25,0,0,0,1.82-2.34.85.85,0,0,0,.1-.27.71.71,0,0,0,0,.42c0,.12,0,.08-.08,0s-.31-.3-.46-.46c-1.33-1.19-3.46-1.85-6.13-2.87a13,13,0,0,1-7-5.81,14.47,14.47,0,0,0-1.92-2.57,9.28,9.28,0,0,0-2.73-1.71,10.36,10.36,0,0,0-3.43-.77,14.3,14.3,0,0,0-3.73.23A19.47,19.47,0,0,0,127.86,132.61Zm-.28-.42a39.6,39.6,0,0,1,7-3.83,16.57,16.57,0,0,1,8.33-1.4,12,12,0,0,1,4.38,1.47,13.85,13.85,0,0,1,3.38,3.15,13.28,13.28,0,0,0,2.26,2.36,12.69,12.69,0,0,0,2.81,1.37c1.11.42,2.39.82,3.76,1.42a13,13,0,0,1,4,2.66c.29.32.57.6.86,1a5.34,5.34,0,0,1,.91,1.64,4.4,4.4,0,0,1,.08,2.35,6.15,6.15,0,0,1-.64,1.54,12.62,12.62,0,0,1-3.23,3.6,19.46,19.46,0,0,1-8,3.42c-2.7.57-5.29.72-7.75,1.24a56.6,56.6,0,0,0-7.39,2.34,27,27,0,0,1-3.93,1,14.73,14.73,0,0,1-4.14.13,42.93,42.93,0,0,1-7.88-1.87,29.11,29.11,0,0,1-7.66-3.18,13.29,13.29,0,0,1-3.37-3.06,11.67,11.67,0,0,1-2.06-4.25,10.84,10.84,0,0,1-.31-2.42,9.49,9.49,0,0,1,.34-2.47,7.8,7.8,0,0,1,1-2.26,6.47,6.47,0,0,1,.83-1,6.21,6.21,0,0,1,1-.84,9,9,0,0,1,4.41-1.26c1.43-.06,2.72.09,4,.06a8.12,8.12,0,0,0,3.64-.78A27.52,27.52,0,0,0,127.58,132.19Z"/><path d="M181.39,156.92c-.75-3-4.6-3.2-6.56-2.39a2.1,2.1,0,0,0-.54.35c-.06.11-.18.23-.26.39a3.92,3.92,0,0,0-.44,1,9.56,9.56,0,0,0-.24,1.47c-.06.57-.1,1.17-.12,1.77a8.84,8.84,0,0,0,.4,3.4,2.19,2.19,0,0,0,1,1.16,15.47,15.47,0,0,0,1.93.89,5.23,5.23,0,0,1,2.06,1.51,3.34,3.34,0,0,1,.56,1.29c.09.43.13.81.18,1.14a2.27,2.27,0,0,0,.23.78.59.59,0,0,0,.36.26,3.44,3.44,0,0,0,1.48-.09c1.38-.27,2.83-.6,4.24-.82s2.91-.37,4.21-.55a7.5,7.5,0,0,0,1.61-.38c.41-.16.53-.32.52-.36a3.91,3.91,0,0,0,.11-.59c0-.22,0-.41,0-.68v-.39l0-.23a2.86,2.86,0,0,0-.29-.91c-.13-.25-.23-.33-.26-.42s-.38-.2-1.15-.18a11.24,11.24,0,0,1-1.37,0,4.73,4.73,0,0,1-1.69-.5,5.58,5.58,0,0,1-1.93-1.94c-.2-.29-.38-.55-.56-.78a2.37,2.37,0,0,0-.7-.55,3.57,3.57,0,0,1-1.07-.74,7.63,7.63,0,0,1-.67-1A18.25,18.25,0,0,1,181.39,156.92Zm.45-.22a7.63,7.63,0,0,0,1.17,1.73,4,4,0,0,0,.74.65,1.83,1.83,0,0,0,.83.21,4.77,4.77,0,0,1,1.25.34,9.55,9.55,0,0,1,1.11.57,2.63,2.63,0,0,0,1.56.52,2.58,2.58,0,0,0,.41-.18,7.29,7.29,0,0,1,.76-.32,6.87,6.87,0,0,1,1.25-.36,5,5,0,0,1,1.85,0,5.58,5.58,0,0,1,3.18,2,7,7,0,0,1,1.4,3,5.79,5.79,0,0,1,.12.82l0,.69a8.22,8.22,0,0,1-.06,1.47A6.17,6.17,0,0,1,196,171.2a6,6,0,0,1-3.13,1.76,12.41,12.41,0,0,1-2.63.28c-1.56,0-2.91,0-4.38-.16s-2.86-.3-4.33-.45a5.57,5.57,0,0,1-2.69-.86,2.7,2.7,0,0,1-1-1.37,4.84,4.84,0,0,1-.17-1.33,2.81,2.81,0,0,0-.28-1.67,2.71,2.71,0,0,0-1.43-.89c-.6-.19-1.33-.29-2.13-.5a5.19,5.19,0,0,1-2.4-1.39,9.18,9.18,0,0,1-2.34-4.63,10.52,10.52,0,0,1-.21-2.51,7.86,7.86,0,0,1,.57-2.74,5.82,5.82,0,0,1,1.94-2.48,5.26,5.26,0,0,1,1.54-.75,5.32,5.32,0,0,1,1.55-.15,9.57,9.57,0,0,1,4.62,1.79,7.56,7.56,0,0,1,1.73,1.56A10.37,10.37,0,0,1,181.84,156.7Z"/><path d="M197.58,183.92a3.79,3.79,0,0,0-1.42-1.2,6,6,0,0,0-1.83-.52l-.42-.06a.32.32,0,0,0-.23.06c0,.05,0,.11.14.18a1.1,1.1,0,0,0,.75,0,1.4,1.4,0,0,0,.54-.33l-.1.12a3.54,3.54,0,0,1-.53.6c-.36.34-.76.54-1,.84a1.15,1.15,0,0,0-.23,1.26,4.13,4.13,0,0,0,2.69,2c.59.21,1.19.36,1.74.56s1.08.43,1.57.62.77.12.62,0a.45.45,0,0,0-.36,0,1.21,1.21,0,0,0-.58.62c-.17.32-.11.64-.06.64a.05.05,0,0,0,0,0s0,0,0-.06a.37.37,0,0,0,0-.2c0-.34,0-.93-.09-1.57a9.66,9.66,0,0,0-.34-2A5.52,5.52,0,0,0,197.58,183.92Zm.4-.29a4.7,4.7,0,0,0,1.51,1.11c.61.3,1.31.53,2,.88a4.6,4.6,0,0,1,1.84,1.57,3.11,3.11,0,0,1,.35.66c.05.12.1.24.15.38l.12.47a3.81,3.81,0,0,1-2.18,4.3,4.3,4.3,0,0,1-2.15.37,5.27,5.27,0,0,1-2.82-1.22,10.13,10.13,0,0,1-1.51-1.41,13.39,13.39,0,0,1-1.16-1.73,17.73,17.73,0,0,0-1.06-1.71l-1.25-1.63a5.63,5.63,0,0,1-1.12-2.26,5.37,5.37,0,0,1,.13-2.64,5.26,5.26,0,0,1,.4-1,3.32,3.32,0,0,1,.44-.64,2.87,2.87,0,0,1,1.26-.88,2.75,2.75,0,0,1,1.66-.09,3,3,0,0,1,1,.51,2.58,2.58,0,0,1,.54.57c.11.17.2.35.29.52a15.86,15.86,0,0,1,.73,2.13A5.21,5.21,0,0,0,198,183.63Z"/><path d="M212.81,192.12c-.53.38-.82,1-1.51,1.58a7.75,7.75,0,0,1-2.36,1.14,6.41,6.41,0,0,0-.89.33c-.14,0-.13.12.17.08a1.35,1.35,0,0,0,.5-.2,1.41,1.41,0,0,0,.27-.23c.32-.35.11-.45,0-.27s-.09.66.22,1.16a3.68,3.68,0,0,0,1.29,1.34,4.25,4.25,0,0,0,3.62.26,15.05,15.05,0,0,0,1.66-.72c.51-.21.77-.5.48-.41-.14,0-.26.22-.29.18a1.2,1.2,0,0,1-.06-.47,12.1,12.1,0,0,1,.06-2c.05-.33.05-.48.11-.43s.19.28.29.26.15-.1.13-.25a1,1,0,0,0-.06-.26,1.08,1.08,0,0,0-.25-.29,4,4,0,0,0-1.62-1A2.09,2.09,0,0,0,212.81,192.12Zm-.31-.39a12.51,12.51,0,0,1,1.92-1.15,10.1,10.1,0,0,1,2.36-.93,4.87,4.87,0,0,1,.72-.09,4.3,4.3,0,0,1,.87.1,3.73,3.73,0,0,1,1.72.94,4.12,4.12,0,0,1,1.11,2.06,6.6,6.6,0,0,1,.13,1.55,12.59,12.59,0,0,1-.17,2,7.33,7.33,0,0,1-.34,1.49,4.21,4.21,0,0,1-4.47,2.87A9,9,0,0,1,214,200c-1.47-.55-2.75-1.11-4.13-1.5-.69-.21-1.41-.33-2.21-.54a4.13,4.13,0,0,1-2.47-1.73,3.69,3.69,0,0,1-.54-1.87,3.4,3.4,0,0,1,.75-2.21,2.72,2.72,0,0,1,.62-.59,2.81,2.81,0,0,1,.93-.43,2.37,2.37,0,0,1,1.17,0,3.87,3.87,0,0,1,1.1.49,4.37,4.37,0,0,0,1.57.87A2.54,2.54,0,0,0,212.5,191.73Z"/><path d="M249,182.08a11.23,11.23,0,0,0-4.49,5.73,6,6,0,0,0,0,3.45,6.29,6.29,0,0,0,1.83,2.84c1.72,1.58,4,2.51,6.4,3.63a22.86,22.86,0,0,1,7,4.71,27.65,27.65,0,0,1,4.9,6.93,52.15,52.15,0,0,1,3.07,7.48l1.17,3.64a9.11,9.11,0,0,0,1,2.41,1.78,1.78,0,0,0,.42.46,1.85,1.85,0,0,0,.39.22c.09,0,0,0-.07.11s-.08.14,0,.11a5,5,0,0,0,.62-2.25,21.57,21.57,0,0,1,.89-4.3,16.88,16.88,0,0,1,2-4.07,20,20,0,0,1,2.75-3.35,30.32,30.32,0,0,1,6.61-4.91A38.83,38.83,0,0,1,287,203.1a34.18,34.18,0,0,1,3.73-1.51,14.89,14.89,0,0,1,4.15-.78,12,12,0,0,1,4.22.73,32.43,32.43,0,0,1,6.94,4.05c1.05.74,2.1,1.43,3.14,2a22.73,22.73,0,0,0,3.27,1.47,25.78,25.78,0,0,0,7.06,1.25,51.79,51.79,0,0,0,7.34-.29c1.24-.13,2.48-.28,3.74-.45l1.88-.24c.64-.09,1.28-.16,1.75-.26a2.9,2.9,0,0,0,1-.33c.18-.11.1-.13.05-.09s-.06,0-.07-.14a3.23,3.23,0,0,0-.13-.83,6.17,6.17,0,0,0-.44-1.17,13.1,13.1,0,0,0-.7-1.34,14.22,14.22,0,0,0-6.76-5.78,17.32,17.32,0,0,0-6.11-1.11c-2.27-.06-4.75.06-7.43.11a36,36,0,0,1-8.62-.76,31.62,31.62,0,0,1-8.09-3.3c-2.35-1.29-4.46-2.54-6.47-3.47a17.2,17.2,0,0,0-3-1.13l-.37-.12-.28-.07c-.17-.05-.4-.07-.62-.11q-.69-.08-1.56-.09c-1.16,0-2.49.07-4,0a17.53,17.53,0,0,1-2.38-.27,10.34,10.34,0,0,1-2.57-.89,13.76,13.76,0,0,1-3.56-3,34.74,34.74,0,0,0-2.5-2.65,7.18,7.18,0,0,0-1.3-.94c-.52-.29-1-.58-1.59-.83a18.47,18.47,0,0,0-3.45-1.18A18.08,18.08,0,0,0,249,182.08Zm-.46-.66a23.68,23.68,0,0,1,15.1-3.89,23.09,23.09,0,0,1,4,.61c.67.14,1.33.34,2,.55a10.5,10.5,0,0,1,2.06.91c1.29.74,2.39,1.59,3.4,2.29a9.32,9.32,0,0,0,2.73,1.46,7.16,7.16,0,0,0,2.59-.06c1.07-.17,2.28-.44,3.68-.66a19.18,19.18,0,0,1,2.28-.22,11.44,11.44,0,0,1,1.3,0l.67.06.58.08a23.33,23.33,0,0,1,4.39,1.13,74.18,74.18,0,0,1,7.34,3.32,27.06,27.06,0,0,0,6.2,2.31,32.41,32.41,0,0,0,6.69.5c2.46,0,5.11-.1,8,.13a25.55,25.55,0,0,1,8.86,2.14,21.78,21.78,0,0,1,10,9.57,18.43,18.43,0,0,1,1,2.13,12.64,12.64,0,0,1,.72,2.5,9.82,9.82,0,0,1,.1,3,7.16,7.16,0,0,1-1.39,3.43,6.76,6.76,0,0,1-3,2.18,9.69,9.69,0,0,1-2.72.56c-.81.07-1.45.06-2.09.08l-2,0c-1.31,0-2.64,0-4-.07a57.83,57.83,0,0,1-8-.82,33.08,33.08,0,0,1-7.84-2.47,25.68,25.68,0,0,1-3.56-2.08c-1.12-.77-2.14-1.6-3.15-2.39a24,24,0,0,0-6.17-3.95,8.64,8.64,0,0,0-3.31-.56,10.43,10.43,0,0,0-3.36.77,27.32,27.32,0,0,0-11.45,8.7,15.08,15.08,0,0,0-1.68,2.92,11.14,11.14,0,0,0-.91,3,19.59,19.59,0,0,0-.16,3.32,17.87,17.87,0,0,1-.15,2.29,8.35,8.35,0,0,1-.93,2.9,6.45,6.45,0,0,1-6.64,3.3,7.8,7.8,0,0,1-3.18-1.13,8.55,8.55,0,0,1-2.37-2.16,14.4,14.4,0,0,1-2.18-4.53c-.42-1.34-.72-2.5-1.08-3.73-1.39-4.8-2.63-9.44-5.12-13.24a18.68,18.68,0,0,0-4.88-5c-2-1.54-4.32-3-6.09-5.28a8.57,8.57,0,0,1-1.77-3.87,7.86,7.86,0,0,1,.47-4.12,11.16,11.16,0,0,1,2.11-3.41A15.3,15.3,0,0,1,248.51,181.42Z"/><path d="M505.91,199.35a8.14,8.14,0,0,0,.27-3.78c-.16-1.3-.48-2.59-.65-4a9.2,9.2,0,0,1,.36-4.4,14.26,14.26,0,0,1,2.48-3.66,6,6,0,0,0,.87-1.38,1.88,1.88,0,0,0,.15-.61l.06-.3c0-.1,0-.2,0-.3a5.47,5.47,0,0,0-.83-2.52c-1-1.94-2.7-4.07-3.85-7.1a10.88,10.88,0,0,1-.68-5.38,13.92,13.92,0,0,1,1.72-4.55,9.59,9.59,0,0,0,1.13-2.62,5.41,5.41,0,0,0-.37-2.77c-.39-1.1-1-2.29-1.52-3.6a13.59,13.59,0,0,1-1.21-4.41c0-.41,0-.82,0-1.22s.1-.75.15-1.07a3.5,3.5,0,0,0,0-1.47,2.77,2.77,0,0,0-2.1-1.76,5.14,5.14,0,0,0-3.25.4,21.3,21.3,0,0,0-3.3,1.92c-1.11.73-2.22,1.46-3.31,2.23s-2.19,1.53-3.27,2.32-2.23,1.57-3.12,2.31a9.57,9.57,0,0,0-2.18,2.4,2.72,2.72,0,0,0-.38,1,.88.88,0,0,0,.11.58,5.2,5.2,0,0,0,.52.75c.29.39.76.9,1.25,1.62a17.11,17.11,0,0,1,2.85,9.19,64.23,64.23,0,0,1-.34,8.4c-.09,1.28-.16,2.56-.2,3.7,0,.46.1.68,0,.28a1.77,1.77,0,0,0-.56-.68,1.44,1.44,0,0,0-.55-.27c-.24.05,1.71-.07,2.91-.14s2.65-.14,4-.19l2.23-.07,1.08,1.73a5.66,5.66,0,0,1,.82,3,6,6,0,0,1-.62,2.45,11.38,11.38,0,0,1-1.72,2.49c-.49.58-.95,1.05-1.09,1.26a2.8,2.8,0,0,0-.51,1,6.52,6.52,0,0,0-.07,3.09,18.54,18.54,0,0,0,1.16,3.81c.25.64.56,1.33.86,1.93a6.49,6.49,0,0,0,1,1.54,7.31,7.31,0,0,0,3.23,2.15,5.32,5.32,0,0,0,3.88-.23A5.52,5.52,0,0,0,505.91,199.35Zm.66.24a7,7,0,0,1-2.78,3.69,7.25,7.25,0,0,1-4.68,1,10.77,10.77,0,0,1-4.62-1.7,10.2,10.2,0,0,1-2-1.7c-.54-.61-1-1.17-1.52-1.8a21,21,0,0,1-2.66-4.14,11.11,11.11,0,0,1-1.17-5.6,8.59,8.59,0,0,1,.84-3.21,15.27,15.27,0,0,1,1.45-2.36,5.51,5.51,0,0,0,.69-1.19c0-.06-.05,0-.08.33a1.65,1.65,0,0,0,.22.93l3.31,1.66c-1.32.16-2.64.29-4,.41l-2,.19a10.27,10.27,0,0,1-3.06-.1,6,6,0,0,1-2.36-1,5.55,5.55,0,0,1-1.79-2.22,7.81,7.81,0,0,1-.59-3.64c.07-1.51.24-2.88.42-4.24a74.45,74.45,0,0,0,.84-7.5,11.54,11.54,0,0,0-1.21-6c-.21-.42-.59-.93-1-1.65a7.51,7.51,0,0,1-1.13-2.85,6.57,6.57,0,0,1,.3-3.36,7.74,7.74,0,0,1,1.52-2.46c2.38-2.58,5.15-3.53,7.46-4.69,1.2-.57,2.4-1.16,3.59-1.76s2.38-1.21,3.55-1.84a35,35,0,0,1,3.73-1.83,7.9,7.9,0,0,1,4.55-.49,6.57,6.57,0,0,1,2.21,1,4.74,4.74,0,0,1,1.63,2.06,6.29,6.29,0,0,1,.32,2.47,5.8,5.8,0,0,0,.13,1.69,9.73,9.73,0,0,0,1.53,3c.72,1,1.58,2.08,2.37,3.36a9.85,9.85,0,0,1,1.64,4.87,11.87,11.87,0,0,1-1.05,5c-1.12,2.76-1.18,3.27-.54,5.38s2,4.29,2.91,7.34a9.63,9.63,0,0,1,.12,5.27c-.08.22-.14.46-.23.67l-.33.62a5.55,5.55,0,0,1-.75,1.15,9.84,9.84,0,0,1-1.78,1.6,11.75,11.75,0,0,0-2.77,2.29,6.25,6.25,0,0,0-1,3.37C506.73,194.07,507.51,196.89,506.57,199.59Z"/><path d="M525.8,279.47c-1.89.72-3.42,2.26-5.44,3.19a8.49,8.49,0,0,1-1.58.57l-1.6.32c-1,.18-2.1.37-3.18.51a18,18,0,0,1-6.79-.21,12.12,12.12,0,0,1-3.36-1.45c-1-.59-1.85-1.17-2.6-1.53a2,2,0,0,0-1.59-.27,1.41,1.41,0,0,0-.62.67,4,4,0,0,0-.44,1.64,4.78,4.78,0,0,0,0,.93,7,7,0,0,0,.22.92c.44,1.47,1.45,3.18,2.38,5.37a15.12,15.12,0,0,1,1.08,3.72,13.55,13.55,0,0,1-3.27,11,26.9,26.9,0,0,1-5.42,4.19,10,10,0,0,0-3.83,3.86,8.45,8.45,0,0,0-.62,5.4,7.9,7.9,0,0,0,1,2.59A9.09,9.09,0,0,0,491,322c.32.35.71.71,1.08,1.08,1.49,1.45,3.05,2.87,4.64,4.24s3.19,2.73,4.84,4c.82.65,1.65,1.29,2.48,1.87.41.3.84.58,1.21.81l.26.15c.19.12-.07-.09-.24-.09h.55a74.34,74.34,0,0,0,12.18-.47,15,15,0,0,0,4.94-1.53,17.78,17.78,0,0,0,4-3.49,30.3,30.3,0,0,1,5.19-4.8,33.92,33.92,0,0,1,6.39-2.94,16.45,16.45,0,0,0,2.26-1.11,6.88,6.88,0,0,0,1.61-1.34,11.68,11.68,0,0,0,2.35-4.08,28.4,28.4,0,0,0,1.31-5.36,52.89,52.89,0,0,0,.55-5.79,20.6,20.6,0,0,0-.4-5.29,10.82,10.82,0,0,0-.82-2.3,10.09,10.09,0,0,0-.62-1.07,15.77,15.77,0,0,1-1-1.53c-1.21-2.07-1.89-4.1-2.78-5.84a10.14,10.14,0,0,0-1.54-2.33,15,15,0,0,0-2.27-1.91,24.45,24.45,0,0,0-5.43-2.91C529.8,279.3,527.68,278.76,525.8,279.47Zm-.24-.66a6.91,6.91,0,0,1,3.27-.39A17.94,17.94,0,0,1,532,279a38.24,38.24,0,0,1,6.07,2.26,21.27,21.27,0,0,1,2.95,1.64,13.53,13.53,0,0,1,2.56,2.44c1.45,1.76,2.61,3.55,3.89,4.89a11.74,11.74,0,0,0,1,.92,16.25,16.25,0,0,1,1.32,1.41,14.45,14.45,0,0,1,2,3.33,21.76,21.76,0,0,1,1.59,7.13,44,44,0,0,1-.16,6.81,31.46,31.46,0,0,1-1.42,7,19.59,19.59,0,0,1-1.55,3.5,15.38,15.38,0,0,1-2.39,3.27,15.09,15.09,0,0,1-3.29,2.6,20.73,20.73,0,0,1-3.47,1.53,30.19,30.19,0,0,0-5.21,2,25.09,25.09,0,0,0-4.25,3.54,22.26,22.26,0,0,1-5.86,4.36,18.76,18.76,0,0,1-7.22,1.61,38.8,38.8,0,0,1-6.7-.35c-2.16-.27-4.26-.63-6.34-1l-.39-.06-.19,0h-.1l-.32-.08a2.91,2.91,0,0,1-.94-.46l-.39-.3c-.47-.4-.87-.76-1.27-1.14l-2.3-2.26c-1.5-1.51-3-3-4.49-4.5s-3-3-4.51-4.46l-1.14-1.17a10.6,10.6,0,0,1-1.09-1.39,11.41,11.41,0,0,1-1.42-3.19,12.15,12.15,0,0,1,.15-7,10.61,10.61,0,0,1,1.71-3.24,22.39,22.39,0,0,1,2.34-2.56,23.19,23.19,0,0,0,3.95-4.24,9.36,9.36,0,0,0,1.16-6.88,11.52,11.52,0,0,0-.81-2.29,37,37,0,0,1-2.61-6.21,9.68,9.68,0,0,1-.33-2.19,10.29,10.29,0,0,1,.17-2.22,9,9,0,0,1,1.92-4.15,6.87,6.87,0,0,1,2.05-1.65,6,6,0,0,1,2.67-.66,6.27,6.27,0,0,1,2.48.5,8,8,0,0,1,1.84,1.08,27.17,27.17,0,0,1,2.45,2.27,8.64,8.64,0,0,0,2.15,1.58,13.63,13.63,0,0,0,5.67,1.32c1,0,2.06,0,3.11,0a14.67,14.67,0,0,0,1.53-.11,7.31,7.31,0,0,0,1.43-.36,14.48,14.48,0,0,0,2.72-1.43A15.82,15.82,0,0,1,525.56,278.81Z"/><path d="M522.23,426.48a2.51,2.51,0,0,0-.87-1.77,6.56,6.56,0,0,0-1.87-1.09,18.78,18.78,0,0,0-4.4-1c-1.52-.21-3.05-.29-4.69-.53-.79-.09-1.84-.44-2.31-.46a6.61,6.61,0,0,0-1.78,0,3.91,3.91,0,0,0-1.39.46c-.33.22-.45.42-.41.53a4,4,0,0,1,.06.62,20.06,20.06,0,0,1,.07,2.51,7.18,7.18,0,0,1-.5,2.05,6.2,6.2,0,0,1-1.22,1.85,8.87,8.87,0,0,1-2.82,1.95c-.43.2-.82.36-1.19.51l-1,.36a5.12,5.12,0,0,0-1.1.6c-.27.22-.34.31-.36.09s-.11-.16-.15-.16,0,.16.14.38a19,19,0,0,1,1.66,2.21,6.11,6.11,0,0,1,.7,3.34,8.37,8.37,0,0,1-.74,2.85,11.56,11.56,0,0,1-1.4,2.28c-1,1.33-2.07,2.42-2.82,3.61a11.33,11.33,0,0,0-1.39,8.19,13.45,13.45,0,0,0,4.14,7.19,20.67,20.67,0,0,0,14.79,5.29,16.27,16.27,0,0,0,7.15-2.14,9,9,0,0,0,4.17-4.84,24.57,24.57,0,0,0,1.31-7.71,51,51,0,0,0-.32-8.52c-.1-.72-.2-1.44-.34-2.16s-.33-1.58-.46-2.37a46.54,46.54,0,0,1-.55-4.79C522.18,432.65,522.26,429.56,522.23,426.48Zm.7,0a31.75,31.75,0,0,0,1.32,9,25.12,25.12,0,0,0,1.73,4.14c.34.68.7,1.27,1.09,2s.78,1.45,1.13,2.2a29.32,29.32,0,0,1,2.64,9.65,31.35,31.35,0,0,1,0,5.13,21.83,21.83,0,0,1-1.09,5.36,15.72,15.72,0,0,1-3,5.16,15.9,15.9,0,0,1-4.7,3.55A22,22,0,0,1,511.5,475a23,23,0,0,1-10.15-2.62,21.91,21.91,0,0,1-7.64-6.81c-3.93-5.56-4.92-13-1.78-19,.79-1.48,1.73-2.75,2.37-4a7.05,7.05,0,0,0,.67-1.83,4.33,4.33,0,0,0,0-1.68,1.81,1.81,0,0,0-.56-1c-.19-.18-.71-.5-1.49-1.15a5.38,5.38,0,0,1-1.24-1.46,5,5,0,0,1-.65-2.38,5.32,5.32,0,0,1,.51-2.32,7.05,7.05,0,0,1,1.09-1.65,9.24,9.24,0,0,1,2.64-2.05c.51-.26.8-.4,1.17-.57s.65-.3.9-.44a4.37,4.37,0,0,0,1-.63c.09-.14,0,.09.13-.24s.06-1.05.13-2.1a6.73,6.73,0,0,1,1.41-3.7,6,6,0,0,1,3.34-2,8.09,8.09,0,0,1,3.16-.09,10.48,10.48,0,0,1,2.75.85c1,.47,1.32.8,2,1.11,1.31.64,2.8,1.19,4.25,1.75a40.56,40.56,0,0,1,4.36,1.87,8.44,8.44,0,0,1,2,1.4,4.25,4.25,0,0,1,.75,1A3.11,3.11,0,0,1,522.93,426.47Z"/><path d="M449.7,472.67c-2-2.06-4.69-3.4-6.89-5.53s-3.93-4.56-5.93-6.6a15.68,15.68,0,0,0-3.2-2.59,10.28,10.28,0,0,0-3.67-1.23,45.77,45.77,0,0,1-4.53-.79,16,16,0,0,1-4.69-2.19,50.43,50.43,0,0,1-6.92-6.23,31.58,31.58,0,0,0-2.95-2.65,26.69,26.69,0,0,0-3.26-2.1c-1.22-.73-2.57-1.45-4-2.42a16.37,16.37,0,0,1-4.07-3.84,11.37,11.37,0,0,1-1.47-2.86,10.63,10.63,0,0,1-.58-3.11,29.28,29.28,0,0,1,.37-4.87c.29-2.72.18-3.61-1.43-4.84a6.25,6.25,0,0,0-2.9-1.06,9.59,9.59,0,0,0-3.53.35,20.83,20.83,0,0,0-3.76,1.49c-.62.32-1.29.67-1.88,1a17.85,17.85,0,0,0-1.73,1.07,9.74,9.74,0,0,0-2.67,2.69,3.44,3.44,0,0,0-.36,3.08,11.62,11.62,0,0,0,2.4,3.16,10.88,10.88,0,0,1,1.46,2,10.16,10.16,0,0,1,.94,2.33c.83,3.22.4,6.29.35,9.19-.28,5.89-.32,11.79-.38,17.7a27.15,27.15,0,0,1-1.39,9.57c-.3.77-.57,1.41-.7,1.91a2.42,2.42,0,0,0-.09,1.12,3.94,3.94,0,0,0,1.14,2.09,14.87,14.87,0,0,0,2.68,2.2c1.14.75,2.47,1.55,3.85,2.6a13.66,13.66,0,0,1,3.9,4.42,10.64,10.64,0,0,1,1.07,3.11,23.56,23.56,0,0,1,.32,2.63,11.14,11.14,0,0,0,.61,3.34,11.32,11.32,0,0,0,1.57,2.83,15.43,15.43,0,0,0,5.34,4.41c4.32,2.25,9.89,3.26,15.54,4.2a146.19,146.19,0,0,0,17,1.75c1.43.07,2.86.14,4.29.17l1.69.06c.09,0,0,0-.18.17s-.37.41-.34.43.11-.11.23-.38l.5-1.11a18.68,18.68,0,0,1,1.18-2.22,38.28,38.28,0,0,1,2.7-3.9c1.87-2.43,3.83-4.58,5.44-6.88a22.93,22.93,0,0,0,2.08-3.56,14.65,14.65,0,0,0,1.05-3.95,23.15,23.15,0,0,0-.46-8.52A17.16,17.16,0,0,0,449.7,472.67Zm.58-.56a15.61,15.61,0,0,1,2.6,3.71,24.93,24.93,0,0,1,1.73,4.17,31.56,31.56,0,0,1,1.51,9,17.77,17.77,0,0,1-.53,4.72,25.68,25.68,0,0,1-1.6,4.46c-1.3,2.82-2.85,5.42-4.15,7.95a36.38,36.38,0,0,0-1.73,3.74,18.39,18.39,0,0,0-.6,1.82l-.27,1a7.8,7.8,0,0,1-.65,1.64,5.42,5.42,0,0,1-1.84,2,6.5,6.5,0,0,1-2.25.9,14.6,14.6,0,0,1-1.58.22l-1.13.1c-1.52.11-3,.21-4.55.25a109.86,109.86,0,0,1-18.21-1c-3-.45-6-1-9.08-1.73a36,36,0,0,1-9.23-3.6,23.49,23.49,0,0,1-7.84-7.13,18.22,18.22,0,0,1-2.42-5,16.41,16.41,0,0,1-.6-2.8,23,23,0,0,1-.16-2.55c0-.72-.05-1.32-.11-1.77a3.48,3.48,0,0,0-.28-1.07,7,7,0,0,0-1.82-2.22c-.92-.81-2.06-1.62-3.32-2.57a17.79,17.79,0,0,1-3.79-3.77,9.92,9.92,0,0,1-2.09-6,8.42,8.42,0,0,1,.72-3.2c.38-.88.78-1.56,1.07-2.13a22.35,22.35,0,0,0,2-7.67c.75-5.85,1.51-11.71,2-17.57.28-2.95.69-5.85,0-8.39a7.19,7.19,0,0,0-.7-1.76,8.6,8.6,0,0,0-1.18-1.55,14.62,14.62,0,0,1-3-3.79,5.93,5.93,0,0,1-.51-2.77,6.79,6.79,0,0,1,.73-2.66,13.44,13.44,0,0,1,3.13-3.89,21.8,21.8,0,0,1,1.86-1.5c.64-.47,1.24-.88,1.89-1.32A28.84,28.84,0,0,1,388.6,416a14.17,14.17,0,0,1,5.12-1.24,11.56,11.56,0,0,1,5.56,1.14,9.19,9.19,0,0,1,4.43,4.52,12.92,12.92,0,0,1,.91,5.73,29.85,29.85,0,0,0-.05,3.95,3.91,3.91,0,0,0,.29,1.2,4.7,4.7,0,0,0,.58,1c1,1.4,3.34,2.81,5.92,4.41a29.81,29.81,0,0,1,4,2.94,31.94,31.94,0,0,1,3.29,3.6c1.93,2.39,3.46,4.75,5.31,6.48a12,12,0,0,0,3,2.14,41.63,41.63,0,0,0,4,1.46,13.6,13.6,0,0,1,4.33,2.41,19.91,19.91,0,0,1,3.17,3.49c1.79,2.46,3.22,5,5.16,7.15a24.27,24.27,0,0,0,3.26,2.86A27.26,27.26,0,0,1,450.28,472.11Z"/><path d="M260.36,480.24a17.21,17.21,0,0,0-9.36,1.93,53.8,53.8,0,0,0-8.11,5.38,32.72,32.72,0,0,0-3.39,2.94,15.59,15.59,0,0,0-1.34,1.51,18.75,18.75,0,0,0-1.18,1.63,40.47,40.47,0,0,0-3.77,7.81c-.56,1.44-1.1,2.94-1.65,4.48l-.42,1.15-.38,1.11a14.75,14.75,0,0,0-.55,2,5.5,5.5,0,0,0,.44,3.68,11.56,11.56,0,0,0,3.07,3.22l3.95,3.06a32.37,32.37,0,0,0,4,2.67,34.57,34.57,0,0,0,8.91,3.4,41.63,41.63,0,0,0,9.17,1.15c2.92,0,5.67-.44,7.58-1.64a9.08,9.08,0,0,0,3.83-5.52,41.8,41.8,0,0,0,1.19-8.61c.2-3.2.41-6.56.75-9.83l.12-1.1c0-.33,0-.64.08-1a11.13,11.13,0,0,0-1.12-5.71c-.62-1.43-1.39-3-2-4.59a32.7,32.7,0,0,0-2.1-4.37,10,10,0,0,0-3.19-3.35A10.75,10.75,0,0,0,260.36,480.24Zm.08-.79a14.19,14.19,0,0,1,9.26,4.26c1.26,1.21,2.41,2.52,3.53,3.76s2.22,2.34,3.41,3.67a21.85,21.85,0,0,1,1.74,2.23,13.4,13.4,0,0,1,1.43,2.77,15.08,15.08,0,0,1,.8,3.05c.06.5.14,1,.16,1.51l.05.74,0,.63c.1,3.33.11,6.57.05,9.95a34.22,34.22,0,0,1-1.81,10.9A19.32,19.32,0,0,1,276,528.4a15.24,15.24,0,0,1-5.16,4.06,17.19,17.19,0,0,1-6,1.6,20.76,20.76,0,0,1-5.71-.27c-.91-.15-1.8-.36-2.67-.58s-1.71-.53-2.54-.81a46.85,46.85,0,0,1-4.83-2,65.12,65.12,0,0,1-8.86-5.24q-2.09-1.47-4.07-3a44.2,44.2,0,0,0-4-2.88,19.38,19.38,0,0,1-4.22-3.4,9.81,9.81,0,0,1-2.18-5.67,17.19,17.19,0,0,1,0-2.87c0-.49.07-.92.11-1.32l.12-1.26a46.26,46.26,0,0,1,.77-5.12,25,25,0,0,1,4.44-10.1,18.08,18.08,0,0,1,4.29-4,24.31,24.31,0,0,1,4.93-2.4,77.35,77.35,0,0,1,9.89-2.81A34.06,34.06,0,0,1,260.44,479.45Z"/><path d="M204.18,493.62a1.23,1.23,0,0,0-1.14-.12,2.43,2.43,0,0,0-1,.79c-.14.12-.26.33,0,.36a1.14,1.14,0,0,0,.54-.14c.14-.08.2-.12.21-.1a1.55,1.55,0,0,1-.6.73c-.59.42-1.62.79-2,1.48-.21.33-.15.64,0,.56a2.45,2.45,0,0,1,.48-.4,8.16,8.16,0,0,1,1-.6c.33-.18.62-.28.86-.42.51-.27.72-.59,1-.68a.69.69,0,0,1,.38,0,5,5,0,0,1,.15.61,1.37,1.37,0,0,0,.32.56.54.54,0,0,0,.4.17c.22,0,.16-.31,0-.61a4.15,4.15,0,0,1-.23-.55,2.53,2.53,0,0,1-.09-.5C204.39,494.14,204.48,493.84,204.18,493.62Zm.28-.41c.42.22.76.75,1.12.86a.39.39,0,0,0,.26,0,.71.71,0,0,1,.22-.15,1.19,1.19,0,0,1,1,.1,2.19,2.19,0,0,1,.75.67,2.45,2.45,0,0,1,.43,1.15,3.67,3.67,0,0,1-.24,1.74,4.52,4.52,0,0,1-1.26,1.74,5.08,5.08,0,0,1-3.49,1.11,4.91,4.91,0,0,1-1.56-.23,4.28,4.28,0,0,1-.69-.31l-.72-.4a5.32,5.32,0,0,1-.84-.56,2.26,2.26,0,0,1-.74-.94,3.43,3.43,0,0,1,0-1.81c.08-.86-.33-2-.16-3a2.5,2.5,0,0,1,.66-1.34,4,4,0,0,1,.61-.56,2.53,2.53,0,0,1,1.06-.43,1.75,1.75,0,0,1,1.24.25,6.11,6.11,0,0,1,1.35,1.19A5.09,5.09,0,0,0,204.46,493.21Z"/><path d="M188.93,495.32a1.16,1.16,0,0,0-.29,1.05,2.89,2.89,0,0,0,.57,1.15,4.76,4.76,0,0,1,.53.73.39.39,0,0,1,0,.14s0,.14,0,0a1.86,1.86,0,0,0-.55-.89,1.39,1.39,0,0,0-1-.41c-.15,0,0,.09.07.13l.28.18.56.4a3.47,3.47,0,0,0,1.09.59c.72.16,1.14-.27,1.34-1,.05-.18.1-.37.17-.56a2.94,2.94,0,0,0,.16-.53c0-.12-.06-.18-.19-.07a1.71,1.71,0,0,0-.3.53s0,0-.08,0-.05-.05-.07-.07-.09,0-.09.09.15.35.1.26a.81.81,0,0,0-.16-.2l-.15-.16c-.05-.05-.15-.15-.09-.15a.64.64,0,0,0,.07-.73A1.37,1.37,0,0,0,190,495,1.13,1.13,0,0,0,188.93,495.32Zm-.37-.34a6.59,6.59,0,0,0,.75-1.12,4.16,4.16,0,0,1,1.23-1.41,2.83,2.83,0,0,1,2.28-.37c.23.07.29.07.41.1s.23.06.35.11a3.87,3.87,0,0,1,2.34,2.38,4.43,4.43,0,0,1,.22,1.18c0,.17,0,.35,0,.5l-.06.54a3.45,3.45,0,0,1-.61,1.6,2.42,2.42,0,0,1-.93.79,2.38,2.38,0,0,1-.7.19l-.73.13c-1,.18-2.08.26-2.89.39a3.53,3.53,0,0,0-1.17.57l-.57.38-.29.18a.85.85,0,0,1-.5.11,2.26,2.26,0,0,1-1.55-.63,2.67,2.67,0,0,1-.78-1.39,2.76,2.76,0,0,1-.07-.57,2.1,2.1,0,0,1,0-.43,2.6,2.6,0,0,1,.83-1.5,7.22,7.22,0,0,1,1.4-.95A3.61,3.61,0,0,0,188.56,495Z"/><path d="M194.85,514.26a3.9,3.9,0,0,0-.77-1.86,1.81,1.81,0,0,0-1.63-.56c-1.26.13-2.1,1-3.46,1.92a6.55,6.55,0,0,1-1.15.61,7.09,7.09,0,0,1-1.37.4,13.4,13.4,0,0,1-2.41.17c-.69,0-1.29,0-1.69,0a3.1,3.1,0,0,0-.74.15,3.15,3.15,0,0,0-.94,1.11,16.59,16.59,0,0,1-1.41,1.89,9.45,9.45,0,0,0-2.17,3.36,3.14,3.14,0,0,0,.8,3.22,2.22,2.22,0,0,0,1.53.37h1.11a6.42,6.42,0,0,1,1.3.16,7.55,7.55,0,0,1,2.51,1,8.82,8.82,0,0,1,2,1.78c.53.61.95,1.18,1.33,1.61a3.66,3.66,0,0,0,1,.85c.33.15.42.09.53,0a8.57,8.57,0,0,0,1.16-.52,21,21,0,0,1,2.19-.9,16.9,16.9,0,0,0,1.59-.65c.17-.06.3-.2.09,0a1.15,1.15,0,0,0-.2.39c0,.05,0,0,0-.07a8.09,8.09,0,0,0,.12-1.61c0-.65,0-1.39.1-2.26l.33-2.11a36.75,36.75,0,0,0,.53-4.31A17.44,17.44,0,0,0,194.85,514.26Zm.49-.11a42.19,42.19,0,0,0,1.18,4.19c.47,1.4,1,2.8,1.46,4.24.21.72.43,1.45.58,2.18.15.56.35,1.25.49,2a10,10,0,0,1,.18,2.68,4.77,4.77,0,0,1-.17,1,3.65,3.65,0,0,1-.69,1.34,5.69,5.69,0,0,1-1.61,1.34,15.28,15.28,0,0,1-2.36,1c-.72.25-1.4.45-1.84.62a8.88,8.88,0,0,1-2.92.75,5.36,5.36,0,0,1-1.95-.28,5.74,5.74,0,0,1-1.58-.82,7.73,7.73,0,0,1-2-2.16,17.44,17.44,0,0,1-1.07-2,10.19,10.19,0,0,0-.85-1.43A4.57,4.57,0,0,0,181,527.8a5.61,5.61,0,0,0-1.8-.63,4.71,4.71,0,0,1-2.39-1.23,4.76,4.76,0,0,1-1.17-2.31,7.27,7.27,0,0,1-.08-2.46,25.59,25.59,0,0,1,1.37-4.43,14.68,14.68,0,0,0,.56-1.93,5.85,5.85,0,0,1,1.19-2.6,5.13,5.13,0,0,1,3.07-1.67,9.46,9.46,0,0,1,2.6,0c.74.08,1.36.19,1.89.26a6.54,6.54,0,0,0,.75.07,4.8,4.8,0,0,0,.89-.06c.65-.08,1.41-.24,2.22-.35a6.79,6.79,0,0,1,2.54.14,3.3,3.3,0,0,1,2,1.43A6.58,6.58,0,0,1,195.34,514.15Z"/></svg>