<svg id="Layer_1" data-name="Layer 1" xmlns="http://www.w3.org/2000/svg" viewBox="0 0 600 600"><title>Cotedivoire</title><path d="M223.08,516.73l6.86-2.82,3.43-1.44,3.41-1.47c4.54-2,9.24-3.61,14-5.16,9.43-3.08,19-5.66,28.63-8.11s19.25-4.67,28.85-7.12,19.28-4.71,29-6.81,19.56-4,29.48-5.51,20-2.61,30.1-3.15,20.23-.47,30.26-.17q7.53.24,15,.62l7.45.39,7.42.47c9.87.63,19.65,1.23,29.36,1.55,4.85.17,9.67.24,14.48.25l7.15-.05a23.38,23.38,0,0,0,5.16-.49,3.84,3.84,0,0,0,1.07-.41c.18-.12.14-.16.25-.28s0-.14.09-.15,0-.16.1-.21.09-.2.12-.37a3.74,3.74,0,0,0,.13-.53,12.77,12.77,0,0,0,.11-3.69,25.63,25.63,0,0,0-1-4.88,25,25,0,0,0-.87-2.43c-.18-.38-.33-.82-.51-1.16l-.51-1a7,7,0,0,0-1.85-2.3,10.25,10.25,0,0,0-1.36-.87c-.67-.35-1.43-.72-2.44-1.16-2-.87-4.48-1.9-7-3.12l-1-.48-1.38-.76a22.48,22.48,0,0,1-2.7-1.74,27.29,27.29,0,0,1-2.51-2.07c-.76-.75-1.53-1.52-2.2-2.33a34.68,34.68,0,0,1-5.62-9.66c-1.18-3-2-5.61-2.68-7.78-.17-.51-.35-1.09-.51-1.54s-.34-1-.54-1.49c-.39-1-.8-2.09-1.24-3.16-1.72-4.29-3.8-8.88-5.73-14.05-1-2.58-1.87-5.3-2.63-8.15-.37-1.42-.73-2.86-1-4.34l-.22-1.11-.17-1-.34-2a124.34,124.34,0,0,1-.57-32.85A150.13,150.13,0,0,1,475.4,329c1.74-5.06,3.64-10,5.79-14.86,1-2.44,2.18-4.79,3.29-7.18s2.3-4.7,3.52-7c4.78-9.23,10-18,15.22-26.53l7.73-12.7,3.77-6.27,1.86-3.13c.38-.79.79-1.41,1.13-2.22a40.21,40.21,0,0,0,3.1-10.62,60.67,60.67,0,0,0,.55-11.92,51,51,0,0,0-1.81-11.38A63.16,63.16,0,0,0,515,204.38c-2-4.14-4.58-8.77-6.9-14.37a70.73,70.73,0,0,1-3.1-9.23c-.22-.83-.39-1.72-.58-2.58l-.26-1.3-.2-1.14c-.28-1.56-.46-3-.65-4.42-.35-2.83-.59-5.37-.86-7.74s-.49-4.53-.81-6.42a26.94,26.94,0,0,0-2.41-8.29,23.83,23.83,0,0,0-1.87-2.63,20.18,20.18,0,0,0-2.87-2.8,38.39,38.39,0,0,1-3.61-3c-1.23-1.21-2.43-2.74-3.88-4.11-2.86-2.86-6.76-4.27-10.73-5.54-1-.27-2-.56-3-.78l-3.11-.6c-2.09-.32-4.18-.69-6.31-.87a99.37,99.37,0,0,0-25.71.81c-4.24.67-8.48,1.36-12.62,2.39l-3.08.84c-1,.29-2,.65-3,1-2,.63-4.1,1.47-6.38,2.37a128.91,128.91,0,0,1-15.53,5.5,52.51,52.51,0,0,1-9.61,1.61,40.32,40.32,0,0,1-10.47-.64,42.69,42.69,0,0,1-9.76-3.32,47.7,47.7,0,0,1-8.17-5.12,66,66,0,0,1-12.16-12.65c-1.67-2.23-3.23-4.54-4.67-6.78s-2.74-4.42-4-6.56-2.53-4.24-3.79-6.24-2.51-4-3.8-5.77a46.35,46.35,0,0,0-8.43-9.38,32,32,0,0,0-4.82-3.16,35.61,35.61,0,0,0-5.45-2.13,36.66,36.66,0,0,0-17.64-.32A24.5,24.5,0,0,0,285,85.27c-1.51,1.1-3.1,2.45-4.82,4l-2.94,2.51c-.6.5-1.4.77-2,1.3s-1.22,1.14-1.89,1.73a24.63,24.63,0,0,1-5,3.65A15.36,15.36,0,0,1,258.5,100a15.86,15.86,0,0,1-6.34-2.6,16.59,16.59,0,0,1-2.48-2.07,17.72,17.72,0,0,1-1.8-2.13,23.25,23.25,0,0,1-3.44-7.29l-.39-1.49-.3-1.41c-.1-.45-.18-1-.26-1.49s-.13-1-.18-1.44c-.19-1.87-.24-3.45-.29-4.76s-.09-2.34-.19-3.07a6.94,6.94,0,0,0-.36-1.47A7.83,7.83,0,0,0,241,68.34,10.06,10.06,0,0,0,235.88,65a5.5,5.5,0,0,0-2.29-.09c-.12,0-1.11.14-1.59.26a4.31,4.31,0,0,0-1.21.42l-.16.09c-.06,0,0,.07-.07.09a.06.06,0,0,0,0,.11c.09,0,.28,0,.45,0,.35-.14.28,0-.07,1.13s-.84,2.92-1.46,5.32A69.45,69.45,0,0,1,226.71,81a40.07,40.07,0,0,1-6.54,11c-.82.89-1.6,1.81-2.52,2.64l-1.36,1.24c-.43.38-.8.67-1.21,1a48.18,48.18,0,0,1-4.83,3.42A60.49,60.49,0,0,1,201,104.9c-2.89,1.17-5.52,2.12-7.89,2.93a62.72,62.72,0,0,1-9.93,2.68,35.92,35.92,0,0,1-7.3.48,31.31,31.31,0,0,1-4.21-.43l-1.08-.19c-.39-.08-.84-.2-1.26-.3-.85-.22-1.69-.47-2.52-.74s-1.75-.69-2.61-1.08a19.51,19.51,0,0,1-2.55-1.35c-.83-.51-1.65-1.06-2.44-1.63s-1.45-1.19-2.14-1.82a30.68,30.68,0,0,1-5.69-7.25l-.47-.82-.37-.7-.7-1.39c-.35-.75-.77-1.64-1-2.2-.6-1.36-.95-2.13-1.22-2.65l-.14-.27c0-.06,0-.08,0-.07v0c0-.1.06.13.17.22s.17.25.27.35l.18.16c.06.06-.06,0-.07,0-.16-.15-.31-.29-.45-.45-.52-.47-.7-.46-.29-.34a3.74,3.74,0,0,0,1.62.08c.34-.08.09,0-.89-.1a39.75,39.75,0,0,0-11.4,1.36,23.87,23.87,0,0,0-6.6,3,43,43,0,0,0-5.48,4.76l-5.66,5.66c-2.24,2.07-4.42,3.7-6.25,5.19-.92.74-1.73,1.48-2.48,2.18a15.94,15.94,0,0,0-2,2.16,23.35,23.35,0,0,0-3,5.08A25.46,25.46,0,0,0,103,128.73a20.87,20.87,0,0,0,1,5.35,16.51,16.51,0,0,0,2.48,4.57,19.12,19.12,0,0,0,3.72,3.64,13.76,13.76,0,0,0,2.16,1.3c.11.07.13.06.17.06h.09l.31.07,1,.24,3.18.69a37.82,37.82,0,0,1,4.41,1.15,22.92,22.92,0,0,1,5.57,2.68,14.13,14.13,0,0,1,1.48,1.1l.73.61.62.61a22.23,22.23,0,0,1,2.29,2.59,28.4,28.4,0,0,1,3.07,5.35,39.59,39.59,0,0,1,1.74,4.81c.84,2.95,1.37,5.48,1.94,7.29l.21.64c.07.18.14.35.2.53l.17.6.25.93c.16.61.27,1.35.38,2a19.2,19.2,0,0,1-.94,9.08,23.17,23.17,0,0,1-3.79,6.61,44.22,44.22,0,0,1-3.39,3.65,29.08,29.08,0,0,0-3.13,3.31c-.1.18-.11.08-.12,0a.16.16,0,0,0-.1-.11s0,0,0,.07l0,.14a1.38,1.38,0,0,1-.08.27,5,5,0,0,0-.33,2.43,14.77,14.77,0,0,0,1.89,5c1.11,2.07,2.59,4.43,4.08,7.22a28.21,28.21,0,0,1,3.2,9.8c.08.47.06.82.1,1.2l.06,1.14c0,.82,0,1.58,0,2.51l0,.67c0,.23-.06.5-.09.75l-.11.76c0,.25-.13.58-.2.87s-.15.58-.25.88-.28.7-.44,1a7.4,7.4,0,0,1-.61,1.08,7.66,7.66,0,0,1-.85,1.09,11.06,11.06,0,0,1-1.14,1,10.13,10.13,0,0,1-1.33.75,6.65,6.65,0,0,1-1.32.45,7.49,7.49,0,0,1-1.23.22,11,11,0,0,1-3.66-.29,19.83,19.83,0,0,1-2.52-.79c-.76-.27-1.45-.55-2.12-.85l-7.27-3.24c-1.13-.49-2.24-.94-3.23-1.31l-.71-.24c-.2-.06-.43-.13-.61-.17a1.72,1.72,0,0,0-.44-.06H109a13.31,13.31,0,0,0-3.84.32,11.3,11.3,0,0,0-1.89.62,10.54,10.54,0,0,0-1.67,1,6.9,6.9,0,0,0-2.16,2.67,7,7,0,0,0-.53,1.7,7.92,7.92,0,0,0-.15,1.89,8.33,8.33,0,0,0,.88,3.58,8.15,8.15,0,0,0,.91,1.35c.26.26.52.54.78.82l.88.78c1.27,1.06,2.94,2.07,5.32,3.64a31.23,31.23,0,0,1,4,3.21l.53.51.53.6c.36.4.71.8,1,1.22a20.42,20.42,0,0,1,1.79,2.83c.25.5.5,1,.73,1.51s.36,1,.54,1.51a19.89,19.89,0,0,1,.74,2.95,20.57,20.57,0,0,1,.35,2.77,23.51,23.51,0,0,1,.09,2.63,33.84,33.84,0,0,1-1.66,9.9,36.65,36.65,0,0,1-10.72,16.23c-.64.54-1.32,1.06-2,1.58s-1.41,1-2.12,1.44-1.51.87-2.26,1.28-1.46.73-2.14,1c-2.77,1.23-5.26,2.06-7.32,2.87A22.29,22.29,0,0,0,85,305.19a4.47,4.47,0,0,0-1,.89c-.14.12-.17.27-.28.38a3.73,3.73,0,0,0-.16.35,5.42,5.42,0,0,0-.17,2.65,14.14,14.14,0,0,0,1.32,4.18,43.23,43.23,0,0,0,3.14,5.19c1.29,1.93,2.81,4.05,4.33,6.52.37.62.75,1.27,1.12,1.93.19.35.37.64.56,1l.59,1.22.56,1.23.45,1.22a23.83,23.83,0,0,1,.79,2.44,40.37,40.37,0,0,1-2.73,28.64,18.43,18.43,0,0,1-1.37,2.31l-.75,1.13-.88,1.11a18.93,18.93,0,0,1-1.91,2.13c-.69.68-1.46,1.42-2,1.86-2.45,2-4.75,3.51-6.7,4.84A38.78,38.78,0,0,0,75.29,380c-.32.3-.48.48-.67.69s-.37.45-.54.68a7.8,7.8,0,0,0-.78,1.42,4.22,4.22,0,0,0-.31,1c0,.23,0,.26-.06.18a.52.52,0,0,0-.14-.19s0,.1.34.25a5.53,5.53,0,0,0,1.26.45c.27.05.55.11.86.14a7,7,0,0,0,1,.05,41.41,41.41,0,0,0,6.07-.59c1.25-.17,2.61-.36,4.12-.49a39.8,39.8,0,0,1,4.78-.14,40.25,40.25,0,0,1,9.31,1.39,54.43,54.43,0,0,1,15.9,7.41,81.67,81.67,0,0,1,12.69,10.42,119.57,119.57,0,0,1,10.48,11.91c1.6,2.08,3.13,4.19,4.61,6.33.74,1.08,1.46,2.16,2.17,3.24s1.42,2.33,2.12,3.5c.33.59.69,1.17,1,1.78s.57,1.24.83,1.87c.54,1.26,1,2.54,1.46,3.83.72,2.65,1.41,5.28,1.86,7.94,1,5.26,2.3,10.31,2.93,15.49l.44,3.87.21,3.87c.09,1.29.08,2.58.07,3.86s0,2.58-.06,3.86a121.81,121.81,0,0,1-1.61,15.19A149.6,149.6,0,0,1,152.3,504c-.31,1.22-.7,2.41-1.06,3.62s-.71,2.39-1.13,3.61c-.82,2.41-1.74,4.74-2.66,7a115.8,115.8,0,0,0-4.8,13.79c-.28,1.15-.53,2.34-.7,3.47a15.73,15.73,0,0,0-.1,3.36,11.9,11.9,0,0,0,2.17,6.18,9.35,9.35,0,0,0,5.41,3.48,14.25,14.25,0,0,0,6.83-.17,30.42,30.42,0,0,0,3.39-1.18c1.13-.46,2.25-1,3.36-1.46,2.23-1,4.43-2.13,6.61-3.28,4.36-2.32,8.69-4.73,13.13-6.94,2.22-1.11,4.49-2.09,6.74-3.12l6.73-3.11,26.9-12.52Zm0,.08L196.7,530.36c-2.2,1.11-4.4,2.24-6.62,3.33s-4.47,2.13-6.61,3.27c-4.31,2.31-8.58,4.79-12.91,7.22-2.17,1.21-4.37,2.39-6.63,3.49-1.12.55-2.27,1.07-3.43,1.57a32.77,32.77,0,0,1-3.62,1.36,16.59,16.59,0,0,1-8,.37,11.73,11.73,0,0,1-6.92-4.26,14.45,14.45,0,0,1-2.83-7.49,17.48,17.48,0,0,1,0-4c.16-1.3.41-2.53.68-3.77a120.78,120.78,0,0,1,4.65-14.23c.85-2.32,1.69-4.63,2.41-7,.38-1.15.67-2.36,1-3.53s.68-2.37.95-3.57a142.25,142.25,0,0,0,2.85-14.44,118.25,118.25,0,0,0,1.07-14.68c0-1.23-.05-2.45-.07-3.68s-.06-2.45-.19-3.67l-.32-3.67-.53-3.64c-.15-1.22-.42-2.42-.67-3.62s-.46-2.41-.81-3.58l-1.05-3.53c-.34-1.18-.84-2.3-1.24-3.46-.79-2.33-1.93-4.5-2.91-6.74l-1.76-3.22c-.3-.54-.58-1.08-.89-1.61l-1-1.54-2-3.1c-.7-1-1.4-2-2.12-3q-2.16-3-4.47-5.88a116.5,116.5,0,0,0-9.9-10.93,77,77,0,0,0-11.43-9.27,45.57,45.57,0,0,0-13.29-6.16A31.68,31.68,0,0,0,91,392.68a40.33,40.33,0,0,0-7.34.55,50.8,50.8,0,0,1-7.4.71A16.06,16.06,0,0,1,69,392.32a9.39,9.39,0,0,1-4.86-5.5,11.22,11.22,0,0,1,.5-7.34,17.08,17.08,0,0,1,4.13-6.13,44.41,44.41,0,0,1,5.83-4.59c2-1.41,4.1-2.77,6-4.37a19.14,19.14,0,0,0,4.58-5.77,29.76,29.76,0,0,0,3.12-14.34,27,27,0,0,0-4.07-14.07c-2.55-4.23-5.69-8.11-7.82-12.59a22.81,22.81,0,0,1-2.11-7.07,14.38,14.38,0,0,1,.87-7.29,12.86,12.86,0,0,1,4.7-5.6,31.21,31.21,0,0,1,6.64-3.25c2.31-.88,4.66-1.66,6.93-2.65a23.74,23.74,0,0,0,6.29-3.88,27.68,27.68,0,0,0,8.16-12.17,24.7,24.7,0,0,0,1.28-7.28,15.39,15.39,0,0,0-1.4-7.2,14.55,14.55,0,0,0-5.11-5.26,62.68,62.68,0,0,1-6-4.34c-.47-.41-.9-.85-1.35-1.27L94,249a16.12,16.12,0,0,1-2-3.13,16.71,16.71,0,0,1-1.55-7.19,16.3,16.3,0,0,1,.43-3.68,15,15,0,0,1,6-9,16.54,16.54,0,0,1,14.13-2.45,15.69,15.69,0,0,1,3.37,1.52c1.08.6,2.13,1.25,3.18,1.9,2.11,1.3,4.2,2.63,6.41,3.74a17.59,17.59,0,0,0,3.44,1.36,5.66,5.66,0,0,0,1.83.16,2.48,2.48,0,0,0,1.64-.77,5.41,5.41,0,0,0,.93-3.51,18.85,18.85,0,0,0-.42-3.67,16.67,16.67,0,0,0-3.15-6.65c-1.48-2-3.2-3.77-4.85-5.61a32,32,0,0,1-4.45-5.91,15.79,15.79,0,0,1-2-7.06,11.59,11.59,0,0,1,1.79-7.07,30.78,30.78,0,0,1,4.92-5.53c1.75-1.71,3.59-3.49,4.47-5.83a7.69,7.69,0,0,0,.43-3.65c-.14-1.23-.59-2.4-.82-3.61-.53-2.42-.89-4.87-1.44-7.28a20.9,20.9,0,0,0-2.71-6.86,11.51,11.51,0,0,0-2.54-2.67,15.07,15.07,0,0,0-3.25-1.77c-2.3-.93-4.72-1.49-7-2.33a15.27,15.27,0,0,1-3.33-1.61,28,28,0,0,1-2.93-2.28,27.18,27.18,0,0,1-4.78-5.64,25.85,25.85,0,0,1-3-6.73,28.81,28.81,0,0,1-1-7.33A32.78,32.78,0,0,1,99,114.47a33.73,33.73,0,0,1,3.91-6.29,38.08,38.08,0,0,1,5.19-5.28c1.85-1.63,3.75-3.23,5.44-5s3.14-3.81,4.71-5.73c3.08-3.86,6.23-7.68,9.68-11.23a47.79,47.79,0,0,1,11.61-9.14,21,21,0,0,1,7-2.3,15.29,15.29,0,0,1,7.28.88,20.68,20.68,0,0,1,6.26,3.91,24.81,24.81,0,0,1,2.55,2.68,20.88,20.88,0,0,1,1.9,3.18c1.1,2.22,1.91,4.57,3.15,6.72a10.09,10.09,0,0,0,5.37,4.86,15.55,15.55,0,0,0,7.33.44,49.42,49.42,0,0,0,7.18-1.84c4.7-1.49,9.46-3,13.75-5.46a24.32,24.32,0,0,0,5.84-4.54A24,24,0,0,0,211.08,74c2-4.52,3.07-9.41,5.14-13.91a18.32,18.32,0,0,1,4.25-6A14.93,14.93,0,0,1,227,50.74a23.08,23.08,0,0,1,14.54,1,24.27,24.27,0,0,1,11,9.56,21.15,21.15,0,0,1,2.75,6.85,25.16,25.16,0,0,1,.43,3.67c.05,1.24,0,2.48,0,3.71a27.61,27.61,0,0,0,.64,7.37,10.73,10.73,0,0,0,1.45,3.39,4.68,4.68,0,0,0,3,2,6.94,6.94,0,0,0,3.63-.43,16.28,16.28,0,0,0,3.29-1.7,50.38,50.38,0,0,0,5.77-4.65,43.12,43.12,0,0,1,12.35-8.07,36.17,36.17,0,0,1,7.14-2,43.42,43.42,0,0,1,7.38-.72A45.6,45.6,0,0,1,315,72.87a44.36,44.36,0,0,1,6.83,2.85A41.05,41.05,0,0,1,328,79.79a58.89,58.89,0,0,1,10.14,10.78c6,7.89,10.6,16.72,16.86,24.39a56.56,56.56,0,0,0,10.67,10.24,37.84,37.84,0,0,0,6.41,3.7,30.92,30.92,0,0,0,7.09,2.11,32.57,32.57,0,0,0,14.63-1.41A117.6,117.6,0,0,0,407.52,124a114.07,114.07,0,0,1,13.77-5.48,110,110,0,0,1,29.17-4.91,104.79,104.79,0,0,1,14.82.49,95,95,0,0,1,14.59,2.55c1.21.26,2.39.65,3.58,1s2.37.7,3.53,1.12c2.34.81,4.64,1.73,6.88,2.76a55.87,55.87,0,0,1,12.55,7.84,36.57,36.57,0,0,1,9.27,11.45A43.84,43.84,0,0,1,519.5,155c.6,4.92.74,9.87,1.17,14.79a62.58,62.58,0,0,0,1,7.34,54.66,54.66,0,0,0,2.12,7.1c1.7,4.65,3.85,9.1,5.86,13.62a73.65,73.65,0,0,1,4.94,14,68,68,0,0,1,1.58,14.72c0,9.86-1.67,19.88-6,28.79-.52,1.13-1.19,2.17-1.79,3.26l-2,3.15-3.93,6.29-7.93,12.54c-10.51,16.71-20.6,33.9-27.1,52.63A137,137,0,0,0,480.72,362a112.16,112.16,0,0,0,.27,29.57A67.1,67.1,0,0,0,484.65,406c1.68,4.65,3.7,9.17,5.51,13.77.91,2.3,1.78,4.61,2.52,7s1.46,4.73,2.36,7a23.28,23.28,0,0,0,3.63,6.42,16.66,16.66,0,0,0,5.87,4.4c2.22,1.09,4.49,2,6.74,3.08a26.81,26.81,0,0,1,6.38,3.77,18.82,18.82,0,0,1,4.58,5.79,37.92,37.92,0,0,1,2.72,6.9,34.78,34.78,0,0,1,1.27,7.3,22.6,22.6,0,0,1-.66,7.37,12.92,12.92,0,0,1-3.72,6.32,13.24,13.24,0,0,1-6.6,3.23,36.58,36.58,0,0,1-7.39.54l-7.42-.14c-4.94-.18-9.88-.41-14.81-.75-9.87-.66-19.72-1.59-29.56-2.54-19.68-1.9-39.4-3.85-59.19-3.66s-39.48,2.65-58.95,6c-9.75,1.69-19.45,3.61-29.14,5.6s-19.37,4-29,6.12S260.49,504,251,506.74a202.27,202.27,0,0,0-27.84,10.15Z"/></svg>