<svg id="Layer_1" data-name="Layer 1" xmlns="http://www.w3.org/2000/svg" viewBox="0 0 600 600"><title>Croatia</title><path d="M203.05,162.23a10.05,10.05,0,0,1,3.66-1.55c1.29-.3,2.61-.43,3.91-.67a33.7,33.7,0,0,0,7.61-2.12,27.52,27.52,0,0,0,6.75-3.84,13.14,13.14,0,0,0,4.48-5.88,12.36,12.36,0,0,0,.23-7.23,38.38,38.38,0,0,0-2.85-7.14,58.27,58.27,0,0,1-3.22-7.48,13.89,13.89,0,0,1,4.62-16.13,36.15,36.15,0,0,1,7.12-4.5l7.17-3.5,7.12-3.53,14.25-7.07c4.79-2.35,9.67-4.63,14.74-6.65A97.91,97.91,0,0,1,294.51,80a56.41,56.41,0,0,1,17.29-1.16,45.11,45.11,0,0,1,8.84,1.77,32.74,32.74,0,0,1,4.28,1.57l2.08.93,1,.48,1,.56A59.05,59.05,0,0,1,343,95a160.08,160.08,0,0,1,10.82,12.57c3.34,4.17,6.53,8.25,9.83,11.93A61.18,61.18,0,0,0,374,128.91a36.64,36.64,0,0,0,5.7,3.36,67.55,67.55,0,0,0,6.43,2.76c2.25.84,4.61,1.62,7.05,2.39s5,1.53,7.43,2.28c5,1.44,9.86,2.85,14.77,4s9.77,2.11,14.6,2.79a108.7,108.7,0,0,0,14.26,1A69,69,0,0,0,457.7,146l3.2-.8,3.08-1a26,26,0,0,0,3-1.19c1-.43,1.94-.79,3-1.35a58.43,58.43,0,0,1,8.95-3.86,28.66,28.66,0,0,1,3.13-.77,25.83,25.83,0,0,1,3.4-.39l1.72-.09c.58,0,1.16.06,1.74.1a21,21,0,0,1,3.46.45,28.77,28.77,0,0,1,11.84,5.42,40.59,40.59,0,0,1,7.87,8.05,51,51,0,0,1,5.25,8.8,57,57,0,0,1,3.49,9.31l.33,1.18.26,1L522,173l.94,4c.59,2.56,1.17,5,1.78,7.24,1.24,4.49,2.73,8.23,4.46,10.62a13.46,13.46,0,0,0,2.79,2.84,26.57,26.57,0,0,0,4.74,2.53c2.12,1,4.76,2,7.74,3.5a47.86,47.86,0,0,1,4.7,2.71,34.07,34.07,0,0,1,4.87,4,36.37,36.37,0,0,1,4,4.58,24.68,24.68,0,0,1,3.64,7.06,12.15,12.15,0,0,1,.35,1.31c.11.48.21,1,.29,1.44s.13,1.12.17,1.68a13.25,13.25,0,0,1,0,1.79,15.76,15.76,0,0,1-.63,3.75,15.24,15.24,0,0,1-1.31,3.32c-.3.56-.62,1.11-1,1.64a16.92,16.92,0,0,1-1.17,1.51c-.42.47-.86,1-1.3,1.37s-.88.75-1.34,1.11a18.93,18.93,0,0,1-5,2.7,30,30,0,0,1-6.57,1.5c-1.59.2-2.82.33-3.28.43l-.1,0h0a2.05,2.05,0,0,0,.4-.12,3.11,3.11,0,0,1-.55.27c-.18.07-.2.17-.33.21s-.09.14-.19.16-.07.15-.15.18a1.6,1.6,0,0,1-.23.32c-.1.24-.21.38-.34.66l-.21.46a4.43,4.43,0,0,0-.24.55c-.68,1.59-1.47,4.2-2.87,7.5-.31.79-.77,1.71-1.21,2.58s-1,1.84-1.57,2.74a15.47,15.47,0,0,1-.94,1.39l-1,1.37a32.28,32.28,0,0,1-2.38,2.6,28.87,28.87,0,0,1-12.09,7,35.39,35.39,0,0,1-12.33,1.32,43.3,43.3,0,0,1-11.05-2.15,57.67,57.67,0,0,1-9.39-4.16c-2.76-1.51-5.27-3.06-7.56-4.5s-4.4-2.78-6.37-3.93A46.25,46.25,0,0,0,452.29,254a90,90,0,0,0-13.79-.84c-4.83,0-9.84.35-15,.72s-10.55.8-16.13,1.13-11.37.46-17.39.24c-3-.12-6.08-.35-9.19-.74l-2.34-.31-2.36-.39c-1.59-.25-3.07-.62-4.61-.93-6-1.34-11.51-3-16.63-4.58s-9.89-3-14.24-4.08a48.24,48.24,0,0,0-11.45-1.57,18.45,18.45,0,0,0-7.76,1.63,32,32,0,0,0-4.16,2.42c-1.72,1.15-3.68,2.59-6,4.26-1.16.82-2.45,1.74-3.84,2.59-.72.44-1.44.84-2.24,1.25l-1.21.59-1.37.59a42.4,42.4,0,0,1-11.93,2.71,55.88,55.88,0,0,1-13.71-.31,34,34,0,0,1-3.71-.83,31.75,31.75,0,0,1-3.7-1.38c-.61-.27-1.22-.54-1.81-.86s-1.16-.66-1.74-1a36.69,36.69,0,0,1-3.16-2.26,39.53,39.53,0,0,1-7.63-8.85c-1.48-2.25-2.47-3.61-2.52-3.77a.51.51,0,0,1,0-.09s0,0,.08,0,.14,0,.24,0,.1,0,.14-.1a.15.15,0,0,1-.07,0l0,0s0,0-.16,0c-.85-.09-1.66-.16-2.25-.16a5.33,5.33,0,0,1-1,0c-.05,0,.41-.26,1-.9a4.9,4.9,0,0,0,1.12-2.09c.09-.48,0-.47-.06-.11a8,8,0,0,0,.14,1.76,29.4,29.4,0,0,0,1.7,5.53c.81,2,1.81,4.13,2.91,6.24,2.2,4.24,4.8,8.52,7.55,12.77q2.07,3.19,4.27,6.37l4.54,6.46,1.25,1.79c.48.69.83,1.3,1.25,2,.8,1.28,1.61,2.57,2.3,3.88s1.45,2.61,2.07,3.91,1.29,2.62,1.86,3.92c4.68,10.44,7.9,20.54,12,29.42a66.09,66.09,0,0,0,7,12.09,50.66,50.66,0,0,0,4.39,5.15c1.65,1.62,3.33,3.22,5.2,4.74a123.87,123.87,0,0,0,12.14,8.74l6.67,4.24c2.28,1.43,4.59,2.85,6.91,4.39a171.65,171.65,0,0,1,26,21.15c3.93,3.89,7.76,7.82,11.36,11.9l2.62,3.11c.44.51.65,1.21,1.13,1.69s1,.9,1.56,1.33c2.15,1.71,4.59,3.19,6.44,5.12,7.25,7.91,14.14,15.83,21.27,23.19a201.08,201.08,0,0,0,22,20,120.41,120.41,0,0,0,11.61,7.87,104.8,104.8,0,0,0,12.1,6c4.26,1.82,9.33,3.67,15,6.3a74.73,74.73,0,0,1,8.82,4.8c1.51,1,3,2,4.53,3.16l1.13.88.56.45.72.62a36.16,36.16,0,0,1,2.72,2.66,42.33,42.33,0,0,1,7.7,11.82,39.6,39.6,0,0,1,2.29,6.95,36,36,0,0,1,.93,8.16,31,31,0,0,1-1.63,9.85,27.65,27.65,0,0,1-6.15,10.18,28.05,28.05,0,0,1-4.6,3.91c-.81.55-1.61,1-2.44,1.49s-1.69.83-2.56,1.21A29,29,0,0,1,468,535.17a32.26,32.26,0,0,1-9.22-1.23,41,41,0,0,1-6.86-2.63,51.59,51.59,0,0,1-5.31-3c-1.6-1-3-2-4.36-3l-6.46-5a44.24,44.24,0,0,1-6-5.17,35.32,35.32,0,0,1-4.84-6.77l-2.08-3.85c-.68-1.29-1.34-2.62-2.05-3.88a47.7,47.7,0,0,0-4.63-7.05,69.19,69.19,0,0,0-5.61-5.74c-1.93-1.82-3.91-3.66-5.86-5.37a38.37,38.37,0,0,0-5.5-4.2,16.06,16.06,0,0,0-2.6-1.24,9.81,9.81,0,0,0-2.55-.62,36.34,36.34,0,0,0-6.79.08c-1.32.09-2.74.19-4.27.23a29.4,29.4,0,0,1-4.82-.22l-2.46-.3c-.81-.13-1.59-.35-2.39-.53s-1.6-.36-2.36-.62l-2.26-.8-1.13-.41-1.07-.47-2.12-1c-1.39-.67-2.67-1.43-4-2.16s-2.53-1.52-3.73-2.31l-1.78-1.19c-.61-.38-1.19-.77-1.76-1.17-2.31-1.56-4.52-3.15-6.66-4.64-1.07-.78-2.15-1.47-3.2-2.16s-2.11-1.34-3.14-2a39.56,39.56,0,0,0-11.89-5.17,57.75,57.75,0,0,0-6.42-1c-2.4-.3-5-.55-7.94-1-1.44-.18-3-.47-4.53-.8a43.38,43.38,0,0,1-4.83-1.3,53.59,53.59,0,0,1-9.1-3.93,69.35,69.35,0,0,1-7.85-5c-1.24-.86-2.37-1.82-3.49-2.73s-2.16-1.93-3.16-2.91a76.1,76.1,0,0,1-5.49-6.15c-1.69-2.09-3.3-4.28-4.93-6.45s-3.24-4.35-4.92-6.45-3.44-4.12-5.29-6c-3.66-3.87-7.82-7.15-11.78-10.65s-8-6.92-12-10.34-8.08-6.84-12.15-10.22L212,366.54c-4.06-3.47-8.22-6.89-12.23-10.57s-7.95-7.54-11.67-11.61-7.25-8.26-10.6-12.59S171,323,168,318.51q-2.28-3.37-4.47-6.78l-4.25-6.68c-2.73-4.22-5.88-8.65-8.78-13.74-.73-1.27-1.43-2.6-2.1-3.95-.33-.7-.67-1.37-1-2.09L147,284.2l-.46-1.18a36.42,36.42,0,0,1-1.51-5,35.59,35.59,0,0,1-.73-5.13,67,67,0,0,1,.09-9.16c.17-2.67.33-5.09.26-7.23A43.67,43.67,0,0,0,142.14,244a37.66,37.66,0,0,0-5.95-11,27.3,27.3,0,0,0-1.88-2.08,20,20,0,0,0-2-1.59,21.52,21.52,0,0,0-2-1.21c-.32-.13-.64-.26-1-.41a8,8,0,0,1-.78-.24,3,3,0,0,0-.9-.08,1.12,1.12,0,0,0-.56.14.84.84,0,0,1-.21.11,2,2,0,0,0-.25.18,4.52,4.52,0,0,0-.62.49c-.23.22-.47.47-.72.74s-.52.58-.77,1a35.44,35.44,0,0,0-3.14,5.32c-1,2-2,4.28-2.88,6.63l-2.83,7.35a86,86,0,0,1-3.63,8.18c-.42.77-.83,1.53-1.4,2.38l-.39.61-.32.45-.67.93a34.12,34.12,0,0,1-3.44,4.09,20.4,20.4,0,0,1-5.36,3.91,19,19,0,0,1-6.82,1.9,20.18,20.18,0,0,1-6.55-.58,23.91,23.91,0,0,1-2.86-.9c-.87-.36-1.75-.73-2.54-1.15a36.72,36.72,0,0,1-8.18-5.89,46.11,46.11,0,0,1-3.28-3.44c-1-1.16-1.81-2.23-2.72-3.35L65,253c-.8-1.17-1.63-2.32-2.4-3.5A113.7,113.7,0,0,1,48.53,219a108.42,108.42,0,0,1-3.42-16.43,27.73,27.73,0,0,1,.26-9.76,15.83,15.83,0,0,1,2.3-5.3,14.84,14.84,0,0,1,4.22-4.07,20.09,20.09,0,0,1,9.74-2.92,34.38,34.38,0,0,1,4.54,0c1.48.1,2.93.28,4.27.47,5.45.76,10.71,1.9,15.88,3,10.32,2.18,20.43,4.34,30.49,3.16a38.26,38.26,0,0,0,14.3-4.22,27.78,27.78,0,0,0,6-4.32c1.84-1.7,3.55-3.83,5.84-5.6a11.93,11.93,0,0,1,3.94-2.1,9.29,9.29,0,0,1,4.56-.21,15.57,15.57,0,0,1,7.32,4.26c2,1.86,3.72,3.91,5.53,5.74a52.57,52.57,0,0,0,6,5A49.53,49.53,0,0,0,184.23,193a23.4,23.4,0,0,0,7.73,1.17,12,12,0,0,0,7.24-2.62,7.9,7.9,0,0,0,2.37-3.06,9.48,9.48,0,0,0,.66-3.84,35,35,0,0,0-1.48-7.76,27.73,27.73,0,0,1-1.26-7.82,8.92,8.92,0,0,1,1-3.83,9.25,9.25,0,0,1,2.63-2.94Zm.06.07a8.36,8.36,0,0,0-3.32,6.78,27.2,27.2,0,0,0,1.52,7.66,35,35,0,0,1,1.77,7.89,10.2,10.2,0,0,1-.59,4.24,9,9,0,0,1-2.57,3.54,13.12,13.12,0,0,1-7.88,3.12,24.74,24.74,0,0,1-8.25-1,41.27,41.27,0,0,1-7.59-3,61.18,61.18,0,0,1-7-4.14,54.72,54.72,0,0,1-6.37-5c-2-1.92-3.7-3.86-5.61-5.56a13.36,13.36,0,0,0-6.19-3.49,7.57,7.57,0,0,0-6.29,1.94c-1.9,1.53-3.51,3.63-5.46,5.56a31.35,31.35,0,0,1-6.54,5,41.92,41.92,0,0,1-15.4,5.1,65.25,65.25,0,0,1-16.1.19c-5.33-.53-10.56-1.49-15.77-2.45s-10.39-2-15.61-2.54a36.72,36.72,0,0,0-7.76-.25A15,15,0,0,0,55,188a9.39,9.39,0,0,0-2.6,2.58A10,10,0,0,0,51,194a21.67,21.67,0,0,0,0,7.66A101.49,101.49,0,0,0,54.66,217a104.74,104.74,0,0,0,14,28.2c.75,1.08,1.56,2.12,2.34,3.19l2.46,3.1c.86,1,1.7,2,2.58,3a38.51,38.51,0,0,0,2.79,2.78,28.81,28.81,0,0,0,6.46,4.45,14.39,14.39,0,0,0,7.54,1.62,10.68,10.68,0,0,0,3.7-1.09,11.78,11.78,0,0,0,3.1-2.34,24.38,24.38,0,0,0,2.48-3.06,26.29,26.29,0,0,0,2.06-3.36c2.32-4.73,3.89-9.82,5.8-14.75s3.92-9.89,7-14.22a17.19,17.19,0,0,1,5.83-5.32,11.38,11.38,0,0,1,7.74-.92,19.84,19.84,0,0,1,7.15,3.33,27.24,27.24,0,0,1,3.07,2.5,33.59,33.59,0,0,1,2.67,2.93A45.69,45.69,0,0,1,151,241a50.08,50.08,0,0,1,2.73,15.57c0,5.29-.95,10.55-.65,15.85a27.32,27.32,0,0,0,1.57,7.75,52.73,52.73,0,0,0,3.28,7.22c2.49,4.68,5.46,9.07,8.19,13.61a315.39,315.39,0,0,0,17,26.77A168,168,0,0,0,204,351.63c7.66,7.31,15.81,14.07,23.83,21l24.13,20.65,24.13,20.64c4,3.43,8,6.91,12.1,10.28a87.21,87.21,0,0,0,13,9.13,48.27,48.27,0,0,0,7.22,3.27,53.5,53.5,0,0,0,7.68,2c5.18,1,10.48,1.64,15.5,3.36a52.35,52.35,0,0,1,13.83,7.67c4.28,3.12,8.31,6.56,12.51,9.78a57.73,57.73,0,0,0,13.52,8.22l1.85.7c.62.25,1.28.36,1.91.55s1.27.37,1.92.48l2,.29a39.54,39.54,0,0,0,7.92.16,46.66,46.66,0,0,1,7.93.1,20.94,20.94,0,0,1,7.48,2.5,53,53,0,0,1,6.62,4.38l6.34,4.76,25.38,19.09,12.7,9.53a43.72,43.72,0,0,0,6.73,4.19,17.45,17.45,0,0,0,7.61,2,10.06,10.06,0,0,0,7.12-3,10.47,10.47,0,0,0,2.68-7.27,19.71,19.71,0,0,0-1.63-7.71,22.35,22.35,0,0,0-7.13-9.37c-1-.83-2.1-1.61-3.2-2.35a68.69,68.69,0,0,0-6.85-4c-4.71-2.42-9.6-4.46-14.36-6.78a117.19,117.19,0,0,1-13.72-8,138.57,138.57,0,0,1-12.54-9.72,222,222,0,0,1-22.18-22.68c-13.84-16-26.39-33.15-41.18-48.32a159.94,159.94,0,0,0-24.09-20.61c-8.71-6-18-11.24-26.19-17.93-2.07-1.65-4-3.45-5.92-5.29a58.1,58.1,0,0,1-5.22-6,77.53,77.53,0,0,1-8.18-13.57c-4.61-9.53-7.95-19.62-12.56-29.16a83.48,83.48,0,0,0-8.1-13.62c-3.18-4.23-6.36-8.46-9.39-12.81s-5.93-8.77-8.54-13.37a60.82,60.82,0,0,1-6.27-14.54,15.7,15.7,0,0,1-.21-7.85,7.46,7.46,0,0,1,2-3.35,9,9,0,0,1,3.4-2,22.39,22.39,0,0,1,7.85-.85,12.5,12.5,0,0,1,7.36,2.63,31.54,31.54,0,0,1,5.33,5.85,30.58,30.58,0,0,0,5.4,5.79,15,15,0,0,0,7.28,2.9,21.77,21.77,0,0,0,7.87-.59,33.79,33.79,0,0,0,7.37-2.89,70.62,70.62,0,0,0,6.71-4.22c4.36-3,8.63-6.19,13.52-8.27a36.67,36.67,0,0,1,15.52-2.72,65.09,65.09,0,0,1,15.6,2.72c10.19,2.9,19.95,7.12,30.19,9.81s20.95,3.15,31.51,2.91,21.15-1.07,31.74-.89,21.27,1.52,31,5.77,17.68,11.77,27.75,15.28a29.89,29.89,0,0,0,7.76,1.57,22.52,22.52,0,0,0,7.84-.76,16.26,16.26,0,0,0,6.82-3.88,19.86,19.86,0,0,0,4.34-6.57c1.07-2.42,1.85-5,2.89-7.39a17.47,17.47,0,0,1,4.4-6.54,15.35,15.35,0,0,1,1.57-1.22c.57-.33,1.11-.73,1.71-1l1.82-.8a12.91,12.91,0,0,1,1.92-.5c2.61-.46,5.3-.44,7.81-1.31a5.24,5.24,0,0,0,3-2.39,3.67,3.67,0,0,0,.36-.92,3.87,3.87,0,0,0,.17-1,6.37,6.37,0,0,0-.05-1,7.89,7.89,0,0,0-.23-1,17.34,17.34,0,0,0-4.42-6.48,21.66,21.66,0,0,0-3-2.54,36.44,36.44,0,0,0-3.43-2c-2.35-1.2-4.81-2.2-7.22-3.3a37.51,37.51,0,0,1-6.92-3.86,25.82,25.82,0,0,1-5.51-5.68c-3-4.36-4.8-9.46-6.17-14.56s-2.29-10.33-3.66-15.44a43.58,43.58,0,0,0-2.72-7.44,38.89,38.89,0,0,0-4-6.83,28.38,28.38,0,0,0-5.46-5.7,17.11,17.11,0,0,0-7.1-3.35,10,10,0,0,0-2-.27c-.33,0-.65-.07-1-.08l-1,.06a14.27,14.27,0,0,0-3.89.65,51.36,51.36,0,0,0-7.3,3.09,64.44,64.44,0,0,1-15,5,80.44,80.44,0,0,1-15.8,1.37,116.19,116.19,0,0,1-15.8-1.49c-5.22-.88-10.39-2.06-15.51-3.4s-10.16-3-15.19-4.61-10-3.36-14.94-5.38a57.53,57.53,0,0,1-13.82-7.73,69.92,69.92,0,0,1-11.29-11.13c-6.73-8.17-12.38-17.2-19.48-25.06A52.36,52.36,0,0,0,326,89.34l-.84-.53-.89-.44-1.78-.87a26.52,26.52,0,0,0-3.66-1.5,39.15,39.15,0,0,0-7.69-1.84,51,51,0,0,0-15.79.47A94.27,94.27,0,0,0,280,88.78c-10,3.56-19.5,8.2-29.18,12.48l-14.48,6.52a34.55,34.55,0,0,0-6.81,4,13.23,13.23,0,0,0-4.59,6.29,13.6,13.6,0,0,0,.21,7.79,56.73,56.73,0,0,0,2.94,7.36,39.3,39.3,0,0,1,2.72,7.45,13.5,13.5,0,0,1-.48,7.83,14,14,0,0,1-4.93,6.11,25.37,25.37,0,0,1-7.06,3.57,43.69,43.69,0,0,1-7.71,1.84c-2.59.38-5.35.73-7.47,2.34Z"/><path d="M281.54,443.82c-1.18-2.47-3.53-3.48-5.88-3.86a28.49,28.49,0,0,0-7.33-.11,22.34,22.34,0,0,0-3.49.53,4.8,4.8,0,0,0-2.3,1.25,4.56,4.56,0,0,0-.55,4.68,5.18,5.18,0,0,0,.6,1.2,4.15,4.15,0,0,0,.39.52c.17.17.32.36.5.52a9.21,9.21,0,0,0,2.55,1.69,19.63,19.63,0,0,0,6.72,1.53c2.31.15,4.63-.15,6.27-1.46a5.25,5.25,0,0,0,1.74-2.77,4.2,4.2,0,0,0-.53-3.51,3.84,3.84,0,0,1,1.38,1.52,5.62,5.62,0,0,1,.54,2.11,6.89,6.89,0,0,1-1.3,4.29,8.74,8.74,0,0,1-3.71,2.77,14.78,14.78,0,0,1-4.32,1,22.67,22.67,0,0,1-4.28-.07,17.72,17.72,0,0,1-4.32-1,13.25,13.25,0,0,1-4.06-2.42,11.9,11.9,0,0,1-.88-.86,11,11,0,0,1-.8-1A10.22,10.22,0,0,1,257.3,448a10.4,10.4,0,0,1-.53-5.06,8.08,8.08,0,0,1,2.53-4.81,9,9,0,0,1,4.66-2.09,20.3,20.3,0,0,1,4.29-.14,23.47,23.47,0,0,1,8.15,1.69,10.61,10.61,0,0,1,3.52,2.42A5.91,5.91,0,0,1,281.54,443.82Z"/><path d="M336.27,471.74c-3.64,1.16-7.51,1-10.9,1.37-.85.08-1.67.21-2.45.36-.38.08-.76.17-1.12.28l-.26.07a1.53,1.53,0,0,0,.5-.2,2,2,0,0,0,.95-1.47,1.33,1.33,0,0,0,0-.46.84.84,0,0,0,0-.18s0,0,0-.05.25.32.47.58.52.56.81.85c.57.59,1.19,1.18,1.83,1.75.31.28.64.59.91.82l.06.05-.07-.05-.1-.06,0,0,.26.15.52.28a21.13,21.13,0,0,0,2.17,1,14.88,14.88,0,0,0,4.49,1.09,6.35,6.35,0,0,0,2-.14,3.46,3.46,0,0,0,1.62-1,4.69,4.69,0,0,0,.67-.87,8.79,8.79,0,0,0,.49-1.06c.37-.42-.49-1.24-1-2,.45.17.86.34,1.31.56a1.79,1.79,0,0,1,1.06,1.44,6.21,6.21,0,0,1,0,1.61,6.88,6.88,0,0,1-.45,1.61,5.91,5.91,0,0,1-2.27,2.69,8.29,8.29,0,0,1-3.24,1.11,14.62,14.62,0,0,1-6.23-.51,20,20,0,0,1-2.86-1.08l-.69-.34-.34-.18,0,0-.17-.11-.21-.14-.21-.16c-.42-.35-.77-.65-1.14-1-.7-.66-1.38-1.33-2.05-2.07-.33-.38-.66-.77-1-1.2a7.86,7.86,0,0,1-1-1.7,3,3,0,0,1-.13-.36,3.81,3.81,0,0,1-.12-.51,3,3,0,0,1,0-.8,2.63,2.63,0,0,1,1.29-2,3,3,0,0,1,.81-.33l.41-.07c.52-.09,1-.12,1.56-.16a18.58,18.58,0,0,1,3,.1C329.29,469.62,332.63,470.83,336.27,471.74Z"/></svg>