<svg id="Layer_1" data-name="Layer 1" xmlns="http://www.w3.org/2000/svg" viewBox="0 0 600 600"><title>Afghanistan</title><path d="M108.55,237.85a31.61,31.61,0,0,1-3-3.59,12.21,12.21,0,0,0-3.3-3.19A10.56,10.56,0,0,0,98,229.71a38.63,38.63,0,0,0-4.57-.13c-1.54,0-3.1,0-4.69-.08A17.6,17.6,0,0,1,84,228.32c-1.48-.6-2.88-1.33-4.25-2a19.51,19.51,0,0,0-4-1.65,5.79,5.79,0,0,0-3.76.22,9.93,9.93,0,0,0-3.2,2.4,11.69,11.69,0,0,0-2,3.49A26.48,26.48,0,0,0,65.66,235c-.51,2.91-.71,6-1.08,9.1a47.11,47.11,0,0,1-.77,4.79,23.1,23.1,0,0,1-.67,2.46,23.63,23.63,0,0,1-1,2.37c-5.29,11.6-12.89,21.68-17.62,32.45A34.65,34.65,0,0,0,42,294a13.61,13.61,0,0,0,.34,6.88,3.88,3.88,0,0,0,.26.63,4,4,0,0,0,.32.56,5.86,5.86,0,0,0,.82,1.07,7.24,7.24,0,0,0,2.18,1.63,4.59,4.59,0,0,0,2.15.53,1.92,1.92,0,0,0,1.23-.43l2.78-2.24,3.3,2.54A10.44,10.44,0,0,1,58,307.84a7.34,7.34,0,0,1,1,2,8.76,8.76,0,0,1,.33,1.07c.06.34.11.69.14,1s.07.71.08,1,0,.6-.07.91-.06.6-.11.9a7.76,7.76,0,0,1-.17.76,13.24,13.24,0,0,1-.42,1.41l-.49,1.2a38.78,38.78,0,0,1-4.2,6.59,25.64,25.64,0,0,0-2.93,4.3,9,9,0,0,0-.65,3.59c0,2.84.89,6.44,2.15,10.23l2.07,6.1c.71,2.15,1.36,4.33,2,6.51,1.22,4.38,2.26,8.81,3.06,13.29.41,2.24.77,4.5,1.08,6.75l.42,3.4.1.87.09,1c.06.68.08,1.33.11,2,.18,5.2-.29,9.73-.37,13.51a34.51,34.51,0,0,0,.15,5.11,1.41,1.41,0,0,1,.11.45c0,.1,0,.08.06.11l0,.06s0-.14-.08-.26,0-.13-.07-.14.09,0,.1,0a1.67,1.67,0,0,1,.4.16c.23.06.42.14.67.22a38.84,38.84,0,0,0,4.78,1c2,.33,4.29.64,6.85,1.22a40.9,40.9,0,0,1,8.17,2.71,28,28,0,0,1,4.42,2.5,21.42,21.42,0,0,1,4.68,4.36,17.51,17.51,0,0,1,3.43,7.64,21.66,21.66,0,0,1,.26,2.24c0,.73,0,1.46-.06,2.18a17,17,0,0,1-.92,4.26,19.51,19.51,0,0,1-3.82,6.35A28.8,28.8,0,0,1,86.5,440c-1.15.91-2.18,1.63-3,2.22s-1.36,1-2,1.57a51.94,51.94,0,0,0-12.86,16.51c-.79,1.58-1.59,3.35-2.09,4.68a15.39,15.39,0,0,0-.87,3.34,1.26,1.26,0,0,1,0,.39c0,.08,0,.09,0,.14a.12.12,0,0,0,0-.14c0-.13-.07-.19-.09-.33s-.14-.22-.16-.33-.08-.09-.1-.12a.09.09,0,0,0,0-.07c-.09,0,0,0,0,0s.18.08.24.16a16.05,16.05,0,0,0,3.15,1.24,49.51,49.51,0,0,0,5.1,1.21c3.78.74,8,1.36,12.66,2.26,2.31.46,4.72,1,7.27,1.7l2,.6,1.6.52,3,1c4,1.29,7.89,2.51,11.67,3.48,7.56,2,14.73,3,21.31,2.38l1.22-.13.62-.07.71-.11,2.81-.43c1.92-.37,3.82-.69,5.79-1.15,3.9-.83,7.94-1.87,12.09-2.92a248.16,248.16,0,0,1,26.71-5.8,94.38,94.38,0,0,1,15-.9l3.9.19c1.31.09,2.63.29,4,.44l3.25.44c.87.11,1.74.21,2.61.28a61.83,61.83,0,0,0,20.93-1.77c.86-.21,1.7-.47,2.54-.71l2.84-.87c1.81-.59,3.49-1.18,4.93-1.79a19.9,19.9,0,0,0,3.5-1.79c.22-.13.37-.26.53-.37s-.09,0-.12.07a1,1,0,0,0-.17.12,1.54,1.54,0,0,0-.3.32,3.06,3.06,0,0,0-.53.55c-.15.21-.26.41-.48.7a4.78,4.78,0,0,0-.45.87,8,8,0,0,0-.37.92,7,7,0,0,0-.3,1.69c0,.24-.05.35,0,.53a2.44,2.44,0,0,1,0,.38.37.37,0,0,0,0,.18c0,.06,0,0,0,0s0,0,0-.13l-.11-.29c-.29-.87-1.14-2.65-2.2-5.16l-.4-1-.42-1.16-.21-.58-.22-.68-.42-1.41-.51-2.05c-.15-.66-.29-1.35-.43-2a56.64,56.64,0,0,1-1.05-8.54,47.08,47.08,0,0,1,.46-9.31,38.82,38.82,0,0,1,2.85-9.82,33.51,33.51,0,0,1,2.54-4.76,22.93,22.93,0,0,1,1.54-2.25l.82-1.09c.28-.36.46-.56.7-.85,1.73-2.06,3.33-3.81,5.09-5.61s3.55-3.51,5.62-5.3l1.62-1.34c.6-.47,1.16-.92,1.82-1.4s1.29-.93,2.16-1.46c.42-.26.78-.49,1.26-.76s1-.55,1.55-.82a22.5,22.5,0,0,1,4-1.49,24.42,24.42,0,0,1,3.53-.74,25.28,25.28,0,0,1,3.36-.27,30.25,30.25,0,0,1,3.07.08,49.82,49.82,0,0,1,9,1.7c2.27.61,4,1.06,4.94,1.21a5.12,5.12,0,0,0,.84.08c.07,0-.09,0-.36,0a.46.46,0,0,0-.2,0l-.1.05h0s0,0,0,0a.34.34,0,0,0-.15.06,4.77,4.77,0,0,0-1.35,1,6.43,6.43,0,0,0-1.24,1.81c-.2.45-.18.54-.14.22.14-.65.22-2.65.59-5.77a32.77,32.77,0,0,1,1.2-5.71,25.06,25.06,0,0,1,3.52-7.16,24.51,24.51,0,0,1,6.05-5.91,23.83,23.83,0,0,1,3.65-2.06,23.17,23.17,0,0,1,3.84-1.39,27.94,27.94,0,0,1,6.86-1,27.63,27.63,0,0,1,2.93.07c1,.05,1.81.16,2.66.28a67.51,67.51,0,0,1,15.75,4.6l2.94,1.17,1.24.48c.37.15.75.27,1.13.4a37.46,37.46,0,0,0,4.49,1.34,26.72,26.72,0,0,0,4.13.69,14.55,14.55,0,0,0,3,.07c.41,0,.58-.08.8-.07a.14.14,0,0,1,.14,0c.06,0,0,0,0,.05s-.29.46-.18.58c0,.27.26,0,.49-1.1a38,38,0,0,0,.59-5L358.69,369l1.21-12.88.62-6.57a39.32,39.32,0,0,1,.66-4.65,23.48,23.48,0,0,1,2.15-6.12A19.4,19.4,0,0,1,368,333a20.58,20.58,0,0,1,5.8-3.46,26.06,26.06,0,0,1,5.12-1.41,40.39,40.39,0,0,1,4.21-.5c2.52-.17,4.66-.19,6.37-.29a24.85,24.85,0,0,0,3.28-.36c.18,0,.09.05,0,.21a.81.81,0,0,0-.16.48,1.29,1.29,0,0,0,0,.59c.09.13.08,0,.08-.27a9,9,0,0,0-1.52-2.86,24.25,24.25,0,0,0-3.18-3.53l-.46-.42-.24-.21-.35-.31c-.51-.43-1-.85-1.44-1.28-.94-.85-1.84-1.72-2.72-2.62a47.83,47.83,0,0,1-5.13-6.17,26.17,26.17,0,0,1-2.39-4.19A17,17,0,0,1,373.7,300a13.9,13.9,0,0,1,.55-4.4,13.16,13.16,0,0,1,2.13-4.21,14.17,14.17,0,0,1,1.42-1.61,14.79,14.79,0,0,1,1.65-1.37c.33-.23.68-.46,1-.66s.62-.33.94-.48a13.61,13.61,0,0,1,1.77-.73,22.53,22.53,0,0,1,5.51-1,38.71,38.71,0,0,1,4.29,0c2.64.14,5,.41,7.34.73s4.53.7,6.67,1.06,4.23.72,6.12,1c.94.14,1.83.24,2.47.27.19,0,.27,0,.4,0a1.55,1.55,0,0,0,.18,0l1-.09a19.36,19.36,0,0,0,4.07-.91,25.92,25.92,0,0,0,3.73-1.64c.3-.15.53-.34.8-.49s.66-.13.86-.33a2.93,2.93,0,0,0,.65-1.57l0-.78a5.9,5.9,0,0,0-.16-.59c0-.17-.15-.29-.15-.37a.09.09,0,0,1,0-.1s0,0,0-.05.07-.08.16-.13,0-.08.06-.13,0-.1,0-.15v-.08l0-.15a11.18,11.18,0,0,0-.37-1.85c-.2-.81-.53-1.88-.86-3.11a38.15,38.15,0,0,1-1-4.51,22.6,22.6,0,0,1-.15-6.47,19.29,19.29,0,0,1,2.51-7.37,21.54,21.54,0,0,1,4-4.83c1.19-1.08,2.14-1.8,2.74-2.29a7.05,7.05,0,0,0,.64-.57c.19-.17.38-.34.59-.5a13.41,13.41,0,0,0,3.14-6.26,17.41,17.41,0,0,0-.25-8.14,13.41,13.41,0,0,0-3.92-6.57,5.93,5.93,0,0,0-.79-.7l-1.33-.95a27.71,27.71,0,0,1-3.76-3.1,16.33,16.33,0,0,1-2.15-2.74,14.31,14.31,0,0,1-1.59-3.75,13.83,13.83,0,0,1-.37-4.12,14.93,14.93,0,0,1,.73-3.57,17.91,17.91,0,0,1,2.64-4.89c.48-.63,1-1.21,1.42-1.74l.7-.76.63-.64c1.66-1.69,3.38-3.29,5.14-4.82a113.28,113.28,0,0,1,10.91-8.36c1.87-1.27,3.74-2.49,5.65-3.66s3.8-2.39,5.77-3.47l2.93-1.65,3-1.55c2-1.07,4-2,6.07-2.93s4.12-1.8,6.2-2.66l3.16-1.19,1.59-.59,1.61-.52a100.19,100.19,0,0,1,26.71-5.11l3.45-.13L516,165l1.73,0c.58,0,1.15.1,1.73.15l3.47.35c1.15.13,2.29.4,3.44.59a30.76,30.76,0,0,1,3.44.68l3.41.89.85.23.74.21c.49.15,1,.27,1.43.4a20.92,20.92,0,0,0,5,.76,4.28,4.28,0,0,0,1.51-.22c.26-.13.19-.21.1-.18s0,0-.06,0l0,0s0,0,0-.13.12-1,.21-2a21.13,21.13,0,0,1,.82-4.45,12.64,12.64,0,0,1,1.37-2.94,15.14,15.14,0,0,1,1.92-2.39c1.23-1.23,2.29-2,2.89-2.57a4.38,4.38,0,0,0,.59-.59c.06-.09,0-.08-.12.1a2.47,2.47,0,0,0-.4,1.91c.13.74.32.88.13.76a10.49,10.49,0,0,0-3.07-1.49l-1.73-.64-1.69-.68-3-1.25a25.18,25.18,0,0,0-4.51-1.49,7.1,7.1,0,0,0-2.61-.09c-.12,0-.16,0-.36.06l-.57.13c-.39.09-.81.19-1.24.31-.88.25-1.89.57-3.05.91A28.39,28.39,0,0,1,516,153.57c-1.17-.13-2.3-.27-3.38-.42-2.17-.29-4.17-.59-6-.76a26.29,26.29,0,0,0-5.24,0,19.41,19.41,0,0,0-4.95,1.27,30.41,30.41,0,0,0-4.83,2.67,42,42,0,0,0-4.54,3.72c-2.91,2.78-5.61,5.89-8.57,9.16a88.25,88.25,0,0,1-9.81,9.56,39.17,39.17,0,0,1-13.12,7.17,24.61,24.61,0,0,1-8.13,1,27.45,27.45,0,0,1-8-1.49,23,23,0,0,1-7.41-4.17,19.15,19.15,0,0,1-5.45-7.46l-.44-1.13c-.13-.38-.21-.78-.31-1.16a16.57,16.57,0,0,1-.47-2.35,19.85,19.85,0,0,1,0-4.62,27,27,0,0,1,2.27-8.07c2.11-4.73,4.7-8.43,6.68-11.9a31.8,31.8,0,0,0,2.35-4.8,12.83,12.83,0,0,0,.57-2,6.13,6.13,0,0,0,.08-1.56,4.17,4.17,0,0,0-.27-1.27,7.63,7.63,0,0,0-.71-1.46,40,40,0,0,0-3.16-4.19,34.06,34.06,0,0,1-4.56-6.79,18.59,18.59,0,0,1-1.6-5.21c-.25-1.62-.3-3.07-.39-3.23h0v.11a.66.66,0,0,0,.06.2,1.67,1.67,0,0,0,.11.34,4.14,4.14,0,0,0,.38.71,2.71,2.71,0,0,0,.44.54c.56.51.3.31-.14.18a21.32,21.32,0,0,0-4.44-.8c-.89-.09-1.83-.15-2.83-.2s-2.2-.11-2.86-.12a14.57,14.57,0,0,0-4.07.46,6.39,6.39,0,0,0-2.51,1.26,6.23,6.23,0,0,0-1.55,2.12c-1,2-1.68,5.41-2.2,9.38-.26,2-.5,4.17-.84,6.51a49.2,49.2,0,0,1-1.65,7.72,23.68,23.68,0,0,1-5.09,9.21,19.19,19.19,0,0,1-7.7,5.08c-.46.17-.92.33-1.4.47s-1,.25-1.48.36a24.63,24.63,0,0,1-10.38-.37c-2.78-.65-5-1.42-6.74-1.93l-1.23-.35c-.23,0-.46-.11-.71-.14a7.32,7.32,0,0,0-1.45-.1,4.93,4.93,0,0,0-1,.12c-.21,0-.15.09.1-.1a3.06,3.06,0,0,0,.91-1.13,3.75,3.75,0,0,0,.22-.64c0-.1,0-.08,0-.1a1.42,1.42,0,0,0,0,.15c0,.33,0,1.3,0,2.73a23.64,23.64,0,0,1-.13,2.62,17.82,17.82,0,0,1-.71,3.45,16.17,16.17,0,0,1-4.13,6.59,16.75,16.75,0,0,1-5.81,3.63,21.27,21.27,0,0,1-5.39,1.28,26.62,26.62,0,0,1-4.87.09,28.78,28.78,0,0,1-4.62-.69c-.43-.09-.64-.16-.95-.23l-.86-.23-1.58-.42a35.39,35.39,0,0,0-4.83-1.08,6.74,6.74,0,0,0-1.23,0,1.17,1.17,0,0,0-.38.05c-.05,0-.19,0-.6.36a17.84,17.84,0,0,0-1.65,1.65c-.71.75-1.54,1.69-2.65,2.76a20.46,20.46,0,0,1-4.44,3.31,16.3,16.3,0,0,1-3.14,1.3,13.81,13.81,0,0,1-1.69.39,12.1,12.1,0,0,1-1.71.21c-.58,0-1.17.06-1.73,0s-1.13-.1-1.69-.17a17.55,17.55,0,0,1-3-.75,20.63,20.63,0,0,1-2.54-1.08c-.72-.38-1.46-.79-2.06-1.19a35.41,35.41,0,0,1-3.27-2.37c-1.89-1.51-3.4-2.82-4.61-3.68a22.55,22.55,0,0,0-8.92-3.35c-3.75-.75-8.1-1.16-12.82-2.1a47.63,47.63,0,0,1-7.28-2,51.78,51.78,0,0,1-6.65-3.09c-4.06-2.22-7.56-4.48-10.95-6.07a34.41,34.41,0,0,0-10.62-3,43.34,43.34,0,0,0-40.39,19A40.14,40.14,0,0,0,195.76,182c-1.21,4.06-2.27,8.39-4.27,12.55a23.63,23.63,0,0,1-3.88,5.85A21,21,0,0,1,182,204.6a25.54,25.54,0,0,1-6.43,2.31,44.25,44.25,0,0,1-6.58,1c-4.35.36-8.65.34-12.85.84s-8.33,1.61-11.69,4.16a19,19,0,0,0-4.31,4.57c-1.19,1.75-2.19,3.67-3.25,5.54a103.42,103.42,0,0,1-6.76,11,30.75,30.75,0,0,1-4.31,4.81,13.94,13.94,0,0,1-5.6,3.16,9.87,9.87,0,0,1-6.34-.56,18.19,18.19,0,0,1-5.31-3.62Zm.06-.07c.41.35.82.7,1.24,1s.89.6,1.33.9a15.79,15.79,0,0,0,2.84,1.44,9.37,9.37,0,0,0,6.11.3,13.12,13.12,0,0,0,5.21-3.24,32.05,32.05,0,0,0,4-4.85,114.29,114.29,0,0,0,6.3-11.09c1-1.9,1.95-3.83,3.18-5.74a20.67,20.67,0,0,1,4.57-5.09,21.13,21.13,0,0,1,6-3.27,33.33,33.33,0,0,1,6.51-1.56c4.37-.63,8.69-.7,12.9-1.15a30,30,0,0,0,11.88-3.29,18.13,18.13,0,0,0,4.69-3.79,20.61,20.61,0,0,0,3.2-5.18c1.69-3.79,2.6-8,3.69-12.16A45.15,45.15,0,0,1,197,168.81a46.79,46.79,0,0,1,19.05-17.67,48.27,48.27,0,0,1,25.34-5.3,40.51,40.51,0,0,1,12.68,3c4,1.69,7.73,3.9,11.56,5.82a49,49,0,0,0,5.87,2.53,38.37,38.37,0,0,0,6.19,1.54c4.22.74,8.52,1,12.79,1.71a30.83,30.83,0,0,1,12.19,4.21c1.81,1.2,3.46,2.59,5.17,3.88a29.54,29.54,0,0,0,2.63,1.84,13.54,13.54,0,0,0,2.87,1.38,7.48,7.48,0,0,0,6.12-.48,19.61,19.61,0,0,0,4.68-4.33,16.29,16.29,0,0,1,4.87-4.22,11.73,11.73,0,0,1,6.34-1,39.92,39.92,0,0,1,6.34,1.24,31,31,0,0,0,6.31,1.23,15.09,15.09,0,0,0,6.33-.82,7.81,7.81,0,0,0,2.72-1.68,6.8,6.8,0,0,0,1.68-2.7c.65-2.08.25-4.28.34-6.42a7.46,7.46,0,0,1,.72-3.12A6.37,6.37,0,0,1,361.9,147a11.14,11.14,0,0,1,6.1-1.8,19,19,0,0,1,6.35.94c2.06.61,4.1,1.31,6.2,1.79a15.37,15.37,0,0,0,6.4.3,11.75,11.75,0,0,0,3-1.09,9.92,9.92,0,0,0,2.54-2,14.51,14.51,0,0,0,3.07-5.62c1.29-4.11,1.65-8.44,2.28-12.68s1.38-8.56,3.43-12.37a15,15,0,0,1,4.14-4.89,15.68,15.68,0,0,1,5.83-2.65c4.23-1,8.59-.41,12.84,0a28,28,0,0,1,6.27,1.47,8.64,8.64,0,0,1,2.77,1.61,4.62,4.62,0,0,1,1.34,2.86c.14,1.07.13,2.15.29,3.21a10.33,10.33,0,0,0,.88,3.09,28.6,28.6,0,0,0,3.5,5.41A38.46,38.46,0,0,1,442.8,130a12.86,12.86,0,0,1,1.65,6.17,16.06,16.06,0,0,1-1.38,6.25,42,42,0,0,1-3,5.69c-2.26,3.65-4.82,7.15-6.67,11a20.68,20.68,0,0,0-1.91,6.14,13,13,0,0,0,.72,6.34c1.55,4.06,5.24,7,9.25,8.42a21.08,21.08,0,0,0,12.69.61,32.77,32.77,0,0,0,11.3-6,86.33,86.33,0,0,0,9.31-8.93c2.91-3.17,5.77-6.39,8.91-9.33a45,45,0,0,1,10.4-7.57,27.88,27.88,0,0,1,12.46-2.88c4.3-.1,8.6.41,12.9.19a24.2,24.2,0,0,0,6.28-1.4,51,51,0,0,1,6.15-1.94,13.81,13.81,0,0,1,3.21-.29,15.6,15.6,0,0,1,3.18.5,30.79,30.79,0,0,1,6,2.4c1.93,1,3.84,2,5.83,2.78a16.44,16.44,0,0,1,5.4,3.45,5.9,5.9,0,0,1,1.58,2.76,4.51,4.51,0,0,1-.54,3.11c-1.15,1.87-3.18,2.86-4.72,4.35-3.55,3-1.27,8.62-4.78,11.66a6.58,6.58,0,0,1-2.85,1.43,11.92,11.92,0,0,1-3.21.2,28.28,28.28,0,0,1-6.3-1.33c-2-.69-4.1-1.31-6.16-1.93a28.07,28.07,0,0,0-3.14-.74c-1-.21-2.1-.48-3.16-.63l-3.2-.4c-.54-.06-1.07-.15-1.61-.18l-1.61-.07-3.22-.14-3.23.1A84.24,84.24,0,0,0,484.08,175,120.43,120.43,0,0,0,461,186.31a126.93,126.93,0,0,0-20.5,15.61c-1.55,1.49-3.05,3-4.47,4.65a15.45,15.45,0,0,0-3.48,5.37,5.65,5.65,0,0,0-.12,3.18,6.16,6.16,0,0,0,1.7,2.7c1.55,1.51,3.57,2.39,5.25,3.74a22.13,22.13,0,0,1,7.56,10.22,26.89,26.89,0,0,1,1.51,12.69,23.8,23.8,0,0,1-4.84,11.79c-.74.78-1.42,1.61-2.22,2.34s-1.62,1.42-2.39,2.17a11.59,11.59,0,0,0-2,2.49,7.8,7.8,0,0,0-1,3.05,15.74,15.74,0,0,0,.95,6.33,60.87,60.87,0,0,1,1.78,6.2,12.74,12.74,0,0,1-.35,6.37,14.86,14.86,0,0,1-3.25,5.52,23.41,23.41,0,0,1-5.05,4,29.15,29.15,0,0,1-5.92,2.53,28.53,28.53,0,0,1-6.34,1.15,23.42,23.42,0,0,1-6.41-.51c-4.23-.79-8.42-1.8-12.66-2.54-2.11-.37-4.24-.7-6.39-.86a17.91,17.91,0,0,0-6.4.44,5.26,5.26,0,0,0-2.61,1.81,4.65,4.65,0,0,0-.93,3,12,12,0,0,0,2.4,5.9,46.7,46.7,0,0,0,9,9.19,34.39,34.39,0,0,1,4.5,4.61,19.43,19.43,0,0,1,3.21,5.56,9.1,9.1,0,0,1-.05,6.32,8.67,8.67,0,0,1-4.42,4.5,20.59,20.59,0,0,1-6.22,1.6c-2.14.27-4.29.41-6.42.66a22.76,22.76,0,0,0-6.26,1.47,9,9,0,0,0-4.67,4.24,15.53,15.53,0,0,0-1.26,6.28l-.22,6.45-.42,12.9-.42,12.9a63.09,63.09,0,0,1-.42,6.44,17.34,17.34,0,0,1-1.91,6.12,13.64,13.64,0,0,1-4.41,4.62,15.82,15.82,0,0,1-6,2.25,26.56,26.56,0,0,1-6.42.36,40.36,40.36,0,0,1-6.39-.84c-8.51-1.56-16-6.4-24.61-7.61a16,16,0,0,0-6.4.22,9.52,9.52,0,0,0-5.23,3.55,13,13,0,0,0-2.06,6c-.28,2.13-.35,4.29-.72,6.41a10.52,10.52,0,0,1-2.64,5.78,11.56,11.56,0,0,1-5.63,3,16.09,16.09,0,0,1-6.41,0c-2.12-.37-4.19-1-6.27-1.54a34.91,34.91,0,0,0-6.31-1.26,12.56,12.56,0,0,0-6.3.95,28.35,28.35,0,0,0-5.27,3.69c-1.63,1.4-3.19,2.88-4.71,4.41-2.95,3.09-6.1,6.18-7.83,10.16a27.85,27.85,0,0,0-2.17,12.6,43.27,43.27,0,0,0,.74,6.4c.2,1.05.43,2.1.7,3.15a27.28,27.28,0,0,0,1.05,3c.8,2,1.74,3.94,2.43,6s1.19,4.24.53,6.33a6.86,6.86,0,0,1-1.63,2.76c-.41.35-.81.71-1.23,1.05s-.88.62-1.34.9a35.65,35.65,0,0,1-5.77,2.87c-2,.81-4,1.49-6.1,2.12s-4.12,1.23-6.21,1.73a75.52,75.52,0,0,1-25.64,1.71c-4.28-.45-8.5-1.42-12.81-1.5a81.37,81.37,0,0,0-12.87.61C176.32,485.88,168,488,159.6,490c-4.18,1-8.36,2.06-12.57,2.92a107.94,107.94,0,0,1-12.75,2c-8.61.7-17.23-.78-25.52-3-4.16-1.12-8.25-2.45-12.33-3.81-2.05-.67-4.07-1.41-6.13-2S86.14,485,84,484.59c-4.21-.86-8.47-1.51-12.68-2.39S62.89,480.28,59.2,478a11.41,11.41,0,0,1-4.32-4.71A11.63,11.63,0,0,1,54,467c.56-4.3,2.41-8.28,4.37-12.09A61.88,61.88,0,0,1,74.6,435c1.67-1.36,3.5-2.51,5.21-3.8a11.42,11.42,0,0,0,4.09-4.84,5.66,5.66,0,0,0,.34-1.56l0-.8c0-.27-.07-.53-.09-.79a6.73,6.73,0,0,0-1.31-2.89,14.15,14.15,0,0,0-5.11-3.8c-3.89-1.87-8.2-2.56-12.41-3.36a42.15,42.15,0,0,1-6.26-1.57,11.85,11.85,0,0,1-5.37-3.49,10.64,10.64,0,0,1-2.21-6,46.43,46.43,0,0,1,0-6.46c.26-4.29.88-8.56.86-12.87A117.42,117.42,0,0,0,51.21,370q-.91-6.39-2.38-12.68c-.48-2.09-1-4.18-1.59-6.25l-1.79-6.2c-1.13-4.14-2.12-8.41-1.82-12.73a15.2,15.2,0,0,1,1.71-6.19,35.47,35.47,0,0,1,3.86-5.17,31.9,31.9,0,0,0,3.69-5.26,6.16,6.16,0,0,0,.74-3.07A3.65,3.65,0,0,0,52,309.8h.06a7.72,7.72,0,0,1-4.49,1,10.47,10.47,0,0,1-4.38-1.45,12.2,12.2,0,0,1-5.59-7.14,18.34,18.34,0,0,1,0-9.19,39.32,39.32,0,0,1,3.28-8.65c5.52-11.09,13.53-20.69,19-31.75a27.08,27.08,0,0,0,2.51-8.85c.46-3,.76-6.13,1.4-9.15a26.42,26.42,0,0,1,1.31-4.45,13.14,13.14,0,0,1,2.47-3.91,11.07,11.07,0,0,1,3.79-2.62,7.12,7.12,0,0,1,4.56-.12,20.28,20.28,0,0,1,4.23,1.88c1.36.74,2.71,1.49,4.12,2.11a16.72,16.72,0,0,0,4.43,1.25c1.53.17,3.08.2,4.62.26a33.89,33.89,0,0,1,4.61.41,11.51,11.51,0,0,1,4.31,1.62c2.62,1.72,4,4.65,6.33,6.7Z"/></svg>