<svg id="Layer_1" data-name="Layer 1" xmlns="http://www.w3.org/2000/svg" viewBox="0 0 600 600"><title>Albania</title><path d="M234.27,55.47a22.23,22.23,0,0,1,3.23-3.82,6.62,6.62,0,0,1,9.44.08,15,15,0,0,1,3.14,4.2,20.39,20.39,0,0,1,1.81,4.93c.18.89.31,1.73.44,2.54l.4,2.45c.56,3.19,1.34,6.42,3,8.63a6.28,6.28,0,0,0,3.12,2.22,5.75,5.75,0,0,0,3.62,0,12.59,12.59,0,0,0,3.65-2c1.2-.92,2.38-2,3.58-3.12A50.57,50.57,0,0,1,278,64.79a16.9,16.9,0,0,1,5.9-2.21,14,14,0,0,1,6.84.67,16.58,16.58,0,0,1,5.62,3.53,23.64,23.64,0,0,1,3.9,4.77,31.42,31.42,0,0,1,2.67,5.31c.35.92.68,1.86.95,2.82s.48,1.8.69,2.67c.82,3.47,1.4,6.73,2.23,9.51a16.61,16.61,0,0,0,3.3,6.54,16.38,16.38,0,0,0,5.67,3.74,71.94,71.94,0,0,0,8.5,2.79,77,77,0,0,1,10.47,3.57l1.41.63c.47.23.95.5,1.42.75s.95.51,1.43.79l1.42.93a33,33,0,0,1,5.24,4.44,38.76,38.76,0,0,1,7.18,11,56.14,56.14,0,0,1,3.58,11.46,106.38,106.38,0,0,1,1.63,11c.34,3.51.57,6.92.77,10.4q.56,10.38.36,20.82c-.07,3.47-.21,7-.39,10.42s-.51,6.94-.88,10.41c-.71,6.92-1.67,13.84-2.88,20.69-.47,2.84-.85,5.72-1.1,8.65s-.37,5.88-.37,8.89a165.39,165.39,0,0,0,1.19,18.44c.38,4,.5,7.36.67,10.67s.33,6.43.61,9.38a61,61,0,0,0,1.22,8.06c.16.53.29,1.13.44,1.61l.24.7a4.05,4.05,0,0,0,.23.63,6.27,6.27,0,0,0,.44,1,2.39,2.39,0,0,1,.15.37l.35.54a37.35,37.35,0,0,0,4.49,5.65c1.15,1.33,2.53,2.89,3.94,4.74a38.72,38.72,0,0,1,3.76,6.33c.47,1.15,1,2.29,1.34,3.44.18.57.37,1.14.54,1.71l.39,1.69.19.84c0,.16.07.27.08.34l.05.27.19,1.08c.14.72.28,1.39.43,2.07a15.09,15.09,0,0,0,2.59,6c.5.51.84.72,1,.71a1.27,1.27,0,0,0,.28,0h.19l.38,0a7,7,0,0,0,.81,0c1.13,0,2.46,0,4.34-.12.95,0,2-.06,3.35,0a17.77,17.77,0,0,1,2.13.21l1.17.2c.38.07.84.21,1.26.33s.85.25,1.28.4.88.36,1.31.56a15.79,15.79,0,0,1,2.5,1.42A18.69,18.69,0,0,1,401,332.6c.26.3.55.64.76.93l.63.89c.4.59.84,1.23,1.13,1.76l.95,1.68.57,1c.73,1.23,1.55,2.57,2.41,3.95s1.75,2.77,2.67,4.18c3.66,5.69,7.51,11.62,11,18.18A97.26,97.26,0,0,1,426,375.67a61.2,61.2,0,0,1,3.47,12.59,39.74,39.74,0,0,1-.84,16.46,22.73,22.73,0,0,1-.72,2.31l-.46,1.17a9.85,9.85,0,0,1-.59,1.11,21.52,21.52,0,0,1-1.41,2.11c-.51.69-1,1.36-1.55,2a38.44,38.44,0,0,1-3.57,3.54l-1.91,1.49a16.58,16.58,0,0,1-1.94,1.35l-2,1.17c-.33.19-.65.39-1,.57l-.95.46-1.91.93-1,.45-1.09.47a48.56,48.56,0,0,1-6.25,1.92c-1.32.36-1.76.57-1.5.39a1,1,0,0,0,.3-.23,12.29,12.29,0,0,0-1.56,3.78c-.34,1.18-.65,2.55-1.05,4.07s-.8,3.3-1.34,5.1-1.05,3.51-1.64,5.25-1.24,3.47-1.91,5.19a100.15,100.15,0,0,1-4.59,10.25,81.23,81.23,0,0,1-5.93,10,65.94,65.94,0,0,1-7.8,9.42,45.85,45.85,0,0,1-10.55,7.95A34.72,34.72,0,0,1,351.37,491c-4.81.37-8.25-.16-10.55-.13a13.31,13.31,0,0,0-1.49.05c-.22,0-.41.06-.58.09a1.28,1.28,0,0,1-.35.06,2.59,2.59,0,0,0-1.06.51,4.69,4.69,0,0,0-1.27,1.83,18,18,0,0,0-1.06,3.34c-.24,1.31-.44,2.7-.58,4.17s-.14,3-.16,4.6c0,3.17.13,6.51.18,10a58.94,58.94,0,0,1-.8,11.66,26.78,26.78,0,0,1-2.47,7.24L329.79,537l-1.14,2-1.3,2.12c-.22.37-.68.59-.86,1s-.29.89-.42,1.34c-.5,1.87-.77,4.08-2,6.06a27.32,27.32,0,0,1-2.15,2.93,31.66,31.66,0,0,1-2.79,2.93,29.6,29.6,0,0,1-3.39,2.71c-.61.43-1.27.79-1.91,1.17a16.13,16.13,0,0,1-2,1c-.67.31-1.35.61-2,.89s-1.35.46-2,.67a33.12,33.12,0,0,1-4,1,42,42,0,0,1-7.52.61,44.26,44.26,0,0,1-7.31-.67,47.24,47.24,0,0,1-6.95-1.8,50.39,50.39,0,0,1-12.63-6.4,49.42,49.42,0,0,1-10.6-10,55.62,55.62,0,0,1-7.28-12.08c-3.57-8.17-5.29-15.68-6.85-21.72-.77-3-1.52-5.72-2.26-7.86a23.23,23.23,0,0,0-2.22-4.84,9.94,9.94,0,0,0-2.11-2.49c-.25-.16-.41-.38-.69-.55a3.51,3.51,0,0,1-.4-.27c-.08-.05-.11-.09-.21-.16l-.38-.21-1.53-.89a9,9,0,0,1-1.5-1.2,15.47,15.47,0,0,1-1.42-1.73l-.69-1.06c-.24-.39-.49-.76-.72-1.17-.45-.84-1-1.68-1.47-2.55s-1-1.79-1.6-2.63a23.79,23.79,0,0,0-3.76-4.54,18.35,18.35,0,0,0-2.2-1.71l-2.31-1.56c-3.09-2.1-6.24-4.24-9.3-6.54-1.59-1.15-2.93-2.23-4.35-3.34s-2.81-2.22-4.17-3.39a68.61,68.61,0,0,1-7.66-7.59,89.76,89.76,0,0,1-6.49-8.64c-1-1.5-2-3-2.86-4.6-.47-.77-.89-1.57-1.33-2.36-.21-.36-.46-.86-.68-1.32s-.47-.93-.69-1.41a24.62,24.62,0,0,1-1.95-6.79,16.66,16.66,0,0,1,1.09-8.21,20.37,20.37,0,0,1,4-6.13,40.23,40.23,0,0,1,4.36-4l2.1-1.68,2.1-1.59a31.59,31.59,0,0,0,3.17-2.62,10.79,10.79,0,0,0,.94-1.05c.17-.27.28-.47.27-.46s0,0,0,0,0,0,0,.08,0,.1,0,.11h0s-.05-.06,0-.1-.1-.2-.14-.3a11.28,11.28,0,0,0-1.94-2.36c-.94-.94-2.08-1.94-3.34-3.08a38.32,38.32,0,0,1-4.24-4.33c-.18-.24-.42-.53-.56-.74l-.44-.62c-.29-.41-.57-.84-.84-1.27a29.35,29.35,0,0,1-1.54-2.69,31.43,31.43,0,0,1-2.3-6c-.26-1.07-.47-2.17-.65-3.26a31.48,31.48,0,0,1-.26-3.35,32.64,32.64,0,0,1,2.26-12.56,60.05,60.05,0,0,1,5.11-10.11c3.71-6.05,7.61-11.28,10.15-16.48a37,37,0,0,0,1.65-3.84,27,27,0,0,0,1-3.73,14.68,14.68,0,0,0,.23-1.84l.05-.46v-.57l0-1.15c0-1.53,0-3.09-.06-4.67-.21-6.3-1.05-13-1.05-20.18,0-1.78.06-3.58.17-5.39.06-.9.16-1.81.24-2.71l.26-2.47,1-9.93c.69-6.65,1.43-13.38,2.5-20.11a148.34,148.34,0,0,1,4.45-20.1c.53-1.65,1-3.3,1.61-4.93l.87-2.44c.31-.81.65-1.61,1-2.41,1.24-3.21,2.88-6.42,4.13-9.24,2.57-5.82,4.47-11.89,4.57-18a26.69,26.69,0,0,0-.25-4.49,22.15,22.15,0,0,0-.43-2.22,13.78,13.78,0,0,0-.54-2,4.26,4.26,0,0,0-.32-.69c-.12-.21-.16-.2,0-.08l.11.06L220,193l-.36-.11-1.2-.32c-1.72-.51-3.25-1-4.9-1.53a60,60,0,0,1-9.63-4,38.73,38.73,0,0,1-4.51-2.84,31.6,31.6,0,0,1-4.08-3.58,26.69,26.69,0,0,1-5.77-9.2,20.45,20.45,0,0,1-1.15-5.44,22.6,22.6,0,0,1,.36-5.42c.48-3.33,1.18-6.64,1.44-9.75a24,24,0,0,0-1.21-9.23c-.46-1.55-1-3.06-1.56-4.73a29,29,0,0,1-1.15-5.15,15.25,15.25,0,0,1,.33-5.46,19.52,19.52,0,0,1,2.06-4.91c1.73-3,3.71-5.67,5.6-8.42l5.73-8.2,11.46-16.39,22.91-32.79Zm.08.05c-.49.68-.83,1.45-1.29,2.14l-1.4,2.08-2.79,4.15-5.58,8.29L212.12,88.77,201,105.36l-5.58,8.3c-1.84,2.77-3.78,5.5-5.38,8.39a18.52,18.52,0,0,0-1.83,4.56,13.67,13.67,0,0,0-.2,4.86,27.44,27.44,0,0,0,1.17,4.79c.53,1.56,1.16,3.12,1.66,4.72a32.73,32.73,0,0,1,1.24,4.89,23.08,23.08,0,0,1,.27,5c-.22,3.37-.85,6.64-1.27,9.94a20.74,20.74,0,0,0-.24,4.9,18.2,18.2,0,0,0,1.1,4.76,23.88,23.88,0,0,0,5.35,8.17,30.83,30.83,0,0,0,8,5.73,56,56,0,0,0,9.22,3.66c1.58.49,3.19.95,4.77,1.39a9.64,9.64,0,0,1,2.51.79,3.42,3.42,0,0,1,1,1.05,7.27,7.27,0,0,1,.62,1.17,29.36,29.36,0,0,1,1.72,10c0,6.78-1.88,13.36-4.42,19.53-1.28,3.1-2.74,6.07-3.86,9.2-.29.78-.6,1.55-.88,2.34l-.78,2.36c-.55,1.57-1,3.18-1.44,4.77a142.74,142.74,0,0,0-3.87,19.56c-.89,6.6-1.48,13.24-2,19.88l-.8,10a78.94,78.94,0,0,0-.42,10c.14,6.66,1.11,13.27,1.52,19.93.11,1.66.17,3.33.19,5a30.93,30.93,0,0,1-.27,5,32.93,32.93,0,0,1-3,9.54c-2.84,6-6.77,11.48-10.14,17.22a53.92,53.92,0,0,0-4.38,9,25.32,25.32,0,0,0-1.67,9.78,23.11,23.11,0,0,0,2.53,9.59,32.54,32.54,0,0,0,2.55,4.29,36.69,36.69,0,0,0,3.33,3.72c2.3,2.38,4.78,4.73,6.2,7.78a6.76,6.76,0,0,1,.39,4.86,10.84,10.84,0,0,1-2.8,4.09c-2.38,2.34-5.25,4.1-7.77,6.28a34.56,34.56,0,0,0-3.64,3.41,13.89,13.89,0,0,0-2.73,4.16,9.77,9.77,0,0,0-.59,4.91,18.07,18.07,0,0,0,1.48,4.75,70.57,70.57,0,0,0,5.16,8.55,89.08,89.08,0,0,0,13.15,15,86.82,86.82,0,0,0,7.74,6.33,55.77,55.77,0,0,0,8.65,5c6,2.82,12.43,4.81,18.48,7.63a45.21,45.21,0,0,1,8.63,5,27.78,27.78,0,0,1,6.59,7.45,39.5,39.5,0,0,1,4,9.13,98,98,0,0,1,2.39,9.7c1.35,6.52,2.49,13.13,4.85,19.38a36.14,36.14,0,0,0,11.42,16.1,35.33,35.33,0,0,0,8.59,5.05,32.9,32.9,0,0,0,4.74,1.57,30.59,30.59,0,0,0,4.93.75,21.84,21.84,0,0,0,9.81-1.37,15.71,15.71,0,0,0,4.25-2.6,21.4,21.4,0,0,0,3.4-3.65,86.92,86.92,0,0,0,5.32-8.45l1.28-2.15c.44-.71.9-1.4,1.3-2.13a19,19,0,0,0,1.74-4.67,57.93,57.93,0,0,0,1.27-9.9l.51-10a69,69,0,0,1,1.16-9.92c.71-3.23,1.77-6.53,4-9a11.11,11.11,0,0,1,4-2.87A16.61,16.61,0,0,1,340,482.1c3.32-.3,6.67,0,10-.49a24,24,0,0,0,9.3-3.45,34,34,0,0,0,7.48-6.58A65.25,65.25,0,0,0,377,454.45a125.27,125.27,0,0,0,6.17-19c.79-3.24,1.42-6.52,2.31-9.73a25.54,25.54,0,0,1,4.19-9,14.13,14.13,0,0,1,3.73-3.29,21.37,21.37,0,0,1,4.62-1.89A48.63,48.63,0,0,0,402.7,410a23.4,23.4,0,0,0,4.3-2.52,6.68,6.68,0,0,0,1-.8l.92-.85c.57-.6,1.09-1.26,1.6-1.91a16.85,16.85,0,0,0,2.22-4.45,25.17,25.17,0,0,0,1-9.88c-.58-6.66-2.73-13.06-5.22-19.22s-5.5-12.14-8.56-18.06c-1.51-3-3.07-5.92-4.48-8.94A20.61,20.61,0,0,0,393,339a8.07,8.07,0,0,0-4-2.84,16.43,16.43,0,0,0-4.94-.57c-1.66,0-3.33,0-5-.11a13.54,13.54,0,0,1-4.86-1.09,12.1,12.1,0,0,1-3.94-3,27.8,27.8,0,0,1-4.82-8.7c-.6-1.56-1.05-3.16-1.58-4.74a24.78,24.78,0,0,0-2-4.57c-3.32-5.9-9.63-9.18-13.37-14.76a26.53,26.53,0,0,1-3.9-9.15,71.74,71.74,0,0,1-1.55-9.88c-.66-6.63-.69-13.31-1.32-20a170.66,170.66,0,0,1-1.06-20,106.09,106.09,0,0,1,2-19.87q2-9.81,3.24-19.73a272.76,272.76,0,0,0,2.1-39.89,144.09,144.09,0,0,0-1.48-19.92,48.36,48.36,0,0,0-2.61-9.62,29,29,0,0,0-5.09-8.53,26,26,0,0,0-7.93-5.94,79,79,0,0,0-9.27-3.72,70.66,70.66,0,0,1-9.25-3.78,21.93,21.93,0,0,1-7.68-6.3,24,24,0,0,1-3.77-9.2c-.7-3.26-1-6.59-1.62-9.87a33.47,33.47,0,0,0-1.13-4.85,25.09,25.09,0,0,0-2-4.57c-1.62-2.86-3.9-5.55-7-6.83a10.24,10.24,0,0,0-4.87-.69,13.46,13.46,0,0,0-4.7,1.53,50.34,50.34,0,0,0-8,5.9,49,49,0,0,1-4,3,14.87,14.87,0,0,1-4.51,2.15,8.22,8.22,0,0,1-8.8-3.42c-1.89-2.81-2.45-6.22-2.9-9.49-.23-1.65-.34-3.32-.62-5a19.26,19.26,0,0,0-1.51-4.74,14,14,0,0,0-2.8-4.09,7.13,7.13,0,0,0-4.35-2.2,6.41,6.41,0,0,0-4.58,1.63,17.42,17.42,0,0,0-3.09,3.9Z"/></svg>