<svg id="Layer_1" data-name="Layer 1" xmlns="http://www.w3.org/2000/svg" viewBox="0 0 600 600"><title>AntiguaAndBarbuda</title><path d="M405.23,217.44c.42-4.34.32-8.72.78-13.06l.58-6.51c.2-2.16.41-4.33.49-6.5a51.94,51.94,0,0,0-.74-12.9,58.52,58.52,0,0,0-3.61-12.25c-3.28-7.86-7.83-15-12.38-21.94-.59-.86-1.14-1.73-1.75-2.58s-1.13-1.75-1.73-2.6c-1.15-1.73-2.4-3.39-3.55-5.12-2.36-3.42-4.51-7-6.68-10.66s-4.32-7.38-6.85-10.85a98.61,98.61,0,0,0-8.24-9.93q-4.37-4.79-8.84-9.53l-4.44-4.71a42.61,42.61,0,0,0-4.38-4,17.27,17.27,0,0,0-4.43-2.56,19.15,19.15,0,0,0-5.12-1c-1-.1-2-.17-3.11-.24s-2.27-.15-3.42-.26a55.14,55.14,0,0,1-7.09-1.08,34.08,34.08,0,0,1-7.3-2.49,24,24,0,0,1-6.79-4.91,33.62,33.62,0,0,1-4.52-6.28c-.56-1-1.08-1.81-1.59-2.57A16.09,16.09,0,0,0,299,61a14.71,14.71,0,0,0-8.18-4.48c-.83-.19-1.7-.3-2.58-.41l-.67,0a3,3,0,0,0-.54,0c-.19,0-.45,0-.55,0a.52.52,0,0,1-.21,0c-.07,0-.11.07-.17.08s-.23.15-.36.19a6.86,6.86,0,0,0-1.17,1.09c-1,1.05-2.19,2.86-3.94,4.92-.41.5-1,1-1.49,1.57a21.49,21.49,0,0,1-1.87,1.57A16,16,0,0,1,275,66.89c-.4.2-.87.43-1.23.57l-1,.38a44.21,44.21,0,0,1-7.28,1.7,45.94,45.94,0,0,0-5.43,1.1,11.38,11.38,0,0,0-3.74,2,14.62,14.62,0,0,0-3.05,3.46,18,18,0,0,0-1.91,4.5,16.66,16.66,0,0,0-.44,4.86,13,13,0,0,0,1.2,4.56,17.25,17.25,0,0,0,3.09,4.26c1.36,1.48,2.95,3,4.59,4.73a34.45,34.45,0,0,1,2.4,2.84,25.11,25.11,0,0,1,2.06,3.29c2.37,4.57,3.24,9.23,4.09,13.5l2.5,12.84,5,25.63a15.45,15.45,0,0,0,1.89,5.33,5.44,5.44,0,0,0,3.79,2.51,3.25,3.25,0,0,0,3.31-2,15.2,15.2,0,0,0,1.27-5.63c.2-2.13.3-4.27.37-6.41s0-4.29-.11-6.43a94.72,94.72,0,0,0-1.47-12.78,101,101,0,0,0-3.14-12.46l-4.35-12.4a55.79,55.79,0,0,1-1.78-6.58,36.72,36.72,0,0,1-.86-7c0-.62,0-1.17,0-1.88a7.91,7.91,0,0,1,.53-2.48,6.12,6.12,0,0,1,2.06-2.69,7.53,7.53,0,0,1,2.71-1.22,13.74,13.74,0,0,1,2.23-.35l1.88-.09a31.73,31.73,0,0,1,3.77.19A30.85,30.85,0,0,1,302.07,90c.52.38,1.05.75,1.57,1.15l1.5,1.26,1.4,1.37c.45.48.88,1,1.31,1.48a32,32,0,0,1,4.28,6.65,48.72,48.72,0,0,1,2.52,7c.64,2.3,1.19,4.48,1.61,6.69a71.48,71.48,0,0,1,1.19,13.47c0,4.52-.31,9-.41,13.47-.13,2.23-.09,4.45-.16,6.68,0,1.11,0,2.21,0,3.33s-.06,2.24,0,3.38c-.08,4.54-.22,9.45-2,14.41a24.58,24.58,0,0,1-1.72,3.68,24,24,0,0,1-2.41,3.35,18.87,18.87,0,0,1-3.16,2.87,15.81,15.81,0,0,1-3.91,2.18,17.08,17.08,0,0,1-4.53,1.11,14.71,14.71,0,0,1-4.32-.22,38.41,38.41,0,0,1-6.08-2.09,7.22,7.22,0,0,0-2.33-.53,4,4,0,0,0-2.27.54c-1.56.79-2.87,2.49-4.15,4.07a44,44,0,0,0-6.2,10.66,31,31,0,0,0-1.69,5.7,8.88,8.88,0,0,0,.13,4.78,2.47,2.47,0,0,0,.89,1.14,5.22,5.22,0,0,0,1.64.79,23.45,23.45,0,0,0,5.4.8l6.51.31.85,0,.29-.06c.19,0,.4-.12.6-.14s.46-.21.71-.32.53-.27.86-.52a40.65,40.65,0,0,0,4.24-3.62,45,45,0,0,1,5.62-4.67,22.31,22.31,0,0,1,3.86-2.09,19.88,19.88,0,0,1,2.29-.79c.45-.14.63-.17.93-.25l.85-.21a27.81,27.81,0,0,1,8.11-1,17.83,17.83,0,0,1,5,.92,17.55,17.55,0,0,1,4.58,2.37,28.52,28.52,0,0,1,5.9,5.91l2,2.57c.61.73,1.17,1.5,1.81,2.22,1.26,1.44,2.55,2.86,3.93,4.21a48,48,0,0,0,4.36,3.81,50.9,50.9,0,0,0,9.83,6.33c.87.45,1.78.83,2.68,1.23s1.79.74,2.84,1.11a34.21,34.21,0,0,1,7,3.2,14.54,14.54,0,0,1,3.59,3.21,14.37,14.37,0,0,1,2.27,4.15,67.79,67.79,0,0,1,1.59,6.63,9.48,9.48,0,0,0,.7,2,3,3,0,0,0,.92,1.13,2.56,2.56,0,0,0,1.37.51,6.45,6.45,0,0,0,2.23-.31,40.56,40.56,0,0,0,5.64-2.4,33.56,33.56,0,0,1,6.6-2.54,11.53,11.53,0,0,1,3.91-.26,9,9,0,0,1,3.78,1.3,20.65,20.65,0,0,1,4.92,5,22.4,22.4,0,0,0,2.11,2.34,16.39,16.39,0,0,0,2.39,1.94,3.19,3.19,0,0,0,1.17.49c.17,0,.22,0,.31,0a.68.68,0,0,0,.24-.35,6.92,6.92,0,0,0,.12-2.94,45.54,45.54,0,0,0-1.46-6.3,64.46,64.46,0,0,1-2.67-12.8,82.55,82.55,0,0,1-.26-13.06Zm0,0A74,74,0,0,0,409.05,243a45.22,45.22,0,0,1,1.68,6.4,7.85,7.85,0,0,1,0,3.51,2.09,2.09,0,0,1-.61.95,1.75,1.75,0,0,1-1.14.34,4,4,0,0,1-1.79-.58,16.87,16.87,0,0,1-2.74-2,23.8,23.8,0,0,1-2.39-2.32,19.81,19.81,0,0,0-4.68-4.24,7.59,7.59,0,0,0-5.92-.44,28.33,28.33,0,0,0-5.79,2.69,46.32,46.32,0,0,1-5.86,3,11,11,0,0,1-3.32.79,6.66,6.66,0,0,1-3.4-.68,7.06,7.06,0,0,1-2.6-2.28,11.65,11.65,0,0,1-1.46-3c-.71-2.11-1.09-4.26-1.88-6.24a9.07,9.07,0,0,0-4-4.7,27.82,27.82,0,0,0-6-2.37A58.13,58.13,0,0,1,334.55,219a61.86,61.86,0,0,1-8.58-9.84,23.07,23.07,0,0,0-4.47-4.73,11,11,0,0,0-6.06-2.19,24.8,24.8,0,0,0-6.48.63,19.08,19.08,0,0,0-3.16.83,17.59,17.59,0,0,0-2.91,1.46c-3.72,2.29-6.7,5.59-10.51,7.75a15.24,15.24,0,0,1-1.47.7,14,14,0,0,1-1.56.46,9.59,9.59,0,0,1-3.25,0c-2.17-.26-4.34-.44-6.5-.71a25.57,25.57,0,0,1-6.35-1.45,8.66,8.66,0,0,1-2.74-1.75,6.35,6.35,0,0,1-1.64-2.78,13,13,0,0,1,.17-6.46,33.85,33.85,0,0,1,2.13-6.17A50.83,50.83,0,0,1,278,183.69a25.1,25.1,0,0,1,4.63-4.58,9.67,9.67,0,0,1,6.17-1.73c2.19.07,4.32.56,6.49.78a13.1,13.1,0,0,0,6.42-.73,17.25,17.25,0,0,0,9.07-9,34.23,34.23,0,0,0,2.67-12.71,168.47,168.47,0,0,0-1.13-26.09c-.51-4.33-1.2-8.63-2-12.91a63.46,63.46,0,0,0-3.47-12.57A25.86,25.86,0,0,0,299,93.92a27.26,27.26,0,0,0-11.77-5.37,25.15,25.15,0,0,0-3.24-.4,15.43,15.43,0,0,0-3.26.1,3.25,3.25,0,0,0-2.54,1.83,9.19,9.19,0,0,0-.51,3.21,41.44,41.44,0,0,0,1.78,12.89c1.16,4.2,2.67,8.29,3.95,12.46a104.3,104.3,0,0,1,3.09,12.69,106.08,106.08,0,0,1,1.4,26,17,17,0,0,1-1.34,6.35,6.11,6.11,0,0,1-2.09,2.47,5,5,0,0,1-3.11.77,7.56,7.56,0,0,1-5.41-3.29,17.49,17.49,0,0,1-2.42-6l-5.73-25.5-2.86-12.76c-1-4.23-1.93-8.54-4.06-12.37s-5.62-6.63-8.7-9.67a22.23,22.23,0,0,1-4.07-5.09,17.56,17.56,0,0,1-2-6.16,21.88,21.88,0,0,1,.2-6.51,23.5,23.5,0,0,1,2.19-6.13,21,21,0,0,1,4-5.13A17.57,17.57,0,0,1,258,65c4.12-1.48,8.57-1.62,12.7-3.05a10.82,10.82,0,0,0,2.89-1.48A14.74,14.74,0,0,0,276,58.2c1.45-1.63,2.68-3.44,4.19-5a12.2,12.2,0,0,1,2.51-2.07,8.29,8.29,0,0,1,1.49-.67c.26-.08.52-.18.78-.24l.81-.12a13.19,13.19,0,0,1,3.26.09,28.79,28.79,0,0,1,3.21.59,22.8,22.8,0,0,1,6.07,2.37,19.27,19.27,0,0,1,5,4.16c2.89,3.29,4.29,7.61,7.3,10.8A18.55,18.55,0,0,0,315.8,72a29,29,0,0,0,6.14,2.18,49.93,49.93,0,0,0,6.43,1.1c2.17.25,4.34.36,6.51.59a24,24,0,0,1,6.36,1.44,22.06,22.06,0,0,1,5.6,3.33c3.41,2.73,6.27,6,9.28,9.18s6,6.35,8.91,9.57c5.88,6.43,11.6,13,16.89,19.94a156.09,156.09,0,0,1,14.21,21.91,108.78,108.78,0,0,1,9.59,24.26,76,76,0,0,1,2.1,12.89,89,89,0,0,1-.12,13.06c-.6,8.69-2,17.31-2.39,26Z"/><path d="M490.24,478.57c-.94,2.44-.64,5.12-.39,7.67a17.48,17.48,0,0,1-.78,7.78,15.19,15.19,0,0,1-4.54,6.5,25.76,25.76,0,0,1-6.88,4c-4.92,2-10.19,2.83-15.34,3.5a74.39,74.39,0,0,1-15.83.69,44.79,44.79,0,0,1-8-1.4c-2.6-.68-5.11-1.52-7.57-2.37-4.91-1.68-9.69-3.36-14.37-3.86a17.4,17.4,0,0,0-1.74-.13,14.29,14.29,0,0,0-1.73,0,8.65,8.65,0,0,0-2.86.38,2.08,2.08,0,0,0-1.2,1,4.44,4.44,0,0,0-.48,2,7.07,7.07,0,0,0,.4,2.52,12.76,12.76,0,0,0,1.36,2.58c1.21,1.83,2.92,3.77,4.53,6.29a17.74,17.74,0,0,1,1.15,2l.53,1.06.44,1.1a17.79,17.79,0,0,1,.74,2.24,20.57,20.57,0,0,1,.51,2.3,26.24,26.24,0,0,1-.07,9.27,27,27,0,0,1-3.25,8.7,24.72,24.72,0,0,1-6.3,7.12,28.58,28.58,0,0,1-35.23-1.08,18.63,18.63,0,0,1-3.5-4.1,14.76,14.76,0,0,1-1.31-2.64,14.48,14.48,0,0,1-.48-1.45l-.26-1c-.69-2.63-1.21-5.37-1.79-7.28a5.71,5.71,0,0,0-.36-1c-.08-.16-.07,0,.38.38a2.82,2.82,0,0,0,.78.43,2.3,2.3,0,0,0,.57.11c.19,0,0,0-.27.09a15.62,15.62,0,0,0-2.55,1.11c-.48.24-1,.53-1.5.81l-.77.44-1.13.62a22.29,22.29,0,0,1-4.88,1.78,32.28,32.28,0,0,1-4.67.71c-3,.24-5.68.17-8.13.22a35.87,35.87,0,0,0-6.75.64,57.81,57.81,0,0,0-6.84,1.8c-4.7,1.48-9.58,3.4-15.15,4.83a50.18,50.18,0,0,1-8.66,1.46,34.3,34.3,0,0,1-9.36-.5,28.87,28.87,0,0,1-4.77-1.42,27.8,27.8,0,0,1-4.52-2.37,43.4,43.4,0,0,1-6.86-5.92c-1.88-1.9-3.47-3.64-5-4.92a22.42,22.42,0,0,0-2.43-1.73c-.89-.54-1.86-1.06-2.9-1.58-4.15-2.06-9.53-3.84-14.7-7.72A34,34,0,0,1,249,513.6a46.14,46.14,0,0,1-4.59-7.65,62.69,62.69,0,0,1-3.11-7.94c-.43-1.32-.81-2.66-1.17-4s-.76-2.79-1-4.4a20.26,20.26,0,0,1-.23-5.37,13.26,13.26,0,0,1,4.23-8.58c.6-.57,1-.94,1.2-1.15s.18-.22.19-.24a3.52,3.52,0,0,0,.22-.62,1.44,1.44,0,0,0-.05-1,2,2,0,0,0-.29-.52,4.43,4.43,0,0,0-.57-.59,5.78,5.78,0,0,0-1.79-1.09l-3-1.22a20.79,20.79,0,0,1-4.76-2.69,14.52,14.52,0,0,1-1.25-1.06,12.23,12.23,0,0,1-1.08-1.08,18.08,18.08,0,0,1-2-2.68,13.25,13.25,0,0,1-1.55-3.7,12.73,12.73,0,0,1-.27-4.95,10.36,10.36,0,0,1,5.6-7.89,15.65,15.65,0,0,1,3.68-1.2l2.81-.51c1.64-.28,3-.37,4-.51a11,11,0,0,0,1.22-.2,3.87,3.87,0,0,0,.83-.24,5.36,5.36,0,0,0,1.62-1,5.77,5.77,0,0,0,1.93-3.34,6.48,6.48,0,0,0-.8-4.16,5.93,5.93,0,0,0-1.38-1.67c-.1-.08-.09-.06-.13-.13s0,0-.1-.06-.09-.07-.23-.07l-.18,0-.26,0c-.72-.09-2.19.16-4.33-.07a9.42,9.42,0,0,1-3.5-1.15,9.24,9.24,0,0,1-2.69-2.31,9.9,9.9,0,0,1-.87-1.22,8.76,8.76,0,0,1-.69-1.28c-.21-.45-.42-.89-.59-1.34l-.38-1.37a7.46,7.46,0,0,1-.26-1.35l-.15-1.35a21.6,21.6,0,0,1,.09-2.56,26.07,26.07,0,0,1,2.73-8.8,39.44,39.44,0,0,1,4.79-7.3c.46-.57,1-1.11,1.51-1.66a20.72,20.72,0,0,1,1.72-1.56l.86-.73.9-.68a21.09,21.09,0,0,1,1.87-1.26,30.23,30.23,0,0,1,17.18-4.53,26.91,26.91,0,0,1,9,1.85c.7.27,1.24.51,1.83.75a7.81,7.81,0,0,0,.8.43,6.81,6.81,0,0,0,.86.16,11,11,0,0,0,2.74,0c.26,0,.45-.05.42-.09s-.18,0-.36.06-.16.06-.21.1-.13.11-.16.15-.08,0-.05-.19c.07-.48.08-1.54.19-3.1l.23-2.3c.11-.75.25-1.51.38-2.26a46.23,46.23,0,0,1,2.64-8.66,64.62,64.62,0,0,1,4-7.79,116.42,116.42,0,0,1,9.63-13.46l2.54-3.07c.89-1.06,1.83-2.15,2.89-3.25a34.93,34.93,0,0,1,3.58-3.29,25.75,25.75,0,0,1,4.67-3,20.61,20.61,0,0,1,6.13-2,19.22,19.22,0,0,1,6.77.22,22.92,22.92,0,0,1,5.68,2,39,39,0,0,1,4.24,2.51c2.45,1.68,4.35,3.18,5.9,4.08a19.27,19.27,0,0,0,2.44,1.24c.84.35,1.71.63,2.55,1.08a23,23,0,0,1,2.58,1.65,17.51,17.51,0,0,0,3.09,1.83,19.86,19.86,0,0,0,3.92,1.33c1.38.34,2.86.53,4.38,1a18.75,18.75,0,0,1,4.53,1.88,15.06,15.06,0,0,1,3.81,3.24,19.16,19.16,0,0,1,3.91,8.42,31.17,31.17,0,0,1,.52,4.37,32.87,32.87,0,0,1-.13,4.33c-.31,2.91-.92,5.48-1.42,8-.25,1.26-.48,2.51-.69,3.73s-.31,2.4-.38,3.55a25.93,25.93,0,0,0,0,3.31,13.78,13.78,0,0,0,.55,2.83,12.1,12.1,0,0,0,1.17,2.33,11.22,11.22,0,0,0,1.67,2,9.64,9.64,0,0,0,1.83,1.31,5.58,5.58,0,0,0,1.52.43,2.19,2.19,0,0,0,1.17-.23,5,5,0,0,0,1.43-.87,24.92,24.92,0,0,0,4.15-4.83c1.57-2.12,3.12-4.55,5.16-6.82a24.22,24.22,0,0,1,7-5.34,54.56,54.56,0,0,1,7.54-3,19,19,0,0,1,2.12-.63,7.54,7.54,0,0,1,2.88-.09,5.68,5.68,0,0,1,1.51.51,3.89,3.89,0,0,1,.63.34,3.66,3.66,0,0,1,.64.44,5.15,5.15,0,0,1,1.92,2.94,6.35,6.35,0,0,1-.13,3.11,10.94,10.94,0,0,1-.93,2.29,24.84,24.84,0,0,1-2.38,3.59c-.82,1.06-1.72,2.12-2.33,3a2,2,0,0,0-.24.4.33.33,0,0,0,.06-.23,1.2,1.2,0,0,0-.23-.67c-.13-.17-.2-.2-.18-.2a1.39,1.39,0,0,0,.52,0c.07,0,0,0,.1,0l.3-.1c.2-.06.43-.17.65-.26a21.18,21.18,0,0,0,2.89-1.73c2-1.39,3.95-3,6-4.65a61.61,61.61,0,0,1,6.71-4.72,21,21,0,0,1,4.17-1.89,11.93,11.93,0,0,1,5.32-.51,10.63,10.63,0,0,1,1.44.32c.47.15.94.35,1.39.54s.84.45,1.29.76a7.39,7.39,0,0,1,1.31,1.13,8.85,8.85,0,0,1,2.26,5.9,13.65,13.65,0,0,1-2.27,7.64,19.41,19.41,0,0,1-1.45,1.89c-2,2.24-3.83,3.89-4.86,5.46a6.48,6.48,0,0,0-1.09,4.64,6.18,6.18,0,0,0,2.15,4,7.12,7.12,0,0,0,4.37,1.49,6.12,6.12,0,0,0,2.21-.43,26.59,26.59,0,0,0,2.92-1.6,20.52,20.52,0,0,1,2.1-1.06,21.66,21.66,0,0,1,2.24-.83,26.2,26.2,0,0,1,4.48-1,47,47,0,0,1,8.42-.18,68.55,68.55,0,0,1,8.18.78,23.89,23.89,0,0,1,8.55,3,14.48,14.48,0,0,1,3.77,3.27,14.65,14.65,0,0,1,2.39,4.34,13.94,13.94,0,0,1,.61,2.43,11.36,11.36,0,0,1,.2,2.56,10.37,10.37,0,0,1-1.6,5.16,10.08,10.08,0,0,1-4,3.54,18.63,18.63,0,0,1-4.3,1.45c-1.34.31-2.59.53-3.71.82a16.51,16.51,0,0,0-3.17,1.16,18.27,18.27,0,0,0-9.05,10.07,13.52,13.52,0,0,0-.81,3.32,7.26,7.26,0,0,0,.28,3.09,3.65,3.65,0,0,0,1.71,2.08,5.26,5.26,0,0,0,3,.57,9.33,9.33,0,0,0,3.27-.86,20.77,20.77,0,0,0,3.1-1.93c2-1.48,4.08-3.3,6.63-4.39a21.92,21.92,0,0,1,7.83-1.71,58.24,58.24,0,0,1,7.83.22,39.25,39.25,0,0,1,7.74,1.17,13.27,13.27,0,0,1,3.61,1.6,10.18,10.18,0,0,1,2.81,2.74,4.47,4.47,0,0,1-1.06,6.89,50.54,50.54,0,0,1-6.76,3.82,13.92,13.92,0,0,0-3.14,2.24,8.46,8.46,0,0,0-2,3.27Zm0,0a11.13,11.13,0,0,1,.75-1.79,8.43,8.43,0,0,1,1.17-1.57,13.54,13.54,0,0,1,3.1-2.38c1.13-.66,2.29-1.24,3.4-1.88a26,26,0,0,0,3.17-2.1,4.79,4.79,0,0,0,1.9-2.87,4.74,4.74,0,0,0-1.1-3.23,10.5,10.5,0,0,0-6.07-3.88,37.69,37.69,0,0,0-7.56-1,59.69,59.69,0,0,0-7.68,0,20.9,20.9,0,0,0-7.31,1.76c-2.28,1-4.18,2.78-6.24,4.38a21.57,21.57,0,0,1-3.31,2.19,11.16,11.16,0,0,1-3.88,1.15,7.27,7.27,0,0,1-4-.66,5.72,5.72,0,0,1-2.75-3.06,11.85,11.85,0,0,1,.28-7.89,19.83,19.83,0,0,1,3.85-6.85A20.33,20.33,0,0,1,464,444a19.88,19.88,0,0,1,3.64-1.49c1.26-.36,2.53-.62,3.77-.94a15.86,15.86,0,0,0,3.59-1.3,7.07,7.07,0,0,0,2.73-2.5,8.29,8.29,0,0,0,.35-7.29,11,11,0,0,0-4.83-5.71,20,20,0,0,0-7.28-2.38,62.2,62.2,0,0,0-7.72-.55,45.37,45.37,0,0,0-7.73.3,19.4,19.4,0,0,0-7.29,2.43,30.4,30.4,0,0,1-3.42,1.85,10.23,10.23,0,0,1-3.79.74,11,11,0,0,1-7.15-2.57,10.66,10.66,0,0,1-1.55-14.08c1.49-2.13,3.51-3.8,5.22-5.74a10.32,10.32,0,0,0,3-7,5.29,5.29,0,0,0-1.25-3.58,5.94,5.94,0,0,0-3.39-1.74c-2.6-.4-5.15.63-7.39,1.85a54.41,54.41,0,0,0-6.44,4.32c-2.07,1.54-4.1,3.15-6.25,4.59a22,22,0,0,1-3.38,1.9,7.57,7.57,0,0,1-1.85.55,3.88,3.88,0,0,1-1.9-.29,1.65,1.65,0,0,1-1.08-1.47,2.79,2.79,0,0,1,.72-1.76c.77-1,1.64-2,2.43-3a24.09,24.09,0,0,0,2.17-3.21,5.67,5.67,0,0,0,.86-3.7,3.54,3.54,0,0,0-2.78-2.42,7.72,7.72,0,0,0-3.78.64,51.4,51.4,0,0,0-7.19,2.89,17.36,17.36,0,0,0-6,4.79,33.7,33.7,0,0,0-3.69,6.81,25.6,25.6,0,0,1-3.85,6.69,11.18,11.18,0,0,1-1.42,1.33,9.26,9.26,0,0,1-1.67,1,7.36,7.36,0,0,1-3.78.67,9.38,9.38,0,0,1-3.67-1.15,13.83,13.83,0,0,1-3-2.43,14.95,14.95,0,0,1-3.6-6.78,23,23,0,0,1-.06-7.72c.38-2.56,1-5.07,1.64-7.58a70.5,70.5,0,0,0,1.62-7.58,25.36,25.36,0,0,0-.16-7.73,19.15,19.15,0,0,0-1.13-3.71,13.26,13.26,0,0,0-2.06-3.27,10.79,10.79,0,0,0-3-2.38,12.87,12.87,0,0,0-3.67-1.21,46.54,46.54,0,0,0-7.74-.4,30.1,30.1,0,0,1-7.68-1,28.49,28.49,0,0,1-7.15-3c-2.24-1.3-4.28-2.9-6.42-4.36a20.39,20.39,0,0,0-6.94-3.35,11.59,11.59,0,0,0-7.55,1,24.08,24.08,0,0,0-6.21,4.6c-1.84,1.81-3.54,3.77-5.27,5.69a110.46,110.46,0,0,0-9.63,12.15,56.86,56.86,0,0,0-3.83,6.75,39.27,39.27,0,0,0-2.56,7.3c-.14.64-.29,1.27-.41,1.9l-.26,1.92a32.83,32.83,0,0,1-.53,3.84,6.08,6.08,0,0,1-.73,1.79,4.41,4.41,0,0,1-1.34,1.38,5.52,5.52,0,0,1-3.73.73c-2.58-.32-4.95-1.47-7.34-2.42a24.77,24.77,0,0,0-7.54-1.68,26,26,0,0,0-14.87,3.55,22.39,22.39,0,0,0-5.89,5,32.14,32.14,0,0,0-4.18,6.52,22.07,22.07,0,0,0-2.17,7.4,9.85,9.85,0,0,0,2,7.28,4.87,4.87,0,0,0,3.32,1.8c1.29.13,2.58-.1,3.87-.09a5.94,5.94,0,0,1,3.66,1.07,11.42,11.42,0,0,1,2.71,2.75,11.81,11.81,0,0,1,2.08,7.33,11.28,11.28,0,0,1-3.06,7,11.64,11.64,0,0,1-6.73,3.59c-1.27.25-2.55.41-3.82.68a9.68,9.68,0,0,0-3.59,1.4,5,5,0,0,0-2,3.18,5.91,5.91,0,0,0,.79,3.72,11.75,11.75,0,0,0,2.41,3,17.43,17.43,0,0,0,3.22,2.16,36,36,0,0,1,3.34,2,13.38,13.38,0,0,1,2.84,2.63,9.09,9.09,0,0,1,1.75,3.43,7.8,7.8,0,0,1,0,3.84,7.32,7.32,0,0,1-1.83,3.38,20.7,20.7,0,0,0-2.67,2.79,8.11,8.11,0,0,0-1.27,3.62,15.21,15.21,0,0,0,.17,3.87,64.21,64.21,0,0,0,4.93,14.67,32.28,32.28,0,0,0,9.56,12c4.2,3.08,9.18,4.74,13.83,7a32.16,32.16,0,0,1,6.61,4,67.56,67.56,0,0,1,5.57,5.4,36.67,36.67,0,0,0,5.8,5.12,20.34,20.34,0,0,0,7.12,2.95,27.78,27.78,0,0,0,7.72.5,43.94,43.94,0,0,0,7.65-1.18c5-1.22,9.87-3.1,14.82-4.62a64.69,64.69,0,0,1,7.52-1.91,41.58,41.58,0,0,1,7.72-.68c2.58,0,5.17,0,7.75-.15a19.55,19.55,0,0,0,7.48-1.87,37,37,0,0,1,7-3.32,7,7,0,0,1,1.92-.27,3,3,0,0,1,1.81.62,6.72,6.72,0,0,1,1.86,3.35c.71,2.49,1.15,5,1.78,7.55a11.65,11.65,0,0,0,3.89,6.54,23.61,23.61,0,0,0,28.77,1.14,21.58,21.58,0,0,0,8.05-12.86,20.68,20.68,0,0,0-2.39-14.94c-1.34-2.21-3-4.21-4.34-6.43a15.57,15.57,0,0,1-1.62-3.52A10.68,10.68,0,0,1,405,504a7.61,7.61,0,0,1,1.2-3.65,5.59,5.59,0,0,1,3.09-2.24,12.55,12.55,0,0,1,3.86-.38,18.14,18.14,0,0,1,1.94.1c.64.05,1.29.11,1.92.22,10.29,1.59,19.29,7.68,29.69,8.77a73.58,73.58,0,0,0,15.49-.12,58.47,58.47,0,0,0,15.17-3,24.56,24.56,0,0,0,6.78-3.7,14.61,14.61,0,0,0,4.53-6.17,18.59,18.59,0,0,0,1-7.62c-.08-2.57-.38-5.22.46-7.71Z"/><path d="M385.14,377.74a34.8,34.8,0,0,0-.76,5c-.08.84-.14,1.69-.18,2.54a3.64,3.64,0,0,0,.1,1c.08.29.23.45.3.44a1.23,1.23,0,0,1,.31-.06,4.8,4.8,0,0,0,.78-.19,13,13,0,0,0,2-.81c.68-.32,1.35-.69,2-1.07.33-.19.65-.39.95-.58l.41-.29.47-.36c1.29-1,2.65-2.08,4.17-3a15.09,15.09,0,0,1,4.95-2.15,45.59,45.59,0,0,0,4.94-1,4.17,4.17,0,0,0,1.81-1.16,4.07,4.07,0,0,0,.85-1.85,5.65,5.65,0,0,0-1-3.87,14,14,0,0,0-2.89-3.32,12.73,12.73,0,0,0-3.69-2.23,6.39,6.39,0,0,0-.91-.26,3.36,3.36,0,0,0-.88-.09c-.34,0-.69,0-1,0s-.66.09-1,.11c-2.63.39-4.95,2.1-7.14,4.44A19.23,19.23,0,0,0,385.14,377.74Zm-.4-.09c.75-3.3,1.28-6.69,2.7-10.06a13.06,13.06,0,0,1,3.27-4.59,11.55,11.55,0,0,1,5.38-2.64l1.51-.19,1.5,0a7,7,0,0,1,1.63.23,9.7,9.7,0,0,1,1.49.53,15.87,15.87,0,0,1,4.69,3.33,14.42,14.42,0,0,1,3.2,4.69,7.89,7.89,0,0,1,.19,5.93,6,6,0,0,1-4.37,3.65c-1.76.42-3.47.44-5,.91a8.92,8.92,0,0,0-3.88,2.61c-1.11,1.18-2.11,2.5-3.31,3.79l-.47.48c-.2.18-.39.35-.58.5a12.31,12.31,0,0,1-1.15.83,15.16,15.16,0,0,1-2.47,1.27,10.45,10.45,0,0,1-2.85.72,5.28,5.28,0,0,1-1.74-.11,3.13,3.13,0,0,1-1.87-1.21,3,3,0,0,1-.46-1.93,5.85,5.85,0,0,1,.34-1.48c.31-.8.61-1.6.88-2.4A35.58,35.58,0,0,0,384.74,377.65Z"/><path d="M429.53,367.54a3.22,3.22,0,0,0-2.18,1.87,10.41,10.41,0,0,0-1,2.83c-.16.87-.15,1.76-.31,2.8a18,18,0,0,1-.75,3.06c-.67,2-1.75,4-2.27,5.92-.09.43-.05.58.25.82a1.27,1.27,0,0,0,1.05.18,2.21,2.21,0,0,0,1.07-.58,3.74,3.74,0,0,0,.72-1.05,21.33,21.33,0,0,1,1.42-2.95,9.11,9.11,0,0,1,2.77-2.59,13.88,13.88,0,0,1,3.29-1.5c.58-.18.79-.31.64-.24s-.09.17,0,0a2.84,2.84,0,0,0,0-.87c0-.39-.11-.82-.2-1.27-.18-.88-.35-1.82-.61-2.75a6.47,6.47,0,0,0-1.26-2.61A3,3,0,0,0,429.53,367.54Zm-.06-.39c2.22-.36,4.53,1,6.19,2.64a9.67,9.67,0,0,1,2,2.94,9.53,9.53,0,0,1,.59,1.78,6.39,6.39,0,0,1,.11,2.26,4.15,4.15,0,0,1-1.49,2.68,4.86,4.86,0,0,1-2.25.93,13.86,13.86,0,0,0-2.56.78,8.58,8.58,0,0,0-2.11,1.33c-.62.53-1.3,1.39-2.16,2.23a6.57,6.57,0,0,1-1.52,1.14,4.94,4.94,0,0,1-1.86.5,2.87,2.87,0,0,1-1.92-.56,2.08,2.08,0,0,1-.69-.89,2.43,2.43,0,0,1-.11-1.07c.31-2.16.11-4.29.29-6.42a17.2,17.2,0,0,1,.54-3.1,8.86,8.86,0,0,1,1.5-3.21,16.14,16.14,0,0,1,2.52-2.35A6.46,6.46,0,0,1,429.47,367.15Z"/><path d="M99.76,521.17A3.19,3.19,0,0,0,97.68,523a5.35,5.35,0,0,0-.37,2.69c.06.89.22,1.77.27,2.72a13.71,13.71,0,0,1-.1,3c-.16,1-.41,1.93-.53,2.85a5.09,5.09,0,0,0,.29,2.68A3.54,3.54,0,0,0,99,538.84a3,3,0,0,0,2.37-.08,3.5,3.5,0,0,0,.94-.65,1.15,1.15,0,0,0,.24-.35,2.35,2.35,0,0,0,.21-.42,9.14,9.14,0,0,0,.64-2.29,30,30,0,0,0,.19-5.38c0-.9-.08-1.81-.16-2.7s-.1-1.8-.22-2.69a4.72,4.72,0,0,0-.93-2.46A2.39,2.39,0,0,0,99.76,521.17Zm-.12-.38a4.5,4.5,0,0,1,3.24.14,7.5,7.5,0,0,1,2.72,2.22,11.27,11.27,0,0,1,2.24,6.27,16.79,16.79,0,0,1-.78,6.56,8.91,8.91,0,0,1-1.69,3.21,4.47,4.47,0,0,1-1.7,1.28,6.06,6.06,0,0,1-1.86.43,5.7,5.7,0,0,1-4.76-2,13.94,13.94,0,0,1-1-1.33,14.88,14.88,0,0,1-2-6.22,19.09,19.09,0,0,1-.1-3,9.08,9.08,0,0,1,.78-3.26,8.37,8.37,0,0,1,2.05-2.76A7.12,7.12,0,0,1,99.64,520.79Z"/></svg>