<svg id="Layer_1" data-name="Layer 1" xmlns="http://www.w3.org/2000/svg" viewBox="0 0 600 600"><title>Belgium</title><path d="M113.12,139.2c3.84-1.91,7.69-3.73,11.51-5.7,1.93-.95,3.89-1.83,5.9-2.62s4.05-1.47,6.13-2.08a87.83,87.83,0,0,1,12.71-2.68,16,16,0,0,1,3.5-.16,8.72,8.72,0,0,1,3.63,1.13,22.58,22.58,0,0,1,5.25,4.52,26.31,26.31,0,0,0,4.24,4.18,7.69,7.69,0,0,0,2.28,1,10.84,10.84,0,0,0,2.6.3,32.52,32.52,0,0,0,5.92-.69c2-.41,4.1-.92,6.3-1.34a32.18,32.18,0,0,1,7-.67,26.59,26.59,0,0,1,7.16,1.23c4.53,1.42,8.48,3.57,12.23,5.32a40.36,40.36,0,0,0,5.51,2.21l1.36.46,1.4.33a22.6,22.6,0,0,0,2.81.58c.95.12,1.89.31,2.84.38l2.87.16,2.87-.06c1,0,1.9-.19,2.85-.26a44.59,44.59,0,0,0,11-2.84,40.94,40.94,0,0,0,9.65-5.61,34.68,34.68,0,0,0,7.42-7.85l.2-.27.26-.36.51-.73c.37-.5.74-1,1.16-1.53a20.11,20.11,0,0,1,3.33-3.41,15.7,15.7,0,0,1,2.5-1.61,20.3,20.3,0,0,1,2.42-1c1.43-.5,2.46-.78,3.43-1.09l1.39-.45c.22-.08.5-.16.65-.23l.42-.2a5.43,5.43,0,0,0,.8-.38,6.65,6.65,0,0,1,.63-.39,5.11,5.11,0,0,0,1.47-2A47.58,47.58,0,0,0,281,110a31.42,31.42,0,0,1,3.68-7.7A23.23,23.23,0,0,1,288,98.4c.33-.3.59-.57,1-.9s.83-.65,1.25-.94A21.36,21.36,0,0,1,292.86,95a22.62,22.62,0,0,1,10.58-2,27.63,27.63,0,0,1,4.85.69c1.44.33,2.63.68,3.48.89a6.87,6.87,0,0,0,1.66.27c.26,0,.18-.09.19-.14s.28-.16.74-.42,1-.61,1.7-1c1.34-.9,2.88-2.1,4.86-3.5.51-.35,1-.73,1.64-1.1s1.19-.7,1.8-1c1.21-.67,2.44-1.28,3.75-1.85a35.75,35.75,0,0,1,4.17-1.53,28.28,28.28,0,0,1,4.85-1,22.46,22.46,0,0,1,5.92,0,20,20,0,0,1,3.38.75c.59.2,1.17.42,1.75.65s1,.48,1.51.73A27.21,27.21,0,0,1,354,88.27c1.11.88,2,1.65,2.69,2.24a14.83,14.83,0,0,0,1.51,1.16c.28.17.24.06-.26-.1a3.91,3.91,0,0,0-1.07-.16s.33-.08,1-.33,1.8-.67,3.22-1.12a23,23,0,0,1,5.66-1.14,18.4,18.4,0,0,1,7.71,1.06,7.73,7.73,0,0,1,.83.32l.74.33a14.25,14.25,0,0,1,1.41.7,22.46,22.46,0,0,1,2.54,1.6,30.33,30.33,0,0,1,7.05,7.31,40.73,40.73,0,0,1,4.22,7.74c.28.67.54,1.35.79,2l.61,1.76,1.05,3.23c.65,2,1.24,3.9,1.85,5.48a20.78,20.78,0,0,0,1.81,3.81,5.57,5.57,0,0,0,1.49,1.71,4.18,4.18,0,0,0,1.52.65,11.51,11.51,0,0,0,3,.2A68,68,0,0,0,414,125c2.12-.45,4.4-.94,6.92-1.34a49.89,49.89,0,0,1,8.44-.67,31,31,0,0,1,10.34,1.86,26.89,26.89,0,0,1,9.75,6.28,61.61,61.61,0,0,1,5.13,6.18,7.87,7.87,0,0,0,1.81,2,12.76,12.76,0,0,0,2,.69c1.31.37,3.22.72,5.63,1.26a39,39,0,0,1,8.91,3c.9.49,1.76.93,2.65,1.52.45.31.9.62,1.34.94a12.24,12.24,0,0,1,1.29,1,23.57,23.57,0,0,1,4.47,5.06,29.81,29.81,0,0,1,4.18,10.37,57.26,57.26,0,0,1,1.06,8.09,115.84,115.84,0,0,1-5.05,43.07c-.74,2.31-1.51,4.62-2.39,6.9-.41,1.14-.89,2.27-1.36,3.4l-1.31,3.1a14,14,0,0,0-1.18,3.45c0,.22.06.19.1,0a.75.75,0,0,0,0-.21,1.13,1.13,0,0,0,0-.26.66.66,0,0,0,0-.44,1.71,1.71,0,0,0-.14-.56c-.09-.17-.1-.38-.23-.53-.14-.31-.31-.51-.32-.57s.54.16,1.51.44a27.2,27.2,0,0,0,3.86.82c1.54.24,3.24.42,5.09.54l1.41.09.81.06.94.08c1.25.09,2.51.23,3.77.38q3.77.45,7.57,1.22a81.49,81.49,0,0,1,15.34,4.67,61.38,61.38,0,0,1,15.06,9c1.2.94,2.34,2.06,3.49,3.11.56.56,1.11,1.14,1.66,1.72s1.07,1.1,1.67,1.85a41.59,41.59,0,0,1,5.86,9.18c.75,1.59,1.33,3.09,1.87,4.53s.94,2.74,1.3,3.9c.73,2.4,1.28,4.23,1.8,5.75.13.43.24.66.35,1l.32.84c.23.57.55,1.16.8,1.75l1,1.9c.43.69.77,1.32,1.25,2.07s.93,1.42,1.44,2.29a14.44,14.44,0,0,1,.69,1.29c.21.46.45,1,.64,1.47s.37,1,.56,1.57.35,1.14.52,1.72c.34,1.11.68,2.46,1.06,3.65s.78,2.59,1.26,3.81,1,2.58,1.57,3.93,1.09,2.67,1.52,4.16l.65,2.17c.22.72.36,1.5.54,2.24l.51,2.26.34,2.3c.1.77.24,1.54.28,2.3l.13,2.3c0,.74.11,1.57.09,2.24l0,2c0,1.37-.12,2.71-.2,4.06A77,77,0,0,1,555.89,359c-.59,1.11-1.17,2.23-1.82,3.31s-1.25,2.18-1.94,3.22-1.37,2.09-2.1,3.1-1.44,2-2.19,3-1.53,2-2.31,2.93-1.59,1.93-2.56,3a35.76,35.76,0,0,1-7.94,6.72,25.18,25.18,0,0,1-6.19,2.71,24,24,0,0,1-6.72.9,37.33,37.33,0,0,1-8.76-1.29l-2.18-.53a6.37,6.37,0,0,0-.68-.11,3.1,3.1,0,0,0-.68-.1,10.29,10.29,0,0,0-3,.2,18.19,18.19,0,0,0-7.12,3.86,36.38,36.38,0,0,0-6.74,7.46c-.51.71-1,1.46-1.44,2.21s-.89,1.63-1.34,2.45-.86,1.68-1.26,2.53-.84,1.69-1.18,2.58A64.14,64.14,0,0,0,484.25,418a58.74,58.74,0,0,0-1.65,11.36l-.07,1.44v1.44c0,.95,0,1.92,0,2.87l.21,2.87.33,2.85a67.06,67.06,0,0,0,2.59,11.1c.28.9.64,1.78.94,2.67l.5,1.35.56,1.45c.76,2,1.55,4,2.33,6.16s1.5,4.42,2.16,6.81a48.43,48.43,0,0,1,1.47,7.8c.05.71.07,1.46.09,2.18,0,.37,0,.73,0,1.11l0,1.15c-.05.79-.33,1.5-.39,2.32s0,1.64,0,2.48c-.12,3.39-.65,7.38-2.73,10.75-.52.81-1.11,1.56-1.7,2.32a19.92,19.92,0,0,1-1.94,2.17,31.81,31.81,0,0,1-4.16,3.42,61.74,61.74,0,0,1-7.21,4.13c-3.91,2-8,4-12.65,5.95-2.27,1-4.74,1.81-7.3,2.6a60.53,60.53,0,0,1-8.25,1.82,47.61,47.61,0,0,1-9.25.39,43.45,43.45,0,0,1-9.73-1.69,56.13,56.13,0,0,1-16.09-8.15c-4.38-3.11-8-6.16-11.13-8.72-6.1-5-12.44-9.54-18.93-13.87s-13.16-8.32-20-12c-3.42-1.85-6.87-3.63-10.37-5.3-.87-.43-1.75-.83-2.63-1.24l-2.8-1.3a47.73,47.73,0,0,1-4.37-2.19A27,27,0,0,1,336.3,462a25.66,25.66,0,0,1-2.88-3.64,22.71,22.71,0,0,1-2.21-4.37,23.36,23.36,0,0,1-1.07-4.2,20.35,20.35,0,0,1-.16-3.57A19.19,19.19,0,0,1,331,441c.5-1.32,1.07-2.46,1.58-3.67a52.65,52.65,0,0,0,2.54-7c.63-2.28.86-4.54,1.26-6.78l1.05-6.7,1-6.8c.36-2.36.84-4.6,1.26-6.75L341,397c.37-2,.7-3.93.9-5.77.06-.47.09-.92.12-1.37s.09-.9.11-1.33,0-.88,0-1.3v-.63l0-.41a10,10,0,0,0-.24-1.68,9.55,9.55,0,0,0-.54-1.54,7.91,7.91,0,0,0-.62-1,1.87,1.87,0,0,0-.51-.48,1.26,1.26,0,0,0-.89-.06,1.28,1.28,0,0,0-.53.2,3.62,3.62,0,0,0-.57.37,10.13,10.13,0,0,0-2.31,3.57,39,39,0,0,0-1.8,5.44l-.88,3.23-1,3.43a77.63,77.63,0,0,1-5.44,13.46,41.21,41.21,0,0,1-10,12.46c-1.11.88-2.24,1.73-3.45,2.51a17.12,17.12,0,0,1-1.87,1.12l-1.95,1.05a30.55,30.55,0,0,1-16.78,2.92,37.52,37.52,0,0,1-8.09-1.88,49.44,49.44,0,0,1-7.32-3.29,74.59,74.59,0,0,1-6.61-4c-4.14-2.88-8.22-5.9-11.26-9.85a41.59,41.59,0,0,1-9.11-27.52c.07-1.24.17-2.5.35-3.74s.41-2.49.7-3.67c.56-2.38,1.27-4.56,1.94-6.62,1.39-4.11,2.45-7.79,2.54-10.92a15.68,15.68,0,0,0-.59-4.4,14.72,14.72,0,0,0-.82-2.08,15.29,15.29,0,0,0-1.12-2,21,21,0,0,0-3.15-3.62c-.57-.59-1.28-1.07-1.91-1.61s-1.36-1-2.1-1.4a27.87,27.87,0,0,0-9.43-3.62,44.47,44.47,0,0,0-10.8-.53c-1.89.13-3.81.29-5.77.54-1,.12-2,.26-3,.41l-1.5.23-.37.06-.23.05c-.17,0-.28.05-.49.11-1.54.36-3.57,1-5.74,1.55a52.22,52.22,0,0,1-7.37,1.57c-.69.1-1.47.15-2.23.21a22.35,22.35,0,0,1-2.59,0c-.48,0-.91-.05-1.43-.12s-1.07-.17-1.61-.28a6.06,6.06,0,0,1-.86-.22l-.92-.29L191,344l-.71-.32a16.24,16.24,0,0,1-9.09-10.54,22.58,22.58,0,0,1-.81-5.39c-.05-1.51,0-2.81,0-3.9l0-1.48V322l0-.23,0-.45a12.92,12.92,0,0,0-.19-1.83,14.43,14.43,0,0,0-1.23-3.69,19.34,19.34,0,0,0-1-1.79c-.16-.3-.39-.57-.58-.86a7.28,7.28,0,0,0-.62-.84,17.93,17.93,0,0,0-6.41-5.07,16.37,16.37,0,0,0-1.82-.72c-.3-.09-.61-.14-.92-.23a4.83,4.83,0,0,0-.92-.18A20.94,20.94,0,0,0,162,306c-2,.07-4.41.26-7.28.13a28.28,28.28,0,0,1-4.6-.57,22,22,0,0,1-2.44-.65c-.79-.28-1.57-.55-2.35-.88a23.12,23.12,0,0,1-8.12-5.9,30.42,30.42,0,0,1-4.8-7.44A74.56,74.56,0,0,1,128,276.93c-1-4.25-2-8.2-3.09-11.66s-2.58-6.31-4.37-8.07a10.71,10.71,0,0,0-3.06-2.13,14.43,14.43,0,0,0-4.07-.91,30.54,30.54,0,0,0-5.23.19c-1.91.24-3.89.56-6,1s-4.28.78-6.6,1.09a46.91,46.91,0,0,1-7.25.5c-.64,0-1.27,0-1.91-.07l-1.92-.24c-.64-.1-1.29-.13-1.91-.29l-1.88-.46a32.22,32.22,0,0,1-7-2.8,37.89,37.89,0,0,1-11.08-9.29,50,50,0,0,1-7.23-11.85c-.46-1-.92-2.09-1.28-3.18s-.78-2.14-1.08-3.25l-.48-1.64-.38-1.66-.38-1.66-.3-1.58c-.81-4.24-1.54-8.52-2.14-12.82a111.13,111.13,0,0,1-1.09-13,54.09,54.09,0,0,1,1.14-13.15,27.45,27.45,0,0,1,2.19-6.35,17.13,17.13,0,0,1,4.18-5.37A46,46,0,0,1,67,161.64c3.94-1.75,8-3.21,11.89-4.88s7.7-3.67,11.5-5.63l22.75-11.85Zm0,.08L91,152.15c-1.86,1-3.71,2.14-5.58,3.16s-3.87,2-5.82,2.9c-3.91,1.8-7.88,3.35-11.7,5.16a44.59,44.59,0,0,0-10.59,6.48c-3,2.6-4.57,6.52-5.35,10.55a51.51,51.51,0,0,0-.64,12.49,109.6,109.6,0,0,0,1.5,12.6c.73,4.18,1.62,8.34,2.58,12.49a53.63,53.63,0,0,0,4,11.91,46.05,46.05,0,0,0,6.92,10.47,32.79,32.79,0,0,0,9.8,7.69,26.11,26.11,0,0,0,12.06,2.78,63.7,63.7,0,0,0,12.54-1.94,57.43,57.43,0,0,1,12.77-1.82,22.26,22.26,0,0,1,6.42,1.12,18,18,0,0,1,5.58,3.36c3.28,2.91,5.33,6.86,6.82,10.86s2.57,8.18,3.7,12.3a68.17,68.17,0,0,0,4.17,12.08,22.37,22.37,0,0,0,3.52,5.29,15,15,0,0,0,5.16,3.67,17.15,17.15,0,0,0,6.21,1.29c2.13.08,4.26-.09,6.4-.22a25.34,25.34,0,0,1,12.57,1.8,26.53,26.53,0,0,1,15.47,19.19,20.17,20.17,0,0,1,.32,3.19,28.44,28.44,0,0,1,0,3.2,21.66,21.66,0,0,0,.37,6.38,7.14,7.14,0,0,0,4.05,4.69,7.85,7.85,0,0,0,3.09.75,16.29,16.29,0,0,0,3.2-.1c4.26-.48,8.35-1.81,12.55-2.63a99.08,99.08,0,0,1,12.77-1.08,50.82,50.82,0,0,1,12.72,1.3,35.31,35.31,0,0,1,11.65,5.2c.9.58,1.71,1.28,2.56,1.93s1.63,1.39,2.33,2.19A27.1,27.1,0,0,1,259,347.9a23.67,23.67,0,0,1,2.43,5.91,21.6,21.6,0,0,1,.53,6.36c-.69,8.6-5.91,16.12-6.18,24.81a34.48,34.48,0,0,0,1.71,12.63A36.84,36.84,0,0,0,260,403.5a36,36,0,0,0,3.58,5.31,31.91,31.91,0,0,0,9.82,8.11,35.13,35.13,0,0,0,12.2,3.72,33.91,33.91,0,0,0,24.21-6.4,44.22,44.22,0,0,0,8.94-9.13,76.31,76.31,0,0,0,6.69-10.93c2-3.77,3.34-7.88,5.54-11.56a16.45,16.45,0,0,1,4.08-4.89,8.11,8.11,0,0,1,6-1.65,7.24,7.24,0,0,1,2.95,1.19,10.05,10.05,0,0,1,2.23,2.28,13.11,13.11,0,0,1,2.22,5.94,48,48,0,0,1-1.05,12.75c-.77,4.2-1.76,8.37-2.3,12.61s-.7,8.53-.78,12.8.05,8.55.34,12.82a48.68,48.68,0,0,0,.71,6.37,11.47,11.47,0,0,0,1.06,3,8.9,8.9,0,0,0,2,2.5,20.57,20.57,0,0,0,5.52,3.2c2,.87,3.92,1.72,5.85,2.63,3.89,1.79,7.69,3.75,11.45,5.78a205.59,205.59,0,0,1,41.54,29.89c3.14,2.9,6.22,5.88,9.57,8.53a38.44,38.44,0,0,0,11.05,6.4,30.28,30.28,0,0,0,12.65,1.41,54,54,0,0,0,12.47-2.86c4.05-1.38,8-3.07,11.9-4.78a43.67,43.67,0,0,0,5.71-2.89,19.26,19.26,0,0,0,2.55-1.94,21,21,0,0,0,2.11-2.41,16.48,16.48,0,0,0,2.45-5.88,24.34,24.34,0,0,0,.26-6.38,58.82,58.82,0,0,0-2.86-12.48c-1.31-4.07-2.81-8.07-3.95-12.2a84.12,84.12,0,0,1-2.36-12.59A81.8,81.8,0,0,1,474,429c.06-2.14.3-4.26.51-6.39s.58-4.24,1-6.33a79.46,79.46,0,0,1,8.85-23.95,48,48,0,0,1,7.82-10.12,31.13,31.13,0,0,1,10.62-7,23.49,23.49,0,0,1,6.25-1.34,14.24,14.24,0,0,1,1.6,0c.54,0,1.08,0,1.61.06,1.06.09,2.12.25,3.17.43a34.14,34.14,0,0,0,6.37.71,11.31,11.31,0,0,0,6-1.87,21.44,21.44,0,0,0,4.68-4.34q1-1.23,2-2.52c.64-.86,1.29-1.71,1.88-2.6a84.91,84.91,0,0,0,6.51-11,66.92,66.92,0,0,0,7-24.53,38.91,38.91,0,0,0-.93-12.73,43.58,43.58,0,0,0-5.16-11.68c-2.2-3.67-4.65-7.18-6.85-10.85a50.79,50.79,0,0,1-5.35-11.62c-1.28-4.08-2.09-8.31-3.85-12.22a28.53,28.53,0,0,0-7.77-10.06,46.63,46.63,0,0,0-10.76-6.9,67.08,67.08,0,0,0-12.08-4.23,98.31,98.31,0,0,0-12.63-2.16c-2.12-.28-4.24-.63-6.33-1.09a37,37,0,0,1-6.14-1.83,19.67,19.67,0,0,1-5.51-3.22,11.26,11.26,0,0,1-3.5-5.28,12,12,0,0,1-.05-6.35,32.33,32.33,0,0,1,2.26-6,100.92,100.92,0,0,0,8.07-24.27,98.85,98.85,0,0,0,1.63-25.52,45.06,45.06,0,0,0-.75-6.36,16.89,16.89,0,0,0-2.27-5.95,12.12,12.12,0,0,0-4.75-4.17,27.17,27.17,0,0,0-6.06-2c-2.08-.49-4.18-.9-6.23-1.5a19.18,19.18,0,0,1-5.82-2.65c-3.52-2.55-5.42-6.6-8.41-9.64a14.55,14.55,0,0,0-5.3-3.48,18.88,18.88,0,0,0-6.27-1.13,58.49,58.49,0,0,0-12.69,1.6,74.52,74.52,0,0,1-12.69,1.84,22.39,22.39,0,0,1-6.36-.71,15.87,15.87,0,0,1-5.69-2.88c-3.4-2.7-5.37-6.72-6.82-10.7s-2.44-8.2-4-12.19a29.62,29.62,0,0,0-3-5.64,19,19,0,0,0-4.35-4.65,12.2,12.2,0,0,0-2.79-1.53,7.39,7.39,0,0,0-3.13-.43,25.21,25.21,0,0,0-6.16,1.66,10.86,10.86,0,0,1-6.32.55,15,15,0,0,1-5.41-3.38,31.78,31.78,0,0,0-5.05-3.92,10.13,10.13,0,0,0-6.2-1,23,23,0,0,0-6.13,1.73,36.37,36.37,0,0,0-5.64,3c-1.79,1.17-3.55,2.39-5.39,3.48a18.72,18.72,0,0,1-5.92,2.44,13.15,13.15,0,0,1-6.33-.72,26.85,26.85,0,0,0-6.21-1.47,13.14,13.14,0,0,0-6.26,1,9.13,9.13,0,0,0-2.64,1.75,14.54,14.54,0,0,0-2.14,2.36c-2.56,3.47-3.34,7.84-5.5,11.55a12.79,12.79,0,0,1-4.44,4.57l-1.43.73a12.92,12.92,0,0,1-1.5.58,30,30,0,0,1-3.07.91c-2,.56-4.24.92-5.94,2.24a26,26,0,0,0-4.29,4.72,41.24,41.24,0,0,1-9.27,8.81,46.65,46.65,0,0,1-11.38,5.86,49.76,49.76,0,0,1-12.54,2.57,44.05,44.05,0,0,1-24.73-5.4c-3.78-2-7.47-4.2-11.51-5.63a22.87,22.87,0,0,0-6.23-1.33,29.65,29.65,0,0,0-6.38.36c-4.22.61-8.42,1.67-12.72,1.53a12.59,12.59,0,0,1-3.17-.53,9.8,9.8,0,0,1-2.86-1.46,28.9,28.9,0,0,1-4.39-4.66,20.68,20.68,0,0,0-4.68-4.33,7.18,7.18,0,0,0-3-1,14.8,14.8,0,0,0-3.19.07,82.8,82.8,0,0,0-12.61,2.22,97.88,97.88,0,0,0-12.14,4.1c-2,.81-3.93,1.68-5.87,2.59s-3.8,1.94-5.68,3Z"/></svg>