<svg id="Layer_1" data-name="Layer 1" xmlns="http://www.w3.org/2000/svg" viewBox="0 0 600 600"><defs><style>.cls-1{fill:#231f20;}</style></defs><title>solomonislands</title><path class="cls-1" d="M53.49,168.06a1,1,0,0,0-.71,0,2.29,2.29,0,0,0-.54.49,7.63,7.63,0,0,0-.87,1.18,8.24,8.24,0,0,0-.62,1.31,2.84,2.84,0,0,0-.25,1.27.6.6,0,0,0,.51.55,3.45,3.45,0,0,0,1.15.05c1.09,0,2,.09,3,.15a11.59,11.59,0,0,0,2.56,0L58,173s0,0,.06,0,0-.07.05-.11a2.1,2.1,0,0,0-.28-1.1A7.47,7.47,0,0,0,56,169.56,8.07,8.07,0,0,0,53.49,168.06Zm0,0a15.91,15.91,0,0,1,2.67,1.27,10.18,10.18,0,0,1,2.48,1.83,3.22,3.22,0,0,1,.86,1.57,2.58,2.58,0,0,1,0,.62,1.91,1.91,0,0,1-.29.63,2.21,2.21,0,0,1-.93.69,5,5,0,0,1-1.72.36A11.69,11.69,0,0,1,55,175c-1-.07-2-.28-2.89-.42a4.24,4.24,0,0,1-1.72-.53,1.85,1.85,0,0,1-.73-.81,1.68,1.68,0,0,1-.13-1,3.69,3.69,0,0,1,.71-1.49,13.55,13.55,0,0,1,.93-1.19c.33-.38.68-.73,1-1.07a2.32,2.32,0,0,1,.58-.45A1,1,0,0,1,53.49,168.06Z"/><path class="cls-1" d="M64.9,145.54c-.44.74-1,1.38-1.5,2.07a3.9,3.9,0,0,0-.84,2.31,3.53,3.53,0,0,0,1,2.15c.55.57,1.2,1.35,1.74,1.4a4.72,4.72,0,0,0,1.12-.08l1.28-.15,2.55-.26,2.55-.2,2.49-.15a.74.74,0,0,0,.25,0s0,.07,0,0a4.38,4.38,0,0,0,.14-.45c0-.19.1-.38.14-.56a5.77,5.77,0,0,0,.13-2.17,3.05,3.05,0,0,0-.9-1.76,7.37,7.37,0,0,0-1-.65c-.41-.25-.75-.52-1.09-.77a21.82,21.82,0,0,0-4.28-2.72,2.16,2.16,0,0,0-2.34,0A9.22,9.22,0,0,0,64.9,145.54Zm0,0a9.19,9.19,0,0,1,1.46-2.1,1.88,1.88,0,0,1,1.21-.45,4.28,4.28,0,0,1,1.29.25,29.83,29.83,0,0,1,4.71,2.14c.38.2.75.41,1.1.55a7.68,7.68,0,0,1,1.26.59A4.37,4.37,0,0,1,77.67,149a6.83,6.83,0,0,1,.08,2.91c0,.23-.09.46-.15.68a3.63,3.63,0,0,1-.24.78,1.9,1.9,0,0,1-.85.93,2.62,2.62,0,0,1-1,.29c-.55,0-.89,0-1.34,0l-1.28,0H70.36l-2.57-.06-1.28,0a5.92,5.92,0,0,1-1.42-.15,2.55,2.55,0,0,1-1.2-.95c-.27-.35-.52-.69-.77-1.06a4.19,4.19,0,0,1-.84-2.51,4.3,4.3,0,0,1,1.06-2.35C63.85,146.89,64.44,146.26,64.9,145.54Z"/><path class="cls-1" d="M91.62,131.4a4,4,0,0,0-2,.2l0,0a2.25,2.25,0,0,0-.16,1.63,4.91,4.91,0,0,0,.73,1.51,12.5,12.5,0,0,1,1,1.53,6.13,6.13,0,0,1,.53,1.84c.15,1.21.24,2.34.31,3.49a1.92,1.92,0,0,0,.28,1,.34.34,0,0,0,.15.12s.15,0,.21,0,.44-.38.66-.78a8.12,8.12,0,0,0,.52-1.44,14.28,14.28,0,0,0,.46-3.3,10.13,10.13,0,0,0-.42-3.37,4.9,4.9,0,0,0-.79-1.52A2.37,2.37,0,0,0,91.62,131.4Zm0,0a3.83,3.83,0,0,1,2.44,2.34,14,14,0,0,1,1.08,3.39,13,13,0,0,1,.23,3.64,7.36,7.36,0,0,1-.41,1.9,3.21,3.21,0,0,1-1.51,1.84,2.34,2.34,0,0,1-1.48.19,2.26,2.26,0,0,1-1.27-.84,3.3,3.3,0,0,1-.6-2.24c0-1.17.15-2.36.23-3.47a5.14,5.14,0,0,0-.1-1.57,10.66,10.66,0,0,0-.58-1.59,6,6,0,0,1-.49-1.73,2.46,2.46,0,0,1,.37-1.72v0h0A4.49,4.49,0,0,1,91.62,131.4Z"/><path class="cls-1" d="M160.05,135.85a5.52,5.52,0,0,0-1.23-1.11,3.43,3.43,0,0,0-1.55-.43c-.56-.05-1.13,0-1.72-.07a7.55,7.55,0,0,1-1.75-.3c-2.32-.74-4-2.52-5.82-3.78a19.35,19.35,0,0,0-6.08-2.72,18.21,18.21,0,0,1-6.57-3.12,33.46,33.46,0,0,1-2.4-2.62A2.85,2.85,0,0,0,132,121a4,4,0,0,0-1.2-.22,5.79,5.79,0,0,1-1.09-.2,5.06,5.06,0,0,1-1.13-.48c-.67-.37-1.13-.74-1.58-1a11.35,11.35,0,0,0-2.57-1.43,4.13,4.13,0,0,0-1.17-.24,3.45,3.45,0,0,0-1.08.11,2,2,0,0,0-.8.42,1.5,1.5,0,0,0-.43.67,5.72,5.72,0,0,0,0,2.5,8.69,8.69,0,0,0,1,2.71,16.84,16.84,0,0,0,4,4.77,57.56,57.56,0,0,0,5.44,3.94,38.2,38.2,0,0,1,5.55,4.35,18.84,18.84,0,0,1,2.3,2.75c.68,1,1.23,2,1.8,3,2.29,4,4.15,8.25,7.37,11.35a21.93,21.93,0,0,0,5.36,3.92,24.44,24.44,0,0,0,3,1.32c.53.18,1,.35,1.58.49a7.38,7.38,0,0,1,1.87.67,3.39,3.39,0,0,1,1,.88,4.4,4.4,0,0,1,.53,1c.24.64.37,1.26.53,1.6a1.23,1.23,0,0,0,.5.65s0,0,0,0l.53-.21a3.19,3.19,0,0,1,1.42-.25,2.75,2.75,0,0,1,1.61.69,6,6,0,0,1,1.28,1.89,3.55,3.55,0,0,0,.63,1,1.81,1.81,0,0,0,.8.38,4.43,4.43,0,0,0,1.25.1c.44,0,1-.08,1.53-.16a9.32,9.32,0,0,1,4.16.15,9.9,9.9,0,0,1,1.87.91,4.55,4.55,0,0,0,1.11.52c.28.08.49,0,.42,0s-.11.1.06-.1a4.59,4.59,0,0,1,1-.92,2.76,2.76,0,0,1,1.25-.44,2.61,2.61,0,0,1,1.42.26,3.37,3.37,0,0,1,1.4,1.39,8.38,8.38,0,0,1,.47,1,4.74,4.74,0,0,0,.26.5,4.21,4.21,0,0,0,1.71,1.55,3.79,3.79,0,0,0,2.2.4,10.82,10.82,0,0,0,2.75-.83l3.2-1.26,1.6-.62a8.35,8.35,0,0,0,1.25-.56,1.63,1.63,0,0,0,.56-.46c0-.06,0-.05,0,0s0-.09-.21-.24a2.16,2.16,0,0,0-.71-.37,1.84,1.84,0,0,0-.38-.08h-.58a11.37,11.37,0,0,0-1.44.21c-.54.1-1.12.23-1.79.33a10.37,10.37,0,0,1-2.1.11A18.36,18.36,0,0,1,184,167.2a14.83,14.83,0,0,1-1.73-.95,5.71,5.71,0,0,1-1.76-1.74,10.42,10.42,0,0,1-.84-1.81,3.67,3.67,0,0,0-.56-1,6.28,6.28,0,0,0-2.24-1.51,32.76,32.76,0,0,1-3.24-1.58,9.76,9.76,0,0,1-2.87-2.64,9.56,9.56,0,0,1-1.52-3.49,37,37,0,0,1-.47-7c.09-2.17-1.53-4-3.27-5.35S161.69,137.53,160.05,135.85Zm.29-.28a50.39,50.39,0,0,0,5.51,4,12.43,12.43,0,0,1,2.61,2.37,6.36,6.36,0,0,1,1.39,3.37A31,31,0,0,0,171,152a7.14,7.14,0,0,0,3.9,4.33,31.6,31.6,0,0,0,3.1,1.07,8.74,8.74,0,0,1,3.58,2,6.62,6.62,0,0,1,1.29,1.85,8.55,8.55,0,0,0,.7,1.25,4.87,4.87,0,0,0,2,1.22,16.9,16.9,0,0,0,5.8,1.7,11.69,11.69,0,0,0,2.9-.45,16.38,16.38,0,0,1,2-.32,8.44,8.44,0,0,1,1.13,0,6.18,6.18,0,0,1,1.31.21A5.93,5.93,0,0,1,201,166a4.78,4.78,0,0,1,1.63,2.59,4.32,4.32,0,0,1-.63,3.28,5.84,5.84,0,0,1-2,1.79,12.6,12.6,0,0,1-1.87.86l-1.61.61-3.23,1.19a14.91,14.91,0,0,1-3.85,1,7.86,7.86,0,0,1-4.43-.94,8.12,8.12,0,0,1-3.21-3.13,8.21,8.21,0,0,1-.49-1,5,5,0,0,0-.22-.55c0-.11-.09-.05.25.15a1.21,1.21,0,0,0,.59.1,1.29,1.29,0,0,0,.45-.15c.13-.11,0,0-.25.27a3.89,3.89,0,0,1-1.28.95,4.26,4.26,0,0,1-2.94.14,7.62,7.62,0,0,1-2-1,8.27,8.27,0,0,0-1.18-.66,6.21,6.21,0,0,0-2.65-.12,10,10,0,0,1-4-.24,4.8,4.8,0,0,1-2.14-1.32,6.09,6.09,0,0,1-1.12-1.91,5.51,5.51,0,0,0-.49-1s.07,0,.08,0,0,0-.26,0a5.92,5.92,0,0,1-1.11.27,2.62,2.62,0,0,1-1.64-.36,3.77,3.77,0,0,1-1.52-2c-.23-.75-.28-1.27-.42-1.71a1.38,1.38,0,0,0-.46-.82,5.85,5.85,0,0,0-1.33-.54c-.57-.2-1.12-.42-1.67-.65a25.59,25.59,0,0,1-3.16-1.65,26.81,26.81,0,0,1-5.48-4.46,28.71,28.71,0,0,1-4.11-5.68l-3.42-6a19.07,19.07,0,0,0-4.09-5.2,33.06,33.06,0,0,0-5.58-3.68,60.63,60.63,0,0,1-6-3.59,18.84,18.84,0,0,1-5.16-5.35,12.29,12.29,0,0,1-1.47-3.69,8.3,8.3,0,0,1,.09-4.3,5.23,5.23,0,0,1,1.4-2.19,5.8,5.8,0,0,1,2.2-1.22,6.77,6.77,0,0,1,2.31-.24,7.48,7.48,0,0,1,2.18.5,13.81,13.81,0,0,1,3.36,2c.48.38.91.75,1.23,1a2.2,2.2,0,0,0,1,.38,6.74,6.74,0,0,1,2.1.63,5.59,5.59,0,0,1,1.73,1.49c.84,1.07,1.3,2,2,2.68,2.72,3,7.95,3.65,11.53,6.88,1.75,1.53,3.29,3.26,5.37,4.07a11.91,11.91,0,0,0,3.33.46,4.11,4.11,0,0,1,1.72.5A6.26,6.26,0,0,1,160.34,135.57Z"/><path class="cls-1" d="M200.68,175.1a1,1,0,0,0-.42.16.29.29,0,0,0-.1.39c.18.24.51.26.81.33a9.37,9.37,0,0,1,1.77.63,7.28,7.28,0,0,1,3,2.53l.07.18a.78.78,0,0,0-.3-.46l-.08-.05h0s-.07,0,0,0h.08l.26,0,.57,0,1.19.06-1,.56a2.46,2.46,0,0,0,.27-1.64,3.18,3.18,0,0,0-1.31-1.53,7.21,7.21,0,0,0-2.26-1A7.13,7.13,0,0,0,200.68,175.1Zm0,0a16.7,16.7,0,0,1,2.56-.12,10.55,10.55,0,0,1,2.64.33,4,4,0,0,1,2.48,1.72,3.53,3.53,0,0,1,.31.84,3.26,3.26,0,0,1,.06.88,4.62,4.62,0,0,1-.44,1.56l-.27.61-.7-.06c-.41,0-.82-.09-1.24-.16l-.64-.12-.35-.1-.21-.07-.19-.07-.05,0-.12-.07a1,1,0,0,1-.35-.51l.07.17a6.88,6.88,0,0,0-1.82-2.82,5.57,5.57,0,0,0-1.5-1c-.26-.12-.61-.17-.79-.46a.32.32,0,0,1,.12-.41A1,1,0,0,1,200.68,175.1Z"/><path class="cls-1" d="M213.2,180c1,0,2.08,0,3.12-.12l1.57-.15a6.48,6.48,0,0,0,1.43-.25.41.41,0,0,0,.25-.27.65.65,0,0,0,0-.31,3.87,3.87,0,0,0-.68-1c-.3-.36-.63-.71-1-1.07l-.54-.59a5.81,5.81,0,0,0-.47-.5c-.69-1.08-2.85-.22-4.45.85a6.44,6.44,0,0,0-1.11,1,2,2,0,0,0-.58,1.27c0,.47.47.84,1,1A4.93,4.93,0,0,0,213.2,180Zm0,0a6.74,6.74,0,0,1-1.55-.15,1.46,1.46,0,0,1-1.21-1,2.45,2.45,0,0,1,.35-1.64,7.11,7.11,0,0,1,.93-1.38,8,8,0,0,1,2.66-2.12,4.1,4.1,0,0,1,1.94-.39,3.16,3.16,0,0,1,1.93,1,6.85,6.85,0,0,1,.58.66l.48.59a9.78,9.78,0,0,1,.95,1.37,4.81,4.81,0,0,1,.64,1.78,1.71,1.71,0,0,1-.33,1.19,1.54,1.54,0,0,1-1,.58,7.8,7.8,0,0,1-1.68-.13l-1.56-.17Q214.76,180,213.2,180Z"/><path class="cls-1" d="M141.85,206.28a11.52,11.52,0,0,0,3.82-6.87l0,.07a6.2,6.2,0,0,0-4-2.13,20.77,20.77,0,0,1-4.61-1.24,5.12,5.12,0,0,1-2-1.6,19.8,19.8,0,0,1-1.2-2.09,8.27,8.27,0,0,0-3-3.09,6,6,0,0,0-4-.81,5.25,5.25,0,0,0-3.36,2,4.29,4.29,0,0,0-.71,3.66,7.4,7.4,0,0,0,2,3.56,18.67,18.67,0,0,0,3.55,2.68,11.55,11.55,0,0,1,2,1.53,4,4,0,0,1,1.21,2.58,15.85,15.85,0,0,1-.18,2.45,4.36,4.36,0,0,0,.32,2c.5,1.36,1.49,2.72,1.8,4.41a7.83,7.83,0,0,0,.46,2.18,2.15,2.15,0,0,0,1.63,1.13,2.52,2.52,0,0,0,2.73-2.69c-.09-.76-.39-1.5-.51-2.29a3.45,3.45,0,0,1,.44-2.29C139.2,208,140.67,207.29,141.85,206.28Zm0,0c-1.17,1-2.62,1.8-3.41,3.18a3.11,3.11,0,0,0-.37,2.23c.15.76.48,1.48.61,2.28a2.93,2.93,0,0,1-3,3.24,2.53,2.53,0,0,1-1.25-.37,3.33,3.33,0,0,1-.94-.93,8.14,8.14,0,0,1-.71-2.35c-.35-1.41-1.35-2.61-2.06-4.13a5.74,5.74,0,0,1-.58-2.54,15.42,15.42,0,0,0,0-2.24c-.14-1.2-1.3-2-2.64-2.72a17.61,17.61,0,0,1-4-2.87,9,9,0,0,1-2.57-4.51,6.28,6.28,0,0,1,1.14-5.24,7,7,0,0,1,4.65-2.51,7.38,7.38,0,0,1,5,1.32,9.48,9.48,0,0,1,3.22,3.81,20.88,20.88,0,0,0,1,2.06,4.27,4.27,0,0,0,1.56,1.45,19.41,19.41,0,0,0,4.35,1.5,6.83,6.83,0,0,1,4,2.44l0,0v0A12.2,12.2,0,0,1,141.85,206.28Z"/><path class="cls-1" d="M125.06,204.53c-.15.2-.31.43-.22.67a2.81,2.81,0,0,0,.17.35c0,.06.09.13.1,0s0-.14,0-.19c.22-.07.43-.16.64-.24a2,2,0,0,1,.35-.08c.12,0,.31-.05,0,0a.75.75,0,0,0-.42.36c-.08.16-.06.22,0,.2s0-.08.09-.16a1.68,1.68,0,0,0,.17-.56.55.55,0,0,0-.19-.57C125.52,204.22,125.23,204.35,125.06,204.53Zm0,0a1.24,1.24,0,0,1,.68-.45,1.3,1.3,0,0,1,1,.29,2,2,0,0,1,.71.86,1.73,1.73,0,0,1,.11.6,1.25,1.25,0,0,1-.14.57A1.27,1.27,0,0,1,126,207a3.86,3.86,0,0,1-.42-.12,2.94,2.94,0,0,1-.85-.55.85.85,0,0,1-.34-.42.43.43,0,0,1,0-.32c0-.14.1-.28.15-.42C124.67,204.88,124.91,204.73,125.06,204.53Z"/><path class="cls-1" d="M130.52,224a5.09,5.09,0,0,1-.48-1.32c-.07-.46-.08-.93-.14-1.39a14.7,14.7,0,0,0-.62-2.72,4.34,4.34,0,0,0-1.3-2.28c-.65-.48-1.7-.92-2.15-.64s-.42,1.25-.23,2a23.13,23.13,0,0,0,1.1,2.46,4.29,4.29,0,0,1,.32,1.72,6.5,6.5,0,0,1-.31,1.59,9.8,9.8,0,0,0-.32,1.23,3.42,3.42,0,0,0,0,1.06,1.6,1.6,0,0,0,.34.81c.2.27.57.58,1,1.09a4.18,4.18,0,0,1,.67,1.62c.11.51.18,1,.24,1.47a14.5,14.5,0,0,1,.09,1.47c0,.47,0,1,0,1.4a1.07,1.07,0,0,0,0,.35s0,.08.16.13a2.19,2.19,0,0,0,.58.08,1.3,1.3,0,0,0,.5,0c.21,0,.53-.42.79-.76a5.38,5.38,0,0,0,.64-1.15,3.5,3.5,0,0,0,.12-1.29c0-.49,0-.94,0-1.41A13.11,13.11,0,0,0,130.52,224Zm0,0a16.14,16.14,0,0,1,1.28,5.45c0,.46.07,1,.12,1.39a3.76,3.76,0,0,1,0,1.5,6.33,6.33,0,0,1-.53,1.39,7.45,7.45,0,0,1-.39.65,1.83,1.83,0,0,1-.69.62,2.45,2.45,0,0,1-.88.2,4.47,4.47,0,0,1-.82,0,1.51,1.51,0,0,1-1-.57,2.11,2.11,0,0,1-.36-1c-.06-.57-.08-.93-.15-1.4s-.14-.88-.23-1.32a6,6,0,0,0-.75-2.22c-.18-.24-.53-.53-.93-1a3.55,3.55,0,0,1-.78-1.72,6.61,6.61,0,0,1,.46-3.2,5.8,5.8,0,0,0,.31-1.14,2.54,2.54,0,0,0-.11-1,17.62,17.62,0,0,1-.86-2.79,4.83,4.83,0,0,1,.1-1.61,3,3,0,0,1,.33-.83,1.61,1.61,0,0,1,.79-.66,2.12,2.12,0,0,1,1.71.22,5.34,5.34,0,0,1,1.22.88,3.28,3.28,0,0,1,.81,1.28c.15.46.25.92.37,1.37a19,19,0,0,1,.43,2.79c.05.47,0,.94.1,1.4A4.88,4.88,0,0,0,130.52,224Z"/><path class="cls-1" d="M144.34,224.92a5.3,5.3,0,0,0,1,1.33,2.34,2.34,0,0,0,1.25.82.56.56,0,0,0,.48,0c0-.07,0-.12,0-.23a3.45,3.45,0,0,0,0-1,3.8,3.8,0,0,0-.1-.49,1.34,1.34,0,0,0-.07-.18,1.53,1.53,0,0,0-.16-.26,6.75,6.75,0,0,0-1-1.11c-.35-.33-.78-.58-1.21-.3A1.22,1.22,0,0,0,144.34,224.92Zm0,0a1.44,1.44,0,0,1,1.9-2.06,5.09,5.09,0,0,1,1.73.75,3,3,0,0,1,.4.34,2.48,2.48,0,0,1,.38.52,3,3,0,0,1,.34,1.1,2.94,2.94,0,0,1-.58,2.18,1.71,1.71,0,0,1-1.3.66,1.78,1.78,0,0,1-1.1-.47,3.77,3.77,0,0,1-1-1.54C144.88,225.89,144.56,225.43,144.34,224.92Z"/><path class="cls-1" d="M174.85,214.13a8.27,8.27,0,0,0-3.67-4.6,8,8,0,0,0-2.78-1,14.13,14.13,0,0,0-3,0,15.61,15.61,0,0,0-5.67,1.4c-1.69.85-3.38,2.06-3.78,3.71a12.31,12.31,0,0,0,.28,5.55,14.16,14.16,0,0,0,1.79,5.27,7,7,0,0,0,4.38,2.74,23.88,23.88,0,0,0,5.79.35l.68,0,0,.61a1.7,1.7,0,0,0,1.13,1.46,1.83,1.83,0,0,0,1.94-.5,13.3,13.3,0,0,0,2.71-4.41,9.28,9.28,0,0,0,.54-2.56c0-.88,0-1.77-.05-2.67s.06-1.78,0-2.67A10.71,10.71,0,0,0,174.85,214.13Zm0,0a10.62,10.62,0,0,1,.42,2.63c0,.9-.05,1.79,0,2.68s.19,1.77.18,2.67a11.63,11.63,0,0,1-.37,2.69,13.9,13.9,0,0,1-2.47,4.88,2.87,2.87,0,0,1-2.9,1,3,3,0,0,1-2.16-2.38l.71.59a21.61,21.61,0,0,1-6.23.07,9.82,9.82,0,0,1-3.12-1.08,7.62,7.62,0,0,1-2.53-2.3,14.6,14.6,0,0,1-2-6.05,25.71,25.71,0,0,1-.35-3.11,8.31,8.31,0,0,1,.46-3.28,5.76,5.76,0,0,1,2.07-2.67,11.2,11.2,0,0,1,2.78-1.51,18.25,18.25,0,0,1,9.12-.68,8.43,8.43,0,0,1,2.81,1.15A8.62,8.62,0,0,1,174.85,214.13Z"/><path class="cls-1" d="M171.89,232.45a3,3,0,0,0-1.27-.52,1.38,1.38,0,0,0-1.21.38.83.83,0,0,0-.14,1,1.84,1.84,0,0,0,.9.71,9.94,9.94,0,0,1,1.33.61,5.56,5.56,0,0,1,1.22,1.05,6.19,6.19,0,0,1,1.33,2.88l.06.38a1.64,1.64,0,0,0,0,.25c0,.14.08.2,0,.09s-.43-.07-.42,0,.1,0,.21-.18a2.69,2.69,0,0,0,.61-2.07A6.46,6.46,0,0,0,171.89,232.45Zm0,0a11.15,11.15,0,0,1,2.05,1.9,8.23,8.23,0,0,1,1.55,2.46,4.49,4.49,0,0,1,.3,1.58,3.52,3.52,0,0,1-.45,1.68,2,2,0,0,1-.73.83,1.51,1.51,0,0,1-1.72-.08,2.06,2.06,0,0,1-.67-1.13c0-.15-.06-.3-.09-.43l0-.3a7.24,7.24,0,0,0-.76-2.24,4.23,4.23,0,0,0-.68-.95,9.64,9.64,0,0,0-1-.88,2.59,2.59,0,0,1-.92-1.33,1.32,1.32,0,0,1,.52-1.46,1.73,1.73,0,0,1,1.4-.24A3.64,3.64,0,0,1,171.89,232.45Z"/><path class="cls-1" d="M168.25,237.76a5,5,0,0,0-.71-2.65c-.61-.72-1.55-.49-2.5-.43l-1.43.11c-.47,0-1,.07-1,.16s.14-.06.15-.15,0,0,.06,0a1.58,1.58,0,0,0,.31.23c.17.1.39.26.58.4.78.58,1.54,1.19,2.26,1.84a8,8,0,0,1,1,1.18,3.84,3.84,0,0,1,.61,1.5c.1.46.18.78.49,1s.66,0,.76-.44C169,239.56,168.45,238.65,168.25,237.76Zm0,0c.2.92.84,1.68.87,2.72a1.11,1.11,0,0,1-.34.76.9.9,0,0,1-.89.22,1.51,1.51,0,0,1-.78-.49,3.62,3.62,0,0,1-.45-.68,2.69,2.69,0,0,0-.74-.95,9.2,9.2,0,0,0-1-.76,27.26,27.26,0,0,1-2.28-1.51,7,7,0,0,0-.57-.42,3.44,3.44,0,0,1-.75-.71,2,2,0,0,1-.34-1.35,1.55,1.55,0,0,1,1-1.21,3.25,3.25,0,0,1,1.79,0l1.4.29a14.51,14.51,0,0,1,1.43.33,2,2,0,0,1,1.23.93A7.41,7.41,0,0,1,168.25,237.76Z"/><path class="cls-1" d="M207.91,237.64a1.65,1.65,0,0,1-.87-1,4.3,4.3,0,0,1-.21-1.37,4.8,4.8,0,0,0-.18-1.33,3.29,3.29,0,0,0-.68-1.1,5.12,5.12,0,0,1-1.28-2.54,11.31,11.31,0,0,1-.11-2.84c.13-1.83.34-3.67-.35-5.2a7,7,0,0,0-3.54-3.43,11.45,11.45,0,0,0-5-1,5.54,5.54,0,0,0-2.29.53,7.65,7.65,0,0,0-1.91,1.54l-3.93,3.82a6.5,6.5,0,0,0-2.14,4.19c-.13.84-.19,1.73-.28,2.66,0,.47-.09,1-.17,1.44a8.62,8.62,0,0,1-.34,1.57,2.84,2.84,0,0,1-.61,1,2.45,2.45,0,0,1-1.17.69,6,6,0,0,1-1.73.11,2.76,2.76,0,0,0-1.75.59,2.69,2.69,0,0,0-.72,3.31,22.36,22.36,0,0,0,1.44,2.06l1.6,2.15a1.21,1.21,0,0,0,.18.18.45.45,0,0,0-.28-.06c-.3.08-.08,0,.13-.26a9.05,9.05,0,0,0,1.65-3.13,5.07,5.07,0,0,1,.33-.9,2.25,2.25,0,0,1,.63-.76,2.35,2.35,0,0,1,.83-.39,5,5,0,0,1,1-.11l.72,0q.72,0,1.44,0c.93,0,2,.07,2.77.1a4.79,4.79,0,0,0,1-.08,1.09,1.09,0,0,0,.54-.27,7,7,0,0,1,1.24-1.11,4.7,4.7,0,0,1,1.91-.61,14.21,14.21,0,0,1,1.53-.07,13.19,13.19,0,0,1,1.52,0,6.24,6.24,0,0,1,3.34,1.18,7.48,7.48,0,0,1,1.2,1.18l.91,1.09a20.24,20.24,0,0,1,3.16,5,9.65,9.65,0,0,1,.71,3.14,5.89,5.89,0,0,1,0,.84,3.65,3.65,0,0,1-.18,1.12,2.17,2.17,0,0,1-1.57,1.33,2.74,2.74,0,0,1-1.48-.13,3.69,3.69,0,0,1-.92-.52,4,4,0,0,0-.39-.26c-.07,0,.06,0-.05,0a.81.81,0,0,0-.34.35.78.78,0,0,0-.12.51c0,.94,1.37,2.43,2.55,3.58a5.79,5.79,0,0,0,3.94,1.92c.76,0,1.66-.16,2.72-.19a5.75,5.75,0,0,1,1.74.2,5.44,5.44,0,0,1,1.51.76c.66.4,1.53.73,2.46,1.31s1.6,1.46,2.09,1.72a1.36,1.36,0,0,0,.75.19,9.76,9.76,0,0,1,1.55.05,9.52,9.52,0,0,1,1.42.47c.3.07.16,0,.17.07a1.64,1.64,0,0,0,.2-.71,6.9,6.9,0,0,1,.32-1.55,10,10,0,0,1,1.6-2.53,1.76,1.76,0,0,0,.34-.72.15.15,0,0,0,0-.1,1.25,1.25,0,0,0-.31-.29,7.9,7.9,0,0,1-2-2.33,9.34,9.34,0,0,1-1-2.82,6.24,6.24,0,0,0-.36-1.15c-.15-.33-.41-.69-.66-1.12a4.09,4.09,0,0,1-.6-1.53,9.57,9.57,0,0,1,0-1.49,2.13,2.13,0,0,0-.7-2c-.6-.52-1.51-.85-2.29-1.58a2.6,2.6,0,0,1-.78-1.43,4.26,4.26,0,0,0-.33-1.22,4.36,4.36,0,0,0-4.28-2.25,7,7,0,0,0-2.59.67c-.43.16-.78.46-1.24.6A10.85,10.85,0,0,1,207.91,237.64Zm0,0c.44-.12.9-.2,1.32-.36s.76-.5,1.17-.71a7.74,7.74,0,0,1,2.65-.92,5,5,0,0,1,5,2.34,4.84,4.84,0,0,1,.49,1.39,1.66,1.66,0,0,0,.58.92c.59.51,1.48.79,2.33,1.4a3.06,3.06,0,0,1,1,1.32,4.76,4.76,0,0,1,.26,1.56,7.67,7.67,0,0,0,.11,1.26,2.56,2.56,0,0,0,.46,1,10.34,10.34,0,0,1,.8,1.22,7.18,7.18,0,0,1,.54,1.45,7.56,7.56,0,0,0,.9,2.34,6,6,0,0,0,1.64,1.73,3.21,3.21,0,0,1,.7.64,2,2,0,0,1,.41,1.19,3.27,3.27,0,0,1-.6,1.82,10.29,10.29,0,0,0-1.28,2.14,5.91,5.91,0,0,0-.18,1.15,3.27,3.27,0,0,1-.68,1.86,2.13,2.13,0,0,1-1.2.69,2.74,2.74,0,0,1-1.17-.06c-.6-.17-1-.36-1.2-.37a9.75,9.75,0,0,0-1.2,0,3.68,3.68,0,0,1-1.89-.45c-1.11-.65-1.64-1.41-2.21-1.69s-1.51-.68-2.45-1.19a3.31,3.31,0,0,0-.93-.49,3.36,3.36,0,0,0-1-.07c-.77,0-1.69.21-2.76.23a6.89,6.89,0,0,1-3.27-.74,11.36,11.36,0,0,1-2.56-1.79,21.75,21.75,0,0,1-2-2.14,6,6,0,0,1-1.48-3.2,3.58,3.58,0,0,1,.06-1.12,4,4,0,0,1,.38-1,3.66,3.66,0,0,1,1.58-1.56,3,3,0,0,1,1.28-.31,3,3,0,0,1,1.32.3,5.28,5.28,0,0,1,.77.49,1.44,1.44,0,0,0,.26.16s0,0-.12,0a.63.63,0,0,0-.3.15.83.83,0,0,0-.25.34c0,.21,0-.07,0-.24a4.86,4.86,0,0,0,0-.54,6.8,6.8,0,0,0-.53-2.2,17.57,17.57,0,0,0-2.74-4.24,12.87,12.87,0,0,0-1.62-1.77,3.39,3.39,0,0,0-1.79-.56,9.88,9.88,0,0,0-1.24,0,11,11,0,0,0-1.21,0,1.61,1.61,0,0,0-.7.19,6.45,6.45,0,0,0-.79.75,4,4,0,0,1-1.88,1A7.18,7.18,0,0,1,191,241c-1.05,0-1.82-.11-2.73-.11-.44,0-.88,0-1.31,0l-.66,0-.42,0a.56.56,0,0,0,.21-.11.58.58,0,0,0,.2-.22c0-.08,0,.12-.12.39a13,13,0,0,1-.55,1.47,11.82,11.82,0,0,1-1.65,2.64,4.31,4.31,0,0,1-.71.71,2.6,2.6,0,0,1-1.36.57,2.38,2.38,0,0,1-1.58-.41,3.56,3.56,0,0,1-.81-.77l-1.65-2.3a20.33,20.33,0,0,1-1.63-2.49,5.42,5.42,0,0,1-.4-3.58,5.3,5.3,0,0,1,2-3,5.37,5.37,0,0,1,3.39-1.07,4.56,4.56,0,0,0,1,0c.05,0,0,0,0,0s0,0,.09-.15a9.29,9.29,0,0,0,.27-1.12c.07-.41.13-.84.19-1.29.11-.89.2-1.83.38-2.8a9.82,9.82,0,0,1,1-2.94,9.7,9.7,0,0,1,1.94-2.39l4.1-3.71a9.42,9.42,0,0,1,2.47-1.77,7.33,7.33,0,0,1,3.05-.59,13,13,0,0,1,5.67,1.4,8.28,8.28,0,0,1,3.93,4.33,7.48,7.48,0,0,1,.39,2.91c0,1-.19,1.87-.3,2.78a10.28,10.28,0,0,0-.07,2.65,4.78,4.78,0,0,0,1,2.38,3.6,3.6,0,0,1,.65,1.28,5.2,5.2,0,0,1,.07,1.41,4.35,4.35,0,0,0,.09,1.35A1.6,1.6,0,0,0,207.91,237.64Z"/><path class="cls-1" d="M178.38,257.26a10.44,10.44,0,0,0,2.49-3.36c.34-.62.66-1.25,1-1.87l.5-.93a1.46,1.46,0,0,1,.83-.75,9,9,0,0,1,4.32,0,3.46,3.46,0,0,1,1.84,1.39,5.16,5.16,0,0,1,.72,2.17,17.17,17.17,0,0,1-.07,4.36c-.09.71-.2,1.41-.31,2.11a5.51,5.51,0,0,1-.32,1.2,2.27,2.27,0,0,1-1.06,1.2,2.56,2.56,0,0,1-1.57.15,2.4,2.4,0,0,0-.71-.08s.07-.07,0,.1a2.5,2.5,0,0,0-.07.73c0,.59.14,1.3.11,2.16a4,4,0,0,1-.28,1.36c-.19.43-.36.72-.41.89a1.56,1.56,0,0,0,.18,1.24,4.56,4.56,0,0,0,1.15,1.3,18.79,18.79,0,0,1,1.63,1.47,2.46,2.46,0,0,1,.76,1.46,1.56,1.56,0,0,1-.4,1.14,1.78,1.78,0,0,1-.86.51,2.61,2.61,0,0,1-.77.09,3.94,3.94,0,0,1-.68-.1,6,6,0,0,1-1.16-.42,5.82,5.82,0,0,1-1.87-1.5,5.24,5.24,0,0,1-1.08-2.11A16.48,16.48,0,0,1,182,269a5.5,5.5,0,0,0-1.66-3.49c-.94-.95-2.35-1.32-3.6-2a3.66,3.66,0,0,1-1.55-1.47,2.34,2.34,0,0,1,0-2.08C175.86,258.64,177.28,258.09,178.38,257.26Zm0,0c-1.09.85-2.49,1.43-3.15,2.7a2.16,2.16,0,0,0,.07,2,3.48,3.48,0,0,0,1.53,1.3c1.22.61,2.71.81,3.88,1.79a6.3,6.3,0,0,1,2.24,3.79,16.65,16.65,0,0,0,.47,2,4.18,4.18,0,0,0,1,1.54,4.48,4.48,0,0,0,1.5,1,2.63,2.63,0,0,0,1.48.2c.06,0,.08,0,0,0a.26.26,0,0,0-.07.16c0,.08-.07-.12-.29-.32-.43-.42-1-.8-1.56-1.27a6.26,6.26,0,0,1-1.63-1.84,3.54,3.54,0,0,1-.35-2.83,8.38,8.38,0,0,1,.48-1,2.2,2.2,0,0,0,.15-.69c0-.55-.08-1.24-.08-2.06a3.87,3.87,0,0,1,.21-1.35,2.22,2.22,0,0,1,.49-.79,1.76,1.76,0,0,1,.95-.48,3.41,3.41,0,0,1,1.38.13,1,1,0,0,0,.5,0c.14,0,.47-.54.6-1.16s.34-1.36.48-2a15.83,15.83,0,0,0,.43-4,4.49,4.49,0,0,0-.42-1.85,2.81,2.81,0,0,0-1.38-1.22,8.18,8.18,0,0,0-4-.29c-.62.15-.89.93-1.26,1.5s-.73,1.2-1.07,1.81A10.57,10.57,0,0,1,178.38,257.26Z"/><path class="cls-1" d="M199.67,271.94a6.38,6.38,0,0,1-.15.76.75.75,0,0,1-.66.37c-.52,0-1,0-1.56,0-1,0-2.08,0-3.12,0l.23-.1a.58.58,0,0,0,0,.56,1.1,1.1,0,0,0,.45.46,13.88,13.88,0,0,0,1.56.65l3.3,1.23,3.3,1.22a15.87,15.87,0,0,0,3.15.91,5.1,5.1,0,0,0,.73.06c.17,0,0,.08.08,0a1.15,1.15,0,0,0,.2-.54,3.07,3.07,0,0,0,.09-.71,1.07,1.07,0,0,0-.54-1c-.42-.29-1-.59-1.5-.93a19.29,19.29,0,0,1-2.8-2.27,6.05,6.05,0,0,0-1.34-1.14,1.1,1.1,0,0,0-.84-.17A1,1,0,0,0,199.67,271.94Zm0,0a1.05,1.05,0,0,1,.57-.65,1.26,1.26,0,0,1,.87.14,8.72,8.72,0,0,1,1.45,1,12.6,12.6,0,0,0,3,1.79c.55.24,1.06.38,1.68.65a2.28,2.28,0,0,1,1.39,1.78,4.79,4.79,0,0,1,.05,1.06,3.07,3.07,0,0,1-.27,1.16,1.57,1.57,0,0,1-.59.65,2,2,0,0,1-.78.26,6.13,6.13,0,0,1-1,0,11.54,11.54,0,0,1-3.7-.89c-1.12-.43-2.21-.93-3.29-1.47s-2.11-1.13-3.14-1.76a13.62,13.62,0,0,1-1.56-1,1.5,1.5,0,0,1-.34-2.07l.1-.12.13,0c1,.15,2.07.29,3.1.39a13.73,13.73,0,0,0,1.55.14.73.73,0,0,0,.65-.34C199.62,272.46,199.58,272.18,199.67,271.94Z"/><path class="cls-1" d="M230.53,262.43a.93.93,0,0,0,.32-.44.88.88,0,0,0,0-.53c-.13-.35-.34-.66-.45-1a3.21,3.21,0,0,1,.11-2.18,3.35,3.35,0,0,1,1.45-1.66,2.2,2.2,0,0,1,1.1-.29,1.13,1.13,0,0,1,1,.6c.36.74.16,1.58.44,2.13a.66.66,0,0,0,.71.31,5.22,5.22,0,0,1,1.11,0c.3,0,.37-.14.62-.46a3.47,3.47,0,0,1,.91-.84,8.35,8.35,0,0,1,2.17-.85,4.75,4.75,0,0,1,2.46-.18,2.14,2.14,0,0,1,1.24.84,3.36,3.36,0,0,1,.51,1.27,5,5,0,0,1,0,2.58,3.34,3.34,0,0,1-2.05,1.9c-.77.31-1.5.47-2,.72a2.28,2.28,0,0,0-.67.42,1.41,1.41,0,0,0-.2.24c0,.07,0,0,0-.17s0-.07.15,0a3.65,3.65,0,0,1,1.33.63,2.8,2.8,0,0,1,.75,1.49l.27,1.07L242,269a4.37,4.37,0,0,1,.14,1.39,2.82,2.82,0,0,1-.6,1.51,11.39,11.39,0,0,1-.81.91,35.76,35.76,0,0,1-3.36,3,6.57,6.57,0,0,1-2.18,1.23,3.83,3.83,0,0,1-2.64-.2,11.54,11.54,0,0,1-2-1.18c-.62-.43-1.22-.88-1.8-1.36s-1.13-1-1.66-1.51a6.84,6.84,0,0,1-1.46-1.82,10.5,10.5,0,0,1-.43-2.24c-.1-.73-.21-1.46-.26-2.21a6.17,6.17,0,0,1,.2-2.22,3.14,3.14,0,0,1,1.23-1.83,1.47,1.47,0,0,1,1.09-.09c.36.08.71.22,1.06.33a2.18,2.18,0,0,0,1.07.14A2,2,0,0,0,230.53,262.43Zm0,0a2,2,0,0,1-1,.5,2.29,2.29,0,0,1-1.1-.12,9.71,9.71,0,0,0-1.05-.31,1.36,1.36,0,0,0-1,.1,2.83,2.83,0,0,0-1.09,1.8,5.82,5.82,0,0,0-.09,2.16,18.13,18.13,0,0,0,.42,2.15,10.54,10.54,0,0,0,.56,2.05,6.26,6.26,0,0,0,1.44,1.48c.55.47,1.13.91,1.72,1.32s1.2.8,1.82,1.15a11,11,0,0,0,1.87.9,2.34,2.34,0,0,0,1.67,0,5.62,5.62,0,0,0,1.57-1.07c1.07-.94,2.08-2,3.06-3,.24-.27.49-.53.64-.74a1,1,0,0,0,.22-.51,10.44,10.44,0,0,0-.39-1.85l-.25-1.08a2.46,2.46,0,0,0-.13-.49,2.41,2.41,0,0,0-.67-.26,2.46,2.46,0,0,1-.78-.44,1.8,1.8,0,0,1-.62-1,1.71,1.71,0,0,1,.3-1.2,3.41,3.41,0,0,1,.54-.59,4.12,4.12,0,0,1,1.22-.7c.8-.3,1.54-.42,2.15-.63a1.87,1.87,0,0,0,1.2-.86,3.53,3.53,0,0,0,.11-1.79c-.08-.67-.25-1-.74-1.21a3.67,3.67,0,0,0-1.89,0,7.11,7.11,0,0,0-2,.58,2.73,2.73,0,0,0-.76.59,2.45,2.45,0,0,1-.46.44,1.09,1.09,0,0,1-.72.19,5.83,5.83,0,0,0-1.09-.06,1.3,1.3,0,0,1-.65-.14,1.08,1.08,0,0,1-.48-.51c-.29-.83,0-1.57-.29-2.19s-1.18-.61-1.79-.29a3,3,0,0,0-1.45,1.54,3.16,3.16,0,0,0-.15,2.14c.1.35.31.66.43,1a.77.77,0,0,1-.29,1Z"/><path class="cls-1" d="M248.93,272.38a4.43,4.43,0,0,1-1,1.57,6.09,6.09,0,0,0-1.22,1.37,4.44,4.44,0,0,0-.55,3.36,5.51,5.51,0,0,0,.68,1.53c.15.25.32.48.49.72a3.59,3.59,0,0,0,.47.56c.08,0,0,0,.08,0a1.19,1.19,0,0,0,.34-.24,6.3,6.3,0,0,1,1.52-1.41,6.85,6.85,0,0,1,2-.58c.58-.11.93-.21,1.09-.41a.74.74,0,0,0,0-.84.68.68,0,0,0-.34-.35c-.11-.1-.53-.06-1-.32a1.91,1.91,0,0,1-.74-.92,4,4,0,0,1-.28-1,6.85,6.85,0,0,1,.07-1.93c0-.59.21-1.29-.23-1.72a.75.75,0,0,0-.85,0A1.67,1.67,0,0,0,248.93,272.38Zm0,0a1.69,1.69,0,0,1,.62-.68.82.82,0,0,1,.9,0,1.29,1.29,0,0,1,.42.85c0,.32,0,.63,0,.94a5.68,5.68,0,0,0,.23,1.78c.18.5.59,1.09.89,1.16.11,0,.35,0,.84,0a2.11,2.11,0,0,1,1.16.68,2.29,2.29,0,0,1,.28,2.65,2.6,2.6,0,0,1-1,.93,4.69,4.69,0,0,1-1.06.4,7.19,7.19,0,0,0-1.52.46c-.28.1-.57.54-1.2,1.1a2.64,2.64,0,0,1-1.3.59,2,2,0,0,1-.87-.07,1.77,1.77,0,0,1-.75-.5,4.43,4.43,0,0,1-.58-1,8.5,8.5,0,0,1-.4-.92,6.43,6.43,0,0,1-.42-2,5.6,5.6,0,0,1,1.32-3.66,7.15,7.15,0,0,1,1.39-1.25A3.81,3.81,0,0,0,248.93,272.38Z"/><path class="cls-1" d="M340.23,222.08a5.1,5.1,0,0,1-2.61-3.27,2.58,2.58,0,0,0-1.24-1.41,3.59,3.59,0,0,0-1.9-.3,21.13,21.13,0,0,0-4,1.09,6.53,6.53,0,0,1-2.18.28,3.55,3.55,0,0,1-2.16-.85,12.35,12.35,0,0,1-1.39-1.66,4.51,4.51,0,0,0-1.45-1.15,14.53,14.53,0,0,0-3.84-1,11.09,11.09,0,0,1-4.24-1.47A28.58,28.58,0,0,0,312,210c-.48-.22-1.11-.36-1.86-.61a6.05,6.05,0,0,1-2.23-1.31,22.09,22.09,0,0,1-2.67-3.56c-1.35-2-3.57-3.15-6.06-4.24s-5.25-2.12-7.73-4.31a9.61,9.61,0,0,1-1.63-1.89c-.21-.36-.46-.73-.64-1.09l-.47-1a6.37,6.37,0,0,0-.77-1.39c-.25-.27-.26-.28-.53-.31a10.8,10.8,0,0,0-1.75.2,5.67,5.67,0,0,1-1.54,0,3.53,3.53,0,0,1-1.85-.94,7.25,7.25,0,0,1-.73-1c-.05-.05.06,0,0,0a4,4,0,0,0-1.35.1,15.17,15.17,0,0,1-9-1.36c-.68-.33-1.37-.78-1.86-1.07a1.92,1.92,0,0,0-1.12-.36.66.66,0,0,0-.31.12s0,0,0,0a2.89,2.89,0,0,0,.66,1.16,10.52,10.52,0,0,0,3,2.31,32.17,32.17,0,0,1,3.64,2.3,7.53,7.53,0,0,1,1.59,1.73,5.37,5.37,0,0,1,.8,2.29A21.16,21.16,0,0,1,277,200a2.9,2.9,0,0,0,1.24,3,16.69,16.69,0,0,0,3.71,1.47,15.7,15.7,0,0,1,4,1.73,7,7,0,0,1,1.67,1.54c.47.6.82,1.22,1.19,1.75a5,5,0,0,0,3,2.09,17,17,0,0,0,4,.48l.77,0-.06.8a6.64,6.64,0,0,0,4.64,6.74c1.43.42,3.12.41,4.95.92a6.17,6.17,0,0,1,2.66,1.47,14.41,14.41,0,0,1,1.7,2.15,3.68,3.68,0,0,0,1.31,1.28,3.25,3.25,0,0,0,1.73.06,8.61,8.61,0,0,1,1.48-.05,5.3,5.3,0,0,1,1.68.4,8.08,8.08,0,0,1,2.52,1.77,20.09,20.09,0,0,0,3.36,3.17,23.19,23.19,0,0,0,4.33,1.68,54.76,54.76,0,0,1,9.44,4.25q2.26,1.27,4.4,2.76c.7.48,1.44,1,2.08,1.49a6.91,6.91,0,0,0,1.68,1,4.19,4.19,0,0,0,1.68.17c.71,0,1.55-.16,2.53-.2a14.83,14.83,0,0,1,5.72,1,31.55,31.55,0,0,1,4.79,2.42l1.1.67c.35.22.74.45,1.18.77a6.48,6.48,0,0,1,1.36,1.29,6,6,0,0,1,.88,1.66c.19.51.31,1,.42,1.34a9.42,9.42,0,0,0,.35,1,12.41,12.41,0,0,0,1,1.88,15.81,15.81,0,0,0,2.85,3.32,13.81,13.81,0,0,0,3.52,2.32c.22.09.42.1.35.1l-.1,0a.34.34,0,0,0-.16.08s0,0,0,0-.1.21-.07.13a1.8,1.8,0,0,0-.12-.58,10.83,10.83,0,0,0-.9-1.88c-.37-.67-.87-1.38-1.31-2.29a6.9,6.9,0,0,0-1-1.65,1.83,1.83,0,0,0-.48-.39,3.67,3.67,0,0,0-.79-.28,13,13,0,0,1-2.8-.89,4.22,4.22,0,0,1-1.54-1.48,4,4,0,0,1-.6-2.11,3,3,0,0,1,.36-1.38,2.71,2.71,0,0,1,1.09-1.06,3.91,3.91,0,0,1,1.9-.4,3.81,3.81,0,0,0,1.7-.46,2.08,2.08,0,0,0,1-1c.08-.23.08-.3.1-.3s-.08-.18-.36-.36c-.52-.34-1.41-.78-2.12-1.22s-1.46-.89-2.17-1.37a84.37,84.37,0,0,1-8-6.18C350.64,230.43,345.75,225.85,340.23,222.08Zm.23-.34c5.59,3.72,10.63,8.19,16,12.11a71.92,71.92,0,0,0,8.35,5.39c.72.39,1.45.76,2.19,1.12s1.4.6,2.34,1.09a3.34,3.34,0,0,1,1.41,1.38,3.07,3.07,0,0,1,.16,2.14,3.84,3.84,0,0,1-.87,1.66,6.1,6.1,0,0,1-1.25,1.1,6.74,6.74,0,0,1-3,1.1c-.49,0-.7.12-.54.08s.14-.1.21-.19.06-.17.08-.17a1.17,1.17,0,0,0,.14.25.56.56,0,0,0,.27.22,13.06,13.06,0,0,0,2,.44,6.53,6.53,0,0,1,1.59.5,5.57,5.57,0,0,1,1.53,1.09,10,10,0,0,1,1.76,2.51c.3.59.79,1.25,1.27,2a13.23,13.23,0,0,1,1.32,2.61,5.81,5.81,0,0,1,.36,1.87,3.92,3.92,0,0,1-.17,1.23,5.18,5.18,0,0,1-.26.65,5.45,5.45,0,0,1-.4.58,4.13,4.13,0,0,1-1,.87,3.74,3.74,0,0,1-1.45.49,5.08,5.08,0,0,1-2.1-.28,12.23,12.23,0,0,1-2.71-1.38,24.89,24.89,0,0,1-2.22-1.64,19,19,0,0,1-3.73-4.22,16.09,16.09,0,0,1-1.33-2.58c-.18-.44-.35-.95-.48-1.38s-.22-.79-.32-1.06a1.66,1.66,0,0,0-.74-1c-.48-.34-1.31-.83-2-1.24a32.67,32.67,0,0,0-4.13-2.15,10.79,10.79,0,0,0-4.08-.86c-.69,0-1.51.11-2.47.15a8.28,8.28,0,0,1-3.26-.48,10.87,10.87,0,0,1-2.62-1.57c-.7-.54-1.3-1-2-1.48q-1.95-1.42-4-2.67a56.28,56.28,0,0,0-8.75-4.2,25.84,25.84,0,0,1-4.93-2.14,20.92,20.92,0,0,1-3.8-3.82,5.3,5.3,0,0,0-1.49-1.2,3.2,3.2,0,0,0-1.76-.25,9.84,9.84,0,0,1-1.44,0,4.21,4.21,0,0,1-1.74-.5,6.08,6.08,0,0,1-2.18-2.25,14,14,0,0,0-1.29-1.88,3.83,3.83,0,0,0-1.64-1c-1.37-.5-3.09-.58-4.86-1.17A8.41,8.41,0,0,1,295,212.8l.71.84a18.37,18.37,0,0,1-4.28-.66,7.17,7.17,0,0,1-2.06-1,6.45,6.45,0,0,1-1.59-1.67c-.41-.61-.74-1.21-1.13-1.72a6,6,0,0,0-1.37-1.28,13.51,13.51,0,0,0-3.65-1.59,17.35,17.35,0,0,1-4-1.57,4,4,0,0,1-1.58-1.86,5.55,5.55,0,0,1-.3-2.35,21,21,0,0,0,.3-4,3.76,3.76,0,0,0-.63-1.58,5.35,5.35,0,0,0-1.3-1.25,31,31,0,0,0-3.55-1.93,12.64,12.64,0,0,1-3.73-2.56,6.79,6.79,0,0,1-.77-1,3.25,3.25,0,0,1-.57-1.45,2.43,2.43,0,0,1,.65-1.9,3,3,0,0,1,1.5-.86,3.29,3.29,0,0,1,1.62,0,5.94,5.94,0,0,1,1.26.46c.74.37,1.23.66,1.82.9a12.05,12.05,0,0,0,7.28.65,5.92,5.92,0,0,1,2.79-.12,3.29,3.29,0,0,1,1.73,1.08c.37.46.53.72.55.7s-.07-.05,0,0a2.57,2.57,0,0,0,.54,0,11.6,11.6,0,0,1,2.38-.28,4,4,0,0,1,1.74.46,4.42,4.42,0,0,1,1.33,1.09,9.32,9.32,0,0,1,1.3,2.21l.42.88c.14.27.29.47.43.71a7,7,0,0,0,1.08,1.25c1.67,1.59,4.19,2.63,6.74,3.87a27,27,0,0,1,3.83,2.26,11.58,11.58,0,0,1,3.22,3.46,21.46,21.46,0,0,0,2,3.31,3.41,3.41,0,0,0,1.28.9c.55.25,1.27.46,2,.88a26.48,26.48,0,0,1,3.33,2.76,9.81,9.81,0,0,0,3.5,1.52,17,17,0,0,1,4.08,1.49,5.72,5.72,0,0,1,1.7,1.55,13,13,0,0,0,1.16,1.63c.84.89,2.27.87,3.57.57a21.15,21.15,0,0,1,4.1-.93,4.17,4.17,0,0,1,2.16.38,3,3,0,0,1,1.44,1.66,7.54,7.54,0,0,0,.86,1.83A6.8,6.8,0,0,0,340.46,221.74Z"/><path class="cls-1" d="M355.48,252.16a5.31,5.31,0,0,0-2.63-3.68,2.64,2.64,0,0,0-2.08-.3c-.64.23-.84.87-1,1.62-.21,1.71-1.77,3.16-1.72,4.12a1.33,1.33,0,0,0,.69,1.14,3,3,0,0,0,1.7.42H351c.19,0,.31,0,.63,0a1.73,1.73,0,0,1,.59.09,1.5,1.5,0,0,1,.59.35,2.79,2.79,0,0,1,.53.7,16.76,16.76,0,0,0,1.24,1.82A9.71,9.71,0,0,0,356,260a2.24,2.24,0,0,0,.76.46c.23.07.38.1.57-.1s.18-.22.27-.35a1.3,1.3,0,0,0,.19-.42,1.13,1.13,0,0,0-.18-.87,13.37,13.37,0,0,1-1.39-1.92,6,6,0,0,1-.54-2.31C355.62,253.72,355.61,252.94,355.48,252.16Zm0,0c.15.77.19,1.56.28,2.34a5.39,5.39,0,0,0,.71,2.19c.38.68,1,1,1.62,1.69a1.83,1.83,0,0,1,.49,1.32,1.8,1.8,0,0,1-.16.7,1.7,1.7,0,0,1-.34.65,1.55,1.55,0,0,1-.66.53,2,2,0,0,1-.86.1,3.6,3.6,0,0,1-1.36-.5,10.14,10.14,0,0,1-2-1.62,14.6,14.6,0,0,1-1.58-1.95,1.54,1.54,0,0,0-.17-.25s.2.09.09.07l-.53,0c-.22,0-.44,0-.66,0a4.91,4.91,0,0,1-2.76-.86,3.19,3.19,0,0,1-1-1.24,2.77,2.77,0,0,1-.26-1.65,5.1,5.1,0,0,1,1.33-2.39,9.88,9.88,0,0,0,.68-.87,5.16,5.16,0,0,0,.47-1,5.36,5.36,0,0,1,.61-1.15,2,2,0,0,1,1.18-.75,3.15,3.15,0,0,1,2.39.65A6.05,6.05,0,0,1,355.48,252.16Z"/><path class="cls-1" d="M249.92,175.32c0,.2-.06.42-.11.62a.7.7,0,0,1-.36.52,2.06,2.06,0,0,1-.64.07.69.69,0,0,0-.49.25,1.12,1.12,0,0,0-.19,1,1.74,1.74,0,0,0,.65.81,8.59,8.59,0,0,0,1,.62c.3.18.64.15.49.1s-.11,0-.09,0l.11-.44a2.67,2.67,0,0,1,.34-.87,1.82,1.82,0,0,1,1.13-.76c.38-.07.47,0,.64-.1a3.25,3.25,0,0,0,.47-.1,1.62,1.62,0,0,0,.59-.28c.25-.15.25-.93-.15-1.57a2.67,2.67,0,0,0-1.77-1.39,1.19,1.19,0,0,0-1.08.4A2.32,2.32,0,0,0,249.92,175.32Zm0,0a3.11,3.11,0,0,1,.47-1.18,1.52,1.52,0,0,1,1.14-.63,3.65,3.65,0,0,1,2.54,1,3.36,3.36,0,0,1,.9,1.23,2.26,2.26,0,0,1,0,1.87,3.49,3.49,0,0,1-2.77,1.55c-.07,0,.12-.06.09-.08a.85.85,0,0,0-.14.3,3.44,3.44,0,0,1-.32.75,1.66,1.66,0,0,1-1,.81,1.61,1.61,0,0,1-1.16-.12,2.71,2.71,0,0,1-.69-.49,7.69,7.69,0,0,1-.91-1.07,2.61,2.61,0,0,1-.5-1.41,1.59,1.59,0,0,1,.6-1.29,1,1,0,0,1,.67-.2,1.81,1.81,0,0,0,.61,0C249.84,176.24,249.83,175.7,249.92,175.32Z"/><path class="cls-1" d="M259.21,182.06c-1.29-1.35-3.19-1.65-4.85-2a.5.5,0,0,0-.34,0s-.05.06-.08.13a.85.85,0,0,0,.1.63,8,8,0,0,0,1.93,1.35c.83.56,1.51,1.2,2.2,1.72a6.66,6.66,0,0,0,2.06,1.15,5.11,5.11,0,0,0,4.39-.77l-.31.64a2.94,2.94,0,0,0-.31-1.69,1.56,1.56,0,0,0-1.29-.78,1.18,1.18,0,0,0-.75.27c-.26.19-.53.48-.9.72a1.38,1.38,0,0,1-1.28.19.73.73,0,0,1-.37-1,.57.57,0,0,0,.48.73,1,1,0,0,0,.79-.37c.22-.22.41-.53.68-.85a2.1,2.1,0,0,1,1.22-.72,2.69,2.69,0,0,1,2.58,1A4.29,4.29,0,0,1,266,185v.36l-.32.28a6.65,6.65,0,0,1-2.82,1.44,6.79,6.79,0,0,1-3.2-.08,7.49,7.49,0,0,1-2.72-1.51l-2.08-1.76c-.32-.27-.67-.49-1.1-.79a3.54,3.54,0,0,1-1.18-1.33,2.29,2.29,0,0,1,.06-2,1.6,1.6,0,0,1,.93-.75,1.92,1.92,0,0,1,1,0,12.85,12.85,0,0,1,1.36.54,10.94,10.94,0,0,1,1.27.66A4.84,4.84,0,0,1,259.21,182.06Z"/><path class="cls-1" d="M265.33,189.28a13.15,13.15,0,0,0-1.74-1.11,2.28,2.28,0,0,0-1.94-.09l.06-.15a1.39,1.39,0,0,1-.08,1.34,1.38,1.38,0,0,1-1.26.61,5,5,0,0,1-1.3-.31,3.35,3.35,0,0,0-1.08-.22l.41-.19c-.22.42.23,1.12.87,1.42.34.2.76.38,1.21.67a3.91,3.91,0,0,1,1.15,1.14,2.32,2.32,0,0,0,.66.73.38.38,0,0,0,.19.06s0,0,0,0a.5.5,0,0,0,.11-.37,4.21,4.21,0,0,0-.24-1l-.26-.78.7-.4a1.92,1.92,0,0,1,1.1-.24,2.56,2.56,0,0,1,.87.24,4.61,4.61,0,0,1,1.13.76c.58.49,1.14,1,1.7,1.39.29.21.58.41.87.59a5,5,0,0,0,.9.42,3.62,3.62,0,0,0,1.86.3c.09,0,.15,0,.17-.11a.53.53,0,0,0,0-.33,2.63,2.63,0,0,0-.39-.92,5,5,0,0,0-1.64-1.41C268.08,190.56,266.6,190.11,265.33,189.28Zm0,0a32.92,32.92,0,0,0,4.16,1.82,6.29,6.29,0,0,1,2,1.29,4.29,4.29,0,0,1,.37.5,2.85,2.85,0,0,1,.29.58,1.25,1.25,0,0,1,.05.78.86.86,0,0,1-.22.42,1.6,1.6,0,0,1-.35.28,3,3,0,0,1-1.35.26,7.36,7.36,0,0,1-1.25-.13,6,6,0,0,1-1.22-.37,10,10,0,0,1-1.09-.54,21.42,21.42,0,0,1-2-1.29,4.55,4.55,0,0,0-.77-.47c-.23-.1-.25,0-.2-.06l.44-1.18a4.52,4.52,0,0,1,.36,1.62,2.41,2.41,0,0,1-1,2,2,2,0,0,1-1.29.32,2.24,2.24,0,0,1-1-.43,4.22,4.22,0,0,1-1.07-1.31,3,3,0,0,0-.63-.84c-.28-.24-.65-.48-1.05-.79a3.13,3.13,0,0,1-1-1.31,1.77,1.77,0,0,1,.17-1.79l.19-.23.21,0c1,.16,1.66.82,2.38.94a.92.92,0,0,0,.92-.3,1,1,0,0,0,.17-1l-.05-.11.1,0a2.63,2.63,0,0,1,2.06.23A14.34,14.34,0,0,1,265.33,189.28Z"/><path class="cls-1" d="M319.32,298.2c.39-.32.92-.49,1.16-.95a1.49,1.49,0,0,0,0-1.42l.05,0a5.77,5.77,0,0,0-1.85-.11l-.12,0-.06-.14a4,4,0,0,0-2.5-2.19,1.77,1.77,0,0,0-1.34.06.67.67,0,0,0-.26.34,3.11,3.11,0,0,0-.12.7,4.71,4.71,0,0,1-.71,2.11,2.45,2.45,0,0,1-1.14.9,3.84,3.84,0,0,1-1.23.19,6.1,6.1,0,0,0-.74,0,1,1,0,0,0-.39.19,1.26,1.26,0,0,0-.47.85c-.16.53.69,1.53,1.55,2.13a6.07,6.07,0,0,0,3.16,1.1,5.89,5.89,0,0,0,1.75-.2,6,6,0,0,0,1.72-.53,1.65,1.65,0,0,0,.91-1.44,7,7,0,0,1,.1-.92A1.45,1.45,0,0,1,319.32,298.2Zm0,0a1.4,1.4,0,0,0-.46.77,4,4,0,0,0-.06.92,2.06,2.06,0,0,1-.21.91,2.29,2.29,0,0,1-.64.71,8.42,8.42,0,0,1-1.7.79,7.58,7.58,0,0,1-1.85.53,6.87,6.87,0,0,1-3.92-.61,6.28,6.28,0,0,1-1.72-1.2,3.23,3.23,0,0,1-1-2.26,3.09,3.09,0,0,1,1.15-2.33,2.79,2.79,0,0,1,1.26-.6,5.53,5.53,0,0,1,1.1-.05c.62,0,.66,0,.91-.23a3.4,3.4,0,0,0,.57-1.32,4.37,4.37,0,0,1,.41-1.06,1.94,1.94,0,0,1,1.06-.89,2.87,2.87,0,0,1,2.24.25,4.94,4.94,0,0,1,2.46,3l-.17-.12a6.75,6.75,0,0,1,1.9.32l0,0v0a1.65,1.65,0,0,1-.15,1.5,1.71,1.71,0,0,1-.54.53A7.14,7.14,0,0,0,319.32,298.2Z"/><path class="cls-1" d="M322.07,299.88a4,4,0,0,0-.32,2.18c0,.38.09.75.14,1.12l.05.28c0,.05,0,.12,0,.06s-.15-.23-.19-.22.1-.05.16-.07l.25-.09a8.78,8.78,0,0,0,3.24-2.24c.11-.12.15-.18.14-.15s0,0,0-.16a2.44,2.44,0,0,0,0-.38l0-.19s-.09-.23.07,0a.65.65,0,0,0,.39.23c.1,0,.12,0,.1,0h-.27a3.09,3.09,0,0,1-.84-.11,1,1,0,0,1-.6-1.28,1.57,1.57,0,0,1,.21-.37l.15-.17c.05-.1.08,0,.14,0s-.14-.12-.3-.13a2.23,2.23,0,0,0-1,.13A3.53,3.53,0,0,0,322.07,299.88Zm0,0a5.82,5.82,0,0,1,1.38-1.8,2.82,2.82,0,0,1,1.12-.49,1.19,1.19,0,0,1,.79.07.74.74,0,0,1,.37.5,1.23,1.23,0,0,1,0,.52c0,.13-.09.25-.11.33a.24.24,0,0,0,0,.14s.05,0,0-.14a.38.38,0,0,0-.19-.23c-.09,0,.08-.06.28-.12l.28-.07a1.06,1.06,0,0,1,.38,0,1.12,1.12,0,0,1,.64.37,2.48,2.48,0,0,1,.28.52,2.06,2.06,0,0,1,.12.35,2.94,2.94,0,0,1,.13.73,2.11,2.11,0,0,1-.13.94,2.31,2.31,0,0,1-.51.77,6,6,0,0,1-4.55,1.87H322c-.12,0-.13,0-.39,0a.5.5,0,0,1-.39-.39.45.45,0,0,1,0-.23l.05-.28.17-1.13A7.28,7.28,0,0,1,322.07,299.88Z"/><path class="cls-1" d="M358.41,296.6a1,1,0,0,0-1.34.14,1,1,0,0,0-.27.62l0,.32a2,2,0,0,0,0,.35,5.46,5.46,0,0,0,.3,1.33,2.67,2.67,0,0,0,.2.48c.07.1.11.09,0,0s-.13,0,0,0a1.22,1.22,0,0,0,.4-.12,3.2,3.2,0,0,0,1-.73,1.75,1.75,0,0,0,.49-1.24A1.55,1.55,0,0,0,358.41,296.6Zm0,0a2.51,2.51,0,0,1,1.06,1.12,2.82,2.82,0,0,1,.16,1.71,3.34,3.34,0,0,1-.83,1.67,2.44,2.44,0,0,1-.9.62,1.81,1.81,0,0,1-1.5-.07,1.88,1.88,0,0,1-.89-1.12,2.81,2.81,0,0,1-.12-1,4.59,4.59,0,0,1,.43-1.7c.06-.13.11-.26.18-.39l.27-.37a1.72,1.72,0,0,1,.64-.56A1.42,1.42,0,0,1,358.41,296.6Z"/><path class="cls-1" d="M378.12,285.83c-.14-.1-.36-.16-.48,0a.49.49,0,0,0-.09.47,10.36,10.36,0,0,0,.36,1.07c.14.35.28.68.39,1,0,0,.06.05.05,0a.48.48,0,0,0-.26-.3c-.14-.06-.14-.05,0-.06h.2c.12,0,.19,0,.18,0s-.06.11,0,.14.29-.28.43-.63C379.28,287,378.65,286.23,378.12,285.83Zm0,0c.29.22.6.4.92.61a1.76,1.76,0,0,1,.5.4,1.87,1.87,0,0,1,.31.66,1.94,1.94,0,0,1,.07,1.49,1.53,1.53,0,0,1-.83.81,2.1,2.1,0,0,1-.89.16l-.33,0a2,2,0,0,1-.57-.16,1.23,1.23,0,0,1-.62-.69,1.29,1.29,0,0,1-.09-.53,8.07,8.07,0,0,1,.32-1.2,10,10,0,0,0,.37-1.09.77.77,0,0,1,.32-.5A.44.44,0,0,1,378.12,285.83Z"/><path class="cls-1" d="M389.94,290.77c-.89-.09-1.72.41-2.63.29a1.59,1.59,0,0,1-1.14-.69,1.09,1.09,0,0,0-.46-.38,1.8,1.8,0,0,0-.62-.05c-.44,0-.88,0-1.33.07s-.7.08-.9.44a3.35,3.35,0,0,1-.89,1.15,4.27,4.27,0,0,1-1.33.67,11.47,11.47,0,0,0-2.39.59c-.22.15-.38.41-.36.52s.05.14.35.42c.14.13.32.28.52.49a4,4,0,0,1,.5.67,3.85,3.85,0,0,0,.65.86,2.17,2.17,0,0,0,.77.46,1.45,1.45,0,0,0,.75.06c.15,0,.26-.1.53-.41a4.91,4.91,0,0,1,1.15-1.14,2.78,2.78,0,0,1,1.87-.38,4,4,0,0,1,1.61.58,8.26,8.26,0,0,1,2,2.13,4.31,4.31,0,0,0,.69.82,1.86,1.86,0,0,0,1,.2,1.69,1.69,0,0,0,1.77-1,6.57,6.57,0,0,0,.26-1.25c.06-.44.13-.87.16-1.31a6.9,6.9,0,0,0-.24-2.6c-.17-.4-.66-.53-1-.75A3.91,3.91,0,0,0,389.94,290.77Zm0,0a4,4,0,0,1,1.26.41c.37.2.87.31,1.08.75a7.63,7.63,0,0,1,.45,2.64v1.34a6.69,6.69,0,0,1-.11,1.38,2.12,2.12,0,0,1-.83,1.3,3.23,3.23,0,0,1-1.43.55,2.9,2.9,0,0,1-1.62-.12,4.42,4.42,0,0,1-1.21-1,7.43,7.43,0,0,0-1.8-1.55,1.63,1.63,0,0,0-1.57-.07,4.2,4.2,0,0,0-.68.77,3.53,3.53,0,0,1-.61.63,2.43,2.43,0,0,1-1,.48,3.42,3.42,0,0,1-1.85-.16,4.07,4.07,0,0,1-1.47-.94,5,5,0,0,1-.87-1.3,2.2,2.2,0,0,0-.26-.42c-.09-.12-.24-.27-.41-.46a2.58,2.58,0,0,1-.53-.75,1.83,1.83,0,0,1-.14-1.16,2.22,2.22,0,0,1,1.26-1.47,9.73,9.73,0,0,1,2.81-.33,3.17,3.17,0,0,0,1.1-.36,2.39,2.39,0,0,0,.85-.83,1.39,1.39,0,0,1,.65-.5,1.94,1.94,0,0,1,.75,0l1.32.09a2,2,0,0,1,.7.11,1.37,1.37,0,0,1,.52.49,1.36,1.36,0,0,0,1,.71C388.19,291.13,389.05,290.65,389.94,290.77Z"/><path class="cls-1" d="M394.45,296.48a9.09,9.09,0,0,0-.49,1.28c-.14.44-.2.9-.37,1.33a3.52,3.52,0,0,1-2.15,1.71,7,7,0,0,0-2.37,1.17,3.24,3.24,0,0,0-1,2.18,1.92,1.92,0,0,0,0,.55c.06.12-.05-.05.1,0l1.28.39c1,.34,1.1.21,1.54-.31a5.18,5.18,0,0,0,.5-1.05l.14-.33a2.94,2.94,0,0,1,.2-.42,1.66,1.66,0,0,1,.58-.57,1.92,1.92,0,0,1,.63-.21,10.19,10.19,0,0,1,3.07,0,13.43,13.43,0,0,1,2.79.9,3.56,3.56,0,0,0,2.1.39,2.37,2.37,0,0,0,1.56-1.23,2.19,2.19,0,0,0-.06-2.09,2.57,2.57,0,0,0-1.88-1.34c-.43-.07-.91-.08-1.39-.2A2.94,2.94,0,0,1,398,298a3.49,3.49,0,0,1-.76-1.2,3.83,3.83,0,0,0-.61-1.21,1,1,0,0,0-1.23-.1A2.36,2.36,0,0,0,394.45,296.48Zm0,0a2.4,2.4,0,0,1,.89-1,1,1,0,0,1,1.31.09,4.77,4.77,0,0,1,.7,1.19,3.5,3.5,0,0,0,.79,1.06,2.42,2.42,0,0,0,1.18.46,12.07,12.07,0,0,0,1.36,0,3.49,3.49,0,0,1,3.2,4.56,3.87,3.87,0,0,1-2.38,2.36,5.05,5.05,0,0,1-3.26-.25,11.86,11.86,0,0,0-2.46-.73,8.21,8.21,0,0,0-2.42-.08c-.07,0-.07,0,0,0s.12-.12.1-.1a1.31,1.31,0,0,0-.11.2l-.15.29a6.82,6.82,0,0,1-.82,1.36,2.67,2.67,0,0,1-1.7,1,3.27,3.27,0,0,1-1.69-.42l-1.28-.6a1.58,1.58,0,0,1-.48-.39,1.17,1.17,0,0,1-.21-.61,3.48,3.48,0,0,1,.07-.82,4.09,4.09,0,0,1,1.64-2.5,7.68,7.68,0,0,1,2.66-1,3.22,3.22,0,0,0,2.16-1.47c.18-.41.25-.87.4-1.31A10,10,0,0,1,394.45,296.48Z"/><path class="cls-1" d="M431,242.91a25.17,25.17,0,0,0-2.62-4.76,6.82,6.82,0,0,0-2-1.7,4.25,4.25,0,0,0-2.5-.54l.27-.23a8.41,8.41,0,0,1-.78,2.38,2.76,2.76,0,0,1-2.11,1.6,3.49,3.49,0,0,1-2.48-1,10.44,10.44,0,0,0-1.84-1.36c-1.2-.65-2.58.2-3.19,1.43a3.3,3.3,0,0,0-.37,1.91,5.7,5.7,0,0,0,.61,2,23.15,23.15,0,0,0,2.64,3.78l3,3.79,1.49,1.89a17.53,17.53,0,0,1,1.52,2.13,5.55,5.55,0,0,1,.77,3.12,9.34,9.34,0,0,1-.79,2.79c-.16.38-.3.73-.42,1.06s-.18.64-.28,1a8.38,8.38,0,0,0-.19,2,13.35,13.35,0,0,0,.76,4.18A92.55,92.55,0,0,0,426.3,277a73.82,73.82,0,0,1,5.84,18.7c.56,3.09,1.31,6.08,3.52,7.74a17.16,17.16,0,0,0,4,2.06,27.62,27.62,0,0,1,4.45,2.23c5.62,3.57,9.76,8.63,15,12.12.65.46,1.34.83,2,1.23a15.69,15.69,0,0,1,2.14,1.28,5.16,5.16,0,0,1,1.67,2.11,10.11,10.11,0,0,1,.65,2.48,15.25,15.25,0,0,0,1.23,4.46,12.87,12.87,0,0,0,2.59,3.73c1.07,1.06,2.41,1.93,3.66,3.11a9,9,0,0,1,1.67,2.08c.44.77.74,1.5,1.12,2a2.25,2.25,0,0,0,.59.63,1.64,1.64,0,0,0,.67.3.62.62,0,0,0,.45-.06,1.9,1.9,0,0,0,.51-.54,10.33,10.33,0,0,1,.85-1,3.24,3.24,0,0,1,.8-.58,2.63,2.63,0,0,1,1.11-.23,2.59,2.59,0,0,1,1.91,1,5.37,5.37,0,0,1,.8,1.34c.19.42.33.85.46,1.21a8.27,8.27,0,0,0,.42.91,6.71,6.71,0,0,0,1.23,1.59,7,7,0,0,0,3.47,1.87,4,4,0,0,0,1.35.11.66.66,0,0,0-.26.23c-.06.11,0,.13,0,.06a1.91,1.91,0,0,0,0-.38,3.93,3.93,0,0,0-.06-.48,12.49,12.49,0,0,0-1.55-3.93,43.71,43.71,0,0,1-2.29-4.45,32.8,32.8,0,0,1-1.37-4.88,12.24,12.24,0,0,0-1.5-3.93,24.31,24.31,0,0,0-2.81-3.47,31.7,31.7,0,0,1-3.25-4c-1-1.49-1.67-2.94-2.46-4.1-.2-.3-.4-.57-.61-.83a4.35,4.35,0,0,0-.56-.57,3.4,3.4,0,0,0-1.32-.68.79.79,0,0,0-.35,0,1.44,1.44,0,0,0-.44.18c-.22.13-.49.32-.86.57a5.57,5.57,0,0,1-1.69.83,3.22,3.22,0,0,1-1.4.09,5.4,5.4,0,0,1-.58-.11l-.48-.16a7.34,7.34,0,0,1-1.51-.8,13.11,13.11,0,0,1-2.17-1.92,16.09,16.09,0,0,1-1.7-2.2,14.35,14.35,0,0,1-.71-1.29c-.11-.24-.21-.5-.31-.75a5.6,5.6,0,0,1-.24-.92,5.41,5.41,0,0,1,.78-3.74c.53-.92,1.08-1.55,1.45-2.11a3.38,3.38,0,0,0,.62-1.29,2.93,2.93,0,0,0-.16-1.38,9.75,9.75,0,0,0-2.2-3.28c-.52-.59-1.09-1.22-1.65-1.95a13.54,13.54,0,0,1-1.46-2.42c-1.56-3.36-1.84-6.66-2.95-9.21a6.33,6.33,0,0,0-2.27-2.86,13.37,13.37,0,0,0-4-1.34,15.47,15.47,0,0,1-2.54-.81,8.33,8.33,0,0,1-2.45-1.59,11,11,0,0,1-2.75-4.7,25.29,25.29,0,0,1-.64-2.45c-.17-.83-.33-1.55-.46-2.48a5,5,0,0,1,0-1.53,3.74,3.74,0,0,1,.69-1.48,6.78,6.78,0,0,1,2.15-1.73l1-.59c.3-.2.59-.4.86-.61a2.23,2.23,0,0,0,.83-1.56,3.3,3.3,0,0,0-.66-1.88,11.48,11.48,0,0,0-1.44-1.8c-1.07-1.15-2.31-2.17-3.43-3.39s-2.13-2.43-3.12-3.7A42.89,42.89,0,0,1,431,242.91Zm.36-.18a40.85,40.85,0,0,0,5.33,7.94c1,1.22,2.13,2.39,3.24,3.53s2.4,2.08,3.6,3.19a12.65,12.65,0,0,1,1.7,1.86,4.58,4.58,0,0,1,1,2.54,3.74,3.74,0,0,1-1.11,2.69,12.12,12.12,0,0,1-1,.88l-1,.69a5.18,5.18,0,0,0-1.5,1.37,2,2,0,0,0-.2,1.58c.14.65.39,1.49.6,2.22s.47,1.47.76,2.16a8.33,8.33,0,0,0,2.31,3.38,8,8,0,0,0,3.74,1.39,15.94,15.94,0,0,1,5.14,1.46,9.51,9.51,0,0,1,3.9,4.34c1.53,3.33,1.95,6.57,3.18,9a9.67,9.67,0,0,0,1.05,1.68c.43.54.94,1.1,1.49,1.7a22.81,22.81,0,0,1,1.7,2,10.47,10.47,0,0,1,1.41,2.65,7.29,7.29,0,0,1,.39,3.37,7.16,7.16,0,0,1-1.3,3.08c-.53.77-1,1.37-1.3,1.85a1.26,1.26,0,0,0-.27.85,4.93,4.93,0,0,0,.67,1.42,12.39,12.39,0,0,0,1.23,1.6,9.31,9.31,0,0,0,1.43,1.29,3.47,3.47,0,0,0,.6.33l.09,0s0,0,0,0h-.08c-.08,0-.1,0-.13,0s.16-.07.45-.26.69-.46,1.17-.72a5.56,5.56,0,0,1,1.82-.63,5.1,5.1,0,0,1,2,.14,7.75,7.75,0,0,1,4,2.73,13.72,13.72,0,0,1,.8,1.13c1,1.52,1.65,3,2.41,4.2a27.5,27.5,0,0,0,2.8,3.53,28.31,28.31,0,0,1,3.15,4.08,14.13,14.13,0,0,1,1.17,2.53,25.24,25.24,0,0,1,.68,2.53,33.16,33.16,0,0,0,1.1,4.42,39,39,0,0,0,2,4.16,14.94,14.94,0,0,1,1.72,5.08,5.83,5.83,0,0,1,.06.72,5.74,5.74,0,0,1,0,.82,2.86,2.86,0,0,1-.36,1.21,2.56,2.56,0,0,1-1.13,1,3.66,3.66,0,0,1-2,.26,8.32,8.32,0,0,1-1.41-.25,9.82,9.82,0,0,1-4.76-2.88,9.6,9.6,0,0,1-1.58-2.3,10.44,10.44,0,0,1-.51-1.31c-.13-.41-.22-.75-.34-1.07a3.47,3.47,0,0,0-.37-.75c-.14-.17-.13-.14-.13-.15s0,0-.24.1a8.91,8.91,0,0,0-.69.8,4.09,4.09,0,0,1-1.26,1.07,2.79,2.79,0,0,1-1.89.19,4.09,4.09,0,0,1-2.48-1.9c-.5-.81-.77-1.6-1.1-2.23a7.61,7.61,0,0,0-1.27-1.73c-1-1.08-2.36-2-3.52-3.29a15.28,15.28,0,0,1-2.76-4.23,17.56,17.56,0,0,1-1.21-4.83c-.22-1.57-.62-3-1.81-3.81a14.31,14.31,0,0,0-2-1.2c-.71-.42-1.43-.82-2.1-1.28-5.48-3.58-9.79-8.58-15.28-11.59a26.28,26.28,0,0,0-4.28-1.84,19.76,19.76,0,0,1-4.65-2.08,10,10,0,0,1-3.42-4.2,26.82,26.82,0,0,1-1.56-4.83,91.94,91.94,0,0,0-6.24-17.81,65.55,65.55,0,0,1-4-9,16.4,16.4,0,0,1-.81-5.28,11.89,11.89,0,0,1,.41-2.77c.15-.45.28-.9.46-1.33s.36-.8.52-1.15a6.75,6.75,0,0,0,.65-1.8,2.58,2.58,0,0,0-.29-1.51,13.58,13.58,0,0,0-1.15-1.87l-1.34-2-2.69-4a24.15,24.15,0,0,1-2.53-4.33,7.46,7.46,0,0,1-.57-2.63,5,5,0,0,1,.75-2.7,4.77,4.77,0,0,1,2.08-1.84A3.48,3.48,0,0,1,416,236a3.19,3.19,0,0,1,1.38.42,11,11,0,0,1,1.93,1.61,2.55,2.55,0,0,0,1.82.89,2.05,2.05,0,0,0,1.58-1.16,7.76,7.76,0,0,0,.8-2.16l0-.22h.21a5,5,0,0,1,2.79.68,7.28,7.28,0,0,1,2.13,1.85A25.5,25.5,0,0,1,431.34,242.73Z"/><path class="cls-1" d="M516.81,342.92a3.82,3.82,0,0,0-.48-1,1.3,1.3,0,0,0-.86-.57.93.93,0,0,0-.84.48,2.47,2.47,0,0,0-.32,1,9.35,9.35,0,0,0,.49,4.16c.43,1.35.94,2.72,1.37,4.11.21.69.4,1.39.59,2.1l.26,1c0,.13.07.23.07.25a.39.39,0,0,0-.26-.12l-1,.48.88-1.39.45-.69a6.9,6.9,0,0,0,.42-.64,5.61,5.61,0,0,0,.68-2.88,13,13,0,0,0-.47-3.2C517.54,345,517.17,344,516.81,342.92Zm0,0c.36,1,.79,2,1.2,3.06a22,22,0,0,1,1,3.19,6.38,6.38,0,0,1-.12,3.56c-.45,1.14-.92,2-1.4,3l-.27.57-.71-.09a1.57,1.57,0,0,1-1.11-.74,2.77,2.77,0,0,1-.33-.76l-.29-1.06c-.17-.71-.34-1.41-.49-2.12a40.68,40.68,0,0,1-.72-4.35,10.93,10.93,0,0,1,.36-4.48,3.1,3.1,0,0,1,.49-1,1.06,1.06,0,0,1,1-.44,1.34,1.34,0,0,1,.87.65A4,4,0,0,1,516.81,342.92Z"/><path class="cls-1" d="M500.91,382.09a2.37,2.37,0,0,0-1.38-1c-.57,0-.6.65-.31.9s.79.52,1.34,1.22a2.54,2.54,0,0,1,.45,1.25c0,.38,0,.68.05.87s.06.31.05.33-.06,0,0,.09a.39.39,0,0,0,.34,0,.63.63,0,0,0,.36-.34,3.09,3.09,0,0,0-.17-1.65A5.13,5.13,0,0,0,500.91,382.09Zm0,0c.36.49.69,1,1,1.53l.51.78a2.45,2.45,0,0,1,.4,1,1.8,1.8,0,0,1-.36,1.29,1.91,1.91,0,0,1-1.29.72,1.8,1.8,0,0,1-1.58-.6,2.37,2.37,0,0,1-.55-1.36c0-.86.07-1.21,0-1.45a14.57,14.57,0,0,1-.78-1.73,1.42,1.42,0,0,1,.24-1.2.89.89,0,0,1,1.07-.31A3.82,3.82,0,0,1,500.91,382.09Z"/><path class="cls-1" d="M516.44,401.14c-1.55-.95-2.89-2.21-4.54-2.84a14.39,14.39,0,0,0-5.25-.56,24.44,24.44,0,0,1-10.83-2.1,23.58,23.58,0,0,1-4.83-2.93c-1.49-1.16-2.81-2.43-4.15-3.59a24.57,24.57,0,0,0-4-3.06,27.42,27.42,0,0,0-4.61-2c-1.62-.55-3.36-1.09-5-1.59a9.34,9.34,0,0,0-4.42-.48,4.25,4.25,0,0,0-2.83,2.41,4,4,0,0,0,.28,3.8,4.65,4.65,0,0,0,1.46,1.5,4.44,4.44,0,0,0,2,.66,23.67,23.67,0,0,0,5.15-.5,26.14,26.14,0,0,1,5.59-.09,12.38,12.38,0,0,1,2.83.52,3.29,3.29,0,0,1,1.41.92,2.82,2.82,0,0,1,.6,1.61c.05.52,0,1,0,1.43v1.34c0,.9,0,1.8,0,2.7l0,5.39c0,1.79.16,3.57,1.13,4.75s2.61,1.89,4.24,2.69l9.76,4.68,4.89,2.34c1.62.79,3.22,1.55,4.82,2.2a21.53,21.53,0,0,0,4.8,1.42,35.75,35.75,0,0,0,5.13.28,25.08,25.08,0,0,1,2.92.21,16.41,16.41,0,0,1,3,.71,15.4,15.4,0,0,0,4.6,1.17,17.71,17.71,0,0,1,3,0,6,6,0,0,1,2,.63c.54.29,1,.58,1.35.82a9.14,9.14,0,0,0,1,.58c.31.15.64.3,1,.43A10.63,10.63,0,0,0,541,427a26.43,26.43,0,0,0,5,.12l1.3-.07a3.77,3.77,0,0,0,.75-.1c.14-.07,0,0,0,.09a.5.5,0,0,0-.06.23,1,1,0,0,0,.13.56l.16.26a.88.88,0,0,0-.41-.31,3.21,3.21,0,0,0-1-.23c-.43,0-.91,0-1.44,0l-.82,0a9.19,9.19,0,0,1-1,0,7.08,7.08,0,0,1-4.24-1.65,4.12,4.12,0,0,1-1.39-2.67,4.64,4.64,0,0,1,.6-2.67c.36-.64.69-1.09.9-1.43a2.7,2.7,0,0,0,.35-.89,3.87,3.87,0,0,0-.49-2.27,14.35,14.35,0,0,0-1.6-2.56l-2-2.66-4.06-5.32a19.46,19.46,0,0,1-1.68-3,10.57,10.57,0,0,0-1.7-2.65,3,3,0,0,0-1.21-.76,1.7,1.7,0,0,0-1.31.17c-.89.48-1.73,1.3-2.7,1.89a6,6,0,0,1-3.22,1.18A6,6,0,0,1,516.44,401.14Zm.21-.34a5.5,5.5,0,0,0,3,.95,5.37,5.37,0,0,0,2.91-1.17c.91-.62,1.61-1.44,2.65-2.1a2.56,2.56,0,0,1,1.89-.34,4.31,4.31,0,0,1,1.68.85c1.85,1.64,2.61,3.91,4,5.38l4.62,4.8,2.3,2.4a17,17,0,0,1,2.26,2.87,7.17,7.17,0,0,1,1.14,4.09,5.89,5.89,0,0,1-.62,2.28c-.31.64-.62,1.1-.78,1.45s-.15.48-.12.53,0,0,.17.18a3.94,3.94,0,0,0,1.94.55,4.52,4.52,0,0,0,.63,0l.84,0a17,17,0,0,1,1.89,0,7.41,7.41,0,0,1,2.24.48,5.17,5.17,0,0,1,2.22,1.65l.08.12.08.14a3.17,3.17,0,0,1,.37,1.87,3.65,3.65,0,0,1-.5,1.5,4.07,4.07,0,0,1-2.12,1.73,7.35,7.35,0,0,1-1.91.38l-1.4.07a31,31,0,0,1-5.81-.17,15.47,15.47,0,0,1-3.05-.76,11,11,0,0,1-1.49-.68,12.88,12.88,0,0,1-1.33-.83,9.79,9.79,0,0,0-1-.62,1.74,1.74,0,0,0-.6-.24,21.31,21.31,0,0,0-2.42,0,18.09,18.09,0,0,1-5.82-1.53,12.72,12.72,0,0,0-2.28-.62,20.86,20.86,0,0,0-2.48-.24,37.28,37.28,0,0,1-5.64-.5,25.19,25.19,0,0,1-5.49-1.87c-3.41-1.63-6.43-3.5-9.59-5.28l-9.4-5.37c-1.52-.89-3.34-1.72-4.58-3.43a6.18,6.18,0,0,1-1.09-2.82,17.71,17.71,0,0,1-.13-2.79l0-5.43c0-.91,0-1.82,0-2.72s0-1.88,0-2.64a1.45,1.45,0,0,0-1.18-1.39,12,12,0,0,0-2.5-.31,20.12,20.12,0,0,0-5.2.4,27.67,27.67,0,0,1-5.55,1,7,7,0,0,1-3.14-.74,7.3,7.3,0,0,1-2.49-2.13,7.14,7.14,0,0,1-1.31-3.08,7,7,0,0,1,.35-3.42,7.32,7.32,0,0,1,4.91-4.58,11.43,11.43,0,0,1,6.24.38c1.78.51,3.5,1,5.28,1.67a25.33,25.33,0,0,1,5.17,2.55A26.52,26.52,0,0,1,488.9,387c2.51,2.71,4.7,5.31,7.75,7.05a20.84,20.84,0,0,0,10,2.94,15.83,15.83,0,0,1,5.42.88C513.81,398.59,515.14,399.87,516.65,400.8Z"/><path class="cls-1" d="M405.64,465.77c-2.19-1.09-4.56-1.76-6.7-3s-3.91-3-5.9-4.34a9.31,9.31,0,0,0-3.2-1.48,18.46,18.46,0,0,0-3.58-.22,4.9,4.9,0,0,1-2-.55c-.62-.34-1.1-.73-1.54-.92a.72.72,0,0,0-.85,0,2,2,0,0,0-.46,1.06,11.45,11.45,0,0,0-.14,1.66c0,.59,0,1.17,0,1.74a9.58,9.58,0,0,0,.62,3.14,3.32,3.32,0,0,0,1.64,1.84,1.1,1.1,0,0,0,.73.07c.05,0,0,0,0,0s0-.05.14-.29a5,5,0,0,1,.62-1.12,2.89,2.89,0,0,1,.74-.69,3.14,3.14,0,0,1,1-.44,3.19,3.19,0,0,1,2,.22,5.43,5.43,0,0,1,1.19.75,14.44,14.44,0,0,1,1.52,1.49l.15.17.11.11a2.5,2.5,0,0,0,.24.22c.15.14.33.26.5.39a5.14,5.14,0,0,0,2.47.81,5,5,0,0,0,1.29-.08,4.5,4.5,0,0,0,.6-.17,5.17,5.17,0,0,0,.66-.29,7.55,7.55,0,0,1,1.1-.44,4.11,4.11,0,0,1,1.69-.18,3.88,3.88,0,0,1,1.72.59,4.56,4.56,0,0,1,1.15,1.05,10.1,10.1,0,0,1,1.15,1.9,14.14,14.14,0,0,0,.75,1.37,1.88,1.88,0,0,0,.53.56,2.53,2.53,0,0,0,1.06.15,8.18,8.18,0,0,1,2.33.27,3.9,3.9,0,0,1,2.41,2.12,5.41,5.41,0,0,1,.43,2.51c0,.72-.11,1.36-.17,1.93a8.26,8.26,0,0,0-.07,1.5c.05.41.09.5.19.6s.29.19.49.27.48.18.75.26a17.89,17.89,0,0,1,1.89.62,6.67,6.67,0,0,1,1.84,1.18,12.34,12.34,0,0,0,1.24,1.06,1.55,1.55,0,0,0,1.13.23,2.42,2.42,0,0,0,1.22-.53,3.23,3.23,0,0,0,.89-2.76,5.66,5.66,0,0,0-1.31-3.05,13.79,13.79,0,0,0-2.6-2.45c-1-.74-2-1.44-2.91-2.25s-1.82-1.63-2.76-2.42A31.05,31.05,0,0,0,405.64,465.77Zm0,0c4.41,2.18,7.78,5.92,12,8.4a17.49,17.49,0,0,1,2.93,2.34,6.71,6.71,0,0,1,1.84,3.45,4.63,4.63,0,0,1-.94,4.06,4.11,4.11,0,0,1-2,1.16,4,4,0,0,1-1.21.13A3.86,3.86,0,0,1,417,485a11.21,11.21,0,0,1-1.69-1.12,4.76,4.76,0,0,0-1.32-.65c-.47-.14-1-.21-1.65-.33-.31-.06-.66-.13-1-.23a4.22,4.22,0,0,1-1.17-.51,2.1,2.1,0,0,1-.62-.5,2.39,2.39,0,0,1-.48-.64,2.83,2.83,0,0,1-.31-.67,3.48,3.48,0,0,1-.17-.65,10.48,10.48,0,0,1-.14-2.15c0-.64,0-1.23,0-1.73a2.64,2.64,0,0,0-.22-1.06c-.06-.07-.08-.11-.13-.12s-.07,0-.16-.06a5.74,5.74,0,0,0-1.31,0,6.2,6.2,0,0,1-2.55-.34,5.09,5.09,0,0,1-2.21-1.8,16.72,16.72,0,0,1-1.08-1.8,8.54,8.54,0,0,0-.75-1.22c-.1-.12-.18-.19-.19-.18h0s0,0,0,0-.16,0-.71.27a10.1,10.1,0,0,1-1,.43,8,8,0,0,1-1.16.31,9,9,0,0,1-2.37.13,8.9,8.9,0,0,1-4.36-1.6,8.14,8.14,0,0,1-.91-.76,5.86,5.86,0,0,1-.42-.44l-.19-.22-.15-.18a10.53,10.53,0,0,0-1-1.15,2.81,2.81,0,0,0-.33-.27c-.06,0,.06,0,.23,0a.44.44,0,0,0,.17-.08s.08-.08.07-.08a2.2,2.2,0,0,0-.28.47,4.13,4.13,0,0,1-.88,1.22,3.21,3.21,0,0,1-1.63.8,4.29,4.29,0,0,1-2.82-.5,6.28,6.28,0,0,1-2.86-3.71,11.56,11.56,0,0,1-.38-4.08c0-.65.11-1.3.2-1.92a13.51,13.51,0,0,1,.4-2,3.59,3.59,0,0,1,1.37-2,2.4,2.4,0,0,1,1.4-.35,2.59,2.59,0,0,1,1.21.41c.64.39,1.07.83,1.5,1.13a3.45,3.45,0,0,0,1.45.54,18.91,18.91,0,0,1,3.68.58,11.16,11.16,0,0,1,3.28,1.86c2,1.51,3.58,3.38,5.65,4.67S403.46,464.66,405.64,465.77Z"/><path class="cls-1" d="M367.16,440.65a1,1,0,0,0-.29,1.1.55.55,0,0,0,.09.24.45.45,0,0,0,.17.09,2.76,2.76,0,0,0,.53.11,9.21,9.21,0,0,0,1.15.07,4.36,4.36,0,0,0,.76,0,.37.37,0,0,0-.21.25s.05.23.08.15a1.65,1.65,0,0,0-.34-.85,3.22,3.22,0,0,0-.81-.88A1.2,1.2,0,0,0,367.16,440.65Zm0,0a2.23,2.23,0,0,1,1.23,0,8.06,8.06,0,0,1,1.31.32,2.57,2.57,0,0,1,1.31.93,1.41,1.41,0,0,1,.21.62,1.48,1.48,0,0,1-1.23,1.66,2.55,2.55,0,0,1-1.66-.27,4.38,4.38,0,0,1-1.12-.84,2.91,2.91,0,0,1-.49-.55.89.89,0,0,1-.17-.41,1.22,1.22,0,0,1,.05-.37A1.61,1.61,0,0,1,367.16,440.65Z"/></svg>