<svg id="Layer_1" data-name="Layer 1" xmlns="http://www.w3.org/2000/svg" viewBox="0 0 600 600"><title>SriLanka</title><path d="M287.93,106.1c5.09,4.8,11.31,8.19,16.64,12.75,2.72,2.22,5.39,4.51,7.95,7a84.67,84.67,0,0,1,7.21,7.9,57.42,57.42,0,0,1,5.82,9.17c1.64,3.29,2.8,6.82,4,9.9a30.34,30.34,0,0,0,2.07,4.32,29.49,29.49,0,0,0,2.75,3.85c1,1.24,2.14,2.44,3.32,3.64l3.69,3.69a165.65,165.65,0,0,1,14.15,16.31c2.19,2.91,4.27,5.94,6.2,9.1,1,1.58,1.89,3.19,2.79,4.84l2.48,4.67a86.28,86.28,0,0,0,4.89,8.38,27.85,27.85,0,0,0,5.52,6.16l1.79,1.38c.63.45,1.22.9,1.87,1.33,1.27.88,2.6,1.68,4.36,2.91a23,23,0,0,1,3,2.52,22.15,22.15,0,0,1,1.65,1.88,23.58,23.58,0,0,1,1.4,2.22,22.61,22.61,0,0,1,1,2.23c.24.69.49,1.42.68,2.08l.44,1.88c.13.61.2,1.13.3,1.71.35,2.24.49,4.17.63,6.11a5.28,5.28,0,0,0,.06.57l.08.49.13,1a13.28,13.28,0,0,0,.33,2,33.06,33.06,0,0,0,1.07,3.92c.23.65.37,1.3.67,2l.82,2a19.28,19.28,0,0,0,.94,1.95c.34.65.64,1.3,1,2l1.14,1.95.57,1,.64,1,1.26,2,1.36,2c.88,1.31,1.87,2.65,2.84,4,3.92,5.33,8.39,10.83,12.62,17,1.08,1.49,2.11,3.15,3.15,4.74.53.79,1,1.68,1.52,2.51s1,1.64,1.51,2.6a76.48,76.48,0,0,1,4.8,11.29c1.24,3.53,2.26,6.72,3.35,9.49.27.68.54,1.34.82,2s.54,1.19.86,1.81c.61,1.21,1.31,2.48,2.11,3.81,1.6,2.67,3.49,5.56,5.44,8.86,1,1.65,2,3.38,2.91,5.26s1.72,3.73,2.51,5.55a119,119,0,0,1,6.81,22.34,166.1,166.1,0,0,1,3,22.39c1,14.78.61,29.2.23,43.12l-.11,5.2-.05,2.61-.08,2.87a50.63,50.63,0,0,1-2.16,14.07,33.61,33.61,0,0,1-3.89,8.08,36,36,0,0,1-5.61,6.61,52.53,52.53,0,0,1-5.66,4.54c-1.79,1.26-3.42,2.35-4.88,3.33s-2.71,1.84-3.75,2.63a22.16,22.16,0,0,0-2.61,2.32,54.05,54.05,0,0,0-5.05,6.05c-1.76,2.39-3.58,5.09-5.67,8.05-1,1.47-2.15,3-3.34,4.6s-2.53,3.14-3.83,4.69a116.64,116.64,0,0,1-8.31,8.9c-1.48,1.37-3,2.68-4.51,4-.76.65-1.51,1.34-2.29,2s-1.56,1.24-2.37,1.84c-1.6,1.19-3.17,2.47-4.81,3.57l-4.94,3.32a19.13,19.13,0,0,1-5.26,2.7,36.44,36.44,0,0,1-6,1.14,19.78,19.78,0,0,0-5.62,1.63L363,541.14c-1.74.77-3.5,1.41-5.25,2.07s-3.46,1.45-5.21,2.06l-5.22,2c-1.73.66-3.48,1.22-5.23,1.84-3.48,1.26-7,2.23-10.54,3.22s-7.09,1.73-10.65,2.39c-1.77.35-3.55.73-5.32,1l-5.32.9c-3.57.57-7.05,1.1-10.67,1.56q-2.69.36-5.43.66c-1.81.21-3.66.38-5.5.55-3.68.33-7.42.56-11.17.71-1.9,0-3.78.09-5.69.06s-3.8,0-5.74-.19a94.4,94.4,0,0,1-23.24-3.88,71.26,71.26,0,0,1-11.26-4.73c-.91-.48-1.84-.93-2.72-1.45l-2.62-1.66a52.59,52.59,0,0,1-5-3.52,73.9,73.9,0,0,1-16.4-17.35,54.09,54.09,0,0,1-3.11-5c-.48-.84-1-1.67-1.45-2.52l-1.27-2.58c-.4-.87-.81-1.75-1.18-2.62-.18-.44-.1-1-.34-1.4a14,14,0,0,0-.84-1.18c-.61-.78-1.34-1.51-2-2.28a13.08,13.08,0,0,1-1.64-2.4c-3.15-6.9-5.61-13.9-8-20.73-1.19-3.42-2.32-6.81-3.44-10.15l-1.66-5-.82-2.45-.42-1.22-.42-1.35-1.7-5.4-1.52-5.43c-.53-1.81-1-3.61-1.41-5.43s-.94-3.62-1.28-5.43q-2.32-10.89-3.72-21.61c-.95-7.15-1.56-14.18-2.12-21.13l-.71-10.32-.32-5.1a19.29,19.29,0,0,1,0-5.09c.56-3.43,3.09-7.05,5.12-10.68a22.28,22.28,0,0,0,2.18-5.38,25,25,0,0,0,.49-5.19,61.34,61.34,0,0,0-.53-10.24,89.5,89.5,0,0,0-2.12-10.06c-.88-3.34-1.82-6.67-2.76-10l-1.42-5c-.52-1.67-1-3.37-1.56-5-2.09-6.74-4.59-13.48-6.68-20.49a97.15,97.15,0,0,1-4.22-21.85c-.15-1.88-.18-3.76-.21-5.65a37.05,37.05,0,0,1,.39-5.66,38.46,38.46,0,0,1,1.35-5.61c.32-.92.63-1.84,1-2.75l.55-1.35q.25-.47.51-1c.68-1.56,1.35-3.51,2.15-5.66.38-1.09.85-2.23,1.42-3.49l.5-1c.21-.4.44-.77.67-1.14a12.29,12.29,0,0,1,1.65-2,10.79,10.79,0,0,1,5-2.95,9.2,9.2,0,0,1,3.25-.25,10.6,10.6,0,0,1,2.77.7,11.59,11.59,0,0,1,4,2.64,11.77,11.77,0,0,1,2.66,4,9.55,9.55,0,0,1,.65,2.84,11,11,0,0,1-.11,2.48c-.22,1.3-.43,2.06-.45,2.36a1.09,1.09,0,0,1,0,.13h0l0,.15a4,4,0,0,0,.11.66,5.35,5.35,0,0,0,.45,1.31,5.06,5.06,0,0,0,1.6,2,2.58,2.58,0,0,0,1.65.51c.14,0,.28-.05.43-.06s.36-.06.46-.14a1.15,1.15,0,0,0,.53-.33,4.69,4.69,0,0,0,.95-1.89,19,19,0,0,0,.73-4,44.49,44.49,0,0,0,.24-4.61c0-.76,0-1.52-.06-2.25l-.19-2.51-.42-5.15-.46-5.14c-.14-1.74-.32-3.28-.47-5.49a32.82,32.82,0,0,1,0-3.29c0-1.09.12-2,.19-3l.45-5.25q.42-5.13.75-10.29l.69-10.32a37.31,37.31,0,0,0-.19-8.4,14.86,14.86,0,0,0-.37-1.57q-.24-.85-.63-2a47,47,0,0,1-1.7-6c-.13-.63-.23-1.29-.32-2a18.49,18.49,0,0,1-.14-2.09c0-.7,0-1.39,0-2.09s.13-1.39.21-2.09a22.08,22.08,0,0,1,.89-4.06,14.74,14.74,0,0,1,.68-1.9c.25-.61.49-1.26.78-1.82a39.4,39.4,0,0,1,8.14-10.86c2.85-2.79,5.62-5.11,8-7.21.56-.51,1.17-1,1.65-1.52l.75-.73c.23-.23.37-.42.56-.63a8.08,8.08,0,0,0,1-1.25,9.65,9.65,0,0,0,.89-1.36,20.22,20.22,0,0,0,2.26-6.9,62,62,0,0,0,.64-9c0-3.26-.08-6.72-.1-10.37,0-.93,0-1.82,0-2.78l0-1.42,0-1.34c.05-1.66.09-3.07,0-4.2a7.56,7.56,0,0,0-.47-2.52,3.75,3.75,0,0,1-.21-.5c-.05-.18-.22-.31-.31-.48a5.47,5.47,0,0,0-.81-1c-1.39-1.42-4-2.84-7.07-4.25a72.25,72.25,0,0,1-10.2-5.44c-.45-.29-.9-.67-1.34-1a14.36,14.36,0,0,1-1.32-1.09,20.15,20.15,0,0,1-2.44-2.6c-.37-.48-.76-.93-1.1-1.46s-.66-1.07-1-1.62-.53-1.13-.78-1.69-.41-1.16-.6-1.74a21.54,21.54,0,0,1,.69-13.52,22.61,22.61,0,0,1,7.73-10.28,27.6,27.6,0,0,1,11.08-4.81,36.05,36.05,0,0,1,11.47-.41,72.18,72.18,0,0,1,10.69,2.23c7,2,13.7,5.29,19,10.34.65.64,1.29,1.29,1.91,2s1.21,1.4,1.72,2.09l3.22,4.12Q255.69,72,259,76c4.36,5.44,8.86,10.78,13.7,15.79s9.92,9.81,15.21,14.34Zm-.06.07q-4.15-3.17-8.17-6.57c-2.66-2.27-5.34-4.54-7.86-7-1.27-1.2-2.54-2.41-3.77-3.66s-2.42-2.53-3.61-3.81c-2.41-2.54-4.67-5.22-6.95-7.86s-4.52-5.33-6.76-8l-3.34-4c-.56-.69-1.12-1.26-1.68-1.9s-1.19-1.18-1.81-1.75a42.54,42.54,0,0,0-18.11-8.87c-6.64-1.54-13.63-2.55-20.21-.86a22.92,22.92,0,0,0-9,4.33,17.36,17.36,0,0,0-5.66,8.1,16,16,0,0,0-.22,9.87,11.49,11.49,0,0,0,2.46,4.3A17.1,17.1,0,0,0,197,81.78a62.27,62.27,0,0,0,9.36,4.43c3.2,1.36,6.5,2.76,9.23,5.06a14.59,14.59,0,0,1,1.85,1.92,9,9,0,0,1,.81,1.06l.67,1.16a14.11,14.11,0,0,1,1.51,5.06,44,44,0,0,1,.25,5.25c0,1.74,0,3.48.09,5.22.25,7,1,14,.05,20.91a29.53,29.53,0,0,1-3.05,10,29.94,29.94,0,0,1-6.58,8.07c-2.57,2.36-5.22,4.63-7.7,7.08a32.42,32.42,0,0,0-6.3,8.29,16.49,16.49,0,0,0-1.42,10.18c.65,3.43,2.13,6.65,2.53,10.14a46.06,46.06,0,0,1-.19,10.43L197,206.41q-.61,5.19-1.32,10.38l-.72,5.18a34.94,34.94,0,0,0-.39,5.21l.37,10.45.19,5.23c.07,1.74.13,3.49,0,5.23s-.26,3.48-.52,5.2a26.81,26.81,0,0,1-1.2,5.08,9.41,9.41,0,0,1-2.87,4.29,7.91,7.91,0,0,1-4.87,1.63,8.06,8.06,0,0,1-4.86-1.66,10.61,10.61,0,0,1-3.24-4,10.8,10.8,0,0,1-.83-2.48,7.87,7.87,0,0,1-.19-1.29,4.72,4.72,0,0,1,0-1.3c.09-.87.32-1.72.45-2.58a4.69,4.69,0,0,0-.24-2.57,6.72,6.72,0,0,0-3.62-3.58,4,4,0,0,0-2.56-.19,4.49,4.49,0,0,0-2.14,1.44,9.15,9.15,0,0,0-1.77,4.84c-.24,1.73-.29,3.48-.4,5.22a145.78,145.78,0,0,0-.34,20.9c.76,13.94,3.63,27.66,6.7,41.25s6.53,27.13,8.59,40.94c4.25,27.6,4.13,55.64,8.11,83.27,1.88,13.83,5.53,27.33,8.85,40.87,1.74,6.75,3.67,13.46,6.07,20a102.49,102.49,0,0,0,9,18.85,63.5,63.5,0,0,0,13.62,15.74,50.17,50.17,0,0,0,18.41,9.59A74.83,74.83,0,0,0,266,550a133.11,133.11,0,0,0,20.8-2c6.88-1.15,13.69-2.67,20.49-4.24s13.53-3.36,20.24-5.28,13.31-4.17,19.81-6.7c1.64-.59,3.23-1.32,4.84-2s3.23-1.31,4.8-2.07l4.75-2.2,4.65-2.39A132.4,132.4,0,0,0,384.07,512l2.11-1.54c.7-.53,1.35-1.11,2-1.66,1.33-1.11,2.69-2.2,4-3.35,2.52-2.4,5.14-4.71,7.44-7.34,4.86-5,8.83-10.79,13.41-16.05a54.11,54.11,0,0,1,16.06-13.22,57.09,57.09,0,0,0,8.65-5.85,19.74,19.74,0,0,0,5.84-8.52,38,38,0,0,0,1.74-10.27l.44-10.45c.58-13.93,1.16-27.89.34-41.82s-3.08-27.86-8.42-40.77c-2.46-6.56-6.51-12.31-10-18.35a59.93,59.93,0,0,1-4.5-9.43c-1.22-3.27-2.23-6.61-3.34-9.92a66,66,0,0,0-3.94-9.67c-.83-1.53-1.68-3.05-2.57-4.55s-1.81-3-2.8-4.42c-3.83-5.82-8-11.38-12-17.13-1-1.45-2-2.88-2.89-4.36l-1.41-2.21L393,268.87c-.92-1.49-1.65-3.08-2.49-4.61-.38-.78-.72-1.59-1.08-2.38s-.74-1.58-1-2.41l-.9-2.46c-.32-.82-.48-1.68-.73-2.51a25.51,25.51,0,0,1-.64-2.54l-.45-2.58a20.64,20.64,0,0,1-.27-2.6l-.17-2.62c-.05-1.74-.11-3.48-.32-5.21a15.24,15.24,0,0,0-1.29-5,11.33,11.33,0,0,0-3.44-3.85,89.83,89.83,0,0,1-8.15-6.55,36.35,36.35,0,0,1-6.42-8.23,93.9,93.9,0,0,1-4.68-9.36c-1.43-3.18-2.83-6.38-4.48-9.44s-3.43-6.07-5.35-9A151.22,151.22,0,0,0,338.35,171c-2.3-2.62-4.71-5.15-6.75-8a32.35,32.35,0,0,1-2.76-4.45,35.13,35.13,0,0,1-2-4.85l-1.58-5c-.5-1.67-1.2-3.26-1.85-4.88a56.38,56.38,0,0,0-5.21-9,80.16,80.16,0,0,0-6.71-8c-2.42-2.5-5-4.88-7.58-7.19s-5.31-4.52-8-6.74l-4-3.32c-1.35-1.11-2.73-2.17-4.09-3.26Z"/><path d="M163.48,140.9a6.8,6.8,0,0,0-4.44,5.86,4.7,4.7,0,0,0,1.05,3.27,6,6,0,0,0,2.78,1.75,22.24,22.24,0,0,0,7,.91,25.36,25.36,0,0,0,6.5-.8,7.66,7.66,0,0,0,1.21-.46,4,4,0,0,0,.94-.53,3.85,3.85,0,0,0,1.15-1.28,2.23,2.23,0,0,0-.11-1.91,8.46,8.46,0,0,0-1.9-2.65,17.13,17.13,0,0,0-6.44-4A11.65,11.65,0,0,0,163.48,140.9Zm0,0a18.22,18.22,0,0,1,7.93-.75,27,27,0,0,1,8.19,2,12.51,12.51,0,0,1,3.92,2.69,8.26,8.26,0,0,1,1.56,2.33,6.88,6.88,0,0,1,.6,3.17,8.52,8.52,0,0,1-2.57,5.55,11.35,11.35,0,0,1-4.77,2.73,18.36,18.36,0,0,1-9.25.07,23.11,23.11,0,0,1-4.21-1.48,19.61,19.61,0,0,1-3.81-2.42c-.29-.26-.58-.51-.85-.78l-.79-.88a7.93,7.93,0,0,1-1.17-2.08,7,7,0,0,1-.16-4.42,8.42,8.42,0,0,1,2.07-3.53A8.87,8.87,0,0,1,163.48,140.9Z"/><path d="M163.35,86a6.77,6.77,0,0,0-7.24,1.23,4.68,4.68,0,0,0-1.48,3.11,5.93,5.93,0,0,0,.83,3.17,22.06,22.06,0,0,0,4.47,5.45,25.18,25.18,0,0,0,5.28,3.86,7.1,7.1,0,0,0,1.19.5,4,4,0,0,0,1.06.26,3.84,3.84,0,0,0,1.71-.15,2.16,2.16,0,0,0,1.22-1.46,8.4,8.4,0,0,0,.44-3.24,17.2,17.2,0,0,0-2-7.29A11.7,11.7,0,0,0,163.35,86Zm0,0a18.05,18.05,0,0,1,6.29,4.89,26.75,26.75,0,0,1,4.62,7,12.3,12.3,0,0,1,1,4.64,8,8,0,0,1-.46,2.77,6.89,6.89,0,0,1-1.73,2.71,8.42,8.42,0,0,1-5.67,2.29,11.39,11.39,0,0,1-5.35-1.27,18.43,18.43,0,0,1-6.79-6.28,22.18,22.18,0,0,1-2.05-4,19.17,19.17,0,0,1-1.12-4.38c0-.39-.08-.77-.1-1.15l0-1.18a7.9,7.9,0,0,1,.58-2.32,6.84,6.84,0,0,1,2.91-3.32,8.14,8.14,0,0,1,3.93-1.16A8.75,8.75,0,0,1,163.35,86Z"/><path d="M180.74,81.9a4.47,4.47,0,0,0-5,.67,2.72,2.72,0,0,0-.81,2.12,5,5,0,0,0,.82,2.13,18.4,18.4,0,0,0,3.3,3.64,21.45,21.45,0,0,0,3.69,2.67,5.48,5.48,0,0,0,1.54.59,3.77,3.77,0,0,0,1,0,.49.49,0,0,0,.33-.18,2.11,2.11,0,0,0,.33-.72,6.2,6.2,0,0,0,.15-2.24,13,13,0,0,0-1.57-5A8.75,8.75,0,0,0,180.74,81.9Zm0,0a14.35,14.35,0,0,1,4.33,3.33,20.87,20.87,0,0,1,3.42,4.65,8.89,8.89,0,0,1,1,3.1,5.53,5.53,0,0,1-.14,2A4.56,4.56,0,0,1,188.16,97,5.61,5.61,0,0,1,184,98.55a8.19,8.19,0,0,1-3.61-1,13.38,13.38,0,0,1-4.6-4.28,15.11,15.11,0,0,1-2.37-5.59,6.89,6.89,0,0,1,0-3.19A4.2,4.2,0,0,1,175.36,82a5.09,5.09,0,0,1,2.73-.72A6.37,6.37,0,0,1,180.74,81.9Z"/></svg>