<svg id="Layer_1" data-name="Layer 1" xmlns="http://www.w3.org/2000/svg" viewBox="0 0 600 600"><title>Sudan</title><path d="M173.1,79.63a13.59,13.59,0,0,1,5.4-2.88,26.66,26.66,0,0,1,6.08-1c2.06-.12,4.13-.1,6.18,0l6.17.34c8.21.35,16.46-.15,24.67-.53s16.44-1,24.68-1.36L271,73.05l12.35-.53c4.11-.17,8.23-.44,12.34-.65s8.23-.44,12.34-.71,8.23-.56,12.34-.9c8.23-.67,16.46-1.32,24.68-2.36s16.43-2.31,24.65-3.54c2.07-.31,4-.61,5.64-1A24,24,0,0,0,379.55,62a8.58,8.58,0,0,0,1.43-.79,8.88,8.88,0,0,0,1-.86,31.56,31.56,0,0,0,2.45-2.55l3.43-4.13c1.35-1.61,2.91-3.44,4.87-5.37a45.65,45.65,0,0,1,14.5-9.46,47.61,47.61,0,0,1,16.45-3.5,50.94,50.94,0,0,1,8.21.33,27.8,27.8,0,0,1,7.89,1.93c.64.23,1.24.57,1.85.86s1.22.58,1.8.95c1.17.7,2.32,1.39,3.43,2.17,2.23,1.49,4.33,3.07,6.5,4.46s4.36,2.75,6.41,4.36a47.69,47.69,0,0,1,5.85,5.27A46.71,46.71,0,0,1,474.51,69a62.9,62.9,0,0,1,4.14,14.35,121.28,121.28,0,0,1,1.5,13.48l.78,12.37c.56,7.81,1.66,14.87,4.18,19.63a23,23,0,0,0,2.06,3.24,20,20,0,0,0,2.56,2.65,59.9,59.9,0,0,0,8.38,5.47c1.78,1,3.72,2.17,5.78,3.51,1,.67,2.08,1.39,3.15,2.19.5.36,1.12.86,1.7,1.33s1.13,1,1.68,1.48a40.51,40.51,0,0,1,5.92,6.91,33.55,33.55,0,0,1,4.33,9,26.75,26.75,0,0,1,.89,11.8c-.2,1.05-.4,2.11-.69,3.14a29.87,29.87,0,0,1-1.09,3,30.28,30.28,0,0,1-1.4,2.79c-.54.87-1.1,1.76-1.7,2.58a30.72,30.72,0,0,1-7.91,7.2,61.3,61.3,0,0,1-6.95,3.79c-4.07,2-7.2,3.42-8.51,4.6a10.19,10.19,0,0,0-2.08,2.24,16.07,16.07,0,0,0-1.77,3,26.47,26.47,0,0,0-2.23,7.91,41.74,41.74,0,0,0-.37,4.52c-.05.77,0,1.54,0,2.32s.07,1.66.14,2.53c.41,6.84,2.06,14.61,3.12,23.77.25,2.29.47,4.66.59,7.14s.08,5,.1,7.47a108.41,108.41,0,0,1-1.42,14.71l-.62,3.61-.77,3.54c-.48,2.38-1.14,4.64-1.77,6.95s-1.39,4.51-2.12,6.74-1.51,4.43-2.38,6.53-1.72,4.26-2.64,6.31-1.83,4.13-2.77,6.14a25.09,25.09,0,0,1-3.3,5.76c-1.39,1.73-3.14,3.23-4.69,4.84a22.43,22.43,0,0,0-2.12,2.48,23.74,23.74,0,0,0-1.65,2.72c-1,1.84-2,3.73-2.92,5.58s-1.81,3.76-2.65,5.65l-2.44,5.73c-1.57,3.85-3.13,7.7-4.8,11.5a114.18,114.18,0,0,1-5.63,11,85.36,85.36,0,0,1-6.92,10.26c-.66.8-1.3,1.62-2,2.41l-2.27,2.59a59.07,59.07,0,0,1-5.18,5.11c-1.73,1.53-3.41,2.93-5.05,4.31s-3.25,2.68-4.73,4.05a44.13,44.13,0,0,0-7.42,8.53,26,26,0,0,0-3.8,9,10.66,10.66,0,0,0,.77,7.1,8.83,8.83,0,0,0,1.58,2.05,15.61,15.61,0,0,0,1.92,1.61c.65.45,1.34.94,2.15,1.56l.63.5c.23.18.5.35.72.55s.51.42.77.63l.85.68c1.12,1,2.55,2.07,4.05,3.39s3.18,2.78,4.91,4.5c.93.88,1.61,1.65,2.34,2.44s1.42,1.62,2.14,2.43,1.38,1.68,2.07,2.52l2,2.63c5.26,7.09,10.06,14.77,14.85,22.33.57,1,1.16,1.92,1.71,2.91s1.09,2,1.64,2.95,1.15,1.92,1.69,2.91c.3.47.6.94.92,1.4l1,1.25c.62.75,1.27,1.6,1.9,2.48.32.44.41,1.06.77,1.48s.82.81,1.24,1.22a30,30,0,0,1,5.31,5.51,28.14,28.14,0,0,1,2.11,3.83c.33.71.65,1.41.95,2.25l.43,1.21.39,1.35a23.69,23.69,0,0,1,.84,6.34c0,.4-.08,1.23-.16,1.82a17.32,17.32,0,0,1-.4,1.9,17.68,17.68,0,0,1-.6,1.78,15.92,15.92,0,0,1-.75,1.6,18.31,18.31,0,0,1-3.43,4.52,23.71,23.71,0,0,1-3.08,2.46c-.95.63-1.79,1.11-2.61,1.55a40.22,40.22,0,0,1-4.37,2,59.28,59.28,0,0,1-7.39,2.32c-4.63,1.18-8.94,2-13.15,2.77l-12.07,2.15c-1.88.36-3.7.74-5.14,1.13a8.69,8.69,0,0,0-1.52.51c-.1,0-.06.09.37-.07.15-.06.22-.09,0,0l-.35.18-.68.37-10.92,5.8-10.93,5.8c-3.59,1.91-7.42,3.87-11.37,5.8A134.14,134.14,0,0,1,356.21,567a82.13,82.13,0,0,1-16.16,2.22,29.83,29.83,0,0,1-8.71-.56,27.85,27.85,0,0,1-4.25-1.5c-1.38-.67-2.71-1.41-4-2.19a29.72,29.72,0,0,1-3.6-2.67c-1.09-1-2.08-2-3-3-1.83-2-3.37-4-4.83-5.88a31,31,0,0,0-4.59-4.69,33.36,33.36,0,0,0-5.21-3.38A46.43,46.43,0,0,0,290.2,541L284,539.51c-1.05-.24-2.06-.54-3.09-.81s-2-.55-3.06-.87c-2-.65-4-1.37-6-2.06A43.12,43.12,0,0,1,266,533.4c-3.73-2-7.41-4.12-11-6.44s-7.16-4.73-10.67-7.21-7-5-10.4-7.61c-6.79-5.24-13.44-10.61-20.1-16-1.66-1.34-3.4-2.59-5.1-3.88s-3.48-2.52-5.19-3.81l-5.17-3.86-5.15-3.92c-1.72-1.3-3.41-2.65-5.12-4L183,472.65c-1.67-1.38-3.37-2.75-5-4.16l-2.49-2.12-1.24-1.06-1.08-.88c-2.81-2.3-6-4.61-9.17-7.14s-6.66-5.15-10.09-8.23c-1.73-1.49-3.44-3.18-5.17-4.89s-3.46-3.66-5.05-5.61l-1.22-1.45-1.12-1.47c-.75-1-1.49-2-2.18-3-1.43-2-2.71-4-3.95-5.94a192.71,192.71,0,0,1-12-23.2c-1.65-3.72-3.23-7.33-4.72-10.8l-2.41-5.5c-.83-1.9-1.64-3.8-2.43-5.72-6.35-15.32-11.91-31.09-18.31-46.39-3.1-7.67-6.83-15.74-9.44-24.66a67.76,67.76,0,0,1-2.59-14.14,42.92,42.92,0,0,1,1.47-15l1.18-3.61,1.51-3.43a14.18,14.18,0,0,1,.84-1.65l.91-1.61a28.78,28.78,0,0,1,2-3.05,62.49,62.49,0,0,1,9.08-10.37c6.48-6,13.19-10.89,19.19-16.06a78.69,78.69,0,0,0,8.24-8.06,57.24,57.24,0,0,0,6.51-9.21,77.69,77.69,0,0,0,8.19-21.58,100.48,100.48,0,0,0,2.47-23.45c-.17-7.92-1.35-16-2.23-24.31-.44-4.14-.8-8.32-.88-12.54a14.4,14.4,0,0,1,1.21-7,8.69,8.69,0,0,1,2.51-3,9.75,9.75,0,0,1,3.35-1.61,23,23,0,0,1,6.6-.66c2.12.05,4.19.22,6.22.32a25,25,0,0,0,5.89-.2,6.89,6.89,0,0,0,4.48-3,11.14,11.14,0,0,0,1.42-5.63,43.35,43.35,0,0,0-.35-6.11c-.22-2-.46-4.1-.55-6.17a41.88,41.88,0,0,0-.82-6.08,106.62,106.62,0,0,1-2-12.2,20.24,20.24,0,0,1,.4-6.16,8.42,8.42,0,0,1,.48-1.47,8.9,8.9,0,0,1,.65-1.4A11.23,11.23,0,0,1,173.1,79.63Zm0,0a9.58,9.58,0,0,0-2.39,3.87,7.56,7.56,0,0,0-.41,1.46,20.12,20.12,0,0,0-.14,6,106.87,106.87,0,0,0,2.5,12,43.06,43.06,0,0,1,1.09,6.21c.17,2,.49,4,.79,6.06a40.41,40.41,0,0,1,.59,6.3,13.13,13.13,0,0,1-1.47,6.61l-.48.77c-.19.24-.4.46-.6.69a8.19,8.19,0,0,1-1.37,1.2,10,10,0,0,1-3.21,1.45,26.17,26.17,0,0,1-6.46.49c-2.09,0-4.13-.12-6.14-.1a20.79,20.79,0,0,0-5.77.74,6.11,6.11,0,0,0-4,3.2,11.22,11.22,0,0,0-.71,5.52c.23,4.06.71,8.13,1.29,12.19,1.16,8.11,2.71,16.26,3.19,24.56a90.72,90.72,0,0,1-.14,12.45,102.29,102.29,0,0,1-1.66,12.33,82.8,82.8,0,0,1-8.32,23.36,63.51,63.51,0,0,1-7,10.29,94.23,94.23,0,0,1-8.66,8.87c-6.14,5.53-12.66,10.58-18.49,16.37a57.3,57.3,0,0,0-7.89,9.42,22.64,22.64,0,0,0-1.6,2.62L95,276a11,11,0,0,0-.67,1.38l-1.17,2.84-.86,3a33.73,33.73,0,0,0-.8,12.22,52.62,52.62,0,0,0,2.87,12c2.76,7.77,6.86,15,10.88,22.14l24.18,43.08,6,10.78c2,3.62,3.85,7.28,5.72,11,3.74,7.33,7.42,14.71,11.67,21.77a113.74,113.74,0,0,0,6.87,10.25,101,101,0,0,0,8.06,9.35c5.7,5.94,11.82,11.48,17.42,17.51a313.3,313.3,0,0,0,35.83,33.95A307.07,307.07,0,0,0,261.8,515c14.28,8.2,29.08,15.46,43.77,22.89l11,5.56A66.32,66.32,0,0,0,328,548.25c7.93,2.35,16.41,2.08,24.45.44a120.33,120.33,0,0,0,23.33-8c7.53-3.34,14.95-6.92,22.42-10.37l11.19-5.23a20.08,20.08,0,0,1,5.86-1.88c2-.4,4.06-.69,6.1-1,8.16-1.1,16.38-1.82,24.45-3.44a55.19,55.19,0,0,0,6-1.54,15.91,15.91,0,0,0,5.47-2.78,3.92,3.92,0,0,0,1.39-2.66,12.08,12.08,0,0,0-.29-3.06,23.19,23.19,0,0,0-2.21-5.75,82.88,82.88,0,0,0-6.82-10.28q-3.62-5-7.66-9.69a211.51,211.51,0,0,0-17.34-17.58q-4.56-4.16-9.25-8.18c-3.14-2.66-6.45-5.12-9.54-7.85a37.6,37.6,0,0,1-8-9.34,29,29,0,0,1-2.43-5.67,27.08,27.08,0,0,1-1-6.07,33.23,33.23,0,0,1,1.85-12.14A63.77,63.77,0,0,1,401,405c4.05-7.18,9-13.8,13.61-20.61,1.15-1.71,2.28-3.43,3.35-5.19l3.14-5.31,6.25-10.66,12.51-21.3c4.16-7.1,8.38-14.18,12.41-21.36s7.84-14.49,11.15-22a126,126,0,0,0,7.82-23.39,98.38,98.38,0,0,0,1.9-12.19c.09-2.06.28-4.11.29-6.17s0-4.11-.12-6.17c-.38-8.22-1.47-16.41-1.41-24.66s1.44-16.58,5.42-23.85a31.08,31.08,0,0,1,5.58-7.35,26.17,26.17,0,0,1,2.38-2c3.3-2.5,7.18-4,10.88-5.8a48.08,48.08,0,0,0,5.44-2.91,17.51,17.51,0,0,0,4.58-4.08,12.73,12.73,0,0,0,2.43-5.6,13.85,13.85,0,0,0-.47-6.1,24,24,0,0,0-6.6-10.25,61.74,61.74,0,0,0-10.05-7.13,65.72,65.72,0,0,1-10.08-7.12,31.51,31.51,0,0,1-4.1-4.61,33.45,33.45,0,0,1-3.1-5.34A45.52,45.52,0,0,1,470.81,122a109.82,109.82,0,0,1-1.12-12.29c-.38-8.22-.32-16.49-1.64-24.63a50.73,50.73,0,0,0-3.31-11.86A34.54,34.54,0,0,0,457.92,63a42.71,42.71,0,0,0-21.28-11.8,45.39,45.39,0,0,0-12.24-1.11,43.3,43.3,0,0,0-6.12.72,38.87,38.87,0,0,0-5.92,1.69,34.93,34.93,0,0,0-10.58,6.21c-3.1,2.69-5.8,5.83-8.88,8.57a30.29,30.29,0,0,1-5,3.64,22.17,22.17,0,0,1-5.78,2.17,59.64,59.64,0,0,1-12.3,1L271,75.56l-24.7.38-24.7.51q-6.18.1-12.35.1l-6.18,0c-2.06,0-4.12-.1-6.17-.26a94.08,94.08,0,0,0-12.33-.46,26.67,26.67,0,0,0-6.09,1A13.42,13.42,0,0,0,173.12,79.65Z"/></svg>