<svg id="Layer_1" data-name="Layer 1" xmlns="http://www.w3.org/2000/svg" viewBox="0 0 600 600"><title>Swaziland</title><path d="M258.78,77.87A72.86,72.86,0,0,0,266,69.2a74.17,74.17,0,0,1,7.17-8.79A44,44,0,0,1,282,53.09a33.5,33.5,0,0,1,10.91-4.21,24.37,24.37,0,0,1,6-.43,20.54,20.54,0,0,1,6.06,1.1,24.44,24.44,0,0,1,5.6,2.67,52.17,52.17,0,0,1,4.9,3.45L320,59.21c1.47,1.17,2.93,2.34,4.43,3.47q4.51,3.38,9.09,6.64c12.26,8.65,25,16.54,37.7,24.16,3.16,1.93,6.35,3.82,9.54,5.68l9.48,5.68,2.4,1.43,2.49,1.55,4.8,3c1.56,1,3.08,2,4.59,2.91l2.23,1.38,2.14,1.38a72.81,72.81,0,0,1,7.62,6,52.05,52.05,0,0,0,7.26,5.7c.31.2.64.37,1,.56s.59.31.9.46l.91.42c.33.12.66.23,1,.32s.67.21,1,.29a10.13,10.13,0,0,0,1.1.2,15.28,15.28,0,0,0,2.3.25c1.58.1,3.28,0,5.05-.08l2.72-.15,2.86-.2a95.6,95.6,0,0,1,12.93-.2,50.14,50.14,0,0,1,7.29,1,36.69,36.69,0,0,1,3.76.91c1.2.35,2.72.85,3.2,1l5,1.27a60,60,0,0,1,6.49,1.92c.63.24,1.2.42,1.88.73l2,.9a30.84,30.84,0,0,1,4.36,2.65l1.12.82,1.14,1a22.14,22.14,0,0,1,2.2,2.23,31.17,31.17,0,0,1,2,2.61c.6.94,1.17,1.92,1.7,2.92a27.84,27.84,0,0,1,2.17,6.09l.33,1.51.15.76.09.68c.1.92.18,1.85.24,2.78l.05.7,0,.32.07.58.13,1.16.34,2.35c.51,3.17,1.1,6.47,1.74,10a180.62,180.62,0,0,1,3.19,23.4,60.39,60.39,0,0,1-1.23,14.43,84.69,84.69,0,0,1-3.85,12.76c-1.52,4-3.13,7.69-4.63,11.27s-2.84,7.05-4,10.44c-.53,1.69-1.06,3.39-1.5,5-.23.81-.42,1.61-.6,2.41s-.38,1.6-.53,2.39a56.57,56.57,0,0,0-1,9.31c-.08,6,.83,11.29,2.66,15.16l.33.74c.12.23.27.44.39.67a9.42,9.42,0,0,0,.8,1.3c.31.4.55.8.91,1.22l1.29,1.57c1,1.2,2.34,2.73,3.86,4.7a44.22,44.22,0,0,1,4.78,7.65,37.06,37.06,0,0,1,2,5.19,38.81,38.81,0,0,1,1.18,5.2,52.87,52.87,0,0,1,.58,8.77c0,2.52-.13,4.6-.22,6.41l-.28,5.64c-.28,3.74-.46,7.5-.83,11.24l-.49,5.61c-.17,1.87-.42,3.73-.63,5.6-.55,3.72-1.18,7.44-2.05,11.13-.41,1.85-.88,3.69-1.32,5.53l-.63,2.55-.29,1.17-.26,1.26c-.75,3.39-1.17,7.27-2.28,12.28-.12.57-.33,1.3-.52,2s-.37,1.33-.59,2-.53,1.5-.81,2.24c-.15.37-.27.72-.45,1.11l-.57,1.21c-.4.8-.77,1.57-1.23,2.37s-1.05,1.62-1.6,2.4a18.76,18.76,0,0,1-1.87,2.27,21.56,21.56,0,0,1-2.1,2.07,24.91,24.91,0,0,1-4.59,3.2c-.77.41-1.56.85-2.32,1.21s-1.47.58-2.21.85l-1.1.4a7.88,7.88,0,0,1-1.07.32l-2,.52c-.67.16-1.38.37-2,.46l-1.87.28-1.85.31c-.62.1-1.07.14-1.6.21-1,.11-2,.21-2.87.34-1.81.24-3.41.48-4.78.76a15.58,15.58,0,0,0-3.35,1,7.61,7.61,0,0,0-1.09.58c-.1.09-.24.17-.32.26s-.17.15-.22.23a1.56,1.56,0,0,0-.36.83,12,12,0,0,0-.28,1.82,43.18,43.18,0,0,0,.41,8l.64,5.4c.23,1.95.43,4.05.51,6.39a46,46,0,0,1-.32,8l-.79,5.87-1.48,11.1c-1,7.4-1.93,14.81-2.89,22.2-.45,3.7-1,7.39-1.5,11.08q-.37,2.78-.81,5.53l-.11.69-.05.35a1.25,1.25,0,0,0,0,.26c0,.25-.06.46-.07.77s-.05.57-.06.91,0,.66-.05,1c-.08,2.88-.11,6.52-.11,10.41a116.27,116.27,0,0,1-.73,12.86,44.68,44.68,0,0,1-4.51,15.77,30.54,30.54,0,0,1-6.39,8.42l-1.05,1c-.35.28-.67.51-1,.77-.66.49-1.33,1-2,1.44s-1.52.9-2.29,1.31a20.23,20.23,0,0,1-2.43,1.16c-.86.35-1.7.68-2.58,1s-1.8.48-2.7.68a23.11,23.11,0,0,1-2.7.39l-1.34.12H417a29.87,29.87,0,0,1-4.87-.41,35.09,35.09,0,0,1-4.1-1,49.35,49.35,0,0,1-6.52-2.52c-1.9-.81-3.58-1.61-5.08-2.28-.79-.35-1.45-.62-2.19-.93s-1.55-.58-2.36-.84c-1.6-.52-3.24-1-4.93-1.44a45.62,45.62,0,0,0-10.6-1l-11.21.2c-1.92,0-3.86,0-5.83,0h-5.75l-11.19.12L331,553c-7.62.19-15.37.28-23.28.08s-15.84-.83-23.78-1.76c-4-.54-7.94-1-11.89-1.81-2-.38-4-.71-5.95-1.14l-5.94-1.32c-2-.42-3.93-1.06-5.91-1.58s-3.94-1.08-5.89-1.74c-3.89-1.3-7.92-2.37-11.62-4.28-.92-.5-1.83-1-2.7-1.6s-1.71-1.28-2.53-2c-1.63-1.42-3.24-2.81-4.81-4.29a65.35,65.35,0,0,0-10-7.58l-2.56-1.73c-.85-.58-1.67-1.24-2.5-1.85-1.65-1.26-3.31-2.49-4.94-3.77-3.16-2.72-6.37-5.33-9.3-8.32-3.06-2.81-5.82-6-8.63-9-1.33-1.61-2.63-3.24-3.95-4.86-.64-.81-1.31-1.61-1.94-2.43s-1.23-1.67-1.82-2.49c-2.35-3.3-4.53-6.45-6.6-9.44s-4.17-5.7-6.26-8.16c-1.06-1.23-2.1-2.32-3.27-3.45s-2.52-2.36-4-3.71a62.9,62.9,0,0,1-9.31-10.27c-.71-1.12-1.42-2.24-2.1-3.4s-1.22-2.47-1.78-3.73-1-2.61-1.4-3.95-.81-2.7-1-4a124,124,0,0,1-1.9-14.7A60.44,60.44,0,0,0,142,414.64a14.26,14.26,0,0,0-.48-1.64l-.22-.72c-.07-.23-.19-.41-.26-.62s-.14-.39-.2-.59-.19-.47-.27-.7c-.17-.47-.37-1-.59-1.44A39.41,39.41,0,0,0,132,397.82c-.81-.79-1.62-1.51-2.46-2.24s-1.66-1.29-2.4-1.83a16.2,16.2,0,0,0-2.14-1.29c-.33-.15-.64-.31-.94-.42s.09,0,.25.07l.42.09.13,0H125a7.5,7.5,0,0,0-1.37-.22l-3.4-.42a42.7,42.7,0,0,1-5.66-1.19c-.61-.19-1.18-.37-1.82-.6s-1.35-.53-2-.82a26.81,26.81,0,0,1-4.4-2.53c-.34-.24-.8-.57-1-.77l-.75-.65c-.5-.44-1-.89-1.45-1.35a32.48,32.48,0,0,1-2.52-2.9,29.28,29.28,0,0,1-3.47-6,34.25,34.25,0,0,1-2.48-10.48c-.06-.77-.11-1.53-.11-2.23s0-1.45,0-2.11c0-1.38.06-2.66.15-3.92.2-2.51.49-4.8.77-7l1.63-12.32c.26-1.92.45-3.79.62-5.52a37.08,37.08,0,0,0,.18-4.59,5.82,5.82,0,0,0-.07-.74l0-.14a1.37,1.37,0,0,1,0-.21l0-.75-.24-3-.36-6c-.27-4-.41-8.08-.46-12.14s.08-8.12.36-12.17a119.46,119.46,0,0,1,1.57-12.08c.34-2,.8-4,1.25-6a48.47,48.47,0,0,1,1.72-5.86,57,57,0,0,1,5.86-11.1c2.35-3.65,4.94-7.23,7.22-10.92s4.44-7.46,6.58-11.41l3.27-6.06c1.13-2.06,2.32-4.18,3.7-6.24a45.55,45.55,0,0,1,4.72-6,36.7,36.7,0,0,1,5.93-5,39.81,39.81,0,0,1,6.07-3.24c1.93-.84,3.7-1.55,5.29-2.21s3-1.26,4.25-1.84a35.72,35.72,0,0,0,3.57-1.94c1.17-.75,2.38-1.55,3.59-2.44s2.41-1.88,3.61-2.94c2.41-2.1,4.77-4.52,7.19-7.09l3.6-3.92c1.16-1.35,2.37-2.67,3.5-4.05A207.31,207.31,0,0,0,204,145.32q2.61-4.86,5-9.89c.74-1.68,1.55-3.36,2.25-5.07s1.47-3.43,2.09-5.08c1.28-3.37,2.23-7,3.38-10.69a46.73,46.73,0,0,1,2.09-5.51,22.13,22.13,0,0,1,3.23-5c2.68-3,6.06-4.89,9.28-6.75s6.52-3.74,9.73-5.68C247.46,87.75,253.67,83.4,258.78,77.87Zm.07.07a74.46,74.46,0,0,1-8.12,7.86,108.67,108.67,0,0,1-9.13,6.71c-3.14,2.1-6.34,4.09-9.49,6.12-1.58,1-3.18,2-4.6,3a17.4,17.4,0,0,0-3.69,3.68,20,20,0,0,0-2.44,4.68,42.39,42.39,0,0,0-1.45,5.26c-.77,3.62-1.36,7.37-2.3,11.07a194.25,194.25,0,0,1-7.24,21.48,208.68,208.68,0,0,1-9.54,20.52,208.69,208.69,0,0,1-11.74,19.31,155.27,155.27,0,0,1-13.94,17.79,65.87,65.87,0,0,1-8.38,7.63,58.36,58.36,0,0,1-9.7,5.84c-3.36,1.69-6.77,3.25-10,5.22a42,42,0,0,0-8.62,7.11,61.44,61.44,0,0,0-11.58,19.13,156.78,156.78,0,0,0-6.53,21.54c-1.74,7.31-3.1,14.71-4.14,22.15s-1.74,14.93-2.09,22.43c-.1,1.88-.14,3.76-.2,5.63s0,3.76-.16,5.63c-.3,3.75-.94,7.46-1.47,11.17s-1.06,7.45-1.32,11.19a47,47,0,0,0,.31,11.24,19.6,19.6,0,0,0,1.68,5.35,11,11,0,0,0,3.61,4.25,11.54,11.54,0,0,0,5.36,1.53c1.87.17,3.76.2,5.62.45a19.48,19.48,0,0,1,5.36,1.65,35.32,35.32,0,0,1,4.94,2.71,46.23,46.23,0,0,1,8.53,7.32,49,49,0,0,1,11,19.45,35.88,35.88,0,0,1,1.31,11.15c-.11,3.75-.71,7.47-1.15,11.2a42.66,42.66,0,0,0-.17,11.23,24.91,24.91,0,0,0,4.05,10.42,49.25,49.25,0,0,0,7.48,8.39,105,105,0,0,1,7.94,8c4.94,5.67,9.06,12,13.62,17.95.57.75,1.15,1.49,1.73,2.22s1.22,1.43,1.83,2.14c1.24,1.42,2.44,2.86,3.7,4.25,2.66,2.65,5.23,5.41,8.12,7.81,2.75,2.56,5.8,4.77,8.75,7.09,1.53,1.08,3.1,2.13,4.64,3.19.79.52,1.54,1.08,2.34,1.57l2.42,1.46,2.41,1.45c.8.5,1.6,1,2.44,1.41l5,2.65c1.65.89,3.38,1.63,5.07,2.46l2.55,1.2c.85.39,1.73.73,2.59,1.1l5.2,2.17,5.29,2c1.75.68,3.54,1.23,5.33,1.82s3.55,1.21,5.37,1.69c7.2,2.17,14.52,3.88,21.87,5.41,3.7.67,7.38,1.42,11.1,2s7.43,1.13,11.16,1.57c14.93,1.73,29.95,2.34,44.93,3.48,7.49.68,15,.85,22.51,1.25s15,1.11,22.28,3.08c3.63,1,7.18,2.25,10.89,2.87a16.43,16.43,0,0,0,10.95-1.38,17,17,0,0,0,7.51-8.13,35.25,35.25,0,0,0,2.61-10.9c.76-7.49.23-15,.59-22.53a93.52,93.52,0,0,1,1.59-11.15l1.91-11.1L439,462.23l1.91-11.11.94-5.55a35.21,35.21,0,0,0,.35-5.62c0-3.76-.41-7.5-.58-11.25a44.91,44.91,0,0,1,.53-11.23,18.79,18.79,0,0,1,1.89-5.29,14.85,14.85,0,0,1,3.59-4.3,24,24,0,0,1,10.27-4.37c3.68-.79,7.45-1.05,11.12-1.82s7.34-2.05,10.05-4.71a13.16,13.16,0,0,0,2.95-4.73,20.87,20.87,0,0,0,.82-2.69c.17-.92.36-1.84.47-2.78.47-3.72.53-7.49.76-11.24s.62-7.48.95-11.22l1-11.23,2.07-22.44c.33-3.74.75-7.48,1-11.22a23.72,23.72,0,0,0-1.59-11c-1.53-3.45-3.93-6.39-6.13-9.42a38.73,38.73,0,0,1-5.4-9.85c-2.62-7.07-3.11-14.76-2.49-22.23a110.63,110.63,0,0,1,4.54-22c2.12-7.21,4.52-14.33,6.34-21.62A79.52,79.52,0,0,0,487.12,201c-.29-7.5-1.27-15-2-22.44-.35-3.74-.63-7.49-.72-11.25l0-2.82c0-.94.05-1.88,0-2.81a14,14,0,0,0-1-5.48,11.9,11.9,0,0,0-3.41-4.39,21.37,21.37,0,0,0-4.78-2.91c-3.4-1.6-7-2.7-10.47-4.17a42.66,42.66,0,0,0-5.28-1.92,39.56,39.56,0,0,0-5.51-1.12,78.1,78.1,0,0,0-11.24-.45c-3.75.06-7.51.2-11.27,0a44,44,0,0,1-11.11-1.77c-7.23-2.16-13.87-5.88-20.11-10s-12.19-8.79-18.31-13.14-12.1-8.92-18-13.56Q346.19,88.81,329.6,73.52c-5.54-5.08-10.92-10.32-16.28-15.59a30.06,30.06,0,0,0-9.12-6.46,20.49,20.49,0,0,0-11-1.11,31.22,31.22,0,0,0-10.52,3.81,43.81,43.81,0,0,0-8.85,6.9C268.45,66.36,263.89,72.37,258.85,77.94Z"/></svg>