<svg id="Layer_1" data-name="Layer 1" xmlns="http://www.w3.org/2000/svg" viewBox="0 0 600 600"><title>Taiwan</title><path d="M410.42,50.3a12.75,12.75,0,0,0-4.73-.07,13,13,0,0,0-4.42,1.7,32.18,32.18,0,0,0-3.85,2.67,36.87,36.87,0,0,0-3.51,3.1c-1.11,1.11-2.15,2.27-3.17,3.47s-2.16,2.44-3.33,3.58a45.72,45.72,0,0,1-7.79,6.09,43.54,43.54,0,0,1-9.05,4.26A93,93,0,0,1,361,77.53c-1.53.35-3,.71-4.43,1.14-.7.22-1.39.44-2,.7-.34.12-.65.27-1,.4l-.84.46a16,16,0,0,0-5.61,5.28c-3.06,4.53-4.85,10.31-6.35,16.28-.76,3-1.45,6.11-2.33,9.37s-1.89,6.43-3,9.61a112.4,112.4,0,0,1-8.65,18.49,101.27,101.27,0,0,1-5.69,8.69c-1,1.42-2.11,2.78-3.2,4.16s-2.28,2.67-3.5,3.95c-2.46,2.66-4.77,4.79-6.23,6.64a16.31,16.31,0,0,0-1.7,2.49,20.52,20.52,0,0,0-1.21,2.83c-.78,2.2-1.45,5-2.37,8.38a83.67,83.67,0,0,1-3.67,10.26,104.7,104.7,0,0,1-10.5,18.47c-2,2.85-4.06,5.57-6.18,8.22s-4.33,5.2-6.48,7.52L269.54,228l-3.24,3.57-1.62,1.79-.82.9-.35.43a13.4,13.4,0,0,0-2.06,4.43c-.71,2.27-1.54,5.86-2.91,9.62-1.27,3.54-2.72,6.78-4.08,9.76l-2,4.31-2,4.53c-3.44,7.26-7.69,12.92-11,17.93s-5.79,9.23-7.31,13.84A44.71,44.71,0,0,0,230,313.76c0,2.72.19,5.6.42,8.61,0,.74.12,1.51.2,2.28l.23,2.42c.16,1.72.29,3.46.39,5.23a106.69,106.69,0,0,1-.75,22.14l-.36,2.44-.27,2c-.12,1.33-.24,2.64-.28,3.87a29.15,29.15,0,0,0,.37,6.52,15,15,0,0,0,.62,2.37,7.66,7.66,0,0,0,.83,1.58,3.6,3.6,0,0,0,.42.55l.62,1,.75,1.19c1,1.59,2,3.28,2.91,5A78.29,78.29,0,0,1,241,392.16c.67,1.92,1.27,3.84,1.79,5.73.25.94.51,1.89.73,2.81l.62,2.55c.4,1.6.75,3.15,1.16,4.67a32.29,32.29,0,0,1,1.08,4.5,17.19,17.19,0,0,1,0,4.53c-.21,1.55-.56,3.07-.76,4.59a12.45,12.45,0,0,0,.12,4.28c.26,1.35.49,2.7.85,4s.72,2.49,1.14,3.71a31.14,31.14,0,0,0,1.47,3.37,34,34,0,0,0,3.59,5.77l1,1.28,1.06,1.17a11.71,11.71,0,0,0,1.1,1.13c.2.19.38.38.56.57l.63.57c1.66,1.53,3.56,3.24,5.78,5s4.77,3.52,7.46,5.45,5.55,4,8.42,6.43a62.47,62.47,0,0,1,8.38,8.37,52.95,52.95,0,0,1,6.55,10.24,64,64,0,0,1,4,10.65c.48,1.78.94,3.54,1.34,5.3.19.87.38,1.75.54,2.62l.24,1.31.22,1.4c.56,3.72.85,7.1,1.07,10.34s.45,6.28.88,9.18l.35,2.13c.13.68.31,1.36.46,2a26,26,0,0,0,1.18,3.74,17.76,17.76,0,0,0,3.27,5.53,11.37,11.37,0,0,1,.93.9c.33.27.68.47,1,.73a6.34,6.34,0,0,0,1.85.91,9.4,9.4,0,0,0,4.25.16,4.86,4.86,0,0,0,.64-.08,5.09,5.09,0,0,0,.66-.12c.23,0,.52.18.74.05a4.22,4.22,0,0,0,.6-.53c.75-.83,1.24-2.07,2-2.71a20.92,20.92,0,0,0,4.16-4.14,14.84,14.84,0,0,0,1.39-2.28,6.9,6.9,0,0,0,.45-1.08c0-.17.12-.34.14-.5l.05-.23.09-.31a54.75,54.75,0,0,0,2-14.84c0-2.64-.09-5.34-.3-8.07-.11-1.37-.26-2.75-.42-4.14s-.35-3.16-.48-4.74c-.55-6.36-1.14-12.72-1.49-19.09l-.26-4.77c-.08-1.58-.14-3.16-.18-5a61.66,61.66,0,0,1,.94-13.15,51.23,51.23,0,0,1,5-13.88c1-2,2.15-3.82,3.26-5.52a18.69,18.69,0,0,1,3.62-4.52,15,15,0,0,1,5.08-2.72c1-.31,2-.63,3-.92s2-.53,3-.83a25.25,25.25,0,0,0,5.23-2.12,28,28,0,0,0,3.92-3,69.85,69.85,0,0,0,6.8-6.74,75.71,75.71,0,0,0,5.6-7.5c1.71-2.59,3.32-5.21,4.85-7.83a66.19,66.19,0,0,0,4.12-8A62.3,62.3,0,0,0,384,373.69c.36-2.77.65-5.43.83-8.32s.44-5.87.82-9c.16-1.58.4-3.18.65-4.83a30.59,30.59,0,0,1,1.16-5,33,33,0,0,1,2.12-5c.45-.82.9-1.65,1.41-2.45s1-1.61,1.56-2.39c2.21-3.12,4.46-6,6.28-8.86.48-.72.88-1.46,1.3-2.19s.82-1.46,1.18-2.21l1.13-2.23,1.18-2.17c3.12-5.79,6.6-11.18,9.59-16.68a96.72,96.72,0,0,0,7.68-16.49,49.49,49.49,0,0,0,2.84-16.94c0-1.45-.06-2.92-.12-4.39s-.22-2.94-.42-4.44c-.33-3-.83-6-1.34-9.08-1.05-6.14-2.31-12.51-3.13-19.23-.17-1.7-.38-3.38-.47-5.13-.05-.88-.15-1.7-.15-2.64l0-2.78a53.29,53.29,0,0,1,1.23-11.16,61.13,61.13,0,0,1,3.32-10.63,90.87,90.87,0,0,1,4.62-9.61c.41-.76.83-1.52,1.25-2.24l1.24-2.22,2.48-4.29,4.75-8.22,1.15-2,.92-1.73c.6-1.13,1.17-2.26,1.65-3.39a44.57,44.57,0,0,0,2.36-6.57,30.23,30.23,0,0,0,1-6.45,31.31,31.31,0,0,0,0-3.35,14.59,14.59,0,0,0-.19-1.72c0-.29-.08-.59-.11-.89s-.1-.59-.15-.89c-.08-.59-.25-1.25-.41-1.92s-.39-1.39-.56-2.09c-.4-1.45-.86-3-1.33-4.58a76.45,76.45,0,0,1-2.54-10.49c-.12-1-.28-1.91-.31-2.94l-.09-1.5c0-.51,0-1,0-1.56s0-1,.06-1.55l.2-1.58a19.31,19.31,0,0,1,.7-3.13,10.73,10.73,0,0,1,.51-1.51l.6-1.48c.45-1,1-1.84,1.53-2.73a22,22,0,0,1,4.09-4.52A36.07,36.07,0,0,1,455.25,99c3.07-1.31,6.05-2.37,8.81-3.6a20.15,20.15,0,0,0,7-4.66A9.77,9.77,0,0,0,473,87.39a11.57,11.57,0,0,0,.46-1.89l.06-1c0-.32,0-.65,0-1a10.63,10.63,0,0,0-1.15-3.91,17.36,17.36,0,0,0-2.48-3.51A21.71,21.71,0,0,0,462.54,71a40.55,40.55,0,0,0-9-2.34c-3.11-.51-6.29-.82-9.46-1.29a42.92,42.92,0,0,1-9.37-2.24,38,38,0,0,1-8.23-4.92c-2.55-1.92-5-4-7.6-5.78A40.14,40.14,0,0,0,414.87,52,13.84,13.84,0,0,0,410.42,50.3Zm0-.13a27.64,27.64,0,0,1,8.8,3.81c2.74,1.7,5.33,3.59,7.94,5.34,1.31.88,2.65,1.69,4,2.44a24.5,24.5,0,0,0,4.13,1.92,42.89,42.89,0,0,0,9,1.82c3.12.36,6.31.57,9.51,1a40.06,40.06,0,0,1,9.58,2.21,24.35,24.35,0,0,1,8.33,5.5,20.34,20.34,0,0,1,3,4,14.32,14.32,0,0,1,1.63,4.86,12.8,12.8,0,0,1-2.71,9.67,24,24,0,0,1-7.85,5.92c-2.87,1.49-5.81,2.73-8.64,4.12a33.28,33.28,0,0,0-7.88,5,14.72,14.72,0,0,0-4.55,7.89,19.52,19.52,0,0,0,.54,9.22c1.69,6.09,5.08,11.58,7.3,17.59A33.58,33.58,0,0,1,454,161.5a49,49,0,0,1-8,17.29c-3.5,5.32-7.22,10.49-10.49,16a74.69,74.69,0,0,0-4.44,8.45,51.36,51.36,0,0,0-3.12,9,47.89,47.89,0,0,0-1.37,9.44,84.35,84.35,0,0,0,.22,9.54c.49,6.36,1.42,12.66,2.19,19a114.6,114.6,0,0,1,1,19.05,59.11,59.11,0,0,1-3.83,18.63c-4.47,12-11.85,22.52-17.85,33.73a92,92,0,0,0-7.5,17.54c-1.8,6.12-2.58,12.47-3.41,18.77s-1.68,12.65-3.58,18.74a87.81,87.81,0,0,1-7.52,17.52c-6.18,11.16-14.14,21.18-22,31.21-3.93,5-7.83,10-11.54,15.22s-7,10.78-8.25,17.08a50.32,50.32,0,0,0-.74,9.5l.1,9.56.23,19.1c0,3.18.11,6.37,0,9.55s-.32,6.36-.72,9.52a65.9,65.9,0,0,1-4.86,18.41,26.69,26.69,0,0,1-5.4,7.82,32.23,32.23,0,0,1-7.6,5.73,25.79,25.79,0,0,1-9,3,17.83,17.83,0,0,1-9.36-1.19,16.56,16.56,0,0,1-4.06-2.48c-.59-.54-1.21-1-1.77-1.6l-1.56-1.81a28.87,28.87,0,0,1-4.24-8.51c-2-6.08-2.55-12.47-3.3-18.78-.37-3.16-.76-6.33-1.41-9.45a71.59,71.59,0,0,0-2.57-9.19,46.35,46.35,0,0,0-9.57-16.37c-4.35-4.69-9.79-8.14-15.21-11.45s-11-6.47-15.85-10.63a46.35,46.35,0,0,1-11.5-15.09c-.74-1.4-1.32-2.89-2-4.35s-1.16-3-1.63-4.49c-1-3-1.82-6.1-2.58-9.19-1.47-6.2-2.55-12.48-3.68-18.75a67.08,67.08,0,0,0-5.57-18.2q-1-2.16-2.18-4.25a44.7,44.7,0,0,1-2.23-4.22,28.37,28.37,0,0,1-2.2-9.25c-.51-6.38.57-12.74,1.86-18.95a89.81,89.81,0,0,0,1.39-19c-.06-3.18-.3-6.36-.47-9.54s-.28-6.36-.22-9.55a54.79,54.79,0,0,1,7.11-27.44c1.56-2.79,3.33-5.44,5.14-8.06,3.62-5.22,7.48-10.34,10.26-16.08,2.57-5.82,5.56-11.47,7.78-17.44,1.12-3,1.86-6.08,2.83-9.12a24.17,24.17,0,0,1,4.4-8.42c4.29-4.71,8.68-9.32,13-14,8.65-9.3,16.7-19.39,22.17-30.92a77.9,77.9,0,0,0,3.49-8.88c1-3,1.83-6.1,3.06-9.05a25.46,25.46,0,0,1,5.15-8c2.18-2.33,4.65-4.36,6.9-6.6a98.78,98.78,0,0,0,21.26-31.44q1.91-4.38,3.47-8.89c1-3,1.95-6.06,2.95-9.08a90.59,90.59,0,0,1,3.39-8.93A39.06,39.06,0,0,1,343.93,83a19.63,19.63,0,0,1,7.4-5.91,37,37,0,0,1,9.25-2.34,74.43,74.43,0,0,0,9.36-1.84,41.13,41.13,0,0,0,8.79-3.63,43.19,43.19,0,0,0,7.76-5.52c2.41-2.09,4.41-4.59,6.79-6.72a30.81,30.81,0,0,1,7.86-5.38A16.08,16.08,0,0,1,410.45,50.17Z"/><path d="M124.59,308a8.35,8.35,0,0,0,5.23,5.89,13.23,13.23,0,0,0,7.8.35,37.68,37.68,0,0,0,3.83-1.08,5.08,5.08,0,0,0,.8-.32,6.88,6.88,0,0,0,.66-.35c.21-.13.41-.29.61-.43s.38-.31.54-.49a6.17,6.17,0,0,0,1.47-2.29,4.46,4.46,0,0,0,.16-2.3,7,7,0,0,0-3.48-4.2,22.31,22.31,0,0,0-3.35-1.55,23.22,23.22,0,0,0-3.72-1.16c-2.52-.57-5.24-.66-7.48.87a7.07,7.07,0,0,0-2.6,3,6.78,6.78,0,0,0-.55,2A7.48,7.48,0,0,0,124.59,308Zm0,0a8.5,8.5,0,0,1,2.54-7.7,10,10,0,0,1,3.77-2.35,16.31,16.31,0,0,1,4.41-.89,25.89,25.89,0,0,1,4.49,0,19.4,19.4,0,0,1,4.56.94,12.14,12.14,0,0,1,4.42,2.72,9.89,9.89,0,0,1,2.78,5,9.39,9.39,0,0,1-.73,5.82,10.2,10.2,0,0,1-3.67,4.12,10.05,10.05,0,0,1-2.44,1.14,8.59,8.59,0,0,1-1.31.31,10.63,10.63,0,0,1-1.22.13,38.27,38.27,0,0,1-4.41-.06,17.9,17.9,0,0,1-8.34-2.61A10.61,10.61,0,0,1,124.59,308Z"/><path d="M147.6,322.28a8.42,8.42,0,0,0,5.24,5.89,13.15,13.15,0,0,0,7.8.34,33.14,33.14,0,0,0,3.83-1.08,5.17,5.17,0,0,0,.8-.31c.23-.09.44-.25.66-.36s.41-.28.61-.42.38-.31.54-.49a6.21,6.21,0,0,0,1.47-2.3,4.57,4.57,0,0,0,.16-2.3,7,7,0,0,0-3.48-4.2,23.35,23.35,0,0,0-3.35-1.55,25.44,25.44,0,0,0-3.72-1.16c-2.52-.56-5.24-.66-7.48.87a7,7,0,0,0-2.6,3,6.72,6.72,0,0,0-.55,2A8,8,0,0,0,147.6,322.28Zm0,0a8.52,8.52,0,0,1,2.55-7.7,10,10,0,0,1,3.77-2.35,16.32,16.32,0,0,1,4.41-.9,25.89,25.89,0,0,1,4.49.06,19.19,19.19,0,0,1,4.55.93,12,12,0,0,1,4.42,2.73,9.8,9.8,0,0,1,2.79,5,9.43,9.43,0,0,1-.73,5.83,10.17,10.17,0,0,1-3.67,4.11,9.72,9.72,0,0,1-2.44,1.15,8.56,8.56,0,0,1-1.31.3,8.78,8.78,0,0,1-1.22.13,34.24,34.24,0,0,1-4.41-.06,18,18,0,0,1-8.34-2.6A10.69,10.69,0,0,1,147.6,322.28Z"/><path d="M408.05,435.11a5.48,5.48,0,0,0-4.21,3.36,8.79,8.79,0,0,0-.31,5.29,25.49,25.49,0,0,0,.69,2.63c0,.1.07.23.1.31l.1.21c.06.13.16.26.22.38a3.46,3.46,0,0,0,.54.65,3.62,3.62,0,0,0,1.21.8,2.18,2.18,0,0,0,1,.1,4.09,4.09,0,0,0,2.45-1.63,15.7,15.7,0,0,0,1.34-2,17.26,17.26,0,0,0,1.17-2.36,6.23,6.23,0,0,0,.24-5.07,4.69,4.69,0,0,0-1.8-2,4.32,4.32,0,0,0-1.3-.52A5.22,5.22,0,0,0,408.05,435.11Zm0,0a6,6,0,0,1,5.21,2.18,7.47,7.47,0,0,1,1.52,2.77,12.38,12.38,0,0,1,.53,3.18,18,18,0,0,1-.13,3.2,12.49,12.49,0,0,1-.8,3.26,8.69,8.69,0,0,1-2.23,3.2,7.44,7.44,0,0,1-4,1.89,7.14,7.14,0,0,1-4.54-1,7.71,7.71,0,0,1-2.82-3.17,7.51,7.51,0,0,1-.62-1.95,5.76,5.76,0,0,1-.1-1v-.5c0-.15,0-.26,0-.4a23.51,23.51,0,0,1,.5-3.08,13.49,13.49,0,0,1,2.6-5.63A7.73,7.73,0,0,1,408.05,435.11Z"/><path d="M410.9,507a7.09,7.09,0,0,0-1.73,6.66,12.35,12.35,0,0,0,3.47,5.92A32.06,32.06,0,0,0,415.2,522a3.74,3.74,0,0,0,.62.49,3.87,3.87,0,0,0,.55.34,6.41,6.41,0,0,0,1.15.49,5.06,5.06,0,0,0,2.19.14,2.76,2.76,0,0,0,1.42-.7,5.69,5.69,0,0,0,1.28-4.22,22.07,22.07,0,0,0-.35-3.21,23.65,23.65,0,0,0-.77-3.33c-.68-2.17-1.69-4.32-3.75-5.48a6,6,0,0,0-3.37-.84A5.26,5.26,0,0,0,410.9,507Zm0,0a7,7,0,0,1,7-1.29,9.64,9.64,0,0,1,3.41,1.92,16.9,16.9,0,0,1,2.69,2.92,24.72,24.72,0,0,1,2.08,3.36,18,18,0,0,1,1.5,3.81,11,11,0,0,1,.18,4.64,8.66,8.66,0,0,1-2.46,4.7,8,8,0,0,1-5.13,2.12,9.06,9.06,0,0,1-4.87-1.27,9.54,9.54,0,0,1-1.9-1.49,7.4,7.4,0,0,1-.78-.9,9,9,0,0,1-.59-.87,33.83,33.83,0,0,1-1.85-3.41,17.89,17.89,0,0,1-1.8-7.5A9.3,9.3,0,0,1,410.9,507Z"/></svg>