<svg id="Layer_1" data-name="Layer 1" xmlns="http://www.w3.org/2000/svg" viewBox="0 0 600 600"><title>tonga</title><path d="M102.86,119.53a8.8,8.8,0,0,1,0,4,11.86,11.86,0,0,1-1.61,3.7,43.14,43.14,0,0,1-5.17,6.16,43.56,43.56,0,0,0-5,6.1A13.11,13.11,0,0,0,89,146.69,17.61,17.61,0,0,0,90.7,154a21.24,21.24,0,0,0,4.37,6.11c3.62,3.57,8.1,6.24,12.64,9a86.08,86.08,0,0,0,13.75,7,34.88,34.88,0,0,0,14,2.55,25.35,25.35,0,0,0,6.52-1.16,18.44,18.44,0,0,0,5.39-2.83,44.61,44.61,0,0,0,5-4.75,77.21,77.21,0,0,1,6.21-6.09,25.3,25.3,0,0,1,9.81-5.31,22.13,22.13,0,0,1,6.19-.74,27.85,27.85,0,0,1,5.73.74,51.61,51.61,0,0,1,9.2,3.25l7.42,3.31c4.87,2.19,9.78,4.32,14.62,6.57s9.69,4.51,14.37,6.54,9.27,3.94,13.78,5.43a93.89,93.89,0,0,0,13.17,3.25c.53.08,1.06.18,1.59.29s1,.16,1.57.25c1,.23,2.1.3,3.15.51s2.13.29,3.22.39,2.19.24,3.32.28a53.26,53.26,0,0,0,14-.88c1.2-.18,2.39-.55,3.58-.81s2.38-.65,3.57-1.07q3.57-1.17,7.13-2.7c2.38-1,4.74-2.14,7.13-3.34s4.79-2.44,7.23-3.69a121.22,121.22,0,0,1,15.58-6.87,79.23,79.23,0,0,1,17.8-3.8,73.67,73.67,0,0,1,19.11.67c3.09.55,6.09,1.17,9,2s5.7,1.7,8.42,2.65c1.37.47,2.71,1,4,1.46l4.12,1.56c2.76,1.06,5.49,2.25,8.21,3.49a124.45,124.45,0,0,1,16.09,8.65,69.78,69.78,0,0,1,7.69,5.77,48.49,48.49,0,0,1,6.84,7.41,40.12,40.12,0,0,1,5.14,9.17c.34.82.64,1.65.91,2.5s.51,1.69.73,2.55a31.39,31.39,0,0,1,.94,5.66,26.35,26.35,0,0,1-.34,6.48,20.86,20.86,0,0,1-2.61,7,22.89,22.89,0,0,1-4.49,5.28c-.75.66-1.48,1.24-2.17,1.75s-1.32.93-2,1.39a83.21,83.21,0,0,1-16.09,8.38c-5.25,2.22-10.32,4-14.89,5.95q-3.47,1.47-6.49,3.07c-.49.27-1,.53-1.48.81l-1.34.81c-.87.6-1.76,1.16-2.58,1.83a41.47,41.47,0,0,0-4.77,4.23,44.31,44.31,0,0,0-4.16,4.9,44.77,44.77,0,0,0-3.49,5.43c-.55.93-1,1.91-1.49,2.87s-.86,2-1.21,3a29.93,29.93,0,0,0-1,3.05l-.4,1.59c-.12.53-.2,1.08-.3,1.61a40.83,40.83,0,0,0-.64,6.55c0,2.21.07,4.43.28,6.64s.59,4.43,1,6.62.9,4.37,1.43,6.54c.11.55.25,1.09.39,1.63l.2.81.09.39.09.28c.22.76.55,1.73.86,3a48.56,48.56,0,0,1,1.62,11,38.5,38.5,0,0,1-.75,8l-.26,1.26-.28,1.17c-.2.78-.4,1.59-.63,2.42s-.47,1.69-.75,2.55-.61,1.76-.95,2.65a45.4,45.4,0,0,1-6.08,11.1c-.69.89-1.42,1.77-2.18,2.63s-1.47,1.55-2.24,2.28a43.36,43.36,0,0,1-9.85,6.9,51.45,51.45,0,0,1-10,3.81c-6.49,1.78-12.5,2.34-18,3.17-1.4.16-2.7.4-4.16.65s-3,.54-4.61.79-3.35.48-5.18.61c-.91.06-1.86.09-2.83.07s-2,0-3-.13a29.5,29.5,0,0,1-5.87-1.21,33.75,33.75,0,0,1-5-2c-1.51-.74-2.89-1.55-4.2-2.3s-2.62-1.58-3.88-2.42a111.71,111.71,0,0,1-14-11.15c-8.64-7.95-16.18-16.51-23.31-24.58s-13.83-15.71-20.26-21.79a75.13,75.13,0,0,0-9.54-7.79,67.68,67.68,0,0,0-9.58-5.49,41.32,41.32,0,0,0-5.49-2.24,59.57,59.57,0,0,0-6.32-1.93,111.14,111.14,0,0,0-14.64-2.68c-2.61-.28-5.29-.57-8-.82l-8.34-.69c-2.84-.23-5.72-.48-8.65-.88s-5.91-.9-8.91-1.56a68.8,68.8,0,0,1-17.74-6.44,69.82,69.82,0,0,1-7.89-5,83.92,83.92,0,0,1-7-5.63,139.2,139.2,0,0,1-12-12.14c-1.82-2.06-3.54-4.12-5.28-6.17s-3.5-4.17-5.22-6.36a137,137,0,0,1-9.9-14,72.84,72.84,0,0,1-7.55-16.4,56.23,56.23,0,0,1-2-9.13,87,87,0,0,1-.56-8.74c-.06-2.7-.11-5.21-.27-7.53a28.23,28.23,0,0,0-1.08-6.22,18.1,18.1,0,0,0-1.11-2.74c-.47-.95-1-2-1.7-3-1.3-2.15-2.92-4.55-4.35-7.44-.35-.7-.73-1.52-1-2.34a24.4,24.4,0,0,1-.83-2.5,23.43,23.43,0,0,1-.81-5.37,18.1,18.1,0,0,1,.77-5.86,14.21,14.21,0,0,1,3.23-5.6,20.12,20.12,0,0,1,4.27-3.32l3.38-1.95a10.45,10.45,0,0,0,1.69-1.21c.08-.08.1-.06.14-.06s.07-.17.1-.16.1.09.14.09,0-.1-.15-.24a5.23,5.23,0,0,0-2-.86,16.57,16.57,0,0,0-6.29-.1l-3.76.66-.94-3.22h0a11.39,11.39,0,0,1-.27-5.33,13.36,13.36,0,0,1,1.8-4.53,15.53,15.53,0,0,1,6.73-5.83A14,14,0,0,1,66,126.44a27.49,27.49,0,0,1,3.9-.11,16.35,16.35,0,0,0,6.22-.57,14.73,14.73,0,0,0,2.82-1.47,34.07,34.07,0,0,1,3.22-1.88,17,17,0,0,1,1.8-.73l1.72-.6c1.14-.38,2.29-.73,3.45-1.06a60,60,0,0,1,7-1.63,19.77,19.77,0,0,1,3.61-.31,6.23,6.23,0,0,1,1.81.25,1.6,1.6,0,0,1,1.24,1.22Zm-.09,0a1.55,1.55,0,0,0-1.27-1.1,6.58,6.58,0,0,0-1.77-.13,21,21,0,0,0-3.51.55A59.8,59.8,0,0,0,89.43,121a59.73,59.73,0,0,0-6.56,2.74c-2.07,1.16-3.78,2.88-6,3.87-4.37,2.1-9.54.34-13.85,2.67a12.28,12.28,0,0,0-5,4.87,8.38,8.38,0,0,0-.81,6.85h0a20.77,20.77,0,0,1,7.93-.35,10.17,10.17,0,0,1,3.75,1.31,4.73,4.73,0,0,1,2.27,3.15,5.16,5.16,0,0,1-.79,3.82,10.41,10.41,0,0,1-2.89,2.72c-2.18,1.51-4.63,2.71-6.43,4.7a10.19,10.19,0,0,0-2.27,7.45,18.34,18.34,0,0,0,2.28,7.6c2.52,4.69,6.27,8.68,8.14,13.73s2.11,10.44,2.43,15.74c.16,2.66.35,5.32.76,7.95a47,47,0,0,0,1.94,7.75,63.65,63.65,0,0,0,7.14,14.26,126.75,126.75,0,0,0,9.68,12.71c3.46,4.06,7,8,10.62,12a146.92,146.92,0,0,0,11.3,11.3,67,67,0,0,0,13,9.19,53.55,53.55,0,0,0,15,5.21c10.5,2,21.25,1.65,31.88,1.62,5.33,0,10.67,0,16,.5a69.58,69.58,0,0,1,15.67,3,53.85,53.85,0,0,1,14.24,7.13,73.31,73.31,0,0,1,12,10.57c7.25,7.84,13.2,16.74,19.19,25.55s12,17.66,19.3,25.46a77.52,77.52,0,0,0,12,10.53,55.94,55.94,0,0,0,6.85,4.11,20.46,20.46,0,0,0,7.63,2.22,24.56,24.56,0,0,0,7.9-.93c2.58-.69,5.09-1.6,7.61-2.47a115.72,115.72,0,0,0,14.77-6.07,42.28,42.28,0,0,0,12.67-9.6c3.57-4,5.67-9.07,7-14.21a30.39,30.39,0,0,0,1.34-7.85,50.45,50.45,0,0,0-.84-8,73,73,0,0,1-.86-7.94c-.17-2.66-.23-5.33-.17-8a76.77,76.77,0,0,1,6.73-31,59.77,59.77,0,0,1,20.33-24.19,69.46,69.46,0,0,1,14.29-7.09c5-1.92,10-3.58,15-5.53a70.77,70.77,0,0,0,14.25-7.18,18.52,18.52,0,0,0,5.8-5.41,12.9,12.9,0,0,0,1.54-7.71,26.45,26.45,0,0,0-2-7.71,30.27,30.27,0,0,0-4-6.91,43,43,0,0,0-11.95-10.48,75.24,75.24,0,0,0-14.47-6.73,124,124,0,0,0-15.41-4.21,118.53,118.53,0,0,0-15.79-2.42,81,81,0,0,0-15.95.38c-10.59,1.32-20.85,4.45-31,7.79s-20.18,7-30.59,9.28S260.9,202,250.4,199.9s-20.38-6.37-29.84-11.22c-4.75-2.43-9.43-5-14.13-7.5l-14.09-7.56-7.05-3.77a40.17,40.17,0,0,0-7.34-3.12,15.69,15.69,0,0,0-7.87-.43,18.76,18.76,0,0,0-7.13,3.45c-4.28,3.17-7.8,7.29-12.36,10.13a24.26,24.26,0,0,1-7.39,3,30.74,30.74,0,0,1-7.95.69,38.36,38.36,0,0,1-7.89-1.24,46.92,46.92,0,0,1-7.5-2.78,90.43,90.43,0,0,1-13.7-8.2c-4.35-3.07-8.78-6.13-12.32-10.15a23.94,23.94,0,0,1-4.3-6.71,18.74,18.74,0,0,1-1.48-7.82,14,14,0,0,1,2.51-7.5,43.75,43.75,0,0,1,5.23-6.06,42,42,0,0,0,5.22-6,11.45,11.45,0,0,0,1.64-3.59,8.51,8.51,0,0,0,0-3.92Z"/><path d="M535.28,498.38c-2.21-9.75-2.93-19.86-4.72-29.64-.43-2.44-.88-4.87-1.4-7.26s-1.11-4.88-1.61-7.41-.94-5.14-1.2-7.84c-.06-.69-.12-1.32-.15-2.09s0-1.49,0-2.23c0-1.47.17-2.9.32-4.24.32-2.7.69-5.07.79-7.22a52.3,52.3,0,0,0-.08-6.74,98.6,98.6,0,0,0-2.09-13.61c-2-9.14-4.75-18.55-6.56-29a76.44,76.44,0,0,1-.89-8c-.08-1.36-.14-2.74-.18-4.12s0-2.78.09-4.18c0-.67.09-1.49.14-2.26s.14-1.48.23-2.21c.18-1.42.4-2.75.61-4,.44-2.52.82-4.82,1.09-6.92a25.62,25.62,0,0,0,.06-5.51,6.52,6.52,0,0,0-1.31-3.34,4.16,4.16,0,0,1-.51-.52c-.22-.19-.51-.37-.74-.55s-.23-.2-.35-.28l-.38-.17a2.62,2.62,0,0,0-.73-.32,5.75,5.75,0,0,0-3.11,0c-.3.11-.54.11-.87.25l-.92.36a13.3,13.3,0,0,0-2,1.09c-.64.38-1.33.95-2,1.42a20,20,0,0,0-1.93,1.78,29.6,29.6,0,0,0-3.43,4.13,33.53,33.53,0,0,0-2.56,4.37c-1.46,3-2.82,6.16-4.29,9.67s-3,7.29-5,11.33l-.35.72a5.52,5.52,0,0,1-.28.54c-.19.36-.4.69-.58,1.09s-.38.77-.59,1.16l-.61,1.22c-.82,1.68-1.69,3.48-2.48,5.46s-1.61,4.07-2.55,6.25l-1.46,3.35-1.6,3.46-3.47,7.25-.91,1.87-1,2.16c-.68,1.41-1.38,2.76-2,4-1.3,2.55-2.58,4.86-3.6,7s-1.94,4.23-2.71,6.17a33.32,33.32,0,0,0-1.74,5.91,48.93,48.93,0,0,0-.94,6.5,49.84,49.84,0,0,0,.64,13.18,54.85,54.85,0,0,0,4,12.61,60.49,60.49,0,0,0,7.13,11.35c.68.9,1.43,1.76,2.2,2.6a26.33,26.33,0,0,0,2.43,2.41,39.68,39.68,0,0,0,5.56,4.1C488.77,486,493,488,497,490.34c2,1.17,4,2.38,6,3.74s4.33,2.82,6.53,4.4A61.13,61.13,0,0,1,522,509.83c1.72,2.14,3.11,4.07,4.53,5.81a35.07,35.07,0,0,0,4.16,4.41,12.44,12.44,0,0,0,4.56,2.56,11.09,11.09,0,0,0,2.32.47c.66.06,1,0,1.12.12.15.49,1.1-.78.68-2.57a23.61,23.61,0,0,0-.94-3.23c-.42-1.23-.83-2.5-1.18-3.76a56.36,56.36,0,0,1-1.91-15.28Zm.09,0a65.56,65.56,0,0,0,4.13,14.34c.48,1.14,1,2.27,1.58,3.38a30.59,30.59,0,0,1,1.55,3.4,8.08,8.08,0,0,1,.52,3.67,4.84,4.84,0,0,1-1.54,3.29,6.33,6.33,0,0,1-3.4,1.39,13.71,13.71,0,0,1-3.73-.1,18,18,0,0,1-6.93-2.65c-4.24-2.69-7.41-6.64-10.81-10.26a57.44,57.44,0,0,0-11.68-9.26c-4.23-2.65-8.68-4.91-12.88-7.6a94,94,0,0,1-22.67-19.29A64.33,64.33,0,0,1,456.2,452.2a67.18,67.18,0,0,1-1.79-14.81,68.91,68.91,0,0,1,.32-7.47,49.37,49.37,0,0,1,1.23-7.36c1.19-4.85,3-9.51,4.41-14.29a64.47,64.47,0,0,0,1.75-7.26c.47-2.45.9-4.9,1.33-7.36,1.7-9.79,3.35-19.74,7.46-28.86a118.2,118.2,0,0,1,6.8-13.31,60.09,60.09,0,0,1,9.17-11.76,45.69,45.69,0,0,1,12.23-8.47,33.31,33.31,0,0,1,7-2.49,30.39,30.39,0,0,1,3.68-.62l1.87-.07a18.61,18.61,0,0,1,8.93,2.32,12.65,12.65,0,0,1,1.54,1.05l.76.55c.23.21.44.44.67.65.44.45.9.87,1.32,1.33l1.14,1.48a17.47,17.47,0,0,1,2.64,6.94,35.06,35.06,0,0,1,.34,7.45c-.21,5-1.07,9.92-1,14.91a114.25,114.25,0,0,0,1.22,14.89c1.4,9.86,3.58,19.61,4.63,29.53a93.23,93.23,0,0,1,.5,14.94,63.79,63.79,0,0,1-.83,7.42c-.42,2.46-1.08,4.87-1.6,7.31-1.19,4.86-.88,9.92-.44,14.86.23,2.48.53,4.95.81,7.43s.48,5,.65,7.45c.66,9.94.76,19.95,2.5,29.77Z"/><path d="M483.86,539.72a6.08,6.08,0,0,0-4.82.79,5.37,5.37,0,0,0-1.67,1.72,4.92,4.92,0,0,0-.68,2.16,3.62,3.62,0,0,0,.38,2,3,3,0,0,0,1.28,1.25,9.91,9.91,0,0,0,4.18.83,24.55,24.55,0,0,0,4.65-.09,5.16,5.16,0,0,0,1.94-.63,2,2,0,0,0,1.05-1.33,3.34,3.34,0,0,0-.57-2,9.75,9.75,0,0,0-1.54-1.93A11.34,11.34,0,0,0,483.86,539.72Zm0,0a18,18,0,0,1,4.47,2.42,12.27,12.27,0,0,1,2,1.7,4.7,4.7,0,0,1,1.36,2.56,3.64,3.64,0,0,1-1.24,3,6.91,6.91,0,0,1-2.61,1.51,15.4,15.4,0,0,1-5.44.56,9.51,9.51,0,0,1-5.51-1.7,5.08,5.08,0,0,1-1.78-2.67,5.27,5.27,0,0,1,.13-3,6.55,6.55,0,0,1,3.61-3.93A7.58,7.58,0,0,1,483.86,539.72Z"/><path d="M177.8,92.07a12,12,0,0,0-.29-8.45,8.11,8.11,0,0,0-2.65-3.17,6.85,6.85,0,0,0-3.75-1.24,3.52,3.52,0,0,0-3,1.46,3.74,3.74,0,0,0-.48,3.14,3.52,3.52,0,0,0,.8,1.35c.4.46.94.92,1.48,1.5A6.37,6.37,0,0,1,171.39,89a4.39,4.39,0,0,1-.24,3.19,8,8,0,0,1-3.85,3.48,9.72,9.72,0,0,0-3.14,2,3.17,3.17,0,0,0-.62,1.34,3.21,3.21,0,0,0,.2,1.57,3.45,3.45,0,0,0,2.46,2.21,3.56,3.56,0,0,0,1.83-.14,10.14,10.14,0,0,0,1.93-.75,14.3,14.3,0,0,0,3.41-2.51A17.75,17.75,0,0,0,177.8,92.07Zm0,0a21.9,21.9,0,0,1-4.12,7.62,16.11,16.11,0,0,1-3.26,3,11.67,11.67,0,0,1-2,1.11,5.1,5.1,0,0,1-2.42.5,5.27,5.27,0,0,1-4.18-2.81,5.41,5.41,0,0,1-.64-2.65,5.12,5.12,0,0,1,.88-2.68,11,11,0,0,1,3.86-3,9.27,9.27,0,0,0,1.55-1,3.7,3.7,0,0,0,1-1.17,1.39,1.39,0,0,0,.11-1.05,3.68,3.68,0,0,0-.8-1.29c-.43-.5-.94-1-1.45-1.71a6.06,6.06,0,0,1-1.17-2.48,5.93,5.93,0,0,1,1.36-5.05,5.09,5.09,0,0,1,2.23-1.44,5.53,5.53,0,0,1,2.51-.19,8.71,8.71,0,0,1,6.67,5.74A13.84,13.84,0,0,1,177.8,92.07Z"/><path d="M265.81,54.13a5.5,5.5,0,0,0,2.1,4.55,9.36,9.36,0,0,0,4.6,2,8.23,8.23,0,0,0,4.55-.55l.47-.22a3.69,3.69,0,0,1,.4-.29c.3-.15.45-.45.69-.65a2.41,2.41,0,0,0,.49-.76,2.21,2.21,0,0,0,.24-.78,4.11,4.11,0,0,0-1.48-3.35,15.45,15.45,0,0,0-4-2.73,8.15,8.15,0,0,0-4.88-.88,4,4,0,0,0-2.15,1.31A4.52,4.52,0,0,0,265.81,54.13Zm0,0a4.83,4.83,0,0,1,3-4.08,7,7,0,0,1,2.71-.45,13.45,13.45,0,0,1,2.75.29A14.25,14.25,0,0,1,279.52,52a7.18,7.18,0,0,1,2.14,2.36,5.62,5.62,0,0,1,.66,3.41,5.93,5.93,0,0,1-4.4,4.72,9.18,9.18,0,0,1-5.8-.44A11.65,11.65,0,0,1,267.63,59,6.64,6.64,0,0,1,265.81,54.13Z"/><path d="M268.09,131.49a6.29,6.29,0,0,0,1.1,4,5.62,5.62,0,0,0,3.3,2.16,3.41,3.41,0,0,0,4.56-3.12,4.43,4.43,0,0,0-.71-3,9.2,9.2,0,0,0-2.64-2.76c-1.1-.74-2.42-1.44-3.67-.84A4.22,4.22,0,0,0,268.09,131.49Zm0,0a5.29,5.29,0,0,1,1.72-3.9,3.4,3.4,0,0,1,2.26-.62,8.8,8.8,0,0,1,2.28.46,9.36,9.36,0,0,1,4,2.54,6.53,6.53,0,0,1,1.35,2.25,5.33,5.33,0,0,1,.29,1.36c0,.23,0,.46,0,.7L280,135a6.47,6.47,0,0,1-.92,2.56,5.27,5.27,0,0,1-2.08,1.89,4.7,4.7,0,0,1-2.74.45,6.68,6.68,0,0,1-2.34-.79,7.46,7.46,0,0,1-3.1-3.35A8.66,8.66,0,0,1,268.09,131.49Z"/><path d="M194.15,138.42a4.31,4.31,0,0,0,1.22,3.13,4.26,4.26,0,0,0,2.86,1.32,5.85,5.85,0,0,0,2.8-.71,2.61,2.61,0,0,0,.83-.69,1.31,1.31,0,0,0,.24-.7,3.51,3.51,0,0,0-.75-2.12,8.77,8.77,0,0,0-2.27-2.07,4,4,0,0,0-3-.75A2.88,2.88,0,0,0,194.15,138.42Zm0,0a3.43,3.43,0,0,1,3.57-3.42,7.69,7.69,0,0,1,1.91.18,8.37,8.37,0,0,1,3.57,1.66,5.11,5.11,0,0,1,1.89,4.13,3.81,3.81,0,0,1-1.09,2.44,4.64,4.64,0,0,1-2.08,1.18,6.68,6.68,0,0,1-4.06-.28,6,6,0,0,1-2.81-2.51A6.12,6.12,0,0,1,194.15,138.42Z"/><path d="M314.86,129.11a4,4,0,0,0,2,3.46,7,7,0,0,0,1.86.81,8.36,8.36,0,0,0,2,.21,12,12,0,0,0,3.79-.75,5.22,5.22,0,0,0,1.44-.74,1,1,0,0,0,.45-.67,1.6,1.6,0,0,0-.32-1,5.19,5.19,0,0,0-1.09-1.19,15.09,15.09,0,0,0-3.36-2,8.09,8.09,0,0,0-3.95-.78,3.39,3.39,0,0,0-1.86.83A2.9,2.9,0,0,0,314.86,129.11Zm0,0a3.78,3.78,0,0,1,2.71-3.06,7.45,7.45,0,0,1,2.19-.37,12.88,12.88,0,0,1,2.24.1,12.51,12.51,0,0,1,4.4,1.31,6.29,6.29,0,0,1,2,1.66,4.17,4.17,0,0,1,1,3,3.54,3.54,0,0,1-.63,1.68,3.69,3.69,0,0,1-.56.62,6.38,6.38,0,0,1-.6.46,6.46,6.46,0,0,1-2.46.87,11.39,11.39,0,0,1-4.62-.28,9.1,9.1,0,0,1-3.9-2.18A5,5,0,0,1,314.86,129.11Z"/><path d="M330.45,139.44a4.25,4.25,0,0,0,1.22,3.13,4.35,4.35,0,0,0,2.85,1.32,5.85,5.85,0,0,0,2.8-.71,2.4,2.4,0,0,0,.83-.69,1.26,1.26,0,0,0,.24-.7,3.51,3.51,0,0,0-.75-2.12,8.72,8.72,0,0,0-2.26-2.07,4.05,4.05,0,0,0-3.05-.75A2.85,2.85,0,0,0,330.45,139.44Zm0,0a3.69,3.69,0,0,1,1.72-3A4,4,0,0,1,334,136a8.12,8.12,0,0,1,1.9.19,8.39,8.39,0,0,1,3.58,1.65,5.11,5.11,0,0,1,1.88,4.14,3.84,3.84,0,0,1-1.09,2.44,4.42,4.42,0,0,1-2.08,1.17,6.69,6.69,0,0,1-4.06-.27,6.33,6.33,0,0,1-3.7-5.89Z"/><path d="M280.88,171.52A4.35,4.35,0,0,0,285,176a5.85,5.85,0,0,0,2.81-.7,2.61,2.61,0,0,0,.83-.69,1.37,1.37,0,0,0,.24-.7,3.51,3.51,0,0,0-.75-2.12,8.44,8.44,0,0,0-2.27-2.07,4,4,0,0,0-3-.76A2.89,2.89,0,0,0,280.88,171.52Zm0,0a3.67,3.67,0,0,1,1.73-3,3.82,3.82,0,0,1,1.84-.45,8.19,8.19,0,0,1,1.91.18,8.37,8.37,0,0,1,3.57,1.66,5.11,5.11,0,0,1,1.89,4.13,3.89,3.89,0,0,1-1.09,2.45,4.61,4.61,0,0,1-2.08,1.17,6.68,6.68,0,0,1-4.06-.27,6.32,6.32,0,0,1-3.71-5.89Z"/><path d="M265.81,167.35a4.33,4.33,0,0,0,4.07,4.44,5.74,5.74,0,0,0,2.8-.71,2.6,2.6,0,0,0,.83-.68,1.37,1.37,0,0,0,.24-.71,3.5,3.5,0,0,0-.75-2.11,8.44,8.44,0,0,0-2.27-2.07,4,4,0,0,0-3-.76A2.86,2.86,0,0,0,265.81,167.35Zm0,0a3.65,3.65,0,0,1,1.72-3,3.71,3.71,0,0,1,1.84-.45,8.19,8.19,0,0,1,1.91.18,8.37,8.37,0,0,1,3.57,1.66,5.08,5.08,0,0,1,1.89,4.13,3.86,3.86,0,0,1-1.09,2.45,4.71,4.71,0,0,1-2.08,1.17,6.68,6.68,0,0,1-4.06-.27,6.33,6.33,0,0,1-3.7-5.89Z"/><path d="M265.2,154.22a2.6,2.6,0,0,0,2.49,2.67,3.59,3.59,0,0,0,1.67-.46,1.47,1.47,0,0,0,.46-.41.69.69,0,0,0,.13-.37,2.08,2.08,0,0,0-.43-1.23,5.14,5.14,0,0,0-1.34-1.28,2.43,2.43,0,0,0-1.83-.48A1.72,1.72,0,0,0,265.2,154.22Zm0,0a2.27,2.27,0,0,1,1-1.82,2.38,2.38,0,0,1,1.13-.29,5.18,5.18,0,0,1,1.18.1,5,5,0,0,1,2.21,1,3.13,3.13,0,0,1,1.18,2.57,2.45,2.45,0,0,1-.69,1.54,2.78,2.78,0,0,1-1.3.72,4.12,4.12,0,0,1-2.51-.19,3.91,3.91,0,0,1-2.24-3.63Z"/><path d="M194.15,138.42a4.31,4.31,0,0,0,1.22,3.13,4.26,4.26,0,0,0,2.86,1.32,5.85,5.85,0,0,0,2.8-.71,2.61,2.61,0,0,0,.83-.69,1.31,1.31,0,0,0,.24-.7,3.51,3.51,0,0,0-.75-2.12,8.77,8.77,0,0,0-2.27-2.07,4,4,0,0,0-3-.75A2.88,2.88,0,0,0,194.15,138.42Zm0,0a3.43,3.43,0,0,1,3.57-3.42,7.69,7.69,0,0,1,1.91.18,8.37,8.37,0,0,1,3.57,1.66,5.11,5.11,0,0,1,1.89,4.13,3.81,3.81,0,0,1-1.09,2.44,4.64,4.64,0,0,1-2.08,1.18,6.68,6.68,0,0,1-4.06-.28,6,6,0,0,1-2.81-2.51A6.12,6.12,0,0,1,194.15,138.42Z"/><path d="M406.63,145.85a4.32,4.32,0,0,0,4.07,4.44,5.84,5.84,0,0,0,2.8-.7,2.61,2.61,0,0,0,.83-.69,1.34,1.34,0,0,0,.24-.7,3.51,3.51,0,0,0-.75-2.12,8.77,8.77,0,0,0-2.27-2.07,4.09,4.09,0,0,0-3-.76A2.87,2.87,0,0,0,406.63,145.85Zm0,0a3.65,3.65,0,0,1,1.72-3,3.82,3.82,0,0,1,1.84-.45,8.19,8.19,0,0,1,1.91.18,8.37,8.37,0,0,1,3.57,1.66,5.08,5.08,0,0,1,1.89,4.13,3.84,3.84,0,0,1-1.09,2.45,4.52,4.52,0,0,1-2.08,1.17,6.68,6.68,0,0,1-4.06-.27,6.33,6.33,0,0,1-3.7-5.89Z"/><path d="M377.57,137.68a4.32,4.32,0,0,0,4.07,4.44,5.84,5.84,0,0,0,2.8-.7,2.61,2.61,0,0,0,.83-.69,1.37,1.37,0,0,0,.24-.7,3.51,3.51,0,0,0-.75-2.12,8.54,8.54,0,0,0-2.26-2.07,4.11,4.11,0,0,0-3.05-.76A2.87,2.87,0,0,0,377.57,137.68Zm0,0a3.65,3.65,0,0,1,1.72-3,3.83,3.83,0,0,1,1.85-.45,8.16,8.16,0,0,1,1.9.18,8.41,8.41,0,0,1,3.58,1.66,5.1,5.1,0,0,1,1.88,4.13,3.84,3.84,0,0,1-1.09,2.45,4.52,4.52,0,0,1-2.08,1.17,6.69,6.69,0,0,1-4.06-.27,6.33,6.33,0,0,1-3.7-5.89Z"/><path d="M436,84.88A6,6,0,0,0,438,89.53a7.47,7.47,0,0,0,4.56,1.91,11,11,0,0,0,4.71-.82,5.32,5.32,0,0,0,1.74-1.07,2.06,2.06,0,0,0,.64-1.34,4.89,4.89,0,0,0-1.64-3.45A15,15,0,0,0,444,82a7.92,7.92,0,0,0-4.9-.88A4.23,4.23,0,0,0,436,84.88Zm0,0a4.92,4.92,0,0,1,3-4.17,6.69,6.69,0,0,1,2.73-.47,12.92,12.92,0,0,1,2.77.31,13.93,13.93,0,0,1,5.24,2.22,8,8,0,0,1,2.12,2.32,5.65,5.65,0,0,1,.84,3.35A4.74,4.74,0,0,1,451,91.7a7.18,7.18,0,0,1-2.9,1.39,11.38,11.38,0,0,1-5.77-.19,10.14,10.14,0,0,1-1.33-.51,10.56,10.56,0,0,1-1.22-.72,8.74,8.74,0,0,1-2-1.86A7.37,7.37,0,0,1,436,84.88Z"/><path d="M465.67,163.93a6.13,6.13,0,0,0-4.13,3.69,8.93,8.93,0,0,0-.42,5.46,13.89,13.89,0,0,0,2.25,4.83,6.74,6.74,0,0,0,1.64,1.68,2.16,2.16,0,0,0,1.61.37c1.07-.17,2.3-1.47,3-3a18.09,18.09,0,0,0,1.47-5.22,9.89,9.89,0,0,0-.62-5.49,4.5,4.5,0,0,0-4.79-2.37Zm0,0a5.19,5.19,0,0,1,5.14,2.16,8.29,8.29,0,0,1,1.24,2.74,17.08,17.08,0,0,1,0,9.12,8.28,8.28,0,0,1-1.63,3,5.65,5.65,0,0,1-3.22,2,4.48,4.48,0,0,1-2.09-.08,5.46,5.46,0,0,1-1.77-.89,8.33,8.33,0,0,1-2.15-2.66,13.85,13.85,0,0,1-1.53-6,10.88,10.88,0,0,1,1.54-5.81A7.27,7.27,0,0,1,465.67,163.93Z"/></svg>