<svg id="Layer_1" data-name="Layer 1" xmlns="http://www.w3.org/2000/svg" viewBox="0 0 600 600"><title>trinidadtobago</title><path d="M194.44,255.38a20.45,20.45,0,0,0,5.11-1.15,24.13,24.13,0,0,0,4.65-2.41c1.48-.95,2.93-1.92,4.43-2.85s3.06-1.8,4.69-2.57a25.35,25.35,0,0,1,7.86-2.27c.91-.14,1.82-.19,2.72-.25,3.63-.18,7.19.11,10.63.17a29.94,29.94,0,0,0,9.76-1.12,21.12,21.12,0,0,0,8.05-4.88c2.42-2.21,4.7-4.85,7.44-7.42a30,30,0,0,1,4.66-3.65l.65-.43.73-.36,1.46-.72c.51-.22,1.05-.38,1.57-.57l.8-.26.84-.18a18.42,18.42,0,0,1,6.69-.2,31.28,31.28,0,0,1,6,1.51c3.63,1.28,6.79,2.65,9.73,3.48.75.22,1.42.36,2.18.54l2.39.45c1.6.26,3.2.49,4.81.64a72.66,72.66,0,0,0,9.67.28,83.47,83.47,0,0,0,19.09-3,93.48,93.48,0,0,0,9.2-3c3-1.2,6.17-2.54,9.45-3.89s6.67-2.75,10.42-4a90.29,90.29,0,0,1,11.37-2.89c7.5-1.45,14.63-2.16,21.14-3.17,3.26-.51,6.37-1.1,9.3-1.86l2.63-.66c1-.23,2-.45,3.1-.65a41.74,41.74,0,0,1,7.17-.71,28.4,28.4,0,0,1,8.61,1.23c.75.22,1.52.53,2.26.82s1.52.67,2.21,1.07,1.38.8,2.05,1.23a22.32,22.32,0,0,1,2.1,1.59c.34.3.68.54,1,.9s.69.72,1,1.09.65.74,1,1.12.6.85.89,1.29a16,16,0,0,1,1.52,2.79,16.8,16.8,0,0,1,1.06,3,17.8,17.8,0,0,1,.56,3,19.93,19.93,0,0,1,.13,2.84c-.05.86-.07,1.83-.2,2.61s-.25,1.61-.42,2.37a35,35,0,0,1-2.77,7.57,55.08,55.08,0,0,1-3.44,5.89,90.93,90.93,0,0,1-7.54,9.58c-2.59,2.92-5.27,5.62-8,8.21-1.36,1.29-2.74,2.56-4.11,3.79l-2.05,1.82-.25.22-.43.36-.87.7c-.59.48-1.12.83-1.69,1.24a54.92,54.92,0,0,1-5.84,3.39c-1.64.85-2.94,1.53-3.81,2.09a5.12,5.12,0,0,0-1.32,1,0,0,0,0,1,0,0s.05-.06,0,0a2.53,2.53,0,0,1-.18.37c-.05.12-.09.26-.15.38a10.89,10.89,0,0,0-.34,4.7,43.45,43.45,0,0,0,1.72,7.8c.89,2.93,2,6.1,3.18,9.52A111,111,0,0,1,404,314.38a47,47,0,0,1,1.08,7.07c.06.63.08,1.3.09,2l0,1,0,.91-.07,1.81-.15,1.76a67.92,67.92,0,0,1-2.66,12.81c-1.14,3.84-2.37,7.32-3.43,10.5-.53,1.59-1,3.13-1.39,4.58-.11.37-.19.72-.28,1.07s-.21.75-.26,1c-.09.53-.22,1-.28,1.57a19.67,19.67,0,0,0,.13,6.31,27.61,27.61,0,0,0,.79,3.23,32.52,32.52,0,0,0,1.3,3.26,36.86,36.86,0,0,0,1.75,3.25l.24.41.2.27c.13.18.23.36.39.55l.46.57c.15.2.35.42.52.62,1.43,1.69,3.7,3.89,6.52,7.05a59.79,59.79,0,0,1,4.41,5.64,44.32,44.32,0,0,1,4,7.31,46.25,46.25,0,0,1,2.6,8.23,45.36,45.36,0,0,1,.91,8.36,62.52,62.52,0,0,1-.32,7.38c-.21,2.21-.48,4.21-.72,5.9s-.42,3.19-.54,4.5-.17,2.69-.22,4.14c-.14,2.92-.15,6-.08,9.14a16.71,16.71,0,0,1-.28,4.86c-.38,1.66-1.17,3.37-1.74,5.1a15.5,15.5,0,0,0-.9,5.25l-.12,5.37,0,5.53a32.17,32.17,0,0,1-1.12,9.53,21.09,21.09,0,0,1-3.61,7.21,19.21,19.21,0,0,1-3.59,3.56c-.33.26-.67.5-1,.74l-1,.62a16.57,16.57,0,0,1-2,1,23.14,23.14,0,0,1-6.75,1.83,32.72,32.72,0,0,1-4.73.21c-2.68-.08-4.66-.29-6.28-.48-.8-.09-1.46-.16-2-.2a3.91,3.91,0,0,1-.86-.09c0-.05.37-.05,1.42-.46a2.32,2.32,0,0,0,.39-.18l-.14.06-.3.1-.66.27a24.73,24.73,0,0,0-3.2,1.62c-2.39,1.39-5.35,3.55-8.95,5.65a98,98,0,0,1-21.88,9.65,109.09,109.09,0,0,1-23,4.45c-3.87.3-7.72.53-11.58.48-1,0-1.93-.06-2.89-.07s-1.92,0-2.88-.1c-1.92-.12-3.82-.22-5.82-.45-7.82-.91-14.83-2.62-21.31-3.2-1.62-.17-3.19-.24-4.73-.29h-2.39l-2.55,0c-3.41,0-6.84.16-10.27.27s-6.9.24-10.37.29l-2.61,0c-.43,0-.87-.28-1.3-.22a12,12,0,0,0-1.31.34c-1.74.56-3.49,1.51-5.24,1.73-7.07.64-14,1.08-20.82,1.83s-13.41,1.66-19.78,2.91c-3.18.62-6.29,1.33-9.35,2.13s-6.5,1.8-10.36,2.66A80.87,80.87,0,0,1,168.18,528a73.89,73.89,0,0,1-13.6-.55c-8.59-1.12-16-3.29-22.62-5.1-3.3-1-6.35-1.8-9.2-2.51-.72-.18-1.42-.35-2.09-.5s-1.36-.3-2-.43a12.49,12.49,0,0,1-3.72-1,14.57,14.57,0,0,1-3.45-2.65c-.59-.6-1.21-1.19-1.85-1.76a21.05,21.05,0,0,0-2-1.69,11.43,11.43,0,0,0-4.36-2.06,8.85,8.85,0,0,0-2.17-.12c-.71.08-1.42.16-2.15.26A43.67,43.67,0,0,0,89.53,513c-3.11,1.43-6.22,3.11-9.43,4.88a98,98,0,0,1-10.23,4.94,36.81,36.81,0,0,1-6.22,2,22.79,22.79,0,0,1-8,.38A18.07,18.07,0,0,1,47,521.46a16.81,16.81,0,0,1-3.68-4,16.39,16.39,0,0,1-1.38-2.67l-.26-.72c-.08-.28-.15-.43-.24-.81a16.57,16.57,0,0,1-.36-2.36,13.06,13.06,0,0,1,0-2.09c0-.34.07-.71.12-1l.18-.82c.13-.53.28-1.14.44-1.59l.5-1.3a8.62,8.62,0,0,1,.52-1.16l.54-1.06c.35-.64.71-1.21,1.08-1.81a42.3,42.3,0,0,1,4.26-5.49c1.42-1.58,2.82-3.05,4.25-4.39s2.89-2.62,4.33-3.84a96.86,96.86,0,0,1,8.94-6.6c1.51-1,3-1.94,4.57-2.88.75-.48,1.55-.87,2.31-1.31s1.57-.77,2.35-1.11,1.57-.66,2.31-.89l.53-.17a3.13,3.13,0,0,1,.44-.1,4,4,0,0,0,.57-.2l.63-.23c1.68-.58,3.45-1.11,5.21-1.66s3.57-1.1,5.33-1.73,3.46-1.34,5.13-2.14c3.36-1.55,6.43-3.68,9.89-5.31a64.54,64.54,0,0,1,10.75-4.13,75.2,75.2,0,0,1,11.26-2.15,71.67,71.67,0,0,0,9.75-1.48,18.65,18.65,0,0,0,7.35-3.42,14.74,14.74,0,0,0,2.62-2.67c.85-1.06,1.75-2.4,2.65-3.8a67.88,67.88,0,0,1,6.77-9.47,22.74,22.74,0,0,1,5.85-4.72,14.08,14.08,0,0,1,1.91-.93,18.84,18.84,0,0,1,2-.72c.63-.17,1.27-.33,1.91-.48s1.23-.21,1.85-.31l.92-.12.87-.06c.58,0,1.18-.07,1.75-.09,1.09,0,2.24,0,3.26.08,2.13.11,4,.37,5.92.62,3.68.53,7,1.16,10,1.4.7,0,1.45.12,2.08.1h1l.87-.06a5.62,5.62,0,0,0,.8-.1c.27-.05.48-.05.79-.12.63-.16,1.27-.23,1.9-.42A28.61,28.61,0,0,0,207.5,426a20.49,20.49,0,0,0,5.36-4.42,11.81,11.81,0,0,0,2.39-5,5.13,5.13,0,0,0,.13-.66c0-.24,0-.47,0-.7a7.47,7.47,0,0,0,0-1.42c0-.48-.12-1-.16-1.46s-.18-1-.38-1.57a23.63,23.63,0,0,0-1.38-3.51c-.65-1.29-1.35-2.6-2.21-4.08a96.93,96.93,0,0,1-5.48-10.25c-.42-1-.85-2.06-1.2-3.19l-.51-1.69c-.15-.57-.25-1.12-.37-1.68s-.24-1.11-.33-1.66l-.22-1.66c-.17-1.1-.21-2.18-.28-3.26a57.84,57.84,0,0,1,.83-12.18c1.23-7.66,3.5-14.53,5.14-21a48.5,48.5,0,0,0,1.4-9.13,67.55,67.55,0,0,0,0-9.65,74.61,74.61,0,0,0-3.78-19.21,49.3,49.3,0,0,0-9.43-16.82,26.9,26.9,0,0,0-16.31-9.1,33.44,33.44,0,0,0-9.84.19c-3.39.52-7.05,1.33-10.87.91a14.07,14.07,0,0,1-5.54-1.71,8.2,8.2,0,0,1-3.67-4.68,8.88,8.88,0,0,1,.39-5.75,13.35,13.35,0,0,1,3.13-4.56,29.08,29.08,0,0,1,9.19-5.41,74.78,74.78,0,0,1,10.1-3.06,162.08,162.08,0,0,1,20.79-3.19Zm0,.09c-3.47.55-6.93,1.12-10.36,1.82s-6.82,1.56-10.16,2.49c-1.67.47-3.32,1-5,1.57-.81.28-1.63.54-2.42.86s-1.61.61-2.38,1a28,28,0,0,0-8.42,5.28,11.57,11.57,0,0,0-2.55,3.93,6.76,6.76,0,0,0-.22,4.36,5.84,5.84,0,0,0,2.72,3.26,11.46,11.46,0,0,0,4.52,1.24c3.26.24,6.62-.61,10.08-1.32a33.78,33.78,0,0,1,5.35-.74,31.88,31.88,0,0,1,5.44.05,29.19,29.19,0,0,1,10.42,3,33.59,33.59,0,0,1,8.71,6.36,53.9,53.9,0,0,1,11.4,17.92,80.36,80.36,0,0,1,5.18,20.5,66.27,66.27,0,0,1-.56,21.08c-1.45,6.87-3.36,13.63-4.28,20.58a50.19,50.19,0,0,0-.43,10.46A30,30,0,0,0,214,389.28a86.65,86.65,0,0,0,5.13,9.16,45.8,45.8,0,0,1,4.64,9.42,21.17,21.17,0,0,1,.82,10.38,20.37,20.37,0,0,1-4.42,9.41,28.15,28.15,0,0,1-8.14,6.57,35.88,35.88,0,0,1-9.82,3.65c-.85.21-1.73.3-2.59.46a25.44,25.44,0,0,1-2.62.19,36.79,36.79,0,0,1-5.24-.34c-3.48-.48-6.9-1.27-10.35-1.92-1.72-.31-3.45-.63-5.19-.79-.87-.12-1.75-.13-2.63-.19a23,23,0,0,0-2.62.11,13.2,13.2,0,0,0-5,1.38,16.11,16.11,0,0,0-4.18,3.16,67.36,67.36,0,0,0-6.47,8.27c-2,2.84-4.2,5.69-7.12,7.67a25.94,25.94,0,0,1-9.66,4,91.21,91.21,0,0,1-10.43,1.33,55.26,55.26,0,0,0-20.14,5.63c-6.29,3.13-12,7.28-17.68,11.37-2.85,2-5.64,4.17-8.65,6s-6,3.69-8.91,5.59a131.48,131.48,0,0,0-17,12.39A31.07,31.07,0,0,0,52.08,506,8.39,8.39,0,0,0,50,510.68a6.79,6.79,0,0,0,2.46,4.5,10.2,10.2,0,0,0,4.69,2.25c3.48.66,7-.26,10.29-1.43a89.56,89.56,0,0,0,9.65-4.19c6.28-3.11,12.37-6.64,18.87-9.29a43.58,43.58,0,0,1,20.66-2.75c7,.67,13.8,2.52,20.53,4.45a181.6,181.6,0,0,0,20.4,5.11,62.24,62.24,0,0,0,10.47.86,67.92,67.92,0,0,0,10.46-1c3.47-.54,6.91-1.21,10.37-1.77s6.95-1,10.44-1.36c7-.71,14-1,21-1.19s14-.16,21-.22,14-.11,21,0c3.51,0,7,.13,10.52.27,1.75.07,3.5.14,5.25.27s3.49.32,5.23.56c6.95.95,13.81,2.5,20.82,3a96.54,96.54,0,0,0,41.27-6.27,90.52,90.52,0,0,0,18.58-9.77c2.92-1.94,5.63-4.18,8.52-6.16a43.79,43.79,0,0,1,4.48-2.76,21.4,21.4,0,0,1,2.38-1.11,9.08,9.08,0,0,1,2.58-.5c3.51-.2,7,.54,10.49.63a12.23,12.23,0,0,0,5.16-.75,5.35,5.35,0,0,0,2.06-1.59,7.27,7.27,0,0,0,1.14-2.34,17.63,17.63,0,0,0,.48-5.22l-.14-5.26-.42-10.51a191.59,191.59,0,0,1,.07-21c.12-1.75.29-3.5.51-5.24s.53-3.46.84-5.19a65.45,65.45,0,0,0,1.27-10.43,29.68,29.68,0,0,0-.38-5.24A28.73,28.73,0,0,0,401.7,405a30.22,30.22,0,0,0-2.35-4.69A46.09,46.09,0,0,0,396.3,396c-2.18-2.75-4.54-5.35-6.54-8.24a41.43,41.43,0,0,1-4.79-9.34,37.58,37.58,0,0,1-1.92-20.69,78.74,78.74,0,0,1,3.05-10.06c1.18-3.3,2.42-6.58,3.47-9.93a54.58,54.58,0,0,0,2.27-10.25,29.71,29.71,0,0,0,.16-5.25,35.06,35.06,0,0,0-.74-5.19c-1.49-6.87-4.15-13.39-6.06-20.14a52.72,52.72,0,0,1-2-10.31,22.71,22.71,0,0,1,1.34-10.36,15,15,0,0,1,2.7-4.49,18,18,0,0,1,4.11-3.27c3-1.82,6.29-3.12,9.2-5.08a40.46,40.46,0,0,0,4.06-3.34c1.32-1.16,2.62-2.33,3.9-3.53,2.56-2.39,5-4.86,7.42-7.45a77.28,77.28,0,0,0,6.6-8.17,30,30,0,0,0,4.58-9.4,10.93,10.93,0,0,0,.06-5.18,8.51,8.51,0,0,0-2.76-4.33,13.07,13.07,0,0,0-1-.81l-1.12-.69a12.84,12.84,0,0,0-2.4-1.05,17,17,0,0,0-5.16-.78,45.07,45.07,0,0,0-10.38,1.49c-3.43.76-6.9,1.29-10.38,1.71-7,.85-14,1.28-20.9,2.37a83.57,83.57,0,0,0-10.28,2.21c-3.37,1-6.67,2.13-10,3.31s-6.59,2.4-9.93,3.46a96.45,96.45,0,0,1-10.18,2.68,88.49,88.49,0,0,1-20.91,1.92,79.84,79.84,0,0,1-10.47-1A60.73,60.73,0,0,1,291,234.27c-3.3-1.2-6.42-2.83-9.66-4.16s-6.74-2.27-10.21-1.63c-.22,0-.43.05-.65.1l-.63.18c-.41.13-.84.23-1.25.38l-1.2.53-.6.26-.56.34a26.65,26.65,0,0,0-4.28,3c-2.69,2.25-5.14,4.78-7.87,7a24.78,24.78,0,0,1-9.25,4.89,32.62,32.62,0,0,1-10.47.71c-3.5-.22-7-.66-10.49-.61a26,26,0,0,0-10.24,2c-3.22,1.38-6.21,3.24-9.32,4.85a31,31,0,0,1-9.9,3.45Z"/><path d="M134.64,279a5.35,5.35,0,0,0,.3,2,2.43,2.43,0,0,0,1.24,1.42c1.18.52,2.4-.14,3.39-.89.5-.38,1-.83,1.48-1.27a8.49,8.49,0,0,0,1.21-1.31,6.19,6.19,0,0,0,1-2.89,3.26,3.26,0,0,0-.1-1.32,1.43,1.43,0,0,0-.53-.82,2.55,2.55,0,0,0-1.32-.38,8,8,0,0,0-1.82.12,6.37,6.37,0,0,0-3.36,1.75A5.37,5.37,0,0,0,134.64,279Zm0,0a8.06,8.06,0,0,1,4.37-6.76,8.37,8.37,0,0,1,2.11-.8,4.67,4.67,0,0,1,2.65.12,3.88,3.88,0,0,1,2.13,2.1,5.56,5.56,0,0,1,.39,2.66,7.53,7.53,0,0,1-.67,2.39,8.21,8.21,0,0,1-.63,1.06,5.54,5.54,0,0,1-.85.95,9.46,9.46,0,0,1-1.91,1.25c-.63.31-1.27.61-2,.87a7.81,7.81,0,0,1-2.16.49,3.15,3.15,0,0,1-2.14-.57,3,3,0,0,1-1.13-1.74A6.55,6.55,0,0,1,134.64,279Z"/><path d="M116.15,272.23a2.37,2.37,0,0,0-1.51.5,1.52,1.52,0,0,0-.25,1.43c.22,1.1.57,2.26.85,3.39.61,2.29.75,4.52,1.47,6.22a4.46,4.46,0,0,0,1.73,2.17,4.12,4.12,0,0,0,2.94.65,2.53,2.53,0,0,0,1.35-.58,1.14,1.14,0,0,0,.3-1.17,6.76,6.76,0,0,0-.63-1.48,7.35,7.35,0,0,1-.67-1.81,5.23,5.23,0,0,1,0-2.09,4.23,4.23,0,0,1,1-2,4,4,0,0,1,2.07-1.3,7,7,0,0,1,2.14-.08,1.53,1.53,0,0,0,1.53-.77,1.5,1.5,0,0,0-.11-1.47c-.06-.12-.15-.14-.21-.22a3.92,3.92,0,0,0-.43-.24,7.12,7.12,0,0,0-1.34-.39c-1-.21-2.11-.39-3.24-.54A27.62,27.62,0,0,0,116.15,272.23Zm0-.3a61.12,61.12,0,0,0,6.87-1.52,14.33,14.33,0,0,1,3.68-.35,8.2,8.2,0,0,1,2,.36,5.33,5.33,0,0,1,1.12.52,4.31,4.31,0,0,1,1.21,6,4.5,4.5,0,0,1-2,1.64,4.61,4.61,0,0,1-2.44.27,6,6,0,0,0-1.32-.15,1.71,1.71,0,0,0-.89.38,2.88,2.88,0,0,0-1,2.27,4.88,4.88,0,0,0,.22,1.53,11.83,11.83,0,0,1,.45,1.8,2.28,2.28,0,0,1-.68,2,4.55,4.55,0,0,1-1.76.85,6.85,6.85,0,0,1-3.83-.09,5.9,5.9,0,0,1-3.25-2.47,8.67,8.67,0,0,1-1.21-3.71,20.09,20.09,0,0,1,0-3.56c.09-1.18.22-2.32.29-3.52a2.36,2.36,0,0,1,.75-1.76A3.29,3.29,0,0,1,116.12,271.93Z"/><path d="M485,95.8c-5.19,4.13-9.88,8.85-15,13.21a84.8,84.8,0,0,1-8.12,6.15,58.2,58.2,0,0,0-7.65,5.9,83.8,83.8,0,0,0-6.68,6.9c-1.07,1.22-2.14,2.43-3.19,3.69-.22.27-.64.73-1,1.11s-.76.71-1.13,1a27.58,27.58,0,0,1-2.24,1.7,89.67,89.67,0,0,1-8.93,5.16c-2.93,1.54-5.87,3-8.45,4.58-.63.4-1.24.8-1.78,1.19a7.41,7.41,0,0,0-1.18,1.07l-.09.08s0,0,0,0,0,0,0,0,0,0,0,0l0,.14-.06.27-.11.55c-.14.74-.24,1.48-.33,2.21a17.68,17.68,0,0,0,1,8.6,11.48,11.48,0,0,0,5.78,6.06,8.69,8.69,0,0,0,4.16.77A9.74,9.74,0,0,0,434,164.8c5.26-3.19,8.32-9.84,14.22-13.8l2.17-1.46c.75-.44,1.53-.82,2.3-1.23a19.34,19.34,0,0,1,2.35-1.11c.8-.32,1.58-.73,2.4-1a79.87,79.87,0,0,1,9.88-2.77c3.31-.71,6.6-1.33,9.83-2,1.6-.35,3.22-.65,4.78-1l2.35-.56,2.28-.65a41.11,41.11,0,0,0,8.51-3.46l1-.52,1.07-.64,2.14-1.27,4.22-2.56c2.79-1.72,5.54-3.49,8.21-5.32s5.28-3.71,7.68-5.71a30.79,30.79,0,0,0,6-6.19,34.72,34.72,0,0,0,3.52-8.07c1-3.08,2-6.31,3.1-9.44l1.58-4.73a25,25,0,0,0,1.08-4,6.76,6.76,0,0,0,.09-1.35s0-.13,0-.13,0,0,0,0a1.24,1.24,0,0,0,.26.2c.25.12.16,0-.27-.1a6.63,6.63,0,0,0-1.7,0,34.12,34.12,0,0,0-4.43.95l-4.84,1.34c-7,1.83-13.82,1.27-20.4,1.67a41,41,0,0,0-9.69,1.48c-.79.22-1.54.53-2.32.8s-1.49.67-2.24,1L487,94.4Zm-.49-.63a31.54,31.54,0,0,1,8.82-4.91,59.38,59.38,0,0,1,9.81-2.53c1.65-.32,3.31-.57,4.95-.85s3.27-.59,4.87-.92a43.25,43.25,0,0,0,9.1-2.77l4.55-2a32.68,32.68,0,0,1,5.13-1.86,12.94,12.94,0,0,1,3.25-.45,6.91,6.91,0,0,1,1,0,4.43,4.43,0,0,1,.51.06l.57.12a5.35,5.35,0,0,1,1.17.39,5.9,5.9,0,0,1,1.19.67,6.45,6.45,0,0,1,1.07,1,7.89,7.89,0,0,1,.8,1.12,7.79,7.79,0,0,1,.53,1.14,7.62,7.62,0,0,1,.32,1.07,12.12,12.12,0,0,1,.22,3.61,28.59,28.59,0,0,1-1.11,5.68l-1.38,4.79c-.92,3.22-1.86,6.35-2.85,9.61a39.62,39.62,0,0,1-4.47,10.15c-.53.83-1.21,1.62-1.83,2.41s-1.3,1.44-2,2.07a47.38,47.38,0,0,1-4.11,3.52,139,139,0,0,1-17.31,11.05l-4.43,2.41-2.21,1.18-1.1.59-1.25.58a42.59,42.59,0,0,1-10.18,3.39c-6.87,1.45-13.59,1.61-20.1,2.33l-2.42.31c-.82.09-1.62.21-2.41.36s-1.6.26-2.39.43l-2.33.58a29.89,29.89,0,0,0-8.72,3.78,15.19,15.19,0,0,0-1.93,1.39,18.89,18.89,0,0,0-1.82,1.53c-1.15,1.1-2.22,2.33-3.3,3.59-2.17,2.49-4.3,5.23-7.35,7.25a13.14,13.14,0,0,1-5.17,2,12.39,12.39,0,0,1-5.64-.54,15.76,15.76,0,0,1-8.56-7.15,22.56,22.56,0,0,1-2.73-10.8c0-.92,0-1.84.09-2.75l.07-.68,0-.35,0-.17.06-.31a6.07,6.07,0,0,1,.38-1.2c.08-.18.16-.36.25-.53l.25-.43a12.8,12.8,0,0,1,2.19-2.59,26.87,26.87,0,0,1,2.21-1.8,85.86,85.86,0,0,1,8.82-5.38c2.91-1.6,5.82-3.12,8.39-4.75.63-.41,1.26-.81,1.8-1.22.28-.21.52-.41.76-.61s.37-.34.71-.69c1.19-1.2,2.4-2.4,3.66-3.56a68.92,68.92,0,0,1,8.12-6.46,61.67,61.67,0,0,1,9.08-4.93,62,62,0,0,0,8.6-4.71C474.32,103.78,479.33,99.36,484.53,95.17Z"/><path d="M544.54,95.6c-.07.64-.09,1.21-.1,1.72,0,.25,0,.49,0,.71s0,.52-.06.75a3.13,3.13,0,0,0,.72,2.31c.25.36.58.83.84,1.18a2.57,2.57,0,0,0,.75.72,2.49,2.49,0,0,0,.92.31,1.77,1.77,0,0,0,.82,0c.05,0,0,0,0,0s0,0,0-.08a3.7,3.7,0,0,0,.13-1.09,8.31,8.31,0,0,0-.26-2.61A5.16,5.16,0,0,0,547,97.34,9.94,9.94,0,0,0,544.54,95.6Zm0,0a6.35,6.35,0,0,1,3.31.52,5.85,5.85,0,0,1,2.62,2.52,8.33,8.33,0,0,1,.95,3.49,5.94,5.94,0,0,1-.15,2,3.14,3.14,0,0,1-.71,1.27,2.9,2.9,0,0,1-1.34.8,4.67,4.67,0,0,1-2.28,0,5.1,5.1,0,0,1-1.93-.89,5,5,0,0,1-1.32-1.61,15.1,15.1,0,0,1-.71-1.53,5.46,5.46,0,0,1-.44-1.87,4.33,4.33,0,0,1,.4-1.87c.12-.27.24-.49.37-.75s.27-.54.42-.78C544,96.39,544.3,96,544.54,95.6Z"/></svg>