<svg id="Layer_1" data-name="Layer 1" xmlns="http://www.w3.org/2000/svg" viewBox="0 0 600 600"><title>Algeria</title><path d="M185.9,419.66c6.31,5.83,13.66,10.44,20.95,14.74a71.52,71.52,0,0,0,11.55,5.18c4,1.42,8.1,2.59,12.22,3.89,2.07.65,4.13,1.33,6.19,2.1,1,.36,2,.81,3.06,1.22l1.52.63,1.5.69a116.73,116.73,0,0,1,11.62,6.22,171.53,171.53,0,0,1,21.1,15.59c6.65,5.63,13,11.47,19.39,17.15l9.6,8.58,4.81,4.29c1.59,1.42,3.24,2.9,4.91,4.51a42,42,0,0,1,9.17,12.17c1.17,2.47,1.93,4.77,2.64,6.7a26.36,26.36,0,0,0,2.06,4.65c.32.56.77,1,1.11,1.49a13,13,0,0,0,2.89,2.29c.28.16.6.28.89.44l.44.22.5.18a24.41,24.41,0,0,0,9,1.42,33.5,33.5,0,0,0,5-.51c.83-.11,1.64-.36,2.46-.52s1.54-.41,2.45-.74c3.48-1.14,7.11-2.65,10.95-4.35s7.91-3.55,12.43-5.2a67.45,67.45,0,0,1,7.08-2.21l1.87-.46,1.93-.39c1.29-.26,2.59-.44,3.77-.6,2.39-.31,4.48-.52,6.23-.79.88-.14,1.67-.28,2.38-.45a16.26,16.26,0,0,0,1.94-.6,26.15,26.15,0,0,0,7.66-4.48c5.27-4.23,10.4-10.61,16.89-17.29a151,151,0,0,1,21.44-17.88c7.46-5.23,15.11-9.76,22.59-14.15s14.84-8.55,21.81-12.92a167.21,167.21,0,0,0,19.45-14c1.48-1.25,2.85-2.57,4.29-3.84.76-.67,1.31-1.22,1.9-1.83s1.15-1.22,1.7-1.86a43.05,43.05,0,0,0,5.6-8.13,25.81,25.81,0,0,0,2.79-8,9.46,9.46,0,0,0-.53-5.35,6.48,6.48,0,0,0-1.29-1.84,12.12,12.12,0,0,0-2.28-1.85,56,56,0,0,0-9.14-4.19c-2-.78-4.06-1.6-6.39-2.6-1.12-.46-2.36-1.06-3.55-1.62s-2.47-1.25-3.76-2A52.51,52.51,0,0,1,487,381.49a57,57,0,0,1-8.67-15.15,73.9,73.9,0,0,1-4.23-16,85.4,85.4,0,0,1-.79-15.94c.09-2.64.37-5.27.67-7.9l.62-3.94c.23-1.3.5-2.47.75-3.71,1.08-4.87,2.36-9.57,3.83-14s3-8.72,4.58-12.82,3.16-8,4.59-11.83a25.35,25.35,0,0,1,2.47-5.45,28.53,28.53,0,0,1,1.8-2.45c.62-.8,1.33-1.6,1.89-2.4a18.08,18.08,0,0,0,1.61-2.48,20.4,20.4,0,0,0,1.09-2.6l1.58-5.31c.41-1.8.73-3.62,1.12-5.44s.44-3.69.68-5.53a116.39,116.39,0,0,0-.62-22.38A112.13,112.13,0,0,0,486.54,183c-1-1.63-2-3.32-3-4.93l-3.31-4.73c-2.39-3.17-5.14-6.47-8-10.13-1.39-1.81-2.82-3.74-4.22-5.74a64.89,64.89,0,0,1-3.94-6.55,40,40,0,0,1-4.68-16A45.11,45.11,0,0,1,461.6,119c.7-2.39,1.52-4.65,2.37-6.81s1.66-4.25,2.49-6.25c3.2-8,6.17-16,9.34-24,.77-2,1.56-3.88,2.17-5.64s1.09-3.41,1.55-4.88a10.4,10.4,0,0,0,.33-4,7.26,7.26,0,0,0-.33-1.57c-.08-.23-.15-.47-.21-.71s-.22-.44-.32-.66l-.13-.34-.21-.32-.38-.64c-.37-.41-.59-.85-1-1.25a15.14,15.14,0,0,0-2.72-2.33,22.42,22.42,0,0,0-7.7-3,24.14,24.14,0,0,0-4.19-.48,38.51,38.51,0,0,0-4.51.3,66,66,0,0,0-10.26,2.24c-3.66,1.06-7.49,2.35-11.67,3.71-2.07.67-4.26,1.36-6.5,2s-4.62,1.2-7,1.76a165.73,165.73,0,0,1-27.93,4c-9.17.6-18.1.56-26.75.41l-12.78-.36c-2.09-.07-4.19-.15-6.24-.18a29.24,29.24,0,0,1-6.13-.52,24.33,24.33,0,0,1-6.09-2.46l-3.07-1.78c-1-.62-2.06-1.23-3.09-1.77A26,26,0,0,0,324.4,61a32.83,32.83,0,0,0-6.2-.66c-2.05,0-4.12-.1-6.17,0-1,.06-2.06.12-3.08.21s-2,.26-3.06.4a79.94,79.94,0,0,0-12,2.82c-2,.59-3.9,1.3-5.84,2s-3.85,1.44-5.76,2.21-3.8,1.54-5.65,2.43-3.71,1.72-5.48,2.76A127.37,127.37,0,0,0,251,86.91c-3.08,2.59-6.2,5.22-9.09,7.82a45.49,45.49,0,0,0-3.48,3.47,14.71,14.71,0,0,0-1.88,2.65,9.11,9.11,0,0,0-.45,1.06,9.76,9.76,0,0,0-.39,1.4c-.23,1.11-.47,2.53-.73,4.25l-.43,2.77c-.09.49-.14,1-.25,1.52l-.25,1.47c-.4,2-.8,4-1.18,6.09s-.71,4.22-.91,6.37a53.42,53.42,0,0,0-.24,6.45c.06,4.29.93,8.52,1.45,12.83s1.08,8.67,1.42,13.09a102,102,0,0,1,.51,13.5l-.05,1.72-.14,1.74c-.1,1.16-.16,2.29-.35,3.6l-.13.95-.22,1-.22,1-.36,1.13a9,9,0,0,1-.44,1.16c-.19.42-.4.84-.62,1.26a8.66,8.66,0,0,1-.87,1.3,7.62,7.62,0,0,1-1.12,1.26,12.17,12.17,0,0,1-1.39,1.12c-.51.31-1,.59-1.55.85a12.41,12.41,0,0,1-2.89.84,21.83,21.83,0,0,1-4.44.25l-6.59-.37-6.36-.21a55.57,55.57,0,0,0-5.81,0,17,17,0,0,0-4.57.88A8,8,0,0,0,194,193.1c-.18.22-.4.42-.57.63a8.49,8.49,0,0,0-.51.7,14.88,14.88,0,0,0-1,1.82c-.68,1.42-1.34,3.23-2.16,5.33-.39,1-.9,2.18-1.38,3.29s-1,2.19-1.57,3.27c-1.11,2.15-2.34,4.24-3.66,6.27A69.92,69.92,0,0,1,174,225.7a73.57,73.57,0,0,1-11.34,9.22,69.85,69.85,0,0,1-13.09,6.75,90.46,90.46,0,0,1-13.77,4.06,124.25,124.25,0,0,1-13.52,1.93c-4.41.41-8.72.7-12.93,1s-8.29.57-12.22,1.08a88.22,88.22,0,0,0-11.52,2.2c-7.4,2-14.16,5.12-19.33,9.89a36.18,36.18,0,0,0-3.62,3.88c-1.12,1.46-2.22,3-3.24,4.61a58.11,58.11,0,0,0-5.13,10.29,40.66,40.66,0,0,0-2.6,10.8c0,.86-.08,1.75-.06,2.6l.08,1.26,0,.63.11.59.21,1.2a11,11,0,0,0,.33,1.12A12.67,12.67,0,0,0,53.3,301c.34.77.86,1.52,1.28,2.3s1,1.53,1.61,2.27A49.18,49.18,0,0,0,60.07,310a108.62,108.62,0,0,0,9.24,8.21c3.28,2.66,6.69,5.25,10.09,8,.85.72,1.7,1.39,2.55,2.14l1.26,1.11,1.2,1.08,4.76,4.32c6.37,5.75,12.7,11.55,19.1,17.25l19.2,17.14,19.3,17c6.43,5.67,12.86,11.34,19.42,16.86l19.66,16.59Zm-.05.07c-27.61-20.44-53.31-43.16-79.67-65.1L86.55,338c-3.29-2.76-6.49-5.61-9.86-8.18s-6.89-5.08-10.32-7.68a119.76,119.76,0,0,1-10-8.24,55.47,55.47,0,0,1-4.48-4.71c-.71-.82-1.33-1.72-2-2.57s-1.21-1.81-1.71-2.79a24.35,24.35,0,0,1-2.77-12.65,46.8,46.8,0,0,1,2.47-12.69,64.9,64.9,0,0,1,5.29-11.75,64.19,64.19,0,0,1,3.5-5.42,43.58,43.58,0,0,1,4.21-4.89c6.11-6.11,14-10.08,22.21-12.58s16.77-3.64,25.29-4.45,17.1-1.49,25.52-3.14a80.47,80.47,0,0,0,12.38-3.41,62.5,62.5,0,0,0,11.53-5.64,64.09,64.09,0,0,0,24.85-28.75c.86-2,1.68-3.95,2.72-5.82a17,17,0,0,1,4-5,15.37,15.37,0,0,1,5.64-3,24.75,24.75,0,0,1,6.35-.88c2.14,0,4.28.09,6.42.24l6.41.47c2.14.17,4.27.44,6.41.57a15.57,15.57,0,0,0,3.2-.09,5.17,5.17,0,0,0,2.89-1.29,6.55,6.55,0,0,0,1.64-2.72l.27-.76.18-.78a14.22,14.22,0,0,0,.31-1.58c.19-1,.26-2.12.36-3.19l.14-1.6.07-1.61a98.31,98.31,0,0,0-.36-12.84c-.35-4.27-.86-8.53-1.47-12.78-1.18-8.49-2.65-16.94-3.6-25.46a127.83,127.83,0,0,1-.76-12.83c0-4.26.53-8.67,2.66-12.44s5.38-6.68,8.74-9.31c1.69-1.32,3.44-2.55,5.16-3.83s3.54-2.42,5.31-3.62A167.59,167.59,0,0,1,267.92,66a165.06,165.06,0,0,1,49.4-13.57c17.07-1.9,34.27-1.06,51.38-.46s34.37,1,51.31-1.87c8.48-1.32,16.7-3.88,25.12-5.5a75.05,75.05,0,0,1,12.76-1.49,45.8,45.8,0,0,1,6.41.31,36.44,36.44,0,0,1,6.27,1.41,33.43,33.43,0,0,1,11.27,6,24.29,24.29,0,0,1,4.39,4.67,22.57,22.57,0,0,1,1.71,2.72c.24.48.44,1,.66,1.47l.33.73.23.77c.16.51.33,1,.47,1.54l.28,1.58a18,18,0,0,1,.26,3.2,27.35,27.35,0,0,1-.85,6.36,77,77,0,0,1-4.5,12l-10.29,23.57a104.16,104.16,0,0,0-4.63,12,34.31,34.31,0,0,0-1.57,12.68c.06,1.07.3,2.12.46,3.18l.4,1.56a11.75,11.75,0,0,0,.47,1.53,33.11,33.11,0,0,0,2.63,5.86,66.14,66.14,0,0,0,7.59,10.35c2.8,3.25,5.74,6.36,8.55,9.61l4,5c1.29,1.71,2.49,3.49,3.73,5.23a115.06,115.06,0,0,1,18.14,47.67A111.14,111.14,0,0,1,510,274.92c-5.28,16.32-13.45,31.6-17.68,48.27-.25,1-.53,2.07-.75,3.12l-.62,3.16c-.32,2.11-.65,4.23-.8,6.37a69.71,69.71,0,0,0,.1,12.84A57.08,57.08,0,0,0,493,361.2a40.56,40.56,0,0,0,5.94,11.34,36.54,36.54,0,0,0,9.39,8.66,83.23,83.23,0,0,0,11.55,5.62,63.17,63.17,0,0,1,11.43,5.85,22.28,22.28,0,0,1,8.14,9.73,22.86,22.86,0,0,1,1.2,12.65,39.25,39.25,0,0,1-4.35,12,57.06,57.06,0,0,1-7.43,10.47,93.91,93.91,0,0,1-9.39,8.78,179.41,179.41,0,0,1-21,14.76c-7.31,4.49-14.79,8.68-22.22,13s-14.81,8.64-21.89,13.47a139,139,0,0,0-19.9,16.22c-6,6.07-11.51,12.76-18.33,18a36.21,36.21,0,0,1-11.28,6.06c-4.1,1.35-8.45,1.48-12.69,1.95-8.58.83-16.59,4.24-24.51,7.44a115.46,115.46,0,0,1-12.12,4.29,43,43,0,0,1-12.72,1.61,31.32,31.32,0,0,1-12.47-2.82l-.73-.35-.7-.4c-.46-.28-.93-.53-1.38-.83a20.34,20.34,0,0,1-2.5-2,19.49,19.49,0,0,1-2.17-2.37,28.9,28.9,0,0,1-1.71-2.73c-2-3.85-2.67-8.16-4.36-12.09A36.41,36.41,0,0,0,309.44,509c-2.95-3.11-6.05-6.07-9.07-9.11l-9.13-9.05c-6.1-6-12.12-12.14-18.4-18a166.56,166.56,0,0,0-19.93-16.21,95.29,95.29,0,0,0-22.9-11.5c-4-1.44-8.11-2.76-12.11-4.33a73.77,73.77,0,0,1-11.53-5.66,106.92,106.92,0,0,1-10.56-7.34c-3.38-2.63-6.66-5.39-10-8.06Z"/></svg>