<svg id="Layer_1" data-name="Layer 1" xmlns="http://www.w3.org/2000/svg" viewBox="0 0 600 600"><title>Angola</title><path d="M215.47,102.85a118.74,118.74,0,0,1,14.37-.18A41.13,41.13,0,0,1,244,105.82a25.66,25.66,0,0,1,11.1,9.37,47.44,47.44,0,0,1,5.66,13.36c1.31,4.63,2.29,9.3,3.58,13.85a82.72,82.72,0,0,0,5,13.19,80.74,80.74,0,0,0,7.19,12.12c1.37,1.91,2.85,3.75,4.37,5.52a30,30,0,0,0,5,4.69,13.85,13.85,0,0,0,5.91,2.53,30,30,0,0,0,6.78.08l14.28-.95,14.27-1.08c2.61-.17,5,0,7.4,0s4.74.16,7,.13a32.9,32.9,0,0,0,6.55-.59,4.93,4.93,0,0,0,2.11-.87,2.79,2.79,0,0,0,.78-1.56,13.32,13.32,0,0,0,.16-2.88c0-1.11-.11-2.31-.07-3.74a61.06,61.06,0,0,1,.83-7.57,48.79,48.79,0,0,1,1.93-7.42c.43-1.22.9-2.43,1.44-3.62l.89-1.8c.33-.58.65-1.17,1-1.74a32.57,32.57,0,0,1,5-6.32,29.16,29.16,0,0,1,6.6-5,24.32,24.32,0,0,1,8.17-2.78,21.32,21.32,0,0,1,9,.54,17.35,17.35,0,0,1,8.28,5.31,21.49,21.49,0,0,1,1.46,1.91c.26.4.52.87.76,1.3l.56,1.24a33.78,33.78,0,0,1,1.3,4.14c.31,1.19.59,2.25.88,3.05s.63,1.31.68,1.24,0,0,0,0a.32.32,0,0,0,0-.09s0,0-.08-.07a.27.27,0,0,0-.08-.1s-.12-.06-.08-.05h.09l.22,0a8.73,8.73,0,0,0,1.77,0c.82-.08,2-.25,3.2-.4l3.56-.46,7.07-.92c4.7-.63,9.34-1.31,13.91-2.1l3.54-.63a25.69,25.69,0,0,1,5.05-.35,16.83,16.83,0,0,1,3.23.43,14,14,0,0,1,3.72,1.43,13.11,13.11,0,0,1,1.84,1.23,12.13,12.13,0,0,1,1.6,1.51c.24.27.48.54.71.82l.58.82q.29.41.54.84l.43.79a20.83,20.83,0,0,1,1.89,5.73c.1.45.16.84.21,1.24l.17,1.18.23,1.79c.3,2.39.6,4.79.86,7.18l1.54,14.33,2.76,28.47c.87,9.44,1.82,18.81,3,28.09s2.6,18.47,4.24,27.54l.64,3.39.32,1.69.31,1.45a23.32,23.32,0,0,0,1.41,4.47,4.85,4.85,0,0,0,.6,1c.13.18.15.08,0,0a2.39,2.39,0,0,0-.67-.47c-.26-.12-.55-.17-.55-.2a6.13,6.13,0,0,1,.62-.15c.43-.11,1.08-.32,1.84-.59,1.53-.56,3.6-1.5,6.16-2.53a105.26,105.26,0,0,1,15.62-5,66.39,66.39,0,0,1,8.84-1.42,43.19,43.19,0,0,1,10.38.25,32.7,32.7,0,0,1,6.09,1.53,27,27,0,0,1,6.5,3.43,25,25,0,0,1,5.63,5.65,26.07,26.07,0,0,1,2.05,3.34A32.58,32.58,0,0,1,532.8,289l.52,1.65.23.81.15.61c.18.8.38,1.62.54,2.42l.41,2.31c.14.77.21,1.49.32,2.24.36,2.94.56,5.74.65,8.39s.13,5.25.13,7.73v7.2c0,2.32,0,4.53.14,6.58,0,1.07.13,1.95.21,3,.11,1.22.22,2.54.3,3.92a61.71,61.71,0,0,1-.06,9.39,47.63,47.63,0,0,1-.85,5.56,37.19,37.19,0,0,1-1.87,6,29.92,29.92,0,0,1-1.42,3c-.54,1-1.05,1.93-1.66,2.85s-1.28,1.8-1.95,2.68-1.44,1.64-2.18,2.45a40,40,0,0,1-9.82,7.38,58.4,58.4,0,0,1-19.41,6.07,88.13,88.13,0,0,1-8.94.82c-1.46.08-2.92.08-4.3.11l-3.58,0c-2.32,0-4.48.07-6.46.19s-3.82.29-5.41.52a14.11,14.11,0,0,0-6.11,2c-.26.12-.34.31-.52.41s-.25.26-.31.42a6.89,6.89,0,0,0-.63,1.18,14.42,14.42,0,0,0-.89,2.6,29.19,29.19,0,0,0-.68,4.15c-.15,1.58-.26,3.38-.32,5.29s-.14,3.9-.19,6.21-.12,4.57-.26,6.87-.19,4.6-.35,6.92c-.26,4.64-.57,9.31-.78,14-.13,2.35-.2,4.7-.23,7.06l-.07,3.54c0,1.18,0,2.36,0,3.54a117.68,117.68,0,0,0,.74,14.17l.76,7.08c.21,2.36.36,4.76.42,7.13s.08,4.27.18,5.79a30.15,30.15,0,0,0,.29,3.39,6.29,6.29,0,0,0,1.45,3.08,29.07,29.07,0,0,0,4.09,4.16l2.72,2.34c.87.74,1.83,1.49,2.77,2.27,1.9,1.55,3.84,3.11,5.79,4.66,3.91,3.13,7.89,6.24,11.81,9.72a69.47,69.47,0,0,1,5.75,5.76,36.26,36.26,0,0,1,5.26,7.59,24.67,24.67,0,0,1,1.09,2.48,20.51,20.51,0,0,1,.82,2.93,18.69,18.69,0,0,1,.36,3.35,16,16,0,0,1-.44,3.67,16.57,16.57,0,0,1-1.25,3.48c-.26.53-.57,1-.87,1.49a10.54,10.54,0,0,1-1,1.36,17.26,17.26,0,0,1-2.07,2.23l-1.07,1-1.05.79a35.55,35.55,0,0,1-8.22,4.29,64.33,64.33,0,0,1-7.78,2.39c-10.17,2.51-20,3.41-29.81,4.18-4.88.36-9.8.57-14.6.75s-9.9.29-14.84.19c-9.88-.16-19.7-.9-29.42-2s-19.37-2.41-28.91-4c-4.79-.79-9.43-1.51-14.51-2.52a88.66,88.66,0,0,1-15.87-4.51,57.67,57.67,0,0,1-8.05-3.93c-2.46-1.41-4.66-2.79-6.6-4a39,39,0,0,0-5.18-2.69,14.89,14.89,0,0,0-3.93-1,41.1,41.1,0,0,0-9.84.36c-2,.23-4.1.56-6.38.91l-7.07,1-28.4,3.83L225.94,544c-4.74.63-9.47,1.34-14.21,1.89s-9.84,1.25-15.51,1.46a81.25,81.25,0,0,1-18.74-1.28A56.87,56.87,0,0,1,167,542.92c-.87-.33-1.75-.76-2.62-1.18s-1.74-.83-2.59-1.34l-2.54-1.49c-.79-.52-1.66-1.07-2.37-1.59-1.54-1.07-2.77-2.1-4-3.09s-2.19-1.88-3.07-2.67c-1.81-1.6-3.12-2.78-4-3.51-.43-.34-.77-.59-1-.74l-.52-.37a4.41,4.41,0,0,0-1.35-.6c-1.25-.39-3.94-.44-7.52.23s-7.87,1.77-12.63,3A147.72,147.72,0,0,1,106.93,533l-2.24.29-2.29.22a39.94,39.94,0,0,1-6.08.15,23.33,23.33,0,0,1-8.39-2,19.55,19.55,0,0,1-4.29-2.7,19.08,19.08,0,0,1-3.07-3.23,23.19,23.19,0,0,1-3.14-5.63,22.77,22.77,0,0,1-.75-2.18L76,515.83c-.21-.69-.46-1.37-.63-2.07l-.49-2.09c-.33-1.4-.66-2.78-.87-4.18a83,83,0,0,1-1.28-16.42,129.89,129.89,0,0,1,4.34-30.63c1.21-4.88,2.69-9.64,4.23-14.34.77-2.34,1.57-4.64,2.38-6.92l2.38-6.82c1.63-4.51,3.1-9,4.54-13.45s2.8-8.85,3.83-13.27a127.27,127.27,0,0,0,2.47-13.17,85.52,85.52,0,0,0,.64-13,135.3,135.3,0,0,1-.08-15.19,42.15,42.15,0,0,1,1.61-9,41,41,0,0,1,3.87-8.72,56.63,56.63,0,0,1,11.36-13c4-3.48,7.85-6.41,11.36-9.21a62.8,62.8,0,0,0,8.88-8.29,23.55,23.55,0,0,0,4.73-8.79,29.72,29.72,0,0,0,.92-5.23,39.93,39.93,0,0,0,0-5.68,55.24,55.24,0,0,0-2.43-12c-.28-1-.65-2-1-3s-.75-2-1.17-3.08c-.81-2.06-1.71-4.14-2.65-6.24l-6-13a120.39,120.39,0,0,1-5.43-14.26,85.8,85.8,0,0,1-.94-46c.64-2.48,1.42-5,2.19-7.21a62.94,62.94,0,0,0,1.89-6.3,22,22,0,0,0,.48-2.87l0-.68v-2.1l-.18-1.39-.08-.71-.17-.69-.34-1.4L124,174.1a9.64,9.64,0,0,0-.58-1.38c-.22-.45-.41-.92-.65-1.37-.54-.9-1-1.83-1.63-2.7a48,48,0,0,0-4-5.19,133.2,133.2,0,0,0-10-9.7c-1.78-1.62-3.52-3.15-5.36-4.9a69.86,69.86,0,0,1-5.14-5.47,54.27,54.27,0,0,1-4.44-6.07,38.33,38.33,0,0,1-3.45-6.79A26.93,26.93,0,0,1,86.92,123c0-.66,0-1.33,0-2a19,19,0,0,1,.15-2,15.21,15.21,0,0,1,1-4,11.37,11.37,0,0,1,2.22-3.57A12,12,0,0,1,93.54,109a20.38,20.38,0,0,1,7.45-2c5-.43,9.76.07,14.5.32a64.07,64.07,0,0,0,7.07.07l7.16-.24c9.53-.33,19.07-.63,28.6-1.11s19.06-1,28.58-1.53Zm0,.49-57.16,3-28.58,1.52-7.15.37a68.24,68.24,0,0,1-7.15.13c-4.76-.13-9.55-.49-14.3.06a19.18,19.18,0,0,0-6.83,2,9.68,9.68,0,0,0-4.6,5.27,12.22,12.22,0,0,0-.74,3.48A15.33,15.33,0,0,0,88.9,121c0,.59,0,1.19.1,1.79a24.85,24.85,0,0,0,1.88,6.87,35.86,35.86,0,0,0,3.45,6.25,52,52,0,0,0,4.41,5.63,63.58,63.58,0,0,0,5.08,5c1.79,1.57,3.65,3.07,5.48,4.59A142,142,0,0,1,120,160.65a52.26,52.26,0,0,1,4.64,5.44c.75.93,1.34,2,2,3,.3.51.56,1.05.85,1.57a13.22,13.22,0,0,1,.77,1.61l.68,1.65.52,1.72.25.85.16.88.31,1.77.1,1.78.06.89,0,.9a30.12,30.12,0,0,1-.4,3.55c-.83,4.71-2.59,9.18-3.54,13.86a79.34,79.34,0,0,0-1,28.45,78.15,78.15,0,0,0,3.37,13.89,120.82,120.82,0,0,0,5.57,13.17c4.15,8.58,8.85,16.94,12,26a63.19,63.19,0,0,1,3.19,13.92,48.64,48.64,0,0,1,.21,7.14,39.14,39.14,0,0,1-1,7.07,33.28,33.28,0,0,1-2.48,6.7c-.53,1.07-1.21,2.05-1.8,3.09s-1.4,1.92-2.1,2.89A66.47,66.47,0,0,1,132,332.26c-3.72,3-7.56,5.83-11.18,8.94a47.14,47.14,0,0,0-9.53,10.6,31.21,31.21,0,0,0-3,6.46,33.37,33.37,0,0,0-1.38,7c-.48,4.76-.25,9.54-.28,14.31a95.77,95.77,0,0,1-1.19,14.24,135.89,135.89,0,0,1-3.07,14c-2.5,9.21-5.8,18.18-9,27.16s-6.39,18-8.53,27.31a101.53,101.53,0,0,0-3,28.36A61.8,61.8,0,0,0,84,504.71a30.66,30.66,0,0,0,1.07,3.41l.58,1.69c.2.57.47,1.1.7,1.65a23.48,23.48,0,0,0,3.41,6.26,7.32,7.32,0,0,0,2.86,2.09,9.32,9.32,0,0,0,3.51.58,31.61,31.61,0,0,0,7-1.24,118.54,118.54,0,0,0,13.47-4.81c4.42-1.8,8.82-3.65,13.37-5.09a39.67,39.67,0,0,1,14.07-2.17,24.14,24.14,0,0,1,7,1.41,25.63,25.63,0,0,1,6.29,3.38c3.89,2.77,7.23,6.22,11.14,9a34.74,34.74,0,0,0,13.1,5.5,63.44,63.44,0,0,0,14.23,1.11c4.77-.09,9.53-.51,14.28-.91l14.26-1.19L252.9,523l28.52-2.39c4.75-.37,9.5-.87,14.27-1.05a45.48,45.48,0,0,1,14.18,1.41c4.62,1.3,8.68,4,12.53,6.74,1.94,1.39,3.86,2.81,5.86,4.12a45.31,45.31,0,0,0,6.26,3.44,72.11,72.11,0,0,0,13.6,4.37c4.65,1.06,9.34,1.95,14,2.86,18.73,3.6,37.64,6.56,56.72,7.33,9.53.38,19.08.14,28.61-.37a162.72,162.72,0,0,0,28.33-3.73,55.61,55.61,0,0,0,6.83-2.11A27,27,0,0,0,489,540.3a9.84,9.84,0,0,0,4.17-5.6,7.84,7.84,0,0,0,0-3.54,12.4,12.4,0,0,0-1.22-3.34,27.93,27.93,0,0,0-4.13-5.82,60.29,60.29,0,0,0-5.1-5,124.45,124.45,0,0,0-11.31-8.75c-3.91-2.74-7.94-5.29-11.91-7.92a55.83,55.83,0,0,1-5.77-4.23,21.51,21.51,0,0,1-4.65-5.41c-2.43-4.16-3-9-3.59-13.74l-1.62-14.22c-2.12-19-4-38-4.63-57a100.37,100.37,0,0,1,.31-14.3,39.21,39.21,0,0,1,3.76-13.72,23.41,23.41,0,0,1,9.85-10.07,27.49,27.49,0,0,1,6.67-2.54,42.06,42.06,0,0,1,7.06-1.14,110.05,110.05,0,0,1,14.3-.05,90.9,90.9,0,0,0,14.29-.08,40.26,40.26,0,0,0,13.76-3.6,20.45,20.45,0,0,0,9.9-9.9c1.95-4.39,2.15-9.3,2-14-.07-2.38-.25-4.77-.26-7.15s0-4.77.08-7.16c.12-4.77.32-9.53.24-14.3q0-3.58-.39-7.14a35.63,35.63,0,0,0-1.32-7,11.61,11.61,0,0,0-4.07-5.72,13.34,13.34,0,0,0-3.13-1.69,18.65,18.65,0,0,0-3.45-.91,29.83,29.83,0,0,0-7.13-.23,52.6,52.6,0,0,0-7.07,1,93.36,93.36,0,0,0-13.69,4.12c-2.22.85-4.41,1.81-6.67,2.57a20,20,0,0,1-7,1.29,10.48,10.48,0,0,1-6.58-2.45,15.21,15.21,0,0,1-4-5.83c-1.85-4.43-2.4-9.23-3.22-13.91-1.53-9.42-2.69-18.89-3.6-28.39-1.84-19-2.74-38.06-3.87-57.11L445,172l-.52-7.14a19.28,19.28,0,0,0-1.33-7,6,6,0,0,0-2.34-2.63,7.82,7.82,0,0,0-3.41-.95,40.56,40.56,0,0,0-7.12.58c-4.73.57-9.49,1-14.24,1.4s-9.51.8-14.27,1.09a12.06,12.06,0,0,1-3.54-.38,5.41,5.41,0,0,1-2.95-1.9,9.47,9.47,0,0,1-1.49-3.22c-.33-1.15-.57-2.32-.81-3.49a25.8,25.8,0,0,0-.92-3.45,10.55,10.55,0,0,0-1.8-3.07,12.41,12.41,0,0,0-5.81-4,18.68,18.68,0,0,0-13.88,1.45,27.54,27.54,0,0,0-10.42,9.57A39.27,39.27,0,0,0,355,162.09a49.93,49.93,0,0,0-1,7.09c-.12,2.37.21,4.78-.33,7.13a5.53,5.53,0,0,1-1.81,3,7.77,7.77,0,0,1-3.28,1.34,35.33,35.33,0,0,1-7.12.47c-2.39,0-4.77-.16-7.15-.29s-4.77-.3-7.15-.2l-14.29.76-14.29.75a31.56,31.56,0,0,1-7.14-.21,15.14,15.14,0,0,1-6.48-2.89,30.87,30.87,0,0,1-5.12-5c-1.52-1.83-3-3.71-4.36-5.67a83.82,83.82,0,0,1-12.18-25.75c-1.27-4.59-2.21-9.28-3.48-13.88a46.48,46.48,0,0,0-5.47-13.16,24.87,24.87,0,0,0-10.72-9.17,40.37,40.37,0,0,0-13.87-3.19A115.65,115.65,0,0,0,215.5,103.34Z"/><path d="M103.16,78.22a35,35,0,0,0-1,8.89A30.23,30.23,0,0,1,101,96.05a15.1,15.1,0,0,1-2.07,4.13,9.41,9.41,0,0,1-3.67,3,9.15,9.15,0,0,1-2.37.71,9.8,9.8,0,0,1-2.48,0,11.83,11.83,0,0,1-4.65-1.64A14.28,14.28,0,0,1,82,99.06a18.19,18.19,0,0,1-2.5-4.23,39.74,39.74,0,0,1-2.41-9.09c-.48-3-1-6.22-.24-9.78a12,12,0,0,1,2.44-5,28.13,28.13,0,0,1,3.59-3.37,32.09,32.09,0,0,0,3.08-2.83c1-1,1.93-2.1,2.87-3.22l2.91-3.44c.51-.57,1-1.15,1.55-1.72l.83-.85c.32-.32.64-.62,1-.89A29,29,0,0,1,103.47,50a23,23,0,0,1,4.67-1.18,13.15,13.15,0,0,1,5,.14,7.09,7.09,0,0,1,4.31,2.9,9.63,9.63,0,0,1,1.41,4.7,8.14,8.14,0,0,1-1.14,4.67,19.37,19.37,0,0,1-2.82,3.63c-2.09,2.18-4.4,4.09-6.54,6.17S104.1,75.34,103.16,78.22Zm0,0a12.91,12.91,0,0,1,2.12-3.93,36.56,36.56,0,0,1,2.94-3.4c2.07-2.17,4.27-4.21,6.16-6.51a17.09,17.09,0,0,0,2.37-3.66,6.8,6.8,0,0,0,.59-4A7.49,7.49,0,0,0,115.83,53a4.79,4.79,0,0,0-3.19-1.63c-2.54-.3-5.32.63-7.83,1.81A26.66,26.66,0,0,0,98,57.86c-3.62,3.88-6.83,9.55-11.91,13.58a23.47,23.47,0,0,0-3,2.72,7.33,7.33,0,0,0-1.56,3c-.63,2.3-.44,5.13-.16,8.07a38.49,38.49,0,0,0,1.4,8.41,12.73,12.73,0,0,0,4.36,6.64,8.11,8.11,0,0,0,7.55,1.59c2.6-.88,4.57-3.32,5.66-6A26.29,26.29,0,0,0,102,87.1,39.08,39.08,0,0,1,103.16,78.22Z"/></svg>