<svg id="Layer_1" data-name="Layer 1" xmlns="http://www.w3.org/2000/svg" viewBox="0 0 600 600"><title>Argentina</title><path d="M227.38,158.92c-2.78,6.41-4.49,13.27-7.08,19.76a146,146,0,0,0-6,19.88,62.55,62.55,0,0,0-1,20.22c.7,6.78,2.1,13.67,2.57,21,1,14.55-1,29-3.11,42.83l-6.25,41.53-3.12,20.76c-.52,3.45-1,6.86-1.46,10.21a47.44,47.44,0,0,1-1,4.91c-.36,1.62-.7,3.23-1,4.83-.62,3.2-1.12,6.38-1.44,9.53s-.49,6.36-.54,9.7c-.13,6.66.1,13.7-.07,21-.08,3.65-.29,7.38-.7,11.14a83.37,83.37,0,0,1-2,11.22A87.85,87.85,0,0,1,181.26,458c-2.09,3-4.17,5.67-5.77,8.33a24.62,24.62,0,0,0-2,3.91,9.35,9.35,0,0,0-.68,3.81c0,.3.07.63.11.89a2.45,2.45,0,0,0,.22.54,6.37,6.37,0,0,0,.74,1.09,7.58,7.58,0,0,0,2.33,1.72,3.27,3.27,0,0,0,1.13.36c.3,0,.47-.1.4-.24s-.38-.32-.75-.37a3,3,0,0,0-.52,0c-.09,0-.1,0,.06-.06s.46-.2,1-.4a10.57,10.57,0,0,1,2.84-.57,9.71,9.71,0,0,1,3,.29,9.28,9.28,0,0,1,3.42,1.69,9.51,9.51,0,0,1,2.16,2.38,9.77,9.77,0,0,1,.95,1.91,9.93,9.93,0,0,1,.42,1.38,10.7,10.7,0,0,1,.23,1.27,16.14,16.14,0,0,1,.05,2.75c0,.22,0,.45,0,.68a6.82,6.82,0,0,0,.35,2,3.88,3.88,0,0,0,.91,1.47,8,8,0,0,0,2.13,1.71,28.41,28.41,0,0,0,7.52,2.87c1.46.37,3,.68,4.59.95l2.41.37,1.59.23,1.56.27c4,.83,7.34,2,10.36,2.69a26.38,26.38,0,0,0,4.17.73,5.86,5.86,0,0,0,.92.05,4.9,4.9,0,0,0,.86,0h.41l.24,0c.15,0,.39,0,.41,0,.2,0,.24,0,.26,0l.05,0s0,0,0,0,.06,0,.08,0a.53.53,0,0,1,.08-.15,6.85,6.85,0,0,0,.46-3,37.63,37.63,0,0,0-.37-4.67l-.34-2.75a30.27,30.27,0,0,1-.14-3.18,20.76,20.76,0,0,1,1.13-6.63,15.14,15.14,0,0,1,3.85-6,16.66,16.66,0,0,1,5.8-3.54c.51-.17,1-.36,1.52-.5l1.53-.36c.79-.17,1.49-.35,2.19-.57a8.43,8.43,0,0,0,3.19-1.62,1.85,1.85,0,0,0,.56-.84c.05-.06,0-.15.06-.23a.68.68,0,0,0,0-.26v-.14a1.23,1.23,0,0,0,0-.24v-.71a11.27,11.27,0,0,1,.47-3.67,6.55,6.55,0,0,1,1.23-2.22,7.22,7.22,0,0,1,2-1.59,10.14,10.14,0,0,1,3.67-1.06c1.06-.11,1.78-.16,2.55-.27a23.22,23.22,0,0,0,4.48-1,12,12,0,0,0,3.6-2,5.32,5.32,0,0,0,1.11-1.26,6.81,6.81,0,0,0,.45-.87l.46-1c.3-.64.41-1.34.64-2s.21-1.37.34-2a16.59,16.59,0,0,0-1.63-8.28,27.38,27.38,0,0,0-5-7.57,41.11,41.11,0,0,0-3.4-3.2c-.61-.5-1.22-1-1.87-1.41s-1.26-.9-1.91-1.3l-.49-.3-.24-.16-.38-.27c-.48-.36-.93-.7-1.36-1.05-.86-.69-1.67-1.37-2.46-2.1a37,37,0,0,1-4.51-4.91,28.62,28.62,0,0,1-2-3.18,18.87,18.87,0,0,1-1.74-4.24,15.92,15.92,0,0,1-.49-6.34,15.26,15.26,0,0,1,1.12-4.06,14.87,14.87,0,0,1,2.39-3.75,8.87,8.87,0,0,1,.81-.85c.31-.29.63-.57,1-.84a14,14,0,0,1,1.82-1.28c.29-.17.64-.38.89-.5l.78-.37L252,392c.27-.11.46-.17.7-.25a23.11,23.11,0,0,1,4.58-1.1,31.46,31.46,0,0,1,6-.27c.68,0,1.29.06,1.32.18s-.14.09-.1.12H265l.89,0a27.44,27.44,0,0,0,3.15-.26,9.15,9.15,0,0,0,1.24-.28,4.36,4.36,0,0,0,2.73-2.22c.57-1.05,1.18-2.63,2-4.54a30.18,30.18,0,0,1,1.42-3.07,20.72,20.72,0,0,1,2-3.06,23.4,23.4,0,0,1,4.87-4.51c1.64-1.2,3.28-2.11,4.76-3.05a34.09,34.09,0,0,0,4-2.86,17.17,17.17,0,0,0,1.6-1.59c.24-.28.44-.57.67-.85s.35-.56.53-.84a4,4,0,0,0,.47-3.26,4.14,4.14,0,0,0-2.36-2.28,12.27,12.27,0,0,0-3.84-.87l-2.5-.5c-.84-.2-1.69-.42-2.55-.69a29.69,29.69,0,0,1-5.19-2.19,30.39,30.39,0,0,1-5.29-3.5,25.89,25.89,0,0,1-2.6-2.47c-.43-.43-.84-1-1.25-1.47l-.36-.46-.42-.59c-.27-.4-.53-.8-.77-1.22a16.44,16.44,0,0,1-2-5.57,14.21,14.21,0,0,1,.6-6.94,13.52,13.52,0,0,1,4.28-6,15,15,0,0,1,5.48-2.74,15.28,15.28,0,0,1,2.74-.48c.45,0,.91-.06,1.37-.06l.75,0c1,0,1.92.07,2.87.12,3.77.25,7.37.7,10.84,1.17s6.83.95,10.1,1.26l1.22.11,1.21.1c.76.06,1.42.08,2,.08A9.38,9.38,0,0,0,311,325l.43-.07.17,0,.07,0s0,0,.17-.08c2.09-1.19,3.62-1.81,4.54-2.36.44-.26.72-.46.83-.54s0-.08.1-.09,0,0,0,.05,0,.06,0,.1c0,.21,0,.34,0,.12a6.59,6.59,0,0,0-.44-1.41c-.25-.67-.69-1.55-1.1-2.62a14.5,14.5,0,0,1-1-4.11c0-.43-.06-.85,0-1.3s.07-.91.13-1.36a8.76,8.76,0,0,1,.31-1.43c.13-.46.29-.86.45-1.28a15.67,15.67,0,0,1,2.31-3.67,23.3,23.3,0,0,1,5.31-4.7,17.69,17.69,0,0,1,7.36-2.73,26.55,26.55,0,0,1,7.06.18c2,.29,3.68.62,5,.75a9.41,9.41,0,0,0,3.2-.14A16.33,16.33,0,0,0,349,296.9c1.26-.65,2.68-1.48,4.36-2.39a37.25,37.25,0,0,1,5.91-2.7,55.1,55.1,0,0,1,6.05-1.64c3.69-.81,6.71-1.48,8.47-2.45a5.07,5.07,0,0,0,.62-.35,3.48,3.48,0,0,0,.52-.38c.15-.13.31-.25.47-.37s.28-.3.43-.44a2.18,2.18,0,0,0,.4-.45c.13-.17.27-.3.39-.48a11.15,11.15,0,0,0,.69-1.12,16.33,16.33,0,0,0,1.78-5.82,21.33,21.33,0,0,0-.32-6.81l-.18-.81-.24-.92c-.15-.61-.38-1.25-.56-1.87a35.61,35.61,0,0,0-1.55-3.85c-1.27-2.6-3.18-5.16-4.8-8.09a36.81,36.81,0,0,1-3.71-10.16,49.77,49.77,0,0,1-.89-5.89c-.17-2-.18-4-.15-6,.07-4,.55-8,.8-11.82a85,85,0,0,0,.08-11.16c-.25-3.64-.54-7.27-.84-10.92-.56-7.29-1.44-14.74-1.53-22.41a37.12,37.12,0,0,1,1.61-13,22.48,22.48,0,0,1,1.58-3.74,23.9,23.9,0,0,1,2.34-3.7,29.77,29.77,0,0,1,5.72-5.61,51.47,51.47,0,0,1,5.2-3.47,42.85,42.85,0,0,1,4.66-2.42,44.51,44.51,0,0,1,5-1.81c1.73-.5,3.52-.89,5.3-1.3s3.6-.75,5.36-1.19,3.55-.89,5.2-1.44a41.8,41.8,0,0,0,9.06-4.29c.69-.43,1.33-.89,2-1.33s1.25-1,1.83-1.48a22,22,0,0,0,3.14-3.28,20.9,20.9,0,0,0,2.3-3.66A9.39,9.39,0,0,0,426,125c.1-.29.23-.53.32-.84l.29-.93.24-1a21,21,0,0,0,.12-8.15,6.72,6.72,0,0,0-1.2-2.84,2.47,2.47,0,0,0-1.4-1,1.81,1.81,0,0,0-1.44.08,7,7,0,0,0-1.91,1.52,29.24,29.24,0,0,0-2.67,3.33c-.95,1.32-1.94,2.78-3.2,4.41-.35.42-.62.8-1,1.25l-.59.66-.54.58-1.84,1.92c-1.25,1.29-2.57,2.61-4,3.93a45.25,45.25,0,0,1-10,7.31,27.07,27.07,0,0,1-6.67,2.47,26.82,26.82,0,0,1-14.74-1,22.2,22.2,0,0,1-7.1-4.18,18.56,18.56,0,0,1-5.23-7.69,14.46,14.46,0,0,1-.67-2.28l-.24-1.16-.13-1.13a20.21,20.21,0,0,1,0-4.4,42.65,42.65,0,0,1,1.32-6.52,16.5,16.5,0,0,0,.66-3.55,10.57,10.57,0,0,0-1.34-5.08,18.61,18.61,0,0,0-4.16-5.22c-1.82-1.58-4.44-3.31-7.61-5.54a53.19,53.19,0,0,1-4.94-4.06l-.63-.6-.47-.48-.93-.93L342.42,82c-2.44-2.42-4.8-4.81-7.19-7.06q-1.8-1.68-3.63-3.25c-.61-.53-1.22-1-1.83-1.5s-1.21-1-1.85-1.45a50.27,50.27,0,0,0-16.14-8.39,77.43,77.43,0,0,0-19.18-2.67c-1.7-.08-3.37-.09-5.16-.14-1,0-2-.07-3-.16s-2-.2-2.93-.37c-3.82-.6-7.28-1.58-10.42-2.2s-5.8-.76-8.11,0a14.77,14.77,0,0,0-6.37,5.25A72.73,72.73,0,0,0,247,77.77l-.93,2.4-.46,1.2-.4,1.22-1.61,4.92c-.93,3.33-1.9,6.65-2.68,10-1.63,6.77-2.9,13.63-4.21,20.5-2.73,13.7-4.62,27.66-9.39,40.84Zm-.09,0c4.05-13.43,5.24-27.34,7.39-41.14,1-6.92,2.1-13.84,3.47-20.73.66-3.45,1.51-6.87,2.32-10.29l1.44-5.09.36-1.27.43-1.25.86-2.51a79.43,79.43,0,0,1,9.33-19,19.85,19.85,0,0,1,8.1-7.26,20.25,20.25,0,0,1,10.79-.82c3.51.53,6.9,1.32,10.32,1.71.85.12,1.71.14,2.56.22s1.71,0,2.57,0c1.74,0,3.5-.1,5.25-.1a85.8,85.8,0,0,1,20.95,1.89A56.79,56.79,0,0,1,332.52,62a137.15,137.15,0,0,1,16,13.51c1.27,1.19,2.53,2.41,3.82,3.59a38.9,38.9,0,0,0,4.13,3.2,96.27,96.27,0,0,1,8.5,6.12,26.54,26.54,0,0,1,6.36,8.25,18.51,18.51,0,0,1,2,10.15c-.36,3.49-2,6.7-2.39,10.18a11.75,11.75,0,0,0,.46,5.17,10.31,10.31,0,0,0,2.83,4.34,16.2,16.2,0,0,0,9.51,3.93,18.64,18.64,0,0,0,10.17-1.91,39.6,39.6,0,0,0,8.62-5.91c1.32-1.14,2.6-2.33,3.86-3.54a46.14,46.14,0,0,0,3.67-3.73c2.25-2.67,4.16-5.64,6.74-8a11.33,11.33,0,0,1,4.43-2.7,8,8,0,0,1,5.13.3,8.44,8.44,0,0,1,3.95,3.3,13,13,0,0,1,1.85,4.86,25.11,25.11,0,0,1-.42,10.39,18,18,0,0,1-1.92,4.86,26,26,0,0,1-3,4.31,34,34,0,0,1-3.65,3.75,46.12,46.12,0,0,1-4.09,3.27c-2.83,2-5.83,3.85-8.84,5.61l-9.08,5.25-9.07,5.24-4.54,2.62c-1.51.88-3,1.76-4.45,2.76a22,22,0,0,0-3.94,3.45,17.79,17.79,0,0,0-2.79,4.41,40.82,40.82,0,0,0-2.72,10.09c-.63,3.44-1,6.92-1.3,10.4s-.4,7-.31,10.47a114.67,114.67,0,0,0,2.19,20.82,115.84,115.84,0,0,0,6,20.06c2.6,6.49,5.72,12.77,7.87,19.42a47.24,47.24,0,0,1,2.23,10.22,32.26,32.26,0,0,1-.73,10.41,25,25,0,0,1-4.4,9.43,18.14,18.14,0,0,1-8.37,6.06c-3.3,1.17-6.82,1.49-10.26,2a40.53,40.53,0,0,0-5.13,1,31.85,31.85,0,0,0-4.88,1.91c-3.15,1.47-6.27,3.2-9.75,3.71a17.24,17.24,0,0,1-5.22-.12c-1.73-.27-3.42-.69-5.14-1a18.24,18.24,0,0,0-5.21-.31,11.53,11.53,0,0,0-4.91,1.73,17.12,17.12,0,0,0-4,3.37,8.76,8.76,0,0,0-1.42,2.19,5.11,5.11,0,0,0-.4,2.56,17.1,17.1,0,0,0,1.64,4.94,7.84,7.84,0,0,1,.81,5.08,7.3,7.3,0,0,1-3.22,4c-1.45,1-3.05,1.7-4.53,2.63a10.78,10.78,0,0,1-4.94,1.58,45.78,45.78,0,0,1-5.24.09c-3.49-.07-7-.31-10.46-.55s-7-.47-10.47-.54c-.87,0-1.75,0-2.62,0a8.39,8.39,0,0,0-2.59.3,5.34,5.34,0,0,0-3.78,3.32,6.1,6.1,0,0,0,.78,5,18.18,18.18,0,0,0,3.58,3.8,68.68,68.68,0,0,0,8.7,5.82c2.95,1.82,6.18,3.43,8.35,6.23a9.41,9.41,0,0,1,2,4.76,8.79,8.79,0,0,1-1.1,5c-3.51,6.22-10.81,8.91-14.43,15-1.87,3-2.1,6.64-3.08,10a13.61,13.61,0,0,1-2.31,4.67,14.35,14.35,0,0,1-3.91,3.45,22.22,22.22,0,0,1-4.76,2.16,21.82,21.82,0,0,1-2.52.69,22.84,22.84,0,0,1-2.61.26c-1.74.09-3.49.12-5.23.33a13.24,13.24,0,0,0-2.56.53,5.16,5.16,0,0,0-2.23,1.31,4.49,4.49,0,0,0-1.11,2.33,7.35,7.35,0,0,0,.12,2.6,16.91,16.91,0,0,0,2,4.82,36.72,36.72,0,0,0,6.54,8.15,52.14,52.14,0,0,1,6.72,8,38,38,0,0,1,4.7,9.32,21.9,21.9,0,0,1,1,10.34c-.21.84-.34,1.71-.62,2.54a25.68,25.68,0,0,1-1,2.43c-.44.75-.81,1.55-1.31,2.26a8.77,8.77,0,0,1-1.82,1.88,20.55,20.55,0,0,1-9.71,3.61c-1.71.28-3.54.14-5.12,1a3.31,3.31,0,0,0-1.63,2,8,8,0,0,0-.26,2.59,8.11,8.11,0,0,1-.2,2.6,5.36,5.36,0,0,1-1.31,2.24,11.27,11.27,0,0,1-4.47,2.64c-1.64.61-3.39.86-5,1.56a13,13,0,0,0-4.35,2.86,11,11,0,0,0-2.64,4.46,15.34,15.34,0,0,0-.64,5.17,31.44,31.44,0,0,0,.71,5.19,47.54,47.54,0,0,1,.76,5.18,13,13,0,0,1-.47,5.18,6,6,0,0,1-3.46,3.71,13.65,13.65,0,0,1-5.15.79,31.41,31.41,0,0,1-5.21-.53c-3.44-.61-6.82-1.54-10.27-2.06-1.73-.28-3.48-.31-5.22-.48s-3.47-.37-5.2-.66a35.33,35.33,0,0,1-10-3A14.51,14.51,0,0,1,183,494.7a13.76,13.76,0,0,1-1-5.11v-1.31a8.06,8.06,0,0,0,0-1.3,1.82,1.82,0,0,0-.51-1.16,1.3,1.3,0,0,0-1.23,0,9.17,9.17,0,0,1-2.52.7,6.52,6.52,0,0,1-2.59-.33,10.6,10.6,0,0,1-4.25-3,12.14,12.14,0,0,1-3.34-9.6,24.6,24.6,0,0,1,3.52-9.79c1.76-3,3.85-5.84,5.8-8.74a77.64,77.64,0,0,0,11.95-28.84,89.41,89.41,0,0,0,1.39-20.86c-.24-7-.9-13.94-1.17-20.93-.14-3.49-.17-7,0-10.48s.5-7,1-10.43c.92-6.93,2.34-13.78,3.76-20.62L198,322.34l8.54-41c2.83-13.66,5.54-27.48,5.33-41.48-.07-7-1.07-13.93-1.39-20.91a66.69,66.69,0,0,1,.23-10.48,74.71,74.71,0,0,1,1.85-10.31,149.05,149.05,0,0,1,6.87-19.8l4-9.67c.66-1.62,1.33-3.23,2-4.86s1.19-3.29,1.77-4.93Z"/><path d="M241.72,545.14A12.5,12.5,0,0,1,238.3,543a13.91,13.91,0,0,1-2.52-3.18,32.13,32.13,0,0,1-2.86-7.66l-1-3.94a33.68,33.68,0,0,1-1-4.12,13.21,13.21,0,0,1-.15-2.3,14.1,14.1,0,0,1,.3-2.36A8.83,8.83,0,0,1,232,517a5.86,5.86,0,0,1,2.22-2.3,6.39,6.39,0,0,1,3.25-.84,10.55,10.55,0,0,1,2.82.39,20.32,20.32,0,0,1,4.45,1.87,57.64,57.64,0,0,1,7.14,4.8l1.56,1.17c.25.19.48.34.69.49l.66.41c1.05.67,2.13,1.27,3.21,1.88q3.24,1.82,6.63,3.31c2.25,1,4.55,1.9,6.89,2.68,1.14.39,2.47.79,4,1.37a16.47,16.47,0,0,1,4.77,2.69,11.06,11.06,0,0,1,3.58,5.28,10.2,10.2,0,0,1,.33,1.75,12.27,12.27,0,0,1,0,1.61,11.65,11.65,0,0,1-.27,1.62,10.58,10.58,0,0,1-.59,1.63,8.51,8.51,0,0,1-.93,1.47c-.17.22-.36.44-.55.65l-.6.54A10,10,0,0,1,278.7,551a15.67,15.67,0,0,1-4.78,1,38.26,38.26,0,0,1-8.59-.59c-2.74-.45-5.42-1-8.06-1.7-1.33-.32-2.64-.69-3.95-1s-2.58-.78-3.89-1.13A73.32,73.32,0,0,1,241.72,545.14Zm0,0a42.65,42.65,0,0,0,7.79,2.09c1.31.25,2.67.46,4,.7s2.66.34,4,.45a54.67,54.67,0,0,0,8,0,32,32,0,0,0,7.53-1.35,9.86,9.86,0,0,0,2.87-1.43,2,2,0,0,0,.91-1.49c0-.11,0-.21,0-.31s0-.24-.08-.39a3.75,3.75,0,0,0-.14-.41,1.21,1.21,0,0,0-.14-.2,4.9,4.9,0,0,0-1.32-1,12.46,12.46,0,0,0-2.47-.84c-1-.27-2.33-.48-3.77-.85a48.6,48.6,0,0,1-8.29-2.85,49.63,49.63,0,0,1-7.65-4.24c-1.21-.82-2.37-1.7-3.5-2.62l-.43-.34-.53-.45c-.31-.28-.6-.56-.86-.82l-1.46-1.51c-1.84-2-3.55-3.85-5.33-5.46a17.34,17.34,0,0,0-2.62-2,4,4,0,0,0-1.77-.69c-.37-.08-1.07.54-1.56,1.54a8.59,8.59,0,0,0-.94,3.29,25.65,25.65,0,0,0,.06,3.9c.1,1.35.15,2.7.3,4a23.91,23.91,0,0,0,1.82,7.75,11.78,11.78,0,0,0,2.28,3.28A11.4,11.4,0,0,0,241.72,545.14Z"/></svg>