<svg id="Layer_1" data-name="Layer 1" xmlns="http://www.w3.org/2000/svg" viewBox="0 0 600 600"><title>armenia</title><path d="M137.4,85.15c9.08-3.44,15.92-10.69,24.93-14.59a74.38,74.38,0,0,1,28.32-7,73.24,73.24,0,0,1,14.78.8c2.45.39,4.89.91,7.29,1.52l7,1.86A47.05,47.05,0,0,0,226.35,69a24.14,24.14,0,0,0,6.36-.18,41.78,41.78,0,0,0,12.41-4.53c4-2.12,8.18-4.64,12.43-7s8.59-4.76,13.19-6.83c2.29-1,4.68-2,7.1-2.87a75.71,75.71,0,0,1,7.51-2.19,55,55,0,0,1,7.94-1.26c1.38-.15,2.76-.13,4.14-.17s2.77.07,4.14.23a48.21,48.21,0,0,1,8.2,1.49,44.07,44.07,0,0,1,7.94,3.09,36.81,36.81,0,0,1,10.65,8c.51.57,1,1.19,1.47,1.79l.72.92.65,1c.42.66.86,1.32,1.25,2l1.07,2.11a31,31,0,0,1,1.69,4.29,69.45,69.45,0,0,1,1.92,8c.47,2.45.88,4.68,1.39,6.62a19.45,19.45,0,0,0,1.81,4.77,7.94,7.94,0,0,0,.55.86c.18.29.44.52.63.78l.31.4.38.34c.27.23.47.49.76.7a20.7,20.7,0,0,0,4.08,2.5,54.72,54.72,0,0,0,5.59,2.15c2.09.68,4.31,1.35,6.69,2.08s4.86,1.53,7.51,2.61a47.32,47.32,0,0,1,8.14,4.09,40.08,40.08,0,0,1,13,14.4,46.81,46.81,0,0,1,5.38,18,46.2,46.2,0,0,1-2.09,18.83,40.32,40.32,0,0,1-10.75,16.93c-2.45,2.29-4.63,3.82-6.16,5.1a11.51,11.51,0,0,0-2.77,2.79,5.45,5.45,0,0,0-.9,2.22,11.48,11.48,0,0,0-.19,1.47,16.89,16.89,0,0,0,.09,1.82c0,.63.22,1.36.32,2.06s.36,1.47.66,2.24a29,29,0,0,0,2,4.69,37.71,37.71,0,0,0,2.86,4.56l.81,1.08.95,1.17c.63.81,1.33,1.56,2,2.34a76.43,76.43,0,0,0,8.91,8.44,74.3,74.3,0,0,0,10.15,6.85c1.77,1,3.59,1.92,5.42,2.8s3.7,1.64,5.75,2.41c4,1.54,8.5,3.05,13.25,4.76a106.34,106.34,0,0,1,14.94,6.53c1.28.65,2.57,1.48,3.85,2.23s2.56,1.66,3.8,2.61,2.48,1.91,3.66,3c.59.54,1.2,1,1.76,1.62l1.65,1.72a47.36,47.36,0,0,1,10.32,16.69,42.85,42.85,0,0,1,1.76,19.63A20.25,20.25,0,0,1,465,286l-.5,2.31q-.6,2.27-1.35,4.44c-.58,1.41-1.1,2.85-1.74,4.19l-1,2a21.3,21.3,0,0,1-1,1.95c-.75,1.25-1.44,2.54-2.28,3.71l-1.2,1.77-.3.45-.38.51c-.26.35-.51.7-.77,1a34.42,34.42,0,0,1-7.26,6.86,45.81,45.81,0,0,1-7.69,4.41c-.62.3-1.23.58-1.84.85l-.91.41-1.26.5c-.42.16-.85.33-1.27.47l-1.22.36a22.15,22.15,0,0,1-2.38.58,68.94,68.94,0,0,1-8.16,1,56,56,0,0,0-6.18.7,9.53,9.53,0,0,0-3.53,1.35c-.18.14-.32.31-.51.43a3.48,3.48,0,0,0-.47.53,5.89,5.89,0,0,0-.7,1.37,5.77,5.77,0,0,0-.27,3,6.79,6.79,0,0,0,1.5,3,12.59,12.59,0,0,0,3.43,2.85c.34.2.7.38,1.06.56l1.3.58c.9.37,1.81.74,2.79,1.06,3.9,1.31,8.42,2.22,13.33,3.49a75,75,0,0,1,7.61,2.32c1.31.51,2.61,1,3.93,1.66.65.28,1.3.65,2,1l1,.52.87.52a83.81,83.81,0,0,1,12.67,9.37c3.82,3.33,7.31,6.72,10.75,9.89a109.64,109.64,0,0,0,10.32,8.71,4.26,4.26,0,0,0,.48.33l.36.25c.22.08.44.27.63.31A2.89,2.89,0,0,0,486,378a17.92,17.92,0,0,0,5.08-1.14c1.2-.36,2.47-.77,3.94-1.1.7-.17,1.54-.32,2.22-.44l2-.28a34.76,34.76,0,0,1,4.42-.29,18,18,0,0,1,5.45.78,17.14,17.14,0,0,1,4.84,2.56c1.24.92,2.24,1.79,3.15,2.58l2.67,2.31.68.53a4.69,4.69,0,0,0,.81.41,20.25,20.25,0,0,0,5.55,1.13,42.63,42.63,0,0,1,8.16,1.41,17.2,17.2,0,0,1,2.39.95c.4.21.8.38,1.2.63s.79.52,1.17.79a16,16,0,0,1,2.12,1.92,13.72,13.72,0,0,1,1.67,2.32,12.84,12.84,0,0,1,1.66,5.68,14.69,14.69,0,0,1-.81,5.34,22.81,22.81,0,0,1-4.73,7.73,34.79,34.79,0,0,1-9.83,7.64L526.47,421a46.27,46.27,0,0,0-5.71,3.23,13.07,13.07,0,0,0-3.87,3.83,7.06,7.06,0,0,0-.88,2.09,8.61,8.61,0,0,0-.21,2.34,8,8,0,0,0,.52,2.19,8.47,8.47,0,0,0,1.26,2,12.06,12.06,0,0,0,4.3,3.21c.82.36,1.91.75,3,1.11l3.43,1.11c1.19.39,2.42.83,3.67,1.35.63.27,1.26.55,1.89.87.32.15.63.33.95.5s.67.41,1,.61a19.72,19.72,0,0,1,6.22,6.62,13.2,13.2,0,0,1,1.68,4.84,10.45,10.45,0,0,1-.9,5.88c-.24.45-.49.89-.76,1.32s-.6.76-.91,1.13a11.08,11.08,0,0,1-2.19,1.87,15,15,0,0,1-4.65,1.9c-1.43.34-2.71.53-3.84.72a14,14,0,0,0-2.8.71c-.18.07-.31.15-.47.21l-.37.22a4.92,4.92,0,0,0-.72.58,2.35,2.35,0,0,0-.65,1.11,4.26,4.26,0,0,0-.09,1.67,13.68,13.68,0,0,0,.58,2.44,39.86,39.86,0,0,0,2.56,5.73c1.08,2,2.29,4,3.53,6.3a37.4,37.4,0,0,1,1.83,3.87c.15.35.29.8.43,1.21l.31.92.58,1.71c.78,2.3,1.56,4.65,2.29,7.07a89,89,0,0,1,3.44,15.4,50.08,50.08,0,0,1,.23,8.72,31,31,0,0,1-2.1,9.7,19.78,19.78,0,0,1-1.29,2.68c-.26.46-.5.9-.81,1.36s-.65.91-1,1.36a19.33,19.33,0,0,1-5.38,4.71,21.28,21.28,0,0,1-6.35,2.46,23.59,23.59,0,0,1-5.6.5A41.84,41.84,0,0,1,514,550c-.7-.09-1.38-.47-2-.52s-1.35,0-2,0c-2.63.12-5.08.65-7.08.5a27.09,27.09,0,0,0-4.93-.21,6.86,6.86,0,0,0-1.43.23c-.17.07-.24.07-.46.17s-.42.17-.68.3a33.91,33.91,0,0,0-4.3,2.68c-1.77,1.22-3.78,2.72-6.31,4.34a45.58,45.58,0,0,1-4.36,2.46l-1.33.6c-.46.19-.85.39-1.4.57l-1.56.52a12.75,12.75,0,0,1-1.66.46c-.6.13-1.21.24-1.82.35l-.91.15c-.32,0-.67,0-1,.07a20.56,20.56,0,0,1-4.07-.06,19.55,19.55,0,0,1-4-.81,22.92,22.92,0,0,1-3.82-1.47,24.7,24.7,0,0,1-6.09-4.37,34.28,34.28,0,0,1-3.82-4.48c-.52-.71-.94-1.36-1.37-2s-.86-1.33-1.26-2c-.76-1.37-1.56-2.74-2.2-4.13a72.61,72.61,0,0,1-5.52-16.68A149.91,149.91,0,0,1,436.16,511c-1-9.91-1.56-19.07-3.4-26.52a36.54,36.54,0,0,0-3.7-9.58,22.38,22.38,0,0,0-2.65-3.61,32.55,32.55,0,0,0-3.81-3.57c-1.58-1.31-3.4-2.75-5.4-4.35a83,83,0,0,1-6.49-5.67,39.26,39.26,0,0,1-6.7-8.48A27.38,27.38,0,0,1,400.32,437a25.36,25.36,0,0,1,.5-6.14c.23-.92.46-1.83.73-2.68s.58-1.67.92-2.38a54.6,54.6,0,0,1,4.11-7.36,29.7,29.7,0,0,0,2.87-5.45,8.23,8.23,0,0,0,.35-1.18c.09-.39.12-.66.19-1a9.4,9.4,0,0,0-.05-2,10.2,10.2,0,0,0-1.46-4,14.86,14.86,0,0,0-3.13-3.48,17.6,17.6,0,0,0-8.53-3.6,15.49,15.49,0,0,0-3.87,0,11.78,11.78,0,0,0-3.06.94,27.54,27.54,0,0,0-4.3,2.74c-1.79,1.29-3.88,3-6.59,4.64-.68.41-1.4.82-2.14,1.22s-1.53.75-2.3,1.1-1.59.65-2.39.94-1.63.53-2.46.75a33.81,33.81,0,0,1-10,1,36.24,36.24,0,0,1-9.43-1.67,42.18,42.18,0,0,1-8.34-3.61,52.7,52.7,0,0,1-22.29-25.33c-1.17-3-1.58-4.65-2.43-6.62a30,30,0,0,0-2.72-5.24,17.21,17.21,0,0,0-3.39-3.89,10,10,0,0,0-4-2c-2.93-.7-6.76.2-10.4,2.16-.91.49-1.8,1.05-2.7,1.63l-1.32.92c-.45.31-.95.68-1.41,1-1.9,1.43-3.86,2.92-6,4.39a60.72,60.72,0,0,1-6.77,4.17,32.54,32.54,0,0,1-8.2,3,24.36,24.36,0,0,1-9.48.09,26.9,26.9,0,0,1-8.58-3.41,50.85,50.85,0,0,1-6.68-4.92c-2-1.73-3.78-3.41-5.6-5.15q-5.4-5.22-10.31-10.93c-3.27-3.8-6.36-7.77-9.28-11.86s-5.54-8.09-8.23-11.74a61.13,61.13,0,0,0-8.39-9.6,36.91,36.91,0,0,0-4.58-3.43,32,32,0,0,0-5.09-2.49c-7.24-2.82-16.06-3.46-25.46-3.78-9.56-.4-19.2-.76-28.79-1.23-4.79-.3-9.59-.55-14.38-1l-7.19-.57-3.6-.31c-1.23-.11-2.54-.24-3.87-.39a54.13,54.13,0,0,1-8.54-1.62,30.36,30.36,0,0,1-9.25-4.29A22.76,22.76,0,0,1,89,299.83a25.89,25.89,0,0,1-3.23-4.45,30.2,30.2,0,0,1-3.22-9.55c-1-6.12-.51-11.3-.34-16.05.1-2.33.18-4.59.14-6.67a30.64,30.64,0,0,0-.58-5.77c-.68-3.68-2.41-7.72-4.35-11.95a137.91,137.91,0,0,1-6-14A33.36,33.36,0,0,1,70,213.94a29.73,29.73,0,0,1,3.24-8.32A50,50,0,0,1,77.85,199c3.26-4,6.58-7.36,9.2-10.85a32.8,32.8,0,0,0,3.35-5.34,32.39,32.39,0,0,0,2.22-5.87,37.47,37.47,0,0,0,1-12.85,51.49,51.49,0,0,0-3-13.06,67.71,67.71,0,0,0-14.69-23.17c-3.22-3.33-7-6.47-10.28-10.26a32,32,0,0,1-4.34-6.25c-.32-.56-.56-1.17-.83-1.75l-.68-1.77c-.21-.6-.38-1.22-.57-1.82s-.29-1.26-.43-1.89a11.72,11.72,0,0,1,1-7.87,10.25,10.25,0,0,1,2.69-3,14.56,14.56,0,0,1,3.4-1.83,30.42,30.42,0,0,1,7.23-1.67,68.32,68.32,0,0,1,7.27-.43c9.65,0,19.24.64,28.84.69s19.31-1,28.22-4.71Zm0,.09c-8.75,4.09-18.58,5.48-28.21,5.81-4.83.21-9.65.14-14.45.11s-9.6-.07-14.34.09a65.52,65.52,0,0,0-7,.54,28,28,0,0,0-6.64,1.66A12.92,12.92,0,0,0,64,95a7.87,7.87,0,0,0-2,2.31,9.2,9.2,0,0,0-.63,6.19,24.12,24.12,0,0,0,2.4,6.39,29,29,0,0,0,4.11,5.57c3.17,3.46,7,6.43,10.45,9.83a71.6,71.6,0,0,1,16.26,24,56.29,56.29,0,0,1,3.74,14.09A42.17,42.17,0,0,1,97.6,178a37,37,0,0,1-6,13.25c-2.8,4-6.09,7.5-9,11.29s-5.45,7.92-6.35,12.58a26.5,26.5,0,0,0,1.58,14c3.25,9,9.11,17,11.42,26.43s0,19.27,1.61,28.74A22,22,0,0,0,93.21,291a17.52,17.52,0,0,0,2.16,2.85,14.35,14.35,0,0,0,2.68,2.36c4,2.71,8.91,3.58,13.65,4s9.59.61,14.38.92l14.39.84,28.78,1.71c4.8.29,9.6.65,14.35,1.39a59,59,0,0,1,13.88,3.75,39.44,39.44,0,0,1,6.35,3.38,42.63,42.63,0,0,1,5.62,4.5,70,70,0,0,1,9.11,11.13c2.72,4,5.23,8.07,7.9,12.06s5.54,7.86,8.57,11.58,6.23,7.32,9.6,10.76,6.78,6.85,10.87,9.4a21.07,21.07,0,0,0,6.62,2.77,18.75,18.75,0,0,0,7.16,0c4.74-.93,9-3.4,13-6.06,2-1.35,3.93-2.77,5.88-4.18a53.32,53.32,0,0,1,6-3.92,29.33,29.33,0,0,1,6.66-2.69,18,18,0,0,1,7.15-.47,15.85,15.85,0,0,1,6.63,2.65,22.18,22.18,0,0,1,5.11,5,36.12,36.12,0,0,1,3.72,6.17c1.07,2.15,1.86,4.43,2.84,6.62a43.51,43.51,0,0,0,19.66,20.36,31.84,31.84,0,0,0,13.84,3.53,24.28,24.28,0,0,0,13.64-4c4-2.6,7.47-6.09,11.81-8.22a19.07,19.07,0,0,1,6.91-1.89,23.28,23.28,0,0,1,7.15.64,27.2,27.2,0,0,1,12.36,7.08,22.62,22.62,0,0,1,6.62,12.52,19.16,19.16,0,0,1-.27,7.16,55.86,55.86,0,0,1-2,6.92c-.77,2.27-1.57,4.54-2.14,6.87a21,21,0,0,0-.62,7.15,17.39,17.39,0,0,0,2.26,6.78,25.83,25.83,0,0,0,4.53,5.57c3.47,3.34,7.45,6.07,11.17,9.1a40.3,40.3,0,0,1,9.6,10.65,44.94,44.94,0,0,1,3.15,6.47,57,57,0,0,1,2.14,6.88c2.29,9.36,2.69,19,3.58,28.58A143.13,143.13,0,0,0,451.55,524a58.89,58.89,0,0,0,4.31,13.71c.47,1.11,1.09,2.14,1.64,3.21s1.24,2.06,1.93,3a14.94,14.94,0,0,0,5.18,4.91,10.9,10.9,0,0,0,3.44,1,10.46,10.46,0,0,0,3.57-.21,22,22,0,0,0,6.54-2.93c4.1-2.51,7.85-5.6,12.26-7.56a18,18,0,0,1,7-1.58,38.43,38.43,0,0,1,7.18.5c4.75.69,9.43,2,14.25,2.08a13.62,13.62,0,0,0,7-1.41,11,11,0,0,0,4.64-5.34,24.45,24.45,0,0,0,1.83-6.94,42.11,42.11,0,0,0,.26-7.19,86.76,86.76,0,0,0-2.11-14.24c-.51-2.35-1.08-4.68-1.66-7-.31-1.17-.55-2.34-.92-3.49s-.85-2.24-1.34-3.34c-2-4.37-4.32-8.62-5.51-13.3a11.75,11.75,0,0,1,0-7.09,8.2,8.2,0,0,1,5.25-4.59c2.3-.74,4.73-.83,7.07-1.36a10.68,10.68,0,0,0,3.34-1.29,6.65,6.65,0,0,0,1.38-1.15l.58-.69.45-.78a7.34,7.34,0,0,0-.64-6.88,15.5,15.5,0,0,0-4.89-5.2c-4.1-2.59-9-3.39-13.37-5.3a16.4,16.4,0,0,1-5.76-4.24,12.77,12.77,0,0,1-1.91-3,11.94,11.94,0,0,1-.87-3.48,11.78,11.78,0,0,1,1.6-6.91,17.64,17.64,0,0,1,5-5.15,49.06,49.06,0,0,1,6.19-3.69,46.47,46.47,0,0,0,6.26-3.55,30.2,30.2,0,0,0,5.33-4.83,18.4,18.4,0,0,0,3.64-6.16,10,10,0,0,0,.49-3.55,7.77,7.77,0,0,0-1-3.41,9.46,9.46,0,0,0-5.67-4.14c-4.64-1.32-9.63-.61-14.2-2.25-2.33-.75-4.05-2.56-5.93-4s-3.71-3.13-6-3.85a17.06,17.06,0,0,0-7.15-.08,35.48,35.48,0,0,0-3.53.69c-1.17.29-2.31.68-3.45,1.06a24.39,24.39,0,0,1-7,1.68,10.88,10.88,0,0,1-6.74-2.16,113,113,0,0,1-11.25-9c-7.17-6.37-14.1-13.17-22.48-18a49.82,49.82,0,0,0-13.42-5.11c-4.65-1.2-9.37-2.16-13.92-3.74a36,36,0,0,1-6.57-2.92,20.48,20.48,0,0,1-5.46-4.65,14.6,14.6,0,0,1-3.08-6.44,13.61,13.61,0,0,1,.6-7.1A12.89,12.89,0,0,1,408,319.8a16.53,16.53,0,0,1,6.53-2.91c4.69-1.1,9.56-1,14.25-2.13a24.43,24.43,0,0,0,6.64-2.71,38,38,0,0,0,6-3.94,24.33,24.33,0,0,0,4.88-5.25c.68-1,1.23-2.06,1.82-3.11s1.08-2.15,1.61-3.22a41,41,0,0,0,3.72-13.84,33.6,33.6,0,0,0-1.84-14.17,35.37,35.37,0,0,0-7.73-12A44.29,44.29,0,0,0,432.35,248c-8.5-4.54-17.85-7.07-26.79-10.59a87.86,87.86,0,0,1-35.05-24.6c-1.55-1.84-3.08-3.7-4.45-5.67a49.57,49.57,0,0,1-3.71-6.18,42.09,42.09,0,0,1-2.71-6.68c-.39-1.13-.62-2.32-.91-3.48a33.1,33.1,0,0,1-.48-3.58,27,27,0,0,1,0-3.6,22.38,22.38,0,0,1,.57-3.56,17.45,17.45,0,0,1,3-6.5c2.83-4,7.22-6.32,10.75-9.54a28.73,28.73,0,0,0,7.81-11.91,36.08,36.08,0,0,0-2-27.95A29.37,29.37,0,0,0,369,113.35c-4-2.71-8.52-4.4-13-6A96.43,96.43,0,0,1,342.64,102a28.4,28.4,0,0,1-5.88-4.15c-.45-.4-.82-.88-1.24-1.32l-.6-.67-.53-.73A17.57,17.57,0,0,1,332.52,92c-2.11-4.37-2.66-9.24-3.39-14a56.41,56.41,0,0,0-1.42-7,22.25,22.25,0,0,0-1.2-3.38L325.75,66c-.28-.52-.61-1-.91-1.54l-.47-.77-.53-.72c-.37-.48-.71-1-1.1-1.43a26.47,26.47,0,0,0-2.51-2.57,29.26,29.26,0,0,0-5.85-4.15,37.7,37.7,0,0,0-6.6-2.83,42.16,42.16,0,0,0-7-1.53,43.88,43.88,0,0,0-14.32.57,73,73,0,0,0-13.75,4.21c-4.45,1.79-8.77,3.92-13,6.11s-8.48,4.53-12.83,6.57a44.42,44.42,0,0,1-13.71,4.3,26.71,26.71,0,0,1-7.2-.12,49.69,49.69,0,0,1-7-1.65L212,68.27c-2.31-.66-4.64-1.23-7-1.68a71,71,0,0,0-14.33-1.23,72.64,72.64,0,0,0-28,6,100.5,100.5,0,0,0-12.64,6.9,119.73,119.73,0,0,1-12.58,7Z"/></svg>