<svg id="Layer_1" data-name="Layer 1" xmlns="http://www.w3.org/2000/svg" viewBox="0 0 600 600"><title>australia</title><path d="M80.73,239.62c1.78-1.31,3.6-2.58,5.34-4s3.48-2.75,5.22-4.14,3.51-2.74,5.36-4,3.8-2.37,5.79-3.41c8.07-4.22,17-5.83,25.26-8.67a52.41,52.41,0,0,0,11.59-5.36c.43-.29.89-.55,1.3-.86l1.22-.95a20.93,20.93,0,0,0,2.28-2,25.84,25.84,0,0,0,3.67-4.76A39,39,0,0,0,152.1,190c.93-4.1,1.48-8.4,2.12-12.83A92.78,92.78,0,0,1,157,163.5,40.6,40.6,0,0,1,163.72,150,58.91,58.91,0,0,1,174.43,140c1.79-1.39,3.52-2.7,5.1-4a46.28,46.28,0,0,0,4.31-4c2.7-2.84,5.36-6.36,8.78-10,.86-.9,1.76-1.8,2.74-2.68.49-.45,1-.87,1.53-1.32s1.33-1,2-1.44a21.9,21.9,0,0,1,9.61-3.34,28.17,28.17,0,0,1,9.2.67,56,56,0,0,1,7.55,2.35c2.29.88,4.41,1.79,6.4,2.61a49.93,49.93,0,0,0,5.39,2c.39.1.71.16,1.07.26s.57.07.85.12.36,0,.53,0,.05,0,.07-.06.08,0,0,0a.18.18,0,0,0-.14,0l-.07,0a.66.66,0,0,0-.14,0,.54.54,0,0,0-.25.09c-.08,0-.18,0-.26.07s-.16.12-.21.13a.2.2,0,0,0-.13,0c-.07.11-.06,0,0-.07s0,0,.06-.1a2.29,2.29,0,0,1,.09-.28c0-.09.08-.17.13-.26s.08-.27.13-.4l.28-.85.26-1.1a48.58,48.58,0,0,0,.83-5.16l.2-1.66.25-1.89c.18-1.29.41-2.64.73-4a32.11,32.11,0,0,1,3.42-9.06A23.35,23.35,0,0,1,248.16,92a24.26,24.26,0,0,1,2.22-2.06,19.48,19.48,0,0,1,3.34-2.1c.56-.27,1.14-.53,1.7-.75s1-.35,1.55-.51a13.23,13.23,0,0,1,1.46-.38c.45-.1.94-.21,1.37-.28.81-.12,1.71-.27,2.4-.32l1.09-.1,1-.07,3.24-.2a10,10,0,0,0,1.61-.21c-.09,0,0,0-.42.11a1.06,1.06,0,0,0-.21.11,3.67,3.67,0,0,0-.36.17,2.25,2.25,0,0,0-.36.24,3,3,0,0,1-.39.3,3.79,3.79,0,0,0-.79.81,6.29,6.29,0,0,0-.68,1,6.7,6.7,0,0,0-.42.94c0,.15-.08.23-.11.35s-.06.23-.07.28c-.07.37-.06.31-.07.19l-.05-1.07a28.48,28.48,0,0,1,.1-5.19,19,19,0,0,1,1-4,11.66,11.66,0,0,1,.86-2,19.61,19.61,0,0,1,1.1-1.9A18.45,18.45,0,0,1,271,72.17a17.85,17.85,0,0,1,1.54-1.29c.5-.35,1-.7,1.54-1a13.06,13.06,0,0,1,1.52-.84c.5-.24,1-.49,1.5-.7l1.42-.52a12.82,12.82,0,0,1,1.39-.43,26.43,26.43,0,0,1,2.62-.61c.42-.07.85-.16,1.26-.22L285,66.4a42.08,42.08,0,0,1,9.05,0c.73.07,1.49.18,2.23.29L298,67l3.28.5,6.57,1,26.27,4.13a44.21,44.21,0,0,1,8.72,2,23.35,23.35,0,0,1,6,3.27A22.35,22.35,0,0,1,354,83.64a25.18,25.18,0,0,1,1.73,3.54c.21.6.4,1.21.57,1.81a13.24,13.24,0,0,1,.42,1.8,21.4,21.4,0,0,1,.38,3.44c0,.55,0,1.1,0,1.64s-.06,1-.1,1.52a33.07,33.07,0,0,1-2.72,10.25,44.78,44.78,0,0,1-4.6,8c-.43.62-.92,1.22-1.39,1.83l-.89,1.14c-.52.69-1,1.39-1.5,2.1a32.9,32.9,0,0,0-2.39,4.15,13.12,13.12,0,0,0-1.17,3.36c-.15.83,0,1.12,0,.83a.2.2,0,0,0-.05-.09.26.26,0,0,0,0-.15.29.29,0,0,0-.07-.12s0-.09,0-.13-.06,0-.26-.35-.23-.29-.33-.34.22.15.76.4,1.12.52,1.83.81c1.51.59,3.34,1.18,5.42,1.84,1.06.34,2.16.68,3.46,1.13.61.21,1.36.49,2.09.77l1.57.62,6.18,2.45,12.36,4.89,6.18,2.45,1.54.61.39.15c.16.07.08,0,.13,0a.42.42,0,0,1,.12,0c.09,0,0-.06-.36-.09a4.16,4.16,0,0,0-1.32.15,4,4,0,0,0-.92.39c-.13.07-.06,0,.1-.17s.4-.58.67-1a24.43,24.43,0,0,0,1.71-3.76c.56-1.51,1.07-3.21,1.53-5a100.35,100.35,0,0,0,2.15-11.45,192,192,0,0,0,1.48-24.72l0-3.07-.09-3.06c-.07-2.14-.18-4.5-.18-7.07a69.25,69.25,0,0,1,.42-8.36c.17-1.49.42-3.06.76-4.66a43.65,43.65,0,0,1,1.39-5,40.17,40.17,0,0,1,4.83-9.5,30.48,30.48,0,0,1,4.13-4.84,24.63,24.63,0,0,1,7-4.73c.84-.38,1.29-.52,1.86-.73l1.67-.55c.7-.19,1.47-.36,2.21-.5.38-.07.7-.14,1.15-.2s1-.1,1.52-.13a16.8,16.8,0,0,1,3.35.07c.65.08,1.31.18,2,.31a13.72,13.72,0,0,1,2.11.59,17.75,17.75,0,0,1,4.22,2.06,22.35,22.35,0,0,1,1.9,1.42,18.86,18.86,0,0,1,1.5,1.46c.45.49,1,1.06,1.31,1.53s.63.89.92,1.35.62,1,.8,1.34.38.74.56,1.12.37.79.49,1.09l.34.89.33.9.22.72c.6,1.92.87,3.19,1.11,4,.06.26.11.43.16.59s.1.37.14.44l.33,1c.31.88.64,1.75,1,2.63.68,1.74,1.43,3.47,2.23,5.18a92.66,92.66,0,0,0,5.44,10,111,111,0,0,0,6.73,9.53c2.56,3.35,5.52,7,8.4,11.23a75.71,75.71,0,0,1,4.12,6.92c.63,1.24,1.21,2.5,1.8,3.76s1.07,2.5,1.59,3.75A119.86,119.86,0,0,1,473,134.45c1.22,4.68,2.14,9.17,3,13.43s1.77,8.26,2.8,12a86.21,86.21,0,0,0,3.54,10.44,79.16,79.16,0,0,0,5.32,9.9c2.1,3.38,4.5,6.81,7,10.38l7.74,10.82c5.17,7.23,10.42,14.4,15.81,21.44,2.67,3.55,5.42,7,8.21,10.48l4.23,5.24,4.28,5.38c1.43,1.82,2.82,3.69,4.25,5.58.7.94,1.4,1.9,2.09,2.87s1.41,1.93,2.11,2.91l2.06,3c.7,1,1.34,2.07,2,3.1,1.43,2.05,2.58,4.23,3.9,6.36a112.4,112.4,0,0,1,11.53,27.8,85,85,0,0,1,2.42,14.92l.19,3.76c.06,1.26,0,2.5,0,3.76,0,2.51-.24,5-.43,7.48a130,130,0,0,1-2.45,14.73c-.5,2.39-1.26,4.91-1.91,7.37-.38,1.22-.77,2.42-1.18,3.63l-.6,1.8-.68,1.76a123.76,123.76,0,0,1-6.06,13.53c-1.12,2.15-2.27,4.27-3.49,6.31s-2.44,4.05-3.67,6.06c-4.92,7.92-10.29,15.18-15.27,22.35L526,408.39l-1.8,2.67-.9,1.34-.81,1.24c-2.13,3.29-4.12,6.93-6.1,10.78-4,7.69-7.76,16.37-13.52,24.49a70.79,70.79,0,0,1-4.64,5.95,49,49,0,0,1-5.6,5.46A40.26,40.26,0,0,1,478.47,468a43.32,43.32,0,0,1-16.39,2.16l-1-.08c-.4-.05-.85-.13-1.27-.2a18.45,18.45,0,0,1-2.41-.6,29.89,29.89,0,0,1-4.05-1.56c-2.38-1.1-4.17-2.23-5.56-2.86a12.54,12.54,0,0,0-1.69-.67c-.23-.09-.39-.11-.57-.17s-.52-.09-.7-.09l-.29,0h-.22a2.8,2.8,0,0,0-.41,0,3.2,3.2,0,0,0-1.25.39c-1.27.57-3.4,2.07-6.08,3.35-.65.32-1.36.61-2.06.9a19.85,19.85,0,0,1-2.77.85,19.33,19.33,0,0,1-5.43.39,31.6,31.6,0,0,1-8.55-2c-2.43-.93-4.43-1.66-6.57-2.52-4.27-1.66-8.66-3.38-13.11-5.53a59.76,59.76,0,0,1-13.18-8.4,20.78,20.78,0,0,1-1.56-1.43c-.5-.49-1-1-1.51-1.5A38.25,38.25,0,0,1,379,445c-.44-.6-.9-1.19-1.31-1.81l-1.18-1.93a32.17,32.17,0,0,1-2-3.91c-2.23-5.07-3.45-8.92-4.82-10.65a17.15,17.15,0,0,0-5.3-4.64c-2.3-1.45-5.39-2.42-8.62-3.7-1.66-.59-3.37-1.29-5.18-1.92-.9-.37-1.83-.65-2.76-1-.47-.17-.95-.32-1.42-.48s-.88-.31-1.69-.51a38.7,38.7,0,0,1-15.45-7.69,67.3,67.3,0,0,1-10.18-11A88.67,88.67,0,0,0,311,386c-.7-.73-1.45-1.35-2.18-2s-1.62-1.28-2.42-1.92l-2.51-1.81c-.87-.56-1.72-1.14-2.61-1.67a66.48,66.48,0,0,0-69,.5,65.06,65.06,0,0,0-17.52,15.7c-.64.74-1.14,1.58-1.71,2.36s-1.12,1.58-1.67,2.47c-1.12,1.76-2.33,3.75-3.8,5.86a37.43,37.43,0,0,1-5.63,6.51,26,26,0,0,1-4,3c-.72.46-1.5.8-2.27,1.19a19.25,19.25,0,0,1-2.32,1,33.37,33.37,0,0,1-9,1.77c-2.77.18-5.24.11-7.52.06s-4.33-.13-6.11-.05a19.47,19.47,0,0,0-4.49.64c-.28.11-.59.15-.85.28s-.55.24-.82.34a17.8,17.8,0,0,0-1.69,1,27.94,27.94,0,0,0-3.72,3c-2.66,2.52-5.47,5.88-9.19,9.47a44.89,44.89,0,0,1-6.49,5.3,35.05,35.05,0,0,1-4,2.35l-2.14,1c-.72.29-1.46.56-2.19.83a40.58,40.58,0,0,1-9,1.87,37.86,37.86,0,0,1-9.15-.38A36.44,36.44,0,0,1,100,437.19c-.64-.47-1.23-1-1.82-1.53A16.38,16.38,0,0,1,96.49,434,18.42,18.42,0,0,1,95,432.17c-.42-.65-.83-1.32-1.19-2a28.89,28.89,0,0,1-2.43-8.73c-.1-.73-.2-1.44-.32-2.13s-.19-1.39-.3-2.07-.18-1.37-.33-2-.24-1.33-.34-2a33,33,0,0,1-.3-8.07,31.77,31.77,0,0,1,1.68-7.93c.8-2.22,1.59-4.19,2.28-6.18,1.39-3.93,2.3-7.54,2-11a17,17,0,0,0-1.27-5.13c-.32-.82-.82-1.75-1.28-2.66s-1-1.8-1.59-2.67c-4.46-7.09-10.43-13.57-16.41-20.07l-4.52-4.92c-1.48-1.65-3-3.28-4.5-5-2.93-3.48-5.79-7.4-7.17-12.14a18.64,18.64,0,0,1-.57-7.31,32.15,32.15,0,0,1,1.7-6.79c1.49-4.25,3.35-8.25,3.52-12.38a13.92,13.92,0,0,0-1.07-6,25.89,25.89,0,0,0-3.33-5.44c-2.63-3.45-5.91-6.62-8.06-10.68a13.68,13.68,0,0,1-1.65-6.62,17.34,17.34,0,0,1,1.43-6.6,22.52,22.52,0,0,1,3.48-5.71,36.85,36.85,0,0,1,4.64-4.79,92.42,92.42,0,0,1,10.72-7.86l2.78-1.82,2.71-1.92,5.43-3.83Zm0,.08c-.9.63-1.75,1.35-2.62,2l-2.63,2-2.64,2-2.71,1.94A94.93,94.93,0,0,0,59.9,256a37.38,37.38,0,0,0-4.31,4.79,20.83,20.83,0,0,0-3.1,5.45,16.18,16.18,0,0,0-1.15,6A12,12,0,0,0,52.9,278c2,3.63,5.26,6.68,8.1,10.21A28.26,28.26,0,0,1,64.76,294a16.65,16.65,0,0,1,1.42,7c-.12,4.82-2,9-3.36,13.17a29.67,29.67,0,0,0-1.44,6.21,15.76,15.76,0,0,0,.6,6.14c1.24,4,3.86,7.54,6.74,10.8s6.07,6.39,9.16,9.55c6.2,6.33,12.5,12.69,17.56,20.11a47.41,47.41,0,0,1,3.43,5.81,21.77,21.77,0,0,1,2,6.51c.66,4.55-.31,9.09-1.59,13.33-.63,2.14-1.36,4.24-2,6.34a25.88,25.88,0,0,0-1.12,6.42,27.52,27.52,0,0,0,2.47,12.76,28.52,28.52,0,0,0,3.39,5.6,27,27,0,0,0,4.66,4.59,24.57,24.57,0,0,0,5.67,3.26,27.12,27.12,0,0,0,6.31,1.81,30.08,30.08,0,0,0,6.57.31,29,29,0,0,0,6.46-1.24,30,30,0,0,0,11.21-6.82c3.3-2.94,6.3-6.22,9.64-9.15a35,35,0,0,1,5.37-3.92,25,25,0,0,1,3-1.49l1.57-.56c.52-.2,1.07-.28,1.6-.43,4.35-1,8.83-.69,13.24-.48s8.94.4,13.17-1.05a16.62,16.62,0,0,0,5.72-3.29,29.32,29.32,0,0,0,4.41-5c1.3-1.79,2.5-3.65,3.73-5.49.61-.93,1.27-1.82,1.93-2.71s1.28-1.81,2-2.64a73.24,73.24,0,0,1,20.13-17.13,74.43,74.43,0,0,1,24.87-9,69,69,0,0,1,26.41.65c17.27,3.81,33.36,13.8,43.46,28.48,2.78,3.44,5.7,6.86,9.4,9.32a24.28,24.28,0,0,0,12.54,3.85,71.26,71.26,0,0,1,13.19,1.49A40.7,40.7,0,0,1,370.59,412a26.45,26.45,0,0,1,5.21,4.1,24.81,24.81,0,0,1,3.93,5.33c2.09,3.93,2.93,8.35,4.44,12.51A29.84,29.84,0,0,0,391.24,445a47.6,47.6,0,0,0,10.67,7.86,108,108,0,0,0,12,5.66c2.05.83,4.1,1.68,6.18,2.42a22.58,22.58,0,0,0,6.47,1.41,11.42,11.42,0,0,0,3.3-.31,13.42,13.42,0,0,0,3.06-1.26c2-1,3.74-2.39,5.65-3.51a11.73,11.73,0,0,1,6.31-1.76,15.15,15.15,0,0,1,6.4,1.58c2,.93,3.91,2.09,5.88,3.11a19.3,19.3,0,0,0,6.23,2.19,28.14,28.14,0,0,0,13.15-.72,26.5,26.5,0,0,0,6.07-2.67A32.1,32.1,0,0,0,488,455.1a47.59,47.59,0,0,0,8.37-10.27c4.68-7.55,7.81-15.9,11.2-24.08,1.69-4.09,3.46-8.16,5.53-12.08s4.3-7.75,6.54-11.57c4.48-7.64,9.11-15.21,13.36-23a154.65,154.65,0,0,0,10.94-24.19l.54-1.57.48-1.59.94-3.19c.51-2.15,1.12-4.29,1.52-6.47a126.46,126.46,0,0,0,2-13.13,128,128,0,0,0,.58-13.28,108.92,108.92,0,0,0-1-13.25c-.23-2.2-.71-4.37-1.07-6.55l-.73-3.25-.37-1.62-.45-1.6A89.81,89.81,0,0,0,542,271.9c-1-2-1.83-4-2.93-6s-2.14-3.88-3.33-5.75c-2.38-3.73-5-7.33-7.71-10.82s-5.56-6.9-8.41-10.3l-8.55-10.17-17.11-20.36-8.55-10.17c-2.84-3.4-5.66-6.83-8.28-10.4A84.58,84.58,0,0,1,470,176.74a86.28,86.28,0,0,1-5.06-12.27c-2.8-8.42-4.62-17.12-7.09-25.62a108.24,108.24,0,0,0-4.39-12.54c-.87-2-1.87-4-2.91-6s-2.24-3.82-3.48-5.66c-2.47-3.68-5.17-7.2-7.8-10.77a124.13,124.13,0,0,1-7.39-11,106.21,106.21,0,0,1-6.07-11.82q-1.33-3-2.48-6.16a58.35,58.35,0,0,1-2-6.35c-.26-1.07-.49-2.16-.81-3.22a7.6,7.6,0,0,0-1.46-2.94,3.58,3.58,0,0,0-3-1.09,9.2,9.2,0,0,0-1.64.27c-.52.19-1.06.33-1.56.56a12.31,12.31,0,0,0-4.9,4.35,25.24,25.24,0,0,0-3.06,5.87A40,40,0,0,0,403,85.43c-.05,4.43.17,8.86,0,13.29a211.59,211.59,0,0,1-2.12,26.49,113.33,113.33,0,0,1-2.65,13,47.74,47.74,0,0,1-5,12.29,17.3,17.3,0,0,1-4.38,4.95,9.67,9.67,0,0,1-6.24,1.95,12.94,12.94,0,0,1-3.26-.61c-1.05-.37-2.07-.81-3.09-1.22l-6.15-2.53L357.88,148l-6.15-2.52c-2-.88-4.13-1.6-6.24-2.28s-4.2-1.4-6.25-2.24a24.24,24.24,0,0,1-5.8-3.23,9.44,9.44,0,0,1-2.15-2.52,7.45,7.45,0,0,1-.43-.71l-.33-.77-.33-.77-.2-.81a14.52,14.52,0,0,1,0-6.59,26,26,0,0,1,2.26-6.24,46.21,46.21,0,0,1,3.4-5.71q1-1.37,2-2.67c.7-.87,1.4-1.72,2.06-2.61a32.43,32.43,0,0,0,3.35-5.72,20.39,20.39,0,0,0,1.78-6.35,10.35,10.35,0,0,0-1.24-6.39,10.24,10.24,0,0,0-2.19-2.45,11.5,11.5,0,0,0-2.9-1.58,35.42,35.42,0,0,0-6.46-1.49l-26.21-4.47c-4.37-.72-8.73-1.54-13.11-2.18a30.53,30.53,0,0,0-6.62-.1,15.25,15.25,0,0,0-6.31,1.83,7,7,0,0,0-3.59,5.26c-.29,2.19.21,4.42-.18,6.63a4.74,4.74,0,0,1-1.6,2.87,7.36,7.36,0,0,1-3,1.38,44.43,44.43,0,0,1-6.62.53,16.89,16.89,0,0,0-6.46,1.25,9.06,9.06,0,0,0-2.63,2,13.77,13.77,0,0,0-2,2.62c-2.26,3.84-2.94,8.34-3.54,12.7a48.13,48.13,0,0,1-1.32,6.51l-.49,1.6c-.19.51-.41,1-.62,1.54a9.39,9.39,0,0,1-.74,1.49,7.55,7.55,0,0,1-.89,1.4,6.64,6.64,0,0,1-1.1,1.26l-.61.56c-.22.18-.47.3-.71.46a6.37,6.37,0,0,1-.72.41l-.79.29-.39.14-.41.08-.83.13a15.32,15.32,0,0,1-6.52-1.08c-4.18-1.5-8.08-3.64-12.16-5.38a45.87,45.87,0,0,0-6.24-2.23,19.42,19.42,0,0,0-6.56-.72,14.11,14.11,0,0,0-6.25,2l-1.38.91c-.44.34-.88.68-1.3,1-.85.7-1.66,1.46-2.46,2.22-3.19,3.07-6,6.49-9.26,9.54-6.39,6.18-14.81,9.89-20.58,16.73a35.7,35.7,0,0,0-6.37,11.55A93.62,93.62,0,0,0,158.27,178c-.84,4.35-1.61,8.72-2.81,13a41.73,41.73,0,0,1-5.32,12.13,29.5,29.5,0,0,1-9.68,9,54.32,54.32,0,0,1-12.25,5.1c-8.46,2.58-17.35,3.92-25.36,7.8a82.44,82.44,0,0,0-11.38,6.83c-3.64,2.53-7.15,5.23-10.63,8Z"/><path d="M460.52,502.66a11.46,11.46,0,0,0,4.18-1c1.35-.57,2.71-1.22,4.14-1.73a36.89,36.89,0,0,1,4.35-1.2,12.93,12.93,0,0,1,4.68-.49,4.48,4.48,0,0,1,1.26.35,4.62,4.62,0,0,1,1.2.67,4.08,4.08,0,0,1,1.39,2.46,10.62,10.62,0,0,1-.54,4.87,73.14,73.14,0,0,1-3,8.48c-1.21,2.76-2.6,5.43-4.07,8-.74,1.3-1.49,2.59-2.31,3.84l-2.34,3.83-1.14,1.93c-.38.64-.73,1.22-1.09,1.9a16.26,16.26,0,0,1-2.77,4,6.38,6.38,0,0,1-1.11.85A6.11,6.11,0,0,1,462,540a5.64,5.64,0,0,1-.7.21l-.74.07a4.91,4.91,0,0,1-1.48-.07,9.84,9.84,0,0,1-4.76-2.58,34,34,0,0,1-5.81-7.59c-1.46-2.53-3.17-4.91-4.53-7.56a86.47,86.47,0,0,1-6.77-17,36.14,36.14,0,0,1-1-4.64,10,10,0,0,1,.57-5.3,7.28,7.28,0,0,1,.71-1.21,7.6,7.6,0,0,1,.86-1.05,5.72,5.72,0,0,1,2.5-1.54,5.31,5.31,0,0,1,2.86.05,9.41,9.41,0,0,1,2.3,1c2.74,1.66,4.81,3.81,7.08,5.7a34,34,0,0,0,3.48,2.68A8.2,8.2,0,0,0,460.52,502.66Zm0,.7a9.06,9.06,0,0,1-4.37-1.46c-1.32-.75-2.53-1.64-3.75-2.5a42.92,42.92,0,0,0-7.33-4.72,4.55,4.55,0,0,0-3.39-.4,3.1,3.1,0,0,0-1.12,1,4.41,4.41,0,0,0-.45.74,3,3,0,0,0-.33.75,6.73,6.73,0,0,0,.13,3.48,27.57,27.57,0,0,0,1.36,3.94c2.15,5.29,5.26,10.15,8.33,15.21a42.74,42.74,0,0,1,2,4l.94,2.06c.32.73.6,1.43.87,2.1a33.44,33.44,0,0,0,3.76,7.36,6.06,6.06,0,0,0,2.59,2.17,2.08,2.08,0,0,0,.72.16l.37,0a2.63,2.63,0,0,0,.39-.06,2.77,2.77,0,0,0,1.46-.59,11.94,11.94,0,0,0,2.61-3.09l2.48-3.73c1.56-2.5,3.23-4.94,4.55-7.57s2.57-5.28,3.66-8c.56-1.36,1.06-2.73,1.55-4.1l.71-2.09.73-2.08a9.85,9.85,0,0,0,.7-3.87,2.27,2.27,0,0,0-.63-1.4,3.48,3.48,0,0,0-1.54-.8,12,12,0,0,0-4.16.1,29.44,29.44,0,0,0-4.3.84c-1.4.38-2.74,1-4.15,1.53A12.53,12.53,0,0,1,460.53,503.36Z"/><path d="M439.31,477.84a4.13,4.13,0,0,0-2.59,1.14,2.93,2.93,0,0,0-.93,2.4,2.78,2.78,0,0,0,1.41,1.8,5.33,5.33,0,0,0,2.32.65,3,3,0,0,0,2.07-.45,3.31,3.31,0,0,0,1-2.14,4.7,4.7,0,0,0,0-1.35,2.34,2.34,0,0,0-.64-1.17A3.59,3.59,0,0,0,439.31,477.84Zm0,0a4.63,4.63,0,0,1,2.81.69,2.85,2.85,0,0,1,1,1.19,5.78,5.78,0,0,1,.4,1.52,4.15,4.15,0,0,1-.8,3.23,3.27,3.27,0,0,1-1.6,1,4.84,4.84,0,0,1-1.72.16,5.37,5.37,0,0,1-3.12-1.19,3.36,3.36,0,0,1,.29-5.65A5.39,5.39,0,0,1,439.31,477.84Z"/></svg>