<svg id="Layer_1" data-name="Layer 1" xmlns="http://www.w3.org/2000/svg" viewBox="0 0 600 600"><title>Azerbaijan</title><path d="M213.8,416a21.47,21.47,0,0,0-1-7.64,10.24,10.24,0,0,0-2-3.29,21.93,21.93,0,0,0-2.86-2.58,42.91,42.91,0,0,1-6.07-5,9.81,9.81,0,0,1-2-3.65,7.21,7.21,0,0,1,.1-4.31,10.61,10.61,0,0,1,5.8-6c1.4-.59,2.53-.83,3.7-1.32a15.3,15.3,0,0,0,3.17-1.65,3.88,3.88,0,0,0,1.73-2.18,3.12,3.12,0,0,0-.87-2.38,22.28,22.28,0,0,0-19.34-6.58,15.74,15.74,0,0,0-3.26,1,20,20,0,0,0-3.07,1.64,41.69,41.69,0,0,1-7.12,4.17,15.16,15.16,0,0,1-9.46.56,22.06,22.06,0,0,1-8-4.16,36.75,36.75,0,0,1-6.07-6.08c-1.81-2.27-3.2-4.41-4.69-6.48-2.9-4.13-5.94-7.8-9.35-9.52a13.74,13.74,0,0,0-2.62-1c-1-.24-2.09-.43-3.32-.63s-2.58-.39-4.05-.7a21.64,21.64,0,0,1-4.8-1.53,14.25,14.25,0,0,1-4.91-3.68,13.2,13.2,0,0,1-2.9-6.1,14.42,14.42,0,0,1,.28-6.31,17.77,17.77,0,0,1,2.32-5.29,20.15,20.15,0,0,1,3.73-4.27,18.42,18.42,0,0,1,5.16-3,19.64,19.64,0,0,1,5.68-1.15,37.23,37.23,0,0,1,4.78.07c2.89.22,5.38.55,7.19.47a6.24,6.24,0,0,0,1.94-.3,1.06,1.06,0,0,0,.53-.39,6.37,6.37,0,0,0,.52-1,2.3,2.3,0,0,0,.25-1.12,2.74,2.74,0,0,0-.22-.92,6.84,6.84,0,0,0-.84-1.51,20.75,20.75,0,0,0-3.76-3.93,54.7,54.7,0,0,0-5.43-3.92c-2-1.29-4.06-2.47-6.47-4s-4.64-2.95-6.88-4.54a155.72,155.72,0,0,1-13-10.27,72,72,0,0,1-6.36-6.28,40.09,40.09,0,0,1-5.78-8.45c-.41-.82-.79-1.67-1.14-2.54-.17-.46-.34-.85-.5-1.37l-.46-1.51a22.66,22.66,0,0,1-.8-6.94,22.27,22.27,0,0,1,1.58-7.13,27.28,27.28,0,0,1,3-5.49c2.11-3,4.16-5.06,5.47-6.69a16.77,16.77,0,0,0,1.46-2,2.05,2.05,0,0,0,.38-.88c0-.09-.06,0-.08-.08l-.25-.72a3.78,3.78,0,0,1-.17-.35l-.07-.17-.05,0c-.07-.05,0-.12-.18-.21a.76.76,0,0,1-.11-.14l-.2-.17-.19-.2-.29-.21a13.5,13.5,0,0,0-3.54-1.84,24.17,24.17,0,0,0-5-1.15,18,18,0,0,0-4.63,0,34.65,34.65,0,0,0-5.11,1.6c-1.28.45-2.56.93-4.24,1.43-.76.25-1.75.49-2.67.71-.48.12-1.07.21-1.6.31l-.82.13-1,.1c-.67.05-1.26.11-2,.11s-1.54-.06-2.31-.12a20.34,20.34,0,0,1-2.6-.49,14.51,14.51,0,0,1-2.7-.94,14,14,0,0,1-2.61-1.42,19.29,19.29,0,0,1-2.3-1.8,19.71,19.71,0,0,1-3.41-4.27,19.34,19.34,0,0,1-1.92-4.74c-.11-.4-.18-.73-.25-1.07s-.14-.71-.19-1c-.09-.61-.18-1.27-.22-1.79-.1-1.15-.11-2-.13-2.85l0-1.9a9.86,9.86,0,0,0,0-1c0-.18,0-.15,0-.1s0-.1-.37-.66-.82-1.31-1.51-2.31-1.58-2.29-2.54-3.88a27.57,27.57,0,0,1-2.79-6.18,22.08,22.08,0,0,1-.85-8.69,23.69,23.69,0,0,1,2.32-7.84,31.6,31.6,0,0,1,3.49-5.46,41.7,41.7,0,0,1,3.51-3.91c1.13-1.13,2.26-2.27,3.48-3.29A69.41,69.41,0,0,1,120,152.66a38.5,38.5,0,0,1,11.18,2.61,24.56,24.56,0,0,1,7,4.41,21.3,21.3,0,0,1,3.31,3.82,21,21,0,0,1,2.35,4.59,31.08,31.08,0,0,1,1.49,6.43l.19,1.25,0,.1h0a.58.58,0,0,1,0-.17.56.56,0,0,0-.09-.17c0-.06-.05-.15-.09-.21s-.12-.24-.25-.31,0-.07-.06-.09l0,0h0s0,0,0,0a.33.33,0,0,1,.13.07,10.84,10.84,0,0,0,3.13,1.19,37.06,37.06,0,0,0,5.71,1l7.65.73q3.9.36,7.84.83c5.25.61,10.55,1.41,15.87,2.44l4,.82,2,.46,2.19.53c3.14.8,5.72,1.69,8,2.45a47.93,47.93,0,0,0,5.66,1.63,10,10,0,0,0,3.23.18c.1,0,.21,0,.31,0l.31-.11a2.22,2.22,0,0,0,.66-.29,4.14,4.14,0,0,0,.71-.45,5.18,5.18,0,0,0,.55-.41.47.47,0,0,0,.13-.1.18.18,0,0,1,.11,0c-.07.07,0,.12,0,.31s0,.36,0,.55.09.32.08.33l.05,0,0,0s0-.06,0-.13a3.64,3.64,0,0,0-.32-.55,10.69,10.69,0,0,0-1.38-1.66,30.61,30.61,0,0,0-4.86-3.66,60.45,60.45,0,0,0-6.09-3.29c-2.15-1-4.36-2-6.66-2.89s-4.63-1.77-7.19-2.73c-2.24-.81-4.83-1.69-7.72-2.91l-1.09-.48-1.05-.49-1.9-.88c-1.27-.61-2.58-1.28-3.93-2a48.7,48.7,0,0,1-8.32-5.42,31.28,31.28,0,0,1-7.93-9.64,27.68,27.68,0,0,1-1.42-3.34c-.2-.58-.39-1.17-.56-1.77s-.28-1.2-.41-1.82a25.81,25.81,0,0,1-.42-7.4,32.21,32.21,0,0,1,1.25-6.63,39.36,39.36,0,0,1,2.3-5.82,38.31,38.31,0,0,1,7.23-10,42,42,0,0,1,9.51-7.16,50.53,50.53,0,0,1,5.18-2.53c.88-.36,1.76-.67,2.65-1l1.34-.48,1.34-.39c.9-.25,1.8-.5,2.71-.72l2.74-.53c.92-.19,1.83-.31,2.76-.41s1.84-.22,2.77-.29a52.26,52.26,0,0,1,5.6-.06c.94,0,1.88.06,2.82.15l2.83.34a28.35,28.35,0,0,1,2.85.5l1.42.3.71.16.65.17c1.72.46,3.44.94,5.09,1.54a66.07,66.07,0,0,1,9.5,4.12,33.33,33.33,0,0,1,8.16,5.48,52.09,52.09,0,0,1,6,7.28,54.5,54.5,0,0,0,5.56,6.74c1.94,2,3.8,4.08,5.58,6.09l5.27,5.79c1.74,1.85,3.44,3.63,5.14,5.36a108,108,0,0,0,10.21,9.1,59.86,59.86,0,0,0,10.18,6.39,32.27,32.27,0,0,0,10,2.92,24.94,24.94,0,0,0,2.56.2c.43,0,.83,0,1.25,0a8.45,8.45,0,0,0,1.24-.06,22.14,22.14,0,0,0,4.56-.77,18.2,18.2,0,0,0,3.77-1.65c.26-.18.51-.38.78-.55s.28-.17.41-.27l.36-.32c.23-.22.5-.39.75-.63s.49-.5.75-.82a21.54,21.54,0,0,0,1.69-2.22c.6-.86,1.23-1.86,1.93-3a85.48,85.48,0,0,1,5.14-7.59,36.68,36.68,0,0,1,8.07-7.66,51.81,51.81,0,0,1,8.54-4.75c2.7-1.2,5.23-2.18,7.56-3.1s4.36-1.78,6.15-2.67a17.64,17.64,0,0,0,4.21-2.79,15,15,0,0,0,1.41-1.49,14.41,14.41,0,0,0,1.2-2A46.5,46.5,0,0,0,356,113.9c.42-1.26.87-2.63,1.43-4.09a38.21,38.21,0,0,1,2-4.54c.39-.78.86-1.57,1.35-2.35a25.41,25.41,0,0,1,1.75-2.42,23.65,23.65,0,0,1,4.6-4.34,17.92,17.92,0,0,1,6.92-3,15.68,15.68,0,0,1,2.06-.26c.51,0,1-.05,1.55,0a25.32,25.32,0,0,1,3.05.21,27.29,27.29,0,0,1,10.62,3.77,32.94,32.94,0,0,1,4.37,3.09,37.84,37.84,0,0,1,3.63,3.5,71.12,71.12,0,0,1,5.57,7l2.32,3.21q1.2,1.68,2.34,3.36c1.52,2.24,3,4.45,4.4,6.63l4.23,6.45c2.82,4.35,5.65,8.68,8.4,13.07l2,3.34c.34.55.43,1.25.82,1.77s.85,1,1.3,1.49c1.82,1.92,4,3.63,5.5,5.73l8.8,12.83a141.69,141.69,0,0,0,8.56,11.6,44.26,44.26,0,0,0,8.72,8.17,47.11,47.11,0,0,0,5,2.87,54.51,54.51,0,0,1,8.63,5.39,32.73,32.73,0,0,1,5.11,5,38.86,38.86,0,0,1,3.76,5.61l2.08,3.84c.26.45.48.82.67,1.09a4.56,4.56,0,0,0,.51.6,10.12,10.12,0,0,0,2.23,2,14.29,14.29,0,0,0,1.46.81c.48.29,1.11.49,1.67.76a25.75,25.75,0,0,0,8.7,1.59c.82,0,1.63,0,2.45-.07l1.23-.07,1.23-.14c.82-.06,1.62-.29,2.42-.39l2.53-.61a51.93,51.93,0,0,1,5.56-1.14,33.24,33.24,0,0,1,4.41-.3,28.06,28.06,0,0,1,5.39.51,31.66,31.66,0,0,1,8.74,3.12c2.21,1.17,3.77,2.2,5,3a116.46,116.46,0,0,1,14.44,11.18c2.26,2,4.42,4.2,6.52,6.41a52.94,52.94,0,0,1,7.27,9.36,36,36,0,0,1,3.35,7.41,32.07,32.07,0,0,1,1.09,4.59,24.87,24.87,0,0,1,.3,2.47l.08,1.25c0,.36,0,1,0,1.53a27.3,27.3,0,0,1-2.77,11.5,25.19,25.19,0,0,1-7.07,8.74,24.64,24.64,0,0,1-5.44,3.25,27.09,27.09,0,0,1-3.29,1.15A29.69,29.69,0,0,1,552,291a26.45,26.45,0,0,1-3.88,0,22,22,0,0,1-3.84-.64A19.9,19.9,0,0,1,538,287.5a18.1,18.1,0,0,1-3.48-3.27,10.69,10.69,0,0,1-1.53-2.42,4.78,4.78,0,0,1-.35-1.49l-.1-.67-.17-.63a7.68,7.68,0,0,0-2.92-4.33,12.38,12.38,0,0,0-5.34-1.83A31.76,31.76,0,0,0,511,274.17,69.85,69.85,0,0,0,497.7,280c-2.17,1.19-4.29,2.42-6.48,3.73a68.08,68.08,0,0,0-5.91,3.85,24.46,24.46,0,0,0-4.38,4.08c-.29.35-.55.71-.8,1.06l-.69,1.14a8.9,8.9,0,0,0-.61,1.19l-.28.61-.21.65a21.22,21.22,0,0,0-1.12,5.62,41.92,41.92,0,0,0,.13,6.49c.42,4.58,1.37,9.43,2.15,14.89a68.82,68.82,0,0,1,.69,17.72,36.45,36.45,0,0,1-.87,4.93,46.47,46.47,0,0,1-1.49,4.79c-1.09,3-2.27,5.5-3.19,7.59a22.72,22.72,0,0,0-1.62,4.6,1.8,1.8,0,0,1-.08.54,1,1,0,0,1,0,.35c.06.11-.05.23,0,.38s0,.3.09.52.12.46.22.73a6.35,6.35,0,0,1,.43.91,1.46,1.46,0,0,1,.11.31c.05.1.15.25.22.39a11.92,11.92,0,0,0,1,1.19c.79.95,1.89,2.08,3.09,3.65a23.59,23.59,0,0,1,1.83,2.76c.3.56.59,1.13.85,1.75a14.22,14.22,0,0,1,.67,2,13,13,0,0,1,.39,2.17c0,.37.06.73.07,1.1s0,.72,0,1.07a12.47,12.47,0,0,1-1,4.36,13.25,13.25,0,0,1-2.18,3.37,15.15,15.15,0,0,1-2.31,2.12,42.91,42.91,0,0,1-3.85,2.52c-1.22.73-2.3,1.36-3.31,2a21.17,21.17,0,0,0-2.6,1.9,8,8,0,0,0-1.59,1.81,4.06,4.06,0,0,0-.54,1.55c0,.13,0,.27,0,.41l0,.46a7.22,7.22,0,0,0,.19,1.27c.2,1.05.58,2.4.83,4.17a14.85,14.85,0,0,1,.12,3,13.9,13.9,0,0,1-.2,1.66c-.14.57-.27,1.12-.45,1.68a13,13,0,0,1-.82,1.8,9.55,9.55,0,0,1-1.27,1.74,9.83,9.83,0,0,1-3.49,2.45,14.64,14.64,0,0,1-6.11.93,51,51,0,0,1-8.64-1.32,70.57,70.57,0,0,0-7.06-1.28,11.68,11.68,0,0,0-2.63,0l-.42.07a2,2,0,0,1-.27.08s-.12,0-.11.07.05-.05-.15.13a7.94,7.94,0,0,0-2.66,3.65,16.71,16.71,0,0,0-1,5.61,35.85,35.85,0,0,0,.45,6.67,99.16,99.16,0,0,0,3.43,14.15l2.35,7.33c.4,1.26.81,2.56,1.2,3.9l1.1,3.55c.77,2.45,1.61,5,2.32,7.88a43.37,43.37,0,0,1,1.35,9.27,28.57,28.57,0,0,1-1.68,10.48,26.47,26.47,0,0,1-2.47,5,23.46,23.46,0,0,1-3.92,4.63,20.1,20.1,0,0,1-12,5.06,22,22,0,0,1-6.28-.47,27.6,27.6,0,0,1-5.42-1.82,38.22,38.22,0,0,1-8.5-5.48c-1.23-1-2.39-2.13-3.46-3.2L395.9,493c-1.78-1.85-3.42-3.54-4.93-4.84a17.72,17.72,0,0,0-4.11-2.76,9.36,9.36,0,0,0-1.77-.56c-.71-.15-1.67-.29-2.88-.43s-2.69-.29-4.38-.59a25.51,25.51,0,0,1-2.68-.6,23.51,23.51,0,0,1-2.66-.84,34.75,34.75,0,0,1-9.28-5.13,50.78,50.78,0,0,1-6.94-6.54c-2-2.28-3.7-4.57-5.3-6.81-.81-1.12-1.55-2.21-2.31-3.34a34,34,0,0,1-2.75-4.66,20.06,20.06,0,0,1-1.25-3.43,15.36,15.36,0,0,1-.4-2,8.53,8.53,0,0,1-.1-.93l0-.78a21.25,21.25,0,0,1,.69-6.72,19,19,0,0,1,3.17-6.45,22,22,0,0,1,4.5-4.43,31.74,31.74,0,0,1,4.39-2.75c1.39-.75,2.7-1.36,3.91-1.92l3.36-1.54a23.91,23.91,0,0,0,2.52-1.35,8.72,8.72,0,0,0,1.21-.86c.13-.13.07,0,.12.06s0-.06.07-.15a2.79,2.79,0,0,0,0-.61l0-.2a.36.36,0,0,0,0-.12s0,0,0-.06,0,0,0-.07a.21.21,0,0,1-.05-.13,5.56,5.56,0,0,0-1.23-1.34c-.73-.66-1.79-1.46-3.11-2.63-.33-.29-.69-.64-1-1s-.74-.79-1.1-1.19-.75-.95-1.11-1.48a19.23,19.23,0,0,1-1-1.79c-.14-.32-.28-.65-.41-1a5.52,5.52,0,0,1-.31-.92c-.15-.54-.29-1.09-.41-1.64a11.94,11.94,0,0,1-.25-1.82,10.49,10.49,0,0,1,0-1.95,17.65,17.65,0,0,1,.25-2.05c.16-.68.36-1.36.58-2s.54-1.21.84-1.81a14.09,14.09,0,0,1,1-1.54,21.87,21.87,0,0,1,4-4.08l3-2.34a12.08,12.08,0,0,0,1.59-1.46c.05-.08.14-.14.18-.21a.46.46,0,0,1,.1-.18l.08-.09s0-.1,0-.15a2,2,0,0,1,.12-.31c.06-.24.09-.57.16-.87s0-.73,0-1.15a22.05,22.05,0,0,0-1.26-5.85,50,50,0,0,0-2.72-6.36c-.55-1.05-1.11-2.11-1.71-3.14s-1.24-2.13-1.81-3a25.17,25.17,0,0,0-9.31-8.5,17.75,17.75,0,0,0-5.71-1.81,15.19,15.19,0,0,0-5.89.44c-4,1.07-8.08,3.69-12.1,6.68L280,402.63l-24.55,19a47.79,47.79,0,0,0-5.09,5.54c-1.63,2-3.23,4-4.84,6.05-3.21,4.07-6.42,8.15-9.86,12.06a77.84,77.84,0,0,1-5.4,5.65,34.7,34.7,0,0,1-3,2.54,14.6,14.6,0,0,1-3.42,2,4.53,4.53,0,0,1-1,.29c-.17,0-.34.08-.5.1l-.52,0a4.75,4.75,0,0,1-1-.08,5.35,5.35,0,0,1-1-.18,8.44,8.44,0,0,1-3.55-1.74,11.93,11.93,0,0,1-3.61-6.83c-1-5.14-.53-10.37-.05-15.51.28-2.58.42-5.16.67-7.74s.5-5.16.53-7.75Zm.09,0c0,1.3,0,2.6,0,3.89s-.13,2.59-.2,3.89-.15,2.57-.19,3.87-.14,2.6-.22,3.89c-.29,5.14-.5,10.38.62,15.21a10.69,10.69,0,0,0,3.37,6,7,7,0,0,0,3,1.36,4.6,4.6,0,0,0,.84.14,3.81,3.81,0,0,0,.8,0h.33l.36-.09.36-.09.38-.16a13,13,0,0,0,3-1.84,32.46,32.46,0,0,0,2.81-2.47c1.81-1.76,3.51-3.67,5.17-5.62,3.31-3.92,6.43-8,9.56-12.16,1.56-2.06,3.13-4.13,4.75-6.18a49.53,49.53,0,0,1,5.29-6L278,400.11l48.4-39c4.07-3.19,8.43-6.32,13.54-7.91a20.7,20.7,0,0,1,7.9-.88,22.9,22.9,0,0,1,7.63,2.08,30.79,30.79,0,0,1,11.93,10.06,65.88,65.88,0,0,1,7.43,13.71,29.6,29.6,0,0,1,1.89,7.6,11.26,11.26,0,0,1-1.68,7.58c-1.54,2.17-3.73,3.67-5.69,5.34a15.32,15.32,0,0,0-2.64,2.76,6.14,6.14,0,0,0-1.25,3.51,8.58,8.58,0,0,0,.77,3.69,9.13,9.13,0,0,0,2.42,2.91c1.95,1.67,4.23,3.05,5.77,5.21a8.67,8.67,0,0,1,1.5,3.6,9.49,9.49,0,0,1,.08,3.9,8,8,0,0,1-1.65,3.53,13.54,13.54,0,0,1-2.9,2.6c-4.32,2.91-9.4,4.43-13.52,7.61a11.49,11.49,0,0,0-4.37,6.2,11.83,11.83,0,0,0-.31,3.84,8.8,8.8,0,0,0,1,3.72,22.87,22.87,0,0,0,2.05,3.29l2.28,3.14c1.55,2.08,3.15,4.12,4.88,6.05,3.43,3.83,7.49,7.31,12.38,9.11,4.84,2,10.36,1.09,15.08,3.48a26,26,0,0,1,6.34,4.43c1.91,1.74,3.65,3.67,5.39,5.59a64.54,64.54,0,0,0,5.42,5.55,29.31,29.31,0,0,0,6.4,4.36,15.63,15.63,0,0,0,7.5,1.67,11.79,11.79,0,0,0,7.07-2.87,16.07,16.07,0,0,0,4.31-6.36,21,21,0,0,0,1.39-7.6c0-5.2-1.49-10.24-2.88-15.21-2.53-10-6.12-19.84-7.33-30.16a42.73,42.73,0,0,1-.27-7.75,22.22,22.22,0,0,1,1.64-7.55,14.68,14.68,0,0,1,1.95-3.34,13.89,13.89,0,0,1,2.82-2.65,7.21,7.21,0,0,1,3.61-1.3,17.37,17.37,0,0,1,3.88.08c5.15.59,10.08,2.43,15.27,2.74a9.34,9.34,0,0,0,3.82-.51,4.57,4.57,0,0,0,2.55-2.77,8,8,0,0,0,.28-3.83c-.17-1.29-.51-2.54-.76-3.81a11.25,11.25,0,0,1-.28-1.92c0-.32,0-.65,0-1l.07-1a9.68,9.68,0,0,1,1.25-3.64,20.26,20.26,0,0,1,5.43-5.49c2.06-1.56,4.22-3,6.14-4.75a8.17,8.17,0,0,0,2.24-3.12,5.92,5.92,0,0,0,0-3.81,8.79,8.79,0,0,0-2.11-3.23c-.89-.93-1.89-1.77-2.87-2.61a18,18,0,0,1-4.9-5.95,12.51,12.51,0,0,1-1.26-7.53,27.86,27.86,0,0,1,2.35-7.38c1-2.37,2.18-4.7,3.11-7.11a32.53,32.53,0,0,0,2-7.5,67.52,67.52,0,0,0,0-15.5c-.46-5.15-1.17-10.29-1.32-15.47s.26-10.45,2.29-15.25a24,24,0,0,1,4-6.59,31.88,31.88,0,0,1,5.8-5.14c2.12-1.49,4.35-2.81,6.6-4.09s4.52-2.52,6.83-3.7a102.59,102.59,0,0,1,14.26-6.13A50.67,50.67,0,0,1,524,264.9a26.63,26.63,0,0,1,14.79,4l.82.53.77.58c.53.38,1,.79,1.52,1.21a17.07,17.07,0,0,0,3.14,2.27,6,6,0,0,0,3.77.59,7.24,7.24,0,0,0,3.41-1.75,9.62,9.62,0,0,0,3.2-6.84,14.12,14.12,0,0,0-2.25-7.33,35.62,35.62,0,0,0-4.82-6.07c-1.78-1.87-3.62-3.7-5.54-5.44a105.46,105.46,0,0,0-12.2-9.59,19.71,19.71,0,0,0-6.91-3.42c-2.57-.52-5.18.09-7.68.65a50.37,50.37,0,0,1-15.43,1.1,41.76,41.76,0,0,1-14.9-4.08,31.2,31.2,0,0,1-3.34-2A27.84,27.84,0,0,1,479.3,227a25.89,25.89,0,0,1-5-5.91,69.1,69.1,0,0,1-3.53-6.91,19.72,19.72,0,0,0-2-3.31,18.13,18.13,0,0,0-2.69-2.78c-4-3.34-8.87-5.37-12.83-8.74A60.71,60.71,0,0,1,442.69,188c-3.07-4.17-5.81-8.57-8.51-13l-8.12-13.24-16.24-26.49c-5.45-8.79-10.47-17.92-17-25.94a25.42,25.42,0,0,0-5.89-5,18.68,18.68,0,0,0-7.25-2.62,12.55,12.55,0,0,0-3.87,0,9,9,0,0,0-3.51,1.59,15.78,15.78,0,0,0-4.82,6c-2.32,4.66-3.13,9.87-5.17,14.63a25.49,25.49,0,0,1-1.79,3.44,23.71,23.71,0,0,1-2.43,3,28.17,28.17,0,0,1-6.11,4.75c-4.48,2.62-9.33,4.48-14,6.81a43.53,43.53,0,0,0-6.63,4,24.85,24.85,0,0,0-5.4,5.53c-3,4.21-5,9.06-8.05,13.27-.38.53-.78,1-1.19,1.54s-.88.95-1.31,1.43l-.67.71c-.23.22-.49.42-.73.64-.49.42-1,.85-1.48,1.25a30.15,30.15,0,0,1-6.78,3.76,36.48,36.48,0,0,1-15.25,2.19,43.75,43.75,0,0,1-15-3.63c-9.51-4.24-17.49-11.15-24.79-18.44s-14.12-15.18-22-22a79.91,79.91,0,0,0-12.56-9.08c-1.11-.68-2.29-1.22-3.43-1.83s-2.34-1.1-3.56-1.54A38.85,38.85,0,0,0,194,116.84c-.65,0-1.29.07-1.94.1a15.72,15.72,0,0,0-1.93.17l-1.93.24-1.9.39-1,.2-.93.27c-.62.19-1.25.35-1.86.56a32.87,32.87,0,0,0-3.58,1.48,27,27,0,0,0-6.48,4.23,23.85,23.85,0,0,0-4.92,6,20.12,20.12,0,0,0-2.62,7.26,14.19,14.19,0,0,0,1.08,7.58,19.54,19.54,0,0,0,4.61,6.18,39.72,39.72,0,0,0,6.2,4.66c2.2,1.36,4.45,2.64,6.76,3.82s4.72,2.11,7.09,3.16,4.76,2,7.12,3.11a107.58,107.58,0,0,1,13.72,7.25,42.81,42.81,0,0,1,6.17,4.71,21.43,21.43,0,0,1,2.55,2.92,10.51,10.51,0,0,1,1.73,3.46,8.67,8.67,0,0,1,.32,1.91,8.22,8.22,0,0,1-.25,1.92,8.52,8.52,0,0,1-.69,1.82,14.14,14.14,0,0,1-1.08,1.61,16,16,0,0,1-6.15,4.62,17.22,17.22,0,0,1-7.62,1.14,43.19,43.19,0,0,1-7.65-1.28c-2.52-.6-5-1.28-7.56-1.76s-5.11-.83-7.68-1.19c-5.13-.7-10.28-1.26-15.43-1.75l-15.48-1.36a50.92,50.92,0,0,1-7.66-1.23,23.25,23.25,0,0,1-7.17-2.92,13.17,13.17,0,0,1-2.94-2.53,12.6,12.6,0,0,1-1.1-1.6c-.15-.29-.33-.56-.46-.86l-.36-.9c-.92-2.45-.74-5.14-1.62-7.58a8,8,0,0,0-2.14-3.18,11.64,11.64,0,0,0-3.27-2,26.72,26.72,0,0,0-7.54-1.71,57,57,0,0,0-30.25,5,56,56,0,0,0-13,8.38c-1,.82-1.92,1.73-2.85,2.64a28.27,28.27,0,0,0-2.62,2.85,13.65,13.65,0,0,0-3.26,6.91,11.85,11.85,0,0,0,2,7.34c1.31,2.23,2.91,4.29,4.15,6.57A14.46,14.46,0,0,1,74,209a15.67,15.67,0,0,1,.39,3.86c0,1.29,0,2.59.07,3.88a7.07,7.07,0,0,0,2.2,5.2,7.34,7.34,0,0,0,.76.59,3.26,3.26,0,0,0,.84.46,7.27,7.27,0,0,0,3.78.51,33.71,33.71,0,0,0,7.48-2,38.71,38.71,0,0,1,7.48-2,29.66,29.66,0,0,1,7.76.17,33.41,33.41,0,0,1,7.49,2,23.47,23.47,0,0,1,6.66,4,14.49,14.49,0,0,1,4.33,6.37,14.06,14.06,0,0,1,.74,3.81,11.11,11.11,0,0,1-.52,3.84,19.25,19.25,0,0,1-4.11,6.55c-1.7,2-3.53,3.8-5.07,5.88a13.4,13.4,0,0,0-2.84,7.08,15.44,15.44,0,0,0,1.73,7.46c2.22,4.69,5.86,8.53,9.61,12.05a143.45,143.45,0,0,0,11.89,10q3.11,2.33,6.33,4.49c2.15,1.44,4.34,2.82,6.46,4.32a59.93,59.93,0,0,1,6.09,4.82,27.51,27.51,0,0,1,5,5.91,11.6,11.6,0,0,1,1.82,7.44,11.19,11.19,0,0,1-3.63,6.73,8.69,8.69,0,0,1-3.46,1.73,14,14,0,0,1-3.87.36c-2.6-.07-5.16-.55-7.73-.82a17.67,17.67,0,0,0-7.66.44,12,12,0,0,0-3.36,1.87,14.08,14.08,0,0,0-2.62,2.83,11.78,11.78,0,0,0-1.65,3.47,8.68,8.68,0,0,0-.28,3.82,7.44,7.44,0,0,0,1.55,3.47,9.06,9.06,0,0,0,3,2.37c4.67,2.24,10.25,1.78,14.78,4.56a23.1,23.1,0,0,1,5.84,5.09,61,61,0,0,1,4.56,6.29c1.42,2.17,2.75,4.39,4.29,6.47a33.67,33.67,0,0,0,5.26,5.67,18.4,18.4,0,0,0,6.69,3.79,12,12,0,0,0,7.59-.2,42.71,42.71,0,0,0,6.81-3.68,19.7,19.7,0,0,1,7.25-2.69,22.7,22.7,0,0,1,15,3,21.59,21.59,0,0,1,6,4.88,4.53,4.53,0,0,1,1,3.66,5.37,5.37,0,0,1-2.4,3,17.07,17.07,0,0,1-3.5,1.68c-1.21.47-2.5.73-3.69,1.21a9.54,9.54,0,0,0-5.36,5.27,6.22,6.22,0,0,0-.18,3.79,9,9,0,0,0,1.78,3.4,49.78,49.78,0,0,0,5.73,5.21,14.64,14.64,0,0,1,4.65,6.11A23.87,23.87,0,0,1,214,416Z"/><path d="M176.84,412.51a19.72,19.72,0,0,0-3.82-4.57,15.44,15.44,0,0,0-5.15-3c-1.87-.67-3.9-.85-5.75-1.7a7.32,7.32,0,0,1-3.88-4.48c-1.16-3.89-.78-8.06-2.24-11.68a13.26,13.26,0,0,0-1.4-2.53,16.63,16.63,0,0,0-1.93-2.18,19.77,19.77,0,0,0-4.73-3.34,19.41,19.41,0,0,0-11.16-1.95,23.43,23.43,0,0,0-5.54,1.32,18.12,18.12,0,0,0-2.54,1.11,15,15,0,0,0-2.2,1.61,39,39,0,0,1-4.87,3.94,9.54,9.54,0,0,1-3.42,1.27,8,8,0,0,1-3.84-.24,14.35,14.35,0,0,1-3.12-1.57,13.64,13.64,0,0,0-2.33-1.2,27,27,0,0,0-5.34-1.24l-.73-.12-.66-.08-1.43-.15a17.31,17.31,0,0,1-3.45-.59,7.76,7.76,0,0,1-3.81-2.5,9.4,9.4,0,0,1-1.85-4,19,19,0,0,1-.26-3.6,6.86,6.86,0,0,0-.24-2.11,15.78,15.78,0,0,0-2.35-4.13c-.26-.35-.53-.69-.8-1a8.19,8.19,0,0,0-.73-.71A8.64,8.64,0,0,0,81.56,361a5.73,5.73,0,0,0-1.69.29,3.69,3.69,0,0,0-1.16.72l-1.62,1.87a21.43,21.43,0,0,1-2.73,2.57,14.21,14.21,0,0,1-3.76,2.05,26.36,26.36,0,0,1-3.5,1l-1.55.32a6.66,6.66,0,0,0-.8.25,7.17,7.17,0,0,0-1.55.81,7.42,7.42,0,0,0-2.32,2.76,5.77,5.77,0,0,0-.57,3.19A7,7,0,0,0,61.56,380a7.17,7.17,0,0,0,1.18,1.27,6.77,6.77,0,0,0,1.37.86,35.74,35.74,0,0,0,5,1.31A18.28,18.28,0,0,1,71,384c.66.27,1.3.59,1.94.9s1.23.72,1.8,1.13,1.14.85,1.62,1.32a22.9,22.9,0,0,1,4.55,6.07,50.64,50.64,0,0,1,2.7,6.05L85.7,405a47.22,47.22,0,0,0,2.27,4.9,49.61,49.61,0,0,0,14.19,16.36c1.49,1.06,3,2.08,4.61,3s3.1,1.57,5.28,2.77a20.64,20.64,0,0,1,5.72,4.54,16.66,16.66,0,0,1,2.14,3.17c.56,1.07,1,2.1,1.35,3s.71,1.72,1.06,2.42a8.31,8.31,0,0,0,.55.94,5.63,5.63,0,0,0,.66.85,19.14,19.14,0,0,0,3.92,3.35,40.71,40.71,0,0,0,10.22,4.54,101,101,0,0,0,23.06,4.26,108.73,108.73,0,0,0,11.84.07c2-.09,3.94-.27,5.91-.47a13.59,13.59,0,0,0,5.41-1.56,5.71,5.71,0,0,0,2-1.83,6.23,6.23,0,0,0,.91-2.56,25,25,0,0,0-.28-5.84,118.71,118.71,0,0,0-2.79-11.61c-1-3.88-1.55-7.85-2.52-11.72A38.94,38.94,0,0,0,176.84,412.51Zm0,0a39.21,39.21,0,0,1,4.41,11.1c.49,1.93.93,3.88,1.36,5.83s.86,3.9,1.41,5.81c1.07,3.84,2.46,7.6,3.22,11.57a28.49,28.49,0,0,1,.56,6.08,7.42,7.42,0,0,1-.92,3.09,7.06,7.06,0,0,1-2.25,2.36,15.89,15.89,0,0,1-5.89,2.12c-2,.35-4,.68-6,.91a108.6,108.6,0,0,1-12.1.79,107.12,107.12,0,0,1-24.28-2.42,46.33,46.33,0,0,1-12-4.21,25.48,25.48,0,0,1-5.53-4,11.86,11.86,0,0,1-1.3-1.4,14.3,14.3,0,0,1-1.11-1.55c-.64-1-1.13-2.05-1.58-3S114,444,113.6,443.3a10.47,10.47,0,0,0-1.34-1.7,13.55,13.55,0,0,0-3.84-2.56c-1.37-.64-3.64-1.43-5.52-2.41a51.55,51.55,0,0,1-5.65-3.2,55.24,55.24,0,0,1-17.72-18.81,57.58,57.58,0,0,1-2.92-5.89c-.83-2-1.52-3.86-2.22-5.64-1.37-3.54-2.93-6.67-4.79-8.35-.22-.24-.47-.38-.7-.59s-.49-.3-.72-.47-.51-.25-.77-.36a7.4,7.4,0,0,0-.94-.31c-.73-.21-1.65-.4-2.76-.66A18.71,18.71,0,0,1,60,391.08a15.89,15.89,0,0,1-6.44-5.57,16.46,16.46,0,0,1-2.8-7.92,15.24,15.24,0,0,1,.29-4.36,15.43,15.43,0,0,1,1.51-4,16.47,16.47,0,0,1,5.6-6.06,16.27,16.27,0,0,1,3.82-1.79,14.56,14.56,0,0,1,2.1-.48l1.4-.22a17.23,17.23,0,0,0,2.3-.48,5.16,5.16,0,0,0,1.54-.7A12.23,12.23,0,0,0,71,358c.31-.31.63-.63,1-1l.28-.28.43-.41c.29-.26.56-.54.87-.78a12.15,12.15,0,0,1,4.11-2,13.5,13.5,0,0,1,4.24-.4,16.36,16.36,0,0,1,7.4,2.4,16.62,16.62,0,0,1,3,2.42,14.33,14.33,0,0,1,1.29,1.5c.35.47.67.93,1,1.41a25.63,25.63,0,0,1,1.67,3,16.34,16.34,0,0,1,1.24,3.56,12.92,12.92,0,0,1,.17,3.84,13.62,13.62,0,0,0-.07,2.38,3.59,3.59,0,0,0,.48,1.48,2,2,0,0,0,1,.83,12.55,12.55,0,0,0,2.4.61l1.54.28.81.18.74.18a31.22,31.22,0,0,1,6.16,2,18.92,18.92,0,0,1,2.86,1.78,10.94,10.94,0,0,0,2.1,1.34,4.15,4.15,0,0,0,2,.3,6,6,0,0,0,2.23-.62,33.38,33.38,0,0,0,4.68-3.26,17.29,17.29,0,0,1,2.77-1.72,20.2,20.2,0,0,1,3-1.09,26.35,26.35,0,0,1,6.17-1,21.83,21.83,0,0,1,12,2.89,20.93,20.93,0,0,1,4.82,3.81,19.42,19.42,0,0,1,1.92,2.4,14.28,14.28,0,0,1,1.39,2.76c1.4,3.92.78,8.05,1.86,11.85a7,7,0,0,0,3.63,4.4c1.79.87,3.81,1.13,5.69,1.8a15.64,15.64,0,0,1,5.15,3A20,20,0,0,1,176.84,412.51Z"/></svg>