<svg id="Layer_1" data-name="Layer 1" xmlns="http://www.w3.org/2000/svg" viewBox="0 0 600 600"><title>Bahamas</title><path d="M273.27,193a24.52,24.52,0,0,0-2.56-5.31,33.53,33.53,0,0,0-3.69-4.62,77.58,77.58,0,0,0-8.81-8c-6.27-4.93-13.12-9.23-19.27-14.7a58.78,58.78,0,0,1-4.4-4.39,40,40,0,0,1-3.78-5,29.69,29.69,0,0,1-4.3-11.94,69.34,69.34,0,0,1-.17-12.37c.09-2,.17-4,.15-5.93l-.14-2.92a23.48,23.48,0,0,0-.25-2.9c-1.71-15.48-9.92-30-21.56-40.11l-2.19-1.9c-.72-.63-1.52-1.19-2.26-1.8s-1.5-1.21-2.29-1.75l-2.36-1.66c-.77-.57-1.58-1.08-2.4-1.58l-2.43-1.53c-1.7-.89-3.32-1.91-5.06-2.73a91.89,91.89,0,0,0-21.91-7.61l-2.87-.59c-1-.17-1.93-.3-2.89-.45-1.93-.32-3.88-.5-5.82-.69s-3.89-.25-5.83-.38-3.9-.1-5.84,0a75.14,75.14,0,0,0-22.64,3.78l-2.66.94a11.26,11.26,0,0,0-2,1,8.52,8.52,0,0,0-2.74,2.82,4.11,4.11,0,0,0-.61,2.72,16.74,16.74,0,0,0,3.57,10.86,29.78,29.78,0,0,0,6.45,6,52.32,52.32,0,0,0,18,8c.38.08.78.19,1.15.25l1.29.22,3.42.63c.56.12,1.14.21,1.69.36l1.67.47c1.11.33,2.21.65,3.3,1l3.19,1.24c.52.22,1.06.42,1.57.65l1.53.75c1,.51,2,1,3,1.52l2.88,1.7c.47.29,1,.56,1.42.86l1.38.92c.9.62,1.82,1.22,2.71,1.86l2.6,2c.43.33.88.64,1.29,1l1.24,1,2.49,2,2.38,2.14c1.62,1.39,3.06,3,4.6,4.4A141.48,141.48,0,0,1,198.4,132.8a93,93,0,0,1,6.47,10.93,56.38,56.38,0,0,1,4.58,12.35,33.25,33.25,0,0,1,.65,3.36q.12.85.21,1.71l.07,1.75a34.69,34.69,0,0,1,0,3.53c-.08,1.19-.23,2.38-.42,3.56a33.3,33.3,0,0,1-.87,3.51l-.55,1.73c-.22.56-.47,1.11-.71,1.67-.93,2.28-2.07,4.13-2.94,5.84-.45.85-.87,1.67-1.18,2.43a10.38,10.38,0,0,0-.7,2.08,4.34,4.34,0,0,0-.11,1.5,3.1,3.1,0,0,0,.34,1.07,2.52,2.52,0,0,0,1.46,1.22,14.48,14.48,0,0,0,4,.76c3.41.27,7.41-.05,11.8,0a33.21,33.21,0,0,1,3.47.24,25.39,25.39,0,0,1,3.68.69,28.29,28.29,0,0,1,6.83,2.74,41.13,41.13,0,0,1,10.41,9A82,82,0,0,1,252.24,215c1.07,1.79,2.1,3.59,3.08,5.37l2.93,5.28,5.86,10.56L275.8,257.3c3.88,7.05,7.66,14.17,11.72,21.11l12.15,20.87c4.06,7,8.12,13.91,12.3,20.78,2.07,3.45,4.2,6.88,6.3,10.31l1.59,2.56c.54.84,1.05,1.66,1.59,2.47a45.44,45.44,0,0,0,3.43,4.72c2.55,3,5.75,5.35,8.51,8,1.4,1.34,2.68,2.77,4,4.15s2.74,2.73,4.14,4.07l1.07,1,.54.5.64.65,1.28,1.29c.41.45.8.93,1.19,1.4a30.72,30.72,0,0,1,2.19,3c.61,1.05,1.27,2.09,1.76,3.17a46.92,46.92,0,0,1,2.55,6.34c.68,2,1.25,3.95,1.86,5.66a33.08,33.08,0,0,0,2,4.75c.18.37.39.71.59,1.05s.39.7.63,1a13.09,13.09,0,0,0,1.38,1.79c.22.25.44.52.67.76l.75.63.36.33.42.26c.27.17.53.36.82.53a16.85,16.85,0,0,0,4.12,1.46,48,48,0,0,0,5.31.76c1.93.21,4,.37,6.25.7a33.63,33.63,0,0,1,7,1.7l1.81.73c.59.28,1.18.62,1.76.93l.88.49.84.58a19.64,19.64,0,0,1,1.61,1.24,24.6,24.6,0,0,1,5,5.89,38.66,38.66,0,0,1,3.12,6.38,63.33,63.33,0,0,1,2,6.3c.54,2.05,1,4.05,1.48,6.09A159.74,159.74,0,0,1,407,448.42a71.5,71.5,0,0,1-.2,13,44.9,44.9,0,0,1-3.33,13.23,28.16,28.16,0,0,1-9.07,11.67,27,27,0,0,1-6.78,3.52,33.05,33.05,0,0,1-7.09,1.58,104.79,104.79,0,0,1-12.89.41c-2,0-3.9,0-5.68.22a27.92,27.92,0,0,0-5.09.93,34.62,34.62,0,0,0-4.85,1.73,51.49,51.49,0,0,0-4.64,2.45,74.34,74.34,0,0,0-8.82,6.22,14,14,0,0,0-2.07,1.88c-.64.72-1.23,1.51-1.85,2.26a11.26,11.26,0,0,1-2.08,1.95L330.31,511c-2.91,2-5.59,4-7.83,5.82a26.34,26.34,0,0,0-2.93,2.77,17.22,17.22,0,0,0-1.95,2.63,10.75,10.75,0,0,0-1,2.55,9.44,9.44,0,0,0-.19,2.65,11.45,11.45,0,0,0,.86,3.13,14.54,14.54,0,0,0,2.05,3.3,6.23,6.23,0,0,0,.67.79l.73.79a20.37,20.37,0,0,0,1.64,1.42,19.56,19.56,0,0,0,3.77,2.36,24.62,24.62,0,0,0,9.25,2.15,35.36,35.36,0,0,0,5.23-.11,46.56,46.56,0,0,0,5.38-.79c7.29-1.43,14.6-4.33,22.58-6.64A73.28,73.28,0,0,1,381,531.18,67.51,67.51,0,0,1,394.1,531c1.18.1,2,.15,2.92.2s1.86,0,2.8,0,1.87-.16,2.81-.25,1.88-.28,2.82-.46a76.68,76.68,0,0,0,11.3-3.27c7.59-2.67,15.41-5.93,25-6.26a70.48,70.48,0,0,1,13.4,1c4.19.66,8.15,1.44,11.82,2l2.74.41c1,.13,1.9.25,2.78.34a31.85,31.85,0,0,0,4.77.28,9.15,9.15,0,0,0,3-.43c.55-.25.48-.18.77-.31.09,0,.16-.11.25-.2a1.33,1.33,0,0,0,.3-.31,4.34,4.34,0,0,0,.5-.81,6.73,6.73,0,0,0,.1-3.47,21.8,21.8,0,0,0-.63-2.54c-.27-.9-.62-1.93-.91-2.76a52.42,52.42,0,0,0-2.26-5.2c-1.67-3.46-3.58-6.94-5.52-10.55s-3.78-7.28-5.69-10.83c-3.78-7.14-7.84-14.22-11.7-21.26-2-3.49-4.5-6.77-6.86-10.1a59.68,59.68,0,0,1-6.11-10.45q-2.57-5.46-5.06-10.95l-4.93-10.95a138.36,138.36,0,0,0-10.31-19.81,54.13,54.13,0,0,0-6.49-8.09,69.07,69.07,0,0,0-8.27-7c-6.08-4.53-13.15-8.65-20-13.86A160.9,160.9,0,0,1,368.83,358c-5.74-6-11-12.2-16.28-18.35s-10.42-12.43-15.49-18.76a478.21,478.21,0,0,1-28.6-39.31q-3.33-5.1-6.55-10.24c-2.17-3.46-4.23-6.79-6.42-10.16-4.36-6.74-8.88-13.54-12.78-20.77a80.83,80.83,0,0,1-5.14-11.3,43.87,43.87,0,0,1-2.13-12.34c-.23-4.09-.14-8.11-.32-12.09A44.24,44.24,0,0,0,273.27,193Zm1.23-.45a46.74,46.74,0,0,1,2.73,12c.45,4.05.63,8.09,1.11,12a52.19,52.19,0,0,0,1,5.79,32.84,32.84,0,0,0,1.81,5.42,77.12,77.12,0,0,0,5.7,10.25c4.29,6.64,9.26,12.88,14.2,19.27,2.48,3.18,4.93,6.53,7.28,9.72s4.8,6.41,7.24,9.59c9.86,12.62,19.54,25.33,29.78,37.6q7.65,9.24,15.61,18.18c5.32,6,10.73,11.84,16.33,17.28a113.84,113.84,0,0,0,18,14.31c6.37,4,13.51,7.53,20.87,11.86a91.24,91.24,0,0,1,10.95,7.55,71.22,71.22,0,0,1,9.74,9.75,101.09,101.09,0,0,1,7.72,10.81c2.29,3.67,4.32,7.38,6.28,11s3.72,7.21,5.52,10.82,3.56,7.23,5.31,10.85A61,61,0,0,1,465.89,448c1.1,3.94,2.07,7.94,3.5,11.72s3,7.47,4.6,11.16,3.15,7.37,4.8,11c.81,1.84,1.65,3.65,2.49,5.47s1.69,3.53,2.59,5.3c1.82,3.52,3.79,7.09,5.69,10.84.95,1.88,1.86,3.81,2.8,5.77.49,1,.9,1.85,1.39,2.81s1,2,1.49,3.11a22.88,22.88,0,0,1,2.13,8.37,18.29,18.29,0,0,1-.53,5.12l-.36,1.26c-.15.41-.32.81-.49,1.22a13.06,13.06,0,0,1-1.23,2.41,14.36,14.36,0,0,1-1.71,2.29c-.33.36-.66.71-1,1.06s-.73.62-1.11.93-.76.58-1.16.86-.79.47-1.2.69-.82.46-1.22.63l-1.21.48a25.66,25.66,0,0,1-8.84,1.45,46.86,46.86,0,0,1-7.25-.69c-1.11-.19-2.17-.41-3.18-.61s-2.17-.45-3.19-.72c-4.22-1-8.05-2.31-11.72-3.34a58.74,58.74,0,0,0-10.51-2.17c-.84-.08-1.67-.12-2.5-.14s-1.78,0-2.68,0c-1.82.09-3.68.18-5.57.36-3.8.35-7.75.86-11.77,1.45s-8.12,1.26-12.3,1.81l-3.16.38-3.2.28-1.61.09c-.54.05-1.08.09-1.63.09-1.05,0-2.28.06-3.11.11a42.91,42.91,0,0,0-10.86,2.27c-3.58,1.16-7.14,2.5-10.82,3.85-7.29,2.75-15,5.86-23.43,8a73,73,0,0,1-13.29,2.16,52.66,52.66,0,0,1-7.1,0,41.53,41.53,0,0,1-7.41-1.31,39.94,39.94,0,0,1-7.13-2.79c-1.17-.54-2.26-1.25-3.39-1.9L308.88,548a17.9,17.9,0,0,1-1.59-1.2,33.7,33.7,0,0,1-5.76-5.86,30.66,30.66,0,0,1-4.29-7.74,29,29,0,0,1-1.69-9.28,32.14,32.14,0,0,1,1.37-9.24,37.92,37.92,0,0,1,3.65-8,48.42,48.42,0,0,1,4.78-6.51,58.17,58.17,0,0,1,10.78-9.51l1.38-.95c.46-.3.89-.6,1.35-.88a13.07,13.07,0,0,1,3-1.35c1.08-.33,2.19-.6,3.27-.92a30.25,30.25,0,0,0,3.14-1.18,92.35,92.35,0,0,1,12.89-4.3,72,72,0,0,1,13.78-2,66.66,66.66,0,0,1,6.94.07c2.25.14,4.35.36,6.39.56s4,.39,5.86.52a40.65,40.65,0,0,0,5.37.09,23,23,0,0,0,4.74-.75,15.71,15.71,0,0,0,4-1.89,13.92,13.92,0,0,0,3.17-3.06l.36-.45.31-.49.64-1,.54-1.08a8,8,0,0,0,.51-1.11,34.3,34.3,0,0,0,2.37-10.13c.19-1.8.24-3.65.26-5.5s-.08-3.68-.22-5.64a149.38,149.38,0,0,0-3.36-23c-.43-1.88-.92-3.79-1.42-5.62a52,52,0,0,0-1.69-5.2,18.45,18.45,0,0,0-5-7.67c-2-1.62-4.7-2.55-8.28-3s-7.71-.49-12.4-1.43a28.81,28.81,0,0,1-7.24-2.52c-.58-.33-1.16-.71-1.74-1.07l-.85-.55c-.27-.2-.53-.43-.8-.64-.52-.43-1-.88-1.55-1.32s-.91-1-1.36-1.47a26.16,26.16,0,0,1-2.31-3c-.35-.49-.64-1-1-1.54s-.63-1-.89-1.58a45.09,45.09,0,0,1-2.71-6.36c-1.41-4.16-2.31-7.81-3.77-10.7-.33-.76-.77-1.4-1.15-2.1a21.32,21.32,0,0,0-1.36-1.91c-.25-.31-.48-.62-.74-.92l-.83-.87-.41-.44-.56-.54-1.11-1.08c-1.48-1.47-2.95-2.95-4.38-4.48a51.87,51.87,0,0,1-4.12-4.76c-2.55-3.38-4.31-7.34-6.39-11-1-1.83-2.16-3.56-3.2-5.37-.52-.89-1-1.81-1.52-2.7l-1.45-2.65c-2-3.52-3.9-7-5.88-10.55-3.94-7-8-14-12.06-20.92L282.4,281.41c-4.06-7-8.4-13.74-12.64-20.59L257.1,240.25,250.78,230l-3.16-5.15c-1.05-1.7-2.08-3.35-3.16-5a74.9,74.9,0,0,0-6.86-9,31.73,31.73,0,0,0-8-6.44,18.57,18.57,0,0,0-4.4-1.62,17,17,0,0,0-2.25-.36c-.77-.09-1.66-.09-2.55-.1-3.66,0-7.71.47-12.35.27a27.36,27.36,0,0,1-3.67-.42,17.37,17.37,0,0,1-4.06-1.25,13.3,13.3,0,0,1-4.09-2.82,12.72,12.72,0,0,1-2.74-4.3,13.51,13.51,0,0,1-.9-4.81,14.56,14.56,0,0,1,.69-4.44,32.68,32.68,0,0,1,3-6.52,34.62,34.62,0,0,0,2.5-4.91l.42-1.13.3-1.17a18.78,18.78,0,0,0,.41-2.38,33.48,33.48,0,0,0-.77-10.07c-.17-.86-.41-1.73-.62-2.59s-.51-1.73-.81-2.6c-.59-1.73-1.23-3.47-2-5.18a85.21,85.21,0,0,0-5.27-10.15c-.47-.84-1-1.65-1.52-2.46L187.29,133c-1.12-1.57-2.21-3.17-3.43-4.66-.6-.75-1.19-1.52-1.8-2.26l-1.92-2.15c-1.25-1.46-2.68-2.74-4-4.11-5.58-5.17-12-9.48-19-11.75l-2.59-.84c-.88-.23-1.76-.42-2.63-.63l-1.3-.31c-.44-.09-.88-.14-1.32-.21l-2.61-.43c-.87-.09-1.75-.14-2.61-.21l-1.3-.13c-.43,0-.86,0-1.29,0l-2.58-.06-1.72-.07c-.63,0-1.22-.08-1.84-.12a52.12,52.12,0,0,1-7.05-1.2,55.11,55.11,0,0,1-6.73-2.06A50.37,50.37,0,0,1,109,95,39.77,39.77,0,0,1,98.62,83.85a30.45,30.45,0,0,1-3.28-7.58,25.28,25.28,0,0,1-.86-8.34,29,29,0,0,1,1.7-7.87,18.4,18.4,0,0,1,5.21-7.7,23.93,23.93,0,0,1,7-4.25A25.78,25.78,0,0,1,112,47l3.16-.66A126.59,126.59,0,0,1,165,47.46a102.42,102.42,0,0,1,23.7,7.86A70.6,70.6,0,0,1,209,70.2c.75.73,1.44,1.52,2.12,2.32l2,2.38,1.9,2.5c.62.83,1.27,1.65,1.83,2.53,1.16,1.74,2.36,3.44,3.38,5.26.52.9,1.08,1.78,1.57,2.7l1.42,2.78a67.64,67.64,0,0,1,6.89,23.85,26.94,26.94,0,0,1,.19,3.12l.09,3.12c0,2.08-.17,4.12-.3,6.13a68,68,0,0,0-.15,11.74,26.15,26.15,0,0,0,3.56,10.68,38.26,38.26,0,0,0,3.35,4.7,57.74,57.74,0,0,0,4,4.24c5.75,5.41,12.47,9.9,18.72,15.08a56.71,56.71,0,0,1,8.73,8.59A44.15,44.15,0,0,1,274.5,192.55Z"/></svg>