<svg id="Layer_1" data-name="Layer 1" xmlns="http://www.w3.org/2000/svg" viewBox="0 0 600 600"><title>Bangladesh</title><path d="M174.77,168.41c1.47.11,2.94.3,4.41.35a9.86,9.86,0,0,0,4.34-.68,5.62,5.62,0,0,0,1.8-1.24,5,5,0,0,0,1.1-1.87,8,8,0,0,0,.09-4.28,10,10,0,0,0-1.78-3.82,10.25,10.25,0,0,0-3.32-2.52,32,32,0,0,1-3.93-2.28,8.75,8.75,0,0,1-1.74-1.75,7.69,7.69,0,0,1-1-2.3c-.41-1.53-.58-3-.89-4.39a7.11,7.11,0,0,0-1.52-3.44,2.94,2.94,0,0,0-1.34-.76,7.79,7.79,0,0,0-.86-.1c-.3,0-.6,0-.91,0a17.08,17.08,0,0,0-3.93,1.14,16.71,16.71,0,0,1-18.17-3.63,33.19,33.19,0,0,1-5.25-7.8,77.7,77.7,0,0,0-4.2-7.52,11.34,11.34,0,0,0-5.53-4.66,9.39,9.39,0,0,0-1.68-.42,17,17,0,0,0-1.89-.14c-1.41,0-3,0-4.66-.19a14.57,14.57,0,0,1-2.64-.54,10.82,10.82,0,0,1-1.36-.52,11.59,11.59,0,0,1-1.41-.83A10.25,10.25,0,0,1,115,109.4a18.68,18.68,0,0,1-1-5.09,30.77,30.77,0,0,1,.05-4.9,28.65,28.65,0,0,1,2.41-9.53,27.48,27.48,0,0,1,5.68-8.2,24,24,0,0,1,4-3.16,28.4,28.4,0,0,1,4.45-2.28c3-1.22,5.78-2,8.17-3.15a16.5,16.5,0,0,0,3.18-1.85,6.28,6.28,0,0,0,1.08-1,6.94,6.94,0,0,0,.79-1.18,5.71,5.71,0,0,0,.19-5.2,3.3,3.3,0,0,0-1.52-1.46l-.28-.12-.46-.19-1.06-.41a11.57,11.57,0,0,1-1.46-.68,6.47,6.47,0,0,1-1.93-1.67,6.55,6.55,0,0,1-1.11-2.19,11.51,11.51,0,0,1-.36-1.69c-.06-.51-.1-1-.13-1.4V52.63a12.3,12.3,0,0,1,1.69-6.16,9,9,0,0,1,6.1-4.22,12,12,0,0,1,6.53.69,19.5,19.5,0,0,1,4.83,2.77,34.25,34.25,0,0,1,3.77,3.3c4.62,4.69,7.92,9.88,11.37,14.35a77.07,77.07,0,0,0,5.39,6.37,30.63,30.63,0,0,0,2.83,2.6A12.44,12.44,0,0,0,180.8,74c.79.33,1.22.27,1.11.23s0,0,0-.09a.34.34,0,0,1,.08-.09c.06,0,0,0,0,0a1.34,1.34,0,0,0-.18.22c-.08.26.08-.58-.09-1.71a34.46,34.46,0,0,0-1-4.22,17.76,17.76,0,0,1-.58-3,10.45,10.45,0,0,1,.51-4.65,9.3,9.3,0,0,1,1.63-2.9,10.4,10.4,0,0,1,2.56-2.19,9.93,9.93,0,0,1,2.94-1.24,11.51,11.51,0,0,1,2.88-.31,13,13,0,0,1,4.38.85,18.81,18.81,0,0,1,3.15,1.54,20.39,20.39,0,0,1,5.12,4.38,20.1,20.1,0,0,1,3.44,5.73,22.45,22.45,0,0,1,1.41,6.23c.14,1.7.18,2.87.26,3.47a3.53,3.53,0,0,0,.1.58,1.59,1.59,0,0,0,.2.5,5.22,5.22,0,0,0,1.79,1.54c1,.64,2.33,1.32,3.88,2.23A20,20,0,0,1,219.31,85c1.12,1.3,2.08,2.5,2.95,3.56.44.54.86,1,1.26,1.49l.6.64.3.3.22.2a9.47,9.47,0,0,0,2.49,1.5,5.1,5.1,0,0,0,2.1.5c.05,0,.07,0,.07,0a0,0,0,0,1,0,0c-.07,0-.05,0-.16,0s-.3.19-.27.24a4,4,0,0,0,.21-2c-.08-1.08-.51-2.36-.93-4.34a17.6,17.6,0,0,1-.37-3.45,12.9,12.9,0,0,1,.21-2.15,7.66,7.66,0,0,1,.28-1.18,12.89,12.89,0,0,1,.48-1.31,12.29,12.29,0,0,1,3.49-4.55A13.39,13.39,0,0,1,237,72a14.37,14.37,0,0,1,4.93-.58c.42,0,.83.06,1.24.13s.86.14,1.13.2c.61.14,1.26.28,1.82.47a27.49,27.49,0,0,1,6.21,2.83,33.94,33.94,0,0,1,9.27,8.37,29.67,29.67,0,0,1,1.88,2.8c.49.88,1,1.76,1.44,2.66a42.05,42.05,0,0,1,2.23,5.46,58.28,58.28,0,0,1,2.26,10.71c.4,3.42.54,6.71.63,9.81s0,6.05,0,9.08-.08,6-.13,9.06l0,.68,0,.77c0,.53-.07,1-.11,1.49-.09,1-.2,1.89-.32,2.76-.25,1.74-.54,3.28-.76,4.64a25.91,25.91,0,0,0-.56,6,6,6,0,0,0,.8,2.75,2.55,2.55,0,0,0,.34.41,3.79,3.79,0,0,0,1,.57,8.92,8.92,0,0,0,1.87.55l.42.08.46,0c.36,0,.83.05,1.43.05,1.18,0,2.85-.06,5,.06a31.51,31.51,0,0,1,3.55.39c1.15.2,2.16.43,3.05.66l4.11,1.13,2,.47,2.06.47c5.48,1.25,10.94,2.33,16.38,3.05,10.87,1.44,21.73,1.64,32.13-.35,2.64-.51,5.56-1.2,8.76-1.81A57.68,57.68,0,0,1,362,156.64a34.32,34.32,0,0,1,6,.44,33.42,33.42,0,0,1,5.76,1.46c3.48,1.17,6.26,2.44,8.55,3.26a29.94,29.94,0,0,0,3.26,1,33.68,33.68,0,0,0,3.41.62c.6.06,1.18.15,1.79.18a16,16,0,0,0,1.83,0,15,15,0,0,0,1.88-.31c.63-.14,1.27-.35,1.89-.55,2.53-.9,5-2.28,7.7-3.07a45.45,45.45,0,0,1,8.51-1.34c1.5-.14,3-.29,4.62-.38s3.26-.14,4.91-.17a76.26,76.26,0,0,1,10.22.68,61.38,61.38,0,0,1,10.53,2.35,49.93,49.93,0,0,1,10.38,4.6,25.27,25.27,0,0,1,2.44,1.57c.8.57,1.59,1.13,2.34,1.76l1.13.93.57.48.64.6c.82.79,1.51,1.54,2.17,2.31a32.39,32.39,0,0,1,6.15,10.84c.17.63.33,1.23.47,1.88s.24,1.35.29,2.1a14.25,14.25,0,0,1-.44,5c-.12.44-.25.9-.4,1.31l-.47,1.07a11.92,11.92,0,0,1-1.15,2.12,15.1,15.1,0,0,1-1.57,2,18.3,18.3,0,0,1-1.87,1.68c-.64.46-1.31.91-2,1.29s-1.26.63-1.9.91-1.15.43-1.73.63-1,.3-1.57.45c-2,.5-3.58.76-4.78,1a5.3,5.3,0,0,0-1.87.58,1.21,1.21,0,0,0,.6-.35c.08-.09.1-.12.09-.09s0,0,0,0a.14.14,0,0,1,0,.07,6.45,6.45,0,0,0-.29,1.17c0,.14,0,.32-.05.46v.47c0,.39,0,.91,0,1.59a34.43,34.43,0,0,1-.21,5.87,33.83,33.83,0,0,1-1.5,6c-.54,1.62-1,2.91-1.26,3.87l-.35,1.19c-.13.42-.25.84-.4,1.26-.28.84-.56,1.69-.89,2.52a52.86,52.86,0,0,1-11.68,18.24c-.63.63-1.26,1.26-1.9,1.86l-1,.9c-.22.2-.2.2-.2.21a.1.1,0,0,1,0,0c-.3.32-1.11,1.36-1.92,2.45s-1.74,2.4-2.84,3.78a38.59,38.59,0,0,1-4.09,4.5c-.48.42-.88.81-1.44,1.24s-1.1.83-1.76,1.25-1.4.83-2.23,1.22c-.45.19-.9.37-1.37.54a9.9,9.9,0,0,1-1.45.46c-.55.12-1.1.23-1.66.32a12,12,0,0,1-1.24.15l-1.35.1c-.9.05-1.77.08-2.58.1s-1.44,0-1.91.06-.68.07-.88.1a5.7,5.7,0,0,0-.69.2c-.3.11-.66.24-1.11.45l-2.19,1c-.85.35-1.66.65-2.48,1-1.6.59-3.17,1.12-4.62,1.59-2.93.94-5.56,1.76-7.79,2.64A22.44,22.44,0,0,0,379.8,277a10.61,10.61,0,0,0-2.85,3.21,16.38,16.38,0,0,0-1.77,5,36.57,36.57,0,0,0-.62,6.64c0,1.2,0,2.44.08,3.69.09,1.54.16,3.11.22,4.65.12,3.08.18,6.13.22,9.14,0,1.5,0,3,0,4.48v2.37c0,.85-.06,1.64-.09,2.39l-.2,3.93c0,1.15,0,2.14,0,2.9,0,1.54.52,2.09-.47,1.54a.39.39,0,0,0-.21,0s0,0,0,.08.18.1.26.16l.56.2c.92.28,2.54.53,4.58,1a22.22,22.22,0,0,1,6.84,2.9,21.22,21.22,0,0,1,5.31,5.13,50.79,50.79,0,0,1,2.89,4.55,28.58,28.58,0,0,0,1.9,3,4.64,4.64,0,0,0,1.28,1.18c.67.38,1.21.51,1.07.42a1.9,1.9,0,0,0-.71-.05c-.19,0-.37.08-.57.11s-.18.09-.26.12a.49.49,0,0,0-.21.08c-.54.31-.38.29-.18-.22a13.62,13.62,0,0,0,.65-2.23c0-.22.11-.51.12-.68s0-.32,0-.47a3.33,3.33,0,0,0,0-.56c0-.2,0-.36,0-.62a30.91,30.91,0,0,0-.36-3.28c-.22-1.34-.48-2.76-.71-4.51a33.68,33.68,0,0,1-.33-6l0-.84.1-.91c.08-.62.14-1.21.26-1.84a21.7,21.7,0,0,1,1.13-3.84,22.23,22.23,0,0,1,1.85-3.68c.36-.58.77-1.09,1.17-1.62s.88-1.13,1.15-1.43c1.26-1.45,2.34-2.53,3.15-3.48a11,11,0,0,0,1.56-2.17c.09-.21.14-.4.06-.36a4.84,4.84,0,0,0-.31.49c-.14.29-.13.12-.39-.87s-.67-2.51-1-4.82a23.25,23.25,0,0,1-.24-4.1,19.37,19.37,0,0,1,.84-5.24,14.87,14.87,0,0,1,.61-1.61,12.39,12.39,0,0,1,.83-1.68c.34-.58.71-1.15,1.11-1.7a18.21,18.21,0,0,1,1.43-1.62,16.87,16.87,0,0,1,6.67-4.05,23.25,23.25,0,0,1,5-1c1.33-.11,2.34-.13,3.23-.16s1.47-.05,1.83-.1c0,0-.13-.07-.2-.07s.12-.08.16-.11l2.91-1.08a43.39,43.39,0,0,1,5.6-1.7c.65-.13,1.21-.26,1.94-.36s1.53-.18,2.29-.24,1.83,0,2.75,0c.42,0,1,.12,1.55.19s1.07.19,1.6.31a11.28,11.28,0,0,1,1.66.49c.58.2,1.14.42,1.7.65a17.89,17.89,0,0,1,3.2,1.82,16.35,16.35,0,0,1,2.68,2.25c.4.4.79.81,1.17,1.24s.6.77.9,1.17c.55.76,1.12,1.61,1.57,2.38s.76,1.37,1,2a35.63,35.63,0,0,1,1.45,3.64c.72,2.21,1.17,4,1.54,5.48a23,23,0,0,0,.91,3.07c.06.1.12.28.17.31l.06.1.19.42.86,1.84c1.19,2.56,2.65,5.59,4,9.24a44.12,44.12,0,0,1,1.71,6,49.91,49.91,0,0,1,.95,6.37,87.58,87.58,0,0,1,.17,10.71c-.1,3.12-.17,5.78-.11,7.93a16.33,16.33,0,0,0,.63,4.57c.07.23.19.36.23.57s.17.27.21.42A13.91,13.91,0,0,0,473,352c.69,1,1.7,2.3,2.91,4.16a37.35,37.35,0,0,1,3.48,6.73,45.29,45.29,0,0,1,1.93,6.15l.58,2.5c.17.76.32,1.47.46,2.2,1.2,5.82,2.22,11.85,2.91,18.06a177.23,177.23,0,0,1,1.11,19c0,3.23-.05,6.48-.25,9.75s-.45,6.36-.69,9.17a68.67,68.67,0,0,0-.3,7.77,33.12,33.12,0,0,0,1.15,7.93c.39,1.51.76,3.14,1,4.9.14.88,0,1.81.13,2.67s.38,1.72.61,2.57c.88,3.39,2.06,6.73,2,9.88,0,.78-.08,1.56-.14,2.32l-.19,2.05c-.08,1.33-.19,2.93-.33,4.45-.23,3.05-.63,6.07-1,9.06s-.84,6-1.26,8.9l-.68,4.39-.35,2.19c-.09-.39-.14.51-.17,1.38a26.57,26.57,0,0,1-.32,3.7,13.5,13.5,0,0,1-.29,1.36,11.42,11.42,0,0,1-.55,1.66,11,11,0,0,1-1.06,2,10.33,10.33,0,0,1-1.92,2.18,10.57,10.57,0,0,1-4.63,2.26,14.26,14.26,0,0,1-2.12.22,16.35,16.35,0,0,1-1.75-.13,13.58,13.58,0,0,1-4.52-1.6,21.81,21.81,0,0,1-2.88-1.92,26.68,26.68,0,0,1-2.41-2.19,27.93,27.93,0,0,1-3.49-4.64,53.86,53.86,0,0,0-4.14-6.32,7.39,7.39,0,0,0-1.3-1.15c-.21-.14-.22-.22-.72-.12a3.26,3.26,0,0,0-.85.35,4.53,4.53,0,0,0-.78.6,5.78,5.78,0,0,0-1.33,2,11.88,11.88,0,0,0-.48,6.25,33.43,33.43,0,0,0,.82,3.83c.44,1.67.71,3.2,1.06,4.56a20.48,20.48,0,0,0,1.09,3.47,13.28,13.28,0,0,0,.69,1.26c.28.45.6,1,1,1.5.73,1.09,1.61,2.33,2.53,3.88l1.23,2.08,1.18,2a37.42,37.42,0,0,1,4.22,10.47c.1.54.21,1.08.28,1.64l.21,1.47a16.18,16.18,0,0,1,0,4,12.47,12.47,0,0,1-.28,1.5,14,14,0,0,1-.73,2.06,11.28,11.28,0,0,1-1.75,2.65,11.08,11.08,0,0,1-3.1,2.43,11.34,11.34,0,0,1-3.61,1.15,12.3,12.3,0,0,1-2.86.08,14.52,14.52,0,0,1-2.07-.33c-.65-.15-1-.29-1.57-.46a24.55,24.55,0,0,1-4-1.81c-1-.58-1.92-1.13-2.75-1.69-1.67-1.09-3.12-2.15-4.54-3.26a54.14,54.14,0,0,1-4.21-3.67c-1.34-1.29-2.61-2.62-3.81-4-2.39-2.67-4.51-5.36-6.47-7.92l-1.41-1.9c-.4-.49-1.07-1.57-1.65-2.51a62.14,62.14,0,0,1-2.92-5.54c-.83-1.76-1.52-3.48-2.14-5.09s-1.19-3.1-1.68-4.49-1-2.66-1.45-3.78a30.87,30.87,0,0,0-1.3-3c-.06-.12-.11-.23-.12-.15l0,.08a.14.14,0,0,0,0,.14c0,.08-.1.14-.07.17a.41.41,0,0,1-.27-.08l-.25-.15c-.08-.06-.13-.12-.29-.24-.93-.78-2.91-2.13-5.89-4.63l-.56-.47-.63-.56L401,498.51c-.44-.43-.94-.93-1.39-1.4-.24-.24-.46-.48-.69-.73s-.46-.52-.71-.83a26.79,26.79,0,0,1-2.8-4c-.44-.78-.87-1.53-1.25-2.37s-.73-1.79-1-2.7a27.36,27.36,0,0,1-1.21-5.68,31.92,31.92,0,0,1,.08-5.46c.27-1.17.54-2.33.84-3.46s.76-2.13,1.18-3.17,1-1.92,1.44-2.86,1-1.74,1.55-2.58,1.08-1.56,1.62-2.33l1.63-2.13a75.08,75.08,0,0,0,5.44-7.47,25.1,25.1,0,0,0,2.73-6.9,16.9,16.9,0,0,0,.31-6.43,20.69,20.69,0,0,0-2.25-6.57,59.72,59.72,0,0,0-4.25-6.73c-1.63-2.27-3.44-4.62-5.21-7.13a69.46,69.46,0,0,1-5.17-8.16,45.92,45.92,0,0,1-2.18-4.7c-.64-1.61-1.14-3.19-1.58-4.71a55.59,55.59,0,0,1-1.82-8.45l-.3-1.94a10,10,0,0,0-.33-1.71,24.19,24.19,0,0,0-1.35-3.79,15.91,15.91,0,0,0-4.7-6.09,6.28,6.28,0,0,0-2.47-1.27.8.8,0,0,0-.54,0c-.06,0,0,.08-.07.07s0,.13-.11.13a2.92,2.92,0,0,1-.21.32c-.09.18-.19.33-.28.52l-.28.69-.26.81a40,40,0,0,0-.93,3.92,46.37,46.37,0,0,1-1.11,4.75c-.15.46-.3.91-.48,1.39s-.41,1-.73,1.54a12.23,12.23,0,0,1-2.58,3.16c-.52.4-1.05.8-1.6,1.17s-1.06.56-1.6.83-1,.4-1.57.61l-.78.26-.74.19a24.66,24.66,0,0,1-5.63.73,46.11,46.11,0,0,1-9.94-.83c-1.56-.26-3.1-.62-4.54-.94a30.36,30.36,0,0,1-14.57-8,37.17,37.17,0,0,1-3.58-4c-.52-.7-1-1.41-1.52-2.13a27.7,27.7,0,0,1-1.49-2.54,81.77,81.77,0,0,1-3.57-8.93,22.54,22.54,0,0,0-2.86-5.9c-.1-.17-.2-.21-.28-.31a2.6,2.6,0,0,0-.48-.41,10.81,10.81,0,0,0-1.12-.79,4.16,4.16,0,0,1-.42-.23,1.3,1.3,0,0,1-.23-.1s-.06-.06.06,0a.28.28,0,0,0,.12,0,.52.52,0,0,0,.21,0,1.34,1.34,0,0,0,.61-.35c0-.08,0,0,0,0s-.12.13-.2.27a9.78,9.78,0,0,0-1,2.61,34.7,34.7,0,0,0-.91,7.64c0,1.35,0,2.72,0,4.08s.15,2.62.34,4c.35,2.75.85,5.57,1.39,8.44s1.12,5.82,1.61,8.85,1,6.15,1.19,9.37a54.12,54.12,0,0,1-.18,9.92,43.58,43.58,0,0,1-2.35,9.92,56.55,56.55,0,0,1-4.24,9,77.3,77.3,0,0,1-5.41,7.93c-1.92,2.5-3.92,4.87-5.94,7.16a35.67,35.67,0,0,1-7.63,6.85,20.26,20.26,0,0,1-5.43,2.53,17.6,17.6,0,0,1-6.44.69,16.32,16.32,0,0,1-6.13-1.75,19.54,19.54,0,0,1-4.72-3.44,27,27,0,0,1-3.31-4c-.48-.68-.91-1.37-1.33-2s-.79-1.33-1.24-2.15c-.82-1.53-1.38-2.91-2-4.18a15.44,15.44,0,0,0-1.85-3.2,3.7,3.7,0,0,0-.24-.29l-.21-.22a2.28,2.28,0,0,0-.38-.3,1.82,1.82,0,0,0-.8-.29c-.22,0-.24,0-.37.07a.88.88,0,0,0-.34.59,4.69,4.69,0,0,0,0,1.48c0,.29.09.59.15.89l.24,1a13.78,13.78,0,0,1,.24,5.43c-1.18,7.29-7,12.55-13,15.16-1.5.67-3,1.25-4.54,1.76-.76.25-1.51.49-2.26.71-.41.12-.68.2-1,.31l-1.06.34a19.92,19.92,0,0,1-2.67.67,10.11,10.11,0,0,1-1.74.16c-.75,0-1.11,0-1.6-.07-.92-.07-1.76-.19-2.35-.24s-.9,0-.94.07a1.13,1.13,0,0,1-.27.29l-.16.14-.22.19-.55.51a31.79,31.79,0,0,0-2.38,2.76c-.86,1.09-1.77,2.3-2.92,3.61a24.09,24.09,0,0,1-4.29,3.95,15.23,15.23,0,0,1-3.26,1.75,11.86,11.86,0,0,1-4.78.79,11.1,11.1,0,0,1-5.24-1.66,11.39,11.39,0,0,1-3.85-3.84,14.77,14.77,0,0,1-1.64-4.2l-.52-2.47c-.13-.54-.26-.81-.32-.8a.59.59,0,0,0-.06.2c0,.09,0,.24.29.46a2.87,2.87,0,0,0,1.41.6c.68.09,1.08,0,.94.08s-.64.34-1.51.73c-.46.2-1,.43-1.66.65-.35.11-.68.22-1.1.32s-.77.18-1.09.23l-1,.17c-.33.05-.74.07-1.1.1a15.65,15.65,0,0,1-2.45,0,13,13,0,0,1-10-6.4,16.53,16.53,0,0,1-1.79-4.3,23,23,0,0,1-.66-3.56,36.91,36.91,0,0,1-.09-5.9q.16-2.7.51-5.1L176,445c.11-.76.18-1.24.27-2,.75-5.73,1.4-11.33,1.78-16.83a106.26,106.26,0,0,0-.19-16.09,68.88,68.88,0,0,0-1.16-7.76c-.56-2.64-1.22-5.38-1.89-8.23s-1.41-5.83-2.07-8.92a83.12,83.12,0,0,1-1.48-9.76,49.17,49.17,0,0,1,.18-10.68c.15-.92.23-1.83.45-2.75l.67-2.74a42.27,42.27,0,0,1,2-5.29c1.54-3.31,3.23-5.91,4.49-8.2a32.34,32.34,0,0,0,1.59-3.17c.19-.48.38-1,.51-1.4a7.53,7.53,0,0,0,.26-1,7.17,7.17,0,0,0-.51-4.07,4.14,4.14,0,0,0-.39-.62s-.07,0-.09-.08a1.76,1.76,0,0,0,.34,0,.47.47,0,0,0,.17,0c.1,0-.2,0-.62,0a27.22,27.22,0,0,0-3.45,1.14c-1.38.52-2.87,1.11-4.66,1.65a22.85,22.85,0,0,1-3.06.7,12.72,12.72,0,0,1-4.17,0,9.73,9.73,0,0,1-4.86-2.48c-.31-.31-.61-.64-.89-1a11.09,11.09,0,0,1-.7-1,11.49,11.49,0,0,1-1.73-6.14,14.22,14.22,0,0,1,.48-3.58,22.89,22.89,0,0,1,2.25-5.27,26.57,26.57,0,0,0,1.66-3.23,4.54,4.54,0,0,0,.37-1.66.69.69,0,0,0-.08-.34,3.36,3.36,0,0,0-.58-.73,9.61,9.61,0,0,0-1.19-1l-.79-.58-.43-.3c-.14-.09-.33-.24-.53-.4a21,21,0,0,1-7-8.91,26.48,26.48,0,0,1,.25-20.79c.42-.8.78-1.62,1.27-2.39l.76-1.14a7.94,7.94,0,0,1,.82-1.11,25.44,25.44,0,0,1,1.81-2c.62-.6,1.24-1.14,1.85-1.66,2.41-2,4.53-3.57,5.65-5.36,2.52-3.46,2.15-8.9-.19-13.48a21,21,0,0,0-4.61-6.22,33.24,33.24,0,0,0-6.68-4.69c-4.92-2.72-10.5-4.62-16-6.92a50.78,50.78,0,0,1-15.72-9.47,26.94,26.94,0,0,1-5.67-7.52,19.36,19.36,0,0,1-.91-2.21l-.38-1.13-.28-1.16c-.2-.83-.3-1.4-.5-2.09s-.41-1.36-.65-2c-.47-1.38-1-2.81-1.35-4.35a11.74,11.74,0,0,1-.24-4.88,10.5,10.5,0,0,1,.7-2.39,9.4,9.4,0,0,1,1.33-2.13,16.85,16.85,0,0,1,3.61-3c1.24-.84,2.43-1.62,3.54-2.54a14.64,14.64,0,0,1,4-2.38,7.57,7.57,0,0,1,4.85-.3,6,6,0,0,1,2.15,1.26,13.79,13.79,0,0,1,1.54,1.75,7.67,7.67,0,0,0,3,2.8,4.93,4.93,0,0,0,3.9-.24,7.58,7.58,0,0,0,3.16-2.7,11.83,11.83,0,0,0,1.53-4c.58-2.86.55-5.85,1-8.79a61.31,61.31,0,0,1,1.79-8.7c.4-1.43.86-2.84,1.36-4.23a8.9,8.9,0,0,1,2.26-3.83,5.1,5.1,0,0,1,4.2-1.18,12.46,12.46,0,0,1,4.12,1.63,41,41,0,0,0,16.61,5.82Zm0,.09c-1.47-.19-2.94-.35-4.4-.63a42.7,42.7,0,0,1-4.32-1.1,43.18,43.18,0,0,1-4.2-1.54c-1.39-.58-2.68-1.37-4-2a11.77,11.77,0,0,0-4-1.42,4.25,4.25,0,0,0-3.53,1.12,8.15,8.15,0,0,0-1.87,3.51c-.45,1.38-.86,2.78-1.21,4.19a62.53,62.53,0,0,0-1.52,8.57c-.37,2.86-.27,5.79-.82,8.92a13.37,13.37,0,0,1-1.66,4.6,9.35,9.35,0,0,1-3.82,3.39,6.74,6.74,0,0,1-5.32.37,6.34,6.34,0,0,1-2.27-1.52,19.7,19.7,0,0,1-1.55-1.79,5.78,5.78,0,0,0-2.76-2.3,5.47,5.47,0,0,0-3.5.33,12.24,12.24,0,0,0-3.41,2.09c-1.16,1-2.45,1.88-3.64,2.72a14.81,14.81,0,0,0-3.09,2.65,6.84,6.84,0,0,0-1.46,3.43c-.44,2.5.63,5.19,1.63,8,.25.71.51,1.42.73,2.17s.41,1.59.57,2.21l.26,1,.35,1a18.92,18.92,0,0,0,.82,1.91,24.2,24.2,0,0,0,5.19,6.6A47.58,47.58,0,0,0,137,233.47c5.46,2.15,11.16,4,16.51,6.75a37,37,0,0,1,7.56,5,25.25,25.25,0,0,1,5.63,7.2,21.25,21.25,0,0,1,2.57,8.79,16.89,16.89,0,0,1-.36,4.64,15.66,15.66,0,0,1-.75,2.22l-.47,1.07-.61,1c-1.66,2.7-4.16,4.53-6.33,6.46a18.37,18.37,0,0,0-5.16,6.75,21.48,21.48,0,0,0,.06,16.78,15.84,15.84,0,0,0,5.3,6.62,33,33,0,0,1,3.6,2.69,7.46,7.46,0,0,1,2.4,4,8.88,8.88,0,0,1-.44,4.58,30.37,30.37,0,0,1-1.89,4.08,17.5,17.5,0,0,0-1.65,4,6.87,6.87,0,0,0,.13,4.14,5.05,5.05,0,0,0,1.11,1.71,3.49,3.49,0,0,0,1.78.88,9.27,9.27,0,0,0,4.19-.57c2.77-.9,5.39-2.34,8.29-3.18a8.83,8.83,0,0,1,2.26-.38,5.15,5.15,0,0,1,1.17.11c.37.12.75.22,1.1.36a8.06,8.06,0,0,1,3.52,2.88,13.5,13.5,0,0,1,2.14,8.63,23.63,23.63,0,0,1-2.76,8.48c-1.32,2.65-2.81,5.21-4,7.92-2.35,5.42-2.7,11.49-2,17.32a124.06,124.06,0,0,0,3.79,17.29c.76,2.86,1.5,5.73,2.14,8.62a78.72,78.72,0,0,1,1.42,8.76,102.93,102.93,0,0,1,.21,17.73c-.42,5.9-1.17,11.77-2.08,17.62-.45,2.92-1.06,5.82-1.3,8.77a27.29,27.29,0,0,0-.06,4.43,10.15,10.15,0,0,0,1.13,4.25,4.61,4.61,0,0,0,1.47,1.63,5,5,0,0,0,2.07.74,9,9,0,0,0,4.34-.67,9.51,9.51,0,0,1,4.25-1.09,5.32,5.32,0,0,1,3.68,2.24,8.44,8.44,0,0,1,1.5,4.12,12,12,0,0,0,1,4.28,4.51,4.51,0,0,0,1.51,1.59,4.24,4.24,0,0,0,2.06.74,7.13,7.13,0,0,0,4.18-1.27c2.52-1.58,4.44-3.89,6.45-6a30.91,30.91,0,0,1,3.22-3,7.78,7.78,0,0,1,3.95-1.88,20.33,20.33,0,0,1,4.39.52,10.53,10.53,0,0,0,4.39-.37,62.76,62.76,0,0,0,8.53-2.4,21.85,21.85,0,0,0,7.48-4.65,14.67,14.67,0,0,0,4.3-7.6,10.92,10.92,0,0,0-.08-4.41,11,11,0,0,1-.37-4.38,3.67,3.67,0,0,1,1-2,3,3,0,0,1,2-.9,4.9,4.9,0,0,1,3.93,1.7c2.07,2.15,3.23,5,4.83,7.42a33.91,33.91,0,0,0,5.75,6.72,12.88,12.88,0,0,0,8,3.33,13.68,13.68,0,0,0,8.26-2.78,39.44,39.44,0,0,0,6.46-6.06c2-2.2,3.89-4.45,5.71-6.79a59.58,59.58,0,0,0,8.94-15.24,37.53,37.53,0,0,0,2.18-8.58,49.52,49.52,0,0,0,.29-8.86,142.65,142.65,0,0,0-2.53-17.55,85.5,85.5,0,0,1-1.86-17.61,43.5,43.5,0,0,1,.93-8.81,15.42,15.42,0,0,1,1.51-4.15,5.2,5.2,0,0,1,3.29-2.76,6.39,6.39,0,0,1,4.26.84,14.5,14.5,0,0,1,3.55,2.62c2,2.2,3.15,5,4.27,7.72a80.28,80.28,0,0,0,3.43,8.18,30.1,30.1,0,0,0,5.45,7,25.21,25.21,0,0,0,7.31,4.94,41.39,41.39,0,0,0,8.54,2.34,52.15,52.15,0,0,0,8.79,1.09,21.08,21.08,0,0,0,4.42-.32,9.56,9.56,0,0,0,4.07-1.65,7,7,0,0,0,1.48-1.63,12.61,12.61,0,0,0,1-2c.54-1.38.94-2.81,1.37-4.22s.84-2.84,1.39-4.21A9.86,9.86,0,0,1,373.8,374a4.79,4.79,0,0,1,1.95-1,5.1,5.1,0,0,1,2.2,0,10.48,10.48,0,0,1,3.92,2,31.92,31.92,0,0,1,6,6.47,32.9,32.9,0,0,1,4.3,7.73c1.07,2.76,1.92,5.6,2.87,8.39.48,1.4,1,2.79,1.56,4.16s1.25,2.68,1.94,4a85.76,85.76,0,0,0,4.7,7.51c3.34,4.87,7,9.6,9.65,14.87a32.14,32.14,0,0,1,3,8.31,27.5,27.5,0,0,1,.42,8.82c-.64,5.9-2.81,11.48-4.56,17.11a59.49,59.49,0,0,0-2.09,8.62c-.38,2.89-.7,6,.47,8.75a18.4,18.4,0,0,0,5.45,6.87c2.24,1.93,4.61,3.72,6.7,5.82.53.51,1,1.09,1.49,1.64s.89,1.18,1.33,1.77.77,1.27,1.1,1.93.6,1.35.84,2.05c.95,2.8,1.64,5.68,2.33,8.56s1.36,5.76,2.28,8.57a42.94,42.94,0,0,0,1.62,4.12c.65,1.34,1.36,2.63,2.06,3.93,2.82,5.19,5.93,10.3,10.09,14.53,1,1.06,2.1,2.08,3.23,3A15.6,15.6,0,0,0,452.4,545a2.78,2.78,0,0,0,2.15.15,2.47,2.47,0,0,0,1.08-1.85,16.77,16.77,0,0,0,0-4.42,29.59,29.59,0,0,0-2.61-8.45q-.9-2-1.86-4c-.65-1.33-1.39-2.61-2.08-3.92a21.91,21.91,0,0,1-1.75-4.07,35.06,35.06,0,0,1-.92-4.33c-.23-1.46-.44-2.93-.73-4.38s-.55-2.9-.71-4.37a18.81,18.81,0,0,1,.87-8.75,12.5,12.5,0,0,1,2.27-3.79,9.66,9.66,0,0,1,3.59-2.53A6.54,6.54,0,0,1,456,490a9.77,9.77,0,0,1,3.82,2.17c2.25,1.95,3.86,4.48,5.62,6.85a23.62,23.62,0,0,0,2.91,3.33,15.76,15.76,0,0,0,3.67,2.47,6.76,6.76,0,0,0,2.1.66,2.63,2.63,0,0,0,2.08-.55,3.12,3.12,0,0,0,.84-2,14.82,14.82,0,0,0,0-2.21c0-.74-.12-1.48-.1-2.22l.08-2.22.18-4.43.35-8.86q.15-4.44.23-8.87l0-4.44.11-4.43c.06-3,0-5.92-.18-8.87a59.1,59.1,0,0,0-1.37-8.76c-.64-2.88-1.34-5.76-1.73-8.7a84.33,84.33,0,0,1-.62-8.84,171.86,171.86,0,0,0-1-17.71c-.68-5.87-1.69-11.71-2.88-17.5s-2.54-11.55-3.91-17.31A62.72,62.72,0,0,0,463.9,369a35.7,35.7,0,0,0-4.55-7.59,23.58,23.58,0,0,1-3.84-7.94,33.77,33.77,0,0,1-1-8.79c0-5.92.89-11.81.55-17.73a34.4,34.4,0,0,0-1.59-8.7c-.89-2.82-2-5.56-3.13-8.3-.53-1.38-1.12-2.74-1.53-4.16s-.69-2.88-1-4.33c-.59-2.87-1.1-5.89-2.79-8.35a6.24,6.24,0,0,0-3.51-2.53,10.05,10.05,0,0,0-4.4,0c-2.91.53-5.68,1.65-8.59,2.2-.36,0-.73.13-1.09.16l-1.11.07c-.74,0-1.48,0-2.22-.06a14.46,14.46,0,0,0-4.4.34,4.84,4.84,0,0,0-1.91,1.08,4.64,4.64,0,0,0-1.14,1.87,10.86,10.86,0,0,0-.33,4.39c.31,2.92,1.29,5.84.76,8.8a9.84,9.84,0,0,1-1.78,4,26.39,26.39,0,0,1-2.9,3.35c-2,2.1-4.49,4-5.58,6.81a12.65,12.65,0,0,0-1,4.29,26.21,26.21,0,0,0,.09,4.43,79.36,79.36,0,0,1,.7,8.84,18.45,18.45,0,0,1-.63,4.38,19,19,0,0,1-1.6,4.13,8.6,8.6,0,0,1-2.92,3.27,5.86,5.86,0,0,1-4.27.72,12.74,12.74,0,0,1-7.22-4.83c-1.81-2.35-3.06-5.07-4.87-7.41a11.39,11.39,0,0,0-7.36-4.55c-1.45-.3-2.92-.43-4.38-.68a11,11,0,0,1-4.16-1.46,8.31,8.31,0,0,1-2.88-3.31,14.78,14.78,0,0,1-1.43-4.18,46,46,0,0,1-.49-8.85c0-3-.07-5.91-.13-8.87s-.17-5.91-.32-8.87-.44-5.9-.43-8.86c0-5.87.85-11.95,3.81-17.12a21.28,21.28,0,0,1,2.58-3.6c.52-.53,1-1.07,1.57-1.57s1.11-1,1.73-1.39a33.1,33.1,0,0,1,7.84-4.1c5.53-2.11,11.36-3.36,16.74-5.86a18.8,18.8,0,0,1,4.22-1.32,28.49,28.49,0,0,1,4.43-.27c.74,0,1.48,0,2.21-.07a13.46,13.46,0,0,0,2.2-.24A9.16,9.16,0,0,0,414.7,254a50.55,50.55,0,0,0,5.71-6.76,35.64,35.64,0,0,1,2.84-3.41c1.07-1,2.2-2,3.24-3a43,43,0,0,0,9.79-14.64c.57-1.36,1-2.77,1.49-4.18s1-2.78,1.48-4.18a25,25,0,0,0,1.18-4.27,29.61,29.61,0,0,0,.21-4.42,15.35,15.35,0,0,1,2-8.53,7.49,7.49,0,0,1,3.24-2.94,15.71,15.71,0,0,1,4.27-1.16c1.46-.24,2.93-.42,4.37-.73a10.41,10.41,0,0,0,4.09-1.63,6.78,6.78,0,0,0,2.46-3.57,7.77,7.77,0,0,0-.21-4.35,20.8,20.8,0,0,0-4.57-7.52,18.45,18.45,0,0,0-3.34-2.89,19.11,19.11,0,0,0-1.86-1.21,21.27,21.27,0,0,0-1.94-1.06A41.44,41.44,0,0,0,432,169.72a104.57,104.57,0,0,0-17.67,1.3,171.49,171.49,0,0,1-17.64,1.85,46.68,46.68,0,0,1-17.48-2.43c-2.78-1-5.48-2.24-8.29-3.16a25.07,25.07,0,0,0-8.72-1.32c-5.93.13-11.65,1.91-17.41,3.19a111.63,111.63,0,0,1-35.31,1.69c-5.88-.58-11.73-1.5-17.54-2.66-1.45-.28-2.89-.58-4.34-.9s-2.87-.74-4.3-1.08a21,21,0,0,0-4.38-.65c-1.47-.07-2.95,0-4.43,0a21.88,21.88,0,0,1-8.69-1.53,14.3,14.3,0,0,1-6.83-5.47,17.57,17.57,0,0,1-2.65-8.38,36.86,36.86,0,0,1,.73-8.83,61.92,61.92,0,0,0,1.17-8.78l.28-8.87c.09-3,.21-5.91.26-8.87s0-5.91-.27-8.86c-.48-5.85-1.8-11.83-5.11-16.76A24.24,24.24,0,0,0,247,83.05a17.36,17.36,0,0,0-3.94-2,8,8,0,0,0-4.34-.44A5.36,5.36,0,0,0,235.2,83a8.47,8.47,0,0,0-1,4.26c0,1.48.13,3,.08,4.43a9.22,9.22,0,0,1-1,4.29,4.43,4.43,0,0,1-3.64,2.23,10,10,0,0,1-4.35-.76,15.44,15.44,0,0,1-3.87-2.15,27.4,27.4,0,0,1-3.19-3.09c-1-1.09-2-2.21-3-3.27a14,14,0,0,0-3.6-2.54c-2.59-1.37-5.51-2.31-7.62-4.48a8.81,8.81,0,0,1-2.17-3.84,31.05,31.05,0,0,1-.68-4.39,15.39,15.39,0,0,0-1.07-4.27,14.24,14.24,0,0,0-2.34-3.72,14.05,14.05,0,0,0-3.37-2.83,9.62,9.62,0,0,0-4.11-1.45,3.53,3.53,0,0,0-3.57,2,8.84,8.84,0,0,0-.3,4.34c.16,1.47.42,2.93.54,4.41a8.6,8.6,0,0,1-.49,4.38A5.23,5.23,0,0,1,183,79.17a6.67,6.67,0,0,1-4.34-.67A24.23,24.23,0,0,1,171.82,73a84.09,84.09,0,0,1-5.58-6.9c-3.49-4.77-6.57-9.87-10.69-14.13a31.65,31.65,0,0,0-3.29-3,15.52,15.52,0,0,0-3.79-2.26,8,8,0,0,0-4.31-.54,5,5,0,0,0-3.51,2.4,8.44,8.44,0,0,0-1.15,4.2,13.49,13.49,0,0,0,.08,2.2,3.25,3.25,0,0,0,2.5,3.23c.68.29,1.38.54,2,.87a7.11,7.11,0,0,1,3.1,3.11,9.36,9.36,0,0,1-.33,8.58A9.6,9.6,0,0,1,144,74.08a20.37,20.37,0,0,1-3.86,2.18c-2.71,1.2-5.57,2-8.32,3.1A22.14,22.14,0,0,0,124.35,84a24.21,24.21,0,0,0-5.11,7.17A25.64,25.64,0,0,0,117,99.71a21,21,0,0,0,.7,8.75,7.49,7.49,0,0,0,2.46,3.57,8.7,8.7,0,0,0,4.11,1.43c2.91.4,6-.08,8.79,1a13.84,13.84,0,0,1,6.58,5.77,80.49,80.49,0,0,1,4.16,7.84,31.44,31.44,0,0,0,4.74,7.44,14.17,14.17,0,0,0,7.6,4.22,15.56,15.56,0,0,0,8.7-.67,17.75,17.75,0,0,1,4.3-1.09c.37,0,.75,0,1.12,0a10.5,10.5,0,0,1,1.1.18,4.23,4.23,0,0,1,1.88,1.16,8.16,8.16,0,0,1,1.7,4.06c.28,1.46.42,2.93.76,4.37a6.41,6.41,0,0,0,.84,2,7.65,7.65,0,0,0,1.51,1.6,32.18,32.18,0,0,0,3.76,2.32,10.69,10.69,0,0,1,3.41,2.82,10.11,10.11,0,0,1,1.66,4.09,8.36,8.36,0,0,1-.3,4.38,5.78,5.78,0,0,1-1.17,1.87,6,6,0,0,1-1.84,1.22,11.66,11.66,0,0,1-4.35.72c-1.48,0-3-.16-4.43-.24Z"/><path d="M331.4,393.89c-3.36-4.52-8-7.86-12.62-10.91-.54-.37-1.2-.61-1.47-.31a1.73,1.73,0,0,0-.42.71,7.71,7.71,0,0,0-.32.92,9,9,0,0,0-.13,3.9,21.77,21.77,0,0,0,3.18,7.37,28.92,28.92,0,0,1,3.74,8,25.47,25.47,0,0,1,.2,9c-.81,5.68-2,11.07-2.67,16.47a38.63,38.63,0,0,0-.43,7.76,7.56,7.56,0,0,0,.26,1.43c0,.09.06.11.08.18s0,0,0,.06,0-.05,0,0,0,.05.3,0a4.31,4.31,0,0,0,1.19-.7,39,39,0,0,0,5.21-5.93,46.69,46.69,0,0,0,4.57-6.74,32.58,32.58,0,0,0,4.54-15.64,26.61,26.61,0,0,0-1.3-8.19A29.89,29.89,0,0,0,331.4,393.89Zm0,0a34.54,34.54,0,0,1,4.07,7.33,31.07,31.07,0,0,1,1.82,8.23,32,32,0,0,1-.51,8.5c-.24,1.42-.62,2.8-1,4.19s-.88,2.74-1.46,4.06a47.72,47.72,0,0,1-4,7.68c-1.54,2.32-2.85,4.85-5.24,7.16a8.68,8.68,0,0,1-2.31,1.59,4.94,4.94,0,0,1-3.77.15,5.32,5.32,0,0,1-1.74-1.18,6.7,6.7,0,0,1-.58-.8,6,6,0,0,1-.38-.76,9.5,9.5,0,0,1-.68-2.65,37.38,37.38,0,0,1,.27-9c.74-5.71,2.18-11.22,3.38-16.55a22.4,22.4,0,0,0,.62-7.66,26.64,26.64,0,0,0-2.52-7.5,24.11,24.11,0,0,1-2.45-8.34,10.31,10.31,0,0,1,.59-4.4,9.41,9.41,0,0,1,.47-1,2.57,2.57,0,0,1,.79-1,1.48,1.48,0,0,1,1.36-.12,3.6,3.6,0,0,1,1,.58C323.59,385.86,328.06,389.37,331.4,393.89Z"/><path d="M348.15,400.6c-.72,2.67-.35,5.44,0,8.16a40.5,40.5,0,0,1,.33,4.15c.05,1.4,0,2.8-.1,4.19-.17,2.79-.49,5.55-.64,8.22a34.12,34.12,0,0,0,.28,7.62l-1.81-2a5.7,5.7,0,0,0,3.64-.93,5,5,0,0,0,.45-.3l.54-.36c.36-.24.69-.51,1-.77a23,23,0,0,0,1.89-1.62,11.46,11.46,0,0,0,2.64-3.78,11.21,11.21,0,0,0,.48-6l-.12-.67c-.05-.27-.11-.53-.14-.79a16.58,16.58,0,0,1-.13-3,22,22,0,0,0-.13-5.53,2.43,2.43,0,0,0-.59-1.08c-.29-.37-.59-.72-.91-1.07-.63-.69-1.31-1.35-2-2a24.82,24.82,0,0,0-2.21-1.77,8.77,8.77,0,0,0-1.21-.72,2.8,2.8,0,0,0-.67-.23A.46.46,0,0,0,348.15,400.6Zm0,0c.06-.26.36-.32.58-.27a2.35,2.35,0,0,1,.68.22,8.24,8.24,0,0,1,1.23.69,26.94,26.94,0,0,1,2.32,1.64c.77.57,1.5,1.17,2.22,1.79.37.31.73.63,1.07,1,.18.17.34.34.52.54s.16.2.25.32a2.1,2.1,0,0,1,.18.4,27.69,27.69,0,0,1,1.23,5.68,14.21,14.21,0,0,0,.64,2.57c.07.2.16.39.24.58l.28.68a13.41,13.41,0,0,1,.52,1.47,12.57,12.57,0,0,1,.26,6.52,13.88,13.88,0,0,1-3.13,5.85,21.61,21.61,0,0,1-2.3,2.2c-.4.33-.81.66-1.23.95l-.62.45c-.23.15-.49.32-.74.46a10.83,10.83,0,0,1-3.36,1.3,8.7,8.7,0,0,1-3.86-.08l-1.7-.46-.11-1.54a24.18,24.18,0,0,1,.09-4.51c.2-1.45.49-2.87.82-4.25.7-2.74,1.59-5.34,2.29-8a28.58,28.58,0,0,0,1.12-8C347.64,406.06,347.4,403.25,348.15,400.6Z"/><path d="M388,404.18a7.51,7.51,0,0,1-2.78-1.73,31.84,31.84,0,0,1-2.19-2.37,14.87,14.87,0,0,0-2-2,6.46,6.46,0,0,0-2.11-1.17,2,2,0,0,0-1.58,0,1.64,1.64,0,0,0-.79.95,3.52,3.52,0,0,0-.21.82,4.21,4.21,0,0,0,0,.93,9.33,9.33,0,0,0,.65,2.32c.3.86.8,1.75,1.2,2.63s.8,1.83,1.24,2.62a6.19,6.19,0,0,0,1.25,1.76,2.41,2.41,0,0,0,1.51.59,3.79,3.79,0,0,0,2-.49,3.59,3.59,0,0,0,1.51-1.61,6.23,6.23,0,0,0-.31-5.47,6.33,6.33,0,0,1,2.68,6.1,6.49,6.49,0,0,1-.58,1.88,5.93,5.93,0,0,1-1.23,1.66,6.87,6.87,0,0,1-3.68,1.84,6.34,6.34,0,0,1-4.4-.88,9.48,9.48,0,0,1-2.8-2.92,12,12,0,0,1-.84-1.45l-.77-1.45c-.49-1-1-1.92-1.43-3a13,13,0,0,1-.9-3.7,8.48,8.48,0,0,1,.12-2.17,7.32,7.32,0,0,1,.75-2.13,6.48,6.48,0,0,1,1.5-1.88,5.65,5.65,0,0,1,2.24-1.16,6.09,6.09,0,0,1,4.48.63,9.17,9.17,0,0,1,2.87,2.49,13.69,13.69,0,0,1,1.66,3A17.45,17.45,0,0,0,388,404.18Z"/></svg>