<svg id="Layer_1" data-name="Layer 1" xmlns="http://www.w3.org/2000/svg" viewBox="0 0 600 600"><title>Belize</title><path d="M182.4,200.35c1.53,26.3,2.92,52.62,4.57,79l.55,9.88c.18,3.3.35,6.59.57,9.89l1.2,19.78c.4,6.6.7,13.2,1.13,19.8s1,13.21,1.64,19.83c.32,3.3.59,6.61.85,9.92s.56,6.61.7,9.92.21,6.64.26,10a23,23,0,0,1-.25,5c-.31,1.65-.82,3.29-1.28,4.93-1,3.28-1,6.6-1.29,9.9s-.46,6.62-.82,9.91l-2,19.76c-.67,6.58-1.26,13.18-2.06,19.73l-1.13,9.85-1,9.85-1,9.84c-.34,3.16-.62,6.4-.91,9.68-.53,6.56-1,13.35-2.06,20.27a96.31,96.31,0,0,1-2.15,10.44c-.48,1.74-1,3.49-1.59,5.22l-.44,1.3c-.09.26-.09.3-.14.44l-.11.37c-.06.24-.15.49-.2.71a6.17,6.17,0,0,1-.08.62l-.06.3,0,.24c0,.16,0,.32,0,.46s0,.47.17.57a2,2,0,0,0,.73.78,10.94,10.94,0,0,0,2.1,1,19.87,19.87,0,0,0,3.28.64c.57.1,1.25.08,1.86.13l2,0c1.6,0,3.17,0,4.72,0,3.09-.07,6.11-.21,9-.55A42.49,42.49,0,0,0,207,538a13.9,13.9,0,0,0,2.77-1.19c.7-.41,1.08-.86,1.07-1.06a.11.11,0,0,0-.08-.09.5.5,0,0,0-.2,0l-.12.06s0-.11,0-.16.09-.25.13-.41c.18-.6.39-1.44.66-2.61A68.6,68.6,0,0,1,214.22,522c.26-.59.49-1.18.78-1.79s.62-1.28.88-1.79c.53-1,1.08-2,1.66-3a55,55,0,0,1,3.77-5.54c1.33-1.73,2.71-3.34,4.08-4.85.69-.76,1.38-1.49,2.07-2.2l2-2a36.21,36.21,0,0,0,4.54-5.46,10.27,10.27,0,0,0,1-2,5.71,5.71,0,0,0,.21-.74,5.45,5.45,0,0,1,.11-.71l.83-3.61a50.52,50.52,0,0,1,2.11-6.85c.12-.33.29-.7.44-1.06l.23-.54.3-.61c.41-.84.86-1.66,1.34-2.46a21.2,21.2,0,0,1,4.13-4.78c.41-.37.84-.71,1.29-1.05s.95-.66,1.44-1,1-.6,1.47-.86,1-.48,1.54-.71,1-.43,1.55-.63,1-.32,1.52-.47a25.19,25.19,0,0,1,2.94-.66,26.54,26.54,0,0,1,2.69-.33c.82-.06,1.7-.17,2.39-.17l4-.18c2.36-.08,4.14,0,5.58.06a23.25,23.25,0,0,0,3.28-.14,12.94,12.94,0,0,0,1.39-.21c.44-.13.89-.24,1.34-.35a19.82,19.82,0,0,0,5.19-2.55c.88-.48,1.68-1.3,2.58-1.89l1.29-1.12.66-.56.66-.63,1.33-1.25c.43-.46.85-.93,1.31-1.38s.89-.94,1.32-1.44.89-1,1.32-1.5c.84-1.09,1.73-2.12,2.54-3.29l1.27-1.72,1.25-1.79c1.64-2.43,3.24-5,4.83-7.63.83-1.35,1.5-2.59,2.21-3.87l1.07-1.92,1-2a135.55,135.55,0,0,0,6.83-17.13c2-6,3.6-12.34,5.21-18.76s3.16-13,4.69-19.71a141.22,141.22,0,0,1,5.91-20.31c.62-1.7,1.35-3.27,2-4.83l1-2.26c.34-.73.71-1.45,1.08-2.12a9.38,9.38,0,0,0,1.2-4.35c0-.76,0-1.48,0-2.19a10.61,10.61,0,0,1,.16-1.93,18.25,18.25,0,0,0,.78-5.9,7,7,0,0,0-.14-1.15,5.82,5.82,0,0,0-.24-1.11,23.75,23.75,0,0,0-1.07-2.88c-1-2.27-2.62-5.2-4.19-8.92a77,77,0,0,1-3.8-11,86.31,86.31,0,0,1-2.93-22.92,96.69,96.69,0,0,1,.93-11.52c.32-1.9.62-3.8,1.05-5.69.19-.94.4-1.88.65-2.82l.36-1.4c.12-.47.23-.91.42-1.52a51.17,51.17,0,0,1,5.28-11.7,50.45,50.45,0,0,0,3.51-6.46c0-.27.24-.57.24-.78a1.93,1.93,0,0,1,.11-.34,2,2,0,0,1,0-.34,6.37,6.37,0,0,0,0-1.73c0-.36-.19-.81-.26-1.22a5.43,5.43,0,0,0-.2-.76c-.07-.27-.17-.56-.27-.84-.38-1.15-.89-2.4-1.31-3.83a73.9,73.9,0,0,1-2-10.36l-.43-3c-.14-1.14-.29-2.27-.46-3.37s-.17-2.17-.27-3.24c-.05-.53-.1-1.07-.13-1.59l0-1.55c0-2.08.17-4,.34-6s.48-3.81.89-5.6a101.85,101.85,0,0,1,2.53-10.46c1-3.37,2.15-6.55,3.28-9.72l.43-1.17a9.9,9.9,0,0,0,.31-1.22l.54-2.42L340,168c.32-1.54.67-3.09.91-4.56l.84-4.77c.53-3.27,1-6.56,1.48-9.84A137.11,137.11,0,0,1,347,129.38c.46-1.59.93-3.16,1.44-4.73A42,42,0,0,1,350.2,120a46.92,46.92,0,0,1,2.41-4.45c.9-1.46,1.9-2.89,2.87-4.32s2-2.87,2.89-4.32a47.19,47.19,0,0,0,2.45-4.44,40.63,40.63,0,0,0,2.93-8.88,21.91,21.91,0,0,0,.43-8.1,12.11,12.11,0,0,0-3.06-6.29,7.61,7.61,0,0,0-2.42-1.69,5.28,5.28,0,0,0-1.24-.36c-.53,0-1.09-.13-1.62-.16a14.89,14.89,0,0,0-6.69,1.73c-2.44,1.17-5.06,2.86-8.14,4.57a48.75,48.75,0,0,1-5.16,2.48,29.26,29.26,0,0,1-3,1,15.54,15.54,0,0,1-1.63.39l-.84.17-.43.08a3.17,3.17,0,0,1-.53.08,14,14,0,0,1-5-.32,14.73,14.73,0,0,1-4.41-1.87,13.33,13.33,0,0,1-3.86-3.64,11.72,11.72,0,0,1-2.13-6,13.46,13.46,0,0,1,0-1.68,12.74,12.74,0,0,1,.22-1.56,12.2,12.2,0,0,1,1-2.91,15.07,15.07,0,0,1,3-4.08,26.31,26.31,0,0,1,2.72-2.25c.76-.57,1.44-1,1.75-1.32a3.3,3.3,0,0,0,1.05-1.28c0-.21-.06-.07-.1-.29s-.16-.22-.29-.33a5,5,0,0,0-1.1-.65,8.22,8.22,0,0,0-2.4-.62,9.26,9.26,0,0,0-1.39-.08c-.44,0-1.1,0-1.65.08a24.4,24.4,0,0,0-7,1.8,37.16,37.16,0,0,0-3.39,1.56,23.94,23.94,0,0,0-2.8,1.65c-.36.27-.54.41-1.09.89a17.9,17.9,0,0,0-1.38,1.25,32.31,32.31,0,0,0-2.67,2.79c-3.46,4-6.36,9.2-9.07,14.88l-4.14,8.84c-1.41,3-2.93,6.12-4.46,9.14-3.09,6-6.51,11.92-10.12,17.64s-7.47,11.27-11.52,16.66c-2,2.69-4.11,5.33-6.24,7.93-1.08,1.29-2.14,2.6-3.24,3.86l-1.64,1.91c-.58.65-1.15,1.32-1.76,2a50.82,50.82,0,0,1-8,7.09,32.79,32.79,0,0,1-4.84,2.79,23,23,0,0,1-5.57,1.72,16.41,16.41,0,0,1-11.51-2.37c-3.22-2.09-5.43-4.7-7.77-6.77-.58-.52-1.16-1-1.76-1.47s-1.2-.77-1.8-1.18-1.31-.62-2-.89L202,150.1a5.71,5.71,0,0,0-1.08-.28,22.21,22.21,0,0,0-9.15,0,20.19,20.19,0,0,0-8.42,3.86,14,14,0,0,0-4.9,7.74,32.27,32.27,0,0,0-.45,9.68c.27,3.27.76,6.52,1.35,9.76l1.8,9.7a64.8,64.8,0,0,1,1.13,9.8Zm-.09,0c-.58-6.57-2.57-12.86-4.06-19.29-.37-1.61-.76-3.22-1.05-4.86s-.54-3.28-.74-4.94c-.08-.84-.19-1.67-.25-2.52s-.07-1.69-.07-2.54a26.7,26.7,0,0,1,.47-5.16l.3-1.29a9.11,9.11,0,0,1,.44-1.27c.16-.42.32-.84.49-1.25l.68-1.17a16.61,16.61,0,0,1,3.41-4.05,22.44,22.44,0,0,1,9.24-4.64,24.91,24.91,0,0,1,10.28-.42,22.86,22.86,0,0,1,2.54.61c.83.27,1.64.61,2.45,1s1.58.83,2.27,1.34,1.38,1,2,1.55c2.6,2.14,4.86,4.52,7.53,6.1a12.37,12.37,0,0,0,8.82,1.53,17.86,17.86,0,0,0,4.42-1.54,27.08,27.08,0,0,0,4-2.54,45.22,45.22,0,0,0,7-6.69,235,235,0,0,0,22.3-32.39c3.26-5.71,6.31-11.54,9.05-17.52s5.15-12.1,7.74-18.15,5.54-12,9.6-17.2a38.92,38.92,0,0,1,6.93-7,35.91,35.91,0,0,1,18.53-6,19.36,19.36,0,0,1,9.56,2A11.29,11.29,0,0,1,330,55.14a8.73,8.73,0,0,1,1.72,4.55,8.32,8.32,0,0,1-1,4.76,11.74,11.74,0,0,1-3.29,3.62,47.17,47.17,0,0,0-4,2.94A7.05,7.05,0,0,0,322,72.94a4.71,4.71,0,0,0-.53,2.39,5.23,5.23,0,0,0,2.57,4,7.36,7.36,0,0,0,4.69,1.2,29.12,29.12,0,0,0,9.29-3.2c2.93-1.48,5.8-3.11,8.85-4.35a20.08,20.08,0,0,1,9.64-1.57c.82.11,1.62.29,2.42.46a12.25,12.25,0,0,1,2.29.9A13.4,13.4,0,0,1,365,75.83a18.11,18.11,0,0,1,4.08,8.85,29.7,29.7,0,0,1-.24,9.82,98.63,98.63,0,0,1-2.36,9.59l-2.65,9.5-5.31,19-5.32,19-2.65,9.51c-.88,3.17-1.78,6.33-2.83,9.45-2.1,6.24-4.38,12.42-6.17,18.75a81.56,81.56,0,0,0-2.18,9.62c-.3,1.62-.41,3.27-.57,4.9a40.55,40.55,0,0,0,0,4.93,28.63,28.63,0,0,0,2.23,9.56c1.24,3,2.72,6,4.07,9a44.06,44.06,0,0,1,3.28,9.29,18.84,18.84,0,0,1-.58,9.74,52.59,52.59,0,0,1-4.42,8.81,42.35,42.35,0,0,0-4.06,9,79,79,0,0,0-2.09,9.63,81.09,81.09,0,0,0-.81,9.83,74.52,74.52,0,0,0,2.24,19.56,67,67,0,0,0,3.09,9.36c1.21,3.06,2.76,6,4,9a32.47,32.47,0,0,1,1.55,4.68,17,17,0,0,1,.43,2.43,20.37,20.37,0,0,1,.19,2.46,30.53,30.53,0,0,1-1.54,9.71c-2,6.29-5.24,12.06-7.86,18.09-5.34,12.07-8.16,25-10.88,37.88s-5.2,25.85-9.87,38.18a131.88,131.88,0,0,1-8.4,17.84,97.59,97.59,0,0,1-5.26,8.35,63.5,63.5,0,0,1-6.29,7.59l-.85.9-.91.83-1.83,1.65a45.1,45.1,0,0,1-4,2.93,34.84,34.84,0,0,1-8.88,4.23l-2.38.65c-.79.22-1.62.29-2.43.44a35,35,0,0,1-4.91.48c-3.27.14-6.63.07-9.75,1.17a10.4,10.4,0,0,0-4.11,2.63,11.87,11.87,0,0,0-1.51,1.94,20.61,20.61,0,0,0-1.13,2.19c-1.3,3-1.93,6.29-3.07,9.38a27,27,0,0,1-5.07,8.4,60.46,60.46,0,0,1-7.12,6.83c-5.05,4.17-9.83,8.92-12.8,14.83-1.44,3-2.31,6.15-3.52,9.21a27.13,27.13,0,0,1-2.15,4.44,12.56,12.56,0,0,1-3.23,3.69,22.25,22.25,0,0,1-9.11,3.59,55.85,55.85,0,0,1-9.83.85c-3.29,0-6.58-.14-9.86-.42-1.64-.13-3.27-.3-4.91-.48-.82-.08-1.63-.21-2.45-.32s-1.62-.27-2.42-.49a19,19,0,0,1-8.78-4.25,9.9,9.9,0,0,1-2.9-9l.2-1.21c.09-.4.23-.79.34-1.19.23-.79.49-1.57.75-2.35.54-1.56,1-3.14,1.4-4.73a88.55,88.55,0,0,0,1.91-9.68c1-6.51,1.39-13.08,1.81-19.65s1-13.13,1.45-19.69c1-13.12,2.13-26.23,2.85-39.37l1.22-19.71c.23-3.28.3-6.57.45-9.86l.4-9.86.78-19.72.5-19.74q1.74-78.94.19-157.91Z"/><path d="M410.81,118.48c-.8,3.2-3,5.76-5.2,8.15-1.11,1.2-2.18,2.42-3.17,3.7a24.76,24.76,0,0,0-2.49,4.13c-2.72,5.88-3.21,12.41-5.12,18.82A34.85,34.85,0,0,1,393,158a11.07,11.07,0,0,1-.6,1.19c-.22.39-.45.76-.68,1.13-.48.72-1,1.4-1.45,2.07-1,1.33-1.93,2.61-2.77,3.91a16.28,16.28,0,0,0-1.94,3.8,4.43,4.43,0,0,0-.22,1.61,2.17,2.17,0,0,0,.26,1.1s-.1-.12-.1-.12.15,0,.39,0a19.39,19.39,0,0,0,2.05-.29c.39-.07.89-.14,1.37-.19s.92-.07,1.36-.08l2.43-.07a15.09,15.09,0,0,0,2.05-.19,4.52,4.52,0,0,0,1.49-.54,6.5,6.5,0,0,0,2.31-2.6c.68-1.21,1.26-2.65,1.93-4.19.31-.75.74-1.64,1.06-2.28s.66-1.41,1-2.12q.92-2.16,1.72-4.42c2.24-6,4-12.44,7.83-18.28,2.11-2.77,4.55-4.88,6.71-7.28a30.84,30.84,0,0,0,3-3.75,8.73,8.73,0,0,0,1.59-4.33,6.9,6.9,0,0,0-1.62-4.3,9.4,9.4,0,0,0-3.78-2.89,6.09,6.09,0,0,0-4.7-.2A5.29,5.29,0,0,0,410.81,118.48Zm0,0a5.29,5.29,0,0,1,2.82-3.79,6.31,6.31,0,0,1,4.79.07,10.46,10.46,0,0,1,4,2.79,7.43,7.43,0,0,1,2,4.57A10.29,10.29,0,0,1,423.1,127a31.56,31.56,0,0,1-2.74,4.17c-1.95,2.63-4.2,5.11-5.79,7.71a9.75,9.75,0,0,0-.5,1l-.47,1.09c-.3.72-.59,1.46-.85,2.2-.55,1.48-1,3-1.44,4.55-.9,3.08-1.63,6.24-2.56,9.42q-.69,2.39-1.55,4.78c-.3.79-.59,1.59-.93,2.38l-.91,2.18a42.2,42.2,0,0,1-2,4.73,11.36,11.36,0,0,1-4.15,4.54,9.42,9.42,0,0,1-3.09,1.1,17.94,17.94,0,0,1-2.81.25c-.87,0-1.69,0-2.45,0-.37,0-.74,0-1.08,0s-.63.06-1.05.12a17.39,17.39,0,0,1-2.8.24,5.82,5.82,0,0,1-2-.38,4.4,4.4,0,0,1-2-1.59,5.33,5.33,0,0,1-.78-1.94,8.86,8.86,0,0,1-.17-1.63,8.62,8.62,0,0,1,.6-3.18,17.6,17.6,0,0,1,2.82-4.68c1.06-1.35,2.16-2.58,3.22-3.8a23,23,0,0,0,2.81-3.63,32,32,0,0,0,2.1-4.18c1.21-2.93,2.15-6,3.16-9.16a50.1,50.1,0,0,1,3.69-9.14,25.88,25.88,0,0,1,2.78-4.07c1.07-1.25,2.25-2.38,3.37-3.56a36.21,36.21,0,0,0,3.2-3.68A13.56,13.56,0,0,0,410.81,118.48Z"/><path d="M408.86,258.85A135,135,0,0,0,401,277.36a63.79,63.79,0,0,0-2.3,9.72,19.68,19.68,0,0,0,.59,9.48,13.44,13.44,0,0,0,5.64,6.88,10.57,10.57,0,0,0,4,1.48,8.76,8.76,0,0,0,4-.35,9.3,9.3,0,0,0,5.81-5.13,19.56,19.56,0,0,0,.79-4.35,19.48,19.48,0,0,1,.56-2.82,11.12,11.12,0,0,1,1.33-2.94,31.43,31.43,0,0,1,3.57-4.1,12.82,12.82,0,0,0,1.35-1.69,16.68,16.68,0,0,0,1.17-1.9,20.27,20.27,0,0,0,2.23-13.15l-.23-1.25c-.08-.46-.14-.9-.19-1.34-.11-.88-.18-1.73-.25-2.58-.27-3.39-.42-6.72-.74-10a38.44,38.44,0,0,0-1.88-9.61,6.7,6.7,0,0,0-1.15-2,4,4,0,0,0-1.86-1.09,4.79,4.79,0,0,0-4.28,1.21,17.8,17.8,0,0,0-3.32,3.65,39.86,39.86,0,0,0-2.64,4.27C411.61,252.72,410.31,255.82,408.86,258.85Zm0,0c1.43-3,2.7-6.15,4.21-9.16s3.1-6,5.67-8.38a8.31,8.31,0,0,1,2.22-1.44,4.94,4.94,0,0,1,2.75-.29,5.16,5.16,0,0,1,2.53,1.22,8.36,8.36,0,0,1,1.61,2.24,40.26,40.26,0,0,1,3,9.88c.67,3.33,1.19,6.69,1.74,10,.14.82.28,1.63.44,2.41q.12.58.27,1.14l.33,1.2a21.57,21.57,0,0,1,.71,5.48,24,24,0,0,1-2.5,10.73,20.88,20.88,0,0,1-1.39,2.43,15.5,15.5,0,0,1-1.75,2.28,30.17,30.17,0,0,0-3,3.48,6.38,6.38,0,0,0-.76,1.63,14.84,14.84,0,0,0-.42,2.11,21.65,21.65,0,0,1-1.25,5.49,12.38,12.38,0,0,1-3.8,4.82,14.18,14.18,0,0,1-5.31,2.61,12.15,12.15,0,0,1-5.93.05,14.32,14.32,0,0,1-5.21-2.42,16.33,16.33,0,0,1-6.07-9.05,21.86,21.86,0,0,1,.33-10.47,72.75,72.75,0,0,1,3.1-9.68C402.78,270.84,405.9,264.88,408.86,258.85Z"/></svg>