<svg id="Layer_1" data-name="Layer 1" xmlns="http://www.w3.org/2000/svg" viewBox="0 0 600 600"><title>Bolivia</title><path d="M241.07,128.87A119,119,0,0,1,236.81,116a80.68,80.68,0,0,1-2.36-13.37q-.36-3.37-.61-6.75c-.15-2.28-.23-4.55-.28-6.81-.11-4.52-.15-9-.41-13.44a68.5,68.5,0,0,0-1.8-13,26,26,0,0,0-2.2-5.77,5.41,5.41,0,0,0-.35-.64l-.35-.48a6.52,6.52,0,0,0-.8-.86c-.3-.25-.64-.45-1-.68a10.35,10.35,0,0,0-1.12-.51,14.76,14.76,0,0,0-5.51-.67A35.57,35.57,0,0,0,214,54a83,83,0,0,0-12.29,3.91,217,217,0,0,0-23.8,11.54c-7.65,4.18-15.05,9-22.66,13.95-3.8,2.45-7.66,4.91-11.64,7.28q-3,1.77-6.08,3.48c-1,.55-2.06,1.12-3.11,1.67l-1.59.8L132,97l-.4.2-.58.26a34.76,34.76,0,0,1-8.48,2.35c-2.59.42-5,.65-7.41.84-4.73.36-9.21.55-13.42.9-2.1.18-4.12.4-6,.71a25.66,25.66,0,0,0-4.86,1.25,4.88,4.88,0,0,0-2.16,1.32c0,.07-.06.07,0,.1h0l.05,0h0l0,.11c0,.09,0,.15-.06.24s-.06.33-.07.52a7.78,7.78,0,0,0,.26,2.74,12.52,12.52,0,0,0,1.44,3.31c.17.29.32.51.54.82l.7,1c.22.33.52.65.77,1s.52.65.83,1c1.13,1.32,2.51,2.69,4,4.14a120.86,120.86,0,0,1,10.19,10.38,45.22,45.22,0,0,1,5,7.22c.37.68.76,1.33,1.08,2l1,2.14.23.53.18.46.35.93.69,1.86A88.19,88.19,0,0,1,120.3,176a96.83,96.83,0,0,1-1.61,15.28c-.23,1.26-.53,2.51-.79,3.77s-.64,2.66-1,3.93c-.74,2.59-1.63,5-2.56,7.42-3.78,9.49-8.45,17.52-12.09,25.12s-6.23,14.6-6.46,20.85a27.19,27.19,0,0,0,1.15,9.13,88.49,88.49,0,0,0,4.49,10.73c.94,2,1.94,4.15,2.93,6.43s2,4.7,2.86,7.31a53.44,53.44,0,0,1,2.18,8.62,38.33,38.33,0,0,1,.26,10.28,38.82,38.82,0,0,1-2.51,9.73,60.86,60.86,0,0,1-3.69,7.69c-2.54,4.52-4.87,8.11-6.29,11.09a21,21,0,0,0-1.37,3.81,22.14,22.14,0,0,0-.48,4c0,.7,0,1.5,0,2.26s.11,1.58.25,2.43c.19,1.65.57,3.44,1,5.24.85,3.68,2.09,7.52,3.5,11.69.7,2.05,1.45,4.25,2.21,6.64l2.08,6.68c1.34,4.29,2.58,8.32,4,11.91a46.56,46.56,0,0,0,4.63,9.15,7.45,7.45,0,0,0,.62.87l.61.8,1.59,1.85a48.05,48.05,0,0,1,5.62,7.59,38.72,38.72,0,0,1,4.28,11.35,50.31,50.31,0,0,1,1,10.17c0,3-.16,5.77-.33,8.21l-.47,6.46c-.05,1.86-.1,3.64-.11,5.5s.08,3.75.24,5.69c.22,3.84.61,7.75,1.2,11.68.15,1,.34,2,.44,2.95a27.33,27.33,0,0,1,.12,3c0,2-.58,4.19-.71,6.31a18.64,18.64,0,0,0,.32,6.21c.46,2,.8,4,1.34,6s1.07,4,1.71,5.89,1.32,3.86,2.08,5.73a111,111,0,0,0,10.92,20.69,52.38,52.38,0,0,0,3.19,4.4l1.63,2.09A18.41,18.41,0,0,0,149.5,532a18.15,18.15,0,0,0,6.08,3.94,10.82,10.82,0,0,0,2.78.65,7.4,7.4,0,0,0,2.31-.1,9.57,9.57,0,0,0,2.94-1.39,26.41,26.41,0,0,0,3.67-3.09c2.61-2.57,5.31-6,8.49-9.7,1.6-1.85,3.33-3.8,5.39-5.76a38.15,38.15,0,0,1,7.48-5.63A26.42,26.42,0,0,1,199,507.6a23,23,0,0,1,2.74-.11l1.35,0c.42,0,.72.07,1.08.1,1.42.13,2.75.34,4.08.56a104.89,104.89,0,0,1,14.36,3.86c4.43,1.5,8.64,2.94,12.64,4.09l1.48.39,1.09.3,1.24.38a23.35,23.35,0,0,1,4.86,2.34,25.38,25.38,0,0,1,7.33,7.08,63,63,0,0,1,4.1,6.83,35.45,35.45,0,0,0,2.89,4.69,4.46,4.46,0,0,0,1.95,1.65,6.37,6.37,0,0,0,2.27.32,4.84,4.84,0,0,0,.78-.06c.24,0,.56,0,.69-.08a5.2,5.2,0,0,1,.51-.11.73.73,0,0,1,.31-.14c.08-.06.13-.14.22-.16s.13-.17.22-.2a5.76,5.76,0,0,0,.73-.8,6.54,6.54,0,0,0,.53-.67,8.29,8.29,0,0,0,.6-.88,2.38,2.38,0,0,1,.42-.42,1.76,1.76,0,0,0,.41-.54,12.8,12.8,0,0,0,.37-1.4c.42-2,.51-4.51,1.7-7a39,39,0,0,1,5.2-7.83,28.8,28.8,0,0,1,4.11-3.94,23.56,23.56,0,0,1,2.68-1.79c.48-.28,1-.55,1.47-.82s1.08-.48,1.62-.7a22.57,22.57,0,0,1,3.41-1.08,25.24,25.24,0,0,1,3.51-.53,20.87,20.87,0,0,1,3.36,0,25.71,25.71,0,0,1,3.06.41,39.26,39.26,0,0,1,9.13,3.16c2.42,1.15,4.38,2.21,6.08,3a18.57,18.57,0,0,0,3.79,1.53c.21.07.31,0,.43.09l.18,0c.05,0,0,0-.08,0s0,0,0,0-.06,0,0,0a3.58,3.58,0,0,0,.36-.41,16.38,16.38,0,0,0,1.54-3,32.71,32.71,0,0,0,1.41-4.84A85.75,85.75,0,0,0,322.7,499c.17-2.14.28-4.34.44-6.64s.25-4.69.57-7.45l1-7.35c.33-2.33.69-4.72,1.12-7.15a116.14,116.14,0,0,1,3.66-15.06,70.42,70.42,0,0,1,7.19-15.53c.83-1.26,1.61-2.54,2.53-3.77s1.83-2.45,2.86-3.61l1.54-1.75a21.42,21.42,0,0,1,1.61-1.69l1.69-1.62.85-.8.85-.73c1.15-.95,2.27-2,3.47-2.83l3.61-2.55c1.24-.77,2.46-1.57,3.73-2.29a28.43,28.43,0,0,1,4-1.73,26.3,26.3,0,0,1,8.57-1.32c1.48,0,2.93.07,4.38.2l2.15.2,2.12.25a75.82,75.82,0,0,0,8,.57,34.84,34.84,0,0,0,3.71-.16l3.63-.27,14.19-1c4.65-.38,9.31-.76,14-1a111.57,111.57,0,0,1,28.68,1.92,61.2,61.2,0,0,1,7.42,2,44.19,44.19,0,0,1,7.51,3.18,32.26,32.26,0,0,1,7.24,5.26,20.8,20.8,0,0,1,1.63,1.74,22,22,0,0,1,1.51,1.92c.51.7.89,1.3,1.27,1.9s.72,1.21,1,1.79c1.31,2.36,2.31,4.5,3.22,6.32a27,27,0,0,0,2.6,4.33c.8,1.1,1.47,1.5,1.55,1.48a1.73,1.73,0,0,0,.75.05,2.74,2.74,0,0,0,1.17-.65,4.83,4.83,0,0,0,.64-.64,2.11,2.11,0,0,0,.52-.81,11.48,11.48,0,0,0,.53-2.14l.24-1.39c.06-.42.12-.87.17-1.34.21-1.85.28-4.12.39-6.54.07-1.15.13-2.4.24-3.73a33.63,33.63,0,0,1,.53-4.21c.15-.73.34-1.48.56-2.24s.45-1.34.68-2a37.21,37.21,0,0,1,1.58-3.69,95.75,95.75,0,0,1,7.53-12.52,93.18,93.18,0,0,0,6.8-10.72,57.16,57.16,0,0,0,4.5-11.5,26.18,26.18,0,0,0,.81-5.4,12.73,12.73,0,0,0-.65-4.52c-.06-.17-.1-.34-.17-.5l-.23-.46-.21-.46a4.55,4.55,0,0,0-.28-.43l-.28-.43a1.28,1.28,0,0,0-.12-.19l-.1-.09c-.08-.06-.09-.12-.19-.2a2.48,2.48,0,0,1-.3-.25c-.18-.17-.52-.37-.77-.57s-.63-.42-1-.62c-.74-.42-1.56-.84-2.44-1.24-3.57-1.63-7.8-3-12.16-4.72-2.19-.85-4.44-1.76-6.75-2.88a38.28,38.28,0,0,1-7.13-4.38l-.9-.74c-.3-.27-.61-.57-.9-.86s-.6-.56-.89-.9l-.87-1a19.28,19.28,0,0,1-1.59-2.32,20.53,20.53,0,0,1-1.28-2.72,16.68,16.68,0,0,1-.79-3c-.08-.51-.15-1-.2-1.53s0-1,0-1.5,0-1,0-1.49l.19-1.39c.08-.45.14-.94.25-1.37l.34-1.25.37-1.25.44-1.12a22.77,22.77,0,0,1,1-2.19c.37-.72.74-1.43,1.13-2s.79-1.27,1.18-1.82c1.56-2.27,3.06-4.09,4.1-5.6a7.71,7.71,0,0,0,1.55-3c0-.08.06-.16,0-.21s0-.09-.06-.18a.2.2,0,0,1,0-.11c0-.05-.07-.13-.09-.19a.83.83,0,0,1-.06-.21,2.72,2.72,0,0,0-.15-.28l-.15-.32a.72.72,0,0,0-.16-.27,2.7,2.7,0,0,1-.33-.5,5.85,5.85,0,0,0-.83-.74l-.22-.19-.3-.15c-.22-.1-.33-.26-.62-.33s-.48-.22-.73-.33l-.89-.29a22,22,0,0,0-4.53-.75,46.83,46.83,0,0,0-5.54,0q-2.93.19-6.07.62l-3.32.42c-1.17.14-2.36.28-3.59.39a50,50,0,0,1-16.44-.68,31.9,31.9,0,0,1-8.86-3.5,32.89,32.89,0,0,1-7.26-5.83,55.33,55.33,0,0,1-8.95-13.44c-1.1-2.21-2.08-4.38-3-6.46l-2.75-6.17c-1.85-4.11-3.58-8.23-5.4-12.4-.47-1.12-1-2.43-1.53-4a21,21,0,0,1-1-5.59,18.84,18.84,0,0,1,.83-6,25.77,25.77,0,0,1,1.93-4.52c1.36-2.52,2.68-4.35,3.38-5.75a24.74,24.74,0,0,0,1.92-4.64,27.54,27.54,0,0,0,1-5.1,30.2,30.2,0,0,0-.1-5.29,26.4,26.4,0,0,0-1.15-5.2,8.84,8.84,0,0,0-.45-1.25c-.17-.41-.32-.83-.5-1.23a24.7,24.7,0,0,0-1.22-2.34,23.38,23.38,0,0,0-7.21-7.79A28.15,28.15,0,0,0,391,202.11c-.47-.09-.93-.2-1.4-.26l-.71-.11c-.24,0-.41,0-.62-.05a13.59,13.59,0,0,0-2.48,0,27.83,27.83,0,0,0-5.63,1.16c-2,.59-4.24,1.35-6.69,2a26.93,26.93,0,0,1-8,.92A23.27,23.27,0,0,1,351,199.27a48.58,48.58,0,0,1-5-5.24c-1.51-1.79-2.89-3.58-4.28-5.31-2.77-3.47-5.54-6.72-8.95-9-7.2-4.87-15.47-8.3-23.91-11.26s-17.12-5.42-25.68-8.32c-4.27-1.45-8.48-3.11-12.62-4.89l-3.08-1.41c-1-.48-2-1-3-1.54s-2-1.07-2.95-1.65-2-1.1-2.88-1.77a48.73,48.73,0,0,1-10.26-8.73l-1.12-1.28-.55-.63-.49-.69-1.95-2.76a58.53,58.53,0,0,1-3.18-5.95Zm.08,0a45.34,45.34,0,0,0,18.17,19.08c.92.61,1.92,1.09,2.89,1.62s2,1,3,1.51,2,1,3,1.44l3.06,1.3c4.14,1.63,8.31,3.18,12.59,4.51,8.54,2.66,17.26,5,25.87,7.69s17.22,5.89,25,10.75c4,2.49,7.16,5.94,10.1,9.35,1.48,1.7,2.92,3.43,4.42,5.07a44.82,44.82,0,0,0,4.71,4.64,27.21,27.21,0,0,0,2.6,2,19.94,19.94,0,0,0,2.85,1.51,16.26,16.26,0,0,0,6.22,1.4c4.33.1,8.51-1.64,12.78-3.09A33.75,33.75,0,0,1,385,195.9a23.44,23.44,0,0,1,6.9.22,34.79,34.79,0,0,1,12.78,4.74,30.49,30.49,0,0,1,9.7,9.51,32.41,32.41,0,0,1,1.71,3c.25.51.47,1,.71,1.56a14.5,14.5,0,0,1,.64,1.58,33.06,33.06,0,0,1,1.74,6.58,36.6,36.6,0,0,1,.41,6.78,35.47,35.47,0,0,1-1,6.72,31.34,31.34,0,0,1-2.35,6.36c-1,2.05-2.25,3.91-3.26,5.91a12.8,12.8,0,0,0-1.69,6.36,17.68,17.68,0,0,0,1.93,6.37l5.66,12.25c1.91,4.07,3.72,8.2,5.76,12.2a46.53,46.53,0,0,0,7.52,11.14,24.5,24.5,0,0,0,5.27,4.18,22.34,22.34,0,0,0,6.27,2.42,42,42,0,0,0,13.43.45c2.24-.2,4.47-.5,6.7-.76s4.48-.47,6.73-.58A38.5,38.5,0,0,1,484,304.17a16.49,16.49,0,0,1,5.88,3.22,14.87,14.87,0,0,1,2.26,2.49l.85,1.46a9.17,9.17,0,0,1,.69,1.53,10.55,10.55,0,0,1,.5,6.61,17,17,0,0,1-3.2,5.88c-1.37,1.79-2.86,3.48-4.18,5.3a20.25,20.25,0,0,0-3.13,5.94,10.59,10.59,0,0,0-.1,6.63,12.74,12.74,0,0,0,4,5.36c3.48,2.88,7.65,4.73,11.76,6.51s8.37,3.33,12.39,5.36a23.66,23.66,0,0,1,5.61,3.71,10.11,10.11,0,0,1,2,2.67c.14.25.3.48.42.74l.33.77.34.78c.1.26.16.53.25.8a19,19,0,0,1,.76,6.67,31.67,31.67,0,0,1-1.17,6.63,70.06,70.06,0,0,1-5.12,12.46A100,100,0,0,1,507.78,407a65.7,65.7,0,0,0-6.91,11.56,16.58,16.58,0,0,0-.63,1.57c-.18.53-.4,1-.53,1.6a16.64,16.64,0,0,0-.72,3.29,35.2,35.2,0,0,0,.06,6.73c.16,2.25.42,4.48.51,6.73.05,1.13,0,2.25,0,3.38a23.59,23.59,0,0,1-.32,3.35,11.73,11.73,0,0,1-8.68,9.35,10.2,10.2,0,0,1-6.6-.65,13.11,13.11,0,0,1-5-4.43c-2.65-3.67-4.09-8-6.14-12A21.72,21.72,0,0,0,469,432a24.46,24.46,0,0,0-5.32-4.12,44.83,44.83,0,0,0-12.59-4.72,110.28,110.28,0,0,0-26.83-2.23c-4.5.1-9,.42-13.46.87s-8.94,1.1-13.35,2A90.84,90.84,0,0,0,372,432.48a54.92,54.92,0,0,0-20,17.68c-5.06,7.47-8.17,16.06-10.63,24.68q-1.83,6.5-3.34,13.08c-.9,4.41-1.48,8.87-2.25,13.31a118.39,118.39,0,0,1-2.87,13.17c-1.28,4.29-2.93,8.6-5.83,12.08a11.93,11.93,0,0,1-12.11,4.1,30,30,0,0,1-6.36-2.23c-2-.94-4-2-6.09-2.9a28.32,28.32,0,0,0-6.37-2.16,11.54,11.54,0,0,0-6.63.56,14.42,14.42,0,0,0-5.35,4,30.54,30.54,0,0,0-3.8,5.56c-2.18,3.92-3.83,8.19-6.69,11.69a13.34,13.34,0,0,1-5.34,4,16,16,0,0,1-6.65.85,14.27,14.27,0,0,1-6.41-1.87,15,15,0,0,1-4.79-4.68c-2.53-3.73-4-8.06-6.56-11.78a16.28,16.28,0,0,0-4.72-4.74,14.37,14.37,0,0,0-3-1.47c-1.08-.34-2.16-.62-3.25-.9-4.34-1.19-8.61-2.61-12.93-3.9a92.18,92.18,0,0,0-13.11-3.11,27.11,27.11,0,0,0-6.73-.27,15.29,15.29,0,0,0-6.29,2.27c-3.85,2.38-6.79,5.91-9.53,9.45s-5.3,7.27-8.24,10.68-6.3,6.55-10.45,8.36a20.84,20.84,0,0,1-13.23.89,29.93,29.93,0,0,1-11.89-6.15c-.86-.72-1.68-1.49-2.47-2.29l-2.23-2.54a59.1,59.1,0,0,1-4.17-5.29A111.33,111.33,0,0,1,119,508.84a162.56,162.56,0,0,1-7.8-25.81,155.25,155.25,0,0,1-3.47-26.73c-.08-1.13-.06-2.25-.06-3.38v-3.37c.07-2.25.21-4.5.37-6.74.41-4.48,1.12-8.93,1.23-13.44s-.46-9.09-2.63-13.07a41.92,41.92,0,0,0-3.86-5.51c-.69-.89-1.38-1.79-2-2.71s-1.25-1.87-1.78-2.87a65.46,65.46,0,0,1-5.32-12.38c-1.41-4.27-2.55-8.63-3.69-13-2.11-8.75-5.28-17.21-7-26.05a54,54,0,0,1-1.14-13.41,34.9,34.9,0,0,1,1-6.67,36.82,36.82,0,0,1,2.42-6.29c2-4,4.54-7.77,6.76-11.68s4.16-8.06,4.72-12.54a24.73,24.73,0,0,0-.15-6.71A40.82,40.82,0,0,0,94.92,290a127.69,127.69,0,0,0-5.17-12.46,94,94,0,0,1-5-12.52,39.89,39.89,0,0,1-1.52-13.35c0-1.13.2-2.24.31-3.36s.33-2.23.59-3.33a54.49,54.49,0,0,1,1.78-6.51A99.63,99.63,0,0,1,91.17,226c4-8.06,8.57-15.84,12-24.19A79.89,79.89,0,0,0,104.91,149a34.67,34.67,0,0,0-6.35-11.79c-2.8-3.52-6.1-6.6-9.23-9.83a48.67,48.67,0,0,1-8.28-10.62,19.52,19.52,0,0,1-2.14-13.09,11.25,11.25,0,0,1,3.18-5.87A15.84,15.84,0,0,1,88,94.54a52.77,52.77,0,0,1,13.34-1.88c4.5-.19,9-.17,13.5-.33,2.24-.08,4.49-.21,6.72-.49a25.58,25.58,0,0,0,6.53-1.54,235.84,235.84,0,0,0,23.85-12.59c7.78-4.52,15.52-9.13,23.62-13.07A218.67,218.67,0,0,1,200.34,54a85.25,85.25,0,0,1,13-3.47A37.88,37.88,0,0,1,220.1,50a17.17,17.17,0,0,1,6.61,1.23,12.63,12.63,0,0,1,1.5.79,13.42,13.42,0,0,1,1.32,1.07,9.5,9.5,0,0,1,1.91,2.78,29.83,29.83,0,0,1,2.17,6.38A71.16,71.16,0,0,1,235,75.63c.11,4.5,0,9,0,13.49,0,2.25,0,4.5.06,6.75s.21,4.49.37,6.73A107,107,0,0,0,237.14,116a63.2,63.2,0,0,0,1.65,6.54,50.41,50.41,0,0,0,2.45,6.28Z"/></svg>