<svg id="Layer_1" data-name="Layer 1" xmlns="http://www.w3.org/2000/svg" viewBox="0 0 600 600"><title>BosniaandHerzegovina</title><path d="M190.68,68.29a22.47,22.47,0,0,0,5.52-3.88,26.64,26.64,0,0,1,5.42-4.14,17.35,17.35,0,0,1,6.66-1.89,32.19,32.19,0,0,1,6.94.19c9.18,1.18,17.75,4.81,26.27,7.29,17.43,4.49,35.06,9.27,52.61,10.34a104.71,104.71,0,0,0,13,.06,37.52,37.52,0,0,0,6-.86,35.59,35.59,0,0,0,5.66-1.94c1.06-.42,2.21-.88,3.49-1.29a24.71,24.71,0,0,1,4.19-1A22.16,22.16,0,0,1,331,71a31.21,31.21,0,0,1,4.19.57l3.38.7,1.47.26.7.1.61.06a18.52,18.52,0,0,0,5-.32,35.41,35.41,0,0,0,5.39-1.55c1.85-.67,3.71-1.51,5.82-2.43a67.38,67.38,0,0,1,14.38-5A30.62,30.62,0,0,1,381,63c.8.1,1.61.22,2.4.37s1.58.36,2.35.58,1.5.48,2.21.74,1.41.56,2.07.86c5.3,2.42,9.12,5.31,12.37,7a16.69,16.69,0,0,0,4.19,1.67,5.18,5.18,0,0,0,.89.16,8.47,8.47,0,0,0,1,.09l.52,0h1.18l.66,0c1.76-.06,3.84-.25,6.26-.41a48.25,48.25,0,0,1,8.42,0A25.46,25.46,0,0,1,436,77.45a24.8,24.8,0,0,1,8.17,8.13A38.59,38.59,0,0,1,448,94c.85,2.56,1.47,4.84,2.08,6.83a33.34,33.34,0,0,0,1.8,4.91,12.9,12.9,0,0,0,.88,1.52,9.87,9.87,0,0,0,1,1.23,11.85,11.85,0,0,0,2.64,2,9.88,9.88,0,0,0,3,1.08,7.32,7.32,0,0,0,2.76,0,14.4,14.4,0,0,0,3.52-1.16c2.83-1.23,6.39-3.51,10.8-6a59.11,59.11,0,0,1,7.66-3.65,35,35,0,0,1,9.92-2.27,32.62,32.62,0,0,1,5.5.07c.9.13,1.83.22,2.71.41a24.86,24.86,0,0,1,2.68.66,28.41,28.41,0,0,1,10.17,5.3,32.85,32.85,0,0,1,7.07,7.87,44.09,44.09,0,0,1,4.21,8.53,55.47,55.47,0,0,1,2.3,8.59,61.09,61.09,0,0,1,.86,8.63,82.12,82.12,0,0,1-5.47,31.31c-.47,1.25-1,2.48-1.52,3.71-.29.62-.52,1.19-.85,1.85l-1,2c-1.32,2.49-2.7,4.76-4,6.82-2.64,4.1-5.11,7.65-6.86,10.82a29.17,29.17,0,0,0-2.05,4.37c-.29.68-.4,1.26-.6,1.87a13,13,0,0,0-.25,1.63,9.57,9.57,0,0,0,0,1.38c0,.23.08.47.09.7a3.27,3.27,0,0,0,.12.73q.1.39.18.78c.07.26.2.55.29.83a17.37,17.37,0,0,0,.72,1.77A36.33,36.33,0,0,0,514,217a82.09,82.09,0,0,0,8.49,7.87,65.63,65.63,0,0,0,9.3,6.43,24.89,24.89,0,0,0,4.2,1.89l.52.17,1.28.49a25.75,25.75,0,0,1,2.52,1.07c.8.4,1.61.8,2.4,1.23l2.25,1.39a44.53,44.53,0,0,1,7.77,6.61,48.3,48.3,0,0,1,5.88,7.91,45.37,45.37,0,0,1,6.12,19.07l.08,1.34a10.7,10.7,0,0,1,0,1.42c0,1.05-.07,2.1-.14,3.15a23.6,23.6,0,0,1-.48,3.17,20.19,20.19,0,0,1-.77,3.11c-.32,1-.66,2-1.05,3s-.85,1.84-1.29,2.75a12.68,12.68,0,0,1-.7,1.28l-.72,1.21-.74,1.2-.74,1.05c-.49.68-1,1.45-1.5,2l-1.47,1.81-1.38,1.6-1.32,1.46-2.34,2.56-1,1.09c-.34.38-.59.69-.83,1-.56.66-.87,1.16-1.24,1.67a5.67,5.67,0,0,0-.54,1.11c-.18.31,0,.42-.13.58a9.71,9.71,0,0,0-.21,1.26c-.14,1.54.12,2.33.87,4.39a35.55,35.55,0,0,0,1.78,3.69c.79,1.45,1.82,3.13,2.93,5s2.39,4,3.69,6.5a60.9,60.9,0,0,1,3.82,8.52,44.44,44.44,0,0,1,2.38,11.18,40.78,40.78,0,0,1-.94,12.37c-.25,1-.51,2-.79,2.93s-.64,1.83-1,2.74l-.27.68-.35.7c-.24.47-.46.95-.72,1.41a26.53,26.53,0,0,1-1.7,2.61,33.31,33.31,0,0,1-8.87,8,83.07,83.07,0,0,1-10,5.48,36.3,36.3,0,0,1-5.35,1.95c-.93.24-1.83.5-2.82.66a28,28,0,0,1-2.86.44,50.4,50.4,0,0,1-9.3.16,34.85,34.85,0,0,0-4.57,0c-.74.11-.65.13-.88.25-.05.08-.12.07-.21.15a1.39,1.39,0,0,1-.32.27.17.17,0,0,0-.11.11l-.07.09-.1.06a.19.19,0,0,1,0,.08,3.62,3.62,0,0,0-.53,1.18,45.52,45.52,0,0,0-1,4.76,76.67,76.67,0,0,1-1.85,8.25l-.85,2.47c-.32.84-.71,1.71-1.09,2.56a25.67,25.67,0,0,1-1.32,2.54l-.73,1.25c-.33.49-.67,1-1,1.45s-.7.94-1.07,1.4l-.55.69-.65.68a31.58,31.58,0,0,1-2.76,2.54c-1,.74-2.08,1.46-3.15,2.11s-2.18,1.07-3.3,1.54a30.65,30.65,0,0,1-11.61,1.84,59,59,0,0,1-8.46-.88l-6.2-1.12c-.38-.05-.84-.14-1.15-.17s-.6-.09-.91-.11-.63,0-.95,0l-.48,0-.4,0c-.27,0-.54,0-.82,0s-.45.09-.68.11-.24,0-.34,0a1.52,1.52,0,0,1-.28.09c-.18.07-.42.05-.57.14a5.19,5.19,0,0,0-2,1.22,10.46,10.46,0,0,0-2.11,3,37.79,37.79,0,0,0-3.14,10.24c-.77,4.09-1.22,8.7-2.08,13.56-.46,2.45-.92,4.95-1.61,7.55a51,51,0,0,1-2.81,7.9,40,40,0,0,1-4.77,7.67l-1.53,1.76c-.51.56-1,1-1.47,1.49-1,.94-2,1.83-2.92,2.66-1.93,1.7-3.82,3.19-5.53,4.56a45,45,0,0,0-4.2,3.83,6,6,0,0,0-1.54,2.51,4,4,0,0,0,0,.78,8.8,8.8,0,0,0,.25,1.22,17.89,17.89,0,0,0,1.69,3.87c.21.36.43.79.62,1.09s.37.57.59.87c.42.6.94,1.25,1.52,1.93,1.17,1.35,2.56,2.87,4.15,4.56a57.32,57.32,0,0,1,5.11,6.1,28.6,28.6,0,0,1,2.52,4.38,6.2,6.2,0,0,1,.45,1.36c.12.48.26.92.43,1.42s.4.94.59,1.43l.52,1.55a23.22,23.22,0,0,1,1,6.87,18.87,18.87,0,0,1-1.25,6.53,29.79,29.79,0,0,1-2.69,5l-.74,1.08c-.24.35-.49.65-.74,1l-.75,1c-.28.35-.67.77-1,1.14a28.36,28.36,0,0,1-9.91,6.88,38.24,38.24,0,0,1-10,2.62,64.76,64.76,0,0,1-8.81.45c-2.73,0-5.4-.21-7.75-.38s-4.77-.37-7.3-.67a77.71,77.71,0,0,1-16.26-3.46,54.22,54.22,0,0,1-8.61-3.76,66,66,0,0,1-7.63-4.91c-4.55-3.39-8.22-6.68-11.41-9.34-.8-.67-1.55-1.29-2.29-1.88s-1.3-1-2-1.46c-1.4-1-2.84-1.9-4.46-2.83s-3.3-1.88-5.07-2.85l-5.66-3c-4-2.1-8.24-4.36-12.71-7.14-2.25-1.42-4.52-2.9-6.79-4.63l-1.7-1.29L304,505.43c-1.31-1.17-2.58-2.37-3.71-3.59a68.41,68.41,0,0,1-5.85-7.21c-1.63-2.32-3-4.48-4.26-6.48s-2.34-3.81-3.35-5.35l-1.44-2.15c-.11-.17-.21-.35-.31-.53a3.84,3.84,0,0,1-.27-.49c-.19-.34-.29-.65-.54-1.12a29,29,0,0,1-2-6.09c-.23-1.16-.52-2.31-.79-3.5s-.54-2.4-.87-3.58a30.09,30.09,0,0,0-2.68-6.62,47.8,47.8,0,0,0-4-5.55l-2.18-2.68-2.42-2.9a69.57,69.57,0,0,1-4.54-6.41c-2.76-4.3-4.94-8.6-7.13-12.6s-4.23-7.73-6.54-11.41l-1.76-2.73-1.81-2.69c-1.28-1.74-2.53-3.5-3.9-5.17a127.06,127.06,0,0,0-18.19-18.18c-1.63-1.36-3.3-2.68-5-4s-3.33-2.63-5.07-3.92c-3.41-2.62-6.95-5.28-10.43-8.1-1.78-1.39-3.51-2.85-5.28-4.33a61.35,61.35,0,0,1-5.09-4.76,62.34,62.34,0,0,1-4.59-5.53c-1.45-1.93-2.77-4.07-4.09-6.14s-2.55-4.24-3.8-6.38-2.49-4.22-3.83-6.23c-2.56-4.11-5.38-8.06-7.67-12.37s-4-8.66-5.82-12.81a107.18,107.18,0,0,0-5.56-11.73,43,43,0,0,0-3.32-5,32.11,32.11,0,0,0-4-4.19c-.68-.67-1.51-1.23-2.25-1.85s-1.62-1.14-2.5-1.68c-1.71-1.09-3.55-2.11-5.45-3.11-3.82-2-8-3.93-12.2-6.23A57,57,0,0,1,117,271.14,45.83,45.83,0,0,1,107.63,258a64.75,64.75,0,0,1-4.8-14.7A113.11,113.11,0,0,1,101,228.75c-.32-4.75-.51-9.42-.57-14l-.07-3.37-.1-3.19-.16-3.17-.23-3.12a92.6,92.6,0,0,0-1.83-12,50.06,50.06,0,0,0-3.64-10.58,27.27,27.27,0,0,0-5.84-8,24.25,24.25,0,0,0-8.64-5c-3.63-1.34-8-2.42-12.76-4a52.45,52.45,0,0,1-7.45-3.09,34.16,34.16,0,0,1-7.44-5.13,28.08,28.08,0,0,1-5.88-7.42,32.49,32.49,0,0,1-3.21-8.42,41.59,41.59,0,0,1-.39-16.56c.24-1.39.49-2.51.75-3.7s.55-2.33.84-3.49q.89-3.45,1.88-6.8c1.31-4.47,2.72-8.81,4.06-13.09.68-2.12,1.36-4.27,2-6.33a52,52,0,0,0,1.3-6A91.83,91.83,0,0,1,56.7,68.27a25,25,0,0,1,4-7.57A20.34,20.34,0,0,1,62.32,59a18.93,18.93,0,0,1,1.93-1.57c.68-.41,1.36-.88,2.06-1.21s1.42-.66,2.14-.9a22.51,22.51,0,0,1,8.38-1.13,31.3,31.3,0,0,1,7.78,1.34,29.22,29.22,0,0,1,7.17,3.25l1.67,1.17c.54.44,1.07.91,1.6,1.36l1.42,1.52c.44.52.83,1.07,1.24,1.61a27.79,27.79,0,0,1,3.41,6.92c.8,2.33,1.37,4.62,1.9,6.84,1,4.43,2,8.69,3.93,12.24a26.69,26.69,0,0,0,8.63,8.88,20.69,20.69,0,0,0,5.66,2.6,10.29,10.29,0,0,0,11.06-3,44.68,44.68,0,0,0,4.19-5.09c2.55-3.63,4.83-7.59,7.33-11.37a74.25,74.25,0,0,1,8.29-10.84,21.38,21.38,0,0,1,5.38-4.21,11,11,0,0,1,3.24-1.13,17.7,17.7,0,0,1,3.41-.2c4.58.16,8.9,1.71,13.29,2.75a32.27,32.27,0,0,0,6.7.92,15.55,15.55,0,0,0,6.59-1.3Zm0,.09a15,15,0,0,1-6.6,1.59,32.52,32.52,0,0,1-6.82-.66c-4.47-.88-8.86-2.17-13.19-2.15a16.52,16.52,0,0,0-3.16.31,10.1,10.1,0,0,0-2.8,1.11,19.92,19.92,0,0,0-4.89,4.06,74.37,74.37,0,0,0-7.81,10.76c-2.38,3.81-4.52,7.76-7.1,11.62a46.17,46.17,0,0,1-4.3,5.5,13.06,13.06,0,0,1-13.43,4.1A23.39,23.39,0,0,1,114,101.9a31.67,31.67,0,0,1-5.6-4.23A27,27,0,0,1,104,92.21c-2.44-4.11-3.57-8.63-4.77-13S96.7,70.6,94.12,67.12s-6.57-5.62-10.79-6.77a26.5,26.5,0,0,0-6.5-.93,17.46,17.46,0,0,0-6.39,1,11.16,11.16,0,0,0-5.09,3.73,19,19,0,0,0-2.86,5.87,83.86,83.86,0,0,0-2.42,13.23A62.59,62.59,0,0,1,58.88,90c-.56,2.2-1.16,4.38-1.77,6.56-1.22,4.36-2.48,8.7-3.63,13.07s-2.18,8.78-2.88,13.23a34.55,34.55,0,0,0,.56,13.4,22,22,0,0,0,6.76,11.42c3.39,3,7.64,4.81,11.92,6.19s8.72,2.4,13,3.89a40.33,40.33,0,0,1,6.23,2.68A27.63,27.63,0,0,1,92,162.25a22.35,22.35,0,0,1,2.68,2.08,35.45,35.45,0,0,1,8.17,10.73,55.48,55.48,0,0,1,4.44,12.78c2,8.84,2.36,17.95,2.24,27s0,18.13,1.47,27.07a56.12,56.12,0,0,0,3.73,13,38.08,38.08,0,0,0,7.42,11.28,50.82,50.82,0,0,0,10.8,8.15c3.9,2.3,7.94,4.33,11.88,6.57a57,57,0,0,1,11.07,7.78,37.32,37.32,0,0,1,4.52,5.05,53.32,53.32,0,0,1,3.64,5.73c4.37,7.94,7.05,16.66,11.31,24.66a81,81,0,0,0,7.48,11.3,114,114,0,0,0,9.13,10c6.49,6.32,13.54,12,20.54,17.74a237.36,237.36,0,0,1,20.28,18A162.24,162.24,0,0,1,250,402.1a169.62,169.62,0,0,1,13.62,23.45,100.72,100.72,0,0,0,6.64,11.82,46,46,0,0,0,4.22,5.31c1.57,1.63,3.23,3.16,4.86,4.74,6.54,6.24,13.12,12.48,18.9,19.46s9.53,15.42,15.76,22.06a34.81,34.81,0,0,0,5.06,4.49c1.8,1.38,3.68,2.65,5.57,3.89,3.8,2.44,7.75,4.67,11.67,6.91,7.86,4.45,15.7,9.16,22.14,15.57,3.28,3.11,6.46,6.34,9.95,9.22A41.82,41.82,0,0,0,380,536a66.17,66.17,0,0,0,13.09,3.49c2.22.39,4.46.72,6.7,1s4.49.58,6.75.73c4.49.28,9.13.16,13.39-1.45a15.58,15.58,0,0,0,5.65-3.63,21.31,21.31,0,0,0,3.91-5.51,13.14,13.14,0,0,0,1-3.23,11,11,0,0,0,0-3.38,15.94,15.94,0,0,0-2.78-6.13c-2.61-3.7-5.92-6.84-8.69-10.42a31,31,0,0,1-3.59-5.74,25.44,25.44,0,0,1-2.22-6.4A15.85,15.85,0,0,1,413,492a13,13,0,0,1,.66-3.32,15.9,15.9,0,0,1,3.73-5.61c3.18-3.23,7-5.77,10.35-8.77a37.38,37.38,0,0,0,4.75-4.83,28,28,0,0,0,3.46-5.81,49.92,49.92,0,0,0,3.29-13.12c.6-4.49.9-9,1.43-13.5a50.43,50.43,0,0,1,3.09-13.17,19.84,19.84,0,0,1,8.49-10.25,14.14,14.14,0,0,1,1.52-.73l.78-.35c.26-.1.54-.17.8-.26l1.63-.49,1.67-.31.83-.15.85-.06,1.69-.13c1.13,0,2.26,0,3.39.1,4.51.34,9,1.24,13.51,1.16a18.51,18.51,0,0,0,6.64-1.17,11.05,11.05,0,0,0,5.16-4.24,20.6,20.6,0,0,0,2.76-6.16,60,60,0,0,0,1.29-6.65,53.72,53.72,0,0,1,1.32-6.66,17.52,17.52,0,0,1,3-6,16.89,16.89,0,0,1,11.5-6.5c4.51-.52,9.06.35,13.56-.31a23.05,23.05,0,0,0,16.27-11.07,20.89,20.89,0,0,0,1.47-3.05l.58-1.59.45-1.63a22.11,22.11,0,0,0,.57-6.73,26.43,26.43,0,0,0-1.37-6.63c-2.94-8.59-8.89-15.79-11.56-24.51a27.91,27.91,0,0,1-1.21-6.66,23.84,23.84,0,0,1,.67-6.73,24.34,24.34,0,0,1,6.62-11.65c3.06-3.34,6.57-6.25,9.29-9.88a19.87,19.87,0,0,0,3.22-5.93,18,18,0,0,0,.82-6.69A30.34,30.34,0,0,0,546.12,259a34.52,34.52,0,0,0-3.91-5.53,29.1,29.1,0,0,0-5.06-4.48,25.93,25.93,0,0,0-6-3,42.39,42.39,0,0,1-6.1-3,81.72,81.72,0,0,1-11-7.9,95.41,95.41,0,0,1-9.82-9.36,48.57,48.57,0,0,1-7.6-11.19,24.22,24.22,0,0,1-2.33-13.2,27.22,27.22,0,0,1,.61-3.34,32.82,32.82,0,0,1,1.07-3.22,41.42,41.42,0,0,1,3-6.11c2.25-3.93,4.9-7.61,7.37-11.4,1.24-1.89,2.42-3.82,3.5-5.8a61.24,61.24,0,0,0,2.8-6.18,69.58,69.58,0,0,0,4.79-26.53,49.12,49.12,0,0,0-.64-6.74A42.07,42.07,0,0,0,515,125.5a25.1,25.1,0,0,0-7.41-11.14,16.43,16.43,0,0,0-5.93-3.16,18.46,18.46,0,0,0-6.69-.74c-4.54.29-8.77,2.21-12.72,4.36s-7.78,4.63-12,6.39A21.25,21.25,0,0,1,457,122.73a21.82,21.82,0,0,1-11.5-6.84c-3.1-3.38-4.61-7.82-5.78-12.16s-2.15-8.84-4.46-12.75a14.2,14.2,0,0,0-4.64-4.83A15.56,15.56,0,0,0,424.21,84c-4.5-.55-9,.11-13.55,0a25,25,0,0,1-6.72-.91,27.46,27.46,0,0,1-6.17-2.8c-3.9-2.3-7.45-5.16-11.51-7.17a21.06,21.06,0,0,0-6.42-2.06,23.07,23.07,0,0,0-6.74.12,63.22,63.22,0,0,0-12.94,4,54.31,54.31,0,0,1-13,3.77,24.06,24.06,0,0,1-6.78,0c-2.25-.34-4.42-1-6.61-1.56a18.5,18.5,0,0,0-6.7-.56,29.2,29.2,0,0,0-6.55,1.68A38,38,0,0,1,314,80.33a44.94,44.94,0,0,1-6.76.61,111.5,111.5,0,0,1-13.55-.69A182.86,182.86,0,0,1,267,75.07c-8.75-2.29-17.42-4.91-26.1-7.47-8.57-2.85-16.89-6.66-25.85-8.11a31.87,31.87,0,0,0-6.76-.4,18.28,18.28,0,0,0-6.56,1.48c-4.22,1.81-6.89,5.85-11,7.89Z"/></svg>