<svg id="Layer_1" data-name="Layer 1" xmlns="http://www.w3.org/2000/svg" viewBox="0 0 600 600"><title>BurkinaFaso</title><path d="M175.24,227.24a46.45,46.45,0,0,0,5.61,2.17,24.25,24.25,0,0,0,2.92.68c1,.16,2,.22,3,.28a22,22,0,0,0,5.82-.43A7.1,7.1,0,0,0,197,227a11.84,11.84,0,0,0,1.45-5.28c.14-1.92.08-3.89,0-5.9a49.79,49.79,0,0,1,.12-6.2,13,13,0,0,1,2.22-6.46,8.29,8.29,0,0,1,1.28-1.37,8,8,0,0,1,1.52-1.09,11.92,11.92,0,0,1,1.66-.78c.57-.2,1.15-.33,1.74-.49a16,16,0,0,1,1.86-.21,12.49,12.49,0,0,1,1.93.19,8.56,8.56,0,0,1,1.84.57,10.07,10.07,0,0,1,1.64.83c2.05,1.25,3.5,2.71,5,3.72a6.86,6.86,0,0,0,4.12,1.52,4.65,4.65,0,0,0,3.38-1.37,3.93,3.93,0,0,0,1-1.44,6.75,6.75,0,0,0,.45-1.95c.17-1.54.06-3.45.06-5.61a25.76,25.76,0,0,1,.23-3.5,15.21,15.21,0,0,1,1.09-3.92A63.09,63.09,0,0,1,235.75,177a34.62,34.62,0,0,1,10-9.8l1.67-.93c.61-.28,1.26-.54,1.89-.81a12.75,12.75,0,0,1,2-.64,12.43,12.43,0,0,1,2.12-.42,20.28,20.28,0,0,1,8.28.66c2.45.68,4.5,1.54,6.32,2.23a28,28,0,0,0,4.73,1.47,9.27,9.27,0,0,0,3.46,0,4.53,4.53,0,0,0,2.35-1.1,12.78,12.78,0,0,0,2.13-2.72c.87-1.35,1.88-3.16,3.23-5.16.34-.5.73-1,1.09-1.53s.84-1.05,1.26-1.56,1-1,1.44-1.55l1.25-1.22c1.65-1.56,3.35-3.06,5.1-4.44A96.87,96.87,0,0,1,304.88,142c3.66-2.21,7.31-4.21,10.87-6.14s7.18-3.81,10.84-5.68c7.32-3.72,14.86-7.28,22.76-10.39a147,147,0,0,1,24.9-7.56,92.55,92.55,0,0,1,27.39-1.62c1.18.12,2.36.2,3.53.37l3.52.64c1.17.22,2.35.41,3.51.68l3.47,1c1.16.34,2.31.65,3.47,1s2.35.84,3.53,1.32a58.26,58.26,0,0,1,7,3.41,42.27,42.27,0,0,1,12.87,11.12,36.57,36.57,0,0,1,4.68,8.17,37.66,37.66,0,0,1,1.52,4.36c.37,1.42.72,2.85.94,4.21a83.76,83.76,0,0,1,.89,14.21c0,2,0,3.79.1,5.41s.25,3,.43,4.25a24,24,0,0,0,2.49,7.22,37.07,37.07,0,0,0,5,7.05,49,49,0,0,0,6.95,6.48l2,1.48,2.06,1.4,2.15,1.34c.74.47,1.5.95,2.28,1.49a53.77,53.77,0,0,1,9.54,8.64c1.57,1.78,3.14,3.65,4.6,5.63.35.5.73,1,1.09,1.47s.66,1,1,1.44l2.09,2.93a53.34,53.34,0,0,1,4,6.61,15.32,15.32,0,0,1,1.69,9.3,11.87,11.87,0,0,1-.77,2.73c-.18.44-.42.83-.64,1.25l-.35.61-.39.53a16.1,16.1,0,0,1-3.34,3.36,58.82,58.82,0,0,1-5.77,3.68,12.92,12.92,0,0,0-1.85,1.29,4.77,4.77,0,0,0-.9,1.08,1.31,1.31,0,0,0-.24.77c0,.14.15.09.23.14s.49.52,1,.92a3.18,3.18,0,0,0,.44.24c.16.09.26.1.5.22a12,12,0,0,0,1.48.53,16.89,16.89,0,0,0,3.87.6,26.83,26.83,0,0,0,4.48-.2c3.25-.35,7.09-1.14,11.88-1.55,1.18-.1,2.45-.16,3.75-.19l3.58,0c2.16,0,4.37.09,6.64.23a77.48,77.48,0,0,1,14.3,2.2,59.5,59.5,0,0,1,7.57,2.53,55.27,55.27,0,0,1,7.52,3.87,37.08,37.08,0,0,1,7.89,6.59l1,1.15c.34.42.67.87,1,1.32l.94,1.35c.31.5.6,1,.88,1.53a23.44,23.44,0,0,1,1.54,3.23,28.42,28.42,0,0,1,1.14,3.45,30.93,30.93,0,0,1,.71,3.44c.17,1.14.24,2.18.32,3.28s0,2,0,3-.11,1.82-.19,2.7a67.21,67.21,0,0,1-1.53,8.5l-.11.46c0,.15-.08.33-.09.39l-.09.53c-.06.35-.13.7-.22,1a7.81,7.81,0,0,1-.77,2c-.68,1.29-1.79,2.53-2.63,3.86a7.87,7.87,0,0,0-1.43,4.06,27.07,27.07,0,0,0,0,3.81l0,.25v.15a3.81,3.81,0,0,0,.1.52l.08.33.12.41c.07.26.21.64.32,1,.54,1.43,1.45,3.45,2.4,6.1a34.2,34.2,0,0,1,2.11,10.26v2.31l-.06.7c-.09.95-.2,1.9-.33,2.84a18.83,18.83,0,0,1-.61,2.81c-.26.93-.49,1.87-.83,2.77a31.78,31.78,0,0,1-2.45,5.12c-.49.79-1,1.6-1.49,2.34s-1.1,1.38-1.67,2.06c-.28.34-.56.69-.86,1l-.88.89c-.6.59-1.21,1.17-1.82,1.73a37.36,37.36,0,0,1-3.75,2.84,48.24,48.24,0,0,1-15.27,6.57,64.72,64.72,0,0,1-7.59,1.38c-1.27.16-2.54.27-3.83.32s-2.38.08-3.48.09c-4.32,0-8.22-.09-11.85-.1a55.19,55.19,0,0,0-9.68.67l-1,.18-1,.24c-.68.13-1.19.38-1.81.54a14.91,14.91,0,0,0-3,1.53c-.22.16-.47.29-.7.46s-.43.33-.66.53a17.76,17.76,0,0,0-1.39,1.37,38,38,0,0,0-3.05,3.92c-2.19,3-4.46,7-8.1,11-.47.49-.93,1-1.42,1.45l-1.53,1.37a33.3,33.3,0,0,1-3.2,2.51c-1.11.78-2.28,1.43-3.43,2.1s-2.36,1.21-3.57,1.66a49.77,49.77,0,0,1-14.47,3.31c-1.18.08-2.37.17-3.54.2s-2.35.06-3.5,0-2.32,0-3.46-.14-2.29-.16-3.42-.3c-2.28-.23-4.53-.57-6.76-1s-4.29-.86-6.37-1.35c-4.15-1-8.11-2.09-11.92-3.13s-7.45-2-11-2.8c-.87-.24-1.73-.43-2.58-.62-.43-.1-.81-.46-1.24-.48s-.89.06-1.33.11a24.8,24.8,0,0,0-2.61.62,12,12,0,0,1-2.46.51c-6.32.2-13.1,1.64-20.54,3.74-3.72,1-7.6,2.18-11.73,3.27s-8.6,2.11-13,2.85a203,203,0,0,1-26.06,2.69c-4.26.13-8.47.18-12.63.18s-8.25-.12-12.28-.24l-6-.22-1.49-.06-1.66-.09-3.29-.22c-4.26-.28-8.19-.72-12-1s-7.44-.64-10.87-.77c-.88-.06-1.71-.08-2.54-.09s-1.69-.07-2.46,0-1.59.05-2.38,0a9.27,9.27,0,0,1-2.26-.25,13.75,13.75,0,0,1-2.23-.71l-1.17-.55-1.1-.58c-.75-.44-1.63-.94-2.35-1.32l-1.19-.62a13,13,0,0,0-1.22-.57c-.38-.16-.77-.3-1.16-.42a9.07,9.07,0,0,0-1.21-.33,6.61,6.61,0,0,0-1.07-.12,8.23,8.23,0,0,0-1.11,0,6.13,6.13,0,0,0-3.36,1.42,14.24,14.24,0,0,0-4.72,7.28,22.22,22.22,0,0,0-.79,4.77,29.27,29.27,0,0,0,.23,5.07,75,75,0,0,0,2.34,10.74l1.66,5.68.91,2.92c.21.66.55,1.56.91,2.43l4.61,11.4A86.2,86.2,0,0,1,240.53,462a37.12,37.12,0,0,1,.93,8c0,.77,0,1.54-.14,2.41,0,.43-.08.82-.16,1.29L240.9,475a19.16,19.16,0,0,1-2.55,6.29,12.89,12.89,0,0,1-1.19,1.66,13.44,13.44,0,0,1-1.45,1.58c-.54.5-1.12,1-1.69,1.42s-1.09.73-1.66,1.07a12.74,12.74,0,0,1-1.81.94c-.69.28-1.39.54-2.1.77a17.63,17.63,0,0,1-4.54.7,20.42,20.42,0,0,1-6.2-1c-.55-.21-1.1-.42-1.64-.65a11.72,11.72,0,0,1-1.46-.71c-.45-.25-.9-.5-1.34-.76-.73-.5-1.54-1-2.18-1.54a39.86,39.86,0,0,1-5.91-5.81c-.76-.87-1.4-1.77-1.92-2.44-.27-.35-.47-.66-.69-.95s-.44-.6-.63-.93c-.42-.63-.88-1.24-1.28-1.92s-.87-1.33-1.35-2-.92-1.37-1.43-2l-.75-1-.82-1a31.27,31.27,0,0,0-3.7-3.86c-.7-.56-1.42-1.12-2.17-1.62a23.8,23.8,0,0,0-2.35-1.35c-3.25-1.65-6.89-2.22-10.49-2.66a47,47,0,0,0-21.44,2.55,44,44,0,0,0-9.41,5,39.54,39.54,0,0,0-4,3.36c-.62.61-1.21,1.24-1.82,1.87L139,472.16a66.3,66.3,0,0,1-4.59,4.83,23.52,23.52,0,0,1-6.85,4.53,19.06,19.06,0,0,1-4.59,1.25c-.77.07-1.55.12-2.33.15a17.73,17.73,0,0,1-2.4-.13,19.33,19.33,0,0,1-8.8-3.45,26.6,26.6,0,0,1-5.9-5.84,43.47,43.47,0,0,1-3.88-6.22c-.53-1-1-2.07-1.5-3.09s-.93-2.16-1.25-2.82a23,23,0,0,0-1.08-2.23c-.19-.36-.37-.73-.57-1.07l-.61-1c-.39-.69-.88-1.24-1.29-1.87s-.9-1.16-1.42-1.65a21.43,21.43,0,0,0-3.24-2.82,34,34,0,0,0-4-2.39c-1.49-.75-3-1.49-4.75-2.19s-3.48-1.39-5.28-2.1c-1.06-.45-2.27-.95-3.37-1.47S69,441.5,68,440.85A51.12,51.12,0,0,1,48,420.11a55.8,55.8,0,0,1-5-13.25,58.91,58.91,0,0,1-.09-28,51.06,51.06,0,0,1,5.34-13.26c.65-1,1.24-2.05,1.94-3s1.42-2,2.1-2.82c1.38-1.72,2.74-3.3,4-4.77a44.07,44.07,0,0,0,5.95-8.17,10,10,0,0,0,1.07-3.29c0-.24,0-.49.05-.74s-.05-.5-.06-.76a8.35,8.35,0,0,0-.42-1.75c-.49-1.41-1.36-3.14-2.29-5.35a19.42,19.42,0,0,1-1.72-8.47,20.16,20.16,0,0,1,.34-2.44A20.43,20.43,0,0,1,60,321.6a19.39,19.39,0,0,1,1.14-2.17,14.51,14.51,0,0,1,1.41-1.89,20.33,20.33,0,0,1,6.57-4.8,36.62,36.62,0,0,1,6.59-2.32c1.08-.29,2.15-.52,3.21-.73s2.18-.39,3.09-.54a89.94,89.94,0,0,0,11.16-2.56,55.4,55.4,0,0,0,10.38-4.28,40.86,40.86,0,0,0,4.71-3,40.2,40.2,0,0,0,4.3-3.53,21.08,21.08,0,0,0,3.34-4,13.85,13.85,0,0,0,1.65-4.72c.33-1.81.52-3.81.85-5.9.17-1,.38-2.13.66-3.21a18.91,18.91,0,0,1,1.17-3.2,16.44,16.44,0,0,1,4.16-5.41,28.31,28.31,0,0,1,5.39-3.5,53.63,53.63,0,0,0,5.09-2.84,9.16,9.16,0,0,0,3.44-3.86,11.41,11.41,0,0,0,.77-5.32,54.3,54.3,0,0,0-.87-5.82,59.41,59.41,0,0,1-1.34-12.1,19.58,19.58,0,0,1,1.09-6.06,12.64,12.64,0,0,1,3.39-5.11,15,15,0,0,1,2.44-1.84c.43-.28.9-.47,1.35-.71a10.15,10.15,0,0,1,1.39-.62,18.33,18.33,0,0,1,5.89-1.32,29.34,29.34,0,0,1,11.77,2.26c3.76,1.42,7.37,3.17,11.05,4.78Zm0,.09c-3.77-1.4-7.46-3-11.25-4.25a28.82,28.82,0,0,0-11.5-1.64A17.42,17.42,0,0,0,147,222.9a8.77,8.77,0,0,0-1.27.62,13.22,13.22,0,0,0-1.22.69,12.67,12.67,0,0,0-2.13,1.71,11.22,11.22,0,0,0-2.83,4.53,17.65,17.65,0,0,0-.85,5.51,57.46,57.46,0,0,0,1.6,11.63,56,56,0,0,1,1,6.07,13.92,13.92,0,0,1-.78,6.47,11,11,0,0,1-1.74,2.88,15.21,15.21,0,0,1-2.42,2.21,55,55,0,0,1-5.26,3.18,25.16,25.16,0,0,0-4.74,3.26,13.12,13.12,0,0,0-3.25,4.46c-1.55,3.4-1.46,7.42-2,11.49a17.71,17.71,0,0,1-1.87,6.05,24,24,0,0,1-3.8,5,44.08,44.08,0,0,1-4.58,4.08,47,47,0,0,1-5,3.46,60.07,60.07,0,0,1-11.07,5.06,95.15,95.15,0,0,1-11.69,3.15,43.22,43.22,0,0,0-11.31,3.5,14.58,14.58,0,0,0-4.61,3.48,8,8,0,0,0-.84,1.16c-.26.4-.42.85-.64,1.27s-.3.91-.4,1.37-.16.95-.17,1.43a12.91,12.91,0,0,0,1.36,5.61c.81,1.81,1.8,3.57,2.58,5.45a14.1,14.1,0,0,1,1.17,6,16.13,16.13,0,0,1-1.39,5.9,46.69,46.69,0,0,1-6.59,10.1,68.67,68.67,0,0,0-7,9.75,42.64,42.64,0,0,0-4.14,11.22,51.08,51.08,0,0,0,12.28,44.67,43.41,43.41,0,0,0,9.32,7.54c3.42,2.12,7.28,3.36,10.91,5.06a50.23,50.23,0,0,1,10.39,6,30.41,30.41,0,0,1,7.76,9.09l.73,1.31c.24.44.44.9.66,1.35.45.9.82,1.83,1.19,2.76.75,1.86,1.45,3.75,2.32,5.55a25.5,25.5,0,0,0,7.07,9.59,11.76,11.76,0,0,0,11.38,1.74c3.78-1.46,6.64-4.48,9.4-7.33a48.22,48.22,0,0,1,19.83-13.19,56,56,0,0,1,23.71-2.84,53.55,53.55,0,0,1,22.7,7.35,46.07,46.07,0,0,1,9.4,7.46c.67.74,1.37,1.46,2,2.23l1.94,2.29a32.74,32.74,0,0,0,4.26,4.23,9.21,9.21,0,0,0,5.45,2.28,5.76,5.76,0,0,0,2.86-.8,5.85,5.85,0,0,0,2.2-2,11.58,11.58,0,0,0,1.65-5.71,31,31,0,0,0-.25-6c-1.05-8-3.65-15.61-6-23.26-.62-1.91-1.06-3.87-1.56-5.81l-1.44-5.84a80.67,80.67,0,0,1-2-11.85,37.2,37.2,0,0,1,.74-12,26.81,26.81,0,0,1,5.12-10.78,22.32,22.32,0,0,1,9.8-6.72,48,48,0,0,1,11.73-2.55c8-.76,16-.25,24,.47l12,1.17c4,.36,8,.6,12,.89,8,.56,16,1.09,24,1.28a185.3,185.3,0,0,0,24-.83c8-.79,15.83-2.58,23.7-4.15s15.85-2.83,23.88-2.35,15.8,2.76,23.43,5.17S429,391.19,437,392.24a55.35,55.35,0,0,0,12,.36,37.93,37.93,0,0,0,11.63-2.86,26.86,26.86,0,0,0,9.63-7,72.12,72.12,0,0,0,6.63-10c2.06-3.42,4.29-6.85,7.42-9.39a25,25,0,0,1,5-3.3,32.79,32.79,0,0,1,5.62-2.12,60.91,60.91,0,0,1,11.85-1.93c4-.32,8-.45,12-.7,8-.43,16.07-2.42,22.72-7a19.85,19.85,0,0,0,7.52-9.15,17.64,17.64,0,0,0,1-5.9,19.61,19.61,0,0,0-1.25-5.85c-1.35-3.76-3.35-7.34-4-11.34a45.48,45.48,0,0,1-.15-12,63.05,63.05,0,0,1,2.55-11.74,40.67,40.67,0,0,0,1.4-5.84,15.83,15.83,0,0,0-.09-6,13.05,13.05,0,0,0-2.65-5.33,23.6,23.6,0,0,0-4.38-4.09,40.62,40.62,0,0,0-5.1-3.18,52.71,52.71,0,0,0-5.49-2.44,71.74,71.74,0,0,0-11.61-3.09c-2-.37-4-.68-5.94-1a48,48,0,0,0-6-.55c-4-.13-8,.14-12-.07A28.81,28.81,0,0,1,483.68,258a13.87,13.87,0,0,1-4.7-3.69,9.42,9.42,0,0,1-2.12-5.52,8,8,0,0,1,2.17-5.47,15.9,15.9,0,0,1,4.87-3.48,44.7,44.7,0,0,0,5.24-2.93,7.56,7.56,0,0,0,3.4-4.76,9.1,9.1,0,0,0-1-5.8,20.25,20.25,0,0,0-3.57-4.81,47.32,47.32,0,0,0-9.5-7.33c-3.43-2.07-7-3.87-10.55-5.77a71.43,71.43,0,0,1-19.19-14.36c-5.43-5.86-9.64-13.08-11-21s0-16.06-1.33-24a24.55,24.55,0,0,0-4.5-11,31.06,31.06,0,0,0-8.95-7.9,44.2,44.2,0,0,0-11-4.76L409,124.5c-1-.24-2-.42-2.94-.63l-2.94-.62c-1-.16-2-.25-3-.37a82.5,82.5,0,0,0-23.94.81A137.89,137.89,0,0,0,353,130c-7.55,2.72-14.92,5.9-22.19,9.29q-5.44,2.55-10.84,5.2c-3.61,1.77-7.2,3.55-10.71,5.49a96.46,96.46,0,0,0-10.18,6.38c-1.63,1.17-3.19,2.43-4.71,3.74a24.21,24.21,0,0,0-4.09,4.37c-1.19,1.61-2.25,3.32-3.44,4.94a17.47,17.47,0,0,1-4.2,4.29,12.19,12.19,0,0,1-5.63,2,16.51,16.51,0,0,1-6-.46c-3.9-1.05-7.37-3.19-11.18-4.44A14.25,14.25,0,0,0,254,170a15,15,0,0,0-5.66,1.84,29.77,29.77,0,0,0-8.86,8,59.16,59.16,0,0,0-6.25,10.24,15.07,15.07,0,0,0-1.22,5.83,50.4,50.4,0,0,1-.41,6,8.3,8.3,0,0,1-2.79,5.22,7.64,7.64,0,0,1-5.62,1.79,9.78,9.78,0,0,1-5.47-2.35c-1.59-1.23-3-2.71-4.65-3.8a7.61,7.61,0,0,0-5.68-1.27,8.23,8.23,0,0,0-5.11,2.83,11.45,11.45,0,0,0-2.07,5.54,48,48,0,0,0-.33,6c0,2,0,4-.26,6a12.78,12.78,0,0,1-1.84,5.69,7.89,7.89,0,0,1-5,3.06,19.79,19.79,0,0,1-6,.06,30.28,30.28,0,0,1-5.87-1.27c-1.91-.6-3.81-1.27-5.67-2Z"/></svg>