<svg id="Layer_1" data-name="Layer 1" xmlns="http://www.w3.org/2000/svg" viewBox="0 0 600 600"><title>Burundi</title><path d="M166.12,140.05a43,43,0,0,0-3.76-5.33,34.62,34.62,0,0,0-4.66-4.56,55.66,55.66,0,0,0-10.81-7,48.53,48.53,0,0,0-12.11-4,49.78,49.78,0,0,0-12.64-.87,54.83,54.83,0,0,0-6.28.7,19.23,19.23,0,0,0-5.63,1.68,13.58,13.58,0,0,0-4.32,3.48,21.84,21.84,0,0,0-3,5,47.14,47.14,0,0,0-2.08,5.79c-.3,1-.59,2-.87,3.07s-.44,1.88-.62,2.92a61.46,61.46,0,0,1-1.44,6.8,18.69,18.69,0,0,1-1.57,3.76,16.47,16.47,0,0,1-2.64,3.42c-1.87,1.88-3.62,3.18-4.76,4.44a6.51,6.51,0,0,0-1.84,3.55,8.72,8.72,0,0,0,.27,4.12,14.12,14.12,0,0,0,2.13,4.2,17.77,17.77,0,0,0,3.41,3.57,26.57,26.57,0,0,0,4.46,2.76,120.11,120.11,0,0,0,11.44,4.55c2.1.79,4.31,1.62,6.54,2.69a67.24,67.24,0,0,1,6.54,3.61,59.11,59.11,0,0,1,11.63,9.49l2.55,2.79,2.31,3a32.89,32.89,0,0,1,2.16,3.09c.67,1.07,1.43,2.09,2,3.2a66.69,66.69,0,0,1,6,13.87,73.84,73.84,0,0,1,2.74,14.93c.12,1.27.11,2.54.15,3.82l0,1.91c0,.64-.07,1.27-.1,1.91l-.26,3.83-.54,3.8c-.36,2.58-.89,4.75-1.35,7s-.93,4.24-1.33,6.23a57.2,57.2,0,0,0-1.4,10.74,16.77,16.77,0,0,0,.44,4l.09.44.14.37c.09.25.17.51.25.76a11.12,11.12,0,0,0,.7,1.27c.15.2.23.39.4.63l.63.79a6.36,6.36,0,0,0,.7.8c.26.27.46.55.76.82a40.87,40.87,0,0,0,3.91,3.32c1.55,1.16,3.18,2.3,5,3.59s3.76,2.6,5.74,4.21a53,53,0,0,1,5.94,5.46,39.65,39.65,0,0,1,5.26,7.15,36.26,36.26,0,0,1,3.39,8.33,38.67,38.67,0,0,1,1.22,8.58,58.66,58.66,0,0,1-1.75,15.34c-1.08,4.68-2.42,9-3.65,13.11s-2.37,8.07-3.15,11.88a49.63,49.63,0,0,0-.84,5.56c-.11.91-.11,1.8-.16,2.7s0,1.82,0,2.74a51.91,51.91,0,0,0,1.93,11.33,119.83,119.83,0,0,0,3.94,11.68c1.55,3.93,3.28,8,4.95,12l5,12.07a11.92,11.92,0,0,0,1.58,2.88c.66.89,1.51,1.72,2.26,2.57a28.23,28.23,0,0,1,3.59,5.57l6.43,11.46,6.32,11.51c8.21,15.43,16.33,30.91,24.61,46.31l3.11,5.73c1,1.85,2,3.57,3,5.13a33.78,33.78,0,0,0,5.64,7.23,12.29,12.29,0,0,0,2.56,1.83,19.89,19.89,0,0,0,2.64,1.18,21.9,21.9,0,0,0,3.08.84c.58.08,1.11.21,1.72.25l.88.13.92.07a36.31,36.31,0,0,0,7.86-.34c.67-.12,1.35-.2,2-.35l1-.21c.34-.07.72-.18,1.08-.27,1.45-.34,2.93-.83,4.46-1.31a83.77,83.77,0,0,0,9.62-3.8c.84-.35,1.68-.83,2.56-1.15a9.55,9.55,0,0,1,2.95-.57c2.13-.11,4.66.35,7.08.49a16.16,16.16,0,0,0,3.5-.16A13.48,13.48,0,0,0,301,521c2-.77,3.86-1.57,5.62-2.38a54.49,54.49,0,0,0,4.95-2.6,43.57,43.57,0,0,0,4.12-2.87,28.67,28.67,0,0,0,3.14-3.06A21.6,21.6,0,0,0,321,507a63.62,63.62,0,0,0,3.66-9.1c.72-2,1.49-4.22,2.46-6.59s2.07-4.7,3.24-6.93,2.37-4.39,3.62-6.51,2.6-4.11,3.95-6.06c2.7-3.93,5.51-7.62,8.36-11.13s5.67-6.89,8.46-10.24l16.7-20.18q8.28-10.14,16.28-20.49c2.67-3.32,5.4-7.29,9.39-11.11a36.39,36.39,0,0,1,3.19-2.79l1.24-1,1.11-.91a47.11,47.11,0,0,0,4-3.84,29.84,29.84,0,0,0,3.08-4,17.73,17.73,0,0,0,1.85-4,14.75,14.75,0,0,0,.62-3.91,47.61,47.61,0,0,0-.17-5.25c-.15-2-.32-4.37-.34-7a36.14,36.14,0,0,1,.88-8.67c.19-.76.43-1.53.66-2.29s.49-1.32.74-2,.77-1.19,1-1.85c.12-.32.15-.69.26-1s.21-.66.29-1c.39-1.33.61-2.8,1.06-4.13a20.91,20.91,0,0,1,1.61-3.9,65.36,65.36,0,0,1,10.07-12.43,119.66,119.66,0,0,1,11.34-9.7c3.83-2.93,7.68-5.56,11.43-8.07l5.51-3.68a34.63,34.63,0,0,0,4.14-3,2,2,0,0,0,.58-.75c0-.15-.14-.05-.32,0s-.13.14-.18.1-.08,0-.09-.06a1.2,1.2,0,0,1,0-.32c0-.15,0-.39,0-.58,0-.94.1-2.5.14-4.55a64.66,64.66,0,0,1,.56-7.95,35.16,35.16,0,0,1,3.73-11.76,32.13,32.13,0,0,1,2-3.27c.79-1.05,1.63-2.09,2.52-3.08a33.23,33.23,0,0,1,2.91-2.69c.5-.4,1-.79,1.52-1.17s1-.68,1.51-1c1-.68,2-1.17,2.95-1.69.51-.28.92-.45,1.38-.67l1.35-.59c.81-.32,1.72-.69,2.44-.93l1.13-.39,1-.33,3.44-1.07c.89-.29,1.71-.56,2.2-.75l.38-.15.25-.12c.21-.09.19-.14.3-.18s0,0,0-.05,0-.06,0-.06.45-.5.91-1.12a19.18,19.18,0,0,0,1.55-2.54,26.53,26.53,0,0,0,1.56-3.56c.5-1.29.92-2.73,1.32-4.17s.67-3,.92-4.52a45.57,45.57,0,0,0,.53-4.63c.07-.77.06-1.53.11-2.29a11.81,11.81,0,0,1,.36-2.26c.66-3,3.05-6.2,4.38-9.72a10.61,10.61,0,0,0,.71-4.82,6.22,6.22,0,0,0-.21-1,7.6,7.6,0,0,0-.37-.89l-.57-.86-.29-.45-.14-.23-.16-.16a8.87,8.87,0,0,0-1.3-1.3A6.51,6.51,0,0,0,501,215l-.8-.42a4.75,4.75,0,0,0-.92-.34,4.23,4.23,0,0,0-1-.25l-1.13-.18-1.29,0a59.53,59.53,0,0,0-6.1.46,46.56,46.56,0,0,1-7.71.35l-1.06-.05c-.36,0-.74-.1-1.1-.15-.74-.11-1.48-.22-2.22-.36a23.92,23.92,0,0,1-4.37-1.48,30.48,30.48,0,0,1-7.08-4.43,57.8,57.8,0,0,0-4.73-3.59c-.33-.2-.64-.38-.94-.53l-.94-.4a10.64,10.64,0,0,0-2.07-.61,29.9,29.9,0,0,0-5-.58c-1.87-.07-3.92,0-6.13,0-4.37,0-9.64.2-15.58-1.42a33.94,33.94,0,0,1-8.6-3.78,38.24,38.24,0,0,1-7.2-5.91,34.59,34.59,0,0,1-8.71-16.65,34,34,0,0,1-.6-9.73,30.15,30.15,0,0,1,2.2-9.11,28.82,28.82,0,0,1,5-8c.55-.61,1.1-1.19,1.71-1.76.3-.28.59-.56.9-.83l1-.78c.63-.52,1.35-1,2-1.46.32-.22.77-.49,1.16-.73s.76-.41,1.14-.62a39,39,0,0,1,7.42-2.47,30,30,0,0,0,5.22-1.77,7.85,7.85,0,0,0,1.45-.92,1.94,1.94,0,0,0,.54-.67,2.27,2.27,0,0,0,0-1.13,6.34,6.34,0,0,0-.21-.9c-.12-.33-.23-.67-.37-1a9.62,9.62,0,0,0-1.12-1.87,19,19,0,0,0-1.77-1.87c-.68-.64-1.43-1.27-2.23-1.92l-2.6-2.1a28.91,28.91,0,0,1-5.49-5.55c-.42-.54-.8-1.22-1.19-1.82s-.71-1.36-1-2.07a14.81,14.81,0,0,1-1.09-4.81A15,15,0,0,1,419,106a21.92,21.92,0,0,1,1.5-4,55,55,0,0,1,3.71-6.27c2.44-3.68,4.56-7,5.41-10a13.08,13.08,0,0,0,.39-2.14,7.2,7.2,0,0,0,.06-1,8.68,8.68,0,0,0,0-1.1,18.4,18.4,0,0,0-1-4.85,20.22,20.22,0,0,0-2.21-4.5,22.09,22.09,0,0,0-3.19-3.72,16.42,16.42,0,0,0-3.83-2.58,16,16,0,0,0-2-.81c-.35-.08-.7-.16-1-.26s-.77-.12-1.14-.19a23.66,23.66,0,0,0-9.93.84,68.64,68.64,0,0,0-10.87,4.31c-3.76,1.78-7.62,3.82-11.82,5.73a72.67,72.67,0,0,1-13.93,5,41.08,41.08,0,0,1-8.25,1.06,35.44,35.44,0,0,1-8.81-1,34.67,34.67,0,0,1-8.26-3.29A50.35,50.35,0,0,1,337,72.69c-3.91-3.1-7-6.14-10-8.48l-.54-.43-.49-.36a10.7,10.7,0,0,0-1-.69c-.33-.24-.66-.45-1-.65s-.66-.41-1-.59a19,19,0,0,0-4-1.71,10.72,10.72,0,0,0-3.18-.5,3.85,3.85,0,0,0-1.93.48,5.63,5.63,0,0,0-1.72,1.67,14.41,14.41,0,0,0-1.69,3.73,71.3,71.3,0,0,0-2.07,11.53L305,102.62l-3.57,25.92-.9,6.48c-.3,2.15-.57,4.33-1,6.63a56.44,56.44,0,0,1-1.63,7.08,29.21,29.21,0,0,1-3.27,7.19,22.36,22.36,0,0,1-2.56,3.29c-.49.49-1,1-1.49,1.43s-1.06.9-1.64,1.29a21.73,21.73,0,0,1-7.43,3.4c-5.2,1.22-10.09.74-14.59,0s-8.77-1.83-12.95-2.69c-2.08-.43-4.15-.8-6.18-1-1-.12-2-.17-3-.21s-2.12,0-3.19,0a99.33,99.33,0,0,0-12.75,1,95.2,95.2,0,0,0-12.56,2.79,58.63,58.63,0,0,0-6,2,59.34,59.34,0,0,0-5.7,2.95,85.14,85.14,0,0,1-11.72,6,20,20,0,0,1-6.54,1.42c-.56,0-1.13,0-1.69-.08l-1.66-.35-1.57-.58-.4-.15-.36-.2-.74-.41a11,11,0,0,1-4.37-4.91,22.87,22.87,0,0,1-1.76-6.32c-.66-4.31-.76-8.71-2.11-12.87A54,54,0,0,0,166.2,140Zm.08-.05a52.92,52.92,0,0,1,6,11.65c1.56,4.2,1.87,8.7,2.68,12.87s2.31,8.21,5.79,10l.64.34.32.17.36.11,1.4.48,1.4.26c.47,0,1,0,1.44,0a18.44,18.44,0,0,0,5.88-1.45,83.55,83.55,0,0,0,11.28-6.16c1.88-1.13,3.77-2.27,5.82-3.25.51-.24,1.05-.45,1.58-.68s1-.39,1.55-.59c1-.38,2.08-.73,3.13-1.08a100.48,100.48,0,0,1,25.91-4.89c1.1-.07,2.2-.1,3.31-.14s2.25,0,3.36.09c2.23.16,4.42.47,6.58.83,4.33.72,8.59,1.64,12.86,2.18a32.45,32.45,0,0,0,12.63-.37,16.26,16.26,0,0,0,9.69-7.38c2.18-3.61,3.06-7.9,3.63-12.17s.92-8.65,1.39-13l2.69-26,2.63-26a83.31,83.31,0,0,1,1.86-13,24.46,24.46,0,0,1,2.43-6.09,14.64,14.64,0,0,1,4.46-4.77A13,13,0,0,1,315.09,50a18.75,18.75,0,0,1,6.49.69A31.94,31.94,0,0,1,333,56.86c3.38,2.76,6.48,5.82,9.88,8.56a30.55,30.55,0,0,0,11.38,6.22,26.62,26.62,0,0,0,6.46.84,33.57,33.57,0,0,0,6.49-.69,65.89,65.89,0,0,0,12.39-4.09c8-3.37,15.77-7.56,24.29-9.57a30.85,30.85,0,0,1,13-.46,24.76,24.76,0,0,1,3.15.83,23.4,23.4,0,0,1,3,1.34,23.12,23.12,0,0,1,5.22,3.89,27,27,0,0,1,6.69,11.08,25,25,0,0,1,1.15,6.42,17.36,17.36,0,0,1-.88,6.43c-1.42,4.15-4.06,7.71-6.57,11.25a47.94,47.94,0,0,0-3.52,5.5,12.61,12.61,0,0,0-1.64,6.25,9.67,9.67,0,0,0,.67,3.18c.22.49.44,1,.71,1.47a15.17,15.17,0,0,0,.88,1.37,24.25,24.25,0,0,0,4.57,4.65c1.69,1.37,3.47,2.64,5.08,4.11a18.16,18.16,0,0,1,4.12,5,10.27,10.27,0,0,1,1.29,6.29,9,9,0,0,1-3.54,5.32c-3.43,2.72-7.61,4.23-11.17,6.75a21.62,21.62,0,0,0-7.24,10.65,25.21,25.21,0,0,0-.87,12.89,26,26,0,0,0,16.3,19c8.31,2.93,17.39,1.47,25.74,4.18a21.59,21.59,0,0,1,5.82,2.91c1.78,1.27,3.38,2.75,5.05,4.15a22.38,22.38,0,0,0,5.4,3.64,17.26,17.26,0,0,0,3.06,1.13c.53.12,1.07.2,1.6.3a8.93,8.93,0,0,0,1.62.18c4.37.36,8.68-.63,13-.79a21.39,21.39,0,0,1,6.48.59l1.56.49c.52.18,1,.46,1.49.69a16.5,16.5,0,0,1,2.76,1.72,23,23,0,0,1,7.45,10.53,43.12,43.12,0,0,1,1.74,6.29,56.5,56.5,0,0,1,.81,6.48,63.2,63.2,0,0,1-.56,13,60.66,60.66,0,0,1-3.21,12.65,44.71,44.71,0,0,1-2.7,5.94,33.07,33.07,0,0,1-3.63,5.42,24.85,24.85,0,0,1-4.75,4.47,21.45,21.45,0,0,1-5.88,2.79c-2.08.67-4.2,1.16-6.3,1.76a23.81,23.81,0,0,0-6,2.43,13.07,13.07,0,0,0-2.58,2l-1,1.25a14,14,0,0,0-.89,1.37,19.41,19.41,0,0,0-2.07,6.16c-.77,4.29-.75,8.69-1.69,12.95a17.06,17.06,0,0,1-2.41,6,16.58,16.58,0,0,1-4.61,4.57c-1.78,1.26-3.69,2.31-5.58,3.4l-5.67,3.25c-3.77,2.18-7.52,4.41-11.14,6.84a94.82,94.82,0,0,0-10.38,7.92,53.93,53.93,0,0,0-8.72,9.7,39.28,39.28,0,0,0-5.53,11.77c-1,4.26-.73,8.68-.59,13s0,8.79-1.62,12.87A33,33,0,0,1,413,396.23a57.36,57.36,0,0,1-4.81,4.42c-1.67,1.4-3.5,2.62-5,4.17A78.55,78.55,0,0,0,395,415l-30.79,42.27c-5.11,7.05-10.33,14.05-14.9,21.48A109.56,109.56,0,0,0,343,490.21c-.93,2-1.75,4-2.53,6s-1.43,4.12-2.12,6.19a58.75,58.75,0,0,1-5.08,12,36.29,36.29,0,0,1-3.93,5.21,43.88,43.88,0,0,1-4.77,4.47c-6.81,5.48-14.78,9.22-22.5,13.22S286.43,545,278,547.43a65.26,65.26,0,0,1-12.83,2.42,51.26,51.26,0,0,1-13-.63,43.11,43.11,0,0,1-6.32-1.63,38.8,38.8,0,0,1-6-2.66,31.54,31.54,0,0,1-5.37-3.72,32.48,32.48,0,0,1-4.55-4.68,57.66,57.66,0,0,1-6.8-11.14c-1.9-3.92-3.58-7.94-5.33-11.93l-41.76-95.89c-3.45-8-7.16-15.91-9.7-24.26a62.8,62.8,0,0,1-2.6-12.8,50.36,50.36,0,0,1,.57-13c1.41-8.61,4.24-16.9,5.95-25.45a51,51,0,0,0,1.16-13,27.47,27.47,0,0,0-3.62-12.41,33.78,33.78,0,0,0-8.86-9.48c-3.45-2.66-7.17-4.95-10.68-7.53a35.19,35.19,0,0,1-9.2-9.21,19,19,0,0,1-1.51-2.9l-.53-1.54-.26-.78-.18-.8a28.36,28.36,0,0,1-.7-6.49A64.23,64.23,0,0,1,137.66,265c.92-4.26,2.1-8.46,2.83-12.76L141,249l.26-3.26c0-.54.11-1.08.12-1.62v-1.64c0-1.08,0-2.17,0-3.26a65.29,65.29,0,0,0-2-12.88,63.36,63.36,0,0,0-4.81-12.12c-.46-1-1.09-1.88-1.63-2.83a28.31,28.31,0,0,0-1.76-2.74l-1.9-2.66-2.11-2.49a51.66,51.66,0,0,0-9.71-8.67,57.55,57.55,0,0,0-5.56-3.42c-1.92-1-3.91-1.92-5.9-2.8A108,108,0,0,1,94.16,183a31,31,0,0,1-5.29-3.84,23.69,23.69,0,0,1-4.14-5,19.64,19.64,0,0,1-2.45-6,13.74,13.74,0,0,1,.18-6.5,11.24,11.24,0,0,1,1.31-3,12.66,12.66,0,0,1,2.11-2.51c1.59-1.49,3.42-2.7,5-4.18a12.12,12.12,0,0,0,2.1-2.48,14.94,14.94,0,0,0,1.37-2.95A58.55,58.55,0,0,0,96,140.14a53,53,0,0,1,1.88-6.26,50.48,50.48,0,0,1,2.52-6,23.61,23.61,0,0,1,3.64-5.42,16.24,16.24,0,0,1,5.24-3.87,21.55,21.55,0,0,1,6.32-1.62,54.54,54.54,0,0,1,6.52-.49,53,53,0,0,1,13,1.36,49.59,49.59,0,0,1,12.23,4.53,46.44,46.44,0,0,1,10.61,7.58,58.47,58.47,0,0,1,8.34,10Z"/></svg>