<svg id="Layer_1" data-name="Layer 1" xmlns="http://www.w3.org/2000/svg" viewBox="0 0 600 600"><title>CaboVerde</title><path d="M103.2,69.94a65.15,65.15,0,0,0-14.84-3.33,27.48,27.48,0,0,0-7.48.43,30,30,0,0,0-7,2.4A103.27,103.27,0,0,0,61,77.36c-2.13,1.42-4.23,2.92-6.33,4.37A15.91,15.91,0,0,0,50,85.89c-1.67,2.63-1.85,6.56-1.29,10.82.24,2.19.71,4.61,1,7.33A43.12,43.12,0,0,1,50,113.2a37.19,37.19,0,0,1-.82,4.89c-.34,1.49-.73,2.92-1.11,4.19l-1,3.56c-.32,1.11-.51,2-.7,2.92a13.31,13.31,0,0,0-.21,2.09,4.6,4.6,0,0,0,.17,1.24c0,.22.09.16.07.21,0-.15-.07-.22-.28-.6l-.18-.21a2,2,0,0,0-.53-.53,2.7,2.7,0,0,0-.31-.28,3.35,3.35,0,0,0-.36-.21,2.79,2.79,0,0,0-.33-.19,1.51,1.51,0,0,0-.35-.14c-.12,0-.17-.08-.26-.1-.73-.2-.81,0-.46-.11a12.18,12.18,0,0,0,1.75-.43,36.61,36.61,0,0,0,5.23-2.35c1.86-1,3.78-2.16,5.66-3.4s3.76-2.57,5.29-3.77l.51-.4a3.82,3.82,0,0,1,.35-.27l1.42-1.41Q65,116.43,66.65,115a47.13,47.13,0,0,1,7.21-5.38c5.31-3.25,11.13-4.77,16.16-5.83a58.27,58.27,0,0,0,13.66-4.63,35.18,35.18,0,0,0,11.64-8.57,12.17,12.17,0,0,0,3-6.35,8.77,8.77,0,0,0-2.15-6.68,19.77,19.77,0,0,0-5.9-4.65A44.16,44.16,0,0,0,103.2,69.94Zm0,0a54,54,0,0,1,7.1,2.8,22.91,22.91,0,0,1,6.34,4.34l.67.72c.21.25.38.53.58.8a9.77,9.77,0,0,1,1.92,5.68,12.71,12.71,0,0,1-.58,4.06,20.49,20.49,0,0,1-1.64,3.74c-2.67,4.75-6.52,8.6-10.59,12.09a69.41,69.41,0,0,1-13.58,9.06c-4.55,2.29-8.3,4.67-11.12,7.63a42.32,42.32,0,0,0-4.06,4.89c-.66.91-1.3,1.85-1.95,2.82l-.48.74-.25.37-.12.19s-.07.11-.17.23c-.32.42-.65.85-.91,1.17s-.56.67-.82,1a63,63,0,0,1-6.27,6.2,65.53,65.53,0,0,1-6.92,5.26c-1.24.82-2.53,1.61-3.93,2.35a40,40,0,0,1-4.5,2.09,28.85,28.85,0,0,1-5.62,1.53,18.62,18.62,0,0,1-8-.41,11.51,11.51,0,0,1-1.18-.38c-.41-.16-.82-.34-1.22-.53s-.79-.37-1.18-.6-.77-.5-1.14-.76-.75-.54-1.09-.83-.65-.61-1-.93-.62-.64-.91-1-.49-.65-.73-1a17.93,17.93,0,0,1-2.07-3.95,22.45,22.45,0,0,1-.91-3.48,22.93,22.93,0,0,1-.26-6.36A29.72,29.72,0,0,1,27.68,124a62.31,62.31,0,0,1,3.1-8l1.32-3c.36-.92.69-1.74.93-2.54a31.39,31.39,0,0,0,1-6.07c.2-2.37.38-5,.73-7.94a36.29,36.29,0,0,1,2.26-9.07,21.45,21.45,0,0,1,5.86-8.42A25.15,25.15,0,0,1,51,74.68c2.42-.87,4.85-1.71,7.25-2.61,4.79-1.74,9.6-3.79,14.69-5.17a40.1,40.1,0,0,1,7.75-1.37,35.74,35.74,0,0,1,7.75.4A101.89,101.89,0,0,1,103.2,69.94Z"/><path d="M99.36,128.66a14.78,14.78,0,0,0-5.62,4.44,6.5,6.5,0,0,0-1.27,3.12,4.16,4.16,0,0,0,.76,2.84c1.16,1.5,3.18,1.9,5.28,1.91a20.51,20.51,0,0,0,3.26-.28c1.21-.16,2.4-.36,3.58-.56,4.74-.86,9.25-2.07,13.51-3.2l6.24-1.67,3-.81.75-.2.37-.1.22-.07.41-.12a2.08,2.08,0,0,1,.32-.12c.38-.14.54-.25.43-.09a2.85,2.85,0,0,0-.56,1.25c-.16.61,0,1.13.2,1.19s.33-.23.34-.7a8.42,8.42,0,0,0-1.25-3.9,13.69,13.69,0,0,0-3.4-4,14.61,14.61,0,0,0-5.68-2.47,24.33,24.33,0,0,0-7-.42A40,40,0,0,0,99.36,128.66Zm0,0c4.39-2.07,8.64-4.37,13.2-6.56a54.36,54.36,0,0,1,7.31-2.95,25.58,25.58,0,0,1,8.74-1.21,17.14,17.14,0,0,1,2.44.26,18.73,18.73,0,0,1,2.41.52,22.79,22.79,0,0,1,4.62,1.83,21.36,21.36,0,0,1,8,7.17,17.42,17.42,0,0,1,2.53,6.2,15.89,15.89,0,0,1-.64,8.35,16.5,16.5,0,0,1-5,6.95,20.21,20.21,0,0,1-5.93,3.38l-1.4.46-1.35.36-.66.15-.51.09-1,.18a38.59,38.59,0,0,1-4.14.48,46.12,46.12,0,0,1-8.23-.18A60.56,60.56,0,0,1,104.24,150c-1.23-.48-2.44-1-3.64-1.51a33.61,33.61,0,0,1-3.84-1.84,17.22,17.22,0,0,1-3.6-2.62,8.83,8.83,0,0,1-2.41-3.92,7,7,0,0,1,.25-4.28,9.2,9.2,0,0,1,2.23-3.18A23.29,23.29,0,0,1,99.36,128.66Z"/><path d="M151,148.43a7.71,7.71,0,0,0-.44,4.14,12.16,12.16,0,0,0,1.39,3.92,20.32,20.32,0,0,0,2.35,3.44,39.59,39.59,0,0,0,2.79,3.14,47.24,47.24,0,0,0,13.49,9.43,59.23,59.23,0,0,0,7.29,2.88c1.2.41,2.41.73,3.59,1,.28.07.6.17.86.22l.64.09,1.29.09a12.58,12.58,0,0,0,4.46-.56c.48-.18.8-.4.59-.39a1.51,1.51,0,0,0-.53.34,3.77,3.77,0,0,0-.78,1.05,2.37,2.37,0,0,0-.29,1.66c.07,0,0-.49-.19-1.16-.09-.34-.28-.74-.42-1.15a.77.77,0,0,1-.07-.26.34.34,0,0,0,0-.14l-.08-.17a6.78,6.78,0,0,0-1.29-1.9,71.94,71.94,0,0,0-5.59-5.32,52.29,52.29,0,0,1-6.83-7.09,23.94,23.94,0,0,1-1.49-2.22l-1-2c-.67-1.26-1.31-2.51-2-3.71a35.51,35.51,0,0,0-4.83-6.67,15.31,15.31,0,0,0-3.12-2.57,7.39,7.39,0,0,0-3.75-1.2,5.16,5.16,0,0,0-3.66,1.56A10.91,10.91,0,0,0,151,148.43Zm0,0a13.59,13.59,0,0,1,2.18-3.61,6.3,6.3,0,0,1,3.73-2.11,10.15,10.15,0,0,1,4.44.47,26.29,26.29,0,0,1,4.11,1.78,79.74,79.74,0,0,1,7.6,4.75l3.64,2.56c.59.43,1.19.85,1.75,1.22a5.52,5.52,0,0,0,.77.42c.24.11.44.23.72.34a72.76,72.76,0,0,0,7.14,2.37,44.4,44.4,0,0,1,8.81,3.52,22.62,22.62,0,0,1,5,3.71,21,21,0,0,1,2.37,2.81,24.21,24.21,0,0,1,1.62,2.55,21,21,0,0,1,2.46,6.82,17,17,0,0,1,.23,2.23c0,.4,0,.79,0,1.19s-.06.85-.1,1.27A15.92,15.92,0,0,1,206,186a16.31,16.31,0,0,1-3.23,4.46,17.37,17.37,0,0,1-3.94,2.82,19.46,19.46,0,0,1-7.42,2.12,25,25,0,0,1-12.24-2.08,25.67,25.67,0,0,1-2.67-1.35c-.44-.26-.86-.53-1.28-.8s-.68-.5-1-.75c-.66-.49-1.31-1-1.92-1.55s-1.24-1.06-1.82-1.62a55.38,55.38,0,0,1-6.32-7.11,100.74,100.74,0,0,1-9.25-15.46q-1-1.95-1.89-3.9a40.62,40.62,0,0,1-1.67-4,16.8,16.8,0,0,1-.95-4.17A8.79,8.79,0,0,1,151,148.43Z"/><path d="M229.16,170.09a6.17,6.17,0,0,0-1.7.5,2.71,2.71,0,0,0-1.21,1.25,8.09,8.09,0,0,0-.44,3.49,21.28,21.28,0,0,0,1.37,6.9,25.59,25.59,0,0,0,1.51,3.17,24.57,24.57,0,0,0,2,2.84,22.31,22.31,0,0,0,2.42,2.44c.88.74,1.82,1.41,2.79,2.11a24.12,24.12,0,0,1,5.71,5.05,21,21,0,0,1,3.39,7.27c1.29,5.19,1.23,10.42,1.07,15.3L244.24,216c.11-.09.07-.24.17-.36s.29-.29.51-.54a3.17,3.17,0,0,0,.58-.86,1.29,1.29,0,0,0,.11-.44,4.2,4.2,0,0,1,0-.43c.28-1.7-.25-4.52-.75-8.91a25.71,25.71,0,0,1,.37-7.86,18.3,18.3,0,0,1,1.7-4.77,17.26,17.26,0,0,1,3.48-4.51,21.7,21.7,0,0,1,8.58-4.7,38.79,38.79,0,0,1,3.94-.9c1.3-.24,2.57-.3,3.87-.43a51.61,51.61,0,0,1,13.85,1.42c4.12.9,7.8,2,11.12,2.82a44.2,44.2,0,0,0,8.84,1.45,11.77,11.77,0,0,0,1.64,0l1-.06c.2,0,.22,0,.15.18a2.68,2.68,0,0,0-.31.77,1.1,1.1,0,0,0,0,.85c.06.14.18.11.25-.07a2.83,2.83,0,0,0-.46-1.76,3.34,3.34,0,0,0-1.68-1.7,13.34,13.34,0,0,0-3.86-1.35,41.57,41.57,0,0,0-5.2-.66l-2.92-.22-3.18-.33a70.31,70.31,0,0,1-12-2.72c-7.64-2.33-14.77-5.27-22.16-7.43A71.9,71.9,0,0,0,240.66,170,42.58,42.58,0,0,0,229.16,170.09Zm0,0a56.26,56.26,0,0,1,11.53-.45c1,.08,1.93.15,2.9.21l2.88.32c1,.09,1.93.24,2.89.37s1.92.25,2.88.41c3.84.55,7.65,1.22,11.49,1.72s7.64.93,11.4,1.13a59.94,59.94,0,0,0,11-.47l2.59-.42,2.84-.57a55.77,55.77,0,0,1,6.35-.9,26.44,26.44,0,0,1,7.51.45c.67.17,1.34.32,2,.56.35.12.65.2,1,.36l1.14.5a18.71,18.71,0,0,1,4,2.61,19.31,19.31,0,0,1,5.6,7.93,16.93,16.93,0,0,1,1,5.63,15.77,15.77,0,0,1-1.41,6.41,16.3,16.3,0,0,1-3.92,5.22,18.74,18.74,0,0,1-4.85,3,23.16,23.16,0,0,1-4.58,1.45,26.27,26.27,0,0,1-4.11.54,49.66,49.66,0,0,1-14-1.21c-4.2-.92-7.9-2-11.27-2.92a50.8,50.8,0,0,0-9-1.7c-.62,0-1.29-.07-1.89,0s-1.27,0-1.75.1a11.2,11.2,0,0,1-1.76.22c-.08-.05-.08-.16-.22-.12s-.33.2-.54.54a11.24,11.24,0,0,0-1,3.58c-.25,1.59-.38,3.74-.74,6.09a23.06,23.06,0,0,1-2.56,7.76,14.09,14.09,0,0,1-1.41,2.07,13.26,13.26,0,0,1-1.74,1.77,13.92,13.92,0,0,1-4.15,2.41,12,12,0,0,1-5.07.72,9.49,9.49,0,0,1-5.25-2.08l-2.53-2.11.7-2.3c1.35-4.46,2.63-8.78,2.56-13a14.49,14.49,0,0,0-1.3-6.07,18.71,18.71,0,0,0-4.07-5.22A30.12,30.12,0,0,1,229.6,189a25.7,25.7,0,0,1-3-6.61,30.15,30.15,0,0,1-.74-3.52,28.4,28.4,0,0,1-.22-3.57,8.75,8.75,0,0,1,.56-3.51,2.68,2.68,0,0,1,1.24-1.25A6.21,6.21,0,0,1,229.16,170.09Z"/><path d="M510.61,149.48a20.83,20.83,0,0,0-.24-5.41,6.64,6.64,0,0,0-2.72-4.39,12.09,12.09,0,0,0-5-1.61c-.9-.15-1.81-.29-2.76-.5s-1.85-.5-2.74-.76a15.44,15.44,0,0,0-4.87-.93,2.22,2.22,0,0,0-1.46.53,1.9,1.9,0,0,0-.58,1,20.2,20.2,0,0,0-.32,4.25,44.81,44.81,0,0,0,.15,5.1,18.08,18.08,0,0,0,2.45,8.15,25.46,25.46,0,0,0,2.35,3c.93,1.06,2.06,2.14,3.24,3.38s2.52,2.61,3.85,4.21c.67.78,1.36,1.69,2,2.62l1,1.47c.32.54.63,1.09.94,1.64a26.28,26.28,0,0,1,2.79,7.87,37.08,37.08,0,0,1,.43,7.22c-.07,2-.14,3.54-.14,4.62,0,.57,0,.92,0,1.19a1.05,1.05,0,0,1,0,.24s-.05.09-.06.06-.46-.09-.43.12.61.66,1.63,1a19.25,19.25,0,0,0,3.92.77c.75.08,1.6.12,2.39.2.32,0,.45.08.4.17s-.36.24-.95.72a4.91,4.91,0,0,0-1.5,2.28c-.19.78,0,1,0,.73.18-.69.4-1.49.54-2.2a19.37,19.37,0,0,0,.47-4.29,16.36,16.36,0,0,0-.66-4.43c-.45-1.57-1.08-3.28-1.77-5s-1.36-3.55-2-5.35a33.51,33.51,0,0,1-1.42-5.64,44.06,44.06,0,0,1-.14-11.17C509.89,156.7,510.38,153.11,510.61,149.48Zm0,0c-.22,3.62-.49,7.26-.37,10.88a28.38,28.38,0,0,0,2.09,10.41,23.36,23.36,0,0,0,2.59,4.46,52,52,0,0,0,3.34,4.16c1.18,1.38,2.48,2.75,3.71,4.4a25.75,25.75,0,0,1,3.31,5.68,30.23,30.23,0,0,1,1.86,6.49c.2,1.1.32,2.12.45,3.25a9,9,0,0,1-.42,3.39A9.29,9.29,0,0,1,524,207a12,12,0,0,1-3.44,1.79c-.93.31-1.69.49-2.28.64-1,.27-2,.5-3,.7a30.88,30.88,0,0,1-7,.68,20.45,20.45,0,0,1-8.74-2.06,17.92,17.92,0,0,1-4.48-3.16,18.59,18.59,0,0,1-1.86-2.11c-.28-.38-.55-.76-.81-1.15s-.47-.8-.69-1.2a19.78,19.78,0,0,1-1.12-2.45c-.29-.81-.51-1.6-.71-2.38a24.49,24.49,0,0,1-.64-4.22,58,58,0,0,1-.05-6.26,34.32,34.32,0,0,0,0-3.65,10.06,10.06,0,0,0-.55-2.45,57,57,0,0,0-4.31-8.12c-1-1.68-2-3.55-2.9-5.61a30.85,30.85,0,0,1-2.17-6.89A25.5,25.5,0,0,1,479,152a35,35,0,0,1,1.23-6.32,58.27,58.27,0,0,1,2-5.64,22,22,0,0,1,3.2-6A7.76,7.76,0,0,1,487,132.6a5.63,5.63,0,0,1,1-.51,4.53,4.53,0,0,1,1-.37,7.52,7.52,0,0,1,3.89,0,21.65,21.65,0,0,1,5.39,2.62c.77.47,1.54.9,2.31,1.27s1.63.67,2.48,1a15.41,15.41,0,0,1,5,2.54,7.27,7.27,0,0,1,1.7,2.25,9.21,9.21,0,0,1,.78,2.64A26.14,26.14,0,0,1,510.61,149.48Z"/><path d="M513.86,261a27.52,27.52,0,0,0-3.38.47,7.22,7.22,0,0,0-2.76,1.13,3,3,0,0,0-1.2,1.84,6.2,6.2,0,0,0,.11,2.27c.17.88.48,1.88.75,3a19.62,19.62,0,0,1,.64,4A10.46,10.46,0,0,1,506.9,279a16.32,16.32,0,0,1-3.13,3.91,21.09,21.09,0,0,0-2,2.2,18.59,18.59,0,0,0-1.54,2.21,22.1,22.1,0,0,0-2.2,4.77,22.57,22.57,0,0,0-1,5,19.54,19.54,0,0,0,0,2.42,19.77,19.77,0,0,0,.3,2.21,3.81,3.81,0,0,0,.52,1.29c.2.25.26.17.43.24a17.88,17.88,0,0,0,2.68,1.11c.72.26,1.64.47,2.46.71s1.7.41,2.58.52a35.58,35.58,0,0,0,5.25.48,35.81,35.81,0,0,0,10.38-1.36,33.73,33.73,0,0,0,4.84-1.78c.78-.35,1.53-.74,2.28-1.14s1.46-.83,2.21-1.34c3.06-2,6.56-5,11.28-7.87,1.19-.72,2.46-1.42,3.8-2.07s2.53-1.14,3.62-1.58a51.22,51.22,0,0,0,4.8-2.05,8.31,8.31,0,0,0,.95-.59,2.1,2.1,0,0,0,.42-.32,3.68,3.68,0,0,0,.64-2.09,8.55,8.55,0,0,0-.06-1.66,6.57,6.57,0,0,0-.17-.89c-.12-.38-.24-.77-.35-1.17a26.31,26.31,0,0,0-2.11-4.78,36.56,36.56,0,0,0-3-4.58,35.66,35.66,0,0,0-3.75-4,25.6,25.6,0,0,0-4.31-3.14l-1.15-.6a10.56,10.56,0,0,0-1.11-.48,25.53,25.53,0,0,0-2.76-.8c-2-.49-4.21-.83-6.52-1.26l-1.77-.35-1-.22c-.34-.08-.66-.17-1-.26-1.21-.36-2.26-.78-3.29-1.15a26.91,26.91,0,0,0-2.93-.91,8.6,8.6,0,0,0-1.34-.21c-.22,0-.41,0-.61,0s-.19,0-.29,0l-.14,0h-.07l0,0a9.82,9.82,0,0,0-1.38.69c-.49.28-1,.58-1.44.87s-1,.61-1.39.95a4.62,4.62,0,0,0-.62.54C513.78,260.64,513.53,260.91,513.86,261Zm0,0a.31.31,0,0,1-.35-.29,1.57,1.57,0,0,1,.06-.49,6.45,6.45,0,0,1,.35-.86,16.92,16.92,0,0,1,.9-1.55c.32-.51.66-1,1-1.47a13.3,13.3,0,0,1,1.23-1.47,1.5,1.5,0,0,1,.2-.16l.13-.08.24-.16a3.6,3.6,0,0,1,.5-.29,9.1,9.1,0,0,1,1-.44,11.13,11.13,0,0,1,2-.5A23.1,23.1,0,0,1,525,253c1.2,0,2.37,0,3.4,0l.71-.05.68-.08,1.62-.21c2.21-.28,4.53-.56,7-.7a29.36,29.36,0,0,1,4,.05c.71.06,1.45.16,2.19.29l2.09.45a33.86,33.86,0,0,1,7.68,3.14A41.83,41.83,0,0,1,566.7,266.4a43.53,43.53,0,0,1,4.56,7l.93,2c.31.72.62,1.55.87,2.34a24.46,24.46,0,0,1,1.05,5,21.86,21.86,0,0,1-1.67,11.14,20.18,20.18,0,0,1-3.4,5.24,23.94,23.94,0,0,1-4.29,3.71,52.22,52.22,0,0,1-7.35,3.94c-1,.47-1.86.87-2.55,1.25s-1.37.8-2.1,1.28c-2.94,1.92-6.31,4.87-10.82,7.87-1.13.75-2.38,1.45-3.61,2.15-.62.35-1.26.64-1.89,1s-1.27.63-1.92.88a49.37,49.37,0,0,1-8,2.66,52.14,52.14,0,0,1-8.23,1.27A50,50,0,0,1,510,325a46.32,46.32,0,0,1-8.16-1.5c-1.34-.33-2.66-.82-4-1.27s-2.55-1-3.9-1.65a29.57,29.57,0,0,1-4.21-2.47,19.88,19.88,0,0,1-4.23-4,17.14,17.14,0,0,1-2.94-5.6,20.42,20.42,0,0,1-.88-5.33,26.12,26.12,0,0,1,.23-4.58,35.45,35.45,0,0,1,.89-4.29,31.69,31.69,0,0,1,8.55-14.43,29.89,29.89,0,0,1,3.19-2.65,26.22,26.22,0,0,1,3.23-2c.89-.46,1.4-.75,1.65-.86a1.85,1.85,0,0,0,.79-1.15,12.75,12.75,0,0,0,.44-2.81c.09-1.11.16-2.37.39-3.75a9.59,9.59,0,0,1,1.67-4.26,7.54,7.54,0,0,1,1.76-1.63,6.42,6.42,0,0,1,2.08-.86,9.07,9.07,0,0,1,3.9.08A19.18,19.18,0,0,1,513.86,261Z"/><path d="M477.18,454.9a13.92,13.92,0,0,1-2.61-4.48c-.63-1.63-1.11-3.29-1.55-4.84a25,25,0,0,0-1.49-4.15,4,4,0,0,0-1.86-2.07,3.64,3.64,0,0,0-.89-.25l-1.29-.16c-.55-.06-1.2-.15-2-.26l-2.4-.37c-1.6-.23-3.18-.52-4.77-.8l-4.61-.83c-.51-.07-.66.07-.12.17a3.27,3.27,0,0,0,1.18-.05,4.2,4.2,0,0,0,1.29-.47,3.82,3.82,0,0,0,.78-.52c.15-.1.23-.17.26-.16s0,.33-.11.79l-.94,4.12c-.31,1.43-.59,2.87-.87,4.31A147,147,0,0,0,453,462.17a25.25,25.25,0,0,0,.07,6.27,3.68,3.68,0,0,0,.34,1.09,2,2,0,0,0,.62.85,6.49,6.49,0,0,0,1.77,1,17.13,17.13,0,0,0,3,.79,40.8,40.8,0,0,0,7.79.43c1.42-.06,2.66-.1,3.63-.2a10,10,0,0,1,1.86-.17c.15,0,.26.07.41.08s.36-.21.59-.62a23.4,23.4,0,0,0,1.2-3.95c.76-3,1.39-6,2-9.15s1-6.36,1.46-9.71a45.72,45.72,0,0,1,4.1,9.27,60.11,60.11,0,0,1,2.3,10,30.77,30.77,0,0,1,.38,5.6,13.07,13.07,0,0,1-.83,3.94,13.84,13.84,0,0,1-2.4,3.95,18,18,0,0,1-6.41,4.51,36.9,36.9,0,0,1-5.7,2,45.59,45.59,0,0,1-11.31,1.69,31.74,31.74,0,0,1-6.5-.59,24.57,24.57,0,0,1-7.08-2.58,20.89,20.89,0,0,1-6.43-5.54,19.84,19.84,0,0,1-2.31-3.67A25.3,25.3,0,0,1,434,473.6a36.8,36.8,0,0,1-.95-12.8,92.2,92.2,0,0,1,3.78-20.53c.51-1.66,1.05-3.32,1.66-4.94.3-.82.62-1.63.94-2.43l1.07-2.57a22.53,22.53,0,0,1,1.92-3.56,16.66,16.66,0,0,1,1.66-2.1,13.34,13.34,0,0,1,2.54-2.12,12.87,12.87,0,0,1,3.45-1.51,12.29,12.29,0,0,1,3.55-.38,14.29,14.29,0,0,1,4.58,1c.52.2.89.37,1.25.53l1.09.51,2.19,1c1.46.69,2.92,1.37,4.36,2.11l2.18,1.09c.74.36,1.61.77,2.54,1.31a18,18,0,0,1,3,2,13.53,13.53,0,0,1,2.59,3,13.11,13.11,0,0,1,1.83,6.67,24.58,24.58,0,0,1-.62,5.4C477.92,448.65,477,451.51,477.18,454.9Z"/><path d="M355.29,431.75a25.34,25.34,0,0,0-2.92-2.94,8.34,8.34,0,0,0-3.65-1.82,5.38,5.38,0,0,0-3.88.78,7.59,7.59,0,0,0-2.63,3,9.84,9.84,0,0,0-1.07,3.81,16.22,16.22,0,0,0,.29,4c.46,2.66,1.42,5.27,1.9,8.16a36.25,36.25,0,0,1,.28,8.77,73.52,73.52,0,0,1-1.35,8.57c-1.15,5.59-2.62,11-2.91,15.9a30.76,30.76,0,0,0,.3,7.12,15.28,15.28,0,0,0,2,5.58c.22.39.51.68.73,1s.52.6.83.85a12.29,12.29,0,0,0,1.9,1.4,39.77,39.77,0,0,0,5.82,2.64c10.2,3.94,20,8.1,29.28,10.32a55.49,55.49,0,0,0,13.54,1.67l1.64,0c.5,0,.93,0,1.26-.07.68,0,1-.15.82,0a2.42,2.42,0,0,0-.29.41c-.06.13,0,.17.13,0a7.92,7.92,0,0,0,1.26-2.26,41.84,41.84,0,0,0,2.28-5.92,18,18,0,0,0,.38-1.85,3.58,3.58,0,0,0,.07-1c0-.27-.61-1.06-1.75-2.26a26.63,26.63,0,0,1-1.92-2.25,16.25,16.25,0,0,1-1.68-2.84,23.81,23.81,0,0,1-1.59-5l-.41-2c-.13-.61-.29-1.18-.44-1.79a53.3,53.3,0,0,0-6.17-14.24,106,106,0,0,0-9.63-13.27C370.7,447.69,362.58,440.07,355.29,431.75Zm0,0c7.34,8.33,16,15.26,24.43,22.54,4.21,3.66,8.44,7.38,12.43,11.52A63.49,63.49,0,0,1,402.89,480c.36.69.75,1.38,1.09,2.07l.91,1.92a11,11,0,0,0,1.62,2.61,8.08,8.08,0,0,0,1.73,1.22,18.8,18.8,0,0,1,4.23,3.48,16.58,16.58,0,0,1,3.46,6.51,21.48,21.48,0,0,1,.72,6.42,42.72,42.72,0,0,1-1.7,10.15,27.39,27.39,0,0,1-2,5.38,16.72,16.72,0,0,1-2.27,3.42,17,17,0,0,1-3.47,3,21,21,0,0,1-6.95,2.85c-1,.23-2,.4-2.84.52l-2.5.26a59.09,59.09,0,0,1-19.38-1.54,90.35,90.35,0,0,1-17.12-6.18c-1.33-.62-2.64-1.26-3.92-1.92s-2.55-1.33-3.82-2-2.49-1.37-3.7-2.08l-3.7-2.15a42.61,42.61,0,0,1-8.28-6,24.43,24.43,0,0,1-2-2.16,26.4,26.4,0,0,1-1.76-2.47c-.55-.84-1-1.75-1.43-2.63s-.78-1.81-1-2.72a27.9,27.9,0,0,1-1.11-10.63A42.76,42.76,0,0,1,329.6,478,63.18,63.18,0,0,1,333,469.7c1.22-2.57,2.51-5,3.62-7.49,2.25-4.91,4.06-9.95,4-15.24,0-2.63-.52-5.4-.7-8.24a19.3,19.3,0,0,1,.17-4.29,11.8,11.8,0,0,1,1.53-4,8.79,8.79,0,0,1,3-3,5.85,5.85,0,0,1,4.11-.62,8.74,8.74,0,0,1,3.65,1.95A26.24,26.24,0,0,1,355.29,431.75Z"/><path d="M230.92,488.43c-3.36-.51-6.72.19-10,.83s-6.62,1.44-9.88,2.33-6.28,2.22-7.76,4.26a9.82,9.82,0,0,0-1.52,3.49,16.67,16.67,0,0,0-.51,4.06,16.07,16.07,0,0,0,.45,3.93,18.59,18.59,0,0,0,1.24,3.64c.23.57.56,1.12.83,1.66s.62,1,1,1.53a18,18,0,0,0,2.2,2.64,24.43,24.43,0,0,0,11.47,6.11c1.1.25,2.21.45,3.33.59a31.76,31.76,0,0,0,3.38.19,30.45,30.45,0,0,0,7.22-.91,36.45,36.45,0,0,0,11.32-4.93c.61-.4,1.2-.83,1.79-1.28l.7-.51a5,5,0,0,0,.61-.51,7.31,7.31,0,0,0,1.88-2.72,9.84,9.84,0,0,0,.62-3.9,19.49,19.49,0,0,0-2.81-8.8,27.37,27.37,0,0,0-6.5-7.43A20.39,20.39,0,0,0,230.92,488.43Zm0,0a27.71,27.71,0,0,1,9.4,3.71,44.88,44.88,0,0,1,8.25,6.3,28.84,28.84,0,0,1,6.5,9,18.06,18.06,0,0,1,1.53,6.12,16.27,16.27,0,0,1-1.06,6.86,15,15,0,0,1-.71,1.64l-.42.79c-.15.28-.29.54-.4.73-.49.85-1,1.7-1.53,2.52a38.47,38.47,0,0,1-3.63,4.77,38.8,38.8,0,0,1-9.57,7.8A35.25,35.25,0,0,1,227,542.94l-1.67.22c-.56.06-1.12.08-1.68.12-1.12.08-2.24,0-3.37,0a37.16,37.16,0,0,1-6.64-.95,34.35,34.35,0,0,1-12.22-5.71,30.77,30.77,0,0,1-9-10.41,29.07,29.07,0,0,1-2.4-6.34,28.56,28.56,0,0,1-.92-6.52,28.84,28.84,0,0,1,.54-6.44,27.46,27.46,0,0,1,1.9-6.05,25.7,25.7,0,0,1,3.17-5.33,17.46,17.46,0,0,1,4.76-4.34,16.16,16.16,0,0,1,5.73-1.94,37.15,37.15,0,0,1,5.37-.34c3.43,0,6.8-.11,10.17-.33S227.58,487.91,230.92,488.43Z"/><path d="M174.13,525a3.87,3.87,0,0,0,2.23-3.58,3,3,0,0,0-.4-1.57,1.24,1.24,0,0,0-.42-.43,5,5,0,0,0-.5-.37,5.76,5.76,0,0,0-2.38-.72,10.57,10.57,0,0,0-2.6.25c-1,.17-2.11.45-3.46.77l-2.15.52a8.51,8.51,0,0,0-1.61.54c-.38.17-.55.36-.56.46s.15.16.19.22a.31.31,0,0,0,.47,0l-1.77,3a8.22,8.22,0,0,0-.88,2.63,8.41,8.41,0,0,0,0,2.92,7.73,7.73,0,0,0,.32,1.17,3.14,3.14,0,0,0,.47,1,7,7,0,0,0,.93,1.1,11.49,11.49,0,0,0,1.23.95c.43.25.86.49,1.28.68a7.26,7.26,0,0,0,1.22.4c.74.29,2.38-.34,4.3-1.74l6-4.54a21.42,21.42,0,0,0,5.35-5.56c1.17,2.7,1,6,.32,8.88a38,38,0,0,1-1.22,4.2c-.47,1.36-.9,2.54-1.5,3.91a20.31,20.31,0,0,1-2.49,4.28,17.14,17.14,0,0,1-2,2.17,17.47,17.47,0,0,1-8.83,4.24,21.35,21.35,0,0,1-6.38.07,22.57,22.57,0,0,1-11.28-5.11,21.36,21.36,0,0,1-4.35-5,22.73,22.73,0,0,1-2.63-5.92,24.67,24.67,0,0,1-.29-12.33,24,24,0,0,1,5.89-11l-1.77,3a17.83,17.83,0,0,1,6.37-7.87,17.12,17.12,0,0,1,4.52-2.22,17.9,17.9,0,0,1,4.27-.8,21.6,21.6,0,0,1,3.35,0c.94.06,1.83.18,2.84.3a29.28,29.28,0,0,1,6.47,1.5,19.18,19.18,0,0,1,3.43,1.65,14.6,14.6,0,0,1,3.08,2.5,12.63,12.63,0,0,1,3.5,7.15,11,11,0,0,1,0,2.07,7.85,7.85,0,0,1-.47,2.06,8.11,8.11,0,0,1-2.12,3.08,6.75,6.75,0,0,1-3,1.57A4.24,4.24,0,0,1,174.13,525Z"/></svg>