<svg id="Layer_1" data-name="Layer 1" xmlns="http://www.w3.org/2000/svg" viewBox="0 0 600 600"><title>Canada</title><path d="M82.46,391.13c-1.14-2-2.34-4-3.67-5.95l-4-5.74a33.81,33.81,0,0,1-1.85-3c-.31-.51-.5-1.07-.76-1.61a11.41,11.41,0,0,1-.67-1.67,28.45,28.45,0,0,1-1.44-7,40.53,40.53,0,0,1,.07-7.14c.18-2.37.53-4.71.9-7l1.13-6.9c.37-2.28.62-4.55.9-6.89.55-4.63,1.09-9.26,1.53-13.91l.71-7,.62-7,.31-3.49c.12-1.2.24-2.4.38-3.57.27-2.35.58-4.64.71-6.78a15.74,15.74,0,0,0-.45-5.62A8.85,8.85,0,0,0,74.27,287a8.61,8.61,0,0,0-1-.83,8.11,8.11,0,0,0-1.13-.8l-1.24-.8c-.56-.34-1.12-.71-1.67-1.08A39.21,39.21,0,0,1,63,278.2a33.58,33.58,0,0,1-5-6.85A29.19,29.19,0,0,1,54.92,263a26.56,26.56,0,0,1-.27-9.35,28.43,28.43,0,0,1,3-9,56.47,56.47,0,0,1,10.09-13c1.76-1.79,3.49-3.47,5.12-5.06.8-.78,1.59-1.57,2.31-2.32s1.33-1.42,2.18-2.34l9.48-10.33,9.59-10.22,4.73-5c1.41-1.51,3.2-3.48,5.32-5.46a36,36,0,0,1,8.39-6.07,23.31,23.31,0,0,1,7-2.29,20.59,20.59,0,0,1,9.24.69,21.86,21.86,0,0,1,7.54,4.23c.46.4,1,.85,1.35,1.24s.79.8,1.16,1.21l1,1.21.91,1.19c1.13,1.56,2,2.95,2.61,4s1.12,1.84,1.46,2.28a2.32,2.32,0,0,0,.56.62l0,0,.15.06a1.88,1.88,0,0,1,.18.12,7.17,7.17,0,0,0,2.15.62c.55.12,1.37.2,2.25.32l3.3.35a49.23,49.23,0,0,1,9.23,1.72c.88.29,1.8.58,2.63.9s1.62.65,2.39,1a36.21,36.21,0,0,1,4.49,2.4,49.87,49.87,0,0,1,7.55,5.78,71.26,71.26,0,0,1,5.86,6.22c.88,1,1.66,2.08,2.48,3.12s1.55,2.05,2.24,3c1.46,2,2.72,3.88,4,5.69s2.45,3.49,3.64,5a42.75,42.75,0,0,0,3.54,4.09,25.33,25.33,0,0,0,3.56,3.08l.92.62c.31.21.63.34.95.53a16.73,16.73,0,0,0,6.33,2,56.75,56.75,0,0,0,12.28-.41l3.69-.34c.65,0,1.27-.11,1.94-.14s1.15-.09,2.28-.1a29.77,29.77,0,0,1,9.51,1.66l1.59.49.7.22.57.16c.42.13.61.14.88.22s.14,0,.22,0a1,1,0,0,1,.12,0,.16.16,0,0,0,0,0s-.08,0-.11,0-.14,0-.16.16,0,0,0,0,0,.05.09,0,.24-.18.4-.38.36-.46.55-.68.27-.44.41-.7.27-.55.4-.92.27-.68.37-1.13a59.72,59.72,0,0,0,1.3-6.13,47.2,47.2,0,0,1,2-8.07,21.74,21.74,0,0,1,1-2.28,19.64,19.64,0,0,1,1.31-2.34,20.87,20.87,0,0,1,1.71-2.25,25,25,0,0,1,2.09-2,21.14,21.14,0,0,1,4.53-2.85,15.71,15.71,0,0,1,3.21-1,12.88,12.88,0,0,1,4-.16,12.36,12.36,0,0,1,3.89,1.13,13.5,13.5,0,0,1,3,1.92,20.73,20.73,0,0,1,3.6,4.07,54.62,54.62,0,0,1,3.93,7l1.55,3.13c.52,1.06,1,2,1.42,2.79a12.54,12.54,0,0,0,1.24,1.87c.37.44.65.61.72.61s0,0,0,0a.06.06,0,0,1,.07,0s.08,0,.11,0h.06l.1,0a1.83,1.83,0,0,0,.21,0,6.84,6.84,0,0,0,.7-.17,30.58,30.58,0,0,0,5-2.18l1.65-.81c.62-.29,1.17-.56,1.86-.85a26.33,26.33,0,0,1,4.63-1.62,15.71,15.71,0,0,1,2.91-.42l1.48-.08a12.77,12.77,0,0,1,1.6.09l1.63.2c.56.13,1.13.3,1.69.47a15.25,15.25,0,0,1,3.29,1.41,10.9,10.9,0,0,1,1.48,1c.47.36,1,.72,1.38,1.11s.78.8,1.16,1.21l.56.63.46.62c.3.42.6.85.89,1.28s.47.83.71,1.26a22.15,22.15,0,0,1,1.16,2.5,33,33,0,0,1,2.2,9.29,41.67,41.67,0,0,1,.21,4.47c0,1.51-.07,2.76-.13,4-.14,2.53-.3,4.82-.32,6.81,0,1,0,1.92.08,2.77,0,.41.08.82.13,1.2l.09.56.05.27c0,.1,0,0,.06.06s.06,0,.16.09a.18.18,0,0,1,.06.09,1.22,1.22,0,0,1,.15.17c.15.23.5.7.93,1.25.89,1.15,2.4,2.83,4.21,5.31a31.85,31.85,0,0,1,2.82,4.65c.23.47.45,1,.66,1.55a13.57,13.57,0,0,1,.58,1.67,20.46,20.46,0,0,1,.76,3.8c.06.66.13,1.33.14,2s-.05,1.34-.1,2l-.09,1a10.5,10.5,0,0,1-.19,1.12,14.7,14.7,0,0,1-.6,2.28A19.9,19.9,0,0,1,334,309a22.94,22.94,0,0,1-5.83,4.41,25.57,25.57,0,0,1-6.2,2.37,30.59,30.59,0,0,1-5.82.79c-1.74.08-3.3,0-4.69,0-2.76-.13-4.88-.3-6.26-.21l-1,.1-.49,0-.49.1-1,.16-1,.26a20.45,20.45,0,0,0-7.46,3.88,20.93,20.93,0,0,0-5.28,6.41,16,16,0,0,0-1.33,3.55,14.08,14.08,0,0,0-.49,3.64,19.06,19.06,0,0,0,1.63,7.72,19.63,19.63,0,0,0,2,3.53,9.15,9.15,0,0,0,.59.8,6.7,6.7,0,0,0,.59.7c.18.17.35.4.5.54a2.86,2.86,0,0,1,.41.36,2,2,0,0,0,1,.4,34.45,34.45,0,0,0,4.06.64c2.19.29,5.12.6,8.23,1.26,1.53.32,3.21.72,4.58,1.16.72.21,1.43.44,2.14.68a18.83,18.83,0,0,1,2.1.78c1.36.59,2.7,1.24,4,1.91s2.5,1.51,3.71,2.32,2.31,1.7,3.44,2.56,2.14,1.83,3.2,2.74,2,1.9,3,2.87l1.41,1.47,1.32,1.5c1.77,2,3.35,4.1,4.9,6.16,3,4.16,5.72,8.34,8.38,12.38s5.36,7.89,8.26,11.47c.72.89,1.44,1.79,2.2,2.64s1.43,1.65,2.13,2.34a15.68,15.68,0,0,0,3.93,3,6.68,6.68,0,0,0,.9.35c.34.07.68.15,1,.25a7.25,7.25,0,0,1,.73.07c.11-.05.35,0,.31,0,.13,0-.16.14-.12.16s0-.09.1-.15.13-.31.13-.6a6.48,6.48,0,0,0,0-1.9,11.63,11.63,0,0,0-.62-2.21c-.07-.18-.13-.37-.21-.54l-.28-.52-.35-.66-.48-.88c-.32-.59-.61-1.23-.91-1.85s-.58-1.29-.83-2a24.65,24.65,0,0,1-1.21-4.46,19.61,19.61,0,0,1-.13-5,21.69,21.69,0,0,1,3.15-9.08c.39-.61.77-1.27,1.19-1.82s.83-1.18,1.21-1.66l2.18-2.83a25,25,0,0,0,3-4.73,9.49,9.49,0,0,0,.38-1,3.85,3.85,0,0,0,.12-.69,4.59,4.59,0,0,0-.06-1.37,10.8,10.8,0,0,0-1.52-3.66,38.37,38.37,0,0,0-7.59-8.44c-1.59-1.36-3.2-2.67-5-4-2-1.53-4-3.18-5.88-4.93A49.31,49.31,0,0,1,343,329.1a27.59,27.59,0,0,1-3.14-9.67,24,24,0,0,1,1.24-11.2c.32-.9.77-1.81,1.19-2.7s1-1.7,1.53-2.53,1.18-1.56,1.82-2.27,1.33-1.4,2-2a27.55,27.55,0,0,1,9.28-5.26,31.53,31.53,0,0,1,9.95-1.64,29.84,29.84,0,0,1,5.06.4,33.41,33.41,0,0,1,4.92,1.19,44.69,44.69,0,0,1,15.36,9.13c1,.94,2,1.9,2.93,2.86s1.75,2.23,2.5,3.27,1.34,2.05,1.94,2.95a11.87,11.87,0,0,0,1.8,2.23,9.79,9.79,0,0,0,1.71,1.3,4.21,4.21,0,0,0,1.2.48c.18.06.21,0,.24,0s0-.05,0-.1a.75.75,0,0,1,0-.2,5.16,5.16,0,0,0,.31-.82,1.22,1.22,0,0,0,0-.5c0-.31,0-.71,0-1.25,0-1.08-.16-2.86-.36-5.36-.08-1.25-.17-2.67-.14-4.31,0-.83.05-1.67.14-2.59l.06-.65v-.8a2.92,2.92,0,0,1,0-.47,9.3,9.3,0,0,1,.13-1.16,12,12,0,0,1,2.11-5.18c2.54-4.11,8.31-5.29,8.87-5.18a16.22,16.22,0,0,1,2.24-.08h.56l.27,0,.19,0a5.34,5.34,0,0,1,1.42-.15c.92,0,1.86-.11,2.77,0a38,38,0,0,1,10.45,1.8,66.76,66.76,0,0,1,15.9,8c2.22,1.44,4.19,2.77,6.15,4.08l5.78,3.88a47.83,47.83,0,0,0,9.57,5.28,23.76,23.76,0,0,0,3.89,1.07c.62.14,1.26.18,1.89.27l1,.05,1.46.13c4.55.46,10.55.74,18,3.54a39.52,39.52,0,0,1,5.69,2.71c1,.52,1.9,1.18,2.83,1.81s1.92,1.44,2.79,2.22a37.12,37.12,0,0,1,12.38,24,38.65,38.65,0,0,1,.06,7.14c-.16,1.28-.35,2.57-.6,3.84s-.61,2.37-1,3.55A43,43,0,0,1,514,371.06c-.51.7-1,1.49-1.55,2.11s-1,1.3-1.55,1.93-1.05,1.13-1.61,1.66a20,20,0,0,1-1.67,1.44,23.45,23.45,0,0,1-7.22,3.79c-1.24.36-2.47.74-3.65,1l-3.39.81-.79.2c-.25.07-.58.24-.87.36-.6.24-1.17.52-1.73.8a18.36,18.36,0,0,0-1.65.88c-.55.3-1.08.61-1.58.94a50.28,50.28,0,0,0-5.51,4.48c-1.74,1.57-3.46,3.16-5.1,4.82l-1.24,1.24-1.32,1.37c-1,1.07-2,2-3,2.83a55.24,55.24,0,0,0-4.6,4.38,11.55,11.55,0,0,0-.71.92,4.62,4.62,0,0,0-.4.64c-.09.21-.11.46-.08.45s.09-.37-.16-.82-.34-.39.06-.17a19.86,19.86,0,0,0,1.95.93,21.18,21.18,0,0,0,2.47.88,10.11,10.11,0,0,0,2.62.49,18.63,18.63,0,0,0,2.59,0,12.37,12.37,0,0,0,4.38-1,9,9,0,0,0,1.54-1,21,21,0,0,0,1.75-1.48c1.3-1.2,2.74-2.81,4.66-4.67a34.15,34.15,0,0,1,7.64-5.68,23.21,23.21,0,0,1,5.67-2.11,22.25,22.25,0,0,1,3.33-.48,22.52,22.52,0,0,1,3.27.05,19.59,19.59,0,0,1,7.16,2,19.93,19.93,0,0,1,6.12,4.79,23.53,23.53,0,0,1,3.58,5.8,28.9,28.9,0,0,1,1.77,5.5,31.57,31.57,0,0,1,.7,5.12,39.26,39.26,0,0,1,0,4.85,40.45,40.45,0,0,1-1.7,9.48c-.25.8-.54,1.63-.87,2.48-.18.44-.34.86-.55,1.31l-.32.68c-.11.23-.22.46-.3.6-.7,1.32-1.42,2.62-2.19,3.83a44.58,44.58,0,0,1-5.1,6.75,46.83,46.83,0,0,1-13.3,10.11,53,53,0,0,1-8,3.24,42.1,42.1,0,0,1-8.81,1.67,26.81,26.81,0,0,1-9.16-1,21.62,21.62,0,0,1-2.11-.68c-.69-.23-1.38-.49-2.05-.78s-1.33-.58-2-.89l-1-.51-1.2-.71a31.26,31.26,0,0,1-6-5.87c-.75-.86-1.43-1.63-2.07-2.23a6.71,6.71,0,0,0-1.6-1.22,1.15,1.15,0,0,0-.81-.15.69.69,0,0,1-.2,0s-.11,0-.13.05-.09.07-.17.11-.16.17-.31.33a8.38,8.38,0,0,0-.5.74c-.38.64-.79,1.52-1.28,2.59a9.45,9.45,0,0,1-.42.85l-.46.91c-.32.59-.6,1.22-1,1.79a40.25,40.25,0,0,1-2.23,3.38,43.35,43.35,0,0,1-5.28,6,73.74,73.74,0,0,1-12.11,9.12c-4.13,2.58-8.19,4.86-12,7.23A101.55,101.55,0,0,0,410,488.11a107.17,107.17,0,0,0-9.63,8.94c-1.52,1.57-3,3.21-4.38,4.88-.71.83-1.4,1.67-2.07,2.53l-.51.63-.27.4c-.22.32-.47.71-.73,1.14-1.07,1.73-2.25,3.82-3.51,5.9s-2.63,4.25-4.25,6.44a40.92,40.92,0,0,1-2.7,3.31,27.67,27.67,0,0,1-3.52,3.32,19.77,19.77,0,0,1-5.18,3,15.4,15.4,0,0,1-7.48.89c-.64-.1-1.29-.23-1.93-.38s-1.19-.38-1.78-.6a17.82,17.82,0,0,1-3.1-1.62,18.16,18.16,0,0,1-4.75-4.61,22.81,22.81,0,0,1-3.92-10.64,27,27,0,0,1-.08-5.24,36,36,0,0,1,.68-4.57c.6-2.85,1.35-5.3,1.95-7.43.31-1.06.58-2,.8-2.94a20.71,20.71,0,0,0,.44-2.41,11.34,11.34,0,0,0-.06-3.5,2.88,2.88,0,0,0-.28-.77,2.47,2.47,0,0,0-.45-.55,17.54,17.54,0,0,0-3.66-2.42l-12.26-6.59c-4.1-2.21-8.24-4.58-12-6.48-1.9-1-3.75-1.78-5.56-2.51a33.74,33.74,0,0,0-5.14-1.61,37.75,37.75,0,0,0-11.41,0c-4.36.5-9.06,1.35-14.33,1.7-.64.06-1.33.07-2,.1l-1,0h-4.46q-3.57,0-7.12-.09c-9.49-.17-18.94-.82-28.33-1.62s-18.74-1.87-28.05-3.07c-18.62-2.38-37.08-5.32-55.51-8.27-9.21-1.49-18.53-2.95-27.65-5.35-2.28-.6-4.55-1.25-6.79-2s-4.48-1.48-6.67-2.34a101.6,101.6,0,0,1-12.74-6,61.56,61.56,0,0,1-11.48-8.12,33.41,33.41,0,0,1-4.7-5.24,22.19,22.19,0,0,1-3-6.32c-1.36-4.5-1.66-9.19-2.38-13.78a41.65,41.65,0,0,0-1.57-6.8,38.26,38.26,0,0,0-2.92-6.34Zm.08-.05c.57,1,1.2,2,1.75,3a31.69,31.69,0,0,1,1.45,3.2,42.35,42.35,0,0,1,1.86,6.81c.9,4.6,1.41,9.27,2.88,13.53a21.27,21.27,0,0,0,3.07,5.86,32.16,32.16,0,0,0,4.63,4.86,60.35,60.35,0,0,0,11.36,7.56,101.31,101.31,0,0,0,12.62,5.56,122.74,122.74,0,0,0,13.26,3.84c9,2.07,18.24,3.24,27.48,4.41,37,4.67,74,9.32,111.35,9.05q3.5,0,7-.12c2.33-.06,4.66-.1,7-.3,4.62-.4,9.2-1.35,13.82-2a47.48,47.48,0,0,1,14-.36,51,51,0,0,1,13.22,4.56c4.21,2,8.29,4.28,12.43,6.43L354,473.51a26.08,26.08,0,0,1,5.78,3.9,11.7,11.7,0,0,1,3.39,6,19.1,19.1,0,0,1,.15,6.95,43,43,0,0,1-1.67,6.78c-.7,2.22-1.44,4.44-2,6.71a21,21,0,0,0-.6,6.93,13.88,13.88,0,0,0,2.22,6.55A7.82,7.82,0,0,0,373.48,519a27.67,27.67,0,0,0,4.86-5c2.89-3.67,5.21-7.73,7.78-11.62a22.84,22.84,0,0,1,2.11-2.78c.75-.9,1.52-1.77,2.3-2.63,1.57-1.73,3.17-3.42,4.84-5.05a115.06,115.06,0,0,1,22.15-17c4-2.36,8.15-4.53,12.16-6.91A67.38,67.38,0,0,0,441,460a36.12,36.12,0,0,0,8.34-11.12c1-2.06,2-4.3,4-5.65a5.85,5.85,0,0,1,3.29-1A6.44,6.44,0,0,1,460,443c4.11,2.37,6.08,7.05,9.93,9.74a19.14,19.14,0,0,0,13.48,2.3,29.35,29.35,0,0,0,6.55-2.38,42.57,42.57,0,0,0,5.9-3.74,56.11,56.11,0,0,0,9.92-9.8,54,54,0,0,0,4-5.72,27.35,27.35,0,0,0,3-6.29,32,32,0,0,0,1.3-6.86,27.49,27.49,0,0,0-.29-7,14,14,0,0,0-2.68-6.38,8.79,8.79,0,0,0-6-3.28,12.3,12.3,0,0,0-6.81,1.12,27.46,27.46,0,0,0-5.84,3.82c-1.8,1.47-3.53,3-5.4,4.43a19.24,19.24,0,0,1-6.16,3.23,22.13,22.13,0,0,1-6.92.8,30.3,30.3,0,0,1-6.89-1,25.77,25.77,0,0,1-6.44-2.67,7.18,7.18,0,0,1-2.46-2.44,5.91,5.91,0,0,1-.67-3.38,8.35,8.35,0,0,1,1.05-3.3,16.84,16.84,0,0,1,2.1-2.79c1.57-1.73,3.36-3.24,5.07-4.82.85-.79,1.7-1.59,2.48-2.46l2.31-2.63,4.59-5.27,9.21-10.52c3.15-3.44,6.64-6.55,9.81-10a46.74,46.74,0,0,0,4.44-5.39,24.55,24.55,0,0,0,3.23-6.17,17.92,17.92,0,0,0-1.19-13.58,18.82,18.82,0,0,0-4.19-5.54,20.24,20.24,0,0,0-5.93-3.65c-4.33-1.77-9-2.36-13.61-3a38.88,38.88,0,0,1-13.3-4.09,73.33,73.33,0,0,1-11.56-7.82c-3.65-2.9-7.25-5.87-11-8.69a49.72,49.72,0,0,0-12-7.12,24.41,24.41,0,0,0-6.79-1.58c-1.16-.09-2.33-.05-3.49-.06-.58,0-1.17-.08-1.75-.06a.48.48,0,0,0-.38.18,1.1,1.1,0,0,0-.13.41c-.05.28-.08.58-.11.86-.14,1.16-.35,2.31-.42,3.47s-.09,2.33-.09,3.5a46.47,46.47,0,0,1-.28,7,17.1,17.1,0,0,1-.86,3.38,12.6,12.6,0,0,1-1.7,3,11.31,11.31,0,0,1-5.62,4,9.94,9.94,0,0,1-6.84-.41,18,18,0,0,1-5.65-4c-1.66-1.64-3.13-3.46-4.66-5.21a60.72,60.72,0,0,0-4.91-5,35,35,0,0,0-11.8-7.33,21.79,21.79,0,0,0-13.73-.18,18,18,0,0,0-6.1,3.32,13.53,13.53,0,0,0-4,5.63,14.59,14.59,0,0,0-.85,6.86,19.13,19.13,0,0,0,2.08,6.64,43.18,43.18,0,0,0,8.57,11c3.33,3.27,7.13,6,10.47,9.26a43.24,43.24,0,0,1,8.65,10.91,17,17,0,0,1,2,6.66,12.1,12.1,0,0,1-1.59,6.7c-2.22,4.15-5.85,7.25-8.41,11.15a15.51,15.51,0,0,0-2.5,6.47,13.52,13.52,0,0,0,.05,3.48,18.61,18.61,0,0,0,.86,3.38,26.81,26.81,0,0,0,1.39,3.21c.26.52.54,1,.79,1.56a11.81,11.81,0,0,1,.7,1.59,14,14,0,0,1,.95,6.86,9.08,9.08,0,0,1-.38,1.7,6.51,6.51,0,0,1-.82,1.54,4.89,4.89,0,0,1-2.79,2,10.7,10.7,0,0,1-6.82-.72,20.19,20.19,0,0,1-5.75-3.93c-1.72-1.57-3.3-3.29-4.92-5-6.44-6.74-12.66-13.7-19.56-20S317.42,371,308.72,367.51c-1.07-.46-2.19-.78-3.29-1.18a32.15,32.15,0,0,0-3.35-1c-2.26-.55-4.57-.89-6.88-1.23a37.92,37.92,0,0,1-6.82-1.5,17.14,17.14,0,0,1-6-3.58,32.46,32.46,0,0,1-7.58-11.62,33.24,33.24,0,0,1-2.25-13.7,27.6,27.6,0,0,1,1.22-6.87,30.05,30.05,0,0,1,2.74-6.42,34.1,34.1,0,0,1,9.28-10.33,33.33,33.33,0,0,1,12.62-5.8l1.71-.35,1.74-.21.86-.1.88,0,1.75,0c2.33,0,4.65.32,7,.49a25,25,0,0,0,7-.27,12.46,12.46,0,0,0,6.09-3.21,7.85,7.85,0,0,0,1.85-2.93,4.91,4.91,0,0,0,.24-.83,5.18,5.18,0,0,0,.11-.87l.07-.87c0-.29,0-.58-.06-.87a13.71,13.71,0,0,0-2.63-6.38c-1.3-1.94-2.78-3.74-4-5.71a15.08,15.08,0,0,1-2.51-6.47c-.44-4.66.46-9.3,1-13.92s.71-9.39-.82-13.82a10.33,10.33,0,0,0-4-5.52,9.53,9.53,0,0,0-6.75-.92c-4.57,1.05-8.44,4-13,5.07a8.89,8.89,0,0,1-6.78-.77,13.57,13.57,0,0,1-4.48-5.28c-1.1-2.06-2.07-4.17-3.1-6.27a47.12,47.12,0,0,0-3.33-6.13,12.74,12.74,0,0,0-2.3-2.61,5.9,5.9,0,0,0-3.12-1.43,6.48,6.48,0,0,0-3.38.64,13.64,13.64,0,0,0-2.92,1.89,12.77,12.77,0,0,0-3.78,5.76,39.5,39.5,0,0,0-1.54,6.81c-.37,2.3-.69,4.61-1.27,6.87a16.56,16.56,0,0,1-2.92,6.31c-.35.47-.78.87-1.16,1.31a13.13,13.13,0,0,1-1.38,1.08,7.48,7.48,0,0,1-3.31,1.07c-2.35.18-4.63-.55-6.87-1.11a22.39,22.39,0,0,0-6.88-1c-2.32.16-4.63.54-6.93.9a81,81,0,0,1-13.89,1.52,29,29,0,0,1-6.93-.9,30,30,0,0,1-3.32-1.1c-.54-.23-1.09-.41-1.61-.68l-1.56-.79a33.47,33.47,0,0,1-5.77-3.95,51.19,51.19,0,0,1-5-4.85c-3.16-3.44-6-7.16-8.88-10.81A81.37,81.37,0,0,0,173,222.69a32.36,32.36,0,0,0-11.93-7c-4.48-1.34-9.22-1.24-13.78-2.24a19.74,19.74,0,0,1-6.49-2.58,15.59,15.59,0,0,1-2.74-2.19,18.64,18.64,0,0,1-2.16-2.76c-1.27-2-2.26-4.08-3.6-6a11,11,0,0,0-5.26-4.36,8.91,8.91,0,0,0-6.72.74,26.2,26.2,0,0,0-5.72,4L94.31,219.48,84.17,229.1c-3.36,3.25-7,6.12-10.54,9.2a46.26,46.26,0,0,0-9.27,10.38,20.61,20.61,0,0,0-2.58,6.43,20,20,0,0,0-.19,6.94,24.87,24.87,0,0,0,5.79,12.49,33.25,33.25,0,0,0,5,4.81,34.8,34.8,0,0,1,5.36,4.48A13.13,13.13,0,0,1,81,290a20.91,20.91,0,0,1,.09,7c-.29,2.32-.75,4.61-1.15,6.9s-.75,4.6-1.09,6.91l-4.12,27.66c-.62,4.62-1.53,9.2-2.41,13.78-.43,2.29-.83,4.58-1.08,6.9a40.6,40.6,0,0,0-.24,7,27.6,27.6,0,0,0,4.06,13.21c2.36,4,5.15,7.76,7.57,11.76Z"/><path d="M61.34,377.57a3,3,0,0,0-2,1.83,7.24,7.24,0,0,0-.38,2.77,18.57,18.57,0,0,0,1.17,5.46,18.76,18.76,0,0,0,1.12,2.55,16,16,0,0,0,1.54,2.24A48.44,48.44,0,0,1,66.34,397a57.71,57.71,0,0,1,5,10.49l1,2.55c.34.81.74,1.76,1,2.27a1.52,1.52,0,0,0,.36.45c.06,0,0,0,0,0s-.14,0,0,0a2,2,0,0,0,.41-.34,4.58,4.58,0,0,0,1-1.55,18.74,18.74,0,0,0,.78-2.33,23.56,23.56,0,0,0,.71-5,32.82,32.82,0,0,0-.24-5.31,36.9,36.9,0,0,0-1-5.31,11.17,11.17,0,0,0-.43-1.19c-.09-.19-.18-.38-.28-.56l-.34-.61L72.78,388c-1-1.64-1.86-3.32-2.71-5a14.68,14.68,0,0,0-1.37-2.43,8,8,0,0,0-2-1.93A6.66,6.66,0,0,0,61.34,377.57Zm0,0a7.16,7.16,0,0,1,5.46.89,9.61,9.61,0,0,1,2.2,1.83,17.41,17.41,0,0,1,1.66,2.33c1,1.57,2.2,3,3.37,4.52l1.81,2.18.46.55.47.64a12.47,12.47,0,0,1,.79,1.35,26.91,26.91,0,0,1,1.18,2.76c.35.91.68,1.84,1,2.79a31.34,31.34,0,0,1,1.13,5.91,22.07,22.07,0,0,1-.33,6.21,19.64,19.64,0,0,1-.88,3.08,9.41,9.41,0,0,1-2,3.22,6.6,6.6,0,0,1-1.83,1.33,4.78,4.78,0,0,1-2.8.45,4.69,4.69,0,0,1-2.55-1.24,6.29,6.29,0,0,1-1.32-1.8,10.76,10.76,0,0,1-.64-1.56c-.17-.47-.33-.94-.47-1.41-.31-.93-.55-1.87-.8-2.79-.48-1.85-.88-3.69-1.36-5.46a37.34,37.34,0,0,0-1.69-5.18,41.81,41.81,0,0,0-2.6-4.92,17.42,17.42,0,0,1-1.28-2.64,28.16,28.16,0,0,1-.79-2.78,23.63,23.63,0,0,1-.69-5.66,7.7,7.7,0,0,1,.51-2.78A3,3,0,0,1,61.34,377.57Z"/><path d="M383.76,216.83c-3.46-1.59-7.19-2.58-10.66-4.2s-7-3.19-10.37-4.95c-1.71-.89-3.39-1.81-5.07-2.75s-3.31-1.91-5-2.81l-10.1-5.4c-3.38-1.81-6.76-3.67-10.09-5.68-.84-.49-1.66-1-2.49-1.53s-1.64-1-2.5-1.67a40.18,40.18,0,0,1-4.78-4,50.66,50.66,0,0,1-12.6-21.08,74,74,0,0,1-3-24.18A160.63,160.63,0,0,1,310,115.18a96.89,96.89,0,0,0,1.49-10.66,29.12,29.12,0,0,0-.7-9.35,16.14,16.14,0,0,0-4-7.06,8.84,8.84,0,0,0-5.87-2.87l-.37,0-.4.06c-.26,0-.53,0-.8,0a9.65,9.65,0,0,0-1.45.44A9.14,9.14,0,0,0,295,87.61,38.73,38.73,0,0,0,289,95.22c-1,1.58-2,3.23-3.19,5-.55.86-1.24,1.76-1.88,2.64s-1.5,1.89-2.15,2.59c-2.7,3.06-5.47,6.07-8.42,8.85a166.33,166.33,0,0,1-18.56,15.3c-3.21,2.32-6.5,4.49-9.79,6.55l-5,3a37,37,0,0,1-5.12,2.64c-1.77.75-3.61,1.37-5.4,2.05a43.34,43.34,0,0,0-5.18,2.35c-3.38,1.67-6.49,3.73-9.7,5.59-1.6.94-3.19,1.87-4.81,2.77s-3.17,1.87-4.72,2.84a107.57,107.57,0,0,0-8.91,6,50,50,0,0,0-7.55,7.08,29.09,29.09,0,0,0-2.87,4.1c-.45.71-.78,1.45-1.17,2.18s-.69,1.49-.94,2.26a18.78,18.78,0,0,0-1.12,4.68l-.11,1.19c0,.4,0,.8,0,1.2a11.87,11.87,0,0,0,.07,1.19c.05.4.06.8.13,1.2a19.56,19.56,0,0,0,1.23,4.69,27.53,27.53,0,0,0,2.16,4.44,26.35,26.35,0,0,0,2.89,4.12,24.08,24.08,0,0,0,1.85,1.79c.67.55,1.31,1.12,1.93,1.71a57.15,57.15,0,0,0,8.06,6.41,58.42,58.42,0,0,0,9,4.95,50.71,50.71,0,0,0,9.34,3.12l2.24.43,2.16.25c.71,0,1.4,0,2.08.09l2-.08a19.69,19.69,0,0,0,7.15-2c.28-.16.58-.28.87-.41s.56-.34.85-.5l.85-.5.84-.61.85-.6.82-.7c.55-.47,1.13-.91,1.68-1.44s1.18-.94,1.76-1.5l.92-.77.47-.38c.17-.12.39-.33.58-.49a41.83,41.83,0,0,1,5.09-3.84,59.31,59.31,0,0,1,5.78-3.35,47.11,47.11,0,0,1,6.3-2.72c1-.44,2.21-.69,3.29-1,.55-.16,1.15-.23,1.71-.36a10.72,10.72,0,0,1,1.71-.3c.57-.05,1.15-.13,1.72-.2s1.15,0,1.72,0a25.94,25.94,0,0,1,3.42.15,42,42,0,0,1,12.64,3.63,61.39,61.39,0,0,1,10.2,6.13c1.44,1,2.82,1.91,4,2.92s2.32,2.07,3.62,3.1a12,12,0,0,0,2.12,1.3,9.34,9.34,0,0,0,2.5.86,25.72,25.72,0,0,0,5.5.31c3.75-.06,7.66-.16,11.71.09a29.78,29.78,0,0,1,12.17,3.5,21.74,21.74,0,0,1,9.18,9.59c.23.52.48,1,.69,1.58l.55,1.62c.18.54.29,1.1.43,1.65a16.33,16.33,0,0,1,.33,1.74,18.51,18.51,0,0,1-.56,7.23c-1.27,4.62-4.11,8.35-6.26,11.25a27.67,27.67,0,0,0-2.68,4.12,9.65,9.65,0,0,0-1.05,3.53,3.55,3.55,0,0,0,.63,2.46,9.25,9.25,0,0,0,2.7,2.35,20.86,20.86,0,0,0,4.26,1.91l1.19.36,1.32.36,2.67.69a162.8,162.8,0,0,0,21.89,3.79l2.77.27c.92.06,1.89.15,2.71.18a26.12,26.12,0,0,0,5.08-.28,17.06,17.06,0,0,0,8.86-4,13.89,13.89,0,0,0,2.95-3.93c.85-1.64,1.59-3.33,2.3-5.05a59.11,59.11,0,0,0,3.2-10.7,50.47,50.47,0,0,0,.92-11.18,28,28,0,0,0-2.39-10.91,17.13,17.13,0,0,0-3.31-4.54,22.93,22.93,0,0,0-4.6-3.32,93.63,93.63,0,0,0-10.46-4.59Zm0,0a90.71,90.71,0,0,1,10.74,4.08,19.86,19.86,0,0,1,4.86,3.25,17.66,17.66,0,0,1,3.61,4.67,29.3,29.3,0,0,1,2.81,11.26,51.62,51.62,0,0,1-.51,11.52,64,64,0,0,1-2.77,11.17c-.64,1.81-1.33,3.6-2.13,5.35a16.56,16.56,0,0,1-3.23,4.83,19.63,19.63,0,0,1-10.15,5.3,29.12,29.12,0,0,1-5.73.61c-1.92,0-3.82-.09-5.73-.2a141.58,141.58,0,0,1-22.66-3.17c-1.86-.43-3.72-.86-5.55-1.42a25.07,25.07,0,0,1-5.25-2.24,13.35,13.35,0,0,1-4.26-3.75,8.26,8.26,0,0,1-1.46-5.41,13.35,13.35,0,0,1,1.65-5.43,33.53,33.53,0,0,1,3.21-4.72c1.17-1.51,2.39-3,3.44-4.57a20.49,20.49,0,0,0,2.52-5.12,14.17,14.17,0,0,0,.63-5.64,18.79,18.79,0,0,0-1.46-5.51,18.44,18.44,0,0,0-7.5-8.39,24.61,24.61,0,0,0-5.21-2.33,29.71,29.71,0,0,0-5.61-1.07,111.73,111.73,0,0,0-11.43-.14,40.79,40.79,0,0,1-11.35-1,27.05,27.05,0,0,1-5.25-2.25,49.08,49.08,0,0,1-4.74-3.19c-3-2.3-5.95-4.79-9.18-6.82a32.1,32.1,0,0,0-5.08-2.62c-.87-.39-1.8-.61-2.7-.93s-1.86-.42-2.8-.57a17.91,17.91,0,0,0-11,2.11,35,35,0,0,0-8.84,7.18c-2.64,2.76-4.86,5.89-7.58,8.57a34.08,34.08,0,0,1-9.19,6.7,26.87,26.87,0,0,1-11,2.7,34.18,34.18,0,0,1-11.26-1.72,66.42,66.42,0,0,1-20-10.87c-6-4.69-11.35-10.36-14.87-17.16A31.44,31.44,0,0,1,178.3,189a26.89,26.89,0,0,1,1.13-11.3,35.22,35.22,0,0,1,5.21-10.12,55,55,0,0,1,7.7-8.43,94.1,94.1,0,0,1,9-7.11c3.09-2.23,6.27-4.34,9.5-6.37,6.44-4.08,13.07-7.86,19.68-11.66,13.21-7.57,26.5-15.27,38-25.33a106.18,106.18,0,0,0,8.21-8,68.48,68.48,0,0,0,6.78-9.19,43.3,43.3,0,0,1,7.21-8.85,15.24,15.24,0,0,1,4.86-3,14.53,14.53,0,0,1,2.75-.75l1.43-.11.71,0,.72,0a15.28,15.28,0,0,1,10.05,4.89,22.32,22.32,0,0,1,5.5,9.9,35,35,0,0,1,.76,11.37,105.21,105.21,0,0,1-1.73,11.3,169.57,169.57,0,0,0-3.21,22.63,71.87,71.87,0,0,0,2,22.69,54.54,54.54,0,0,0,4.13,10.64,43.94,43.94,0,0,0,6.54,9.34,49.35,49.35,0,0,0,8.84,7.2c3.16,2.15,6.39,4.17,9.65,6.15l9.77,6c3.23,2,6.43,4.1,9.75,6a149.45,149.45,0,0,0,20.62,9.87Z"/><path d="M525.54,387.2a11.9,11.9,0,0,1,5.72-1.37c2-.08,4-.11,6-.11,1,0,2,0,3,.06s2,.09,2.95.08a8.23,8.23,0,0,0,2.58-.39,3,3,0,0,0,1.57-1.21,4.68,4.68,0,0,0,.12-3.91,6,6,0,0,0-.44-.92,6.47,6.47,0,0,0-.59-.79,7.89,7.89,0,0,0-1.59-1.38,18.68,18.68,0,0,0-4.45-2,42.86,42.86,0,0,0-5.19-1.34c-1.79-.38-3.65-.66-5.55-1a29.05,29.05,0,0,0-5.15-.42,9,9,0,0,0-4.27,1,5.42,5.42,0,0,0-1.61,1.39,5,5,0,0,0-1,1.92,3.66,3.66,0,0,0,0,2,20.88,20.88,0,0,0,1.42,2.45,14.76,14.76,0,0,1,1.47,6.1l0,.75a3.12,3.12,0,0,1-.08.83c-.09.5-.19,1-.24,1.44s-.06,1,.21,1.21a1,1,0,0,0,1.21-.09C523.27,390.47,523.77,388.22,525.54,387.2Zm0,0a6.14,6.14,0,0,0-1.94,2.2,9,9,0,0,1-1.78,2.39,1.4,1.4,0,0,1-1.57.2,1.07,1.07,0,0,1-.46-.75,4.35,4.35,0,0,1-.09-.79c0-.51,0-1,.06-1.5a2.64,2.64,0,0,0,0-.65l-.15-.72a11.39,11.39,0,0,0-2.26-5.05,23.32,23.32,0,0,1-2.13-2.29,6.65,6.65,0,0,1-1-3.7,8.94,8.94,0,0,1,.79-3.69,9.79,9.79,0,0,1,2.18-3.12,13,13,0,0,1,6.63-3.22,24.93,24.93,0,0,1,6.69-.29,51.78,51.78,0,0,1,6.17.83,33.75,33.75,0,0,1,6.2,1.9,20,20,0,0,1,5.9,3.69,12.07,12.07,0,0,1,2.35,3c.16.28.3.58.43.87a9.36,9.36,0,0,1,.36,1,10,10,0,0,1,.1,5.74,7.23,7.23,0,0,1-2.07,3.43,6.14,6.14,0,0,1-3.56,1.54,11.53,11.53,0,0,1-3.33-.26c-1-.21-2-.49-2.93-.69s-1.92-.42-2.89-.57a46.63,46.63,0,0,0-5.89-.59A10.48,10.48,0,0,0,525.54,387.2Z"/><path d="M62.05,346.38a23,23,0,0,0-.79-8.56A6.46,6.46,0,0,0,59,334.56a8.93,8.93,0,0,0-3.66-1.35,5.06,5.06,0,0,0-1.71.05,1.15,1.15,0,0,0-.86.57.33.33,0,0,0-.08.18.58.58,0,0,0-.06.22,1.84,1.84,0,0,1,0,.25l-.07.49c-.1.65-.14,1.31-.18,2a24.93,24.93,0,0,0,.79,7.7,27.66,27.66,0,0,0,1.23,3.7,29,29,0,0,0,1.81,3.53c.7,1.22,1.38,2.47,2.13,3.65a26.47,26.47,0,0,0,2.35,3.37,6.7,6.7,0,0,0,.63.66,3.9,3.9,0,0,0,.48.37s0,0-.06.09,0,0,0,0l0,0s.09-.18.14-.27l.1-.45a22.91,22.91,0,0,0,0-4.23c-.09-1.45-.27-2.89-.32-4.36,0-.74.12-1.44.17-2.17Zm0,0c-.07,1.44-.25,2.9-.18,4.33a42.62,42.62,0,0,0,.82,4.26,28.59,28.59,0,0,1,.8,4.4V360a3.57,3.57,0,0,1-.16.76,3.88,3.88,0,0,1-.24.45,2.23,2.23,0,0,1-.42.39,1.86,1.86,0,0,1-1.1.29,3.59,3.59,0,0,1-1.51-.46,8.53,8.53,0,0,1-1.07-.68,36,36,0,0,1-6.4-6.49c-.46-.59-.92-1.18-1.35-1.81-.22-.31-.43-.62-.67-1l-.18-.33-.14-.26-.27-.53a22.08,22.08,0,0,1-1.68-4.47,20.82,20.82,0,0,1-.21-9.55,16.72,16.72,0,0,1,.65-2.3l.2-.56c.1-.25.22-.51.34-.75a3.23,3.23,0,0,1,.47-.73,2.89,2.89,0,0,1,.61-.65,4.47,4.47,0,0,1,3.06-1.05,7.55,7.55,0,0,1,2.59.53,11.22,11.22,0,0,1,4,2.62,7.93,7.93,0,0,1,1.92,4.22A38.67,38.67,0,0,1,62.05,346.38Z"/></svg>