<svg id="Layer_1" data-name="Layer 1" xmlns="http://www.w3.org/2000/svg" viewBox="0 0 600 600"><title>Chad</title><path d="M231.53,52.52a36.79,36.79,0,0,0-21.93-.73,22.42,22.42,0,0,0-4.95,2.13,21.21,21.21,0,0,0-4.26,3.2,26.52,26.52,0,0,0-6,8.76,36,36,0,0,0-2.7,10.29c-.09.89-.14,1.81-.21,2.71s-.16,1.8-.14,2.71v2.72c0,.9.1,1.81.14,2.71a104.94,104.94,0,0,0,3.88,21.47c3.88,14.15,9.68,28.09,13.33,43.35a204.53,204.53,0,0,1,4.15,23,210.93,210.93,0,0,1,1.45,23.47c0,3.93-.09,7.86-.36,11.79-.11,2-.28,3.93-.46,5.9s-.39,3.82-.62,5.75c-.48,3.81-1,7.65-1.62,11.5s-1.42,7.71-2.3,11.58c-.45,1.93-.89,3.87-1.45,5.8s-1.12,3.86-1.72,5.79-1.31,3.87-2,5.78-1.52,3.84-2.41,5.75c-3.5,7.62-7.9,15.27-15,21.93-3.49,3.17-6.87,5.43-9.57,7.48a69.91,69.91,0,0,0-7.45,6.62A61,61,0,0,0,158,319.85a40.64,40.64,0,0,0-4.06,17.7,38.75,38.75,0,0,0,3.56,16,28.92,28.92,0,0,0,1.72,3.28c.28.51.65,1,.93,1.46.25.26.42.58.67.82a22.15,22.15,0,0,0,4.73,3.75c1.3.86,2.88,1.86,4.62,3.07a59.74,59.74,0,0,1,5.64,4.41c1,.91,1.89,1.82,2.81,2.84l.69.74c.23.26.52.61.77.92a22.46,22.46,0,0,1,1.49,1.92,31.35,31.35,0,0,1,4,8,39,39,0,0,1,1.68,7.51,65.8,65.8,0,0,1,.57,6.67l.1,3.07,0,1.47.06,1.26c0,.83.08,1.68.19,2.53s.2,1.7.33,2.57c.53,3.45,1.44,7,2.32,10.65l1.32,5.6c.48,1.9.93,3.83,1.35,5.81s.79,4,1.1,6.09l.45,3.14c.12,1.07.22,2.14.33,3.22l.18,3.28-.05,3.46a31.49,31.49,0,0,1-.28,3.65c-.08.63-.12,1.23-.24,1.88l-.46,2c-.17.66-.29,1.31-.52,2s-.52,1.38-.79,2.07a24.22,24.22,0,0,1-2.1,4.07,15.88,15.88,0,0,1-1.36,1.89c-.49.61-1,1.24-1.5,1.79s-1.06,1-1.6,1.55c-.28.25-.55.52-.82.75l-.81.63-1.64,1.24-1.55,1c-1.07.72-2,1.2-2.94,1.77l-5,2.79a46.33,46.33,0,0,0-7.38,5,9.3,9.3,0,0,0-1.46,1.78,8.1,8.1,0,0,0-1,2.15,7,7,0,0,0-.34,2.2,6.12,6.12,0,0,1,0,1.2,7.94,7.94,0,0,1-.08,1.17,2.76,2.76,0,0,1-.06.62,2.91,2.91,0,0,0,0,.66,6.49,6.49,0,0,0,.09,1.5,4.25,4.25,0,0,0,.2.82,5.63,5.63,0,0,0,.28.85,7.87,7.87,0,0,0,1,1.68c1.63,2.23,4.61,3.74,7.65,5.56l5,2.73,1.34.74c.47.27.87.46,1.42.84,1,.68,2.15,1.34,3.1,2.09,8,5.84,13.5,12.76,18.23,16.1a13.74,13.74,0,0,0,5.89,2.79,16.19,16.19,0,0,0,4.61,0,4.48,4.48,0,0,1,.62-.06l.69-.1c.42,0,1-.15,1.49-.21,1.11-.17,2.29-.31,3.72-.59l4.68-.77c1.78-.29,3.63-.54,5.74-.82a55.47,55.47,0,0,1,6.75-.5c1,0,2.08,0,3.12.06l3,.22A73.14,73.14,0,0,1,253.38,530c3.56.86,7,1.86,10.35,2.52a37.61,37.61,0,0,0,9.69.83,28.26,28.26,0,0,0,8.55-1.81c.66-.24,1.25-.56,1.88-.83l.46-.21a1.46,1.46,0,0,0,.25-.15c.14-.09.29-.15.42-.25a6.55,6.55,0,0,0,1.55-1.65c.27-.34.54-.8.82-1.24l.39-.76.38-.85a42.43,42.43,0,0,0,1.55-4l1.57-4.91c.58-1.77,1.15-3.67,1.91-5.66a45.68,45.68,0,0,1,7.34-13.38c.45-.58,1-1.17,1.56-1.76l.82-.86.94-.82a17.08,17.08,0,0,1,4.35-2.64c3.21-1.4,6.63-1.88,9.6-2.52a42.79,42.79,0,0,1,4.42-.78c1.36-.15,2.66-.22,3.92-.24a62.63,62.63,0,0,1,7,.32c4.24.41,7.68,1,10.4,1,.32,0,.49,0,.74-.05a3.25,3.25,0,0,0,.69,0,10.81,10.81,0,0,0,1.41-.26l.73-.17.75-.26c.5-.12,1-.42,1.56-.6a30.7,30.7,0,0,0,6.67-4.4,98.47,98.47,0,0,0,13.46-14.43c4.42-5.54,8.71-11.55,13.7-17.73a102.86,102.86,0,0,1,8.47-9.53l1.28-1.22c.19-.18.52-.46.79-.69l.85-.72c.56-.48,1.14-.94,1.7-1.33s1.14-.84,1.71-1.22a63.17,63.17,0,0,1,6.4-3.66c1.94-.94,3.75-1.73,5.26-2.43s2.77-1.33,3.7-1.89a12.57,12.57,0,0,0,2-1.44c.15-.09.19-.21.3-.31a3.9,3.9,0,0,0,.29-.28,1,1,0,0,1,.31-.27c.13-.1.25-.28.41-.41.59-.56,1.38-1.17,2.21-2a13.31,13.31,0,0,0,2.45-3,11,11,0,0,0,1.49-4,15.63,15.63,0,0,0,0-4.32,23.55,23.55,0,0,0-.86-4.25,19.62,19.62,0,0,0-1.66-3.84,24.91,24.91,0,0,0-6.13-6.76,98.14,98.14,0,0,0-8.8-5.94c-1.58-1-3.27-2-4.95-3.11s-3.42-2.24-5.2-3.52a46.4,46.4,0,0,1-5.22-4.42,34.19,34.19,0,0,1-8.31-12.69l-1.11-3.1c-.37-1-.64-2.11-1-3.17a56.43,56.43,0,0,1-1-26.77,47.82,47.82,0,0,1,4.45-12.72,30.92,30.92,0,0,1,1.73-2.88,30.46,30.46,0,0,1,1.95-2.71,30.78,30.78,0,0,1,2.17-2.53c.75-.81,1.5-1.61,2.3-2.37,3.16-3.06,6.5-5.75,9.71-8.4s6.31-5.34,9.68-7.67a91.82,91.82,0,0,1,21.59-11.23c1.9-.66,3.88-1.33,5.72-1.85s3.54-1.07,5.1-1.63c3.12-1.09,5.61-2.5,6.95-4.09a7.57,7.57,0,0,0,1.53-2.77,13.2,13.2,0,0,0,.58-3.72,38.69,38.69,0,0,0-1.21-9.54c-.77-3.45-1.78-7-2.64-11.05-.23-1-.44-2-.62-3.12-.09-.56-.18-1.1-.25-1.68l-.17-1.63-.56-5.61c-1.64-14.94-3-29.9-4.33-44.85l-.22-2.81c0-.5-.08-.88-.12-1.26l-.13-1.15-.33-2.28c-.15-.74-.26-1.49-.42-2.22a36.58,36.58,0,0,0-2.86-8.16c-.28-.65-.68-1.21-1-1.82s-.76-1.12-1.13-1.7-.81-1.06-1.26-1.56-.87-1-1.37-1.44a24.33,24.33,0,0,0-6.63-4.6,59,59,0,0,0-9.32-3.15c-1.8-.5-3.71-1-5.71-1.64-1-.32-2-.66-3-1l-1.54-.59-1.38-.57c-3.69-1.52-7.24-3.2-10.7-5s-6.83-3.58-10.13-5.45c-13.05-7.42-26.21-14.72-39.3-22.08l-9.85-5.5c-1.63-.89-3.3-1.88-5-2.85s-3.33-1.91-4.92-3c-6.52-4-12.64-8.53-18.69-13.07-12.1-9-23.62-18.64-35.9-27.24-3.05-2.17-6.16-4.27-9.36-6.22s-6.45-3.81-9.81-5.48-6.74-3.27-10.15-4.83c-3.49-1.37-6.95-2.81-10.54-3.93Zm0-.09c3.65.9,7.18,2.22,10.75,3.43,3.49,1.41,7,2.74,10.41,4.4s6.77,3.33,10.13,5.07,6.52,3.81,9.65,5.9C285.11,79.5,297,88.7,309.34,97.17c6.16,4.24,12.38,8.42,18.88,12.08s13.24,7,19.94,10.35c13.4,6.77,26.83,13.47,40.2,20.29a217.63,217.63,0,0,0,20.44,9.36c6.95,2.84,14.58,3.51,21.54,6.45a33.34,33.34,0,0,1,9.43,6.1,32.19,32.19,0,0,1,6.77,8.94,42.16,42.16,0,0,1,3.76,10.57,64.4,64.4,0,0,1,1.23,11.17l2.51,45c.25,3.74.24,7.51,1,11.2s1.62,7.33,2.35,11a46.1,46.1,0,0,1,1.11,11.17,16.08,16.08,0,0,1-3.91,10.31c-2.54,2.8-6.06,4.46-9.59,5.66s-7.21,2.08-10.73,3.38A74.63,74.63,0,0,0,414.62,301c-11.91,9.06-21.08,22-24.48,36.73a56.08,56.08,0,0,0-.54,22.35A33.29,33.29,0,0,0,393,370.73a31.08,31.08,0,0,0,7.3,8.49c5.77,4.82,12.45,8.37,18.3,13.09a38.46,38.46,0,0,1,7.75,8.11,31.57,31.57,0,0,1,4.46,10.27,34.41,34.41,0,0,1,.86,11.17c-.06.94-.24,1.86-.37,2.79s-.37,1.84-.66,2.73a23.78,23.78,0,0,1-2.15,5.19,19.69,19.69,0,0,1-3.38,4.48,24.75,24.75,0,0,1-4.44,3.44c-3.19,2-6.67,3.42-10,5.08a48.15,48.15,0,0,0-4.9,2.77,29.65,29.65,0,0,0-4.35,3.56,108.58,108.58,0,0,0-7.55,8.34C389,466,384.46,472,379.6,477.7a107,107,0,0,1-15.92,15.86A43.33,43.33,0,0,1,354,499.3a26.68,26.68,0,0,1-11,2.11c-3.76-.12-7.47-.73-11.2-1.1a32.84,32.84,0,0,0-11.19.37,16.21,16.21,0,0,0-5.14,2.21,18.85,18.85,0,0,0-4.15,3.77,39.55,39.55,0,0,0-5.5,9.78c-1.45,3.46-2.73,7-4.23,10.43a38.56,38.56,0,0,1-5.69,9.67,20.68,20.68,0,0,1-4.16,3.76,36.78,36.78,0,0,1-5,2.58,56.07,56.07,0,0,1-10.75,3.28c-7.35,1.55-14.89,1.86-22.39,2l-11.25.12c-3.76.05-7.51.16-11.24.54s-7.46.83-11.21,1a45.36,45.36,0,0,1-11.22-.53,28.63,28.63,0,0,1-10.4-4.1,36.77,36.77,0,0,1-8.27-7.58c-4.78-5.77-8.54-12.4-14.13-17.47a107.77,107.77,0,0,0-9-6.77,58.3,58.3,0,0,1-8.6-7.23,22.06,22.06,0,0,1-5.62-9.61,19.14,19.14,0,0,1,.37-11.09,19.62,19.62,0,0,1,6.35-9.11,52.86,52.86,0,0,1,9.57-5.9c3.34-1.69,6.83-3.17,9.87-5.38a20.48,20.48,0,0,0,2.14-1.81c.33-.33.62-.71.93-1.06a7.09,7.09,0,0,0,.85-1.11,14.38,14.38,0,0,0,1.36-2.46l.55-1.29c.16-.44.25-.9.39-1.35l.36-1.36c.11-.46.15-.93.22-1.39a21.86,21.86,0,0,0,.32-2.79l.12-2.81-.06-2.81a78.93,78.93,0,0,0-1.45-11.15c-1.45-7.37-3.61-14.57-5.14-21.92-.2-.92-.39-1.84-.55-2.76s-.33-1.85-.47-2.78c-.29-1.85-.51-3.71-.83-5.56a42,42,0,0,0-3-10.8,21.09,21.09,0,0,0-3-4.75,26.57,26.57,0,0,0-4.13-3.8,107.81,107.81,0,0,0-9.54-6,30.66,30.66,0,0,1-8.62-7.15,26.48,26.48,0,0,1-3-4.76,39.31,39.31,0,0,1-2.23-5.17,48.94,48.94,0,0,1-2.33-22.2,52.78,52.78,0,0,1,2.46-11,63.37,63.37,0,0,1,4.48-10.32,81,81,0,0,1,6.09-9.46,86.93,86.93,0,0,1,15.81-15.95c3-2.3,6.05-4.45,8.8-7a46.9,46.9,0,0,0,7.07-8.7c1-1.61,2-3.19,2.8-4.88.42-.84.89-1.65,1.27-2.51l1.15-2.56a127.33,127.33,0,0,0,6.9-21.39c1.76-7.3,3-14.7,4.16-22.12a218.13,218.13,0,0,0,2.32-22.38,203.31,203.31,0,0,0-.21-22.49,197.2,197.2,0,0,0-2.78-22.32c-2.67-14.79-7.66-29-10.78-43.71A106.83,106.83,0,0,1,188.65,87a71.52,71.52,0,0,1,.8-11.22,38,38,0,0,1,3.35-10.72,32.36,32.36,0,0,1,2.9-4.83,28.12,28.12,0,0,1,3.79-4.15,22.35,22.35,0,0,1,4.63-3.2,23.37,23.37,0,0,1,5.25-2,31.64,31.64,0,0,1,11.18-.73,71.62,71.62,0,0,1,11,2.18Z"/></svg>