<svg id="Layer_1" data-name="Layer 1" xmlns="http://www.w3.org/2000/svg" viewBox="0 0 600 600"><title>Congo</title><path d="M344.49,490.66c2.52-.76,5.22-.66,7.79-.85a16.42,16.42,0,0,0,7.22-2.07,18.74,18.74,0,0,0,5.54-5,34.7,34.7,0,0,0,3.85-6.49,75.32,75.32,0,0,0,4.65-14.6c1.17-5,2.21-10.07,3.06-15.14A95.52,95.52,0,0,0,378,431.18a28.09,28.09,0,0,0-1-7.7c-.31-1.28-.52-2.54-.71-3.81s-.2-2.53-.33-3.79-.22-2.52-.37-3.78-.29-2.52-.46-3.79l-1-7.82a73.68,73.68,0,0,1-.5-16.84,38.61,38.61,0,0,1,2.05-8.94,33.13,33.13,0,0,1,4.49-8.31,81.06,81.06,0,0,1,5.47-6.5c.87-1,1.71-1.9,2.49-2.81s1.49-1.81,2.21-2.77c2.89-3.81,5.55-8.16,8.62-12.67,1.53-2.25,3.18-4.55,5-6.8a59.37,59.37,0,0,1,6.13-6.46,129.28,129.28,0,0,1,13.14-10.12,91,91,0,0,0,11.29-8.95c6.52-6.28,11.35-14.28,15-23.12l.66-1.64.48-1.36c.17-.45.26-.95.4-1.41s.25-1,.35-1.45a41.67,41.67,0,0,0,.83-6.37c.15-2.28.2-4.72.24-7.32s.1-5.38.29-8.3a62.62,62.62,0,0,1,1.23-9.16,41.15,41.15,0,0,1,1.28-4.83c.51-1.59,1.1-3.09,1.71-4.55,2.5-5.77,5.44-10.47,7.61-14.68,2.35-4.47,3.25-7.12,3.27-10a26.22,26.22,0,0,0-.62-5.29c-.43-2.13-1-4.62-1.64-7.31-.15-.61-.32-1.48-.47-2.29s-.27-1.61-.4-2.42c-.23-1.6-.39-3.18-.5-4.73a88.81,88.81,0,0,1-.16-9c.17-5.87.78-11.45,1.45-16.79.69-5.52,1.65-11.13,2.87-16.6s2.74-10.89,4.46-16.23A191.07,191.07,0,0,1,486,103.56c1.27-2.38,2.83-5.11,4.31-7.49s3-4.66,4.34-6.8,2.7-4.23,3.87-6.21,2.26-3.91,3.15-5.75a36.18,36.18,0,0,0,2.1-5.26,25.13,25.13,0,0,0,.91-4.68,20.65,20.65,0,0,0-.11-2.74,6.08,6.08,0,0,1,0-1.94c.06-.23.17-.47.22-.71a1.22,1.22,0,0,0-.36-.9A5.5,5.5,0,0,0,500.58,60a16.4,16.4,0,0,0-3,.3c-.54.11-1.08.22-1.64.35l-1.79.52c-.75.2-1.49.43-2.23.67s-1.52.4-2.28.6-1.54.4-2.32.56-1.56.34-2.35.44a50.17,50.17,0,0,1-9.51.62,80.34,80.34,0,0,1-8.85-.77c-2.78-.35-5.42-.76-7.93-1.11s-5-.69-7.15-.83a93,93,0,0,0-14.15.45c-4.84.48-9.73,1.29-14.56,2.24l-1.78.36c-.51.13-1,.24-1.51.38-1,.25-2,.57-2.93.89A32.06,32.06,0,0,0,411.33,68c-3.13,1.72-5.84,4.28-6.22,5.65a12.58,12.58,0,0,0-.86,3.18c-.26,1.51-.43,3.6-.61,6.14l-.14,2-.17,2.1c-.14,1.42-.38,3-.57,4.5s-.5,3-.75,4.45l-.91,4.35a126,126,0,0,1-4.87,16.35c-1,2.57-2,5.1-3.06,7.57s-2.15,4.88-3.27,7.25c-2.2,4.74-4.44,9.32-6.33,13.87-.95,2.07-1.89,5-3.45,8.19a42.51,42.51,0,0,1-2.93,5.17,30.37,30.37,0,0,1-4.57,5.33A28.59,28.59,0,0,1,360,170.59a34.38,34.38,0,0,1-12.48.53c-1-.14-2-.32-3-.54s-1.78-.44-2.65-.68c-1.71-.5-3.36-1.07-4.89-1.68-3.06-1.22-5.79-2.5-8.24-3.7s-4.66-2.3-6.63-3.16c-1-.42-1.93-.8-2.8-1.1-.44-.15-.88-.31-1.28-.42l-1.57-.43c-5.12-1.41-10-2.78-14.67-3.86a90.1,90.1,0,0,0-13.41-2.2c-.53,0-1.07-.09-1.59-.11l-1.71-.09c-1.46-.08-2.93-.17-4.32-.28-2.84-.22-5.53-.5-8.2-.76l-15.39-1.66c-5-.48-9.82-.85-14.47-1.07a95.28,95.28,0,0,0-13.23.3A40.43,40.43,0,0,0,218.86,152a23.82,23.82,0,0,0-6.85,4.09,4.48,4.48,0,0,0-.71.67c-.23.24-.51.44-.75.69l-.7.81a6.33,6.33,0,0,0-.73.87,22.07,22.07,0,0,0-1.41,2l-.69,1.12-.31.45a4.4,4.4,0,0,0-.26.39,17.44,17.44,0,0,0-1.76,4.79c-.23.93-.38,1.9-.53,2.89s-.18,2-.2,3,0,2,.07,3a26.85,26.85,0,0,0,.44,2.8,21.49,21.49,0,0,0,.76,2.53,14.36,14.36,0,0,0,1,2,6.14,6.14,0,0,0,2.33,2.28,5.06,5.06,0,0,0,3.24.35c.35-.08.7-.15,1.06-.2l1.13-.4a6.59,6.59,0,0,0,1.19-.5,12.11,12.11,0,0,0,1.24-.63l1.26-.78,1.31-.94c.44-.29.89-.65,1.35-1s.9-.69,1.38-1.09l5.94-5.12a61.66,61.66,0,0,1,7.42-5.51,32.9,32.9,0,0,1,10.28-4.08c1-.16,2-.26,3-.36.51,0,1-.11,1.53-.1l1.66,0a26.56,26.56,0,0,1,6.28,1.19,29.46,29.46,0,0,1,5.4,2.4,37.25,37.25,0,0,1,4.5,3.11A41.74,41.74,0,0,1,274.8,180q1.45,2,2.7,4.06c.43.68.57,1.53,1,2.2s1,1.31,1.42,2c1.94,2.63,4.11,5.4,5.15,8.8a34.25,34.25,0,0,1,1.13,5.39,33.8,33.8,0,0,1,.26,6.14c-.09,1.08-.23,2.17-.38,3.25l-.12.81-.21.84-.44,1.68a26.15,26.15,0,0,1-2.88,6.45c-.31.49-.61,1-.95,1.47l-1,1.34c-.35.43-.7.9-1.07,1.28l-1.09,1.13c-.37.37-.75.78-1.12,1.09l-1.1.95c-.37.3-.75.65-1.11.91l-1.07.79a86.33,86.33,0,0,1-7.65,4.76,56,56,0,0,0-5.37,3.37c-.3.24-.6.49-.91.72s-.8.69-1.19,1.06c-.81.73-1.62,1.5-2.42,2.3a70.25,70.25,0,0,0-8.56,10.3,35,35,0,0,0-5.08,10.47,12.59,12.59,0,0,0-.43,4,5.89,5.89,0,0,0,.86,2.68c.06.11.11.22.18.33s.18.21.26.32a5,5,0,0,0,.58.68,7.25,7.25,0,0,0,1.36,1.2,19.75,19.75,0,0,0,4.63,2.26c2,.72,4.24,1.36,6.91,2.13a70.69,70.69,0,0,1,8.72,3.08,37.83,37.83,0,0,1,4.75,2.53c.4.25.8.51,1.19.79l.59.41.64.51a21.09,21.09,0,0,1,2.45,2.18,25.4,25.4,0,0,1,3.9,5.1,29.81,29.81,0,0,1,2.41,5.38,42.26,42.26,0,0,1,1.95,9.94c.26,3.08.29,5.94.31,8.58A277.42,277.42,0,0,1,282.29,348Q281.4,356,280,364c-.45,2.66-1,5.31-1.48,7.95s-1.08,5.26-1.77,8a57.93,57.93,0,0,1-6.71,16.92,36.64,36.64,0,0,1-2.95,4.05c-.56.69-1,1.17-1.56,1.75s-1,1.11-1.61,1.66l-.85.84-.95.84c-.6.55-1.35,1.12-2.09,1.68a17.89,17.89,0,0,1-6.35,3,17.25,17.25,0,0,1-2.41.3,13.1,13.1,0,0,1-2.65-.21,11.88,11.88,0,0,1-2.51-.78c-.39-.17-.79-.36-1.14-.55s-.64-.39-.95-.6a17.69,17.69,0,0,1-4.62-4.82c-1-1.43-1.68-2.69-2.34-3.85s-1.23-2.2-1.79-3.1a15.86,15.86,0,0,0-1.58-2.2,5.54,5.54,0,0,0-1.12-1,2.3,2.3,0,0,0-.34-.18.41.41,0,0,1-.18-.05,3.11,3.11,0,0,0-.34,0,2.5,2.5,0,0,1-.38-.06c-.12,0-.26,0-.39,0l-.4,0-.47.12a16.89,16.89,0,0,0-4.87,2.4c-1.92,1.24-4,2.8-6.49,4.4a31,31,0,0,1-9,4.18,16,16,0,0,1-2.82.53,18.12,18.12,0,0,1-2.95.16,19.91,19.91,0,0,1-5.72-1,25.06,25.06,0,0,1-8.76-5.42,38.34,38.34,0,0,1-5.85-7c-3.11-4.69-5.38-9.1-8.39-12.23-.37-.39-.76-.75-1.15-1.11a10.69,10.69,0,0,0-1.13-.88,12.5,12.5,0,0,0-2.63-1.4,10.85,10.85,0,0,0-2.81-.75,6.26,6.26,0,0,0-2.58.12,3.71,3.71,0,0,0-1.8,1c-.11.11-.18.27-.28.39a1.34,1.34,0,0,0-.25.42,4.46,4.46,0,0,0-.46,1,11.12,11.12,0,0,0-.53,2.72c-.06,1-.07,2.15-.06,3.38a39.26,39.26,0,0,1-.4,9,19.34,19.34,0,0,1-2,5.73,18,18,0,0,1-4.49,5.49,20.35,20.35,0,0,1-6,3.38,23,23,0,0,1-6.07,1.33,23.38,23.38,0,0,1-5.75-.21,27.77,27.77,0,0,1-5-1.31,66,66,0,0,1-7.64-3.62c-1.1-.55-2.12-1.08-3.1-1.46a14.24,14.24,0,0,0-2.79-.84,10.08,10.08,0,0,0-4.55.16,5.16,5.16,0,0,0-1.41.7c-.33.28-.59.44-.66.66a2.88,2.88,0,0,0-.29,1,9,9,0,0,0,.07,2,23.81,23.81,0,0,0,1.76,5.72,128.22,128.22,0,0,0,6.89,13c1.33,2.32,2.69,4.63,4,7.56.17.34.34.78.5,1.17s.33.85.49,1.32l.61,1.76c.37,1,.81,2.07,1.28,3.15,1,2.2,2.11,4.57,3.21,7.23a47.3,47.3,0,0,1,2.84,8.91l.19,1,.16.75.45,2a21.25,21.25,0,0,1,.5,6.24,15.65,15.65,0,0,1-.39,2.25,13.38,13.38,0,0,1-.85,2.34,13.77,13.77,0,0,1-2.71,3.83,13.24,13.24,0,0,1-3.86,2.69c-.39.18-.68.28-1,.41l-1,.33a14.36,14.36,0,0,1-6.36.4,14.81,14.81,0,0,1-3.68-1.1,20,20,0,0,1-5.15-3.38,32.84,32.84,0,0,1-3.3-3.42c-.86-1-1.57-1.85-2.19-2.47-.31-.31-.59-.56-.84-.77a5.2,5.2,0,0,0-.59-.42,1.68,1.68,0,0,0-.71-.3,6.59,6.59,0,0,0-3.64,1.41,27.88,27.88,0,0,0-8,9.81,27,27,0,0,0-3.1,12.73,12.72,12.72,0,0,0,.44,2.81,6.71,6.71,0,0,0,.95,2.22c.77,1.22,2,2,4.18,3.11,1.09.54,2.4,1.18,3.82,2.06s2.74,1.73,4,2.61,2.39,1.78,3.49,2.62l1.59,1.26c.5.41,1,.79,1.54,1.28A53.16,53.16,0,0,1,117.85,522a59.21,59.21,0,0,1,3.82,7.59c.6,1.39.94,2.44,1.38,3.51.21.55.42,1.08.64,1.59s.44,1,.66,1.52a22.18,22.18,0,0,0,3.07,5.06,6.31,6.31,0,0,0,3.36,2.24c.14,0,.27.08.42.1h.43a3.4,3.4,0,0,0,.94-.07,4.42,4.42,0,0,0,1.05-.25,5.12,5.12,0,0,0,1-.37,12.63,12.63,0,0,0,4.15-3.4,67.16,67.16,0,0,0,4.3-5.77c1.49-2.14,3-4.46,4.95-6.78l.73-.87.81-.87c.52-.57,1.13-1.14,1.74-1.69A32.54,32.54,0,0,1,155,520.7a35.71,35.71,0,0,1,8.2-4.09,29.26,29.26,0,0,1,9.28-1.67,24.22,24.22,0,0,1,9.54,1.83,30,30,0,0,1,7.84,4.85,63.88,63.88,0,0,1,6,5.89c1.82,2,3.53,3.94,5.23,5.75a35.62,35.62,0,0,0,5.25,4.63c3.69,2.68,7.94,4.33,11.47,3.63a9.89,9.89,0,0,0,2.59-.87,12.07,12.07,0,0,0,2.34-1.68,24.18,24.18,0,0,0,4.1-5.32c1.26-2.1,2.45-4.39,3.83-6.75a45.32,45.32,0,0,1,4.83-6.95,44.78,44.78,0,0,1,13.15-10.53,42.83,42.83,0,0,1,7.81-3.15,33.89,33.89,0,0,1,8.43-1.58,13.33,13.33,0,0,1,4.91.64,8,8,0,0,1,4.4,3.63,11.4,11.4,0,0,1,1.38,4.84,26,26,0,0,1-.08,4.35c-.27,2.77-.77,5.38-1.23,7.94s-.91,5.08-1.15,7.55a15.36,15.36,0,0,0,.56,6.88l.32.71.42.63c.29.43.78.88,1.16,1.33s.88.82,1.32,1.24,1,.74,1.44,1.12a17.5,17.5,0,0,0,14,2.67,16.54,16.54,0,0,0,6.68-3.29,33.29,33.29,0,0,0,5.27-5.59c3.13-4.14,5.74-8.68,8.52-13.1a61.16,61.16,0,0,1,4.54-6.4c1.69-2,3.24-4.09,4.76-6.22,3-4.25,5.93-8.61,9.25-12.64a49.09,49.09,0,0,1,5.35-5.72A20.85,20.85,0,0,1,343.3,491a20.85,20.85,0,0,0-6.53,4.23,49.85,49.85,0,0,0-5.29,5.77c-.82,1-1.6,2.06-2.38,3.11s-1.5,2.13-2.22,3.22l-4.32,6.54c-1.43,2.18-2.93,4.36-4.54,6.43a61,61,0,0,0-4.31,6.42c-2.65,4.47-5.14,9.09-8.23,13.41a34.52,34.52,0,0,1-5.36,6,18.93,18.93,0,0,1-7.21,3.88A19.69,19.69,0,0,1,277,547.65c-.56-.4-1.14-.76-1.68-1.2s-1.07-.86-1.55-1.35a19,19,0,0,1-1.43-1.52c-.23-.31-.46-.61-.67-.91l-.5-1a12.82,12.82,0,0,1-1-4.12,25.34,25.34,0,0,1-.06-4.08c.31-5.35,1.55-10.48,1.91-15.56.16-2.49.13-5.13-1-7s-3.48-2.47-5.91-2.32a29.88,29.88,0,0,0-7.4,1.51,37.45,37.45,0,0,0-7,2.95,40.33,40.33,0,0,0-11.77,9.66c-3.34,3.9-5.42,8.66-8.09,13.23a28.68,28.68,0,0,1-4.85,6.39,16.39,16.39,0,0,1-3.3,2.42,14.4,14.4,0,0,1-3.87,1.37,15.73,15.73,0,0,1-8.06-.59,26.85,26.85,0,0,1-7.11-3.64,40.82,40.82,0,0,1-6-5.18c-1.82-1.89-3.56-3.84-5.35-5.73-3.54-3.76-7.37-7.44-12.16-9.36a19,19,0,0,0-7.49-1.36,23.83,23.83,0,0,0-7.55,1.44,30.21,30.21,0,0,0-6.86,3.56,26,26,0,0,0-5.67,5.25c-3.26,4-5.68,8.74-9,12.82a19.39,19.39,0,0,1-5.92,5.12,13.18,13.18,0,0,1-7.61,1.49,13.63,13.63,0,0,1-7-3.22,30.17,30.17,0,0,1-5.23-5.82c-1.51-2.13-2.82-4.4-4.11-6.67s-2.69-4.47-4.14-6.65a118.15,118.15,0,0,0-9.54-12.41c-1.73-1.95-3.43-3.94-5.25-5.81a38,38,0,0,0-2.85-2.68c-1-.84-2.06-1.6-3.11-2.39a16.69,16.69,0,0,1-5.27-5.69,13.77,13.77,0,0,1-1.32-3.67,18.87,18.87,0,0,1-.45-3.89,30.78,30.78,0,0,1,.9-7.76,40.39,40.39,0,0,1,2.53-7.4A40,40,0,0,1,89,469.11a28,28,0,0,1,5.33-5.7,13.54,13.54,0,0,1,7.09-3.08,8.36,8.36,0,0,1,3.82.67,12.73,12.73,0,0,1,3.28,2.1c2,1.68,3.66,3.73,5.7,5.37a13.27,13.27,0,0,0,3.34,2,7.17,7.17,0,0,0,3.83.51,6.12,6.12,0,0,0,3.46-1.68,5.53,5.53,0,0,0,1.62-3.48c.19-2.63-.76-5.15-1.18-7.71-1-5.16-3.43-9.86-5.44-14.66-.49-1.21-1-2.43-1.4-3.66s-.78-2.5-1.31-3.69c-1.06-2.39-2.34-4.67-3.6-7a132.37,132.37,0,0,1-7.09-13.95,31.84,31.84,0,0,1-2.15-7.52,15.42,15.42,0,0,1-.07-3.9,10.08,10.08,0,0,1,1.21-3.7,11,11,0,0,1,6.07-4.68,18.08,18.08,0,0,1,7.74-.62c5.23.6,10,2.89,15.07,4.2a23.88,23.88,0,0,0,7.75.92,14.26,14.26,0,0,0,7.35-2.39,12.25,12.25,0,0,0,4.41-6.31,52.4,52.4,0,0,0,1.71-7.64,23,23,0,0,1,2.41-7.41,10.13,10.13,0,0,1,2.55-2.94,9.25,9.25,0,0,1,3.55-1.58,12.09,12.09,0,0,1,3.89-.19,15.57,15.57,0,0,1,3.81.85,18.4,18.4,0,0,1,6.65,4c3.87,3.55,6.59,8.09,9.75,12.23a35.25,35.25,0,0,0,5.32,5.73,20,20,0,0,0,6.73,3.9,14,14,0,0,0,3.86.62,11.63,11.63,0,0,0,1.95-.14,11.38,11.38,0,0,0,1.91-.4,25.48,25.48,0,0,0,7-3.46c2.18-1.44,4.25-3,6.43-4.47a23.48,23.48,0,0,1,7-3.42l.95-.24,1-.1c.32,0,.65-.08,1-.08l1,.05a8.15,8.15,0,0,1,3.74,1,15.91,15.91,0,0,1,5.44,5.53c1.44,2.17,2.64,4.5,4.14,6.64a10.59,10.59,0,0,0,2.68,2.82,4.66,4.66,0,0,0,3.73.7c2.56-.7,4.55-2.57,6.38-4.39a34.52,34.52,0,0,0,4.85-6.13,49.53,49.53,0,0,0,5.4-14.64,266.74,266.74,0,0,0,5.77-62.26c-.15-5.19-.28-10.51-2-15.47a16.76,16.76,0,0,0-4-6.62,21,21,0,0,0-6.56-4.18c-4.82-2.07-10-3-15-4.63a31.31,31.31,0,0,1-7.09-3.29,18.43,18.43,0,0,1-3-2.45,14,14,0,0,1-1.34-1.44l-.62-.75c-.2-.26-.37-.54-.55-.81a16.75,16.75,0,0,1-2.74-7.26,22.86,22.86,0,0,1,.44-7.78,45.14,45.14,0,0,1,6.29-14.27,82,82,0,0,1,9.71-12.26,57.75,57.75,0,0,1,5.71-5.35,63.17,63.17,0,0,1,6.56-4.29c2.24-1.33,4.51-2.64,6.61-4.18a20.31,20.31,0,0,0,5.42-5.59,16,16,0,0,0,2.28-7.4,25.36,25.36,0,0,0-.91-7.75,41.42,41.42,0,0,0-6.87-14,34,34,0,0,0-5.34-5.7,26,26,0,0,0-3.18-2.28,22,22,0,0,0-3.54-1.68,16.58,16.58,0,0,0-3.82-.82,11.54,11.54,0,0,0-1.95,0c-.65.06-1.3.09-2,.17a24.23,24.23,0,0,0-7.32,2.68c-4.55,2.6-8.45,6.12-12.55,9.35a51.47,51.47,0,0,1-6.43,4.45,16.86,16.86,0,0,1-1.74.9,13.53,13.53,0,0,1-1.79.79l-1.85.65-1.92.41a14.36,14.36,0,0,1-7.71-.55,14.93,14.93,0,0,1-6.26-4.56,24.61,24.61,0,0,1-3.95-6.73,37.56,37.56,0,0,1-2.14-7.52,43.33,43.33,0,0,1-.71-7.79,32.92,32.92,0,0,1,7.61-21.73,31.74,31.74,0,0,1,12.6-9,53.34,53.34,0,0,1,15.21-3.55,107.58,107.58,0,0,1,15.65-.23c10.44.54,20.78,2.16,31.12,3.59,2.59.35,5.18.7,7.77,1s5.2.45,7.8.79a106.84,106.84,0,0,1,15.32,3.18c5,1.39,10,3,15,4.57s9.65,4,14.27,6.41,9.38,4.75,14.57,5.55a21.21,21.21,0,0,0,7.78-.24,15.25,15.25,0,0,0,6.9-3.49,19.32,19.32,0,0,0,4.39-6.42c1.08-2.37,1.86-4.87,2.75-7.32,1.76-4.92,3.68-9.78,5.6-14.64,3.84-9.7,7.71-19.44,10.32-29.56a104.5,104.5,0,0,0,2.69-15.42,63.14,63.14,0,0,1,1.24-7.73,22.23,22.23,0,0,1,3-7.2,21.9,21.9,0,0,1,5.4-5.63,35.9,35.9,0,0,1,6.73-4,50.89,50.89,0,0,1,15.08-4c5.18-.69,10.39-1.19,15.6-1.42a105,105,0,0,1,15.66.35c5.19.59,10.3,1.7,15.46,2.51a48.85,48.85,0,0,0,15.59.41,43.16,43.16,0,0,0,7.58-1.91,54.75,54.75,0,0,1,7.51-2.21,21.05,21.05,0,0,1,7.79-.23,13.12,13.12,0,0,1,6.86,3.56,14.21,14.21,0,0,1,2.4,3.1,17.87,17.87,0,0,1,1.6,3.57,21.15,21.15,0,0,1,1,7.74,36.55,36.55,0,0,1-1.41,7.69,50.14,50.14,0,0,1-2.84,7.3c-4.52,9.45-11.2,17.64-16.08,26.88a178.88,178.88,0,0,0-20.13,59c-.78,5.17-1.46,10.35-1.73,15.56a61.24,61.24,0,0,0,.92,15.59c1,5.11,2.35,10.24,2.06,15.5a25.7,25.7,0,0,1-1.63,7.64,52.1,52.1,0,0,1-3.4,7.06c-2.54,4.56-5.4,8.95-7.56,13.71a44.55,44.55,0,0,0-3.73,15.11c-.47,5.2-.44,10.44-.93,15.64A43.74,43.74,0,0,1,458,290c-4.25,9.52-10,18.53-17.75,25.58S423,327.37,415,334.18a64.39,64.39,0,0,0-10.39,11.66c-3.07,4.22-5.95,8.59-9.25,12.64s-7.27,7.52-10.48,11.64a26.88,26.88,0,0,0-3.89,6.75,33.27,33.27,0,0,0-1.95,7.55,69.73,69.73,0,0,0,0,15.62c.47,5.2,1.12,10.39,1.36,15.61a148.28,148.28,0,0,1-5,46.55,76.66,76.66,0,0,1-5.28,14.72,34.2,34.2,0,0,1-4.27,6.56,19.65,19.65,0,0,1-6,4.94,16.82,16.82,0,0,1-7.56,1.79c-2.6.06-5.24-.17-7.8.46Z"/></svg>