<svg id="Layer_1" data-name="Layer 1" xmlns="http://www.w3.org/2000/svg" viewBox="0 0 600 600"><title>cuba</title><path d="M85.89,269.68a14.18,14.18,0,0,0,1.63-4.82c.27-1.69.23-3.4.34-5.13a31.44,31.44,0,0,1,2.64-10.08,35.91,35.91,0,0,1,13.73-15.9c6.07-3.87,12.87-5.95,19.25-8.33s12.85-4.75,19.27-7.11L162,211.16l9.64-3.57c3.21-1.18,6.39-2.41,9.82-3.57a71,71,0,0,1,10.94-2.88,40.63,40.63,0,0,1,12.45-.33,49.89,49.89,0,0,1,6,1.18c1.88.46,3.63,1,5.28,1.45a58.2,58.2,0,0,0,8.74,2.06,15.9,15.9,0,0,0,3.34.08,15,15,0,0,0,3.05-.64c2.36-.68,5.47-2,9.61-3.15a55.83,55.83,0,0,1,12.24-1.86,75.32,75.32,0,0,1,11.81.47,169.9,169.9,0,0,1,21.52,4.18l5.08,1.27q2.6.66,5.36,1.47a67.19,67.19,0,0,1,11.43,4.46,45.15,45.15,0,0,1,5.8,3.5,48.3,48.3,0,0,1,5.14,4.23c3.11,2.88,5.53,5.7,7.76,8.11,1.1,1.21,2.14,2.3,3.14,3.29a33.21,33.21,0,0,0,2.81,2.51,16.06,16.06,0,0,0,2.57,1.68,19.6,19.6,0,0,0,2.9,1.23,47.35,47.35,0,0,0,7.86,1.75c3,.47,6.46.85,10.22,1.46a72.56,72.56,0,0,1,11.86,2.85c2,.6,3.86,1.39,5.76,2.14s3.72,1.62,5.47,2.56a119,119,0,0,1,19.23,12.57c5.78,4.56,11.12,9.23,16.29,13.68s10.14,8.76,15.12,12.52a55,55,0,0,0,7.6,5,46.18,46.18,0,0,0,7.87,3.18c1.31.33,2.55.81,3.79,1.1s2.4.73,3.56,1.18,2.29.87,3.43,1.29,2.23,1,3.64,1.62a97.73,97.73,0,0,1,10.21,5.54,72.85,72.85,0,0,1,11.22,8.39,52.78,52.78,0,0,1,4.79,5.09,23.5,23.5,0,0,1,3.72,6.43,26.42,26.42,0,0,1,1,3.65c.2,1.14.37,2.13.55,3,.3,1.68.84,2.63,1.32,2.61a4.93,4.93,0,0,0,1.52-.23l2.33-.46c2-.35,3.44-1,7-1.44a38.35,38.35,0,0,1,5.89-.31,31.46,31.46,0,0,1,7.69,1.1,28.38,28.38,0,0,1,4.31,1.6c.72.33,1.36.73,2,1.11.33.2.67.4,1,.6l.88.61a30.69,30.69,0,0,1,3.09,2.56c.84.84,1.73,1.7,2.39,2.48,1.42,1.65,2.51,3.14,3.45,4.42s1.74,2.4,2.35,3.18,1,1.37,1.2,1.54.08.1.11.16l0,.1,0,0s0,.12.1.16.19.06.4.08a23.15,23.15,0,0,0,2.35-.05,26,26,0,0,1,4.4.15,16.93,16.93,0,0,1,2.9.64,19.61,19.61,0,0,1,3,1.32,15.83,15.83,0,0,1,2.76,2,13.94,13.94,0,0,1,2.19,2.53c.31.44.6.9.87,1.36s.44.9.64,1.36a14.87,14.87,0,0,1,.92,2.7,19,19,0,0,1,.52,5,21.12,21.12,0,0,1-2.2,8.76,19.22,19.22,0,0,1-6.29,7.37,26,26,0,0,1-7,3.38,51.63,51.63,0,0,1-12.19,1.88,56.87,56.87,0,0,0-9.11,1.12c-3,.55-6,1.43-9.17,2.32l-9.74,3c-1.64.52-3.41,1-5.12,1.51l-2.67.69c-.88.24-1.78.47-2.72.66l-2.77.6-2.89.48-1.45.23-1.5.15c-1,.09-2,.19-3,.26a51,51,0,0,1-6.29-.12c-1.07-.12-2.13-.14-3.2-.36l-3.21-.65-.8-.17-.78-.25-1.57-.51c-1-.36-2.15-.68-3-1.09-1.89-.78-3.65-1.59-5.24-2.37a50.35,50.35,0,0,0-8-3.42c-.56-.15-1.1-.27-1.64-.37l-.8-.12-.91-.09a8.86,8.86,0,0,0-3.74.24,31,31,0,0,0-3.89,1.62,24.21,24.21,0,0,1-4.31,1.94c-1.57.49-3.25,1-5.06,1.48s-3.59.93-5.34,1.36l-10.26,2.42c-3.35.76-6.62,1.6-9.82,2.3l-2.37.55c-.83.19-1.67.4-2.51.56l-5.05,1c-1.69.33-3.39.59-5.08.89l-2.54.43-1.27.17-1.81.23a28.23,28.23,0,0,1-10.95-.89,23.84,23.84,0,0,1-6.29-2.91,20,20,0,0,1-6.69-7.28,18.62,18.62,0,0,1-2-6.16,18,18,0,0,1-.13-3.27,18.84,18.84,0,0,1,.43-3,16.81,16.81,0,0,1,.8-2.59c.15-.4.32-.79.49-1.17s.34-.67.52-1,.36-.67.55-1l.55-.82c.18-.27.37-.55.57-.8l.55-.67a22.05,22.05,0,0,1,4.27-3.85c.7-.5,1.31-.82,2-1.22s1.26-.67,1.83-.93c1.12-.52,2.23-1,3.3-1.36s2.13-.67,3.15-.94c2-.54,3.9-.9,5.63-1.2s3.31-.53,4.74-.82a31.59,31.59,0,0,0,3.93-.94,14.78,14.78,0,0,0,6.08-3.86,15.84,15.84,0,0,0,2-2.65,3.84,3.84,0,0,0,.52-1.74,2.59,2.59,0,0,0-1.66-2.52,18.58,18.58,0,0,0-6.89-1.38l-4.86-.25c-1.66-.07-3.41-.17-5.22-.33a51.42,51.42,0,0,1-11.64-2.09c-1-.31-1.95-.7-2.92-1.05s-1.89-.8-2.8-1.25a42.92,42.92,0,0,1-5.37-3,41.93,41.93,0,0,1-9.5-8.46,32.1,32.1,0,0,1-3.69-5.75,29.18,29.18,0,0,1-2.36-6.79,25.77,25.77,0,0,1-.55-3.48c-.11-1.1-.18-2.1-.23-3a28.07,28.07,0,0,0-.54-4.48c-.26-1.1-.62-1.66-.94-1.83a9.45,9.45,0,0,0-1.12-.51,14,14,0,0,0-1.82-.56,12.51,12.51,0,0,0-2.45-.41l-1.31-.06h-.64a7.12,7.12,0,0,1-.8,0c-1.11,0-2.33.15-3.69.28s-2.84.31-4.46.53a42.61,42.61,0,0,1-5.28.37,35.56,35.56,0,0,1-6-.52,44.67,44.67,0,0,1-6-1.56c-1.95-.65-3.84-1.41-5.68-2.16-.93-.35-1.83-.77-2.74-1.1s-1.78-.75-2.67-1.09c-3.53-1.45-7.08-2.55-10.45-4.18q-2.53-1.2-4.94-2.61c-1.62-.91-3.21-1.87-4.75-2.92s-3-2.16-4.42-3.27-2.79-2.19-4.12-3.25a64.5,64.5,0,0,0-7.83-5.66,30.92,30.92,0,0,0-8.16-3.4,57.87,57.87,0,0,0-9.21-1.49c-3.2-.34-6.52-.49-10-.71s-6.94-.53-10.59-1.05c-1.81-.31-3.63-.67-5.44-1.12a53,53,0,0,1-5.36-1.72,44.51,44.51,0,0,1-10-5.49,29.84,29.84,0,0,1-4.47-4,16.93,16.93,0,0,1-2-2.73,9.61,9.61,0,0,1-1.33-3.91,7.61,7.61,0,0,1,1-4.51,9.15,9.15,0,0,1,1.23-1.63c.21-.23.44-.43.66-.64a9,9,0,0,1,.89-.67,9.46,9.46,0,0,1,3.6-1.35,17.72,17.72,0,0,1,3.07-.24c3.82,0,7.15.73,9.86.25a11.18,11.18,0,0,0,2-.42,2.18,2.18,0,0,0,.89-.5s0,0,.07-.11a.85.85,0,0,0,0-.37,2.33,2.33,0,0,0-.51-1.11,5.93,5.93,0,0,0-1.36-1.21c-.57-.4-1.29-.8-2-1.18a26.34,26.34,0,0,0-4.34-1.82,40.24,40.24,0,0,0-9.52-1.72,64.28,64.28,0,0,0-9.91,0,62.38,62.38,0,0,0-19.22,4.7,60,60,0,0,0-8.82,4.59c-2.8,1.79-5.5,3.81-8.18,5.89-5.35,4.17-10.6,8.69-16.6,12.33a41.84,41.84,0,0,1-9.59,4.44,32.22,32.22,0,0,1-5.22,1.15c-1.78.3-3.48.32-5.12.53a15.75,15.75,0,0,0-4.6,1.12,9.15,9.15,0,0,0-3.48,2.87c-1,1.26-1.89,2.72-3,4.14a30.92,30.92,0,0,1-3.53,4,33.06,33.06,0,0,1-8.72,5.91,32.53,32.53,0,0,1-4.92,1.87c-.84.25-1.7.46-2.56.64s-1.73.3-2.53.46a17.07,17.07,0,0,1-5.34.54,5.21,5.21,0,0,1-2.75-1.15A3.88,3.88,0,0,1,72,289.36a23,23,0,0,1,0-2.65,5.46,5.46,0,0,0-.27-2.23,1.59,1.59,0,0,0-1.32-1.11,5.6,5.6,0,0,0-2.21.47c-.39.14-.78.3-1.22.45s-.85.24-1.26.36l-2.48.67-5,1.35c-1.66.41-3.5.89-5.38.14A5.8,5.8,0,0,1,50.86,285a7,7,0,0,1-1.17-2.46,3.35,3.35,0,0,1,.47-2.81,3.28,3.28,0,0,1,2.6-1.07,11.28,11.28,0,0,0,2.46-.24,6.29,6.29,0,0,0,1.12-.46,5.84,5.84,0,0,1,1.23-.56,6.71,6.71,0,0,1,2.67.14,8.6,8.6,0,0,0,2.48,0c.83-.11,1.67-.28,2.52-.41s1.71-.21,2.56-.28A67.37,67.37,0,0,0,78,275.52a14.34,14.34,0,0,0,4.64-2A11.06,11.06,0,0,0,86,269.72Zm.08,0c-.22.37-.44.73-.63,1.12a12.51,12.51,0,0,1-.72,1.07,10.39,10.39,0,0,1-1.85,1.84,14.85,14.85,0,0,1-4.66,2.36A62.9,62.9,0,0,1,67.93,278c-.84.12-1.68.26-2.48.4s-1.63.39-2.53.53A10.15,10.15,0,0,1,60,279a5.42,5.42,0,0,0-2.06-.1A21.55,21.55,0,0,1,55.7,280a6.4,6.4,0,0,1-1.54.27l-1.29.08a2.79,2.79,0,0,0-.9.14.94.94,0,0,0-.43.29,1.6,1.6,0,0,0-.12,1.32,5.09,5.09,0,0,0,2.3,3,1.1,1.1,0,0,0,.32.11,3.54,3.54,0,0,0,.47.07,5.92,5.92,0,0,0,1,0,13.51,13.51,0,0,0,2.27-.47l4.92-1.42,2.47-.69c.4-.11.86-.23,1.16-.33l1.16-.44a7.35,7.35,0,0,1,3.09-.6,3.43,3.43,0,0,1,1.93.78,4.43,4.43,0,0,1,1.12,1.54,7.52,7.52,0,0,1,.45,3.09c0,.91-.09,1.73,0,2.4a1.8,1.8,0,0,0,.6,1.37,3.15,3.15,0,0,0,1.64.64,15.3,15.3,0,0,0,4.65-.53c.41-.08.9-.17,1.3-.23l1.21-.23c.8-.17,1.6-.37,2.38-.61a30.6,30.6,0,0,0,4.61-1.76,31.11,31.11,0,0,0,8.12-5.55,27.92,27.92,0,0,0,3.28-3.68c1-1.31,1.87-2.78,3-4.2a11.51,11.51,0,0,1,4.3-3.55,18,18,0,0,1,5.26-1.33,45.4,45.4,0,0,0,9.91-1.64,39.54,39.54,0,0,0,9.06-4.24c5.75-3.52,10.92-8,16.3-12.24,2.69-2.13,5.44-4.21,8.35-6.08a62.16,62.16,0,0,1,9.16-4.85,65.23,65.23,0,0,1,30.34-5.1,42.86,42.86,0,0,1,10.2,1.77,30,30,0,0,1,4.81,2,13.84,13.84,0,0,1,4.28,3.07,5.43,5.43,0,0,1,1.18,2.49,3.62,3.62,0,0,1-.57,2.75,4.94,4.94,0,0,1-2.25,1.59,13.7,13.7,0,0,1-2.56.64,15.91,15.91,0,0,1-2.6.27c-.87,0-1.73,0-2.59-.06-1.71-.09-3.41-.21-5.09-.17a9,9,0,0,0-4.76,1.12,4.51,4.51,0,0,0-2.05,4.08A7.69,7.69,0,0,0,198,259a24.59,24.59,0,0,0,4,3.08,40.19,40.19,0,0,0,9.22,4.26c13,4.3,27.2,2.14,40.45,6.05a37.63,37.63,0,0,1,9.32,4.27,84.83,84.83,0,0,1,8.19,6.18,97.84,97.84,0,0,0,8.15,6.21,56.7,56.7,0,0,0,28.93,9.29,58.37,58.37,0,0,0,10.23-.51c3.39-.43,6.76-1,10.16-1.33a30.92,30.92,0,0,1,10.2.5,18.76,18.76,0,0,1,8.93,4.78,12.58,12.58,0,0,1,2.8,4.25,14.75,14.75,0,0,1,.95,5c.15,3.41-.42,6.84.11,10.24a19.3,19.3,0,0,0,1.39,4.92,22.94,22.94,0,0,0,2.6,4.4,29.44,29.44,0,0,0,7.54,6.88,36.64,36.64,0,0,0,9.29,4.24,47.41,47.41,0,0,0,10.12,1.58c3.41.22,6.83.33,10.23.62a23.68,23.68,0,0,1,9.84,2.6,10.51,10.51,0,0,1,3.67,3.5,10.33,10.33,0,0,1,1.5,4.85,11.18,11.18,0,0,1-.87,5,21.71,21.71,0,0,1-2.59,4.41,28.37,28.37,0,0,1-7.47,6.94,60.73,60.73,0,0,1-9.25,4.4,59.35,59.35,0,0,0-9.24,4.42,14.49,14.49,0,0,0-3.88,3.31,5.58,5.58,0,0,0-1.11,2.28,3.57,3.57,0,0,0,.37,2.48,6.66,6.66,0,0,0,4.13,2.81,13.19,13.19,0,0,0,5.08.33l10.12-1.64L401.27,388c3.38-.52,6.76-1,10.15-1.45,6.77-.94,13.55-1.9,20.23-3.34a65.56,65.56,0,0,1,10.15-1.4,30.74,30.74,0,0,1,10.14,1.2c6.55,2,12.12,6.43,18.86,7.94l2.51.51c.84.18,1.7.18,2.55.28a41.64,41.64,0,0,0,5.12.11,61.76,61.76,0,0,0,10.13-1.51c6.67-1.51,13.13-3.79,19.69-5.72a85.54,85.54,0,0,1,20.1-3.84A43.75,43.75,0,0,0,541,379.21,16.83,16.83,0,0,0,545.6,377a10.15,10.15,0,0,0,3.21-3.93,12.11,12.11,0,0,0,1.18-4.94,8.27,8.27,0,0,0-1.35-4.86,5.92,5.92,0,0,0-4.3-2.47,30.14,30.14,0,0,0-5.11.2,11.64,11.64,0,0,1-5-.82,15.82,15.82,0,0,1-4.33-2.7c-2.63-2.2-4.81-4.86-7.28-7.22a19.39,19.39,0,0,0-8.59-5.36,38.28,38.28,0,0,0-10.19-.83c-1.71,0-3.42,0-5.13-.12a24.5,24.5,0,0,1-5-1,15,15,0,0,1-4.56-2.29,9.36,9.36,0,0,1-3.12-4c-1.31-3.21-.45-6.82-1.62-10.07a13.44,13.44,0,0,0-2.57-4.4,18.32,18.32,0,0,0-3.91-3.28,26.24,26.24,0,0,0-9.57-3.5c-3.36-.63-6.78-.9-10.16-1.35a62.34,62.34,0,0,1-10-2.17,69.09,69.09,0,0,1-9.48-3.88c-24.57-12.65-40.67-36.68-65-49.65-1.49-.83-3.06-1.5-4.61-2.23s-3.15-1.33-4.78-1.84a59.33,59.33,0,0,0-9.92-2.51c-6.72-1.19-13.61-1.72-20.08-4.06a29.64,29.64,0,0,1-8.89-5,63.55,63.55,0,0,1-7.23-7.26c-2.27-2.56-4.47-5.18-6.94-7.54a35,35,0,0,0-8.25-6c-6.07-3.2-12.78-4.84-19.36-6.61a158.06,158.06,0,0,0-20-4.27,56.25,56.25,0,0,0-20.37.68c-3.33.75-6.53,2-9.88,2.72a23.87,23.87,0,0,1-10.2.06c-6.73-1.34-12.9-4.59-19.64-5.81s-13.68,0-20.23,1.81c-13.12,3.83-26.2,7.85-39.3,11.76l-19.64,5.91c-6.52,2-13.19,3.8-19.13,7.23a34.49,34.49,0,0,0-13.82,14.71,36.23,36.23,0,0,0-1.91,4.75,31.26,31.26,0,0,0-1.23,5c-.48,3.36-.56,6.88-2.15,10Z"/><path d="M163,276.71a13.59,13.59,0,0,0-7.31-1.29,10.18,10.18,0,0,0-6.48,3.17,8.11,8.11,0,0,0-1.71,6.64,11.67,11.67,0,0,0,1.14,3.32c.44,1.07,1.23,2,1.8,3.4a5.37,5.37,0,0,1-.15,4.88,3.43,3.43,0,0,1-1.05,1.1,3.76,3.76,0,0,1-1.48.66,5.6,5.6,0,0,1-2.72-.28,20.54,20.54,0,0,1-3.7-1.91c-.54-.32-1.07-.64-1.56-.9a7.22,7.22,0,0,0-1.29-.57l-.2,0c-.05,0,0,0,0,0a.87.87,0,0,0-.28.08,1.47,1.47,0,0,0-.58.43,1.55,1.55,0,0,0-.21,1.42,5.71,5.71,0,0,0,1.23,2.24,11.93,11.93,0,0,0,2.3,2,23.1,23.1,0,0,0,6.08,2.85,32.19,32.19,0,0,0,6.83,1.37,24.63,24.63,0,0,0,6.92-.3,13.22,13.22,0,0,0,6.1-2.78,9.78,9.78,0,0,0,2.13-2.6,13.66,13.66,0,0,0,1.21-3.3,23.65,23.65,0,0,0,.34-7.33,20.6,20.6,0,0,0-2.05-7.15A11,11,0,0,0,163,276.71Zm0,0a11.68,11.68,0,0,1,5.44,5.05,24.19,24.19,0,0,1,2.57,7.12,26.25,26.25,0,0,1,.47,7.68,15.74,15.74,0,0,1-.88,3.91,12.41,12.41,0,0,1-2.17,3.53,16,16,0,0,1-7,4.39,26.45,26.45,0,0,1-8,1.23,30.59,30.59,0,0,1-8-1.05,24.68,24.68,0,0,1-7.56-3.38c-2.31-1.65-4.69-3.87-5.42-7.43a6.36,6.36,0,0,1,.09-2.9,5.87,5.87,0,0,1,4.15-4.16,5.28,5.28,0,0,1,1.58-.18,6.12,6.12,0,0,1,.9.12l.71.22a10,10,0,0,1,2.05,1.14c.58.39,1.08.79,1.58,1.17a18.35,18.35,0,0,0,2.79,1.89,3.6,3.6,0,0,0,1,.33c.06,0,.16,0,.24-.06a.49.49,0,0,0,.29-.18,1.78,1.78,0,0,0,.4-1,3.63,3.63,0,0,0-.12-1.4c-.25-1-.91-2.15-1.29-3.47a15.71,15.71,0,0,1-.53-1.93,16.67,16.67,0,0,1-.26-2,9.78,9.78,0,0,1,.57-3.95,9.24,9.24,0,0,1,2.13-3.31,11.26,11.26,0,0,1,7-2.87A14.57,14.57,0,0,1,163,276.71Z"/><path d="M195.77,293a13.28,13.28,0,0,0-4.72,2.44,3.66,3.66,0,0,0-1.36,1.91c-.09.36,0,.73.07.74s0,0,.05,0,0,0,0-.05,0,0,.09,0l.15,0a6.06,6.06,0,0,0,1.94-.63c.23-.13.7-.39,1.09-.58l1.2-.6c1.61-.78,3.21-1.48,4.81-2.13l4.72-1.86,1.14-.48a5.24,5.24,0,0,1,.91-.38c.07,0,.07,0,0,.22a.9.9,0,0,0,.23.68c.14.11.22.08.23.05s-.1-.12-.29-.18c-.49-.11-1-.29-1.25-.38s-.19-.09-.36-.08a4.81,4.81,0,0,0-.64.12c-1,.13-1.88.2-2.79.33A45.63,45.63,0,0,0,195.77,293Zm0,0a43.83,43.83,0,0,0,5.15-1.62c.82-.34,1.66-.69,2.41-1.06a7,7,0,0,1,.61-.38,3.06,3.06,0,0,1,1-.27c.61-.06,1-.05,1.42-.11a3,3,0,0,1,1,.08,2.45,2.45,0,0,1,1.31.83,2.38,2.38,0,0,1,.43,2,3.22,3.22,0,0,1-.69,1.34,13,13,0,0,1-1.25,1.21,14,14,0,0,1-1.15.92,23.35,23.35,0,0,1-5,2.75,31.24,31.24,0,0,1-5.3,1.57c-.44.1-.89.17-1.34.25l-1.47.23a7.91,7.91,0,0,1-3.39-.33,2.66,2.66,0,0,1-.49-.23,2.36,2.36,0,0,1-.49-.35,2,2,0,0,1-.67-1.17,2.7,2.7,0,0,1,.48-1.86,5.29,5.29,0,0,1,2.35-1.88A32.91,32.91,0,0,1,195.77,293Z"/><path d="M221.45,289.65a13.19,13.19,0,0,0-3.4,2.71,11.67,11.67,0,0,0-1.39,1.6,2.7,2.7,0,0,0-.24,1.65c0,.36.06.68.15.66s.06-.13,0-.25a1.6,1.6,0,0,0-.11-.27c0-.08.15-.11.4-.16a3.58,3.58,0,0,0,.63-.2,32.53,32.53,0,0,0,3.16-1.6c1.16-.62,2.37-1.28,3.7-1.89a1.26,1.26,0,0,1,.37-.14l.31-.15a4.94,4.94,0,0,0,.74-.49,7.68,7.68,0,0,0,1.23-1.06,1,1,0,0,0,.2-1c-.17-.33-1-.54-1.66-.55A10.21,10.21,0,0,0,221.45,289.65Zm0,0a34.37,34.37,0,0,1,4-1.84,6.12,6.12,0,0,1,1.18-.22,2.62,2.62,0,0,1,1.41.19,2.51,2.51,0,0,1,1.15,1.24,3.2,3.2,0,0,1,.26,1.65,7.2,7.2,0,0,1-.95,2.67,6.19,6.19,0,0,1-.72,1.12c-.15.19-.32.39-.5.58s-.43.37-.53.47a19.11,19.11,0,0,1-3.72,2.68,11.22,11.22,0,0,1-5,1.46,6.05,6.05,0,0,1-1.54-.14,5.06,5.06,0,0,1-1.7-.68,2.8,2.8,0,0,1-.93-1,2.48,2.48,0,0,1-.33-1.26,3.48,3.48,0,0,1,.39-1.5,7.59,7.59,0,0,1,.62-1.19,3.84,3.84,0,0,1,1-1c.74-.48,1.38-.72,2-1.09C218.94,291.14,220.14,290.28,221.45,289.65Z"/><path d="M347.9,350.85a1.69,1.69,0,0,0-.88,1.07.66.66,0,0,0,.41.83,7.88,7.88,0,0,1,1.91.57,11.27,11.27,0,0,0,2.8,1,3.61,3.61,0,0,0,2.67-.7,1.1,1.1,0,0,0,.32-.4.26.26,0,0,0,0-.24c-.11,0-.13-.18-.32-.47l-.15-.22c-.05-.05-.09-.05-.12-.08s-.07,0-.12-.07a.6.6,0,0,0-.14-.07,7.14,7.14,0,0,0-.88-.34c-.73-.22-1.59-.38-2.53-.75A3.82,3.82,0,0,0,347.9,350.85Zm-.14-.26c.46-.25.93-.47,1.41-.75a15.3,15.3,0,0,1,1.5-.83,5.23,5.23,0,0,1,3.48-.37,4.61,4.61,0,0,1,1.89.85,4.41,4.41,0,0,1,.84.88,5.22,5.22,0,0,1,.31.54l.19.47a3.22,3.22,0,0,1,0,2.46,2.34,2.34,0,0,1-.92,1,3.12,3.12,0,0,1-1,.34c-1.24.17-2.24,0-3.29.15s-2.11.48-3.23.48a3.67,3.67,0,0,1-1.79-.44,2.78,2.78,0,0,1-1.42-1.78,2.08,2.08,0,0,1,.09-1.22,2.29,2.29,0,0,1,.59-.83A7.36,7.36,0,0,1,347.76,350.59Z"/><path d="M347.39,357.54c-.46-.06-.38.61-.28,1a2.58,2.58,0,0,0,.77,1.1,13.32,13.32,0,0,1,1.66,1.59,4.37,4.37,0,0,0,2.17,1.55,4.7,4.7,0,0,0,2.85-.3l.17-.06.09-.08c.05,0,.13-.08.07-.11l0,0a.27.27,0,0,0-.16.1c0,.05-.08.08-.11.14s0,.14-.06.13c-.07.15-.27-.24-.56-.49-.56-.55-1.39-1.18-1.93-1.65a20.3,20.3,0,0,1-2-1.73A3.51,3.51,0,0,0,347.39,357.54Zm0-.3c1-.05,2.07-.34,3.27-.39a5.41,5.41,0,0,1,3.26,1,7.07,7.07,0,0,1,1.29,1.17,10.43,10.43,0,0,1,1,1.37,5.32,5.32,0,0,1,.45.86,2.81,2.81,0,0,1,.19.56,2.39,2.39,0,0,1,.07.75,1.8,1.8,0,0,1-.35,1,2.86,2.86,0,0,1-.4.38l-.37.16a1.62,1.62,0,0,1-.64.1h-.28l-.2,0a20.92,20.92,0,0,0-3.12-.38,8.54,8.54,0,0,1-3.42-.43,3.53,3.53,0,0,1-2.06-3,4.9,4.9,0,0,1,.26-1.82c.1-.28.2-.53.3-.78a1.1,1.1,0,0,1,.27-.39A.76.76,0,0,1,347.37,357.24Z"/><path d="M343.58,354.34a9.65,9.65,0,0,0-1.71-.1,5.5,5.5,0,0,0-1.65.18c-.24.07-.43.2-.41.3s0,.21,0,.28a3.42,3.42,0,0,0,1,.68,11.52,11.52,0,0,0,1.42.59,3.21,3.21,0,0,0,1.46.11c.48-.07,1-.35,1-.89a.51.51,0,0,0-.19-.32,1.61,1.61,0,0,1-.25-.37A1.29,1.29,0,0,0,343.58,354.34Zm0,0a1.5,1.5,0,0,1,.74.43,1.18,1.18,0,0,0,.27.31.67.67,0,0,1,.31.35,1,1,0,0,1-.14,1,2.23,2.23,0,0,1-.76.64,3.53,3.53,0,0,1-1.92.42,5.33,5.33,0,0,1-1.81-.53,3.8,3.8,0,0,1-.84-.53,2.17,2.17,0,0,1-.7-.95,1.31,1.31,0,0,1,.3-1.32,1.39,1.39,0,0,1,1.1-.4,8.82,8.82,0,0,1,1.77.33C342.45,354.22,343,354.19,343.58,354.34Z"/><path d="M324.86,339a15.31,15.31,0,0,0-3.95-3,50.83,50.83,0,0,1-4.78-2.17,21,21,0,0,1-3.86-3.52,8.13,8.13,0,0,0-1.36-1.14,6.74,6.74,0,0,0-1.54-.69,5.22,5.22,0,0,0-1.77-.23c-.32,0-.56,0-.69,0s-.15-.05-.23,0-.09.76.28,1.35a11.2,11.2,0,0,0,1.53,1.82,50.94,50.94,0,0,0,7.65,6.39c1.37.94,2.84,1.79,4.19,2.76s2.7,2,4,2.94a17.86,17.86,0,0,0,3.7,2.28,13.87,13.87,0,0,0,1.93.55,10.4,10.4,0,0,1,1.49.45,8,8,0,0,1,1.62.85l.89.64c.17.11.22.12.07.12a1.29,1.29,0,0,0-.93.44.64.64,0,0,0-.15.57.68.68,0,0,0,.11.25c.05.07.08,0,0,0a2.9,2.9,0,0,0-.44-.7c-.43-.57-1-1.19-1.58-1.93a12.29,12.29,0,0,1-.78-1.11l-.72-1.06c-.48-.7-1-1.4-1.46-2.08A34,34,0,0,0,324.86,339Zm.35-.36a33.14,33.14,0,0,0,3.87,3.19c.69.49,1.4.95,2.12,1.41l1.07.69c.34.2.77.5,1,.62a21.72,21.72,0,0,1,2.24,1.29,6.88,6.88,0,0,1,1.27,1.12,4.59,4.59,0,0,1,.66,1,3.8,3.8,0,0,1,.34,1.47,4.06,4.06,0,0,1-1,2.86,3.71,3.71,0,0,1-1.48,1,4,4,0,0,1-1.71.26,5.38,5.38,0,0,1-2.26-.7c-.55-.3-.92-.57-1.2-.74a3.28,3.28,0,0,0-.59-.3c-.23-.08-.53-.16-.91-.27a12.68,12.68,0,0,1-2.81-1,20.23,20.23,0,0,1-4.52-3.37c-1.23-1.16-2.44-2.32-3.6-3.54s-2.28-2.48-3.39-3.75a52.28,52.28,0,0,0-7-7.28c-.63-.57-1.31-1-2-1.7a5.52,5.52,0,0,1-1-1.23,3.25,3.25,0,0,1-.41-2,3.1,3.1,0,0,1,1.17-2,5.76,5.76,0,0,1,1.62-.87,7.87,7.87,0,0,1,3.2-.44,7.64,7.64,0,0,1,3.16.93,8.52,8.52,0,0,1,2.44,2.08c1.25,1.53,1.8,3,2.64,4.06a31.13,31.13,0,0,0,3.42,3.54C322.9,336.21,324,337.48,325.21,338.63Z"/><path d="M124.45,277a1.09,1.09,0,0,0-.36,1,1.22,1.22,0,0,0,.63.76,4,4,0,0,0,2,.38,8.39,8.39,0,0,0,1.87-.31,3.85,3.85,0,0,0,.62-.24c.14-.08.1-.14,0,0s-.08.32-.05.2a1.25,1.25,0,0,0,0-.21s0-.08,0-.14c0-.26-.32-.79-.85-1.16A3.23,3.23,0,0,0,124.45,277Zm0,0a5.34,5.34,0,0,1,2-1,8.6,8.6,0,0,1,2.4-.42,3.69,3.69,0,0,1,2.79,1.08,3.1,3.1,0,0,1,.54.81,3.32,3.32,0,0,1,.28.84,3.2,3.2,0,0,1,0,1.08c-.05.2-.11.41-.18.61a4.08,4.08,0,0,1-.32.58,3.1,3.1,0,0,1-1.83,1.14,4.39,4.39,0,0,1-1.53,0,6.08,6.08,0,0,1-2.39-1,7.7,7.7,0,0,1-1.8-1.65A2,2,0,0,1,124,278,1.42,1.42,0,0,1,124.45,277Z"/></svg>