<svg id="Layer_1" data-name="Layer 1" xmlns="http://www.w3.org/2000/svg" viewBox="0 0 600 600"><title>Cyprus</title><path d="M51.55,309.63a6.07,6.07,0,0,1,2.38-1.55,9.36,9.36,0,0,1,2.78-.46,13.69,13.69,0,0,1,5.56,1.25c3.57,1.68,6.06,4.82,8.84,7.19A17.25,17.25,0,0,0,75.58,319a16,16,0,0,0,5.06,1.28,15.52,15.52,0,0,0,5.14-.36,14.18,14.18,0,0,0,2.42-.76,17.34,17.34,0,0,0,2.21-1.19c2.82-1.78,4.83-4.67,6.49-7.8s2.91-6.67,4.39-10.21a44.32,44.32,0,0,1,5.76-10.6,26.38,26.38,0,0,1,4.48-4.48,29.85,29.85,0,0,1,5.3-3.4,37,37,0,0,1,11.87-3.66,41.19,41.19,0,0,1,12.39.17,51.79,51.79,0,0,1,11.76,3.49c1.86.79,3.7,1.69,5.46,2.65s3.39,1.92,5,2.8c3.16,1.78,6.15,3.16,8.91,3.52a11.94,11.94,0,0,0,7.72-1.55,11.55,11.55,0,0,0,4.57-6.18,27.92,27.92,0,0,0,1.13-4.52,50.08,50.08,0,0,0,.5-5,95,95,0,0,0-.22-10.62c-.24-3.62-.64-7.29-1-11.09-.18-1.91-.38-3.83-.5-5.89l-.07-1.58c0-.57,0-1.16,0-1.75a28.23,28.23,0,0,1,.31-3.61,20.15,20.15,0,0,1,2.7-7.6,15.79,15.79,0,0,1,6.93-6.2,18.56,18.56,0,0,1,8.41-1.58,18.83,18.83,0,0,1,2,.15c.61.09,1.21.17,1.78.28,1.16.21,2.25.48,3.29.76,4.17,1.17,7.43,2.47,10.34,2.94,7.47,1.38,14.66,2.83,21.7,3.41l22.53,1.59c7.53.45,15.07,1,22.61,1.3,3.79.17,7.5.38,11.15.43s7.21,0,10.67-.33c1.73-.14,3.43-.34,5.1-.59a41.14,41.14,0,0,0,5-1.18,45.56,45.56,0,0,0,5-1.84l2.52-1.09,2.54-1.21,5.18-2.49c1.75-.79,3.48-1.64,5.24-2.37a102.25,102.25,0,0,1,10.7-3.89c7.19-2.35,14.47-4.35,21.8-6.18s14.7-3.57,21.57-5.74c3.47-1,6.81-2.27,10.07-3.51s6.4-2.6,9.41-4.07a72.7,72.7,0,0,0,15.86-10.33c1.17-.94,2.15-2,3.24-3l3.45-3.62a79.34,79.34,0,0,1,10.17-9.39,46.29,46.29,0,0,1,7.73-4.67,44.78,44.78,0,0,1,8.37-3c2.53-.66,4.73-1.1,6.58-1.49l2.5-.54c.73-.16,1.43-.34,1.92-.49a26.39,26.39,0,0,0,6.1-2.56l1.72-1a7.23,7.23,0,0,1,2.08-.63,15.58,15.58,0,0,1,2.56-.27c.89-.06,1.87-.15,2.78-.28a10.62,10.62,0,0,0,2.64-.72,11.31,11.31,0,0,0,2.3-1.34l2.22-1.58,2.26-1.69,9.54-7.36,2.61-1.9,2.76-1.91c.89-.65,1.94-1.24,2.91-1.86s2-1.21,3-1.75a71,71,0,0,1,12.67-5.59,45.37,45.37,0,0,1,8.1-1.75,27.73,27.73,0,0,1,5.23-.11,24.62,24.62,0,0,1,6.74,1.38,21.85,21.85,0,0,1,3.92,1.89,20.6,20.6,0,0,1,1.94,1.36l.94.79a13.45,13.45,0,0,1,1,1,18.76,18.76,0,0,1,3.36,4.85,22.52,22.52,0,0,1,.95,2.37,18.93,18.93,0,0,1,.57,2.17,23.33,23.33,0,0,1,.35,6.88,30.85,30.85,0,0,1-.92,5.05,36.45,36.45,0,0,1-3.2,8A40.63,40.63,0,0,1,555,173.6l-.83.93-.92,1c-.36.34-.68.64-1.08,1s-.88.74-1.08.87c-1.08.76-2.16,1.57-3.25,2.2a54.06,54.06,0,0,1-6.36,3.36c-4.05,1.8-7.61,3-10.47,4.24a39,39,0,0,0-3.92,1.86,18.49,18.49,0,0,0-1.66,1l-.79.54-.73.59c-.52.37-.94.85-1.43,1.27a23,23,0,0,0-1.65,1.82c-1.18,1.39-2.51,3-4.15,4.79a34.15,34.15,0,0,1-6.17,5.25,30.77,30.77,0,0,1-7.1,3.3c-2.09.7-3.93,1.18-5.42,1.72-.73.25-1.45.53-2,.75a3.9,3.9,0,0,0-.84.45,7.06,7.06,0,0,0-.84.83c-.34.39-.79,1-1.35,1.73a31,31,0,0,1-5,5.76c-.22.21-.73.59-1.11.89s-.85.57-1.28.84a18.36,18.36,0,0,1-2.6,1.28,22.34,22.34,0,0,1-4.68,1.23c-2.74.42-4.85.46-6.29.65a16.62,16.62,0,0,0-3.55.88,17,17,0,0,0-3.32,1.57,20.69,20.69,0,0,0-5.55,4.8l-.59.69c-.19.23-.35.48-.53.71s-.59.33-.68.63a5.71,5.71,0,0,0-.16.92,8.85,8.85,0,0,0,.22,1.93,5.11,5.11,0,0,1,0,2c-.34,1.46-.78,3.26-1.4,5.51a33.18,33.18,0,0,1-3.25,8,25.08,25.08,0,0,1-7.58,8.15,32.89,32.89,0,0,1-8.42,3.95c-2.47.8-4.62,1.3-6.37,1.75-.87.22-1.65.43-2.32.63a4.5,4.5,0,0,0-.71.28l-.56.23a9.54,9.54,0,0,0-3.72,3.06,15.73,15.73,0,0,0-2.56,5.31,20,20,0,0,0-.69,6.5,19.41,19.41,0,0,0,.4,3.12c.12.54.32,1.17.45,1.75l.6,1.77a38.73,38.73,0,0,0,3.59,7.17,79.37,79.37,0,0,0,12.19,14.32l1.66,1.59c.3.29,1,.84,1.65,1.42,1.43,1.18,3.16,2.59,5,4.32a37,37,0,0,1,6,7,23,23,0,0,1,2.92,6.37c.18.71.35,1.4.47,2.15a18,18,0,0,1,.23,2.36,18.81,18.81,0,0,1-.5,5,17,17,0,0,1-.75,2.35,15,15,0,0,1-1,2.13,16.32,16.32,0,0,1-1.16,1.82,18.82,18.82,0,0,1-1.27,1.59,18.61,18.61,0,0,1-6,4.39,21.05,21.05,0,0,1-11.47,1.61,17.47,17.47,0,0,1-2.28-.44c-.72-.17-1.29-.37-1.92-.53s-1.15-.37-1.72-.54-1.05-.36-1.58-.5c-2-.67-3.75-1.09-5.3-1.45a16.73,16.73,0,0,0-3.9-.54,5,5,0,0,0-2.36.46,2.27,2.27,0,0,0-.39.21l-.47.3-1,.7-2.47,1.72a30.25,30.25,0,0,1-3.16,1.91,18.9,18.9,0,0,1-1.92.89c-.67.27-1.37.48-2.06.71a22.1,22.1,0,0,1-8.37.72,28.84,28.84,0,0,1-7.25-1.77c-1.09-.42-2.12-.88-3.18-1.22s-2.05-.77-3-1.19c-2-.82-3.8-1.71-5.57-2.52l-1.32-.61-1.14-.48c-.75-.3-1.5-.6-2.24-.84a25.47,25.47,0,0,0-4.28-1.1,11.68,11.68,0,0,0-3.45-.09,2.83,2.83,0,0,0-1.68.71,1.81,1.81,0,0,0-.26.76,3.45,3.45,0,0,1,0,.77,39.09,39.09,0,0,0-.16,6.67l.27,5.3a49.83,49.83,0,0,1-.06,6.2,36.2,36.2,0,0,1-1.32,7.18,28.61,28.61,0,0,1-3.66,7.84,22,22,0,0,1-6.73,6.44,21,21,0,0,1-2,1.06c-.68.31-1.35.56-2,.82a26,26,0,0,1-3.85,1c-4.89.79-8.74.72-12.07,1.18-.81.12-1.6.26-2.32.44a17,17,0,0,0-2.07.73,21.44,21.44,0,0,0-4.1,2.48c-2.74,2.06-5.51,4.71-9.09,7.15a30.33,30.33,0,0,1-6.07,3.25,27.35,27.35,0,0,1-3.56,1,31.37,31.37,0,0,1-3.47.48c-4.45.35-8.27,0-11.16.4a11.88,11.88,0,0,0-2,.38,9.58,9.58,0,0,0-1.67.61,18.84,18.84,0,0,0-3.54,2.25c-1.3,1-2.74,2.24-4.52,3.56a26.13,26.13,0,0,1-6.47,3.68,19.31,19.31,0,0,1-1.95.64l-1,.26-.82.19-2.8.63-5.62,1.2q-5.62,1.18-11.34,2.21c-1.9.33-3.82.64-5.74.94-1,.15-1.84.28-2.65.42s-1.62.31-2.4.48a20.27,20.27,0,0,0-7.4,3,6.33,6.33,0,0,0-1.77,1.84,2.5,2.5,0,0,0-.37,1.21,21.26,21.26,0,0,0,.21,3.53,60.18,60.18,0,0,1,.57,6.49,24.05,24.05,0,0,1-1.54,8.89l-.46,1.13-.24.57-.37.7a16.4,16.4,0,0,1-1.71,2.57,18.3,18.3,0,0,1-4.2,3.8,23.63,23.63,0,0,1-8.65,3.45,29.78,29.78,0,0,1-8.18.4,29,29,0,0,1-8.13-1.86,21.2,21.2,0,0,1-8.29-5.69,17.93,17.93,0,0,1-1.77-2.43,18.73,18.73,0,0,1-1.24-2.44,24.38,24.38,0,0,1-1.32-4.13c-.28-1.21-.44-2.11-.62-3s-.35-1.78-.52-2.58a37.59,37.59,0,0,0-1.09-4.08,8.32,8.32,0,0,0-1.14-2.27A6.24,6.24,0,0,0,175,434a20.28,20.28,0,0,0-3.59-1.58,30.58,30.58,0,0,0-8.93-1.27c-3.33-.05-6.92.21-10.7.48-7.5.56-15.25,1.18-23.21,1.08s-16.1-.91-24-3.58a51,51,0,0,1-20.86-13,37.37,37.37,0,0,1-6.89-10.37,47.25,47.25,0,0,1-3.19-11.56c-1.3-7.54-2-14.88-6.39-20.75-2.09-3-4.63-5.93-6.56-9.35a19.39,19.39,0,0,1-2.21-5.48,33.91,33.91,0,0,1-.74-5.74c-.19-3.84.25-7.61.34-11.37a50.56,50.56,0,0,0-.11-5.64,27.29,27.29,0,0,0-1.09-5.51c-.27-.9-.64-1.76-1-2.63s-.81-1.7-1.31-2.5c-1-1.62-2-3.19-2.9-4.87A12.84,12.84,0,0,1,50,315a8.4,8.4,0,0,1,.29-2.82,6.38,6.38,0,0,1,1.35-2.46Zm.07.06a5.53,5.53,0,0,0-1.2,2.51,8.21,8.21,0,0,0-.14,2.75,12.55,12.55,0,0,0,1.86,5.14c.94,1.59,2.08,3.09,3.14,4.69.54.8,1,1.68,1.47,2.53a28.12,28.12,0,0,1,1.16,2.7,25.56,25.56,0,0,1,.85,2.83,23.71,23.71,0,0,1,.54,2.89,51.43,51.43,0,0,1,.31,5.79c0,3.83-.3,7.57,0,11.21a30.85,30.85,0,0,0,.84,5.36,17,17,0,0,0,2.11,4.83c1.88,3.07,4.46,5.82,6.78,8.9a32.68,32.68,0,0,1,3.14,5,38.74,38.74,0,0,1,2.1,5.47c1.11,3.71,1.76,7.47,2.56,11.13a44.54,44.54,0,0,0,3.35,10.52,32.41,32.41,0,0,0,6.41,8.86,45.94,45.94,0,0,0,19.18,10.82,72.47,72.47,0,0,0,22.23,2.45c7.52-.18,15-1.05,22.53-1.91,3.75-.42,7.51-.87,11.3-1a40.16,40.16,0,0,1,11.3,1.07c3.62,1,7.31,2.5,9.91,5.34s3.83,6.57,4.72,10.21c.45,1.83.82,3.68,1.25,5.52a11.64,11.64,0,0,0,2.34,5.06,11.86,11.86,0,0,0,4.66,3.1,19.48,19.48,0,0,0,5.49,1.26,20.51,20.51,0,0,0,5.64-.24,14.45,14.45,0,0,0,5.26-2,8.44,8.44,0,0,0,3.47-4.34,15.2,15.2,0,0,0,1-5.54c0-3.78-.94-7.53-.44-11.3a11.23,11.23,0,0,1,2.17-5.16,13.43,13.43,0,0,1,1.91-2.08,16.33,16.33,0,0,1,2.25-1.72,29.06,29.06,0,0,1,10.57-3.85c1.86-.35,3.73-.58,5.61-.79s3.75-.46,5.62-.72q5.61-.76,11.19-1.71l5.58-1a36.78,36.78,0,0,0,5.53-1.2c3.61-1.23,6.48-3.84,9.54-6a23.83,23.83,0,0,1,4.91-2.79,18.25,18.25,0,0,1,5.5-1.25c3.77-.31,7.55.18,11.32,0a20.16,20.16,0,0,0,5.55-1,25.11,25.11,0,0,0,5-2.53c3.2-2,6.06-4.51,9.16-6.66a31,31,0,0,1,4.89-2.85,24.22,24.22,0,0,1,5.39-1.67c3.7-.74,7.51-1,11.12-2.13a13.1,13.1,0,0,0,8.27-7.21c1.54-3.48,1.74-7.36,1.69-11.11s-.45-7.54-.59-11.31,0-7.62,1.3-11.18a12.55,12.55,0,0,1,3.06-4.7,12.12,12.12,0,0,1,4.84-2.84c3.65-1.1,7.57-.51,11.13.63a50.53,50.53,0,0,1,10.18,4.91,62.09,62.09,0,0,0,10.13,5,18.14,18.14,0,0,0,11.1.8c3.71-1,6.5-3.78,9.71-5.73a13,13,0,0,1,5.35-1.73,26,26,0,0,1,5.65.09c3.75.38,7.46,1.28,11.25,1.12a11.36,11.36,0,0,0,5.35-1.67,6.46,6.46,0,0,0,1.88-9.79,23.19,23.19,0,0,0-3.76-4.22c-2.77-2.56-5.94-4.67-8.61-7.35a87.46,87.46,0,0,1-14.58-17.25,49.53,49.53,0,0,1-4.88-10.2,35,35,0,0,1-2-11.1,31.45,31.45,0,0,1,7.35-20.9c.6-.73,1.32-1.34,2-2s1.48-1.18,2.21-1.77,1.59-1,2.42-1.47,1.7-.84,2.59-1.15,1.78-.62,2.7-.85,1.83-.44,2.76-.64c1.84-.4,3.69-.79,5.5-1.32a20.24,20.24,0,0,0,5.18-2.25,12.72,12.72,0,0,0,3.88-4.05c2-3.26,2.66-7,3.81-10.63a27.92,27.92,0,0,1,14.17-16.87,26.88,26.88,0,0,1,10.85-3c1.88-.11,3.77-.08,5.65-.32a9.68,9.68,0,0,0,5.19-2c3-2.39,4.53-6.07,7.56-8.39a18.48,18.48,0,0,1,5-2.57l5.34-1.9a23.83,23.83,0,0,0,5.06-2.5,21.5,21.5,0,0,0,4.13-3.84c2.46-2.87,4.41-6.15,7.06-8.86a36.47,36.47,0,0,1,9.06-6.72c3.3-1.83,6.76-3.36,10.08-5.15a46.51,46.51,0,0,0,4.82-3,19.31,19.31,0,0,0,4.2-3.76,27.92,27.92,0,0,0,4.87-10.14,13.13,13.13,0,0,0,.27-5.61,5.08,5.08,0,0,0-1.27-2.48,6.3,6.3,0,0,0-2.39-1.47,12.92,12.92,0,0,0-5.6-.42,31,31,0,0,0-5.53,1.18,68,68,0,0,0-20.07,10.26c-6.12,4.43-11.79,9.44-17.86,13.94a74.75,74.75,0,0,1-9.5,6.14A44.7,44.7,0,0,1,477.05,181c-3.67.91-7.43,1.32-11.1,2.21a30.16,30.16,0,0,0-5.37,1.77,29.82,29.82,0,0,0-4.92,2.79c-6.2,4.34-11,10.31-17.25,14.65a95,95,0,0,1-19.77,11c-14,5.79-28.77,9.17-43.38,12.95l-43.9,11.18c-7.31,1.85-14.74,3.5-22.3,3.77a196.48,196.48,0,0,1-22.63-.76l-45.2-3.17a216.76,216.76,0,0,1-22.38-3.46c-3.73-.67-7.25-2.13-10.88-3.14a25,25,0,0,0-5.55-1,12.35,12.35,0,0,0-5.51,1,9.33,9.33,0,0,0-4.15,3.71,14.59,14.59,0,0,0-1.89,5.29,26.51,26.51,0,0,0-.26,5.63c.07,1.89.22,3.77.37,5.65.6,7.52,1.3,15.08.75,22.63a50.33,50.33,0,0,1-.73,5.61,33.21,33.21,0,0,1-1.55,5.45,16.52,16.52,0,0,1-7,8.6,17.06,17.06,0,0,1-11,1.85c-3.75-.63-7.16-2.44-10.4-4.34a91.82,91.82,0,0,0-9.9-5.48,47.41,47.41,0,0,0-10.74-3.46,36.51,36.51,0,0,0-22.11,2.61,27.56,27.56,0,0,0-4.82,2.93,23.48,23.48,0,0,0-4.08,3.89,42.16,42.16,0,0,0-5.61,9.78c-1.54,3.44-3,6.95-4.82,10.25-.51.8-.94,1.65-1.51,2.4l-.81,1.16-.92,1.09a19.87,19.87,0,0,1-2,2c-.35.32-.76.57-1.13.86a7.53,7.53,0,0,1-1.18.78,18.87,18.87,0,0,1-2.56,1.24,16.24,16.24,0,0,1-2.73.75,17.64,17.64,0,0,1-15.65-4.82c-2.75-2.57-5-5.69-8.34-7.6a11.63,11.63,0,0,0-5.4-1.51,6.4,6.4,0,0,0-5,2.1Z"/></svg>