<svg id="Layer_1" data-name="Layer 1" xmlns="http://www.w3.org/2000/svg" viewBox="0 0 600 600"><title>Ecuador</title><path d="M178,76.26c-2.17,0-4.34-.11-6.51,0a50.37,50.37,0,0,0-6.46.77,69.92,69.92,0,0,0-12.43,3.28,27.65,27.65,0,0,0-10.46,6.71,20.92,20.92,0,0,0-5.31,10.71,33.43,33.43,0,0,0,.59,12.21c.4,2,1,4.11,1.5,6.17l1.84,6.25c.61,2.1,1.2,4.26,1.71,6.46a58.27,58.27,0,0,1,1.14,6.81,57.24,57.24,0,0,1-.25,13.9,60.57,60.57,0,0,1-10.27,26.07,57.28,57.28,0,0,1-4.49,5.62c-.77.93-1.67,1.75-2.52,2.61s-1.75,1.68-2.52,2.38a17.41,17.41,0,0,0-3.32,3.65,5.48,5.48,0,0,0-.34.69c0,.26-.17.46-.22.73a6.55,6.55,0,0,0-.17.86,9.19,9.19,0,0,0-.1,1,38.5,38.5,0,0,0,.18,5.36,65.09,65.09,0,0,1,.3,7.23c0,.7-.06,1.38-.16,2.14l-.13,1.11-.22,1.16c-.17.85-.29,1.34-.43,1.94s-.3,1.17-.46,1.77a49.34,49.34,0,0,1-2.55,7.26,25.52,25.52,0,0,1-5.19,7.78,17,17,0,0,1-2.34,2,17.85,17.85,0,0,1-2.53,1.46,30.61,30.61,0,0,1-4.25,1.64l-3.19,1-1.26.44c-.59.2-1.24.43-1.8.59-2.34.71-4.42,1.26-6.12,1.83a13.79,13.79,0,0,0-3.67,1.68,2.8,2.8,0,0,0-1,1.4,5.28,5.28,0,0,0-.43,2,4.44,4.44,0,0,0,.58,1.41c.51.92,1.55,2.4,2.9,4.37l1,1.59c.37.61.73,1.16,1.09,1.83s.73,1.29,1.07,2.05l.51,1.1.4.94a58.88,58.88,0,0,1,4,15.27c.17,1.36.26,2.57.36,3.78s.16,2.42.2,3.61c.1,2.39.13,4.72.12,7,0,4.58-.2,8.92-.23,13.07V302l0,3.11.11,6.52.07,6.47c0-.17,0,.24.21,1s.43,1.91.71,3.41a25.5,25.5,0,0,1,.45,5.9,19.27,19.27,0,0,1-2.21,8.09l-.54.95c-.2.34-.39.64-.5.79l-.83,1.17c-.56.73-1.13,1.44-1.69,2.05-1.11,1.25-2.14,2.22-2.88,2.95a17.81,17.81,0,0,0-1.4,1.46c-.19.26-.17.29-.18.31s0,.05,0,.07a.16.16,0,0,1,0,.1,1.11,1.11,0,0,0,0,.13l0,.2c0,.27-.1.54-.16.8s0,.45,0,.67a4.18,4.18,0,0,0,.15,1.57,2.15,2.15,0,0,0,.62.84,14.53,14.53,0,0,0,6,2.94,51.05,51.05,0,0,0,20.5.9,33.65,33.65,0,0,0,4.55-1,20.07,20.07,0,0,0,1.94-.73c.75-.32,1.54-.68,2.46-1.12,1.83-.85,4-1.93,6.66-3a34.2,34.2,0,0,1,9.9-2.44,27.11,27.11,0,0,1,12.14,1.82,27.84,27.84,0,0,1,9.74,6.55,36.12,36.12,0,0,1,6,8.27,46.57,46.57,0,0,1,3.46,8.66,43.73,43.73,0,0,1,1.61,9l.09,1.16,0,1.05c0,.69.05,1.39,0,2.09,0,1.39-.07,2.78-.15,4.18a54.3,54.3,0,0,1-3.84,16.91,43.42,43.42,0,0,1-4.56,8.26c-.45.67-1,1.32-1.47,2s-1,1.29-1.62,1.9l-.85.92-.44.47-.57.52c-.76.69-1.54,1.38-2.34,2a32.75,32.75,0,0,1-10,5,65.52,65.52,0,0,1-7.77,1.86c-2,.39-3.52.75-4.45,1a7.09,7.09,0,0,0-1.49.59c-.09.12-.27.17-.37.27a3.08,3.08,0,0,0-.37.47,6.84,6.84,0,0,0-.82,2,11.51,11.51,0,0,0-.3,3.15,13.7,13.7,0,0,0,.14,1.74c.08.64.22,1.37.4,2.16.37,1.61.94,3.51,1.6,5.76.33,1.12.67,2.32,1,3.63.17.64.33,1.33.48,2l.22,1.07.11.53c0,.12,0,.05,0,.09a9.57,9.57,0,0,0,.48,1.83c.31,1,.73,2.23,1.15,3.76a28.19,28.19,0,0,1,1,5.88,19.56,19.56,0,0,1-.19,4.1,18,18,0,0,1-1.35,4.65c-3.55,7.38-8.86,11-12.18,13.75-1.72,1.33-3.07,2.4-4,3.3a8.65,8.65,0,0,0-1.92,2.37,11.72,11.72,0,0,0-.5,1.14,6.07,6.07,0,0,0-.24,1.07,3.89,3.89,0,0,0,0,1.19s0,0,0,0,0,0,0,0-.09-.06,0,0a.43.43,0,0,1,.21.19c0,.09.24.13.33.23a1.14,1.14,0,0,1,.17.15l.28.12c.2.09.35.21.57.31a14.45,14.45,0,0,0,1.65.55,10.76,10.76,0,0,0,2.08.42,7.35,7.35,0,0,0,2.43-.22,15.08,15.08,0,0,0,2.64-1l2.68-1.29a18.58,18.58,0,0,1,2.75-1,17.29,17.29,0,0,1,2.89-.5l6.29-.76,1.78-.16c.59-.06,1.3-.09,1.94-.14l2-.12,2,0a64.58,64.58,0,0,1,8.43.51c1.45.21,2.92.48,4.38.79a44.56,44.56,0,0,1,4.42,1.2,52,52,0,0,1,8.52,3.65,58,58,0,0,1,13.78,10.73c.9,1,1.83,2,2.68,3l1.25,1.5c.41.5.84,1,1.19,1.47,1.49,1.91,2.82,3.71,4.11,5.44,2.56,3.45,4.88,6.52,7.14,9.14a41,41,0,0,0,3.32,3.37c.55.53,1.08.89,1.61,1.36.26.21.52.36.79.56a7.17,7.17,0,0,0,.78.53c.26.15.52.3.78.47s.53.25.79.39a14.18,14.18,0,0,0,1.62.67,5,5,0,0,0,.8.22c.26.06.53.17.8.22s.55.06.83.11l.42.07h.43c4.62.38,10.79-2.48,15.62-7.18a23.23,23.23,0,0,0,1.75-1.83l.83-1,.77-1c.54-.67,1-1.4,1.45-2.1s.93-1.55,1.39-2.33a67,67,0,0,0,4.47-10.62c2.54-7.63,4.15-16.07,6.1-25a177,177,0,0,1,7.9-26.36c.42-1.08.83-2.15,1.28-3.21l1.4-3.16c.89-2.12,1.95-4.17,3-6.23.53-1,1.11-2,1.68-3,.28-.5.82-.86,1.05-1.39s.38-1.11.56-1.67c.69-2.26,1.1-4.73,2.15-6.82A181.74,181.74,0,0,1,286.32,412c2.87-3.74,5.95-7.33,9.12-10.85a110.41,110.41,0,0,1,10.75-10.44,69.37,69.37,0,0,1,14-9.17,86.65,86.65,0,0,1,15.19-5.52c4.74-1.27,9-2.19,12.73-3.26s7.67-2.14,11.45-3.34q11.37-3.56,22.35-8.13c3.68-1.47,7.28-3.13,10.88-4.78q2.68-1.26,5.36-2.58c.88-.44,1.75-.92,2.65-1.34a23.06,23.06,0,0,1,2.82-1.05,26.06,26.06,0,0,1,6.44-.84c2.34,0,4.73,0,7.12-.07a27.3,27.3,0,0,0,6.73-1,33.84,33.84,0,0,0,5.77-2.6,57.69,57.69,0,0,0,10.19-6.82,48.49,48.49,0,0,0,8-8.76,71.2,71.2,0,0,0,6-10.26c.89-1.82,1.73-3.68,2.54-5.58s1.56-3.85,2.23-5.85l2-6.08c.67-2.05,1.28-4.16,1.92-6.24l3.76-12.54c2.5-8.36,5.24-16.62,8.49-24.67.79-2,1.66-4,2.5-6,.41-1,.9-2,1.35-3s1-1.94,1.51-2.89c1.08-1.91,2.28-3.76,3.56-5.58a54.28,54.28,0,0,1,5-6.37,29.7,29.7,0,0,1,7.42-5.95,24.69,24.69,0,0,1,2.47-1.18,18.54,18.54,0,0,1,2.9-.81,14.67,14.67,0,0,1,5.72.14,27.92,27.92,0,0,1,4,1.26,26.06,26.06,0,0,0,2.69.87,8.2,8.2,0,0,0,1.89.23l1.08-.09c.3-.07.67-.08.91-.17a4.32,4.32,0,0,0,1.23-.51,2.86,2.86,0,0,0,.63-.7,4.69,4.69,0,0,0,.47-1.37,10.52,10.52,0,0,0,.15-2.11,22,22,0,0,0-.85-5.14,39.41,39.41,0,0,0-2-5.33,37.35,37.35,0,0,0-2.75-4.95c-.26-.37-.51-.74-.76-1.06s-.44-.57-.81-1c-.65-.75-1.32-1.49-2-2.21a109.19,109.19,0,0,0-9.24-8.36c-3.3-2.76-6.73-5.58-10.12-8.72-.85-.78-1.69-1.58-2.52-2.41l-.32-.31-.5-.56c-.33-.41-.66-.79-1-1.24s-.58-1-.85-1.48a13.48,13.48,0,0,1-.65-1.65,13.08,13.08,0,0,1-.24-6.47,20.51,20.51,0,0,1,1.55-4.51c.56-1.25,1.14-2.32,1.6-3.23a16.9,16.9,0,0,0,1-2.2,9.36,9.36,0,0,0,.67-3.74,4.26,4.26,0,0,0-.95-2.28c-.15-.21-.34-.44-.54-.67a6.17,6.17,0,0,0-.47-.44,6.35,6.35,0,0,0-1.15-.71,15.29,15.29,0,0,0-1.87-.71c-.79-.25-1.68-.5-2.73-.78a37.69,37.69,0,0,1-7.59-2.74l-1-.52-.71-.39-1.43-.78-2.86-1.56c-1.91-1-3.82-2.08-5.71-3.14l-11.37-6.36c-1.84-1-3.54-1.92-5.25-2.73a41.08,41.08,0,0,0-4.91-2,19.23,19.23,0,0,0-4.26-.94,7,7,0,0,0-2.92.28c-.19.05-.34.16-.52.21s-.32.21-.49.27a5.77,5.77,0,0,0-1.13.86c-1,.84-2.34,2.34-4.29,4.23-1,1-2.17,1.86-3.27,2.77s-2.36,1.62-3.55,2.4-2.49,1.34-3.75,2-2.56,1.1-3.85,1.53a54.91,54.91,0,0,1-15.33,2.66,85,85,0,0,1-14.31-.68c-2.3-.27-4.55-.6-6.78-1-1.12-.17-2.2-.37-3.31-.56-.51-.08-1.17-.21-1.81-.34l-1.9-.4a37,37,0,0,1-14.88-7,42.43,42.43,0,0,1-5.63-5.57c-1.59-1.9-3-3.8-4.3-5.6-2.58-3.61-4.94-7-7.49-10a48.5,48.5,0,0,0-8.43-7.82c-6.38-4.7-13.93-8.43-21.75-12s-16-7.17-23.72-12a69.63,69.63,0,0,1-10.93-8.2,83.54,83.54,0,0,1-8.92-10.08,97,97,0,0,0-8.27-9.7A38.62,38.62,0,0,0,251.47,57,43.92,43.92,0,0,0,246,53.94a36,36,0,0,0-5.85-2.26,13.58,13.58,0,0,0-6-.45A10.73,10.73,0,0,0,228.89,54a43.17,43.17,0,0,0-4.37,4.66,71.57,71.57,0,0,1-9.06,9.45A29,29,0,0,1,210,71.6a38.57,38.57,0,0,1-6.11,2.32A60.14,60.14,0,0,1,191,76c-4.34.28-8.69.26-13,.17Zm0-.09c8.65-.25,17.47-.66,25.55-3.34a31.84,31.84,0,0,0,10.92-6A71.88,71.88,0,0,0,223,57.41a44.91,44.91,0,0,1,4.46-5,15.87,15.87,0,0,1,2.84-2.11A12,12,0,0,1,233.71,49a16.28,16.28,0,0,1,7,.27,39.78,39.78,0,0,1,6.36,2.2,46.49,46.49,0,0,1,5.93,3.1,43.32,43.32,0,0,1,5.34,4,97.9,97.9,0,0,1,8.93,9.69,81.39,81.39,0,0,0,8.85,9.31A64.72,64.72,0,0,0,286.63,85c7.47,4.27,15.57,7.41,23.6,10.72s16.08,6.83,23.32,11.77a55.87,55.87,0,0,1,9.94,8.54c2.94,3.23,5.56,6.72,8.2,10.15a49.15,49.15,0,0,0,8.81,9.45,28.58,28.58,0,0,0,11.75,5.1c2.12.4,4.28.7,6.43,1s4.31.52,6.47.7a88,88,0,0,0,13,.29,46.86,46.86,0,0,0,12.74-2.37A30.89,30.89,0,0,0,422,133.67c1.58-1.49,3-3.11,4.69-4.52A15.26,15.26,0,0,1,432.3,126a16.76,16.76,0,0,1,6.46-.49,28.1,28.1,0,0,1,6.32,1.5,65.43,65.43,0,0,1,11.66,5.75l11.19,6.65c3.74,2.21,7.46,4.45,11.21,6.63s8.31,2.57,12.11,4.73a12.91,12.91,0,0,1,4.61,4.5,11.41,11.41,0,0,1,1.83,6.16,17.15,17.15,0,0,1-1.41,6.31c-.84,2-2.06,3.82-3,5.78s-1.73,4.12-1.11,6.25c.1.25.16.52.28.76l.4.72a10.21,10.21,0,0,0,1,1.25c.75.79,1.51,1.56,2.28,2.32,3.1,3,6.39,5.88,9.65,8.75a128.92,128.92,0,0,1,9.44,9,35.49,35.49,0,0,1,4.1,5,41.5,41.5,0,0,1,3.09,5.72,34.85,34.85,0,0,1,3.3,12.52,12.14,12.14,0,0,1-1.31,6.3,8,8,0,0,1-2.16,2.4,9.14,9.14,0,0,1-3,1.33,13.37,13.37,0,0,1-6.44.12c-2.12-.47-4.14-1.35-6.29-1.68a7.82,7.82,0,0,0-6.1,1.66,17.3,17.3,0,0,0-4.23,4.9,42.65,42.65,0,0,0-2.86,5.84l-2.5,6-5,12c-6.67,16-13.25,32.11-20,48.11-3.44,7.95-7.32,15.81-12.64,22.7a94.7,94.7,0,0,1-18.85,17.85,213.85,213.85,0,0,1-45.36,25.37,211.48,211.48,0,0,1-24.64,8.39c-2.09.57-4.19,1.14-6.3,1.63l-3.17.75-3.18.68c-4.25.92-8.54,1.62-12.78,2.54a69.18,69.18,0,0,0-12.45,3.74,54.33,54.33,0,0,0-11.22,6.55,99.69,99.69,0,0,0-9.86,8.5c-3.1,3-6.13,6.15-9,9.42a163.6,163.6,0,0,0-27.76,43.83,162,162,0,0,0-8.39,24.62c-2.13,8.42-3.65,17-6.09,25.33A81.59,81.59,0,0,1,249.67,527a46.72,46.72,0,0,1-7.14,10.83,40,40,0,0,1-10,8.24,28.54,28.54,0,0,1-12.3,3.9,25.11,25.11,0,0,1-12.64-2.48,39.56,39.56,0,0,1-10.47-7.65,126.7,126.7,0,0,1-8.61-9.76,117.23,117.23,0,0,0-8.58-9.78,44.51,44.51,0,0,0-10.47-7.67A38.29,38.29,0,0,0,157,508.87c-8.67-1.14-17.33.68-26,.69a46.35,46.35,0,0,1-12.91-1.36,24.35,24.35,0,0,1-3.08-1.06c-.49-.22-1-.49-1.45-.74-.24-.12-.48-.24-.71-.38l-.67-.47a11.43,11.43,0,0,1-4.22-4.84,15.3,15.3,0,0,1,.67-12.62c1.87-4,5.27-6.91,8.59-9.64a54,54,0,0,0,4.83-4.36,19.77,19.77,0,0,0,3.7-5.32c.87-2,.44-4.32-.18-6.36s-1.54-4.06-2.08-6.17c-.91-4.26-2.6-8.28-3.82-12.44a28.54,28.54,0,0,1-1-12.88,17,17,0,0,1,11.75-14.33,47.3,47.3,0,0,1,6.3-1.61c4.22-.85,8.62-1.73,12.15-4.35a27.2,27.2,0,0,0,7.66-10.36,41,41,0,0,0,3.11-12.58,36.46,36.46,0,0,0-1-12.91,26,26,0,0,0-6.09-11.34,15,15,0,0,0-5.31-3.65,14.53,14.53,0,0,0-6.36-1c-4.36.34-8.32,2.41-12.24,4.2a45.06,45.06,0,0,1-6,2.4,46,46,0,0,1-6.37,1.37,68,68,0,0,1-13,.59,54.69,54.69,0,0,1-12.84-2.05,30.89,30.89,0,0,1-6-2.43,21,21,0,0,1-5.24-3.84,14.09,14.09,0,0,1-3.38-5.51,16.38,16.38,0,0,1-.65-6.45c.07-.54.11-1.08.19-1.62l.35-1.59a12.11,12.11,0,0,1,1.07-3.08,18.06,18.06,0,0,1,4.08-5,22,22,0,0,0,4.24-4.9,9.52,9.52,0,0,0,.58-6.32,41,41,0,0,1-1-6.43l0-6.51c0-4.34,0-8.69.11-13,.26-8.67,1-17.36.2-26a49,49,0,0,0-3-12.61,30,30,0,0,0-3-5.75,54.42,54.42,0,0,1-3.34-5.6,12.73,12.73,0,0,1-1.31-6.33,14.84,14.84,0,0,1,1.92-6.18,12.67,12.67,0,0,1,4.53-4.61,24.92,24.92,0,0,1,6-2.44c2.09-.59,4.21-1.05,6.3-1.62l3.14-.89,3.15-.81a12.82,12.82,0,0,0,5.76-2.82,18.81,18.81,0,0,0,3.7-5.29,43.71,43.71,0,0,0,2.39-6,25.46,25.46,0,0,0,1.36-6.33c.32-4.33-.4-8.68.21-13a13.12,13.12,0,0,1,2.31-6.05,25.3,25.3,0,0,1,4.63-4.56,54.32,54.32,0,0,0,19.62-32.78,53,53,0,0,0,.81-12.95A72.36,72.36,0,0,0,138,123.06c-1-4.22-2.14-8.42-2.85-12.71a35.35,35.35,0,0,1-.1-13,22.74,22.74,0,0,1,6.14-11.3,28.89,28.89,0,0,1,11.1-6.62A56.48,56.48,0,0,1,165,76.73c2.16-.24,4.32-.38,6.49-.47l3.26-.12,3.25-.06Z"/><path d="M126.43,380.24a9.71,9.71,0,0,0-1.7,8.12,5.84,5.84,0,0,0,1.71,3.17,7,7,0,0,0,.6.4l.63.21.34,0a2.16,2.16,0,0,0,.38.06l1.06.09c5.66.31,11-1.17,14.33-4.82a12.16,12.16,0,0,0,2-3,9,9,0,0,0,.8-3.41,6.35,6.35,0,0,0-.58-3.2,3.82,3.82,0,0,0-.91-1.1,2.78,2.78,0,0,0-1.31-.57,8.37,8.37,0,0,0-3.91.7,21.08,21.08,0,0,1-4.74,1.44c-1.69.21-3.27.05-4.79.12a6.33,6.33,0,0,0-2.17.46A5.52,5.52,0,0,0,126.43,380.24Zm-.8-.86a10.42,10.42,0,0,1,4.59-1.89c1.6-.31,3.19-.4,4.58-.8a18.94,18.94,0,0,0,4-2.08,11.59,11.59,0,0,1,5.05-1.93,6.67,6.67,0,0,1,3.21.56,7.82,7.82,0,0,1,2.63,1.94,10.73,10.73,0,0,1,2.35,5.61,13.83,13.83,0,0,1-.51,5.86,15.92,15.92,0,0,1-2.8,5.06,17.33,17.33,0,0,1-4.3,3.75,18.06,18.06,0,0,1-5.19,2.13,21.4,21.4,0,0,1-10.62-.25c-.42-.11-.83-.24-1.25-.37s-1-.4-1.52-.62a10.46,10.46,0,0,1-1.39-1,9.68,9.68,0,0,1-1.09-1.24,9.49,9.49,0,0,1-1.56-5.5,13.87,13.87,0,0,1,1-5.07A10,10,0,0,1,125.63,379.38Z"/></svg>