<svg id="Layer_1" data-name="Layer 1" xmlns="http://www.w3.org/2000/svg" viewBox="0 0 600 600"><title>Egypt</title><path d="M73.56,89.56a29.56,29.56,0,0,1,1,6.19,26.83,26.83,0,0,1-.28,6.26,16.54,16.54,0,0,1-2.14,6,12.85,12.85,0,0,1-4.76,4.38c-1.9,1-3.9,1.74-5.65,2.7a10.87,10.87,0,0,0-4.19,3.87c-2,3.3-2.21,7.47-1.56,11.34,1.34,7.79,6.88,14.7,8.29,23.7.36,2.16.55,4.26.85,6.25a23.91,23.91,0,0,0,1.34,5.51,9,9,0,0,0,.55,1.12,2.12,2.12,0,0,0,.25.35l.34.39a12.68,12.68,0,0,1,2.39,3,9.13,9.13,0,0,1,1,4.19c0,.63,0,1.18,0,1.67a13.93,13.93,0,0,0,0,1.43L75,278.08l1.9,50.11q.85,25.07,1.48,50.12.33,12.53.59,25.05l.25,12.53,0,1.44q0,.68.06,1.38c0,.93.11,1.88.18,2.84.15,1.93.35,3.93.54,6,.37,4.14.8,8.57.88,13.34,0,1.18,0,2.4,0,3.62l-.07,1.84-.1,1.71c-.15,2.27-.35,4.51-.58,6.71-.45,4.39-1.06,8.63-1.62,12.73l-.78,6-.34,2.95-.32,3.07a108.55,108.55,0,0,1-2.62,13.84c-1,4.13-2,8-2.49,11.37a36.32,36.32,0,0,0-.51,4.77l0,1.07,0,1c0,.15,0,.36,0,.46l0,.29c0,.19,0,.39.09.59a6.47,6.47,0,0,0,.75,2c.29.49.54.69.54.65s0,0,0,0-.08,0,0,0a1.72,1.72,0,0,0,.28,0,6.1,6.1,0,0,0,1,0c.49-.05,1.08-.11,1.82-.25s1.58-.31,2.58-.54,2.07-.46,3.31-.71,2.65-.48,4.23-.66,3-.22,4.4-.21c5.66,0,10.14.9,13.66,1.2.88.08,1.7.15,2.45.17l3.06.1,6.33.23,25,1c4.12.14,8.22.26,12.29.32s8.09.08,12.32,0l50.05-.46c16.69-.2,33.35-.59,50.07-1.15,8.35-.33,16.7-.61,25-1l6.27-.27c2-.1,4.4-.18,6.58-.22,4.43-.08,8.68-.07,12.74-.11,2,0,4-.05,6-.11l1.86,0h4.8a24.1,24.1,0,0,0,4.08-.27c.86-.16,1.19-.32,1.12-.39s0,0-.05,0h0l.17-.14c.44-.29,1.51-1.09,3.42-2.18a29.41,29.41,0,0,1,3.57-1.72c.74-.29,1.49-.54,2.22-.75l1.11-.31c.44-.11.9-.2,1.35-.29a22.84,22.84,0,0,1,6.82-.28,22,22,0,0,1,8.32,2.74,23.09,23.09,0,0,1,5.46,4.39c.54.59,1.14,1.29,1.5,1.77l.59.78.47.66.75,1.11.53.82.22.33c.09.14,0,0,0,.06s0,0,0,0a2.13,2.13,0,0,0-.75-.84,4.15,4.15,0,0,0-.53-.33c-.05,0-.15-.07-.1-.08l.19,0c.18,0,.45,0,.9.05s1,0,1.7,0c1.39-.06,3.34-.24,5.77-.41,1.23-.08,2.6-.14,4.09-.17l2.88-.06a31.84,31.84,0,0,1,6,.34c2.08.31,4.22.81,6.41,1.29a61.66,61.66,0,0,0,6.68,1.13c2.26.24,4.61.3,6.95.51s4.73.47,7.15.79,4.85.7,7.33,1.23,5,1.11,7.51,1.88a72.05,72.05,0,0,1,7.62,2.83l1.9.87c.66.34,1.37.68,2,1,1.29.69,2.38,1.36,3.43,2,2,1.26,3.64,2.33,4.76,2.94a9.09,9.09,0,0,0,2.33,1c.13,0,.24,0,.36.1s.16,0,.27,0a3.31,3.31,0,0,0,.64,0c.46,0,.85-.12,1-.1s-.15.13-.43.67c-.12.12-.13.29-.22.43a1,1,0,0,0-.08.24,1,1,0,0,0,0,.15c0,.12.13-.14.28-.78s.35-1.63.63-3a34.9,34.9,0,0,1,1.39-5c.2-.52.39-1,.62-1.55s.5-1.1.76-1.58a26.44,26.44,0,0,1,1.72-2.81,25.38,25.38,0,0,1,4.45-4.9,29.75,29.75,0,0,1,9.84-5.44c1.52-.52,2.93-.88,4.28-1.2s2.58-.54,3.72-.73c2.15-.36,3.87-.63,5.24-.92a17.59,17.59,0,0,0,2.57-.74c.4-.18.53-.15.84-.47l.12-.12s0,0,.05,0l.09-.07a1.66,1.66,0,0,0,.28-.6,12.17,12.17,0,0,0,.29-3.37c0-.87-.1-2-.12-3.44a29.86,29.86,0,0,1,.34-5.34,21.2,21.2,0,0,1,6.22-11.86,21.27,21.27,0,0,1,5.44-3.83,22,22,0,0,1,5.91-1.91,24.79,24.79,0,0,1,5.46-.34,34.52,34.52,0,0,1,4.36.48c2.48.44,4.16.83,5.13.93.48.06.76.09,1,.1s.39,0,.4.05-.13.18-.29.41-.11.32,0,.27a1,1,0,0,0,.29-.5,6.33,6.33,0,0,0,.24-1.39,26.5,26.5,0,0,0-.27-4.79c-.22-1.9-.51-3.86-.82-5.88s-.68-4.11-1-6.27c-.14-1.08-.29-2.18-.4-3.3s-.18-2.25-.24-3.4c0-.58-.07-1.15-.08-1.73v-1.85a21.23,21.23,0,0,1,.54-5.17,13.08,13.08,0,0,1,1.33-3.37,11.47,11.47,0,0,1,1.13-1.65,14.64,14.64,0,0,1,1.22-1.27,13.33,13.33,0,0,1,5.27-2.92c.77-.23,1.42-.37,2-.49l1.48-.29,1-.19c.19,0,.24,0,.33,0s.26-.05.33-.13a.57.57,0,0,0,.18-.42,3.15,3.15,0,0,0-.9-2.09,7.43,7.43,0,0,0-1.36-1.22,13.1,13.1,0,0,0-1.94-1.17,47.2,47.2,0,0,0-5.21-2.06,67,67,0,0,1-6.55-2.69,49.52,49.52,0,0,1-12.31-8.25,27.17,27.17,0,0,1-4.95-5.64c-.69-1-1.37-2.1-2-3.19a7.77,7.77,0,0,1-.82-1.69,6.1,6.1,0,0,0-.39-.86c-.07-.14-.18-.27-.25-.39l-.23-.29a52.42,52.42,0,0,0-4.17-4.44,25.77,25.77,0,0,1-2-2.32c-.63-.81-1.18-1.67-1.77-2.52-2.33-3.41-4.75-6.93-7.15-10.62-1.2-1.85-2.41-3.78-3.56-5.69l-3.29-5.56q-3.29-5.57-6.42-11.2c-4.18-7.5-8.16-15.09-12-22.71s-7.6-15.31-11.13-22.92l-2.63-5.71L446.18,305l-5.13-11.46c-3.42-7.65-6.71-15.34-10-23.05L426.27,259a46.94,46.94,0,0,0-3.89-8,13.74,13.74,0,0,0-1.73-2.16c-.78-.83-1.91-1.87-3.31-3.09a128.66,128.66,0,0,1-10.44-9.88,36.79,36.79,0,0,1-4.74-6,32.61,32.61,0,0,1-3.25-6.93c-1.65-4.89-2.23-10.16-2.89-15.07l-.53-3.62c-.08-.6-.22-1.17-.32-1.75s-.19-1.18-.31-1.74c-.25-1.15-.5-2.27-.78-3.38s-.59-2.2-.87-3.31c-1.12-4.41-2.06-8.78-2.88-13.18-.42-2.2-.79-4.4-1.13-6.6l-.5-3.32-.42-3.12c-.3-2.11-.65-4.31-.86-6.65a42.57,42.57,0,0,1-.1-7.53,23.42,23.42,0,0,1,2.33-8.59,14.16,14.16,0,0,1,3.85-4.78,12,12,0,0,1,6.94-2.6,15.18,15.18,0,0,1,5.88.91,22.82,22.82,0,0,1,4.11,2,43.46,43.46,0,0,1,6.09,4.47c.89.77,1.74,1.54,2.55,2.29s1.62,1.5,2.43,2.29c1.62,1.56,3.16,3.14,4.64,4.72l4.35,4.62,2.15,2.28c.76.81,1.52,1.62,2.25,2.46a123.73,123.73,0,0,1,15.57,21.75c1.11,1.95,2.15,3.94,3.15,5.95s1.89,4.06,2.76,6.18c1.74,4.18,3.08,8.23,4.45,12,.67,1.88,1.39,3.68,2.08,5.42a14.91,14.91,0,0,1,.67,2.73c.06.43.19,1.07.28,1.6s.16,1.07.25,1.55a12,12,0,0,0,.71,2.71,19.75,19.75,0,0,0,1.05,2.11,8.13,8.13,0,0,0,1.83,2.34c.21.23.43.24.75.37a8.68,8.68,0,0,0,1.36.06,1.72,1.72,0,0,0,1.49-.93,10.81,10.81,0,0,0,1.34-4,42.63,42.63,0,0,0,.41-5.51c0-2,0-4-.05-6.15,0-1.09,0-2.21,0-3.47l.11-1.69.12-1.6q.5-6.39,1.31-12.75.42-3.18.91-6.35c.3-2.07.72-4.36,1.16-6.48.87-4.29,1.93-8.39,2.83-12.35a89.88,89.88,0,0,0,2-11.52,38.26,38.26,0,0,0,.14-5.43,17.49,17.49,0,0,0-.23-2.35c-.13-.76-.31-1.55-.53-2.4-.45-1.7-1.1-3.61-1.74-5.79l-1.75-6.09-3.44-12.05.15.52c-1.93-5.34-3.38-10.64-4.73-15.8l-2-7.59-1-3.69-.56-2.12-.5-2.06c-.31-1.32-.58-2.54-.87-3.59a18.83,18.83,0,0,0-.89-2.67,5.54,5.54,0,0,0-2-2.59,5.9,5.9,0,0,0-3-1.17,17,17,0,0,0-5,.31,67.29,67.29,0,0,0-6.66,1.72c-2.42.74-5,1.52-8.06,2.23-.73.18-1.58.33-2.37.49l-2,.35-3.89.68L422.78,88,415,89.32l-7.78,1.25-7.87,1.26c-2.73.42-5.58.81-8.62,1a53.81,53.81,0,0,1-9.62-.16,35,35,0,0,1-10.28-2.82A36,36,0,0,1,362,84.09a68.62,68.62,0,0,1-6.36-6.5C352,73.38,349,69.69,346,67.37c-.37-.32-.77-.54-1.15-.82s-.76-.57-1.18-.79l-1.25-.67-.62-.35-.66-.28-1.33-.59c-.45-.17-.93-.3-1.4-.46a23.85,23.85,0,0,0-2.91-.78,38.7,38.7,0,0,0-12.93-.26,60.9,60.9,0,0,0-13.52,3.44,110,110,0,0,0-13.43,6.11c-4.54,2.37-9.12,4.94-13.86,7.46a148,148,0,0,1-14.9,7c-2.59,1-5.29,2-8,2.77-1.39.35-2.76.77-4.16,1l-4.21.8c-.7.11-1.39.29-2.1.36l-2.12.21c-1.41.13-2.82.29-4.23.39l-4.22.06-2.11,0-2.09-.13-4.17-.26-4.12-.54-2.05-.27c-.68-.1-1.35-.25-2-.38l-4-.78a196.86,196.86,0,0,1-30.63-10c-9.84-4-19.42-8.26-29.18-12s-19.61-7.39-29.67-10.3A185,185,0,0,0,97,51.07c-1.3-.15-2.61-.28-3.91-.37s-2.61-.22-3.92-.24a46.5,46.5,0,0,0-7.83.13A18.87,18.87,0,0,0,74,52.91a11.21,11.21,0,0,0-4.8,5.93,20,20,0,0,0-.93,7.73,51.28,51.28,0,0,0,1.11,7.79c1.1,5.14,2.7,10.16,4.09,15.23Zm-.09,0c-1.59-5-3.33-10-4.62-15.11a52.78,52.78,0,0,1-1.41-7.86,20.42,20.42,0,0,1,.72-8.15,12.41,12.41,0,0,1,5.12-6.7,19.84,19.84,0,0,1,7.89-2.7,47.85,47.85,0,0,1,8.08-.33c1.33,0,2.65.11,4,.18s2.65.16,4,.29A185.89,185.89,0,0,1,128.39,55c10.21,2.69,20.23,6,30.15,9.55s19.67,7.54,29.52,11.16a193.83,193.83,0,0,0,30.11,8.79l3.86.63c.65.1,1.29.23,1.94.3l1.94.2,3.9.39,3.91.13,1.95.07,2-.08,3.91-.16c1.3-.14,2.59-.32,3.88-.48l1.94-.24c.65-.07,1.28-.26,1.92-.39l3.82-.83c1.27-.28,2.5-.71,3.76-1.05,2.48-.83,4.93-1.72,7.33-2.78a145.09,145.09,0,0,0,14-7.1c9.15-5.14,18.07-10.84,27.88-14.76a69.78,69.78,0,0,1,15.2-4.25A47.52,47.52,0,0,1,337,54.05a33.72,33.72,0,0,1,14.42,6.15c4.21,3.21,7.53,7.35,11,11.26s7.29,7.72,12.14,9.85a25.51,25.51,0,0,0,7.59,2,44,44,0,0,0,7.87.1c5.25-.39,10.42-1.4,15.61-2.23l15.56-2.56L429,77.35c2.59-.45,5.19-.8,7.76-1.36,5.13-1.16,10.1-3,15.3-3.82a24.91,24.91,0,0,1,7.85-.16,14.9,14.9,0,0,1,7.13,3.15,14.28,14.28,0,0,1,4.48,6.37,50,50,0,0,1,2,7.63c.5,2.58,1.21,5.11,1.8,7.68l1.79,7.68c1.19,5.12,2.44,10.23,4.1,15.22h0l3.1,12.14,1.55,6.07c.53,2,1.15,4,1.62,6.05a35.25,35.25,0,0,1,.41,12.46,98.71,98.71,0,0,1-2.42,12.28c-1,4-2.15,8.07-3.08,12.14s-1.55,8.21-2.17,12.34-1.08,8.28-1.45,12.44c-.53,4.16-.23,8.35-.32,12.52a46.69,46.69,0,0,1-.48,6.24,17.44,17.44,0,0,1-1.89,5.93,7.77,7.77,0,0,1-4.79,3.77,9.48,9.48,0,0,1-6.13-.43,9.23,9.23,0,0,1-2.58-1.74,15.35,15.35,0,0,1-2.06-2.35,36.52,36.52,0,0,1-3.1-5.44c-.9-1.88-1.82-3.76-2.62-5.69s-1.56-3.87-2.27-5.83c-1.43-3.93-2.74-7.9-4.28-11.78A115.75,115.75,0,0,0,443,189.51a117.58,117.58,0,0,0-14.06-20.68c-5.55-6.23-10.9-12.69-17.2-18.2a36.44,36.44,0,0,0-5-3.75,11,11,0,0,0-5.88-1.89,4.91,4.91,0,0,0-2.89,1.07,7.47,7.47,0,0,0-1.94,2.42,16.76,16.76,0,0,0-1.68,6A103.38,103.38,0,0,0,406,202.67,91.59,91.59,0,0,0,420.49,223a110.25,110.25,0,0,0,9.2,8.49,43.37,43.37,0,0,1,8.48,9.16,63.93,63.93,0,0,1,5.52,11.23l4.63,11.64,9.25,23.28c12.18,31.09,24.67,62.19,41.15,91.29,4.23,7.21,8.85,14.18,12.89,21.49a51.35,51.35,0,0,0,16.74,18.31c3.46,2.35,7.36,3.94,10.84,6.27a17.71,17.71,0,0,1,4.56,4.24,9.31,9.31,0,0,1,1.89,5.85,6.7,6.7,0,0,1-2.93,5.28c-1.76,1.19-3.91,1.44-5.85,2.18a7.14,7.14,0,0,0-2.64,1.63,5,5,0,0,0-1.42,2.73,21.37,21.37,0,0,0,.32,6.23c.59,4.14,1.5,8.22,2.35,12.31.43,2,.84,4.09,1.19,6.15a40.55,40.55,0,0,1,.69,6.22,14.07,14.07,0,0,1-1.12,6.11,8.68,8.68,0,0,1-4.27,4.4,13.44,13.44,0,0,1-6.1,1.15,62,62,0,0,1-6.22-.72,18.61,18.61,0,0,0-6.23,0,10.39,10.39,0,0,0-5.46,2.87,9.74,9.74,0,0,0-2.75,5.5,30.38,30.38,0,0,0,.14,6.25,26.15,26.15,0,0,1-.17,6.25,13.81,13.81,0,0,1-2.25,5.79,14.59,14.59,0,0,1-4.48,4.3,22.32,22.32,0,0,1-5.77,2.41c-4,1.14-8.22,1.54-12.15,3a16.83,16.83,0,0,0-5.42,3.07,12.3,12.3,0,0,0-3.47,5.13,43.76,43.76,0,0,0-1.28,6.12,20.75,20.75,0,0,1-.79,3,12.58,12.58,0,0,1-1.48,2.75c-2.52,3.39-6.72,5.16-10.85,5.5a18.07,18.07,0,0,1-6.21-.55,24.3,24.3,0,0,1-5.76-2.43c-3.62-2.06-7-4.63-10.83-6.27-7.66-3.41-16.08-4.63-24.39-5s-16.7.13-25.05.26c-2.09.05-4.18,0-6.26.14s-4.17.29-6.26.35a30.33,30.33,0,0,1-6.24-.35,16.4,16.4,0,0,1-5.87-2.1,15.25,15.25,0,0,1-4.53-4.27c-.61-.85-1.11-1.77-1.7-2.63a7.15,7.15,0,0,0-2.15-2.23,4.19,4.19,0,0,0-1.47-.49,5.37,5.37,0,0,0-1.55.08,9.52,9.52,0,0,0-2.92,1.08c-.92.5-1.78,1.09-2.67,1.63a18.77,18.77,0,0,1-2.79,1.42c-3.91,1.57-8.21,1.62-12.36,1.46s-8.34-.24-12.52-.39-8.34-.31-12.52-.39-8.35,0-12.53,0l-25,.06H165.37c-16.71.08-33.39-1-50.08-1.79l-6.26-.28c-2.08-.08-4.17-.14-6.25-.36-4.15-.42-8.28-1.18-12.46-1.2s-8.25,1.15-12.35,1.87a22.22,22.22,0,0,1-6.25.34,12.57,12.57,0,0,1-5.83-2.13,16.29,16.29,0,0,1-6.29-10.51A38.19,38.19,0,0,1,60,502.71c1.42-8.23,4.28-16.17,5.24-24.48s2.33-16.54,3.33-24.84a104.11,104.11,0,0,0,.87-12.48c0-4.17-.34-8.34-.66-12.5s-.62-8.34-.6-12.52V278.08l-.07-100.23c0-1,.1-2.09.13-3.13a6.28,6.28,0,0,0-.58-3,10.63,10.63,0,0,0-2-2.39,7.51,7.51,0,0,1-1.58-2.7c-1.45-4-1.41-8.24-2-12.35-1-8.38-6.35-15.45-7.61-23.79-.56-4.11-.21-8.55,2.08-12.13a11.88,11.88,0,0,1,4.67-4.08c1.87-1,3.87-1.6,5.73-2.54a12.67,12.67,0,0,0,4.71-4A15.66,15.66,0,0,0,74.12,102a25.43,25.43,0,0,0-.74-12.37Z"/></svg>