<svg id="Layer_1" data-name="Layer 1" xmlns="http://www.w3.org/2000/svg" viewBox="0 0 600 600"><title>ElSalvador</title><path d="M378.54,274.34c-4.39-5.49-10.47-9.19-15.87-13.52l-16.81-12.45-8.46-6.17-4.23-3.08-4.27-3L311.81,224c-11.4-8.08-22.72-16.16-34.35-23.35a197.07,197.07,0,0,0-36-18q-4.66-1.69-9.4-3.23c-3.16-1-6.37-1.91-9.55-2.87-1.6-.46-3.2-.92-4.81-1.34l-2.66-.73-2.69-.8c-3.5-1.07-6.68-2.21-9.66-3.07q-2.22-.69-4.26-1.14c-1.38-.3-2.59-.55-4.06-.75s-2.75-.3-4-.34a27.59,27.59,0,0,0-3.52.16,13.89,13.89,0,0,0-2.65.58,8,8,0,0,0-1.64.86,5.54,5.54,0,0,0-1.14,1.39,5.12,5.12,0,0,0-.66,1.81,7.1,7.1,0,0,0,0,2.16,6.74,6.74,0,0,0,.2.88,4.26,4.26,0,0,0,.43.93c.46.82,1.4,2,2.63,3.76.6.85,1.26,1.82,1.92,3a19.32,19.32,0,0,1,1.89,4.48,17.28,17.28,0,0,1-.47,10.61,18.66,18.66,0,0,1-2.36,4.37,17.92,17.92,0,0,1-1.5,1.82l-.4.43c-.14.15-.34.33-.51.49a14,14,0,0,1-1.11.95,16.29,16.29,0,0,1-4.78,2.55,22.24,22.24,0,0,1-4.12.93c-2.36.3-4.12.32-5.14.44a10.14,10.14,0,0,0-1.5.28,14.17,14.17,0,0,0-1.7.52,27.77,27.77,0,0,0-3.69,1.72c-2.59,1.42-5.28,3.36-8.34,5.4l-8.78,5.83c-2.91,1.92-5.74,3.95-8.62,5.92l-4.29,3-4.24,3.06c-2.81,2.06-5.68,4-8.44,6.18s-5.4,4.36-8.1,6.78l-4,3.66L101.74,257c-5.2,4.92-10.29,9.62-15.38,13.8-2.51,2.09-5.07,4.07-7.39,6.14s-4.56,4.15-6.56,6.25c-1,1-2,2.15-2.86,3.16a30.14,30.14,0,0,0-1.88,2.59,16.58,16.58,0,0,0-2.11,4.82,8,8,0,0,0-.25,1.87,9.88,9.88,0,0,0,.14,1.73,13.52,13.52,0,0,0,1.78,4.55c1.91,3.21,5.51,6.77,10.5,10.53,2.5,1.9,5.3,3.87,8.31,6.1.74.55,1.53,1.12,2.27,1.74a16.39,16.39,0,0,1,2.13,2.12,52.58,52.58,0,0,1,3.41,5,16.34,16.34,0,0,0,3.5,4c1.28,1.1,2.53,2.1,3.77,3s2.47,1.66,3.66,2.35,2.45,1.12,3.67,1.65c5,1.95,10.46,2.69,16.27,3.72l2.19.39c.75.12,1.51.22,2.26.36,1.49.29,3.08.49,4.64.71,3.14.42,6.43.74,9.77,1.13s6.82.67,10.36,1.09l5.36.64,2.7.37,2.75.42c3.66.55,7.42,1.29,11.13,2.13s7.32,1.87,10.87,3,7.06,2.27,10.48,3.56,6.81,2.54,10.14,3.91c6.67,2.7,13.13,5.62,19.51,8.56s12.68,5.94,19.12,8.81,12.94,5.63,19.43,8.54c3.25,1.44,6.5,2.87,9.7,4.36s6.35,3,9.56,4.45l9.5,4.34c3.16,1.43,6.34,2.77,9.51,4.09,6.31,2.66,12.69,5,19,7,12.62,4,25.65,6.17,39,7.8,3.33.43,6.67.84,10,1.17,1.68.18,3.38.34,5.07.5s3.4.28,5.08.59A70.69,70.69,0,0,1,392,422.88c1.68.55,3.38,1,5.09,1.43s3.43.63,5.15.91c3.45.56,6.91,1,10.38,1.37L423,427.73c6.94.71,13.84,1.79,20.73,2.93,13.79,2.34,27.52,5.33,41.36,7l5.15.6c1.71.18,3.42.27,5.12.33a49.81,49.81,0,0,0,10-.86,55.28,55.28,0,0,0,9.22-2.56,35.27,35.27,0,0,0,4.1-1.73,22.29,22.29,0,0,0,3.59-2.15,17,17,0,0,0,2.85-2.67,12,12,0,0,0,1.87-3.05,12.16,12.16,0,0,0,1-6.75,7.26,7.26,0,0,0-1-2.67,10.66,10.66,0,0,0-2.26-2.37c-1.08-.9-2.49-1.89-4.06-3.14-.79-.64-1.62-1.36-2.45-2.18a21.66,21.66,0,0,1-2.41-2.92,16.83,16.83,0,0,1-2.78-7.73,17.88,17.88,0,0,1,1-8,16.39,16.39,0,0,1,4.81-7,22.1,22.1,0,0,1,1.81-1.32c.64-.39,1.32-.71,2-1s1.38-.53,2.09-.77,1.3-.31,2-.44a32.33,32.33,0,0,1,6.66-.34c1.89.06,3.57.18,4.81.11a4.37,4.37,0,0,0,2.15-.45c.08,0,.06-.09.08-.11s0,0,0,0,0-.06,0-.08a.06.06,0,0,1,0,0s0-.11.05-.15.11-.13.17-.33a3.86,3.86,0,0,1,.2-.51,1.48,1.48,0,0,0,.11-.41,4.11,4.11,0,0,0,.06-.89,7.54,7.54,0,0,0-.49-2.33,10.42,10.42,0,0,0-1.4-2.54,25.87,25.87,0,0,0-2.48-2.72,47.34,47.34,0,0,1-4.21-4.45,20.72,20.72,0,0,1-3.93-7.85,22.84,22.84,0,0,1-.65-4.14,17.28,17.28,0,0,1-.08-1.89c0-.62,0-1.26,0-1.86a35.12,35.12,0,0,1,1.15-6.9,59.72,59.72,0,0,1,4.4-11.34l2.35-4.76,1-2.1c.31-.66.61-1.32.89-2a42.94,42.94,0,0,0,2.48-8,27.3,27.3,0,0,0,.58-7.67,21.85,21.85,0,0,0-.59-3.5,17.44,17.44,0,0,0-1.19-3.36,16.21,16.21,0,0,0-4.09-5.51,14,14,0,0,0-2.65-1.75,13.8,13.8,0,0,0-3.18-1,33.46,33.46,0,0,0-8.5-.34c-3.18.17-6.6.59-10.26.91a53.27,53.27,0,0,1-11.91,0,25.56,25.56,0,0,1-6.58-1.8,20.65,20.65,0,0,1-6-3.91,20,20,0,0,1-2.34-2.57c-.67-.88-1.22-1.72-1.72-2.51l-1.36-2.17c-.41-.65-.8-1.24-1.25-1.84a27.6,27.6,0,0,0-14.69-10.07,19.06,19.06,0,0,0-8.85-.48,18.53,18.53,0,0,0-8,4.25c-1.28,1-2.55,2.21-3.87,3.38s-2.69,2.35-4.07,3.45c-2.77,2.21-5.58,4.34-8.46,6.38s-5.83,4-8.89,5.72a56,56,0,0,1-9.55,4.59c-.82.33-1.71.51-2.56.76l-2.66.42c-.89,0-1.79,0-2.68,0s-1.77-.18-2.63-.4a24.57,24.57,0,0,1-9.32-4.76c-5.53-4.34-9.78-9.95-14.37-15.17Zm.07-.06c4.89,5,9.48,10.35,15.06,14.27l1,.72,1.08.64c.37.21.72.44,1.09.63s.75.35,1.12.54a18.43,18.43,0,0,0,4.62,1.58c.78.18,1.59.16,2.39.27s1.6-.05,2.4-.07l2.38-.45c.79-.26,1.58-.44,2.36-.78a54.26,54.26,0,0,0,9-4.7c2.91-1.83,5.72-3.83,8.46-5.93s5.41-4.3,8-6.58c1.3-1.14,2.55-2.3,3.79-3.51s2.49-2.45,3.82-3.64a30.57,30.57,0,0,1,4.29-3.31,18.75,18.75,0,0,1,5.06-2.21,23.41,23.41,0,0,1,10.82-.08,32.74,32.74,0,0,1,18.05,10.89c2.36,2.72,3.85,6,6.4,8.13a15.89,15.89,0,0,0,9.17,3.77,45.17,45.17,0,0,0,10.31-.41c3.45-.45,6.89-1,10.37-1.43a41,41,0,0,1,10.5,0,22.09,22.09,0,0,1,5.1,1.36,21.85,21.85,0,0,1,4.58,2.61,26.59,26.59,0,0,1,10,17.92c.85,7-.7,14-3.41,20.43s-6.69,12.28-8.6,19a21.63,21.63,0,0,0-.68,10.32,11.86,11.86,0,0,0,2.23,4.68,51.53,51.53,0,0,0,3.47,3.91,26.6,26.6,0,0,1,3.24,4.09,18,18,0,0,1,2.12,4.76,14.34,14.34,0,0,1,.49,5.17,11.59,11.59,0,0,1-.55,2.55,13.77,13.77,0,0,1-1.12,2.36,8.57,8.57,0,0,1-3.8,3.45,12.21,12.21,0,0,1-5.11.89c-3.48,0-7-.72-10.43-.23a9.27,9.27,0,0,0-4.75,2,10.23,10.23,0,0,0-3,4.22,11.19,11.19,0,0,0,1,10c1.95,2.94,5,4.76,7.69,7a16.22,16.22,0,0,1,3.48,3.87,13.28,13.28,0,0,1,1.75,4.9,17.71,17.71,0,0,1-1.64,10.17,19.79,19.79,0,0,1-6.81,7.77,31.08,31.08,0,0,1-9.48,4.27,53,53,0,0,1-10.31,1.63,136.09,136.09,0,0,1-20.88-.74l-83.31-7.56c-13.88-1.26-27.78-2.53-41.54-4.77a194.77,194.77,0,0,1-40.38-10.58c-13-5-25.38-11.54-37.8-17.85-6.22-3.16-12.45-6.29-18.78-9.2s-12.78-5.57-19.26-8.14-13-5-19.52-7.51-13.05-4.91-19.66-7.12c-13.21-4.41-26.82-7.92-40.76-8.87-13.88-1.14-27.92-.75-41.66-3.28a64.51,64.51,0,0,1-19.72-6.68c-6.21-3.25-11.37-8.06-16.67-12.55s-11.15-8.36-16.79-12.45-11.05-8.69-14.71-14.68a28.87,28.87,0,0,1-3.82-9.68,23.11,23.11,0,0,1,.43-10.36,30.83,30.83,0,0,1,4.46-9.41,50.84,50.84,0,0,1,6.91-7.82C72.3,262.88,84.28,255.53,96,248c5.88-3.73,11.62-7.7,17.35-11.66l17.23-11.85,17.22-11.87c2.85-2,5.63-4.12,8.61-5.93a28.38,28.38,0,0,1,9.63-3.95c1.72-.29,3.46-.37,5.18-.64a8.86,8.86,0,0,0,7.75-6.1,8.34,8.34,0,0,0,.16-5.11,15.36,15.36,0,0,0-2.53-4.54c-1-1.4-2.15-2.74-3.08-4.22a15.28,15.28,0,0,1-2.27-10,15.48,15.48,0,0,1,4.49-9.25,16.91,16.91,0,0,1,4.35-2.89,22.34,22.34,0,0,1,5-1.5,38.42,38.42,0,0,1,10.44-.17,55.08,55.08,0,0,1,10.23,2.15c3.34,1,6.62,2.17,9.93,3.27s6.67,2,10,3.09a198.63,198.63,0,0,1,19.55,7.4,206.83,206.83,0,0,1,36.11,21c11.39,8.05,22.23,16.84,33.09,25.58L347,247l16.28,13.13c2.7,2.21,5.37,4.45,7.94,6.81s5.05,4.8,7.48,7.31Z"/></svg>