<svg id="Layer_1" data-name="Layer 1" xmlns="http://www.w3.org/2000/svg" viewBox="0 0 600 600"><title>Eritrea</title><path d="M63.77,375a17.65,17.65,0,0,0,1.53,2.76,5.68,5.68,0,0,0,2.35,2.05,5.07,5.07,0,0,0,3.07.34A9.8,9.8,0,0,0,73.61,379c1.81-1,3.45-2.33,5.32-3.44a17.76,17.76,0,0,1,6.25-2c1.08-.16,2.16-.26,3.24-.32a9.87,9.87,0,0,1,1.72,0,9.65,9.65,0,0,1,1.72.28c2.22.54,4.1,1.43,5.87,1.42a6.42,6.42,0,0,0,2.53-.5,7.68,7.68,0,0,0,2.14-1.48,51.39,51.39,0,0,0,3.72-4.88,11.9,11.9,0,0,1,2.62-2.58,8,8,0,0,1,3.77-1.48,6.94,6.94,0,0,1,2.18,0,6.51,6.51,0,0,1,1,.28,3.8,3.8,0,0,1,1,.4l.92.49.8.58a15.34,15.34,0,0,1,1.41,1.23c1.68,1.69,2.94,3.45,4.24,5a15.15,15.15,0,0,0,4,3.62,4.73,4.73,0,0,0,3.83.37,9.08,9.08,0,0,0,3.69-2.63,14.73,14.73,0,0,0,2.61-4.34,13.1,13.1,0,0,0,.68-2.36c.15-.84.27-1.81.36-2.73a116.52,116.52,0,0,0-.09-12.2,61.34,61.34,0,0,1,.17-6.85c.12-1.19.26-2.37.5-3.62.15-.65.29-1.32.47-2s.39-1.27.62-1.89a26.54,26.54,0,0,1,3.87-6.95,22.12,22.12,0,0,1,6.36-5.6,16.41,16.41,0,0,1,9.48-2.21c.43,0,.87.06,1.3.13l1.26.28a14.2,14.2,0,0,1,2.44.79,17.61,17.61,0,0,1,4.21,2.52,28.62,28.62,0,0,1,5.52,6.15c1.4,2,2.51,3.83,3.58,5.37a25.41,25.41,0,0,0,1.57,2,9.83,9.83,0,0,0,.79.92l.88.86c.29.28.56.59.87.85l1,.77.95.77,1,.68a29.14,29.14,0,0,0,18.73,4.56,23.44,23.44,0,0,0,8.75-2.63,42.8,42.8,0,0,0,4-2.64c.84-.6,1.81-1.3,3-2a32.2,32.2,0,0,1,4.1-2.21c.78-.33,1.61-.65,2.42-.91a25.15,25.15,0,0,1,7.64-1.22,25,25,0,0,1,10.4,2.18,38.23,38.23,0,0,1,7.37,4.48c1.88,1.41,3.38,2.57,4.51,3.27a8.53,8.53,0,0,0,1.4.74,4.74,4.74,0,0,0,.46.17c.09,0,.15,0,.24,0a3.79,3.79,0,0,0,1.45-.18,5.24,5.24,0,0,0,1.74-.93,3.48,3.48,0,0,0,1-1.19c0-.09.07-.15.07-.22a.16.16,0,0,1,0-.1.41.41,0,0,0,.06-.18c.06-.29.18-.85.41-1.71a19.31,19.31,0,0,1,1.24-3.44,17.11,17.11,0,0,1,1.33-2.25,15.1,15.1,0,0,1,1.88-2.17,14.56,14.56,0,0,1,2.3-1.83,15.9,15.9,0,0,1,2.62-1.36,16.32,16.32,0,0,1,5-1.1l1.08,0,1,0c.67,0,1.19.09,1.76.16a27.46,27.46,0,0,1,5.18,1.26c1.38.46,2.56.93,3.47,1.28a13.59,13.59,0,0,0,3.36.78,14.23,14.23,0,0,0,3.51-.07,5.5,5.5,0,0,0,1-.28c.47-.16,1.11-.42,1.91-.78l3-1.32a17.33,17.33,0,0,1,2-.71,14.7,14.7,0,0,1,3.7-.58,13.88,13.88,0,0,1,4.89.79,14.12,14.12,0,0,1,4,2.18,15.62,15.62,0,0,1,3.95,4.65,18.55,18.55,0,0,1,.94,1.91c.13.3.25.6.35.89s.07.15.1.26a1.94,1.94,0,0,0,.29.5,2.42,2.42,0,0,0,.27.25c.4.35.93.77,1.41,1.11s1.05.69,1.66,1l1,.51.46.23.28.12.87.33,1.14.4c.8.26,1.64.52,2.55.78l6.05,1.7a70.18,70.18,0,0,1,7.19,2.43,53.59,53.59,0,0,1,7.3,3.68,78,78,0,0,1,12,9c3.52,3.18,6.56,6.22,9.66,9.35s6.09,6.34,9,9.6c5.89,6.51,11.56,13.34,16.84,20.27s10.18,13.65,15.2,19.95c2.52,3.14,5.06,6.15,7.67,9s5.3,5.45,8.14,8,5.89,4.94,9.07,7.31,6.45,4.71,9.87,7,6.92,4.67,10.45,7l10.58,7,10.58,7,5.23,3.47c1.63,1.06,3.23,2.08,4.78,3a69.18,69.18,0,0,0,8.86,4.62,22.12,22.12,0,0,0,6.87,1.92,6.28,6.28,0,0,0,3.34-.44,5.12,5.12,0,0,0,.66-.31,7.17,7.17,0,0,1,1.25-.35,28.22,28.22,0,0,0,4.48-1.23,17.09,17.09,0,0,0,2.7-1.31c1.08-.69,2.34-1.6,3.29-2.26s2-1.32,2.9-2l2.54-1.65c1.63-1.06,3-2,4.13-2.83a22.4,22.4,0,0,0,2.33-2.08c.51-.5.53-.51.66-.48s.11,0,.08,0,0,0,.07-.06,0-.14,0-.21.06-.19.07-.18a.83.83,0,0,0-.11-.66,3.35,3.35,0,0,0-.46-.67,5.35,5.35,0,0,0-2.47-.65c-1.62-.22-4-.33-7.1-.85a30.85,30.85,0,0,1-5.08-1.32c-1-.34-1.61-.64-2.34-1s-1.38-.65-2-1a48.73,48.73,0,0,1-6.92-4.54,72.81,72.81,0,0,1-5.63-4.91c-.85-.82-1.72-1.68-2.6-2.57s-1.67-1.78-2.46-2.68c-3.18-3.58-5.91-7.22-8.45-10.69s-4.9-6.81-7.33-9.83-5-6-7.76-9c-5.46-5.84-11.45-11.42-17.66-17-12.36-11.16-25.67-22.29-37.25-35.66-5.85-6.76-10.68-13.71-15.83-20.1s-10.43-12.31-16.74-16.71c-.79-.55-1.58-1.1-2.41-1.57l-1.23-.75c-.42-.25-.91-.51-1.37-.76l-5.55-3.06c-3.72-2-7.42-4-11.17-6s-7.53-3.88-11.26-5.76a77.24,77.24,0,0,0-11.27-4.58,40.5,40.5,0,0,0-11.64-1.58c-4.08-.08-8.33.15-12.8,0-1.1,0-2.26-.16-3.39-.26-.58-.06-1.16-.16-1.74-.25a14,14,0,0,1-1.76-.34,21.69,21.69,0,0,1-7-2.78c-.55-.37-1.14-.7-1.66-1.13l-1.52-1.34a15.9,15.9,0,0,1-1.34-1.51l-.64-.79a4.58,4.58,0,0,1-.33-.47l-.34-.55a19.35,19.35,0,0,1-1.54-3.73c-.36-1.14-.66-2.23-.93-3.29-.54-2.12-1-4.15-1.54-6.07a32.32,32.32,0,0,0-1.83-5.22,8.16,8.16,0,0,0-1.1-1.76c-.35-.43-.63-.59-.74-.6a4.21,4.21,0,0,0-.44.06,3.62,3.62,0,0,0-1,.4,2,2,0,0,0-.45.61,5.58,5.58,0,0,0-.53,1.45,13.39,13.39,0,0,0-.3,2.16c-.05.81-.06,1.69,0,2.66a50.19,50.19,0,0,1-.13,7,21.59,21.59,0,0,1-.86,4.15l-.19.68-.17.64c-.12.49-.27,1.08-.49,1.78a14.57,14.57,0,0,1-1,2.38,13.17,13.17,0,0,1-.82,1.35,11.83,11.83,0,0,1-.95,1.2,9.12,9.12,0,0,1-3.82,2.61,8.83,8.83,0,0,1-2.79.47,10.46,10.46,0,0,1-2.09-.22,19.5,19.5,0,0,1-2.38-.69c-.58-.2-1.17-.41-1.79-.66a22.42,22.42,0,0,1-3.88-2c-.32-.2-.64-.43-1-.66s-.55-.43-.83-.65a20.38,20.38,0,0,1-1.57-1.33,30.21,30.21,0,0,1-2.77-2.91,39.37,39.37,0,0,1-4.29-6.32,74.93,74.93,0,0,1-5.38-12.85l-4.06-12-8.14-24c-2.69-8-5.17-16.08-7.5-24.19-1.13-4.07-2.4-8.1-3.26-12.25s-1.42-8.39-1.95-12.64c-.29-2.11-.54-4.25-.9-6.34s-.72-4.19-1.21-6.25c-.94-4.12-2.35-8.11-3.58-12.15s-2.53-8.05-3.85-12-2.67-8-4.11-11.87a217.17,217.17,0,0,0-9.63-22.85c-1.82-3.67-3.74-7.25-5.83-10.68l-.81-1.31-.87-1.44-1.6-2.69a27.13,27.13,0,0,0-3-4.21,9.78,9.78,0,0,0-3-2.34,9.36,9.36,0,0,0-3.44-1.11,9.85,9.85,0,0,0-3.46.3,23.1,23.1,0,0,0-4.27,1.62c-3.71,1.73-7.4,3.5-11,5.38s-7.2,3.87-10.78,5.83-7.09,4-10.56,6.17-6.93,4.39-10.34,6.6-6.71,4.53-10,6.87l-1.08.81c-.33.25-.65.5-1,.76-.61.51-1.2,1-1.72,1.55a18.42,18.42,0,0,0-2.57,3.07,12,12,0,0,0-.76,1.45l-.15.35-.07.23a1.11,1.11,0,0,0-.09.29c0,.13-.06.2-.08.37-.12.55-.22,1.39-.32,2.36s-.22,2.23-.43,3.63a24.3,24.3,0,0,1-1.26,5,18.06,18.06,0,0,1-3.3,5.49,20.3,20.3,0,0,1-9.54,5.81,28.71,28.71,0,0,1-8.79,1.11c-1.36,0-2.67-.11-3.94-.24s-2.44-.3-3.82-.55-2.39-.51-3.39-.74-1.78-.4-2.45-.52a9.49,9.49,0,0,0-1.34-.14,1.74,1.74,0,0,0-.45,0c-.12,0-.32.12-.62.32a6,6,0,0,1-.48.4c-.06.11-.21.21-.26.28s-.15.1-.12.14l-.06,0s0,0,0,.06,0,.13-.11.21,0,.15,0,.22a1.14,1.14,0,0,0,0,.28,18.4,18.4,0,0,0,1,4.44,55,55,0,0,1,1.82,7.2c.4,2.71.42,4.92.57,6.69l.3,3.12.29,3.27c.31,4.36.47,8.76.43,13.18a138,138,0,0,1-2.82,26.19c-1.69,8.52-4,16.79-6.36,24.94s-5,16.18-7.3,24.3L58.09,303l-3.46,12.19c-1.15,4.06-2.26,8.11-3.08,12.22a54.55,54.55,0,0,0-1.17,12.48,39.77,39.77,0,0,0,2.47,12.31c2.8,8,7.18,15.25,10.84,22.85Zm-.08.05c-2-3.71-4.18-7.34-6.25-11a93.53,93.53,0,0,1-5.68-11.43,39,39,0,0,1-3-12.61,41.34,41.34,0,0,1,.06-6.49c.16-2.15.44-4.28.79-6.4.73-4.22,1.74-8.36,2.79-12.45l3.13-12.27,6.23-24.54,6.29-24.53c2-8.17,3.94-16.38,5.25-24.69a132.79,132.79,0,0,0,1.72-25.11c-.12-4.2-.45-8.4-.91-12.59-.23-2.1-.5-4.17-.78-6.28s-.36-4.22-.72-6.27c-.72-4.1-2.81-7.92-3.28-12.22A9.5,9.5,0,0,1,70.79,160c.28-.46.65-.86,1-1.29s.76-.75,1.14-1.13a10.57,10.57,0,0,1,2.67-1.76,11.49,11.49,0,0,1,6.29-.75c2.11.27,4.16.79,6.23,1.14,4.14.62,8.46.86,12.51-.32a11.61,11.61,0,0,0,5.33-3.18,9,9,0,0,0,1.59-2.69,16,16,0,0,0,.73-3.06c.29-2.08.35-4.2.7-6.29a17.38,17.38,0,0,1,2.25-5.89,31.92,31.92,0,0,1,8.76-9c3.39-2.51,6.88-4.89,10.42-7.19A274.83,274.83,0,0,1,175.1,94.91a29.67,29.67,0,0,1,6-1.84,17.11,17.11,0,0,1,6.3,0,17.83,17.83,0,0,1,10.5,6.58c2.6,3.34,4.27,7.27,6.38,10.92s3.87,7.5,5.58,11.36c6.86,15.45,11.65,31.69,16.56,47.83l14.73,48.45,14.74,48.46,3.68,12.12a68.26,68.26,0,0,0,4.53,11.8,26.75,26.75,0,0,0,8,9.68,20.88,20.88,0,0,0,5.76,2.58,3,3,0,0,0,1.56,0,3.18,3.18,0,0,0,1.28-.9,7.5,7.5,0,0,0,1.54-2.74,40.41,40.41,0,0,0,1.68-6.09,53.29,53.29,0,0,0,.31-6.32,23.64,23.64,0,0,1,.81-6.26,8.17,8.17,0,0,1,3.65-5,6.48,6.48,0,0,1,1.48-.57,8.86,8.86,0,0,1,1.55-.31,5.66,5.66,0,0,1,3.06.58,9.37,9.37,0,0,1,3.9,4.83c1.64,3.9,2.32,8.11,3.25,12.21a26.41,26.41,0,0,0,1.89,6,14,14,0,0,0,4.37,4.5,17.92,17.92,0,0,0,5.82,2.4,35.62,35.62,0,0,0,6.26.88c4.21.27,8.44.12,12.65.23,1.06,0,2.11.1,3.17.14s2.1.16,3.14.33a42.12,42.12,0,0,1,6.18,1.38,87.45,87.45,0,0,1,11.73,4.74l11.4,5.5,11.41,5.5c3.77,1.88,7.67,3.54,11.27,5.75,7.22,4.42,13.23,10.51,18.76,16.86s10.65,13.1,16.42,19.27c11.53,12.37,24.94,22.74,37.87,33.57,6.48,5.42,12.85,11,18.83,16.93,3,3,5.86,6.08,8.61,9.28s5.3,6.56,7.91,9.88,5.24,6.62,8.13,9.7a69.12,69.12,0,0,0,9.43,8.42,35.87,35.87,0,0,0,5.38,3.32,18.64,18.64,0,0,0,6,2c4.16.61,8.51.18,12.49,1.77a14.52,14.52,0,0,1,8.3,9,14.13,14.13,0,0,1-1.82,12.11,26.39,26.39,0,0,1-4.07,4.82c-1.52,1.47-3.15,2.82-4.8,4.13s-3.34,2.58-5,3.92-3.19,2.77-4.78,4.16c-3.16,2.76-6.55,5.42-10.54,6.88a25.27,25.27,0,0,1-12.46,1.27,41.37,41.37,0,0,1-12-3.84A85.06,85.06,0,0,1,483,496.72c-3.51-2.36-6.87-4.91-10.26-7.42l-10.18-7.53-20.34-15.09a229.83,229.83,0,0,1-19.54-16.08,161.41,161.41,0,0,1-16.84-18.89c-5.17-6.67-10.05-13.57-15.11-20.33S380.36,398,374.77,391.71s-11.39-12.47-17.54-18.24a65.62,65.62,0,0,0-10-7.75,41.92,41.92,0,0,0-5.61-2.9,57,57,0,0,0-6-2.08,112.59,112.59,0,0,1-12-3.92,32.4,32.4,0,0,1-5.45-3.22,18,18,0,0,1-4.49-4.44,14.49,14.49,0,0,1-1.42-2.84,5.65,5.65,0,0,0-1.6-2.65,2.23,2.23,0,0,0-1.44-.5,4.27,4.27,0,0,0-1.51.39l-2.9,1.25a22.61,22.61,0,0,1-6.06,1.8,26.28,26.28,0,0,1-6.33,0,25.28,25.28,0,0,1-6.12-1.58,27.32,27.32,0,0,0-6-1.92,6.39,6.39,0,0,0-3.1.24,4.35,4.35,0,0,0-2.22,2.11,16.34,16.34,0,0,0-.91,3c-.13.52-.33,1-.49,1.51s-.44,1-.66,1.45a15.47,15.47,0,0,1-9.83,7.46,14.21,14.21,0,0,1-6.29.19A17,17,0,0,1,251,356.5c-3.53-2.32-6.54-5.39-10.39-7.17a15.36,15.36,0,0,0-12.27-.19,32,32,0,0,0-5.48,3.12c-.88.58-1.76,1.18-2.69,1.67s-1.86,1-2.82,1.46a33.14,33.14,0,0,1-12.28,2.85,37.46,37.46,0,0,1-23.76-7.33,34.18,34.18,0,0,1-8.5-9.31c-1.1-1.8-2.11-3.65-3.24-5.43a21.52,21.52,0,0,0-4-4.86,12,12,0,0,0-2.64-1.7,7.88,7.88,0,0,0-1.48-.52l-.76-.2c-.26-.05-.52-.06-.78-.09a10.46,10.46,0,0,0-6.07,1.26,18.85,18.85,0,0,0-8.1,9.37,22.92,22.92,0,0,0-1.53,6.11,57.63,57.63,0,0,0-.43,6.3,109,109,0,0,1-.57,12.65,20.83,20.83,0,0,1-1.65,6.1A18.23,18.23,0,0,1,138,375.8a12.15,12.15,0,0,1-5.38,3.25,7.79,7.79,0,0,1-6.11-1,18.21,18.21,0,0,1-4.45-4.48c-1.29-1.68-2.46-3.44-3.89-5A10.66,10.66,0,0,0,117,367.5l-.61-.49-.69-.39a2.64,2.64,0,0,0-.71-.31,6.49,6.49,0,0,0-.75-.23,4.81,4.81,0,0,0-1.56,0,7.81,7.81,0,0,0-5.22,3.18,52.06,52.06,0,0,1-4,4.87,8.94,8.94,0,0,1-2.68,1.69,7.75,7.75,0,0,1-3.12.5c-2.15-.11-4.07-1.13-6.1-1.68a9.88,9.88,0,0,0-3.11-.35c-1.06,0-2.11.1-3.16.22a17,17,0,0,0-6,1.75c-1.86,1-3.6,2.2-5.52,3.1a10.56,10.56,0,0,1-3,.95,5.39,5.39,0,0,1-3.09-.44c-2-.92-3.09-2.89-4-4.74Z"/><path d="M296.87,222.4a13.78,13.78,0,0,0-3.45.39,4.87,4.87,0,0,0-2.83,1.66,4.5,4.5,0,0,0-.81,3,3.85,3.85,0,0,0,1.29,2.46c1.37,1.23,3.32,1.35,5.39,1.31l3.36-.15c.59,0,1.26,0,1.83,0l1.69,0a28.9,28.9,0,0,0,3.1,0,7.93,7.93,0,0,0,2.34-.47,1.82,1.82,0,0,0,.62-.44,1.59,1.59,0,0,0,.41-.74,2.42,2.42,0,0,0-.67-2.1,13.12,13.12,0,0,0-5.47-3.63A19.88,19.88,0,0,0,296.87,222.4Zm0,0a43.57,43.57,0,0,1,7,.64,28.09,28.09,0,0,1,3.5.82,12.38,12.38,0,0,1,3.48,1.61,7,7,0,0,1,1.57,1.52,5.3,5.3,0,0,1-.18,6.19,6.64,6.64,0,0,1-1,1,9.26,9.26,0,0,1-4.21,1.73,20.8,20.8,0,0,1-3.88.23l-1.79-.1-1.66-.13a35.29,35.29,0,0,1-3.62-.37,13.27,13.27,0,0,1-3.86-1.21,7.76,7.76,0,0,1-3.16-2.88,5.88,5.88,0,0,1-.81-4,6.27,6.27,0,0,1,1.77-3.36,6.12,6.12,0,0,1,3.32-1.39A21.53,21.53,0,0,1,296.87,222.4Z"/><path d="M290.53,240.59a7.3,7.3,0,0,0-2.68,3,11.07,11.07,0,0,0-1,3.9,26.23,26.23,0,0,0,.65,8.05c.62,2.57,1.58,5.26,3.57,6.71s4.66,1.76,7.25,1.77c1.31,0,2.61-.08,4-.16s2.75-.13,4.12-.16c2.73-.06,5.46-.11,8.18-.12l4.06,0h2.08c.82,0,1.55.1,2.25.18a48.52,48.52,0,0,0,7.66.69,5.9,5.9,0,0,0,2.69-.61,2,2,0,0,0,.63-.61,2.81,2.81,0,0,0,.36-1,2.77,2.77,0,0,0-.56-2.12,9.53,9.53,0,0,0-2.33-2.27,23.27,23.27,0,0,0-6.68-3.3,22.26,22.26,0,0,0-3.71-.79,16.56,16.56,0,0,0-3.79,0,35,35,0,0,1-4.19.26,9,9,0,0,1-4.35-1,6.29,6.29,0,0,1-1.77-1.46,10.91,10.91,0,0,1-1.15-1.83c-.64-1.25-1.11-2.51-1.77-3.68a12.22,12.22,0,0,0-5.66-5.5,9.68,9.68,0,0,0-3.92-.93A7.53,7.53,0,0,0,290.53,240.59Zm0,0a8.83,8.83,0,0,1,7.89-.22,13.43,13.43,0,0,1,6.18,5.3c.76,1.16,1.4,2.39,2.12,3.49a9.38,9.38,0,0,0,1.18,1.51,4.43,4.43,0,0,0,1.47,1,7,7,0,0,0,3.6.34,34.81,34.81,0,0,0,3.89-.74c5.73-1.37,11.79,0,16.93,2.95a13.21,13.21,0,0,1,3.69,3.16,8.3,8.3,0,0,1,1.34,2.48,7.06,7.06,0,0,1,.27,3,7.4,7.4,0,0,1-.92,2.84A6.7,6.7,0,0,1,336,268a10.33,10.33,0,0,1-5.11,1.42,42.78,42.78,0,0,1-8.55-.91c-.64-.09-1.27-.19-1.8-.24l-2-.11c-1.37-.07-2.73-.18-4.09-.28l-16.31-1.38a21,21,0,0,1-4.21-.92,10.85,10.85,0,0,1-3.83-2.18,8.87,8.87,0,0,1-2.33-3.68,22.24,22.24,0,0,1-.95-4,30.86,30.86,0,0,1-.15-8.2,11.58,11.58,0,0,1,1.17-3.9A7.35,7.35,0,0,1,290.53,240.59Z"/></svg>