<svg id="Layer_1" data-name="Layer 1" xmlns="http://www.w3.org/2000/svg" viewBox="0 0 600 600"><title>FalklandIslands</title><path d="M549,254.32a5.61,5.61,0,0,0,.79-4.91,20.1,20.1,0,0,0-2.11-4.71,58.34,58.34,0,0,0-5.89-8.38,47.42,47.42,0,0,0-16-12,49.26,49.26,0,0,0-9.35-3.16,47.66,47.66,0,0,0-14.67-1c-.82.07-1.63.17-2.44.28-.42,0-.76.14-1.14.2a8,8,0,0,0-1.1.25,10.8,10.8,0,0,0-6.69,4.84c-1.72,2.54-3.25,5.79-5.28,8.85a20.15,20.15,0,0,1-4.1,4.48,24.69,24.69,0,0,1-5,3.1,26,26,0,0,1-5.5,1.91,22.6,22.6,0,0,1-5.89.65,18.33,18.33,0,0,1-6.12-1.08,16,16,0,0,1-1.7-.79,9.88,9.88,0,0,1-1.66-1.33,8.06,8.06,0,0,1-2-3.8,15.17,15.17,0,0,1,.36-6.58c.46-1.88,1-3.59,1.59-5.25a47.88,47.88,0,0,0,2.53-9.3,8.21,8.21,0,0,0-.27-3.64,4.7,4.7,0,0,0-1.91-2.34c-1.94-1.34-5.18-2-8.14-2.23a49.72,49.72,0,0,0-9.65.67c-3.37.48-6.86,1.11-10.6,1.32a37.81,37.81,0,0,1-5.72-.07,42,42,0,0,1-5.61-1,56.72,56.72,0,0,1-10.4-3.75c-1.65-.78-3.27-1.62-4.84-2.51s-3.1-1.79-4.63-2.76c-.76-.49-1.51-1-2.26-1.5l-1.12-.79c-.16-.1-.45-.33-.68-.51s-.44-.38-.66-.57c-1.62-1.52-2.64-2.94-3.63-3.91a5.93,5.93,0,0,0-1.24-1,1.93,1.93,0,0,0-.91-.28,2.41,2.41,0,0,0-1.89.76,4.7,4.7,0,0,0-1,2.7,25.37,25.37,0,0,0,.19,4.5c.18,1.62.44,3.31.69,5.05s.54,3.53.67,5.44a22.35,22.35,0,0,1-.29,6.14,12,12,0,0,1-3.46,6.38,13.84,13.84,0,0,1-6.19,3.17c-2.26.51-3.65.59-5.26.95a30.91,30.91,0,0,0-4.5,1.25,13.42,13.42,0,0,0-3.65,1.88,3.33,3.33,0,0,0-1.47,2,2.73,2.73,0,0,0,.06,1,7.16,7.16,0,0,0,.51,1.35,14.61,14.61,0,0,0,2.45,3.06,48.88,48.88,0,0,1,3.85,4.25,20,20,0,0,1,1.87,3c.26.59.52,1.19.74,1.85a11.91,11.91,0,0,1,.49,2.19,10.84,10.84,0,0,1-.42,4.94,13.45,13.45,0,0,1-.91,2.18,15.94,15.94,0,0,1-1.09,1.75,57.14,57.14,0,0,1-3.95,4.77l-.78.92c-.23.29-.3.47-.46.7l-.21.32a2,2,0,0,0-.13.31,4.61,4.61,0,0,0-.25.58,2.74,2.74,0,0,0,.06,1.85,11.09,11.09,0,0,0,1,2,20.22,20.22,0,0,0,2,2.67c.82,1,1.75,2,2.82,3a45,45,0,0,1,3.43,3,34.16,34.16,0,0,1,4.68,5.41,19.31,19.31,0,0,1,2.4,4.87,15.83,15.83,0,0,1,.78,4,15.14,15.14,0,0,1-.62,5.48,15.41,15.41,0,0,1-2.85,5.29c-.31.38-.62.73-.84.95s-.5.53-.75.75a18.36,18.36,0,0,1-1.56,1.31,22.94,22.94,0,0,1-5.49,3c-1.47.58-2.64.89-3.31,1.15s-1.18.46-1.8.73c-1.21.54-2.48,1.07-3.75,1.71-2.55,1.23-5.14,2.66-7.71,4.13-1.29.73-2.53,1.56-3.81,2.3-.65.36-1.29.72-1.94,1.06l-1,.5c-.33.14-.69.31-1.07.5a73.89,73.89,0,0,1-9.47,3.67q-2.48.83-4.94,1.73a45.55,45.55,0,0,0-4.81,2,33.19,33.19,0,0,0-8.38,5.68,55,55,0,0,0-11.74,16.39,92.09,92.09,0,0,0-3.74,9.44l-1.56,4.71c-.51,1.55-.93,3.13-1.43,4.62s-1,3-1.42,4.46-.92,2.89-1.45,4.27c-.26.7-.43,1.43-.73,2.1a9.53,9.53,0,0,1-1.08,1.88,10.31,10.31,0,0,1-1.61,1.63c-.56.54-1.24,1-1.85,1.55a16.51,16.51,0,0,0-3.25,3.4c-.87,1.23-1.79,2.48-2.6,3.77a87.25,87.25,0,0,0-4.86,8.05,56,56,0,0,0-3.81,8.77,44.78,44.78,0,0,0-1.95,9.36,50.06,50.06,0,0,0,0,9.56c.09,1.61.37,3.17.57,4.77.13.8.32,1.57.47,2.36l.25,1.18c.09.34.16.69.26,1a18.94,18.94,0,0,0,1.51,3.8,8,8,0,0,0,2.08,2.53,3.21,3.21,0,0,0,1,.54,3.15,3.15,0,0,0,1.06.13,3.39,3.39,0,0,0,2.11-1.27,8.13,8.13,0,0,0,1.63-3.23,11.28,11.28,0,0,0,.3-1.92c0-.32,0-.63,0-1s0-.72-.08-1.09c-.25-3-1.38-6.21-2.08-9.91a24.07,24.07,0,0,1-.48-6,16,16,0,0,1,1.76-6.26,12.61,12.61,0,0,1,2.12-2.86,9.46,9.46,0,0,1,10.83-1.83,15.77,15.77,0,0,1,5.2,4.07,20.89,20.89,0,0,1,1.82,2.47c.52.82,1,1.65,1.45,2.49a98.9,98.9,0,0,1,4.48,10,57.2,57.2,0,0,0,4.29,8.8,18.65,18.65,0,0,0,5.48,5.9,7.41,7.41,0,0,0,2.74,1.08,7.26,7.26,0,0,0,2.67,0,7.65,7.65,0,0,0,4.56-2.63,9.59,9.59,0,0,0,1.76-5.27,15.73,15.73,0,0,0-.17-3.4l-.15-.87-.21-1c-.16-.63-.34-1.27-.54-1.91a55.19,55.19,0,0,0-3.37-8.06c-.69-1.41-1.44-2.85-2.23-4.33L320.87,414l-1.25-2.25a45.31,45.31,0,0,1-2.67-5.68,27,27,0,0,1-1.15-3.79,18.32,18.32,0,0,1-.38-2.6,14,14,0,0,1,.23-3.72,11.62,11.62,0,0,1,2.49-5.19,8.06,8.06,0,0,1,.87-.91c.24-.23.48-.44.73-.65a10.37,10.37,0,0,1,1.63-1.16,13.67,13.67,0,0,1,7.19-1.93,17.92,17.92,0,0,1,5.21.89,26.3,26.3,0,0,1,3.68,1.55,41.61,41.61,0,0,1,5.53,3.55c1.62,1.21,3.12,2.44,4.52,3.71s2.74,2.53,4,3.79,2.52,2.55,3.64,3.66l.73.73.2.21a4.37,4.37,0,0,0,.36.3c.51.43,1,.85,1.58,1.25s1.12.78,1.68,1.18,1.18.75,1.81,1.06a35.48,35.48,0,0,0,3.89,1.82,43.33,43.33,0,0,0,13.12,2.75,36.91,36.91,0,0,0,4.47-.06c1.5-.13,3-.38,4.6-.55s3.22-.31,4.88-.52a37.46,37.46,0,0,0,4.94-.88,11.24,11.24,0,0,0,4.19-2.13,9.65,9.65,0,0,0,2.69-3.63,8.1,8.1,0,0,0,.59-4.19,5.42,5.42,0,0,0-1.61-3.26,3.16,3.16,0,0,0-2.45-.86,21.05,21.05,0,0,0-3.18.44c-1.26.23-2.67.56-4.24.84l-1.21.22-1.29.18a22.17,22.17,0,0,1-3,.25,29.11,29.11,0,0,1-12.74-2.54,31.34,31.34,0,0,1-5.49-3.1,37.6,37.6,0,0,1-4.67-4,35.56,35.56,0,0,1-3.85-4.6c-.57-.82-1.1-1.61-1.64-2.48a19,19,0,0,1-1.6-3.1,12.29,12.29,0,0,1-.58-1.92,9.76,9.76,0,0,1-.23-2.15,8.52,8.52,0,0,1,1.22-4.4,6.93,6.93,0,0,1,1.74-1.9,10.43,10.43,0,0,1,1.06-.62c.35-.15.7-.27,1-.39a10,10,0,0,1,3.57-.24,26.13,26.13,0,0,1,5.65,1.33c1.73.59,3.41,1.26,5.06,2,3.28,1.48,6.24,3.32,9.45,4.37a15.9,15.9,0,0,0,4.8.87,20.12,20.12,0,0,0,4.77-.54,42.53,42.53,0,0,0,4.58-1.41l1.13-.42.55-.22.32-.18,1.66-1a30.28,30.28,0,0,1,5-2.48,16.11,16.11,0,0,1,3.76-.89,13,13,0,0,1,2.35,0,10.9,10.9,0,0,1,2.54.55,12.65,12.65,0,0,1,6.83,6,38,38,0,0,1,2.4,5.45,7.89,7.89,0,0,0,1.28,2.42c.1,0,0,0,.09,0l0,0s-.09,0-.12,0-.14,0-.18,0,.28-.11.38-.27a3.12,3.12,0,0,0,.55-1.68,7.13,7.13,0,0,0,0-1.45c-.1-.79-.17-1.59-.29-2.37-.21-1.58-.49-3.13-.83-4.66a43.88,43.88,0,0,0-2.8-8.73,27.05,27.05,0,0,0-4.56-7.25,18,18,0,0,0-3-2.73c-1.13-.82-2.5-1.65-4-2.6a45.89,45.89,0,0,1-4.93-3.5c-.43-.35-.86-.74-1.28-1.14s-.87-.88-1.28-1.36a18.69,18.69,0,0,1-2.17-3.13,16,16,0,0,1-1.56-3.92,12.12,12.12,0,0,1-.05-5.46,10.26,10.26,0,0,1,1.48-3.24,7.55,7.55,0,0,1,1.18-1.4,8.23,8.23,0,0,1,1.36-1.13c.46-.3.93-.58,1.42-.84a13.72,13.72,0,0,1,1.34-.52,12.21,12.21,0,0,1,2.48-.58,9.67,9.67,0,0,1,1.1-.12l1-.06,1.48-.06c.86,0,1.72-.08,2.59-.14,1.73-.09,3.46-.24,5.19-.39,6.92-.67,13.84-1.67,20.73-2.22,3.44-.26,6.88-.36,10.31-.34,3.71,0,7.11.29,10.21.43a48.39,48.39,0,0,0,8.27-.25,15,15,0,0,0,7.39-2.86l1.9-1.39,4.1-3.12a75.69,75.69,0,0,1,9.95-6.64,38.35,38.35,0,0,1,6.24-2.66,45.94,45.94,0,0,1,6-1.52c3.8-.72,7.13-1.12,10-1.73a48.85,48.85,0,0,0,8.55-2.6,26.35,26.35,0,0,0,7.05-4,9.83,9.83,0,0,0,3.58-5,2.94,2.94,0,0,0,.13-.73c0-.25.11-.51.12-.76s0-.49,0-.75-.05-.5-.06-.75a9.25,9.25,0,0,0-1-3.17,16,16,0,0,0-2.29-3.19,25.81,25.81,0,0,0-3.24-2.87,31.15,31.15,0,0,0-3.84-2.37,33.16,33.16,0,0,0-4.29-1.76c-6.06-2-12.94-2.84-19.9-4.1-.88-.16-1.73-.34-2.63-.52s-1.82-.44-2.73-.73a18,18,0,0,1-5.28-2.58,9.18,9.18,0,0,1-3.63-5.2,8.46,8.46,0,0,1,.93-6.15,11.4,11.4,0,0,1,4.06-4.21,16.1,16.1,0,0,1,5.23-1.9,35.87,35.87,0,0,1,5.3-.56c1.75-.08,3.5-.09,5.25-.05a100.07,100.07,0,0,1,10.4.83c3.45.43,6.85,1.09,10.26,1.71a36.15,36.15,0,0,1,9.92,3,26.14,26.14,0,0,0,4.77,2,6.68,6.68,0,0,0,2.55.24,3.22,3.22,0,0,0,2.2-1.21Zm.07.06a3.63,3.63,0,0,1-2.18,1.37,7.1,7.1,0,0,1-2.64-.11,27,27,0,0,1-5-1.77,36.33,36.33,0,0,0-9.88-2.39c-3.44-.43-6.81-1-10.21-1.27s-6.81-.52-10.22-.47c-1.7,0-3.4.09-5.1.22a33.15,33.15,0,0,0-4.95.68,14,14,0,0,0-4.42,1.74,8.78,8.78,0,0,0-3,3.32,5.79,5.79,0,0,0-.52,4.19,6.22,6.22,0,0,0,2.62,3.4,14.82,14.82,0,0,0,4.39,1.9,39.17,39.17,0,0,0,5,.9c6.78.92,13.79,1.29,20.63,3.12a35.49,35.49,0,0,1,5,1.71,37.61,37.61,0,0,1,4.71,2.46,31.62,31.62,0,0,1,4.24,3.23,22.62,22.62,0,0,1,3.48,4.08,14.9,14.9,0,0,1,2.4,10.34,16.31,16.31,0,0,1-5,9.3,32.24,32.24,0,0,1-8.68,5.89,58.06,58.06,0,0,1-9.77,3.66c-3.36.92-6.78,1.51-10.13,2.32a34.66,34.66,0,0,0-9.62,3.64,62.85,62.85,0,0,0-8.36,6.09c-2.68,2.19-5.24,4.53-8.12,6.48a26.7,26.7,0,0,1-9.65,3.72,54.35,54.35,0,0,1-10.35.74c-6.91-.18-13.83-.44-20.75-.67l-20.75-.7-5.18-.18c-1.73,0-3.46-.19-5.19-.07a6.23,6.23,0,0,0-1.27.26c-.2.07-.41.13-.61.21l-.56.32a3.6,3.6,0,0,0-1.48,2.06,6.18,6.18,0,0,0,0,2.57,10,10,0,0,0,.93,2.42c1.6,3.12,4.57,5.2,7.44,7.05,1.46.94,2.93,1.85,4.32,2.88a27,27,0,0,1,3.81,3.51,32.54,32.54,0,0,1,5.58,8.7,50,50,0,0,1,3.23,9.85c.38,1.68.69,3.39.93,5.1a23.53,23.53,0,0,1,.38,5.16,9.11,9.11,0,0,1-1.74,4.82,6.69,6.69,0,0,1-4.38,2.54,4.93,4.93,0,0,1-2.54-.35,6.12,6.12,0,0,1-2.16-1.39,13.06,13.06,0,0,1-2.54-4.49,40.83,40.83,0,0,0-2-4.79,7,7,0,0,0-3.68-3.49,5.66,5.66,0,0,0-2.55-.29,10.9,10.9,0,0,0-2.53.56c-1.64.55-3.2,1.31-4.79,2a19.18,19.18,0,0,1-2.45.85,24.47,24.47,0,0,1-2.56.45,35.75,35.75,0,0,1-5.17.36,25.77,25.77,0,0,1-10.1-2.06c-3.21-1.3-6.26-3-9.49-4.21a37.35,37.35,0,0,0-4.95-1.55,21.7,21.7,0,0,0-5.13-.69,8.21,8.21,0,0,0-2.55.42,3.47,3.47,0,0,0-1.92,1.65,5.45,5.45,0,0,0,.32,5,20.61,20.61,0,0,0,3.18,4.09,39.71,39.71,0,0,0,3.81,3.52,33.33,33.33,0,0,0,9,5.14,27.13,27.13,0,0,0,10.16,1.76c3.46-.1,6.9-.65,10.36-.37a13.11,13.11,0,0,1,5,1.28,7.88,7.88,0,0,1,3.51,3.68,11.15,11.15,0,0,1-.58,10,18,18,0,0,1-7.47,7,54.72,54.72,0,0,1-9.6,3.9,44.2,44.2,0,0,1-20.54,1.11,42.78,42.78,0,0,1-9.92-3c-.81-.33-1.57-.75-2.35-1.12s-1.53-.81-2.25-1.29l-1.1-.69-1.06-.75a18.45,18.45,0,0,1-2-1.64c-2.57-2.31-5.09-4.68-7.76-6.89a47.56,47.56,0,0,0-8.53-5.88,11.78,11.78,0,0,0-4.94-1.42,4.53,4.53,0,0,0-2.47.65,4.38,4.38,0,0,0-1,.82,2.62,2.62,0,0,0-.54,1.17,10.22,10.22,0,0,0,.91,5,42.74,42.74,0,0,0,2.2,4.7c.83,1.52,1.64,3,2.39,4.61s1.53,3.1,2.24,4.68a54.6,54.6,0,0,1,3.5,9.76,26.45,26.45,0,0,1,.62,10.29A16.43,16.43,0,0,1,332,446a14.57,14.57,0,0,1-9.28,4.14,13.51,13.51,0,0,1-9.6-3.2,25.09,25.09,0,0,1-6.12-8.3,76,76,0,0,1-3.66-9.7,68.28,68.28,0,0,0-3.74-9.67,23.46,23.46,0,0,0-2.77-4.38,11.86,11.86,0,0,0-4-3.22,6.29,6.29,0,0,0-5-.23A7.33,7.33,0,0,0,284.1,415a12.66,12.66,0,0,0-1.39,5,19.48,19.48,0,0,0,.44,5.16c.67,3.39,1.83,6.68,2.25,10.12a13.46,13.46,0,0,1-2.3,9.86,7.34,7.34,0,0,1-4.22,2.84,7.22,7.22,0,0,1-2.58,0,7,7,0,0,1-2.41-.91,11.81,11.81,0,0,1-3.67-3.61,22,22,0,0,1-2.37-4.6c-.32-.81-.56-1.64-.8-2.47l-.73-2.49c-.38-1.69-.84-3.36-1.11-5.07a71.38,71.38,0,0,1-1.17-10.3,85.6,85.6,0,0,1,.19-10.38,93.71,93.71,0,0,1,1.48-10.27,91.28,91.28,0,0,1,2.63-10,93.06,93.06,0,0,1,3.67-9.71c5.56-12.7,13.62-24.17,22.82-34.48a220.51,220.51,0,0,1,30.59-28,139.28,139.28,0,0,1,17.25-11.53,87.34,87.34,0,0,1,9.39-4.42c1.6-.65,3.24-1.22,4.89-1.73s3.36-.85,5-1.37a9,9,0,0,0,2.33-1.1,4.06,4.06,0,0,0,1.6-2,4.43,4.43,0,0,0,0-2.55,11.34,11.34,0,0,0-1-2.37c-1.71-3-4.23-5.47-6.29-8.24a31.3,31.3,0,0,1-4.82-9.14,13.75,13.75,0,0,1-.52-5.14,11,11,0,0,1,1.71-4.85c1.89-2.95,5-4.77,7.19-7.45a6.44,6.44,0,0,0,1.65-4.76,10.4,10.4,0,0,0-1.87-4.77c-1.9-2.88-4.71-5.14-6.1-8.37a7.71,7.71,0,0,1-.53-5.07,7.61,7.61,0,0,1,3.11-4A18.27,18.27,0,0,1,363,224.5a35.88,35.88,0,0,1,5-1.33c1.69-.37,3.43-.51,5.11-.9a10.15,10.15,0,0,0,4.59-2.28,8.38,8.38,0,0,0,2.44-4.47,19.42,19.42,0,0,0,.29-5.16c-.21-3.46-.9-6.86-1.3-10.3a29,29,0,0,1-.22-5.18,8.14,8.14,0,0,1,1.87-4.76,6,6,0,0,1,4.64-2,5.55,5.55,0,0,1,2.48.71,9.3,9.3,0,0,1,2,1.6c1.23,1.22,2.26,2.62,3.53,3.8a18.68,18.68,0,0,0,2.07,1.56c.71.49,1.43,1,2.16,1.43a82.74,82.74,0,0,0,9.07,5,52.7,52.7,0,0,0,9.74,3.52,38.42,38.42,0,0,0,5.1.93,35.84,35.84,0,0,0,5.18.08c6.9-.37,13.69-2.32,20.65-1.91a26.92,26.92,0,0,1,5.12.82,15,15,0,0,1,4.75,2.05,8.15,8.15,0,0,1,3.16,4,11.46,11.46,0,0,1,.42,5.14,51.05,51.05,0,0,1-2.73,10c-.56,1.63-1.11,3.27-1.53,4.95a12.33,12.33,0,0,0-.37,5.12,4.74,4.74,0,0,0,1.17,2.25,6.48,6.48,0,0,0,1,.81c.39.18.76.4,1.16.55a15.68,15.68,0,0,0,5.07.93,19.74,19.74,0,0,0,5.14-.52,23.58,23.58,0,0,0,4.9-1.66,18.92,18.92,0,0,0,7.93-6.45c1.95-2.86,3.44-6,5.42-8.85a15,15,0,0,1,3.59-3.73,13.33,13.33,0,0,1,4.73-2.1,30.78,30.78,0,0,1,5.14-.75,47.72,47.72,0,0,1,25.16,5,47.4,47.4,0,0,1,21.25,22,28.13,28.13,0,0,1,1.84,4.85A8,8,0,0,1,550,252a5.39,5.39,0,0,1-.89,2.44Z"/><path d="M448.66,357.17a14.43,14.43,0,0,0-2.53,3.53,13.73,13.73,0,0,0-1.24,4.11A14.51,14.51,0,0,0,445,369a14.7,14.7,0,0,0,1.41,3.84,14.26,14.26,0,0,0,2.42,3.1,16.56,16.56,0,0,0,1.46,1.24,11.19,11.19,0,0,0,1.55.91,6.37,6.37,0,0,0,3,.69,4.08,4.08,0,0,0,2.42-1,6.83,6.83,0,0,0,1.85-2.46,12,12,0,0,0,.74-3.45,31.3,31.3,0,0,0-.35-8.22c-.5-2.72-1.36-5.56-3.36-7.54a5.11,5.11,0,0,0-1.76-1.07,4.26,4.26,0,0,0-2.1-.08A7.75,7.75,0,0,0,448.66,357.17Zm0,0a8.89,8.89,0,0,1,3.65-2.37,5.07,5.07,0,0,1,2.23-.12,6.44,6.44,0,0,1,2.1.91,11.83,11.83,0,0,1,3.14,3.32,24.49,24.49,0,0,1,2.2,4,27.47,27.47,0,0,1,2.27,9,13.14,13.14,0,0,1-.57,5.15,10.41,10.41,0,0,1-3.17,4.58,9.46,9.46,0,0,1-2.59,1.49,8.42,8.42,0,0,1-3,.48,9.81,9.81,0,0,1-5.23-1.82,14.9,14.9,0,0,1-5.52-8,17.24,17.24,0,0,1-.6-4.64,17.58,17.58,0,0,1,.67-4.48,19.37,19.37,0,0,1,1.75-4.07A18.74,18.74,0,0,1,448.66,357.17Z"/><path d="M185.36,396.76c1.19-1,2.41-2,3.52-3.17a23.07,23.07,0,0,0,2.92-3.7,21.24,21.24,0,0,0,3.32-8.51c.49-3,.5-6.16.8-9.39a21.71,21.71,0,0,1,2.86-9.72,17.41,17.41,0,0,1,8.21-6.59,27.62,27.62,0,0,1,4.94-1.53,37.74,37.74,0,0,1,5-.8c3.36-.29,6.59-.26,9.68-.35a40.86,40.86,0,0,0,8.64-1c5.21-1.34,9.66-4.53,13.5-8.71a100.25,100.25,0,0,0,10.45-14.48c3.36-5.36,6.88-10.83,10.5-16.12S277.13,302.17,281,297a320,320,0,0,1,25-29.54l3.35-3.51c1.11-1.17,2.3-2.31,3.39-3.42,2.22-2.2,4.29-4.35,6.28-6.45a78.18,78.18,0,0,0,5.46-6.25,41.56,41.56,0,0,0,4.12-6,18.72,18.72,0,0,0,2-5.23,8.68,8.68,0,0,0-.29-4.31,12,12,0,0,0-2.82-4.59,37.44,37.44,0,0,0-5.91-5c-2.44-1.78-5.21-3.61-8.1-6l-1.09-.9c-.39-.33-.78-.67-1.13-1-.73-.67-1.38-1.33-2-2l-3.13-3.32a20.66,20.66,0,0,0-2.41-2.19,41.62,41.62,0,0,1-4.56-3.41c-2.81-2.42-5.09-4.86-7.15-6.85A25.77,25.77,0,0,0,286,192.4a14.09,14.09,0,0,0-1.62-.75c-.47-.22-1.32-.49-2-.74-1.49-.53-3-1-4.5-1.51l-9-2.94L264.27,185l-2.29-.74c-.84-.27-1.65-.55-2.44-.84-3.13-1.18-5.91-2.39-8.59-3.18a19.7,19.7,0,0,0-3.84-.81,15.52,15.52,0,0,0-1.79-.06,10.25,10.25,0,0,0-1.53.17,2.79,2.79,0,0,0-1.55.81.83.83,0,0,0-.21.48,2.54,2.54,0,0,0,0,1,6.13,6.13,0,0,0,1.39,2.61c.79,1,2,2.15,3.12,3.58,2,2.39,4.05,4.75,6,7.18a63.4,63.4,0,0,1,5.64,8.07c1.7,2.81,3.26,5.67,4.93,8.48a10.16,10.16,0,0,1,1.26,3,5.28,5.28,0,0,1-1.24,4.66,4.73,4.73,0,0,1-2.77,1.44,5.86,5.86,0,0,1-2.63-.25,8.49,8.49,0,0,1-1.84-.82c-.27-.16-.52-.32-.77-.5l-.6-.44a58.65,58.65,0,0,1-7.93-7.62,38.28,38.28,0,0,0-3.23-3.06,11.39,11.39,0,0,0-2.74-1.66,18.82,18.82,0,0,0-4.47-1.11c-.34-.06-.69-.05-1-.1a3.37,3.37,0,0,1-1-.4c-.71-.35-1.64-1-2.86-1.61a7.39,7.39,0,0,0-4-.76,9.35,9.35,0,0,0-2.46.88c-.48.22-1,.46-1.52.68l-1.24.46c-.75.29-1.62.6-2.6.91a13.22,13.22,0,0,1-3.21.52,15.79,15.79,0,0,1-6.18-1.13c-3.64-1.43-6.51-3.32-9.15-4.61a14.77,14.77,0,0,0-3.42-1.36,4.53,4.53,0,0,0-1.1-.13,2.52,2.52,0,0,0-.6.12c-.15,0-.34.17-.57.24s-.26.18-.44.29a4,4,0,0,0-1,1.21,4.42,4.42,0,0,0-.54,1.52,5.6,5.6,0,0,0,.79,2.74c.58,1.18,1.45,2.49,2.36,4a22.15,22.15,0,0,1,2.56,5.32c.15.54.23,1.13.34,1.68a10.26,10.26,0,0,1,0,1.75,9.5,9.5,0,0,1-.26,1.74q-.1.45-.24.87l-.37.84a9.85,9.85,0,0,1-.92,1.53,9.41,9.41,0,0,1-1.2,1.24,10.55,10.55,0,0,1-2.73,1.75,13.64,13.64,0,0,1-6,1.1c-.51,0-1-.1-1.54-.16s-1-.19-1.55-.36a10.19,10.19,0,0,1-1.53-.58l-.74-.37-.66-.38a18.34,18.34,0,0,1-4.53-3.91,30.44,30.44,0,0,1-3.19-4.7,50.22,50.22,0,0,1-2.3-4.83c-.68-1.58-1.21-3.05-1.79-4.41a26.9,26.9,0,0,0-3.38-6.35,8.68,8.68,0,0,0-1.6-1.58,5.36,5.36,0,0,0-1.27-.66,2.35,2.35,0,0,0-.62-.12c-.12,0-.24,0-.38,0s-.27,0-.42.06a3.86,3.86,0,0,0-1,.28,4,4,0,0,0-1,.49,9.58,9.58,0,0,0-2.32,2.52,45.61,45.61,0,0,1-3.27,4.38,16.54,16.54,0,0,1-4.92,3.82c-1.61.85-2.92,1.42-4,2.14-2.17,1.36-3.74,3.44-3.92,5.43a8.91,8.91,0,0,0,2.16,6.34,29.13,29.13,0,0,0,6.45,5.48,39.78,39.78,0,0,1,8,6.67,21.06,21.06,0,0,1,3,5,18,18,0,0,1,1.51,5.84,10.1,10.1,0,0,1,0,1.74c0,.31,0,.6-.09.92l-.21,1a9.88,9.88,0,0,1-.74,2,10.44,10.44,0,0,1-1.33,1.87,9.53,9.53,0,0,1-3.77,2.43,8.44,8.44,0,0,1-4.87.1,12.35,12.35,0,0,1-3.39-1.57c-.87-.56-1.57-1.09-2.16-1.5l-.41-.28-.35-.22-.74-.39c-.61-.33-1.24-.62-1.87-.9a32.24,32.24,0,0,0-7.92-2.32,29.69,29.69,0,0,0-8-.24,14.54,14.54,0,0,0-6.31,2.18,8.78,8.78,0,0,0-2,1.85,7.45,7.45,0,0,0-1.14,2.2,4.63,4.63,0,0,0-.2,2A3.42,3.42,0,0,0,118,259a8.79,8.79,0,0,0,3.86,3,23.05,23.05,0,0,0,3.28,1.06c1.26.34,2.77.61,4.73,1.14a21.59,21.59,0,0,1,6.86,3,19.25,19.25,0,0,1,5.52,6,25,25,0,0,1,3.24,11.59c.19,3.31-.12,5.95,0,8.32,0,.28,0,.63,0,.87l.07.8a5.72,5.72,0,0,0,.14.81,3.41,3.41,0,0,0,.24.81,8.94,8.94,0,0,0,2,3.23,18.58,18.58,0,0,0,3.48,2.79c.65.43,1.34.85,2,1.23s1.42.8,2.15,1.22l2.19,1.27c.72.49,1.46.94,2.15,1.51a23.6,23.6,0,0,1,2.06,1.73c.31.31.6.62.9.93s.61.61.89.94a40.57,40.57,0,0,1,6,8.65A39.25,39.25,0,0,1,172,325a31.39,31.39,0,0,1,1.31,5.53,28.28,28.28,0,0,1,.27,5.91,20,20,0,0,1-.42,3.2,14.74,14.74,0,0,1-1.44,3.89,12.28,12.28,0,0,1-1.44,2.1,13.15,13.15,0,0,1-2,1.85,14.46,14.46,0,0,1-4.29,2.28,25.38,25.38,0,0,1-6.79,1.22A52,52,0,0,1,147,350.7a40.79,40.79,0,0,1-4.78-.91c-1.55-.34-3.07-.81-4.55-1.22s-3-.87-4.42-1.26a33.87,33.87,0,0,1-6-1.81,20.68,20.68,0,0,1-3.13-1.61,14.23,14.23,0,0,1-3-2.47,12.34,12.34,0,0,1-1.26-1.62l-.27-.43-.2-.39-.4-.78a15.51,15.51,0,0,1-1.18-3.33,16.5,16.5,0,0,1,0-6.61,29.13,29.13,0,0,1,1.63-5.26l1.81-4.34a22.58,22.58,0,0,0,1.23-3.87,10.83,10.83,0,0,0-1.07-7.34,7.13,7.13,0,0,0-2.33-2.71,6.16,6.16,0,0,0-3.33-1,22.08,22.08,0,0,0-4.32.56c-.78.14-1.58.3-2.42.42-.41.07-.85.1-1.27.16l-1.2.14c-3.16.4-6.32.59-9.43,1.06A88.36,88.36,0,0,0,88,307.69c-1.49.37-3,.75-4.4,1.2-.74.22-1.37.46-2.18.74a18.7,18.7,0,0,1-2.78.75,10.72,10.72,0,0,1-3.5.12,7.62,7.62,0,0,1-4.3-2.15,8.13,8.13,0,0,1-1.45-2,12,12,0,0,1-.79-1.87,18.78,18.78,0,0,1-.7-3.15c-.27-1.9-.39-3.51-.62-4.93a10.07,10.07,0,0,0-.94-3.26,5.32,5.32,0,0,0-1.54-1.86,1.42,1.42,0,0,0-1.28-.34,1,1,0,0,1-.43.61c-.32.25-.83.65-1.38,1.14-1.1.95-2.15,2.74-2.06,3.47,0,.06,0,.15.07.14l.08,0s0-.08,0,0a3.19,3.19,0,0,1-.22.86,24.88,24.88,0,0,0-.94,2.92c-.29,1.24-.6,2.74-.82,4.37a41.37,41.37,0,0,0-.32,5.2c0,1.8.11,3.63.14,5.57a21.32,21.32,0,0,1-.12,3,27.32,27.32,0,0,1-.41,2.79,10.79,10.79,0,0,0-.27,3.71,5.88,5.88,0,0,0,1.12,2.36,9.52,9.52,0,0,0,2.23,2,11.14,11.14,0,0,0,1.35.76c.23.12.47.2.7.3l.89.37c1.21.45,2.35.9,3.72,1.34a38.36,38.36,0,0,1,4.81,1.87,19,19,0,0,1,5.88,4.3,19.42,19.42,0,0,1,3.74,6.08,35.7,35.7,0,0,1,1.61,5.69c.37,1.73.61,3.28.91,4.69a18.28,18.28,0,0,0,2.08,6.16,4.69,4.69,0,0,0,1.52,1.48c.79.51,2.45,1.05,4.58,2.28a13.71,13.71,0,0,1,3.13,2.51,14.55,14.55,0,0,1,2.19,3.1,22.6,22.6,0,0,1,2,5.77c.39,1.72.62,3.29.93,4.59a31.26,31.26,0,0,0,1.15,4,32.28,32.28,0,0,0,3.77,7.43,28.38,28.38,0,0,0,5.66,6.12,31.2,31.2,0,0,0,7.44,4.32c2.75,1.18,5.69,2.15,8.7,3.14l9,2.95,9,3c3.06,1.08,5.89,2.39,8.88,3.14a13.31,13.31,0,0,0,4.52.44c.75-.11,1.52-.23,2.27-.41a19.1,19.1,0,0,0,2.21-.74,37.63,37.63,0,0,0,8.17-4.6c5.13-3.67,9.66-8.1,14.38-12.29Zm.06.07C181,401.31,176.66,406,171.66,410a39.4,39.4,0,0,1-8.21,5.2,17.21,17.21,0,0,1-4.81,1.46,16.49,16.49,0,0,1-5.13-.26c-3.26-.64-6.24-1.85-9.19-2.72l-9.12-2.5-9.14-2.5c-3-.83-6.12-1.67-9.14-2.77a36.06,36.06,0,0,1-8.61-4.39,33.81,33.81,0,0,1-7-6.7,38.09,38.09,0,0,1-4.85-8.32,55.54,55.54,0,0,1-2.78-9.12,18.17,18.17,0,0,0-1.65-4.29A7.91,7.91,0,0,0,89,369.94c-1.32-.74-2.84-1.18-4.31-1.87a11.58,11.58,0,0,1-3.89-2.94c-2.15-2.51-3.17-5.65-4-8.68a59.08,59.08,0,0,0-2.74-9,15,15,0,0,0-2.48-3.93,13.6,13.6,0,0,0-3.68-2.83c-2.76-1.47-5.75-2.62-8.41-4.37A16.63,16.63,0,0,1,53,329.42a11.33,11.33,0,0,1-1.08-4.61,21.14,21.14,0,0,1,.67-4.69,19,19,0,0,0,.47-4.69,27.5,27.5,0,0,0-.61-4.69c-.63-3.09-1.6-6.11-2.12-9.23a23.34,23.34,0,0,1-.33-4.72,11.72,11.72,0,0,1,1-4.59,15,15,0,0,1,2.72-3.85,15.85,15.85,0,0,1,3.71-2.91,13,13,0,0,1,4.43-1.61,8.17,8.17,0,0,1,4.63.58,10.89,10.89,0,0,1,5.54,7.31c.77,3.09.33,6.29.47,9.44a12.37,12.37,0,0,0,.28,2.35,4.67,4.67,0,0,0,1,2.11,3.69,3.69,0,0,0,2,1.12,8,8,0,0,0,2.35.07,43.48,43.48,0,0,0,4.64-1c1.53-.36,3.09-.63,4.65-.88,3.12-.49,6.26-.82,9.41-1.1s6.29-.51,9.43-.83a36.7,36.7,0,0,0,4.68-.71,26.49,26.49,0,0,1,4.69-.66,8.37,8.37,0,0,1,4.54,1.09,10.1,10.1,0,0,1,3.33,3.3,14.41,14.41,0,0,1,2.21,9c-.27,3.16-1.46,6.13-2.38,9.15s-1.67,6.21-.83,9.3a10.64,10.64,0,0,0,.92,2.17,7.7,7.7,0,0,0,1.38,1.91,9.8,9.8,0,0,0,4.09,2.31,19.27,19.27,0,0,0,4.65.79c1.58.11,3.15.25,4.72.4,6.29.62,12.56,1.51,18.88,1.53a18.07,18.07,0,0,0,4.7-.45,6.36,6.36,0,0,0,3.8-2.64,12,12,0,0,0,1.6-4.43,23.9,23.9,0,0,0,.51-4.7,28.22,28.22,0,0,0-6.06-17.57,21.09,21.09,0,0,0-7.24-6c-2.77-1.52-5.74-2.66-8.41-4.36a15.26,15.26,0,0,1-6.18-7,43.53,43.53,0,0,1-2.46-9.13,31.77,31.77,0,0,0-2.86-9,11.78,11.78,0,0,0-3-3.61,13.65,13.65,0,0,0-4.21-2.11c-1.5-.49-3-.86-4.55-1.34a28.15,28.15,0,0,1-4.4-1.74,15.18,15.18,0,0,1-6.73-6.44,10.93,10.93,0,0,1-.24-9.17,14,14,0,0,1,6.2-6.93,20.74,20.74,0,0,1,9-2.52,35.41,35.41,0,0,1,9.41.83,38.51,38.51,0,0,1,8.91,3.13,24.1,24.1,0,0,1,4.06,2.43,13.43,13.43,0,0,0,4,2.49,3.94,3.94,0,0,0,2.33,0,5.09,5.09,0,0,0,2-1.23,5.8,5.8,0,0,0,1.37-4.39,14.59,14.59,0,0,0-1-4.6,16.84,16.84,0,0,0-2.3-4.12c-4.06-4.91-10.28-7.4-14.2-12.45a10.83,10.83,0,0,1,2.36-16.53c1.26-1,2.65-1.73,4-2.6a12.68,12.68,0,0,0,3.46-3.19c1.85-2.56,2.74-5.72,4.85-8.11a10.1,10.1,0,0,1,8.42-3.52,9.71,9.71,0,0,1,4.39,1.64,13.51,13.51,0,0,1,3.32,3.34,26.93,26.93,0,0,1,3.59,8.71,79.55,79.55,0,0,0,2.56,9.12,16.39,16.39,0,0,0,5.38,7.63,9.29,9.29,0,0,0,9,.87,6.32,6.32,0,0,0,3.36-3.17,6.2,6.2,0,0,0,0-4.62,14.63,14.63,0,0,0-2.51-4c-1-1.22-2.08-2.39-3-3.64a12.25,12.25,0,0,1-2.22-4.15,8.16,8.16,0,0,1,.16-4.67,8.86,8.86,0,0,1,2.55-3.92,7.86,7.86,0,0,1,4.26-1.9,8.84,8.84,0,0,1,4.61.82,23.23,23.23,0,0,1,4,2.45c2.56,1.83,5,3.95,7.82,5.31a9.93,9.93,0,0,0,4.56,1.07,11.48,11.48,0,0,0,4.54-1.24,12,12,0,0,0,2.11-1.07c.66-.43,1.27-.94,1.91-1.4a17.57,17.57,0,0,1,4.18-2.2,16.45,16.45,0,0,1,9.32-.6,17,17,0,0,1,8.21,4.48c4.52,4.53,6,11.19,10.54,15.66a5.61,5.61,0,0,0,1.91,1.36,2,2,0,0,0,2.21-.29,2.55,2.55,0,0,0,.61-2.2,7,7,0,0,0-.85-2.19,74,74,0,0,0-5-8.07,80.73,80.73,0,0,0-5.9-7.4l-6.29-7.09c-1-1.21-2.17-2.29-3.19-3.5a10.15,10.15,0,0,1-2.29-4.1,5.76,5.76,0,0,1,.58-4.57,6.56,6.56,0,0,1,3.82-2.62,19.09,19.09,0,0,1,9.37.45c3.06.8,6,2,9,3,1.49.52,3,.94,4.53,1.37l4.56,1.28,9.12,2.58,4.56,1.28a32.85,32.85,0,0,1,4.49,1.5,30.61,30.61,0,0,1,7.88,5.2c2.4,2.05,4.66,4.26,7.19,6.16a34.5,34.5,0,0,0,3.95,2.6,23.82,23.82,0,0,1,3.82,2.79,84.38,84.38,0,0,0,7.16,6.2c2.56,1.85,5.29,3.43,8,5.1a51.07,51.07,0,0,1,7.66,5.56,24.59,24.59,0,0,1,3.19,3.5,21.71,21.71,0,0,1,2.38,4.09A18.66,18.66,0,0,1,341,237.5a25.89,25.89,0,0,1-2.69,9c-2.81,5.68-6.92,10.59-11.24,15.17s-9,8.84-13.46,13.34q-13.39,13.4-25.66,27.87c-8.18,9.62-15.94,19.6-23.33,29.84a99.9,99.9,0,0,1-12.17,14.5,39.46,39.46,0,0,1-7.59,5.64,28.77,28.77,0,0,1-8.89,3.19c-6.29,1.05-12.63,0-18.93.12a29.88,29.88,0,0,0-9.27,1.63,15.35,15.35,0,0,0-7.51,5.48,20,20,0,0,0-3,8.86c-.44,3.13-.6,6.29-1.25,9.39a19.79,19.79,0,0,1-1.45,4.51,20.29,20.29,0,0,1-2.51,4,70.61,70.61,0,0,1-6.59,6.81Z"/><path d="M185.13,161.54c-3.28,0-6.7.31-9.61,1.78a6.6,6.6,0,0,0-3.22,3.16,2.48,2.48,0,0,0-.15,1.83,2.18,2.18,0,0,0,1.1,1.18,18,18,0,0,0,4.38,1l4.86.83c3.21.55,6.37,1.07,9.5,1.39,1.81.19,3.42.54,5,.8a26.26,26.26,0,0,0,4.38.45,5.52,5.52,0,0,0,1.52-.23,1.15,1.15,0,0,0,.35-.18,1.18,1.18,0,0,0,.22-.3,1.9,1.9,0,0,0-.31-1.37,18.16,18.16,0,0,0-8.45-8.08A22,22,0,0,0,185.13,161.54Zm0,0a31.36,31.36,0,0,1,9.8,1.62,25.9,25.9,0,0,1,4.66,2,20.45,20.45,0,0,1,4.23,3.07,22.68,22.68,0,0,1,1.82,2,7,7,0,0,1,.85,1.32,4.38,4.38,0,0,1,.44,1.92,4.44,4.44,0,0,1-.54,2A4.79,4.79,0,0,1,205,177a7.52,7.52,0,0,1-3.18,1.23,21.58,21.58,0,0,1-5.5,0c-1.74-.16-3.37-.48-4.85-.61a51,51,0,0,1-10-2.18c-1.61-.51-3.18-1.09-4.75-1.65-.79-.29-1.52-.57-2.37-.91a9.44,9.44,0,0,1-2.54-1.43,4.34,4.34,0,0,1-1.61-2.82,4.43,4.43,0,0,1,.79-2.94,8,8,0,0,1,4.26-3.06A30.47,30.47,0,0,1,185.13,161.54Z"/><path d="M135.46,168c2.23-1,4.58-1.66,6.75-2.78a11.64,11.64,0,0,0,3-2.09,8.41,8.41,0,0,0,1.89-3.05,5.92,5.92,0,0,0,.2-3.53,4.42,4.42,0,0,0-2.14-2.67c-2.09-1.15-4.62-1.08-7-1.29-4.85-.28-9.72-.17-14.62-.42a50.2,50.2,0,0,1-14.67-2.47,29.87,29.87,0,0,1-6.83-3.41c-2.1-1.42-4-3-5.93-4.23a31.6,31.6,0,0,0-12.83-4.69,53.44,53.44,0,0,0-14-.12,14.32,14.32,0,0,0-5.95,1.64,4.67,4.67,0,0,0-2.43,3.76,3,3,0,0,0,.73,1.85,7.86,7.86,0,0,0,2.13,1.75,25.51,25.51,0,0,0,3,1.47l3.35,1.42c4.47,1.9,8.91,3.82,13.42,5.52,2.25.85,4.51,1.68,6.79,2.47l3.41,1.21a25.76,25.76,0,0,0,3.27,1c2.08.43,4.67.24,7.4,1.08a8.48,8.48,0,0,1,3.7,2.31,6.27,6.27,0,0,1,1.22,2,6.1,6.1,0,0,1,.36,2.29,8.89,8.89,0,0,1-1.24,4c-.61,1.14-1.32,2.17-2,3.17-1.3,2-2.41,4-2.26,6.27a6.66,6.66,0,0,0,3.48,5.36,9.45,9.45,0,0,0,6.73,1.15,10.32,10.32,0,0,0,5.84-3.81c1.49-1.89,2.61-4.08,4-6.1A26.74,26.74,0,0,1,135.46,168Zm0,0a25.78,25.78,0,0,0-11.12,9.16c-1.35,2-2.33,4.27-3.79,6.26a10.89,10.89,0,0,1-6,4.23,10.64,10.64,0,0,1-7.42-.89,8.77,8.77,0,0,1-3-2.47,7.4,7.4,0,0,1-1.46-3.7,9.09,9.09,0,0,1,.44-4,20.46,20.46,0,0,1,1.6-3.48c.6-1.08,1.2-2.11,1.67-3.15a6.4,6.4,0,0,0,.74-3,3.24,3.24,0,0,0-1.06-2.34,5.55,5.55,0,0,0-2.55-1.31c-2-.52-4.37-.18-7.1-.52a26.12,26.12,0,0,1-3.76-.94l-3.54-1c-2.37-.67-4.75-1.36-7.07-2.17-4.67-1.58-9.27-3.3-13.81-5.11l-3.4-1.37a26.37,26.37,0,0,1-3.61-1.74,12.58,12.58,0,0,1-3.47-2.88,8,8,0,0,1-1.85-4.84,8.46,8.46,0,0,1,1.46-4.86,10.47,10.47,0,0,1,3.42-3.27,18.8,18.8,0,0,1,8-2.19A56.1,56.1,0,0,1,84,133.1a34.87,34.87,0,0,1,14.09,6.07c2.05,1.54,3.82,3.22,5.67,4.65a27.51,27.51,0,0,0,6,3.53,35.16,35.16,0,0,0,6.75,2.15,62.64,62.64,0,0,0,7.13,1.14c4.81.51,9.69.75,14.56,1.22,1.21.13,2.42.23,3.65.43a10,10,0,0,1,3.53,1.19,4.79,4.79,0,0,1,2.19,3,6.35,6.35,0,0,1-.31,3.66,8.49,8.49,0,0,1-2,3.07,12.71,12.71,0,0,1-3,2.06C140.05,166.33,137.69,167,135.46,168Z"/><path d="M374.78,448.52a29,29,0,0,0-12.71,1.62,35.33,35.33,0,0,0-10.9,6.39c-1.6,1.38-1.54,2.43-.61,3.59a3.61,3.61,0,0,0,.81.7,4.6,4.6,0,0,0,1.05.46,17.39,17.39,0,0,0,2.76.68c3.86.58,8,.29,12.35.14,1.09,0,2.18-.06,3.3-.06.56,0,1.13,0,1.7,0l1.62.08,1.64.09.92.09.86.12c1.12.15,2.18.36,3.22.54a29,29,0,0,0,6,.63c1.91,0,3.56-.51,4.42-1.9a5.62,5.62,0,0,0,.1-5.3,9.64,9.64,0,0,0-4.2-4.33,24.67,24.67,0,0,0-6-2.27c-1-.27-2.09-.53-3.14-.77Zm0,0,3.2.49,3.17.64a31.85,31.85,0,0,1,6.27,1.83,14.45,14.45,0,0,1,2.89,1.67,9.83,9.83,0,0,1,2.33,2.56,8.78,8.78,0,0,1,1.28,3.35,6.94,6.94,0,0,1-.46,3.79,6.3,6.3,0,0,1-2.68,3,10.2,10.2,0,0,1-3.59,1.25,29.89,29.89,0,0,1-6.91.18l-3.21-.25-.75-.05h-3.91l-1.54,0c-1,0-2.1.06-3.17.1-4.29.12-8.83.25-13.46-.94a17.57,17.57,0,0,1-3.39-1.31,7.19,7.19,0,0,1-3.17-2.77,5.42,5.42,0,0,1-.66-4.43,4.94,4.94,0,0,1,1.17-1.92,8.27,8.27,0,0,1,1.49-1.19,42.31,42.31,0,0,1,12.2-5.05A37.69,37.69,0,0,1,374.78,448.52Z"/></svg>