<svg id="Layer_1" data-name="Layer 1" xmlns="http://www.w3.org/2000/svg" viewBox="0 0 600 600"><title>fiji</title><path d="M122.73,155.39a8.23,8.23,0,0,0-3.34,3.35,16.16,16.16,0,0,0-1.74,4.39c-.79,3.07-.77,6.3-1.33,9.58a18.66,18.66,0,0,1-1.46,4.93A18.32,18.32,0,0,1,112,182a30.52,30.52,0,0,1-3.77,3.53c-1.34,1-2.71,2-4.06,2.92-2.73,1.8-5.41,3.47-7.73,5.31a22.7,22.7,0,0,0-5.63,6.51c-3,5.08-4.64,11.23-7,17.44a69.62,69.62,0,0,1-4.32,9.41c-.49.75-1,1.53-1.49,2.24a22,22,0,0,1-1.69,2c-1.17,1.22-2.36,2.29-3.48,3.35-2.22,2.11-4.35,4.05-5.26,6.66a5.49,5.49,0,0,0-.29,1,5.11,5.11,0,0,0-.16,1.05c0,.75-.06,1.56-.07,2.41a10.75,10.75,0,0,1-.29,2.65,6.43,6.43,0,0,1-.51,1.32,4.58,4.58,0,0,1-.85,1.14,17.42,17.42,0,0,1-4.35,2.54,4.48,4.48,0,0,0-2.62,3.19,18.2,18.2,0,0,0,0,4.62,41.33,41.33,0,0,0,.53,4.68,21.13,21.13,0,0,0,1.23,4.24,16.63,16.63,0,0,0,1,1.83,9.37,9.37,0,0,0,1.2,1.48c1.85,1.72,4.33,3.1,6.56,2.57a4.32,4.32,0,0,0,2.69-2.19A10.23,10.23,0,0,0,72.68,270a14.37,14.37,0,0,0,.06-2.18c0-.72-.11-1.46-.2-2.25-.19-1.56-.44-3.19-.55-4.92a18,18,0,0,1,.39-5.5A13.7,13.7,0,0,1,75,250a48,48,0,0,1,3.38-3.77c1.2-1.08,2.54-2,3.72-3.13s2.42-2.14,3.56-3.27a44.22,44.22,0,0,0,3.25-3.59c2-2.52,3.78-5.31,6-7.63,1.85-2.7,6-3.13,7.9-5.82,2.26-2.29,4.5-4.62,6.63-7a84.34,84.34,0,0,0,6-7.36c.91-1.26,1.74-2.57,2.52-3.89a34.89,34.89,0,0,0,2.06-4c1.2-2.79,2-5.77,3.06-8.78s1.89-6.13,3-9.23a47.8,47.8,0,0,1,4.22-9,39.32,39.32,0,0,1,2.9-4,11.09,11.09,0,0,0,2.24-3.92,5.69,5.69,0,0,0-.82-4.28,13.45,13.45,0,0,0-3.09-3.56,12.89,12.89,0,0,0-4.16-2.35,6.49,6.49,0,0,0-4.71.05Zm0,0a6.5,6.5,0,0,1,4.79-.32,12.75,12.75,0,0,1,4.37,2.23,13.72,13.72,0,0,1,3.35,3.61c.22.34.4.73.6,1.09s.29.78.43,1.17a10.66,10.66,0,0,1,.2,1.26,7.67,7.67,0,0,1-.09,1.27,11.81,11.81,0,0,1-2.17,4.39,37.66,37.66,0,0,0-2.62,4,47,47,0,0,0-3.65,8.9c-1.88,6.15-3.09,12.56-5.81,18.42S115,212.18,110.53,216.8L83.6,244.56,80.23,248c-1.11,1.16-2.27,2.29-3.29,3.54a11.55,11.55,0,0,0-2.28,4.22,15.78,15.78,0,0,0-.48,4.79c.08,3.22.77,6.43.34,9.65a12,12,0,0,1-1.44,4.58,6.75,6.75,0,0,1-3.63,3,7.08,7.08,0,0,1-4.74-.17,10.3,10.3,0,0,1-4-2.66,11.34,11.34,0,0,1-2.4-4.16,20.43,20.43,0,0,1-.93-4.73,45.75,45.75,0,0,1-.11-4.83,21.39,21.39,0,0,1,.42-4.8,5,5,0,0,1,1.12-2.12,6.79,6.79,0,0,1,1.94-1.42c1.41-.76,3-1.27,4.12-2.47a4.12,4.12,0,0,0,1-2.14,8.84,8.84,0,0,0,.06-2.41c-.06-.8-.17-1.6-.22-2.4a8.14,8.14,0,0,1,0-1.21,6.88,6.88,0,0,1,.12-1.2c.53-3.22,2.51-6,4.56-8.39a78.18,78.18,0,0,0,6.1-7.49,47.76,47.76,0,0,0,4.3-8.65c2.37-6,4.09-12.27,7.5-17.78a25.54,25.54,0,0,1,6.45-7.13,82.61,82.61,0,0,1,8.18-5.15,37.57,37.57,0,0,0,7.81-5.65,16.76,16.76,0,0,0,2.87-3.87,17.6,17.6,0,0,0,1.64-4.52c.75-3.14,1-6.38,1.89-9.48a16.77,16.77,0,0,1,2-4.39,10,10,0,0,1,3.51-3.26Z"/><path d="M107.05,303.16a13.46,13.46,0,0,0-1.8,9c.5,3.06,2.84,5.25,4.49,8.16a12.82,12.82,0,0,1,1.05,2.35,10.06,10.06,0,0,1,.44,2.63,12.24,12.24,0,0,1-1.11,5.18,20.67,20.67,0,0,1-6.64,7.84c-2.66,2-5.4,3.67-7.65,5.54a18.05,18.05,0,0,0-2.92,2.95,16.18,16.18,0,0,0-2,3.43,15.66,15.66,0,0,0-1.23,7.57,15.25,15.25,0,0,0,2.58,6.91,27.39,27.39,0,0,0,2.43,3.08,34.54,34.54,0,0,0,2.94,2.73,26.37,26.37,0,0,0,3.27,2.3c.57.35,1.14.66,1.71,1l.87.43,1,.42c5.11,2.23,10.93,3.38,17.08,4.39s12.77,1.92,19.39,4a189.4,189.4,0,0,1,18.36,7.07,150.43,150.43,0,0,0,16.9,6.34l2.06.45a16.35,16.35,0,0,0,2.05.37,21.39,21.39,0,0,0,4.06.24c.67,0,1.33,0,2-.06s1.31-.22,2-.32,1.29-.17,1.92-.35l1.87-.59a21.29,21.29,0,0,0,3.61-1.49,29.9,29.9,0,0,0,3.42-1.94c1.09-.63,2.28-1.45,3.44-2.27.58-.41,1.16-.83,1.74-1.27l1.77-1.28c1.17-.86,2.35-1.77,3.58-2.63s2.44-1.82,3.75-2.67,2.59-1.78,3.94-2.66,2.76-1.75,4.25-2.52a56.18,56.18,0,0,1,9.57-4.17A76.6,76.6,0,0,1,242,370.5a55.45,55.45,0,0,1,11.3-.92,47.35,47.35,0,0,1,11.21,1.71,53.92,53.92,0,0,1,5.21,1.76c1.63.66,3.19,1.28,4.67,1.93a64,64,0,0,0,8.6,3.12,15.5,15.5,0,0,0,7.83.34,11,11,0,0,0,5.63-3.86,13.7,13.7,0,0,0,1.06-1.45,15.37,15.37,0,0,0,.87-1.41,14.22,14.22,0,0,0,1.07-2.83,13.22,13.22,0,0,0-.07-6.43,34,34,0,0,0-2.85-7.46c-1.28-2.55-2.82-5.1-4.45-7.7s-3.3-5.27-5-8.17a56.86,56.86,0,0,1-4.6-9.5,43.5,43.5,0,0,1-1.61-5.34c-.21-.92-.38-1.86-.53-2.81-.06-.49-.13-1-.17-1.49s-.05-1,0-1.46a21.12,21.12,0,0,1,1-5.29,19.6,19.6,0,0,0,.86-4.59,20.25,20.25,0,0,0,0-4.11,15.9,15.9,0,0,0-.92-4,17.94,17.94,0,0,0-4.48-6.85,19,19,0,0,0-1.55-1.3c-.53-.42-1.13-.68-1.67-1s-1.16-.54-1.72-.82-1.21-.43-1.8-.64c-2.48-.7-5.12-1.16-8-1.76a30.09,30.09,0,0,1-4.52-1.12,23.69,23.69,0,0,1-4.58-2.49c-1.51-1-3-2-4.5-2.92-.76-.43-1.54-.8-2.31-1.21a22.2,22.2,0,0,1-2.31-1.23,32.81,32.81,0,0,1-8-6.67c-.3-.35-.58-.7-.86-1.09a13.65,13.65,0,0,1-.81-1.28,15.92,15.92,0,0,1-1.14-2.61c-.58-1.72-1-3.33-1.42-4.83a20.8,20.8,0,0,0-1.39-3.93,16.77,16.77,0,0,0-2.21-3.29,10.55,10.55,0,0,0-6-3.72,12,12,0,0,0-6.92,1.1,22.47,22.47,0,0,0-3.49,1.9c-.57.37-1.13.77-1.68,1.18s-1.14.88-1.71,1.35c-2.31,1.84-4.6,4.07-7.35,6.12a42.86,42.86,0,0,1-4.44,3c-.8.45-1.65.81-2.47,1.21s-1.69.69-2.53,1a49.27,49.27,0,0,1-10.2,2.19c-3.35.39-6.61.51-9.8.59s-6.31.13-9.35.4a76.84,76.84,0,0,0-9.13,1.29A86.27,86.27,0,0,0,135,278.63a66,66,0,0,0-16,9.87A49.06,49.06,0,0,0,107,303.14Zm0,0c.73-1.41,1.39-2.87,2.2-4.24l1.26-2c.22-.34.42-.69.64-1l.72-1,1.45-1.93c.49-.63,1.07-1.19,1.6-1.79s1.08-1.19,1.65-1.76l1.77-1.62A72.8,72.8,0,0,1,134.12,277,89.19,89.19,0,0,1,152,270.34a80.89,80.89,0,0,1,9.38-1.82c3.15-.44,6.33-.64,9.49-.89,6.31-.46,12.71-1.06,18.66-3.31a32.68,32.68,0,0,0,8.25-4.67c2.54-1.91,4.9-4,7.42-6a31,31,0,0,1,8.18-4.8,15.5,15.5,0,0,1,9.34-.78,14.44,14.44,0,0,1,7.69,5.32,20.28,20.28,0,0,1,2.45,4.07,24.05,24.05,0,0,1,1.39,4.54c.36,1.55.68,3.11,1.19,4.61a11.91,11.91,0,0,0,2.26,4.15,28.15,28.15,0,0,0,7.28,6.07,34.16,34.16,0,0,0,8.83,3.49c3.07.8,6.21,1.32,9.3,2a39.83,39.83,0,0,1,9,2.94,23.33,23.33,0,0,1,7.44,5.83,26.77,26.77,0,0,1,6.51,17.47c0,3.17-.25,6.35,0,9.52a31.34,31.34,0,0,0,2.2,9.23c2.3,5.94,6,11.18,9.28,16.59a95.21,95.21,0,0,1,4.63,8.32,40.12,40.12,0,0,1,3.19,8.95,19,19,0,0,1-.22,9.42,16.7,16.7,0,0,1-2,4.29,21.25,21.25,0,0,1-3.13,3.57,17,17,0,0,1-8.37,4.27,26,26,0,0,1-9.47-.23C276,381.39,270,379,263.67,378.19a44.47,44.47,0,0,0-9.51-.09,51,51,0,0,0-9.32,1.87,80.48,80.48,0,0,0-17.26,7.93c-5.5,3.17-10.86,6.59-16.47,9.57a68.84,68.84,0,0,1-8.63,4A36.17,36.17,0,0,1,198,403a32.14,32.14,0,0,1-4.65,1,44.85,44.85,0,0,1-18.86-1.22A130.41,130.41,0,0,1,156.69,396,184.25,184.25,0,0,0,139,388.86c-6-2-12.34-3-18.57-4.16s-12.5-2.51-18.28-5.18a30.94,30.94,0,0,1-7.94-5.2,31.46,31.46,0,0,1-3.3-3.43A27,27,0,0,1,88.27,367,18.52,18.52,0,0,1,88,348.71a18.81,18.81,0,0,1,2.72-3.9,22.2,22.2,0,0,1,3.58-3.13c2.6-1.84,5.44-3.29,8.07-5.05a18.94,18.94,0,0,0,6.52-6.79,10.3,10.3,0,0,0,1.23-4.54,9.52,9.52,0,0,0-1.15-4.55c-.72-1.42-1.63-2.73-2.45-4.08a11.46,11.46,0,0,1-1.69-4.43,11.05,11.05,0,0,1,.4-4.71,29.47,29.47,0,0,1,1.78-4.41Z"/><path d="M234.6,415.19l-12,.33-6,.15c-1.95.09-4.14,0-6.08,0a26.15,26.15,0,0,0-5.5.32,5.46,5.46,0,0,0-3.62,2.05,6,6,0,0,0-.93,4.05,7.83,7.83,0,0,0,1.73,4.16,11.38,11.38,0,0,0,3.81,3,24.72,24.72,0,0,0,15.89,2,18.67,18.67,0,0,0,2.56-.82,18.38,18.38,0,0,0,2.39-1.27,20.12,20.12,0,0,0,4.29-3.59,15.4,15.4,0,0,0,3.08-4.72,9.24,9.24,0,0,0,.44-5.71,8.1,8.1,0,0,1,1,2.92,10.55,10.55,0,0,1-.08,3.17,16.42,16.42,0,0,1-2.46,5.87,23.09,23.09,0,0,1-4.31,4.75,17.58,17.58,0,0,1-2.74,1.86,20.36,20.36,0,0,1-3,1.32,24.76,24.76,0,0,1-13,.68,27,27,0,0,1-6.26-2.07,16.11,16.11,0,0,1-5.51-4.38,12.63,12.63,0,0,1-2.72-6.83,10.66,10.66,0,0,1,2.07-7.31,9,9,0,0,1,3.14-2.52,11.51,11.51,0,0,1,3.54-1,26.25,26.25,0,0,1,6.49.15l3,.36,3,.28c2,.21,4,.42,6,.67A117.67,117.67,0,0,1,234.6,415.19Z"/><path d="M155.56,448.58c-.27-1-.53-2-.75-3s-.47-2-.66-3l.08.3a3.24,3.24,0,0,0-2.5-1.3,4.17,4.17,0,0,0-1.42.17,3,3,0,0,0-.61.25,5,5,0,0,0-.59.39,6.19,6.19,0,0,0-1.82,2.36,8.57,8.57,0,0,0-.55,1.49,8.91,8.91,0,0,0-.22,1.49,11.61,11.61,0,0,0,.29,3.23c.1.55.31,1.08.44,1.62s.38,1.07.64,1.56a11.13,11.13,0,0,0,4,4.82,6.08,6.08,0,0,0,2.5.84,1,1,0,0,0,.57-.07,1,1,0,0,0,.52-.53,7.84,7.84,0,0,0,.86-2.91,30.36,30.36,0,0,0,.28-3.65c0-2.52-.07-5.11-.2-7.72s-.34-5.26-.28-7.94a71,71,0,0,1,4.2,15.46,27.8,27.8,0,0,1,.22,4.22,11.8,11.8,0,0,1-1,4.68,7.5,7.5,0,0,1-.79,1.26,5.68,5.68,0,0,1-1.26,1.12,5.52,5.52,0,0,1-3.17.91,3,3,0,0,1-.69,0l-.65-.08-.65-.1c-.21-.05-.41-.12-.62-.18a8.66,8.66,0,0,1-1.21-.42l-1.13-.58a14.81,14.81,0,0,1-5.92-7.11,17,17,0,0,1-1.24-4.32,14.47,14.47,0,0,1,0-4.6,12.71,12.71,0,0,1,.61-2.35,12.08,12.08,0,0,1,1.08-2.08,9.28,9.28,0,0,1,3.51-3.32,7.91,7.91,0,0,1,1.16-.49,6.61,6.61,0,0,1,1.28-.26,6.54,6.54,0,0,1,2.5.22,5.25,5.25,0,0,1,3.6,3.2l.08.23v.08c0,1-.1,2-.15,3S155.66,447.57,155.56,448.58Z"/><path d="M84.43,529.53c-2,2.06-4.09,4.05-5.1,6.42a8,8,0,0,0-.51,1.8,3.51,3.51,0,0,0,.11,1.65,4.91,4.91,0,0,0,2,2.73,3.4,3.4,0,0,0,1.44.63,2,2,0,0,0,1.3-.27,3.14,3.14,0,0,0,1.41-2.77c.08-1.28-.09-2.71-.14-4.15a8.57,8.57,0,0,1,.72-4.28c-.38,2.88,1,5.33,1.2,8.43a4.94,4.94,0,0,1-2,4.58,4.11,4.11,0,0,1-2.74.67,5.66,5.66,0,0,1-2.47-1,6.92,6.92,0,0,1-1.75-1.79,6.13,6.13,0,0,1-1.17-3.59,6.2,6.2,0,0,1,.16-1.26,7.46,7.46,0,0,1,.88-2.21,11.51,11.51,0,0,1,3-3.34A23.49,23.49,0,0,1,84.43,529.53Z"/><path d="M258.62,526.66l-3.2-1a30.33,30.33,0,0,0-3.23-.9,14.8,14.8,0,0,0-6.62-.06,8.82,8.82,0,0,0-5.41,3.5,12.59,12.59,0,0,0-1.61,6.29c-.12,2.21,0,4.46-.31,6.75a10.26,10.26,0,0,1-2.91,6.37,9.8,9.8,0,0,1-1.43,1.14,12.78,12.78,0,0,1-1.6.83l-.83.35-.84.27c-.56.19-1.14.3-1.71.44a30.56,30.56,0,0,1-6.93.52,46.6,46.6,0,0,1-6.87-.67,43.58,43.58,0,0,1-6.77-1.64,18.55,18.55,0,0,1-6.5-3.61,9.32,9.32,0,0,1-2.37-3.56c-.1-.36-.21-.73-.3-1.09s-.11-.71-.15-1.07a9.18,9.18,0,0,1,.13-2.21,9.31,9.31,0,0,1,1.8-3.94,14.46,14.46,0,0,1,2.85-2.75,32.07,32.07,0,0,1,6.28-3.53c2.11-.94,4.23-1.75,6.17-2.6a16.11,16.11,0,0,0,2.59-1.37,15.48,15.48,0,0,0,2.26-1.83,23.48,23.48,0,0,0,3.81-4.69,28.79,28.79,0,0,0,1.45-2.67,28.32,28.32,0,0,0,1.14-2.88,47.38,47.38,0,0,1,2.54-6.55,13.29,13.29,0,0,1,5.33-5.78A12.57,12.57,0,0,1,239,497.3a18.38,18.38,0,0,1,3.7-.47,41.17,41.17,0,0,1,7,.45,111.91,111.91,0,0,1,13.37,2.37,33.88,33.88,0,0,1,12.5,5.67,16.2,16.2,0,0,1,4.49,5.28,10.84,10.84,0,0,1,1.08,3.33,9.91,9.91,0,0,1-.19,3.48,10.19,10.19,0,0,1-1.37,3.15,12.49,12.49,0,0,1-2.19,2.61,19.5,19.5,0,0,1-5.7,3.58,15,15,0,0,1-6.56,1.23A26.26,26.26,0,0,1,258.62,526.66Zm0,0a26.27,26.27,0,0,0,6.56,1.27,14.5,14.5,0,0,0,6.49-1.35,17.94,17.94,0,0,0,2.91-1.61,15.23,15.23,0,0,0,2.56-2.1,11.29,11.29,0,0,0,3.18-5.61,8.35,8.35,0,0,0,0-3.19,10.05,10.05,0,0,0-1.17-3,15,15,0,0,0-4.44-4.59,31.46,31.46,0,0,0-12.14-4.42,114,114,0,0,0-13.18-1.34,39,39,0,0,0-6.39,0,15.1,15.1,0,0,0-2.92.56,9.52,9.52,0,0,0-2.51,1.11,9,9,0,0,0-3.42,4.12,54.17,54.17,0,0,0-2.07,6,33.24,33.24,0,0,1-1.25,3.38,27.14,27.14,0,0,1-1.71,3.25,28.47,28.47,0,0,1-4.58,5.73,21.63,21.63,0,0,1-3,2.35,21,21,0,0,1-3.34,1.74c-2.17.92-4.25,1.65-6.24,2.49a31.37,31.37,0,0,0-5.52,2.81,6.79,6.79,0,0,0-3.11,3.84,4.21,4.21,0,0,0-.12,1.13l0,.6a4.52,4.52,0,0,1,.11.53,5.22,5.22,0,0,0,1.2,2,14.82,14.82,0,0,0,5,3.13,43.18,43.18,0,0,0,6.14,2,44.74,44.74,0,0,0,6.41,1.11,28.39,28.39,0,0,0,6.45,0c.52-.08,1.06-.14,1.56-.27l.77-.19.74-.24a12.79,12.79,0,0,0,1.43-.61,8.35,8.35,0,0,0,1.24-.87,9,9,0,0,0,2.85-5.44,64.2,64.2,0,0,0,.68-6.62,13.22,13.22,0,0,1,1.95-6.48,9.42,9.42,0,0,1,5.72-3.43,15.32,15.32,0,0,1,6.67.18,33.05,33.05,0,0,1,3.23.93Z"/><path d="M488,435a15,15,0,0,0,5.68.75,4.46,4.46,0,0,0,2.47-1.05,4.25,4.25,0,0,0,1.31-2.25,2.3,2.3,0,0,0-.57-2.2,4,4,0,0,0-2.31-.89,54.58,54.58,0,0,0-5.74-.15c-1.92.06-3.83.19-5.74.41a28.71,28.71,0,0,0-5.55,1.09,10.5,10.5,0,0,0-4.59,2.62,5.59,5.59,0,0,0-1.44,4.6,10.93,10.93,0,0,0,2,4.89,30.38,30.38,0,0,0,3.75,4.22,34.4,34.4,0,0,0,4.41,3.59,17.15,17.15,0,0,0,5,2.46,4.85,4.85,0,0,0,2.5.08,2.93,2.93,0,0,0,1.77-1.5,5,5,0,0,0,.25-2.52,28,28,0,0,0-.38-2.84c-.67-3.81-1.82-7.54-2.82-11.31a100.75,100.75,0,0,1,3.76,11.11,27.41,27.41,0,0,1,.57,2.92,11.07,11.07,0,0,1,.1,1.54,3.81,3.81,0,0,1-.34,1.69,4.22,4.22,0,0,1-2.49,2.26,6.27,6.27,0,0,1-3.27.06A17.87,17.87,0,0,1,480.8,452a37.38,37.38,0,0,1-4.73-3.67,29.71,29.71,0,0,1-4.05-4.46,13,13,0,0,1-2.44-5.77,7.77,7.77,0,0,1,.29-3.31,7.49,7.49,0,0,1,1.7-2.86,12.33,12.33,0,0,1,5.45-3.1,30.07,30.07,0,0,1,5.93-1,53.08,53.08,0,0,1,5.92-.24,47.69,47.69,0,0,1,5.93.42,5,5,0,0,1,2.95,1.39,3.37,3.37,0,0,1,.7,3.24,5,5,0,0,1-4.69,3.6A13.8,13.8,0,0,1,488,435Z"/><path d="M524.15,485.88a11,11,0,0,0-3.44.11,2.27,2.27,0,0,0-1,.75,11.49,11.49,0,0,0-1,1.26,7.38,7.38,0,0,0-1.4,2.56,6.62,6.62,0,0,0-.14,2.7,6.75,6.75,0,0,0,2.61,4.47,7.76,7.76,0,0,0,2.39,1.14,8.25,8.25,0,0,0,2.71.26,8,8,0,0,0,2.58-.64,7.44,7.44,0,0,0,2.14-1.56,8.66,8.66,0,0,0,2.27-5.15,7.17,7.17,0,0,0-.26-2.81,6.32,6.32,0,0,0-1.64-2.42,6,6,0,0,0-2.73-1.5,3.37,3.37,0,0,0-3.11.83,3.38,3.38,0,0,1,1.22-1.47,4.21,4.21,0,0,1,1.93-.67,7.08,7.08,0,0,1,4,.89,8.11,8.11,0,0,1,3.14,2.92,9.61,9.61,0,0,1,1.25,4.2,11.91,11.91,0,0,1-2.54,8.18,11.09,11.09,0,0,1-3.49,2.91,11.67,11.67,0,0,1-4.36,1.25,11.88,11.88,0,0,1-8.49-2.53,10.06,10.06,0,0,1-2.85-3.63,10.87,10.87,0,0,1-1.05-4.36,10,10,0,0,1,.88-4.4,8.39,8.39,0,0,1,2.74-3.31,11.06,11.06,0,0,1,1.73-1.15,4.39,4.39,0,0,1,2.32-.5,5.08,5.08,0,0,1,2,.64A12.49,12.49,0,0,1,524.15,485.88Z"/><path d="M475.58,520.78a11.77,11.77,0,0,0-5.23-1.9,13,13,0,0,0-2.72,0,4.63,4.63,0,0,0-2.26.76c-1,.77-1,2.71-.76,4.5a11,11,0,0,0,1.62,4.89,6.64,6.64,0,0,0,3.8,2.92,4.86,4.86,0,0,0,4.46-1,3.11,3.11,0,0,0,1-2,13,13,0,0,0-.09-2.75,12.29,12.29,0,0,1,.62-2.94,2.36,2.36,0,0,0-.48-2.54,2.07,2.07,0,0,1,.95,1.12,3.91,3.91,0,0,1,.15,1.51,12.57,12.57,0,0,0-.13,2.74,13.42,13.42,0,0,1,.46,3,4.58,4.58,0,0,1-1.28,3.13,5.85,5.85,0,0,1-2.87,1.71,7.3,7.3,0,0,1-3.32.08,8.64,8.64,0,0,1-5.19-3.77,12.62,12.62,0,0,1-1.86-5.93,14.65,14.65,0,0,1,.08-3.09,5,5,0,0,1,.53-1.66,3.67,3.67,0,0,1,1.27-1.38,5.88,5.88,0,0,1,3.19-.79,13.46,13.46,0,0,1,3,.4A10.24,10.24,0,0,1,475.58,520.78Z"/><path d="M401.61,349.61a15.43,15.43,0,0,0-2-6.53,6.25,6.25,0,0,0-1.13-1.22A7.22,7.22,0,0,0,397,341a13.78,13.78,0,0,0-3.24-1,28.16,28.16,0,0,0-6.8-.35,16,16,0,0,0-6.4,1.71,11.15,11.15,0,0,0-4.66,4.33,9.21,9.21,0,0,0-1.18,6,6.83,6.83,0,0,0,3.31,4.79,6.67,6.67,0,0,0,2.8.92,5.17,5.17,0,0,0,1.42-.08,5.56,5.56,0,0,0,1.39-.47,10,10,0,0,1,3.73-1.23,4,4,0,0,1,2.36.67,5.08,5.08,0,0,1,1.55,1.7,10.11,10.11,0,0,1,1.12,3.8c.15,1.2.22,2.38.32,3.51a13.27,13.27,0,0,0,1.66,6.06,5.53,5.53,0,0,0,2,1.91,3.76,3.76,0,0,0,2.53.41,4,4,0,0,0,2.17-1.43,9,9,0,0,0,1.45-2.71,25.14,25.14,0,0,0,1.2-6.53,27.25,27.25,0,0,0,0-3.38,16.23,16.23,0,0,0-.55-3.31c-.59-2.2-1.5-4.45-1.61-6.8.55,2.27,1.75,4.25,2.62,6.46a14.68,14.68,0,0,1,1,3.47,25.26,25.26,0,0,1,.37,3.58,24.34,24.34,0,0,1-.86,7.21,11.35,11.35,0,0,1-1.7,3.48,6.16,6.16,0,0,1-3.5,2.39,6.24,6.24,0,0,1-4.23-.58,7.75,7.75,0,0,1-3-2.77,15.65,15.65,0,0,1-2-7.24c-.22-2.35-.19-4.71-1.08-6.3a1.89,1.89,0,0,0-1.7-1.14,8.44,8.44,0,0,0-2.83,1,7.86,7.86,0,0,1-4,.67,9,9,0,0,1-3.76-1.3,9.45,9.45,0,0,1-2.84-2.72,8.65,8.65,0,0,1-1.38-3.69,11.2,11.2,0,0,1,1.63-7.33,12.6,12.6,0,0,1,5.57-4.84,17.57,17.57,0,0,1,7.06-1.57,27.94,27.94,0,0,1,7.06.76,14.44,14.44,0,0,1,3.36,1.24,8.06,8.06,0,0,1,1.51,1,7,7,0,0,1,1.15,1.4C401.29,344.89,401.45,347.31,401.61,349.61Z"/><path d="M410.76,309.13c-4.44-.44-8.72,2.75-9.32,6.81a9.62,9.62,0,0,0,1.2,5.91,15.2,15.2,0,0,0,4,4.77,4.71,4.71,0,0,0,2.53,1.11,3.11,3.11,0,0,0,2.37-.87,2.8,2.8,0,0,0,.41-.5,2.42,2.42,0,0,0,.27-.56,6.89,6.89,0,0,0,.29-1.45c.05-.52.07-1.06.11-1.63a15.48,15.48,0,0,1,.21-1.7,36.68,36.68,0,0,0,.81-6.48,6.92,6.92,0,0,0-.68-3.07,6.32,6.32,0,0,0-2.2-2.34,5.84,5.84,0,0,1,2.59,2.11,7.5,7.5,0,0,1,1.14,3.24,31.06,31.06,0,0,1-.32,6.71c-.05.56-.09,1.06-.09,1.6s0,1.1-.05,1.68a8.44,8.44,0,0,1-.3,1.81,3.89,3.89,0,0,1-.41.94,4.88,4.88,0,0,1-.62.8,4.67,4.67,0,0,1-3.65,1.4,6.22,6.22,0,0,1-3.48-1.44,16.34,16.34,0,0,1-4.39-5.38,10.64,10.64,0,0,1-1.07-6.91,8.64,8.64,0,0,1,4.08-5.55A8.86,8.86,0,0,1,410.76,309.13Z"/><path d="M410.5,238.74a12.61,12.61,0,0,0-2.86-8.47,7.32,7.32,0,0,0-3.5-2.23,7.17,7.17,0,0,0-4,0,4.73,4.73,0,0,0-2.81,2.24,8.47,8.47,0,0,0-.92,3.84c-.07,1.43-.08,3-.19,4.56s-.22,3.15-.25,4.72l-.13,9.45a8.73,8.73,0,0,0,.92,4.16,2.34,2.34,0,0,0,1.33,1.19,1.91,1.91,0,0,0,1.68-.42,4.85,4.85,0,0,0,1.17-1.76c.3-.69.53-1.43.81-2.19a24,24,0,0,1,2.1-4.29,24.64,24.64,0,0,1,6.36-7,24.24,24.24,0,0,0-5.92,7.22,23.06,23.06,0,0,0-1.78,4.3c-.47,1.45-.69,3.14-2,4.5a3.12,3.12,0,0,1-2.69.84,3.65,3.65,0,0,1-2.26-1.68,10.15,10.15,0,0,1-1.43-4.87l-.47-9.44c-.08-1.57-.25-3.14-.41-4.71a23.19,23.19,0,0,1-.11-4.88,11.37,11.37,0,0,1,1.69-5.14,7.41,7.41,0,0,1,2-2.06,7.66,7.66,0,0,1,2.62-1.08,9,9,0,0,1,5.31.48,8.77,8.77,0,0,1,4,3.26,11,11,0,0,1,1.77,4.62A13.21,13.21,0,0,1,410.5,238.74Z"/><path d="M367.41,315.74a5.63,5.63,0,0,0,1.11,2.63,1.87,1.87,0,0,0,2.17.3,4.14,4.14,0,0,0,2.19-4.18,3.31,3.31,0,0,0-.89-2.18,2.59,2.59,0,0,0-.95-.63,2.55,2.55,0,0,0-1.16-.13,2,2,0,0,0-1.87,1.3,12.52,12.52,0,0,0-.6,2.89,8.18,8.18,0,0,1-.23-3.14A3,3,0,0,1,368,311a3.46,3.46,0,0,1,1.63-.82,7.66,7.66,0,0,1,.89-.12,3.69,3.69,0,0,1,.95.13,4.18,4.18,0,0,1,1.64.9,4.87,4.87,0,0,1,1.51,3.25,6.3,6.3,0,0,1-.76,3.4,4.81,4.81,0,0,1-2.72,2.21,3.18,3.18,0,0,1-1.86,0,2.66,2.66,0,0,1-1.46-1.1A4.82,4.82,0,0,1,367.41,315.74Z"/><path d="M343.42,286.19a4.55,4.55,0,0,0-1.41.95,3.6,3.6,0,0,0-.85,1.46,3.4,3.4,0,0,0,.53,3.07,4.62,4.62,0,0,0,2.58,1.59,6.28,6.28,0,0,0,3,.15,2.77,2.77,0,0,0,1.22-.54,2.14,2.14,0,0,0,.69-1.06,4,4,0,0,0-.26-2.93,5.26,5.26,0,0,0-2.21-2.39,4.48,4.48,0,0,0-1.61-.52A4.17,4.17,0,0,0,343.42,286.19Zm0,0a4.62,4.62,0,0,1,3.39.1,6.38,6.38,0,0,1,2.79,2.19,4.71,4.71,0,0,1,.88,3.66,3.32,3.32,0,0,1-1,1.87,4.3,4.3,0,0,1-1.85.92,6.53,6.53,0,0,1-3.78-.41,5.24,5.24,0,0,1-2.8-2.46,4.11,4.11,0,0,1-.07-3.54A4.43,4.43,0,0,1,343.42,286.19Z"/><path d="M338.53,263.09a5,5,0,0,0-2.83.3,1.91,1.91,0,0,0-.9,1,3.57,3.57,0,0,0-.21,1.35,4.81,4.81,0,0,0,.45,2.58,3,3,0,0,0,2.14,1,6.19,6.19,0,0,0,1.32.11,2.35,2.35,0,0,0,1.11-.36,4,4,0,0,0,1.68-2,2.92,2.92,0,0,0-.32-2.63,3.49,3.49,0,0,0-1.07-1A4.58,4.58,0,0,0,338.53,263.09Zm0,0a4.06,4.06,0,0,1,2.57,1.29,3.37,3.37,0,0,1,.75,2.88,3.92,3.92,0,0,1-.61,1.46,4.31,4.31,0,0,1-1.07,1.19,3.18,3.18,0,0,1-1.58.64,7.39,7.39,0,0,1-1.58-.07,5.63,5.63,0,0,1-1.55-.47,2.85,2.85,0,0,1-1.27-1.19,3.24,3.24,0,0,1-.32-1.63,14.45,14.45,0,0,1,.15-1.49,4.34,4.34,0,0,1,.46-1.47,2.28,2.28,0,0,1,1.15-1A5.83,5.83,0,0,1,338.53,263.09Z"/><path d="M312.09,290.84A10.94,10.94,0,0,0,306,292.3a6.22,6.22,0,0,0-2.56,5.36,13.51,13.51,0,0,0,1.75,5.85c.9,1.84,2.25,3.68,2.52,6.27a6.31,6.31,0,0,1-.83,3.91,5.68,5.68,0,0,1-1.5,1.58c-.52.38-1,.66-1.25.9a1.25,1.25,0,0,0-.46.62,3.87,3.87,0,0,0-.22,1,14.43,14.43,0,0,0,0,2.71,6.68,6.68,0,0,0,.57,2.29,2.88,2.88,0,0,0,1.15,1.29,5.75,5.75,0,0,0,2.08.63,10.66,10.66,0,0,0,2.57.11,7.08,7.08,0,0,0,2.23-.53,4.55,4.55,0,0,0,1.63-1.2,3.24,3.24,0,0,0,.79-1.58,1.61,1.61,0,0,0,0-.58c0-.07-.09-.29-.43-.72-.15-.21-.37-.49-.56-.78a8.85,8.85,0,0,1-.51-.89,10.28,10.28,0,0,1-.7-1.8,20.79,20.79,0,0,1-.67-3.4,10,10,0,0,1-.14-1.92,3.81,3.81,0,0,1,.29-1.33,3.46,3.46,0,0,1,.77-1.13,10.81,10.81,0,0,1,1.36-1.05c.29-.21.64-.63,1.18-1.08a5,5,0,0,1,1.83-.92c.56-.16,1-.26,1.42-.42a5.64,5.64,0,0,0,3.16-7.09,8.76,8.76,0,0,0-1.71-2.56c-.71-.78-1.42-1.58-2.15-2.35a8.51,8.51,0,0,0-2.44-2A7.24,7.24,0,0,0,312.09,290.84Zm0,0a7.21,7.21,0,0,1,3.1.6,9.13,9.13,0,0,1,2.55,1.9c.75.76,1.53,1.47,2.3,2.21a10.38,10.38,0,0,1,2.06,2.53,6.73,6.73,0,0,1-.35,6.62,7.44,7.44,0,0,1-2.53,2.55,15.08,15.08,0,0,1-1.53.75,2.51,2.51,0,0,0-.92.66c-.24.26-.51.72-1,1.24a12.08,12.08,0,0,0-1,1.06c-.13.25,0,.17,0,.44s.17.7.31,1.23a17.34,17.34,0,0,0,.93,2.75,6.4,6.4,0,0,0,.61,1.1,5.37,5.37,0,0,0,.35.45c.11.14.23.27.42.47a6.37,6.37,0,0,1,1.32,1.91,5.91,5.91,0,0,1,.4,2.56,7.69,7.69,0,0,1-1.62,4.21,9,9,0,0,1-3.33,2.69,11.72,11.72,0,0,1-3.91,1,16.28,16.28,0,0,1-3.78-.2,10.35,10.35,0,0,1-3.88-1.47,7.53,7.53,0,0,1-2.8-3.58,10.48,10.48,0,0,1-.61-3.93,12.08,12.08,0,0,1,.14-1.82c.09-.6.19-1.15.35-1.8a7.27,7.27,0,0,1,.83-2,5.19,5.19,0,0,1,1.7-1.67c.59-.37,1.1-.56,1.47-.76a2.43,2.43,0,0,0,.81-.57,3.63,3.63,0,0,0,.8-2.13c.13-1.72-.72-3.71-1.42-5.75a15.44,15.44,0,0,1-1.05-6.46,8.34,8.34,0,0,1,.93-3.14,6.14,6.14,0,0,1,2.21-2.34A11.93,11.93,0,0,1,312.09,290.84Z"/><path d="M527.6,143.62c-2.12.64-4.05,1.77-6.1,2.59a9.87,9.87,0,0,1-6.51.64,5.29,5.29,0,0,1-2.73-1.89,19.07,19.07,0,0,1-1.62-2.92,5.24,5.24,0,0,0-2-2.39,5.36,5.36,0,0,0-3.07-.39,9.79,9.79,0,0,0-5.73,2.49,16.76,16.76,0,0,0-3.7,5.16c-1,1.9-1.54,4-2.72,6.12a17.08,17.08,0,0,1-4.89,5.08,48.55,48.55,0,0,1-5.85,3.47c-1.93,1-3.82,2.12-5.61,3.28a32.09,32.09,0,0,0-5,3.81,16.4,16.4,0,0,0-3.47,4.69,11.72,11.72,0,0,0-1.11,5.4,12.74,12.74,0,0,0,1.36,5.37,10.84,10.84,0,0,0,8.38,6.05,10.13,10.13,0,0,0,5.19-.76,10.74,10.74,0,0,0,4.17-3.39c1.22-1.55,2.37-3.4,3.67-5.29l3.8-5.44,1.91-2.72c.65-.91,1.29-1.79,1.86-2.65,1.17-1.77,2.28-3.74,3.72-5.64a13,13,0,0,1,5.82-4.62,11.61,11.61,0,0,1,3.67-.72c.59,0,1.19,0,1.77,0l1.74.12c4.58.49,8.79,1.84,13.1,2.26a17.8,17.8,0,0,0,6.35-.39,13.25,13.25,0,0,0,5.53-3.14,8.43,8.43,0,0,0,2.92-5.54,7.47,7.47,0,0,0-2.57-5.75A13.18,13.18,0,0,0,527.6,143.62Zm0,0a13.57,13.57,0,0,1,12.45,2.75,7.92,7.92,0,0,1,2.87,5.89,9,9,0,0,1-2.85,6,14.93,14.93,0,0,1-5.7,3.67,19,19,0,0,1-6.77.87c-4.53-.14-8.91-1.15-13.16-1.26h-1.58c-.52,0-1,.09-1.54.13a8.86,8.86,0,0,0-2.76.75,10.21,10.21,0,0,0-4.11,3.87c-1.13,1.71-2.08,3.67-3.22,5.66-.58,1-1.18,2-1.76,2.9l-1.77,2.8-3.56,5.59c-1.14,1.78-2.21,3.77-3.69,5.72a15.34,15.34,0,0,1-6,4.94,14.84,14.84,0,0,1-15-1.7,16.47,16.47,0,0,1-4.87-6,16.73,16.73,0,0,1-1.6-7.43,16.2,16.2,0,0,1,1.85-7.38,19.34,19.34,0,0,1,4.68-5.66,35.4,35.4,0,0,1,5.79-3.9c2-1.12,4-2.06,6.08-3a45.15,45.15,0,0,0,5.79-2.85,15,15,0,0,0,4.58-4c1.15-1.69,1.93-3.81,3.09-5.79a17.87,17.87,0,0,1,4.34-5.27,11,11,0,0,1,6.37-2.36,5.9,5.9,0,0,1,3.38.6,5.68,5.68,0,0,1,2.1,2.69,19.52,19.52,0,0,0,1.46,2.93,4.77,4.77,0,0,0,2.56,1.89,9.55,9.55,0,0,0,6.44-.52C523.54,145.36,525.47,144.25,527.6,143.62Z"/><path d="M497.83,96.79a14.57,14.57,0,0,0-7.6,3.27,21.39,21.39,0,0,0-3,2.86,12,12,0,0,0-2,3.44,8.09,8.09,0,0,0-.51,3.73,7.65,7.65,0,0,0,1.27,3.39,5.46,5.46,0,0,0,.54.75,5.65,5.65,0,0,0,.59.68,9.13,9.13,0,0,0,1.39,1.13,12.32,12.32,0,0,0,3.35,1.51,8.21,8.21,0,0,0,3.46.21,4.59,4.59,0,0,0,1.47-.57,3.62,3.62,0,0,0,1.16-1,5.74,5.74,0,0,0,.75-3.36,12.22,12.22,0,0,1,.25-2.27,6.45,6.45,0,0,1,.95-2.2c.89-1.31,2.05-2.14,2.85-3.19a4.94,4.94,0,0,0,.9-1.73,5.31,5.31,0,0,0,.15-2,5.38,5.38,0,0,0-2-3.46A5.6,5.6,0,0,0,497.83,96.79Zm0,0a6,6,0,0,1,6.35,4.56,6.76,6.76,0,0,1,.07,2.2,5.82,5.82,0,0,1-.78,2.09c-.76,1.29-1.78,2.31-2.31,3.45a6.44,6.44,0,0,0-.4,3.66,16.3,16.3,0,0,1,.08,2.26,5.64,5.64,0,0,1-.75,2.52,6.38,6.38,0,0,1-1.79,1.93,6.92,6.92,0,0,1-2.37,1.1,10,10,0,0,1-4.87-.14,13.26,13.26,0,0,1-4.23-2,10.14,10.14,0,0,1-1.76-1.65,8.78,8.78,0,0,1-.71-1,6.46,6.46,0,0,1-.61-1,9.57,9.57,0,0,1-1.13-4.59,9.75,9.75,0,0,1,1.24-4.42,20.52,20.52,0,0,1,14-9Z"/><path d="M472.38,139.33a32,32,0,0,0-.27-6.42c-.15-1.07-.32-2.13-.42-3.19l-.44-3.19c-.3-2.13-.57-4.27-.72-6.43a13.26,13.26,0,0,0-1.56-5.92,5.75,5.75,0,0,0-2-2,5.13,5.13,0,0,0-2.69-.71,7.49,7.49,0,0,0-2.82.58,10,10,0,0,0-2.5,1.56,39.46,39.46,0,0,0-4.34,4.55c-1.48,1.63-3.08,3.13-4.62,4.61a61.56,61.56,0,0,0-4.37,4.51l-4.14,4.94a109.18,109.18,0,0,1-8.95,9.66,22.89,22.89,0,0,1-6,4.13,12.07,12.07,0,0,1-8.28.81,11.62,11.62,0,0,1-3.94-2.07,13.43,13.43,0,0,1-2.79-3.21,15.57,15.57,0,0,1-2.33-7.71,15.87,15.87,0,0,1,.38-4.11,22.39,22.39,0,0,1,1.23-3.68,27.91,27.91,0,0,1,3.93-6.21,64.18,64.18,0,0,1,4.64-5l4.64-4.48c3.09-3,6.16-6,9.3-8.92s6.34-5.85,9.59-8.72a242.58,242.58,0,0,1,20.5-16.08A82.32,82.32,0,0,1,475,70.08c1-.47,2-.92,3-1.36s1.87-.87,2.8-1.36c1.86-1,3.7-2,5.61-3.1.95-.53,1.91-1,2.9-1.53l2.95-1.39a12,12,0,0,0,4.68-3.42,5.41,5.41,0,0,0,1.05-2.43,3.79,3.79,0,0,0-.45-2.39c-.85-1.35-2.92-1.89-4.91-2a44.08,44.08,0,0,0-6.26.2,31.28,31.28,0,0,0-6.15,1.13,32.7,32.7,0,0,0-5.79,2.28c-1.89.94-3.7,2.06-5.55,3.15s-3.71,2.21-5.62,3.31a55.51,55.51,0,0,1-6.05,2.94,44.76,44.76,0,0,1-13.34,3.34,35.3,35.3,0,0,1-3.57.1c-1.17,0-2.31-.09-3.43-.16-2.21-.15-4.3-.34-6.21-.38a19.23,19.23,0,0,0-5.2.52,22.87,22.87,0,0,0-4.86,1.87,51.33,51.33,0,0,0-4.81,2.91c-.81.54-1.6,1.12-2.4,1.73s-1.63,1.18-2.44,1.79l-2.42,1.89L406,79.59l-5.07,4A75.34,75.34,0,0,1,389.66,91a47.79,47.79,0,0,1-13.23,4.61A129.53,129.53,0,0,1,363.09,97c-2.13.17-4.22.4-6.24.76a33.61,33.61,0,0,0-5.72,1.64,18.91,18.91,0,0,0-4.73,2.83c-1.4,1.18-2.77,2.6-4.28,4.15a38.81,38.81,0,0,1-5.34,4.78,20.12,20.12,0,0,1-3.58,2.12,28,28,0,0,1-3.88,1.41c-5.2,1.46-9.94,1.21-13.8,1.42a25.73,25.73,0,0,0-5.14.66l-1.06.31c-.33.14-.65.25-1,.36l-.91.44c-.33.18-.68.38-1,.6-2.75,1.73-5.4,4.52-8.47,7.62-.77.78-1.53,1.56-2.46,2.45s-1.85,1.66-2.82,2.42a50.66,50.66,0,0,1-6,4c-2,1.16-4,2.16-5.87,3.12a28,28,0,0,0-4.69,2.94c-.76.58-1.52,1.2-2.27,1.86L271.43,145c-1.74,1.55-3.6,2.94-5.37,4.24l-1.17.87c-.35.27-.7.56-1,.86a21.86,21.86,0,0,0-1.9,1.95,21.21,21.21,0,0,0-3,4.6,19.35,19.35,0,0,0-1.73,10.81,20.66,20.66,0,0,0,4.46,10.41,37.21,37.21,0,0,0,4.3,4.31l5,4.21c3.45,3,6.45,6.16,9.47,9.05a57.39,57.39,0,0,0,4.55,4c.77.59,1.53,1.21,2.29,1.72s1.52,1,2.28,1.42a16.36,16.36,0,0,0,2.34,1.08,19.24,19.24,0,0,0,2.33.77,16.11,16.11,0,0,0,2.32.52A11.78,11.78,0,0,0,299,206a6.61,6.61,0,0,0,6.13-4,16.91,16.91,0,0,0,.89-2.74c.48-2,.71-4.06,1.2-6.3a18.42,18.42,0,0,1,2.57-6.65,9.82,9.82,0,0,1,6.49-4.2,13.39,13.39,0,0,1,7.48,1c4.4,2,7.75,5,11.08,7.64a50.77,50.77,0,0,0,4.82,3.69,7.76,7.76,0,0,0,4.63,1.13,8.94,8.94,0,0,0,4.55-1.48,9.06,9.06,0,0,0,3-3.64,10.58,10.58,0,0,0,.95-4.8,20.63,20.63,0,0,0-1.15-5.37,21.48,21.48,0,0,1-1.3-7.35,13.65,13.65,0,0,1,.23-2.08c.11-.62.26-1.24.43-1.85a21.64,21.64,0,0,1,1.34-3.5,28.42,28.42,0,0,1,4-6A21.4,21.4,0,0,1,362,154.5a15.49,15.49,0,0,1,3.61-1.55,13.06,13.06,0,0,1,4-.51,12.58,12.58,0,0,1,4,.75,9.13,9.13,0,0,1,3.71,2.44c1.94,2.22,2.61,4.53,3.42,6.43a17.34,17.34,0,0,0,1.21,2.59,12,12,0,0,0,1.6,2.16,8.16,8.16,0,0,0,2,1.54,6.32,6.32,0,0,0,1.1.48l.29.09.35.08.71.15a25.88,25.88,0,0,0,5.94.46,79.17,79.17,0,0,0,12.46-1.68c2.11-.4,4.24-.8,6.41-1.12s4.22-.64,6.32-1c4.21-.74,8.4-1.6,12.58-2.54,8.35-1.91,16.73-3.93,24.92-6.39A32.51,32.51,0,0,0,467.92,151a12.52,12.52,0,0,0,3.38-5.37,24.51,24.51,0,0,0,1.11-6.31Zm0,0a24.28,24.28,0,0,1-.91,6.38,12.64,12.64,0,0,1-3.31,5.59,32.55,32.55,0,0,1-11.36,6.22c-4.09,1.41-8.26,2.43-12.4,3.6s-8.28,2.26-12.45,3.31-8.36,2-12.57,2.85-8.47,1.48-12.64,2.44a81.85,81.85,0,0,1-12.74,2,28.54,28.54,0,0,1-6.46-.35,9.66,9.66,0,0,1-5.73-2.88,16.2,16.2,0,0,1-3.46-5.45,19.05,19.05,0,0,0-3-5.6,8,8,0,0,0-5.79-2.21,11.43,11.43,0,0,0-6.06,1.76,18.29,18.29,0,0,0-4.74,4.29,25.36,25.36,0,0,0-3.44,5.42,16.89,16.89,0,0,0-1.61,6.19,20,20,0,0,0,1.17,6.3,21.89,21.89,0,0,1,1.2,6.3,13.82,13.82,0,0,1-1.41,6.22,11.47,11.47,0,0,1-10.33,6.54,10.5,10.5,0,0,1-6.1-1.71,53.85,53.85,0,0,1-5-4c-3.27-2.76-6.49-5.69-10.37-7.57a11.33,11.33,0,0,0-6.28-1,7.88,7.88,0,0,0-3,1.1,8.24,8.24,0,0,0-2.3,2.22,15.93,15.93,0,0,0-2.35,5.95c-.43,2.1-.64,4.24-1.12,6.34a13.47,13.47,0,0,1-2.58,5.83,11.11,11.11,0,0,1-5.32,3.46,13.31,13.31,0,0,1-6.36.39,18.78,18.78,0,0,1-6-2.19,41.35,41.35,0,0,1-9.75-8.34c-2.9-3.15-5.59-6.52-8.71-9.48s-6.53-5.6-9.3-8.89a24.28,24.28,0,0,1-5.39-11.53,22.53,22.53,0,0,1,1.41-12.62,24.42,24.42,0,0,1,7.78-10.08c1.67-1.34,3.32-2.72,4.86-4.22s3-3.07,4.64-4.46c3.2-2.91,7.18-4.68,10.79-7a47.91,47.91,0,0,0,5.22-3.76,44.42,44.42,0,0,0,4.56-4.54c2.87-3.17,5.74-6.43,9.32-8.84a18,18,0,0,1,5.83-2.65,32.48,32.48,0,0,1,6.36-.89c4.28-.23,8.62-.06,12.82-1a18.83,18.83,0,0,0,5.95-2.37,49.42,49.42,0,0,0,5.2-3.8,53.46,53.46,0,0,1,5.18-3.81,24.28,24.28,0,0,1,5.88-2.58c8.3-2.44,17.12-1.33,25.47-3.52a41.33,41.33,0,0,0,11.68-5.29,99.31,99.31,0,0,0,10.26-7.76c3.29-2.76,6.53-5.58,9.94-8.19a54.68,54.68,0,0,1,10.91-6.79,26.76,26.76,0,0,1,6.13-1.91,24.22,24.22,0,0,1,6.42-.13c4.27.41,8.47,1.52,12.78,1.46a41.58,41.58,0,0,0,12.65-2.16,71.26,71.26,0,0,0,11.67-5.39c3.78-2,7.58-4.1,11.76-5.16a37.93,37.93,0,0,1,6.34-1.12,44.49,44.49,0,0,1,6.43-.19,11.63,11.63,0,0,1,3.15.6,4.92,4.92,0,0,1,2.54,1.87,4.84,4.84,0,0,1,.67,3.09,6.57,6.57,0,0,1-1.2,3,12.89,12.89,0,0,1-5.06,3.87,62.83,62.83,0,0,0-5.67,3c-1.85,1.1-3.66,2.25-5.53,3.31s-3.82,2-5.72,2.95a78.33,78.33,0,0,0-11,6.71,241.53,241.53,0,0,0-19.68,16.6c-6.3,5.83-12.4,11.88-18.55,17.87-3,3-6.27,5.88-9,9.19a24.69,24.69,0,0,0-3.49,5.38,18.18,18.18,0,0,0-1.07,3,12.63,12.63,0,0,0-.34,3.19,13,13,0,0,0,1.7,6.13,10.25,10.25,0,0,0,2,2.46,8.55,8.55,0,0,0,2.79,1.57,9.17,9.17,0,0,0,6.27-.51,21.6,21.6,0,0,0,5.38-3.49,109.93,109.93,0,0,0,9.14-9.05l4.34-4.76c1.46-1.58,3.06-3,4.66-4.45s3.22-2.84,4.72-4.37a39.9,39.9,0,0,1,4.62-4.48,9.45,9.45,0,0,1,5.95-2.14,6,6,0,0,1,3.06.9,6.5,6.5,0,0,1,2.17,2.34,13.7,13.7,0,0,1,1.49,6.22c.09,2.14.31,4.28.56,6.41a86.21,86.21,0,0,1,.86,12.84Z"/><path d="M69.51,333.37c.27,1.71,2.08,2.34,3.5,3a8.32,8.32,0,0,0,2.29.55,11.13,11.13,0,0,0,2.3.06,4.77,4.77,0,0,0,2-.56A3.15,3.15,0,0,0,80.8,335a5.93,5.93,0,0,0,0-4.05,3.88,3.88,0,0,0-2.53-2.56,13.67,13.67,0,0,0-4.12-.47A5.16,5.16,0,0,0,70.58,329,4.81,4.81,0,0,0,69.51,333.37Zm-.28.09a8.23,8.23,0,0,1,0-5.22,4.94,4.94,0,0,1,2-2.35,7.07,7.07,0,0,1,2.76-1,10.16,10.16,0,0,1,5.58.73,6.71,6.71,0,0,1,3.68,4.64,8,8,0,0,1-.62,5.57,4.94,4.94,0,0,1-2.13,2.09,6.14,6.14,0,0,1-2.77.54,9.82,9.82,0,0,1-4.92-1.55c-.71-.45-1.37-.94-2.06-1.41A3.68,3.68,0,0,1,69.23,333.46Z"/></svg>