<svg id="Layer_1" data-name="Layer 1" xmlns="http://www.w3.org/2000/svg" viewBox="0 0 600 600"><title>Gabon</title><path d="M272.24,60.16a10.8,10.8,0,0,1,.9-2.73,6.14,6.14,0,0,1,.77-1.22l.43-.58c.15-.18.34-.33.51-.5a11.08,11.08,0,0,1,5-2.58,47.52,47.52,0,0,1,11.46-1c.95,0,1.9,0,2.83-.06s1.87-.15,2.82-.24l5.69-.6,11.42-1.23c7.63-.79,15.34-1.16,23-1.29s15.4.07,23.12.62q5.79.39,11.58,1.12c3.86.48,7.68,1.11,11.43,1.69,7.52,1.17,14.83,2.1,21.94,1.5A87.31,87.31,0,0,0,416,51.51l5.56-1.16c.88-.19,1.71-.39,2.47-.61.38-.11.74-.23,1.08-.35l1.14-.44a23,23,0,0,1,7.26-1.65,12.69,12.69,0,0,1,4.93.75A11.82,11.82,0,0,1,441,49.47a14.4,14.4,0,0,1,1.84,1.62,17.64,17.64,0,0,1,4.07,7.46,24.36,24.36,0,0,1,.81,7.57,26.84,26.84,0,0,1-1.39,7.34A25.21,25.21,0,0,1,444.82,77c-.53,1-1.08,2-1.65,2.9-2.28,3.68-4.69,6.76-6.54,9.64a30.35,30.35,0,0,0-2.25,4.09,14.74,14.74,0,0,0-1.12,3.71,30.45,30.45,0,0,0,.21,9.12c.47,3.44,1.27,7.41,1.57,11.84.15,2.09.22,3.94.41,5.25a8.89,8.89,0,0,0,.34,1.54,1.58,1.58,0,0,0,.32.61c0,.07.11.06.11.11s.07.06.17.1a2.4,2.4,0,0,0,.27.16l.17.11.25.11a2.27,2.27,0,0,0,.48.19l.22.1H438a.57.57,0,0,0,.3,0h.12c.05,0,.08,0,.12,0a5.66,5.66,0,0,0,1.59-.56,24.92,24.92,0,0,0,3.35-2.11c1.34-1,2.85-2.12,4.67-3.39a61.08,61.08,0,0,1,5.81-3.56,69.15,69.15,0,0,1,12.35-5.14,62.42,62.42,0,0,1,27.08-2.5,45.94,45.94,0,0,1,14.18,4.28,43.74,43.74,0,0,1,6.64,4.11,40.61,40.61,0,0,1,5.78,5.42c.88,1,1.7,2.07,2.45,3.07s1.35,1.95,1.91,2.81c1.13,1.74,2.07,3.23,2.89,4.36a8.85,8.85,0,0,0,1.72,2s.08.07,0,0l-.06,0a.2.2,0,0,0-.12-.08c-.08,0-.2-.13-.33-.13a.75.75,0,0,0-.36-.07l5.28,1.92a25.74,25.74,0,0,1,4.62,4,24.81,24.81,0,0,1,3.54,5.17,27.54,27.54,0,0,1,2.08,5.62,30.82,30.82,0,0,1,.77,5.5,35,35,0,0,1-1,9.9,42.5,42.5,0,0,1-3.19,8.61,44.33,44.33,0,0,1-4.84,7.64,43.69,43.69,0,0,1-3.08,3.49c-.54.54-1.17,1.13-1.71,1.61L529,189.86c-4.06,3.43-8.09,6.1-11.68,8.59-1.81,1.24-3.49,2.42-5.07,3.58s-3,2.31-4.19,3.45a24.57,24.57,0,0,0-3.12,3.38,16.88,16.88,0,0,0-2.1,3.44,20.78,20.78,0,0,0-1.42,4.08,35.07,35.07,0,0,0-.83,4.86,81.49,81.49,0,0,0-.2,11.51l.15,3.18.17,3.15a32.58,32.58,0,0,0,.58,4.78,12.3,12.3,0,0,0,.43,1.46,4.3,4.3,0,0,0,.47.91,6,6,0,0,0,1.53,1.65c1.45,1.21,4.45,2.61,8.2,3.94s8.3,2.75,13.32,5a50.79,50.79,0,0,1,7.84,4.33,36.43,36.43,0,0,1,7.55,6.85,36.14,36.14,0,0,1,5.4,8.91,40.69,40.69,0,0,1,2.7,9.46,63.9,63.9,0,0,1,.17,16.82c-.5,5.09-1.32,9.75-2.06,14.14s-1.45,8.5-1.82,12.18l-.23,2.68-.11,2.77c0,1.9-.07,3.82,0,5.83.12,4,.28,8.23.54,12.68s.37,9.13.32,14a88.64,88.64,0,0,1-1.36,15.36,70.82,70.82,0,0,1-4.63,15.46c-4.25,9.68-9.95,17.7-15.53,25l-4.2,5.37c-1.36,1.73-2.85,3.67-4.66,5.71a39.65,39.65,0,0,1-6.69,6.16,26.34,26.34,0,0,1-9.89,4.43,21.6,21.6,0,0,1-11.94-.88,23.08,23.08,0,0,1-9.16-6.42,30.64,30.64,0,0,1-2.86-3.79c-.76-1.2-1.45-2.39-2-3.42-1.14-2.11-2-3.78-2.84-4.93a13.87,13.87,0,0,0-1.09-1.39,6.61,6.61,0,0,0-.84-.67,2,2,0,0,0-1.31-.32,8.51,8.51,0,0,0-2.9,1,16.8,16.8,0,0,0-1.84,1.12,6.06,6.06,0,0,0-1.66,1.65,30.29,30.29,0,0,0-2.65,6.05,27.21,27.21,0,0,1-1.95,4,18.56,18.56,0,0,1-3.55,4.17,19.77,19.77,0,0,1-5.6,3.37,22.33,22.33,0,0,1-3.39,1,24.77,24.77,0,0,1-3.47.55c-.57.05-1.16.11-1.71.12h-1.66a24.24,24.24,0,0,1-3.16-.25l-1.53-.22-1.51-.33a25.46,25.46,0,0,1-2.94-.82,32.5,32.5,0,0,1-9.95-5.49,39.22,39.22,0,0,1-6.8-7.09,46.78,46.78,0,0,1-4.54-7.49,62.37,62.37,0,0,1-3.14-7.51c-1.59-4.75-2.67-9-4-12.73a30.85,30.85,0,0,0-4.79-9.39,14.31,14.31,0,0,0-6.4-4.83,6.39,6.39,0,0,0-2.93-.26,7.12,7.12,0,0,0-3,1.23,8,8,0,0,0-2.35,2.54,5.33,5.33,0,0,0-.83,2.79,19.32,19.32,0,0,0,1.14,4.94c.34,1.07.73,2.39,1.05,3.76a22.22,22.22,0,0,1,.57,4.63,23.18,23.18,0,0,1-.12,2.49c-.14.82-.31,1.63-.48,2.44a17.58,17.58,0,0,1-1.95,4.59A20.1,20.1,0,0,1,372,425.7a29.37,29.37,0,0,1-7.32,3.4,46.65,46.65,0,0,1-7.31,1.68,66.24,66.24,0,0,1-7.23.71c-2.25.09-4.5.15-6.75.2-4.5.09-9,.19-13.49.16l-6.74-.08-1.71,0c-.64,0-1.28,0-1.88-.09-1.23-.09-2.37-.21-3.51-.33-2.23-.25-4.33-.49-6.28-.56a16,16,0,0,0-5.1.49,8.18,8.18,0,0,0-.95.38l-.44.21-.5.33-.5.32-.44.35a7,7,0,0,0-.8.72,6.5,6.5,0,0,0-1.76,3.45,11.42,11.42,0,0,0,.16,4.58,25.09,25.09,0,0,0,1.7,5.21,70.27,70.27,0,0,0,6,10.62l3.68,5.47c1.32,2,2.53,3.92,3.73,5.92,2.43,4,4.62,8.1,6.68,12.29a49.21,49.21,0,0,1,2.74,6.44l1.09,3.33c.19.56.18,1.15.34,1.68a10.89,10.89,0,0,0,.76,1.53c1.09,2,2.6,4,3.68,6.24a31.59,31.59,0,0,1,2.19,7.3,62.91,62.91,0,0,1,1.22,8.11,42.06,42.06,0,0,1-.13,8.88c-.08.74-.23,1.68-.38,2.49s-.35,1.67-.58,2.49a30.61,30.61,0,0,1-1.75,4.9,25.84,25.84,0,0,1-7,9.5,21.64,21.64,0,0,1-6.11,3.61,20.13,20.13,0,0,1-3.52,1l-.9.17c-.3.05-.51.06-.77.09l-1.5.11a17.48,17.48,0,0,1-3.07,0,25.43,25.43,0,0,1-3.14-.4c-1-.24-2.08-.51-3.09-.82s-1.91-.77-2.83-1.2a31.84,31.84,0,0,1-8.17-6.09c-.48-.5-1-1-1.44-1.5l-1.29-1.42L285.42,535a34.85,34.85,0,0,0-3.44-3.61c-.23-.18-.42-.31-.63-.48a1.11,1.11,0,0,0-.26-.19,1.88,1.88,0,0,1-.24-.14,3.66,3.66,0,0,0-1-.49,3.5,3.5,0,0,0-1.83-.17,1.15,1.15,0,0,0-.36.11c0,.05-.07,0-.21.18A7.82,7.82,0,0,0,276,532.6a38.72,38.72,0,0,0-1.77,5c-.32,1-.59,2-1.05,3.39a40.35,40.35,0,0,1-1.67,4.28,37.65,37.65,0,0,1-5.1,8.27c-.61.69-1.16,1.36-1.88,2l-1.05,1c-.38.33-.79.66-1.2,1a21.42,21.42,0,0,1-2.73,1.88,17.48,17.48,0,0,1-1.62.83,15.25,15.25,0,0,1-1.73.74,21.84,21.84,0,0,1-3.92,1,19.57,19.57,0,0,1-4.2.23,23.18,23.18,0,0,1-4.09-.6,21.72,21.72,0,0,1-3.87-1.4,24.83,24.83,0,0,1-6-4,38.76,38.76,0,0,1-3.9-4c-1.05-1.25-1.92-2.4-2.68-3.38l-.55-.7-.52-.6-1-1.16-4.1-4.64c-.69-.77-1.33-1.56-2-2.31l-2.19-2.22c-1.45-1.48-2.9-3-4.28-4.45l-1.05-1.12-1.11-1.1-2.2-2.19c-1.47-1.46-2.86-3-4.29-4.46s-2.94-3-4.36-4.48-2.86-3-4.25-4.58l-2.19-2.3c-.73-.77-1.46-1.53-2.13-2.35a39.21,39.21,0,0,1-6.34-11.8c-.86-2.21-1.61-4.55-2.56-6.73a48.47,48.47,0,0,0-3.13-6.24c-.6-1-1.23-1.9-1.91-2.8s-1.4-1.72-2.12-2.58c-1.42-1.72-2.88-3.39-4.35-5.06-2.95-3.33-6-6.58-9.2-9.68s-6.44-6.19-9.76-9.18-6.6-6.08-9.87-9.19l-4.86-4.72c-1.62-1.57-3.25-3.13-4.83-4.77s-3.17-3.25-4.81-4.84l-2.44-2.39-2.36-2.51c-1.55-1.68-3.15-3.34-4.75-5s-3.11-3.42-4.65-5.15l-4.61-5.23c-1.52-1.77-2.9-3.67-4.35-5.52l-4.29-5.6q-2-2.91-3.9-5.88a168.29,168.29,0,0,1-12.84-24.57,94,94,0,0,1-4.49-12.81c-1.19-4.36-2-8.82-2.89-13.26-.41-2.23-.87-4.44-1.35-6.64s-1-4.4-1.57-6.56c-1.14-4.33-2.62-8.52-4.1-12.71s-3-8.35-4.54-12.55c-.81-2.16-1.59-4.34-2.27-6.59s-1.27-4.37-1.83-6.83a25.86,25.86,0,0,1-.56-3.92,14.06,14.06,0,0,1,.38-4.67,9.56,9.56,0,0,1,3-4.89A8.77,8.77,0,0,1,69,277.26a12,12,0,0,1,4.9,1.23,21.74,21.74,0,0,1,3.51,2.11c1,.75,2,1.53,2.89,2.28s1.83,1.61,2.67,2.43,1.67,1.67,2.45,2.5l.59.63.67.74c.42.49.81,1,1.15,1.4a25.93,25.93,0,0,0,1.86,2.16,4.16,4.16,0,0,0,1.26.93.88.88,0,0,0,.29.06,2.62,2.62,0,0,0,.61-.07,7.27,7.27,0,0,0,1.89-.72,15.59,15.59,0,0,0,4-3.25,14.66,14.66,0,0,0,1.55-2,22,22,0,0,0,1.26-2.41,30.44,30.44,0,0,0,1.76-5.54c.45-2,.78-4.05,1.1-6.21l.93-6.57,3.56-26.39,1.78-13.2c.69-4.85,2.09-10.22,6.15-14.86a12.47,12.47,0,0,1,2.11-1.87,9,9,0,0,1,3.65-1.45,8,8,0,0,1,2.39,0,10.34,10.34,0,0,1,1.16.28c.34.13.68.27,1,.42a4.65,4.65,0,0,1,.87.5l.77.53A14,14,0,0,1,129,212a11.33,11.33,0,0,1,1.74,2.47c.4.78.67,1.44.88,1.94a10.3,10.3,0,0,0,.46,1,1,1,0,0,0,.11.15s0,0,0,0l.1.12a12.65,12.65,0,0,0,3.84,2.36,27.87,27.87,0,0,0,5.32,1.75,49.44,49.44,0,0,0,11.95,1c2.32-.05,4.38,0,6.06-.23a11.21,11.21,0,0,0,2.06-.46,2.69,2.69,0,0,0,.94-.54c.1-.06.14-.19.24-.27s.16-.25.2-.51a2.15,2.15,0,0,0,.14-1.11,6.56,6.56,0,0,0-1.59-3.18,11.92,11.92,0,0,0-1.67-1.66c-.31-.25-.63-.49-.95-.71s-.63-.4-1.05-.62a27.55,27.55,0,0,0-5.14-2.05,70.12,70.12,0,0,0-12.26-2,79.6,79.6,0,0,1-13.83-2.29,25.62,25.62,0,0,1-13-7.91,15.3,15.3,0,0,1-3.09-7.58,18.12,18.12,0,0,1,.7-7.75,13.67,13.67,0,0,1,4.42-6.68,9.5,9.5,0,0,1,3.92-1.8,10.11,10.11,0,0,1,4.18.1,13.63,13.63,0,0,1,3.63,1.44c1.08.61,2,1.27,2.9,1.82a11.33,11.33,0,0,0,2.56,1.28,3.65,3.65,0,0,0,1.12.24,3.06,3.06,0,0,0,1.06-.14,2.31,2.31,0,0,0,.84-.44l.16-.15a.16.16,0,0,1,.06-.08,2,2,0,0,0,.15-.39,8.94,8.94,0,0,0,.2-2.75c-.08-2.06-.53-4.24-.65-6.57-.17-2.08-.58-4.31-.76-6.6a23.22,23.22,0,0,1-.06-3.55,11.19,11.19,0,0,1,.82-3.71c.15-.31.32-.61.49-.91a8.25,8.25,0,0,1,.62-.84,7.06,7.06,0,0,1,5.35-2.51,20.73,20.73,0,0,1,3.54.26c1.09.14,2.17.26,3.27.37,4.37.43,8.82.65,13.25,1.06l53.09,4.2,26.55,2c2.2.17,4.44.31,6.66.6s4.4.58,6.6.82a63.23,63.23,0,0,0,6.58.45,29.37,29.37,0,0,0,6.5-.51,12.2,12.2,0,0,0,5.71-2.63,9.88,9.88,0,0,0,3-5.46c.92-4.23.43-8.7-.09-13.07-.27-2.2-.6-4.42-.71-6.64l-.42-6.65-.84-13.29L274,100l-.4-6.65-.23-6.65L273,73.43a56.49,56.49,0,0,0-.57-6.62,22.73,22.73,0,0,1-.06-6.64Zm.09,0a12.73,12.73,0,0,0-.09,3.32c.09,1.1.23,2.19.4,3.29a56.11,56.11,0,0,1,.83,6.63l1,13.28.46,6.64.6,6.63,1,13.26.84,13.27.42,6.64c.12,2.21.44,4.33.71,6.56.51,4.42,1.06,9,.07,13.66a11.57,11.57,0,0,1-3.51,6.34,13.86,13.86,0,0,1-6.49,3,30.18,30.18,0,0,1-6.87.53c-2.27,0-4.51-.23-6.74-.49s-4.43-.57-6.61-.85c-1.1-.14-2.18-.26-3.27-.36l-3.32-.27-26.54-2.15-53.08-4.3c-4.42-.37-8.85-.56-13.28-1-1.11-.1-2.21-.22-3.32-.35a20.18,20.18,0,0,0-3.28-.23,5.81,5.81,0,0,0-3,.93,5.69,5.69,0,0,0-2.05,2.43,14.05,14.05,0,0,0-.59,6.49c.19,2.2.61,4.38.81,6.6s.6,4.39.7,6.62a10.37,10.37,0,0,1-.23,3.33,3.39,3.39,0,0,1-2.31,2.29,5.14,5.14,0,0,1-3.31,0,13,13,0,0,1-3-1.41c-1.89-1.14-3.75-2.45-5.94-2.87a8.05,8.05,0,0,0-3.28,0,7.1,7.1,0,0,0-2.94,1.44,10.86,10.86,0,0,0-3.4,5.56,15.4,15.4,0,0,0-.34,6.58,12.31,12.31,0,0,0,2.67,6,22.21,22.21,0,0,0,11.47,6.3c8.65,2.14,17.73,1,26.37,3.28,4.27,1.1,8.55,2.95,11.45,6.38a11.19,11.19,0,0,1,2.87,5.9,7.16,7.16,0,0,1-.32,3.28,8.53,8.53,0,0,1-.64,1.53,6.78,6.78,0,0,1-1,1.31,7.62,7.62,0,0,1-2.78,1.78,15.59,15.59,0,0,1-3.22.78,64.21,64.21,0,0,1-6.65.31A54.4,54.4,0,0,1,140.26,227a32.68,32.68,0,0,1-6.31-2.1,16.87,16.87,0,0,1-5.5-3.66c-1.59-1.62-1.7-4.11-3.26-5.76a3.39,3.39,0,0,0-2.91-1.29,5,5,0,0,0-2.77,1.72,18.39,18.39,0,0,0-3.38,5.7,31.54,31.54,0,0,0-1.6,6.45l-1.93,13.17-3.87,26.34c-.68,4.39-1.18,8.81-2.16,13.14s-2.59,8.61-5.63,11.9a20.27,20.27,0,0,1-5.17,4.14,11.55,11.55,0,0,1-3.12,1.13,5.7,5.7,0,0,1-3.27-.22c-2.09-.86-3.5-2.71-4.87-4.42a53.54,53.54,0,0,0-4.5-4.9A47.29,47.29,0,0,0,75,284c-1.78-1.27-3.78-2.49-6-2.57a4.58,4.58,0,0,0-3.07,1.06,5.41,5.41,0,0,0-1.72,2.79,14.4,14.4,0,0,0,.25,6.59c2,8.69,6,16.71,9.24,24.94l10.21,24.59c3.41,8.2,6.77,16.41,10.36,24.53s7.43,16.13,11.78,23.87q1.64,2.9,3.36,5.75l3.65,5.56c1.24,1.84,2.39,3.74,3.7,5.53l4,5.33c10.72,14.16,23.1,27,35.89,39.27s26,24.14,38.71,36.56,24.82,25.46,35.15,39.91l2,2.69c.62.92,1.2,1.86,1.81,2.79l3.59,5.61c1.23,1.84,2.29,3.8,3.56,5.62a14.22,14.22,0,0,0,4.74,4.58,8.33,8.33,0,0,0,6.45.57,13,13,0,0,0,5.41-3.75,24,24,0,0,0,3.69-5.51,44.38,44.38,0,0,0,2.4-6.2,50.73,50.73,0,0,1,2.45-6.19,17.71,17.71,0,0,1,3.8-5.41,11.34,11.34,0,0,1,5.87-2.93,14.54,14.54,0,0,1,6.59.38,17.13,17.13,0,0,1,5.85,3.08,44.47,44.47,0,0,1,4.78,4.63c1.51,1.63,3,3.3,4.58,4.83a21.36,21.36,0,0,0,5.35,3.9,12.15,12.15,0,0,0,6.47,1.16,9.72,9.72,0,0,0,3.24-.68,10.25,10.25,0,0,0,2.82-1.73,14.82,14.82,0,0,0,3.8-5.39,21.27,21.27,0,0,0,1.67-6.42,42,42,0,0,0-.94-13.22,111.78,111.78,0,0,0-3.72-12.78,204.15,204.15,0,0,0-10-24.65c-1.91-4-4.09-7.87-6.14-11.81a81.33,81.33,0,0,1-5.27-12.21,32.82,32.82,0,0,1-1.41-6.49,17.26,17.26,0,0,1,.44-6.6,12,12,0,0,1,3.42-5.62,14.89,14.89,0,0,1,5.7-3.32c4.33-1.16,8.85-.49,13.23,0a54.56,54.56,0,0,0,6.64.43c2.22,0,4.43,0,6.65,0q6.66,0,13.31-.29a99.65,99.65,0,0,0,13.26-1.11A41.89,41.89,0,0,0,362.9,424a24.83,24.83,0,0,0,6-2.93,14.78,14.78,0,0,0,4.53-4.78,11.79,11.79,0,0,0,1.52-6.39c-.15-4.5-2.86-8.39-3.36-12.83s1.7-8.9,5-11.77a15,15,0,0,1,5.81-3.13A14.39,14.39,0,0,1,389,382c4.39.86,8.22,3.52,11.28,6.68a44.79,44.79,0,0,1,7.42,11c2,4,3.7,8.07,5.65,12.05a50.07,50.07,0,0,0,7.24,11.13c2.93,3.29,6.52,6.19,10.8,7.47A17.19,17.19,0,0,0,438,431a13.81,13.81,0,0,0,3.24-.72,16.09,16.09,0,0,0,3-1.49c3.77-2.4,6.55-6,9.9-8.87s7.33-5.29,11.8-5.68a11.06,11.06,0,0,1,6.4,1.41,14.36,14.36,0,0,1,2.66,2,20.88,20.88,0,0,1,2.17,2.52c2.61,3.58,4.23,7.84,7.27,11.12a13.44,13.44,0,0,0,5.45,3.7,11.78,11.78,0,0,0,6.55.33,15.81,15.81,0,0,0,5.94-2.89,28.12,28.12,0,0,0,4.69-4.69c1.4-1.73,2.67-3.54,4-5.35l3.81-5.46c5-7.3,9.78-14.88,13-23.18a58.75,58.75,0,0,0,3.36-12.85,84.07,84.07,0,0,0,.79-13.27c-.13-8.88-1.13-17.71-1.33-26.59a92.11,92.11,0,0,1,.55-13.29c.54-4.41,1.42-8.77,2.27-13.12s1.72-8.71,2.26-13.12a49.9,49.9,0,0,0,.11-13.26,24.14,24.14,0,0,0-5.13-12.09c-2.78-3.48-6.67-5.87-10.69-7.71s-8.28-3.17-12.44-4.72-8.31-3.29-11.76-6.13a18.59,18.59,0,0,1-4.34-5,19.79,19.79,0,0,1-2.31-6.22,43,43,0,0,1-.76-6.61c-.12-2.22-.21-4.43-.28-6.65a92.28,92.28,0,0,1,.39-13.3,45.48,45.48,0,0,1,1.21-6.55A32.48,32.48,0,0,1,491.9,207a29.08,29.08,0,0,1,3.53-5.63,36.68,36.68,0,0,1,4.57-4.84,94,94,0,0,1,10.65-8,131.18,131.18,0,0,0,10.79-7.78,30.9,30.9,0,0,0,8.28-10.27,26.79,26.79,0,0,0,3.1-12.78,15.75,15.75,0,0,0-1.56-6.4,13.78,13.78,0,0,0-1.86-2.74,14.79,14.79,0,0,0-2.48-2.19h0a9.85,9.85,0,0,1-5.2-2.26,20.7,20.7,0,0,1-3.8-4.29c-2.2-3.12-3.94-6.57-6.46-9.45a29.61,29.61,0,0,0-4.13-3.94,31.9,31.9,0,0,0-4.82-3.06A36.74,36.74,0,0,0,491.66,120,54.11,54.11,0,0,0,469,121.6a59.3,59.3,0,0,0-10.68,4.1,54.33,54.33,0,0,0-5,2.85l-4.74,3.22a29.82,29.82,0,0,1-5,2.77,12.85,12.85,0,0,1-5.6,1.06,12,12,0,0,1-5.43-1.74,10.49,10.49,0,0,1-4-4,13.89,13.89,0,0,1-1.5-5.51c-.18-1.9-.17-3.82-.25-5.72-.14-3.82-.75-7.6-1.13-11.4A36.83,36.83,0,0,1,426,95.79a28.1,28.1,0,0,1,4.9-10.29c2.2-3.12,4.67-6.06,6.77-9.24a23.67,23.67,0,0,0,2.7-5,20.33,20.33,0,0,0,1.21-5.56,18.08,18.08,0,0,0-.44-5.68,11.81,11.81,0,0,0-2.54-5,6.41,6.41,0,0,0-2.27-1.66,7.34,7.34,0,0,0-2.79-.46A18.06,18.06,0,0,0,428,54a30.57,30.57,0,0,1-5.56,1.39l-5.66.95a90.78,90.78,0,0,1-11.4,1.16c-7.66.31-15.26-1-22.75-2.45-3.75-.72-7.49-1.49-11.26-2.1s-7.56-1.13-11.36-1.53c-7.59-.81-15.23-1.2-22.87-1.3s-15.28.05-22.9.64l-11.42.92-5.72.44a45.64,45.64,0,0,1-5.73.14c-3.8-.11-7.66-.37-11.41.43a10.14,10.14,0,0,0-5.06,2.5,6,6,0,0,0-.5.51l-.41.59a6,6,0,0,0-.72,1.22,10.3,10.3,0,0,0-.82,2.72Z"/></svg>