<svg id="Layer_1" data-name="Layer 1" xmlns="http://www.w3.org/2000/svg" viewBox="0 0 600 600"><title>Georgia</title><path d="M66.09,202.3c.62.69,1.28,1.35,1.92,2a24.27,24.27,0,0,0,2,1.94,42.87,42.87,0,0,0,4.35,3.49c3,2.14,6.09,4.23,9.26,6.11a87.78,87.78,0,0,0,9.8,5,83.33,83.33,0,0,0,10.33,3.64c1.75.5,3.52.9,5.29,1.29l2.67.5c.89.16,1.87.29,2.91.56a10.12,10.12,0,0,1,3.28,1.39,7.2,7.2,0,0,1,2.6,3.22,13.87,13.87,0,0,1,.86,3.31,11.25,11.25,0,0,0,.56,2.39c.82,2.81,3,4.87,5.73,6.6a69.71,69.71,0,0,0,9.57,4.44A63.16,63.16,0,0,1,148,253.47a37,37,0,0,1,9.31,8.93c5,6.88,7.87,14.54,10.28,21.8l6.82,21.38,3.39,10.64c1.14,3.56,2.29,7.35,3.28,11.31a67.07,67.07,0,0,1,2,12.77,39.67,39.67,0,0,1-1.88,14.55c-.21.63-.43,1.26-.66,1.88s-.56,1.22-.85,1.83a29.25,29.25,0,0,1-2,3.53,22.21,22.21,0,0,1-2.31,3.14c-.76.91-1.49,1.69-2.17,2.37-1.32,1.37-2.38,2.37-3,3.11a6.85,6.85,0,0,0-.65.83c-.19.15-.24.41-.41.64a7,7,0,0,0,0,4.62,11.5,11.5,0,0,0,.51,1.34l.35.62.16.32.21.27a7.67,7.67,0,0,0,1.75,1.9,6.57,6.57,0,0,0,2,1,10.56,10.56,0,0,0,3.27.17c2.58-.22,5.8-1.28,9.54-2.43,1.87-.57,3.89-1.15,6.08-1.61a32.66,32.66,0,0,1,7-.71,33.59,33.59,0,0,1,13.34,3,35.81,35.81,0,0,1,5.81,3.24c2,1.37,3.47,2.68,4.73,3.68a11.35,11.35,0,0,0,1.69,1.17c.25.16.45.22.66.34s.37.15.52.17a3.58,3.58,0,0,0,.43.08c.15-.05.27,0,.44-.06l.25,0,.29-.11a1.93,1.93,0,0,0,.5-.21,1.8,1.8,0,0,0,.66-.57,8.22,8.22,0,0,0,.74-1.26c.3-.59.63-1.34,1-2.22l.29-.68c.1-.24.19-.46.35-.77a17,17,0,0,1,.93-1.73,21.23,21.23,0,0,1,5.29-6,20,20,0,0,1,7.7-3.64,19.78,19.78,0,0,1,9,0,23.38,23.38,0,0,1,8.12,3.78,42.84,42.84,0,0,1,5.65,5l4.09,4.33c5.09,5.29,9.94,10.45,14.58,15a74.66,74.66,0,0,0,13.82,11,31,31,0,0,0,6.82,2.77,22.84,22.84,0,0,0,3.5.48,22.28,22.28,0,0,0,3.65,0,42.94,42.94,0,0,0,8.12-1.81c2.91-1,5.93-2.1,9.15-3.53l10.24-4.49c.89-.39,1.82-.78,2.78-1.17s1.87-.78,2.86-1.16c2-.75,4-1.51,6.13-2.18s4.39-1.28,6.64-1.86,4.79-1,7.16-1.25a115.73,115.73,0,0,1,13.06-.75c7.84-.06,14.38,0,18.09-1.09a9.38,9.38,0,0,0,3.74-1.61c.25-.11.37-.31.75-.55a10.2,10.2,0,0,1,1.5-.8c1.28-.6,3.22-1.34,5.35-2.43,1.06-.53,2.2-1.16,3.35-1.85s2.24-1.37,3.32-2.09a53.41,53.41,0,0,1,6.83-3.66,52.65,52.65,0,0,1,7.2-2.76c1.22-.39,2.46-.73,3.72-1s2.58-.56,3.89-.77a45.48,45.48,0,0,1,16.35.19,36.72,36.72,0,0,1,8.42,2.72,35.4,35.4,0,0,1,7.65,4.8,62,62,0,0,1,9.28,10c1.07,1.36,2,2.49,2.79,3.38.2.2.38.41.57.62l.51.55.48.46a1.37,1.37,0,0,1,.21.23c.21.25.09.34.22.5s.7.34,1.94.28,3-.3,5.17-.57a44.22,44.22,0,0,1,7.79-.38l1.11.07.56,0,.72.09a22.6,22.6,0,0,1,3,.6,22,22,0,0,1,5.35,2.28,27.06,27.06,0,0,1,6.84,6,58.74,58.74,0,0,1,3.85,5.28c1,1.55,1.9,2.87,2.55,3.74l.42.56c.13.16.26.26.39.4a5,5,0,0,0,.88.75c.13.16.36.21.53.32a5.24,5.24,0,0,0,.57.32,9.75,9.75,0,0,0,1.32.48,11.41,11.41,0,0,0,6.31-.12l.79-.23.74-.32.38-.14.33-.2c.22-.14.45-.27.68-.39a9.13,9.13,0,0,0,2.11-1.92,3.44,3.44,0,0,0,.39-.55c.09-.19.2-.38.31-.57a3.48,3.48,0,0,0,.3-.64,6.09,6.09,0,0,0,.27-.71,11.38,11.38,0,0,0,.43-3.13c0-4.46-2.71-9.73-6.37-13.27a33.74,33.74,0,0,0-6.7-4.83c-.68-.43-1.39-.86-2.13-1.3-.38-.21-.61-.68-1-.85a9.19,9.19,0,0,0-1.35-.35c-1-.19-2-.24-3-.42-.26,0-.52-.08-.77-.14s-.68-.23-1-.36a10.91,10.91,0,0,1-1.88-1,27.48,27.48,0,0,1-5.81-5.73,29.46,29.46,0,0,1-2.15-3.21c-.32-.55-.61-1.1-.88-1.66l-.41-.83-.19-.42a1.59,1.59,0,0,1-.08-.22,17.15,17.15,0,0,0-.93-2.28l-1.33-3q-.71-1.56-1.41-3.45a25.34,25.34,0,0,1-1.32-4.52c-.08-.49-.15-.92-.22-1.46s-.08-1.14-.09-1.7a16.68,16.68,0,0,1,.16-2,15.18,15.18,0,0,1,.55-2.21,7.69,7.69,0,0,1,.34-.82l.34-.69a9.55,9.55,0,0,1,.8-1.35,13.75,13.75,0,0,1,2.07-2.51,16,16,0,0,1,4.66-3,27.24,27.24,0,0,1,3.5-1.22c.92-.27,1.68-.47,2.09-.65s.55-.27.52-.23a.62.62,0,0,0,.24-.49,1.33,1.33,0,0,0-.26-.85c-.05-.08-.12-.16-.18-.25a.85.85,0,0,1-.25-.2c0-.11-.19-.11-.26-.19a.52.52,0,0,1-.11-.1l-.21-.08a6.52,6.52,0,0,0-1-.42c-.26-.06-.51-.12-.76-.2s-.62-.12-.91-.19c-1.3-.26-2.84-.44-4.67-.63s-3.77-.37-6.06-.82c-.54-.09-1.14-.23-1.75-.38s-1.17-.26-1.84-.49-1.29-.42-1.94-.66-1.38-.61-2.06-.93a21.74,21.74,0,0,1-4-2.68,27.25,27.25,0,0,1-3-3,57.83,57.83,0,0,1-3.79-5,15.67,15.67,0,0,0-2.14-2.61c-.23-.17-.34-.27-.47-.37a3.89,3.89,0,0,0-.87-.42,36.67,36.67,0,0,0-4.16-1,41.6,41.6,0,0,1-7-1.92,21.05,21.05,0,0,1-4.14-2.19,16.36,16.36,0,0,1-2.08-1.67c-.35-.33-.69-.63-1-1s-.64-.75-.94-1.14a16.12,16.12,0,0,1-1.58-2.54,15.48,15.48,0,0,1-1-2.75,16.32,16.32,0,0,1-.52-5.32,20.54,20.54,0,0,1,2.53-8.38,23.92,23.92,0,0,1,2.22-3.37c.2-.26.43-.52.65-.78a8.26,8.26,0,0,1,.62-.71l1.07-1.11a38.56,38.56,0,0,0,3.21-3.41,8.76,8.76,0,0,0,.78-1.19,3.25,3.25,0,0,0,.36-.91,3.66,3.66,0,0,0-.31-2c-.06-.15-.15-.28-.22-.42a4.91,4.91,0,0,1-.41-.48c-.11-.19-.31-.25-.45-.39l-.22-.18-.28-.12c-1.34-.76-3.92-.4-6.7.55s-5.8,2.38-9.49,3.55a17.73,17.73,0,0,1-3.62.84,15.15,15.15,0,0,1-5.53-.4l-.78-.23c-.3-.1-.64-.22-.95-.35a11.34,11.34,0,0,1-1.78-.88,12.63,12.63,0,0,1-1.51-1.07c-.44-.38-.84-.76-1.22-1.15a21.34,21.34,0,0,1-2.85-4.14c-.65-1.2-1.2-2.21-1.64-3.09l-.59-1.15c-.15-.28-.34-.6-.52-.91a21.69,21.69,0,0,0-2.56-3.52,24.58,24.58,0,0,0-3.09-2.89,16.32,16.32,0,0,0-3.35-2c-.27-.14-.55-.22-.83-.34s-.43-.11-.64-.18a7.16,7.16,0,0,0-1.19-.12,4,4,0,0,0-1.85.39,2.07,2.07,0,0,0-.78.79,1.63,1.63,0,0,1-.11.23c0,.11-.09.14-.11.27a3.86,3.86,0,0,0-.19.67l-.45,1.83c-.21.85-.46,1.94-.89,3.28a22.7,22.7,0,0,1-.8,2.16c-.15.36-.36.78-.54,1.16-.08.17-.27.49-.4.73l-.47.76a8.71,8.71,0,0,1-.54.8c-.26.34-.54.66-.83,1a11,11,0,0,1-1,1,15.76,15.76,0,0,1-1.52,1.13,9.35,9.35,0,0,1-1.94,1,12.29,12.29,0,0,1-2.44.68,13.33,13.33,0,0,1-2.68.07,10.37,10.37,0,0,1-2.31-.46,11.86,11.86,0,0,1-3.31-1.61,12.67,12.67,0,0,1-1-.79c-.28-.24-.65-.56-.85-.77a17.67,17.67,0,0,1-2.06-2.53,24.88,24.88,0,0,1-2.18-4.07c-.14-.32-.28-.66-.41-1l-.11-.31-.06-.18c-.08-.26-.18-.49-.26-.72-.17-.47-.34-.88-.51-1.27a8.65,8.65,0,0,0-3.29-4.32,13.37,13.37,0,0,0-7.93-2.15,19.77,19.77,0,0,0-2.35.22c-.92.18-1.82.31-2.66.52A9.49,9.49,0,0,0,368,266a10.21,10.21,0,0,0-2.14,2.82c-.19.37-.37.66-.52.93a3.49,3.49,0,0,0-.19.39l-.22.61a21.68,21.68,0,0,1-1.59,3.65,12.5,12.5,0,0,1-2.21,2.83,11.8,11.8,0,0,1-3.23,2.22,14.29,14.29,0,0,1-1.46.6c-.45.15-.89.28-1.34.4a17.25,17.25,0,0,1-2.5.43,25.16,25.16,0,0,1-4.11.07l-2.87-.2a8.1,8.1,0,0,0-1.56,0,.87.87,0,0,0-.27.07,1.56,1.56,0,0,1-.17.09c-.22.1-.71.35-1.42.76s-1.67,1-2.92,1.56a17.93,17.93,0,0,1-2.12.86c-.39.13-.75.26-1.18.38s-.9.22-1.35.31a14.71,14.71,0,0,1-3.32.25,11.84,11.84,0,0,1-2-.25,11.39,11.39,0,0,1-2.16-.64A12.3,12.3,0,0,1,325,283a13.79,13.79,0,0,1-1.87-1.52,14.09,14.09,0,0,1-1.43-1.71,14.75,14.75,0,0,1-1-1.69,16.42,16.42,0,0,1-1.59-5.68,25.69,25.69,0,0,1-.07-4.35c.19-2.63.59-4.59.71-5.93a4.64,4.64,0,0,0,0-1.38c0-.25-.11-.42-.13-.63a5.29,5.29,0,0,0-1-1.41,6.1,6.1,0,0,0-.44-.45c-.18-.15-.36-.3-.53-.46a14.91,14.91,0,0,0-1.34-.94,18.82,18.82,0,0,0-3.39-1.71,27.3,27.3,0,0,0-3.9-1.26c-.33-.1-.66-.15-1-.22l-.51-.11-.62-.11-2.58-.44a109.62,109.62,0,0,1-11.86-2.34,46.51,46.51,0,0,1-6.76-2.43,32.09,32.09,0,0,1-6.89-4.35c-.54-.47-1.08-1-1.61-1.44s-1-1.06-1.47-1.6a30.91,30.91,0,0,1-2.45-3.27c-1.39-2.14-2.33-4.05-3.12-5.5-.4-.75-.74-1.31-1.05-1.83a9.66,9.66,0,0,0-.77-1.05,3.84,3.84,0,0,0-1.14-.94,4.19,4.19,0,0,0-1.47-.33,15.7,15.7,0,0,0-3.45.39c-1.49.29-3.18.73-5.25,1.19-1,.24-2.16.44-3.27.64a32.26,32.26,0,0,1-3.89.38l-1.05,0h-.53l-.57,0c-.77,0-1.54-.11-2.3-.19s-1.6-.31-2.4-.5a13.26,13.26,0,0,1-2.36-.77,16.84,16.84,0,0,1-2.28-1c-.71-.42-1.4-.85-2.09-1.3l-.5-.33-.42-.32-.79-.64c-.5-.42-1-.84-1.4-1.24-1.7-1.62-2.91-3-3.84-3.81a9.78,9.78,0,0,0-2.31-1.68,8.39,8.39,0,0,0-2.61-.77,19.1,19.1,0,0,0-4,0c-1.56.11-3.33.33-5.25.56-.94.12-2,.19-3,.26l-3.06.22a90.46,90.46,0,0,1-24.05-2,124.64,124.64,0,0,1-22.35-7.1,205.25,205.25,0,0,1-20.58-10.06c-6.63-3.66-13-7.59-19.37-11.58l-9.41-6a26.86,26.86,0,0,0-9.31-4c-3.11-.61-6.6.25-10.48.7a19.22,19.22,0,0,1-6.09-.13,20,20,0,0,1-5.61-2.18c-3.4-1.85-6.31-4.16-9.57-5.56a11.86,11.86,0,0,0-5-1.06c-1.63-.11-3,1-4.51,2.16l-2.14,1.7a22,22,0,0,0-1.87,2c-1.18,1.41-2.32,2.9-3.46,4.36a14.2,14.2,0,0,0-1.53,2.28c-.37.84-.79,1.64-1.14,2.51-.73,1.72-1.48,3.42-2.08,5.17a6,6,0,0,0-.46,2.67A3,3,0,0,0,51.46,195,7.23,7.23,0,0,0,54,196c.9.19,1.83.31,2.74.48a12.74,12.74,0,0,1,5.1,2.22A23.66,23.66,0,0,1,66,202.37Zm-.06.07A16.65,16.65,0,0,0,64,200.51a19.54,19.54,0,0,0-2.25-1.6,15.55,15.55,0,0,0-2.44-1.24,8.91,8.91,0,0,0-2.59-.67c-.9-.12-1.83-.19-2.79-.34a7.71,7.71,0,0,1-2.9-.92,4,4,0,0,1-1.26-1.21,4.4,4.4,0,0,1-.6-1.64,5.56,5.56,0,0,1,0-1.68,13.19,13.19,0,0,1,.36-1.47c.54-1.85,1.22-3.62,1.87-5.33l.24-.64.3-.68.58-1.37a16.1,16.1,0,0,1,1.58-2.52c1.1-1.52,2.16-3,3.35-4.51a23.7,23.7,0,0,1,2-2.2l2.23-1.89A24.14,24.14,0,0,1,64,168.85a6.94,6.94,0,0,1,1.53-.71,6.07,6.07,0,0,1,1.68-.28,14.15,14.15,0,0,1,6,1c3.69,1.47,6.7,3.75,9.91,5.35A17.19,17.19,0,0,0,88,176a15.9,15.9,0,0,0,5.19-.08c1.79-.26,3.6-.68,5.49-1a20.84,20.84,0,0,1,5.86-.18,30.24,30.24,0,0,1,10.77,4l9.68,5.56c6.45,3.69,12.94,7.29,19.58,10.59a205.52,205.52,0,0,0,20.35,8.95,118.75,118.75,0,0,0,21.41,5.9,86.15,86.15,0,0,0,22.16,1.1c1.84-.21,3.69-.34,5.53-.62s3.67-.58,5.53-.79a30.61,30.61,0,0,1,5.58-.18,16.6,16.6,0,0,1,5.43,1.3,18.14,18.14,0,0,1,4.7,3c1.41,1.22,2.68,2.58,4.06,3.83a16.49,16.49,0,0,0,2.18,1.72l1.18.72a8.13,8.13,0,0,0,1.28.56,5.33,5.33,0,0,0,1.32.41c.45.09.9.21,1.36.28a16.14,16.14,0,0,0,2.78.06c3.73-.18,7.28-1.46,10.91-2.22a25.74,25.74,0,0,1,5.52-.69,14.24,14.24,0,0,1,5.43,1.1,13.13,13.13,0,0,1,4.44,3.3,24,24,0,0,1,3.09,4.63c.9,1.62,1.75,3.29,2.77,4.84a19,19,0,0,0,1.68,2.22l.94,1,1,.93a22.33,22.33,0,0,0,4.7,3,36,36,0,0,0,5.24,1.9c3.58,1,7.26,1.59,10.92,2.24,1.83.34,3.66.66,5.46,1.13a36.05,36.05,0,0,1,5.26,1.85,28.17,28.17,0,0,1,4.87,2.69,18.53,18.53,0,0,1,4.13,3.72,13.24,13.24,0,0,1,2.6,4.88,11.69,11.69,0,0,1,.38,2.76,15.14,15.14,0,0,1-.15,2.77c-.24,1.85-.64,3.67-.8,5.52a11,11,0,0,0,.67,5.48,3.73,3.73,0,0,0,1.94,1.91,5.11,5.11,0,0,0,2.74.2,18.12,18.12,0,0,0,5.13-2.12,12.2,12.2,0,0,1,5.26-1.72,38.34,38.34,0,0,1,5.56.34,11.1,11.1,0,0,0,5.48-.65,4.36,4.36,0,0,0,2-1.86,17.64,17.64,0,0,0,1.13-2.55,11.55,11.55,0,0,1,3.13-4.55,17.17,17.17,0,0,1,4.72-2.92,36.37,36.37,0,0,1,5.29-1.74c1.8-.46,3.6-.94,5.44-1.24a24.85,24.85,0,0,1,11.05.49,17,17,0,0,1,5,2.39,15.7,15.7,0,0,1,3.88,4,23.15,23.15,0,0,1,2.48,5,14.85,14.85,0,0,0,1.31,2.46,4.46,4.46,0,0,0,2,1.84,2,2,0,0,0,.69.07,1.61,1.61,0,0,0,.63-.27,1.88,1.88,0,0,0,.52-.45,2.49,2.49,0,0,0,.42-.56,11.11,11.11,0,0,0,1.17-2.52c.59-1.77.93-3.6,1.58-5.35a12.09,12.09,0,0,1,3-4.62,11.45,11.45,0,0,1,4.85-2.63,14.37,14.37,0,0,1,10.74,1.74,28.82,28.82,0,0,1,8.35,7.28,33.37,33.37,0,0,1,3.1,4.63c.92,1.62,1.58,3.37,2.55,5a9.79,9.79,0,0,0,1.72,2.18,4.85,4.85,0,0,0,2.48,1.2,13,13,0,0,0,5.49-.69A80.93,80.93,0,0,1,460.29,276a25.21,25.21,0,0,1,5.56-.11,12.36,12.36,0,0,1,5.26,1.7l.6.36.54.44a7.66,7.66,0,0,1,1,.94c.3.35.62.69.92,1.05a9,9,0,0,1,.74,1.18,10,10,0,0,1,1.13,5.38,11,11,0,0,1-1.87,5.19,41.76,41.76,0,0,1-3.46,4.37,15.73,15.73,0,0,0-4.47,10,7.81,7.81,0,0,0,1.7,5.18,10.26,10.26,0,0,0,4.61,3c3.53,1.25,7.33,1.23,10.9,2.32a12.48,12.48,0,0,1,4.86,2.64,24.35,24.35,0,0,1,3.59,4.25c1.07,1.52,2.08,3.09,3.27,4.52a16.55,16.55,0,0,0,1.92,2,13.3,13.3,0,0,0,2.28,1.59c3.31,1.75,7.08,2.24,10.72,2.88a50.38,50.38,0,0,1,5.46,1.14,15.38,15.38,0,0,1,5.06,2.26,10.21,10.21,0,0,1,3.49,4.26,9.05,9.05,0,0,1,.55,5.46,8.32,8.32,0,0,1-2.89,4.65,14.91,14.91,0,0,1-5.06,2.26,11.73,11.73,0,0,0-4.93,2.47,6.41,6.41,0,0,0-1.43,2.37,4.77,4.77,0,0,0,.07,2.75,18.47,18.47,0,0,0,2.51,4.95c1,1.56,2.17,3,3.22,4.56a28.35,28.35,0,0,0,7.57,8.09c1.53,1.06,3.2,1.89,4.81,2.81s3.25,1.81,4.84,2.78a38.1,38.1,0,0,1,8.7,6.92,34.58,34.58,0,0,1,3.37,4.44,35.61,35.61,0,0,1,2.53,5,26.25,26.25,0,0,1,2,10.89,18.61,18.61,0,0,1-3.6,10.38,18.26,18.26,0,0,1-4,3.87l-1.18.75-.59.37-.63.31-1.25.61c-.43.18-.87.33-1.3.49a21.31,21.31,0,0,1-11,1,20.91,20.91,0,0,1-2.7-.68c-.45-.13-.86-.35-1.29-.51a9.19,9.19,0,0,1-1.27-.59,14.82,14.82,0,0,1-2.34-1.51c-.36-.29-.74-.55-1.09-.87s-.68-.63-1-1c-2.55-2.71-4.56-5.88-7.09-8.6a17.5,17.5,0,0,0-4.29-3.52A10.45,10.45,0,0,0,500,412c-3.73,0-7.34,1.08-11,1.67a19.13,19.13,0,0,1-5.55.18,14.07,14.07,0,0,1-5.23-1.82,36.33,36.33,0,0,1-8.28-7.42,65.09,65.09,0,0,0-7.82-7.93,23.58,23.58,0,0,0-10-4.61A30.84,30.84,0,0,0,441,392a38.18,38.18,0,0,0-19.69,9.78c-2.75,2.5-5.28,5.28-8.43,7.28a28.89,28.89,0,0,1-10.31,4.08c-7.34,1.43-14.85.79-22.26.56a98.56,98.56,0,0,0-11.14.1c-.93.06-1.86.14-2.77.29l-2.76.41c-1.82.39-3.65.72-5.44,1.24-7.2,1.9-14.07,4.8-21.05,7.34-3.49,1.29-7,2.45-10.61,3.43a60.36,60.36,0,0,1-11,1.84,42.61,42.61,0,0,1-11.09-.94,43.94,43.94,0,0,1-10.35-4.09,56.12,56.12,0,0,1-9.09-6.43,83.83,83.83,0,0,1-7.9-7.87,184.39,184.39,0,0,1-13.49-17.76c-2.09-3.06-4.05-6.28-6.82-8.78a12.37,12.37,0,0,0-10.23-3.33,13.26,13.26,0,0,0-9.06,5.91c-1,1.54-1.71,3.29-2.64,4.9a9.24,9.24,0,0,1-3.88,3.9,8.54,8.54,0,0,1-5.44.74,13.42,13.42,0,0,1-5-2.47c-1.51-1.08-3-2.25-4.54-3.23a30.82,30.82,0,0,0-5-2.46,28,28,0,0,0-10.9-1.92A34.79,34.79,0,0,0,189.35,387a67.61,67.61,0,0,1-10.64,3.33,20.38,20.38,0,0,1-5.57.26,15,15,0,0,1-5.28-1.72,16.24,16.24,0,0,1-4.31-3.51l-.47-.52-.41-.56c-.27-.38-.56-.75-.82-1.14a20.69,20.69,0,0,1-1.31-2.46,17,17,0,0,1-1.19-10.92,14.1,14.1,0,0,1,1-2.61,12.36,12.36,0,0,1,1.41-2.41,45.92,45.92,0,0,1,3.6-4.27,33.69,33.69,0,0,0,3.52-4.3,19.32,19.32,0,0,0,1.41-2.4c.21-.41.43-.82.62-1.24l.5-1.3a30.52,30.52,0,0,0,1.8-10.93A60.61,60.61,0,0,0,172,329.21c-.68-3.65-1.59-7.26-2.52-10.86l-2.79-10.8L161.13,286c-1.95-7.16-4.29-14.32-8.37-20.57a31.8,31.8,0,0,0-7.6-8.05,61.58,61.58,0,0,0-9.74-5.39,69.2,69.2,0,0,1-9.8-5.31c-.38-.27-.74-.57-1.11-.85a9.1,9.1,0,0,1-1.06-.91l-1-1-.9-1.08a12.61,12.61,0,0,1-2.42-5c-.53-1.8-.34-3.73-1-5.47a4.62,4.62,0,0,0-1.64-2.16,7.93,7.93,0,0,0-2.51-1.14c-.89-.27-1.8-.43-2.71-.64l-2.72-.62c-1.8-.48-3.59-1-5.36-1.55a85.64,85.64,0,0,1-10.36-4.13,89.9,89.9,0,0,1-9.71-5.48,85.48,85.48,0,0,1-9-6.65c-2.84-2.4-5.53-5-8.18-7.58Z"/></svg>