<svg id="Layer_1" data-name="Layer 1" xmlns="http://www.w3.org/2000/svg" viewBox="0 0 600 600"><title>Germany</title><path d="M287.55,550a4,4,0,0,1-2.43-1,9.51,9.51,0,0,1-1.64-2.1,11.84,11.84,0,0,0-1.57-2,11.55,11.55,0,0,0-2-1.58,24.77,24.77,0,0,0-4.71-2.15,45.39,45.39,0,0,0-5-1.47,59,59,0,0,0-10.29-1.33,40.45,40.45,0,0,1-5.44-.5,41,41,0,0,1-5.38-1.29c-1.75-.53-3.43-1.14-5.09-1.78s-3.32-1.32-4.93-2c-3.21-1.47-6.28-3.11-9.43-4.5a37.43,37.43,0,0,0-9.74-2.94,29,29,0,0,0-5-.29,15.07,15.07,0,0,0-2.29.22,11.09,11.09,0,0,0-2,.6,15.58,15.58,0,0,0-3.76,2.49l-1,.81c-.07.08-.22.27-.43.56a25.91,25.91,0,0,1-1.7,2.29,16.74,16.74,0,0,1-5,3.85,38.71,38.71,0,0,1-5.27,2.29,57,57,0,0,1-11,2.65c-.92.14-1.9.22-2.9.3s-2,.09-3,0a32.72,32.72,0,0,1-6-.69,31.75,31.75,0,0,1-5.87-1.87,26.24,26.24,0,0,1-5.48-3.26,23.21,23.21,0,0,1-7.68-10.7A32.55,32.55,0,0,1,150,512a63.65,63.65,0,0,1,1.81-11.5l.33-1.36.18-.68.08-.34.14-.42.56-1.7.65-1.56a41.81,41.81,0,0,1,3-5.5,104.21,104.21,0,0,1,6.61-9.15c4.48-5.66,8.95-10.95,12.48-16.26a39.19,39.19,0,0,0,4.14-7.64c.25-.6.37-1.15.55-1.72a10.38,10.38,0,0,0,.28-1.53,6.11,6.11,0,0,0-.1-2.39,5,5,0,0,1-.12-.49,4.69,4.69,0,0,1-.21-.46,2.25,2.25,0,0,0-.08-.24l-.15-.23c-.09-.16-.16-.32-.25-.49s-.26-.33-.38-.5l-.17-.27-.19-.2a2.94,2.94,0,0,0-.39-.4,3.31,3.31,0,0,0-.44-.39,12.83,12.83,0,0,0-5.46-2.33,22.48,22.48,0,0,0-3.68-.43c-1.24,0-2.66,0-4.15.07-3,.18-6.3.65-10,1.07-1.84.21-3.78.4-5.82.51-1,.05-2,.1-3.26.06l-1.79-.05c-.59,0-1.15-.11-1.73-.16a48.32,48.32,0,0,1-12.72-3.19A80.89,80.89,0,0,1,109,429.93c-1.56-1.24-3.07-2.54-4.55-3.91a60.54,60.54,0,0,1-4.35-4.42,69.18,69.18,0,0,1-7.33-9.94,73.79,73.79,0,0,1-9-22.57,108.66,108.66,0,0,1-2.23-23c0-7.41.42-14.28.15-20.66-.08-1.58-.17-3.15-.34-4.67-.07-.77-.18-1.51-.27-2.26,0-.43-.11-.6-.16-.88s-.07-.52-.15-.8a33,33,0,0,0-3.21-7.54c-1.53-2.85-3.49-6.08-5.25-9.91A40.06,40.06,0,0,1,70,313a28.53,28.53,0,0,1-1-7.43,22.34,22.34,0,0,1,1.59-8.31A33.58,33.58,0,0,1,72,294.05l1.26-2.32A25.46,25.46,0,0,0,76,284.14a37.75,37.75,0,0,0,.63-8.69c-.06-1.54-.18-3-.37-4.69s-.44-3.65-.51-5.89a24.67,24.67,0,0,1,.8-7.58,19.41,19.41,0,0,1,.7-2.07,17.61,17.61,0,0,1,.93-1.94,16.63,16.63,0,0,1,1-1.73,16.23,16.23,0,0,1,1.25-1.68,19.32,19.32,0,0,1,6.68-5.19,27,27,0,0,1,7-2.12c4.33-.7,8-.67,11-1a27.83,27.83,0,0,0,4.09-.63,9.82,9.82,0,0,0,2.8-1.12,4.1,4.1,0,0,0,.53-.36,3.72,3.72,0,0,0,.48-.41l.13-.1.23-.23.5-.49,1-1c1.28-1.24,2.47-2.4,3.57-3.55a38.52,38.52,0,0,0,2.93-3.31,16,16,0,0,0,1.94-2.9c.12-.21.17-.39.27-.59s.11-.33.19-.51a7.23,7.23,0,0,0,.18-1.32,5.57,5.57,0,0,0-.57-2.77,4.83,4.83,0,0,0-.78-1.28,6,6,0,0,0-1.07-1.07c-.2-.16-.42-.28-.63-.42s-.55-.34-.87-.5c-.66-.34-1.4-.74-2.27-1.16s-1.8-.93-2.82-1.54c-.5-.31-1.05-.67-1.59-1.08a8,8,0,0,0-1.8-1.15c-1.4-.67-3.65-1-5.8-2.4a7.73,7.73,0,0,1-1.51-1.17l-.7-.71c-.21-.26-.39-.54-.58-.82a4.8,4.8,0,0,1-.49-.89,6.11,6.11,0,0,1-.39-1,7.13,7.13,0,0,1-.26-1,9.79,9.79,0,0,1-.14-1.24,18.42,18.42,0,0,1,2-9.13,23,23,0,0,1,3.84-5.37,36.26,36.26,0,0,1,6.62-5.34l1.33-.86,1.24-.76,2.4-1.46q2.24-1.34,3.8-2.41a13.91,13.91,0,0,0,2.16-1.68c.38-.39.43-.52.28-.31a1.32,1.32,0,0,0-.22.52c-.06-.08,0,0-.07-.5,0-.19,0-.34-.07-.56s-.1-.46-.14-.69a65.92,65.92,0,0,0-2.53-8.27c-.6-1.72-1.25-3.74-1.86-5.87a45.15,45.15,0,0,1-1.37-7.47c-.06-.7-.14-1.37-.16-2.1s0-1.5,0-2.25c0-.37,0-.74,0-1.12l.12-1.18c.08-.78.18-1.56.29-2.34s.35-1.57.54-2.35a20.29,20.29,0,0,1,.69-2.3,32.12,32.12,0,0,1,1.8-4.18,40.09,40.09,0,0,1,9.75-12.28A42.71,42.71,0,0,1,145.44,117a40.44,40.44,0,0,1,15.33-2.49c.63,0,1.39.06,2.13.12s1.43.17,2.13.28a36.23,36.23,0,0,1,3.95.87,43.37,43.37,0,0,1,7.1,2.65,44.43,44.43,0,0,1,6.41,3.74c1,.69,2.16,1.61,2.86,2.2l2.16,1.83c1.31,1.13,2.29,1.93,2.91,2.35a2.9,2.9,0,0,0,.88.47s0,0,.08,0a.32.32,0,0,0,.16,0H192a2.3,2.3,0,0,0,.74-.23,2.68,2.68,0,0,0,.72-.52.68.68,0,0,0,.13-.21c0-.06.18-.34.46-1s.66-1.56,1.22-2.75a26.74,26.74,0,0,1,2.62-4.44,21.54,21.54,0,0,1,2.25-2.55,20.14,20.14,0,0,1,2.93-2.31,14.55,14.55,0,0,1,1.61-.93,15.8,15.8,0,0,1,1.63-.76,20.17,20.17,0,0,1,3.28-1c.56-.12,1.12-.25,1.7-.33s1.19-.13,1.78-.17a21.74,21.74,0,0,1,3.52.09,23.46,23.46,0,0,1,6,1.57,35.88,35.88,0,0,1,7.36,4.26c1.72,1.26,3.07,2.28,3.69,2.61a5.53,5.53,0,0,0,.55.28l.59.3,1.26.51a13.93,13.93,0,0,0,4.77.82h.24l.21,0a1.75,1.75,0,0,1,.4,0,1.93,1.93,0,0,0,.31-.09c.09,0,.24,0,.28,0s.32,0,.33-.1a.16.16,0,0,1,.12,0s0,0,0,0,0-.07.11,0,0,0,.06-.06.08,0,.13,0a.42.42,0,0,1,.11-.18c0-.08.14-.07.16-.22a2.41,2.41,0,0,1,.15-.33,1.62,1.62,0,0,0,.15-.28,2.85,2.85,0,0,0,.25-1,7.09,7.09,0,0,0-.15-1.52,5.45,5.45,0,0,0-.58-1.55,3.57,3.57,0,0,0-.82-1.14,20,20,0,0,0-2.82-2c-1.36-.84-3.11-1.82-5.13-3.16a32.44,32.44,0,0,1-6.41-5.48l-.56-.63-.25-.3-.49-.62c-.45-.45-.81-.89-1.32-1.36-2-1.89-4.59-4-7.51-6.31a58,58,0,0,1-9.36-9l-1.15-1.52c-.38-.53-.73-1.13-1.09-1.7a26.63,26.63,0,0,1-1.91-3.73,15.06,15.06,0,0,1-.73-2c-.21-.7-.43-1.4-.6-2.11s-.25-1.44-.35-2.17l-.14-1.08c0-.19,0-.35-.05-.47l0-.41a47.77,47.77,0,0,1,.1-6.64,35.28,35.28,0,0,1,1.28-7.14,24.66,24.66,0,0,1,3.62-7.54,20.79,20.79,0,0,1,7-6.12,21.26,21.26,0,0,1,8.38-2.46,30.38,30.38,0,0,1,7.24.25c2.17.32,4.16.78,6,1.24l5.19,1.29,5.12,1.28,5.14,1.2c3.42.82,6.86,1.57,10.3,2.31,1.81.42,3.16.66,5.17,1.07a36.39,36.39,0,0,1,6.55,1.92,22.32,22.32,0,0,1,3.92,2.1,16.6,16.6,0,0,1,4.05,4,12.67,12.67,0,0,1,.84,1.38l.39.72c.13.29.25.57.36.86a14.79,14.79,0,0,1,.55,1.67c.11.51.24,1.07.3,1.51a26.18,26.18,0,0,1,.23,4.16,6.07,6.07,0,0,0,.07,1.45s0,0,0,0a.45.45,0,0,0,0-.11s0-.09,0,0,.13.36.2.48c.3.54.35.57.54.66a9.7,9.7,0,0,0,1.86.87c.58.21,1.22.43,2,.67s1.44.43,2.8.92a43.91,43.91,0,0,1,6.1,2.85c.43.23.84.48,1.22.73s.69.61,1.05.86a3.71,3.71,0,0,0,1.13.51,9.92,9.92,0,0,0,1.11.33,8.4,8.4,0,0,0,1.05.2l1.4.33a28.3,28.3,0,0,1,2.77.77,26.9,26.9,0,0,1,5,2.43c3.21,1.81,6.32,3.64,9.37,5.46l4.5,2.73,2.23,1.34c.64.39,1.22.72,1.92,1.11,1.37.75,3,1.6,4.74,2.63.88.51,1.82,1.08,2.78,1.71.47.31,1,.64,1.46,1l1.09.8a11.88,11.88,0,0,0,1.9,1.19.78.78,0,0,0,.42.09,13.41,13.41,0,0,0,5.25-1.88c.6-.32,1.21-.67,1.87-1.06l2.1-1.29q2.35-1.47,4.73-2.87c3.18-1.87,6.38-3.67,9.58-5.43Q376,82.64,385.78,78l4.82-2.33c1.62-.78,3.34-1.59,5.13-2.38A62.22,62.22,0,0,1,408,69a18.43,18.43,0,0,1,1.82-.34l1.89-.3,2-.16,1-.06c.35,0,.72,0,1.08,0,.73,0,1.46,0,2.18.08s1.54.2,2.3.32l1.15.2c.39.09.79.2,1.18.31.78.23,1.57.46,2.34.72s1.54.66,2.3,1c.37.18.75.36,1.12.56l1.06.65c.7.45,1.4.91,2.08,1.39s1,.83,1.56,1.25a55.8,55.8,0,0,1,4.93,4.8c1.33,1.45,2.43,2.67,3.32,3.52a13.86,13.86,0,0,0,2.14,1.75,19.61,19.61,0,0,0,2.45,1.19A24,24,0,0,0,449,87a19.51,19.51,0,0,0,3.14.55l.33,0h-.17s0,0,0,0a1.11,1.11,0,0,0,.19,0c.36,0,1-.08,1.83-.17a49.44,49.44,0,0,1,7.14-.47A19.38,19.38,0,0,1,467.76,88a17.3,17.3,0,0,1,3.92,2,16.22,16.22,0,0,1,3.52,3.45,14.49,14.49,0,0,1,2.13,4,15.34,15.34,0,0,1,.78,3.59,18.62,18.62,0,0,1-.29,5.16c-.24,1.31-.46,2.48-.61,3.51s-.24,1.85-.34,2.53a20,20,0,0,0-.24,2.3,2,2,0,0,0,0,.34c0,.12,0,.29.09.38a1.9,1.9,0,0,1,.09.36,2.38,2.38,0,0,1,.2.39,8.68,8.68,0,0,0,2,2.17c1,.84,2.44,1.76,4.05,2.89a39.84,39.84,0,0,1,5.32,4.29,19.57,19.57,0,0,1,4.61,7.16,20.51,20.51,0,0,1,1,3.67c.21,1.11.37,2.21.47,3.23.2,2.07.27,3.94.39,5.6a40.39,40.39,0,0,0,.46,4.4l1.08,5.15c1.45,6.88,3,13.76,4.66,20.59,3.37,13.67,7.84,27.1,11.92,40.62l2.9,10.17q1.38,5.12,2.6,10.24c1.56,6.86,3.24,13.7,3.73,20.8l.23,2.22a69.05,69.05,0,0,0-.93,7.48,59.87,59.87,0,0,0,1.5,17.58c.71,3,1.62,5.95,2.53,9,.45,1.53.87,3.08,1.26,4.66l.08.29.07.37.15.74c.11.49.15,1,.22,1.45a23.12,23.12,0,0,1,.18,2.86,25.62,25.62,0,0,1-2.38,11.16,17.25,17.25,0,0,1-3.74,5.2c-.41.39-.88.75-1.33,1.12s-1,.66-1.49,1a19.12,19.12,0,0,1-1.77.82,12.22,12.22,0,0,1-2,.54,10.73,10.73,0,0,1-4.27-.12,13.64,13.64,0,0,1-3.46-1.35,25.78,25.78,0,0,1-4.63-3.45l-3.36-3.13a13.54,13.54,0,0,0-2.6-2,1.09,1.09,0,0,0-.51-.19s.13,0,.13,0,0,0-.09.07-.16.1-.27.19-.19.17-.18.18,0,.06-.09.48-.14,1.1-.29,2.05a14.89,14.89,0,0,1-.9,3.42,11.76,11.76,0,0,1-2.41,3.67,18.74,18.74,0,0,1-5.43,3.65l-2,1c-.75.37-1.52.74-2.28,1.09-3,1.38-6.05,2.47-8.91,3.57l-4.18,1.62L464.86,336c-5.76,2.33-11.51,4.51-17.16,6.74-2.82,1.11-5.62,2.23-8.38,3.38L435,347.91c-1.57.6-3.13,1.18-4.7,1.7-6.26,2.08-12.49,3.51-18.47,4.88l-2.26.51-2.46.51-4.32.85a28.41,28.41,0,0,0-3.49.93,10.89,10.89,0,0,0-2.41,1.14,6.62,6.62,0,0,0-1.48,1.32,5.12,5.12,0,0,0-.8,1.5,4.85,4.85,0,0,0-.28,1.7,3.08,3.08,0,0,0,.07.7,4.14,4.14,0,0,0,.17.64,14.38,14.38,0,0,0,1.23,2.35l2.45,3.76c.48.75,1,1.59,1.48,2.51l.37.72.31.62.52,1.09,2,4.29,3.8,8.32c.61,1.34,1.22,2.67,1.84,4l2,4c1.35,2.72,2.63,5.24,3.93,7.47.33.57.66,1.1,1,1.62s.71,1.06,1,1.43a1.44,1.44,0,0,1,.18.25c.14.16.41.42.6.63.43.43.83.88,1.31,1.29,3.55,3.45,8.23,6.45,13.29,9.57a174.8,174.8,0,0,1,16.08,10.45,55.88,55.88,0,0,1,14.3,15.58,34.91,34.91,0,0,1,4.29,10.73,27.33,27.33,0,0,1,.48,6.31,23.22,23.22,0,0,1-1.33,6.49,22.5,22.5,0,0,1-3.21,5.74,25.77,25.77,0,0,1-4.39,4.35,34.56,34.56,0,0,1-9.81,5.21c-.83.27-1.66.58-2.49.81l-2.47.68c-1.29.33-2.58.7-3.85,1.14A38.87,38.87,0,0,0,432.2,489c-4.49,2.69-7.95,6.37-8.85,10.56a8.81,8.81,0,0,0-.25,1.62l-.07.57a.84.84,0,0,0,0,.21,2.67,2.67,0,0,0,0,.33,36.05,36.05,0,0,0,1,3.91c.89,2.83,1.89,5.8,2.77,8.86a47.07,47.07,0,0,1,1.9,9.87,15.48,15.48,0,0,1-.71,6,11.67,11.67,0,0,1-.77,1.65,9.75,9.75,0,0,1-1.19,1.54,7.66,7.66,0,0,1-1.52,1.23l-.83.49-.84.32a13.39,13.39,0,0,1-6.06.52,16.58,16.58,0,0,1-5.36-1.68c-.4-.2-.78-.41-1.16-.63l-.88-.47a17.72,17.72,0,0,0-1.82-.83c-.62-.25-1.28-.46-1.93-.68s-1.33-.38-2-.51c-5.55-1.19-11.6-1.06-17.62-.68l-4.57.33c-1.47.13-2.94.27-4.4.52a53.81,53.81,0,0,0-8.65,2.21c-5.69,1.91-11.19,4.6-16.8,7.09-1.4.63-2.81,1.23-4.23,1.83l-2.15.86a21.28,21.28,0,0,1-2.26.73,24.7,24.7,0,0,1-9.33.49,54.91,54.91,0,0,1-9-2c-2.93-.91-5.81-1.94-8.72-2.9a40.66,40.66,0,0,1-4.33-1.55c-1.4-.66-2.69-1.49-4-2.19a8.38,8.38,0,0,0-4.31-1.21,5.42,5.42,0,0,0-3.94,1.92c-2,2.29-3,5.27-4.57,7.91a11.5,11.5,0,0,1-2.87,3.56A6.19,6.19,0,0,1,287.55,550Zm0,0a5.66,5.66,0,0,0,4.18-1.37,11.25,11.25,0,0,0,2.68-3.56c.7-1.33,1.29-2.74,1.95-4.13a18.05,18.05,0,0,1,2.43-4.06,7,7,0,0,1,1.95-1.61,5.93,5.93,0,0,1,2.5-.7,9.28,9.28,0,0,1,4.81,1.17c1.43.69,2.74,1.48,4.06,2a14.73,14.73,0,0,0,2,.71l2.2.65c2.92.89,5.85,1.86,8.75,2.68a52.55,52.55,0,0,0,8.76,1.78,23.16,23.16,0,0,0,8.64-.61,19.57,19.57,0,0,0,2-.71l2.09-.89q2.08-.92,4.14-1.89c5.5-2.59,11-5.47,16.8-7.62a58.06,58.06,0,0,1,9-2.57c1.54-.31,3.09-.51,4.64-.7l4.57-.47c6.11-.57,12.37-1,18.58.15.78.12,1.55.34,2.32.5s1.52.44,2.27.7a22.46,22.46,0,0,1,2.21.93l2.05,1a12.5,12.5,0,0,0,4.08,1.2,9.68,9.68,0,0,0,4.09-.39,4,4,0,0,0,2.53-2.66,11,11,0,0,0,.35-4.19,41.88,41.88,0,0,0-2-8.75c-.93-2.89-2-5.74-3-8.64a42.91,42.91,0,0,1-1.36-4.47,7.26,7.26,0,0,1-.19-2.45,13.41,13.41,0,0,1,.24-2.37,18.82,18.82,0,0,1,4-8.51,29.55,29.55,0,0,1,7-6.17,44,44,0,0,1,8.27-4.18c1.44-.56,2.92-1,4.4-1.46l2.18-.65c.72-.23,1.42-.51,2.14-.76a28.41,28.41,0,0,0,7.88-4.37,19.4,19.4,0,0,0,3.13-3.21,15.53,15.53,0,0,0,2.11-3.93,16.05,16.05,0,0,0,.81-4.4,19.91,19.91,0,0,0-.44-4.48,27.25,27.25,0,0,0-3.56-8.3,48,48,0,0,0-12.63-13,179.92,179.92,0,0,0-15.64-9.56c-5.28-3.07-10.55-6.28-15-10.47-.58-.5-1.1-1.06-1.64-1.61-.27-.27-.55-.54-.8-.82l-.73-.9a44.4,44.4,0,0,1-2.54-3.82c-1.58-2.63-2.94-5.38-4.29-8.12-2.77-5.46-5.16-11.09-7.65-16.68l-1.91-4.17a31.39,31.39,0,0,0-2.15-4.05c-1.6-2.59-3.47-5.08-4.45-8a13,13,0,0,1,.37-9,13.56,13.56,0,0,1,2.39-3.89,15.14,15.14,0,0,1,3.53-2.9,26.19,26.19,0,0,1,8.65-2.92c3-.55,6-1,9-1.61a178.77,178.77,0,0,0,17.87-4.16c1.47-.44,2.91-.93,4.35-1.44l4.29-1.65c2.86-1.09,5.73-2.14,8.61-3.17,5.76-2.07,11.54-4.07,17.27-6.2,2.86-1.09,5.73-2.16,8.62-3.14s5.78-2,8.6-3.22c1.4-.6,2.77-1.28,4.17-1.9a13.09,13.09,0,0,0,3.86-2.44,7,7,0,0,0,1.88-4.09,12.13,12.13,0,0,1,1.18-4.4,5.91,5.91,0,0,1,1.57-1.66,6,6,0,0,1,1-.61,5.11,5.11,0,0,1,1.05-.45,5.61,5.61,0,0,1,4.41.63,18.23,18.23,0,0,1,3.64,2.77l3.33,3.16a20.86,20.86,0,0,0,3.63,2.79,6.61,6.61,0,0,0,4.4.93,7.79,7.79,0,0,0,4-2.14,12.52,12.52,0,0,0,2.65-3.72,20.72,20.72,0,0,0,1.86-8.91c0-3.08-1-6-1.78-9-1.74-5.86-3.83-11.62-5.56-17.48s-3.11-11.89-3.14-18h0L494.17,176.7l-4.46-20.64-1.11-5.16a43.63,43.63,0,0,1-.7-5.22c-.33-3.49-.45-7.08-1.74-10.37a11.66,11.66,0,0,0-3-4.3,27,27,0,0,0-4.27-3.1c-3-1.83-6.17-3.5-8.5-6.17l-.82-1c-.23-.37-.45-.75-.68-1.13a10.71,10.71,0,0,1-1-2.42,15.63,15.63,0,0,1-.51-5.23c.07-1.75.23-3.51.16-5.27a7.67,7.67,0,0,0-1.55-4.93,6.36,6.36,0,0,0-4.8-1.78,37.17,37.17,0,0,0-5.26.42,21.06,21.06,0,0,1-5.26.18,32.36,32.36,0,0,1-5.17-1A31.16,31.16,0,0,1,436,95.12c-2.87-2.06-5.08-4.86-7.36-7.52A42.35,42.35,0,0,0,425,83.79,15.94,15.94,0,0,0,420.54,81a18.87,18.87,0,0,0-10.4-.57C403.2,81.76,396.9,85.1,390.51,88s-12.65,6.17-18.81,9.57q-4.62,2.55-9.14,5.28c-3,1.79-5.92,3.8-9,5.53a24.43,24.43,0,0,1-9.91,3.39,12.38,12.38,0,0,1-5.19-.7,20.07,20.07,0,0,1-4.6-2.55,73.89,73.89,0,0,0-9.06-5.4c-3.07-1.73-6-3.63-9.05-5.44-6-3.67-12.06-7.25-18.33-10.46-3.07-1.7-6-3.71-9.28-5s-6.82-2.11-9.46-4.51a10.7,10.7,0,0,1-2.86-4.38,10.24,10.24,0,0,1-.63-2.55,19.39,19.39,0,0,1,0-2.64c.08-1.73.08-3.61-1-5.07A9.52,9.52,0,0,0,270,59.94c-3.25-1.39-6.77-1.88-10.18-2.74l-10.27-2.42L239.3,52.37A104,104,0,0,0,229,50.22c-3.45-.44-7.17-.32-10.27,1.43a11.62,11.62,0,0,0-3.84,3.54,15.33,15.33,0,0,0-2.13,4.8,30.28,30.28,0,0,0-.61,10.48,16.45,16.45,0,0,0,4.2,9.48,45.17,45.17,0,0,0,7.93,6.93c2.84,2.07,5.75,4.05,8.46,6.31.68.55,1.31,1.17,2,1.75l1.84,1.89a19.67,19.67,0,0,0,4.13,3.25c3,1.84,6.3,3.17,9.14,5.27a17.8,17.8,0,0,1,6.18,8.37,17.45,17.45,0,0,1,.6,10.38c-.21.85-.58,1.66-.86,2.49s-.81,1.56-1.2,2.35A25.22,25.22,0,0,1,252.9,131a13.62,13.62,0,0,1-2,1.76,16.56,16.56,0,0,1-9.88,3.15,25.94,25.94,0,0,1-10.28-2.07c-.8-.36-1.6-.73-2.38-1.14s-1.54-.86-2.26-1.36c-1.45-1-2.8-2.13-4.2-3.2a21.26,21.26,0,0,0-4.46-2.79,10.08,10.08,0,0,0-2.52-.72,7.67,7.67,0,0,0-2.62.13,7.1,7.1,0,0,0-4.35,2.76,23,23,0,0,0-2.43,4.67,16,16,0,0,1-2.77,4.46,15.29,15.29,0,0,1-4.15,3.22,14.83,14.83,0,0,1-10.25,1.36c-3.48-.78-6.32-3.09-9-5.32-1.35-1.12-2.69-2.27-4.14-3.27a31.37,31.37,0,0,0-4.58-2.6,25.18,25.18,0,0,0-10.16-2.53,27.13,27.13,0,0,0-10.32,1.84,29.08,29.08,0,0,0-9,5.44,28.53,28.53,0,0,0-3.62,3.83,26.73,26.73,0,0,0-2.8,4.46,19.06,19.06,0,0,0-1,2.42,8,8,0,0,0-.36,1.27c-.09.43-.21.85-.29,1.28a19.71,19.71,0,0,0-.1,5.26,45.62,45.62,0,0,0,2.64,10.19,79.2,79.2,0,0,1,3.09,10.08l.25,1.3c.07.44.1.88.15,1.31a19.43,19.43,0,0,1,.11,2.64,13.33,13.33,0,0,1-1.33,5.07c-1.61,3.18-4.47,5.47-7.4,7.36s-6.11,3.5-9.09,5.36a22.39,22.39,0,0,0-4.18,3.2,6.45,6.45,0,0,0-2.17,4.63,7.69,7.69,0,0,0,2.12,4.7,18.86,18.86,0,0,0,4.12,3.26,34.17,34.17,0,0,1,4.34,3,14,14,0,0,1,3.21,4.16,12.69,12.69,0,0,1,.7,10.23,28.26,28.26,0,0,1-6,8.65c-1.2,1.29-2.44,2.53-3.69,3.78a24.18,24.18,0,0,1-3.92,3.51c-3,2-6.54,2.65-10,3s-7,.42-10.5,1a19.11,19.11,0,0,0-5,1.55,11.77,11.77,0,0,0-4.09,3.25,9,9,0,0,0-.78,1.06,11.66,11.66,0,0,0-.66,1.14,10.71,10.71,0,0,0-1,2.44,17,17,0,0,0-.45,5.23c.19,3.52.92,7,1.07,10.5a47,47,0,0,1-.51,10.53,33.64,33.64,0,0,1-3.33,10c-.79,1.57-1.65,3.11-2.28,4.75a13.57,13.57,0,0,0-.92,5.15,25.54,25.54,0,0,0,2.71,10.11c1.53,3.17,3.4,6.16,5.14,9.21a41.69,41.69,0,0,1,4.3,9.62,40,40,0,0,1,.93,5.19c.23,1.75.36,3.51.48,5.26.43,7,.13,14.08.22,21.11a98.2,98.2,0,0,0,2.23,20.94,63.86,63.86,0,0,0,7.84,19.49,58.85,58.85,0,0,0,6.28,8.46,63.88,63.88,0,0,0,7.67,7.22,70.66,70.66,0,0,0,18,10.77,40.35,40.35,0,0,0,10.17,2.66,49.37,49.37,0,0,0,10.52-.22c3.5-.34,7-.79,10.51-.94a36.67,36.67,0,0,1,10.5.85,21.51,21.51,0,0,1,9.36,4.7,10.31,10.31,0,0,1,.94.93,11.63,11.63,0,0,1,.86,1,8.15,8.15,0,0,1,.77,1.08l.71,1.12c.2.39.38.79.57,1.19l.29.6c.08.2.13.42.2.63l.41,1.26.23,1.3a15.48,15.48,0,0,1-.13,5.26,22.37,22.37,0,0,1-.62,2.57c-.31.83-.57,1.67-.94,2.47a48.58,48.58,0,0,1-5.38,9.08c-4.17,5.68-9,10.84-13.56,16.17a98.11,98.11,0,0,0-6.54,8.27,35,35,0,0,0-2.7,4.52,26.79,26.79,0,0,0-1.78,4.95,56.73,56.73,0,0,0-2.1,10.32,26.73,26.73,0,0,0,.87,10.42,18.12,18.12,0,0,0,5.74,8.65,21.32,21.32,0,0,0,4.41,2.85,26.24,26.24,0,0,0,4.94,1.78,30,30,0,0,0,10.46.71,51,51,0,0,0,10.32-2.07,36.07,36.07,0,0,0,4.9-1.92,13.54,13.54,0,0,0,4.26-3c.6-.64,1.1-1.36,1.65-2.06a9.16,9.16,0,0,1,1.95-1.78,17.78,17.78,0,0,1,4.55-2.67,14,14,0,0,1,5.21-.73,36.83,36.83,0,0,1,5.25.59,57.55,57.55,0,0,1,10.14,2.9c6.6,2.48,12.89,5.68,19.5,8.08a38.55,38.55,0,0,0,10.25,2.34,64.88,64.88,0,0,1,10.34,2.09c1.69.51,3.34,1.13,5,1.79a25.73,25.73,0,0,1,4.7,2.41,11.69,11.69,0,0,1,2,1.69,12.59,12.59,0,0,1,1.53,2.16,9.51,9.51,0,0,0,1.54,2.12A4,4,0,0,0,287.55,550Z"/></svg>