<svg id="Layer_1" data-name="Layer 1" xmlns="http://www.w3.org/2000/svg" viewBox="0 0 600 600"><title>Ghana</title><path d="M310.83,61.27a85,85,0,0,0,24.11-2.41c7.81-1.85,14.53-6.45,22.56-9.22a34.73,34.73,0,0,1,6.26-1.55,21.76,21.76,0,0,1,6.74.14,19.92,19.92,0,0,1,12,6.54,13.45,13.45,0,0,1,3,6.94,16.35,16.35,0,0,1-.95,7.33c-.76,2.19-1.73,4.1-2.54,5.89a22.07,22.07,0,0,0-1.76,5c-.5,2.93.57,5,3.2,7.1a33.64,33.64,0,0,0,4.59,2.89c1.71,1,3.56,1.87,5.48,3.06a41.57,41.57,0,0,1,10.27,8.92,50.24,50.24,0,0,1,7.12,11.45A60.7,60.7,0,0,1,415.06,126c.23,1.09.45,2.18.6,3.28s.33,2.2.43,3.31.22,2.22.26,3.33l.09,1.67c0,.58,0,1.18,0,1.76a64.67,64.67,0,0,1-1.79,13.35l-.74,3.1-.36,1.43c-.06.29-.12.64-.19,1.06-.14.83-.27,1.9-.53,3.2a21,21,0,0,1-.55,2.13l-.33,1-.3.83a38.78,38.78,0,0,0-1.71,5,3.43,3.43,0,0,0-.1,1.22.55.55,0,0,0,.21.36,3.73,3.73,0,0,0,.49.43l.05.06,0,0h0s0-.06,0-.07,0,0,0-.05.1-.1.5-.08,1.2,0,2.14-.07,2.26-.15,3.84-.17a18.76,18.76,0,0,1,5.62.7,10.19,10.19,0,0,1,1.55.54c.53.21,1,.44,1.56.7a14.42,14.42,0,0,1,3.17,2.31,15.23,15.23,0,0,1,4,6.41,17.61,17.61,0,0,1,.78,5.86,22.51,22.51,0,0,1-.18,2.43c-.09.77-.19,1.53-.33,2.22a49.88,49.88,0,0,1-2,7.25c-.71,2-1.4,3.73-1.86,5.17a20.48,20.48,0,0,0-.8,3.31c0,.09,0,.07,0,0a.61.61,0,0,0-.05-.12s0,.11,0,.15l0,.23.06.37a3.38,3.38,0,0,0,.07.4l.13.5a10.92,10.92,0,0,0,.34,1.1c.53,1.59,1.32,3.54,2.13,5.89a26.87,26.87,0,0,1,1.65,8.92,14.65,14.65,0,0,1-.29,2.88,15.47,15.47,0,0,1-.83,2.91,7.67,7.67,0,0,1-.63,1.36c-.23.44-.48.87-.73,1.29a7.74,7.74,0,0,1-.82,1.14c-.28.36-.58.7-.87,1.05a14.4,14.4,0,0,1-2,1.93,16.9,16.9,0,0,1-2.1,1.42,28.1,28.1,0,0,1-3.42,1.65c-.93.38-1.59.66-2,.87l-.28.13s-.07,0-.1,0a1.54,1.54,0,0,0-.22.14c-.67.72-.9,1.53-.21,2.19A9.7,9.7,0,0,0,421.7,247c1.61.53,3.56.93,5.86,1.61a25.22,25.22,0,0,1,7.26,3.34,16.85,16.85,0,0,1,5.9,7.36,20.53,20.53,0,0,1,1.45,8.49,31.14,31.14,0,0,1-1.28,7.6,49.43,49.43,0,0,1-2.55,6.51c-.9,1.95-1.75,3.74-2.44,5.43a27,27,0,0,0-1.54,4.7,15.66,15.66,0,0,0-.22,4.29,36.15,36.15,0,0,0,.82,4.93c.41,1.76.94,3.65,1.47,5.64s1.08,4.16,1.52,6.48a37.93,37.93,0,0,1,.72,7.62,29.76,29.76,0,0,1-1.29,8.15c-.71,2.38-1.4,4.28-1.65,5.54a4.14,4.14,0,0,0-.13,1.35c0,.16.06.21,0,.3s0,.1.11.15.19.22.34.45a7.59,7.59,0,0,0,.86.94,17.15,17.15,0,0,0,1.33,1.13l.85.61.73.54c.3.22.62.48,1,.78a15.81,15.81,0,0,1,2.33,2.47,14.31,14.31,0,0,1,2.2,4.2,14.69,14.69,0,0,1,.67,4.87c0,.39,0,.71-.07,1.07s-.08.68-.1.87q-.09.68-.21,1.32a37.65,37.65,0,0,1-2.69,8.37l-.67,1.54-.29.7a3.1,3.1,0,0,0-.17.52l-.28.94-.15.46-.09.49a22.31,22.31,0,0,0-.26,7.92,37,37,0,0,0,2.07,8.19,39.73,39.73,0,0,0,4,7.84c.38.63.83,1.22,1.27,1.81s.9,1.15,1.37,1.7a16.77,16.77,0,0,0,1.34,1.48c.45.45.93.9,1.45,1.35a63.12,63.12,0,0,0,7.66,5.49c1.51.95,3.14,1.93,4.86,3l5,2.9c1.92,1.13,4,2.41,6.28,4a42.68,42.68,0,0,1,7.15,6.28,30.41,30.41,0,0,1,6.78,11.93,26.88,26.88,0,0,1,1,8.81,30.64,30.64,0,0,1-1.36,7.23c-.61,1.93-1.21,3.36-1.65,4.46s-.74,1.85-.87,2.27c0,0-.28.8-.46,1.33l-.62,1.66c-.41,1.11-.85,2.19-1.29,3.27-.89,2.15-1.82,4.25-2.77,6.3l-1.45,3-.73,1.49-.79,1.55a46.38,46.38,0,0,1-2.43,4.19,32.17,32.17,0,0,1-4.42,5.39,28,28,0,0,1-7.11,5.05,31.25,31.25,0,0,1-7.23,2.51,25.62,25.62,0,0,1-10.14.44,28.25,28.25,0,0,1-3.36-1c-1.1-.36-2.16-.81-3.24-1.16a29,29,0,0,0-3.16-1,24.91,24.91,0,0,0-3.11-.52l-6-.71c-2-.19-3.9-.35-5.81-.5l-2.81-.12-2.74-.07a77.2,77.2,0,0,0-10.23.61,59,59,0,0,0-9,1.92,69.87,69.87,0,0,0-9.16,3.69c-3.35,1.6-7,3.52-11,5.4-2,1-4.09,1.91-6.31,2.81s-4.49,1.67-6.68,2.35c-4.41,1.36-8.65,2.35-12.67,3.25s-7.84,1.75-11.42,2.72a73.27,73.27,0,0,0-10.22,3.5c-6.75,2.89-13.5,7-20.63,11.24s-14.69,8.67-23.21,12.15-17.32,5.32-25.11,7c-3.91.83-7.62,1.68-11.09,2.63-.87.22-1.74.43-2.62.68-.43.13-.94,0-1.35.17a10.62,10.62,0,0,0-1.15.73c-1.47,1.07-2.63,2.5-3.84,3.34a20.14,20.14,0,0,0-3.11,2.39l-1.61,1.59c-.7.67-1.51,1.47-2.61,2.41a29.69,29.69,0,0,1-4.12,3,24.06,24.06,0,0,1-12.8,3.41q-.84,0-1.68-.06c-.57,0-1.16-.14-1.73-.22a22.43,22.43,0,0,1-3.43-.79,26.61,26.61,0,0,1-3.21-1.21c-.5-.23-.95-.47-1.42-.72s-1-.51-1.35-.75c-.81-.51-1.66-1-2.3-1.53l-1-.75-.89-.7c-2.3-1.86-3.73-3.16-4.65-3.72a1.52,1.52,0,0,0-.84-.36c-.07,0,0,.13-.07.1l-.72-.21a31.15,31.15,0,0,0-3.61-.84c-1.38-.25-3.11-.49-4.67-.7s-3.39-.38-5.33-.55-4-.42-6.21-.68c-1.12-.15-2.25-.29-3.44-.48l-3.2-.49c-2.21-.4-4.57-.88-7.07-1.51a55.54,55.54,0,0,1-8.12-2.65,28.5,28.5,0,0,1-4.66-2.57,27.75,27.75,0,0,1-5.1-4.58,23.11,23.11,0,0,1-4.5-8.06,20,20,0,0,1-.55-10,16.55,16.55,0,0,1,.55-2.08,15.16,15.16,0,0,1,.7-1.86q.38-.84.78-1.65c.27-.5.55-.94.84-1.39a31,31,0,0,1,3.42-4.32c1.09-1.15,2.17-2.22,3.14-3.13l2.56-2.36a18.23,18.23,0,0,0,2.8-2.93,2.24,2.24,0,0,0,.37-.82,3.33,3.33,0,0,0,.17-1,4.34,4.34,0,0,0-1.09-3.1,2,2,0,0,0-.24-.19,9.32,9.32,0,0,0-.83-.62c-.44-.33-1.11-.72-1.9-1.22l-1.3-.81-.73-.45-1.12-.71a28.94,28.94,0,0,1-3.77-3.18,30.7,30.7,0,0,1-2.81-3.36,49.19,49.19,0,0,1-3.76-6.41l-1.53-3.15c-.53-1.08-1-2.18-1.48-3.26-.93-2.16-1.78-4.33-2.53-6.49a103,103,0,0,1-3.41-12.92l-1.26-6.14c-.43-2-.82-4.1-1.2-6.15-.74-4.12-1.8-8.17-2.76-12.27s-1.82-8.25-2.54-12.43a194.35,194.35,0,0,1-2.81-25.57c-.08-2.17-.08-4.34-.08-6.52s.05-4.37.2-6.56c0-1.09.14-2.18.22-3.28l.34-3.29c.2-2.2.56-4.38.91-6.57.86-4.33,1.38-8.81,3.41-12.84.48-1,1.06-2,1.59-3l1.72-2.9a64.64,64.64,0,0,1,3.67-5.63c2.7-3.61,5.78-6.91,8.42-10.33s4.83-7.07,7.38-10.52,5.22-6.78,8.16-9.9,6-6.25,9.05-9.05c6.11-5.6,11.76-10.76,14.86-16.77a41.38,41.38,0,0,0,3.65-9.67,54.75,54.75,0,0,0,1.4-10.67,77.11,77.11,0,0,0-.35-11.22q-.56-5.7-1.6-11.51c-.33-1.93-.71-3.88-1.09-5.84l-.58-2.92c-.18-.83-.38-1.6-.59-2.32a18.63,18.63,0,0,0-.71-1.94,10.1,10.1,0,0,0-.77-1.42,5.78,5.78,0,0,0-.71-.81,2.75,2.75,0,0,0-.55-.34s-.1,0-.14,0l-.28-.12-1-.42c-.82-.32-1.81-.68-3.05-1.21a21.75,21.75,0,0,1-4.37-2.46,17.07,17.07,0,0,1-4.54-4.94,19.09,19.09,0,0,1-2.22-5.76,24.44,24.44,0,0,1-.55-4.84,36,36,0,0,1,1-8.22c.54-2.41,1.17-4.56,1.72-6.45.16-.49.26-.91.37-1.33l.33-1.27.67-2.55c.28-1.74.66-3.46.89-5.23.09-.89.2-1.77.31-2.66l.16-1.33c.05-.45.05-.9.08-1.36a96.64,96.64,0,0,0-1.33-22.23,213.66,213.66,0,0,0-5.17-22.88l-6.72-23.38a115.53,115.53,0,0,1-2.93-12.63,53.78,53.78,0,0,1-.58-13.71,30.93,30.93,0,0,1,4.55-13.95,13.05,13.05,0,0,1,1.13-1.58c.41-.5.78-1,1.24-1.49a22.61,22.61,0,0,1,2.86-2.6,24.64,24.64,0,0,1,3.15-2.1,30,30,0,0,1,3.32-1.53,41.05,41.05,0,0,1,13.33-2.51,90.51,90.51,0,0,1,12.72.51c8.3.83,16.32,2.45,24.28,3.38,3.91.47,8,.59,12.07.86l12.18.7L262,59.77c8.13.41,16.26.79,24.39,1l24.4.61Zm0,.09-24.41.54c-2,0-4.07.08-6.11.07l-6.1,0c-4.07,0-8.14-.16-12.2-.23l-24.41-.56-12.2-.28c-4.07-.12-8.13-.1-12.25-.44C205,59.74,197,58.46,188.89,58a85.32,85.32,0,0,0-12.07,0,36.31,36.31,0,0,0-11.62,2.55,28.34,28.34,0,0,0-2.65,1.31,20.44,20.44,0,0,0-2.4,1.71,16.89,16.89,0,0,0-3.84,4.41A24.83,24.83,0,0,0,153,79.25c-.52,8,1.61,16,4.08,23.74,5,15.47,10.67,30.8,13.71,46.82a106.4,106.4,0,0,1,2,24.28c0,.5,0,1-.05,1.52l-.14,1.52-.29,3c-.23,2-.63,4-.94,6-.5,2-.94,4-1.48,5.92s-1.15,3.9-1.6,5.89a27.29,27.29,0,0,0-.75,6,12.21,12.21,0,0,0,1.34,5.88,9.8,9.8,0,0,0,4.69,3.75,50.38,50.38,0,0,1,5.52,2.58,11.76,11.76,0,0,1,2.32,2,14.35,14.35,0,0,1,1.77,2.48,22.38,22.38,0,0,1,2.15,5.69c.48,2,.74,4,1.06,6s.61,4,.87,6c.55,4,1,8.08,1.21,12.14a88.56,88.56,0,0,1,0,12.19,61.2,61.2,0,0,1-2,12A46.44,46.44,0,0,1,181.71,286a45.85,45.85,0,0,1-7.71,9.41c-2.92,2.83-6.06,5.43-9.13,8.09a102.24,102.24,0,0,0-16.49,17.91,114.21,114.21,0,0,0-11.87,21.27,129.64,129.64,0,0,0-7.28,23.26,157.69,157.69,0,0,0-2.07,48.57,215.07,215.07,0,0,0,3.9,24.07c.85,4,1.83,7.93,2.87,11.86a80.9,80.9,0,0,0,3.91,11.55,57.7,57.7,0,0,0,5.93,10.64c2.31,3.31,4.85,6.63,8.34,8.79,1.75,1,3.6,1.89,5.32,3a14.34,14.34,0,0,1,4.46,4.1,16.07,16.07,0,0,1,.14,17.32,32.3,32.3,0,0,1-3.88,4.7,37.9,37.9,0,0,0-3.93,4.65,11.86,11.86,0,0,0-2.28,5.58,6.73,6.73,0,0,0,2.23,5.45,17.21,17.21,0,0,0,5.18,3.16,59.73,59.73,0,0,0,11.76,3.16c8,1.61,16.18,1.95,24,4.16a38.77,38.77,0,0,1,5.74,2,21,21,0,0,1,2.69,1.44A21.77,21.77,0,0,1,206,542c1.53,1.34,2.92,2.84,4.43,4.19a15.08,15.08,0,0,0,5.12,3.25,8.14,8.14,0,0,0,1.47.38c.25.05.5.11.75.14l.76,0a9.68,9.68,0,0,0,3-.26,14.21,14.21,0,0,0,5.38-2.76c1.62-1.23,3.12-2.61,4.77-3.8a33.33,33.33,0,0,1,5.27-3.06c7.4-3.44,15.46-5.08,23.45-6.49s16.1-2.64,23.72-5.55,14.67-7.06,21.51-11.43,13.62-8.94,20.87-12.64,15.07-6.12,22.85-8.45c3.9-1.16,7.79-2.36,11.59-3.79A82.85,82.85,0,0,0,372,486.59c7.13-3.88,14-8.38,21.71-11.09s15.93-3.44,24-3.4,16.25.84,24.38,1.22c2,.1,4.06.16,6.09.2a28.15,28.15,0,0,0,6.08-.41,10.61,10.61,0,0,0,5.36-2.72,19.87,19.87,0,0,0,3.47-5c1.91-3.59,3.72-7.24,5.35-11,.82-1.86,1.58-3.75,2.31-5.65s1.69-3.7,2.34-5.63a10.13,10.13,0,0,0,.33-6,13.94,13.94,0,0,0-3-5.27,44.67,44.67,0,0,0-9.46-7.63c-3.42-2.2-6.8-4.47-10.11-6.84a68.44,68.44,0,0,1-9.32-7.85,47.51,47.51,0,0,1-7.14-9.86,50.62,50.62,0,0,1-4.59-11.27c-2.12-7.82-2.21-16.39.88-24,1.49-3.78,4.11-7.07,5.05-11.07a5.56,5.56,0,0,0,.09-3,5.72,5.72,0,0,0-1.68-2.49c-.74-.7-1.56-1.3-2.3-2a21.88,21.88,0,0,1-2.1-2.21,12.78,12.78,0,0,1-2.74-5.4,12,12,0,0,1,.43-6c.58-2,1.39-3.83,2-5.75a21.67,21.67,0,0,0,.8-2.94l.26-1.5.12-1.52c.4-8.21-3.27-15.92-3.46-24.09a24.09,24.09,0,0,1,.66-6.05,35.45,35.45,0,0,1,2.08-5.74c1.66-3.7,3.73-7.25,5-11.13a23.41,23.41,0,0,0,1.07-6,14.47,14.47,0,0,0-1-6,10.4,10.4,0,0,0-3.75-4.69,19.59,19.59,0,0,0-5.54-2.48c-1.95-.57-3.94-1-5.89-1.59a16.37,16.37,0,0,1-5.48-2.6,8.41,8.41,0,0,1-2-2.31,8.79,8.79,0,0,1-.93-2.9,8.47,8.47,0,0,1,1.56-5.78c2.46-3.45,7.26-3.76,9.82-7a8.07,8.07,0,0,0,1.95-5.6,16.92,16.92,0,0,0-1.51-5.86c-.78-1.87-1.7-3.69-2.52-5.55a17.58,17.58,0,0,1-1.69-5.84c-.17-4.12,1.22-8,2.41-11.91a43.22,43.22,0,0,0,1.5-5.9,14.41,14.41,0,0,0-.09-6,6.21,6.21,0,0,0-2.52-3.67,9.53,9.53,0,0,0-1.33-.73,15.44,15.44,0,0,0-6-.92,13.25,13.25,0,0,1-6-1.08,3.37,3.37,0,0,1-.66-.39c-.2-.15-.43-.28-.62-.44a9.27,9.27,0,0,1-1.07-1.1,9.78,9.78,0,0,1-1.56-2.62,9.54,9.54,0,0,1,0-6,52.3,52.3,0,0,1,2.21-5.69A24.66,24.66,0,0,0,407,157a29.17,29.17,0,0,1,.76-3l.8-2.95a58.15,58.15,0,0,0,2-12,58.17,58.17,0,0,0-4.31-23.82,40.75,40.75,0,0,0-15-18.73c-3.39-2.22-7.13-4-10.26-6.59a12.62,12.62,0,0,1-3.68-4.82,10.08,10.08,0,0,1-.42-6c.94-4,3.39-7.4,4.81-11.2a13.17,13.17,0,0,0,1-5.94,10.56,10.56,0,0,0-2.26-5.54,17.78,17.78,0,0,0-10.32-6,19.21,19.21,0,0,0-6-.34,32.82,32.82,0,0,0-6,1.26c-7.78,2.36-14.84,6.76-22.89,8.36A70.42,70.42,0,0,1,323,61.25c-2,.1-4.06.13-6.1.13l-6.1.07Z"/></svg>