<svg id="Layer_1" data-name="Layer 1" xmlns="http://www.w3.org/2000/svg" viewBox="0 0 600 600"><title>Greenland</title><path d="M341,51.93l-2.63-.73c-.89-.19-1.78-.4-2.68-.54s-1.81-.23-2.72-.28-1.82,0-2.73,0a54.3,54.3,0,0,0-10.69,1.36,34.38,34.38,0,0,0-9.78,4,27.93,27.93,0,0,0-7.66,6.89c-1,1.37-2,2.89-3.09,4.44-.55.78-1.14,1.56-1.79,2.32A24.14,24.14,0,0,1,295,71.51a24.81,24.81,0,0,1-10.72,5.39,56.21,56.21,0,0,1-11.46,1.35c-3.74.12-7.41.07-11,.16a61.1,61.1,0,0,0-10.25.94,31.08,31.08,0,0,0-9,3.35,35.33,35.33,0,0,0-13.48,13.37,30.67,30.67,0,0,0-3.31,8.69c-.21.73-.24,1.5-.38,2.25s-.2,1.57-.32,2.56A19.74,19.74,0,0,1,223,117a12.33,12.33,0,0,1-3.63,4.07,13.48,13.48,0,0,1-4.74,2.07,20.49,20.49,0,0,1-3.93.5l-1.57,0-1.34,0-11,.25c-2.06,0-4,0-5.62,0a22.84,22.84,0,0,0-4.17.33,4.08,4.08,0,0,0-2,.86,2.51,2.51,0,0,0-.65,1.06,3.42,3.42,0,0,0-.13.71c0,.11,0,.23,0,.34v.66a9.55,9.55,0,0,0,.07,1,6.23,6.23,0,0,0,.36,1.25,16.85,16.85,0,0,1,1.14,3.42,9,9,0,0,1,.09,2.22,20.48,20.48,0,0,1-.33,2c-.27,1.31-.6,2.53-.95,3.67a58.22,58.22,0,0,1-2.4,6.27c-1.71,3.84-3.48,7.07-4.67,9.87-.36.77-.56,1.29-.79,1.92s-.41,1.21-.58,1.81a17.7,17.7,0,0,0-.63,3.38,9.3,9.3,0,0,0,.11,2.53,2.83,2.83,0,0,0,.45,1.16.36.36,0,0,1,0,.09l.08.06.05.08s.07,0,.1.07a.5.5,0,0,1,.15.17,1.61,1.61,0,0,1,.28.17l.12.11a1.47,1.47,0,0,0,.22.1,3.62,3.62,0,0,1,.43.24l.64.24.31.14.41.12c2.16.7,5.42,1.18,9.47,2l1.53.3,1.66.4c1.06.22,2.34.65,3.5,1,.61.21,1.27.48,1.9.72a17.94,17.94,0,0,1,1.94.87c.66.33,1.33.69,2,1s1.33.88,2,1.34a25.2,25.2,0,0,1,3.71,3.27,24.37,24.37,0,0,1,3,4,28.79,28.79,0,0,1,3.2,8.18A68.69,68.69,0,0,1,214.05,206l1.69,43.73.49,10.87c.09,1.82.12,3.57.29,5.48l.11,1.41.05.71c0,.1,0,.22,0,.5v.66c0,1.7-.15,2.79-.18,3.37v1.87c0,.78,0,1.47.09,2.09a11,11,0,0,0,.44,2.61,2.49,2.49,0,0,0,.26.52,4.93,4.93,0,0,0,.42.51,1.77,1.77,0,0,0,.48.37c-.18-.19-.17-.18.37,0s1.53.6,2.92,1.29l3,1.55a41.22,41.22,0,0,1,3.7,2.23,20.26,20.26,0,0,1,2.26,1.82,21,21,0,0,1,2.49,2.81,27,27,0,0,1,4.74,8.44,22.44,22.44,0,0,1,.73,2.65c.09.46.17.92.24,1.39l.16,1.14a21.48,21.48,0,0,1,.08,5.06,19.48,19.48,0,0,1-.53,3.11,19.23,19.23,0,0,1-1.3,3.68,17.93,17.93,0,0,1-1.08,2A14.58,14.58,0,0,1,234.5,320a14.34,14.34,0,0,1-1.9,1.92,15,15,0,0,1-2,1.44,13.3,13.3,0,0,1-2.16,1.1,12.59,12.59,0,0,1-2.25.74,12,12,0,0,1-2.18.37,12.69,12.69,0,0,1-2,.06c-.6-.05-1.26-.09-1.8-.19s-1.05-.21-1.57-.33l-1.33-.44c-.44-.15-.78-.3-1.17-.46-1.44-.63-2.55-1.19-3.52-1.56s-1.7-.55-2.15-.69-.24-.09-.48-.14l-.71-.12a7.93,7.93,0,0,0-1.18-.09c-.68,0-.94.1-1.06.09a.26.26,0,0,0-.19.08s-.07.1-.13.14-.13.16-.15.25a1.48,1.48,0,0,0-.22.88,3.6,3.6,0,0,0,.5,1.4,6.87,6.87,0,0,0,1.45,1.64c.14.13.31.22.46.35l.73.48c.52.32,1.06.63,1.67.93a94.29,94.29,0,0,0,9.15,3.67c1.8.7,3.81,1.53,5.75,2.47a25.58,25.58,0,0,1,7.11,4.79,15.71,15.71,0,0,1,3.65,5.55,14.68,14.68,0,0,1,.73,7.74,16.85,16.85,0,0,1-2.25,5.76,23.18,23.18,0,0,1-2.75,3.63c-.46.5-.9.95-1.34,1.38l-.64.61-.43.38-.5.43a21.81,21.81,0,0,1-4.23,2.73,31.79,31.79,0,0,1-7.38,2.44l-2.65.59-.28.06-.21.06-.23.09c-.16.06-.35.08-.44.18a2.32,2.32,0,0,0-1,.86A17.22,17.22,0,0,0,211,377l-.52,2.46-.52,2.8-.45,2.55-.3,2.52c-.2,1.67-.31,3.31-.37,4.91l-.07,2.37,0,2.46c-.06,1.64-.06,3.29-.08,4.92s-.09,3.27-.15,4.91c-.32,6.53-.65,13.13-.47,19.84.09,3.35.11,6.71.28,10.13s.43,6.85.72,10.31c.61,6.91,1.58,13.89,2.76,20.91s2.87,14,4.75,21c.88,3.5,2,7,3,10.44l1.69,5.19c.59,1.7,1.16,3.28,1.77,4.77a37.54,37.54,0,0,0,2,4.06,17.37,17.37,0,0,0,2.18,3,8.35,8.35,0,0,0,2.11,1.72,8.84,8.84,0,0,0,2.37.88c1.12.28,2.72.62,4.72,1.08,1,.23,2.11.5,3.32.88s2.44.92,3.64,1.43c.59.28,1.12.59,1.68.89s1.11.6,1.59.93.86.87,1.4,1.14,1,.48,1.58.7a33.08,33.08,0,0,1,6.07,2.61c.82.55,1.58,1.17,2.29,1.7l2.11,1.58c1.33,1,2.58,1.86,3.68,2.54a20.83,20.83,0,0,0,3,1.54,8.75,8.75,0,0,0,1.17.38l.54.15c.23,0,.46.07.68.12.82.13,1.34,0,1.06,0a2.27,2.27,0,0,0-.88.19,4.57,4.57,0,0,0-1.29.69,4.22,4.22,0,0,0-.67.64c-.09,0-.07,0,0-.2a14.18,14.18,0,0,0,.49-2.54c.3-2.44.38-5.67.51-9.45.06-1.92.09-4,.36-6.54a59.43,59.43,0,0,1,1.21-7.32,63.88,63.88,0,0,1,1.94-7c.78-2.28,1.56-4.23,2.31-6.19,1.53-3.87,3-7.3,4.11-10.32a44.34,44.34,0,0,0,2.21-7.77c.1-.58.19-1.2.31-1.81s.2-1.24.28-1.93c.22-1.3.35-2.77.55-4.25l.58-4.82.32-2.61.4-2.74c.25-1.87.59-3.83,1-5.86.21-1,.39-2.06.65-3.11a19.44,19.44,0,0,1,1.12-3.2,22.65,22.65,0,0,1,4.14-6.17,60.08,60.08,0,0,1,5.76-5.31c2-1.66,3.87-3.26,5.61-4.87s3.28-3.31,5.06-4.86c.41-.4.88-.77,1.34-1.14s.88-.76,1.35-1.12c1-.68,1.85-1.44,2.88-2.06a42.17,42.17,0,0,1,6.19-3.48,65.52,65.52,0,0,1,11.8-3.61c1.69-.43,3.23-.75,4.57-1.21a13.23,13.23,0,0,0,3.91-1.85,26.06,26.06,0,0,0,6.31-5.9,25.21,25.21,0,0,0,3.92-7.39c.2-.65.43-1.29.56-1.94l.23-1,.16-1c.22-1.32.27-2.42.4-4.06.26-3.18.25-7.74,2.66-13.6a23.4,23.4,0,0,1,2.37-4.3,26.7,26.7,0,0,1,3.06-3.66,34.22,34.22,0,0,1,6.34-4.92c1-.62,2-1.18,2.88-1.66l2.64-1.36a41.94,41.94,0,0,1,5.33-2.26,44.69,44.69,0,0,1,5.54-1.45c1.87-.36,3.78-.6,5.65-.86s3.76-.48,5.59-.8a43.13,43.13,0,0,0,5.3-1.28,49,49,0,0,0,9.52-4.45c3-1.64,6-3.75,8.9-5.74,1.45-1,2.8-2.1,4.14-3.18a49.52,49.52,0,0,0,3.79-3.4c2.3-2.35,4.73-5.06,5.55-7.17a4.4,4.4,0,0,0,.44-2.49,3.15,3.15,0,0,0-.93-1.63,11.33,11.33,0,0,0-2.71-2.09c-.56-.34-1.23-.67-1.84-1l-2.36-1.09a43.87,43.87,0,0,1-5.63-3.08,20.46,20.46,0,0,1-3.14-2.55,13.57,13.57,0,0,1-3-4.49,11.69,11.69,0,0,1-.61-6.62,14.17,14.17,0,0,1,2.12-5,23.33,23.33,0,0,1,2.53-3.13L415,299.4l.44-.46.2-.21.12-.15a6.58,6.58,0,0,0,1.65-4.65,3.27,3.27,0,0,0-.22-.78c0-.12-.13-.21-.16-.33l-.11-.15a1.63,1.63,0,0,0-.14-.24,27.67,27.67,0,0,0-2.48-3.26,111.65,111.65,0,0,1-7.57-8.91,30.66,30.66,0,0,1-3.62-6.71,27.67,27.67,0,0,1-1.68-7.95A30.64,30.64,0,0,1,402,258a42.41,42.41,0,0,1,1.86-6.66,56.29,56.29,0,0,1,2.46-5.79c.87-1.82,1.74-3.53,2.65-5.18,1.78-3.28,3.5-6.35,5-9.24.72-1.45,1.4-2.87,1.93-4.23a28,28,0,0,0,1.34-3.92,18.67,18.67,0,0,0,.61-3.57,13.09,13.09,0,0,0-.14-3.4,26.6,26.6,0,0,0-2.91-7.91c-1.46-2.9-3.36-6-5.24-9.53a48.24,48.24,0,0,1-4.76-12c-.12-.57-.23-1.16-.32-1.74l-.13-.89c0-.28-.07-.72-.1-1.07a19.39,19.39,0,0,1,.12-4c.14-1.18.34-2.2.51-3.09s.33-1.69.43-2.35a6.38,6.38,0,0,0,.09-2.43.53.53,0,0,1,0-.17,1.11,1.11,0,0,1-.09-.19,1.91,1.91,0,0,0-.17-.32,2,2,0,0,0-.67-.66,19.94,19.94,0,0,0-4-1.79,32.68,32.68,0,0,1-3-1.32c-.22-.1-.62-.32-1-.54a8.83,8.83,0,0,1-1.05-.72,11.35,11.35,0,0,1-1.78-1.66,16.76,16.76,0,0,1-3.42-7c-.27-1.09-.46-2.13-.61-3.12l-.39-2.82c-.47-3.76-.81-7.53-1-11.31A132.42,132.42,0,0,1,393.92,95c1-3.39,1.85-6.8,1.6-9.91A7.64,7.64,0,0,0,394.05,81a8.91,8.91,0,0,0-.74-.77l-.85-.68-1-.51-1.05-.35a12.79,12.79,0,0,0-4.87-.06c-1.72.24-3.47.65-5.25,1.07s-3.6.83-5.47,1.09a18.54,18.54,0,0,1-5.71,0,13.43,13.43,0,0,1-5.22-2.23,18.41,18.41,0,0,1-4-3.91,28.45,28.45,0,0,1-2.83-4.73,40.72,40.72,0,0,1-2.08-5.08,31.75,31.75,0,0,1-1.22-5.34,7.32,7.32,0,0,0-2.37-4.73c-1.47-1.08-3.4-1.17-5.14-1.64s-3.58-.71-5.33-1.23Zm0-.09a20.42,20.42,0,0,0,2.68.51l2.71.43,2.71.46a7.06,7.06,0,0,1,2.71,1c1.73,1.19,2.43,3.24,2.85,5,.21.92.38,1.8.61,2.64a24.57,24.57,0,0,0,.83,2.51,41.28,41.28,0,0,0,2.24,4.82,28.86,28.86,0,0,0,2.85,4.35A17.6,17.6,0,0,0,364.89,77a11.51,11.51,0,0,0,4.56,1.78c3.26.51,6.77-.42,10.25-1.35,1.76-.48,3.55-1,5.42-1.31A15.55,15.55,0,0,1,391,76c.5.13,1,.26,1.49.42l1.4.67c.43.29.84.6,1.26.9a14,14,0,0,1,1.11,1.07,10.69,10.69,0,0,1,2.35,5.53c.45,3.93-.41,7.64-1.31,11.19a128.33,128.33,0,0,0-4.13,43.1c.26,3.62.72,7.22,1.29,10.81a50.87,50.87,0,0,0,1.05,5.31,11.71,11.71,0,0,0,2.31,4.67c1.11,1.31,2.84,1.89,4.55,2.51a29.1,29.1,0,0,1,5.12,2.08,8.58,8.58,0,0,1,3.72,4.15,11.3,11.3,0,0,1,.65,5.51c-.17,1.84-.55,3.63-.69,5.43a14.62,14.62,0,0,0,.48,5.34,37.73,37.73,0,0,0,4.45,9.89c1.86,3.13,3.94,6.13,5.78,9.29a36.17,36.17,0,0,1,4.29,10.05,23.8,23.8,0,0,1,0,10.88,35.6,35.6,0,0,1-1.57,5.25c-.63,1.71-1.38,3.37-2.16,5-3.15,6.58-7.12,12.75-9.79,19.56a32.89,32.89,0,0,0-1.6,5.23,22,22,0,0,0-.53,5.43,18.84,18.84,0,0,0,1,5.36,23,23,0,0,0,2.46,4.87c2,3.06,4.55,5.7,6.81,8.56a32.91,32.91,0,0,1,3.06,4.52,11,11,0,0,1,1.38,5.24,14.23,14.23,0,0,1-4.16,9.83,31.91,31.91,0,0,0-3.73,4,6.88,6.88,0,0,0-1.12,2.48,4.54,4.54,0,0,0,.2,2.68,9.5,9.5,0,0,0,3.59,4,38.28,38.28,0,0,0,4.73,2.74l2.43,1.25c.79.45,1.58.91,2.33,1.43a16.16,16.16,0,0,1,4,3.67,8.7,8.7,0,0,1,1.87,5.05,10.68,10.68,0,0,1-1.32,5.24,22.31,22.31,0,0,1-3.17,4.44c-1.21,1.36-2.49,2.67-3.82,3.91a89,89,0,0,1-8.51,6.87c-3,2.12-6,4.19-9.06,6.13-12.43,7.71-26.32,12.59-39,19.87-3.1,1.87-6,4.32-7.57,7.68s-2,7-2.65,10.58a35.7,35.7,0,0,1-9.9,19.12,35.09,35.09,0,0,1-8.73,6.53A39,39,0,0,1,331.34,425a54.74,54.74,0,0,0-10.5,3,25.1,25.1,0,0,0-8.59,6.64,36.46,36.46,0,0,0-5.62,9.33,53.85,53.85,0,0,0-3.21,10.44c-1.47,7.15-1.95,14.46-3.11,21.66a70.6,70.6,0,0,1-2.47,10.65,65.4,65.4,0,0,1-4.35,10c-3.34,6.46-7.3,12.7-9.35,19.74A42.43,42.43,0,0,0,283,521.8c-.27,1.8-.42,3.62-.56,5.44a104.32,104.32,0,0,1-1.16,10.87,25.82,25.82,0,0,1-1.5,5.25,11.44,11.44,0,0,1-3.08,4.46,8.83,8.83,0,0,1-5,2.09,16.84,16.84,0,0,1-5.43-.4,24.78,24.78,0,0,1-5.15-1.8,33.61,33.61,0,0,1-4.67-2.84c-3-2.12-5.66-4.6-8.45-7a42.87,42.87,0,0,0-9-6.18c-3.29-1.63-7-2.1-10.43-3.25a17.51,17.51,0,0,1-8.75-6.26,36.67,36.67,0,0,1-5-9.68c-1.26-3.42-2.31-6.92-3.44-10.38l-3.3-10.44a363.5,363.5,0,0,1-10.94-42.35,175.8,175.8,0,0,1-2.74-21.7,138.73,138.73,0,0,1,0-21.86A113.85,113.85,0,0,1,198,384.27c.48-1.76,1-3.51,1.54-5.25s1-3.5,1.6-5.23c1.13-3.44,2.5-7,5.09-9.58a12.28,12.28,0,0,1,4.57-2.93,34.45,34.45,0,0,1,5.3-1.3,22,22,0,0,0,5.22-1.59,11.48,11.48,0,0,0,2.3-1.46,23.59,23.59,0,0,0,2-1.9,10,10,0,0,0,2.67-4.69,5.5,5.5,0,0,0-1.76-4.94,16.82,16.82,0,0,0-4.56-3c-1.64-.8-3.32-1.5-5-2.16a95.82,95.82,0,0,1-10.09-4.21,24.35,24.35,0,0,1-4.57-3,15.73,15.73,0,0,1-3.45-4.21,13.06,13.06,0,0,1-1.58-5.2,11,11,0,0,1,1-5.33,10.33,10.33,0,0,1,3.37-4.23,11.44,11.44,0,0,1,5-2,17.79,17.79,0,0,1,5.45,0c1.8.3,3.56.8,5.37,1a7.32,7.32,0,0,0,5.24-1,6.36,6.36,0,0,0,2.39-4.71,16,16,0,0,0-.29-5.43,16.39,16.39,0,0,0-2.18-5,12.45,12.45,0,0,0-4.09-3.54c-.78-.48-1.58-.93-2.37-1.37s-1.64-.79-2.46-1.19a12.49,12.49,0,0,1-4.32-3.31,14.17,14.17,0,0,1-2.71-4.72c-1.16-3.48-1.17-7.21-1.1-10.84.06-.91.15-1.82.16-2.73s-.12-1.81-.18-2.72c-.17-1.82-.19-3.65-.29-5.47l-.49-10.93L203,206.46a59,59,0,0,0-1-10.87,14.58,14.58,0,0,0-5.61-9.06,17.91,17.91,0,0,0-4.86-2.45,43.58,43.58,0,0,0-5.29-1.34,97.93,97.93,0,0,1-10.7-2.29,15.37,15.37,0,0,1-8.74-6.22,16.69,16.69,0,0,1-2.07-10.57,32.57,32.57,0,0,1,3-10.48c1.49-3.33,3.28-6.52,4.78-9.84a30.85,30.85,0,0,0,3.08-10.42c.12-1.81,0-3.64.09-5.47a11.62,11.62,0,0,1,1.4-5.25,10.31,10.31,0,0,1,3.75-3.92,13,13,0,0,1,5.18-1.69c3.65-.43,7.3.08,10.93.16l10.94.29a25.44,25.44,0,0,0,5.45-.21,7.08,7.08,0,0,0,2.5-1,6.26,6.26,0,0,0,1.82-2,14.9,14.9,0,0,0,1.54-5.2,49.47,49.47,0,0,1,1.06-5.37,35.79,35.79,0,0,1,4.36-10,40.19,40.19,0,0,1,16-14.56A35.48,35.48,0,0,1,251,75.37a66.45,66.45,0,0,1,10.92-.56c3.65.06,7.29.24,10.94.26a52.08,52.08,0,0,0,10.87-.87,22.26,22.26,0,0,0,9.82-4.48c2.93-2.23,4.75-5.49,7.08-8.29a29.55,29.55,0,0,1,8.41-6.92,35.8,35.8,0,0,1,10.27-3.71,43.78,43.78,0,0,1,10.9-.77l2.72.23,2.71.37c.9.19,1.8.34,2.7.5l2.66.62Z"/></svg>