<svg id="Layer_1" data-name="Layer 1" xmlns="http://www.w3.org/2000/svg" viewBox="0 0 600 600"><title>Guatemala</title><path d="M415.73,286.06c.18.25.52.22.8.22s.59,0,.88,0l1.76-.08a25.5,25.5,0,0,0,3.47-.63c1.14-.28,2.27-.59,3.4-.9s2.29-.61,3.44-.85a90.93,90.93,0,0,1,14-2A42.84,42.84,0,0,1,457.87,283a24,24,0,0,1,6.71,3.19,51.06,51.06,0,0,0,5.87,3.49l.17.08.22.19c1.81,1.58,3.58,3.12,5.42,4.49a26.64,26.64,0,0,0,5.71,3.37,9.44,9.44,0,0,0,5.66.59,7.3,7.3,0,0,0,4.27-3,8.94,8.94,0,0,0,1-5.3c0-2.19-.47-4.63,0-7.75a10.36,10.36,0,0,1,2.05-4.76,10.73,10.73,0,0,1,4.24-3.17,14.06,14.06,0,0,1,9.56-.22,22.84,22.84,0,0,1,7.51,4.31c2.08,1.72,3.76,3.36,5.54,5l10.61,9.69a32.15,32.15,0,0,1,5.62,6.36,17.11,17.11,0,0,1,2.1,4.69,13.45,13.45,0,0,1,.4,6,12.18,12.18,0,0,1-3,6,18.48,18.48,0,0,1-4.18,3.36c-1.34.81-2.59,1.43-3.74,2l-2.75,1.51a55.79,55.79,0,0,0-10,7.78,114.31,114.31,0,0,0-9.07,10c-5.91,7.12-11.74,15.05-19.21,22.44-1.94,1.8-3.87,3.62-6.05,5.29a71.52,71.52,0,0,1-6.53,4.7c-4.42,2.85-8.82,5.27-13.09,7.56s-8.4,4.43-12.17,6.69a60.79,60.79,0,0,0-9.93,7.1,22.07,22.07,0,0,0-5.79,7.8,17.49,17.49,0,0,0-1.31,8.72,24.13,24.13,0,0,0,.91,4.77c.25.81.49,1.55.84,2.43l1.26,3.06a46.86,46.86,0,0,1,2.89,8.89c.15.93.27,1.87.39,2.81l.16,1.41c0,.47,0,.94,0,1.42,0,.95,0,1.9-.05,2.84s-.24,1.87-.38,2.8c-.08.46-.14.93-.23,1.38l-.35,1.34c-.25.88-.48,1.78-.78,2.64a36.27,36.27,0,0,1-2.15,4.87,40.2,40.2,0,0,1-5.81,8.28A48.2,48.2,0,0,1,415,471.29a44,44,0,0,1-4.43,1.77c-.76.25-1.5.53-2.29.74l-2.36.61c-1.62.41-2.84.59-4,.82s-2.22.42-3.09.62a21.54,21.54,0,0,0-2.1.59,3.5,3.5,0,0,0-.83.39l.18-.16c.14-.17.17-.25.05,0a41.65,41.65,0,0,0-1.31,4.94c-.17.66-.36,1.42-.59,2.21s-.53,1.58-.81,2.37-.54,1.6-.89,2.35l-1.05,2.26-.55,1.12L390.3,493l-1.25,2.11c-.88,1.35-1.82,2.64-2.77,3.91a60.68,60.68,0,0,1-6.17,6.64,100.18,100.18,0,0,1-13,10c-4.3,2.86-8.46,5.36-12.33,7.82l-1.44.92c-.28.17-.39.26-.55.37l-.47.32a22.27,22.27,0,0,0-1.78,1.43,26,26,0,0,0-3.29,3.53,40.66,40.66,0,0,0-3,4.46l-.7,1.26-.34.65c-.09.16,0,.07,0,.08l0,0v0l0,.11-.08.24c-.07.31-.16.52-.26,1-.4,1.6-.81,4.1-1.69,7.31a33.36,33.36,0,0,1-2,5.48q-.4.79-.84,1.59c-.26.51-.7,1.12-1.06,1.67a22.5,22.5,0,0,1-2.79,3.33c-.56.53-1.19,1.05-1.81,1.54-.32.24-.63.49-1,.71l-1,.63c-.69.4-1.4.79-2.11,1.12s-1.43.57-2.16.81a19.82,19.82,0,0,1-4.55,1,15.87,15.87,0,0,1-2.26.09c-.74,0-1.49,0-2.22-.11s-1.32-.21-2-.33a15.66,15.66,0,0,1-1.87-.44,27.74,27.74,0,0,1-3.21-1.13l-1.42-.62c-.47-.22-.83-.43-1.25-.64l-1.22-.66-1.06-.63c-2.79-1.71-4.92-3.33-6.69-4.57-.89-.63-1.62-1.11-2.22-1.47l-.61-.34a.06.06,0,0,1-.06,0s.05,0-.1-.05l-.35-.14a81.61,81.61,0,0,0-11.85-3.46c-2-.45-4.14-.84-6.27-1.14s-4.2-.54-6.63-.81c-4.69-.53-9.35-1-14-1.39s-9.23-.7-13.79-.87-9.09-.23-13.57-.15-8.9.36-13.61.68-9.55.68-14.62.91-10.35.31-15.82.06a134.73,134.73,0,0,1-16.42-2,137.58,137.58,0,0,1-15.86-3.93c-2.58-.79-5.09-1.7-7.63-2.59s-4.94-2-7.41-3L130.65,531a42.1,42.1,0,0,1-6.81-3.82,34.53,34.53,0,0,1-3-2.57c-1-.91-1.93-1.81-2.85-2.74A38.72,38.72,0,0,0,112.1,517L87.69,500.21l-11.91-8.34c-2-1.49-4.18-3.11-6.37-4.93a66.82,66.82,0,0,1-6.55-6.28,46.3,46.3,0,0,1-6-8.28c-.45-.77-.86-1.57-1.25-2.4s-.75-1.65-1.08-2.49-.69-1.68-.94-2.54l-.75-2.58a43.29,43.29,0,0,1-1.32-10.17,54.13,54.13,0,0,1,.72-9.37c.21-1.51.55-2.9.83-4.34s.68-2.78,1.08-4.09c.76-2.69,1.65-5.19,2.55-7.65s1.86-4.79,2.81-7.07l2.78-6.63,5.5-13.26,2.72-6.58c.84-2,1.61-4,2.23-6a29.07,29.07,0,0,0,1.66-10.38,8.62,8.62,0,0,0-.88-3.35,4.78,4.78,0,0,0-.38-.65c-.17-.2-.28-.4-.46-.64-.39-.47-1.29-1.28-2.45-2.49a24,24,0,0,1-2-2.33,15.56,15.56,0,0,1-2-3.64,13.71,13.71,0,0,1-.91-4.81,14.23,14.23,0,0,1,.63-4.33,20.09,20.09,0,0,1,1.22-3.05c.21-.4.42-.79.61-1.13l.28-.5.18-.3.78-1.46.78-1.53c1.13-2.19,2.3-4.37,3.46-6.53s2.31-4.32,3.49-6.45c4.65-8.57,9.32-17,13.93-25.26l3.44-6.17c1.21-2.17,2-3.79,3.08-5.86l1.55-3a8.74,8.74,0,0,1,.88-1.54,3.39,3.39,0,0,0,.8-1.59c.71-2.33,1-4.94,1.74-7.37a26.15,26.15,0,0,1,1.49-3.55c.59-1.18,1.12-2.35,1.76-3.54s1.23-2.38,2-3.59,1.38-2.41,2.2-3.63l1.19-1.82,1.34-1.83a46.09,46.09,0,0,1,3-3.65l.8-.91.91-.89,1.86-1.78c.64-.58,1.4-1.14,2.11-1.7l1.09-.84.55-.41.62-.39a35.37,35.37,0,0,1,5.19-2.79l1.37-.58c.45-.18.88-.31,1.32-.46.87-.28,1.79-.61,2.62-.81a58.12,58.12,0,0,1,9.58-1.64,141.94,141.94,0,0,1,16.19-.24c2.46.06,4.81.14,6.95.14,1.11,0,2.08,0,3.08,0l3-.18,14.34-.83c4.78-.28,9.56-.46,14.34-.69l7.17-.32,7.17-.25,1.79-.06,2,0c1.4,0,2.71,0,4,0l3.87.08,3.7.13c4.83.23,9.3.4,13.38.44a71.89,71.89,0,0,0,10.87-.74c.8-.13,1.52-.31,2.28-.45.34-.11.7-.19,1.05-.28l.53-.13c.12,0,.12,0,.14,0l.07,0a3.1,3.1,0,0,0,1.06-.44,1.24,1.24,0,0,1,.26-.19,1.2,1.2,0,0,1,.31-.21,5,5,0,0,1,1-.37,30.87,30.87,0,0,0,3.47-1.22,14.52,14.52,0,0,0,4.36-2.91c.32-.33.62-.68.92-1a9.42,9.42,0,0,0,.77-1.26l.36-.66a6.92,6.92,0,0,0,.27-.65c.17-.43.35-.87.48-1.32a11.77,11.77,0,0,0,.12-4.93,11.58,11.58,0,0,0-1.73-4.38,15.28,15.28,0,0,0-3.61-3.84,31.9,31.9,0,0,0-5.16-3.05l-1.47-.61-.77-.32-1.12-.5-1.11-.53-1.06-.61-1.06-.61-1-.69a32.44,32.44,0,0,1-6.56-6.32c-3.54-4.47-5.85-8.92-8.28-12.45a25.16,25.16,0,0,0-1.86-2.52l-2.07-2.51L233.45,188c-.76-.78-1.57-1.52-2.35-2.29a62.9,62.9,0,0,0-5-4.31c-.87-.69-1.73-1.37-2.65-2s-1.77-1.34-2.72-2c-3.69-2.56-7.55-5-11.51-7.37l-6-3.64c-2-1.23-4.06-2.43-6.07-3.72s-4-2.6-6.08-3.95c-1-.66-2-1.39-3-2.09l-.76-.52-.51-.35-1.07-.68c-1.73-1.11-3.88-2.3-5.94-3.69a55.54,55.54,0,0,1-6.19-4.7,51,51,0,0,1-5.91-6.14,44.91,44.91,0,0,1-2.79-3.89,27.66,27.66,0,0,1-2.58-5,16.52,16.52,0,0,1-1.17-7.23,12.31,12.31,0,0,1,3.23-7.39,13.85,13.85,0,0,1,5.49-3.58,17.09,17.09,0,0,1,5.68-1,77.55,77.55,0,0,1,15.5,2.28c4.53,1,8.61,1.51,12.09.78a13.9,13.9,0,0,0,4.79-1.9,8.38,8.38,0,0,0,3-3.21c1.35-2.37,1.13-6,.21-10.38-.43-2.19-1-4.49-1.54-7.13l-.63-3.56L208.24,86c-.93-4.58-2-9.26-2.92-14.13-.23-1.22-.46-2.44-.67-3.68l-.16-1c-.05-.39-.12-.78-.15-1.18-.08-.79-.14-1.58-.15-2.39a23,23,0,0,1,2-10,19.24,19.24,0,0,1,1.36-2.46,14.63,14.63,0,0,1,2-2.48,16.83,16.83,0,0,1,5.22-3.53,27.47,27.47,0,0,1,4.68-1.58,43.09,43.09,0,0,1,4.3-.82,97.55,97.55,0,0,1,15.64-.66c5,.11,9.9.5,14.67.84,2.38.17,4.74.34,6.95.45,1.1,0,2.14.08,3,.06l3.59,0,14.33,0q14.34,0,28.66.32c9.56.2,19.11.49,28.67.78s19.11.52,28.66.9l14.21.57c1.93.06,4.23,0,6.55-.15l7.22-.36a89.54,89.54,0,0,1,15.64.47A38.32,38.32,0,0,1,420.18,48a24.27,24.27,0,0,1,4.48,2.23,19.25,19.25,0,0,1,4.19,3.48,24.16,24.16,0,0,1,4.95,8.55,30.63,30.63,0,0,1,1.54,8.92c0,.73,0,1.46,0,2.18l0,1.08-.07.93c-.08,1.24-.19,2.47-.3,3.7-.23,2.45-.5,4.88-.79,7.29l-1.8,14.23c-.28,2.34-.55,4.68-.77,7l-.29,3.48L431,114.6l-2.11,28.69-1.06,14.33L426.56,172c-.9,9.54-1.95,19.06-3,28.57s-2,19-3.26,28.52l-1.93,14.21c-.62,4.74-1.22,9.48-1.65,14.24-.22,2.38-.48,4.75-.63,7.14l-.44,7.15-.15,7.16c0,1.2,0,2.39,0,3.59l0,1.79c0,.3,0,.6,0,.9A1.24,1.24,0,0,0,415.73,286.06Zm0,0a1.47,1.47,0,0,1-.21-.86c0-.3,0-.6-.05-.9l-.13-1.79c-.07-1.19-.13-2.39-.13-3.59l-.11-7.18.15-7.19c0-2.4.21-4.79.35-7.18.26-4.79.71-9.56,1.23-14.31s1.06-9.5,1.6-14.24c1-9.47,1.78-19,2.61-28.53s1.54-19,2.15-28.57q.45-7.14.82-14.29l.56-14.32,1.1-28.64c.21-9.6,1.3-19.13,2.14-28.63.21-2.38.38-4.76.53-7.14.07-1.19.13-2.38.17-3.57a29.88,29.88,0,0,0,0-3.54,24.08,24.08,0,0,0-1.36-6.88,17.28,17.28,0,0,0-3.57-6,11.86,11.86,0,0,0-2.71-2.17,16.52,16.52,0,0,0-3.18-1.5,29.57,29.57,0,0,0-6.92-1.5,83,83,0,0,0-14.28-.06c-4.76.3-9.52.84-14.31.87l-14.34-.23-57.34-1-28.67-.51-14.34-.25c-2.39,0-4.78,0-7.16-.25s-4.76-.44-7.14-.69c-4.75-.49-9.51-1-14.28-1.25a86.67,86.67,0,0,0-14.32.09,25.9,25.9,0,0,0-7,1.6,9.37,9.37,0,0,0-3,1.9,10.84,10.84,0,0,0-2.05,2.92A16.16,16.16,0,0,0,211,63.7a22.49,22.49,0,0,0,.26,3.57c.16,1.18.34,2.37.52,3.55.75,4.72,1.68,9.41,2.48,14.12.41,2.35.75,4.72,1.1,7.08s.91,4.69,1.34,7a34.79,34.79,0,0,1,.69,7.12,18.54,18.54,0,0,1-.44,3.56,13.76,13.76,0,0,1-6.15,8.48,19.81,19.81,0,0,1-6.64,2.59c-4.72,1-9.56.17-14.22-.79s-9.36-2.11-14.16-1.9a8.66,8.66,0,0,0-6.29,3,5.25,5.25,0,0,0-1.15,3.32,7.31,7.31,0,0,0,1,3.4,21.29,21.29,0,0,0,4.69,5.37,61.59,61.59,0,0,0,5.73,4.3c4,2.67,8.14,5,12.22,7.5,2,1.26,3.92,2.73,5.89,4.09l5.87,4.1c7.84,5.47,15.72,10.91,23,17.11s14,13.12,19.15,21.2c2.53,4.05,4.65,8.37,7.53,12.19a24.92,24.92,0,0,0,5,5.09,30,30,0,0,0,6.35,3.27,44.93,44.93,0,0,1,6.25,3.49,26.56,26.56,0,0,1,5.32,4.77,21.31,21.31,0,0,1,3.64,6.14,27.71,27.71,0,0,1,1.6,7,39.83,39.83,0,0,1-.07,7.16,30.22,30.22,0,0,1-1.66,7A25.49,25.49,0,0,1,271.62,259c-3.81,3-8.58,4.24-13.26,5.05a81.37,81.37,0,0,1-14.29,1c-9.56-.12-19.07-1.27-28.64-1.18l-28.68-.08-14.33,0c-4.79.06-9.55-.45-14.31-.85a116,116,0,0,0-14.31-.58,41.36,41.36,0,0,0-7.11.87,22.36,22.36,0,0,0-6.63,2.63,12.42,12.42,0,0,0-1.49,1c-.48.36-1,.68-1.44,1.07l-1.33,1.19-.67.6-.61.65a33.64,33.64,0,0,0-2.38,2.69L121,274.39l-1,1.46a101.88,101.88,0,0,0-7.26,12.35c-7.83,17.49-18.75,33.29-28.23,49.88-2.39,4.14-4.71,8.32-6.91,12.56L76,353.83a15.19,15.19,0,0,0-1.52,3.24,5.35,5.35,0,0,0,.09,3.51,8.63,8.63,0,0,0,2.06,2.9c.84.85,1.76,1.63,2.59,2.49.4.44.77.91,1.16,1.36a13.78,13.78,0,0,1,1,1.48,17.82,17.82,0,0,1,2.32,6.72c.68,4.76-.11,9.58-1.28,14.19s-2.92,9.1-4.47,13.62l-4.77,13.52c-3.12,9-6.68,18-7.84,27.51a36.25,36.25,0,0,0,.84,14.22l.55,1.7c.18.57.45,1.11.67,1.66a16,16,0,0,0,.75,1.63c.27.53.56,1.06.87,1.56a34.24,34.24,0,0,0,4.34,5.69,75.93,75.93,0,0,0,11,9.17L96,488.27c15.66,10.91,31.75,21.43,49.25,29.2a139.78,139.78,0,0,0,27.17,9,125.56,125.56,0,0,0,14.17,2.16c4.76.4,9.54.53,14.32.51,9.56,0,19.11-.55,28.67-.27s19.09,1.07,28.59,2.16q7.11.82,14.22,1.81a138.09,138.09,0,0,1,14.12,2.48,96.21,96.21,0,0,1,13.68,4.24,27.49,27.49,0,0,1,6.16,3.63c1.94,1.4,3.85,2.85,5.88,4.1a16.9,16.9,0,0,0,6.59,2.65,8.38,8.38,0,0,0,6.57-2.15,13.92,13.92,0,0,0,3.29-6.26c.66-2.29,1.07-4.65,1.67-7a19.9,19.9,0,0,1,1.15-3.39c.49-1.1,1.12-2.11,1.71-3.15a51,51,0,0,1,4.05-5.91,38,38,0,0,1,10.81-9.31c8.1-5,16.53-9.73,23.59-16.21a38.38,38.38,0,0,0,8.74-11.24l.77-1.62c.26-.53.42-1.11.63-1.67s.41-1.12.6-1.69.32-1.15.47-1.72a42.08,42.08,0,0,1,2-6.88,11.26,11.26,0,0,1,4.63-5.34,21.52,21.52,0,0,1,6.73-2.41c2.34-.51,4.71-.81,7-1.36l1.74-.42c.57-.15,1.13-.37,1.7-.55a32.73,32.73,0,0,0,3.33-1.29,36.72,36.72,0,0,0,11.59-8.26,28.56,28.56,0,0,0,4.14-5.81,25.71,25.71,0,0,0,1.48-3.25c.19-.57.33-1.15.5-1.72l.24-.86c.07-.29.1-.59.15-.88l.27-1.77,0-1.79c0-.3,0-.59,0-.89l-.1-.89-.21-1.78a38.25,38.25,0,0,0-2.17-6.81,57.05,57.05,0,0,1-2.39-6.76,35.25,35.25,0,0,1-1.16-7.07,28.58,28.58,0,0,1,2.62-14,33.35,33.35,0,0,1,8.78-11.22,70.42,70.42,0,0,1,11.88-8c4.18-2.32,8.48-4.41,12.76-6.55s8.54-4.29,12.62-6.77a59.88,59.88,0,0,0,5.94-4c1.94-1.4,3.73-3,5.53-4.55,7.06-6.46,13.07-13.93,19.46-21a119.78,119.78,0,0,1,10.1-10.18,60.62,60.62,0,0,1,11.74-8.17l3.24-1.56a35.26,35.26,0,0,0,3.22-1.55,11.88,11.88,0,0,0,2.85-2.12,6.16,6.16,0,0,0,1.66-3.09,7.91,7.91,0,0,0-.18-3.52,11.83,11.83,0,0,0-1.35-3.29,28.82,28.82,0,0,0-4.55-5.5l-10.16-10.12c-1.7-1.67-3.35-3.41-5.14-5a18.58,18.58,0,0,0-6-3.78,10.3,10.3,0,0,0-7-.1,6.7,6.7,0,0,0-4.34,5.22,41.43,41.43,0,0,0-.23,7.14,17.11,17.11,0,0,1-.38,3.57,9.1,9.1,0,0,1-1.46,3.27,9.24,9.24,0,0,1-2.65,2.41,17.25,17.25,0,0,1-1.6.82l-.86.3-.42.14-.45.08a11.69,11.69,0,0,1-7-1c-4.39-2-7.94-5.35-11.44-8.57h0a51.07,51.07,0,0,1-5.94-3.79,22.88,22.88,0,0,0-6.24-3.19,41.46,41.46,0,0,0-13.94-1.43,129.12,129.12,0,0,0-14,1.34c-2.34.31-4.6,1-6.89,1.49a34.07,34.07,0,0,1-3.47.62l-1.76.09c-.29,0-.58,0-.88,0S415.9,286.34,415.71,286.08Z"/></svg>