<svg id="Layer_1" data-name="Layer 1" xmlns="http://www.w3.org/2000/svg" viewBox="0 0 600 600"><title>Guyana</title><path d="M415.07,272.37c-.44,1.95-1,3.86-1.57,5.76a33,33,0,0,1-2.24,5.58,16.36,16.36,0,0,1-9.33,7.69c-1,.39-2,.61-3,.9s-2,.46-3,.6c-2,.35-4,.56-6,.82s-3.89.54-5.76.93A24.62,24.62,0,0,0,379,296.5c-.41.19-.77.46-1.16.68a6.29,6.29,0,0,0-1.1.75l-1,.82-.92.94a15.25,15.25,0,0,0-2.73,4.4,24.76,24.76,0,0,0-1.31,5.25c-.24,1.84-.33,3.75-.39,5.69l-.15,6c0,1-.1,2.08-.18,3.14s-.25,2.23-.48,3.29a71.29,71.29,0,0,1-3.83,12,66.76,66.76,0,0,0-3.46,10.66,24.63,24.63,0,0,0-.35,2.48l-.09,1.22,0,1.18a5.61,5.61,0,0,0,.08,1.16l.12,1.14a19.12,19.12,0,0,0,.55,2.09,51.73,51.73,0,0,0,4.93,9.45c2.07,3.46,4,6.75,6.16,9.81a52,52,0,0,0,6.73,8.18,24.84,24.84,0,0,0,3.66,3c.31.2.61.42.93.6l.93.53a13.17,13.17,0,0,0,1.68.73c2.19.72,4.36.72,8.2.32a44.64,44.64,0,0,1,7.2-.3,23.14,23.14,0,0,1,4.85.85,20,20,0,0,1,4.94,2.25,22.85,22.85,0,0,1,4,3.25,27.64,27.64,0,0,1,2.85,3.49c.8,1.16,1.48,2.33,2.09,3.43s1.11,2.13,1.61,3.2,1,2.15,1.39,3.22.85,2.24,1.17,3.06q1,2.7,2.08,5.38c1.43,3.56,2.91,7.1,4.5,10.6s3.14,7,4.84,10.43c3.39,6.87,6.94,13.65,10.81,20.24.95,1.66,1.94,3.29,2.92,4.93s2,3.3,3,4.8a43.65,43.65,0,0,0,5.78,7.47,15.53,15.53,0,0,0,2.7,2.16,12.51,12.51,0,0,0,1.25.65L466,482a49.82,49.82,0,0,1,7,3.36c.63.36,1.37.86,2.07,1.35.35.23.77.58,1.14.87s.75.6,1.19,1,.82.8,1.24,1.26.9,1.09,1.32,1.66a8.94,8.94,0,0,1,.65,1q.33.57.63,1.14a13.71,13.71,0,0,1,1.05,2.7c.15.49.27,1,.38,1.49s.14,1.08.18,1.63a13.18,13.18,0,0,1-.1,3.22c-.07.51-.17,1-.28,1.53a10.92,10.92,0,0,1-.4,1.4,22.94,22.94,0,0,1-1,2.39,14.79,14.79,0,0,1-1.49,2.35,17.9,17.9,0,0,1-1.64,1.84,19.67,19.67,0,0,1-3,2.38c-.43.28-.86.54-1.21.73l-1,.53-2.07,1a44,44,0,0,1-4.38,1.6,36.42,36.42,0,0,1-8.91,1.3c-.72,0-1.46,0-2.15,0l-2.06-.13-1-.08-1-.12-1.95-.27a89.53,89.53,0,0,1-13.38-3.49c-3.93-1.27-7.53-2.54-10.52-3.22a20.27,20.27,0,0,0-7.23-.68c-.24,0-.37.09-.56.12a3.1,3.1,0,0,1-.53.1,3.82,3.82,0,0,1-.46.21,1.58,1.58,0,0,0-.49.21,3.5,3.5,0,0,1-.51.26,6.56,6.56,0,0,0-.58.39c-.21.15-.39.22-.63.42l-.72.57c-2,1.57-4.66,4.42-7.72,7.41-1.53,1.5-3.19,3-4.93,4.56l-2.69,2.25c-1.15.85-2.33,1.69-3.51,2.51a49.89,49.89,0,0,1-14.89,6.22,95.25,95.25,0,0,1-13.69,2.21c-4.25.44-8.21.74-11.81,1.16-.94.08-1.77.22-2.63.35s-1.66.28-2.47.42-1.54.33-2.28.5a8.87,8.87,0,0,0-1.53.45A18.06,18.06,0,0,0,340,545.9c-2.2,2-4.7,4.69-8.05,8a54.57,54.57,0,0,1-6.07,5.16,36.59,36.59,0,0,1-9,4.81,32,32,0,0,1-11.37,1.88,38.57,38.57,0,0,1-10.4-1.68,55.77,55.77,0,0,1-8.14-3.32,73.15,73.15,0,0,1-6.69-3.83c-4-2.58-7.37-5-10.2-6.82-1.41-.93-2.65-1.64-4.06-2.42-.66-.38-1.46-.77-2.2-1.16l-2.34-1.22c-3.21-1.66-6.8-3.37-10.66-5.4a103.67,103.67,0,0,1-12.29-7.59,23.58,23.58,0,0,1-8.45-9.84c-.73-1.33-1.31-2.9-1.93-4.34s-1.19-2.92-1.83-4.35c-.32-.71-.67-1.41-1-2.13s-.61-1.44-.93-2.16-.64-1.43-.93-2.17-.51-1.49-.75-2.2c-.47-1.42-.85-2.76-1.17-4l-.93-3.4c-.3-1-.58-1.94-.86-2.74a15.44,15.44,0,0,0-.89-2c-.29-.53-.58-1-.93-1.53-1.4-2.08-3.31-4.51-5.5-7.63l-.83-1.21-.82-1.29-.85-1.36-.83-1.45a52.93,52.93,0,0,1-3.14-6.59A81.32,81.32,0,0,1,200.73,443a93.15,93.15,0,0,1,1.19-14.48c.45-2.38.89-4.74,1.51-7.06s1.32-4.62,2-6.88A102.81,102.81,0,0,1,211,401.48c2.18-4.13,4.43-8,6.76-11.5,4.62-7.11,9.06-13.52,12.39-20.07.8-1.59,1.67-3.41,2.38-5.1s1.38-3.42,2-5.12c.28-.85.5-1.69.76-2.54l.57-2.51.35-2.45c0-.79.14-1.6.15-2.36a19.13,19.13,0,0,0-.42-4.23l-.23-.94c-.09-.29-.23-.55-.33-.83a7.07,7.07,0,0,0-.33-.8c-.14-.23-.28-.46-.4-.69l-.19-.36a2.25,2.25,0,0,0-.24-.3c-.16-.2-.32-.4-.46-.6a2.75,2.75,0,0,0-.53-.55c-.19-.17-.36-.35-.53-.53-.41-.32-.87-.62-1.26-1a3.15,3.15,0,0,0-.78-.31,11.41,11.41,0,0,0-2.44-.35c-1.25-.07-3,0-5.28-.1-1.13,0-2.42-.14-3.86-.34-.76-.12-1.38-.46-2.22-.61s-1.62-.13-2.55-.32c-3.57-.55-7.88-1.88-10.93-5.31-.38-.4-.72-.84-1.07-1.27s-.6-.89-.89-1.34-.57-.91-.81-1.36-.45-.91-.66-1.37a26.43,26.43,0,0,1-1.76-5.34,34.18,34.18,0,0,1-.6-9.37,45.32,45.32,0,0,1,1.34-8.15c.17-.66.35-1.32.56-2l.52-1.65.87-2.75a35,35,0,0,0,1.84-8.46,4,4,0,0,0-.2-1.39c-.09,0-.11.09-.2-.06a16.82,16.82,0,0,0-1.56-.95l-.64-.34c-.19-.1-.28-.06-.41-.12s-.22-.14-.37-.13a1.85,1.85,0,0,1-.41-.07c-1-.25-3.22-.08-6.22.51s-6.79,1.68-11.34,2.66l-1.73.35-1.87.32c-1.19.22-2.64.34-4,.48-.67.08-1.45.08-2.17.11s-1.44.06-2.24,0a36.88,36.88,0,0,1-4.66-.4,36.36,36.36,0,0,1-4.44-.9l-2.18-.61c-.72-.21-1.4-.5-2.1-.75s-1.38-.53-2.06-.82l-1.95-.95c-.64-.33-1.31-.65-1.91-1l-1.8-1.1a59.16,59.16,0,0,1-11.92-10,96.73,96.73,0,0,1-8.52-10.92q-1.84-2.73-3.54-5.42c-.55-.9-1.12-1.77-1.64-2.67-.61-1.05-1.18-2.21-1.71-3.33a38.62,38.62,0,0,1-1.37-3.75,42,42,0,0,1-.92-4.19c-.1-.74-.16-1.54-.23-2.29a21.87,21.87,0,0,1-.11-2.32c0-.81,0-1.62.06-2.4s.18-1.63.27-2.42a34,34,0,0,1,1-4.67c.51-1.44,1-2.9,1.55-4.14s1.14-2.45,1.71-3.61c.29-.57.59-1.06.88-1.59s.59-1.05.89-1.51c2.41-3.83,4.69-7,6.7-10.24l.38-.6a1.88,1.88,0,0,1,.14-.24c.1-.14.16-.35.27-.53a7.12,7.12,0,0,0,.4-1.54,21.13,21.13,0,0,0,0-4.6c-.13-1.79-.41-3.73-.64-5.89a37.53,37.53,0,0,1-.14-7.37,21.75,21.75,0,0,1,.88-4.47A17.23,17.23,0,0,1,135,178.1a17.89,17.89,0,0,1,3.58-3.82,24.25,24.25,0,0,1,4-2.49c5.14-2.54,10.46-3.12,14.81-3.5a54.24,54.24,0,0,0,10.5-1.36l.93-.29.84-.34c.28-.1.51-.26.77-.38l1-.5c1.7-.78,3.3-1.54,4.71-2.34a41.09,41.09,0,0,0,3.76-2.31,14.69,14.69,0,0,0,2.35-2,4.56,4.56,0,0,0,.85-1.25s0-.08,0-.12a.27.27,0,0,1,.06-.12.63.63,0,0,0,.11-.3,1,1,0,0,1,.3-.41c.24-.15.54-.47.48-1.42a10,10,0,0,0-1.34-3.76,33,33,0,0,0-3.13-4.61c-1.26-1.55-2.66-3.11-4.16-4.67-.74-.8-1.53-1.57-2.29-2.41s-1.57-1.68-2.35-2.6a23.82,23.82,0,0,1-4.06-6.47,19.29,19.29,0,0,1-1.45-8.08,21.83,21.83,0,0,1,1.73-7.69,28.31,28.31,0,0,1,3.74-6.35,33.45,33.45,0,0,1,4.9-5.18,62.68,62.68,0,0,1,11-7.14,99.52,99.52,0,0,0,9.83-5.75,29.7,29.7,0,0,0,7.14-6.86,31.83,31.83,0,0,0,4.49-8.73c.14-.39.24-.79.36-1.18l.09-.3a.91.91,0,0,0,.06-.22c0-.1,0-.17.05-.3a13.27,13.27,0,0,0,.13-1.8c0-1.47-.07-3.31-.18-5.31a59.4,59.4,0,0,1-.09-6.78,26.32,26.32,0,0,1,.57-4.18,18.26,18.26,0,0,1,1.87-4.91,15.24,15.24,0,0,1,4.12-4.68l.64-.46c.22-.15.38-.23.57-.35l1.11-.64c.38-.2.71-.41,1.15-.6s.91-.36,1.37-.52a11.25,11.25,0,0,1,1.42-.45c.53-.11,1.06-.21,1.6-.3a14.49,14.49,0,0,1,3.37-.09,17.16,17.16,0,0,1,3.28.65c.48.17,1,.36,1.43.56a8.67,8.67,0,0,1,1.33.63,27.74,27.74,0,0,1,6.82,5.48c1.58,1.65,2.86,3.11,3.77,3.94l.64.54c.34.26.67.53,1,.79.68.53,1.39,1,2.11,1.56,1.45,1,3,2,4.54,3,3.14,2,6.5,3.83,9.94,5.88s6.73,3.86,10.2,5.79,7,3.88,10.49,6,7,4.27,10.52,6.61c1.76,1.16,3.46,2.41,5.17,3.68.86.63,1.7,1.3,2.54,2s1.77,1.4,2.62,2.14a66.05,66.05,0,0,1,9.39,9.82c1.4,1.78,2.7,3.63,3.92,5.53a60.51,60.51,0,0,1,3.35,5.85c.52,1,1,2,1.46,3s.9,2.07,1.27,3c.78,1.92,1.55,3.9,2.27,6a61.74,61.74,0,0,1,1.88,6.56c.26,1.16.48,2.4.64,3.7s.22,2.46.25,3.6c.07,4.55-.22,8,.33,10.65a19.19,19.19,0,0,0,.54,2,13.25,13.25,0,0,0,.78,1.74,9.14,9.14,0,0,0,2.37,2.74c2,1.64,5.44,2.87,9.21,4.1s7.7,2.56,11.64,4.24a59.23,59.23,0,0,1,5.83,2.86c.95.55,1.9,1.12,2.82,1.74.47.31.93.61,1.38.95l.67.49.6.47c3.24,2.49,6.35,5,9.42,7.58,6.15,5,12.16,10,18.82,13.9,6.4,3.87,14.64,5.84,21.3,11.17a20.33,20.33,0,0,1,4.28,4.73,22,22,0,0,1,2.62,5.7,45,45,0,0,1,1.79,12,139.82,139.82,0,0,1-2,23.86c-1.24,7.87-2.89,15.67-4.65,23.43Zm-.09,0c1.36-7.85,2.67-15.72,3.54-23.6s1.6-15.76,1.16-23.57a43,43,0,0,0-2.06-11.36,18,18,0,0,0-6.34-9A44.62,44.62,0,0,0,401,199.51a107.27,107.27,0,0,1-11.07-4.76c-7.15-3.79-13.57-8.66-19.9-13.49-3.16-2.42-6.31-4.84-9.53-7.14a43.54,43.54,0,0,0-10.35-5.5c-3.67-1.43-7.49-2.54-11.3-3.65s-7.78-2.2-11.2-4.52a15.83,15.83,0,0,1-4.3-4.37,19,19,0,0,1-2.46-5.58c-1.06-4-.84-8-1.09-12a36.31,36.31,0,0,0-2.75-11.46c-.72-1.85-1.51-3.68-2.33-5.49s-1.68-3.6-2.64-5.33A64,64,0,0,0,297,98c-12.42-10-26.83-17.1-40.5-25.22-6.82-4.09-13.77-8.1-19.69-13.45-1.41-1.4-2.66-3-4-4.44a18.94,18.94,0,0,0-4.48-3.9,6.8,6.8,0,0,0-5.75-.56l-.7.24a7,7,0,0,0-.67.34,10.27,10.27,0,0,0-1.28.76,7.34,7.34,0,0,0-2,2.19,13.63,13.63,0,0,0-1.59,5.7,59.49,59.49,0,0,0-.14,6c0,2,.07,4-.09,6a18.45,18.45,0,0,1-.45,3,24.17,24.17,0,0,1-1,2.83,37.4,37.4,0,0,1-14.85,18.18c-6.7,4.3-14.4,6.94-20.61,12a25.42,25.42,0,0,0-7.23,9.37,16.52,16.52,0,0,0-1.33,5.79,13.83,13.83,0,0,0,1.06,5.82,18.6,18.6,0,0,0,3.19,5,39,39,0,0,0,4.27,4.16c3,2.59,6.28,4.91,9.2,7.62a25,25,0,0,1,3.9,4.51,12.62,12.62,0,0,1,2,5.55,10.94,10.94,0,0,1-.07,3,7.31,7.31,0,0,1-.26,1.47,14.59,14.59,0,0,1-.42,1.43,14.42,14.42,0,0,1-3.14,5,30.23,30.23,0,0,1-9.87,6.58c-1.81.82-3.67,1.54-5.54,2.23a26.61,26.61,0,0,1-5.76,1.53c-3.95.58-7.95.33-11.92.33s-8,.31-11.7,1.92a13.85,13.85,0,0,0-2.6,1.46,10.76,10.76,0,0,0-2.09,2.12,11.31,11.31,0,0,0-2,5.56c-.4,4,.32,7.95.62,11.91a31.23,31.23,0,0,1,0,6,16.1,16.1,0,0,1-.6,2.92,14.36,14.36,0,0,1-1.23,2.71c-1.91,3.5-4,6.89-5.82,10.43a30.81,30.81,0,0,0-2.29,5.51,21.91,21.91,0,0,0-.66,2.91,18.45,18.45,0,0,0-.12,3,20.47,20.47,0,0,0,1.16,5.84c.38.92.7,1.86,1.14,2.76s.87,1.79,1.37,2.65l1.53,2.56,1.61,2.51c1.09,1.67,2.2,3.32,3.35,5a84.6,84.6,0,0,0,7.46,9.32,45.13,45.13,0,0,0,9.12,7.65,29,29,0,0,0,11.09,4.17,33.37,33.37,0,0,0,11.86-.69c3.9-.77,7.74-1.85,11.67-2.54,1-.17,2-.34,2.95-.44a27,27,0,0,1,3-.21c1-.07,2,.05,3,.07l1.48.22a8.23,8.23,0,0,1,1.46.3l1.44.4a10.17,10.17,0,0,1,1.38.55c.46.2.93.37,1.36.61l1.3.75a19.53,19.53,0,0,1,4.64,3.71,14.62,14.62,0,0,1,2.85,5.2,18.69,18.69,0,0,1,.51,5.92,49.11,49.11,0,0,1-2.8,11.57c-.63,1.9-1.36,3.75-1.9,5.67a32.34,32.34,0,0,0-1.08,5.86,21.2,21.2,0,0,0,.25,6,12,12,0,0,0,2.44,5.37,10.54,10.54,0,0,0,4.92,3.23,21.74,21.74,0,0,0,5.89.86c2,.08,4,.07,6,.29A16.72,16.72,0,0,1,235,330a14.65,14.65,0,0,1,2.5,1.62c.72.69,1.49,1.33,2.17,2.06l.93,1.16a7.86,7.86,0,0,1,.88,1.2,16.63,16.63,0,0,1,1.41,2.63,25.2,25.2,0,0,1,1.85,11.68,52.5,52.5,0,0,1-2.2,11.71c-1.12,3.82-2.49,7.57-4,11.27-3,7.39-6.72,14.43-10.07,21.66-1.67,3.61-3.23,7.28-4.55,11a91.62,91.62,0,0,0-3.1,11.53,85.61,85.61,0,0,0,4.19,47c2.82,7.45,7.15,14.26,9.47,21.91,1.21,3.81,1.57,7.81,2.32,11.71a26.25,26.25,0,0,0,1.66,5.72l.57,1.38a12.72,12.72,0,0,0,.69,1.32,20.63,20.63,0,0,0,1.55,2.55,37.44,37.44,0,0,0,8.36,8.45,86.57,86.57,0,0,0,10.08,6.39c6.94,3.88,14.15,7.35,20.58,12.08,3.23,2.34,6.32,4.85,9.58,7.13a44.22,44.22,0,0,0,10.47,5.67,21.55,21.55,0,0,0,5.83,1.16,16.28,16.28,0,0,0,5.88-.8c3.8-1.25,7-3.75,10-6.37s5.78-5.49,8.88-8a31.28,31.28,0,0,1,10.33-5.87A66.83,66.83,0,0,1,353.05,527c4-.38,7.94-.6,11.91-1a82.33,82.33,0,0,0,11.8-1.76,36.44,36.44,0,0,0,11-4.44l2.45-1.72,2.3-1.89q2.27-1.94,4.43-4c2.89-2.73,5.62-5.65,8.76-8.1a21,21,0,0,1,10.8-4.75,32.9,32.9,0,0,1,11.84,1.12c7.71,2,15,5.42,22.87,6.79a27.76,27.76,0,0,0,11.83-.3c.94-.31,1.89-.62,2.8-1s1.81-.84,2.65-1.37a5.48,5.48,0,0,0,2.06-2.08,3.75,3.75,0,0,0,.36-2.85,5.44,5.44,0,0,0-1.62-2.44,14.72,14.72,0,0,0-2.39-1.76,37.85,37.85,0,0,0-5.36-2.6,28.05,28.05,0,0,1-5.37-2.61,28.42,28.42,0,0,1-4.6-3.8,56,56,0,0,1-7.21-9.51c-2.1-3.39-4.13-6.81-6.07-10.29-3.92-6.93-7.52-14.05-10.82-21.3s-6.29-14.63-9-22.14c-1.4-3.72-2.44-7.58-4-11.24a35.74,35.74,0,0,0-2.73-5.29,14.61,14.61,0,0,0-4.05-4.31,11.87,11.87,0,0,0-5.57-1.89,43.92,43.92,0,0,0-6,0,38.38,38.38,0,0,1-6-.06,19.82,19.82,0,0,1-5.78-1.47,23.54,23.54,0,0,1-5.09-3.13,34.32,34.32,0,0,1-4.36-4.08,61,61,0,0,1-7-9.64c-2.08-3.4-3.93-6.93-5.79-10.45a52.63,52.63,0,0,1-4.81-10.92,20.86,20.86,0,0,1-.55-2.94l-.07-1.49a10.73,10.73,0,0,1,0-1.5l.09-1.49.21-1.49c.1-1,.4-2,.59-2.93a75.06,75.06,0,0,1,4.3-11.13,65.81,65.81,0,0,0,4.21-11.15,37.73,37.73,0,0,0,.89-5.89l.45-6A36,36,0,0,1,370,303.15a17,17,0,0,1,3.37-4.92l1.09-1,1.21-.88a8.39,8.39,0,0,1,1.27-.79c.45-.23.87-.5,1.33-.69A26.55,26.55,0,0,1,384,293.1c2-.33,3.94-.57,5.93-.74s4-.33,5.94-.6c1-.1,2-.31,2.94-.47a29.18,29.18,0,0,0,2.88-.78,19.83,19.83,0,0,0,2.76-1.1,13.84,13.84,0,0,0,1.29-.74,6.83,6.83,0,0,0,1.24-.82,14.77,14.77,0,0,0,4.05-4.32,31.31,31.31,0,0,0,3.91-11.2Z"/></svg>