<svg id="Layer_1" data-name="Layer 1" xmlns="http://www.w3.org/2000/svg" viewBox="0 0 600 600"><title>Haiti</title><path d="M427.7,164.65l.21,0c10.45,2.1,21.25,1.93,31.87,2.91,10.66.77,21.35,1.65,32,3.38s21.38,4.72,31,10.72c1.17.81,2.38,1.55,3.48,2.47.56.45,1.13.88,1.68,1.35l1.59,1.48c.26.24.53.48.79.74l.73.81,1.47,1.63,1.33,1.77.65.89c.21.31.39.63.59.94l1.15,1.92c.35.65.64,1.34,1,2a28.88,28.88,0,0,1,1.62,4.16,44.17,44.17,0,0,1,1.7,8.61,100.3,100.3,0,0,1-.07,16.73c-.35,5.38-.75,10.62-.58,15.54s1,9.44,3,12.95c.23.45.53.85.78,1.28s.6.79.88,1.2a20.59,20.59,0,0,0,2.11,2.21,51,51,0,0,1,6.38,6.34,20.56,20.56,0,0,1,1.65,2.51,21.23,21.23,0,0,1,1.26,2.89,19.36,19.36,0,0,1,1,6.17,24.46,24.46,0,0,1-2.82,10.92,32.67,32.67,0,0,1-6.17,8.33c-.63.6-1.25,1.2-1.93,1.75-.35.28-.65.55-1,.84l-1.24.86-.62.41-.6.35-1.21.67c-.78.41-1.54.76-2.3,1.11-3,1.28-5.57,2.13-7.67,3a11.14,11.14,0,0,0-4.11,2.43c-.11.15-.26.27-.27.4s-.08.1-.1.17a.58.58,0,0,1,0,.19,3.41,3.41,0,0,0-.13.95.13.13,0,0,0,0,.16.1.1,0,0,1,0,.09c0,.06.08,0,.07.09s.07.05.08.08a.14.14,0,0,1,0,.06l.09.09a1.28,1.28,0,0,1,.14.21c.05.08.19.21.27.31A44,44,0,0,0,532,316c.57.52,1.1,1,1.7,1.53l.9.87.45.44.48.51a23,23,0,0,1,1.89,2.21l.94,1.25c.31.48.6,1,.9,1.47a20,20,0,0,1,1.54,3.29c.1.26.25.62.3.82l.19.63.38,1.27c.23.84.41,1.7.61,2.55s.31,1.71.43,2.57a43.77,43.77,0,0,1-6.61,29.89,54.81,54.81,0,0,1-13.73,14.15l-1,.69c-.33.23-.59.43-1.09.75-.9.59-1.79,1.1-2.65,1.55a45,45,0,0,1-4.83,2.15c-3,1.15-5.6,1.94-7.66,2.73a15,15,0,0,0-4,2c-.26.22-.28.3-.27.32s0,0,0,.26-.05.26-.06.48.05.33,0,.49.06.2,0,.29.09.1.06.15,0,.05.05.07a.15.15,0,0,1,0,.09c0,.07.16.16.19.27a4.38,4.38,0,0,1,.4.44c.23.18.36.36.63.58a29.12,29.12,0,0,0,4.56,3c2,1.11,4.27,2.23,6.94,3.69l7.06,3.86c2.41,1.32,4.92,2.73,7.48,4.32a64.72,64.72,0,0,1,15.09,12.44,51.31,51.31,0,0,1,3.24,4.19c.26.38.5.7.77,1.12l.8,1.32a28.54,28.54,0,0,1,1.53,2.94,15.77,15.77,0,0,1,.69,1.72c.22.63.44,1.2.62,1.87a22.21,22.21,0,0,1-.36,12.95,40,40,0,0,1-2.37,5.45c-.71,1.36-1.24,2.38-1.7,3.32a15.52,15.52,0,0,0-1.85,6.75c0,.81,0,1.71,0,2.72s.17,2.19.3,3.44l.41,4.11.1,1.11.09,1.21a30.34,30.34,0,0,1,0,3.43,31,31,0,0,1-1,6.57,24.66,24.66,0,0,1-3.38,7.43,19.63,19.63,0,0,1-3.71,4,18.15,18.15,0,0,1-2.63,1.79,19.41,19.41,0,0,1-3,1.34,21.89,21.89,0,0,1-3.18.76,28,28,0,0,1-3,.17,21.28,21.28,0,0,1-5.44-.89,19.1,19.1,0,0,1-5.16-2.54,21.16,21.16,0,0,1-3.65-3.22,31.12,31.12,0,0,1-3.93-5.61c-.87-1.57-1.51-2.89-2-3.84a25.1,25.1,0,0,0-6.89-8c-5.88-4.61-14.56-7.52-23.92-9.19-4.7-.85-9.59-1.43-14.61-1.83-2.52-.2-5.05-.36-7.64-.5l-7.95-.42c-5.27-.25-10.49-.45-15.65-.55s-10.27,0-15.3.2-10,.65-14.84,1.3S389,466.28,384,467.39c-10,2.16-20.21,5-31.17,7.48-5.48,1.22-11.12,2.34-17,3.17l-4.42.58-4.5.44c-3,.22-6.11.42-9.15.4-12.21.2-23.93-1.4-35.05-3.37-5.5-1.07-10.95-2.2-16.19-3.36-1.33-.3-2.64-.55-3.93-.89a28.58,28.58,0,0,1-3.79-1.27c-2.45-1-4.84-2.41-7.21-3.57a31.72,31.72,0,0,0-3.61-1.59,34.37,34.37,0,0,0-3.68-1.08c-2.47-.59-4.93-1.16-7.37-1.67a122.16,122.16,0,0,0-14.48-2,94.43,94.43,0,0,0-13.88.05c-2.25.17-4.45.49-6.62.81l-1.68.29-1.87.34-3.39.67a33.77,33.77,0,0,0-5.17,1.41,11.82,11.82,0,0,0-2.72,1.36,4.71,4.71,0,0,1-.42.33c-.1.15-.26.25-.38.4a6,6,0,0,0-.71,1,7.67,7.67,0,0,0-.91,2.77l0,.38v.2c0,.08,0-.06,0-.08-.07-.21-.08-.07,0,.2s0,.32.11.59l.21.87.27,1.12c.11.5.21.88.33,1.46l.16.83.16.95c.09.59.17,1.41.22,2.12a20.94,20.94,0,0,1-.37,5.38,19.07,19.07,0,0,1-.83,2.9,20.17,20.17,0,0,1-1.27,2.69,23.27,23.27,0,0,1-1.57,2.34,22.49,22.49,0,0,1-1.77,2,22.12,22.12,0,0,1-7.41,4.74,27.73,27.73,0,0,1-7,1.71,28.07,28.07,0,0,1-7.13-.16,24.72,24.72,0,0,1-3.94-1L153.7,499c-.36-.14-.71-.28-.92-.39l-1.48-.74a33.66,33.66,0,0,1-9.34-7.47,60.33,60.33,0,0,1-5.75-7.75c-1.59-2.44-2.88-4.66-4.19-6.58-.65-1-1.3-2-2-2.91s-1.4-1.92-2.16-2.83A77.25,77.25,0,0,0,106,451.77a72.47,72.47,0,0,0-13.17-5.94c-1.14-.37-2.31-.68-3.46-1s-2.42-.65-3.68-1L77.89,442c-2.7-.64-5.45-1.26-8.3-2.12-1.41-.38-2.87-.88-4.31-1.35-.72-.24-1.47-.55-2.2-.83s-1.46-.56-2.21-.92A42.74,42.74,0,0,1,52,431.6a33.54,33.54,0,0,1-7.59-8.48,36.44,36.44,0,0,1-2.57-5.29,31.67,31.67,0,0,1-1.5-5.67,34.59,34.59,0,0,1,0-11.17,35.4,35.4,0,0,1,1.33-5.25c.3-.84.87-1.58,1.12-2.42.14-.42.22-.87.34-1.3s.28-.84.39-1.28a51.65,51.65,0,0,1,1.74-5.18c.35-.85.73-1.68,1.13-2.52s.94-1.54,1.47-2.28a51.69,51.69,0,0,1,15.77-13.62A69.7,69.7,0,0,1,82.15,360c.8-.19,1.6-.39,2.4-.55L87,359c1.62-.31,3.26-.46,4.91-.64s3.32-.21,5-.3c.85,0,1.62,0,2.41,0s1.57,0,2.35,0A123.62,123.62,0,0,1,119.8,360c5.84,1,11.47,2.33,16.89,3.71,2.89.75,4.95,1.25,7.33,1.76s4.72.92,7.13,1.37c4.81.88,9.78,1.58,14.88,2.23l7.74,1,2,.24,1.85.21,3.71.42c5,.53,10,.93,15.11,1.34l15.58,1c5.27.35,10.61.69,16,1.12l8.18.71c1.37.13,2.73.22,4.12.4a32.45,32.45,0,0,1,4.11.81,36,36,0,0,1,8.08,3.4c1.32.78,2.64,1.51,3.94,2.33s2.59,1.66,3.88,2.43a61.13,61.13,0,0,0,7.73,4.13c2.61,1.11,5.23,1.85,7.84,2.69,5.21,1.66,10.39,3.19,15.58,4.51s10.39,2.4,15.6,3.3,10.38,1.74,15.54,2.42c2.58.36,5.15.61,7.72.89s5.14.42,7.7.43a66.84,66.84,0,0,0,7.28-.11,34.26,34.26,0,0,0,6.49-1.13,16.18,16.18,0,0,0,5-2.18,8.09,8.09,0,0,0,2.59-2.77,7.51,7.51,0,0,0,.38-.75l.49-1.14c.4-.9.89-2.19,1.67-3.73.39-.78.85-1.62,1.41-2.52a21.08,21.08,0,0,1,2-2.75,22.8,22.8,0,0,1,2.37-2.55,23.48,23.48,0,0,1,2.7-2.21,21.87,21.87,0,0,1,2.91-1.81l1.5-.75c.5-.25,1-.42,1.49-.62l1.5-.56c.49-.18,1-.3,1.46-.44l1.47-.41c.48-.11.94-.19,1.41-.28a46.63,46.63,0,0,1,10.47-.73,83.45,83.45,0,0,1,9,.84c1.4.18,2.76.45,4.07.67.37.06.59.11.82.16l.71.15c.47.13,1,.15,1.45.28,1.94.37,3.94.69,5.9.91a30.34,30.34,0,0,0,5.54.24,9.53,9.53,0,0,0,4.09-1,3.81,3.81,0,0,0,.71-.56,2.23,2.23,0,0,0,.59-.76,4.53,4.53,0,0,0,.71-1.9,6.62,6.62,0,0,0-.24-2.24,10.15,10.15,0,0,0-1.23-2.34,16.23,16.23,0,0,0-4.39-4,17.39,17.39,0,0,0-2.74-1.43,30.47,30.47,0,0,0-3.22-1.13,74,74,0,0,0-7.29-1.55c-2.58-.45-5.3-.88-8.12-1.49a42.36,42.36,0,0,1-4.26-1.1,38.34,38.34,0,0,1-4.2-1.41,67.31,67.31,0,0,1-15.34-8.35,104,104,0,0,1-12.91-11.12c-3.95-4-7.58-8.18-11.07-12.4q-2.62-3.17-5.14-6.35l-2.52-3.19a45.93,45.93,0,0,1-2.69-3.82,32.91,32.91,0,0,1-2.42-4.55,20.9,20.9,0,0,1-1.58-5.89,15.81,15.81,0,0,1,.95-7.43,11.47,11.47,0,0,1,.84-1.81l.49-.86c.19-.29.39-.57.6-.85a14,14,0,0,1,3.18-3.11,14.64,14.64,0,0,1,3.86-1.89,18.75,18.75,0,0,1,3.39-.73c1-.13,1.88-.19,2.65-.23l.56,0a1.11,1.11,0,0,0,.35,0l.36-.05a3.15,3.15,0,0,0,1.94-1.14.54.54,0,0,0,.09-.37c0-.06,0-.08-.1-.29,0,0-.06-.11-.07-.17s0-.14-.08-.17a.34.34,0,0,1-.07-.15c0-.06-.12-.14-.16-.22a5.48,5.48,0,0,0-.45-.59,5.36,5.36,0,0,0-.36-.4c-.15-.14-.24-.27-.41-.43-1.29-1.29-3.34-2.86-5.77-5.16l-.94-.95-.47-.49-.49-.56-1-1.14c-.32-.41-.64-.9-.95-1.35a19.79,19.79,0,0,1-1.71-3.1,19.11,19.11,0,0,1-.66-1.8,13.44,13.44,0,0,1-.5-1.86,18.06,18.06,0,0,1-.39-3.81c0-.62,0-1.24.05-1.86s.17-1.22.27-1.82a19.71,19.71,0,0,1,1-3.54,21.29,21.29,0,0,1,1.54-3.18,24.52,24.52,0,0,1,1.84-2.73c.32-.41.64-.77,1-1.16l.5-.56.49-.5a42.37,42.37,0,0,1,3.84-3.44c2.42-1.93,4.63-3.47,6.1-4.75a6.46,6.46,0,0,0,.52-.46,5.86,5.86,0,0,0,.43-.41,3.58,3.58,0,0,1,.53-.57,1.49,1.49,0,0,1,.31-.46.74.74,0,0,1,.14-.34,2.56,2.56,0,0,0,.07-.69.91.91,0,0,1,0-.23l-.07-.32a3.32,3.32,0,0,0-.17-.76,15.08,15.08,0,0,0-2.2-4.26,32,32,0,0,0-4.08-4.64l-2.69-2.46c-.45-.41-.88-.83-1.34-1.23l-1.42-1.16c-.94-.77-1.87-1.55-2.82-2.31l-3-2.16c-.5-.35-1-.73-1.48-1.07l-1.54-1c-1-.66-2-1.35-3.09-2-2.14-1.18-4.21-2.51-6.43-3.56-1.1-.54-2.18-1.12-3.3-1.64l-3.37-1.48c-1.12-.52-2.27-.94-3.43-1.37s-2.28-.92-3.45-1.32c-2.34-.74-4.66-1.61-7.06-2.19a103.41,103.41,0,0,0-14.52-2.92c-2.45-.23-4.91-.57-7.39-.62-1.23,0-2.47-.16-3.7-.14h-3.72c-1.24,0-2.47.09-3.7.14s-2.47.11-3.73.24c-2.52.23-5.15.56-7.93.84-5.51.54-11.66,1-18.12-.38a30.15,30.15,0,0,1-4.92-1.48c-.82-.34-1.62-.73-2.41-1.12s-1.54-.86-2.25-1.35a27.33,27.33,0,0,1-7.39-7.27,20.93,20.93,0,0,1-3.74-10.37,17.39,17.39,0,0,1,.05-3,21.19,21.19,0,0,1,.57-2.94,18.79,18.79,0,0,1,2.5-5.22,18.41,18.41,0,0,1,4-4.1,21.69,21.69,0,0,1,4.65-2.53,38.3,38.3,0,0,1,8.92-2.15c5.62-.76,10.84-.94,15.49-2a20.38,20.38,0,0,0,6.2-2.39,12.71,12.71,0,0,0,2.44-1.93c.77-.79,1.54-1.73,2.35-2.75a32.62,32.62,0,0,1,6.11-6.51,16.53,16.53,0,0,1,4.41-2.28,23.54,23.54,0,0,1,4.5-1,75.34,75.34,0,0,1,8.33-.34l8-.08a301.55,301.55,0,0,1,32.21,1.1A142.55,142.55,0,0,1,368.08,143a150.17,150.17,0,0,1,15,5.82c4.94,2.12,9.43,5.08,14.35,7.13s10.26,2.9,15.55,3.5a48.76,48.76,0,0,1,7.82,1.73A18.85,18.85,0,0,1,427.7,164.65Zm.29.23-.12-.1a13.23,13.23,0,0,0-3.42-2.05,24.52,24.52,0,0,0-3.76-1.29,49.7,49.7,0,0,0-7.81-1.45c-5.29-.42-10.76-1-15.91-3a77.07,77.07,0,0,1-7.37-3.36c-2.39-1.22-4.71-2.37-7.17-3.38a151.46,151.46,0,0,0-14.9-5.42,139.31,139.31,0,0,0-31.21-5.55,295.27,295.27,0,0,0-31.91-.19l-8,.32a74.38,74.38,0,0,0-7.87.55,14.77,14.77,0,0,0-6.93,2.69,27.64,27.64,0,0,0-5.08,5.81,39.85,39.85,0,0,1-2.56,3.2,17.69,17.69,0,0,1-3.17,2.75,24.5,24.5,0,0,1-7.57,3.3c-5.28,1.42-10.66,1.75-15.87,2.63a34.34,34.34,0,0,0-7.57,2,15.82,15.82,0,0,0-3.33,1.89,12.52,12.52,0,0,0-2.59,2.75,11.16,11.16,0,0,0-1.89,7.22,14.43,14.43,0,0,0,2.78,7.1,20.22,20.22,0,0,0,12.94,8.1c5.19,1,10.56.56,15.83-.1l7.94-1.06c1.33-.17,2.67-.24,4-.37s2.66-.27,4-.28l4-.11c1.33-.05,2.67,0,4,.05,2.68,0,5.34.29,8,.49a111,111,0,0,1,15.79,2.78c2.61.58,5.15,1.44,7.71,2.2,1.27.4,2.52.89,3.78,1.34s2.52.89,3.74,1.44l3.69,1.56c1.22.55,2.4,1.17,3.61,1.74,2.43,1.12,4.71,2.52,7.06,3.79,1.15.68,2.26,1.42,3.4,2.12l1.69,1.07c.56.36,1.09.77,1.64,1.15l3.27,2.32c1.06.82,2.09,1.67,3.14,2.49,4.08,3.41,8.24,6.87,11.34,11.25a24.1,24.1,0,0,1,3.63,7.1,12.68,12.68,0,0,1,0,7.87,14.41,14.41,0,0,1-4.79,6.29c-2.05,1.71-4.27,3.2-6.37,4.85a22,22,0,0,0-5.49,5.77,10.94,10.94,0,0,0-1.45,7.69c.5,2.66,2.24,4.87,4.08,6.76s4,3.57,5.81,5.51a12.73,12.73,0,0,1,3.64,7,9,9,0,0,1-2.37,7.37,11.6,11.6,0,0,1-7.06,3.43c-1.33.12-2.67,0-4,.2a8.12,8.12,0,0,0-3.77,1.22,7.62,7.62,0,0,0-3,7,18.27,18.27,0,0,0,2.75,7.46c1.35,2.31,3,4.4,4.58,6.56s3.2,4.28,4.83,6.4c3.28,4.21,6.68,8.34,10.34,12.23a92.09,92.09,0,0,0,11.86,10.73,59.63,59.63,0,0,0,13.91,7.85,35.92,35.92,0,0,0,3.78,1.31,36.8,36.8,0,0,0,3.87,1c2.6.59,5.24,1,7.87,1.48a77.23,77.23,0,0,1,7.82,1.7,27.9,27.9,0,0,1,7.34,3.14,21.56,21.56,0,0,1,5.89,5.37,17,17,0,0,1,2,3.47A14,14,0,0,1,432,374a12.28,12.28,0,0,1-2.08,7.58,14.85,14.85,0,0,1-6.18,4.93,28.12,28.12,0,0,1-7.69,2.15,41.86,41.86,0,0,1-8,.32c-2.67-.12-5.31-.6-7.95-.93s-5.31-.64-8-.75a38.74,38.74,0,0,0-8,.41,19.27,19.27,0,0,0-7.44,2.8,16.49,16.49,0,0,0-5.29,5.9c-1.31,2.32-2.36,4.82-4.13,6.84a18.81,18.81,0,0,1-6.29,4.86,28.84,28.84,0,0,1-7.63,2.35,60.63,60.63,0,0,1-16,.23c-21.32-1.85-42.05-7.44-63-11.56-5.24-1-10.5-1.95-15.79-2.73S248,395,242.67,394.47c-10.64-1-21.3-1.65-32-2.36s-21.31-1.56-31.9-3c-5.28-.74-10.56-1.6-15.82-2.5s-10.51-1.91-15.71-3.12-10.35-2.66-15.43-4.31-10.23-3.07-15.44-4.25a107.08,107.08,0,0,0-15.82-2.46,60.92,60.92,0,0,0-16,.82,55,55,0,0,0-15.11,5.13,39.43,39.43,0,0,0-12.45,9.9,31,31,0,0,0-6.7,14.35,22.73,22.73,0,0,0,2.54,15.48,23.86,23.86,0,0,0,5.2,6,33.16,33.16,0,0,0,6.78,4.22,82.35,82.35,0,0,0,15.16,5.08c5.17,1.33,10.41,2.44,15.48,4.1a91,91,0,0,1,14.71,6.3,92.21,92.21,0,0,1,25.07,19.7A122.53,122.53,0,0,1,145,476.33a53.67,53.67,0,0,0,5,6.24,22.56,22.56,0,0,0,6.36,4.79,12.94,12.94,0,0,0,7.8,1.14,12.4,12.4,0,0,0,7.17-3.24,6.67,6.67,0,0,0,1.86-3.47,9.46,9.46,0,0,0-.24-4c-.31-1.3-.74-2.57-1.07-3.86a14.8,14.8,0,0,1-.45-4,21.4,21.4,0,0,1,1.54-7.82,19.72,19.72,0,0,1,4.43-6.61,23,23,0,0,1,6.66-4.38,41.39,41.39,0,0,1,7.6-2.47,104.5,104.5,0,0,1,15.8-2.58,108.3,108.3,0,0,1,16,0,222.3,222.3,0,0,1,31.62,5c10.44,2.28,20.8,4.89,31.27,7s21.07,3.72,31.76,3.87,21.34-1.16,31.84-3,20.92-4.32,31.43-6.21c5.26-.94,10.55-1.72,15.86-2.27s10.65-.82,16-.93c10.68-.22,21.36.28,32,.91s21.35,1.22,31.85,3.25A89.52,89.52,0,0,1,492.59,458a52.16,52.16,0,0,1,14,7.73A37.92,37.92,0,0,1,516.74,478a32.88,32.88,0,0,0,4.08,6.86,7.43,7.43,0,0,0,3.25,2.22,6.59,6.59,0,0,0,3.93,0,6.15,6.15,0,0,0,3.06-2.43,12.23,12.23,0,0,0,1.62-3.63,20.56,20.56,0,0,0,.48-7.93c-.46-5.29-1.33-10.68-.22-16a30.08,30.08,0,0,1,2.66-7.54,70.18,70.18,0,0,0,3.47-7.21,10.24,10.24,0,0,0-.48-7.76,31,31,0,0,0-4.42-6.64A53,53,0,0,0,521.9,417.8c-4.51-2.85-9.25-5.33-13.89-8s-9.59-4.81-13.6-8.41a14.69,14.69,0,0,1-4.45-6.57,14.5,14.5,0,0,1-.07-7.92,11.94,11.94,0,0,1,4.44-6.53,26.17,26.17,0,0,1,7.16-3.55c2.52-.89,5.09-1.62,7.6-2.54a26.54,26.54,0,0,0,7.07-3.66,44.43,44.43,0,0,0,11.31-11.2,33.17,33.17,0,0,0,5.47-14.87,33.81,33.81,0,0,0,0-8c-.08-.66-.2-1.32-.29-2s-.27-1.31-.43-2a14.51,14.51,0,0,0-1.39-3.72c-2.65-4.71-7.58-7.46-10.78-11.76a11.91,11.91,0,0,1-1.85-3.55,13.28,13.28,0,0,1-.37-2v-1a3.72,3.72,0,0,1,.06-1,11.19,11.19,0,0,1,3.59-7,20.69,20.69,0,0,1,7-3.82c2.51-.92,5.08-1.67,7.55-2.66a23,23,0,0,0,3.58-1.78,21.07,21.07,0,0,0,3.15-2.44,25.11,25.11,0,0,0,4.93-6.25,17.35,17.35,0,0,0,2.23-7.59,12.15,12.15,0,0,0-2.34-7.47,54.62,54.62,0,0,0-5.49-5.8,24.09,24.09,0,0,1-4.64-6.51c-2.36-4.84-3-10.31-2.93-15.63.12-10.69,2.61-21.25,1.93-31.95a40.34,40.34,0,0,0-1.27-7.88,25.58,25.58,0,0,0-1.33-3.77c-.27-.61-.5-1.23-.8-1.83l-1-1.74c-.17-.29-.32-.59-.49-.87l-.57-.82-1.14-1.65-1.29-1.53-.64-.76-.71-.71-1.41-1.41c-.5-.45-1-.87-1.52-1.31-1-.89-2.1-1.63-3.17-2.43a63.34,63.34,0,0,0-14.27-7.15,100.66,100.66,0,0,0-15.46-4.12c-10.49-2-21.12-3.18-31.74-4.24-5.32-.52-10.64-1-15.94-1.64q-4-.45-7.95-1c-1.33-.19-2.65-.34-4-.51Z"/><path d="M373.8,123.5c-2-1.67-4-3.37-6.08-5a21,21,0,0,0-7-3.34,71.7,71.7,0,0,0-15.44-2.06,112.16,112.16,0,0,0-15.46.51c-1.26.12-2.58.28-3.78.43a16,16,0,0,0-3.31.79,5.64,5.64,0,0,0-1.23.6,1.19,1.19,0,0,0-.44.45s0,0,0,0,0,0,0,.06,0,.19,0,.22.09.18.25.39a7,7,0,0,0,2.44,1.23,26.59,26.59,0,0,0,3.46.8c2.51.42,5,.74,7.57,1,5.13.48,10.53.7,15.81,2.07a62,62,0,0,1,7.57,2.62c2.45.95,4.86,1.95,7.36,2.68a31.64,31.64,0,0,0,7.65,1.57,4.46,4.46,0,0,0,1.88-.35,1.57,1.57,0,0,0,.9-1.57,3,3,0,0,0-.72-1.78A14,14,0,0,0,373.8,123.5Zm0,0a14,14,0,0,1,1.45,1.33,3,3,0,0,1,.75,1.79,1.69,1.69,0,0,1-.9,1.66,4.58,4.58,0,0,1-1.93.44,39.39,39.39,0,0,1-7.81-1.08c-5.19-1-10.2-2.9-15.25-3.51s-10.19-.2-15.53-.2a66.66,66.66,0,0,1-8.08-.51,26.63,26.63,0,0,1-4.21-.85,11.12,11.12,0,0,1-4.47-2.38,6.71,6.71,0,0,1-1-1.3c-.14-.26-.27-.53-.39-.8a6.2,6.2,0,0,1-.24-.87,5.39,5.39,0,0,1-.07-1.74,3.93,3.93,0,0,1,.17-.9,3.28,3.28,0,0,1,.34-.87,6.17,6.17,0,0,1,2.22-2.37,10.78,10.78,0,0,1,2.33-1,19.45,19.45,0,0,1,4.37-.81c1.41-.1,2.7-.12,4-.15a91.24,91.24,0,0,1,16,1.31c2.63.44,5.22,1,7.79,1.62a61.58,61.58,0,0,1,7.61,2.28,24.26,24.26,0,0,1,6.89,3.84Z"/><path d="M293.19,324c-4.07-1.94-8-4.25-12.42-5.35a38.6,38.6,0,0,0-6.63-1.27,19.42,19.42,0,0,0-6.64.32,9.11,9.11,0,0,0-3,1.3,7,7,0,0,0-2.08,2.35,7.81,7.81,0,0,0-.89,3l-.07.78c0,.26,0,.52.05.78a6.48,6.48,0,0,0,.08.77l.19.76A13.66,13.66,0,0,0,265,333a31.15,31.15,0,0,0,4.92,4.3,47.44,47.44,0,0,0,5.63,3.42c2,1,4,2,6,2.93,4.05,1.92,8.18,3.67,12.33,5.34s8.35,3.2,12.59,4.62,8.5,2.76,12.8,3.94,8.67,2.29,13,3.23,8.5,1.38,12.21.15a10.31,10.31,0,0,0,4.61-3,5.69,5.69,0,0,0,1.33-4.81,12.88,12.88,0,0,0-2.73-5.28,29.5,29.5,0,0,0-4.48-4.67,45,45,0,0,0-11.4-6.68,110.45,110.45,0,0,0-12.8-4.28c-4.36-1.18-8.75-2.3-13.1-3.53A82.48,82.48,0,0,1,293.19,324Zm0,0c8.23,3.85,17.24,5.37,26,7.41A124.82,124.82,0,0,1,332.38,335a47.42,47.42,0,0,1,12.41,6.1,32.71,32.71,0,0,1,5.26,4.73,15.73,15.73,0,0,1,3.84,6.43,9,9,0,0,1,.09,4.19,10.5,10.5,0,0,1-1.72,3.78A13.71,13.71,0,0,1,346,365a21.14,21.14,0,0,1-7.43,1.25,38,38,0,0,1-7.15-.72c-4.56-.87-9-1.93-13.39-3.15a175.45,175.45,0,0,1-25.74-9.44c-4.16-1.89-8.22-4-12.23-6.17-2-1.1-3.95-2.25-5.93-3.44a49.16,49.16,0,0,1-5.67-4.06,32.71,32.71,0,0,1-4.92-5,15.67,15.67,0,0,1-3.15-6.38,9.71,9.71,0,0,1,1.17-7,7.74,7.74,0,0,1,2.53-2.53,10.64,10.64,0,0,1,3.28-1.25,20,20,0,0,1,6.85-.07,45.36,45.36,0,0,1,6.62,1.52C285.2,319.74,289.13,322.08,293.19,324Z"/><path d="M190.66,376.14a11.22,11.22,0,0,0-7.64-2.27,37.47,37.47,0,0,0-4.06.29l-2,.27c-.62.09-.95.29-.89.33s0,.1.06.35a1.32,1.32,0,0,0,.38.7,5.67,5.67,0,0,0,1.11.92c.48.33,1.1.68,1.65,1a40.34,40.34,0,0,0,14.92,5.05q1,.13,2,.21c.33,0,.66,0,1,.06l.86.05c.18,0,.15,0-.07.13s-.31.48-.27.45a3.43,3.43,0,0,0,0-1.29,8.33,8.33,0,0,0-3.62-5.8,9.56,9.56,0,0,0-7.68-1.12,9.43,9.43,0,0,1,8.75-1.09,10.67,10.67,0,0,1,6.4,7.2,11.16,11.16,0,0,1,.26,1.28,5.58,5.58,0,0,1,0,1.65,3.63,3.63,0,0,1-.4,1.14,3.22,3.22,0,0,1-.94,1.08,4.22,4.22,0,0,1-2.07.76c-.56.06-.88.06-1.26.07s-.76,0-1.14,0c-.75,0-1.5,0-2.26-.08a35.36,35.36,0,0,1-8.86-1.77,42.26,42.26,0,0,1-4.18-1.73,39.2,39.2,0,0,1-3.93-2.26c-.63-.45-1.22-.84-1.87-1.35a9.11,9.11,0,0,1-1.94-2,5.57,5.57,0,0,1-1-3.24,4.93,4.93,0,0,1,.4-1.81,4,4,0,0,1,1.26-1.63,4.09,4.09,0,0,1,1.7-.76,6.8,6.8,0,0,1,1.4-.13c.76,0,1.46,0,2.2.06a29.3,29.3,0,0,1,4.43.55,14.77,14.77,0,0,1,4.24,1.58A8.3,8.3,0,0,1,190.66,376.14Z"/><path d="M199,470.05a11.16,11.16,0,0,0-4,0,3.86,3.86,0,0,0-2.89,2.22,4.47,4.47,0,0,0,.19,3.5,5.67,5.67,0,0,0,2.38,2.42,12.45,12.45,0,0,0,3.35,1.25,34.63,34.63,0,0,0,3.67.64,59.83,59.83,0,0,0,7.43.58,17.7,17.7,0,0,0,3.36-.26,4.68,4.68,0,0,0,2.21-.91,2.4,2.4,0,0,0,.6-1.91,4.29,4.29,0,0,0-1.68-2.42,21.25,21.25,0,0,0-6.88-3.43A49.07,49.07,0,0,0,199,470.05Zm0,0,7.94,1c1.33.19,2.67.39,4,.68a19.12,19.12,0,0,1,4,1.29,7.24,7.24,0,0,1,3.65,3.31,5.44,5.44,0,0,1,.52,2.84,5.8,5.8,0,0,1-.91,2.85,6.57,6.57,0,0,1-2.15,2,9,9,0,0,1-2.38,1,16.66,16.66,0,0,1-4.55.58,29.4,29.4,0,0,1-8.37-1.38,18.8,18.8,0,0,1-7.61-4.14,7.69,7.69,0,0,1-2.25-3.92,5.92,5.92,0,0,1,.61-4.26,4.65,4.65,0,0,1,3.47-2.08A14,14,0,0,1,199,470.05Z"/></svg>