<svg id="Layer_1" data-name="Layer 1" xmlns="http://www.w3.org/2000/svg" viewBox="0 0 600 600"><title>Hungary</title><path d="M550,208.2a4.43,4.43,0,0,1-.51,2.65,15.48,15.48,0,0,1-1.55,2.22c-1.18,1.38-2.27,2.77-3.41,4.19-.56.71-1.14,1.41-1.75,2.08a21.53,21.53,0,0,1-1.88,1.94c-1.31,1.25-2.64,2.47-3.9,3.77-.65.64-1.26,1.33-1.89,2-.3.34-.61.69-1,1a7.38,7.38,0,0,1-1.16,1,6.6,6.6,0,0,1-3.24,1.19,13.68,13.68,0,0,1-3.08,0c-.94-.08-1.75-.24-2.43-.25a7.46,7.46,0,0,0-.94,0c-.15,0-.29,0-.43.06l-.22,0-.29,0a34.33,34.33,0,0,0-4.7,1.17,20.9,20.9,0,0,0-8.55,5.41,70.89,70.89,0,0,0-6.61,8,83.06,83.06,0,0,0-9.37,18.55c-2.45,6.58-4.45,13.42-6.68,20.39-1.11,3.49-2.33,7-3.7,10.52l-1,2.64-1.16,2.62c-.37.88-.82,1.75-1.23,2.62s-.85,1.74-1.26,2.53c-1.65,3.25-3.31,6.37-4.76,9.46-.36.77-.71,1.53-1.05,2.31l-1,2.44-2,4.86-2,4.86-1.91,5-.93,2.46c-.23.65-.41,1.27-.56,1.87a21.36,21.36,0,0,0-.62,3.81c-.06.71-.1,1.48-.13,2.29l0,.31,0,.39c0,.38-.06.76-.11,1.13a21.19,21.19,0,0,1-.38,2.23,22.61,22.61,0,0,1-3.68,8.18c-.22.31-.45.61-.69.91-.11.14-.27.33-.44.52l-.49.54a17.07,17.07,0,0,1-2.13,1.9,24.85,24.85,0,0,1-3.89,2.33c-1,.5-1.77.84-2.19,1.08a2.24,2.24,0,0,0-.64.49,3.12,3.12,0,0,0-.62,1,7,7,0,0,0-.35,1.93l-.05,1.88,0,2.73a32.25,32.25,0,0,1-.95,7.6c-.19.73-.43,1.48-.7,2.23l-.45,1.13-.37.86c-.47,1-.91,1.93-1.28,2.7s-.65,1.39-.91,2c-.39.92-.8,1.85-1.24,2.79a54.61,54.61,0,0,1-3.16,5.88,30.74,30.74,0,0,1-5.11,6.3,23.83,23.83,0,0,1-8.35,5.07,25.76,25.76,0,0,1-9.33,1.36c-2.35-.08-4.19-.28-5.49-.3a10.45,10.45,0,0,0-1.55,0,5.81,5.81,0,0,0-.85.15,5.31,5.31,0,0,0-1.38.68,11.16,11.16,0,0,0-1.92,1.69c-.37.42-.76.85-1.16,1.37l-1,1.27c-.46.52-.87,1-1.41,1.55a24.41,24.41,0,0,1-3.81,3.24,20.93,20.93,0,0,1-5.34,2.63,22.48,22.48,0,0,1-5.5,1,28,28,0,0,1-4.48-.1l-1.44-.14c-.3,0-.6,0-.9-.07-.6,0-1.21,0-1.81,0a23.64,23.64,0,0,0-7.12,1.26,42.72,42.72,0,0,1-14.59,2.05c-2.26-.05-4.32-.22-6.25-.4l-4.86-.33a117.77,117.77,0,0,0-19.56.77,159.35,159.35,0,0,0-38.78,10.18c-6.33,2.49-12.63,5.3-18.76,8.32-1.52.76-3.05,1.5-4.58,2.34s-3.06,1.63-4.61,2.49l-4.69,2.58-4.78,2.7a194.74,194.74,0,0,1-21.1,10.57,87,87,0,0,1-25.46,6.14l-3.36.24c-1.12.05-2.22,0-3.34,0l-3.35,0c-1.12,0-2.2-.17-3.3-.26l-3.3-.31c-1.12-.1-2.07-.27-3.11-.4-2.07-.33-4.16-.64-6.3-1.13a80.13,80.13,0,0,1-13.13-4c-1.1-.45-2.25-.95-3.34-1.5a19.26,19.26,0,0,1-3.14-2.09c-.49-.4-1-.82-1.44-1.27s-.91-.94-1.35-1.42c-.9-.93-1.7-2-2.54-3s-1.62-2-2.45-3-1.8-2-2.22-2.5c-1.05-1.17-1.52-1.66-1.63-1.84a12.77,12.77,0,0,0-2.35-1.32c-.47-.2-1-.38-1.53-.55s-1-.28-2-.53a39.86,39.86,0,0,1-3.9-1.11c-.4-.14-.82-.3-1.25-.47s-1-.42-1.44-.64a24.88,24.88,0,0,1-2.66-1.49,27.28,27.28,0,0,1-4.2-3.34,38.34,38.34,0,0,1-2.84-3.06c-1.44-1.72-2.7-3.31-3.77-4.79l-1.53-2.08-1.46-1.94L113,423.18,109.87,419c-2.19-2.82-4.37-5.66-6.51-8.53-4.33-5.62-8.62-11.77-12.64-16.71-1-1.24-2-2.44-3.09-3.56-.53-.57-1-1.08-1.61-1.66l-1.82-1.75c-2.49-2.36-5.23-4.8-8-7.47-1.39-1.35-2.82-2.73-4.24-4.2s-2.77-3-4.08-4.61-2.57-3.29-3.76-5c-.6-.87-1.17-1.77-1.72-2.68l-.8-1.39c-.28-.5-.47-.83-.86-1.58a27,27,0,0,1-1.45-3.52l-.89-2.66c-.64-1.86-1.16-3.62-1.75-5.23a27,27,0,0,0-3.77-7.77,10.37,10.37,0,0,0-1-1.17,6.47,6.47,0,0,0-.51-.43l-.24-.18-.12-.09s-.15-.11-.06,0c.61.5.61.42-.12.22a17.49,17.49,0,0,1-4.23-1.9,12.47,12.47,0,0,1-1.6-1.19c-.27-.24-.5-.44-.79-.74s-.59-.65-.87-1a11,11,0,0,1-.89-1.33,10.51,10.51,0,0,1-.78-1.7,9.65,9.65,0,0,1-.52-2,10,10,0,0,1-.11-2.18,10.17,10.17,0,0,1,.31-2,9.09,9.09,0,0,1,.58-1.7,9.36,9.36,0,0,1,.68-1.35,12.41,12.41,0,0,1,.71-1.07,14.56,14.56,0,0,1,2.46-2.59,24.51,24.51,0,0,1,3.74-2.52c1.13-.58,2.18-1.06,3.21-1.49s2-.87,3-1.26l2.71-1.07c1.74-.69,3.31-1.23,4.58-1.71l.89-.35c.25-.13.53-.26.76-.36s.6,0,.73-.14a1.63,1.63,0,0,0,.32-.59,1.23,1.23,0,0,0,.07-.63l0-.29a2.14,2.14,0,0,0-.09-.27,2.24,2.24,0,0,0-.18-.44c0-.06,0-.09-.05-.15a.33.33,0,0,1,0-.14.8.8,0,0,1,0-.24l0-.13a1.06,1.06,0,0,1,0-.19,1.21,1.21,0,0,1,0-.18c0-.06,0-.06,0-.09s0-.08,0-.12a9.13,9.13,0,0,1-.3-1,34.13,34.13,0,0,0-1.27-3.31c-.6-1.45-1.46-3.38-2.25-5.73-.19-.63-.39-1.16-.56-1.88l-.5-2.09a28.31,28.31,0,0,1-.51-4.87v-1.29c0-.44.06-.9.1-1.34.11-.9.18-1.8.37-2.68a27.9,27.9,0,0,1,1.62-5.14,27.44,27.44,0,0,1,5.63-8.19,47.38,47.38,0,0,1,5.41-4.65c1.49-1.13,2.6-2,3.26-2.64.18-.17.27-.29.42-.42,0,0-.07.06-.11.09a1.46,1.46,0,0,0-.18.22c-.07.14-.09.11-.05-.06a2.6,2.6,0,0,0-.11-.8,4,4,0,0,0-.2-.45c-.18-.34-.59-1-1.12-1.88a34.56,34.56,0,0,1-3.71-7.74l-.22-.74-.21-.9a18.31,18.31,0,0,1-.33-1.86c-.08-.75-.13-1.51-.15-2.26a11.58,11.58,0,0,1,0-1.26c0-.45.09-.9.16-1.35s.14-.89.23-1.33.27-1,.43-1.43A15.51,15.51,0,0,1,72.49,236a20.13,20.13,0,0,1,1.62-2.43,8.86,8.86,0,0,1,.86-1c.29-.3.59-.59.9-.88a17.3,17.3,0,0,1,3.49-2.53c.27-.16.61-.36.82-.46l.67-.31c.45-.21.9-.41,1.36-.59a24,24,0,0,1,5.71-1.42,27.83,27.83,0,0,1,9.71.71,47.71,47.71,0,0,1,6.42,2.12c1.75.69,3.15,1.26,4.17,1.61s1.57.43,1.5.53-.61.41-.56.57.31.09.68-.27a5.62,5.62,0,0,0,1.13-1.83,12.43,12.43,0,0,0,.83-3.3c.23-1.5.39-3.41.73-5.67a25.92,25.92,0,0,1,2-7.21,27,27,0,0,1,2.18-3.84A23,23,0,0,1,120,206a17.52,17.52,0,0,1,9.37-4.45,21.47,21.47,0,0,1,8.22.54c.61.15,1.21.33,1.8.52a20.58,20.58,0,0,1,2,.73,21.53,21.53,0,0,1,3.5,1.89,33.74,33.74,0,0,1,5.26,4.42c1.47,1.47,2.78,2.93,4.06,4.36s2.46,2.81,3.63,4.1a47.39,47.39,0,0,0,3.42,3.48A37.36,37.36,0,0,0,169,226.9a26.61,26.61,0,0,0,3.91,1.57,19.16,19.16,0,0,0,3.89.69,60.16,60.16,0,0,0,9.15-.3c7.26-.59,14.31-.88,21.11-1,3.41,0,6.73-.28,10.07,0,1.64.13,3.4.34,5.09.62l5.09.92a44.23,44.23,0,0,0,5.05.6,20.07,20.07,0,0,0,4.81-.35,18.09,18.09,0,0,0,2.18-.62,10.71,10.71,0,0,0,1.73-.86,4.78,4.78,0,0,0,.95-.77c.15-.19.14-.18.18-.29a3.13,3.13,0,0,0,0-1c-.05-.61-.19-1.44-.34-2.42a18.47,18.47,0,0,1,.09-7.32,16.2,16.2,0,0,1,1.45-3.76,22,22,0,0,1,2.05-3,29.75,29.75,0,0,1,4.59-4.66A30.33,30.33,0,0,1,261.76,199a37.58,37.58,0,0,1,6.43-.95c2.05-.14,4-.12,5.85-.11a81.88,81.88,0,0,0,10.09-.18,20.58,20.58,0,0,0,4-.9l.86-.33c.28-.12.54-.27.81-.39a3.46,3.46,0,0,0,.6-.36,3.17,3.17,0,0,0,.46-.36,10.2,10.2,0,0,0,1.88-2.39c.7-1.13,1.45-2.61,2.4-4.33A32,32,0,0,1,299,183a16.09,16.09,0,0,1,1.41-1.47,15.8,15.8,0,0,1,4.21-2.9,18.3,18.3,0,0,1,2.63-.95,16.29,16.29,0,0,1,5.21-.41c.4,0,.82.06,1.2.12l1.09.19c.76.13,1.37.32,2,.5a38.52,38.52,0,0,1,6.38,2.6l2.44,1.22L328,183l2.52,1.23,1,.47a1.91,1.91,0,0,0,.26.11l.05,0-.09-.05a4.86,4.86,0,0,0-1.26-.24c-.21,0-.5,0-.53,0l-.14,0,0,0c.15-.05,1-.29,1.78-.56,1.82-.59,3.12-1,4.64-1.63s3-1.22,4.52-1.91,3-1.36,4.5-2.09,2.92-1.49,4.31-2.28,2.74-1.56,3.91-2.35c.3-.2.59-.4.84-.59a7,7,0,0,0,.69-.54l.57-.46c.17-.19.35-.37.53-.55a17.28,17.28,0,0,0,2.12-2.76,80.67,80.67,0,0,0,4.3-8.75,46.38,46.38,0,0,1,6.9-11.37,27.65,27.65,0,0,1,12.76-8.12,29.43,29.43,0,0,1,3.72-.84,25.22,25.22,0,0,1,3.87-.3,30,30,0,0,1,7.17.86,74.92,74.92,0,0,1,11.11,3.92,32.64,32.64,0,0,0,8.39,2.45l.46,0,.37,0c.24,0,.49,0,.75,0a10.66,10.66,0,0,0,1.67-.22,23.19,23.19,0,0,0,4.05-1.36c1.48-.61,3.2-1.41,4.88-2.14s3.58-1.53,5.62-2.19a20,20,0,0,1,7.52-1.15,12.57,12.57,0,0,1,2.35.41l1.05.34,1,.41a15.78,15.78,0,0,1,3.42,2.15,23.72,23.72,0,0,1,4.48,5.08c1.17,1.73,2.06,3.28,3,4.88s1.74,3,2.6,4.26a21,21,0,0,0,3,3.4,16.87,16.87,0,0,0,3.51,2.61,11.54,11.54,0,0,0,3.92,1.25,11.7,11.7,0,0,0,2.15.1c.8,0,1.62-.11,2.45-.21,1.67-.19,3.39-.51,5.17-.83l2.71-.48,1.39-.22.71-.1.78-.09c2.08-.17,3.88-.06,5.44-.18a17.93,17.93,0,0,0,2.27-.27l.3-.1a.68.68,0,0,0,.2-.1c.22-.16.5-.43,1-.82a4.63,4.63,0,0,1,2.13-1.12,3.8,3.8,0,0,1,1.39,0,4.64,4.64,0,0,1,1.07.34,12.51,12.51,0,0,1,2.59,1.81l.44.35.62.46a8.17,8.17,0,0,1,1.21,1.14,11.11,11.11,0,0,1,1.71,2.62c.87,1.79,1.36,3.53,2,5.08A10,10,0,0,0,509,174a6.87,6.87,0,0,0,1.65,1.62,23.92,23.92,0,0,0,4.61,2.31,54.45,54.45,0,0,1,5,2.32,17.34,17.34,0,0,1,4.49,3.37,13.92,13.92,0,0,1,2.65,4.89,10.63,10.63,0,0,0,2.74,4.4,5.36,5.36,0,0,0,4.87,1c1.72-.37,3.33-1.28,5.11-1.68a6.61,6.61,0,0,1,2.73-.13,5.09,5.09,0,0,1,2.44,1.19,7.43,7.43,0,0,1,2.44,4.75c.17,1.82-.41,3.6-.16,5.38S549.66,206.35,550,208.2Zm-.13,0c-.27-1.83-2.33-2.68-2.66-4.7s.14-3.72-.11-5.38a6.83,6.83,0,0,0-2.41-4.16,4.64,4.64,0,0,0-4.37-.64,20.45,20.45,0,0,0-2.39.92,14.35,14.35,0,0,1-2.69,1,7.59,7.59,0,0,1-3.13.18,6.43,6.43,0,0,1-3-1.35,11.92,11.92,0,0,1-3.32-4.92,12.3,12.3,0,0,0-2.44-4.28,15.13,15.13,0,0,0-4.07-2.85,45.81,45.81,0,0,0-4.84-2.09,26.46,26.46,0,0,1-5.11-2.4,9.3,9.3,0,0,1-2.24-2.06,12.94,12.94,0,0,1-1.54-2.51c-.82-1.71-1.39-3.42-2.18-4.89a9.09,9.09,0,0,0-1.37-2,12.32,12.32,0,0,0-2-1.54,11.19,11.19,0,0,0-2-1.35,1.19,1.19,0,0,0-.69-.13,1.37,1.37,0,0,0-.64.41c-.28.25-.61.6-1,1a4.28,4.28,0,0,1-.75.51,5.58,5.58,0,0,1-.78.32,15.72,15.72,0,0,1-2.85.52c-1.9.23-3.7.18-5.38.4s-3.46.66-5.2,1.06-3.52.81-5.33,1.12a23.48,23.48,0,0,1-5.59.41,16.09,16.09,0,0,1-5.5-1.39,20.6,20.6,0,0,1-4.69-3.06,26.42,26.42,0,0,1-3.89-3.95c-1.14-1.46-2.12-3-3.09-4.52-2-3-3.83-6.11-6.55-8.26a8.64,8.64,0,0,0-4.61-1.89,13.2,13.2,0,0,0-5.06,1c-3.33,1.22-6.48,3-9.75,4.53a31,31,0,0,1-5.09,2,16.41,16.41,0,0,1-5.44.61,37.68,37.68,0,0,1-10.56-2.45,80,80,0,0,0-10.25-3.32,22.75,22.75,0,0,0-5.33-.53,18.84,18.84,0,0,0-5.26.9,19.84,19.84,0,0,0-8.85,5.86,37.45,37.45,0,0,0-5.39,9.29,92.6,92.6,0,0,1-4.61,9.77,25.66,25.66,0,0,1-3.19,4.34l-.94,1-1,.89a24.81,24.81,0,0,1-2.16,1.62,74.1,74.1,0,0,1-9.39,5.32,104.57,104.57,0,0,1-9.93,4.23c-1.69.62-3.41,1.15-5.13,1.67-.87.26-1.73.53-2.61.71a4.56,4.56,0,0,1-2.66-.12c-1.67-.65-3.2-1.63-4.81-2.43s-3.18-1.69-4.76-2.55a29.77,29.77,0,0,0-4.92-2.22,10.47,10.47,0,0,0-5.32-.43,9.08,9.08,0,0,0-4.48,2.86,26.09,26.09,0,0,0-3.18,4.35c-.95,1.54-1.84,3.1-2.88,4.57a15.6,15.6,0,0,1-3.73,3.87,20.83,20.83,0,0,1-10.24,3,94.84,94.84,0,0,1-10.79-.23,38.74,38.74,0,0,0-10.75.54,25,25,0,0,0-9.66,4.64,24.09,24.09,0,0,0-3.85,3.77,11.63,11.63,0,0,0-2.52,4.72,13.48,13.48,0,0,0,0,5.37,14.84,14.84,0,0,1,.28,5.35,7.07,7.07,0,0,1-3.22,4.17,23.91,23.91,0,0,1-4.84,2.38,56.79,56.79,0,0,1-10.44,2.7,140.81,140.81,0,0,1-21.51,1.69c-7.21.07-14.4-.25-21.6-.51a56.75,56.75,0,0,1-10.72-1.18,32.06,32.06,0,0,1-9.87-4.25,55.11,55.11,0,0,1-8.53-6.61c-2.58-2.51-4.87-5.3-7.3-8a39.67,39.67,0,0,0-8-7.17,14.89,14.89,0,0,0-5-1.92,14.65,14.65,0,0,0-5.36-.18,8.45,8.45,0,0,0-4.71,2.45A10.66,10.66,0,0,0,124.5,214a15.57,15.57,0,0,0-1,2.49c-1.11,3.45-1.13,7.1-1.34,10.68a21.47,21.47,0,0,1-2.84,10.3,11.16,11.16,0,0,1-8.71,5.66c-7.32.36-13.66-4.92-21-4.12a9.19,9.19,0,0,0-4.91,2,3.71,3.71,0,0,0-1.25,2.32,5.75,5.75,0,0,0,.29,2.66,21.87,21.87,0,0,0,2.41,4.81,23.4,23.4,0,0,1,2.5,4.78,15.68,15.68,0,0,1,.88,5.3,13.36,13.36,0,0,1-1.15,5.24,12.57,12.57,0,0,1-3.26,4.26c-1.33,1.2-2.78,2.27-4.22,3.35-2.86,2.13-5.81,4.46-7.3,7.8a14.37,14.37,0,0,0-.22,10.54c1,3.44,2.66,6.7,3.39,10.24a15.39,15.39,0,0,1,.15,5.37,15,15,0,0,1-2,5,13.42,13.42,0,0,1-3.71,3.87,22.63,22.63,0,0,1-4.8,2.45c-3.36,1.29-6.86,2.19-10.19,3.57a21.06,21.06,0,0,0-4.73,2.58A3.41,3.41,0,0,0,50,327.38a2.67,2.67,0,0,0,1.42,2.15c1.52,1,3.42,1.19,4.86,2.32a18,18,0,0,1,3.6,4,42.79,42.79,0,0,1,4.52,9.78c.59,1.7,1.16,3.41,1.78,5.1a42.54,42.54,0,0,0,2,5,59.78,59.78,0,0,0,14.16,16.16c5.49,4.64,11.43,8.8,16.37,14.07,2.5,2.59,4.86,5.31,7.21,8l7.05,8.19,7,8.19,6.87,8.33c2.29,2.78,4.34,5.76,6.65,8.51a17.77,17.77,0,0,0,3.92,3.68,15.55,15.55,0,0,0,5,1.92,32.14,32.14,0,0,1,10,3.92c3.08,1.92,5.3,4.87,8.22,7,5.75,4.37,12.62,7,19.61,8.67A83.23,83.23,0,0,0,191,454.26c.9.1,1.79.24,2.68.31l2.7.12c.9,0,1.8.11,2.7.11l2.7-.09a73,73,0,0,0,21.13-4A163.79,163.79,0,0,0,242.65,442c6.43-3.23,12.81-6.59,19.34-9.62s13.18-5.82,19.94-8.3a178.82,178.82,0,0,1,41.87-10.29,129.5,129.5,0,0,1,21.57-.63l5.39.43c1.79.18,3.58.34,5.38.39a30.74,30.74,0,0,0,10.65-1.38,35.87,35.87,0,0,1,10.63-1.71,40.44,40.44,0,0,1,5.39.36,13.36,13.36,0,0,0,5.34-.37,11,11,0,0,0,4.45-2.92c1.26-1.28,2.29-2.78,3.56-4.06a17.91,17.91,0,0,1,9.15-5.47c3.57-.8,7.2-.09,10.77.08a14.69,14.69,0,0,0,5.31-.69,12.94,12.94,0,0,0,4.59-2.74,30,30,0,0,0,6.08-8.83c.8-1.61,1.49-3.28,2.34-4.87a26.62,26.62,0,0,0,2.18-4.92c1-3.49.63-7.15,1-10.72a15.58,15.58,0,0,1,1.56-5.16,12.51,12.51,0,0,1,3.44-4.14,22.26,22.26,0,0,1,4.77-2.53,9.87,9.87,0,0,0,4.23-3.2,13.55,13.55,0,0,0,2.32-4.82,15.81,15.81,0,0,0,.4-2.66c.08-.9.17-1.79.3-2.68a29.85,29.85,0,0,1,1.18-5.28,52.87,52.87,0,0,1,2.06-5l2.18-4.94,2.31-4.89,2.31-4.88,1.16-2.44c.4-.81.83-1.6,1.25-2.39,1.72-3.17,3.57-6.26,5.39-9.37a128.16,128.16,0,0,0,9.17-19.52c2.6-6.72,5-13.51,7.9-20.11a85.47,85.47,0,0,1,10.83-18.64,60.5,60.5,0,0,1,7.4-7.86,36.17,36.17,0,0,1,9-6,22.77,22.77,0,0,1,5.15-1.66,7.48,7.48,0,0,1,2.71-.11,24,24,0,0,1,2.65.57c1.71.42,3.6.83,5.24,0a11.42,11.42,0,0,0,2.21-1.52c.7-.57,1.4-1.13,2.07-1.73a72.32,72.32,0,0,0,7.5-7.76l1.77-2,1.8-2a11.92,11.92,0,0,0,1.58-2.17A4.18,4.18,0,0,0,549.89,208.22Z"/></svg>