<svg id="Layer_1" data-name="Layer 1" xmlns="http://www.w3.org/2000/svg" viewBox="0 0 600 600"><title>India</title><path d="M165.78,72.91a7.33,7.33,0,0,1-.94-4,2.32,2.32,0,0,1,1-1.72,4.27,4.27,0,0,1,1.94-.62,15.76,15.76,0,0,1,4.11.29c1.36.22,2.7.56,4,.9s2.65.67,4,1L183.88,70a49.3,49.3,0,0,0,7.87,1.85,26.26,26.26,0,0,0,15.21-3A97.65,97.65,0,0,0,220.47,60c2.2-1.61,4.46-3.3,6.86-4.79a66.5,66.5,0,0,1,7.49-4,46.69,46.69,0,0,1,8.15-2.9,25.75,25.75,0,0,1,4.51-.71,16.36,16.36,0,0,1,2.42,0c.41,0,.83.09,1.25.16l.62.13c.23.06.48.14.72.22a9.58,9.58,0,0,1,4.41,3.25c1,1.23,1.73,2.36,2.46,3.17a3.51,3.51,0,0,0,1.9,1.27c.35.08.86,0,2.06.2a5,5,0,0,1,2.1.92,5.14,5.14,0,0,1,1.38,1.69c.12.28.25.49.36.82a6.62,6.62,0,0,1,.24.92,8.24,8.24,0,0,1,.11,1.58,14.91,14.91,0,0,1-.32,2.51c-.15.75-.32,1.45-.47,2.1l-.21.91-.19,1a11.27,11.27,0,0,1-2.3,4.82,36.65,36.65,0,0,1-3,3.25c-.46.46-.89.91-1.27,1.34-.19.22-.36.43-.52.65s-.32.45-.35.53a22,22,0,0,0-1,3.35,12.38,12.38,0,0,1-1,2.44,6.84,6.84,0,0,1-2.29,2.56,6.71,6.71,0,0,1-1.69.77,10.19,10.19,0,0,1-1.35.28c-.83.12-1.49.17-2,.26a2.84,2.84,0,0,0-1.72.84,1,1,0,0,0-.17.51,3.62,3.62,0,0,0,.12,1.09A11,11,0,0,0,249.11,94,22.24,22.24,0,0,0,251.29,97c.4.46.82.91,1.23,1.3s1.1,1.11,1.61,1.69a23,23,0,0,1,2.68,3.87,15,15,0,0,1,1.7,4.77,9.1,9.1,0,0,1,0,3,9.28,9.28,0,0,1-.43,1.58,9.7,9.7,0,0,1-.83,1.48,8,8,0,0,1-2.38,2.15,7.81,7.81,0,0,1-3,1.06,8.47,8.47,0,0,1-3-.16,13.47,13.47,0,0,1-2.58-.72,35.29,35.29,0,0,1-4.12-2,29.4,29.4,0,0,0-3.35-1.66c-1-.41-1.69-.31-1.54-.19s.12.08.05.2a.41.41,0,0,1-.07.11l-.1.18c-.11.14,0,.16,0,.2s.09,0,.16.06a4.32,4.32,0,0,1,.24.49,14.4,14.4,0,0,0,1.49,2.31c.69.91,1.55,1.93,2.48,3.16a25.33,25.33,0,0,0,2.3,2.55,28.9,28.9,0,0,0,5.32,4.11,22.67,22.67,0,0,0,2.76,1.29q1.5.56,3.24,1c2.34.62,5,1.21,8,2.09,1.48.45,3,1,4.6,1.63a25.61,25.61,0,0,1,5.07,2.8,23.52,23.52,0,0,1,4.5,4.22,19.76,19.76,0,0,1,3.39,6,17,17,0,0,1,.83,8,18.34,18.34,0,0,1-2.82,7.28,48.77,48.77,0,0,1-3.19,4.2,10.5,10.5,0,0,0-1.53,2.18,1.07,1.07,0,0,0-.1.72c.05.14.13.21.22.44a9.49,9.49,0,0,0,1.9,2.69,18.94,18.94,0,0,0,1.94,1.77,24.92,24.92,0,0,0,2.32,1.72,27.22,27.22,0,0,0,5.29,2.7l3.45,1.24c1.17.42,2.36.8,3.55,1.17,2.38.75,4.79,1.4,7.21,2a103.89,103.89,0,0,0,14.73,2.38c1.24.12,2.48.2,3.72.26s2.47.12,3.85.16a76.61,76.61,0,0,1,9.52.73,38.31,38.31,0,0,1,5.65,1.31,32.83,32.83,0,0,1,5.65,2.39,61.93,61.93,0,0,1,8.36,5.57c1.12.84,2.13,1.62,3.06,2.29s1.74,1.2,2.63,1.74a35,35,0,0,0,5.55,2.67,34.36,34.36,0,0,0,5.93,1.65c.48.08,1,.18,1.46.23s.84.09,1.26.12a15.42,15.42,0,0,0,2.46,0,8,8,0,0,0,3.18-.78c.22-.13.23-.18.16-.14s0,0,0-.05v0s0,0-.06.08,0,.12,0-.26a12.4,12.4,0,0,0-.12-2l-.05-.58-.08-.94a18.05,18.05,0,0,1,0-2l0-1.1a9.09,9.09,0,0,1,.11-1.18c.06-.44.13-.87.2-1.29a10.63,10.63,0,0,1,.31-1.35,17.08,17.08,0,0,1,2.9-5.94,15.53,15.53,0,0,1,2.41-2.57,12.33,12.33,0,0,1,1.31-1c.44-.3.88-.59,1.33-.86s.82-.44,1.24-.65.88-.42,1.22-.54l1.11-.41a9.17,9.17,0,0,1,1-.32c.64-.18,1.35-.37,1.88-.46s1.17-.23,1.65-.29c2.07-.3,3.64-.39,5.1-.5,1.65-.1,2.8-.15,3.46-.25s.76-.18.4-.05l-.28.13c-.11.08-.17.1-.21.13s0,0,0,0,.08-.06.2-.2c.38-.38,1.15-1.33,2.46-2.76a29.63,29.63,0,0,1,2.44-2.38,22,22,0,0,1,3.65-2.57,20.07,20.07,0,0,1,2.23-1.09c.66-.27,1.26-.47,1.9-.69s1.28-.37,1.93-.53a16.77,16.77,0,0,1,1.95-.38,26.41,26.41,0,0,1,7.41-.09,35.31,35.31,0,0,1,6.1,1.32,88.8,88.8,0,0,1,9,3.43,45,45,0,0,0,6,2.23,7.8,7.8,0,0,0,1.58.25c.29,0,.36-.05.37-.06s0-.05.17-.14a.42.42,0,0,1,.14-.09c.06-.05.13-.13.2-.18.23-.18,0,0,.17-.18a19.83,19.83,0,0,0,1.3-1.82c.69-1,1.58-2.44,2.94-4.17a25,25,0,0,1,6.05-5.58,25.56,25.56,0,0,1,7.47-3.16c2-.51,3.41-.76,4.28-1s1-.36.57-.15c-.13,0-.24.15-.37.21s-.23.18-.3.22-.1.08-.13.12,0,0,0-.07c.17-.22.66-1,1.44-2.25.37-.59.88-1.38,1.43-2.2a32,32,0,0,1,2.18-2.8,23.87,23.87,0,0,1,3.1-3,26.14,26.14,0,0,1,3.56-2.4,28.56,28.56,0,0,1,7.11-2.75,39.11,39.11,0,0,1,6.18-1c1.89-.16,3.63-.22,5.23-.23h2.24l1.81,0a49.05,49.05,0,0,1,5.53.18c.58.07,1.12.12,1.77.23l.94.16,1,.22c.66.14,1.46.38,2.18.61a20.74,20.74,0,0,1,2.46,1c.43.21.85.4,1.29.65s.91.55,1.35.84a16,16,0,0,1,1.36,1c.4.32,1,.85,1.17,1,.48.45,1,.93,1.43,1.39s.87.95,1.26,1.42a38.17,38.17,0,0,1,3.6,5.12l2.1,3.55a10.75,10.75,0,0,0,1.12,1.59.24.24,0,0,1,.11.09s0,0,0,0l.79.64,1.42,1.09.52.41.69.56c.2.16.48.4.78.68s.55.5.9.85a19.62,19.62,0,0,1,5.78,12.62c.06.92.07,1.72.06,2.57s-.08,1.39-.14,2.09L545,184l-.15,1c-.19,1.2-.46,2.85-.87,4.75a31.18,31.18,0,0,1-2.24,6.81,23.79,23.79,0,0,1-2.71,4.47c-.32.41-.66.81-1,1.21s-.8.83-1.21,1.23a20.66,20.66,0,0,1-2.62,2.07,23.66,23.66,0,0,1-8.47,3.38c-2.07.4-3.57.55-4.55.68s-1.34.23-.68-.16c.13-.09,0,0-.07,0l-.24.1-.47.21-.87.43a10.78,10.78,0,0,0-1.55,1,10.42,10.42,0,0,0-1.3,1.19,8.67,8.67,0,0,0-.58.72c-.19.25-.37.55-.49.71a9.06,9.06,0,0,0-.92,2.06c-.33,1-.68,2.3-1.13,3.89a40,40,0,0,1-2,5.6,24.79,24.79,0,0,1-4.09,6.39c-.46.49-.92,1-1.39,1.43s-1,.84-1.48,1.25a6.24,6.24,0,0,1-.62.47l-.42.29-.78.54c-1,.69-1.84,1.29-2.5,1.81s-1.11.93-1.39,1.18a1.27,1.27,0,0,1-.5.33c-.12,0-.28.47-.29,1.39s.12,2.27.22,4a28.34,28.34,0,0,1-.26,6.27c-.12.6-.25,1.21-.41,1.81l-.28.91c-.09.28-.21.67-.29.84-.34.83-.69,1.66-1.07,2.43-3.08,6.23-6.73,10.45-8.81,14.34a23.27,23.27,0,0,0-1.38,2.9c-.41,1-.77,2.14-1.12,3.34-.69,2.4-1.29,5.12-2.12,8l-.31,1.1-.22.7c-.09.28-.18.57-.29.84a14.92,14.92,0,0,1-4,5.79,11.26,11.26,0,0,1-3.78,2.18,9.71,9.71,0,0,1-5.14.24,10.4,10.4,0,0,1-4-1.87,12.29,12.29,0,0,1-2.63-2.76,17.49,17.49,0,0,1-1.54-2.73,31.51,31.51,0,0,1-1.6-4.78l-.53-2.13-.25-1-.27-1.18c-.36-1.83-.45-3.26-.63-4.17a6.63,6.63,0,0,0-.27-1,3,3,0,0,0-.13-.3l-.09-.15c-.12-.18-.31-.22-.06-.14a1,1,0,0,0,.49,0l.11,0,0,0-.13.09a10.69,10.69,0,0,0-1.67,1.91c-.41.54-.9,1.2-1.56,1.94a12.42,12.42,0,0,1-2.71,2.35,9.47,9.47,0,0,1-4.61,1.49,7.24,7.24,0,0,1-1.16,0l-.89-.09a9.34,9.34,0,0,1-1.78-.35,13.1,13.1,0,0,1-6.09-3.66,15.46,15.46,0,0,1-3.34-5.54,16.87,16.87,0,0,1,.28-12.09,24.87,24.87,0,0,1,2.52-4.75,46.88,46.88,0,0,1,6.16-7.15l1.54-1.49c.54-.52,1.12-1,1.63-1.51,1-.94,2-1.8,2.83-2.63a19.4,19.4,0,0,0,2.11-2.37,5.78,5.78,0,0,0,.95-1.72c.08-.36,0-.28,0-.36-.17-.49-.28-.51-.26-.47a6.07,6.07,0,0,0-.7-.2,10.2,10.2,0,0,0-2.5-.12,50.58,50.58,0,0,0-7.12,1c-2.62.5-5.35,1.1-8.41,1.54a34.55,34.55,0,0,1-5,.4,20.6,20.6,0,0,1-3-.21c-.53-.07-1.15-.23-1.72-.36s-1.31-.42-1.84-.63a26.29,26.29,0,0,1-8.66-6.47q-1.62-1.75-2.93-3.41c-.86-1.09-1.72-2.2-2.37-3a26.86,26.86,0,0,0-4.79-4.31,11,11,0,0,0-2.22-1.17,5.28,5.28,0,0,0-1.3-.29,2,2,0,0,0-.95.4,1.46,1.46,0,0,0-.59.78,1.74,1.74,0,0,0-.08,1,.64.64,0,0,0,.12.34,2,2,0,0,0,.55.55,27.57,27.57,0,0,0,3.1,1.73c.34.17.71.38,1.07.59l.57.34.7.47a13.34,13.34,0,0,1,2.34,2.15,13.15,13.15,0,0,1,1.82,2.77,9.73,9.73,0,0,1,1,3.79,8,8,0,0,1-.2,2.27,9,9,0,0,1-.91,2.29,8.89,8.89,0,0,1-1.48,1.83l-.77.64c-.27.21-.49.33-.73.49a19.05,19.05,0,0,1-2.39,1.23,16.17,16.17,0,0,0-1.52.73c-.33.2-.54.36-.49.35s0,0,0,0,0,0,0-.06,0-.06,0-.07l-.06.21a1.36,1.36,0,0,0,.05,1.12,9.66,9.66,0,0,0,1.5,2.27,39.64,39.64,0,0,1,3,3.94c1,1.57,1.76,3,2.49,4.37a26.09,26.09,0,0,0,2.13,3.38c.78,1.17,1.61,2.51,2.37,3.78a39.45,39.45,0,0,1,3.66,8.19,52.22,52.22,0,0,1,1.78,8.75c.17,1.5.33,2.93.42,4.48a32.08,32.08,0,0,1-.07,5.67,19.32,19.32,0,0,1-2.15,7.12,17.05,17.05,0,0,1-4.95,5.67,19.24,19.24,0,0,1-5.94,2.94,22.26,22.26,0,0,1-6,.92,24.35,24.35,0,0,1-3-.15c-.48-.07-1-.14-1.44-.22s-.87-.19-1.31-.3c-.87-.21-1.74-.48-2.61-.78q-.66-.23-1.32-.51l-.65-.29-.73-.35a13.28,13.28,0,0,1-2.68-1.78c-.62-.52-1-.89-1.22-1.1-.42-.39-.81-.56-.7-.63s0,0,0-.06.06,0,.08-.07,0-.09.11-.13c.2-.22.33-.46.27-.48a2.54,2.54,0,0,0-.17.74,10.05,10.05,0,0,0,0,1.57l.11,2.07c0,.8.1,1.61,0,2.82l-.05.73,0,.55,0,1.14c0,.77,0,1.57,0,2.4l.06,2.6c0,.91-.07,1.86-.07,2.7a33,33,0,0,1-.52,5.21,18,18,0,0,1-4.53,9.29c-1.22,1.25-2.53,2.4-3.83,3.57-.64.6-1.48,1-2.11,1.56s-1.2,1.24-1.76,1.83c-2.23,2.42-4,4.79-5.65,6.2-.83.71-1.57,1.28-2.13,1.84a11.57,11.57,0,0,0-1.37,1.57c-.91,1.2-2.05,3.28-3.65,6a53.09,53.09,0,0,1-2.95,4.46,43.36,43.36,0,0,1-3.86,4.41,53.29,53.29,0,0,1-8.38,6.68c-5.58,3.62-10.71,6-14.84,8.42a46.92,46.92,0,0,0-5.38,3.56,40.23,40.23,0,0,0-4.58,4.3c-3,3.3-6,7.45-9.55,11.95-1.75,2.25-3.62,4.6-5.71,7-1.07,1.22-2,2.27-3.22,3.47a49.49,49.49,0,0,1-4,3.64,38.1,38.1,0,0,1-4.95,3.48,34.62,34.62,0,0,1-5.66,2.67,32.41,32.41,0,0,0-5.25,2.32,8,8,0,0,0-2.4,1.95,3.62,3.62,0,0,0-.39.6,3,3,0,0,0-.21,1,13.85,13.85,0,0,0,.06,2.42c0,.52.11,1.08.18,1.69l.15,1.15.14,1.23a89.71,89.71,0,0,1,.42,9.36c0,3-.09,5.82-.22,8.53,0,1.3-.12,2.82-.22,4.23s-.2,2.86-.34,4.29q-.4,4.29-1.07,8.55c-.46,2.83-1,5.65-1.54,8.46s-1.25,5.58-2,8.35-1.42,5.49-2.27,8.34a78.82,78.82,0,0,1-2.94,8.56c-.59,1.42-1.21,2.84-1.92,4.24-.35.7-.72,1.4-1.09,2.09s-.78,1.38-1.17,2a44.29,44.29,0,0,1-2.74,4c-.27.34-.55.68-.84,1s-.58.64-1,1a23.78,23.78,0,0,1-2,1.73,13.68,13.68,0,0,0-1.7,1.43l0,0a.78.78,0,0,0-.05.14,1,1,0,0,0,0,.42,1.67,1.67,0,0,0,.08.33l.31.89a10.22,10.22,0,0,1,.72,3.93,7.91,7.91,0,0,1-.17,1.35,7.12,7.12,0,0,1-.44,1.4,7,7,0,0,1-2,2.66,7.57,7.57,0,0,1-1.16.8,10.37,10.37,0,0,1-1,.49,12.94,12.94,0,0,1-1.68.53c-.94.22-1.68.34-1.94.41l-.55.22-.79.32a28.78,28.78,0,0,0-3.07,1.58,34.66,34.66,0,0,0-5.63,4.44,61.27,61.27,0,0,0-5,5.58l-.6.76c-.19.25-.43.54-.49.65-.2.32-.45.74-.75,1.24l-1,1.75c-.44.73-.82,1.29-1.22,1.91l-1.16,1.8a12.34,12.34,0,0,1-1.78,2.43,10.21,10.21,0,0,1-2.51,1.93,10.71,10.71,0,0,1-2.85,1.05,13.62,13.62,0,0,1-4.4.2,21.24,21.24,0,0,1-3.14-.59c-.46-.12-.89-.25-1.3-.37l-.62-.19-.7-.25a26.45,26.45,0,0,1-5.14-2.54,38.32,38.32,0,0,1-7.95-6.87,47.55,47.55,0,0,1-5.75-7.94c-.78-1.38-1.65-2.84-2.38-4.17l-1.93-3.71c-2.56-4.95-5.12-9.91-7.51-14.95-1.21-2.52-2.4-5-3.56-7.58l-3.32-7.68q-3.26-7.71-6-15.62c-.94-2.62-1.8-5.28-2.66-7.93s-1.59-5.34-2.23-8.07-1.11-5.49-1.49-8.29-.61-5.62-.88-8.44l-.7-8.42a60.85,60.85,0,0,0-1.14-7.78,32.08,32.08,0,0,0-1-3.53,26.61,26.61,0,0,0-1.41-3.21,24.5,24.5,0,0,0-1.8-2.89,34.6,34.6,0,0,0-2.29-2.82c-1.69-1.91-3.67-3.88-5.62-6.17-.95-1.16-1.86-2.37-2.78-3.55s-1.65-2.49-2.48-3.74a61.42,61.42,0,0,1-6.71-16.24A85.15,85.15,0,0,1,129,376.56a125.09,125.09,0,0,1,0-16.88c.18-2.78.42-5.59.7-8.33l.85-8.17,1.6-16.36c.27-2.74.52-5.4.76-8.23s.65-5.55,1-8.24.6-5.33.69-8l.14-4,0-2a7.48,7.48,0,0,0-.13-1.63,4.42,4.42,0,0,0-.35-1.21c-.14-.29-.25-.38-.2-.32s.06,0,0,0,0,0,0,0,.06,0,.1,0,.16,0,.16-.07-.06.06-.15.17a5.88,5.88,0,0,0-.67,1.11c-.24.5-.49,1.07-.75,1.76a12.52,12.52,0,0,0-.91,3.66c0,.32-.06.64-.07,1s-.07.75-.09,1.12l-.2,2.34a43.77,43.77,0,0,1-.7,4.61,21.13,21.13,0,0,1-1.48,4.5,17,17,0,0,1-3.23,4.63,16.42,16.42,0,0,1-2.49,2.14c-.49.35-.92.59-1.36.85a12.58,12.58,0,0,1-1.36.71,21.09,21.09,0,0,1-5.65,1.75,24.62,24.62,0,0,1-10.95-.8,27.22,27.22,0,0,1-5-2.08,31.66,31.66,0,0,1-4.25-2.75,44,44,0,0,1-6.87-6.68A65.7,65.7,0,0,1,83,303.89c-.77-1.23-1.52-2.5-2.2-3.67l-2.12-3.6-.59-1c-.21-.42-.41-.79-.63-1.25l-.35-.81a9.09,9.09,0,0,1-.34-1,8.38,8.38,0,0,1-.28-1.28,7.48,7.48,0,0,1,.36-3.72,10.36,10.36,0,0,1,.89-1.72,14.59,14.59,0,0,1,1-1.11,8.07,8.07,0,0,1,.85-.74,15.91,15.91,0,0,1,2.59-1.62c.73-.37,1.41-.7,2-1l1.11-.5a12,12,0,0,1,1.66-.59,22,22,0,0,1,2.67-.52l1-.13.92-.14c1.31-.22,2.62-.41,3.93-.66l2-.35.5-.08.55-.12,1-.21a29.39,29.39,0,0,0,3.4-.8,7.52,7.52,0,0,0,1.17-.46,2.74,2.74,0,0,0,.42-.25,2.47,2.47,0,0,0,.21-.16c-.07,0-.15.31-.13.27a.36.36,0,0,0,0-.11,1.16,1.16,0,0,0-.2-.24,4.24,4.24,0,0,0-1.62-.76,15.48,15.48,0,0,0-3.14-.38c-.6,0-1.3-.05-2,0s-1.24,0-1.86,0c-1.22.07-2.5.19-3.83.37a83.55,83.55,0,0,1-8.88.85H81.86c-.46,0-1,0-1.45-.09a23.43,23.43,0,0,1-8.26-2.37,20.12,20.12,0,0,1-5-3.41,20.63,20.63,0,0,1-2.22-2.42,26,26,0,0,1-1.65-2.45,14.59,14.59,0,0,1-.8-1.5l-.37-.87a7.22,7.22,0,0,1-.35-1,12.35,12.35,0,0,1-.53-2.42c-.06-.47-.09-.95-.11-1.43a16.63,16.63,0,0,1,.15-1.72,8.71,8.71,0,0,1,.44-1.78,9.69,9.69,0,0,1,.77-1.74,13.72,13.72,0,0,1,1-1.56,13.32,13.32,0,0,1,1.16-1.21,7.78,7.78,0,0,1,1.18-.93c.37-.26.79-.53,1.15-.73l1-.5a8.63,8.63,0,0,1,1-.39,22.55,22.55,0,0,1,6.15-1.16,45.21,45.21,0,0,1,4.93,0c3.09.14,6,.47,8.77.86l3.91.51.72.07a5.89,5.89,0,0,0,.68,0c.53,0,1.05,0,1.57,0a22.12,22.12,0,0,0,6-1,14.57,14.57,0,0,0,2.42-1,9.64,9.64,0,0,0,1.75-1.32,5.94,5.94,0,0,0,1.11-1.51c.18-.26.24-.63.41-.93s.19-.63.21-1c0-.16,0-.32.07-.48s0-.34,0-.52a8.87,8.87,0,0,0-.09-1.1,13.36,13.36,0,0,0-.8-2.58,31.36,31.36,0,0,0-3.53-5.91c-1.49-2-3.18-4.1-4.92-6.25s-3.55-4.38-5.27-6.84a36.1,36.1,0,0,1-4.57-8.4,18.79,18.79,0,0,1-.8-10.76,21.6,21.6,0,0,1,.84-2.62,16.56,16.56,0,0,1,1.3-2.51,16.18,16.18,0,0,1,3.65-4.1,20.64,20.64,0,0,1,9.25-4.16,24.18,24.18,0,0,1,9.7.14,34.14,34.14,0,0,1,4.35,1.35,36.26,36.26,0,0,0,3.55,1.16,8.06,8.06,0,0,0,2.87.28,5.89,5.89,0,0,0,2.44-.9,15.56,15.56,0,0,0,4.2-5.37c1.28-2.29,2.46-4.85,4.12-7.37a29.76,29.76,0,0,1,6.07-6.51c2.22-1.83,4.54-3.39,6.77-5a68.8,68.8,0,0,0,6.37-4.89,60.58,60.58,0,0,0,5.67-5.66A58.9,58.9,0,0,0,167.7,139a54.91,54.91,0,0,0,3-7.54c.42-1.29.76-2.59,1.11-3.92a21.72,21.72,0,0,1,1.32-4,7.43,7.43,0,0,1,2.84-3.32,18.41,18.41,0,0,1,3.92-1.56,7.36,7.36,0,0,0,3.37-1.85,3.61,3.61,0,0,0,.58-3.54,7.38,7.38,0,0,0-2.3-3.14,11.86,11.86,0,0,0-3.44-2,31.13,31.13,0,0,1-3.78-1.69,21.61,21.61,0,0,1-3.42-2.35,15,15,0,0,1-4.6-6.79,18.12,18.12,0,0,1-.55-8.18c.34-2.72.95-5.4,1.21-8.13a14.84,14.84,0,0,0-1.07-8Zm.08,0a14.49,14.49,0,0,1,1.26,3.92,26,26,0,0,1,0,4.14c-.17,2.76-.69,5.47-.94,8.17a22.53,22.53,0,0,0,0,4A15.56,15.56,0,0,0,167,97a14.11,14.11,0,0,0,4.52,6.24,20.4,20.4,0,0,0,3.31,2.11,29.73,29.73,0,0,0,3.67,1.51,13.17,13.17,0,0,1,3.91,2.17,10.33,10.33,0,0,1,1.63,1.61,7.2,7.2,0,0,1,1.22,2.11,5.23,5.23,0,0,1,.31,2.62,5.15,5.15,0,0,1-1.06,2.5,9,9,0,0,1-4.08,2.46,17.39,17.39,0,0,0-3.52,1.43,5.49,5.49,0,0,0-2.09,2.55A20.45,20.45,0,0,0,173.7,128c-.32,1.32-.67,2.71-1.07,4a59.45,59.45,0,0,1-2.92,7.87,63.23,63.23,0,0,1-8.81,14.2,65.09,65.09,0,0,1-12.22,11.36c-4.39,3.26-8.89,6.42-11.69,10.88-1.39,2.24-2.48,4.74-3.75,7.22a19.55,19.55,0,0,1-5.16,6.86,10,10,0,0,1-4.15,1.77,11.89,11.89,0,0,1-4.42-.19c-2.81-.59-5.34-1.77-7.89-2.26a19.66,19.66,0,0,0-7.83.07,16,16,0,0,0-7,3.33,11.78,11.78,0,0,0-3.34,4.65c-.21.61-.4,1.23-.55,1.86a13.26,13.26,0,0,0,.8,7.65,29.85,29.85,0,0,0,4,6.92c1.63,2.16,3.42,4.23,5.22,6.29s3.63,4.12,5.36,6.28a38.7,38.7,0,0,1,4.57,7,19,19,0,0,1,1.45,4,13.62,13.62,0,0,1,.33,2.11c0,.35.07.7.06,1.06l0,1.07a13.21,13.21,0,0,1-3.28,7.71,15.85,15.85,0,0,1-3.22,2.73,20.82,20.82,0,0,1-3.76,1.85,28.17,28.17,0,0,1-8.15,1.67,27.51,27.51,0,0,1-4.16,0c-1.38-.14-2.74-.31-4.1-.47-2.72-.32-5.44-.6-8.17-.72a23.77,23.77,0,0,0-8,.75A3.48,3.48,0,0,0,69.22,258a6.25,6.25,0,0,0,1,3.74,14.42,14.42,0,0,0,5.64,5.69,17.68,17.68,0,0,0,7.72,2.34,80.28,80.28,0,0,0,8.21,0,64.6,64.6,0,0,1,8.23.23,21.61,21.61,0,0,1,4.07.67,9.11,9.11,0,0,1,3.66,1.9,5.66,5.66,0,0,1,1.85,3.64A4.6,4.6,0,0,1,108.2,280a10,10,0,0,1-3.59,2,32.88,32.88,0,0,1-4,1c-2.68.59-5.39,1.06-8.08,1.6-1.34.28-2.72.39-4,.77a10.27,10.27,0,0,0-1.87.81c-.62.3-1.23.61-1.83.94a11.94,11.94,0,0,0-1.72,1.1,2.26,2.26,0,0,0-1,1.64,4.18,4.18,0,0,0,.53,1.93c.3.61.65,1.21,1,1.79,2.93,4.63,5.73,9.37,9.34,13.51a38.82,38.82,0,0,0,6,5.61,22.8,22.8,0,0,0,7.26,3.75,19.25,19.25,0,0,0,8.13.62,14.54,14.54,0,0,0,3.92-1.18,10.85,10.85,0,0,0,3.35-2.33,25.05,25.05,0,0,0,4.32-7,46,46,0,0,0,2.79-7.73,31.92,31.92,0,0,1,1.42-3.86,14.07,14.07,0,0,1,1.92-3.61,2.7,2.7,0,0,1,3.67-.67,5.05,5.05,0,0,1,1.87,3.53,19.39,19.39,0,0,1,.1,4.1l-.15,4.11c-.11,2.74-.4,5.47-.74,8.19s-.73,5.44-1,8.17l-.76,8.19-1.54,16.38c-.5,5.46-1.12,10.91-1.38,16.39-.51,10.93.1,22,3.2,32.59A56.86,56.86,0,0,0,142,407.37c.8,1.12,1.56,2.25,2.39,3.35s1.74,2.12,2.65,3.14c1.86,2,3.88,3.88,5.78,5.85a33.91,33.91,0,0,1,5.08,6.44,43.79,43.79,0,0,1,3.46,7.45c.94,2.58,1.7,5.22,2.45,7.85l2.27,7.91q4.63,15.78,10,31.35t11.45,30.84c2,5.1,4.12,10.16,6.26,15.21l1.62,3.78c.58,1.24,1.21,2.46,1.81,3.7a38.27,38.27,0,0,0,4.41,6.92,28.68,28.68,0,0,0,5.93,5.66,18.71,18.71,0,0,0,7.55,3.1,4.28,4.28,0,0,0,3.83-1,15,15,0,0,0,1.25-1.63l1.22-1.66c.83-1.09,1.59-2.23,2.35-3.37a24.11,24.11,0,0,1,2.62-3.17,50.4,50.4,0,0,1,12.68-10.36,30,30,0,0,1,3.72-1.74c.64-.24,1.29-.48,1.95-.66s1.34-.26,2-.42a4.42,4.42,0,0,0,1.87-.81,2.35,2.35,0,0,0,.84-1.8c.05-1.41-.82-2.6-1.07-4a6,6,0,0,1,.53-4,11.18,11.18,0,0,1,2.79-3,19.59,19.59,0,0,0,5-6.49,53.28,53.28,0,0,0,5.12-15.56,228.51,228.51,0,0,0,3.35-32.71c.09-2.74.11-5.48.11-8.22s0-5.48-.05-8.23a80.28,80.28,0,0,0-.57-8.2,52.15,52.15,0,0,1-.84-8.17,14.39,14.39,0,0,1,2.3-7.78,19.13,19.13,0,0,1,5.88-5.66,40.64,40.64,0,0,1,7.41-3.54,23.82,23.82,0,0,0,7-4.18c8.29-7.28,13.79-17,21.23-25.07a50.52,50.52,0,0,1,6-5.6,56.87,56.87,0,0,1,6.86-4.53c4.75-2.75,9.74-5.06,14.35-8a40,40,0,0,0,6.46-5.06,31.84,31.84,0,0,0,2.73-3.07c.82-1.1,1.57-2.25,2.28-3.42a78.23,78.23,0,0,1,4.38-7,28.94,28.94,0,0,1,5.9-5.69c2.19-1.65,4.49-3.15,6.67-4.81a38,38,0,0,0,6-5.61,39.78,39.78,0,0,0,4.67-6.75,33.52,33.52,0,0,0,3.12-7.59,39.37,39.37,0,0,0,.81-4,26.75,26.75,0,0,0-.1-4.1,11.2,11.2,0,0,1,.34-4.08,3.68,3.68,0,0,1,1.18-1.65,4.57,4.57,0,0,1,1.88-.77,6.22,6.22,0,0,1,3.94.9,30.57,30.57,0,0,0,3.49,2.15,16.6,16.6,0,0,0,4,1,16.08,16.08,0,0,0,4.1,0,13.93,13.93,0,0,0,7.46-3.17,9.71,9.71,0,0,0,2.48-3.24,10.75,10.75,0,0,0,.91-4,44.09,44.09,0,0,0-.79-8.17q-.64-4.07-1.61-8.06c-.63-2.67-1.36-5.32-2.19-7.93-.41-1.31-.86-2.6-1.31-3.9s-.82-2.61-1.23-3.92a27.9,27.9,0,0,0-1.45-3.85,25.55,25.55,0,0,0-2.18-3.47,14.5,14.5,0,0,1-2-3.58,6.64,6.64,0,0,1-.34-2,7.27,7.27,0,0,1,.36-2,5,5,0,0,1,2.63-3c1.2-.67,2.51-1.1,3.68-1.84a4,4,0,0,0,1.46-1.41,3.55,3.55,0,0,0,.46-2,6.23,6.23,0,0,0-1.7-3.66,8.28,8.28,0,0,0-1.53-1.36,15.65,15.65,0,0,0-1.78-1,37.18,37.18,0,0,1-3.65-1.91,6.63,6.63,0,0,1-2.66-3.05,6.87,6.87,0,0,1-.39-4,7,7,0,0,1,1.9-3.58,8.07,8.07,0,0,1,3.52-2,9,9,0,0,1,4.07.15,16.32,16.32,0,0,1,3.77,1.62,29.61,29.61,0,0,1,6.34,5.2c1.85,2,3.51,4.22,5.41,6.2a20.11,20.11,0,0,0,6.55,4.87,10.19,10.19,0,0,0,4,.68,28.21,28.21,0,0,0,4.1-.33c5.42-.77,10.73-2.35,16.23-2.59a16.49,16.49,0,0,1,4.09.3A7.7,7.7,0,0,1,455,232.6a7.25,7.25,0,0,1,1.92,7.55,17.47,17.47,0,0,1-4.78,6.6c-2,1.88-4.13,3.61-6.09,5.53a40.24,40.24,0,0,0-5.46,6.13,18.77,18.77,0,0,0-2,3.6,11,11,0,0,0-.9,4,10.81,10.81,0,0,0,2.67,7.56,7.53,7.53,0,0,0,3.45,2.13,4.92,4.92,0,0,0,1,.2,6,6,0,0,0,1,.07,3.94,3.94,0,0,0,1.93-.63,12,12,0,0,0,2.83-2.95,14.5,14.5,0,0,1,2.81-3,4.77,4.77,0,0,1,3.87-1,5.72,5.72,0,0,1,3.36,2.22,8.79,8.79,0,0,1,1.51,3.78c.25,1.35.35,2.73.62,4.07a45.69,45.69,0,0,0,2.32,7.88,8.25,8.25,0,0,0,2.44,3.25,4.24,4.24,0,0,0,3.88.72,6.32,6.32,0,0,0,3.05-2.64,10.71,10.71,0,0,0,1.41-3.84c1.18-5.33,1.69-10.89,4-15.9s5.6-9.44,7.68-14.53a15.49,15.49,0,0,0,1.18-3.93,17,17,0,0,0-.07-4.1c-.32-2.7-1-5.44-.47-8.17a13.55,13.55,0,0,1,4.06-7c1-1,2-1.88,3.06-2.75a20.47,20.47,0,0,0,3-2.77,16.91,16.91,0,0,0,3.18-7.49,49.71,49.71,0,0,1,2-8,22.71,22.71,0,0,1,11-11.8c2.49-1.2,5.3-1.37,8-2a11.69,11.69,0,0,0,3.79-1.52,7.32,7.32,0,0,0,2.49-3.19,32.47,32.47,0,0,0,1.88-8,17.58,17.58,0,0,0,.35-4.09,6.18,6.18,0,0,0-.48-2,5.87,5.87,0,0,0-1.17-1.66c-1-1-2.12-1.74-3.17-2.62a19.53,19.53,0,0,1-2.94-2.88,54.93,54.93,0,0,1-4.3-7,25.32,25.32,0,0,0-2.28-3.41,9.11,9.11,0,0,0-3.07-2.66c-2.51-1.17-5.34-1.21-8.05-1.26s-5.49-.22-8.22,0a19.15,19.15,0,0,0-7.91,2,11.4,11.4,0,0,0-3.2,2.54,25.16,25.16,0,0,0-2.39,3.32c-1.45,2.29-3,4.75-5.42,6.09s-5.25,1.56-7.89,2.23a12.9,12.9,0,0,0-3.79,1.53,12.75,12.75,0,0,0-3,2.78c-1.72,2.13-3,4.59-4.89,6.61a13.6,13.6,0,0,1-11.06,4.53,21.44,21.44,0,0,1-4.06-.71,57.55,57.55,0,0,1-7.69-2.91,77.29,77.29,0,0,0-7.64-3,18.09,18.09,0,0,0-8.09-.87,11.54,11.54,0,0,0-3.88,1.25,13,13,0,0,0-3.14,2.6c-1.85,2-3.53,4.31-6.1,5.45s-5.37,1.1-8.09,1.26c-1.36.09-2.73.18-4.09.37a11.23,11.23,0,0,0-3.9,1.17,5.1,5.1,0,0,0-2.41,3.15,11.6,11.6,0,0,0-.15,4.07,16.14,16.14,0,0,1-.8,8.12,12,12,0,0,1-5.53,5.91,19.8,19.8,0,0,1-7.91,2.07,30.79,30.79,0,0,1-8.19-.59,45.82,45.82,0,0,1-7.9-2.29,46.39,46.39,0,0,1-7.37-3.66,73.13,73.13,0,0,1-6.67-4.8,51.06,51.06,0,0,0-6.76-4.66,23.87,23.87,0,0,0-7.75-2.59,67.87,67.87,0,0,0-8.18-.7c-2.74-.12-5.48-.3-8.21-.59a116.6,116.6,0,0,1-31.82-8,34.84,34.84,0,0,1-13.25-9.53,16.43,16.43,0,0,1-3.65-7.3,10.69,10.69,0,0,1,1.64-7.89c1.51-2.31,3.67-4.09,5.23-6.34A9.18,9.18,0,0,0,273,152a8.52,8.52,0,0,0-.33-4,13.82,13.82,0,0,0-4.8-6.49,26.11,26.11,0,0,0-7.31-3.66c-2.59-.9-5.23-1.65-7.81-2.57A40.68,40.68,0,0,1,249,133.7a26.75,26.75,0,0,1-3.54-2.09,32.2,32.2,0,0,1-6-5.57,32.89,32.89,0,0,1-2.45-3.31c-.74-1.16-1.54-2.27-2.26-3.44a15.4,15.4,0,0,1-1.74-3.72,5,5,0,0,1,3.56-6.45,6.43,6.43,0,0,1,4,.87c2.44,1.26,4.56,3.06,7,4.21a7,7,0,0,0,4,.77,5.26,5.26,0,0,0,3.42-2,5.08,5.08,0,0,0,.75-3.91,12,12,0,0,0-1.39-3.84,19.38,19.38,0,0,0-2.33-3.36c-.88-1-2-1.93-2.83-3a19,19,0,0,1-4.13-7,4.66,4.66,0,0,1,.51-4,4.48,4.48,0,0,1,1.59-1.31,6.08,6.08,0,0,1,2-.66c.68-.12,1.36-.16,2-.26A4.78,4.78,0,0,0,253,85a5.79,5.79,0,0,0,2.06-3.42,20.8,20.8,0,0,1,1.28-3.91A16.6,16.6,0,0,1,259,74.46a33.11,33.11,0,0,0,2.82-3,8.66,8.66,0,0,0,1.77-3.64c.22-1.35.6-2.68.88-4a6.22,6.22,0,0,0-.13-4,2,2,0,0,0-1.53-1.17c-.67-.12-1.36-.08-2-.22a6.17,6.17,0,0,1-3.43-2.19c-.9-1-1.64-2.2-2.5-3.27a7,7,0,0,0-3.19-2.44,15.75,15.75,0,0,0-8.09.15,45.34,45.34,0,0,0-7.78,2.62,78.79,78.79,0,0,0-14.15,8.31c-4.5,3.11-9,6.28-14,8.57a33.12,33.12,0,0,1-7.82,2.54,24,24,0,0,1-8.19.11,50.61,50.61,0,0,1-7.94-2.15l-3.89-1.33-3.92-1.26c-1.3-.41-2.62-.8-4-1.09a14.76,14.76,0,0,0-4.08-.39,3.89,3.89,0,0,0-1.93.61,2.3,2.3,0,0,0-1,1.72,7.37,7.37,0,0,0,1,3.89Z"/></svg>