<svg id="Layer_1" data-name="Layer 1" xmlns="http://www.w3.org/2000/svg" viewBox="0 0 600 600"><defs><style>.cls-1{fill:none;stroke:#000;stroke-miterlimit:10;stroke-width:1.94px;}</style></defs><title>indonesia</title><path d="M68.85,212.68c2.61.6,5.36,1.23,7.44,3a7.86,7.86,0,0,1,2.2,3.38c.48,1.27.79,2.59,1.28,3.85A8.3,8.3,0,0,0,82,226.26a14.16,14.16,0,0,0,3.38,2.18c1.22.59,2.47,1.1,3.71,1.64a31,31,0,0,1,3.63,1.86,71.55,71.55,0,0,1,6.68,4.63l6.47,4.9,13,9.73c2.13,1.63,4.47,3.15,6.22,5.46.87,1.16,1.43,2.41,2.22,3.34a7.61,7.61,0,0,0,3,2.08,31.94,31.94,0,0,0,3.77,1.16c.66.17,1.32.35,2,.56a11.45,11.45,0,0,1,2,.84,10.14,10.14,0,0,1,3.4,2.87,6.39,6.39,0,0,1,1.05,2.16,5,5,0,0,1,0,2.54,7.07,7.07,0,0,1-1.07,2.11,6,6,0,0,0-.85,1.49,2.46,2.46,0,0,0,.79,2.54,8.06,8.06,0,0,0,3,1.79c1.07.37,2.49.59,3.85,1a11,11,0,0,1,4.15,2,6,6,0,0,1,1.6,2.07,8.23,8.23,0,0,1,.62,2.38c.18,1.48.17,2.81.39,3.95a2.71,2.71,0,0,0,1.23,2.16,4.13,4.13,0,0,0,1.39.19,7.88,7.88,0,0,1,2.48.38,8.8,8.8,0,0,1,3.91,3,13.59,13.59,0,0,1,2.06,4.16,20.5,20.5,0,0,1,.74,4.37c.17,2.88.07,5.52.1,8.24v8.12l0,8.12v2.06a7.94,7.94,0,0,1-.14,1.36,4.44,4.44,0,0,1-.74,1.71,4.14,4.14,0,0,1-1.61,1.24,3.38,3.38,0,0,1-2.34.09,5,5,0,0,1-1.46-.78l-.81-.64a5.71,5.71,0,0,0-.55-.33,3.61,3.61,0,0,0-.57-.21,3,3,0,0,0-1.25,0,21.18,21.18,0,0,0-3.5,1.11,12.48,12.48,0,0,1-2.32.59,8,8,0,0,1-2.75-.1,12.06,12.06,0,0,1-4.32-2.21c-1.19-.9-2.22-1.86-3.22-2.78-.5-.46-1-.89-1.45-1.31l-1.56-1.37q-3.08-2.76-5.94-5.74a110.84,110.84,0,0,1-10.46-12.74c-3.17-4.47-6.12-9-9-13.7-1.42-2.43-2.59-4.87-3.86-7.21a29.49,29.49,0,0,0-4.32-6.39l-.13-.13-.06-.1a47.79,47.79,0,0,0-3.93-5.76,51.37,51.37,0,0,0-5-4.92,70.54,70.54,0,0,1-5.25-5,18.89,18.89,0,0,1-4-6.35c-.88-2.42-1-4.87-1.44-7.13a10.14,10.14,0,0,0-1.11-3.13,5.22,5.22,0,0,0-2.31-2.12c-1-.49-2.17-.81-3.31-1.44a7.59,7.59,0,0,1-2.71-2.69c-.67-1.05-1.18-2.14-1.75-3.17a20,20,0,0,0-2-2.91c-.73-.92-1.51-1.82-2.3-2.71a29.76,29.76,0,0,0-2.45-2.56,10.65,10.65,0,0,0-2.9-1.91,21.13,21.13,0,0,0-3.42-.89,6.39,6.39,0,0,1-3.14-1.88,12.58,12.58,0,0,1-2-3c-.55-1.08-1-2.18-1.55-3.23l-1.66-3.17A21.67,21.67,0,0,1,50,211.93a3,3,0,0,1,.27-1.78,2.44,2.44,0,0,1,1.33-1.2,7.41,7.41,0,0,1,3.56-.28C59.89,209.27,64.3,211.29,68.85,212.68Zm0,0c-4.56-1.36-9-3.35-13.74-3.92a7.43,7.43,0,0,0-3.51.3,2.39,2.39,0,0,0-1.26,1.14,3.12,3.12,0,0,0-.25,1.71,20.63,20.63,0,0,0,2.5,6.65l1.72,3.14c.58,1.05,1,2.15,1.61,3.2a12.38,12.38,0,0,0,2,2.89,5.9,5.9,0,0,0,3,1.69,22.15,22.15,0,0,1,3.51.86,11.2,11.2,0,0,1,3.1,1.95,31,31,0,0,1,2.59,2.53c.81.87,1.64,1.75,2.42,2.67a21.61,21.61,0,0,1,2.12,3c.62,1,1.16,2.11,1.81,3a6.45,6.45,0,0,0,2.38,2.24c1,.5,2.13.78,3.3,1.31a6.62,6.62,0,0,1,3,2.55,11.6,11.6,0,0,1,1.39,3.55c.58,2.39.76,4.79,1.6,6.85a17,17,0,0,0,3.77,5.6,68.2,68.2,0,0,0,5.25,4.7,53.39,53.39,0,0,1,5.36,5,49,49,0,0,1,4.34,5.92l-.18-.23a32,32,0,0,1,5,6.85c1.39,2.37,2.64,4.78,4,7,2.93,4.47,5.94,9,9.12,13.27a116.5,116.5,0,0,0,10.33,12.17c1.85,1.91,3.78,3.74,5.77,5.5l1.5,1.3c.54.47,1.07.94,1.57,1.4a37.59,37.59,0,0,0,2.93,2.5,8.3,8.3,0,0,0,2.85,1.5,3.88,3.88,0,0,0,1.28,0,11,11,0,0,0,1.61-.42,22.61,22.61,0,0,1,4.24-1.26,6.77,6.77,0,0,1,2.78.15,6.41,6.41,0,0,1,1.33.5,8.18,8.18,0,0,1,1.18.73l.77.61a3.15,3.15,0,0,0,.31.2.64.64,0,0,0-.35,0c-.1,0,.06-.07,0,0a2.77,2.77,0,0,0,.11-.81l0-2,.1-8.12.14-8.12c0-2.69.16-5.47.05-8a12.16,12.16,0,0,0-2-6.74,5.61,5.61,0,0,0-2.32-2,4.37,4.37,0,0,0-1.51-.25,6.83,6.83,0,0,1-2.57-.56,4.75,4.75,0,0,1-2.09-2.07A7.43,7.43,0,0,1,152,292c-.23-1.53-.17-2.92-.29-4.13a3.57,3.57,0,0,0-1.15-2.68,8.43,8.43,0,0,0-3.1-1.55c-1.23-.41-2.49-.61-4-1.16a10.44,10.44,0,0,1-3.83-2.51,5.63,5.63,0,0,1-1.28-2.21,4.49,4.49,0,0,1,.1-2.69,8.58,8.58,0,0,1,1.18-2,4.7,4.7,0,0,0,.83-1.46,2.92,2.92,0,0,0,.08-1.47,4.59,4.59,0,0,0-.68-1.48,7.94,7.94,0,0,0-2.68-2.39,16,16,0,0,0-3.59-1.37,31.75,31.75,0,0,1-3.94-1.36,9.07,9.07,0,0,1-3.52-2.62c-.91-1.18-1.42-2.45-2.16-3.48-1.47-2.09-3.69-3.68-5.79-5.38l-12.7-10.12-6.38-5a70.83,70.83,0,0,0-6.56-4.73,65.34,65.34,0,0,0-7.26-3.6,14.43,14.43,0,0,1-3.4-2.22A8.6,8.6,0,0,1,79.67,223c-.48-1.27-.78-2.6-1.25-3.87a7.86,7.86,0,0,0-2.16-3.36C74.21,214,71.46,213.29,68.85,212.68Z"/><path d="M202.7,248a2.38,2.38,0,0,0-1.23.84,3.45,3.45,0,0,0-.71,1.32,24.66,24.66,0,0,1-.61,3c-.86,1.88-2.6,3.1-3.71,4.78a8.4,8.4,0,0,0-1.25,2.72,4,4,0,0,0,.33,2.9c1,1.75,3.19,2.54,3.9,4.61a8.55,8.55,0,0,1,.33,3.05c0,1,0,2,0,3a28.17,28.17,0,0,0,.92,5.93c.53,1.85,1.39,4,3.37,4.18a8.2,8.2,0,0,1,3,.94,5.72,5.72,0,0,1,2.16,2.39c1.82,4,.41,8.43,2.41,11.68a6.88,6.88,0,0,0,4.56,2.94,19.52,19.52,0,0,0,2.89.4c.49,0,1,.05,1.48.06l.75,0a4.39,4.39,0,0,0,.61-.07c.87-.16,1.79-.59,2.83-.89a5.75,5.75,0,0,1,1.73-.28,3.3,3.3,0,0,1,1.9.63,3.51,3.51,0,0,1,.69.7l.28.38.21.35c.27.47.51,1,.73,1.41a4.66,4.66,0,0,0,.63,1.08,1.34,1.34,0,0,0,.8.42,4,4,0,0,0,1.28,0,8.63,8.63,0,0,1,1.6-.06c1,.07,2,.17,2.93.17a3.19,3.19,0,0,0,1.92-.37,3.14,3.14,0,0,0,.41-.85,5.21,5.21,0,0,1,1.08-1.73l.09-.09.08-.06a3.26,3.26,0,0,1,1.76-.56,6.51,6.51,0,0,1,1.36.08c.82.12,1.56.33,2.24.49l4.21.92a39.82,39.82,0,0,1,4.37,1.09,8.06,8.06,0,0,1,4.28,3c.55.83.77,1.57,1.05,1.94a1.13,1.13,0,0,0,.91.48,13.46,13.46,0,0,0,3-.58l.87-.29.95-.38c.63-.26,1.26-.52,1.87-.8a27.11,27.11,0,0,0,3.52-1.92,13,13,0,0,0,5.09-5.71,11.75,11.75,0,0,0,.84-3.82,29.47,29.47,0,0,0-.12-4.17,18.42,18.42,0,0,1,0-2.37,6.37,6.37,0,0,1,.73-2.63,5.27,5.27,0,0,1,2.12-2,12.9,12.9,0,0,1,2.29-.89,12.59,12.59,0,0,0,1.8-.66,3.26,3.26,0,0,0,1.11-.94,8.91,8.91,0,0,0,1.38-3.4c.14-.71.24-1.44.43-2.14s.42-1.39.63-2.08c.42-1.37.83-2.71,1.14-4a24,24,0,0,0,.6-3.88,17.68,17.68,0,0,1,.84-4.93,7.2,7.2,0,0,1,1.85-2.74,6.77,6.77,0,0,1,3-1.54,14,14,0,0,1,5.21,0l1.06.14c.34.05.7.09.89.1a5.82,5.82,0,0,0,1.49-.13,4.6,4.6,0,0,0,1.26-.48c.33-.2.45-.39.45-.42s0,0,0,0,0,0,0-.07a.79.79,0,0,0,0-.17c0-.07-.16-.25-.54-.47a15.07,15.07,0,0,0-3.51-1.13,12.13,12.13,0,0,1-2.49-.86,9.88,9.88,0,0,1-2.33-1.58,7.13,7.13,0,0,1-1.82-2.58,5.55,5.55,0,0,1-.19-3.5,11.8,11.8,0,0,1,1-2.4,6.62,6.62,0,0,0,.59-1.44,1,1,0,0,0-.12-.75,3,3,0,0,0-.34-.54,2.74,2.74,0,0,0-.48-.49c-.73-.66-2.11-1.3-3.43-2.19a31.17,31.17,0,0,1-3.77-2.66,8.07,8.07,0,0,1-1.83-2.22,4.33,4.33,0,0,1-.52-1.88c0-.19,0-.37,0-.56s.08-.36.13-.54a3,3,0,0,1,.41-1,3.92,3.92,0,0,1,1.4-1.43,4.78,4.78,0,0,1,1.62-.62,8,8,0,0,1,2.77,0,8.9,8.9,0,0,0,1.75.14,1.94,1.94,0,0,0,.53-.11.55.55,0,0,0,.27-.17,1.52,1.52,0,0,0,.22-.26s0,0,0,0a2.14,2.14,0,0,0-.67-.84,15,15,0,0,0-3.29-2,40.91,40.91,0,0,0-3.87-1.52c-.66-.22-1.33-.44-2-.63a13.79,13.79,0,0,0-1.89-.39,12.75,12.75,0,0,0-3.85.07,11.57,11.57,0,0,0-6.66,3.49,9.39,9.39,0,0,0-1.89,3.23,10.6,10.6,0,0,0-.44,1.85,5.77,5.77,0,0,0,.08,1.77,17.56,17.56,0,0,1,.28,2.32,4.21,4.21,0,0,1-.89,2.9,5.18,5.18,0,0,1-2.43,1.43,9.92,9.92,0,0,0-1.77.67,2,2,0,0,0-.28.19l-.31.28a2.54,2.54,0,0,0-.41.57,8.68,8.68,0,0,0-.48,1.83,15.08,15.08,0,0,1-1.72,4.32,26.78,26.78,0,0,1-5.62,7,7.71,7.71,0,0,1-2.08,1.29,5.82,5.82,0,0,1-2.48.37,15.74,15.74,0,0,1-2.27-.31l-2.13-.41-4.27-.81-2.13-.4a21.33,21.33,0,0,1-2.15-.48,31.7,31.7,0,0,0-4.12-1.07,5.3,5.3,0,0,0-3.82.71c-1.1.7-1.49,2.19-2.5,3.37a3.74,3.74,0,0,1-2,1.18,8.46,8.46,0,0,1-2.23.17c-2.89-.29-5.78-.12-8.66-.65a9.45,9.45,0,0,1-4-1.65,6.81,6.81,0,0,1-1.51-1.57l-1.27-1.76a35.29,35.29,0,0,0-2.69-3.38,9.19,9.19,0,0,0-1.64-1.41A2.8,2.8,0,0,0,202.7,248Zm0,0a2.78,2.78,0,0,1,2.05.49,8.88,8.88,0,0,1,1.67,1.39,35.52,35.52,0,0,1,2.74,3.36l1.29,1.74a6.52,6.52,0,0,0,1.49,1.52,9.12,9.12,0,0,0,4,1.57c2.83.46,5.75.15,8.63.33,1.39,0,2.89-.22,3.69-1.27a12.08,12.08,0,0,0,1.08-1.8,5.13,5.13,0,0,1,1.45-1.82,6.23,6.23,0,0,1,4.45-1,33,33,0,0,1,4.3.93,20,20,0,0,0,2.1.38l2.14.32,4.28.64c1.42.19,2.9.5,4.17.53a4.47,4.47,0,0,0,3.3-1.39,25.3,25.3,0,0,0,4.9-6.65,13.5,13.5,0,0,0,1.37-3.74,10.44,10.44,0,0,1,.6-2.36,4.71,4.71,0,0,1,.82-1.2c.15-.17.31-.32.47-.47a4.84,4.84,0,0,1,.6-.44,11.78,11.78,0,0,1,2.24-.94,2.93,2.93,0,0,0,1.28-.71,1.78,1.78,0,0,0,.25-1.18,17.85,17.85,0,0,0-.3-2,8,8,0,0,1-.15-2.55,12.2,12.2,0,0,1,.5-2.37,12,12,0,0,1,2.36-4.26,14.57,14.57,0,0,1,8.27-4.64,16.22,16.22,0,0,1,7.14.23c.74.19,1.45.4,2.16.62a43.09,43.09,0,0,1,4.23,1.55,17.81,17.81,0,0,1,4.18,2.39,5.41,5.41,0,0,1,1.85,2.61,3.53,3.53,0,0,1-.08,2.13,4.47,4.47,0,0,1-1,1.53,4.12,4.12,0,0,1-1.49,1.05,5,5,0,0,1-1.57.4,11.33,11.33,0,0,1-2.56-.09,4.83,4.83,0,0,0-1.54,0,1.14,1.14,0,0,0-.39.16c-.07.07-.08.05-.08.12s0,0,0,0v0h0s0,0,0,0,0,.08.07.14a4.49,4.49,0,0,0,1,1.05,14.07,14.07,0,0,0,1.55,1.11c.57.37,1.14.69,1.82,1.11l.44.28.42.24.93.51a13.41,13.41,0,0,1,2.12,1.37,6.84,6.84,0,0,1,1.06,1,7.75,7.75,0,0,1,.86,1.26,5.3,5.3,0,0,1,.6,3.43,9.89,9.89,0,0,1-.9,2.62,10.56,10.56,0,0,0-.63,1.61,1,1,0,0,0,0,.75,2.77,2.77,0,0,0,.71.9,5.34,5.34,0,0,0,1.26.81,6.83,6.83,0,0,0,1.61.5,18.56,18.56,0,0,1,4.71,1.52,5.75,5.75,0,0,1,2.5,2.53,5.15,5.15,0,0,1,.5,1.91,4.77,4.77,0,0,1-.29,2,5.64,5.64,0,0,1-2.32,2.8,8.91,8.91,0,0,1-2.73,1.15,10.18,10.18,0,0,1-2.81.3c-.53,0-.89-.07-1.27-.11l-1.09-.12a10.17,10.17,0,0,0-3.4,0,1.79,1.79,0,0,0-1.37,1.25,15.46,15.46,0,0,0-.6,3.59,25.36,25.36,0,0,1-1,4.63c-.44,1.48-1,2.88-1.46,4.24-.26.68-.5,1.36-.77,2s-.65,1.31-1,2a16.25,16.25,0,0,1-2.42,4.33,6.39,6.39,0,0,1-2.32,1.64,14.49,14.49,0,0,1-2.31.68c-1.42.32-2.43.64-2.86,1.39a5.9,5.9,0,0,0-.45,3.46,33.14,33.14,0,0,1,.13,4.49,16.38,16.38,0,0,1-.8,4.64,17,17,0,0,1-5.51,7.7,25,25,0,0,1-3.85,2.63c-.67.37-1.35.72-2,1l-1,.46c-.38.16-.77.31-1.17.44a8.33,8.33,0,0,1-2.59.48,6.69,6.69,0,0,1-2.94-.64,5.62,5.62,0,0,1-2.36-2.24c-.46-.87-.67-1.53-.92-1.91a5.16,5.16,0,0,0-2.69-1.91,29.39,29.39,0,0,0-4-1.07l-4.25-1a18.76,18.76,0,0,0-2-.45,4,4,0,0,0-.8-.06c-.22,0-.35.07-.29,0l.17-.14a2.36,2.36,0,0,0-.49.84,5,5,0,0,1-1.08,1.76,4,4,0,0,1-2.07.95,9.8,9.8,0,0,1-1.76.1c-1.1,0-2.13-.15-3.12-.26-.5,0-.93-.15-1.42-.22s-1.12-.2-1.73-.35a3.34,3.34,0,0,1-1.76-1.1,6.64,6.64,0,0,1-.86-1.55,7,7,0,0,0-1.27-2.25,2.42,2.42,0,0,0-2.18-.18c-.91.22-1.86.62-3,.82a6.3,6.3,0,0,1-.89.07l-.77,0c-.51,0-1-.06-1.54-.11a18.56,18.56,0,0,1-3.1-.51,8.07,8.07,0,0,1-5.24-3.62,12.8,12.8,0,0,1-1.28-6.14,15.46,15.46,0,0,0-.89-5.77,4.84,4.84,0,0,0-1.8-2.1,7.47,7.47,0,0,0-2.73-.92,3.75,3.75,0,0,1-1.51-.63,4.13,4.13,0,0,1-1.09-1.2,10.43,10.43,0,0,1-1.14-2.9,29.51,29.51,0,0,1-.79-6c0-1,0-2,.05-3a8.31,8.31,0,0,0-.26-2.95c-.6-2-2.79-2.8-3.78-4.63a4.24,4.24,0,0,1-.31-3,8.55,8.55,0,0,1,1.29-2.75c1.12-1.68,2.87-2.89,3.73-4.74a24.31,24.31,0,0,0,.63-3,3.55,3.55,0,0,1,.72-1.32A2.35,2.35,0,0,1,202.7,248Z"/><path d="M369.26,263.14a5.7,5.7,0,0,1-2.6,2,10.7,10.7,0,0,1-3.26.67c-2.23.13-4.46.09-6.68.16-4.46.09-8.91.17-13.36.2l-6.68.07-6.68-.05a25.86,25.86,0,0,0-3.29.23c-.55,0-1.09.05-1.63.08l-.82.06a2.57,2.57,0,0,0-.6.11c-1.39.29-1.79,2.93-2.18,4.92s-.35,4.3.87,5.7a4.29,4.29,0,0,0,1.1.89,15.15,15.15,0,0,1,1.49.9,3.14,3.14,0,0,1,1.24,1.67,4.71,4.71,0,0,1,0,1.91,3.93,3.93,0,0,0-.08,1.46,3.79,3.79,0,0,0,.62,1.34c.55.83,1.54,1.45,2.17.88.29-.2.3-.58.27-1.18a3.25,3.25,0,0,1,.09-1,5.22,5.22,0,0,1,.29-.87,7.16,7.16,0,0,1,2.17-2.86,6.21,6.21,0,0,1,3.43-1.35c1.29-.06,2.38.25,3.25.08a1.74,1.74,0,0,0,1-.55c.31-.32.61-.79,1.06-1.27a5.87,5.87,0,0,1,3.47-1.55c2.27-.29,4.44-.49,6.67-.73a21.4,21.4,0,0,1,3.44-.16,5.65,5.65,0,0,1,3.48,1.29,3.72,3.72,0,0,1,1.24,3.52,2.29,2.29,0,0,1-.43.92c-.1.12-.2.26-.32.38l-.39.31a3.71,3.71,0,0,1-1.81.53c-1.2.07-2.3-.15-3.37-.18a4.05,4.05,0,0,0-2.86.72c-1.55,1.27-1.89,3.86-4,5.35a7.59,7.59,0,0,1-3.33,1.23,33.09,33.09,0,0,1-3.38.26c-1.09.1-2.18.28-3.27.41a4.49,4.49,0,0,0-1.41.34,1.1,1.1,0,0,0-.66.78.39.39,0,0,0,.1.3,1.81,1.81,0,0,0,.48.37,10.94,10.94,0,0,0,1.44.61l.42.18.42.21.74.43c.48.28,1,.59,1.44.91a15.15,15.15,0,0,1,4.79,5,9.73,9.73,0,0,1,1.17,3.37,27.27,27.27,0,0,1,.21,3.42,9.35,9.35,0,0,0,.48,3,5,5,0,0,0,1.81,2.23,20.13,20.13,0,0,1,2.68,2.21,4.66,4.66,0,0,1,1,1.76,3.88,3.88,0,0,1,.06,2.11,5.57,5.57,0,0,1-2.26,3.2,6.68,6.68,0,0,1-3.68,1.14,7.47,7.47,0,0,1-.95,0c-.38,0-.65-.11-.89-.15a2.26,2.26,0,0,0-.52,0c-.09,0,0,0,0,0a1.26,1.26,0,0,0-.07.34,4.66,4.66,0,0,1-.23,1,4.08,4.08,0,0,1-1.3,1.82,4.16,4.16,0,0,1-4.31.53,6,6,0,0,1-2.8-3,8,8,0,0,1-.59-1.89,10.06,10.06,0,0,1-.13-1.89,2.77,2.77,0,0,0-.17-1.13,2.19,2.19,0,0,0-.63-.79c-.63-.55-1.63-1.05-2.67-1.88a6.46,6.46,0,0,1-1.48-1.62,6.62,6.62,0,0,1-.82-2,13.65,13.65,0,0,1-.21-3.82,19.11,19.11,0,0,0,.07-3.07,5.72,5.72,0,0,0-.24-1.18,2.85,2.85,0,0,0-.19-.42,2.26,2.26,0,0,0-.27-.36,1.53,1.53,0,0,0-1.2-.6.5.5,0,0,0-.27.18,1.16,1.16,0,0,0-.2.56,7.67,7.67,0,0,0,.2,2.55c.21.91.56,2.17.76,3.31a35.11,35.11,0,0,1,.45,3.53,33.09,33.09,0,0,1-.26,7.1,29.94,29.94,0,0,1-.7,3.49,7.13,7.13,0,0,0-.46,2.41,1.12,1.12,0,0,0,.29.52c.22.28.62.66,1.08,1.19a6.58,6.58,0,0,1,.7,1,6.14,6.14,0,0,1,.54,1.27,5.81,5.81,0,0,1,.1,2.62,5.67,5.67,0,0,1-1.11,2.42,5.43,5.43,0,0,1-2.18,1.61,5.75,5.75,0,0,1-3.91.17,6.71,6.71,0,0,1-1.16-.53c-.63-.37-1.12-.74-1.45-.94s-.4-.18-.39-.18-.13,0-.65.28a7.41,7.41,0,0,1-2.15.82,4.53,4.53,0,0,1-3.05-.54,5.59,5.59,0,0,1-1.95-1.88,6.37,6.37,0,0,1-.88-2.37,10.27,10.27,0,0,1-.11-2.11c.05-1.33.28-2.49.41-3.57.07-.54.1-1,.12-1.52l.11-1.7a34.42,34.42,0,0,1,.94-6.74,15.25,15.25,0,0,0,.73-2.49,1.47,1.47,0,0,0-.74-1.54c-.21-.08-.36-.06-.9.1a7.07,7.07,0,0,1-1,.26,3.68,3.68,0,0,1-1.24,0,5,5,0,0,1-3.56-2.62,6.71,6.71,0,0,1-.58-4.15,14.19,14.19,0,0,1,1.09-3.57c.92-2.18,2.07-4.12,2.91-6a10.42,10.42,0,0,0,1.1-5.42c-.08-.92-.27-2-.4-3.2a9.82,9.82,0,0,1,.38-4.22,6.41,6.41,0,0,1,1.36-2.17,8.4,8.4,0,0,1,1.66-1.24,5.9,5.9,0,0,0,.9-.64,1.11,1.11,0,0,0,.36-.64,12.22,12.22,0,0,0,.2-1.47l.19-1.69L313,270c.12-1.1.23-2.19.29-3.28l0-.81v-.41l0-.49a6.44,6.44,0,0,1,.45-1.89,7.78,7.78,0,0,1,2.18-3,17,17,0,0,1,2.85-2,36.26,36.26,0,0,1,6.09-3,20.18,20.18,0,0,1,6.74-1.14,33.72,33.72,0,0,1,6.74.78c4.41.91,8.64,2.39,12.94,3.22a32.42,32.42,0,0,0,6.51.62,18.85,18.85,0,0,0,6.33-1.14A12.55,12.55,0,0,0,367,256c.89-.59,1.67-1.37,2.55-2.09a7.71,7.71,0,0,1,3-1.68,4.53,4.53,0,0,1,1.76-.11,2.65,2.65,0,0,1,1.61.81,1.75,1.75,0,0,1,.32,1.76,2.43,2.43,0,0,1-1.17,1.29,8.31,8.31,0,0,1-1.64.44,3.6,3.6,0,0,0-1.45.72,5.47,5.47,0,0,0-1.53,2.88A10.1,10.1,0,0,1,369.26,263.14Zm0,0a10.46,10.46,0,0,0,1.15-3.12,5.75,5.75,0,0,1,1.48-3,3.83,3.83,0,0,1,1.49-.79,9.5,9.5,0,0,0,1.56-.51,2.12,2.12,0,0,0,1-1.17,1.35,1.35,0,0,0-.31-1.36,2.91,2.91,0,0,0-2.89-.4,7,7,0,0,0-2.66,1.7,26.25,26.25,0,0,1-2.51,2.26,14.31,14.31,0,0,1-3,1.75,18.31,18.31,0,0,1-6.72,1.35,33.94,33.94,0,0,1-6.76-.61c-4.46-.83-8.64-2.41-12.95-3.32s-8.79-1.25-12.84.32a31.47,31.47,0,0,0-5.79,3.06,16.2,16.2,0,0,0-2.55,1.92,6.26,6.26,0,0,0-1.6,2.47,4.27,4.27,0,0,0-.18,1.37l.13,1.62c.09,1.14.15,2.28.18,3.4l.09,3.36.06,1.65a13.91,13.91,0,0,1,0,1.86,4.71,4.71,0,0,1-.84,2.43,8.25,8.25,0,0,1-1.58,1.57c-1,.76-1.08,1-1.25,1.55a7.11,7.11,0,0,0,0,2.39c.11,1,.31,2.13.36,3.43a12.26,12.26,0,0,1-.55,4,19.35,19.35,0,0,1-1.47,3.43c-1.12,2.1-2.4,3.92-3.44,5.74a11.62,11.62,0,0,0-1.18,2.67,3.61,3.61,0,0,0,.06,2.38,2.18,2.18,0,0,0,1.53,1.31,2,2,0,0,0,1.06-.21,5.59,5.59,0,0,1,1-.26,3.73,3.73,0,0,1,1.33.07,4.85,4.85,0,0,1,2.15,1.21,5.68,5.68,0,0,1,1.36,2,9.52,9.52,0,0,1,.61,4.14,37,37,0,0,1-.85,6.5l-.33,1.6c-.09.6-.22,1.23-.32,1.79a23.39,23.39,0,0,0-.46,3.05,6.66,6.66,0,0,0,0,1.21,1.89,1.89,0,0,0,.24.76,1.3,1.3,0,0,0,.4.43c.13.08.11.06.16.07a4,4,0,0,0,.94-.41,5.61,5.61,0,0,1,2.49-.74,5,5,0,0,1,2.74.82c.62.4,1,.7,1.35.9a1.49,1.49,0,0,0,.34.16,1.29,1.29,0,0,0,.31.07,1.6,1.6,0,0,0,.68-.11,1.19,1.19,0,0,0,.76-.92,1.76,1.76,0,0,0,0-.69,1.69,1.69,0,0,0-.11-.27,2,2,0,0,0-.27-.38c-.26-.32-.67-.71-1.15-1.29a5.36,5.36,0,0,1-1.14-2.46,6.53,6.53,0,0,1,.12-2.43c.15-.67.33-1.22.45-1.7a26.21,26.21,0,0,0,.64-3,28.82,28.82,0,0,0-.1-9.31c-.18-1.05-.42-1.94-.7-3.2a10.63,10.63,0,0,1-.18-4.08,5.07,5.07,0,0,1,1.16-2.44,4.38,4.38,0,0,1,2.59-1.41,4.7,4.7,0,0,1,2.73.44,5.94,5.94,0,0,1,1.94,1.5,7.09,7.09,0,0,1,.69,1,6.46,6.46,0,0,1,.47,1.11,8.31,8.31,0,0,1,.35,2.09,23,23,0,0,1-.24,3.6,10.34,10.34,0,0,0,0,2.83,3.92,3.92,0,0,0,.35,1.08,3.05,3.05,0,0,0,.71.88c.65.62,1.64,1.18,2.64,2.15a5.1,5.1,0,0,1,1.26,1.93,5.39,5.39,0,0,1,.24,2.16,7.64,7.64,0,0,0,0,1.44,5.43,5.43,0,0,0,.31,1.31,3.58,3.58,0,0,0,1.51,1.91,1.94,1.94,0,0,0,2-.17,1.91,1.91,0,0,0,.66-.83,2.37,2.37,0,0,0,.16-.61,2.82,2.82,0,0,1,.48-1.22,2,2,0,0,1,1.39-.78,3.64,3.64,0,0,1,1.14.07c.31.06.57.13.75.15a5.65,5.65,0,0,0,.71.05,4.72,4.72,0,0,0,2.63-.74,3.75,3.75,0,0,0,1.58-2.08,2.44,2.44,0,0,0-.62-2.3,19.63,19.63,0,0,0-2.43-2.07,9.26,9.26,0,0,1-1.31-1.28,5.67,5.67,0,0,1-.94-1.68,11.11,11.11,0,0,1-.51-3.54,26.05,26.05,0,0,0-.14-3.24,8.62,8.62,0,0,0-1-2.91,14,14,0,0,0-4.3-4.6c-.44-.31-.9-.6-1.37-.89l-.71-.41a3.36,3.36,0,0,0-.66-.32,12.33,12.33,0,0,1-1.61-.72,2.68,2.68,0,0,1-.82-.68,1.68,1.68,0,0,1-.36-1.25,2.33,2.33,0,0,1,1.35-1.72,5.67,5.67,0,0,1,1.82-.44c1.12-.11,2.24-.27,3.36-.34s2.22-.05,3.28-.19a6.51,6.51,0,0,0,2.9-1,6.36,6.36,0,0,0,1.95-2.39,9.37,9.37,0,0,1,2-2.83,5.05,5.05,0,0,1,3.46-.91c1.15,0,2.25.24,3.28.17a3,3,0,0,0,1.37-.39,1.86,1.86,0,0,0,.72-1.07,2.59,2.59,0,0,0-1.1-2.4,4.4,4.4,0,0,0-2.75-.7,31.4,31.4,0,0,0-3.21.32l-6.6.73a4.29,4.29,0,0,0-2.56,1c-.33.32-.65.79-1.12,1.25a3.34,3.34,0,0,1-1.9.94,29.62,29.62,0,0,1-3.41-.17,5.05,5.05,0,0,0-2.72,1,6.58,6.58,0,0,0-2,2.28,3.83,3.83,0,0,0-.29.7,2,2,0,0,0-.11.69,5.47,5.47,0,0,1-.09.92,1.58,1.58,0,0,1-.59.95,2,2,0,0,1-1,.39,2.25,2.25,0,0,1-1-.21A4,4,0,0,1,326,286a5.43,5.43,0,0,1-.87-1.63,5.13,5.13,0,0,1-.08-1.85,3.41,3.41,0,0,0-.1-1.4,1.84,1.84,0,0,0-.8-.9c-.39-.26-.89-.47-1.41-.75a5.82,5.82,0,0,1-1.52-1.14,6.2,6.2,0,0,1-1.54-3.44,13.31,13.31,0,0,1,0-3.57,24.72,24.72,0,0,1,.73-3.41,5.89,5.89,0,0,1,.85-1.78,3.59,3.59,0,0,1,1.8-1.3,4.87,4.87,0,0,1,1-.21l.85-.07c.57,0,1.14-.08,1.71-.07,1.13,0,2.26.19,3.38.2l6.67.33c2.21.09,4.45.13,6.67.19l13.35.37c2.22,0,4.45.17,6.67.14a10.63,10.63,0,0,0,3.26-.61A5.6,5.6,0,0,0,369.26,263.14Z"/><path d="M378.8,239.43a1.5,1.5,0,0,0-1.11,1.14,3.54,3.54,0,0,0-.14,1.43,4,4,0,0,0,.37,1.23c.18.37.4.53.43.52l.14,0a.18.18,0,0,0,.14,0,1.1,1.1,0,0,0,.53-.65,2.79,2.79,0,0,0,.06-1.42c-.07-.59-.29-1.21-.4-1.92a5.89,5.89,0,0,1,1.71,1.24,3.75,3.75,0,0,1,1,2.23,3.4,3.4,0,0,1-1.06,2.7,3,3,0,0,1-1.57.77,3.22,3.22,0,0,1-1.72-.22,3.51,3.51,0,0,1-1.93-2.33,4.69,4.69,0,0,1,0-2.52,3.91,3.91,0,0,1,1.35-2,2.48,2.48,0,0,1,1.14-.49A1.36,1.36,0,0,1,378.8,239.43Z"/><path d="M382.63,233.93a14,14,0,0,0-2.53-4.24c-.55-.58-1.14-1.21-1.72-1.76-.29-.28-.6-.53-.89-.77a3.31,3.31,0,0,0-.79-.5l-.07,0h0a.17.17,0,0,0,.1,0s.13,0,.15-.12a.2.2,0,0,0,.07-.11,2.54,2.54,0,0,0,.08.74,17,17,0,0,0,.78,2.27,6.39,6.39,0,0,0,1,2,2.14,2.14,0,0,0,1.88.79l-.16.23c.08-.41.18-.82.28-1.23.08.41.17.82.23,1.24l0,.12-.18.11a2.75,2.75,0,0,1-2.88-.31,6.5,6.5,0,0,1-1.77-2.23,14.51,14.51,0,0,1-1.11-2.48,3.42,3.42,0,0,1-.11-1.78,1.54,1.54,0,0,1,.12-.34,2.88,2.88,0,0,1,.23-.34,1.72,1.72,0,0,1,.69-.45,3,3,0,0,1,.41-.09,1.72,1.72,0,0,1,.33,0,1.78,1.78,0,0,1,.55.13,4.44,4.44,0,0,1,1.35.88,8.22,8.22,0,0,1,1,1,15.82,15.82,0,0,1,1.59,2.14A8.53,8.53,0,0,1,382.63,233.93Z"/><path d="M394.59,223.26c0-.64-.61-.8-1.12-.88l-.85-.12a4.12,4.12,0,0,1-.9-.33c-.52-.27-1-.44-1.18-.31s-.35.3-.41.75a8.71,8.71,0,0,0,.07,1.48,14.12,14.12,0,0,0,1.35,4.53c.44,1,1,1.79,1.59,1.93a.79.79,0,0,0,.73-.07.55.55,0,0,0,.15-.17.66.66,0,0,0-.08-.4c-.16-.4-.54-.84-.85-1.42a2.36,2.36,0,0,1-.21-.51,3.59,3.59,0,0,1-.12-.47,4.27,4.27,0,0,1-.08-.94,4.34,4.34,0,0,1,1.41-3.25,4.6,4.6,0,0,0-.43,3.16,4.38,4.38,0,0,0,.21.73c0,.11.1.22.15.34l.18.24a15,15,0,0,1,1.11,1.37,2.32,2.32,0,0,1,.38,1.22,2.06,2.06,0,0,1-.56,1.33,2.59,2.59,0,0,1-2.44.68,3.46,3.46,0,0,1-1.91-1.26,8.89,8.89,0,0,1-1-1.63,13.43,13.43,0,0,1-1.13-3.47,16,16,0,0,1-.17-1.82,6.43,6.43,0,0,1,.15-1.91,2.65,2.65,0,0,1,.52-1.07,1.78,1.78,0,0,1,1.14-.64,1.91,1.91,0,0,1,1.19.22,5.7,5.7,0,0,1,.77.53,3.09,3.09,0,0,0,.62.42c.23.11.52.2.79.34a2.31,2.31,0,0,1,.77.53A.86.86,0,0,1,394.59,223.26Z"/><path d="M414.41,244a2.17,2.17,0,0,0-.71-1.7,3.33,3.33,0,0,0-1.74-.69,17.27,17.27,0,0,0-3.8-.25,10.46,10.46,0,0,0-3.69.74,5.16,5.16,0,0,0-2.66,2.48,8.34,8.34,0,0,0-.73,3.61c0,1.26.07,2.53,0,3.84a11.9,11.9,0,0,1-.8,3.89c-.46,1.23-1,2.39-1.5,3.53a11,11,0,0,0-.92,3.43,5.47,5.47,0,0,0,.11,1.6c.13.51.38,1.06.61,1.7a7.2,7.2,0,0,1,.49,2.16,6.35,6.35,0,0,1-.31,2.31,4.84,4.84,0,0,1-.55,1.12,6.54,6.54,0,0,1-.4.52,4.27,4.27,0,0,1-.56.49,9.64,9.64,0,0,1-2,.9,1.36,1.36,0,0,0-.45.27.54.54,0,0,0-.15.26.69.69,0,0,0,.1.68,5.31,5.31,0,0,0,2.44,1.43l7.19,2.35,3.65,1.13c.6.17,1.29.43,1.73.52.21.06.39,0,.24.07a.32.32,0,0,0-.08.09.36.36,0,0,0,0-.16,3.89,3.89,0,0,0-.23-1.5,7.73,7.73,0,0,0-.67-1.56,24.29,24.29,0,0,0-2.35-2.81,8.38,8.38,0,0,1-2.09-3.57,5.45,5.45,0,0,1-.09-2.17,3.51,3.51,0,0,1,3.07-3,5.82,5.82,0,0,1,2.1.16,28.34,28.34,0,0,0,3.63,1,3.34,3.34,0,0,0,1.65-.17,1.29,1.29,0,0,0,.76-1.17,3.42,3.42,0,0,0-1.34-3,2.76,2.76,0,0,0-1.61-.59,3.3,3.3,0,0,1-2-.45,2.09,2.09,0,0,1-.64-.88,1.85,1.85,0,0,1,0-1.07,4.61,4.61,0,0,1,1.07-1.67c.88-.95,1.92-1.71,2.73-2.67a5.8,5.8,0,0,0,1-3.56C415.14,249.08,414.46,246.57,414.41,244Zm0,0c.06,2.55.73,5,.71,7.61a11.12,11.12,0,0,1-.17,1.91,4,4,0,0,1-.75,1.78c-.8,1-1.82,1.82-2.63,2.77a4.23,4.23,0,0,0-.93,1.55,1.39,1.39,0,0,0,0,.81,1.52,1.52,0,0,0,.49.63,2.9,2.9,0,0,0,1.71.28,3.43,3.43,0,0,1,1.95.63,3.72,3.72,0,0,1,1.34,1.57,4.4,4.4,0,0,1,.42,2,2.47,2.47,0,0,1-.31,1.09,2,2,0,0,1-.88.8,4.29,4.29,0,0,1-2.09.32,27,27,0,0,1-3.78-.86,2.67,2.67,0,0,0-3.48,3.6,7,7,0,0,0,1.89,2.85,24.49,24.49,0,0,1,2.67,3,10.78,10.78,0,0,1,.93,1.9,5.76,5.76,0,0,1,.39,2.25,2.35,2.35,0,0,1-.16.76,1.75,1.75,0,0,1-.68.82,2.33,2.33,0,0,1-1.61.24c-.82-.15-1.32-.34-2-.49l-3.7-1-3.71-.91-1.86-.45-.93-.24a9.25,9.25,0,0,1-1-.29,9.48,9.48,0,0,1-2-.9,5.07,5.07,0,0,1-1.85-1.77,3.39,3.39,0,0,1-.47-1.49,3.65,3.65,0,0,1,.24-1.49,3,3,0,0,1,.91-1.3,4,4,0,0,1,1.2-.68c1.56-.51,1.79-.52,2.25-1.49a3.93,3.93,0,0,0,.28-1.44,4.86,4.86,0,0,0-.26-1.57,16.32,16.32,0,0,1-.53-2,7,7,0,0,1,0-2.2,12.67,12.67,0,0,1,1.34-3.84c1.19-2.32,2.56-4.39,2.75-6.88.14-1.24.15-2.52.26-3.8a8.79,8.79,0,0,1,1-3.77,5.73,5.73,0,0,1,2.92-2.51,10.69,10.69,0,0,1,3.79-.62,18.78,18.78,0,0,1,3.81.3,3.48,3.48,0,0,1,1.75.72A2.23,2.23,0,0,1,414.41,244Z"/><path d="M409.19,287.69a5.11,5.11,0,0,1-2.26-.45,11.2,11.2,0,0,1-2.05-1.14c-.66-.48-1.19-1-1.72-1.39a3.46,3.46,0,0,0-1.53-.69,2.45,2.45,0,0,0-1.39.19,1.14,1.14,0,0,0-.6.81,7.18,7.18,0,0,0-.15,1.77,3.33,3.33,0,0,0,.18,1.46.55.55,0,0,0,.22.26,1.81,1.81,0,0,0,.55.24,16,16,0,0,0,2,.36c1.46.24,2.91.48,4.36.79a5.58,5.58,0,0,0,1.73.22c.44-.12.57-.08.6-.63a3.47,3.47,0,0,0-.71-1.73,3.39,3.39,0,0,0-1.62-1.33,3.23,3.23,0,0,1,2.2.74,4.24,4.24,0,0,1,1.57,2,2.21,2.21,0,0,1-.1,1.66,2.59,2.59,0,0,1-1.29,1.14,3.67,3.67,0,0,1-1.47.28c-.46,0-.82,0-1.19,0-1.48-.05-3-.17-4.43-.29a15,15,0,0,1-2.4-.32,4.78,4.78,0,0,1-1.46-.63,3.67,3.67,0,0,1-1.23-1.39,6,6,0,0,1-.45-2.88,8.91,8.91,0,0,1,.42-2.6,4.14,4.14,0,0,1,.87-1.43,3.81,3.81,0,0,1,1.43-.92,4.54,4.54,0,0,1,3,0,5.19,5.19,0,0,1,2.27,1.51c.56.62,1,1.24,1.39,1.76A9.34,9.34,0,0,0,409.19,287.69Z"/><path class="cls-1" d="M372.3,287a11.74,11.74,0,0,0-4.83.64c-1,.43-3.36,2.41-2.57,3.72.51.86,2.24,1.21,3.14,1.38a20.72,20.72,0,0,0,4.31.25l5.12-.05c1.15,0,3.48-.57,4.15.66s.7,2.77,2.18,3.66c.9.55,3.12,1.08,3.21-.51.06-.95-.95-2.06-.52-3,.59-1.28,2.89-1.58,2.71-3.27s-3-2.44-4.37-2.77C380.76,286.7,376.45,287,372.3,287Z"/><path d="M396.11,304.85a46.34,46.34,0,0,0-5.2-.2q-1.25,0-2.46.15l-1.21.14c-.39.05-.83.12-1.12.19s-.47.18-.47.23.09,0,.13,0,.06.35.28.76a3.29,3.29,0,0,0,.37.57,6.9,6.9,0,0,0,.61.64,9.08,9.08,0,0,0,1.61,1.19,13.48,13.48,0,0,0,2,1,10.54,10.54,0,0,0,1.9.68,2.83,2.83,0,0,0,1.31,0,5,5,0,0,0,1.61-.93l.9-.69c.23-.18.33-.29.39-.28s.15,0,.09-.36a9.53,9.53,0,0,0-.33-1.14c-.54-1.56-1-3.11-2.57-4.05a4,4,0,0,1,2.69.85,10.28,10.28,0,0,1,2,2,11.57,11.57,0,0,1,.84,1.19,3.35,3.35,0,0,1,.45,2.17,4.5,4.5,0,0,1-.85,2c-.35.49-.62.81-.92,1.16a8.31,8.31,0,0,1-2.57,2.13,6.73,6.73,0,0,1-3.78.6,12.84,12.84,0,0,1-3.07-.8,18.42,18.42,0,0,1-2.69-1.3,13.21,13.21,0,0,1-2.49-2,10,10,0,0,1-1.09-1.32,6.79,6.79,0,0,1-.85-1.73,6.45,6.45,0,0,1-.34-2,4.78,4.78,0,0,1,.52-2.33,4.15,4.15,0,0,1,1.9-1.83,5,5,0,0,1,2-.42,12.89,12.89,0,0,1,1.47.09c.47.06.94.12,1.4.21a18.66,18.66,0,0,1,2.69.71A15.63,15.63,0,0,1,396.11,304.85Z"/><path d="M402.5,311a3.3,3.3,0,0,0,2.34,1.1,5.55,5.55,0,0,0,2.55-.65,9.4,9.4,0,0,0,2.19-1.46,14.7,14.7,0,0,1,2.11-1.74,6.24,6.24,0,0,1,2.77-.67l2.66-.16,5.4-.38a8.54,8.54,0,0,1,3.05.2,15.47,15.47,0,0,1,2.81,1.05,14.26,14.26,0,0,0,4.34,1.68,3,3,0,0,0,1.5-.23,1.9,1.9,0,0,0,.92-.72c.12-.25,0-.19,0-.29a2.77,2.77,0,0,0-.85-.87,14.2,14.2,0,0,0-4-1.85l-1.22-.39c-.39-.13-.79-.24-1.19-.35-.81-.22-1.63-.43-2.47-.62l-5.2-1.14c-1.76-.39-3.61-1-5.25-1.48a28.1,28.1,0,0,0-5.06-1.11,9.13,9.13,0,0,0-5,.67c-1.53.75-2.11,2.63-2.62,4.28a11.74,11.74,0,0,0-.48,2.62A3.62,3.62,0,0,0,402.5,311Zm0,0a3.63,3.63,0,0,1-.73-2.51,12.51,12.51,0,0,1,.35-2.66,18.69,18.69,0,0,1,.74-2.6,4.71,4.71,0,0,1,1.69-2.22,10.48,10.48,0,0,1,5.34-1.6,33,33,0,0,1,5.54.15c1.85.22,3.49.39,5.26.47s3.55.16,5.39.35c.92.09,1.85.2,2.79.38.46.08.93.17,1.4.28s.9.21,1.36.33a16.52,16.52,0,0,1,5.67,2.49,8.26,8.26,0,0,1,1.36,1.26,5.84,5.84,0,0,1,1.15,1.92,5.11,5.11,0,0,1,.22,2.55,5.44,5.44,0,0,1-1,2.23,6.49,6.49,0,0,1-3.39,2.29,7.31,7.31,0,0,1-3.77.09,9.92,9.92,0,0,1-3-1.34c-.84-.52-1.57-1.07-2.27-1.55a13.5,13.5,0,0,0-2-1.23,5.69,5.69,0,0,0-2.21-.55l-5.29-.62-2.68-.26a4.84,4.84,0,0,0-2.44.21,12,12,0,0,0-2.18,1.43,11.66,11.66,0,0,1-2.36,1.32,6,6,0,0,1-2.62.54A3.32,3.32,0,0,1,402.5,311Z"/><path d="M441.59,271.31c-2.67.73-5.58,0-7.73.5a6,6,0,0,0-.75.24c-.23.09-.57.24-.79.35a2.51,2.51,0,0,0-.49.33c-.08.1-.06.12-.06.16V273a.22.22,0,0,0,0,.15s0,.06,0,0,0,0,0,0a2,2,0,0,0,1,.28,18.37,18.37,0,0,0,3.58-.11l1-.09,1-.08a6.28,6.28,0,0,0,1.57-.29,2.78,2.78,0,0,0,.6-.29,1.41,1.41,0,0,0,.39-.38,1.52,1.52,0,0,0,.21-1.18.71.71,0,0,0-.3-.46,2.15,2.15,0,0,0-.77-.27c-.31-.06-.66-.1-1-.19a1.64,1.64,0,0,1-.89-.57c.63.3,1.22,0,1.9-.07a2.66,2.66,0,0,1,1.19,0,2,2,0,0,1,1.16.82,3.11,3.11,0,0,1,.33,2.65,3.15,3.15,0,0,1-.73,1.23,4.23,4.23,0,0,1-1,.82,7.61,7.61,0,0,1-2.22.79l-2,.37a15.87,15.87,0,0,1-4.32.27,4.63,4.63,0,0,1-2.65-1.09,2.6,2.6,0,0,1-.58-.76,2.53,2.53,0,0,1-.31-.87,3.07,3.07,0,0,1-.07-.83,3.41,3.41,0,0,1,.16-.86,3.07,3.07,0,0,1,1-1.46,4.51,4.51,0,0,1,1.22-.64,8.83,8.83,0,0,1,1.08-.32,8.18,8.18,0,0,1,1.18-.17C436.73,269.4,439,270.82,441.59,271.31Z"/><path d="M439.92,280c-2.43-.42-4.83-1.16-7.32-1a.69.69,0,0,0-.73.4,1.36,1.36,0,0,0-.06.45,1.78,1.78,0,0,0,0,.46,4.05,4.05,0,0,0,.69,1.68,10,10,0,0,0,2.66,2.53,10.55,10.55,0,0,0,3.34,1.53,18,18,0,0,0,1.8.39,8.71,8.71,0,0,0,1.83.16,11.7,11.7,0,0,1,1.87,0,2.2,2.2,0,0,1,1.64.91,6.27,6.27,0,0,1,.55,1.79,8,8,0,0,0,.7,1.68,7.87,7.87,0,0,0,5.79,4,12.53,12.53,0,0,1,3.65.87,3.5,3.5,0,0,1,2,3.15,3.78,3.78,0,0,1-1.91,3.26,3.26,3.26,0,0,1-1.93.41,11.57,11.57,0,0,1-1.84-.43,2.14,2.14,0,0,0-.83-.06,1,1,0,0,0-.39.06c-.12,0-.25.06-.31.14-.35.23-.37.79-.23,1.34a12,12,0,0,0,1.53,3.22,12.32,12.32,0,0,0,5,4.93,4.86,4.86,0,0,0,1.49.55,2.64,2.64,0,0,0,1.38-.2,7.74,7.74,0,0,0,2.5-2.12c.39-.44.78-.95,1.29-1.44a8.87,8.87,0,0,1,1.66-1.29,5.5,5.5,0,0,1,2.19-.79,3.87,3.87,0,0,1,2.58.61,5.1,5.1,0,0,1,1.61,1.85c.34.62.59,1.2.85,1.64a6,6,0,0,0,2.14,2,28.55,28.55,0,0,0,3.13,1.54l3.39,1.51,6.75,3a70,70,0,0,0,6.59,2.8,14,14,0,0,0,3,.58,29.82,29.82,0,0,0,3.58.22,13.38,13.38,0,0,1,4.41.68,17.8,17.8,0,0,1,3.85,1.84,46.77,46.77,0,0,1,6.18,4.6,29.31,29.31,0,0,1,5.42,6.08,17.06,17.06,0,0,1,1.9,4A15,15,0,0,1,524,344a13.51,13.51,0,0,1-.69,4.54,10.61,10.61,0,0,1-2.51,4.17,11.26,11.26,0,0,1-2,1.56c-.68.41-1.3.71-1.84,1s-1,.51-1.34.72a2.31,2.31,0,0,0-.61.54,1,1,0,0,0-.09.16l-.17.33a5.32,5.32,0,0,0-.29.66,4.89,4.89,0,0,0-.32,1.12,1.47,1.47,0,0,0,0,.58.7.7,0,0,0,.29.35,5.5,5.5,0,0,0,2.33.81,20.16,20.16,0,0,0,3.29.25c1.15,0,2.33,0,3.54-.11a11.16,11.16,0,0,0,3-.41,12.65,12.65,0,0,0,1.41-.67,7.22,7.22,0,0,1,2.63-.79,8.65,8.65,0,0,1,4.93,1.24c.34.19.66.39,1,.59s.7.53,1,.75c.54.48,1,.92,1.45,1.36.9.89,1.75,1.74,2.62,2.55a30.19,30.19,0,0,0,2.63,2.19,7.76,7.76,0,0,0,2.41,1.29.77.77,0,0,0,.46,0s.14-.15,0,0c0,0,0-.05,0-.09l.06-.24a6.24,6.24,0,0,0,.12-.62,15.08,15.08,0,0,0,.09-1.56,29.55,29.55,0,0,0-.16-3.47l-.37-3.73-.16-1.85-.18-1.78c-.14-1.2-.3-2.39-.47-3.6-.34-2.41-.75-4.85-1.06-7.35v-.3c-.25-7.45-1.38-14.86-.58-22.59a108.75,108.75,0,0,0-.09-11.56l-.24-5.77-.07-1.4,0-.61-.1-.58a6.54,6.54,0,0,0-.82-2.18,9.28,9.28,0,0,0-3.73-3.17,24.77,24.77,0,0,0-5.11-1.83c-3.62-.94-7.41-1.38-11.24-2.36a18.6,18.6,0,0,1-2.87-1c-.91-.41-1.76-.84-2.62-1.25a55.85,55.85,0,0,0-5.17-2.26,13.11,13.11,0,0,0-5.22-1,2.93,2.93,0,0,0-2,.92,3.84,3.84,0,0,0-.8,2.25c-.09.88,0,1.87-.22,2.91a4.15,4.15,0,0,1-1.64,2.86,5,5,0,0,1-3.17.46,5.62,5.62,0,0,0-2.58.11c-1.62.59-2.62,2.27-3.71,3.85a9,9,0,0,1-2,2.2l-.59.46c-.2.14-.42.26-.64.39l-.65.37-.69.28a11.48,11.48,0,0,1-11.2-1.8,10.72,10.72,0,0,1-3.45-4.69,15.59,15.59,0,0,1-.82-5.73,49.35,49.35,0,0,0-.05-5.71A12.31,12.31,0,0,0,471,280.5a11.23,11.23,0,0,0-4.17-3.75,18,18,0,0,0-5.39-1.81,22.74,22.74,0,0,0-11.32.57,11.08,11.08,0,0,0-2.56,1.26c-.8.52-1.54,1.13-2.31,1.7a9.14,9.14,0,0,1-2.51,1.37A5.78,5.78,0,0,1,439.92,280Zm0,0a5.78,5.78,0,0,0,2.83-.19,9.26,9.26,0,0,0,2.5-1.38c.77-.57,1.5-1.18,2.3-1.71a10.79,10.79,0,0,1,2.57-1.27,23,23,0,0,1,11.35-.65,18.44,18.44,0,0,1,5.46,1.75,11.63,11.63,0,0,1,4.31,3.78,12.73,12.73,0,0,1,1.94,5.42,52.83,52.83,0,0,1,.15,5.75,15.12,15.12,0,0,0,.88,5.54,10.13,10.13,0,0,0,3.33,4.37A10.74,10.74,0,0,0,488,303l.63-.27.59-.35c.19-.13.39-.23.58-.36l.53-.44a8.24,8.24,0,0,0,1.8-2c.52-.78,1-1.61,1.66-2.39a6.1,6.1,0,0,1,2.44-1.91,6.59,6.59,0,0,1,3.07-.27,3.87,3.87,0,0,0,2.4-.33,2.9,2.9,0,0,0,1-2c.13-.86.06-1.79.12-2.81a5.23,5.23,0,0,1,1.05-3.08,4.38,4.38,0,0,1,3-1.55,14.52,14.52,0,0,1,6,.9c1.87.61,3.66,1.37,5.41,2.14.88.39,1.76.79,2.61,1.13a17.22,17.22,0,0,0,2.58.79c3.61.81,7.46,1.18,11.28,2a27.41,27.41,0,0,1,5.74,1.8,12,12,0,0,1,5,4,10.15,10.15,0,0,1,1.4,3.09l.18.82.12.82.16,1.46.66,5.66c.23,1.88.41,3.77.7,5.65s.82,3.76,1.32,5.64c2.38,7.47,2.57,15.32,2.32,23.18v-.3l.24,7.41c0,1.26,0,2.53,0,3.8l0,1.92-.06,1.86c0,1.09,0,2.4,0,3.67s0,2.58-.08,3.94a20.45,20.45,0,0,1-.23,2.12,11.78,11.78,0,0,1-.27,1.19l-.22.65c-.1.24-.23.5-.35.75a5,5,0,0,1-2.85,2.29,5.77,5.77,0,0,1-3.19,0,12.26,12.26,0,0,1-4.1-2.15,32.82,32.82,0,0,1-3-2.59c-.94-.88-1.84-1.78-2.7-2.62-.43-.42-.86-.84-1.25-1.18a4.11,4.11,0,0,0-.5-.39c-.2-.14-.41-.27-.61-.39a3.87,3.87,0,0,0-2.12-.62,2.36,2.36,0,0,0-.9.32,16.17,16.17,0,0,1-1.92.92,15.7,15.7,0,0,1-4.32.74c-1.25.09-2.54.17-3.86.18a26.38,26.38,0,0,1-4.1-.27,10.42,10.42,0,0,1-4.57-1.69,6,6,0,0,1-2-2.5,6.36,6.36,0,0,1-.42-3.06,9.65,9.65,0,0,1,.59-2.46c.14-.35.28-.72.44-1l.24-.5c.06-.14.25-.44.37-.64a7.54,7.54,0,0,1,2-2,16.33,16.33,0,0,1,1.9-1.08c.56-.29,1-.54,1.41-.78A5.32,5.32,0,0,0,517,349a7,7,0,0,0,1.64-4.9c0-3.88-2.71-7.39-6.23-10.44l-2.72-2.34c-.94-.8-1.8-1.64-2.67-2.33a12.75,12.75,0,0,0-2.61-1.74,6.21,6.21,0,0,0-2.85-.62c-1.09,0-2.34.31-3.82.3a12.9,12.9,0,0,1-4.24-1,72.11,72.11,0,0,1-6.87-3.41L480,319l-3.26-1.76a29.72,29.72,0,0,1-3.37-2,8.88,8.88,0,0,1-2.9-3.3c-.59-1.29-.91-2.35-1.42-2.72a1.37,1.37,0,0,0-.93-.3,3.19,3.19,0,0,0-1.3.37,7,7,0,0,0-1.33.89c-.41.33-.82.77-1.29,1.23a9.65,9.65,0,0,1-3.32,2.36,4.34,4.34,0,0,1-2.26.16,6.41,6.41,0,0,1-1.93-.84,13.63,13.63,0,0,1-5.08-5.71,14.35,14.35,0,0,1-1.43-3.54l-.06-.51a4.89,4.89,0,0,1,0-.54,1.44,1.44,0,0,1,.62-1,1.19,1.19,0,0,1,.52-.22,1.4,1.4,0,0,1,.53-.06,3,3,0,0,1,1,.11,12.32,12.32,0,0,0,1.75.46,2.75,2.75,0,0,0,1.64-.31,3.29,3.29,0,0,0,1.68-2.82,3.06,3.06,0,0,0-1.75-2.77,13.36,13.36,0,0,0-3.52-.88,8.14,8.14,0,0,1-6-4.19,8,8,0,0,1-.7-1.75,6.4,6.4,0,0,0-.51-1.74,2,2,0,0,0-1.48-.84,12.5,12.5,0,0,0-1.84,0,8.87,8.87,0,0,1-1.85-.19,18.25,18.25,0,0,1-1.81-.41,10.85,10.85,0,0,1-3.36-1.56,10,10,0,0,1-2.66-2.57,4.16,4.16,0,0,1-.69-1.72,1.42,1.42,0,0,1,0-.46,1.48,1.48,0,0,1,.06-.47.74.74,0,0,1,.78-.43C435.09,278.83,437.5,279.59,439.92,280Z"/><path d="M487.52,274.55a25.4,25.4,0,0,0-3.88-.68,6.35,6.35,0,0,0-1.9,0,1.18,1.18,0,0,0-1.07,1,1.51,1.51,0,0,0,.73,1.21,1.91,1.91,0,0,0,.7.31,4.44,4.44,0,0,0,.86.13,17.07,17.07,0,0,0,2.11.06,3.9,3.9,0,0,1,2.33.74c.58.47,1,.92,1.47,1.27a3.17,3.17,0,0,0,1.2.67,1.79,1.79,0,0,0,1.08,0,.62.62,0,0,0,.41-.61,1.8,1.8,0,0,0-.51-1.21,6,6,0,0,0-1.4-1.11c-1.11-.73-2.22-1.46-3.3-2.25,1.29.36,2.54.79,3.8,1.22a7.45,7.45,0,0,1,2,.95,3.52,3.52,0,0,1,1.4,2.15,2.71,2.71,0,0,1-1.12,2.79,4.06,4.06,0,0,1-2.74.6,5.53,5.53,0,0,1-2.38-.93c-.63-.4-1.17-.82-1.65-1.14a10.74,10.74,0,0,1-1.14-1.09,4.09,4.09,0,0,0-1.77-.65c-1.33-.23-3.19-1.43-2.85-3.28a1.78,1.78,0,0,1,.73-1,2.26,2.26,0,0,1,1.08-.35,6.46,6.46,0,0,1,2,.22C485,273.84,486.26,274.17,487.52,274.55Z"/><path d="M492.06,286.59c-.69.06-1.36.11-2,.14l-1,0a4,4,0,0,0-.9.09c-.27.07-.35.16-.39.29a1.43,1.43,0,0,0,0,.67,2.64,2.64,0,0,0,.63,1.4,3.42,3.42,0,0,0,3,.78c.61,0,1.37-.08,2-.08l2,0h.5a5.66,5.66,0,0,1,.6,0l1,.14a2,2,0,0,0,1.3-.15c.3-.16.34-.39.3-.51s-.68-.66-1.13-.92a6.33,6.33,0,0,0-1.67-.63,9.22,9.22,0,0,0-1.9-.18,5.83,5.83,0,0,1-3.84-1.44,6.53,6.53,0,0,0,3.82.45,9.34,9.34,0,0,1,2.1-.14,7.22,7.22,0,0,1,2.17.51c.17.07.35.16.52.25s.32.17.48.27a2.85,2.85,0,0,1,1,1,2.27,2.27,0,0,1-.79,3,2.9,2.9,0,0,1-1.34.51,5,5,0,0,1-1.23,0l-1-.11-.41,0h-2.5c-.68,0-1.26,0-2,0a7.58,7.58,0,0,1-2.25-.28,3.68,3.68,0,0,1-2-1.45,3.83,3.83,0,0,1-.71-2.32,2.46,2.46,0,0,1,.34-1.28,1.55,1.55,0,0,1,1.27-.7,5.15,5.15,0,0,1,1.09.11c.31.06.63.1,1,.18C490.74,286.29,491.4,286.44,492.06,286.59Z"/><path d="M479.34,280.93a2.17,2.17,0,0,0-1.14-.09c-.34.07-.52.3-.52.48,0,.39.48.75,1.14.81a3,3,0,0,0,1.9-.37,1.26,1.26,0,0,0,.21-.22s0-.17-.09-.3a4,4,0,0,0-.89-.77,2.55,2.55,0,0,1,1.28.33,1,1,0,0,1,.48.75,1.26,1.26,0,0,1-.32.85,3.15,3.15,0,0,1-2.7.91,2.59,2.59,0,0,1-1.42-.6,1.52,1.52,0,0,1-.47-1.66,1.28,1.28,0,0,1,1.39-.79A1.8,1.8,0,0,1,479.34,280.93Z"/><path d="M440.77,318.69c.6.56,1.21,1.1,1.76,1.72a7.62,7.62,0,0,1,1.29,2.11,8.53,8.53,0,0,0,1.19,2.11,12.5,12.5,0,0,0,1.75,1.66c.64.52,1.31,1,1.95,1.57a11.24,11.24,0,0,1,1.77,1.94l1.43,2a14.24,14.24,0,0,0,1.51,1.69,13.26,13.26,0,0,0,1.73,1.4,4.86,4.86,0,0,0,1.7.82,1.38,1.38,0,0,0,1.11-.25,6.51,6.51,0,0,0,1.3-1.38l1.46-2a4.8,4.8,0,0,0,.88-1.63,2.59,2.59,0,0,0,0-1.53,1,1,0,0,0-.78-.69,1.43,1.43,0,0,0-1.19.37,2.26,2.26,0,0,0-.42.73,4.32,4.32,0,0,1-6.61,2,10.66,10.66,0,0,1-3.64-3.87,26,26,0,0,1-2.12-4.59c-.58-1.55-1.09-3.11-1.73-4.61a15.77,15.77,0,0,0-2.41-4.18,3.23,3.23,0,0,0-2-1.21,1.59,1.59,0,0,0-1.65,1.35,3.76,3.76,0,0,0,.24,2.38A6.38,6.38,0,0,0,440.77,318.69Zm0,0a5.08,5.08,0,0,1-1.75-4.43,1.73,1.73,0,0,1,.21-.59,1.62,1.62,0,0,1,.38-.52,1.82,1.82,0,0,1,.54-.36c.21,0,.43-.14.64-.09a3.53,3.53,0,0,1,2.24,1.16,16.47,16.47,0,0,1,2.8,4.15c.76,1.49,1.39,3,2.08,4.51a25.57,25.57,0,0,0,2.32,4.21,9.16,9.16,0,0,0,3.26,3,3.27,3.27,0,0,0,1.85.33,2.21,2.21,0,0,0,1.44-.77,2.74,2.74,0,0,0,.36-.78,4.48,4.48,0,0,1,.74-1.44,3.85,3.85,0,0,1,3.23-1.35,3.35,3.35,0,0,1,1.8.65,3.62,3.62,0,0,1,1.22,1.44,5.36,5.36,0,0,1,.31,3.31,7.34,7.34,0,0,1-1.21,2.8c-.44.65-.87,1.34-1.41,2.07a8.31,8.31,0,0,1-2.15,2.11,4.67,4.67,0,0,1-1.74.66,4.45,4.45,0,0,1-1.87-.16,10,10,0,0,1-4.48-3.48,11.86,11.86,0,0,1-1.44-2.26c-.39-.78-.71-1.54-1.06-2.25a15.07,15.07,0,0,0-2.86-3.79,13.14,13.14,0,0,1-1.57-2,9.73,9.73,0,0,1-1-2.29,6.15,6.15,0,0,0-1.14-2.16A20.29,20.29,0,0,0,440.77,318.69Z"/><path d="M471.87,331.05a12.07,12.07,0,0,0-1.08,5.46c0,1.87.19,3.75.3,5.62a20.31,20.31,0,0,0,.35,2.74,3.72,3.72,0,0,0,.45,1.18c.24.28.29.23.64,0a7.2,7.2,0,0,0,1.49-2.15,11.14,11.14,0,0,1,1.77-2.39,11.65,11.65,0,0,0,1.67-2.26,10,10,0,0,0,.86-2.06,4.57,4.57,0,0,0,.22-1.94c0-.4-.08-.83-.14-1.3s-.1-.84-.18-1.27a10.9,10.9,0,0,0-.73-2.46,3.88,3.88,0,0,0-1.56-1.88,2.2,2.2,0,0,0-2.37.47A7.27,7.27,0,0,0,471.87,331.05Zm0,0a11.51,11.51,0,0,1,1.55-2.37,3.62,3.62,0,0,1,.54-.49,2.29,2.29,0,0,1,.64-.39,2.6,2.6,0,0,1,1.57-.2,5.43,5.43,0,0,1,2.67,1.7,10.4,10.4,0,0,1,1.75,2.58,11.17,11.17,0,0,1,.61,1.43,12.63,12.63,0,0,1,.44,1.46,7.26,7.26,0,0,1,.21,1.73,5.11,5.11,0,0,1-.36,1.88,5.61,5.61,0,0,1-2.26,2.58,25.84,25.84,0,0,0-2.41,1.63,10,10,0,0,0-1.82,1.92,13.76,13.76,0,0,1-.87,1.18,5.17,5.17,0,0,1-1.1,1.09,1.48,1.48,0,0,1-.94.28,1.16,1.16,0,0,1-.83-.59,4.12,4.12,0,0,1-.47-1.47,19.65,19.65,0,0,1-.22-2.85c0-1.88-.09-3.76,0-5.65A14,14,0,0,1,471.87,331.05Z"/><path d="M440.57,346.47c-.43,1-.41,2.07-.8,3.06a11.89,11.89,0,0,1-1.61,2.72,12.88,12.88,0,0,0-1.63,2.68c-.39,1-.58,2-.89,3a5,5,0,0,1-1.75,2.76,5.4,5.4,0,0,0-.56.48c-.15.16-.23.37-.19.39s0,0,.23.06.47,0,.72,0a9.59,9.59,0,0,0,2.9-.24,5.76,5.76,0,0,0,2.25-1.34c1.55-1.35,3.19-2.68,4.6-4.1a13,13,0,0,0,3.31-5,5.31,5.31,0,0,0,.17-2.9,4.55,4.55,0,0,0-1.54-2.51,3.85,3.85,0,0,0-2.83-1,2.76,2.76,0,0,0-1.42.59A3.77,3.77,0,0,0,440.57,346.47Zm0,0a3.86,3.86,0,0,1,.93-1.27,3.18,3.18,0,0,1,1.43-.66,4.34,4.34,0,0,1,3.07.79,5.1,5.1,0,0,1,2,2.62,6.42,6.42,0,0,1,.17,3.34,14.77,14.77,0,0,1-2.93,5.92,33.67,33.67,0,0,1-4.59,4.58,8.73,8.73,0,0,1-1.49,1,5.34,5.34,0,0,1-1.82.52,9.54,9.54,0,0,1-3.4-.43c-.27-.07-.49-.12-.83-.24a1.09,1.09,0,0,1-.8-1,1.25,1.25,0,0,1,.56-.95,4.86,4.86,0,0,1,.7-.48,4.24,4.24,0,0,0,1.75-2.36C436,353.52,440.34,350.92,440.57,346.47Z"/><path d="M426.78,356.76a12.23,12.23,0,0,0-2.95-.88,1,1,0,0,0-.72.21,1,1,0,0,0-.36.36s0,0,0-.07-.05,0-.06,0,.21.3.47.43a3.41,3.41,0,0,0,1.28.18c.27,0,.58,0,.84,0a.71.71,0,0,0,.32,0c.1,0,.23-.05.2-.22.19,0,.23.34.15.5a1.17,1.17,0,0,1-.31.49c-.25.24-.45.41-.7.62a3.65,3.65,0,0,1-1.91.78,3.09,3.09,0,0,1-2.46-.88,2.77,2.77,0,0,1-.75-1.46,2.85,2.85,0,0,1,.24-1.67,3.48,3.48,0,0,1,3.38-1.86,3.29,3.29,0,0,1,1.17.37A4.49,4.49,0,0,1,426.78,356.76Z"/><path d="M409.73,358.56c-1.67,0-3.25-.11-4.93-.1a16.43,16.43,0,0,0-2.35-.12,1.57,1.57,0,0,0-.77.2c-.06,0-.05.08-.08.15a.64.64,0,0,0,0,.28c.08.4.71.8,1.42,1a7.58,7.58,0,0,0,2.19.55,6.39,6.39,0,0,0,4.29-1.56,6.48,6.48,0,0,1-1.78,1.8,5,5,0,0,1-2.51.81,7.32,7.32,0,0,1-2.61-.39,4.83,4.83,0,0,1-1.27-.59,2.42,2.42,0,0,1-1-1.29,2.14,2.14,0,0,1,0-.94,1.58,1.58,0,0,1,.55-.88,2.5,2.5,0,0,1,1.55-.47,12,12,0,0,1,2.53.35A20.8,20.8,0,0,1,409.73,358.56Z"/><path d="M391.48,352.91a5.37,5.37,0,0,1-2.26-.06,2.32,2.32,0,0,0-.93,0,1.24,1.24,0,0,0-.62.5,4.11,4.11,0,0,1-2.12,1.46c-.85.25-1.61.26-2.22.43a2.1,2.1,0,0,0-1.29.79,2.22,2.22,0,0,0-.49,1.38,1.17,1.17,0,0,0,.44,1,1.62,1.62,0,0,0,1.25.17l2.18-.32,2.18-.3c.7-.09,1.56-.18,2.26-.21a5.35,5.35,0,0,0,1.77-.34c1-.42,1.49-1.62,1.59-3.07a9.49,9.49,0,0,0,.08-1c0-.15-.05-.31,0-.27a.63.63,0,0,0-.31-.16c-.65-.17-1.43-.18-2.17-.3a11.6,11.6,0,0,1,2.26-.35,1.23,1.23,0,0,1,.74.2,1.25,1.25,0,0,1,.4.73,7.64,7.64,0,0,1,.18,1.19,6.71,6.71,0,0,1-.17,2.45,3.93,3.93,0,0,1-1.65,2.21,5.92,5.92,0,0,1-2.48.81c-.78.1-1.39.21-2.15.37l-4.42.75a5,5,0,0,1-1.44,0,3.35,3.35,0,0,1-2.78-3.62,4.42,4.42,0,0,1,1.17-2.64,3.86,3.86,0,0,1,1.2-.9,4.75,4.75,0,0,1,1.34-.35c.85-.1,1.59,0,2.2-.12a2.82,2.82,0,0,0,1.63-.76,2.29,2.29,0,0,1,1.28-.58,2.54,2.54,0,0,1,1.26.22A6.82,6.82,0,0,0,391.48,352.91Z"/><path d="M354.53,381a6.35,6.35,0,0,1-.67,2,9,9,0,0,1-1.44,1.51,13.56,13.56,0,0,0-2.76,3.06,3.28,3.28,0,0,0-.53,1.8,1.52,1.52,0,0,0,.8,1.29c.84.34,2.14-.48,3.14-1.23a27.11,27.11,0,0,0,2.94-2.77c1-1,1.95-2,2.95-3l1.49-1.5.75-.74.18-.19.27-.23a4.76,4.76,0,0,1,.61-.44,6.28,6.28,0,0,1,3-1c.91-.07,1.57,0,2.18-.08h-.19a6.27,6.27,0,0,0,3.19-2.07,12.16,12.16,0,0,0,2.4-3.89c1.05-3,.7-5-2.84-5.58a9.1,9.1,0,0,0-4.91.7,16.37,16.37,0,0,0-4.56,3A19.85,19.85,0,0,0,354.53,381Zm0,0a28.28,28.28,0,0,1,5.3-10,20.46,20.46,0,0,1,4.3-4,11.62,11.62,0,0,1,5.95-2.11c.55,0,1.12,0,1.69.06a8.07,8.07,0,0,1,1.74.4,6.29,6.29,0,0,1,3.18,2.43,7.44,7.44,0,0,1,1.16,3.78,11.52,11.52,0,0,1-.47,3.52,14.72,14.72,0,0,1-3.31,5.81,12.46,12.46,0,0,1-2.73,2.21,8.63,8.63,0,0,1-3.74,1.18h-.19l-2-.13a2,2,0,0,0-1,.12,10.68,10.68,0,0,0-1.48,1l-1.7,1.2c-1.14.8-2.3,1.57-3.45,2.36a31.51,31.51,0,0,1-3.72,2.28,13.81,13.81,0,0,1-2.12.8,3.16,3.16,0,0,1-2.55-.21,2.46,2.46,0,0,1-1-2.26,3.86,3.86,0,0,1,.89-2.07,16.75,16.75,0,0,1,3.07-2.89,7.32,7.32,0,0,0,1.5-1.44A6.32,6.32,0,0,0,354.53,381Z"/><path d="M347.54,358.35a9,9,0,0,0-3.75.89c-1.12.64-2,1.7-3.34,2a10.34,10.34,0,0,1-3.92.06l-3.88-.44c-2.58-.28-5.21-.54-7.75-.75a15.6,15.6,0,0,0-3.7.16,4.91,4.91,0,0,0-2.85,1.32,2.72,2.72,0,0,0-.69,2.43,2.62,2.62,0,0,0,1.4,1.91c1.41.79,4,.36,6.65.22s5.2-.3,7.8-.41c1.27,0,2.63-.11,3.92-.13a35.18,35.18,0,0,0,3.65-.19,12.56,12.56,0,0,0,3.17-.7c.92-.32,2-1,3.39-1.6a10.17,10.17,0,0,1,2.41-.74,8,8,0,0,1,1.38-.11c.4,0,.75,0,1.11.05,1.43.1,2.71.33,3.9.44a13.09,13.09,0,0,0,3.37,0,33.2,33.2,0,0,0,3.62-.8c.62-.16,1.28-.34,2-.47a17.58,17.58,0,0,1,2.11-.22c1.36-.07,2.64-.06,3.82-.19a10,10,0,0,0,1.68-.33c.22-.06.44-.19.42-.15s0,0-.06.15a.81.81,0,0,0,0,.27c0,.08.08.14.05.13s0,0,0,0a5.65,5.65,0,0,0-1.34-.9,16.38,16.38,0,0,0-1.68-.83,24.61,24.61,0,0,0-7.4-1.8C357.92,357.12,352.72,358,347.54,358.35Zm0,0c5.19-.4,10.3-1.47,15.57-1.44A26.83,26.83,0,0,1,371,358c.65.2,1.29.41,1.92.67a6.85,6.85,0,0,1,2,1.07,1.61,1.61,0,0,1,.31.36,1.45,1.45,0,0,1,.24.57,1.38,1.38,0,0,1,0,.75,1.56,1.56,0,0,1-.3.56,3.32,3.32,0,0,1-1.2.88,12.49,12.49,0,0,1-2.08.71c-1.38.34-2.71.49-3.93.72a17.07,17.07,0,0,0-1.74.41c-.51.16-1.08.4-1.7.62a38.45,38.45,0,0,1-3.89,1.32,15.59,15.59,0,0,1-4.39.5c-1.41,0-2.71-.13-3.88-.15-.29,0-.59,0-.84,0a2.7,2.7,0,0,0-.56.08,6.34,6.34,0,0,0-1.28.49c-1,.44-2.09,1.24-3.62,1.82a17.81,17.81,0,0,1-4.4,1.05,39.78,39.78,0,0,1-4.15.17H333.6q-3.9,0-7.8-.1c-1.32,0-2.56-.05-4-.16a9.27,9.27,0,0,1-4.6-1.44,5.66,5.66,0,0,1-1.81-2,6.29,6.29,0,0,1-.69-2.52,5.65,5.65,0,0,1,.46-2.56,5.48,5.48,0,0,1,1.54-2,6,6,0,0,1,2.13-1.1,8.82,8.82,0,0,1,2.17-.34,19,19,0,0,1,4.09.32c2.61.49,5.11,1.07,7.68,1.57l3.83.73a9.53,9.53,0,0,0,3.83.15c1.27-.27,2.22-1.26,3.35-1.9A9,9,0,0,1,347.54,358.35Z"/><path d="M339.94,383.7a3,3,0,0,0-3.63,2.15.69.69,0,0,0,.42.84,1.45,1.45,0,0,0,.61.16,5.06,5.06,0,0,0,.78,0,3.38,3.38,0,0,0,1.45-.41,1.81,1.81,0,0,0,.85-1.13,1.55,1.55,0,0,0-.33-1.51,1.64,1.64,0,0,1,.87,1.58,2.32,2.32,0,0,1-.9,1.77,3.88,3.88,0,0,1-1.81.74,5.15,5.15,0,0,1-1,.05,2.57,2.57,0,0,1-1.06-.25,1.84,1.84,0,0,1-.85-.87,1.8,1.8,0,0,1-.09-1.2,3.45,3.45,0,0,1,1.13-1.65A2.85,2.85,0,0,1,339.94,383.7Z"/><path d="M318.86,372.51c-2.23-.09-4.48-.16-6.72-.11a9.3,9.3,0,0,0-3.2.5,2.59,2.59,0,0,0-1.13.78,1.34,1.34,0,0,0-.26,1,1.32,1.32,0,0,0,.5.85,1.76,1.76,0,0,0,1,.26,23.57,23.57,0,0,1,3.54,0,7.33,7.33,0,0,1,2.2.7,9.81,9.81,0,0,1,1.79,1.21,31.32,31.32,0,0,1,2.26,2.17,14.32,14.32,0,0,0,4.4,3.17,2.49,2.49,0,0,0,1.84.11,2.07,2.07,0,0,0,.81-.68,3.1,3.1,0,0,0,.31-.52,1.58,1.58,0,0,0,.22-.57,4.62,4.62,0,0,0-.28-2.8,9.47,9.47,0,0,0-1.67-2.73A8.78,8.78,0,0,0,318.86,372.51Zm0,0a8.74,8.74,0,0,1,3.21,1,16.19,16.19,0,0,1,2.87,1.86,11.43,11.43,0,0,1,2.4,2.59,6.91,6.91,0,0,1,1.26,3.64,5.53,5.53,0,0,1-1.6,4.07,5,5,0,0,1-2.2,1.2,6.48,6.48,0,0,1-2.34.16,10.9,10.9,0,0,1-3.93-1.28,16.84,16.84,0,0,1-3.17-2.21,10.14,10.14,0,0,1-2.16-2.9,3.92,3.92,0,0,0-1.46-1.83c-.65-.43-1.76-.33-3.14-.67a3.81,3.81,0,0,1-2-1.19,3.18,3.18,0,0,1-.71-2.2,2.9,2.9,0,0,1,1-2,3.8,3.8,0,0,1,1.8-.8,11.92,11.92,0,0,1,3.48,0C314.39,372.24,316.63,372.38,318.86,372.51Z"/><path d="M308.33,359.8a14.08,14.08,0,0,0-5.58-.87c-1.89-.05-3.79-.08-5.69-.08-.95,0-1.9,0-2.86,0a16,16,0,0,0-2.73.16,3.8,3.8,0,0,0-1.12.39,2.37,2.37,0,0,0-.78.71,6.41,6.41,0,0,0-.66,1,5.91,5.91,0,0,1-1,1.44,2.58,2.58,0,0,1-1.23.67,3.24,3.24,0,0,1-.68.06,5.42,5.42,0,0,1-.58-.06,5.28,5.28,0,0,1-.92-.27,5.43,5.43,0,0,1-.85-.39,24.59,24.59,0,0,1-2.43-1.79,1.25,1.25,0,0,0-.63-.24,1.84,1.84,0,0,0-.63.09,4.14,4.14,0,0,0-1.62.9,13.79,13.79,0,0,0-1.61,1.73,15.46,15.46,0,0,0-1.43,2c-.33.58-.28.85-.25.87l.07.09a1.14,1.14,0,0,0,.38.23,1.86,1.86,0,0,0,.57.16,1.53,1.53,0,0,0,.62-.05,16,16,0,0,0,2.28-.84,7.92,7.92,0,0,1,3.95-.68,5.39,5.39,0,0,1,1.21.32l.29.12.19.09.34.18c.47.25.92.51,1.34.76.87.52,1.63,1.06,2.21,1.34a2.92,2.92,0,0,0,1.79.33,20.93,20.93,0,0,0,5-1.51A29,29,0,0,1,301,364.9a12.15,12.15,0,0,1,3-.15,13.79,13.79,0,0,1,2.87.62,10.07,10.07,0,0,0,2.73.49,1.85,1.85,0,0,0,1.22-.4,1.75,1.75,0,0,0,.52-1.19,4.13,4.13,0,0,0-.89-2.61A6.28,6.28,0,0,0,308.33,359.8Zm0,0a6.34,6.34,0,0,1,2.15,1.84,4.42,4.42,0,0,1,1,2.63,1.88,1.88,0,0,1-1.89,2,11.64,11.64,0,0,1-2.9-.21,10,10,0,0,0-5.37.33,25.85,25.85,0,0,0-4.87,2.56c-.81.5-1.65,1-2.53,1.49a13.38,13.38,0,0,1-3,1.23,6.84,6.84,0,0,1-3.8-.08,23.53,23.53,0,0,1-2.88-1.22c-.41-.18-.81-.36-1.21-.51l-.29-.11-.14-.06h-.05a1,1,0,0,0-.17,0,5.37,5.37,0,0,0-1.54.54,16,16,0,0,1-3,1.21,6.68,6.68,0,0,1-4.37-.36,6.14,6.14,0,0,1-1.95-1.37,5.21,5.21,0,0,1-1.29-2.38,5.13,5.13,0,0,1,.08-2.59,7,7,0,0,1,.89-1.94,17,17,0,0,1,2.1-2.5,14.57,14.57,0,0,1,2.53-2.16,7.59,7.59,0,0,1,3.57-1.27,5.22,5.22,0,0,1,2.18.21,5,5,0,0,1,1.86,1.11c.88.87,1.31,1.55,1.83,2a4.1,4.1,0,0,0,.4.29,4.39,4.39,0,0,0,.41.22l.12.05a0,0,0,0,1,0,0s0,.07,0,.05a4,4,0,0,0,.75-.82,9.35,9.35,0,0,1,1.1-1.19,4.3,4.3,0,0,1,1.53-.91,5.38,5.38,0,0,1,1.64-.28,17.34,17.34,0,0,1,2.95.25c.94.12,1.88.26,2.83.36q2.82.33,5.66.59A16,16,0,0,1,308.33,359.8Z"/><path d="M178.43,335.26c5,.87,10.2,1.78,14.85,4.31a26.77,26.77,0,0,1,3.28,2.13,7.32,7.32,0,0,0,1.53.85,5.19,5.19,0,0,0,1.65.29c1.17,0,2.51-.1,3.77-.16s2.53-.18,3.75-.37c.61-.09,1.22-.2,1.81-.34a10.83,10.83,0,0,0,1.66-.52c1-.42,2-1.24,3.28-1.9a6.18,6.18,0,0,1,2.24-.68,9,9,0,0,1,2.23.11,29.35,29.35,0,0,1,3.88,1.08c2.46.78,4.88,1.55,7.36,2.38,1.23.43,2.48.9,3.71,1.46a29.06,29.06,0,0,1,3.56,2c2.24,1.42,4.26,3,6.38,4a26.13,26.13,0,0,0,6.84,2.3c1.21.24,2.44.43,3.69.6l.93.13c.35.05.76.11,1.12.2a13.41,13.41,0,0,1,2.09.65c2.62,1.05,4.71,2.35,6.7,2.48a4.63,4.63,0,0,0,.74,0l1,0a8.76,8.76,0,0,1,2.4.3,5.44,5.44,0,0,1,2.54,1.5,4.75,4.75,0,0,1,1.22,2.92,5.83,5.83,0,0,1-.51,2.78,7,7,0,0,1-1.5,2.15,12,12,0,0,1-3.81,2.6,6,6,0,0,1-2.83.46,5.58,5.58,0,0,1-.88-.2,4.47,4.47,0,0,1-.82-.39,5.39,5.39,0,0,1-1.14-.92,14.43,14.43,0,0,1-1.35-1.75,4.14,4.14,0,0,0-.84-.94.62.62,0,0,0-.23-.12l-.14,0s0,0,0,0a.82.82,0,0,0,.25-.12,2.41,2.41,0,0,0-.27.4,9.51,9.51,0,0,1-.64,1,4.27,4.27,0,0,1-1.41,1.2,5.53,5.53,0,0,1-3,.52,19.57,19.57,0,0,1-4.08-1.21,12.79,12.79,0,0,0-3.29-.54c-2.33-.13-4.86.18-7.57.22a30.23,30.23,0,0,1-8.11-1.07c-2.57-.65-5-1.42-7.4-2a32.57,32.57,0,0,0-3.56-.65,20.81,20.81,0,0,0-3.54-.06,21.41,21.41,0,0,1-4.22,0,8.27,8.27,0,0,1-2.34-.71,9.42,9.42,0,0,1-2-1.31,21,21,0,0,0-2.78-2.29,9.13,9.13,0,0,0-3-1.18,21.61,21.61,0,0,0-7.13,0l-3.84.49a21,21,0,0,1-4.14.1,23.07,23.07,0,0,1-7.79-2.33,61,61,0,0,0-6.93-3c-.57-.19-1.18-.35-1.88-.61a5.43,5.43,0,0,1-2-1.25,11.94,11.94,0,0,0-1.23-1.24,3.45,3.45,0,0,0-1.39-.52,12.39,12.39,0,0,1-4-.95,4,4,0,0,1-1.63-1.75,5.05,5.05,0,0,1-.53-2.2,8,8,0,0,1,1.19-4,10,10,0,0,1,2.56-3.17,7.34,7.34,0,0,1,3.85-1.35,16,16,0,0,1,3.92.22A28.32,28.32,0,0,0,178.43,335.26Zm0,0a28.75,28.75,0,0,1-7.7.53,15.73,15.73,0,0,0-3.76,0,6.34,6.34,0,0,0-3.25,1.37,9,9,0,0,0-2.07,2.92,6.66,6.66,0,0,0-.83,3.33,2.92,2.92,0,0,0,1.45,2.47,11.74,11.74,0,0,0,3.49.55,5.38,5.38,0,0,1,2.21.75,11.19,11.19,0,0,1,1.57,1.41c.65.66,1.72.81,3.07,1.21a62.82,62.82,0,0,1,7.32,2.82,21,21,0,0,0,6.95,1.85,17.86,17.86,0,0,0,3.54-.2l3.79-.6a24.57,24.57,0,0,1,8.2-.24,12.52,12.52,0,0,1,4.15,1.55,11.54,11.54,0,0,1,1.79,1.29c.53.45,1,.88,1.43,1.23a4.68,4.68,0,0,0,2.58,1.18,17.82,17.82,0,0,0,3.47-.06,26.13,26.13,0,0,1,4.15,0,34.91,34.91,0,0,1,4,.66c5.22,1.18,9.89,3,14.61,2.85,2.43,0,5-.38,7.82-.26a16.62,16.62,0,0,1,4.29.69c.74.23,1.34.48,1.88.67a6.34,6.34,0,0,0,1.39.36,1.45,1.45,0,0,0,.8-.11s-.06.06,0-.05a6.79,6.79,0,0,0,.39-.63,6.47,6.47,0,0,1,.86-1.15,3.49,3.49,0,0,1,1.92-1,4.21,4.21,0,0,1,1,0,7.67,7.67,0,0,1,.81.15,4.71,4.71,0,0,1,1.49.73,7.73,7.73,0,0,1,1.76,1.87,11.7,11.7,0,0,0,1,1.32,1.88,1.88,0,0,0,.35.29c.06.05,0,0,0,0h.06a2.23,2.23,0,0,0,.93-.2,8.07,8.07,0,0,0,2.51-1.71,2.87,2.87,0,0,0,.71-1,2.14,2.14,0,0,0,.2-1,.87.87,0,0,0-.21-.57,1.64,1.64,0,0,0-.75-.41,5.69,5.69,0,0,0-1.41-.18h-.9a9.14,9.14,0,0,1-1.18-.06,13.65,13.65,0,0,1-4.24-1.26c-1.25-.57-2.36-1.17-3.43-1.6a11.61,11.61,0,0,0-1.57-.53c-.26-.07-.5-.1-.78-.15l-1-.15c-1.29-.2-2.59-.42-3.9-.71a28.84,28.84,0,0,1-7.66-2.76,74.81,74.81,0,0,1-6.53-4.37,29,29,0,0,0-6.55-3.3l-7.22-2.63c-2.42-.87-4.71-1.85-6.53-.91-1,.44-2.07,1.26-3.45,1.81a12.73,12.73,0,0,1-2,.55,19.62,19.62,0,0,1-2,.28c-1.32.13-2.63.17-3.93.18s-2.53.05-3.93-.05a6.69,6.69,0,0,1-2.1-.5,8.05,8.05,0,0,1-1.77-1.11,31.31,31.31,0,0,0-3-2.25C188.45,337.84,183.39,336.53,178.43,335.26Z"/><path d="M241.69,343.68a2.92,2.92,0,0,0-1.76.47,1.34,1.34,0,0,0-.26,1.66,2.07,2.07,0,0,0,1.36,1.07,5.92,5.92,0,0,0,1.78.23c.6,0,1.22-.09,1.86-.12s1.27-.05,1.89-.05a17.64,17.64,0,0,0,3.6-.27,5.33,5.33,0,0,0,1.58-.51.6.6,0,0,0,.26-.93,4,4,0,0,0-2.87-1.56,18.93,18.93,0,0,0-3.7-.21C244.19,343.52,242.94,343.66,241.69,343.68Zm0,0c2.5-.07,4.95-.73,7.51-.57a7,7,0,0,1,1.93.38,3.3,3.3,0,0,1,1.7,1.26,1.6,1.6,0,0,1-.51,2.31,6.36,6.36,0,0,1-1.93.7,14.36,14.36,0,0,1-3.86.13l-1.86-.14c-.6-.05-1.24,0-1.88-.09a6.23,6.23,0,0,1-1.89-.46,2.45,2.45,0,0,1-1.37-1.33,1.46,1.46,0,0,1,.37-1.75A3,3,0,0,1,241.69,343.68Z"/><path d="M358.28,315.26a1,1,0,0,0-.79-.95,2,2,0,0,0-1.18.11.72.72,0,0,0-.42.63,2.14,2.14,0,0,0,.23,1,1.87,1.87,0,0,0,.71.77,1.94,1.94,0,0,0,1,.31c.4.25.48-1.34.82-2.26a13,13,0,0,1,.39,1.55,2.2,2.2,0,0,1,0,1,1.33,1.33,0,0,1-.84.92,2.63,2.63,0,0,1-2-.15,3.12,3.12,0,0,1-1.44-1.41,3.19,3.19,0,0,1-.28-2,2,2,0,0,1,1.56-1.55,2.5,2.5,0,0,1,1.87.39,1.56,1.56,0,0,1,.55.78A.9.9,0,0,1,358.28,315.26Z"/><path d="M346,326.64c-.3,1.88.25,3.71.4,5.59a14.94,14.94,0,0,0,.24,2.74,2.83,2.83,0,0,0,1.41,1.91,3.28,3.28,0,0,0,2.22.41,3.11,3.11,0,0,0,1.81-1.06,2.65,2.65,0,0,0,.53-.87c.12-.28.16-.66.32-1.22a3.87,3.87,0,0,1,.37-.91,2.94,2.94,0,0,1,.75-.85,6.63,6.63,0,0,1,1.47-.82,4.24,4.24,0,0,0,.9-.48c.11-.14.14-.1.16-.34a.92.92,0,0,0-.16-.63c-.15-.24-.53-.58-.9-1.09a2.63,2.63,0,0,1-.45-.92,3.49,3.49,0,0,1-.14-.92,8,8,0,0,1,.1-1.53,3.09,3.09,0,0,0-.2-2.18c-.24-.47-1.31-.37-2.26-.42a12.68,12.68,0,0,0-2.76.07,5.4,5.4,0,0,0-2.48,1.13A4,4,0,0,0,346,326.64Zm0,0a4.32,4.32,0,0,1,1.27-2.45,5.92,5.92,0,0,1,2.46-1.4,15.38,15.38,0,0,1,2.82-.47c.47,0,.89-.14,1.41-.19a2.18,2.18,0,0,1,1.73.47,3,3,0,0,1,.87,1.57,7.27,7.27,0,0,1,.17,1.55,3,3,0,0,0,.45,2c.2.24.56.49,1,1a3.1,3.1,0,0,1,.76,2,2.78,2.78,0,0,1-.89,2.16,5.74,5.74,0,0,1-1.53.91,5,5,0,0,0-1,.5c-.17.12-.23.19-.37.56a9.3,9.3,0,0,1-.53,1.45,4.88,4.88,0,0,1-4.23,2.7,4.78,4.78,0,0,1-3.06-1.13,3.91,3.91,0,0,1-1-1.26,4.52,4.52,0,0,1-.4-1.5,18.77,18.77,0,0,1,.14-2.85C346.11,330.39,345.7,328.5,346,326.64Z"/><path d="M368.33,334.26a18.74,18.74,0,0,0-2.88-1.92c-.51-.27-1-.49-1.55-.74a13.92,13.92,0,0,0-1.5-.65l-.24-.05h0a.22.22,0,0,0,.14,0s0,0,.06,0,.06-.09.1.09a1.51,1.51,0,0,0,.17.49,2.84,2.84,0,0,0,.4.43,15.23,15.23,0,0,1,1.33,1.24,8,8,0,0,1,1.1,1.64c.29.57.51,1.13.73,1.67.1.25.24.59.33.87l.27.77a1.78,1.78,0,0,0,.58.93.66.66,0,0,0,.77,0,2.21,2.21,0,0,0,.8-1,3.08,3.08,0,0,0,.24-1.46,6.53,6.53,0,0,0-.87-3.23,5.64,5.64,0,0,1,1.85,3.1,4.29,4.29,0,0,1,0,2,3.59,3.59,0,0,1-1.09,1.86,2.4,2.4,0,0,1-1.18.55,2.36,2.36,0,0,1-1.33-.21,3.35,3.35,0,0,1-1.54-1.76,8.2,8.2,0,0,1-.35-.86c-.1-.27-.18-.47-.31-.76-.23-.54-.46-1.05-.7-1.52a6.81,6.81,0,0,0-.81-1.28c-.28-.36-.71-.67-1.19-1.18a3.61,3.61,0,0,1-.67-.94,2.94,2.94,0,0,1-.3-1.17,2.07,2.07,0,0,1,.07-.72,1.47,1.47,0,0,1,.52-.8,1.4,1.4,0,0,1,.45-.24,1.27,1.27,0,0,1,.34,0l.24,0a2.23,2.23,0,0,1,.6.19,9.84,9.84,0,0,1,1.59,1,15.4,15.4,0,0,1,1.45,1.07A10.79,10.79,0,0,1,368.33,334.26Z"/><path d="M339.14,328.24a11,11,0,0,0,.13,2.45,1,1,0,0,0,.39.64.88.88,0,0,0,.58.1,1.14,1.14,0,0,0,.6-.37,1.8,1.8,0,0,0,.37-.76,1.08,1.08,0,0,0-.17-.83,1.55,1.55,0,0,0-1-.55,1.54,1.54,0,0,1,1.45-.06,1.81,1.81,0,0,1,.92,1.4,2.48,2.48,0,0,1-.38,1.65,2.32,2.32,0,0,1-1.49,1,2.13,2.13,0,0,1-1.83-.49,2.06,2.06,0,0,1-.63-1.64A4.07,4.07,0,0,1,339.14,328.24Z"/><path d="M329.81,345.8a1.69,1.69,0,0,0-1.41-1.38c-.63-.08-1.38,0-1.58.28a2.39,2.39,0,0,0-.43,1.38,9.15,9.15,0,0,0,.14,2,3.69,3.69,0,0,0,1.63,2.75,1.85,1.85,0,0,0,.29.13.61.61,0,0,0,.18.05,1.2,1.2,0,0,0,.51-.08,1.77,1.77,0,0,0,.39-.22s.06.05.1,0l.71.68a10.84,10.84,0,0,1-1.66-.93,4.32,4.32,0,0,1-1.4-1.62,3.25,3.25,0,0,1-.29-1.06,1.71,1.71,0,0,1,.32-1.18c.62-.67,1.22-.5,1.74-.8-.29.52-1,.88-1,1.23a.77.77,0,0,0,.11.49,2.51,2.51,0,0,0,.39.5,2.63,2.63,0,0,0,1.12.66,12.78,12.78,0,0,0,1.48.42l.41.11.3.57a2.57,2.57,0,0,1-.08,2.28,3.52,3.52,0,0,1-1.38,1.36,3.8,3.8,0,0,1-1.78.5,3.38,3.38,0,0,1-1-.12,3.74,3.74,0,0,1-.81-.3,5.94,5.94,0,0,1-3.11-5.1,9.35,9.35,0,0,1,.23-2.76,5.4,5.4,0,0,1,.6-1.42,3,3,0,0,1,1.31-1.19,2.78,2.78,0,0,1,1.68-.18,2.6,2.6,0,0,1,.7.22,3.07,3.07,0,0,1,.65.33A2,2,0,0,1,329.81,345.8Z"/><path d="M338.16,349.72A1.41,1.41,0,0,0,339,351c.05,0,.16.06.12-.05s0-.07.09-.07a3.23,3.23,0,0,0,.36.06l-.18,0a1,1,0,0,0-.59.51.8.8,0,0,0,0,.59c.08.14.15.11.18.07a1.1,1.1,0,0,0-.15-.63,2.31,2.31,0,0,0-.53-.85,1.49,1.49,0,0,1,1.16-.48,2.1,2.1,0,0,1,1.29.4,1.83,1.83,0,0,1,.61.83,1.86,1.86,0,0,1-.09,1.44,1.79,1.79,0,0,1-.54.66,2,2,0,0,1-.73.35,2.49,2.49,0,0,1-1,0,3,3,0,0,1-1.27-.61,3,3,0,0,1-.6-.62,2,2,0,0,1-.31-.82A1.74,1.74,0,0,1,338.16,349.72Z"/><path d="M183.39,304.39a.84.84,0,0,0-.41.93,1.16,1.16,0,0,0,.48.82,2,2,0,0,0,1.86-.05c.64-.25,1.3-.71,2.18-1A3.39,3.39,0,0,1,189,305a3.38,3.38,0,0,0,1,.07.82.82,0,0,0,.46-.31,4.86,4.86,0,0,0,.55-.76c.18-.31.4-.69.62-1s.41-.65.58-1c.35-.6.53-1.16.42-1.35a.67.67,0,0,0-.28-.36,4.54,4.54,0,0,0-.82-.44l-4.21-2.07-.52-.27-.45-.22a3.56,3.56,0,0,0-.85-.24.74.74,0,0,0-.47,0c-.07,0-.16.09-.23.39s-.11.72-.16,1.09l-.16,1.17-.35,2.32c-.27,1.55-.53,3.1-.89,4.64-.14-1.58-.17-3.15-.21-4.72l0-2.35v-1.17c0-.41,0-.75,0-1.25a2.35,2.35,0,0,1,.83-1.62,2.6,2.6,0,0,1,1.75-.51,5.57,5.57,0,0,1,1.43.29l.63.25.54.23,4.25,2a7.11,7.11,0,0,1,1.22.71,2.92,2.92,0,0,1,1,1.53,3,3,0,0,1-.09,1.78,5.37,5.37,0,0,1-.63,1.27c-.24.36-.49.69-.71,1s-.43.59-.67.94a5.62,5.62,0,0,1-.9,1.07,2.69,2.69,0,0,1-1.62.68,5.29,5.29,0,0,1-1.35-.22,2.24,2.24,0,0,0-.86,0c-.65.09-1.36.43-2.22.62a2.77,2.77,0,0,1-2.6-.54,1.7,1.7,0,0,1-.39-1.29A1,1,0,0,1,183.39,304.39Z"/><path d="M175.91,297.65c.23-.56.55-1.08.75-1.64a1.38,1.38,0,0,0-.27-1.6c-.94-.72-2.27,0-3.55-.67a6,6,0,0,1-2.6-2.93,28.45,28.45,0,0,0-1.5-3.19,3.15,3.15,0,0,0-2-1.44,4.48,4.48,0,0,0-2.44.1,7.07,7.07,0,0,0-2.24,1.28,11.87,11.87,0,0,0-1,1c-.16.17-.34.36-.48.53a2.32,2.32,0,0,0-.23.31.61.61,0,0,0,0-.23.87.87,0,0,0-.12-.47c-.07-.12-.13-.14-.11-.11a.75.75,0,0,0,.21.15,2.8,2.8,0,0,0,.88.24c.5,0,1.13,0,1.87.1a6.43,6.43,0,0,1,2.55.69,4.26,4.26,0,0,1,1.23,1,4.8,4.8,0,0,1,.74,1.12,23.14,23.14,0,0,1,1.2,3.69,16.65,16.65,0,0,0,1.15,3.25,6.53,6.53,0,0,0,2.28,2.43,3.36,3.36,0,0,0,1.57.57,1.67,1.67,0,0,0,1.47-.65C175.89,300.12,175.43,298.77,175.91,297.65Zm0,0a4.87,4.87,0,0,0-.22,1.78,3.65,3.65,0,0,1-.3,1.8,2.06,2.06,0,0,1-1.61.94,4.47,4.47,0,0,1-1.89-.34,8.82,8.82,0,0,1-3.2-2.18,18.8,18.8,0,0,1-2.22-3.13,23.13,23.13,0,0,0-1.89-2.83c-.32-.35-.45-.32-.62-.34a5.25,5.25,0,0,0-1,0c-.47,0-1,.14-1.74.19a6.57,6.57,0,0,1-2.67-.35,6.13,6.13,0,0,1-1.37-.7,4.28,4.28,0,0,1-1.32-1.43,4.16,4.16,0,0,1-.53-2.21,4.44,4.44,0,0,1,.57-1.94,6.48,6.48,0,0,1,.84-1.14c.25-.29.49-.53.75-.79a12.77,12.77,0,0,1,1.71-1.36,9.66,9.66,0,0,1,4.3-1.62,7.7,7.7,0,0,1,4.64,1,6.55,6.55,0,0,1,1.82,1.58,6,6,0,0,1,1,2.05,30.51,30.51,0,0,1,.63,3.7,4.44,4.44,0,0,0,1.53,2.82,3.22,3.22,0,0,0,1.58.51,3,3,0,0,1,1.75.62,1.28,1.28,0,0,1,.38.85,2.49,2.49,0,0,1-.18.9C176.49,296.59,176.16,297.1,175.91,297.65Z"/><path d="M103.31,297.35c-1.45-1.22-2.8-2.52-4.16-3.82a3.73,3.73,0,0,0-1.91-1.24c-.63-.15-1.23.11-1.27.35a.56.56,0,0,0,0,.41,2,2,0,0,0,.16.34,1.66,1.66,0,0,0,.19.26,4.51,4.51,0,0,0,.8.41c.38.17.84.34,1.34.58a4.85,4.85,0,0,1,.81.49,4.71,4.71,0,0,1,.42.36c.1.11.21.21.3.32a7.73,7.73,0,0,1,1,1.42,13.35,13.35,0,0,1,1.08,2.94c.24,1,.43,1.76.71,2.58a9,9,0,0,0,1,2.16,2.32,2.32,0,0,0,.58.64,1.12,1.12,0,0,0,.57.21h.13s0,.06,0,.07.14-.28.13-.61a6.19,6.19,0,0,0-.6-2.25,5.75,5.75,0,0,0-.28-.55l-.37-.62c-.23-.42-.47-.84-.68-1.28a21.54,21.54,0,0,1-1.81-5.41,41.88,41.88,0,0,0,3.07,4.64c.28.37.55.73.84,1.08l.44.52a6.71,6.71,0,0,1,.49.62,7.36,7.36,0,0,1,.76,1.41,6.81,6.81,0,0,1,.46,1.6,3.31,3.31,0,0,1-.27,2.11,2.38,2.38,0,0,1-1,1,3,3,0,0,1-1.22.32,3.81,3.81,0,0,1-2.09-.51,5.12,5.12,0,0,1-1.41-1.31,11.1,11.1,0,0,1-1.48-2.85c-.34-.94-.59-2-.81-2.81a10.59,10.59,0,0,0-.8-2.31,5.42,5.42,0,0,0-.57-.91l-.17-.19a.52.52,0,0,0-.11-.1,2.27,2.27,0,0,0-.37-.26c-.32-.18-.73-.37-1.19-.6a5.09,5.09,0,0,1-1.55-1.1,3.73,3.73,0,0,1-.57-.9,3.67,3.67,0,0,1-.31-1A2.81,2.81,0,0,1,96,290.2a3.54,3.54,0,0,1,1.9.23,4.36,4.36,0,0,1,1.46,1,8.37,8.37,0,0,1,1,1.2C101.32,294.15,102.37,295.71,103.31,297.35Z"/><path d="M90,281.78a6,6,0,0,0-1.15-1.25,2.15,2.15,0,0,0-2.86.28,1.87,1.87,0,0,0,.23,1.34A16.32,16.32,0,0,0,87.86,285c.58.92,1.32,1.72,2,2.75a6.36,6.36,0,0,0,.85,1.14,1.61,1.61,0,0,0,.91.47.78.78,0,0,0,.79-.31,2.15,2.15,0,0,0,.38-1.27,6.21,6.21,0,0,0-.9-3.11A31.17,31.17,0,0,0,90,281.78Zm0,0c.64.94,1.39,1.81,2.08,2.73a8,8,0,0,1,1.67,3.16,3.3,3.3,0,0,1-.15,2.06,2.34,2.34,0,0,1-2,1.37,3.3,3.3,0,0,1-2.22-.74,6.4,6.4,0,0,1-1.27-1.53c-.31-.51-.57-.88-.91-1.41a17.18,17.18,0,0,1-.86-1.57,12.35,12.35,0,0,1-1.08-3.43,1.82,1.82,0,0,1,2-2.57,2.31,2.31,0,0,1,1.62.62A8.11,8.11,0,0,1,90,281.78Z"/><path d="M86,269.4a2.72,2.72,0,0,0,2.17.23,1.69,1.69,0,0,0,.79-.45s0,0,0,0,0,0,0,0-.11-.1-.25-.15-.7-.15-1-.26-.73-.23-1.1-.36a2.06,2.06,0,0,0-.5-.13c-.16,0-.35,0-.42.19C85.46,268.78,85.73,269.19,86,269.4Zm0,0a1.3,1.3,0,0,1-.4-.41.71.71,0,0,1-.15-.57c.18-.47.76-.48,1.12-.46s.77,0,1.16,0a6.26,6.26,0,0,1,1.19.18,1.26,1.26,0,0,1,.67.49.86.86,0,0,1,.16.49.69.69,0,0,1-.22.53,1.92,1.92,0,0,1-1.3.38A4.74,4.74,0,0,1,86,269.4Z"/><path d="M82.48,271.62c.13.4.5.66.65,1.06a4.32,4.32,0,0,1,.17,1.24,2.18,2.18,0,0,1-.36,1.22,4.3,4.3,0,0,0-.44,1.09c-.08.37.1.52.37.52a4.41,4.41,0,0,0,1-.33,2.88,2.88,0,0,0,1.68-1.23,3.11,3.11,0,0,0,.06-2.1,9.13,9.13,0,0,0-.85-2.24,4.69,4.69,0,0,0-.64-1,1.09,1.09,0,0,0-1-.37,1.3,1.3,0,0,0-.68.93A2.4,2.4,0,0,0,82.48,271.62Zm0,0a2.33,2.33,0,0,1,0-1.23,1.39,1.39,0,0,1,.67-1,1.32,1.32,0,0,1,1.26.27,5.14,5.14,0,0,1,.84,1,9.48,9.48,0,0,1,1.23,2.26,3.59,3.59,0,0,1,0,2.75,2.67,2.67,0,0,1-1,1.06,5.7,5.7,0,0,1-1.24.51,3.85,3.85,0,0,1-1.36.21.91.91,0,0,1-.76-1.27,4.56,4.56,0,0,1,.64-1.13,1.83,1.83,0,0,0,.48-1.07,3.62,3.62,0,0,0-.08-1.23C83,272.3,82.6,272,82.48,271.62Z"/><path d="M74.73,254.73a2.23,2.23,0,0,0-1.59-1.1,8.24,8.24,0,0,0-2,.35l-1,.25c-.31.09-.66.18-.76.39a1.91,1.91,0,0,0,.33,1.68c.32.42,1,.55,1.65,1a7.75,7.75,0,0,1,1.45,1.55,14.39,14.39,0,0,1,1.2,1.68c.17.3.34.61.49.93a5.78,5.78,0,0,1,.37,1c.09.35.15.68.22,1a2.46,2.46,0,0,0,.25.78.7.7,0,0,0,1,.26,1.62,1.62,0,0,0,.66-1.4,5.65,5.65,0,0,1,.15-1.05,8.1,8.1,0,0,1,.3-1c.21-.66.61-1.26.76-1.84s-.35-1.15-.82-1.59-1-.94-1.45-1.4A10.5,10.5,0,0,1,74.73,254.73Zm0,0a16.84,16.84,0,0,0,2.87,2.79,4.58,4.58,0,0,1,.74.72,1.38,1.38,0,0,1,.31,1c-.12.74-.44,1.3-.57,2a9.59,9.59,0,0,0-.2,1,7.24,7.24,0,0,0,0,.95,3.51,3.51,0,0,1-.13,1.12,2.21,2.21,0,0,1-.75,1,1.7,1.7,0,0,1-1.32.32,1.77,1.77,0,0,1-1.12-.78,3.37,3.37,0,0,1-.41-1.11l-.23-1a4,4,0,0,0-.29-.86c-.13-.29-.27-.58-.43-.86a14.22,14.22,0,0,0-1-1.65A7.65,7.65,0,0,0,71,257.86c-.42-.39-1.16-.56-1.65-1.26a2.67,2.67,0,0,1-.35-1,1.69,1.69,0,0,1,.18-1.11,1.36,1.36,0,0,1,1-.44l1-.17a8.9,8.9,0,0,1,2-.25A2.25,2.25,0,0,1,74.73,254.73Z"/><path d="M65,246.57a.76.76,0,0,0-.8-.18,1.35,1.35,0,0,0-.66.35,1.06,1.06,0,0,0-.37,1.1.72.72,0,0,0,.34.37,1,1,0,0,0,.57.11c.14,0,.3-.12.4-.41s.15-.61.26-.94a3.62,3.62,0,0,1,.29,1,1.17,1.17,0,0,1-.59,1.15,1.7,1.7,0,0,1-1.32.09,1.65,1.65,0,0,1-.93-2.32A2.06,2.06,0,0,1,63,246a1.79,1.79,0,0,1,1.17-.16C64.53,245.91,65,246.18,65,246.57Z"/><path d="M63.06,244c-.81-.6-1.68-1-2.54-1.61a8.34,8.34,0,0,1-1.19-1,11.46,11.46,0,0,0-1.1-.88,9.86,9.86,0,0,0-2.45-1.27,1.34,1.34,0,0,0-.92-.08.44.44,0,0,0-.2.16.16.16,0,0,0,0,.12c0,.36,1,1,1.79,1.64s1.56,1.25,2.3,1.88a6.74,6.74,0,0,0,2.38,1.4c.48.14.82.23,1-.12a2,2,0,0,0-.14-1.36,2,2,0,0,1,.56,1.47.86.86,0,0,1-.66.73,2.62,2.62,0,0,1-.87,0,6.67,6.67,0,0,1-3-1.16c-.86-.55-1.65-1.13-2.48-1.69l-1.22-.89a3,3,0,0,1-1.19-1.57,1.68,1.68,0,0,1,.22-1.32,1.91,1.91,0,0,1,.95-.75,2.72,2.72,0,0,1,2,.1,9.53,9.53,0,0,1,2.7,1.71,9.79,9.79,0,0,1,1.09,1.14,8.43,8.43,0,0,0,.93,1.1A17.91,17.91,0,0,1,63.06,244Z"/><path d="M154.66,257.83a4.28,4.28,0,0,0-2.92-2,2,2,0,0,0-1.59.49,1.74,1.74,0,0,0-.44.69c-.09.26-.1.6,0,.6a5,5,0,0,0,.77.22,2.7,2.7,0,0,1,1,.53,3.35,3.35,0,0,1,.65.81c.16.26.27.31.31.29a.7.7,0,0,0,.31-.36,4.37,4.37,0,0,0,.24-.79,14.73,14.73,0,0,1,.53-1.79,3.08,3.08,0,0,1,.3,1.95,4,4,0,0,1-.27,1,1.32,1.32,0,0,1-1,.87,1,1,0,0,1-.76-.26,1.88,1.88,0,0,1-.37-.48,2.49,2.49,0,0,0-.45-.7,1.88,1.88,0,0,0-.64-.44,3,3,0,0,1-1-.44.78.78,0,0,1-.18-.67,2.1,2.1,0,0,1,.15-.52,2.25,2.25,0,0,1,.62-.84,2.4,2.4,0,0,1,1.92-.45A4.44,4.44,0,0,1,154.66,257.83Z"/><path d="M149.24,266.76a3,3,0,0,0-.81,0c-.24.08-.17.14-.19.3a1.38,1.38,0,0,0,.42,1,.18.18,0,0,0,.23,0,.72.72,0,0,0,.36-.32c.21-.29.1-.88.06-1.48a3.07,3.07,0,0,1,.57.71,1.51,1.51,0,0,1,.16,1,1.42,1.42,0,0,1-.67,1A1.23,1.23,0,0,1,148,269a1.9,1.9,0,0,1-.59-2,1.1,1.1,0,0,1,.39-.54.85.85,0,0,1,.62-.1A1.69,1.69,0,0,1,149.24,266.76Z"/><path d="M150.78,273.16a2.84,2.84,0,0,1-.23.91,1.68,1.68,0,0,1-.67.65,9.17,9.17,0,0,0-1.64.89,2,2,0,0,0-.53,1.66,7.21,7.21,0,0,0,.11.92,1.26,1.26,0,0,0,.3.77,3.07,3.07,0,0,0,1.71.31,1.36,1.36,0,0,0,1.38-.75,9.7,9.7,0,0,0,0-1.81,5.33,5.33,0,0,0-.2-1.81,1.18,1.18,0,0,1,0-.6.66.66,0,0,1,.58-.41,3.09,3.09,0,0,1,1,.15,15.8,15.8,0,0,1,1.85.49,4.54,4.54,0,0,0,.78.32c.09,0,.14,0,.17-.27a3.13,3.13,0,0,0-.09-.84,3,3,0,0,0-.22-.82,5.2,5.2,0,0,0-1-1.46,3.23,3.23,0,0,0-1.46-1c-.57-.15-1.11.33-1.36.89A6.94,6.94,0,0,0,150.78,273.16Zm0,0a8.72,8.72,0,0,1,.48-1.82,2.25,2.25,0,0,1,.52-.81,1.15,1.15,0,0,1,.94-.32,3.53,3.53,0,0,1,1.75.89,4.81,4.81,0,0,1,1.26,1.53,4,4,0,0,1,.32,1,3.4,3.4,0,0,1,.11,1,1.12,1.12,0,0,1-.24.66.82.82,0,0,1-.73.28,3.93,3.93,0,0,1-.95-.4,16.48,16.48,0,0,0-1.76-.58,2.91,2.91,0,0,0-.82-.18c-.12,0-.15,0-.17.06a.69.69,0,0,0,0,.34c.05.3.12.61.16.94a6.41,6.41,0,0,1,0,1,5.53,5.53,0,0,0,0,.91,2.42,2.42,0,0,1-.1,1,1.41,1.41,0,0,1-.74.76,2.64,2.64,0,0,1-1,.19,7.48,7.48,0,0,1-1-.07,1.69,1.69,0,0,1-.95-.37,1.47,1.47,0,0,1-.37-.94c0-.31-.07-.63-.08-1a2.23,2.23,0,0,1,.66-1.78,8.39,8.39,0,0,1,1.7-.84,1.68,1.68,0,0,0,.69-.6A2.81,2.81,0,0,0,150.78,273.16Z"/><path d="M146.08,257.29a2.08,2.08,0,0,0-1.2.27,1.1,1.1,0,0,0-.23,1c0,.2.08.4.12.64a1.14,1.14,0,0,1-.16.85,1.17,1.17,0,0,1-.76.44,2.22,2.22,0,0,0-.54.13c-.13.07-.17.33.05.6s.52.53.7.48l.07,0a.57.57,0,0,0,.09-.18l.12-.31a2,2,0,0,1,.2-.36,2.23,2.23,0,0,1,1.29-.89.81.81,0,0,1,.54.09.94.94,0,0,1,.35.4,2.82,2.82,0,0,1,.13.76,1.36,1.36,0,0,0,.37,1,.49.49,0,0,0,.74,0,1.9,1.9,0,0,0,.1-1.1c-.1-.76-1.14-1.21-1.33-2.18a5.33,5.33,0,0,0-.33-1.25.86.86,0,0,0-1-.52.93.93,0,0,1,1.15.45,5.12,5.12,0,0,1,.46,1.25,2.31,2.31,0,0,0,.71,1,2.48,2.48,0,0,1,.81,1.14,2.24,2.24,0,0,1,.08.72,1.52,1.52,0,0,1-.16.75,1,1,0,0,1-1.56.22,1.9,1.9,0,0,1-.64-1.37,3,3,0,0,0-.1-.53c-.08-.1-.07-.09-.17-.08a1.61,1.61,0,0,0-.8.61,1.2,1.2,0,0,0-.12.21l-.1.31a1.48,1.48,0,0,1-.22.4.82.82,0,0,1-.5.28,1.25,1.25,0,0,1-.91-.22,2.58,2.58,0,0,1-.54-.56,1.35,1.35,0,0,1-.29-.84A1,1,0,0,1,143,260a2.6,2.6,0,0,1,.74-.16.61.61,0,0,0,.37-.15c.15-.14.07-.6,0-1.07a1.34,1.34,0,0,1,.57-1.33A1.81,1.81,0,0,1,146.08,257.29Z"/><path d="M138.45,256.72a1.78,1.78,0,0,0-1.64,2.83,1,1,0,0,1,.05.81,2.33,2.33,0,0,1-.35.51.41.41,0,0,0,.18.49,3.3,3.3,0,0,0,1.75.84,1.36,1.36,0,0,0,1.32-.93,2.8,2.8,0,0,0-.06-1.93,7.81,7.81,0,0,0-.45-1,1.82,1.82,0,0,1-.24-1.23c.12-.4.23-.67-.09-.83s-.68,0-1.06,0c.36,0,.69-.32,1.14-.18a.64.64,0,0,1,.45.51,3.64,3.64,0,0,1,0,.6c-.07.61.57,1.17.88,1.9a3.3,3.3,0,0,1,.21,2.46,2.34,2.34,0,0,1-.79,1.08,2.06,2.06,0,0,1-1.31.41,3.94,3.94,0,0,1-2.23-1.07,1.15,1.15,0,0,1-.28-1.51c.17-.21.28-.31.32-.38a.33.33,0,0,0,0-.28,2.32,2.32,0,0,1,.11-2.37A2,2,0,0,1,138.45,256.72Z"/><path d="M118.58,245.42a1.07,1.07,0,0,0-1.23.71,1.19,1.19,0,0,0,.13,1.34,3,3,0,0,0,2.48,1.17,1.58,1.58,0,0,0,1-.75,1.5,1.5,0,0,0,.1-1.28c-.26-.9-1.43-1.28-2.5-1.19a2.94,2.94,0,0,1,1.67-.16,2,2,0,0,1,1.42,1.11,2.14,2.14,0,0,1,0,1.88,2.23,2.23,0,0,1-1.52,1.13,2.61,2.61,0,0,1-1.8-.4,3.41,3.41,0,0,1-1.26-1.24,1.74,1.74,0,0,1-.22-.9,1.76,1.76,0,0,1,.93-1.42A.88.88,0,0,1,118.58,245.42Z"/><path d="M130.37,253.64a10,10,0,0,0-6.32-2.11,1.3,1.3,0,0,0-.83.2c-.15.14-.14.21,0,.44.18.43.92.71,1.61,1.09s1.36.75,2,1.12l1,.56a1.36,1.36,0,0,0,1,.23c.31-.06.51-.42.8-.7s.7-.4.77-.82c0,.42-.4.7-.62.95s-.37.7-.83.9a1.73,1.73,0,0,1-1.29-.1l-1.08-.42c-.72-.29-1.45-.56-2.17-.87a9.23,9.23,0,0,1-1.09-.49,2.35,2.35,0,0,1-1-1,1.42,1.42,0,0,1-.11-.88,1.23,1.23,0,0,1,.52-.75,2.11,2.11,0,0,1,1.4-.31,8.78,8.78,0,0,1,6.31,3Z"/><path d="M279.53,311.05a1.72,1.72,0,0,0-1.94-.89,1.44,1.44,0,0,0-.74.55,1.38,1.38,0,0,0-.22.82c0,.33.07.78.11,1.22l.12,1.31.06.66,0,.32c0,.11,0,.29,0,.41,0,.52-.1.95-.13,1.35a2.27,2.27,0,0,0,0,.76s0,.06,0,.06h0a.32.32,0,0,1,.14,0c.14,0,.12.08.27-.14a3.32,3.32,0,0,0,.27-1c.12-.79.1-1.64.24-2.62a3.07,3.07,0,0,1,1.71-2.22,3.2,3.2,0,0,0-.73,2.28,22.76,22.76,0,0,1,.34,2.64,4,4,0,0,1-.22,1.61,4.92,4.92,0,0,1-.24.45,2.72,2.72,0,0,1-.4.43,2.12,2.12,0,0,1-1.1.44h-.52a2.13,2.13,0,0,1-.65-.2,2.11,2.11,0,0,1-.87-.88,3.37,3.37,0,0,1-.24-1.83c.05-.48.12-.92.15-1.27,0-.1,0-.15,0-.26v-2.31a7.33,7.33,0,0,1,.1-1.42,2.48,2.48,0,0,1,2.38-2.17A2,2,0,0,1,279.53,311.05Z"/><path d="M423.75,270.64a20.33,20.33,0,0,0-2.63.45c-.4.12-.78.37-.74.6a1.37,1.37,0,0,0,.52.86,1.59,1.59,0,0,0,1,.43.68.68,0,0,0,.26-.07.89.89,0,0,0,.26-.13A2.84,2.84,0,0,0,423,272a11.75,11.75,0,0,1,.74-1.18,4.14,4.14,0,0,1,.19,1.44,2.52,2.52,0,0,1-.55,1.56,1.66,1.66,0,0,1-.88.55,1.58,1.58,0,0,1-1.06-.09,3.49,3.49,0,0,1-1.22-1.11,2.06,2.06,0,0,1-.5-1.55,1,1,0,0,1,.58-.69,2.48,2.48,0,0,1,.71-.21,7.92,7.92,0,0,1,1.37-.05Z"/><path d="M425.41,279.9c0,.7-.05,1.37-.06,2a7.45,7.45,0,0,0,0,.95l0,.45c0,.16.07.33,0,.23a.23.23,0,0,0-.19-.09c-.05,0-.06,0-.07,0a1.56,1.56,0,0,0,.23-.26,2.36,2.36,0,0,0,.35-.75,5.68,5.68,0,0,0,.16-1.92,3,3,0,0,1,.61,2,2.51,2.51,0,0,1-.32,1.13,1.87,1.87,0,0,1-.4.51.87.87,0,0,1-.53.21.77.77,0,0,1-.63-.29,1.29,1.29,0,0,1-.21-.74,4.87,4.87,0,0,1,0-.54,4.68,4.68,0,0,1,.16-1.06A6.26,6.26,0,0,1,425.41,279.9Z"/><path d="M350.77,284.61l-.64,1.09a1.27,1.27,0,0,0-.1,1.16.76.76,0,0,0,1,.1c.33-.19.59-.52,1-.78a1.51,1.51,0,0,1,.72-.25,1.27,1.27,0,0,1,.8.25,1.79,1.79,0,0,0,.5.3l.58.25c.77.33,1.5.8,2,.67a.66.66,0,0,0,.53-.39.59.59,0,0,0-.24-.61c-.2-.2-.65-.33-1.06-.69s-.58-.68-.85-1a3,3,0,0,0-2.09-1.07A2.36,2.36,0,0,0,350.77,284.61Zm0,0a2.66,2.66,0,0,1,2.19-1.1,3.47,3.47,0,0,1,2.46.84,10.58,10.58,0,0,0,.94.8c.25.19.68.22,1.15.54a1.52,1.52,0,0,1,.66,1.59,1.66,1.66,0,0,1-1.32,1.15,2.59,2.59,0,0,1-1.52-.28c-.43-.22-.76-.43-1.14-.65-.19-.1-.37-.22-.55-.33a1.23,1.23,0,0,1-.29-.21l-.23-.22a.58.58,0,0,0-.36-.2,1,1,0,0,0-.48.1c-.34.13-.67.44-1.1.61a1,1,0,0,1-1.27-.32,1.38,1.38,0,0,1,.19-1.25Z"/><path d="M359.36,290.45a2.16,2.16,0,0,0,.57,1.4s.05,0,.08.06.05,0,0-.13a1,1,0,0,0-.53-.67c-.32-.16-.43-.13-.37-.16l.43-.11c.19,0,.2-.09-.05.19a.86.86,0,0,0-.15.66c0,.2.14.25.2.24a.18.18,0,0,0,.11-.15,1.31,1.31,0,0,0,0-.33,2.51,2.51,0,0,0-.36-.88,1.51,1.51,0,0,1,1.08-.41,2,2,0,0,1,.59.11,1.74,1.74,0,0,1,.62.43,1.6,1.6,0,0,1,.43,1,1.76,1.76,0,0,1-.43,1.34,2.48,2.48,0,0,1-1.44.79,3.07,3.07,0,0,1-1.09,0,2.42,2.42,0,0,1-.75-.21,1.54,1.54,0,0,1-.76-1,1.22,1.22,0,0,1,0-.52c0-.11,0-.21.07-.32A1.74,1.74,0,0,1,359.36,290.45Z"/><path d="M340.52,273.07a4.74,4.74,0,0,0-2,1.16,1.93,1.93,0,0,0-.55.91c0,.15.05.18.15.23a.8.8,0,0,0,.4.05c.77-.06,1.52-.15,1.77-.57.11-.12.24-.28.42-.45a2.19,2.19,0,0,1,.73-.47,4.27,4.27,0,0,1,1.43-.2,6.15,6.15,0,0,0,2-.09.82.82,0,0,0,.25-.16,1.07,1.07,0,0,0,.16-.23c.08-.07,0-.33-.32-.52a2.75,2.75,0,0,0-2.12-.39A15.65,15.65,0,0,0,340.52,273.07Zm0,0c.75-.27,1.44-.67,2.2-.94a3.62,3.62,0,0,1,2.52-.11,1.94,1.94,0,0,1,.66.38,1.21,1.21,0,0,1,.42.86,1.9,1.9,0,0,1-.81,1.54,4.73,4.73,0,0,1-2.69.5,3.52,3.52,0,0,0-.92.06c-.19,0-.36.16-.74.49a2.16,2.16,0,0,1-.72.39,2.46,2.46,0,0,1-.74.11,6.6,6.6,0,0,1-1.29-.16,1.43,1.43,0,0,1-.7-.34.76.76,0,0,1-.22-.82,2.39,2.39,0,0,1,.86-1A7.24,7.24,0,0,1,340.52,273.07Z"/><path d="M412.44,347.79c-.21-.25-.38-.18-.5,0a1.37,1.37,0,0,0-.31.51.6.6,0,0,0,.31.7.59.59,0,0,0,.34.07c.07,0,.12,0,.19-.17a2.74,2.74,0,0,0-.1-1.38,1.74,1.74,0,0,1,.93,1.49,1.09,1.09,0,0,1-.69,1,1.43,1.43,0,0,1-1.17-.11,1.45,1.45,0,0,1-.7-.9,1.38,1.38,0,0,1,.19-1.09,1.54,1.54,0,0,1,.79-.57.65.65,0,0,1,.54.06A.48.48,0,0,1,412.44,347.79Z"/><path d="M399.55,352.09a.51.51,0,0,0-.43.48.54.54,0,0,0,.23.46,1.33,1.33,0,0,0,1.12.19.57.57,0,0,0,.32-.81,1.88,1.88,0,0,0-1-1,1.57,1.57,0,0,1,1.5.75,1.22,1.22,0,0,1,.17,1,1.3,1.3,0,0,1-.76.78,1.71,1.71,0,0,1-1.81-.5.94.94,0,0,1-.15-1C398.93,352.16,399.28,352,399.55,352.09Z"/><path d="M396.57,357.74c0,.17.46.3.73.34s.39-.52.19-.71a.61.61,0,0,0-.68-.16A.6.6,0,0,0,396.57,357.74Zm-.32.17a.75.75,0,0,1,.38-1.12.69.69,0,0,1,.35,0,1,1,0,0,1,.28.11.86.86,0,0,1,.39.41.61.61,0,0,1-.34.87h-.51A.65.65,0,0,1,396.25,357.91Z"/><path d="M131.43,258.49a1.76,1.76,0,0,0,.11.4.91.91,0,0,0,.24.24,1.31,1.31,0,0,0,.72.22.26.26,0,0,0,.24-.06A.63.63,0,0,0,133,259a1.4,1.4,0,0,0,0-.95,2.52,2.52,0,0,0-.54-.93,3,3,0,0,0-.39-.4c-.13-.11-.3-.28-.39-.23s-.18.21-.23.37a1.33,1.33,0,0,0,0,.53C131.42,257.77,131.42,258.13,131.43,258.49Zm-.76,0c.08-.4.16-.8.25-1.18a1.94,1.94,0,0,1,.21-.58.87.87,0,0,1,.49-.47c.32,0,.41.19.57.3a3.31,3.31,0,0,1,.44.39,4.35,4.35,0,0,1,.76.93,2,2,0,0,1,.25,1.29,1.31,1.31,0,0,1-.31.69,1.14,1.14,0,0,1-.35.3,1.35,1.35,0,0,1-.41.12,1.8,1.8,0,0,1-1.42-.39,1.49,1.49,0,0,1-.44-.68A3,3,0,0,1,130.67,258.49Z"/><path d="M265,344.08a2.7,2.7,0,0,0,.82,2.31,10,10,0,0,0,2.4,1.63,4.51,4.51,0,0,0,2.42.71,2.15,2.15,0,0,0,1-.32,1.28,1.28,0,0,0,.59-.74,4.15,4.15,0,0,0-2.33-4.73,4.91,4.91,0,0,0-3-.5A2.13,2.13,0,0,0,265,344.08Zm-1.5-.47a3.49,3.49,0,0,1,1.32-1.66,4,4,0,0,1,1.9-.58,9.1,9.1,0,0,1,3.6.56,6.23,6.23,0,0,1,2.95,2.31,5.5,5.5,0,0,1,.95,3.86,3.53,3.53,0,0,1-1.13,2.11,4.44,4.44,0,0,1-2.09,1,6.21,6.21,0,0,1-4.06-.9,8.56,8.56,0,0,1-2.84-2.61A4.66,4.66,0,0,1,263.54,343.61Z"/></svg>