<svg id="Layer_1" data-name="Layer 1" xmlns="http://www.w3.org/2000/svg" viewBox="0 0 600 600"><title>Iraq</title><path d="M54.7,287.94a10.17,10.17,0,0,1,2.06-3.43,13.42,13.42,0,0,1,3.16-2.44c2.33-1.31,4.87-2.26,7.28-3.37a29.47,29.47,0,0,0,3.48-1.82l3.46-2,6.93-4,27.68-16.14c9.24-5.36,18.41-10.84,27.61-16.27s18.29-11.07,27.43-16.61l-2.21,2.42a35.52,35.52,0,0,0,1.6-6.24,42.93,42.93,0,0,0,.53-6.22l0-1.4,1.8-2.27q1.28-1.62,2.64-3.18c.88-1.06,1.82-2.06,2.73-3.09L169,205.29a38.6,38.6,0,0,0,0-10.18c-.41-3.7-1.15-7.72-1.65-12.1a50.27,50.27,0,0,1,.09-14.53l.37-2c.17-.66.36-1.33.55-2a31,31,0,0,1,1.32-3.78c1-2.31,1.86-4.13,2.41-5.58a11.59,11.59,0,0,0,.83-3.5,16,16,0,0,0-.15-3.72,48.38,48.38,0,0,0-2.92-9.61c-.69-1.81-1.48-3.69-2.22-5.72-.19-.53-.37-1-.57-1.58l-.58-1.74c-.36-1.18-.71-2.36-1-3.58a41.91,41.91,0,0,1-1.05-16.08,27.94,27.94,0,0,1,3-9.22,24.31,24.31,0,0,1,7-8,27.07,27.07,0,0,1,9-4.27,44.13,44.13,0,0,1,8-1.33c2.41-.19,4.57-.26,6.49-.35s3.63-.23,5-.43l.52-.07.46-.09a7.11,7.11,0,0,0,.89-.2,16.75,16.75,0,0,0,1.79-.55,19.19,19.19,0,0,0,3.47-1.76,20.44,20.44,0,0,0,3.17-2.51,24.59,24.59,0,0,0,2.7-3.11,18.15,18.15,0,0,0,1.93-3.31l.19-.46a4.38,4.38,0,0,0,.13-.45c.11-.5.23-1.31.41-2.5a30.08,30.08,0,0,1,1-4.58c.14-.44.32-.94.5-1.41s.54-1.25.83-1.78a19.34,19.34,0,0,1,2-2.91,25.6,25.6,0,0,1,3.64-3.59c1.05-.87,1.91-1.5,2.49-2l2.44-2c.89-.7,1.8-1.4,2.74-2.09,1.88-1.37,3.85-2.72,6-4a58,58,0,0,1,6.78-3.4A46.19,46.19,0,0,1,254.37,41a51.59,51.59,0,0,1,15.17-1,66,66,0,0,1,7.16,1c1.16.22,2.31.47,3.45.73s2.09.51,3.21.81a58,58,0,0,1,7,2.27,34.88,34.88,0,0,1,3.8,1.79A21.47,21.47,0,0,1,296.43,48c.7.48,1.24.9,1.65,1.21.83.65,1.12.79.85.65a3.26,3.26,0,0,0-.39-.16l.16,0a3.39,3.39,0,0,0,.76,0l.55-.09.3-.07.22-.07a39.33,39.33,0,0,0,4.23-2,33.27,33.27,0,0,1,4.06-1.7,21.37,21.37,0,0,1,2.61-.72l.71-.14c.46-.08,1-.14,1.53-.18a13.64,13.64,0,0,1,3.14.21,14.13,14.13,0,0,1,4.91,2,16.6,16.6,0,0,1,2.92,2.34A26.45,26.45,0,0,1,327.76,53c.74,1.07,1.27,1.9,1.66,2.43a5.66,5.66,0,0,0,.78.93c.21.19.35.26.31.22a2.09,2.09,0,0,0-.44-.18,10.38,10.38,0,0,0,1.61-.38c1.13-.34,2.87-1.12,5.42-2a33.87,33.87,0,0,1,4.51-1.18,21.52,21.52,0,0,1,5.86-.26,22.2,22.2,0,0,1,11,4.16,24.93,24.93,0,0,1,2.25,1.83c.34.33.69.67,1,1s.65.7,1,1.13A21,21,0,0,1,366,66.3a24.24,24.24,0,0,1,1.48,5.78,35.26,35.26,0,0,1,.26,4.82c0,1.43-.1,2.68-.17,3.79,0,.92-.06,1.74,0,2.41a4.11,4.11,0,0,0,.51,2.26c.12.18.25.35.44.6a1.75,1.75,0,0,1,.16.2l.33.52.72,1.1c1,1.51,2.15,3.21,3.41,5.24a51.44,51.44,0,0,1,3.71,7.08,42.3,42.3,0,0,1,1.52,4.28c.38,1.32.62,2.15.83,2.72s.35.7.24.35a3.26,3.26,0,0,0-.43-.83,6.65,6.65,0,0,0-1.06-1.25,7.41,7.41,0,0,0-.7-.58,6,6,0,0,0-.53-.37,1.18,1.18,0,0,0-.19-.11l-.09-.07c-.09,0,0,0,0,0a28.77,28.77,0,0,1,2.8.79,22.53,22.53,0,0,1,7,3.75,21.13,21.13,0,0,1,6.06,8,29,29,0,0,1,1.9,6.27c.3,1.55.46,2.64.61,3.27,0,.18.06.25.09.38a1.13,1.13,0,0,0,.07.15c.06,0,.1,0,.11.07s.07-.06.06-.07,0,0,0-.05a.17.17,0,0,0,0-.1c0-.26-.24-.57-.16-.62s.48,0,1.17.15a15.56,15.56,0,0,0,2.72.18,16.83,16.83,0,0,0,1.71-.08c.3,0,.59,0,.9-.09l.45-.05.23,0s0,0,0,0c-.17-.06.79-.34,2.85-1,1-.35,2.35-.76,4-1.16l1.29-.29,1.41-.26c.51-.08,1-.15,1.54-.21s1.17-.12,1.77-.15a28.45,28.45,0,0,1,7.49.58,25.49,25.49,0,0,1,8.64,3.56,23.7,23.7,0,0,1,7.8,8.48,21.63,21.63,0,0,1,2.56,11.61c0,.72-.14,1.39-.25,2.09a17,17,0,0,1-.42,2c-.16.61-.34,1.22-.55,1.81s-.4,1.05-.63,1.57a22,22,0,0,1-1.38,2.67c-.25.44-.45.72-.68,1.07l-.69,1c-.41.53-.88,1.14-1.27,1.59a40,40,0,0,1-4.1,4.1c-1.13,1-2.08,1.76-2.85,2.4s-1.38,1.15-1.72,1.48-.43.5,0,0c.13-.15.21-.25.43-.54a3.19,3.19,0,0,0,.26-.38,5.5,5.5,0,0,0,.36-.57,10.92,10.92,0,0,0,.73-1.52c.12-.29.28-.7.39-1.06s.22-.9.2-.75a.25.25,0,0,0,.08-.17s0-.11,0-.19a1.07,1.07,0,0,0,0-.25c0-.14,0-.41,0-.64s0-.48-.08-.72-.09-.44-.15-.6a1.47,1.47,0,0,1-.1-.32c-.07-.11,0,0,.06.07s.2.3.31.47c.58.91,2.07,2.78,3.93,5.92.46.8.94,1.75,1.38,2.62s.9,2.07,1.31,3.12.73,2.33,1,3.5.45,2.47.6,3.72a32.12,32.12,0,0,1,0,4.39,26.54,26.54,0,0,1-.78,4.27,14.39,14.39,0,0,1-.63,1.95c-.25.62-.51,1.24-.77,1.84-.14.3-.28.6-.43.9l-.44.77c-.3.51-.62,1-.95,1.5a23.48,23.48,0,0,1-2,2.56c-.33.38-.68.81-1,1.13l-1,.94-1,.93c-.31.29-.62.53-.93.79-.63.49-1.26,1.06-1.82,1.47-2.34,1.82-4.19,3.37-5.86,4.76s-3.14,2.51-4.11,3.39l-.6.57c-.11.12-.19.18-.36.35l-2,2.43c-1.29,1.6-2.52,3.1-3.65,4.55s-2.13,2.88-3,4.23a27.43,27.43,0,0,0-3.62,7.09,3.38,3.38,0,0,1-.11.34l-.05.17v0a1,1,0,0,0-.06.24,1,1,0,0,1,0,.17l0,.25a5.17,5.17,0,0,0,0,.64,40.56,40.56,0,0,0,.15,4.67,60.18,60.18,0,0,1,.11,7.93,35.15,35.15,0,0,1-.69,5.16c-.19.9-.46,1.85-.72,2.76l-.39,1.15-.2.56-.2.5c-.54,1.42-1,2.44-1.44,3.37s-.67,1.47-.83,1.77-.14.2-.17-.27a5.15,5.15,0,0,0-.4-1.78c-.2-.52-.51-.82-.53-.78l0,0s.07.1.1.16a2,2,0,0,0,.27.4,10.55,10.55,0,0,0,2.43,2.26c1.22.91,2.86,1.93,4.78,3.17a57,57,0,0,1,6.37,4.63l1.68,1.52c.55.55,1.1,1.13,1.63,1.7s1,1.23,1.54,1.85l.36.47.28.4.56.8a60.54,60.54,0,0,1,3.85,6.42,127,127,0,0,1,5.33,12.21c.75,1.92,1.46,3.75,2.18,5.51s1.54,3.48,2.09,4.52c.27.49.43.75.37.75s-.2,0,.25.28a18.41,18.41,0,0,0,2.08,1.05l2.88,1.31,5.65,2.68c2,.94,4,2,6.17,3.23a32.91,32.91,0,0,1,6.75,5.06l4.38,4.51a49.23,49.23,0,0,0,8,6.94,17.3,17.3,0,0,0,3.71,1.85,9,9,0,0,0,3.21.57,6.76,6.76,0,0,0,.78,0l1.22-.07a29.57,29.57,0,0,1,4.12,0,19.23,19.23,0,0,1,2.94.42,17.94,17.94,0,0,1,3.32,1.1,19.47,19.47,0,0,1,5.23,3.56,40,40,0,0,1,5.18,6.46c1.16,1.68,2.31,3.37,3.43,5.08.55.86,1.11,1.71,1.64,2.59a5.56,5.56,0,0,0,.66,1.39c.36.38.72.75,1.1,1.12,1.53,1.44,3.35,2.69,4.71,4.24.7.76,1.27,1.61,1.89,2.43l1.82,2.47,3.66,4.93,1.82,2.47c.61.82,1.2,1.6,1.91,2.6A36.19,36.19,0,0,1,524,381.5a25.67,25.67,0,0,1,1.51,6.29c.06.57.08,1.19.11,1.78s0,1.11,0,1.67a27.17,27.17,0,0,1-.3,3.19,36.16,36.16,0,0,1-3.23,9.83c-1.25,2.59-2.5,4.71-3.59,6.59s-2,3.48-2.66,4.79a6.3,6.3,0,0,0-.88,2.57c0,.16.18,0,.25-.3a4,4,0,0,0,.13-1.45,7.1,7.1,0,0,0-.23-1.39.81.81,0,0,0-.07-.22c0-.06,0-.09,0-.13s0-.08,0-.09l.07,0h.06l.12,0c.08,0,.13.11.19.06a.27.27,0,0,1,.12,0,.3.3,0,0,1,.13,0,1.15,1.15,0,0,1,.26,0l.54.13,1,.3.79.26.9.31,1.13.45a6.12,6.12,0,0,1,.61.25l.76.35,1.51.74c.6.34,1.22.72,1.82,1.1a25.05,25.05,0,0,1,3.71,2.94,29.14,29.14,0,0,1,3.27,3.83c.41.64.81,1.3,1.19,2l.56,1c.17.33.37.7.48,1,.51,1.18,1,2.38,1.38,3.59.29,1,.55,2,.79,3l.17.77.11.65.2,1.28.89,6.71a79.43,79.43,0,0,0,1.79,9.64,24.8,24.8,0,0,0,1.15,3.36,3.15,3.15,0,0,0,.69,1.25s-.05-.13-.1-.16a3.11,3.11,0,0,0-.33-.4,6.62,6.62,0,0,0-1.45-1.07,7.45,7.45,0,0,0-2.1-.82l2.28.54c.88.22,1.82.54,2.72.82a35.06,35.06,0,0,1,11.23,6.23c.46.38.91.78,1.36,1.18s.9.87,1.34,1.32a34.74,34.74,0,0,1,2.51,3,29.72,29.72,0,0,1,4,7.41,28.67,28.67,0,0,1,1.72,9,28,28,0,0,1-1.45,9.5,27.72,27.72,0,0,1-10.72,14A23.55,23.55,0,0,1,539.33,514a26.93,26.93,0,0,1-2.88-.2c-.93-.13-1.79-.31-2.67-.52a41.8,41.8,0,0,1-4.93-1.72,27,27,0,0,1-4-2.23c-.61-.36-1.13-.75-1.66-1.12s-1.07-.72-1.57-1.08a45.12,45.12,0,0,0-5.85-3.5c-3.88-1.7-7.64-3.23-11.4-4.48-1.89-.64-3.77-1.17-5.65-1.63s-3.75-.78-5.59-1a36.24,36.24,0,0,0-5.33-.28,18.66,18.66,0,0,0-4.58.59,6.68,6.68,0,0,0-2.73,1.34,3.72,3.72,0,0,0-1,1.75,3.84,3.84,0,0,1-.15.69,1.89,1.89,0,0,0-.06.28l-.08.38L479,502l-.6,3.08c-.43,2.06-.8,4.16-1.25,6.26-1.87,8.36-3.94,17.24-8.76,25.94-.61,1.08-1.28,2.14-1.94,3.22s-1.45,2.1-2.21,3.13-1.69,2-2.54,3-1.87,1.88-2.82,2.81a43.63,43.63,0,0,1-13.61,8.44c-1.23.46-2.47.86-3.71,1.28s-2.47.66-3.71,1-2.47.48-3.69.69-2.45.28-3.66.39a43.56,43.56,0,0,1-13.88-1.54c-2.18-.61-4.32-1.27-6.4-2s-4.13-1.43-6.16-2c-1-.33-2-.59-3-.88s-2.09-.51-3.12-.78c-2.08-.47-4.14-.88-6.2-1.24-4.12-.69-8.16-1.49-12.16-2.25s-8-1.43-11.87-2c-3.56-.5-7.67-.44-12.22-1a36.22,36.22,0,0,1-7.12-1.58c-.61-.22-1.22-.47-1.82-.71s-1.21-.57-1.8-.88-1.2-.68-1.72-1l-1.39-.91c-7.36-4.92-13.53-10.63-19.69-15.68-1.55-1.28-3.05-2.43-4.64-3.64l-4.89-3.7L302.64,512c-13.06-9.86-26.06-19.77-38.9-29.9S238.3,461.6,225.86,451c-3.67-3.11-6.58-6.32-9.18-8.75a37.11,37.11,0,0,0-3.74-3.14,17.09,17.09,0,0,0-3.61-2c-2.79-1.22-7.13-2.2-12-4.69-.6-.29-1.22-.67-1.82-1s-1.23-.77-1.79-1.16c-1.12-.78-2.12-1.58-3-2.36-1.83-1.57-3.33-3-4.66-4.23a28.37,28.37,0,0,0-3.82-3,44.54,44.54,0,0,0-4.53-2.53c-3.28-1.64-7.07-3.19-11-5.09-2-1-4-2-6.07-3.25a51.57,51.57,0,0,1-5.74-4.07c-1.76-1.42-3.38-2.86-4.92-4.26l-4.52-4.16-2.27-2.1c-.81-.75-1.62-1.52-2.41-2.33a54.73,54.73,0,0,1-4.54-5.16,64.77,64.77,0,0,1-3.79-5.53l-.84-1.38-.65-1a10.92,10.92,0,0,0-.65-.93l-.34-.45-.36-.39a11.19,11.19,0,0,0-3.34-2.59,20.22,20.22,0,0,0-4.7-1.58c-1.79-.41-3.77-.73-5.82-1.08-1-.17-2.07-.37-3.13-.57l-3-.6-24.06-4.84c-4-.8-8-1.63-12.06-2.41l-1.52-.29-.77-.15a9.66,9.66,0,0,1-1-.24,5.15,5.15,0,0,1-1.33-.61,3.89,3.89,0,0,1-.85-.77,3.41,3.41,0,0,1-.61-1.32,3.33,3.33,0,0,1,0-1.3,3.61,3.61,0,0,1,.37-1,4.77,4.77,0,0,1,.92-1.16,10.06,10.06,0,0,1,1.58-1.15c.35-.21.93-.58,1.37-.83.94-.53,1.79-1,2.48-1.45a3.31,3.31,0,0,0,1.26-1.3,1.58,1.58,0,0,0,.11-.72c0-.13-.06-.31-.07-.47s-.06-.26-.09-.41l-.09-.46c-.1-.58-.15-1-.23-1.31a1,1,0,0,0-.23-.5,2.45,2.45,0,0,0-1.72-.39,15.08,15.08,0,0,0-2.75.4c-1,.22-1.93.42-2.91.7l-2.91.87-1.49.44a8.06,8.06,0,0,1-1.76.37,3.37,3.37,0,0,1-2.22-.59A3.8,3.8,0,0,1,57.65,349c-.44-1.17-.52-2.13-.89-2.86a9.16,9.16,0,0,1-1.1-3.23,3.86,3.86,0,0,1,1.64-3.45,7.06,7.06,0,0,1,3.24-1L63.6,338l1.52-.22a3,3,0,0,0,1.2-.28c.07,0,.11-.09.1-.07a.45.45,0,0,0,.06-.15,3.1,3.1,0,0,0,0-.61,11.25,11.25,0,0,0-.28-1.43c-.52-2-.89-4-1.45-6l-1.63-5.9c-1-3.95-2.35-7.83-3.53-11.74s-2.41-7.8-3.75-11.66A33.87,33.87,0,0,1,54.35,294a16.47,16.47,0,0,1-.13-3.06,12.81,12.81,0,0,1,.57-3Zm.09,0a13.22,13.22,0,0,0-.17,6,34,34,0,0,0,1.71,5.82c1.49,3.8,2.89,7.67,4.27,11.51S63.42,319,64.55,323l1.8,5.88c.31,1,.56,2,.82,3s.5,2,.77,2.94a12.83,12.83,0,0,1,.37,1.68,4,4,0,0,1,0,1.11,2.26,2.26,0,0,1-.27.81,2,2,0,0,1-.63.68,4.67,4.67,0,0,1-2,.66l-1.49.25-3,.5a5.5,5.5,0,0,0-2.39.72,1.69,1.69,0,0,0-.7,1.54,7.16,7.16,0,0,0,.93,2.4,29.33,29.33,0,0,1,1,3,1.58,1.58,0,0,0,.49.67,1,1,0,0,0,.67.14,6.24,6.24,0,0,0,1.22-.3l1.44-.46,2.93-1c1-.32,2-.59,3-.84a18.59,18.59,0,0,1,3.22-.59,7.58,7.58,0,0,1,1.82.09,4.25,4.25,0,0,1,1.91.86,3.66,3.66,0,0,1,1.19,1.8,12.94,12.94,0,0,1,.36,1.62l.08.32.08.35a5.35,5.35,0,0,1,.19.92,4.68,4.68,0,0,1-.18,2A6,6,0,0,1,76,356.62a31.09,31.09,0,0,1-2.67,1.71A20.45,20.45,0,0,0,71,359.94a1.38,1.38,0,0,0-.26.32c0,.06,0,.08,0,0s-.11-.16,0-.1a1.69,1.69,0,0,0,.4.16,12.23,12.23,0,0,0,1.4.26l1.5.24,12.09,1.94,24.2,3.91c2,.32,4,.66,6,.92s4.06.51,6.1.88a26.46,26.46,0,0,1,6,1.75,17.06,17.06,0,0,1,5.23,3.57,28.24,28.24,0,0,1,3.79,5,57.33,57.33,0,0,0,3.6,4.88,48,48,0,0,0,4.14,4.42c1.47,1.39,3,2.69,4.59,4,3.12,2.64,6.17,5.38,9.39,7.85a48.73,48.73,0,0,0,10.5,6.11c3.72,1.66,7.56,3.08,11.29,4.78a41.82,41.82,0,0,1,10.43,6.44c3.11,2.64,6,5.59,9.73,7.34s7.7,2.66,11.5,4.17a32.14,32.14,0,0,1,10.2,6.72c3,2.74,5.82,5.73,9,8.33l75.67,62.37,9.46,7.8c3.14,2.61,6.34,5.15,9.39,7.87,6.12,5.41,12,11.16,18.65,15.89a21.46,21.46,0,0,0,5.35,2.94,28.89,28.89,0,0,0,6,1.41c4,.57,8.15.6,12.19,1.17,8.09,1.18,16.09,2.91,24.15,4.22,4,.67,8.09,1.19,12.15,1.58s8.14.75,12.23.88c8.13.26,16.47-.24,24.15-3.13a36.93,36.93,0,0,0,10.58-6.08,41.28,41.28,0,0,0,8.12-9.12c4.54-6.83,7.35-14.62,9.6-22.45.57-2,1.1-3.94,1.59-5.92s.9-4,1.57-5.92a10.86,10.86,0,0,1,3.6-4.85,14,14,0,0,1,5.57-2.41,26.51,26.51,0,0,1,6.09-.55,51.83,51.83,0,0,1,6.11.43,116.64,116.64,0,0,1,12,2.28c4,.93,7.93,2,11.89,3a82.37,82.37,0,0,0,12,2.36c4,.28,8.33-.28,11.73-2.62a9.71,9.71,0,0,0,3.67-4.78,9,9,0,0,0,.45-3,10.24,10.24,0,0,0-.59-3,11.77,11.77,0,0,0-1.47-2.67,13.39,13.39,0,0,0-2.12-2.2,16.81,16.81,0,0,0-5.35-2.92c-1.92-.7-4-.84-5.81-1.88A13.26,13.26,0,0,1,526,470.3,32.55,32.55,0,0,1,521.51,459a91.73,91.73,0,0,1-1.71-12.13c-.2-2-.26-4.08-.51-6.11a22.11,22.11,0,0,0-.55-3l-.53-1.44c-.21-.46-.48-.89-.72-1.34a10.1,10.1,0,0,0-4.88-3.54,35.88,35.88,0,0,1-5.57-2.55,18.13,18.13,0,0,1-4.58-4,12.21,12.21,0,0,1-2.68-5.44,11.79,11.79,0,0,1,.54-6,26.91,26.91,0,0,1,2.68-5.5c2.12-3.49,4.63-6.74,6.59-10.33a20.87,20.87,0,0,0,2.18-5.7,12.5,12.5,0,0,0,.2-3.05,12.26,12.26,0,0,0-.63-3,25.89,25.89,0,0,0-2.79-5.44l-3.35-5.13L498.49,365l-6.71-10.26-3.35-5.13a28.72,28.72,0,0,0-3.68-4.89,9.22,9.22,0,0,0-2.47-1.77,8.67,8.67,0,0,0-3-.75c-2-.19-4.09.12-6.12-.13A23.08,23.08,0,0,1,462,337.5a68.66,68.66,0,0,1-9.1-8.19l-4.26-4.41a23.67,23.67,0,0,0-4.95-3.58c-3.57-2-7.38-3.5-11.11-5.16-1.87-.82-3.79-1.53-5.62-2.44a10.36,10.36,0,0,1-2.52-1.73,13.22,13.22,0,0,1-1.9-2.39A109.73,109.73,0,0,1,417,298.66c-1.71-3.71-3.43-7.43-5.49-11a50.22,50.22,0,0,0-3.4-5.1,22.38,22.38,0,0,0-4.26-4.38c-3.23-2.52-7-4.23-10.46-6.36a27.83,27.83,0,0,1-4.89-3.68,12.79,12.79,0,0,1-3.41-5,8.57,8.57,0,0,1-.38-3,13.38,13.38,0,0,1,.58-3c.62-1.95,1.49-3.81,2.17-5.73,3.08-7.87-1.31-16.32,1.37-24.26a41.56,41.56,0,0,1,5.49-10.91c2.27-3.4,4.83-6.59,7.38-9.78a50.36,50.36,0,0,1,4-4.67c1.45-1.44,3-2.79,4.51-4.15,3-2.72,6.12-5.53,8-9.18a10.76,10.76,0,0,0,1.19-5.92,14.22,14.22,0,0,0-2-5.75c-1-1.78-2.24-3.41-3.35-5.13a17.32,17.32,0,0,1-2.5-5.56,13.86,13.86,0,0,1,.1-6.08,6.24,6.24,0,0,1,1.43-2.68,17.72,17.72,0,0,1,2.19-2.14c1.56-1.32,3.22-2.51,4.79-3.82a21,21,0,0,0,2.21-2.11,6.62,6.62,0,0,0,1.53-2.62,4,4,0,0,0-.37-2.95,6.32,6.32,0,0,0-2-2.24,10,10,0,0,0-5.85-1.45c-4.11.16-7.88,2.13-12,2.49a33.61,33.61,0,0,1-12.14-1.17,19.54,19.54,0,0,1-5.51-2.63,14,14,0,0,1-4.09-4.5,16.06,16.06,0,0,1-1.9-5.79,25.21,25.21,0,0,0-1.22-6A6.18,6.18,0,0,0,377,120a8.7,8.7,0,0,0-2.69-1.43c-1.89-.7-4-1.12-5.56-2.48a10.27,10.27,0,0,1-2.87-5.32,53.55,53.55,0,0,0-1.67-5.89c-1.44-3.83-3.64-7.31-5.63-10.87a22.19,22.19,0,0,1-2.46-5.6,18.88,18.88,0,0,1-.44-6.09c.12-2,.48-4.06.6-6.1a14.82,14.82,0,0,0-.68-6,11.43,11.43,0,0,0-9.27-7.06,14.17,14.17,0,0,0-6,.82c-1.95.62-3.83,1.42-5.8,2a14.18,14.18,0,0,1-6.07.55,9.8,9.8,0,0,1-5.31-2.87,29.7,29.7,0,0,1-3.66-4.91,16.21,16.21,0,0,0-1.9-2.39A5.06,5.06,0,0,0,315,54.76a3.31,3.31,0,0,0-1.5.06,12.42,12.42,0,0,0-1.48.4,22.46,22.46,0,0,0-2.82,1.19A41.81,41.81,0,0,1,303.58,59a14.64,14.64,0,0,1-6.06.64,9.17,9.17,0,0,1-2.95-.8A15.09,15.09,0,0,1,292,57.1a19.75,19.75,0,0,0-5.32-3,49.41,49.41,0,0,0-5.84-1.83,66.57,66.57,0,0,0-12.05-2.13,41.44,41.44,0,0,0-12.17.83,38.09,38.09,0,0,0-11.27,4.65,75.15,75.15,0,0,0-9.86,7.26A30.36,30.36,0,0,0,231,67a11,11,0,0,0-2,5.66,21.48,21.48,0,0,1-1.4,6,28.84,28.84,0,0,1-3,5.34,32.18,32.18,0,0,1-8.79,8.46,28.08,28.08,0,0,1-11.4,4.28c-4.06.58-8.16.47-12.23.79s-8.23,1.07-11.54,3.51a14.31,14.31,0,0,0-4,4.53,17.63,17.63,0,0,0-1.9,5.78,31.87,31.87,0,0,0,.72,12.14A111.25,111.25,0,0,0,179.16,135a54.55,54.55,0,0,1,3.05,11.86,21.84,21.84,0,0,1-1.83,12c-.83,1.87-1.82,3.66-2.66,5.52a21,21,0,0,0-1.09,2.86l-.46,1.45-.33,1.5a42.92,42.92,0,0,0-.45,12.19c.3,4.07.87,8.12,1.14,12.2a44.31,44.31,0,0,1-.61,12.22h0v0l-5.83,5.82,0,0a51.7,51.7,0,0,1-3.89,13.61h0L109.8,256.64,81.59,271.81l-7,3.8a61.17,61.17,0,0,1-7.16,3.56A64.52,64.52,0,0,0,60,282.12a10.56,10.56,0,0,0-3.16,2.43A10.17,10.17,0,0,0,54.88,288Z"/></svg>