<svg id="Layer_1" data-name="Layer 1" xmlns="http://www.w3.org/2000/svg" viewBox="0 0 600 600"><title>Israel</title><path d="M244.25,273.7a4,4,0,0,1-.15-2.56,9.77,9.77,0,0,1,1.09-2.31,38.39,38.39,0,0,1,3.08-4.12c1.09-1.33,2.23-2.6,3.19-3.95s1.79-2.84,2.65-4.29a167.77,167.77,0,0,0,9.18-18.15q2-4.66,3.76-9.42.87-2.37,1.67-4.77t1.46-4.84a181.74,181.74,0,0,0,4.45-19.65c2.27-13.25,3.35-26.72,4.58-40.39.61-6.82,1.32-13.79,2.1-20.53a165.62,165.62,0,0,1,3.6-21.29c.46-1.83,1-3.67,1.6-5.52a18.63,18.63,0,0,1,2-4.25,14.47,14.47,0,0,1,2.25-2.71,15.19,15.19,0,0,1,2.84-2.06c.89-.5,1.36-.71,1.73-.91l.33-.19s.11-.07.12-.1,0-.1.15-.29,0-.06,0-.13a1.59,1.59,0,0,1,.08-.21c.08-.19.21-.5.34-.87a18.73,18.73,0,0,0,.72-3l.13-.92a8,8,0,0,0,.09-.9c.08-.52.09-1.23.2-1.9l.53-4.82c.21-1.77.42-3.63.77-5.67a40.05,40.05,0,0,1,1.6-6.61,23.33,23.33,0,0,1,4.26-7.76,18.66,18.66,0,0,1,4-3.57c.78-.49,1.59-.94,2.4-1.35s1.37-.58,2.09-.82a22.6,22.6,0,0,1,8.75-1.13,25.14,25.14,0,0,1,7.92,1.9,28,28,0,0,1,3.34,1.65l.82.48c.37.24.74.47,1.07.71a20,20,0,0,1,1.74,1.39c2,1.81,2.88,3,3.3,3.26A6.67,6.67,0,0,0,342,72.26a5.69,5.69,0,0,0,3.92.21,4.57,4.57,0,0,0,2.73-2.53,13.5,13.5,0,0,0,.85-3.13c.23-1.3.39-2.91.61-4.75a46.37,46.37,0,0,1,1.13-6.18,25.61,25.61,0,0,1,1.21-3.58,19.5,19.5,0,0,1,2.22-3.85,15.38,15.38,0,0,1,3.76-3.52,16.25,16.25,0,0,1,4.5-2.07,19.14,19.14,0,0,1,2.25-.52l1.1-.14a11.15,11.15,0,0,1,1.37-.05,16.33,16.33,0,0,1,2,.15,13.11,13.11,0,0,1,1.72.44c.28.09.56.18.83.29a6.64,6.64,0,0,1,.7.31c.45.22.89.45,1.32.7s.71.48,1.07.73.71.51,1,.75A20.3,20.3,0,0,1,377.74,47a31.41,31.41,0,0,1,2.37,2.82,42.23,42.23,0,0,1,3.4,5.38,58.59,58.59,0,0,1,2.62,5.46c.39,1,.8,2,1.11,3l.49,1.48.41,1.47a116.2,116.2,0,0,1,2.37,11.61c.64,3.76,1.06,7.43,1.43,10.94.11.89.14,1.74.22,2.6s.13,1.69.16,2.54l.24,4.91c.16,3.5.28,7.23.14,11.19a63.9,63.9,0,0,1-1.78,12.56,43.74,43.74,0,0,1-2.34,6.68,64,64,0,0,1-3,5.74,70.14,70.14,0,0,0-4.11,7.29c-.1.22-.18.42-.25.62l-.12.31L381,144c-.19.61-.4,1.22-.57,1.83a37.23,37.23,0,0,0-.91,3.75,37.7,37.7,0,0,0-.52,3.8l-.06.74,0,.38v3a34.26,34.26,0,0,1-.21,4.07,22.21,22.21,0,0,1-1.35,5.56,20.13,20.13,0,0,1-3.2,5.48,22.49,22.49,0,0,1-2,2.12c-.69.6-1.33,1.16-2.1,1.73a19.92,19.92,0,0,1-5.7,2.89,20.54,20.54,0,0,1-3.45.75,19.89,19.89,0,0,1-3.44.06,20.26,20.26,0,0,1-5.84-1.33c-.78-.33-1.6-.67-2.25-1-.34-.18-.69-.36-1-.55l-.91-.55a37.22,37.22,0,0,1-5.62-4.45c-1.52-1.43-2.82-2.81-4-4.09s-2.3-2.49-3.29-3.5-1.89-1.84-2.24-2.14c-.06-.07,0,0-.06-.08s0-.06,0,0a.31.31,0,0,0,.13,0l-.41-.17-.81-.34-.78-.27a11.75,11.75,0,0,0-2.64-.6,5.57,5.57,0,0,0-1.63,0,2.69,2.69,0,0,0-1.32.65,14.09,14.09,0,0,0-3.44,5,60.56,60.56,0,0,0-2.76,8.38c-.4,1.55-.82,3.14-1.18,4.79-.17.82-.38,1.69-.53,2.5l-.41,2.44c-.23,1.63-.4,3.28-.52,4.94s-.13,3.35-.18,5l.07,10.2a90,90,0,0,1-.6,10.24c0,.37-.14,1-.22,1.54s-.2,1.11-.3,1.59c-.22,1-.41,1.94-.64,2.83-.44,1.71-.83,3.21-1.13,4.51s-.5,2.3-.61,3.06a4.27,4.27,0,0,1-.22,1.17c-.08.09-.24-.18-.36-.16s-.11.06-.18.1l-.28,0c-.21,0-.3.19.1.4a5.92,5.92,0,0,0,2.27.55,30.9,30.9,0,0,0,4,0c1.36,0,3.5-.32,6.49-.27a22.45,22.45,0,0,1,5.38.74,16.59,16.59,0,0,1,6.74,3.61,15.53,15.53,0,0,1,2.64,3.09c.33.53.64,1.07.92,1.62a19.74,19.74,0,0,1,.83,2,14.08,14.08,0,0,1,.54,2.28,12.48,12.48,0,0,1,.16,2.37c0,.39,0,.79-.05,1.17s-.1.73-.17,1.09-.14.72-.22,1.08a9.53,9.53,0,0,1-.29.94,15.64,15.64,0,0,1-1.48,3.2,20.13,20.13,0,0,1-1.6,2.21,22.77,22.77,0,0,1-3.06,3,39.32,39.32,0,0,1-5.49,3.73c-3.48,2-6.7,3.62-9.78,5.1-1.51.74-3,1.45-4.21,2.15-.58.33-1.12.68-1.2.73s0,0-.05,0l-.21.17-.41.35c-.28.23-.56.48-.83.73-1.08,1-2.15,2.08-3.17,3.19s-2,2.29-2.85,3.47A37.59,37.59,0,0,0,302,286a15.44,15.44,0,0,0-1.56,6,2.23,2.23,0,0,0,.3,1.26,1.54,1.54,0,0,0,.25.26c0,.06.09.11.14.17l.06.09.14.11a5.67,5.67,0,0,0,.56.59c.16.1.15.44.34.51a2.73,2.73,0,0,0,.73.06,2.41,2.41,0,0,0,.78-.11l.46-.37a2.32,2.32,0,0,0,.35-.35,1.67,1.67,0,0,1,.24-.2c.29-.14.62-.14,1.21-.35a3.53,3.53,0,0,0,.48-.17,4.27,4.27,0,0,0,.52-.19c.4-.19.78-.31,1.25-.57a41.7,41.7,0,0,0,6.37-4c1.18-.87,2.42-1.83,3.76-2.86l1-.78.43-.41,1.49-1.39c1.23-1.12,2.68-2.47,4.59-4,.52-.38,1-.74,1.56-1.14l.85-.58,1-.6c.61-.39,1.43-.81,2.17-1.19.4-.2.86-.39,1.3-.58l.67-.28.76-.27c.53-.18,1-.34,1.59-.5s1.21-.28,1.83-.39a14.87,14.87,0,0,1,1.66-.23c.53-.06,1.07-.1,1.6-.14s1.17,0,1.75,0a14.41,14.41,0,0,1,1.81.13,21.91,21.91,0,0,1,3.79.8,22.18,22.18,0,0,1,3.72,1.52c.6.3,1.14.65,1.7,1a16.08,16.08,0,0,1,1.57,1.1c.49.38,1,.78,1.44,1.19s.82.8,1.23,1.21l.59.63.51.61c.33.4.66.81,1,1.23a33,33,0,0,1,4.49,8.8,47.7,47.7,0,0,1,1.88,7.3,104.48,104.48,0,0,1,.93,23.92c-.08,3.69-.48,7.29-.8,10.93s-.82,7.2-1.33,10.76-1.13,7.1-1.82,10.59l-1,5.25c-.35,1.74-.76,3.46-1.16,5.19A97.88,97.88,0,0,1,358,375.78c-1.19,3.32-2.64,6.56-4.05,9.79-2.95,6.41-5.92,12.76-8.31,19.2s-4.48,13-6.69,19.39-4.26,12.88-6.16,19.34c-1,3.21-1.94,6.5-2.87,9.79l-2.7,9.89-2.61,9.91-2.48,10-2.53,10-1.29,5-1.21,5-1.07,5.06c-.31,1.7-.66,3.39-.95,5.1l-.44,2.57c-.14.84-.29,1.76-.38,2.49-.21,1.56-.39,3.16-.56,4.8-.32,3.29-.68,6.71-1.14,10.32-.24,1.81-.53,3.65-.89,5.54-.11.56-.12.75-.17,1.11l-.14,1.07-.32,2.57a33.49,33.49,0,0,1-1.56,6.8l-.19.53c-.09.2-.11.3-.24.58-.23.51-.48,1-.75,1.49a18,18,0,0,1-1.93,2.78,16.79,16.79,0,0,1-6.27,4.68,15.39,15.39,0,0,1-4.6,1.16,21.68,21.68,0,0,1-2.42,0,18,18,0,0,1-2.43-.33,16.48,16.48,0,0,1-4.35-1.68,13.89,13.89,0,0,1-1.77-1.16,15.68,15.68,0,0,1-1.48-1.25,19.29,19.29,0,0,1-3.88-5.18,21.76,21.76,0,0,1-1.89-5.27c-.1-.45-.19-.92-.25-1.4l-.1-.71,0-.4-.13-1.57c-.07-1-.13-2-.15-3-.06-2,0-3.87,0-5.68.09-3.62.24-6.86.2-9.8,0-.73,0-1.44-.06-2.13s-.07-1.34-.17-2.14c-.18-1.52-.27-3-.53-4.57s-.42-3-.74-4.59l-.44-2.3-.51-2.3A176.84,176.84,0,0,0,269,487.68c-2.11-6.23-4.6-12.46-7-18.83s-4.89-12.83-7.22-19.42c-4.61-13.16-8.59-26.32-12.49-39.4l-23.46-78.61c-1-3.2-2.17-7-1.58-11a9.07,9.07,0,0,1,1-3,6.23,6.23,0,0,1,1.07-1.45,5.21,5.21,0,0,1,1.57-1.07c2.29-.92,4.34-.39,5.85-.22a4,4,0,0,0,1.83-.12,1.78,1.78,0,0,0,1-1.08,4.49,4.49,0,0,0,.22-2,15.12,15.12,0,0,1-.08-2.75l.09-.65.07-.59.08-1.26a16.18,16.18,0,0,1,.33-2.69,15.53,15.53,0,0,1,.84-2.58,4.53,4.53,0,0,1,1.89-2.26,7.84,7.84,0,0,1,2.69-.66,18.1,18.1,0,0,0,2.46-.46,15.11,15.11,0,0,0,4.53-2.08,22.11,22.11,0,0,0,6.92-7.25,28.3,28.3,0,0,0,2.27-4.54,8.64,8.64,0,0,0,.64-4.92,3.47,3.47,0,0,0-1.46-1.95,7.21,7.21,0,0,0-2.38-.81,12.4,12.4,0,0,1-2.48-.65,3.45,3.45,0,0,1-1.85-1.7Zm.08,0a3,3,0,0,0,.79,1,3.83,3.83,0,0,0,1.12.57,11.9,11.9,0,0,0,2.47.51,7.53,7.53,0,0,1,2.56.73,4,4,0,0,1,1.77,2.16,9.28,9.28,0,0,1-.39,5.36,27.23,27.23,0,0,1-2.12,4.81,23.34,23.34,0,0,1-7,8,18.85,18.85,0,0,1-2.3,1.44,15.72,15.72,0,0,1-2.58,1.06,19.53,19.53,0,0,1-2.66.57,6.66,6.66,0,0,0-2,.49c-.81.37-1.35,2.07-1.66,3.58a14,14,0,0,0-.19,2.34l0,1.31,0,.69-.07.62a12.7,12.7,0,0,0,.16,2.33,9.84,9.84,0,0,1,.06,1.46,5.8,5.8,0,0,1-.3,1.58,4.34,4.34,0,0,1-2.22,2.61,6.27,6.27,0,0,1-3.1.46c-1-.08-1.7-.19-2.48-.2a4.88,4.88,0,0,0-2,.34c-1,.44-1.63,1.81-1.79,3.32a14,14,0,0,0,.34,4.71,46.59,46.59,0,0,0,1.48,4.78l26.62,77.49c4.44,12.92,8.89,25.83,13.9,38.53s10.79,25.09,15.68,37.84a182.08,182.08,0,0,1,6.32,19.48A106,106,0,0,1,288,523.78c.32,6.81-.33,13.69.75,20.45a8.91,8.91,0,0,0,2.41,4.43,4.93,4.93,0,0,0,2.22,1.23,4.15,4.15,0,0,0,2.51-.2,6.46,6.46,0,0,0,3.4-3.65,31.68,31.68,0,0,0,1.51-4.88c.73-3.34,1.77-6.6,2.51-9.93s1.43-6.68,2.16-10,1.65-6.63,2.53-9.92,1.73-6.61,2.56-9.92c3.33-13.24,6.33-26.57,9.38-39.88,1.53-6.65,3-13.32,4.59-20s3.26-13.26,5-19.87c3.46-13.21,7.08-26.38,10.4-39.63s6.27-26.59,8.43-40.07c.54-3.37,1-6.76,1.43-10.14l.55-5.1.27-2.54.19-2.56c.56-6.79.94-13.66,0-20.44a23.23,23.23,0,0,0-3.2-9.63,7.81,7.81,0,0,0-4-3.09,8.26,8.26,0,0,0-5,0c-3.25,1.12-5.88,3.45-8.52,5.57a47,47,0,0,1-4.11,3.05c-1.42.95-2.83,1.91-4.28,2.81a47.68,47.68,0,0,1-9.09,4.69,19,19,0,0,1-10,1.18,15,15,0,0,1-4.74-1.86,21.34,21.34,0,0,1-2.14-1.41,18.09,18.09,0,0,1-1.87-1.74,12.11,12.11,0,0,1-2.58-4.37,12.77,12.77,0,0,1-.56-5.06,25.19,25.19,0,0,1,3.11-9.68,51.69,51.69,0,0,1,5.71-8.49,72.61,72.61,0,0,1,7-7.47c2.4-2.48,5.54-4,8.5-5.65s6-3.27,8.85-5.15a34.86,34.86,0,0,0,4.07-3.09,14.66,14.66,0,0,0,1.74-1.87,6.61,6.61,0,0,0,1.22-2.24,4,4,0,0,0,0-2.5,5,5,0,0,0-1.44-2.08,6.92,6.92,0,0,0-4.82-1.31,45.81,45.81,0,0,0-5.08.65,50.94,50.94,0,0,1-5.08.58c-3.38.21-6.95-.14-9.89-1.94a13,13,0,0,1-5.77-8.14,24.15,24.15,0,0,1,.39-10.15c.7-3.34,1.67-6.63,2.24-10,1.17-6.73,2.32-13.46,3.64-20.16s2.88-13.35,4.57-20a70,70,0,0,1,3.22-9.72,23.87,23.87,0,0,1,5.66-8.44,13.37,13.37,0,0,1,4.35-2.63,14.36,14.36,0,0,1,5-.83,21.07,21.07,0,0,1,5.06.7l1.24.34,1.21.4a10,10,0,0,1,2.33,1.06c2.9,1.82,5.27,4.33,7.74,6.67a45,45,0,0,0,7.88,6.51,10.57,10.57,0,0,0,4.79,1.63,7.13,7.13,0,0,0,4.75-1.55,9,9,0,0,0,3.08-4,13.26,13.26,0,0,0,.59-5c-.05-1.7-.17-3.41-.06-5.12s.27-3.4.53-5.09a47,47,0,0,1,2.61-9.89,69.2,69.2,0,0,1,4.89-9,48.68,48.68,0,0,0,2.4-4.51,32.87,32.87,0,0,0,1.74-4.81c1.85-6.6,2-13.5,2-20.31s.44-13.66.12-20.48a58.59,58.59,0,0,0-1.28-10.14,41.45,41.45,0,0,0-3.42-9.62,33,33,0,0,0-2.57-4.42A13.19,13.19,0,0,0,370,50.8a5.7,5.7,0,0,0-1.76-.71l-.63-.05a9,9,0,0,0-2.52.36,7.82,7.82,0,0,0-4.16,2.8,13.57,13.57,0,0,0-2.07,4.64,34.29,34.29,0,0,0-.82,5c-.35,3.38-.53,6.85-1.78,10a13.08,13.08,0,0,1-6.92,7.23,14.16,14.16,0,0,1-10,.46,15.66,15.66,0,0,1-4.53-2.36c-1.38-1-2.51-2.32-3.81-3.42a11.14,11.14,0,0,0-2.11-1.42,18,18,0,0,0-2.32-1.07,15.75,15.75,0,0,0-5-1.08,12.76,12.76,0,0,0-5,.76,8.87,8.87,0,0,0-4.13,2.86,13,13,0,0,0-2.31,4.51,29.17,29.17,0,0,0-1.07,5c-.49,3.38-.62,6.8-1,10.19a31.68,31.68,0,0,1-2.53,9.9,13,13,0,0,1-3,4.16,10.35,10.35,0,0,1-2.09,1.5c-.74.42-1.55.71-2.3,1.11a6.65,6.65,0,0,0-3,4c-.6,1.6-1.16,3.21-1.66,4.84-7,26.43-8.6,53.93-14.86,80.53A180.46,180.46,0,0,1,254.9,257c-.94,1.43-1.82,2.9-2.88,4.24s-2.31,2.52-3.51,3.73a24.6,24.6,0,0,0-3.3,3.9,7.23,7.23,0,0,0-1,2.32,3.9,3.9,0,0,0,.24,2.46Z"/></svg>