<svg id="Layer_1" data-name="Layer 1" xmlns="http://www.w3.org/2000/svg" viewBox="0 0 600 600"><title>Italy</title><path d="M111.84,97.89a7.62,7.62,0,0,1,2.24-5.47,19.11,19.11,0,0,1,4.82-3.67,22,22,0,0,1,5.75-2.19,58.67,58.67,0,0,1,6.09-.72c4-.31,8-.6,11.47-2a17.12,17.12,0,0,0,4.65-3c1.43-1.28,2.78-2.72,4.22-4.18A29.15,29.15,0,0,1,156,72.43a14,14,0,0,1,6.66-2.19,18.72,18.72,0,0,1,6.79,1,49.58,49.58,0,0,1,5.94,2.32c1.88.83,3.67,1.67,5.39,2.3a18.18,18.18,0,0,0,5,1.23,6.14,6.14,0,0,0,3.79-.78A15,15,0,0,0,193,73.08c.62-.72,1.28-1.51,2-2.33a23.78,23.78,0,0,1,2.59-2.5A15.86,15.86,0,0,1,201.06,66a17.13,17.13,0,0,1,4-1.23,42.61,42.61,0,0,1,6.9-.38,17.3,17.3,0,0,0,4.72-.45A11.62,11.62,0,0,0,220.2,62c1.32-1,2.81-2.3,4.59-3.63a79.51,79.51,0,0,1,11-7.12,82.24,82.24,0,0,1,51.71-8.66,98.35,98.35,0,0,1,25.41,7.77,122.22,122.22,0,0,1,11.68,6.12,101.8,101.8,0,0,1,11.05,7.57,79.35,79.35,0,0,1,10.19,9.55,57.71,57.71,0,0,1,8.41,12.22A45.6,45.6,0,0,1,359,101.13c.56,5.35.52,11.44-2.41,18a25.84,25.84,0,0,1-2.9,4.84,22.17,22.17,0,0,1-4.3,4.3,23,23,0,0,1-5.12,3,26.7,26.7,0,0,1-5.17,1.63,40.23,40.23,0,0,1-8.6.74c-1.25,0-2.34-.06-3.4-.1s-2-.08-2.68-.08a16.14,16.14,0,0,0-6.67,1.1,7.91,7.91,0,0,0-2,1.31,9.35,9.35,0,0,0-1.6,1.91,23.48,23.48,0,0,0-2.59,7.23c-.68,3.13-1.14,6.78-1.64,10.87l-1.5,12-.74,5.94c-.22,1.88-.39,3.6-.47,5.14a15.59,15.59,0,0,0,.7,6.57,7.49,7.49,0,0,0,.47.94,12,12,0,0,0,.75,1.07,20.29,20.29,0,0,0,2.55,2.63c1.08,1,2.37,2,3.83,3.08,1.69,1.3,3.38,2.58,5.07,4,3.37,2.72,6.75,5.58,10,8.78a95.52,95.52,0,0,1,17.25,22.29,124,124,0,0,1,6,12.58L355,244l.3.79.26.6.49,1.16,1,2.3.5,1.15.58,1.07a41.35,41.35,0,0,0,11.06,14,45.05,45.05,0,0,0,15.44,7.71c1.5.44,3.09.8,4.62,1.22s3.26.64,4.9,1l5.13.81,5.32.64,5.47.56,5.62.42a28.55,28.55,0,0,1,9,1.71,27.29,27.29,0,0,1,6.55,3.51,26.44,26.44,0,0,1,3.33,2.83,16.09,16.09,0,0,1,1.47,1.65c.46.56.91,1.12,1.33,1.69a33.6,33.6,0,0,1,2.2,3.67c.29.62.56,1.25.82,1.87a14.36,14.36,0,0,1,.69,1.83,31,31,0,0,1,.95,3.43l.33,1.61.21,1.45a42,42,0,0,1,.07,9c-.15,2.29-.32,4.09-.35,5.3,0,.25,0,.59,0,.78l0,.28a.43.43,0,0,0,0,.22,4.89,4.89,0,0,0,.12.7,10.08,10.08,0,0,0,2.72,4,27.93,27.93,0,0,0,2.71,2.26,35.45,35.45,0,0,0,3.39,2.14c1.29.75,2.75,1.47,4.32,2.22s3.26,1.52,5.06,2.31c3.61,1.58,7.68,3.26,11.92,5.47a87.15,87.15,0,0,1,31.17,27.68c.66.95,1.3,1.91,1.91,2.9.31.5.6.94.93,1.5s.65,1.08,1,1.65a46.46,46.46,0,0,1,3.24,7.17,34.66,34.66,0,0,1,1.88,8.53,24,24,0,0,1-1.27,10.14,24.57,24.57,0,0,1-1.12,2.51,19.6,19.6,0,0,1-1.41,2.32c-.52.71-1.05,1.41-1.61,2.08s-1.28,1.29-1.94,1.9a21.33,21.33,0,0,1-9.33,4.67,27.3,27.3,0,0,1-9,.38,33.75,33.75,0,0,1-7.8-1.93,39.48,39.48,0,0,1-7-3.47c-2.23-1.43-3.8-2.68-5.47-3.93-3.22-2.52-6.37-4.79-9.49-6.94a70,70,0,0,0-9.28-5.46,22,22,0,0,0-4.24-1.48,5.36,5.36,0,0,0-2.68-.1c-.2.07-.27.14-.3.23s-.06,0-.07.13-.08.06-.12.22a.8.8,0,0,1-.08.16l-.05.08-.05.13a5.09,5.09,0,0,1-.22.54c-.12.51-.31.94-.42,1.62a4,4,0,0,0-.14.82,3.2,3.2,0,0,0,0,.61,6.2,6.2,0,0,0,.39,1.28c.38.87.91,1.78,1.46,2.76a11.63,11.63,0,0,0,1,1.42,11.38,11.38,0,0,0,1.21,1.36l.71.71c.25.25.55.5.81.75.51.48,1.21,1,1.81,1.54,1.36,1.09,2.78,2.19,4.45,3.48.79.59,1.7,1.32,2.56,2l1.35,1.13.68.56.7.64a42.14,42.14,0,0,1,5.64,6,33.7,33.7,0,0,1,4.66,8.56,24.87,24.87,0,0,1,.76,2.45,22.28,22.28,0,0,1,.59,2.48,37.76,37.76,0,0,1,.6,5,33.55,33.55,0,0,1-1.21,10.22,33,33,0,0,1-4.47,9.7,32,32,0,0,1-3.52,4.33c-.62.68-1.39,1.35-2,1.93l-.79.82A19.56,19.56,0,0,0,454.7,464a8.82,8.82,0,0,0-1,2.27,19,19,0,0,0-.52,2.59c-.07.53-.17,1.09-.23,1.72l0,.22-.11.52-.23,1.12-.5,2.24a51.12,51.12,0,0,1-7.46,16.38c-.87,1.2-1.74,2.41-2.67,3.56S440,496.89,439,498s-2.09,2.1-3.21,3.07-2.24,1.94-3.44,2.81a54.24,54.24,0,0,1-16,8.28,41.35,41.35,0,0,1-4.47,1.19l-2.28.48c-.76.15-1.55.22-2.33.33l-2.34.28c-.76.07-1.68.13-2.77.13a24.74,24.74,0,0,1-8.65-1.56,22.19,22.19,0,0,1-8.9-6.2c-.54-.66-1.06-1.34-1.53-2s-.83-1.36-1.2-2.05-.6-1.37-.88-2.05a14,14,0,0,1-.63-2,21.34,21.34,0,0,1-.53-7.32,25.18,25.18,0,0,1,1.46-6.18c.17-.48.36-.94.57-1.4s.37-.91.6-1.36c.45-.89.9-1.76,1.4-2.61.13-.21.26-.43.38-.61l.37-.5c.24-.34.46-.68.7-1,.49-.63,1-1.22,1.43-1.79,1.87-2.25,3.45-4.12,5-5.7s2.94-2.94,4.07-4.24a21.71,21.71,0,0,0,1.53-2,11.62,11.62,0,0,0,.72-1l.61-1.1a27,27,0,0,0,3-9.63,44.68,44.68,0,0,0-.05-10.4c-.18-1.74-.54-3.47-.89-5.2l-.7-2.56c-.25-.84-.57-1.68-.87-2.51s-.68-1.64-1-2.45l-.53-1.21-.59-1.19a47.93,47.93,0,0,0-2.65-4.56L393,420l-1.63-2.13c-1.13-1.39-2.27-2.77-3.49-4.1s-2.46-2.63-3.72-3.93l-1.9-1.94-2-1.9-8.12-7.62L368,394.49a56.85,56.85,0,0,1-4.08-4.13c-1.31-1.48-2.54-3.05-3.74-4.71s-2.34-3.41-3.5-5.14-2.31-3.49-3.53-5.15a49,49,0,0,0-3.89-4.66,71.92,71.92,0,0,0-9.07-7.62c-3.13-2.38-6.32-4.63-9.6-6.7-1.65-1-3.29-2.05-5-3s-3.41-1.87-5.15-2.79c-7-3.67-14.48-7-21.78-11.42q-5.44-3.24-10.55-6.94t-10-7.63c-6.46-5.28-12.53-10.91-18.41-16.6-2.94-2.86-5.78-5.76-8.63-8.64s-5.68-5.75-8.48-8.73a197,197,0,0,1-16.22-19.17,101.94,101.94,0,0,1-12.87-22.94c-.44-1-.77-2.12-1.15-3.18s-.75-2.13-1-3.23-.64-2.18-.93-3.27-.53-2.19-.76-3.27c-.93-4.3-1.53-8.39-2.2-12.21a108.06,108.06,0,0,0-2.32-10.82,67.94,67.94,0,0,0-3.64-10.09,45.3,45.3,0,0,0-12.13-16.34l-1-.79-1-.67c-.33-.22-.65-.47-1-.68l-1.05-.6a20.27,20.27,0,0,0-2.18-1.11,21.76,21.76,0,0,0-2.28-.93,30.6,30.6,0,0,0-9.76-1.91,24.71,24.71,0,0,0-9.66,1.57,20.33,20.33,0,0,0-4.27,2.21l-1,.68a9.61,9.61,0,0,0-.91.78l-.91.79c-.3.29-.58.6-.88.92-1.19,1.31-2.42,2.92-3.94,4.62a21.68,21.68,0,0,1-5.77,4.78,25.36,25.36,0,0,1-6.74,2.42,32.58,32.58,0,0,1-6.76.77,26.34,26.34,0,0,1-3.51-.19,14.71,14.71,0,0,1-3.8-1,11.36,11.36,0,0,1-5.84-5.55,20.57,20.57,0,0,1-1.83-6.72c-.08-.53-.11-1.09-.17-1.57a9.75,9.75,0,0,0-.19-1.08,4.65,4.65,0,0,0-.35-1,6.07,6.07,0,0,0-.53-1,15.83,15.83,0,0,0-3.82-3.59,42.56,42.56,0,0,1-4.95-3.95c-.38-.42-.8-.8-1.15-1.27s-.71-.91-1-1.34c-.6-.88-1.13-1.79-1.65-2.7a40.16,40.16,0,0,1-2.57-5.73,44.21,44.21,0,0,1-2.55-12.11A65.46,65.46,0,0,1,96.7,138c.22-2,.54-4,.86-6l.84-6a22.09,22.09,0,0,1,1.55-5.89,5.26,5.26,0,0,1,2.06-2.27,7.93,7.93,0,0,1,2.93-.84,11.88,11.88,0,0,0,8.65-7.52,9.45,9.45,0,0,0,.65-2.91,8.29,8.29,0,0,0-.41-3,21.69,21.69,0,0,0-1.15-2.78,8.22,8.22,0,0,1-.74-2.91Zm.1,0c.1,2.07,1.53,3.65,2.17,5.6a8.61,8.61,0,0,1,.56,3.07,10.15,10.15,0,0,1-.55,3.09,12.61,12.61,0,0,1-9,8.45l-.78.16a5.62,5.62,0,0,0-.62.15,4.44,4.44,0,0,0-1.1.5,4.23,4.23,0,0,0-1.46,1.78,21.15,21.15,0,0,0-1.23,5.49l-.66,6c-.27,2-.53,4-.69,6-.68,7.87-.22,15.92,2.71,23.19a38.59,38.59,0,0,0,2.58,5.24c.51.83,1,1.65,1.61,2.43a14.28,14.28,0,0,0,1.83,2.1,40.54,40.54,0,0,0,4.72,3.47,19.68,19.68,0,0,1,4.8,4.2,10.13,10.13,0,0,1,1.53,3,11.44,11.44,0,0,1,.37,1.64c.09.51.13,1,.22,1.46a17.54,17.54,0,0,0,1.64,5.42,7.27,7.27,0,0,0,3.86,3.51,13.72,13.72,0,0,0,5.55.68,29,29,0,0,0,5.77-.88,21.17,21.17,0,0,0,5.38-2.12,16.08,16.08,0,0,0,4.27-3.82c1.26-1.51,2.41-3.16,3.71-4.75.33-.39.66-.79,1-1.17l1.1-1.09c.38-.35.71-.75,1.13-1.07l1.21-1a26.13,26.13,0,0,1,5.31-3.14,30.78,30.78,0,0,1,11.93-2.61A37,37,0,0,1,193.73,180a51.84,51.84,0,0,1,15.13,18.66,86.63,86.63,0,0,1,7.35,22.95c.75,4,1.41,7.92,2.31,11.84A78.2,78.2,0,0,0,222.15,245a100.52,100.52,0,0,0,11.91,20.93,231.41,231.41,0,0,0,15.31,18.64c5.39,6,10.81,11.93,16.32,17.79C276.72,314,288.4,325.27,302,334c6.75,4.4,14,7.93,21.06,11.77a156.91,156.91,0,0,1,20.31,13c6.46,4.8,12.65,10,18.83,15.11s12.35,10.32,18.17,15.88a121.68,121.68,0,0,1,15.93,18.08,77.75,77.75,0,0,1,6.22,10.33,67.45,67.45,0,0,1,4.31,11.25,55.94,55.94,0,0,1,1.63,23.89,42.34,42.34,0,0,1-3.62,11.47l-.66,1.36c-.22.45-.51.87-.76,1.3-.53.85-1,1.75-1.59,2.56-1.14,1.66-2.38,3.24-3.57,4.87A34.64,34.64,0,0,0,395,480a13.88,13.88,0,0,0-1.63,5.76,11.63,11.63,0,0,0,.2,3,10,10,0,0,0,.94,2.86,7.38,7.38,0,0,0,4.37,3.9,14.23,14.23,0,0,0,6,.08c.49-.07,1-.1,1.49-.2l1.47-.32a26.73,26.73,0,0,0,2.92-.78,38.09,38.09,0,0,0,24.62-24.64c.25-1,.53-1.94.76-2.92s.49-1.95.78-2.91a29.51,29.51,0,0,1,2.34-5.55,31.79,31.79,0,0,1,7.87-9.06c.78-.63,1.58-1.25,2.32-1.93a17.76,17.76,0,0,0,2-2.23,18.93,18.93,0,0,0,2.81-5.31,19.87,19.87,0,0,0,1.05-5.92,27.48,27.48,0,0,0-.19-3,9.18,9.18,0,0,0-.27-1.48,15,15,0,0,0-.35-1.47,21.45,21.45,0,0,0-2.57-5.43,34.21,34.21,0,0,0-3.81-4.67c-2.79-2.91-5.91-5.46-8.77-8.29a29.94,29.94,0,0,1-7-9.71,16.54,16.54,0,0,1-.73-11.78,19.15,19.15,0,0,1,1.08-2.81,13.65,13.65,0,0,1,1.66-2.51,9,9,0,0,1,5.1-3,14.2,14.2,0,0,1,6,.25,32.73,32.73,0,0,1,5.69,2c7.33,3.37,13.81,8.26,20.31,13,1.63,1.17,3.26,2.36,5,3.41a28.19,28.19,0,0,0,5.47,2.51,21.28,21.28,0,0,0,11.87.85,12.41,12.41,0,0,0,5.27-2.8l1-1.09.89-1.22a12.51,12.51,0,0,0,1.32-2.7,14,14,0,0,0,.52-6,23.07,23.07,0,0,0-1.55-5.82,33.83,33.83,0,0,0-2.76-5.35c-.53-.86-1.1-1.69-1.69-2.5s-1.18-1.63-1.79-2.42a74.61,74.61,0,0,0-8.12-8.92A76,76,0,0,0,467,349.35c-7.29-3.41-15.13-5.51-22.3-9.2a38.81,38.81,0,0,1-9.8-7,24.37,24.37,0,0,1-6.33-10.14c-1.2-3.88-.8-8-.65-12a31,31,0,0,0-.22-6,10.35,10.35,0,0,0-2.38-5.45,10,10,0,0,0-5.15-3,36.35,36.35,0,0,0-6-.83l-6-.56-6-.72a111.76,111.76,0,0,1-23.48-5.41A56.42,56.42,0,0,1,344.58,257l-.64-1.37-.52-1.42-1.05-2.83c-.71-1.88-1.36-3.78-2-5.68a96.8,96.8,0,0,0-4.84-11,77.56,77.56,0,0,0-14.35-19.27c-2.84-2.85-5.89-5.48-9-8s-6.39-4.9-9.36-7.62a25.48,25.48,0,0,1-7-9.7,28.45,28.45,0,0,1-1.37-11.91c.26-4,.92-8,1.44-12l1.62-12c.55-4,1.05-8,1.93-11.91a34.88,34.88,0,0,1,4.36-11.2,20.54,20.54,0,0,1,9.07-7.73,27.76,27.76,0,0,1,11.82-2c4,.12,8.07.6,12-.17a13.24,13.24,0,0,0,5.47-2.39,12.2,12.2,0,0,0,3.68-4.67,19,19,0,0,0,1.56-5.79,20.16,20.16,0,0,0,.13-3l-.05-1.5a8.43,8.43,0,0,0-.12-1.5A34.35,34.35,0,0,0,344,90.83c-3.56-7.23-9.1-13.31-15.25-18.45a95.47,95.47,0,0,0-9.78-7,109.38,109.38,0,0,0-10.49-5.93,91.43,91.43,0,0,0-22.74-7.84,75.09,75.09,0,0,0-47.07,5.78,74.08,74.08,0,0,0-10.43,6c-1.67,1.11-3.24,2.38-4.94,3.46a15.81,15.81,0,0,1-5.52,2.4c-4,.79-8.05-.28-12,.23a12.65,12.65,0,0,0-2.9.76,12,12,0,0,0-2.57,1.54,38.81,38.81,0,0,0-4.34,4.17,17.29,17.29,0,0,1-4.71,3.75,9.94,9.94,0,0,1-5.91.82c-4-.6-7.62-2.62-11.19-4.43a45.89,45.89,0,0,0-5.5-2.46,16.2,16.2,0,0,0-5.88-1.07,11.94,11.94,0,0,0-5.7,1.66,27.32,27.32,0,0,0-4.72,3.72c-1.46,1.38-2.89,2.8-4.44,4.09a18.47,18.47,0,0,1-5.18,3.07c-3.81,1.42-7.91,1.53-11.91,1.71a57.49,57.49,0,0,0-6,.48A24.17,24.17,0,0,0,119,89a15.82,15.82,0,0,0-4.93,3.4A7.3,7.3,0,0,0,112,97.88Z"/><path d="M173.24,362c.27-2.79.54-5.59.66-8.4a48.84,48.84,0,0,0-.42-8.38,27.84,27.84,0,0,0-2.44-7.94,20.51,20.51,0,0,0-4.94-6.43,15.08,15.08,0,0,0-7.06-3.33,20.54,20.54,0,0,0-7.81.16,45.34,45.34,0,0,0-7.72,2.28l-7.76,3.16c-2.47,1-4.51,2.21-5.56,3.62a6.87,6.87,0,0,0-1.13,2.34,12.7,12.7,0,0,0-.44,3,38.24,38.24,0,0,0,.75,7.3l.35,2.08.33,2.26c.17,1.5.34,3,.43,4.5a111.4,111.4,0,0,1-.32,17.74,41.76,41.76,0,0,1-.53,4.32,29.58,29.58,0,0,1-1.12,4.2c-.92,2.75-2,5.45-2.65,8.2l-2,8.17a52.55,52.55,0,0,0-1.3,7.65,20.39,20.39,0,0,0,.55,7,13.21,13.21,0,0,0,3.1,5.78,10.17,10.17,0,0,0,2.53,1.9,15.16,15.16,0,0,0,3.27,1.17,29.31,29.31,0,0,0,3.8.6l2,.18,2,.13A7.93,7.93,0,0,0,143,425a2.31,2.31,0,0,0,.91-.59,5.77,5.77,0,0,0,.84-1.28l.94-1.91a13.6,13.6,0,0,1,1.31-2.09,11,11,0,0,1,3.85-3.3,12.81,12.81,0,0,1,4.71-1.2c1.51-.12,2.94-.08,4.25-.17a9.11,9.11,0,0,0,3.54-.76,6.17,6.17,0,0,0,2.55-2.35,14.48,14.48,0,0,0,1.56-3.58c.38-1.33.76-2.66,1.07-4,.64-2.7,1.16-5.45,1.57-8.21C171.74,384.5,172.18,373.21,173.24,362Zm0,0c-1.22,11.2-.73,22.46-1.8,33.71-.25,2.82-.61,5.63-1.12,8.43-.23,1.4-.54,2.79-.86,4.19a17.49,17.49,0,0,1-1.5,4.24,8.83,8.83,0,0,1-3.32,3.55,12,12,0,0,1-4.54,1.4c-2.95.37-5.64.42-7.51,1.6a7.06,7.06,0,0,0-2.3,2.34,10.39,10.39,0,0,0-.81,1.55l-.75,1.95a9.84,9.84,0,0,1-1.28,2.35,7.14,7.14,0,0,1-2.37,2,12.45,12.45,0,0,1-5.14,1.18l-2.2.06c-.72,0-1.45,0-2.19,0a36.25,36.25,0,0,1-4.57-.3,20.51,20.51,0,0,1-4.79-1.24,16.26,16.26,0,0,1-4.49-2.71c-5.4-4.65-7.4-11.66-7.49-18a60.59,60.59,0,0,1,.61-9.09l1.15-8.4a62,62,0,0,0,.29-8.4,40.12,40.12,0,0,1,.83-8.16c.47-2.67.85-5.33,1.18-8s.56-5.29.69-7.91c.09-1.31.09-2.61.1-3.91l0-1.94-.07-2.12a42,42,0,0,1,.51-9.53,20.93,20.93,0,0,1,1.66-5.1,15,15,0,0,1,3.44-4.67,15.91,15.91,0,0,1,4.63-2.86,29.92,29.92,0,0,1,4.52-1.42c1.45-.34,2.83-.62,4.15-.93s2.78-.66,4.18-1a48.76,48.76,0,0,1,8.76-1.2,28.14,28.14,0,0,1,4.49.16,21,21,0,0,1,4.43.93,18,18,0,0,1,7.56,4.7,22.54,22.54,0,0,1,4.63,7.32,29,29,0,0,1,2,8.27,48.68,48.68,0,0,1,.1,8.45C173.85,356.45,173.55,359.24,173.24,362Z"/><path d="M299.53,491a30.09,30.09,0,0,0-7.8-.52,8.69,8.69,0,0,0-3.67,1.19,7.24,7.24,0,0,0-2.59,2.79,10.88,10.88,0,0,0-1.19,3.65,15.83,15.83,0,0,0-.14,3.83,19.77,19.77,0,0,0,2.16,7.3,20.9,20.9,0,0,0,4.59,6,36.55,36.55,0,0,0,6.06,4.56,67.73,67.73,0,0,0,6.81,3.58L307.3,525l.9.41.95.45c.64.3,1.23.64,1.84,1,4.78,2.68,9.1,5.7,13.46,8.48a91.92,91.92,0,0,0,13.08,7.37c4.37,1.92,8.85,3.07,12.5,2.35a12,12,0,0,0,2.65-.77c.39-.2.86-.42,1.2-.61a5.14,5.14,0,0,0,.81-.6,6.49,6.49,0,0,0,2.09-3.76,5.88,5.88,0,0,0,0-2,12.36,12.36,0,0,0-.92-2.71c-.46-1.06-1-2.25-1.6-3.65a20.77,20.77,0,0,1-1.41-4.92,14.12,14.12,0,0,1,.33-5.73,18,18,0,0,1,2.07-4.82,24.13,24.13,0,0,1,2.83-3.79c1-1.14,2.07-2.14,3.05-3.05a64.09,64.09,0,0,0,5.22-5.05,9.78,9.78,0,0,0,2.52-5,4.56,4.56,0,0,0-1.34-4.23,5.62,5.62,0,0,0-2.3-1.17l-.72-.17-.81-.09a13.3,13.3,0,0,0-1.68-.05c-4.62.07-9.74,2.26-15.42,2.42-5.36,0-10.57-.27-15.83-.6Q315,493.6,299.53,491Zm0,0a171.37,171.37,0,0,0,31.25,2.21c2.61,0,5.22-.19,7.82-.36s5.24-.39,7.75-.67c4.82-.65,9.32-3.45,15.17-4.41a18.07,18.07,0,0,1,2.24-.23l1.15,0,1.23.1a11.53,11.53,0,0,1,4.9,1.73,10.39,10.39,0,0,1,3.68,4.17,11.57,11.57,0,0,1,1.15,5.3,15.33,15.33,0,0,1-1,5.08,20.37,20.37,0,0,1-2.24,4.28,54.79,54.79,0,0,1-5.42,6.47c-.86,1-1.64,1.82-2.29,2.7a18.66,18.66,0,0,0-1.7,2.61,8.84,8.84,0,0,0-.87,2.43,5.49,5.49,0,0,0,0,2.06,12.5,12.5,0,0,0,.89,2.56c.46,1,1.06,2.16,1.65,3.5a22.31,22.31,0,0,1,1.61,4.71,15.19,15.19,0,0,1,.1,5.74,16.35,16.35,0,0,1-5.53,9.62,14.74,14.74,0,0,1-2.4,1.64c-.82.42-1.55.73-2.34,1.07a21.81,21.81,0,0,1-4.92,1.25,23.93,23.93,0,0,1-9.58-.79,38,38,0,0,1-8.14-3.39,90.68,90.68,0,0,1-13.38-9.46c-4.1-3.37-8-6.91-12-9.9-.5-.35-1-.73-1.51-1l-.77-.5-.84-.52-3.37-2.1c-2.24-1.43-4.46-2.94-6.59-4.59-4.25-3.27-8.14-7.37-10.19-12.43a22.53,22.53,0,0,1-1.69-7.83,15,15,0,0,1,1.79-7.7,7.69,7.69,0,0,1,2.79-2.79,9.48,9.48,0,0,1,3.77-1.1A30.16,30.16,0,0,1,299.53,491Z"/></svg>