<svg id="Layer_1" data-name="Layer 1" xmlns="http://www.w3.org/2000/svg" viewBox="0 0 600 600"><title>Kenya</title><path d="M122.07,50.6c1.92-.1,3.85-.2,5.78-.27s3.85-.22,5.78-.42c3.86-.34,7.73-.61,11.6-.64q11.63-.18,23.25.51c15.49.82,31,2.73,46.31,4.86l23,3.33c7.74,1.22,15.78,2.76,23.57,6s14.7,7.81,21.13,12.23S295,85,301.19,88.08a46.28,46.28,0,0,0,9.3,3.59,54.06,54.06,0,0,0,9.88,1.58c6.87.56,14.25.18,22.17,0,2,0,4-.07,6.06,0l6,.12a76.34,76.34,0,0,1,13.28,1.35c1.22.27,2.45.58,3.74,1,.64.2,1.28.41,1.95.68l1,.38.86.37c2.28,1,4.22,2.1,5.71,2.85.77.4,1.36.66,1.9.89a7.17,7.17,0,0,0,1.2.37,4.12,4.12,0,0,0,1.71,0,5.6,5.6,0,0,0,2-.67,9.27,9.27,0,0,0,1.95-1.57c1.58-1.53,3.59-4.43,6.38-8,.71-.87,1.49-1.79,2.33-2.72.42-.46.88-.93,1.34-1.4l.71-.7.62-.57c1.61-1.54,3.3-3,5-4.37a89.18,89.18,0,0,1,11-7.46,90.33,90.33,0,0,1,12-5.76A61.73,61.73,0,0,1,443,64.21a49.16,49.16,0,0,1,7.7-.5,52.46,52.46,0,0,1,7.61.76,82.55,82.55,0,0,1,13.1,3.67l5.6,2,2.68,1,.66.24.16.06-.07,0s0,0,.15,0a28.63,28.63,0,0,0,3.67.26c1.63,0,3.48,0,5.43,0a90.5,90.5,0,0,1,13.44.59A34,34,0,0,1,512,74.75a23.81,23.81,0,0,1,5.21,3.14,21.09,21.09,0,0,1,7.39,11.67,23.26,23.26,0,0,1,.53,3,22.2,22.2,0,0,1,.09,3.55,23.13,23.13,0,0,1-1.27,6.24,28.46,28.46,0,0,1-2.18,4.75,37.14,37.14,0,0,1-2.41,3.67q-1.2,1.62-2.49,3.09a57.91,57.91,0,0,1-5.27,5.25c-3.55,3.12-7,5.6-10.12,7.86a86.72,86.72,0,0,0-8,6.28,26.22,26.22,0,0,0-5,6.05,31.36,31.36,0,0,0-3.27,7.61c-1.71,5.67-2.27,12.38-2.6,19.52-.18,3.59-.32,7.28-.44,11.17s-.45,7.71-.91,11.56-.89,7.7-1.17,11.55c-.19,1.92-.21,3.86-.32,5.78s-.06,3.86,0,5.8c1.86,31,6.75,62,1.47,92.77-.62,1.91-1.28,3.82-1.77,5.73a29.25,29.25,0,0,0-.56,2.88c-.12,1-.21,1.92-.28,2.85l-.44,5.51c-.11,1.79-.18,3.53-.22,5.23-.13,6.79.7,12.85,2.73,17.43a25,25,0,0,0,1.7,3.25c.68,1.07,1.54,2.25,2.53,3.51,2,2.55,4.53,5.37,7.33,8.8a56.62,56.62,0,0,1,8.28,13.15,36.62,36.62,0,0,1,2.65,9.19c.11.81.22,1.68.28,2.45s.11,1.55.11,2.38a34.07,34.07,0,0,1-.29,5.06,30.61,30.61,0,0,1-3.39,10.68,31,31,0,0,1-7.13,8.82,36.86,36.86,0,0,1-8.42,5.4,48.06,48.06,0,0,1-8.2,2.94,56.34,56.34,0,0,1-7.8,1.46l-.76.1-.48.07c-.3,0-.59.1-.84.16a8,8,0,0,0-1.22.33c-.28.1-.45.2-.42.22a1.36,1.36,0,0,0,.57-.26,5.7,5.7,0,0,0,1.28-1.11,7.45,7.45,0,0,0,.54-.72,5,5,0,0,0,.37-.67c.41-.87.32-1,.28,0s0,2.84-.06,5.57a41.23,41.23,0,0,1-.42,4.82,26.79,26.79,0,0,1-.6,2.93,26.2,26.2,0,0,1-.92,3c-.2.51-.39,1-.61,1.54s-.5,1-.76,1.56a28.08,28.08,0,0,1-1.78,3,28.81,28.81,0,0,1-4.47,5.12,37,37,0,0,1-8.56,5.66c-2.43,1.19-4.08,1.87-5.71,2.57-3.34,1.44-6.19,2.66-8.18,3.68-1,.51-1.8.93-2.44,1.31a14.19,14.19,0,0,0-1.68,1.16,7.1,7.1,0,0,0-1.51,1.86c-.13.2-.24.44-.36.67a4.28,4.28,0,0,0-.23.61l-.25.73-1,2.91c-2.82,7.71-5.77,15.21-8.79,22.58-.76,1.84-1.16,3.79-1.75,5.68a12.11,12.11,0,0,1-.47,1.4,4.48,4.48,0,0,0-.63,1.35,25.09,25.09,0,0,0-.26,3,28.49,28.49,0,0,1-.58,6c-.52,1.91-1.06,3.8-1.6,5.69q-1.63,5.66-3.32,11.27L409,531.29c-.53,1.83-1.14,3.88-1.88,6A49.6,49.6,0,0,1,400,551.37a34.84,34.84,0,0,1-15.67,11.78,42.56,42.56,0,0,1-18.12,2.52,48.16,48.16,0,0,1-8.57-1.38c-1.4-.36-2.79-.77-4.16-1.25s-2.56-.94-3.79-1.47a71.12,71.12,0,0,1-13.06-7.41c-3.82-2.67-7.19-5.35-10.25-7.84-6-4.94-11.93-9.85-17.78-14.91S297,521.26,291.22,516.09l-2.22-2c-.84-.78-1.67-1.55-2.52-2.4-1.69-1.63-3.39-3.44-5.07-5.37a32.85,32.85,0,0,1-4.6-6.46,25.77,25.77,0,0,1-2.57-7.82L274,490l-.09-2.06c0-1.35,0-2.68.07-4,.17-2.63.49-5.1.69-7.43l0-.43.08-.26a3.67,3.67,0,0,0,.14-.52c.07-.34.14-.68.19-1a7.65,7.65,0,0,0-.05-1.92,10.73,10.73,0,0,0-1.41-3.37,19.11,19.11,0,0,0-6.86-5.92c-1.53-.89-3.21-1.65-4.94-2.49l-5.39-2.47c-7.05-3.15-14.14-6.23-21.21-9.34l-5.35-2.23-5.4-2.14c-3.59-1.45-7.25-2.74-10.88-4.11s-7.3-2.63-10.93-4l-5.45-2-5.4-2.14q-10.78-4.28-21.12-9.53a64.79,64.79,0,0,1-9.86-6.23c-1.57-1.18-3.1-2.45-4.63-3.73l-4.58-3.84a76,76,0,0,0-9.55-6.85c-.83-.52-1.68-1-2.53-1.44s-1.71-.9-2.57-1.33c-1.72-.88-3.44-1.74-5.2-2.57-3.49-1.71-7.07-3.32-10.66-5s-7.21-3.46-10.85-5.35a95.43,95.43,0,0,1-10.68-6.58,60.65,60.65,0,0,1-9.76-8.74,50.57,50.57,0,0,1-4.15-5.35,41.61,41.61,0,0,1-3.46-6.26A37.55,37.55,0,0,1,79,345.42a34.41,34.41,0,0,1,.48-7,40.47,40.47,0,0,1,1.72-6.77,43.46,43.46,0,0,1,6.74-12.3,32.66,32.66,0,0,1,10.85-9.27,24.05,24.05,0,0,1,3.4-1.4,32.53,32.53,0,0,1,3.32-.9c2.16-.48,4.23-.8,6.19-1.06s3.86-.49,5.48-.82a29.1,29.1,0,0,0,4.67-1.33,13.21,13.21,0,0,0,3.62-2,3.61,3.61,0,0,0,1.41-1.9,2.65,2.65,0,0,0,0-.86,3.42,3.42,0,0,0-.09-.53,1.6,1.6,0,0,0-.13-.3,3.57,3.57,0,0,0-1.43-1.33,7,7,0,0,0-2.83-.85,6.65,6.65,0,0,0-1.42,0,21.66,21.66,0,0,0-2.22.42,27.33,27.33,0,0,0-4.43,1.46c-.73.31-1.46.65-2.18,1l-1.08.58-1.19.65a14.75,14.75,0,0,0-3.7,2.62c-.24.24-.4.45-.63.71s-.78.76-1.27,1.2a17.49,17.49,0,0,1-4.18,2.82,13.69,13.69,0,0,1-3.13,1,11.77,11.77,0,0,1-4.15.09,11.31,11.31,0,0,1-4.57-1.79,13.11,13.11,0,0,1-3-2.85A19.45,19.45,0,0,1,82.63,300c-.52-1.3-.88-2.41-1.19-3.23-.11-.27-.38-1-.57-1.58s-.4-1.21-.57-1.82c-.33-1.24-.6-2.48-.81-3.74a35.06,35.06,0,0,1-.34-7.58,42.09,42.09,0,0,1,3.49-13.79l.34-.79.42-.92c.29-.62.59-1.2.89-1.77.61-1.12,1.22-2.11,1.78-3,1.14-1.8,2.08-3.2,2.71-4.33l.52-.94.21-.28a111.46,111.46,0,0,1,11.61-13c4-3.87,7.93-7.4,11.59-10.95a97.87,97.87,0,0,0,9.79-10.86,61.59,61.59,0,0,0,7.14-12.31,68.23,68.23,0,0,0,5.59-28.46A69,69,0,0,0,133.44,166a94.14,94.14,0,0,0-4.81-14.48c-1-2.41-2-4.81-3.12-7.22s-2.2-4.84-3.32-7.19c-2.26-4.74-4.75-9.42-7.25-14.12-5-9.38-10.2-18.79-14.57-28.6a128.68,128.68,0,0,1-5.72-15c-.41-1.28-.74-2.58-1.12-3.86a18.9,18.9,0,0,1-.81-4,14.37,14.37,0,0,1,1.49-7.9,18.2,18.2,0,0,1,5.23-6.1,29.42,29.42,0,0,1,7-3.9,42.11,42.11,0,0,1,15.64-2.93Zm0,.09a43.09,43.09,0,0,0-15.4,3.51,29.06,29.06,0,0,0-6.66,4,17.13,17.13,0,0,0-4.7,5.91,12.9,12.9,0,0,0-1.07,7.21A18.14,18.14,0,0,0,95.13,75l1.2,3.74a118.91,118.91,0,0,0,6.18,14.55c4.7,9.49,10.2,18.6,15.61,27.79,2.7,4.59,5.38,9.21,7.9,13.93s4.91,9.47,7.18,14.33a100.7,100.7,0,0,1,5.77,15,75.51,75.51,0,0,1-2.14,47.5,69.39,69.39,0,0,1-7.45,14.23,96.92,96.92,0,0,1-10.29,12.3c-7.4,7.67-15.45,14.74-21.65,23.41l0,0c-1.77,3.46-4.18,6.53-5.53,10.14a42.77,42.77,0,0,0-2.87,11.15A29.9,29.9,0,0,0,90,294.54a16.68,16.68,0,0,0,2,5.38,3.63,3.63,0,0,0,2.3,1.58,5.17,5.17,0,0,0,2.82-.4c1.8-.74,3.13-2.22,4.67-3.37a32.78,32.78,0,0,1,5-3,38.54,38.54,0,0,1,10.84-4,17.39,17.39,0,0,1,5.75-.32,12.91,12.91,0,0,1,5.38,2,9.19,9.19,0,0,1,3.62,4.4,8.71,8.71,0,0,1,0,5.68,9.65,9.65,0,0,1-3.5,4.5,19.8,19.8,0,0,1-5.12,2.66,34.91,34.91,0,0,1-5.59,1.49c-1.9.34-3.82.56-5.74.82-3.8.52-7.7,1.08-11.16,2.85a23.1,23.1,0,0,0-8.49,7.7C88.39,329,86.89,337,87.5,344.7a36.66,36.66,0,0,0,2.72,11.21,42.69,42.69,0,0,0,6,9.85,70.52,70.52,0,0,0,17.44,15.08,197,197,0,0,0,20.39,11l41.75,20.1,83.5,40.17c3.47,1.7,7,3.19,10.48,4.93a33.64,33.64,0,0,1,9.47,6.57,22.8,22.8,0,0,1,5.49,10.06,57.12,57.12,0,0,0,4.15,10.79,46,46,0,0,0,6.56,9.51,90.24,90.24,0,0,0,8.29,8.07l17.29,15.42,17.29,15.43C344.1,538,350,543.11,357,546.49a33.71,33.71,0,0,0,11,3.31,26.71,26.71,0,0,0,11.44-1.06,20.57,20.57,0,0,0,5.15-2.59,21.36,21.36,0,0,0,4.22-3.95,38.12,38.12,0,0,0,5.62-10.07c1.44-3.58,2.71-7.23,4-10.85s2.62-7.27,3.89-10.91c2.55-7.29,5-14.62,7.2-22s4.19-14.87,5.84-22.41c.41-1.89.75-3.79,1.21-5.67a23.46,23.46,0,0,1,2.12-5.37,24.6,24.6,0,0,1,7.86-8.37A71.78,71.78,0,0,1,436.76,441c1.74-.83,3.51-1.6,5.23-2.48a20.72,20.72,0,0,0,4.82-3.17,11.59,11.59,0,0,0,3.19-4.76,17.92,17.92,0,0,0,1-5.68c.07-1.93,0-3.86.09-5.79a16.3,16.3,0,0,1,1.13-5.65A10.35,10.35,0,0,1,455.8,409a16.08,16.08,0,0,1,5.3-2.27,35.75,35.75,0,0,1,5.72-.86,42.18,42.18,0,0,0,5.71-.92A25.33,25.33,0,0,0,483,400.17a15.37,15.37,0,0,0,5.54-9.85,21.51,21.51,0,0,0,0-5.78A22.13,22.13,0,0,0,487,379a42.14,42.14,0,0,0-6.09-9.8c-2.39-3-4.95-5.92-7.31-9a57.65,57.65,0,0,1-3.33-4.74,41.66,41.66,0,0,1-2.66-5.14c-3.06-7.13-4-14.95-4.19-22.64s.28-15.44.49-23.16L467,211.89l.76-23.15.39-11.58c.13-3.86.25-7.72.49-11.57.5-7.69,1.4-15.43,3.79-22.8a47.12,47.12,0,0,1,4.83-10.5,39.88,39.88,0,0,1,7.52-8.77c5.79-5.14,12.56-9,18.4-14.06a36.47,36.47,0,0,0,7.56-8.69,12.57,12.57,0,0,0,1.83-5.43,9.8,9.8,0,0,0-1.36-5.52,9.59,9.59,0,0,0-4.38-3.62,21.43,21.43,0,0,0-5.56-1.52,79.59,79.59,0,0,0-11.55-.56,65.64,65.64,0,0,1-11.56-.57,15.83,15.83,0,0,1-2.77-.85l-2.71-1-5.43-2a70.21,70.21,0,0,0-11.11-3.21,36.14,36.14,0,0,0-11.51-.28,50.29,50.29,0,0,0-11.16,3A79.2,79.2,0,0,0,423,84a78.14,78.14,0,0,0-9.64,6.39,52.53,52.53,0,0,0-8.43,7.89c-2.48,3-4.7,6.15-7.54,8.79a17.43,17.43,0,0,1-10.29,4.9,14.74,14.74,0,0,1-5.76-.42,25.24,25.24,0,0,1-5.32-2.28c-1.7-.92-3.37-1.89-5.12-2.7a27,27,0,0,0-5.45-1.88A67,67,0,0,0,354,103.28c-3.85-.23-7.71-.4-11.57-.44-7.72-.1-15.46,0-23.14-.92A61.71,61.71,0,0,1,308,99.49a55.52,55.52,0,0,1-10.57-4.71c-6.73-3.83-12.79-8.67-18.92-13.35s-12.39-9.28-19.42-12.52-14.56-5.13-22.12-6.64l-22.75-4.35c-15.18-2.85-30.45-5.26-45.84-6.6-7.69-.69-15.4-1.12-23.12-1.24-3.86,0-7.72-.06-11.58,0-1.93.06-3.86.11-5.79.22s-3.85.29-5.78.45Z"/></svg>