<svg id="Layer_1" data-name="Layer 1" xmlns="http://www.w3.org/2000/svg" viewBox="0 0 600 600"><title>Kyrgyztan</title><path d="M550,209.85a7.28,7.28,0,0,1-.13,2.42l-.31,1.18-.5,1.09a7.41,7.41,0,0,1-3.66,3.07c-3,1.3-6.38,1.68-8.87,3.33a8.35,8.35,0,0,0-2.77,3.39c-.7,1.36-1.23,2.87-1.95,4.39a11,11,0,0,1-3.19,4.26,10.42,10.42,0,0,1-5.08,2c-3.52.43-6.79-.11-9.77.07a12.05,12.05,0,0,0-4.11.86,15.49,15.49,0,0,0-3.67,2.16,77.4,77.4,0,0,0-6.82,6.44,44.15,44.15,0,0,1-3.81,3.45,47.17,47.17,0,0,1-4.24,2.92c-2.85,1.77-5.66,3.28-8,5a25.36,25.36,0,0,0-6,6,26.45,26.45,0,0,0-3.71,7.44l-.15.5a2.18,2.18,0,0,0-.08.36,5.85,5.85,0,0,0-.12.73c-.07.53-.1,1.21-.15,2a20.92,20.92,0,0,1-.33,3,11.11,11.11,0,0,1-4.38,7,10.83,10.83,0,0,1-1.81,1.12,13.6,13.6,0,0,1-1.83.75,27.49,27.49,0,0,1-6,1.06c-.83.08-1.6.15-2.27.24-.34,0-.63.09-.91.14l-.94.21-4.74,1-18.88,4.11-18.79,4.12a34.91,34.91,0,0,0-7.55,2.36,7.59,7.59,0,0,0-2,1.33,1.9,1.9,0,0,0-.24.28,2.08,2.08,0,0,0-.22.33,2.22,2.22,0,0,1-.25.35,2.5,2.5,0,0,1-.15.38l-.1.17-.05.21a3.45,3.45,0,0,1-.14.42c0,.36-.16.64-.19,1.11a23.94,23.94,0,0,0-.16,3.36c0,1.33,0,3,0,4.85a37.23,37.23,0,0,1-.59,6.43c-.09.58-.29,1.23-.44,1.85a15,15,0,0,1-.59,1.88c-.24.64-.5,1.28-.76,1.91s-.65,1.24-1,1.86l-.53.92-.64.92a21.57,21.57,0,0,1-1.41,1.75,23.62,23.62,0,0,1-3.19,2.93,27.47,27.47,0,0,1-6.81,3.68,37.49,37.49,0,0,1-6.48,1.77,46.5,46.5,0,0,1-5.87.65l-4.74.29a20,20,0,0,0-6.12,1.13l-.66.3c-.46.21-1,.43-1.49.64a30,30,0,0,1-3.6,1.23,21.42,21.42,0,0,1-4.81.72,17.25,17.25,0,0,1-11.72-4.05,23.16,23.16,0,0,1-3.18-3.24c-.8-1-1.4-1.8-1.87-2.44l-.61-.81-.22-.27-.08-.11,0,0c-.15-.15-.18-.11-.13-.06s.14.09.05.1-.12,0-.26.07,0,0,0,0,0,0,0,0a11.33,11.33,0,0,0-1.44,1c-.85.69-2,1.71-3.46,3l-1.21,1-.68.52-.58.44-2,1.43c-.56.42-1.07.81-1.47,1.14a11.89,11.89,0,0,0-.95.86c-.47.45-.38.61-.06-.05a2.26,2.26,0,0,0,.11-.3c.05-.15.06-.21,0-.12s-.14.74-.44,1.77a17.42,17.42,0,0,1-.7,1.89,13.71,13.71,0,0,1-1.3,2.36,14.66,14.66,0,0,1-3.94,4,15.74,15.74,0,0,1-4.05,2,18.24,18.24,0,0,1-3.1.72,32.23,32.23,0,0,1-3.87.3h-.49l-.34,0c-.22,0-.44,0-.67.07a12.65,12.65,0,0,0-1.35.22,15.14,15.14,0,0,0-2.67.8,15.9,15.9,0,0,0-4.72,2.89c-.34.29-.65.61-1,.93l-.45.49-.65.75a31.31,31.31,0,0,1-5.43,5.29,19,19,0,0,1-5.83,2.91,18.12,18.12,0,0,1-3.63.67,20,20,0,0,1-3.2,0,33,33,0,0,1-4-.63L269,367c-.18,0-.22,0-.33,0a5.58,5.58,0,0,0-2.83.63,5.29,5.29,0,0,0-2.2,1.92,11,11,0,0,0-1.2,4.06c-.38,2.3-.54,5.37-1.11,9.37a38.16,38.16,0,0,1-4.51,13.67,26.49,26.49,0,0,1-6,7.15,25.64,25.64,0,0,1-4.28,2.84,27.08,27.08,0,0,1-4.36,1.8,45.42,45.42,0,0,1-6.61,1.48l-1.12.19-.47.09-.22,0c-.1,0-.1,0-.08,0s.11,0,0,.07-1.43.77-3.73,1.87c-.57.26-1.22.53-1.91.8l-1.08.38c-.59.19-1.24.36-1.86.51a23.3,23.3,0,0,1-5.79.49,33.83,33.83,0,0,1-3.93-.36c-1.1-.15-2.08-.32-2.88-.46s-1.48-.24-1.9-.29l-.25,0h-.1l-1-.06a53.82,53.82,0,0,0-7.65.08,35.67,35.67,0,0,0-6.8,1.08,30.44,30.44,0,0,0-5.87,2.28,25.49,25.49,0,0,0-2.69,1.61c-.44.33-.84.57-1.34,1l-1.91,1.51a33.68,33.68,0,0,1-6.71,4.24c-.39.18-.76.35-1.18.52s-.83.33-1.17.43c-.73.24-1.41.48-2.19.67a26.14,26.14,0,0,1-4.84.82A25.17,25.17,0,0,1,156.71,426a28.34,28.34,0,0,1-7.76-4.19,51.38,51.38,0,0,1-9-9l-3-3.73c-.88-1.09-1.68-2-2.24-2.61a9,9,0,0,0-2.93-2.19,2.75,2.75,0,0,0-2.13-.12l-.09,0,.31-.14c.24-.13.31-.16.43-.24l.15-.12h0a9.29,9.29,0,0,0-1,.76c-1,.81-2.16,2-3.71,3.34-.79.69-1.67,1.42-2.74,2.2A23.47,23.47,0,0,1,119,412.4a17.48,17.48,0,0,1-6.92,1.63,16.25,16.25,0,0,1-8.21-2l-.83-.49c-.27-.17-.49-.33-.73-.5-.47-.33-1-.7-1.33-1a20.88,20.88,0,0,1-2-2c-1.08-1.23-1.74-2.18-2.16-2.74a6.33,6.33,0,0,0-.69-.86,5.18,5.18,0,0,0-.59-.55A6,6,0,0,0,94.1,403a4.51,4.51,0,0,0-.75-.27,1.24,1.24,0,0,0-.37-.06,2,2,0,0,0-.26.07c-.74.28-1.13,2-3.14,3.61a14.79,14.79,0,0,1-4.2,2.17,42.19,42.19,0,0,1-6.66,2c-.67.12-1.33.25-2,.35s-1.45.17-2.18.24c-.42.05-.54,0-.81.06l-.72,0-1.49,0a44.2,44.2,0,0,1-6.67-.41,34.67,34.67,0,0,1-8.21-2.1,23.8,23.8,0,0,1-2.43-1.11A21.51,21.51,0,0,1,51.62,406c-.45-.31-.88-.63-1.31-1A15,15,0,0,1,49,403.91c-.44-.41-.86-.83-1.27-1.27a17.63,17.63,0,0,1-1.18-1.47c-.38-.51-.74-1-1.07-1.57a17.72,17.72,0,0,1-.88-1.67c-.27-.58-.53-1.15-.76-1.74s-.35-1.12-.51-1.69-.27-1.13-.39-1.7c-.08-.39-.1-.52-.07-.42l0,0c.06,0,.09,0,.12,0s-.05-1-.62-2.31S41,387,40.06,384.65l-.33-.92-.38-1.17a19.51,19.51,0,0,1-.59-2.4,22.33,22.33,0,0,1-.41-4.85,21.39,21.39,0,0,1,.74-5.24,18.61,18.61,0,0,1,2.66-5.8,16.29,16.29,0,0,1,5.67-5l.86-.43a5.82,5.82,0,0,1,.73-.31l.93-.32c.61-.2,1.26-.38,1.89-.54a25.4,25.4,0,0,1,3.38-.61c.88-.1,1.22-.11,1.12,0s-.38.37-.36.49.25,0,.57-.2a.79.79,0,0,0,.15-.11l.37-.37c.25-.24.51-.47.77-.7a20.05,20.05,0,0,1,1.63-1.29,22.33,22.33,0,0,1,3.56-2.1,20.25,20.25,0,0,1,4-1.4,18.38,18.38,0,0,1,2.09-.41c.69-.08,1.34-.1,2-.14a23.14,23.14,0,0,1,3.84.16c.59.09,1.17.21,1.75.32l.87.18.79.22,1.58.45,1.44.52c1,.34,1.78.73,2.67,1.1,3.28,1.53,6,3,8.39,3.94a14.35,14.35,0,0,0,3.16.91c.23,0,.44,0,.66.05h.33l.3,0a5.6,5.6,0,0,1,.6-.05c.62-.11,1.28-.21,1.9-.28a30,30,0,0,1,6.44.25c.88.11,1.66.21,2.35.28l.94.07a4.12,4.12,0,0,0,.61,0,4.83,4.83,0,0,0,1.84-.45,3.64,3.64,0,0,0,.5-.31l.1-.08.39-.36a16.06,16.06,0,0,1,1.69-1.32,19.43,19.43,0,0,1,6.93-2.81c1.08-.22,2.1-.36,3.06-.46l2.18-.2a5.84,5.84,0,0,0,2.09-.59A4.63,4.63,0,0,0,130,351a4.54,4.54,0,0,0,.41-.58l.15-.22c.28-.44.39-.59.52-.76.25-.33.44-.56.64-.78.38-.45.74-.83,1.11-1.21l.27-.27c.12-.11.11-.12.43-.41s.5-.44.77-.65a11.31,11.31,0,0,1,1-.62,9,9,0,0,1,4.64-1.14,10.39,10.39,0,0,1,3.16.63c.74.27,1.28.52,1.68.71l.92.43.23.1.64.25,1.29.52,2.33,1c1.47.66,2.76,1.23,3.91,1.63a19.09,19.09,0,0,0,13.91-.71,11.36,11.36,0,0,0,2.51-1.73,8.32,8.32,0,0,0,.92-1.06,7.06,7.06,0,0,0,.43-.59c.16-.26.32-.54.49-.84.69-1.19,1.39-2.74,2.63-4.62a16.31,16.31,0,0,1,5.28-5.09l.39-.23.29-.16.54-.3c.35-.19.65-.35.93-.52a10.1,10.1,0,0,0,1.16-.78,1.45,1.45,0,0,0,.25-.26,9.89,9.89,0,0,0,.55-1.42,16.18,16.18,0,0,1,.62-1.58,13,13,0,0,1,1.1-2,12.4,12.4,0,0,1,3.2-3.14,12.23,12.23,0,0,1,4.12-1.77,11.42,11.42,0,0,1,2.39-.28,12.45,12.45,0,0,1,2.28.21,25.87,25.87,0,0,1,5.72,2.09l.76.3a8,8,0,0,0,.77.23c.92.25,1.67.48,2.43.7a28.71,28.71,0,0,0,3.91.95,8.46,8.46,0,0,0,1.4.1,2.07,2.07,0,0,0,.61-.09c.07,0,0,0,0,0s0,0,0,0l0,0a1,1,0,0,0-.05-.6c0-.1-.08-.13,0-.13s0,0,0,0a2.51,2.51,0,0,0-.77-.16c-.22,0-.48,0-.79,0l-1.28,0a22.6,22.6,0,0,1-3.18-.27,21.33,21.33,0,0,1-3.15-.81,43.92,43.92,0,0,1-5-2,22.57,22.57,0,0,1-2.28-1.22c-.37-.2-.72-.45-1.07-.68l-.53-.34c-.17-.12-.37-.25-.45-.32a12,12,0,0,0-3.53-1.77c-1.46-.51-3.09-.81-5-1.39-1-.31-1.73-.62-2.49-.89s-1.45-.5-2.09-.68a6.2,6.2,0,0,0-1.6-.3H180l-.05,0h-.28c-.34,0-.72,0-1.05,0l-1-.11a21.39,21.39,0,0,1-6.08-2,27.09,27.09,0,0,1-5.08-3.2,15.68,15.68,0,0,1-1.27-1.13l-.32-.32c-.11-.11-.25-.28-.37-.42-.25-.29-.47-.6-.7-.91a13.48,13.48,0,0,1-1.81-3.82,20.08,20.08,0,0,1-.64-3.31l-.15-1.36c0-.28-.07-.37-.11-.57a4.38,4.38,0,0,0-.79-1.76.68.68,0,0,0-.24-.25s.13.08.25,0,.11,0,.11,0,0,0,0,0l-.37.11s0-.05,0,0a1.51,1.51,0,0,0-.24.56,6.75,6.75,0,0,0-.22,1.37l-.05.67c0,.36-.07.7-.12,1a14.61,14.61,0,0,1-.43,1.95,16.2,16.2,0,0,1-1.48,3.48c-.15.26-.31.54-.47.79l-.42.66c-.3.43-.6.86-.92,1.28a29.26,29.26,0,0,1-4.53,4.66,22.25,22.25,0,0,1-6,3.65,19.94,19.94,0,0,1-6.89,1.43,28.53,28.53,0,0,1-11.46-2.44,27.26,27.26,0,0,1-5.87-3.08c-.49-.34-1-.7-1.43-1.08s-.87-.74-1.43-1.27a19.53,19.53,0,0,1-2.46-2.91c-.65-.89-1.16-1.68-1.57-2.28a12.28,12.28,0,0,0-1.07-1.33,4.3,4.3,0,0,0-1.68-1.12.5.5,0,0,0-.41,0,2.49,2.49,0,0,1-.42.17,8.55,8.55,0,0,0-1.79.91c-.41.25-.94.59-1.81,1.07a16.69,16.69,0,0,1-3.95,1.56,14.63,14.63,0,0,1-6.16.19,13.64,13.64,0,0,1-1.43-.34,11.56,11.56,0,0,1-1.29-.41,16.75,16.75,0,0,1-2.43-1.11,15.37,15.37,0,0,1-4.65-4,14.84,14.84,0,0,1-2.8-6.11,17.3,17.3,0,0,1,1.75-11.42,26.21,26.21,0,0,1,5-6.49c1.62-1.62,3.15-2.7,4.3-3.72s2.39-2.11,3.71-3a18.5,18.5,0,0,1,4.46-2c.79-.27,1.6-.53,2.38-.82.4-.15.77-.28,1.18-.46s1.06-.53,1.57-.74a23.27,23.27,0,0,1,5.51-1.56,8.3,8.3,0,0,0,3.62-1.38,13.09,13.09,0,0,0,1.07-1,8.49,8.49,0,0,0,.89-1.16,6.75,6.75,0,0,0,1-2.55,6.27,6.27,0,0,0,.11-1.19c0-.34-.1-.44-.13-.4s0,.08-.21-.11a9.86,9.86,0,0,0-1-.88c-.85-.69-2.06-1.49-3.43-2.45a35.37,35.37,0,0,1-4.56-3.67,20.72,20.72,0,0,1-2.39-2.76,17,17,0,0,1-2-3.65,18.55,18.55,0,0,1-.61-2A17.24,17.24,0,0,1,106,239a16.61,16.61,0,0,1,0-4.34,17.12,17.12,0,0,1,3.27-7.69,19.94,19.94,0,0,1,2.55-2.83,24.47,24.47,0,0,1,2.85-2.15,22.5,22.5,0,0,1,6.12-2.75c1-.3,2-.53,3-.72s2-.27,2.94-.34a44.22,44.22,0,0,1,5.49-.09c1.76.06,3.4.18,5.07.29l5,.33c3.31.21,6.61.35,9.9.51,6.59.25,13.14.79,19.66,1.52,3.27.38,6.47.76,9.78,1.21s6.56,1,9.78,1.59l9.68,1.85c4,.87,7,2.15,9.37,2.62a8,8,0,0,0,2.69.2,3.15,3.15,0,0,0,1.43-.6,5,5,0,0,0,1.19-1.31,6.32,6.32,0,0,0,.49-1.88,20.21,20.21,0,0,0,0-3.45c-.07-1.34-.23-3-.34-4.69a37.63,37.63,0,0,1,0-5.93c.06-.57.1-1.12.2-1.7l.36-1.81c.27-1.08.51-2,.86-3a36.3,36.3,0,0,1,5.81-10.75c2.39-3.08,4.82-5.55,7-7.86l.41-.44.85-.6a37.83,37.83,0,0,1,12-5.53,45.06,45.06,0,0,1,12.7-1.4l3.11.23,1.55.12,1.51.23c1,.17,2,.32,3,.5l2.92.68c1,.21,1.92.5,2.86.79s1.88.56,2.78.88c1.79.65,3.62,1.28,5.32,2,6.92,2.82,13.14,5.95,19.08,8.66,3,1.3,5.87,2.6,8.71,3.55,1.43.54,2.82.91,4.21,1.37.7.22,1.39.34,2.08.52a16.73,16.73,0,0,0,2.08.44,59.51,59.51,0,0,0,17.67.23,150.6,150.6,0,0,0,19.12-4.12c6.53-1.76,13.28-3.66,20.31-5.05,1.75-.36,3.51-.71,5.3-1s3.57-.55,5.37-.78c3.58-.45,7.16-.73,10.71-1,14.24-.92,28.18-.16,42,.61,6.89.38,13.75.8,20.59,1,3.42.13,6.84.14,10.25.19s6.83,0,10.24-.11c.85,0,1.72-.06,2.48-.13s1.63-.19,2.46-.32L487,186c3.44-.51,7-1.15,10.72-.39a8.9,8.9,0,0,1,4.93,2.75,29.47,29.47,0,0,1,2.88,4.46,14.22,14.22,0,0,0,1.43,2,24.93,24.93,0,0,0,1.79,1.77,15.52,15.52,0,0,0,4.17,2.74,11.54,11.54,0,0,0,4.9.94,38.55,38.55,0,0,0,5.1-.48,31,31,0,0,1,5.18-.38,44.49,44.49,0,0,1,5.17.42,36.18,36.18,0,0,1,10,2.69,15,15,0,0,1,4.32,2.84,7.57,7.57,0,0,1,2.36,4.49Zm-.09,0a5.94,5.94,0,0,0-.9-2.38,8.23,8.23,0,0,0-1.64-1.93,14.88,14.88,0,0,0-4.33-2.59,35.29,35.29,0,0,0-9.89-2.21,45.25,45.25,0,0,0-5.06-.2,30.5,30.5,0,0,0-5,.56,39.18,39.18,0,0,1-5.27.71,13.34,13.34,0,0,1-5.56-.86,17.32,17.32,0,0,1-4.78-2.87,20.8,20.8,0,0,1-2-1.87,15.35,15.35,0,0,1-1.72-2.26,27.38,27.38,0,0,0-2.75-4.05A6.55,6.55,0,0,0,497.3,188c-3-.54-6.41.05-9.73.69l-5.07,1c-.86.16-1.73.32-2.62.43s-1.78.18-2.64.24c-27.73,2-55.25-2.68-82.65.42a129.78,129.78,0,0,0-20.2,4c-6.63,1.83-13.15,4.06-19.73,6.13a158.46,158.46,0,0,1-20,5.19,64.28,64.28,0,0,1-20.62.4,24.16,24.16,0,0,1-2.54-.47c-.84-.2-1.69-.34-2.52-.58-1.66-.48-3.33-.91-4.94-1.52-3.27-1.1-6.43-2.5-9.57-3.91-6.25-2.9-12.36-6.11-18.71-8.77a59.43,59.43,0,0,0-19.93-5.09,32.69,32.69,0,0,0-19.7,5h0a95.4,95.4,0,0,0-6.61,7,28.15,28.15,0,0,0-4.79,8.33,18.41,18.41,0,0,0-1.14,4.68,31,31,0,0,0-.1,4.82c.11,3.21.45,6.45-.08,9.64a12.52,12.52,0,0,1-1.67,4.49,12,12,0,0,1-3.46,3.32,9.93,9.93,0,0,1-4.55,1.46,15.44,15.44,0,0,1-4.78-.53c-3.12-.79-6.07-2.13-9.21-2.88s-6.29-1.38-9.44-2c-6.3-1.32-12.67-2.31-19.06-3.11s-12.8-1.42-19.23-1.75-12.88-.4-19.31-.09a35.51,35.51,0,0,0-9.49,1.58,16.22,16.22,0,0,0-7.87,5.35,10,10,0,0,0-1.91,4.38,9.65,9.65,0,0,0,.47,4.76,11.47,11.47,0,0,0,2.59,4,33.09,33.09,0,0,0,3.63,3.17c1.27,1,2.56,2,3.72,3.08a9.15,9.15,0,0,1,2.73,3.91,9.67,9.67,0,0,1-.07,4.78,14.29,14.29,0,0,1-1.93,4.4,15,15,0,0,1-3.24,3.55,29.22,29.22,0,0,1-4.06,2.61c-1.4.78-2.83,1.54-4.15,2.45s-2.55,2-3.83,2.95l-7.59,6c-2.51,2-5.26,3.85-6.89,6.68a7,7,0,0,0-1,4.63,5.59,5.59,0,0,0,2.68,3.83,6.28,6.28,0,0,0,4.61.95,32,32,0,0,0,4.51-1.72,13.49,13.49,0,0,1,4.7-1,8.83,8.83,0,0,1,4.62,1.19,12.83,12.83,0,0,1,3.59,3.18c1,1.27,1.75,2.7,2.68,4,1.8,2.71,4.82,4.32,7.85,5.31a34.53,34.53,0,0,0,9.41,2,14.28,14.28,0,0,0,9.1-2.63,17.11,17.11,0,0,0,3.47-3.33,12.27,12.27,0,0,0,2.33-4.19,8.81,8.81,0,0,0,.37-2.38,13.63,13.63,0,0,1,.34-2.39,6.65,6.65,0,0,1,2.52-4,6.77,6.77,0,0,1,4.56-1.24,6.12,6.12,0,0,1,4,2.5,10.15,10.15,0,0,1,1.87,4.4c.13.8.16,1.6.24,2.4a13.58,13.58,0,0,0,.39,2.38,7.36,7.36,0,0,0,.95,2.21,9.77,9.77,0,0,0,1.61,1.79,22.93,22.93,0,0,0,3.92,2.8,15.81,15.81,0,0,0,4.47,1.77c.79.19,1.61.09,2.4.24a14.28,14.28,0,0,1,2.33.62c1.53.53,3,1.2,4.51,1.72s3.1.87,4.66,1.27a25.33,25.33,0,0,1,4.57,1.54c1.45.7,2.9,1.4,4.37,2a45.66,45.66,0,0,0,4.52,1.72,14.4,14.4,0,0,0,4.74.77,13,13,0,0,1,4.77.55,5.77,5.77,0,0,1,3.33,3.29,6.62,6.62,0,0,1,.11,4.72,5.48,5.48,0,0,1-3.34,3.28,9.75,9.75,0,0,1-4.77.25,34.43,34.43,0,0,1-4.69-1.13,43.8,43.8,0,0,1-4.59-1.48,21.45,21.45,0,0,0-4.49-1.72,6.1,6.1,0,0,0-4.6,1,6.54,6.54,0,0,0-1.71,1.69,8.68,8.68,0,0,0-1,2.18,16.57,16.57,0,0,1-.89,2.24,6.64,6.64,0,0,1-1.52,1.86,27.73,27.73,0,0,1-4.06,2.6,10.49,10.49,0,0,0-3.39,3.37c-.88,1.35-1.54,2.83-2.31,4.24a16.93,16.93,0,0,1-2.79,3.92,17.25,17.25,0,0,1-3.88,2.85,22.91,22.91,0,0,1-9.24,2.55,25.61,25.61,0,0,1-9.53-1.08c-3.07-1-5.93-2.51-9-3.57-.74-.3-1.45-.69-2.21-.95a2.71,2.71,0,0,0-2.33,0,9.12,9.12,0,0,0-1.72,1.68c-.55.6-.88,1.34-1.37,2a11.65,11.65,0,0,1-3.5,3.28,12.38,12.38,0,0,1-4.54,1.56,48.17,48.17,0,0,0-4.78.66,12.69,12.69,0,0,0-4.44,1.81c-.68.44-1.23,1-1.87,1.53a9.19,9.19,0,0,1-2.08,1.21,11.56,11.56,0,0,1-4.72.85c-3.21-.13-6.35-1.22-9.59-.92a11.77,11.77,0,0,0-1.19.18l-1.2.16a6,6,0,0,1-1.2.07c-.41,0-.81,0-1.21,0a21.85,21.85,0,0,1-4.73-.91c-3.09-.92-6-2.28-9-3.38a32.8,32.8,0,0,0-4.64-1.35,21.3,21.3,0,0,0-2.38-.34,14.87,14.87,0,0,0-2.41.07,12.35,12.35,0,0,0-8.31,4.41,9.61,9.61,0,0,1-3.88,2.79c-1.53.53-3.15.69-4.68,1.21a13,13,0,0,0-2.22.92,5.06,5.06,0,0,0-1.73,1.65A8.09,8.09,0,0,0,50,375a11.55,11.55,0,0,0,1.11,4.66c.67,1.47,1.49,2.86,2.28,4.26a25.12,25.12,0,0,1,2.05,4.36c.27.76.39,1.56.64,2.33.06.19.1.39.18.58l.27.53a4.44,4.44,0,0,0,.28.53l.37.48a8.36,8.36,0,0,0,4,2.6,19.87,19.87,0,0,0,4.73.89,38.75,38.75,0,0,0,4.82,0,27.57,27.57,0,0,0,4.79-.55,72.19,72.19,0,0,0,9.13-3.11,20.44,20.44,0,0,1,9.45-1.5,17.29,17.29,0,0,1,8.75,3.79,17.73,17.73,0,0,1,3.28,3.53,11.13,11.13,0,0,0,3.33,3.43,4.43,4.43,0,0,0,2.3.59,6,6,0,0,0,2.32-.59A17.15,17.15,0,0,0,118,399c1.2-1.07,2.34-2.21,3.52-3.3a12.48,12.48,0,0,1,3.94-2.74,15.2,15.2,0,0,1,9.49-.54,20,20,0,0,1,8.32,4.74c4.69,4.41,8.13,10.05,13.39,13.86a13.25,13.25,0,0,0,9,2.79,13.88,13.88,0,0,0,4.63-1.27,20.89,20.89,0,0,0,4-2.67,48,48,0,0,1,7.88-5.54,40.29,40.29,0,0,1,9-3.57,56.51,56.51,0,0,1,19.18-1.34c3.23.15,6.32,1.26,9.54,1.41a9.66,9.66,0,0,0,2.4-.15,13.27,13.27,0,0,0,2.27-.79c1.47-.65,2.88-1.44,4.39-2a20.44,20.44,0,0,1,4.71-1,31.69,31.69,0,0,0,4.73-.95,12.18,12.18,0,0,0,4.24-2.2,13.79,13.79,0,0,0,3.08-3.68,25.88,25.88,0,0,0,3-9.11c.5-3.18.71-6.39,1.28-9.57a21.91,21.91,0,0,1,3.35-9,18.3,18.3,0,0,1,16.81-7.61c1.61.16,3.14.71,4.75.85a6.37,6.37,0,0,0,4.51-1.28A21.37,21.37,0,0,0,282.8,351a29,29,0,0,1,3.42-3.41A28.2,28.2,0,0,1,304,341c1.58,0,3.29,0,4.65-.91a3.32,3.32,0,0,0,1.33-1.92,19.74,19.74,0,0,1,.68-2.32,11.52,11.52,0,0,1,2.8-3.9,33,33,0,0,1,3.76-3c1.31-.94,2.65-1.84,3.88-2.87s2.45-2.09,3.72-3.09a18.22,18.22,0,0,1,4.11-2.52,12,12,0,0,1,4.73-.89,10.91,10.91,0,0,1,4.69,1.07,11.28,11.28,0,0,1,3.77,3c1,1.24,1.88,2.62,2.9,3.87a8.6,8.6,0,0,0,3.71,2.94,8.19,8.19,0,0,0,4.73,0,32.32,32.32,0,0,0,4.51-1.7,30.57,30.57,0,0,1,9.48-1.7c3.21-.18,6.44-.15,9.63-.63a20.79,20.79,0,0,0,9-3.27,13.05,13.05,0,0,0,5-8,57,57,0,0,0,.73-9.6,28.56,28.56,0,0,1,.54-4.8,19.3,19.3,0,0,1,.64-2.34c.15-.37.32-.74.48-1.11l.25-.55.31-.52.64-1,.77-.94a7.66,7.66,0,0,1,.81-.9,10,10,0,0,1,.91-.8,16.9,16.9,0,0,1,4.19-2.39,47.18,47.18,0,0,1,9.35-2.39l19.06-3.15,19.06-3.12a64.28,64.28,0,0,1,9.58-1.17,21.28,21.28,0,0,0,4.77-.61A6.81,6.81,0,0,0,467,277a9.83,9.83,0,0,0,1.27-4.58,15.93,15.93,0,0,1,1-4.72,31,31,0,0,1,4.79-8.36,29.5,29.5,0,0,1,7.2-6.4c2.72-1.73,5.64-3.11,8.45-4.67a40,40,0,0,0,4.09-2.55,42,42,0,0,0,3.72-3.06,77,77,0,0,1,7.28-6.35A17.81,17.81,0,0,1,509,234a14.24,14.24,0,0,1,4.76-.79c3.22,0,6.43.59,9.63.29a8.91,8.91,0,0,0,4.47-1.59,10,10,0,0,0,3-3.72c.74-1.43,1.33-2.93,2.12-4.34a9.11,9.11,0,0,1,3.2-3.57c2.82-1.68,6.19-1.73,9.2-2.85a6.72,6.72,0,0,0,3.71-2.91l.46-1.11.27-1.17a7.32,7.32,0,0,0,0-2.38Z"/></svg>