<svg id="Layer_1" data-name="Layer 1" xmlns="http://www.w3.org/2000/svg" viewBox="0 0 600 600"><title>Lesotho</title><path d="M126.2,248.81c5.54-5.88,9.43-13.05,13.84-19.72q6.36-10.22,11.88-20.92c1.85-3.55,3.65-7.14,5.42-10.74L160,192l2.54-5.47c3.39-7.31,6.64-14.61,10.11-22a115.74,115.74,0,0,1,12.85-21.68,63.43,63.43,0,0,1,9.21-9.57,69.26,69.26,0,0,1,11.07-7.42,120.07,120.07,0,0,1,11.57-5.5c3.84-1.61,7.61-3.12,11.26-4.6,1.81-.74,3.61-1.49,5.34-2.25s3.38-1.54,5-2.39,3.19-1.72,4.7-2.63,2.95-1.87,4.33-2.86a37.19,37.19,0,0,0,7-6.55c.52-.57.87-1.2,1.32-1.78s.77-1.21,1.14-1.81a27.16,27.16,0,0,0,1.71-3.8c.5-1.45,1-3.28,1.71-5.47A37.33,37.33,0,0,1,264,78.66a23.42,23.42,0,0,1,3-4.14A25.34,25.34,0,0,1,271.14,71a26.71,26.71,0,0,1,9.3-3.92,41.16,41.16,0,0,1,8.15-.83c2.46,0,4.7.09,6.75.2s3.93.23,5.63.28a28.5,28.5,0,0,0,4.39-.13,9.14,9.14,0,0,0,2.62-.66,4.31,4.31,0,0,0,1.51-1.13,38.24,38.24,0,0,0,2.85-3.58,49.57,49.57,0,0,1,4.88-5.92A27.76,27.76,0,0,1,321,52.1a28.78,28.78,0,0,1,4.24-2.38,37.86,37.86,0,0,1,7.77-2.5c1.17-.26,2.27-.47,3.31-.66l3-.54L345.28,45l24-4.29a31.5,31.5,0,0,1,4.47-.45,19.51,19.51,0,0,1,6,.8,18.72,18.72,0,0,1,5.55,2.76,22.61,22.61,0,0,1,3.81,3.5,41.84,41.84,0,0,1,4.4,6.3c1,1.7,2,3.29,3,4.9a165.45,165.45,0,0,0,13.77,18.3L412.2,79l2.06,2.35a40.68,40.68,0,0,0,3.36,3.56,7.73,7.73,0,0,0,2.3,1.56,2.64,2.64,0,0,0,.66.19h.84l.6,0a36.67,36.67,0,0,1,3.92-.08,17.31,17.31,0,0,1,6.54,1.59,17.87,17.87,0,0,1,1.77,1c.45.3.89.62,1.3,1a18.16,18.16,0,0,1,2.2,2,23.6,23.6,0,0,1,3,4.14,53.05,53.05,0,0,1,3.28,6.88c.84,2,1.57,3.92,2.29,5.53a24.48,24.48,0,0,0,2.15,4,9.84,9.84,0,0,0,1,1.27,5.42,5.42,0,0,0,.66.42,8.57,8.57,0,0,0,2.06.81,10,10,0,0,0,2.74.32c.3,0,1-.07,2.48,0a21.47,21.47,0,0,1,6.3,1.08,25,25,0,0,1,5.59,2.77,30.14,30.14,0,0,1,4.09,3.22,37.36,37.36,0,0,1,3.21,3.41c.89,1.08,1.73,2.18,2.46,3.21,1.49,2.1,2.72,4,3.8,5.64,2.16,3.33,3.85,5.35,5.13,6.07a23.63,23.63,0,0,0,6.18,2.59c2.8.85,6.37,1.58,10.46,2.57,1,.26,2.1.52,3.22.82.51.13,1.16.32,1.79.51s1.26.37,1.89.59a55.35,55.35,0,0,1,7.59,3.1,49,49,0,0,1,7.69,4.68,39.31,39.31,0,0,1,7.5,7.23,34.16,34.16,0,0,1,5.72,10.79,22.41,22.41,0,0,1,.83,3.12,29.75,29.75,0,0,1,.54,3.18,37.26,37.26,0,0,1,.24,5.55c0,1.56-.14,2.84-.2,3.87s-.1,1.75-.09,2.21,0,.64.08.46a4.45,4.45,0,0,0-.13-1.09,3.81,3.81,0,0,0-.17-.54.53.53,0,0,0,0-.18c0-.06-.08-.11-.07-.13s-.12-.07-.11,0,0,.05,0,.11a1.47,1.47,0,0,1,0,.21,10.35,10.35,0,0,0,1.27,3.9,30.44,30.44,0,0,0,4.05,5.79c.45.6.88,1.1,1.35,1.79l1.35,2c.43.68.91,1.34,1.27,2l1.07,2.12a22.72,22.72,0,0,1,1,2.13l.8,2.17a30.35,30.35,0,0,1,1.26,4.36,43.77,43.77,0,0,1,1.15,8.7,33.9,33.9,0,0,1-.09,4.28,41.82,41.82,0,0,1-.47,4.2,35.54,35.54,0,0,1-.81,4.11,34.83,34.83,0,0,1-1.19,4,43.24,43.24,0,0,1-8.5,14.54,28.54,28.54,0,0,1-3.08,3,29.25,29.25,0,0,1-3.45,2.69,30.42,30.42,0,0,1-3.63,2.26c-1.17.62-2.27,1.14-3.3,1.61-2,.91-3.72,1.61-5,2.24a14.3,14.3,0,0,0-2.52,1.5,4.68,4.68,0,0,0-1.24,1.52,4.31,4.31,0,0,0-.48,1.71,1.9,1.9,0,0,0,0,.47c0,.25.07.57.15,1,.15.84.41,2,.63,3.52a20.32,20.32,0,0,1,0,5.92,16.07,16.07,0,0,1-1,3.62c-.24.6-.54,1.17-.83,1.74-.23.4-.43.72-.66,1.08a26.46,26.46,0,0,1-6.5,6.89,28.63,28.63,0,0,1-3.78,2.37c-1.27.66-2.4,1.17-3.53,1.63-4.48,1.78-8.07,2.78-10.31,4a11.22,11.22,0,0,0-2.78,2,13.09,13.09,0,0,0-2.24,2.95,18.16,18.16,0,0,0-1.69,3.81,25.57,25.57,0,0,0-1,4.41,27.4,27.4,0,0,0-.32,4.72,38.51,38.51,0,0,0,.39,5q.38,2.59,1,5.29c.43,1.81.93,3.64,1.45,5.52,1,3.77,2.22,7.71,3.29,11.93a58.49,58.49,0,0,1,1.42,7,23.14,23.14,0,0,1,.08,5,18.54,18.54,0,0,1-1.6,6,19.2,19.2,0,0,1-3.52,5.16,25.6,25.6,0,0,1-3.82,3.27c-1.21.86-2.32,1.52-3.32,2.11l-2.73,1.53-2.69,1.4c-.44.23-1,.22-1.44.51s-.79.66-1.17,1c-1.52,1.44-2.87,3.21-4.56,4.35-6.88,4.32-13.9,8.49-21,12.69s-14.3,8.28-21.65,12.25c-3.72,1.93-7.41,3.91-11.23,5.74s-7.63,3.66-11.52,5.39a218.12,218.12,0,0,1-24.25,8.9l-3.12.93-3.17.83q-3.18.8-6.38,1.56c-2.16.44-4.31.87-6.48,1.27s-4.34.75-6.53,1.06-4.41.61-6.57.84-4.26.43-6.28.57l-5.81.47-2.72.24a14.73,14.73,0,0,1-2.66-.09,19.13,19.13,0,0,1-5.32-1.64c-1.8-.83-3.65-1.71-5.52-2.41a14.68,14.68,0,0,0-5.45-1,10.2,10.2,0,0,0-2.49.39c-.75.22-1.42.44-2.15.69a19,19,0,0,0-7.47,5.63,5.9,5.9,0,0,0-.69,1l-.66,1c-.38.68-.77,1.36-1.08,2.07a15.56,15.56,0,0,0-1.18,4.28,13.85,13.85,0,0,0,0,4,11.11,11.11,0,0,0,1.26,3.43,23.37,23.37,0,0,0,2.71,3.78,48.31,48.31,0,0,1,4.29,5.81,20.89,20.89,0,0,1,2,4.55,17.69,17.69,0,0,1,.61,5.82,21.36,21.36,0,0,1-.48,3c-.13.48-.26,1-.41,1.45s-.34.9-.53,1.35a11.36,11.36,0,0,1-.6,1.26c-.21.4-.43.82-.65,1.19-.44.69-.92,1.45-1.37,2a38.5,38.5,0,0,1-2.69,3.19l-2.25,2.42c-.68.73-1.2,1.35-1.67,1.93a6.83,6.83,0,0,0-.84,1.38,4.55,4.55,0,0,0-.27,1l-.29,1.46c-.23,1.17-.43,2.73-.67,4.66-.54,4-1.2,8-2,11.9-.37,2-.82,3.94-1.24,5.9a53.58,53.58,0,0,1-3.92,11.51c-.87,1.88-1.86,3.72-2.82,5.58-.48.91-1,1.84-1.51,3s-1.13,2.3-1.9,3.58a23.08,23.08,0,0,1-2.77,3.9,14.1,14.1,0,0,1-1.91,1.79,12.23,12.23,0,0,1-2.17,1.48,14.78,14.78,0,0,1-4.74,1.73,17.16,17.16,0,0,1-4.53.26,20.69,20.69,0,0,1-7.73-2.1,26.43,26.43,0,0,1-6.3-4.3,54,54,0,0,1-4.51-4.86c-1.33-1.61-2.62-3.07-3.87-4.41a22.41,22.41,0,0,0-3.77-3.35,17.48,17.48,0,0,0-8.88-2.7,94.49,94.49,0,0,0-11.29.36,60.07,60.07,0,0,1-13.38-.26,36.09,36.09,0,0,1-3.67-.8c-1.22-.36-2.46-.81-3.68-1.3a32.14,32.14,0,0,1-6.57-3.88,77.27,77.27,0,0,1-9.64-9.18l-8.35-8.74-8.34-8.74-8.27-8.8-4.13-4.41c-1.38-1.48-2.72-2.95-4-4.23a27,27,0,0,0-7.07-5.58,46.59,46.59,0,0,0-4.55-2,54.62,54.62,0,0,1-6.33-2.87,34.79,34.79,0,0,1-12.1-10.8,36.87,36.87,0,0,1-3.83-7.13c-.5-1.25-.93-2.55-1.29-3.8s-.6-2.35-.84-3.58a35,35,0,0,1-.73-8.07,21.13,21.13,0,0,1,.19-2.31c0-.39.12-.8.18-1.21s.15-.71.23-1.07c.31-1.35.68-2.57,1-3.64.72-2.15,1.31-3.73,1.58-4.9a8,8,0,0,0,.26-1.53,8.78,8.78,0,0,0,0-1.46,7.63,7.63,0,0,0-.24-1.35,9.34,9.34,0,0,0-.63-1.41,14.81,14.81,0,0,0-2.52-3.26c-1.11-1.17-2.46-2.37-4-3.68s-3.12-2.68-4.79-4.29c-.82-.76-1.66-1.68-2.49-2.56s-1.72-2-2.29-2.85c-1.28-1.75-2.49-3.52-3.65-5.32-2.32-3.6-4.41-7.28-6.33-11-1-1.85-1.88-3.72-2.77-5.58L86,377,75.62,355.11,65.33,333.28c-1.65-3.44-3.71-7-5.5-10.72a49.33,49.33,0,0,1-4.31-12.06,22.69,22.69,0,0,1-.31-6.75,17.06,17.06,0,0,1,2.11-6.53,13.43,13.43,0,0,1,.91-1.44,10.24,10.24,0,0,1,1-1.32c.38-.41.72-.86,1.12-1.24l1.22-1.1a12.23,12.23,0,0,1,1.27-1c.44-.31.86-.65,1.3-.93.91-.55,1.78-1.16,2.71-1.62,7.38-3.89,15.17-6,22.49-9.2.92-.39,1.8-.84,2.69-1.28s1.74-.93,2.59-1.48c1.71-1,3.4-2.13,5-3.3a113.16,113.16,0,0,0,9.51-7.4,184.14,184.14,0,0,0,17.07-17Zm.07.06a176.86,176.86,0,0,1-16.33,17.88c-1.49,1.37-3,2.75-4.54,4.05s-3.15,2.56-4.78,3.77-3.28,2.4-5,3.51c-.83.58-1.76,1.1-2.65,1.64s-1.82,1-2.75,1.42c-7.4,3.52-15.13,5.89-21.9,9.82a20.73,20.73,0,0,0-8.13,7.75,13.73,13.73,0,0,0-1.52,5.3,19.25,19.25,0,0,0,.46,5.64,45.11,45.11,0,0,0,4.39,10.9c1.86,3.52,4,6.93,5.89,10.53l11.06,21.47L91.55,374c1.85,3.58,3.65,7.17,5.62,10.67s4,6.93,6.32,10.23q1.71,2.47,3.56,4.85c.61.8,1.28,1.53,1.93,2.28s1.39,1.43,2.15,2.09c3,2.7,6.27,5,9.19,7.83a23.82,23.82,0,0,1,3.91,4.64,18.22,18.22,0,0,1,1.41,2.7,15.79,15.79,0,0,1,.8,2.94,16.41,16.41,0,0,1-.06,6.05,57.67,57.67,0,0,1-1.64,5.82,20.46,20.46,0,0,0-1.11,5.88,25.59,25.59,0,0,0,.66,6,33.22,33.22,0,0,0,1.77,5.75A27,27,0,0,0,129,457a26.24,26.24,0,0,0,9,7.85c3.56,1.88,7.46,3,11,5a36.65,36.65,0,0,1,9.22,7.7c2.71,3,5.32,6,8,9.06l15.9,18.16,8,9.08a67.24,67.24,0,0,0,8.45,8.59,25,25,0,0,0,5.1,3.21c.92.38,1.86.76,2.82,1.07a26.6,26.6,0,0,0,2.93.71,58.24,58.24,0,0,0,12,.64,91.55,91.55,0,0,1,12.06.21,23.31,23.31,0,0,1,11.22,4c3.27,2.38,5.78,5.6,8.4,8.63a50.46,50.46,0,0,0,4.15,4.38,19.46,19.46,0,0,0,5,3.28,15.73,15.73,0,0,0,5.82,1.44,9.26,9.26,0,0,0,5.73-1.51,6.72,6.72,0,0,0,1.17-1,7.11,7.11,0,0,0,1-1.14,12.32,12.32,0,0,0,1.37-2.68,42,42,0,0,0,1.48-5.84l5-23.63,2.48-11.81a50.54,50.54,0,0,1,1.51-5.84,16.94,16.94,0,0,1,2.81-5.31c2.51-3.17,6.06-5.29,8.69-8.35a10,10,0,0,0,2.56-5.36,9.48,9.48,0,0,0-.2-3,12.9,12.9,0,0,0-1.09-2.8c-1.87-3.58-4.87-6.43-6.56-10.11a18.69,18.69,0,0,1-1.68-5.77,21.55,21.55,0,0,1,.27-6,27.26,27.26,0,0,1,4.77-11,33.39,33.39,0,0,1,8.58-8.39c6.82-4.35,14.84-6.32,22.77-7.43s16-1.43,24-2.67c4-.45,7.94-1.31,11.9-2l5.89-1.31,2.95-.67,2.91-.77c7.81-2,15.45-4.52,23-7.2s15-5.81,22.37-9.06,14.62-6.71,21.8-10.35S457.88,381.73,465,378l10.64-5.7c1.77-1,3.57-1.86,5.24-3A9.81,9.81,0,0,0,485.73,359a56.72,56.72,0,0,0-1-5.94c-.83-3.94-1.87-7.83-2.84-11.73a108.6,108.6,0,0,1-2.37-11.83,44.54,44.54,0,0,1-.09-12,34.87,34.87,0,0,1,1.29-5.88,27.15,27.15,0,0,1,2.38-5.54,21.86,21.86,0,0,1,8.34-8.51c3.51-2,7.43-3.08,11.12-4.66a24,24,0,0,0,5.26-2.93,16.46,16.46,0,0,0,4-4.43,6.85,6.85,0,0,0,1.07-2.79,10.07,10.07,0,0,0-.09-3,59.39,59.39,0,0,1-1.07-5.93,14.92,14.92,0,0,1,4.12-11c2.82-2.93,6.63-4.54,10.2-6.33a27.6,27.6,0,0,0,9.55-7.2,30.85,30.85,0,0,0,6.73-22.52,28.06,28.06,0,0,0-3.57-11.42L538,214a13.1,13.1,0,0,0-.89-1.22,25,25,0,0,0-1.91-2.32c-1.38-1.47-2.87-2.83-4.33-4.21a45.16,45.16,0,0,1-4.17-4.36,14.8,14.8,0,0,1-3.58-11.2c.1-2,.38-4,.48-6a16.73,16.73,0,0,0-3.33-11.32,28.71,28.71,0,0,0-9.24-7.61,57.55,57.55,0,0,0-11.18-4.49c-3.84-1.2-7.71-2.33-11.43-3.86a32.44,32.44,0,0,1-10.24-6.28c-2.94-2.78-5-6.31-7-9.8s-3.91-7.08-6.75-10a14.79,14.79,0,0,0-4.93-3.39c-1.91-.7-4-.52-6-.76a19.61,19.61,0,0,1-10.91-4.73,17,17,0,0,1-3.59-4.82,39.89,39.89,0,0,1-2.39-5.54c-1.39-3.77-2.45-7.69-4.35-11.24a10.29,10.29,0,0,0-4.05-4.34c-1.83-.9-3.93-.72-5.92-.65a17.81,17.81,0,0,1-3-.07,12,12,0,0,1-2.91-.79,17.11,17.11,0,0,1-5-3.28,50.53,50.53,0,0,1-4.16-4.37c-1.3-1.53-2.65-3-4-4.54A183.91,183.91,0,0,1,388.62,63.7c-1.12-1.67-2.2-3.37-3.26-5.08a36,36,0,0,0-3.5-4.9,10.71,10.71,0,0,0-4.92-3.33,12.91,12.91,0,0,0-6,0L347.3,55.1c-3.94.8-7.9,1.52-11.82,2.4s-7.83,2.36-10.62,5.32-4.72,6.51-7.5,9.45a15.3,15.3,0,0,1-4.86,3.53,20.24,20.24,0,0,1-5.82,1.57,66.56,66.56,0,0,1-12.06-.13c-4-.26-8.06-.52-12,.27a15.61,15.61,0,0,0-5.54,2.25A13.93,13.93,0,0,0,273,84.12c-2.09,3.45-3,7.44-4.41,11.19a37.9,37.9,0,0,1-2.68,5.42c-.55.84-1.1,1.68-1.7,2.49s-1.21,1.62-1.91,2.34a47.65,47.65,0,0,1-9.14,7.86c-6.72,4.47-14.24,7.54-21.84,10.15s-15.3,5-22.56,8.53a63.2,63.2,0,0,0-10.36,6.14,58.53,58.53,0,0,0-8.8,8.22,109.48,109.48,0,0,0-13.38,20c-7.56,14.2-14.68,28.65-22.7,42.61-4,7-8.19,13.86-12.69,20.53-2.24,3.35-4.59,6.62-7,9.83s-5,6.33-7.47,9.49Z"/></svg>