<svg id="Layer_1" data-name="Layer 1" xmlns="http://www.w3.org/2000/svg" viewBox="0 0 600 600"><title>Liechtenstein</title><path d="M296.69,78.05,299,79.47c.77.49,1.53,1,2.33,1.42,1.56.94,3.16,1.82,4.76,2.73a46.64,46.64,0,0,1,8.93,6.5A30.83,30.83,0,0,1,322,99l.63,1.3.5,1.37c.14.46.35.91.45,1.39l.32,1.43a19,19,0,0,1,.41,2.92l.07.74V109a11,11,0,0,1-.08,1.52,27.11,27.11,0,0,1-4.12,11c-1,1.63-2,3.19-3.09,4.72l-3.11,4.51a48.62,48.62,0,0,0-5.12,8.89,11.69,11.69,0,0,0-.66,8.19,13.11,13.11,0,0,0,.78,1.82c.19.3.35.61.53.91l.6.85a16,16,0,0,0,3,3,35,35,0,0,0,8.43,4.5c3.17,1.29,6.58,2.43,10.13,3.78a56.94,56.94,0,0,1,11,5.31,28.29,28.29,0,0,1,9.66,10.41,36.83,36.83,0,0,1,4,13.12,60,60,0,0,1,.11,12.69,83,83,0,0,1-2,12,119.61,119.61,0,0,1-7.78,22.34A106,106,0,0,1,341,249.14c-1,1.7-2,3.19-2.77,4.51a22.54,22.54,0,0,0-1.71,3.43,6.1,6.1,0,0,0-.46,2.13,4.94,4.94,0,0,0,.28,1.59,5.94,5.94,0,0,0,.79,1.5,3.12,3.12,0,0,0,1,.84,8.79,8.79,0,0,0,1.54.55,32.35,32.35,0,0,0,3.57.54l5.4.52a51.33,51.33,0,0,1,7,1.23,30.89,30.89,0,0,1,8.18,3.4,32.33,32.33,0,0,1,6.72,5.52,39.46,39.46,0,0,1,4.69,6.14,62.89,62.89,0,0,1,3.28,5.95c1.85,3.81,3.26,7.37,4.6,10.47a40.68,40.68,0,0,0,3.82,7.37,7,7,0,0,0,1.4,1.54,1.86,1.86,0,0,0,.74.35,4.6,4.6,0,0,0,1.44.11c1,0,2.49-.2,4.5-.42,1-.11,2.19-.21,3.46-.27a32.63,32.63,0,0,1,4.45.11l1.25.14,1.34.24a26.1,26.1,0,0,1,2.76.71,29.53,29.53,0,0,1,2.79,1.12c.9.46,1.79,1,2.65,1.49a23.38,23.38,0,0,1,7.83,8.68,29.84,29.84,0,0,1,3,8.95,43,43,0,0,1,.6,7.8c0,1.24-.07,2.43-.16,3.61-.06.59-.09,1.19-.17,1.76l-.2,1.65a49.14,49.14,0,0,0-.64,8.6,6.89,6.89,0,0,0,.34,2c.12.28.1.09,0-.06s-.18-.17.13.06l1.69,1.13a38.51,38.51,0,0,1,3.25,2.38,23.18,23.18,0,0,1,4.32,4.66,18.13,18.13,0,0,1,1,1.63,13.25,13.25,0,0,1,.86,1.73,19.89,19.89,0,0,1,1.24,3.68c.14.66.27,1.32.37,2a16.66,16.66,0,0,1,.14,2,16.27,16.27,0,0,1,0,2c-.05.62-.13,1.23-.22,1.85l-.15.92c-.05.3-.12.55-.19.82-.14.54-.29,1.08-.45,1.61a14.87,14.87,0,0,1-.51,1.44l-.56,1.35c-.38.82-.77,1.54-1.18,2.3s-.78,1.29-1.18,1.93c-1.58,2.36-3,4.12-4.23,5.64s-2.27,2.79-2.9,3.71l-.13.17a1.39,1.39,0,0,0-.06.13l-.12.23-.27.44c-.1.35-.3.63-.38,1a8.15,8.15,0,0,0-.29,1.11c0,.2-.09.38-.12.59s-.05.44-.08.65c-.09.41-.05.93-.11,1.39s0,1,0,1.53a26.18,26.18,0,0,0,.46,3.43,40.62,40.62,0,0,0,2.3,7.61c.56,1.32,1.11,2.55,1.8,3.95s1.45,2.9,2.24,4.43c1.59,3.09,3.39,6.45,5.14,10.18a82.4,82.4,0,0,1,4.82,12.58,61.18,61.18,0,0,1,1.6,7.4,43.82,43.82,0,0,1,.46,4.53,35.5,35.5,0,0,1-.22,5.38,33,33,0,0,1-3.48,11.39,35.83,35.83,0,0,1-6.47,8.75,56.48,56.48,0,0,1-6.27,5.33l-1.4,1-1.31.92-1.25.86-.61.41a1.92,1.92,0,0,0-.18.14l-.13.1-.49.37a2.67,2.67,0,0,1-.47.36,3.62,3.62,0,0,1-1.13.49,29.62,29.62,0,0,0-3.1.66,4.51,4.51,0,0,0-2.57,2,24.68,24.68,0,0,0-1.78,3.17,36.72,36.72,0,0,0-1.59,3.81c-.22.63-.48,1.5-.73,2.34l-.8,2.69c-.51,1.85-1.14,3.9-1.85,6a53.77,53.77,0,0,1-2.74,6.89,40.38,40.38,0,0,1-4.67,7.4,32.09,32.09,0,0,1-7.21,6.6,43.47,43.47,0,0,1-7.42,3.75l-5,2.18c-3.35,1.42-6.65,3-10,4.49l-19.76,9.5c-3.29,1.61-6.61,3.1-9.92,4.65l-2.5,1.1-2.17,1c-1.58.73-3.38,1.59-5.35,2.36s-4.1,1.6-6.45,2.34a33.49,33.49,0,0,1-8,1.64,30.18,30.18,0,0,1-10.23-1.08,31.55,31.55,0,0,1-5.74-2.23,26.8,26.8,0,0,1-2.82-1.64,29.41,29.41,0,0,1-2.66-1.92,31.64,31.64,0,0,1-4.39-4.53,30.27,30.27,0,0,1-2.93-4.48,33.89,33.89,0,0,1-3-8.18,61.41,61.41,0,0,1-1.13-6.44c-.25-1.8-.46-3.27-.67-4.42-.1-.58-.2-1.07-.3-1.48a7.55,7.55,0,0,0-.29-1.07,9.59,9.59,0,0,0-.92-1.81,4,4,0,0,0-.89-1,4.18,4.18,0,0,0-1.81-.73,11.72,11.72,0,0,0-3.11-.13,12.19,12.19,0,0,0-3.85.83c-.64.28-1.31.55-2,.82-.34.14-.79,0-1.11.24a7.2,7.2,0,0,0-.89.78c-1.14,1.15-2,2.7-3.27,3.65s-2.53,1.84-3.78,2.84c-.21.19-.88.64-1.37,1l-1.58,1.08c-1.07.67-2.16,1.3-3.26,1.91a66.91,66.91,0,0,1-13,5c-4.12,1.16-7.93,2-11.28,2.82a55.65,55.65,0,0,0-8.55,2.71l-.43.18c-.14.06-.34.14-.29.15s0,.07-.08.16a8.53,8.53,0,0,1-.69.6c-.67.57-1.66,1.42-2.88,2.5s-2.73,2.41-4.68,3.92c-.54.4-1,.77-1.61,1.18l-.89.61-1,.63c-.32.2-.69.42-1.08.63s-.74.42-1.17.64a29.8,29.8,0,0,1-2.79,1.22c-.51.19-1,.38-1.62.55s-1.14.34-1.77.48-1.3.27-2,.38-1.41.17-2.12.23a24.4,24.4,0,0,1-9-1.06,26.84,26.84,0,0,1-7.24-3.53c-.47-.33-1-.7-1.41-1l-1.23-1-.61-.51-.52-.5-1-1c-.35-.34-.64-.66-.92-1l-.85-.95-.42-.48-.19-.21-.38-.42-1.59-1.76c-1.13-1.23-2.39-2.54-3.74-4.1a69,69,0,0,1-4.5-5.63l-.61-.87-.63-1c-.4-.62-.84-1.41-1.25-2.13a34.09,34.09,0,0,1-2.4-5.49,30.8,30.8,0,0,1-.93-3.45,28.75,28.75,0,0,1-.52-4,26.86,26.86,0,0,1,.77-8.33,29.79,29.79,0,0,1,2.8-7.1c.55-.94,1.14-1.93,1.73-2.77l.88-1.2c.3-.41.6-.8.88-1.13a43.19,43.19,0,0,1,6.82-6.53c.55-.45,1-.8,1.59-1.2l.79-.58.69-.47c.9-.62,1.81-1.22,2.72-1.81s1.8-1.11,2.7-1.67,1.81-1.09,2.68-1.58,1.75-1,2.65-1.49a15.78,15.78,0,0,1,2.78-1.06,18.62,18.62,0,0,1,6.21-.56l3.29.3c1.11.11,2.21.27,3.28.35a24.8,24.8,0,0,0,6-.07,28.34,28.34,0,0,0,5.16-1.54,49.48,49.48,0,0,0,9.26-4.55,38.19,38.19,0,0,0,7.47-6.38c.27-.29.56-.58.82-.88l.74-.92c.48-.64,1-1.21,1.46-1.88l1.42-2c.47-.67.88-1.38,1.32-2.07a44.29,44.29,0,0,0,4.26-8.69,49.7,49.7,0,0,0,2.57-18.75,171.37,171.37,0,0,0-2.16-19.09c-.28-1.62-.49-3.25-.8-4.89-.17-.81-.22-1.65-.37-2.48s-.18-1.67-.24-2.53c-.12-1.71-.13-3.45-.09-5.25s.2-3.63.27-5.48.16-3.71.12-5.56a37.83,37.83,0,0,0-.54-5.45c-.58-3.59-2-6.94-3.06-10.38a417.84,417.84,0,0,0-16.59-40.13l-9.17-20q-4.54-10.08-8.65-20.52-1-2.62-2-5.26l-1.84-5.33c-.64-1.76-1.16-3.58-1.74-5.38l-.85-2.7c-.28-.9-.5-1.83-.75-2.74-1-3.66-1.93-7.32-2.71-11-.43-1.85-.78-3.73-1.16-5.6s-.65-3.77-.91-5.67a130.25,130.25,0,0,1,1.19-46.57c.46-1.92,1-3.81,1.52-5.72l.79-2.84c.29-.94.63-1.85.94-2.78l1.94-5.51,2.23-5.34c.38-.89.73-1.79,1.14-2.66l1.26-2.57c.85-1.7,1.67-3.43,2.55-5.11,1.81-3.3,3.56-6.67,5.48-9.85,7.59-12.89,15.93-24.82,23.45-37.07a205.46,205.46,0,0,0,10.29-18.78c1.63-3.18,2.83-6.5,4.21-9.79.62-1.66,1.13-3.35,1.71-5l.85-2.53c.26-.85.5-1.69.73-2.55,1.84-6.86,3-14.18,5.28-21.31a57.61,57.61,0,0,1,4.3-10.37c.47-.83,1-1.63,1.52-2.41.27-.39.57-.77.86-1.15l.83-1.08a17.44,17.44,0,0,1,1.93-2.14A5.37,5.37,0,0,1,263,49.6a3.11,3.11,0,0,1,1.74-.29A4.37,4.37,0,0,1,267.41,51,15.34,15.34,0,0,1,269,53.34c.89,1.64,1.61,3.32,2.4,5,.39.82.77,1.64,1.2,2.43a11.84,11.84,0,0,0,.7,1.13,9.79,9.79,0,0,0,.87,1,44.88,44.88,0,0,0,4,3.63c5.69,4.54,12.18,8,18.44,11.65Zm-.05.08c-6.47-3.36-13.07-6.48-19.09-10.82a43.89,43.89,0,0,1-4.31-3.55l-.51-.48a6.2,6.2,0,0,1-.54-.61,12.34,12.34,0,0,1-.84-1.24c-.5-.83-.93-1.65-1.36-2.46-.87-1.61-1.67-3.22-2.53-4.71a11.37,11.37,0,0,0-1.41-2,2.64,2.64,0,0,0-1.48-1,1.17,1.17,0,0,0-.61.12,3.24,3.24,0,0,0-.79.61,15.21,15.21,0,0,0-1.61,1.94l-.79,1.11c-.25.36-.5.71-.74,1.08-.47.72-.9,1.48-1.31,2.26a53.76,53.76,0,0,0-3.69,10c-1.9,6.93-2.76,14.18-4.35,21.36-.2.89-.41,1.79-.65,2.68l-.75,2.65c-.52,1.76-1,3.54-1.55,5.28-1.27,3.44-2.38,6.94-3.89,10.28a210.81,210.81,0,0,1-9.59,19.71c-7,12.79-14.8,25.13-21.66,38s-12.76,26.28-15.81,40.54S194,238,196.06,252.38c.49,3.61,1.11,7.21,1.81,10.78s1.51,7.13,2.38,10.67c1.77,7.07,3.79,14.08,6.13,21,4.62,13.83,10.14,27.33,15.71,40.8s11.16,26.94,16,40.69,9.37,27.67,11.42,42.13a89.37,89.37,0,0,1,.62,21.8,65.54,65.54,0,0,1-5.67,21A64,64,0,0,1,239,470.7c-.53.74-1,1.51-1.58,2.23l-1.67,2.16c-.57.72-1.2,1.38-1.79,2.07l-.9,1c-.31.34-.65.64-1,1a85.42,85.42,0,0,1-17.49,13c-6.27,3.71-12.78,7-19.13,10.57-3.19,1.76-6.31,3.65-9.37,5.62a37.92,37.92,0,0,0-8.42,6.91,12.13,12.13,0,0,0-2.58,4.77,9.49,9.49,0,0,0,.26,5.38,19.27,19.27,0,0,0,2.48,4.84c1,1.51,2.15,3,3.3,4.36l3.5,4.2c1.18,1.39,2.25,2.87,3.46,4.23a11,11,0,0,0,4.43,3.08,8.08,8.08,0,0,0,5.36-.17c3.45-1.26,6.3-3.65,9.24-5.76s6-4.26,9.55-5.18c7-2.1,14.33-2.6,21.46-4.09a48.05,48.05,0,0,0,10.41-3.27c3.33-1.5,6.19-3.83,9.38-5.59a60.1,60.1,0,0,1,9.86-4.68,29.67,29.67,0,0,1,10.7-1.94,15.5,15.5,0,0,1,10,3.82,18,18,0,0,1,3.47,4.2,22,22,0,0,1,2.24,5c1.13,3.46,1.7,7.09,2.83,10.55s2.83,6.88,5.87,9a11.73,11.73,0,0,0,5.08,1.88,19.83,19.83,0,0,0,5.44-.09,49.13,49.13,0,0,0,10.48-3c6.72-2.81,13.52-5.43,20.3-8.1l20.35-8,10.17-4,5.09-2c.85-.34,1.7-.64,2.52-1a12.66,12.66,0,0,0,1.23-.59l1.18-.7a18,18,0,0,0,4-3.64,23.27,23.27,0,0,0,2.91-4.61,55.13,55.13,0,0,0,3.5-10.33,93.25,93.25,0,0,1,3.06-10.49,39,39,0,0,1,5.12-9.62,32.06,32.06,0,0,1,7.85-7.52,61.42,61.42,0,0,0,8.74-6.54,17.84,17.84,0,0,0,3.33-4.3,15,15,0,0,0,1.65-5.18,18.92,18.92,0,0,0,.16-2.72c-.05-.91-.07-1.82-.21-2.72a44.4,44.4,0,0,0-1-5.37c-1.74-7.1-4.89-13.73-7.81-20.39a106.57,106.57,0,0,1-4-10.17A56.61,56.61,0,0,1,409.84,408a34.24,34.24,0,0,1,.38-10.88,23.9,23.9,0,0,1,4.46-9.88c2.23-2.89,4.85-5.45,6.91-8.47a12.65,12.65,0,0,0,2.18-5,7.14,7.14,0,0,0-1.14-5.18c-2.12-3-5.9-4.24-8.28-7.05a12.83,12.83,0,0,1-2.61-4.76,20.9,20.9,0,0,1-.84-5.39,63,63,0,0,1,.9-10.88,36.08,36.08,0,0,0,.11-10.88,17.24,17.24,0,0,0-1.66-5.18,10.67,10.67,0,0,0-3.56-4,11.25,11.25,0,0,0-5.11-1.74,27.59,27.59,0,0,0-5.45.11c-1.81.17-3.62.39-5.45.42a15.51,15.51,0,0,1-13.86-7.36,53.28,53.28,0,0,1-5-9.69c-1.41-3.36-2.73-6.76-4.28-10.06a36.84,36.84,0,0,0-5.83-9.18,20.24,20.24,0,0,0-4.17-3.49,19.67,19.67,0,0,0-5-2.11,81.74,81.74,0,0,0-10.8-1.59,37.72,37.72,0,0,1-5.37-1,17.17,17.17,0,0,1-4.93-2.34,15.52,15.52,0,0,1-5.92-9,15.87,15.87,0,0,1-.37-5.45,18.16,18.16,0,0,1,1.46-5.25,65.31,65.31,0,0,1,5.64-9.36,95.44,95.44,0,0,0,5.4-9.49,116.8,116.8,0,0,0,8-20.3c2-7,3.29-14.28,2.77-21.56a28.78,28.78,0,0,0-2.65-10.51,21.54,21.54,0,0,0-7-8.21,53.7,53.7,0,0,0-9.56-5.23c-3.32-1.5-6.7-2.87-10-4.45a39.43,39.43,0,0,1-9.23-5.83,18.12,18.12,0,0,1-5.77-9.12,13.48,13.48,0,0,1-.2-5.44,19.43,19.43,0,0,1,1.69-5.2,53,53,0,0,1,6-9.13c2.22-2.89,4.52-5.72,6.53-8.76a24.78,24.78,0,0,0,4.24-10,20.21,20.21,0,0,0-1.73-10.62,30,30,0,0,0-6.32-8.82,61.49,61.49,0,0,0-8.46-6.89,96.29,96.29,0,0,0-9.33-5.68Z"/></svg>