<svg id="Layer_1" data-name="Layer 1" xmlns="http://www.w3.org/2000/svg" viewBox="0 0 600 600"><title>Madagascar</title><path d="M309.69,523.19c2.39-6.25,3.27-13,5.16-19.37l5.08-19.39c1.66-6.47,3.44-12.91,5-19.41l4.73-19.5L334.4,426l4.65-19.52,2.33-9.77,2.39-9.74,4.81-19.47q5-19.42,10.27-38.75l5.27-19.33,2.64-9.67,2.7-9.62c1.78-6.38,3.49-12.66,4.94-18.88s2.81-12.32,3.67-18.39c.23-1.51.41-3,.59-4.53l.48-4.83a57,57,0,0,1,2.61-12.44,75.6,75.6,0,0,1,4.81-11l2.42-4.56,1.13-2.13,1-2a12.11,12.11,0,0,0,.77-9.25c0-.19-.13-.37-.17-.56a1.6,1.6,0,0,1-.06-.24s0,0,0-.06a12.35,12.35,0,0,0-.59-1.32c-.62-1.24-1.62-3-2.62-5.33a31.43,31.43,0,0,1-1.44-4.18,22.45,22.45,0,0,1-.54-2.67c-.08-.46-.12-1-.16-1.53a14.36,14.36,0,0,1,0-1.63c0-.57,0-1.14.11-1.71s.19-1.19.31-1.77a11.44,11.44,0,0,1,.41-1.46c.15-.45.26-.81.48-1.33a16.62,16.62,0,0,1,4.42-6.45,15.23,15.23,0,0,1,2.06-1.52,16.24,16.24,0,0,1,2.34-1.13,15.7,15.7,0,0,1,2.34-.63l1.1-.15a6.53,6.53,0,0,1,1-.06,15.65,15.65,0,0,1,6,1.08,24.11,24.11,0,0,1,3.66,1.78,32.83,32.83,0,0,1,2.75,1.81l2.31,1.72c.72.55,1.4,1.07,2,1.52l.81.6a3.58,3.58,0,0,1,.38.28l-.12,0s0,0,0,0a.23.23,0,0,0,.12.06,1.57,1.57,0,0,0,.26.12,2.25,2.25,0,0,0,1.26-.05,2.46,2.46,0,0,0,.51-.26,3.21,3.21,0,0,0,.61-.43,3.05,3.05,0,0,0,.73-1.07,8.06,8.06,0,0,0,.49-2.17,22.54,22.54,0,0,0-.56-7,56,56,0,0,0-2.5-8.24l-.84-2.13-.86-2c-.61-1.35-1.25-2.71-2-4.09-1.4-2.78-2.95-5.64-4.54-8.68s-3.23-6.26-4.73-9.77c-.75-1.76-1.46-3.6-2.12-5.49l-1.69-5.16q-1.49-4.73-3-9.35c-.5-1.54-1.06-3.07-1.62-4.58s-1.21-3-1.68-4.5a28.14,28.14,0,0,1-1-4.65l-.35-2.36-.34-2.49-.52-4.94L394,83c-.49-6.36-1.31-12.57-3.84-17.72-.32-.63-.64-1.26-1-1.87s-.73-1.18-1.12-1.75l-1.23-1.62c-.34-.41-.68-.8-1-1.13A7.75,7.75,0,0,0,384,57.58a2,2,0,0,0-1.13-.21,3.8,3.8,0,0,0-1.7.71,4,4,0,0,0-1.29,1.47,11.76,11.76,0,0,0-1.17,2.93c-.32,1.23-.59,2.64-.85,4.23-.12.76-.3,1.74-.38,2.39s-.22,1.43-.28,2.19c-.15,1.49-.25,3.07-.34,4.67-.19,3.22-.32,6.65-.67,10.27a58.76,58.76,0,0,1-2.13,11.43,35.94,35.94,0,0,1-2.45,6l-.79,1.47c-.3.5-.65,1-1,1.52s-.65,1-1.07,1.51-.87,1-1.31,1.51c-.23.25-.43.5-.69.74l-.81.72a20.76,20.76,0,0,1-1.7,1.37c-.63.41-1.27.81-1.91,1.19a19.52,19.52,0,0,1-2,1,25.57,25.57,0,0,1-7.45,1.74c-2.08.19-3.81.25-5.2.37-.37,0-.66.07-1,.1s-.64.07-.9.12l-.82.14-.72.19a7.75,7.75,0,0,0-4,2.31,2.61,2.61,0,0,1-.27.31,2.28,2.28,0,0,1-.2.38c-.18.19-.24.56-.4.82s-.1.37-.17.54a3.52,3.52,0,0,0-.17.57c-.07.47-.22.84-.27,1.41a51.28,51.28,0,0,0-.22,8l0,2.46c0,.42-.28.86-.22,1.28s.21.88.34,1.34.29.91.47,1.37l.47,1.48a10.09,10.09,0,0,1,.54,3.14,33.74,33.74,0,0,1-1,7.1,33,33,0,0,1-1.22,3.92,27.72,27.72,0,0,1-2,4,24.81,24.81,0,0,1-6.32,7.05,28.26,28.26,0,0,1-7.79,4.12c-2.39.84-4.38,1.29-6,1.69l-2,.52a10,10,0,0,0-1,.36,2.47,2.47,0,0,0-.81.47l-.5.6c-.22.29-.51.7-.83,1.16l-.25.38-.12.19-.27.39L309,176.14a30,30,0,0,1-2.44,2.94,31.76,31.76,0,0,1-2.68,2.64c-.9.9-1.87,1.59-2.82,2.38a57.49,57.49,0,0,1-5.9,3.88c-1,.56-2,1.05-3,1.57s-2,.95-2.94,1.42a165.24,165.24,0,0,1-21.88,7.3l-17.95,5.19-8.22,2.36L237.24,207a13.39,13.39,0,0,1-4,.91,12.42,12.42,0,0,1-2.23-.14l-1.18-.22-1.24-.3c-1.7-.46-3.5-1-5.31-1.29a14.62,14.62,0,0,0-5.09-.11,9.15,9.15,0,0,0-2.19.67c-.69.3-1.37.6-2,1a27.88,27.88,0,0,0-7.18,5.13,28.3,28.3,0,0,0-5.06,7l-.92,1.93-.79,2c-.24.66-.43,1.35-.65,2a20.72,20.72,0,0,0-.6,2,38.57,38.57,0,0,0-.81,4.18c-.07.71-.17,1.41-.23,2.12s-.05,1.44-.05,2.16c-.11,5.77,1.37,11.63,3.21,17.38.41,1.44,1,2.89,1.46,4.33s1,2.91,1.52,4.36C205,265,206,268,207,271a71.94,71.94,0,0,1,2.64,9.35c.11.77.3,1.79.39,2.75s.14,1.93.19,2.89c0,1.91-.11,3.82-.27,5.66s-.38,3.65-.51,5.41a40.13,40.13,0,0,0-.06,5.13,43.13,43.13,0,0,0,1.88,9.45c.22.75.43,1.5.67,2.24l.76,2.28.82,2.48.77,2.54a58.88,58.88,0,0,1,2.35,10.75,42.6,42.6,0,0,1-.25,11.6,52.87,52.87,0,0,1-3.22,10.89c-.7,1.68-1.43,3.36-2.22,5l-.58,1.21-.56,1.12L208.68,364l-4.46,9c-3,6-6.07,12.07-9.38,18-1.66,3-3.32,6-5.09,8.89s-3.61,5.84-5.47,8.73a84,84,0,0,0-4.66,7.62,21,21,0,0,0-1.3,3.19,19.82,19.82,0,0,0-.62,3.14,24.3,24.3,0,0,0,.18,6.92,56.25,56.25,0,0,0,2.08,8.07c.95,2.85,2.1,5.8,3.33,8.87s2.46,6.28,3.65,9.65A81.19,81.19,0,0,1,190,466.75a56,56,0,0,1,.91,5.77,47.22,47.22,0,0,1,.22,5.92c-.1,3.85-.55,7.37-.94,10.63a68.49,68.49,0,0,0-.69,9.06,24.7,24.7,0,0,0,.34,3.94,19.31,19.31,0,0,0,1,3.55,37.12,37.12,0,0,0,4.67,7.4c4,5.34,7.93,10.58,12.22,15.39A70,70,0,0,0,222,541a43.6,43.6,0,0,0,17.5,6.66,31.12,31.12,0,0,0,9.39-.11,44.61,44.61,0,0,0,9.23-2.87,85,85,0,0,1,9.55-3.45,40.65,40.65,0,0,1,10.14-1.09c3.36,0,6.69.22,10,.1a43.24,43.24,0,0,0,5-.39,16.35,16.35,0,0,0,4.71-1.48,19.29,19.29,0,0,0,4.13-2.75,23.45,23.45,0,0,0,3.44-3.6,28.74,28.74,0,0,0,4.7-8.76Zm.09,0a28.41,28.41,0,0,1-4.24,9.12,24.18,24.18,0,0,1-3.34,3.89,19.53,19.53,0,0,1-4.19,3.1,17.19,17.19,0,0,1-5,1.83,44.32,44.32,0,0,1-5.1.61c-3.4.27-6.75.14-10,.28a38.3,38.3,0,0,0-9.56,1.35,81.44,81.44,0,0,0-9.11,3.67,48,48,0,0,1-9.68,3.4,35,35,0,0,1-10.31.53A47.28,47.28,0,0,1,220,544.57a75.58,75.58,0,0,1-15.71-12.68c-4.69-4.82-8.94-10-13.17-15.16a45,45,0,0,1-5.78-8.28,24.87,24.87,0,0,1-1.74-4.78,31.66,31.66,0,0,1-.74-5c-.45-6.74.8-13.37.66-20s-2.06-13.15-4.51-19.33-5.41-12.2-7.72-18.47a59.65,59.65,0,0,1-2.75-9.62,31.12,31.12,0,0,1-.29-10,27,27,0,0,1,3.18-9.43,85.38,85.38,0,0,1,5.45-8.39c3.83-5.47,7.47-11.07,11-16.75s6.88-11.44,10.19-17.23l4.93-8.72c1.64-2.91,3.3-5.81,4.69-8.84a42.91,42.91,0,0,0,3.18-9.47,33.69,33.69,0,0,0,.43-10,53.7,53.7,0,0,0-2-9.79c-.92-3.21-2.18-6.31-3.1-9.52-1.88-6.41-3-13-4.59-19.49s-4-12.74-5.88-19.13a147.65,147.65,0,0,1-4.85-19.41,71.69,71.69,0,0,1-.88-19.94,48.22,48.22,0,0,1,6-18.95,54,54,0,0,1,13.12-15,71.91,71.91,0,0,1,17.21-10.11,112,112,0,0,1,19.11-5.9c6.52-1.44,13.12-2.46,19.73-3.37s13.26-1.87,19.58-4.05a36.37,36.37,0,0,0,8.95-4.41,25.64,25.64,0,0,0,3.82-3.22,29.43,29.43,0,0,0,3.15-3.89,22.62,22.62,0,0,1,3.29-3.75,15.26,15.26,0,0,1,4.25-2.61c3.1-1.27,6.46-1.68,9.61-2.8a16,16,0,0,0,4.42-2.31,13.33,13.33,0,0,0,3.34-3.68,21.22,21.22,0,0,0,2.77-9.52c.52-6.65-.44-13.39.85-20a22.72,22.72,0,0,1,.61-2.43,24.32,24.32,0,0,1,.92-2.32,13.21,13.21,0,0,1,1.27-2.15l.73-1,.87-.9a16.23,16.23,0,0,1,4.05-2.91,18.31,18.31,0,0,1,4.7-1.68c3.26-.75,6.63-.62,10-.84a16.63,16.63,0,0,0,4.88-1,11,11,0,0,0,4.09-2.8A24.31,24.31,0,0,0,366.08,95a52.69,52.69,0,0,0,2.11-9.77c.86-6.62,1-13.33,2.43-19.87.64-3.26,1.34-6.59,3.05-9.48a12,12,0,0,1,7.9-5.67,9.51,9.51,0,0,1,4.93.42,13.68,13.68,0,0,1,4.27,2.56,21.09,21.09,0,0,1,1.79,1.75l1.61,1.91,1.51,2,1.39,2.08A86.83,86.83,0,0,1,405.44,79c1.1,3.15,2.11,6.33,3.1,9.51s2,6.38,2.87,9.6c1.81,6.42,3.41,12.9,4.95,19.4.39,1.62.76,3.25,1.19,4.86s.93,3.21,1.47,4.79c1.08,3.15,2.33,6.25,3.6,9.33,2.57,6.16,5.24,12.3,7,18.76a70.94,70.94,0,0,1,2.1,9.78,32.05,32.05,0,0,1,0,10,16.22,16.22,0,0,1-1.6,4.73,11.76,11.76,0,0,1-3.21,3.8,12.13,12.13,0,0,1-4.47,2.16,11.46,11.46,0,0,1-5,.09,10.64,10.64,0,0,1-2.38-.76c-.75-.38-1.45-.83-2.16-1.27-1.4-.9-2.79-1.82-4.24-2.66a21.14,21.14,0,0,0-4.53-2.09,7.35,7.35,0,0,0-2.46-.33,3.45,3.45,0,0,0-2.24,1,4.94,4.94,0,0,0-1.24,2.13,6.88,6.88,0,0,0-.38,2.46,11.27,11.27,0,0,0,1.47,4.73c1.52,3,3.77,5.54,4.82,8.75a24.84,24.84,0,0,1-1.23,19.47c-3,6-6.53,11.68-8.63,18a47.2,47.2,0,0,0-2.11,9.76c-.36,3.32-.71,6.64-1.26,9.93-2.11,13.2-5.88,26.05-9.81,38.8l-23.73,76.51-47.44,153Z"/></svg>