<svg id="Layer_1" data-name="Layer 1" xmlns="http://www.w3.org/2000/svg" viewBox="0 0 600 600"><title>Malaysia</title><path d="M122.32,73.14c-.77-.74-1.65-1.38-2.49-2a5,5,0,0,0-1.3-.91,5.51,5.51,0,0,0-1.56-.34c-.53,0-1.06,0-1.61-.07s-1.09-.11-1.62-.18a11.81,11.81,0,0,0-3.13-.11c-2,.23-3.54,1.91-5.72,2.78a18.75,18.75,0,0,1-3.28.9,8.68,8.68,0,0,1-1.78.14l-1.63-.07a2.57,2.57,0,0,0-1.12.15,1.27,1.27,0,0,0-.5.58,1.87,1.87,0,0,0-.21.92,3.69,3.69,0,0,0,.22,1.1,17.93,17.93,0,0,0,3.16,4.85,55.32,55.32,0,0,1,4.06,5.29,18.46,18.46,0,0,1,1.71,3.21,13.22,13.22,0,0,1,1,3.82,8.8,8.8,0,0,1,0,1,7,7,0,0,1-.11,1.17A13.16,13.16,0,0,1,106,97.1c-.12.45-.2.79-.24,1a3,3,0,0,0,0,.68,1,1,0,0,0,.1.36c0,.08-.08.09.08.15a2.64,2.64,0,0,0,1-.12,17.18,17.18,0,0,1,1.82-.41,12.83,12.83,0,0,1,3.75.2l.82.15.85.17c.55.13,1.09.28,1.37.31s.07.12.33,0a4.14,4.14,0,0,0,.68-1,17.23,17.23,0,0,0,1-2.85A9.91,9.91,0,0,1,119,92.48a8.16,8.16,0,0,1,2.81-2.13,4.67,4.67,0,0,0,2.14-1.91,5.81,5.81,0,0,0,.42-3,14.81,14.81,0,0,1,0-3.26,16.31,16.31,0,0,0,.15-3.2C124.45,76.9,124,74.61,122.32,73.14Zm0,0a6.17,6.17,0,0,1,1.75,2.68,15,15,0,0,1,.59,3.18,16.7,16.7,0,0,1,0,3.24,14.12,14.12,0,0,0,.24,3.17,6.88,6.88,0,0,1-.15,3.39,5.91,5.91,0,0,1-2.28,2.64,6.71,6.71,0,0,0-2.09,2,8,8,0,0,0-.77,2.76,18,18,0,0,1-.7,3.38,6.88,6.88,0,0,1-.94,1.79,3.17,3.17,0,0,1-1.1.9,3.26,3.26,0,0,1-1.41.3,16.1,16.1,0,0,1-1.82-.18l-.74-.07-.78-.06a8.71,8.71,0,0,0-2.68.13c-.31.09-.74.29-1.27.51a6.85,6.85,0,0,1-2.1.58,4.4,4.4,0,0,1-2.93-.77,5.09,5.09,0,0,1-1.79-2.21,7.18,7.18,0,0,1-.24-4.62c.13-.58.25-1,.32-1.39a2.69,2.69,0,0,0,0-.44c0-.18,0-.39,0-.58a11.43,11.43,0,0,0-1.59-5c-.46-.86-1-1.73-1.56-2.62s-1.1-1.76-1.72-2.71a19.78,19.78,0,0,1-3-6.39,6.62,6.62,0,0,1-.09-2.1,4.91,4.91,0,0,1,.84-2.09,3.68,3.68,0,0,1,1.95-1.43,5.09,5.09,0,0,1,2.08,0c.59.1,1.1.22,1.58.29a7.57,7.57,0,0,0,1.44.06,16.19,16.19,0,0,0,3-.45c1.89-.48,3.72-2.08,6.1-2.19a12.65,12.65,0,0,1,3.28.4,21.06,21.06,0,0,0,3.18.5,5.8,5.8,0,0,1,1.57.42,6.5,6.5,0,0,1,1.29,1C120.69,71.74,121.56,72.39,122.32,73.14Z"/><path d="M162.37,54.31a44.31,44.31,0,0,1,2.27,5.75,14,14,0,0,0,3.07,5.25,11.19,11.19,0,0,0,5.17,2.74,33.53,33.53,0,0,0,6,.86l12.34.94,6.17.46,3.08.24a19.47,19.47,0,0,1,3.36.47,8.69,8.69,0,0,1,3.47,1.77,9.12,9.12,0,0,1,2.34,3.12,20.66,20.66,0,0,1,1.58,6.7c.22,2.13.32,4.18.6,6s.78,3.52,1.54,4.22a2.94,2.94,0,0,0,1.4.73,5.78,5.78,0,0,0,2,0c.82-.1,1.76-.32,2.8-.54a19.52,19.52,0,0,1,3.61-.5,8.32,8.32,0,0,1,4.62,1.19,6.87,6.87,0,0,1,2,1.71,10.17,10.17,0,0,1,1.22,2,17.67,17.67,0,0,1,1.14,3.62c.22,1.09.47,2.17.61,3.28a50.79,50.79,0,0,1,.19,13.26,113,113,0,0,1-2.27,12.61l-1.35,6a19.59,19.59,0,0,0-.66,5c.08,1.29.46,1.78.87,2.07a4.08,4.08,0,0,0,2.53.54,5.79,5.79,0,0,0,1.61-.35,2.21,2.21,0,0,0,.35-.16l.17-.07.23-.13a10,10,0,0,0,.91-.55,22.26,22.26,0,0,0,3.74-3.27c2.51-2.64,4.81-5.85,7.61-9.26l2.09-2.45c.7-.8,1.41-1.62,2.16-2.43a55.22,55.22,0,0,1,4.94-4.82,33.79,33.79,0,0,1,6.19-4.25c.57-.31,1.17-.58,1.78-.86s1.3-.55,2-.75a24,24,0,0,1,4.06-1,23.47,23.47,0,0,1,8.54.24,18.91,18.91,0,0,1,8.43,4.25c.31.28.63.56.92.86l.85.95.42.5.46.65a13.45,13.45,0,0,1,.77,1.27,23.59,23.59,0,0,1,1.64,4.11,9.63,9.63,0,0,0,.71,1.88c0,.07.06.07.07.1a2,2,0,0,0,.14.16,2.27,2.27,0,0,0,.31.31,2.18,2.18,0,0,0,1.34.56,2,2,0,0,0,1.11-.44,2.7,2.7,0,0,0,.56-.56,3.27,3.27,0,0,0,.31-.68c.33-.76.68-2.5,1.37-5l2.85-11.86c.28-1.13.55-2.31.86-3.28s.64-2.12,1-3.23a43.67,43.67,0,0,1,3-7,26.76,26.76,0,0,1,5.58-7.14,28.18,28.18,0,0,1,4-2.9,24.68,24.68,0,0,1,14.17-2.91,30.39,30.39,0,0,1,8.54,2l1,.38.94.43c.63.29,1.27.58,1.89.9,1.19.67,2.41,1.32,3.52,2.1a38,38,0,0,1,6.32,5.24l1.42,1.52,1.33,1.65c.47.57.81,1.08,1.18,1.6s.75,1,1.07,1.56a69.3,69.3,0,0,1,3.64,6.3c2.12,4.17,3.79,8.19,5.39,11.86a80.72,80.72,0,0,0,4.89,9.77c3.42,5.58,8.37,10.38,14.2,14.87s12.57,8.62,19.63,13S418.82,166.74,426,173c1.76,1.62,3.57,3.13,5.23,5l2.54,2.67c.83.91,1.6,1.94,2.39,2.91s1.56,2,2.3,3l2.12,3.16,1.92,3.24c.6,1.09,1.16,2.19,1.74,3.29a92.78,92.78,0,0,1,5.41,13.4c1.46,4.47,2.65,8.89,3.63,13.26s1.86,8.64,2.64,12.83,1.5,8.16,2.22,12.48,1.33,8.85,1.7,13.69c.17,2.42.26,4.92.22,7.48,0,1.28-.07,2.58-.15,3.89s-.21,2.66-.39,3.89c-1.22,10.22-4.16,19.13-6.38,26.82s-3.84,14.21-3.68,19.29l0,1a4.64,4.64,0,0,0,.06.92c.09.6.15,1.2.21,1.79s.27,1.15.38,1.72c.06.29.1.58.17.86l.3.84.28.85.12.42.06.21c0,.07.07.24.1.35a15.63,15.63,0,0,1,.53,3.19c.1,1.1.2,2.25.25,3.39s0,2.37,0,3.58a34.32,34.32,0,0,0,.45,7.29c.35,2.44.62,4.95.84,7.5s.29,5.16.28,7.76c0,1.29,0,2.59-.12,3.88l-.09,1.78-.1,1.55c-.24,4.13-.57,8-.65,11.62a55.36,55.36,0,0,0,.29,9.74,38.39,38.39,0,0,0,2.05,7.8l.34.93.44.9.43.93c.16.3.36.6.53.9a16.25,16.25,0,0,0,1.14,1.83l.64.91.32.46c.09.14.32.41.47.61a196.11,196.11,0,0,1,15,21.63,268.65,268.65,0,0,1,22.06,46.86c2.89,8.08,5.5,16.22,8,24.42l.93,3.08.23.77c.07.24.12.34.18.52s.22.65.39,1.05c.58,1.48,1.4,3.22,2.26,5s1.78,3.73,2.69,5.79a64.25,64.25,0,0,1,2.56,6.67,33.24,33.24,0,0,1,1.63,8.5c0,.86,0,1.78,0,2.67a26.33,26.33,0,0,1-.42,2.94,11.41,11.41,0,0,1-.33,1.29l-.37,1.19c-.13.4-.24.78-.4,1.19l-.56,1.28-.62,1.25c-.21.41-.54.88-.81,1.31a16.68,16.68,0,0,1-2,2.55,11.38,11.38,0,0,1-1.29,1.12c-.47.33-1,.65-1.43,1s-.89.78-1.37,1.12-1,.64-1.47,1a23.55,23.55,0,0,1-3.05,1.61,12.89,12.89,0,0,1-1.52.6c-.5.18-1,.34-1.52.49a24.85,24.85,0,0,1-2.87.6,25.68,25.68,0,0,1-2.62.13A45.22,45.22,0,0,1,484,555l-1.75-.45-1.66-.45-1.4-.36c-.44-.11-.9-.24-1.32-.33a47.77,47.77,0,0,0-4.8-.88,15.81,15.81,0,0,0-3.65,0,10.47,10.47,0,0,0-2.8.76,23.09,23.09,0,0,0-3.15,1.58c-.28.14-.6.35-.9.54s-.61.37-.94.59l-1,.67-1.24.81c-1.86,1.24-4,2.53-6.3,3.8a41.6,41.6,0,0,1-8.67,3.59,30.82,30.82,0,0,1-6.08,1.08,35.94,35.94,0,0,1-3.6,0,37.06,37.06,0,0,1-3.89-.53c-1.31-.32-2.63-.7-3.92-1.15s-2.45-1.1-3.64-1.74a34.56,34.56,0,0,1-3.15-2.11l-.75-.56-.64-.56-1.24-1.15L416.32,557c-.35-.38-.66-.75-1-1.14-.63-.75-1.29-1.54-1.86-2.3s-1-1.45-1.46-2.19l-.71-1.12-.47-.8c-2.51-4.27-4.37-7.91-6.14-10.74a24.09,24.09,0,0,0-4.41-5.64,7.11,7.11,0,0,0-.81-.59l-.18-.13-.28-.17a6.53,6.53,0,0,1-.56-.35c-.89-.45-1.81-1-3-1.49a95.44,95.44,0,0,0-9.35-3.22c-3.75-1.18-8-2.41-12.89-4.32-1.18-.45-2.47-1-3.71-1.57s-2.41-1.15-3.57-1.75a28.16,28.16,0,0,1-6.41-4.1,22.73,22.73,0,0,1-4.61-5.93c-.6-1.14-1.18-2.26-1.72-3.4l-1.56-3.4a39.3,39.3,0,0,0-3.38-6A42.48,42.48,0,0,0,344,492a123.49,123.49,0,0,0-9.22-8.39q-4.85-3.87-10-7.39l-10.22-7-5.11-3.51c-1.74-1.13-3.44-2.31-5.21-3.39L299,458.94c-1.76-1.1-3.57-2.14-5.35-3.22l-5.37-3.18-5.2-3.05c-7-4-14.08-8.13-20.95-12.88a83.44,83.44,0,0,1-10-7.73,65.38,65.38,0,0,1-8.39-10.13l-3.82-5.48c-.66-.88-1.28-1.79-2-2.63s-1.33-1.74-2-2.58c-.34-.43-.7-.83-1.06-1.23l-1-1.25-2.23-2.44a16.45,16.45,0,0,1-4-8.17,13.74,13.74,0,0,1,.11-5.14,13.07,13.07,0,0,1,2.22-4.78,17.24,17.24,0,0,1,3.09-3.16c1-.83,2-1.48,2.77-2.07a15.46,15.46,0,0,0,3.58-3.12,13.62,13.62,0,0,0,2.11-3.85,12.86,12.86,0,0,0,.75-4.25,6.59,6.59,0,0,0-.06-1,6.16,6.16,0,0,0-.14-1,16.35,16.35,0,0,0-.59-2.13,23,23,0,0,0-2.25-4.53,48,48,0,0,0-3.19-4.53c-2.33-3-5-5.95-7.78-8.93s-5.55-5.7-8.47-8.39a168.3,168.3,0,0,0-18.52-14.81c-3.19-2.23-6.78-4.5-10.48-7.43a48.66,48.66,0,0,1-5.47-5,34.15,34.15,0,0,1-2.56-3.09c-.42-.53-.79-1.13-1.17-1.7a22.27,22.27,0,0,1-1.14-1.95,26.23,26.23,0,0,1-2.8-8.76,39,39,0,0,1-.19-8.07c.07-1,.13-2,.16-2.85l0-.59c0-.2,0-.29,0-.45s-.05-.3,0,0c0,0,0,.23.06.33l.1.39a2.86,2.86,0,0,0,.15.41,1.42,1.42,0,0,0,.12.25c.06.11,0,.07,0,.08s0,0,0-.05l-.33-.48c-.58-.85-1.37-2-2-3.1a43.72,43.72,0,0,1-3.41-7.07,42.22,42.22,0,0,1-2-7.61,51.3,51.3,0,0,1-.35-14.8c.14-1.18.29-2.35.48-3.5.09-.58.18-1.15.29-1.72s.22-1.19.33-1.63c.43-2,.85-3.88,1.2-5.75s.67-3.71,1-5.5.44-3.55.51-5.2a28.45,28.45,0,0,0-.09-4.74c-.13-.69-.17-1.46-.36-2.09-.09-.32-.14-.68-.24-1s-.22-.6-.32-.91a10.43,10.43,0,0,0-1.9-3.19,8.94,8.94,0,0,0-1.48-1.47c-.67-.53-1.5-1.13-2.46-1.85a28.28,28.28,0,0,1-3.16-2.67,17.17,17.17,0,0,1-1.6-1.84,15.6,15.6,0,0,1-1.36-2.21,14.82,14.82,0,0,1-1.5-4.87,20.2,20.2,0,0,1,0-4.45,51.34,51.34,0,0,1,1.37-6.73,20.59,20.59,0,0,0,.51-2.56l.08-.55c0-.13,0-.27,0-.4a4.26,4.26,0,0,0,0-.8,3.41,3.41,0,0,0-.34-1.26,1.28,1.28,0,0,0-.36-.5c-.23-.14-.19-.1-.24-.1a2.84,2.84,0,0,0-.87.25,13.79,13.79,0,0,0-2,1.06,20.37,20.37,0,0,1-3.72,1.91,10,10,0,0,1-3.2.59,8.49,8.49,0,0,1-3.91-.91,10.5,10.5,0,0,1-2.58-1.9,12.91,12.91,0,0,1-1.69-2.09,15.69,15.69,0,0,1-1.85-4.2c-.09-.34-.18-.67-.26-1s-.14-.64-.21-1-.12-.75-.15-1.08-.07-.67-.1-1a31.69,31.69,0,0,1,.41-7.4,19.8,19.8,0,0,1,1.13-4,13.44,13.44,0,0,1,1.18-2.22c.12-.19.24-.37.39-.57l.51-.61c.18-.2.35-.39.55-.58s.47-.4.71-.59a7.61,7.61,0,0,1,.72-.51l.54-.3c.39-.19.78-.38,1.21-.55a10,10,0,0,1,3-.67,8.16,8.16,0,0,1,6.12,2.23c.19.16.34.33.5.49s.31.34.42.48c.24.29.45.58.64.86.39.56.69,1.09,1,1.55a17.55,17.55,0,0,0,1.33,2.12,5.61,5.61,0,0,0,.45.51,2.15,2.15,0,0,0,.36.25.73.73,0,0,0,.51.1c.18,0,.22-.06.23,0h0l.06-.17c0-.12.06-.26.09-.41a6.77,6.77,0,0,0,.08-1.07,36.6,36.6,0,0,0-.58-5.64c-.15-1-.31-2.11-.43-3.23s-.15-2.19-.21-3.21l-.34-6.18-.68-12.36c-.24-4.12-.43-8.24-.72-12.35s-.47-8.28-.87-12.29a28.8,28.8,0,0,0-3.17-11.4c-1.9-3.52-4.55-6.75-6.55-10.47a33,33,0,0,1-2.27-24.3,23.54,23.54,0,0,1,2.41-5.71,18.82,18.82,0,0,1,3.89-4.81,8.62,8.62,0,0,1,2.65-1.59,4.89,4.89,0,0,1,3.07-.1,6.08,6.08,0,0,1,2.57,1.69,14.34,14.34,0,0,1,1.81,2.5Zm-.08,0A10.61,10.61,0,0,0,160.37,52a5.86,5.86,0,0,0-2.55-1.51,4.43,4.43,0,0,0-2.83.22,8.14,8.14,0,0,0-2.43,1.62A18.17,18.17,0,0,0,149,57.08,23.6,23.6,0,0,0,147,62.67a32,32,0,0,0,2.89,23c2,3.43,4.71,6.55,6.88,10.26a25.81,25.81,0,0,1,2.57,6,44.1,44.1,0,0,1,1.23,6.26c.51,4.17.78,8.24,1.17,12.36l1.07,12.32,1.07,12.32.53,6.16c.1,1,.17,2.07.29,3s.31,2,.49,3a42.32,42.32,0,0,1,.85,6.26,9,9,0,0,1-.45,3.39,4.64,4.64,0,0,1-2.62,2.56,5.25,5.25,0,0,1-3.58.12,6.76,6.76,0,0,1-2.88-1.91c-1.52-1.64-2.4-3.6-3.76-4.78a3,3,0,0,0-2.27-.77,4.78,4.78,0,0,0-2.39,1,5.46,5.46,0,0,0-1.44,2.23,15.56,15.56,0,0,0-.73,2.84c-.59,3.9-.72,8.22,1.25,11.6a5.67,5.67,0,0,0,1.94,2,3.15,3.15,0,0,0,2.59.07c1.82-.62,3.49-2,5.5-2.75a7.75,7.75,0,0,1,3.18-.58,6,6,0,0,1,3.06,1.09,7.87,7.87,0,0,1,3.06,5.45,19.07,19.07,0,0,1-.49,6.22,50.55,50.55,0,0,0-1,6.07,13.42,13.42,0,0,0,.11,3,8.69,8.69,0,0,0,1,2.85,12.24,12.24,0,0,0,4.32,4.23,32.81,32.81,0,0,1,5,3.6,17.53,17.53,0,0,1,2.13,2.26,13.83,13.83,0,0,1,.88,1.28,10,10,0,0,1,.79,1.34l.69,1.39c.22.47.36,1,.55,1.46a25.4,25.4,0,0,1,.86,3,35.22,35.22,0,0,1,.7,6.15,67,67,0,0,1-.9,12.33c-.58,4.08-1.55,8.1-2,12.21a45.8,45.8,0,0,0,.26,12.32,32.76,32.76,0,0,0,4.2,11.56c.51.89,1.07,1.75,1.65,2.61a6.57,6.57,0,0,1,1.31,2.77,15.84,15.84,0,0,1,0,3.08c-.07,1-.16,2.06-.25,3.08a29.59,29.59,0,0,0,0,6.17,17.44,17.44,0,0,0,1.77,5.9,32.33,32.33,0,0,0,7.94,9.37c3.15,2.67,6.55,5,9.83,7.5a181.14,181.14,0,0,1,34.85,34.9,41.35,41.35,0,0,1,6,10.79,18.18,18.18,0,0,1,1,6.07,18.54,18.54,0,0,1-1.2,6,18.92,18.92,0,0,1-3.08,5.33,21.65,21.65,0,0,1-4.63,4.07,19.51,19.51,0,0,0-4.65,4,7.62,7.62,0,0,0-1.3,2.78,8.18,8.18,0,0,0,0,3.08,11,11,0,0,0,2.75,5.44c1.44,1.47,2.84,3,4.36,4.39,3,2.88,6.09,5.55,9.26,8.19,6.39,5.21,13.05,10.08,19.79,14.83s13.54,9.41,20.19,14.29L309,456l39.66,29.56c6.62,4.92,13.18,9.94,20.23,14.22a68.64,68.64,0,0,0,11.07,5.48c3.85,1.49,7.81,2.64,11.74,3.87a93.72,93.72,0,0,1,11.61,4.25,44.43,44.43,0,0,1,5.41,3,30.43,30.43,0,0,1,4.77,3.92,43.51,43.51,0,0,1,7,10.15c1.92,3.64,3.59,7.42,5.51,11.07.45.92,1,1.77,1.56,2.67.29.42.62.82.92,1.23l.48.61.54.55a10.56,10.56,0,0,0,5.22,3.14,13.1,13.1,0,0,0,6.13-.16,30.63,30.63,0,0,0,5.79-2.11c3.76-1.71,7.19-4.06,11-5.72a27.87,27.87,0,0,1,12-2.68,42.17,42.17,0,0,1,12.11,2.27c3.92,1.24,7.79,2.8,11.91,3.22a11.37,11.37,0,0,0,6.05-.82,8.68,8.68,0,0,0,4.13-4.4l.33-.7c.1-.24.16-.49.25-.73.14-.5.34-1,.43-1.48s.21-1,.24-1.53.05-1,.05-1.54a25.58,25.58,0,0,0-1.06-6.08c-2.27-7.93-6.64-15.14-8.27-23.28a223.1,223.1,0,0,0-7.83-23.45A215,215,0,0,0,464.65,437a196.32,196.32,0,0,0-15.37-19.36,45.25,45.25,0,0,1-7-10.11,40.42,40.42,0,0,1-3.7-11.75c-1.3-8.18-.58-16.48,0-24.68.15-2.06.3-4.11.29-6.18s-.12-4.12-.33-6.17a80.32,80.32,0,0,0-2.4-12.11c-.53-2-1.13-4-1.73-5.94l-.91-3c-.29-1-.53-2-.79-3l-.39-1.49c-.1-.51-.16-1-.24-1.53-.14-1-.35-2-.44-3.06l-.16-3.09a9.9,9.9,0,0,1,0-1.54l.06-1.55a57.87,57.87,0,0,1,1.92-12.19c1-4,2.3-7.92,3.66-11.81,2.68-7.79,5.51-15.58,6.78-23.75s.66-16.48-.38-24.64-2.19-16.35-3.82-24.43a97.21,97.21,0,0,0-7.5-23.49,54.1,54.1,0,0,0-6.55-10.45c-.65-.81-1.23-1.66-1.92-2.43L421.56,187c-1.35-1.57-2.92-2.91-4.4-4.34-6.09-5.57-12.93-10.23-19.77-14.82s-13.77-9.1-20.14-14.35S365.05,142.24,361,135s-6.41-15.19-10-22.62A41.91,41.91,0,0,0,344.37,102a28,28,0,0,0-4.66-4,29.31,29.31,0,0,0-2.61-1.64c-.45-.25-.92-.46-1.38-.7l-.69-.34-.72-.28a21.47,21.47,0,0,0-5.95-1.54,15.57,15.57,0,0,0-6.11.48,15.94,15.94,0,0,0-2.86,1.14,19.91,19.91,0,0,0-2.53,1.74,18.56,18.56,0,0,0-3.86,4.78,36,36,0,0,0-2.56,5.62,60,60,0,0,0-1.87,5.88l-3.25,11.94A46.8,46.8,0,0,1,303.4,131a9.8,9.8,0,0,1-4.12,4.51,9.26,9.26,0,0,1-6,1.17,9.54,9.54,0,0,1-5.39-2.87c-3.21-2.92-2.27-8.08-5.73-10.75a12.16,12.16,0,0,0-5.4-2.82,17,17,0,0,0-6.12-.3,22.4,22.4,0,0,0-11,5.19,78.22,78.22,0,0,0-8.72,8.74c-2.71,3.11-5.22,6.4-8.16,9.3a26.06,26.06,0,0,1-4.82,3.87,13,13,0,0,1-2.79,1.32,11,11,0,0,1-3.06.5,8.45,8.45,0,0,1-5.76-1.93,6.61,6.61,0,0,1-1.76-2.54,8.82,8.82,0,0,1-.53-3.05,24.67,24.67,0,0,1,1-6.1l1.54-6a111,111,0,0,0,2.54-12.09,46.63,46.63,0,0,0,.17-12.32c-.1-1-.31-2-.48-3.05a13.63,13.63,0,0,0-.84-2.95,5,5,0,0,0-1.89-2.34,5.32,5.32,0,0,0-2.91-.77c-2.06,0-4.06.65-6.12.84a8,8,0,0,1-3.08-.21,5.61,5.61,0,0,1-2.63-1.6c-1.41-1.59-1.81-3.75-2-5.77s-.24-4.12-.38-6.17a18.35,18.35,0,0,0-1.18-6,6.67,6.67,0,0,0-4.42-3.94,18.3,18.3,0,0,0-3-.53l-3.08-.35L191,71.24l-12.29-1.39a33.9,33.9,0,0,1-6.08-1.12,11.09,11.09,0,0,1-5.21-3.2,16.55,16.55,0,0,1-2.84-5.46,32.63,32.63,0,0,0-2.41-5.67Z"/></svg>