<svg id="Layer_1" data-name="Layer 1" xmlns="http://www.w3.org/2000/svg" viewBox="0 0 600 600"><title>Malawi</title><path d="M237,50.11a3.13,3.13,0,0,0-2.33,1.51,7.25,7.25,0,0,0-1.09,2.7,29.11,29.11,0,0,0-.32,5.82,12.73,12.73,0,0,0,.57,2.81A27.47,27.47,0,0,0,235,65.56,16.51,16.51,0,0,0,236.41,68a6.66,6.66,0,0,0,1.81,1.82,2.19,2.19,0,0,0,.48.21,2.75,2.75,0,0,0,.44.06,2.32,2.32,0,0,0,1-.26,3.72,3.72,0,0,0,.91-.65c.24-.25.56-.66.88-1a13.32,13.32,0,0,1,2.24-2.29A4.24,4.24,0,0,1,246,65a4,4,0,0,1,1.1-.06,4.61,4.61,0,0,1,1,.24,8.47,8.47,0,0,1,2.91,2,30.27,30.27,0,0,1,2.11,2.29,35,35,0,0,1,3.51,5,29.1,29.1,0,0,1,4.07,11.89,16.88,16.88,0,0,1-.06,3.4,15.77,15.77,0,0,1-.83,3.38c-.38,1-.75,1.89-1,2.67a4.64,4.64,0,0,0-.31,1.88,2,2,0,0,0,.54,1.12,5.53,5.53,0,0,0,1.5,1.18,15,15,0,0,0,2.22,1l1.32.47,1.6.67c.27.12.54.22.81.37l.81.48a9.31,9.31,0,0,1,1.57,1.1,10.78,10.78,0,0,1,2.65,3.14,9.6,9.6,0,0,1,.84,1.86l.32.94.2.91c.06.31.13.62.18.91l.1.86c.09.59.12,1.12.15,1.64a51.73,51.73,0,0,0,.46,5.51,10,10,0,0,0,1.51,3.94,33.27,33.27,0,0,1,3.54,5.5,12.85,12.85,0,0,1,1.07,4.32,8.85,8.85,0,0,1-1.53,5.41,10.85,10.85,0,0,1-3.76,3.28,18.72,18.72,0,0,1-3.62,1.45,45.05,45.05,0,0,1-6.46,1.3l-2.93.4c-.92.13-1.83.27-2.46.42l-.38.11-.52.18c-.34.12-.67.26-1,.4a11.48,11.48,0,0,0-1.8,1,7.62,7.62,0,0,0-2.4,2.5,2.46,2.46,0,0,0-.29.65,1.65,1.65,0,0,0-.18.59,2.68,2.68,0,0,1-.07.27,1.22,1.22,0,0,1,0,.27,2.7,2.7,0,0,0,0,.56,10.28,10.28,0,0,0,1.27,3.41c.75,1.46,1.78,3.12,2.82,5.15a20.87,20.87,0,0,1,2.44,7.76,15.09,15.09,0,0,1-2.36,9.49,14.28,14.28,0,0,1-1.53,2,12.06,12.06,0,0,1-.87.88l-.65.61-2.2,2a13.18,13.18,0,0,0-1.43,1.49,3.54,3.54,0,0,0-.58,1,8,8,0,0,0-.35,2.89,22.13,22.13,0,0,0,.64,4.33c.72,3.25,2.18,7.11,2.85,12.07a30.23,30.23,0,0,1,0,7.72,61.75,61.75,0,0,1-1.25,6.64c-.44,2-.93,3.73-1.22,5.29-.17.77-.32,1.54-.39,2.07s-.14,1.19-.14,1.79A10.23,10.23,0,0,0,250,232a8.8,8.8,0,0,0,.4.91c.16.18.24.34.36.4s.15.1.67.23l1,.2L254,234a17.36,17.36,0,0,1,4.63,1.39l1.43.67c.5.27,1,.51,1.54.78l1.64.92c.53.36,1.07.74,1.62,1.15a19.34,19.34,0,0,1,1.52,1.38,12.5,12.5,0,0,1,1.29,1.58,12,12,0,0,1,.94,1.73,11.14,11.14,0,0,1,.56,1.78,9.39,9.39,0,0,1,.2,1.75c0,.57,0,1.11,0,1.67a20,20,0,0,1-.43,3.09,21.5,21.5,0,0,1-5.49,10.33,20.92,20.92,0,0,1-10.23,5.81,23.42,23.42,0,0,1-10.3.07l-1.17-.27-.84-.23-1.46-.42c-.87-.26-1.58-.46-2.07-.58s-.77-.17-.81-.2.18-.09.34-.23c.36-.27.2-.43-.24,0a7.05,7.05,0,0,0-1.34,2.3,14.11,14.11,0,0,0-.57,1.84c-.17.69-.32,1.41-.44,2.19a48.13,48.13,0,0,0-.48,5c-.18,3.59-.17,7.77-.51,12a55.84,55.84,0,0,1-.86,6.81,24.24,24.24,0,0,1-2.88,7.92,18.35,18.35,0,0,1-3,3.74,19.88,19.88,0,0,1-3.54,2.71,39.75,39.75,0,0,1-6.31,2.9c-1.94.75-3.5,1.32-4.67,1.92a8.94,8.94,0,0,0-1.27.81,3.8,3.8,0,0,0-.46.42.65.65,0,0,0-.18.47c0,.31,0,.28-.07.35s0,.08,0,.17a3.54,3.54,0,0,0,.37.42,4,4,0,0,0,.69.58,4.53,4.53,0,0,0,1.17.46,16.07,16.07,0,0,1,3.26,1,8.27,8.27,0,0,1,1.76,1.17,16.72,16.72,0,0,1,1.73,1.81,15.41,15.41,0,0,1,1.38,1.91c.38.62.72,1.23,1,1.83a26.78,26.78,0,0,1,1.33,3.47,30.56,30.56,0,0,1,.81,3.06c.22.94.42,1.8.64,2.64a24.33,24.33,0,0,0,1.51,4.39,8.53,8.53,0,0,0,.9,1.4,2.29,2.29,0,0,0,.68.61,1.17,1.17,0,0,0,.76.08,1.45,1.45,0,0,1,.28,0l.25-.08a7,7,0,0,0,.76-.39c.63-.33,1.38-.89,2.4-1.51a12.85,12.85,0,0,1,4.41-1.87A9.49,9.49,0,0,1,243,340a13.7,13.7,0,0,1,4,3.94c.43.61.81,1.17,1.14,1.67l.24.36.21.29.42.59,1.73,2.35c1.15,1.58,2.32,3.19,3.39,4.89a52.81,52.81,0,0,1,2.95,5.35c.88,1.88,1.72,3.82,2.53,5.84.4,1,.79,2,1.17,3.08l.54,1.6c.21.67.41,1.35.56,2,.32,1.24.56,2.35.76,3.24s.39,1.64.53,2.11a2.78,2.78,0,0,0,.33.75s0-.1,0-.14.06,0,.22.05.08,0,.09,0,0,0,0,0,0-.05-.06,0,0,0,0,0,.14-.05.21,0,.28-.1.42-.12a18.17,18.17,0,0,0,3.27-1.6l5-3a51.29,51.29,0,0,1,6.52-3.23,63.07,63.07,0,0,1,6.54-2.29c1.08-.32,2.14-.61,3.19-.88l1.57-.4,1.7-.38a45.31,45.31,0,0,1,7.49-1,29.73,29.73,0,0,1,8.89.85,24.34,24.34,0,0,1,4.83,1.81,23,23,0,0,1,4.51,3,28.08,28.08,0,0,1,5.95,7.33c.68,1.18,1.25,2.3,1.76,3.36l1.41,3.2c.49,1.07.86,2.17,1.25,3.26s.83,2.18,1.13,3.3a72.53,72.53,0,0,1,2.86,13.59,52.13,52.13,0,0,0,.9,6.94l.91,3.56c.28,1.2.66,2.43.84,3.66a25.48,25.48,0,0,1,.29,3.69,20,20,0,0,1-.46,3.62l-.36,1.79c-.13.59-.29,1.18-.44,1.77-.32,1.18-.6,2.36-1,3.53-.81,2.31-1.61,4.62-2.64,6.85-.5,1.12-1,2.22-1.63,3.3s-1.16,2.16-1.78,3.22a72,72,0,0,1-4.21,6.06c-.76,1-1.54,2-2.25,2.77l-1.09,1.23-1,1.15c-2.75,3-5.18,5.57-7.07,8.05a26.73,26.73,0,0,0-3.82,6.39,7.87,7.87,0,0,0-.44,1.93c0,.13-.06.27-.06.41a1.75,1.75,0,0,1,.05.4c-.07.28.14.59.17.92l0,.13a.69.69,0,0,0,.06.18l.26.58c.17.38.33.77.52,1.15.37.77.73,1.54,1.13,2.3.77,1.54,1.62,3.07,2.51,4.58a102.17,102.17,0,0,0,12.59,17.12,63.26,63.26,0,0,0,7.44,6.94q2,1.56,4.08,2.93c1.35.92,3.18,1.82,5.69,3.66a20.05,20.05,0,0,1,5.19,5.63,21.3,21.3,0,0,1,1.24,2.39,18.06,18.06,0,0,1,1.39,5.16,24.78,24.78,0,0,1,.12,4.3c-.15,2.41-.36,4.06-.33,5a6.42,6.42,0,0,0,.57,2.63,5.68,5.68,0,0,0,1.22,1.87c.35.35.28.33.51.41.05.06.16,0,.25,0s.13,0,.14,0l0,0s.07,0,.08,0,0,0,0,0,.05,0,.07,0a.12.12,0,0,1,.06-.06,3.71,3.71,0,0,0,1-2,21.07,21.07,0,0,0,0-8.78,26.67,26.67,0,0,0-1.35-4.57,27.76,27.76,0,0,0-2-4.26,37.39,37.39,0,0,1-3.67-6.14l-.22-.56-.23-.73a10.4,10.4,0,0,1-.32-1.47,13.86,13.86,0,0,1-.13-2.85,18.3,18.3,0,0,1,1-4.51c.44-1.26.91-2.32,1.3-3.24s.63-1.58.88-2.36a33.57,33.57,0,0,0,1.08-4.59,16.11,16.11,0,0,1,0-2.2,16.44,16.44,0,0,1,.35-2.45,10.87,10.87,0,0,1,1.57-3.65,10.25,10.25,0,0,1,.83-1.07c.3-.32.77-.76,1-.94s.71-.57,1.08-.83a16,16,0,0,1,2.25-1.35,19.92,19.92,0,0,1,4.44-1.54,35.47,35.47,0,0,1,7.5-.71c2.21,0,4.13.06,5.77,0a14.34,14.34,0,0,0,3.83-.54,5.2,5.2,0,0,0,1.95-1.14,4,4,0,0,0,.68-1.48,27.35,27.35,0,0,0,.76-4l.41-2.91.32-2.82.63-5.63c1-7.49,1.49-15,1.7-22.54.11-3.76.11-7.52.06-11.27l-.08-11.62c-.08-3.81-.1-7.51-.34-11.09-.11-1.79-.25-3.55-.45-5.28l-.31-2.53c-.11-.77-.18-1.49-.25-2.12s-.1-1.19-.13-1.74a13.55,13.55,0,0,0-.13-1.65,11.43,11.43,0,0,0-.34-1.9c-.07-.34-.19-.71-.29-1.06a9.85,9.85,0,0,0-.33-1,25.6,25.6,0,0,0-2.58-4.75c-1.13-1.74-2.53-3.57-3.84-5.88-.32-.57-.64-1.18-.94-1.8l-.74-1.64c-.48-1.07-.91-2.13-1.29-3.15l-2.08-5.74c-.33-.89-.66-1.73-1-2.53l-.51-1.21-.6-1.35-2.37-5.33c-1.58-3.5-3.1-6.93-4.78-10.19-.88-1.64-1.63-3.41-2.42-5s-1.6-3.14-2.45-4.55a32.56,32.56,0,0,0-2.67-3.88c-.48-.57-1-1.13-1.45-1.63l-.35-.35-.22-.19c-.08-.07-.13-.15-.22-.22L351,330a8.94,8.94,0,0,0-2.84-1.31,7.26,7.26,0,0,0-2.73-.25,3.46,3.46,0,0,0-1,.26c0,.07-.06.09-.14.13a.53.53,0,0,1-.16.29c-.06.31-.25.72-.26,1a5.15,5.15,0,0,0,.49,2.57,16.42,16.42,0,0,0,2.3,3.53c1.06,1.3,2.37,2.71,3.77,4.34.7.81,1.44,1.72,2.13,2.65S354,345,354.55,346s1.16,1.93,1.68,2.91,1,1.94,1.47,3c.93,2.11,1.58,4.11,2.2,5.86.31.87.64,1.68,1,2.43.17.37.34.74.51,1.08l.26.51.22.42c.09.16.17.33.25.5a14.08,14.08,0,0,1,1.36,4.59,10.33,10.33,0,0,1-.1,3.06,8.79,8.79,0,0,1-1.37,3.42,8.7,8.7,0,0,1-6.37,3.83,10.89,10.89,0,0,1-5.77-1,11.77,11.77,0,0,1-2.31-1.42,11.25,11.25,0,0,1-2-2,12.24,12.24,0,0,1-2.14-4.75,23.63,23.63,0,0,1-.47-3.76l-.09-1.38c0-.41-.08-.7-.12-1a12.73,12.73,0,0,0-1.36-4,6,6,0,0,0-1.9-2.32c-.49-.23-.56-.19-.9-.06a1.14,1.14,0,0,0-.43.31c-.05,0-.06.08-.05.09h0s0,0,0,0a13.39,13.39,0,0,0-.32,1.52,23.62,23.62,0,0,1-.83,3.69,12.48,12.48,0,0,1-1.12,2.49,10.34,10.34,0,0,1-.82,1.25c-.19.25-.5.64-.8,1a11.67,11.67,0,0,1-2.38,2,10.08,10.08,0,0,1-3.51,1.42,11.91,11.91,0,0,1-6.25-.53,17.15,17.15,0,0,1-4.19-2.16,21.22,21.22,0,0,1-4.66-4.4,11.8,11.8,0,0,1-.7-1,10.42,10.42,0,0,1-.67-1.1,15.74,15.74,0,0,1-1.69-4.73,20.31,20.31,0,0,1-.36-4.41,38.17,38.17,0,0,1,1-7.2c.23-1.07.48-2.11.74-3.12l.19-.76.33-1.06c.22-.69.47-1.31.71-1.92,1-2.36,2-4.14,2.56-5.51s.66-2.16.54-2.23-.07,0,0-.07l-.06,0s0,0,0,0l-.07-.11c-.09-.14-.14-.33-.24-.41a.86.86,0,0,1-.1-.16l-.14-.12a3.34,3.34,0,0,0-.63-.52c-.19-.1-.3-.21-.56-.33l-.34-.19-.42-.21c-1.13-.58-2.95-1.27-5.1-2.33-.52-.25-1.13-.58-1.69-.88s-1.18-.68-1.81-1.13a21.4,21.4,0,0,1-3.62-3,27.86,27.86,0,0,1-4.86-7,37.17,37.17,0,0,1-2.64-7.32,34.3,34.3,0,0,1-1.05-7.79,41.08,41.08,0,0,1,.65-7.6c.82-4.67,2-8.51,2.72-11.75a28,28,0,0,0,.64-4.33,13.27,13.27,0,0,0-.17-3.56,21.92,21.92,0,0,0-1.08-4c-.57-1.45-1.14-3-1.93-4.6-1.49-3.24-3.42-6.83-5.16-11-.45-1-.83-2.17-1.23-3.27s-.72-2.32-1-3.55a32.9,32.9,0,0,1-.71-3.81c-.08-.65-.2-1.3-.22-2l-.07-2a38.87,38.87,0,0,1,2.72-14.55,92.39,92.39,0,0,1,5.55-11.57c1.92-3.51,3.78-6.78,5.3-10a41,41,0,0,0,3.33-9.46c1.36-6.54,1-13.93.34-21.58s-1.75-15.68-1.47-24.1a50.76,50.76,0,0,1,1.92-12.7,38.77,38.77,0,0,1,2.4-6.13c.45-1,1.05-1.92,1.58-2.88s1.13-1.77,1.63-2.53a20,20,0,0,0,1.24-2.11,8.11,8.11,0,0,0,.64-1.89,6.53,6.53,0,0,0-.49-3.89,15.75,15.75,0,0,0-2.79-4.09c-1.18-1.35-2.57-2.67-4-4-2.82-2.69-5.89-5.42-8.31-9a20.3,20.3,0,0,1-2.68-5.86,39.73,39.73,0,0,1-1.1-6c-.23-2-.39-3.92-.64-5.82a26.54,26.54,0,0,0-1.29-5.48,12.11,12.11,0,0,0-2.89-4.59,14.86,14.86,0,0,0-4.72-2.93c-1.77-.73-3.65-1.32-5.5-1.94s-3.73-1.21-5.6-1.76l-11.26-3.37c-3.75-1.16-7.49-2.34-11.16-3.72-.91-.35-1.84-.66-2.73-1.1s-1.7-1-2.55-1.46a21.29,21.29,0,0,0-2.59-1.36A6,6,0,0,0,237,50Zm0-.09a7.22,7.22,0,0,1,2.9.44,21.89,21.89,0,0,1,2.69,1.25c.86.46,1.72.94,2.59,1.33s1.82.64,2.73,1c3.72,1.2,7.5,2.19,11.28,3.18l5.68,1.44,5.68,1.49c1.9.49,3.79,1,5.68,1.57s3.77,1.08,5.7,1.81a16.81,16.81,0,0,1,5.48,3.17A14.39,14.39,0,0,1,291,71.94c1.6,3.92,1.9,8,2.5,11.76a39.46,39.46,0,0,0,1.21,5.54,17,17,0,0,0,2.44,4.88c2.17,3,5.15,5.51,8.09,8.1,1.48,1.3,3,2.61,4.37,4.06a20.12,20.12,0,0,1,3.68,5,10.81,10.81,0,0,1,1.14,6.26,14.82,14.82,0,0,1-2.23,5.8c-.51.86-1,1.69-1.5,2.51s-.93,1.67-1.28,2.56a33.82,33.82,0,0,0-1.91,5.39,45.79,45.79,0,0,0-1.32,11.45c0,7.76,1.3,15.51,2.27,23.29s1.7,15.71.43,23.53a48.15,48.15,0,0,1-3.43,11.29c-1.54,3.62-3.36,7.1-5.11,10.6a89.62,89.62,0,0,0-4.74,10.71,31.64,31.64,0,0,0-1.88,11.47,30.59,30.59,0,0,0,2.82,11.29c1.54,3.6,3.44,7,5.15,10.56a41.89,41.89,0,0,1,3.94,11,27.74,27.74,0,0,1-.6,11.64c-.87,3.82-2.12,7.55-2.86,11.39a31,31,0,0,0-.62,5.84,25.93,25.93,0,0,0,.68,5.82,27.15,27.15,0,0,0,1.9,5.55,18.72,18.72,0,0,0,3.21,4.89,16.72,16.72,0,0,0,4.73,3.43c1.73.91,3.54,1.67,5.24,2.64a12.86,12.86,0,0,1,4.43,3.79l.41.6.35.65a10.68,10.68,0,0,1,.59,1.34,9.89,9.89,0,0,1,.41,1.41,9,9,0,0,1,.14,1.46,12.49,12.49,0,0,1-1.51,5.62c-.85,1.76-1.86,3.45-2.66,5.24a37.07,37.07,0,0,0-1.77,5.59,30.7,30.7,0,0,0-1,5.79,11,11,0,0,0,1.07,5.7,13.37,13.37,0,0,0,3.91,4.32,7.61,7.61,0,0,0,5.45,1.75,4.64,4.64,0,0,0,2.48-1.48,6.79,6.79,0,0,0,1.5-2.5c.65-1.85.69-3.87,1.51-5.67a6.64,6.64,0,0,1,4.43-3.56,7.81,7.81,0,0,1,1.45-.22,10.25,10.25,0,0,1,1.46.11,7.34,7.34,0,0,1,2.68,1.15,11.75,11.75,0,0,1,3.64,4.53,19.83,19.83,0,0,1,1.76,5.58c.31,1.93.18,3.92.6,5.84a6.8,6.8,0,0,0,1.17,2.67,6,6,0,0,0,2.27,1.81,5.31,5.31,0,0,0,2.85.53,3.29,3.29,0,0,0,2.44-1.46A4.14,4.14,0,0,0,358,368a8.88,8.88,0,0,0-.87-2.79,40.1,40.1,0,0,1-2.47-5.32c-.72-1.83-1.39-3.67-2.22-5.44a43.59,43.59,0,0,0-2.88-5.12c-2.11-3.32-5-6-7.64-8.9a24.22,24.22,0,0,1-3.39-4.78A12.38,12.38,0,0,1,337.1,330a9.86,9.86,0,0,1,1.77-5.51,8.46,8.46,0,0,1,4.87-3.07,14,14,0,0,1,5.83-.05,16.66,16.66,0,0,1,5.45,2.09,20.28,20.28,0,0,1,4.4,3.87,39.31,39.31,0,0,1,3.56,4.66,98,98,0,0,1,5.69,10.28c1.74,3.51,3.31,7.09,4.84,10.7l2.28,5.42c.76,1.8,1.5,3.62,2.16,5.46a65.82,65.82,0,0,0,4.56,10.81c2,3.36,4.8,6.18,7.07,9.37a30.9,30.9,0,0,1,3,5.06,25.45,25.45,0,0,1,1.78,5.59c1.35,7.72,1.41,15.6,1.34,23.43s-.2,15.67-.77,23.48a212.26,212.26,0,0,1-2.8,23.32l-1,5.8-.48,2.9-.56,2.88a28.18,28.18,0,0,1-1.57,5.65,11.7,11.7,0,0,1-3.46,4.67,14.1,14.1,0,0,1-5.29,2.47,24.32,24.32,0,0,1-5.84.49c-3.9-.08-7.84-.65-11.72.06a12.22,12.22,0,0,0-2.79.87,9.37,9.37,0,0,0-1.28.72,4.08,4.08,0,0,0-1.09,1,6.28,6.28,0,0,0-.82,2.79c-.11,1-.13,1.95-.33,2.91a34.36,34.36,0,0,1-1.77,5.6c-.73,1.82-1.75,3.5-2.46,5.33a11.09,11.09,0,0,0-.73,2.84,6.13,6.13,0,0,0,.44,2.87,26.82,26.82,0,0,0,3.11,5,31.77,31.77,0,0,1,2.8,5.16,34.33,34.33,0,0,1,1.91,5.55,27.93,27.93,0,0,1,.49,11.65,11.35,11.35,0,0,1-2.41,5.28,8.08,8.08,0,0,1-5.09,2.63l-.73.07c-.25,0-.49,0-.74,0a7.94,7.94,0,0,1-1.45-.22,8.63,8.63,0,0,1-2.65-1.22,12.27,12.27,0,0,1-3.85-4.37A14.7,14.7,0,0,1,341,538.6a50,50,0,0,1,0-5.87,12.65,12.65,0,0,0-1-5.74,11.1,11.1,0,0,0-3.77-4.41c-1.61-1.13-3.39-2-5.08-3s-3.36-2-5-3.13a86.07,86.07,0,0,1-17-16.17,112.64,112.64,0,0,1-7-9.43q-1.63-2.44-3.11-5a57,57,0,0,1-2.75-5.18,17.45,17.45,0,0,1-1.05-11.48,35.73,35.73,0,0,1,5-10.59c2.14-3.28,4.58-6.35,7-9.44a71.5,71.5,0,0,0,6.55-9.74,65.35,65.35,0,0,0,4.52-10.83,66.21,66.21,0,0,0,2.37-11.49,64.73,64.73,0,0,0,.19-11.73,61.31,61.31,0,0,0-2-11.55c-.21-.95-.58-1.87-.87-2.8s-.6-1.86-1-2.76l-1.13-2.71c-.4-.89-.83-1.77-1.31-2.63a17.31,17.31,0,0,0-3.59-4.61,12.78,12.78,0,0,0-5.17-2.67c-3.81-1-7.82-.55-11.63.23A67.63,67.63,0,0,0,283,379.27a40.14,40.14,0,0,0-5.27,2.58c-1.69,1-3.34,2-5,3a27.4,27.4,0,0,1-5.33,2.46,11.21,11.21,0,0,1-5.8.35,10.31,10.31,0,0,1-7.86-7.92c-.5-1.89-.75-3.84-1.19-5.75a52.65,52.65,0,0,0-1.73-5.61c-1.33-3.68-2.9-7.27-4.5-10.85l-4.77-10.73a6.48,6.48,0,0,0-1.82-2.26,3.86,3.86,0,0,0-2.78-.67c-1.95.31-3.55,1.59-5.28,2.47a8.07,8.07,0,0,1-2.77.95,6.48,6.48,0,0,1-1.46.09,4.41,4.41,0,0,1-.73-.09,3,3,0,0,1-.72-.17,7.19,7.19,0,0,1-2.54-1.43,12.29,12.29,0,0,1-1.94-2.2c-2.24-3.25-3.31-7.09-4.7-10.74a17.34,17.34,0,0,0-2.83-5.1,19.75,19.75,0,0,0-4.68-3.52,18.88,18.88,0,0,1-2.4-1.69,6.86,6.86,0,0,1-1.86-2.25,6.17,6.17,0,0,1-.67-2.83,6.79,6.79,0,0,1,.52-2.88,9.39,9.39,0,0,1,4-4.21,46.71,46.71,0,0,1,5.27-2.58,37.24,37.24,0,0,0,5.23-2.66,11.62,11.62,0,0,0,4-4.21,16.4,16.4,0,0,0,1.71-5.57,45.92,45.92,0,0,0,.42-5.86c.09-3.91-.15-7.83-.22-11.74A42.79,42.79,0,0,1,226.32,266a17.77,17.77,0,0,1,2.44-5.33,10.05,10.05,0,0,1,4.47-3.71,10.63,10.63,0,0,1,5.81-.38c1.93.33,3.81.93,5.72,1.31a13.71,13.71,0,0,0,5.81-.13,10.33,10.33,0,0,0,5-2.89,10.88,10.88,0,0,0,2.64-5.14,7.32,7.32,0,0,0-.87-5.62,5.69,5.69,0,0,0-2.19-1.88,11.27,11.27,0,0,0-2.77-.92c-1.9-.42-3.91-.67-5.57-1.79a10,10,0,0,1-3.69-4.49,16.78,16.78,0,0,1-1.26-5.72,22.07,22.07,0,0,1,.52-5.84c.39-1.92.92-3.81,1.42-5.7,1-3.76,1.86-7.67,1.37-11.58s-1.65-7.65-2.39-11.49a27.33,27.33,0,0,1-.59-5.85,13.4,13.4,0,0,1,1.23-5.71,14.34,14.34,0,0,1,3.78-4.46l2.25-1.89a10.3,10.3,0,0,0,2-2.14,8.78,8.78,0,0,0,1.46-5.55,15.3,15.3,0,0,0-1.68-5.57c-.85-1.76-1.82-3.46-2.66-5.24a14.77,14.77,0,0,1-1.64-5.61,9.56,9.56,0,0,1,1.56-5.59,13.27,13.27,0,0,1,4.25-4,18,18,0,0,1,5.46-2.15c1.93-.35,3.89-.46,5.84-.68a40.29,40.29,0,0,0,5.78-1c1.85-.51,3.81-1.24,5-2.83a4.39,4.39,0,0,0,.8-2.74,8.7,8.7,0,0,0-.65-2.83,35.07,35.07,0,0,0-3.05-5,14.22,14.22,0,0,1-1.87-5.55c-.25-2-.2-3.92-.27-5.87a13,13,0,0,0-1.19-5.67,9.17,9.17,0,0,0-4.26-3.83l-1.33-.61-1.37-.54A18.47,18.47,0,0,1,259,102.5a8.2,8.2,0,0,1-2.19-2,4.82,4.82,0,0,1-1-2.75c0-2,1-3.8,1.7-5.6a13.14,13.14,0,0,0,.94-5.72A27.3,27.3,0,0,0,255,75.34a33.65,33.65,0,0,0-3.16-4.94A28.67,28.67,0,0,0,250,68.18a7,7,0,0,0-2.33-1.71,2.76,2.76,0,0,0-2.73.41,13.43,13.43,0,0,0-2.1,2c-.33.36-.64.74-1,1.08a5.06,5.06,0,0,1-1.24.8,2.86,2.86,0,0,1-2.84-.2,7.73,7.73,0,0,1-2-2.15,17.46,17.46,0,0,1-1.39-2.59,17.28,17.28,0,0,1-1-2.78,15.09,15.09,0,0,1-.32-2.92,22,22,0,0,1,.53-5.84,9.34,9.34,0,0,1,1-2.73A3.29,3.29,0,0,1,237,49.93Z"/></svg>