<svg id="Layer_1" data-name="Layer 1" xmlns="http://www.w3.org/2000/svg" viewBox="0 0 600 600"><title>Mali</title><path d="M302.36,83.5C309.84,88.32,318,92,325.46,97q11.31,7.19,21.94,15.5c3.52,2.78,7,5.64,10.35,8.65l9.92,9c3.29,2.95,6.61,5.79,10.07,8.32a71,71,0,0,0,10.89,6.57c7.64,3.8,15.95,6.5,24.45,9.47s17.27,6.33,25.55,11.41a57.44,57.44,0,0,1,11.85,9.41c.45.5.91,1,1.35,1.51l1.3,1.6,1.22,1.71c.4.57.72,1.12,1.09,1.68,1.38,2.23,2.51,4.49,3.51,6.41a25.08,25.08,0,0,0,2.73,4.48,9.17,9.17,0,0,0,2.76,2.3,25.63,25.63,0,0,0,4.39,1.76c1.86.61,3.76,1.18,5.75,1.67,7.91,2,16.85,3.12,26.43,6,1.19.35,2.4.78,3.6,1.18a39.23,39.23,0,0,1,4.13,1.75,34.72,34.72,0,0,1,7.86,5.28,31.62,31.62,0,0,1,3.48,3.71A30.26,30.26,0,0,1,523,221a30.61,30.61,0,0,1,1.94,4.91c.46,1.55.77,3,1,4.23a55.37,55.37,0,0,0,1.23,5.6,6.73,6.73,0,0,0,.56,1.31,2.71,2.71,0,0,0,.5.69c0,.08.13.07.16.14s.09,0,.16.08.11.07.23.09a2,2,0,0,0,.36.15,16.82,16.82,0,0,0,3.6.68c1.74.2,4,.31,6.73.63a38.33,38.33,0,0,1,4.69.86c.84.2,1.82.53,2.76.86.48.17,1,.41,1.5.63l.75.34.79.43a20.26,20.26,0,0,1,5.84,4.8c.4.5.8,1,1.17,1.53s.66,1,1,1.56a22.6,22.6,0,0,1,1.47,3.14c.4,1,.64,2,.93,3s.37,1.81.53,2.73.19,1.67.27,2.51c.05.48.05.66.07,1l.06.86a347.53,347.53,0,0,1-.81,55.22c-.84,9.18-2.08,18.32-3.61,27.42a95.21,95.21,0,0,1-3.43,14.92,48,48,0,0,1-3.66,8.31,37,37,0,0,1-6.16,8.08,36.55,36.55,0,0,1-8.45,6.15,37.7,37.7,0,0,1-9.59,3.35,58.52,58.52,0,0,1-17.21.62c-5.12-.48-9.74-1.25-14.05-1.9a111.4,111.4,0,0,0-11.86-1.33,40.15,40.15,0,0,0-5,.08,25,25,0,0,0-4.08.71c-.57.21-1.16.37-1.72.61l-.93.4-1.05.51c-1.46.74-3.19,1.73-5.21,2.88a76.92,76.92,0,0,1-7.21,3.67,46.55,46.55,0,0,1-4.57,1.68,39.61,39.61,0,0,1-5.1,1.18,45.82,45.82,0,0,1-9.63.47,78.1,78.1,0,0,1-8.11-.88c-4.93-.77-8.88-1.57-12.13-1.75a48.57,48.57,0,0,0-10.28.36,55.14,55.14,0,0,0-19.66,6.88l-1.13.66-1.1.71c-.74.45-1.44,1-2.15,1.47l-.53.38-.26.18-.16.14c-.21.18-.43.36-.66.53-.45.44-.91.82-1.42,1.38-1,1.05-2.13,2.39-3.54,4.12a74.92,74.92,0,0,1-5.48,6.19A35.75,35.75,0,0,1,352,427.27c-2.6.48-4.63.79-6,1.11a15.22,15.22,0,0,0-1.61.45l-.45.18-.1.05A.78.78,0,0,0,344,429c.13-.12.27-.12.36-.24l.1-.07s.05-.06,0,0h0a1.7,1.7,0,0,0-.1.14c-.06,0-.23.31-.36.47-.68.93-1.76,2.83-3.55,5.45-.49.68-.92,1.32-1.53,2.07l-.88,1.09L337,439l-.52.56-.59.57-1.2,1.12c-.42.37-.88.73-1.33,1.09s-1,.76-1.29,1a49.14,49.14,0,0,1-8.43,4.59c-5.24,2.26-9.35,3.43-12,4.64a19.28,19.28,0,0,0-3,1.57,7.3,7.3,0,0,0-1.85,1.67,16.85,16.85,0,0,0-1.2,1.69c-.46.72-1,1.58-1.54,2.54l-1.91,3.13-.53.84-.32.47L301,465c-.51.73-1,1.45-1.55,2.16-4.35,5.64-9.62,9.09-13.63,11.57s-7,4.23-8.48,5.58a12.19,12.19,0,0,0-1,1,4.82,4.82,0,0,0-.38.51c-.11.17-.31.3-.37.52a6.87,6.87,0,0,0-.62,1.33c-.08.25-.18.51-.29.77s-.13.59-.21.88a21.39,21.39,0,0,0-.34,4.63c0,1.83.2,4,.33,6.47a59.91,59.91,0,0,1,0,8.34,30.74,30.74,0,0,1-2.4,9.62,18.66,18.66,0,0,1-1.12,2.29,22.85,22.85,0,0,1-1.25,2.12l-1.31,1.92c-.44.63-1,1.24-1.49,1.85a18.1,18.1,0,0,1-1.64,1.78c-.59.56-1.16,1.14-1.79,1.67s-1.3,1-2,1.53-1.38.9-2.08,1.34a32.38,32.38,0,0,1-8.87,3.52,41.85,41.85,0,0,1-8.54,1,76.77,76.77,0,0,1-7.75-.4c-1.22-.14-2.45-.27-3.63-.44s-2.42-.37-3.57-.53a56.47,56.47,0,0,0-5.74-.73,10.73,10.73,0,0,0-3.8.53,20.66,20.66,0,0,0-4.12,2.06c-1.56,1-3.36,2.22-5.46,3.55a41.91,41.91,0,0,1-7.54,3.89c-.72.3-1.53.53-2.3.78s-1.55.37-2.34.54a30.3,30.3,0,0,1-4.75.64,21.18,21.18,0,0,1-2.39,0,23.21,23.21,0,0,1-2.37-.12,34.64,34.64,0,0,1-4.61-.77,37.53,37.53,0,0,1-8.46-3.07c-1.25-.73-2.53-1.43-3.71-2.23-.59-.4-1-1-1.63-1.4l-1.89-1c-.64-.32-1.29-.64-2-.94s-1.29-.66-1.93-1a15,15,0,0,1-3.48-2.54,50.57,50.57,0,0,1-9.11-14.23,63.8,63.8,0,0,1-4.17-15.32c-.74-4.94-1-9.46-1.45-13.66-.23-2.07-.42-4.11-.78-6-.15-1-.36-1.88-.55-2.81-.08-.47-.22-.89-.33-1.35l-.17-.67c-.06-.22-.12-.47-.16-.58a7.26,7.26,0,0,0-3.62-4.88,4.25,4.25,0,0,0-2.49-.32c-.19,0-.63.12-1,.18s-.73.18-1.1.3c-.76.26-1.54.56-2.41.94-1.73.71-3.74,1.81-6.16,2.85a39,39,0,0,1-8.45,2.62c-1.66.3-2.86.47-4.15.62l-3.75.42c-2.43.23-4.73.53-6.87.83A38.77,38.77,0,0,0,96,484.47c-.43.14-.83.29-1.23.45l-1.16.51-2.73,1.18a56.94,56.94,0,0,1-7.25,2.56,27.22,27.22,0,0,1-12.3.67,23.35,23.35,0,0,1-9.47-4.12,21.36,21.36,0,0,1-2.26-1.87,19.41,19.41,0,0,1-2-2.11A22.56,22.56,0,0,1,56,479.52c-.23-.36-.47-.74-.69-1.11s-.44-.76-.62-1.1a28.67,28.67,0,0,1-2.78-7.87c-.12-.57-.23-1.15-.32-1.71l-.21-1.56c-.07-.53-.13-1-.16-1.5s-.08-.95-.1-1.43c0-.94,0-1.78,0-2.67s.13-2.17.23-3.23.27-2,.46-2.95.39-1.84.6-2.61a27.1,27.1,0,0,1,2.86-7.47,7.72,7.72,0,0,1,3.57-3.25c.35-.15.64-.21,1-.35l.95-.28a10.23,10.23,0,0,0,1.84-.63c1.12-.52,2.11-.9,2.21-1.81s-.91-1.86-2.36-2.89a55.72,55.72,0,0,0-5.6-3.19,40.22,40.22,0,0,1-7.23-4.58c-.63-.6-1.28-1.12-1.89-1.79l-.89-1.07a9.15,9.15,0,0,1-.83-1.15,14.21,14.21,0,0,1-1.34-2.6c-.18-.46-.37-.92-.51-1.38s-.25-.91-.36-1.37l-.15-.7-.09-.66-.14-1.32c0-.82,0-1.66,0-2.43a41.61,41.61,0,0,1,.46-4.16c.42-2.51.87-4.61,1.1-6.46a23.84,23.84,0,0,0,.18-2.55c0-.82,0-1.68-.12-2.59-.17-1.83-.51-3.85-.86-6.14a58.42,58.42,0,0,1-.84-7.73A27.44,27.44,0,0,1,44.52,374l.38-1.16.33-1c.21-.6.43-1.19.66-1.79.46-1.19,1-2.37,1.49-3.56a56,56,0,0,1,3.83-7.09,36.08,36.08,0,0,1,5.69-6.94,27,27,0,0,1,9-5.71,26,26,0,0,1,11.38-1.45,35.91,35.91,0,0,1,9.35,2.29c2.51,1,4.53,1.85,6.14,2.48l1.13.42c.36.11.66.2,1,.32l.84.24,1.16.24,5.12,1c1.83.38,3.82.78,5.91,1.25l6.57,1.55,7,1.61,3.59.78,1.71.36,1.65.3c4.39.8,8.83.82,13.25,1.14q13.27.85,26.59,1c8.86.15,17.73.08,26.6-.16l13.48-.4c5.13,0,9.75.61,13.85.84a42.16,42.16,0,0,0,5.73,0,24.46,24.46,0,0,0,5-.91,12.36,12.36,0,0,0,3.79-1.8,9.71,9.71,0,0,0,2.46-2.65,20.08,20.08,0,0,0,2.61-8.72,72.81,72.81,0,0,0,0-11.72c-.26-4.15-.77-8.45-1.14-13l-.27-3.5-.23-3.34-.41-6.6c-1.18-17.59-2.32-35.26-3.73-53-.68-8.87-1.23-17.77-1.84-26.67s-1-17.88-1.49-26.73l-1.41-26.65q-.73-13.32-1.58-26.65l-.88-13.33-.23-3.33-.24-3.22c-.2-2.07-.52-4.25-.85-6.42-1.39-8.74-2.9-17.65-3.74-26.67A90.32,90.32,0,0,1,223.38,82a42,42,0,0,1,1-6.92,19,19,0,0,1,2.88-6.62,10.91,10.91,0,0,1,1.2-1.44l.67-.67c.24-.2.51-.38.76-.57s.51-.39.76-.54l.78-.43A12.33,12.33,0,0,1,233,64a24.14,24.14,0,0,1,6.69-1.93,33.51,33.51,0,0,1,6.85-.32,50.44,50.44,0,0,1,6.73.79c8.86,1.68,17.21,5,25.35,8.59a249.87,249.87,0,0,1,23.66,12.41Zm-.05.08c-3.95-2.06-7.91-4.11-11.93-6s-8.1-3.65-12.2-5.34C270,69,261.64,65.88,253,64.48a48.94,48.94,0,0,0-6.48-.6,31.81,31.81,0,0,0-6.41.45,21.93,21.93,0,0,0-6,1.88,12.41,12.41,0,0,0-1.39.75l-.68.39a6.46,6.46,0,0,0-.59.44c-.19.15-.39.28-.57.45l-.51.53a7.53,7.53,0,0,0-.92,1.17,16.22,16.22,0,0,0-2.27,5.75,38,38,0,0,0-.73,6.42,85.5,85.5,0,0,0,.79,13.15c1.11,8.77,3,17.47,4.68,26.23.43,2.19.84,4.39,1.15,6.62s.5,4.45.75,6.67l1.39,13.29q2.73,26.6,5,53.23c1.38,17.76,3.12,35.49,4.77,53.23s3.17,35.49,4.27,53.27c.3,4.44.46,8.89.78,13.34s.73,8.87.9,13.32a73.43,73.43,0,0,1-.47,13.34,27.18,27.18,0,0,1-4.6,12.39,17.6,17.6,0,0,1-4.88,4.5,20.79,20.79,0,0,1-6.16,2.5,38.48,38.48,0,0,1-13.28.53c-4.43-.46-8.83-1.24-13.29-1.36l-13.36-.05q-13.37-.1-26.72-.5l-13.35-.47c-4.45-.19-8.89-.46-13.34-.69l-13.34-.71c-2.23-.11-4.45-.26-6.68-.28s-4.45,0-6.68.08c-4.45.12-8.9.28-13.35,0a39.21,39.21,0,0,1-13-2.65c-4.11-1.66-8.08-3.9-12.53-4.51a14.75,14.75,0,0,0-6.6.56,17.41,17.41,0,0,0-5.78,3.26,36.3,36.3,0,0,0-8.22,10.44,49.53,49.53,0,0,0-2.87,6,20,20,0,0,0-1.2,6.54c-.12,4.47.86,8.86,1.07,13.31a29.62,29.62,0,0,1-.39,6.65c-.37,2.2-.92,4.36-1.34,6.55a16.83,16.83,0,0,0-.23,6.63,9.51,9.51,0,0,0,3.54,5.49c3.56,2.75,8,3.92,12,5.81a18.87,18.87,0,0,1,5.54,3.66,11.26,11.26,0,0,1,3.07,5.82,16.68,16.68,0,0,1-.06,6.64,44.73,44.73,0,0,1-1.86,6.41c-1.48,4.17-3.17,8.42-3.06,12.92a15.76,15.76,0,0,0,1.15,6.52,7.34,7.34,0,0,0,2,2.63,7.65,7.65,0,0,0,3,1.46,19.48,19.48,0,0,0,6.64.28c2.21-.21,4.41-.59,6.61-.93a56.88,56.88,0,0,1,6.64-.73c2.22-.1,4.45-.07,6.68,0a100.65,100.65,0,0,0,13.34,0,26.25,26.25,0,0,0,6.44-1.74C124,470,126,469,128,468.17a28,28,0,0,1,6.39-1.9,13,13,0,0,1,6.57.65c4.23,1.54,7.37,5.25,9,9.35a71.11,71.11,0,0,1,3.42,12.9c.81,4.38,1.43,8.79,2.38,13.15a57.79,57.79,0,0,0,4.1,12.68,43.55,43.55,0,0,0,7.4,11,39.45,39.45,0,0,0,10.48,8.18,26.65,26.65,0,0,0,12.84,3.13,20.33,20.33,0,0,0,3.31-.37l1.64-.32c.53-.17,1.08-.29,1.6-.49a34.6,34.6,0,0,0,6-2.89c3.84-2.22,7.55-4.83,11.87-6a19.94,19.94,0,0,1,6.61-.72c2.23.12,4.43.51,6.63.84a74.07,74.07,0,0,0,13.3,1,32.86,32.86,0,0,0,6.61-.9,21.17,21.17,0,0,0,6.11-2.6,19.06,19.06,0,0,0,4.94-4.45,22,22,0,0,0,3.37-5.73,20.15,20.15,0,0,0,1.33-6.51,43.7,43.7,0,0,0-.3-6.67c-.48-4.41-1.23-8.85-.82-13.31.07-.55.1-1.11.2-1.66l.35-1.63a19,19,0,0,1,1-3.19,9.87,9.87,0,0,1,.71-1.51,15.78,15.78,0,0,1,.79-1.46,21.85,21.85,0,0,1,2-2.67c2.92-3.4,6.75-5.81,10.39-8.34s7.28-5.24,9.9-8.86,4.26-7.83,6.83-11.48a22.82,22.82,0,0,1,4.54-4.87,29.07,29.07,0,0,1,5.69-3.47c4-1.93,8.3-3.23,12.38-5a35.32,35.32,0,0,0,5.85-3.2,18.35,18.35,0,0,0,4.58-4.8c1.27-1.83,2.37-3.78,3.66-5.6a15.15,15.15,0,0,1,4.77-4.59,21.87,21.87,0,0,1,6.28-2.22c2.17-.47,4.38-.78,6.57-1.17a20.85,20.85,0,0,0,11.63-6.12c3.18-3.12,5.7-6.84,8.84-10,.76-.81,1.6-1.55,2.42-2.3s1.73-1.4,2.66-2,1.82-1.28,2.77-1.86l1.41-.9,1.45-.83A68.62,68.62,0,0,1,405.64,380a62.55,62.55,0,0,1,13.33-.28c4.45.36,8.81,1.33,13.2,2.05a42.37,42.37,0,0,0,13.29.53c4.44-.63,8.48-2.71,12.37-4.83S465.64,373.1,470,372a38.72,38.72,0,0,1,6.6-1,57.26,57.26,0,0,1,6.68,0c8.91.56,17.59,2.78,26.45,3.73a44.52,44.52,0,0,0,13.29-.27,25.06,25.06,0,0,0,6.3-2.14,23.73,23.73,0,0,0,5.4-3.88,28.47,28.47,0,0,0,6.77-11.35,84,84,0,0,0,3.06-13q2.34-13.16,3.67-26.46a350.94,350.94,0,0,0,1.26-53.37,20.43,20.43,0,0,0-1.06-6.55,9.11,9.11,0,0,0-4.17-5,17.81,17.81,0,0,0-6.36-1.85c-2.21-.31-4.43-.46-6.64-.76a25,25,0,0,1-6.48-1.58,12.88,12.88,0,0,1-5.3-4,17.26,17.26,0,0,1-2.88-6c-.59-2.15-.88-4.37-1.28-6.56a24,24,0,0,0-1.88-6.37,18.77,18.77,0,0,0-4-5.29,24.57,24.57,0,0,0-5.44-3.82,41.35,41.35,0,0,0-6.18-2.49c-8.45-2.85-17.28-4.29-25.82-6.84-2.14-.62-4.25-1.34-6.34-2.13a29.46,29.46,0,0,1-6-2.94,17.55,17.55,0,0,1-4.74-4.67,36.58,36.58,0,0,1-3.18-5.87c-1.83-4-3.78-8.12-6.79-11.43a51.67,51.67,0,0,0-10.09-8.68c-7.37-5-15.56-8.65-23.8-12s-16.6-6.51-24.4-10.85a75.09,75.09,0,0,1-11.09-7.44c-3.47-2.8-6.72-5.86-9.89-9s-6.29-6.31-9.52-9.37-6.55-6-9.94-8.92a256.44,256.44,0,0,0-21.29-16.13q-5.52-3.77-11.17-7.32c-1.89-1.18-3.78-2.36-5.69-3.5s-3.87-2.21-5.81-3.31Z"/></svg>