<svg id="Layer_1" data-name="Layer 1" xmlns="http://www.w3.org/2000/svg" viewBox="0 0 600 600"><title>micronesia</title><path d="M56.6,280.37a8.56,8.56,0,0,0-4.07-.34,2.6,2.6,0,0,0-.67.31,1.79,1.79,0,0,0-.43.45,1.65,1.65,0,0,0-.14,1.17,2,2,0,0,0,.6,1.12,1.2,1.2,0,0,0,1.08.29,2.42,2.42,0,0,0,1.4-.85,2.53,2.53,0,0,0,.65-1.89,2.49,2.49,0,0,1,.45,2.43,3.52,3.52,0,0,1-1.78,2.14,3.17,3.17,0,0,1-3.17-.18,4,4,0,0,1-1.69-2.59,4.42,4.42,0,0,1,0-1.58,3.63,3.63,0,0,1,.72-1.51,3.69,3.69,0,0,1,2.75-1.26A5.55,5.55,0,0,1,56.6,280.37Z"/><path d="M69.94,258.21a6.92,6.92,0,0,0-2.69.32A7.52,7.52,0,0,0,65,259.67a6.2,6.2,0,0,0-2.49,3.73l-.89-1.4a6.87,6.87,0,0,0,4.19-.18,8.21,8.21,0,0,0,3.85-2.74,6.2,6.2,0,0,1-3,4.46,7.22,7.22,0,0,1-5.71.85l-1.06-.29.17-1.11a6.5,6.5,0,0,1,1.39-3.06,7.13,7.13,0,0,1,2.55-2,7,7,0,0,1,3.07-.66A5,5,0,0,1,69.94,258.21Z"/><path d="M104.69,252.11a19,19,0,0,0-5.62-.05,3.76,3.76,0,0,0-1,.22c.07,0,.21-.18.17-.09l-.07.59c-.11,1-.25,1.92-.4,2.88,0,.26-.06.44-.06.38a.54.54,0,0,0-.24-.35c-.08,0,0,0,.14,0a3.28,3.28,0,0,0,.55,0,15.17,15.17,0,0,0,2.63-.31,4.2,4.2,0,0,0,2.13-1.12,3,3,0,0,0,.93-2.42A3,3,0,0,1,104,255a5,5,0,0,1-2.47,2.28,11.06,11.06,0,0,1-3.06.82,6.7,6.7,0,0,1-.89.07,2.91,2.91,0,0,1-1.27-.31,2,2,0,0,1-1-1.51,4.09,4.09,0,0,1,.06-1.07c.16-1,.34-1.91.54-2.86.06-.24.08-.43.19-.84a2.28,2.28,0,0,1,.35-.67,1.92,1.92,0,0,1,.67-.55,2.73,2.73,0,0,1,1.1-.24H99A9.92,9.92,0,0,1,104.69,252.11Z"/><path d="M120.09,256.53a6.35,6.35,0,0,0-3.41.88,5.09,5.09,0,0,0-2,2l-.57-1.54a7.34,7.34,0,0,0,1.94,1,1.36,1.36,0,0,0,.89-.08,1.19,1.19,0,0,0,.76-.88,1.4,1.4,0,0,1,0,1.6,2.33,2.33,0,0,1-1.48,1.1,3.81,3.81,0,0,1-1.78,0,8.05,8.05,0,0,1-1.44-.51l-1-.44.39-1.1a5.06,5.06,0,0,1,3.51-3.14,4.71,4.71,0,0,1,2.3,0A3.36,3.36,0,0,1,120.09,256.53Z"/><path d="M118.25,289.9a5.09,5.09,0,0,0-2.6-.56,3.3,3.3,0,0,0-1.14.22c-.14.08-.1.1-.09.13s0,.15-.06.33a17.21,17.21,0,0,0-.29,2.54,3.77,3.77,0,0,0,.13,1.05,2.14,2.14,0,0,0,.4.78,1.74,1.74,0,0,0,.6.51.84.84,0,0,0,.57.1,2.1,2.1,0,0,0,.83-.39,3.71,3.71,0,0,0,.8-.74,5.38,5.38,0,0,0,1-4.83,5,5,0,0,1,.67,5.89,5,5,0,0,1-1,1.37,4.08,4.08,0,0,1-1.61,1,3.29,3.29,0,0,1-2.19-.13,4,4,0,0,1-1.57-1.23,4.32,4.32,0,0,1-.83-1.74,5.5,5.5,0,0,1-.1-1.75,11.43,11.43,0,0,1,.77-3,2.65,2.65,0,0,1,.55-.93,1.82,1.82,0,0,1,1.12-.56,4.52,4.52,0,0,1,1.66.16A4.17,4.17,0,0,1,118.25,289.9Z"/><path d="M165.88,316.06a.91.91,0,0,0-1.09,0c-.28.18-.45.44-.43.6a6.44,6.44,0,0,0,.06,2l-.69-1a9.88,9.88,0,0,0,1.1.45,2,2,0,0,0,.78.14c.08,0,.12.06.23,0a.91.91,0,0,0,.29-.34,1.11,1.11,0,0,0,.13-.52.59.59,0,0,0-.33-.55.85.85,0,0,1,.93.15,1.73,1.73,0,0,1,.54.92,2,2,0,0,1-.06,1.11,2,2,0,0,1-.82,1,3.12,3.12,0,0,1-2.16.42,5.48,5.48,0,0,1-1.74-.58l-.64-.33,0-.68a6.1,6.1,0,0,1,.05-1.58,3.3,3.3,0,0,1,.8-1.74,2.13,2.13,0,0,1,1.91-.68,1.63,1.63,0,0,1,.86.4A.88.88,0,0,1,165.88,316.06Z"/><path d="M182.78,302.92a11.16,11.16,0,0,0-3,.47c-.77.31-1.31,1-1.27,1.4a1.51,1.51,0,0,0,.87,1.23,3.81,3.81,0,0,0,2.26.21l-.78.74a28.5,28.5,0,0,1,1.26-2.69c.22-.44.48-.87.73-1.3.07-.14.11-.15.15-.24a.82.82,0,0,0,.05-.28c0-.18,0-.5-.28-.36,0-.05.06-.13.15-.15a.28.28,0,0,1,.25,0,.78.78,0,0,1,.32.33,1.23,1.23,0,0,1,.17.44,1.53,1.53,0,0,1,0,.48c0,.5-.08,1-.16,1.5a25.69,25.69,0,0,1-.53,2.91l-.11.52-.67.22a5.17,5.17,0,0,1-3.91-.12,3.9,3.9,0,0,1-1.65-1.54,3.31,3.31,0,0,1-.37-2.37,3.17,3.17,0,0,1,1.34-1.85,3.62,3.62,0,0,1,1.91-.61A5.72,5.72,0,0,1,182.78,302.92Z"/><path d="M191.93,306.41a1.67,1.67,0,0,0-2-.42,1.07,1.07,0,0,0-.5,1.08,1.33,1.33,0,0,0,.17.58,1.13,1.13,0,0,0,.4.38,2,2,0,0,0,1.49.19l-.4.51a3.26,3.26,0,0,0,.25-2.69,3,3,0,0,1,1.54,3.28l0,.23-.37.28a3.46,3.46,0,0,1-3.54.41,3.24,3.24,0,0,1-1.51-1.38,3.37,3.37,0,0,1-.37-1.95,3.17,3.17,0,0,1,.84-1.8,2.49,2.49,0,0,1,1.84-.77,2.46,2.46,0,0,1,1.61.65A1.64,1.64,0,0,1,191.93,306.41Z"/><path d="M198,280.73a10.14,10.14,0,0,0-3.43-.41c-.93.12-1.6.73-1.62,1.1a1.09,1.09,0,0,0,.09.71.47.47,0,0,0,.46.27,2.23,2.23,0,0,0,1.2-.61,13.44,13.44,0,0,0,1.33-1.3,4.5,4.5,0,0,1-.32,2,3.22,3.22,0,0,1-1.55,1.77,2.58,2.58,0,0,1-2.92-.58,3.13,3.13,0,0,1-.73-2.78,3,3,0,0,1,.66-1.34,3.5,3.5,0,0,1,1.08-.85,4,4,0,0,1,2.41-.35A5.09,5.09,0,0,1,198,280.73Z"/><path d="M220.09,297c-.38-.25-.71-.57-1.06-.83a2.58,2.58,0,0,0-1-.59.55.55,0,0,0-.62.41,2.52,2.52,0,0,0-.14,1.11,1.69,1.69,0,0,0,1.07,1.75c.38.13.58.17.74-.22a10.36,10.36,0,0,0,.33-1.28,4.89,4.89,0,0,1,.09,1.39.92.92,0,0,1-.49.72,1.35,1.35,0,0,1-.86,0,2.08,2.08,0,0,1-1.32-.88,3.23,3.23,0,0,1-.43-1.46,3.39,3.39,0,0,1,.26-1.52,1.51,1.51,0,0,1,.63-.65,1.17,1.17,0,0,1,.91-.06,2.55,2.55,0,0,1,1.15.94A13.14,13.14,0,0,1,220.09,297Z"/><path d="M229.84,302.42a36.4,36.4,0,0,1-5.82-.06,2.41,2.41,0,0,0-1,.08c-.15.1-.09.09-.13.22a.72.72,0,0,0,.12.47,2,2,0,0,0,.61.6,5.22,5.22,0,0,0,4.39.57,3.58,3.58,0,0,0,1.92-1.22,1.88,1.88,0,0,0,.22-.38s.06-.09-.12-.21a9.81,9.81,0,0,0-1.33-.45,4.9,4.9,0,0,1,1.52-.22,1.1,1.1,0,0,1,.5.17,1,1,0,0,1,.38.54,2,2,0,0,1,0,1,3.56,3.56,0,0,1-.91,1.52,5.62,5.62,0,0,1-1.35,1,6.43,6.43,0,0,1-6.61-.32,4.29,4.29,0,0,1-1.35-1.47,3,3,0,0,1-.23-2.31,2.71,2.71,0,0,1,.7-1.11,2.48,2.48,0,0,1,1.14-.58,4.08,4.08,0,0,1,1.87.12A35.84,35.84,0,0,1,229.84,302.42Z"/><path d="M243.85,303.36a4,4,0,0,0-3.67.64,2.7,2.7,0,0,0-.48.58,5.39,5.39,0,0,0-.38.76,2.22,2.22,0,0,0-.21,1.27.08.08,0,0,0,0,.05v0a.05.05,0,0,0,0,0l-.05,0s0,0,0,0a1.35,1.35,0,0,0,.56.09,9.6,9.6,0,0,0,1.91-.21l1-.21a2.5,2.5,0,0,0,.83-.31,2.07,2.07,0,0,0,.7-.58.82.82,0,0,0,.12-.91.89.89,0,0,1,.44.44,1.32,1.32,0,0,1,.1.68,2.75,2.75,0,0,1-.5,1.25,3.84,3.84,0,0,1-1,.92,7.72,7.72,0,0,1-1.05.58,7.54,7.54,0,0,1-2.41.72,3.66,3.66,0,0,1-1.61-.17,2.14,2.14,0,0,1-.94-.67,2.43,2.43,0,0,1-.2-.25l-.12-.23a2.07,2.07,0,0,1-.17-.45,4,4,0,0,1,.49-3,5.61,5.61,0,0,1,.8-1.1,3.86,3.86,0,0,1,1.17-.86A3.78,3.78,0,0,1,243.85,303.36Z"/><path d="M283.77,304.35c-1.09-.78-2.71-.87-3.21,0a.87.87,0,0,0,.09,1.15,3.48,3.48,0,0,0,1.48.73,2.73,2.73,0,0,0,.69.11.85.85,0,0,0,.55-.15,1.34,1.34,0,0,0,.5-.67,2.33,2.33,0,0,0,.05-.95,1.65,1.65,0,0,0-.34-.87,1.2,1.2,0,0,0-.86-.25c-.66,0-1.34,0-2,0v0a15.33,15.33,0,0,1,2-.22,1.4,1.4,0,0,1,1,.34,2.46,2.46,0,0,1,.45,1,3.32,3.32,0,0,1,0,2.28,1.67,1.67,0,0,1-1.13.9,2.39,2.39,0,0,1-1.31-.14,4.21,4.21,0,0,1-2-1.24,2,2,0,0,1-.44-1.34,2,2,0,0,1,.53-1.24,2.23,2.23,0,0,1,1.08-.67,2.47,2.47,0,0,1,1.18,0,3.28,3.28,0,0,1,1.75,1.2Z"/><path d="M295.48,281.15a5.55,5.55,0,0,0-2.17-.36,4.33,4.33,0,0,0-1.83.45l.54-.41a1.29,1.29,0,0,0,0,.82,3.14,3.14,0,0,0,.52,1,5.37,5.37,0,0,0,.85.95,3.69,3.69,0,0,0,.95.64,1.48,1.48,0,0,0,.87.13A1.38,1.38,0,0,0,296,284a.69.69,0,0,0,.17-.34.88.88,0,0,0-.12-.51,1,1,0,0,0-1.16-.56c.81-1.1,3.15.08,2.63,2a3.09,3.09,0,0,1-3.87,1.94,5.06,5.06,0,0,1-1.85-1,6.44,6.44,0,0,1-1.31-1.48,4.9,4.9,0,0,1-.73-2,3.11,3.11,0,0,1,.59-2.31l.28-.35.26-.05a4.72,4.72,0,0,1,2.67.23A3.84,3.84,0,0,1,295.48,281.15Z"/><path d="M300.77,272.29a10.21,10.21,0,0,0-2.4.74,6.49,6.49,0,0,0-1.87,1.21c-.48.48-.57.9-.46,1.18a1.66,1.66,0,0,0,.9.95c.81.38,2.36,0,3.55-.84a2.54,2.54,0,0,0,1.19-1.41,1.47,1.47,0,0,0-.93-1.74,1.45,1.45,0,0,1,1.37.32,2.4,2.4,0,0,1,.79,1.37,3.58,3.58,0,0,1-1.13,2.94,6.73,6.73,0,0,1-2.48,1.64,4.57,4.57,0,0,1-3.36,0,3.78,3.78,0,0,1-2.23-2.83,3,3,0,0,1,.39-1.95,3.63,3.63,0,0,1,1.23-1.21A6.12,6.12,0,0,1,300.77,272.29Z"/><path d="M305.41,279.1a1.44,1.44,0,0,0-1.07-.81.91.91,0,0,0-.89.23l.36-.44a5.44,5.44,0,0,0,0,2.91,1.32,1.32,0,0,0,.61.58.76.76,0,0,0,.24.07s0,0,.14-.05a2.84,2.84,0,0,0,.44-.46c.17-.2.33-.41.47-.61a3.65,3.65,0,0,0,.59-1.21,1.69,1.69,0,0,0,.05-.58,1.88,1.88,0,0,0-.25-.62,1.35,1.35,0,0,0-1.35-.67,1.62,1.62,0,0,1,2-.13,2.49,2.49,0,0,1,.87.81,2.82,2.82,0,0,1,.41,1.19,4.44,4.44,0,0,1-.41,2.26,8,8,0,0,1-.5.92,4.52,4.52,0,0,1-.74.93,2.62,2.62,0,0,1-1.5.69,2.86,2.86,0,0,1-1.53-.27,3.54,3.54,0,0,1-1.8-2,4.28,4.28,0,0,1,0-2.38,8,8,0,0,1,.75-1.84l.2-.37.16-.06a2,2,0,0,1,2.08.31A1.62,1.62,0,0,1,305.41,279.1Z"/><path d="M325.65,282.34a1.53,1.53,0,0,0-1.37-.76,1.31,1.31,0,0,0-1,.38,2,2,0,0,0-.44,1,2.81,2.81,0,0,0,0,1.19l-.88-.86a2,2,0,0,0,1.7-.3,2.65,2.65,0,0,0,.95-2.32,2.69,2.69,0,0,1,.5,3.45,3.48,3.48,0,0,1-3.78,1.57l-.67-.16-.21-.7a4.33,4.33,0,0,1,0-2.52,3.43,3.43,0,0,1,1.68-2.05,2.67,2.67,0,0,1,2.6.14,2.38,2.38,0,0,1,.81.89A1.38,1.38,0,0,1,325.65,282.34Z"/><path d="M334.85,280.82a10.71,10.71,0,0,0-2.15.74,6.55,6.55,0,0,0-1.78,1.35,6.94,6.94,0,0,0-1.84,3.84l-.54-.84a8.32,8.32,0,0,0,3.66-1l1.88-.86a9.16,9.16,0,0,0,1.57-.91,8.41,8.41,0,0,0,1.26-1.31,7.76,7.76,0,0,1,1.77-1.68,3.87,3.87,0,0,1,1.33-.53,5.86,5.86,0,0,1,1.2-.07,3.46,3.46,0,0,0,.79-.05c.17-.06.25-.08.32-.27l.52.64a10,10,0,0,0-4,0C337.51,280.12,336.18,280.5,334.85,280.82Zm0,0c1.33-.32,2.62-.8,3.94-1.24a13.25,13.25,0,0,1,4.19-.87h.49l0,.63a1.68,1.68,0,0,1-.83,1.42,4.34,4.34,0,0,1-1.26.46,2.38,2.38,0,0,0-1.49.63c-.76.66-1.3,2.08-2.72,3.25a8.15,8.15,0,0,1-2.14,1.18c-.71.28-1.36.5-2.08.72a8.56,8.56,0,0,1-4.67.25l-.78-.22.24-.63a8.71,8.71,0,0,1,2.9-3.78,8.87,8.87,0,0,1,2-1.15A16.68,16.68,0,0,1,334.85,280.82Z"/><path d="M326.3,302.49a4.77,4.77,0,0,0-.68,1.28,2.13,2.13,0,0,0,0,1.41,1.23,1.23,0,0,0,1.07.77,8.9,8.9,0,0,0,1.44-.07,3.46,3.46,0,0,1,2.81,1.21,6.43,6.43,0,0,1,1.44,2.79c.26,1,.4,2,.6,2.88a.9.9,0,0,0,.15.37s0,0,.11,0a6.75,6.75,0,0,0,1.11,0c1.81,0,3.63-.47,3.95-1.44a2.93,2.93,0,0,0-.07-2c-.24-.8-.62-1.74-1-2.64a40.55,40.55,0,0,0-2.24-5.26,7.48,7.48,0,0,0-1.68-2.17,3,3,0,0,0-2.52-.68,5.85,5.85,0,0,0-2.51,1.34A14.9,14.9,0,0,0,326.3,302.49Zm0,0a19.32,19.32,0,0,1,1.94-2.2,6.42,6.42,0,0,1,2.47-1.61,3.68,3.68,0,0,1,3,.4,8.77,8.77,0,0,1,2.29,2.08,36.84,36.84,0,0,1,4.45,7.85,6.54,6.54,0,0,1,.39,1.73,4.22,4.22,0,0,1-.33,2,4,4,0,0,1-1.32,1.62,5.25,5.25,0,0,1-1.72.77,10.13,10.13,0,0,1-3.26.18,5.58,5.58,0,0,1-1.78-.36,2.07,2.07,0,0,1-1-.92,2.68,2.68,0,0,1-.26-1c-.07-1,0-2-.11-2.92a5.2,5.2,0,0,0-.79-2.54,2.82,2.82,0,0,0-2.23-1.33,9.39,9.39,0,0,1-1.48-.07,1.47,1.47,0,0,1-1.12-1,2.33,2.33,0,0,1,.1-1.45A4.38,4.38,0,0,1,326.3,302.49Z"/><path d="M372.37,337.79a9.89,9.89,0,0,0-2.09-.12,9.08,9.08,0,0,0-2,.27,10.08,10.08,0,0,0-1.82.65,8.21,8.21,0,0,0-1.57,1l.4-.54c-.28,1.06.44,2.33,1.39,3.56.48.6,1,1.29,1.52,1.8a3.71,3.71,0,0,0,1.51,1,1.4,1.4,0,0,0,1.34-.2,3.72,3.72,0,0,0,.93-1.77,50.63,50.63,0,0,1,1.61-4.83,43.91,43.91,0,0,1-.07,5.13,5,5,0,0,1-1,2.84,3,3,0,0,1-1.54,1,4,4,0,0,1-1.77.07,4.67,4.67,0,0,1-1.56-.59,7.68,7.68,0,0,1-1.2-.94,20.61,20.61,0,0,1-1.76-2.05,9.71,9.71,0,0,1-1.4-2.5,4.86,4.86,0,0,1,0-3.24l.14-.37.26-.16a8.49,8.49,0,0,1,2.17-.94,8,8,0,0,1,2.28-.32,8.32,8.32,0,0,1,2.23.29A6.83,6.83,0,0,1,372.37,337.79Z"/><path d="M378.9,289.65a2.81,2.81,0,0,0-1.27,1.83,1.94,1.94,0,0,0,.3,1.59l-.59-.51a3.08,3.08,0,0,0,2.53-.6,3.23,3.23,0,0,0,1.1-2.54l.55.57a3.18,3.18,0,0,0-2.65-.21,3,3,0,0,1,3.15-1.37l.33,0,.22.52a4.34,4.34,0,0,1-1,4.8,4.54,4.54,0,0,1-5,.84l-.44-.21-.14-.3a3.16,3.16,0,0,1-.25-1.77,3.5,3.5,0,0,1,.61-1.5A2.63,2.63,0,0,1,378.9,289.65Z"/><path d="M401.17,300.62c0-.56-.53-.72-1-.81a5.54,5.54,0,0,0-1.41,0,8,8,0,0,0-2.69.53c-1.48.65-1.5,2-.57,3.24a3.21,3.21,0,0,0,.79.73,5.08,5.08,0,0,0,1.1.52,13.37,13.37,0,0,0,2.72.54l1.31.14c.1,0,0,.13,0,.11s.1-.35.15-.58c.2-1,.3-2,.42-3a11.12,11.12,0,0,1,.8,3.07,2.85,2.85,0,0,1,0,.94,1.28,1.28,0,0,1-.38.71,1.74,1.74,0,0,1-.64.38,4,4,0,0,1-1,.17l-.78.06a10.66,10.66,0,0,1-3.34-.23,6.36,6.36,0,0,1-1.71-.68,5.33,5.33,0,0,1-1.49-1.3,4.63,4.63,0,0,1-1-3.88,3.8,3.8,0,0,1,2.9-2.76,7.66,7.66,0,0,1,3.39.11,5.25,5.25,0,0,1,1.58.59,2.07,2.07,0,0,1,.64.61A.81.81,0,0,1,401.17,300.62Z"/><path d="M438.45,333c-1.19,0-2.39-.19-3.5-.2a4,4,0,0,0-2.74.74,1.4,1.4,0,0,0-.47,1.8,2.43,2.43,0,0,0,.7.87,3,3,0,0,0,1.1.52,9.44,9.44,0,0,0,3,.19c.54,0,1.09-.08,1.63-.15s1.14-.18,1.55-.28.56-.19.72-.48a1.56,1.56,0,0,0,0-1.18c-.29-.87-1.35-1.55-2.32-2.21a4.85,4.85,0,0,1,3.38,1.59,3,3,0,0,1,.55,2.19,2.27,2.27,0,0,1-.59,1.2,3.3,3.3,0,0,1-1,.72,11.8,11.8,0,0,1-1.83.6c-.6.15-1.21.26-1.82.36a9.94,9.94,0,0,1-3.93-.14,5.27,5.27,0,0,1-2-1,4.5,4.5,0,0,1-1.33-1.92,3.59,3.59,0,0,1,0-2.5,3.49,3.49,0,0,1,1.58-1.77,4.46,4.46,0,0,1,2.07-.58,7,7,0,0,1,1.93.26A22.71,22.71,0,0,1,438.45,333Z"/><path d="M451.34,309.2a26.33,26.33,0,0,1-2.7.63l-1.35.22c-.22,0-.45.06-.66.11a1.92,1.92,0,0,0-.47.13s0,0,.14-.06a.71.71,0,0,0,.3-.4c.07-.33,0-.27.07-.24l.25.5c.2.35.4.7.63,1.05.47.71,1,1.42,1.51,2.18.27.44.5.67.4.58s-.24,0-.19,0a1.36,1.36,0,0,0,.28-.13,8.31,8.31,0,0,0,1.71-1.56,4.49,4.49,0,0,0,1.18-1.91,1.17,1.17,0,0,0-.22-1,1,1,0,0,0-1-.49,1.29,1.29,0,0,1,1.49,0,2,2,0,0,1,1,1.41,3.45,3.45,0,0,1-.16,1.7,7.33,7.33,0,0,1-.62,1.39,8,8,0,0,1-2,2.42,3.57,3.57,0,0,1-.94.49,2.22,2.22,0,0,1-1.53-.08,2.74,2.74,0,0,1-1-.79c-.21-.26-.33-.45-.45-.62a27.35,27.35,0,0,1-1.49-2.4,11.52,11.52,0,0,1-.61-1.38c-.07-.23-.16-.43-.24-.77a1.71,1.71,0,0,1,0-.91,1.21,1.21,0,0,1,.5-.67,1.59,1.59,0,0,1,.45-.2,3.6,3.6,0,0,1,.89,0,5.67,5.67,0,0,1,.7.06l1.38.19A26.06,26.06,0,0,1,451.34,309.2Z"/><path d="M455.64,313.46c-1.9.49-3.49,1.61-3.88,3a2.58,2.58,0,0,0,.08,1.93,2.29,2.29,0,0,0,1.38,1.08,3.41,3.41,0,0,0,3.63-1.5,3.26,3.26,0,0,0,.75-2.1,1.76,1.76,0,0,0-1.59-1.63,1.75,1.75,0,0,1,1.56,0,2.5,2.5,0,0,1,1.2,1.26,4.23,4.23,0,0,1-.22,3.42,5.64,5.64,0,0,1-2.38,2.53,4.79,4.79,0,0,1-3.68.38,4.38,4.38,0,0,1-2.83-2.56,4.34,4.34,0,0,1,.32-3.66,4.68,4.68,0,0,1,2.61-2.13A5.3,5.3,0,0,1,455.64,313.46Z"/><path d="M484.32,316.75c-.68.36-1.27,1.07-1.15,1.61s.79.68,1.29.68a4.48,4.48,0,0,0,.82,0,1.22,1.22,0,0,0,.7-.37c.34-.41.07-1.31-.41-1.91a2,2,0,0,1,.79,2.07,1.91,1.91,0,0,1-2,.94,2.24,2.24,0,0,1-1.08-.44,1.25,1.25,0,0,1-.53-1,2.11,2.11,0,0,1,1.54-1.6Z"/><path d="M503.33,329.28a.59.59,0,0,0-.45-.63,2.15,2.15,0,0,0-.8-.16,6.93,6.93,0,0,0-1.67.2,1.89,1.89,0,0,0-1.06.5c0,.07,0,.09,0,.16a.73.73,0,0,0,.08.28,3.81,3.81,0,0,0,.81,1.08,2.94,2.94,0,0,0,1.09.68l.29.06h.27a1.27,1.27,0,0,0,.62-.24,1.44,1.44,0,0,0,.69-1.45,1.38,1.38,0,0,1,.53,1,2.23,2.23,0,0,1-.26,1.21,2.62,2.62,0,0,1-.88,1,2.16,2.16,0,0,1-.67.31,3.21,3.21,0,0,1-.68.11,4,4,0,0,1-2.47-.78,5,5,0,0,1-1.62-1.93,3,3,0,0,1-.24-1.62,2.58,2.58,0,0,1,.85-1.55,3.55,3.55,0,0,1,2.56-.74,5.5,5.5,0,0,1,2.19.61,2.62,2.62,0,0,1,.88.81,1.2,1.2,0,0,1,.2.61A.66.66,0,0,1,503.33,329.28Z"/><path d="M547.37,343.37a7.51,7.51,0,0,0-3.06.17,2.15,2.15,0,0,0-1.57,1.6,1.31,1.31,0,0,0,.09.85c.1.17.23.26.58.39s.88.25,1.4.38l1.55.42,1.52.44a3,3,0,0,0,.46.1.54.54,0,0,0,.15,0,.73.73,0,0,0,.38-.53,1.6,1.6,0,0,0,0-.92,5.14,5.14,0,0,0-1.77-2c-.83-.68-1.69-1.35-2.48-2.12,1.07.29,2.07.67,3.1,1.06a5.68,5.68,0,0,1,2.89,2.23,3.25,3.25,0,0,1,.4,2.21,3.06,3.06,0,0,1-1.27,2.12,2.63,2.63,0,0,1-1.36.43,4,4,0,0,1-1.13-.13l-1.58-.43-1.54-.45a13,13,0,0,1-1.67-.58,3.52,3.52,0,0,1-1-.66,2.68,2.68,0,0,1-.71-1.1,3.09,3.09,0,0,1,.11-2.29,3.52,3.52,0,0,1,1.34-1.61,3.78,3.78,0,0,1,1.88-.56A5.76,5.76,0,0,1,547.37,343.37Z"/></svg>