<svg id="Layer_1" data-name="Layer 1" xmlns="http://www.w3.org/2000/svg" viewBox="0 0 600 600"><title>monaco</title><path d="M273.3,358.31a8.48,8.48,0,0,1-2.58-2.65,13.25,13.25,0,0,1-1.45-3.4,17.79,17.79,0,0,1-.28-7.41,20.1,20.1,0,0,1,2.69-7.06,27.38,27.38,0,0,1,5-5.76,32.53,32.53,0,0,1,6.28-4.41,34.45,34.45,0,0,1,7.22-2.79A59.55,59.55,0,0,1,305.37,323c2.54,0,5.05,0,7.54.12a41.12,41.12,0,0,1,8,.91,14.66,14.66,0,0,1,4.39,1.91,15.42,15.42,0,0,1,3.47,3.22,34.44,34.44,0,0,1,2.37,3.39c.7,1.11,1.36,2.22,2,3.3,1.14,2.11,2.32,3.65,3.12,4a1.19,1.19,0,0,0,.29.12l.15.05.27,0a3.65,3.65,0,0,0,.86.07c.19,0,.3,0,.31-.07h0s0,0,0,0,0-.06.07-.08a3.56,3.56,0,0,0,.48-1.57,10.4,10.4,0,0,0-.05-2.66c-.12-.92-.4-2.11-.69-3.38a28.73,28.73,0,0,1-.68-4.24,12.44,12.44,0,0,1,.63-5.41,7.89,7.89,0,0,1,.69-1.48,8,8,0,0,1,1-1.38,11.52,11.52,0,0,1,2.2-2,14.46,14.46,0,0,1,4.93-2.22c.42-.11.83-.19,1.25-.27l1.08-.16,1.89-.27c2.49-.34,4.86-.67,7-1.17a29.6,29.6,0,0,0,6-2,30.51,30.51,0,0,0,9.95-7,22.59,22.59,0,0,0,1.73-2.2l.77-1.18c.26-.39.45-.83.69-1.23a25,25,0,0,0,2.1-5.26c2-7.44,1.8-16.44,1.49-26.23a74,74,0,0,1,.21-7.54c.2-2.57.57-5.19,1-7.86a148.56,148.56,0,0,1,3.6-16.61,47.32,47.32,0,0,1,3.55-8.44c.34-.7.76-1.37,1.17-2s.8-1.38,1.23-2c.84-1.27,1.72-2.46,2.57-3.56,1.71-2.22,3.37-4.14,4.72-5.9a28.5,28.5,0,0,0,3.09-4.7,11.76,11.76,0,0,0,1.16-3.83,9.8,9.8,0,0,0-.23-3.74c-.07-.34-.19-.73-.29-1.11s-.14-.83-.26-1.3c-.18-.91-.44-1.94-.76-3.08-.61-2.24-1.47-4.94-2.07-7.92a39.56,39.56,0,0,1-1-10,19.75,19.75,0,0,1,.53-3.48,17.58,17.58,0,0,1,1.41-3.69,16.45,16.45,0,0,1,4.87-5.68,19.32,19.32,0,0,1,5.77-3,21.17,21.17,0,0,1,3.11-.75,19.93,19.93,0,0,1,3.11-.26c1.86,0,3,.15,3.71.1a4.79,4.79,0,0,0,1.74-.43,5.51,5.51,0,0,0,2.47-2.42,5.82,5.82,0,0,0,.51-1.29,17.2,17.2,0,0,1,.78-1.93,34.2,34.2,0,0,1,1.88-3.68,24.22,24.22,0,0,1,1.61-2.35c.1-.13.4-.52.72-.89a10.26,10.26,0,0,1,1-1,14,14,0,0,1,2.18-1.72,13.79,13.79,0,0,1,4.36-1.81,15,15,0,0,1,3.42-.38,18.8,18.8,0,0,1,2.48.17,10.43,10.43,0,0,1,1.61.3,6.12,6.12,0,0,0,4.51-.43,8.79,8.79,0,0,0,2.7-2.17c.24-.28.47-.56.83-1.05s.81-1.1,1.43-1.81c.3-.35.66-.73,1.06-1.13l.65-.59c.21-.19.48-.4.79-.63a12.75,12.75,0,0,1,4.18-2,12.63,12.63,0,0,1,4.67-.35,13.58,13.58,0,0,1,4.12,1.12,15.33,15.33,0,0,1,1.76.91l.72.45.61.4a29.68,29.68,0,0,1,4.08,3.38c2.33,2.28,4.11,4.48,5.6,6.22l.28.32.15.12c.1.07.19.16.31.23l.66.47a13.38,13.38,0,0,0,1.53.86,11.61,11.61,0,0,0,3.1,1l.61.06c.16,0,.41,0,.39,0s.08,0,.11,0,.13,0,.28-.11a1.83,1.83,0,0,0,.56-.6,4.33,4.33,0,0,0,.59-1.07,4.78,4.78,0,0,0,.35-1.32,10.42,10.42,0,0,0-.35-4.14,40.75,40.75,0,0,0-2.06-5.8l-3.07-7-.81-2c-.27-.71-.54-1.37-.78-2.11-.53-1.51-.88-2.86-1.3-4.25s-.69-2.78-.94-4.16c-.15-.69-.28-1.38-.38-2.06a8.54,8.54,0,0,0-.47-2c-.54-1.3-1.87-2.53-2.24-3.87a11.12,11.12,0,0,1-.32-2l-.21-2a107.6,107.6,0,0,1-.19-15.5l.35-7.24c.1-2.11.09-4.24,0-6.35a54.26,54.26,0,0,0-.72-6.26c-.16-1-.36-2.06-.59-3.07-.12-.54-.24-.94-.34-1.36s-.25-.83-.38-1.25A19.37,19.37,0,0,0,475.13,60a8.78,8.78,0,0,0-2.68-2.73,3.38,3.38,0,0,0-2.65-.48,3,3,0,0,0-.94.29l-.51.17c-.12.06-.25.11-.36.18a4.15,4.15,0,0,0-1.32,1.13,5.54,5.54,0,0,0-.88,1.57,5.88,5.88,0,0,0-.32,1.88,27.44,27.44,0,0,0,1,6.33c.15.66.3,1.35.43,2.09s.22,1.52.33,2.29.12,1.53.18,2.31l.06,1.16,0,1.16a32.29,32.29,0,0,1-1.58,9.13,34.87,34.87,0,0,1-10.29,15.69,33.09,33.09,0,0,1-8.44,5.38,31.63,31.63,0,0,1-5,1.66,41.42,41.42,0,0,1-5,.84,67,67,0,0,1-8.95.2c-2.72-.1-5.15-.24-7.29-.24a21.89,21.89,0,0,0-5.42.54,23.72,23.72,0,0,0-4.61,1.58,41.16,41.16,0,0,0-9.12,6.05,127.81,127.81,0,0,0-9.32,8.88l-5,5.1c-1.73,1.8-3.46,3.5-5.07,5.16s-3.11,3.29-4.55,4.84-2.73,3.06-3.85,4.54c-.6.74-1.06,1.49-1.61,2.17a12.67,12.67,0,0,1-.84,1,9.2,9.2,0,0,1-.9.86c-1.23,1.1-2.76,2-4,3a8.55,8.55,0,0,0-2.72,4,35.28,35.28,0,0,0-1.36,5.3c-.29,1.95-.54,4-.69,6.22s-.19,4.53-.25,7c-.08,4.87-.11,10.26-.76,16.05a77,77,0,0,1-4,17.12,74,74,0,0,1-3.43,8,18.73,18.73,0,0,1-2.67,3.53,38.17,38.17,0,0,1-3.42,3c-.59.48-1.16,1-1.7,1.47a20.71,20.71,0,0,0-1.6,1.49,25.73,25.73,0,0,0-2.58,3.27c-.81,1.11-1.59,2.24-2.42,3.34l-2.58,3.21a107.33,107.33,0,0,1-11.57,11.69l-3.18,2.6-3.29,2.47c-1.09.84-2.27,1.54-3.41,2.32-.58.38-1.12.75-1.73,1.13s-1.25.75-1.9,1.12a36.48,36.48,0,0,1-9,3.75,24.35,24.35,0,0,1-5.76.71,20.43,20.43,0,0,1-6.33-1,22.48,22.48,0,0,1-5.29-2.6c-1.41-.92-2.54-1.79-3.46-2.46a21.16,21.16,0,0,0-2.19-1.48c-.27-.14-.52-.23-.77-.37s-.53-.19-.82-.28a13.31,13.31,0,0,0-8.5,1A19.2,19.2,0,0,0,264.8,258a22,22,0,0,0-2,1.83c-.69.66-1.35,1.39-2,2.16a48.86,48.86,0,0,0-3.78,5.12,66.1,66.1,0,0,0-3.24,6.18c-2.09,4.36-4.51,9.2-7.08,13.7a233.32,233.32,0,0,1-17.44,26.36c-1.6,2.13-3.24,4.22-4.92,6.3l-2.56,3.08c-.85,1-1.77,2-2.58,3.09-3.29,4.26-5.78,9.7-10,13.16a124.6,124.6,0,0,1-13.32,9.37c-1.15.71-2.34,1.37-3.53,2s-2.37,1.34-3.56,1.94c-2.34,1.21-4.61,2.32-6.78,3.34-4.33,2.07-8.24,4-11.56,6a36.18,36.18,0,0,0-7.74,6.22c-.53.52-.85,1.07-1.32,1.6-.32.57-.79,1.07-1.09,1.67a19.67,19.67,0,0,0-1.78,4.27,53.33,53.33,0,0,0-1.6,12.47l-.2,7.62c-.06,2.69-.2,5.52-.53,8.52a59.31,59.31,0,0,1-1.8,9.48,42.65,42.65,0,0,1-4.27,9.91,39.11,39.11,0,0,1-7,8.64,48.45,48.45,0,0,1-8.2,6c-5.37,3.16-10.11,5.17-13.62,7.17a34.5,34.5,0,0,0-4.32,2.83A17.83,17.83,0,0,0,114,451a8.72,8.72,0,0,0-1.4,2.56c-.14.35-.08.72-.23,1,0,.16,0,.26-.1.39a1.1,1.1,0,0,1-.14.18.65.65,0,0,1-.08.17c-.06.12-.25.24-.26.39a2.81,2.81,0,0,1-.22.48,5.11,5.11,0,0,0-.18,1.44,10.7,10.7,0,0,0,1.16,4.47,24.74,24.74,0,0,0,3.39,5.28c1.43,1.79,3.14,3.51,4.94,5.45.87.89,1.89,2.05,2.75,2.94l2.46,2.6c1.64,1.74,3.41,3.36,5.14,5,3.51,3.24,7.17,6.32,10.8,9.41,7.25,6.2,14.53,12.24,21.25,19.14,3.4,3.4,6.79,6.88,10.45,10a66.12,66.12,0,0,0,11.81,8.27c4.27,2.23,9.14,3.48,13.61,5.16a25.75,25.75,0,0,0,5.79,1.64,10.67,10.67,0,0,0,2.18,0,7.24,7.24,0,0,0,.82-.18,4.75,4.75,0,0,0,.66-.19c.38-.16.67-.25,1-.36.14,0,.31-.09.47-.1a3.88,3.88,0,0,1,.45-.08,6.46,6.46,0,0,0,2.58-.75,32.67,32.67,0,0,0,4.61-3c1.65-1.25,4.25-3.46,6.63-5.07s5-3.11,7.42-4.46,5-2.53,7.43-3.69c4.92-2.26,9.66-4.48,14.5-6.28,2.39-.95,4.78-1.86,7.18-2.7s4.74-1.75,7.1-2.58l7-2.55,3.5-1.3c1.26-.47,2.46-.87,3.63-1.27,2.35-.79,4.52-1.56,6.5-2.4a21.82,21.82,0,0,0,5-2.88c.17-.13.31-.27.47-.41a5,5,0,0,0,.39-.37c.07-.09.16-.17.23-.25a1.08,1.08,0,0,1,.18-.24,1.87,1.87,0,0,0,.28-.82,3,3,0,0,0-1.18-2.22,4.72,4.72,0,0,0-1.47-.91,6.07,6.07,0,0,0-1.88-.42,12.74,12.74,0,0,0-2.59.05c-1,.09-2.06.27-3.23.47a51.55,51.55,0,0,1-8.26,1c-.4,0-.84,0-1.26,0l-.63,0-.5,0-2-.18c-1.31-.13-2.62-.3-3.92-.48a109,109,0,0,1-15.37-3.25,104,104,0,0,1-15-5.4c-1.23-.57-2.46-1.16-3.66-1.81s-2.39-1.37-3.7-1.89-2.73-1-4.15-1.48c-.7-.27-1.38-.58-2.05-.91a12.07,12.07,0,0,1-1.85-1.22,41.62,41.62,0,0,1-6.49-6.68,34.5,34.5,0,0,1-5.06-8.82,27.24,27.24,0,0,1-1.48-5.31,28.08,28.08,0,0,1-.4-5.65,26.56,26.56,0,0,1,2.92-11.39,22.77,22.77,0,0,1,8.84-9.16,25.8,25.8,0,0,1,11.43-3.31,28.92,28.92,0,0,1,11,1.67A32.45,32.45,0,0,1,248,430a35.07,35.07,0,0,1,4.21,2.88c.64.52,1.28,1.05,1.87,1.6a7.47,7.47,0,0,1,1.59,1.82,46.35,46.35,0,0,1,1.85,4.49,12.07,12.07,0,0,0,1.17,1.85c.43.58.81,1.18,1.21,1.77s.76,1.19,1.12,1.8l.27.45.29.53.58,1.07a54,54,0,0,1,3.09,7.87c.77,2.38,1.46,4.53,2.24,6.31a12.18,12.18,0,0,0,2.57,4,9.11,9.11,0,0,0,1.6,1.19,9.36,9.36,0,0,0,2.1.81,9,9,0,0,0,4.32.13,4.39,4.39,0,0,0,1.55-.69,14.42,14.42,0,0,0,2-1.82,45.72,45.72,0,0,1,6.11-5.82,22.26,22.26,0,0,1,4.27-2.32c1.34-.56,2.6-1,3.78-1.41,2.14-.74,4.66-1.71,7-2.49s4.65-1.58,6.86-2.41a61.31,61.31,0,0,0,6.32-2.72,30.15,30.15,0,0,0,2.88-1.64c.95-.56,1.84-1.22,2.74-1.86,7.13-5.31,12.41-13.17,15.89-21.84.88-2.17,1.63-4.4,2.32-6.65s1.32-4.64,1.87-7a128,128,0,0,0,2.63-14.2,83.41,83.41,0,0,0,.68-14.27c0-1.19-.16-2.35-.25-3.52s-.26-2.33-.5-3.46l-.33-1.71a10.48,10.48,0,0,0-.42-1.41,8.17,8.17,0,0,0-1.38-2.42,5.35,5.35,0,0,0-2-1.53,2.71,2.71,0,0,0-1.88-.29,3.8,3.8,0,0,0-1.77,1.34,14.24,14.24,0,0,0-1.65,2.7c-1,2-1.75,4.31-2.69,6.72a24.92,24.92,0,0,1-4.15,6.9,26.16,26.16,0,0,1-6,5.23,28.18,28.18,0,0,1-7.09,3.47,10.51,10.51,0,0,1-4.36.36A7.74,7.74,0,0,1,306.4,392a26.17,26.17,0,0,1-2.61-2.93,7.32,7.32,0,0,0-2.34-2,8.12,8.12,0,0,0-3-.69,8.68,8.68,0,0,0-3.18.41,5.84,5.84,0,0,0-2.54,1.63,14.67,14.67,0,0,0-1.83,2.91,9,9,0,0,1-2.54,3.28,5.94,5.94,0,0,1-2,.94,6.66,6.66,0,0,1-1,.22,7.2,7.2,0,0,1-1.05.08,6.57,6.57,0,0,1-4-1.29,9.46,9.46,0,0,1-2.65-3.07,13.79,13.79,0,0,1-1.68-7.55,9.55,9.55,0,0,1,1-3.82,7.31,7.31,0,0,1,1.19-1.64,7.12,7.12,0,0,1,1.65-1.15c2.26-1.24,4.77-1.65,6.73-3a11.82,11.82,0,0,0,2.63-2.42,15.42,15.42,0,0,0,2-3,9.49,9.49,0,0,0,.83-7,12.3,12.3,0,0,0-1.54-3.28,6,6,0,0,0-1.21-1.31,4.56,4.56,0,0,0-1.6-.77,7.31,7.31,0,0,0-3.58.3c-1.18.34-2.33.81-3.49,1.22a14.92,14.92,0,0,1-3.59.92,6,6,0,0,1-1.85-.08,5.43,5.43,0,0,1-1.72-.68Zm.05-.08a5.17,5.17,0,0,0,1.73.64,6.16,6.16,0,0,0,1.82,0,15,15,0,0,0,3.47-1.13c1.12-.49,2.24-1,3.44-1.47a7.87,7.87,0,0,1,4-.55,5.49,5.49,0,0,1,2,.82,6.88,6.88,0,0,1,1.54,1.45,13.39,13.39,0,0,1,2,3.54,9.9,9.9,0,0,1,.59,4.18,13.27,13.27,0,0,1-1,4.06,17.8,17.8,0,0,1-2.06,3.54,12.92,12.92,0,0,1-3,3,16.8,16.8,0,0,1-3.69,1.93,24.46,24.46,0,0,0-3.1,1.4,4.17,4.17,0,0,0-1,.72,4.59,4.59,0,0,0-.66,1,7,7,0,0,0-.64,2.72,11,11,0,0,0,1.42,5.9A6.39,6.39,0,0,0,282,392a3.65,3.65,0,0,0,2.19.71h.3l.34-.05a3.81,3.81,0,0,0,.64-.13,2.9,2.9,0,0,0,1-.47,6,6,0,0,0,1.6-2.22,17.55,17.55,0,0,1,2.19-3.53,9.07,9.07,0,0,1,3.91-2.6,12.51,12.51,0,0,1,6.51-.34,8.76,8.76,0,0,1,1.06.28,8.1,8.1,0,0,1,1.1.43,10.51,10.51,0,0,1,3.43,2.79,26,26,0,0,0,2.28,2.6,4.51,4.51,0,0,0,2.44,1.18,7.16,7.16,0,0,0,3-.26,25,25,0,0,0,6.24-3.06,22.58,22.58,0,0,0,5.29-4.56,21.17,21.17,0,0,0,3.64-6c.89-2.24,1.64-4.65,2.75-7a17.87,17.87,0,0,1,2-3.35,7.15,7.15,0,0,1,3.36-2.48,5.55,5.55,0,0,1,2.18-.2,7,7,0,0,1,2,.56,8.93,8.93,0,0,1,3.25,2.38,13.89,13.89,0,0,1,3,7.1c.26,1.22.4,2.47.59,3.7s.29,2.48.33,3.73a87.07,87.07,0,0,1-.46,14.89,132.08,132.08,0,0,1-2.47,14.67,101.74,101.74,0,0,1-4.14,14.28c-3.53,9.23-9.07,17.92-16.94,24-1,.74-2,1.5-3,2.15s-2.1,1.31-3.2,1.89a64.11,64.11,0,0,1-6.73,3.12c-4.6,1.82-9.27,3.44-13.86,5.27a28.23,28.23,0,0,0-6.65,3.17A40.8,40.8,0,0,0,285.9,470a13.68,13.68,0,0,1-6,4.28,14.65,14.65,0,0,1-7.35.26,16,16,0,0,1-3.53-1.16,15.48,15.48,0,0,1-3.1-2,17.92,17.92,0,0,1-4.34-6c-2.17-4.45-3.26-9.34-5.61-13.7a37.83,37.83,0,0,0-9.47-11.28,23.34,23.34,0,0,0-6.47-3.55,19.44,19.44,0,0,0-7.3-1,16,16,0,0,0-7.05,2.06,13.25,13.25,0,0,0-5.06,5.28,17.91,17.91,0,0,0-.66,14.38,30.13,30.13,0,0,0,8.59,11.89,57.11,57.11,0,0,0,12.29,8.22,84.57,84.57,0,0,0,13.77,5.43,100.46,100.46,0,0,0,14.43,3.29,60.94,60.94,0,0,0,7.37.75,49,49,0,0,0,7.35-.86,27.72,27.72,0,0,1,7.38-.47,11.16,11.16,0,0,1,6.64,2.95,8.76,8.76,0,0,1,2.89,6.58,7.48,7.48,0,0,1-1.05,3.51,11.31,11.31,0,0,1-2.48,2.73c-3.84,3.18-8.68,4.71-13.33,6.27-2.35.76-4.67,1.62-7,2.46l-7,2.56c-4.63,1.72-9.23,3.54-13.73,5.57-9,4.06-17.67,9.1-24.71,16.08-3.52,3.47-6.32,7.62-10.15,10.78a20.2,20.2,0,0,1-6.38,3.69,18.1,18.1,0,0,1-7.3,1c-5-.35-9.52-2.67-13.79-5.07s-8.55-5-12.73-7.59c-8.37-5.25-16.47-10.93-24.29-17s-15.37-12.44-22.58-19.19q-5.41-5.07-10.57-10.38-2.59-2.67-5.1-5.38c-1.69-1.81-3.32-3.67-5-5.44-3.42-3.56-7-7-10-10.9a29.15,29.15,0,0,1-3.82-6.33,23.26,23.26,0,0,1-1.19-3.5l-.3-1.83a12.54,12.54,0,0,1-.1-1.84l0-.93c0-.31.07-.61.1-.92.08-.61.11-1.23.24-1.84a27.29,27.29,0,0,1,1.05-3.55,23.22,23.22,0,0,1,3.83-6.3,32,32,0,0,1,5.42-5A47.31,47.31,0,0,1,115,433.1c4.4-2.25,9-4.07,13.32-6.5a28.91,28.91,0,0,0,10.8-9.91,32.93,32.93,0,0,0,4.34-14,143.5,143.5,0,0,0,.48-14.81,88,88,0,0,1,.94-14.77,33,33,0,0,1,5.41-13.67,46.54,46.54,0,0,1,10.36-10.51A135.25,135.25,0,0,1,173,340.75l6.36-3.82c2.08-1.32,4.2-2.6,6.24-4,4.13-2.72,8.11-5.65,12-8.67a193.32,193.32,0,0,0,21.81-20,188.52,188.52,0,0,0,18.42-23.18c2.79-4.08,5.34-8.32,7.86-12.57a87,87,0,0,1,8.36-12.21,38.09,38.09,0,0,1,5.29-5.18,28.47,28.47,0,0,1,6.34-3.79A21.57,21.57,0,0,1,280.18,246a19.26,19.26,0,0,1,6.46,3.54,23.27,23.27,0,0,0,6.3,3.83,13,13,0,0,0,7.3.12,27.2,27.2,0,0,0,6.81-2.87A78.15,78.15,0,0,0,319,241.83,87.62,87.62,0,0,0,329.07,231a84.31,84.31,0,0,0,8-12.45,78.41,78.41,0,0,0,5.7-13.65,82.34,82.34,0,0,0,3.15-14.46c.57-4.91.72-9.86.88-14.79a137.79,137.79,0,0,1,1.05-14.78,59.84,59.84,0,0,1,1.47-7.26,47.39,47.39,0,0,1,2.58-6.94,53.14,53.14,0,0,1,8.33-12.2,117.67,117.67,0,0,1,10.62-10.33c7.5-6.41,14.8-13.16,23.2-18.41a50.56,50.56,0,0,1,13.45-6.1,37.13,37.13,0,0,1,14.69-.91c4.9.57,9.78,1.58,14.73,1.49A23.43,23.43,0,0,0,444.21,99a25.33,25.33,0,0,0,6.52-3.45A26.69,26.69,0,0,0,459.67,84a24.85,24.85,0,0,0,1.24-14.54,43.11,43.11,0,0,1-1.21-7.3,11.54,11.54,0,0,1,2-7,11.39,11.39,0,0,1,2.56-2.67c.24-.19.5-.35.76-.52l.82-.44a8.79,8.79,0,0,1,1.68-.77,10.4,10.4,0,0,1,7.25-.1,14.72,14.72,0,0,1,6,4.23A25.86,25.86,0,0,1,484.85,61a39.42,39.42,0,0,1,2.42,7,59.94,59.94,0,0,1,1.4,7.28,107.49,107.49,0,0,1,.56,14.8c0,4.94,0,9.88.34,14.81.18,2.46.41,4.92.77,7.37a66,66,0,0,0,1.52,7.24c1.25,4.81,3.72,9.14,5.92,13.55a54.49,54.49,0,0,1,2.94,6.8,22,22,0,0,1,1.27,7.28,14.75,14.75,0,0,1-.5,3.67,14.18,14.18,0,0,1-1.36,3.44,12.14,12.14,0,0,1-2.22,3,10.44,10.44,0,0,1-3,2.15,12,12,0,0,1-7.26.88,18.49,18.49,0,0,1-6.86-2.68,17.76,17.76,0,0,1-5.29-5.14,70.84,70.84,0,0,0-4.35-6,19,19,0,0,0-2.63-2.6,6.82,6.82,0,0,0-3.28-1.57,4.81,4.81,0,0,0-3.5.8,13.39,13.39,0,0,0-2.59,2.62,19.09,19.09,0,0,1-12.62,7.09c-1.23.15-2.47.19-3.69.38a7.93,7.93,0,0,0-3.43,1.24,8.37,8.37,0,0,0-2.21,2.91c-.59,1.09-1.1,2.21-1.64,3.32a16.76,16.76,0,0,1-4.35,5.95A16.35,16.35,0,0,1,421,170.47c-1.24,0-2.47-.09-3.71-.07a11.41,11.41,0,0,0-6.85,2.39,7.95,7.95,0,0,0-3.11,6.4,25.84,25.84,0,0,0,1.29,7.26c1.29,4.76,3.56,9.23,4.44,14.13a21.08,21.08,0,0,1-2.54,14.32c-2.45,4.33-6,7.84-9.11,11.68a37.88,37.88,0,0,0-7.09,12.88A64,64,0,0,0,391.67,254c-.39,4.92-.46,9.86-.55,14.8s-.21,9.89-.73,14.81A53.24,53.24,0,0,1,387.08,298a32.81,32.81,0,0,1-3.48,6.54,30.16,30.16,0,0,1-4.88,5.58,38.62,38.62,0,0,1-20.05,8.94c-2.45.34-4.92.5-7.38.7-1.23.12-2.47.15-3.68.39a9.93,9.93,0,0,0-3.4,1.35,5.86,5.86,0,0,0-2.33,2.76,8.33,8.33,0,0,0-.49,3.61c.12,2.47.85,4.85,1.19,7.31a14,14,0,0,1,0,3.71,7.14,7.14,0,0,1-1.3,3.46,4.44,4.44,0,0,1-3.25,1.66,7.26,7.26,0,0,1-1.86-.13,5.64,5.64,0,0,1-1.77-.57,8.29,8.29,0,0,1-2.77-2.46,25.83,25.83,0,0,1-1.95-3.16,49.9,49.9,0,0,0-3.85-6.31,11.78,11.78,0,0,0-2.59-2.59,11,11,0,0,0-3.31-1.56,40.91,40.91,0,0,0-7.3-1.13c-2.46-.22-4.93-.41-7.39-.52a57.35,57.35,0,0,0-14.74.94,30.2,30.2,0,0,0-13.26,6.21,22.63,22.63,0,0,0-7.95,12.16,16,16,0,0,0,0,7.34,9.51,9.51,0,0,0,4.11,5.91Z"/></svg>