<svg id="Layer_1" data-name="Layer 1" xmlns="http://www.w3.org/2000/svg" viewBox="0 0 600 600"><title>Mongolia</title><path d="M82.89,209a21.11,21.11,0,0,0,4.9-3.94c.76-.73,1.44-1.55,2.22-2.28l1.17-1.08.6-.55.63-.49a33.38,33.38,0,0,1,11.6-5.56c8.35-2.35,17.07-2.49,25.52-2.53a52,52,0,0,1,6.62.31,19.24,19.24,0,0,1,7,2.08,19,19,0,0,1,5.59,4.93c1.46,1.8,2.62,3.47,3.89,4.87a41.17,41.17,0,0,0,19.16,12.05,46,46,0,0,0,5.5,1.25c1.81.27,3.82.48,5.72.58a35.91,35.91,0,0,0,10.76-.79,17.69,17.69,0,0,0,4.17-1.63,9,9,0,0,0,2.72-2.38,11.45,11.45,0,0,0,.86-1.37A9.8,9.8,0,0,0,202,211a13,13,0,0,0,.22-3.83c-.08-1.61-.31-3.46-.56-5.67a51,51,0,0,1-.33-7.61,26.76,26.76,0,0,1,2.24-9.34c.38-.77.78-1.53,1.19-2.28s.81-1.28,1.24-1.92a31.26,31.26,0,0,1,2.79-3.46,34.82,34.82,0,0,1,6.77-5.63,30.51,30.51,0,0,1,8.18-3.71,31.08,31.08,0,0,1,9.36-1.23,29.18,29.18,0,0,1,4.89.55c.82.18,1.63.38,2.43.59s1.5.45,2.17.73a50,50,0,0,1,7.19,3.46c2,1.16,3.77,2.19,5.3,3,.74.37,1.45.74,2.08,1a15.76,15.76,0,0,0,1.87.66c1.39.43,3.32.85,5.68,1.48a36.46,36.46,0,0,1,8.38,3.22,24.51,24.51,0,0,1,4.64,3.34c.71.68,1.4,1.39,2.06,2.11s1.21,1.57,1.79,2.38a28.13,28.13,0,0,1,3.94,9.81c.6,2.94.81,5.44,1,7.38a23.85,23.85,0,0,0,.74,4.25c.28.85.44.95.52,1a2.19,2.19,0,0,0,.91.66,4.55,4.55,0,0,0,.91,0,14.85,14.85,0,0,0,3.17-.73c1.38-.45,3-1.11,4.75-1.88l.78-.33.92-.38c.61-.24,1.21-.5,1.83-.72,1.26-.43,2.49-.9,3.79-1.25a57.32,57.32,0,0,1,7.93-1.74,50.4,50.4,0,0,1,16.69.46,49.12,49.12,0,0,1,15.71,6.07,87.12,87.12,0,0,1,11.74,8.8c1.56,1.3,3,2.45,4.29,3.4l2,1.26c.33.21.63.45,1,.64l1,.54a39.26,39.26,0,0,0,8.84,3.5l2.36.56c.78.2,1.6.25,2.4.4,1.58.32,3.23.32,4.84.48.82,0,1.63,0,2.45,0h1.22l1.21-.11,2.43-.23,2.39-.43a17.09,17.09,0,0,0,2.35-.56c.77-.23,1.56-.38,2.31-.65a37.71,37.71,0,0,0,4.4-1.76,39,39,0,0,0,4.08-2.22c.66-.38,1.24-.89,1.87-1.31a14.77,14.77,0,0,0,1.78-1.37l1.66-1.48c.26-.24.45-.47.68-.7l.72-.8c1-1.16,2.21-2.59,3.54-4.23s2.84-3.47,4.65-5.42a49.82,49.82,0,0,1,6.64-6.08,39.66,39.66,0,0,1,4.5-2.91c.79-.47,1.71-.88,2.59-1.29.47-.21.84-.4,1.4-.6s1.05-.4,1.57-.58a48.42,48.42,0,0,1,5-1.34c.77-.17,1.46-.29,2.2-.43l2.11-.33a79.87,79.87,0,0,1,15.93-.67,67,67,0,0,1,8.21.93,56,56,0,0,1,9,2.36,35,35,0,0,1,10.7,5.93c.5.42,1,.85,1.47,1.28s1,1,1.5,1.52a28.63,28.63,0,0,1,2.85,3.63c.45.68.88,1.46,1.28,2.2a18.55,18.55,0,0,1,1.1,2.38c.33.83.63,1.67.89,2.52s.43,1.74.59,2.62c.08.42.17.93.22,1.28l.07.72.14,1.45a28.07,28.07,0,0,1,.13,2.83q0,1.35-.06,2.7c-.1.81-.22,1.62-.39,2.42a24.51,24.51,0,0,1-3.43,7.58l-.83,1.46a13.26,13.26,0,0,0-.65,1.38,15.33,15.33,0,0,0-.7,2.34c-.2.76-.28,1.27-.42,1.85,0,.25-.06.44-.09.66s0,.23,0,.32a1.77,1.77,0,0,1,0,.23c0,.14-.06.34,0,.44a.91.91,0,0,1,0,.33c0,.11.08.17.08.26a.43.43,0,0,0,.08.28.77.77,0,0,1,.11.3c.05.11.19.23.25.35l.12.2a.93.93,0,0,0,.05.1l.13.16c.18.2.34.41.51.62a9.51,9.51,0,0,0,1.06,1,.16.16,0,0,0-.15-.09.58.58,0,0,0-.3-.12.65.65,0,0,0-.39-.07.5.5,0,0,0-.32,0c-.35,0,0,.13.93-.12a28.11,28.11,0,0,0,3.91-1.53c1.61-.74,3.43-1.67,5.44-2.68s4.26-2.08,6.84-3.11a42.62,42.62,0,0,1,8.92-2.55,29.31,29.31,0,0,1,11.15.33,25.43,25.43,0,0,1,2.78.81l1.33.52.66.27a6.18,6.18,0,0,1,.58.25c1.09.55,2.19,1.11,3.3,1.73a60,60,0,0,1,6.75,4.3,34.76,34.76,0,0,1,6.82,6.5c.55.71,1.09,1.52,1.6,2.29s1,1.76,1.42,2.66.77,2,1.1,3.05a30,30,0,0,1,.59,3.34,27.57,27.57,0,0,1,0,3.4c-.13,1.07-.31,2.16-.54,3.2a21.52,21.52,0,0,1-2.27,5.45,24.11,24.11,0,0,1-7,7.61,27.61,27.61,0,0,1-4,2.39,34.22,34.22,0,0,1-4.11,1.71,47.63,47.63,0,0,1-7.52,1.81l-6.39,1-1.4.25-1.18.24c-.79.19-1.58.44-2.37.71s-1.58.57-2.37.92-1.55.74-2.32,1.16a36.64,36.64,0,0,0-4.44,2.84,44.46,44.46,0,0,0-4.07,3.43,47.68,47.68,0,0,0-3.63,3.87c-2.35,2.74-4.64,5.83-7,9.13-.6.81-1.19,1.65-1.85,2.47-.33.41-.64.84-1,1.24-.18.19-.43.34-.64.52a1.64,1.64,0,0,0-.44.68c-.91,2-1.08,4.65-2.48,6.48s-3,3.55-4.72,5.32a60.68,60.68,0,0,1-5.66,5.06,47.06,47.06,0,0,1-14.3,7.73A51.53,51.53,0,0,1,452.65,349a47.12,47.12,0,0,1-7.8-.69c-1.28-.22-2.55-.49-3.8-.81-.62-.18-1.25-.32-1.87-.52l-.92-.29-.46-.15-.35-.12c-1.82-.63-3.51-1.15-5.07-1.52a18.18,18.18,0,0,0-4.06-.55,9.71,9.71,0,0,0-1.48.13s0-.18-.06-.13-.11.21-.13.44a2.33,2.33,0,0,0,.07.74,2.91,2.91,0,0,0,.5.8,33.65,33.65,0,0,0,3.72,3.68,33.09,33.09,0,0,1,2.85,3l.75,1,.38.51.36.6c.24.41.48.8.7,1.22l.62,1.42a8.45,8.45,0,0,1,.53,1.49c.15.52.28,1,.4,1.59a22.3,22.3,0,0,1,.3,3.22c0,1-.07,2.13-.2,3-.06.48-.14.92-.23,1.36s-.16.9-.27,1.31A38,38,0,0,1,433.6,379a27.06,27.06,0,0,1-2.87,4.24,20.76,20.76,0,0,1-4.28,4l1.66-1a35.68,35.68,0,0,1-6.07,6,21.63,21.63,0,0,1-7.59,3.86c-2.87.8-5.94,1.32-8.8,2.14a26.81,26.81,0,0,0-4.08,1.53c-1.29.61-2.5,1.33-3.75,2-4.92,2.64-10.1,6-16.35,8.57a46,46,0,0,1-4.89,1.64c-1.68.46-3.35.79-5,1.07a67.4,67.4,0,0,1-9.47.71c-6,.1-11.5.13-16,1.16l-1.63.43-1.5.49-1.38.61c-.45.21-.88.47-1.32.7a50,50,0,0,0-5.54,3.68c-2,1.43-4.09,3.07-6.43,4.74l-1.82,1.26c-.62.42-1.3.83-1.95,1.25s-1.36.84-2.08,1.25-1.42.81-2.22,1.2-1.52.8-2.38,1.15l-2.56,1c-.92.3-1.85.63-2.79.89A15.08,15.08,0,0,1,311,434c-.5.1-1,.21-1.51.27a18.67,18.67,0,0,1-3.12.27,16.29,16.29,0,0,1-3.19-.13,22.13,22.13,0,0,1-6.15-1.47,38.33,38.33,0,0,1-9.07-5.53,56.15,56.15,0,0,0-7.4-4.95c-2.55-1.35-5.16-2.51-7.71-3.78l-7.61-3.75c-10.08-4.94-20.11-9.62-30.4-12.42a73.94,73.94,0,0,0-15.37-2.67,101.52,101.52,0,0,0-15.78.38c-5.49.45-11.27,1-17.4,1-1.53,0-3.09-.05-4.66-.12L179.3,401l-2.48-.27a54.86,54.86,0,0,1-9.76-2.23,46.25,46.25,0,0,1-9.43-4.23,38.53,38.53,0,0,1-8.6-6.81,32.76,32.76,0,0,1-6.43-9.74c-.36-.92-.73-1.86-1-2.79s-.55-1.88-.75-2.79a47.42,47.42,0,0,1-.85-5.17c-.32-3.23-.41-6-.65-8.34a29,29,0,0,0-.46-3.12,16,16,0,0,0-.73-2.41c-1.18-3-4.13-6.08-8-9.05-1.9-1.48-4.1-2.93-6.33-4.35s-4.5-2.75-6.82-4a138.75,138.75,0,0,0-14.34-6.86c-2.46-1-5-1.92-7.5-2.77a59.78,59.78,0,0,1-8.91-3.37,23.45,23.45,0,0,1-2.52-1.55,26.2,26.2,0,0,1-2.36-2,19.82,19.82,0,0,1-3.58-4.85,22.52,22.52,0,0,1-2-5.31,28.81,28.81,0,0,1-.63-5.19,39.21,39.21,0,0,1,1-9.63,64.37,64.37,0,0,1,2.69-8.63c2-5.29,3.87-10.3,4.29-15.22a17.91,17.91,0,0,0-.77-7.09A17.56,17.56,0,0,0,78.51,257a38.13,38.13,0,0,0-6.05-5.17c-2.21-1.57-4.64-3-7-4.64-4.66-3.26-9.39-6.72-12.82-11.5a16.23,16.23,0,0,1-3.2-8.14,13.76,13.76,0,0,1,2.2-8.32,13,13,0,0,1,6.6-5.28,31.25,31.25,0,0,1,8.26-1.72c2.8-.29,5.61-.43,8.39-.79a22.64,22.64,0,0,0,8-2.3Zm0,.08a22.08,22.08,0,0,1-8,2.75c-2.79.5-5.6.81-8.35,1.26a31.33,31.33,0,0,0-7.86,2.06A11.45,11.45,0,0,0,53.07,220a12,12,0,0,0-1.72,7.26,14.27,14.27,0,0,0,3,7,33.06,33.06,0,0,0,5.74,5.72,67.38,67.38,0,0,0,6.79,4.73c2.35,1.48,4.82,2.81,7.23,4.37A41.76,41.76,0,0,1,81,254.46a20.33,20.33,0,0,1,6.48,15.89c-.38,11.73-7.34,21.71-6.31,32.93a18,18,0,0,0,2.17,7.79,12.93,12.93,0,0,0,5.84,5.44,51.09,51.09,0,0,0,7.93,2.59c2.71.78,5.39,1.63,8,2.58a133,133,0,0,1,30.05,15.2c4.56,3.23,8.86,7.21,11.22,12.38a27.66,27.66,0,0,1,2.1,8.15c.35,2.79.48,5.6.81,8.39a28.32,28.32,0,0,0,2,8.15,24.36,24.36,0,0,0,4.62,7,35.26,35.26,0,0,0,14.18,8.82,49.73,49.73,0,0,0,8.15,2.09,69.22,69.22,0,0,0,8.39.78c5.62.22,11.24-.05,16.85-.2a105.09,105.09,0,0,1,16.83.55,87.88,87.88,0,0,1,16.42,3.7c10.69,3.5,20.8,8.51,30.87,13.48,5,2.49,10.08,5,15.21,7.26,2.56,1.17,5.16,2.23,7.77,3.29a39.91,39.91,0,0,0,8.06,2.39c.7.12,1.39.2,2.09.25s1.41,0,2.11,0a12.31,12.31,0,0,0,2.1-.17,13.16,13.16,0,0,0,2.07-.35,32.08,32.08,0,0,0,7.89-2.9c5-2.52,9.64-5.77,14.55-8.51a48.06,48.06,0,0,1,7.66-3.49,31.74,31.74,0,0,1,8.24-1.66c5.61-.45,11.23.09,16.85.19a55,55,0,0,0,8.41-.38,32.18,32.18,0,0,0,8.12-2.17c5.19-2.19,9.77-5.55,14.36-8.77l27.56-19.42h0a17.42,17.42,0,0,0,4.93-3.9,17.92,17.92,0,0,0,3.38-5.3,9.85,9.85,0,0,0,.74-3.07,9.15,9.15,0,0,0,0-1.57,8.8,8.8,0,0,0-.39-1.53,14.43,14.43,0,0,0-3.67-5.09,41.71,41.71,0,0,1-4.31-4.61,10.5,10.5,0,0,1-1.51-2.77,9.64,9.64,0,0,1-.51-3.1,7.85,7.85,0,0,1,2.3-5.72,10.06,10.06,0,0,1,5.68-2.52c4.22-.5,8.43.44,12.48,1.56a39.69,39.69,0,0,0,12.5,1.54,36.33,36.33,0,0,0,12.3-2.64,37.66,37.66,0,0,0,10.63-6.74c6.34-5.61,11.15-12.64,16.27-19.31a109,109,0,0,1,8.12-9.69,56.39,56.39,0,0,1,9.69-8.09,50.08,50.08,0,0,1,11.3-5.62c4-1.43,8.22-1.86,12.34-2.72s8.27-2.08,11.62-4.7a15,15,0,0,0,4.12-4.73,10.23,10.23,0,0,0,1.25-6.1,10.78,10.78,0,0,0-2.69-5.63,22.33,22.33,0,0,0-4.8-4.08,44.41,44.41,0,0,0-5.54-3A25.17,25.17,0,0,0,531,254.4a16.19,16.19,0,0,0-6.28.13,28,28,0,0,0-6,2c-3.84,1.77-7.39,4.06-11.09,6.08a42,42,0,0,1-5.72,2.69,17.26,17.26,0,0,1-6.19,1.17,12.24,12.24,0,0,1-6-1.76,20.24,20.24,0,0,1-4.72-4.18,23,23,0,0,1-1.87-2.54c-.28-.45-.59-.88-.84-1.35l-.67-1.43a7.07,7.07,0,0,1-.56-1.47c-.15-.51-.36-1-.46-1.52l-.29-1.55a13.89,13.89,0,0,1-.15-1.57,23.8,23.8,0,0,1,0-3.16c.1-1.05.18-2.11.36-3.14.31-2.09.77-4.15,1.2-6.22.86-4.1,1.61-8.34,1-12.53a7.92,7.92,0,0,0-1.14-2.92,10.68,10.68,0,0,0-2.12-2.33,19.36,19.36,0,0,0-5.49-3.07,48.16,48.16,0,0,0-12.32-2.66,68.32,68.32,0,0,0-12.63,0,34.49,34.49,0,0,0-6.22,1.1,21.2,21.2,0,0,0-5.63,2.81,57.88,57.88,0,0,0-9.21,8.63,51.93,51.93,0,0,1-20.3,14.69,57.87,57.87,0,0,1-24.76,4.09,63.07,63.07,0,0,1-6.29-.73c-1-.2-2.09-.31-3.1-.58l-3.07-.78a52.22,52.22,0,0,1-11.65-4.87c-7.54-3.94-13-10.78-20.2-15.15a36.53,36.53,0,0,0-11.68-4.66,38.17,38.17,0,0,0-12.57-.46,46.59,46.59,0,0,0-12.13,3.39c-3.88,1.61-7.89,3.18-12.14,3.37a13.7,13.7,0,0,1-6.19-1.11,14.8,14.8,0,0,1-5-3.81,14.43,14.43,0,0,1-2.85-5.61,36.56,36.56,0,0,1-1-6.24,62.78,62.78,0,0,0-.78-6.27A16.62,16.62,0,0,0,272,195a12.93,12.93,0,0,0-4.55-4.27,26.48,26.48,0,0,0-5.86-2.31c-2-.58-4.08-1.07-6.08-1.74a32.77,32.77,0,0,1-5.76-2.6c-3.68-2.06-7.14-4.54-11.07-6.09a19.42,19.42,0,0,0-12.37-.65,23.94,23.94,0,0,0-10.77,6.3,20,20,0,0,0-3.74,5,17.64,17.64,0,0,0-1.66,6.05c-.37,4.2.3,8.41.21,12.63a19.09,19.09,0,0,1-1,6.23A17,17,0,0,1,208,216.5a18.3,18.3,0,0,1-2,2.5,16.81,16.81,0,0,1-5.12,3.67,24.16,24.16,0,0,1-6.05,1.83,44.1,44.1,0,0,1-12.62.06c-2.1-.26-4.18-.61-6.24-1.07a50.85,50.85,0,0,1-6.06-1.81A45.68,45.68,0,0,1,149.73,207c-1.3-1.66-2.39-3.47-3.63-5.18a15.42,15.42,0,0,0-4.46-4.39,16.46,16.46,0,0,0-5.91-2.06,51,51,0,0,0-6.29-.55c-8.4-.32-16.93-.53-25.17,1.4A35.11,35.11,0,0,0,92.7,201.1a33.45,33.45,0,0,0-4.87,4A30.45,30.45,0,0,1,83,209.18Z"/></svg>