<svg id="Layer_1" data-name="Layer 1" xmlns="http://www.w3.org/2000/svg" viewBox="0 0 600 600"><title>Montenegro</title><path d="M219.14,52.16a11.18,11.18,0,0,1,2.65,2.24,23.3,23.3,0,0,1,1.91,2.89,7.26,7.26,0,0,0,2.3,2.5,5.86,5.86,0,0,0,3.19.9,16.84,16.84,0,0,0,6.43-1.79c2.09-.9,4.14-2,6.26-2.93a30.06,30.06,0,0,1,6.77-2.33,12.05,12.05,0,0,1,7.52.77A21.43,21.43,0,0,1,262,58.93c1.68,1.75,3.13,3.62,4.56,5.44A69.54,69.54,0,0,0,286.82,81.9c7.74,4.73,16.07,9,23.79,14.83a118.37,118.37,0,0,1,20.73,19.91,127.57,127.57,0,0,1,8.49,11.72c1.31,2,2.54,4.12,3.73,6.24l3.34,6c2.12,3.76,4.36,6.74,6.85,8.31s6.15,2.65,10.67,3.75a73,73,0,0,1,7.32,2.12c1.33.47,2.6,1.05,3.87,1.6s2.43,1.18,3.54,1.81c2.28,1.24,4.37,2.52,6.34,3.72s3.85,2.35,5.63,3.3c.9.51,1.74.88,2.59,1.3a24,24,0,0,0,2.39.91,11.6,11.6,0,0,0,4,.69,3.57,3.57,0,0,0,.87-.07,6.12,6.12,0,0,0,.86-.1c.58-.12,1.35-.32,2.29-.6a51,51,0,0,1,8-1.95,26.85,26.85,0,0,1,11.05.92A30.78,30.78,0,0,1,432.4,171a25.66,25.66,0,0,1,3.57,3.09c.55.54,1.08,1.08,1.56,1.64s1,1.11,1.45,1.67a57,57,0,0,1,4.83,6.89c1.4,2.29,2.7,4.84,3.69,6.87s2,4.09,3,6a37.7,37.7,0,0,0,6,9,13.72,13.72,0,0,0,3.06,2.41c.27.13.52.27.79.41l.84.34a20,20,0,0,0,2.15.6c1.64.37,3.69.64,6.06,1,1.18.16,2.48.36,3.77.58s2.56.48,3.83.76c2.54.55,5,1.26,7.52,2.05s4.9,1.7,7.29,2.71,4.73,2.13,7,3.35a77.24,77.24,0,0,1,6.81,4.06,51.45,51.45,0,0,1,6.63,5.26,37.31,37.31,0,0,1,5.91,7,29.09,29.09,0,0,1,4,9.18,26.74,26.74,0,0,1,.44,10.34,24.79,24.79,0,0,1-3.77,10.05,20.14,20.14,0,0,1-1.76,2.31,18.11,18.11,0,0,1-2.1,2.1,21.85,21.85,0,0,1-2.42,1.82,22.7,22.7,0,0,1-2.65,1.41,25.25,25.25,0,0,1-4.91,1.59c-1.49.33-2.8.52-4,.7a30.74,30.74,0,0,0-4.93.92c-.36.14-.52.19-.49.16s0-.14-.1,0a5.54,5.54,0,0,0-.46,1.44c-.18.8-.34,1.86-.56,3.15a34.89,34.89,0,0,1-1.05,4.57c-.16.45-.29.87-.48,1.34s-.41.95-.6,1.35a24.76,24.76,0,0,1-1.27,2.27,20.27,20.27,0,0,1-3.68,4.34,16.83,16.83,0,0,1-2.44,1.82c-.48.29-1,.56-1.46.82s-1.09.48-1.64.7a16.89,16.89,0,0,1-6.36.89c-.93,0-1.65-.12-2.44-.2s-1.44-.21-2-.33c-2.55-.45-4.7-.95-6.9-1.27-1.09-.19-2.16-.34-3.24-.5s-2.16-.24-3.24-.31a41.81,41.81,0,0,0-6.17-.11,10.15,10.15,0,0,0-2.17.31c-.5.15-.63.31-.54.42s.08.22,0,.43-.07.44-.09.73a2.23,2.23,0,0,0,0,.45s0,.13,0,.15l0,.08a.31.31,0,0,0,.06.16,5,5,0,0,0,.35.62c.15.22.33.5.56.81l.38.48c.15.18.27.28.5.59s.4.19.71.37.83.53,1.59,1.05,1.62,1.16,2.55,1.83l.63.44.55.37c.36.23.7.44,1,.61l1,.52a18.3,18.3,0,0,1,2.25,1.48,19,19,0,0,1,2.06,1.84,21.28,21.28,0,0,1,1.6,1.86,22.79,22.79,0,0,1,2.25,3.62,24.75,24.75,0,0,1,1.5,3.7c.2.62.32,1.18.47,1.78a17.17,17.17,0,0,1,.34,1.74,31.21,31.21,0,0,1,.34,6.27,39.54,39.54,0,0,1-1.95,10.23l-.39,1.14-.24.66c-.1.26-.19.51-.32.8a26.65,26.65,0,0,1-1.53,3.12,34.29,34.29,0,0,1-3.23,4.67,57.65,57.65,0,0,1-6.21,6.39c-2,1.8-4.06,3.44-6.11,5s-4.09,2.94-6.15,4.31-4,2.6-6.09,3.92a98.74,98.74,0,0,1-14.12,7.37,56.78,56.78,0,0,1-8.27,2.7c-1.45.35-2.91.68-4.42.9-.77.13-1.45.22-2.13.3s-1.39.15-2.11.2a49.17,49.17,0,0,1-9.21-.09,32.05,32.05,0,0,1-5.17-1.05,28,28,0,0,1-2.71-.92,23.53,23.53,0,0,1-2.73-1.32,22.88,22.88,0,0,1-5.1-3.85c-.39-.42-.78-.85-1.15-1.28a11.12,11.12,0,0,1-1.08-1.39c-.34-.5-.67-1-1-1.52a17.15,17.15,0,0,1-.81-1.6,19.48,19.48,0,0,1-1.15-3.18,14.35,14.35,0,0,1-.35-1.45c-.1-.46-.21-1-.27-1.39-.26-1.68-.38-3.18-.46-4.37a42.29,42.29,0,0,0-.67-5.84,22,22,0,0,0-.59-2.36c-.29-.75-.51-1.5-.88-2.24a20.08,20.08,0,0,0-1.12-2.22l-.32-.57-.4-.67-.74-1.17a10.83,10.83,0,0,0-2.58-2.9,2.1,2.1,0,0,0-1.64-.49,6.16,6.16,0,0,0-1.53.43,5.41,5.41,0,0,0-.92.53,7.38,7.38,0,0,0-.62.63,18.81,18.81,0,0,0-1.68,2.32c-.32.53-.66,1.13-1,1.78l-.51,1-.25.55-.36.73c-1,2.09-2.07,4.15-3.1,6.23q-6.17,12.51-13,24.59c-1.15,2-2.29,4-3.48,6a44,44,0,0,1-4.06,5.66c-3,3.56-6.68,6.71-9.7,10.26-1.54,1.76-2.89,3.63-4.26,5.5l-4.1,5.6-8.2,11.19A104.77,104.77,0,0,1,299.66,435a40.13,40.13,0,0,1-7.43,6,29.27,29.27,0,0,1-9.46,3.83,36,36,0,0,1-9.4.76,53.66,53.66,0,0,1-8.56-1.2,57.09,57.09,0,0,1-7.89-2.4c-2.45-.95-4.49-1.87-6.26-2.52a12.42,12.42,0,0,0-3.78-1,.76.76,0,0,1-.21,0s0,0-.08,0-.07,0-.06,0h0c0-.08,0,0,0,0s0,0,0,0-.05.05-.08.06A8.24,8.24,0,0,0,245,441a2.55,2.55,0,0,0-.11.33,2.13,2.13,0,0,1,0,.25c-.08.19,0,.26,0,.38s0,.23.11.33a6.28,6.28,0,0,0,1.49,1.61,22.44,22.44,0,0,0,4.06,2.56,120.36,120.36,0,0,0,11.62,4.85c2.17.84,4.41,1.67,7,2.83.62.27,1.33.64,2,1l1.12.62.85.5c1,.61,2.06,1.25,3.11,1.91s2.06,1.37,3.09,2.11c.53.35.88.95,1.43,1.28s1.17.58,1.76.87c2.41,1.11,5.12,2.1,7.33,3.87a53.73,53.73,0,0,1,6.27,6.11,41.41,41.41,0,0,1,2.82,3.6l1.32,1.88c.44.63.8,1.3,1.2,2A61.44,61.44,0,0,1,308,496.33a89.94,89.94,0,0,1,2.37,16.3c.31,5.28.28,10.37.13,15.29-.08,2.45-.19,4.86-.3,7.23a46,46,0,0,1-1.29,9.68,31.46,31.46,0,0,1-1.06,3.31,26.92,26.92,0,0,1-1.6,3.46,28.06,28.06,0,0,1-4.68,6.43,29.07,29.07,0,0,1-6.39,5,31.65,31.65,0,0,1-6.95,3,38.59,38.59,0,0,1-12.71,1.33,48.22,48.22,0,0,1-10.81-1.89,50.05,50.05,0,0,1-9.68-3.95,51.75,51.75,0,0,1-4.58-2.74,44.62,44.62,0,0,1-4.12-3.14c-1.11-1-2.27-1.89-3.34-2.88l-3.15-3c-2-2.06-3.92-4.18-5.67-6.33a129.32,129.32,0,0,1-9.32-13c-2.69-4.31-5.1-8.48-7.37-12.46l-3.32-5.83c-.54-.93-1.1-1.84-1.61-2.78a18.22,18.22,0,0,1-1.27-2.89,21.51,21.51,0,0,1-.78-3.14c-.17-1.13-.31-2.24-.4-3.39-.12-2.36-.3-4.8-.66-7.22a21.91,21.91,0,0,0-2.13-6.67,30,30,0,0,0-4-5.41,72.57,72.57,0,0,0-10.08-9.34l-2.83-2.14L189,468c-.22-.16-.52-.42-.8-.65l-.84-.7a73.43,73.43,0,0,1-5.9-5.7c-3.48-3.77-6.14-7.23-8.36-9.84-.56-.64-1.08-1.25-1.59-1.81-.25-.3-.51-.51-.76-.78l-.18-.18-.11-.08a1,1,0,0,1-.19-.17,6.57,6.57,0,0,0-1.87-1.22c-1.88-.86-6-1.17-12.17-2.46a31.59,31.59,0,0,1-10-4.06c-.81-.57-1.61-1.15-2.38-1.74-.38-.29-.81-.71-1.2-1.06a13,13,0,0,1-1.17-1.18A21.4,21.4,0,0,1,137.9,431a26.09,26.09,0,0,1-1.72-5.12c-.34-1.52-.53-2.82-.69-3.92s-.28-2-.41-2.72l0-.28,0-.17a1.15,1.15,0,0,1,0-.19.35.35,0,0,0-.05-.25l-.09-.3a13,13,0,0,0-2.8-3.76c-1.46-1.52-3.28-3.18-5.27-5.46l-.36-.42-.39-.48-.75-1-1.59-2.22a25,25,0,0,1-1.6-2.7c-.24-.51-.49-1-.7-1.55s-.34-1.14-.49-1.72c-.08-.29-.13-.58-.19-.88l-.07-.75a12.55,12.55,0,0,1-.07-1.5,21,21,0,0,1,.32-2.88,25,25,0,0,1,.68-2.55c.28-.74.55-1.57.86-2.2,1.29-2.69,2.57-4.63,3.38-6.13a8,8,0,0,0,.74-1.76l.08-.32a1,1,0,0,1,0-.24c.06-.18-.05-.3,0-.45s-.12-.31-.13-.48a5.82,5.82,0,0,1-.34-.6,2.74,2.74,0,0,0-.85-.85,5.1,5.1,0,0,0-2.69-.65,22.79,22.79,0,0,0-4.93.39c-1.89.29-3.92.76-6.08,1.29l-3.39.84-1.84.42-1,.21-.46.09-.21.06c-.65.15-1.81.49-3,.81s-2.49.67-3.93,1a24.57,24.57,0,0,1-5.1.51l-.77,0-.86-.08c-.29,0-.57-.06-.86-.11l-1-.21c-.33-.09-.64-.15-1-.27s-.74-.27-1.1-.42a11.33,11.33,0,0,1-2.24-1.22,13.68,13.68,0,0,1-3.15-3,15.09,15.09,0,0,1-1-1.49A15.83,15.83,0,0,1,80,373.8a23.2,23.2,0,0,1-1.76-5.21,39.76,39.76,0,0,1-.75-9.17,54,54,0,0,1,.89-8.75A32.5,32.5,0,0,1,81.21,342a29.59,29.59,0,0,1,2.55-4.1,25.94,25.94,0,0,1,3.41-3.72,42,42,0,0,1,6-4.3c2-1.22,4-2.28,5.94-3.42a26.84,26.84,0,0,0,5-3.75,18.87,18.87,0,0,0,3.28-4.49,15.63,15.63,0,0,0,1.64-4.62,12.19,12.19,0,0,0,0-4.74,28.42,28.42,0,0,0-4.51-10.21c-2.32-3.51-5.09-7.11-7.94-11.1-1.42-2-2.79-4.25-4.1-6.46l-1.81-3.42c-.6-1.15-1.08-2.34-1.62-3.51A76.39,76.39,0,0,1,82.78,244a73.12,73.12,0,0,1,6.58-30.53c.58-1.19,1.13-2.39,1.74-3.58s1.35-2.46,2.22-3.77a27.79,27.79,0,0,1,3.2-4,22.55,22.55,0,0,1,2.08-1.91,27.12,27.12,0,0,1,2.36-1.66,26,26,0,0,1,9.8-3.6,51.28,51.28,0,0,1,8.26-.55c2.44,0,4.64,0,6.57,0a21.55,21.55,0,0,0,4.8-.6,8.73,8.73,0,0,0,3.14-1.44,9.52,9.52,0,0,0,2.51-2.94,22.65,22.65,0,0,0,2.62-9.84c0-.94.07-1.88,0-2.82,0-.48,0-1-.07-1.42l-.05-.71-.09-.77c-.22-2-.57-4.16-1-6.36-.81-4.39-1.87-9.07-2.45-14.12a53,53,0,0,1-.33-7.83c0-.67.07-1.35.12-2a16.42,16.42,0,0,1,.26-2l.34-2.06.18-1,.29-1a37.55,37.55,0,0,1,7.43-14.29,41.68,41.68,0,0,1,12-9.93c9.06-5,20.11-6.68,30.21-2.87a13.06,13.06,0,0,1,4,2.51,12.15,12.15,0,0,1,2.64,3.84c.56,1.22.94,2.29,1.34,3.15q.15.32.3.6l.34.51.33.52c.13.16.28.3.42.45a8.39,8.39,0,0,0,4.48,2.46,13.46,13.46,0,0,0,5.75-.07,15,15,0,0,0,5.46-2.37l1.17-.93,1-1c.33-.36.59-.78.9-1.16a15.35,15.35,0,0,0,.79-1.32,21.13,21.13,0,0,0,2-12.45,36.38,36.38,0,0,0-4.05-12.69,91.91,91.91,0,0,0-7.57-11.43c-2.76-3.68-5.57-7.37-8.1-11.26a37.61,37.61,0,0,1-3.35-6.1,9.39,9.39,0,0,1-.7-3.44,6.75,6.75,0,0,1,1-3.36,9,9,0,0,1,2.33-2.59,14.7,14.7,0,0,1,3-1.8,25.71,25.71,0,0,1,6.62-2,26.31,26.31,0,0,1,6.92-.26,15.89,15.89,0,0,1,6.52,2.17Zm0,.08A11.8,11.8,0,0,0,215.9,51a16.74,16.74,0,0,0-3.37-.58,25.71,25.71,0,0,0-6.78.52,25,25,0,0,0-6.36,2.21,14.22,14.22,0,0,0-2.73,1.81,8,8,0,0,0-2,2.37A5.53,5.53,0,0,0,194,60.1a8.46,8.46,0,0,0,.72,2.92,35.73,35.73,0,0,0,3.41,5.73c2.59,3.73,5.46,7.3,8.35,10.92a94.76,94.76,0,0,1,8.08,11.47,39.3,39.3,0,0,1,4.75,13.45,24.25,24.25,0,0,1-1.91,14.27c-.31.54-.54,1.1-.9,1.62s-.7,1.06-1.09,1.54-.84.94-1.27,1.39l-1.42,1.21a18.49,18.49,0,0,1-6.63,3.18,17.34,17.34,0,0,1-7.35.34,12.45,12.45,0,0,1-6.66-3.36c-.22-.22-.46-.44-.67-.68l-.55-.77-.56-.78c-.15-.27-.3-.54-.44-.82-.56-1.09-1-2.17-1.47-3.15a7.19,7.19,0,0,0-4.4-4.07,28.89,28.89,0,0,0-13.18-1.18,34.24,34.24,0,0,0-12.65,4.48c-7.76,4.57-14,12.16-16,21l-.22.82-.12.83-.23,1.68a22.62,22.62,0,0,0-.22,3.39,45.85,45.85,0,0,0,.51,6.82c.66,4.54,1.8,9,2.8,13.52a59.7,59.7,0,0,1,1.78,13.78,31,31,0,0,1-3.06,13.5,18.27,18.27,0,0,1-4.24,5.52,17.27,17.27,0,0,1-6,3.37c-4.45,1.44-9.16,1.31-13.75,1.48a43.85,43.85,0,0,0-6.87.61,17.75,17.75,0,0,0-6.42,2.39,15.64,15.64,0,0,0-4.82,4.86c-.64,1-1.22,2-1.77,3s-1,2.07-1.52,3.1a64.67,64.67,0,0,0-4.51,13.06,69.71,69.71,0,0,0-.74,27.5,67.37,67.37,0,0,0,3.69,13.31c.44,1.07.83,2.16,1.32,3.2l1.51,3.12c1.11,2,2.22,4,3.49,6,2.52,3.87,5.25,7.59,7.65,11.54s4.47,8.16,5.14,12.75a21.07,21.07,0,0,1-2.42,13.38,35.67,35.67,0,0,1-3.94,5.67c-1.5,1.75-3.12,3.4-4.78,5-3.35,3.18-6.88,6.16-10.19,9.37a27.29,27.29,0,0,0-6.73,11.93,30.55,30.55,0,0,0-.89,13.7,14.43,14.43,0,0,0,1,3.29A6.51,6.51,0,0,0,89.65,373a6,6,0,0,0,3.29.9,17.27,17.27,0,0,0,3.44-.31c2.27-.4,4.48-1.09,6.74-1.59s4.51-.94,6.77-1.44c4.48-1,9.09-2,13.7-1.4a11.94,11.94,0,0,1,6.3,2.61,10.9,10.9,0,0,1,3.53,5.81,12.15,12.15,0,0,1-.72,6.79c-.8,2.17-1.84,4.23-2.63,6.4a19.34,19.34,0,0,0-.92,3.33,12.09,12.09,0,0,0-.05,3.45,11.19,11.19,0,0,0,3.32,5.94c3.18,3.33,7.19,5.87,9.78,9.75a20,20,0,0,1,2.44,6.43,28.86,28.86,0,0,0,2.17,6.56,12.11,12.11,0,0,0,4.83,4.82,19.59,19.59,0,0,0,6.53,2.18c4.55.77,9.24.62,13.69,1.91a18.27,18.27,0,0,1,6.13,3.13,31.72,31.72,0,0,1,4.86,4.9c2.94,3.57,5.35,7.52,8,11.3a59.19,59.19,0,0,0,4.23,5.48c1.53,1.73,3.16,3.36,4.75,5,3.2,3.32,6.43,6.62,9.58,10s6.22,6.82,9.13,10.41a130.7,130.7,0,0,1,8.06,11.24c5,7.77,9.34,15.93,14.24,23.75s10.46,15.31,17.5,21.31a33.55,33.55,0,0,0,11.94,6.82,24.84,24.84,0,0,0,13.63.94,13.33,13.33,0,0,0,6-3.31,11.83,11.83,0,0,0,2.1-2.73,14,14,0,0,0,1.36-3.18,40.05,40.05,0,0,0,1.16-6.81c.25-2.29.5-4.59.71-6.89.84-9.16,1.23-18.5-.52-27.59a45.86,45.86,0,0,0-4.52-13c-.28-.5-.52-1-.84-1.51l-.94-1.46a27.63,27.63,0,0,0-2-2.81,44.23,44.23,0,0,0-4.72-5.05,79.23,79.23,0,0,0-11-8.34,54.7,54.7,0,0,0-5.95-3.52c-2.08-1-4.21-1.88-6.34-2.77a107.44,107.44,0,0,1-12.55-5.84,30.08,30.08,0,0,1-5.6-4,13,13,0,0,1-3.76-5.71,10.45,10.45,0,0,1,.36-6.78l.3-.81.38-.78.39-.77.46-.74a13,13,0,0,1,2.14-2.7,9,9,0,0,1,6.28-2.47,20.9,20.9,0,0,1,6.76,1.3c2.18.74,4.31,1.63,6.49,2.42a47.53,47.53,0,0,0,6.65,1.87,31.19,31.19,0,0,0,13.73,0,22.38,22.38,0,0,0,11.48-7.33,87.51,87.51,0,0,0,7.92-11.34l14.78-23.41c2.46-3.91,4.94-7.8,7.37-11.72l7.23-11.81,14.37-23.67,3.59-5.91a37.89,37.89,0,0,1,4.05-5.61,22.24,22.24,0,0,1,5.26-4.46,17.14,17.14,0,0,1,6.51-2.22,15.24,15.24,0,0,1,6.84.6,14.9,14.9,0,0,1,5.82,3.64,25.18,25.18,0,0,1,4.12,5.54c.56,1,1.12,2,1.61,3.06a33.08,33.08,0,0,1,1.39,3.17c1.76,4.29,2.27,8.95,2.5,13.55a18.71,18.71,0,0,0,1.3,6.75,10.74,10.74,0,0,0,4.76,4.85,17.1,17.1,0,0,0,6.61,1.84,33.28,33.28,0,0,0,6.91-.22,41,41,0,0,0,13.2-3.94,80.91,80.91,0,0,0,11.82-7.17c3.75-2.68,7.48-5.4,11.06-8.31a70,70,0,0,0,10-9.54,24,24,0,0,0,2-2.84,16.08,16.08,0,0,0,1.35-3.17,27.46,27.46,0,0,0,1.39-6.76,13.54,13.54,0,0,0-1.07-6.75,7.67,7.67,0,0,0-2-2.75c-.92-.7-1.91-1.31-2.81-2-1.82-1.42-3.52-3-5.23-4.53a18,18,0,0,1-4.27-5.4,16.28,16.28,0,0,1-1.76-6.65,12.68,12.68,0,0,1,1.64-6.65,11,11,0,0,1,4.94-4.7,15.4,15.4,0,0,1,6.8-.93c2.31.09,4.61.36,6.89.66s4.57.66,6.84,1.07l6.81,1.28c2.25.38,4.63.72,6.83-.05a10.69,10.69,0,0,0,5.12-4.46,12.84,12.84,0,0,0,1.45-3.12,21.75,21.75,0,0,0,.72-3.37,26.38,26.38,0,0,1,1.49-6.75,8.74,8.74,0,0,1,4.93-4.62c4.32-1.72,9.16-1.41,13.39-3.34a12,12,0,0,0,5.11-4.51,15.8,15.8,0,0,0,2.29-6.46,17.58,17.58,0,0,0-.39-6.85,20,20,0,0,0-2.88-6.24,34.43,34.43,0,0,0-10-9.38,78.29,78.29,0,0,0-25.5-10.37c-2.26-.48-4.53-.86-6.82-1.16s-4.58-.57-6.84-1.06a23.24,23.24,0,0,1-6.52-2.3,23.8,23.8,0,0,1-5.5-4.18A47.59,47.59,0,0,1,441.33,202c-2.19-4.06-4-8.31-6.44-12.24A39,39,0,0,0,426,179.31a19.9,19.9,0,0,0-6-3.31,16.71,16.71,0,0,0-6.81-.75,50.69,50.69,0,0,0-6.75,1.44,30.15,30.15,0,0,1-3.41.65,14.22,14.22,0,0,1-1.73.09,11.1,11.1,0,0,1-1.73,0,21.63,21.63,0,0,1-6.72-1.59,39.28,39.28,0,0,1-6.17-3.13c-4-2.38-7.66-5.16-11.63-7.51a42.38,42.38,0,0,0-6.16-3.12c-2.14-.87-4.36-1.52-6.57-2.18-4.39-1.31-8.94-2.62-12.67-5.42s-6.23-6.86-8.32-10.94l-3.09-6.2c-1.05-2-2.15-4.08-3.32-6.07a117.31,117.31,0,0,0-7.66-11.51A113.36,113.36,0,0,0,308.1,99.83c-7.16-5.84-15.2-10.44-22.87-15.58a93.45,93.45,0,0,1-11-8.45,64.47,64.47,0,0,1-9.16-10.36A65.78,65.78,0,0,0,260.85,60a19.86,19.86,0,0,0-5.3-4.37,10.94,10.94,0,0,0-6.72-.86,29.23,29.23,0,0,0-6.58,2.06c-2.13.89-4.22,1.89-6.36,2.74A16.33,16.33,0,0,1,229.16,61a6.17,6.17,0,0,1-3.23-1.13,7.82,7.82,0,0,1-2.26-2.59,15,15,0,0,0-1.93-2.86,11,11,0,0,0-2.69-2.12Z"/></svg>