<svg id="Layer_1" data-name="Layer 1" xmlns="http://www.w3.org/2000/svg" viewBox="0 0 600 600"><title>Morocco</title><path d="M81,539c4,.47,8,.91,11.94,1.08,4.29.18,8.6.06,12.91,0,8.63-.16,17.32-.73,26-.93,2.15,0,4.44-.07,6.62,0s4.4.16,6.56.34l6.43.53c2.12.21,4.22.41,6.3.58s4.14.32,6.18.43l3.19.16c.61,0,1.22.07,1.78.13s1.15.09,1.69.15a44.67,44.67,0,0,0,5.46.39c.34,0,.58-.06.85-.07a1.31,1.31,0,0,1,.27-.06l.13,0,.06,0a.27.27,0,0,1,.12,0s0,0,0,0-.06,0,0,0l0,0s0,0,0,0a.31.31,0,0,1,.06-.13l0-.06.06-.13a2.24,2.24,0,0,1,.13-.27l.07-.13.07-.21c.08-.27.21-.55.28-.81a12.88,12.88,0,0,0,.24-3.93,52.86,52.86,0,0,0-.73-5.59c-.34-2.05-.75-4.24-1-6.7-.08-.59-.13-1.27-.2-1.9s-.08-1.41-.1-2l-.07-3.31c0-2.22,0-4.58.1-7a47.08,47.08,0,0,1,1.08-7.68,32.49,32.49,0,0,1,3.15-8,30.27,30.27,0,0,1,5.35-6.71,41.57,41.57,0,0,1,6.34-4.77l1.61-1,1.49-.87,2.87-1.61q2.79-1.55,5-3.07c.74-.51,1.44-1,2.08-1.54a18.62,18.62,0,0,0,1.69-1.6,9.41,9.41,0,0,0,1.78-2.92,14.82,14.82,0,0,0,.77-3.81,20.44,20.44,0,0,0-.16-4.94,40.49,40.49,0,0,0-1.4-5.78l-.49-1.57L207,452c-.35-1.13-.77-2.25-1.14-3.51s-.75-2.67-1.11-3.85l-1.1-2.8c-.73-1.91-1.56-3.89-2.24-6a49.25,49.25,0,0,1-2.63-13.45c-.12-2.44-.05-4.93.08-7.59,0-1.3.18-2.7.3-4.05s.33-2.79.61-4.28.56-3,.91-4.51c.19-.77.44-1.58.67-2.37l.36-1.19.43-1.23a52,52,0,0,1,2.08-5,46.29,46.29,0,0,1,3.05-5.15,37,37,0,0,1,9.12-9.28,37.77,37.77,0,0,1,11.46-5.36,38.49,38.49,0,0,1,5.51-1c.89-.1,1.78-.2,2.65-.27l2.5-.06c1.7-.06,3.19.09,4.75.18l1.1.09.75.1,1.51.2c4,.57,8.23,1.06,12.53,1.52l13.21,1.4,6.8.76,6.92.89c2.36.36,4.6.71,7.1,1.14,2.71.47,5.06,1.12,7.33,1.64,4.36,1.14,8.13,2,10.66,1.91a6.58,6.58,0,0,0,2.86-.54l.25-.1c.07,0,.13-.1.2-.15s.28-.17.41-.26c.24-.28.5-.36.76-.7.13-.15.27-.25.41-.39a5.89,5.89,0,0,1,.44-.53,10.64,10.64,0,0,0,.87-1.14l.23-.29c0-.08.06-.17.1-.25a2.84,2.84,0,0,1,.24-.46.3.3,0,0,0,.08-.2.52.52,0,0,1,0-.18c0-.12.1-.21.08-.32s.05-.34,0-.58,0-.16,0-.32A2.28,2.28,0,0,1,318,374a30.87,30.87,0,0,0-.6-3.18c-.62-2.84-2-7.2-2.94-12.76-.12-.66-.2-1.43-.29-2.18s-.17-1.49-.23-2.27-.08-1.63-.09-2.44l0-2L313.8,346l0-3.1V339.8l.08-3.13.07-3.16.14-3.17c.2-4.25.51-8.55,1-12.89l.39-3.3.46-3.66a70.17,70.17,0,0,1,1.7-8.51,41.85,41.85,0,0,1,3.95-9.79,35.16,35.16,0,0,1,3.26-4.82,34.19,34.19,0,0,1,3.77-4c1.29-1.15,2.57-2.18,3.82-3.09s2.48-1.69,3.66-2.43c2.38-1.46,4.48-2.61,6.53-3.7,4.1-2.26,8.24-4.47,12.48-6.45s8.52-3.9,12.88-5.65a201.88,201.88,0,0,1,26.9-8.57c4.6-1.1,9.26-2,14-2.78l.43-.08.23-.06.47-.11c.31-.08.61-.12.92-.23.63-.21,1.24-.34,1.87-.6l.94-.34,1-.41c.63-.23,1.28-.6,1.93-.88,5.21-2.62,10.83-6.84,16.88-12l9.74-8.15a26.89,26.89,0,0,1,5.45-3.89,65.8,65.8,0,0,1,6.6-2.65c.56-.23,1.13-.43,1.67-.67l.92-.28a4.58,4.58,0,0,0,1.32-.75,8.59,8.59,0,0,0,1.55-1.5,7,7,0,0,0,.95-2.15,20.72,20.72,0,0,0,.46-3.78v-1.16c0-.37,0-.92,0-1.38l-.07-3.25c0-1.17,0-2.7.09-4.5a27.21,27.21,0,0,1,1.3-6.68,25.37,25.37,0,0,1,3.45-6.75,29.54,29.54,0,0,1,3.95-4.44c.63-.6,1.28-1.15,1.93-1.68s1.3-1,1.94-1.5,1.28-.89,1.9-1.31,1.26-.78,1.88-1.14a65.23,65.23,0,0,1,7.22-3.58c2.35-1,4.65-1.82,6.92-2.58s4.48-1.43,6.65-2.06c.54-.16,1.07-.31,1.61-.45l2.34-.6a41.84,41.84,0,0,1,4.89-.78,39.93,39.93,0,0,1,9.25.25c2.73.38,5,.92,6.92,1.33s3.56.76,5.13,1l.59.08.46.05c.3,0,.61.08.91.09l.9,0c.3,0,.58,0,.88,0a12.46,12.46,0,0,0,3.33-.66,10.75,10.75,0,0,0,2.74-1.53,11.15,11.15,0,0,0,1.14-1c.16-.2.3-.41.47-.62s.26-.45.42-.67a10.52,10.52,0,0,0,1.18-3.24,4.32,4.32,0,0,0,.11-.82,3.74,3.74,0,0,0,.08-.82c0-.28,0-.56,0-.84a7.66,7.66,0,0,0-.13-.91,13.91,13.91,0,0,0-.48-2l-.43-1.07-.2-.55-.28-.57a44.5,44.5,0,0,0-2.69-4.88l-3.49-5.58c-.61-1-1.22-2.07-1.83-3.11-.3-.57-.58-1.15-.93-1.69a18.26,18.26,0,0,0-1.23-1.62,8,8,0,0,0-.76-.78c-.26-.27-.55-.52-.85-.79s-.58-.56-.9-.84-.64-.57-1-.86a16.74,16.74,0,0,1-2-1.91l-1-1.06c-.16-.18-.31-.36-.45-.55a6.34,6.34,0,0,0-.42-.49,10.48,10.48,0,0,1-2.18-3.38,22.44,22.44,0,0,1-.68-3.53c-.16-1.14-.27-2.28-.39-3.42s-.16-2.21-.23-3.31c-.49-8.64.76-16.28-.24-22.57a21.73,21.73,0,0,0-.44-2.27,14.88,14.88,0,0,0-.68-2.11,13.82,13.82,0,0,0-.92-1.94,5.18,5.18,0,0,0-1.34-1.6c-.51-.49-1-.89-1.59-1.35-.28-.22-.41-.67-.76-.85a9.44,9.44,0,0,0-1.17-.4c-1.66-.42-3.63-.43-5.42-1.11-1-.39-1.72-.65-2.51-.92s-1.55-.61-2.39-.81l-2.48-.67c-.8-.24-1.71-.35-2.56-.53-1.68-.39-3.55-.56-5.32-.83s-3.7-.37-5.69-.42c-7.75-.39-16.36-.09-25.85-.63a112.42,112.42,0,0,1-14.95-1.9c-1.29-.25-2.61-.62-3.91-.94l-2-.5c-.66-.17-1.31-.42-2-.62l-3.94-1.34c-1.05-.38-2.12-.78-3.09-1.15a85.88,85.88,0,0,0-10.41-3.47,19,19,0,0,0-6.63-.68,4,4,0,0,0-.83.18c-.1,0-.24,0-.33.1a1,1,0,0,1-.27.14l-.14,0-.12.1a1.23,1.23,0,0,1-.26.12,3,3,0,0,0-.28.22l-.16.09a.72.72,0,0,0-.23.14,44.76,44.76,0,0,0-6.59,5.62,53.38,53.38,0,0,0-5.85,7.12c-.84,1.27-1.68,2.55-2.37,3.85-.17.32-.37.64-.53,1s-.31.65-.49,1a9.88,9.88,0,0,1-1.28,1.78c-.24.27-.5.54-.79.81a10.68,10.68,0,0,0-1,.9l-1.12,1c-.42.34-.81.7-1.24,1.08-1.74,1.46-3.56,3-5.27,4.79-.43.43-.83.87-1.21,1.32a16.09,16.09,0,0,0-1.1,1.4,19.09,19.09,0,0,0-1.83,2.93,24.69,24.69,0,0,0-1.3,3.14l-1.07,3.29c-1.41,4.45-2.7,9.2-4.58,14.17a49.78,49.78,0,0,1-8.21,14.55,34,34,0,0,1-6.67,6.17,29.63,29.63,0,0,1-4.14,2.48c-.7.33-1.42.7-2.12,1l-2,.78c-2.57.94-4.55,1.46-6.07,2l-1.1.39-1,.4a9,9,0,0,0-.94.43c-.31.14-.63.25-.94.42a30.36,30.36,0,0,0-3.81,2.24c-1.32.85-2.71,1.87-4.11,2.93q-1.06.84-2.1,1.71c-.72.57-1.4,1.17-2.09,1.76-1.36,1.2-2.7,2.44-4,3.73a64.61,64.61,0,0,0-12.82,17.68,70.45,70.45,0,0,0-3.86,10.17,82.45,82.45,0,0,0-2.28,10.94,62.74,62.74,0,0,0-.13,11.81c.2,2,.44,4.08.76,6.17.17,1,.37,2.09.64,3.14s.57,2.1.87,3.18c1.32,4.25,3.34,8.67,4.79,13.31.2.58.36,1.16.52,1.75l.25.87c0,.16.08.28.11.46l.08.57c.24,1.52.38,3.05.5,4.59s0,3-.13,4.55a36.29,36.29,0,0,1-.68,4.44,48.14,48.14,0,0,1-6.73,15.88,59.51,59.51,0,0,1-10.95,12.17c-4,3.48-8.2,6.54-12.26,9.47s-8,5.82-12,8.55a146.74,146.74,0,0,1-24.92,13.1A170.24,170.24,0,0,1,220,327.1l-3.34.75-3.11.67c-2,.45-4,.9-5.82,1.4s-3.57,1-5.19,1.64c-.8.3-1.59.61-2.33.95-.37.17-.75.33-1.09.52l-.54.27-.45.26a14,14,0,0,0-5.41,5.2,41.25,41.25,0,0,0-2.31,4.73c-.8,1.89-1.73,4-2.79,6.2-.52,1.1-1.11,2.2-1.72,3.33a37.51,37.51,0,0,1-2.23,3.56,45.16,45.16,0,0,1-5.21,6.09A74.58,74.58,0,0,1,167,371.62c-3.79,2.5-7.41,4.66-10.68,6.91a47.6,47.6,0,0,0-8.51,7.08,19.06,19.06,0,0,0-4.31,8.27,48.22,48.22,0,0,0-1,5.53l-.75,6.34a56.64,56.64,0,0,1-3.13,14.1,43.64,43.64,0,0,1-3.35,6.7,54.05,54.05,0,0,1-4.23,5.86c-6.06,7.28-13,12.6-19.15,18.28A234,234,0,0,0,78.5,488.84c-2.46,3.49-4.7,7-7.14,10.68s-4.94,7.09-7.39,10.6c-4.88,7-9.55,14.17-12.59,22.11a45.88,45.88,0,0,0-1.86,6.08c-.25,1-.43,2.07-.6,3.14s-.35,2.12-.44,3.17a9.78,9.78,0,0,0,.16,3.11,3.12,3.12,0,0,0,.62,1.31,2,2,0,0,0,1.22.64,3.72,3.72,0,0,0,1.48-.11,6.48,6.48,0,0,0,1.4-.63c.9-.54,1.79-1.17,2.69-1.75a59.1,59.1,0,0,1,11.34-6.12A34.85,34.85,0,0,1,80.05,539Zm-1.45,0a32.87,32.87,0,0,0-11.84,2.72,59.1,59.1,0,0,0-10.78,6.68c-.89.63-1.67,1.24-2.68,1.91a8,8,0,0,1-1.76.87,4.15,4.15,0,0,1-1.07.22,4.4,4.4,0,0,1-1.15,0,3.78,3.78,0,0,1-2.35-1.17,4.82,4.82,0,0,1-1.07-2.08,10.29,10.29,0,0,1-.06-3.7c.16-1.13.34-2.24.51-3.27s.3-2.18.52-3.25a48.09,48.09,0,0,1,1.74-6.38c2.88-8.31,7.44-15.78,12.13-23,2.35-3.6,4.75-7.16,7-10.77s4.47-7.35,6.84-10.94A238.2,238.2,0,0,1,108.23,447c6.13-6,12.79-11.52,18.06-18.26a40.46,40.46,0,0,0,6.29-11.06A49.59,49.59,0,0,0,135,405.17a100.56,100.56,0,0,1,1.51-12.81,26.82,26.82,0,0,1,5.5-11.62,54.94,54.94,0,0,1,9.57-8.65c3.46-2.55,7.08-4.87,10.59-7.34a68.73,68.73,0,0,0,9.89-8.19,33.93,33.93,0,0,0,7.11-10.64c1.79-3.9,3.07-8,5.15-11.8a22.52,22.52,0,0,1,8.92-9.05,49,49,0,0,1,12-4.64c4.15-1.11,8.38-1.87,12.56-2.84a136.85,136.85,0,0,0,24.41-8.13,111.9,111.9,0,0,0,22.23-12.92,83.24,83.24,0,0,0,17.87-18.41,72.18,72.18,0,0,0,6.5-11.11,61.22,61.22,0,0,0,4.18-12.15c.2-1.06.48-2.1.61-3.16l.43-3.19.17-3.22c.06-1.07,0-2.15.05-3.22,0-4.3-.09-8.59-.22-12.88a212.72,212.72,0,0,1,.33-25.75,90.89,90.89,0,0,1,2.15-12.69,79.42,79.42,0,0,1,4.14-12.18,84.25,84.25,0,0,1,13.8-21.64,87.84,87.84,0,0,1,9.14-9.06,55.94,55.94,0,0,1,10.59-7.28,41.61,41.61,0,0,1,6-2.43c2-.67,4.12-1.22,6.16-1.88a29.67,29.67,0,0,0,5.9-2.56,32.49,32.49,0,0,0,5.2-3.77,38.07,38.07,0,0,0,8.07-10,58.68,58.68,0,0,0,4.91-11.88c2.51-8.22,3.94-16.74,6.92-24.81a61.53,61.53,0,0,1,5.94-11.41,69.37,69.37,0,0,1,8.1-10,59.35,59.35,0,0,1,10-8.14A23.66,23.66,0,0,1,413.39,50,38.11,38.11,0,0,1,426,52.12,119.54,119.54,0,0,1,438,56.93,75.36,75.36,0,0,0,450,61.42a102.82,102.82,0,0,0,12.65,2.37c8.53,1,17.13,1.34,25.65,2.41,2.14.22,4.25.62,6.37,1s4.22.82,6.28,1.45c1,.3,2.09.51,3.09.9l3,1.06c1,.35,2,.85,3,1.26s2,.86,2.92,1.36c3.81,1.95,7.61,4.11,10.61,7.21a31.41,31.41,0,0,1,7,10.71,59.73,59.73,0,0,1,3.34,12.41c.72,4.24,1.19,8.51,1.66,12.78s1,8.53,1.78,12.75a35.88,35.88,0,0,0,5,11.78c2.22,3.67,4.7,7.19,6.63,11,.51.94.88,1.95,1.32,2.94a27.2,27.2,0,0,1,.94,3.07,14.26,14.26,0,0,1,.32,1.58l.19,1.6a12.33,12.33,0,0,1,0,1.61,10.71,10.71,0,0,1-.07,1.6,19.42,19.42,0,0,1-5.1,11.58,20.64,20.64,0,0,1-5.06,3.94,23.56,23.56,0,0,1-6,2.22c-4.21,1-8.58.58-12.82.06s-8.54-1.28-12.82-.64a29.78,29.78,0,0,0-6.21,1.64q-3,1-6.06,2.2a74.38,74.38,0,0,0-11.61,5.53,30.25,30.25,0,0,0-5.15,3.84,12.86,12.86,0,0,0-3.62,5.24,19.57,19.57,0,0,0-.66,6.38c0,2.14.11,4.29,0,6.44a27.85,27.85,0,0,1-2.91,12.43,22.49,22.49,0,0,1-3.85,5.15,38.09,38.09,0,0,1-5,4.09c-6.89,5.12-13.46,10.66-20.2,16S430.94,260.68,423,263.91A45.85,45.85,0,0,1,410.48,267c-4.27.43-8.52,1.05-12.75,1.82a155.8,155.8,0,0,0-24.82,6.79c-4,1.45-8,3.11-11.9,4.9s-7.73,3.76-11.46,5.88A47.33,47.33,0,0,0,339,293.75a19.6,19.6,0,0,0-3.75,5.19,24.19,24.19,0,0,0-2,6.1,79.71,79.71,0,0,0-.95,12.83l-.28,12.88q-.13,6.44-.38,12.88l-.3,6.43c-.08,1.07-.06,2.14-.09,3.22s.08,2.14.19,3.21c.38,4.28,1.31,8.48,1.73,12.76a30.81,30.81,0,0,1,0,6.44l-.24,1.59a12,12,0,0,1-.39,1.57,17.06,17.06,0,0,1-1.13,3,13.71,13.71,0,0,1-.8,1.4,10.13,10.13,0,0,1-.87,1.36l-1,1.26-.51.62-.58.57a22.19,22.19,0,0,1-2.38,2.16l-1.27,1c-.45.3-.92.56-1.38.85a20.31,20.31,0,0,1-2.88,1.43c-.51.19-1,.33-1.54.5-.25.08-.51.17-.77.23l-.79.16a22.66,22.66,0,0,1-6.42.37,82.41,82.41,0,0,1-12.65-2.36c-2.1-.46-4.2-.92-6.32-1.21s-4.26-.52-6.4-.71c-8.56-.72-17.16-.7-25.75-.68-4.29,0-8.58,0-12.88,0-2.15,0-4.3-.12-6.43.06l-1.6.14-1.58.27a27.81,27.81,0,0,0-3.12.76,21,21,0,0,0-5.68,2.93,18.56,18.56,0,0,0-4.31,4.7,23.58,23.58,0,0,0-2.72,5.79,37,37,0,0,0-1.49,6.24c-1.33,8.5-.86,17.13-.65,25.7.06,2.15.1,4.3.1,6.45s-.11,4.29-.06,6.44c.07,4.29.45,8.57.36,12.87s-.62,8.67-2.59,12.53a18.47,18.47,0,0,1-3.89,5.11,34.75,34.75,0,0,1-5.19,3.83c-3.66,2.26-7.61,4-11.28,6.21a31.93,31.93,0,0,0-5.17,3.79,22.68,22.68,0,0,0-4,5,23,23,0,0,0-2.36,5.94,39.76,39.76,0,0,0-.87,6.35c-.09,2.15-.12,4.29-.06,6.44a54.84,54.84,0,0,0,.36,6.41c.55,4.25,1.61,8.44,1.89,12.75a20.19,20.19,0,0,1-.5,6.43,11.2,11.2,0,0,1-3.2,5.57,9.58,9.58,0,0,1-6.11,1.89,53.09,53.09,0,0,1-6.43-.53c-2.13-.27-4.27-.41-6.41-.59s-4.28-.42-6.41-.68c-8.53-1-17-2.58-25.54-3.37l-25.64-2.58-12.82-1.29-6.4-.65c-2.14-.22-4.28-.36-6.42-.55Z"/></svg>