<svg id="Layer_1" data-name="Layer 1" xmlns="http://www.w3.org/2000/svg" viewBox="0 0 600 600"><title>Mozambique</title><path d="M310.27,70.17A14.81,14.81,0,0,1,313.43,69a9.69,9.69,0,0,1,3.35-.18,9,9,0,0,1,3.21,1A11.48,11.48,0,0,1,322.66,72c.79.81,1.54,1.65,2.31,2.42a13.07,13.07,0,0,0,2.55,2,24,24,0,0,0,6,2.49,51.2,51.2,0,0,0,13,1.68,52,52,0,0,0,13-1.45,31.07,31.07,0,0,0,3.07-.91c.51-.17.87-.38,1.32-.55s.8-.46,1.18-.73a23.5,23.5,0,0,0,4.22-4.48,28.82,28.82,0,0,1,2.47-2.72,13.21,13.21,0,0,1,3.37-2.3,13.37,13.37,0,0,1,4-1.19c.67-.09,1.33-.1,2-.14s1.26,0,1.88,0c4.94.3,9.36,1.63,13.34,1.83a17.09,17.09,0,0,0,5.6-.52,33.34,33.34,0,0,0,5.64-2.14c1-.44,1.95-.92,2.95-1.42l2.89-1.54c1.93-1.06,3.83-2,5.77-3.13q5.82-3.33,11.52-6.77c1.95-1.16,3.77-2.34,6.15-3.56a30.29,30.29,0,0,1,3.75-1.59l3.08-1.17a31.78,31.78,0,0,1,7.92-2,14.74,14.74,0,0,1,5.47.41,9.08,9.08,0,0,1,1.54.53,8.69,8.69,0,0,1,1.52.77c.49.31,1,.64,1.45,1s.84.78,1.24,1.19a9.94,9.94,0,0,1,1,1.29,13.29,13.29,0,0,1,.85,1.32,15.94,15.94,0,0,1,1.13,2.62,21.21,21.21,0,0,1,.94,4.8c.13,1.45.15,2.74.16,3.89l0,3.5c0,4.67-.2,9.31-.49,13.92-.6,9.2-1.6,18.25-2.52,27.14q-.69,6.68-1.24,13.23c-.36,4.4-.59,8.64-.76,13-.18,4.68-.49,9.22-.69,13.56s-.57,8.5-.54,12.62a123.76,123.76,0,0,0,.65,12.38c.38,4.25.93,8.72,1.33,13.47a99.76,99.76,0,0,1,.29,15.08,54.12,54.12,0,0,1-3.62,16.4,49.11,49.11,0,0,1-9.21,14.55,67.85,67.85,0,0,1-12.25,10.45c-8.57,5.71-17.26,9.75-25.45,13.54l-3,1.45-2.93,1.43c-1.95,1-3.88,2-5.82,2.94-3.86,2-7.67,4.08-11.41,6.29s-7.45,4.45-11.09,6.79a57.3,57.3,0,0,0-5.37,3.68,34.75,34.75,0,0,0-4.73,4.67c-2.95,3.43-5.4,7.51-8.21,10.93a37.84,37.84,0,0,1-4.5,4.69c-.8.7-1.64,1.34-2.49,2l-2.59,1.82c-3.48,2.41-7,4.7-10.74,6.86l-2.79,1.61L334,311.49c-1.9,1-3.81,2.06-5.71,3.13s-3.8,2.13-5.69,3.22-3.94,2.41-5.09,3.07c-.35.25-.71.46-1.08.73l-1.11.87-1.19,1c-.4.33-.81.73-1.22,1.09-1.69,1.49-3.47,3.29-5.59,5.17A57.77,57.77,0,0,1,300,335.6a36.29,36.29,0,0,1-9.78,4.57l-.66.2c-.23.08-.36.1-.54.16l-1,.26-1.91.47-3.32.77a28,28,0,0,0-4.54,1.38c-3,1.17-4.34,4.78-3.36,6.58a46.32,46.32,0,0,0,3.43,8.34c.9,1.85,1.93,3.89,3,6.31l.82,1.9.74,1.77c.49,1.19.92,2.37,1.38,3.56,1.73,4.75,3.29,9.46,4.54,14.14s2.38,9.27,3.38,13.76l1.41,6.69c.46,2.26.89,4.57,1.32,7,.19,1.2.45,2.37.58,3.61a22.22,22.22,0,0,1,.13,3.75,63.79,63.79,0,0,1-1.13,7.82,51.93,51.93,0,0,0-.85,8,81.42,81.42,0,0,1-.78,8.22,64.93,64.93,0,0,1-1.63,8.46c-.37,1.43-.72,2.85-1.24,4.27l-.72,2.14c-.25.71-.57,1.4-.85,2.11a54.85,54.85,0,0,1-9.64,15.49,59.63,59.63,0,0,1-13.17,11.12,85.58,85.58,0,0,1-14.08,7c-4.66,1.87-9.25,3.4-13.74,4.73-2.25.68-4.47,1.31-6.64,1.93l-6.53,1.79c-4.24,1.15-8.21,2.27-11.78,3.59a35.68,35.68,0,0,0-9,4.55,12.26,12.26,0,0,0-4.52,5.64,12.05,12.05,0,0,0-.7,4,10.83,10.83,0,0,0,0,1.14v.59l.07,1c.08,1.4.12,2.82.06,4.28a36.67,36.67,0,0,1-1.43,9.08,27.17,27.17,0,0,1-4.54,8.91,23.58,23.58,0,0,1-1.62,1.91c-.54.56-1.09,1.12-1.63,1.61-1.1,1-2.2,1.94-3.37,2.82a31.59,31.59,0,0,1-8.25,4.52,19.89,19.89,0,0,1-5.93,1.19,15.6,15.6,0,0,1-7.66-1.77,17.59,17.59,0,0,1-5.16-4.24,20.57,20.57,0,0,1-3.07-5c-.18-.42-.35-.85-.51-1.28-.09-.21-.16-.43-.23-.65l-.19-.54-.57-1.8c-.36-1.2-.71-2.39-1-3.57-.64-2.37-1.2-4.71-1.7-7.07-.25-1.18-.49-2.36-.71-3.54l-.31-1.78-.16-.9-.14-1c-.38-2.58-.59-5.14-.71-7.64s-.1-4.94-.06-7.32.15-4.71.28-7l.27-3.33a16.31,16.31,0,0,0,.34-1.63c0-.54-.14-1.09-.24-1.64-.43-2.21-1.25-4.42-1.38-6.58a245.09,245.09,0,0,0-1.9-25.6,170.58,170.58,0,0,0-5-24.38c-.29-1-.58-1.93-.88-2.89l-.46-1.42-.12-.36a1.63,1.63,0,0,0-.11-.29l-.15-.35c-.45-1-1.26-2.71-2.23-4.74a67.8,67.8,0,0,1-3.23-7.74,39.67,39.67,0,0,1-1.43-5.45,29.29,29.29,0,0,1-.46-7c0-.63.06-1.27.12-1.9s.21-1.46.35-2.19.29-1.46.49-2.21.54-1.64.85-2.45a24.8,24.8,0,0,1,2.53-4.82,24.06,24.06,0,0,1,1.69-2.19,19.33,19.33,0,0,1,1.84-1.95c.62-.58,1.27-1.13,1.92-1.67s1.21-.87,1.83-1.29l.92-.61c.31-.19.55-.32.83-.48.54-.3,1.09-.59,1.64-.88s.94-.45,1.42-.67,1-.44,1.33-.58c.77-.32,1.61-.65,2.18-.87l1.69-.65c.57-.21.82-.34,1.22-.49.22-.09.25-.13.39-.19l.32-.15.12-.1.06,0s0,0,0,0a.17.17,0,0,0-.1,0s0,0,.08-.07l.18-.13c.24-.16.49-.37.75-.56.51-.4,1-.84,1.6-1.31a59.3,59.3,0,0,0,6.77-7.08c.56-.67,1.09-1.36,1.59-2s1-1.36,1.51-2.06c1-1.39,1.92-2.87,2.83-4.37a92.25,92.25,0,0,0,5-9.66c.77-1.7,1.48-3.44,2.17-5.22l1-2.69a18,18,0,0,1,1.33-2.63,27.45,27.45,0,0,1,4.21-5c.88-.82,1.73-1.7,2.61-2.56s1.8-1.74,2.58-2.65a22.75,22.75,0,0,0,3.93-5.74,29.94,29.94,0,0,0,1.83-6.27,59,59,0,0,0,1.08-13c-.11-2.21-.2-4.41-.41-6.61l-.6-6.61a129.59,129.59,0,0,1-.69-13.18c0-4.39.11-8.78.08-13.21V267.8l0-3.48.13-6.55c0-2.08,0-4.13,0-6s-.18-3.75-.36-5.45a34,34,0,0,0-.79-4.79l-.25-1.1-.31-1a7.35,7.35,0,0,0-.35-1c-.12-.3-.23-.7-.35-.93a15.32,15.32,0,0,0-1.71-3c-.2-.26-.37-.53-.58-.79l-.71-.78a20.73,20.73,0,0,0-1.54-1.59,45.56,45.56,0,0,0-8.23-5.75c-1.55-.91-3.14-1.84-4.8-2.74l-1.26-.67c-.42-.2-.85-.4-1.28-.62-.86-.45-1.73-.82-2.62-1.19s-1.78-.68-2.69-1-1.79-.51-2.77-.76c-2.06-.41-4.42-.66-6.89-.94a49.89,49.89,0,0,1-7.93-1.4l-1.06-.3-1.07-.4a17.62,17.62,0,0,1-2.13-1,22.09,22.09,0,0,1-2-1.3,16.14,16.14,0,0,1-1.85-1.65,13.26,13.26,0,0,1-1.6-1.85l-.7-1-.52-.89a34,34,0,0,1-1.75-3.6,39.36,39.36,0,0,1-2.3-7.36,52.59,52.59,0,0,1-1.08-7.46,26.44,26.44,0,0,1,.52-8.31,14.34,14.34,0,0,1,5.72-8.48,27,27,0,0,1,7.78-3.53l13-3.8,12.88-3.95,12.91-3.84,25.83-7.69,12.89-3.92.44-.13.6-.16c.41-.1.79-.21,1.22-.29s.85-.17,1.29-.24l1.35-.16a20.88,20.88,0,0,1,5.77.29,21.4,21.4,0,0,1,5.28,1.74,33.4,33.4,0,0,1,4.06,2.29c.57.38,1.14.77,1.66,1.14l1.29.89a23.42,23.42,0,0,0,2.11,1.28,7.41,7.41,0,0,0,1.26.53,3,3,0,0,0,.78.06,10.54,10.54,0,0,0,1.65-.19c.72-.11,1.55-.32,2.52-.55l2.37-.45c.37-.08.84-.11,1.29-.16l1.36-.1.69,0,.78,0c.53,0,1,0,1.58.09a11.89,11.89,0,0,1,1.72.25c.6.12,1.19.25,1.78.41s1.28.47,1.91.74c.31.14.62.27.93.43s.62.36.92.55a15.58,15.58,0,0,1,1.75,1.22c.52.45,1,.93,1.51,1.42a18.61,18.61,0,0,1,3.61,5.76A40.7,40.7,0,0,1,281.9,171l.55,3.33c.23,1.35.42,2.72.53,4.12a42.35,42.35,0,0,1-.15,8.56,41.57,41.57,0,0,1-1.95,8.44c-.46,1.35-1,2.67-1.57,3.94-.31.63-.59,1.27-.92,1.88l-.81,1.54a17.05,17.05,0,0,0-2.12,8.5c0,.41,0,.59,0,.83s.07.46.12.7a10.7,10.7,0,0,0,.59,1.78c.6,1.46,1.88,3.65,3,6.51.27.69.54,1.5.76,2.19s.36,1.29.52,1.91l.81,3.3a17.78,17.78,0,0,0,1.43,4.21c.14.23.27.46.43.68l.69.88c.24.29.51.54.75.82s.53.49.78.75a9.45,9.45,0,0,0,2.86,1.8c.15,0,.35.15.44.13l.17.06H289c.16.07.23,0,.42,0a4.26,4.26,0,0,0,1.88-2.05,5.69,5.69,0,0,0,.68-1.47,7.74,7.74,0,0,0,.28-1.82,21.49,21.49,0,0,0-.63-5.19.13.13,0,0,1,0-.06,1.94,1.94,0,0,0-.06-.22c0-.16-.14-.43-.21-.65l-.57-1.67a26.29,26.29,0,0,1-1.12-4.36,12.14,12.14,0,0,1-.06-3.36,9.37,9.37,0,0,1,.57-2.28,10.48,10.48,0,0,1,.66-1.29,6.27,6.27,0,0,1,.91-1.19,7.49,7.49,0,0,1,1.07-1,8.32,8.32,0,0,1,1-.68,9.48,9.48,0,0,1,2.09-.85,10.89,10.89,0,0,1,3.56-.31,20.19,20.19,0,0,1,4.11.87c.36.1.47.11.6.14a2,2,0,0,0,.33,0,1.61,1.61,0,0,0,.85-.33,5.43,5.43,0,0,0,1.21-1.23c.19-.28.39-.59.57-.91s.18-.33.25-.51.16-.31.26-.58c.37-1,.77-1.91,1.09-2.89a51.22,51.22,0,0,0,1.69-6,43.52,43.52,0,0,0-1.13-24.34c-2.83-7.74-8.44-14.61-14.46-21.18-3-3.31-6.11-6.62-9-10.16a64.14,64.14,0,0,1-7.69-11.44,45.61,45.61,0,0,1-4.44-26.77A50.63,50.63,0,0,1,275,97.45c.34-1.08.61-2.18,1-3.23l.56-1.6.65-1.57a25.45,25.45,0,0,1,3.35-5.89,22.29,22.29,0,0,1,4.89-4.66,29.83,29.83,0,0,1,6-3.1c2.1-.82,4.26-1.42,6.42-2a59.6,59.6,0,0,0,6.39-2.09c2.1-.81,4-2,6-3Zm0,.08c-1,.5-1.94,1.13-2.9,1.72a26.74,26.74,0,0,1-3,1.58,66.2,66.2,0,0,1-6.34,2.36,66.47,66.47,0,0,0-6.26,2.3,30.24,30.24,0,0,0-5.65,3.24,22.48,22.48,0,0,0-7.43,10.2l-.58,1.53-.51,1.55c-.37,1-.61,2.1-.92,3.15a48.34,48.34,0,0,0-1.13,6.45,43.32,43.32,0,0,0,4.77,25.33c4.23,7.71,10.66,14,16.9,20.46a121.25,121.25,0,0,1,9,10.13,51.44,51.44,0,0,1,7,11.75,48.23,48.23,0,0,1,2.35,26.93,55.53,55.53,0,0,1-1.61,6.62c-.31,1.09-.7,2.16-1.07,3.23a15.44,15.44,0,0,1-1.51,3.15,9.42,9.42,0,0,1-5.51,4.33,8.05,8.05,0,0,1-3.59,0,24.41,24.41,0,0,0-3.22-.64,2.68,2.68,0,0,0-3.14,3.63,18.32,18.32,0,0,0,.91,3.14c.38,1.05.83,2.06,1.16,3.21a29.66,29.66,0,0,1,1.09,6.72,13.62,13.62,0,0,1-1.48,6.66,12.07,12.07,0,0,1-4.44,5.16,9,9,0,0,1-6.68.92,15.49,15.49,0,0,1-6-3.09,21.47,21.47,0,0,1-4.58-5c-2.47-3.89-2.84-8.55-4.52-12.67-.84-2.07-2-4-3-6a16.41,16.41,0,0,1-1.73-6.5,25.94,25.94,0,0,1,2.77-13.06,32.8,32.8,0,0,0,4.11-19.45c-.2-2.23-.67-4.43-1-6.64a32.46,32.46,0,0,0-1.65-6.52,9.26,9.26,0,0,0-1.74-2.85,6.73,6.73,0,0,0-2.82-1.77,13.9,13.9,0,0,0-6.66.14,26.32,26.32,0,0,1-6.66.84,11.68,11.68,0,0,1-3.31-.58,16.43,16.43,0,0,1-3-1.41c-1.95-1.13-3.69-2.56-5.52-3.85a17.18,17.18,0,0,0-6-2.86,13.8,13.8,0,0,0-6.66.35l-13,3.4-52.12,13.61-13,3.4a21,21,0,0,0-6.19,2.57,9.83,9.83,0,0,0-2.39,2.34,10.37,10.37,0,0,0-1.38,3.05,22,22,0,0,0-.57,6.68,41.46,41.46,0,0,0,.8,6.67,32.73,32.73,0,0,0,2,6.42,17.38,17.38,0,0,0,3.59,5.64,12.07,12.07,0,0,0,5.92,3,28.89,28.89,0,0,0,6.69.61c2.24,0,4.48-.16,6.73-.23,1.12,0,2.24,0,3.36.05s2.24.13,3.35.31a54.84,54.84,0,0,1,13,3.31,45.62,45.62,0,0,1,11.7,6.55,30.56,30.56,0,0,1,8.6,10.21,40.6,40.6,0,0,1,3.6,12.91c1.09,8.94.18,17.94,0,26.9-.44,17.94-1.42,35.92-4.32,53.65-.74,4.43-1.54,8.85-2.54,13.22s-2.06,8.74-3.4,13a110,110,0,0,1-10.74,24.62,76.44,76.44,0,0,1-17.53,20.26A38.53,38.53,0,0,1,165,400a44.25,44.25,0,0,1-6.3,2.37,16.07,16.07,0,0,0-5.95,3,8.47,8.47,0,0,0-2.62,6,18.94,18.94,0,0,0,.86,6.64c.62,2.16,1.45,4.24,2.28,6.33s1.67,4.17,2.3,6.33,1.09,4.35,1.56,6.54A187.22,187.22,0,0,1,160.66,464a262.76,262.76,0,0,1,.31,26.92c-.16,4.48-.44,9-.76,13.44s-.59,9-.52,13.45a81.25,81.25,0,0,0,1.36,13.38c.38,2.21.81,4.42,1.32,6.6a53.1,53.1,0,0,0,1.84,6.47,10.05,10.05,0,0,0,4.27,5,6.88,6.88,0,0,0,3.25.73,11.55,11.55,0,0,0,3.28-.68,22.29,22.29,0,0,0,5.83-3.31,25.38,25.38,0,0,0,4.77-4.72,21,21,0,0,0,3.75-12.69c0-2.24-.34-4.47-.43-6.71a24.22,24.22,0,0,1,.65-6.68,22.27,22.27,0,0,1,7-11.26,44.46,44.46,0,0,1,11.38-7.1A134.39,134.39,0,0,1,220.53,492c4.25-1.45,8.5-2.9,12.73-4.41,8.42-3,16.84-6.39,24.35-11.34a51.24,51.24,0,0,0,10.22-8.7,40.48,40.48,0,0,0,7.11-11.35,47.55,47.55,0,0,0,3.2-13,75.42,75.42,0,0,0,.13-13.44c-.64-9-2.4-17.79-4-26.62a228.39,228.39,0,0,0-6.17-26.19c-.68-2.14-1.38-4.27-2.19-6.37s-1.69-4.16-2.52-6.24c-1.66-4.15-3.24-8.42-3.68-12.91a19.84,19.84,0,0,1,.45-6.69,20.65,20.65,0,0,1,2.69-6.14,21,21,0,0,1,10.32-8.3c4.21-1.62,8.71-2.17,13-3.45s8.05-4,11.22-7.17,6-6.67,9.2-9.82,6.67-6,10.08-8.93a362.08,362.08,0,0,1,43.53-31.65,367.51,367.51,0,0,1,47.69-24.93c8.21-3.62,16.46-7.27,23.95-12.24a55.05,55.05,0,0,0,10.26-8.64,38.18,38.18,0,0,0,7.18-11.28,42.93,42.93,0,0,0,2.86-13.09,92.77,92.77,0,0,0-.24-13.44c-.36-4.47-.89-8.93-1.28-13.41a131.26,131.26,0,0,1-.54-13.45c.08-9,1.32-17.91,2.06-26.85s1.93-17.85,3.25-26.73,2.69-17.75,3.66-26.68c.47-4.46.84-8.93,1.05-13.41.06-2.25.23-4.49.11-6.73a10,10,0,0,0-2.09-6.23A7.13,7.13,0,0,0,452,50.09a28,28,0,0,0-6.54,1.48l-3.19,1a23.87,23.87,0,0,0-3.14,1.2c-2,1-4,2.07-6,3.13q-5.91,3.24-11.9,6.32c-2,1-4,2-6.05,2.94l-3,1.46c-1,.45-2.05.9-3.09,1.33a36.27,36.27,0,0,1-6.41,2.06,21.34,21.34,0,0,1-6.72.3c-4.48-.49-8.77-2-13.24-2.41a12.79,12.79,0,0,0-6.57.79,11.4,11.4,0,0,0-2.81,1.8A29.58,29.58,0,0,0,371.05,74a24.62,24.62,0,0,1-4.82,4.69,18.39,18.39,0,0,1-6.32,2.25,55.29,55.29,0,0,1-13.4,1,52.35,52.35,0,0,1-13.27-2.16A24.87,24.87,0,0,1,327.12,77a12.68,12.68,0,0,1-2.55-2.19c-.76-.83-1.43-1.73-2.16-2.58A10.84,10.84,0,0,0,319.92,70a8,8,0,0,0-3.14-1.12,10.4,10.4,0,0,0-6.43,1.48Z"/></svg>