<svg id="Layer_1" data-name="Layer 1" xmlns="http://www.w3.org/2000/svg" viewBox="0 0 600 600"><title>Niger</title><path d="M181.42,349c0-3.95,0-7.9-.25-11.85s-.58-7.92-.9-11.88c-.58-7.92-1.28-15.84-2-23.7-.4-3.93-.78-7.84-1.21-11.73s-.95-7.76-1.54-11.59a82,82,0,0,1-1.13-12.77,39.66,39.66,0,0,1,2.55-14.34l.36-.92.45-.92c.31-.62.61-1.24.94-1.86a26.5,26.5,0,0,1,2.51-3.6,25,25,0,0,1,6.93-5.84,38.79,38.79,0,0,1,7.43-3.22c2.36-.76,4.44-1.27,6.37-1.81s3.62-1,5.07-1.55l2.5-.92,2.6-1c3.44-1.38,6.78-2.83,9.93-4.44a92.14,92.14,0,0,0,9-5.12c1.41-.91,2.75-1.88,4-2.86s2.52-2,3.89-3.15c2.7-2.25,5.65-4.89,9.09-7.66,1.73-1.39,3.58-2.81,5.61-4.21s4.11-2.62,6.13-3.77c8.1-4.55,15.43-7.7,21-10.87S292,180,298.3,175.82c3.18-2,6.52-4.2,9.93-6.15s6.9-3.83,10.39-5.71,7-3.7,10.43-5.67c1.72-1,3.45-1.94,5.15-2.94s3.38-2,5-3.11c6.6-4.29,13-8.82,18.64-14.41,1.41-1.39,2.78-2.83,4.13-4.3s2.49-2.88,4.35-4.71a97,97,0,0,1,10.05-8.88,102.45,102.45,0,0,1,9.75-6.5l4.71-2.82c1.76-1,3.6-2.09,5.48-3.06,1-.49,1.91-1,2.88-1.46l3-1.38c2-.92,4-1.81,6.2-2.59s4.32-1.58,6.52-2.29l3.42-1c1.12-.33,2.33-.6,3.49-.9a90.25,90.25,0,0,1,14.76-2.29,61.71,61.71,0,0,1,15.7,1,48,48,0,0,1,7.64,2.08,64.71,64.71,0,0,1,6.9,2.93c2.17,1.05,4.23,2.17,6.17,3.31s3.83,2.27,5.62,3.4c7.08,4.58,11.19,6.48,16.29,6.9a94,94,0,0,0,10.05.12l3,0,1.52,0h1c.39,0,.77,0,1.15,0a40.55,40.55,0,0,1,9.39,1.52,33.34,33.34,0,0,1,9.66,4.56,30.84,30.84,0,0,1,4.51,3.83,29.15,29.15,0,0,1,2.15,2.53c.32.43.64.87.94,1.3l.81,1.29a36.87,36.87,0,0,1,4,9.64,61.48,61.48,0,0,1,1.55,8.11c.62,5,.7,9.4.84,13.45s.23,7.74.61,10.42c.09.68.21,1.22.31,1.67.06.2.11.37.16.51s0,0,.22.62c.54,1.81,1.09,3.53,1.64,5.13a77.9,77.9,0,0,0,3.39,8.35c.58,1.14,1.14,2.14,1.67,3a5.68,5.68,0,0,0,.4.6l.19.29.1.14a9.75,9.75,0,0,0,.77,1l.7.77c.32.34.56.61.93,1s.65.8,1,1.33c.19.26.37.5.55.78l.58.91c.38.55.8,1.35,1.19,2s.82,1.57,1.21,2.39a48.36,48.36,0,0,1,2.25,5.68,30.87,30.87,0,0,1,1.38,6.29,55.78,55.78,0,0,1,.39,6.07,36.36,36.36,0,0,1-1.52,10,65.36,65.36,0,0,1-2.58,7.08l-2.23,5.35a37.07,37.07,0,0,0-1.4,3.93l-.12.4-.06.32a3.55,3.55,0,0,0-.13.61l-.1.55-.1,1.23c-.26,3.3-.28,6.82-.22,10.52s.24,7.61.15,11.71-.15,8.37-.51,12.81a117.92,117.92,0,0,1-5.1,26,138.65,138.65,0,0,1-10.08,23.75,167.46,167.46,0,0,1-13.68,21.19l-3.83,4.91c-1.23,1.64-2.4,3.31-3.58,5-2.38,3.33-4.86,6.6-7.41,9.82a230.86,230.86,0,0,1-16.35,18.56c-2.92,2.94-5.89,5.86-9.06,8.58l-2.43,2c-.4.33-1,.42-1.31.78a13.14,13.14,0,0,0-.94,1.18c-1.17,1.63-2,3.48-3.15,4.81a32.46,32.46,0,0,0-5.12,7.12,14,14,0,0,0-.62,1.45,4.88,4.88,0,0,0-.2.66c0,.1-.09.25-.07.29l0,.13c.05.32,0,.77.09,2s.19,3,.19,5.77l0,1.05-.09,1.29-.12,1.3c-.07.5-.17,1-.26,1.56s-.2,1-.33,1.57-.36,1.22-.56,1.82-.4,1.18-.69,1.82-.63,1.27-1,1.9a22.45,22.45,0,0,1-5.42,6.42c-.51.41-1.07.88-1.55,1.19s-1,.61-1.46.91a22.67,22.67,0,0,1-2.85,1.49c-.88.38-1.76.75-2.66,1.09l-1.83.63-1.79.59-1.8.51a117.88,117.88,0,0,1-27.62,3.67c-4.33.14-8.51.14-12.53.14l-11.55,0c-7.33.09-13.89.34-19.09,1.3-.66.1-1.25.25-1.89.36s-1.17.31-1.77.45l-1.66.48c-.53.18-1,.38-1.56.55s-1,.43-1.49.62-1,.47-1.43.7-.9.55-1.4.79-1.08.53-1.83.83a54,54,0,0,1-6.37,2.07,73,73,0,0,1-9.08,1.79c-1.61.2-3.35.36-4.89.42l-1.17,0c-.38,0-.76.05-1.14,0-.74,0-1.47,0-2.19,0a70.8,70.8,0,0,1-8-.57,55.7,55.7,0,0,1-13.93-4.12,41.89,41.89,0,0,1-6.41-3.38c-2-1.25-3.69-2.51-5.35-3.76-3.3-2.49-6.18-4.88-8.9-6.76a11.06,11.06,0,0,0-3.88-1.79,7.22,7.22,0,0,0-3-.09c-1.94.3-4.41,1.47-7.35,3.32-1.48.91-3.05,2-4.81,3.09a58.23,58.23,0,0,1-6.06,3.43,27.56,27.56,0,0,1-8.63,2.61,22.47,22.47,0,0,1-10.85-1.38c-.85-.33-1.62-.72-2.43-1.11s-1.45-.85-2.17-1.3a12.1,12.1,0,0,1-1.11-.78l-1.14-.9a26.12,26.12,0,0,1-2-1.94,32.29,32.29,0,0,1-5.11-7.67c-1.13-2.26-1.95-4.2-2.68-5.62l-.51-1-.23-.44-.17-.39a3.51,3.51,0,0,1-.25-.7,4.45,4.45,0,0,1-.19-.65c-.07-.22-.06-.49-.14-.72s-.15-.45-.23-.69a2.51,2.51,0,0,0-.28-.72l-.34-.75c-.23-.52-.63-1-.94-1.53s-.82-1-1.34-1.54a22.41,22.41,0,0,0-8.41-5,32.43,32.43,0,0,0-10.91-1.87c-1.88,0-3.81.26-5.69.45-.88.13-1.77.22-2.64.36s-1.74.31-2.59.49a33.46,33.46,0,0,0-9.47,3.56c-5.79,3.26-10.23,8.53-13.79,14.8s-6.26,13.44-9.08,20.79c-1.4,3.68-2.82,7.44-4.37,11.22-.74,1.86-1.72,4-2.18,5.25-.59,1.59-1.2,3.48-2,5.56a32,32,0,0,1-3.53,7l-.33.49-.43.52-.88,1c-.31.34-.74.71-1.11,1.05a10.44,10.44,0,0,1-1.27,1,13.87,13.87,0,0,1-6.91,2.46,9.33,9.33,0,0,1-1.75,0c-.57,0-1.14-.09-1.7-.16a15.39,15.39,0,0,1-2-.5,7.46,7.46,0,0,1-.89-.32l-.79-.36a19.17,19.17,0,0,1-4.43-3c-.59-.5-1-.93-1.5-1.41s-.89-.9-1.26-1.31c-.81-.86-1.5-1.66-2.16-2.42s-1.28-1.44-1.79-2a7.25,7.25,0,0,0-1.1-1l-.8-.57-1.07-.72c-.37-.26-.63-.4-.93-.59a2.61,2.61,0,0,0-.32-.17L126,485H126l0,0,.15.06.22.07a4.31,4.31,0,0,0,.73.14,6.35,6.35,0,0,0,.86,0l.38-.05a2.28,2.28,0,0,1,.24,0l.2-.05c.07,0,0,0,0,0l-.41.22-2.27,1.29c-.77.45-2.2,1.22-2,1.12a11.17,11.17,0,0,0-1.14,1l-1.13,1.05a20.44,20.44,0,0,1-2.07,1.68,8.15,8.15,0,0,1-.86.55,10.05,10.05,0,0,1-1.11.59,11.85,11.85,0,0,1-3.3,1,11.37,11.37,0,0,1-2.19.09,11.29,11.29,0,0,1-4.11-1,11.51,11.51,0,0,1-1.51-.83,14,14,0,0,1-3.28-3,19.8,19.8,0,0,1-1.54-2.23c-.41-.67-.73-1.28-1-1.88l-.45-.9c-.22-.5-.42-1-.61-1.51a18,18,0,0,1-.81-3,23.28,23.28,0,0,1-.28-2.8,24.69,24.69,0,0,1,1.18-8l.48-1.42.48-1.23.42-1.06.38-.88c.08-.21.2-.47.28-.65a3.61,3.61,0,0,1,.23-.42l.12-.15a.6.6,0,0,0,.08-.08l.06,0s0,0,0-.12l-.06-.38a2.59,2.59,0,0,0-.79-1.77,5.1,5.1,0,0,0-2.54-.54,22,22,0,0,0-2.21.09c-.83.09-1.68.21-2.62.35-1.85.27-3.92.6-6.22.88a29.41,29.41,0,0,1-8-.1,19.79,19.79,0,0,1-4.76-1.4L74.06,459c-.38-.2-.71-.41-1.07-.63a17.73,17.73,0,0,1-2.06-1.39,20.21,20.21,0,0,1-6.25-8.08,30.88,30.88,0,0,1-2.2-8.18c-.34-2.43-.43-4.6-.56-6.42s-.25-3.37-.43-4.43a4.87,4.87,0,0,0-.13-.68,2.3,2.3,0,0,0-.15-.57,10.92,10.92,0,0,0-.62-1.53,40.83,40.83,0,0,0-2.31-3.9c-.93-1.42-2-2.88-3.13-4.41l-3.49-4.81q-1.8-2.51-3.6-5.39A42.16,42.16,0,0,1,44.71,402a20.64,20.64,0,0,1-1.62-9.14,14.86,14.86,0,0,1,1.38-5.28,21.7,21.7,0,0,1,1.34-2.26c.5-.64,1-1.29,1.56-1.86A21.9,21.9,0,0,1,54,379a29.34,29.34,0,0,1,3.27-1.31l1.64-.55,1.64-.42a47,47,0,0,1,6.48-1.12c1.06-.12,2.1-.18,3.15-.26l3.11-.07c4.1,0,8.07.13,12-.11a55,55,0,0,0,11.27-1.77,99.41,99.41,0,0,1,23.92-3.13c8-.27,15.84,0,23.67-.52a114.19,114.19,0,0,0,11.69-1.31,61.55,61.55,0,0,0,11.37-2.89,27.47,27.47,0,0,0,10-5.93,15.26,15.26,0,0,0,3.26-4.83,14.58,14.58,0,0,0,1.08-5.77Zm.09,0a20.38,20.38,0,0,1-.63,5.94,15.82,15.82,0,0,1-2.88,5.45,24.36,24.36,0,0,1-4.54,4.3,32.77,32.77,0,0,1-5.34,3.24c-7.49,3.69-15.69,4.9-23.67,5.63s-16,.29-23.81.5-15.57.68-23,2.9a71.14,71.14,0,0,1-11.93,2.18c-4,.44-7.9.81-11.77,1.34A58.25,58.25,0,0,0,62.73,383l-1.35.47-1.29.56a23.76,23.76,0,0,0-2.52,1.27,15.62,15.62,0,0,0-4.26,3.27A6.64,6.64,0,0,0,51.56,393a10.9,10.9,0,0,0,1.34,5,53.62,53.62,0,0,0,6.61,9.35c2.51,3,5.14,6,7.55,9.25a41.27,41.27,0,0,1,3.33,5.15,19.18,19.18,0,0,1,2.15,5.95c.69,4.16.37,8.14.66,12a23,23,0,0,0,1,5.54,10.58,10.58,0,0,0,2.94,4.58,9.21,9.21,0,0,0,1.08.88c.19.14.37.29.56.42l.6.35a11.82,11.82,0,0,0,2.61,1,21.57,21.57,0,0,0,5.75.59c3.92,0,7.87-.72,11.85-.4a12.85,12.85,0,0,1,5.67,1.69,10.34,10.34,0,0,1,3.83,4.45,10.59,10.59,0,0,1,1,5.79,50.24,50.24,0,0,1-1.08,5.83,26.25,26.25,0,0,0-.8,5.85,9.9,9.9,0,0,0,.52,2.91,15.54,15.54,0,0,0,1.29,2.66,7.08,7.08,0,0,0,1.89,2.25,2.07,2.07,0,0,0,1.41.35,3.38,3.38,0,0,0,1.34-.6c1.59-1.16,2.88-2.71,4.56-3.77.83-.54,1.72-1,2.58-1.45s1.73-.95,2.61-1.4a8.39,8.39,0,0,1,2.79-.95,5.15,5.15,0,0,1,2.84.67,35.18,35.18,0,0,1,4.91,3.31,34.47,34.47,0,0,1,4,4.35,42.29,42.29,0,0,0,4,4.39,10.08,10.08,0,0,0,2.39,1.72,5.42,5.42,0,0,0,1.4.49,8,8,0,0,0,1.47.07,4.79,4.79,0,0,0,1.45-.29,5.62,5.62,0,0,0,1.32-.66,10.15,10.15,0,0,0,1.13-.95,14.58,14.58,0,0,0,.94-1.14,25.88,25.88,0,0,0,2.72-5.25l2.16-5.52c.75-1.83,1.65-3.59,2.44-5.4,1.63-3.6,3.15-7.24,4.68-10.89,3.08-7.26,6.14-14.59,10.27-21.34a53.71,53.71,0,0,1,7.17-9.4,37,37,0,0,1,9.42-7.11A39.39,39.39,0,0,1,203,419.52a74,74,0,0,1,11.8-.93,79.28,79.28,0,0,1,11.83.6A39.46,39.46,0,0,1,238,422.33a21.74,21.74,0,0,1,9,7.47c2.32,3.24,3.36,7.14,4.95,10.74a20.31,20.31,0,0,0,3,5.07c.31.39.68.71,1,1.07s.75.65,1.16.92.81.57,1.24.81.87.47,1.32.67a12,12,0,0,0,5.79.95,19.15,19.15,0,0,0,5.71-1.47c3.66-1.52,7-3.63,10.54-5.41s7.27-3.33,11.25-3.4a15.3,15.3,0,0,1,5.8,1,28.48,28.48,0,0,1,5.22,2.79c3.3,2.17,6.3,4.76,9.38,7.23a39.72,39.72,0,0,0,10,6.31,33,33,0,0,0,11.5,2.6,27.07,27.07,0,0,0,5.89-.46,20.73,20.73,0,0,0,5.56-2c3.51-1.87,6.38-4.65,9.4-7.18a41.38,41.38,0,0,1,9.93-6.39A48.07,48.07,0,0,1,377,440.22c7.79-1.41,15.76-1.29,23.63-.85s15.76,1.27,23.65,1.56,15.86.08,23.58-1.69l1.44-.34,1.42-.4,1.43-.41,1.38-.53a9.09,9.09,0,0,0,4.5-3.67,12.32,12.32,0,0,0,1.37-5.7c.1-2,.05-3.95.18-5.92a19.71,19.71,0,0,1,1.14-5.79,24,24,0,0,1,2.77-5.22,48.23,48.23,0,0,1,8-8.68c3-2.61,6.11-5,9.12-7.57s6-5.19,8.81-7.92a230.83,230.83,0,0,0,30.5-36.19,158.37,158.37,0,0,0,11.7-20.59,128.34,128.34,0,0,0,8.05-22.26A106.43,106.43,0,0,0,543,284.63c.2-7.9-.48-15.79-.75-23.68-.13-3.95-.18-7.91.06-11.85A33.81,33.81,0,0,1,545,237.61c1.4-3.69,3.07-7.29,4.12-11.1a21.37,21.37,0,0,0,.85-5.84,13.31,13.31,0,0,0-1.27-5.73c-1.67-3.64-4.81-6.23-7.46-9.13a36.17,36.17,0,0,1-6.38-9.93A79.14,79.14,0,0,1,531,184.7c-1-3.82-2.17-7.63-2.32-11.6-.45-7.9.38-15.81-.24-23.7a41.26,41.26,0,0,0-.86-5.85,20.28,20.28,0,0,0-2-5.54,15.89,15.89,0,0,0-9.18-7,24.38,24.38,0,0,0-5.8-1.11c-2-.11-3.95-.12-5.92-.18a93.36,93.36,0,0,1-11.82-.79,36.89,36.89,0,0,1-5.77-1.35,40.16,40.16,0,0,1-5.47-2.27,83.5,83.5,0,0,1-10.08-6.22,87.69,87.69,0,0,0-10.2-6,40,40,0,0,0-11.2-3.72,39.5,39.5,0,0,0-11.79-.25,56.69,56.69,0,0,0-11.48,2.84,82.84,82.84,0,0,0-10.82,4.8c-3.5,1.83-6.91,3.82-10.26,5.91s-6.63,4.3-10,6.37-6.78,4.05-10.16,6.1-6.73,4.14-9.93,6.46-6.27,4.8-9.42,7.19q-9.43,7.19-18.92,14.28-19,14.19-38.29,28a161.17,161.17,0,0,1-20.13,12.5c-7.06,3.57-14.53,6.23-21.59,9.78a77.15,77.15,0,0,0-10.14,6.09c-3.24,2.26-6.37,4.66-9.62,6.92a90.33,90.33,0,0,1-21,10.87c-3.7,1.39-7.48,2.57-11.29,3.63-1.9.52-3.81,1-5.74,1.48s-3.88.78-5.83,1.1c-3.88.65-7.83,1.27-11.38,3a17.22,17.22,0,0,0-8,8.35,32.14,32.14,0,0,0-2.87,11.38,79.06,79.06,0,0,0,.09,11.82c.48,7.89.57,15.8.51,23.7s-.27,15.81-.42,23.71c-.07,3.95-.14,7.9-.16,11.85s0,7.9.18,11.85Z"/></svg>