<svg id="Layer_1" data-name="Layer 1" xmlns="http://www.w3.org/2000/svg" viewBox="0 0 600 600"><title>Nigeria</title><path d="M52.47,300.21a8.54,8.54,0,0,1,2.45-1.95c.91-.51,1.89-.89,2.8-1.4A7.48,7.48,0,0,0,60.16,295a6.49,6.49,0,0,0,1.25-2.75c.37-2,.11-4.06.45-6.23a19.06,19.06,0,0,1,2.24-6.09,53,53,0,0,1,7.74-10.13c2.89-3.08,5.92-6,8.63-9a53.75,53.75,0,0,0,3.79-4.7l1.6-2.49c.5-.85.93-1.74,1.4-2.6a38,38,0,0,0,3.44-11.21,40.74,40.74,0,0,0-3-22.59,25.82,25.82,0,0,0-1.27-2.52,22.36,22.36,0,0,0-1.45-2.39c-.55-.77-1-1.52-1.62-2.3l-1.88-2.38c-1.3-1.63-2.68-3.35-4-5.31a26.17,26.17,0,0,1-3.38-6.91,16.7,16.7,0,0,1-.19-9,31.65,31.65,0,0,1,3.1-7,26,26,0,0,0,1.15-2.35c.13-.35.23-.7.35-1.05l.19-.51.12-.57a23.72,23.72,0,0,0,.61-4.92c.14-3.61-.24-7.65-.25-12.25a42.24,42.24,0,0,1,.58-7.38,32.32,32.32,0,0,1,1-4c.23-.68.51-1.36.78-2a14.17,14.17,0,0,1,1-2c2.78-5.32,7.22-8.95,10.92-11.61s7-4.73,9-6.81a10,10,0,0,0,1.79-2.76,29,29,0,0,0,1.43-4.3c.48-1.79,1-3.91,1.75-6.36a32.44,32.44,0,0,1,3.7-7.93,19.27,19.27,0,0,1,1.44-2,20.06,20.06,0,0,1,1.73-2,25.65,25.65,0,0,1,4.09-3.32,33.42,33.42,0,0,1,8.29-3.78c.66-.21,1.28-.39,1.93-.55l1.84-.4c1.22-.26,2.36-.46,3.46-.65,2.17-.36,4.23-.7,6.39-1a150,150,0,0,1,26.82-2,77.24,77.24,0,0,1,14.41,1.66c1.22.3,2.44.5,3.67.89l3.67,1.13A56.78,56.78,0,0,1,196,93.7l1.77.92c.58.34,1.14.71,1.71,1.07l1.69,1.1A14.5,14.5,0,0,1,202.77,98l3.17,2.54c1,.88,1.95,1.79,2.85,2.69,3.55,3.6,6.27,7.09,8.76,9.91,1.24,1.41,2.42,2.66,3.54,3.71.56.51,1.14,1,1.65,1.42a8.49,8.49,0,0,0,1.09.69,7,7,0,0,0,2.11.75,10.27,10.27,0,0,0,2.71,0,22.89,22.89,0,0,0,7.6-2.66l2.59-1.4c1-.57,2.08-1.1,3.13-1.63,2.12-1,4.31-2,6.55-2.95A69.86,69.86,0,0,1,263,106.77a49.29,49.29,0,0,1,16.77-.11c1.46.22,2.93.66,4.39,1s2.9,1,4.32,1.54,2.81,1.28,4.14,2,2.55,1.54,3.66,2.32c2.24,1.57,4.08,3.09,5.7,4.39s3,2.38,4.14,3.18a37.56,37.56,0,0,0,7.75,3.84,44.3,44.3,0,0,0,9.18,1.86,56.48,56.48,0,0,0,10.27-.26c1.78-.26,3.54-.52,5.34-.93s3.59-.84,5.39-1.33a72.65,72.65,0,0,0,10.76-3.93c.88-.39,1.77-.82,2.65-1.27s1.71-.87,2.7-1.39c1.89-1,3.81-2,5.75-3s3.92-2.07,5.93-3.07l3.07-1.51,3.18-1.41a79.15,79.15,0,0,1,13.71-4.46,98.11,98.11,0,0,1,15.17-2,89.62,89.62,0,0,1,15.69.81c1.29.21,2.58.38,3.86.63s2.54.56,3.8.85l1.85.43,1.12.29,1.1.32,1,.26c1.39.37,2.52.56,3.55.79s1.75.3,2.29.33c.33.08.53,0,.82.09a7.75,7.75,0,0,0,.8-.06,6.63,6.63,0,0,0,2.16-.7c.46-.29.9-.45,1.44-.83a7.51,7.51,0,0,1,.84-.46c.3-.14.63-.35,1-.5s.7-.3,1.06-.47.74-.37,1.13-.56.74-.32,1.19-.59.89-.54,1.33-.84a35.29,35.29,0,0,0,5.42-4.52,64.41,64.41,0,0,1,6.37-5.4A35.7,35.7,0,0,1,474.14,87a27.65,27.65,0,0,1,6.56-1.57,25,25,0,0,1,7.37.29,25.52,25.52,0,0,1,6.69,2.2,29.78,29.78,0,0,1,5.2,3.23,31.86,31.86,0,0,1,2.62,2.33,26.76,26.76,0,0,1,2.28,2.64,28.89,28.89,0,0,1,3.24,5.47,47.54,47.54,0,0,1,2.7,8.21c.46,1.92.86,3.07.93,3.36a1.41,1.41,0,0,0,.37.78,11.73,11.73,0,0,0,2.63,2.21c1.43,1,3.41,2.2,5.74,3.9.58.43,1.16.87,1.78,1.38s1.21,1,1.83,1.59l.45.42.59.6c.4.41.79.82,1.17,1.25a29.05,29.05,0,0,1,2.1,2.79,26.77,26.77,0,0,1,1.62,3q.33.74.63,1.5c.2.49.33,1,.49,1.42.33,1,.49,1.8.7,2.66.1.45.14.78.22,1.17s.14.79.18,1.09c.36,2.7.44,4.45.54,5.21,0,.17,0,.39,0,.46a.86.86,0,0,1,0,.16.25.25,0,0,1,0,.08c0,.08,0,.08,0,.14s0,.09.08.18l.14.25a7.42,7.42,0,0,0,.67,1.05c.15.18.34.35.49.53s.16.19.26.29l.34.28c.25.19.41.39.73.6l.87.63c.33.22.71.45,1.06.67s.77.47,1.2.71l2.78,1.58c1.08.64,2.1,1.22,3.29,2a42.49,42.49,0,0,1,3.54,2.55,30.26,30.26,0,0,1,3.46,3.35,31.67,31.67,0,0,1,3,3.94c.4.7.77,1.41,1.14,2.12l.54,1.07c.17.35.29.71.43,1.06l.79,2.14c.28.72.4,1.38.61,2.07a19.22,19.22,0,0,1,.49,2.06c.13.69.29,1.37.39,2.06a40.28,40.28,0,0,1,.36,8.27,41.6,41.6,0,0,1-1.36,8.18,34.42,34.42,0,0,1-3.28,7.83,32.34,32.34,0,0,1-5.36,6.93l-1.64,1.51-1.78,1.35a33.81,33.81,0,0,1-3.52,2.21,52.61,52.61,0,0,1-6.71,3.16L529.84,218a42.66,42.66,0,0,0-4.68,2.3l-.95.61-.85.61c-.51.48-1,.93-1.57,1.37a23.64,23.64,0,0,0-4.87,7.25c-.3.77-.62,1.51-.95,2.27l-.87,2.41-.78,2.56-.74,2.68-.77,2.75c-.12.46-.51.89-.57,1.38s0,1,0,1.51c.09,2.07.57,4.24.32,6.34-.61,4.14-1.28,8.52-2.39,13.12-.59,2.29-1.13,4.62-1.8,6.88l-2.18,6.69a183.15,183.15,0,0,1-11.32,24.83c-4.2,7.79-8.6,15.2-12.82,22.31s-8.29,13.93-11.89,20.59A137,137,0,0,0,461.19,366c-.14.4-.33.82-.44,1.19l-.38,1.12-.39,1.22-.4,1.3L458,376.53l-1.81,6.16a27.57,27.57,0,0,1-2.44,6.36,24.94,24.94,0,0,1-4.78,5.84c-1,.9-2,1.81-3.06,2.68l-3.19,2.59a63.34,63.34,0,0,0-5.81,5.27c-1.73,1.83-3.24,3.86-5,5.74a47.44,47.44,0,0,1-5.87,5.48,36.89,36.89,0,0,1-7.21,4.52c-.65.33-1.33.59-2,.88l-1,.42-1,.33c-.72.22-1.35.46-2.15.63s-1.56.34-2.35.47a27.2,27.2,0,0,1-9.56-.22,25.73,25.73,0,0,1-9.11-3.7,25.38,25.38,0,0,1-2.08-1.49c-.65-.55-1.31-1.12-1.86-1.67a31.67,31.67,0,0,1-2.92-3.23c-.84-1-1.5-1.94-2.13-2.8s-1.17-1.59-1.64-2.17a7.85,7.85,0,0,0-2-2,5.86,5.86,0,0,0-1.44-.39,15.73,15.73,0,0,0-3.42-.13,44.47,44.47,0,0,0-4.91.58l-2.87.5-1.57.28-.36.07-.21.05-.42.09a14.21,14.21,0,0,0-3.26,1.14,24.53,24.53,0,0,0-3.49,2.2c-2.5,1.85-5.41,4.69-9,7.72l-1.37,1.14-1.45,1.15-1.36,1-1.31,1-5,3.7a81.51,81.51,0,0,0-8.32,6.92,34.2,34.2,0,0,0-3,3.51,18,18,0,0,0-2.06,3.68,30.9,30.9,0,0,0-2.35,9.26c-.39,3.58-.39,7.53-.5,11.82,0,1.1-.07,2.15-.14,3.29s-.14,2.3-.26,3.44-.31,2.41-.49,3.61c-.07.6-.21,1.22-.35,1.86l-.42,1.9A48.07,48.07,0,0,1,312.45,492c-1,1.32-1.91,2.63-3,3.89s-2.28,2.43-3.45,3.61a45.44,45.44,0,0,1-7.92,5.93c-.69.43-1.38.82-2.08,1.17s-1.4.72-2.1,1.05c-1.4.59-2.82,1.24-4.2,1.69a61.72,61.72,0,0,1-8.13,2.29,88,88,0,0,1-14.75,1.74c-2.31.11-4.5.15-6.65.18s-4.17.08-6.26.07l-12.53,0-25.08-.07-12.75-.05a133.22,133.22,0,0,1-13.7-.79,65,65,0,0,1-14.47-3.1,52.24,52.24,0,0,1-14-7.45,41,41,0,0,1-10.3-11.88A64.35,64.35,0,0,1,145.38,477c-2.69-8.77-4-17.17-5.76-25s-3.92-15.16-7.78-21a28.59,28.59,0,0,0-7.12-7.47,36.83,36.83,0,0,0-9.71-4.94,64.1,64.1,0,0,0-11.3-2.74c-1.95-.32-3.95-.54-5.95-.75L96.25,415c-.49,0-1-.1-1.43-.11a24.12,24.12,0,0,0-2.69,0c-3.79.22-7.9.93-12.09,1.5a74.25,74.25,0,0,1-13.07.92,27.2,27.2,0,0,1-6.92-1.11,17.1,17.1,0,0,1-6.47-3.61c-.44-.45-.89-.89-1.3-1.37a15.44,15.44,0,0,1-1.1-1.49,20,20,0,0,1-1.66-3.26c-.2-.56-.36-1.12-.53-1.69l-.25-.84-.15-.84-.31-1.69-.15-1.67a58,58,0,0,1,.68-12.9c.6-4.19,1.41-8.29,2.09-12.38.33-2,.65-4.08.79-6.1s.24-4.14.34-6.21q.28-6.24.42-12.49c.2-8.33.24-16.67,0-25a61.56,61.56,0,0,0-.26-6.23c-.26-2.06-.77-4.09-1.17-6.13a23.67,23.67,0,0,1-.6-6.22,10.86,10.86,0,0,1,2.07-5.82Zm.07.06a8.4,8.4,0,0,0-1.31,2.81,12,12,0,0,0-.47,3,23.73,23.73,0,0,0,.86,6.08c.5,2,1.11,4,1.49,6.14a60.39,60.39,0,0,1,.54,6.31c.12,2.09.27,4.17.35,6.25l.2,6.26c.15,4.17.12,8.35.14,12.52s0,8.36-.13,12.53c-.05,2.1-.08,4.16-.2,6.29s-.38,4.23-.65,6.32c-.58,4.15-1.25,8.25-1.72,12.36a55.15,55.15,0,0,0-.33,12.23l.17,1.5.31,1.46.16.73.23.7c.16.46.3.93.47,1.39a13.06,13.06,0,0,0,3.3,4.68,13.3,13.3,0,0,0,5.12,2.64,22.9,22.9,0,0,0,5.93.75A69.17,69.17,0,0,0,79.25,412c4.09-.7,8.18-1.58,12.41-2a28.52,28.52,0,0,1,3.21-.14c1.08,0,2.11.08,3.16.13,2.1.14,4.19.29,6.28.55A69.87,69.87,0,0,1,116.68,413a43.44,43.44,0,0,1,11.51,5.26,35.11,35.11,0,0,1,9.13,8.73,48.52,48.52,0,0,1,6,11.1,101.74,101.74,0,0,1,3.78,12c2.12,8.08,3.7,16.28,6.4,24.16a56.79,56.79,0,0,0,5.21,11.31,32.73,32.73,0,0,0,19.49,14.68,54,54,0,0,0,12.32,2c8.34.46,16.67-.36,25-.91l24.95-1.75,12.48-.88c4.15-.31,8.32-.55,12.47-.94a85.85,85.85,0,0,0,12.34-1.94,47.86,47.86,0,0,0,6-1.87c1-.35,1.91-.83,2.87-1.25s1.86-.94,2.72-1.52a28.24,28.24,0,0,0,8.91-8.63,43.06,43.06,0,0,0,5.12-11.36,120.65,120.65,0,0,0,2.88-12.16c.82-4.09,1.63-8.18,2.68-12.22a54.58,54.58,0,0,1,4.42-11.66,38.54,38.54,0,0,1,7.54-9.91c6-5.86,13.19-10.17,19.64-15.45,3.21-2.66,6.22-5.56,9.58-8a35.24,35.24,0,0,1,5.3-3.29,26.21,26.21,0,0,1,5.89-2.05,90.72,90.72,0,0,1,12.37-1.75,25.05,25.05,0,0,1,6.23.42,15.32,15.32,0,0,1,5.72,2.41c3.42,2.46,5.49,6.24,8,9.54a21.15,21.15,0,0,0,4.33,4.48,17.62,17.62,0,0,0,5.58,2.75,17.93,17.93,0,0,0,6.18.7,21.43,21.43,0,0,0,6.06-1.43,24.61,24.61,0,0,0,9.85-7.48A47.37,47.37,0,0,0,432,395.27a103.52,103.52,0,0,0,4.39-11.7c1.25-4,2.35-8,3.45-12s2.16-8.06,3.65-11.95a130.51,130.51,0,0,1,10.86-22.49c4.24-7.18,8.91-14.1,13.63-21,9.44-13.71,19.13-27.42,25.79-42.76a122.35,122.35,0,0,0,7.17-23.91c.89-4.08,1.78-8.15,2.89-12.17a61.67,61.67,0,0,1,4.39-11.69,31.73,31.73,0,0,1,7.6-9.84,35.57,35.57,0,0,1,10.89-6c3.89-1.51,7.87-2.81,11.51-4.86a22.7,22.7,0,0,0,2.63-1.7l1.23-1,1.14-1.08a21.94,21.94,0,0,0,3.71-5,26.81,26.81,0,0,0,3.1-12A28.11,28.11,0,0,0,547.61,172c-.11-.24-.2-.48-.32-.71l-.39-.68-.79-1.35a20.79,20.79,0,0,0-2-2.41,21.23,21.23,0,0,0-4.94-3.79c-3.59-2.12-7.57-3.53-11-5.91a24,24,0,0,1-2.48-1.9,20,20,0,0,1-2.13-2.28,13.9,13.9,0,0,1-2.85-5.51c-.57-2-.8-4.09-1.19-6.13a15.56,15.56,0,0,0-2.15-5.83,17.44,17.44,0,0,0-4.59-4.18c-1.73-1.18-3.55-2.2-5.33-3.28a31.32,31.32,0,0,1-5.06-3.66,17,17,0,0,1-3.73-5c-1.8-3.79-2.2-8.05-3.89-11.87a13.1,13.1,0,0,0-9.35-7.56,11.27,11.27,0,0,0-6.13.64,20.4,20.4,0,0,0-5.36,3.16,67.59,67.59,0,0,0-8.78,8.88,58.45,58.45,0,0,1-9,8.7,29.65,29.65,0,0,1-5.37,3.18,27.78,27.78,0,0,1-2.91,1.13,29.83,29.83,0,0,1-3,.73,37.17,37.17,0,0,1-12.45,0c-4.13-.62-8.17-1.68-12.32-2.12a85.3,85.3,0,0,0-12.48-.57,99.79,99.79,0,0,0-12.44,1.22A184.37,184.37,0,0,0,371,131c-4,1.22-7.94,2.53-11.94,3.7s-8,2.19-12.12,3.08a117.11,117.11,0,0,1-12.36,1.91,81.37,81.37,0,0,1-12.49.13,58.12,58.12,0,0,1-12.25-2.4,47,47,0,0,1-11.15-5.59c-3.41-2.41-6.43-5.32-9.82-7.74a27.34,27.34,0,0,0-11.37-4.91,36.53,36.53,0,0,0-12.43,0,57.06,57.06,0,0,0-12,3.38,105.78,105.78,0,0,0-11.29,5.35,34.29,34.29,0,0,1-11.87,3.74,21.43,21.43,0,0,1-6.24-.24,18.69,18.69,0,0,1-5.81-2.24,25.15,25.15,0,0,1-4.91-3.87c-1.5-1.45-2.89-3-4.24-4.59-2.71-3.17-5.25-6.49-8.15-9.48a39.66,39.66,0,0,0-9.92-7.5,47.56,47.56,0,0,0-5.69-2.56l-3-1c-1-.34-2-.5-3-.76a66.05,66.05,0,0,0-12.37-1.57,141.41,141.41,0,0,0-24.92,1.6,113.55,113.55,0,0,0-12.31,2.15,22.22,22.22,0,0,0-5.75,2.37,15,15,0,0,0-2.47,1.88,10.37,10.37,0,0,0-1,1.15,12.59,12.59,0,0,0-1,1.23c-2.43,3.42-3.44,7.56-4.72,11.5a33.19,33.19,0,0,1-2.39,5.78,18.74,18.74,0,0,1-3.88,4.89c-3.13,2.79-6.82,4.8-10.29,7.08s-6.83,4.94-8.88,8.6a9,9,0,0,0-.72,1.38c-.2.48-.42.95-.61,1.43a26.3,26.3,0,0,0-.83,3A36.69,36.69,0,0,0,86,158.1c-.18,4.16,0,8.34-.36,12.5a24.83,24.83,0,0,1-3.8,11.8A25,25,0,0,0,79.08,188a11.47,11.47,0,0,0,0,6.15c1.09,4,3.66,7.45,6.08,10.81a45.84,45.84,0,0,1,6.23,10.81,44.17,44.17,0,0,1,2.12,24.61,42.39,42.39,0,0,1-4.19,11.75c-.54.9-1,1.82-1.59,2.7l-1.8,2.56a57.5,57.5,0,0,1-4.11,4.71c-2.9,3-6,5.77-9,8.71a52.15,52.15,0,0,0-7.91,9.63,18.34,18.34,0,0,0-2.34,5.75c-.42,2-.28,4.16-.83,6.19a6.94,6.94,0,0,1-1.47,2.74,8.26,8.26,0,0,1-2.53,1.81c-1.85.9-3.85,1.78-5.12,3.44Z"/></svg>