<svg id="Layer_1" data-name="Layer 1" xmlns="http://www.w3.org/2000/svg" viewBox="0 0 600 600"><title>Pakistan</title><path d="M516.7,82.18l-.79,7.6c-.4,2.55.48,5,1.51,7.32a15.46,15.46,0,0,0,2,3.13,6.82,6.82,0,0,0,2.76,2.11,6.53,6.53,0,0,0,3.39.26c1.19-.17,2.39-.51,3.67-.8a12.27,12.27,0,0,1,4.11-.34,6.93,6.93,0,0,1,2.15.65,7.62,7.62,0,0,1,1.81,1.29,15.17,15.17,0,0,1,2.47,3.31c.65,1.18,1.23,2.16,1.93,3.23,2.73,4.21,5.86,8.29,8.29,13.06a22.06,22.06,0,0,1,1.52,3.88,7.24,7.24,0,0,1,.25,1.09,7.42,7.42,0,0,1,.15,1.1,15.05,15.05,0,0,1,.09,2.13,16.26,16.26,0,0,1-2.35,8.32,21.32,21.32,0,0,1-5.85,6.21,37.38,37.38,0,0,1-7.16,4,70.2,70.2,0,0,1-15.34,4.42,106.3,106.3,0,0,1-15.74,1.61,99.08,99.08,0,0,1-16-.76c-.68-.09-1.36-.2-2-.32l-1-.19-1.11-.24c-1.45-.35-2.83-.77-4.13-1.22-2.61-.89-4.92-1.82-7-2.43a16.15,16.15,0,0,0-5.73-.77,10.47,10.47,0,0,0-4.69,1.36,5.67,5.67,0,0,0-1.45,1.25,5,5,0,0,0-.85,1.49,11.19,11.19,0,0,0-.47,4.63,28,28,0,0,0,.4,3l.71,3.67,1.38,7.57c.9,5,1.83,9.8,3,14.39a62,62,0,0,0,4.65,12.66,32,32,0,0,0,7.18,9.44,25.91,25.91,0,0,0,4.65,3.23,14,14,0,0,0,1.28.65c.45.22.81.41,1.44.69l3.6,1.67a61.24,61.24,0,0,1,7.84,4.39,32.06,32.06,0,0,1,4.27,3.43,20.9,20.9,0,0,1,4.29,5.81,16.55,16.55,0,0,1,1.44,4.41,16.84,16.84,0,0,1,.11,5,16.27,16.27,0,0,1-.48,2.31c-.1.37-.21.74-.33,1.09l-.38,1a19.5,19.5,0,0,1-1.92,3.55,20.85,20.85,0,0,1-5.29,5.31,26.84,26.84,0,0,1-5.53,2.93,37.29,37.29,0,0,1-5,1.57c-.79.19-1.59.36-2.3.5-.4.09-.77.18-1.12.28a5.57,5.57,0,0,0-2.48,1.27,2.3,2.3,0,0,0-.39.57c0,.12-.12.24-.18.41a1.76,1.76,0,0,0-.13.41,4.11,4.11,0,0,0,.08,2c0,.12,0-.1,0,0a1.86,1.86,0,0,1,.1.22l.61,1.4a23.39,23.39,0,0,1,1.9,6.81c0,.42.07.85.08,1.27s0,.9,0,1.35-.07.91-.12,1.37-.13.86-.18,1.11a25,25,0,0,1-.81,3.23,33.78,33.78,0,0,1-2.22,5.3,52.67,52.67,0,0,1-5.37,8.14c-1.75,2.24-3.25,4.06-4.4,5.7l-9,12.37-17.94,24.72-9,12.34L431,353.22c-1.57,2.12-3.24,4.35-5.14,6.62a67.24,67.24,0,0,1-6.44,6.76c-1.22,1.11-2.53,2.18-3.74,3.09s-2.35,1.74-3.41,2.5a61.32,61.32,0,0,0-5.12,3.87,34.62,34.62,0,0,0-3.85,4.09c-2.74,3.29-5.66,7.68-9.83,12.36A50.12,50.12,0,0,1,386,399.4l-1.11.81-1.27.79c-.86.52-1.69,1-2.6,1.52s-2,.9-3,1.32c-.26.1-.5.21-.76.3l-.82.25-1.66.47c-.56.14-1.11.31-1.68.4l-1.72.24-1.73.2c-.56,0-1.11,0-1.67,0a25.72,25.72,0,0,1-3.23-.14c-1-.11-2.1-.22-2.94-.4-3.7-.68-6.46-1.62-8.52-2.15a18,18,0,0,0-4.45-.77,10.6,10.6,0,0,0-1.42.09,8.42,8.42,0,0,0-1.34.41,15.6,15.6,0,0,0-1.46.67c-.28.2-.56.39-.85.57s-.29.17-.43.28l-.44.36-.9.7-.88.83-.45.42-.42.47-.86.93a27.63,27.63,0,0,0-5,8.71,17.14,17.14,0,0,0-.5,2.07c0,.32-.14.66-.16.95a5.7,5.7,0,0,1,0,.83,2.64,2.64,0,0,0,0,.71c0,.2,0,.47.06.58a1.42,1.42,0,0,1,.08.45,3.68,3.68,0,0,0,.18.49,5.43,5.43,0,0,0,1.3,1.84l.41.35c.06,0,.06,0,.29.16l2.75,1.65a30.53,30.53,0,0,1,5.44,4.16,24.24,24.24,0,0,1,2.94,3.54c.51.72.75,1.17,1.07,1.71s.63,1.06.88,1.58a35.84,35.84,0,0,1,2.36,6.12c.51,1.86.89,3.65,1.15,5.1l.69,3.86a23,23,0,0,0,.58,2.5,3,3,0,0,0,.44,1l.06,0h0l.19.27c.25.38.51.76.79,1.15a134.44,134.44,0,0,0,8.69,10.48c.88,1,1.76,2,2.68,3.13l1.37,1.67c.6.8,1.32,1.72,1.88,2.6a46.22,46.22,0,0,1,5.09,10.58c1.13,3.32,1.88,6.35,2.51,9l.89,3.7L379,501c.18.79.34,1.63.5,2.5a43,43,0,0,1,.65,6,32.2,32.2,0,0,1-.63,7.84,26.82,26.82,0,0,1-4.07,9.6,25.8,25.8,0,0,1-8.44,7.77,28.31,28.31,0,0,1-9.5,3.33,36.89,36.89,0,0,1-7.4.43c-2.11-.08-3.94-.28-5.55-.49s-3-.45-4.13-.6c-4.71-.72-9.22-1.24-13.48-1.48a58.25,58.25,0,0,0-11.59.24,23.31,23.31,0,0,1-4.51.52c-1.38,0-2.74-.37-4-.39a3.85,3.85,0,0,0-2.94.91,6.26,6.26,0,0,1-.53.5c-.15.2-.33.38-.5.57l-.24.33-.12.16c-.09.12,0,0-.23.32-.7,1.07-1.43,2.13-2.19,3.14a30.36,30.36,0,0,1-11.59,9,34.77,34.77,0,0,1-12.74,3,39.59,39.59,0,0,1-12.12-1.3,36.7,36.7,0,0,1-11.29-5.12l-1.32-.9-1.29-1a30.07,30.07,0,0,1-2.53-2.27,28,28,0,0,1-4.52-5.87,30.65,30.65,0,0,1-1.64-3.23c-.44-1-.85-2.11-1.15-3.07a41.18,41.18,0,0,1-1.31-5.12l-.68-3.47c-.17-.9-.36-1.54-.5-2.1a12.31,12.31,0,0,0-1.44-3.27,12.18,12.18,0,0,0-1.07-1.46c-.37-.45-.88-.94-1-1.06a15.59,15.59,0,0,0-2-1.38c-1.07-.67-2.57-1.54-4.38-2.89a25.56,25.56,0,0,1-5.58-5.61,19.35,19.35,0,0,1-1.18-1.81l-.53-.94c-.2-.35-.24-.49-.37-.75-.46-.93-.81-1.8-1.16-2.67a83.54,83.54,0,0,1-2.43-8.13,29.3,29.3,0,0,0-1.22-3.74c-.06-.11-.09-.25-.13-.3a.5.5,0,0,1,0-.13l0-.07c0-.1,0-.09,0-.18s-.07-.12-.17-.19a6.55,6.55,0,0,0-3.26-.76c-1.79-.11-4,0-6.78.12l-2.13.08c-.78,0-1.36,0-2,0l-3.82,0-7.65.08c-10.18.14-20.38.41-30.54.8s-20.23.94-30.2,2.15c-2.49.3-5,.63-7.45,1-2.33.33-4.55.77-6.88,1.28-4.62,1-9.38,2.36-14.37,3.66l-3.69.94c-.88.23-2.06.59-3.27.95a68.45,68.45,0,0,1-8.45,2.11,36.92,36.92,0,0,1-5.34.46c-1,0-2-.31-3.15-.41a24.76,24.76,0,0,1-3.64-.38,20.07,20.07,0,0,1-4.19-1.34c-.36-.15-.72-.32-1.07-.49L65.9,496a16.52,16.52,0,0,1-1.7-1.07,17.39,17.39,0,0,1-5.65-6.6,22.64,22.64,0,0,1-2.12-7.66,32.29,32.29,0,0,1,0-6.39,55.16,55.16,0,0,1,2-9.9c.83-2.9,1.72-5.53,2.49-7.9A28.3,28.3,0,0,0,62.39,451a65.35,65.35,0,0,1,2.34-9.28A35.17,35.17,0,0,1,67.25,436,23.54,23.54,0,0,1,70,432a17.91,17.91,0,0,1,1.32-1.35c.62-.58,1-.84,1.22-1.05l.92-.73c.32-.24.71-.49,1.07-.72a20.84,20.84,0,0,1,2.32-1.32,22.8,22.8,0,0,1,2.42-1c.8-.29,1.51-.49,2.28-.71s1.33-.3,2-.44a46.05,46.05,0,0,1,5.94-.63c3.22-.12,5.85,0,8.49,0s5.1.18,7.69.28l7.13.31a44.75,44.75,0,0,0,5.58-.1,16.16,16.16,0,0,0,3-.52c.15,0,.12,0,0,.17a5,5,0,0,0-.4.69c-.2.52.11.49.25-.48,0-.12,0-.24.05-.36s0-.09,0-.08h0s0,0,.07-.09a.93.93,0,0,0,.07-.4c0-.31-.14-.7-.09-.79s.43.08.32,0a4.6,4.6,0,0,0-1.57-.59c-1-.26-2.4-.55-4.23-1a29.94,29.94,0,0,1-6.4-2.46,23.62,23.62,0,0,1-2.1-1.28,20.57,20.57,0,0,1-1.89-1.47,22.67,22.67,0,0,1-3-3.17,26.72,26.72,0,0,1-3.34-5.9,42,42,0,0,1-1.66-4.79l-.29-1-.34-1.31-.34-1.39-.24-1.31a63.31,63.31,0,0,1-.82-9c-.1-2.59-.16-4.84-.35-6.64a15.4,15.4,0,0,0-.79-3.85,4.42,4.42,0,0,0-.23-.52.69.69,0,0,0-.19-.28l-.24-.31c-.07-.11-.15-.22-.22-.34s-.22-.18-.32-.28l-.31-.31a1.11,1.11,0,0,0-.36-.31c-.28-.19-.55-.4-.82-.62l-1.06-.58a10.53,10.53,0,0,0-1.21-.58l-.64-.29c-.22-.1-.49-.18-.73-.27-1.89-.72-4.24-1.35-6.76-2.07a76.34,76.34,0,0,1-8.22-2.72c-.74-.32-1.45-.57-2.21-1l-2.23-1.14c-.74-.42-1.49-.92-2.22-1.39a16.69,16.69,0,0,1-2.14-1.59A28.5,28.5,0,0,1,60.39,359a20.59,20.59,0,0,1-1.62-2.19c-.41-.63-.78-1.23-1.15-1.82-1.43-2.37-2.74-4.67-4-7-2.52-4.7-4.87-9.43-7.09-14.5a59.79,59.79,0,0,1-3-8.34,24.08,24.08,0,0,1-.52-2.61,16,16,0,0,1-.18-3.4,9.44,9.44,0,0,1,.12-1.1,8.86,8.86,0,0,1,.26-1.26,10.11,10.11,0,0,1,1.37-3,9.39,9.39,0,0,1,3-2.82,9.94,9.94,0,0,1,1.77-.81,13.18,13.18,0,0,1,1.62-.4,12.55,12.55,0,0,1,4.52.14l2.17.45c1.37.31,2.72.65,4,1,2.68.67,5.23,1.52,7.79,2.27s5,1.58,7.44,2.36,4.82,1.47,7.17,2.14,4.65,1.21,6.91,1.67c1.13.23,2.24.42,3.33.59s2.33.35,3.43.48a45.22,45.22,0,0,0,6.25.38,20,20,0,0,0,5-.58,16,16,0,0,0,3.86-1.59l3.11-1.73a27.46,27.46,0,0,1,6-2.4c.67-.16,1.35-.3,2-.43s1.41-.16,2.11-.21a17.89,17.89,0,0,1,2.07,0l1,0,.94.12c.62.09,1.28.18,1.85.31l1.66.41.82.23.72.25,1.44.52.9.34.74.31,1.48.63c1,.39,2,.83,3,1.25s2,.86,3,1.31,2,.92,3.09,1.32c2.08.88,4.21,1.82,6.42,2.58,1.1.39,2.22.78,3.36,1.09.57.17,1.14.34,1.72.49l1.73.38,1.75.33c.59.09,1.18.15,1.77.21s1.19.15,1.78.16l1.77,0c4.77.06,9.42-1.11,13.95-2.44,1.13-.35,2.24-.75,3.36-1.12s2.17-.82,3.22-1.3a47.34,47.34,0,0,0,6.05-3.25,40,40,0,0,0,5.33-4.05,28.1,28.1,0,0,0,4.15-4.84A19.33,19.33,0,0,0,208,304.2a11.77,11.77,0,0,0,.35-1.42,11.61,11.61,0,0,0,.28-1.45,31.63,31.63,0,0,0,.25-3.24c.11-2.31,0-4.92.21-7.82a33.56,33.56,0,0,1,.6-4.57c.2-.8.36-1.61.6-2.39L211,281a31.84,31.84,0,0,1,21.16-18.37l2.45-.51c.82-.13,1.66-.21,2.5-.3a31.93,31.93,0,0,1,5,.05c3,.29,5.46.72,7.38.8a11.09,11.09,0,0,0,2.19-.12,1.49,1.49,0,0,0,.72-.35c.07-.06.14-.27.34-.52-.14.1,0,0,.15-.94s.41-2.26,1-4.23a16,16,0,0,1,1.51-3.37,14.67,14.67,0,0,1,1.26-1.8,13,13,0,0,1,1.54-1.59,19.9,19.9,0,0,1,5.61-3.41,37,37,0,0,1,4.77-1.59c1.53-.4,3-.7,4.55-.95.77-.12,1.53-.23,2.34-.31l1.23-.12c.46,0,.89-.05,1.42-.06a16.6,16.6,0,0,1,3.89.37c.38.09.77.2,1.14.31l1,.35c.61.24,1.09.46,1.44.62.7.32,1.08.49,1.5.66s.84.31,1.25.45a10.33,10.33,0,0,0,1.74.31,11.29,11.29,0,0,0,1.84,0,6.74,6.74,0,0,0,3-1.11,3.82,3.82,0,0,0,.81-.79.75.75,0,0,0,.15-.2c0-.09.1-.1.15-.24a6.9,6.9,0,0,0,.36-.72,13.53,13.53,0,0,0,.92-4.26c.16-1.85.16-4.13.13-6.67s-.07-5.4.21-8.57c.06-.78.2-1.64.3-2.45s.32-1.7.5-2.55.44-1.67.67-2.5.56-1.62.85-2.43a37.53,37.53,0,0,1,12-16.06,36.27,36.27,0,0,1,8.85-5.09c1.78-.71,2.79-1,3.91-1.4s2.06-.74,2.79-1.08a9.15,9.15,0,0,0,1.57-.85c.25-.19.23-.19.2-.05s0,.16,0-.07a2.35,2.35,0,0,1,0-.26,1.19,1.19,0,0,0,0-.33l0-.42s0-.31,0-.06.11.41.13.51c.18.53.24.51.16.38a7,7,0,0,0-.49-.73c-.48-.64-1.2-1.49-2-2.37l-2.63-3a34.46,34.46,0,0,1-3.12-4.07,16.46,16.46,0,0,1-1.73-3.48,13,13,0,0,1-.66-2.87,10.78,10.78,0,0,1,.28-3.94,11.3,11.3,0,0,1,.73-2,10.74,10.74,0,0,1,.85-1.48,12,12,0,0,1,2.08-2.34,13.85,13.85,0,0,1,4.08-2.41,21.49,21.49,0,0,1,6-1.27,38.91,38.91,0,0,1,4.81,0c1.51.08,3,.22,4.36.38l2.06.28,1.82.26a29,29,0,0,0,5.76.22,10.34,10.34,0,0,0,3.8-.91.31.31,0,0,0,.16-.1s.12,0,.14-.06.13,0,.11-.08.06,0,.08,0a.21.21,0,0,1,.05-.13l0-.05s0-.08,0-.12a1.31,1.31,0,0,1,.06-.27c.05-.07,0-.23,0-.36s0-.29,0-.43a2.7,2.7,0,0,0,0-.66l-.09-.89a30.3,30.3,0,0,1-.28-5,16.62,16.62,0,0,1,.51-3.37,13.82,13.82,0,0,1,.61-1.74,11.37,11.37,0,0,1,.87-1.75,12.18,12.18,0,0,1,2.73-3.19,14.24,14.24,0,0,1,1.63-1.15,16.8,16.8,0,0,1,1.58-.8,25.66,25.66,0,0,1,4.75-1.37,14.61,14.61,0,0,0,2.13-.56,2.32,2.32,0,0,0,.61-.35,6.58,6.58,0,0,0,.79-.66,10.05,10.05,0,0,0,1.47-1.86,11,11,0,0,0,1.61-4.59,12.09,12.09,0,0,0-.83-5.24c-.69-2-1.82-4.35-2.82-7.08-.24-.69-.48-1.4-.69-2.14s-.38-1.33-.54-2c-.34-1.34-.64-2.71-.87-4.1a35.6,35.6,0,0,1-.57-8.72,18.94,18.94,0,0,1,2.85-9.35c.25-.36.49-.74.76-1.09l.9-1,.46-.49.51-.43,1-.84c1.11-.78,2.16-1.49,3.35-2.24A35.43,35.43,0,0,1,382.61,83a31.47,31.47,0,0,1,4.05-1.51c2.63-.79,5-1.31,7.18-2.06a37.51,37.51,0,0,0,6.35-3.17,58.82,58.82,0,0,1,14.9-5.77A108,108,0,0,1,430.48,68c2.56-.25,5.11-.45,7.65-.64a59.33,59.33,0,0,1,7.83-.26,48.46,48.46,0,0,1,7.73,1.33,17.25,17.25,0,0,0,7.11.38A15.22,15.22,0,0,0,467,65.36a34.9,34.9,0,0,1,6.32-4.53,8.88,8.88,0,0,1,7.85-.35c2.85,1,2.53,5.4,5.21,4.67,1.15-.25,2-1.29,3.22-1.88a4.39,4.39,0,0,1,1.94-.46,5.54,5.54,0,0,1,1.94.39,8.39,8.39,0,0,1,3.13,2.26,7.75,7.75,0,0,1,1.83,3.39c.26,1.25.2,2.6.93,3.61a3.31,3.31,0,0,0,3.35,1,14,14,0,0,0,3.47-1.5,7.36,7.36,0,0,1,3.69-1,8.7,8.7,0,0,1,3.72.86,5.54,5.54,0,0,1,2.63,2.71,8.59,8.59,0,0,1,.64,3.75c0,1.27-.18,2.54-.3,3.8Zm-.09,0a28.4,28.4,0,0,0,.14-3.8,8.38,8.38,0,0,0-.75-3.63,5.11,5.11,0,0,0-2.56-2.44,8,8,0,0,0-3.53-.68,6.6,6.6,0,0,0-3.35,1,14.44,14.44,0,0,1-3.62,1.71,4.83,4.83,0,0,1-2.27,0,3.66,3.66,0,0,1-2.07-1.3,5.2,5.2,0,0,1-.9-2.13c-.14-.68-.21-1.32-.34-1.85A7.37,7.37,0,0,0,493,64.52a3.87,3.87,0,0,0-1.43-.26,2.84,2.84,0,0,0-1.28.34,9.65,9.65,0,0,0-1.4,1,6,6,0,0,1-2.11,1.1,3.64,3.64,0,0,1-1.45.1,3.34,3.34,0,0,1-1.45-.6,5.34,5.34,0,0,1-1.53-2,4.92,4.92,0,0,0-.79-1.33,3.78,3.78,0,0,0-1.13-.82,6.16,6.16,0,0,0-3.07-.5,8.23,8.23,0,0,0-3.14,1A33.06,33.06,0,0,0,468.39,67a17.38,17.38,0,0,1-7.06,4,19.21,19.21,0,0,1-8.08-.19,47.1,47.1,0,0,0-7.36-1.12,56.12,56.12,0,0,0-7.46.48c-2.52.26-5.05.53-7.56.85A106.58,106.58,0,0,0,416,73.81a54.34,54.34,0,0,0-13.75,5.81,44.08,44.08,0,0,1-6.86,3.71c-2.45,1-4.94,1.58-7.3,2.38A25.31,25.31,0,0,0,381.52,89c-1,.7-2.07,1.44-3.07,2.19a9.65,9.65,0,0,0-2.34,2.59,13.68,13.68,0,0,0-1.86,6.88,30.48,30.48,0,0,0,.71,7.41,46.84,46.84,0,0,0,2.07,7.21c.92,2.33,2.1,4.59,3.05,7a18.74,18.74,0,0,1,1.53,7.67,17.31,17.31,0,0,1-2.14,7.52,14.58,14.58,0,0,1-5.33,5.72c-2.38,1.31-5,1.43-7.27,2.42a5.43,5.43,0,0,0-2.65,2.28,7.28,7.28,0,0,0-.92,3.47c-.1,2.47.72,5,.56,7.6a8.58,8.58,0,0,1-3.68,6.67,16.37,16.37,0,0,1-7.26,2.5,35.12,35.12,0,0,1-7.67,0c-2.53-.31-5.05-.63-7.59-.7a20.19,20.19,0,0,0-7.47.88,4.07,4.07,0,0,0-2.59,2.43,4.76,4.76,0,0,0,1,3.46,51.05,51.05,0,0,0,5,5.76c.86.93,1.73,1.87,2.51,2.88a10.47,10.47,0,0,1,1.93,3.31,14.42,14.42,0,0,1,.28,3.82,10.24,10.24,0,0,1-1.05,3.68,12.29,12.29,0,0,1-5.79,4.84c-2.3,1.11-4.76,1.83-7.11,2.78a26.85,26.85,0,0,0-6.56,3.85,28.74,28.74,0,0,0-9,12.14,26.74,26.74,0,0,0-1.69,7.42c-.23,2.54-.22,5.09-.2,7.63s0,5.1-.2,7.63a22.24,22.24,0,0,1-1.87,7.36A13.41,13.41,0,0,1,300,253a16.08,16.08,0,0,1-7.17,2.4,18.65,18.65,0,0,1-3.81-.06,18,18,0,0,1-3.7-.91,31.05,31.05,0,0,1-3.49-1.54,9,9,0,0,0-1.78-.69,8.06,8.06,0,0,0-1.9-.18,35.68,35.68,0,0,0-7.55,1,27.46,27.46,0,0,0-3.65,1.12,11.64,11.64,0,0,0-3.31,1.87,7,7,0,0,0-2,3.17c-.41,1.21-.66,2.46-1,3.69a10.6,10.6,0,0,1-1.53,3.47,9.91,9.91,0,0,1-2.81,2.55,10.27,10.27,0,0,1-3.61,1.17,19.4,19.4,0,0,1-3.81,0c-2.54-.24-5-.78-7.56-1.1a22.53,22.53,0,0,0-7.59.37,24.25,24.25,0,0,0-7,2.86,24.7,24.7,0,0,0-10,11.23,24.1,24.1,0,0,0-1.75,7.39c-.23,2.54-.23,5.09-.38,7.63a26.14,26.14,0,0,1-4.71,14.3,33.82,33.82,0,0,1-5,5.72,45.3,45.3,0,0,1-6.09,4.58,58.79,58.79,0,0,1-13.88,6.26,78.82,78.82,0,0,1-30.18,3.22,77.94,77.94,0,0,1-15-2.78c-1.22-.36-2.43-.77-3.64-1.15l-3.58-1.33a12.2,12.2,0,0,0-7.46-.79c-2.49.64-4.64,2.09-6.93,3.17a24.42,24.42,0,0,1-7.25,2.29c-5.06.75-10.2.06-15.16-1-10-2.07-19.33-6.36-28.84-9.94-2.39-.88-4.78-1.74-7.22-2.47-1.22-.38-2.44-.73-3.68-1a10.45,10.45,0,0,0-3.75-.56,2.28,2.28,0,0,0-1.59.95,3.71,3.71,0,0,0-.54,1.81,12.66,12.66,0,0,0,.46,3.77,46.87,46.87,0,0,0,2.6,7.17,135.91,135.91,0,0,0,7.1,13.52c1.3,2.19,2.64,4.35,4.05,6.47a30.68,30.68,0,0,0,2.26,3.07,20.7,20.7,0,0,0,2.81,2.57,10,10,0,0,0,1.57,1.09c.55.32,1.08.67,1.64,1l1.74.81c.57.28,1.18.45,1.77.69a62.66,62.66,0,0,0,7.35,2.07c4.92,1.18,10,2.18,14.39,4.89a12.89,12.89,0,0,1,1.55,1.11l.76.57.67.68a13.61,13.61,0,0,1,2.4,2.95,21.64,21.64,0,0,1,2.56,7.15c1,5,1,10.14,2.06,15.12.13.63.29,1.24.48,1.85s.38,1.21.6,1.81a32.76,32.76,0,0,0,1.41,3.55,11.34,11.34,0,0,0,4.89,5.66,26.39,26.39,0,0,0,7.36,1.93,15.69,15.69,0,0,1,7.05,2.73,16.38,16.38,0,0,1,3.87,20.66,13,13,0,0,1-5.68,4.94,25.21,25.21,0,0,1-7.34,2,55.3,55.3,0,0,1-7.61.42c-2.55,0-5.09-.13-7.64-.22l-7.63-.27c-2.54-.08-5.09-.16-7.63-.11s-5.19.19-7.37,1.59A7.09,7.09,0,0,0,81,442.05a9.93,9.93,0,0,0-1.12,1.54A25.35,25.35,0,0,0,78.28,447,61.38,61.38,0,0,0,76,454.33a55.31,55.31,0,0,1-2.55,7.19c-1,2.36-1.93,4.71-2.77,7.12A40.81,40.81,0,0,0,68.78,476a14,14,0,0,0,.67,7.51A9.07,9.07,0,0,0,75,488.46a17.73,17.73,0,0,0,7.57.1A72.22,72.22,0,0,0,90,486.81c2.45-.71,4.94-1.25,7.42-1.81,5-1.13,9.91-2.32,14.93-3.22s10.09-1.36,15.15-1.86c10.14-.95,20.3-1.65,30.46-2.29l30.48-1.9c5.08-.34,10.17-.59,15.24-1,2.53-.23,5.07-.52,7.61-.56a20.42,20.42,0,0,1,7.52,1.08,13.43,13.43,0,0,1,6,4.55,25.55,25.55,0,0,1,3.34,6.84c.83,2.4,1.54,4.85,2.53,7.2a16.35,16.35,0,0,0,1.81,3.34,12.26,12.26,0,0,0,2.76,2.62c2.09,1.46,4.45,2.47,6.54,3.93a24.51,24.51,0,0,1,5.41,5.35,26.13,26.13,0,0,1,3.65,6.68,54.86,54.86,0,0,1,1.94,7.38,23.89,23.89,0,0,0,2.53,7.16,17,17,0,0,0,5.29,5.41,24,24,0,0,0,14.46,4,20,20,0,0,0,7.38-1.77,15.89,15.89,0,0,0,5.93-4.66c.72-1.06,1.41-2.12,2.06-3.22.35-.53.74-1,1.11-1.56l1.22-1.46a24.82,24.82,0,0,1,5.93-4.77,37.46,37.46,0,0,1,14.49-4.48,77.71,77.71,0,0,1,15.25-.1c5.07.41,10.11,1.16,15.13,2.05a66.29,66.29,0,0,0,7.55,1.08,13.49,13.49,0,0,0,7.41-1.31A8.7,8.7,0,0,0,361.3,517a9.81,9.81,0,0,0,1.5-3.48,21.22,21.22,0,0,0,0-7.58c-.39-2.52-.94-5-1.4-7.51a74.82,74.82,0,0,0-1.77-7.42,29.26,29.26,0,0,0-3.07-7,35.76,35.76,0,0,0-2.23-3.1c-.77-1-1.56-2-2.36-3a137.91,137.91,0,0,1-9.17-12.21A31.84,31.84,0,0,1,341,462.4a22,22,0,0,1-1.21-3.62c-.59-2.48-.86-5-1.26-7.53a25.81,25.81,0,0,0-2-7.32,18.12,18.12,0,0,0-.94-1.66,10.55,10.55,0,0,0-1.2-1.47,17.87,17.87,0,0,0-3-2.32c-1.08-.69-2.18-1.33-3.22-2.07a16.72,16.72,0,0,1-2.86-2.52,18.75,18.75,0,0,1-5-14l.16-1.9c.07-.63.23-1.25.35-1.88a29.39,29.39,0,0,1,1-3.68,40.83,40.83,0,0,1,7.69-13.1l1.31-1.39.66-.7.7-.64,1.42-1.28c.49-.4,1-.78,1.51-1.17l.76-.58c.26-.18.54-.34.81-.51l1.62-1a23.51,23.51,0,0,1,3.48-1.55,22.35,22.35,0,0,1,3.7-1,22,22,0,0,1,3.81-.2,31.44,31.44,0,0,1,7.51,1.3c2.45.69,4.87,1.5,7.37,2a17.52,17.52,0,0,0,7.56-.11l.92-.25a4.46,4.46,0,0,0,.89-.31l1.75-.76c.57-.29,1.1-.64,1.65-1l.81-.49.78-.56a38.52,38.52,0,0,0,5.62-5.14c3.43-3.76,6.31-8,9.58-11.88a48.31,48.31,0,0,1,5.31-5.49,75.93,75.93,0,0,1,6.1-4.59,61.87,61.87,0,0,0,6.05-4.65,53.73,53.73,0,0,0,5.27-5.5c3.28-3.9,6.2-8.07,9.26-12.14l9.09-12.27,18.18-24.55L462,290.66c3-4.09,6.67-7.74,9.07-12.25a22.43,22.43,0,0,0,1.51-3.49,9.36,9.36,0,0,0,.59-3.73c-.26-2.55-1.81-4.73-2.31-7.25a15,15,0,0,1,.4-7.56,13.77,13.77,0,0,1,4.18-6.31,16.92,16.92,0,0,1,6.83-3.31c1.23-.33,2.5-.49,3.74-.78a27.31,27.31,0,0,0,3.66-1,12.67,12.67,0,0,0,6.1-4.34,8.38,8.38,0,0,0,1.45-3.47,6.49,6.49,0,0,0-.6-3.68,15.39,15.39,0,0,0-5.16-5.48,55.54,55.54,0,0,0-6.57-3.88c-2.25-1.18-4.58-2.23-6.75-3.56a35.44,35.44,0,0,1-6.08-4.62,40.23,40.23,0,0,1-8.67-12.48,70.51,70.51,0,0,1-4.62-14.54c-1.08-5-1.83-10-2.53-15.06l-1.07-7.56a53.6,53.6,0,0,1-.86-7.59,16.85,16.85,0,0,1,1.43-7.45,11.55,11.55,0,0,1,5.3-5.35,16.54,16.54,0,0,1,7.41-1.68,22.48,22.48,0,0,1,7.48,1.4c2.42.83,4.73,1.9,7.1,2.81,1.19.46,2.39.88,3.61,1.22s2.48.59,3.73.81a95.35,95.35,0,0,0,15.19,1.3,101.94,101.94,0,0,0,15.22-1,66.56,66.56,0,0,0,14.78-3.64,34.06,34.06,0,0,0,6.76-3.49,19,19,0,0,0,5.35-5.34,14.69,14.69,0,0,0,.62-14.53c-2.17-4.61-5.15-8.77-7.8-13.11-1.39-2.13-2.25-4.61-4-6.43a5.87,5.87,0,0,0-3.3-1.73,11.14,11.14,0,0,0-3.77.23c-1.25.24-2.49.56-3.76.7a7.25,7.25,0,0,1-3.77-.42,7.38,7.38,0,0,1-2.91-2.43,15.35,15.35,0,0,1-1.83-3.35,14.26,14.26,0,0,1-1.23-7.44c.29-2.54.42-5.07.62-7.62Z"/></svg>