<svg id="Layer_1" data-name="Layer 1" xmlns="http://www.w3.org/2000/svg" viewBox="0 0 600 600"><title>Panama</title><path d="M76.89,260.41c-.11-2.24-1.68-4.11-3.43-5.42s-3.69-2.46-5.52-3.78a19.85,19.85,0,0,1-2.59-2.2,30.08,30.08,0,0,1-2.21-2.58,38.21,38.21,0,0,1-3.56-5.8,39.89,39.89,0,0,1-3.87-13.1c-.14-1.15-.17-2.3-.24-3.45s0-2.32.09-3.49a25.21,25.21,0,0,1,1.5-7,18.71,18.71,0,0,1,3.9-6.25A19.58,19.58,0,0,1,67,203.08a26.62,26.62,0,0,1,7-2,38.3,38.3,0,0,1,7.16-.42A53.93,53.93,0,0,1,95.11,203c1.14.33,2.22.69,3.38,1.12a31.3,31.3,0,0,1,3.42,1.49,33.4,33.4,0,0,1,6.3,4.14,27.42,27.42,0,0,1,5.26,5.77,23.62,23.62,0,0,1,3.35,7.47l.25,1,.18,1c.11.66.21,1.34.26,2a28.31,28.31,0,0,1,0,4,21.82,21.82,0,0,0,0,2.81,19.75,19.75,0,0,0,.39,2.6,28.69,28.69,0,0,0,4.17,10.28,15.65,15.65,0,0,0,7.3,6,16,16,0,0,0,9,.83,3.45,3.45,0,0,0,.46-.12,1.36,1.36,0,0,0,.35-.13c.14-.06.24-.15.36-.21a2.93,2.93,0,0,0,.55-.6,6,6,0,0,0,.9-2.3,6.31,6.31,0,0,0,.09-.76,2.55,2.55,0,0,0,0-.39v-.19l0-.55a29.63,29.63,0,0,1,.64-4.55,19.14,19.14,0,0,1,1.95-5.32,15.84,15.84,0,0,1,1.07-1.65,8.91,8.91,0,0,1,.75-.9c.28-.3.57-.6.87-.88a13.89,13.89,0,0,1,2.45-1.72,11.91,11.91,0,0,1,3.24-1.09,13.79,13.79,0,0,1,1.7-.17,7.07,7.07,0,0,1,1.56.06,13.73,13.73,0,0,1,1.43.23,6.59,6.59,0,0,1,1.24.35,19.46,19.46,0,0,1,2.07.86c.51.29,1,.59,1.51.91s.83.56,1.16.8.66.49.95.73c.61.49,1.18,1,1.72,1.48a68.85,68.85,0,0,1,5.35,5.69c1.51,1.75,2.84,3.33,4,4.54a18.81,18.81,0,0,0,1.78,1.58l.9.76,1,.65a28.87,28.87,0,0,0,8.94,3.85,46.72,46.72,0,0,0,10.86,1.35c3.85,0,7.84,0,12,.08,2.07.09,4.19.07,6.32.13l3.24,0,3.26-.06a41.09,41.09,0,0,0,5.87-.41,9.17,9.17,0,0,0,3.82-1.43,9.5,9.5,0,0,0,1.58-1.44,25.68,25.68,0,0,0,1.83-2.19l2.26-2.79a32.41,32.41,0,0,1,2.93-3.15c4.29-4.21,9.16-7.19,13.53-9.83l6.23-3.73c1.93-1.18,3.61-2.3,5.33-3.46,3.41-2.34,6.72-4.66,10-6.87s6.6-4.27,9.9-6.33,6.54-4.19,9.73-6.39,6.31-4.51,9.41-6.85c1.53-1.18,3.13-2.41,4.85-3.79s3.56-2.76,5.49-4.23a95,95,0,0,1,13.48-8.75c1.31-.67,2.63-1.33,4-1.93.67-.32,1.4-.6,2.11-.88s1.41-.56,2.1-.78a64,64,0,0,1,8.61-2.39,50.52,50.52,0,0,1,18.56-.3,62.77,62.77,0,0,1,15.88,5.07c9.06,4.25,15.48,8.81,22.46,11.19a44.31,44.31,0,0,0,5.29,1.4l7,1.1,13.67,2.23c9,1.31,17.89,2.73,26.64,3.73,2.18.27,4.36.47,6.52.67l6.77.57a123.86,123.86,0,0,1,14.63,2.1,84.41,84.41,0,0,1,29.05,12.56,105,105,0,0,1,22.83,21,108.24,108.24,0,0,1,8.87,12.76c.65,1.09,1.31,2.14,1.88,3.25a18.24,18.24,0,0,1,1.36,3.41,49.64,49.64,0,0,1,1.24,7.21,25.21,25.21,0,0,0,1.71,6.63l1.2,3,.47,1.19c.14.34.27.67.45,1.05.7,1.44,1.71,3.21,2.91,5.37a64,64,0,0,1,3.88,7.71,60.1,60.1,0,0,1,2.72,8.43,77.65,77.65,0,0,1,1.58,8,76,76,0,0,1,.58,16c-.19,2.6-.47,5.17-.86,7.69s-.89,5-1.44,7.42-1.17,4.81-1.83,7.16c-.33,1.17-.7,2.32-1.06,3.47-.24.72-.48,1.48-.74,2.48-.53,1.94-1.06,4.3-1.87,7a40,40,0,0,1-3.94,9.19c-.53.84-1.09,1.69-1.73,2.52a23.59,23.59,0,0,1-2.17,2.46l-1.22,1.16c-.44.37-.89.72-1.35,1.07a20.85,20.85,0,0,1-2.72,1.76,30,30,0,0,1-10.19,3.36c-3,.44-5.47.52-7.56.65s-3.77.25-4.87.43a13.67,13.67,0,0,0-1.77.4c-.24,0-.86.59-1.6,1.93s-1.51,3.27-2.53,5.66a32.78,32.78,0,0,1-4.86,8.24,21.74,21.74,0,0,1-4.57,4,19.82,19.82,0,0,1-5.64,2.52,23,23,0,0,1-10.92.12,24.38,24.38,0,0,1-4.8-1.6c-.77-.33-1.51-.73-2.26-1.12l-1.09-.64-1-.64a36.69,36.69,0,0,1-6.56-5.8,71.1,71.1,0,0,1-4.81-5.9l-4.08-5.42c-5.42-7.14-11.1-14.38-16.1-22.38-1.26-2-2.45-4-3.61-6.12-.59-1-1.15-2.09-1.71-3.15s-1.12-2.21-1.69-3.5a37.36,37.36,0,0,1-1.53-4.4c-.23-.81-.15-1.74-.37-2.65s-.48-1.86-.67-2.89a20.46,20.46,0,0,1-.21-6.91,15.51,15.51,0,0,1,3.22-7.5c.44-.55.94-1.08,1.43-1.59s1-.88,1.52-1.3a23.25,23.25,0,0,1,3-1.94,33,33,0,0,1,4.72-2.1c1.24-.45,2.25-.79,2.89-1l.41-.17.29-.13c.22-.09.13-.08.27-.12a22.86,22.86,0,0,0,3.5-2.53,24.3,24.3,0,0,0,2.75-2.94,14.29,14.29,0,0,0,1.84-3.17,14.6,14.6,0,0,0,1-3.58,10.71,10.71,0,0,0-1-6.45,8.23,8.23,0,0,0-4.57-3.69,4.31,4.31,0,0,0-2.11-.12,26,26,0,0,0-4.35,1.43l-1.59.62c-.65.24-1.28.48-2,.7a45.88,45.88,0,0,1-4.47,1.24,29.41,29.41,0,0,1-5.38.63,25.19,25.19,0,0,1-6-.57,30.21,30.21,0,0,1-5.75-2,34.85,34.85,0,0,1-4.73-2.77L420,290.21c-1-.68-2-1.32-3-2-4-2.75-8-5.7-11.86-8.77l-5.48-4.56-2.45-2c-.4-.35-.74-.6-1.08-.86s-.72-.56-1-.72-.58-.41-.82-.55l-.66-.33c-.18-.06-.31-.1-.45-.16s-.23,0-.33,0c-.46,0-.2.15-2.37-.5-1.61-.49-3.24-.89-4.84-1.34-.81-.23-1.63-.38-2.43-.6a14.46,14.46,0,0,1-2.37-.88,25.12,25.12,0,0,1-4.75-3c-.41-.33-.83-.65-1.25-1l-.32-.23a1.76,1.76,0,0,0-.39-.25l-1-.5c-1.29-.66-2.49-1.4-3.65-2.07a47.73,47.73,0,0,0-6.49-3.37,30.45,30.45,0,0,0-6-1.52,29.86,29.86,0,0,0-5.57-.41,18.43,18.43,0,0,0-5.13.85,15.88,15.88,0,0,0-8,5.42,12.12,12.12,0,0,0-1.89,3.72,10.27,10.27,0,0,0-.28,3.89,14.76,14.76,0,0,0,1.2,4.23c.29.69.76,1.45,1.39,2.75a17.26,17.26,0,0,1,1,2.65,14.18,14.18,0,0,1,.4,1.95c.05.35.06.78.08,1.16a10,10,0,0,1,0,1.22,10.84,10.84,0,0,1-.44,2.44,12.86,12.86,0,0,1-.82,2.14,17.88,17.88,0,0,1-1,1.67c-.31.44-.66.93-1,1.32a23.43,23.43,0,0,1-3.93,3.74,34.37,34.37,0,0,1-3.73,2.48c-1.19.71-2.34,1.33-3.43,1.9-2.17,1.14-4.21,2.13-5.74,3l-2.62,1.56c-1,.56-1.93,1.13-2.9,1.67-3.87,2.19-7.8,4.36-11.59,6.61-1.87,1.1-3.62,2.19-5.27,3.25s-3.19,2-4.6,3c-.72.45-1.4.92-2,1.38s-1.28.87-1.86,1.32c-.3.22-.56.45-.86.66l-.83.66c-.27.21-.52.44-.79.66l-.69.56a20.52,20.52,0,0,0-4.95,6.35,8.42,8.42,0,0,0-.89,3.48c0,.26,0,.57.07.85s.12.55.21.83.22.55.38.86a7.54,7.54,0,0,0,.68.95,5.55,5.55,0,0,0,.86.89,6.24,6.24,0,0,0,1,.79,14.74,14.74,0,0,0,2.48,1.25c1.79.74,3.76,1.39,5.88,2.08,4.25,1.41,9.16,3,13.78,6.56a21.07,21.07,0,0,1,5.87,7,21.83,21.83,0,0,1,2.35,8.87,27.61,27.61,0,0,1-.9,8.61,30.6,30.6,0,0,1-3.26,7.81,49.53,49.53,0,0,1-10.08,11.7c-3.67,3.21-7.13,5.88-10.8,8.72s-7.47,5.49-11.54,8a70,70,0,0,1-13.48,6.7,17.63,17.63,0,0,1-1.94.63l-2,.57c-.69.16-1.41.29-2.12.43a15.18,15.18,0,0,1-2.19.33l-2.27.2-2.37,0a16.87,16.87,0,0,1-2.41-.22,18.57,18.57,0,0,1-2.42-.42c-.8-.21-1.61-.43-2.41-.66s-1.54-.61-2.31-.92a23.94,23.94,0,0,1-4.31-2.37,31.64,31.64,0,0,1-6.78-6.33,39.29,39.29,0,0,1-4.62-7.31q-.93-1.89-1.68-3.84c-.12-.35-.23-.59-.37-1l-.42-1.35a26.4,26.4,0,0,1-.56-2.6,37.41,37.41,0,0,1-.25-8.84c.18-2.54.44-4.73.56-6.62a19.6,19.6,0,0,0-.09-4.26,2.22,2.22,0,0,0-.52-1.2c-.08-.06-.12-.15-.24-.24l-.06-.07-.17-.13-.37-.28c-.26-.23-.42-.28-.62-.44a1.29,1.29,0,0,0-.23-.12l-.17-.11c-.14-.05,0,0,.36,0a1.94,1.94,0,0,0,1-.24c.14-.09-.05-.07-.43.25a12.44,12.44,0,0,0-1.44,1.39c-.57.63-1.2,1.34-1.88,2.16L216,373.71a38.28,38.28,0,0,1-6.41,6.2,19.92,19.92,0,0,1-5.39,2.79c-.54.17-1.07.34-1.63.47s-1.14.21-1.71.29-.9.09-1.37.12-.89,0-1.35,0a20.58,20.58,0,0,1-10.94-3.12,18.34,18.34,0,0,1-2.33-1.74c-.4-.33-.64-.56-.9-.8l-.69-.69c-.86-.85-1.46-1.47-1.83-1.8l-.36-.32a2.68,2.68,0,0,0-.56-.32c-.58-.29-1.6-.66-3-1.25l-.53-.23-.71-.34c-.49-.23-.92-.5-1.36-.76a16.88,16.88,0,0,1-2.34-1.73,20.71,20.71,0,0,1-3.55-4,21.32,21.32,0,0,1-2.41-4.65c-.16-.41-.3-.86-.44-1.29s-.26-1-.33-1.31c-.15-.72-.28-1.41-.38-2.1-.41-2.72-.5-5.13-.64-7.22a31.91,31.91,0,0,0-.66-5.25,15.11,15.11,0,0,0-1.74-4.15,22.89,22.89,0,0,0-7.3-7.18,41.55,41.55,0,0,0-10.68-4.57c-3.94-1.15-8.18-2-12.55-2.87l-26.17-5.23-13.07-2.58c-4.25-.82-8.31-1.4-12.05-.76-3.57.55-7.11,2.64-8.73,5.6a7.4,7.4,0,0,0-.84,2.38,26.54,26.54,0,0,0-.34,3c-.08,1.09-.14,2.23-.27,3.44a14.05,14.05,0,0,1-.89,3.86,10.62,10.62,0,0,1-.51,1,6.79,6.79,0,0,1-.71,1,6.07,6.07,0,0,1-2,1.51,6.35,6.35,0,0,1-4.68.45,9.24,9.24,0,0,1-3.58-2.09,18.6,18.6,0,0,1-2.47-2.75c-.72-1-1.32-1.94-1.92-2.9s-1.17-2-1.71-3a29.29,29.29,0,0,1-2.6-6.47,14.37,14.37,0,0,1-.24-7.2l.24-.89.35-.86a12.11,12.11,0,0,1,.87-1.63,12.51,12.51,0,0,1,2.44-2.68,44.33,44.33,0,0,1,5.72-3.69,16.16,16.16,0,0,0,4.93-4,9.15,9.15,0,0,0,1.72-5.91,16.31,16.31,0,0,0-1.88-6.2c-.93-2-2-4-2.81-6.06a14.69,14.69,0,0,1-1.09-6.58,13.72,13.72,0,0,1,2-6.35,10.18,10.18,0,0,1,2.21-2.51,8.82,8.82,0,0,1,2.95-1.56c2.14-.69,4.4-.69,6.56-1.18a4.73,4.73,0,0,0,2.81-1.61,4.3,4.3,0,0,0,.8-3.14Zm.1,0a4.75,4.75,0,0,1-.67,3.24,5,5,0,0,1-2.87,1.8c-2.19.59-4.45.68-6.46,1.43a8.47,8.47,0,0,0-4.59,4,12.92,12.92,0,0,0-1.61,5.95c-.18,4.18,2.11,7.84,4.19,11.87a17.73,17.73,0,0,1,2.2,6.75l.06.94-.07.94a9,9,0,0,1-.33,1.86,11,11,0,0,1-1.57,3.41,17.89,17.89,0,0,1-5.4,4.65,43.91,43.91,0,0,0-5.36,3.61,10.82,10.82,0,0,0-2,2.23,9.91,9.91,0,0,0-.66,1.3l-.27.67-.17.71a12,12,0,0,0,.35,6,27.11,27.11,0,0,0,2.55,5.84A50.2,50.2,0,0,0,57.9,333c1.29,1.64,2.85,3.19,4.55,3.66a3.31,3.31,0,0,0,2.43-.28,3.42,3.42,0,0,0,1.61-1.89,21.58,21.58,0,0,0,.74-6.22,34.31,34.31,0,0,1,.27-3.44,11.25,11.25,0,0,1,1.06-3.47,14,14,0,0,1,4.74-5.3,17.8,17.8,0,0,1,6.45-2.7c4.58-.94,9.18-.38,13.57.31l13.16,2.18,26.31,4.37c4.38.73,8.79,1.44,13.13,2.53a48.39,48.39,0,0,1,12.49,4.82,29.88,29.88,0,0,1,9.88,9,22.45,22.45,0,0,1,2.89,6.05,35.38,35.38,0,0,1,1.14,6.59c.22,2.22.38,4.43.77,6.61a16.54,16.54,0,0,0,.83,3.2,14,14,0,0,0,1.57,2.89,11.55,11.55,0,0,0,5,4.1c2,.8,4.27,1.4,6,2.85s3.18,3.14,5.07,4.3A11.73,11.73,0,0,0,198,374.8a10,10,0,0,0,3.26-.52,10.76,10.76,0,0,0,2.9-1.58,27.51,27.51,0,0,0,4.63-4.77c1.4-1.73,2.71-3.52,4.16-5.2A15.71,15.71,0,0,1,218,358.5a7.5,7.5,0,0,1,3.24-.67,9.5,9.5,0,0,1,3.22.78,16.76,16.76,0,0,1,2.85,1.7,15,15,0,0,1,2.49,2.21,12.1,12.1,0,0,1,2.69,6,26.9,26.9,0,0,1,.08,6.65c-.36,4.41-1.27,8.84-.66,13.28a15,15,0,0,0,.83,3.22c.37,1,.8,2.07,1.27,3.08a30,30,0,0,0,3.45,5.69,22.47,22.47,0,0,0,4.76,4.63,16.17,16.17,0,0,0,2.89,1.64c.51.22,1,.46,1.54.65l1.6.46a11.16,11.16,0,0,0,1.63.31,9.27,9.27,0,0,0,1.66.18l1.66.06,1.66-.12a11.29,11.29,0,0,0,1.65-.22c.55-.1,1.1-.17,1.65-.29,1.06-.3,2.16-.5,3.21-.89a64.14,64.14,0,0,0,12.05-5.63c3.84-2.25,7.54-4.71,11.15-7.3s7.19-5.23,10.62-8.07a42.14,42.14,0,0,0,9-9.79,22.7,22.7,0,0,0,3.54-12.66,15.68,15.68,0,0,0-1.56-6.42,15.36,15.36,0,0,0-4.15-5.15c-3.47-2.83-7.72-4.41-11.89-5.88s-8.45-3-12-5.76a13.44,13.44,0,0,1-4.13-5.14,15.1,15.1,0,0,1-1.24-6.5,23.84,23.84,0,0,1,4.15-12.49,34.76,34.76,0,0,1,9.64-9.08,94.65,94.65,0,0,1,11.72-6.35l12.05-5.7c2-.94,4-1.91,6-2.83s4.13-1.64,6.18-2.49a34.87,34.87,0,0,0,5.95-3,13.35,13.35,0,0,0,2.54-2.14,5.19,5.19,0,0,0,1.46-2.93,6.58,6.58,0,0,0-.7-3.22c-.44-1-.92-2-1.31-3.06A21.59,21.59,0,0,1,329,268.8a17,17,0,0,1,.86-6.57,19.37,19.37,0,0,1,3.26-5.77A25.34,25.34,0,0,1,344,249,36.41,36.41,0,0,1,357.13,247c4.45,0,8.87.54,13.31.86,2.21.18,4.43.21,6.65.33s4.43.38,6.63.72a73.82,73.82,0,0,1,12.92,3.24,28,28,0,0,1,6.05,2.74,26.74,26.74,0,0,1,5.07,4.3c3.06,3.23,5.82,6.72,8.81,10s6.09,6.48,9.35,9.5c.8.77,1.63,1.51,2.46,2.25s1.64,1.5,2.51,2.19a17.79,17.79,0,0,0,2.74,1.89,14.25,14.25,0,0,0,3.08,1.26,14.59,14.59,0,0,0,3.29.47,19.29,19.29,0,0,0,3.31-.28,39.34,39.34,0,0,0,6.4-1.84,33.17,33.17,0,0,1,6.42-1.76,15,15,0,0,1,6.59.54,19.19,19.19,0,0,1,10.41,7.89,20.73,20.73,0,0,1,2.57,6.12,23.8,23.8,0,0,1,.55,6.62,25.18,25.18,0,0,1-4.15,12.51,31.61,31.61,0,0,1-9.52,9.19,32.14,32.14,0,0,1-6.12,2.62,12.85,12.85,0,0,0-5.64,3.39,9,9,0,0,0-1.91,6.23,18.91,18.91,0,0,0,1.69,6.41,128.47,128.47,0,0,0,6.16,11.81c4.48,7.68,9.57,15,14.75,22.21A122.23,122.23,0,0,0,479.6,389a27.16,27.16,0,0,0,5,4.37,17.23,17.23,0,0,0,6.11,2.55,13.9,13.9,0,0,0,6.6-.15,10.88,10.88,0,0,0,5.44-3.66c2.78-3.53,3.72-8,5.53-12.07a16.55,16.55,0,0,1,3.68-5.51,14.21,14.21,0,0,1,5.82-3.13c4.29-1.22,8.8-1.23,13.15-2.11a19.18,19.18,0,0,0,6.23-2.26,12.5,12.5,0,0,0,4.54-4.76c2.15-3.94,2.81-8.42,3.69-12.76.41-2.18,1-4.32,1.54-6.48s1-4.34,1.39-6.52a98,98,0,0,0,1.56-13.23A64.61,64.61,0,0,0,546.07,297c-1.7-4.12-4.29-7.78-6.39-11.69-1.06-2-1.92-4-2.85-6l-2.76-6.07c-3.69-8.07-7.67-16.07-12.84-23.32a99.51,99.51,0,0,0-18-19.59,70.54,70.54,0,0,0-23.18-12.84c-8.49-2.69-17.37-3.73-26.08-5.45s-17.44-3.46-26.21-4.89c-4.39-.72-8.79-1.34-13.22-1.78s-8.88-.47-13.25-1.35a72.58,72.58,0,0,1-12.75-3.84c-4.15-1.61-8.21-3.43-12.37-5a52.13,52.13,0,0,0-12.86-3.32,36.94,36.94,0,0,0-6.65-.11,41.4,41.4,0,0,0-6.55,1.16A47.28,47.28,0,0,0,338,198.25a83.85,83.85,0,0,0-10.57,8.1c-3.35,2.92-6.58,6-10,8.84s-6.9,5.61-10.54,8.16a145.87,145.87,0,0,1-23.12,13.25c-4,1.84-8.16,3.52-12.36,5s-8.49,2.66-12.69,4.1a40.2,40.2,0,0,0-11.83,6c-3.53,2.71-6.08,6.51-9.81,9a20.08,20.08,0,0,1-6.12,2.6,66.34,66.34,0,0,1-6.56,1.2c-4.39.67-8.8,1.24-13.23,1.61a104.07,104.07,0,0,1-13.33.33,56.92,56.92,0,0,1-13.16-2,37.14,37.14,0,0,1-11.94-5.78l-1.35-1-1.23-1.12a27.65,27.65,0,0,1-2.38-2.34c-1.49-1.66-2.84-3.43-4.21-5.17a55,55,0,0,0-4.36-5,20.69,20.69,0,0,0-2.53-2.15,4.31,4.31,0,0,0-3.06-1,3.64,3.64,0,0,0-2.47,2A11.64,11.64,0,0,0,150,245.9a22.83,22.83,0,0,0-.57,3.27,17.41,17.41,0,0,1-.56,3.29,12.58,12.58,0,0,1-3.34,5.72,9.8,9.8,0,0,1-2.75,1.88,12,12,0,0,1-3.22.88,23.19,23.19,0,0,1-13-2.11,22.5,22.5,0,0,1-9.58-9,34.78,34.78,0,0,1-4.3-12.56c-.89-4.42.76-8.9-.41-13.27a21.15,21.15,0,0,0-6.74-11.2A31.66,31.66,0,0,0,94,206.26a50.67,50.67,0,0,0-13-2.8,28.92,28.92,0,0,0-13.07,1.75,17.4,17.4,0,0,0-5.51,3.64,16.72,16.72,0,0,0-3.66,5.49,23,23,0,0,0-1.59,6.43c-.15,1.1-.16,2.21-.2,3.32s0,2.22.13,3.33a38.33,38.33,0,0,0,3.34,12.82A37.4,37.4,0,0,0,63.72,246,24.22,24.22,0,0,0,68.15,251c1.72,1.42,3.59,2.62,5.33,4a14.12,14.12,0,0,1,2.37,2.33,6.17,6.17,0,0,1,1.23,3.09Z"/><path d="M159.05,371.38a10.6,10.6,0,0,1,6.39,2.56,9.29,9.29,0,0,1,2.21,2.76,12.21,12.21,0,0,1,1.12,3.38,26.39,26.39,0,0,1,.38,3.55c0,1.21-.05,2.39,0,3.51A11.61,11.61,0,0,0,172,394.5a8,8,0,0,0,1,1.05,2.48,2.48,0,0,0,1,.48c.48.13,1,.24,1.56.34l1.68.28.88.14c.28,0,.69.14,1,.22a10.51,10.51,0,0,1,3.85,1.93,7.59,7.59,0,0,1,.84.77,6.9,6.9,0,0,1,.8,1,5.76,5.76,0,0,1,1,2.63,5.65,5.65,0,0,1-.48,2.93,5.42,5.42,0,0,1-2,2.28,6.49,6.49,0,0,1-2.62,1,8.85,8.85,0,0,1-2.42,0,31.39,31.39,0,0,1-3.68-.91,13.23,13.23,0,0,0-1.39-.32c-.28,0-1-.07-1.53-.11a26.55,26.55,0,0,1-3.78-.43l-1-.23-.93-.28c-.61-.19-1.21-.41-1.8-.65a23.68,23.68,0,0,1-3.42-1.7,25.9,25.9,0,0,1-9.94-10.95,22.67,22.67,0,0,1-2.13-7,18.34,18.34,0,0,1,.55-7.16,16.28,16.28,0,0,1,1.33-3.3,12,12,0,0,1,2.2-2.76A9.08,9.08,0,0,1,159.05,371.38Zm0,0a8.58,8.58,0,0,0-6.33,2.43,10.72,10.72,0,0,0-2,2.81,13.54,13.54,0,0,0-1,3.28,14.92,14.92,0,0,0-.21,3.4,16.11,16.11,0,0,0,.48,3.33,20,20,0,0,0,2.83,6,24.5,24.5,0,0,0,9.81,8.38,24.78,24.78,0,0,0,2.95,1.17c.51.17,1,.31,1.52.44l.77.17c.23.05.46.1.71.13a27.32,27.32,0,0,0,3.18.24c.6,0,1.08,0,1.95.13a15.52,15.52,0,0,1,2,.44,30.64,30.64,0,0,0,3.1.82,2.64,2.64,0,0,0,1.71-.11.81.81,0,0,0,.46-.76,1.39,1.39,0,0,0-.15-.65,2.77,2.77,0,0,0-.27-.41,5.57,5.57,0,0,0-.41-.45,7.14,7.14,0,0,0-2.22-1.46,6,6,0,0,0-.68-.23l-.82-.24-1.73-.51c-.6-.19-1.18-.4-1.8-.66a5.86,5.86,0,0,1-1.95-1.35,10.92,10.92,0,0,1-1.21-1.61,12.73,12.73,0,0,1-.94-1.69,14.17,14.17,0,0,1-1.21-7.36c.12-1.21.34-2.35.44-3.48a20.55,20.55,0,0,0,0-3.42,9.16,9.16,0,0,0-2.77-6.11A10,10,0,0,0,159.05,371.38Z"/><path d="M384.52,300.12a36.1,36.1,0,0,0-3.35,11.19,8.05,8.05,0,0,0-.17,2.78,2.9,2.9,0,0,0,1.26,2c1.35,1,3.23.85,5.2.9,3.85.06,7.68-.23,10.17-2.13a37.79,37.79,0,0,0,4-3.75c1.49-1.44,3-2.66,4.23-3.93a12.37,12.37,0,0,0,2.85-3.83,10.28,10.28,0,0,0,.67-4.61,8.14,8.14,0,0,0-.5-2.23,9.23,9.23,0,0,0-1.23-2,9.48,9.48,0,0,0-4.1-2.92,14.52,14.52,0,0,0-10.89.46A17.89,17.89,0,0,0,384.52,300.12Zm0,0a21.81,21.81,0,0,1,7.79-8.72,17.68,17.68,0,0,1,5.63-2.18,15.87,15.87,0,0,1,6.26-.09,12.27,12.27,0,0,1,5.94,2.9c.39.4.79.8,1.17,1.23a9.47,9.47,0,0,1,1.05,1.47,10.54,10.54,0,0,1,1.26,3.33,13.47,13.47,0,0,1-.41,7,15.32,15.32,0,0,1-3.86,5.7c-1.52,1.48-3.09,2.72-4.5,3.93a29.06,29.06,0,0,1-5,3.85,13.77,13.77,0,0,1-6.55,1.62,31.8,31.8,0,0,1-6.13-.66c-1-.19-2-.35-3-.64a6.82,6.82,0,0,1-2.93-1.6,4.21,4.21,0,0,1-1.37-3.05,10.13,10.13,0,0,1,.58-3A55.73,55.73,0,0,1,384.52,300.12Z"/></svg>