<svg id="Layer_1" data-name="Layer 1" xmlns="http://www.w3.org/2000/svg" viewBox="0 0 600 600"><title>Philippines</title><path d="M302.84,223.39a13.93,13.93,0,0,1-3.27-.51,14.7,14.7,0,0,1-3.13-1.19,7.9,7.9,0,0,1-2.63-2.23,8,8,0,0,1-1.37-3.27c-.45-2.33-.18-4.59-.48-6.65a25.5,25.5,0,0,0-1.57-6.12c-1.53-4-3.78-7.67-5.74-11.66-1-2-2-4-2.89-6.12a30.13,30.13,0,0,1-1.94-6.79c-.74-4.63-.61-9.61,1.64-14.18a13.79,13.79,0,0,1,5.15-5.68c.57-.31,1.16-.59,1.74-.88a13,13,0,0,1,1.82-.62,23.77,23.77,0,0,1,3.55-.64,30.51,30.51,0,0,0,6.15-1A15.62,15.62,0,0,0,305,153a20.65,20.65,0,0,0,4-4.44,23.24,23.24,0,0,0,2.75-5.45A34.45,34.45,0,0,0,313.58,131a36.81,36.81,0,0,0-.63-6.12,31.64,31.64,0,0,0-1.77-5.89c-1.56-3.89-3.87-7.72-5.63-12.43a26.62,26.62,0,0,1-1.75-7.85c0-.36-.05-.71-.05-1.08l0-1.11c0-.77.12-1.43.19-2.16.18-1.37.44-2.68.72-3.89A48.12,48.12,0,0,0,306,84a7,7,0,0,1,1.08-4.16,7.27,7.27,0,0,0,1-1.71,2,2,0,0,0-.12-1.77,5.55,5.55,0,0,0-1-1.19,3.44,3.44,0,0,0-1-.55,1.38,1.38,0,0,0-.52,0,1.83,1.83,0,0,0-.8.72c-.15.23-.28.55-.44.81s-.12.29-.19.47l-.11.35-.11.32c-.07.18-.13.33-.23.56a5.24,5.24,0,0,1-1.61,2,5.42,5.42,0,0,1-1.12.63c-.25.09-.64.22-.78.25a8.84,8.84,0,0,1-1.54.21l-.92,0-.91,0a61.43,61.43,0,0,1-14.26-1.22,55.45,55.45,0,0,1-13.55-4.66q-.81-.41-1.59-.84l-1.5-.83a11.14,11.14,0,0,0-2.15-1,1.21,1.21,0,0,0-.55-.07.45.45,0,0,0-.26.12,3.41,3.41,0,0,0-.66.82,9.35,9.35,0,0,0-.89,1.89,9.47,9.47,0,0,0-.41,2.88c-.09,2.27.45,4.73.26,6.75a13,13,0,0,1-.56,2.9c-.22.94-.46,1.87-.66,2.81l-.55,2.83c-.14,1-.31,1.89-.46,2.82a94,94,0,0,0-.39,22.39l.16,1.37.22,1.35c.13.91.28,1.81.45,2.71.28,1.76.71,3.58,1.22,6a62.59,62.59,0,0,1,1.28,8.29,20.34,20.34,0,0,1-.13,5.14,13.68,13.68,0,0,1-.3,1.35c-.1.46-.24.86-.44,1.51-.09.28-.19.6-.29.85l-.33.74a12.92,12.92,0,0,1-.7,1.34,28,28,0,0,1-3.24,4.32,22.89,22.89,0,0,1-4.19,3.59,25.16,25.16,0,0,1-6,2.93,14.48,14.48,0,0,1-4.09.68,11.8,11.8,0,0,1-3.76-.72,10.57,10.57,0,0,1-3.11-1.76,10,10,0,0,1-2.05-2.28,29.78,29.78,0,0,1-1.83-3.61c-.76-1.67-1.68-1.47-1.74-1.29a7.22,7.22,0,0,0-.69.62,4,4,0,0,0-.75,1.31,1.61,1.61,0,0,0-.1.36,1.4,1.4,0,0,0-.05.34l0,.16v.25c0,.17,0,.34,0,.52a14.79,14.79,0,0,0,.4,2.49l.75,3.1.82,3.22,1.66,6.43c1.11,4.29,2.19,8.59,3.16,12.9.51,2.15.91,4.33,1.37,6.49.23,1.08.42,2.16.61,3.25l.56,3.21c.14.83.39,1.6.52,2.38a15.07,15.07,0,0,1,.18,2.46c0,1.71,0,3.79,1.08,5.32a5.27,5.27,0,0,0,2,1.71,2.18,2.18,0,0,0,1.82,0,.81.81,0,0,0,.43-.53,1,1,0,0,0-.18-.59,4,4,0,0,1-.4-1.91,7.93,7.93,0,0,1,.12-1.73,13.84,13.84,0,0,1,1.16-2.86A16.54,16.54,0,0,1,248,195.4a17.42,17.42,0,0,1,4.91-3,12.83,12.83,0,0,1,5.71-.85,14.62,14.62,0,0,1,10.88,5.92,12.32,12.32,0,0,1,2.37,6.11A17.07,17.07,0,0,1,269.4,214a10.81,10.81,0,0,1-4.29,3.93,16.55,16.55,0,0,1-4.5,1.26,7.47,7.47,0,0,0-2.34.68.4.4,0,0,0-.18.34,1.78,1.78,0,0,0,0,.34,3.22,3.22,0,0,0,.11,1,2.27,2.27,0,0,0,.54,1.07,1.16,1.16,0,0,0,.4.29c.08,0,.14,0,.21,0l.26.16a18.63,18.63,0,0,0,7.23,1.47,27.48,27.48,0,0,0,8.47-1.08c.65-.16,1.21-.37,1.85-.58s1.42-.45,2.3-.75,1.9-.56,3-.89a11.4,11.4,0,0,1,3.87-.65,13.23,13.23,0,0,1,4.8,1.17,27.69,27.69,0,0,1,4.83,2.76c1.46,1,2.79,1.93,4.07,2.71s2.56,1.25,3.77,1.9a74.63,74.63,0,0,1,6.9,4c1.12.69,2.16,1.44,3.24,2.25a26.3,26.3,0,0,1,3.08,2.68,27.24,27.24,0,0,1,4.7,6.32c.63,1.11,1.13,2.25,1.63,3.37.24.57.46,1.13.69,1.69s.42,1.08.67,1.78c.41,1.26.68,2.16.86,2.57.08.2.12.26.06.22a2,2,0,0,0-.33-.16c-.13,0-.38.06-.15.05a2.54,2.54,0,0,0,1.15-.58,6.36,6.36,0,0,0,1.28-1.36,4.06,4.06,0,0,0,.65-1.38,4,4,0,0,0-.61-3,7.91,7.91,0,0,0-.6-.91,6.43,6.43,0,0,0-.71-.81,16.88,16.88,0,0,0-2.55-1.95,15.52,15.52,0,0,1-1.72-1.41,7.23,7.23,0,0,1-1.1-1.34,6.71,6.71,0,0,1-1-2.47,6.23,6.23,0,0,1,.84-4.38,7.38,7.38,0,0,1,.73-.92,8.19,8.19,0,0,1,.76-.68,7.12,7.12,0,0,1,1.36-.79,8.6,8.6,0,0,1,1.14-.39,8.77,8.77,0,0,1,.93-.17,10.23,10.23,0,0,1,1.52-.07,11.83,11.83,0,0,1,5,1.41,21,21,0,0,1,3.51,2.37,60,60,0,0,1,5.75,5,34.15,34.15,0,0,1,4.65,6A29.72,29.72,0,0,1,348,249.5c.52,1.17.95,2.31,1.34,3.36a29.13,29.13,0,0,0,2.33,5.29,18.58,18.58,0,0,0,3.3,4,38,38,0,0,0,9.61,6.28c3.74,1.81,7.48,3.29,10.28,3.38a9,9,0,0,0,1.92-.13,4.62,4.62,0,0,0,1.3-.48,3.73,3.73,0,0,0,1.74-1.7c.09-.23.06-.34,0-.35s-.07-.05-.15-.14a5.4,5.4,0,0,0-1.77-1.71c-.55-.37-1.18-.76-1.87-1.13s-1.63-.78-2.59-1.21a40.44,40.44,0,0,1-6.93-3.63,21.29,21.29,0,0,1-3.74-3.23,15.32,15.32,0,0,1-3.05-5.06,15.71,15.71,0,0,1-1-5.68,13.07,13.07,0,0,1,1.73-6.43,11.39,11.39,0,0,1,5.71-4.84,12.93,12.93,0,0,1,6.39-.69,22.85,22.85,0,0,1,4.29,1.09c1.14.39,2.12.76,2.88,1a11.72,11.72,0,0,0,1.62.42,1,1,0,0,1,.17,0,.11.11,0,0,1,.1,0s0,0,0,0l0,0c.05,0,.24,0,.46-.31a3.36,3.36,0,0,0,.56-1.23,4.82,4.82,0,0,0,.13-1.55,5.81,5.81,0,0,0-.51-1.77,15.31,15.31,0,0,0-3-4.15c-.67-.71-1.41-1.42-2.2-2.16s-1.56-1.47-2.28-2.09a11.37,11.37,0,0,0-4.09-2.51,8.63,8.63,0,0,0-4.71.26,49.71,49.71,0,0,0-5.8,2.28,37.37,37.37,0,0,1-6.73,2.45,14.55,14.55,0,0,1-4,.36,18.55,18.55,0,0,1-2.07-.33c-.67-.21-1.32-.48-2-.74a11.07,11.07,0,0,1-3.21-2.42,19.7,19.7,0,0,1-2.2-2.91,63.84,63.84,0,0,0-3.5-5.46,13.76,13.76,0,0,0-4.64-3.9,8.8,8.8,0,0,0-6-.56,20.33,20.33,0,0,0-5.92,2.64c-1.88,1.15-3.61,2.53-5.39,3.84a44,44,0,0,1-5.52,3.66,19.07,19.07,0,0,1-3.05,1.31,12.07,12.07,0,0,1-3.27.52Zm0-.07a8,8,0,0,0,1.63-.26,14.17,14.17,0,0,0,1.57-.47,19.4,19.4,0,0,0,2.91-1.48,50.74,50.74,0,0,0,5.23-3.94c1.7-1.41,3.36-2.88,5.23-4.15a21.83,21.83,0,0,1,6.14-3.13,10.54,10.54,0,0,1,7.09.28,15.51,15.51,0,0,1,5.6,4.15,61,61,0,0,1,3.94,5.44,11.58,11.58,0,0,0,4.49,4.16,8.78,8.78,0,0,0,6,.24,34,34,0,0,0,6-2.49,53.44,53.44,0,0,1,6.09-2.78,13.09,13.09,0,0,1,6.8-.75,14.65,14.65,0,0,1,6.08,3c1.76,1.38,3.44,2.8,5.08,4.32a21.36,21.36,0,0,1,4.22,5.22,11.79,11.79,0,0,1,1.2,3.17,10.16,10.16,0,0,1,.09,3.39,8,8,0,0,1-3.34,5.71,6.24,6.24,0,0,1-3.24.93,12.78,12.78,0,0,1-3.32-.45,52.26,52.26,0,0,0-6.39-1.67,6.57,6.57,0,0,0-3.2.36,4.78,4.78,0,0,0-2.41,2.09,7.67,7.67,0,0,0-.18,6.36,10.31,10.31,0,0,0,4.25,4.91c3.69,2.46,8.18,3.41,11.76,6.05a11.43,11.43,0,0,1,4.15,5.05,7.31,7.31,0,0,1-.62,6.36,10.63,10.63,0,0,1-4.95,4.25,12.69,12.69,0,0,1-6.48.87c-4.43-.49-8.48-2.5-12.37-4.54a42.47,42.47,0,0,1-10.69-7.73,23.7,23.7,0,0,1-3.91-5.32,36.61,36.61,0,0,1-2.41-6.16,31.4,31.4,0,0,0-2.54-6.11,30.44,30.44,0,0,0-3.87-5.36,28.19,28.19,0,0,0-5-4.36,10.84,10.84,0,0,0-6.12-2.26,4.27,4.27,0,0,0-1.62.3,1.14,1.14,0,0,0-.77,1.3,3.18,3.18,0,0,0,.8,1.43,14.34,14.34,0,0,0,1.16,1.18c.82.74,1.69,1.42,2.49,2.18a13.23,13.23,0,0,1,2.08,2.57,8.68,8.68,0,0,1,1.34,6.32,10.05,10.05,0,0,1-3.42,5.53,8.23,8.23,0,0,1-2.87,1.61,4.69,4.69,0,0,1-3.24-.15,4.74,4.74,0,0,1-2.28-2.31,28.17,28.17,0,0,1-1.22-3.08,35.59,35.59,0,0,0-6.69-11.34,23.88,23.88,0,0,0-5.14-4.15,27.24,27.24,0,0,0-6-2.78,25.66,25.66,0,0,0-6.49-1.22,27,27,0,0,0-6.59.52c-4.33.82-8.57,2.25-13,2.4a31.26,31.26,0,0,1-13-2.19,25.11,25.11,0,0,1-5.79-3.18,13.48,13.48,0,0,1-4.22-5,8.85,8.85,0,0,1-.38-6.46,6.6,6.6,0,0,1,4.43-4.54c2.14-.6,4.44-.24,6.51-1.11a5.23,5.23,0,0,0,2.44-2.16,7,7,0,0,0,.94-3.15,7.57,7.57,0,0,0-2.24-6,9.17,9.17,0,0,0-6.09-2.2,11.3,11.3,0,0,0-3.27.42,10.9,10.9,0,0,0-3,1.3,9,9,0,0,0-2.48,2.16,14.77,14.77,0,0,0-1.65,2.86,8.36,8.36,0,0,1-1.95,2.65,4.75,4.75,0,0,1-3.07,1.05,6.94,6.94,0,0,1-3.19-.79,16.91,16.91,0,0,1-2.75-1.84,19.22,19.22,0,0,1-6.18-11.42l-4.69-26.08-2.32-13.05a11.76,11.76,0,0,1,.42-6.52,6.72,6.72,0,0,1,4.85-4.11,4.61,4.61,0,0,1,3.14.8,7.46,7.46,0,0,1,2.2,2.44,18.8,18.8,0,0,0,1.85,2.74,4.58,4.58,0,0,0,2.82,1.59,4.39,4.39,0,0,0,3.15-.71,9.06,9.06,0,0,0,2.31-2.35,20.23,20.23,0,0,0,2.81-6,19.38,19.38,0,0,0,.55-6.57,50.18,50.18,0,0,0-1-6.55,94.88,94.88,0,0,1-1.92-13.1,81.91,81.91,0,0,1,2.47-26.27A79.83,79.83,0,0,1,252,80.75c.91-2,1.89-4,3-5.92a18.77,18.77,0,0,1,3.88-5.33,6.85,6.85,0,0,1,2.89-1.56,6,6,0,0,1,3.27.17,16.34,16.34,0,0,1,3,1.4c1,.54,1.92,1.08,2.91,1.57a52.47,52.47,0,0,0,12.45,4.42,53,53,0,0,0,13.16,1.2q.82,0,1.65-.09a4.38,4.38,0,0,0,.82-.11.81.81,0,0,0,.62-.48c.2-.51.33-1,.56-1.56s.47-1,.76-1.47a7,7,0,0,1,2.34-2.3,5.67,5.67,0,0,1,3.21-.63,7.57,7.57,0,0,1,3.07,1.17A9.92,9.92,0,0,1,312,73.52a11.18,11.18,0,0,1,2,6.22,20.34,20.34,0,0,1-1.18,6.5c-.68,2.1-1.53,4.14-2.24,6.23a21.65,21.65,0,0,0-1.35,6.45,22.7,22.7,0,0,0,.76,6.56c1.06,4.29,2.92,8.33,4.29,12.53a38.84,38.84,0,0,1-.36,26,25.83,25.83,0,0,1-7.58,10.71,17.57,17.57,0,0,1-5.81,3.12,33.47,33.47,0,0,1-6.53,1.08,15.23,15.23,0,0,0-6.29,1.85,11.67,11.67,0,0,0-4.37,4.84c-2,4-2.17,8.61-1.5,12.94s2.6,8.42,4.57,12.36A84.89,84.89,0,0,1,291.79,203a26.54,26.54,0,0,1,1.26,6.49c.18,2.21-.2,4.43.11,6.62a7.57,7.57,0,0,0,3.42,5.4,10.63,10.63,0,0,0,6.26,1.76Z"/><path d="M413.33,285.82a30,30,0,0,0-8-2.13,51.13,51.13,0,0,0-8.31-.29c-1.41-.06-2.79-.24-4.12-.17a4.3,4.3,0,0,0-1.76.39,4.85,4.85,0,0,0-1.38,1.1,1.11,1.11,0,0,0-.13,1.2,4.09,4.09,0,0,0,1,1.29,19.15,19.15,0,0,0,3.25,2.17c2.37,1.3,4.88,2.35,7.44,3.64a14.25,14.25,0,0,1,2,1.22l.28.22.22.19.42.37c.28.25.54.52.82.78a21.92,21.92,0,0,1,2.9,3.51,18,18,0,0,1,3.11,8.85c0,.41,0,.82,0,1.23l-.06,1.17,0,.82c0,.28,0,.55,0,.82a10.93,10.93,0,0,0,.86,3.26,15.28,15.28,0,0,0,4.22,5.62,11.15,11.15,0,0,0,6.06,2.77,4.35,4.35,0,0,0,2.66-.67,5.28,5.28,0,0,0,1.87-2.44l.31-.82a1.09,1.09,0,0,0-.05.28.89.89,0,0,0,0,.13v-.26l-.05-.49-.23-2-.51-4.14c-.17-1.4-.35-2.71-.46-4.24a34.57,34.57,0,0,1,.28-4.28,18.05,18.05,0,0,0,.05-4A13.85,13.85,0,0,0,425,297,22.76,22.76,0,0,0,413.33,285.82Zm0,0a25.71,25.71,0,0,1,12.33,10.87,16.05,16.05,0,0,1,1.55,4,19.34,19.34,0,0,1,.39,4.27,27.65,27.65,0,0,0,.21,4c.24,1.23.6,2.64.93,4l1,4,.49,2.05.12.54.06.31a2.55,2.55,0,0,1,0,.87l-.3,1.16a9.1,9.1,0,0,1-2.73,4.36,8.24,8.24,0,0,1-5.09,1.9,12.57,12.57,0,0,1-4.94-.94,17.39,17.39,0,0,1-4.15-2.39,18.87,18.87,0,0,1-5.8-7.45,15.69,15.69,0,0,1-1.19-4.77l0-1.26c0-.42,0-.84.08-1.25l.08-.91c0-.28,0-.56,0-.85a14.59,14.59,0,0,0-2-6.81,21.83,21.83,0,0,0-2.11-3.11c-.21-.24-.4-.49-.62-.72l-.33-.35-.16-.18-.11-.11a11.87,11.87,0,0,0-1.43-1.05c-2.25-1.46-4.71-2.89-7-4.55a20.47,20.47,0,0,1-3.34-2.89,5.7,5.7,0,0,1-1.26-2.14,2.84,2.84,0,0,1,0-1.45,5.8,5.8,0,0,1,.27-.69l.41-.55a6.11,6.11,0,0,1,2-1.3,5.4,5.4,0,0,1,2.3-.3c1.46.07,2.82.42,4.17.56C402.57,282.94,408.24,283.59,413.33,285.82Z"/><path d="M404.29,324.44c-.08-1.39.21-2.86-.4-4.16a7.93,7.93,0,0,0-3-2.85c-2.34-1.57-4.7-3.11-7.08-4.64a26.38,26.38,0,0,0-3.54-2.13,3.62,3.62,0,0,0-1.75-.36,1.61,1.61,0,0,0-1.17.82,9.25,9.25,0,0,0-.63,3.74,29.21,29.21,0,0,0,.15,4.07c.28,2.72.86,5.43,1.41,8.2.27,1.38.53,2.79.76,4.22a16,16,0,0,0,.34,1.86c.15.47.29.62.41.69a2.17,2.17,0,0,0,.85.24c.49.06,1.13.07,1.88.11a10.52,10.52,0,0,1,2.65.42,6.69,6.69,0,0,1,2.72,1.65,9.75,9.75,0,0,1,2.57,4.93,22.35,22.35,0,0,1,.32,4.73,18.6,18.6,0,0,0,.18,3.71,10.32,10.32,0,0,0,13.14,8,10.72,10.72,0,0,0,3.3-1.55,4.32,4.32,0,0,0,1.13-1,1.15,1.15,0,0,0,.17-1.05c-.1-.5-.38-1.22-.6-1.9l-.65-2-1.24-4a72.16,72.16,0,0,0-2.86-7.9,27.23,27.23,0,0,0-2-3.67,17.46,17.46,0,0,0-2.85-3,17.57,17.57,0,0,1-2.9-3.07A7.8,7.8,0,0,1,404.29,324.44Zm0,0a7.71,7.71,0,0,0,1.33,3.94,16.43,16.43,0,0,0,3,3,19.32,19.32,0,0,1,3,2.95,33.1,33.1,0,0,1,2.3,3.59,83,83,0,0,1,3.67,7.68l1.69,3.87.88,1.9c.28.64.61,1.19.92,2a4.34,4.34,0,0,1,.25,1.47,3.92,3.92,0,0,1-.39,1.58,6.88,6.88,0,0,1-1.67,2.07,13.13,13.13,0,0,1-4.05,2.54A14,14,0,0,1,398,355.33a14.41,14.41,0,0,1-1.87-4.69,22.59,22.59,0,0,1-.32-4.71,18.2,18.2,0,0,0-.17-3.68,5.17,5.17,0,0,0-1.13-2.53,2.21,2.21,0,0,0-.82-.58,5.83,5.83,0,0,0-1.5-.3c-.65-.08-1.42-.12-2.32-.31a6.06,6.06,0,0,1-2.95-1.45,4.77,4.77,0,0,1-1.07-1.49,6.14,6.14,0,0,1-.46-1.49,18.92,18.92,0,0,1-.2-2.33c-.08-1.37-.2-2.75-.33-4.15-.24-2.8-.48-5.68-.44-8.59a30.4,30.4,0,0,1,.36-4.36c.1-.73.26-1.44.42-2.16a6.16,6.16,0,0,1,.95-2.23,3,3,0,0,1,2.33-1.26,4.81,4.81,0,0,1,2.29.67,35,35,0,0,1,3.47,2.55q3.36,2.56,6.78,5.05a8.34,8.34,0,0,1,3,3C404.54,321.58,404.22,323.05,404.29,324.44Z"/><path d="M437,371.93a11.39,11.39,0,0,0-2.77-2.55,5.32,5.32,0,0,0-1.74-.61,5.81,5.81,0,0,0-1.77,0,4.81,4.81,0,0,0-2.83,1.72,9.18,9.18,0,0,0-1.64,3.05,13,13,0,0,0-.36,6.88c.5,2.38,1.29,4.81,1.69,7.51a18,18,0,0,1,.13,4.24,14.37,14.37,0,0,1-.43,2.21,6.66,6.66,0,0,1-1.17,2.48,4.41,4.41,0,0,1-.76.72,4,4,0,0,1-1.05.52,4.9,4.9,0,0,1-1.84.19,19.3,19.3,0,0,1-2.21-.37l-3.72-.77a24.82,24.82,0,0,0-6.76-.68,12.42,12.42,0,0,0-5.66,1.83,7.49,7.49,0,0,0-3.22,3.84,7,7,0,0,0-.24,1.11c-.06.41-.1.93-.13,1.47-.07,1.12-.08,2.43-.28,4a15.81,15.81,0,0,1-.53,2.54,11.89,11.89,0,0,1-1.25,2.81,11.1,11.1,0,0,1-2.15,2.54,14.94,14.94,0,0,1-2.37,1.66c-1.5.85-2.81,1.39-3.76,1.88l-.33.17-.48.25-1,.48-1.83.8a16.09,16.09,0,0,0-2.62,1.36c-.68.46-1.62,1.22-3,2.12a15.38,15.38,0,0,1-5.69,2.27,12.5,12.5,0,0,1-3.7.09,10.45,10.45,0,0,1-4.46-1.61,11.51,11.51,0,0,1-3.22-3.35c-.61-.93-1-1.69-1.35-2.33s-.61-1.17-.83-1.51a1.53,1.53,0,0,0-.24-.33s0,0,0,0l0,0-.09-.09a3.49,3.49,0,0,0-1.21-.89,2,2,0,0,0-.84-.11l.58.09a8.7,8.7,0,0,0-4.31,1.57,26.42,26.42,0,0,0-5.23,4.44c-1.82,1.9-3.8,4.33-6.27,6.79a38.28,38.28,0,0,1-9.49,7.18,33.15,33.15,0,0,1-6.17,2.35,46.2,46.2,0,0,1-5.64,1.08c-1.74.22-3.39.37-4.84.51s-2.8.3-4,.5a17.89,17.89,0,0,0-2.88.7,8.49,8.49,0,0,0-1.72.88,35.84,35.84,0,0,1-3,2.18A15,15,0,0,0,304,448a10.09,10.09,0,0,0-1.81,3.15,8.43,8.43,0,0,0,1.18,7.4,18.75,18.75,0,0,0,5.85,5.53,17.49,17.49,0,0,0,3.59,1.71,4.93,4.93,0,0,0,2.87.21,1.77,1.77,0,0,0,.42-.18,2.5,2.5,0,0,0,.38-.27,1.49,1.49,0,0,0,.42-.63,10.88,10.88,0,0,0,.58-2.58c.29-2.39.14-5.48.69-9.15a19.4,19.4,0,0,1,1.91-6.18,16.39,16.39,0,0,1,2.37-3.29,18.27,18.27,0,0,1,3.24-2.57,16.65,16.65,0,0,1,7.41-2.27,32.27,32.27,0,0,1,5.9.16c1.61.17,2.94.33,3.95.34a4.33,4.33,0,0,0,1.88-.24,4.46,4.46,0,0,0,1.24-.9c.34-.29.82-.78,1.35-1.28s1.19-1.19,2.09-1.92a18,18,0,0,1,3.29-2.18,14.9,14.9,0,0,1,6.9-1.7c.36,0,.83,0,1.1,0l.86.08a23.74,23.74,0,0,1,3.39.56,25.1,25.1,0,0,1,11.48,6.28A26,26,0,0,1,383.45,449a23.3,23.3,0,0,1,1.11,6.61c0,1.11-.06,2.15-.14,3.21s-.26,2.07-.5,3a48.93,48.93,0,0,1-3.65,10.07,77.38,77.38,0,0,1-4.17,7.74,24.19,24.19,0,0,0-3.26,7.08,10.36,10.36,0,0,0-.17,3.94,12.08,12.08,0,0,0,1.4,3.91,13.18,13.18,0,0,0,6.3,5.54,14.55,14.55,0,0,0,2,.67,9.3,9.3,0,0,0,1,.19,7.3,7.3,0,0,0,1,.13,15.07,15.07,0,0,0,2-.07l1-.12c.32-.07.63-.18.94-.27,1.25-.36,2.69-.93,4.15-1.49a32.91,32.91,0,0,1,4.85-1.56,14,14,0,0,1,6.61-.07,10.65,10.65,0,0,1,2,.71,11.54,11.54,0,0,1,2,1.25,12.2,12.2,0,0,1,1.69,1.68,11.32,11.32,0,0,1,1.28,2,12.61,12.61,0,0,1,1.28,4.12,26.31,26.31,0,0,1,.19,3.18,12.08,12.08,0,0,0,.2,3.22,2.07,2.07,0,0,0,.62,1,4.51,4.51,0,0,0,1.56,1.07,11.63,11.63,0,0,0,2.78,1,20.23,20.23,0,0,0,3.44.58,25.2,25.2,0,0,0,3.69.09c.57,0,1.31-.08,2-.15s1.33-.14,2-.23a24.55,24.55,0,0,0,3.49-.74,12.75,12.75,0,0,0,2.67-1.16,8.94,8.94,0,0,0,1-.72,11.62,11.62,0,0,0,1-.8,9,9,0,0,0,1.65-2.25,10.64,10.64,0,0,0,.79-6.64,13.19,13.19,0,0,0-1.11-3.46l-.4-.82-.45-.78a17.84,17.84,0,0,0-1.07-1.6,82,82,0,0,0-5.41-6.32,52.29,52.29,0,0,1-5.72-7.5,20,20,0,0,1-2.3-4.76,17.38,17.38,0,0,1-.66-5.83c.05-2,.34-4,.52-5.83a53,53,0,0,0,.25-5.43,28.3,28.3,0,0,1,.49-5.34l.27-1.32a13.7,13.7,0,0,1,.49-1.64,7.9,7.9,0,0,1,1.11-2,6.27,6.27,0,0,1,5.32-2.49,8.51,8.51,0,0,1,2.19.37,12.33,12.33,0,0,1,1.55.56l1.18.54a35.6,35.6,0,0,1,4.56,2.52,35.21,35.21,0,0,1,13.71,16.18c.37.85.62,1.77.92,2.66s.46,1.84.68,2.76.31,1.89.4,2.84.13,2,.14,2.83a25,25,0,0,0,.19,3.72c.07.35.18.5.2.43a.93.93,0,0,0-.22-.55,1.67,1.67,0,0,0-.51-.46c-.12-.06,0-.05.22-.07a12.85,12.85,0,0,0,2.63-.59l1.93-.64c.67-.23,1.31-.43,1.92-.65a26.17,26.17,0,0,0,3.2-1.38,9,9,0,0,0,2.08-1.41,4.29,4.29,0,0,0,.63-.66,1.39,1.39,0,0,0,.24-.37c.07-.13.18-.25.24-.39a5.86,5.86,0,0,0,.48-1.88,11.67,11.67,0,0,0-.31-2.87,43.32,43.32,0,0,0-2.57-7.52c-1.16-2.75-2.53-5.62-3.59-9a81.49,81.49,0,0,1-2.33-9.57c-.56-3.11-1-6.13-1.57-9.05-1.1-5.83-2.59-11.25-5.93-15.8a51,51,0,0,1-5.18-8.19,14.42,14.42,0,0,1-1.38-5,18.25,18.25,0,0,1,.43-5c1.16-6.14,3.95-12,1.66-17.81a25.18,25.18,0,0,0-5.05-7.55c-2.09-2.25-4.31-4.37-6.37-6.65Zm0-.05c2.25,2.1,4.62,4.05,6.9,6.15a35,35,0,0,1,3.22,3.43,18.45,18.45,0,0,1,2.47,4.13,16.91,16.91,0,0,1,1,9.55c-.52,3.06-1.23,6.06-1.65,9a16.11,16.11,0,0,0-.14,4.37,11.53,11.53,0,0,0,1.35,4,46.45,46.45,0,0,0,5.32,7.29,31.93,31.93,0,0,1,4.92,8,60.11,60.11,0,0,1,2.95,8.79c1.58,5.95,2.68,12,4.83,17.73s5.63,10.94,7.23,16.92a18.94,18.94,0,0,1,.65,4.56,12.9,12.9,0,0,1-.86,4.51c-.14.35-.34.68-.5,1a6.2,6.2,0,0,1-.58,1,11.26,11.26,0,0,1-1.46,1.77,15.64,15.64,0,0,1-3.71,2.69,43.32,43.32,0,0,1-8.62,3.19,17.44,17.44,0,0,1-4.54.68,6,6,0,0,1-4.22-1.52,6.2,6.2,0,0,1-1.74-4.15,33.65,33.65,0,0,1,.09-4.6,24.07,24.07,0,0,0-1.19-9.07,28.79,28.79,0,0,0-11-14.36,32.17,32.17,0,0,0-4-2.34,14,14,0,0,0-2.1-.93,3.12,3.12,0,0,0-2.25,0,2.93,2.93,0,0,0-1.43,1.73,12.14,12.14,0,0,0-.56,2.23,24.21,24.21,0,0,0-.38,4.58,28,28,0,0,0,1.67,9,42.33,42.33,0,0,0,4.1,8.22c3.19,5.23,6.95,10.15,9.51,15.75a27.41,27.41,0,0,1,2.49,8.82,21,21,0,0,1-.9,9.08,15.93,15.93,0,0,1-2.14,4.06,14.24,14.24,0,0,1-3.35,3.13,21.83,21.83,0,0,1-8.61,3,39.71,39.71,0,0,1-9.17.52,22.91,22.91,0,0,1-8.87-2.23,9.68,9.68,0,0,1-5.51-6.93,20.72,20.72,0,0,1-.06-4.59,9.64,9.64,0,0,0-.61-4.52,6.47,6.47,0,0,0-1.36-1.84,7.9,7.9,0,0,0-.94-.66,5.77,5.77,0,0,0-1-.46,12.25,12.25,0,0,0-4.55-.42c-3.07.19-6.06,1-9.13,1.17a16.92,16.92,0,0,1-8.87-2,19.06,19.06,0,0,1-6.9-6,18.74,18.74,0,0,1-2.23-4,16.88,16.88,0,0,1-1-4.47,22.88,22.88,0,0,1,1.24-9.06c1.84-5.85,5-11.27,6.07-17.35.17-.75.19-1.52.29-2.28s.05-1.54,0-2.3a17.29,17.29,0,0,0-.9-4.5,19,19,0,0,0-5.05-7.58,22.76,22.76,0,0,0-1.78-1.47,18.63,18.63,0,0,0-1.95-1.21,17.23,17.23,0,0,0-4.27-1.67,14.54,14.54,0,0,0-2.27-.38,8.24,8.24,0,0,0-2.29,0,8.56,8.56,0,0,0-4.08,2c-1.19,1-2.25,2.08-3.43,3.06a11.25,11.25,0,0,1-4,2.27,12.76,12.76,0,0,1-4.56.47c-1.53-.08-3.05-.31-4.57-.51a26.11,26.11,0,0,0-4.59-.31,10.18,10.18,0,0,0-4.42,1.11,11.13,11.13,0,0,0-1.87,1.33,9.86,9.86,0,0,0-1.43,1.79,16,16,0,0,0-1.68,4.27c-.77,3-1.05,6.05-1.9,9a10.46,10.46,0,0,1-2.07,4.08,6.23,6.23,0,0,1-4,2,9.75,9.75,0,0,1-4.48-.87,25.81,25.81,0,0,1-4-2.22,25.23,25.23,0,0,1-6.6-6.35,20.17,20.17,0,0,1-3.52-8.42,17.81,17.81,0,0,1,.95-9.06,15.15,15.15,0,0,1,5.51-7.21,17.77,17.77,0,0,1,4.14-2,27.45,27.45,0,0,1,4.48-1c3-.47,6.11-.58,9.16-.94a43.24,43.24,0,0,0,4.53-.76,23.7,23.7,0,0,0,4.33-1.53,30.25,30.25,0,0,0,7.4-5.4c2.24-2.11,4.31-4.37,6.54-6.48a32.67,32.67,0,0,1,7.4-5.45,15.41,15.41,0,0,1,8.9-1.85h0a10.22,10.22,0,0,1,6.19,4.09,16.4,16.4,0,0,1,1.76,3.34,7.69,7.69,0,0,0,2.08,3.1,5.22,5.22,0,0,0,3.61.67,9.5,9.5,0,0,0,3.53-1.28c1.09-.62,2.13-1.35,3.25-1.95a24.26,24.26,0,0,1,3.49-1.46c1.19-.42,2.37-.86,3.52-1.37s2.37-.9,3.49-1.47a7.12,7.12,0,0,0,2.85-2.39,9,9,0,0,0,1.3-3.51c.46-2.47.36-5.08,1.41-7.42a11.57,11.57,0,0,1,5.23-5.32,15.87,15.87,0,0,1,7.3-1.81,28.27,28.27,0,0,1,7.47,1.18l3.66,1a12.87,12.87,0,0,0,1.84.41,1.73,1.73,0,0,0,1.67-.56,4.91,4.91,0,0,0,.82-1.67,11.7,11.7,0,0,0,.43-1.84,15.76,15.76,0,0,0,.05-3.76c-.22-2.52-.84-5-1.21-7.47a14.27,14.27,0,0,1,.89-7.45,9.81,9.81,0,0,1,2-3.2,5,5,0,0,1,5.19-1.5,6.1,6.1,0,0,1,1.71.81,21,21,0,0,1,2.83,2.51Z"/><path d="M442.53,362.4a3.61,3.61,0,0,0,.15,2.51,2.86,2.86,0,0,0,1.73,1.52,3.34,3.34,0,0,0,2,0,2.83,2.83,0,0,0,1.25-.78l-1.25,1.95a15.49,15.49,0,0,1,.91-7l.95,1.65a5.73,5.73,0,0,0-1.82-1.41,4.09,4.09,0,0,0-2.45-.37l.06,0a3.27,3.27,0,0,0-1,.82A3.46,3.46,0,0,0,442.53,362.4Zm0,0a6.67,6.67,0,0,1,.49-1.21,5.51,5.51,0,0,1,.78-1.1l.07,0a8.32,8.32,0,0,1,6-.92l.57.14.38,1.52a15.45,15.45,0,0,1,.21,7l-.33,1.58-.92.36a5.33,5.33,0,0,1-3.81.06,5.86,5.86,0,0,1-2.71-2,5.4,5.4,0,0,1-1.06-2.78A6.73,6.73,0,0,1,442.53,362.4Z"/><path d="M425.33,361.69a10.48,10.48,0,0,0,4.8,3.77,3.23,3.23,0,0,0,1.37.22,1.25,1.25,0,0,0,.91-.54,9.36,9.36,0,0,0,.91-2.63,32,32,0,0,0,.79-5.85,49.21,49.21,0,0,0,0-5.7l.36,1.15a5.55,5.55,0,0,0-3.31-2.27,4.75,4.75,0,0,0-2.19-.06,5.89,5.89,0,0,0-2.3,1.08,7.46,7.46,0,0,0-2.87,4.92A8.53,8.53,0,0,0,425.33,361.69Zm0,0a12.1,12.1,0,0,1-2.25-5.93,10.27,10.27,0,0,1,1.68-6.6,8.53,8.53,0,0,1,2.77-2.63,7.71,7.71,0,0,1,4-1,8.65,8.65,0,0,1,7.18,4l.32.52,0,.63a20.63,20.63,0,0,1-.73,6.74,23.3,23.3,0,0,1-2.75,6.09c-.29.48-.6.92-.91,1.38a6,6,0,0,1-1.27,1.37,2.59,2.59,0,0,1-1.95.48,4.46,4.46,0,0,1-1.61-.64A16.52,16.52,0,0,1,425.33,361.69Z"/><path d="M365.31,344.68a29.08,29.08,0,0,0,2.82-8.33,71.43,71.43,0,0,0,1-8.78,16.16,16.16,0,0,1,.9-4.44,10.48,10.48,0,0,1,.51-1.07,7.15,7.15,0,0,1,.7-1,9,9,0,0,1,1.77-1.6,5.89,5.89,0,0,1,2.35-1,3.56,3.56,0,0,1,1.48.07,3.82,3.82,0,0,1,1.32.75,5.28,5.28,0,0,1,1.43,2.34A11.06,11.06,0,0,1,380,324c.17,1.59.12,3.09.18,4.51s0,2.89.23,4.27a34.25,34.25,0,0,1,.37,4.65,12.66,12.66,0,0,1-.1,1.33c-.08.5-.18.88-.27,1.29a14.08,14.08,0,0,1-.8,2.4,16.86,16.86,0,0,1-2.68,4.25c-1,1.23-2.06,2.29-3,3.33a23.68,23.68,0,0,0-2.38,3.2,14,14,0,0,0-1.47,3.43c-.77,2.52-1.12,5.39-1.74,8.38a27.61,27.61,0,0,1-1.28,4.6,15.44,15.44,0,0,1-2.55,4.47,14,14,0,0,1-4,3.19,14.73,14.73,0,0,1-4.78,1.64,9.16,9.16,0,0,1-5.25-.67,7.15,7.15,0,0,1-3.58-3.91,8.37,8.37,0,0,1-.46-5A15,15,0,0,1,348.2,365a40.34,40.34,0,0,1,5.44-7.13c2-2.19,4.07-4.28,6.1-6.41A38.71,38.71,0,0,0,365.31,344.68Zm0,0a23.81,23.81,0,0,1-2.55,3.59c-.94,1.14-1.91,2.25-2.89,3.35-1.95,2.21-3.9,4.42-5.7,6.73a37,37,0,0,0-4.62,7.36c-1.14,2.58-1.61,5.49-.32,7.61a4.3,4.3,0,0,0,2.48,2.19,6.2,6.2,0,0,0,3.42,0,11.32,11.32,0,0,0,6.06-4.09,17.33,17.33,0,0,0,2.46-7.25,72.88,72.88,0,0,1,1.71-8.93,18.84,18.84,0,0,1,2.06-4.64,28.26,28.26,0,0,1,3-3.79c2.19-2.29,4.24-4,5.32-6.17a12,12,0,0,0,.74-1.72,6.48,6.48,0,0,0,.43-1.72,30,30,0,0,0,0-4.17,40.06,40.06,0,0,1,.26-4.56c.11-1.53.32-3,.33-4.32a5.46,5.46,0,0,0-.8-3.45,1.42,1.42,0,0,0-1.24-.53,4,4,0,0,0-1.75.56,7.56,7.56,0,0,0-1.62,1.2,5.54,5.54,0,0,0-.64.75,8.55,8.55,0,0,0-.53.88,13.92,13.92,0,0,0-1.21,4.1C369,333.46,368.13,339.46,365.31,344.68Z"/><path d="M321.77,364.17a14.31,14.31,0,0,0-3.61,1.37,7.28,7.28,0,0,0-2.29,3.07,16.71,16.71,0,0,0-1.42,7.53,18.73,18.73,0,0,0,.55,3.8,17.44,17.44,0,0,0,1.31,3.58,16.7,16.7,0,0,0,4.77,5.77,50.91,50.91,0,0,0,6.55,4c2.27,1.23,4.55,2.4,6.87,3.39,4.63,2,9.58,3.09,14.09,2.06L347,400.19c.81-3.88-.74-8.13-3.2-11.69-1.28-1.9-2.68-3.8-4.06-5.75a34.91,34.91,0,0,1-4-6.55,12.3,12.3,0,0,1-.9-4.36,15.51,15.51,0,0,1,.14-2.17c.14-.67.27-1.36.43-2a40.59,40.59,0,0,1,2.79-7c2.11-4.46,4.59-8.41,6.44-12.64a29.84,29.84,0,0,0,2.13-6.35,14.59,14.59,0,0,0,.19-1.57c0-.26,0-.5,0-.75V339l-.07-.34a5,5,0,0,0-.15-.71c-.09-.26-.16-.53-.26-.79a11.85,11.85,0,0,0-.65-1.44A2.87,2.87,0,0,0,344,334a3.77,3.77,0,0,0-2.58,1,24.45,24.45,0,0,0-4.62,5.11,121.13,121.13,0,0,0-7.38,12.14c-1.17,2.07-2.26,4.18-3.45,6.24-.59,1-1.18,2.06-1.83,3.06a16.51,16.51,0,0,1-1,1.45A3.83,3.83,0,0,1,321.77,364.17Zm0,0a3.82,3.82,0,0,0,1.32-1.18c.36-.46.69-1,1-1.46.64-1,1.23-2,1.79-3.08,1.12-2.1,2.21-4.21,3.25-6.34,2.1-4.27,4.22-8.52,6.69-12.65a27,27,0,0,1,4.48-5.81A8.39,8.39,0,0,1,342,332.5a4.38,4.38,0,0,1,2.21-.52,4.1,4.1,0,0,1,2.23.86,6.69,6.69,0,0,1,1.45,1.58,13.51,13.51,0,0,1,1,1.72c.14.29.26.58.39.87a9.2,9.2,0,0,1,.32,1l.15.52.07.51c0,.34.1.69.12,1a14.61,14.61,0,0,1-.06,2,30.22,30.22,0,0,1-1.74,7.32c-.82,2.32-1.77,4.56-2.76,6.75l-1.52,3.23c-.49,1.05-.94,2.11-1.4,3.19a44.88,44.88,0,0,0-2.24,6.32c-.12.5-.19,1-.29,1.49a12.82,12.82,0,0,0-.05,1.37,7.17,7.17,0,0,0,.56,2.58,35.06,35.06,0,0,0,3.43,5.59c1.37,1.93,2.7,3.93,4,6a24.91,24.91,0,0,1,3.1,7.18,15.43,15.43,0,0,1,0,8.12l-.39,1.32-1.19.17a22,22,0,0,1-8.46-.52,34.84,34.84,0,0,1-7.53-3.05c-2.35-1.26-4.57-2.68-6.74-4.13a61,61,0,0,1-6.37-4.66,18,18,0,0,1-4.6-6.48,18.78,18.78,0,0,1-1.17-3.78,18.6,18.6,0,0,1,1.34-11.49,7.62,7.62,0,0,1,2.35-3.06A14.52,14.52,0,0,1,321.77,364.17Z"/><path d="M305.58,303.24a5,5,0,0,0-2,.72,2.74,2.74,0,0,0-1.2,1.66c-.3,1.4.36,2.75.8,4.06a47.14,47.14,0,0,1,2.08,8.22,66.9,66.9,0,0,1,.84,8.48l.06,2.14v2.12l0,4.24c0,1.44,0,2.81-.05,4.29a24.17,24.17,0,0,0-.06,3.95c0,.2.08.17,0,.06s-.17-.18-.11-.17a4.66,4.66,0,0,0,1.22-.18,21.62,21.62,0,0,0,3.49-1.43c.59-.3,1.18-.61,1.77-.94s1.19-.66,1.72-1a25.35,25.35,0,0,0,3.07-2.27,23.47,23.47,0,0,0,2.64-2.73c.2-.24.39-.48.58-.73s.53-.68.8-1a20.76,20.76,0,0,1,1.72-1.68,79.78,79.78,0,0,1,7-5.13,59.39,59.39,0,0,0,6.42-4.88c1.88-1.74,3.42-3.7,3.64-5.85a7,7,0,0,0-2.51-6.07,6,6,0,0,0-3.37-.95,26.33,26.33,0,0,0-4.07.35,33.16,33.16,0,0,1-4.28.46,14.16,14.16,0,0,1-4.31-.66,66.65,66.65,0,0,1-7.76-3.43A14.81,14.81,0,0,0,305.58,303.24Zm0,0c2.82-.43,5.62.47,8.21,1.52a50.48,50.48,0,0,0,7.87,2.92,11.61,11.61,0,0,0,4.06.24,29.51,29.51,0,0,0,4-.85,29.73,29.73,0,0,1,4.28-.87,8.21,8.21,0,0,1,4.75.79,9,9,0,0,1,3.43,3.57,9.65,9.65,0,0,1,1.3,4.82,10.83,10.83,0,0,1-1.3,4.9,18.25,18.25,0,0,1-2.78,3.84,48.06,48.06,0,0,1-6.68,5.75c-2.27,1.71-4.6,3.29-6.53,5a16,16,0,0,0-1.32,1.26c-.2.22-.33.38-.55.65s-.49.61-.74.9a24.85,24.85,0,0,1-3.34,3.23,25.65,25.65,0,0,1-3.84,2.56c-.68.38-1.36.7-2,1s-1.34.6-2,.88a21.14,21.14,0,0,1-4.48,1.34,6.73,6.73,0,0,1-3-.09,3.4,3.4,0,0,1-1.84-1.31,3.71,3.71,0,0,1-.57-1.93,24.53,24.53,0,0,1,.56-4.47c.21-1.32.37-2.76.55-4.13l.54-4.18c.18-1.4.37-2.79.43-4.19a57,57,0,0,0,0-8.37,38.06,38.06,0,0,0-1.58-8.25c-.4-1.32-1-2.71-.67-4.13a2.74,2.74,0,0,1,1.23-1.67A5.1,5.1,0,0,1,305.58,303.24Z"/><path d="M282.48,267a27.6,27.6,0,0,0,.32-7.8,10.51,10.51,0,0,0-1.14-3.69,7.55,7.55,0,0,0-2.54-2.78c-2.13-1.38-4.74-1.71-7.3-2l-7.83-.8c-2.6-.29-5.22-.5-7.86-.86s-5.18-.75-7.67-.94c-.62-.05-1.23-.08-1.84-.1h-.17a1.7,1.7,0,0,0,.74-.08,2.18,2.18,0,0,0,.92-.54,2.15,2.15,0,0,0,.43-.6,1.6,1.6,0,0,0,.1-.23l.06-.22v-.09l0-.18c0-.06,0,.07,0,.17s.1.53.17.81c.13.59.29,1.2.46,1.79a8.73,8.73,0,0,0,.53,1.52,26.15,26.15,0,0,0,3.85,5.95,65.94,65.94,0,0,0,5.18,5.45c1.88,1.8,3.81,3.64,5.62,5.66a35.22,35.22,0,0,1,4.86,6.7,20.29,20.29,0,0,1,1.65,3.9,21.94,21.94,0,0,1,.84,4.08,12.94,12.94,0,0,0,.79,3.5c.42,1,1.33,2,2.07,2a1.75,1.75,0,0,0,1.26-.57,6.57,6.57,0,0,0,1.14-1.39,19.37,19.37,0,0,0,1.69-3.45A72.32,72.32,0,0,0,282.48,267Zm0,0a120.7,120.7,0,0,1-3,15.46,24.81,24.81,0,0,1-1.4,3.76A7.49,7.49,0,0,1,277,288a3.1,3.1,0,0,1-2.16,1.16,3.68,3.68,0,0,1-2.34-.89,6.83,6.83,0,0,1-1.51-1.7,14.75,14.75,0,0,1-1.5-4c-1.11-4.93-4.27-8.7-8-12.14-1.84-1.72-3.81-3.38-5.79-5.13a52.73,52.73,0,0,1-5.76-5.81,27.35,27.35,0,0,1-4.45-7.31l-.2-.52-.2-.6c-.13-.48-.18-.74-.26-1.1-.15-.67-.28-1.34-.4-2,0-.36-.11-.7-.15-1.13a7.33,7.33,0,0,1,0-.8c0-.12,0-.21,0-.43l0-.14a2.05,2.05,0,0,1,.08-.28,2.49,2.49,0,0,1,.11-.29,2.4,2.4,0,0,1,1.44-1.23,2.06,2.06,0,0,1,.8-.08h.07l.13,0c.69.07,1.38.17,2.06.28,2.71.45,5.28,1.16,7.8,1.79s5.06,1.21,7.61,1.82l7.67,1.79c2.55.57,5.27,1.24,7.45,2.93a8.69,8.69,0,0,1,2.49,3.16,12.19,12.19,0,0,1,1,3.84A31.55,31.55,0,0,1,282.48,267Z"/><path d="M341.41,295.56a5.54,5.54,0,0,0,2.84.81c1,.08,2,0,3,0a19.24,19.24,0,0,1,3,.06,30,30,0,0,1,3,.68c1.95.54,3.86,1.21,5.74,1.84s3.84,1.2,5.71,1.67a19.52,19.52,0,0,0,5.51.7,3.64,3.64,0,0,0,1.92-.46.28.28,0,0,0,.13-.25c0-.07,0-.24,0-.51a7.06,7.06,0,0,0-.67-2,19,19,0,0,0-1.29-2.3,25.93,25.93,0,0,0-1.59-2.23c-.28-.37-.56-.73-.86-1.08l-1-1.16c-2.57-3.17-4.78-6.35-7.38-9a24.6,24.6,0,0,0-2-1.83,22.15,22.15,0,0,0-2.27-1.55,11.72,11.72,0,0,0-4.91-1.83,3.84,3.84,0,0,0-2.26.47,1.75,1.75,0,0,0-.48.34c-.14.14-.32.26-.45.41a3.3,3.3,0,0,0-.61,1c-.57,1.64-.24,3.74-.39,5.77a6.72,6.72,0,0,1-.86,3,14.13,14.13,0,0,1-1.9,2.36,13.05,13.05,0,0,0-1.85,2.34,3.86,3.86,0,0,0-.52,1.38A1.42,1.42,0,0,0,341.41,295.56Zm0,0a1.45,1.45,0,0,1-.5-1.34,4,4,0,0,1,.51-1.41,16.11,16.11,0,0,1,1.75-2.43,11.59,11.59,0,0,0,1.69-2.42,5.63,5.63,0,0,0,.52-2.8c0-1.94-.78-3.87-.37-6.16a5.35,5.35,0,0,1,.63-1.66c.15-.26.36-.47.54-.72a3.23,3.23,0,0,1,.64-.64,6.08,6.08,0,0,1,3.34-1.36,14.2,14.2,0,0,1,6.56,1.19,25.5,25.5,0,0,1,2.92,1.44,19,19,0,0,1,2.69,1.87,58.22,58.22,0,0,1,8.37,9l.93,1.15c.35.42.67.85,1,1.28a27.63,27.63,0,0,1,1.76,2.73,19.78,19.78,0,0,1,1.43,3,10.26,10.26,0,0,1,.7,3.74,5.11,5.11,0,0,1-.61,2.4,4.47,4.47,0,0,1-1.95,1.84,7.36,7.36,0,0,1-3.93.49,22.05,22.05,0,0,1-6.16-1.82c-1.9-.84-3.65-1.75-5.47-2.65s-3.55-1.84-5.39-2.58a23.16,23.16,0,0,0-2.81-.94,16.77,16.77,0,0,0-2.95-.27c-1,0-2-.06-3-.15A5.47,5.47,0,0,1,341.41,295.56Z"/><path d="M320.68,284.2a6.56,6.56,0,0,1,4.54.93,8.91,8.91,0,0,0,2.1.94,1.6,1.6,0,0,0,1,0,1.23,1.23,0,0,0,.65-.66c.39-1.25-.71-2.65-1.7-3.57a9.48,9.48,0,0,0-3.84-1.86c-2.85-.75-5.78-.53-9.11-.75-.83-.08-1.68-.16-2.54-.33a8.68,8.68,0,0,1-2.9-1c-.91-.53-1.59-1.07-2.13-1.45a5.85,5.85,0,0,0-1.45-.81,1.66,1.66,0,0,0-.82-.15.75.75,0,0,0-.22.08,1.63,1.63,0,0,0-.38.34,4.62,4.62,0,0,0-.77,1.33,9.36,9.36,0,0,0-.49,1.79,12.1,12.1,0,0,0-.08,4,7.26,7.26,0,0,0,1.4,3.59,4.13,4.13,0,0,0,1.46,1.15,7.8,7.8,0,0,0,.93.31,7.63,7.63,0,0,0,1.07.13,11.49,11.49,0,0,0,4.42-.77C314.77,286.38,317.54,284.65,320.68,284.2Zm0,0c-3.17.47-5.77,2.38-8.56,3.86a13.74,13.74,0,0,1-4.63,1.65,10.87,10.87,0,0,1-1.29.1,9.32,9.32,0,0,1-1.37-.13,6.42,6.42,0,0,1-2.57-1.22,9.94,9.94,0,0,1-3.1-4.55,14.68,14.68,0,0,1-.83-5.32,11.87,11.87,0,0,1,.41-2.83,8.35,8.35,0,0,1,1.34-2.85,6.43,6.43,0,0,1,1.29-1.32,5.24,5.24,0,0,1,1.89-.94,6.27,6.27,0,0,1,3.8.27,10.25,10.25,0,0,1,2.64,1.5c.72.55,1.24,1,1.69,1.32a4.38,4.38,0,0,0,1.48.65c.66.2,1.37.39,2.09.55l4.62,1a22.59,22.59,0,0,1,4.76,1.71,11.6,11.6,0,0,1,4,3.16,8.51,8.51,0,0,1,1.25,2.24,3.39,3.39,0,0,1,0,2.65,1.81,1.81,0,0,1-1.09.85,2.24,2.24,0,0,1-1.29-.08,10.84,10.84,0,0,1-2.09-1.17,6.43,6.43,0,0,0-2.12-1A6.52,6.52,0,0,0,320.68,284.2Z"/><path d="M293.05,243.37a7.55,7.55,0,0,0-.34,5.08,6.81,6.81,0,0,0,2.75,3.86,4.79,4.79,0,0,0,3.77.7,6.49,6.49,0,0,0,3.11-1.46,3,3,0,0,0,.77-1.05,3.5,3.5,0,0,0,.29-1.36,5.39,5.39,0,0,0-1.84-3.43,15.52,15.52,0,0,0-4.16-2.94c-.39-.18-.78-.38-1.19-.54a3.68,3.68,0,0,0-1.22-.35A2.36,2.36,0,0,0,293.05,243.37Zm0,0A2.68,2.68,0,0,1,295,241.7a4.87,4.87,0,0,1,1.34.16l1.31.26a29,29,0,0,1,5.31,1.49,10.59,10.59,0,0,1,2.63,1.56,6.67,6.67,0,0,1,2,2.91c.09.31.2.62.26.94s.06.65.08,1a4.93,4.93,0,0,1,0,.95,5.27,5.27,0,0,1-.17.95,6.8,6.8,0,0,1-2,3.32,8.52,8.52,0,0,1-6.5,2.11,7.89,7.89,0,0,1-3.24-1,7.57,7.57,0,0,1-2.34-2.26,10.12,10.12,0,0,1-1.62-5.48A12,12,0,0,1,293.05,243.37Z"/><path d="M228.86,312.22l-.73,1.27-.81,1.21-1.59,2.44a22.61,22.61,0,0,0-1.42,2.53,4.3,4.3,0,0,0-.41,1.31c0,.09,0,.19,0,.21s0,.05.13.08a2.15,2.15,0,0,0,.6.07,14,14,0,0,0,2.8-.5,15.07,15.07,0,0,0,2.65-.91,16,16,0,0,0,4.49-3.16,14.6,14.6,0,0,0,4.41-9.2c.08-.78,0-1.8.19-3a8.38,8.38,0,0,1,.48-1.95,6.36,6.36,0,0,1,1.23-1.93,19.09,19.09,0,0,1,2.53-2.08c.54-.46.64-.63.73-1a1.18,1.18,0,0,0-.17-1,7.11,7.11,0,0,0-1.35-1.63c-.31-.29-.65-.58-1-.9l-1.07-.95a13.14,13.14,0,0,0-2-1.42,9,9,0,0,0-4.54-1.3,7.23,7.23,0,0,0-4.45,1.66,8.42,8.42,0,0,0-2.93,4.24,6.64,6.64,0,0,0-.16,2.63,5.71,5.71,0,0,0,.38,1.28,5.56,5.56,0,0,0,.66,1.22c.54.78,1.19,1.53,1.73,2.36a6.26,6.26,0,0,1,1,2.79A10.06,10.06,0,0,1,228.86,312.22Zm0,0a9.22,9.22,0,0,0,1.26-5.57,5.39,5.39,0,0,0-1.14-2.58c-.57-.77-1.3-1.41-1.95-2.17a7.9,7.9,0,0,1-1.56-2.67,8,8,0,0,1-.26-3.16,10.54,10.54,0,0,1,2.67-5.78,10.09,10.09,0,0,1,5.86-3.33,12.39,12.39,0,0,1,6.76.9,14.44,14.44,0,0,1,3,1.69l1.19.9c.4.3.81.62,1.23,1a11.09,11.09,0,0,1,2.43,2.78,6.74,6.74,0,0,1,.8,2.17,5.82,5.82,0,0,1-.09,2.46,6.17,6.17,0,0,1-1,2.17,7.28,7.28,0,0,1-1.52,1.52c-1,.75-1.75,1.14-2.08,1.49a2.35,2.35,0,0,0-.38.48,3.42,3.42,0,0,0-.29.86c-.17.73-.25,1.67-.46,2.81a17,17,0,0,1-7.08,10.52,18.72,18.72,0,0,1-5.57,2.64,17,17,0,0,1-3,.57,18.59,18.59,0,0,1-3,.12,2.88,2.88,0,0,1-.82-.2.71.71,0,0,1-.4-.4,1,1,0,0,1,0-.5,4.88,4.88,0,0,1,.59-1.42c.48-.86,1.06-1.65,1.61-2.45C226.69,315.45,227.91,313.92,228.86,312.22Z"/><path d="M217.44,316.87a5.74,5.74,0,0,0-5.05-.38,10.24,10.24,0,0,0-4.07,3.12,13.19,13.19,0,0,0-2.4,4.51,18,18,0,0,0-.54,5.11c0,3.49.52,7,.17,10.74a17,17,0,0,1-1.37,5.46,18.18,18.18,0,0,1-3.13,4.73,43.49,43.49,0,0,1-8.56,6.82,81.19,81.19,0,0,0-8.53,6.08,57.84,57.84,0,0,0-13.19,15.75c-1.72,3-3.25,6.2-5,9.38a49,49,0,0,1-6.29,9.11c-4.89,5.58-10.65,9.93-15.43,14.84a94.47,94.47,0,0,0-12.63,16.42c-.93,1.49-1.73,2.94-2.62,4.53a23,23,0,0,0-2.08,4.31,3.75,3.75,0,0,0-.22,1.58.74.74,0,0,0,.1.31,1.31,1.31,0,0,0,.35.38,6.25,6.25,0,0,0,3.51,1.11,19.52,19.52,0,0,0,9.11-1.75,10.35,10.35,0,0,0,1.86-1.09,4.46,4.46,0,0,0,.67-.59c.11-.09.14-.18.23-.26l.27-.42a14.81,14.81,0,0,0,1.57-4.26l.63-2.61c.22-.91.54-1.83.82-2.74a35.79,35.79,0,0,1,2.3-5.22,47.48,47.48,0,0,1,6.44-9.13c4.9-5.51,10.5-10.07,15.88-14.67l8.11-6.89,4.08-3.43c1.36-1.15,2.68-2.26,3.88-3.43a21,21,0,0,0,3.12-3.74,39.74,39.74,0,0,0,2.32-4.52,33.32,33.32,0,0,1,2.64-4.93,24.09,24.09,0,0,1,3.71-4.32c5.52-5.11,12.26-7.9,17.3-12.49a19.15,19.15,0,0,0,5.64-8.21,13.17,13.17,0,0,0,.57-4.92l-.14-1.25-.27-1.24a7.91,7.91,0,0,0-.92-2.26c-.85-1.45-2-2.78-3.07-4.29a13.19,13.19,0,0,1-1.33-2.42,9,9,0,0,1-.42-1.34,6.44,6.44,0,0,1-.06-1.43c.06-1.79.19-3.56.4-5.34.11-.88.24-1.76.42-2.64a11.72,11.72,0,0,1,.35-1.29,2.47,2.47,0,0,1,.3-.61C217,316.87,217.24,316.7,217.44,316.87Zm0,0c-.21-.15-.44,0-.53.21a2.7,2.7,0,0,0-.25.61,9.48,9.48,0,0,0-.25,1.29c-.12.88-.19,1.76-.23,2.65-.08,1.76-.09,3.54,0,5.3a6.2,6.2,0,0,0,.11,1.22,8,8,0,0,0,.45,1.18,11.68,11.68,0,0,0,1.36,2.16c1,1.37,2.33,2.62,3.37,4.18a9.24,9.24,0,0,1,1.24,2.59l.36,1.35.23,1.38a15,15,0,0,1-.37,5.62,21.25,21.25,0,0,1-5.81,9.45,62.88,62.88,0,0,1-8.58,6.67,57.48,57.48,0,0,0-8.14,6.4,23,23,0,0,0-3.09,3.85,31.19,31.19,0,0,0-2.24,4.52,41.57,41.57,0,0,1-2.42,5,24.51,24.51,0,0,1-3.55,4.53c-1.31,1.35-2.68,2.56-4,3.74l-4,3.54-8,7c-5.33,4.7-10.71,9.26-15.16,14.46a44.87,44.87,0,0,0-5.76,8.28,31.82,31.82,0,0,0-2,4.53c-.22.79-.5,1.55-.69,2.36l-.6,2.57a19.59,19.59,0,0,1-2.13,5.68c-.14.24-.3.47-.45.7a8.2,8.2,0,0,1-.63.76,9.43,9.43,0,0,1-1.31,1.18,15.72,15.72,0,0,1-2.72,1.62,25.06,25.06,0,0,1-5.63,1.84,22.61,22.61,0,0,1-6,.42,14.08,14.08,0,0,1-3.18-.59,9.06,9.06,0,0,1-3.21-1.74,5.29,5.29,0,0,1-.71-.71,6.1,6.1,0,0,1-.67-.92,5.93,5.93,0,0,1-.74-2.19,8.74,8.74,0,0,1,.42-3.67,26.92,26.92,0,0,1,2.53-5.27c.84-1.5,1.77-3.15,2.73-4.67a95.49,95.49,0,0,1,13.43-17.18c5.23-5.16,11-9.36,15.52-14.42s7.44-11.32,11.21-17.56a59.92,59.92,0,0,1,14.5-16.33c5.75-4.61,12.59-7.23,17.35-12a15.79,15.79,0,0,0,2.93-4,15,15,0,0,0,1.44-4.76c.49-3.37.17-6.94.36-10.54a19.11,19.11,0,0,1,.91-5.41,13.7,13.7,0,0,1,2.84-4.67,10.9,10.9,0,0,1,4.52-3A6,6,0,0,1,217.44,316.87Z"/><path d="M277.27,61.54a34.54,34.54,0,0,1-3.68-2.4,8,8,0,0,1-2.91-3.92,5.88,5.88,0,0,1,1.42-5.59,6.41,6.41,0,0,1,5.94-2,6.07,6.07,0,0,1,4,2.88,6,6,0,0,1,.62,1.35,9.91,9.91,0,0,1,.19,5.1,22.79,22.79,0,0,1-.54,2.27,7,7,0,0,1-1,2.21,2.17,2.17,0,0,1-2.08.94A6,6,0,0,1,277.27,61.54Zm0,0a4.29,4.29,0,0,0,2,.67,1.51,1.51,0,0,0,1.47-1.1,4.12,4.12,0,0,0,.05-2,16.87,16.87,0,0,0-.46-2.07,10.12,10.12,0,0,0-1.58-3.33,4.23,4.23,0,0,0-.91-.87,2.78,2.78,0,0,0-.81-.32,3.36,3.36,0,0,0-2.11.32A3.24,3.24,0,0,0,273.15,55a5,5,0,0,0,.94,3.68A10.28,10.28,0,0,0,277.27,61.54Z"/><path d="M347,265a2.65,2.65,0,0,0-.88-1.87,8.48,8.48,0,0,0-1.66-1.31c-.61-.39-1.24-.7-1.91-1.09s-1.28-.73-1.91-1.06a13.78,13.78,0,0,0-3.53-1.4l-.18,0h-.12l-.2,0a.48.48,0,0,0-.24.11s0,.05.08,0,.07,0,.08-.07.07-.12.12-.18,0-.22,0-.2a1.56,1.56,0,0,0,.08.4,9.2,9.2,0,0,0,.65,1.41,12.82,12.82,0,0,0,2.22,3,10,10,0,0,0,3.47,2.2,11.13,11.13,0,0,0,2.06.53,4.71,4.71,0,0,0,1.06.05C346.52,265.47,347,265.34,347,265Zm0,0c0,.4-.46.55-.79.6a6.54,6.54,0,0,1-1.08.08l-2.18,0a18.06,18.06,0,0,1-4.56-.68,10.94,10.94,0,0,1-4.32-2.43,8.32,8.32,0,0,1-1.7-2.14,6.09,6.09,0,0,1-.6-1.63,4.57,4.57,0,0,1,.18-2.31,4.35,4.35,0,0,1,.61-1.12,5.92,5.92,0,0,1,.83-.83,4.52,4.52,0,0,1,2-.85,4.94,4.94,0,0,1,1.89.06,4.81,4.81,0,0,1,.84.26l.39.18.31.18a11.76,11.76,0,0,1,3.46,3.47l1.26,1.83c.39.55.89,1.12,1.35,1.67s.95,1.12,1.36,1.72A3.25,3.25,0,0,1,347,265Z"/><path d="M227.54,525.83a12.45,12.45,0,0,0-3.23.43,4.05,4.05,0,0,0-2.47,1.81,2.3,2.3,0,0,0-.08,2.54,2.83,2.83,0,0,0,2.25.85,10.43,10.43,0,0,0,1.46-.05l1.64-.13,3.23-.23c2.13-.15,4.23-.26,6.24-.44a25.71,25.71,0,0,0,2.84-.38,6.92,6.92,0,0,0,1.91-.58c.12-.09.16.05.25-.11a1.15,1.15,0,0,0,.1-.57,1.38,1.38,0,0,0-.43-.74,4.87,4.87,0,0,0-1.08-.75,17.54,17.54,0,0,0-6.09-1.61A39.67,39.67,0,0,0,227.54,525.83Zm0,0c2.18-.13,4.34-.43,6.54-.65a27,27,0,0,1,6.86-.09,7.41,7.41,0,0,1,1.91.58,4.72,4.72,0,0,1,1.87,1.53,4.47,4.47,0,0,1,.81,2.57,3.25,3.25,0,0,1-.06.73,3.34,3.34,0,0,1-.19.77,3.19,3.19,0,0,1-.34.72,4,4,0,0,1-.43.6,6.29,6.29,0,0,1-2,1.55,10.24,10.24,0,0,1-1.9.77,17.82,17.82,0,0,1-3.61.67,30,30,0,0,1-6.85-.23c-1.12-.15-2.22-.36-3.31-.59l-1.63-.37a13.9,13.9,0,0,1-1.77-.5,6.28,6.28,0,0,1-1.77-.93,3.75,3.75,0,0,1-1.27-1.69,3.26,3.26,0,0,1-.05-2,4.24,4.24,0,0,1,.91-1.59,5.1,5.1,0,0,1,3-1.57A20.14,20.14,0,0,1,227.54,525.83Z"/><path d="M222.06,541.77A4.6,4.6,0,0,0,218,542a3,3,0,0,0-1.21,3.76,2.17,2.17,0,0,0,.71.8,6.11,6.11,0,0,0,3,.88l1,.08c.32,0,.75,0,1,0s.14,0-.05.12-.11.15,0,0a5.16,5.16,0,0,0,.8-3,5.42,5.42,0,0,0-1.24-3.3,7.31,7.31,0,0,0-3.61-2.38,6.28,6.28,0,0,1,5.11.43,7.39,7.39,0,0,1,3.59,4.48,8.25,8.25,0,0,1-.52,6.08,4.49,4.49,0,0,1-1.51,1.74,4.72,4.72,0,0,1-2.28.74c-.59,0-.93,0-1.39,0s-.89,0-1.34-.07a12.78,12.78,0,0,1-2.84-.63,8,8,0,0,1-2.81-1.72,6.2,6.2,0,0,1-1.75-3.1,6.32,6.32,0,0,1,.15-3.35,5.92,5.92,0,0,1,1.77-2.73,5.28,5.28,0,0,1,2.86-1.25A4.81,4.81,0,0,1,222.06,541.77Z"/><path d="M265.89,500.8a3.37,3.37,0,0,0-1.56,2.05,2.06,2.06,0,0,0,.75,2.19,3.55,3.55,0,0,0,2.28.52c.85,0,1.58-.25,2.61-.37l5.29-.61c.84-.1,1.65-.2,2.4-.33a8.13,8.13,0,0,0,1.82-.47c.19-.08.28-.15.24-.1s-.09.26-.06.26,0,0,0-.08,0-.16,0-.3l0-.19c0-.07,0,0,0-.07a.22.22,0,0,0,0-.17,3.14,3.14,0,0,0-1.25-1.14,11.54,11.54,0,0,0-2.18-1,17.79,17.79,0,0,0-5.12-1A10.69,10.69,0,0,0,265.89,500.8Zm0,0a21.26,21.26,0,0,1,5.13-1.53,34.66,34.66,0,0,1,5.51-.78,14.66,14.66,0,0,1,3,.17,6.47,6.47,0,0,1,3.28,1.56,4.25,4.25,0,0,1,.76.9,6.06,6.06,0,0,1,.48,1,5.47,5.47,0,0,1,.32,1,4.49,4.49,0,0,1,.1,1.24,4.29,4.29,0,0,1-1.06,2.68,5.78,5.78,0,0,1-1.94,1.38,9.69,9.69,0,0,1-3.35.68,16.46,16.46,0,0,1-2.93-.16,44,44,0,0,1-5.34-1.22c-1.58-.38-3.89-.59-5.25-2.15a2.73,2.73,0,0,1-.44-2.72A4,4,0,0,1,265.89,500.8Z"/><path d="M308.31,476.58a20.54,20.54,0,0,0-7.29-.07,5.9,5.9,0,0,0-3,1.53,3.13,3.13,0,0,0-.71,2.71,16.59,16.59,0,0,0,2.32,6.14,13.71,13.71,0,0,0,.88,1.28,4.46,4.46,0,0,0,.84.8,2,2,0,0,0,1.59.41,9.79,9.79,0,0,0,2.64-.85,21.89,21.89,0,0,0,2.83-1.55,29.39,29.39,0,0,0,2.72-2c.39-.34,1-.87,1.45-1.23s1-.75,1.41-1.13a8.52,8.52,0,0,0,2.18-2.47,2.06,2.06,0,0,0,.2-1.39,1.92,1.92,0,0,0-.93-1.15,8,8,0,0,0-3.46-.83C310.76,476.66,309.53,476.74,308.31,476.58Zm0,0a28.24,28.24,0,0,0,3.68,0,10.15,10.15,0,0,1,3.76.39,2.94,2.94,0,0,1,1.62,1.37,3.42,3.42,0,0,1,.25,2.22,10.42,10.42,0,0,1-1.74,3.71c-.36.54-.74,1.06-1.11,1.56s-.61.91-1,1.49a20.33,20.33,0,0,1-2.63,3,17,17,0,0,1-3.33,2.47,11.84,11.84,0,0,1-4.3,1.52,7,7,0,0,1-2.84-.28,6.8,6.8,0,0,1-2.4-1.42,7.87,7.87,0,0,1-1.58-2,12.63,12.63,0,0,1-.91-1.94,16.33,16.33,0,0,1-.92-8.1,6.2,6.2,0,0,1,.7-2.13,4.53,4.53,0,0,1,1.56-1.63,7.7,7.7,0,0,1,3.83-1A40.15,40.15,0,0,1,308.31,476.58Z"/><path d="M384.72,360a3.43,3.43,0,0,0-2.4.61,5.13,5.13,0,0,0-1.28,2.15,10,10,0,0,1-2.85,4.3A28.68,28.68,0,0,1,374,370.1a32.45,32.45,0,0,0-4.05,2.89,5.88,5.88,0,0,0-1.35,1.62,2.13,2.13,0,0,0-.29,1.46,2.88,2.88,0,0,0,2,2,8,8,0,0,0,3.82,0,23.87,23.87,0,0,0,4.37-1.23c1.39-.52,2.84-1.3,4.54-2a18.72,18.72,0,0,1,2.74-.92,21.18,21.18,0,0,1,2.78-.43c1.78-.19,3.5-.17,5-.37a8.61,8.61,0,0,0,2-.45,2.13,2.13,0,0,0,1.12-1,4.34,4.34,0,0,0,.14-.43,1.41,1.41,0,0,0,.09-.48,5.63,5.63,0,0,0,0-1.09c-.05-.39-.06-.78-.14-1.17l-.28-1.19a8.86,8.86,0,0,0-2.37-4.15,10.72,10.72,0,0,0-4.35-2.42A18.93,18.93,0,0,0,384.72,360Zm0,0a24.17,24.17,0,0,1,5.08.55,12.74,12.74,0,0,1,4.74,2.06,10.49,10.49,0,0,1,3.35,4.15l.54,1.23a13.39,13.39,0,0,1,.43,1.31,7.34,7.34,0,0,1,.27,1.44,3,3,0,0,1,0,.79,5.69,5.69,0,0,1-.08.82,4.89,4.89,0,0,1-2,2.89l-.7.44c-.23.14-.46.22-.7.34a10.09,10.09,0,0,1-1.38.51c-1.82.54-3.5.84-5.08,1.22-.78.18-1.56.4-2.21.6s-1.32.55-2,.89c-1.4.69-2.94,1.56-4.73,2.26a22.48,22.48,0,0,1-5.49,1.34,11.08,11.08,0,0,1-6.22-.86,6.92,6.92,0,0,1-2.67-2.33,5.89,5.89,0,0,1-1.07-3.52,5.41,5.41,0,0,1,1.35-3.27,9,9,0,0,1,2.33-1.89c3.2-1.81,6.52-2.54,9.29-4.44a8.61,8.61,0,0,0,3.11-3.83,5.56,5.56,0,0,1,1.41-2.13A3.51,3.51,0,0,1,384.72,360Z"/><path d="M361.47,398.58c-.38,0-.75,0-1.13,0a2.26,2.26,0,0,1-1.15-.25,2.71,2.71,0,0,1-1.17-2.2,4.64,4.64,0,0,1,.65-2.73,4.7,4.7,0,0,1,2.52-2l-.66.25a7.4,7.4,0,0,1,3.59-2,5.64,5.64,0,0,1,6.76,5.48,5.65,5.65,0,0,1-1.52,4l-.63.67-.37-.11a33.36,33.36,0,0,0-3.45-.85A20,20,0,0,0,361.47,398.58Zm0,0a19.08,19.08,0,0,0,3.44-.33c1.15-.21,2.29-.54,3.44-.87l-1,.56a3.18,3.18,0,0,0-.47-2.06,3.08,3.08,0,0,0-1.07-1.09,2.73,2.73,0,0,0-1.16-.37,8,8,0,0,0-2.26.25l-.67.24a1.73,1.73,0,0,0-1.38.08,2.41,2.41,0,0,0-1.25,1.28,1.68,1.68,0,0,0,.26,1.86A3.23,3.23,0,0,0,361.47,398.58Z"/><path d="M392.92,390.86a4,4,0,0,0,2.49.22,4.43,4.43,0,0,0,2.18-1,2.18,2.18,0,0,0,.84-1.56,1.57,1.57,0,0,0-.22-1l1.23,1.83c-.43-.12-1.06-.28-1.93-.47l-1.41-.31c-.52-.11-1-.26-1.48-.38a2.31,2.31,0,0,0-2.44.31,1.29,1.29,0,0,0-.32,1.3A1.89,1.89,0,0,0,392.92,390.86Zm0,0a2.82,2.82,0,0,1-1.25-1,2.17,2.17,0,0,1-.24-1.76,3.61,3.61,0,0,1,1-1.73,6.24,6.24,0,0,1,1.72-1.13,15.2,15.2,0,0,1,1.68-.68,8.08,8.08,0,0,1,1.76-.4,6.47,6.47,0,0,1,4.2.9l1.18.75.05,1.08a4.84,4.84,0,0,1-1.52,3.81,4.46,4.46,0,0,1-1.64,1,5.81,5.81,0,0,1-1.64.3,11.36,11.36,0,0,1-2.85-.38A12.24,12.24,0,0,1,392.92,390.86Z"/><path d="M302.65,193.58a1.61,1.61,0,0,0-.68-2,2.37,2.37,0,0,0-1.65-.09c-.58.14-1.28.48-1.36.72a3.83,3.83,0,0,1-.14.43,6,6,0,0,0-.2.81,5.9,5.9,0,0,0,.52,3.45,5.81,5.81,0,0,0,2.27,2.59l-1.5,0c-.23.13-.31.34-.19.26a1.59,1.59,0,0,0,.39-.6c.31-.69.65-1.5,1-2.24a29.3,29.3,0,0,1,2.58-4.43,28.68,28.68,0,0,1,.26,5.12c0,.85-.07,1.63-.16,2.52a5.61,5.61,0,0,1-.48,1.7,3.68,3.68,0,0,1-2,1.86l-.63.24-.87-.26a8.62,8.62,0,0,1-5.22-4.62,8.86,8.86,0,0,1-.38-6.93,8.19,8.19,0,0,1,.85-1.63,5,5,0,0,1,1.63-1.54,4.65,4.65,0,0,1,2-.59,6.2,6.2,0,0,1,1.77.09,4.06,4.06,0,0,1,3,2.13,2.77,2.77,0,0,1,.15,1.76A1.74,1.74,0,0,1,302.65,193.58Z"/><path d="M293,54.23a4.86,4.86,0,0,0-.11,2.18,4.17,4.17,0,0,0,.7,2,4.34,4.34,0,0,0,3.48,1.53,4.92,4.92,0,0,0,3.13-.89,3,3,0,0,0,1.09-1.87,7.65,7.65,0,0,0,.1-2.91A4.55,4.55,0,0,0,301,52.8a3.43,3.43,0,0,0-.92-1.23,2.26,2.26,0,0,0-1.55-.45,4.82,4.82,0,0,0-2,.59c-.67.38-1.38.64-2,1A3,3,0,0,0,293,54.23Zm0,0a3.69,3.69,0,0,1,1.38-1.7,10.93,10.93,0,0,0,1.71-1.37A8,8,0,0,1,298,49.68a4.46,4.46,0,0,1,2.77-.5,6,6,0,0,1,2.7,1.2,6.76,6.76,0,0,1,1.92,2.22,8.06,8.06,0,0,1,.76,5.73,6.77,6.77,0,0,1-1.49,2.9A6.08,6.08,0,0,1,301.9,63a6.71,6.71,0,0,1-3,.19,8.56,8.56,0,0,1-2.54-.88A6.9,6.9,0,0,1,293,58.69a6.23,6.23,0,0,1-.27-2.28A7,7,0,0,1,293,54.23Z"/></svg>