<svg id="Layer_1" data-name="Layer 1" xmlns="http://www.w3.org/2000/svg" viewBox="0 0 600 600"><title>Portugal</title><path d="M243.29,65a32.15,32.15,0,0,0-2.76,4.79,26.38,26.38,0,0,0-1.73,5.24c-.3,1.82-.69,3.6-.84,5.43a22.36,22.36,0,0,0-.26,2.72c0,.91-.12,1.81-.14,2.72a81,81,0,0,0,.71,10.9c.51,3.62,1.19,7.21,2,10.79,1.6,7.16,3.63,14.25,5.29,21.55l.65,2.73.57,2.74,1.13,5.49c.72,3.67,1.31,7.36,2,11A306.84,306.84,0,0,1,253.42,196c.05,1.89,0,3.77,0,5.65l-.06,5.65c-.12,3.77-.26,7.54-.45,11.32-.38,7.54-1,15.09-1.85,22.64-.22,1.89-.4,3.78-.64,5.67l-.8,5.65c-.49,3.78-1.13,7.53-1.72,11.32s-1.4,7.51-2.12,11.29l-.59,2.87c-.18,1-.3,2-.44,3-.23,2.08-.33,4.29-.46,6.66a55.38,55.38,0,0,1-.78,7.43,29.39,29.39,0,0,1-2.44,7.59,28.2,28.2,0,0,1-4.16,6.28c-1.6,1.77-3.22,3.46-4.79,5S229,317,227.5,318.32s-3,2.52-4.34,3.67-2.68,2.25-3.88,3.3c-.29.26-.59.53-.9.77l-.87.74c-.57.47-1.17,1-1.76,1.55-1.19,1.09-2.37,2.19-3.54,3.34s-2.38,2.24-3.54,3.4c-2.29,2.33-4.6,4.65-6.76,7A77.83,77.83,0,0,0,191.2,356.8a32,32,0,0,0-2.82,6.82c-.09.49-.29,1-.33,1.48l-.29,1.35L187,369.1c-.07.45-.16.92-.23,1.44,0,.24,0,.49,0,.75a3,3,0,0,0,.07.78,7.25,7.25,0,0,0,.17.78,2.15,2.15,0,0,0,.31.77,4.7,4.7,0,0,0,.95,1.43,9.29,9.29,0,0,0,3.28,2.34,29.93,29.93,0,0,0,5.21,1.73,66,66,0,0,1,7,2,39.3,39.3,0,0,1,7.84,4.37c1.13.81,2.1,1.62,3,2.37s1.61,1.45,2.25,2.1,1.14,1.2,1.59,1.72l.32.37c.06.07.1.12.1.1h0s.06,0,.1,0,.15,0,.44.19a15.12,15.12,0,0,0,1.92,1c2,.94,5.73,2.13,11.1,4.79a37.07,37.07,0,0,1,8.68,6.21,30,30,0,0,1,6.63,9.82c.35.85.64,1.69.93,2.54s.46,1.63.67,2.45c.24,1.25.42,2.43.62,3.65s.27,2.36.41,3.52.24,2.33.26,3.43l.12,3.35c0,1.09,0,2.17-.11,3.26a19.45,19.45,0,0,1-.57,3.21c-.25,1-.55,2.11-.83,3.14a24.61,24.61,0,0,0-1.07,6c-.05,2-.15,4-.26,5.92-.47,7.83-1.33,15.44-2.17,22.91l-.65,5.56-.29,2.74c-.11,1-.15,1.64-.37,3.1a49.52,49.52,0,0,1-1.64,7.15c-.66,2.2-1.39,4.25-2.15,6.18-1.51,3.88-3.08,7.33-4.44,10.58-.68,1.61-1.28,3.16-1.82,4.65s-1,2.88-1.28,4.17a21,21,0,0,0-.56,3.42,9.41,9.41,0,0,0,.16,2.35,2.72,2.72,0,0,0,.76,1.43,11.2,11.2,0,0,0,1.65,1.1,4,4,0,0,1,.54.3,6.31,6.31,0,0,0,.56.34c.2.12.38.25.56.38l.54.32a3.06,3.06,0,0,0,1.51.48c.33-.05.43-.22.65-.36a7.08,7.08,0,0,1,1.39-.59c1.52-.55,4.27-1.67,8.06-2.95a52.57,52.57,0,0,1,14.85-2.88,37.9,37.9,0,0,1,4.64.12l2.23.24c.7.11,1.41.22,2.11.35a61.21,61.21,0,0,1,7.46,2c2.19.76,4.16,1.55,5.94,2.29l4.74,2.06c1.43.62,2.61,1.13,3.69,1.54l1.49.58a9.87,9.87,0,0,0,1.33.44,20.34,20.34,0,0,0,3.59.51c1.4.11,3,.14,4.71.11,3.61-.1,7.12-.17,10.26-.41,1.6-.1,3.07-.28,4.52-.5a38.12,38.12,0,0,0,4-.87,15.73,15.73,0,0,0,3.32-1.28c.53-.24.93-.54,1.42-.8a14.26,14.26,0,0,0,1.23-.94,11.77,11.77,0,0,0,3.6-5.55,26.87,26.87,0,0,0,1-8.63c0-1.6-.21-3.3-.37-5s-.51-3.47-.79-5.29c-.63-3.6-1.37-7.37-1.93-11.43a54.64,54.64,0,0,1-.38-13.23,31.42,31.42,0,0,1,.61-3.64c.14-.62.27-1.23.44-1.85l.58-1.86c.18-.62.44-1.23.68-1.84s.48-1.24.79-1.83a32.48,32.48,0,0,1,2-3.49,18.52,18.52,0,0,1,1.26-1.73,22.55,22.55,0,0,1,1.55-1.77c.53-.59,1.26-.84,1.76-1.39s.95-1.07,1.41-1.58a28.89,28.89,0,0,1,5.46-5.4c3.86-2.32,7.27-3.92,9.74-5.5a16.41,16.41,0,0,0,2.78-2.08c.6-.59.69-1,.57-1.07s-.16,0-.27,0l-.07,0-.07,0c0,.1,0-.17-.06-.33a4,4,0,0,1,0-.49c0-.17-.08-.29-.09-.42s0-.26-.06-.38a2.41,2.41,0,0,1-.15-.33c0-.21-.23-.41-.3-.61s-.15-.22-.21-.33-.12-.22-.21-.35a23.21,23.21,0,0,0-1.48-1.88,57.73,57.73,0,0,0-5.72-5.54c-2.46-2.16-5.38-4.52-8.51-7.51-1.55-1.48-3.2-3.2-4.85-5.09L338,421.62c-.42-.53-.83-1-1.25-1.62a39.11,39.11,0,0,1-2.45-3.71c-.4-.68-.79-1.34-1.17-2.05s-.73-1.53-1.06-2.3l-.51-1.17-.44-1.27c-.29-.86-.56-1.72-.82-2.59s-.41-1.83-.59-2.75a23.77,23.77,0,0,1-.41-2.81c-.08-1-.14-1.9-.18-2.86a26.21,26.21,0,0,1,.09-2.81c.07-.93.13-1.89.25-2.79s.32-1.76.5-2.63a34.71,34.71,0,0,1,1.38-4.93,35.52,35.52,0,0,1,1.8-4.35,37.33,37.33,0,0,1,2.06-3.85l1.07-1.83,1.11-1.62,1.14-1.6.57-.8.56-.71c.75-.93,1.52-1.92,2.24-2.73s1.47-1.72,2.14-2.46c2.81-3.06,5.2-5.54,6.77-7.4l1-1.24.37-.51.19-.25.11-.2.25-.38c.1-.12.09-.2.17-.28a.79.79,0,0,1,.27-.2,1.17,1.17,0,0,1,.32-.11l1.08-.19a3.36,3.36,0,0,0,.71-.18c.28-.08.54-.17.86-.28a13.94,13.94,0,0,0,1.81-1.05,17.47,17.47,0,0,0,1.66-1.67,7.64,7.64,0,0,0,.65-.91,7.78,7.78,0,0,0,.55-1c.08-.16.18-.34.25-.51l.13-.47a8.57,8.57,0,0,0,.21-1,4.67,4.67,0,0,0-.13-1.91,8.79,8.79,0,0,0-.61-1.86,20.71,20.71,0,0,0-5.57-7.23c-2.57-2.26-5.62-4.41-8.81-6.87a44.52,44.52,0,0,1-9.17-9.3l-1-1.48-.48-.75a6.67,6.67,0,0,1-.47-.81c-.3-.6-.62-1.2-.89-1.81l-.74-1.84a27.8,27.8,0,0,1-1.06-3.77c-.17-.63-.25-1.28-.36-1.92a18.34,18.34,0,0,1-.21-2,26.33,26.33,0,0,1,.58-8.13,20.79,20.79,0,0,1,4-8.29,18.82,18.82,0,0,1,3.7-3.53,16.5,16.5,0,0,1,2.22-1.39,18.61,18.61,0,0,1,2.31-1.1,27.23,27.23,0,0,1,8.83-1.74c2.57-.13,4.77,0,6.61,0a20.15,20.15,0,0,0,4.25-.28,17.8,17.8,0,0,0,4.88-1.87,25.65,25.65,0,0,0,4.71-3.29c.81-.7,1.64-1.48,2.52-2.35a23.58,23.58,0,0,0,2.4-3,12,12,0,0,0,2.52-7.31c-.05-2.88-1.25-6.15-2.85-9.5s-3.68-7-4.84-11.2a30.18,30.18,0,0,1-.73-3.19,11,11,0,0,1-.24-1.71,17.74,17.74,0,0,1-.12-1.77,32,32,0,0,1,.66-6.73,82,82,0,0,1,3.6-11.41,53.64,53.64,0,0,0,2.89-9.57l.14-1.05.14-1.29c.09-.88.17-1.75.24-2.63.14-1.75.23-3.5.3-5.25a96.44,96.44,0,0,0-.18-10.36,73.77,73.77,0,0,0-1.37-10c-.35-1.61-.76-3.19-1.22-4.74-.26-.76-.48-1.52-.76-2.29l-.92-2.58a35.69,35.69,0,0,1-1.8-6.81,21.1,21.1,0,0,1-.19-4.41,22,22,0,0,1,.81-4.55,23.19,23.19,0,0,1,4.07-7.81,32.44,32.44,0,0,1,5.36-5.33,85.41,85.41,0,0,1,10.41-6.87c1.63-.95,2.93-1.76,4.34-2.68s2.74-1.81,4-2.79a63.88,63.88,0,0,0,7.1-5.94,25.79,25.79,0,0,0,4.79-6c.19-.49.45-.9.65-1.48a17.68,17.68,0,0,0,.52-1.74,16.42,16.42,0,0,0,.48-3.5,9.46,9.46,0,0,0-.25-2.58,3.38,3.38,0,0,0-1-1.67c-.74-.83-2-1.89-3.61-3.27A36.67,36.67,0,0,1,407.05,96a61.7,61.7,0,0,1-6.46-10.78c-1.7-3.42-3.17-6.54-4.82-9.18a19.05,19.05,0,0,0-5.49-6,5,5,0,0,0-.8-.48,6.71,6.71,0,0,0-.84-.44l-.88-.39-1-.31-1-.33c-.34-.1-.67-.13-1-.2l-1-.21c-.34,0-.66,0-1-.07a15.69,15.69,0,0,0-8.09,1.66,51.4,51.4,0,0,0-8.47,5.47c-2.9,2.18-5.88,4.56-9.19,6.74a31.56,31.56,0,0,1-11.67,4.9l-1.63.25c-.55,0-1.1,0-1.65.06s-1.1,0-1.64,0l-1.6-.16a33.82,33.82,0,0,1-6-1.31c-3.74-1.19-7.06-2.57-10.42-3.45a32.57,32.57,0,0,0-10.21-1.13,69.13,69.13,0,0,1-11.42,0,24.68,24.68,0,0,1-5.8-1.31,15.79,15.79,0,0,1-5.21-3.13,15.27,15.27,0,0,1-3.52-4.83,31.8,31.8,0,0,1-2-5.39l-.72-2.69c-.26-.88-.49-1.74-.8-2.58A18.42,18.42,0,0,0,280.21,56a13.49,13.49,0,0,0-8.91-5.5,21.88,21.88,0,0,0-10.79,1.2A35.39,35.39,0,0,0,250.87,57,36.52,36.52,0,0,0,243.21,65Zm-.08,0a36.11,36.11,0,0,1,7.31-8.4,35.72,35.72,0,0,1,9.61-5.92,22.5,22.5,0,0,1,11.41-1.71,15.26,15.26,0,0,1,5.68,1.89,15.49,15.49,0,0,1,4.52,4,20.77,20.77,0,0,1,2.92,5.13c.36.9.66,1.85.94,2.74l.8,2.62c1.1,3.43,2.47,6.74,5,8.89s6,3.17,9.49,3.44a64,64,0,0,0,10.86-.35,36.33,36.33,0,0,1,11.35.82c3.7.83,7.2,2.14,10.69,3.12a22.43,22.43,0,0,0,10.55.73,26.2,26.2,0,0,0,9.7-4.44c3-2.11,5.78-4.51,8.66-6.85a58.9,58.9,0,0,1,9.15-6.42,22.12,22.12,0,0,1,10.85-2.77c.47,0,.94,0,1.41,0l1.4.19c.46.08.93.11,1.39.22l1.36.35a18.52,18.52,0,0,1,5.22,2.06,25.21,25.21,0,0,1,8,7.72,104.75,104.75,0,0,1,5.64,9.57,57.79,57.79,0,0,0,6,9.27,27.66,27.66,0,0,0,4,3.84c1.42,1.16,2.92,2.27,4.26,3.55a12.87,12.87,0,0,1,3.19,4.53,16.87,16.87,0,0,1,1.08,5.44,25.23,25.23,0,0,1-2,10.82,32.76,32.76,0,0,1-6.36,9,59,59,0,0,1-8.48,7.13,90.12,90.12,0,0,1-9.46,5.77,72.93,72.93,0,0,0-9.44,5.78c-2.93,2.19-5.6,5-6.7,8.6a12.83,12.83,0,0,0-.5,5.47,30.45,30.45,0,0,0,1.26,5.4A72.27,72.27,0,0,1,387.61,188a110.24,110.24,0,0,1-1.79,22.06c-1.63,7.24-5.69,13.65-7.44,20.86a24.17,24.17,0,0,0-.65,5.49,23,23,0,0,0,.82,5.47A46.72,46.72,0,0,0,382.9,252a53.14,53.14,0,0,1,4.57,10.08,21.88,21.88,0,0,1,.26,11A25.81,25.81,0,0,1,375,290.39,22.31,22.31,0,0,1,364.36,293c-3.7,0-7.33-.89-11-1a15.59,15.59,0,0,0-5.47.72,11.08,11.08,0,0,0-4.58,3A15.08,15.08,0,0,0,339.79,306a19,19,0,0,0,.86,5.45l.48,1.3c.17.43.39.84.58,1.26.43.82,1,1.58,1.43,2.38a39,39,0,0,0,7.56,8c2.84,2.38,5.84,4.54,8.71,6.87a41.55,41.55,0,0,1,7.74,7.88,25.19,25.19,0,0,1,4.31,10.11,22.24,22.24,0,0,1-.57,11,29.24,29.24,0,0,1-5.46,9.57c-2.34,2.86-4.94,5.5-7.42,8.24-1.25,1.36-2.46,2.76-3.61,4.2-.6.71-1.1,1.49-1.65,2.23l-.81,1.12-.71,1.19a23.81,23.81,0,0,0-3.69,10.34,17.85,17.85,0,0,0,.4,5.5A21.56,21.56,0,0,0,350,407.8a43.3,43.3,0,0,0,6.67,8.81c2.52,2.71,5.17,5.28,7.72,8a55.32,55.32,0,0,1,7,8.6,26.91,26.91,0,0,1,2.47,4.95c.27.88.57,1.76.76,2.66a18.17,18.17,0,0,1,.37,2.75l.07,1.38c0,.46-.07.92-.1,1.38a12.64,12.64,0,0,1-.13,1.38l-.27,1.36a12.8,12.8,0,0,1-2.12,5.08c-2.15,3-5.4,5.05-8.67,6.72s-6.74,3.05-10,4.74-6.49,3.78-8.48,6.94a24.92,24.92,0,0,0-3.84,10.3,49.28,49.28,0,0,0-.18,11.06c.29,3.69.8,7.35,1.3,11s1,7.33,1.14,11a41.67,41.67,0,0,1-.74,11,26.29,26.29,0,0,1-1.8,5.23,21.78,21.78,0,0,1-3,4.65,21.32,21.32,0,0,1-1.89,2c-.7.6-1.37,1.24-2.13,1.77a28.88,28.88,0,0,1-4.75,2.85A50.31,50.31,0,0,1,318.88,547c-3.6.85-7.25,1.44-10.9,2a56.67,56.67,0,0,1-11,.94,40.78,40.78,0,0,1-10.86-2.09c-3.53-1.09-7-2.38-10.55-3.4A34.61,34.61,0,0,0,264.61,543c-7.45.29-14.3,3.64-21.64,4.6A18.93,18.93,0,0,1,232.14,546a25.15,25.15,0,0,1-8.45-7,21.17,21.17,0,0,1-2.8-4.77,19.1,19.1,0,0,1-1.35-5.36,24.36,24.36,0,0,1,.15-5.53,36.68,36.68,0,0,1,1.26-5.39c2.24-7.07,6-13.52,8.9-20.3a46.34,46.34,0,0,0,3.4-10.52c.55-3.65,1-7.32,1.54-11,1-7.32,1.87-14.67,2.3-22.05a109.05,109.05,0,0,0-.66-22.12c-.11-.92-.31-1.82-.49-2.73s-.32-1.82-.59-2.7l-.73-2.67-.46-1.31c-.19-.42-.37-.85-.57-1.26a14.25,14.25,0,0,0-3.35-4.36,18.44,18.44,0,0,0-4.7-2.88c-3.39-1.47-7-2.31-10.48-3.61a23,23,0,0,1-9.32-5.83c-2.49-2.75-4.31-6-6.65-8.87a26.21,26.21,0,0,0-3.88-3.93,49.17,49.17,0,0,0-4.52-3.2c-3.09-2-6.33-3.87-9-6.44A22.24,22.24,0,0,1,175.6,373a25.57,25.57,0,0,1-1-11,41.82,41.82,0,0,1,2.81-10.7,87.31,87.31,0,0,1,11.05-19.17A148.26,148.26,0,0,1,203,315.43c5.23-5.24,11.16-9.7,16.53-14.77a60.08,60.08,0,0,0,7.41-8.21,45.12,45.12,0,0,0,5.35-9.66c2.81-6.84,4.55-14.06,6.47-21.19.84-3.59,1.8-7.16,2.5-10.79l1.14-5.43c.36-1.81.66-3.64,1-5.45a309.58,309.58,0,0,0,2.79-88.34c-.48-3.66-.91-7.33-1.46-11l-.88-5.47-.45-2.73-.53-2.73c-1.32-7.27-3-14.46-4.35-21.74-.66-3.64-1.19-7.3-1.56-11a80.33,80.33,0,0,1-.28-11.08A49.81,49.81,0,0,1,238.48,75a46,46,0,0,1,4.66-10Z"/></svg>