<svg id="Layer_1" data-name="Layer 1" xmlns="http://www.w3.org/2000/svg" viewBox="0 0 600 600"><title>PuertoRico</title><path d="M467.09,238c-1.54-.52-3-1.11-4.61-1.56s-3.13-.86-4.71-1.22c-.79-.17-1.58-.37-2.38-.52l-2.39-.43-4.76-1c-1.58-.3-3.15-.7-4.75-.91l-4.8-.69L433.9,231c-1.59-.23-3.21-.3-4.81-.46l-4.82-.42-2.4-.21c-.81-.06-1.61-.07-2.42-.11-3.22-.15-6.44-.28-9.66-.34l-9.67.07c-3.22,0-6.45.19-9.67.3-12.9.58-25.78,1.62-38.76,2.63s-26.06,1.86-39.32,2.24c-3.32.07-6.64.14-10,.12s-6.69-.11-10-.29c-6.68-.47-13.49-.95-20.06-2-13.08-2.15-25.29-5.55-37.25-5.74-3,0-6,.1-9.07.32s-6.18.63-9.33,1.1c-6.28,1-12.82,2.11-19.53,3.2s-13.39,2-20.15,2.69c-3.39.36-6.78.56-10.17.74s-6.8.25-10.2.25a173,173,0,0,1-20.34-1.35,75.83,75.83,0,0,1-10.11-2.09c-3.29-.9-6.46-2.1-9.58-3.27l-2.33-.9L113.1,227l-.58-.23-.74-.26a55.94,55.94,0,0,1-5.54-2.3c-3.33-1.52-6-3-8.5-3.94a20.94,20.94,0,0,0-6.57-1.55,12.05,12.05,0,0,0-5.44.74,11.28,11.28,0,0,0-2,1.14,4.09,4.09,0,0,0-1,1.18c-.59,1-.72,3.38-.52,6.37.1,1.52.24,3.19.39,5l.08,1.39,0,.35,0,.49c0,.33,0,.65,0,1a18.36,18.36,0,0,1-.52,3.93,15.61,15.61,0,0,1-4.26,7.61A14.57,14.57,0,0,1,74,250.52a17.15,17.15,0,0,1-3.9,1.19,35.08,35.08,0,0,1-5.76.42c-.74,0-1.4,0-1.92.07a10,10,0,0,0-1.3.18,7,7,0,0,0-2.26,1,7.6,7.6,0,0,0-1.86,2,7.35,7.35,0,0,0-1.08,2.79,6.88,6.88,0,0,0,0,3,7,7,0,0,0,1.12,2.6,12.63,12.63,0,0,0,2.28,2.39,58.77,58.77,0,0,0,7.79,5l1.27.73c.44.24.9.52,1.35.79a14.6,14.6,0,0,1,1.37.9c.48.32,1,.6,1.45,1L74,275.68c.49.42,1,.86,1.49,1.32s1,1,1.46,1.51l.72.8c.24.27.39.39.58.59,1.5,1.47,3,3,4.41,4.64a61.7,61.7,0,0,1,3.94,5.13,35.59,35.59,0,0,1,5.09,11.51,51.66,51.66,0,0,1,1,12.1c0,1-.09,2-.16,3l-.24,2.84c-.05,1-.23,1.86-.35,2.79s-.25,1.86-.41,2.75a107.75,107.75,0,0,1-5.73,20c-1.12,3.1-2.31,6.1-3.41,9.06s-2.08,5.86-3,8.78c-.44,1.43-.86,2.9-1.18,4.34s-.63,2.9-.89,4.35l-.17,1a7.15,7.15,0,0,0-.14.91c-.08.62-.12,1.23-.15,1.84s0,1.2,0,1.77.08,1.12.14,1.65a9.42,9.42,0,0,0,.61,2.57,8.67,8.67,0,0,0,.52,1.1s.06,0,.07.07.25.11.36.19a1.45,1.45,0,0,0,.4.16,1.59,1.59,0,0,0,.4.14,5.28,5.28,0,0,0,2-.07,16.36,16.36,0,0,0,3-1.06c1.13-.51,2.36-1.22,3.75-2s2.89-1.61,4.71-2.48a40.42,40.42,0,0,1,6-2.22,63.85,63.85,0,0,1,11.68-2c1.86-.21,3.7-.51,5.5-.71a42,42,0,0,1,5.29-.41c3.59-.05,7,.08,10.36.19s6.54.19,9.65.23,6-.06,8.83-.25a58.31,58.31,0,0,0,7.76-1.08,39.32,39.32,0,0,0,6.43-1.93c.5-.17.93-.42,1.4-.61a13.22,13.22,0,0,0,1.37-.65c.89-.44,1.9-1.08,3-1.65,4.49-2.49,10.24-6.56,19.11-9.88,1.08-.39,2.29-.74,3.48-1.08s2.5-.55,3.75-.81,2.63-.35,4-.43,2.7-.07,4,0a39.48,39.48,0,0,1,13.83,3.44,93.13,93.13,0,0,1,9.68,5.17c.68.4,1.42.84,2.13,1.22l2.11,1.17,4,2.2c2.61,1.44,5,3,7.54,4.07a18.58,18.58,0,0,0,7.44,1.58c.61,0,1.21,0,1.82,0s1.17-.09,1.86-.2a38.75,38.75,0,0,0,4.16-.89,66.5,66.5,0,0,0,8.67-3.13c3-1.25,6-2.69,9.25-4,1.62-.66,3.28-1.35,5-1.94.85-.32,1.76-.57,2.64-.86l2.62-.75a45.7,45.7,0,0,1,5.7-1.22,32.67,32.67,0,0,1,6.54-.38,23.63,23.63,0,0,1,7.39,1.53c.62.26,1.25.5,1.86.82l.91.48c.3.16.63.34.85.48,1,.61,2,1.22,2.84,1.87s1.69,1.29,2.52,2,1.52,1.3,2.17,1.9c1.38,1.24,2.56,2.34,3.63,3.23,2.14,1.87,3.64,2.53,4.4,2.51a7.26,7.26,0,0,0,1.3-.1,6.7,6.7,0,0,1,1.28,0,14.89,14.89,0,0,1,1.55.4,70.48,70.48,0,0,0,8.91,1.41l1.44.15,1.5.14c1,.09,2,.26,3,.38,1.93.32,3.8.6,5.62.92,3.63.67,7.11,1.14,10.45,1.95,6.62,1.59,12.83,3.45,18.87,4.28a83.2,83.2,0,0,0,18.39.35,93.56,93.56,0,0,0,18-3.24c2.91-.82,5.77-1.78,8.72-2.89l9.06-3.55c3.12-1.2,6.37-2.38,9.81-3.38a63.48,63.48,0,0,1,10.86-2.18c3.73-.4,7.16-.44,10.26-.59a45.15,45.15,0,0,0,8.14-1,17.88,17.88,0,0,0,3.05-1c.45-.22.88-.48,1.33-.68s.85-.54,1.29-.79a22.73,22.73,0,0,0,4.71-4.54,54.44,54.44,0,0,0,4.31-6.51c1.4-2.42,2.64-5.1,3.9-7.88.62-1.4,1.24-2.82,1.84-4.29l1.89-4.55a103.49,103.49,0,0,1,4.54-9.55,61.3,61.3,0,0,1,6.06-9.2,40.59,40.59,0,0,1,8.48-8.08,29,29,0,0,1,11.36-4.8l1.53-.27c.51-.07,1-.11,1.52-.15,1-.06,1.93-.09,2.81-.08l4.81.08a20.86,20.86,0,0,0,3.69-.27,8.6,8.6,0,0,0,1.38-.42l.31-.12.29-.18.59-.34a7.11,7.11,0,0,0,1.84-2,11.28,11.28,0,0,0,1.05-3.22,22.55,22.55,0,0,0-.41-8.19,35.72,35.72,0,0,0-1.2-4.24c-.23-.71-.53-1.38-.8-2.07a26.92,26.92,0,0,1-1-2.67,91.28,91.28,0,0,1-2-9.89,35.92,35.92,0,0,0-2.38-8.73,10.43,10.43,0,0,0-2.29-3.28,8.32,8.32,0,0,0-3.48-1.89c-2.76-.84-6-.79-9.26-.93a32.66,32.66,0,0,1-5-.54c-1.64-.29-3.25-.64-4.84-1-3.19-.81-6.3-1.8-9.38-2.83-6.19-2.05-12.23-4.45-18.28-6.79s-12.07-4.77-18.15-7Zm0-.09c6.22,1.89,12.39,4,18.54,6s12.24,4.17,18.44,6c3.1.91,6.2,1.76,9.32,2.42,1.56.33,3.12.61,4.69.83a30.12,30.12,0,0,0,4.67.32c3.17,0,6.56-.22,10,.63a13.07,13.07,0,0,1,2.53.87,11.16,11.16,0,0,1,2.31,1.47,14,14,0,0,1,3.29,4.17,38.18,38.18,0,0,1,3.12,9.52,92.32,92.32,0,0,0,2.27,9.34,22.4,22.4,0,0,0,.86,2.15c.34.76.71,1.5,1,2.28a40.89,40.89,0,0,1,1.59,4.72,28.43,28.43,0,0,1,1,9.95,16.45,16.45,0,0,1-1.28,4.94,12.74,12.74,0,0,1-3.13,4.12c-.34.27-.7.5-1.05.75l-.54.37-.57.3a12.94,12.94,0,0,1-2.39.95,23.52,23.52,0,0,1-4.95.74c-3.28.2-6.52,0-9.59.75a22,22,0,0,0-8.54,4,33.39,33.39,0,0,0-6.65,6.88,54.68,54.68,0,0,0-5,8.3,96,96,0,0,0-3.81,8.92c-1.12,3-2.19,6.11-3.38,9.13-2.37,6-5.07,12-9.13,17.12a29.67,29.67,0,0,1-7.17,6.52c-.7.39-1.39.84-2.12,1.19s-1.47.67-2.23,1a27.3,27.3,0,0,1-4.69,1.26c-6.42,1.12-13,.34-19.43.77s-12.79,2.24-18.92,4.3-12.23,4.38-18.55,5.89A97.78,97.78,0,0,1,379,388.18c-6.41-1-12.65-2.85-19-4.05s-13-1.66-19.33-.27a89.34,89.34,0,0,1-9.59,1.64,19.71,19.71,0,0,1-9.57-1.13,22.43,22.43,0,0,1-7.65-5.89,79.58,79.58,0,0,0-6.74-7,17,17,0,0,0-4-2.68,15.84,15.84,0,0,0-4.68-1.26,30.55,30.55,0,0,0-9.67.71c-6.38,1.29-12.37,3.92-18.3,6.51-3,1.3-6,2.58-9,3.65a41.47,41.47,0,0,1-9.42,2.32,39.45,39.45,0,0,1-9.71-.27,71.82,71.82,0,0,1-9.48-2.16c-3.11-.91-6.19-1.94-9.27-3s-6.15-2.08-9.29-2.89a36.81,36.81,0,0,0-9.62-1.3,30.21,30.21,0,0,0-4.83.51,36.13,36.13,0,0,0-4.68,1.32c-6.14,2.17-11.62,5.75-17.45,8.59-1.46.69-2.93,1.38-4.45,2-.75.31-1.52.56-2.3.8s-1.54.52-2.33.7a54.45,54.45,0,0,1-9.58,1.6,83.12,83.12,0,0,1-9.73.06c-3.24-.19-6.47-.49-9.69-.87-6.45-.77-12.86-1.77-19.33-2.3s-13-.81-19.38.62a30,30,0,0,0-4.64,1.43c-1.51.61-3,1.31-4.45,2a36,36,0,0,1-9.15,3.22,13,13,0,0,1-9.32-1.86c-2.69-1.9-4.19-5-5.06-8.1A35.54,35.54,0,0,1,67,371.18c0-3.25.17-6.49.43-9.72C68,355,69,348.57,70,342.16s2-12.82,2.62-19.28c.29-3.23.5-6.47.53-9.71a83.08,83.08,0,0,0-.53-9.72,63.93,63.93,0,0,0-5.09-18.7,22.6,22.6,0,0,0-5.91-7.64c-2.4-2.18-5-4.18-7.17-6.57a20.34,20.34,0,0,1-2.83-4,14.95,14.95,0,0,1,.25-14,14.14,14.14,0,0,1,3-3.78,13.41,13.41,0,0,1,4.2-2.4c3.1-1.07,6.44-.66,9.62-1.31A8.28,8.28,0,0,0,73,242.94a8.51,8.51,0,0,0,2.23-4.24,11.65,11.65,0,0,0,.27-2.42c0-.81-.1-1.61-.17-2.42-.17-1.62-.39-3.22-.58-4.83a39.43,39.43,0,0,1-.35-4.86,15.3,15.3,0,0,1,.66-4.8,12.55,12.55,0,0,1,2.34-4.23,16.42,16.42,0,0,1,1.75-1.69,14.22,14.22,0,0,1,2-1.43,20.7,20.7,0,0,1,9.21-2.89,31.46,31.46,0,0,1,9.67.77c3.17.69,6.27,1.68,9.4,2.52,1.57.42,3.14.8,4.74,1.09l4.8.82c6.39,1.08,12.8,2.12,19.25,2.85s12.91,1.33,19.38,1.71a345.94,345.94,0,0,0,38.91.16c13-.63,25.87-2.36,38.87-2s25.78,3,38.59,5c3.21.5,6.41,1,9.64,1.31s6.44.78,9.68,1.05l9.7.71c3.24.19,6.48.29,9.72.43,25.95.91,51.91-.39,77.86.23,25.91.43,52,3.47,76.6,12Z"/></svg>