<svg id="Layer_1" data-name="Layer 1" xmlns="http://www.w3.org/2000/svg" viewBox="0 0 600 600"><title>Qatar</title><path d="M214.1,187.58a52,52,0,0,1,0-23.32c.38-1.92.78-3.84,1.19-5.74a30.81,30.81,0,0,1,1.69-5.85,12.43,12.43,0,0,1,1.68-2.82,8.56,8.56,0,0,1,2.71-2.23,6.51,6.51,0,0,1,3.76-.78,6.66,6.66,0,0,1,3.44,1.75c.84.73,1.49,1.43,2.09,1.86a1.91,1.91,0,0,0,1.43.49,3,3,0,0,0,2.69-2,12.45,12.45,0,0,0,.71-4.83,40.84,40.84,0,0,0-.56-5.51c-.28-1.87-.66-3.75-1-5.71-.18-1-.36-2-.48-3.12a12.69,12.69,0,0,1-.09-1.94l0-1.48c.06-3.91.14-7.87.38-11.91.06-1,.13-2,.22-3l.27-3a32.83,32.83,0,0,1,.52-3.46,15.32,15.32,0,0,1,1.56-4.22,11.08,11.08,0,0,1,4.36-4.35,28.94,28.94,0,0,1,3.58-1.62,12,12,0,0,0,2.12-.94c.34-.24.2-.31,0-.26s-.15,0-.13-.08a5.62,5.62,0,0,1,.2-.62c0-.21.06-.43.11-.63s0-.47.06-.69c.05-1,0-2.33-.14-4.42l-.05-1.74c0-.71,0-1.32.11-2.12l.15-1.21c0-.2.05-.39.1-.61l.17-.69c.11-.45.24-.91.37-1.36A13.87,13.87,0,0,1,248,78c.22-.47.42-.95.68-1.4s.57-.88.87-1.31a14.18,14.18,0,0,1,2-2.28,14.48,14.48,0,0,1,2.09-1.74l1.07-.76,1-.56,1.87-1,1.2-.63c.81-.42,1.59-.88,2.38-1.31,1.57-.9,3.13-1.81,4.65-2.79q4.54-2.94,8.77-6.26c2.8-2.22,5.49-4.57,8-7,1.29-1.22,2.52-2.48,3.74-3.75a49,49,0,0,1,5.21-4.85,29.4,29.4,0,0,1,4.2-2.76,24.38,24.38,0,0,1,5.6-2.19A30.22,30.22,0,0,1,312,36.75,64.39,64.39,0,0,1,319.28,38c2,.46,4.09.94,6.21,1.52a75.07,75.07,0,0,1,13.18,4.76,47.46,47.46,0,0,1,13.61,9.52,38,38,0,0,1,5.75,7.7c.39.72.82,1.43,1.16,2.19s.64,1.52.94,2.29a30.12,30.12,0,0,1,1.45,4.64,53.87,53.87,0,0,1,1.18,7.82c.21,2.21.26,4,.39,5.39.06.71.13,1.27.22,1.86s.2,1.19.34,1.77A27.81,27.81,0,0,0,364.76,91a23.89,23.89,0,0,0,1.58,3.36,29.08,29.08,0,0,0,1.94,3c.59.78,1,1.24,1.21,1.45a1.19,1.19,0,0,0,.38.34,5.71,5.71,0,0,0,1,.41,23.92,23.92,0,0,0,4.07.7c1.77.19,3.9.33,6.4.67,1.28.18,2.72.48,4.06.74s2.63.74,3.94,1.13,2.5,1,3.75,1.47,2.38,1.16,3.56,1.76a44.65,44.65,0,0,1,12.17,9.85,40.71,40.71,0,0,1,8,14.19c.42,1.36.72,2.79,1,4.19s.38,2.92.5,4.38,0,3-.13,4.46-.43,3-.75,4.38a46.58,46.58,0,0,1-2.51,7.24c-.91,2.07-1.85,4-2.69,5.71s-1.61,3.31-2.13,4.65c-.15.35-.29.69-.38,1s-.23.62-.31.9-.12.52-.2.77-.05.41-.1.62l-.06.29a1.23,1.23,0,0,1,0,.19,1.21,1.21,0,0,1,0,.19l0,.09,0,.05a.38.38,0,0,1,0,.21c.05,0,.07.06.06.11s.08.07.07.12,0,.09.05.14a15.71,15.71,0,0,0,1,1.29c.54.71,1.32,1.69,2.2,3,.22.34.45.72.67,1.1s.47.84.63,1.18c.35.74.68,1.47,1,2.23.33.92.63,1.8.89,2.81.13.57.24,1.15.33,1.73l.13.88c0,.33,0,.69.05,1,0,.71,0,1.41,0,2.12s-.23,1.57-.4,2.35a13.88,13.88,0,0,1-.74,2.29c-.16.38-.32.75-.49,1.12s-.36.66-.55,1-.4.64-.6,1a9.65,9.65,0,0,1-.63.86c-.4.5-.82,1-1.26,1.46s-.78.76-1.18,1.13c-.2.17-.41.37-.6.51l-.51.41a39.69,39.69,0,0,1-3.5,2.4c-.88.55-1.69,1-2.22,1.41a6.73,6.73,0,0,0-1.12.87,6,6,0,0,0-1.07,1.53,28.65,28.65,0,0,0-1.39,3.54c-.55,1.62-1.19,3.66-2.13,6-.46,1.17-1,2.42-1.64,3.7s-1.37,2.53-2,3.58c-1.32,2.13-2.46,3.79-3.22,5.08A11.85,11.85,0,0,0,390,229c-.17.42-.23.87-.37,1.29a8.72,8.72,0,0,0-.2,2.6,11.77,11.77,0,0,0,.49,3l.1.4.18.43.34.86c.29.6.57,1.18.95,1.82.69,1.24,1.66,2.54,2.64,3.94s2.13,2.87,3.23,4.49a43.36,43.36,0,0,1,3.17,5.33c.51,1,.94,2.08,1.41,3.21s.86,2.4,1.19,3.75a39.78,39.78,0,0,1,.86,4.27,22.24,22.24,0,0,1,.24,4.72,16.44,16.44,0,0,1-1.15,4.87,18.4,18.4,0,0,1-2.52,4.48,46.3,46.3,0,0,1-3.23,3.81l-.84.89c-.28.35-.49.37-.78.73-.53.57-1,1.12-1.5,1.68a37.87,37.87,0,0,0-4.69,7c-.66,1.11-1.37,2.14-1.84,2.82a12.84,12.84,0,0,0-.8,1.26c-.05.1-.06,0-.07.16a4.14,4.14,0,0,0,0,.66,5.5,5.5,0,0,0,.86,2,14.12,14.12,0,0,0,.93,1.21c.38.41.8.83,1.35,1.36a9,9,0,0,0,2.48,1.42c1.52.63,4.76,1.22,6,.85.8-.15,1.39-.37,3.51-.71a26,26,0,0,1,4.61-.26,23.35,23.35,0,0,1,3.36.36,29.15,29.15,0,0,1,3.5.93,30,30,0,0,1,3.23,1.4,29.2,29.2,0,0,1,2.82,1.69,29.74,29.74,0,0,1,4.42,3.8,38.1,38.1,0,0,1,5.61,7.63,64.46,64.46,0,0,1,5.6,13.94,115.69,115.69,0,0,1,3.81,25.84c.05,1.06.08,2.14.1,3.2a3.26,3.26,0,0,1,0,.57l0,.79,0,1.62c0,1.08,0,2.17,0,3.26s0,2.17-.05,3.27a113.36,113.36,0,0,1-1.14,13.27,80.64,80.64,0,0,1-8.47,26.26,70.55,70.55,0,0,1-8,11.71,108.56,108.56,0,0,1-9,9.28c-2.94,2.75-5.67,5.22-8.09,7.69a44.93,44.93,0,0,0-5.85,7.51,40.9,40.9,0,0,0-3.57,8.9c-.5,1.66-.86,3.44-1.25,5.25l-.57,2.77-.5,2.88-1.08,6c-.38,2.08-.86,4.23-1.4,6.38a57.84,57.84,0,0,1-4.95,13.07,40.5,40.5,0,0,1-4.3,6.37,34.74,34.74,0,0,1-6,5.59l-1.74,1.18c-.58.34-1.18.7-1.76,1-1.13.61-2.24,1.15-3.26,1.62-2.05.94-3.85,1.68-5.34,2.28-.4.15-.71.31-1.05.44a8.43,8.43,0,0,1-1,.26l-1.6.37a11.92,11.92,0,0,0-2.11.56c-.71.41-1.64,1.76-2.57,3.7-.5,1-1,2-1.66,3.24a20.2,20.2,0,0,1-1.07,1.72l-.54.82-.63.87c-.2.27-.46.59-.73.91a10.78,10.78,0,0,1-.9,1l-.54.51a7.75,7.75,0,0,1-.67.54L347,526a7,7,0,0,1-1,.53,6.81,6.81,0,0,1-1.21.44,10.8,10.8,0,0,1-1.49.26,7.71,7.71,0,0,1-3.09-.44,6.37,6.37,0,0,1-1.28-.59,9.86,9.86,0,0,1-1-.69,8.6,8.6,0,0,1-.75-.67,8.93,8.93,0,0,1-.62-.68,14.64,14.64,0,0,1-2.38-4.36l-.34-.94-.25-.8-.48-1.55a19.11,19.11,0,0,0-1.83-4.71,4.47,4.47,0,0,0-2.16-1.71,17.32,17.32,0,0,0-3.58-1.26,40.12,40.12,0,0,0-4.26-.85c-1.48-.22-3-.41-4.5-.54-.75-.09-1.5-.14-2.23-.18s-1.36-.07-1.94-.11c-1.17,0-2-.06-2.71-.1a4.28,4.28,0,0,1-.44-.06H309a5.92,5.92,0,0,0-.88.07l-.73.09a.62.62,0,0,0-.55.37,2.62,2.62,0,0,0,.61,2.52,5.83,5.83,0,0,0,.55.66c.26.21.51.45.8.65a5.54,5.54,0,0,0,.9.58c.31.18.65.35,1,.51s.72.31,1.08.47.78.26,1.19.38a26.71,26.71,0,0,0,2.6.64c1.82.37,3.84.66,6,1.12A32,32,0,0,1,325,516a21.53,21.53,0,0,1,3.63,1.61,20,20,0,0,1,6.14,5.28,21,21,0,0,1,1.25,1.83,18.27,18.27,0,0,1,1,2.13,14.5,14.5,0,0,1,1.08,5.12,14.18,14.18,0,0,1-1.07,5.56,15,15,0,0,1-2.9,4.44,22.12,22.12,0,0,1-3.25,2.86c-1.05.76-2,1.38-2.89,1.92l-2.75,1.69-2.83,1.54c-.94.53-1.92,1-2.89,1.44s-1.95.93-3,1.31a69.83,69.83,0,0,1-12.32,3.93,71,71,0,0,1-25.79,1.2,70.26,70.26,0,0,1-12.65-2.89,83.83,83.83,0,0,1-11.92-4.8A130.84,130.84,0,0,1,212,522.29c-1.48-1.44-2.92-2.92-4.3-4.43s-2.78-3-4.11-4.55c-2.62-3.1-5.23-6.17-7.62-9.35l-.91-1.19-.73-1c-.36-.49-.83-1.05-1.34-1.65-1-1.22-2.24-2.57-3.55-4.17a63.25,63.25,0,0,1-4.18-5.48,35.33,35.33,0,0,1-3.87-7.42c-.28-.71-.48-1.42-.7-2.12s-.42-1.53-.59-2.47l-.13-.67-.1-.78-.09-.77,0-.9c0-.3,0-.57,0-.91s0-.69.05-1a16.61,16.61,0,0,1,.35-2.24,13.5,13.5,0,0,1,2.17-4.77,12.28,12.28,0,0,1,6.17-4.53,11.54,11.54,0,0,1,2.18-.49,26,26,0,0,1,5.27.16,3.73,3.73,0,0,0,1.5-.17,1.74,1.74,0,0,0,.27-.14c.12-.12.26-.24.38-.37a4.16,4.16,0,0,0,.65-.85,16.25,16.25,0,0,0,1.94-8.8,31.23,31.23,0,0,0-2.13-9.71,74.44,74.44,0,0,0-10.21-17.33c-.93-1.27-1.92-2.42-2.83-3.47a19.73,19.73,0,0,1-1.77-2.09,33.18,33.18,0,0,1-2.48-3.48,32.28,32.28,0,0,1-2.06-3.78,35.55,35.55,0,0,1-1.62-3.94l-.66-2c-.21-.66-.33-1.31-.5-2l-.45-2-.32-1.89c-1.4-10.13-.31-17.82-1-23.43-.08-.67-.13-1.37-.22-2s-.21-1.29-.33-1.84a23.93,23.93,0,0,0-1.23-3.74c-1.17-2.94-3.2-6.63-5-11.39a39.49,39.49,0,0,1-2-7.74,48.72,48.72,0,0,1-.56-7.43c0-2.35.12-4.58.3-6.68l.53-5.94c.3-3.68.6-7.42.59-11.2s.21-7.61.25-11.48c.18-15.45,0-31.57,2.54-47.8q.5-3,1.12-6.08l1.25-5.74c.21-1,.45-2.07.77-3.23.14-.55.37-1.22.56-1.82.11-.32.26-.67.39-1a11,11,0,0,1,.46-1,13.84,13.84,0,0,1,3.2-4.29c.37-.3.75-.58,1.14-.86l.59-.4.59-.31,1.2-.58c.39-.15.76-.26,1.15-.39a13.45,13.45,0,0,1,2.17-.51,15,15,0,0,1,2-.23l1-.06h2.21l.19,0a4.56,4.56,0,0,0,2.3-.4,1.28,1.28,0,0,0,.46-.37,1.93,1.93,0,0,0,.35-.89,6.46,6.46,0,0,0-.41-3.27,11.67,11.67,0,0,0-.94-1.87,24.17,24.17,0,0,0-1.42-2.08c-1.07-1.44-2.36-3-3.63-4.79a22.9,22.9,0,0,1-3.23-6.4,13.54,13.54,0,0,1-.1-8.11,11.19,11.19,0,0,1,2.14-3.83,12.17,12.17,0,0,1,3.25-2.61,13.38,13.38,0,0,1,7.57-1.65,12.94,12.94,0,0,1,3.79.88,15.14,15.14,0,0,1,3.23,1.8,17.45,17.45,0,0,1,4.68,5.19A20.79,20.79,0,0,1,210,210.2a31.17,31.17,0,0,1,.74,6.29c0,2.07-.05,4.08-.19,6.07s-.27,3.86-.34,5.78a68.17,68.17,0,0,0,.36,11.37c.48,3.49,1.7,8,4.56,6.48a7.21,7.21,0,0,0,1.1-.57c.35-.25.76-.49,1.05-.75a7.36,7.36,0,0,0,1.59-2,23.18,23.18,0,0,0,1.88-5.26c1-3.81,2.35-7.48,3.5-11.19a52.64,52.64,0,0,0,2.49-11.33,21.38,21.38,0,0,0-1.83-11.32h0c-1.9-2.65-4.31-4.91-6.28-7.54a26.81,26.81,0,0,1-4.42-8.72Zm.09,0a15.05,15.05,0,0,0,.91,2.28c.36.74.71,1.47,1.12,2.17a29,29,0,0,0,2.77,4c2,2.5,4.57,4.6,6.68,7.26l0,0,0,.09a22,22,0,0,1,2.42,11.84,45.53,45.53,0,0,1-.77,6c-.39,1.94-.89,3.86-1.43,5.75-1.07,3.78-2.28,7.48-3.19,11.2a24.68,24.68,0,0,1-1.93,5.82,9.39,9.39,0,0,1-2,2.65,13.89,13.89,0,0,1-1.29,1,10.93,10.93,0,0,1-1.47.82,4.75,4.75,0,0,1-3.74.21,5.46,5.46,0,0,1-2.63-2.51,18.43,18.43,0,0,1-1.86-5.94,71.68,71.68,0,0,1-.71-11.85c0-2,.1-3.93.18-5.87s.1-3.85,0-5.74a21.62,21.62,0,0,0-3-10.62,13.72,13.72,0,0,0-3.73-3.93,9.59,9.59,0,0,0-4.94-1.77,9,9,0,0,0-5.07,1.24,6.77,6.77,0,0,0-3.18,3.9,8.63,8.63,0,0,0,.25,5.21,17.56,17.56,0,0,0,2.66,4.87c2.26,3,5.24,5.77,7,9.54a12.52,12.52,0,0,1,1.12,6,7.71,7.71,0,0,1-2.87,5.52,9.9,9.9,0,0,1-5.84,1.91,18.15,18.15,0,0,0-5.61.64,6.78,6.78,0,0,0-2.34,1.29,7.11,7.11,0,0,0-1.54,2.19,23.52,23.52,0,0,0-1.47,5.51l-1,5.75q-.49,2.87-.87,5.76c-1.94,15.44-1.23,31.09-.85,46.65.2,7.79.36,15.59,0,23.37-.16,3.89-.44,7.79-.23,11.68a32.35,32.35,0,0,0,2.43,11.37c1.52,3.6,3.59,6.92,5.33,10.4a37.39,37.39,0,0,1,2.25,5.39c.28.93.49,1.88.75,2.82s.35,1.92.53,2.88c1.16,7.72.24,15.59,1.41,23.31a30,30,0,0,0,3.76,11,21.92,21.92,0,0,0,1.63,2.43c.55.8,1.18,1.54,1.75,2.34a53.88,53.88,0,0,1,3.14,4.92,68,68,0,0,1,7.72,21.95,44.08,44.08,0,0,1,.41,11.64,25.4,25.4,0,0,1-3.65,11,14.05,14.05,0,0,1-.83,1.19,11.18,11.18,0,0,1-.92,1.14,10.24,10.24,0,0,1-2.3,1.79,35.79,35.79,0,0,1-5.36,2.31,11.7,11.7,0,0,0-2.58,1.34,3.88,3.88,0,0,0-1.57,2.38,6.71,6.71,0,0,0,.21,2.89,15.54,15.54,0,0,0,1,2.74c1.65,3.55,4.32,6.48,7,9.3,1.34,1.41,2.71,2.81,4,4.26a57,57,0,0,1,3.64,4.57C210.18,503,215,509.18,220.18,515a137,137,0,0,0,16.88,16.14,92.11,92.11,0,0,0,19.83,12.27,73.57,73.57,0,0,0,22.45,6.14,76.63,76.63,0,0,0,23.26-1.06,74.2,74.2,0,0,0,21.83-8.07,20.38,20.38,0,0,0,4.78-3.33,7.52,7.52,0,0,0,2.29-5.21,9.45,9.45,0,0,0-1.9-5.43,15.56,15.56,0,0,0-4.2-4,19.1,19.1,0,0,0-5.33-2.34c-1.86-.57-3.77-1-5.66-1.47-3.74-.92-7.6-2.16-10.49-4.85a9.92,9.92,0,0,1-2.94-4.95,7.31,7.31,0,0,1,1-5.59,10.25,10.25,0,0,1,4.37-3.77,16,16,0,0,1,5.66-1.32,33.43,33.43,0,0,1,5.83.24,40,40,0,0,1,5.73,1.12A26.05,26.05,0,0,1,334,504.71a12,12,0,0,1,3.31,4.75,47.38,47.38,0,0,1,1.56,5.63,14.18,14.18,0,0,0,2.14,5.38,2.76,2.76,0,0,0,1.16.87,1.71,1.71,0,0,0,1.4-.1,5.62,5.62,0,0,0,2-2,18.29,18.29,0,0,0,1.36-2.58,27.31,27.31,0,0,0,1-2.76,30.45,30.45,0,0,1,2-5.49,12.9,12.9,0,0,1,3.84-4.34,26.18,26.18,0,0,1,5.12-2.79c3.56-1.56,7.33-2.74,10.55-5a25,25,0,0,0,4.37-3.85,33.14,33.14,0,0,0,3.43-4.73,46.34,46.34,0,0,0,4.5-10.75,108.38,108.38,0,0,0,2.49-11.41c1.37-7.64,2.62-15.46,6.16-22.46s9.13-12.62,14.44-18.28a101.82,101.82,0,0,0,7.62-8.85,58.26,58.26,0,0,0,6-10,71.07,71.07,0,0,0,5.89-22.51,124.65,124.65,0,0,0-.15-23.34,133,133,0,0,0-3.79-23,55,55,0,0,0-4.11-10.91,25.17,25.17,0,0,0-3.27-4.83,12.42,12.42,0,0,0-4.67-3.41,13.19,13.19,0,0,0-5.75-.67,30,30,0,0,1-5.84-.16,23.89,23.89,0,0,1-5.61-1.57,24.51,24.51,0,0,1-5.15-2.75,21.4,21.4,0,0,1-4.26-4,24.31,24.31,0,0,1-3.2-4.88,16.27,16.27,0,0,1-1.61-5.58,11.92,11.92,0,0,1,.83-5.73c.8-1.79,2-3.36,2.91-5.07a26.73,26.73,0,0,0,2.25-5.38,31.74,31.74,0,0,0,1.32-11.54,49.34,49.34,0,0,0-2.53-11.37c-1.2-3.71-2.51-7.39-3.61-11.12-.56-1.87-1.06-3.75-1.45-5.67a38.79,38.79,0,0,1-.78-5.78,25.34,25.34,0,0,1,1.85-11.45c1.47-3.64,4.1-6.61,6.29-9.82s3.53-6.93,4.88-10.57a33.53,33.53,0,0,1,2.44-5.31A16.69,16.69,0,0,1,395,195a36.7,36.7,0,0,1,4.89-3.2,26.26,26.26,0,0,0,2.44-1.6,7.2,7.2,0,0,0,2-2.09,4.75,4.75,0,0,0,.69-2.78,7.77,7.77,0,0,0-.18-1.44c-.13-.47-.29-.93-.43-1.39a16.66,16.66,0,0,0-1.29-2.61c-.52-.83-1.1-1.6-1.68-2.39a23.41,23.41,0,0,1-1.63-2.43,8.9,8.9,0,0,1-.61-1.33,7.73,7.73,0,0,1-.49-1.37,13.06,13.06,0,0,1-.23-5.8,24.69,24.69,0,0,1,1.68-5.59c.72-1.82,1.59-3.56,2.43-5.32A56.26,56.26,0,0,0,407,144.9a20.87,20.87,0,0,0-.48-11.51,27.56,27.56,0,0,0-5.95-9.94,32.41,32.41,0,0,0-20.37-10.34c-3.87-.37-7.8-.2-11.65-.9A17.69,17.69,0,0,1,363,110.3a19.32,19.32,0,0,1-4.55-3.65,37.93,37.93,0,0,1-9.74-20.88c-.51-3.87-.58-7.79-1.51-11.58a22.39,22.39,0,0,0-5.61-10,35.83,35.83,0,0,0-9.49-6.69,74.34,74.34,0,0,0-10.87-4.23c-1.86-.58-3.74-1.1-5.62-1.61a50.71,50.71,0,0,0-5.68-1.3,16.09,16.09,0,0,0-5.79,0,14.59,14.59,0,0,0-5.23,2.45c-1.59,1.12-3,2.43-4.52,3.7s-3,2.51-4.52,3.71c-3.07,2.4-6.24,4.67-9.52,6.77s-6.66,4.06-10.13,5.85c-1.73.9-3.48,1.75-5.25,2.57-.89.39-1.77.81-2.67,1.18s-1.8.76-2.66,1.2a8.72,8.72,0,0,0-4.17,3.87,13.49,13.49,0,0,0-1,5.67,29.16,29.16,0,0,1-.51,5.82,11.62,11.62,0,0,1-2.55,5.22c-1.41,1.44-3.41,1.94-5.25,2.49a19,19,0,0,0-2.73,1,5.31,5.31,0,0,0-2.06,2,15.81,15.81,0,0,0-1.77,5.52c-.34,1.91-.68,3.83-.95,5.76-.55,3.85-1,7.73-1.35,11.61a23.06,23.06,0,0,0,0,5.81c.19,1.94.41,3.88.56,5.82a47.57,47.57,0,0,1,.14,5.85,14.71,14.71,0,0,1-1.2,5.7,5.55,5.55,0,0,1-1.86,2.24,5.41,5.41,0,0,1-2.79.85,4,4,0,0,1-2.69-1c-.77-.62-1.4-1.37-2.11-2a4.17,4.17,0,0,0-5.28-.86,8.46,8.46,0,0,0-3.83,4.21,28.89,28.89,0,0,0-1.82,5.53c-.48,1.89-1,3.78-1.4,5.67A73.89,73.89,0,0,0,213.1,176a35.47,35.47,0,0,0,0,5.83,27.82,27.82,0,0,0,1.16,5.71Z"/></svg>