<svg id="Layer_1" data-name="Layer 1" xmlns="http://www.w3.org/2000/svg" viewBox="0 0 600 600"><title>RepublicOfNorthMacedonia</title><path d="M171.23,148.43a37.76,37.76,0,0,1,6.11-.22,13.75,13.75,0,0,1,5.95,1.52,12.73,12.73,0,0,1,4.52,4.38,43.83,43.83,0,0,1,2.83,5.54,50.47,50.47,0,0,0,2.7,5.35,12.73,12.73,0,0,0,3.75,4.12,10.45,10.45,0,0,0,5,1.86,15.7,15.7,0,0,0,5.43-.56,25.26,25.26,0,0,0,9.66-5.7,11.92,11.92,0,0,0,1-1c.32-.34.66-.67,1-1a25.58,25.58,0,0,0,1.72-2.2,49.3,49.3,0,0,0,3-5c1.87-3.49,3.58-7.2,5.59-10.92,1-1.86,2.12-3.72,3.35-5.55a40.56,40.56,0,0,1,4.31-5.25,31,31,0,0,1,12-7.35,50.6,50.6,0,0,1,13.27-2.36c8.62-.5,16.77,0,23.92-1.1a34.87,34.87,0,0,0,9.89-3.06,89.07,89.07,0,0,0,9.78-5.64c3.34-2.15,6.8-4.48,10.63-6.71a57.17,57.17,0,0,1,13-5.77,40.21,40.21,0,0,1,7.73-1.4,37.35,37.35,0,0,1,7.94.21c5,.66,9.2,1.86,12.76,2.51a33.36,33.36,0,0,0,4.76.61,15.46,15.46,0,0,0,2,0c.64-.11,1.24-.12,1.9-.26a40.43,40.43,0,0,0,8.93-3.26c3.34-1.55,7-3.48,11.31-5.33A63.85,63.85,0,0,1,394,92.27c1.28-.37,2.71-.66,4.07-1s2.94-.45,4.47-.56l2.36-.06a17.49,17.49,0,0,1,2.39.07c.8.07,1.61.15,2.42.25.41,0,.82.09,1.21.16l1.19.26a31.17,31.17,0,0,1,4.71,1.34l2.29.89c.77.3,1.45.72,2.17,1.08s1.43.77,2.13,1.16,1.29.87,1.93,1.32,1.3.89,1.88,1.37l1.7,1.44a38.76,38.76,0,0,1,3.12,3c1,1,1.83,2,2.72,3A100.66,100.66,0,0,1,443,117.86c2.31,3.74,4.34,7.25,6.32,10.31a56.4,56.4,0,0,0,5.9,7.74,58.45,58.45,0,0,0,7,6.46,69.21,69.21,0,0,0,8.17,5.54c2.89,1.69,5.9,3.31,9.05,4.77s6.44,2.78,9.81,4l1.27.45.63.23a1.05,1.05,0,0,0,.24.07l.17,0c.24.05.47.13.7.2s.6.14.88.21c1.17.3,2.79.6,4.46.9,3.45.58,7.66,1.18,12.39,2.18l1.8.39,1.89.46c.65.16,1.26.3,1.93.49l2,.6c1.3.37,2.8.94,4.21,1.46.68.25,1.46.63,2.2,1s1.48.69,2.23,1.06,1.54.89,2.29,1.36a23.75,23.75,0,0,1,2.28,1.52c.76.57,1.53,1.14,2.25,1.75s1.46,1.36,2.17,2,1.4,1.38,2.09,2.22,1.34,1.66,2,2.63a30.92,30.92,0,0,1,3.5,6.56,30,30,0,0,1,1.87,7.3,33.22,33.22,0,0,1,.18,6c-.11,1.75-.3,3-.45,4.2l-.24,1.51-.22,1.24-.35,1.93a18,18,0,0,0-.26,2.22l-.19,2.5-.09,2.55a37.3,37.3,0,0,0,1.16,10.23,55.25,55.25,0,0,0,3.88,9.63c.77,1.55,1.58,3.08,2.46,4.57.41.76.9,1.47,1.36,2.2l1.56,2.33a122.29,122.29,0,0,1,7.39,11.87,43.08,43.08,0,0,1,3.38,8.53,37.73,37.73,0,0,1,1.31,10.59,45.21,45.21,0,0,1-1.58,9.84c-.67,2.56-1.46,5-2.27,7.23-1.63,4.52-3.31,8.53-4.71,12-.69,1.75-1.3,3.4-1.81,4.93-.3.87-.35,1.28-.51,1.82s-.23,1-.28,1.51a19.64,19.64,0,0,0-.23,3.16c0,1.15.1,2.46.22,4,.22,3,.81,6.94,1.32,11.34.11,1.09.26,2.32.32,3.48a20.84,20.84,0,0,1-.17,3.68,30,30,0,0,1-.79,3.83c-.33,1.31-.79,2.66-1.14,4-.89,2.72-1.52,5.45-2.29,8.42a42.38,42.38,0,0,1-3.41,8.92,38.35,38.35,0,0,1-2.57,4.27c-.47.68-1,1.37-1.45,2l-1.58,1.86-.8.92-.83.83-1.69,1.65c-1.14,1-2.32,1.95-3.49,2.86s-2.34,1.7-3.51,2.42l-3.22,1.93-1.94,1.16-1.74,1.22a30.36,30.36,0,0,0-5.52,5.3L518.78,390c-.36.58-.73,1.12-1.1,1.74a41.94,41.94,0,0,0-2.16,4.1c-1.38,3-2.7,6.6-4.13,10.41l-1.08,2.89-.54,1.48-.29.76-.4,1-.83,2a19,19,0,0,1-.92,1.94c-.7,1.26-1.34,2.55-2.15,3.75a41.71,41.71,0,0,1-11.94,12.16,46.82,46.82,0,0,1-14.69,6.46,54.69,54.69,0,0,1-15,1.57c-1.23-.06-2.46-.08-3.67-.22s-2.47-.19-3.58-.38c-2.3-.31-4.55-.73-6.74-1.21-4.38-1-8.56-2.05-12.56-3.23s-7.9-2.3-11.69-3.27c-1.9-.45-3.78-.88-5.63-1.23s-3.67-.58-5.55-.79a144.51,144.51,0,0,0-23-.13l-2.89.2-2.88.22-5.73.57c-.95.07-1.89.17-2.85.26-.47,0-1-.19-1.44-.07s-.91.33-1.36.52c-1.81.79-3.49,2-5.24,2.54l-2.4.71c-.75.25-1.5.5-2.23.8a34.09,34.09,0,0,0-4.19,1.92,26.35,26.35,0,0,0-6.66,5,20,20,0,0,0-2.25,2.84c-.51.84-1.29,2.29-1.95,3.61a68.19,68.19,0,0,0-3.51,9.35,83.49,83.49,0,0,1-5.29,13.56,43.64,43.64,0,0,1-2.3,3.94c-.82,1.32-1.86,2.59-2.82,3.86s-2.14,2.38-3.25,3.55-2.33,2.1-3.53,3.11-2.42,1.76-3.65,2.63c-.62.45-1.23.8-1.83,1.16l-1.84,1.06c-.6.35-1.24.73-1.83,1l-1.76.9c-1.17.57-2.35,1.12-3.53,1.63a96,96,0,0,1-14,4.72c-4.56,1.2-9,2.11-13.2,2.83l-12.21,2.1-12.09,1.89-6.05.94a47.55,47.55,0,0,1-6.08.7c-4.09.19-8.35-.77-12.6-1.62a61.21,61.21,0,0,0-6.32-1c-2.09-.19-4.15-.21-6.23-.3l-12.43-.46c-4.07-.13-8.39-.15-12.84-.15-2.24,0-4.5-.09-6.82-.19s-4.69-.32-7.12-.7a38.39,38.39,0,0,1-14.57-5.18c-.59-.35-1.18-.79-1.77-1.2s-1.09-.85-1.62-1.28a39,39,0,0,1-2.87-2.66c-1.76-1.78-3.32-3.53-4.73-5.24a88.78,88.78,0,0,0-7.69-8.6,11.6,11.6,0,0,0-3.09-2.15,2.6,2.6,0,0,0-1.68-.26l-1.49.43c-.21.08-.38.09-.61.19l-.69.26c0,.06,0,.07,0,.06s0,0,0,0-.18.11-.8,1-1.55,2.34-3,4.34c-.38.51-.72,1-1.21,1.6s-.9,1.1-1.52,1.77l-.88.92c-.29.31-.71.66-1.06,1l-1.13.93c-.43.32-.89.63-1.35.93a13.94,13.94,0,0,1-1.4.83c-.53.26-1.06.49-1.59.71a14.4,14.4,0,0,1-3.25.95,15,15,0,0,1-3.11.29,18.27,18.27,0,0,1-3-.27,16.61,16.61,0,0,1-5.49-2,17.87,17.87,0,0,1-4-3.12,29.43,29.43,0,0,1-4.85-6.8c-.6-1.13-1.16-2.23-1.64-3.36s-1-2.23-1.4-3.35a31.43,31.43,0,0,1-1.86-7.17,20.43,20.43,0,0,1-.12-4c0-.61.06-1.24.11-1.83l.21-1.77c.12-1.2.38-2.28.57-3.42s.48-2.18.75-3.21l1.54-6.05c.48-2,.95-3.8,1.22-5.62.53-3.58.54-6.82-.46-9.21a9.22,9.22,0,0,0-.85-1.69l-.49-.8a6.52,6.52,0,0,0-.51-.55,6,6,0,0,0-2.38-1.48,2.23,2.23,0,0,0-1.75.08,6.68,6.68,0,0,0-1.93,1.14,25,25,0,0,0-2.81,2.62c-1.12,1.18-2.42,2.57-3.89,4.37a38,38,0,0,1-6.37,6.43,13.73,13.73,0,0,1-1.32.88c-.5.29-.91.58-1.49.86s-1.13.54-1.71.79a19.83,19.83,0,0,1-1.93.65,20.14,20.14,0,0,1-4.28.76,23.69,23.69,0,0,1-4.4-.18c-.69-.1-1.44-.22-2.1-.37s-1.27-.33-1.9-.53l-.94-.3-.82-.33c-.55-.21-1.09-.45-1.62-.71s-1-.49-1.44-.74-.91-.51-1.35-.79-.82-.53-1.2-.8-.76-.52-1.12-.81c-.77-.58-1.31-1.08-2-1.64L55,438l-.79-.81c-.51-.54-1-1.13-1.46-1.68s-.84-1.09-1.24-1.65l-.6-.84-.6-.91-1.18-1.84c-.75-1.24-1.43-2.52-2.07-3.82a47.86,47.86,0,0,1-3-8,55,55,0,0,1-2.12-15.6c0-9.94,2-18.52,3.49-26.64S48,360.44,47.7,353.17c0-.9-.05-1.81-.13-2.69l-.09-1.34-.15-1.31a52.08,52.08,0,0,0-.84-5.23c-.76-3.59-1.94-7.61-2.86-12.05a41.34,41.34,0,0,1-.69-15,29.2,29.2,0,0,1,2.38-7.65,50.94,50.94,0,0,1,3.46-6.12l3.33-5.05a25.4,25.4,0,0,0,1.35-2.3l1.14-2.29A40,40,0,0,0,57.43,282,85.27,85.27,0,0,0,58,270.51l-.26-12.24a85,85,0,0,1,.67-12.86c.18-1.09.3-2.18.53-3.27l.76-3.25c.29-1.08.7-2.14,1-3.2a19.13,19.13,0,0,1,1.42-3.32,15.56,15.56,0,0,1,5.26-5.7A20.33,20.33,0,0,1,74.15,224c4.41-1,8.49-1.07,12.27-1.74s7.2-1.84,9.75-4.25a13.32,13.32,0,0,0,1.76-2c.55-.7,1-1.6,1.58-2.39s1-1.7,1.44-2.55.86-1.77,1.29-2.66c3.27-7.22,5.21-15.27,8.61-22.86a49,49,0,0,1,6.41-10.72,57.12,57.12,0,0,1,8.82-8.7,75.67,75.67,0,0,1,10.26-6.8l2.72-1.43,2.78-1.3c.92-.45,1.87-.82,2.81-1.22l1.41-.6,1.43-.54a101.2,101.2,0,0,1,23.75-5.76Zm0,.09a116.14,116.14,0,0,0-11.91,2.72,96.38,96.38,0,0,0-11.42,4.11l-1.39.59-1.37.65c-.91.44-1.82.85-2.72,1.31l-2.68,1.37-2.62,1.48a77.15,77.15,0,0,0-9.83,6.86,55.7,55.7,0,0,0-8.31,8.58,46.16,46.16,0,0,0-5.86,10.34C110,193.92,108.27,202,105,209.62c-.43.95-.83,1.9-1.29,2.84s-.93,1.87-1.46,2.76-1,1.8-1.67,2.68a17,17,0,0,1-2.08,2.48A18.16,18.16,0,0,1,93.21,224a28,28,0,0,1-6,1.85c-4.08.83-8.17,1.07-12,2a16.93,16.93,0,0,0-5.38,2.21A11.28,11.28,0,0,0,66,234.32a14.27,14.27,0,0,0-1.09,2.73c-.28,1-.64,1.9-.87,2.88l-.61,2.95c-.19,1-.27,2-.4,3A77.89,77.89,0,0,0,62.79,258l.69,12.22a93.24,93.24,0,0,1-.18,12.28,46.82,46.82,0,0,1-2.8,11.95A53.1,53.1,0,0,1,57.83,300c-1,1.78-2.09,3.51-3.12,5.27-2.05,3.49-3.91,7.21-4.39,11.26a33.14,33.14,0,0,0,1.08,12.08c1,4,2.33,7.81,3.38,11.75a66.57,66.57,0,0,1,2.07,12.06c.66,8.14.18,16.31-.27,24.45s-.94,16.32-.07,24.45,3.28,16.18,8.22,22.73a32.57,32.57,0,0,0,4,4.61,12.44,12.44,0,0,0,5.18,3.12,8.15,8.15,0,0,0,5.92-.8,26.78,26.78,0,0,0,5-3.54c3.09-2.63,6.06-5.54,9.8-7.25a13.62,13.62,0,0,1,5.92-1.33,11.64,11.64,0,0,1,5.79,1.72,14.19,14.19,0,0,1,4.39,4.2c.28.42.54.86.79,1.31l.62,1.4a17.22,17.22,0,0,1,1,2.89c1,4,.47,8.16-.39,12.12s-2.23,7.85-3.3,11.78a33.43,33.43,0,0,0-1.49,12.07,27.58,27.58,0,0,0,4.37,11.32,17.8,17.8,0,0,0,4.15,4.46,9.92,9.92,0,0,0,5.65,2.07,8.09,8.09,0,0,0,3-.44,6,6,0,0,0,1.4-.6l.66-.38a7,7,0,0,0,.6-.48,16.62,16.62,0,0,0,3.71-4.81c1-1.77,1.95-3.59,3.09-5.28a15,15,0,0,1,4.24-4.34,14.84,14.84,0,0,1,5.73-2,15,15,0,0,1,6.08.16A14.84,14.84,0,0,1,156,468.7a25.91,25.91,0,0,1,4.32,4.31c2.57,3.18,4.69,6.68,7,10s4.81,6.68,8.22,9a25.23,25.23,0,0,0,5.44,2.74A31.37,31.37,0,0,0,187,496.2a55.39,55.39,0,0,0,12.21.13c4.07-.36,8.1-1,12.14-1.57L223.42,493l48.45-7c8.07-1.21,16.18-2.19,24.15-4s15.83-4.43,22.51-9.16a28.89,28.89,0,0,0,8.08-9.07,84.35,84.35,0,0,0,5-11.16,74.42,74.42,0,0,1,5.21-11.06,49.93,49.93,0,0,1,3.43-5.06,35.35,35.35,0,0,1,4.27-4.38c6.23-5.31,14.09-8.43,22.09-9.87a166.43,166.43,0,0,1,48.75-1.11c8.1,1.08,16,3.36,23.87,5.37,4,1,7.92,1.95,11.94,2.63a63,63,0,0,0,12.18,1c8.12-.19,16.37-2.42,22.93-7.33a29.87,29.87,0,0,0,8.08-9.07c2.08-3.53,3.12-7.52,4.32-11.41s2.37-7.81,3.85-11.61A47.85,47.85,0,0,1,508.18,380a39.16,39.16,0,0,1,8.64-8.6c3.24-2.5,7.06-4.1,10.31-6.58a26,26,0,0,0,7.84-9.24,31.78,31.78,0,0,0,2.8-11.83,81.81,81.81,0,0,0-.42-12.22c-.38-4.06-.93-8.1-1.14-12.18a42.08,42.08,0,0,1,.91-12.16c.22-1,.53-2,.82-3s.67-1.93,1.07-2.87c.76-1.89,1.6-3.75,2.46-5.6,1.72-3.7,3.53-7.35,5.1-11.12.79-1.88,1.52-3.79,2.12-5.74a25.41,25.41,0,0,0,1.25-6,24.35,24.35,0,0,0-2.63-11.81,106.24,106.24,0,0,0-6.11-10.6,94.61,94.61,0,0,1-10.33-22.11,91.59,91.59,0,0,1-2.9-11.89c-.34-2-.62-4-.81-6.06a46.19,46.19,0,0,1-.26-6.11c0-2,.21-4.08.16-6.12a20.71,20.71,0,0,0-.29-3,12.69,12.69,0,0,0-.94-2.89,14.21,14.21,0,0,0-3.69-4.8,24,24,0,0,0-5-3.46,51.07,51.07,0,0,0-11.55-3.91c-4-.91-8-1.59-12-2.44a56,56,0,0,1-11.68-3.61c-3.76-1.59-7.46-3.32-11.06-5.23a98.28,98.28,0,0,1-20.08-13.9,72.81,72.81,0,0,1-8.36-8.93,76.93,76.93,0,0,1-6.73-10.21c-4-7.11-7.35-14.61-12.28-21.14a30.91,30.91,0,0,0-8.91-8.22,22.24,22.24,0,0,0-11.68-3,37.73,37.73,0,0,0-11.88,2.61c-3.83,1.39-7.56,3.06-11.37,4.53a48.18,48.18,0,0,1-11.79,3.18,32.7,32.7,0,0,1-12.13-1.14c-4-1-7.85-2.26-11.87-2.92a29.66,29.66,0,0,0-12.12.5,51.67,51.67,0,0,0-11.32,4.52c-3.61,1.89-7.1,4-10.64,6a93,93,0,0,1-10.91,5.53,41.53,41.53,0,0,1-11.85,2.94c-8.15.81-16.32-.2-24.47-.05a45.12,45.12,0,0,0-12.07,1.6,26.81,26.81,0,0,0-10.56,5.91,37.28,37.28,0,0,0-4.06,4.55q-1.82,2.46-3.38,5.09c-2.11,3.49-4,7.12-6.09,10.62a34.61,34.61,0,0,1-7.63,9.51A27.11,27.11,0,0,1,208,172.2a17.34,17.34,0,0,1-6.09.36,12,12,0,0,1-5.6-2.34,14.21,14.21,0,0,1-3.93-4.65,49.93,49.93,0,0,1-2.55-5.57,44.88,44.88,0,0,0-2.59-5.53,12.83,12.83,0,0,0-4.08-4.46,12,12,0,0,0-5.77-1.78,28.88,28.88,0,0,0-6.09.39Z"/></svg>