<svg id="Layer_1" data-name="Layer 1" xmlns="http://www.w3.org/2000/svg" viewBox="0 0 600 600"><title>Reunion</title><path d="M104.12,174.68a30.68,30.68,0,0,0-.36-5.9,39.09,39.09,0,0,0-1.41-5.74c-1.22-3.75-2.42-7.51-3.34-11.41a40.66,40.66,0,0,1-1-6,32.3,32.3,0,0,1,0-6.14,22.13,22.13,0,0,1,4.39-11.78,16.27,16.27,0,0,1,5.14-4.24,17.35,17.35,0,0,1,6.41-1.88,28.17,28.17,0,0,1,6.44.14c2.09.24,4.11.62,6.08,1a85.32,85.32,0,0,0,11.25,1.93c3.55.22,6.7-.33,9.13-2s4.58-4.37,6.65-7.53a101.69,101.69,0,0,1,7.08-10.06c1.29-1.68,2.77-3.2,4.18-4.78s3-3,4.59-4.4,3.24-2.75,4.9-4.08c.84-.64,1.72-1.25,2.58-1.88s1.75-1.22,2.65-1.79A83.11,83.11,0,0,1,203,77.66a81.61,81.61,0,0,1,12.87-2.42,101.67,101.67,0,0,1,12.89-.47c8.48.2,16.58,1.17,24.38,2L264.9,78c3.92.49,7.81,1.14,11.72,1.69l46.85,6.95c7.81,1.18,15.58,2.28,23.55,3.57s16,2.66,24.14,4.61c4.06,1,8.12,2.1,12.17,3.35s8.08,2.78,12.08,4.43,8,3.63,11.84,5.72a128.2,128.2,0,0,1,11.29,7.08A100.7,100.7,0,0,1,438.65,134c.77.89,1.49,1.85,2.21,2.79s1.47,1.88,2.16,2.87l2.08,3,1.93,3.13c.68,1,1.26,2.12,1.86,3.21s1.23,2.17,1.72,3.33l1.61,3.44c.49,1.15,1,2.33,1.4,3.49.85,2.31,1.63,4.63,2.28,6.85s1.17,4.42,1.69,6.54c1,4.2,1.67,8.12,2.32,11.66s1.2,6.65,2,9.35a64,64,0,0,0,3,8.14,123.21,123.21,0,0,0,9.94,17.16c2,3,4.16,6,6.34,9.2l6.68,9.59,6.63,9.29c2.19,3.05,4.38,6,6.62,8.91s4.51,5.65,6.82,8.33a25.42,25.42,0,0,1,3.26,4.17c.88,1.6,1.64,3.3,2.48,5a15.38,15.38,0,0,0,3.22,4.24c.63.59,1.25,1.22,1.89,1.79l1.94,1.73c1.3,1.13,2.68,2.21,4.11,3.32s3,2.17,4.56,3.28c6.31,4.38,13.66,8.82,20.76,15,.88.77,1.76,1.57,2.63,2.41s1.79,1.74,2.73,2.75a37.15,37.15,0,0,1,5.61,7.74,28.65,28.65,0,0,1,2.25,5.52,26.87,26.87,0,0,1,1,6.47,29.16,29.16,0,0,1-.51,6.17,31.53,31.53,0,0,1-1.46,5.15,51.8,51.8,0,0,1-3.56,7.47l-1.55,2.75c-.48.81-.8,1.53-1.17,2.27-.7,1.49-1.49,2.92-2.15,4.42l-1.84,4.61C547.71,373,545.89,387,545,401.75c-.44,7.39-.78,15-1.49,22.76s-1.59,15.71-2.28,23.75c-.2,2-.34,4-.52,6a49.89,49.89,0,0,0-.32,6.19c0,1.08,0,2.18,0,3.29,0,.56-.34,1.12-.32,1.68s.11,1.17.19,1.76c.33,2.37.89,5,.48,7.64a38.72,38.72,0,0,1-2.31,8,40.63,40.63,0,0,1-4.21,7.62A46.87,46.87,0,0,1,522.32,502a62.45,62.45,0,0,1-13.61,7,84,84,0,0,1-13.93,3.82c-4.47.87-8.72,1.44-12.73,2s-7.74,1.07-11.19,1.64c-1.7.29-3.36.59-4.89,1s-3,.75-4.47,1.18q-4.42,1.38-9.4,3.32c-6.63,2.55-14.11,5.78-22.84,8.47-1.08.34-2.22.63-3.34,1l-3.39.83c-2.27.58-4.56,1-6.84,1.41s-4.59.71-6.88.94c-1.15.11-2.29.25-3.44.33a16.81,16.81,0,0,1-3.46-.21,21.34,21.34,0,0,1-6.87-2.42c-2.25-1.24-4.42-2.6-6.54-3.89-.52-.33-1.05-.63-1.57-.9a16.2,16.2,0,0,0-1.56-.78,21.36,21.36,0,0,0-3.09-1.23,36.06,36.06,0,0,0-6.19-1A91.06,91.06,0,0,0,363.6,524c-1.06,0-2.12.11-3.19.16s-2.11.06-3.18.13c-2.14.13-4.26.17-6.39.18a62.75,62.75,0,0,1-12.47-1.06c-4-.79-8-1.73-11.95-2.69-7.87-1.93-15.55-4.17-23.05-6.59s-14.8-5.09-22-7.64c-3.62-1.31-7.22-2.38-10.78-3.95-1.78-.78-3.59-1.64-5.37-2.63s-3.6-2-5.42-3-3.64-2.07-5.5-3.05c-.94-.46-1.86-.95-2.81-1.38s-1.9-.88-2.85-1.29c-3.82-1.69-7.86-2.85-11.82-4.52A104.74,104.74,0,0,1,225,480.91a75.25,75.25,0,0,1-11.08-7.81c-3.44-3-6.48-6.05-9.31-9s-5.43-5.83-8.06-8.29a47,47,0,0,0-7.65-6.09,15.93,15.93,0,0,0-1.83-1l-.9-.45c-.3-.14-.6-.22-.9-.34l-.88-.34-.88-.24-.86-.24-.92-.18a75.11,75.11,0,0,0-9.66-.89,93.9,93.9,0,0,1-13.23-1.27,40.51,40.51,0,0,1-8.3-2.47,29.68,29.68,0,0,1-15.4-14.5,42.47,42.47,0,0,1-2.87-8.33L131,414.07c-.08-.35-.16-.56-.21-.86l-.16-.64a6.17,6.17,0,0,0-.18-.82,1.73,1.73,0,0,1,0-.41c0-.14-.12-.26-.15-.43s0-.34-.15-.51a3.1,3.1,0,0,1-.27-.58,2.89,2.89,0,0,0-.15-.31c-.07-.1-.15-.21-.22-.33l-.44-.71c-.39-.48-.8-1-1.28-1.52a47.3,47.3,0,0,0-8.55-6.63c-.84-.55-1.79-1.16-2.7-1.72l-2.86-1.81-3-2c-1-.78-2-1.48-3-2.36a31.18,31.18,0,0,1-2.87-2.78l-1.36-1.54c-.44-.52-.81-1.1-1.21-1.65a24.41,24.41,0,0,1-2.15-3.47,26.08,26.08,0,0,1-1.68-3.66,41.16,41.16,0,0,1-2.5-14.5A96.56,96.56,0,0,1,96.87,352c.49-4,1-7.83,1.36-11.51A50.9,50.9,0,0,0,98.3,330a46.26,46.26,0,0,0-2.44-10.13,81.78,81.78,0,0,0-10.65-19.39c-4.4-6.23-9.51-12.14-14.55-18.33a152.69,152.69,0,0,1-14.14-19.68,73.82,73.82,0,0,1-5.32-11.13c-.39-1-.69-2-1-2.93s-.62-2-.88-3a48,48,0,0,1-1.12-6.14,48.77,48.77,0,0,1,.13-12.37,35.1,35.1,0,0,1,3.73-11.81,22.53,22.53,0,0,1,8.52-9,21,21,0,0,1,5.77-2.23c2-.43,3.91-.72,5.86-1.1A87.67,87.67,0,0,0,83.67,200a39.12,39.12,0,0,0,10.58-5,22.32,22.32,0,0,0,7.51-8.86,25.47,25.47,0,0,0,1.82-5.6,37.24,37.24,0,0,0,.63-5.87Zm.09,0c-.06,1,0,2,0,3s-.18,2-.31,3a26,26,0,0,1-1.61,5.76,23.11,23.11,0,0,1-7.39,9.49,40.3,40.3,0,0,1-10.69,5.65,76.54,76.54,0,0,1-11.56,3.1c-1.91.43-3.92.8-5.73,1.25A18.74,18.74,0,0,0,61.76,208a20.09,20.09,0,0,0-7.38,8.24,32.43,32.43,0,0,0-3.14,11,45.74,45.74,0,0,0,.2,11.57,43.93,43.93,0,0,0,1.19,5.67c.26.93.55,1.85.89,2.77s.63,1.84,1,2.73a69,69,0,0,0,5.33,10.41,148.85,148.85,0,0,0,14.27,18.73c5.14,6,10.51,11.79,15.33,18.08a88.24,88.24,0,0,1,12.15,20.34,52.86,52.86,0,0,1,3.24,11.43,59.59,59.59,0,0,1,.49,11.86c-.31,7.9-1.58,15.74-1.24,23.62a33.56,33.56,0,0,0,2.34,11.51,23.93,23.93,0,0,0,7,9.33,51.11,51.11,0,0,0,10.14,6.05c3.54,1.73,7.14,3.37,10.5,5.45a23.51,23.51,0,0,1,8.36,8.19c2,3.43,2.58,7.44,3.5,11.26a28.34,28.34,0,0,0,1.84,5.61,15.77,15.77,0,0,0,3.43,4.78c2.88,2.75,6.72,4.2,10.54,5.06,7.71,1.7,15.74,1.51,23.36,3.72a33.9,33.9,0,0,1,10.46,5.4,61.65,61.65,0,0,1,8.61,8.1c5.29,5.85,10,12.26,15.79,17.63a62.17,62.17,0,0,0,9.45,7.09A85.59,85.59,0,0,0,240,478.92a168.84,168.84,0,0,0,22.54,7.2c7.64,2,15.31,3.84,22.89,6.05,15.16,4.39,30.12,9.45,45.26,13.92s30.51,8.33,46.23,10,31.75.86,46.89-3.73c7.56-2.27,14.88-5.27,22.35-7.8a118.12,118.12,0,0,1,11.37-3.29,92.3,92.3,0,0,1,11.7-1.78c7.86-.73,15.77-.82,23.6-1.8s15.61-3.06,22.37-7.18a31.92,31.92,0,0,0,8.85-7.76,27.61,27.61,0,0,0,3.09-5,30.08,30.08,0,0,0,1.91-5.6,54.52,54.52,0,0,0,1.22-11.75c0-3.94-.07-7.89-.13-11.84l-.68-23.66c-.2-7.89-.27-15.79,0-23.68a173.85,173.85,0,0,1,2.29-23.55,116.71,116.71,0,0,1,6.28-22.78l2.39-5.42c.85-1.78,1.85-3.48,2.77-5.23,1.82-3.49,4.2-6.7,5.61-10.41A15.2,15.2,0,0,0,550,328a12.85,12.85,0,0,0-1.55-5.65c-1.87-3.51-4.82-6.26-7.73-8.89-5.92-5.24-12.63-9.46-19.2-13.82-3.29-2.18-6.57-4.38-9.69-6.79s-6.15-4.95-9.08-7.6c-11.62-10.72-21.33-23.28-30.66-36-4.63-6.39-9.34-12.73-13.75-19.28a123.08,123.08,0,0,1-11.51-20.65,72.87,72.87,0,0,1-3.74-11.23,102.19,102.19,0,0,1-1.95-11.67c-.91-7.83-1.38-15.75-3.23-23.44a60.89,60.89,0,0,0-10-21.3A79.35,79.35,0,0,0,411.31,125a102.63,102.63,0,0,0-9.89-6.49,116,116,0,0,0-10.6-5.25c-3.64-1.53-7.33-2.93-11.08-4.16s-7.54-2.31-11.37-3.27c-15.32-3.85-31-5.94-46.58-8.42L275,90.13l-23.4-3.64C243.8,85.29,236,84,228.13,83.43a93.41,93.41,0,0,0-11.83-.12A74.42,74.42,0,0,0,204.6,85a75.94,75.94,0,0,0-21.91,8.66c-.86.49-1.71,1-2.52,1.54s-1.66,1.07-2.47,1.63c-1.59,1.17-3.21,2.29-4.71,3.57s-3,2.58-4.45,3.9-2.82,2.76-4.09,4.27a101,101,0,0,0-7.25,9.35c-2.33,3.15-4.88,6.32-8.35,8.29s-7.61,2.39-11.51,1.92a93,93,0,0,1-11.55-2.57c-3.81-1-7.72-1.87-11.66-1.61a14.49,14.49,0,0,0-10.32,5,20.6,20.6,0,0,0-4.43,10.77,34.38,34.38,0,0,0,.55,11.75c.76,3.87,1.86,7.67,2.74,11.52a56.38,56.38,0,0,1,1.63,11.71Z"/></svg>