<svg id="Layer_1" data-name="Layer 1" xmlns="http://www.w3.org/2000/svg" viewBox="0 0 600 600"><title>Romania</title><path d="M79.1,271.85c1.13-1.46,2.31-2.88,3.3-4.44a42.29,42.29,0,0,0,2.67-4.85c.83-1.64,1.56-3.33,2.32-5s1.5-3.35,2.23-5c2.89-6.76,5.4-13.69,8.17-20.58,1.4-3.44,2.85-6.89,4.43-10.29.75-1.73,1.6-3.4,2.45-5.08l1.25-2.53,1.35-2.49a146.1,146.1,0,0,1,12.37-19.06,144.48,144.48,0,0,1,33.48-31.69,135.61,135.61,0,0,1,20.58-11.54,145.57,145.57,0,0,1,22.48-8c1.94-.5,3.87-1.06,5.84-1.45s3.92-.94,5.92-1.26,4-.78,6-1,4-.54,6.05-.65,4.05-.24,6.08-.25,4.07.1,6.1.19,4.06.39,6.08.61l6,.93c2,.36,4,.87,6,1.3s3.95,1,5.9,1.62,3.87,1.3,5.8,1.95,3.78,1.44,5.55,2.17c7.05,2.95,12.92,5.62,18.36,6.4a40,40,0,0,0,4.34.33,43.77,43.77,0,0,0,4.66-.23,55.87,55.87,0,0,0,10-1.78,108.43,108.43,0,0,0,10.36-3.69c3.42-1.35,6.82-2.68,10.17-4.09s6.62-3,9.86-4.58c1.62-.78,3.2-1.64,4.78-2.48L342.4,134c.19-.11.42-.22.57-.32l.4-.28.79-.55c2.18-1.57,4.51-3.43,7.33-5.53a85.83,85.83,0,0,1,10.08-6.7c.5-.29,1-.56,1.53-.83l1.63-.81c1.06-.54,2.26-1.08,3.43-1.56s2.45-1,3.75-1.4c.66-.21,1.31-.43,2-.62l.5-.15.58-.14,1.18-.27A38.75,38.75,0,0,1,381,114a34.84,34.84,0,0,1,5-.34h2.55c.86,0,1.71.11,2.56.19s1.71.17,2.55.32,1.67.32,2.5.5a39.76,39.76,0,0,1,9.31,3.35c1.42.74,2.75,1.5,4.07,2.34s2.46,1.73,3.61,2.65a49.49,49.49,0,0,1,10.4,12.12A109.84,109.84,0,0,1,430,147.44c1.83,4,3.54,7.78,5.3,11.45,3.67,7.24,7,14.34,10.17,21.32l2.36,5.18c.37.85.78,1.69,1.2,2.57l1.16,2.45c.74,1.54,1.44,2.91,2.1,4a15.17,15.17,0,0,0,2,2.63,8.87,8.87,0,0,0,.85.76c.25.21.52.36.89.62.72.46,1.84,1.1,3.27,1.92s3.22,1.82,5.28,3.19c1,.68,2.06,1.48,3.08,2.23.51.39,1,.77,1.52,1.17l1.44,1.26a59.31,59.31,0,0,1,10,11.2c.76,1,1.37,2,2,3.06l1,1.56.89,1.57c1.2,2.12,2.17,4.27,3.17,6.43a115.71,115.71,0,0,1,4.58,13.09,27.45,27.45,0,0,1,.36,6.77,66.75,66.75,0,0,1-.7,6.69c-.18,1.1-.29,2.19-.49,3.27l-.28,1.62a2,2,0,0,0-.05.8c0,.29,0,.48,0,.85l0,2.1c0,.69-.07,1.26-.1,1.89l-.07.93-.08.85-.17,1.69c-.53,4.3-1.21,8.08-1.86,11.77-1.31,7.32-2.57,14.21-3.17,20.64a57.69,57.69,0,0,0-.23,8.88,17.66,17.66,0,0,0,1.08,5.73,1.27,1.27,0,0,1,.13.32.53.53,0,0,1,.11.15s0,.07,0,.1h0s0,0,0,.06-.07,0,0,0,0,0,0,0a.08.08,0,0,1,.09,0s0,0,0,.05l.14,0a1.63,1.63,0,0,1,.25.1,2.15,2.15,0,0,0,.42.07,3.58,3.58,0,0,1,.48.11c1.61.15,3.22.27,4.84.35,3.23.16,6.48.15,9.71,0,1.63-.07,3.23-.21,4.86-.38L513,320a69,69,0,0,1,14-.38c.66.06,1.35.16,2,.25s1.4.25,2.1.38,1.39.3,2.08.48,1.37.35,2,.59a42.09,42.09,0,0,1,7.64,3.34,48.13,48.13,0,0,1,6.75,4.7,52.51,52.51,0,0,1,5.85,5.8,44.65,44.65,0,0,1,4.84,6.88,43.84,43.84,0,0,1,3.54,7.93,40.55,40.55,0,0,1-3.35,33.39A33.8,33.8,0,0,1,558,387l-1.37,1.73c-.49.56-1,1.11-1.51,1.64-2.07,2-4,4.06-6.68,4.89a16.84,16.84,0,0,1-2,.48,21.14,21.14,0,0,1-2.12.16c-1.45,0-2.88-.1-4.24-.23-2.77-.31-5.08-.31-6.88.48s-3.42,1.85-5.08,2.71-3.26,1.7-4.79,2.58a49.05,49.05,0,0,0-8,5.45,21.19,21.19,0,0,0-2.81,2.92,14.5,14.5,0,0,0-1.75,3,12.06,12.06,0,0,0-.87,3.15,22.12,22.12,0,0,0-.2,3.75,73.07,73.07,0,0,0,1,9.47A104.5,104.5,0,0,1,512,441.37a44.5,44.5,0,0,1-.36,7.65,34.38,34.38,0,0,1-2.42,8.82A32,32,0,0,1,495.65,473a36.25,36.25,0,0,1-9.38,3.76c-.76.18-1.52.33-2.29.47s-1.56.29-2.27.35c-1.45.14-3,.32-4.35.32a61.21,61.21,0,0,1-15.29-1.63c-1.17-.24-2.26-.57-3.4-.86l-3.28-1c-1.05-.35-2.13-.7-3.17-1.06l-1.55-.57-1.42-.55L444,470.17a30.91,30.91,0,0,1-5-2.27c-3.16-1.81-5.74-4.89-8.39-7.76a34.33,34.33,0,0,0-4.15-3.9,38.41,38.41,0,0,0-4.52-2.95c-.76-.45-1.52-1-2.3-1.36l-2.33-1.24c-.77-.42-1.55-.83-2.34-1.22l-2.37-1.08c-1.59-.71-3.19-1.42-4.8-2s-3.23-1.23-4.85-1.7a98.83,98.83,0,0,0-9.83-2.7c-.42-.07-.83-.16-1.25-.22s-.84,0-1.25,0a23,23,0,0,0-2.5.13l-2.47.26a22,22,0,0,0-2.44.31l-2.38.46a20.62,20.62,0,0,0-2.36.51c-1.53.47-3.07.86-4.56,1.39l-4.35,1.78-2.09,1-2.09,1.15c-2.79,1.57-5.58,3.4-8.43,5.39s-5.79,4.08-8.93,6.21c-1.58,1.06-3.17,2.14-4.85,3.2a13.85,13.85,0,0,1-2.63,1.43c-.48.19-1,.35-1.46.49s-1,.28-1.53.41a20.2,20.2,0,0,0-5.93,2.07c-.95.49-1.9,1-2.83,1.57s-1.93,1.1-2.89,1.7c-3.9,2.37-8,4.83-12.28,6s-8.56,1.09-12.6,1.07c-8.18-.19-15.4-1.39-22.87-2.59s-14.84-2.75-22.24-4-14.78-2-22.18-2.63c-3.71-.31-7.4-.57-11.12-.8s-7.52-.46-11.39-.78a116.5,116.5,0,0,1-11.84-1.55,65.5,65.5,0,0,1-12.09-3.43c-1-.38-2-.84-3-1.29-.26-.12-.45-.19-.78-.37l-1-.56-1-.58-.95-.69a20.9,20.9,0,0,1-6-7c-2.69-5.18-3.18-9.64-3.91-13.05-.17-.86-.33-1.66-.51-2.37a1.8,1.8,0,0,0-.2-.57,1.09,1.09,0,0,1,0-.17l-.1-.14a5.43,5.43,0,0,0-1.21-1.56,42.29,42.29,0,0,0-3.37-2.88,37.68,37.68,0,0,1-5.23-5l-.7-.87-.69-1-.66-1-.61-1.16-.56-1.17c-.15-.42-.3-.85-.44-1.27a17,17,0,0,1-.66-2.57,21.87,21.87,0,0,1,.41-9,34,34,0,0,1,1.11-3.44c.33-.83.61-1.5.87-2.21a24.85,24.85,0,0,0,1.09-3.5,5.38,5.38,0,0,0,.12-2.13,4.1,4.1,0,0,0-1.35-2.18,11.08,11.08,0,0,0-1.4-1.19,7,7,0,0,0-1.41-.82,4,4,0,0,0-2.35-.42,5.8,5.8,0,0,0-1.32.39,9.27,9.27,0,0,0-1.57.9,17.18,17.18,0,0,0-1.74,1.33,12.34,12.34,0,0,0-1.67,1.88,52,52,0,0,0-3.06,5.29,18.75,18.75,0,0,1-5,6.09c-.31.23-.62.47-1,.69s-.71.41-1.07.62a15.91,15.91,0,0,1-2.36,1.06c-.41.15-.86.28-1.3.4a9.43,9.43,0,0,1-1.45.3c-.54.08-1.09.14-1.64.18a11.06,11.06,0,0,1-1.62,0,20.84,20.84,0,0,1-5.88-1,25.88,25.88,0,0,1-4.63-2,32.87,32.87,0,0,1-6.51-4.89,44.12,44.12,0,0,1-4.61-5.15,55,55,0,0,1-3.63-5.21l-.8-1.3-.73-1.23-1.38-2.46-5.42-9.87-5.31-9.83c-.43-.82-.88-1.63-1.26-2.48s-.71-1.75-1-2.66a26.13,26.13,0,0,0-2.17-5.2c-3.68-6.4-7.32-12.8-11.21-19S65.61,327,61.31,321c-2.12-3-4.39-5.81-6.58-9a29.93,29.93,0,0,1-4.83-10.37,16.92,16.92,0,0,1-.26-5.72A10.31,10.31,0,0,1,52,290.8c2.44-2.9,5.64-4.9,8.81-6.78s6.47-3.55,9.66-5.41,6.34-3.86,8.71-6.71Zm.07,0c-.59.71-1.15,1.45-1.81,2.11a26.16,26.16,0,0,1-2.08,1.85c-1.45,1.16-3,2.21-4.54,3.22-3.12,2-6.33,3.84-9.41,5.84s-6.07,4.14-8.13,6.85a9.33,9.33,0,0,0-1.83,4.37,13.61,13.61,0,0,0,.48,5,28,28,0,0,0,5,9.26c2.21,2.81,4.75,5.6,7,8.48,4.68,5.74,9.14,11.66,13.46,17.66S85.87,348.62,90,354.73c2.07,3.06,4.39,5.94,6.42,9l6.18,9.17q3.1,4.59,6.25,9.12c2.11,3,4.19,6.05,6.55,8.82a31.91,31.91,0,0,0,8,7.14,9.66,9.66,0,0,0,9.9.31c3.22-1.56,5.95-4.11,8.79-6.46a50.3,50.3,0,0,1,4.44-3.37,14.32,14.32,0,0,1,5.15-2.17,10.74,10.74,0,0,1,5.56.48,17.48,17.48,0,0,1,4.86,2.72,12.86,12.86,0,0,1,3.63,4.2,11.68,11.68,0,0,1,1.22,5.41,23.08,23.08,0,0,1-.77,5.49c-.43,1.8-1.07,3.54-1.42,5.35a14,14,0,0,0-.11,5.47,11.26,11.26,0,0,0,2.5,4.85c2.41,2.81,5.65,4.74,8.23,7.38a14.27,14.27,0,0,1,3.1,4.54,24.51,24.51,0,0,1,1.29,5.36c.6,3.63,1,7.36,2.66,10.7a12.43,12.43,0,0,0,3.4,4.31,24.18,24.18,0,0,0,4.81,2.71c6.72,3.09,14.06,4.55,21.37,5.41s14.71,1.15,22.08,1.58,14.74.73,22.12,1,14.75.46,22.13.58,14.76.28,22.13,0a76.62,76.62,0,0,0,21.79-3.46c7-2.32,13.45-6.07,19.76-9.87s12.55-7.81,19.29-10.83a60.35,60.35,0,0,1,21.38-5.25,82.47,82.47,0,0,1,22,1.8,149.14,149.14,0,0,1,21.21,6.27c6.93,2.54,13.73,5.42,20.49,8.37l10.15,4.42a80.13,80.13,0,0,0,10.38,3.81A45.27,45.27,0,0,0,477.83,461c.92.07,1.84,0,2.77,0s1.83-.21,2.74-.32a19.62,19.62,0,0,0,5.23-1.74,17.33,17.33,0,0,0,7.72-7.66,27,27,0,0,0,2.58-10.69c.46-7.36-.55-14.77.36-22.11A25.77,25.77,0,0,1,502.64,408a27.91,27.91,0,0,1,7.53-8c6-4.38,12.88-7.18,19.37-10.67a59.28,59.28,0,0,0,9.31-5.95,29.59,29.59,0,0,0,7.22-8.3,29.14,29.14,0,0,0,3.1-21.38A27.78,27.78,0,0,0,536,336.56a27.49,27.49,0,0,0-5-2.25,26.22,26.22,0,0,0-5.4-1.14,50.35,50.35,0,0,0-11,.35c-3.66.44-7.32.93-11,1.14a107.4,107.4,0,0,1-11.06.15c-1.85-.06-3.69-.17-5.53-.33-.91-.14-1.83-.23-2.73-.42l-1.34-.37-.66-.18c-.22-.08-.43-.18-.64-.27l-1.27-.55c-.41-.22-.79-.48-1.18-.72a15.56,15.56,0,0,1-2.18-1.7c-.32-.33-.61-.69-.92-1l-.45-.53-.39-.57-.76-1.15-.63-1.24a30.13,30.13,0,0,1-2.57-10.7,72.92,72.92,0,0,1,0-11.06c.53-7.36,1.74-14.65,2.89-21.94.58-3.64,1.16-7.29,1.54-11a46.37,46.37,0,0,0,.27-5.52c-.08-1.85-.16-3.69-.34-5.53a80.84,80.84,0,0,0-4.77-21.54A51.48,51.48,0,0,0,459,220l-1-1c-.34-.31-.7-.59-1.05-.9-.72-.58-1.4-1.2-2.14-1.75-1.47-1.11-3-2.13-4.53-3.19a49.06,49.06,0,0,1-4.4-3.35,24.41,24.41,0,0,1-3.71-4.09,50.17,50.17,0,0,1-5.15-9.78q-2.13-5.1-4.34-10.18A208.62,208.62,0,0,0,423,165.94,93.12,93.12,0,0,0,410,148a47.84,47.84,0,0,0-8.44-7.11,30,30,0,0,0-10.12-4.27,26.85,26.85,0,0,0-11,0A51.1,51.1,0,0,0,370,140.09c-6.76,2.94-13.16,6.71-20.14,9.16-7,2.26-14.17,4.15-21.33,5.92s-14.37,3.37-21.59,4.91-14.57,2.81-22,2.2-14.4-3.25-21.35-5.63a125.52,125.52,0,0,0-65.46-4.71,129.54,129.54,0,0,0-41.25,15.39A136.93,136.93,0,0,0,123,195.43a144.43,144.43,0,0,0-23.63,37.21c-3,6.73-5.75,13.59-8.89,20.27-1.56,3.35-3.25,6.64-5.12,9.82S81.43,269,79.25,272Z"/></svg>