<svg id="Layer_1" data-name="Layer 1" xmlns="http://www.w3.org/2000/svg" viewBox="0 0 600 600"><title>russia</title><path d="M192.59,279.41c-4.74-1.12-9.62-1.07-14.45-2.05a12.83,12.83,0,0,1-6.7-3.32,12.45,12.45,0,0,1-3.48-6.79,21.62,21.62,0,0,1,0-7.57c.35-2.46.87-4.82,1.05-7.13a11.15,11.15,0,0,0-1.05-6.3,7.81,7.81,0,0,0-.87-1.28c-.17-.2-.31-.41-.5-.6l-.57-.55a7.92,7.92,0,0,0-2.5-1.63,9.58,9.58,0,0,0-6-.05,17.75,17.75,0,0,0-5.73,3,18.76,18.76,0,0,0-2.34,2.19c-.37.38-.65.81-1,1.21s-.62.93-.92,1.4a56.14,56.14,0,0,0-3.17,6.19c-2,4.33-3.85,9.1-7.22,13.43a30.44,30.44,0,0,1-13.17,9.36c-4.9,2-9.71,3-13.95,4.61a34,34,0,0,0-5.91,2.72,27.33,27.33,0,0,0-5.11,3.86A29.5,29.5,0,0,0,94.94,295,22.46,22.46,0,0,0,92,300.84a28.23,28.23,0,0,0-1,6.59c0,.55,0,1.11-.08,1.64s-.08,1.13-.14,1.68a29.37,29.37,0,0,1-.56,3.27,125.49,125.49,0,0,0-5,25.24,42.83,42.83,0,0,0-.07,5.75,27.8,27.8,0,0,0,.58,4.89,11.73,11.73,0,0,0,.74,2.1c.41,1,1,2.21,1.6,3.78a24.71,24.71,0,0,1,1.63,6,18.38,18.38,0,0,1-.74,8l-.33,1c-.12.3-.25.58-.38.87-.27.56-.54,1.18-.84,1.67s-.6,1-1,1.5-.72,1-1.11,1.46a19.4,19.4,0,0,1-5.61,4.56A24,24,0,0,1,74.26,383a40.69,40.69,0,0,1-4.41.86c-.63.07-1.25.16-1.77.19l-1.46.12c-1,0-1.85.12-2.68.23A8,8,0,0,0,60,385.71,3.55,3.55,0,0,0,59,387a5.46,5.46,0,0,0-.51,1.71,12.34,12.34,0,0,0,.3,4.73,48,48,0,0,0,1.77,5.77c.73,2,1.51,4,2.24,6S64.26,409.05,65,411L66,414c.35,1,.74,1.94,1.1,2.92s.77,1.94,1.18,2.9.81,2,1.24,2.85c.82,1.84,1.66,3.5,2.51,5a24.08,24.08,0,0,0,2.8,3.85,12.36,12.36,0,0,0,3.4,2.62,10,10,0,0,0,1.84.72A7.62,7.62,0,0,0,81,435a7.77,7.77,0,0,0,.85.05,6.13,6.13,0,0,0,3.54-1.22,4.68,4.68,0,0,0,1.21-1.27l.21-.35.17-.36a4.54,4.54,0,0,0,.24-.95c.27-1.44-.06-3.58-.42-6.18a34.83,34.83,0,0,1-.4-4.43,19.84,19.84,0,0,1,.51-5.06,12.9,12.9,0,0,1,2.81-5.52,12,12,0,0,1,2.68-2.27,13,13,0,0,1,3.21-1.37,26.53,26.53,0,0,1,5.17-.75,6.28,6.28,0,0,0,2.41-.5,5.4,5.4,0,0,0,1.53-.8c.35-.27.5-.48.51-.6a5.9,5.9,0,0,0,.28-1.77,6.85,6.85,0,0,0-.2-1.54c-.09-.24-.26-.8-.62-1.63s-.87-1.91-1.44-3.3a23.86,23.86,0,0,1-1.57-5.35,16.86,16.86,0,0,1,.53-7.49,15,15,0,0,1,1.74-3.79,16.42,16.42,0,0,1,2.54-3.08,17.68,17.68,0,0,1,6.25-3.81,18.12,18.12,0,0,1,3.51-.83,14.1,14.1,0,0,1,1.82-.15l1.7,0a12.63,12.63,0,0,1,1.65.17c.53.08,1.09.16,1.6.28a23.47,23.47,0,0,1,2.9.88,27.08,27.08,0,0,1,4.85,2.42,41.65,41.65,0,0,1,6.94,5.71c2,1.92,3.57,3.87,5.05,5.51,1.82,1.94,3.41,3.9,4.91,5.76s3,3.61,4.4,5.22a43.06,43.06,0,0,0,4.63,4.42,27.42,27.42,0,0,0,5.05,3.42c.43.23.83.39,1.25.6s.8.31,1.2.46a7.89,7.89,0,0,0,2,.32h.39a1.67,1.67,0,0,1,.3-.08c.23,0,.33-.13.52-.15a2.69,2.69,0,0,0,.89-.77c.57-.8,1.16-2.76,2.15-5.8a22.24,22.24,0,0,1,2.41-5.2,20.69,20.69,0,0,1,4.57-4.81A29.62,29.62,0,0,1,182,386a23.15,23.15,0,0,1,5-1.87,20.52,20.52,0,0,1,4.84-.54,40.74,40.74,0,0,1,4.43.36c1.4.2,2.75.43,4,.72.65.14,1.22.29,1.87.46s1.46.38,2.18.61a43.21,43.21,0,0,1,8.07,3.49,159.91,159.91,0,0,1,13.62,9c1.07.72,2.12,1.45,3.18,2.14.54.34,1,.71,1.59,1l1.43.89c1.9,1.18,4.08,2.33,6.36,3.67,1.15.67,2.33,1.38,3.54,2.19.6.39,1.22.81,1.84,1.27.31.22.62.45.94.71l.47.36.52.45a38.09,38.09,0,0,1,6.26,7.3c.76,1.09,1.46,2,2.09,2.85.32.4.62.77.91,1.08s.29.32.42.45l.47.47a42.14,42.14,0,0,0,4.42,4,43.29,43.29,0,0,0,9.49,5.74c.81.36,1.61.66,2.36.94.38.16.79.25,1.18.38s.79.25,1.19.35c.8.24,1.62.39,2.43.56l1.23.23c.41.07.83.1,1.24.16a31.75,31.75,0,0,0,9.79-.21,20.37,20.37,0,0,0,4.66-1.42,4.82,4.82,0,0,0,.77-.4l.9-.5c.61-.34,1.26-.7,2-1.08a28,28,0,0,1,5.11-2.1,16.49,16.49,0,0,1,6.55-.56,17.44,17.44,0,0,1,5.66,1.75c1.36.7,2.52,1.44,3.61,2.12s2,1.28,2.89,1.78a16.4,16.4,0,0,0,2.31,1.06,5.26,5.26,0,0,0,1.9.24,4.49,4.49,0,0,0,1-.15,8.65,8.65,0,0,0,.93-.34,4.31,4.31,0,0,0,1.54-1.19c.14-.13.3-.32.45-.49l.47-.56a10,10,0,0,0,1-1.35,27.56,27.56,0,0,0,1.8-4,17.36,17.36,0,0,1,3.86-5.9,11.1,11.1,0,0,1,1.76-1.46,16,16,0,0,1,2.07-1.25,24.45,24.45,0,0,1,2.26-1,19.36,19.36,0,0,1,1.93-.68,20.78,20.78,0,0,1,7.2-.84,18.6,18.6,0,0,1,5,1l1.71.52c.51.15.86.17,1.28.28.76.22,1.62.37,2.47.53,3.39.69,7.16,1.17,10.94,1.59a80.42,80.42,0,0,0,11.48.52c.93-.05,1.89-.06,2.79-.17L389,421l1.33-.2c.91-.11,1.71-.33,2.57-.49.42-.08.8-.21,1.2-.31s.87-.24,1.05-.31a11.38,11.38,0,0,0,2.8-1.36,7.76,7.76,0,0,0,1.63-1.49,3.86,3.86,0,0,0,.33-.43.92.92,0,0,0,.19-.39,6.43,6.43,0,0,0,.07-1.26c-.05-.66-.12-1.4-.27-2.39s-.34-2.08-.57-3.38-.48-2.72-.69-4.32a43,43,0,0,1-.38-5.35,37.18,37.18,0,0,1,.58-6.2,31,31,0,0,1,13.33-19.8,30.24,30.24,0,0,1,17.09-5.22c1,.05,2.08.12,3.11.21a29.57,29.57,0,0,1,3.07.57c.51.12,1,.21,1.51.37l1.47.52a19.27,19.27,0,0,1,2.84,1.18c.9.47,1.8,1,2.67,1.47a27.51,27.51,0,0,1,2.4,1.68,48.56,48.56,0,0,1,6.6,6.49c1.66,1.91,3,3.53,4.11,4.56a15.46,15.46,0,0,0,1.37,1.2c.16.09.33.26.45.31s.17.11.14.11a.36.36,0,0,0-.23,0c-.17,0,.09.15.6.18a11.34,11.34,0,0,0,2.16-.15c1.78-.27,3.91-.74,6.24-1.32s4.81-1.25,7.67-1.66a34.59,34.59,0,0,1,4.61-.31,23.29,23.29,0,0,1,5.43.64,15.51,15.51,0,0,1,6,2.81,12.92,12.92,0,0,1,3.93,5.12,16.34,16.34,0,0,1,.95,2.55,13.53,13.53,0,0,1,.32,1.36,9.27,9.27,0,0,1,.24,1.38,29.54,29.54,0,0,1,0,5.31,76,76,0,0,1-1,9,23.56,23.56,0,0,1-1,3.39c-.39,1-.67,1.82-.85,2.39l-.08.23c0,.07-.07.27-.11.39l-.25.84c-.18.55-.32,1.09-.5,1.61-.34,1.06-.69,2.09-1,3.1a21.46,21.46,0,0,0-1.08,5.7,10.39,10.39,0,0,0,.31,3.64,1.57,1.57,0,0,0,.48.83,3.67,3.67,0,0,0,1.44.73,2.83,2.83,0,0,0,1.31.08,4.73,4.73,0,0,0,1.69-.72,10.14,10.14,0,0,0,.94-.66c.3-.29.63-.52.93-.86a12.72,12.72,0,0,0,1.71-2.1,14.62,14.62,0,0,0,2.21-5,24.16,24.16,0,0,0,.63-5.78,52.52,52.52,0,0,0-2.13-12.91c-.29-1.13-.64-2.32-1-3.43l-1-3.37L496.4,393c-.75-2.33-1.43-4.72-2.11-7.16-.34-1.22-.62-2.46-.92-3.72l-.42-1.9-.21-1-.19-1.13a91.8,91.8,0,0,1-.69-14.77c0-1,0-1.86-.06-2.7s-.15-1.7-.19-2.16a8.06,8.06,0,0,0-.67-2.06,12.38,12.38,0,0,0-1.24-2.06,7,7,0,0,0-3.13-2.47,1.87,1.87,0,0,1-.32-.08l-.27,0c-.1,0-.15,0-.22,0s-.13,0-.19,0a3.65,3.65,0,0,0-1,.56,20.94,20.94,0,0,0-1.84,1.67c-.77.71-1.67,1.69-2.88,2.71-.56.5-1.3,1.07-2,1.6a19,19,0,0,1-6.1,2.76c-.62.13-1.25.24-1.89.34a15.48,15.48,0,0,1-2.08.09,16.31,16.31,0,0,1-4.53-.69,15.92,15.92,0,0,1-4.36-2.24,17.88,17.88,0,0,1-5.43-6.26l-.41-.8-.32-.74c-.2-.5-.43-1-.61-1.5-.31-.94-.7-1.91-1-2.78a40.28,40.28,0,0,1-1.45-5.22c-.34-1.71-.6-3.38-.79-5.18l-.2-2.44c-.06-.74-.13-1.49-.15-2.23-.07-1.49-.09-3-.09-4.49s.1-3,.27-4.49c.3-3,.78-6,1.28-9a64.59,64.59,0,0,1,2.11-9,31.86,31.86,0,0,1,4.13-8.27,34.48,34.48,0,0,1,2.92-3.64,30.59,30.59,0,0,1,4.24-4.06,26.49,26.49,0,0,1,7.74-4.24c.57-.19,1.15-.38,1.67-.52s1-.31,1.54-.43c1-.26,1.9-.44,2.72-.66l1.17-.3.57-.16.5-.18a7,7,0,0,0,.95-.43l.23-.12.19-.06.35-.14a2.35,2.35,0,0,0,1.1-.67,2.63,2.63,0,0,0,.37-1.77,5.81,5.81,0,0,0-.2-1.35,11.87,11.87,0,0,0-.44-1.55c-.17-.55-.37-1.12-.59-1.64l-.71-1.83a31.56,31.56,0,0,1-1.39-4.56,16.56,16.56,0,0,1-.2-6.29,13.8,13.8,0,0,1,1.16-3.57,11.59,11.59,0,0,1,.93-1.62l.53-.75c.2-.25.44-.51.66-.76a12,12,0,0,1,3.21-2.59,12.42,12.42,0,0,1,3.78-1.37,14.91,14.91,0,0,1,6.8.34,18.43,18.43,0,0,1,5.34,2.49,17.49,17.49,0,0,1,4.31,4.08,12.68,12.68,0,0,1,.89,1.32l.41.69.29.56a24,24,0,0,1,1,2.23,29.48,29.48,0,0,1,1.43,4.64c.32,1.45.53,2.7.75,3.86a35.33,35.33,0,0,0,1.75,6.39,39.54,39.54,0,0,0,2.51,5.41,28.5,28.5,0,0,0,7.07,8.49,10.15,10.15,0,0,0,1,.74,7.76,7.76,0,0,0,1,.67,24.25,24.25,0,0,0,2.32,1.25,16.14,16.14,0,0,0,4.41,1.36,8.67,8.67,0,0,0,3.48-.17c.24-.05.46-.18.7-.22a7.31,7.31,0,0,0,.84-.32,4.76,4.76,0,0,0,1.05-.67,3.51,3.51,0,0,0,.61-.7,4.57,4.57,0,0,1,.29-.47c.06-.19.18-.32.24-.52a8.17,8.17,0,0,0,.55-2.74,12.86,12.86,0,0,0-.41-3.77c-.15-.66-.36-1.33-.51-2s-.24-1.39-.34-2.11a10.3,10.3,0,0,0-1.15-4,22.2,22.2,0,0,0-3.07-4.61,52.77,52.77,0,0,0-4.63-4.81l-5.46-4.88c-.9-.8-1.79-1.65-2.73-2.42a13.77,13.77,0,0,0-3.14-1.82l-3.5-1.62a26.79,26.79,0,0,1-4.1-2.37,18.9,18.9,0,0,1-4.08-4.3,18,18,0,0,1-2.53-5.67,28.55,28.55,0,0,1-.38-10.58c.17-1.51.47-2.88.7-4.17l.66-3.47c.3-1.73.57-3.81.85-5.84a82.1,82.1,0,0,0,.8-12.3,50.3,50.3,0,0,0-.38-5.58,21.87,21.87,0,0,0-1-4.28,7.76,7.76,0,0,0-1.09-2.08,2.23,2.23,0,0,0-.75-.57l-.28-.15c-.08,0-.05-.05-.22-.09-.33-.07-.84-.14-1.41-.21-1.16-.14-2.57-.28-4.17-.54a22.7,22.7,0,0,1-5.73-1.57,13.68,13.68,0,0,1-3.72-2.38,11.81,11.81,0,0,1-3.13-4.49,12.7,12.7,0,0,1,0-9.38,14.56,14.56,0,0,1,4.64-6.06,15.47,15.47,0,0,1,1.45-1c.25-.15.5-.3.76-.44s.58-.3.74-.37c.67-.31,1.36-.63,2-.89,1.26-.53,2.43-1,3.26-1.4a4.59,4.59,0,0,0,1.36-.89c0-.11-.27.16-.32.2s-.07-.37-.06-.89l0-.51a2.24,2.24,0,0,0-.05-.42,3.4,3.4,0,0,0-.15-.49,4.71,4.71,0,0,0-.53-1.05,4,4,0,0,0-1.84-1.52c-.16-.06-.28-.09-.45-.14s-.51-.1-.74-.14-.38,0-.5,0-.25,0-.31.05a.27.27,0,0,1-.13,0,.42.42,0,0,1-.13.07h-.08l-.09.07a.63.63,0,0,1-.2.1,8.85,8.85,0,0,0-1.2,1.08,33.73,33.73,0,0,0-3.38,4.67l-1,1.55-1.08,1.66-.29.43-.36.5-.74,1c-.51.64-1,1.28-1.56,1.87a46,46,0,0,1-6.67,6c-4.5,3.29-8.83,5.82-12.45,8.33a35.84,35.84,0,0,0-4.54,3.75,14.29,14.29,0,0,0-1.43,1.73,5.61,5.61,0,0,0-.72,1.5,4.29,4.29,0,0,0-.23,1.3,5.37,5.37,0,0,0,0,.69,2,2,0,0,0,0,.35l.06.44c.05.33.11.77.22,1.29s.31,1.11.49,1.82a33.65,33.65,0,0,1,1.31,5.58c.08.58.12,1.26.15,1.87s0,1.23,0,1.85a11.94,11.94,0,0,1-.15,1.94c-.1.67-.18,1.34-.35,2a19,19,0,0,1-3.79,7.66,19.42,19.42,0,0,1-5.73,4.71,36,36,0,0,1-5.16,2.22c-1.54.56-2.85.88-4,1.22s-2,.53-2.88.74a51,51,0,0,0-5.33,1.71,98.67,98.67,0,0,0-11.83,5.48l-12.83,7a41.5,41.5,0,0,0-5.18,3.55,20.38,20.38,0,0,0-2.07,2c-.33.33-.61.68-.91,1-.14.16-.29.38-.44.59s-.31.42-.47.66a51.81,51.81,0,0,1-5.18,6.93,15.71,15.71,0,0,1-5.05,3.55,14,14,0,0,1-6.54,1.05c-.5,0-1-.1-1.5-.17s-.9-.17-1.31-.28a21.24,21.24,0,0,1-2.36-.73c-1.46-.54-2.7-1.1-3.8-1.58a18.18,18.18,0,0,0-5.31-1.75,14.18,14.18,0,0,0-5.19.19,14.55,14.55,0,0,0-4.76,2c-1.56,1-3.37,2.59-5.72,4.29a20.18,20.18,0,0,1-9.41,3.87c-.5.05-1,.08-1.52.08a13.87,13.87,0,0,1-1.5-.08,14.32,14.32,0,0,1-3-.6l-.82-.28-.88-.41a10.06,10.06,0,0,1-1.75-1.09,10.31,10.31,0,0,1-2.8-3.38,13.53,13.53,0,0,1-1.32-6.38,34.94,34.94,0,0,1,.4-4.41c.19-1.3.38-2.45.5-3.48a13.68,13.68,0,0,0,.12-2.48c0-.24-.05-.46-.08-.45s0,0,0,.06a.21.21,0,0,0,0,.11l0,0a3.36,3.36,0,0,0-.93-.85,7.41,7.41,0,0,0-3.61-.94,10,10,0,0,0-4.46,1,29.26,29.26,0,0,0-5,3c-1.73,1.25-3.54,2.76-5.45,4.31-3.76,3.07-7.49,6.19-11.49,9s-8.14,5.43-12.22,8.12c-2,1.36-4.05,2.74-6,4.17a35.12,35.12,0,0,1-6.75,4.24,10.92,10.92,0,0,1-4.55.86,11.58,11.58,0,0,1-4.3-1.07c-2.51-1.12-4.44-2.58-6.44-3.45a10.14,10.14,0,0,0-6.29-.77,13.46,13.46,0,0,0-5.91,3.12c-3.51,3.07-6.37,7.4-10.78,9.8a11.71,11.71,0,0,1-7.18,1.21,31.53,31.53,0,0,1-7-2c-4.51-1.81-9.18-3.15-13.8-4.67S197.34,280.44,192.59,279.41Zm0-.13a3,3,0,0,0,.89.23l.89.16,1.8.33,3.59.71c2.39.49,4.77,1,7.14,1.59,1.19.29,2.38.57,3.56.88l3.47,1.14c2.29.74,4.67,1.6,6.91,2.47a27.43,27.43,0,0,0,6.74,1.88,9.79,9.79,0,0,0,6.29-1.21,21.31,21.31,0,0,0,5-4.61c1.55-1.82,3-3.78,4.87-5.6a16,16,0,0,1,6.81-4.14,13.52,13.52,0,0,1,8.14.41c2.55.9,4.63,2.25,6.66,3a6.51,6.51,0,0,0,5.61-.2,27.42,27.42,0,0,0,5.38-4.11l5.44-4.86q5.37-4.92,10.82-9.77c3.65-3.21,7.42-6.28,11.17-9.36s7.58-6.46,12.56-8.62a18.63,18.63,0,0,1,8.07-1.63,14.92,14.92,0,0,1,8.08,2.46,11.73,11.73,0,0,1,3.13,3.15,8.83,8.83,0,0,1,.62,1.08,9.62,9.62,0,0,1,.41,1.17,10.12,10.12,0,0,1,.33,2.25,38.24,38.24,0,0,1-.92,7.64,28,28,0,0,0-.43,3.37,6.13,6.13,0,0,0,.37,2.74,2.64,2.64,0,0,0,.65.86,3.41,3.41,0,0,0,1.09.58,6.76,6.76,0,0,0,1.44.33,6.88,6.88,0,0,0,1.5.06,13.09,13.09,0,0,0,6-2.38c1.94-1.28,3.8-2.88,6-4.24a22,22,0,0,1,14.67-3.17,20.59,20.59,0,0,1,3.71.86,36.47,36.47,0,0,1,3.45,1.38,20.88,20.88,0,0,0,6.67,2.15,7,7,0,0,0,3.28-.51,8.42,8.42,0,0,0,2.76-2,34.05,34.05,0,0,0,4.12-5.87,31.67,31.67,0,0,1,4.49-5.83,56,56,0,0,1,5.49-4.85c1.91-1.5,3.89-2.93,5.84-4.37s3.85-2.94,5.79-4.42A102.74,102.74,0,0,1,425,222.19a54.48,54.48,0,0,1,6.58-3.16c2.26-.91,4.6-1.59,6.86-2.46a18.12,18.12,0,0,0,6.22-3.64,10.35,10.35,0,0,0,2.06-3,12,12,0,0,0,.91-3.5c.21-2.43-.32-4.84-.44-7.26a14.66,14.66,0,0,1,1.34-7.09,19.07,19.07,0,0,1,4.37-5.76,45.87,45.87,0,0,1,5.78-4.43c4.05-2.69,8.3-5.06,12.22-7.94a37.23,37.23,0,0,0,5.44-4.83,42.43,42.43,0,0,0,4.18-5.95,40,40,0,0,1,4.29-5.88,15.22,15.22,0,0,1,2.75-2.38,11.26,11.26,0,0,1,1.61-.85l.84-.34.89-.22a11.88,11.88,0,0,1,7.13.76,12.44,12.44,0,0,1,5.42,4.71,12.62,12.62,0,0,1,1.46,3.32,13.75,13.75,0,0,1,.41,3.61,11.44,11.44,0,0,1-.6,3.58,7,7,0,0,1-2.11,2.91c-1.9,1.55-4.27,2.3-6.47,3.3a13.68,13.68,0,0,0-3.18,1.75,7,7,0,0,0-2.17,2.87,4.86,4.86,0,0,0,0,3.56,4.43,4.43,0,0,0,2.61,2.37,22.65,22.65,0,0,0,7.18,1,12.65,12.65,0,0,1,11.87,7,24.72,24.72,0,0,1,2.44,6.84,43.7,43.7,0,0,1,.89,7.22,69.25,69.25,0,0,1-.93,14.52,55.61,55.61,0,0,1-1.64,7.09c-.73,2.32-1.58,4.6-2.2,6.95a18.28,18.28,0,0,0-.69,7.2,10.47,10.47,0,0,0,3.34,6.31,39.56,39.56,0,0,0,6.06,4l6.27,3.71c4.13,2.56,8.37,5,12.26,7.88s7.39,6.48,9.36,11a26.44,26.44,0,0,1,2.14,14.22,18.73,18.73,0,0,1-2.38,6.84,14.91,14.91,0,0,1-5.06,5.14,18.61,18.61,0,0,1-14.08,1.88,30.06,30.06,0,0,1-12.61-7,36.28,36.28,0,0,1-8.33-11.84,53.87,53.87,0,0,1-3.94-14,33.58,33.58,0,0,0-1.65-7.08A14.48,14.48,0,0,0,500,262a10.42,10.42,0,0,0-2.61-2.52,9.47,9.47,0,0,0-6.87-1.81,5.94,5.94,0,0,0-4.65,5c-.37,2.43.45,4.84,1.33,7.07s1.94,4.46,2.66,6.78a15,15,0,0,1,.68,3.57,11.54,11.54,0,0,1-.39,3.61,19.71,19.71,0,0,1-3.39,6.4c-3,3.85-6.9,6.83-10.18,10.41a38.85,38.85,0,0,0-4.35,5.84,69.61,69.61,0,0,0-8.7,19.95,66.42,66.42,0,0,0-1.46,7.14c-.17,1.2-.33,2.4-.43,3.61a29.5,29.5,0,0,0,0,3.64,24.34,24.34,0,0,0,.43,3.62,14.53,14.53,0,0,0,1.1,3.46,7.72,7.72,0,0,0,2.16,2.89,6.61,6.61,0,0,0,1.55.94,6.81,6.81,0,0,0,1.77.37,8,8,0,0,0,3.58-.48,14.34,14.34,0,0,0,3.24-1.65,56.24,56.24,0,0,1,6.11-3.94,9.27,9.27,0,0,1,7.08-.53,15.83,15.83,0,0,1,6.08,3.91,20.32,20.32,0,0,1,4.15,5.94,25.58,25.58,0,0,1,1.71,7.06c.57,4.83.26,9.71.92,14.53,1.51,9.61,4.29,19,5.95,28.53a64.13,64.13,0,0,1,1.34,14.48,29,29,0,0,1-1.21,7.17,22.53,22.53,0,0,1-3.21,6.5,19.08,19.08,0,0,1-5.17,5.08,10.93,10.93,0,0,1-3.32,1.45,9.15,9.15,0,0,1-3.61.15,9,9,0,0,1-6.09-3.64,13.06,13.06,0,0,1-1.95-6.92c-.15-4.87,1-9.67,2.23-14.35,1.41-4.65,4.45-8.69,5.36-13.51a10.16,10.16,0,0,0-1.12-7,7,7,0,0,0-2.44-2.64,7.92,7.92,0,0,0-3.45-1.07,14.64,14.64,0,0,0-3.62.17,33.25,33.25,0,0,0-3.56.79c-2.34.65-4.63,1.46-6.93,2.24s-4.61,1.56-7,2.13a17.1,17.1,0,0,1-7.22.42,16.12,16.12,0,0,1-6.31-3.51,65.86,65.86,0,0,1-5.2-5.1,40.93,40.93,0,0,0-5.35-4.93,17,17,0,0,0-6.6-2.94,16.15,16.15,0,0,0-7.22.12,18.3,18.3,0,0,0-6.59,3,18.56,18.56,0,0,0-7.69,11.93,26.05,26.05,0,0,0-.25,3.63,29.38,29.38,0,0,0,.38,3.63c.38,2.39,1,4.75,1.47,7.13a28,28,0,0,1,.68,7.24,15.59,15.59,0,0,1-2.12,6.9,22.75,22.75,0,0,1-10.93,9.26,55.78,55.78,0,0,1-14.1,3.54,74.47,74.47,0,0,1-14.55.34,66.86,66.86,0,0,1-14.32-2.52c-1.16-.36-2.32-.72-3.45-1.17s-2.26-.89-3.38-1.37a21.32,21.32,0,0,0-7-2,7.22,7.22,0,0,0-3.55.61,9.85,9.85,0,0,0-2.93,2.12c-1.7,1.74-3.07,3.77-4.81,5.46a10.75,10.75,0,0,1-6.43,3.13A13.19,13.19,0,0,1,319.2,440c-2.23-1-4.36-2.15-6.62-3a9.46,9.46,0,0,0-7.11-.14,25.8,25.8,0,0,0-6.08,3.95,26.5,26.5,0,0,1-6.3,3.62,32.13,32.13,0,0,1-14.28,2.26,36.29,36.29,0,0,1-14-3.77,45.49,45.49,0,0,1-11.74-8.54,53.1,53.1,0,0,1-4.78-5.49,55.48,55.48,0,0,1-3.87-6.17,26,26,0,0,0-4.31-5.84,38.72,38.72,0,0,0-5.81-4.37c-2-1.31-4.15-2.53-6.21-3.82s-4.06-2.66-6.15-3.91a77.45,77.45,0,0,0-13-6.5,51.77,51.77,0,0,0-7-2.08c-2.38-.49-4.78-.88-7.18-1.2a40.17,40.17,0,0,0-7.27-.35,25.84,25.84,0,0,0-3.61.47,21.08,21.08,0,0,0-3.46,1.1,9.4,9.4,0,0,0-3,2.05,11,11,0,0,0-1.93,3.07c-1,2.22-1.48,4.65-2.87,6.68A8.29,8.29,0,0,1,170,410.4a7.44,7.44,0,0,1-1.69.67l-.88.23-.91.07a15.78,15.78,0,0,1-7.08-1.47,46.84,46.84,0,0,1-12.1-8c-3.62-3.25-6.83-6.91-10.33-10.28s-6.8-7-10.93-9.59a14.7,14.7,0,0,0-6.79-2.35,9,9,0,0,0-6.67,2.35,7.42,7.42,0,0,0-2.2,6.61c.34,2.42,1.46,4.62,2.28,6.9a15.89,15.89,0,0,1,.93,3.52,14.78,14.78,0,0,1,0,3.64,10.63,10.63,0,0,1-3.08,6.47,11.44,11.44,0,0,1-6.62,2.75c-2.43.29-4.87-.4-7.27,0a6.08,6.08,0,0,0-3.18,1.63,7.16,7.16,0,0,0-1.8,3.12,15.54,15.54,0,0,0-.1,7.21,35.05,35.05,0,0,1,.9,7.22,10.36,10.36,0,0,1-2.65,6.64,13.08,13.08,0,0,1-6.08,3.86,14.63,14.63,0,0,1-7.23.16,19.74,19.74,0,0,1-6.66-2.87A26.11,26.11,0,0,1,64.47,434a56.93,56.93,0,0,1-7.55-12.43,77.77,77.77,0,0,1-4.85-13.73q-.9-3.54-1.45-7.14a49.21,49.21,0,0,1-.65-7.26,22.77,22.77,0,0,1,1-7.2,14,14,0,0,1,3.8-6.14A18.27,18.27,0,0,1,61,376.39,42.23,42.23,0,0,1,68,374.6a22.61,22.61,0,0,0,6.9-2.19,9.59,9.59,0,0,0,4.45-5.51,8,8,0,0,0,.26-3.57,14,14,0,0,0-1.06-3.46c-1-2.23-2.22-4.33-3-6.66a43.15,43.15,0,0,1-1.54-14.44,85.64,85.64,0,0,1,2-14.43,110.3,110.3,0,0,1,4.06-14c3.18-9.15,8.37-17.81,15.94-24a39,39,0,0,1,6-4.07,37.73,37.73,0,0,1,6.73-2.79c4.62-1.5,9.43-2.37,14-4a26.68,26.68,0,0,0,11.93-8c3.09-3.76,5-8.27,7.19-12.61a57.53,57.53,0,0,1,3.56-6.37,19,19,0,0,1,5-5.26,19.59,19.59,0,0,1,6.57-3.08,11.39,11.39,0,0,1,7.18.39,9.85,9.85,0,0,1,3,2.09l.64.66c.2.22.36.48.55.72a9.2,9.2,0,0,1,1,1.56,12.75,12.75,0,0,1,1,7.14c-.27,2.42-.86,4.78-1.27,7.17a20.7,20.7,0,0,0-.25,7.23,11.18,11.18,0,0,0,6,8.6,17.91,17.91,0,0,0,3.39,1.32C182.93,278.36,187.85,278.32,192.62,279.28Z"/><path d="M58,275.69a5.21,5.21,0,0,0-2.7-.25,1.78,1.78,0,0,0-1.55,1.68,2.56,2.56,0,0,0,1,2A25.89,25.89,0,0,0,57,280.56a17.15,17.15,0,0,1,4.65,4.09,13.3,13.3,0,0,1,.9,1.36c.24.42.46.75.62,1a1.17,1.17,0,0,0,.36.38,2.27,2.27,0,0,0,.31.17,2.44,2.44,0,0,0,.32.11c.09,0,0,0-.42.25a1.27,1.27,0,0,0-.44.52c-.05.15,0,.2,0,.16a1,1,0,0,0,.13-.33l.16-.64a32.9,32.9,0,0,0,1-5,5.66,5.66,0,0,0-.23-2.31,5.51,5.51,0,0,0-1.54-2A15,15,0,0,0,58,275.69Zm0,0c1.75.6,3.52,1.11,5.28,1.88a8.75,8.75,0,0,1,2.57,1.65A8.09,8.09,0,0,1,67.54,282a19.35,19.35,0,0,1,1.2,6l0,.74a5.21,5.21,0,0,1-.09,1,4.66,4.66,0,0,1-.48,1.44,4.14,4.14,0,0,1-1.38,1.52,5.09,5.09,0,0,1-3.09.78,6.48,6.48,0,0,1-2.35-.56,6.74,6.74,0,0,1-2-1.37,7.11,7.11,0,0,1-1.28-1.83,10.34,10.34,0,0,1-.6-1.5c-.14-.41-.22-.74-.36-1.11a23.24,23.24,0,0,0-2.26-4.52,29,29,0,0,1-1.59-2.53,4.27,4.27,0,0,1-.4-3.2,2.47,2.47,0,0,1,.94-1.27,2.77,2.77,0,0,1,1.39-.46A7.19,7.19,0,0,1,58,275.69Z"/><path d="M236.87,200.3a3.72,3.72,0,0,0-1,3.82,4.05,4.05,0,0,0,2.45,2.62,4.69,4.69,0,0,0,3,.32,4.79,4.79,0,0,0,.46-.16,3.92,3.92,0,0,1,.39-.25,3,3,0,0,0,.7-.5,2,2,0,0,0,.39-.46,3,3,0,0,0,.37-.93,5.54,5.54,0,0,0-.29-3,3.91,3.91,0,0,0-2.6-2.43,4,4,0,0,0-2,.06A5.59,5.59,0,0,0,236.87,200.3Zm0,0a8.32,8.32,0,0,1,3.9-1.84,6.94,6.94,0,0,1,4.79,1.21,7.67,7.67,0,0,1,3.22,4.49,6.72,6.72,0,0,1,0,3.25A6.42,6.42,0,0,1,247,210.5a6.76,6.76,0,0,1-2.92,1.61,7.9,7.9,0,0,1-1.65.27,6.73,6.73,0,0,1-1.65-.18,7.46,7.46,0,0,1-4.5-3.3,7.19,7.19,0,0,1-1.21-4.76A5.87,5.87,0,0,1,236.87,200.3Z"/><path d="M255.56,201.87a3.51,3.51,0,0,0-3.17.73,4.32,4.32,0,0,0-1.29,2.92,14.06,14.06,0,0,0,.28,3.32c.09.58.19,1.18.23,1.81a8.13,8.13,0,0,1,0,1c0,.15,0,.37,0,.48v.36a2,2,0,0,0,.27,1c.16.2.23,0,.32,0s1.12-.07,2.07-.27,2-.42,3.27-.6a12,12,0,0,1,2.11-.14c.5,0,.79.07,1.11.11l.89.12a19,19,0,0,0,2.67.35h.39a1.57,1.57,0,0,0,.37-.05,3.7,3.7,0,0,0,.62-.21,1.34,1.34,0,0,1,.32-.11c.09,0,.19-.22.14-.61a3.93,3.93,0,0,0-.91-2.22,5.08,5.08,0,0,0-2.29-1.61,5.38,5.38,0,0,0-1.52-.24,3,3,0,0,1-1.92-.64,4.15,4.15,0,0,1-1.09-1.49c-.27-.52-.45-1.07-.69-1.58a6.94,6.94,0,0,0-.83-1.48A2.89,2.89,0,0,0,255.56,201.87Zm0,0a4.55,4.55,0,0,1,2.37,2.36,14,14,0,0,0,.9,1.44,3,3,0,0,0,1.14,1,1.77,1.77,0,0,0,1.34.06,8.25,8.25,0,0,1,1.88-.28,7.53,7.53,0,0,1,3.92,1,7.42,7.42,0,0,1,3,3.22,5.13,5.13,0,0,1,.56,2.74,5.31,5.31,0,0,1-1.2,2.88,6.57,6.57,0,0,1-2.16,1.74,7.88,7.88,0,0,1-1.24.51,7.54,7.54,0,0,1-1.3.27,14.57,14.57,0,0,1-4.11-.21,10.15,10.15,0,0,0-2.67-.25c-1,0-2.23.08-3.54,0a12.82,12.82,0,0,1-2.09-.28,6.33,6.33,0,0,1-2.47-1.09,4.16,4.16,0,0,1-1.09-1.26,4,4,0,0,1-.46-1.47,5.69,5.69,0,0,1,.28-2.35l.18-.48c.06-.16.1-.23.15-.35s.17-.46.25-.71a13.8,13.8,0,0,0,.36-1.59,21.89,21.89,0,0,1,.7-3.48,5.57,5.57,0,0,1,2-2.92A4,4,0,0,1,255.56,201.87Z"/><path d="M247.53,242.35a70.66,70.66,0,0,1-8.29,1.52,25.55,25.55,0,0,0-8,2.34,44.81,44.81,0,0,0-13.16,9.91c-3.58,3.94-5.89,9-5.82,13.74a12.18,12.18,0,0,0,.52,3.35,4.52,4.52,0,0,0,1.34,2.17,2,2,0,0,0,1.51.39c.2,0,.28-.1.29-.13a1.21,1.21,0,0,0,.23-.49c.24-.68.22-2,.47-3.72a24.62,24.62,0,0,1,1.16-4.64,28.34,28.34,0,0,1,4.6-8,24.62,24.62,0,0,1,7-6l1-.56,1.08-.48a16.94,16.94,0,0,1,2.2-.79c.75-.23,1.55-.35,2.29-.5l2.13-.28q4.24-.51,8.51-.7c1.42-.09,2.83-.08,4.19-.23a12.13,12.13,0,0,0,3.94-.92,3.84,3.84,0,0,0,2.41-2.87,4.46,4.46,0,0,0-.1-2,2.75,2.75,0,0,0-1.29-1.48,7.65,7.65,0,0,0-4.09-.44A25.13,25.13,0,0,0,247.53,242.35Zm0,0a26.25,26.25,0,0,1,4.11-.92,8,8,0,0,1,4.2.31,3.23,3.23,0,0,1,1.5,1.55,4.73,4.73,0,0,1,.25,2.17A4.59,4.59,0,0,1,255.1,249c-2.61,1.47-5.6,1.68-8.3,2.21s-5.47,1.15-8.15,1.87l-2,.57c-.61.22-1.19.39-1.76.66a14.55,14.55,0,0,0-1.65.89l-.8.5-.76.57a22.75,22.75,0,0,0-5.13,5.58,27.64,27.64,0,0,0-3.27,6.8,20.53,20.53,0,0,0-.75,3.56,32.33,32.33,0,0,1-.62,4.63A6.94,6.94,0,0,1,220,280a6.42,6.42,0,0,1-3.44,1.67,7.57,7.57,0,0,1-3.4-.26,8.16,8.16,0,0,1-1.55-.67,7.92,7.92,0,0,1-1.37-1,9.93,9.93,0,0,1-2.82-5,16.49,16.49,0,0,1-.36-5,20.6,20.6,0,0,1,3-8.93A27,27,0,0,1,216,254a47.92,47.92,0,0,1,7.17-4.87,56.67,56.67,0,0,1,7.73-3.64C236.3,243.27,242.1,243.88,247.53,242.35Z"/><path d="M294.37,208.22A4.07,4.07,0,0,0,294,210a5.13,5.13,0,0,0,.17,1.77,2,2,0,0,0,1.06,1.08,3.64,3.64,0,0,0,1.49.37,6.85,6.85,0,0,0,2.81-.64,3.71,3.71,0,0,0,1-.56c.1-.07.14-.14.14-.17s0,0,0,0a1.76,1.76,0,0,0,.13-.35l.2-.71c.11-.42.2-.8.27-1.1a2.24,2.24,0,0,0,.06-.81,1.68,1.68,0,0,0-.67-1,6,6,0,0,0-3.18-1.18A3.16,3.16,0,0,0,294.37,208.22Zm0,0a4.91,4.91,0,0,1,3-2.21,12.17,12.17,0,0,1,2-.44,8.76,8.76,0,0,1,2.13-.07,4.75,4.75,0,0,1,2.43.94,4.85,4.85,0,0,1,1.63,2.47,7,7,0,0,1,.24,2.56l-.05.54c0,.17-.05.36-.09.56a6.52,6.52,0,0,1-.45,1.39,5,5,0,0,1-1.07,1.45,5.21,5.21,0,0,1-1.36.89,6.59,6.59,0,0,1-2.51.53,7.61,7.61,0,0,1-4.43-1.31,5.67,5.67,0,0,1-1.6-1.6,3.58,3.58,0,0,1-.71-2,10,10,0,0,1,.34-1.9A6,6,0,0,1,294.37,208.22Z"/><path d="M299.56,219.56a2.63,2.63,0,0,0-1,.54,1.68,1.68,0,0,0-.46,1,5,5,0,0,0,.36,2.21,14.22,14.22,0,0,0,2.13,4,1.91,1.91,0,0,0,1.2.9,12.36,12.36,0,0,0,1.34-.11,11,11,0,0,0,1.81-.27,1.24,1.24,0,0,0,.41-.18,1.16,1.16,0,0,0-.47.41,1.37,1.37,0,0,0-.25.46c.48-2.75,1.19-5.62,1.69-8.63l.08-.56c0-.2,0-.44.12-.26a.64.64,0,0,0,.34.25c.12,0,.1,0,0,0s-.34-.11-.52-.15a11.08,11.08,0,0,0-2.25-.25A15.31,15.31,0,0,0,299.56,219.56Zm0,0c1.47-.46,2.94-.93,4.46-1.37a21.41,21.41,0,0,1,2.36-.57l.63-.1a1.31,1.31,0,0,1,1.33.71,2.28,2.28,0,0,1,.21.57l.1.31.17.58a20.18,20.18,0,0,1,.71,9.8,3.77,3.77,0,0,1-.66,1.53,3.69,3.69,0,0,1-1.39,1.09,6,6,0,0,1-1.8.47,9.61,9.61,0,0,1-2.8-.2,6.17,6.17,0,0,1-3.07-1.3,5.07,5.07,0,0,1-1.5-2.77,30.8,30.8,0,0,1-.52-4.86,8.27,8.27,0,0,1,.13-2.38,2.08,2.08,0,0,1,.61-1A2.56,2.56,0,0,1,299.56,219.56Z"/><path d="M311.49,224.32a5.48,5.48,0,0,0,0,2l.15,2.07c0,.7.08,1.41.1,2.13v1.09a3.76,3.76,0,0,0,0,.93c.1.15.15-.21.11-.31s.1-.13.26-.18.42-.09.68-.14.51-.14.77-.21c.52-.15,1.05-.33,1.59-.52a2.57,2.57,0,0,0,.49-.23,1.59,1.59,0,0,0,.19-.16,10.32,10.32,0,0,0,.93-1.11c.38-.46.65-.83.81-1a.27.27,0,0,1,.2-.11c.06,0,.15-.06.12-.23a2.28,2.28,0,0,0-.33-.69l-.34-.5a4.4,4.4,0,0,1-.29-.51c-.7-1.29-1.13-2.6-2.09-3.36a2.12,2.12,0,0,0-1.81-.16A2.36,2.36,0,0,0,311.49,224.32Zm0,0A3,3,0,0,1,313,223a3,3,0,0,1,2.16-.29,7.26,7.26,0,0,1,2,1.1c.6.42,1.17.86,1.71,1.22l.39.24a3.2,3.2,0,0,1,.4.21,4.89,4.89,0,0,1,1.09.78,3.7,3.7,0,0,1,1,1.6,4.16,4.16,0,0,1,.12,1.9,7.53,7.53,0,0,1-1,2.64,8.6,8.6,0,0,1-1.57,2.1,5.47,5.47,0,0,1-1.48,1,6.38,6.38,0,0,1-1.44.42,10.26,10.26,0,0,1-2.43.14,7.9,7.9,0,0,1-1.26-.16,8.64,8.64,0,0,1-1.34-.39,3.89,3.89,0,0,1-1.54-1.09,2.43,2.43,0,0,1-.52-1.11,2.24,2.24,0,0,1,.06-1.06,6.07,6.07,0,0,1,.51-1c.16-.29.32-.59.46-.9a12.37,12.37,0,0,0,.68-1.91,11.18,11.18,0,0,0,.36-2A8.54,8.54,0,0,1,311.49,224.32Z"/><path d="M392.7,215.74c-2.66,1.21-4.3,3.8-7.09,5.06-1.35.65-2.78,1.09-4.12,1.6a12.36,12.36,0,0,0-3.5,1.87,5.16,5.16,0,0,0-1.73,2.67,2.67,2.67,0,0,0,.5,2.19,5.31,5.31,0,0,0,4.62,2.05,6.67,6.67,0,0,0,4.63-2.8,13,13,0,0,0,.78-1.65,15,15,0,0,1,1.11-2.35,6.43,6.43,0,0,1,2.19-2.15,8.2,8.2,0,0,1,2.55-.92c.82-.15,1.57-.19,2.27-.26a8,8,0,0,0,1.87-.33,3.88,3.88,0,0,0,2.46-2.62,2.06,2.06,0,0,0-.54-1.74,3.29,3.29,0,0,0-1.78-1A7.36,7.36,0,0,0,392.7,215.74Zm0,0a8.58,8.58,0,0,1,4.26-.58A4,4,0,0,1,399,216a2.83,2.83,0,0,1,1,2.13,4.34,4.34,0,0,1-.71,2.33,6.44,6.44,0,0,1-1.68,1.82,33.33,33.33,0,0,1-4.12,1.89,4.14,4.14,0,0,0-1.31,1,2.66,2.66,0,0,0-.57,1.12,36.09,36.09,0,0,1-.9,4.18,10.08,10.08,0,0,1-3.49,4.58,10.31,10.31,0,0,1-5.42,2.12,9.92,9.92,0,0,1-5.78-1.33,9.27,9.27,0,0,1-3.95-4.42,7.25,7.25,0,0,1-.57-3.14l.07-.81a6.66,6.66,0,0,1,.19-.77l.24-.76.36-.67c.13-.23.25-.45.38-.66l.47-.54a5.33,5.33,0,0,1,1-1c.36-.27.69-.55,1.06-.79a8.61,8.61,0,0,1,1.16-.61,15.45,15.45,0,0,1,4.61-1,25.06,25.06,0,0,0,4.23-.63,11,11,0,0,0,3.75-1.94A19.93,19.93,0,0,1,392.7,215.74Z"/><path d="M391.18,234.67a3.37,3.37,0,0,0-1.22,2.14c-.16.8.18,1.67.66,1.83a1.44,1.44,0,0,0,.75.06,2.29,2.29,0,0,0,.73-.26,6.81,6.81,0,0,0,.74-.46c.22-.16.47-.36.74-.6A17.73,17.73,0,0,0,395,236c.2-.22.35-.41.44-.53a.46.46,0,0,0,0-.52,2.39,2.39,0,0,0-1.92-.87A4.06,4.06,0,0,0,391.18,234.67Zm0,0a9.13,9.13,0,0,1,2.37-1,7.25,7.25,0,0,1,1.37-.24,2.83,2.83,0,0,1,1.6.31,2.36,2.36,0,0,1,1.18,1.68,3.61,3.61,0,0,1-.24,1.9,6.36,6.36,0,0,1-1.82,2.5,6.08,6.08,0,0,1-1.34.87,4.92,4.92,0,0,1-1.63.44,3.39,3.39,0,0,1-3.23-1.43,2.47,2.47,0,0,1-.33-1.65,4.05,4.05,0,0,1,.45-1.35A6.07,6.07,0,0,1,391.18,234.67Z"/><path d="M450.79,168.59a9.25,9.25,0,0,0-2,3.92,10.05,10.05,0,0,0-.18,4.24,2.31,2.31,0,0,0,.64,1.39.2.2,0,0,0,.29,0c0-.06.06-.17.1-.21a4.32,4.32,0,0,1,.91-.28,2,2,0,0,0,.36-.1c.11,0,.34-.08.21-.08s-.11.05-.11,0,0,0,0,0a8.35,8.35,0,0,0,.7-.82c.29-.43.62-.92.93-1.47a25.72,25.72,0,0,0,1.81-3.64,11,11,0,0,0,.57-2c.09-.68.11-1.16-.37-1.58a2.57,2.57,0,0,0-2-.38A3.62,3.62,0,0,0,450.79,168.59Zm0,0a5.18,5.18,0,0,1,1.9-1.15,3.74,3.74,0,0,1,2.38-.15,2.46,2.46,0,0,1,1.16.83,4.41,4.41,0,0,1,.37.62l.26.61a15.44,15.44,0,0,1,.65,2.44,15,15,0,0,1,.12,5.05,10.23,10.23,0,0,1-.77,2.62,7.7,7.7,0,0,1-2,2.68c-.29.22-.6.42-.91.61a5.79,5.79,0,0,1-1.13.45,3.59,3.59,0,0,1-.87.16c-.25,0-.47.06-.74.07a6.77,6.77,0,0,1-3.46-.68,4.71,4.71,0,0,1-1.7-1.45,4.34,4.34,0,0,1-.77-1.9,6.22,6.22,0,0,1,.39-3,21.27,21.27,0,0,1,2.41-4.22A37.65,37.65,0,0,1,450.79,168.59Z"/><path d="M514.55,345.09c-2.1-1.77-3.87-3.9-5.81-5.83a18,18,0,0,0-6.64-4.57,12.35,12.35,0,0,0-3.85-.76c-.61,0-1.17.16-1.3.45s-.15.62.07,1.12a7.39,7.39,0,0,0,1.05,1.46c.43.49.9,1,1.41,1.56l2.63,3.18c3.52,4.24,7.05,8.46,10.45,12.78,1.71,2.15,3.38,4.33,5,6.52l1.23,1.66c.45.61.88,1.21,1.26,1.8.77,1.19,1.48,2.31,2.22,3.35a19.22,19.22,0,0,0,2.2,2.74,10.28,10.28,0,0,0,1.14.94,6.19,6.19,0,0,0,1.3.64,31,31,0,0,0,7.15,1.95,11,11,0,0,0,1.57.08c.46,0,.8-.13.75-.07s-.11.15-.09.26,0,.06,0,.06,0,0,0-.09a1.46,1.46,0,0,1,0-.21l-.06-.3c0-.19-.15-.52-.19-.64a3.83,3.83,0,0,0-.78-1.13c-.4-.43-.92-.91-1.39-1.36-1-.92-2-1.82-3-2.74a51.67,51.67,0,0,1-6-5.95,14.89,14.89,0,0,1-1.28-1.75,5.08,5.08,0,0,1-.83-2.23,3.11,3.11,0,0,1,.81-2.3c.49-.57,1-1,1.45-1.5a2.63,2.63,0,0,0,.81-1.59,2.86,2.86,0,0,0-.1-.91c0-.14-.13-.26-.19-.4a3.47,3.47,0,0,0-.3-.37,12.22,12.22,0,0,0-3.38-2.19c-1.23-.59-2.49-1.15-3.75-1.7A17.77,17.77,0,0,1,514.55,345.09Zm0,0a17,17,0,0,0,3.64,1.9c1.26.54,2.55,1,3.81,1.57a13.49,13.49,0,0,1,3.63,2.05c.12.14.26.26.37.41a5.14,5.14,0,0,1,.29.51,3.42,3.42,0,0,1,.22,1.11,3.35,3.35,0,0,1-.8,2.1c-.43.58-.92,1.07-1.26,1.59a1.91,1.91,0,0,0-.37,1.53,6.83,6.83,0,0,0,2.16,2.9,48.14,48.14,0,0,0,6.49,4.79c1.15.74,2.32,1.5,3.48,2.3.59.42,1.15.79,1.77,1.29a7.62,7.62,0,0,1,1.84,2,13,13,0,0,1,.61,1.25l.24.69c.07.25.11.53.16.8a5.77,5.77,0,0,1,0,.94,4.57,4.57,0,0,1-.2,1.07,4.2,4.2,0,0,1-1.3,1.89,6.33,6.33,0,0,1-3.07,1.3,12.52,12.52,0,0,1-2.54.16,25.52,25.52,0,0,1-4.54-.54,31.48,31.48,0,0,1-4.32-1.17,11.93,11.93,0,0,1-2.42-1.1,13.28,13.28,0,0,1-2.09-1.61,23.41,23.41,0,0,1-3-3.61c-.83-1.22-1.57-2.43-2.28-3.55l-1-1.61-1.16-1.71c-1.54-2.27-3.05-4.57-4.53-6.88-3-4.63-5.82-9.35-8.68-14.05l-2.15-3.53a19.14,19.14,0,0,1-2.17-3.76,3.31,3.31,0,0,1-.18-1.37,2.19,2.19,0,0,1,.63-1.38,2.33,2.33,0,0,1,1.29-.68,4.53,4.53,0,0,1,1.21,0,14.51,14.51,0,0,1,4.1,1.26,20.75,20.75,0,0,1,6.48,5.18A66.67,66.67,0,0,0,514.55,345.09Z"/></svg>