<svg id="Layer_1" data-name="Layer 1" xmlns="http://www.w3.org/2000/svg" viewBox="0 0 600 600"><title>Rwanda</title><path d="M142.32,97.46a17.53,17.53,0,0,0,2.25-.65,18.76,18.76,0,0,0,2.13-1,10.33,10.33,0,0,0,3.19-3.39,41.81,41.81,0,0,0,2-4.28,8,8,0,0,1,3.22-3.84,9.58,9.58,0,0,1,5-.9c.81.09,1.66.15,2.44.29l2.34.42c1.55.29,3.12.54,4.67.87l4.64,1A211.37,211.37,0,0,1,210.43,97.9l4.4,1.93,4.33,2.08,2.17,1,2.13,1.12c1.41.75,2.85,1.48,4.26,2.25,5.6,3.15,11.13,6.48,16.45,10.15a172.21,172.21,0,0,1,15.42,11.83c5,4.22,9.52,8.69,14.09,12.67a72.86,72.86,0,0,0,13.92,10,40.59,40.59,0,0,0,7.32,3,49.33,49.33,0,0,0,8,1.62,142.43,142.43,0,0,0,17.72.64c3.13,0,6.36-.06,9.7,0s6.71.22,10.38.64c.91.14,1.83.28,2.77.4s1.89.29,2.84.48a52.83,52.83,0,0,1,5.76,1.46,59.86,59.86,0,0,1,10.77,4.68l1.22.69.75.36c.22.11.5.23.75.34s.51.23.8.34c1.09.47,2.35.93,3.76,1.45a79.17,79.17,0,0,1,10,4.15A39.14,39.14,0,0,1,386,175l.74.56c.26.22.56.48.83.73a21.65,21.65,0,0,1,1.64,1.54c.51.54,1,1.09,1.52,1.65s.91,1.15,1.36,1.73a42.81,42.81,0,0,1,3.87,6.58c.93,1.95,1.62,3.54,2.2,4.68a7.47,7.47,0,0,0,1.37,2.1l.21.14c.06,0,.12,0,.16,0s.21.15.33.25.28.24.45.36a41.41,41.41,0,0,0,5,3.31c2.1,1.23,4.61,2.54,7.48,4.11,1.42.78,3,1.65,4.55,2.63s3.21,2,4.84,3.17a65.32,65.32,0,0,1,10,8.46c.84.92,1.67,1.79,2.5,2.86.41.52.83,1,1.23,1.57l1.2,1.75.58.89.58,1c.38.66.75,1.32,1.11,2s.7,1.49,1,2.24l.48,1.14.44,1.25c.29.85.56,1.69.8,2.55s.42,1.84.6,2.77c.08.47.17.93.24,1.41l.15,1.47c.08,1,.14,2,.16,2.95a46.8,46.8,0,0,1-.92,9.06c-.43,2.23-.72,3.67-.78,4.43s.09.68.18.16c.05-1.09.19,0,.37.34a12.26,12.26,0,0,0,.58,1.26,6.08,6.08,0,0,0,1.38,1.7,31.55,31.55,0,0,0,3.34,2.69c1.7,1.22,3.93,2.71,6.71,4.56,1.38.93,2.89,1.93,4.48,3.12a19.64,19.64,0,0,1,4.37,4.73c2.64,3.89,4.4,9.38,5.72,14.87l1,4.32c.3,1.44.5,2.79.7,4,.37,2.42.68,4.36.84,5.95s.32,2.78.49,3.58a4.25,4.25,0,0,0,.41,1.39,24.52,24.52,0,0,0,2.07,2.68A26.8,26.8,0,0,0,477,314a40.83,40.83,0,0,0,5.4,3.75,28.86,28.86,0,0,0,5.74,2.55,20.51,20.51,0,0,0,3,.7c.49.09,1,.12,1.48.19l1.59.12c4.39.21,9.72-.49,16.22-1.17,3.24-.33,6.76-.67,10.59-.77,1,0,1.95,0,2.95,0l3.4.21c.57,0,1.14.07,1.71.13l1.77.28c1.18.21,2.35.36,3.54.66a43.72,43.72,0,0,1,14.23,6.14,40.85,40.85,0,0,1,11.29,11.29,47.45,47.45,0,0,1,6.27,13.41,58.19,58.19,0,0,1,2.24,13.21c.09,1.09.06,2.12.09,3.19l0,1.58c0,.55,0,1,0,1.46-.07,1.87-.18,3.73-.34,5.57s-.29,3.68-.65,5.51a22.35,22.35,0,0,1-1.85,5.35c-.83,1.74-1.81,3.46-2.67,5.18a42.44,42.44,0,0,0-2.23,5.3,70.72,70.72,0,0,1-5,11,49.08,49.08,0,0,1-8.4,11.07,34.59,34.59,0,0,1-6.4,4.91,31.66,31.66,0,0,1-7.91,3.4l2.6-1a49.43,49.43,0,0,1-9.68,3.41c-2.8.73-5.24,1.23-7.31,1.74l-1.43.36-.64.18-.7.2-3.42,1c-2.29.69-4.57,1.39-6.84,2.13-4.55,1.42-9.06,3-13.59,4.53l-13.52,4.82q-6.75,2.43-13.52,4.8c-4.45,1.68-8.91,3.19-13.37,4.76-2.23.79-4.48,1.48-6.72,2.22s-4.5,1.41-6.77,2.07l-1.78.51-2.12.58-2.07.52-2,.43c-2.68.55-5.22,1-7.64,1.38-4.83.72-9.15,1-13,1.33l-2.83.22c-.92,0-2,.18-3,.28-1.95.26-3.91.48-5.78.83a44.52,44.52,0,0,0-5.47,1.32,37.12,37.12,0,0,0-5.15,2.18,33.4,33.4,0,0,0-4.81,3.26,8.8,8.8,0,0,0-2,2.25c-.27.43-.54.86-.84,1.28l-.44.62a3.82,3.82,0,0,1-.59.54,1.29,1.29,0,0,0-.42.65l-.33.85c-.2.6-.38,1.19-.55,1.81a27,27,0,0,1-1.16,3.63,33.29,33.29,0,0,1-1.76,3.28l-1.9,3.24c-2.59,4.32-5.37,8.66-8.42,13-1.53,2.15-3.13,4.28-4.82,6.38-1.53,1.93-3.07,3.86-4.68,5.81s-3.28,3.9-5,5.85c-.87,1-1.76,1.95-2.67,2.92l-.34.37-.17.18s-.25.24-.38.35c-.63.58-1.15,1-1.69,1.45a30.33,30.33,0,0,1-3.19,2.21,26,26,0,0,1-3.74,1.9,23.06,23.06,0,0,1-5.32,1.51c-.58.08-1.12.15-1.75.2s-1.36.05-2,0a20.11,20.11,0,0,1-4.89-.74c-.45-.12-.88-.25-1.32-.4s-.94-.36-1.4-.57a17.5,17.5,0,0,1-2.66-1.43,19.48,19.48,0,0,1-2.43-1.82,24.79,24.79,0,0,1-2-2.06,22.42,22.42,0,0,1-4.15-7.53,28.42,28.42,0,0,1-1.11-5c-.33-2.63-.32-4.6-.39-5.76a25.54,25.54,0,0,0-.66-3.77,27.45,27.45,0,0,0-5.41-10.26,20.09,20.09,0,0,0-5.27-4.33,74.87,74.87,0,0,0-9-4.26L281.18,482l-.43-.19-.21-.09c-.07,0-.05,0-.08-.05l-.21-.2-.22-.23-.27-.18a3.32,3.32,0,0,0-.61-.38,6,6,0,0,0-.72-.35,12.5,12.5,0,0,0-9.45.35c-.27.15-.56.29-.85.43l-.76.51c-.25.17-.45.36-.7.53a6.71,6.71,0,0,0-.6.59,6.1,6.1,0,0,0-.73.92c-.27.37-.54.79-.8,1.23-1.05,1.78-2.25,4-3.67,6.54-.74,1.29-1.55,2.56-2.6,4.07a24.68,24.68,0,0,1-4.11,4.56,18.6,18.6,0,0,1-6.93,3.88c-.77.21-1.55.4-2.34.55a21.1,21.1,0,0,1-2.54.17c-.43,0-.86,0-1.28,0s-.83-.1-1.25-.17a17.17,17.17,0,0,1-2.42-.55c-.72-.25-1.44-.53-2.15-.83a17.24,17.24,0,0,1-1.82-1l-.87-.53c-.27-.18-.49-.34-.73-.52-.47-.36-.94-.72-1.4-1.1a30.56,30.56,0,0,1-4-4.22,48.86,48.86,0,0,1-4.81-7.66l-.87-1.7-.39-.75-.48-1c-.65-1.33-1.21-2.61-1.74-3.86-1.06-2.5-1.9-4.84-2.77-7s-1.68-4.09-2.52-5.75c-.42-.85-.85-1.59-1.28-2.28-.21-.36-.43-.65-.64-1l-1-1.42c-1.3-1.91-2.63-3.8-4-5.68l-8-11.33c-2.65-3.8-5.31-7.6-7.92-11.46l-2-2.87c-.64-1-1.29-1.94-1.89-3a59.27,59.27,0,0,1-3.27-6.35c-2-4.41-3.58-9.2-5.95-13.39a41.45,41.45,0,0,0-4-5.92c-1.51-1.83-3.19-3.48-4.85-5.24-3.4-3.46-7-7-10.43-11.22a56.19,56.19,0,0,1-4.89-6.9,64.69,64.69,0,0,1-3.88-7.77c-4.27-10.6-6-21.11-7.44-30-.4-2.23-.71-4.34-1.11-6.36-.2-1-.34-2-.56-2.89s-.46-1.8-.57-2.68a14.11,14.11,0,0,1,.41-5.22c.13-.47.19-.88.28-1.34s.19-.93.23-1.36a12.51,12.51,0,0,0,.13-1.36c0-.42,0-.87-.1-1.28a4.52,4.52,0,0,0-.3-1.19,3.9,3.9,0,0,0-.51-1.09,8.18,8.18,0,0,0-.72-.95l-.87-.81a7,7,0,0,0-.92-.78,10.17,10.17,0,0,0-1-.74,21.39,21.39,0,0,0-2.2-1.27c-.39-.2-.75-.4-1.17-.59l-1.44-.61c-1-.41-2-.83-3.1-1.22-2.16-.82-4.51-1.6-7-2.55a71.82,71.82,0,0,1-8-3.61,39.88,39.88,0,0,1-8.31-5.92A43,43,0,0,1,98,290.28c-.89-1.42-1.7-2.85-2.42-4.27s-1.34-2.82-1.91-4.2A76.87,76.87,0,0,1,91,274c-.35-1.25-.73-2.43-1-3.6l-.43-1.7-.21-.83-.1-.4-.1-.28a47,47,0,0,0-3.57-9.68,91.64,91.64,0,0,0-6.39-10.58c-2.52-3.67-5.35-7.5-8.15-11.68a137.35,137.35,0,0,1-8.3-13.58l-.59-1.15c-.19-.35-.39-.71-.61-1.08-.43-.72-.9-1.46-1.42-2.19a43.81,43.81,0,0,0-3.41-4.31l-.47-.52-.23-.25c-.08-.08-.2-.21-.14-.16h0s0,0,0,0a1.55,1.55,0,0,0-.19-.21,18.76,18.76,0,0,0-2.08-1.47l-3.13-2c-1.19-.76-2.48-1.59-4-2.78a24,24,0,0,1-2.6-2.3,17.83,17.83,0,0,1-1.54-1.78c-.28-.37-.54-.74-.79-1.11s-.52-.88-.75-1.33a15,15,0,0,1-1.09-2.69c-.15-.47-.24-.88-.33-1.29s-.16-.84-.23-1.26A22.36,22.36,0,0,1,39,191.5c0-.66,0-1.37.1-2a24.83,24.83,0,0,1,1.4-5.91,42.44,42.44,0,0,1,1.8-4.18l.79-1.57c.2-.41.41-.81.62-1.26.42-.9.84-1.9,1.27-3,.88-2.16,1.79-4.58,3-7.22a40.55,40.55,0,0,1,2.16-4.07,25.72,25.72,0,0,1,3.33-4.42,22.37,22.37,0,0,1,4.59-3.72,19.26,19.26,0,0,1,6-2.36,16.7,16.7,0,0,1,6.79,0,20.37,20.37,0,0,1,5.2,1.9c2.77,1.46,4.62,2.83,5.85,3.46.61.33,1,.5,1.2.6a1,1,0,0,0,.67.14A6.63,6.63,0,0,0,87,155.7a26.57,26.57,0,0,0,1.9-2.44c.68-.94,1.42-2,2.26-3.09a27.05,27.05,0,0,1,3-3.33,14.77,14.77,0,0,1,4.43-3,13.68,13.68,0,0,1,5.13-1,35.64,35.64,0,0,1,3.94.23,10.58,10.58,0,0,0,5.36-.46c3.54-1.26,7.11-4.57,10.77-7.63a17.1,17.1,0,0,0,4.16-4.64,4.32,4.32,0,0,0,.55-2.47,6.24,6.24,0,0,0-1-2.62,14.63,14.63,0,0,0-2.09-2.48,26.26,26.26,0,0,0-2.67-2.17,47,47,0,0,1-5.77-4.41,12.28,12.28,0,0,1-1.23-1.37,13.25,13.25,0,0,1-1.08-1.5,10.81,10.81,0,0,1-1.37-3.42,8.23,8.23,0,0,1,1.69-7,12.26,12.26,0,0,1,1.27-1.33,17.29,17.29,0,0,1,1.48-1.06A14.84,14.84,0,0,1,121,99a24.49,24.49,0,0,1,7.1-1c4.77-.09,9.57.58,14.27-.46Zm0,.09c-4.64,1.31-9.56.79-14.25,1.11a23.48,23.48,0,0,0-6.82,1.28,13.71,13.71,0,0,0-3,1.56c-.47.3-.86.69-1.3,1a10.93,10.93,0,0,0-1,1.22,6.8,6.8,0,0,0-1.15,5.86,9.64,9.64,0,0,0,1.27,2.84,11.75,11.75,0,0,0,1,1.27,11,11,0,0,0,1.11,1.16c3.21,2.87,8.29,4.51,11.48,8.79a9.17,9.17,0,0,1,1.69,3.72,7.41,7.41,0,0,1-.5,4.13,19.22,19.22,0,0,1-4.56,6c-1.75,1.65-3.4,3.31-5.22,4.95a26.25,26.25,0,0,1-6.08,4.24,14.13,14.13,0,0,1-3.64,1.19,19.86,19.86,0,0,1-3.74.22c-2.4-.05-4.71-.18-6.64.75a12.84,12.84,0,0,0-4.73,4.63c-1.3,1.93-2.42,4.05-3.87,6.05a14.89,14.89,0,0,1-5.62,4.89,8.72,8.72,0,0,1-3.78.75,11.45,11.45,0,0,1-3.69-.82c-2.32-.88-4.34-2.18-6.47-3.13a9.86,9.86,0,0,0-6.58-1A11.28,11.28,0,0,0,60.51,164,21.4,21.4,0,0,0,57.09,170c-1.74,4.38-2.83,9.09-4.79,13.48a22.86,22.86,0,0,0-1.92,6.73,5.93,5.93,0,0,0,.58,3.29A7.69,7.69,0,0,0,53.32,196a61.94,61.94,0,0,0,6.14,3.58c1,.58,2.1,1.16,3.1,1.84a19.39,19.39,0,0,1,2.79,2.3,49.83,49.83,0,0,1,9,11.19,120.27,120.27,0,0,0,8,11.85c5.69,7.63,11.87,15,16.51,23.34a55.6,55.6,0,0,1,5.39,13.21c1.18,4.62,2.15,9.3,3.66,13.83a34.76,34.76,0,0,0,6.77,12.49c3.21,3.56,7.36,6.09,11.59,8.25s8.67,4,12.76,6.45a30.1,30.1,0,0,1,10.22,9.82,38.27,38.27,0,0,1,5,13.31,97,97,0,0,1,1.47,14.22c.21,4.77.27,9.54.55,14.3A82.19,82.19,0,0,0,158,370.1a45.75,45.75,0,0,0,2.21,6.8,42.8,42.8,0,0,0,3.35,6.31,96.6,96.6,0,0,0,8.78,11.28c6.3,7.16,12.49,14.42,18.48,21.85s11.79,15,17.33,22.76c2.78,3.88,5.47,7.82,8.11,11.79,1.31,2,2.61,4,3.89,6a42.79,42.79,0,0,1,3.46,6.25c2,4.34,3.39,8.91,5.18,13.34.87,2.21,1.93,4.36,3,6.49a41.81,41.81,0,0,0,3.61,6.17,19.44,19.44,0,0,0,2.35,2.69,9.36,9.36,0,0,0,3,1.85,6.94,6.94,0,0,0,6.63-1.65,19.91,19.91,0,0,0,4.27-5.69c1.15-2.08,2.14-4.26,3.22-6.38a27.21,27.21,0,0,1,3.88-6,24.18,24.18,0,0,1,5.47-4.56,28.18,28.18,0,0,1,13.51-4.21,26.08,26.08,0,0,1,7.1.7c2.32.54,4.65,1.05,7,1.63a59.82,59.82,0,0,1,13.45,4.77,35.88,35.88,0,0,1,11,9,41,41,0,0,1,7,12.41,39.57,39.57,0,0,1,2.23,14.06,28.36,28.36,0,0,0,0,3.57,6.3,6.3,0,0,0,1.12,3.34,3.45,3.45,0,0,0,3.25,1.05,9.88,9.88,0,0,0,3.35-1.19,13.8,13.8,0,0,0,2.88-2.1c.88-.8,1.76-1.61,2.63-2.43q2.6-2.46,5.11-5c3.34-3.41,6.68-6.82,9.75-10.47a243.16,243.16,0,0,0,16.8-23.14,57.87,57.87,0,0,1,9.31-10.81,52.12,52.12,0,0,1,11.87-7.9,78.16,78.16,0,0,1,13.39-5c4.6-1.25,9.3-2.1,14-3,9.43-1.58,18.49-4.68,27.66-7.28l13.73-4,13.81-3.75,27.61-7.5,6.9-1.88c2.3-.62,4.59-1.29,6.93-1.79,4.64-1,9.42-1.74,13.74-3.83h0a18.37,18.37,0,0,0,4.32-1.86,20.79,20.79,0,0,0,3.69-2.92,30.8,30.8,0,0,0,5.42-7.67,66,66,0,0,0,5.64-17.94c.56-3.09,1-6.22,1.23-9.35a78,78,0,0,0,.29-9.42,44.45,44.45,0,0,0-1.38-9.32,31.07,31.07,0,0,0-3.7-8.62,23.6,23.6,0,0,0-6.38-6.86,26.63,26.63,0,0,0-8.48-4c-6.11-1.6-12.5-1.25-18.76-.92s-12.58.82-18.85.08a41,41,0,0,1-17.57-6.42,46,46,0,0,1-13.28-13.23c-3.53-5.35-3.1-12.24-6.63-17.57a32.52,32.52,0,0,0-6.23-7,90.32,90.32,0,0,0-7.49-5.72c-5.12-3.61-10.44-7.16-14.39-12.12a28.64,28.64,0,0,1-4.55-8.24,28.93,28.93,0,0,1-1.75-9.24c0-3.18,1-6.21,1.77-9.26a22.79,22.79,0,0,0,.68-4.65,14.75,14.75,0,0,0-.7-4.62,20.79,20.79,0,0,0-.84-2.2c-.37-.69-.68-1.41-1.12-2.07a29.3,29.3,0,0,0-2.76-3.81,50.37,50.37,0,0,0-6.8-6.5c-4.89-4-10.36-7.13-15.38-10.92a45.17,45.17,0,0,1-7-6.35,22.55,22.55,0,0,1-2.73-3.85,33.13,33.13,0,0,1-1.88-4.33c-1.09-3-2-6-3.75-8.62a21.2,21.2,0,0,0-7-6.22c-5.39-3.24-11.47-5.21-16.64-8.86A44,44,0,0,0,339,167.29c-12.44-2-25.15-1.08-37.57-3.31a61,61,0,0,1-9.14-2.37,48.75,48.75,0,0,1-8.54-4,81,81,0,0,1-14.77-11.7c-4.55-4.34-8.84-9-13.47-13.21a183.8,183.8,0,0,0-14.38-12.2c-5-3.84-10.19-7.37-15.51-10.73-1.34-.82-2.7-1.61-4-2.41l-2-1.21L217.43,105l-4.14-2.26-4.22-2.12c-1.4-.72-2.82-1.38-4.26-2s-2.85-1.32-4.29-1.94c-2.91-1.2-5.79-2.46-8.75-3.52a185.66,185.66,0,0,0-18-5.78l-4.57-1.17c-1.53-.38-3.07-.68-4.6-1l-2.31-.5c-.77-.17-1.55-.24-2.32-.37a8.87,8.87,0,0,0-4.59.65,7.7,7.7,0,0,0-3.11,3.42c-.76,1.37-1.4,2.82-2.29,4.12a11.85,11.85,0,0,1-3.32,3.3,19,19,0,0,1-2.1,1.09,17.42,17.42,0,0,1-2.25.74Z"/></svg>