<svg id="Layer_1" data-name="Layer 1" xmlns="http://www.w3.org/2000/svg" viewBox="0 0 600 600"><title>saintkittsandnevis</title><path d="M529.21,408.53a42.68,42.68,0,0,0-3.87-7.21,31.94,31.94,0,0,0-5.37-6.11,35.68,35.68,0,0,0-6.71-4.58c-1.2-.63-2.44-1.2-3.69-1.76s-2.5-1.11-3.75-1.66a157.25,157.25,0,0,0-31.21-9.87,108,108,0,0,0-16.2-2,50.42,50.42,0,0,0-15.86,1.37,27.46,27.46,0,0,0-12.92,7.77c-3.51,3.66-6.06,8.3-8.47,13.05-1.2,2.39-2.34,4.85-3.48,7.33L416,408.6l-.85,1.89-.42.95-.22.47-.16.42a41.27,41.27,0,0,0-2.2,6.92,59.05,59.05,0,0,0-1,7.38c-.39,5.06-.28,10.31-.2,15.86,0,2.76.05,5.61,0,8.54l-.07,2.21-.14,2.25-.29,4.15c-.69,10.79-1.18,21.39-.49,31.45a87.48,87.48,0,0,0,1.94,14.44c.09.58.23,1.13.36,1.68s.23,1.11.33,1.67c.15,1.14.38,2.19.55,3.28l.23,1.64c.09.53.22,1,.32,1.56a17.46,17.46,0,0,0,.78,3.07c.16.48.34,1,.52,1.45l.27.72c.1.23.24.43.35.65.5.85.9,1.74,1.44,2.6a30.11,30.11,0,0,0,3.86,4.85,37.89,37.89,0,0,0,10.22,7.45,40.29,40.29,0,0,0,12.16,3.78,60.15,60.15,0,0,0,14.28,0c5.14-.47,10.56-1.28,16.29-1.88,2.84-.29,5.82-.52,8.77-.6s5.75,0,8.47,0a82,82,0,0,0,15.25-.84,27.63,27.63,0,0,0,12.7-5.56,34.64,34.64,0,0,0,9.11-11.57,78.45,78.45,0,0,0,5.63-14.84c1.47-5.2,2.74-10.55,3.89-15.91a100.46,100.46,0,0,0,2-16.12c.29-5.41.24-10.84,0-16.27A148,148,0,0,0,538,440.1a142.12,142.12,0,0,0-3.42-16A149.92,149.92,0,0,0,529.21,408.53Zm.2-.08a203,203,0,0,1,10.12,31.36c.28,1.34.61,2.69.86,4l.74,4.08c.42,2.73.82,5.47,1.06,8.23a103.51,103.51,0,0,1,.41,16.61q-.47,8.31-1.71,16.56c-.81,5.43-1.39,10.9-2.31,16.41a93,93,0,0,1-4.15,16.53,44.41,44.41,0,0,1-9.27,15.44,36.12,36.12,0,0,1-7.37,6,41.5,41.5,0,0,1-8.6,3.91A93.64,93.64,0,0,1,491.87,551c-2.75.36-5.41.7-7.94,1.13s-5,1-7.54,1.59c-5.09,1.2-10.4,2.71-16.09,4a79,79,0,0,1-18.49,2.06,52.56,52.56,0,0,1-19.56-4.27,58.84,58.84,0,0,1-23.66-18.65c-1-1.38-1.95-2.91-2.91-4.38-.24-.37-.48-.74-.7-1.11l-.61-1.14L393.14,528c-.89-1.52-1.52-3-2.26-4.58-.35-.77-.73-1.54-1.05-2.31l-.84-2.33a31.87,31.87,0,0,1-1.38-4.71c-.16-.79-.32-1.58-.45-2.38a21.72,21.72,0,0,1-.32-2.37,113,113,0,0,1-.14-18.37,157.14,157.14,0,0,1,2.18-17.38c1-5.66,2.19-11.2,3.48-16.64l.94-4,.43-1.82.39-1.89c.51-2.52.95-5.14,1.38-7.85.88-5.39,1.72-11.1,3.17-16.86a74.22,74.22,0,0,1,2.74-8.62,52.59,52.59,0,0,1,4.16-8.24l.29-.5.29-.42.56-.86,1.12-1.72,2.25-3.46c1.49-2.33,3-4.68,4.6-7S418,389,419.8,386.8c.92-1.11,1.94-2.18,2.89-3.27l1.6-1.53a17.81,17.81,0,0,1,1.64-1.48,32.93,32.93,0,0,1,3.58-2.63l1.88-1.19,2-1a34.29,34.29,0,0,1,8.33-2.62c5.69-1.07,11.37-.67,16.88-.13a142.49,142.49,0,0,1,16.32,2.88,177.51,177.51,0,0,1,31.26,10.49c1.26.57,2.52,1.12,3.75,1.72s2.49,1.18,3.71,1.85a35.59,35.59,0,0,1,6.77,4.79,33.19,33.19,0,0,1,5.28,6.37A48.42,48.42,0,0,1,529.41,408.45Z"/><path d="M421.57,321.61a9.84,9.84,0,0,1-1.19,4.42,13.51,13.51,0,0,1-2.91,3.33,26.66,26.66,0,0,0-2.9,2.8,7.76,7.76,0,0,1-.81.84,4.14,4.14,0,0,1-1.1.62c-.38.14-.73.2-1,.3a1.44,1.44,0,0,0-.6.4,6,6,0,0,0-.8,1.68c-.25.63-.46,1.28-.68,1.93-.44,1.3-.77,2.63-1.21,4a7.32,7.32,0,0,1-2.32,3.56,16.43,16.43,0,0,1-3.64,2.07c-1.26.58-2.56,1.06-3.84,1.58s-2.55,1.05-3.81,1.6a46.41,46.41,0,0,0-7.31,3.87,37.42,37.42,0,0,0-6.32,5.22c-.95,1-1.83,2-2.68,3l-1.24,1.56c-.38.55-.77,1.08-1.17,1.62-.79,1.1-1.58,2.27-2.53,3.4a16.15,16.15,0,0,1-3.45,3.21,9.48,9.48,0,0,1-5,1.61,10,10,0,0,1-5.06-1.31,12.56,12.56,0,0,1-3.8-3.25,13.54,13.54,0,0,1-2.31-4.37,25.5,25.5,0,0,1-.88-9.09c.86-11.44,3.66-22.27,5.05-32.95.34-2.67.58-5.32.68-7.95a57.09,57.09,0,0,0-.25-7.75,42,42,0,0,0-3.92-14.41,25.25,25.25,0,0,0-9.09-10.27,41,41,0,0,0-13.64-5c-5.07-1.07-10.51-1.66-16.17-2.73a55,55,0,0,1-17.47-5.92,31.86,31.86,0,0,1-8-6.34,36.79,36.79,0,0,1-3.06-3.9c-.84-1.23-1.57-2.32-2.23-3.24a12.91,12.91,0,0,0-1.79-2.08,3.65,3.65,0,0,0-1.39-.85c-1-.38-3-.34-5.49.11l-2,.34-2.15.3-4.29.6-2.14.29a19.61,19.61,0,0,1-2.15.23l-4.32.28-4.31.27c-1.44,0-2.87,0-4.31,0-2.88-.05-5.75.07-8.61-.26l-4.29-.36c-1.42-.14-2.86-.19-4.27-.45L225,252.87c-2.8-.61-5.58-1.26-8.36-1.91-1.39-.29-2.74-.8-4.1-1.2l-4.07-1.3c-2.74-.8-5.34-2-8-3-1.32-.52-2.64-1-3.95-1.58l-3.86-1.78-3.87-1.73c-1.3-.55-2.53-1.27-3.8-1.89l-3.78-1.92-1.89-.95-1.84-1.07c-2.42-1.45-4.89-2.83-7.28-4.34l-7-4.75c-2.29-1.66-4.49-3.44-6.74-5.16-.56-.44-1.13-.86-1.67-1.31l-1.61-1.4L150,214.79l-1.6-1.4-.8-.7-.75-.75-3-3-3-3c-1-1-1.89-2.13-2.83-3.2l-2.82-3.22-.71-.8-.59-.67c-.33-.38-.72-.72-1.1-1.08a18.85,18.85,0,0,0-5.87-3.2c-4.57-1.61-9.88-2.34-15.43-3.2-2.78-.44-5.67-.92-8.66-1.65a38.07,38.07,0,0,1-9.34-3.52l-1.19-.69-1-.66c-.68-.44-1.35-.9-2-1.38s-1.3-1-1.91-1.47-1.25-1-1.84-1.54A58.84,58.84,0,0,1,79,172.9a84,84,0,0,1-5.35-7.22,62.1,62.1,0,0,1-4.39-7.41c-2.48-5-4.1-10.66-6.13-16-1-2.69-2.16-5.33-3.17-8-.54-1.34-1-2.74-1.45-4.11s-.84-2.81-1.26-4.2a63.33,63.33,0,0,1-2.47-17.64l0-2.27c0-.75.14-1.51.21-2.27l.26-2.26.44-2.25A21,21,0,0,1,56.21,97l.67-2.19a34.5,34.5,0,0,1,1.59-4.29A50,50,0,0,1,63,82.61c1.75-2.45,3.68-4.69,5.51-7s3.73-4.64,5.72-6.85a47.57,47.57,0,0,1,6.42-6,80.82,80.82,0,0,1,14.76-8.57,124.53,124.53,0,0,1,16.61-6,72.76,72.76,0,0,1,8.84-2,41,41,0,0,1,9.28-.36,55.43,55.43,0,0,1,8.95,1.65c2.85.75,5.49,1.57,8.14,2.35,10.63,3.1,21.56,6.25,32.24,11,5.3,2.35,10.42,5,15.4,7.77s9.75,5.75,14.55,8.75c2.41,1.49,4.72,3.11,7.09,4.66L220,84.32l3.48,2.43c2.3,1.64,4.67,3.21,6.93,4.91S234.91,95.12,237,97a77.73,77.73,0,0,1,6,6,68.76,68.76,0,0,1,5.1,7c.8,1.2,1.64,2.37,2.5,3.51s1.71,2.28,2.63,3.34a31,31,0,0,0,2.91,3c1,.94,2.14,1.82,3.24,2.7a48.17,48.17,0,0,1,6.3,5.62c1.83,2.14,3.61,4.31,5.34,6.54s3.31,4.56,4.93,6.87l2.38,3.49,2.31,3.54c1.51,2.37,3.14,4.64,4.71,7s3.23,4.54,4.93,6.75,3.35,4.44,5.21,6.53,3.7,4.19,5.69,6.21c1,1,2,2,3,3s2,2,3,3c2,2,4,4.08,5.83,6.25s3.51,4.45,5.13,6.77l.3.44a3.39,3.39,0,0,1,.32.5l.78,1.38a22.59,22.59,0,0,1,1.24,2.87,26.76,26.76,0,0,1,1.29,5.66c.2,1.77.28,3.35.31,4.77s.08,2.56.15,3.52a10.42,10.42,0,0,0,.35,2.08,4.46,4.46,0,0,0,.23.65,7.85,7.85,0,0,0,.54.89,47.65,47.65,0,0,0,5,5.2c.29.3.54.54.88.9l1,1.09c.32.35.62.8.93,1.19a14.06,14.06,0,0,1,.88,1.3,18.5,18.5,0,0,1,2.41,5.88,27.44,27.44,0,0,1,.59,5.16c.05,1.44.07,2.62.17,3.68.05.55.13,1,.21,1.53l.16.73c.05.22.08.37.14.57a8.79,8.79,0,0,0,1.14,2.34,27.53,27.53,0,0,0,4.9,5l3.11,2.55,3.19,2.51c8.62,6.62,17.9,12.85,26.57,20.11a106,106,0,0,1,12.2,11.87l2.7,3.32,2.51,3.47c1.55,2.33,2.93,4.43,4.86,5.37s4.87,1,7.78,2.11a27.64,27.64,0,0,1,7.58,4.27,31.43,31.43,0,0,1,6,6.2A14,14,0,0,1,421.57,321.61Zm-2.13-.05a12.43,12.43,0,0,0-2.65-7,24.44,24.44,0,0,0-5.7-5.46,25.25,25.25,0,0,0-7-3.48c-2.33-.76-5.18-.44-8.32-1.67a11.83,11.83,0,0,1-4-2.81c-1.07-1.11-2-2.26-2.81-3.31l-2.63-3-2.79-2.89a99.9,99.9,0,0,0-12.48-10.21c-8.86-6.23-18.51-11.48-28-17.52l-3.56-2.3L336,259.51a38.36,38.36,0,0,1-7.28-6.17,20.69,20.69,0,0,1-3.17-4.7c-.21-.45-.41-.94-.58-1.38l-.46-1.25c-.26-.83-.52-1.69-.7-2.51-.41-1.65-.65-3.23-.89-4.53a14.38,14.38,0,0,0-.76-3,5.08,5.08,0,0,0-1.06-1.6,2.44,2.44,0,0,0-.36-.36,4,4,0,0,0-.42-.37l-1.11-.91a48.2,48.2,0,0,1-7.1-6.13,21.24,21.24,0,0,1-1.89-2.46,20,20,0,0,1-1.6-3.07,22.82,22.82,0,0,1-1.54-6c-.23-1.78-.28-3.38-.35-4.74s-.11-2.53-.22-3.51a15.06,15.06,0,0,0-.47-2.42,8,8,0,0,0-.36-.94c-.07-.15-.14-.3-.2-.45s-.15-.26-.21-.38l-.25-.45c-1.31-2.37-2.55-4.78-3.65-7.29-2.31-4.95-4.2-10.24-6.65-15.2-4.76-10-11.88-18.54-20-26-1-.94-2-1.89-3-2.8l-3.12-2.71-6.16-5.45c-4.06-3.67-8.19-7.2-11.36-11.72a29.53,29.53,0,0,0-5.75-5.8c-1.07-.84-2.19-1.64-3.35-2.39s-2.4-1.41-3.63-2.06l-3.68-2c-1.21-.68-2.4-1.37-3.57-2.09a74.25,74.25,0,0,1-6.56-4.77c-4.31-3.24-8.17-7-12.33-10.48l-3.08-2.64-3.15-2.54c-2.12-1.68-4.18-3.43-6.35-5.05l-6.43-5c-2.15-1.65-4.33-3.23-6.5-4.81-4.35-3.15-8.76-6.12-13.29-8.82-9-5.38-19-9.55-29.31-13.48-5.24-1.94-10.13-4-14.86-4.59a29.87,29.87,0,0,0-14.52,1.72c-4.78,1.8-9.1,4.89-13.34,8.07s-8.69,6.46-13.17,9.27-9.44,4.86-13.55,8.07a28.14,28.14,0,0,0-5.29,5.51,36.47,36.47,0,0,0-3.84,6.42,32.33,32.33,0,0,0-2.71,14.49A46.73,46.73,0,0,0,66.09,123c.51,1.21,1,2.42,1.5,3.61s1.06,2.39,1.68,3.56a56.6,56.6,0,0,0,3.9,6.94c3,4.47,6.91,8.39,10,12.89,1.59,2.23,2.91,4.52,4.27,6.73s2.75,4.33,4.18,6.34a65.6,65.6,0,0,0,4.46,5.67c.38.46.78.87,1.19,1.29s.81.84,1.22,1.23.84.79,1.28,1.16l.64.57.54.45a25.34,25.34,0,0,0,5.75,3.25c2.26,1,4.74,1.84,7.34,2.67,5.17,1.71,10.78,3.15,16.42,5.84a29.41,29.41,0,0,1,8.11,5.52,21.63,21.63,0,0,1,1.73,2l1.33,1.73,2.44,3.18c.82,1.06,1.62,2.14,2.46,3.18l2.68,3,2.71,3,.68.75.73.69,1.47,1.39a117.31,117.31,0,0,0,25.93,19.16l1.75,1,1.81.89,3.63,1.79,1.82.88a16,16,0,0,0,1.85.82l3.77,1.47,3.79,1.42c1.27.44,2.58.77,3.87,1.16,2.6.72,5.14,1.59,7.79,2.07l3.93.87c1.31.27,2.6.63,3.93.8,2.64.43,5.28.86,7.9,1.34l7.95.85c1.32.18,2.66.17,4,.23l4,.15c2.65.18,5.31,0,8-.06,1.32-.05,2.65-.05,4-.13l4-.4,3.95-.4a16.22,16.22,0,0,0,2-.28l1.95-.34,3.9-.69,1.94-.34,2.09-.43a35.46,35.46,0,0,1,4.9-.69,18.31,18.31,0,0,1,6,.57,16,16,0,0,1,3.14,1.26,16.62,16.62,0,0,1,2.69,1.81,24.07,24.07,0,0,1,3.8,4c1,1.28,1.81,2.49,2.55,3.52a23.43,23.43,0,0,0,2.09,2.59,20.44,20.44,0,0,0,5,3.86c3.85,2.15,8.67,3.44,13.8,4.65s10.67,2.22,16.34,3.74,11.59,3.68,16.87,7.52a33.94,33.94,0,0,1,6.92,6.83,36.43,36.43,0,0,1,4.69,8.25c4.69,11.57,4.14,24,1.85,35-1.09,5.57-2.52,11-3.84,16.3a121,121,0,0,0-3.14,15.92,18.65,18.65,0,0,0,.44,7.32,9,9,0,0,0,1.47,3,8.12,8.12,0,0,0,2.39,2.18,5.35,5.35,0,0,0,5.67.07c1.92-1.08,3.58-3.2,5.45-5.28.48-.53,1-1.05,1.5-1.56l1.58-1.46c1.12-.91,2.25-1.78,3.43-2.57a65.14,65.14,0,0,1,7.32-4.17c2.5-1.22,5-2.42,7.52-3.54s5.12-2.11,7.6-3.28a14.34,14.34,0,0,0,3.45-2.16,6.66,6.66,0,0,0,2-3.4c.36-1.31.64-2.67,1-4,.18-.67.35-1.35.56-2a6.9,6.9,0,0,1,.88-2.09,2.68,2.68,0,0,1,1-.82c.39-.17.72-.26,1-.38a2.9,2.9,0,0,0,1.25-1.13,25.42,25.42,0,0,1,2.89-3.12,11.56,11.56,0,0,0,2.39-3A7.88,7.88,0,0,0,419.44,321.56Z"/></svg>