<svg id="Layer_1" data-name="Layer 1" xmlns="http://www.w3.org/2000/svg" viewBox="0 0 600 600"><title>SaudiArabia</title><path d="M117.33,107.79a4.34,4.34,0,0,1,.77-2.16,8.58,8.58,0,0,1,1.6-1.64,26.86,26.86,0,0,1,3.85-2.48,59.4,59.4,0,0,1,8.38-3.86c5.77-2.09,11.68-3.77,17.52-5.53,2.9-.88,5.86-1.75,8.53-2.86.32-.14.64-.28.93-.43L160,88.3a24,24,0,0,1,2.26-1,21.89,21.89,0,0,1,4.86-1.21,22.88,22.88,0,0,1,5-.06,25.74,25.74,0,0,1,4.95,1c3.2,1,6,2.41,8.65,3.31a14.69,14.69,0,0,0,3.73.86c.29,0,.53,0,.79,0l1.28,0a22.9,22.9,0,0,1,2.62.17,29.65,29.65,0,0,1,9.84,3c6,3,10.91,7.19,15.7,10.84,2.38,1.84,4.73,3.58,7.1,5.07,1.19.74,2.38,1.43,3.57,2,1,.46,2.91,1.38,4.36,2.26,6,3.64,10.63,8.07,15.18,12q1.7,1.47,3.35,2.8l3.56,2.77c2.46,1.94,4.88,3.92,7.24,5.86,4.74,3.9,9.33,7.67,14,10.94,2.33,1.65,4.7,3.12,7.07,4.49a64.06,64.06,0,0,0,7.25,3.48c1.22.5,2.45.9,3.71,1.34s2.62.8,3.94,1.15a78.78,78.78,0,0,0,8,1.68,80.41,80.41,0,0,0,16.15.85c.67,0,1.34,0,2-.11l1-.08c.33,0,.71,0,.88-.08.9-.13,2.12-.3,3.54-.56a55.31,55.31,0,0,1,11.15-1.23,25.59,25.59,0,0,1,7.83,1.34c.7.25,1.39.52,2.07.83.35.15.68.33,1,.5l.48.26.37.21c1,.58,2,1.19,2.87,1.81,3.53,2.53,5.91,4.95,7.63,6.28a9.14,9.14,0,0,0,3.79,2,22.6,22.6,0,0,0,2.87.4c1.4.15,3.2.29,5.45.7a24.8,24.8,0,0,1,7.93,2.85,20.42,20.42,0,0,1,4,3c.31.3.61.6.89.91l.42.46.33.4c.43.53.86,1.07,1.25,1.64a27.47,27.47,0,0,1,3.54,6.94,47,47,0,0,1,1.58,5.85c.35,1.63.65,3.08.89,3.95a9.32,9.32,0,0,0,3.54,5.16c.17.14.37.28.54.43l.69.5,1.58,1.1L408.1,210a49.46,49.46,0,0,1,9.24,7.68,37.82,37.82,0,0,1,7,11.5,86.2,86.2,0,0,1,3.18,10.24c.39,1.53.75,2.92,1.11,4.21s.73,2.43,1.14,3.64a62,62,0,0,0,3,7,72.42,72.42,0,0,0,3.84,6.82c.7,1.13,1.46,2.25,2.22,3.36l1.18,1.66.61.83.76,1.06a52.7,52.7,0,0,1,3.16,5.19c.78,1.42,1.4,2.54,1.88,3.28a3.47,3.47,0,0,0,.8,1s-.08-.09-.2-.18-.23-.13-.19-.13l1,.28c.7.2,1.88.51,3.39,1.09a22.5,22.5,0,0,1,4.74,2.52c.39.26.74.54,1.09.81l.52.42.42.36c.56.48,1.06,1,1.53,1.43a40.21,40.21,0,0,1,4.36,5.29c.56.8,1.06,1.56,1.52,2.25l1.38,2.13c3.85,6.11,6.48,11.69,9.28,16a33.7,33.7,0,0,0,4.06,5.27A14.34,14.34,0,0,0,484,318c.33.16.66.32,1,.45l.12.05,0,0s-.06,0,0,0,0,0,.09,0c.23,0,.94.13,1.83.17a70.23,70.23,0,0,0,7.13-.23c2.82-.18,5.85-.49,9.6-.64.94,0,1.95,0,3.05,0l2.77.1c1.67.07,3.36.15,5.09.29a83.09,83.09,0,0,1,22.17,4.35,51.19,51.19,0,0,1,12,6.06,48,48,0,0,1,5.7,4.62,45.52,45.52,0,0,1,5,5.7,47.11,47.11,0,0,1,6.7,13.27l.5,1.69.25.86.22.93a36.73,36.73,0,0,1,.74,3.76,44.82,44.82,0,0,1,.46,7.56,51.22,51.22,0,0,1-2.28,14,20.93,20.93,0,0,1-2.69,6,30.93,30.93,0,0,1-4.14,4.79L560,390a11.86,11.86,0,0,0-2.2,2.47,12.12,12.12,0,0,0-1.42,3.25c-.31,1.22-.68,2.5-1.08,3.88s-.81,2.86-1.32,4.45a46.81,46.81,0,0,1-4.89,10.68,39,39,0,0,1-9.84,10.46,65.43,65.43,0,0,1-10.54,6c-3,1.4-5.53,2.42-7.44,3.23-.46.2-.91.39-1.27.57l-.52.24-.23.11-.43.16-1.72.66-1.74.59a72.65,72.65,0,0,1-7.07,2,244,244,0,0,1-29,5.29c-9.85,1.16-19.8,1.95-29.68,3-4.95.51-9.84,1.18-14.73,1.93-2.45.39-4.88.84-7.32,1.27s-4.85,1-7.25,1.51l-1.15.26-1.26.25c-.82.15-1.63.27-2.37.36-1.51.19-2.83.27-4,.43s-2.17.26-3,.4c-.38.07-.87.2-1.34.32s-.93.25-1.4.39a30,30,0,0,0-10.22,5.51c-.74.63-1.46,1.28-2.15,1.95s-1.32,1.39-1.94,2.12-1.21,1.46-1.77,2.21c-.27.38-.56.77-.8,1.14l-.68,1.09c-1.78,3-3.41,6.57-5.39,10.62a101.13,101.13,0,0,1-7.6,13.38L373.89,494c-.37.52-.74,1-1.14,1.55l-2.39,3.1c-1.62,2.07-3.31,4.16-5.09,6.25S361.59,509,359.6,511l-2.66,2.65c-.84.85-1.78,1.76-2.8,2.74a66.69,66.69,0,0,1-7.48,6.36l-.58.41-.69.47c-.49.32-1,.65-1.59,1a26.52,26.52,0,0,1-4.53,2.12,21.52,21.52,0,0,1-3.64,1,19.62,19.62,0,0,1-5.32.17,18.35,18.35,0,0,1-11.73-6,20,20,0,0,1-4.08-7,25.57,25.57,0,0,1-1.06-4.38,38.25,38.25,0,0,1-.38-5.75c0-1.57.07-2.93.12-4.06l.08-1.43c0-.23,0-.17,0-.22l0-.07c.12-.16.29-.25.14-.77a6.46,6.46,0,0,0-1.61-2.3,22.57,22.57,0,0,0-3.81-3c-.77-.5-1.61-1-2.49-1.48s-1.85-1-2.67-1.39c-3.5-1.75-8-3.29-13-5.29l-.95-.39c-.07,0-.26-.09.1,0a5.17,5.17,0,0,0,.68.16c.24.05.1,0,.17,0h.06a7.61,7.61,0,0,0-1.18-.28l-3.58-.6c-2.55-.43-5.17-.88-8.12-1.59a40.52,40.52,0,0,1-9.34-3.39c-1.33-.71-2.11-1.13-2.35-1.27s-.08-.09,0-.12a1.9,1.9,0,0,0-.36-.12,2.71,2.71,0,0,0-.72-.1,1.51,1.51,0,0,0-.61.09,2.26,2.26,0,0,0-.75.44,3.51,3.51,0,0,0-.34.33c-.1.1-.21.28-.23.25s-.14,0-.19.48a11.5,11.5,0,0,0,.05,2.37c.08,1.11.24,2.58.29,4.21a28.28,28.28,0,0,1-.28,5.44,19.19,19.19,0,0,1-2.24,6.46,16.78,16.78,0,0,1-1.14,1.69,13.82,13.82,0,0,1-1.47,1.65A15,15,0,0,1,254,503a15.4,15.4,0,0,1-4,1.46,13.34,13.34,0,0,1-9.89-1.55,13,13,0,0,1-3.82-3.56,21.18,21.18,0,0,1-2.87-6l-.64-1.86-.64-1.74a55.78,55.78,0,0,0-2.79-6.26c-.49-.94-1-1.81-1.53-2.62l-.79-1.17c-.27-.42-.56-.83-.85-1.23q-1.76-2.4-3.53-4.49c-1.18-1.38-2.36-2.65-3.52-3.79-1.43-1.41-3-2.85-4.78-4.35L208.83,461c-1-.88-2-1.76-3-2.76l-1.61-1.63-1.56-1.7a53.4,53.4,0,0,1-5.59-7.57,60.61,60.61,0,0,1-4.13-8.09c-1.14-2.67-2.07-5.26-2.91-7.73l-1.2-3.61c-.37-1.11-.72-2.16-1.08-3.17a35,35,0,0,0-4.68-9.5,9.94,9.94,0,0,0-2.38-2.46,25.17,25.17,0,0,0-4.87-2.6c-2.06-.9-4.53-1.82-7.27-3-.71-.31-1.39-.6-2.13-1l-1.11-.51-1.14-.59a43.7,43.7,0,0,1-4.45-2.75,39.49,39.49,0,0,1-7.65-7.17,49.15,49.15,0,0,1-5.51-8.43A57.94,57.94,0,0,1,143,378a88.08,88.08,0,0,1-2.37-8.7c-.61-2.87-1.09-5.72-1.46-8.54-.19-1.4-.34-2.82-.49-4.19l-.4-3.78c-.46-4.95-1-9.52-1.64-13.53a50.07,50.07,0,0,0-2.45-9.95,21.08,21.08,0,0,0-1.54-3.15c-.27-.44-.54-.82-.8-1.22s-.57-.71-.89-1.08a40,40,0,0,0-6.75-5.8c-3.22-2.4-7.31-5.1-11.83-8.59a68.32,68.32,0,0,1-13.45-13.33,43.22,43.22,0,0,1-5.33-9.06,33.09,33.09,0,0,1-2.89-16.29c.12-1.67.38-3.14.57-4.45a53.46,53.46,0,0,0,.82-6,10.79,10.79,0,0,0-.58-4,19.81,19.81,0,0,0-2.39-4.65c-2.22-3.3-5.47-6.77-8.84-10.67a78.13,78.13,0,0,1-5-6.39A49.19,49.19,0,0,1,71,227.26c-2.29-4.87-3.8-9.46-5.81-13.31-.24-.47-.53-1-.73-1.38a7.56,7.56,0,0,0-.54-.86A10.32,10.32,0,0,0,62.21,210a57.82,57.82,0,0,0-5.6-3.77,28.83,28.83,0,0,1-6.86-5.66,16.27,16.27,0,0,1-2.63-4.41A18.75,18.75,0,0,1,46,191.48a38.11,38.11,0,0,1,0-8.27,49.53,49.53,0,0,1,1.4-7.84,31.81,31.81,0,0,1,3-7.78,15.69,15.69,0,0,1,3-3.7,11.52,11.52,0,0,1,4.46-2.52,12.86,12.86,0,0,1,4.83-.4,21.37,21.37,0,0,1,4.2.88A63.21,63.21,0,0,1,74,164.72c2.24,1,4.41,2,6.59,2.83a21,21,0,0,0,6.29,1.62,6.28,6.28,0,0,0,2.7-.52,5.27,5.27,0,0,0,2.15-1.51c1.16-1.32,1.6-3.57,2-6a29.39,29.39,0,0,1,.93-3.79,11.83,11.83,0,0,1,1.94-3.72,14.16,14.16,0,0,1,6.58-4.71,13.62,13.62,0,0,1,4-.76,25.55,25.55,0,0,1,3.86.21c2.46.29,4.77.66,7,.18a6.72,6.72,0,0,0,2.93-1.29,6.08,6.08,0,0,0,1.82-2.64,32.1,32.1,0,0,0,1-3.43,12.34,12.34,0,0,1,1.46-3.56,5.33,5.33,0,0,1,1.43-1.45,5,5,0,0,1,1.88-.74c1.3-.24,2.52-.13,3.65-.37a4,4,0,0,0,2.81-1.71,4.21,4.21,0,0,0-.09-3.35,18.33,18.33,0,0,0-4.11-5.93,43.51,43.51,0,0,0-5.75-4.52,23.56,23.56,0,0,1-5.42-4.93,10,10,0,0,1-2.24-6.84Zm.09,0a7.84,7.84,0,0,0,.67,3.55,12,12,0,0,0,1.87,3.06,22.69,22.69,0,0,0,5.55,4.56,40.25,40.25,0,0,1,6.11,4.32,25.77,25.77,0,0,1,2.61,2.81,13.38,13.38,0,0,1,2.05,3.39,7.76,7.76,0,0,1,.55,2.12,4.27,4.27,0,0,1-2.16,4.29,7.87,7.87,0,0,1-2.06.81c-1.44.33-2.7.25-3.66.46a3.14,3.14,0,0,0-2.13,1.46,10.83,10.83,0,0,0-1.13,3,38,38,0,0,1-1,3.66,8.17,8.17,0,0,1-2.35,3.55,8.91,8.91,0,0,1-3.79,1.83,14.94,14.94,0,0,1-4,.35c-1.29-.05-2.53-.19-3.72-.3a14.23,14.23,0,0,0-6.73.56,11.6,11.6,0,0,0-5.27,3.94c-1.32,1.72-1.81,4-2.2,6.37-.21,1.2-.4,2.44-.74,3.7A10.15,10.15,0,0,1,94.16,169a8.28,8.28,0,0,1-3.27,2.53,9.68,9.68,0,0,1-4,.91,23.2,23.2,0,0,1-7.47-1.62c-2.36-.81-4.63-1.79-6.88-2.74a61.08,61.08,0,0,0-6.77-2.54A12.17,12.17,0,0,0,59,165.2a8.87,8.87,0,0,0-4.94,4.41,26.41,26.41,0,0,0-2.4,6.71,45.45,45.45,0,0,0-1,7.16,33.39,33.39,0,0,0,.21,7.21,14.55,14.55,0,0,0,.9,3.43,11.16,11.16,0,0,0,1.87,3,22.72,22.72,0,0,0,5.71,4.35,66.88,66.88,0,0,1,6.28,3.85,16.81,16.81,0,0,1,2.75,2.51,18.52,18.52,0,0,1,2.07,3.09c2.43,4.27,4.28,8.81,6.58,13.13a44,44,0,0,0,3.92,6.16,66.35,66.35,0,0,0,4.82,5.52c3.37,3.53,7,6.89,10,10.75a30.19,30.19,0,0,1,3.83,6.26,19.79,19.79,0,0,1,1.73,7.09c.26,4.89-1.08,9.78-.21,14.65a24.07,24.07,0,0,0,7,12.63,51.48,51.48,0,0,0,11.82,8.63c4.29,2.34,8.73,4.41,13,6.81a46.3,46.3,0,0,1,11.71,8.75A32.46,32.46,0,0,1,151.7,324a60,60,0,0,1,2.23,14.47c.23,4.89.1,9.79,0,14.68a104,104,0,0,0,.41,14.66,50.74,50.74,0,0,0,3.48,14.2,27.06,27.06,0,0,0,15,15.28c2.25,1,4.56,1.76,6.85,2.63a44.08,44.08,0,0,1,6.69,3,20.66,20.66,0,0,1,5.62,4.66,43.9,43.9,0,0,1,7.06,12.78c1.74,4.58,3.22,9.25,5.27,13.7a47.2,47.2,0,0,0,7.9,12.31c3.28,3.63,7.08,6.75,10.68,10.06,1.81,1.64,3.59,3.32,5.28,5.09a42.7,42.7,0,0,1,4.57,5.73,51.73,51.73,0,0,1,6.27,13.22c.73,2.33,1.34,4.71,1.93,7.08l.91,3.55a10.53,10.53,0,0,0,1.38,3.38,4.31,4.31,0,0,0,3,1.86,5.91,5.91,0,0,0,3.53-.77,6.5,6.5,0,0,0,2.57-2.55,10.09,10.09,0,0,0,1.12-3.47,27.16,27.16,0,0,0-.28-7.31,14.71,14.71,0,0,1,.4-7.25,12.52,12.52,0,0,1,4.51-5.66,11.82,11.82,0,0,1,6.91-2.07,11.07,11.07,0,0,1,3.61.6c1.16.4,2.25.95,3.36,1.46a29.52,29.52,0,0,0,7,2.14c2.41.44,4.85.71,7.28,1l3.65.36c.61.07,1.22.14,1.82.23a10.12,10.12,0,0,1,1.77.49c4.65,1.51,9.4,2.71,14,4.46a52.19,52.19,0,0,1,12.93,6.84,23.22,23.22,0,0,1,5.09,5.24,16.19,16.19,0,0,1,2.7,6.76c.34,2.43.18,4.89.32,7.33a28,28,0,0,0,.37,3.65,6.87,6.87,0,0,0,1.35,3.35,2.45,2.45,0,0,0,1.6.82,4.07,4.07,0,0,0,1.79-.3,12.69,12.69,0,0,0,3.15-1.86,48.62,48.62,0,0,0,5.43-4.92l5.06-5.32q2.51-2.69,4.84-5.52c3.11-3.77,6.05-7.69,8.89-11.67s5.29-8.23,7.93-12.36a76.12,76.12,0,0,1,8.83-11.69,55.24,55.24,0,0,1,25-14.74c1.18-.33,2.37-.6,3.57-.85s2.42-.4,3.63-.56a47.63,47.63,0,0,0,7.21-1.32l28.22-8.11,56.42-16.23,7.06-2c2.35-.67,4.69-1.39,7.07-1.95,4.74-1.15,9.64-2,14-4.29a19.1,19.1,0,0,0,5.62-4.65,28.11,28.11,0,0,0,3.81-6.25c2-4.45,3.43-9.16,5.32-13.67h0A39,39,0,0,0,550,366.28a27.63,27.63,0,0,0-1.21-9,28.82,28.82,0,0,0-3.93-8.22c-3.49-5.06-8.79-8.6-14.43-10.86A70.76,70.76,0,0,0,512.63,334c-1.52-.2-3-.35-4.55-.49s-3.05-.26-4.57-.27c-3.06,0-6.11.11-9.16.16a68.21,68.21,0,0,1-9.15-.32,25.47,25.47,0,0,1-4.48-.93,19.81,19.81,0,0,1-4.13-2c-5.26-3.19-9.17-8.14-12.28-13.36s-5.7-10.8-8.9-16a43.9,43.9,0,0,0-5.35-7.41,10.23,10.23,0,0,0-3.73-2.57c-1.42-.56-2.93-.84-4.35-1.41a11.53,11.53,0,0,1-3.84-2.46,18.22,18.22,0,0,1-2.82-3.6c-1.6-2.6-2.82-5.43-4.55-7.94a99,99,0,0,1-9.47-15.66,76.14,76.14,0,0,1-3.44-8.49c-1-2.89-1.7-5.86-2.43-8.83a72.28,72.28,0,0,0-2.59-8.77,25.41,25.41,0,0,0-4.61-7.84c-4.1-4.58-9.75-7.29-14.45-11.19a21.93,21.93,0,0,1-5.69-7.11,33.53,33.53,0,0,1-2.52-8.79,21.67,21.67,0,0,0-3.16-8.5,10.15,10.15,0,0,0-3.26-3.13,13.27,13.27,0,0,0-4.28-1.52c-3-.59-6.08-.59-9.05-1.38a20.3,20.3,0,0,1-4.24-1.73,25,25,0,0,1-3.76-2.62c-2.36-1.94-4.5-4.14-7-5.92a16.66,16.66,0,0,0-4-2.2,14.84,14.84,0,0,0-4.48-.77,48.86,48.86,0,0,0-9.09.95c-1.5.24-3,.47-4.54.57s-3.06.12-4.58.13a87.67,87.67,0,0,1-18.2-1.9A83.06,83.06,0,0,1,288.58,165a74.42,74.42,0,0,1-8-4.4c-2.56-1.67-5.06-3.42-7.46-5.31-4.82-3.76-9.34-7.88-13.87-12-2.26-2-4.53-4.09-6.84-6.09l-3.47-3c-1.14-1-2.26-2.05-3.37-3.1-4.42-4.2-8.71-8.6-13.81-12-1.27-.84-2.62-1.54-4-2.28s-2.61-1.59-3.86-2.47c-2.5-1.76-4.85-3.7-7.18-5.68-4.65-3.94-9.19-8.1-14.53-11.09a26,26,0,0,0-8.56-3.06,19.2,19.2,0,0,0-2.27-.24c-.75,0-1.52,0-2.29-.12a18.74,18.74,0,0,1-4.4-1.25c-2.84-1.14-5.52-2.64-8.4-3.66a22.7,22.7,0,0,0-9-1.13,19.4,19.4,0,0,0-4.45.95c-.73.23-1.44.51-2.14.81s-1.38.65-2.1.92c-2.87,1-5.84,1.8-8.79,2.58-5.9,1.55-11.83,3-17.64,4.89a66.32,66.32,0,0,0-8.54,3.29,19.35,19.35,0,0,0-3.89,2.39,7.94,7.94,0,0,0-1.54,1.68,4.18,4.18,0,0,0-.67,2.12Z"/></svg>