<svg id="Layer_1" data-name="Layer 1" xmlns="http://www.w3.org/2000/svg" viewBox="0 0 600 600"><title>SierraLeone</title><path d="M182,70.51a30.9,30.9,0,0,1,7.89-5,42.5,42.5,0,0,1,9-2.72c6.15-1.22,12.43-1.46,18.6-1.8,12.56-.7,25.05,1,37.27,1.54,1.53.07,3.05.14,4.57.17a19.75,19.75,0,0,0,4.1-.22,5.91,5.91,0,0,0,2.88-1.25,5.19,5.19,0,0,0,1.46-2.59c.36-1.21.58-2.68.91-4.29a17.65,17.65,0,0,1,1.81-5.32c.3-.45.6-.91.93-1.35s.75-.83,1.16-1.22.88-.69,1.34-1,.89-.49,1.35-.73a23,23,0,0,1,5.28-1.67,64.08,64.08,0,0,1,9.92-1c3.21-.11,6.38-.17,9.41-.43a40.65,40.65,0,0,0,4.25-.6l4.62-.9c3.08-.6,6.17-1.15,9.26-1.54s6.18-.63,9.27-.84l9.28-.63q9.29-.59,18.57-1l9.28-.4,4.65-.21c1.52-.06,3.12-.14,4.87-.17a39.43,39.43,0,0,1,12,1.34,24.78,24.78,0,0,1,6.82,3.17,23.11,23.11,0,0,1,3.07,2.43A28.27,28.27,0,0,1,398.27,45a68.76,68.76,0,0,1,5.79,9.13,33.43,33.43,0,0,0,2.05,3.07A34.37,34.37,0,0,0,408.43,60a35.27,35.27,0,0,0,5.49,4.92c1,.74,2,1.42,3.11,2.07l2.1,1.29c.8.54,1.6,1,2.41,1.65a42.68,42.68,0,0,1,4.83,4,38.69,38.69,0,0,1,4.23,4.89,84.79,84.79,0,0,1,5.85,9.41c3.12,5.48,6.23,10.8,9.24,16.26s5.76,11,8.25,16.66c1.28,2.9,2.29,5.41,3.16,7.33.41,1,.82,1.81,1.15,2.57a19.46,19.46,0,0,0,1.39,2.48,77.16,77.16,0,0,0,5.22,6.67c1.08,1.28,2.23,2.65,3.38,4.12.57.72,1.15,1.5,1.71,2.3l.84,1.22.9,1.36a34.3,34.3,0,0,1,2.73,5.63,29.43,29.43,0,0,1,1.62,6,23,23,0,0,1,.12,6.54,16.29,16.29,0,0,1-2.3,6.62,18.89,18.89,0,0,1-2.14,2.76c-.75.76-1.44,1.38-2,1.91a6.51,6.51,0,0,0-2,2.27,2,2,0,0,0,0,1.56,6.47,6.47,0,0,0,1.24,1.94,12.4,12.4,0,0,0,2.29,1.89,13.46,13.46,0,0,0,2.84,1.27l.7.2.68.12c.56.12,1.2.3,1.88.41,1.34.26,2.79.53,4.41.77s3.41.55,5.35,1a36,36,0,0,1,6.45,2,28.48,28.48,0,0,1,7.23,4.46c.59.51,1.21,1,1.75,1.58s1.06,1.09,1.58,1.66a29.69,29.69,0,0,1,2.95,3.9c.46.71.85,1.48,1.25,2.24a23,23,0,0,1,1.09,2.32q.47,1.16.9,2.34c.25.77.45,1.46.66,2.2l.3,1.11.25,1c.16.64.3,1.28.43,1.93l.66,3.19c.17.89.34,1.86.52,2.52.1.37.17.73.24,1.1l.24.9c.08.29.15.62.24.87l.23.75c.14.52.29.94.43,1.37a46.43,46.43,0,0,1,1.38,4.81,11.54,11.54,0,0,1,.23,1.33c0,.22,0,.47.05.69a5.62,5.62,0,0,1,0,.58c0,.2,0,.41,0,.61s0,.43,0,.65,0,.45-.06.69l0,.73a35.26,35.26,0,0,0,.29,8c.11.82.33,1.9.54,2.9l.92,4a39.18,39.18,0,0,1,1,6.38,20.29,20.29,0,0,1,0,2.32c-.05.84-.14,1.63-.27,2.47a23,23,0,0,1-.68,2.72,14,14,0,0,1-1,2.53,19.52,19.52,0,0,1-3,4.38,19.11,19.11,0,0,1-2.23,2.07c-.41.31-.83.61-1.26.89s-.78.46-1.18.68a12,12,0,0,1-1.09.54l-1,.39c-.32.13-.5.17-.76.26l-.7.21-1,.23-.73.13c-.81.12-1.35.18-1.89.28s-1.07.2-1.6.36-1.09.31-1.65.52l-.84.34-.43.17-.52.24a33.76,33.76,0,0,0-3.43,1.77,4.6,4.6,0,0,0-1.41,1.22,9.75,9.75,0,0,0-.64,1.35,5.72,5.72,0,0,0-.37,2.91c0,.21.11.32.11.48s.15.33.15.5a6.37,6.37,0,0,1,.23.61c.15.23.21.45.35.7a11.65,11.65,0,0,0,2.5,3,10.33,10.33,0,0,0,3.45,2,6.78,6.78,0,0,0,.76.21c.24.06.44,0,.65.09a2,2,0,0,1,.48,0,1.42,1.42,0,0,1,.29,0,1.4,1.4,0,0,1,.28-.06,6.2,6.2,0,0,0,4-3c.51-.71,1.51-2.14,2.56-3.54a59.93,59.93,0,0,1,3.84-4.72,38.12,38.12,0,0,1,5.93-5.37,28.55,28.55,0,0,1,4.65-2.75,25.37,25.37,0,0,1,6.55-2.06,24.43,24.43,0,0,1,8.05,0,25.19,25.19,0,0,1,7.24,2.45c.56.27,1,.54,1.47.82s.95.58,1.37.87l1.2.88c.41.3.79.61,1.11.89a25.33,25.33,0,0,1,2.08,1.93c.36.38.72.77,1.07,1.16l.52.59c.17.21.36.47.54.71.37.48.72,1,1.06,1.48l.5.77c.17.28.33.58.5.88a23.08,23.08,0,0,1,1.69,3.83c.24.7.45,1.4.64,2.11s.29,1.44.4,2.17a23.26,23.26,0,0,1,.26,4.29,19.72,19.72,0,0,1-.15,2c-.07.64-.16,1.28-.27,1.9s-.24,1.11-.37,1.66-.29,1.14-.44,1.57a27.88,27.88,0,0,1-1,2.68l-.52,1.19c-.17.38-.34.69-.51,1a60.83,60.83,0,0,1-3.57,5.92l-.63.94a3.54,3.54,0,0,1-.16.34c0,.1-.12.21-.18.31a1.43,1.43,0,0,1-.09.27c0,.09-.09.17-.1.25a1.55,1.55,0,0,1,0,.23c-.08.14-.05.33-.11.48a3.57,3.57,0,0,1-.1.6,3,3,0,0,1,0,.42,4.47,4.47,0,0,0,0,.48c-.11,1.44,0,3.9,0,7.66v1.42c0,.47,0,1,0,1.54s0,1-.07,1.58-.09,1.13-.15,1.69a14,14,0,0,1-.23,1.73c-.1.59-.21,1.18-.34,1.77a33.68,33.68,0,0,1-1.05,3.57,37.58,37.58,0,0,1-1.9,4.27c-.41.73-.84,1.45-1.28,2.15a20.38,20.38,0,0,1-1.45,2.06,28.56,28.56,0,0,1-3.47,3.82,29.81,29.81,0,0,1-3.92,3.16,23.15,23.15,0,0,1-2,1.26c-.67.38-1.35.81-2,1.12a33.48,33.48,0,0,1-3.89,1.61c-.62.2-1.26.41-1.87.59l-1.77.42c-1.21.29-2.26.39-3.37.56a68.61,68.61,0,0,1-11.16.18,60.18,60.18,0,0,0-8.7.1c-2.5.27-4.56.89-5.59,1.75a1.05,1.05,0,0,0-.31.33,3.49,3.49,0,0,0-.25.32l-.11.32-.05.14v.16a1.45,1.45,0,0,1,0,.29c0,.1.07.21.09.29a4.52,4.52,0,0,0,.21.57l.12.34a2.56,2.56,0,0,1,.1.34,5.55,5.55,0,0,1,.22.87c.16.71.27,1.4.41,2.32.22,1.79.66,4.13,1.27,7.09a82.51,82.51,0,0,1,1.62,10.91,53,53,0,0,1-.72,13.24,55.49,55.49,0,0,1-4,12.81,68.41,68.41,0,0,1-6.3,11c-1.16,1.68-2.36,3.27-3.58,4.8-.61.78-1.23,1.48-1.85,2.23l-1.63,1.93c-2.11,2.43-4.27,4.83-6.43,7.24a263.6,263.6,0,0,1-28.13,26.57,123.59,123.59,0,0,1-15.7,11.35,120.36,120.36,0,0,1-17.8,8.31l-9.05,3.48c-2.92,1.13-5.75,2.25-8.4,3.52l-4,1.87a25.89,25.89,0,0,0-3.76,2,22,22,0,0,0-5.5,5.82,34.41,34.41,0,0,0-1.9,3.29c-.28.54-.5,1.11-.77,1.64s-.5,1.08-.74,1.6c-.52,1-.89,2.08-1.34,3.08s-.71,2-1,3.11c-.56,2.19-1,4.91-1.64,8.11a65,65,0,0,1-3,11l-.3.76-.37.85c-.25.56-.5,1.14-.79,1.68-.55,1.11-1.17,2.17-1.83,3.23a34.94,34.94,0,0,1-4.79,6,31,31,0,0,1-6.8,5.16,26.08,26.08,0,0,1-19.95,2.38,35.47,35.47,0,0,1-7.68-3.25c-2-1.13-3.59-2.17-4.85-2.94L320,550.08c-20.07-11.93-41.94-20.91-64.42-28.85l-4.24-1.35c-1.38-.44-2.74-.94-4.13-1.4a76.92,76.92,0,0,1-8.14-3.52,42.17,42.17,0,0,1-7.91-4.83c-1.27-1-2.51-2.12-3.75-3.29l-3.7-3.6a44.53,44.53,0,0,0-7.75-6.33,37.89,37.89,0,0,0-4.19-2.28l-1.06-.52c-.4-.19-.47-.28-.81-.42-.56-.27-1.23-.55-1.92-.83-2.79-1.08-5.85-2.1-8.93-3.13l-4.7-1.57c-1.6-.55-3.2-1.18-4.88-1.85a33.68,33.68,0,0,1-5.26-2.69,17.77,17.77,0,0,1-3-2.37,13.76,13.76,0,0,1-1.55-1.92,10.31,10.31,0,0,1-.71-1.25l-.32-.68-.2-.52a18.32,18.32,0,0,1-.93-7.48c.07-1,.18-2,.29-2.81l.34-2.42,1.35-9.17c.43-3,.67-5.9.83-8.75a54.63,54.63,0,0,0-.21-8.25A27.37,27.37,0,0,0,178.5,431a12.52,12.52,0,0,0-2.93-4.64,11,11,0,0,0-3.93-2.36l-.86-.48a21.5,21.5,0,0,0-5.25-1.42c-2.1-.36-4.6-.51-7.38-.78A75.74,75.74,0,0,1,138.7,417a70.11,70.11,0,0,1-18.23-10.13c-.71-.5-1.38-1.09-2-1.67l-2-1.73c-1.3-1.2-2.53-2.5-3.78-3.76-1.13-1.41-2.3-2.77-3.36-4.23l-1.53-2.25a23.71,23.71,0,0,1-1.44-2.32,49,49,0,0,1-6.56-21c-.54-7.54.9-13.6,1.22-18.48.09-1.22.13-2.37.11-3.46a16.75,16.75,0,0,0-.27-2.76,14.13,14.13,0,0,0-.91-2.53,8.72,8.72,0,0,0-1.41-2.08A4.55,4.55,0,0,0,97,339.37a1.93,1.93,0,0,0-1.13-.28c-.08,0-.16,0-.24,0h-.12l-.16.06c-.12.05-.2,0-.34.1l-.44.19A14.38,14.38,0,0,0,92.11,341l-.75.54-.78.63c-.56.44-1.11.88-1.74,1.42s-1.34,1-2,1.61-1.55,1.15-2.57,1.77a23,23,0,0,1-3.38,1.73c-.71.26-1.43.49-2.17.71a22.94,22.94,0,0,1-2.49.46,15,15,0,0,1-2.7.1c-.47,0-.93,0-1.4-.07s-.9-.14-1.35-.23a17.91,17.91,0,0,1-5.3-1.79A21.73,21.73,0,0,1,63,346.31a24.53,24.53,0,0,1-2.2-1.83,25.9,25.9,0,0,1-1.84-2c-.5-.64-1-1.36-1.46-2s-.82-1.29-1.17-1.9-.63-1.21-.91-1.8l-.75-1.67-.59-1.53c-.36-1-.68-1.9-.91-2.72l-.36-1.2c-.13-.39-.21-.77-.3-1.09-.39-1.37-.64-2.49-.85-3.09a18.58,18.58,0,0,0-1.83-4c-1-1.73-2.41-3.88-4.11-6.49a68.49,68.49,0,0,1-5.29-9.54c-.41-.95-.82-1.9-1.17-2.95L38.72,301c-.16-.52-.31-1.07-.45-1.61l-.41-1.62c-.1-.5-.21-1-.32-1.63a34.06,34.06,0,0,1-.47-4.06,23.57,23.57,0,0,1,.32-5.28,19.76,19.76,0,0,1,.75-3,24.14,24.14,0,0,1,1-2.54,19.17,19.17,0,0,1,4-5.51,17.72,17.72,0,0,1,6.34-3.89,19,19,0,0,1,5.61-1,23.31,23.31,0,0,1,4,.19,45.86,45.86,0,0,1,4.86.95c1.07.29,1.81.37,1.19.59a3.11,3.11,0,0,0-.3.12c-.11.05-.29.12-.42.19s-.07,0,0,0h0l.08,0,.17,0,.19,0h.07s.15,0,.14,0-.41.65-.57,1.4a1.84,1.84,0,0,0,0,.85c0,.16.1.19.13.06a4.28,4.28,0,0,0-.2-1.84,21.94,21.94,0,0,0-1.11-3c-1-2.18-2.32-4.55-3.75-7s-3-5.08-4.63-8.58l-.3-.67-.31-.76L54,252.5l-.3-.91a20,20,0,0,1-.52-2.12l-.06-.29,0-.19,0-.37-.09-.74a23.91,23.91,0,0,1,.21-6.79,18.73,18.73,0,0,1,1.11-3.76A20.82,20.82,0,0,1,56,234.06a22.22,22.22,0,0,1,4.68-5,21.8,21.8,0,0,1,2.75-1.87A26.34,26.34,0,0,1,66,225.84c1.58-.71,2.9-1.22,3.93-1.69a12.41,12.41,0,0,0,2-1.09c.31-.23.32-.16.44-.33a1.07,1.07,0,0,0,.14-.68,2.66,2.66,0,0,0-.43-1.19,2.85,2.85,0,0,0-.85-.85,1.45,1.45,0,0,0-.37-.19c-.1,0-.3,0-.45-.08s-.43,0-.64,0a32.46,32.46,0,0,0-3.65.2c-1.4.14-3,.31-4.71.4a25.36,25.36,0,0,1-5.82-.29,14.7,14.7,0,0,1-6.74-3l-.75-.64-.2-.19-.31-.31c-.17-.19-.29-.34-.41-.49a12.83,12.83,0,0,1-1.11-1.64,14.42,14.42,0,0,1-1.43-3.46,13.76,13.76,0,0,1,.18-7.48,16,16,0,0,1,3.36-5.84,19.36,19.36,0,0,1,4.64-3.79,22.23,22.23,0,0,1,5.26-2.32A22.48,22.48,0,0,1,61,190.2l.73-.1.65-.06c.44,0,.88-.07,1.31-.08a59.87,59.87,0,0,1,9.5.6,53.93,53.93,0,0,0,8,.55,20.1,20.1,0,0,0,13-5.64,21.5,21.5,0,0,0,4.42-5.95,12.82,12.82,0,0,0,.76-1.69l.34-.86.26-.89a14.07,14.07,0,0,0,.42-1.79,17.5,17.5,0,0,0,.28-1.91c.29-2.7.24-5.82,1.18-9.27a13.13,13.13,0,0,1,2.61-5,11.83,11.83,0,0,1,4.75-3.31,16.68,16.68,0,0,1,5.19-.92,39.55,39.55,0,0,1,4.69.2,54.42,54.42,0,0,0,8.35.46,14.3,14.3,0,0,0,3.67-.78,16.32,16.32,0,0,0,3.43-1.8,30.68,30.68,0,0,0,6-5.66c1.82-2.17,3.53-4.52,5.27-6.87s3.45-4.7,5.12-7.09A120.63,120.63,0,0,0,160,117.45a67.38,67.38,0,0,0,3.39-8c1-2.74,1.54-5.6,2.31-8.43a90.64,90.64,0,0,1,5.87-16.54A42.52,42.52,0,0,1,182,70.51Zm.07.1a39.76,39.76,0,0,0-9.93,14.15,89.28,89.28,0,0,0-5.2,16.57L166,105.6l-.5,2.18-.6,2.16a63.07,63.07,0,0,1-3.28,8.3,122.45,122.45,0,0,1-8.82,15.34q-2.43,3.67-5,7.26c-1.68,2.39-3.34,4.82-5.2,7.15a33.43,33.43,0,0,1-6.39,6.35,18.64,18.64,0,0,1-4,2.26,17.14,17.14,0,0,1-4.5,1.11,54.81,54.81,0,0,1-8.91-.22c-2.87-.18-5.78-.27-8.3.69a8.09,8.09,0,0,0-3.18,2.3,9.07,9.07,0,0,0-1.77,3.6c-.7,2.69-.63,5.62-.84,8.57a25.53,25.53,0,0,1-23.19,23.48c-6,.39-11.75-1-17.52-.66a17.69,17.69,0,0,0-4.22.73A16.41,16.41,0,0,0,56,198a11.9,11.9,0,0,0-5.3,6.42,7.66,7.66,0,0,0,0,4.14,7.87,7.87,0,0,0,.83,1.93A4.62,4.62,0,0,0,52.8,212a8.09,8.09,0,0,0,3.85,1.63,18.16,18.16,0,0,0,4.3.1c2.89-.2,5.77-.81,8.73-.87a9.85,9.85,0,0,1,4.38.76,9.69,9.69,0,0,1,3.52,2.72,9.35,9.35,0,0,1,1.89,8.41,8.1,8.1,0,0,1-2.35,3.74A15.8,15.8,0,0,1,73.44,231c-2.6,1.33-5.42,2.27-7.65,4.16a12.06,12.06,0,0,0-4.43,7.26,15,15,0,0,0,0,4.34,11.93,11.93,0,0,0,1.31,4.14,84.24,84.24,0,0,0,4.47,7.53c1.56,2.47,3.11,5,4.47,7.54a23.72,23.72,0,0,1,2.88,8.22,8.27,8.27,0,0,1-.57,4.29,7.82,7.82,0,0,1-2.84,3.27c-.29.21-.63.37-.94.56a6.89,6.89,0,0,1-1,.49,8.52,8.52,0,0,1-2.06.71,16.4,16.4,0,0,1-4.37,0c-1.46-.15-2.91-.36-4.36-.45a10.4,10.4,0,0,0-4.33.48,5.34,5.34,0,0,0-3,3,8.29,8.29,0,0,0-.65,4.29,19,19,0,0,0,1,4.26l.34,1,.42,1c.26.68.6,1.33.92,2a58.37,58.37,0,0,0,4.64,7.43c1.69,2.38,3.42,4.74,4.93,7.24a30.09,30.09,0,0,1,3.52,8c.72,2.83,1,5.75,1.7,8.6a17.73,17.73,0,0,0,1.43,4.13,8.32,8.32,0,0,0,2.82,3.29A7.8,7.8,0,0,0,76.24,339a10.4,10.4,0,0,0,4.24-1c2.69-1.15,5.08-2.88,7.65-4.27a23.08,23.08,0,0,1,4-1.82,11.47,11.47,0,0,1,4.31-.58,11.85,11.85,0,0,1,7.63,3.88,19.72,19.72,0,0,1,4.39,7.51,29.13,29.13,0,0,1,1.1,8.66c0,5.84-1,11.68-.34,17.52a37.4,37.4,0,0,0,5.86,16.34,16,16,0,0,0,1.24,1.8l1.31,1.76c.91,1.14,1.93,2.2,2.88,3.3s2.1,2,3.19,3,2.23,1.89,3.43,2.73A60,60,0,0,0,142.58,406c.69.24,1.37.5,2.07.72l2.11.58c1.4.43,2.83.7,4.27,1,2.86.6,5.77.9,8.67,1.29a74.09,74.09,0,0,1,8.62,1.54,28.83,28.83,0,0,1,8.09,3.3h0a20.57,20.57,0,0,1,7.12,5.84,23.41,23.41,0,0,1,3.92,8.36,39,39,0,0,1,1.18,9.19,70.17,70.17,0,0,1-.44,9.28c-.64,6.17-1.88,12.25-3,18.34-.26,1.53-.55,3.05-.69,4.6a10.81,10.81,0,0,0,.41,4.59,7.29,7.29,0,0,0,3,3.43,25.45,25.45,0,0,0,4.11,2.14c5.73,2.39,11.81,3.74,17.8,5.27,1.51.38,3,.82,4.46,1.32l4.42,1.43,8.85,2.83c11.81,3.77,23.61,7.6,35.11,12.22,23,9.12,45.46,20,66,33.84l3.83,2.64c1.27.88,2.53,1.78,3.86,2.58a18.64,18.64,0,0,0,4.19,2,11.69,11.69,0,0,0,4.59.46,14.43,14.43,0,0,0,8.18-4.06,22.28,22.28,0,0,0,5.27-7.57c2.48-5.71,3.28-11.94,5.29-17.8.5-1.47,1.15-2.88,1.76-4.3s1.4-2.77,2.25-4.07a49.61,49.61,0,0,1,5.6-7.4,70.16,70.16,0,0,1,6.66-6.47c2.33-2,4.77-3.95,7.26-5.79,5-3.71,10.14-7.12,15.19-10.71q15.19-10.72,29.55-22.55T460,429.35c2.23-2.15,4.46-4.3,6.65-6.49A76.75,76.75,0,0,0,473,416a42.57,42.57,0,0,0,8.47-16.37,37.12,37.12,0,0,0,1.08-9.21,79.68,79.68,0,0,0-.73-9.25,62.55,62.55,0,0,1-.58-9.27,21.82,21.82,0,0,1,2-9,14.8,14.8,0,0,1,6.41-6.52,30.67,30.67,0,0,1,8.8-2.86c6.09-1.16,12.33-1.38,18.35-2.93a20.9,20.9,0,0,0,8.29-4,14.93,14.93,0,0,0,4.66-7.86,40.75,40.75,0,0,0,1-9.22c0-3.09-.07-6.2.23-9.29a24,24,0,0,1,2.54-8.88c1.4-2.78,3.5-5.11,5-7.86a10.2,10.2,0,0,0,1.36-4.39,6.69,6.69,0,0,0-1.4-4.32,11.33,11.33,0,0,0-3.49-3,7.81,7.81,0,0,0-2.17-.78,7.16,7.16,0,0,0-2.31,0,10.32,10.32,0,0,0-4.22,1.82,22,22,0,0,0-3.5,3c-2.16,2.22-4,4.72-6,7.11a22.62,22.62,0,0,1-7.28,5.67,21.51,21.51,0,0,1-9,2.14h-1.16l-1.16-.09c-.77-.1-1.53-.25-2.29-.38s-1.51-.39-2.23-.66-1.47-.52-2.15-.88a26.09,26.09,0,0,1-7.51-5.4,25.19,25.19,0,0,1-5.17-7.66,18.79,18.79,0,0,1-1.5-9.09,19.54,19.54,0,0,1,3.05-8.7,18.69,18.69,0,0,1,2.94-3.58,20.94,20.94,0,0,1,3.74-2.75c1.34-.79,2.72-1.49,4.09-2.2s2.78-1.39,4.21-2,2.9-1.11,4.37-1.57a10.58,10.58,0,0,0,2.15-.85,3.5,3.5,0,0,0,1.46-1.74,1.44,1.44,0,0,0,.18-.54l.12-.56a6.26,6.26,0,0,0,0-1.15,8.53,8.53,0,0,0-.66-2.21,37.39,37.39,0,0,0-2.16-4.11,81.55,81.55,0,0,1-4.38-8.2,48.82,48.82,0,0,1-4.22-18c-.14-3.1.07-6.2.23-9.29a21.59,21.59,0,0,0-1.06-9.14,17.13,17.13,0,0,0-2.34-4,18.08,18.08,0,0,0-3.36-3.18,45.51,45.51,0,0,0-8.15-4.42c-1.41-.64-2.83-1.27-4.22-2a25.13,25.13,0,0,1-4-2.34,19.27,19.27,0,0,1-6-7,11.36,11.36,0,0,1-1.21-4.46,8,8,0,0,1,1.13-4.45c1.56-2.74,4.66-4.13,6.16-6.89a11.88,11.88,0,0,0,.84-9,20.75,20.75,0,0,0-4.35-8.11c-4.15-4.64-9.66-7.71-14.25-11.89a32.87,32.87,0,0,1-3.2-3.37,31.41,31.41,0,0,1-2.63-3.84,92,92,0,0,1-4.14-8.32L433.8,110,426,93.08a58.27,58.27,0,0,0-4.4-8.16,27,27,0,0,0-6.39-6.66c-1.23-1-2.54-1.78-3.84-2.62s-2.57-1.74-3.78-2.7a48,48,0,0,1-6.74-6.4A45.13,45.13,0,0,1,395.5,59a60.62,60.62,0,0,0-4.84-7.91,14.78,14.78,0,0,0-7.53-5.12,31.56,31.56,0,0,0-9.18-1c-6.19.11-12.39.32-18.58.48l-37.16,1-9.3.24-4.64.13c-1.55,0-3.1,0-4.65-.11-3.09-.17-6.18-.4-9.28-.5a51.17,51.17,0,0,0-9.26.39,17,17,0,0,0-4.45,1.23,7.22,7.22,0,0,0-3.45,3c-1.59,2.69-1.67,5.92-2.62,8.87a7.85,7.85,0,0,1-2.45,3.9,8.65,8.65,0,0,1-4.27,1.76,22.59,22.59,0,0,1-4.65.13c-1.54-.07-3.09-.17-4.64-.29-12.34-1-24.63-3.07-37-2.78-6.19.14-12.41.17-18.53,1.18A42.55,42.55,0,0,0,190,65.91,30.87,30.87,0,0,0,182.08,70.61Z"/><path d="M164.07,439a32.87,32.87,0,0,0-5.34-5.14,30.22,30.22,0,0,0-6.45-3.6,31.84,31.84,0,0,0-7.09-2,41.82,41.82,0,0,0-7.32-.62,55.76,55.76,0,0,0-7.31.5c-2.41.31-4.85.81-7.29,1.24a79.9,79.9,0,0,1-15.18,1.76,35.42,35.42,0,0,1-8-.93,58.47,58.47,0,0,0-7-1.35,17.66,17.66,0,0,0-3.1-.14,3,3,0,0,0-1.67.41s.26-.12.38-.28.11-.24.16,0a8.49,8.49,0,0,0,.68,2,6.93,6.93,0,0,0,1.29,1.88,13.08,13.08,0,0,0,2,1.72,28.15,28.15,0,0,0,5.57,2.81,60.25,60.25,0,0,0,6.5,2.09c2.26.61,4.57,1.14,6.93,1.63l7.25,1.52c2.45.51,4.92,1.14,7.41,1.8a76,76,0,0,1,7.46,2.4,50.14,50.14,0,0,1,7.32,3.37,40,40,0,0,1,6.78,4.75l1.52,1.45c.51.48,1,1,1.43,1.56a19.31,19.31,0,0,1,1.32,1.64,21,21,0,0,1,1.3,1.87,28.2,28.2,0,0,1,1.77,3.76l1.38,3.51c.89,2.3,1.78,4.55,2.8,6.67a19.8,19.8,0,0,0,3.55,5.53,3,3,0,0,0,2,1,3.06,3.06,0,0,0,2.19-1,7.82,7.82,0,0,0,1.54-2.73,17.9,17.9,0,0,0,.84-3.41,50.17,50.17,0,0,0,.54-7.3c0-1.23,0-2.47.05-3.73s.08-2.47.06-3.7a46.55,46.55,0,0,0-.57-7.37,31,31,0,0,0-2-7.12A28.45,28.45,0,0,0,164.07,439Zm0,0a31.39,31.39,0,0,1,6.08,13.44,59.45,59.45,0,0,1,1,7.41c.09,1.24.14,2.49.2,3.72s.18,2.46.27,3.7a63.22,63.22,0,0,1,.21,7.56,24,24,0,0,1-.5,3.89,10.63,10.63,0,0,1-1.65,3.92,6.53,6.53,0,0,1-4.07,2.62,5.46,5.46,0,0,1-2.7-.19,8.39,8.39,0,0,1-2.2-1.1,23.62,23.62,0,0,1-5.45-6.2c-1.44-2.18-2.69-4.41-3.9-6.59l-1.8-3.21a27.89,27.89,0,0,0-1.76-2.78c-.19-.24-.62-.66-1-1.05a11.07,11.07,0,0,0-1.15-1.12c-.79-.73-1.66-1.38-2.51-2a36.9,36.9,0,0,0-5.75-3.21,70.81,70.81,0,0,0-13.2-4.11c-2.32-.54-4.68-1-7.09-1.47s-4.82-.92-7.31-1.44a79,79,0,0,1-15.07-4.61,33.72,33.72,0,0,1-7.4-4.37A19.91,19.91,0,0,1,84,438.39a17.41,17.41,0,0,1-1.4-2.14,14.37,14.37,0,0,1-1-2.37,13.94,13.94,0,0,1-.88-5.18,8.06,8.06,0,0,1,1-3.62,7,7,0,0,1,3-2.86,10.61,10.61,0,0,1,5.57-.94,25.7,25.7,0,0,1,4.27.71,61.67,61.67,0,0,1,7.4,2.49,30.38,30.38,0,0,0,6.61,1.69,73.92,73.92,0,0,0,14.46.25c2.48-.15,5-.31,7.49-.39a70.26,70.26,0,0,1,7.54.24,44,44,0,0,1,14.48,3.66,34,34,0,0,1,6.37,3.84A33.42,33.42,0,0,1,164.07,439Z"/></svg>