<svg id="Layer_1" data-name="Layer 1" xmlns="http://www.w3.org/2000/svg" viewBox="0 0 600 600"><title>Slovenia</title><path d="M97.12,219.83c8.08-1.9,16.27-3.8,24.6-4.59,8.29-1,16.64-1.7,25.07-1.83a126.42,126.42,0,0,1,25.39,2c8.5,1.58,16.54,4.46,24.39,6.86s15.61,4.38,23.15,4.36a48.52,48.52,0,0,0,38.33-19.22c2.14-2.76,3.9-6.22,6.38-10.13a45.37,45.37,0,0,1,4.43-6,38.26,38.26,0,0,1,2.75-2.8c.94-.91,2-1.71,3-2.52a52.38,52.38,0,0,1,13.2-7.18,79.79,79.79,0,0,1,13.71-3.71c2.27-.41,4.53-.74,6.78-1s4.36-.49,6.54-.69c4.33-.38,8.61-.74,12.85-1.2,8.46-.87,16.74-2.27,24.57-3.72l11.38-2.23c3.74-.73,7.56-1.47,11.52-2.1s8-1.28,12.24-1.89l6.4-.87q3.25-.37,6.6-.68t6.78-.51l5.65-.31c1.81-.1,3.51-.28,5.21-.47s3.29-.47,4.81-.76a38.32,38.32,0,0,0,8.24-2.4,25.48,25.48,0,0,0,3.33-1.75A23,23,0,0,0,437.6,152a94.68,94.68,0,0,0,7.58-8c1.44-1.62,2.93-3.38,4.62-5.17l1.31-1.37c.52-.52,1-1,1.57-1.55,1.06-1,2.16-2,3.3-2.83a50.81,50.81,0,0,1,15.17-8.2,39.48,39.48,0,0,1,18.7-1.6,32.87,32.87,0,0,1,18,9.41c.58.59,1.13,1.2,1.68,1.81s1,1.24,1.51,1.86c.24.3.57.77.83,1.15s.53.8.78,1.21c.5.81.93,1.62,1.32,2.41a44.1,44.1,0,0,1,3,8.39l.84,3.2.77,2.71c.24.9.55,1.78.83,2.67s.56,1.78.88,2.66a107.21,107.21,0,0,0,4.22,10.37,111.63,111.63,0,0,0,11.33,19.19,105.36,105.36,0,0,0,7,8.58c.58.63,1.43,1.6,1.4,1.43l1.29,1,4.59,3.4c1.81,1.36,3.8,2.89,5.94,4.83a37,37,0,0,1,6.88,8.09,24.85,24.85,0,0,1,1.69,3.16,18.19,18.19,0,0,1,.76,1.79c.23.67.45,1.36.65,2a15.57,15.57,0,0,1,.53,2.14c.13.77.24,1.56.32,2.35l.11,1.18a8.23,8.23,0,0,1,0,1.07c0,.66,0,1.33,0,2a18.64,18.64,0,0,1-.23,2.18l-.17,1.13c-.06.36-.15.76-.26,1.19-.21.85-.46,1.68-.74,2.51a28.63,28.63,0,0,1-1.14,2.63,23.58,23.58,0,0,1-8,8.93c-.77.49-1.62,1-2.38,1.39s-1.53.72-2.31,1-1.44.52-2.17.74-1.35.36-2,.52a32.39,32.39,0,0,1-7,.71c-.54,0-1,0-1.51,0s-1,0-1.45-.09l-1.38-.13-.93-.1c-.62-.07-1.23-.14-1.8-.23l-1.7-.23c-2.2-.32-4.08-.59-5.48-.71a13,13,0,0,0-2.86,0,5.31,5.31,0,0,0-1.42.37,2.09,2.09,0,0,0-.43.18c-.13.07-.39.16-.33.18s0,0-.05,0a.25.25,0,0,1-.12.11,5,5,0,0,1-1.75,1.13,38.6,38.6,0,0,0-4.65,2.63c-.47.35-.91.62-1.4,1s-1,.79-1.42,1.2-1,.91-1.49,1.39l-1.59,1.54a37.24,37.24,0,0,1-8.62,6.28c-.9.45-1.82.9-2.74,1.29s-1.78.65-2.68.95-1.77.48-2.66.7-1.73.32-2.59.46a47.66,47.66,0,0,1-9.06.42c-2.64-.09-4.91-.3-6.85-.44a46.46,46.46,0,0,0-4.76-.19l-.83,0c-.22,0-.45.06-.67.08-.91.14-1.86.27-2.79.39l-2.81.42c-.93.16-1.86.32-2.8.45-1.87.3-3.73.65-5.6,1s-3.73.72-5.58,1.13c-3.71.83-7.4,1.8-11.08,2.87s-7.3,2.31-10.91,3.63c-.9.33-1.8.67-2.69,1s-1.79.71-2.61,1c-1.66.7-3.22,1.41-4.63,2.15a21.59,21.59,0,0,0-6.32,4.61,7.89,7.89,0,0,0-1.48,2.34,10.12,10.12,0,0,0-.68,3,23.21,23.21,0,0,0,1.77,8.77,55.48,55.48,0,0,0,2.18,5.11c.42.87.85,1.76,1.3,2.66l1.41,2.8a86,86,0,0,1,5.44,13.16,46.34,46.34,0,0,1,1.69,7.67,31,31,0,0,1,0,8.71,26.43,26.43,0,0,1-3,9,27.48,27.48,0,0,1-6,7.32,34.57,34.57,0,0,1-7.25,4.65,53.59,53.59,0,0,1-7,2.8c-2.24.74-4.38,1.39-6.38,1.95s-3.93,1.12-5.64,1.65c-.88.25-1.74.53-2.62.79-.42.15-.94,0-1.34.24a8.19,8.19,0,0,0-1.14.78c-1.46,1.17-2.67,2.69-4,3.63s-2.71,1.8-3.94,2.75a30.59,30.59,0,0,0-3.25,3,20,20,0,0,0-4.19,6.6c-1.74,4.55-1.82,10.16-.45,16.07.34,1.48.78,3,1.28,4.45.13.38.26.75.4,1.12a6.07,6.07,0,0,0,.38.93l.75,1.4c.68,1.23,1.54,2.71,2.58,4.48s2.18,3.66,3.32,6c.57,1.07,1.16,2.4,1.73,3.62.56,1.42,1.13,2.69,1.65,4.34l.38,1.19.19.6.17.67c.22.9.43,1.81.62,2.72a33.84,33.84,0,0,1,.57,6.44l0,1.74c0,.6-.13,1.25-.21,1.87s-.18,1.25-.29,1.88a12,12,0,0,1-.42,1.88c-.36,1.27-.78,2.53-1.25,3.76s-1,2.23-1.62,3.32a34.5,34.5,0,0,1-8.64,10.09,45.56,45.56,0,0,1-18.92,8.63,48,48,0,0,1-9.69,1.1,47.23,47.23,0,0,1-5.24-.2c-.94-.11-1.9-.24-2.81-.37l-2.36-.45a64.64,64.64,0,0,1-8.31-2.46c-2.45-.89-4.61-1.76-6.49-2.57s-3.52-1.48-4.93-2l-1-.36c-.31-.1-.62-.2-.92-.32a5.93,5.93,0,0,1-.82-.37,10.63,10.63,0,0,1-1.12-.56,22.2,22.2,0,0,1-4.38-3.36c-.73-.72-1.49-1.41-2.26-2.12s-1.57-1.44-2.39-2.07a17,17,0,0,0-5.15-2.89,18.06,18.06,0,0,0-5.36-.69c-2,0-4,.08-6,.26s-4,.45-6.2.77l-1.69.26c-.57.1-1.22.18-1.87.25a21.94,21.94,0,0,1-4.81,0,14.92,14.92,0,0,1-5.26-1.77,19.23,19.23,0,0,1-2.24-1.45,17.31,17.31,0,0,1-2.1-1.94c-.3-.37-.59-.75-.88-1.13l-.42-.59-.34-.57-.65-1.18c-.18-.37-.32-.73-.48-1.1a30.32,30.32,0,0,1-1.3-3.87c-.61-2.27-1-4-1.61-5.66a28.29,28.29,0,0,0-2-4.54c-.4-.72-.85-1.41-1.3-2.11l-.74-1-.37-.5-.46-.59a34.1,34.1,0,0,0-3.49-3.88,14.31,14.31,0,0,0-3.35-2.36,3.63,3.63,0,0,0-2.26-.42,5,5,0,0,0-1.33.78A13.75,13.75,0,0,0,231,429.5a18.08,18.08,0,0,0-1.21,1.58l-.65.92a6.17,6.17,0,0,0-.52.88,9.78,9.78,0,0,0-1,2.85c-.26,1.08-.42,2.47-.9,5l-.22,1-.11.51-.16.59-.33,1.18-.46,1.32a20.66,20.66,0,0,1-1.26,2.74,17.37,17.37,0,0,1-1.87,2.65A17.75,17.75,0,0,1,220,453c-.4.33-.8.64-1.21,1s-.74.49-1.11.74a26,26,0,0,1-4.49,2.22,28.59,28.59,0,0,1-8.8,1.8,41.39,41.39,0,0,1-7.76-.37c-1.22-.16-2.35-.31-3.54-.53s-2.36-.39-3.48-.64c-2.29-.4-4.45-.89-6.6-1.24-4.25-.81-8.37-1.21-12.35-1.61a53.06,53.06,0,0,0-11.4,0c-.9.11-1.78.27-2.65.42l-1.29.31-.64.15-.7.21-2.84.88-2.82,1c-7.54,2.66-15,6.3-23.29,9.34a74.1,74.1,0,0,1-26.91,4.72A50.58,50.58,0,0,1,83.7,469a33.2,33.2,0,0,1-7.39-3.43A28.86,28.86,0,0,1,72.84,463c-.55-.44-1.14-1.06-1.69-1.6s-1-1.17-1.55-1.77a25.62,25.62,0,0,1-4.26-8.15,24.1,24.1,0,0,1-1-9.6,20.32,20.32,0,0,1,3.87-10.08c.29-.37.58-.76.87-1.12l.8-.87.81-.86.89-.81a18.27,18.27,0,0,1,1.88-1.51,23.14,23.14,0,0,1,2-1.32,30.28,30.28,0,0,1,8.35-3.3,51.88,51.88,0,0,1,7.44-1.13,91.45,91.45,0,0,0,11.05-1.21,12.07,12.07,0,0,0,3.25-1.2,8.39,8.39,0,0,0,2.25-1.84c.17-.22.34-.43.53-.65l.5-.75a7.45,7.45,0,0,0,.5-.84l.25-.43.19-.41a14.71,14.71,0,0,0,1.18-3.48,16.92,16.92,0,0,0-.5-7.92,17.91,17.91,0,0,0-1.67-3.8,7.21,7.21,0,0,0-.55-.88l-.28-.43a2.22,2.22,0,0,0-.19-.24,6.37,6.37,0,0,0-.94-1,20,20,0,0,0-3.56-2.3c-1.47-.78-3.16-1.54-5-2.29-3.62-1.52-7.68-3-12-5a41.25,41.25,0,0,1-6.68-4,23.18,23.18,0,0,1-6.28-6.81,19.85,19.85,0,0,1-2-4.65L71,369.54l-.21-1.21a19.84,19.84,0,0,1-.24-2.29,35.82,35.82,0,0,1,.57-7.73c.77-4.47,1.59-8,1.31-10.58a7,7,0,0,0-.09-1,6.24,6.24,0,0,0-.15-.81,2.33,2.33,0,0,1-.08-.36l-.11-.28a3,3,0,0,0-.21-.51,8.56,8.56,0,0,0-2.88-2.58,37.74,37.74,0,0,1-5.78-4.59c-.47-.51-.91-.95-1.39-1.53s-1-1.29-1.42-2a25.09,25.09,0,0,1-1.14-2.33,18,18,0,0,1-.69-2.59,13.73,13.73,0,0,1,.21-5.14L59,322.9c.11-.39.27-.72.4-1.07l.43-1,.51-.94a25.29,25.29,0,0,1,4.81-6,38.22,38.22,0,0,1,5.61-4.38c1.84-1.17,3.54-2.19,5.16-3.29,3.21-2.15,6-4.55,7.23-7.2a7.68,7.68,0,0,0,.58-4.19,7.8,7.8,0,0,0-1.92-4,15.66,15.66,0,0,0-4.12-3.33A30.28,30.28,0,0,0,72.45,285a46,46,0,0,0-5.74-1.62,51.16,51.16,0,0,1-6.28-1.65,24.2,24.2,0,0,1-6-3,13.35,13.35,0,0,1-4.54-5.27,11.6,11.6,0,0,1-1-3.38,13.51,13.51,0,0,1,0-3.42,21.54,21.54,0,0,1,1.8-6.31,47.71,47.71,0,0,1,6.87-10.67,121.67,121.67,0,0,1,18.15-17.23,113.68,113.68,0,0,1,10.23-7.17A53.63,53.63,0,0,1,97.12,219.83Zm0,.15a30,30,0,0,0-2.91,1.1c-.94.44-1.87.9-2.77,1.41-1.82,1-3.58,2.1-5.3,3.25a120.51,120.51,0,0,0-9.81,7.6A131.57,131.57,0,0,0,59,250.86a45.75,45.75,0,0,0-6.3,10.34,19.18,19.18,0,0,0-1.48,5.66,11,11,0,0,0,.09,2.81,8.46,8.46,0,0,0,.84,2.62A10.52,10.52,0,0,0,56,276.37a20.62,20.62,0,0,0,5.37,2.44,44.83,44.83,0,0,0,6,1.34,51.75,51.75,0,0,1,6.2,1.49,36.9,36.9,0,0,1,6,2.43A19.83,19.83,0,0,1,84.72,288a11.88,11.88,0,0,1,2.69,12.56A17.2,17.2,0,0,1,83.8,306,37.3,37.3,0,0,1,79,310.16c-1.69,1.26-3.45,2.42-5.14,3.59a33,33,0,0,0-4.67,3.91,20.67,20.67,0,0,0-3.62,4.8,9,9,0,0,0-1.08,5.62c.08.46.26.91.39,1.38l.66,1.28.9,1.17c.32.38.7.72,1,1.09a29.89,29.89,0,0,0,4.94,3.62,16.66,16.66,0,0,1,4.9,4.1,13.09,13.09,0,0,1,2.17,6,24.83,24.83,0,0,1,0,6.33c-.23,2.08-.59,4.14-.86,6.19a30.35,30.35,0,0,0-.32,6.16,12.9,12.9,0,0,0,1.78,5.8,15.48,15.48,0,0,0,4.26,4.39,32.58,32.58,0,0,0,5.4,3c3.78,1.72,7.74,3,11.64,4.5s7.8,3.09,11.08,5.71a16.06,16.06,0,0,1,2.24,2.2,11.34,11.34,0,0,1,.94,1.25,13.91,13.91,0,0,1,.86,1.3,27,27,0,0,1,2.65,5.66,26.24,26.24,0,0,1,1,12.34A23.9,23.9,0,0,1,115,422.82a18.13,18.13,0,0,1-4.79,4,21.21,21.21,0,0,1-5.83,2.16c-4.07.92-8.26,1-12.41,1.3s-8.37.91-12,3a16.41,16.41,0,0,0-4.71,4A11.47,11.47,0,0,0,73,443a16.92,16.92,0,0,0,3.27,11.76,22,22,0,0,0,10.11,7,44.26,44.26,0,0,0,12.23,2.32,62.48,62.48,0,0,0,12.45-.54,72.35,72.35,0,0,0,12.13-2.9c7.92-2.58,15.53-6,23.42-8.68l3-1,3-.88c1-.31,2-.49,3-.74s2-.36,3.09-.48a64.84,64.84,0,0,1,12.46,0c8.28.71,16.56,2.22,24.89,1.52a30.3,30.3,0,0,0,12-3.13,15.84,15.84,0,0,0,4.82-3.9,15.24,15.24,0,0,0,2.51-5.67,53.93,53.93,0,0,1,1.69-6,20.56,20.56,0,0,1,3-5.44c2.53-3.27,5.62-6.28,9.5-7.88a12.28,12.28,0,0,1,6.11-.84,14.05,14.05,0,0,1,5.77,2.25,32.88,32.88,0,0,1,8.53,9A36.67,36.67,0,0,1,255.38,440c.6,2,1,4,1.48,6.06a13.55,13.55,0,0,0,2.42,5.69,11.53,11.53,0,0,0,1.13,1.08,11.24,11.24,0,0,0,1.3.86,8.2,8.2,0,0,0,2.93,1,20.88,20.88,0,0,0,6.19-.56c4.08-.82,8.16-1.65,12.27-2.29a66.4,66.4,0,0,1,24.8,1.22c8.2,1.68,15.47,6.17,23.63,8a30,30,0,0,0,12.4,0,28,28,0,0,0,11.39-4.85,16.72,16.72,0,0,0,4.14-4.61,12,12,0,0,0,1.68-5.94,18,18,0,0,0-.18-3.11,28.35,28.35,0,0,0-.71-3,41.41,41.41,0,0,0-2.22-5.83c-1.7-3.81-3.71-7.46-5.31-11.31a36.32,36.32,0,0,1-1.86-5.95,57.68,57.68,0,0,1-1.13-6.14,47.18,47.18,0,0,1,0-12.45,38.46,38.46,0,0,1,1.33-6.09c.16-.5.31-1,.49-1.48l.57-1.46a30.16,30.16,0,0,1,1.31-2.83,34.47,34.47,0,0,1,7.67-9.77,46.19,46.19,0,0,1,10.32-7A70.09,70.09,0,0,1,383,364.74c4-1.18,8.07-2.06,12.05-3.27a33.08,33.08,0,0,0,11.19-5.36,18.48,18.48,0,0,0,4.09-4.68,17.13,17.13,0,0,0,2.13-5.83,22.91,22.91,0,0,0,.3-3.1,26.89,26.89,0,0,0-.17-3.11,32.67,32.67,0,0,0-1.31-6.1,62.63,62.63,0,0,0-5-11.41c-2-3.65-4.05-7.28-5.71-11.1a35.64,35.64,0,0,1-3.19-12,19.5,19.5,0,0,1,3.16-11.86,30.28,30.28,0,0,1,9.08-8.45,88,88,0,0,1,11-5.79c3.78-1.73,7.64-3.31,11.55-4.74a158.88,158.88,0,0,1,24-6.7q3.07-.6,6.15-1.09a46.28,46.28,0,0,1,6.2-.68c4.17-.08,8.31.54,12.47.69s8.44-.2,12.12-2.25,6.36-5.35,8.93-8.59c1.3-1.62,2.6-3.26,4-4.79a28.13,28.13,0,0,1,4.67-4.12l1.32-.84,1.39-.71a15.05,15.05,0,0,1,1.43-.62,12.89,12.89,0,0,1,1.47-.53,23.24,23.24,0,0,1,6.12-1.16c4.17-.24,8.3.61,12.39,1.3a49.53,49.53,0,0,0,6.18.81,14.09,14.09,0,0,0,3.11-.24,7.87,7.87,0,0,0,2.88-1.12,6,6,0,0,0,2.08-2.27,7.55,7.55,0,0,0,.79-3,7.29,7.29,0,0,0,0-1.55,6.05,6.05,0,0,0-.26-1.53,8.24,8.24,0,0,0-.51-1.47,10.1,10.1,0,0,0-.71-1.39,23.58,23.58,0,0,0-3.92-4.82c-1.49-1.46-3.07-2.81-4.67-4.14-3.18-2.67-6.58-5.18-9-8.57s-5.08-6.6-7.35-10.09a133.82,133.82,0,0,1-19.15-45.83,30.35,30.35,0,0,0-2-5.9,18.6,18.6,0,0,0-3.63-5,19.44,19.44,0,0,0-10.88-5.64,25.67,25.67,0,0,0-12.28,1.32,35.29,35.29,0,0,0-10.75,6.19,60.13,60.13,0,0,0-8.36,9.24c-2.57,3.27-5.09,6.6-8,9.61a39.69,39.69,0,0,1-9.84,7.63A51.47,51.47,0,0,1,427,174.54a85.27,85.27,0,0,1-12.29,2.19c-4.14.48-8.3.66-12.43,1.16-8.28.91-16.49,2.28-24.74,3.42-4.12.57-8.26,1.09-12.4,1.47s-8.31.59-12.47.7c-8.33.23-16.65.08-25,.09-4.16,0-8.32.05-12.48.2s-8.32.39-12.45.93a69.31,69.31,0,0,0-12.17,2.64,41.92,41.92,0,0,0-11.17,5.44,34.31,34.31,0,0,0-4.73,4.05,38.85,38.85,0,0,0-3.92,4.85c-2.4,3.39-4.49,7-7.18,10.21a54.73,54.73,0,0,1-19.75,15,54,54,0,0,1-24.32,4.72c-8.35-.34-16.43-2.78-24.26-5.54s-15.61-5.85-23.74-7.69a124.22,124.22,0,0,0-24.76-2.91,247.37,247.37,0,0,0-25,.79c-4.15.31-8.3.66-12.42,1.22A73.56,73.56,0,0,0,97.16,220Z"/></svg>