<svg id="Layer_1" data-name="Layer 1" xmlns="http://www.w3.org/2000/svg" viewBox="0 0 600 600"><title>Slovakia</title><path d="M115.91,269a40,40,0,0,0,5-.41,20.78,20.78,0,0,0,2.47-.5,22.89,22.89,0,0,0,2.41-.71c1.59-.51,3.15-1.11,4.7-1.7l2.31-.94,2.25-1a53.61,53.61,0,0,0,15.76-11.6,60.9,60.9,0,0,0,10.64-16.27c2.83-6,5.32-12.23,8.58-18.44a71.13,71.13,0,0,1,5.63-9.08A73.57,73.57,0,0,1,200,186.79a67.46,67.46,0,0,1,10.12-4.6c.87-.34,1.76-.64,2.65-.91s1.77-.58,2.71-.82a53.31,53.31,0,0,1,5.72-1.26,43.11,43.11,0,0,1,12.38-.32,34.57,34.57,0,0,1,6.62,1.54,30.85,30.85,0,0,1,6.46,3.26,32.78,32.78,0,0,1,2.89,2.23c.86.74,1.58,1.42,2.19,2a13.66,13.66,0,0,0,2.59,2.1c.45.19.14-.13-.08-.17s-.24-.1.13-.33a10.09,10.09,0,0,0,1.63-1.3A17,17,0,0,0,258,185.9l2.51-3.72c1-1.46,2.1-3.07,3.51-4.8a31.9,31.9,0,0,1,5.39-5.28,23.27,23.27,0,0,1,8.12-4l1.13-.32c.39-.08.79-.14,1.18-.21.79-.12,1.59-.23,2.39-.32s1.6,0,2.39,0l1.2,0,1.15.16c.76.11,1.54.23,2.28.39s1.43.39,2.14.61a15.81,15.81,0,0,1,2,.74c.65.28,1.31.55,1.92.85a38,38,0,0,1,11.38,9.15,48.17,48.17,0,0,1,7.07,11.33c.91,2,1.51,3.73,2.13,5.38l1.72,4.6A55.81,55.81,0,0,0,321,208a11.51,11.51,0,0,0,2.8,3.59c.19.12.08,0,0,0s0,0,0,0l0,0h0a.16.16,0,0,0-.09,0c-.07,0-.11.07-.18,0-.31.09-.39.11-.07-.11a13.07,13.07,0,0,0,1.74-1.75c1.59-1.81,3.59-4.67,6.63-8a34.35,34.35,0,0,1,6.1-5.26c1.78-1.15,3.59-2.24,5.46-3.2a61.89,61.89,0,0,1,11.77-4.66,58.68,58.68,0,0,1,25.61-1.43c8.48,1.52,15.14,4.27,20.53,5.6a31.58,31.58,0,0,0,7,1.08,29,29,0,0,0,6.7-.93c2.53-.59,5.31-1.54,8.41-2.6,1.56-.53,3.13-1.1,4.92-1.66s3.49-1.16,5.28-1.67a127.25,127.25,0,0,1,22.51-4.78,75.76,75.76,0,0,1,25.37,1.11c1.11.27,2.22.52,3.33.83l3.34,1.08,1.66.57,1.65.7c1.11.46,2.19,1,3.28,1.46s2.13,1.17,3.18,1.77a32.18,32.18,0,0,1,3.11,1.93l3,2.13c1,.72,1.88,1.51,2.8,2.29a93,93,0,0,1,8.76,9.13c.63.74,1.19,1.36,1.73,2.08a11.06,11.06,0,0,1,1.29,2.21,15.71,15.71,0,0,1,.82,2.39c.24.83.39,1.61.62,2.36a12.45,12.45,0,0,0,.76,2.07,8,8,0,0,0,1.07,1.62c.4.51.77.92,1.14,1.33a15.38,15.38,0,0,0,1.08,1.15,11.74,11.74,0,0,0,1.06.92,9.69,9.69,0,0,0,1,.75,7.07,7.07,0,0,0,1,.54,6.14,6.14,0,0,0,1.06.47c1.65.59,4.67,1.13,8.82,2.19a40.87,40.87,0,0,1,7,2.48c.62.27,1.29.63,1.95,1s1.32.74,1.94,1.14a30.18,30.18,0,0,1,3.53,2.66,34.42,34.42,0,0,1,5.7,6.35,37.06,37.06,0,0,1,3.81,7.3,34.48,34.48,0,0,1,2.21,16.15,32.94,32.94,0,0,1-2,8.26,35.4,35.4,0,0,1-3.48,6.61c-2.46,3.69-4.78,6.26-6.32,8.31-3,3.84-5.33,9.19-7.46,15.26s-3.89,12.89-6.76,20a66,66,0,0,1-5.49,10.59,44.77,44.77,0,0,1-3.74,5.05c-.68.81-1.41,1.59-2.13,2.37s-1.5,1.53-2.33,2.21-1.6,1.41-2.45,2c-.42.32-.86.68-1.25.95l-1.21.84c-.79.56-1.59,1.13-2.46,1.65s-1.7,1.08-2.63,1.56A38.2,38.2,0,0,1,501,352.44a30.23,30.23,0,0,1-7.25.25,33.49,33.49,0,0,1-3.62-.48c-1.15-.28-2.35-.53-3.44-.91-.54-.19-1.1-.38-1.63-.59l-1.56-.67c-.53-.21-.89-.71-1.4-.9s-1.09-.28-1.6-.42c-2.14-.51-4.39-.8-6.18-1.74-3.47-2-6.44-4-9.26-5.83s-5.36-3.49-7.86-4.79c-.62-.33-1.23-.62-1.84-.93s-1.2-.56-1.79-.79-1.16-.49-1.73-.68l-.85-.3-.78-.21a31.82,31.82,0,0,0-6.71-1.07,96.92,96.92,0,0,0-16.8.92c-3.14.32-6.58.67-9.74,1s-6.24.7-9.11,1.13a77.26,77.26,0,0,0-15.15,3.46c-.4.19-.81.34-1.22.5l-.62.22-.6.33-1.22.61c-.41.25-.82.52-1.25.77l-.63.36c-.22.13-.43.31-.65.46l-1.32.94c-.45.34-.9.77-1.38,1.11a12.42,12.42,0,0,1-1.68.93,10.24,10.24,0,0,1-2.13.68c-.4.05-.82.19-1.24.27s-.88.17-1.35.23c-.95.11-1.89.23-2.89.4s-2,.3-3,.49a22.41,22.41,0,0,0-5.49,1.82,36.22,36.22,0,0,0-4.46,3c-5.77,4.26-11.49,9.08-18.13,13.06l-1.24.75c-.43.24-.9.45-1.35.69a29.78,29.78,0,0,1-2.76,1.27,43.71,43.71,0,0,1-5.68,1.93c-1.91.5-3.79.89-5.65,1.2l-2.74.46c-.89.12-1.79.26-2.66.41-7,.95-13.15,2.13-17.71,4.37a15.29,15.29,0,0,0-1.66.86l-1.81,1q-2,1.06-4.12,2.27c-2.82,1.54-5.83,3.13-9.09,4.57-1.64.74-3.34,1.41-5.11,2.07-.87.35-1.81.6-2.72.89s-1.89.47-2.87.64a31.1,31.1,0,0,1-6,.41,48.46,48.46,0,0,1-5.78-.62c-1.87-.28-3.66-.64-5.41-.9A37.17,37.17,0,0,0,254,387a33.6,33.6,0,0,0-9.25,1.49c-6,1.61-10.06,4.27-12.74,9.11a58.39,58.39,0,0,0-3.65,8.5,42.11,42.11,0,0,1-5.27,10.47,24,24,0,0,1-10.81,8,34.75,34.75,0,0,1-6.08,1.72c-1,.17-2,.31-3,.45l-2.52.32q-10.11,1.23-20.26,2.21c-6.77.58-13.55,1.09-20.34,1.43-3.39.13-6.79.31-10.41.28a77.42,77.42,0,0,1-11.26-.77,56.66,56.66,0,0,1-5.91-1.18,44.24,44.24,0,0,1-11.65-4.89,58.42,58.42,0,0,1-5-3.42c-6.12-4.77-10.62-9.68-15.25-13.16-2.33-1.82-4.87-3.6-7.51-5.33s-5.46-3.43-8.33-5.14A162.44,162.44,0,0,1,67.34,385.5,73.8,73.8,0,0,1,59.06,378L57.2,375.8c-.3-.36-.61-.72-.91-1.1l-.84-1.16c-.56-.79-1.14-1.55-1.66-2.35l-1.46-2.48a51.42,51.42,0,0,1-6.56-21.37,72.77,72.77,0,0,1,1.7-21.3,122.08,122.08,0,0,1,6.35-19.7c.63-1.59,1.34-3.14,2-4.7L58,297c1.48-3.05,3-6.08,4.78-9a65.39,65.39,0,0,1,5.74-8.51,30.52,30.52,0,0,1,7.66-6.89A27.93,27.93,0,0,1,85.71,269a52.49,52.49,0,0,1,10.08-.7c6.73.08,13.4,1,20.13.79Zm0,.09a97.25,97.25,0,0,1-10.1.27c-3.36,0-6.72,0-10,.09-1.66,0-3.31.19-4.93.36a35,35,0,0,0-4.82.75,26.39,26.39,0,0,0-8.81,3.6,28.56,28.56,0,0,0-6.92,6.66,60.08,60.08,0,0,0-5.25,8.34c-1.55,2.93-2.94,5.95-4.27,9l-1.91,4.62c-.58,1.56-1.21,3.1-1.75,4.68a114,114,0,0,0-5.2,19.24,68.27,68.27,0,0,0-.66,19.82,45.49,45.49,0,0,0,6.58,18.57l1.35,2.1c.48.67,1,1.31,1.53,2l.77,1c.26.32.56.62.84.93L64,372.94a67.35,67.35,0,0,0,7.65,6.44c10.85,7.87,23.54,12.91,34.35,21,5.44,4,10.11,8.85,15.5,12.86,1.35,1,2.74,1.94,4.18,2.8a38.47,38.47,0,0,0,4.5,2.24,43,43,0,0,0,9.71,2.59c6.65,1,13.4.84,20.11.76s13.42-.29,20.13-.57,13.41-.64,20.11-1.09l2.51-.18c.84-.09,1.67-.16,2.51-.26a27.36,27.36,0,0,0,4.89-1.15,17.35,17.35,0,0,0,8.17-5.64,36.07,36.07,0,0,0,4.77-8.83,67.48,67.48,0,0,1,4.25-9.12,23.33,23.33,0,0,1,6.77-7.35,31.55,31.55,0,0,1,9.16-4.08c6.46-1.87,13.19-2.46,19.81-3.56a69.88,69.88,0,0,0,9.8-2.24,96.34,96.34,0,0,0,9.42-3.56l9.21-4.08a73.08,73.08,0,0,1,9.4-3.59c6.49-1.85,13.28-1.89,20-2.31a63.22,63.22,0,0,0,10-1.28,34.22,34.22,0,0,0,9.38-3.54l2.2-1.23c.71-.45,1.39-.94,2.09-1.4,1.42-.9,2.69-2,4-3a88.54,88.54,0,0,0,7.29-6.94c4.63-4.86,8.92-10,13.81-14.66a47.76,47.76,0,0,1,16.82-10.79,82.78,82.78,0,0,1,19.7-3.95c6.69-.61,13.41-.77,20.12-1a97,97,0,0,1,20.07,1.12,45.41,45.41,0,0,1,9.62,2.9,55.5,55.5,0,0,1,8.78,4.91c5.59,3.73,10.64,8.2,16.21,11.95a36.79,36.79,0,0,0,8.93,4.58,22.61,22.61,0,0,0,9.93,1,30.29,30.29,0,0,0,9.55-3c.77-.34,1.49-.77,2.22-1.18s1.45-.85,2.16-1.3,1.42-.9,2.09-1.41a24.42,24.42,0,0,0,2-1.54,33,33,0,0,0,6.59-7.56,48.08,48.08,0,0,0,4.41-9c2.33-6.31,3.73-12.9,5.43-19.39s3.7-13,7.19-18.74c1.73-2.87,3.76-5.56,5.42-8.48a24.85,24.85,0,0,0,2.1-4.57,19.65,19.65,0,0,0,1-4.93,21.86,21.86,0,0,0-7.69-17.83,22.12,22.12,0,0,0-9-4.33c-3.24-.88-6.56-1.44-9.74-2.54a28.73,28.73,0,0,1-8.71-5,54.9,54.9,0,0,1-7.09-7.13c-4.35-5.1-8.24-10.64-13.2-15.19a44.35,44.35,0,0,0-8.19-5.81l-2.27-1.08-1.14-.54-1.18-.45-2.36-.87c-.8-.25-1.61-.46-2.42-.69a62.68,62.68,0,0,0-20-1.82,107.67,107.67,0,0,0-19.87,3.08c-6.54,1.53-12.87,3.85-19.47,5.14a41.64,41.64,0,0,1-10,.83,45.58,45.58,0,0,1-9.9-1.75c-6.47-1.79-12.71-4.41-19.33-5.62a45.69,45.69,0,0,0-19.94.92,49.39,49.39,0,0,0-9.38,3.61c-1.5.75-2.94,1.6-4.36,2.49a22.4,22.4,0,0,0-3.81,3.27c-2.29,2.45-4.24,5.2-6.47,7.71s-4.85,4.85-8.18,5.62a12,12,0,0,1-9.59-2,23,23,0,0,1-6.33-7.75,70,70,0,0,1-4-9.23c-1.17-3.15-2.17-6.36-3.48-9.45a37,37,0,0,0-5.21-8.57,26.1,26.1,0,0,0-7.64-6.43,15,15,0,0,0-4.74-1.56l-.62-.11-.63,0-1.25,0-1.24.16c-.21,0-.42,0-.62.08l-.61.18c-3.29.78-6,3.07-8.14,5.58s-4,5.4-6.06,8a21,21,0,0,1-7.77,6.29,10.31,10.31,0,0,1-4.93.89,9.42,9.42,0,0,1-4.66-1.8c-2.74-2-4.68-4.84-7.43-6.78a21.32,21.32,0,0,0-4.39-2.41,26,26,0,0,0-4.83-1.35,35.79,35.79,0,0,0-10-.21,53.2,53.2,0,0,0-9.82,2.11,62.72,62.72,0,0,0-9.38,3.63,68.15,68.15,0,0,0-29.34,26.69c-3.47,5.75-6.33,11.83-9.58,17.71a89.7,89.7,0,0,1-5.31,8.56,54.82,54.82,0,0,1-6.54,7.65,56.11,56.11,0,0,1-16.67,11.14,52.66,52.66,0,0,1-9.55,3.16l-1.23.28-1.24.23c-.82.14-1.65.31-2.48.4s-1.66.25-2.5.33l-2.51.23Z"/></svg>