<svg id="Layer_1" data-name="Layer 1" xmlns="http://www.w3.org/2000/svg" viewBox="0 0 600 600"><title>Somalia</title><path d="M178.6,107.28a17.57,17.57,0,0,1-.33-4.74,44.12,44.12,0,0,1,.67-4.71,58.08,58.08,0,0,1,2.33-9.28,39,39,0,0,1,4.28-8.69,17.75,17.75,0,0,1,3.35-3.77,8.54,8.54,0,0,1,5-2h0l-.44.08a7.81,7.81,0,0,1,3.87-.45,11.8,11.8,0,0,1,3.55,1.05,29.19,29.19,0,0,1,5.83,3.78,113.07,113.07,0,0,1,9.66,9.24c1.53,1.57,3,3.15,4.57,4.62.76.74,1.53,1.45,2.3,2.08.39.32.78.61,1.16.87l.56.36.68.39A46.18,46.18,0,0,0,237,100.9a37.26,37.26,0,0,0,23.47-1.37,72.1,72.1,0,0,0,11-5.7,76.48,76.48,0,0,1,12.61-6.37,31.87,31.87,0,0,1,7.77-1.83,30.68,30.68,0,0,1,8.21.3c5.16.88,9.46,2.45,13.12,3.21a19.56,19.56,0,0,0,4.83.51,11.25,11.25,0,0,0,3.86-.9c2.65-1,5.69-3.31,9.34-6a68.1,68.1,0,0,1,6.17-4.09,41,41,0,0,1,3.75-1.91c.69-.28,1.38-.57,2.08-.82s1.42-.45,2.14-.66a42.2,42.2,0,0,1,8.21-1.36c2.6-.2,5-.22,7.29-.22a65.56,65.56,0,0,0,11.36-.58,12.62,12.62,0,0,0,3.5-1.19,6.31,6.31,0,0,1,.65-.4,4.81,4.81,0,0,0,.66-.47c.49-.37,1.11-.91,1.84-1.56a47.46,47.46,0,0,1,6.36-5.07,29,29,0,0,1,9.46-3.77,41.56,41.56,0,0,1,8.81-.84c2.74,0,5.27.21,7.63.44,4.55.45,8.76.95,12.53,1.13a33.81,33.81,0,0,0,9.82-.67,15.11,15.11,0,0,0,3.62-1.37A26.72,26.72,0,0,0,440.75,57c2.64-2,5.61-4.95,9.31-8.18a66.69,66.69,0,0,1,6.31-4.91c.63-.41,1.19-.79,1.88-1.2s1.56-.87,2.35-1.29,1.59-.7,2.39-1,1.59-.56,2.4-.83A34.83,34.83,0,0,1,475.3,38a29.48,29.48,0,0,1,10.8,1.83c.94.35,1.91.83,2.85,1.28a27.63,27.63,0,0,1,2.84,1.76,22.26,22.26,0,0,1,5.09,5.1,25.92,25.92,0,0,1,1.9,3.22,27.79,27.79,0,0,1,1.29,3.39,24,24,0,0,1,1,6.3c0,1.77,0,3.18-.09,4.29l-.23,3.42c-.16,2.29-.26,4.57-.48,6.85-.79,9.13-2.07,18.2-3.64,27.22s-3.65,18-6.15,26.77-5.28,17.56-8.63,26.1l-1.22,3.22-1.31,3.18c-.89,2.11-1.73,4.25-2.66,6.34-1.9,4.18-3.76,8.38-5.84,12.47-4,8.26-8.44,16.33-13.18,24.23L454,210.85l-3.62,5.73c-2.4,3.75-4.76,7.38-6.93,11a111.2,111.2,0,0,0-10.43,20.86c-2.37,6.62-3.81,14.3-5.57,23-.91,4.35-1.88,8.95-3.19,13.75a113,113,0,0,1-5.23,14.75,116.32,116.32,0,0,1-7.41,13.74,69,69,0,0,1-4.28,6.26,28.63,28.63,0,0,1-5.65,5,62.18,62.18,0,0,0-5.86,4.47c-.9.78-1.7,1.64-2.53,2.48l-2.48,2.46c-3.3,3.26-6.67,6.33-9.93,9.41s-6.48,6.05-9.6,9.13-6.18,6.21-9.18,9.4q-9,9.59-17.53,19.64c-2.85,3.37-5.62,6.73-8.43,10.21s-5.75,7.06-8.88,10.67-6.48,7.25-10.21,10.76a118.13,118.13,0,0,1-12,9.93c-4.09,3-8.16,5.57-12.08,8-1.95,1.21-3.9,2.3-5.77,3.41l-5.52,3.2c-1.82,1.07-3.67,2.08-5.52,3.1s-3.65,2.1-5.5,3.09L268,445.72l-2.83,1.39c-1.84,1-3.75,1.88-5.65,2.79-3.84,1.75-7.67,3.47-11.58,5.11l-2.95,1.21c-1,.39-2,.8-2.95,1.22L236.14,460c-3.94,1.67-7.72,3.53-11.5,5.46-1.88,1-3.71,2-5.48,3.15s-3.55,2.24-5.28,3.42-3.35,2.5-5,3.81-3.2,2.67-4.75,4.07c-3,2.87-5.85,5.9-8.57,9A119,119,0,0,0,188.3,499c-1.06,1.78-2.09,3.57-3.12,5.36L183.7,507c-.49.9-.89,1.85-1.32,2.79-1.64,3.78-3.46,7.39-4.75,11.22l-2.09,5.6c-.73,1.82-1.21,3.75-1.86,5.57s-1.23,3.66-1.93,5.4-1.07,3.64-1.71,5.38l-.92,2.63c-.31.87-.67,1.71-.9,2.6-.54,1.76-1.11,3.48-1.73,5.18-.3.86-.64,1.69-1,2.54l-.24.63-.63,1.49a36.66,36.66,0,0,1-2.17,4.2,37.35,37.35,0,0,1-4.43,6,34.79,34.79,0,0,1-9.38,7.32A32.76,32.76,0,0,1,134,579.46a30.87,30.87,0,0,1-6.9-.62,30.06,30.06,0,0,1-5.06-1.5,23.59,23.59,0,0,1-5.63-3c-1-.75-1.79-1.52-2.65-2.32a32.4,32.4,0,0,1-2.37-2.47c-.77-.84-1.46-1.72-2.12-2.6A55.53,55.53,0,0,1,103,556.23a141.3,141.3,0,0,1-7.06-19.29c-.86-3-1.61-6-2.22-9a74,74,0,0,1-1.26-8.61,56.82,56.82,0,0,1,0-8.14c.19-2.63.57-5.13.93-7.55.79-4.85,1.9-9.27,3-13.46s2-8.37,3-12.58,2.1-8.45,3.15-12.71c.5-2.13,1.07-4.26,1.48-6.41l.66-3.22c.18-1.07.38-2.15.53-3.22a89.55,89.55,0,0,0,.94-12.95c0-4.32-.19-8.64-.55-12.94s-.9-8.56-1.47-13.08c-.28-2.26-.57-4.55-.81-6.91s-.37-4.78-.44-7.27a57.43,57.43,0,0,1,1.68-15.64,50.59,50.59,0,0,1,2.65-7.64,65.57,65.57,0,0,1,3.44-6.92,126.65,126.65,0,0,1,7.82-11.81c5.18-7.12,10.71-13.84,16.09-20.83a41.51,41.51,0,0,1,6.22-6.76,26.28,26.28,0,0,1,2.42-1.81,22.59,22.59,0,0,1,2.84-1.61,25.5,25.5,0,0,1,3-1.21c.51-.17,1-.33,1.54-.48l1.55-.35a21.93,21.93,0,0,1,3.05-.43c1-.07,1.94-.09,2.85-.07s1.79.06,2.56.16l1.2.13,1.09.16c2.89.46,5,1,6.54,1.24.43.08.71.1,1.05.15a5.91,5.91,0,0,0,.79.06c.33,0,.94-.06,1.39-.11a4.81,4.81,0,0,0,.6-.14c.14-.08.31-.12.43-.18a1.84,1.84,0,0,0,.54-.42,13.36,13.36,0,0,0,1.11-1.83,40.77,40.77,0,0,0,2-4.34l.53-1.48c.19-.52.4-1,.56-1.59a3.38,3.38,0,0,1,.23-.53l.27-.59.57-1.18c.4-.78.74-1.63,1.19-2.38.89-1.52,1.74-3.15,2.79-4.59.5-.75,1-1.52,1.55-2.25l1.68-2.12.87-1.06.9-1c.6-.66,1.23-1.31,1.86-2,1.28-1.2,2.62-2.42,4-3.51a41.35,41.35,0,0,1,4.23-3l2.2-1.31c.72-.4,1.47-.74,2.22-1.1a41.24,41.24,0,0,1,9.1-3.13,63.32,63.32,0,0,1,9.06-1.12,77.31,77.31,0,0,1,8.87-.06c2.87.14,5.25.33,7.38.56,4.2.43,7.15.67,8.7.7.81,0,1.1.06,1.66,0a8.74,8.74,0,0,0,2.42-.57,45.29,45.29,0,0,0,8.52-4.55c3.61-2.26,7.3-4.61,10.91-6.94q10.89-7,21.31-14.45,5.15-3.8,10.19-7.7c3.33-2.63,6.59-5.34,9.82-8.06l5.47-4.65c1.07-.88,2.12-1.63,3.19-2.45s2.09-1.46,3.13-2.18c4.14-2.76,8-5.06,11.56-7.24a91.93,91.93,0,0,0,9.32-6.36,28.63,28.63,0,0,0,6.19-6.45l.54-.85.28-.43.18-.33a9.6,9.6,0,0,0,.65-1.37,11.15,11.15,0,0,0,.65-2.83,7.22,7.22,0,0,0-.05-2.13,3.44,3.44,0,0,0-.2-.75,4.16,4.16,0,0,1-.23-.42,4.85,4.85,0,0,1-.3-.41,6.47,6.47,0,0,0-2.42-1.66,20.23,20.23,0,0,0-4.49-1.28c-1.75-.36-3.69-.65-5.76-.88s-4.26-.51-6.71-.88c-1.18-.16-2.36-.39-3.54-.59l-3.48-.8c-2.32-.49-4.57-1.22-6.82-1.85s-4.42-1.51-6.6-2.23-4.31-1.6-6.41-2.44l-3.16-1.23c-1-.45-2.08-.85-3.12-1.27l-6.2-2.49c-4.12-1.66-8.17-3.4-12.2-5.13s-8.08-3.37-12.13-5-8.15-3.06-12.29-4.34l-3.11-1c-1-.27-2.05-.55-3.1-.79-2.09-.48-4.22-.88-6.37-1.26a68.36,68.36,0,0,1-13-3.23,33.29,33.29,0,0,1-6.08-3.13,44.38,44.38,0,0,1-5.3-4.16,94.43,94.43,0,0,1-9.12-9.67l-4.18-5.08c-1.38-1.67-2.84-3.29-4.32-4.9-3-3.21-6-6.37-8.93-9.65a96.84,96.84,0,0,1-8.19-10.32A37.1,37.1,0,0,1,178.6,107.28Zm.1,0a19.14,19.14,0,0,0,2.49,6l.83,1.39L183,116c.59.9,1.29,1.74,2,2.59a94.66,94.66,0,0,0,9.06,9.3c3.19,2.95,6.43,5.87,9.56,9,1.56,1.58,3.12,3.17,4.59,4.91l4.26,5a98.83,98.83,0,0,0,8.88,9.16,46.31,46.31,0,0,0,4.89,3.8,29.61,29.61,0,0,0,5.35,2.81,64.16,64.16,0,0,0,12.28,3.1c2.15.39,4.34.81,6.53,1.33,1.09.25,2.19.55,3.28.85l3.17,1c4.24,1.31,8.38,2.82,12.51,4.36s8.21,3.14,12.28,4.75,8.16,3.18,12.26,4.69c2.05.74,4.11,1.46,6.19,2.11l3.12,1,3.14.9c2.09.64,4.22,1.09,6.33,1.63s4.25.91,6.4,1.27,4.29.7,6.46.86l3.25.3,3.26.13c4.34.19,8.76,0,13.17.43s8.95,1.45,12.61,4.22a14.77,14.77,0,0,1,4.34,5.15,17,17,0,0,1,1.77,6.48,22.63,22.63,0,0,1-3,12.81,40,40,0,0,1-8.24,10.28,95.08,95.08,0,0,1-10.37,8.1c-3.6,2.51-7.25,4.92-10.76,7.54-.87.67-1.75,1.32-2.6,2s-1.7,1.39-2.51,2.12c-1.62,1.47-3.19,3-4.77,4.52q-9.51,9.07-19.44,17.68T281.94,289q-5.12,4.14-10.28,8.19a82.65,82.65,0,0,1-10.79,7.48,32.29,32.29,0,0,1-12.4,4.08,71,71,0,0,1-13.12-.15c-8.69-.83-17.63-.81-26.06,1.76a36.31,36.31,0,0,0-11.73,5.74l-1.3,1c-.42.36-.8.75-1.21,1.12a24.26,24.26,0,0,0-2.25,2.39c-.71.83-1.3,1.76-2,2.64L189.07,326a48.27,48.27,0,0,1-3.9,5.28,18.9,18.9,0,0,1-5,4.17,16.52,16.52,0,0,1-6.24,1.9,22.5,22.5,0,0,1-3.28.13,29.69,29.69,0,0,1-3.27-.34c-2.16-.35-4.3-.86-6.46-1.18a18.66,18.66,0,0,0-6.54,0,13.12,13.12,0,0,0-5.87,2.8,31.24,31.24,0,0,0-4.44,4.82l-16.2,20.7c-2.7,3.45-5.38,6.92-7.77,10.6a52.87,52.87,0,0,0-5.9,11.7,49.57,49.57,0,0,0-2.45,12.88,110.62,110.62,0,0,0,.13,13.13l.89,13.11c.27,4.38.46,8.75.61,13.13q.43,13.14.16,26.29t-1.26,26.25c-.65,8.73-1.55,17.5-.77,26.24a50.67,50.67,0,0,0,2.7,12.83,38.21,38.21,0,0,0,6.34,11.44,28.56,28.56,0,0,0,4.68,4.58,13.54,13.54,0,0,0,1.32,1c.47.3.9.64,1.38.89a15.79,15.79,0,0,0,2.94,1.46,3.84,3.84,0,0,0,3.18-.22,6.08,6.08,0,0,0,2.18-2.4c.56-.94.93-2,1.41-3l1.36-3a189.29,189.29,0,0,1,28-44.3,254.19,254.19,0,0,1,37.84-36.36,397.7,397.7,0,0,1,43.42-29.58l5.65-3.35,5.73-3.22c1.91-1.07,3.81-2.17,5.73-3.21l5.8-3.1c7.7-4.18,15.6-8,23.09-12.56a124.89,124.89,0,0,0,20.79-16c6.42-6,12.51-12.27,18.72-18.45l37.1-37.25a257.93,257.93,0,0,0,17.63-19.48,111.74,111.74,0,0,0,14.1-22.11c7.55-15.94,8.78-33.93,15.69-50.1a137.45,137.45,0,0,1,12.95-22.83c4.88-7.28,10.09-14.34,14.71-21.78l1.77-2.77,1.69-2.82,3.34-5.66c2.1-3.85,4.28-7.65,6.2-11.58s3.85-7.88,5.7-11.85c.91-2,1.73-4,2.6-6l1.29-3,1.2-3.06c3.28-8.13,6-16.47,8.49-24.86s4.42-17,6.13-25.55,2.84-17.3,3.65-26c.23-2.18.34-4.37.51-6.55s.38-4.37.33-6.56A10.9,10.9,0,0,0,486.92,55a11.12,11.12,0,0,0-5.18-3.85,17.56,17.56,0,0,0-6.42-1.09,23.24,23.24,0,0,0-6.47,1A20.5,20.5,0,0,0,463,53.84a55.7,55.7,0,0,0-5.21,4c-3.34,2.83-6.47,5.91-10,8.54A29.88,29.88,0,0,1,436,72a46,46,0,0,1-13.1.66c-4.37-.31-8.71-1-13.05-1.49s-8.77-.88-13.08,0a18.77,18.77,0,0,0-6.1,2.29,42.69,42.69,0,0,0-5.2,4A24.09,24.09,0,0,1,380,81a23.17,23.17,0,0,1-6.31,1.82,74.77,74.77,0,0,1-13.13.22,48,48,0,0,0-13.05.84c-4.29,1-8.07,3.39-11.71,5.78s-7.28,5-11.47,6.36a19,19,0,0,1-6.48,1,28,28,0,0,1-6.48-1c-4.23-1.13-8.3-2.85-12.59-3.74a24.4,24.4,0,0,0-12.93.74c-8.38,2.65-15.54,8.11-23.92,10.82A43.73,43.73,0,0,1,249,106a42.79,42.79,0,0,1-13-2,49,49,0,0,1-11.83-5.68,25.38,25.38,0,0,1-5-4.28c-1.52-1.58-3-3.22-4.44-4.85a109.89,109.89,0,0,0-9.15-9.41,26.11,26.11,0,0,0-5.37-3.74,8.07,8.07,0,0,0-6.31-.72h0A7.25,7.25,0,0,0,189.61,77a16.23,16.23,0,0,0-3.25,3.42,39.46,39.46,0,0,0-4.47,8.35,58.69,58.69,0,0,0-2.86,9,32.45,32.45,0,0,0-.74,4.69A16.65,16.65,0,0,0,178.7,107.26Z"/></svg>