<svg id="Layer_1" data-name="Layer 1" xmlns="http://www.w3.org/2000/svg" viewBox="0 0 600 600"><title>SouthKorea</title><path d="M215.73,499.62a2.46,2.46,0,0,1,2.24,1.73,9.35,9.35,0,0,0,1.47,2.52,8.78,8.78,0,0,0,4.72,3.13,5.9,5.9,0,0,0,5.06-1.29,14.94,14.94,0,0,0,3.39-4.37c.93-1.65,1.81-3.46,2.88-5.15a47.81,47.81,0,0,1,3.47-4.91A51.64,51.64,0,0,1,252.6,479.4c.86-.53,1.84-1,2.48-1.45s1.6-1.07,2.52-1.62a12.61,12.61,0,0,1,3.3-1.44,6.81,6.81,0,0,1,2.34-.14,4.91,4.91,0,0,1,2.64,1.25,5.06,5.06,0,0,1,1.41,2.47,8.11,8.11,0,0,1,.21,2.17,13,13,0,0,1-.64,3.6,17,17,0,0,1-3.52,6c-.37.43-.76.84-1.16,1.23l-1.06,1c-.69.68-1.37,1.34-2,2a12.6,12.6,0,0,0-2.68,3.81,3.44,3.44,0,0,0,0,3,4.85,4.85,0,0,0,2.53,2.1,6.93,6.93,0,0,0,1.85.49,5.8,5.8,0,0,0,.93,0l.44,0,.52-.07c2.77-.39,5.69-2.14,8.78-4.29a28.91,28.91,0,0,0,4-3.17,5.61,5.61,0,0,0,1.73-2.78,3.94,3.94,0,0,0,.06-.58,6.37,6.37,0,0,0-.07-.7,8.1,8.1,0,0,0-.48-1.8,36.63,36.63,0,0,0-2.21-4.59c-.46-.85-.94-1.73-1.43-2.72a22.18,22.18,0,0,1-1.46-3.43,15.25,15.25,0,0,1-.05-9,12.42,12.42,0,0,1,2.55-4.58,11.61,11.61,0,0,1,4.81-3.23,17.49,17.49,0,0,1,4.43-.8,16.67,16.67,0,0,0,2.3-.25s.49-.14.8-.24a9.39,9.39,0,0,0,.9-.34,6.46,6.46,0,0,0,1.4-.77,4.9,4.9,0,0,0,.92-.9,12.5,12.5,0,0,0,1-1.54c.37-.65.78-1.41,1.26-2.3s1-1.79,1.79-3a20.08,20.08,0,0,1,2.91-3.47,20.44,20.44,0,0,1,3.77-2.76,28.85,28.85,0,0,1,3.69-1.8c.66-.27.92-.39,1.36-.58l1.24-.57c1.71-.78,3.65-1.67,5.9-2.49a29.13,29.13,0,0,1,3.67-1.07l2-.44c.7-.12,1.46-.19,2.19-.26a24.06,24.06,0,0,1,4.71.05c.81.08,1.67.29,2.51.46.41.1.84.18,1.25.31l1.22.43a24.29,24.29,0,0,1,4.45,2.21l1.84,1.26c.57.42,1,.82,1.57,1.23,1.92,1.61,3.32,3,4.48,3.94a17.86,17.86,0,0,0,2.75,1.88c.2.09.4.14.58.22l.28.13c.1,0,.21.05.31.08a4.24,4.24,0,0,1,.61.17c.25.07.65.12,1,.19l1,.2.92.09a12.35,12.35,0,0,0,1.67.07,3.65,3.65,0,0,0,.7-.05,3.74,3.74,0,0,0,.62-.08,4.54,4.54,0,0,1,.5-.12c.18,0,.26-.12.4-.16a2.79,2.79,0,0,0,1.16-.8,7.83,7.83,0,0,0,1.31-1.88,6,6,0,0,0,.36-.72c.11-.27.25-.49.35-.79.22-.61.47-1.16.66-1.86l.32-1,.27-1.08c.19-.67.37-1.53.59-2.5.44-1.93,1-4.13,1.73-6.51a33.16,33.16,0,0,1,3.79-8.2,19.91,19.91,0,0,1,4.73-5.05l.86-.61c.32-.2.65-.39,1-.58a15.83,15.83,0,0,1,2.11-1,17.33,17.33,0,0,1,4.69-1.11,18.31,18.31,0,0,1,7.95,1.11c.56.19,1,.39,1.47.59s.95.43,1.33.64l1.19.66c.16.08.52.33.77.49l.82.57a23,23,0,0,1,4.3,4.23c.94,1.18,1.57,2.09,2.06,2.73a11.29,11.29,0,0,0,.93,1.14c.12.11,0-.05-.28-.25s.09,0,.22.09.38.16.59.23a13.36,13.36,0,0,0,1.34.4,14,14,0,0,0,3.1.36c.53,0,1.07,0,1.59-.07s1.24-.15,1.86-.28,1.25-.24,1.87-.44c.31-.1.62-.17.94-.27l.93-.33a29.53,29.53,0,0,0,7.31-3.92,38.07,38.07,0,0,0,6.56-6,44.48,44.48,0,0,0,2.83-3.58c.89-1.36,1.83-2.69,2.68-4.16s1.68-2.95,2.52-4.45,1.59-3.09,2.31-4.71a153.74,153.74,0,0,0,12.22-41.12,57.73,57.73,0,0,0,.56-9.57,45.41,45.41,0,0,0-1.19-9c-.16-.72-.36-1.41-.56-2.11l-.16-.52-.07-.25a1,1,0,0,0-.07-.19,1.12,1.12,0,0,1-.16-.28,25.52,25.52,0,0,0-1.62-2.47c-.81-1.13-1.88-2.5-3.15-4.16a61.4,61.4,0,0,1-4.31-6.25,31,31,0,0,1-3.87-10.27c-.09-.54-.17-1.08-.24-1.63l-.09-.7,0-.41-.16-1.63c-.1-1.09-.24-2.19-.31-3.27-.36-4.35-.5-8.63-.57-12.88-.06-8.46.33-16.69.84-24.57l.8-11.61c.29-3.8.5-7.5.67-11.13s.3-7.1.31-10.58a19.29,19.29,0,0,1,.32-5.14c.4-1.73,1.13-3.44,1.66-5.2a13.21,13.21,0,0,0,.64-5.16l-.16-2.52-.25-2.49-.17-1.24-.21-1.21-.44-2.42c-.41-1.56-.75-3.16-1.26-4.66a57.6,57.6,0,0,0-8.26-16.21c-.86-1.21-1.81-2.41-2.85-3.65-.51-.62-1-1.24-1.59-1.86s-1.1-1.25-1.71-1.88c-2.36-2.52-5-5.08-7.79-7.8s-5.75-5.56-8.68-8.69l-2.2-2.4-2.18-2.5-2.12-2.61-1.88-2.46a170.14,170.14,0,0,1-13.77-21,126.92,126.92,0,0,1-5.6-11.55c-.42-1-.82-2-1.21-3l-.59-1.51-.58-1.67c-.41-1.11-.73-2.23-1-3.36s-.56-2.25-.81-3.38a74.1,74.1,0,0,1-1.44-13.23c-.1-4.27.07-8.36.25-12.3s.29-7.71.27-11.36a35,35,0,0,0-1.33-9.59,24.12,24.12,0,0,0-1.59-4.14,11.45,11.45,0,0,0-2-2.85,3.63,3.63,0,0,0-1.72-1,5.12,5.12,0,0,0-2,.09l-.7.19a3.46,3.46,0,0,0-.57.24,7.24,7.24,0,0,0-1.24.73,21.6,21.6,0,0,0-3,2.64c-1.12,1.14-2.27,2.52-3.62,4l-4.26,4.62a130.38,130.38,0,0,1-19.47,17,101.53,101.53,0,0,1-23.75,12.57l-3.21,1.12c-1.08.36-2.16.76-3.25,1l-3.28.9-1.64.45-1.66.37a106.81,106.81,0,0,1-13.31,2.22c-2.21.2-4.46.46-6.66.49l-3.32.12-1.66.05-1.64,0L262,106.9l-1.65,0-.41,0-.21,0-.43,0c-.28,0-.57,0-.85,0l-.81.07a13.56,13.56,0,0,0-1.59.18c-1,.16-2,.39-2.93.63a20.51,20.51,0,0,0-2.68,1,17.35,17.35,0,0,0-2.53,1.31,9.11,9.11,0,0,1-2.69,1.47,13.52,13.52,0,0,1-1.87.4l-2.33.25a23.26,23.26,0,0,0-2.68.32,15.59,15.59,0,0,0-2.91.71,17.51,17.51,0,0,0-5.25,2.7,25.42,25.42,0,0,0-3.84,4.12,86,86,0,0,0-6.57,9.62L216.68,135a54.12,54.12,0,0,1-3.92,5.65c-2.66,3.4-5.36,6.3-7.69,9.13A37.32,37.32,0,0,0,202,154a15,15,0,0,0-1.72,4,5.92,5.92,0,0,0,0,2.93,4.63,4.63,0,0,0,.43,1c.05.1.19.47.29.75s.25.6.37.9l4.12,8.91c.77,1.77,1.62,3.72,2.31,5.84a60.32,60.32,0,0,1,1.68,6.3q.66,3.18,1.1,6.38c.3,2.13.48,4.26.72,6.36l.57,6.3c.18,2.09.32,4.16.45,6.32a40.69,40.69,0,0,0,.5,5.38,9.08,9.08,0,0,0,1.16,3.4l.17.25a1.62,1.62,0,0,1,.18.2,1.49,1.49,0,0,0,.17.18l.08.09h0c-.18-.17-.24-.19-.11-.13l.83.38c.42.18,1,.41,1.71.78a11.75,11.75,0,0,1,2.48,1.65,9.44,9.44,0,0,1,2.33,3.09,11.07,11.07,0,0,1,.62,1.78,10.54,10.54,0,0,1,.23,1.82,10.83,10.83,0,0,1-1.58,5.91,16.28,16.28,0,0,1-3.16,3.92,12.68,12.68,0,0,1-2.12,1.54,12.26,12.26,0,0,1-2.51,1,15.61,15.61,0,0,1-4.51.62,24.76,24.76,0,0,1-7.47-1.41l-1.55-.54-1.37-.5a20.48,20.48,0,0,0-2.28-.7,13.5,13.5,0,0,0-4.07-.48,4.15,4.15,0,0,0-2.27.75,4.47,4.47,0,0,0-1.14,1.86c-.15.43-.34,1.17-.64,2.24a18.3,18.3,0,0,1-1.56,4,12.78,12.78,0,0,1-1.66,2.39,11,11,0,0,1-1.19,1.17,8.55,8.55,0,0,1-.76.59c-.3.2-.6.4-.91.57a10.7,10.7,0,0,1-3.69,1.22,15.11,15.11,0,0,1-2.71.13l-1.7-.09a3.55,3.55,0,0,0-.8,0c-.07,0,0,0,0,0h.13l-.08,0a4.48,4.48,0,0,0-.52.22,7.78,7.78,0,0,0-2.32,1.81,15.23,15.23,0,0,0-2.23,3.2,22.3,22.3,0,0,0-1.62,4c-.1.35-.2.71-.29,1.07l-.13.55-.13.62c-.13.76-.26,1.43-.36,2.14a26.63,26.63,0,0,0,4.24,16.67,16.92,16.92,0,0,0,5.34,5.33c.51.2,1,.5,1.47.7.26.07.5.15.75.24a5.18,5.18,0,0,0,.81.26,26.39,26.39,0,0,1,4,1.3,15.51,15.51,0,0,1,2.85,1.61,16.93,16.93,0,0,1,2.38,2,19.66,19.66,0,0,1,3.29,4.44c.21.37.4.75.59,1.13l.26.58.2.45c.26.6.48,1.18.7,1.75.85,2.27,1.42,4.23,2,5.79l.41,1.1.44,1.09,1.08,2.5c.72,1.63,1.42,3.21,2.18,4.68l.58,1.1.29.53.15.26.07.1a2.31,2.31,0,0,0,.27.39,3.79,3.79,0,0,0,.41.5,26.7,26.7,0,0,0,3.2,2.83c1.44,1.15,3.21,2.46,5.17,4.32A24.12,24.12,0,0,1,214,336a20.38,20.38,0,0,1,1.48,5,26.5,26.5,0,0,1,.31,4.58,35.53,35.53,0,0,1-.32,3.93c-.16,1.22-.36,2.3-.58,3.44a66.28,66.28,0,0,1-4,12.94,58.39,58.39,0,0,1-2.93,6c-.27.49-.54,1-.82,1.44l-.43.74-.53.84c-.7,1.1-1.41,2.07-2.09,3-1.37,1.78-2.61,3.22-3.56,4.48-.47.62-.87,1.19-1.19,1.71a5.65,5.65,0,0,0-.61,1.18,12.73,12.73,0,0,0-.75,3.59l-.06,1c0,.18,0,.54,0,.95,0,.88.13,2,.08,3.61a18.69,18.69,0,0,1-.27,2.67,13.66,13.66,0,0,1-1,3.23,12.65,12.65,0,0,1-2.05,3.1,14.35,14.35,0,0,1-2.23,2,20.93,20.93,0,0,1-3.73,2.08c-.94.42-1.51.69-1.74.8a1.12,1.12,0,0,0-.5.32,4.16,4.16,0,0,0-.7,1,15.45,15.45,0,0,0-1.21,3.88,38.16,38.16,0,0,0-.59,5l-.15,2.83c0,.91-.08,1.82-.09,2.74a83.31,83.31,0,0,0,.52,10.95c.1.91.23,1.82.36,2.72l.48,2.87q.48,3,.84,6,.7,6,.86,12.1l0,1.39.07,1.34.24,2.9a38,38,0,0,1,.1,6.54,16.18,16.18,0,0,1-.77,3.7,9.11,9.11,0,0,1-2.49,3.87,8.84,8.84,0,0,1-4,2,16.86,16.86,0,0,1-3.49.38,38.36,38.36,0,0,0-5.36.22,4,4,0,0,0-1.68.64,3.21,3.21,0,0,0-1.09,1.36,7,7,0,0,0-.53,4.36,15.82,15.82,0,0,0,1.71,4.88,22.4,22.4,0,0,0,3.06,4.49c1.21,1.39,2.61,2.73,4,4.06,2.84,2.64,5.91,5.3,8.19,8.72s3.2,7.42,4.6,11a13.61,13.61,0,0,0,2.85,4.82,6.19,6.19,0,0,0,5,2,10.81,10.81,0,0,0,5.13-2.34,17.19,17.19,0,0,0,3.79-4.35,38.53,38.53,0,0,0,2.75-5.15c.81-1.77,1.55-3.58,2.23-5.41s1.33-3.67,2-5.51l1-2.77a7.27,7.27,0,0,1,.59-1.34,1.81,1.81,0,0,1,1.1-.91Zm0,.09a1.59,1.59,0,0,0-1.05.94,7,7,0,0,0-.49,1.37l-.84,2.8c-.56,1.88-1.12,3.75-1.73,5.62s-1.24,3.73-2,5.57a36,36,0,0,1-2.57,5.4,17.69,17.69,0,0,1-3.9,4.84,16.38,16.38,0,0,1-2.62,1.75,9.16,9.16,0,0,1-3.2,1.07,6.94,6.94,0,0,1-3.5-.48,9.3,9.3,0,0,1-2.83-1.87,15.31,15.31,0,0,1-3.41-5.34c-1.57-3.72-2.5-7.48-4.67-10.42s-5.09-5.5-8-8.07c-1.48-1.29-3-2.6-4.37-4.07a26.5,26.5,0,0,1-3.66-4.9,19.27,19.27,0,0,1-2.28-5.76,10.57,10.57,0,0,1,.52-6.41,6.81,6.81,0,0,1,2-2.76,7.53,7.53,0,0,1,3-1.47,34.06,34.06,0,0,1,6-.58c1.88-.12,3.72-.4,4.86-1.48s1.56-2.9,1.68-4.73c.22-3.71-.75-7.57-.95-11.54s-.71-7.73-1.32-11.57q-.45-2.88-1.05-5.73c-.4-1.89-.82-3.84-1.13-5.77a89,89,0,0,1-1.12-11.74c-.06-2,0-3.92,0-5.88a50.65,50.65,0,0,1,.39-5.89,23.18,23.18,0,0,1,1.5-5.76,10.4,10.4,0,0,1,3.65-4.72c1.67-1.14,3.57-1.73,5.09-2.87a5.39,5.39,0,0,0,1.79-2.1,6.63,6.63,0,0,0,.53-2.76c0-1.92-.36-3.89-.21-5.86a22.07,22.07,0,0,1,1-5.81,19.21,19.21,0,0,1,2.75-5.2c1.13-1.6,2.36-3.12,3.5-4.7a34.12,34.12,0,0,0,3-5c.9-1.73,1.73-3.5,2.47-5.3a57.48,57.48,0,0,0,3.3-11.21,34.22,34.22,0,0,0,.65-5.8,13,13,0,0,0-1.07-5.7,14.84,14.84,0,0,0-3.46-4.67c-1.42-1.35-3-2.52-4.52-3.72a35.94,35.94,0,0,1-4.38-3.88,21.3,21.3,0,0,1-3.2-4.88c-.9-1.74-1.72-3.51-2.5-5.3s-1.53-3.6-2.14-5.45-1.16-3.73-1.83-5.57a13.46,13.46,0,0,0-2.88-5.05,7.94,7.94,0,0,0-2.38-1.67,20.57,20.57,0,0,0-2.78-.92c-.94-.27-1.82-.69-2.74-1s-1.72-.93-2.58-1.38a25.66,25.66,0,0,1-8-8.45,34.29,34.29,0,0,1-4.2-10.87,32.77,32.77,0,0,1-.35-11.64,32,32,0,0,1,4-11,22.26,22.26,0,0,1,3.63-4.57,14.18,14.18,0,0,1,4.9-3.14,8.23,8.23,0,0,1,2.85-.58c1,0,1.95.16,2.92.21a4.47,4.47,0,0,0,4.84-2.55c1-1.72,1.28-3.69,2-5.49a10.17,10.17,0,0,1,3.59-4.52,10.48,10.48,0,0,1,5.56-1.59,20.09,20.09,0,0,1,5.77.84c1.89.51,3.68,1.33,5.52,2a18.56,18.56,0,0,0,5.7,1.22,7.66,7.66,0,0,0,5.45-1.73,6.35,6.35,0,0,0,2.35-5.13,3.75,3.75,0,0,0-1.32-2.53,9.36,9.36,0,0,0-2.57-1.38,8.66,8.66,0,0,1-2.53-1.43,9.52,9.52,0,0,1-1.77-2.32,16.18,16.18,0,0,1-1.71-5.57c-.29-1.93-.37-3.89-.51-5.84a82.5,82.5,0,0,0-1.71-11.58,89.16,89.16,0,0,0-7.95-22A60.32,60.32,0,0,1,192.1,166a17.43,17.43,0,0,1-.69-5.79,16.71,16.71,0,0,1,1.52-5.62,40.67,40.67,0,0,1,6.73-9.54c2.58-2.93,5.33-5.71,7.83-8.72a38.83,38.83,0,0,0,3.44-4.73c1-1.68,1.93-3.4,2.86-5.11,1.87-3.43,3.68-6.89,5.6-10.3,3.84-6.75,8-13.53,14.06-18.58a36.64,36.64,0,0,1,21.35-8.65,80.18,80.18,0,0,1,11.69.5c3.89.26,7.8.38,11.71.29a101.15,101.15,0,0,0,23.17-3.06A86,86,0,0,0,323,77.83a102.68,102.68,0,0,0,18.76-13.95L346,59.81c1.37-1.4,2.73-2.8,4.16-4.13a27.2,27.2,0,0,1,4.66-3.53,15.3,15.3,0,0,1,5.48-2,12.57,12.57,0,0,1,5.78.41,12.24,12.24,0,0,1,4.86,3.18A24.94,24.94,0,0,1,376.33,64a46.5,46.5,0,0,1,1.79,11.54c.11,3.91,0,7.81,0,11.72-.12,7.79-.18,15.69,1.7,23.3a54.29,54.29,0,0,0,4,11,104.17,104.17,0,0,0,5.64,10.26,152.48,152.48,0,0,0,14.06,18.72c10,12.11,23.87,20.24,33.58,32.59a66.15,66.15,0,0,1,10.7,20.71c.63,1.85,1.08,3.75,1.59,5.64.23,1,.42,1.91.63,2.86s.4,1.91.55,2.88A108.06,108.06,0,0,1,452,226.84c1.14,15.63-.91,31.23-2.63,46.72-.88,7.77-1.68,15.54-2,23.34-.15,3.91-.23,7.81-.11,11.72,0,1,.09,1.95.13,2.92a28.26,28.26,0,0,0,.23,2.92,16.78,16.78,0,0,0,2,5.47c1.86,3.44,4.37,6.47,6.46,9.76a29.15,29.15,0,0,1,2.72,5.19,40.72,40.72,0,0,1,1.48,5.67,66.91,66.91,0,0,1,.18,23.32A166.44,166.44,0,0,1,455,386.65a160.58,160.58,0,0,1-8.51,21.82c-.82,1.77-1.76,3.49-2.65,5.22s-1.9,3.42-3,5.06-2.14,3.27-3.25,4.87a57.82,57.82,0,0,1-3.7,4.55,50.91,50.91,0,0,1-8.74,7.78,41.86,41.86,0,0,1-10.37,5.37,33.49,33.49,0,0,1-11.51,2,23.7,23.7,0,0,1-11.23-3,14.57,14.57,0,0,1-4.08-4.16,20.12,20.12,0,0,0-3.77-4.44,11.29,11.29,0,0,0-2.57-1.36,6.6,6.6,0,0,0-2.85-.46,6.42,6.42,0,0,0-4.64,3.16,21.79,21.79,0,0,0-2.44,5.3c-.61,1.85-1.1,3.74-1.57,5.64A39.44,39.44,0,0,1,366.07,455a15.83,15.83,0,0,1-8.78,7.39c-3.76,1.24-7.81.88-11.6,0a20.46,20.46,0,0,1-5.5-2,26.41,26.41,0,0,1-4.7-3.49c-1.43-1.33-2.78-2.75-4.23-4.06a16.23,16.23,0,0,0-4.83-3.23l-.67-.29a7.15,7.15,0,0,0-.7-.19c-.47-.11-.93-.28-1.41-.35a15,15,0,0,0-2.91-.16c-.49,0-1,0-1.46.06l-1.44.23a21.81,21.81,0,0,0-2.87.59c-1.88.51-3.72,1.16-5.57,1.78a42.8,42.8,0,0,0-5.5,2,12.27,12.27,0,0,0-4.43,3.72c-1.15,1.57-2.08,3.3-3.19,4.91a13.42,13.42,0,0,1-4.14,4.11,16.1,16.1,0,0,1-5.51,1.93c-1.94.27-3.94,0-5.81.57a6.2,6.2,0,0,0-3.87,4.05,10.05,10.05,0,0,0-.12,5.75,36.75,36.75,0,0,0,2.34,5.35,37.69,37.69,0,0,1,2.31,5.39,12.73,12.73,0,0,1,.59,2.87,8,8,0,0,1-.26,2.92,10.43,10.43,0,0,1-3.22,4.83,35.54,35.54,0,0,1-4.73,3.45c-3.26,2.09-6.75,4.15-10.7,4.57a10.69,10.69,0,0,1-5.73-1,8.35,8.35,0,0,1-4.13-4,6.88,6.88,0,0,1,.14-5.72,16.07,16.07,0,0,1,3.51-4.67c1.37-1.4,2.91-2.62,4.25-4a14.31,14.31,0,0,0,3.08-4.91,10.56,10.56,0,0,0,.59-2.84,3.52,3.52,0,0,0-.76-2.69,3,3,0,0,0-2.71-.54,10.78,10.78,0,0,0-2.69,1.09c-.85.47-1.67,1-2.51,1.49s-1.74.89-2.59,1.38a46.17,46.17,0,0,0-5,3.11A49.23,49.23,0,0,0,240,492.2a47.15,47.15,0,0,0-3.56,4.64c-1.1,1.61-2,3.33-3.05,5a15.38,15.38,0,0,1-3.77,4.45,6.23,6.23,0,0,1-5.57,1,9.85,9.85,0,0,1-4.65-3.44,13,13,0,0,1-1.51-2.5,3.28,3.28,0,0,0-.86-1.15,1.74,1.74,0,0,0-1.29-.42Z"/><path d="M149.54,523.89a2.28,2.28,0,0,0-2.29-.88,1.72,1.72,0,0,0-1.07,1.75,4.22,4.22,0,0,0,.49,1.94,5.85,5.85,0,0,0,.88,1.34,2,2,0,0,0,.82.62c.12.06.19.06.31.11a1.25,1.25,0,0,0,.26.07.69.69,0,0,0,.65-.22,2.34,2.34,0,0,0,.55-1,4,4,0,0,0,.18-1.26A4.36,4.36,0,0,0,149.54,523.89Zm0,0a12.52,12.52,0,0,1,1.32,2.39,5.83,5.83,0,0,1,.6,3.06,3.08,3.08,0,0,1-1,1.85,3.83,3.83,0,0,1-2,.93,4.09,4.09,0,0,1-2.15-.18,4.73,4.73,0,0,1-1.79-1.21,5.27,5.27,0,0,1-1.31-3.47,5.52,5.52,0,0,1,.26-1.76,5.11,5.11,0,0,1,.82-1.55,3.3,3.3,0,0,1,2.85-1.48A3.58,3.58,0,0,1,149.54,523.89Z"/><path d="M169.59,515a5.69,5.69,0,0,0-.28-5.53,4.14,4.14,0,0,0-2.12-1.58,6.06,6.06,0,0,0-2.61-.2,8.7,8.7,0,0,0-4.55,2.09,9.38,9.38,0,0,0-2.8,3.71,6.3,6.3,0,0,0-.39,2,5.73,5.73,0,0,0,.44,2.1,5.62,5.62,0,0,0,1.14,1.89,4,4,0,0,0,2,1,6.73,6.73,0,0,0,2.61-.19,10.47,10.47,0,0,0,2.59-1.15A10.81,10.81,0,0,0,169.59,515Zm0,0a16.37,16.37,0,0,1-3.67,4.6,10.62,10.62,0,0,1-5.53,2.92,6.25,6.25,0,0,1-3.57-.71,7.86,7.86,0,0,1-2.6-2.56,8,8,0,0,1-1.24-3.47,8.48,8.48,0,0,1,.52-3.72,10.18,10.18,0,0,1,4.63-5.15,11,11,0,0,1,3.18-1.16l.84-.13c.28,0,.57,0,.85,0a9,9,0,0,1,1.65.11,8.28,8.28,0,0,1,3.07,1.11,5.45,5.45,0,0,1,2.07,2.4A7.07,7.07,0,0,1,169.59,515Z"/><path d="M147,503.42a5.72,5.72,0,0,0,4.66,3,4.16,4.16,0,0,0,2.52-.82,6.17,6.17,0,0,0,1.68-2,8.81,8.81,0,0,0,.94-4.92,9.38,9.38,0,0,0-1.4-4.42,6.25,6.25,0,0,0-1.43-1.51,6.08,6.08,0,0,0-2-.86,5.92,5.92,0,0,0-2.2-.16,4,4,0,0,0-2,1,6.57,6.57,0,0,0-1.35,2.24,10.57,10.57,0,0,0-.58,2.78A10.94,10.94,0,0,0,147,503.42Zm0,0a16.7,16.7,0,0,1-1.63-5.66,10.63,10.63,0,0,1,.84-6.2,6.21,6.21,0,0,1,2.64-2.5,8.25,8.25,0,0,1,7.14.37,8.54,8.54,0,0,1,2.73,2.58,10.26,10.26,0,0,1,1.52,6.76,10.84,10.84,0,0,1-.91,3.26l-.38.76c-.14.24-.31.48-.46.71a8.73,8.73,0,0,1-1.05,1.28,8.11,8.11,0,0,1-2.69,1.86,5.36,5.36,0,0,1-3.15.3A7.06,7.06,0,0,1,147,503.42Z"/><path d="M139.73,483.28a6.86,6.86,0,0,0,1.19,2.13,2.58,2.58,0,0,0,1.94,1.08c.68-.07,1.12-.72,1.38-1.4a7.9,7.9,0,0,0,.45-2.22,18,18,0,0,0-.36-4.52,23.47,23.47,0,0,0-1.13-4.15,8.15,8.15,0,0,0-.83-1.57,2.72,2.72,0,0,0-.83-.75c-.12-.05-.13-.1-.21-.13s-.26.05-.44.24a5,5,0,0,0-1,1.75,14.88,14.88,0,0,0-.83,4.71A14.64,14.64,0,0,0,139.73,483.28Zm0,0a41.92,41.92,0,0,1-1.2-4.79,25.24,25.24,0,0,1-.6-5.09,7.16,7.16,0,0,1,.57-2.88,3.62,3.62,0,0,1,1.25-1.51,3.56,3.56,0,0,1,2.16-.57,5.17,5.17,0,0,1,3.35,1.62,8.88,8.88,0,0,1,1.65,2.65,13.57,13.57,0,0,1,.85,5.43,14.59,14.59,0,0,1-1.15,5.23,9.56,9.56,0,0,1-1.35,2.33,4.07,4.07,0,0,1-1,1,2.05,2.05,0,0,1-1.4.37,3.23,3.23,0,0,1-2-1.53A9.27,9.27,0,0,1,139.73,483.28Z"/><path d="M160.22,473.71a2.24,2.24,0,0,0-2.29-.88,1.7,1.7,0,0,0-1.07,1.74,4.11,4.11,0,0,0,.5,1.94,5.84,5.84,0,0,0,.87,1.35,2.15,2.15,0,0,0,.82.62c.12,0,.19.06.31.1a2.58,2.58,0,0,0,.26.08.72.72,0,0,0,.65-.23,2.49,2.49,0,0,0,.56-.95,4.1,4.1,0,0,0,.17-1.27A4.3,4.3,0,0,0,160.22,473.71Zm0,0a11.92,11.92,0,0,1,1.32,2.38,5.73,5.73,0,0,1,.6,3.06,3.08,3.08,0,0,1-1,1.85,3.68,3.68,0,0,1-2,.93,4.09,4.09,0,0,1-2.15-.17,4.75,4.75,0,0,1-1.79-1.22,5.27,5.27,0,0,1-1.31-3.47,5.46,5.46,0,0,1,.26-1.75,5.39,5.39,0,0,1,.82-1.56,3.31,3.31,0,0,1,2.86-1.48A3.56,3.56,0,0,1,160.22,473.71Z"/><path d="M155.48,465.25a1.88,1.88,0,0,0-1.78-.76,1.5,1.5,0,0,0-1.08,1.31,3.86,3.86,0,0,0,.9,3,1.67,1.67,0,0,0,1.07.59,1.09,1.09,0,0,0,1.19-.41,3,3,0,0,0,.39-1.84A3.82,3.82,0,0,0,155.48,465.25Zm0,0a7,7,0,0,1,1,1.86,4.21,4.21,0,0,1,.28,2.26,2.09,2.09,0,0,1-.71,1.21,2.71,2.71,0,0,1-1.33.57,2.87,2.87,0,0,1-1.44-.15,3.34,3.34,0,0,1-1.19-.82,4,4,0,0,1-.33-4.78,2.28,2.28,0,0,1,2-1.18A2.56,2.56,0,0,1,155.48,465.25Z"/><path d="M149.7,458.39a1.9,1.9,0,0,0-1.79-.75,1.5,1.5,0,0,0-1.08,1.31,3.91,3.91,0,0,0,.91,3,1.74,1.74,0,0,0,1.07.59,1.07,1.07,0,0,0,1.18-.41,2.85,2.85,0,0,0,.39-1.84A3.84,3.84,0,0,0,149.7,458.39Zm0,0a7.16,7.16,0,0,1,1,1.87,4.18,4.18,0,0,1,.28,2.26,2.17,2.17,0,0,1-.72,1.21,2.64,2.64,0,0,1-1.32.57,2.87,2.87,0,0,1-1.44-.15,3.27,3.27,0,0,1-1.19-.83,4,4,0,0,1-.34-4.78,2.32,2.32,0,0,1,2-1.18A2.58,2.58,0,0,1,149.7,458.39Z"/><path d="M173.07,471.28a6.7,6.7,0,0,0,2.23,1,2.58,2.58,0,0,0,2.2-.33,1.91,1.91,0,0,0,.24-1.95,8.05,8.05,0,0,0-1-2,18,18,0,0,0-3-3.36,24,24,0,0,0-3.43-2.6,8.1,8.1,0,0,0-1.62-.74,2.82,2.82,0,0,0-1.11-.09c-.12,0-.16,0-.24,0a.63.63,0,0,0-.2.46,4.8,4.8,0,0,0,.29,2,15,15,0,0,0,2.21,4.24A14.49,14.49,0,0,0,173.07,471.28Zm0,0a40.08,40.08,0,0,1-3.88-3.06,25.46,25.46,0,0,1-3.58-3.67,7.21,7.21,0,0,1-1.31-2.63,3.59,3.59,0,0,1,.08-2,3.47,3.47,0,0,1,1.36-1.77,5.13,5.13,0,0,1,3.64-.75,8.4,8.4,0,0,1,2.92,1.09,13.38,13.38,0,0,1,4,3.78,14.4,14.4,0,0,1,2.28,4.85,9.55,9.55,0,0,1,.35,2.67,4.42,4.42,0,0,1-.22,1.38,2.11,2.11,0,0,1-.88,1.15,3.23,3.23,0,0,1-2.55,0A9.28,9.28,0,0,1,173.07,471.28Z"/><path d="M178,452.68a1.9,1.9,0,0,0-1.79-.76,1.5,1.5,0,0,0-1.08,1.31,3.93,3.93,0,0,0,.9,3,1.67,1.67,0,0,0,1.07.59,1.09,1.09,0,0,0,1.19-.41,3,3,0,0,0,.39-1.84A3.9,3.9,0,0,0,178,452.68Zm0,0a7.59,7.59,0,0,1,1,1.86,4.21,4.21,0,0,1,.27,2.26,2,2,0,0,1-.71,1.21,2.67,2.67,0,0,1-1.33.57,2.87,2.87,0,0,1-1.44-.15,3.34,3.34,0,0,1-1.19-.82,4,4,0,0,1-.33-4.78,2.28,2.28,0,0,1,2-1.18A2.6,2.6,0,0,1,178,452.68Z"/><path d="M160.49,449.7a1.9,1.9,0,0,0-1.78-.75,1.5,1.5,0,0,0-1.09,1.31,3.91,3.91,0,0,0,.91,3,1.69,1.69,0,0,0,1.07.59,1.07,1.07,0,0,0,1.18-.41,2.85,2.85,0,0,0,.39-1.84A3.78,3.78,0,0,0,160.49,449.7Zm0,0a7.32,7.32,0,0,1,.95,1.87,4.18,4.18,0,0,1,.28,2.26A2.15,2.15,0,0,1,161,455a2.71,2.71,0,0,1-1.33.57,2.87,2.87,0,0,1-1.44-.15,3.24,3.24,0,0,1-1.19-.83,4,4,0,0,1-.33-4.77,2.26,2.26,0,0,1,2-1.18A2.51,2.51,0,0,1,160.49,449.7Z"/><path d="M163.88,441.49a4.46,4.46,0,0,0-.42,4.39,3.15,3.15,0,0,0,1.49,1.44,4.93,4.93,0,0,0,2,.38,7,7,0,0,0,3.68-1.2A7.52,7.52,0,0,0,173.1,444a4.63,4.63,0,0,0,.53-1.39,5.09,5.09,0,0,0-.57-3.11,2.86,2.86,0,0,0-1.26-1,6.11,6.11,0,0,0-4.22.26A8.28,8.28,0,0,0,163.88,441.49Zm0,0a14.27,14.27,0,0,1,3.44-3.22,8.71,8.71,0,0,1,4.79-1.76,5.19,5.19,0,0,1,2.9,1,6.42,6.42,0,0,1,1.86,2.44,6.59,6.59,0,0,1,.61,3.05,7.23,7.23,0,0,1-.91,3,8.34,8.34,0,0,1-4.51,3.6,8.66,8.66,0,0,1-2.76.48,6.57,6.57,0,0,1-1.4-.12,7.1,7.1,0,0,1-1.32-.34,6.51,6.51,0,0,1-2.31-1.36,4.4,4.4,0,0,1-1.32-2.23A5.8,5.8,0,0,1,163.88,441.49Z"/><path d="M156.54,440a4.93,4.93,0,0,0,.3-1.61,1.63,1.63,0,0,0-.52-1.4c-.41-.23-.93.05-1.34.33a5.83,5.83,0,0,0-1.14,1.08,17.55,17.55,0,0,0-2.89,5.44,5.55,5.55,0,0,0-.25,1.32,1.5,1.5,0,0,0,.17.86c.06.06,0,.1.14.12a.91.91,0,0,0,.49-.09,4.92,4.92,0,0,0,1.25-.78A13.15,13.15,0,0,0,156.54,440Zm0,0a28.33,28.33,0,0,1-1.34,3,20.28,20.28,0,0,1-1.72,2.92,5.94,5.94,0,0,1-1.29,1.32,2.51,2.51,0,0,1-1.07.44,1.81,1.81,0,0,1-1.38-.4,3,3,0,0,1-1-2.13,6,6,0,0,1,.26-1.93,10.54,10.54,0,0,1,1.66-3.15,11.52,11.52,0,0,1,2.48-2.45,7.66,7.66,0,0,1,1.52-.87,1.41,1.41,0,0,1,2.22,1.6A6.73,6.73,0,0,1,156.54,440Z"/><path d="M193.19,544.69a6.72,6.72,0,0,0-1,2.23,2.55,2.55,0,0,0,.31,2.2,1.91,1.91,0,0,0,1.95.26,7.7,7.7,0,0,0,2-1,18.32,18.32,0,0,0,3.39-3,23.37,23.37,0,0,0,2.62-3.41,7.59,7.59,0,0,0,.75-1.61,2.69,2.69,0,0,0,.1-1.11c0-.13,0-.16,0-.24a.59.59,0,0,0-.45-.21,5,5,0,0,0-2,.28,15,15,0,0,0-4.25,2.17A14.68,14.68,0,0,0,193.19,544.69Zm0,0a41.66,41.66,0,0,1,3.09-3.85,25.54,25.54,0,0,1,3.7-3.55,7.24,7.24,0,0,1,2.64-1.29,3.7,3.7,0,0,1,2,.09,3.49,3.49,0,0,1,1.76,1.38,5.14,5.14,0,0,1,.72,3.65A8.65,8.65,0,0,1,206,544a13.74,13.74,0,0,1-3.81,4,14.7,14.7,0,0,1-4.87,2.24,9.54,9.54,0,0,1-2.67.33,4.5,4.5,0,0,1-1.39-.23,2.13,2.13,0,0,1-1.13-.89,3.23,3.23,0,0,1,0-2.55A9,9,0,0,1,193.19,544.69Z"/><path d="M212.21,526.84a2.83,2.83,0,0,0,.48,2.85,2.36,2.36,0,0,0,2.43.67,3,3,0,0,0,1.11-.47,4.37,4.37,0,0,0,.82-.72,4.08,4.08,0,0,0,.89-1.52,2.61,2.61,0,0,0,0-1.55c-.22-.66-.39-1.29-1-1.62a2.92,2.92,0,0,0-2.61.19A4.47,4.47,0,0,0,212.21,526.84Zm0,0a9.2,9.2,0,0,1,1.77-2.61,6.81,6.81,0,0,1,1.31-1.1,3.93,3.93,0,0,1,1.83-.65,3.76,3.76,0,0,1,2.18.46,4.28,4.28,0,0,1,.9.64,4.13,4.13,0,0,1,.73.78,5.06,5.06,0,0,1,.95,2,5.23,5.23,0,0,1-.11,2.39,5.45,5.45,0,0,1-6.84,3.55,4.12,4.12,0,0,1-2.71-2.37A4.33,4.33,0,0,1,212.21,526.84Z"/><path d="M222.69,532.85a2.83,2.83,0,0,0,.48,2.85,2.38,2.38,0,0,0,2.44.67,2.77,2.77,0,0,0,1.1-.48,3.53,3.53,0,0,0,.82-.71,4,4,0,0,0,.89-1.52,2.62,2.62,0,0,0,0-1.55,2.4,2.4,0,0,0-1-1.62,2.92,2.92,0,0,0-2.61.19A4.56,4.56,0,0,0,222.69,532.85Zm0,0a9.2,9.2,0,0,1,1.77-2.61,7.48,7.48,0,0,1,1.31-1.1,3.93,3.93,0,0,1,1.84-.65,3.74,3.74,0,0,1,2.17.46,4,4,0,0,1,.9.64,3.9,3.9,0,0,1,.74.78,4.92,4.92,0,0,1,.94,2,5.09,5.09,0,0,1-.11,2.39,5.45,5.45,0,0,1-6.84,3.55A4.17,4.17,0,0,1,222.7,536,4.33,4.33,0,0,1,222.69,532.85Z"/><path d="M217.26,516a2.85,2.85,0,0,0,.48,2.86,2.4,2.4,0,0,0,2.44.67,2.92,2.92,0,0,0,1.1-.48,4.34,4.34,0,0,0,1.71-2.24,2.61,2.61,0,0,0,0-1.55,2.42,2.42,0,0,0-1-1.62,3,3,0,0,0-2.61.2A4.54,4.54,0,0,0,217.26,516Zm0,0a9.3,9.3,0,0,1,1.77-2.6,7.07,7.07,0,0,1,1.31-1.1,3.82,3.82,0,0,1,4-.2,4.28,4.28,0,0,1,.9.64,4.52,4.52,0,0,1,.74.78,4.9,4.9,0,0,1,.83,4.43,5.47,5.47,0,0,1-6.84,3.56,4.22,4.22,0,0,1-2.71-2.37A4.36,4.36,0,0,1,217.26,516Z"/><path d="M225.9,522.46a2.85,2.85,0,0,0,.47,2.85,2.38,2.38,0,0,0,2.44.67,2.88,2.88,0,0,0,1.11-.48,4,4,0,0,0,.82-.71,4.08,4.08,0,0,0,.89-1.52,2.7,2.7,0,0,0,0-1.55c-.22-.66-.39-1.29-1-1.62a2.92,2.92,0,0,0-2.61.19A4.47,4.47,0,0,0,225.9,522.46Zm0,0a9,9,0,0,1,1.77-2.61,6.81,6.81,0,0,1,1.31-1.1,3.93,3.93,0,0,1,1.83-.65,3.76,3.76,0,0,1,2.18.46,4,4,0,0,1,.9.64,3.85,3.85,0,0,1,.73.78,5.06,5.06,0,0,1,.95,2,5.23,5.23,0,0,1-.11,2.39,5.45,5.45,0,0,1-6.84,3.55,4.12,4.12,0,0,1-2.71-2.37A4.28,4.28,0,0,1,225.9,522.46Z"/><path d="M248.65,508.47a2.88,2.88,0,0,0-2.29,1.78,2.38,2.38,0,0,0,.57,2.46,2.93,2.93,0,0,0,.94.75,4.08,4.08,0,0,0,1,.38,4.15,4.15,0,0,0,1.77.06,2.62,2.62,0,0,0,1.36-.73,2.47,2.47,0,0,0,.94-1.67,3,3,0,0,0-1.41-2.21A4.49,4.49,0,0,0,248.65,508.47Zm0,0a9.33,9.33,0,0,1,3.13.32,6.88,6.88,0,0,1,1.59.64,3.82,3.82,0,0,1,2.08,3.43A5.6,5.6,0,0,1,255,515a5.17,5.17,0,0,1-1.34,1.8,5.27,5.27,0,0,1-2.16,1,5.45,5.45,0,0,1-6.37-4.33,4.15,4.15,0,0,1,.79-3.51A4.32,4.32,0,0,1,248.65,508.47Z"/><path d="M277.57,505.26a3.58,3.58,0,0,0-3.11,2,2.8,2.8,0,0,0,.93,3.08,6.48,6.48,0,0,0,2.84,1.53,7.64,7.64,0,0,0,2.86.26,3.24,3.24,0,0,0,2-1c.17-.15.24-.32.4-.48s.08-.16.14-.24a.82.82,0,0,0,.12-.25,1.68,1.68,0,0,0,0-1.25,4.4,4.4,0,0,0-.93-1.45,7,7,0,0,0-1.51-1.16A7.26,7.26,0,0,0,277.57,505.26Zm0,0a14.58,14.58,0,0,1,4,.53,8.19,8.19,0,0,1,3.88,2,4.08,4.08,0,0,1,1.17,2.44,3,3,0,0,1,0,.73,5.24,5.24,0,0,1-.09.72,5.85,5.85,0,0,1-2.29,3.43,6.5,6.5,0,0,1-2.62,1,7.54,7.54,0,0,1-4.84-1.12,8,8,0,0,1-1.83-1.55,7.71,7.71,0,0,1-1.23-2,5.6,5.6,0,0,1-.44-2.29A3.56,3.56,0,0,1,274,507,4.92,4.92,0,0,1,277.57,505.26Z"/><path d="M304.83,504.21a3.37,3.37,0,0,0-2.6-2.14,2.83,2.83,0,0,0-2.69,1.28,3.74,3.74,0,0,0-.65,1.29,4.66,4.66,0,0,0-.21,1.32,4.75,4.75,0,0,0,.41,2.24,3.19,3.19,0,0,0,1.38,1.46,2.71,2.71,0,0,0,2.29.42,3.68,3.68,0,0,0,2-2.36A5.55,5.55,0,0,0,304.83,504.21Zm0,0a10.31,10.31,0,0,1,.48,3.61,7.79,7.79,0,0,1-.29,1.93,4.52,4.52,0,0,1-1,1.92,4.16,4.16,0,0,1-2.13,1.26,4.74,4.74,0,0,1-1.23.14,5.26,5.26,0,0,1-1.2-.11,5.41,5.41,0,0,1-4-3.05,6.28,6.28,0,0,1,2.85-8.13,4.62,4.62,0,0,1,4.07-.23A4.84,4.84,0,0,1,304.83,504.21Z"/><path d="M306.65,489.8a3.37,3.37,0,0,0-2.61-2.13,2.84,2.84,0,0,0-2.69,1.27,3.62,3.62,0,0,0-.64,1.29,5.06,5.06,0,0,0-.22,1.32,5,5,0,0,0,.41,2.25,3.15,3.15,0,0,0,1.39,1.45,2.73,2.73,0,0,0,2.28.43,3.74,3.74,0,0,0,2-2.37A5.54,5.54,0,0,0,306.65,489.8Zm0,0a10.58,10.58,0,0,1,.47,3.61,7.72,7.72,0,0,1-.29,1.93,4.55,4.55,0,0,1-1,1.92,4.17,4.17,0,0,1-2.13,1.26,4.46,4.46,0,0,1-1.24.14,4.37,4.37,0,0,1-1.2-.11,5.47,5.47,0,0,1-2.29-1,5.82,5.82,0,0,1-1.67-2.05,6.29,6.29,0,0,1,2.85-8.13,4.65,4.65,0,0,1,4.07-.23A4.89,4.89,0,0,1,306.65,489.8Z"/><path d="M323.86,480.65a6.67,6.67,0,0,0,.44-2.8,12,12,0,0,0-.43-2.8,14.34,14.34,0,0,0-2.49-4.95,13.93,13.93,0,0,0-1.82-1.93,6.6,6.6,0,0,0-1.93-1.31,1.45,1.45,0,0,0-1.21-.1,2.06,2.06,0,0,0-.58.95,13.67,13.67,0,0,0-.29,4.74,29.69,29.69,0,0,0,.82,5.36,7.3,7.3,0,0,0,2.83,4.44,3.13,3.13,0,0,0,2.64.29A3.54,3.54,0,0,0,323.86,480.65Zm0,0a4,4,0,0,1-2,2,3.83,3.83,0,0,1-2.92.08,6.45,6.45,0,0,1-2.53-1.69,13,13,0,0,1-1.9-2.42,21.94,21.94,0,0,1-2.4-5.61,11.9,11.9,0,0,1-.08-6.61,7,7,0,0,1,1-1.85,4.93,4.93,0,0,1,.87-.83,5.51,5.51,0,0,1,1.13-.59,4.53,4.53,0,0,1,2.41-.1,5.39,5.39,0,0,1,1.86.84,8.27,8.27,0,0,1,.73.56l.61.63a13,13,0,0,1,1,1.28,15.82,15.82,0,0,1,1.43,2.77,20.44,20.44,0,0,1,1.29,5.82,20.08,20.08,0,0,1,0,2.9A8.28,8.28,0,0,1,323.86,480.65Z"/><path d="M329,465.87a3.39,3.39,0,0,0-2.09,2.65,2.84,2.84,0,0,0,1.33,2.66,3.76,3.76,0,0,0,1.31.63,4.57,4.57,0,0,0,1.32.18,4.82,4.82,0,0,0,2.23-.45,3.12,3.12,0,0,0,1.43-1.41,2.72,2.72,0,0,0,.38-2.3,3.7,3.7,0,0,0-2.4-1.95A5.55,5.55,0,0,0,329,465.87Zm0,0a10.51,10.51,0,0,1,3.6-.54,8.11,8.11,0,0,1,1.93.25,4.52,4.52,0,0,1,2,1,4.27,4.27,0,0,1,1.3,2.1,6,6,0,0,1,.07,2.44,5.62,5.62,0,0,1-1,2.31,5.71,5.71,0,0,1-2,1.7,6.27,6.27,0,0,1-8.18-2.69,4.61,4.61,0,0,1-.31-4.06A4.86,4.86,0,0,1,329,465.87Z"/><path d="M390.21,476.35a8.38,8.38,0,0,0-1-3.86,11.84,11.84,0,0,0-2.4-3.17,12.33,12.33,0,0,0-10.58-3.15,7.61,7.61,0,0,0-3.07,1.23,5.5,5.5,0,0,0-2.44,5.1,11.87,11.87,0,0,0,2.82,6.08,16.3,16.3,0,0,0,5.6,4.8,8.24,8.24,0,0,0,3.57.79,7.84,7.84,0,0,0,3.61-1.16A8.72,8.72,0,0,0,390.21,476.35Zm0,0a9.52,9.52,0,0,1-1.06,3.87,10.47,10.47,0,0,1-2.51,3.23,9.25,9.25,0,0,1-3.77,1.92,10.28,10.28,0,0,1-4.38-.08,16.74,16.74,0,0,1-7.51-4.36c-.53-.51-1-1.08-1.5-1.64a19.21,19.21,0,0,1-1.29-1.9,11.64,11.64,0,0,1-1.46-4.58,9,9,0,0,1,1.07-5,8.28,8.28,0,0,1,3.63-3.43,10.37,10.37,0,0,1,4.61-1,15.11,15.11,0,0,1,13.28,9.05A9.55,9.55,0,0,1,390.21,476.35Z"/><path d="M152.22,210.68a2.58,2.58,0,0,0,2.35,1.26,2.09,2.09,0,0,0,1.73-1.49,2.73,2.73,0,0,0,.19-1.09,4.53,4.53,0,0,0-.12-1,4,4,0,0,0-.64-1.47,2.28,2.28,0,0,0-1-.83,1.92,1.92,0,0,0-1.61-.21,2.78,2.78,0,0,0-1.3,2A4.27,4.27,0,0,0,152.22,210.68Zm0,0a9.38,9.38,0,0,1-.94-2.76,6.24,6.24,0,0,1-.14-1.58,3.71,3.71,0,0,1,.45-1.76,3.56,3.56,0,0,1,1.54-1.48,4.86,4.86,0,0,1,4.15,0A5,5,0,0,1,159,204.6a5.24,5.24,0,0,1-1.19,7.14,3.79,3.79,0,0,1-3.3.74A4,4,0,0,1,152.22,210.68Z"/><path d="M187.52,201.9a2.57,2.57,0,0,0-2.61-.55,2.08,2.08,0,0,0-1.25,1.91,2.76,2.76,0,0,0,.13,1.1,3.68,3.68,0,0,0,.39.91,4.18,4.18,0,0,0,1,1.24,2.39,2.39,0,0,0,1.19.52,1.94,1.94,0,0,0,1.61-.26,2.77,2.77,0,0,0,.67-2.32A4.26,4.26,0,0,0,187.52,201.9Zm0,0a9.56,9.56,0,0,1,1.67,2.39,6.69,6.69,0,0,1,.57,1.48,3.81,3.81,0,0,1,.06,1.82,3.53,3.53,0,0,1-1.06,1.85,4.85,4.85,0,0,1-1.84,1,4.56,4.56,0,0,1-4.22-.82,5.24,5.24,0,0,1-.85-7.19,3.79,3.79,0,0,1,3-1.63A4,4,0,0,1,187.52,201.9Z"/><path d="M197.18,201.9a2.55,2.55,0,0,0-2.6-.55,2.08,2.08,0,0,0-1.25,1.91,2.59,2.59,0,0,0,.12,1.1,4.09,4.09,0,0,0,.39.91,4.19,4.19,0,0,0,1,1.24A2.36,2.36,0,0,0,196,207a1.94,1.94,0,0,0,1.61-.26,2.78,2.78,0,0,0,.68-2.32A4.22,4.22,0,0,0,197.18,201.9Zm0,0a9.59,9.59,0,0,1,1.68,2.39,6.69,6.69,0,0,1,.57,1.48,3.94,3.94,0,0,1,.06,1.82,3.62,3.62,0,0,1-1.07,1.85,4.74,4.74,0,0,1-1.83,1,4.55,4.55,0,0,1-4.22-.82,5.24,5.24,0,0,1-.85-7.19,3.79,3.79,0,0,1,3-1.63A4,4,0,0,1,197.18,201.9Z"/><path d="M177.48,181.89a7,7,0,0,0-2.29,1.24,3,3,0,0,0-1.21,2.1,2.11,2.11,0,0,0,1.28,1.72,8,8,0,0,0,2.29.76,16.92,16.92,0,0,0,4.82,0,20.31,20.31,0,0,0,4.47-1,7.42,7.42,0,0,0,1.69-.88,3,3,0,0,0,.89-1.07.85.85,0,0,0-.08-1,4.45,4.45,0,0,0-1.7-1.21,14.71,14.71,0,0,0-5-1.17A15,15,0,0,0,177.48,181.89Zm0,0a34.47,34.47,0,0,1,5.18-1.06,23.16,23.16,0,0,1,5.49-.23,6.91,6.91,0,0,1,3,1,3.86,3.86,0,0,1,1.33,1.57,4,4,0,0,1,.33,2.14,5.72,5.72,0,0,1-1.73,3.38,9,9,0,0,1-2.84,1.73,13.71,13.71,0,0,1-5.86.72,14.37,14.37,0,0,1-5.53-1.59,9.63,9.63,0,0,1-2.35-1.68,4.94,4.94,0,0,1-.88-1.22,2.37,2.37,0,0,1-.2-1.5A3.71,3.71,0,0,1,175.1,183,9,9,0,0,1,177.48,181.89Z"/><path d="M179.56,163.28a10.82,10.82,0,0,0,.63,3.15,5.16,5.16,0,0,0,.77,1.38,1.82,1.82,0,0,0,1.19.77,1.53,1.53,0,0,0,1.2-.51,5.55,5.55,0,0,0,.91-1.17,13.08,13.08,0,0,0,1.2-2.83,30.6,30.6,0,0,0,1-6.07,37.18,37.18,0,0,0,.05-6,11.23,11.23,0,0,0-.51-2.58,2.81,2.81,0,0,0-.88-1.39c-.1,0,0-.15-.26-.11a2,2,0,0,0-.8.57,10.45,10.45,0,0,0-1.64,2.39A26.11,26.11,0,0,0,179.56,163.28Zm0,0a58.54,58.54,0,0,1,.16-6.48,41.91,41.91,0,0,1,.85-6.58,12.08,12.08,0,0,1,1.27-3.36,5,5,0,0,1,1.52-1.65,3.5,3.5,0,0,1,2.86-.43,4.73,4.73,0,0,1,2.18,1.34,6.84,6.84,0,0,1,1.21,1.85,12.09,12.09,0,0,1,.92,3.7,20.91,20.91,0,0,1-.64,6.92,24,24,0,0,1-2.62,6.3,16.23,16.23,0,0,1-2.06,2.74,6.43,6.43,0,0,1-1.35,1.13,2.34,2.34,0,0,1-1.81.35,2.32,2.32,0,0,1-1.34-1.12,6.89,6.89,0,0,1-.65-1.51A13.94,13.94,0,0,1,179.56,163.28Z"/><path d="M167.41,163a3.71,3.71,0,0,0,2.52,3c1.3.28,2.29-.72,2.9-1.77a8.16,8.16,0,0,0,.95-3.42,9.52,9.52,0,0,0-.24-3.22,4.93,4.93,0,0,0-.51-1.18,3,3,0,0,0-.83-.83c-.18-.13-.35-.19-.53-.3a2.61,2.61,0,0,0-.5-.12,1.8,1.8,0,0,0-1.29.47,7,7,0,0,0-2.11,3.27A8.62,8.62,0,0,0,167.41,163Zm0,0a18.13,18.13,0,0,1-.18-4.24,16.46,16.46,0,0,1,.28-2.18,7.23,7.23,0,0,1,.81-2.24,4.2,4.2,0,0,1,3.65-2.24,6.11,6.11,0,0,1,1.5.23A5.56,5.56,0,0,1,176,154a6.68,6.68,0,0,1,1.37,2.55,8.62,8.62,0,0,1-.26,5.1,8.72,8.72,0,0,1-2.85,4,6.52,6.52,0,0,1-2.16,1.11,3.35,3.35,0,0,1-2.38-.2A5,5,0,0,1,167.41,163Z"/><path d="M162.16,139.23a3.74,3.74,0,0,0-3,2.51c-.28,1.3.72,2.3,1.76,2.91a8,8,0,0,0,3.42,1,9.88,9.88,0,0,0,3.23-.23,5.28,5.28,0,0,0,1.17-.5,3,3,0,0,0,.84-.83c.13-.18.18-.35.3-.53A2.54,2.54,0,0,0,170,143a1.79,1.79,0,0,0-.47-1.28,6.81,6.81,0,0,0-3.26-2.12A8.63,8.63,0,0,0,162.16,139.23Zm0,0a18.16,18.16,0,0,1,4.24-.16,15.3,15.3,0,0,1,2.19.29,6.84,6.84,0,0,1,2.23.81,4.13,4.13,0,0,1,2.22,3.66,5.34,5.34,0,0,1-.23,1.5,5.58,5.58,0,0,1-1.6,2.54,6.77,6.77,0,0,1-2.56,1.36,8.54,8.54,0,0,1-5.1-.27,8.63,8.63,0,0,1-4-2.86,6.21,6.21,0,0,1-1.11-2.17,3.35,3.35,0,0,1,.2-2.38A5,5,0,0,1,162.16,139.23Z"/></svg>