<svg id="Layer_1" data-name="Layer 1" xmlns="http://www.w3.org/2000/svg" viewBox="0 0 600 600"><title>Spain</title><path d="M190.32,103.66c-8.31.23-16.56,1.8-24.92,1.87a217.11,217.11,0,0,1-25.1-.63,184.9,184.9,0,0,1-25-4c-2-.5-4.12-1-6.16-1.57s-4-1.1-5.9-1.53A31.38,31.38,0,0,0,97.72,97a20.46,20.46,0,0,0-2.61.06,12.33,12.33,0,0,0-2.27.48A10.22,10.22,0,0,0,89,99.74a29.39,29.39,0,0,0-3.52,4c-2.38,3.07-4.91,7.12-9.34,10.31-.54.4-1.16.74-1.74,1.1a14.7,14.7,0,0,1-1.9,1,28,28,0,0,1-3.72,1.28c-2.31.62-4.24,1-5.57,1.56a7.37,7.37,0,0,0-.88.4c-.27.15-.5.34-.75.49a2.76,2.76,0,0,0-.68.53,3.46,3.46,0,0,0-.61.6,9,9,0,0,0-1.85,3.21,18.6,18.6,0,0,0-1,4.44,33.33,33.33,0,0,0-.22,5.16,52.15,52.15,0,0,0,.43,5.49l.85,6.12c.54,4.4.86,8.58,1.29,12.58a99.73,99.73,0,0,0,1.75,11.28,32.41,32.41,0,0,0,3.38,9.06,6.15,6.15,0,0,0,.57.89l.58.85a11.65,11.65,0,0,0,1.07,1.15,16.4,16.4,0,0,0,3,2.23,37,37,0,0,0,9,3.44,76.05,76.05,0,0,0,10.65,1.84,91.76,91.76,0,0,0,22.12-.39,47.61,47.61,0,0,0,4.93-1c1.46-.38,3.24-1,5.16-1.61a63.08,63.08,0,0,1,14.57-3.57,30.52,30.52,0,0,1,10.09.68,25.67,25.67,0,0,1,2.64.79,20.6,20.6,0,0,1,2.58,1.1,19.43,19.43,0,0,1,2.5,1.34c.8.52,1.59,1.07,2.37,1.63a28.93,28.93,0,0,1,7.12,8.36,34.43,34.43,0,0,1,3.44,9.15,41.13,41.13,0,0,1,1,8.84c0,1.45-.09,2.86-.19,4.28s-.33,2.81-.61,4.2a46.31,46.31,0,0,1-2.4,8.25c-1,2.4-2,4.66-3.1,6.73-2.16,4.2-4.37,7.86-6.22,11.23-.94,1.7-1.74,3.28-2.48,4.82a44.38,44.38,0,0,0-1.76,4.37c-.12.35-.19.68-.3,1s-.2.68-.26,1l-.22,1-.1.83a20.1,20.1,0,0,0-.11,3.71,68.21,68.21,0,0,0,1.83,10.17A107.87,107.87,0,0,1,155,289.44c.07.68.15,1.32.19,2l.08,2.13,0,1.07,0,1.12-.1,2.23c0,.75-.18,1.54-.28,2.3l-.16,1.16a11.81,11.81,0,0,1-.23,1.25c-.23.94-.47,1.88-.74,2.81s-.68,1.83-1.05,2.73a29.2,29.2,0,0,1-6,8.73,41.13,41.13,0,0,1-6.25,5c-3.81,2.51-6.46,4.11-7.54,5.36-.11.14-.22.29-.35.43s-.28.5-.41.75-.31.53-.41.77-.14.47-.22.7l-.13.34a1.87,1.87,0,0,0,0,.32,4.11,4.11,0,0,1-.08.6c0,.19.05.37.05.55a2.35,2.35,0,0,1,0,.26,2.29,2.29,0,0,0,.07.28,10.56,10.56,0,0,0,1.1,2.64l.48.88c.2.34.42.68.62,1l1.45,2.33c1.07,1.7,2.34,3.8,3.56,6.17l.89,1.93.44,1,.41,1.08c.27.71.55,1.43.79,2.17l.63,2.35.3,1.19.22,1,.4,2,.34,2c.1.68.16,1.35.22,2,.09,1.34.27,2.73.26,4.05s0,2.65,0,4a107.49,107.49,0,0,1-2,14.81c-.9,4.66-2,8.88-3,12.91L137,403.73c-.41,1.83-.85,3.67-1.17,5.37a66.58,66.58,0,0,0-1.38,9.55l0,.55,0,.41c0,.28,0,.54,0,.81,0,.54,0,1.05.07,1.54a16.86,16.86,0,0,0,.42,2.56,7.22,7.22,0,0,0,.59,1.62c.08.2.2.33.26.47a6.47,6.47,0,0,0,.42.57,4.61,4.61,0,0,0,1,.92,11.13,11.13,0,0,0,2.28,1.15c1.09.43,2.52.89,4.3,1.39a38.78,38.78,0,0,1,6.2,2,47.67,47.67,0,0,1,7.43,4.42c2.62,1.81,5.38,3.82,8.11,6a37,37,0,0,1,7.15,7.65l1.36,2.13c.43.71.8,1.42,1.19,2.13l.29.54.21.45.42.9c.28.61.56,1.2.79,1.77,2,4.64,3.42,8.79,4.86,12.72.73,1.93,1.45,3.83,2.16,5.62s1.49,3.48,2.26,5.09,1.59,3.06,2.4,4.37a24.64,24.64,0,0,0,2.44,3.26,8.17,8.17,0,0,0,2.08,1.7,2.27,2.27,0,0,0,1.26.26l1.26-.38c.12,0,.33-.13.49-.17a3.55,3.55,0,0,0,.54-.19c.43-.22.8-.33,1.32-.63l.73-.36c.26-.13.54-.32.81-.47l.81-.46.88-.58.87-.57c.25-.18.37-.34.57-.49s.35-.33.54-.52.36-.33.57-.56c.76-.78,1.68-1.81,2.73-3l1.69-2c.65-.74,1.25-1.48,2-2.3,1.48-1.6,3.11-3.38,5.18-5.3a50.37,50.37,0,0,1,7.28-5.7c1.41-.89,3.08-1.84,4.24-2.41s2.55-1.27,3.83-1.85a76.18,76.18,0,0,1,7.73-2.84A74.12,74.12,0,0,1,246,459a49.08,49.08,0,0,1,7.55-.82A62.85,62.85,0,0,1,268,459.68c2.24.47,4.73.94,7,1.47l3.4.73c1.12.26,2.22.45,3.29.69l3.2.59,3.13.54c2.07.38,4.08.69,6.06,1,4,.56,7.79,1,11.46,1.15a59.71,59.71,0,0,0,10.48-.44c.68-.14,1.37-.26,2.07-.38s1.31-.39,2-.56a13.68,13.68,0,0,0,3.53-2.1c.28-.2.75-.16,1-.47s.42-.64.62-1a15.61,15.61,0,0,0,.94-2.27,13.76,13.76,0,0,1,1-2.25l1.39-2.12c1.89-3,3.8-6.44,6.05-10.24A90.34,90.34,0,0,1,343,432l1.34-1.53.68-.76.83-.82a44,44,0,0,1,3.43-3.06,65.22,65.22,0,0,1,6.74-4.67c4.23-2.57,7.67-4.42,9.79-6.12a15.25,15.25,0,0,0,2.5-2.36c.38-.5.76-1,1.15-1.44s.71-1.06,1.08-1.57a63.76,63.76,0,0,0,4.12-8.11c1.43-3.23,2.9-7,4.76-11.25A80.8,80.8,0,0,1,387,376.66c.87-1.18,1.72-2.35,2.65-3.51s2-2.29,3-3.4,2.23-2.13,3.36-3.18l.43-.39a2.06,2.06,0,0,0,.2-.19l.27-.26c.19-.18.37-.35.53-.53a12.88,12.88,0,0,0,2.73-4,6.18,6.18,0,0,0,.55-2.92c0-.25-.06-.52-.08-.81s-.21-1-.37-1.52a14.71,14.71,0,0,1-.78-4.22,47,47,0,0,1,.19-6.3l.23-3.71c.08-1.29.17-2.49.15-4-.05-2.86,0-5.57-.18-8.15,0-1.3-.23-2.54-.25-3.8s-.11-2.51-.08-3.75a78.06,78.06,0,0,1,1.59-14.37A84.83,84.83,0,0,1,410.63,282c2.21-3.93,4.69-7.67,7.24-11.36,1.27-1.86,2.62-3.65,4-5.42s2.77-3.54,4.22-5.27a120.81,120.81,0,0,1,9.32-9.91c1.67-1.56,3.38-3.11,5.17-4.56s3.67-2.84,5.6-4.18a82.2,82.2,0,0,1,12.13-6.75c1-.46,2.05-.93,3.1-1.36s2.07-.82,3.11-1.22a51.35,51.35,0,0,1,6.28-2c8.47-2.13,17.47-1.07,25.5-2.81,1-.19,2-.46,3-.71s1.92-.62,2.88-.93c1.9-.7,3.75-1.45,5.59-2.23l2.74-1.19,2.68-1.27c.91-.43,1.75-.85,2.58-1.31s1.66-1,2.48-1.47a75.42,75.42,0,0,0,9.36-7,70.69,70.69,0,0,0,8-8.37,45.64,45.64,0,0,0,5.74-9.42,23.21,23.21,0,0,0,2-9.52c-.1-2.92-1-5.92-2.46-7.55a8.51,8.51,0,0,0-2.56-2.1,14.77,14.77,0,0,0-3.75-1.37,40.06,40.06,0,0,0-10.15-.71c-3.7.14-7.59.59-11.6,1.13s-8.12,1.21-12.81,1.6c-1.27.08-2.28.13-3.42.17s-2.35.06-3.62,0a32.34,32.34,0,0,1-8.52-1.21,24.9,24.9,0,0,1-4.67-1.9c-.72-.42-1.42-.85-2.12-1.3a23.59,23.59,0,0,1-1.91-1.41,39.73,39.73,0,0,1-5.78-5.92c-1.51-1.86-2.73-3.59-3.84-5a25.6,25.6,0,0,0-2.9-3.27,6.32,6.32,0,0,0-2-1.38,4.28,4.28,0,0,0-.51-.15c-.09,0-.16-.07-.27-.1l-.45-.06c-.3,0-.58-.1-.9-.14l-1-.07a6.55,6.55,0,0,0-1.1,0h-1.15c-.84.09-1.62.09-2.52.22s-1.76.22-2.69.38-1.88.33-2.83.5c-3.86.74-8,1.72-12.51,2.46-2.23.38-4.62.66-7.08.83-1.26,0-2.51.11-3.82.06l-2-.1c-.69,0-1.2-.12-1.8-.17a72.4,72.4,0,0,1-26.42-8.37,74.76,74.76,0,0,1-11.43-7.66c-3.56-2.93-6.63-6-9.59-8.91a109.37,109.37,0,0,0-8.64-8,34.11,34.11,0,0,0-9.25-5.32c-.82-.33-1.69-.54-2.54-.82s-1.75-.41-2.63-.63a35.39,35.39,0,0,0-5.44-.58,86.56,86.56,0,0,0-11.82.65c-4.09.44-8.43.89-12.72,1s-8.56.06-12.79-.15c-8.46-.44-16.78-1.45-25-2.44l-24.78-3-24.78-3c-8.25-1-16.55-1.6-24.83-2.35h0a29.16,29.16,0,0,1-9.12-.8,20.77,20.77,0,0,1-4.3-1.59c-.68-.33-1.32-.76-2-1.11a4.31,4.31,0,0,0-2.19-.54Zm0-.09c1.56-.12,2.95.85,4.3,1.45a20.31,20.31,0,0,0,4.3,1.37,29,29,0,0,0,9,.37H208c16.65.44,33.18,2.25,49.75,3.64l24.84,2.18c8.28.72,16.55,1.46,24.83,1.62,4.13.08,8.27,0,12.4-.24s8.22-.81,12.34-1.39a94.39,94.39,0,0,1,12.48-1.1,38.46,38.46,0,0,1,12.42,1.9,40,40,0,0,1,11.12,5.81,105.47,105.47,0,0,1,9.5,8.13c3.05,2.82,6.1,5.64,9.38,8.17a67.54,67.54,0,0,0,10.5,6.59,65.17,65.17,0,0,0,23.75,6.83,35.78,35.78,0,0,0,6.21,0,60.72,60.72,0,0,0,6.15-.89c4.08-.78,8.1-1.85,12.16-2.75a55.3,55.3,0,0,1,12.33-1.68l1.56,0c.52,0,1,.12,1.55.17l.78.09.75.17a13.91,13.91,0,0,1,6.82,3.58c3.13,2.76,5.34,6.35,7.9,9.61a29.08,29.08,0,0,0,4.27,4.53c.41.31.79.67,1.23.95l1.32.83a15.69,15.69,0,0,0,2.87,1.2c4,1.21,8.25,1,12.38.86s8.28-.74,12.42-1.14,8.28-.74,12.44-.74a44.6,44.6,0,0,1,12.34,1.46,21.38,21.38,0,0,1,5.66,2.55,15.58,15.58,0,0,1,4.44,4.31,16.74,16.74,0,0,1,2.47,5.68A22.61,22.61,0,0,1,550,184a30.08,30.08,0,0,1-3.24,12,51.68,51.68,0,0,1-6.91,10.34A82.19,82.19,0,0,1,521,222.41c-7.11,4.33-14.87,7.45-22.67,10.28s-15.77,5.27-23.59,8.08A131.54,131.54,0,0,0,452,251a106.45,106.45,0,0,0-19.63,15.28,102.76,102.76,0,0,0-15.57,19.4,65.9,65.9,0,0,0-9.05,23.08,45.36,45.36,0,0,0-.42,12.42,40.64,40.64,0,0,0,3.18,12c1.64,3.82,3.64,7.47,5.32,11.27a39.78,39.78,0,0,1,3.59,11.89,24.59,24.59,0,0,1-1.85,12.19,30.87,30.87,0,0,1-7.11,10.14l-4.61,4.2-2.11,2.29c-.67.8-1.29,1.63-1.94,2.44a74,74,0,0,0-6.36,10.71c-3.72,7.4-6.92,15.2-12.21,21.67-.68.78-1.34,1.59-2.05,2.35L379,424.55a36.14,36.14,0,0,1-5,3.68c-3.54,2.19-7.37,3.85-11,5.81a44.37,44.37,0,0,0-5.31,3.25,32.62,32.62,0,0,0-4.64,4.15,75.67,75.67,0,0,0-7.63,9.84c-2.33,3.44-4.55,7-7,10.29a42.7,42.7,0,0,1-8.62,8.93,30.39,30.39,0,0,1-11.24,5.2,68.42,68.42,0,0,1-12.35,1.57c-8.31.36-16.62-.32-24.92-.65a139.92,139.92,0,0,0-24.89,1,81.68,81.68,0,0,0-12.18,2.58A54.22,54.22,0,0,0,232.6,485c-7.2,4.27-12.3,11.17-19.23,15.81a32.45,32.45,0,0,1-5.47,3l-1.43.64-1.46.53c-.49.17-1,.37-1.47.52l-1.5.42a26.62,26.62,0,0,1-6.15.95,20,20,0,0,1-6.15-.84,19.38,19.38,0,0,1-5.49-2.89,25,25,0,0,1-4.42-4.37,52.74,52.74,0,0,1-6.36-10.7c-3.52-7.54-6-15.5-9.61-23a33.54,33.54,0,0,0-3.13-5.38,22.32,22.32,0,0,0-4.39-4.4A32.92,32.92,0,0,0,145,450.17c-4-1.11-8.09-1.94-12-3.36a26.88,26.88,0,0,1-10.51-6.5,24.33,24.33,0,0,1-6-10.77,35.06,35.06,0,0,1-1-12.37c1.31-16.68,9-32,10.66-48.63A58.12,58.12,0,0,0,126,356.1l-.24-1.54-.36-1.51c-.21-1-.57-2-.86-3-.67-2-1.43-3.9-2.2-5.83-1.52-3.84-3-7.84-2.92-12,0-.26,0-.52,0-.78l.09-.77c.07-.52.11-1,.21-1.55a19.28,19.28,0,0,1,.86-3l.56-1.46c.2-.47.47-.92.7-1.39s.47-.92.73-1.37l.87-1.3c2.48-3.38,5.9-5.85,9.15-8.41a43.69,43.69,0,0,0,4.68-4.11,18.65,18.65,0,0,0,3.53-5.09,18.37,18.37,0,0,0,1.41-6,34,34,0,0,0-.11-6.22,99.94,99.94,0,0,0-2.3-12.24,76.34,76.34,0,0,1-2.05-12.29,32,32,0,0,1,1.7-12.28c2.68-7.92,7.55-14.8,11.37-22.16,1-1.84,1.84-3.73,2.64-5.64a34.63,34.63,0,0,0,1.76-6,33.65,33.65,0,0,0,.63-6.18,27.85,27.85,0,0,0-.59-6.18,22,22,0,0,0-2.1-5.84,16.55,16.55,0,0,0-3.95-4.74,14.12,14.12,0,0,0-2.64-1.63,12.5,12.5,0,0,0-2.9-1.08,18.61,18.61,0,0,0-6.18-.45,58.19,58.19,0,0,0-12.1,2.86c-2,.61-4,1.21-6,1.68s-4.09.79-6.15,1.05a102.62,102.62,0,0,1-24.89-.25,79.36,79.36,0,0,1-12.2-2.53,45.44,45.44,0,0,1-11.39-5,25.41,25.41,0,0,1-4.8-4A19.16,19.16,0,0,1,58,185.41c-.52-.9-1.13-1.75-1.57-2.69a42.23,42.23,0,0,1-3.8-11.84c-1.48-8.21-1.36-16.57-2-24.85a94.11,94.11,0,0,1-.7-12.45,39.15,39.15,0,0,1,.64-6.2,23.84,23.84,0,0,1,1.83-5.95,14.87,14.87,0,0,1,3.6-5.06,14.37,14.37,0,0,1,5.4-3.06c2-.62,4.06-.9,6.09-1.36a19.52,19.52,0,0,0,3-.87,18.87,18.87,0,0,0,2.75-1.43c3.5-2.28,6-5.7,8.67-8.87a32.17,32.17,0,0,1,4.38-4.43,14.09,14.09,0,0,1,5.56-2.75,18,18,0,0,1,6.21-.35,37.7,37.7,0,0,1,6.12,1.23c2,.56,4,1.22,6,1.87s4,1.23,6,1.82a168.9,168.9,0,0,0,24.41,4.94,236.56,236.56,0,0,0,49.77.36Z"/><path d="M454,346.67a11,11,0,0,0-4.05-1.5,4.47,4.47,0,0,0-3.31.82,10.65,10.65,0,0,0-2.28,12.6c1,1.74,2.89,2.78,5.3,3.38l-3,1.85c.46-1.08.81-2.65,1.35-4.25a16.37,16.37,0,0,1,1-2.48c.11-.21.22-.42.35-.63l.18-.31.17-.24.63-.94a20.05,20.05,0,0,0,2.11-3.79,4.69,4.69,0,0,0-.08-4.19,3.92,3.92,0,0,1,1.69,1.89,6.45,6.45,0,0,1,.54,2.63,15.81,15.81,0,0,1-.91,5.05l-.4,1.17-.1.28-.07.22c-.05.14-.08.3-.12.45-.15.61-.25,1.29-.35,2a34.7,34.7,0,0,1-.78,4.88l-.56,2.15-2.46-.3a14.29,14.29,0,0,1-5.31-1.62,11.3,11.3,0,0,1-4.29-4.09,12.45,12.45,0,0,1-1.72-5.51,14.71,14.71,0,0,1,.61-5.43,14.38,14.38,0,0,1,2.51-4.77,10.15,10.15,0,0,1,4.52-3.27,6.72,6.72,0,0,1,5.47.47A8.91,8.91,0,0,1,454,346.67Z"/><path d="M519.46,313.36A15.5,15.5,0,0,0,509,303.85a13.74,13.74,0,0,0-12.48,3.26,12.52,12.52,0,0,0-2.06,2.44,20.23,20.23,0,0,0-1.54,3c-.48,1.13-1,2.37-1.63,3.65a15,15,0,0,1-2.71,3.84,23.14,23.14,0,0,1-3.46,2.61,4.32,4.32,0,0,0-1.61,1.52c-.09.35-.12.35.11.73a4.13,4.13,0,0,0,1.71,1.21,6.59,6.59,0,0,0,1.22.37,7.23,7.23,0,0,0,1.34.11c1.09,0,2.33-.12,3.7-.2a18.34,18.34,0,0,1,4.57.28,11.36,11.36,0,0,1,2.5.85,11.73,11.73,0,0,1,2.1,1.37c1.19,1,2.06,1.89,2.86,2.48a11.74,11.74,0,0,0,2.65,1.53,13.49,13.49,0,0,0,3.06.79,14.62,14.62,0,0,0,3.24,0,12.87,12.87,0,0,0,6.06-2.29,10.42,10.42,0,0,0,2.35-2.29,13.75,13.75,0,0,0,1-1.4,15.9,15.9,0,0,0,.73-1.56,14.78,14.78,0,0,0-1.56-13.95,13.55,13.55,0,0,1,2.57,3,15.77,15.77,0,0,1,1.62,3.68,15.19,15.19,0,0,1,.61,4,15.91,15.91,0,0,1-.43,4.16,15.31,15.31,0,0,1-.63,2,15.82,15.82,0,0,1-1,1.94,13.89,13.89,0,0,1-2.74,3.43,16.4,16.4,0,0,1-7.81,3.91,19.83,19.83,0,0,1-4.43.34,18.91,18.91,0,0,1-4.43-.83,15.47,15.47,0,0,1-4.12-2.07c-1.29-.89-2.22-1.81-3.07-2.41a5.26,5.26,0,0,0-2.28-1,12.89,12.89,0,0,0-3.09-.06c-1.19.08-2.51.22-4,.24a13.85,13.85,0,0,1-2.48-.18,11.94,11.94,0,0,1-2.45-.73,9.82,9.82,0,0,1-4.33-3.39,6.83,6.83,0,0,1-1.15-3.19,6.62,6.62,0,0,1,.61-3.38,7.72,7.72,0,0,1,1.84-2.42,14.88,14.88,0,0,1,1.9-1.44,22,22,0,0,0,2.77-1.89c1.33-1.14,2.31-3.24,3.5-5.62a23.08,23.08,0,0,1,2.22-3.68,17.21,17.21,0,0,1,11.13-6.56,15.78,15.78,0,0,1,8.45,1,16.42,16.42,0,0,1,6.49,5A14.65,14.65,0,0,1,519.46,313.36Z"/><path d="M559.42,304.47c-2.24-.41-4.43-.74-6.6-1.1s-4.3-.69-6.39-.93c-1-.12-2.07-.21-3-.24a11.92,11.92,0,0,0-2.63.14c-.19,0-.3.09-.45.11s-.24.08-.23.12.11,0,.2-.19.08-.12.06-.16,0,.07,0,.11a.85.85,0,0,0,.14.35,4.66,4.66,0,0,0,1.39,1.3,14.26,14.26,0,0,0,2.38,1.25,34.23,34.23,0,0,0,5.7,1.86,15.87,15.87,0,0,0,5.73.42,5.09,5.09,0,0,0,2.45-1.07,6,6,0,0,0,1.65-2.64,5.43,5.43,0,0,1-.29,3.59,6.27,6.27,0,0,1-2.74,2.86,14.76,14.76,0,0,1-7.33,1.53,25.94,25.94,0,0,1-7.14-1.21,17.17,17.17,0,0,1-3.58-1.59,9.88,9.88,0,0,1-3.36-3.22,6.9,6.9,0,0,1-.93-2.75,8.81,8.81,0,0,1,0-1.54,5.35,5.35,0,0,1,.55-1.73,5.2,5.2,0,0,1,2.56-2.4,7.45,7.45,0,0,1,1.32-.46,8.47,8.47,0,0,1,1.17-.17,14.46,14.46,0,0,1,4,.25,23.7,23.7,0,0,1,3.46.9,38.68,38.68,0,0,1,6.31,2.74c1,.55,2,1.12,2.93,1.76A18.5,18.5,0,0,1,559.42,304.47Z"/></svg>