<svg id="Layer_1" data-name="Layer 1" xmlns="http://www.w3.org/2000/svg" viewBox="0 0 600 600"><title>Suriname</title><path d="M158.31,81.25A45.13,45.13,0,0,1,161,74.63a55.12,55.12,0,0,1,3.69-6.16A36.21,36.21,0,0,1,169.4,63a47.63,47.63,0,0,1,5.69-4.52,64,64,0,0,1,27.23-9.89A72.69,72.69,0,0,1,217,48.14a63.85,63.85,0,0,1,7.33.94c1.2.21,2.42.39,3.61.64l3.58.8A174.09,174.09,0,0,1,259.08,60c8.87,3.78,17.51,7.87,26.2,11.44,2.16.92,4.34,1.76,6.51,2.61l3.26,1.21c.56.22,1,.37,1.52.53s1,.29,1.47.43a29.54,29.54,0,0,0,5.86,1,14.54,14.54,0,0,0,5-.42c.28-.14.61-.21.84-.34s.51-.23.63-.39l.26-.19c.08-.06.11-.15.18-.21s.21-.28.31-.41l.08-.1.05-.14a1.51,1.51,0,0,1,.12-.26,3.06,3.06,0,0,0,.22-.64c.16-.58.33-1.51.59-2.77a24.86,24.86,0,0,1,1.38-4.72c.38-.81.78-1.57,1.19-2.36a21.1,21.1,0,0,1,1.43-2.19,26.86,26.86,0,0,1,7.33-6.76,40.22,40.22,0,0,1,8.12-3.82,56.25,56.25,0,0,1,8-2.12c2.64-.52,5.26-.9,7.82-1.16a79.33,79.33,0,0,1,8.09-.42,50.14,50.14,0,0,1,8.75.89,51.63,51.63,0,0,1,8.36,2.47c2.57,1,4.85,2,7,2.92s4.24,1.81,6.29,2.59l.74.29.62.21c.4.13.81.27,1.22.37a19.7,19.7,0,0,0,2.41.53,16.17,16.17,0,0,0,4.41.13,14,14,0,0,0,1.84-.36,11.39,11.39,0,0,0,1.63-.59,22.84,22.84,0,0,0,4-2.55c1.55-1.15,3.32-2.67,5.42-4.24a49.47,49.47,0,0,1,7.54-4.85,37.61,37.61,0,0,1,19-4.24c6.18.21,11.28,1.42,15.71,2.18,2.22.4,4.24.7,6.19.89l1.42.09.7,0,.91,0,3.66.15c9.76.4,19.51,1,29.27,1.74S512.8,48,524.16,51.43a67,67,0,0,1,8.61,3.25c.72.3,1.44.69,2.15,1s1.44.73,2.14,1.16,1.43.8,2.15,1.23,1.47,1,2.2,1.47A37.13,37.13,0,0,1,550,68a30.41,30.41,0,0,1,5.67,14.15,34.6,34.6,0,0,1,.17,7.64,44.65,44.65,0,0,1-1.08,6.62,74.37,74.37,0,0,1-3.38,10.16l-1.55,3.87c-.48,1.23-1,2.43-1.54,3.61-1,2.39-2.14,4.67-3.22,6.94q-3.36,6.74-6.87,12.72T531.35,145c-2.3,3.55-4.61,6.87-7,10s-4.7,6.16-7.07,9.46a88.69,88.69,0,0,0-6.61,10.68,72.2,72.2,0,0,0-4.95,12.16,15.41,15.41,0,0,0-.45,1.61,7.5,7.5,0,0,0-.1,1.64c0,1.11-.06,2.21-.1,3.32q-.11,3.32-.11,6.67c0,2.24,0,4.48.1,6.74l.14,7.32c.07,4.82.12,9.34.43,13.62A73,73,0,0,0,507.33,240c.19.9.45,1.74.68,2.59.12.42.27.82.4,1.23l.19.62c.07.18.12.28.18.43a25.33,25.33,0,0,0,1.88,3.59c.82,1.39,2,3.09,3.33,5.13.69,1,1.41,2.15,2.17,3.38.38.59.76,1.27,1.13,1.9l.57,1,.28.51.34.66a43.14,43.14,0,0,1,3.91,11.35c.71,3.57,1,6.39,1.23,8.49.13,1.07.27,1.94.41,2.78s.29,1.51.48,2.23a32.51,32.51,0,0,0,1.41,4.21,30.3,30.3,0,0,0,4.46,7.68c.44.58,1,1.11,1.4,1.67a3.69,3.69,0,0,1,.44.64c.06.19.24.43.35.69a23.36,23.36,0,0,0,2.88,4.56,44.14,44.14,0,0,0,6,5.81,42.28,42.28,0,0,1,7.43,8.35,30.45,30.45,0,0,1,1.59,2.65l.72,1.38c.13.25.2.42.27.59l.23.54c.59,1.43,1.21,2.82,1.74,4.29s1,3,1.47,4.47.78,3.08,1.12,4.63a57.38,57.38,0,0,1,.64,19.16A65.63,65.63,0,0,1,551.61,375c-.61,1.36-1.23,2.72-1.93,4s-1.37,2.59-2.11,3.82-1.45,2.5-2.24,3.67-1.55,2.4-2.38,3.51-1.78,2.48-2.11,3l-.72,1.09-.63,1.07-.31.54-.26.53-.51,1.07c-.26.71-.6,1.4-.79,2.11a26.37,26.37,0,0,0-1.28,9.19c0,3.53.39,7.78.83,12.36,0,.27.05.6.07,1l.07,1,.14,2.07c.1,1.39.1,2.78.15,4.18s0,2.8,0,4.2-.07,2.82-.14,4.23a100.94,100.94,0,0,1-2.37,17.12c-.36,1.43-.66,2.88-1.08,4.31s-.87,2.86-1.34,4.29-1,2.85-1.57,4.27l-1.85,4.22c-.65,1.4-1.38,2.79-2.1,4.17s-1.58,2.72-2.39,4.07a68.55,68.55,0,0,1-5.6,7.78c-1,1.27-2.1,2.47-3.21,3.65-.55.6-1.1,1.19-1.68,1.77l-1.91,1.74c-.65.58-1.28,1.16-1.94,1.71s-1.35,1-2,1.54a39.81,39.81,0,0,1-4.21,2.84,55.92,55.92,0,0,1-18.43,7.18,63.87,63.87,0,0,1-19.56.82,45.5,45.5,0,0,1-4.88-.7c-.81-.15-1.62-.27-2.42-.46l-2.41-.64-2.39-.64-2.36-.83-2.35-.85c-.77-.3-1.53-.68-2.29-1a36.78,36.78,0,0,1-4.43-2.34,37.78,37.78,0,0,1-4.17-2.78,49.16,49.16,0,0,1-6.84-6.18c-1-1-1.87-2-2.8-3l-2.54-2.77-2.42-2.48c-.4-.42-.78-.73-1.17-1.09s-.77-.73-1.13-1a26.15,26.15,0,0,0-4.14-2.95,15,15,0,0,0-3.56-1.4,17.8,17.8,0,0,0-1.84-.22c-.32,0-.64,0-1-.07l-1,.06a8.06,8.06,0,0,0-1.65.19c-.22,0-.36.16-.55.21a1.22,1.22,0,0,0-.27.09l-.23.14a12.34,12.34,0,0,0-2.43,1.8c-1.18,1-2.81,2.62-5,4.53-.59.49-1.11,1-1.77,1.47l-2,1.52a40.48,40.48,0,0,1-4.75,2.89,21.7,21.7,0,0,1-2.63,1.22c-.9.36-1.81.73-2.73,1.05a41.12,41.12,0,0,1-5.53,1.34l-2.75.41c-.93.07-1.86.13-2.8.17l-1.4.06c-.48,0-1,0-1.46-.06-1-.05-2-.11-2.94-.19a44.64,44.64,0,0,1-10.95-2.89c-3.16-1.28-5.55-2.51-7.58-3.43l-1.42-.65-1.25-.49a11,11,0,0,0-1.15-.42c-.36-.11-.73-.27-1.07-.35a19.09,19.09,0,0,0-2-.45l-1-.17-1-.08a26.12,26.12,0,0,0-4.24,0l-.56,0-.79,0-1.46.12c-.92.07-1.68.18-2.4.29a12.83,12.83,0,0,0-3.12.9c-.63.3-.75.54-.54.49a1.92,1.92,0,0,0,.72-.53c.07-.1.11-.06.09.06s-.08.4-.1.88a28.78,28.78,0,0,0,0,4.13l.14,3,.1,1.69.1,1.27a31.28,31.28,0,0,0,.61,4c.14.6.29,1.18.6,2.14l.55,1.68c.24.77.47,1.48.74,2.45a38.62,38.62,0,0,1,1.24,6.25,25.91,25.91,0,0,1-.06,6.12c-1,7-5,12.67-9.26,17.81-2.17,2.56-4.33,5-6.59,7.41a38.93,38.93,0,0,1-7.67,6.8l-1.13.72-1.23.61a17,17,0,0,1-2.52,1.06l-1.3.43a7.11,7.11,0,0,1-1.23.33c-.77.15-1.53.33-2.29.45a39.17,39.17,0,0,1-8.93.35,73.49,73.49,0,0,1-15.84-3.13c-2.44-.72-4.8-1.51-7.09-2.28L261.51,549,248,544.4c-9-3-18.49-5.78-27.87-9.94a140,140,0,0,1-26.83-15.07A163.08,163.08,0,0,1,169.86,499,146.48,146.48,0,0,1,151,474.16a161,161,0,0,1-13.73-28.39,127.72,127.72,0,0,1-7.33-31.68c0-.37-.08-.65-.1-1.08l-.07-1.23c0-.8-.1-1.66-.1-2.4l0-2.3,0-2.13c.08-2.75.23-5.3.3-7.37a44.77,44.77,0,0,0-.06-5.2,10.16,10.16,0,0,0-.57-2.6,5,5,0,0,0-.73-1c-.5-.5-.6-.48-.69-.46a6.45,6.45,0,0,1-.92-.13,28.23,28.23,0,0,0-3.4-.16c-3.17,0-7.67.43-13.53.48a59.25,59.25,0,0,1-10.25-.8A37.38,37.38,0,0,1,87,382.9a34.32,34.32,0,0,1-3.14-2.23c-1-.82-1.91-1.7-2.82-2.59s-1.65-1.84-2.39-2.81-1.32-1.94-1.94-2.92-1-1.92-1.5-2.9c-.26-.52-.36-.87-.54-1.3l-.47-1.25-.46-1.24-.36-1.25c-.22-.82-.48-1.66-.65-2.47a53.35,53.35,0,0,1-1.15-9.32c-.09-2.94,0-5.62.18-8.16.36-5.06.7-9.46.29-13.35,0-.47-.08-1-.17-1.43l-.26-1.37-.06-.34-.06-.26c0-.17-.1-.33-.14-.5a6.89,6.89,0,0,0-.34-1,19.12,19.12,0,0,0-2.53-4.32c-2.26-3.06-5.73-6.41-9.21-10.62a45.76,45.76,0,0,1-4.93-7.16A40.35,40.35,0,0,1,51,295.87a35.71,35.71,0,0,1-.72-17.94A27.23,27.23,0,0,1,54,269.15,32.18,32.18,0,0,1,60,262.54c2-1.75,4-3.22,5.66-4.6a26.35,26.35,0,0,0,4.15-4.06,18.71,18.71,0,0,0,3.65-10.29c.39-4.17.07-9,.41-14.21.08-1.27.23-2.73.39-3.86l.47-3.57c.32-2.36.64-4.69.89-6.95a39.23,39.23,0,0,0-.42-12.88,46.22,46.22,0,0,0-1.87-6.32l-.6-1.64L72,192c-.16-.75-.3-1.52-.43-2.28s-.08-1.61-.09-2.41a22.39,22.39,0,0,1,.35-2.44l.35-1.19.18-.59.26-.56a11.61,11.61,0,0,1,1.16-2.11c.22-.33.44-.66.67-1l.75-.86A22.18,22.18,0,0,1,82,173.69a38.56,38.56,0,0,1,7.37-2.6l.93-.24,1-.19c.66-.15,1.33-.22,2-.31a32.89,32.89,0,0,1,3.93-.21c5.16,0,9.82.92,14.24.82,1.12,0,2.14-.09,3.31-.22s2.31-.28,3.47-.45c2.31-.33,4.63-.73,6.94-1.17a134.92,134.92,0,0,0,13.68-3.31,59,59,0,0,0,12.82-5.33,18,18,0,0,0,5.08-4.22,10.26,10.26,0,0,0,.87-1.31,7.41,7.41,0,0,0,.54-1.42,4.89,4.89,0,0,0,.16-.74l.06-.75a7.9,7.9,0,0,0-.12-1.6,22.54,22.54,0,0,0-2.39-6.39c-.53-1.06-1.09-2.14-1.54-3.27l-.71-1.67a13.44,13.44,0,0,1-.64-1.7c-3.25-9.17-3.32-19-1.81-28.45S155.63,90.39,158.31,81.25Zm.06,0c-2.41,9.22-5,18.45-6.11,27.85s-.65,18.91,2.54,27.61a11.29,11.29,0,0,0,.65,1.61l.71,1.58c.45,1.07,1,2.09,1.57,3.16A24.59,24.59,0,0,1,160.5,150a10.61,10.61,0,0,1,.19,2l-.05,1a5.91,5.91,0,0,1-.19,1,9.93,9.93,0,0,1-.67,1.92,12.49,12.49,0,0,1-1.05,1.68,20,20,0,0,1-5.64,5,61.81,61.81,0,0,1-13.27,5.9,137.12,137.12,0,0,1-13.91,3.72c-2.34.5-4.69,1-7.06,1.35a58.51,58.51,0,0,1-7.2.87c-4.88.19-9.63-.63-14.3-.55a26.34,26.34,0,0,0-6.9,1,35.11,35.11,0,0,0-6.56,2.43,18.28,18.28,0,0,0-5.54,4.07,9.73,9.73,0,0,0-2.56,6.1c0,.57,0,1.14.09,1.7l.33,1.68.57,1.63c.2.56.43,1.12.65,1.68A50.7,50.7,0,0,1,79.62,201a40.18,40.18,0,0,1,1,7.15,57.65,57.65,0,0,1-.15,7.2c-.37,4.76-1.1,9.5-1.38,14.22s.28,9.5,0,14.3A30.1,30.1,0,0,1,78,251a22.8,22.8,0,0,1-3.16,6.48c-2.83,4-6.83,6.73-10.28,10A25.91,25.91,0,0,0,60,272.82a20.08,20.08,0,0,0-2.59,6.55,27.67,27.67,0,0,0,1,14,33.32,33.32,0,0,0,7.2,12.18c3.16,3.57,6.77,6.72,9.86,10.36a28.74,28.74,0,0,1,6.42,12.62,126,126,0,0,1,2.46,14.08,69.84,69.84,0,0,0,3.12,13.93A32.75,32.75,0,0,0,90.59,363a15.38,15.38,0,0,0,5.15,4.87,18.88,18.88,0,0,0,6.74,2.23,41.57,41.57,0,0,0,7.14.34c4.76-.13,9.51-.68,14.28-.61s9.64.82,13.68,3.44a21.18,21.18,0,0,1,8.47,11.17,29.92,29.92,0,0,1,1.21,7,65.61,65.61,0,0,1-.11,7.15c-.28,4.75-.77,9.52-.39,14.28a117.18,117.18,0,0,0,5.62,28A145.9,145.9,0,0,0,163.87,467,153.53,153.53,0,0,0,180,490.55a150.47,150.47,0,0,0,20.35,20,135.12,135.12,0,0,0,23.95,15.54c8.47,4.38,17.44,7.69,26.35,11.06l13.38,5.05c4.47,1.66,8.9,3.43,13.43,4.92a51.85,51.85,0,0,0,14,2.82,27,27,0,0,0,7.11-.62,16.16,16.16,0,0,0,6.45-2.92,19.37,19.37,0,0,0,4.72-5.32,33.35,33.35,0,0,0,3-6.47,46.24,46.24,0,0,0,2.4-14,23.76,23.76,0,0,0-.94-7.06c-.66-2.29-1.56-4.5-2.12-6.82-1.19-4.64-1.34-9.44-1.51-14.2a42.48,42.48,0,0,1,.33-7.13,20.72,20.72,0,0,1,2-6.81,16.07,16.07,0,0,1,4.52-5.47,20.23,20.23,0,0,1,6.34-3.23A43.6,43.6,0,0,1,338,468.39a38.94,38.94,0,0,1,13.94,2.76c4.44,1.78,8.42,4.47,12.73,6.49a27.63,27.63,0,0,0,6.81,2.13l1.78.18c.29,0,.59.07.89.07H375l1.79,0,1.77-.21a26.21,26.21,0,0,0,3.51-.68c.56-.18,1.12-.39,1.68-.58a10.48,10.48,0,0,0,1.65-.7,28.23,28.23,0,0,0,6-3.83c1.87-1.48,3.66-3.06,5.57-4.49a21.43,21.43,0,0,1,6.25-3.39l.85-.29c.29-.08.58-.12.87-.19.59-.11,1.17-.27,1.76-.34a25,25,0,0,1,3.56-.16l1.79.05,1.78.22a29.59,29.59,0,0,1,3.49.72,27.82,27.82,0,0,1,6.51,2.93,41.71,41.71,0,0,1,5.69,4.31c3.58,3.15,6.82,6.66,10.44,9.77a37.74,37.74,0,0,0,12.11,7.43c9,3.31,19,3,28.07.12a49.66,49.66,0,0,0,23.36-15.8,67.31,67.31,0,0,0,12.84-25.31,100.06,100.06,0,0,0,3.38-28.3A123.93,123.93,0,0,1,520.1,407a43.62,43.62,0,0,1,3.5-13.8c.45-1.1,1-2.14,1.58-3.2s1.18-2.08,1.88-3.05l1-1.47,1.08-1.43,2.18-2.84A66.81,66.81,0,0,0,538.77,369a47.1,47.1,0,0,0,4.11-13.63,39.72,39.72,0,0,0-.61-14.21c-.29-1.15-.62-2.3-.93-3.45s-.82-2.24-1.22-3.36a35.48,35.48,0,0,0-3.26-6.34c-2.76-3.94-6.81-6.65-10.7-9.36-8.14-5.09-14-13.23-17.38-22.1a51.5,51.5,0,0,1-3-13.93c-.23-2.37-.4-4.76-.82-7.1a25.25,25.25,0,0,0-2.16-6.79c-2.11-4.28-4.88-8.19-7.1-12.41a38.09,38.09,0,0,1-2.76-6.59,59.43,59.43,0,0,1-1.6-7c-1.63-9.43-1.3-19-1-28.54.15-4.76.14-9.53.36-14.3s.57-9.52,1.13-14.25a133.13,133.13,0,0,1,6.14-27.89,127.2,127.2,0,0,1,12.51-25.66c5-8.13,10.5-15.92,15.8-23.84,2.64-4,5.24-8,7.69-12A40.05,40.05,0,0,0,537,89.85a17.9,17.9,0,0,0,1.22-7,14.15,14.15,0,0,0-2.06-6.75,23,23,0,0,0-4.6-5.42,42.76,42.76,0,0,0-12.23-7.26c-8.89-3.53-18.46-4.72-27.91-5.78s-19-1.75-28.51-2.16c-2.38-.1-4.76-.15-7.14-.33s-4.74-.55-7.09-1c-4.7-.79-9.38-1.8-14.15-1.91a29.08,29.08,0,0,0-7.09.64l-.88.18-.85.26c-.57.18-1.14.34-1.7.53l-1.65.69c-.27.11-.55.22-.82.35l-.79.42c-4.27,2.14-7.82,5.41-11.71,8.16a31.93,31.93,0,0,1-6.18,3.57,21.41,21.41,0,0,1-7,1.57A30.49,30.49,0,0,1,382,65.85c-4.4-1.85-8.63-4.08-13-5.93a40.72,40.72,0,0,0-6.78-2.22,40,40,0,0,0-7.07-.92,81.72,81.72,0,0,0-14.24.92,39.09,39.09,0,0,0-13.51,4.36,19.22,19.22,0,0,0-5.36,4.63,12,12,0,0,0-1,1.46l-.85,1.57a18.88,18.88,0,0,0-1.09,3.39,35.3,35.3,0,0,1-.95,3.45,10.61,10.61,0,0,1-1.77,3.1,10.88,10.88,0,0,1-6.08,3.57,21.6,21.6,0,0,1-7.13.22,36.3,36.3,0,0,1-7-1.6c-4.5-1.58-8.82-3.63-13.15-5.62-8.63-4-17.08-8.48-25.69-12.57a170.68,170.68,0,0,0-26.59-10.41l-3.46-.91c-1.15-.29-2.32-.51-3.49-.77a59.83,59.83,0,0,0-7.05-1.14,70.79,70.79,0,0,0-14.26,0,62.13,62.13,0,0,0-26.91,8.86,43.93,43.93,0,0,0-10.67,9.4,41,41,0,0,0-3.92,6A38.61,38.61,0,0,0,158.37,81.27Z"/></svg>