<svg id="Layer_1" data-name="Layer 1" xmlns="http://www.w3.org/2000/svg" viewBox="0 0 600 600"><title>Switzerland</title><path d="M49.69,397.35a12.53,12.53,0,0,1,2.7-5.82,27.24,27.24,0,0,1,4.81-4.15,41,41,0,0,0,4.71-3.88,12.28,12.28,0,0,0,3-4.88c1.19-3.67,1-7.73.64-11.76l-.64-6.15c-.21-2.07-.45-4.16-.53-6.3a34.88,34.88,0,0,1,.28-6.51,15.28,15.28,0,0,1,.31-1.64c.13-.54.28-1,.42-1.56.26-1,.6-2,.93-3.06a39,39,0,0,1,6-11.35,59.47,59.47,0,0,1,8.91-9c3.14-2.75,6.49-5.3,9.63-7.95a32.32,32.32,0,0,0,7.9-8.88c.23-.43.45-.85.65-1.29s.37-.88.52-1.31a15,15,0,0,0,.65-2.66,25.52,25.52,0,0,0,.15-5.76c-.12-2-.3-4.16-.26-6.49a20.33,20.33,0,0,1,1.41-7.38,19,19,0,0,1,1.9-3.53,32.42,32.42,0,0,1,2.26-2.92,40.76,40.76,0,0,1,5.18-4.81c1.77-1.44,3.58-2.67,5.31-3.84s3.21-2.26,4.67-3.38,2.81-2.35,4.16-3.62a48.76,48.76,0,0,1,4.19-3.86c3-2.49,6.91-4.61,10-7.47a31,31,0,0,0,4.11-4.69c1.23-1.66,2.56-3.39,3.83-5a45.51,45.51,0,0,0,6.26-9.65,13.26,13.26,0,0,0,1.1-4.65,11.53,11.53,0,0,0-.66-4.33c-.51-1.49-1.32-3.13-2.23-5.08a29.47,29.47,0,0,1-2.54-7.28,17.08,17.08,0,0,1-.17-4.82,17.38,17.38,0,0,1,1.26-4.82,24.3,24.3,0,0,1,4.91-7.29,33.22,33.22,0,0,1,6.22-5.13,33.94,33.94,0,0,1,7.36-3.58,24.79,24.79,0,0,1,9.31-1.36c.46,0,.93.08,1.39.13s1,.15,1.44.24,1,.25,1.49.38l1,.32c1.36.42,2.6.9,3.76,1.37,2.32,1,4.31,1.91,6,2.61a20.09,20.09,0,0,0,4.19,1.34,7.1,7.1,0,0,0,2.66-.1,13.89,13.89,0,0,0,2.88-1,40.12,40.12,0,0,0,7.58-4.82c1.4-1.08,2.85-2.27,4.38-3.54l1.17-1c.17-.15.44-.36.71-.56l.78-.59c1.05-.79,2.11-1.57,3.25-2.28l1.69-1.1,1.77-1c1.18-.69,2.41-1.3,3.66-1.88a58.39,58.39,0,0,1,7.75-2.92,48.85,48.85,0,0,1,7.88-1.68c.65,0,1.3-.12,2-.14s1.27,0,1.91,0a25.32,25.32,0,0,1,3.74.45c1.24.2,2.39.56,3.57.83s2.28.68,3.41,1a40.39,40.39,0,0,0,6.48,1.38l1.58.14,1.66.11c1.19.08,2.36.19,3.52.31,2.33.25,4.6.59,6.82,1,4.44.75,8.67,1.69,12.74,2.6s8,1.71,11.75,2.35a72.68,72.68,0,0,0,10.84,1.12,46.85,46.85,0,0,0,5.07-.19c.82-.06,1.63-.17,2.44-.29s1.57-.24,2.21-.41a11.5,11.5,0,0,0,3.07-1.09,2.19,2.19,0,0,0,.66-.47c.13-.12.13-.18.1-.19s0,0,0,0,0,0,0,0,0,0,0-.07a2.55,2.55,0,0,0,.16-.69,4.65,4.65,0,0,0-.13-1.6,9.25,9.25,0,0,0-2.71-4.22,10.21,10.21,0,0,0-1.07-.85l-.56-.36c-.23-.14-.71-.42-1.39-.87a22.91,22.91,0,0,1-2.63-2,20.33,20.33,0,0,1-1.64-1.68,19,19,0,0,1-1.54-2.06,16.68,16.68,0,0,1-2.42-6.17,16.18,16.18,0,0,1,.71-8.14,17.23,17.23,0,0,1,3.44-5.67,20.16,20.16,0,0,1,3.61-3.1,22.45,22.45,0,0,1,6.84-3.07c.62-.16,1.24-.3,1.92-.41.35-.06.68-.11,1.06-.15l.85-.08c.84-.08,1.67-.12,2.47-.13a39.71,39.71,0,0,1,4.67.19,41,41,0,0,1,9,1.9l1.15.4,1,.39c.65.25,1.28.51,1.88.78,1.24.52,2.38,1.07,3.49,1.61,4.4,2.2,7.89,4.25,10.79,5.53.72.33,1.39.59,2,.84l.92.31,1,.27a31.38,31.38,0,0,0,4.22.88,76,76,0,0,0,10.34.63c3.86,0,8.08-.09,12.74,0,2.35.07,4.76.13,7.32.38l1.91.18c.65.07,1.31.18,2,.27s1.34.18,1.95.29l1.83.33a99,99,0,0,1,14.44,3.69,93.22,93.22,0,0,1,26.59,14c1,.77,2,1.58,3,2.37l2.9,2.5a69.43,69.43,0,0,1,5.78,5.92,46.55,46.55,0,0,1,9.63,17.35,39.05,39.05,0,0,1,1.47,11.27,30.05,30.05,0,0,1-1.84,10.34,30.83,30.83,0,0,1-4.67,8.36,37.8,37.8,0,0,1-3,3.39c-.5.52-1.08,1.08-1.63,1.61s-1.1,1-1.64,1.43c-2.19,1.76-4.17,3.12-5.92,4.47a32.39,32.39,0,0,0-4.51,4c-2.37,2.72-3.91,5.38-4.07,7.14a3.67,3.67,0,0,0,.34,2.1,4.62,4.62,0,0,0,1.36,1.61,4.49,4.49,0,0,0,3.68,1.05,8.57,8.57,0,0,1,2.13-.38c1.18-.15,2.92-.36,5.18-.55,1.13-.08,2.39-.17,3.81-.19a35.91,35.91,0,0,1,5.23.4,29.34,29.34,0,0,1,11.07,4.14,32.59,32.59,0,0,1,7.76,7,54.93,54.93,0,0,1,4.29,6.26l.81,1.36c.25.41.42.74.63,1.12.41.73.85,1.46,1.29,2.17.88,1.43,1.85,2.79,2.81,4.1a31.77,31.77,0,0,0,6.09,6.46c.52.41,1,.72,1.5,1a14.52,14.52,0,0,0,1.44.7,7.51,7.51,0,0,0,2.69.62,5.06,5.06,0,0,0,2.54-.59,11.9,11.9,0,0,0,3.13-2.53c1.19-1.2,2.4-2.78,3.85-4.5l2.29-2.72c.78-.9,1.57-1.85,2.46-2.79a34.31,34.31,0,0,1,6.64-5.95,20.07,20.07,0,0,1,5.46-2.54,17.88,17.88,0,0,1,7.28-.51,21.12,21.12,0,0,1,12.22,6.27,24.16,24.16,0,0,1,5.9,10.93,26.51,26.51,0,0,1,.73,5.64,28.89,28.89,0,0,1-.42,5.39,37.77,37.77,0,0,1-2.56,8.54,89.66,89.66,0,0,1-6.19,11.33c-.88,1.46-1.61,2.77-2.12,3.81a22.38,22.38,0,0,0-.89,2.11c-.08.2-.09.32-.15.48a2.18,2.18,0,0,0,0,.27c0,.05,0,.1,0,.15s0,.08.06.15l.09.22a53.6,53.6,0,0,0,2.77,4.69,40.31,40.31,0,0,1,3.9,7.69,23.22,23.22,0,0,1,1.24,11,18.37,18.37,0,0,1-2.18,6.43,6.87,6.87,0,0,1-.4.68l-.36.57c-.28.39-.53.77-.85,1.17a18.23,18.23,0,0,1-2.24,2.43,15.9,15.9,0,0,1-3.22,2.3,15,15,0,0,1-4.17,1.48,15.37,15.37,0,0,1-7.65-.54,20.73,20.73,0,0,1-4.83-2.33,33,33,0,0,1-3.36-2.49c-1-.82-1.86-1.63-2.67-2.43s-1.56-1.55-2.24-2.29l-1.84-2-.66-.72c-.15-.18-.25-.3-.08-.29s0-.06-.09-.13-.23-.13-.35-.21-.51-.25-.78-.36a7.64,7.64,0,0,0-1.77-.43,8.26,8.26,0,0,0-6.72,2.46,6.28,6.28,0,0,0-.95,1.27l-.17.34-.18.39c-.1.27-.2.52-.27.78a5.51,5.51,0,0,0,0,3,8.12,8.12,0,0,0,1.38,2.8,11.72,11.72,0,0,0,2.54,2.42l.18.13a1.28,1.28,0,0,1,.24.18l.84.76c.55.53,1.12,1.06,1.69,1.65a32.87,32.87,0,0,1,3.33,4,26.64,26.64,0,0,1,4.27,9.71c.18.8.28,1.55.38,2.3,0,.36.06.73.09,1.09s0,.16.05.22a.46.46,0,0,1,0,.09c.1.35.16,1.1.32,2a70.11,70.11,0,0,1,.86,7.3,31.26,31.26,0,0,1-.26,5.35,22.91,22.91,0,0,1-2.13,7,19.88,19.88,0,0,1-5.76,7l-.9.64c-.32.23-.61.41-.86.56-.53.32-1,.63-1.69.94a20.15,20.15,0,0,1-4.34,1.6,18.33,18.33,0,0,1-5.64.46,17.65,17.65,0,0,1-5.7-1.38A20.28,20.28,0,0,1,493,398.8a27.85,27.85,0,0,1-3.4-4.72c-.83-1.43-1.46-2.73-2-3.91-.7-1.55-.56-1.27-.73-1.61a4.23,4.23,0,0,0-.51-.71,4.07,4.07,0,0,0-1.38-1.12,3.06,3.06,0,0,0-1.26-.37c-.06.07-.88.11-2.18.4a18.21,18.21,0,0,0-2.22.59,13.9,13.9,0,0,0-2.63,1.37c-.93.56-1.92,1.27-3.06,1.9a15.64,15.64,0,0,1-3.86,1.65,18,18,0,0,1-4.94.64,33.52,33.52,0,0,1-6.1-.42,28.79,28.79,0,0,1-6.95-2.07,26.51,26.51,0,0,1-6.46-4.06L444,385.14c-.51-.5-1.06-1.08-1.56-1.64a23.18,23.18,0,0,1-2.69-3.77A24.94,24.94,0,0,1,437,372.6a29.1,29.1,0,0,1-.58-4.29c0-.46,0-.83,0-1.08a1.42,1.42,0,0,1,0-.32l0-.11s0-.16,0-.23c-.13-1.39-.28-2.55-.42-3.4l-.34-1.86a2.35,2.35,0,0,0-.42-1c-.05-.09-.15-.12-.22-.22a3.34,3.34,0,0,0-.33-.17,3.2,3.2,0,0,0-1-.24,11.59,11.59,0,0,0-6.52,1.87,16.25,16.25,0,0,0-5.85,5.73,12.6,12.6,0,0,0-1.35,6.66c0,2.54.27,5.81.24,10a66.62,66.62,0,0,1-.43,7c-.16,1.25-.38,2.64-.55,3.72l-.61,3.27c-.19,1.05-.45,2-.65,3a25.93,25.93,0,0,1-.68,2.73,8.84,8.84,0,0,1-1.24,2.33,10.34,10.34,0,0,1-.83,1.05,3.54,3.54,0,0,0-.56.9c-.2.38-.44.74-.66,1.11a62.84,62.84,0,0,1-5.52,7c-.41.46-.77,1-1.11,1.41s-.64.93-.91,1.36a24.92,24.92,0,0,0-1.26,2.55,28.33,28.33,0,0,0-1.59,4.14,6.08,6.08,0,0,0-.21.87,8.19,8.19,0,0,0-.13.82l-.07.42-.05.55c0,.38,0,.75-.05,1.13a24.7,24.7,0,0,0,.3,4.47,23.81,23.81,0,0,0,1,4.3c.12.34.24.69.37,1l.19.51.18.43c.28.68.72,1.68,1.24,3.07a27.08,27.08,0,0,1,1.46,5.76,20.55,20.55,0,0,1,.08,4.42,18.71,18.71,0,0,1-1.2,5.15,19.23,19.23,0,0,1-2.57,4.6,21.75,21.75,0,0,1-3.05,3.28,20.48,20.48,0,0,1-3.92,2.69,19.14,19.14,0,0,1-5.43,1.86,18.74,18.74,0,0,1-5.57.14,20.71,20.71,0,0,1-4.57-1.09,23.64,23.64,0,0,1-6.2-3.38,33.19,33.19,0,0,1-7.1-7.31,38.74,38.74,0,0,1-2.51-4c-.4-.74-.79-1.48-1.19-2.37-.09-.2-.2-.46-.29-.69a4.82,4.82,0,0,1-.21-.55l-.25-.74a36.86,36.86,0,0,1-1.39-6.19c-.3-2.13-.44-4.33-.67-6.49a40.83,40.83,0,0,0-1-6.35,48.37,48.37,0,0,0-2-6.1,20.52,20.52,0,0,0-2-4.15,7.5,7.5,0,0,0-2.34-2.24,16.17,16.17,0,0,0-1.91-1.07c-.78-.42-1.55-.77-2.34-1.11a34.74,34.74,0,0,0-4.81-1.59c-1.71-.5-3.58-.73-6.63-1.79a21.91,21.91,0,0,1-4.88-2.46c-.4-.27-.78-.57-1.17-.86l-.58-.46-.65-.6a16.85,16.85,0,0,1-2.35-2.69,19.91,19.91,0,0,1-2.84-6,31.29,31.29,0,0,1-1-5c-.16-1.43-.23-2.62-.33-3.6,0-.48-.09-.92-.14-1.27l-.19-1.31a84.41,84.41,0,0,0-2.18-10.31c-.43-1.64-1-3.32-1.5-4.75a23.23,23.23,0,0,0-1.58-3.48,6,6,0,0,0-1.09-1.43,1.05,1.05,0,0,0-.49-.29,3.45,3.45,0,0,0-.78-.17,2.15,2.15,0,0,0-.45,0,4.41,4.41,0,0,0-1.77.6,27.34,27.34,0,0,0-6.7,5.58,38.41,38.41,0,0,0-5.78,7.82q-1.29,2.25-2.43,4.73c-.37.82-.74,1.66-1.09,2.51l-.5,1.28c-.07.18-.15.36-.2.52a5.41,5.41,0,0,0-.24,2.45c.07,1.24.58,3.14,1,5.88a26.48,26.48,0,0,1-.12,9.82,28.35,28.35,0,0,1-3.75,9,62.43,62.43,0,0,1-4.57,6.12c-1.5,1.81-3.07,3.47-4.55,5.22s-2.87,3.6-4.25,5.53-2.74,3.95-4.3,5.89a29.83,29.83,0,0,1-12.77,9.88,32.59,32.59,0,0,1-11.16,2.4c-.59,0-1.26,0-1.88,0l-.93-.06-.75-.09c-1-.12-1.95-.29-2.86-.49a35.21,35.21,0,0,1-4.93-1.5,59.93,59.93,0,0,1-7-3.32l-.94-.52-.71-.37c-.47-.23-.92-.42-1.37-.59a11.56,11.56,0,0,0-5.95-.48,40.84,40.84,0,0,0-9.16,3c-3.53,1.52-7.49,3.36-12.05,5.08a48.08,48.08,0,0,1-15.75,3.34,33.52,33.52,0,0,1-12.82-2.4,32.72,32.72,0,0,1-4-1.92,27.91,27.91,0,0,1-7-5.66,32.08,32.08,0,0,1-4.5-6.77,58.06,58.06,0,0,1-2.77-6.46c-.66-1.87-1.28-3.65-2-5.32-1.42-3.3-3.18-6.24-5-7.59h0L148.45,420l-.23-1a9.59,9.59,0,0,0-2-3.44c-1.08-1.34-2.44-2.74-3.87-4.33-.72-.81-1.46-1.67-2.18-2.66a15.9,15.9,0,0,1-2-3.56,10.23,10.23,0,0,1-.69-5,8,8,0,0,1,.18-1.09c.06-.34.15-.65.23-1,.17-.63.37-1.23.58-1.8.87-2.27,1.9-4.08,2.6-5.67a11.7,11.7,0,0,0,.71-1.93,8.85,8.85,0,0,0,.09-2,35,35,0,0,0-.84-5.3c-.41-1.88-.91-3.79-1.35-5.94-.1-.55-.21-1.1-.29-1.73l-.19-1.51c-.12-1-.23-2-.37-2.89a25.65,25.65,0,0,0-1.16-5.08,12,12,0,0,0-2.36-3.92,14.56,14.56,0,0,0-1.77-1.62,21.64,21.64,0,0,0-2.06-1.37,18.86,18.86,0,0,0-9.87-2.07,38,38,0,0,0-10.83,2.14c-1.79.6-3.55,1.33-5.28,2.1s-3.35,1.67-5.23,2.65a73.78,73.78,0,0,0-10.1,5.69,14.49,14.49,0,0,0-6,8.27c-.86,3.38-.27,7.37-.52,11.61,0,.53-.08,1.07-.15,1.61,0,.27-.07.53-.12.81s-.12.62-.21.9a11.36,11.36,0,0,1-1.5,3.11,22.82,22.82,0,0,1-4.33,4.68A51.41,51.41,0,0,1,67,405.29a36.5,36.5,0,0,1-5.68,2.36,10.81,10.81,0,0,1-6.35.19,7.65,7.65,0,0,1-4.7-4.28A10.61,10.61,0,0,1,49.69,397.35Zm.48.08a10,10,0,0,0,.66,5.88,6.92,6.92,0,0,0,4.36,3.85,10,10,0,0,0,5.91-.28,35.25,35.25,0,0,0,5.49-2.4,49.92,49.92,0,0,0,9.91-6.74,22.59,22.59,0,0,0,3.94-4.51,10,10,0,0,0,1.23-2.72,14.17,14.17,0,0,0,.33-3c.13-4-.66-8,.15-12a14.67,14.67,0,0,1,2.34-5.48,20.19,20.19,0,0,1,4.16-4.3,74.29,74.29,0,0,1,10.28-6.18,63.6,63.6,0,0,1,10.81-5.2,41.46,41.46,0,0,1,11.7-2.51,22.18,22.18,0,0,1,11.64,2.27,19.48,19.48,0,0,1,4.78,3.58,15.44,15.44,0,0,1,3.2,5c1.46,3.76,1.64,7.82,2.37,11.75s2.1,7.74,2.42,11.75a13,13,0,0,1-.09,3,14.15,14.15,0,0,1-.95,2.84c-.79,1.84-1.75,3.61-2.44,5.49a13.26,13.26,0,0,0-.73,2.9,6,6,0,0,0,.45,2.94,17.31,17.31,0,0,0,3.45,4.88c1.35,1.48,2.77,2.89,4.06,4.42a13.79,13.79,0,0,1,3,5.17h0a13.73,13.73,0,0,1,5.05,3.55,30.58,30.58,0,0,1,3.73,5c2.22,3.52,3.73,7.42,6,10.92a22.05,22.05,0,0,0,8.92,8.45A23.87,23.87,0,0,0,188.36,448a35.82,35.82,0,0,0,11.93-3.37c3.79-1.71,7.41-3.76,11.1-5.65a55.62,55.62,0,0,1,11.5-4.71,25.11,25.11,0,0,1,12.33-.21c4.09.89,7.61,3.28,11.54,4.64a17.39,17.39,0,0,0,6.09,1.13,17.9,17.9,0,0,0,6-1.51,50.29,50.29,0,0,0,10.59-6.5,94.84,94.84,0,0,0,9.28-8.29c1.46-1.48,2.88-3,4.22-4.58a44,44,0,0,0,3.77-4.95,17.55,17.55,0,0,0,2.41-5.71,16.52,16.52,0,0,0,0-6.19c-.35-2.05-.91-4.05-1.21-6.11a16.32,16.32,0,0,1,.18-6.19,26.17,26.17,0,0,1,.93-3c.35-1,.71-1.95,1.09-2.92.77-1.93,1.6-3.83,2.53-5.68a51.2,51.2,0,0,1,6.79-10.41,40.46,40.46,0,0,1,9.17-8.35,17.27,17.27,0,0,1,5.76-2.28,15.19,15.19,0,0,1,6.19.17,13.45,13.45,0,0,1,5.54,2.72,17.28,17.28,0,0,1,3.92,4.79,43.25,43.25,0,0,1,4.16,11.69,75.3,75.3,0,0,1,1.72,12.33c.14,2.07.06,4.15.17,6.22a11.84,11.84,0,0,0,1.61,5.94,10.61,10.61,0,0,0,4.86,3.75c1.92.8,3.93,1.33,5.89,2a45.65,45.65,0,0,1,11.07,5.63,16.86,16.86,0,0,1,4.26,4.49,31.34,31.34,0,0,1,2.75,5.57c1.5,3.88,3.19,7.67,4.84,11.48l4.95,11.44a23.4,23.4,0,0,0,3.09,5.38,22.54,22.54,0,0,0,4.35,4.43,10.92,10.92,0,0,0,2.71,1.51,6,6,0,0,0,3.06.35,5.87,5.87,0,0,0,2.75-1.37,6.18,6.18,0,0,0,1.85-2.47c.8-2,.28-4.15-.35-6.08s-1.43-3.91-1.93-5.92A44.66,44.66,0,0,1,390.37,429a32,32,0,0,1,.67-6.18,44.44,44.44,0,0,1,1.77-6c1.41-3.9,3.13-7.7,4.06-11.76,1.49-8.18,4.33-16.05,5.54-24.28a74.87,74.87,0,0,1,2.84-12.12,29.21,29.21,0,0,1,6.39-10.58,38,38,0,0,1,9.93-7.42,27.5,27.5,0,0,1,11.9-3.33,16.73,16.73,0,0,1,6.11,1,15.26,15.26,0,0,1,5.26,3.25c3,2.88,4.83,6.8,6,10.76.61,2,.83,4.07,1.38,6.07a11.09,11.09,0,0,0,1.19,2.87,8.42,8.42,0,0,0,2.09,2.28,11.6,11.6,0,0,0,2.67,1.58,12.45,12.45,0,0,0,3,.81,21.55,21.55,0,0,0,6.21-.14c4.11-.61,8.09-1.85,12.2-2.46a20.86,20.86,0,0,1,6.21-.13,16.92,16.92,0,0,1,5.83,2.09,18.83,18.83,0,0,1,8,9.26,21.74,21.74,0,0,0,3.26,5.28,7.23,7.23,0,0,0,2.47,1.85,4.84,4.84,0,0,0,3.05.23,7.39,7.39,0,0,0,4.75-3.75,13.13,13.13,0,0,0,1.07-6.07c-.05-2.08-.31-4.14-.53-6.21-.11-1-.21-2.06-.23-3.1s0-2.08-.05-3.11a16.3,16.3,0,0,0-1.48-6,18.73,18.73,0,0,0-3.66-5,17.84,17.84,0,0,1-4.84-11.2,14.53,14.53,0,0,1,4.69-11.13A17.11,17.11,0,0,1,519.48,332a16.08,16.08,0,0,1,6.1,1.1,24.92,24.92,0,0,1,5,3.66c1.57,1.35,3.13,2.72,4.79,4a17.89,17.89,0,0,0,5.41,3,6.31,6.31,0,0,0,3.08.18,5.46,5.46,0,0,0,2.68-1.47,9.21,9.21,0,0,0,2.76-5.45,12.73,12.73,0,0,0-.94-6.09,27.23,27.23,0,0,0-3.07-5.4c-1.17-1.71-2.42-3.38-3.47-5.17a16.1,16.1,0,0,1-1.32-2.82,14.36,14.36,0,0,1-.62-3.05c-.34-4.18,1.11-8.24,2.74-12s3.64-7.47,5.19-11.33,2.67-8,1.89-12.12a12.73,12.73,0,0,0-2.42-5.66,9.61,9.61,0,0,0-5.1-3.36,8.75,8.75,0,0,0-6,.93,21.16,21.16,0,0,0-5,3.7c-3,2.86-5.39,6.31-8.09,9.46a24.66,24.66,0,0,1-4.57,4.21,15,15,0,0,1-5.7,2.42,18.87,18.87,0,0,1-12.09-1.87,38.6,38.6,0,0,1-10-7.33,66.18,66.18,0,0,1-8-9.55c-2.43-3.33-4.92-6.8-8.5-9a15.68,15.68,0,0,0-5.83-2.08,31.42,31.42,0,0,0-6.21-.15c-4.12.19-8.38.55-12.35-.85a17.7,17.7,0,0,1-9.35-7.83,16.48,16.48,0,0,1-2.05-5.85,15.89,15.89,0,0,1,.34-6.18c1-4.05,3.37-7.61,5.85-10.91s5.27-6.42,7.64-9.83A34.24,34.24,0,0,0,457.49,208a23.23,23.23,0,0,0-.13-12.3A30,30,0,0,0,451.21,185a66.48,66.48,0,0,0-9-8.57A83.67,83.67,0,0,0,420.72,164a76.13,76.13,0,0,0-24.21-5.37c-8.28-.5-16.64-.19-24.83-1.71A44.08,44.08,0,0,1,359.89,153c-3.73-1.85-7.24-4.08-10.91-6a47.21,47.21,0,0,0-5.66-2.57,28,28,0,0,0-6.05-1.41,26.87,26.87,0,0,0-3.1-.19,13.27,13.27,0,0,0-3.09.27,9.8,9.8,0,0,0-2.84,1.22,5,5,0,0,0-2,2.29,3.3,3.3,0,0,0,.43,2.95,7.43,7.43,0,0,0,2.21,2.15,25.23,25.23,0,0,1,4.83,3.91,21.08,21.08,0,0,1,5.6,10.94,15.07,15.07,0,0,1-2.78,11.79,13.81,13.81,0,0,1-4.92,3.74,24.16,24.16,0,0,1-5.92,1.88c-8.2,1.5-16.63.79-24.77-.72s-16.18-3.74-24.37-5.18a95,95,0,0,0-12.37-1.41c-4.14-.26-8.29-.47-12.44-.36a56.36,56.36,0,0,0-12.34,1.56,43.57,43.57,0,0,0-11.45,4.77c-3.57,2.13-6.81,4.76-10.32,7A44.23,44.23,0,0,1,206.45,195,20,20,0,0,1,194.2,195c-3.95-1.33-7.42-3.71-11.12-5.57-.93-.47-1.87-.91-2.84-1.29a11.07,11.07,0,0,0-3-.79,17.37,17.37,0,0,0-6.17.56,26.54,26.54,0,0,0-10.84,5.89,16.72,16.72,0,0,0-3.79,4.9,10.83,10.83,0,0,0-1,6.06c.51,4.16,2.75,7.82,3.68,11.87a16.09,16.09,0,0,1,.29,6.18,18.56,18.56,0,0,1-2,5.88,52.56,52.56,0,0,1-7.37,10c-5.47,6.26-10.51,12.87-16.13,19-1.42,1.52-2.88,3-4.42,4.39a55.15,55.15,0,0,1-4.85,3.9c-3.39,2.4-7.11,4.28-10.55,6.62a37.79,37.79,0,0,0-4.88,3.86,18.41,18.41,0,0,0-3.79,4.9,17.43,17.43,0,0,0-1.66,6c-.24,2.06-.24,4.14-.33,6.22a30.5,30.5,0,0,1-.73,6.17,18.54,18.54,0,0,1-2.47,5.68,37.6,37.6,0,0,1-8.61,8.92c-3.27,2.57-6.58,5.07-9.73,7.78A54.14,54.14,0,0,0,73.25,331a37.36,37.36,0,0,0-5.57,11.08c-.29,1-.61,2-.84,3a24.71,24.71,0,0,0-.65,3.05,34,34,0,0,0-.19,6.22c.2,4.14.82,8.26,1.12,12.4s.36,8.39-1.13,12.3a13.47,13.47,0,0,1-3.47,5.11,41.08,41.08,0,0,1-5,3.76,24,24,0,0,0-4.8,3.94A11.82,11.82,0,0,0,50.17,397.43Z"/></svg>