<svg id="Layer_1" data-name="Layer 1" xmlns="http://www.w3.org/2000/svg" viewBox="0 0 600 600"><title>Tajikistan</title><path d="M69.53,231.78A57.46,57.46,0,0,1,77,230.55c2.51-.26,5-.49,7.59-.53a69.39,69.39,0,0,1,15.14,1.65,67.44,67.44,0,0,0,7.39,1.24,26.19,26.19,0,0,0,7.3-.32,14.25,14.25,0,0,0,6.42-2.89,12.19,12.19,0,0,0,2.26-2.64,18.51,18.51,0,0,0,1.58-3.22c.9-2.27,1.52-4.75,2.64-7.18a14.61,14.61,0,0,1,2.19-3.46,12.25,12.25,0,0,1,3.26-2.61,70.87,70.87,0,0,1,7.19-2.85c2.26-.88,4.48-2,5.78-3.59a5.06,5.06,0,0,0,1.12-2.72,4.4,4.4,0,0,0-.77-2.74,20.75,20.75,0,0,0-2.24-2.73,14.43,14.43,0,0,1-2.48-3.39c-.14-.37-.29-.74-.42-1.12s-.16-.8-.22-1.21,0-.82,0-1.22a11,11,0,0,1,.24-1.17,6.68,6.68,0,0,1,2.75-3.87,10,10,0,0,1,4.18-1.56,13,13,0,0,1,4.31.1,68.69,68.69,0,0,1,7.39,2.34,16.1,16.1,0,0,0,3.35.72,7.68,7.68,0,0,0,3-.33,8.79,8.79,0,0,0,4.46-4.26,27.29,27.29,0,0,0,2.45-6.63,48.6,48.6,0,0,0,1.11-7.28c.23-2.46.35-5,.46-7.46s.17-5,.4-7.7c.13-1.42.29-2.63.53-4a20.66,20.66,0,0,1,1.21-4.31,11.79,11.79,0,0,1,2.92-4.26,7.33,7.33,0,0,1,1.12-.92c.43-.27.87-.54,1.32-.78s1-.37,1.48-.53a8.81,8.81,0,0,1,1.52-.27,12.77,12.77,0,0,1,5.33.7,30.44,30.44,0,0,1,4,1.76l3.4,1.8a15.53,15.53,0,0,0,2.74,1.19,22,22,0,0,0,6.19.95,21.65,21.65,0,0,0,11.63-3.53c3.82-2.32,7.53-5.42,11.75-8.59a74.09,74.09,0,0,1,6.83-4.66l1.91-1.08,1-.51a12.67,12.67,0,0,1,1.18-.56,20.19,20.19,0,0,1,2.79-.93c.86-.23,1.66-.39,2.45-.54a42.54,42.54,0,0,1,9.19-.54,29.45,29.45,0,0,1,9.95,2.06,16.15,16.15,0,0,1,6,4.15,13.44,13.44,0,0,1,2.48,4.22,18.35,18.35,0,0,1,.56,2,13.83,13.83,0,0,1,.3,2.13,15.87,15.87,0,0,1-1.56,7.79,27.8,27.8,0,0,1-3,4.8c-.95,1.27-1.83,2.3-2.57,3.23s-1.34,1.73-1.78,2.38a5.45,5.45,0,0,0-.73,1.38c-.06.25,0,.18,0,.13s0,0,.2.36c0,.1,0,.08.06.11s0,0,.06.06.13.13.21.22a6.52,6.52,0,0,0,2.48,1.25c.18,0-.07,0,0,0l.25,0c.28,0,.64.05,1.12.06.92,0,2.1,0,3.37,0a48.15,48.15,0,0,1,9.33.6,20.72,20.72,0,0,1,6.59,2.36,16,16,0,0,1,6.46,6.85c.16.35.32.71.47,1.08a8.93,8.93,0,0,1,.44,1.23c.13.47.25.93.36,1.4s.15.91.2,1.37a15.28,15.28,0,0,1,.06,2.6,20.34,20.34,0,0,1-.29,2.3,22.33,22.33,0,0,1-2.53,6.49,36.43,36.43,0,0,1-3,4.37q-1.51,1.9-3,3.52c-2,2.18-4.08,4.11-6.12,5.94s-4.09,3.55-6,5.17L273,206.25c-1.1.94-2.28,1.9-3.58,2.85a34.2,34.2,0,0,1-4.53,2.86,24.09,24.09,0,0,1-6.28,2.29,21.92,21.92,0,0,1-7.53.19l-1.74-.33c-.59-.12-1.06-.29-1.59-.44a25.29,25.29,0,0,1-2.88-1c-.91-.37-1.66-.76-2.48-1.15l-2.17-1.2-2-1.18c-.39-.25-.8-.48-1.2-.71a29.21,29.21,0,0,0-5-2.21,32.85,32.85,0,0,0-11.12-1.59,39.19,39.19,0,0,0-21.41,7.66,28,28,0,0,0-3.89,3.55,19.66,19.66,0,0,0-1.31,1.66,8.92,8.92,0,0,0-.75,1.44,7.06,7.06,0,0,0-.61,2.75,3.94,3.94,0,0,0,.1.79c.08.13.1.21.14.2s0,0,0,0,0,0,0,0,.05.08.12.07,0,0,.05,0l.1,0c0,.06.19.08.25.15a11.58,11.58,0,0,0,3,.84,33.48,33.48,0,0,0,5.41.38c1,0,2.12,0,3.25,0s2.51-.11,3.75-.21a42.65,42.65,0,0,1,7.58-.12,44.23,44.23,0,0,1,7.6,1.39,54.36,54.36,0,0,0,7.61,1.62,46.79,46.79,0,0,0,7.58,0c2.52-.14,5-.38,7.57-.68l1.89-.25,2.1-.23,4.06-.47A76.46,76.46,0,0,0,268.23,223l.58-.17a.5.5,0,0,0,.19-.08l.09-.07.36-.28a12.73,12.73,0,0,1,1.37-.93c.7-.46,1.76-1.1,3.16-1.9a37.6,37.6,0,0,1,5.15-2.38c.49-.19,1-.36,1.5-.53s.89-.28,1.34-.42c.89-.26,1.79-.48,2.69-.68a44.8,44.8,0,0,1,5.55-.86c1.92-.17,3.64-.22,5.39-.21s3.46.13,5.15.28a79.49,79.49,0,0,1,18.31,4.16c2.76.94,5.39,1.94,7.9,2.94l3.73,1.52,2.14.93,2,.94c2.63,1.26,5,2.5,7.22,3.61s4.13,2.05,5.89,2.78a17.81,17.81,0,0,0,7.94,1.8c.26,0,.51-.07.76-.08l.4,0,.6-.09c.8-.1,1.65-.26,2.53-.43,1.76-.36,3.71-.88,5.81-1.49,4.23-1.21,9.09-2.93,14.87-4.47a86.45,86.45,0,0,1,17-2.85,51.45,51.45,0,0,1,8.23-.05c1.35.14,2.69.29,4,.52l2,.33,1,.17.49.08.33.08a12,12,0,0,0,4.17.6,16.44,16.44,0,0,0,5-1.24c2.29-.84,5.22-2,8.1-2.87l1.09-.34,1.66-.5a29.3,29.3,0,0,1,3.55-.7,26.18,26.18,0,0,1,7.54.08,22.34,22.34,0,0,1,8.37,3.08,19.8,19.8,0,0,1,3.93,3.26,19.78,19.78,0,0,1,5.13,12.4,34.07,34.07,0,0,1-.2,5.67l-.43,3.52c0,.36,0,.47-.07.35l-.08-.29-.06-.2s-.1-.27-.05-.1c.77,2.43,1.54,4.79,2.41,7.24l1.32,4,1.24,4.16c.21.71.4,1.43.59,2.15s.42,1.84.58,2.76a49.1,49.1,0,0,1,.56,5.17c.11,1.44.2,2.56.34,3.29s.32,1.06.45,1.12a.17.17,0,0,0,.16,0c.06,0,0-.12.19.09a3.81,3.81,0,0,0,.66.51,4.58,4.58,0,0,0,1.21.35l.55.08.86.08c.63,0,1.37.05,2.24,0,1.73-.05,3.92-.28,6.56-.53,1.31-.12,2.79-.23,4.27-.31s2.94-.12,4.41-.13a102.54,102.54,0,0,1,17.53,1.4c2.89.48,5.75,1.07,8.57,1.81,1.41.36,2.81.76,4.2,1.18l2.12.65c.76.25,1.59.53,2.48.89s1.84.75,2.86,1.26a28.82,28.82,0,0,1,3.21,1.83,24.8,24.8,0,0,1,6.73,6.47,24.2,24.2,0,0,1,3.86,8.95,31,31,0,0,1,.59,7.25c-.06,2-.23,3.57-.35,4.85s-.22,2.26-.25,2.87a4.3,4.3,0,0,0,0,.72,2.54,2.54,0,0,0,0,.67c0,.24,0,.46.09.73s.12.53.16.81a27.56,27.56,0,0,0,1.63,4.27c.76,1.69,1.83,3.58,3,5.74s2.5,4.53,3.85,7.21c.66,1.39,1.3,2.78,1.93,4.34.32.74.61,1.56.9,2.38l.43,1.23c.15.43.32,1,.47,1.51a35.39,35.39,0,0,1,1.16,11.61c-.09,1.68-.27,3.22-.46,4.61s-.4,2.67-.58,3.8S554,369,553.87,370s-.2,1.95-.24,2.73a30.45,30.45,0,0,0,0,3.11c.05.18-.17-.07-.16,0a2.85,2.85,0,0,0,.53.78l1.48,1.77a23.23,23.23,0,0,1,2.12,3.05,17.09,17.09,0,0,1,1.77,4.34,7,7,0,0,1,.22,1l.13.85c.08.56.16,1.12.21,1.68a31.72,31.72,0,0,1-.19,6.42,19.77,19.77,0,0,1-.58,3c-.14.49-.26,1-.42,1.46l-.53,1.4c-.33.95-1,1.7-1.43,2.6s-.81,1.8-1.23,2.72-1,1.79-1.45,2.7-1.13,1.77-1.81,2.61a19.19,19.19,0,0,1-5,4.56c-.51.31-1,.63-1.54.91s-1.11.52-1.68.76a22.65,22.65,0,0,1-3.57,1.19,28,28,0,0,1-3.81.62c-.6.05-1.13.06-1.7.08s-1.13,0-1.66,0a34.29,34.29,0,0,1-6.11-.78c-1.81-.41-3.54-.9-5-1.39-3-1-5.38-1.92-7.3-2.54-.48-.16-.89-.26-1.32-.39s-.8-.21-1.09-.24l-.48-.08-.4,0a6.28,6.28,0,0,0-.75,0,13.38,13.38,0,0,0-3.26.54,25.76,25.76,0,0,0-4.28,1.68,101.48,101.48,0,0,0-10.94,6.69l-1.57,1.05L489.06,426q-1.9,1.22-4,2.37a47.46,47.46,0,0,1-9,4.15c-.81.29-1.66.52-2.51.75l-.65.17-.74.18c-.48.11-1,.22-1.44.31a48.6,48.6,0,0,1-5.45.78c-1.72.15-3.32.2-4.82.22h-1.58c-.6,0-1.42,0-2.44,0-.51,0-1.09,0-1.71,0l-1-.06-1.17-.11a22,22,0,0,1-5.38-1.29c-1.26-.47-1.93-.79-2.21-.92l-.12-.07-.34-.14-.69-.28a48.61,48.61,0,0,0-5.61-1.88,38.18,38.18,0,0,0-5.58-1.1,30.76,30.76,0,0,0-5.22-.11,20.29,20.29,0,0,0-4.4.87c-.31.14-.61.25-.93.37a10.72,10.72,0,0,0-1.08.52,17.62,17.62,0,0,0-2,1.26,5.94,5.94,0,0,0-1.47,1.31,30.74,30.74,0,0,1-2.13,2.24c-.56.54-1.24,1.15-2.06,1.82-.41.33-.86.68-1.35,1l-.73.51-.45.35q-1.83,1.38-3.6,2.64c-2.38,1.67-4.7,3.18-6.89,4.58s-4.31,2.59-6.27,3.69l-2.87,1.56-2.67,1.38c-.87.41-1.68.86-2.48,1.24a17.4,17.4,0,0,1-2.45.94c-1.6.43-3.61.86-6,1.45a49,49,0,0,0-7.44,2.46,31.77,31.77,0,0,0-7,4.18c-2.16,1.69-4.09,3.71-6.25,5.69-1.06,1-2.18,2-3.32,3-.6.49-1.14,1-1.78,1.51s-1.28,1-2,1.54a40.35,40.35,0,0,1-9.39,5.3,29.81,29.81,0,0,1-5.93,1.65,25.43,25.43,0,0,1-3.24.34l-1.63.06-1.66-.07a29.23,29.23,0,0,1-13.09-4l-1.44-.89-1.35-.95a28.28,28.28,0,0,1-2.52-2,39,39,0,0,1-4.18-4.4,41.08,41.08,0,0,1-5.55-9.26,31.88,31.88,0,0,1-2.6-9.26,35.93,35.93,0,0,1,.14-9.1c.21-1.48.44-2.94.71-4.37s.6-2.66.83-4a46.79,46.79,0,0,0,.83-7.8,61.48,61.48,0,0,0-.59-7.58c-.33-2.51-.7-5-1.16-7.5-1.78-10-5.07-19.66-7.49-29.51-.64-2.46-1.19-4.93-1.72-7.4l-1.49-7.32A92.45,92.45,0,0,0,284,354.31a35.64,35.64,0,0,0-2.29-5.17,19.9,19.9,0,0,0-2.87-4c-2.16-2.33-4.74-3.84-6.74-4.11a4.62,4.62,0,0,0-.73-.07,3,3,0,0,0-.67,0c-.11,0-.22,0-.33,0l-.31.08c-.2.07-.4,0-.6.15a8.09,8.09,0,0,0-2.35,1.18,4.76,4.76,0,0,0-.61.45,7.31,7.31,0,0,1-.61.52c-.4.45-.82.79-1.21,1.3a17.76,17.76,0,0,0-1.15,1.49c-.35.58-.72,1.1-1,1.72a16.38,16.38,0,0,0-1.49,3.7,5,5,0,0,0-.25.92c-.06.31-.16.6-.2.9l-.25,1.93a57.88,57.88,0,0,0,0,10c.13,1.9.36,3.92.59,6.07l.1.81c0,.19,0,.11,0,.15l0,0v0l0,.17.07.38.29,1.26.42,1.69c.33,1.32.68,2.79,1,4.71.17.87.33,2,.46,3,.07.54.12,1.18.17,1.77s.1,1.19.1,1.91,0,1.36,0,2-.11,1.52-.18,2.28a24.16,24.16,0,0,1-.4,2.41,20.66,20.66,0,0,1-.63,2.49c-.28.86-.58,1.72-.92,2.55a27.55,27.55,0,0,1-1.23,2.5,26.83,26.83,0,0,1-3.17,4.51c-1.05,1.06-2.11,2-3.2,2.92a34.53,34.53,0,0,1-3.9,2.57c-.72.38-1.46.73-2.2,1a18.07,18.07,0,0,1-2.26.85,21.65,21.65,0,0,1-4.62,1q-1.14.12-2.25.18c-.71,0-1.4,0-2.09-.08a21.87,21.87,0,0,1-3.83-.57,11.22,11.22,0,0,1-1.69-.46l-1.57-.53c-1-.4-1.87-.78-2.78-1.19-3.41-1.65-6-3.37-8.44-4.7-.59-.34-1.2-.66-1.81-.95s-1.17-.58-1.76-.84L211.37,404c-1.08-.46-2.15-.79-3.16-1.12-.51-.16-1-.29-1.47-.42s-.92-.18-1.37-.28-.83-.1-1.24-.16h-1a6.81,6.81,0,0,0-.78.12c-.18.08-.42.11-.49.22a.5.5,0,0,1-.17.1.87.87,0,0,1-.08.14c-.07,0-.07.19-.09.26l0,0V403a.75.75,0,0,1,0,.16c0,.09-.07.35-.13.47-.11.41-.28.87-.44,1.54a3.41,3.41,0,0,0-.11.43,2.81,2.81,0,0,1,0,.29l0,.7c0,1,.19,2.64.39,4.9.11,1.13.2,2.38.27,3.82,0,.73.07,1.47.05,2.28q0,.58,0,1.23a13.29,13.29,0,0,1-.09,1.4c-.12,1.1-.26,2.21-.45,3.31s-.57,2.2-.9,3.29a28.23,28.23,0,0,1-2.92,6.19,29.2,29.2,0,0,1-9.65,9.53,24,24,0,0,1-13,3.43,26.78,26.78,0,0,1-12.6-3.63,37.87,37.87,0,0,1-5-3.43c-1.36-1.13-2.53-2.21-3.61-3.16s-2.11-1.83-3-2.62-1.81-1.53-2.64-2.16a19,19,0,0,0-2.29-1.51,5.69,5.69,0,0,0-1.6-.63,8.61,8.61,0,0,0-2.87.42,31.16,31.16,0,0,0-4.82,2.13c-1.78,1-3.65,2.14-5.7,3.36l-3.21,2c-1.08.63-2.21,1.29-3.38,1.93a71,71,0,0,1-7.71,3.7,48.37,48.37,0,0,1-9.27,2.72,36.93,36.93,0,0,1-10.92.52A30.44,30.44,0,0,1,84.54,442a33.93,33.93,0,0,1-8.67-7,38.87,38.87,0,0,1-5.76-8.46,45.33,45.33,0,0,1-3.45-9.1,46.34,46.34,0,0,1-1.48-9.55,41,41,0,0,1,.07-4.95c0-.83.16-1.68.26-2.52l.4-2.33a52.4,52.4,0,0,1,2.58-8.83,65.68,65.68,0,0,1,3.88-8,64.69,64.69,0,0,1,10.68-13.75,59.17,59.17,0,0,1,6.71-5.63c2.32-1.65,4.61-3.06,6.77-4.39,4.32-2.61,8.27-5,10.47-7.58a8.62,8.62,0,0,0,2.1-3.89,12.29,12.29,0,0,0-.08-5.18c-.13-.49-.23-1-.37-1.49l-.23-.75c-.08-.25-.16-.54-.23-.7a10.07,10.07,0,0,0-1.13-2.35,23.92,23.92,0,0,0-4.15-4.74c-3.41-3.15-7.67-6.05-11.67-9.89a27.39,27.39,0,0,1-5.39-6.9,18.28,18.28,0,0,1-1.62-4.4,19.11,19.11,0,0,1-.36-4.59,43.8,43.8,0,0,1,1.38-8,26.07,26.07,0,0,0,1-6.77,4.55,4.55,0,0,0-2.62-4.37,13.72,13.72,0,0,0-3.17-1.12c-1.15-.3-2.38-.52-3.61-.76-5-.86-10.2-2.11-14.72-4.76A24.44,24.44,0,0,1,52,267.9a26.34,26.34,0,0,1-1.88-15,26.73,26.73,0,0,1,6.47-13.58,25.26,25.26,0,0,1,13-7.47Zm0,.08A22.24,22.24,0,0,0,66,233.15a27,27,0,0,0-3.35,1.7A22.29,22.29,0,0,0,57,239.69a26,26,0,0,0-5.84,13.38,25,25,0,0,0,2.27,14.19A21.8,21.8,0,0,0,63,277.49c4.28,2.26,9.17,3.23,14.14,3.85,1.26.18,2.52.34,3.81.61a17.5,17.5,0,0,1,3.88,1.16,8.11,8.11,0,0,1,3.39,2.73,7.86,7.86,0,0,1,.56,1l.42,1a11.66,11.66,0,0,1,.41,2.07,27.68,27.68,0,0,1-.65,7.85,42.83,42.83,0,0,0-.95,7.32,14,14,0,0,0,.39,3.49,13.82,13.82,0,0,0,1.33,3.24,22.22,22.22,0,0,0,4.7,5.49c3.7,3.27,8,5.92,12,9.18a30.49,30.49,0,0,1,5.45,5.55,17.31,17.31,0,0,1,2,3.44,32.19,32.19,0,0,1,1.28,3.69,19.47,19.47,0,0,1,.65,7.83,15.54,15.54,0,0,1-3.08,7.26,29.29,29.29,0,0,1-5.55,5.41c-2,1.57-4.13,3-6.23,4.4s-4.17,2.82-6.15,4.36a48.65,48.65,0,0,0-5.53,5,53.82,53.82,0,0,0-11.73,19,44.62,44.62,0,0,0-1.87,7.25,34.25,34.25,0,0,0,8.16,27.81,22.61,22.61,0,0,0,5.87,4.56,19,19,0,0,0,7.11,2.13c5,.43,10-.9,14.65-2.79s9.08-4.39,13.57-6.7,9.11-4.55,14.14-5.39a15.82,15.82,0,0,1,7.52.42,23.63,23.63,0,0,1,6.54,3.79c2,1.54,3.9,3.22,5.88,4.79,1,.78,2,1.53,3.07,2.22a20.56,20.56,0,0,0,3.39,1.68,16.69,16.69,0,0,0,14.55-1.54,17.09,17.09,0,0,0,8-12.25c.69-5,.15-10.16,1.57-15.05a14.61,14.61,0,0,1,1.47-3.48,17.55,17.55,0,0,1,2.13-3.12,11.66,11.66,0,0,1,6.36-3.87,18,18,0,0,1,7.52.17,56,56,0,0,1,7.26,2.16c4.75,1.68,9.42,3.73,14.41,4.66a16.25,16.25,0,0,0,7.5-.22,11.6,11.6,0,0,0,6-4.39,10.28,10.28,0,0,0,1.61-3.41,12.81,12.81,0,0,0,.35-3.76,37.75,37.75,0,0,0-1.3-7.45c-1.44-4.86-1.71-10-1.84-15a54.66,54.66,0,0,1,1.65-15,34.33,34.33,0,0,1,2.74-7.05,32.67,32.67,0,0,1,4.18-6.3,30.73,30.73,0,0,1,5.46-5.23,31.3,31.3,0,0,1,3.16-2.08,28.06,28.06,0,0,1,3.44-1.58,21.23,21.23,0,0,1,14.84-.21,28,28,0,0,1,12.07,8.86,40.71,40.71,0,0,1,7.06,13.31,96.64,96.64,0,0,1,3.42,14.76l2.37,15c3.16,20,6.23,40,9.48,59.9a73.69,73.69,0,0,0,4.12,14.56c1.94,4.62,4.57,9.16,8.6,12.27A17.15,17.15,0,0,0,338.16,470a24,24,0,0,0,7-2.79,41.05,41.05,0,0,0,6.1-4.48c7.62-6.66,13.27-15.3,21.29-21.54s17.61-9.86,26.53-14.56a43.15,43.15,0,0,0,6.47-3.94c1-.77,2-1.56,3-2.27a31.38,31.38,0,0,1,3.26-1.93,37.78,37.78,0,0,1,7-2.86,36.12,36.12,0,0,1,7.45-1.31,53,53,0,0,1,15.06,1.18,71.06,71.06,0,0,1,7.31,2c1.21.38,2.38.86,3.56,1.29a9.48,9.48,0,0,0,3.74.48c2.52-.16,5-.21,7.56-.48a33.32,33.32,0,0,0,7.39-1.63,66.26,66.26,0,0,0,13.57-6.67,99,99,0,0,1,13.42-7,29.68,29.68,0,0,1,14.81-2.35c5.06.62,9.57,3.17,14.26,5a25.09,25.09,0,0,0,7.32,1.85,12.35,12.35,0,0,0,7.29-1.54,16.92,16.92,0,0,0,8.21-12.13,15.36,15.36,0,0,0,.1-3.77c-.12-.62-.2-1.25-.36-1.86a6.88,6.88,0,0,0-.77-1.73c-1.33-2.16-3.59-3.59-4.75-5.88a18.72,18.72,0,0,1-1.95-7.27,49.05,49.05,0,0,1,0-7.57c.14-2.52.36-5,.33-7.57a23.94,23.94,0,0,0-1.11-7.47c-3.39-9.57-10.85-17.14-13.67-27a26.35,26.35,0,0,1-.9-7.5c.1-2.52.52-5,.59-7.55a11.76,11.76,0,0,0-1.73-7.24,13.14,13.14,0,0,0-6.09-4.32,90.92,90.92,0,0,0-29.62-5.76c-2.53-.06-5.05,0-7.58.17s-5,.33-7.57.29a25.92,25.92,0,0,1-7.48-1.07,15.48,15.48,0,0,1-6.4-3.91,14.92,14.92,0,0,1-3.77-6.48,28.92,28.92,0,0,1-.52-7.54,30,30,0,0,0-.18-3.79,36.4,36.4,0,0,0-.71-3.72c-.57-2.46-1.29-4.88-2.07-7.29l-2.52-7.15a9.83,9.83,0,0,1-.42-3.74c.07-1.26.17-2.52.25-3.78.17-2.49.22-5.15-1-7.39a6.93,6.93,0,0,0-2.62-2.67,8.9,8.9,0,0,0-3.58-1.14,14.31,14.31,0,0,0-7.37,1.33c-2.34,1-4.6,2.09-6.86,3.23a43,43,0,0,1-7,3,33.76,33.76,0,0,1-7.46,1.27c-10.08.57-20.2,1.32-30.08,3.54-4.93,1.1-9.77,2.57-14.68,3.77a58,58,0,0,1-15,2,36.55,36.55,0,0,1-14.52-4c-4.56-2.18-8.86-4.85-13.35-7.18-2.23-1.18-4.54-2.21-6.85-3.24s-4.63-2-7-2.91a62.64,62.64,0,0,0-14.61-3.87,39.81,39.81,0,0,0-7.56-.22,30.16,30.16,0,0,0-7.4,1.53,56.2,56.2,0,0,0-6.82,3.28,20.38,20.38,0,0,1-7.21,2.23,100.69,100.69,0,0,1-15.14.23q-3.8-.12-7.58,0l-7.58.12-30.32.47c-5,.08-10.14.26-15.12-.73a21.93,21.93,0,0,1-7.09-2.6,14,14,0,0,1-5.14-5.45,13.84,13.84,0,0,1-1.22-3.59,16.47,16.47,0,0,1-.23-3.78,19.93,19.93,0,0,1,1.9-7.3,21.82,21.82,0,0,1,1.91-3.27,33.74,33.74,0,0,1,2.43-2.91,39.68,39.68,0,0,1,5.72-5,50.41,50.41,0,0,1,13.5-6.81,47.51,47.51,0,0,1,7.34-1.85,43.44,43.44,0,0,1,7.55-.68,44.11,44.11,0,0,1,14.88,2.53,39.7,39.7,0,0,1,6.86,3.22,52.69,52.69,0,0,0,6.56,3.76,15.72,15.72,0,0,0,3.61,1.11,10.74,10.74,0,0,0,3.75-.06,18.46,18.46,0,0,0,6.77-3.25c2.06-1.46,3.94-3.16,5.93-4.72s3.93-3.17,5.84-4.82,3.77-3.37,5.53-5.19a33,33,0,0,0,4.68-5.92,12.2,12.2,0,0,0,1.44-3.48,5.67,5.67,0,0,0-.4-3.67,6.36,6.36,0,0,0-2.55-2.69,11.36,11.36,0,0,0-3.54-1.27,43.21,43.21,0,0,0-7.54-.55c-1.26,0-2.53,0-3.79-.1a15.28,15.28,0,0,1-3.74-.59,15,15,0,0,1-6.42-3.92,10.36,10.36,0,0,1-2-3.18,10,10,0,0,1-.83-3.69,11.45,11.45,0,0,1,2.61-7c1.5-2.05,3.29-3.84,4.89-5.79a18.3,18.3,0,0,0,2.13-3.12,7.41,7.41,0,0,0,.85-3.63,5.69,5.69,0,0,0-1.27-3.47,8.71,8.71,0,0,0-3-2.18,23,23,0,0,0-7.33-1.74,34,34,0,0,0-7.55.13,16.55,16.55,0,0,0-3.68.86c-1.16.48-2.29,1-3.41,1.63a73.32,73.32,0,0,0-6.44,4c-4.18,2.84-8.23,5.9-12.7,8.27a30.29,30.29,0,0,1-7.05,2.76,24.8,24.8,0,0,1-7.53.65,26.73,26.73,0,0,1-7.39-1.58,52.2,52.2,0,0,1-6.64-3.65c-2.18-1.21-4.54-2.46-7.09-2.31a4.85,4.85,0,0,0-.93.13l-.9.29a6.07,6.07,0,0,0-1.56,1,8.32,8.32,0,0,0-2.22,3,27.79,27.79,0,0,0-1.84,7.32c-.34,2.5-.52,5-.76,7.54a98.25,98.25,0,0,1-2.29,15,29,29,0,0,1-2.7,7.06,10.47,10.47,0,0,1-5.47,5,9.52,9.52,0,0,1-3.75.39,17.38,17.38,0,0,1-3.7-.83,67.81,67.81,0,0,0-7.19-2.35,10.86,10.86,0,0,0-3.77-.11,8.26,8.26,0,0,0-3.52,1.27,5.13,5.13,0,0,0-2.16,3,5,5,0,0,0,.27,3.68c1.11,2.29,3.26,3.84,4.59,6a5.87,5.87,0,0,1,.94,3.62,6.47,6.47,0,0,1-1.46,3.45c-1.63,2-4,3.05-6.38,4a70.1,70.1,0,0,0-7.07,2.71,10.9,10.9,0,0,0-3,2.32,13.73,13.73,0,0,0-2,3.17c-1.08,2.28-1.73,4.74-2.68,7.08a18.9,18.9,0,0,1-1.71,3.39,13,13,0,0,1-2.5,2.84,15.07,15.07,0,0,1-6.87,3,27,27,0,0,1-7.56.26,69.91,69.91,0,0,1-7.47-1.32,96.08,96.08,0,0,0-15-2,56.29,56.29,0,0,0-7.57.17A45.77,45.77,0,0,0,69.57,232Z"/></svg>