<svg id="Layer_1" data-name="Layer 1" xmlns="http://www.w3.org/2000/svg" viewBox="0 0 600 600"><title>timor-leste</title><path d="M64.11,382.54a40.62,40.62,0,0,0,11.12-8.36c.39-.42.76-.86,1.12-1.3l1.15-1.4c.77-1,1.54-1.9,2.39-2.86a35.69,35.69,0,0,1,2.81-2.84,23.27,23.27,0,0,1,3.5-2.55,32.77,32.77,0,0,1,7.62-3.17c.63-.2,1.23-.35,1.84-.5l.46-.12a2,2,0,0,0,.38-.1l.52-.18c.72-.25,1.49-.57,2.35-.94,1.71-.74,3.77-1.78,6.35-2.73a22,22,0,0,1,9.37-1.48,15.15,15.15,0,0,1,9.89,4.56,14.18,14.18,0,0,1,2.92,4.65,14.69,14.69,0,0,1,.87,5.06,18.66,18.66,0,0,1-2.42,8.48,32.24,32.24,0,0,1-2.08,3.35c-.72,1.07-1.43,2-2.29,3.08-1.7,2-3.5,3.67-5.19,5.34a39.55,39.55,0,0,0-4.56,5,12.42,12.42,0,0,0-1.44,2.58,5.6,5.6,0,0,0-.24,2.34c.12,1.75.9,3.82,1.45,6.44a17.76,17.76,0,0,1,.46,4.52c0,.44,0,.85-.11,1.32a13.27,13.27,0,0,1-.29,1.4,17.87,17.87,0,0,1-.83,2.41,24.64,24.64,0,0,1-5,7.5,22.34,22.34,0,0,1-3.6,3,16.88,16.88,0,0,1-4.88,2.31,14.06,14.06,0,0,1-3.2.54,13.07,13.07,0,0,1-3.72-.36A12.17,12.17,0,0,1,87.18,426q-.42-.25-.81-.54l-.72-.59a12.35,12.35,0,0,1-1.44-1.45,17.23,17.23,0,0,1-1.09-1.51c-.27-.44-.55-.92-.77-1.35s-.42-.86-.59-1.25l-.47-1.16c-.56-1.5-.94-2.81-1.29-4.06-.67-2.49-1.22-4.68-1.79-6.54a20.08,20.08,0,0,0-.86-2.28c-.26-.56-.53-.87-.43-.72l.15.17a1.1,1.1,0,0,0,.14.09,1.33,1.33,0,0,0,.19.14l.45.23c.17,0,.3.11.45.13.58.09.61,0,.27.05l-.3.07c-.11,0-.28.1-.41.14a6.14,6.14,0,0,0-.62.22,7.45,7.45,0,0,0-1.58,1c-.66.53-1.47,1.24-2.4,2.08l-.78.69c-.35.29-.68.58-1,.85a18.94,18.94,0,0,1-2.32,1.52,16.42,16.42,0,0,1-5.59,1.95,15,15,0,0,1-6.21-.37,14.45,14.45,0,0,1-5.09-2.68,23.91,23.91,0,0,1-1.77-1.69l-.42-.43-.4-.5-.77-1-.37-.51-.33-.58-.62-1.17a16.35,16.35,0,0,1-.91-2.54,11.86,11.86,0,0,1,0-5.27,12.73,12.73,0,0,1,1.91-4.27,18.5,18.5,0,0,1,2.78-3.09,26.88,26.88,0,0,1,6.4-4.16C59.92,384.61,62,383.65,64.11,382.54Zm.72,1.31a69.7,69.7,0,0,0-6,3.66,14.8,14.8,0,0,0-4.38,4.83,10.23,10.23,0,0,0-1.06,2.8,5.87,5.87,0,0,0,.09,2.5,3.59,3.59,0,0,0,1,1.66c.3.19.46.38.76.55l.44.24.2.13.26.11.49.22.24.11.29.09c.39.11.78.3,1.1.36a2.52,2.52,0,0,0,1.42-.09,2.4,2.4,0,0,0,.8-.54,11.6,11.6,0,0,0,.86-.81c.17-.17.34-.37.52-.57l.27-.33.47-.55c.73-.82,1.55-1.81,2.63-2.87a22.72,22.72,0,0,1,4-3.23,18.93,18.93,0,0,1,2.55-1.32c.41-.17.78-.34,1.23-.5l1.38-.45a15.4,15.4,0,0,1,7.25-.36,11.32,11.32,0,0,1,2.13.65,10.56,10.56,0,0,1,2,1c.32.2.64.4.94.61s.55.43.81.66a11.67,11.67,0,0,1,1.41,1.4,17.68,17.68,0,0,1,3.15,5.32,30.74,30.74,0,0,1,1.32,4.43c.61,2.7.89,5.13,1.24,7.23.17,1,.33,2,.5,2.77l.23.88a1,1,0,0,1,0,.2s0,0-.1-.05c-.24-.24-.22-.12-.37-.21a2,2,0,0,0-.44-.09c-.16,0-.23,0-.24.07a.37.37,0,0,0,.29.07,5,5,0,0,0,1.61-.41,14,14,0,0,0,2.12-1.11,19,19,0,0,0,3.92-3.31,8.57,8.57,0,0,0,.64-.8c.09-.12.16-.2.23-.28s.13-.27.21-.41a9,9,0,0,0,.52-2.52c.16-2.06,0-4.66.42-7.62a12.38,12.38,0,0,1,1.58-4.42,20.79,20.79,0,0,1,2.53-3.24c1.78-1.89,3.62-3.45,5.32-5.06a27.48,27.48,0,0,0,4.44-4.95,26.44,26.44,0,0,0,1.51-2.86,17.93,17.93,0,0,0,1-3,8.93,8.93,0,0,0-.12-5.29,5.29,5.29,0,0,0-1.08-1.69,3.81,3.81,0,0,0-1.41-.85,4,4,0,0,0-1.51-.26,6.53,6.53,0,0,0-1.61.15,23.39,23.39,0,0,0-4.32,1.5c-1.81.76-4,1.82-6.68,2.7a26.69,26.69,0,0,1-4.43,1l-1.22.11-.49,0h-.41l-1.66,0c-2.18,0-4.19,0-6,.24a18.14,18.14,0,0,0-5.83,1.73c-1,.46-2.07,1-3.12,1.54l-3.18,1.78C73.22,379.53,69,381.56,64.83,383.85Z"/><path d="M263.66,198.92a30.54,30.54,0,0,0,2.51-5.54,22.6,22.6,0,0,0,1.37-5.61,6.89,6.89,0,0,0-.26-2.42,7.45,7.45,0,0,0-.93-1.8,5.72,5.72,0,0,0-2.63-2.14,2.44,2.44,0,0,0-1.63.09,3,3,0,0,0-.86.5,3.74,3.74,0,0,0-.44.39,4.62,4.62,0,0,0-.43.45,15.35,15.35,0,0,0-2.75,4.73,43.83,43.83,0,0,1-2.59,6.06,16.25,16.25,0,0,1-1,1.57,13.15,13.15,0,0,1-1.27,1.48,31.58,31.58,0,0,1-2.56,2.36,39.53,39.53,0,0,0-4,3.67c-.25.27-.34.5-.52.71s-.22.39-.21.51,0,.23-.06.29,0,.14,0,.3a3.35,3.35,0,0,0,.43,2.55,5.59,5.59,0,0,0,1.27,1.41,6.63,6.63,0,0,0,.81.58l1.09.55a10.07,10.07,0,0,0,4.45,1,7,7,0,0,0,2.18-.47,8,8,0,0,0,2-1.29,9.89,9.89,0,0,0,1.73-2,17.66,17.66,0,0,0,1.4-2.54C261.69,202.48,262.67,200.69,263.66,198.92Zm1.36.64c-.71,1.89-1.45,3.78-2,5.68-.13.47-.25.94-.42,1.48a15.33,15.33,0,0,1-.54,1.57,14.86,14.86,0,0,1-1.6,3.05A12.73,12.73,0,0,1,258,214a12,12,0,0,1-3.42,1.81,15.38,15.38,0,0,1-7.54.37c-.6-.13-1.17-.26-1.79-.42a14.86,14.86,0,0,1-1.92-.73,14.32,14.32,0,0,1-3.51-2.29,13.37,13.37,0,0,1-2.88-3.51,9.93,9.93,0,0,1-1.29-4.84,9.81,9.81,0,0,1,.33-2.71,10.25,10.25,0,0,1,1.13-2.49,11.45,11.45,0,0,1,1.53-2,13.75,13.75,0,0,1,1.66-1.39,26,26,0,0,1,6.1-3c.89-.35,1.76-.7,2.45-1.05a9,9,0,0,0,1-.54,8.18,8.18,0,0,0,.91-.78,17.75,17.75,0,0,0,3.11-4.62,31.77,31.77,0,0,1,3.3-5.74,11.94,11.94,0,0,1,1.24-1.35l.76-.65c.25-.21.57-.38.86-.58a7.8,7.8,0,0,1,4.22-1.17,8,8,0,0,1,6.86,4.65,8.61,8.61,0,0,1,.79,4,11.6,11.6,0,0,1-.86,3.6,30.51,30.51,0,0,1-3,5.68A27,27,0,0,0,265,199.56Z"/><path d="M226.67,262.22c-5.69.25-11.36.2-17,.55A89.85,89.85,0,0,0,193.05,265a39.82,39.82,0,0,0-7.69,2.71,21.93,21.93,0,0,0-6.3,4.54c-3.55,3.64-4.87,8.95-4.64,14,.07,1.3.26,2.71.32,4.29a15,15,0,0,1-.59,5.09,16.43,16.43,0,0,1-2.35,4.55,32.2,32.2,0,0,1-3,3.59c-2.09,2.2-4,4.08-5.81,6.14s-3.47,4.22-5.05,6.44c-3.05,4.5-5.95,9.14-7.59,14.33l-.29,1c-.11.33-.2.66-.26.92a14.46,14.46,0,0,0-.29,1.66,9.76,9.76,0,0,0,0,2.93c.12.81.44,1.41.67,1.37s.16-.19.07-.47a2.06,2.06,0,0,0-.56-.88,4.45,4.45,0,0,0-.54-.44c-.05-.09,0-.07.17-.13a12.2,12.2,0,0,0,1.9-.53l1.54-.59c.6-.23,1.17-.46,1.73-.7a33.67,33.67,0,0,0,3.12-1.48,17.88,17.88,0,0,0,2.46-1.51,4.18,4.18,0,0,0,.68-.59,4.77,4.77,0,0,0,.45-.54c.4-.49,1-1.49,1.92-2.85.46-.69,1-1.49,1.7-2.32a22,22,0,0,1,2.47-2.61c.46-.44,1-.85,1.52-1.25s.91-.63,1.36-.93a23.09,23.09,0,0,1,3.27-1.72,16.11,16.11,0,0,1,2-.72,18.27,18.27,0,0,1,2.33-.51,17.71,17.71,0,0,1,2.66-.15,13.86,13.86,0,0,1,2.84.39,14.85,14.85,0,0,1,5.12,2.29,15.48,15.48,0,0,1,1.91,1.59,17.32,17.32,0,0,1,1.51,1.64,22.12,22.12,0,0,1,3.44,6.22,34.64,34.64,0,0,1,2.14,11,30.82,30.82,0,0,1-.34,5.52c-.07.48-.16,1-.27,1.49s-.23.93-.34,1.4a24.43,24.43,0,0,1-.86,2.67,35.8,35.8,0,0,1-5.44,9.7,30.1,30.1,0,0,1-8.55,7.56,26.22,26.22,0,0,1-5.43,2.28c-1,.22-1.91.47-2.88.61a28.45,28.45,0,0,1-2.89.26h-2.16l-.53,0c-.72,0-1.39-.07-2.05-.08a28.84,28.84,0,0,0-3.54.06,9.33,9.33,0,0,0-2.48.51,2.17,2.17,0,0,0-1,.65,2.75,2.75,0,0,0-.54,1.15,3.28,3.28,0,0,0-.15,1.48,6.26,6.26,0,0,0,.55,1.8,15.87,15.87,0,0,0,1.52,2.52c1.31,1.84,3.06,3.9,5,6.18a44.48,44.48,0,0,1,5.66,8.28,21.36,21.36,0,0,1,2,5.89c.06.29.08.5.11.72l.09.63.13,1.19c.07.74.14,1.44.22,2a11,11,0,0,0,.53,2.48.7.7,0,0,0,.19.31l0,0,.11.09c.07.09.11.07.13.11s0-.09-.24-.18a1.38,1.38,0,0,0-.54-.14c-.22,0,.22-.16.84-.65a20.55,20.55,0,0,0,2.21-2c.81-.86,1.66-1.81,2.59-2.88a37.38,37.38,0,0,1,3.53-3.73,22.82,22.82,0,0,0,2.86-3.36c1.74-2.47,3.09-5.52,4.68-8.32a20.78,20.78,0,0,1,6-7,54.29,54.29,0,0,1,16.51-7.79c3-.87,6.06-1.62,9.09-2.34s6-1.46,8.94-2.32,5.78-1.81,8.7-2.65,5.82-1.67,8.75-2.44,5.9-1.44,8.9-2c1.45-.3,3.07-.62,4.58-.84s3-.42,4.49-.62a139.78,139.78,0,0,0,15.77-2.41c.57-.14,1.1-.31,1.65-.47s1-.3,1.62-.53c1.16-.41,2.36-.87,3.58-1.35,2.45-1,5.08-2.11,8-3.18a52.63,52.63,0,0,1,9.45-2.65,39.36,39.36,0,0,1,5.11-.58c1.69-.08,3.19,0,4.64,0a55.81,55.81,0,0,0,7.49-.14c.58-.06.92-.15,1.33-.21a9.24,9.24,0,0,0,1.2-.38,11.16,11.16,0,0,0,2.5-1.37,36.47,36.47,0,0,0,5.45-5.13c1-1,2-2.16,3.09-3.28a42.33,42.33,0,0,1,3.63-3.3,51.88,51.88,0,0,1,8.05-5.43,62.87,62.87,0,0,1,8.71-3.87A112.73,112.73,0,0,1,375.18,320c1.48-.27,2.95-.56,4.42-.8.67-.13,1.6-.25,2.42-.36s1.63-.19,2.42-.26l8.68-.8a69.42,69.42,0,0,0,7.56-1.11,20.45,20.45,0,0,0,5.52-1.88,3.74,3.74,0,0,0,1.18-1c.17-.26.09-.4,0-.43s-.13,0-.14-.07a3.39,3.39,0,0,1,.07-.5c.1-.47.25-1.22.4-2.29s.37-2.43.66-4.07l.25-1.29.06-.33.11-.45.23-.88a27.31,27.31,0,0,1,1.16-3.48,30.67,30.67,0,0,1,8.21-11.51A36.24,36.24,0,0,1,429.1,282c.92-.39,1.85-.67,2.77-1l1.39-.4.69-.19.77-.18c1-.21,2-.44,3-.59s2-.23,2.94-.31c7.65-.43,13.66,1.09,18.63,1.84s8.92,1.1,12.36-.36c.23-.09.44-.14.69-.26l.78-.41c.52-.29,1.06-.63,1.62-1a35.24,35.24,0,0,0,3.55-2.43,46.58,46.58,0,0,1,3.92-3c.36-.25.75-.49,1.13-.73s.87-.52,1.32-.75a26.08,26.08,0,0,1,2.66-1.21,42.83,42.83,0,0,1,4.88-1.53c1.45-.39,2.68-.71,3.73-1.07.24-.09.51-.17.73-.27a4.05,4.05,0,0,0,.58-.25,4.49,4.49,0,0,0,.75-.47,7.78,7.78,0,0,0,1.52-1.49,46.08,46.08,0,0,0,3.74-5.94c.37-.65.73-1.27,1.21-2s1-1.5,1.5-2.23a50.09,50.09,0,0,1,3.28-4,64.18,64.18,0,0,1,7.18-6.7q1.86-1.51,3.77-2.88l.95-.68.48-.34.61-.39,1.24-.79,1.2-.67c3.21-1.75,6-2.84,8.39-3.95a24,24,0,0,0,5.34-3.07,4.77,4.77,0,0,0,1-1.21c.14-.15.14-.36.25-.5a1.56,1.56,0,0,0,.1-.44c0-.21-.07-.2-.14-.18s-.13,0-.3-.2a9.61,9.61,0,0,0-2.5-2,13,13,0,0,0-4.22-1.52c-.33,0-.65-.07-.94-.09a4,4,0,0,0-.64,0c.13.09.08.1-.41.32s-1.25.57-2.34,1.1-2.41,1.21-4.11,2l-.66.29-.94.35q-.93.33-1.89.63c-.65.18-1.35.32-2,.46a16.2,16.2,0,0,1-2.09.31,25.62,25.62,0,0,1-8.07-.48,39.76,39.76,0,0,1-5.93-1.89c-1.53-.62-2.8-1.2-3.77-1.59s-1.69-.66-2.12-.75l-.18-.06-.14,0a1.38,1.38,0,0,1-.27-.08.83.83,0,0,1-.22,0l-.11,0h-.29a23.62,23.62,0,0,0-5.39.59,82.14,82.14,0,0,0-13.93,5.06l-4.08,1.75c-1.41.6-2.84,1.16-4.28,1.71-2.86,1.09-5.79,2.08-8.74,3s-6,1.7-9,2.35-6.15,1.08-9.23,1.75a54.1,54.1,0,0,1-9.46,1,46.26,46.26,0,0,1-9.88-.76c-6.49-1.25-11.94-3.52-16.92-4.92a43.61,43.61,0,0,0-7.14-1.53,25,25,0,0,0-6.8.19c-4.68.75-9.61,2.86-15.18,4.92-1.4.51-2.83,1-4.31,1.46s-3.07.85-4.58,1.17c-3,.63-6,1-8.86,1.35l-8.45.93a72.09,72.09,0,0,1-9,.62,32.88,32.88,0,0,1-4.81-.37,31.45,31.45,0,0,1-4.69-1.08c-3-.9-5.63-2.06-8.19-3-1.26-.49-2.54-.87-3.82-1.3s-2.58-.76-3.9-1a52,52,0,0,0-8-1.19,56,56,0,0,0-16.23,1.29,77.68,77.68,0,0,0-8,2.29c-2.62,1-5.18,2-7.75,3.18-5.13,2.33-10.22,4.86-15.38,7.28a119.62,119.62,0,0,1-15.93,6.3,59.36,59.36,0,0,1-8.39,1.93C232.37,262,229.52,262.11,226.67,262.22Zm0-1.5a83.81,83.81,0,0,0,8.41-.53,50.37,50.37,0,0,0,8.17-1.89,67.5,67.5,0,0,0,7.88-3c2.58-1.13,5.11-2.37,7.61-3.7,5-2.61,9.9-5.49,14.94-8.17,2.51-1.35,5.13-2.6,7.77-3.78a82.6,82.6,0,0,1,8.18-3,61.52,61.52,0,0,1,17.44-2.8,56.85,56.85,0,0,1,8.93.58c1.49.17,2.94.51,4.42.77s2.92.67,4.34,1.09c2.84.81,5.48,1.69,8,2.24a24.25,24.25,0,0,0,7.35.54,65.49,65.49,0,0,0,7.87-1.17l8.38-1.58c2.73-.53,5.37-1.09,7.85-1.82,1.24-.36,2.45-.76,3.59-1.21s2.41-1,3.65-1.56c4.9-2.22,10.26-5.14,16.72-6.76a37.73,37.73,0,0,1,10.12-1.1,53.08,53.08,0,0,1,9.62,1.26c6,1.31,11.28,3,16,3.55a43.32,43.32,0,0,0,7.08.28c2.47-.07,4.94-.45,7.45-.72a28.82,28.82,0,0,0,7.35-2.07c1.2-.44,2.39-1,3.57-1.47s2.35-1.11,3.5-1.72c2.32-1.19,4.58-2.49,6.8-3.92,1.11-.7,2.21-1.43,3.3-2.18l3.37-2.34c4.69-3.23,10-6.89,16.79-9.46a41.45,41.45,0,0,1,11.29-2.53l.77-.06h1l1.91,0c.61,0,1.22.12,1.84.19l.91.11.86.17a35.83,35.83,0,0,1,6,1.69c1.67.63,3,1.17,4.11,1.61a21.61,21.61,0,0,0,2.16.72c.36.05.42.09.39.09s0,0,0,0,0,0,0,0a.19.19,0,0,1,.13,0h.08l.32-.11c.92-.33,2.16-.86,3.67-1.49a39.35,39.35,0,0,1,5.61-1.91,25.37,25.37,0,0,1,8-.79,27.52,27.52,0,0,1,3.58.51c1.1.25,2.18.53,3.2.87a34.9,34.9,0,0,1,11,5.93,32.46,32.46,0,0,1,4.68,4.57,25.66,25.66,0,0,1,3.82,6.18,22.06,22.06,0,0,1,1.83,8,20.49,20.49,0,0,1-1.4,8.18A24.37,24.37,0,0,1,549.94,248a42.92,42.92,0,0,1-9.74,4.73c-2.85,1-5.42,1.86-7.27,2.7l-.69.3-.58.3-.31.16-.41.24-.82.49c-1.09.65-2.15,1.33-3.17,2a46.61,46.61,0,0,0-5.65,4.45,32.4,32.4,0,0,0-2.32,2.39c-.34.4-.68.81-1,1.22s-.72,1-1.1,1.54a54.85,54.85,0,0,1-6.12,7.9,23.05,23.05,0,0,1-5,3.88,19.3,19.3,0,0,1-3.07,1.4c-.56.21-1,.33-1.42.46l-1.3.35c-1.69.41-3.23.67-4.54.91s-2.42.47-3.32.74a10.67,10.67,0,0,0-1.25.44c-.2.07-.38.17-.57.25s-.45.23-.68.37a31.24,31.24,0,0,0-3,1.95,40.55,40.55,0,0,0-3.07,2.92c-.55.53-1.13,1.07-1.74,1.63l-.95.84c-.33.28-.74.57-1.11.85a34.69,34.69,0,0,1-4.87,3.11c-.86.4-1.74.8-2.62,1.18s-1.75.63-2.64,1a61.73,61.73,0,0,1-10.15,2.17l-8.7,1.08a45.08,45.08,0,0,0-6.66,1.31c-.42.16-.84.29-1.25.42s-.71.33-1.07.47l-.27.1-.31.15-.63.29c-.39.21-.8.41-1.17.62a16.94,16.94,0,0,0-3.59,2.55,8.68,8.68,0,0,0-1.7,2.16c-.06.18-.16.34-.22.54l-.06.14,0,.07-.05.18-.22.79c-.3,1.13-.58,2.57-1,4.27a30.27,30.27,0,0,1-6.25,12.65,23.33,23.33,0,0,1-6.39,5.13,26.82,26.82,0,0,1-6.54,2.57,39.71,39.71,0,0,1-11.19,1.05,86.19,86.19,0,0,1-9.45-.9c-2.95-.41-5.77-.92-8.33-1.26l-1.84-.23c-.59-.07-1.08-.11-1.82-.13-1.37-.07-2.72-.11-4.07-.13A62,62,0,0,0,361,336.4a39.82,39.82,0,0,0-7.05,2.5,30.64,30.64,0,0,0-6.14,3.88,23.43,23.43,0,0,0-2.65,2.44c-.86.93-1.74,1.9-2.65,3a60.69,60.69,0,0,1-6.52,6.94,23.68,23.68,0,0,1-4.65,3.2,22.52,22.52,0,0,1-2.74,1.21,29,29,0,0,1-2.79.83,68,68,0,0,1-9.44,1.31c-1.39.13-2.73.25-3.86.45a29.68,29.68,0,0,0-3.29.7,47.48,47.48,0,0,0-6.75,2.52c-2.37,1.05-4.9,2.29-7.69,3.48-1.4.6-2.84,1.19-4.36,1.71-.72.27-1.62.53-2.42.79s-1.65.44-2.46.62c-6.5,1.48-12.5,1.56-17.95,2a66.27,66.27,0,0,0-29.93,9.37,48.72,48.72,0,0,0-6.41,5c-2,1.85-3.93,3.88-5.84,5.82s-3.83,3.87-5.84,5.64a67.77,67.77,0,0,1-6.33,4.87,20.33,20.33,0,0,1-7.89,2.91,59.29,59.29,0,0,0-8.9,1.92,19.64,19.64,0,0,0-3.86,1.85,19.21,19.21,0,0,0-2.75,2c-1.1.9-2.3,1.92-3.62,2.94a34.65,34.65,0,0,1-4.58,3.08,19.43,19.43,0,0,1-3.06,1.41,14.77,14.77,0,0,1-4,.84,12.58,12.58,0,0,1-4.74-.6,13.42,13.42,0,0,1-4-2.19,15.46,15.46,0,0,1-1.43-1.33c-.21-.23-.42-.44-.63-.69l-.64-.81a16.56,16.56,0,0,1-1.86-3.4,22.93,22.93,0,0,1-1.33-5.8l-.25-2.2-.12-.93-.06-.41a2.24,2.24,0,0,0-.06-.33,8.38,8.38,0,0,0-.8-2.12,34,34,0,0,0-4.14-5.59c-1.74-2.08-3.78-4.26-5.73-7.06a29.7,29.7,0,0,1-2.77-4.81,18.58,18.58,0,0,1-1.63-6.38,16.94,16.94,0,0,1,1-6.88,15.91,15.91,0,0,1,3.74-6.11,15.71,15.71,0,0,1,6.19-3.8,21.59,21.59,0,0,1,5.86-1.07c1.78-.1,3.43-.09,5,0l2.2.1.53,0,.34,0h.7a9.32,9.32,0,0,0,4.93-1.6,10.75,10.75,0,0,0,3.67-4.09,15.16,15.16,0,0,0,1.45-5.77l.05-.74c0-.25,0-.5,0-.74s0-.52,0-.7L180,345c-.09-.9-.2-2-.35-3a24.69,24.69,0,0,0-1.34-5.62,4.18,4.18,0,0,0-.67-1.19s0,0,.06.09a1.9,1.9,0,0,0,.27.23,3.8,3.8,0,0,0,1.26.59,4,4,0,0,0,.74.1,2.19,2.19,0,0,0,.53,0c.26,0,.36-.09.28,0s-.25.14-.48.28a3.51,3.51,0,0,1-.4.27c0,.05-.07,0-.12.1a2.52,2.52,0,0,0-.46.47c-.22.27-.49.62-.82,1.1-.71,1-1.6,2.38-3,4.07a21.16,21.16,0,0,1-5.19,4.5,35.23,35.23,0,0,1-5,2.62c-1.62.69-3.2,1.26-4.75,1.75-.77.25-1.54.48-2.29.69l-1.14.31-1.39.35a25.11,25.11,0,0,1-6.5.66,16.82,16.82,0,0,1-4-.63,13.84,13.84,0,0,1-4.42-2.14,12.91,12.91,0,0,1-3.53-3.88,13.17,13.17,0,0,1-1.59-4.36,14.1,14.1,0,0,1-.16-3.84,16.4,16.4,0,0,1,.58-3.24A23.22,23.22,0,0,1,138.3,330c.45-.78.92-1.53,1.4-2.24.25-.38.48-.69.7-1l.68-.92c3.65-4.84,7-9.73,11-14.11,1.95-2.22,4-4.34,6.15-6.36,1.07-1,2.16-2,3.25-3s2.16-1.85,3.13-2.77c1.92-1.8,3.68-3.75,4.38-5.65a9.89,9.89,0,0,0,.53-3.3c0-1.26-.09-2.68-.1-4.22a23.46,23.46,0,0,1,.08-2.35c.07-.8.21-1.54.32-2.31a25.77,25.77,0,0,1,1.2-4.52,20.49,20.49,0,0,1,5.15-7.86,24.78,24.78,0,0,1,7.73-4.91,42.1,42.1,0,0,1,8.51-2.41,105,105,0,0,1,17.18-1.33C215.3,260.7,221,260.78,226.63,260.72Z"/></svg>