<svg id="Layer_1" data-name="Layer 1" xmlns="http://www.w3.org/2000/svg" viewBox="0 0 600 600"><title>Togo</title><path d="M212.33,58.08a4.11,4.11,0,0,1,.53,2.56,12.65,12.65,0,0,0,0,2.61,31.6,31.6,0,0,0,1.57,5,24.12,24.12,0,0,1,2.05,10.48,13.47,13.47,0,0,1-.52,2.78,12.16,12.16,0,0,1-1.2,2.62,13.81,13.81,0,0,1-1.8,2.23l-1.88,1.86a12.49,12.49,0,0,0-2.84,3.69,4.54,4.54,0,0,0,.24,3.74c1.2,2.64,3.68,5,6.19,7.16a72.07,72.07,0,0,0,8.29,5.84,171.67,171.67,0,0,0,18.17,9.56c1.56.71,3.12,1.4,4.67,2,.68.26,1.71.73,2.66,1.18.48.23.94.53,1.4.79l.7.42.67.48A21.11,21.11,0,0,1,259,133.74a42.25,42.25,0,0,1,1.93,12,87.73,87.73,0,0,1-.38,11.22c-.36,3.6-.88,7.07-1.41,10.34-.23,1.65-.55,3.24-.71,4.75-.05.39-.09.76-.12,1.12s-.1.74-.12,1.08c-.07.67-.13,1.46-.16,2.26-.15,3.18-.2,6.5-.17,9.91l0,2.81c0,1.07-.07,2-.1,2.71l0,1v.4c0,.18,0,.34,0,.54.08.77.22,1.73.31,2.84a17.29,17.29,0,0,1-.09,3.89,10.94,10.94,0,0,1-.57,2.27A10.59,10.59,0,0,1,257,204a6.48,6.48,0,0,1-.6,1.07,8.94,8.94,0,0,1-4.22,3.51,11.51,11.51,0,0,1-4.32.76c-1.17,0-2.14-.13-3-.21a17.39,17.39,0,0,0-1.91-.14,1.45,1.45,0,0,0-.4,0,.76.76,0,0,1-.21,0,1,1,0,0,1-.18.07,1.9,1.9,0,0,0-.74.51c-1.08,1.08-1.75,4.09-1.13,6.59a7.52,7.52,0,0,0,1.45,3.26,4.73,4.73,0,0,0,1,.89,2.54,2.54,0,0,0,1,.31,5.08,5.08,0,0,0,2.75-.94,3.29,3.29,0,0,0,.85-.89c.29-.4.61-1,1.07-1.77s1-1.85,1.79-3.11a14.88,14.88,0,0,1,3.44-3.64,14.46,14.46,0,0,1,4.75-2.35,12.46,12.46,0,0,1,9.36,1,20.75,20.75,0,0,1,4,2.7l1,.91c.32.33.63.68.94,1a21.19,21.19,0,0,1,1.54,2.11,17.9,17.9,0,0,1,2.21,5.07,19.52,19.52,0,0,1,.63,5.24,25.84,25.84,0,0,1-.51,4.41,51.55,51.55,0,0,1-1.89,6.49c-.61,1.78-1.2,3.3-1.58,4.54a9.27,9.27,0,0,0-.53,2.62c0,.21,0,.32,0,.3l.14.71a8.14,8.14,0,0,0,.2.88c.27,1.22.73,2.73,1.21,4.39s1,3.56,1.49,5.67a36.64,36.64,0,0,1,1,7.3,25.11,25.11,0,0,1-1.38,9c-.29.76-.56,1.54-.91,2.26s-.74,1.43-1.14,2.13a17.72,17.72,0,0,1-1.3,1.94l-.69.92-.34.45-.3.36c-1.62,1.87-3,3.18-3.89,4.18a11.14,11.14,0,0,0-1,1.21,3.91,3.91,0,0,0-.4.72,5.12,5.12,0,0,0-.3,3.34,3.07,3.07,0,0,0,.65,1.29c.17.13.26,0,.65.23s1,.49,2,.89,2.29.89,3.82,1.45,3.27,1.25,5.26,2.13a35.46,35.46,0,0,1,6.59,3.81,25.85,25.85,0,0,1,6.87,7.4c.47.79.91,1.62,1.31,2.45a26,26,0,0,1,1,2.55,18.76,18.76,0,0,1,.9,5.07,19.86,19.86,0,0,1-.36,4.71c-.16.76-.35,1.52-.58,2.25s-.52,1.43-.81,2.11a27.46,27.46,0,0,1-4.4,6.59c-1.54,1.73-2.87,3.18-3.9,4.61a11.56,11.56,0,0,0-2,4.21c-.07.33-.11.68-.15,1s0,.64,0,1a9.4,9.4,0,0,0,.41,2.06,15.15,15.15,0,0,0,2.12,4.05c.43.64.92,1.3,1.38,1.93s1,1.27,1.43,1.92a19.81,19.81,0,0,1,2.21,4,15.76,15.76,0,0,1,.68,2.21c.17.77.29,1.57.43,2.4l.42,2.56c.07.46.15.86.21,1.37l.17,2.25.13,2.27,0,2.17c0,.72-.06,1.45-.12,2.17s-.18,1.35-.27,2l-.31,2-.41,1.86-.45,1.85-.51,1.68a79.46,79.46,0,0,1-4.48,11c-1.49,2.95-2.64,5.35-3.39,7.14-.18.44-.4.91-.49,1.24a6.92,6.92,0,0,0-.36,1.05l-.16.47a2.5,2.5,0,0,0-.07.44,3.77,3.77,0,0,1-.1.43,4.09,4.09,0,0,0,0,.63A21.48,21.48,0,0,0,283,414c.54,1.42,1.2,3,1.94,4.59.79,1.79,1.67,3.77,2.47,5.83.4,1,.78,2.09,1.13,3.22s.74,2.25,1.16,3.39c.77,2.36,1.71,4.8,2.44,7.57a37.41,37.41,0,0,1,1.49,8.74,28.6,28.6,0,0,1-.15,4.54c-.06.76-.23,1.47-.35,2.2a20.26,20.26,0,0,1-.51,2.14,24.13,24.13,0,0,1-1.46,4,15.1,15.1,0,0,1-2.19,3.38c-.21.26-.43.5-.65.75s-.4.34-.59.51a14.43,14.43,0,0,1-1.19.91l-2.22,1.55a11.15,11.15,0,0,0-1.71,1.44c-.46.49-.76,1-1.15,1.36-.73.82-1.24,1.42-1.73,1.87a7.89,7.89,0,0,0-1.2,1.26,4.33,4.33,0,0,0-.66,2.18,5.6,5.6,0,0,0,0,1.41,7.06,7.06,0,0,0,.34,1.52,14.79,14.79,0,0,0,.6,1.54c.11.26.26.5.39.75s.36.59.55.87a13.21,13.21,0,0,0,3,3.4c1.3,1.05,3,2,4.72,3.13.88.58,1.76,1.24,2.65,2,.44.35.86.77,1.3,1.16.21.2.43.4.64.62a3.73,3.73,0,0,1,.52.73c.64,1,1.28,2,1.86,3.14.3.54.59,1.09.86,1.65l.6,1.21a24.53,24.53,0,0,0,3.77,5.48,75.9,75.9,0,0,0,6.41,6.3l4,3.64.52.48.26.25.39.38,1.53,1.59c.51.54.91,1.06,1.35,1.6s.88,1.07,1.23,1.58l1.1,1.55.94,1.48c.33.51.6,1,.87,1.43l.79,1.38,2.52,4.68.52.93c.17.31.34.61.49.84l.43.74.38.59a10.61,10.61,0,0,0,.87,1.16c0,.08,0,0,0,0s0,0,0,0a.07.07,0,0,0-.06,0l.58.26c.37.2.84.33,1.26.51s.93.3,1.47.41c1,.25,2.21.45,3.47.63s2.65.26,4.13.31c.73,0,1.49,0,2.26,0a7.34,7.34,0,0,1,2.42.28c1.66.48,3.51,1.89,5.35,2.66a8.19,8.19,0,0,0,2.77.64l2.69,0,2.61-.05c.86,0,1.71-.11,2.56-.16a72,72,0,0,0,9.89-1.33,93.21,93.21,0,0,0,9.16-2.45c1.45-.48,2.83-1,4.15-1.49s2.54-1.08,3.65-1.63c.59-.24,1.1-.52,1.62-.78.24-.14.62,0,.84-.23a4.79,4.79,0,0,0,.46-.71,10.12,10.12,0,0,0,.58-2.76,1.34,1.34,0,0,1,.09-.37,1.55,1.55,0,0,1,.06-.31c0-.1,0-.19,0-.28s-.05-.14-.05-.19c-.1-.22-.27-.17-.42-.25s-.33-.3-.7-.78a23.35,23.35,0,0,0-1.58-1.87c-.69-.74-1.52-1.57-2.46-2.44s-2.06-1.82-3.3-2.88a91,91,0,0,1-8.82-8.22,40,40,0,0,1-4.67-6.22l-1.07-1.74c-.34-.6-.65-1.26-1-1.89l-.93-1.92c-.29-.64-.52-1.34-.78-2A44.2,44.2,0,0,1,358,480.88a79.61,79.61,0,0,1,1.69-13.55c.77-3.86,1.51-7.18,2-10l.32-2.11.32-2.3c.21-1.54.37-3.1.55-4.66.39-3.12.65-6.29,1-9.47s.6-6.43.82-9.71a29.38,29.38,0,0,1,.53-4.93,10.89,10.89,0,0,1,1-2.45l1.28-2.45,1.4-2.46,1.52-2.49c1-1.66,2-3.33,3-5s1.88-3.39,2.68-5.1a36.38,36.38,0,0,0,2.06-5.15,24.76,24.76,0,0,0,.77-5.16c.13-1.73.22-3.46.31-5.19.23-3.45.3-6.91.32-10.37s-.11-6.93-.28-10.39c-.06-1.73-.22-3.46-.33-5.19s-.37-3.45-.55-5.18l-2.77-20.66-.59-5.15-.72-5.15a94.14,94.14,0,0,1-1.18-10.27,61.1,61.1,0,0,1,.34-10.37,103.47,103.47,0,0,1,2.09-10.52c.38-1.76.81-3.53,1.11-5.29a49.82,49.82,0,0,0,.6-5.26,67.05,67.05,0,0,0-.45-10.27,78.81,78.81,0,0,0-1.46-9.86,48.82,48.82,0,0,0-2.84-9.19c-.6-1.46-1.32-2.85-2.05-4.22-.4-.68-.81-1.38-1.23-2.06l-1.35-2c-1.86-2.69-3.92-5.35-6.12-8.06s-4.46-5.55-6.61-8.66a56.92,56.92,0,0,1-5.72-10.24c-.38-.93-.72-1.89-1.08-2.83s-.61-1.94-.92-2.91c-.56-1.91-1-3.74-1.32-5.62a100.68,100.68,0,0,1-1.46-11.18c-.3-3.7-.42-7.36-.47-11s0-7.13-.15-10.29a36.15,36.15,0,0,0-1.18-8.44,15.56,15.56,0,0,0-1.3-3.21,7.14,7.14,0,0,0-1.5-1.93l-.39-.38a4,4,0,0,1-.48-.32l-.23-.17-.29-.15a5.24,5.24,0,0,1-.57-.32,21.35,21.35,0,0,0-3.25-1.15c-2.6-.75-6-1.29-9.92-2.26-1-.25-2-.5-3-.85-.53-.17-1-.32-1.58-.52l-1.64-.64a36.18,36.18,0,0,1-3.32-1.54l-.41-.2-.3-.17-.61-.32-1.22-.67a74.27,74.27,0,0,1-9.78-6.28,45.74,45.74,0,0,1-4.7-4.12c-.76-.76-1.52-1.57-2.26-2.42s-1.44-1.77-2.12-2.77c-.35-.48-.69-1-1-1.52s-.66-1.05-1-1.62l-.85-1.78a18.24,18.24,0,0,1-.75-1.92c-.11-.32-.24-.67-.32-1l-.2-.87c-.13-.57-.23-1.15-.34-1.73s-.22-1.15-.31-1.73l-.09-1.76a30.82,30.82,0,0,1,.46-6.83c.25-1.09.51-2.16.78-3.2s.68-2,1-3A114.43,114.43,0,0,1,296.25,100l4.89-9.67c1.54-3.18,3-6.35,4.19-9.51.64-1.57,1.18-3.16,1.72-4.66a15.31,15.31,0,0,0,.71-3.84,8.14,8.14,0,0,0-.51-3.33,4.83,4.83,0,0,0-1.57-2.15c-1.35-1.15-4.06-2.11-7.11-2.5a57.77,57.77,0,0,0-9.76-.32c-3.38.11-6.83.37-10.35.59a92.29,92.29,0,0,1-10.85.24,26.92,26.92,0,0,1-2.9-.3c-.49-.07-1-.19-1.51-.31s-.91-.25-1.36-.38c-1.74-.53-3.44-1.11-5.12-1.74-3.34-1.25-6.57-2.64-9.78-4s-6.37-2.58-9.69-3.77a89,89,0,0,0-9.86-3.17,29.8,29.8,0,0,0-10.25-.54c-1.74.16-3.48.34-5.24.36a21.73,21.73,0,0,1-5.27-.36,8.82,8.82,0,0,0-2.52-.3,2.47,2.47,0,0,0-2,1.16,4.79,4.79,0,0,0-.71,2.38,2.08,2.08,0,0,0,1,2.06,5.24,5.24,0,0,0,2.49.48c.86,0,1.73-.07,2.61-.09a8.16,8.16,0,0,1,2.6.3,4,4,0,0,1,2.12,1.47Zm-.07.05a2.33,2.33,0,0,0-1-.81,8,8,0,0,0-1.17-.51,7.73,7.73,0,0,0-2.54-.05c-.86.09-1.71.24-2.62.32a5.92,5.92,0,0,1-2.89-.33,2.75,2.75,0,0,1-1.32-1.21,3.94,3.94,0,0,1-.42-1.63,5.93,5.93,0,0,1,.67-3.09,6.45,6.45,0,0,1,.51-.73,4,4,0,0,1,.74-.64,4.24,4.24,0,0,1,1.74-.64,11.62,11.62,0,0,1,3,.1,21.27,21.27,0,0,0,4.85,0l2.53-.26a13.43,13.43,0,0,1,2.61,0,36.72,36.72,0,0,0,5.35.06,24.92,24.92,0,0,1,5.45.44A87.66,87.66,0,0,1,238,51.92c3.31,1,6.71,2.11,10,3.32s6.54,2.4,9.82,3.46c1.65.52,3.3,1,5,1.42a16.75,16.75,0,0,0,2.42.49,22.64,22.64,0,0,0,2.49.16A85.84,85.84,0,0,0,278,60.1c3.45-.37,6.93-.79,10.43-1.07A65,65,0,0,1,299,58.9a26.92,26.92,0,0,1,5.36,1,13.82,13.82,0,0,1,4.95,2.61,10.18,10.18,0,0,1,3.11,4.73,13.94,13.94,0,0,1,.56,5.5A18.88,18.88,0,0,1,311.7,78c-.7,1.62-1.41,3.22-2.19,4.79-3.05,6.3-6.49,12.37-9,18.86a50.12,50.12,0,0,0-2.75,10c-.1.86-.28,1.72-.31,2.58l-.1,2.61a29.87,29.87,0,0,0,.58,5.16l.24,1.28.39,1.24.39,1.24a7.71,7.71,0,0,0,.46,1.21A20.38,20.38,0,0,0,302,131.4a42.32,42.32,0,0,0,7.41,7.3,93.74,93.74,0,0,0,8.6,5.93,37,37,0,0,0,4.57,2.52c.8.35,1.6.69,2.43,1s1.66.55,2.49.79c3.35,1,6.79,1.63,10.11,2.69a27.47,27.47,0,0,1,4.83,2l1.11.69.55.34.51.41,1,.82c.32.3.61.63.91.94a20.21,20.21,0,0,1,4.58,9.27,45.34,45.34,0,0,1,1,10.39c0,3.49-.19,7-.25,10.46s-.06,7,.11,10.46a90.66,90.66,0,0,0,1,10.4,51.8,51.8,0,0,0,2.57,10.12c2.46,6.57,6.59,12.3,10.7,17.91s8.26,11.32,10.84,17.83a79.89,79.89,0,0,1,4.81,20.3c.43,3.46.75,6.93,1.05,10.41s.6,7,.86,10.42q.8,10.44,1.35,20.88,2.21,41.81.48,83.67c-.58,13.94-1.06,27.9-2.71,41.75a186.94,186.94,0,0,1-3.58,20.61c-1.63,6.76-4.07,13.39-4.57,20.38A26.76,26.76,0,0,0,376,492.38c.14.41.24.83.41,1.23l.53,1.2c.18.4.33.81.53,1.19l.65,1.14a26.9,26.9,0,0,0,2.93,4.32c4.38,5.43,10.08,9.71,14,15.54a19.41,19.41,0,0,1,3.68,9.66,14,14,0,0,1-3.34,9.66,23.55,23.55,0,0,1-8.36,6.14,49.92,49.92,0,0,1-9.9,3.33,130,130,0,0,1-20.71,2.79c-3.48.24-7,.4-10.44.7s-6.95.6-10.44.69a49.79,49.79,0,0,1-10.42-.65,29.39,29.39,0,0,1-5.05-1.35,15.25,15.25,0,0,1-4.56-2.5c-2.73-2.22-4.58-5.27-6.27-8.3a83.09,83.09,0,0,0-5.29-9c-.5-.71-1.07-1.37-1.64-2s-1.2-1.27-1.85-1.85l-3.86-3.53a101.16,101.16,0,0,1-7.46-7.33,38.71,38.71,0,0,1-5.94-8.57,42.65,42.65,0,0,0-5.64-8.78c-2.2-2.71-4.53-5.3-6.59-8.13a28.71,28.71,0,0,1-4.71-9.27,19,19,0,0,1-.16-10.34,36.63,36.63,0,0,1,4.42-9.44,53.93,53.93,0,0,0,5-9.17,23.77,23.77,0,0,0,1.36-5,23.27,23.27,0,0,0,.26-5.21,33.14,33.14,0,0,0-2.39-10.13c-1.23-3.27-2.91-6.34-4.36-9.51a49.06,49.06,0,0,1-3.53-9.83,24.9,24.9,0,0,1-.4-2.59,16.13,16.13,0,0,1-.14-2.6,17.63,17.63,0,0,1,.15-2.62,22.6,22.6,0,0,1,.38-2.58c1.33-6.88,4.52-13.19,6.36-19.92a31.88,31.88,0,0,0,1.29-10.32l-.08-1.3-.14-1.3-.31-2.6c-.2-1.73-.38-3.47-.53-5.2a57.91,57.91,0,0,1-.06-10.45,33.34,33.34,0,0,1,.89-5.16,27.72,27.72,0,0,1,1.73-4.93c1.45-3.17,3.36-6.11,4.8-9.29a21.76,21.76,0,0,0,1.63-4.95,15.39,15.39,0,0,0,.1-5.2,12.11,12.11,0,0,0-1.76-4.87,14.07,14.07,0,0,0-3.62-3.72,50.79,50.79,0,0,0-9.29-4.74c-3.18-1.4-6.41-2.89-9-5.27a14.53,14.53,0,0,1-4.48-9.23,17,17,0,0,1,2-10.12c1.68-3.11,4.51-5.31,6.79-7.93a13.63,13.63,0,0,0,3.44-9.58,42.16,42.16,0,0,0-2-10.23c-.46-1.68-.94-3.36-1.29-5.07-.2-.85-.32-1.72-.45-2.58a12.08,12.08,0,0,1,0-2.62c.38-3.5,1.88-6.72,3.17-9.94a37.4,37.4,0,0,0,1.67-5,11.25,11.25,0,0,0,.17-5.16,8.11,8.11,0,0,0-1-2.41,8.78,8.78,0,0,0-1.61-2,11.63,11.63,0,0,0-4.49-2.56,8.29,8.29,0,0,0-5.12,0,6,6,0,0,0-2.19,1.38,12.27,12.27,0,0,0-1.6,2,9.9,9.9,0,0,1-3.57,3.75,8.85,8.85,0,0,1-5,1.2,6.86,6.86,0,0,1-2.48-.83,8.25,8.25,0,0,1-2-1.71,11.8,11.8,0,0,1-2.29-4.67,14.65,14.65,0,0,1-.38-5.19,9.92,9.92,0,0,1,1.79-4.87,6.24,6.24,0,0,1,4.43-2.52c1.75-.17,3.49.12,5.23.08a7.11,7.11,0,0,0,2.54-.48,3.91,3.91,0,0,0,1.91-1.68,7.27,7.27,0,0,0,.76-5,47.33,47.33,0,0,1-.75-5.17c0-.88,0-1.75-.11-2.62s-.17-1.73-.25-2.6c-.35-3.47-.61-6.95-.65-10.44a57.77,57.77,0,0,1,.94-10.42c.56-3.44,1.24-6.87,1.82-10.3a90.69,90.69,0,0,0,1.23-10.38,32.13,32.13,0,0,0-1-10.34,16.26,16.26,0,0,0-5.68-8.51l-.51-.41-.55-.35c-.37-.23-.72-.49-1.1-.69-.77-.4-1.54-.81-2.34-1.17-1.57-.75-3.12-1.54-4.67-2.35a174.13,174.13,0,0,1-18-10.73,84.15,84.15,0,0,1-8.24-6.45c-2.52-2.37-5.05-4.94-6.36-8.22a6.2,6.2,0,0,1,0-5.11,14.18,14.18,0,0,1,3.35-4,22.53,22.53,0,0,0,3.65-3.72A10.94,10.94,0,0,0,215,81.14a12.83,12.83,0,0,0,.58-2.54c.38-3.48-.5-6.94-1.43-10.28a52.23,52.23,0,0,1-1.28-5.07,20.64,20.64,0,0,1-.06-2.61,4,4,0,0,0-.61-2.45Z"/></svg>