<svg id="Layer_1" data-name="Layer 1" xmlns="http://www.w3.org/2000/svg" viewBox="0 0 600 600"><title>Tunisia</title><path d="M340.34,51c2.21.37,4.37,1,6.54,1.58a46.32,46.32,0,0,1,6.4,2.24,15.58,15.58,0,0,1,5.55,4.2,9.67,9.67,0,0,1,1.72,3.25,9.36,9.36,0,0,1,.32,3.71,36.6,36.6,0,0,1-1.67,6.73,24.66,24.66,0,0,0-.74,3.09,12.32,12.32,0,0,0-.06,3,13.15,13.15,0,0,0,2,5.5,13.62,13.62,0,0,0,4.16,4,10.8,10.8,0,0,0,5.26,1.55A10.46,10.46,0,0,0,375,88.5a22.56,22.56,0,0,0,4.74-3.58c1.53-1.43,3-3,4.53-4.66s3.09-3.34,4.84-5a31.23,31.23,0,0,1,6.08-4.65,18.91,18.91,0,0,1,8.3-2.51,20.1,20.1,0,0,1,8.58,1.59l.42.17.45.34c.55.43,1.09.87,1.62,1.33s1,1.08,1.41,1.64.78,1.22,1.11,1.86.56,1.31.76,2a16.93,16.93,0,0,1,.37,7.53A23.65,23.65,0,0,1,416.19,91a26.34,26.34,0,0,1-3.6,5.59l-1.66,2c-.46.59-.93,1.18-1.38,1.81-.91,1.26-1.8,2.57-2.68,4-1.77,2.76-3.53,5.76-5.51,8.81a65.49,65.49,0,0,1-7,9.24c-.68.76-1.45,1.49-2.21,2.22s-1.65,1.46-2.49,2.12a51.77,51.77,0,0,1-5.06,3.45l-4.55,2.7a23.5,23.5,0,0,0-3.23,2.25,2.73,2.73,0,0,0-1,1.35c0,.22,0,.32.06.94a14,14,0,0,0,.53,2.58l.26.84.32.89c.21.59.47,1.06.69,1.6a26.18,26.18,0,0,0,4.25,6.13c.46.5.9,1,1.42,1.52s.91,1.08,1.43,1.62,1,1.11,1.52,1.66,1.06,1.11,1.63,1.67c2.23,2.24,4.7,4.51,7.27,6.91s5.24,4.93,7.89,7.75a62.29,62.29,0,0,1,7.53,9.63,41.48,41.48,0,0,1,5.2,12.33,39.26,39.26,0,0,1,.76,13.44,52.37,52.37,0,0,1-1.14,6.3l-.79,2.91-1,2.89a60,60,0,0,1-12.55,20.58,79.19,79.19,0,0,1-8.49,8A163.36,163.36,0,0,1,374.48,259c-3,1.81-6,3.63-8.89,5.42s-5.73,3.56-8.39,5.46c-1.33.94-2.64,1.89-3.89,2.85l-.95.73-.73.62c-.47.43-.92.86-1.34,1.31a17,17,0,0,0-3.72,5.63,10.22,10.22,0,0,0-.57,5.21,2.51,2.51,0,0,0,.57,1.34,4.42,4.42,0,0,0,.68.39,31.86,31.86,0,0,0,4.88,2.15c2.53.93,5.73,1.82,9.41,3.13a61.26,61.26,0,0,1,6,2.48c1.08.51,2.19,1.11,3.34,1.79s1.87,1.15,2.72,1.7c3.32,2.17,6,4,8.1,5.13a13.75,13.75,0,0,0,2.65,1.14c.61.18,1.38.24.81,0a19.3,19.3,0,0,1,2.76-.33,43.3,43.3,0,0,1,7.49-.19c.4,0,.9.09,1.34.15s.89.1,1.4.2a25.94,25.94,0,0,1,3.11.76c.55.17,1.09.36,1.63.56s1.13.47,1.68.73a23.46,23.46,0,0,1,3.28,1.88,27.84,27.84,0,0,1,8.36,9.18,46.6,46.6,0,0,1,3.45,7.66c.74,2.06,1.29,3.71,1.7,4.66a2.89,2.89,0,0,0,.44.83l0,0,.16.25c.11.17.22.32.33.47a20.25,20.25,0,0,0,1.56,1.85c.65.7,1.51,1.57,2.62,2.64s2.45,2.38,3.85,3.81c.62.6,1.63,1.77,2.49,2.77s1.69,2.15,2.5,3.25a51,51,0,0,1,4.09,7,58.87,58.87,0,0,1,4.55,14c.24,1.11.4,2.13.6,3.21s.33,2.06.46,3a18.3,18.3,0,0,1,.17,5.7A54.47,54.47,0,0,1,443.9,385a19.8,19.8,0,0,0-.49,2.75,22.33,22.33,0,0,0-.13,3l0,1.65c0,.54,0,1.09,0,1.75L443.2,396c0,.67-.13,1.44-.2,2.16l-.13,1.1-.23,1.27-.24,1.26-.13.62-.19.7c-.28.94-.57,1.86-.91,2.78s-.86,1.91-1.34,2.84a27.4,27.4,0,0,1-7.5,8.55,9.29,9.29,0,0,1-.94.67l-.92.61-.92.6a8.93,8.93,0,0,1-.88.53l-1.69.93a17.78,17.78,0,0,1-1.63.82c-1,.47-2.12,1-3.09,1.39L419.35,424l-1.71.7-1.73.81a78.38,78.38,0,0,0-7.16,4.09c-4.95,3.14-10.22,7.08-16.06,11.2-1.48,1-3,2.06-4.51,3.1-.75.52-1.57,1-2.35,1.56l-1.33.86c-.57.35-1.14.72-1.72,1A40.62,40.62,0,0,1,369,452c-4.22.67-7.91.84-11,1.11a36.61,36.61,0,0,0-7.54,1.17,9.68,9.68,0,0,0-4.49,2.64,13.82,13.82,0,0,0-1.87,2.59,18,18,0,0,0-1.41,3.25,23.56,23.56,0,0,0-.95,7.71,30.69,30.69,0,0,0,.4,4.13c.25,1.33.56,2.85,1,4.38.84,3.05,1.85,6.26,2.94,9.53s2.24,6.65,3.24,10.18a107,107,0,0,1,2.63,11.08,52.21,52.21,0,0,1,.87,12.34l-.16,1.63a4.61,4.61,0,0,1-.11.82c-.07.27-.19.53-.27.8a4.72,4.72,0,0,0-.09,1.68c0,.56,0,1.15,0,1.74a31.25,31.25,0,0,1,0,3.63,12.55,12.55,0,0,1-.22,1.82,13.34,13.34,0,0,1-.43,1.79,41.29,41.29,0,0,1-7.27,12.86c-.77.94-1.6,1.8-2.42,2.69s-1.93,1.85-2.95,2.69a39.13,39.13,0,0,1-3.21,2.34l-1.67,1.05-1.69.92A50.65,50.65,0,0,1,319,563.2a94.51,94.51,0,0,1-12.28,1.66c-1.93.15-3.81.26-5.61.35l-.68,0h-.54l-.64,0c-.86,0-1.71-.06-2.57-.12A30.18,30.18,0,0,1,291.2,564a28.16,28.16,0,0,1-10.13-5.52,34.23,34.23,0,0,1-6.64-7.71,44.3,44.3,0,0,1-3.76-7.52,64.08,64.08,0,0,1-2.18-6.91c-2.24-8.82-2.67-16.68-3-24.05-.09-1.84-.13-3.62-.16-5.32s-.08-3.33-.16-4.53a58.48,58.48,0,0,0-1.08-7.47,74.84,74.84,0,0,0-2.08-8c-.87-2.76-1.92-5.6-3-8.58l-1.72-4.54-1.76-4.74-.91-2.43-.44-1.24-.52-1.5c-.36-1-.68-2-1-3s-.6-2-.86-2.91c-2.08-7.69-3-14.5-4.31-20.29a77.71,77.71,0,0,0-2.08-8c-.21-.6-.39-1.22-.63-1.77s-.46-1.22-.63-1.55-.32-.86-.56-1.25-.44-.82-.69-1.23a20.78,20.78,0,0,0-4.72-5.07c-.53-.44-1.15-.89-1.73-1.34s-1.28-.92-1.91-1.38l-4.36-2.92c-6.17-4.07-13.95-9.71-19.07-18.38a44.74,44.74,0,0,1-3-6.16c-.85-2-1.57-3.93-2.18-5.75-1.21-3.66-2.19-7-3.4-9.68a44.11,44.11,0,0,0-10.61-14.37c-1.16-1.09-2.31-2.18-3.56-3.26s-2.53-2.15-3.79-3.21c-2.61-2.19-5.25-4.36-8-6.73-1.33-1.16-2.72-2.42-4.05-3.67s-2.68-2.58-4-4c-2.67-2.75-5.26-5.82-7.9-9.11a63.29,63.29,0,0,1-7.25-11.21,48.54,48.54,0,0,1-2.53-6.37,61.27,61.27,0,0,1-1.66-6.86c-.44-2.34-.82-4.71-1.07-7.16s-.38-4.92-.42-7.44c0-1.25,0-2.55.06-3.81s.17-2.63.28-3.82c.28-1.86.51-4,1-6.64a54.48,54.48,0,0,1,2.51-9.95c.2-.51.36-1,.6-1.51s.47-1.06.72-1.58a34.13,34.13,0,0,1,1.72-3.17,35.33,35.33,0,0,1,2.14-3.08c.77-1,1.61-1.89,2.46-2.79s1.72-1.61,2.61-2.35,1.75-1.31,2.63-1.9,1.69-1,2.54-1.49,1.59-.78,2.4-1.14l.58-.26.38-.13.78-.27c.51-.18,1-.34,1.53-.49,1-.33,2-.6,3-.88,1.92-.52,3.66-.91,5.07-1.19s2.46-.45,3.39-.63a14.27,14.27,0,0,0,2.76-.76l.74-.3.76-.38.2-.1.33-.23.7-.49c.47-.33.93-.67,1.38-1,1.84-1.26,3.62-2.28,5.35-3.26s3.36-1.85,5-2.67c3.14-1.66,6.05-3.1,8.54-4.64,4.7-2.66,9.21-7.14,12.81-11.9S229,207,229.91,202l.14-.93.07-.46,0-.34a7.86,7.86,0,0,0,0-1.46,22.3,22.3,0,0,0-.81-4.14,39.56,39.56,0,0,1-1.19-6.28c-.14-2-.21-3.79-.27-5.64-.2-7.35.34-13.91-.77-19.82a38.63,38.63,0,0,0-1-4.34l-.32-1.07-.41-1.25-.82-2.5c-1.07-3.37-2.16-6.82-3-10.43a67,67,0,0,1-1.77-11.22,52,52,0,0,1,.54-11.62c.18-.95.33-1.91.54-2.85s.43-1.88.69-2.81l.88-2.77.46-1.38c.16-.45.37-.89.55-1.33l1.14-2.66c.39-.87.87-1.7,1.3-2.55a54.39,54.39,0,0,1,2.9-4.9c.48-.81,1.06-1.55,1.6-2.31s1.1-1.52,1.67-2.26,1.2-1.42,1.79-2.12l.91-1.06.94-1,1.9-2c.64-.65,1.31-1.26,2-1.9,1.29-1.28,2.66-2.45,4-3.64s2.77-2.29,4.15-3.43c.71-.54,1.41-1.09,2.14-1.6s1.43-1.06,2.21-1.5a48.25,48.25,0,0,1,4.67-2.59q2.38-1.2,4.78-2.34c3.19-1.53,6.09-3.39,9.09-5.16s6.1-3.45,9.22-5l2.35-1.16,2.39-1.07c.8-.35,1.57-.74,2.38-1.07l2.42-1a101.36,101.36,0,0,1,9.86-3.37A97.26,97.26,0,0,1,340.34,51Zm0,.13a87,87,0,0,0-20.59,0c-.85.1-1.7.18-2.55.3l-2.53.41c-1.68.25-3.35.61-5,.95-3.34.72-6.62,1.62-9.88,2.61a108.91,108.91,0,0,0-18.78,8,87.35,87.35,0,0,0-8.7,5.38A97.71,97.71,0,0,0,264,74.94c-2.63,2.23-5.15,4.58-7.74,6.79-1.3,1.09-2.59,2.19-3.93,3.23s-2.61,2.16-3.85,3.3a76.61,76.61,0,0,0-13.3,15,49.43,49.43,0,0,0-7.39,18.33,44,44,0,0,0-.63,9.94,59,59,0,0,0,1.42,10c.75,3.31,1.69,6.61,2.73,9.89.5,1.66,1.07,3.24,1.56,5a45.59,45.59,0,0,1,1.2,5.14c1.2,7,.76,13.92,1,20.79,0,1.72.16,3.44.33,5.14a28.93,28.93,0,0,0,1.1,5,39.55,39.55,0,0,1,1.23,5.05,16.3,16.3,0,0,1,.2,2.61c0,.87-.11,1.73-.17,2.59a38,38,0,0,1-2.59,10,58.42,58.42,0,0,1-4.71,9.22,66.68,66.68,0,0,1-13.29,15.79c-5.27,4.47-11.17,8.14-16.29,12.79-1.28,1.16-2.47,2.42-3.79,3.53a33.59,33.59,0,0,1-4.18,3,90.86,90.86,0,0,1-9.26,4.63c-1.56.74-3.11,1.5-4.62,2.33a14.64,14.64,0,0,0-4.07,3.18,12,12,0,0,0-2.4,4.54,23.21,23.21,0,0,0-.77,5.11,67.49,67.49,0,0,0,.23,10.35,62.55,62.55,0,0,0,2,10.14,84,84,0,0,0,8.23,19c7,11.95,15.84,22.64,23,34.44,1.77,3,3.49,6,5,9.08.79,1.54,1.43,3.15,2.13,4.73s1.25,3.22,1.79,4.86c2.15,6.53,3.51,13.43,7,19.43a25,25,0,0,0,3.07,4.16l.85,1,.93.9.92.9c.32.29.66.56,1,.84a61.36,61.36,0,0,0,8.54,5.84c3,1.75,6,3.4,8.91,5.29a39.91,39.91,0,0,1,8,6.56,37.18,37.18,0,0,1,5.69,8.61,75.86,75.86,0,0,1,3.88,9.6c2.18,6.56,3.76,13.29,5.91,19.86,1.06,3.29,2.37,6.49,3.69,9.68s2.62,6.39,3.85,9.61a114.49,114.49,0,0,1,5.9,19.84,69.55,69.55,0,0,1,1.15,10.28c.08,3.46,0,6.91,0,10.36a104.66,104.66,0,0,0,1.64,20.62,33.36,33.36,0,0,0,3.45,9.72,17.7,17.7,0,0,0,3.2,4.05,12.44,12.44,0,0,0,4.44,2.6,16.13,16.13,0,0,0,2.51.61c.86.06,1.72.16,2.58.15,1.73,0,3.46,0,5.18,0a72.7,72.7,0,0,0,10.32-.76,35.28,35.28,0,0,0,9.92-2.86,25.18,25.18,0,0,0,8.27-6.12,29.13,29.13,0,0,0,5.51-8.7,33.16,33.16,0,0,0,2.16-10.09c.37-6.91-.92-13.79-2.61-20.47s-3.87-13.26-5.51-20-2.28-13.77-.6-20.5a26.91,26.91,0,0,1,4.3-9.35,19.38,19.38,0,0,1,8-6.38,39.61,39.61,0,0,1,10-2.64c3.41-.55,6.84-.95,10.21-1.7a29.8,29.8,0,0,0,9.61-3.73c2.86-1.93,5.54-4.13,8.23-6.29,5.36-4.35,10.62-8.84,16.32-12.75a71.3,71.3,0,0,1,8.92-5.27c3.07-1.57,6.42-2.54,9.52-4,.79-.35,1.53-.81,2.3-1.21s1.46-.92,2.15-1.42a11.25,11.25,0,0,0,4.71-8.82,34.44,34.44,0,0,0,0-5.18c-.26-3.44-.65-6.87-1-10.31s-.71-6.88-1.36-10.27a42.78,42.78,0,0,0-3-9.88,32.7,32.7,0,0,0-2.51-4.52,36.89,36.89,0,0,0-3.23-4c-2.32-2.55-4.8-5-6.95-7.67a28.43,28.43,0,0,1-5-9c-1.06-3.28-1.75-6.71-3.39-9.77a11.06,11.06,0,0,0-3.31-3.91,10,10,0,0,0-4.82-1.69c-3.45-.37-6.91.29-10.35-.11a24,24,0,0,1-9.5-3.93c-2.91-1.87-5.61-4-8.41-6.06a37.37,37.37,0,0,0-4.35-2.79c-1.52-.81-3.1-1.52-4.69-2.19-3.18-1.34-6.44-2.52-9.57-4a25.09,25.09,0,0,1-8.49-5.82,13.12,13.12,0,0,1-2.58-4.46,15.46,15.46,0,0,1-.8-5.1,22.81,22.81,0,0,1,.65-5.13,22,22,0,0,1,1.86-4.82,28.68,28.68,0,0,1,6.42-8.07A35.78,35.78,0,0,1,348,265q2.13-1.49,4.32-2.86c11.63-7.43,24.22-13.42,35-22.15a58.64,58.64,0,0,0,13.68-15.4,49,49,0,0,0,4.32-9.39,43.56,43.56,0,0,0,2.21-10.08,29.8,29.8,0,0,0-.78-10.26,31.93,31.93,0,0,0-4.21-9.4c-3.8-5.79-9-10.5-14.08-15.1S378,161.24,373.7,155.78a35.73,35.73,0,0,1-5.22-8.93,25.36,25.36,0,0,1-1.89-10.13,10.9,10.9,0,0,1,1.49-4.94,13,13,0,0,1,3.56-3.73c2.82-2,6-3.43,9-5.1a41.21,41.21,0,0,0,4.4-2.71A31.47,31.47,0,0,0,389,116.9a59.82,59.82,0,0,0,6.62-7.94c4-5.59,7.65-11.56,12.55-16.46a19.69,19.69,0,0,0,4.72-9.06,11.4,11.4,0,0,0,0-5.1A7.5,7.5,0,0,0,410,74.15h0a15.22,15.22,0,0,0-6.48-1.49,14.59,14.59,0,0,0-6.42,1.7c-4,2.07-7.18,5.33-10.39,8.42-1.61,1.56-3.22,3.13-4.94,4.57a24.88,24.88,0,0,1-5.6,3.71,12.75,12.75,0,0,1-12.86-.91,15.7,15.7,0,0,1-4.58-4.88,14.85,14.85,0,0,1-2-6.38,14.59,14.59,0,0,1,.23-3.36,26,26,0,0,1,.91-3.24,34.74,34.74,0,0,0,1.87-6.43,8.34,8.34,0,0,0-1.62-6.31A16.35,16.35,0,0,0,353,55.3,37.59,37.59,0,0,0,340.32,51.16Z"/></svg>