<svg id="Layer_1" data-name="Layer 1" xmlns="http://www.w3.org/2000/svg" viewBox="0 0 600 600"><title>Turkey</title><path d="M193.67,223.44l2.59-.66c.86-.24,1.72-.49,2.57-.76a48.36,48.36,0,0,0,4.95-2c3.22-1.54,6.34-3.24,9.5-4.87,6.29-3.33,12.45-6.95,18.9-10.16,3.25-1.6,6.43-3.17,9.88-4.53a41.33,41.33,0,0,1,10.88-2.71c3.7-.42,7.36-.53,10.92-.66,1.77-.07,3.53-.14,5.24-.27a7.73,7.73,0,0,0,2-.32,21.91,21.91,0,0,0,2.15-.77c1.5-.62,3.1-1.39,4.8-2.13a31.78,31.78,0,0,1,5.69-2,14.59,14.59,0,0,1,3.57-.41,10.8,10.8,0,0,1,4.17.89,10.51,10.51,0,0,1,3.56,2.65c.26.28.41.49.6.73l.54.7c.31.49.66,1,.93,1.47a54.43,54.43,0,0,1,2.46,5.32,7.56,7.56,0,0,0,.91,1.6,5,5,0,0,0,.45.53,5.28,5.28,0,0,0,.5.42,8.9,8.9,0,0,0,2.95,1.3,18.82,18.82,0,0,0,4.06.51c1.51,0,3.13,0,4.88-.09l2.73-.12.72,0,1,0a18.16,18.16,0,0,1,2,.23,31.06,31.06,0,0,1,6.51,2l5,2.18c.77.32,1.37.54,2.08.78l2.4.8c1.6.54,3.23,1,4.84,1.48,3.25.88,6.51,1.68,9.81,2.3a113.93,113.93,0,0,0,19.85,2A104.25,104.25,0,0,0,390,217.57c3.13-.44,6.75-1.29,11.16-1.69a37.65,37.65,0,0,1,7.21,0,30.15,30.15,0,0,1,4,.66,35.78,35.78,0,0,1,3.69,1.11c2.18.79,3.8,1.5,4.94,1.88a8.9,8.9,0,0,0,1.33.35c.36,0,.69.08,1,.09a13,13,0,0,0,5.29-1.39,72.5,72.5,0,0,0,7.78-4.52c2.91-1.85,6.09-4,9.87-6,1-.5,2-1,3-1.48s2.12-.93,3.17-1.33a58.83,58.83,0,0,1,6.18-2c4-1.07,7.73-1.76,11.27-2.46A116.34,116.34,0,0,1,481.63,199a64.87,64.87,0,0,1,6.63-.25,49.23,49.23,0,0,1,7.18.7,36,36,0,0,1,14.67,6,37,37,0,0,1,10.56,11.75c.64,1.09,1.2,2.19,1.73,3.3.26.56.5,1.11.74,1.67.29.75.57,1.5.83,2.25a32.82,32.82,0,0,1,1.46,8.44c.11,2.47,0,4.48,0,6a20.15,20.15,0,0,0,.17,3.31,3.92,3.92,0,0,0,.43,1.3,7.78,7.78,0,0,0,1.26,1.73,8.62,8.62,0,0,0,3.61,2.31l5,1.54c1.92.63,4,1.34,6.19,2.3,1.11.49,2.26,1,3.47,1.71a31.07,31.07,0,0,1,3.79,2.47,23.69,23.69,0,0,1,4.07,3.91,20.1,20.1,0,0,1,3.47,6.18,19.73,19.73,0,0,1,1.07,7.49c0,.61-.09,1.15-.16,1.72a14.13,14.13,0,0,1-.28,1.63c-.11.51-.23,1-.37,1.53s-.29.91-.44,1.36a28.13,28.13,0,0,1-2.13,4.62l-.35.59-.43.67c-.29.43-.6.87-.9,1.26a24,24,0,0,1-1.87,2.15,41.1,41.1,0,0,1-6.27,5.07,12.66,12.66,0,0,0-2.28,1.75c0,.06.17-.15.36-.37s.14-.28.24-.32a.14.14,0,0,0,0-.07s0,0,0,0,0,0,0,0,0,0,0,.07a.59.59,0,0,1,0,.13c0,.1,0,.12,0,.3a24.33,24.33,0,0,0,1.84,5.95c1.11,2.61,2.57,5.45,4.25,8.79.44.9.85,1.71,1.31,2.76l1.16,2.59,2.16,4.87c1.48,3.31,3,6.8,4.36,10.51A104.12,104.12,0,0,1,562,342.57a70.36,70.36,0,0,1,2,13.16,25.79,25.79,0,0,1-.39,5.94,21.76,21.76,0,0,1-2.59,7,19,19,0,0,1-11.65,8.85c-.79.18-1.6.34-2.4.45a22.1,22.1,0,0,1-2.26.14c-.36,0-.76,0-1.09,0l-1-.09a18.18,18.18,0,0,1-1.92-.26,23,23,0,0,1-3.24-.87c-.49-.17-1-.35-1.45-.54s-.86-.37-1.26-.56c-.8-.39-1.54-.78-2.19-1.16-2.6-1.54-4.13-2.8-4.91-3.23a19,19,0,0,0-5.81-2.43c-4.56-1.24-10.51-1.35-16.82-.9-3.18.27-6.48.68-9.89,1.14l-10.5,1.49c-3.3.49-6.59,1-9.81,1.73-1.62.35-3.19.87-4.77,1.35s-3.11,1.12-4.62,1.76a75.3,75.3,0,0,0-16.93,9.32c-2.57,1.84-5,3.81-7.38,5.65-.59.48-1.18.94-1.77,1.4-.32.24-.54.43-.93.7l-1.65,1c-.55.34-1.09.69-1.66,1l-1.73.92c-1.16.61-2.36,1.17-3.58,1.68a50.89,50.89,0,0,1-15.38,3.8,70.48,70.48,0,0,1-7.81.2c-1.28-.05-2.57-.12-3.82-.27s-2.52-.27-3.75-.49-2.46-.39-3.66-.69-2.38-.56-3.54-.89a58.47,58.47,0,0,1-6.77-2.28l-.81-.32-.39-.16-.26-.12-1.05-.48-2-1-2-.88-1.86-.81a55,55,0,0,0-6.71-2.46,23.34,23.34,0,0,0-6.39-.83l-1.72.12c-.6.11-1.15.14-1.82.29-1.4.33-2.67.71-3.89,1.1a19.2,19.2,0,0,0-6,3,10.39,10.39,0,0,0-2.18,2.21,14.54,14.54,0,0,0-1,1.38c-.26.51-.56,1-.79,1.61a19.07,19.07,0,0,0-.78,2.1l-.89,2.84a29.72,29.72,0,0,1-3.28,7.22c-.18.29-.51.73-.79,1.12s-.6.77-.91,1.14a20.37,20.37,0,0,1-2,1.87,18.64,18.64,0,0,1-2.09,1.44l-1.06.6c-.35.18-.7.33-1.05.49a15.72,15.72,0,0,1-2.11.81,18.67,18.67,0,0,1-2.1.56A22.37,22.37,0,0,1,325,420a21.36,21.36,0,0,1-8.77-1.45,16.35,16.35,0,0,1-2.28-1.1c-.38-.23-.76-.44-1.13-.7s-.74-.55-1.1-.84a16.52,16.52,0,0,1-2-1.93,20.69,20.69,0,0,1-1.47-2,31.36,31.36,0,0,1-3.24-6.85c-.69-2-1.27-3.74-1.8-5.19a11.16,11.16,0,0,0-1.44-3,3.32,3.32,0,0,0-.22-.27l-.28-.34-.53-.68-1.23-1.32c-.43-.43-.92-.82-1.37-1.25s-1-.75-1.49-1.16a27.47,27.47,0,0,0-3.26-2.1c-1.15-.61-2.32-1.2-3.52-1.69a14.74,14.74,0,0,0-1.8-.73c-.3-.11-.54-.43-.84-.55a4.16,4.16,0,0,0-1,0c-.33,0-.67.07-1,.1s-.66.19-1,.28c-.65.18-1.27.34-1.84.52-1.15.25-2.2.21-3.18.45a11.52,11.52,0,0,0-2.64.82,13,13,0,0,0-2.24,1.3,49.07,49.07,0,0,0-5.91,5.41c-1.21,1.22-2.53,2.57-4.07,4a57.54,57.54,0,0,1-5.36,4.46A52.51,52.51,0,0,1,230.87,414a57.56,57.56,0,0,1-7.65-.17c-1.28-.15-2.57-.28-3.84-.52-.65-.12-1.24-.19-1.95-.37l-2.14-.55c-.71-.19-1.43-.38-2.13-.6l-2-.75-2-.78-1.83-.88-1.81-.92-1.63-1-1.62-1-1.43-.93c-3.79-2.5-6.66-4.67-8.71-5.84a12.49,12.49,0,0,0-2.32-1.16.81.81,0,0,0-.35-.09,1.53,1.53,0,0,1-.29-.07c-.17,0-.27,0-.38,0s-.23.08-.33,0-.31.1-.45.08h-.13a.7.7,0,0,1-.19.06,1.72,1.72,0,0,1-.38.08,2.63,2.63,0,0,0-.39.06l-.36.13a33,33,0,0,0-5.48,2.47c-2.54,1.38-5.7,3.2-9.65,5.21-.46.24-1,.5-1.55.75l-1.61.75c-1.09.49-2.38,1-3.56,1.43s-2.67.89-4,1.3-3,.71-4.46,1-3.23.45-4.87.53a29.6,29.6,0,0,1-5.07-.35c-.84-.16-1.67-.38-2.48-.6l-1.22-.37c-.4-.13-.77-.26-1.31-.47a25,25,0,0,1-2.89-1.3c-.93-.54-1.86-1.08-2.72-1.69s-1.65-1.32-2.41-2-1.36-1.48-2-2.23-1.09-1.51-1.59-2.26-.81-1.49-1.18-2.23a37.3,37.3,0,0,1-2.33-7.59,30.13,30.13,0,0,0-1.46-5.25,19.52,19.52,0,0,0-.88-1.82,5.58,5.58,0,0,0-.41-.72l-.4-.66a6.67,6.67,0,0,0-.83-1,3.92,3.92,0,0,0-.42-.4,3.37,3.37,0,0,1-.46-.31,5.69,5.69,0,0,0-2.65-.55,20.54,20.54,0,0,0-4,.66c-1.49.42-3.14,1-4.85,1.54s-3.6,1.19-5.63,1.7c-1.63.4-3.47.95-5.66,1.32a28.25,28.25,0,0,1-3.54.38c-.63,0-1.34,0-2,0a18.7,18.7,0,0,1-2.32-.3,13.07,13.07,0,0,1-5.3-2.25c-.45-.33-.88-.68-1.3-1.05s-.76-.83-1.11-1.26A8.58,8.58,0,0,1,82,380c-.26-.45-.53-.94-.73-1.37a20.6,20.6,0,0,1-1.26-4c-.22-1.07-.38-1.85-.53-2.32a2.91,2.91,0,0,0-.39-.83,8.6,8.6,0,0,0-.81-1.1A44.24,44.24,0,0,0,75,367.15a30.68,30.68,0,0,1-4.57-5.44,19,19,0,0,1-2-4.1,18.16,18.16,0,0,1-.91-4.88v-1.24l0-.92c0-.62.07-1.24.14-1.78.11-1.16.27-2.2.43-3.19.33-2,.65-3.68.84-5.08a11.16,11.16,0,0,0,.11-3.12,1.9,1.9,0,0,0-.37-1c-.05-.06-.05-.14-.17-.22a.49.49,0,0,1-.12-.13s-.11-.15-.07-.07,0,.07-.2-.08A17.67,17.67,0,0,0,65,334.7l-4.91-1.36a48.39,48.39,0,0,1-5.84-2.07,23.5,23.5,0,0,1-6.93-4.52,14.6,14.6,0,0,1-3.19-4.52,14,14,0,0,1-1.19-5.5,15.88,15.88,0,0,1,.7-4.56,16.81,16.81,0,0,1,.67-1.86l.37-.85.19-.43.24-.48A16.12,16.12,0,0,1,51,302a16.39,16.39,0,0,1,7.93-2.3,19.74,19.74,0,0,1,7.33,1.12,25.39,25.39,0,0,1,3,1.27c.72.34,1.44.66,2.14.94a15.93,15.93,0,0,0,3.91,1.12,4,4,0,0,0,.74.05,2.7,2.7,0,0,0,.54,0h.11l0,0,.1,0s0,0,0,0a0,0,0,0,0,0,0v0l0,0s0,0,.05-.11.11-.12.13-.37a1.4,1.4,0,0,1,.06-.28,1,1,0,0,0,0-.33c0-.28,0-.55.07-.82s0-.45,0-.68-.07-.47-.12-.72-.1-.5-.2-.77a23.33,23.33,0,0,0-4.45-7.18c-1-1.27-2.16-2.51-3.41-4s-2.4-2.91-3.48-4.21c-2.14-2.61-4.23-4.71-6.06-5.6a41.89,41.89,0,0,1-5.28-2.91,13.7,13.7,0,0,1-3.47-3.41,12.53,12.53,0,0,1-2-5,15.28,15.28,0,0,1-.21-2.35,17.46,17.46,0,0,1,.13-2.08,19.56,19.56,0,0,1,.9-3.86A21,21,0,0,1,51,256c.3-.55.65-1,1-1.57A12.48,12.48,0,0,1,53,253l1.13-1.37,1.21-1.23a26.58,26.58,0,0,1,2.57-2.21,35.44,35.44,0,0,1,5.61-3.36,31.06,31.06,0,0,1,6.09-2.16,27.91,27.91,0,0,1,6.58-.86,28.54,28.54,0,0,1,6.47.83c1.94.45,3.7,1,5.34,1.43.82.23,1.61.44,2.37.62a15.18,15.18,0,0,0,2,.37,8.84,8.84,0,0,0,3.6-.32,9,9,0,0,0,1.73-.75,21.12,21.12,0,0,0,2-1.36c.74-.54,1.56-1.12,2.48-1.67.47-.28,1-.55,1.48-.8a9.71,9.71,0,0,1,1.76-.67l1-.27,1-.1a9.57,9.57,0,0,1,1.94,0c.63.06,1.17.22,1.76.33s1,.34,1.58.51a35.1,35.1,0,0,1,5.27,2.72c1.6,1,3.1,2,4.54,2.85a12.41,12.41,0,0,0,3.81,1.76,1.49,1.49,0,0,0,1-.08,4.26,4.26,0,0,0,1.22-1.09,33.42,33.42,0,0,1,3.79-4.31c1.49-1.27,2.82-2.27,4-3.39a10.32,10.32,0,0,0,1.4-1.62,2.4,2.4,0,0,0,.46-1.06s0-.06,0-.09a.11.11,0,0,1,0-.11,2.3,2.3,0,0,0-.37-.45,5.86,5.86,0,0,0-1.62-.94,38.58,38.58,0,0,0-4.77-1.55c-6.59-1.67-13.64-1.87-20.76-2.16a57.23,57.23,0,0,0-10.27.36,26.91,26.91,0,0,0-4.67,1.46c-.85.31-1.74.63-2.69.91a11.87,11.87,0,0,1-3.23.52l.91-.2c-2,.93-4,2-6.14,3a62.59,62.59,0,0,1-6.52,3,25.16,25.16,0,0,1-7.38,1.69,18.67,18.67,0,0,1-4-.16c-1.09-.14-2.13-.21-3.33-.32a21.89,21.89,0,0,1-3.88-.62,10.16,10.16,0,0,1-4.24-2.28,9,9,0,0,1-2.6-4.59,10.27,10.27,0,0,1,.24-5,15.64,15.64,0,0,1,1.78-4A23.21,23.21,0,0,1,57.26,221a21.69,21.69,0,0,1,3.1-2.66l2.87-2a20.37,20.37,0,0,0,4.43-3.7,5.28,5.28,0,0,0,1-1.82,4.41,4.41,0,0,0,.07-2c-.21-1.69-1.21-4-1.48-7a13,13,0,0,1,.45-4.52,11.94,11.94,0,0,1,2.12-4.15,12.79,12.79,0,0,1,3.48-2.93,19.4,19.4,0,0,1,3.76-1.59c2.48-.73,4.82-1.08,7-1.51,4.56-.85,9.38-1.68,14.39-1.23a23.33,23.33,0,0,1,7.37,1.87,20.7,20.7,0,0,1,6.24,4.32c3.57,3.56,5.72,7.88,7.85,11.92s4.22,8,7.42,11a20.18,20.18,0,0,0,5.41,3.67,32.44,32.44,0,0,0,6.35,2.12c4.41,1,9,1.33,13.56,1.89l13.68,1.71c9.08,1.12,18.41,1.33,27.35-.95Zm0,.09c-8.82,2.72-18.31,2.87-27.47,2.11-4.6-.35-9.17-.83-13.72-1.16s-9.2-.43-13.87-1.3a35.62,35.62,0,0,1-6.95-2,23.14,23.14,0,0,1-6.32-3.89c-3.8-3.29-6.28-7.53-8.6-11.47s-4.59-7.82-7.65-10.55a17.18,17.18,0,0,0-11-4.41c-4.14-.21-8.48.66-12.87,1.68-2.29.54-4.49,1-6.4,1.64a13.3,13.3,0,0,0-2.58,1.14,6.65,6.65,0,0,0-1.79,1.54,6.38,6.38,0,0,0-1.18,4.44c.13,1.7,1,3.7,1.57,6.48a11,11,0,0,1-.1,4.63,11.53,11.53,0,0,1-2,4.12,24.77,24.77,0,0,1-5.81,5.19l-2.83,1.92a20,20,0,0,0-2.25,1.84A13.36,13.36,0,0,0,58.72,230a4.53,4.53,0,0,0-.35,2.14,3.33,3.33,0,0,0,.79,1.73,4.77,4.77,0,0,0,1.94,1.29,18.14,18.14,0,0,0,3,.78c1.08.21,2.3.42,3.45.69a15.49,15.49,0,0,0,3,.35,21,21,0,0,0,6.3-1c4.21-1.3,8.18-3.6,12.41-5.59l.25-.12h.29a16,16,0,0,0,4.73-1.2,28.81,28.81,0,0,1,5.34-1.62,60.44,60.44,0,0,1,10.9-.36c7.11.33,14.37.52,21.45,2.34a43.31,43.31,0,0,1,5.21,1.69,8.88,8.88,0,0,1,2.55,1.52,5.4,5.4,0,0,1,1,1.24c.12.27.23.54.34.81a6.08,6.08,0,0,1,.15.87,5.27,5.27,0,0,1-1,3,12.74,12.74,0,0,1-1.85,2.18c-1.31,1.3-2.78,2.4-4.08,3.52a30.77,30.77,0,0,0-3.37,4,8,8,0,0,1-2.21,2,5,5,0,0,1-3,.51,14.62,14.62,0,0,1-5.18-2.14l-4.57-2.78a27.55,27.55,0,0,0-4.7-2.29,7.65,7.65,0,0,0-4.84-.32,14.76,14.76,0,0,0-4.35,2.7,19.12,19.12,0,0,1-4.58,3A13.51,13.51,0,0,1,92.38,250a29,29,0,0,1-5.4-.72c-3.5-.71-7-1.63-10.45-1.47a26.21,26.21,0,0,0-10.06,2.81A27,27,0,0,0,62,253.41a25,25,0,0,0-2,1.73l-.92.93-.84,1a7.2,7.2,0,0,0-.76,1.05c-.23.37-.5.73-.7,1.11a14,14,0,0,0-1.05,2.38,10.89,10.89,0,0,0-.59,5.11,5.89,5.89,0,0,0,.89,2.36,7.42,7.42,0,0,0,1.83,1.79c1.42,1,3.06,1.73,4.62,2.62,3.18,1.81,5.54,4.64,7.73,7.43,1.1,1.41,2.16,2.84,3.28,4.22s2.28,2.74,3.38,4.15a28,28,0,0,1,5.21,9.32c.14.43.19.88.29,1.31s.11.9.15,1.34,0,.9,0,1.35L82.37,304a6.86,6.86,0,0,1-2.55,4.59,7.53,7.53,0,0,1-5.2.87A22.47,22.47,0,0,1,69.47,308c-1.68-.61-3.24-1.5-4.92-2.1a13.47,13.47,0,0,0-5.26-.75,10,10,0,0,0-5,1.64A9.14,9.14,0,0,0,51,311a12.15,12.15,0,0,0-1,5.21,6.73,6.73,0,0,0,.73,2.56,6.91,6.91,0,0,0,1.68,2,15.18,15.18,0,0,0,4.68,2.53c1.68.61,3.41,1.07,5.13,1.51,3.44.9,7,1.6,10.18,3.24a9.71,9.71,0,0,1,2.17,1.54,12,12,0,0,1,1.67,2.08,10.69,10.69,0,0,1,1.63,5c.27,3.58-.76,7.08-1.44,10.56a28.77,28.77,0,0,0-.66,5.3,10.1,10.1,0,0,0,1.54,5.06c1.83,3.09,4.75,5.3,6.94,8.12a12.5,12.5,0,0,1,2.39,4.74A32.63,32.63,0,0,0,88,375.65a5.16,5.16,0,0,0,1.65,2.07,6,6,0,0,0,2.45,1,15.59,15.59,0,0,0,5.32-.07,88.25,88.25,0,0,0,10.39-2.5,49.71,49.71,0,0,1,10.39-2.46,15.23,15.23,0,0,1,5.29.55,14.39,14.39,0,0,1,4.63,2.63c2.69,2.37,4.56,5.46,6.6,8.37a32,32,0,0,0,3.35,4.17,14.1,14.1,0,0,0,4.32,3.1l1.26.47c.42.13.86.22,1.29.34.87.17,1.77.23,2.65.36s1.78,0,2.67,0,1.77-.21,2.66-.31a37.72,37.72,0,0,0,10-3.66c3.19-1.61,6.26-3.43,9.42-5.08a42.8,42.8,0,0,1,9.9-4,23.91,23.91,0,0,1,10.61-.21,27.23,27.23,0,0,1,9.59,4.58c2.92,2.05,5.63,4.38,8.53,6.46a33.37,33.37,0,0,0,9.41,5,35.1,35.1,0,0,0,10.53,1.59,37.35,37.35,0,0,0,20.27-5.9c6-3.9,10.62-9.57,16.88-13.09a24.81,24.81,0,0,1,10.17-3,31.59,31.59,0,0,1,10.6,1,36.43,36.43,0,0,1,18,11c.55.7,1.13,1.38,1.65,2.1s1,1.49,1.44,2.26a25.28,25.28,0,0,1,1.9,5c1,3.4,1.67,7,3.53,10.06a8.19,8.19,0,0,0,4,3.37,12,12,0,0,0,5.24.83,13.66,13.66,0,0,0,5.15-1.28,8.85,8.85,0,0,0,4-3.47c1.83-3.12,2.16-6.78,3.08-10.2a25.94,25.94,0,0,1,1.82-5,23.11,23.11,0,0,1,2.82-4.54,30,30,0,0,1,8-7,46.87,46.87,0,0,1,9.67-4.54A38,38,0,0,1,369.61,374a50,50,0,0,1,10.63,1,104.82,104.82,0,0,1,10.34,2.73,58.56,58.56,0,0,0,10.48,2.08,45.5,45.5,0,0,0,21-2.67,80.41,80.41,0,0,0,9.59-4.72q4.76-2.44,9.7-4.52a150.76,150.76,0,0,1,20.29-6.74,189.41,189.41,0,0,1,21-4.13c7.07-.94,14.12-2.06,21.23-2.64s14.34-.59,21.28,1.17a33,33,0,0,1,9.84,4.1c1.53.91,2.93,2,4.47,2.92a12.74,12.74,0,0,0,2.43,1.12,7.47,7.47,0,0,0,2.61.46,4.93,4.93,0,0,0,4.38-2.55,9.59,9.59,0,0,0,1.07-5.16,57.94,57.94,0,0,0-1.6-10.56,127.19,127.19,0,0,0-7.25-20.1c-1.44-3.27-2.77-6.58-4.31-9.8s-3.11-6.42-4.43-9.74a33.39,33.39,0,0,1-2.56-10.34,13.88,13.88,0,0,1,.68-5.28,10.82,10.82,0,0,1,2.79-4.51c2.58-2.5,6-3.92,8.49-6.48a12.39,12.39,0,0,0,2.76-4.52,7.74,7.74,0,0,0,.2-5.22,9.19,9.19,0,0,0-3.22-4.15,22.81,22.81,0,0,0-4.62-2.66c-3.26-1.46-6.71-2.41-10.09-3.55a21.26,21.26,0,0,1-8.81-5.89,18.24,18.24,0,0,1-4.64-9.49c-.55-3.55-.12-7.13-.27-10.69a20.36,20.36,0,0,0-.85-5.26,27.85,27.85,0,0,0-2.22-4.84,24.69,24.69,0,0,0-7-7.95,24.42,24.42,0,0,0-9.79-4.05,36.36,36.36,0,0,0-5.31-.56c-1.78,0-3.57,0-5.34.15A105,105,0,0,0,472,212.43c-7,1.29-14.13,2.52-20.48,5.87s-12.06,7.66-18.65,10.46a22.76,22.76,0,0,1-10.45,1.9c-3.62-.21-6.85-2-10.14-3.28a23.4,23.4,0,0,0-10.49-1.44c-3.56.22-7.07.91-10.62,1.29a121.36,121.36,0,0,1-62.73-9.63c-3.2-1.56-6.28-3.47-9.78-4.25a13,13,0,0,0-2.64-.25l-2.68,0c-1.78,0-3.57-.06-5.35-.23a23,23,0,0,1-5.24-1.05,13.34,13.34,0,0,1-4.63-2.64,11.25,11.25,0,0,1-2.86-4.5,42.67,42.67,0,0,0-2-5,7.07,7.07,0,0,0-8.72-4.26c-3.5.69-6.73,2.31-10.1,3.48a14.46,14.46,0,0,1-5.24,1c-1.78,0-3.56,0-5.35,0-3.56,0-7.13-.12-10.69.16a39.52,39.52,0,0,0-10.42,2.2c-3.36,1.19-6.63,2.64-9.88,4.09-6.49,3-12.77,6.35-19.19,9.47-3.21,1.56-6.46,3-9.78,4.34q-2.49,1-5,1.82l-2.54.84-2.57.75Z"/></svg>