<svg id="Layer_1" data-name="Layer 1" xmlns="http://www.w3.org/2000/svg" viewBox="0 0 600 600"><title>Turkmenistan</title><path d="M92,300.37a15.07,15.07,0,0,0-.37-6,12.24,12.24,0,0,0-1.24-2.73,19.11,19.11,0,0,0-1.78-2.4,39.7,39.7,0,0,0-4.27-4.14,47.16,47.16,0,0,0-4.73-3.6c-.41-.28-.82-.54-1.24-.81s-.81-.44-1.21-.67a8.78,8.78,0,0,0-2.58-.71,18.57,18.57,0,0,0-5.64.5,21.24,21.24,0,0,1-3.2.38,10.65,10.65,0,0,1-3.46-.46,8,8,0,0,1-1.72-.77,3.88,3.88,0,0,1-.84-.62,4.51,4.51,0,0,1-.7-.75,8.06,8.06,0,0,1-1.51-3.5,17.09,17.09,0,0,1,.3-6.75,23.16,23.16,0,0,1,2.34-6.22,11.79,11.79,0,0,1,2.25-3,5.94,5.94,0,0,1,.93-.7l.57-.33c.23-.1.48-.19.73-.27a3.6,3.6,0,0,1,.86-.14,2.86,2.86,0,0,1,1,.05,4.2,4.2,0,0,1,1.74.74,6,6,0,0,1,1.66,2.08c.37.79.48,1,.68,1.35a7.82,7.82,0,0,0,.61,1,6.94,6.94,0,0,0,.72.8,4.79,4.79,0,0,0,1.57,1,2.7,2.7,0,0,0,1.41.12,2.76,2.76,0,0,0,1.19-.63,5.26,5.26,0,0,0,.57-.64c.09-.12.19-.23.28-.36l.25-.45a13,13,0,0,0,1.35-4.36,4.41,4.41,0,0,0-.69-3.22,5.64,5.64,0,0,0-1.19-1.13,10.8,10.8,0,0,0-1.83-1,22.48,22.48,0,0,0-4.81-1.31A70.08,70.08,0,0,0,58.67,250l-3.05,0a16.88,16.88,0,0,1-2-.13,9.89,9.89,0,0,1-3-.85,8.59,8.59,0,0,1-.84-.45c-.28-.18-.6-.42-.89-.64a8.56,8.56,0,0,1-1.49-1.59,9.78,9.78,0,0,1-1.49-3.26,15.39,15.39,0,0,1-.33-4.84,36.13,36.13,0,0,1,1.4-7.14c.62-2.16,1.36-4.23,2.07-6.15,1.54-4.14,3.29-7.86,4.74-11.4a42,42,0,0,0,3-9.91,18.15,18.15,0,0,0,.14-4.39,6.47,6.47,0,0,0-.11-1.06l-.16-1.06c-.21-.73-.29-1.43-.56-2.17l-.33-1.09-.43-1.12c-.25-.73-.64-1.51-1-2.26-.74-1.54-1.53-3.08-2.47-4.69-1.81-3.21-4-6.56-6.12-10.27-1.08-1.85-2.14-3.8-3.18-5.91A26.51,26.51,0,0,1,41,165.4a18.31,18.31,0,0,1-.7-6.28,17.23,17.23,0,0,1,2.07-7,20.06,20.06,0,0,1,3.89-4.91,32.56,32.56,0,0,1,7.53-5c.56-.27,1.1-.56,1.64-.77a9,9,0,0,0,1.37-.74l2.67-1.56,5.47-3.13c7.41-4.19,15.42-8.66,25-11.41A60.85,60.85,0,0,1,97.34,123c1.28-.21,2.56-.39,3.88-.49l2-.17c.69,0,1.4,0,2.1,0A53.86,53.86,0,0,1,122,124.65a43.16,43.16,0,0,1,15.35,8.07c1.15,1,2.26,2,3.32,3.1s2.05,2.29,3,3.52a43.18,43.18,0,0,1,4.75,8.11,34.51,34.51,0,0,1,1.68,4.41l.69,2.24c.19.76.35,1.53.51,2.29s.31,1.57.42,2.23l.19,1.78c.1,1.14.24,2.29.3,3.32.2,2.1.38,4,.59,5.45a30.69,30.69,0,0,0,.62,3.49,7.2,7.2,0,0,0,1.07,2.49,12,12,0,0,0,2.64,2.57,16.38,16.38,0,0,0,3.78,2.08,23,23,0,0,0,4.51,1.19,26.64,26.64,0,0,0,4.92.26,44.88,44.88,0,0,0,5.36-.57,39.66,39.66,0,0,0,5.48-1.26,19,19,0,0,0,2.4-.92l1.11-.51c.34-.19.67-.36,1-.56a10.22,10.22,0,0,0,2.86-2.5,4.28,4.28,0,0,0,.86-2.14c0-.13,0-.32,0-.45a1.08,1.08,0,0,1,0-.19l0-.24a2.9,2.9,0,0,1,0-.43,4.68,4.68,0,0,1,0-.53c.06-.3,0-.69.11-1.36l.27-2.57a32.44,32.44,0,0,1,2.06-8.93,25.1,25.1,0,0,1,3.19-5.67,24.84,24.84,0,0,1,4.32-4.46A35.16,35.16,0,0,1,207.7,143c1.23-.53,2.37-1,3.42-1.37l1.5-.55.63-.27a9.77,9.77,0,0,0,1.08-.52c.18-.11.36-.25.54-.36l.28-.17.28-.23A18.21,18.21,0,0,0,218,137c1-1.08,2.12-2.55,3.39-4.12s2.79-3.46,4.48-5.39a54.6,54.6,0,0,1,6.23-5.87c1.18-.93,2.54-1.87,3.78-2.66a41.72,41.72,0,0,1,3.88-2.15,40.08,40.08,0,0,1,8.71-3.15,35.29,35.29,0,0,1,10.3-.9,31.22,31.22,0,0,1,11.24,2.9,42.11,42.11,0,0,1,8.29,5.36c1.94,1.55,3.36,2.74,4.22,3.26a4.75,4.75,0,0,0,.95.49c.09,0,.17,0,.21,0l.06,0,.15,0,.24.08c2.6.9,6.42,1.77,11.29,3.51,1.22.44,2.49.93,3.82,1.52l.51.23.58.29,1.15.59c.77.41,1.52.79,2.28,1.25s1.54,1,2.3,1.53l1.13.8,1.11.92c.73.63,1.46,1.26,2.15,1.93s1.33,1.41,2,2.14a39.35,39.35,0,0,1,5.84,9.1,60.55,60.55,0,0,1,3,7.84l1,3.16c.27.86.56,1.85.81,2.56a37.67,37.67,0,0,0,1.45,3.77,17.36,17.36,0,0,0,1.4,2.48,16.09,16.09,0,0,0,1.78,2.16,7.8,7.8,0,0,1,1.79,2.08c.46.85.8,2,1.36,3a5.13,5.13,0,0,0,1,1.3,5.29,5.29,0,0,0,.59.47c.25.14.5.26.76.38l.85.33.91.3,1,.25L337,179a77,77,0,0,0,10.83.66c1.06,0,2.15.09,3.29.15l1.72.11.89.07,1,.12c1.32.15,2.64.32,4,.5s2.77.59,4.15.91l1,.24c.35.1.71.23,1.07.35l2.15.72a21.82,21.82,0,0,1,2.15.81l2.16,1a22.69,22.69,0,0,1,2.13,1.11l2.07,1.33a28.15,28.15,0,0,1,3.87,3,32.93,32.93,0,0,1,3.34,3.46l.78.9c.24.3.45.61.67.91.44.61.88,1.22,1.3,1.85a20.91,20.91,0,0,1,1.13,1.85l1,1.84c.36.62.61,1.2.89,1.8l.82,1.77c.54,1.19.93,2.28,1.37,3.43s.73,2.19,1.09,3.29c.68,2.13,1.27,4.19,1.77,6.15l1.52,5.72.7,2.59c.16.64.38,1.33.62,2a38.38,38.38,0,0,0,2,4.32,51.57,51.57,0,0,0,2.71,4.42,70.32,70.32,0,0,0,7,8.6c.64.73,1.28,1.34,1.93,2s1.28,1.31,2,1.91a33.93,33.93,0,0,0,4.38,3.4c6.29,4.13,14.13,6,20.62,9.81a133.77,133.77,0,0,1,19,13.79c3.11,2.62,6.18,5.32,9.25,8l4.69,3.81c1.58,1.24,3.19,2.43,4.8,3.6a28.62,28.62,0,0,0,5.22,2.83c1.83.77,3.54,1.74,5.29,2.64l2.58,1.42c.43.23.73.71,1.19.89a11.6,11.6,0,0,0,1.46.39,41.76,41.76,0,0,1,6,1.14c7.19,2.93,14.36,5.69,21.6,7.85,1.81.56,3.62,1.05,5.43,1.53s3.63.91,5.43,1.35,3.63.77,5.43,1.16,3.81.69,6.5,1.4a35.89,35.89,0,0,1,9.36,3.83c.89.52,1.62,1.06,2.42,1.62a22.66,22.66,0,0,1,2.26,1.78c.72.65,1.46,1.29,2.13,2s1.31,1.43,1.94,2.17a36.73,36.73,0,0,1,5.64,9.79A39.08,39.08,0,0,1,567,345.36a42.77,42.77,0,0,1-.22,9.94,44.22,44.22,0,0,1-2.37,9.57,41.79,41.79,0,0,1-2,4.53l-.54,1.1c-.2.38-.46.8-.7,1.19-.49.8-1,1.6-1.5,2.39a15.1,15.1,0,0,1-.9,1.23l-1,1.26a24.28,24.28,0,0,1-2.28,2.48c-.89.82-1.79,1.62-2.74,2.39s-2.11,1.44-3.21,2.1a28.86,28.86,0,0,1-3.4,1.66c-.57.24-1.18.52-1.72.69l-1.66.51-1.68.46c-.55.14-1,.21-1.52.31l-1.5.26-.75.12-.65.07c-.85.09-1.71.17-2.57.23l-2.16.07c-.77,0-1.27,0-1.9,0h-4.4c-.44,0-.77,0-1.1,0s-.7,0-1,0c-.54.06-1.16.06-1.57.15l-.66.09c-.06,0,0,0-.17,0a16.9,16.9,0,0,0-2.37.85c-1.08.46-2.31,1.11-3.6,1.81s-2.65,1.53-4,2.41a5.13,5.13,0,0,0-.68.48,3.29,3.29,0,0,1-.54.34,4.38,4.38,0,0,1-1.32.51,14.47,14.47,0,0,1-1.85.31,6.36,6.36,0,0,0-1.14.15l-1.28.15a27.73,27.73,0,0,0-2.8.56,15,15,0,0,0-1.44.46,12.8,12.8,0,0,0-1.43.54,9.42,9.42,0,0,0-1.34.7,13.54,13.54,0,0,0-1.26.81,12.79,12.79,0,0,0-2.07,2,13.62,13.62,0,0,0-1.49,2.44c-.41.89-.8,1.79-1.15,2.71A98,98,0,0,0,488,418.08c-.31,1.17-.54,2.37-.88,3.57s-.73,2.44-1.13,3.68a39.27,39.27,0,0,1-3.37,7.55,31.52,31.52,0,0,1-14.44,12.71c-.76.33-1.51.62-2.27.9s-1.51.49-2.27.73-1.48.4-2.23.59l-1.38.36c-.86.19-1.68.39-2.46.61l-1.19.3-1.13.31a61.62,61.62,0,0,0-7.5,2.47,26.09,26.09,0,0,0-2.92,1.37,24.24,24.24,0,0,0-2.77,1.94l-.72.59-.69.7a18.77,18.77,0,0,0-1.4,1.51c-.48.51-.91,1.15-1.37,1.74l-.35.46c-.12.16-.28.42-.42.63l-.89,1.38c-1.21,1.88-2.55,3.93-4.17,6.06a46.39,46.39,0,0,1-5.73,6.43l-.87.78-1.07.86-1.08.83-1.07.7-1.08.68-1.06.57a21.92,21.92,0,0,1-2.13,1,37.32,37.32,0,0,1-8.36,2.58,39.39,39.39,0,0,1-8.42.63,33.54,33.54,0,0,1-8.83-1.44c-.77-.26-1.54-.53-2.3-.81s-1.57-.71-2.34-1.09a26.55,26.55,0,0,1-4-2.65,61.41,61.41,0,0,1-5.3-4.93,33.48,33.48,0,0,0-3.17-3,6.75,6.75,0,0,0-.9-.57,2.38,2.38,0,0,0-.32-.16,1.16,1.16,0,0,0-.36-.11c-.16,0-.31-.08-.49-.11a41,41,0,0,0-5-.66c-1.94-.15-4.09-.29-6.5-.6a32.85,32.85,0,0,1-8.19-2,20.51,20.51,0,0,1-4.6-2.55,19.5,19.5,0,0,1-4-4,23.69,23.69,0,0,1-4-9,39.7,39.7,0,0,1-.86-8c0-2.51.14-4.83.26-7s.31-4.13.29-5.79c0-3.37-.44-6.41-1.34-7.28a1.21,1.21,0,0,0-1-.47,15.5,15.5,0,0,1-1.71-.32,6.66,6.66,0,0,1-.7-.14l-1.46-.42-2.92-.87-5.95-1.82c-4-1.3-8.05-2.75-12.13-4.45A99,99,0,0,1,301.19,407c-2-1.2-3.95-2.45-5.84-3.8-1-.66-1.89-1.35-2.81-2s-1.82-1.44-2.71-2.19a60.62,60.62,0,0,1-9.46-10.14,82.55,82.55,0,0,1-6.88-11.3c-.88-1.7-1.7-3.17-2.48-4.48a20.82,20.82,0,0,0-1.19-1.8c-.2-.28-.41-.53-.62-.78s-.3-.35-.45-.56a6.1,6.1,0,0,0-2.39-1.68,14.73,14.73,0,0,0-3.95-.89c-3.15-.38-7.18-.22-11.67-.41a95.82,95.82,0,0,1-13.08-1.4,56,56,0,0,1-13.25-3.82,42.64,42.64,0,0,1-6.32-3.44,23.55,23.55,0,0,1-5.88-5.62c-3.07-4.2-4.52-8.13-6.27-10.93a16,16,0,0,0-2.76-3.49,7.89,7.89,0,0,0-3.2-1.82c-2.56-.81-6-.5-9.38.4a43.39,43.39,0,0,0-5.18,1.76q-2.86,1.17-5.88,2.21a56.35,56.35,0,0,1-25.55,3c-2-.17-4-.37-5.92-.48a51.1,51.1,0,0,0-5.55,0,17.05,17.05,0,0,0-9,3l-.86.73c-.29.23-.51.51-.78.76a17,17,0,0,0-1.39,1.84,39.63,39.63,0,0,0-2.49,4.68c-.82,1.75-1.65,3.65-2.67,5.63a31.9,31.9,0,0,1-1.74,3,29.54,29.54,0,0,1-2.19,2.83c-.38.45-.75.91-1.15,1.34l-1.31,1.25c-.45.41-.87.83-1.34,1.22l-1.49,1.09a14.86,14.86,0,0,1-1.56,1l-1.67.86L112,373c-.28.13-.59.22-.89.33l-1.82.62a13.12,13.12,0,0,1-1.88.42,17.79,17.79,0,0,1-1.92.29l-2,.06a8,8,0,0,1-2-.13c-.65-.1-1.3-.18-1.93-.31l-1.88-.57-.92-.3-.88-.43-1.7-.91c-.53-.36-1-.75-1.55-1.12a8.93,8.93,0,0,1-1.44-1.22L90,368.33a12.78,12.78,0,0,1-1.1-1.47,16.47,16.47,0,0,1-1-1.52l-.77-1.61A17.31,17.31,0,0,1,86,360.46l-.24-.82-.15-.83-.27-1.66a13.35,13.35,0,0,1-.18-1.59c0-.52-.1-1-.12-1.56-.16-2.07-.21-4.13-.27-6.18s0-4.09,0-6.11-.12-4-.12-6.06a91.94,91.94,0,0,1,.87-12.07C86.84,315.57,91,308.41,92,300.37Zm0,0c-.64,8.08-4.52,15.59-5.52,23.36a78.39,78.39,0,0,0,1.1,23.69c.41,1.93.84,3.85,1.39,5.74.13.47.28.94.43,1.41a9.56,9.56,0,0,0,.46,1.34l.5,1.26.24.63.33.58a16.35,16.35,0,0,0,6.84,7.13l1.1.44.54.25.57.14,1.14.31,1.17.12a13.28,13.28,0,0,0,2.36,0c.4,0,.79-.14,1.19-.19a6.92,6.92,0,0,0,1.18-.26,18.7,18.7,0,0,0,8.38-5.65,22.4,22.4,0,0,0,3.16-4.37c1-1.63,1.83-3.4,2.79-5.22a41.74,41.74,0,0,1,3.36-5.49,22.43,22.43,0,0,1,2.23-2.57c.43-.38.84-.8,1.3-1.14l1.37-1a20.83,20.83,0,0,1,6.17-2.69,28,28,0,0,1,6.43-.81,53.24,53.24,0,0,1,6.23.33c2,.19,4,.43,6,.66a50.35,50.35,0,0,0,11.76.22,48.57,48.57,0,0,0,11.48-2.78q2.81-1,5.57-2.18a50,50,0,0,1,5.77-2.06c3.92-1.1,8.16-1.69,12.24-.67a13.7,13.7,0,0,1,5.53,2.81,20.88,20.88,0,0,1,4,4.65c2.24,3.39,3.74,7.18,6.24,10.3a17.35,17.35,0,0,0,4.42,3.95,35.7,35.7,0,0,0,5.38,2.63,48.23,48.23,0,0,0,11.67,2.8,86.24,86.24,0,0,0,12,.55c4-.06,8-.5,12.06-.39a22.31,22.31,0,0,1,11.52,3,41,41,0,0,1,8.74,8.25c2.58,3.08,5.15,6.18,8,9a100.8,100.8,0,0,0,8.91,8.12,102.29,102.29,0,0,0,9.79,7,120.45,120.45,0,0,0,10.53,5.89c7.18,3.62,14.68,6.57,22.05,9.78a17.21,17.21,0,0,1,4.87,3.5,13.55,13.55,0,0,1,3,5.16c1.27,3.85,1.07,8,.67,12s-1.22,8-1.36,12a26.77,26.77,0,0,0,.4,6,14,14,0,0,0,2.23,5.56,10.44,10.44,0,0,0,2.1,2.15,11.79,11.79,0,0,0,2.62,1.46,21.86,21.86,0,0,0,5.87,1.34c4,.44,8,.35,12,1a13.81,13.81,0,0,1,5.61,2.07,34.72,34.72,0,0,1,4.69,3.79,47.47,47.47,0,0,0,4.58,3.91,15.19,15.19,0,0,0,5.42,2.56,25.68,25.68,0,0,0,11.95-.2,21.87,21.87,0,0,0,10.5-5.61A40,40,0,0,0,424,456c.91-1.8,1.79-3.61,2.82-5.33.52-.86,1-1.73,1.62-2.55l.86-1.24.94-1.18a35.62,35.62,0,0,1,4.15-4.36,34.4,34.4,0,0,1,4.88-3.53,47.46,47.46,0,0,1,11.08-4.7c1-.29,1.93-.57,2.91-.81s2-.49,2.93-.71A36.44,36.44,0,0,0,462,429.9a25.67,25.67,0,0,0,9.78-6.87,48.53,48.53,0,0,0,6.77-9.95c1.88-3.56,3.46-7.26,5.07-10.95a119.13,119.13,0,0,1,5.2-10.88,41.59,41.59,0,0,1,7.22-9.61,50.14,50.14,0,0,1,9.78-7,42.7,42.7,0,0,1,11.06-4.72c.49-.14,1-.2,1.48-.31l1.49-.18c1-.16,2-.17,3-.24,2-.07,4,0,6,0a50.53,50.53,0,0,0,6-.09,15,15,0,0,0,5.75-1.65,14.11,14.11,0,0,0,4.41-4.05,28.46,28.46,0,0,0,2.87-5.29,27.18,27.18,0,0,0,2-11.79,23.28,23.28,0,0,0-1.1-5.91,20,20,0,0,0-2.78-5.32,18.2,18.2,0,0,0-4.39-4.1,22.38,22.38,0,0,0-5.48-2.48c-3.84-1.17-7.75-2.15-11.57-3.39-1.91-.63-3.84-1.22-5.72-1.92s-3.79-1.35-5.66-2.1c-15-5.8-29.32-13.27-43.3-21.22-7-4-13.91-8.07-20.84-12.16s-13.83-8.23-20.54-12.66a180,180,0,0,1-19.28-14.48,135.74,135.74,0,0,1-16.61-17.46,64.58,64.58,0,0,1-6.61-10.08,53.11,53.11,0,0,1-2.36-5.55c-.73-1.87-1.41-3.76-2.11-5.65A115.08,115.08,0,0,0,377,210.7,30.54,30.54,0,0,0,370,201a25.36,25.36,0,0,0-10.65-5.4c-1-.21-2-.45-2.94-.63l-3-.36c-2-.24-4-.29-6-.37-4-.15-8-.2-12-.67a35,35,0,0,1-11.58-3.19,33.64,33.64,0,0,1-16.06-17.32,107.3,107.3,0,0,1-3.6-11.51c-1.1-3.84-2.51-7.72-5.1-10.83l-1-1.13c-.36-.35-.74-.68-1.11-1l-.55-.51-.61-.44-1.23-.88c-.86-.5-1.74-1-2.63-1.46s-1.83-.84-2.76-1.22c-3.72-1.52-7.6-2.65-11.3-4.23s-6.69-4.44-9.69-7.08a23.71,23.71,0,0,0-4.91-3.47,16.33,16.33,0,0,0-5.76-1.63,23.66,23.66,0,0,0-11.71,2.25,28.2,28.2,0,0,0-2.68,1.38c-.87.51-1.71,1.07-2.52,1.65a35.69,35.69,0,0,0-4.47,4c-2.74,2.95-5.1,6.22-7.78,9.21a27.22,27.22,0,0,1-9.54,7.25c-3.69,1.53-7.66,2.65-10.82,5.19a11.77,11.77,0,0,0-3.64,4.71,25.31,25.31,0,0,0-1.47,5.83,31.85,31.85,0,0,1-1.31,5.88l-.52,1.42c-.22.46-.46.9-.69,1.35-.12.22-.22.45-.35.67l-.43.62c-.3.4-.55.85-.88,1.22a17.8,17.8,0,0,1-4.59,3.88,25.82,25.82,0,0,1-5.53,2.39,68.94,68.94,0,0,1-11.85,2.21,52.09,52.09,0,0,1-12,.44A33.88,33.88,0,0,1,153,186.18a24.31,24.31,0,0,1-5.09-3.22,18.43,18.43,0,0,1-3.94-4.55c-2.12-3.45-3.08-7.43-4.16-11.29a57.94,57.94,0,0,0-1.79-5.75c-.18-.47-.35-.94-.54-1.4l-.68-1.35a20,20,0,0,0-1.51-2.6,31.82,31.82,0,0,0-8.38-8.54,41.71,41.71,0,0,0-10.76-5.33,45.59,45.59,0,0,0-11.8-2.23,59.62,59.62,0,0,0-12,.67,110.43,110.43,0,0,0-23.13,6.66q-5.61,2.19-11.17,4.56a21.27,21.27,0,0,0-5.13,3.1A7.78,7.78,0,0,0,50.08,160a12.25,12.25,0,0,0,1.3,5.8q1.23,2.76,2.62,5.43c1.86,3.57,3.86,7.05,5.66,10.66A50,50,0,0,1,64,193.16c.27,1,.36,2,.54,3l.13,1.51a10.75,10.75,0,0,1,.06,1.5,26.42,26.42,0,0,1-.59,6A51.5,51.5,0,0,1,60,216.48c-1.71,3.64-3.6,7.2-5.16,10.9a45.15,45.15,0,0,0-3.59,11.46,9.37,9.37,0,0,0,.08,3A3.26,3.26,0,0,0,53,244.14a7.6,7.6,0,0,0,2.92.57l3,.17a73,73,0,0,1,12,1.43,26.71,26.71,0,0,1,5.71,1.94,10.77,10.77,0,0,1,4.54,3.91,8.45,8.45,0,0,1,.91,5.87,16.18,16.18,0,0,1-2.15,5.61l-.42.63c-.15.21-.33.38-.5.58a6.72,6.72,0,0,1-1.11,1A5.87,5.87,0,0,1,75.1,267a6,6,0,0,1-3-.52,7.83,7.83,0,0,1-2.41-1.82,10.93,10.93,0,0,1-.94-1.19,14.2,14.2,0,0,1-.73-1.32,7.17,7.17,0,0,0-1.47-2.57,1.56,1.56,0,0,0-1.37-.26,3.28,3.28,0,0,0-1.28.73,9.83,9.83,0,0,0-1.87,2.33,21.66,21.66,0,0,0-2.31,5.53,15,15,0,0,0-.48,5.95,6.12,6.12,0,0,0,1.07,2.76,4.92,4.92,0,0,0,2.41,1.66,12.47,12.47,0,0,0,5.95.23,19.56,19.56,0,0,1,6-.29,9.93,9.93,0,0,1,2.87.92,23.44,23.44,0,0,1,2.53,1.66,40.08,40.08,0,0,1,8.71,8.29,17.16,17.16,0,0,1,2.79,5.32A16.55,16.55,0,0,1,92,300.37Z"/></svg>