<svg id="Layer_1" data-name="Layer 1" xmlns="http://www.w3.org/2000/svg" viewBox="0 0 600 600"><title>tuvalu</title><path d="M150,50.07A42.78,42.78,0,0,0,134.27,52a72.59,72.59,0,0,0-14.05,6.85A59,59,0,0,0,99.16,80.7a50.28,50.28,0,0,0-6.38,29.41,52.3,52.3,0,0,0,11.51,27.33,67.61,67.61,0,0,0,5,5.59l1.33,1.32,1.38,1.26,3,2.72c4,3.75,7.85,7.68,11.52,11.75a219,219,0,0,1,20,26.08,129,129,0,0,1,8.26,14.69c2.44,5,4.64,10.05,6.67,15.07l5.94,14.85c1,2.42,1.94,4.84,3,7.2s2.1,4.69,3.15,7a275.53,275.53,0,0,0,14.38,27.3c.66,1.11,1.29,2.23,2,3.33l2.07,3.29c1.38,2.18,2.73,4.38,4.15,6.56.32.56.63,1.13,1,1.66s.82,1,1.24,1.52c.83,1,1.67,2,2.53,3,1.73,2,3.6,3.84,5.39,5.76,3.64,3.79,7.54,7.4,11.2,11.15,1.9,1.84,3.67,3.76,5.42,5.69s3.48,3.91,5.1,5.95c6.45,8.21,12.6,16.69,18.74,25.35s12,17.59,17.84,26.63l2.06,3.21,1,1.52,1.09,1.59c1.5,2.18,3.18,4.5,4.86,7a69.21,69.21,0,0,1,4.88,8.52l1.1,2.46c.33.87.67,1.72,1,2.62s.6,1.81.81,2.8l.33,1.45a6.06,6.06,0,0,1,.15.8l.14.89a23.88,23.88,0,0,1,0,7.21,30.74,30.74,0,0,1-1.63,6c-.64,1.66-1.25,3-1.73,4.05a23.91,23.91,0,0,0-.95,2.37,6.14,6.14,0,0,0-.24,1.14c0,.08,0,.16,0,.24a2.76,2.76,0,0,0,0,.29,5.87,5.87,0,0,0,.2.94,17.87,17.87,0,0,0,2.23,4.63c1.13,1.75,2.62,3.56,4.33,5.7a85.12,85.12,0,0,1,5.5,7.37,46.38,46.38,0,0,1,2.63,4.71,40.5,40.5,0,0,1,2,5.11,57.46,57.46,0,0,1,2.11,9.86c.74,6.18.83,11.58,1.58,15.72a24,24,0,0,0,1.46,5.25l.48,1.05.72,1.47c.51,1,1,2,1.58,2.94a81.6,81.6,0,0,0,8.16,11.43c3.15,3.7,6.59,7.37,10.18,11.12l1.34,1.42.68.72.34.36.27.25c.68.66,1.41,1.3,2.14,1.92,1.46,1.25,3,2.43,4.56,3.55a63.39,63.39,0,0,0,9.6,5.68,35.15,35.15,0,0,0,9,3.07,18,18,0,0,0,6.79,0,11.85,11.85,0,0,0,2.94-1,22.13,22.13,0,0,0,3.77-2.59c3-2.47,6.56-6.48,11.37-11,.59-.56,1.26-1.13,1.89-1.69l2-1.7c1.48-1.1,2.94-2.24,4.45-3.23a66.73,66.73,0,0,1,9.09-4.94,152.57,152.57,0,0,1,16.63-6,83.65,83.65,0,0,0,12.91-5,12.24,12.24,0,0,0,1.3-.72l1.26-.73c.77-.54,1.52-1.07,2.26-1.61l1-.88a7.36,7.36,0,0,0,.94-.87l.8-.83c.23-.31.47-.61.73-.91a24.59,24.59,0,0,0,2.63-4.58c.83-1.81,1.58-4,2.41-6.49s1.71-5.24,2.95-8.23a49.41,49.41,0,0,1,5-9.26c.54-.74,1.09-1.58,1.64-2.22s1.09-1.34,1.65-2l1.71-1.85c.57-.58,1.16-1.15,1.76-1.71a78.44,78.44,0,0,1,7.22-5.87c2.43-1.72,4.85-3.27,7.19-4.72l6.88-4.1,3.22-2,1.58-1,1.75-1.15c2.31-1.52,4.53-2.87,6.59-4.3,4.11-2.79,7.8-5.76,10-8.81a12.61,12.61,0,0,0,2.15-4.3,7.81,7.81,0,0,0,.22-2,9.28,9.28,0,0,0-.24-2,10.28,10.28,0,0,0-.33-1.09l-.2-.56-.26-.58a5.57,5.57,0,0,0-.9-1.53,6.51,6.51,0,0,0-1.22-1c-.57-.41-1.43-.94-2.57-1.63s-2.54-1.56-4-2.65c-.73-.54-1.47-1.16-2.2-1.8a28.34,28.34,0,0,1-2.18-2.21,38.78,38.78,0,0,1-5.92-9.16c-.71-1.46-1.32-2.87-1.88-4.2l-1.57-3.78-.73-1.69c-.25-.52-.46-1-.75-1.54l-1.6-3.16a121.56,121.56,0,0,0-16.77-23.19c-6.47-7.26-13.63-14.19-21.09-21.14-1.86-1.74-3.78-3.44-5.65-5.22-1-.9-2-2-3-2.94s-1.91-2-2.83-3c-3.65-4-6.82-8.06-9.91-12-6.14-7.66-12.89-14.85-21.46-16.63a17.25,17.25,0,0,0-6.31-.25,12.29,12.29,0,0,0-5.51,2.43c-.4.3-.75.66-1.13,1s-.67.74-1,1.09a3.1,3.1,0,0,0-.43.52l-.36.58c-.26.43-.59,1-1.06,1.73a15.1,15.1,0,0,1-2.1,2.65,14.87,14.87,0,0,1-4,2.88,19.2,19.2,0,0,1-4.82,1.6,18.16,18.16,0,0,1-4.62.29,17.86,17.86,0,0,1-2.33-.27,6.82,6.82,0,0,1-1.09-.42l-1-.5a18.4,18.4,0,0,1-1.83-1.07c-.54-.38-1.15-.77-1.6-1.15a28.94,28.94,0,0,1-4.55-4.5c-1.14-1.38-2-2.63-2.79-3.7s-1.37-1.92-1.77-2.45a17.37,17.37,0,0,0-3.28-3.15,11.66,11.66,0,0,0-4-1.9,13.12,13.12,0,0,0-4.74-.47,16.87,16.87,0,0,0-5.2,1.17l-.66.23-.64.32c-.42.21-.87.39-1.29.63a21.23,21.23,0,0,0-2.48,1.59,24.2,24.2,0,0,0-2.33,1.9,13.08,13.08,0,0,0-1.75,1.91,11.86,11.86,0,0,0-2.1,4.27,6,6,0,0,0,.13,3.52,5.25,5.25,0,0,0,2.36,2.52,3.31,3.31,0,0,0,1.26.35.53.53,0,0,0,.25,0,.4.4,0,0,0,.22,0,1.76,1.76,0,0,0,.7-.24c.66-.33,1.66-1,3-1.94a19.56,19.56,0,0,1,2.51-1.37,14.74,14.74,0,0,1,3.31-1,11.09,11.09,0,0,1,4.32.07,9.76,9.76,0,0,1,4.26,2.24A11.08,11.08,0,0,1,336,304a15.78,15.78,0,0,1,1.18,2.82,26.82,26.82,0,0,1,1,4.91c.2,1.54.29,3,.36,4.42l.19,4,.05.72c0,.22.11.49.16.73.11.5.19,1,.31,1.49,1.13,3.78,3.47,5.89,7.55,7.67s9.5,3,15.4,6c.73.4,1.48.81,2.21,1.24s1.48,1,2.22,1.52a21.54,21.54,0,0,1,2.13,1.68,24.79,24.79,0,0,1,2,1.83,36.91,36.91,0,0,1,6.33,8.41,46.48,46.48,0,0,1,3.93,9,48.42,48.42,0,0,1,2.08,9,51.85,51.85,0,0,1,.39,8.65c-.1,2.82-.27,5.47-.39,8.25s-.15,5.58-.11,8.44.16,5.8.11,8.82a87.89,87.89,0,0,1-.58,9.29l-.34,2.39c-.13.81-.29,1.65-.44,2.48l-.58,2.46-.72,2.45a45,45,0,0,1-4.23,9.61,37.43,37.43,0,0,1-7.14,8.76,32.78,32.78,0,0,1-10.55,6.39,33.41,33.41,0,0,1-12.47,2,41,41,0,0,1-21.66-7.24l-2.21-1.59L320,438.87c-.66-.6-1.33-1.21-2-1.83s-1.28-1.29-1.88-1.94a56.89,56.89,0,0,1-6-8A102.33,102.33,0,0,1,302,411c-2.13-5.24-3.94-10.1-5.88-15.1s-3.87-9.94-5.71-14.95l-11.24-30c-1.92-5-3.83-10-5.82-14.9l-3-7.41-.76-1.85-.81-2c-.53-1.37-1-2.75-1.46-4.22a30.49,30.49,0,0,1-1.49-9.6,19.27,19.27,0,0,1,1-5.46,18.34,18.34,0,0,1,2.8-5,24.83,24.83,0,0,1,8-6.24,64.61,64.61,0,0,1,8.05-3.42c2.61-.94,5.17-1.78,7.64-2.63,1.23-.42,2.45-.85,3.64-1.29l.88-.33.45-.17.34-.15c.44-.22.92-.37,1.33-.63a13.26,13.26,0,0,0,4.26-3.39,7.67,7.67,0,0,0,1.78-4,6.43,6.43,0,0,0-.89-3.83c-.23-.33-.36-.68-.63-1s-.52-.67-.78-1a26,26,0,0,0-2.16-2.17A54.51,54.51,0,0,0,296,266c-2.06-1.4-4.28-2.78-6.61-4.33A53.07,53.07,0,0,1,282,256a22.87,22.87,0,0,1-3.79-4.69,16,16,0,0,1-2.25-7.4,16.23,16.23,0,0,1,.33-4c.14-.61.32-1.19.5-1.78.09-.29.18-.6.29-.87l.33-.76c.23-.51.47-1,.72-1.51l.77-1.31a23.38,23.38,0,0,1,1.64-2.34,47.33,47.33,0,0,1,6.89-7l1.76-1.39.44-.35.39-.31.61-.52,1.24-1,1.07-1.05.54-.52c.18-.18.3-.36.45-.53l.87-1c.21-.35.43-.69.66-1a8.09,8.09,0,0,0,.5-1,6,6,0,0,0,.61-3.26,10.51,10.51,0,0,0-1.34-3.89,27.4,27.4,0,0,0-3.42-4.82,64.49,64.49,0,0,0-4.77-5c-3.52-3.27-7.41-6.54-11.49-9.84s-8.26-6.74-12.57-10.73l-1.62-1.56-1.46-1.45-2.82-2.82-5.6-5.69c-7.48-7.57-14.79-15.31-22.13-23l-11-11.57-2.84-3-2.77-3.1c-1.79-2.07-3.55-4.14-5.27-6.18-6.86-8.16-13.45-16.2-20.89-22.61-.93-.79-1.88-1.52-2.82-2.28s-1.91-1.43-2.9-2-2-1.31-2.78-1.66a13.67,13.67,0,0,0-2.63-1,11.13,11.13,0,0,0-5.19-.22,6.78,6.78,0,0,0-3.85,2.26,15.84,15.84,0,0,0-2.78,5.32c-.38,1.11-.73,2.29-1.07,3.53l-.51,1.9c-.18.67-.32,1.25-.59,2.11a25.11,25.11,0,0,1-1.84,4.46,33.24,33.24,0,0,1-2.36,3.93,46,46,0,0,1-5.73,6.72,47.12,47.12,0,0,1-14.48,9.67,30.8,30.8,0,0,1-8.78,2.24,20.65,20.65,0,0,1-9.41-1.27,21.47,21.47,0,0,1-4.2-2.25,19,19,0,0,1-3.52-3.25,19.55,19.55,0,0,1-2.59-4A22.65,22.65,0,0,1,107,117a28.73,28.73,0,0,1-.74-8.76,41.2,41.2,0,0,1,1.4-8.39,43.78,43.78,0,0,1,7.35-15,29.54,29.54,0,0,1,2.85-3.19A28.73,28.73,0,0,1,121.22,79a32.71,32.71,0,0,1,23.89-5.22c5.54.89,10.26,3.7,15.19,5.37a21.73,21.73,0,0,0,7.63,1.32,12.86,12.86,0,0,0,3.8-.67A10.86,10.86,0,0,0,175.15,78a8.43,8.43,0,0,0,2.44-2.93,9.31,9.31,0,0,0,.95-3.72,16.1,16.1,0,0,0-1.72-7.58c-2.26-4.72-6.16-8.87-11.26-10.52A49.19,49.19,0,0,0,150,50.07Zm0,0a49.49,49.49,0,0,1,15.74,2.71,23.48,23.48,0,0,1,3.75,1.6,18,18,0,0,1,3.31,2.44,23.19,23.19,0,0,1,5,6.53,17.2,17.2,0,0,1,2.06,8.09,10.59,10.59,0,0,1-1,4.29,10,10,0,0,1-2.76,3.53,12.56,12.56,0,0,1-3.82,2.14,14.13,14.13,0,0,1-4.26.88A24.24,24.24,0,0,1,159.72,81c-5.24-1.67-9.89-4.26-14.95-4.93a29.78,29.78,0,0,0-15.09,1.64,29.47,29.47,0,0,0-6.75,3.62A26.61,26.61,0,0,0,120,83.76a25.56,25.56,0,0,0-2.48,2.91,40.64,40.64,0,0,0-6.47,14,37.75,37.75,0,0,0-1.11,7.68,25,25,0,0,0,.79,7.62,15.39,15.39,0,0,0,9.61,10.85,16.36,16.36,0,0,0,7.46.84,26.2,26.2,0,0,0,7.42-2.06A42,42,0,0,0,148,116.68c3.62-3.73,6.82-8.1,8.29-13.06.67-2.52,1.2-5.17,2-7.73a21.91,21.91,0,0,1,3.59-7.3,12.72,12.72,0,0,1,6.81-4.47,16.9,16.9,0,0,1,8.12-.06,19.39,19.39,0,0,1,3.86,1.27,38.9,38.9,0,0,1,3.54,1.94c1.16.67,2.24,1.47,3.37,2.19s2.15,1.59,3.19,2.43c8.32,6.73,15.32,14.83,22.4,22.76s14.68,15.38,22.22,22.89L258.06,160c3.79,3.73,7.54,7.51,11.39,11.18s8.1,6.89,12.22,10.26,8.21,6.78,12,10.49a71.24,71.24,0,0,1,5.41,5.85,34.65,34.65,0,0,1,4.39,6.65,18.88,18.88,0,0,1,2.1,7.63,15.2,15.2,0,0,1-1.8,7.67,18.35,18.35,0,0,1-1,1.72l-1.17,1.62c-.43.51-.88,1-1.32,1.49A15.64,15.64,0,0,1,298.9,226c-.49.45-1,.91-1.47,1.35l-1.57,1.23c-1,.83-2.11,1.62-3.17,2.43a38.91,38.91,0,0,0-5.76,5.5,14.38,14.38,0,0,0-1.17,1.61l-.54.84-.43.9a10.15,10.15,0,0,0-.67,1.87,7.77,7.77,0,0,0-.18,2,8.16,8.16,0,0,0,1.1,3.79,16.48,16.48,0,0,0,2.46,3.13,48.19,48.19,0,0,0,6.21,5c4.33,3.07,8.85,5.94,12.7,9.63a22.1,22.1,0,0,1,4.8,6.32,12.94,12.94,0,0,1,1.22,7.76,14.5,14.5,0,0,1-3.47,7.07,19.6,19.6,0,0,1-6.36,4.72,64.4,64.4,0,0,1-7.5,2.69c-2.54.8-5.09,1.56-7.61,2.4a59.32,59.32,0,0,0-7.42,2.94,19.36,19.36,0,0,0-6.37,4.71,12.69,12.69,0,0,0-2,3.43,14.46,14.46,0,0,0-.74,3.91,23.49,23.49,0,0,0,1.27,7.83,57.69,57.69,0,0,0,3,7.37l3.37,7.24,6.73,14.47L298.84,377c4.51,9.64,8.94,19.32,13.51,28.93a93.34,93.34,0,0,0,8,13.8,42.42,42.42,0,0,0,11.32,11.11,30.4,30.4,0,0,0,15,5,22.31,22.31,0,0,0,7.87-1,23.38,23.38,0,0,0,7-3.71,31.77,31.77,0,0,0,9.53-12.6,45.59,45.59,0,0,0,3.41-15.51,107.46,107.46,0,0,0-.47-15.94c-.49-5.29-.94-10.6-1.82-15.85a69.41,69.41,0,0,0-1.72-7.79,43.25,43.25,0,0,0-2.8-7.46,28.72,28.72,0,0,0-10.28-11.93c-4.45-2.94-9.48-4.82-14.05-7.54a22.8,22.8,0,0,1-6.1-5.08,18,18,0,0,1-3.46-7.12c-.13-.65-.22-1.31-.34-2a12.14,12.14,0,0,1-.23-2l-.17-4a31.7,31.7,0,0,0-1.2-7.87,7.51,7.51,0,0,0-2-3.39,3.93,3.93,0,0,0-1.75-.91,5.07,5.07,0,0,0-2,0c-2.68.5-4.63,2.55-6.91,3.88a8.47,8.47,0,0,1-3.76,1.21,9.19,9.19,0,0,1-3.91-.59,11.69,11.69,0,0,1-6-5A12.67,12.67,0,0,1,304,296a18.53,18.53,0,0,1,2.63-7.47,26.39,26.39,0,0,1,5.17-6,32.42,32.42,0,0,1,3.12-2.49c.54-.38,1.13-.7,1.69-1.06l.85-.52.89-.45a27,27,0,0,1,7.52-2.59,23.21,23.21,0,0,1,7.93-.18,24.27,24.27,0,0,1,13.89,7.26c1.84,1.92,3.37,4.11,5.16,6.08a13.48,13.48,0,0,0,6.49,4.43,7.89,7.89,0,0,0,3.95,0,8.49,8.49,0,0,0,3.35-2.08,26.44,26.44,0,0,1,6.41-4.71,27,27,0,0,1,15.51-2.65,39.31,39.31,0,0,1,15,5.07,83.88,83.88,0,0,1,13,9.19c4.07,3.42,7.94,7.07,11.84,10.69s7.94,7.1,11.84,10.71a214.28,214.28,0,0,1,22,23.09,120.28,120.28,0,0,1,16.77,27.05c1,2.46,2.07,4.91,2.88,7.44s1.68,5,2.72,7.5a26.67,26.67,0,0,0,4,6.89,26.27,26.27,0,0,0,6.09,5.12,20.88,20.88,0,0,1,5.94,5.25,14.8,14.8,0,0,1,1.83,3.53,15.56,15.56,0,0,1,.64,1.89,18.31,18.31,0,0,1,.48,1.94,17.29,17.29,0,0,1-.29,7.9,21.8,21.8,0,0,1-3.52,7.11c-3.15,4.32-7.31,7.74-11.52,11-2.12,1.61-4.28,3.17-6.42,4.75s-4.26,3.18-6.45,4.7c-4.35,3.05-8.8,6-13,9.27A51,51,0,0,0,451.32,465a37.29,37.29,0,0,0-3.6,7.1c-1,2.48-1.74,5-2.55,7.56s-1.61,5.07-2.64,7.53a34.06,34.06,0,0,1-15.65,17.51,101,101,0,0,1-14.49,6.66,135.38,135.38,0,0,0-14.62,6.36,46.14,46.14,0,0,0-12.65,9.59c-3.64,3.88-6.84,8.16-10.52,12a41.57,41.57,0,0,1-6,5.25,30.07,30.07,0,0,1-7.07,3.67,32.86,32.86,0,0,1-15.74,1.44,48,48,0,0,1-15.11-4.95,65.58,65.58,0,0,1-23.64-21c-6.32-8.54-12.48-17.3-17-27a59.91,59.91,0,0,1-2.91-7.43,39.37,39.37,0,0,1-1.38-7.85c-.43-5.31-.14-10.64-.49-15.95s-1.52-10.64-4.37-15.17-6.48-8.43-9.41-12.88A28.42,28.42,0,0,1,268,430.3a18.18,18.18,0,0,1-.49-1.93,16.63,16.63,0,0,1-.24-2,15.07,15.07,0,0,1,.36-4c.63-2.6,1.78-5,2.65-7.53a19.67,19.67,0,0,0,.93-3.87,13.09,13.09,0,0,0-.14-3.95c-1-5.26-4-9.85-7.24-14s-6.87-8.13-10.09-12.37l-19.82-25c-13.2-16.69-26.23-33.55-38.11-51.21q-9-13.21-16.8-27.14a279.24,279.24,0,0,1-14.17-28.59c-4.29-9.75-7.63-19.87-11.33-29.84s-7.71-19.88-13.2-29A215,215,0,0,0,122,163.73c-3.38-4.11-6.91-8.09-10.64-11.88L108.57,149l-1.4-1.42-1.34-1.47a64.92,64.92,0,0,1-5-6.23A55.29,55.29,0,0,1,97.1,79.57a59.22,59.22,0,0,1,9.48-12.81,55.94,55.94,0,0,1,12.66-9.67A60.59,60.59,0,0,1,150,50Z"/><path d="M462.12,319.51a12.8,12.8,0,0,0,6.42,3.05c2.3.45,4.91.66,6.65-.26a3.92,3.92,0,0,0,1.88-1.85,3.16,3.16,0,0,0,.17-2.2c-.35-1.56-1.57-3.1-3.1-4.75a24.86,24.86,0,0,0-4.69-4.26,7.37,7.37,0,0,0-5.56-1.19,4.3,4.3,0,0,0-2.44,1.63,6.72,6.72,0,0,0-1.19,3.13A8.55,8.55,0,0,0,462.12,319.51Zm0,0a11.22,11.22,0,0,1-2.55-6.73,9.14,9.14,0,0,1,.56-3.82,6.45,6.45,0,0,1,2.74-3.21,9.74,9.74,0,0,1,8.46-.4,17.84,17.84,0,0,1,6.5,4.78,17.3,17.3,0,0,1,2.43,3.3,9.66,9.66,0,0,1,1.27,4.43,6.62,6.62,0,0,1-1.64,4.64A6.37,6.37,0,0,1,478,324a7.27,7.27,0,0,1-2.1.72,8.86,8.86,0,0,1-4-.27,28.87,28.87,0,0,1-3.54-1.2A19,19,0,0,1,462.12,319.51Z"/><path d="M492,334.68a6.91,6.91,0,0,0-.24,4.24c.3,1.36.92,2.86,1.8,3.38a1.58,1.58,0,0,0,1.22.31,1.35,1.35,0,0,0,.71-.47,10.08,10.08,0,0,0,1.5-2.41,23.2,23.2,0,0,0,1.44-3.16,4.08,4.08,0,0,0,0-2.94,2.13,2.13,0,0,0-1.11-1.08,3.6,3.6,0,0,0-1.92-.18A4.74,4.74,0,0,0,492,334.68Zm0,0a7.38,7.38,0,0,1,3.2-3,5.84,5.84,0,0,1,2.35-.65,4.25,4.25,0,0,1,2.7.82,6.41,6.41,0,0,1,2.49,5.1,11.63,11.63,0,0,1-2.79,7.23,6.49,6.49,0,0,1-2.6,1.81,4.68,4.68,0,0,1-3.51-.06,4.59,4.59,0,0,1-2.26-2.14,5.6,5.6,0,0,1-.59-2.57,21.49,21.49,0,0,1,.09-2.29A13.31,13.31,0,0,1,492,334.68Z"/><path d="M501.35,355a6.33,6.33,0,0,0-.39,4.11c.26,1.34.88,2.76,1.77,3.08a1.4,1.4,0,0,0,1.16.06,2.28,2.28,0,0,0,.82-.58,11.05,11.05,0,0,0,1.64-2.44,21.52,21.52,0,0,0,1.53-2.92,3.08,3.08,0,0,0,0-2.57,2,2,0,0,0-1.21-.89,4.3,4.3,0,0,0-1.93-.06A5.11,5.11,0,0,0,501.35,355Zm0,0a8.47,8.47,0,0,1,3.16-2.85,7,7,0,0,1,2.2-.8,4.09,4.09,0,0,1,2.73.42,5.08,5.08,0,0,1,2.07,2.16,6.34,6.34,0,0,1,.66,2.89,10.12,10.12,0,0,1-1.48,4.9,10.88,10.88,0,0,1-1.52,2.06,7.05,7.05,0,0,1-2.43,1.69,5.25,5.25,0,0,1-3.26.25,4.4,4.4,0,0,1-2.53-1.79,4.5,4.5,0,0,1-.79-2.55,15.06,15.06,0,0,1,.12-2.25A12,12,0,0,1,501.35,355Z"/><path d="M501.33,371.67a6.91,6.91,0,0,0-.24,4.24c.3,1.36.92,2.86,1.8,3.38a1.58,1.58,0,0,0,1.22.31,1.35,1.35,0,0,0,.71-.47,10.08,10.08,0,0,0,1.5-2.41,22,22,0,0,0,1.44-3.16,4.08,4.08,0,0,0,0-2.94,2.13,2.13,0,0,0-1.11-1.08,3.6,3.6,0,0,0-1.92-.18A4.74,4.74,0,0,0,501.33,371.67Zm0,0a7.38,7.38,0,0,1,3.2-3,5.89,5.89,0,0,1,2.35-.65,4.25,4.25,0,0,1,2.7.82,6.41,6.41,0,0,1,2.49,5.1,10.54,10.54,0,0,1-1.3,5,11.08,11.08,0,0,1-1.48,2.21,6.6,6.6,0,0,1-2.61,1.81,4.68,4.68,0,0,1-3.51-.06,4.59,4.59,0,0,1-2.26-2.14,5.6,5.6,0,0,1-.59-2.57,21.49,21.49,0,0,1,.09-2.29A13.31,13.31,0,0,1,501.33,371.67Z"/></svg>