<svg id="Layer_1" data-name="Layer 1" xmlns="http://www.w3.org/2000/svg" viewBox="0 0 600 600"><title>Uzbekistan</title><path d="M53,292.76a17,17,0,0,1-2.63-6.24,26.74,26.74,0,0,1-.58-6.81,24.66,24.66,0,0,1,.41-3.44c.1-.56.22-1.12.34-1.69s.31-1.09.43-1.65a39.3,39.3,0,0,0,1.22-6.54c.06-1.05.06-2.24.11-3.37l.16-3.42c.12-2.28.28-4.55.46-6.82L54,239.23c.18-2.26.42-4.52.73-6.76s.65-4.49.94-6.74.47-4.51.6-6.78l.25-6.8c.38-9.07.17-18.21.22-27.31l0-3.42v-1.7c0-.57,0-1.16,0-1.61a61,61,0,0,0-.62-6.25,69.36,69.36,0,0,1-.76-7.43,29.77,29.77,0,0,1,.21-4.26,21.78,21.78,0,0,1,1.15-4.63A18.85,18.85,0,0,1,59.19,151a17,17,0,0,1,3.94-4,16.2,16.2,0,0,1,4.94-2.32,17.63,17.63,0,0,1,4.71-.63,53.58,53.58,0,0,1,7.37.74,18.67,18.67,0,0,0,6.16-.27c1-.22,2.1-.5,3.17-.81s2.15-.62,3.25-1l3.36-1,3.43-1c2.11-.61,4.2-1.38,6.31-2.12l6.34-2.43,3.22-1.23c.66-.32,1.65-.75,2.67-1.21s2.13-.94,3.3-1.42,2.44-.9,3.84-1.29a22.2,22.2,0,0,1,5-.81,13.84,13.84,0,0,1,1.68,0c.31,0,.55,0,.92.09l1.06.19a13.08,13.08,0,0,1,1.87.54l.87.32a5.6,5.6,0,0,1,.93.43c.69.38,1.36.8,2,1.24a19,19,0,0,1,2,2,14.62,14.62,0,0,1,1.62,2.58,13.76,13.76,0,0,1,.89,2.77,14.38,14.38,0,0,1,.22,2.49,7,7,0,0,1-.05,1.07c0,.34-.06.68-.11,1a7.28,7.28,0,0,1-.17.9l-.21.82a11.44,11.44,0,0,1-.47,1.46,20,20,0,0,1-2.3,4.3,35.13,35.13,0,0,1-2.34,2.94l-.51.55-.66.81c-.45.55-.89,1-1.33,1.49l-2.49,2.58a20.47,20.47,0,0,0-3.63,4.61,5.21,5.21,0,0,0-.65,4,7.21,7.21,0,0,0,.9,1.66,29,29,0,0,1,1.62,2.72,17.29,17.29,0,0,1,.92,2,24.65,24.65,0,0,1,.72,2.42,22.61,22.61,0,0,1,.57,4.45,20.57,20.57,0,0,1-.73,6.58,19.86,19.86,0,0,1-.8,2.24,8.27,8.27,0,0,0-.56,1.93,3.54,3.54,0,0,0,.31,2,4.65,4.65,0,0,0,1.44,1.72,9.56,9.56,0,0,0,6.87,1.79c1-.1,2.16-.28,3.58-.41a11.8,11.8,0,0,1,5.05.57,10,10,0,0,1,2.55,1.39,10.43,10.43,0,0,1,2,1.93,12.47,12.47,0,0,1,1.33,2.14l.77,1.6a14,14,0,0,0,1.42,2.27c.26.34.55.67.85,1s.64.69,1,1a19.09,19.09,0,0,0,2.12,1.73,13.31,13.31,0,0,0,4.6,2.06,10.44,10.44,0,0,0,4.62,0,13.08,13.08,0,0,0,4.43-1.95,8,8,0,0,0,.88-.66c.37-.31.83-.71,1.22-1.06.81-.73,1.61-1.45,2.34-2.16s1.42-1.43,2.05-2.14a19.81,19.81,0,0,0,1.6-2.18A10,10,0,0,0,184.7,200a5.15,5.15,0,0,0,.08-.95,6.05,6.05,0,0,0,0-1v-.23l0-.59c0-.44,0-.85.08-1.24.06-.8.16-1.54.28-2.29.24-1.5.54-3,.9-4.56a24.58,24.58,0,0,1,1.71-5.12,14,14,0,0,1,5-5.78,12,12,0,0,1,2.26-1.16,12.21,12.21,0,0,1,2.61-.75q.69-.12,1.38-.18a9.5,9.5,0,0,1,1.65,0,11.62,11.62,0,0,1,1.81.23,12.55,12.55,0,0,1,1.66.43,14.72,14.72,0,0,1,4.65,2.65,18.27,18.27,0,0,1,2.53,2.59,28.88,28.88,0,0,1,2.82,4.3c1.38,2.58,2.31,4.94,3.13,6.84l.5,1.2.08.18c0,.05,0,.07,0,.11s0-.05,0,0l.24.39c.63,1.06,1.23,2.1,1.79,3.08,1.14,2,2.19,3.84,3.23,5.5a38.67,38.67,0,0,0,3.08,4.45c.26.33.53.61.79.92s.54.57.81.83.55.53.84.74.58.48.81.63a11.2,11.2,0,0,0,3.85,1.77c3.2.88,7.41.87,11.85.75,2.25-.05,4.57-.21,7-.23h1.89l1.71,0,3.43.11c2.3.06,4.61.1,6.94.2s4.67.19,7,.37,4.71.38,7.09.7,4.73.78,6.82,1.09a17.19,17.19,0,0,0,5.7.1,8.79,8.79,0,0,0,4.31-2.21,30.5,30.5,0,0,1,6.76-4.62,14.57,14.57,0,0,1,5.87-1.23c.52,0,1,0,1.57.07s1.06.16,1.6.26a17.41,17.41,0,0,1,2.94.92,33.5,33.5,0,0,1,7.79,4.92c.9.71,1.73,1.32,2.33,1.73a5.46,5.46,0,0,0,.79.43.76.76,0,0,0,.25.09l.11.05.59.34a24.25,24.25,0,0,1,4.15,3.1,28.56,28.56,0,0,1,3.17,3.43,45.39,45.39,0,0,1,4.26,6.51,80.38,80.38,0,0,1,6.29,13.38,36.42,36.42,0,0,1,1.79,8.54q.09,1.1.12,2.19v2.13c-.05,1.24-.12,2.4-.15,3.5a26.09,26.09,0,0,0,.29,5.84,9.88,9.88,0,0,0,.7,2.25,5.78,5.78,0,0,0,1.27,2,8.39,8.39,0,0,0,2.17,1.48,14.65,14.65,0,0,0,2.83.89.47.47,0,0,0,.31,0l.26-.05.58-.06a11,11,0,0,1,1.39,0,11.37,11.37,0,0,1,3.54.84,14.87,14.87,0,0,1,4.49,2.82,15.69,15.69,0,0,1,1.24,1.22c.21.23.41.44.62.69l.61.8a7.88,7.88,0,0,1,.53.74l.42.67c.28.45.57.9.81,1.36a23.33,23.33,0,0,1,2,5.18,25,25,0,0,1,.76,4.32,20.08,20.08,0,0,1-.33,5.5c-.23,1.2-.59,2.08-.26,3.15a5.64,5.64,0,0,0,2.74,2.84c.31.16.66.28,1,.42s.72.22,1.13.28a17.37,17.37,0,0,0,2.5.33,32.29,32.29,0,0,0,5.78-.3l3.48-.51a30.27,30.27,0,0,1,4.46-.29,21.49,21.49,0,0,1,4.84.69c.39.09.76.21,1.12.32l.71.21c.47.14.94.24,1.41.35a23.77,23.77,0,0,0,5.33.63c.43,0,.84,0,1.25-.05l.61-.06c.19,0,.36-.08.54-.12l1.08-.2a8.71,8.71,0,0,0,1-.34,12,12,0,0,0,2-.88,9.3,9.3,0,0,0,1-.62,7.33,7.33,0,0,0,1-.69l1-.77c.34-.28.68-.61,1-.91.68-.56,1.4-1.35,2.1-2s1.46-1.48,2.28-2.33l1.2-1.22,1.28-1.29c.42-.42.89-.86,1.36-1.3s.92-.89,1.44-1.31a32.75,32.75,0,0,1,3.34-2.52,26.3,26.3,0,0,1,8.33-3.66l2.31-.45c.78-.14,1.4-.17,2.05-.23l3.35-.27a18.16,18.16,0,0,0,2.45-.35,9,9,0,0,0,1.87-.65,7.83,7.83,0,0,0,3.23-2.88,11.61,11.61,0,0,0,1.16-2.28c.17-.41.33-.83.47-1.27a7.85,7.85,0,0,0,.29-1.16c.17-.75.17-1.5.42-2.88a16.12,16.12,0,0,1,.74-2.62,19.35,19.35,0,0,1,1.51-3,22.93,22.93,0,0,1,3.74-4.48,36.55,36.55,0,0,1,3.72-3.09c1.19-.89,2.35-1.65,3.44-2.35s2.16-1.37,3.14-2l2.71-1.63c.38-.23.75-.47,1.05-.68a4.13,4.13,0,0,1,.36-.22l.51-.28,1.09-.55a25.18,25.18,0,0,1,5.39-1.93c.54-.13,1.15-.22,1.74-.31s1.25-.15,2-.17h1.09c.37,0,.79,0,1.18.06a16.2,16.2,0,0,1,2.53.41,15,15,0,0,1,5.33,2.48,14.11,14.11,0,0,1,2.21,2,13.34,13.34,0,0,1,1.83,2.51,13.67,13.67,0,0,1,1.78,5.46,13.35,13.35,0,0,1-.38,4.77,15.64,15.64,0,0,1-3.85,6.8,16.38,16.38,0,0,1-1.35,1.29l-1.19.82c-.39.25-.78.54-1.14.75s-.74.4-1.09.62c-1.42.81-2.65,1.5-3.83,2.11s-2.33,1.07-3.37,1.58a30.53,30.53,0,0,0-5.41,2.92,6.07,6.07,0,0,0-2.52,3c0,.26-.11.48-.13.74s0,.55,0,.8a3.19,3.19,0,0,0,.38,1.32,4.69,4.69,0,0,0,2.59,2.2,8.67,8.67,0,0,0,2.05.51,12.57,12.57,0,0,0,2.12,0,11,11,0,0,0,3.23-.8c.35-.16.57-.29.7-.34s.2,0,.28-.07a.11.11,0,0,0,.08,0s.08,0,.14-.07a1.77,1.77,0,0,0,.24-.27c.1-.16.21-.26.35-.48s.58-.87.92-1.42.81-1.22,1.39-2a16.2,16.2,0,0,1,2.3-2.51,12.34,12.34,0,0,1,3.84-2.33,7.55,7.55,0,0,1,1.14-.36,10.92,10.92,0,0,1,4.13-.26,9.43,9.43,0,0,1,2.82.89,12.47,12.47,0,0,1,1.18.68,7.49,7.49,0,0,1,.89.71c.28.25.55.5.8.75l.55.69c.18.23.36.47.52.7l.36.63.35.62.27.57c.16.38.35.77.45,1.1a32.75,32.75,0,0,1,1.11,3.74c.28,1.08.56,2.11.76,2.73l.06.2c0,.08,0,.12,0,.12l0,.06s.1.14.15.21a7.1,7.1,0,0,0,.82.93A12.74,12.74,0,0,0,520,298.7a17.24,17.24,0,0,0,6.18.86c.55,0,1.12,0,1.68-.09l.86-.08c.12,0,.35,0,.38-.07a1.28,1.28,0,0,1,.2-.11c.69-.28,1.75-.6,2.81-1a52.85,52.85,0,0,1,7-2c2.56-.43,5.3-.94,8.74.2a28.86,28.86,0,0,1,2.86,1.05,21.68,21.68,0,0,1,3.73,2,29.18,29.18,0,0,1,2.42,1.85,11.14,11.14,0,0,1,2.34,2.85,13,13,0,0,1,1.35,3.37,13.9,13.9,0,0,1,.33,1.78,13.34,13.34,0,0,1,.12,1.72,17.68,17.68,0,0,1-.84,5.58,20.91,20.91,0,0,1-.74,2l-.39.9c-.13.26-.27.52-.41.78a15.71,15.71,0,0,1-3.52,4.55,30.17,30.17,0,0,1-7.47,4.49c-1.24.53-2.48,1-3.71,1.36s-2.45.74-3.65,1.05c-2.27.54-4.83,1.28-7.22,1.88s-4.71,1.29-6.92,2c-1.12.36-2.21.75-3.27,1.18-.54.2-1,.44-1.58.66l-.67.33-.62.32a22,22,0,0,0-4.59,4,26.5,26.5,0,0,1-3.14,2.71,17.6,17.6,0,0,1-4.26,2.23,18.56,18.56,0,0,1-2.29.68l-1.15.26-1.1.17c-.76.12-1.46.17-2.17.23l-1.81.16C495.38,349,491,350,486,350.42c-1.24.12-2.53.21-3.84.27s-2.66,0-4-.07a28.92,28.92,0,0,1-4.47-.57,18.13,18.13,0,0,1-5.89-2.27A15.19,15.19,0,0,1,464.5,345a13.9,13.9,0,0,1-2.42-3.95,14.93,14.93,0,0,1-.65-2.1,18.56,18.56,0,0,1-.31-2c0-.63-.08-1.23-.06-1.87a13.44,13.44,0,0,1,.15-1.84,19,19,0,0,1,1.57-5.27c.56-1.25,1-2.05,1.22-2.51a1.16,1.16,0,0,1,.31-.37,3.8,3.8,0,0,0,.25-.7,7.24,7.24,0,0,0,.25-1.27,2.7,2.7,0,0,0-.11-1,2,2,0,0,0-.58-.92,2.69,2.69,0,0,0-1.15-.56,3.74,3.74,0,0,0-.66-.09c-.1,0-.23,0-.3,0h-.07a3.59,3.59,0,0,0-1.16.49c-.72.39-1.72,1.05-3.11,1.78-.32.18-.73.37-1.08.53l-.75.34-1.51.68c-1,.47-2,1-2.93,1.46a54.16,54.16,0,0,0-5.61,3.23c-.9.57-1.78,1.17-2.63,1.81-.49.44-.64.65-.64.82a3.58,3.58,0,0,0,.07.55c0,.34.07.9.17,1.72a67.59,67.59,0,0,1,.81,7.18c0,.37,0,.79,0,1.2s0,.79-.06,1.29l-.17,1.45c-.09.5-.2,1-.31,1.51a18.13,18.13,0,0,1-2.7,6,25.75,25.75,0,0,1-3.68,4.18c-1.12,1.06-2,1.83-2.74,2.49a5.4,5.4,0,0,0-.48.47,5.3,5.3,0,0,0-.41.42l-.18.2c-.08.08-.1.13-.08.14a.5.5,0,0,1,0,.12c-.05.16-.23.51-.51,1.11a54.43,54.43,0,0,1-3.1,6.31,25,25,0,0,1-3.62,4.66c-.41.38-.83.76-1.26,1.13s-.64.52-1,.78c-.64.49-1.3.94-2,1.38a30.78,30.78,0,0,1-18,4.68,32.66,32.66,0,0,1-4.46-.47c-1.33-.24-2.46-.46-3.45-.66-2-.42-3.26-.59-4-.71a5.14,5.14,0,0,0-.92-.15,2.15,2.15,0,0,0-1.09.49,3.23,3.23,0,0,0-.88,1.12,3.14,3.14,0,0,0-.28,1.29,4.83,4.83,0,0,0,.13.72.59.59,0,0,0,.12.31,2.65,2.65,0,0,1,.11.3,2.5,2.5,0,0,0,.95.89,14.15,14.15,0,0,0,5.09,1.23,28,28,0,0,1,8.13,2c.39.19.79.36,1.18.57l1.18.76a8.84,8.84,0,0,1,1.17.87,11.19,11.19,0,0,1,1.17,1.13,11.59,11.59,0,0,1,2,3.1,13,13,0,0,1,.91,3.34c.14,1,.19,1.79.23,2.46s.08,1.16.13,1.58a2.9,2.9,0,0,0,.23.89l.12.31.18.28a15.76,15.76,0,0,0,2.54,2.74c.68.64,1.5,1.4,2.4,2.28a30.67,30.67,0,0,1,2.93,3.31c.5.61,1,1.42,1.47,2.14a23.3,23.3,0,0,1,1.3,2.54l.56,1.37.39,1.18.38,1.18.3,1.24a26.48,26.48,0,0,1,.23,10.66,30.35,30.35,0,0,1-3.82,9.83,41.49,41.49,0,0,1-5.87,7.41l-.4.4a4,4,0,0,0-.28.3l-.3.36c-.18.24-.34.45-.48.65a5.12,5.12,0,0,0-.53,1c-.11.32-.2.67-.32,1.16s-.28,1.12-.42,1.9l-.1.6-.21,1c-.16.78-.37,1.63-.62,2.51a24,24,0,0,1-2.77,6.17,20.5,20.5,0,0,1-6.14,6.17,21.87,21.87,0,0,1-3.79,1.93c-.65.26-1.22.42-1.84.62s-1.1.28-1.67.41-1.11.25-1.6.32l-1.38.16c-.45,0-.95.12-1.35.12l-1.23,0c-.4,0-.83,0-1.21,0l-1.14-.05a22.26,22.26,0,0,1-2.23-.2,56.25,56.25,0,0,1-8.19-1.67,68.17,68.17,0,0,1-7.84-2.64,44.82,44.82,0,0,1-8.26-4.34l-1.13-.79c-.39-.3-.84-.68-1.25-1a18.54,18.54,0,0,1-2.38-2.39,20.14,20.14,0,0,1-3.43-5.88,22.2,22.2,0,0,1-1.25-5.66,31.32,31.32,0,0,1-.08-4.59l.05-1,.06-.48a7.87,7.87,0,0,0,.07-.94,9.8,9.8,0,0,0-.06-1.73,7.68,7.68,0,0,0-1.26-3.27,15.22,15.22,0,0,0-3.31-3.41,58.79,58.79,0,0,0-10.78-6.23c-2-1-4.17-2-6.34-3.15q-1.62-.85-3.27-1.83c-1.16-.71-2-1.31-3-1.94-3.8-2.5-7.67-4.89-11.66-7.1-8-4.33-16.1-8.6-24.05-13.23s-15.94-9.35-23.63-14.55q-5.78-3.89-11.38-8c-2-1.47-3.49-2.58-5.32-3.83s-3.73-2.51-5.73-3.95a60.51,60.51,0,0,1-6.11-5,35.15,35.15,0,0,1-8-10.85l-.91-2.17-.65-1.63c-.86-2.05-1.43-4.16-2.18-6.17-1.45-4-3-7.94-4.75-11.61a55.7,55.7,0,0,0-5.85-9.85,24,24,0,0,0-3.37-3.6,13.82,13.82,0,0,0-3.44-2.29,10.39,10.39,0,0,0-1.76-.66l-.45-.13-.57-.1a10.79,10.79,0,0,0-1.2-.18,42.48,42.48,0,0,0-5.71-.2c-2.13,0-4.45.17-7,.16a46,46,0,0,1-8-.58,28.52,28.52,0,0,1-8.36-2.76c-.7-.38-1.44-.86-2.14-1.31a6.07,6.07,0,0,1-1-.76l-1-.84a13.32,13.32,0,0,1-1.7-1.83c-.26-.33-.54-.64-.76-1l-.64-1a23.69,23.69,0,0,1-2.95-8.16,44.6,44.6,0,0,1-.69-7.54c-.09-2.4-.06-4.74-.05-7,0-1.11,0-2.21-.07-3.26s-.14-2.16-.25-3.12a13,13,0,0,0-.53-2.6,4.44,4.44,0,0,0-1.2-1.87,6.07,6.07,0,0,0-2-1.16,17.93,17.93,0,0,0-2.69-.74,42.66,42.66,0,0,1-6.32-1.54l-.87-.33a9.15,9.15,0,0,1-1.15-.54,14.81,14.81,0,0,1-2.29-1.51,15.8,15.8,0,0,1-2.67-2.8c-1.44-2-2.52-4.06-3.89-5.84a21.57,21.57,0,0,0-2.23-2.43c-.78-.75-1.57-1.48-2.36-2.18a27.17,27.17,0,0,0-4.82-3.49,10.42,10.42,0,0,0-2.13-.85,2.17,2.17,0,0,0-1,0,.42.42,0,0,1-.15.07,1.72,1.72,0,0,1-.19.17,4.24,4.24,0,0,0-.4.56,2.68,2.68,0,0,0-.23,1.46,5.47,5.47,0,0,0,.6,2,26.31,26.31,0,0,0,1.68,2.45,29,29,0,0,1,3.88,6.61,9.73,9.73,0,0,1,.56,2.36,6.82,6.82,0,0,1-.28,2.92,6.3,6.3,0,0,1-1.68,2.59,8.08,8.08,0,0,1-2.17,1.42,7.91,7.91,0,0,1-2.53.68,6.54,6.54,0,0,1-2.81-.37,8.56,8.56,0,0,1-3.76-3,18.11,18.11,0,0,1-2-3.37,24.06,24.06,0,0,0-1.4-2.75,5.73,5.73,0,0,0-.76-1,3.77,3.77,0,0,0-.83-.66,2.22,2.22,0,0,0-1.65-.31,2.63,2.63,0,0,0-1.38,1.4,12.7,12.7,0,0,0-.59,1.37c-.2.53-.41,1.08-.65,1.65a10.71,10.71,0,0,1-2.09,3.36,8.55,8.55,0,0,1-3.42,2.18c-2.62.88-5.11.45-7.29.28a15.53,15.53,0,0,0-3.19,0,8.58,8.58,0,0,0-1.49.31c-.51.15-1,.34-1.52.54a19.52,19.52,0,0,0-5.51,3.48,13.31,13.31,0,0,0-3.74,5.27,7.46,7.46,0,0,0-.46,3.17,14.85,14.85,0,0,0,.82,3.21c.72,2.1,1.74,4.27,1.63,6.65a6.39,6.39,0,0,1-1.22,3.25A9.46,9.46,0,0,1,79.73,298a7.54,7.54,0,0,1-1.45.95,13.51,13.51,0,0,1-6.73.94,61.57,61.57,0,0,1-6.76-.88A24.91,24.91,0,0,1,58.32,297a14.1,14.1,0,0,1-5.22-4.28Zm.07-.05c.36.43.75.85,1.13,1.26A11.22,11.22,0,0,0,55.55,295a15.26,15.26,0,0,0,2.9,1.69,25.48,25.48,0,0,0,6.45,1.77,60.19,60.19,0,0,0,6.7.6A12.37,12.37,0,0,0,77.79,298a5.78,5.78,0,0,0,2.11-2,5.21,5.21,0,0,0,.89-2.63c0-1.9-.93-3.89-1.78-6.05a16.33,16.33,0,0,1-1-3.55,9,9,0,0,1,.41-3.91,14.68,14.68,0,0,1,4.06-6.17,21.91,21.91,0,0,1,6-4c.56-.25,1.12-.47,1.7-.67a11,11,0,0,1,1.88-.45,17.9,17.9,0,0,1,3.64-.09c2.31.14,4.47.37,6.25-.31a6.17,6.17,0,0,0,2.35-1.56,8.12,8.12,0,0,0,1.47-2.57c.41-1,.66-2,1.22-3.27a5.62,5.62,0,0,1,2.86-2.95,5.12,5.12,0,0,1,4.18.27,6.78,6.78,0,0,1,1.65,1.15,9.34,9.34,0,0,1,1.24,1.45,25.61,25.61,0,0,1,1.74,3.1,16.21,16.21,0,0,0,1.66,2.71,5.22,5.22,0,0,0,2.21,1.74,3.27,3.27,0,0,0,2.56-.24,3.18,3.18,0,0,0,1.81-1.79,4.17,4.17,0,0,0-.29-2.71,24.48,24.48,0,0,0-3.47-5.53,31.15,31.15,0,0,1-2-2.85,9.65,9.65,0,0,1-1.21-3.51,7.18,7.18,0,0,1,.49-3.76,6.47,6.47,0,0,1,2.54-2.9,6,6,0,0,1,3.79-.59,13,13,0,0,1,3.43,1.13,33.12,33.12,0,0,1,5.86,3.73c3.62,2.81,7,5.87,10.45,8.79.86.72,1.7,1.47,2.57,2.14.43.32.88.66,1.29.91s1,.51,1.46.76a66.26,66.26,0,0,1,6.06,3.18,17.79,17.79,0,0,1,5.24,4.58,14.31,14.31,0,0,1,2.36,6.49c.63,4.54.5,9.1.88,13.6a41.57,41.57,0,0,0,1,6.68,18.56,18.56,0,0,0,2.62,6.13,12.13,12.13,0,0,0,5.07,4.2,20.79,20.79,0,0,0,6.5,1.64c4.49.44,9-.23,13.52-.65a48.49,48.49,0,0,1,6.82-.23,20.72,20.72,0,0,1,6.7,1.31A26.44,26.44,0,0,1,219.25,317a59.59,59.59,0,0,1,7.21,11.53,123.9,123.9,0,0,1,5.23,12.55q1.14,3.21,2.22,6.43c.34,1.09.73,2.15,1.14,3.21a26.94,26.94,0,0,0,1.54,3,37.74,37.74,0,0,0,9.25,9.86c7.29,5.41,14.08,11.45,21.37,16.85s14.73,10.58,22.41,15.42,15.5,9.42,23.38,13.9l11.86,6.68a77.37,77.37,0,0,0,12.35,5.65,79.67,79.67,0,0,1,12.37,5.62,24.94,24.94,0,0,1,5.33,4.2,17,17,0,0,1,3.57,5.74c1.72,4.27.43,9.1,2.32,13.33a10,10,0,0,0,1.84,2.84A8,8,0,0,0,363.9,455c.23.17.44.36.68.51l.72.45a30.7,30.7,0,0,0,6.23,2.69,53.55,53.55,0,0,0,6.6,1.66,52.42,52.42,0,0,0,6.74.87,27.89,27.89,0,0,0,6.77-.29,8.19,8.19,0,0,0,5.56-3.58,19.1,19.1,0,0,0,2.26-6.37,22,22,0,0,1,2.48-6.31,21.08,21.08,0,0,1,4.5-5.06,29.48,29.48,0,0,0,4.53-5.06,19.64,19.64,0,0,0,2.82-6.15,17,17,0,0,0,.28-6.74,15.15,15.15,0,0,0-2.32-6.34,67.07,67.07,0,0,0-4.18-5.36,15.79,15.79,0,0,1-3.24-5.91l-.2-.83-.1-.84a10.76,10.76,0,0,1-.08-1.7c0-1.13.12-2.27,0-3.4a5.48,5.48,0,0,0-1.22-3.12,6.14,6.14,0,0,0-1.24-1.15l-.68-.51-.75-.41a24.3,24.3,0,0,0-6.48-2,22,22,0,0,1-6.46-2,8.47,8.47,0,0,1-2.57-2.19,11.42,11.42,0,0,1-.85-1.47,11.79,11.79,0,0,1-.58-1.6,9.35,9.35,0,0,1,5.94-10.9,17.78,17.78,0,0,1,6.73-.63,49.78,49.78,0,0,0,6.8.13,26.7,26.7,0,0,0,12.7-4.43,22.66,22.66,0,0,0,2.68-2.09,14.7,14.7,0,0,0,2.11-2.66c1.22-1.91,2.12-4,3.3-5.94a16,16,0,0,1,2-2.72,22.55,22.55,0,0,1,2.59-2.19A26,26,0,0,0,433.2,347a9.42,9.42,0,0,0,1.57-3,13.56,13.56,0,0,0,.55-3.34c.14-2.27-.07-4.54-.05-6.81a10.1,10.1,0,0,1,1.86-6.4,9.68,9.68,0,0,1,2.56-2.21c1-.59,1.94-1.17,2.93-1.73,3.93-2.26,8-4.22,12.12-6.17,2-1.05,3.8-2.58,6.07-3a10.12,10.12,0,0,1,6.55,1.25,9.51,9.51,0,0,1,4.25,5.13,12,12,0,0,1,.32,6.7c-.54,2.2-1.6,4.27-1.79,6.55a7,7,0,0,0,.5,3.33,5.87,5.87,0,0,0,2.21,2.52,16.62,16.62,0,0,0,6.47,1.92,57.09,57.09,0,0,0,6.79.47c4.53.07,9.06-.22,13.6-.11a21.58,21.58,0,0,0,6.75-.57,16.49,16.49,0,0,0,5.87-3.33,42.05,42.05,0,0,1,5.51-4c2-1.08,4.06-2,6.07-3.07a125.33,125.33,0,0,0,11.82-6.73,65.43,65.43,0,0,0,10.87-8.14,18.09,18.09,0,0,0,2.18-2.6,6.32,6.32,0,0,0,1.2-3.13,3.36,3.36,0,0,0-1.44-2.92,9.23,9.23,0,0,0-3.12-1.3c-4.43-1-9-.89-13.53-1.07-1.14,0-2.27-.09-3.39-.25s-2.23-.43-3.34-.67a49.58,49.58,0,0,1-6.54-1.83,22.81,22.81,0,0,1-6-3.18,9.32,9.32,0,0,1-2.36-2.41,27.09,27.09,0,0,1-1.56-3c-.49-1-1-2-1.52-3a8.55,8.55,0,0,0-2.09-2.64,3,3,0,0,0-1.55-.64,4.91,4.91,0,0,0-.85.05,4.4,4.4,0,0,0-.8.26,5.7,5.7,0,0,0-2.4,2.34c-1.19,1.92-1.85,4.17-3.39,5.87a10.19,10.19,0,0,1-5.88,3.16A16.88,16.88,0,0,1,477.4,296a11.72,11.72,0,0,1-4-5.35,9.6,9.6,0,0,1,.15-6.66,12.51,12.51,0,0,1,4.25-5.2,53.44,53.44,0,0,1,5.72-3.67,36.29,36.29,0,0,0,5.6-3.84,11.33,11.33,0,0,0,1.2-1.2,6.66,6.66,0,0,0,1-1.35,7.24,7.24,0,0,0,1-3.23,5.14,5.14,0,0,0-.84-3.22,4.73,4.73,0,0,0-2.77-1.85c-2.25-.47-4.53.26-6.6,1.12-4.06,2-8.42,3.36-12.47,5.42A16.22,16.22,0,0,0,464.2,271c-1.45,1.79-1.73,4.16-2.67,6.21-1.84,4.11-4.55,8-8.53,10.31a17.45,17.45,0,0,1-6.45,2,45.67,45.67,0,0,0-6.69,1.17,9.24,9.24,0,0,0-1.6.57,16.64,16.64,0,0,0-1.56.67,23.9,23.9,0,0,0-2.9,1.77,40.18,40.18,0,0,0-5.16,4.41c-3.23,3.17-6.27,6.6-10,9.18a20.5,20.5,0,0,1-12.82,3.71,31.06,31.06,0,0,1-6.71-1.05c-1.1-.27-2.18-.64-3.27-.95a15.15,15.15,0,0,0-3.35-.5,36.64,36.64,0,0,0-6.75.76,45.18,45.18,0,0,1-6.77.6,23.13,23.13,0,0,1-6.72-.9,17.45,17.45,0,0,1-6-3.15,14.44,14.44,0,0,1-4.05-5.39,45.61,45.61,0,0,1-2.09-6.47,29.8,29.8,0,0,0-2.38-6.35,15.23,15.23,0,0,0-4.59-4.93,42.55,42.55,0,0,1-5.27-4.29,28.47,28.47,0,0,1-4.08-5.43,19.84,19.84,0,0,1-2.31-6.36,45.27,45.27,0,0,1-.57-6.78,45,45,0,0,0-.46-6.77,27.54,27.54,0,0,0-2.08-6.46c-1.91-4.12-4.62-7.8-7.05-11.62s-4.94-7.74-8.77-10.25c-3.94-2.34-6.31-6.56-10.31-8.8a8.25,8.25,0,0,0-6.57-.66,30.73,30.73,0,0,0-6,3.11,15.21,15.21,0,0,1-6.38,2.21,27.49,27.49,0,0,1-6.78-.26c-2.25-.3-4.48-.73-6.73-1s-4.52-.41-6.78-.51c-4.53-.18-9.07-.11-13.6,0-2.27.08-4.54.13-6.8.27s-4.51.44-6.77.69c-4.49.47-9.05,1-13.56.31a19.85,19.85,0,0,1-6.47-2,23.37,23.37,0,0,1-5.43-4,64.54,64.54,0,0,1-8.23-10.81,45.93,45.93,0,0,1-3.55-5.8c-1-2-1.93-4.11-3.06-6.07a20.7,20.7,0,0,0-1.92-2.8,6.37,6.37,0,0,0-2.65-2,3.23,3.23,0,0,0-1.66-.1,3.3,3.3,0,0,0-.82.21,3.49,3.49,0,0,0-.76.35,7.8,7.8,0,0,0-2.43,2.32,19,19,0,0,0-2.64,6.22,23.64,23.64,0,0,0-.55,3.35,16.59,16.59,0,0,1-.73,3.32,18.28,18.28,0,0,1-3.35,5.88,34.63,34.63,0,0,1-4.84,4.77c-.87.73-1.77,1.43-2.66,2.12a24.06,24.06,0,0,1-2.78,2,18.42,18.42,0,0,1-6.37,2.31,15.5,15.5,0,0,1-6.74-.38,18.34,18.34,0,0,1-6-3.1,23,23,0,0,1-4.71-4.88,18.74,18.74,0,0,1-1.67-3,15.94,15.94,0,0,0-1.59-3,6.14,6.14,0,0,0-2.68-2,7.76,7.76,0,0,0-3.35-.33c-2.25.2-4.49.81-6.77.55a14.73,14.73,0,0,1-6.4-2.13,12.42,12.42,0,0,1-4.61-4.9,12.24,12.24,0,0,1-1.12-3.21,20.29,20.29,0,0,1-.35-3.38c-.08-2.27.09-4.54.08-6.81a20.74,20.74,0,0,0-.93-6.69,21.65,21.65,0,0,1-1.41-6.64,15.4,15.4,0,0,1,1.64-6.55,42.5,42.5,0,0,1,3.54-5.81c1.3-1.86,2.59-3.72,3.71-5.7a33.6,33.6,0,0,0,3.12-6,6.84,6.84,0,0,0,.41-3.31,3.52,3.52,0,0,0-2-2.54c-2-1.11-4.43-.79-6.61-.36s-4.38,1.16-6.54,1.84-4.37,1.22-6.58,1.76c-4.4,1.07-8.81,2.14-13.26,3s-8.81,2.14-13.24,3.12A46.5,46.5,0,0,1,80.54,150c-2.26.18-4.54.22-6.77.56a13.74,13.74,0,0,0-6.26,2.41,12.63,12.63,0,0,0-4,5.36,21.68,21.68,0,0,0-1.4,6.61c-.16,2.26-.1,4.53,0,6.79a67.26,67.26,0,0,1-.05,6.81l-.64,6.77c-.9,9-1.69,18.06-2.66,27.08L55.9,239.42c-.87,9-2.18,18-2.71,27.08-.51,4.53-2.47,8.73-3,13.25a21.3,21.3,0,0,0,.26,6.76,15.18,15.18,0,0,0,2.75,6.14Z"/></svg>