<svg id="Layer_1" data-name="Layer 1" xmlns="http://www.w3.org/2000/svg" viewBox="0 0 600 600"><defs><style>.cls-1{fill:#231f20;}</style></defs><title>vanuatu</title><path class="cls-1" d="M206.16,61.56c-.08-.54-.12-1.09-.22-1.62a8.38,8.38,0,0,0-2.31-4.14,18.27,18.27,0,0,0-2.46-2.08,14.45,14.45,0,0,0-2.59-1.62,2.71,2.71,0,0,0-1.05-.26.71.71,0,0,0-.47.2,1.16,1.16,0,0,0-.21.38,3,3,0,0,0-.26.86,7.35,7.35,0,0,0-.13,1.2c0,.48,0,1,0,1.47,0,1,.09,2,.19,3,.19,2.06.51,4.21.89,6.39a60.45,60.45,0,0,0,1.39,6.47,47.51,47.51,0,0,0,5.32,12A40.56,40.56,0,0,0,208,88.94c.32.4.69.72,1,1.09a10.51,10.51,0,0,0,1,.91,7.73,7.73,0,0,0,1,.67l.46.19c.15,0,.28,0,.41.08a1.8,1.8,0,0,0,1.35-.45,7.23,7.23,0,0,0,1.6-1.71,2.92,2.92,0,0,0,.49-1.61A5.94,5.94,0,0,0,214.9,86a33.42,33.42,0,0,0-2.9-5.25,63.72,63.72,0,0,1-3.33-5.81,25.66,25.66,0,0,1-2.33-6.62C206,66,206.31,63.74,206.16,61.56Zm.49,0c.17,2.21.18,4.49,1,6.43a13.15,13.15,0,0,0,1.66,2.67A28.21,28.21,0,0,0,211.4,73c1.48,1.56,3.07,3.08,4.53,4.86.74.91,1.4,1.79,2.08,2.78a18.5,18.5,0,0,1,1.84,3.3,10.11,10.11,0,0,1,.86,4.31A7.71,7.71,0,0,1,219,92.84a11.68,11.68,0,0,1-3.15,2.85c-.17.1-.33.21-.51.3l-.59.23a5,5,0,0,1-1.24.36,6.41,6.41,0,0,1-2.62-.07,8.1,8.1,0,0,1-3.83-2.25,14.51,14.51,0,0,1-2.36-2.94,34.2,34.2,0,0,1-3-6.3c-1.56-4.27-2.83-8.51-4.39-12.67-.77-2.09-1.63-4.16-2.51-6.19a42.64,42.64,0,0,1-2.35-6.46,19.89,19.89,0,0,1-.55-3.55,16.26,16.26,0,0,1,0-1.85,9.7,9.7,0,0,1,.31-2.08,6.64,6.64,0,0,1,1-2.17,4.7,4.7,0,0,1,2.28-1.72,4.44,4.44,0,0,1,2.79,0,6.29,6.29,0,0,1,1.95,1.12,15.47,15.47,0,0,1,2.39,2.73A31.27,31.27,0,0,1,204.64,55a13.43,13.43,0,0,1,2,6.48Z"/><path class="cls-1" d="M320.45,117a11.32,11.32,0,0,0-3.2-4.38,10,10,0,0,0-5-1.88c-1.82-.31-3.69-.47-5.63-.91a18.39,18.39,0,0,1-2.84-.9,24.73,24.73,0,0,1-2.7-1.17,85.16,85.16,0,0,1-9.56-6.06,24,24,0,0,0-4.46-2.45l-.57-.24c-.19-.07-.38-.12-.58-.18-.39-.11-.76-.27-1.16-.36a14.76,14.76,0,0,0-2.41-.38,20.86,20.86,0,0,0-5.09.2,12,12,0,0,0-4.67,1.6,5.46,5.46,0,0,0-2.68,3.63,6.65,6.65,0,0,0,1.15,4.7,10.14,10.14,0,0,0,3.87,3.4,39.7,39.7,0,0,0,5.26,1.51A26.64,26.64,0,0,1,283,114a10.23,10.23,0,0,1,2.76,1.39,5,5,0,0,1,2,3,6,6,0,0,1-.45,3.5,10.06,10.06,0,0,1-1.8,2.72c-.67.77-1.36,1.43-1.94,2.08a11.36,11.36,0,0,0-2.4,4.13,11.54,11.54,0,0,0-.53,4.65,10,10,0,0,0,.45,2.25,16,16,0,0,0,.94,2.17c1.45,2.77,4.09,4.65,6.64,4.56a7.07,7.07,0,0,0,3.75-1.3c.1-.05.43-.28.66-.43s.51-.29.76-.44a17.12,17.12,0,0,1,1.58-.72,16.66,16.66,0,0,1,3.22-.85c4.26-.67,8.13,0,11.57,0a19.57,19.57,0,0,0,4.89-.44,8.7,8.7,0,0,0,2-.83,5.43,5.43,0,0,0,1.52-1.51,16.6,16.6,0,0,0,2.25-4.65,24.46,24.46,0,0,0,1.09-5.34A22.37,22.37,0,0,0,320.45,117Zm.46-.2a32.33,32.33,0,0,1,2.31,11.1c.1,3.81-.06,7.75-1.82,11.62a9.37,9.37,0,0,1-2,2.8,10.68,10.68,0,0,1-2.93,1.84,19.29,19.29,0,0,1-6.16,1.31c-2,.14-3.94.06-5.73.07a28.44,28.44,0,0,0-5.09.36,11.89,11.89,0,0,0-2.19.6,7.75,7.75,0,0,0-1,.44c-.15.09-.31.16-.45.26l-.52.33a11.81,11.81,0,0,1-6.78,2.06,11.28,11.28,0,0,1-6.67-2.41,14.26,14.26,0,0,1-4.15-5.23,19.44,19.44,0,0,1-1.12-3,13,13,0,0,1-.47-3.27,14.8,14.8,0,0,1,1.21-6.35,14.06,14.06,0,0,1,3.76-5.13c1.53-1.31,2.93-2.26,3.66-3.55a3.41,3.41,0,0,0,.53-1.93,2.59,2.59,0,0,0-.93-1.68,13,13,0,0,0-4.67-2.24,56.34,56.34,0,0,1-5.45-1.77,13.12,13.12,0,0,1-4.55-3.85,8.78,8.78,0,0,1-1.85-5.85,7.1,7.1,0,0,1,1-3.15,9.83,9.83,0,0,1,2.1-2.47,14.89,14.89,0,0,1,5.54-2.83,21.58,21.58,0,0,1,6-.9A19.14,19.14,0,0,1,294,98.06c3.21,2.31,5.76,4.9,8.69,7,.73.5,1.45,1,2.23,1.48a15.92,15.92,0,0,0,2.34,1.24c1.63.7,3.45,1.18,5.27,1.75.9.29,1.8.6,2.7,1a9.35,9.35,0,0,1,2.44,1.62A13.8,13.8,0,0,1,320.91,116.81Z"/><path class="cls-1" d="M291.8,168.32a6.63,6.63,0,0,0-4.08,2.41,11.07,11.07,0,0,0-2,4.23c-.38,1.47-.71,3.11-1.09,4.6s-.74,3-1,4.49a13.61,13.61,0,0,0-.39,4.37,4.89,4.89,0,0,0,2.09,3.6,7.52,7.52,0,0,0,4.42,1.15,15.89,15.89,0,0,0,4.66-1,17.45,17.45,0,0,0,4-2.14,9.06,9.06,0,0,0,2.68-2.92,11.3,11.3,0,0,0,1.29-3.85,18.21,18.21,0,0,0,.2-2.1l0-1.13V178.8a19.21,19.21,0,0,0-.35-4.23,6.24,6.24,0,0,0-1.56-3.23,11.36,11.36,0,0,0-4.07-2.26A9.69,9.69,0,0,0,291.8,168.32Zm-.08-.49a24.06,24.06,0,0,1,5.16-.07,16.42,16.42,0,0,1,5.48.72,7.77,7.77,0,0,1,2.71,1.81,9.19,9.19,0,0,1,1.76,2.72,17,17,0,0,1,1.1,5.68c0,.45,0,.9,0,1.34v.65l0,.72a15.67,15.67,0,0,1-.44,2.88,15.09,15.09,0,0,1-2.48,5.41,11.68,11.68,0,0,1-4.65,3.8A17.34,17.34,0,0,1,295,194.8a33.61,33.61,0,0,1-5.31,0,13.45,13.45,0,0,1-5.18-1.45,6.77,6.77,0,0,1-1.18-.76l-.58-.44c-.18-.17-.34-.35-.51-.52a9.33,9.33,0,0,1-1.64-2.44,13.29,13.29,0,0,1-1.13-5.59,17,17,0,0,1,.95-5.35,18.37,18.37,0,0,1,2.5-4.78,15.33,15.33,0,0,1,4-3.74A12.72,12.72,0,0,1,291.72,167.83Z"/><path class="cls-1" d="M348.84,196.36a1.8,1.8,0,0,0-.88,1,2.07,2.07,0,0,0,0,1.23c.22.72.42,1.05.59,1.7a2.73,2.73,0,0,0,1.32,1.86,2.05,2.05,0,0,0,2.27-.36,1.65,1.65,0,0,0,.43-.81,3.19,3.19,0,0,0,.05-.77,5.08,5.08,0,0,0-.42-1.81,3.56,3.56,0,0,0-.35-.67,5.32,5.32,0,0,0-.61-.8,2.53,2.53,0,0,0-1.08-.68A1.83,1.83,0,0,0,348.84,196.36Zm-.14-.26c.43-.23.86-.46,1.36-.67a5.07,5.07,0,0,1,1.69-.44,3.23,3.23,0,0,1,1.88.44,4.14,4.14,0,0,1,1.4,1.48,5.1,5.1,0,0,1,.39,3.64,3.68,3.68,0,0,1-.92,1.82,3.28,3.28,0,0,1-1.73.91,9.07,9.07,0,0,1-3.21-.22,5.63,5.63,0,0,1-3.1-1.39,3,3,0,0,1-.81-1.73,2.71,2.71,0,0,1,.45-1.89,4,4,0,0,1,1.29-1.21C347.84,196.55,348.28,196.33,348.7,196.1Z"/><path class="cls-1" d="M360.89,254.85c-.31-1.33-.59-2.66-.93-4a22.23,22.23,0,0,0-1.44-3.79,15.33,15.33,0,0,0-5.06-6,3.73,3.73,0,0,0-3.21-.62,4.39,4.39,0,0,0-1.94,2.63,27.33,27.33,0,0,0-1.19,7.71c-.05,1.31-.08,2.71-.06,4s.12,2.6.27,3.89a34.29,34.29,0,0,0,1.76,7.47,31.5,31.5,0,0,0,3.46,6.82,68.65,68.65,0,0,1,4.38,7.2,22.25,22.25,0,0,1,2.2,8.62,40.76,40.76,0,0,1-.56,8.53c-.44,2.77-1,5.45-1.5,8.14s-1,5.4-1.43,8.1q-1.33,8.12-2.41,16.27a38.27,38.27,0,0,0-.51,8,12,12,0,0,0,2.43,6.94c1.56,1.91,3.79,3.39,6,5.3l.41.37a4.52,4.52,0,0,1,.44.44,6,6,0,0,1,.87,1.19,9.31,9.31,0,0,1,.86,2.4,25.82,25.82,0,0,0,.85,3.69,2,2,0,0,0,.6.85,1,1,0,0,0,.49.21,3.69,3.69,0,0,0,1.66-1.4,12.58,12.58,0,0,0,1.66-3,10,10,0,0,0,.57-3.26,26.6,26.6,0,0,0-1.2-7.39c-.68-2.55-1.55-5-2.49-7.6s-1.91-5.16-2.72-7.89a43.19,43.19,0,0,1-1.78-8.53,34.51,34.51,0,0,1,.43-8.83c.45-2.84,1.1-5.54,1.71-8.17.29-1.31.58-2.61.79-3.9.11-.64.23-1.28.31-1.92s.16-1.28.21-1.91a30.3,30.3,0,0,0,0-3.81c-.09-1.33-.25-2.71-.37-4.07-.55-5.44-1-10.9-1.62-16.35-.3-2.74-.61-5.48-.85-8.21S361.35,257.54,360.89,254.85Zm.49-.09c.55,2.69.92,5.42,1.33,8.13s.85,5.41,1.47,8.07c1.1,5.38,2.35,10.74,3.52,16.12.3,1.36.61,2.67.88,4.06a26,26,0,0,1,.41,4.4c0,.73,0,1.46,0,2.18s-.09,1.45-.15,2.16c-.16,1.43-.38,2.82-.61,4.21-.45,2.75-1,5.39-1.36,8a30,30,0,0,0-.2,7.55c.49,5,2.37,10,4.13,15.22.88,2.61,1.75,5.33,2.41,8.09a31.08,31.08,0,0,1,1.07,8.83,14.56,14.56,0,0,1-1,4.77,15.73,15.73,0,0,1-2.49,4.08,9.63,9.63,0,0,1-1.94,1.79,5.5,5.5,0,0,1-3.15,1,5,5,0,0,1-3.22-1.34,6.12,6.12,0,0,1-1.62-2.56,25.84,25.84,0,0,1-.77-4.36,6.31,6.31,0,0,0-.37-1.5,2.21,2.21,0,0,0-.3-.5,2.08,2.08,0,0,0-.25-.31l-.33-.35c-1.78-1.87-4.07-3.63-5.81-6.14a12.81,12.81,0,0,1-1.88-4.14,17.13,17.13,0,0,1-.5-4.36,31.22,31.22,0,0,1,.34-4.24c.17-1.38.41-2.75.64-4.1q1.38-8.1,2.48-16.25c.68-5.42,1.42-10.92,1.8-16.3s-.09-10.66-2.59-14.94c-1.21-2.21-2.88-4.31-4.42-6.67a42.44,42.44,0,0,1-2.23-3.74,29.48,29.48,0,0,1-1.69-4.08,35.53,35.53,0,0,1-.95-17.12,29.17,29.17,0,0,1,2.36-8.28,8.79,8.79,0,0,1,1.29-1.93,4.53,4.53,0,0,1,2.1-1.41,5.18,5.18,0,0,1,4.5,1.17,17.59,17.59,0,0,1,4.94,6.8,27.29,27.29,0,0,1,1.34,3.94Z"/><path class="cls-1" d="M363,372.86a11.07,11.07,0,0,0-3.6-5c-1.67-1.23-3.53-.35-3.49.87a17,17,0,0,1-.71,3.28,6.05,6.05,0,0,1-.58,1.06c-.17.25-.34.5-.52.74a14.67,14.67,0,0,1-1.23,1.4,11.39,11.39,0,0,1-3.14,2.21,10.64,10.64,0,0,1-3.74,1c-2.38.17-4.41-.14-6,.3a3.2,3.2,0,0,0-1.91,1.36,3.92,3.92,0,0,0-.5,2.58,7.11,7.11,0,0,0,3.2,4.72,22.8,22.8,0,0,0,2.65,1.66c.92.51,1.87,1,2.82,1.39a45,45,0,0,0,5.81,2.09,33.66,33.66,0,0,0,5.84,1.2,24.23,24.23,0,0,0,5.78-.07,13.16,13.16,0,0,0,4.89-1.57,3.43,3.43,0,0,0,1.89-3,3,3,0,0,0-.41-1.72,13.07,13.07,0,0,0-1.83-2.17,12.1,12.1,0,0,1-2.2-2.9,17.39,17.39,0,0,1-1.16-3.25A60,60,0,0,0,363,372.86Zm.46-.19a51.76,51.76,0,0,0,2.61,5.87,10.61,10.61,0,0,0,1.79,2.45,9.65,9.65,0,0,0,2.36,1.59,13.56,13.56,0,0,1,3,2,6.65,6.65,0,0,1,1.35,1.85,7.71,7.71,0,0,1,.67,2.25,7.83,7.83,0,0,1-.8,4.51,8.52,8.52,0,0,1-3,3.31,15.1,15.1,0,0,1-7.24,2.29,26.6,26.6,0,0,1-7-.46,27.58,27.58,0,0,1-6.55-2.12,35.09,35.09,0,0,1-5.76-3.47c-1.8-1.31-3.48-2.64-5.18-4.11a15.87,15.87,0,0,1-2.3-2.53A8.6,8.6,0,0,1,336,382.9a6.77,6.77,0,0,1,.24-3.71,5.89,5.89,0,0,1,2.62-3c2.34-1.31,4.73-1.43,6.56-1.92a10.27,10.27,0,0,0,4.5-2.32c.34-.29.68-.6,1-.93l.49-.5a1.93,1.93,0,0,0,.27-.3c.39-.51.72-1.55,1.38-2.79a4.45,4.45,0,0,1,1.62-1.7,4,4,0,0,1,2.17-.54,4.3,4.3,0,0,1,1.07.14,4.58,4.58,0,0,1,.93.4,5.64,5.64,0,0,1,1.45,1.17A21,21,0,0,1,363.49,372.67Z"/><path class="cls-1" d="M377.94,406.8a3.93,3.93,0,0,0-2.72-.79,13.87,13.87,0,0,1-3.23.16,9.62,9.62,0,0,1-3.07-1.11,24.21,24.21,0,0,0-2.35-1.21,2.81,2.81,0,0,0-2.1-.17,1.79,1.79,0,0,0-1.16,1.85,2.71,2.71,0,0,0,1.4,2.08,6.4,6.4,0,0,0,2.66.79,30.41,30.41,0,0,1,3.07.37,7.89,7.89,0,0,1,1.65.53,7.1,7.1,0,0,1,.81.44l.63.46a9.53,9.53,0,0,0,2.33,1.39,20.17,20.17,0,0,0,2.52.85q.31.09.63.15a3,3,0,0,0,.44.07,1.86,1.86,0,0,0,.7-.09,1,1,0,0,0,.5-.34,2,2,0,0,0,.17-.32,1.11,1.11,0,0,0,.07-.47,5,5,0,0,0-.9-2.53A7.23,7.23,0,0,0,377.94,406.8Zm.17-.25c.85.56,1.67,1.16,2.49,1.81a7.65,7.65,0,0,1,2.21,2.55,3.26,3.26,0,0,1,.29,1,3.22,3.22,0,0,1-.07,1.16,4,4,0,0,1-.47,1.09,3.59,3.59,0,0,1-.87.87,4.1,4.1,0,0,1-2.16.72,5.1,5.1,0,0,1-1,0l-.84-.15a12.5,12.5,0,0,1-3.13-1.14,11.46,11.46,0,0,1-1.47-.91,13.67,13.67,0,0,1-1.19-1l-.53-.5c-.15-.11-.3-.23-.47-.34a8.51,8.51,0,0,0-1.13-.58c-.83-.36-1.78-.7-2.76-1.08a11.41,11.41,0,0,1-2.84-1.55,4.53,4.53,0,0,1-1.77-2.8,3.59,3.59,0,0,1,1.19-3.34,4.09,4.09,0,0,1,1.76-.86,4,4,0,0,1,1-.09,4.77,4.77,0,0,1,.94.08,8.3,8.3,0,0,1,3.07,1.34c.85.55,1.54,1.14,2.29,1.57a9.24,9.24,0,0,0,2.72.91A7.84,7.84,0,0,1,378.11,406.55Z"/><path class="cls-1" d="M385.39,434.21c-4.6-.19-8.59-3.37-11.76-6.51-1.61-1.61-3-3.09-4.53-4.54a50.75,50.75,0,0,0-4.53-4c-.4-.29-.79-.6-1.1-.79a4.78,4.78,0,0,0-1-.47,2.71,2.71,0,0,0-2.13.14,6.63,6.63,0,0,0-2.18,1.81,9.78,9.78,0,0,0-1.56,2.62,10.54,10.54,0,0,0-.36,6.12,14.58,14.58,0,0,0,2.21,5.75,7.55,7.55,0,0,0,2.08,1.82,18.41,18.41,0,0,0,2.6,1.36,15.05,15.05,0,0,0,5.52,1.2,14.41,14.41,0,0,0,2.79-.25c.21,0,.49-.09.65-.14a4.94,4.94,0,0,0,.55-.18c.41-.14.89-.34,1.44-.56a12.56,12.56,0,0,1,1.93-.62,7.24,7.24,0,0,1,2.61-.09,8,8,0,0,1,4.22,2.29c.93.94,1.62,1.76,2.21,2.36a7,7,0,0,0,.81.68,2.43,2.43,0,0,0,.68.31,3.39,3.39,0,0,0,3.49-1.32,8.4,8.4,0,0,0,1.1-2.63,6.22,6.22,0,0,0,.16-1.41,2.8,2.8,0,0,0-.32-1.29,2.76,2.76,0,0,0-2.27-1.54A29.28,29.28,0,0,0,385.39,434.21Zm0-.5c1.08,0,2.16-.15,3.32-.14a4.74,4.74,0,0,1,1.78.35,4.06,4.06,0,0,1,1.54,1.15,5.29,5.29,0,0,1,.56.79,4.42,4.42,0,0,1,.4.93,8.26,8.26,0,0,1,.37,1.87,11.2,11.2,0,0,1-.32,3.79,9.77,9.77,0,0,1-.37,1,8.19,8.19,0,0,1-.61,1,6.92,6.92,0,0,1-1.65,1.59,7,7,0,0,1-4.53,1.23,6.8,6.8,0,0,1-2.44-.7,9.88,9.88,0,0,1-1.86-1.25c-1-.87-1.78-1.74-2.45-2.31a3.2,3.2,0,0,0-1.44-.9,4.29,4.29,0,0,0-1.9.34c-.48.15-1,.34-1.68.53a8.88,8.88,0,0,1-1,.24,9.62,9.62,0,0,1-1,.14,17.78,17.78,0,0,1-3.79,0,16.61,16.61,0,0,1-7.09-2.36,15.28,15.28,0,0,1-2.89-2.28,14.44,14.44,0,0,1-1.26-1.39,9,9,0,0,1-1-1.69,22.77,22.77,0,0,1-1.51-6.84,16.9,16.9,0,0,1,.51-6.92,16,16,0,0,1,1.38-3.25,10.18,10.18,0,0,1,2.34-2.95,5.77,5.77,0,0,1,4.14-1.36,9,9,0,0,1,3.9,1.25,21.09,21.09,0,0,1,5.51,4.49,24.65,24.65,0,0,1,2.12,2.76c.64,1,1.18,1.95,1.72,2.9a23.35,23.35,0,0,0,3.6,5.3A8.36,8.36,0,0,0,385.4,433.71Z"/><path class="cls-1" d="M394.34,452.13a5.15,5.15,0,0,0,2,1.9c.81.48,1.71.84,2.6,1.42a6.51,6.51,0,0,1,1.26,1.06,4.19,4.19,0,0,1,.93,1.64,8.49,8.49,0,0,1,.26,1.54,5.47,5.47,0,0,0,.18,1,2.64,2.64,0,0,0,1.3,1.46,2.21,2.21,0,0,0,1.08.22,2.23,2.23,0,0,0,1.1-.42,3.32,3.32,0,0,0,1.25-2.14,4,4,0,0,0-.38-2.48,18.07,18.07,0,0,0-1.34-2.32c-.49-.76-1-1.51-1.53-2.23a23.36,23.36,0,0,0-3.49-3.78,4.67,4.67,0,0,0-1.81-.87,4.34,4.34,0,0,0-2.09,0,2.25,2.25,0,0,0-1.67,1.46A3.3,3.3,0,0,0,394.34,452.13Zm-.27.15a6.37,6.37,0,0,1-.89-2.87,4,4,0,0,1,1.46-3.06,5.16,5.16,0,0,1,3.4-1.14,6.47,6.47,0,0,1,3.43,1.19,11.34,11.34,0,0,1,2.27,2.27,21.76,21.76,0,0,1,1.68,2.53,15.43,15.43,0,0,1,2.09,5.67,8.46,8.46,0,0,1,.08,1.6,6.75,6.75,0,0,1-.3,1.55,5.91,5.91,0,0,1-1.63,2.66,4.23,4.23,0,0,1-1.42.85,4,4,0,0,1-1.76.2,4.25,4.25,0,0,1-3.11-1.89,4.77,4.77,0,0,1-.63-1.75c-.09-.54-.13-.95-.19-1.28a3.12,3.12,0,0,0-.3-.91,8.74,8.74,0,0,0-.63-1.07C396.63,455.33,395.05,453.94,394.07,452.28Z"/><path class="cls-1" d="M375.41,464a4.25,4.25,0,0,0-2.65,2.77,2,2,0,0,0,.24,1.64,2.36,2.36,0,0,0,1.26.91,30.37,30.37,0,0,0,3.86.62,6.3,6.3,0,0,1,2.38,1,4.87,4.87,0,0,1,1.64,2.2,8.66,8.66,0,0,1,.2,4.65,16.48,16.48,0,0,0-.29,4.06,7,7,0,0,0,1.42,3.63,2.74,2.74,0,0,0,1.31,1.1,1.72,1.72,0,0,0,.71,0,1.13,1.13,0,0,0,.56-.33,5.35,5.35,0,0,0,.88-3.24c0-.63,0-1.28,0-1.92l-.15-2.06-.27-4.16a5.82,5.82,0,0,0-.95-3.2,13.93,13.93,0,0,1-1-2.05,5.92,5.92,0,0,1-.36-1.3c-.07-.42-.08-.77-.12-1.11a8.7,8.7,0,0,0-.22-1.68,1.91,1.91,0,0,0-.76-1.09,6.35,6.35,0,0,0-3.6-1A11.21,11.21,0,0,0,375.41,464Zm-.1-.28a29.32,29.32,0,0,1,4.08-1.15,8.6,8.6,0,0,1,4.58.06,4,4,0,0,1,2.14,1.79,7.78,7.78,0,0,1,.81,2.34c.07.35.14.7.2,1a3.69,3.69,0,0,0,.26.69,18.41,18.41,0,0,0,.94,1.62,9.7,9.7,0,0,1,1,2.26,9.17,9.17,0,0,1,.27,2.45l0,4.18,0,2.12a13.13,13.13,0,0,1-.25,2.24,10,10,0,0,1-.68,2.23,4.68,4.68,0,0,1-1.61,2,2.64,2.64,0,0,1-1.35.44,2.49,2.49,0,0,1-.67,0,1.89,1.89,0,0,1-.67-.17,4.2,4.2,0,0,1-1.7-1.7,10.67,10.67,0,0,1-1.55-4.09,41.86,41.86,0,0,1-.4-4.27,8.23,8.23,0,0,0-.82-3.55,3.33,3.33,0,0,0-2.38-1.63c-.59-.17-1.25-.3-2-.52a7.57,7.57,0,0,1-2.18-1,3.89,3.89,0,0,1-1.55-2.07,3.35,3.35,0,0,1,.26-2.43A6.18,6.18,0,0,1,375.31,463.71Z"/><path class="cls-1" d="M343.45,281.4a1.79,1.79,0,0,0-.76-1.09,2.06,2.06,0,0,0-1.33-.24,8,8,0,0,0-2.83.9c-.91.44-1.78,1-2.68,1.54l-.7.42c-.24.14-.54.29-.75.4L333,284a52,52,0,0,1-11.65,4.29c-2,.47-3.94.91-5.86,1.51a15.66,15.66,0,0,0-5.26,2.67,7.47,7.47,0,0,0-2.73,4.86,3.82,3.82,0,0,0,.41,2.45,3.78,3.78,0,0,0,1.87,1.43c1.66.71,3.74,1,5.87,1.85a19.58,19.58,0,0,0,5.33,1.34,8.86,8.86,0,0,0,4.73-.88,16.72,16.72,0,0,0,4.17-3.09c.68-.65,1.3-1.34,2-2.07s1.42-1.55,2.14-2.29c1.44-1.48,2.93-2.83,4.35-4.26a21.51,21.51,0,0,0,3.73-4.71,12.2,12.2,0,0,0,1.14-2.8A5.73,5.73,0,0,0,343.45,281.4Zm.48-.13a7.89,7.89,0,0,1,0,3.21,26.48,26.48,0,0,1-.6,3.15,31.29,31.29,0,0,1-2.27,6.14,37.43,37.43,0,0,1-3.37,5.47c-.62.84-1.25,1.65-1.87,2.46a31.46,31.46,0,0,1-2.17,2.54,17,17,0,0,1-5.86,4.11,13.31,13.31,0,0,1-3.7.93,11.93,11.93,0,0,1-1.89,0,13.66,13.66,0,0,1-1.83-.19,19.44,19.44,0,0,1-6.46-2.41c-.81-.48-1.69-.92-2.62-1.42a22.59,22.59,0,0,1-2.9-1.69,5.77,5.77,0,0,1-2.57-6.54,11.73,11.73,0,0,1,3.3-5.74,30.45,30.45,0,0,1,5.19-4,39.38,39.38,0,0,1,5.72-3A51.17,51.17,0,0,1,332,281l1.56-.24.71-.12.74-.16c1-.24,2.06-.5,3.1-.72a13.92,13.92,0,0,1,3.23-.38,2.91,2.91,0,0,1,1.64.47,2.16,2.16,0,0,1,.61.63A2.82,2.82,0,0,1,343.93,281.27Z"/><path class="cls-1" d="M388.06,519.33c-2.1-2.5-3.49-5.41-5.11-8.12-.41-.68-.83-1.35-1.27-2s-.95-1.24-1.45-1.83a17.26,17.26,0,0,0-3.34-3.08,4.1,4.1,0,0,0-3.44-.89.79.79,0,0,0-.56.7,5.48,5.48,0,0,0,.27,1.78,5,5,0,0,1-.35,3.24,7.93,7.93,0,0,1-1.78,2.32,36.42,36.42,0,0,1-4,3,84.54,84.54,0,0,0-7.62,5.49,21.67,21.67,0,0,0-3.17,3.26,9.12,9.12,0,0,0-1.8,3.87,5.66,5.66,0,0,0,.8,3.91,7.08,7.08,0,0,0,3,2.7,8.43,8.43,0,0,0,1.92.62,6.64,6.64,0,0,0,1.94,0,5.78,5.78,0,0,0,1.78-.57c.61-.31,1.29-.72,2.12-1.12a9.5,9.5,0,0,1,1.4-.54,6.34,6.34,0,0,1,1.76-.24,5.36,5.36,0,0,1,3.74,1.42,4.55,4.55,0,0,1,1.24,2.18,5.65,5.65,0,0,1,.05,2.27,21.2,21.2,0,0,1-.86,2.71,4.57,4.57,0,0,0,.11,2.83,4.34,4.34,0,0,0,1.6,2.16,6.71,6.71,0,0,0,2.8.86,17.45,17.45,0,0,0,3.81,0,27.18,27.18,0,0,0,7.91-2.33,26.18,26.18,0,0,0,6.74-4.23,10.14,10.14,0,0,0,2.09-2.74,5.55,5.55,0,0,0,.5-3.23,10.31,10.31,0,0,0-1.48-3.78,24.37,24.37,0,0,0-2.77-3.67C392.65,523.85,390.18,521.78,388.06,519.33Zm.52-.47a57.84,57.84,0,0,0,7.49,5.88,41.08,41.08,0,0,1,3.87,3.15,14.28,14.28,0,0,1,3.28,4.41,10.06,10.06,0,0,1,.74,6.15,12.45,12.45,0,0,1-1,3,15.94,15.94,0,0,1-1.54,2.56,22.17,22.17,0,0,1-8.63,6.81,31.72,31.72,0,0,1-10.38,2.76,20.81,20.81,0,0,1-5.7-.24,12.49,12.49,0,0,1-5.9-2.75,10.65,10.65,0,0,1-3.46-9.13,9.46,9.46,0,0,1,.95-3.19c.44-.83.79-1.42.91-1.71s.16,0,.29,0-.17-.29-.56-.36a2,2,0,0,0-.61,0,4.82,4.82,0,0,0-.88.17c-.65.17-1.39.47-2.26.74a10.26,10.26,0,0,1-11.84-5,8.2,8.2,0,0,1-.85-5.3,11.81,11.81,0,0,1,2.12-4.72,27.45,27.45,0,0,1,3.28-3.75,76.61,76.61,0,0,1,7.46-6.16c1.26-.94,2.56-1.9,3.6-2.83a4.8,4.8,0,0,0,1.12-1.42,2.12,2.12,0,0,0,.21-1.41,7.34,7.34,0,0,1-.14-2.93,3.48,3.48,0,0,1,2.58-2.55,4.67,4.67,0,0,1,3.07.3,8,8,0,0,1,2.27,1.48,26.15,26.15,0,0,1,5.58,8.05C385.09,513.65,386.42,516.58,388.58,518.86Z"/><path class="cls-1" d="M391.31,506.64a2.22,2.22,0,0,0-1.83,1.2,4,4,0,0,0-.5,2,2.59,2.59,0,0,0,4.66,1.56,2.7,2.7,0,0,0,.42-1.89,3.84,3.84,0,0,0-.78-1.9A2.27,2.27,0,0,0,391.31,506.64Zm0-.1a3.85,3.85,0,0,1,2.42.57,3.18,3.18,0,0,1,1.4,2.26,3.29,3.29,0,0,1-.75,2.61,2.73,2.73,0,0,1-1.13.8,3.57,3.57,0,0,1-1.32.18,4.5,4.5,0,0,1-2.33-.91,3.59,3.59,0,0,1-1.44-2.12,2.68,2.68,0,0,1,.84-2.48A3.66,3.66,0,0,1,391.3,506.54Z"/><path class="cls-1" d="M295.76,369.68c-4-3.58-8.1-7-12.08-10.65-2-1.82-3.95-3.68-5.86-5.61a38.29,38.29,0,0,0-5.71-5.23,10.16,10.16,0,0,0-3.09-1.45,7.92,7.92,0,0,0-3.17-.12,4.57,4.57,0,0,0-2.45,1.19,3.17,3.17,0,0,0-.95,2.18c-.1,1,.07,2.29,0,3.83,0,.42,0,.77-.06,1.11l-.09,1c-.06.7-.14,1.4-.23,2.1a26.41,26.41,0,0,1-.88,4.22c-.4,1.42-1,2.75-1.38,3.88a8.23,8.23,0,0,0-.63,3.13,5.16,5.16,0,0,0,.95,2.77,7.48,7.48,0,0,0,5.6,3.12,10.77,10.77,0,0,0,3.57-.35,7.7,7.7,0,0,0,1.62-.64,10.14,10.14,0,0,0,1.51-1.05,15,15,0,0,1,1.78-1.25,5.27,5.27,0,0,1,2.34-.68,3,3,0,0,1,2.51,1,5.16,5.16,0,0,1,.85,2.25c.45,2.84.07,5.55,0,8.18s.22,5.33.39,8l.23,4,.15,2c0,.32.05.69.08,1a6.17,6.17,0,0,0,.15.84,22.24,22.24,0,0,0,1.54,3.5,9.05,9.05,0,0,1,.7,2.19,13.11,13.11,0,0,1,.19,2.24c0,3-.74,5.63-.74,8a7.71,7.71,0,0,0,.57,3.2,3.51,3.51,0,0,0,1.77,1.9c1.67.81,4.18.8,6.57.39a10.29,10.29,0,0,0,3.15-1,7.44,7.44,0,0,0,2.4-1.88,6.15,6.15,0,0,0,1.23-2.65c.28-1.1.44-2.42.77-3.88a13.81,13.81,0,0,1,.73-2.34,7.91,7.91,0,0,1,1.64-2.48,6.72,6.72,0,0,1,6-1.79,10.37,10.37,0,0,1,4.76,2.4,14.73,14.73,0,0,1,1.71,1.74c.48.57.9,1.12,1.31,1.64a15.78,15.78,0,0,0,2.3,2.52,4.46,4.46,0,0,0,1.09.67,3.91,3.91,0,0,0,1.07.27,4.59,4.59,0,0,0,2.44-.53,6.34,6.34,0,0,0,2.14-1.82,5.69,5.69,0,0,0,.68-1.19,6.67,6.67,0,0,0,.42-1.44,9.89,9.89,0,0,0,.08-3.18,14.36,14.36,0,0,0-.88-3.31c-.21-.55-.45-1.1-.71-1.63s-.61-1.11-.92-1.66a57,57,0,0,0-4.32-6.44,100.55,100.55,0,0,0-10.86-11.61c-1.95-1.84-4-3.57-6-5.36S297.74,371.5,295.76,369.68Zm.33-.37c2,1.74,4.09,3.45,6.19,5.11s4.23,3.28,6.39,4.89,4.27,3.29,6.38,5,4.13,3.55,6.08,5.49a47.05,47.05,0,0,1,5.4,6.34c.4.59.8,1.15,1.19,1.76a19.79,19.79,0,0,1,1.09,2,19.05,19.05,0,0,1,1.43,4.36,12.39,12.39,0,0,1-1.76,9.57,11.56,11.56,0,0,1-3.84,3.45,9.87,9.87,0,0,1-5.29,1.24,8.1,8.1,0,0,1-2.82-.68,9.63,9.63,0,0,1-2.32-1.43,20.41,20.41,0,0,1-3.13-3.38c-.42-.53-.81-1-1.2-1.5a9.93,9.93,0,0,0-1.09-1.14,5.64,5.64,0,0,0-2.28-1.29,1.64,1.64,0,0,0-.79,0,1.85,1.85,0,0,0-.65.34,3.18,3.18,0,0,0-.57.85,8.79,8.79,0,0,0-.5,1.48c-.29,1.15-.52,2.49-.93,4a11,11,0,0,1-2.35,4.47,13.36,13.36,0,0,1-8.51,4.17,22,22,0,0,1-4.46.12,10.93,10.93,0,0,1-4.69-1.39A7.76,7.76,0,0,1,281,421.3a7.6,7.6,0,0,1-1.27-2.33,11.5,11.5,0,0,1-.47-4.71c.3-3,1.25-5.48,1.42-7.9a10.43,10.43,0,0,0,0-1.77,6.44,6.44,0,0,0-.39-1.66,21.66,21.66,0,0,1-1.38-4,7.23,7.23,0,0,1-.12-1.15c0-.38,0-.68,0-1v-2l-.07-4c0-2.7-.16-5.31-.21-8.07,0-1.39.13-2.7.14-4a20.2,20.2,0,0,0-.26-3.85,3,3,0,0,0-.57-1.46,1.27,1.27,0,0,0-1.1-.31,5.18,5.18,0,0,0-2.89,1.68,11.72,11.72,0,0,1-1.68,1.39,9.85,9.85,0,0,1-2,1,14.23,14.23,0,0,1-4.35.84,10.62,10.62,0,0,1-8.36-3.71,8.71,8.71,0,0,1-2-4.58,11.52,11.52,0,0,1,.53-4.77c.43-1.41.87-2.57,1.14-3.74a35.83,35.83,0,0,0,.66-3.66c.08-.63.15-1.26.2-1.9l.07-1c0-.34,0-.65,0-.9a40.59,40.59,0,0,1,.05-4.2,7.93,7.93,0,0,1,.75-2.64,7.55,7.55,0,0,1,1.73-2.24,8.65,8.65,0,0,1,4.8-2,10.86,10.86,0,0,1,4.78.61,13.37,13.37,0,0,1,3.93,2.37,38.9,38.9,0,0,1,5.43,6.32q2.41,3.18,5.12,6.14A146.38,146.38,0,0,0,296.09,369.31Z"/><path class="cls-1" d="M256,251.86c-.34-1.93-.35-3.87-.77-5.72a7.62,7.62,0,0,0-1-2.57,4.75,4.75,0,0,0-2.06-1.71,6.37,6.37,0,0,0-5.26.49,8.08,8.08,0,0,0-3.7,3.85c-1.59,3.36-1.52,7.22-1.81,11.11a28.08,28.08,0,0,1-1,6,13.55,13.55,0,0,1-3.21,5.58,10.22,10.22,0,0,1-6.09,3.07,7.28,7.28,0,0,1-3.8-.53,5.18,5.18,0,0,1-1.82-1.39,6.29,6.29,0,0,1-1-1.87,14.89,14.89,0,0,1-.64-3.29l-.33-2.88-.58-5.77c-.41-3.84-.73-7.69-1-11.53-.17-1.91-.37-3.76-.66-5.55a26.84,26.84,0,0,0-1.37-5.21c-.64-1.7-1.39-3.41-2.22-5.11s-1.71-3.44-2.6-5a15.57,15.57,0,0,0-3.19-4.11,8.13,8.13,0,0,0-2.06-1.3c-.36-.18-.76-.25-1.14-.4s-.8-.18-1.21-.19c-3.34-.3-6.87,1.42-9.35,4a13.71,13.71,0,0,0-2.83,4.59,19.36,19.36,0,0,0-1.27,5.39A35.15,35.15,0,0,0,195,243c.91,3.7,2.17,7.34,3.43,11,.63,1.83,1.24,3.68,1.8,5.55s1.09,3.75,1.51,5.68A51.22,51.22,0,0,1,202.92,277a53.64,53.64,0,0,1-1.51,11.79,30,30,0,0,0-.86,5.38,7,7,0,0,0,1,4.34,16.65,16.65,0,0,0,1.71,1.87,27.21,27.21,0,0,1,2,2.37,28.17,28.17,0,0,1,3.25,5.36,27.35,27.35,0,0,1,2,6c.42,2,.63,4,1,5.74a14.27,14.27,0,0,0,1.61,4.69,5.91,5.91,0,0,0,3,2.71,5.73,5.73,0,0,0,3.94-.16,8.74,8.74,0,0,0,3.6-2.6,18.92,18.92,0,0,0,2.63-4.29c.37-.81.71-1.63,1.06-2.52a11.75,11.75,0,0,1,1.77-3.27,6.7,6.7,0,0,1,1.81-1.54,8.28,8.28,0,0,1,2-.81,12.94,12.94,0,0,1,1.74-.34c.54-.08,1-.13,1.54-.19a21,21,0,0,1,3.32-.12,11.56,11.56,0,0,1,3.6.74,13.07,13.07,0,0,1,3.18,1.78l1.15.92a8.38,8.38,0,0,0,.91.63,2.24,2.24,0,0,0,1.17.4c.15,0,.41-.09.81-.53a10,10,0,0,0,1.23-2,12.19,12.19,0,0,1,2.06-2.94,8.16,8.16,0,0,1,3.51-2.11,11.78,11.78,0,0,1,3.6-.4,21.17,21.17,0,0,0,5.17,0,4.64,4.64,0,0,0,3.07-2.37,8.88,8.88,0,0,0,1.1-4.52,23.47,23.47,0,0,0-.71-5.33,35.29,35.29,0,0,0-1.67-5.29c-.7-1.72-1.57-3.4-2.45-5.15a34.17,34.17,0,0,1-2.33-5.49,20.78,20.78,0,0,1-.72-6,40,40,0,0,0-.22-5.72,20.35,20.35,0,0,0-1.65-5.41C258.76,259.18,256.66,255.78,256,251.86Zm.49-.08c.68,3.77,2.75,7.09,4.44,10.58a20.86,20.86,0,0,1,2,5.55,53.76,53.76,0,0,1,.58,5.83,19,19,0,0,0,1.05,5.45,32.42,32.42,0,0,0,2.64,4.95c1,1.63,2.07,3.3,3,5.09a38.21,38.21,0,0,1,2.31,5.57,27.17,27.17,0,0,1,1.33,6.06,12.36,12.36,0,0,1-1.18,6.69,10.19,10.19,0,0,1-2.22,2.92,8.47,8.47,0,0,1-1.57,1.13,8.29,8.29,0,0,1-1.82.74,23.29,23.29,0,0,1-6.36.42,7.19,7.19,0,0,0-2.12.3,3.34,3.34,0,0,0-1.37.9,7.05,7.05,0,0,0-1.18,1.83,15,15,0,0,1-1.85,2.94,7.58,7.58,0,0,1-1.68,1.45,5.94,5.94,0,0,1-2.4.85,7.18,7.18,0,0,1-4.35-1,12.58,12.58,0,0,1-1.5-1l-1.12-.86a7.4,7.4,0,0,0-1.88-1,10.19,10.19,0,0,0-4.52-.3l-1.34.15a10.11,10.11,0,0,0-1.09.21,2.87,2.87,0,0,0-.7.28,1.17,1.17,0,0,0-.39.32,7.16,7.16,0,0,0-.92,1.83c-.36.91-.76,1.88-1.2,2.81a22.5,22.5,0,0,1-3.53,5.48,13.94,13.94,0,0,1-5.8,3.95,10.16,10.16,0,0,1-12.81-4.95,19.12,19.12,0,0,1-2.05-6.24c-.34-2-.51-3.95-.83-5.71a24,24,0,0,0-4.1-9.67c-.52-.72-1.08-1.39-1.68-2.07a18.13,18.13,0,0,1-2.05-2.52,9.75,9.75,0,0,1-1.29-3.39,12.89,12.89,0,0,1-.12-3.38,32.5,32.5,0,0,1,1.28-6,49.85,49.85,0,0,0,2.08-11.06,48.38,48.38,0,0,0-.53-11.27,78.57,78.57,0,0,0-2.8-11.11c-1.12-3.68-2.42-7.35-3.3-11.16a38.79,38.79,0,0,1-1.22-11.73,22.65,22.65,0,0,1,1.18-5.89,16.35,16.35,0,0,1,3-5.33,16.56,16.56,0,0,1,4.83-3.88,12.72,12.72,0,0,1,6.21-1.52,10.74,10.74,0,0,1,6.22,2.2,18.77,18.77,0,0,1,4.23,4.71c1.14,1.71,2.06,3.38,3,5.1a46.54,46.54,0,0,1,2.66,5.39,31.2,31.2,0,0,1,1.79,5.93,54.31,54.31,0,0,1,.8,5.93c.36,3.86.72,7.7,1,11.55l.45,5.78.18,2.89a11.92,11.92,0,0,0,.3,2.41c.21.62.36.85.74,1.07a3.88,3.88,0,0,0,1.86.36,6.86,6.86,0,0,0,4.19-1.78,10.58,10.58,0,0,0,2.85-4.17,24,24,0,0,0,1.39-5.33c.31-1.87.53-3.81.92-5.75a18.6,18.6,0,0,1,1.93-5.69,9.74,9.74,0,0,1,4.43-4.11,7.17,7.17,0,0,1,5.94-.26,5.67,5.67,0,0,1,2.29,2,8.16,8.16,0,0,1,1.09,2.79C256.24,248,256.23,249.9,256.53,251.78Z"/><path class="cls-1" d="M268.83,320a2.91,2.91,0,0,0-2.31.58,4.86,4.86,0,0,0-1.45,1.86A3.37,3.37,0,0,1,264,323.7a4.44,4.44,0,0,1-1.57.68,14.6,14.6,0,0,1-2.58.24,2.27,2.27,0,0,0-1.6.48A1.93,1.93,0,0,0,258,327c.54,1.45,2.18,2.36,3.68,3a19.82,19.82,0,0,0,2.34.74,7.87,7.87,0,0,0,2.1.39,1,1,0,0,0,.56-.16c.08,0,0-.07.08-.09s.1-.12.16-.27a12.36,12.36,0,0,0,.72-1.95,35.52,35.52,0,0,1,1.58-4.82,11,11,0,0,1,.6-1.24,2.75,2.75,0,0,0,.39-1.06A1.57,1.57,0,0,0,268.83,320Zm.06-.29a2.66,2.66,0,0,1,2.11,1.79,5.09,5.09,0,0,1,.12,1.49c0,.49,0,.84,0,1.28a16.89,16.89,0,0,1-.44,5.3,8.38,8.38,0,0,1-1.19,2.82,5.33,5.33,0,0,1-.64.75,4.39,4.39,0,0,1-1,.63,4.06,4.06,0,0,1-2,.25,7.71,7.71,0,0,1-2.86-1,14.27,14.27,0,0,1-2.27-1.56c-.71-.58-1.35-1.2-2-1.81a8.49,8.49,0,0,1-1.71-2.2,3.92,3.92,0,0,1-.28-3.07,3.25,3.25,0,0,1,1.09-1.45,4.92,4.92,0,0,1,1.52-.73,15.3,15.3,0,0,1,2.55-.39,6.53,6.53,0,0,0,.86-.15,1.52,1.52,0,0,0,.8-.47,7.29,7.29,0,0,1,2.57-1.31A5.79,5.79,0,0,1,268.89,319.66Z"/></svg>