<svg id="Layer_1" data-name="Layer 1" xmlns="http://www.w3.org/2000/svg" viewBox="0 0 600 600"><title>VietNam</title><path d="M238.48,186.28a7.86,7.86,0,0,1,.5-3,9.16,9.16,0,0,1,1.57-2.59,13.84,13.84,0,0,1,5-3.53,20,20,0,0,1,6-1.44c2.05-.2,4.09-.26,6.08-.44a15.87,15.87,0,0,0,5.51-1.48,14.59,14.59,0,0,0,4.53-3.23,7.31,7.31,0,0,0,2.06-4.52,9.34,9.34,0,0,0-.31-2.49,4.78,4.78,0,0,0-1.05-1.93,5.89,5.89,0,0,0-4.22-1.49c-.43,0-.89,0-1.34,0l-1.49.09a20,20,0,0,1-3.37,0,11.08,11.08,0,0,1-1.82-.29,7,7,0,0,1-.94-.26l-1-.4a7.5,7.5,0,0,1-3.22-3.09,12.66,12.66,0,0,1-1.22-3.69c-.18-1.14-.3-2.25-.38-3.3l-.21-3.09,0-.76c0-.26,0-.5-.07-.69-.05-.41-.09-.82-.18-1.23a10.53,10.53,0,0,0-1.8-4.3,5,5,0,0,0-1.3-1.25,2.33,2.33,0,0,0-1.13-.31,5.48,5.48,0,0,0-2.87,1.31,20,20,0,0,0-3.42,3.64,34.8,34.8,0,0,1-2.31,2.61,16.73,16.73,0,0,1-3.39,2.62,18.38,18.38,0,0,1-8.16,2.25,25.73,25.73,0,0,1-7.73-.75,26.62,26.62,0,0,1-13.23-8,23.89,23.89,0,0,1-4.35-6.87,18,18,0,0,1-.74-2.07A14.75,14.75,0,0,1,198,130a17.65,17.65,0,0,1-.21-4.63,20.31,20.31,0,0,1,.8-3.93c.19-.56.38-1.08.56-1.57l.56-1.35c.41-.86.73-1.59,1.05-2.34l.46-1.11.18-.56.1-.28a.48.48,0,0,1,.07-.19l.15-.21.1-.19a.68.68,0,0,0,.09-.22.42.42,0,0,0,0-.25,2.08,2.08,0,0,0-.7-1.38,16.25,16.25,0,0,0-4.58-3,30.59,30.59,0,0,1-3.2-1.84l-2.77-1.83c-1.87-1.23-3.76-2.52-5.67-3.92a47.49,47.49,0,0,1-5.56-4.69,35.42,35.42,0,0,1-2.56-2.76c-.4-.5-.79-1-1.19-1.53a20,20,0,0,1-1.18-1.91,16.52,16.52,0,0,1-1.86-5.63,17.51,17.51,0,0,1-.13-1.82c0-.34,0-.63,0-.81v-.64c0-.44,0-.87.07-1.3s.14-1,.22-1.45a16.25,16.25,0,0,1,2.67-6.61,18.8,18.8,0,0,1,1.36-1.73,22.76,22.76,0,0,1,1.7-1.56,16.5,16.5,0,0,1,3.83-2.24,17.25,17.25,0,0,1,6.9-1.21,20.55,20.55,0,0,1,4.95.78,28,28,0,0,1,7.05,3.14c2,1.22,3.77,2.47,5.44,3.69s3.3,2.37,4.56,3.13l.43.25.19.12.12.08.11.09s0,0,0,.06,0,0,0,.07l.23,0a4.88,4.88,0,0,0,1.74,0,5.78,5.78,0,0,0,1.87-.66,11.46,11.46,0,0,0,2.29-1.57c.81-.71,1.65-1.49,2.62-2.4a28.57,28.57,0,0,1,3.46-2.66,20.2,20.2,0,0,1,7.62-3.11c.61-.07,1.22-.18,1.81-.19a17.37,17.37,0,0,1,1.77,0c.61,0,1.21,0,1.77.11s1.14.12,1.67.2a42.94,42.94,0,0,1,5.92,1.4c3.59,1.11,6.85,2.13,9.55,1.28s4.58-3.42,6-6.81c.69-1.74,1.3-3.65,2-5.77a40.18,40.18,0,0,1,2.74-6.85,24.11,24.11,0,0,1,2.34-3.66A17,17,0,0,1,269,44.36l.85-.87,1-.87a10.7,10.7,0,0,1,1.11-.84c.41-.27.8-.54,1.25-.81s1-.52,1.45-.77,1.09-.45,1.64-.65A15,15,0,0,1,278.1,39a13.62,13.62,0,0,1,2-.34,12.94,12.94,0,0,1,2.07-.08,14,14,0,0,1,2.06.16,19,19,0,0,1,6.84,2.35,17.82,17.82,0,0,1,4.1,3.15,15.88,15.88,0,0,1,3.59,5.88c.32.91.6,1.75.85,2.5a12.72,12.72,0,0,0,.77,2,4,4,0,0,0,.9,1.25l.22.18c.14.06.28.1.42.15a2.75,2.75,0,0,0,.51.12,4.76,4.76,0,0,0,.56.07A9.9,9.9,0,0,0,308.51,55a56.9,56.9,0,0,1,6.24-3.34,18.39,18.39,0,0,1,7.1-1.12,27.76,27.76,0,0,1,8.56,1.67c.82.3,1.68.65,2.55,1a26.11,26.11,0,0,1,2.82,1.5A20.38,20.38,0,0,1,341.71,60c.45.62.87,1.26,1.27,1.91A20.63,20.63,0,0,1,344,64c.15.35.29.7.42,1.06a10.25,10.25,0,0,1,.31,1c.19.69.36,1.39.5,2.1s.16,1.28.21,1.93a13.16,13.16,0,0,1,.06,1.85q0,.84-.09,1.68c0,.28,0,.57-.08.83l-.11.73a35.41,35.41,0,0,1-2.82,9A18.73,18.73,0,0,0,341,87.62a4.63,4.63,0,0,0,0,.88,7.12,7.12,0,0,0,.58,1.14,11.55,11.55,0,0,0,4.26,3.54,13.73,13.73,0,0,0,3,1.16,23.87,23.87,0,0,0,3.85.63l6,.55a53.73,53.73,0,0,1,7.76,1.28,34,34,0,0,1,9.35,3.77l1.19.75.59.38c.3.22.65.47,1,.72A20.05,20.05,0,0,1,382,106a19.53,19.53,0,0,1,2.74,5,18.11,18.11,0,0,1,1.09,6.76,19.06,19.06,0,0,1-.46,3.47,18.54,18.54,0,0,1-1.11,3.3,19.42,19.42,0,0,1-3.29,5,23.32,23.32,0,0,1-6.16,4.78c-.88.49-1.68.87-2.42,1.2-.38.18-.74.31-1.09.45l-.75.29c-.92.37-1.9.69-2.81,1A88.15,88.15,0,0,1,357,139.86c-.44.07-.87.16-1.28.25l-1.28.22c-.84.16-1.66.35-2.5.52a33.67,33.67,0,0,0-4.81,1.4l-1.17.46c-.38.16-.72.37-1.09.55a15.18,15.18,0,0,0-2.11,1.31,17.06,17.06,0,0,0-3.55,3.5,21.84,21.84,0,0,0-1.41,2.17,11.76,11.76,0,0,0-1.13,2.49,34,34,0,0,0-1.2,6.3,32.24,32.24,0,0,1-1.8,8,20.1,20.1,0,0,1-2.3,4.26,24,24,0,0,1-3,3.49,24.73,24.73,0,0,1-3,2.4c-.95.68-1.79,1.23-2.56,1.71s-1.44.89-2,1.22-1,.56-1.48.86a23.28,23.28,0,0,0-6.48,5.49,26.45,26.45,0,0,0-2.77,4.15,25.12,25.12,0,0,0-1.92,4.72,28.19,28.19,0,0,0-1.18,9.77c0,.81.15,1.5.22,2.26,0,.33.11.53.14.8s.1.48.19.69a3.51,3.51,0,0,0,.24.64,5,5,0,0,0,.27.63,9.2,9.2,0,0,0,.87,1.3,18.79,18.79,0,0,0,3.18,3c1.39,1.05,3,2.2,4.74,3.41s3.59,2.54,5.44,4.12c.91.8,1.84,1.63,2.73,2.56a26.32,26.32,0,0,1,2.46,3,23.59,23.59,0,0,1,2,3.45c.27.59.53,1.21.76,1.81s.4,1.16.58,1.71a29.39,29.39,0,0,0,2,5.61c1.52,2.73,4.57,4.06,7.65,6a37.28,37.28,0,0,1,4.75,3.57c.18.16.43.4.68.65l.73.73a19.46,19.46,0,0,1,1.4,1.5,30.59,30.59,0,0,1,2.41,3.18,67.06,67.06,0,0,1,5.8,11.81,38.48,38.48,0,0,0,2.16,4.4,16,16,0,0,0,2.54,3.22,27.5,27.5,0,0,0,3.63,2.91c1.39.95,2.91,1.87,4.58,2.82,3.35,1.91,7.22,3.86,11.17,6.55,1,.65,2,1.4,2.93,2.13.48.39.95.8,1.43,1.21l.7.61.68.66,1.37,1.31,1.26,1.43c.89,1,1.52,1.89,2.27,2.83,2.81,3.76,4.92,7.63,7.32,11,.3.42.58.84.89,1.25l.88,1.12c.58.75,1.19,1.49,1.83,2.21,1.27,1.46,2.6,2.9,3.95,4.39a67,67,0,0,1,7.72,10,58.52,58.52,0,0,1,5.95,12.66c.36,1.15.71,2.31,1,3.49l.43,1.77.3,1.52,1.18,6c.4,2.16.84,4.34,1.21,6.5l.52,3.25c.1.54.18,1.08.25,1.62s.2,1.07.33,1.6a256.63,256.63,0,0,1,5.08,25.56c1.29,8.53,2.24,17,2.77,25.28.3,4.15.43,8.22.5,12.26l0,3c0,.5,0,1,0,1.5v.87l0,1a51.41,51.41,0,0,1-.91,8.33,43.57,43.57,0,0,1-2.71,9,40,40,0,0,1-4.79,8.43,46.59,46.59,0,0,1-12,11.2,71.39,71.39,0,0,1-12.46,6.57,106.38,106.38,0,0,1-13.08,4.4,243.79,243.79,0,0,1-25.92,5.22c-1.06.19-2.12.35-3.16.55l-1.57.31c-.52.09-1.05.19-1.56.31-1.07.22-2,.45-3.36.73s-2.44.38-3.52.5c-2.19.27-4.06.44-5.49.75a9.28,9.28,0,0,0-1.77.49c-.24.08-.44.15-.63.23s-.17.1-.25.17a1.26,1.26,0,0,0-.2.2c-.09.18-.23.29-.31.49a2,2,0,0,1-.14.25l-.09.3a4.2,4.2,0,0,0-.3,1.16,15.37,15.37,0,0,0,.13,3.83l.81,6.33.23,2.08c0,.77,0,1.57,0,2.37a19.27,19.27,0,0,1-.36,2.63l-.15.67-.22.7c-.16.47-.33.93-.53,1.39a13,13,0,0,1-1.45,2.68c-.28.43-.57.86-.88,1.28s-.68.74-1,1.1a17.7,17.7,0,0,1-4.56,3.4,36,36,0,0,1-8,2.86c-4.93,1.16-9,1.33-12.16,1.91a20.47,20.47,0,0,0-4,1.12,10,10,0,0,0-3.1,2.2,10.29,10.29,0,0,0-2.58,4.13c-.62,1.73-1.19,3.65-1.89,5.72-.37,1.06-.74,2.06-1.21,3.28a38.43,38.43,0,0,1-1.63,3.62,30.21,30.21,0,0,1-5,7.21,21.14,21.14,0,0,1-9.06,5.93,22.84,22.84,0,0,1-12.7,0,23.31,23.31,0,0,1-10.34-6.24,28.14,28.14,0,0,1-5.61-8.63,30.26,30.26,0,0,1-2.26-9.34,27.78,27.78,0,0,1,0-4.91c.08-.8.2-1.58.32-2.35s.3-1.5.5-2.2a37.73,37.73,0,0,1,1.35-3.9c.26-.59.54-1.18.81-1.71s.55-1.09.83-1.59a38.69,38.69,0,0,1,3.53-5.3l1.74-2.19c.25-.34.55-.7.78-1a8.9,8.9,0,0,0,.74-1.11,13.65,13.65,0,0,0,1.93-4.29,3.38,3.38,0,0,0,0-1.38,1,1,0,0,0-.63-.7,7.91,7.91,0,0,0-1.92-.49,20.81,20.81,0,0,1-3.44-.86,12.08,12.08,0,0,1-7.71-8.7,11.34,11.34,0,0,1,.18-6,19.35,19.35,0,0,1,2.17-4.57,18,18,0,0,1,2.91-3.47,17.42,17.42,0,0,1,1.72-1.39,17,17,0,0,1,1.82-1.1c2.32-1.18,4.47-1.87,6.27-2.83a10,10,0,0,0,4.2-3.55,6.3,6.3,0,0,0,.76-2.41,20.37,20.37,0,0,1,.71-3.13,11.53,11.53,0,0,1,.83-1.88c.19-.32.38-.65.62-1a7.11,7.11,0,0,1,.89-1.06,11.91,11.91,0,0,1,5.39-3.15,14.91,14.91,0,0,1,4.79-.58,18.74,18.74,0,0,1,3.88.57,55.77,55.77,0,0,1,6.3,2.26,21.55,21.55,0,0,0,5.49,1.52,9.89,9.89,0,0,0,2.33,0,3.82,3.82,0,0,0,1.41-.44.69.69,0,0,0,.25-.5,4.93,4.93,0,0,0,0-1.18c-.06-.32-.06-.6-.13-1s-.12-.74-.22-1a10.3,10.3,0,0,0-.79-1.68c-.34-.62-.8-1.37-1.33-2.29a20,20,0,0,1-1.63-3.47,14.16,14.16,0,0,1-.51-7.94c.1-.44.24-.86.37-1.29l.2-.63.2-.51a19.66,19.66,0,0,1,4.94-7.24,13.89,13.89,0,0,1,4.14-2.63,12.63,12.63,0,0,1,5.29-.95,12.07,12.07,0,0,1,4.35,1c1.13.46,2,1,2.72,1.26a4.44,4.44,0,0,0,2,.48,4.16,4.16,0,0,0,2.06-.59,37.94,37.94,0,0,0,4.48-3.34c.83-.67,1.73-1.33,2.71-2a15.39,15.39,0,0,1,1.55-1,17.72,17.72,0,0,1,1.61-.84,52.23,52.23,0,0,1,6.37-2.38c2-.66,4-1.18,5.72-1.86a17.16,17.16,0,0,0,4.3-2.22,5.39,5.39,0,0,0,1.89-2.54,5.72,5.72,0,0,1,.19-.66c0-.22,0-.44.06-.64a3.79,3.79,0,0,0,0-.67c0-.11,0-.2,0-.33l-.07-.39a18.34,18.34,0,0,0-.92-3.79c-.52-1.51-1.09-3.17-1.81-5.05l-1.08-2.91a25.23,25.23,0,0,1-1-3.25,9.65,9.65,0,0,1-.15-1.82v-1.9a32.66,32.66,0,0,1,.39-4.08,24.36,24.36,0,0,1,1-4c.42-1.23.87-2.33,1.31-3.34s.83-1.95,1.2-2.81a17,17,0,0,0,.76-2.46,8.38,8.38,0,0,0,.23-2.19,10.49,10.49,0,0,0-.34-2.28,15.24,15.24,0,0,0-.88-2.43c-.34-.84-.8-1.69-1.24-2.58a56.14,56.14,0,0,1-2.83-6,22.13,22.13,0,0,1-1.05-3.67,21.49,21.49,0,0,1-.46-4c0-.66,0-1.31,0-2s.12-1.28.22-1.88a25.77,25.77,0,0,1,.73-3.54c.59-2.26,1.3-4.32,2-6.27l1.95-5.52a30.31,30.31,0,0,0,1.29-5.06,17.69,17.69,0,0,0,.15-4.85,9.82,9.82,0,0,0-1.41-4.05,12.81,12.81,0,0,0-3.39-3.26,56.69,56.69,0,0,1-5.29-4,10.85,10.85,0,0,1-2.69-3.71,8.6,8.6,0,0,1-.65-2.63,8.9,8.9,0,0,1,.18-2.56,14.11,14.11,0,0,1,1.49-3.78c.55-1,1.1-1.91,1.58-2.73a10.73,10.73,0,0,0,1.69-4.15,4.06,4.06,0,0,0-.17-1.62,4.93,4.93,0,0,0-.34-.77l-.23-.42c-.09-.15-.22-.29-.32-.44a14.89,14.89,0,0,0-3.66-3.34,23.25,23.25,0,0,0-2.3-1.42c-.8-.43-1.64-.8-2.47-1.15a22.21,22.21,0,0,0-5-1.44,9,9,0,0,0-2.16-.1c-.73.05-1.62.21-2.7.34a16.55,16.55,0,0,1-3.82.14,13.78,13.78,0,0,1-4.11-1,17.13,17.13,0,0,1-6.27-4.65,22.17,22.17,0,0,1-3.73-6.17,40.71,40.71,0,0,1-2-6.32c-.48-2.07-.85-4.07-1.27-6-.21-1-.43-1.91-.69-2.85l-.39-1.41-.44-1.4a54.84,54.84,0,0,0-4.88-10.81c-1-1.74-2.05-3.43-3.14-5.12s-2.28-3.32-3.48-4.94c-2.38-3.26-4.88-6.44-7.4-9.63a67.94,67.94,0,0,0-8-9,40.09,40.09,0,0,0-10.2-6.32c-3.67-1.74-7.26-3.68-10.75-5.75a73.59,73.59,0,0,1-10-7c-.76-.67-1.51-1.36-2.22-2.09a14.61,14.61,0,0,1-1.94-2.35A11.77,11.77,0,0,1,238.48,186.28Zm.08,0a7,7,0,0,0,.66,2.94,12.33,12.33,0,0,0,1.43,2.62,14.56,14.56,0,0,0,2,2.22c.73.68,1.5,1.33,2.28,1.95a70.84,70.84,0,0,0,10.17,6.47c3.56,1.91,7.17,3.65,10.9,5.22a43.63,43.63,0,0,1,10.68,6.43,70.32,70.32,0,0,1,8.41,9.07c2.57,3.15,5.13,6.31,7.61,9.55,4.93,6.49,9.59,13.33,12.88,20.95l.6,1.43.55,1.46c.38,1,.71,1.95,1,2.93.63,2,1.19,3.91,1.82,5.79a37.07,37.07,0,0,0,2.19,5.41,19.13,19.13,0,0,0,3.22,4.54,12.28,12.28,0,0,0,4.37,3,10.15,10.15,0,0,0,5.18.62c1-.07,2-.16,3.17-.15a15.91,15.91,0,0,1,3.34.46,29.23,29.23,0,0,1,6,2.23c3.72,1.92,7.37,4.16,10,7.66a10.38,10.38,0,0,1,1.56,3,8.6,8.6,0,0,1,.34,3.38,14.82,14.82,0,0,1-2.33,6,20.68,20.68,0,0,0-2.65,5.21,4.17,4.17,0,0,0,.18,2.59,6.41,6.41,0,0,0,1.63,2.22,42.19,42.19,0,0,0,4.83,3.57,17.8,17.8,0,0,1,4.56,4.19,15.34,15.34,0,0,1,2.5,5.67,23.92,23.92,0,0,1,.47,6.14,55.89,55.89,0,0,1-2.26,12,45.26,45.26,0,0,0-1.94,11.9,24.45,24.45,0,0,0,.83,5.94c.51,2,1.18,3.87,1.83,5.79a49.62,49.62,0,0,1,1.72,5.85,20.57,20.57,0,0,1,.43,6.06c-.31,4.05-1.66,8-1.52,12.06a30.6,30.6,0,0,0,.75,6c.4,2,.92,4,1.41,5.92s1,3.94,1.29,5.95a20.13,20.13,0,0,1,.2,6.05,11.8,11.8,0,0,1-2.19,5.61,12.52,12.52,0,0,1-4.64,3.83c-3.66,1.8-7.75,2.33-11.7,3.2a35.77,35.77,0,0,0-5.84,1.68,14.36,14.36,0,0,0-1.39.62,13.25,13.25,0,0,0-1.34.72c-.87.52-1.7,1.1-2.52,1.7a42.77,42.77,0,0,1-5,3.4,10.17,10.17,0,0,1-5.87,1.24c-2-.16-4-.72-6.05-.48a9.39,9.39,0,0,0-5.32,2.72,15.66,15.66,0,0,0-3.41,5,8.46,8.46,0,0,0-.42,5.94c.55,2,1.51,3.76,2.14,5.69a14.06,14.06,0,0,1,.63,6,7.71,7.71,0,0,1-.91,2.88,5.4,5.4,0,0,1-2.15,2.09,12.31,12.31,0,0,1-5.94,1c-4.06-.16-8.05-1-12.1-1.29a17.48,17.48,0,0,0-6,.44,6.83,6.83,0,0,0-2.67,1.42,14.91,14.91,0,0,0-2,2.27,29,29,0,0,1-3.86,4.69,43.18,43.18,0,0,1-4.82,3.71,47.94,47.94,0,0,0-4.85,3.68,14.7,14.7,0,0,0-3.6,4.85,9.7,9.7,0,0,0-.86,5.92,6.86,6.86,0,0,0,1.26,2.74,9.89,9.89,0,0,0,2.26,2c1.67,1.14,3.57,2,5,3.38a7.68,7.68,0,0,1,2.26,5.48,22.29,22.29,0,0,1-.83,6,43.8,43.8,0,0,1-1.88,5.78c-1.47,3.77-3.19,7.48-4,11.48a18.58,18.58,0,0,0,1.54,11.85,17.19,17.19,0,0,0,3.54,4.91,11.87,11.87,0,0,0,5.23,3,11.22,11.22,0,0,0,6-.14,15.42,15.42,0,0,0,5.3-2.9,32.51,32.51,0,0,0,7.51-9.49c2-3.5,3.94-7.12,6.59-10.21a19.92,19.92,0,0,1,4.59-3.95,25.07,25.07,0,0,1,5.55-2.47c3.86-1.24,7.89-1.89,11.76-3.13a25.24,25.24,0,0,0,5.55-2.46,11.26,11.26,0,0,0,4.1-4.37,15,15,0,0,0,1.44-5.87c.15-2,.13-4.06.24-6.08a18.32,18.32,0,0,1,1.09-6,10.74,10.74,0,0,1,1.49-2.64l.45-.61.54-.54a9.09,9.09,0,0,1,1.15-1,12.46,12.46,0,0,1,5.64-2.11c2-.3,4-.33,6.07-.46,1-.05,2-.15,3-.29s2-.39,3-.6,2-.45,3-.7,2-.48,2.94-.77a114.78,114.78,0,0,0,22.63-8.85,106.5,106.5,0,0,0,20.18-13.52,47.06,47.06,0,0,0,8.32-8.83,27.75,27.75,0,0,0,2.91-5.32,32.24,32.24,0,0,0,1.73-5.83,80.34,80.34,0,0,0,1-12.11l.55-12.16c.35-8.1.59-16.22.4-24.33-.07-4.06-.31-8.11-.62-12.16s-.82-8.07-1.54-12.07-1.58-8-2.6-11.88-2-7.86-3.42-11.68c-2.77-7.65-7.26-14.5-11.53-21.38-2.15-3.44-4.18-7-6-10.57a84.13,84.13,0,0,0-6.15-10.49,30,30,0,0,0-8.82-8.25,113.92,113.92,0,0,0-10.81-5.6C364,287,362.16,286,360.42,285a35.23,35.23,0,0,1-4.91-3.58,25.65,25.65,0,0,1-4-4.54,45.77,45.77,0,0,1-3.06-5.25,113.67,113.67,0,0,0-5.63-10.78,30.5,30.5,0,0,0-3.84-4.71c-1.45-1.42-2.92-2.82-4.33-4.28-2.81-2.89-5.4-6.16-6.67-10-.65-1.92-1.06-3.91-1.66-5.85a16.38,16.38,0,0,0-2.69-5.42c-2.47-3.27-6.08-5.38-9.63-7.28s-7.29-3.67-10.22-6.53a14.22,14.22,0,0,1-3.36-5,20,20,0,0,1-1.19-5.94,42.78,42.78,0,0,1,.88-12.1,50.81,50.81,0,0,1,3.9-11.5,34.46,34.46,0,0,1,6.94-9.92c2.89-2.88,6.56-4.76,9.74-7.27a21,21,0,0,0,4.25-4.33,33.09,33.09,0,0,0,3.05-5.25c.88-1.83,1.68-3.69,2.53-5.53a60.05,60.05,0,0,1,2.83-5.39,38.19,38.19,0,0,1,7.87-9.22,49.12,49.12,0,0,1,10.19-6.6c3.63-1.82,7.39-3.36,11.17-4.83,1.87-.77,3.82-1.38,5.62-2.3a9.18,9.18,0,0,0,2.46-1.77,4.23,4.23,0,0,0,1.21-2.7,4.43,4.43,0,0,0-.94-2.81,6.77,6.77,0,0,0-1.05-1.09c-.39-.32-.84-.56-1.26-.85A20.5,20.5,0,0,0,363,110c-3.93-1-8-1.26-12-1.8a35.63,35.63,0,0,1-6-1.23,27,27,0,0,1-5.57-2.42,24.47,24.47,0,0,1-8.81-8.22,17.51,17.51,0,0,1-2.18-5.66,16.69,16.69,0,0,1,.23-6.06c1-4,3.53-7.35,4.14-11.4a9.87,9.87,0,0,0,.06-3,6.54,6.54,0,0,0-1.16-2.77,9.82,9.82,0,0,0-5-3.16,45.17,45.17,0,0,0-12.05-1.35c-4.05-.07-8.11.12-12.16-.18a16.14,16.14,0,0,1-3-.48A13,13,0,0,1,296.65,61a25.14,25.14,0,0,1-4.75-3.78c-1.47-1.41-2.86-2.89-4.38-4.22a11.31,11.31,0,0,0-5.25-2.89,8,8,0,0,0-5.73,1.45,20.16,20.16,0,0,0-4.49,4.06c-2.61,3.11-4.54,6.71-6.82,10.06s-5,6.54-8.82,8.16-8,1.72-12,1.49a117.47,117.47,0,0,0-12.15-.55,23.29,23.29,0,0,0-6,1A19.91,19.91,0,0,0,221,78.64a22.4,22.4,0,0,1-5.27,3,9.67,9.67,0,0,1-6,.25c-3.91-1.11-7.6-2.86-11.43-4.17a37.61,37.61,0,0,0-5.85-1.62,10.81,10.81,0,0,0-6,.28A6,6,0,0,0,183,81a9.38,9.38,0,0,0-.24,1.5,6.85,6.85,0,0,0,0,1.5,10.26,10.26,0,0,0,.7,2.94,40.58,40.58,0,0,0,6.33,10.32,49.76,49.76,0,0,0,4.17,4.42c.73.7,1.49,1.38,2.26,2a19.52,19.52,0,0,0,2.5,1.73,40.5,40.5,0,0,1,5.1,3.32A6.81,6.81,0,0,1,206.5,114a24.11,24.11,0,0,1-.86,6,38.86,38.86,0,0,0-1.26,5.93,12.67,12.67,0,0,0,.93,5.93,19.31,19.31,0,0,0,3.15,5.15,21.27,21.27,0,0,0,10,6.54,20.14,20.14,0,0,0,6,.88,12.92,12.92,0,0,0,5.87-1.27,17.14,17.14,0,0,0,4.61-3.88,23,23,0,0,1,4.56-4,8.48,8.48,0,0,1,5.78-1.54,6.4,6.4,0,0,1,2.78,1.23,9.12,9.12,0,0,1,2,2.3A14.33,14.33,0,0,1,252,143c.25,2,.13,4.06.23,6.08a14.85,14.85,0,0,0,1,5.92,4.93,4.93,0,0,0,2.09,2.1l.68.31a6.09,6.09,0,0,0,.73.21,9.22,9.22,0,0,0,1.48.29c2,.28,4,0,6.07.13a7.72,7.72,0,0,1,5.48,2.37,8.17,8.17,0,0,1,1.56,5.77,8.87,8.87,0,0,1-2.68,5.36,15.9,15.9,0,0,1-5.08,3.32,17,17,0,0,1-5.91,1.34c-4,.22-8.18-.07-12.05,1.25a12,12,0,0,0-5.07,3.24A7.76,7.76,0,0,0,238.56,186.27Z"/></svg>