<svg id="Layer_1" data-name="Layer 1" xmlns="http://www.w3.org/2000/svg" viewBox="0 0 600 600"><title>Laos</title><path d="M224.69,122.88c.57,0,.85-.61.95-1.15a8.35,8.35,0,0,0,.12-1.73c0-1.16-.08-2.32-.18-3.48-.12-2.32-.4-4.64-.61-7-.36-4.65-.49-9.3-.66-13.94l-1.05-27.88-.27-7a23.86,23.86,0,0,1,.17-3.82,11.46,11.46,0,0,1,1.34-4.07,10.08,10.08,0,0,1,3.08-3.28,12.37,12.37,0,0,1,4-1.73,14.43,14.43,0,0,1,4.19-.43,15.31,15.31,0,0,1,4.13.76,25.87,25.87,0,0,1,6.95,3.62c2.07,1.45,3.87,3,5.69,4.41a99,99,0,0,1,10.78,9.71,45.45,45.45,0,0,1,4.74,6,17.76,17.76,0,0,1,2,4,21.22,21.22,0,0,1,.65,2.12c.15.67.31,1.37.42,2,.46,2.57.69,4.87,1.16,6.58a9.3,9.3,0,0,0,.38,1.13c.07.15.13.33.2.47l.23.37a1,1,0,0,0,.22.31,2.88,2.88,0,0,1,.22.27l.25.19.1.1.16.08a1.67,1.67,0,0,1,.28.18c.08.07.25.09.36.15l.37.17.07,0c.11,0,.56,0,1.45-.14a29.46,29.46,0,0,1,4-.41c.48,0,1,0,1.56.09A10.59,10.59,0,0,1,284,90a10.82,10.82,0,0,1,3.64,1.9,15.76,15.76,0,0,1,2.22,2.31c.42.52.84,1,1.25,1.62a30.18,30.18,0,0,1,2.35,3.73,20.1,20.1,0,0,1,1.82,4.74,15.52,15.52,0,0,1,.24,6.13,14.49,14.49,0,0,1-.94,3.2l-.31.73-.27.54c-.18.36-.36.72-.56,1.05a35.64,35.64,0,0,1-2.32,3.61c-.71,1-1.28,1.83-1.63,2.46a4.88,4.88,0,0,0-.57,1.48,5.35,5.35,0,0,0-.09,1.4,9.21,9.21,0,0,0,.28,1.71,19.23,19.23,0,0,0,1.84,4.28,99.17,99.17,0,0,0,7.3,10.41l1.09,1.49,1.12,1.58,1.14,1.7.83,1.22a28.86,28.86,0,0,0,3.37,4.14,10.86,10.86,0,0,0,3.07,2.28,2.43,2.43,0,0,0,.94.26c.08,0,.16,0,.19,0s.07,0,.11,0,.22-.08.6-.3c.15,0,.42-.23.64-.33s.53-.31.88-.56c1.29-.85,3-2.2,5.15-3.81.52-.39,1.17-.82,1.76-1.24s1.34-.87,2.05-1.26a34.83,34.83,0,0,1,4.4-2.12,38.5,38.5,0,0,1,27.5-.42,43.2,43.2,0,0,1,14.85,9.34c1,1,2,2,2.93,3,.46.52.91,1.06,1.35,1.58s.94,1.16,1.17,1.48c.62.83,1.44,1.81,2.4,3.11a19.7,19.7,0,0,1,3.08,5.69c.11.38.22.71.31,1.12s.16.83.22,1.24a12.68,12.68,0,0,1,0,2.76,10.46,10.46,0,0,1-1,3.7,10.7,10.7,0,0,1-1.58,2.33c-1.32,1.39-1.29,1.19-2.31,2.38-.93,1-1.49,1.61-1.7,1.85-.05,0-.09.1-.12.11s0,0-.1.11a3.27,3.27,0,0,0-.22.51,2.92,2.92,0,0,0,.11,2.17,3.39,3.39,0,0,0,.74,1,14.22,14.22,0,0,1,2.12,2.71l.41.64.45.67c1.29,1.92,2.72,4.07,4,6.36a40.18,40.18,0,0,1,3.45,7.67c.22.74.45,1.45.62,2.26l.26,1.19.18,1.28a19.54,19.54,0,0,1,.15,2.7,22.18,22.18,0,0,1-.27,2.86,30.45,30.45,0,0,1-3,8.65,31.57,31.57,0,0,1-12.49,13c-.69.36-1.36.75-2.09,1.06l-1.07.48-1.18.44a24.31,24.31,0,0,1-4.82,1.21,35.43,35.43,0,0,1-9,.08c-2.7-.3-5.16-.7-7.36-1a38.43,38.43,0,0,0-5.81-.54,9.72,9.72,0,0,0-3.77.65,7.54,7.54,0,0,0-1.29.74,9.32,9.32,0,0,0-1.26,1.15,2.52,2.52,0,0,0-.42.51,3.72,3.72,0,0,0-.27.48,4.94,4.94,0,0,0-.35,1.09c-.17.73,0,1.3.15,1.33s.06,0,.06,0,0,0,0,0a.23.23,0,0,1,.09,0c0,.06.15.07.19.13l.16.07a.82.82,0,0,0,.18.11c.24.15.78.36,1.35.61s1.42.52,2.41.81c1.87.59,4.38,1.26,7.35,2.44.79.36,1.54.61,2.4,1.06l2.1,1c1.15.54,2.32,1,3.48,1.51a65.19,65.19,0,0,1,6.75,3.12c2.12,1.17,4,2.58,5.94,3.89l5.65,3.88.7.47a1,1,0,0,0,.24.15l.16.09.32.19.45.24c.26.15.71.36,1.08.55l1.36.64a50.34,50.34,0,0,1,8.2,4.55c.39.26.89.69,1.33,1s.88.71,1.35,1.19a22.74,22.74,0,0,1,2.7,3.06,19.89,19.89,0,0,1,1.22,1.82c.37.65.73,1.33,1.06,2a24.73,24.73,0,0,1,1.47,4.21c.14.67.26,1.36.36,2a16.78,16.78,0,0,1,.22,2c0,.61,0,1.23,0,1.84v.93l0,.57-.16,3.37a20.12,20.12,0,0,0,.17,4.24,1.86,1.86,0,0,0,.12.47.5.5,0,0,0,.05.16l0,.06s0,0,0,0a3.29,3.29,0,0,0-.21-.48c-.09-.17-.09-.16.32.19s1.21.94,2.35,1.83a40.51,40.51,0,0,1,4,3.56l1.07,1.16c.47.57,1,1.16,1.37,1.75a25,25,0,0,1,2.08,3.52,33.56,33.56,0,0,1,2.09,5.67c.42,1.48.67,2.51.86,3.07a3.09,3.09,0,0,0,.18.5l.65,1.5,1.29,3c.88,2,1.7,4,2.61,6,1.81,3.88,3.76,7.62,5.85,11.19a106.07,106.07,0,0,0,6.68,10.2,81.59,81.59,0,0,0,7.74,8.91c.76.76,1.8,1.77,3,3.07a32.06,32.06,0,0,1,3.8,5.13c.3.49.66,1.17.88,1.61s.44.88.62,1.28c.38.83.72,1.64,1,2.33.56,1.4.94,2.48,1.18,3a3.14,3.14,0,1,1,.22.47,2.88,2.88,0,0,0-.34-.43c.09.07.71.53,1.68,1.19a47.41,47.41,0,0,1,4,3,25.45,25.45,0,0,1,5.39,6.3c.22.37.43.77.64,1.16s.43.85.54,1.13c.27.62.52,1.26.76,1.9A18.3,18.3,0,0,1,454,394c.16.61.36,1.27.45,1.84a33.93,33.93,0,0,1,.62,6.39l0,1.28c0,.44,0,.85,0,1.2L455,405.8l-.06,1-.11,1.67c0,.41-.06.93-.05,1.2a4.93,4.93,0,0,0,0,1,3,3,0,0,0-.27-.9,5,5,0,0,1,.25.46,5.66,5.66,0,0,1,.31.48,13.94,13.94,0,0,0,2.25,2.42,52.76,52.76,0,0,0,4.19,3.25,104.62,104.62,0,0,1,12.71,9.85,41.76,41.76,0,0,1,6.88,8.51c.51.86,1,1.75,1.43,2.66l.33.7c.1.22.25.58.37.87.25.62.5,1.2.71,1.87a25.29,25.29,0,0,1,1.31,8.41,30,30,0,0,1-.88,6.69c-.4,1.67-.71,2.77-.91,3.49a11,11,0,0,0-.31,1.3,4.09,4.09,0,0,0-.09.64,4.89,4.89,0,0,0,.12.95,19.12,19.12,0,0,0,.57,1.95c.29.87.67,1.89,1.13,3.17l.7,2c.24.76.48,1.46.71,2.29s.45,1.63.65,2.49c.1.37.21,1,.32,1.55s.21,1.16.26,1.68a34.28,34.28,0,0,1,.18,5.89,66.67,66.67,0,0,1-1.2,8.6c-.47,2.35-.84,4.25-1,5.47l-.05.4s0,.17,0,.41l0,.61c-.06.81-.1,1.62-.21,2.42a45.51,45.51,0,0,1-.76,4.72,51.93,51.93,0,0,1-19.31,30.46,42.06,42.06,0,0,1-17.33,7.83,36.14,36.14,0,0,1-9.85.49c-.82-.09-1.64-.19-2.44-.3l-2.33-.47-1.15-.25-1.09-.32-2.17-.65a87.33,87.33,0,0,1-14.24-6.79c-2-1.15-4-2.26-5.87-3.21-.95-.52-1.83-.9-2.75-1.37l-1.32-.57c-.44-.2-.88-.38-1.29-.52l-1.27-.47-1.22-.35-.6-.18-.59-.1-1.16-.22-1.11-.07-.56-.06h-.25a3.44,3.44,0,0,0-1.11.23,3.55,3.55,0,0,0-.86.45c-.2.14-.23.27-.19.23a.81.81,0,0,0,.18-.36c.05-.07.05.08.2.57s.4,1.21.79,2.16l.3.71.26.57.69,1.46a30,30,0,0,1,1.75,4.57c.14.47.26,1.1.38,1.65s.18,1.27.22,2a14.8,14.8,0,0,1-.47,4.62,15.06,15.06,0,0,1-2,4.36,17,17,0,0,1-2.77,3.18,17.77,17.77,0,0,1-6.59,3.65,22.25,22.25,0,0,1-6.1,1,25.39,25.39,0,0,1-5.54-.47,30.39,30.39,0,0,1-9.56-3.73,64.79,64.79,0,0,1-6.67-4.53c-.92-.73-1.75-1.38-2.55-2-.4-.29-.62-.79-1-1a6.9,6.9,0,0,0-1.26-.42,7.93,7.93,0,0,0-3.66.16c-.36,0-1.1,0-2.1-.07s-2.19-.08-3.62-.18a36.61,36.61,0,0,1-4.87-.62,24.61,24.61,0,0,1-6.44-2.17,20.81,20.81,0,0,1-7-5.7,20.37,20.37,0,0,1-3.93-8.6,20.8,20.8,0,0,1,.3-9.49,22,22,0,0,1,4.21-8.14,26,26,0,0,1,5.57-5,31.41,31.41,0,0,1,5.51-3c3.37-1.41,5.92-2.11,7.35-2.73a8.27,8.27,0,0,0,.87-.41c.21-.12.43-.25.41-.29a4.68,4.68,0,0,0-.85.28c-.4.19-.15-.21.23-1.37s.91-2.88,1.59-5.18a43.38,43.38,0,0,0,.89-4.71,103.81,103.81,0,0,0,.6-11.57c.08-4.32.06-9.14.35-14.44.13-2.61.34-4.94.46-7s.16-3.87.12-5.33a14.22,14.22,0,0,0-.41-3.22,2.13,2.13,0,0,0-.43-.95c-.1-.05-.3-.31-.95-.91a27.6,27.6,0,0,0-3.24-2.48l-5.6-3.79a74,74,0,0,1-7.33-5.62A47.19,47.19,0,0,1,325,426.4c-.57-.81-1.08-1.64-1.57-2.48a26.13,26.13,0,0,1-1.37-2.54,25.52,25.52,0,0,1-2.18-15.74,45.2,45.2,0,0,1,1.18-4.85c.45-1.56,1-3.05,1.58-4.49,1.13-2.88,2.19-5.55,3.1-8.13.91-2.81,1.61-5.34,2.46-7.71,1.63-4.72,3.23-9,4.28-13.28a34.76,34.76,0,0,0,1.1-12,14.58,14.58,0,0,0-1.27-4.66,11.69,11.69,0,0,0-1.09-1.82c-.24-.26-.42-.55-.67-.8s-.45-.49-.81-.81A54.85,54.85,0,0,0,325,343.3a49.42,49.42,0,0,1-6.28-5.42,26.06,26.06,0,0,1-4.29-6.1c-.37-.71-.68-1.33-1-2-1.19-2.62-2-5.14-2.82-7.42s-1.51-4.31-2.27-6a24.86,24.86,0,0,0-1.19-2.32,18.36,18.36,0,0,0-1.31-1.9,46.67,46.67,0,0,0-7.95-7.65c-.77-.61-1.58-1.19-2.38-1.77-.42-.32-.76-.54-1.09-.76s-.68-.42-1-.61a16.39,16.39,0,0,0-3.89-1.66c-1.2-.33-2.26-.44-3.08-.77a9,9,0,0,0-3-.66,12.13,12.13,0,0,0-3.83.41,11.11,11.11,0,0,0-2,.7c-.33.15-.64.31-1,.49a3,3,0,0,0-.59.42l-.65.5c-1.72,1.39-3.53,2.94-5.41,4.66s-4,3.49-6.3,5.11a46.93,46.93,0,0,1-7.14,4.15,55,55,0,0,1-7.24,2.83,28.23,28.23,0,0,1-8.49,1.35,18.27,18.27,0,0,1-9.15-2.68,22.83,22.83,0,0,1-6.4-6.19c-.45-.56-.76-1.14-1.15-1.71s-.74-1.16-1-1.67c-.61-1-1.16-2-1.73-3a21,21,0,0,0-3.41-4.44,11,11,0,0,0-.87-.72c-.3-.2-.61-.4-.91-.58a6.68,6.68,0,0,0-1.78-.66,5.68,5.68,0,0,0-1.81-.12,9.62,9.62,0,0,0-2.09.39,23.86,23.86,0,0,0-4.88,2.25l-11.78,7.11c-4,2.42-8,4.79-12,7.25-1.95,1.23-4.12,2.49-5.6,3.55-1.73,1.2-3.66,2.64-5.87,4.09a32.11,32.11,0,0,1-8.07,4,27.4,27.4,0,0,1-2.67.65,23.08,23.08,0,0,1-3,.24q-.81,0-1.62-.09l-.8-.07-.81-.17a14.55,14.55,0,0,1-3.15-1c-.5-.21-1-.43-1.49-.67a14.29,14.29,0,0,1-1.31-.8c-.43-.28-.86-.56-1.28-.86A15,15,0,0,1,145,322a19.12,19.12,0,0,1-3.75-4.86,24,24,0,0,1-2.81-10.34,23.43,23.43,0,0,1,.38-5.42,22.47,22.47,0,0,1,1.82-5.46,36.34,36.34,0,0,1,5.21-7.67c.85-1,1.67-1.9,2.4-2.74s1.4-1.59,1.94-2.28c.29-.36.51-.68.74-1l.31-.46.33-.53a8.78,8.78,0,0,0,.84-1.65c.22-.85.13-.29,0-1.21a14,14,0,0,0-.69-1.93l-.19-.52-.25-.72c-.07-.22-.16-.48-.24-.83l-.24-1c-.08-.35-.14-.78-.2-1.17a9.75,9.75,0,0,1-.1-1.26,12.88,12.88,0,0,1,.14-2.64,13.2,13.2,0,0,1,.57-2.4,14.12,14.12,0,0,1,.78-2,15.56,15.56,0,0,1,.84-1.56l.43-.71c.14-.22.27-.39.41-.59.27-.37.55-.77.82-1.12l.7-.85c.46-.54.92-1.08,1.36-1.56,1.77-2,3.41-3.62,4.8-5.15a28.14,28.14,0,0,0,3.21-4,4.29,4.29,0,0,0,.23-.38l.17-.3c0-.07.09-.17.14-.28s.1-.24.16-.38a16.41,16.41,0,0,0,.64-2.2c.41-1.75.71-3.85,1.11-6.32l.26-1.61c.07-.46.14-.92.2-1.44.12-1,.23-2.1.34-3.29a65.93,65.93,0,0,1,1.17-8,30.53,30.53,0,0,1,1.44-4.67l.25-.6.21-.49.42-.91.78-1.65c.49-1,.88-1.84,1.11-2.45s.33-.94.38-1.09a.67.67,0,0,0,0-.42c0-.05,0-.14,0-.22a.83.83,0,0,0-.1-.27c0-.1-.07-.22-.12-.32l-.15-.26a3.64,3.64,0,0,0-1.53-1.62,4.76,4.76,0,0,0-2.49-.58,5.58,5.58,0,0,0-2.69.86,1.15,1.15,0,0,0-.24.16l-.31.22-.68.51-1.55,1.14a27.89,27.89,0,0,1-4.19,2.5,16.55,16.55,0,0,1-6.15,1.59,15.18,15.18,0,0,1-6.47-1.09,17.22,17.22,0,0,1-5-3,19.4,19.4,0,0,1-3.6-4.09c-.53-.8-.84-1.42-1.23-2.12s-.68-1.39-1-2.1a28.06,28.06,0,0,1-1.41-4.36,27.15,27.15,0,0,1-.58-9.19,25.65,25.65,0,0,1,1-4.68,23.46,23.46,0,0,1,2-4.35,50,50,0,0,1,4.7-6.31,34.67,34.67,0,0,0,3.48-4.68,10.22,10.22,0,0,0,.83-1.92,6.33,6.33,0,0,0,.21-1.73,5.05,5.05,0,0,0-1.34-3.18,5.44,5.44,0,0,0-1.51-1.22,5.85,5.85,0,0,0-1.86-.72,6.54,6.54,0,0,0-1-.13,4.34,4.34,0,0,0-.51,0H140c-.12,0-.14,0-.13,0a5.23,5.23,0,0,0-1.75.75l-3,1.82a18.69,18.69,0,0,1-2.1,1,8.39,8.39,0,0,1-3.46.65,6.12,6.12,0,0,1-2.45-.62,6.05,6.05,0,0,1-1.07-.67,6.93,6.93,0,0,1-.83-.78,8.29,8.29,0,0,1-1.6-2.85,13.46,13.46,0,0,1-.55-2.29,14.16,14.16,0,0,1-.22-2.32,20.93,20.93,0,0,1,1.79-8.2,32.78,32.78,0,0,1,3.82-6.74,25.5,25.5,0,0,1,2.57-3,17.93,17.93,0,0,1,3.26-2.59,25.91,25.91,0,0,1,7.19-2.92c2.38-.61,4.7-1.06,6.9-1.56L150,130c.28-.07.46-.14.7-.21a4.49,4.49,0,0,0,.65-.22,3.63,3.63,0,0,0,1.79-1.28c.83-1.09,1-3.68,1.88-6.13a14.83,14.83,0,0,1,1.75-3.52,20.88,20.88,0,0,1,2.41-2.93,34.56,34.56,0,0,1,5.71-4.52l11.8-7.52a68.89,68.89,0,0,1,12.5-6.49l1.68-.57c.58-.16,1.14-.32,1.72-.46a9.41,9.41,0,0,1,3.66-.13,7.32,7.32,0,0,1,3.37,1.42,6,6,0,0,1,2,3,9.33,9.33,0,0,1-.77,6.94,24.39,24.39,0,0,0-1.26,3.22,4.71,4.71,0,0,0,.14,3.31l.19.37c.08.12.17.23.25.34a3.73,3.73,0,0,0,.58.61,4.28,4.28,0,0,0,1.51.75,10.64,10.64,0,0,0,3.43.3c1.15,0,2.31-.17,3.47-.25a11.36,11.36,0,0,1,3.49.15,16.29,16.29,0,0,1,6.23,3.06c.94.68,1.85,1.41,2.78,2.1.47.34.94.68,1.44,1A2.89,2.89,0,0,0,224.69,122.88Zm0,.18a8.36,8.36,0,0,1-3.12-1.61c-.95-.66-1.89-1.35-2.85-2a15.78,15.78,0,0,0-6.17-2.76,10.94,10.94,0,0,0-3.33,0c-1.14.13-2.29.31-3.49.4a11.35,11.35,0,0,1-3.74-.18,5.44,5.44,0,0,1-1.9-.88,4.74,4.74,0,0,1-.78-.77l-.33-.42-.27-.48a5.94,5.94,0,0,1-.34-4.12,22.49,22.49,0,0,1,1.21-3.45,16.12,16.12,0,0,0,.57-1.53c.09-.25.12-.47.19-.7s.08-.5.1-.76a6.84,6.84,0,0,0-.31-2.9A4.85,4.85,0,0,0,196,97.74a7.59,7.59,0,0,0-3,.17l-1.58.46-1.58.57a67.38,67.38,0,0,0-12,6.58l-11.55,7.75a32.08,32.08,0,0,0-5.14,4.31,14.26,14.26,0,0,0-3.34,5.46,29.63,29.63,0,0,0-.76,3.27,10.73,10.73,0,0,1-1.25,3.67,6.81,6.81,0,0,1-3.13,2.6,16.8,16.8,0,0,1-1.78.66l-1.72.47c-4.52,1.2-9.12,2-12.79,4.4a16.59,16.59,0,0,0-4.56,4.69,29.44,29.44,0,0,0-3.14,5.95,17,17,0,0,0-1.27,6.45,11.63,11.63,0,0,0,.6,3.15,4.1,4.1,0,0,0,.67,1.23,1.28,1.28,0,0,0,.95.46,5.86,5.86,0,0,0,2.78-1.07c1-.58,1.91-1.26,2.92-1.88a11.11,11.11,0,0,1,3.39-1.56,11.62,11.62,0,0,1,3.72-.06,11.15,11.15,0,0,1,3.53,1.09,11.31,11.31,0,0,1,3,2.12,10.9,10.9,0,0,1,3.27,6.48,11.82,11.82,0,0,1-.14,3.66,15.94,15.94,0,0,1-1.2,3.42,35.86,35.86,0,0,1-3.93,5.88,47.54,47.54,0,0,0-4,5.65,16.08,16.08,0,0,0-1.35,3.1,18.59,18.59,0,0,0-.66,3.32,20.77,20.77,0,0,0,3.33,13,11.37,11.37,0,0,0,5.19,4.23,7.9,7.9,0,0,0,6.55-.38,38.08,38.08,0,0,0,5.67-4,13.61,13.61,0,0,1,6.49-2.56,12.94,12.94,0,0,1,6.89,1.09,12.15,12.15,0,0,1,5.23,4.58,11,11,0,0,1,1.89,6.66,19.68,19.68,0,0,1-2.11,6.64A27.64,27.64,0,0,0,177.8,226a53.35,53.35,0,0,0-.88,6.9c-.19,2.32-.37,4.64-.76,6.93s-.61,4.61-1.08,6.89a19.65,19.65,0,0,1-2.37,6.52,36.51,36.51,0,0,1-4.26,5.51c-1.55,1.73-3.18,3.39-4.72,5.13a32,32,0,0,0-2.2,2.7,7.87,7.87,0,0,0-1.43,3.14,6.56,6.56,0,0,0,.57,3.4,20.21,20.21,0,0,1,1.05,3.31,12.25,12.25,0,0,1,.22,3.47,11.39,11.39,0,0,1-.9,3.35,24.83,24.83,0,0,1-3.77,5.84c-1.49,1.79-3.14,3.43-4.69,5.16a27.22,27.22,0,0,0-4.09,5.62,13.87,13.87,0,0,0-1.48,6.73,15.35,15.35,0,0,0,1.61,6.72,11,11,0,0,0,2,2.81c.22.19.42.4.66.57l.71.5c.25.15.47.34.73.48l.79.36a9.74,9.74,0,0,0,6.81.3,26.39,26.39,0,0,0,6.3-2.94c2-1.2,3.89-2.54,5.85-3.79s4-2.35,6-3.51l24.25-13.78a26.46,26.46,0,0,1,6.44-2.61,14.36,14.36,0,0,1,3.45-.43,11.44,11.44,0,0,1,3.44.48,13.41,13.41,0,0,1,5.84,3.65,27.3,27.3,0,0,1,4,5.69c1.13,2,2.18,4.1,3.49,6a16.91,16.91,0,0,0,4.91,4.88A12.57,12.57,0,0,0,241,313.9a20.61,20.61,0,0,0,6.82-1.24A38.6,38.6,0,0,0,260,306c3.56-3,6.25-6.87,9.19-10.46a22.17,22.17,0,0,1,11.23-7.86,19.66,19.66,0,0,1,6.9-.77,21.56,21.56,0,0,1,6.75,1.61,30.06,30.06,0,0,1,6.07,3.38,53.2,53.2,0,0,1,5.34,4.48,50,50,0,0,1,8.91,10.66c2.43,4,3.52,8.6,4.7,13.08a59.39,59.39,0,0,0,2.05,6.65,19.1,19.1,0,0,0,3.52,6c3.06,3.53,7.13,6,10.33,9.33a19.53,19.53,0,0,1,5.36,12.56,51.19,51.19,0,0,1-1.23,13.84c-.92,4.56-2.13,9.05-3.1,13.6A55.46,55.46,0,0,0,334.69,396a41.18,41.18,0,0,0,2.53,13.64,28,28,0,0,0,7.86,11.34c3.52,3.05,7.53,5.44,11.34,8.09s7.47,5.7,9.76,9.79,2.91,8.87,2.84,13.49-.76,9.26-1.22,13.89-.68,9.27-1,13.9A97.22,97.22,0,0,1,365,493.9a53.93,53.93,0,0,1-1.93,6.7,69.18,69.18,0,0,1-2.63,6.45,18.35,18.35,0,0,1-4,5.65,12.14,12.14,0,0,1-2.88,1.94,25.08,25.08,0,0,1-3.26,1.23c-2.22.69-4.5,1.2-6.67,2a14.52,14.52,0,0,0-5.78,3.77,8.26,8.26,0,0,0-1.68,3,7.46,7.46,0,0,0-.17,3.45,7.57,7.57,0,0,0,4,5.4,18.92,18.92,0,0,0,6.7,1.74c2.31.28,4.64.38,6.91.88,9.29,2.19,14.83,11.39,24.15,13.48a14.63,14.63,0,0,0,6.9-.1,6.94,6.94,0,0,0,4.95-4.47,6.58,6.58,0,0,0-.06-3.44,23.74,23.74,0,0,0-1.18-3.28,40.36,40.36,0,0,1-2.29-6.58,10.6,10.6,0,0,1-.22-3.46,7.91,7.91,0,0,1,1.17-3.25,10.72,10.72,0,0,1,5.43-4.17,13.27,13.27,0,0,1,3.4-.75l.87,0,.87,0,1.74.08a32.91,32.91,0,0,1,6.79,1.54c8.83,3,16.52,8.58,25.47,11.25a32,32,0,0,0,6.86,1.2,25.58,25.58,0,0,0,6.92-.62,30,30,0,0,0,12.32-6.25,39.94,39.94,0,0,0,13.63-23.67,43.59,43.59,0,0,0,.55-6.94,69.5,69.5,0,0,1,.83-6.92,59.91,59.91,0,0,0,.75-6.93,22.48,22.48,0,0,0-.17-3.48,22.19,22.19,0,0,0-.82-3.38c-1.37-4.42-3.79-8.56-4.23-13.24a20.69,20.69,0,0,1,.58-6.92A30.58,30.58,0,0,0,470.1,449a12.15,12.15,0,0,0-2.05-6.56,26.11,26.11,0,0,0-4.38-5.39c-3.35-3.24-7.26-5.8-11-8.52s-7.46-5.66-10.07-9.54a14.7,14.7,0,0,1-2.66-6.38,33.74,33.74,0,0,1,.07-7,26,26,0,0,0-.15-6.94,11.33,11.33,0,0,0-1.16-3.26,11,11,0,0,0-2.29-2.61c-1.76-1.52-3.8-2.68-5.57-4.18A14,14,0,0,1,426.9,383a52.44,52.44,0,0,0-2.72-6.41,28,28,0,0,0-4.49-5.3,96.23,96.23,0,0,1-9.07-10.58,133.16,133.16,0,0,1-13.86-24.14c-1-2.12-1.8-4.29-2.71-6.43l-1.33-3.22a26.62,26.62,0,0,1-1.23-3.26,44.07,44.07,0,0,0-2.05-6.65,15.3,15.3,0,0,0-4.58-5.16,26.26,26.26,0,0,1-5.1-4.72,14.08,14.08,0,0,1-2.44-6.47,35.18,35.18,0,0,1-.15-7c.08-2.31.52-4.65,0-6.94a9.66,9.66,0,0,0-3.91-5.56,41,41,0,0,0-6.07-3.4c-4.27-1.91-7.9-4.9-11.7-7.55s-7.55-5.42-11.43-8a48.79,48.79,0,0,0-6-3.57c-2.13-.95-4.35-1.65-6.53-2.45a23.47,23.47,0,0,1-6.21-3.11A14.3,14.3,0,0,1,324,252a11.77,11.77,0,0,1-1.12-1.33,8.91,8.91,0,0,1-1.53-3.12,11.78,11.78,0,0,1,.27-6.88,13.4,13.4,0,0,1,3.78-5.77,17.85,17.85,0,0,1,2.78-2.11,15.39,15.39,0,0,1,3.17-1.45,18.87,18.87,0,0,1,6.89-.79c4.66.25,9.16,1.55,13.77,2.15a27.33,27.33,0,0,0,6.94.12,18.68,18.68,0,0,0,6.58-2.16,24.08,24.08,0,0,0,9.66-9.76,23.07,23.07,0,0,0,2.31-6.54,14.38,14.38,0,0,0-.65-6.85c-1.43-4.44-4-8.4-6.55-12.25-.32-.48-.65-1-1-1.46a6.39,6.39,0,0,0-1.05-1.37,11,11,0,0,1-2.11-2.77,10.43,10.43,0,0,1-1.08-6.78,9.8,9.8,0,0,1,1.18-3.27,26,26,0,0,1,2.06-2.81c.69-.94,1.45-1.83,2.21-2.7a3,3,0,0,0,.42-3.24,9.93,9.93,0,0,0-1.84-2.92c-.75-.88-1.57-1.71-2.36-2.56a48.63,48.63,0,0,0-5-4.83,37.9,37.9,0,0,0-12-6.85A31.83,31.83,0,0,0,336,152.22a26.87,26.87,0,0,0-12.84,5c-1.9,1.33-3.73,2.77-5.71,4a15.2,15.2,0,0,1-6.48,2.45,11.91,11.91,0,0,1-6.73-1.54,20.94,20.94,0,0,1-5.39-4.39,38.45,38.45,0,0,1-4.19-5.57c-1.21-2-2.42-4-3.76-5.87a98.15,98.15,0,0,1-7.43-11.79,24.1,24.1,0,0,1-2.24-6.59,14.08,14.08,0,0,1,.44-6.91,20.41,20.41,0,0,1,3.65-5.91,28.15,28.15,0,0,0,2-2.85,10,10,0,0,0,1.35-3.17,10.92,10.92,0,0,0-1.19-6.71,25.82,25.82,0,0,0-1.74-3,14.85,14.85,0,0,0-2.14-2.71,4.93,4.93,0,0,0-3.2-1.09c-1.15,0-2.31.13-3.47.21a9.88,9.88,0,0,1-3.47-.27l-.83-.32-.76-.43a6.69,6.69,0,0,1-1.43-1,10.12,10.12,0,0,1-3.2-6.07c-.45-2.29-.54-4.62-.86-6.92a15.44,15.44,0,0,0-2.19-6.53,42.52,42.52,0,0,0-4.06-5.65,94.35,94.35,0,0,0-9.93-9.76c-3.49-3-6.93-6.33-11.33-7.94a12.15,12.15,0,0,0-6.83-.51,8.53,8.53,0,0,0-5.61,3.72,13,13,0,0,0-1.41,6.7l0,7,.15,27.89.06,14c.06,2.32.21,4.64.31,7,0,1.16.14,2.32.21,3.48a9.32,9.32,0,0,1-.06,1.75,2.54,2.54,0,0,1-.29.84A.93.93,0,0,1,224.69,123.06Z"/></svg>