<svg id="Layer_1" data-name="Layer 1" xmlns="http://www.w3.org/2000/svg" viewBox="0 0 600 600"><title>Lebanon</title><path d="M106.45,533.26a1.55,1.55,0,0,1,.17-1.5,4.3,4.3,0,0,1,1.1-1.11c.84-.62,1.67-1.26,2.49-1.91,1.65-1.28,3.26-2.64,5-3.8a87.66,87.66,0,0,0,9.92-7.49c3-2.75,5.64-5.94,6.77-9.66a17.66,17.66,0,0,0-.56-11.33c-.32-.93-.7-1.85-1.11-2.75a13.76,13.76,0,0,0-1.42-2.37,39.37,39.37,0,0,1-3.71-5.48,10.93,10.93,0,0,1-1.08-3.81,6.73,6.73,0,0,1,1.15-4.62,13.93,13.93,0,0,1,3.07-2.62,11.88,11.88,0,0,0,1.07-.8,2.56,2.56,0,0,0,.33-.32l.36-.45a14.45,14.45,0,0,0,2.42-4.64,32.75,32.75,0,0,0,1.31-5.55,50.56,50.56,0,0,0,.49-5.82c0-1,0-2,0-3s0-2.13,0-3.19a63.51,63.51,0,0,1,1.26-13.44,30.78,30.78,0,0,1,2.41-7c.31-.58.56-1.18.93-1.74l1.11-1.71,1.33-1.62a16.68,16.68,0,0,1,1.52-1.51,11.7,11.7,0,0,1,1.69-1.36,12.24,12.24,0,0,1,1.84-1.18c.62-.33,1.31-.71,1.91-1s1.17-.49,1.71-.7a18.92,18.92,0,0,0,4.54-2,6.15,6.15,0,0,0,1.12-1.11,10.51,10.51,0,0,0,1.1-1.63,26.89,26.89,0,0,0,2-4.59c.63-1.78,1.22-3.77,2-6l1.07-2.95,1-2.89q2-5.79,3.75-11.66c2.36-7.82,4.29-15.75,6-23.72,3.42-15.93,6.15-32,8.52-48.14l.21-1.51.1-.76.06-.51c.08-.65.12-1.45.14-2.3.06-1.72,0-3.72,0-5.95a57.47,57.47,0,0,1,.37-7.47,31.27,31.27,0,0,1,2.45-9.09,25.74,25.74,0,0,1,1.24-2.38c.21-.39.54-.85.82-1.26a13.68,13.68,0,0,1,.94-1.26,17.59,17.59,0,0,1,5.86-4.71c.62-.28,1.25-.56,1.88-.78s1.25-.37,1.88-.52a19.15,19.15,0,0,1,3.44-.4,24.45,24.45,0,0,1,5.23.48c1.39.27,2.62.59,3.61.86l1.38.36c.12,0,.24.08.36.1a3.18,3.18,0,0,0,1.6-.11c1.49-.4,3.88-2.19,6-4.61a44.86,44.86,0,0,0,5.81-8.63c1.07-2,2-3.75,2.65-5a10.82,10.82,0,0,0,1-3.28l0-.41,0-.53c0-.36,0-.73,0-1.11A22.25,22.25,0,0,0,228,252c-.08-.79-.21-1.79-.32-2.39-.14-.78-.44-1.95-.68-3.64a17.78,17.78,0,0,1-.18-2.87,15.88,15.88,0,0,1,.1-1.66c0-.32.07-.44.1-.65l.09-.58a31.7,31.7,0,0,1,1.08-4.18c.84-2.51,1.73-4.47,2.3-6a20.27,20.27,0,0,0,.65-2.06,12.09,12.09,0,0,0,.27-1.72,16.26,16.26,0,0,0-.35-4.28c-.32-1.62-.83-3.42-1.41-5.35s-1.24-4-1.84-6.34a45.13,45.13,0,0,1-1.3-7.52,26.6,26.6,0,0,1,.7-9,17.42,17.42,0,0,1,2.36-5.16,10.73,10.73,0,0,1,.93-1.23l.51-.59.38-.43c.27-.29.54-.58.79-.88a20.24,20.24,0,0,0,2.56-3.72,16.51,16.51,0,0,0,1.53-4,17.57,17.57,0,0,0,.36-2l.2-3a23.27,23.27,0,0,1,.83-4.79,17.1,17.1,0,0,1,.63-1.69,11.77,11.77,0,0,1,.83-1.58l.45-.75.48-.66a12.9,12.9,0,0,1,1-1.23,24,24,0,0,1,3.85-3.44c1.2-.91,2.3-1.6,3.3-2.25s1.87-1.23,2.6-1.76a5.76,5.76,0,0,0,1.44-1.27l.08-.11.18-.21c.11-.14.24-.27.34-.42s.45-.56.65-.85a19.66,19.66,0,0,0,1.15-1.76,21.44,21.44,0,0,0,1.66-3.81c.21-.66.41-1.32.58-2a5.41,5.41,0,0,1,.15-.56l.29-.85.58-1.69a109.73,109.73,0,0,1,5.4-12.38c1-1.9,1.95-3.76,2.92-5.53l1.4-2.65.17-.32c.06-.11.11-.21.24-.43l.68-1.16a24.58,24.58,0,0,1,1.49-2.27,33.6,33.6,0,0,1,7.7-7.68,39.17,39.17,0,0,1,8.56-4.65,96.63,96.63,0,0,1,14.32-4.06,49.09,49.09,0,0,0,9.15-2.58,8.37,8.37,0,0,0,1.74-1,2.34,2.34,0,0,0,.58-.73,2.77,2.77,0,0,0,.24-.77,11.84,11.84,0,0,0,.06-2.63,46.63,46.63,0,0,0-.63-4.66l-1.13-6.23a67.45,67.45,0,0,1-1-8c-.06-.73,0-1.6,0-2.4V69.54l0-.7.05-3.14,0-1.06,0-.56.06-.75.06-.75c0-.22.08-.7.13-1l.18-1.1c.07-.42.24-1.08.38-1.59a15.94,15.94,0,0,1,.59-1.79,23.63,23.63,0,0,1,1.05-2.22,17.58,17.58,0,0,1,3.55-4.44,20.73,20.73,0,0,1,2.18-1.68,20.06,20.06,0,0,1,1.8-1A15.35,15.35,0,0,1,321.5,47l1.29-.45c.49-.16.79-.24,1.06-.31l.89-.22c.67-.17,1-.21,1.43-.3l.63-.11.53-.08,1-.16,1.81-.24c.94-.1,1.88-.18,2.81-.24a49.13,49.13,0,0,1,9.09.57c2.69.38,5.08.9,7.35,1.42s4.41,1.08,6.44,1.56,4,.87,5.69,1.15l.65.11.59.09c.38.06.8.14,1.12.17l1.23.21c.66.1,1.32.26,2,.39s1.21.28,1.82.45,1.21.33,1.73.5c1.08.37,2.2.73,3.18,1.11l1.51.58c.49.18,1,.39,1.44.59L379.55,55l5.21,2.3c.81.34,1.64.7,2.45,1s1.61.61,2.34.83,1.52.45,2.19.58c.34.07.72.18,1.05.22l.95.11.48,0h1.24c.23,0,.45-.09.69-.12l.35,0c.11,0,.18-.08.28-.11a3.28,3.28,0,0,1,.58-.17l.46-.27a1.14,1.14,0,0,0,.42-.57,32.26,32.26,0,0,0,.31-3.24c.09-.93.23-2.11.49-3.45.12-.64.32-1.36.5-2.07l.34-1.11.18-.56c.11-.26.28-.64.43-1a17.77,17.77,0,0,1,2.41-3.7,16.21,16.21,0,0,1,3.77-3.24,15.51,15.51,0,0,1,5.51-2.13c.52-.1,1.06-.16,1.59-.21s1,0,1.53,0a15.77,15.77,0,0,1,3,.36,17.22,17.22,0,0,1,4.7,1.79,18.46,18.46,0,0,1,2.94,2,30,30,0,0,1,3,2.94,10.73,10.73,0,0,0,2.36,2.27A25.71,25.71,0,0,0,435.35,50c1.67.9,3.66,1.82,5.82,2.95a45.25,45.25,0,0,1,6.8,4.19c.57.41,1.12.91,1.67,1.36l.42.35.55.5c.41.37.68.67,1,1a25,25,0,0,1,5,8,15.1,15.1,0,0,1,1.1,6.39,11.61,11.61,0,0,1-.38,2.26,9.87,9.87,0,0,1-.88,2.24,9.63,9.63,0,0,1-1.27,1.89,10.79,10.79,0,0,1-.78.86c-.27.25-.56.49-.85.73a12.1,12.1,0,0,1-3.33,1.85c-.52.19-1,.3-1.44.43s-.84.18-1.26.26a32.18,32.18,0,0,1-3.74.35l-1.89.11s0,0,0,0l-.29.1a3.36,3.36,0,0,0-.38.19,3.2,3.2,0,0,0-.43.24,19.18,19.18,0,0,0-2,1.37c-.69.54-1.38,1.13-2.07,1.75s-1.33,1.31-2,2a47.38,47.38,0,0,0-3.59,4.38c-.25.38-.52.75-.74,1.11l-.18.27-.12.21c-.08.13-.15.26-.22.4a7.53,7.53,0,0,0-.6,1.68,3.4,3.4,0,0,0,.16,2.47,1.48,1.48,0,0,0,.27.37c.13.12.21.31.32.29a.3.3,0,0,1,.11.07s.08,0,.1,0h0l.1-.06a2.27,2.27,0,0,1,.74-.11c.21,0,.51-.07.76-.09l1-.16c1.5-.24,3.39-.73,5.77-1.14a28.41,28.41,0,0,1,4.11-.43H444c.42,0,.91.06,1.37.1a23,23,0,0,1,2.62.4,30.18,30.18,0,0,1,8.62,3.3c1.25.67,2.37,1.39,3.48,2.07s2.14,1.36,3.08,2.07c.23.18.46.34.7.54l.75.63c.51.42,1,.92,1.48,1.38a16.51,16.51,0,0,1,2.46,3.29c.66,1.17,1.14,2.22,1.53,3a7.87,7.87,0,0,0,1.18,1.74,21.48,21.48,0,0,0,3.2,2.94c.56.42,1.11.78,1.63,1.1.27.16.53.31.79.44l.42.21.71.3.82.37,1,.45a21.64,21.64,0,0,1,2.67,1.49,13.5,13.5,0,0,1,3.5,3.35,12.17,12.17,0,0,1,1.35,2.44c.16.4.29.8.41,1.2a9.3,9.3,0,0,1,.27,1.15c.07.36.12.73.17,1.08l0,.93a11,11,0,0,1-.06,1.67,14.63,14.63,0,0,1-.53,2.83,16.33,16.33,0,0,1-1,2.65c-.18.4-.38.73-.57,1.09a10.38,10.38,0,0,1-.58,1,35.92,35.92,0,0,1-2.33,3.25c-.74.93-1.4,1.81-2,2.6a23.65,23.65,0,0,0-2.45,3.76c-.16.33-.18.54-.24.2s-.2-.31,0,0a18.18,18.18,0,0,0,3.56,2.87c.41.28.9.64,1.37.95s1,.69,1.54,1.13a21.62,21.62,0,0,1,1.71,1.4,14.68,14.68,0,0,1,1.9,2l.46.63.37.59a10.06,10.06,0,0,1,.7,1.27,13.91,13.91,0,0,1,.61,1.48,15.53,15.53,0,0,1,.45,1.69,13.17,13.17,0,0,1,.14,3.59,11.88,11.88,0,0,1-.27,1.62l-.19.75c-.06.24-.13.43-.19.65-.56,1.7-1.11,2.77-1.41,3.51a3.11,3.11,0,0,0-.36,1.24,2.29,2.29,0,0,0,.09.51,7.39,7.39,0,0,0,.42,1,20.66,20.66,0,0,0,2.36,3.35c.55.65,1.15,1.32,1.82,2s1.45,1.55,2.25,2.48,1.62,1.91,2.44,3.08a23.51,23.51,0,0,1,2.38,4.08,15.73,15.73,0,0,1,1.48,6.29,12.54,12.54,0,0,1-.1,2c-.11.71-.26,1.42-.44,2.12a13.79,13.79,0,0,1-1.82,3.8,13.43,13.43,0,0,1-1.2,1.55c-.4.42-.81.84-1.24,1.24a13.47,13.47,0,0,1-1.22,1c-.38.28-.75.54-1.1.77-1.42.93-2.51,1.49-3.17,1.9a9.37,9.37,0,0,0-1.18,1,11.15,11.15,0,0,0-1.21,1.41A27.06,27.06,0,0,0,487,224.7l-1.25,2.66-.68,1.43-.59,1.32c-.81,1.79-1.65,3.73-2.72,5.75a42.22,42.22,0,0,1-3.91,6.29,35.56,35.56,0,0,1-5.9,6.2l-.89.72c-.3.24-.74.53-1.1.79a18,18,0,0,1-2.39,1.47,22.52,22.52,0,0,1-2.54,1.19l-1.29.5-1.28.39c-.42.12-.86.25-1.27.35L460,254c-.84.17-1.57.23-2.33.32a33.93,33.93,0,0,1-4,.15c-2.39-.06-4.15-.22-5.53-.26a12.74,12.74,0,0,0-3.34.2,9.13,9.13,0,0,0-1.55.57,9.61,9.61,0,0,0-1.56,1,21.76,21.76,0,0,0-3.35,3.49c-1.17,1.45-2.41,3.15-3.81,4.94a65.91,65.91,0,0,1-4.67,5.38,101.3,101.3,0,0,0-8.12,8.79c-.52.7-1,1.38-1.44,2.08l-.59,1.05a7.24,7.24,0,0,0-.43.89,7.15,7.15,0,0,0-.65,3.18,3.25,3.25,0,0,0,.08.58,2.21,2.21,0,0,0,.2.55,5,5,0,0,0,.62,1.24,7.49,7.49,0,0,0,2.39,2,43.44,43.44,0,0,0,4.53,2.19c1.82.79,4,1.61,6.33,2.88.6.33,1.19.63,1.82,1.05l.94.59a6.23,6.23,0,0,1,.56.41c.22.16.43.32.63.49a17.86,17.86,0,0,1,4.21,4.94,15.33,15.33,0,0,1-.45,16.45,14.87,14.87,0,0,1-3.75,3.72c-.34.23-.69.45-1,.66s-.65.35-1,.52a17,17,0,0,1-1.9.8,22,22,0,0,1-6.11,1.21,47,47,0,0,1-8.53-.42c-2.43-.3-4.68-.77-6.54-1.1l-1.22-.21a2.2,2.2,0,0,0-.56-.05l.11,0h-.37l-.75,0-1.5-.07-5.93-.25c-1,0-2-.12-2.94-.16s-1.95-.17-2.93-.29c-2-.23-3.89-.56-5.85-.93s-3.93-.83-5.92-1.21-4-.73-6-.94a37.65,37.65,0,0,0-6-.15,38.23,38.23,0,0,0-11.26,2.57,36.53,36.53,0,0,0-9.75,5.44,37.91,37.91,0,0,0-4.26,3.77,47.81,47.81,0,0,0-3.84,4.31c-1.21,1.52-2.32,3.12-3.41,4.75q-.81,1.22-1.56,2.49c-.25.42-.5.85-.74,1.28l-.76,1.34c-1.2,2.07-2.35,3.8-3.43,5.54s-2.07,3.41-2.93,5a27.61,27.61,0,0,0-2,4.7,8.42,8.42,0,0,0-.42,3.4,2.37,2.37,0,0,0,.86,1.45,6.6,6.6,0,0,0,2.6,1.39,40.77,40.77,0,0,0,5.06,1,38.49,38.49,0,0,1,7.44,1.81,19.56,19.56,0,0,1,8.23,5.8,18.88,18.88,0,0,1,2.78,4.53,20.2,20.2,0,0,1,1.4,5.06,22.87,22.87,0,0,1-.78,9.62,28.38,28.38,0,0,1-1.69,4.24c-.32.68-.71,1.33-1.09,2-.19.32-.41.64-.62.95a9.09,9.09,0,0,1-.71,1A17.05,17.05,0,0,1,348.9,406a16.27,16.27,0,0,1-2.16,1.79c-.36.26-.75.54-1.11.76l-1.1.63c-.77.45-1.42.71-2.14,1.05-2.76,1.19-5,1.73-6.62,2.34a9.13,9.13,0,0,0-3,1.48,2.93,2.93,0,0,0-.74,1.19,15.67,15.67,0,0,0-.71,3.59c-.24,1.73-.39,3.92-.85,6.59a32.93,32.93,0,0,1-1.1,4.41,21.66,21.66,0,0,1-2.38,5,19.57,19.57,0,0,1-4,4.42,18,18,0,0,1-1.84,1.38c-.54.39-1.08.74-1.62,1.08-4.3,2.73-8.34,4.52-11.64,6.23a26.7,26.7,0,0,0-7.4,5.12,25.81,25.81,0,0,0-2.79,3.92A51.86,51.86,0,0,1,293.4,463a24.88,24.88,0,0,1-3.33,3.32,24.28,24.28,0,0,1-3.89,2.64,32,32,0,0,1-7.59,2.93c-4.69,1.2-8.59,1.74-11.47,2.74a13.65,13.65,0,0,0-3.74,1.87,22.6,22.6,0,0,0-3.59,3.33c-2.45,2.7-4.84,6.24-7.91,9.81a36.69,36.69,0,0,1-5.38,5.13,21.87,21.87,0,0,1-7.35,3.78,15.38,15.38,0,0,1-9.2-.11,10.41,10.41,0,0,1-2.61-1.35,12,12,0,0,1-1.86-1.68,33.73,33.73,0,0,1-2.19-2.75,6.26,6.26,0,0,0-1.08-1.21,1.69,1.69,0,0,0-.74-.35,2.42,2.42,0,0,0-2,.87,8.07,8.07,0,0,0-1,1.92c-.43,1-.73,1.68-1,2.58a44.08,44.08,0,0,0-1.34,5.62,54.72,54.72,0,0,0-.78,5.92c-.05,2-.26,4-.29,6.08a50.2,50.2,0,0,0,.28,6.14c.21,1.94.63,4,.78,6.34a18.26,18.26,0,0,1-.81,7.46,15.37,15.37,0,0,1-2,3.76,14,14,0,0,1-3,3,26.33,26.33,0,0,1-6.46,3.18c-2,.71-4,1.41-6,2.08a122.86,122.86,0,0,1-12.32,3.57,77.71,77.71,0,0,1-12.77,1.86,56.2,56.2,0,0,1-6.49,0,23,23,0,0,1-3.35-.39,9.13,9.13,0,0,1-3.36-1.47,6.82,6.82,0,0,1-2.76-4.77c0-.3,0-.6-.06-.9l0-.82a15.18,15.18,0,0,0,0-2.95,3.31,3.31,0,0,0-.14-.64,2.29,2.29,0,0,0-.22-.53,2.18,2.18,0,0,0-.87-.74,9.06,9.06,0,0,0-2.77-.83,25.57,25.57,0,0,0-3.06-.32,59,59,0,0,0-6.24,0c-2.08.13-4.16.31-6.25.47-1,.08-2.09.16-3.14.2a14.43,14.43,0,0,1-3.15-.12l-12.43-1.82-6.2-.93-3.1-.47c-.52-.07-1-.16-1.55-.26A1.79,1.79,0,0,1,106.45,533.26Zm0,0a1.82,1.82,0,0,0,1.19.89c.5.08,1,.15,1.54.2l3.12.34,6.25.67L131,536.64c.25,0,.53.06.77.07h.71c.49,0,1-.05,1.5-.09,1-.09,2.05-.21,3.09-.33,2.07-.25,4.15-.52,6.25-.7s4.23-.26,6.38-.22a28.25,28.25,0,0,1,3.27.23,11.11,11.11,0,0,1,3.41.91,4.35,4.35,0,0,1,1.68,1.38,4.45,4.45,0,0,1,.49,1,6.41,6.41,0,0,1,.25.93,16.57,16.57,0,0,1,.17,3.37v.74c0,.21,0,.43.06.65a4.73,4.73,0,0,0,.33,1.2,4.34,4.34,0,0,0,1.56,1.89,6.54,6.54,0,0,0,2.46,1,20.44,20.44,0,0,0,2.93.24,46.43,46.43,0,0,0,6.12-.27,75.72,75.72,0,0,0,12.12-2.38c4-1.12,7.89-2.53,11.77-4,1.94-.75,3.88-1.53,5.81-2.32a22.69,22.69,0,0,0,5.33-2.74,9.3,9.3,0,0,0,3.23-4.57,18.38,18.38,0,0,0,.8-5.88c0-2.05-.15-4.13-.19-6.25l0-6.3a88.29,88.29,0,0,1,.8-12.58,32.5,32.5,0,0,1,3.75-12.09,7,7,0,0,1,5.64-3,6.18,6.18,0,0,1,3.14.92,8.82,8.82,0,0,1,2.37,2.18c.68.81,1.29,1.65,2,2.38a6,6,0,0,0,2.49,1.64,10.12,10.12,0,0,0,6-.18c3.95-1.28,7.08-4.29,9.65-7.52s4.75-6.86,7.33-10.17a30.69,30.69,0,0,1,4.3-4.6,20.71,20.71,0,0,1,5.36-3.3c3.87-1.68,8-2.42,12-3.67a27.19,27.19,0,0,0,5.75-2.43,16.55,16.55,0,0,0,4.67-4.07c2.58-3.29,4.16-7.26,6.85-10.49s6.29-5.55,9.95-7.54,7.49-3.73,11-6a14.6,14.6,0,0,0,4.64-4.13,15.73,15.73,0,0,0,2.13-5.86c.76-4.09.7-8.4,2.42-12.26a11.93,11.93,0,0,1,3.92-4.81,19.64,19.64,0,0,1,5.7-2.55c2-.61,4-1.08,6-1.87a12,12,0,0,0,5.07-3.57,16.51,16.51,0,0,0,3.62-11.69,11.82,11.82,0,0,0-.76-3,11.22,11.22,0,0,0-1.59-2.69,11.92,11.92,0,0,0-5-3.64c-3.91-1.55-8.19-1.69-12.13-3.11a13.3,13.3,0,0,1-5.23-3.36,9.18,9.18,0,0,1-2.5-5.62,15,15,0,0,1,1-6.14,34.85,34.85,0,0,1,2.74-5.63c2.11-3.62,4.67-6.94,6.93-10.45a87.17,87.17,0,0,1,7.31-10.19,51.78,51.78,0,0,1,19.82-15,68.78,68.78,0,0,1,12-3.57,108.16,108.16,0,0,1,12.4-1.87,167.84,167.84,0,0,1,25.07-.27c1,.07,2.08.12,3.13.2s2.06.36,3.08.58c2,.47,4.07,1,6.12,1.37a31.77,31.77,0,0,0,6.22.69,10.79,10.79,0,0,0,3.1-.42,4.92,4.92,0,0,0,2.57-1.71,5.13,5.13,0,0,0,.91-2.94,6.47,6.47,0,0,0-.77-3,8.63,8.63,0,0,0-1.9-2.47,20.75,20.75,0,0,0-2.53-1.85c-3.52-2.26-7.45-3.83-10.8-6.37a15,15,0,0,1-4.15-4.63,13.24,13.24,0,0,1-1.17-2.9,10.46,10.46,0,0,1-.45-3.09,15.21,15.21,0,0,1,1.38-6.08,29.82,29.82,0,0,1,3.23-5.36c2.48-3.37,5.41-6.37,8.15-9.53a57.4,57.4,0,0,0,3.89-4.91l3.52-5.2c2.37-3.4,5.18-6.7,8.95-8.6a20.42,20.42,0,0,1,5.95-1.92c2.06-.35,4.15-.47,6.23-.65a26.7,26.7,0,0,0,6.15-1.14,15.69,15.69,0,0,0,5.39-3.13,43.66,43.66,0,0,0,7.9-9.69l3.34-5.31c1.14-1.75,2.28-3.5,3.46-5.23,2.36-3.41,5.07-6.78,8.81-8.76,1.82-1,3.84-1.83,5.07-3.57a4.59,4.59,0,0,0,.92-2.93,7.6,7.6,0,0,0-.71-3c-1.73-3.86-4.93-6.72-7.51-10a23.1,23.1,0,0,1-3.31-5.3,12.63,12.63,0,0,1-.86-3,9.61,9.61,0,0,1,.12-3.12c.41-2.07,1.64-3.84,2.4-5.78a6.1,6.1,0,0,0,.44-3.07,7,7,0,0,0-1.16-2.88,10.77,10.77,0,0,0-2.16-2.26c-.8-.67-1.65-1.28-2.5-1.89a24.66,24.66,0,0,1-4.77-4,6.25,6.25,0,0,1-1.34-2.79,6.54,6.54,0,0,1,.26-3.1,23.92,23.92,0,0,1,2.8-5.58,50.7,50.7,0,0,0,3.13-5.44,10,10,0,0,0,1-6.08,3.69,3.69,0,0,0-1.8-2.45,15.88,15.88,0,0,0-2.86-1.27,24.25,24.25,0,0,1-5.62-2.76,33.38,33.38,0,0,1-4.87-3.93,59.56,59.56,0,0,1-4.07-4.77,38.61,38.61,0,0,0-4.4-4.46,44.91,44.91,0,0,0-4.94-3.86,21.16,21.16,0,0,0-5.62-2.72,18.88,18.88,0,0,0-6.22-.51c-2.09.1-4.18.31-6.27.29a11.92,11.92,0,0,1-6-1.37,8.6,8.6,0,0,1-3.68-4.9,10.93,10.93,0,0,1,.14-6.18,17.2,17.2,0,0,1,3-5.48c1.24-1.68,2.58-3.29,4-4.85a51.45,51.45,0,0,1,4.45-4.41,17.35,17.35,0,0,1,5.24-3.39c2-.6,4.14-.57,6.18-1a6.38,6.38,0,0,0,2.85-1.22,3.8,3.8,0,0,0,1.35-2.73,7.23,7.23,0,0,0-.71-3,14.57,14.57,0,0,0-1.58-2.7,16,16,0,0,0-2.06-2.36,17.55,17.55,0,0,0-2.52-1.85c-3.57-2.23-7.63-3.41-11.55-4.83A30.25,30.25,0,0,1,421,53.62c-.76-.72-1.5-1.46-2.32-2.1a6.68,6.68,0,0,0-2.76-1.42,4.08,4.08,0,0,0-3,.53,6.13,6.13,0,0,0-2.1,2.28,42.28,42.28,0,0,0-2.17,5.88A19.5,19.5,0,0,1,406,64.46a12.94,12.94,0,0,1-4.81,3.93c-.23.12-.45.26-.69.37l-.74.27-1.47.54-1.53.35-.76.18-.78.1a42.57,42.57,0,0,1-12.49-.5c-4.12-.69-8.19-1.68-12.26-2.63-2-.48-4.08-.93-6.13-1.32s-4.13-.66-6.17-1.14c-4.08-.92-8.1-2.07-12.18-3A49.49,49.49,0,0,0,333.56,60c-1,.08-2.08.18-3.12.34a21.35,21.35,0,0,0-3.07.6,3.74,3.74,0,0,0-.72.29l-.35.18-.3.24a2.57,2.57,0,0,0-.77,1.33,14.72,14.72,0,0,0-.31,3.11c0,2.09-.12,4.19,0,6.27a54.2,54.2,0,0,0,.78,6.22c.72,4.12,1.66,8.21,2,12.39a26.68,26.68,0,0,1-.23,6.25,17.34,17.34,0,0,1-6.14,10.63,21.87,21.87,0,0,1-5.38,3.2c-7.76,3.26-16.35,3.53-24.2,6.5a21.72,21.72,0,0,0-10.05,7.18,62.06,62.06,0,0,0-3.26,5.35l-3.17,5.42c-2.11,3.61-4.18,7.24-6,11-.93,1.87-1.75,3.81-2.85,5.59a32.15,32.15,0,0,1-3.75,5,30.82,30.82,0,0,1-4.69,4.15,53.36,53.36,0,0,1-5.5,3,19.64,19.64,0,0,0-5.17,3.5,7.45,7.45,0,0,0-1.63,2.64,14.51,14.51,0,0,0-.6,3.07c-.11,1-.17,2.08-.29,3.12a26.54,26.54,0,0,1-.58,3.08,25.21,25.21,0,0,1-2.3,5.82,28.67,28.67,0,0,1-3.6,5.13,30.52,30.52,0,0,0-2.05,2.37,9.54,9.54,0,0,0-1.29,2.83,17.6,17.6,0,0,0-.44,6.22,35.85,35.85,0,0,0,1.11,6.16c1.06,4,2.56,8,3.42,12.07a26.61,26.61,0,0,1,.61,6.23,21,21,0,0,1-1.25,6.13c-.67,2-1.49,3.91-2.12,5.9a13.36,13.36,0,0,0-.78,6.15,42,42,0,0,1,1.45,12.42,19.57,19.57,0,0,1-1.53,6.07c-.81,1.93-1.82,3.77-2.74,5.64a55,55,0,0,1-6.69,10.59,32.62,32.62,0,0,1-4.4,4.47,19,19,0,0,1-5.35,3.25,13.37,13.37,0,0,1-6.16.9,23,23,0,0,1-3.08-.61c-1-.24-2-.48-3.06-.67a9.77,9.77,0,0,0-6.12.42,9,9,0,0,0-4,4.65c-1.68,3.86-1.78,8.15-1.77,12.3,0,2.1.06,4.19,0,6.28a50.09,50.09,0,0,1-.59,6.24,386,386,0,0,1-9.87,49.18q-3.3,12.11-7.51,23.94-2.12,5.91-4.46,11.72c-.78,1.94-1.59,3.87-2.4,5.8s-1.5,3.9-2.3,5.83a32,32,0,0,1-2.85,5.59,14.1,14.1,0,0,1-4.42,4.41,28.08,28.08,0,0,1-5.84,2.28,16.1,16.1,0,0,0-5.49,2.9,14.44,14.44,0,0,0-1.15,1.06l-1,1.17a21.26,21.26,0,0,0-1.69,2.62,26.88,26.88,0,0,0-2.28,5.81,60.19,60.19,0,0,0-1.76,12.39c-.11,2.08-.14,4.18-.33,6.26a50.06,50.06,0,0,1-.88,6.22,35.8,35.8,0,0,1-1.79,6,17.37,17.37,0,0,1-3.25,5.35c-1.35,1.67-3.58,2.23-4.91,3.84a4.46,4.46,0,0,0-.75,2.94,8.92,8.92,0,0,0,.77,3,39.59,39.59,0,0,0,3.35,5.29,20.63,20.63,0,0,1,2.55,5.71,23.65,23.65,0,0,1,1.08,6.18,16.47,16.47,0,0,1-1,6.18c-1.39,4-4.3,7.23-7.47,9.92-1.61,1.34-3.29,2.58-5,3.76s-3.56,2.21-5.35,3.28a45.46,45.46,0,0,0-5.18,3.53l-2.49,1.9a4.42,4.42,0,0,0-1.1,1.1A1.56,1.56,0,0,0,106.47,533.25Z"/></svg>