<svg id="Layer_1" data-name="Layer 1" xmlns="http://www.w3.org/2000/svg" viewBox="0 0 600 600"><title>Libya</title><path d="M116.83,95.7a34.79,34.79,0,0,1,1.24,6.71,10.31,10.31,0,0,1-1.67,6.6,16,16,0,0,1-5.32,4.54c-2,1.14-4.16,2-6.15,3a38.22,38.22,0,0,0-17.67,18.95,38.82,38.82,0,0,0-2.08,6.16,36.44,36.44,0,0,0-.9,6.38c-.24,4.31.23,8.91-.16,13.79a23.19,23.19,0,0,1-1.77,7.58,13.79,13.79,0,0,1-1,1.89A22,22,0,0,1,80,173.12a21.79,21.79,0,0,1-1.64,1.55A22.43,22.43,0,0,1,76.54,176a32.56,32.56,0,0,1-7.2,2.56,12.87,12.87,0,0,0-2.5,1c-.33.21-.64.43-1,.63s-.56.51-.85.74c-2.09,2.08-2.94,5.77-3,9.75a44.72,44.72,0,0,0,.38,6.15c.13,1,.3,2.1.48,3.16l.59,3.3q2.48,13.64,4.07,27.44t2.28,27.72l.3,6.85c.1,2.08.29,4.23.49,6.52s.39,4.69.48,7.25a49.29,49.29,0,0,1-.39,8.2,38.53,38.53,0,0,1-2.17,8.59c-.25.7-.58,1.37-.87,2.06s-.62,1.35-1,2l-.52,1-.49.91-.88,1.53c-2.31,4-4.11,7.36-4.58,9.79a8.51,8.51,0,0,0-.19,1.63,4.56,4.56,0,0,0,0,.73,4.65,4.65,0,0,0,.08.71,3.64,3.64,0,0,0,.87,1.78,25.07,25.07,0,0,0,3,2.94c1.53,1.32,3.56,3,5.71,5.17a32.43,32.43,0,0,1,5.9,8.31,44.43,44.43,0,0,1,3,8.66c.65,2.56,1.12,4.74,1.61,6.4a11.22,11.22,0,0,0,1.41,3.33,4.34,4.34,0,0,0,1.42,1.19c.17.07.35.25.47.26a.73.73,0,0,1,.29.11.59.59,0,0,1,.3,0,3,3,0,0,1,.41,0,20.24,20.24,0,0,0,3.54-.17c1.76-.18,4.06-.55,7-.78a32,32,0,0,1,11.12,1,26,26,0,0,1,11.79,7.15,31.73,31.73,0,0,1,6.2,10.05c1.22,3.05,2,5.68,2.63,7.94s1.22,4.11,1.77,5.51a9.06,9.06,0,0,0,1.36,2.58,3.15,3.15,0,0,0,1.13.86,9.64,9.64,0,0,0,2.13.68,44.57,44.57,0,0,0,9.68.55c4.09-.06,8.79-.38,14-.29A62.65,62.65,0,0,1,175,392l2.51.89c.84.33,1.69.71,2.52,1.08s1.68.85,2.52,1.28l.62.34.48.29.91.55,1.82,1.12c.61.37,1.15.76,1.73,1.14l1.68,1.15L191.4,401l5.5,4.08,1.11.78a5.28,5.28,0,0,0,.49.33l.45.28c.67.47,1,.56,1.43.83.62.24.56.07.39.08,0-.11-.12,0,.07-.1h.09a.22.22,0,0,0,.16,0,3.37,3.37,0,0,1,.48-.15l.25,0,.38-.16.77-.26a5.19,5.19,0,0,0,.9-.38l1-.43.5-.2.8-.4,1.64-.79c1.12-.52,2.23-1.05,3.38-1.55,2.32-1,4.66-2,7.12-2.86s5-1.7,7.57-2.45,5.28-1.4,8.07-1.9c.7-.12,1.4-.25,2.09-.39s1.43-.22,2.14-.32c1.41-.23,2.89-.36,4.36-.48.72-.08,1.47-.1,2.23-.13l2.25-.1c.76,0,1.54,0,2.3,0s1.52,0,2.31.06c1.56.13,3.11.21,4.69.47l2.36.34c.77.15,1.54.34,2.31.51a75.62,75.62,0,0,1,16.25,5.8c4.82,2.24,9.15,4.67,13.31,6.91,1,.56,2.05,1.13,3.07,1.66l3,1.58c1,.5,2,1,2.91,1.49s1.92.94,2.83,1.34c1.84.82,3.64,1.6,5.28,2.15l2.76,1,3.11,1c8.31,2.73,16.73,5.16,25.2,7.5s16.92,4.76,25.41,7.3l6.36,1.93,6.36,2c1.06.36,2.15.61,3.18,1.05a9.23,9.23,0,0,1,2.86,2,20.45,20.45,0,0,1,2.49,3.24c.8,1.16,1.56,2.46,2.38,3.6a16.45,16.45,0,0,0,2.61,2.95,11.4,11.4,0,0,0,3,1.8c2.07,1,4.16,1.88,6.26,2.78,4.21,1.75,8.48,3.33,12.83,4.71l6.61,2c2.24.64,4.49,1.3,6.77,2,4.55,1.39,9.18,2.91,13.79,4.77a125.08,125.08,0,0,1,13.78,6.57c1.13.63,2.27,1.27,3.39,2s2.24,1.38,3.35,2.1l.84.54.74.5,1.48,1,2.89,2c7.59,5.24,14.69,10.06,21.61,13.66a62.61,62.61,0,0,0,10.19,4.3,35.42,35.42,0,0,0,4.6,1.15,16.34,16.34,0,0,0,3.62.29,19.06,19.06,0,0,0,7.63-2.14,35.31,35.31,0,0,1,7.84-3.13l.84-.2.91-.18c.57-.09,1.16-.18,1.7-.22a19,19,0,0,1,3,0,35,35,0,0,1,4.38.63,19.91,19.91,0,0,0,2.55.41h.37l.27,0a2.47,2.47,0,0,0,.38-.05l.42-.1a7.83,7.83,0,0,0,2.43-.94c.12-.08.21-.16.3-.23s.07-.07.13-.09a1.35,1.35,0,0,0,.27-.42,8,8,0,0,0,.25-3,30.47,30.47,0,0,0-.81-5c-.24-.95-.51-1.92-.8-3s-.62-2.19-1-3.19l-2.06-6.2-1-3.1-1.14-3.65c-.37-1.24-.78-2.4-1.1-3.7a44.36,44.36,0,0,1-.88-4.4l-.83-7.08-.37-3.44c-.07-.57.16-1.18,0-1.74s-.32-1.13-.5-1.69c-.8-2.24-1.95-4.44-2.37-6.72-1.45-9.14-2.65-18.29-3.83-27.43-2.31-18.28-4.37-36.45-6.44-54.57s-3.65-36.29-5-54.49l-.87-13.65-.43-6.83a55.76,55.76,0,0,1-.18-6.84c.19-4.58,1.63-9.23,2.91-13.86a64.73,64.73,0,0,0,1.58-6.94c.38-2.3.56-4.59.81-6.89.92-9.18,2.05-18.37,2.25-27.51.15-4.57,0-9.12-.15-13.68-.08-2.28-.27-4.55-.4-6.82s-.35-4.55-.61-6.82c-.42-4.54-1.07-9.07-1.75-13.6s-1.43-9-2.1-13.64-1.32-9.36-1.58-14.24c-.08-1.21-.11-2.44-.14-3.67v-2.07c0-.76,0-1.47.11-2.18a69.64,69.64,0,0,1,1-7.77c.39-2.35.86-4.45,1.17-6.34l.86-5,.35-2.09c.05-.73.21-1.53.25-2.17a24.08,24.08,0,0,0,.26-3.55,4.68,4.68,0,0,0-1.22-3.11,9.65,9.65,0,0,0-4.23-2.48c-3.65-1.21-8.1-1.06-12.61-1.12s-9.34.11-14.5-.66a40,40,0,0,1-3.94-.81c-.67-.19-1.33-.36-2-.62s-1.36-.49-1.95-.76A63.62,63.62,0,0,1,468,104c-2-1.21-3.94-2.41-5.78-3.43l-2.8-1.39c-.47-.22-.92-.47-1.4-.68l-1.46-.57a60.55,60.55,0,0,0-11.93-3.53,68.53,68.53,0,0,0-24.65-.06,61,61,0,0,0-22.53,8.85L395,104.92l-1.21.87-1.13.93a47.62,47.62,0,0,0-4.16,4,31.7,31.7,0,0,0-5.83,8.93,17.61,17.61,0,0,0-1.26,4.53,16.13,16.13,0,0,0,0,4.39c.42,3.11,1.72,7,3.12,11.62a59.47,59.47,0,0,1,1.84,7.87,31.75,31.75,0,0,1,0,9.64,28.28,28.28,0,0,1-1.33,5.09c-.34.81-.69,1.63-1.06,2.43s-.85,1.53-1.29,2.29a29.3,29.3,0,0,1-6.72,7.38,35.78,35.78,0,0,1-7.93,4.66,39.9,39.9,0,0,1-8.32,2.62,41,41,0,0,1-8.57.84c-1.41,0-2.71-.09-4.06-.16s-2.67-.22-4-.44a69.63,69.63,0,0,1-14.93-3.9,127.54,127.54,0,0,1-13.33-5.92c-8.45-4.27-16.25-8.87-24.09-12.64S275,153.27,267,152.58c-2-.2-4.28-.23-6.64-.36a62.87,62.87,0,0,1-7.51-.74,24,24,0,0,1-8.3-2.9l-1-.65c-.34-.23-.66-.51-1-.76a14.14,14.14,0,0,1-1.82-1.73,16.43,16.43,0,0,1-1.53-2,23.4,23.4,0,0,1-1.18-2.13,19.75,19.75,0,0,1-1.58-8.84c.09-2.69.48-5,.64-7a14.51,14.51,0,0,0-.24-5.18,9.4,9.4,0,0,0-.92-2.14,8.23,8.23,0,0,0-1.42-1.8,13.48,13.48,0,0,0-4.62-2.63c-.94-.35-2-.67-3.07-1l-3.26-1q-6.51-2-13.06-4c-17.45-5.16-35-10-52.66-14.64-8.8-2.39-17.71-4.3-26.6-6.33-2.23-.48-4.42-1.16-6.6-1.82-1.09-.33-2.18-.65-3.28-.93a7.09,7.09,0,0,0-3.31-.35,3.12,3.12,0,0,0-2.43,2,8,8,0,0,0-.2,3.35A51.22,51.22,0,0,0,116.83,95.7Zm0,0c-.28-1.1-.67-2.18-1-3.27a25.86,25.86,0,0,1-.75-3.36,8.22,8.22,0,0,1,.09-3.52,3.35,3.35,0,0,1,1-1.58,4.08,4.08,0,0,1,1.68-.83,5.54,5.54,0,0,1,1.86-.1c.62.1,1.15.21,1.72.33,1.13.24,2.24.53,3.35.82,2.21.58,4.38,1.17,6.6,1.56,9,1.71,18,3.23,26.79,5.44,17.77,4.09,35.52,8.29,53.17,12.86,4.41,1.15,8.82,2.31,13.22,3.51,2.21.62,4.39,1.14,6.63,1.85a18.41,18.41,0,0,1,6.28,3.3,13.58,13.58,0,0,1,4,6,18.72,18.72,0,0,1,.74,7c-.11,2.31-.41,4.57-.42,6.79a14.39,14.39,0,0,0,1.22,6.36,10.68,10.68,0,0,0,4.36,4.64,17.65,17.65,0,0,0,6.27,2c4.44.65,9,.37,13.59.61,9.22.45,18.06,3.42,26.4,7.08s16.36,8.06,24.61,11.9,16.83,7.18,25.88,8.28a40.15,40.15,0,0,0,13.57-.35,31.45,31.45,0,0,0,6.5-2,26.45,26.45,0,0,0,5.87-3.45,20.42,20.42,0,0,0,4.58-5,16.49,16.49,0,0,0,2.41-6.34c.76-4.53-.26-9.12-1.49-13.47s-2.7-8.73-3.15-13.28a26,26,0,0,1,2.36-13.3,39.44,39.44,0,0,1,7.8-11.13,53.63,53.63,0,0,1,5.1-4.55l1.36-1,1.42-1,2.83-1.91A71.29,71.29,0,0,1,446,88.31a66.41,66.41,0,0,1,12.89,4.46l1.56.7c.51.25,1,.54,1.5.81l3,1.65c2,1.17,3.84,2.45,5.77,3.66a48.91,48.91,0,0,0,6,3.32,24.11,24.11,0,0,0,6.56,1.85,83.92,83.92,0,0,0,13.64.42,80.68,80.68,0,0,1,13.64.45,22.14,22.14,0,0,1,6.52,2,13.9,13.9,0,0,1,5.17,4.36,17.64,17.64,0,0,1,2.7,6.22,28,28,0,0,1,.79,6.77c0,4.57-1,9.05-1.89,13.52-.44,2.23-.84,4.48-1.08,6.74s-.27,4.55-.31,6.83c-.06,4.55.08,9.11.28,13.66.42,9.1.95,18.2,1.45,27.3l3,54.59,6.1,109.17c1.06,18.19,2,36.39,3.31,54.57.65,9.09,1.36,18.17,2.23,27.25q.65,6.8,1.41,13.59L541,459a31.88,31.88,0,0,0,.68,3.34c.27,1.11.66,2.18,1,3.27,1.35,4.35,2.82,8.67,4.23,13s2.66,8.75,3,13.3a18.41,18.41,0,0,1-.61,6.77,11.72,11.72,0,0,1-3.68,5.64,17.2,17.2,0,0,1-6,3.25,23.91,23.91,0,0,1-6.73,1,22.13,22.13,0,0,0-6.72,1,55.26,55.26,0,0,0-6.17,2.94,32.81,32.81,0,0,1-13,4,36.06,36.06,0,0,1-13.46-1.91A76.58,76.58,0,0,1,481,509.31c-8.09-4.23-15.55-9.5-23.06-14.66a131.84,131.84,0,0,0-11.52-7.33,122.08,122.08,0,0,0-12.33-5.88c-8.43-3.48-17.13-6.23-25.82-9l-26.05-8.26c-17.35-5.59-34.61-11.47-51.53-18.24-8.46-3.39-16.83-7-25.07-10.9-2-1-4.13-1.93-6.14-3s-4-2.21-5.93-3.39c-3.88-2.39-7.65-4.94-11.47-7.43s-7.66-4.94-11.68-7.08a53.66,53.66,0,0,0-12.66-5.05,37.71,37.71,0,0,0-13.56-.66A62.38,62.38,0,0,0,231,411.73a113.89,113.89,0,0,0-12.49,5.52c-4.08,2-7.95,4.53-12.37,5.76l-1.65.43a13.8,13.8,0,0,1-1.69.26,17.76,17.76,0,0,1-3.42.1,18.7,18.7,0,0,1-6.51-2c-4-2.17-7.48-5.2-11.13-7.91-.91-.68-1.83-1.36-2.77-2s-1.88-1.28-2.85-1.88a26.27,26.27,0,0,0-6.12-3A49,49,0,0,0,156.51,405c-4.55-.16-9.11,0-13.66-.09a53.23,53.23,0,0,1-13.55-1.55,21.55,21.55,0,0,1-6.21-2.83,18.19,18.19,0,0,1-4.81-4.81c-2.55-3.84-3.62-8.37-4.74-12.76a63.9,63.9,0,0,0-1.92-6.55,18,18,0,0,0-3.37-5.88,12.66,12.66,0,0,0-5.7-3.57,19.9,19.9,0,0,0-6.75-.66c-4.52.2-9.11,1.12-13.63.2-.55-.15-1.11-.26-1.65-.43l-1.61-.61-1.51-.81a16.67,16.67,0,0,1-1.41-1,16.41,16.41,0,0,1-4.53-5.07c-2.27-4-2.81-8.67-3.82-13.08A32,32,0,0,0,65.58,339a22.1,22.1,0,0,0-3.82-5.61c-3-3.36-6.94-6-9.47-9.82A14.55,14.55,0,0,1,50,315.45a12.21,12.21,0,0,1,.05-1.71,19.34,19.34,0,0,1,.64-3.36c1.25-4.42,3.78-8.3,6.2-12.14a39.83,39.83,0,0,0,3.27-6A29.11,29.11,0,0,0,62,285.72a63.92,63.92,0,0,0,.4-13.62c-.1-2.28-.19-4.56-.2-6.83v-6.84q-.07-13.67-1-27.31t-2.83-27.18a66.12,66.12,0,0,1-.91-13.62,25.57,25.57,0,0,1,1.25-6.71,13.42,13.42,0,0,1,3.65-5.73c.45-.35.88-.73,1.36-1s1-.58,1.49-.84a17.93,17.93,0,0,1,3.24-1.1,28.67,28.67,0,0,0,6.51-2c.5-.26,1-.61,1.43-.92s.84-.75,1.27-1.12.74-.86,1-1.33a14.51,14.51,0,0,0,.85-1.48,20.8,20.8,0,0,0,1.76-6.54c.57-4.52.29-9.1.69-13.64a38.44,38.44,0,0,1,1.2-6.73,41.36,41.36,0,0,1,2.42-6.39,39.76,39.76,0,0,1,18.93-19c2.06-1,4.19-1.78,6.21-2.84a16.54,16.54,0,0,0,5.39-4.1,9.34,9.34,0,0,0,1.9-6.4A31.31,31.31,0,0,0,116.83,95.7Z"/></svg>