<svg id="Layer_1" data-name="Layer 1" xmlns="http://www.w3.org/2000/svg" viewBox="0 0 600 600"><title>Lituania</title><path d="M141.85,108.84c-2,.09-4,.13-6,.25-1,.06-2,.1-3,.19s-2,.29-3,.47l-3,.56c-1,.16-2,.17-3,.34-2,.33-3.91.68-5.84,1.12a44,44,0,0,0-5.76,1.4c-1.89.58-3.76,1.18-5.6,1.86a65.08,65.08,0,0,0-10.56,5,42.56,42.56,0,0,0-4.73,3.27l-1.08.87-1,1a23,23,0,0,0-1.89,2,56,56,0,0,0-6.24,9.69,81.29,81.29,0,0,1-6.51,10.61l-1,1.29L72.68,150a26.85,26.85,0,0,1-2.39,2.38c-.81.79-1.78,1.42-2.67,2.14s-1.89,1.25-2.8,1.79c-1.81,1.08-3.48,2-4.81,3-.33.24-.64.49-.93.73a8.53,8.53,0,0,0-.67.68,5.84,5.84,0,0,0-1,1.46,11.92,11.92,0,0,0-1,4.1c-.16,1.64-.24,3.68-.3,5.61a187.5,187.5,0,0,0,.61,23.24A196.08,196.08,0,0,0,60.11,218a205.16,205.16,0,0,0,6,22.13l.9,2.71,1,2.68,1,2.68,1.07,2.65,1.06,2.64,1.12,2.61c.74,1.75,1.5,3.52,2.27,5.09a28.7,28.7,0,0,0,4.81,7.47,13.33,13.33,0,0,0,2.59,2.09,23.93,23.93,0,0,0,3.66,1.83c1.42.59,3.06,1.16,4.85,1.76l5.64,1.86L107.41,280l11.36,3.83,11.32,3.91c7.52,2.61,15.26,5.25,23.08,8.42a146.3,146.3,0,0,1,23.27,11.67c1.89,1.2,3.77,2.45,5.6,3.78s3.7,2.76,5.46,4.27a88.76,88.76,0,0,1,9.94,9.84,70.39,70.39,0,0,1,14.22,25.21c.18.6.38,1.2.55,1.81l.45,1.85.44,1.85.33,1.89c.21,1.26.43,2.53.52,3.81a39.67,39.67,0,0,1,.27,4.09,43.21,43.21,0,0,1-.14,4.33c-.15,1.29-.28,2.66-.49,3.85-.38,2.5-.89,4.73-1.4,6.93-1.05,4.32-2.21,8.28-3.26,12.05s-2,7.32-2.65,10.62a32.71,32.71,0,0,0-.71,8.4,7.74,7.74,0,0,0,.54,2.25,2.36,2.36,0,0,0,.63.82,5,5,0,0,0,1.22.73,14.67,14.67,0,0,0,2.62.93,23,23,0,0,0,3.67.67c1.37.17,2.92.23,4.75.29s3.84.1,6.19.24a65.28,65.28,0,0,1,7.67.84c1.36.21,2.83.58,4.26.93s2.91.85,4.36,1.44a42.47,42.47,0,0,1,4.26,1.89l.51.25.43.23.85.45c.57.3,1.13.64,1.7.95a61.58,61.58,0,0,1,12.89,9.83,50.93,50.93,0,0,1,5.7,6.83,44.6,44.6,0,0,1,2.49,4c.38.64.8,1.54,1.19,2.36s.69,1.61,1,2.43a68.75,68.75,0,0,1,2.39,8,44.39,44.39,0,0,0,1.23,4.34c.31.81.49.92.49.81a11.45,11.45,0,0,0,1.12,1,14,14,0,0,0,4.3,2.37c.45.16.88.25,1.35.43a7.12,7.12,0,0,1,1.51.76c.49.35,1.08.73,1.66,1.19a20.68,20.68,0,0,0,2,1.27,10.79,10.79,0,0,0,4.77,1.37c1.76.14,3.6.26,5.58.35s4,.11,6.23.2,4.47.16,6.87.36l12.16,1.09c4,.35,7.92.72,11.87,1.14s7.9.88,11.85,1.37l3,.36c.93.1,2.16.27,2.61.27.61,0,1.27.15,1.84.12s1.19,0,1.75-.05a17.75,17.75,0,0,0,6.65-1.84,43,43,0,0,0,7.7-5.09c2.8-2.2,5.83-4.84,9.19-7.55,1.72-1.38,3.27-2.64,5.69-4.3,1.11-.77,2.2-1.4,3.3-2.07s2.16-1.2,3.17-1.7c4.14-2.09,7.88-3.62,11-5.13a30.94,30.94,0,0,0,7.07-4.41,14,14,0,0,0,2-2.33l.44-.63a8.74,8.74,0,0,0,.51-1,35.67,35.67,0,0,1,2.24-4,19.66,19.66,0,0,1,2.29-2.84,17.13,17.13,0,0,1,11.37-5.14,19.65,19.65,0,0,1,6.66.8,22.5,22.5,0,0,1,5.17,2.25c.77.47,1.52,1,2.24,1.51.36.26.72.56,1.07.85.19.16.33.28.44.39l.38.34c1,.93,1.85,1.8,2.63,2.62,1.53,1.64,2.67,2.93,3.52,3.76a8.69,8.69,0,0,0,1.35,1.15c0,.05.08,0,.12.09s.11,0,.21.06c.25,0,.4.08.6,0a3.56,3.56,0,0,0,2.51-1.82c.16-.4.24-.57.15-.78s-.13-.36-.43-.76a9.22,9.22,0,0,0-2.1-1.82c-.53-.38-1.17-.78-1.87-1.2l-1.1-.65-.28-.17-.39-.24-.8-.51a39.1,39.1,0,0,1-12-11.15A31.53,31.53,0,0,1,433.6,416a36.31,36.31,0,0,1-1.71-9A49.15,49.15,0,0,1,434,390.73c1.4-4.76,3.1-8.86,4.49-12.59a64.3,64.3,0,0,0,3.08-9.72,19.63,19.63,0,0,0,.46-3.68c0-.5,0-1.17,0-1.78l-.09-2.2-.15-2.59-.14-2.94-.1-3.3v-2.74l.05-1,.1-2L442,344l.12-1.09.2-1.17c.14-.79.27-1.57.43-2.37s.43-1.69.67-2.53c.13-.42.23-.82.38-1.26l.5-1.33c.35-.88.67-1.75,1.1-2.64s.91-1.78,1.4-2.66a25,25,0,0,1,1.66-2.58c.6-.83,1.19-1.7,1.87-2.47a33.58,33.58,0,0,1,4.34-4.27c.77-.62,1.55-1.24,2.34-1.83.62-.44,1.24-.87,1.86-1.27,1.21-.79,2.44-1.53,3.53-2.15,2.26-1.29,4.11-2.18,5.49-3a34.2,34.2,0,0,0,3.08-1.89,11.4,11.4,0,0,0,1.06-.82l.13-.1.2-.16.5-.45,1-.89c.69-.6,1.39-1.28,2.12-1.87a16.15,16.15,0,0,1,2.51-1.73A24.63,24.63,0,0,1,485,301.1l1.89-.4c.65-.13,1.31-.28,2-.39,1.29-.24,2.68-.43,4-.66s2.69-.42,3.93-.69c.31-.07.66-.11,1-.17l.95-.21c.65-.12,1.25-.28,1.88-.42,2.51-.55,4.84-1.4,7.33-1.83.62-.12,1.22-.27,1.84-.35l1.86-.25c1.22-.21,2.46-.21,3.67-.32a15.87,15.87,0,0,1,1.82-.05H519c.66,0,1,0,1.5,0h1.37a32.45,32.45,0,0,0,10.2-1.76,19.49,19.49,0,0,0,7.49-4.62,10.74,10.74,0,0,0,2.07-2.94,6,6,0,0,0,.53-2.88,6.89,6.89,0,0,0-.78-2.63,7.94,7.94,0,0,0-1.89-2.23,4.26,4.26,0,0,0-.62-.48,4.46,4.46,0,0,0-.66-.44l-.35-.2-.17-.1-.12,0c-.17,0-.26-.08-.45-.11-.66-.17-1.82-.38-3.43-.64s-3.63-.5-6.15-1.11a31.06,31.06,0,0,1-4.2-1.36l-1.18-.52c-.39-.18-.77-.35-1.21-.6a26.28,26.28,0,0,1-2.49-1.57A22.45,22.45,0,0,1,516,269.1a29.61,29.61,0,0,1-2.13-2.5c-.59-.88-1.16-1.8-1.69-2.73s-.81-1.81-1.16-2.75l-.26-.69-.18-.59-.33-1.17c-.23-.78-.36-1.57-.52-2.37a29.64,29.64,0,0,1-.43-4.75,35.26,35.26,0,0,1,1-8.64,36,36,0,0,1,1.1-3.67c.42-1.15.89-2.22,1.37-3.23a42.41,42.41,0,0,1,3.2-5.36c1.11-1.58,2.24-3,3.2-4.35a21.58,21.58,0,0,0,2.37-4,8.25,8.25,0,0,0,.68-4c0-.34-.12-.67-.18-1l-.3-1a13.23,13.23,0,0,0-1-2,5.94,5.94,0,0,0-.66-.88l-.67-.84c-.25-.27-.54-.51-.8-.77a6.68,6.68,0,0,0-.83-.76,20.09,20.09,0,0,0-1.92-1.39l-1-.65c-.36-.21-.76-.4-1.13-.6a44.52,44.52,0,0,0-4.93-2.09c-3.48-1.3-7.3-2.33-11.26-3.58a58.64,58.64,0,0,1-12.28-5.21,112.65,112.65,0,0,1-10.47-7.26,110.82,110.82,0,0,1-9.55-8.46c-1.51-1.51-3-3-4.42-4.64-.36-.39-.71-.8-1.06-1.2s-.69-.78-1.09-1.31l-1.15-1.48c-.36-.5-.67-1-1-1.49-2.64-4-4.37-7.75-6.21-11s-3.6-6-5.43-7.44c-.23-.18-.45-.35-.67-.54s-.45-.27-.67-.42a9.48,9.48,0,0,0-1.35-.68c-.24-.09-.5-.14-.74-.22a5.52,5.52,0,0,0-.83-.23c-.35-.07-.69-.16-1-.22l-1.08-.17a53.14,53.14,0,0,0-10,0c-3.75.24-7.92.7-12.57.64l-1.72,0-1.56-.06c-1.06-.05-2.13-.1-3.22-.17q-3.29-.22-6.77-.78A39.94,39.94,0,0,1,388,145.27a29.49,29.49,0,0,1-6.79-5.69,25.46,25.46,0,0,1-4.6-8,65.84,65.84,0,0,1-1.95-6.66,34,34,0,0,0-1.32-4.42,6.15,6.15,0,0,0-1.12-1.94,1.9,1.9,0,0,1-.29-.28,1.87,1.87,0,0,1-.4-.27,2.63,2.63,0,0,0-.71-.36,6.59,6.59,0,0,0-2.37-.22,8.07,8.07,0,0,0-1.49.27c-.45.1-1.11.42-1.7.62a33.22,33.22,0,0,0-7.9,5.45c-1.47,1.25-3.15,2.68-5,4.09a37.82,37.82,0,0,1-6.47,4A30.34,30.34,0,0,1,342,133.3c-.66.19-1.32.41-2,.55l-2,.36a12.73,12.73,0,0,1-2,.22l-2,.11c-1.23,0-2.39-.06-3.57-.14-9.39-.73-17.45-3.86-24.86-6.45-3.72-1.3-7.32-2.51-10.86-3.39A57.24,57.24,0,0,0,283.77,123c-7.51-.47-15.43.16-23.61.28s-16.74-.31-24.86-3.13a53.87,53.87,0,0,1-5.84-2.59c-1.84-1-3.55-2-5.24-2.92a29.1,29.1,0,0,0-5.12-2.23,33.1,33.1,0,0,0-5.53-1.19c-3.82-.51-7.81-.55-11.82-.74s-8-.41-12-.65c-8-.6-16-.71-23.95-.94s-16-.27-24-.09Zm0-.09c8-.59,16-.79,24-1s16-.34,24,0q6,.15,12,.2c4,0,8-.08,12.07.3a36.23,36.23,0,0,1,6.07,1.06,30.82,30.82,0,0,1,5.76,2.23l5.34,2.71a48.82,48.82,0,0,0,5.43,2.18c7.48,2.34,15.52,2.47,23.44,2s15.91-1.45,23.95-1.32a63.58,63.58,0,0,1,12,1.2c3.94.79,7.8,1.9,11.62,3.06,7.62,2.33,15.27,4.85,23.23,5.25,1,0,2,0,3,0l1.47-.12a9,9,0,0,0,1.46-.19l1.45-.29c.48-.11.94-.29,1.41-.43a21,21,0,0,0,2.74-1.11,46.12,46.12,0,0,0,9.5-7.13,43.15,43.15,0,0,1,9.72-7,16.78,16.78,0,0,1,11.73-1.49,11.49,11.49,0,0,1,2.78,1.15l1.28.8c.4.31.77.65,1.16,1a14.49,14.49,0,0,1,3.37,4.93c1.61,3.69,2.16,7.7,3.59,11.43a16.64,16.64,0,0,0,3,5.17,20.26,20.26,0,0,0,4.6,3.8A32.08,32.08,0,0,0,404.12,141a95.24,95.24,0,0,0,11.92,1c4,.1,8-.21,12-.38a55.47,55.47,0,0,1,11.94.54c1,.2,2,.41,2.92.69a10.18,10.18,0,0,1,1.41.48c.47.18.94.34,1.4.54a18.53,18.53,0,0,1,2.57,1.53c.4.3.82.57,1.2.89l1.1,1a25.34,25.34,0,0,1,3.69,4.69,54.66,54.66,0,0,1,2.88,5.26c1.76,3.58,3.3,7.28,5.39,10.69a37.82,37.82,0,0,0,3.52,4.84c1.26,1.55,2.59,3,3.94,4.51a99.34,99.34,0,0,0,8.67,8.25,95.29,95.29,0,0,0,9.62,7.13,50.14,50.14,0,0,0,10.93,4.84c3.79,1.27,7.63,2.36,11.38,3.76a37.62,37.62,0,0,1,10.53,5.58c.78.63,1.48,1.34,2.2,2l1,1.15a9.63,9.63,0,0,1,.9,1.2,18.8,18.8,0,0,1,2.6,5.37,21.59,21.59,0,0,1-.25,11.82c-1,3.86-2.59,7.55-3.91,11.32a34.71,34.71,0,0,0-2.43,11.67,18.76,18.76,0,0,0,.94,5.89,9.82,9.82,0,0,0,3.35,4.85,17,17,0,0,0,5.35,2.62c1.91.6,3.85,1.06,5.77,1.63a22.52,22.52,0,0,1,5.51,2.29,17.55,17.55,0,0,1,4.39,4A15.62,15.62,0,0,1,549.93,284a14.76,14.76,0,0,1-1.79,5.68,19.24,19.24,0,0,1-3.71,4.66A27,27,0,0,1,534,300.07a50.65,50.65,0,0,1-11.78,2c-2,.13-4,.17-6,.44a26.41,26.41,0,0,0-2.95.54l-1.45.35c-.49.13-.95.31-1.43.46a38.55,38.55,0,0,0-10.56,5.56,106.69,106.69,0,0,0-9.2,7.66l-4.45,4a49.35,49.35,0,0,1-4.63,3.79c-3.27,2.31-7,3.91-10.48,5.8s-6.94,4.19-9,7.68l-.73,1.3c-.24.45-.4.92-.6,1.38a21.42,21.42,0,0,0-1,2.83,38,38,0,0,0-1,5.9c-.38,4-.32,8-.57,12a40.08,40.08,0,0,1-2.28,11.72c-2.64,7.55-7,14.35-9.83,21.83A34.19,34.19,0,0,0,443.87,407a21.43,21.43,0,0,0,3.25,11.37,28.27,28.27,0,0,0,8.42,8.38c3.31,2.19,6.8,4.37,9,7.74a11.29,11.29,0,0,1,.72,11.4,13.43,13.43,0,0,1-3.78,4.59,13.23,13.23,0,0,1-5.35,2.57,11.8,11.8,0,0,1-5.93-.14,14.19,14.19,0,0,1-5.17-2.92c-1.53-1.29-2.91-2.73-4.34-4.13a22.94,22.94,0,0,0-4.62-3.78,10.5,10.5,0,0,0-5.72-1.47,6.11,6.11,0,0,0-2.83.88,6.58,6.58,0,0,0-2.07,2.13c-1.08,1.69-1.67,3.63-2.75,5.32a25,25,0,0,1-3.62,4.75,40.3,40.3,0,0,1-9.78,6.84c-3.54,1.86-7.19,3.49-10.71,5.38-.89.46-1.74,1-2.61,1.48s-1.69,1.05-2.5,1.64c-1.63,1.16-3.16,2.45-4.68,3.74-3,2.58-6,5.29-9,7.87a59,59,0,0,1-9.78,6.89,31.86,31.86,0,0,1-11.32,3.68c-4,.52-8,.05-11.95-.31l-11.93-1.1L311,487.63c-8-.57-16,.21-23.94-.54a43.53,43.53,0,0,1-11.67-2.57,31.33,31.33,0,0,1-10.12-6.28,24.11,24.11,0,0,1-3.85-4.58A21.33,21.33,0,0,1,259,468.2c-1.15-3.83-1.55-7.85-2.88-11.62a30.24,30.24,0,0,0-6.34-10.07,47,47,0,0,0-9.21-7.6,31.26,31.26,0,0,0-11-4.64,94.55,94.55,0,0,0-11.89-1.41,48,48,0,0,1-11.75-2.19,21.82,21.82,0,0,1-9.94-6.42,17.07,17.07,0,0,1-2.87-5.22,23.55,23.55,0,0,1-1.08-5.88,47.16,47.16,0,0,1,1.18-11.9c1.67-7.82,4.35-15.37,6.32-23.11.47-1.94.94-3.88,1.25-5.85a33.09,33.09,0,0,0,.52-6,45.37,45.37,0,0,0-1.9-11.78,57.84,57.84,0,0,0-11.54-20.79,79.39,79.39,0,0,0-18.07-15.57,140.2,140.2,0,0,0-21.32-10.87c-7.37-3.08-14.89-5.76-22.41-8.47l-22.54-8.13-11.27-4.06c-3.75-1.38-7.55-2.62-11.2-4.27a27,27,0,0,1-9.69-6.91,40.61,40.61,0,0,1-6.09-10.29,194.38,194.38,0,0,1-15.23-69.85,191.33,191.33,0,0,1,.75-23.94c.18-2,.35-4,.68-6a16,16,0,0,1,1.9-5.67,12.47,12.47,0,0,1,4.26-4.16c1.69-1.08,3.5-1.94,5.26-2.87a29.43,29.43,0,0,0,9.23-7.47,80.14,80.14,0,0,0,6.75-9.88,63.17,63.17,0,0,1,7-9.74,35.52,35.52,0,0,1,9.52-7.21A74.8,74.8,0,0,1,118,110.83a99.41,99.41,0,0,1,11.89-1.43c4-.18,8-.42,12-.74Z"/></svg>