<svg id="Layer_1" data-name="Layer 1" xmlns="http://www.w3.org/2000/svg" viewBox="0 0 600 600"><title>Malta</title><path d="M58.92,93.59A23.13,23.13,0,0,0,53.83,98a7.62,7.62,0,0,0-2.08,5.37,7.14,7.14,0,0,0,.83,2.63c.27.38.52.88.79,1.18a6.69,6.69,0,0,0,1,.94c1.47,1.24,3.8,2.23,5.89,4.22a18.58,18.58,0,0,1,4.49,6.86A27.57,27.57,0,0,1,66.39,127a32.23,32.23,0,0,1,.08,3.93c0,.65-.06,1.3-.12,1.95s-.11,1.25-.26,2.06c-.57,2.81-1.35,5-2,7.24a30.86,30.86,0,0,0-1.27,6.27,9,9,0,0,0,.1,2.45c.14.64.38.95.54,1a4.57,4.57,0,0,0,.7.2l.36.07c.13,0,.3,0,.44.06a3,3,0,0,0,.73,0,26,26,0,0,0,5.16-1.57,27.2,27.2,0,0,1,4.3-1.14,15.48,15.48,0,0,1,5.94.07A17.14,17.14,0,0,1,86.93,152a28.22,28.22,0,0,1,4,3.18l2.77,2.64c.4.36.77.7,1.1.94a1.52,1.52,0,0,0,.47.28l.42.21a7.69,7.69,0,0,0,1.62.62c.27.07.59.08.86.14l.42.07.49,0c2.43.22,6.08-.33,10.45-1.09s9.64-1.88,16.65-1.35a38.17,38.17,0,0,1,5.49.81l3.39.68q3.28.65,6.44,1.12c2.11.32,4.13.67,6.13.9s3.92.37,5.8.47c.92,0,1.85.11,2.74.1s1.76,0,2.62,0a42.67,42.67,0,0,0,4.88-.2l.53-.05h.35c.23,0,.47-.06.71-.06a12.94,12.94,0,0,0,1.59-.33,25.45,25.45,0,0,0,4.62-1.62c1.91-.78,4.19-1.86,6.83-3,1.31-.56,2.62-1.09,4.41-1.71a25.77,25.77,0,0,1,2.5-.8c.81-.22,1.65-.47,2.44-.64a69.25,69.25,0,0,1,8.93-1.36c2.76-.28,5.22-.37,7.48-.53s4.3-.32,6.05-.57a27.12,27.12,0,0,0,4.55-1,9.41,9.41,0,0,0,.9-.33l.45-.16.35-.15a9.61,9.61,0,0,0,1.27-.69,7.4,7.4,0,0,0,1.68-1.53,3.65,3.65,0,0,0,.42-.67c.08-.23.19-.39.22-.52a1,1,0,0,0,.08-.51,3.13,3.13,0,0,0-.27-1,11.74,11.74,0,0,0-2.28-3.12,31,31,0,0,0-4.11-3.51,92.07,92.07,0,0,0-11-6.62c-3.86-2.06-8-3.95-12.23-5.83s-8.67-3.73-13.13-5.76c-2.22-1-4.47-2.08-6.7-3.19l-1.68-.86-1.58-.82L163.88,113c-8.37-4.37-16.64-8.66-25.07-12.38a155.81,155.81,0,0,0-25.94-9.06,111,111,0,0,0-27.23-3.7c-2.3,0-4.61,0-6.91.19a43.46,43.46,0,0,0-6.71,1c-2.25.51-4.49,1.11-6.69,1.84A40.8,40.8,0,0,0,58.92,93.59Zm-1-1.72A60.85,60.85,0,0,1,71.2,86.3a47.42,47.42,0,0,1,7.07-1.61c2.37-.31,4.75-.57,7.14-.7a115.14,115.14,0,0,1,28.53,2,161.2,161.2,0,0,1,27.45,7.87c8.91,3.34,17.57,7.25,26.18,11.2l6.44,3c2.15.94,4.31,1.85,6.51,2.71,4.37,1.74,8.82,3.35,13.25,5s8.87,3.43,13.21,5.45a108.84,108.84,0,0,1,12.71,6.71,45.48,45.48,0,0,1,5.85,4.38,25.66,25.66,0,0,1,4.87,5.68,15.07,15.07,0,0,1,.74,14.89A21,21,0,0,1,220,162.75,53.46,53.46,0,0,1,205.86,166a84.76,84.76,0,0,0-13.71,2.46c-4.29,1.29-8.2,3.79-12.38,6.14a51.74,51.74,0,0,1-6.61,3.19,29.45,29.45,0,0,1-7.27,1.81,61.38,61.38,0,0,1-14.59,0,103.12,103.12,0,0,1-14.14-2.94q-3.47-.94-6.86-2l-3.39-1.09a26.81,26.81,0,0,0-3.24-.77c-4.43-.79-9.15-.53-13.9-.51-2.39,0-4.79,0-7.23-.23a27.42,27.42,0,0,1-7.24-1.56l-.89-.32-.84-.42c-.56-.3-1.14-.56-1.68-.89a18.22,18.22,0,0,1-3-2.34,18.54,18.54,0,0,1-1.33-1.33c-.41-.46-.79-.93-1.17-1.4-.75-.93-1.46-1.86-2.21-2.73a10.8,10.8,0,0,0-5.15-3.78c-2-.59-4.27-.17-6.53.34a25.54,25.54,0,0,1-7.27,1,10.94,10.94,0,0,1-3.73-1,7.15,7.15,0,0,1-3-2.61,8.14,8.14,0,0,1-1.16-3.77,16,16,0,0,1,.25-3.74,43.9,43.9,0,0,1,2-7c.78-2.25,1.68-4.46,2.22-6.64a30.61,30.61,0,0,0,.6-6.84c-.09-4.56-1.43-9.22-4.56-12.41-1.51-1.59-3.65-2.61-5.56-4.33a9.9,9.9,0,0,1-3.23-6.94,10.24,10.24,0,0,1,3-7A25.66,25.66,0,0,1,57.91,91.87Z"/><path d="M222.43,185.18a21,21,0,0,1,1.3,3.41,21.67,21.67,0,0,1,.79,3.59,10.5,10.5,0,0,1-.15,3.74,9.37,9.37,0,0,1-1.72,3.46,11.62,11.62,0,0,1-1.37,1.45c-.51.44-1,.8-1.51,1.17a8.91,8.91,0,0,0-2.33,2.21c-.2.36-.25.63-.15.8a2.78,2.78,0,0,0,.48.68c.06.05.12.17.17.17l.12,0c.06,0,.28.1.39.16l.58.16.68.14a25.13,25.13,0,0,0,6.47-.08,24.31,24.31,0,0,0,3.17-.54c.24-.05.44-.12.66-.18l.22-.09.32-.13,1.61-.61a42.21,42.21,0,0,0,11.11-5.88,12.39,12.39,0,0,0,3.1-3.71,9.72,9.72,0,0,0,1.06-4.58c0-3.13-2.28-6.95-5.75-9.73a23.49,23.49,0,0,0-5.83-3.49,21,21,0,0,0-3.32-1.05,12.65,12.65,0,0,0-3.44-.38,9,9,0,0,0-6.34,2.61,4.92,4.92,0,0,0-1.41,3.22A8.88,8.88,0,0,0,222.43,185.18Zm0,0a9.77,9.77,0,0,1-1.18-3.44,5.5,5.5,0,0,1,1.23-3.43,8.46,8.46,0,0,1,2.85-2.43,14,14,0,0,1,3.57-1.34,23.47,23.47,0,0,1,7.71-.11,28.68,28.68,0,0,1,7.62,2.07,23.25,23.25,0,0,1,7,4.56,16.67,16.67,0,0,1,4.71,8,15.67,15.67,0,0,1,.41,5,17.53,17.53,0,0,1-6.74,12.53c-4.78,3.82-10.07,5.48-15.16,6.46-.64.13-1.28.23-1.92.33l-.57.08-.68.08c-.38,0-.78.05-1.15.05a28.87,28.87,0,0,1-4.13-.3,29.25,29.25,0,0,1-7.93-2.2l-1-.54c-.35-.23-.69-.45-1-.7a7.37,7.37,0,0,1-1-1,7.75,7.75,0,0,1-.46-.66,3.05,3.05,0,0,1-.29-.61,5.24,5.24,0,0,1-.43-2.8,4.39,4.39,0,0,1,1.33-2.47,12.64,12.64,0,0,1,3.53-2.09c.55-.25,1.11-.49,1.59-.76a6.92,6.92,0,0,0,1.36-1,7.34,7.34,0,0,0,2-2.77,8.83,8.83,0,0,0,.55-3.48,16.22,16.22,0,0,0-.53-3.59A17.6,17.6,0,0,0,222.43,185.18Z"/><path d="M224.1,227.42a13.52,13.52,0,0,0,0,4.62c.21,1.53.61,3,.76,4.62a14.09,14.09,0,0,1-.28,4.79,20.53,20.53,0,0,1-1.79,4.49c-.75,1.41-1.6,2.75-2.44,4.05-.4.65-.85,1.33-1.21,1.95a10.84,10.84,0,0,0-.87,1.89,11.54,11.54,0,0,0-.69,4,4.3,4.3,0,0,0,1.14,3.08,3.18,3.18,0,0,0,1.26.71,4.47,4.47,0,0,0,1.58.11c1.2-.09,2.63-.55,4.34-.87a11.64,11.64,0,0,1,2.84-.21,9.86,9.86,0,0,1,3,.67,11.66,11.66,0,0,1,4.77,3.57,20.78,20.78,0,0,1,4.19,10,49.29,49.29,0,0,1,.31,10c-.39,6.54-1.49,12.71-1.52,18.39a34.54,34.54,0,0,0,.76,8c.57,2.61,1.48,5.4,2.4,8.48a52.39,52.39,0,0,1,2.16,10.38,29.84,29.84,0,0,1-.07,6.11c-.07.52-.14,1.07-.22,1.57l-.26,1.33c-.18.89-.32,1.81-.56,2.67-1.7,7.08-4.85,13.37-6.59,18.29a24,24,0,0,0-1.45,6.66,27.86,27.86,0,0,0,.06,3c.09.52.17,1,.23,1.55s.25,1.08.36,1.61l.18.8.28.92c.19.62.35,1.23.58,1.84s.41,1.22.65,1.82l.72,1.8a64,64,0,0,0,8,13.67c1.63,2.14,3.34,4.24,5.18,6.26s3.8,3.93,5.85,5.79,4.18,3.72,6.39,5.49c8.87,7.09,19,13.19,29.58,19.49l16,9.46,16.07,9.39,32.14,18.76,8,4.55c2.61,1.44,5.19,2.76,7.7,4a69.47,69.47,0,0,0,7.44,3.08,46,46,0,0,0,7.13,1.94,84.14,84.14,0,0,0,15.67,1c5.84,0,12.32-.23,19.5.28a92,92,0,0,1,11,1.42c3.58.69,7,1.5,10.27,2.38s6.34,1.85,9.3,2.74a15.41,15.41,0,0,1,4.23,1.69,31.72,31.72,0,0,1,3.62,3,19.52,19.52,0,0,0,1.8,1.41,17.16,17.16,0,0,0,1.86,1c1.31.64,2.66,1.26,3.95,1.85a80.45,80.45,0,0,0,7.55,3.07,32.82,32.82,0,0,0,7.2,1.72,17.38,17.38,0,0,0,5.67-.12,6.74,6.74,0,0,0,1.38-.46,2,2,0,0,0,.65-.41,1.87,1.87,0,0,0,.32-.4,1.2,1.2,0,0,0,.11-.17.8.8,0,0,0,.09-.14,1.48,1.48,0,0,0,.15-.95,6.34,6.34,0,0,0-.65-2.14c-.21-.44-.46-.91-.73-1.4l-.47-.77-.69-1.12a34.21,34.21,0,0,1-2.92-5.72,21.83,21.83,0,0,1-1.1-3.95,19.86,19.86,0,0,1-.26-4.42c0-.74.15-1.43.24-2.14s.27-1.37.44-2a21.59,21.59,0,0,1,1.23-3.51,24.33,24.33,0,0,1,3.81-6.17,21.84,21.84,0,0,1,5.85-5,20.05,20.05,0,0,1,8-2.66,19.13,19.13,0,0,1,8.65,1.18c.65.27,1.34.53,1.94.85s1.18.67,1.76,1a18.66,18.66,0,0,1,1.58,1.13c.49.39,1,.82,1.38,1.13,1.5,1.36,2.68,2.61,3.67,3.6a21.72,21.72,0,0,0,2.44,2.22,6.56,6.56,0,0,0,.85.54,5.52,5.52,0,0,0,.93.39,7.16,7.16,0,0,0,2.06.33,6.75,6.75,0,0,0,2-.25,8.67,8.67,0,0,0,1-.45,4.4,4.4,0,0,0,.92-.55,9,9,0,0,0,2.89-3.6,24.35,24.35,0,0,0,1.86-6.11,53.7,53.7,0,0,0,.69-7.52c0-.66.1-1.31.11-2,0-.33.3-.66.25-1a6.73,6.73,0,0,0-.35-1c-.55-1.36-1.55-2.66-1.84-4a72.36,72.36,0,0,0-4.34-15.32,75.75,75.75,0,0,0-7.51-13.84c-.71-1.08-1.51-2.16-2.28-3.15l-2.33-2.85-2.47-2.6c-.8-.87-1.75-1.55-2.56-2.37a44.83,44.83,0,0,0-10.72-7.11,38,38,0,0,0-11.19-3.36c-.48-.06-.95-.16-1.43-.23l-1.46-.07-1.46-.11c-.5,0-1,0-1.5,0h-1.5c-.5,0-1,.1-1.52.14a10.83,10.83,0,0,1-3.17,0c-2.28-.46-5.1-2.57-8.55-4a29,29,0,0,0-5.92-1c-1.93-.12-3.83.12-5.85.09a43.67,43.67,0,0,1-6.18-.37c-1.06-.16-2.08-.34-3.18-.6l-1.65-.45c-.55-.17-1.09-.38-1.63-.58a22,22,0,0,1-10.72-8.55,19.86,19.86,0,0,1-2.72-6.69,19.64,19.64,0,0,1,0-7.29c.12-.57.23-1.21.38-1.73l.47-1.56a29.67,29.67,0,0,1,1.12-2.85c.76-1.83,1.65-3.43,2.38-4.91s1.45-2.85,2-4a16.1,16.1,0,0,0,1-3.27,5,5,0,0,0-.05-2.19,2.54,2.54,0,0,1-.13-.39l-.17-.56a7.71,7.71,0,0,0-.41-1,9.09,9.09,0,0,0-1.09-1.63A13.17,13.17,0,0,0,440,340a62.5,62.5,0,0,0-4.8-4.09c-1-.75-2-1.58-3.16-2.41-.58-.4-1.11-.88-1.7-1.33s-1.12-1-1.69-1.54a38.15,38.15,0,0,1-3.29-3.71c-1.08-1.38-2.11-2.92-3.15-4.52-.5-.78-1.07-1.67-1.5-2.44s-.77-1.45-1.17-2.16a30.38,30.38,0,0,0-2.66-3.9,43.45,43.45,0,0,0-6.61-6.14,78.93,78.93,0,0,0-7.12-5.17c-1.22-.79-2.45-1.53-3.7-2.22l-4.12-2.12c-5.77-3.07-11.05-6.59-16.35-9.65-2.63-1.55-5.22-3.06-7.83-4.39a73.52,73.52,0,0,0-7.83-3.44,41,41,0,0,0-15.46-2.62,25.16,25.16,0,0,0-6.91,1.18,19.2,19.2,0,0,0-5.55,2.93,69.24,69.24,0,0,0-5.9,5.48c-1.21,1.17-2.5,2.4-4.08,3.67a30.72,30.72,0,0,1-5.46,3.49,25.5,25.5,0,0,1-7,2.34,20.83,20.83,0,0,1-4.15.28,20,20,0,0,1-2.17-.18l-1.09-.19-.55-.11-.63-.17a17.5,17.5,0,0,1-4.62-2,18.81,18.81,0,0,1-3.65-3,17.65,17.65,0,0,1-4.56-8.63,15.8,15.8,0,0,1-.08-5.83,16.26,16.26,0,0,1,.87-3,15.89,15.89,0,0,1,1.39-2.64,19.71,19.71,0,0,1,2.74-3.25c.73-.71,1.21-1.15,1.38-1.34a.47.47,0,0,1,.15-.19l.11-.07a.67.67,0,0,1,.06-.12.84.84,0,0,1,.18-.21,1.85,1.85,0,0,1,.13-.29c.15-.16.14-.46.27-.68s0-.29.07-.43a1.35,1.35,0,0,0,.07-.46,8.2,8.2,0,0,0-.78-4.11,6.58,6.58,0,0,0-1-1.56c-.21-.13-.36-.42-.57-.51a2.91,2.91,0,0,1-.27-.24,1.46,1.46,0,0,1-.3-.16l-.15-.1-.25-.08-.51-.17c-.37-.09-.76-.15-1.16-.23a13.89,13.89,0,0,0-3,.09,49.08,49.08,0,0,0-8,1.94,66.53,66.53,0,0,1-10.19,2.4,30.59,30.59,0,0,1-6,.19,18.25,18.25,0,0,1-6.68-1.8,16.23,16.23,0,0,1-3.12-2,13.77,13.77,0,0,1-2.75-3.09,11.2,11.2,0,0,1-1.43-8.79,12.67,12.67,0,0,1,4.23-6.48,15.87,15.87,0,0,1,5.91-3.1c3.95-1.08,7.28-.92,10-1.22.33,0,.66-.07,1-.12s.57-.1.85-.15a15.56,15.56,0,0,0,1.81-.51,25,25,0,0,0,3.72-1.6,23.64,23.64,0,0,0,6.43-4.76,9.07,9.07,0,0,0,1.86-2.89,4.82,4.82,0,0,0,.16-2.89,6.6,6.6,0,0,0-1.83-2.76,12.46,12.46,0,0,0-3.35-2.13,23.81,23.81,0,0,0-8.38-2,17.66,17.66,0,0,0-4.3.29,32.43,32.43,0,0,0-4.29,1.3c-2.84,1.07-5.61,2.46-8.45,3.74-1.43.65-2.86,1.27-4.34,1.81l-1.11.39a8.32,8.32,0,0,1-1.2.27,11.9,11.9,0,0,1-2.38.15,36.25,36.25,0,0,1-4.66-.48l-4.59-.73a38.79,38.79,0,0,0-9.24-.68,8.52,8.52,0,0,0-4.32,1.46,6.19,6.19,0,0,0-2.25,3.92Zm-.09,0a10.12,10.12,0,0,1,.62-2.26,5.48,5.48,0,0,1,1.45-1.9,8.84,8.84,0,0,1,4.44-1.79,38.33,38.33,0,0,1,9.46.14l4.61.48a34.34,34.34,0,0,0,4.47.27,11.32,11.32,0,0,0,2.07-.22,6.39,6.39,0,0,0,.91-.25l1-.42c1.39-.57,2.76-1.23,4.13-1.92,2.74-1.38,5.47-2.9,8.41-4.16a34.76,34.76,0,0,1,4.57-1.6,20.09,20.09,0,0,1,4.92-.61,27.3,27.3,0,0,1,9.57,1.72,16.2,16.2,0,0,1,4.36,2.44,10.42,10.42,0,0,1,3.14,4.15,8.8,8.8,0,0,1,.21,5.25,12.52,12.52,0,0,1-2.36,4.45,26.67,26.67,0,0,1-7.35,6.19,30.47,30.47,0,0,1-4.28,2.13,19.91,19.91,0,0,1-4.66,1.29c-3.13.49-6.23.53-9.06,1.44a10.27,10.27,0,0,0-3.77,2.12,7,7,0,0,0-2.26,3.52,5,5,0,0,0,.73,4,7.91,7.91,0,0,0,3.34,2.68c2.7,1.28,5.84,1.2,8.83.69a54.11,54.11,0,0,0,8.85-2.58,66.25,66.25,0,0,1,8.92-2.75,23.58,23.58,0,0,1,4.67-.49c.78,0,1.57.08,2.35.19l1.16.24.57.12.56.2,1.11.41c.36.17.7.37,1.05.56a13.34,13.34,0,0,1,1.94,1.33,14.79,14.79,0,0,1,3,3.6A16.46,16.46,0,0,1,308.1,265a13.12,13.12,0,0,1-3.3,8.55,28.93,28.93,0,0,0-3.16,3.4,5.86,5.86,0,0,0-.86,2.12,6.58,6.58,0,0,0,0,2.3,8.79,8.79,0,0,0,6.1,6.43,13,13,0,0,0,9-1.26,31.4,31.4,0,0,0,7.47-5.48,66.4,66.4,0,0,1,7.06-6,29.46,29.46,0,0,1,17.66-4.79,49.41,49.41,0,0,1,18,4.22,113.5,113.5,0,0,1,16.18,9.14c5.2,3.37,10.32,6.88,15.74,9.91l4.09,2.22c1.34.77,2.67,1.56,4,2.41,2.6,1.69,5.1,3.53,7.54,5.45,4.88,3.83,9.4,8.09,14.08,12.15s10.21,7.05,15,11a35.74,35.74,0,0,1,6.51,6.61,18.59,18.59,0,0,1,3.59,8.47,17.17,17.17,0,0,1,.07,4.64,17.35,17.35,0,0,1-1.23,4.47,57.48,57.48,0,0,1-4.65,8,44.73,44.73,0,0,0-2.32,4,18.18,18.18,0,0,0-1.6,4.35,12,12,0,0,0,1.48,8.95,13.34,13.34,0,0,0,7.13,5.68,19.06,19.06,0,0,0,9.19.51,49.43,49.43,0,0,0,8.94-2.5c1.47-.5,3-.95,4.43-1.42l1.11-.35,1.14-.25,2.27-.51a53.14,53.14,0,0,1,18.48-.61,50.48,50.48,0,0,1,17.48,6,58.2,58.2,0,0,1,14.39,11.66c1,1.19,2.07,2.31,3,3.55s1.86,2.49,2.76,3.75l2.48,3.93c.79,1.34,1.56,2.68,2.27,4.06a91.22,91.22,0,0,1,7,17.23c.85,3,1.56,6,2.11,9.05a92.61,92.61,0,0,1,1.12,9.23,65,65,0,0,1-1.17,18.51,30.46,30.46,0,0,1-3.3,8.65,18.3,18.3,0,0,1-6.41,6.61,15.83,15.83,0,0,1-17.53-.69c-2.51-1.84-4.49-4.27-6.81-6.33a12.76,12.76,0,0,0-3.91-2.45,10,10,0,0,0-4.56-.62,12.17,12.17,0,0,0-7.86,4.53,15.41,15.41,0,0,0-2.4,4,12.46,12.46,0,0,0-1.11,4.48,10.69,10.69,0,0,0,.84,4.54,24.76,24.76,0,0,0,2.21,4.08,25.63,25.63,0,0,1,4.11,8.29,12,12,0,0,1-1.31,9,13.27,13.27,0,0,1-7.08,5.74,28.09,28.09,0,0,1-9.13,1.58,55.31,55.31,0,0,1-9.27-.58A129.58,129.58,0,0,1,457,510.34c-11.85-3.55-23.49-8.24-35.87-9.65s-24.87-1-36.91-4.25a84.81,84.81,0,0,1-17.17-7.07c-5.48-2.91-10.76-6.18-16.07-9.37l-31.85-19.25-31.84-19.24c-10.6-6.42-21.17-13-30.74-20.92a111.73,111.73,0,0,1-13.34-12.94,83.56,83.56,0,0,1-10.54-15.3,61.81,61.81,0,0,1-6.26-17.46,27.76,27.76,0,0,1-.28-9.27,34.68,34.68,0,0,1,2.58-8.92c2.45-5.7,5.63-11.08,7.38-17.05.26-.73.41-1.49.61-2.24l.29-1.13.21-1.14a22.29,22.29,0,0,0,.27-4.62,49.06,49.06,0,0,0-1.37-9.17c-.67-3-1.41-6.05-1.83-9.13a40.65,40.65,0,0,1-.11-9.29c.56-6.19,2.06-12.23,2.8-18.39a44.9,44.9,0,0,0,.28-9.27,17.59,17.59,0,0,0-3-8.64,8.83,8.83,0,0,0-3.51-2.93,8,8,0,0,0-4.52-.51,41.59,41.59,0,0,1-4.61.66,5.36,5.36,0,0,1-4.23-1.66,6.11,6.11,0,0,1-1.38-4.35,13.19,13.19,0,0,1,1-4.54,19.39,19.39,0,0,1,2.41-4c.9-1.27,1.79-2.53,2.57-3.87a19.11,19.11,0,0,0,1.91-4.22,15.41,15.41,0,0,0,.64-4.58c0-3.1-1-6.14-.6-9.27Z"/></svg>