<svg id="Layer_1" data-name="Layer 1" xmlns="http://www.w3.org/2000/svg" viewBox="0 0 600 600"><title>Moldova</title><path d="M136.31,63.59c2,.22,4,.52,6,.67a40.2,40.2,0,0,0,6-.08,81.49,81.49,0,0,0,11.79-1.84c7.72-1.88,15-5.21,22.2-8.66l5.45-2.6c.89-.44,1.94-.82,2.91-1.23a21.32,21.32,0,0,1,3-1,37.2,37.2,0,0,1,12.83-1.31,46.29,46.29,0,0,1,12.57,2.79,70.94,70.94,0,0,1,11.47,5.44c3.65,2.11,7.09,4.42,10.48,6.85s6.51,4.87,9.65,7a38.51,38.51,0,0,0,9.37,4.82,56.66,56.66,0,0,0,10.61,1.85c2,.25,4.21.54,6.51,1a32.58,32.58,0,0,1,7.21,2.36,31,31,0,0,1,3.59,2,30.37,30.37,0,0,1,6.09,5.57c.8,1,1.43,1.79,2.07,2.62,1.26,1.63,2.37,3,3.39,4.11A13.22,13.22,0,0,0,301,95.25l.66.47c.2.12.35.17.51.27a6,6,0,0,0,2.25.41,16,16,0,0,0,3.7-.37c3-.57,6.59-1.78,10.71-3a63,63,0,0,1,6.76-1.6,36,36,0,0,1,8.2-.55,26.46,26.46,0,0,1,9.39,2.24,23.91,23.91,0,0,1,2.24,1.18,16.26,16.26,0,0,1,2.15,1.37c.69.52,1.37,1.07,2,1.62a22.19,22.19,0,0,1,1.81,1.82,17.19,17.19,0,0,1,1.59,1.92c.47.65.94,1.32,1.38,2a39.85,39.85,0,0,1,2,3.84,70.64,70.64,0,0,1,2.57,6.65l.49,1.4.45,1.23c.15.43.29.76.43,1.1s.28.72.42,1a6.25,6.25,0,0,0,1.31,2,.4.4,0,0,1,.18.13c0,.06.14,0,.18.06l.06.06.2.1a5.44,5.44,0,0,0,.52.22,18.31,18.31,0,0,0,3.43.84c1.51.26,3.39.48,5.57.78l2.18.41a19.44,19.44,0,0,1,2.2.53c.76.23,1.51.47,2.26.72a22,22,0,0,1,2.28,1,28,28,0,0,1,4.45,2.55,29,29,0,0,1,3.94,3.46,30,30,0,0,1,3.17,4,36.57,36.57,0,0,1,2.27,4.1c.69,1.39,1.12,2.68,1.63,4s.83,2.59,1.11,3.79c.65,2.5,1,4.79,1.41,7,.16,1.09.34,2.22.47,3.27l.2,1.59.19,1.71c.25,2.3.41,4.64.45,7a75.89,75.89,0,0,1-1,14.16,113.66,113.66,0,0,1-3,13.15l-.21.74-.13.55-.27,1.08c-.21.72-.28,1.44-.43,2.15s-.17,1.42-.28,2.12-.06,1.38-.11,2.07a20.57,20.57,0,0,0,1.18,7.53,18.86,18.86,0,0,0,3.7,6.16,21.78,21.78,0,0,0,2.79,2.61c.47.44,1.1.77,1.63,1.18l.41.29.31.17c.2.1.4.23.58.34a1.86,1.86,0,0,1,.41.17l.09.05h.06a.15.15,0,0,1,.09,0c.08,0,.08,0,.08,0s0,0,0,0l0,0s.17,0,.28,0h.11l.18,0,.36-.08,1.08-.25a41.94,41.94,0,0,1,8.36-1.4,31.8,31.8,0,0,1,5.42.26c.87.15,1.74.31,2.61.49.19,0,.48.12.76.2l.83.26c.54.18,1.09.37,1.63.57l.81.31.78.38c.52.27,1,.54,1.54.83a18.34,18.34,0,0,1,2.81,1.93c.44.36.89.71,1.3,1.08l1.11,1.13c.36.38.72.77,1.07,1.17s.61.78.91,1.17a30.61,30.61,0,0,1,4.66,9.26,47,47,0,0,1,2,16.7c-.06.71-.08,1.38-.16,2.12l-.24,2c-.1.86-.22,1.68-.29,2.57-.17,1.74-.31,3.53-.38,5.32a96.49,96.49,0,0,0,.13,10.64,53.63,53.63,0,0,0,1.45,9.66,23.44,23.44,0,0,0,1.24,3.7l.32.72a3.94,3.94,0,0,0,.33.5,3.23,3.23,0,0,0,.28.43.62.62,0,0,1,.2.15,9.09,9.09,0,0,0,3.55,1.82c2.08.72,5.3,1.39,9.49,2.33,2.1.48,4.45,1.05,7.08,1.91a43.29,43.29,0,0,1,8.63,3.83A34.57,34.57,0,0,1,491.33,321c.16.42.35.85.49,1.26l.41,1.23c.27.85.53,1.56.77,2.6a36.46,36.46,0,0,1,1,5.73,45.63,45.63,0,0,1-.24,9.74c-.35,2.75-.79,5.08-1.12,7-.15.92-.3,1.81-.39,2.51l0,.28a1.62,1.62,0,0,0,0,.18l0,.32c0,.21,0,.43,0,.65a16.39,16.39,0,0,0,.7,5.59,8.54,8.54,0,0,1,.66,2.94c0,1.09-.22,2.4-.14,3.65v.23c0,.13,0,.11-.12,0s-.33-.19-.49-.27-.12,0-.15,0l-.1,0-.09,0c-.05,0-.07,0-.05.07l.06.2c0,.06.06.16.16.26l.24.28c.08.09.24.21.36.32,1,.89,2.55,2,4.4,3.46l1.49,1.13c.51.39,1.12.89,1.66,1.33a31.43,31.43,0,0,1,4.13,4.11l.59.72a10.67,10.67,0,0,1,.63.87c.45.66.88,1.34,1.28,2a22.85,22.85,0,0,1,1.23,2.78,10.34,10.34,0,0,1,.41,1.26l.25,1,.22,1a8,8,0,0,1,.18,1.09c.09.76.16,1.54.19,2.31a23.4,23.4,0,0,1-.09,2.49,17.1,17.1,0,0,1-.39,2.52,20.75,20.75,0,0,1-4.16,8.68,24.16,24.16,0,0,1-5.37,4.94c-.45.32-.87.59-1.28.83l-1.24.73c-.78.4-1.62.85-2.36,1.17l-1.14.5-1.1.42c-.74.3-1.44.52-2.15.76a48.54,48.54,0,0,1-8,1.84,56.41,56.41,0,0,1-7.79.61c-1.32,0-2.65,0-4.07-.12a37,37,0,0,1-4.7-.58c-.47-.09-1-.21-1.49-.32s-1.22-.33-1.81-.52l-1.95-.72c-1.2-.48-2.32-1-3.31-1.41a82.64,82.64,0,0,0-7.82-3.4,3.22,3.22,0,0,1-.37-.12,1.71,1.71,0,0,1-.27-.09c-.07,0-.16-.07-.22-.06l-.1,0c-.06,0,.07,0-.15,0l-.49.08a46,46,0,0,1-8.32.72,38.79,38.79,0,0,1-8.61-1.06c-2.55-.61-4.47-1.25-6.11-1.72a41.28,41.28,0,0,0-4.68-1.14l-1.12-.2c-.31-.05-.63-.1-1-.13a17.53,17.53,0,0,0-1.93-.13,18.92,18.92,0,0,0-3.9.34,17.31,17.31,0,0,0-1.89.45c-.31.09-.61.2-.91.3l-.45.17-.22.08h0s-.22.07-.39.13a8.29,8.29,0,0,0-.79.51c-.27.19-.66.5-1,.77l-1.3,1c-.44.35-1,.78-1.56,1.18s-1.23.85-2,1.31a18,18,0,0,1-5.83,2.28,16.19,16.19,0,0,1-7.28-.28,24.2,24.2,0,0,1-3.08-1.18,26,26,0,0,1-2.63-1.63,24.08,24.08,0,0,1-6.17-7.18c-1.31-2.22-2.22-4.21-3.11-5.91a31.26,31.26,0,0,0-2.26-4c-.14-.13-.29-.33-.38-.43a.53.53,0,0,1-.11-.09l-.05-.06a1.32,1.32,0,0,0-.16-.12c-.24-.17-.48-.39-.7-.53s-.44-.3-.63-.39c-.81-.41-1.17-.35-1.08-.31s.1.08.07.1a4.12,4.12,0,0,1-.38.38,12,12,0,0,0-1.67,2.41,28.29,28.29,0,0,0-2.67,8.24c-.12.74-.2,1.46-.27,2.15a17,17,0,0,0-.06,2.08c0,.79,0,1.56.08,2.38s.07,1.61.18,2.46.1,1.66.22,2.53c.06.43-.17.9-.06,1.33a11.51,11.51,0,0,0,.54,1.27c.41.83.94,1.64,1.44,2.49a14.08,14.08,0,0,1,1.26,2.59c2.11,7.25,5,15.4,6.24,25.3.18,1.22.27,2.5.36,3.78a39.49,39.49,0,0,1,.14,4,37.89,37.89,0,0,1-1.21,9.33,31.48,31.48,0,0,1-1.88,5.2,32.46,32.46,0,0,1-2.88,4.92,50.47,50.47,0,0,1-6,6.77c-1.72,1.67-3.08,3-3.87,3.93L356.79,485c-.18.25-.38.47-.55.73l-.5.84a45.67,45.67,0,0,0-3.79,7.7l-.91,2.24-.87,2.44c-.3.78-.59,1.67-.88,2.54l-.88,2.64-.89,2.77-1,2.88c-.63,1.89-1.37,4-2.11,6a106.8,106.8,0,0,1-5.86,13.09c-.28.56-.61,1.13-1,1.71l-1,1.71a36.9,36.9,0,0,1-2.24,3.41c-.82,1.13-1.64,2.25-2.49,3.37s-1.91,2.19-2.88,3.28-1.9,2-2.82,2.88-1.85,1.71-2.79,2.54c-1.86,1.62-3.75,3.18-5.72,4.63s-4,2.84-6.06,4.17a28.38,28.38,0,0,1-6.69,3.44,24.7,24.7,0,0,1-8,1.11c-1.45-.07-2.84-.13-4.29-.29s-2.89-.39-4.27-.58c-2.84-.46-5.57-.9-8.25-1.28a66.69,66.69,0,0,1-8.06-1.33,30.65,30.65,0,0,1-7.75-3.1,31.56,31.56,0,0,1-6.47-5,36.73,36.73,0,0,1-8.1-12.78,44.25,44.25,0,0,1-2.75-14c-.05-1.22,0-2.27,0-3.36s0-2.17.07-3.23c0-2.16.18-4.26.23-6.37.42-8.36.88-16.48.72-24l0-3.07c0-1,0-2.09,0-3.13l.24-6.22q.34-6.19,1.18-12.26c.25-2,.59-4,.91-6,.15-1,.38-2,.57-3s.48-2,.76-2.94a55.9,55.9,0,0,1,2.06-5.77c.8-1.91,1.72-3.8,2.6-5.68s1.79-3.78,2.58-5.68a49.76,49.76,0,0,0,2-5.76c.28-1,.49-1.95.72-2.92s.36-2,.5-2.95l.82-5.92c2.09-15.76,3.13-31.62,2-47.22-.56-7.63-1.53-15.95-2.42-23.72a136.83,136.83,0,0,0-4.28-22.41,53.67,53.67,0,0,0-3.77-9.62,35.22,35.22,0,0,0-5.58-7.79,58.43,58.43,0,0,0-7.72-6.78q-2.2-1.63-4.56-3.26l-1.19-.82-.59-.41-.7-.52-2.82-2.15-1.4-1.09-1.29-1.18L226,285.14c-.87-.79-1.57-1.69-2.37-2.53s-1.56-1.71-2.27-2.59l-2.08-2.68c-.7-.89-1.39-1.79-2-2.71-1.24-1.83-2.49-3.68-3.56-5.56-4.45-7.47-7.95-15-11.36-22.27s-6.57-14.3-10.4-20.68c-.48-.8-.93-1.63-1.44-2.39L189,221.45c-.5-.77-1-1.53-1.57-2.26s-1.09-1.49-1.65-2.24c-2.28-3-4.84-6-7.44-9.17s-5.27-6.49-7.73-10.12a57.81,57.81,0,0,1-6.24-12,65,65,0,0,1-3.22-12.79c-.66-4.2-1-8.32-1.38-12.33s-.7-7.92-1.26-11.73A72.07,72.07,0,0,0,151.68,127a66.59,66.59,0,0,0-6-10,72.41,72.41,0,0,0-7.57-9,70.51,70.51,0,0,0-8.91-7.71c-1.58-1.19-3.27-2.21-4.94-3.27s-3.45-1.87-5.25-2.74c-3.59-1.77-7.36-3.44-10.6-6.08a11.17,11.17,0,0,1-3.7-5,9.16,9.16,0,0,1,.42-6.16A20,20,0,0,1,112.94,68a25.28,25.28,0,0,1,5.47-2.57,32.78,32.78,0,0,1,5.87-1.4,51,51,0,0,1,12-.32Zm0,.09a53,53,0,0,0-12,.88,31.57,31.57,0,0,0-5.67,1.67,24.32,24.32,0,0,0-5.12,2.71,19.15,19.15,0,0,0-7,8.67,7.61,7.61,0,0,0-.24,5,9.42,9.42,0,0,0,3.23,4.1c3,2.31,6.68,3.87,10.33,5.53,1.83.83,3.7,1.66,5.51,2.69s3.53,2.06,5.2,3.23a73.11,73.11,0,0,1,9.55,7.63,75.58,75.58,0,0,1,8.24,9A72.66,72.66,0,0,1,155.17,125a76.41,76.41,0,0,1,5.05,11.09,77.35,77.35,0,0,1,3.24,11.74c.76,4,1.28,8,1.81,12,1,7.94,2.09,15.95,5.16,23.32s8.2,13.66,13.51,19.64c2.65,3,5.37,6,7.93,9.09,1.27,1.56,2.54,3.13,3.68,4.78l1.76,2.46c.58.82,1.09,1.69,1.64,2.53a213.55,213.55,0,0,1,11.45,21.22c3.53,7.21,7,14.45,11.26,21.29s9.22,13.28,15.55,18.26c3.13,2.52,6.53,4.68,9.67,7.19a61.06,61.06,0,0,1,8.83,8.17,42.61,42.61,0,0,1,6.58,10.05,61.72,61.72,0,0,1,3.92,11.38A146.09,146.09,0,0,1,269.59,343c.3,4,.53,8,.79,12l.38,6c.12,2,.22,4,.26,6,.5,16.07-.81,32.15-2.83,48.08s-4.7,31.8-7.07,47.69c-1.17,7.95-2.21,15.92-2.94,23.92S256,502.69,255,510.67a107.38,107.38,0,0,0-.83,12,36.45,36.45,0,0,0,1.91,11.85,25.35,25.35,0,0,0,6.35,10.11,20.67,20.67,0,0,0,4.93,3.41,18.82,18.82,0,0,0,5.76,1.7,29.27,29.27,0,0,0,11.91-1.07,54.84,54.84,0,0,0,5.68-2c1.84-.8,3.65-1.68,5.41-2.64a80.81,80.81,0,0,0,10.08-6.59,70.42,70.42,0,0,0,9-8l2-2.25,1.8-2.42a27.88,27.88,0,0,0,1.67-2.5c.52-.86,1.1-1.68,1.56-2.58a104,104,0,0,0,5.16-10.88c3.05-7.43,5.63-15.07,9.25-22.25a54.83,54.83,0,0,1,6.42-10.17l.94-1.18c.33-.38.69-.73,1-1.1.7-.72,1.38-1.46,2.1-2.16,1.47-1.37,3-2.62,4.56-3.94a30.56,30.56,0,0,0,4.22-4.29,16.46,16.46,0,0,0,2.76-5.32,33.57,33.57,0,0,0,1-11.94c-.52-8-2.7-15.83-4.38-23.68a91.91,91.91,0,0,1-1.88-11.89,48.41,48.41,0,0,1-.15-6,29.29,29.29,0,0,1,.75-6,35.34,35.34,0,0,1,4.44-11.15,18.5,18.5,0,0,1,3.95-4.51A11.62,11.62,0,0,1,365,381.7a9.2,9.2,0,0,1,2.93-.63,10.82,10.82,0,0,1,5.73,1.57,15.51,15.51,0,0,1,4.58,3.87c2.42,3.22,3.91,7,6.07,10.4a15.89,15.89,0,0,0,3.93,4.51,7.15,7.15,0,0,0,5.69,1.36,12.66,12.66,0,0,0,5.15-3,35.44,35.44,0,0,1,4.74-3.72,29,29,0,0,1,11.46-3.43,31.05,31.05,0,0,1,6,.06,56.94,56.94,0,0,1,5.95.9c2,.4,3.92.9,5.9,1.25a26.71,26.71,0,0,0,6,.45,32.4,32.4,0,0,0,6-.83,17,17,0,0,1,6-.39c4,.49,7.74,2.16,11.46,3.64.93.37,1.87.73,2.82,1.06a15.53,15.53,0,0,0,2.89.81,33.59,33.59,0,0,0,6,.3A45.9,45.9,0,0,0,486.12,398a21.09,21.09,0,0,0,5.45-2.52,7.79,7.79,0,0,0,3.53-4.68,6.26,6.26,0,0,0-.07-3,5.54,5.54,0,0,0-.51-1.41,8,8,0,0,0-.87-1.22,24.4,24.4,0,0,0-4.6-3.87c-1.64-1.15-3.33-2.25-4.94-3.44a16.59,16.59,0,0,1-4.27-4.21,35.64,35.64,0,0,1-6-22.89c.38-4,1.54-7.88,2.11-11.86a29.43,29.43,0,0,0,.32-6,20.65,20.65,0,0,0-1.3-5.86,17.67,17.67,0,0,0-7.44-9.18,43.09,43.09,0,0,0-11.15-4.44A81.85,81.85,0,0,1,445,309.67a21.86,21.86,0,0,1-9.33-7.4,30.57,30.57,0,0,1-4.25-11.2,75.15,75.15,0,0,1-1.28-12,118.13,118.13,0,0,1,.22-12.05c.12-2,.31-4,.55-6s.61-4,.72-6a33.73,33.73,0,0,0-1.26-11.91,17.18,17.18,0,0,0-2.62-5.39,10.86,10.86,0,0,0-4.63-3.69,14.62,14.62,0,0,0-5.9-.92,30.76,30.76,0,0,0-5.93,1,18.77,18.77,0,0,1-6,.67,14.92,14.92,0,0,1-5.73-1.75,35.79,35.79,0,0,1-9.28-7.61,31.26,31.26,0,0,1-6-10.39,33.22,33.22,0,0,1-1.75-11.87,46,46,0,0,1,2-11.86,102.22,102.22,0,0,0,2.79-11.71,66,66,0,0,0,.95-12,92.83,92.83,0,0,0-1-12c-.31-2-.62-4-1.12-5.91-.21-1-.54-1.93-.81-2.9s-.66-1.9-1.11-2.79a22.56,22.56,0,0,0-1.43-2.65,18.29,18.29,0,0,0-1.86-2.35,17.76,17.76,0,0,0-2.23-2,18.1,18.1,0,0,0-2.6-1.5,22,22,0,0,0-5.73-1.74c-2-.32-4-.58-5.95-1a27,27,0,0,1-5.77-1.72,12.86,12.86,0,0,1-2.63-1.48c-.39-.31-.84-.56-1.2-.91l-1.07-1.07a19.18,19.18,0,0,1-3.11-5.15c-.76-1.86-1.39-3.77-2-5.69a56.2,56.2,0,0,0-2-5.67,27,27,0,0,0-1.34-2.69,18.21,18.21,0,0,0-1.77-2.41,11.83,11.83,0,0,0-1-1.09l-1.16-1a6.91,6.91,0,0,0-1.25-.82,12,12,0,0,0-1.3-.74,16.62,16.62,0,0,0-5.79-1.49c-4-.31-8,.53-11.89,1.47s-7.77,2.09-11.76,2.65a22.9,22.9,0,0,1-6,.13,14,14,0,0,1-5.68-1.94c-3.44-2.19-5.73-5.65-8-8.92s-4.94-6.45-8.6-8.2-7.58-2.6-11.52-3.31A57.84,57.84,0,0,1,257.84,80a45.28,45.28,0,0,1-10.35-6.15c-3.21-2.42-6.24-5.06-9.37-7.58s-6.36-4.9-9.74-7.08c-6.71-4.34-14.18-7.86-22.18-8.82a33,33,0,0,0-11.93.71c-3.91,1-7.53,2.76-11.23,4.31-7.38,3.15-14.85,6.28-22.74,7.9a61.05,61.05,0,0,1-12,1.25c-2,0-4-.09-6-.23s-4-.33-6-.51Z"/></svg>