<svg id="Layer_1" data-name="Layer 1" xmlns="http://www.w3.org/2000/svg" viewBox="0 0 600 600"><title>Guinea</title><path d="M189.81,98.23a7.49,7.49,0,0,1,2,2.47c.44,1,.79,2,1.25,3,.27.46.57.9.85,1.35a10.18,10.18,0,0,0,2.12,2.35,9.32,9.32,0,0,0,1.28.91,14.26,14.26,0,0,0,5.93,1.79,47,47,0,0,0,6.29.14c4.22-.15,8.62-.55,13,.27a78.46,78.46,0,0,1,12.5,3.67,56,56,0,0,0,12,3.18,30.48,30.48,0,0,0,11.84-1.13c3.94-1.11,7.85-2.67,12-4.11,2.08-.71,4.17-1.39,6.44-1.94a38.28,38.28,0,0,1,7-1,27.18,27.18,0,0,1,14.52,3,20.69,20.69,0,0,1,6.28,5.17,13.07,13.07,0,0,1,1.26,1.82,11.68,11.68,0,0,1,1,2l.42,1.05.3,1.07a15.33,15.33,0,0,1,.45,2.11,45.11,45.11,0,0,1,.3,7.27,21.12,21.12,0,0,0,.45,5.18,10.43,10.43,0,0,0,.69,1.95c.17.29.32.59.47.88s.36.45.51.69.34.32.47.48.3.18.42.27a1.13,1.13,0,0,0,.58.11,3.9,3.9,0,0,0,1.75-.73,7.63,7.63,0,0,0,2.19-2.34,4.66,4.66,0,0,0,.41-.76l.18-.39.28-.6c.51-1.11,1-2.22,1.68-3.37a27.1,27.1,0,0,1,2.37-3.62,15.75,15.75,0,0,1,4.46-4,11.94,11.94,0,0,1,8.73-1.35,16.32,16.32,0,0,1,5.86,2.78,33.19,33.19,0,0,1,3.3,2.77c.93.87,1.76,1.69,2.56,2.49l2.27,2.32,1.08,1.1.51.52.4.37a14,14,0,0,0,3.27,2.25,6.72,6.72,0,0,0,2.81.74c.17,0,.37,0,.5,0s.23,0,.31-.08a3.75,3.75,0,0,0,.46-.25,17.12,17.12,0,0,0,2.74-2.22,52.22,52.22,0,0,1,5.89-4.93,26,26,0,0,1,4.49-2.48,21.38,21.38,0,0,1,2.63-1l1.49-.37c.49-.11,1.07-.18,1.61-.26a18.69,18.69,0,0,1,6.87.45,25.12,25.12,0,0,1,5.11,2c1.3.68,2.24,1.25,3,1.68l1.11.58c.31.16.68.33,1.07.5a35.9,35.9,0,0,0,14.44,3.2,40.48,40.48,0,0,0,10-1.23,43.47,43.47,0,0,0,9.62-3.41,23.17,23.17,0,0,0,6.85-5c.17-.23.32-.45.49-.66l.26-.31s0,0,.07-.09a10.2,10.2,0,0,0,.81-1.72,38.41,38.41,0,0,1,1.82-4,18,18,0,0,1,1.67-2.56c.31-.42.63-.84,1-1.25l1.13-1.14a20.53,20.53,0,0,1,10.61-5.38,25.32,25.32,0,0,1,10.23.26,27,27,0,0,1,12.76,6.79,20.78,20.78,0,0,1,1.75,1.87c.27.32.59.67.8,1l.65.91a33.84,33.84,0,0,1,4,7.69,43.39,43.39,0,0,1,2,7.69,90.89,90.89,0,0,1,1,14,100.5,100.5,0,0,0,.56,11.89,24.89,24.89,0,0,0,2.88,9.53,17.19,17.19,0,0,0,1.26,1.85l.74.85.87.89c1.25,1.2,2.8,2.43,4.46,3.74s3.44,2.69,5.27,4.27a32.81,32.81,0,0,1,5.37,5.7,20.54,20.54,0,0,1,3.6,8.21,10.73,10.73,0,0,1,.21,1.18l.08,1.28a12.38,12.38,0,0,1-.12,2.63,13.21,13.21,0,0,1-.61,2.63,18.2,18.2,0,0,1-1,2.38,29.06,29.06,0,0,1-5,6.18,16.87,16.87,0,0,0-3,3.67,4.26,4.26,0,0,0-.31.71,3.4,3.4,0,0,1-.12.34l-.1.41a7.31,7.31,0,0,0-.12,1.76,7.44,7.44,0,0,0,1.11,3.41,11.3,11.3,0,0,0,3,2.93l2.58,1.85c.49.34,1,.69,1.5,1.09s1.14,1,1.69,1.52a14.23,14.23,0,0,1,1.58,1.71,13.64,13.64,0,0,1,1.39,1.86c.39.65.83,1.31,1.15,2l.94,2a35.6,35.6,0,0,1,1.32,3.88c.2.64.39,1.27.53,1.85l.44,1.79c.57,2.33,1,4.43,1.64,6.29a14.06,14.06,0,0,0,2.06,4.34,6.3,6.3,0,0,0,.57.65c.2.15.38.29.55.44l1.14.52c.91.42,2.17,1,3.76,1.78.8.36,1.68.83,2.62,1.31l1.49.79,1.58.95a31.25,31.25,0,0,1,7.42,6.15c.65.76,1.3,1.67,1.91,2.53s1.18,2,1.71,3a33.2,33.2,0,0,1,1.32,3.45c.3,1.19.54,2.41.74,3.63a25.6,25.6,0,0,1,.17,3.71c0,.62-.06,1.23-.1,1.85s-.17,1.17-.27,1.75-.23,1.16-.37,1.69-.29,1.08-.46,1.6a28.65,28.65,0,0,1-1.08,2.82,34.65,34.65,0,0,1-2.43,4.56c-.79,1.26-1.59,2.45-2.31,3.4-1.48,2-2.69,3.49-3.46,4.61a17.93,17.93,0,0,0-1.67,2.81,23.1,23.1,0,0,0-1.1,3.23,25.06,25.06,0,0,0-.44,3.67,21.76,21.76,0,0,0,1.31,7.94l.37,1c0,.16,0,.17.06.36a5,5,0,0,0,.84,1.39c.44.58,1,1.27,1.76,2.06s1.54,1.65,2.47,2.71a35.06,35.06,0,0,1,2.94,3.79c.25.35.51.79.76,1.22s.49.85.72,1.35a20,20,0,0,1,1.12,2.83c.17.48.25.88.36,1.3l.28,1.25c.13.77.25,1.55.34,2.29s.13,1.43.16,2.11.05,1.35.05,2c0,2.57-.14,4.93-.34,7.19l-.57,6.42-.11,1.47-.09,1.38v1.33l0,1.69a35.12,35.12,0,0,1-.13,4.11,25.42,25.42,0,0,1-.38,2.54,15.39,15.39,0,0,1-1,3,20.46,20.46,0,0,1-2.06,3.48,8.93,8.93,0,0,0-.88,1.68,11,11,0,0,0-.52,1.84c-.06.32-.1.63-.13.95,0,0,0,0,0,0s.3.93,1.17,1.76A16.49,16.49,0,0,0,543,392a8.62,8.62,0,0,0,2.55,1.4c2.09.79,5.16.92,8.94,2.37a16.24,16.24,0,0,1,3,1.66,19.58,19.58,0,0,1,2.76,2.3,17.22,17.22,0,0,1,3.74,5.76,17.42,17.42,0,0,1,1.13,6.47,27,27,0,0,1-3.3,13,24.24,24.24,0,0,1-4.56,5.93c-.48.44-.94.89-1.45,1.3s-1.05.8-1.6,1.17l-.82.54c-.3.19-.63.37-.94.55a20.43,20.43,0,0,1-2,1,20.93,20.93,0,0,1-4.25,1.33,20.53,20.53,0,0,1-4.18.39,21.25,21.25,0,0,1-6.81-1.15,23.45,23.45,0,0,1-4.78-2.19A42.88,42.88,0,0,1,524,429c-1.76-1.53-3.25-3-4.55-4.14-.63-.58-1.21-1.06-1.59-1.4s-.37-.54-.63-.73a4.89,4.89,0,0,0-.6-.42.37.37,0,0,1-.1-.45c.08-.2.05-.49-.06-.46s-.18.29-.21.65a7.61,7.61,0,0,0,1.2,3.44c.4.77,1,1.73,1.48,2.54s1.07,1.69,1.65,2.58c1.15,1.8,2.48,3.67,3.71,6A23.35,23.35,0,0,1,527,445a22.08,22.08,0,0,1-.91,8.87,54.71,54.71,0,0,1-2.63,6.94,49.34,49.34,0,0,1-8.19,12.49,40.18,40.18,0,0,1-12.56,9.39,44.26,44.26,0,0,1-15.12,4,61.63,61.63,0,0,1-14.87-.61l10.71-7.38-.55,3.81c-.12.66-.28,1.33-.43,2l-.53,2.06a46.88,46.88,0,0,1-3.29,8.82,37,37,0,0,1-2.65,4.5,22,22,0,0,1-1.62,2.12l-.86,1-.92,1a34.78,34.78,0,0,1-8.11,6.07,48.43,48.43,0,0,1-17.74,5.4,73.67,73.67,0,0,1-17.28-.26,31.17,31.17,0,0,1-10.36-2.85,20.48,20.48,0,0,1-5.72-4.3,22.18,22.18,0,0,1-3.81-5.66,33.86,33.86,0,0,1-2.77-10.34c-.17-1.52-.3-3-.36-4.26l-.09-1.9a7.73,7.73,0,0,1,.05-1.92,3.7,3.7,0,0,0-.18-1.89c-.14-.63-.35-1.26-.54-1.89-.42-1.25-.89-2.5-1.22-3.76a19.94,19.94,0,0,1-.62-3.8l-.35-3.81q-.69-7.62-1.24-15.26l-.55-7.65-.07-1-.05-1.21c0-.84,0-1.61,0-2.39l0-2.24,0-2a49.13,49.13,0,0,0-.07-6.27,7.08,7.08,0,0,0-.85-3,3.35,3.35,0,0,0-.29-.44,2.1,2.1,0,0,1-.15-.22l-.28-.4a11.19,11.19,0,0,0-1.05-1.35,3,3,0,0,0-1.59-1,8.14,8.14,0,0,0-1.41-.05,22.3,22.3,0,0,0-3,.3,53.72,53.72,0,0,0-10.28,2.94c-4,1.53-8.31,3.35-13.23,5.33-1.23.48-2.52,1-3.89,1.48L362,435.64c-2.4.89-5.22,1.88-8.41,2.78a49.63,49.63,0,0,1-11.43,1.94c-1.09.07-2.33.05-3.51,0s-2.56-.16-3.71-.34a30.78,30.78,0,0,1-8.81-2.48c-.48-.22-.94-.45-1.41-.69s-1-.57-1.51-.88-1-.61-1.53-1-1.07-.82-1.59-1.26a21.48,21.48,0,0,1-1.58-1.49,19.07,19.07,0,0,1-1.49-1.7,22.61,22.61,0,0,1-2.55-3.93,19.18,19.18,0,0,1-.95-2.08c-.27-.69-.54-1.43-.72-2.07s-.36-1.34-.51-2-.22-1.23-.3-1.85a26.47,26.47,0,0,1-.08-6.06,34.56,34.56,0,0,1,1.57-7.46c.59-1.87,1.16-3.35,1.66-4.63l1.26-3.22.41-1.12.42-1.31a22,22,0,0,1,3.39-6.34c3-4,7.56-7.77,10-12.14a23.18,23.18,0,0,0,2.61-6.74,64.51,64.51,0,0,0,1.45-6.95,51.37,51.37,0,0,0,.17-13.95,55,55,0,0,0-3.33-13.24,60.62,60.62,0,0,0-6-12.09,47.44,47.44,0,0,0-4.08-5.22c-.37-.4-.71-.83-1.09-1.22l-1.16-1.13a21.1,21.1,0,0,0-2.4-2.14c-.85-.64-1.62-1.37-2.5-1.93L311.7,310l-2.7-1.41c-.89-.47-1.85-.77-2.75-1.17a21,21,0,0,0-2.77-.94L302.1,306l-1.41-.26a37.26,37.26,0,0,0-5.73-.88c-2-.11-4.11-.23-6.3-.24s-4.52,0-6.92,0c-4.81,0-10.07.26-15.67-.74a44.4,44.4,0,0,1-8.27-2.24c-2.55-1-4.79-2-6.9-2.85a23.91,23.91,0,0,0-6.07-1.78,18.64,18.64,0,0,0-3,0c-.5,0-1,.13-1.5.22a7,7,0,0,0-1.48.37l-1.46.5c-.48.21-.94.45-1.41.69a23.91,23.91,0,0,0-2.74,1.61c-.91.56-1.75,1.3-2.64,1.93s-1.69,1.44-2.52,2.21a73.93,73.93,0,0,0-9,10.79c-2.74,4-5.3,8.16-7.89,12.47a112.25,112.25,0,0,1-9.14,13.08,64.09,64.09,0,0,1-12,11.56,37.48,37.48,0,0,1-16.84,7c-.4.06-.8.13-1.2.17l-1.22,0-2.45.05c-.81,0-1.62-.13-2.43-.21a24.26,24.26,0,0,1-2.42-.32,34.07,34.07,0,0,1-9.18-3.22,43.22,43.22,0,0,1-7.66-5.31,61.91,61.91,0,0,1-6.12-6.24,126.74,126.74,0,0,1-9.42-13.06l-2.06-3.18-2-3c-.66-1-1.36-2-2.06-3s-1.34-2-2.06-3a284.49,284.49,0,0,0-38-43.61c-1.79-1.63-3.55-3.28-5.39-4.85s-3.6-3.09-5.7-4.89a52.61,52.61,0,0,1-6.42-6.43,26.27,26.27,0,0,1-5.21-9.77,27.63,27.63,0,0,1-.88-5.37c-.11-1.63-.11-3.12-.09-4.45s.05-2.47.05-3.49a25.4,25.4,0,0,0-.16-2.58,9.6,9.6,0,0,0-.44-1.81,3.64,3.64,0,0,0-.46-.93,3,3,0,0,0-.94-.81A14.11,14.11,0,0,0,57,229.07c-1-.41-2.23-.85-3.74-1.5a20.18,20.18,0,0,1-5.18-3.07,14.75,14.75,0,0,1-2.61-2.82,14.41,14.41,0,0,1-1.77-3.41,17.83,17.83,0,0,1-1-6.26l0-1.35.11-1.11c.09-.74.13-1.48.26-2.21l.36-2.18L44,203a51.71,51.71,0,0,1,2.77-8.29,49.76,49.76,0,0,1,9.58-14.3,44.8,44.8,0,0,1,6.5-5.65c1.14-.88,2.38-1.55,3.58-2.31a36.92,36.92,0,0,1,3.71-2,61.41,61.41,0,0,1,15.57-5,112.15,112.15,0,0,1,15.6-1.74c5.13-.25,10.2-.29,15.21-.35,2.51,0,5-.08,7.49-.15s5-.14,7.26-.42a18.24,18.24,0,0,0,6.34-1.77,10,10,0,0,0,2.48-1.8,13.07,13.07,0,0,0,2-2.46,6.61,6.61,0,0,0,.68-5.62,29.2,29.2,0,0,0-3.2-6.29,28.51,28.51,0,0,1-3.43-7.15,11.05,11.05,0,0,1,.82-8.24,17.59,17.59,0,0,1,5.44-5.78,33,33,0,0,0,2.82-2.34,16.62,16.62,0,0,0,2.29-2.77,33.85,33.85,0,0,0,3.39-6.55,26.12,26.12,0,0,0,1.14-3.51,19.07,19.07,0,0,0,.41-3.65,30.48,30.48,0,0,1,.22-3.8A8.71,8.71,0,0,1,154,97.42a9.33,9.33,0,0,1,6.37-3.9,25.34,25.34,0,0,1,7.53.41c1.24.18,2.48.38,3.73.48s2.51.09,3.76.14a44,44,0,0,1,7.5.78,16.59,16.59,0,0,1,6.86,3Zm-.06.07a11.79,11.79,0,0,0-3.32-1.72,20.39,20.39,0,0,0-3.61-.94,43.05,43.05,0,0,0-7.45-.48c-1.25,0-2.49.08-3.8,0s-2.56-.2-3.81-.33a25,25,0,0,0-7.2-.13,7.77,7.77,0,0,0-3,1.23,8,8,0,0,0-2.28,2.27c-1.18,1.76-1.17,4-1.14,6.61a19.87,19.87,0,0,1-.35,4,29.77,29.77,0,0,1-1.12,3.79,37.86,37.86,0,0,1-3.42,7,18.7,18.7,0,0,1-2.5,3.15,34.32,34.32,0,0,1-2.93,2.57,15.61,15.61,0,0,0-4.7,5.11,8.66,8.66,0,0,0-.5,6.46,25.45,25.45,0,0,0,3.32,6.35,32,32,0,0,1,3.75,6.84,10.37,10.37,0,0,1,.56,4.16,10,10,0,0,1-1.23,4,16.62,16.62,0,0,1-2.42,3.23,13.63,13.63,0,0,1-3.19,2.53,22,22,0,0,1-7.49,2.45c-2.56.42-5.08.55-7.59.75s-5,.3-7.55.42c-5,.25-10,.48-15,.9a107.82,107.82,0,0,0-14.79,2.17,56.73,56.73,0,0,0-14,5A42.2,42.2,0,0,0,50.31,211.9a10.42,10.42,0,0,0,.59,3.6A6.5,6.5,0,0,0,53,218.4c1.92,1.55,4.4,2.22,6.74,3.1a15.68,15.68,0,0,1,6.5,3.83,13.49,13.49,0,0,1,3.18,6.82c.93,5-.16,10.13,1.24,15a17.92,17.92,0,0,0,3.63,6.5,42.89,42.89,0,0,0,5.37,5.24c3.89,3.18,7.73,6.42,11.47,9.79a246.88,246.88,0,0,1,39.4,45.41c2.8,4.18,5.46,8.44,8,12.74A123.55,123.55,0,0,0,147,339.3a53.4,53.4,0,0,0,5.08,5.55,34.73,34.73,0,0,0,6,4.49,27.21,27.21,0,0,0,7,2.7c.61.16,1.24.19,1.86.3s1.24.2,1.87.23h2.83c.31,0,.62-.07.93-.1a30.48,30.48,0,0,0,13.92-5.34A58.63,58.63,0,0,0,197.6,337a98.92,98.92,0,0,0,8.91-12.15c2.66-4.25,5.33-8.51,8.23-12.61a81.38,81.38,0,0,1,9.67-11.53,37.4,37.4,0,0,1,12.5-8.23,25.78,25.78,0,0,1,3.59-1.12,11.61,11.61,0,0,1,1.85-.35l1.86-.29a36.36,36.36,0,0,1,7.52.12c2.5.26,5,.67,7.46,1s5,.63,7.5.75c10,.55,20.13-.51,30.09,1.1A46.76,46.76,0,0,1,323,307.54a63.35,63.35,0,0,1,9.12,11.94,73.76,73.76,0,0,1,6.15,13.73c.36,1.2.8,2.38,1.1,3.6l.92,3.66.7,3.7c.26,1.23.34,2.49.52,3.73a92.17,92.17,0,0,1,.48,15,148.82,148.82,0,0,1-4.79,29.71A112.78,112.78,0,0,1,332.75,407a30.44,30.44,0,0,0-2.05,7.23,6.6,6.6,0,0,0,.56,3.67,5.57,5.57,0,0,0,2.75,2.45,13.11,13.11,0,0,0,3.63,1,19.6,19.6,0,0,0,3.75.18,35.19,35.19,0,0,0,7.42-1.24c2.43-.65,4.81-1.44,7.19-2.26s4.76-1.59,7.12-2.46c4.72-1.71,9.42-3.51,14.22-5a60.78,60.78,0,0,1,14.74-2.93,28.06,28.06,0,0,1,7.48.59,19.24,19.24,0,0,1,6.87,3,24.06,24.06,0,0,1,8.57,12.1,24.52,24.52,0,0,1,1,7.43c0,2.51-.25,5-.46,7.52-.54,5-.27,10-.24,15.06q.26,15.06,1,30.12c.14,2.5.23,5,.48,7.51a23.78,23.78,0,0,0,1.76,7.3,11.16,11.16,0,0,0,5,5.43,22.93,22.93,0,0,0,7.22,2,63.49,63.49,0,0,0,15,.55,37.9,37.9,0,0,0,14.4-4.09,25.88,25.88,0,0,0,6.07-4.42,21.77,21.77,0,0,0,4.28-6.15c2.14-4.57,2.9-9.61,3.8-14.53h0a55.67,55.67,0,0,0,12.75,1,36.54,36.54,0,0,0,12.46-2.71,32.65,32.65,0,0,0,10.53-7.15,40.72,40.72,0,0,0,7.43-10.37,41.14,41.14,0,0,0,2.43-5.92,15.75,15.75,0,0,0,.81-6.31,17,17,0,0,0-2-6.06,58.56,58.56,0,0,0-3.4-5.42c-1.2-1.77-2.38-3.55-3.47-5.39a15.26,15.26,0,0,1-2.26-5.94,7.16,7.16,0,0,1,1.8-5.93,8.13,8.13,0,0,1,5.88-2.11,14.76,14.76,0,0,1,6.1,1.8c1.92.93,3.77,2,5.65,3a51.85,51.85,0,0,0,5.76,2.8,14.91,14.91,0,0,0,6.24,1.21,8.18,8.18,0,0,0,3.07-.81,6,6,0,0,0,.7-.39,3.7,3.7,0,0,0,.65-.47l.63-.49c.2-.18.37-.38.56-.57a11.58,11.58,0,0,0,2.89-5.62,14,14,0,0,0,0-6.35,11.84,11.84,0,0,0-3-5.58c-3-3.11-7.07-4.8-10.13-7.81a10.46,10.46,0,0,1-3.18-5.45,9.49,9.49,0,0,1,.06-3.19,17.31,17.31,0,0,1,2.06-6A25.52,25.52,0,0,0,537,378a9,9,0,0,0,.64-3.12,26.29,26.29,0,0,0,0-3.2,127.28,127.28,0,0,1-.18-12.81c0-2.13,0-4.27-.21-6.4a23.94,23.94,0,0,0-1.22-6.27,14.08,14.08,0,0,0-3.66-5.18c-1.52-1.5-3.18-2.85-4.7-4.35a18.19,18.19,0,0,1-3.81-5.12,33.17,33.17,0,0,1-2.45-5.91,34.4,34.4,0,0,1-1.25-6.28,33.37,33.37,0,0,1,.06-6.4,30.53,30.53,0,0,1,1.44-6.24,28.84,28.84,0,0,1,2.82-5.74c2.3-3.59,5.24-6.79,7-10.72a11.91,11.91,0,0,0,1.08-6.22,11.2,11.2,0,0,0-2.51-5.79c-2.7-3.35-6.44-5.59-9.78-8.23a29.69,29.69,0,0,1-4.67-4.36,17.65,17.65,0,0,1-1.8-2.65l-.67-1.46c-.22-.49-.35-1-.53-1.51-1.27-4.1-1.31-8.44-1.78-12.67a31.79,31.79,0,0,0-1.24-6.27,14.29,14.29,0,0,0-3.27-5.44c-.39-.36-.76-.75-1.16-1.1s-.84-.66-1.27-1l-2.58-1.89a16.51,16.51,0,0,1-4.46-4.55,13.29,13.29,0,0,1-1.91-6.06,13.11,13.11,0,0,1,.2-3.19l.18-.78.26-.76a7.66,7.66,0,0,1,.63-1.47c2-3.86,5.9-6.21,8-10a8.92,8.92,0,0,0,.82-6.19A14.31,14.31,0,0,0,502.3,193c-2.58-3.44-6.17-5.9-9.58-8.43s-7-5.09-9.27-8.75a32.09,32.09,0,0,1-4.39-12c-1.54-8.42-.87-17.08-2.64-25.47a29.34,29.34,0,0,0-4.91-11.71,17.31,17.31,0,0,0-10.6-6.61,16,16,0,0,0-6.35,0,10.88,10.88,0,0,0-5.57,2.9l-.57.56-.46.65a8.24,8.24,0,0,0-.86,1.34,26.19,26.19,0,0,0-1.25,2.94,24.73,24.73,0,0,1-1.27,3,9.13,9.13,0,0,1-.87,1.35l-.93,1.31a32.52,32.52,0,0,1-10,7.86,54.08,54.08,0,0,1-12,4.41A50.89,50.89,0,0,1,408,147.77a46.13,46.13,0,0,1-12.61-2.11,47.07,47.07,0,0,1-6-2.34c-1.95-.89-3.75-2.06-5.63-3.08a10.08,10.08,0,0,0-6.09-1.48,13.89,13.89,0,0,0-5.88,2.32c-3.57,2.31-6.28,5.87-10.26,7.62a11.34,11.34,0,0,1-6.3.81,16.39,16.39,0,0,1-6-2.1,23.27,23.27,0,0,1-5-3.95c-1.48-1.55-2.88-3.17-4.31-4.75a38.5,38.5,0,0,0-4.55-4.48,8,8,0,0,0-2.79-1.48,4.06,4.06,0,0,0-3.05.44,8.81,8.81,0,0,0-2.38,2.09,19.79,19.79,0,0,0-1.84,2.61c-1.15,1.79-1.93,3.81-3.25,5.52a14.17,14.17,0,0,1-4.87,4.1,9.18,9.18,0,0,1-6.25.9,8.53,8.53,0,0,1-5-3.76,15.05,15.05,0,0,1-2.25-6c-.73-4.26.37-8.55-.08-12.79a11.84,11.84,0,0,0-2.25-5.88,16.43,16.43,0,0,0-4.73-4.21,23.42,23.42,0,0,0-12.27-3,34.74,34.74,0,0,0-6.35.67c-2.09.42-4.15,1-6.2,1.59-4.09,1.22-8.13,2.63-12.3,3.61a32.91,32.91,0,0,1-12.73.73,58.29,58.29,0,0,1-12.25-3.71,75.74,75.74,0,0,0-12.15-4c-4.19-.92-8.5-.67-12.76-.65a41.5,41.5,0,0,1-6.4-.37,13.89,13.89,0,0,1-6-2.2,13.18,13.18,0,0,1-4.12-4.83c-.42-1-.86-2-1.31-2.91a7.43,7.43,0,0,0-2.09-2.37Z"/></svg>