<svg id="Layer_1" data-name="Layer 1" xmlns="http://www.w3.org/2000/svg" viewBox="0 0 600 600"><title>Honduras</title><path d="M66.56,278.47c1.89-2.84,4.81-4.66,7.36-6.83,1.28-1.08,2.55-2.18,3.85-3.24l3.94-3.13,15.77-12.51c10.52-8.34,20.86-16.92,31.24-25.45,5.19-4.25,10.35-8.58,15.86-12.78a104.35,104.35,0,0,1,18.07-11.32,65.52,65.52,0,0,1,10.53-4,43,43,0,0,1,12-1.66,29.89,29.89,0,0,1,6.75.84,27.56,27.56,0,0,1,3.48,1.12c.56.23,1.19.5,1.68.74l1.38.68c3.57,1.83,6.36,3.67,8.61,4.69a12.41,12.41,0,0,0,2.9,1,6.06,6.06,0,0,0,1.16.13c.15,0,.44,0,.69,0a7.24,7.24,0,0,0,.8,0,54.9,54.9,0,0,0,8.18-1.23c1.62-.32,3.36-.67,5.26-1,.94-.16,1.93-.3,3-.41.53,0,1-.12,1.58-.15l1.57-.1,10.05-.49c6.7-.32,13.4-.65,20.1-.89,3.36-.14,6.66-.26,9.86-.45s6.3-.36,9.3-.7A62,62,0,0,0,298,197.56c5.13-2.05,10.82-5.12,17.21-8.25a105.63,105.63,0,0,1,10.49-4.49,50.74,50.74,0,0,1,12.89-2.91,40.58,40.58,0,0,1,7.39,0c1.27.18,2.53.39,3.79.62a13.46,13.46,0,0,1,1.87.47l1.84.56c.61.2,1.22.38,1.82.61s1.21.48,1.75.73c1.13.5,2.14,1,3.06,1.51,1.86,1,3.36,1.9,4.6,2.58a19.64,19.64,0,0,0,2.87,1.38c.31.14.68.14,1,.26a4.07,4.07,0,0,0,1.09.18,19,19,0,0,0,6-.36c2.48-.51,5.35-1.33,8.54-2.25l5.05-1.44,2.79-.7c.91-.24,2-.43,3-.65a50.31,50.31,0,0,1,13.79-.92c1.29.15,2.58.34,3.87.56s2.56.59,3.78,1,2.41.78,3.47,1.25l1.65.68,1.52.73a89.37,89.37,0,0,1,9.91,5.8,52.54,52.54,0,0,0,6.84,3.92l.67.29.61.22a10.5,10.5,0,0,0,1.11.34c.36.1.76.13,1.16.23s.9.14,1.5.17c2.21.19,5.18.09,8.76,0a58.16,58.16,0,0,1,13.19.91,31.38,31.38,0,0,1,8.27,3,28.22,28.22,0,0,1,7.47,5.78,29.47,29.47,0,0,1,5,7.4,43.47,43.47,0,0,1,2.55,7.13,60.27,60.27,0,0,1,1.26,6.29c.3,2,.51,3.8.69,5.5l.27,2.36c.07.64.17,1.25.26,1.86a31.51,31.51,0,0,0,.76,3.32,7.63,7.63,0,0,0,1.75,3.41c.14,0,0-.15-.14-.26s-.32-.24-.29-.31a5.26,5.26,0,0,1,1.14-.48c.71-.28,1.79-.8,3-1.41s2.68-1.39,4.4-2.2a59.56,59.56,0,0,1,6-2.5,40,40,0,0,1,29.71,1.92,40,40,0,0,1,6.54,3.86c.52.38,1,.76,1.53,1.16l1.45,1.27c.47.4,1,.92,1.5,1.42s.93,1,1.32,1.43a45.49,45.49,0,0,1,4.19,5.56,49.33,49.33,0,0,1,3.21,6,41,41,0,0,1,2.46,7,26.87,26.87,0,0,1,.79,9.36,20.75,20.75,0,0,1-1.58,6.07,18.56,18.56,0,0,1-4,5.7,18.32,18.32,0,0,1-5.12,3.45c-.41.19-.83.37-1.26.55l-1.18.39c-.39.12-.79.25-1.17.35l-1.09.23a28.61,28.61,0,0,1-7.82.47,54.16,54.16,0,0,1-5.72-.77,27.72,27.72,0,0,0-3.61-.49l-.66,0c-.19,0-.41,0-.6,0l-.28,0a1.84,1.84,0,0,0-.38.05l-1.11.21a58.34,58.34,0,0,0-8.52,2.43c-1.36.51-2.71,1-4,1.68s-2.55,1.29-3.85,2.06-2.61,1.63-4,2.53l-4.18,2.87c-1.44,1-2.93,2-4.51,3s-3.24,2-5,3A87.72,87.72,0,0,1,481.73,317q-2.67,1-5.37,1.81c-1.8.57-3.6,1-5.36,1.65s-3.48,1.55-5.22,2.33c-.44.21-.87.39-1.31.56l-1.27.5a15.82,15.82,0,0,1-2.24.71q-2.32.52-5,1.05c-1.78.36-3.73.69-5.79.95a53.49,53.49,0,0,1-6.69.43,43.19,43.19,0,0,1-7.64-.69,37.71,37.71,0,0,1-8.06-2.52l-2.47-1-1.12-.46-1.05-.42a29.41,29.41,0,0,0-3.5-1.18,7,7,0,0,0-2.06-.25,1.37,1.37,0,0,0-.72.34,3.74,3.74,0,0,1-.72.56,5.34,5.34,0,0,0-1.09.93,1.93,1.93,0,0,0-.38.74c-.1.17-.15.49-.31.86s-.35,1-.58,1.8-.48,1.83-.76,3l-.85,4-1,4.95c-.37,1.77-.86,3.71-1.42,5.76a64.54,64.54,0,0,1-2.2,6.54,53.75,53.75,0,0,1-3.53,7.16,43,43,0,0,1-5.33,7.08,45.1,45.1,0,0,1-3.29,3.19c-.58.49-1.18,1-1.78,1.43l-.9.69L392,370c-1.79,1.24-3.62,2.41-5.49,3.49a21.57,21.57,0,0,1-5.88,2.68,15.55,15.55,0,0,1-3.3.49c-.57,0-1.14,0-1.72,0s-1.16-.07-1.75-.14a62.72,62.72,0,0,1-6.95-1.31,50.42,50.42,0,0,0-6.37-1.07c-2-.16-3.88,0-5.78,0s-3.77,0-5.64,0c-.93,0-1.86,0-2.78,0s-2.15,0-3.15-.12c-2.08-.11-4-.41-5.86-.68s-3.52-.57-5.13-.78a28.39,28.39,0,0,0-8.14-.27,8.53,8.53,0,0,0-1.49.37,4.68,4.68,0,0,0-.6.21,3.49,3.49,0,0,1-.48.23,3.74,3.74,0,0,0-1.19,1.35,33,33,0,0,0-1.46,3,49.35,49.35,0,0,1-2.47,5.21,27.19,27.19,0,0,1-4.68,6.07c-.85.78-1.7,1.57-2.61,2.33s-1.94,1.46-3,2.1a29,29,0,0,1-3.35,1.78,24.7,24.7,0,0,1-3.55,1.36A38.67,38.67,0,0,1,292,397.7a72.35,72.35,0,0,1-11.25-.07l-2.16-.11c-.65,0-1.37-.08-1.95-.06s-1.23-.07-1.77,0a7.66,7.66,0,0,1-.85-.08l-.46-.09-2.11-.53a14,14,0,0,0-2.25-.44,5.06,5.06,0,0,0-1.1,0,1.51,1.51,0,0,0-.54.15l-.55.33a3,3,0,0,0-1.22,2.21,2.78,2.78,0,0,0,0,.82,6.16,6.16,0,0,0,.1.91c.07.31.14.63.25,1a9.4,9.4,0,0,0,.33,1c.52,1.42,1.19,3,1.83,4.77a25.94,25.94,0,0,1,1.45,6.15l.08.85,0,.77c0,.51,0,1,0,1.53,0,1-.1,2-.22,3a38.5,38.5,0,0,1-3.32,11.31,41.9,41.9,0,0,1-6.29,9.64,48.79,48.79,0,0,1-8.4,7.78,47.19,47.19,0,0,1-10.14,5.54,42.69,42.69,0,0,1-11.4,2.87,34.69,34.69,0,0,1-12.45-.71,28.5,28.5,0,0,1-6.26-2.43,34.36,34.36,0,0,1-5.36-3.55,62.28,62.28,0,0,1-8.18-8.13l-3.35-4c-1.08-1.3-2.18-2.62-3.25-4a116.93,116.93,0,0,1-12.15-17.83,70.4,70.4,0,0,1-4.59-10.62c-.63-1.87-1.15-3.8-1.61-5.76-.2-1-.37-2-.55-3s-.27-2-.37-2.9c-.41-3.74-.5-6.88-.91-9.35a18.65,18.65,0,0,0-.72-3.2,13.38,13.38,0,0,0-1.16-2.65,15.17,15.17,0,0,0-4.09-4.31,17.32,17.32,0,0,0-6.11-2.48,19.43,19.43,0,0,0-7,0,24.43,24.43,0,0,0-7.27,2.88c-1.38.75-2.87,1.64-4.62,2.55a27.72,27.72,0,0,1-6.2,2.46,19.22,19.22,0,0,1-7.51.37,23,23,0,0,1-6.51-2.07,29,29,0,0,1-2.71-1.46c-.84-.52-1.7-1.07-2.34-1.52-1.39-.95-2.8-1.9-4.19-2.89-2.79-2-5.59-4-8.32-6.17a99.7,99.7,0,0,1-8-6.93,71.09,71.09,0,0,1-7.05-8,52.68,52.68,0,0,0-6-7.25,12,12,0,0,0-3.37-2.24,12.18,12.18,0,0,0-4.07-.89c-1.54-.11-3.21-.09-5-.17a27.82,27.82,0,0,1-5.38-.78,22.74,22.74,0,0,1-9.64-4.81,14.29,14.29,0,0,1-3.38-4.33,13.43,13.43,0,0,1-1.38-5.27,19.89,19.89,0,0,1,2.62-10c1.55-3,3.47-5.8,5.07-8.72a62.38,62.38,0,0,0,4.1-9.14c.57-1.58,1.11-3.16,1.53-4.78s.73-3.27,1.06-4.91.67-3.29,1.16-4.89a17.5,17.5,0,0,1,2-4.6Zm.08,0a10.37,10.37,0,0,0-1,2.28c-.27.8-.51,1.59-.7,2.4-.39,1.62-.64,3.27-.88,4.92s-.45,3.33-.78,5a50.64,50.64,0,0,1-1.3,4.95c-.5,1.62-1,3.24-1.66,4.82s-1.35,3.14-2.12,4.66c-1.52,3.08-3.35,5.87-4.73,8.82a18,18,0,0,0-2.12,9,11.08,11.08,0,0,0,4.21,7.73A19.64,19.64,0,0,0,64.07,337a25.28,25.28,0,0,0,4.76.48c1.63,0,3.31-.11,5-.08a16.44,16.44,0,0,1,5.28.86,15.67,15.67,0,0,1,4.64,2.66,52.6,52.6,0,0,1,7,7.48,76.18,76.18,0,0,0,14.76,13.27c2.71,1.93,5.51,3.76,8.34,5.54l4.26,2.66a32.78,32.78,0,0,0,4.34,2.37,13.74,13.74,0,0,0,9.48,1c3.15-.87,5.92-2.85,8.79-4.58a33.62,33.62,0,0,1,9.18-4.19,24.14,24.14,0,0,1,5-.8,29.37,29.37,0,0,1,5,.12,26.1,26.1,0,0,1,9.56,3.15,22.86,22.86,0,0,1,7.33,6.85,24.13,24.13,0,0,1,3.54,9.36c.56,3.32.67,6.68,1,10a52.59,52.59,0,0,0,5.84,19.12,118.92,118.92,0,0,0,10.84,16.9c2,2.69,4,5.37,6.09,8a52.81,52.81,0,0,0,6.8,7.38,23.23,23.23,0,0,0,8.69,4.9,27.9,27.9,0,0,0,10,.91,38.35,38.35,0,0,0,18.75-6.63,39.06,39.06,0,0,0,13.12-14.94,30.39,30.39,0,0,0,2.88-9.59,22.69,22.69,0,0,0,.07-5,19.93,19.93,0,0,0-1.19-4.87c-1.12-3.15-2.68-6.19-3.16-9.52a11.79,11.79,0,0,1,.31-5,15.77,15.77,0,0,1,1-2.32,11.71,11.71,0,0,1,1.48-2,15.5,15.5,0,0,1,8.77-4.53,46.16,46.16,0,0,1,10-.15c3.34.25,6.68.62,10,.54a23.09,23.09,0,0,0,9.7-2.31,19.86,19.86,0,0,0,7.58-6.44c1.93-2.74,3.21-5.92,5.48-8.42a11.9,11.9,0,0,1,4-2.91l1.18-.43c.4-.15.81-.21,1.22-.32a17.31,17.31,0,0,1,2.48-.4,37.71,37.71,0,0,1,10,.81,64.2,64.2,0,0,0,9.95,1.38,38.14,38.14,0,0,0,5-.27c1.67-.18,3.33-.41,5-.71a68.51,68.51,0,0,0,19-6.39,63.56,63.56,0,0,0,8.57-5.24,23.83,23.83,0,0,0,6.75-7.35,39.75,39.75,0,0,0,3.83-9.27c.94-3.22,1.64-6.5,2.43-9.76a65.64,65.64,0,0,1,2.9-9.61,24.63,24.63,0,0,1,5.42-8.39,22.53,22.53,0,0,1,8.56-5.12,21.72,21.72,0,0,1,4.91-1,20.51,20.51,0,0,1,5,.32,37.69,37.69,0,0,1,9.37,3.55l4.47,2.3a24,24,0,0,0,4.72,1.71,33.51,33.51,0,0,0,10,.63c3.35-.22,6.67-.73,10-1.18s6.66-.79,10-1.39a84.62,84.62,0,0,0,9.78-2.3,63,63,0,0,0,9.36-3.64,76.74,76.74,0,0,0,8.64-5.13c2.78-1.87,5.52-3.8,8.37-5.57a64.42,64.42,0,0,1,8.91-4.65,77.17,77.17,0,0,1,9.49-3.3,22.35,22.35,0,0,1,4.93-.93,36.59,36.59,0,0,1,5,.11c3.32.28,6.73.61,10-.25a9.27,9.27,0,0,0,4.38-2.32,7.05,7.05,0,0,0,1.38-2.08,8.59,8.59,0,0,0,.53-2.45c.15-3.37-1.13-6.62-2.67-9.57a36.91,36.91,0,0,0-5.85-8.13,27.86,27.86,0,0,0-27.88-6.77c-3.19,1.05-6.19,2.57-9.27,3.89a25.27,25.27,0,0,1-9.66,2.54,12.31,12.31,0,0,1-9-3.79,16.59,16.59,0,0,1-2.9-4.09,28,28,0,0,1-1.89-4.65,45.7,45.7,0,0,1-1.16-4.89c-.29-1.65-.47-3.32-.67-5a69,69,0,0,0-1.65-9.91,20.11,20.11,0,0,0-4.53-8.85,16.13,16.13,0,0,0-8.71-4.67,44.69,44.69,0,0,0-10-.48c-3.35.13-6.7.34-10.06.17a26.86,26.86,0,0,1-9.74-2.26c-6.19-2.65-11.43-7-17.46-9.95a27.45,27.45,0,0,0-9.55-2.92,37.26,37.26,0,0,0-10,.55c-6.61,1.15-13,3.42-19.59,4.53a33,33,0,0,1-10,.22,14.72,14.72,0,0,1-2.46-.51c-.8-.26-1.63-.42-2.4-.75a36.26,36.26,0,0,1-4.5-2.24c-2.91-1.65-5.72-3.57-8.94-4.55l-1.19-.38a7.45,7.45,0,0,0-1.21-.32l-2.48-.43a28.9,28.9,0,0,0-5,0,38.24,38.24,0,0,0-9.78,2.17,94.9,94.9,0,0,0-9.26,3.89c-6,2.88-11.95,6.09-18.24,8.47a74.25,74.25,0,0,1-19.61,4.22c-6.68.62-13.39.68-20.09.78l-20.11.3-10.06.14a72.88,72.88,0,0,0-10,1.1,55,55,0,0,1-10,.92,19.53,19.53,0,0,1-5-.73,23.83,23.83,0,0,1-4.63-2c-2.95-1.6-5.65-3.62-8.55-5.29a20.18,20.18,0,0,0-9.51-2.86c-6.71-.37-13.34,1.45-19.54,3.9A100.22,100.22,0,0,0,147.53,219c-5.6,3.69-11,7.69-16.42,11.61L98.54,254.22,82.26,266c-2.71,2-5.41,4-8.16,5.87-1.38,1-2.78,1.87-4.09,2.92a14.71,14.71,0,0,0-3.29,3.75Z"/><path d="M340,151.24a34.06,34.06,0,0,0-5.45,1.15c-.42.14-.83.27-1.21.44l-.56.25c-.17.09-.39.19-.41.26a2.88,2.88,0,0,0-.62,1.35,16.39,16.39,0,0,0-.14,4.75c.09.84.17,1.71.32,2.53.07.1,0-.29-.37-.5s-.29-.12-.12-.14a5.86,5.86,0,0,0,1.84-.47,9.69,9.69,0,0,0,1-.44,9.25,9.25,0,0,0,1-.56,23.47,23.47,0,0,0,3.89-3.2c.64-.62,1.28-1.28,1.91-1.94a9.19,9.19,0,0,0,1.49-1.84,2.12,2.12,0,0,0,.24-1.91,2.18,2.18,0,0,0-.67-.93,1.5,1.5,0,0,0-1.23-.32,1.75,1.75,0,0,1,1.51-.38,3.14,3.14,0,0,1,1.5.8,3.2,3.2,0,0,1,.94,1.58,4.66,4.66,0,0,1,.07,1.85,9.7,9.7,0,0,1-1.19,3.08c-.48.86-1,1.69-1.53,2.52a19.8,19.8,0,0,1-4.2,4.57,10.66,10.66,0,0,1-1.4.94,14.83,14.83,0,0,1-1.49.75,10.25,10.25,0,0,1-3.59.9,4.73,4.73,0,0,1-2.81-.77,4,4,0,0,1-1.24-1.42,3,3,0,0,1-.3-.77,4.39,4.39,0,0,1-.15-.69,22.81,22.81,0,0,1-.17-3.08,18.44,18.44,0,0,1,.25-3.11,11.83,11.83,0,0,1,1-3.23,6.19,6.19,0,0,1,1.08-1.62,4,4,0,0,1,.8-.73,5.4,5.4,0,0,1,.47-.3l.53-.23a5,5,0,0,1,.89-.25c.27,0,.54-.09.8-.11a13.74,13.74,0,0,1,1.56-.06A15.92,15.92,0,0,1,340,151.24Z"/><path d="M276.9,170.45a2.06,2.06,0,0,0,1.77.84,7.24,7.24,0,0,0,2-.29,19.26,19.26,0,0,0,3.77-1.54c.61-.3,1.19-.66,1.78-1s1.22-.71,1.79-1.06l3.47-2.2c1.14-.73,2.34-1.46,3.41-2.19s2.18-1.58,3.41-2.36a19.57,19.57,0,0,1,2-1.1c.35-.17.72-.33,1.1-.47.15-.06.05,0,.08,0v0s-.05,0-.14.09a1.19,1.19,0,0,0-.36.57,1.64,1.64,0,0,0,0,1,1.49,1.49,0,0,0,.4.63l.1.09-.19-.06-.42-.13c-.28-.08-.57-.14-.85-.21a40.12,40.12,0,0,0-7.49-.78,62.11,62.11,0,0,0-8,0,17.29,17.29,0,0,0-3.83.8,9.93,9.93,0,0,0-3.37,1.93,5.08,5.08,0,0,0-1.57,3.53A7.24,7.24,0,0,0,276.9,170.45Zm0,0a8.27,8.27,0,0,1-1.28-3.87,6.08,6.08,0,0,1,1.23-4,15.77,15.77,0,0,1,7.14-4.72,40.42,40.42,0,0,1,8.32-1.93,25.17,25.17,0,0,1,8.84.24l1.13.31.56.18a6.44,6.44,0,0,1,.76.31,4,4,0,0,1,1,.63,3.37,3.37,0,0,1,1,1.45,3.23,3.23,0,0,1,0,2.06,3.45,3.45,0,0,1-.91,1.42,3.94,3.94,0,0,1-1,.69l-.48.2a3.41,3.41,0,0,1-.4.13l-.82.24c-.55.2-1.14.41-1.73.66l-3.77,1.62c-1.35.53-2.65.91-4,1.37l-7.85,2.64a34.07,34.07,0,0,1-4,1.09,8.35,8.35,0,0,1-2.05.16A2.1,2.1,0,0,1,276.9,170.45Z"/><path d="M237.71,186.93a8.14,8.14,0,0,0,7.71,3,5.69,5.69,0,0,0,3.12-1.42,3.58,3.58,0,0,0,.53-.57,1.91,1.91,0,0,0,.37-.57,2.54,2.54,0,0,0,.3-1.17,1.47,1.47,0,0,0-.2-.8,2.12,2.12,0,0,0-.86-.7,26.11,26.11,0,0,0-4.18-1.25c-3-.85-6.09-1.45-9.45-2.07a21.53,21.53,0,0,1,10-1.82,18,18,0,0,1,5.37.75,6.8,6.8,0,0,1,3,2.15,6.29,6.29,0,0,1,1.22,3.79,7.25,7.25,0,0,1-1,3.5,6.32,6.32,0,0,1-1.07,1.4,6.48,6.48,0,0,1-1.24,1.1,8.9,8.9,0,0,1-6,1.6,9.33,9.33,0,0,1-5.32-2.19A6.76,6.76,0,0,1,237.71,186.93Z"/></svg>