<svg id="Layer_1" data-name="Layer 1" xmlns="http://www.w3.org/2000/svg" viewBox="0 0 600 600"><title>HongKong</title><path d="M161.07,211.83c1.84-1.36,3.79-2.53,5.63-3.88a16,16,0,0,0,4.51-5,24.13,24.13,0,0,0,2.27-6.34c.54-2.19.94-4.43,1.49-6.67a28.48,28.48,0,0,1,2.36-6.64,21.46,21.46,0,0,1,4.36-5.7,17.66,17.66,0,0,1,6.29-3.83,14.68,14.68,0,0,1,3.74-.74,12.4,12.4,0,0,1,3.89.31,12.18,12.18,0,0,1,6.81,4.05,10.09,10.09,0,0,1,1.8,3.83c.32,1.22.53,2.28.84,3.07a3.26,3.26,0,0,0,1.28,1.64,3.58,3.58,0,0,0,1.94.65,10.41,10.41,0,0,0,5.15-1.7,17.68,17.68,0,0,0,4.81-3.59,13.12,13.12,0,0,0,2.87-4.88,12.4,12.4,0,0,0,.49-2.81c.09-1,.1-2.13.14-3.29a30.25,30.25,0,0,1,.27-3.68,12.19,12.19,0,0,1,1.29-3.95,9,9,0,0,1,3-3.19A11.36,11.36,0,0,1,230.1,158c2.49-.52,4.79-.52,6.92-.8a14.47,14.47,0,0,0,3-.69,13.47,13.47,0,0,0,2.78-1.41,42.47,42.47,0,0,0,5.11-4.28c.85-.78,1.73-1.54,2.66-2.27a14.26,14.26,0,0,1,3.09-1.88,9.38,9.38,0,0,1,3.6-.82,12.92,12.92,0,0,1,3.61.63,5.49,5.49,0,0,0,1.52.24,1.87,1.87,0,0,0,1.07-.35,2.67,2.67,0,0,0,1-1.9c.19-.91.27-2,.41-3.2a11,11,0,0,1,.39-2l.2-.56.17-.41.35-.83a19.32,19.32,0,0,1,4.19-6.37,10.8,10.8,0,0,1,1.68-1.31,14.83,14.83,0,0,1,5.76-2.07c5.35-.66,10.09.74,14.33,1.3a23,23,0,0,0,21.1-7.93c2.66-3,4.88-7,8.07-10.87a27.35,27.35,0,0,1,5.86-5.48,13.25,13.25,0,0,1,1.87-1.09,13.42,13.42,0,0,1,2-.88,17,17,0,0,1,4.26-1,28.86,28.86,0,0,1,7.8.27l6.8,1,13.51,2.13,13.51,2.11,6.76,1c1.12.16,2.27.31,3.51.53a20.5,20.5,0,0,1,3.89,1,13.84,13.84,0,0,1,2,1c.32.2.64.42,1,.65a11,11,0,0,1,1,.85,9.58,9.58,0,0,1,2.47,4.33,7.73,7.73,0,0,1-.56,5.54,6.15,6.15,0,0,1-.87,1.28,7.28,7.28,0,0,1-1.07,1c-.17.13-.35.28-.51.39l-.49.3a9.14,9.14,0,0,1-.94.53c-2.41,1.22-4.56,1.89-6.49,2.75a17.19,17.19,0,0,0-2.55,1.32,5.22,5.22,0,0,0-.83.66c-.26.27-.62.67-.9,1a6.41,6.41,0,0,0-1.1,1.88,1.08,1.08,0,0,0-.08.49s0,0,0,.05l0,0s0,0,0,.06a2.4,2.4,0,0,0,1,.67,7.91,7.91,0,0,0,2.27.52c3.44.3,7.42-1,9.2-3.41l.33-.45.28-.47a8.68,8.68,0,0,0,.54-1.17c.36-.87.68-1.89,1.08-3a21.58,21.58,0,0,1,1.58-3.7l.56-1c.19-.32.42-.6.63-.91a16.37,16.37,0,0,1,1.42-1.68,19.1,19.1,0,0,1,15.71-5.58,20.91,20.91,0,0,1,2.19.38c.71.2,1.44.42,2.14.69a20.42,20.42,0,0,1,3.8,2,17.9,17.9,0,0,1,6,6.52,11.5,11.5,0,0,1,1.3,5.18,17.37,17.37,0,0,1-.72,4.47,4.15,4.15,0,0,0-.26,1.58,1,1,0,0,0-.12-.4c0-.08,0,0,.17.06l.15.08.07.05s0,0,0,0-.18-.08-.2-.1l0,0c.09,0,.44,0,.89.05a20.62,20.62,0,0,1,4.29.35c.29.08.59.16.88.26a7.53,7.53,0,0,1,1,.43,7.16,7.16,0,0,1,1.09.71,6.46,6.46,0,0,1,1.84,2.25c.11.22.21.44.3.67s.15.49.21.75a5,5,0,0,1,.15.77c0,.23,0,.45,0,.67s0,.46,0,.68-.05.37-.07.56a9.74,9.74,0,0,1-1.09,3.14,20.6,20.6,0,0,1-1.12,1.89,23.29,23.29,0,0,0-1.44,2.31h0a.67.67,0,0,0,.08-.23c0-.07,0,0,0,.06a2,2,0,0,0,.06.3,1,1,0,0,0,.32.48s.11,0,.16.08a.25.25,0,0,0,.17.1,2,2,0,0,0,.37.13,7.08,7.08,0,0,0,1.75.07c.81-.05,1.82-.2,3-.36a32,32,0,0,1,4.06-.33,15.68,15.68,0,0,1,5.27.87,12.85,12.85,0,0,1,2.76,1.43,16.41,16.41,0,0,1,2.07,1.72c1.14,1.12,1.92,2.09,2.52,2.69s.94.87,1.18.91.24,0,.33.1.13,0,.19,0a.53.53,0,0,0,.22,0h.27l.37-.06c.22,0,.59-.15.9-.21a20.08,20.08,0,0,0,2.38-.9c1.8-.76,3.77-1.83,6.39-2.87a21.83,21.83,0,0,1,4.62-1.3,22.14,22.14,0,0,1,2.39-.26l.65,0,.78,0,.78,0c.29,0,.65.09,1,.14l.49.1a3.24,3.24,0,0,1,.55.13c.44.14.88.3,1.31.48a4.76,4.76,0,0,1,.72.36c.28.16.55.34.81.52s.51.39.76.59a10.85,10.85,0,0,1,.8.86,7.34,7.34,0,0,1,1.23,2,8.38,8.38,0,0,1,.61,2.09c0,.32.07.64.09,1a6.1,6.1,0,0,1,0,.86c0,.47-.09.94-.16,1.41a14.27,14.27,0,0,1-1.22,3.45l-.33.64-.31.55c-.22.38-.43.71-.64,1a65.39,65.39,0,0,1-4.91,6.48c-1.63,2-3.24,3.81-5,5.67-.43.47-.87.94-1.36,1.43l-1.36,1.35-2.52,2.5q-2.54,2.47-5.18,4.84a88.83,88.83,0,0,1-11.22,8.61,50.15,50.15,0,0,1-6.3,3.28L445.74,204q-1.47.63-2.94,1.38c-3.93,2-8,4.24-12.46,6.36-2.22,1.06-4.5,2.09-6.87,3-.34.14-.49.19-.72.27l-.77.3-1.77.71a34,34,0,0,1-4.26,1.44l-1.33.3c-.5.08-1,.15-1.52.21a17.94,17.94,0,0,1-1.82.06l-1.08-.09-.53-.06-.63-.14a12.64,12.64,0,0,1-1.24-.36,9.62,9.62,0,0,1-1.33-.6A9.84,9.84,0,0,1,404,215a7.62,7.62,0,0,1-.92-1.11c-.26-.38-.51-.78-.74-1.18a10.05,10.05,0,0,1-.94-2.64,10.81,10.81,0,0,1,.08-4.65,14.54,14.54,0,0,1,1.09-3.09,26.43,26.43,0,0,1,2.5-4l.56-.76.63-.79c.43-.53.86-1,1.3-1.52a36.63,36.63,0,0,1,2.76-2.81,49.76,49.76,0,0,1,6.21-4.92,31.22,31.22,0,0,1,7.76-3.84c2.68-.83,4.95-1.23,6.71-1.74a14.86,14.86,0,0,0,2.23-.8,5.06,5.06,0,0,0,.69-.37,3.77,3.77,0,0,0,.58-.43,4.31,4.31,0,0,0,.79-.94c.16-.27.13-.34.19-.25s.1.14.12.11-.17-.27-.67-.51a14.43,14.43,0,0,0-4.79-1.09c-2.76-.28-5-.74-7.21-1.13s-4.4-.79-6.5-1.07a43.19,43.19,0,0,0-6-.4,14.91,14.91,0,0,0-2.5.23,4,4,0,0,0-.89.23l-.35.11a.57.57,0,0,1-.13.1c-.05,0-.12,0-.16.08s-.16.09-.14.12-.05,0-.05,0-.11.24-.06,1.05.21,1.94.27,3.48a12.34,12.34,0,0,1-1,5.64,12,12,0,0,1-3.77,4.6,16.75,16.75,0,0,1-4.3,2.26c-2.7,1-5.09,1.42-7,2l-.67.2-.59.19-.47.19-.5.25a12.45,12.45,0,0,0-2,1.32,29.32,29.32,0,0,0-4.06,4.11c-2.71,3.2-5.7,7.54-10.48,10.77a18.63,18.63,0,0,1-8.69,3.26,20,20,0,0,1-4.51-.11c-1.3-.17-2.41-.36-3.32-.46q-.69-.08-1.23-.09a4.41,4.41,0,0,0-.82.05,3.13,3.13,0,0,0-1.13.37c-.14.12.05-.06.09-.27a.63.63,0,0,0,0-.27s0,0,0,.11a2.91,2.91,0,0,0,.76.87,5.08,5.08,0,0,0,.56.35q.44.19,1,.39c1.49.51,3.71.76,6.43,1.48a24.23,24.23,0,0,1,7.75,3.84,25.16,25.16,0,0,1,5.76,6.09,33,33,0,0,1,5.45,14.92l.17,2,0,2c0,.66,0,1.33-.07,2l-.06,1-.17,1.18a23.16,23.16,0,0,1-3.1,7.94c-1.28,2.19-2.55,4-3.51,5.75a12.55,12.55,0,0,0-1.68,4.57,2.42,2.42,0,0,0,.12,1.1c.12.27.09.21.37.44.06,0,0,0-.08,0a.39.39,0,0,0-.23,0,3.17,3.17,0,0,0,1-.64,21.28,21.28,0,0,0,3.55-4.23L378,262.7c.58-.84,1.12-1.73,1.65-2.65,2.13-3.65,4-7.79,6.27-12,.72-1.29,1.36-2.22,2-3.19s1.23-1.88,1.78-2.78,1.05-1.78,1.44-2.58c.2-.39.35-.79.47-1.06a.77.77,0,0,1,.16-.07c.05,0,.05-.07.07-.1l.05-.13c.06-.13,0-.07,0,0h0l-.92,1.5,1.4-3.48a51.23,51.23,0,0,1,2.93-6,27.16,27.16,0,0,1,4.59-5.92c.48-.46,1-.89,1.52-1.32s1.2-.84,1.82-1.24,1.29-.68,1.95-1,1.35-.5,2-.74a19.69,19.69,0,0,1,8.33-.57,21.85,21.85,0,0,1,13.94,7.92,20,20,0,0,1,2.25,3.57c.57,1.18,1,2.22,1.33,3.07a12.15,12.15,0,0,0,1,1.91,1.85,1.85,0,0,0,.42.48,1.93,1.93,0,0,0,.41.36,2.53,2.53,0,0,0,.92.4,3,3,0,0,0,1.12,0,2.71,2.71,0,0,0,1.71-1.12,1.81,1.81,0,0,0,.21-.79c0-.08,0-.15,0-.24a1.57,1.57,0,0,1-.05-.3,3.38,3.38,0,0,0-.19-.86c-.4-1.44-1.37-3.32-2.15-5.93a16.13,16.13,0,0,1-.66-4.38,16.31,16.31,0,0,1,.55-4.39,20,20,0,0,1,3.74-7.3,23.12,23.12,0,0,1,2.72-2.87,25.13,25.13,0,0,1,3.13-2.33,44.83,44.83,0,0,1,6.18-3.12,35.34,35.34,0,0,0,4.93-2.45,11.7,11.7,0,0,0,1.8-1.38c.29-.23.5-.52.76-.77s.51-.59.77-1c1.06-1.4,2.13-3.18,3.47-5.07a26.31,26.31,0,0,1,2.41-3,14.3,14.3,0,0,1,3.71-2.79,11.32,11.32,0,0,1,5.15-1.09A12.86,12.86,0,0,1,479.6,187c1.22.52,2.14,1,2.92,1.38a10.78,10.78,0,0,0,1,.41c.15.06.27.08.39.12l.17,0s.15,0,.05,0a1.69,1.69,0,0,0-.8.19c-.19.08-.2.2,0,0a23.8,23.8,0,0,0,1.54-2.16c.16-.25.42-.57.64-.85a9.77,9.77,0,0,1,.9-1,7.56,7.56,0,0,1,3.06-1.79,15.56,15.56,0,0,1,1.64-.27,12.78,12.78,0,0,1,1.64.07,12.28,12.28,0,0,1,1.48.36,13.47,13.47,0,0,1,1.27.55A13.14,13.14,0,0,1,499,186.9a20.7,20.7,0,0,1,2.3,3.15,22.06,22.06,0,0,1,1.68,3.37,17.76,17.76,0,0,1,.66,1.91,13.43,13.43,0,0,1,.41,2.12,18.8,18.8,0,0,1-.92,7.76c-.16.54-.37,1.12-.5,1.59l-.42,1.43-.86,2.83a.93.93,0,0,0,0,.51c0,.09,0,.1,0,.18s.09.15.15.18a.55.55,0,0,0,.51.14,1.07,1.07,0,0,0,.55-.26c0-.05,0,0,.12-.12l.25-.32,2-2.57c.66-.85,1.27-1.7,2.11-2.62a14.1,14.1,0,0,1,3-2.59,8.16,8.16,0,0,1,2.14-.94,7.16,7.16,0,0,1,2.53-.2,8,8,0,0,1,1.22.24,8.83,8.83,0,0,1,1.09.43,7.09,7.09,0,0,1,2,1.36,8.13,8.13,0,0,1,2.15,4,33.77,33.77,0,0,1,.51,3.46,3.87,3.87,0,0,0,2,2.43,2.39,2.39,0,0,0,.61.29,1.45,1.45,0,0,0,.44.14l.24.06c.06,0,.08.07.12.09a4.86,4.86,0,0,1,.6.13,13,13,0,0,0,1.54.36c.73.1,1.53.24,2.48.34s2,.2,3.06.36,2.32.33,3.59.61a22.78,22.78,0,0,1,4.11,1.37,21.08,21.08,0,0,1,3.85,2.23,25,25,0,0,1,5.8,6.12,35.23,35.23,0,0,1,3.59,6.86A57.2,57.2,0,0,1,557,247.19c0,.22.07.67.1,1.06s.05.81,0,1.26a11,11,0,0,1-.06,1.37l-.07.72c0,.26-.08.53-.14.79a12.54,12.54,0,0,1-1.21,3.43,11.73,11.73,0,0,1-2.76,3.37,12.07,12.07,0,0,1-3.58,2,14,14,0,0,1-3.18.67,19,19,0,0,1-4.88-.17,37.21,37.21,0,0,1-3.82-.83,10.28,10.28,0,0,1-3.19-1.36c-.46-.28-.9-.63-1.31-.93a.67.67,0,0,1-.21-.19l-.15-.17a1.76,1.76,0,0,0-.35-.31,2.76,2.76,0,0,0-1.82-.47,5.86,5.86,0,0,0-3,.67c-.21.15-.12.11,0-.11s0-.21.06-.2,0,.07,0,0a.61.61,0,0,0-.07-.22q-.07-.12,0-.06a6.14,6.14,0,0,0,1.28.59c1.38.5,3.37.92,5.58,1.52a33.83,33.83,0,0,1,3.58,1.18,16.94,16.94,0,0,1,4,2.2,13.47,13.47,0,0,1,3.61,4.1,12.57,12.57,0,0,1,1.11,2.62,14.26,14.26,0,0,1,.48,2.68,15.39,15.39,0,0,1-.41,4.92,19.48,19.48,0,0,1-1.59,4.12,22.61,22.61,0,0,1-5.09,6.49c-.51.45-1.11.88-1.64,1.29s-1,.71-1.59,1a31,31,0,0,1-3.31,1.77,32.42,32.42,0,0,1-7,2.22,34.3,34.3,0,0,1-7.2.62q-.9,0-1.8-.09l-.89-.07-.45-.05-.41,0-.55-.1a14.22,14.22,0,0,1-2.08-.71l-1.5-.66a38.45,38.45,0,0,0-5.29-2,6.73,6.73,0,0,0-1.65-.29,1.88,1.88,0,0,0,.57-.38,1.26,1.26,0,0,0,.39-.75s0,0,0,.14V290a.71.71,0,0,0,.11.33A8.17,8.17,0,0,0,507,292c1.26,1.21,2.93,2.59,4.53,4a39.63,39.63,0,0,1,4.89,4.83,18.2,18.2,0,0,1,2.2,3.28,11.36,11.36,0,0,1,1.23,4.68l-.09-.85a13.11,13.11,0,0,1-1.41,9.27,17.28,17.28,0,0,1-6.16,6.15,18.17,18.17,0,0,1-8.44,2.45,15.66,15.66,0,0,1-2.36-.11,20.76,20.76,0,0,1-2.14-.39,20.5,20.5,0,0,1-4.05-1.44,25.36,25.36,0,0,1-6.76-4.75,33.24,33.24,0,0,1-5-6.09,60.84,60.84,0,0,1-6-13.3,101.15,101.15,0,0,0-4.3-11.45,28.32,28.32,0,0,0-2.6-4.37,17.07,17.07,0,0,0-3.08-3.23,10.53,10.53,0,0,0-3.09-1.7c-.25-.09-.5-.12-.75-.2s-.52-.09-.82-.12a15,15,0,0,0-2.08-.06c-1.58,0-3.5.28-5.79.46a39.45,39.45,0,0,1-8,0,23.32,23.32,0,0,1-4.82-1c-.81-.31-1.66-.61-2.42-1a20.32,20.32,0,0,1-2-1.09c-1.14-.7-2-1.31-2.61-1.68s-.93-.53-.85-.6.14-.07.23-.1a.2.2,0,0,0,.13-.08c0-.05.13,0,.18-.1.26-.14.44-.49.33-.46s-1,1-1.4,2.33a13.93,13.93,0,0,0-.62,4.57c0,.35,0,.87.08,1.39l.14,1.64c.08,1.15.21,2.38.25,3.7A20.47,20.47,0,0,1,432,296a10.44,10.44,0,0,1-.72,1.34,9.77,9.77,0,0,1-.91,1.3,9.59,9.59,0,0,1-1,1.14l-.54.52-.54.44A26,26,0,0,1,424.7,303a5.9,5.9,0,0,0-1.35.91c-.08.11,0,0-.05.23a1.64,1.64,0,0,0-.09.87s0-.18.06-.1a12.7,12.7,0,0,0,3,1.89,65.23,65.23,0,0,1,6.32,3.43,18.64,18.64,0,0,1,3.87,3.35,14.5,14.5,0,0,1,1.79,2.58,16.49,16.49,0,0,1,1.15,2.68,34.21,34.21,0,0,1,1,4.22,13.2,13.2,0,0,0,.55,2.28.82.82,0,0,0,.2.35c.09.06.11.15.2.19a4.81,4.81,0,0,0,.65.44,16,16,0,0,0,3.77,1.41c1.74.46,3.85,1,6.22,1.62.62.18,1.21.35,1.88.58s1.36.46,2,.73a35.32,35.32,0,0,1,3.88,1.85,33.29,33.29,0,0,1,6.94,5.32,29.81,29.81,0,0,1,2.94,3.46c.47.6.87,1.28,1.29,1.93a19.58,19.58,0,0,1,1,2.1,15.59,15.59,0,0,1,.74,2.25c.09.39.19.75.26,1.17s.14.84.16,1.23a20,20,0,0,1-.09,4.65,56.11,56.11,0,0,1-2,8.87c-.12.37-.26.76-.41,1.15s-.31.78-.5,1.18a11.15,11.15,0,0,1-.63,1.17l-.35.58-.46.63a13.24,13.24,0,0,1-2,2.12c-.66.55-1.32,1-1.85,1.41a14.64,14.64,0,0,0-2.08,1.55c-.27.3.08.14.18,0s0,0,0,.09l0,.25c0,.18,0,.41.06.68.07.54.22,1.29.42,2.18.1.43.24,1,.37,1.43l.4,1.36a33.82,33.82,0,0,1,1,3.73l.11.61c0,.21.05.47.08.71l.07.72c0,.27,0,.58,0,.87s0,.58,0,.9-.09.71-.14,1.07a11.09,11.09,0,0,1-.65,2.34,12.16,12.16,0,0,1-1.33,2.44,12.86,12.86,0,0,1-1.88,2q-.48.39-1,.75a8.27,8.27,0,0,1-1,.61,17.29,17.29,0,0,1-1.81.86c-.52.19-1.05.37-1.58.54s-.91.22-1.38.33l-1.92.43c-1.1.24-2.23.48-3.42.71a42.26,42.26,0,0,1-16.37.37c-.77-.13-1.56-.36-2.33-.54l-1.17-.38a12.31,12.31,0,0,1-1.22-.44,26,26,0,0,1-4.84-2.5,26.56,26.56,0,0,1-7.62-7.68A22.82,22.82,0,0,1,412.2,376a20.33,20.33,0,0,1,1-6.93,25.26,25.26,0,0,1,2.45-5.26c.75-1.24,1.29-2.09,1.53-2.54a1.59,1.59,0,0,0,.17-.38s0,0-.05.07a.23.23,0,0,1,0,.11c-.07.29-.09.23-.1.13s-.1-.14.12.08a1.91,1.91,0,0,0,.44.24c.12.05.17,0,.17,0s-.24,0-.22,0,.06-.07.14-.19c.22-.27-.08,0-.46.63s-.91,1.57-1.63,2.78a27.54,27.54,0,0,1-3.31,4.56,18.34,18.34,0,0,1-3.21,2.78,16.13,16.13,0,0,1-4.64,2.16,21.11,21.11,0,0,1-2.54.49,15.37,15.37,0,0,1-2.61.08,16.78,16.78,0,0,1-4.4-.84,21.81,21.81,0,0,1-5.4-2.69,41.17,41.17,0,0,1-3.48-2.56,61.07,61.07,0,0,1-5.72-5.33c-1.68-1.75-3.17-3.44-4.58-5-.7-.77-1.38-1.51-2.06-2.21l-1-1-.87-.85a14.48,14.48,0,0,0-3.15-2.25,11.47,11.47,0,0,0-3.17-1.18,4.36,4.36,0,0,0-1.93-.05.51.51,0,0,1-.17,0c-.05,0-.09,0-.15.06s-.15,0-.12,0a.23.23,0,0,0,.12-.1c.11-.09.05-.19-.23.21l-.1.11-.13.19-.26.39c-.22.38-.4.67-.67,1.16-.48.84-1.11,2-1.94,3.33a22.54,22.54,0,0,1-3.6,4.41,17.36,17.36,0,0,1-6.07,3.59,13.29,13.29,0,0,1-1.63.45c-.52.11-1.14.25-1.58.31a23.38,23.38,0,0,1-2.62.21,18.69,18.69,0,0,1-6.12-.79,16.37,16.37,0,0,1-6.14-3.47,18.63,18.63,0,0,1-3.78-4.8,35.88,35.88,0,0,1-3-7.95c-.61-2.23-1.11-4.14-1.62-5.55a10.4,10.4,0,0,0-.69-1.58,1.27,1.27,0,0,0-.13-.22.69.69,0,0,0-.09-.15.59.59,0,0,0-.12-.17,5,5,0,0,0-2.07-1.11c-.31-.08-.52-.09-.49-.12s.37-.22.06-.07-1,.76-2.33,1.76a15.38,15.38,0,0,1-5.9,2.79c-.6.11-1.22.21-1.8.26l-.87,0a7.44,7.44,0,0,1-.93,0,13.1,13.1,0,0,1-3.82-.76,14.58,14.58,0,0,1-5.55-3.67,19.09,19.09,0,0,1-3.11-4.35,21.67,21.67,0,0,1-1.78-4.61c-.1-.42-.2-.83-.29-1.26s-.16-.92-.2-1.3c-.07-.75-.17-1.53-.17-2.25a31.76,31.76,0,0,1,.14-4.19c.26-2.63.72-4.94,1.09-7a39.74,39.74,0,0,0,.73-5.46,12.71,12.71,0,0,0-.5-4.22,16.48,16.48,0,0,0-5.24-7.64,23.64,23.64,0,0,0-4.25-2.87,24.81,24.81,0,0,0-4.88-1.93,40.68,40.68,0,0,0-11.32-1.35,96.3,96.3,0,0,0-12.31,1,111.57,111.57,0,0,0-12.25,2.29,59,59,0,0,0-5.74,1.8,52.74,52.74,0,0,0-5.51,2.46,122.4,122.4,0,0,1-12.26,5.85,27.07,27.07,0,0,1-7.51,1.73,17.83,17.83,0,0,1-8.27-1.31,16.81,16.81,0,0,1-3.64-2.06,25,25,0,0,1-2.9-2.52c-1.73-1.73-3.13-3.45-4.5-4.94a17.83,17.83,0,0,0-4.08-3.56,8.47,8.47,0,0,0-2.2-.93,18,18,0,0,0-2.73-.5c-2-.25-4.28-.32-6.8-.86a14.41,14.41,0,0,1-3.87-1.38,11.53,11.53,0,0,1-1.83-1.2,14.33,14.33,0,0,1-1.48-1.37c-.83-.88-1.48-1.65-2-2.14a4.15,4.15,0,0,0-1.69-.92,6.62,6.62,0,0,0-4.51.77,15.79,15.79,0,0,0-4.48,3.39c-1.42,1.5-2.82,3.2-4.44,4.86a19,19,0,0,1-5.87,4.33,14.47,14.47,0,0,1-3.65,1.05,13.28,13.28,0,0,1-3.83,0,13.5,13.5,0,0,1-6.69-3.23,24.33,24.33,0,0,1-4.46-5.38,59.66,59.66,0,0,1-5.49-12.18,56.1,56.1,0,0,0-2.49-5.93l-2.78-5.92c-.91-2-1.8-4-2.59-6.05a40.13,40.13,0,0,1-2-6.33,13.09,13.09,0,0,1-.29-1.66l-.11-.83,0-.86c0-.29,0-.57,0-.86l.12-.86a7.19,7.19,0,0,1,.43-1.67,9.76,9.76,0,0,1,4.37-5c3.9-2.25,8.32-2.86,12.52-3.9a33.76,33.76,0,0,0,6.18-2,17.05,17.05,0,0,0,2.79-1.65,15.78,15.78,0,0,0,1.3-1c.44-.33.86-.67,1.26-1,6.6-5.69,11.1-13.49,18.11-18.78Zm.06.08c-6.8,5.56-11,13.39-17.52,19.46-.4.39-.82.75-1.25,1.1s-.86.73-1.32,1.05a17.8,17.8,0,0,1-2.9,1.83,34.73,34.73,0,0,1-6.33,2.26c-2.13.58-4.25,1-6.29,1.65a22.91,22.91,0,0,0-5.68,2.38,8.1,8.1,0,0,0-3.55,4.24,5.59,5.59,0,0,0-.31,1.35l-.09.67c0,.24,0,.48,0,.72l0,.73.12.74a11.65,11.65,0,0,0,.29,1.5,39,39,0,0,0,2,6c.81,2,1.73,3.92,2.68,5.87l2.9,5.85a58.68,58.68,0,0,1,2.71,6.08,57.24,57.24,0,0,0,5.47,11.52,21.45,21.45,0,0,0,4,4.66,10.49,10.49,0,0,0,5.23,2.45,10.64,10.64,0,0,0,5.7-.91,15.84,15.84,0,0,0,4.78-3.71c1.45-1.54,2.79-3.25,4.29-4.9a19.42,19.42,0,0,1,5.39-4.28,10.4,10.4,0,0,1,7-1.25,8,8,0,0,1,3.33,1.62c.93.77,1.66,1.62,2.4,2.36a9.13,9.13,0,0,0,5.19,2.75c2,.4,4.19.45,6.4.66a16.26,16.26,0,0,1,6.59,1.78,21.49,21.49,0,0,1,5.25,4.27c1.53,1.59,2.94,3.25,4.47,4.72a15.57,15.57,0,0,0,5.11,3.51,12.92,12.92,0,0,0,6.07.87,22.08,22.08,0,0,0,6.13-1.54,115.39,115.39,0,0,0,11.6-5.83,57.93,57.93,0,0,1,12.21-4.93,113.06,113.06,0,0,1,12.84-2.69,101.67,101.67,0,0,1,13-1.37,46.71,46.71,0,0,1,13.06,1.27A30.53,30.53,0,0,1,294,292.18a23.39,23.39,0,0,1,7.63,10.55,19.93,19.93,0,0,1,1,6.49,45.74,45.74,0,0,1-.67,6.52c-.34,2.16-.71,4.3-.89,6.47a19.9,19.9,0,0,0,.42,6.44,13.12,13.12,0,0,0,3.1,5.6,7,7,0,0,0,2.66,1.76,5.86,5.86,0,0,0,3.16.17,7.41,7.41,0,0,0,2.87-1.44c.86-.65,1.66-1.4,2.56-2a7.59,7.59,0,0,1,3-1.28,9.45,9.45,0,0,1,3.27,0,11.83,11.83,0,0,1,9.53,8c1.63,4,2.29,8.45,4.42,12.28a8.31,8.31,0,0,0,4.88,4.09,9.49,9.49,0,0,0,3.23.34,15,15,0,0,0,1.63-.15,14.05,14.05,0,0,0,1.58-.4,8.11,8.11,0,0,0,2.77-1.68,13.05,13.05,0,0,0,2-2.57c1.14-1.86,2-3.89,3.22-5.68a10.07,10.07,0,0,1,2.2-2.4l.66-.48c.23-.15.48-.25.72-.39l.73-.37.76-.28a13.43,13.43,0,0,1,6.44-.62,23.2,23.2,0,0,1,11.68,5.47c3.27,2.88,6.15,6.17,9.26,9.22a51.46,51.46,0,0,0,4.88,4.34c.86.67,1.76,1.29,2.68,1.87a12.21,12.21,0,0,0,2.92,1.44,5.44,5.44,0,0,0,3.22.1,5.87,5.87,0,0,0,2.68-1.79,33.52,33.52,0,0,0,3.44-5.54,14.9,14.9,0,0,1,1.87-2.67,10.78,10.78,0,0,1,2.55-2,12,12,0,0,1,6.27-1.54,10.33,10.33,0,0,1,6.05,2.15,11.51,11.51,0,0,1,4,11.72c-.52,2.14-1.86,3.92-3,5.77a14,14,0,0,0-1.42,2.94,10,10,0,0,0-.5,3.21,12.4,12.4,0,0,0,1.89,6.17,16.45,16.45,0,0,0,4.43,4.75,17.2,17.2,0,0,0,5.91,2.68,37.8,37.8,0,0,0,13,.6c1.08-.1,2.17-.22,3.25-.35a15.89,15.89,0,0,0,3.21-.57,3.77,3.77,0,0,0,2.43-2,6.47,6.47,0,0,0,.26-3.21c-.28-2.16-.83-4.28-1.1-6.44A13.2,13.2,0,0,1,457,371a5.82,5.82,0,0,1,2-2.57c.85-.68,1.81-1.21,2.72-1.8a9.46,9.46,0,0,0,2.49-2.09,9.82,9.82,0,0,0,1.5-2.89,16.18,16.18,0,0,0,.65-6.45,17.15,17.15,0,0,0-1.73-6.27,22.31,22.31,0,0,0-8.94-9.27,28.53,28.53,0,0,0-6-2.54c-2.09-.63-4.21-1.15-6.28-1.81a20.64,20.64,0,0,1-5.9-2.75,9.38,9.38,0,0,1-3.69-5.23c-.58-2.1-.61-4.32-1.25-6.41a7.74,7.74,0,0,0-1.5-2.87,12.6,12.6,0,0,0-2.43-2.18c-1.78-1.25-3.74-2.22-5.63-3.31a14.67,14.67,0,0,1-5-4.07,6,6,0,0,1-1.06-3,8.58,8.58,0,0,1,.45-3.22,6.67,6.67,0,0,1,1.68-2.76,12.12,12.12,0,0,1,2.68-1.86,19.7,19.7,0,0,0,2.77-1.72,6.91,6.91,0,0,0,2-2.52,13.67,13.67,0,0,0,.92-6.4c-.11-2.18-.49-4.33-.69-6.5a22.5,22.5,0,0,1,.37-6.5,14.82,14.82,0,0,1,1-3.12,9.75,9.75,0,0,1,1.73-2.75,6.31,6.31,0,0,1,5.93-1.95c2.16.42,4,1.7,5.9,2.73a14.88,14.88,0,0,0,6.19,1.92c4.36.42,8.69-.49,13.05-.45a18.12,18.12,0,0,1,6.41,1.05,17.72,17.72,0,0,1,5.55,3.39,29.31,29.31,0,0,1,7.25,10.74A112.48,112.48,0,0,1,484,298a53.42,53.42,0,0,0,4.64,12.18,27.23,27.23,0,0,0,3.85,5.26,19.36,19.36,0,0,0,5.14,4,13.93,13.93,0,0,0,6.24,1.72,13,13,0,0,0,6.26-1.61,12.89,12.89,0,0,0,4.73-4.4,8.82,8.82,0,0,0,1.13-6.28h0a8.07,8.07,0,0,0-.77-3,15.46,15.46,0,0,0-1.7-2.62,36.73,36.73,0,0,0-4.35-4.47c-1.54-1.4-3.16-2.72-4.65-4.18a12,12,0,0,1-2-2.39,4.7,4.7,0,0,1-.63-3,2.4,2.4,0,0,1,.65-1.39,2.57,2.57,0,0,1,1.39-.65,8.33,8.33,0,0,1,3.1.21,42.8,42.8,0,0,1,5.93,1.94,25.8,25.8,0,0,0,3,1,23.18,23.18,0,0,0,3.12.09,30,30,0,0,0,6.18-.85,26,26,0,0,0,11-5.65,17.17,17.17,0,0,0,3.73-5,11.51,11.51,0,0,0,1.32-6,7.32,7.32,0,0,0-2.94-5.29,17.59,17.59,0,0,0-5.67-2.55c-2-.59-4-1.05-6-1.8a10.06,10.06,0,0,1-2.73-1.49,4.93,4.93,0,0,1-1.71-2.56,5.35,5.35,0,0,1,.1-3.07,5,5,0,0,1,1.91-2.41,11,11,0,0,1,5.9-1.81,13.56,13.56,0,0,1,3.11.2,23.89,23.89,0,0,1,3,.82,42,42,0,0,0,6.06,1.52,13,13,0,0,0,3.11.13,5.37,5.37,0,0,0,2.9-1,4.5,4.5,0,0,0,1.52-2.66,10.8,10.8,0,0,0,.11-3.11,47.28,47.28,0,0,0-2.36-12.24,21.18,21.18,0,0,0-7-10.17,15.13,15.13,0,0,0-5.66-2.52c-2-.45-4.12-.65-6.18-1a17.53,17.53,0,0,1-6-1.69,7.25,7.25,0,0,1-2.32-2.05,7.87,7.87,0,0,1-1.16-2.88c-.41-2-.29-4.16-.72-6.2a5.21,5.21,0,0,0-1.37-2.75,4.9,4.9,0,0,0-2.78-1.3,4.53,4.53,0,0,0-3,.8,10.66,10.66,0,0,0-2.27,2.13c-.67.8-1.23,1.68-1.83,2.53l-1.77,2.58a4.83,4.83,0,0,1-2.25,2.08,4.08,4.08,0,0,1-3.05.09,4.16,4.16,0,0,1-2.26-2.05,4.49,4.49,0,0,1-.32-3c.57-2,1.07-4,1.7-6a15.16,15.16,0,0,0,.72-6.16,15.35,15.35,0,0,0-2.26-5.78,12.13,12.13,0,0,0-4.3-4.44,4.08,4.08,0,0,0-3-.39,4.64,4.64,0,0,0-2.31,2,28.53,28.53,0,0,1-1.8,2.55,4.06,4.06,0,0,1-1.19,1,2.85,2.85,0,0,1-1.52.28c-2.1-.23-3.91-1.41-5.82-2.19a8.55,8.55,0,0,0-3-.75,6.86,6.86,0,0,0-3,.67,13,13,0,0,0-4.4,4.35c-1.19,1.71-2.24,3.51-3.47,5.2a16.52,16.52,0,0,1-4.47,4.31,41,41,0,0,1-5.54,2.88,42.78,42.78,0,0,0-5.56,2.84,18.33,18.33,0,0,0-4.64,4.14,15.43,15.43,0,0,0-2.82,5.53,11.25,11.25,0,0,0,.11,6.17c.59,2,1.56,3.86,2.17,5.86a8.6,8.6,0,0,1,.35,1.52l.11.77a6.77,6.77,0,0,1,0,.78,6.69,6.69,0,0,1-.81,3A7.78,7.78,0,0,1,432,240.8a6,6,0,0,1-1.21-1,6.37,6.37,0,0,1-1-1.19,15.82,15.82,0,0,1-1.46-2.76c-.42-1-.8-1.92-1.26-2.86a15.35,15.35,0,0,0-1.68-2.62,16.75,16.75,0,0,0-10.64-6,15,15,0,0,0-6.19.38,13,13,0,0,0-5.38,3.07c-3.11,2.82-5.15,6.55-7.07,10.22h0v.08a8.84,8.84,0,0,1-1,3.24c-.49,1-1.06,2-1.65,3-1.17,2-2.49,3.81-3.62,5.79-2.16,4-4,8.19-6.27,12.14-1.12,2-2.43,3.86-3.67,5.76a25.82,25.82,0,0,1-4.39,5.21,7.19,7.19,0,0,1-3,1.62,4.13,4.13,0,0,1-3.26-.61,5.52,5.52,0,0,1-2.17-2.58,7,7,0,0,1-.47-3.35,16.88,16.88,0,0,1,2.21-6.41c1.1-2,2.4-3.88,3.53-5.85a18.44,18.44,0,0,0,2.49-6.32,26.76,26.76,0,0,0,0-6.81,28.21,28.21,0,0,0-4.67-12.7,20.88,20.88,0,0,0-4.68-4.93,19.05,19.05,0,0,0-6.1-3c-2.2-.6-4.48-.83-6.66-1.52a8.54,8.54,0,0,1-5.26-4.08,4.85,4.85,0,0,1-.47-3.32,4.62,4.62,0,0,1,1.95-2.71,9.56,9.56,0,0,1,6.58-1.22c2.26.24,4.51.78,6.79.54a13.66,13.66,0,0,0,6.31-2.43,28.1,28.1,0,0,0,5.05-4.57c1.52-1.7,2.9-3.52,4.37-5.26a33.85,33.85,0,0,1,4.81-4.84,15.92,15.92,0,0,1,6.06-3.05c2.19-.61,4.44-1,6.58-1.83a8.58,8.58,0,0,0,5.17-4.16,7.19,7.19,0,0,0,.53-3.34c0-1.14-.21-2.26-.27-3.4a7.41,7.41,0,0,1,.47-3.36,5.66,5.66,0,0,1,2.22-2.52,13.1,13.1,0,0,1,6.56-1.58,48.55,48.55,0,0,1,6.82.36c4.53.49,9,1.48,13.53,1.94a21,21,0,0,1,6.66,1.38,7.52,7.52,0,0,1,2.78,1.94,5.84,5.84,0,0,1,1.37,3.08,7.94,7.94,0,0,1-2.52,6.13,14,14,0,0,1-5.92,3.29c-2.17.7-4.4,1.16-6.56,1.9a24.08,24.08,0,0,0-6,3.17,43.94,43.94,0,0,0-9.77,9.48,18.35,18.35,0,0,0-1.83,2.87,5.28,5.28,0,0,0-.61,3.29,2.86,2.86,0,0,0,2.28,2.24,7.12,7.12,0,0,0,3.36-.34,45.06,45.06,0,0,0,6.23-2.79c2.05-1,4.05-2.09,6-3.24,3.93-2.3,7.72-4.84,11.57-7.27s7.79-4.73,11.6-7.23,7.6-5,11.32-7.66,7.41-5.3,10.94-8.17c1.74-1.47,3.43-3,5.05-4.61a40.55,40.55,0,0,0,4.48-5.14,9.24,9.24,0,0,0,1.52-3,1.88,1.88,0,0,0-.29-1.6,2.43,2.43,0,0,0-1.48-.73,13.92,13.92,0,0,0-6.69.9c-2.14.78-4.19,1.79-6.32,2.61a15.72,15.72,0,0,1-6.64,1.37,8.36,8.36,0,0,1-5.85-3.18c-1.5-1.68-2.85-3.67-5-4.5-4.4-1.62-9.06.73-13.54-.5a7.11,7.11,0,0,1-2.9-1.76,6,6,0,0,1-1.56-3,5.18,5.18,0,0,1,.32-3.36,29.69,29.69,0,0,1,1.85-2.86,8.71,8.71,0,0,0,1.51-3,2,2,0,0,0-.39-1.59,2.55,2.55,0,0,0-1.44-.82,19.25,19.25,0,0,0-3.39-.3,10.8,10.8,0,0,1-1.7-.2,4.37,4.37,0,0,1-1.53-.75,5.34,5.34,0,0,1-1.24-1.18,3.67,3.67,0,0,1-.62-1.58,8.58,8.58,0,0,1,.46-3.37,13.7,13.7,0,0,0,.64-3.34,7.09,7.09,0,0,0-.8-3.28,14,14,0,0,0-4.54-5,13.44,13.44,0,0,0-6.27-2.51A15.1,15.1,0,0,0,402.63,122a15,15,0,0,0-3.42,5.83,19.84,19.84,0,0,1-2.92,6.14,11.91,11.91,0,0,1-2.54,2.27,14.59,14.59,0,0,1-3.08,1.49,15.9,15.9,0,0,1-6.74.81,11.37,11.37,0,0,1-3.3-.84,5.28,5.28,0,0,1-2.59-2.16,4.09,4.09,0,0,1-.18-3.32,9.65,9.65,0,0,1,1.73-2.93c.37-.43.76-.85,1.16-1.26a9.79,9.79,0,0,1,1.36-1,20.27,20.27,0,0,1,3.05-1.54c2.1-.89,4.28-1.57,6.32-2.59a5.56,5.56,0,0,0,2.56-2.15,4.54,4.54,0,0,0,.31-3.3,6.47,6.47,0,0,0-1.66-2.92,8.2,8.2,0,0,0-2.87-1.8,28.53,28.53,0,0,0-6.67-1.36l-6.78-.89-13.55-1.77-13.55-1.77-6.78-.88a28.14,28.14,0,0,0-6.8-.15,14.42,14.42,0,0,0-6.31,2.38,23.29,23.29,0,0,0-5,4.65c-2.9,3.51-5.24,7.46-8.26,10.88a26.22,26.22,0,0,1-24.76,8.38c-4.46-.85-8.9-2.3-13.47-1.89a11.31,11.31,0,0,0-6.22,2.52,17.4,17.4,0,0,0-3.93,5.52c-1.25,2-1.09,4.39-1.73,6.57a4.48,4.48,0,0,1-.74,1.54,3.86,3.86,0,0,1-1.35,1,4.43,4.43,0,0,1-3.33-.24,8.67,8.67,0,0,0-3.33-.66,8.57,8.57,0,0,0-3.29.81,20.38,20.38,0,0,0-5.4,4.12,47.85,47.85,0,0,1-5.06,4.59,15.25,15.25,0,0,1-3,1.7,15.78,15.78,0,0,1-3.29.92c-2.25.41-4.54.52-6.74,1.07a9.81,9.81,0,0,0-3.12,1.33,6.85,6.85,0,0,0-2.23,2.52c-1,2-1.08,4.4-1.1,6.65a23.22,23.22,0,0,1-.61,6.8,15.06,15.06,0,0,1-3.4,5.88,20.37,20.37,0,0,1-5.47,4.07,12.43,12.43,0,0,1-6.51,1.9A5.81,5.81,0,0,1,203,185c-.37-1.09-.55-2.22-.81-3.33a7.92,7.92,0,0,0-1.34-3.09,10.68,10.68,0,0,0-5.67-3.54,12.34,12.34,0,0,0-6.71.17,16.15,16.15,0,0,0-5.89,3.32,20.12,20.12,0,0,0-4.3,5.25,28.15,28.15,0,0,0-2.49,6.34c-1.23,4.36-2,9-4.37,12.89A17.73,17.73,0,0,1,166.7,208c-1.8,1.4-3.73,2.63-5.52,4Z"/><path d="M148.31,329.22A2.71,2.71,0,0,1,149,331a6.13,6.13,0,0,1-.33,1.94,21.63,21.63,0,0,1-1.58,3.59,40.75,40.75,0,0,0-2.94,7.23,27.22,27.22,0,0,0-.82,3.79c-.2,1.28-.36,2.6-.68,3.92a10.81,10.81,0,0,1-1.66,3.92,7.91,7.91,0,0,1-3.56,2.72,18.91,18.91,0,0,1-8.4,1c-2.71-.23-5.26-.54-7.88-.84s-5.19-.65-7.78-1l-1.95-.28-.48-.07-.4-.05c-.23,0-.56,0-.85-.07-1.23-.08-2.61-.12-4.08-.33a12.23,12.23,0,0,1-2.34-.54,7.56,7.56,0,0,1-2.59-1.45A5.41,5.41,0,0,1,99,351.34a7.08,7.08,0,0,1-.06-1.58c0-.42.11-.74.17-1.11a16,16,0,0,1,3.49-8.24,16.34,16.34,0,0,1,7.43-4.7,49.35,49.35,0,0,1,7.93-1.7c2.59-.4,5.17-.75,7.63-1.38l7.54-2.24a77.34,77.34,0,0,1,7.64-1.87,23.37,23.37,0,0,1,3.91-.41,9.16,9.16,0,0,1,1.95.2A3.32,3.32,0,0,1,148.31,329.22Zm0,0a3.28,3.28,0,0,0-1.72-.89,9,9,0,0,0-1.94-.17,20.14,20.14,0,0,0-3.87.53,55.79,55.79,0,0,0-7.47,2.35c-2.44.93-4.81,2-7.26,3s-5.07,1.69-7.58,2.42a49.28,49.28,0,0,0-7.18,2.5,13,13,0,0,0-5.32,4.12,12.72,12.72,0,0,0-2.11,6.21c0,.27-.08.6-.1.83s0,.31,0,.37a.2.2,0,0,1,0,.11s0,0,.05,0,0,.05,0,.06,0,0,0,.06a5.37,5.37,0,0,0,2.32.73c1.12.17,2.36.23,3.73.34.37,0,.7.05,1.1.12l.58.09.48.08,1.93.36c2.58.48,5.14,1,7.7,1.52s5.16,1.16,7.62,1.64a16.49,16.49,0,0,0,7.15.14,5.8,5.8,0,0,0,2.83-1.62,8.58,8.58,0,0,0,1.76-3.09c.43-1.19.73-2.45,1.07-3.72s.76-2.55,1.22-3.79a54.51,54.51,0,0,1,3.43-7.09,19.76,19.76,0,0,0,1.7-3.53,6.24,6.24,0,0,0,.34-1.91A2.68,2.68,0,0,0,148.31,329.22Z"/><path d="M273.79,294.91a42.79,42.79,0,0,1-6.22,1.62,36.06,36.06,0,0,0-5.95,1.68,6.58,6.58,0,0,0-2.25,1.37,1.54,1.54,0,0,0-.45.76,1.56,1.56,0,0,0,0,.8,6.81,6.81,0,0,0,1.12,2.11,23.56,23.56,0,0,0,2,2.2,20.55,20.55,0,0,1,2.28,2.69,10.55,10.55,0,0,1,1.52,3.62,37.06,37.06,0,0,1,.53,6.73,18.12,18.12,0,0,0,.32,2.73,9.15,9.15,0,0,0,.91,2.26,9.72,9.72,0,0,0,3.55,3.51,8.68,8.68,0,0,0,2.31,1,7.44,7.44,0,0,0,2.42.29,8.34,8.34,0,0,0,4.61-1.51,8.47,8.47,0,0,0,3-3.94,14,14,0,0,0,.91-5.4,13.55,13.55,0,0,0-.1-1.41c-.07-.5-.12-1-.21-1.49-.18-1-.4-2-.64-3a34.34,34.34,0,0,0-2-5.78,21,21,0,0,0-7.63-9.59,15,15,0,0,1,5.58,3.33,25.19,25.19,0,0,1,4.21,5.1,35.05,35.05,0,0,1,3,5.95,28.82,28.82,0,0,1,1,3.18c.15.54.26,1.09.4,1.64a18.18,18.18,0,0,1-.36,8.91,12.75,12.75,0,0,1-4.32,6.28,13,13,0,0,1-7.24,2.63,12.36,12.36,0,0,1-3.89-.41,13.51,13.51,0,0,1-3.55-1.47,14.47,14.47,0,0,1-5.34-5.42,13.79,13.79,0,0,1-1.34-3.67,18.52,18.52,0,0,1-.32-3.61,40.94,40.94,0,0,0-.11-6,6.72,6.72,0,0,0-.76-2.29A16.3,16.3,0,0,0,259.1,308a24.38,24.38,0,0,1-2-2.78,8.82,8.82,0,0,1-1.37-3.69,4.74,4.74,0,0,1,1-3.35,5.61,5.61,0,0,1,.79-.76,8.89,8.89,0,0,1,3.38-1.55C265.32,294.85,269.54,295.32,273.79,294.91Z"/><path d="M329.36,371.85c-2-.89-3.89-2-5.85-3a19.44,19.44,0,0,0-6.18-2,15.17,15.17,0,0,0-12,3.94,14.72,14.72,0,0,0-2.61,17.73A15.49,15.49,0,0,0,307,393.2a24.37,24.37,0,0,0,11.93,4.07c1.06.1,2.12.15,3.19.17s2.15,0,3.29,0a16.75,16.75,0,0,1,3.47.38,7.14,7.14,0,0,1,3.43,1.71,5.47,5.47,0,0,1,1.21,1.72,6.24,6.24,0,0,1,.48,2c.12,1.26,0,2.35.13,3.26a10.09,10.09,0,0,0,2.28,5.17A11.49,11.49,0,0,0,341,415a4.05,4.05,0,0,0,2.24.34,3.61,3.61,0,0,0,1.77-1.18c1.27-1.31,2.48-3.52,4.94-5a8.56,8.56,0,0,1,4.09-1.18,12.73,12.73,0,0,1,3.9.52,22.42,22.42,0,0,1,6.46,3.33c.94.67,1.83,1.36,2.7,2a29.78,29.78,0,0,1,2.68,2.29,12.78,12.78,0,0,1,2.45,3.2,11.57,11.57,0,0,1,1.18,4,24.07,24.07,0,0,1,.15,3.65c0,1.17-.1,2.32-.2,3.45l-.67,6.47a30.22,30.22,0,0,0,0,5.94,14.34,14.34,0,0,0,1.57,5.22,8.67,8.67,0,0,0,1.53,2,6.66,6.66,0,0,0,2,1.28,6.22,6.22,0,0,0,4.71.12,3.58,3.58,0,0,0,1.62-1.33,4.38,4.38,0,0,0,.82-2.1,9.3,9.3,0,0,0-.06-2.67,24,24,0,0,0-.63-3,66.09,66.09,0,0,1-1.81-6.93,17.91,17.91,0,0,1-.12-4.13c.11-1.32.29-2.54.48-3.64s.36-2.08.48-2.93a21,21,0,0,0,.17-2.31,16.9,16.9,0,0,0-.56-4.61l-.17-.59-.07-.24h0a2.32,2.32,0,0,0-.34-.7c-.43-.7-1.18-1.61-2-3a10.34,10.34,0,0,1-1.13-2.59,7.47,7.47,0,0,1-.11-3.59,8.75,8.75,0,0,1,.59-1.59,10.86,10.86,0,0,1,.81-1.3,8.3,8.3,0,0,1,2.16-1.93,9.49,9.49,0,0,1,4.78-1.4,16.37,16.37,0,0,1,4.12.47,12.16,12.16,0,0,1,4,1.75,7.56,7.56,0,0,1,1.79,1.74c.22.33.44.66.65,1s.32.66.48,1a16.07,16.07,0,0,1,1,3.83c.19,1.23.29,2.39.36,3.56l.25,6.61a25.14,25.14,0,0,0,.32,3,10.37,10.37,0,0,0,.28,1.21l.2.52.26.56a17.66,17.66,0,0,0,3.14,4.35,12,12,0,0,0,1.86,1.55,4.5,4.5,0,0,0,1.51.62,1.48,1.48,0,0,0,.76-.14c.08,0,.16-.11.25-.15a.58.58,0,0,1,.13-.11s0,0,0,0a1.94,1.94,0,0,0-.07-1,14.8,14.8,0,0,0-.88-2.36c-.8-1.74-1.89-3.59-2.94-5.61a35.46,35.46,0,0,1-1.55-3.26,12.24,12.24,0,0,1-1-4.37c0-.23,0-.5.05-.74l0-.37.06-.29c.09-.38.18-.77.29-1.14l.43-1.07c.15-.34.34-.65.51-1a16.18,16.18,0,0,1,2.47-3.1c1.71-1.7,3.41-3,4.58-4.43a6.1,6.1,0,0,0,1.73-4.4,9.75,9.75,0,0,0-1.92-4.94,23.64,23.64,0,0,0-4.11-4.4c-1.64-1.35-3.3-2.7-5-3.94a118.47,118.47,0,0,0-10.73-6.89A110.61,110.61,0,0,0,379.37,373c-1.95-.86-3.93-1.68-5.95-2.4-1-.38-1.94-.6-2.93-.91s-2-.35-3-.54c-4.09-.41-8.33.45-12.51,1.61l-6.32,1.79c-1.08.25-2.13.56-3.22.74l-1.62.33c-.54.08-1.09.13-1.64.19A24,24,0,0,1,329.36,371.85Zm0,0,3.07,1.13c1.07.23,2.13.5,3.2.66a22.83,22.83,0,0,0,6.5-.19c4.3-.69,8.29-2.48,12.37-4.09s8.41-3.09,13.1-3.16c1.16.07,2.34,0,3.5.21l1.73.31a14.14,14.14,0,0,1,1.7.37c2.16.56,4.29,1.22,6.41,1.93a83.43,83.43,0,0,1,12.27,5.44,78.21,78.21,0,0,1,11.15,7.5c1.76,1.38,3.44,2.86,5.11,4.36a32.55,32.55,0,0,1,4.7,5.26,14.86,14.86,0,0,1,2.86,7.09,10.63,10.63,0,0,1-.47,4.15,13,13,0,0,1-1.88,3.56,29.93,29.93,0,0,1-2.31,2.74c-.75.84-1.48,1.62-2.09,2.37a10.56,10.56,0,0,0-1.39,2.17c-.06.16-.15.33-.2.49l-.12.48-.06.46,0,.11,0,0a.45.45,0,0,0,0,.08,7.74,7.74,0,0,0,.76,1.89c.43.79,1,1.65,1.52,2.53,1.14,1.76,2.42,3.59,3.58,5.75a17.92,17.92,0,0,1,1.55,3.71,11,11,0,0,1,.4,2.45,8.07,8.07,0,0,1-.41,3,7.8,7.8,0,0,1-1.69,2.75,8.56,8.56,0,0,1-2.25,1.67,8.74,8.74,0,0,1-5.58.89,11.12,11.12,0,0,1-4.45-2,16.88,16.88,0,0,1-3-2.83,22.4,22.4,0,0,1-3.84-6.67l-.32-1-.26-1.06a13.81,13.81,0,0,1-.26-2,33.24,33.24,0,0,1,0-3.59c.06-2.27.23-4.42.18-6.49a14.47,14.47,0,0,0-.86-5.45l-.23-.48c-.1-.12-.18-.24-.27-.37a2.21,2.21,0,0,0-.58-.49,5.27,5.27,0,0,0-2.07-.6,7.41,7.41,0,0,0-2.41.12,2.6,2.6,0,0,0-1.31.82.5.5,0,0,0-.12.38s0,.12,0,.15.09,0,.1,0,.13-.32.18-.36.16.07.41.3c.43.42,1.22,1.07,2.16,2.07a11.13,11.13,0,0,1,1.52,2l.39.72.24.52c.15.3.28.62.41.94a19.37,19.37,0,0,1,1.35,8.27,16.47,16.47,0,0,1-.8,4.17,24.66,24.66,0,0,1-1.42,3.34,22.23,22.23,0,0,0-2.26,5,17.75,17.75,0,0,0,.06,6,23,23,0,0,1,.28,7.32,9.22,9.22,0,0,1-1.61,3.91,8.51,8.51,0,0,1-3.38,2.77,11.11,11.11,0,0,1-8.07.25,11.54,11.54,0,0,1-3.59-2,13.23,13.23,0,0,1-2.65-3,17.74,17.74,0,0,1-2.58-7.11,26.08,26.08,0,0,1-.28-3.62c0-1.22.08-2.37.18-3.51.2-2.28.57-4.45.82-6.55.13-1,.23-2.07.28-3.08a19.74,19.74,0,0,0,0-2.89,6.64,6.64,0,0,0-.58-2.32,8.06,8.06,0,0,0-1.47-2,28.89,28.89,0,0,0-2.24-2c-.83-.69-1.63-1.38-2.45-2a17.72,17.72,0,0,0-5-2.91,8.46,8.46,0,0,0-2.55-.47,4.31,4.31,0,0,0-2.16.51,7.84,7.84,0,0,0-2,1.67c-.7.73-1.39,1.6-2.31,2.48a7,7,0,0,1-3.81,2,7.31,7.31,0,0,1-4.13-.72,14.66,14.66,0,0,1-5.67-4.6,12.81,12.81,0,0,1-2.57-6.8c-.08-1.27.09-2.37,0-3.3a3.28,3.28,0,0,0-.83-2.2c-1.11-1.18-3.27-1.6-5.33-1.73-1-.07-2.14-.09-3.27-.14s-2.22-.18-3.33-.35a26.27,26.27,0,0,1-12.39-4.87A16.56,16.56,0,0,1,302,389a15.72,15.72,0,0,1-1.68-6.45,14.92,14.92,0,0,1,4.85-11.92,15.73,15.73,0,0,1,12.21-3.82,19.19,19.19,0,0,1,6.19,2.08C325.48,369.83,327.37,371,329.36,371.85Z"/><path d="M441.43,460.3a36.78,36.78,0,0,0-1.9,3.63,7.38,7.38,0,0,1-2.64,3.11,8.74,8.74,0,0,1-4,1,20,20,0,0,1-4.15-.29A19.38,19.38,0,0,1,421,464.5c-2.38-1.63-4.14-3.95-6.12-5.48a6.94,6.94,0,0,0-3.09-1.5,3.92,3.92,0,0,0-2.81.38,2.44,2.44,0,0,0-.79.86,8.1,8.1,0,0,0-.64,1.53,23.73,23.73,0,0,0-.91,3.6,20.3,20.3,0,0,0,2.73,14c.3.51.69.95,1,1.44a16.09,16.09,0,0,0,1.19,1.28,15.23,15.23,0,0,0,2.75,2.14,17.13,17.13,0,0,0,6.75,2.25,16.76,16.76,0,0,0,3.61,0,14.53,14.53,0,0,0,3.51-.86,13.59,13.59,0,0,0,3.18-1.76,19,19,0,0,0,2.76-2.64,36.61,36.61,0,0,0,2.44-3.15l1.16-1.68.29-.43.35-.47a7.91,7.91,0,0,1,.79-.84,19.13,19.13,0,0,1,3.59-2.27,8.39,8.39,0,0,0,3-2.46c1.52-2.15,1.59-5.12,1-7.73a6.77,6.77,0,0,0-.72-1.89,1.83,1.83,0,0,0-1.59-1.06,2.91,2.91,0,0,0-1.75,1A11,11,0,0,0,441.43,460.3Zm0,0a10.51,10.51,0,0,1,1.29-1.6,3,3,0,0,1,1.76-1,1.94,1.94,0,0,1,1.68,1.06,6.94,6.94,0,0,1,.81,1.9,14.49,14.49,0,0,1,.49,4.1,8.73,8.73,0,0,1-1.11,4.05c-1.49,2.58-4.5,3.6-6.13,5.42a5.34,5.34,0,0,0-.53.72l-.22.38-.23.45-1,1.85a41.13,41.13,0,0,1-2.15,3.63,21.59,21.59,0,0,1-2.78,3.39,16.33,16.33,0,0,1-3.69,2.67,18.12,18.12,0,0,1-8.88,2,19.89,19.89,0,0,1-8.84-2.37,18.81,18.81,0,0,1-6.79-6.35A22.79,22.79,0,0,1,402.41,463a21.77,21.77,0,0,1,1.52-4.23,10.58,10.58,0,0,1,1.2-2.12,6,6,0,0,1,2.22-1.86,7,7,0,0,1,5.19-.18,9.66,9.66,0,0,1,4,2.53c2.1,2.12,3.4,4.47,5.4,6.17a17.68,17.68,0,0,0,7,3.72,16.77,16.77,0,0,0,4,.56,8,8,0,0,0,3.93-.73,6.8,6.8,0,0,0,2.68-3A40.27,40.27,0,0,1,441.43,460.3Z"/><path d="M447.39,399.31a17.65,17.65,0,0,0-2.34,6,24.58,24.58,0,0,0-.68,6.05,10.18,10.18,0,0,0,.4,2.66,3.23,3.23,0,0,0,1,1.61,2.1,2.1,0,0,0,.3.19c.1,0,.14.08.28.09l.18.05.23,0a3.94,3.94,0,0,0,.52,0,9.43,9.43,0,0,0,2.51-.36,15,15,0,0,0,2.61-.94,7.72,7.72,0,0,0,2-1.28,6.25,6.25,0,0,0,1.82-4.28,6.17,6.17,0,0,0-1.92-4.67,8.21,8.21,0,0,0-5.54-2.32,7.73,7.73,0,0,1,7,.32,8.36,8.36,0,0,1,2.93,2.58,8.88,8.88,0,0,1,1.48,3.77,9.74,9.74,0,0,1-2.26,7.84,11.28,11.28,0,0,1-3.32,2.46,18.75,18.75,0,0,1-3.54,1.36,13.73,13.73,0,0,1-4,.45,7.45,7.45,0,0,1-1.12-.14l-.58-.12-.6-.2a6.2,6.2,0,0,1-1.22-.59,6.56,6.56,0,0,1-1-.81,7.54,7.54,0,0,1-2.06-4.09,12.7,12.7,0,0,1,0-3.89,19.89,19.89,0,0,1,2.32-6.7,19.36,19.36,0,0,1,2-2.86A8.7,8.7,0,0,1,447.39,399.31Z"/><path d="M313.77,433.72a5.6,5.6,0,0,1-2.36-2.24c-.58-.93-1.05-1.93-1.62-2.87a11,11,0,0,0-2.05-2.55,17.3,17.3,0,0,0-2.67-1.91c-1.84-1.15-3.92-2.18-5.16-4.14a7.79,7.79,0,0,1-1.07-3.19c-.16-1.12-.18-2.22-.32-3.29a8.39,8.39,0,0,0-.85-3,4.21,4.21,0,0,0-2.2-1.89,6.34,6.34,0,0,0-5.69.74,8.7,8.7,0,0,0-3,5,17.44,17.44,0,0,0-.4,3.06c0,1,0,2.06.08,3.22a10.93,10.93,0,0,1-.37,3.69,9.79,9.79,0,0,1-1.91,3.34c-1.56,1.84-3.34,3.23-4.31,4.72a3.51,3.51,0,0,0-.7,2.08,3.06,3.06,0,0,0,.75,1.85,4.71,4.71,0,0,0,1.84,1.36,7.85,7.85,0,0,0,2.46.51A14.84,14.84,0,0,0,287,438c1-.15,2-.39,3.18-.6a16.45,16.45,0,0,1,3.82-.3,9.77,9.77,0,0,1,1.06.11,8.66,8.66,0,0,1,1.12.26,8.4,8.4,0,0,1,2.08,1,6.78,6.78,0,0,1,3,4.06,6.62,6.62,0,0,1-1,5,17.66,17.66,0,0,1-2.53,2.9c-.4.39-.77.75-1.1,1.1a12.29,12.29,0,0,0-.83,1,12.61,12.61,0,0,0-2,5.08,44.35,44.35,0,0,0-.64,6.2,7.38,7.38,0,0,0,.09,2.3.71.71,0,0,0,.2.33,1.66,1.66,0,0,0,.64.32,14.9,14.9,0,0,0,2.8.34l3.29.24c4.39.31,8.77.71,13.16,1.06,2.21.15,4.41.55,5.86,0a4.22,4.22,0,0,0,1.92-1.42,6.41,6.41,0,0,0,1-2.53c.41-2,.32-4.27,1-6.63a15,15,0,0,1,4-5.71c1.59-1.58,3.3-3,4.7-4.57a10.66,10.66,0,0,0,1.75-2.61,9.33,9.33,0,0,0,.68-3.07,8,8,0,0,0-2-5.89,10.26,10.26,0,0,0-5.6-3.09c-2.17-.39-4.34.32-6.45.89A9.7,9.7,0,0,1,313.77,433.72Zm0,0a9.74,9.74,0,0,0,6.46,0c1.06-.29,2.11-.64,3.19-.87a9.16,9.16,0,0,1,3.3-.15,10.86,10.86,0,0,1,5.88,3,8.59,8.59,0,0,1,2.36,6.2,10.88,10.88,0,0,1-.57,3.37,11.09,11.09,0,0,1-1.72,3c-1.38,1.81-3,3.32-4.45,4.93a13.14,13.14,0,0,0-3.17,5.21c-.44,1.91-.21,4.1-.47,6.46a9.12,9.12,0,0,1-1.13,3.66,7.11,7.11,0,0,1-3.09,2.71,9.74,9.74,0,0,1-3.83.74c-1.21,0-2.26,0-3.37,0-4.4-.09-8.8-.14-13.2-.27l-3.3-.09a17.45,17.45,0,0,1-3.74-.36,6.13,6.13,0,0,1-2.33-1.07,5.37,5.37,0,0,1-1.74-2.28,10.16,10.16,0,0,1-.51-4.22,44.22,44.22,0,0,1,.59-6.93,17.33,17.33,0,0,1,2.83-7.08,16,16,0,0,1,1.27-1.52c.43-.45.85-.85,1.24-1.23a12.93,12.93,0,0,0,1.83-2,1.72,1.72,0,0,0,.38-1.27,1.89,1.89,0,0,0-.86-1.11,3.81,3.81,0,0,0-.88-.44,4.34,4.34,0,0,0-.48-.14,5.4,5.4,0,0,0-.58-.09,12,12,0,0,0-2.75.12,29.82,29.82,0,0,1-7.06.56,10.75,10.75,0,0,1-3.91-1.07,8.7,8.7,0,0,1-3.22-2.75,6.85,6.85,0,0,1-1.31-4.29,7.19,7.19,0,0,1,1.57-4c1.64-2.08,3.54-3.25,4.91-4.69a7.1,7.1,0,0,0,1.55-2.22,8.89,8.89,0,0,0,.48-2.82c0-1,0-2.22.18-3.38a17.75,17.75,0,0,1,.72-3.43A10.45,10.45,0,0,1,289,408.1a7.58,7.58,0,0,1,6.94-.47,5.15,5.15,0,0,1,2.54,2.5,10,10,0,0,1,.78,3.33c.16,2.21-.06,4.46,1,6.34s3.06,3,4.89,4.2a17.57,17.57,0,0,1,2.65,2,11.92,11.92,0,0,1,2,2.61c.57.94,1,1.94,1.6,2.88A5.58,5.58,0,0,0,313.77,433.72Z"/><path d="M244,321.52a17.25,17.25,0,0,0-6.36-7.55,13.79,13.79,0,0,0-9.47-2.46,10.08,10.08,0,0,0-4.56,1.91A21.77,21.77,0,0,0,220,317a33.84,33.84,0,0,1-3.41,3.67,16.52,16.52,0,0,1-4.28,2.62c-1.53.69-3.12,1.23-4.68,1.8s-3.12,1.18-4.65,1.85a92.82,92.82,0,0,0-8.94,4.43,179.6,179.6,0,0,0-16.76,10.86c-10.78,7.85-20.5,17.29-31.15,25.38-1.34,1-2.57,2-4.23,3.09a15.39,15.39,0,0,1-6.31,2.5,11.4,11.4,0,0,1-3.93-.19,18.28,18.28,0,0,1-3.08-1l-2.36-1L124,370c-5.82-2.44-11.5-4-16.42-2.24a9.61,9.61,0,0,0-5.55,4.36,18,18,0,0,0-1.22,4,20.63,20.63,0,0,1-.9,2.92,10.22,10.22,0,0,1-.78,1.55L98.23,382a13.44,13.44,0,0,1-5.32,4.08,23.21,23.21,0,0,1-5.69,1.57c-1.78.3-3.47.48-5,.74a17.12,17.12,0,0,0-4,1,3.66,3.66,0,0,0-.74.39l-.34.18a.86.86,0,0,1-.14.13,1.8,1.8,0,0,0-.36.64,15.43,15.43,0,0,0-.61,3.57,32.38,32.38,0,0,1-.92,5.72,14.19,14.19,0,0,1-3.78,6.47,17.83,17.83,0,0,1-6.22,3.78c-2,.74-3.71,1.16-4.84,1.65a5.42,5.42,0,0,0-1.26.67,2.47,2.47,0,0,0-.53.62,6.47,6.47,0,0,0-.66,1.77,24.6,24.6,0,0,0-.14,7.13,47.27,47.27,0,0,0,1.44,8.26,31.57,31.57,0,0,0,1.23,3.6c.26.49.47,1.07.74,1.49l.37.68c.14.18.27.37.39.56a5.78,5.78,0,0,0,1.36,1.46,2.46,2.46,0,0,0,1.11.54,3.12,3.12,0,0,0,1.61.08,12,12,0,0,0,2.83-.95,34.85,34.85,0,0,0,3.67-2l4.22-2.6c5.7-3.52,11.37-7.07,16.95-10.74l2.1-1.38c.63-.42,1.51-1,2.52-1.6A14.8,14.8,0,0,1,102,418a9.9,9.9,0,0,1,5.87.29,9.47,9.47,0,0,1,4.64,3.86,13.53,13.53,0,0,1,1.58,3.9c.26,1.11.4,2.07.53,2.85a16.18,16.18,0,0,0,.38,1.89,13.63,13.63,0,0,0,3.43,6.29,7,7,0,0,0,5.43,2.31,6.94,6.94,0,0,0,2.87-.78,6.12,6.12,0,0,0,2.1-1.91c.14-.19.22-.41.35-.61s.13-.36.23-.54,0-.31.12-.47a3.47,3.47,0,0,0,0-.47,5.18,5.18,0,0,0-.34-1.4c-.23-.63-.56-1.32-.95-2.37A6.47,6.47,0,0,1,128,430c-.09-.31-.18-.59-.25-.94s-.12-.74-.17-1.11a9.93,9.93,0,0,1,0-1.22,5.25,5.25,0,0,1,.19-1.24,6.68,6.68,0,0,1,.37-1.17,8.39,8.39,0,0,1,1.1-1.88l.61-.77c.21-.24.36-.37.54-.55.35-.34.69-.7,1.05-1l1.1-.94c.38-.3.76-.58,1.15-.87a38.74,38.74,0,0,1,9.76-5,94.86,94.86,0,0,1,10-2.84c3.29-.74,6.6-1.36,9.9-2l2.47-.51,1.24-.26,1.46-.24a11.57,11.57,0,0,1,3.26.06,11,11,0,0,1,1.73.51,7.92,7.92,0,0,1,1.59.94,8.39,8.39,0,0,1,2.26,2.62,13.82,13.82,0,0,1,1.2,2.78,37.84,37.84,0,0,1,1.15,5.21c.13.85.29,1.6.44,2.35.06.38.18.72.27,1.09a8.06,8.06,0,0,0,.33,1,10,10,0,0,0,2,3.54,8.42,8.42,0,0,0,3.23,2.17,16.34,16.34,0,0,0,4.28.95c.75.11,1.55.13,2.32.19s1.64.07,2.32,0a15.26,15.26,0,0,0,4.21-.75,10.8,10.8,0,0,0,6.21-4.61,4.05,4.05,0,0,0,.39-.78A4.1,4.1,0,0,0,206,424a5.82,5.82,0,0,0,.17-.83c0-.29.06-.57.06-.86a8.13,8.13,0,0,0-.74-3.37,5.26,5.26,0,0,0-2-2.18,6,6,0,0,0-.58-.25l-.3-.1a3.62,3.62,0,0,0-.41-.09,18.93,18.93,0,0,0-2.1-.28c-.81-.08-1.73-.15-2.78-.34a9.56,9.56,0,0,1-3.54-1.3,8.41,8.41,0,0,1-2.89-3.11,10.71,10.71,0,0,1-.72-1.72,10.3,10.3,0,0,1-.43-1.72,14.75,14.75,0,0,1,.47-6.43,35.72,35.72,0,0,1,2-5.12,36.93,36.93,0,0,0,1.79-4.21,10.93,10.93,0,0,0,.48-1.89l0-.35c0-.1,0-.23,0-.36,0-.28,0-.59-.09-.93-.18-1.39-.66-3-1-4.8a11.66,11.66,0,0,1-.21-3.3,4.59,4.59,0,0,1,1.11-2.59,4,4,0,0,1,2.72-1.25,6.44,6.44,0,0,1,1.9.16,12.85,12.85,0,0,1,1.47.43,25.54,25.54,0,0,1,2.56,1.14c1.64.87,3,1.84,4.33,2.57A7.26,7.26,0,0,0,211.3,382a5.22,5.22,0,0,0,3.61-1.63,10.9,10.9,0,0,0,2.33-3.9,16.84,16.84,0,0,0,1-4.69,22.36,22.36,0,0,0-.2-4.89c-.19-1.66-.44-3.32-.6-5-.31-3.31-.41-6.84,1.07-9.95a10.23,10.23,0,0,1,8-5.61c3.34-.48,6.69.06,10-.22a10.94,10.94,0,0,0,4.74-1.39,8.27,8.27,0,0,0,3.27-3.68,20.46,20.46,0,0,0,1.51-9.79A32.33,32.33,0,0,0,244,321.52Zm0,0a32.29,32.29,0,0,1,2.07,9.76,20.38,20.38,0,0,1-1.5,9.8,8.35,8.35,0,0,1-3.27,3.71,11.37,11.37,0,0,1-4.76,1.44c-3.34.32-6.7-.17-10,.35a10,10,0,0,0-7.68,5.54,12.67,12.67,0,0,0-1.08,4.78,27.38,27.38,0,0,0,.31,5c.24,1.64.55,3.28.87,4.92a26.52,26.52,0,0,1,.59,5.07,21.15,21.15,0,0,1-.59,5.17,13,13,0,0,1-2.28,4.9,8.05,8.05,0,0,1-5,3,10.36,10.36,0,0,1-5.76-.78c-1.7-.67-3.19-1.46-4.59-2a18.47,18.47,0,0,0-2.13-.63,3.94,3.94,0,0,0-1.55-.14c-.11,0,.22,0,.49-.25s.25-.41.27-.28a9.32,9.32,0,0,0,.38,1.65c.44,1.43,1,3,1.48,4.91a13.42,13.42,0,0,1,.28,1.55c0,.29,0,.57.06.89s0,.66,0,.9a16.89,16.89,0,0,1-.48,3,38.87,38.87,0,0,1-1.79,5.14,30.86,30.86,0,0,0-1.5,4.25,8.4,8.4,0,0,0-.24,3.48,3.15,3.15,0,0,0,.2.7,2.57,2.57,0,0,0,.24.59,1.4,1.4,0,0,0,.48.51,9.18,9.18,0,0,0,3.32.68,25.25,25.25,0,0,1,2.86.43c.27.07.51.11.8.2l.89.31a10.76,10.76,0,0,1,1.67.82,11.94,11.94,0,0,1,4.47,5.32,14,14,0,0,1,1.06,6.39c0,.55-.12,1.09-.21,1.63a15.8,15.8,0,0,1-.43,1.6,12.21,12.21,0,0,1-1.47,3,15,15,0,0,1-4.44,4.3,18.09,18.09,0,0,1-5.4,2.32,20.94,20.94,0,0,1-5.67.66c-1,0-1.79-.11-2.69-.15s-1.76-.16-2.65-.32a22.12,22.12,0,0,1-5.42-1.44,13.25,13.25,0,0,1-4.94-3.46,15.15,15.15,0,0,1-2.88-5.12,11.49,11.49,0,0,1-.44-1.33c-.11-.44-.26-.89-.35-1.33-.19-.89-.38-1.77-.51-2.57A33.87,33.87,0,0,0,174,415.8a8.89,8.89,0,0,0-.8-1.81,3.65,3.65,0,0,0-1-1.1,3.9,3.9,0,0,0-3-.39c-.34.08-.62.12-1,.21L167,413l-2.4.63c-3.2.87-6.41,1.67-9.59,2.6a89.49,89.49,0,0,0-9.11,3.21,32.23,32.23,0,0,0-7.76,4.58l-.8.7-.76.74c-.25.24-.46.52-.7.77a4,4,0,0,0-.31.37l-.14.22c-.16.17-.08.23-.14.29s0,0,0,0h0s0,0,0,0a.33.33,0,0,1,0,.13c0,.06.07.17.1.26a2.12,2.12,0,0,0,.15.35,19.75,19.75,0,0,1,2.1,5.62,12.25,12.25,0,0,1,.12,2,13,13,0,0,1-.27,2,14.4,14.4,0,0,1-1.34,3.46,14.9,14.9,0,0,1-4.86,5.15,16,16,0,0,1-13.55,1.68,17.38,17.38,0,0,1-1.69-.66,16.47,16.47,0,0,1-1.5-.79,18.33,18.33,0,0,1-2.75-1.93,23.79,23.79,0,0,1-7-10.52c-.18-.49-.32-1-.47-1.49L104,431c-.2-.86-.36-1.55-.53-2.05s-.35-.78-.34-.7a1.72,1.72,0,0,0,.85.73,3.13,3.13,0,0,0,.94.19s-.33.19-.73.47-.89.66-1.61,1.22l-2,1.54C95.36,436.49,90.18,440.72,85,445l-3.92,3.22a47.17,47.17,0,0,1-4.75,3.4A25.17,25.17,0,0,1,70,454.5a18.81,18.81,0,0,1-8.31.58,17.24,17.24,0,0,1-2.12-.41c-.71-.21-1.42-.44-2.11-.7a16.42,16.42,0,0,1-2-.94l-1-.53c-.31-.19-.59-.4-.89-.61A21.63,21.63,0,0,1,48,446.18a33.08,33.08,0,0,1-4.76-12.12,50.44,50.44,0,0,1-.89-11.6,39.19,39.19,0,0,1,.6-6,26.82,26.82,0,0,1,2-6.57,17.35,17.35,0,0,1,5-6.4,15.6,15.6,0,0,1,3.63-2.14,18.66,18.66,0,0,1,3.45-1c2.08-.41,3.7-.52,4.89-.73a7.18,7.18,0,0,0,2.59-.81,3.94,3.94,0,0,0,1.6-1.83,19.16,19.16,0,0,0,1.23-4,21.07,21.07,0,0,1,2.09-6,9.83,9.83,0,0,1,2.85-3.13c.3-.2.61-.38.91-.56l.79-.37a10.39,10.39,0,0,1,1.56-.6,25.09,25.09,0,0,1,5.74-1.1c1.76-.17,3.4-.29,4.92-.47a15.13,15.13,0,0,0,4-.93,6.3,6.3,0,0,0,2.57-1.9c.14-.23.28-.46.43-.69a3.09,3.09,0,0,0,.34-.68,12,12,0,0,0,.52-1.88c.15-.74.3-1.6.53-2.54a17,17,0,0,1,1-3,17.43,17.43,0,0,1,9.24-8.44,22.3,22.3,0,0,1,5.9-1.53,24.5,24.5,0,0,1,5.94.07A42.49,42.49,0,0,1,127.29,362c.81.32,1.61.66,2.4,1l2.24,1a10.66,10.66,0,0,0,1.66.59,3.35,3.35,0,0,0,1,.1,7.56,7.56,0,0,0,2.94-1.13c1.18-.66,2.63-1.66,4-2.52,11.33-7.11,23.52-12.94,34.76-20.2,5.64-3.59,11.34-7.14,17.33-10.16,3-1.5,6-2.94,9.13-4.18,1.55-.63,3.13-1.19,4.71-1.73s3.17-1,4.71-1.68a15.72,15.72,0,0,0,4.26-2.54,33.68,33.68,0,0,0,3.43-3.63,22.37,22.37,0,0,1,3.57-3.51,10.42,10.42,0,0,1,4.59-1.88A13.76,13.76,0,0,1,237.6,314,17.26,17.26,0,0,1,244,321.52Z"/><path d="M120.68,462.6c-2.08-.17-4.14-.4-6.19-.65-1-.11-2.06-.26-3.09-.39a6.58,6.58,0,0,0-2.65,0,2.36,2.36,0,0,0-1.46,1.28,5.93,5.93,0,0,0-.56,2.35,11.16,11.16,0,0,0,0,1.29c0,.47.09.94.16,1.42.14.95.34,1.92.56,2.91a48.73,48.73,0,0,1,1.17,6.3,16.12,16.12,0,0,1,0,3.54,15,15,0,0,1-.33,1.83,17.76,17.76,0,0,1-.57,1.74c-.42,1.07-.88,2-1.25,2.89a9.07,9.07,0,0,0-.73,2.31,1.41,1.41,0,0,0,.2,1.13,2.91,2.91,0,0,0,1.32,1,7.16,7.16,0,0,0,4.44-.13,10.61,10.61,0,0,0,2.33-1,4.89,4.89,0,0,0,1.57-1.32c.8-1,1.08-2.69,1.26-4.67a23.69,23.69,0,0,1,1.13-6.62,12.4,12.4,0,0,1,1.8-3.14c.69-.89,1.38-1.67,2-2.41,1.27-1.49,2.18-2.92,2.08-4.57a5.79,5.79,0,0,0-.66-2.5,8.49,8.49,0,0,0-1.72-2.17,6.42,6.42,0,0,0-5.46-1.62,6.65,6.65,0,0,1,6.26.49,8.39,8.39,0,0,1,4,5.5,7.23,7.23,0,0,1-.3,3.72,14.46,14.46,0,0,1-1.58,3.09c-1.19,1.83-2.4,3.32-2.76,4.86a24.45,24.45,0,0,0-.43,5.61,21.23,21.23,0,0,1-.3,3.43,9.68,9.68,0,0,1-1.47,3.72,5.24,5.24,0,0,1-.65.84,6.66,6.66,0,0,1-.74.76l-.81.65c-.27.2-.53.35-.8.53a16,16,0,0,1-3.32,1.51,14.19,14.19,0,0,1-3.67.67,10.17,10.17,0,0,1-4-.6,7.9,7.9,0,0,1-3.54-2.71,6.27,6.27,0,0,1-1-2.38,6.58,6.58,0,0,1,0-2.38,13.15,13.15,0,0,1,1.18-3.56l1.31-2.74a9.19,9.19,0,0,0,.73-2.38,13.34,13.34,0,0,0,.16-2.64c-.05-1.85-.37-3.84-.62-5.93-.13-1.05-.24-2.12-.3-3.23,0-.54,0-1.11,0-1.67a10.88,10.88,0,0,1,.19-1.79,8.64,8.64,0,0,1,1.38-3.47,5,5,0,0,1,3.47-2.15,8.66,8.66,0,0,1,3.47.56c1,.3,2,.6,3,.93C116.75,461.24,118.72,461.89,120.68,462.6Z"/><path d="M192,454.79a3.35,3.35,0,0,0,0-3.1,4.45,4.45,0,0,0-2-2c-1.67-.85-3.72-.83-6-.73a10.23,10.23,0,0,0-2.83.32,1.89,1.89,0,0,0-1.1,1.06,3.75,3.75,0,0,0-.23,2,4.06,4.06,0,0,0,.28,1,2.89,2.89,0,0,0,.22.43l.12.19.18.23a8.66,8.66,0,0,0,4.55,2.57,16.41,16.41,0,0,0,5.93.58,6.67,6.67,0,0,0,2.52-.81,5.54,5.54,0,0,0,.95-.76,3.24,3.24,0,0,0,.6-1.07,4.45,4.45,0,0,0,0-2.82,2.91,2.91,0,0,0-2.21-2.06,3,3,0,0,1,1.85.13,4.21,4.21,0,0,1,1.57,1.24,6.11,6.11,0,0,1,1.21,3.89,5.94,5.94,0,0,1-.55,2.19,7.22,7.22,0,0,1-1.36,1.81,9.21,9.21,0,0,1-3.72,2.09,16.86,16.86,0,0,1-7.85.21,15,15,0,0,1-3.88-1.28,10.88,10.88,0,0,1-3.49-2.76l-.36-.46-.34-.54a7.26,7.26,0,0,1-.55-1.12,8.43,8.43,0,0,1-.58-2.35,8.15,8.15,0,0,1,1-4.75,6.47,6.47,0,0,1,1.76-2,6.09,6.09,0,0,1,2.44-1.08,12.45,12.45,0,0,1,4.07,0,20.76,20.76,0,0,1,3.71.73,9.14,9.14,0,0,1,3.57,2,6,6,0,0,1,1.8,3.65,4.63,4.63,0,0,1-.2,2A3.15,3.15,0,0,1,192,454.79Z"/><path d="M224.89,442.72a8,8,0,0,0,.58-4.62c-.11-.75-.35-1.41-.53-2.17s-.43-1.5-.69-2.26c-.53-1.5-1.13-3-1.71-4.6a2.06,2.06,0,0,0-1.94-1.34,1.41,1.41,0,0,0-.49.12,3.33,3.33,0,0,0-.64.35,5.39,5.39,0,0,0-1.18,1.2,14.11,14.11,0,0,0-1.79,3.76,54,54,0,0,0-1.87,9.19l-.57,4.87-.16,1.25c-.05.38-.08.74-.11,1.1a9.35,9.35,0,0,0,0,1.92,3.51,3.51,0,0,0,.46,1.32,2.27,2.27,0,0,0,1,.83,5.22,5.22,0,0,0,3.49.16,23.47,23.47,0,0,0,4.23-1.67,12.91,12.91,0,0,0,3.63-2.56,6.65,6.65,0,0,0,1.22-1.75,6.3,6.3,0,0,0,.54-2.13,4.85,4.85,0,0,0-1.66-4.19,4.45,4.45,0,0,1,2,1.61,6.22,6.22,0,0,1,1,2.51,7.58,7.58,0,0,1-1.2,5.37,14.56,14.56,0,0,1-3.87,3.84,21.76,21.76,0,0,1-4.71,2.61,9,9,0,0,1-6.24.2,6.7,6.7,0,0,1-3-2.09,7.4,7.4,0,0,1-1.46-3.2,12.8,12.8,0,0,1-.23-3q0-.7.09-1.38l.1-1.22c.13-1.63.29-3.31.49-5a45.21,45.21,0,0,1,2.25-10.18,16.82,16.82,0,0,1,2.76-5,9.16,9.16,0,0,1,2.47-2.12,8.87,8.87,0,0,1,1.61-.69,5.82,5.82,0,0,1,1.95-.22,6,6,0,0,1,5.34,4.45c.41,1.58.88,3.2,1.22,4.88.18.85.33,1.7.44,2.57a8.36,8.36,0,0,1-.11,2.77A7,7,0,0,1,224.89,442.72Z"/><path d="M237,398.71a9.26,9.26,0,0,0-3.93-6.9,11.21,11.21,0,0,0-7.2-1.95,16.16,16.16,0,0,0-3.77.63c-.65.15-1,.4-.87.36s0,.08-.05.65a12.17,12.17,0,0,0,.26,3.5,13.74,13.74,0,0,0,1.32,3.35,15.65,15.65,0,0,0,2.19,2.93,14.75,14.75,0,0,0,2.87,2.25,12.81,12.81,0,0,0,3.34,1.33l.89.16c.18,0,.21,0,.3,0a1,1,0,0,0,.24,0,2,2,0,0,0,1.07-.4A9.1,9.1,0,0,0,236,402a34.56,34.56,0,0,0,1.95-3.68c1.26-2.57,2.22-5.35,3.67-7.95-.39,2.91-.69,5.81-1.34,8.74a28.22,28.22,0,0,1-1.35,4.38,11.71,11.71,0,0,1-2.78,4.26,6.28,6.28,0,0,1-2.8,1.48,5,5,0,0,1-.85.12,5,5,0,0,1-.78,0l-1.28-.1a15.87,15.87,0,0,1-4.86-1.5,18.3,18.3,0,0,1-4.1-2.92,19.59,19.59,0,0,1-3.08-4,18.43,18.43,0,0,1-1.78-4.76,16.23,16.23,0,0,1-.14-5.16,8.18,8.18,0,0,1,.4-1.54,4.59,4.59,0,0,1,2.86-2.79,9.21,9.21,0,0,1,1.37-.35,18.11,18.11,0,0,1,4.88-.26,13,13,0,0,1,8.74,4.08,10.57,10.57,0,0,1,2.29,4.17A7.9,7.9,0,0,1,237,398.71Z"/><path d="M237.21,365.05a3.1,3.1,0,0,1-2,1.07,5.2,5.2,0,0,1-2.36-.23A17.18,17.18,0,0,1,229,364a25.86,25.86,0,0,0-3.11-1.77,3.54,3.54,0,0,0-1.12-.31,1.34,1.34,0,0,0-.64.13l1.19-1a6.29,6.29,0,0,0-.67,2,6.5,6.5,0,0,0,0,2.11l-.44-.84a10.75,10.75,0,0,0,3.71,3.33,13.43,13.43,0,0,0,5.59,1.64,8.86,8.86,0,0,1-6.55,1.4,10.85,10.85,0,0,1-6.38-3.45l-.23-.26-.2-.59a9.31,9.31,0,0,1-.41-4,9.64,9.64,0,0,1,1.3-3.83l.44-.71.76-.32a5.8,5.8,0,0,1,3.26-.33,7.42,7.42,0,0,1,2.6,1,16.55,16.55,0,0,1,3.29,2.94c.9,1,1.69,2,2.55,2.77A3.62,3.62,0,0,0,237.21,365.05Z"/><path d="M470.15,286.84a11,11,0,0,0-6.1-3.77,8.12,8.12,0,0,0-3.54,0c-.29.07-.56.16-.84.25l-.81.37a9.44,9.44,0,0,0-1.52.86,9.73,9.73,0,0,0-1.29,1.1,8.17,8.17,0,0,0-2,4.37,16.13,16.13,0,0,0,.62,6.55,38,38,0,0,0,2.51,6.37c1,2.07,2.13,4.09,3.31,6.07s2.41,3.93,3.7,5.8,2.61,3.72,3.93,5.29c.33.4.65.75,1,1.08l.45.45.56.52a15.7,15.7,0,0,0,2,1.55,7.39,7.39,0,0,0,.86.46,2.92,2.92,0,0,0,.72.25,4.11,4.11,0,0,0,1.18.09,1,1,0,0,0,.82-.47,4,4,0,0,0,.71-1.85,34.53,34.53,0,0,0-.27-6.79l-1-7.38c-.15-1.25-.26-2.52-.34-3.78s-.11-2.47-.22-3.69a36.49,36.49,0,0,0-1.15-7.21A18.13,18.13,0,0,0,470.15,286.84Zm0,0c3.13,3.83,4.52,8.74,5.78,13.5.3,1.2.64,2.39,1,3.57a35.18,35.18,0,0,0,1.17,3.41c.88,2.25,1.93,4.47,2.89,6.82a37.6,37.6,0,0,1,2.43,7.64,11.15,11.15,0,0,1-.44,5.35,9.64,9.64,0,0,1-1.44,2.74A9.28,9.28,0,0,1,479,332.1a10.67,10.67,0,0,1-5.92,1.56,11.77,11.77,0,0,1-2.89-.39,13.5,13.5,0,0,1-2.55-.92,19.37,19.37,0,0,1-4-2.61l-.82-.69c-.28-.25-.59-.55-.87-.82-.54-.56-1.06-1.11-1.51-1.65a41.93,41.93,0,0,1-4.53-6.72,55.28,55.28,0,0,1-3.25-7.15,45.56,45.56,0,0,1-3-15.51,20.65,20.65,0,0,1,1.47-8,10.89,10.89,0,0,1,5.51-5.79,11.41,11.41,0,0,1,1.83-.65l.92-.24a8,8,0,0,1,1-.16,9.64,9.64,0,0,1,3.75.4A12.74,12.74,0,0,1,470.15,286.84Z"/><path d="M515.82,340.64c-3.21-.38-6.36-1-9.51-1.55l-4.69-1-4.59-1a1.63,1.63,0,0,0-1.12,0s0,0,0,0,0,0,0,0,0,.06,0,.07a1.37,1.37,0,0,1,0,.19,6.48,6.48,0,0,0,.82,3.15,20.35,20.35,0,0,0,1.12,1.7c.42.59.88,1.16,1.35,1.72a22.67,22.67,0,0,0,3,3,10,10,0,0,0,1.58,1.1,6.12,6.12,0,0,0,.81.39l1,.37a14.57,14.57,0,0,0,4,.83,11.47,11.47,0,0,0,3.92-.4,10.93,10.93,0,0,0,1.87-.72,9.34,9.34,0,0,0,1.64-1,3,3,0,0,0,.78-.87c.1-.16.08-.46-.17-.94a9.34,9.34,0,0,0-3-2.73,30,30,0,0,0-4.08-2.2,29.26,29.26,0,0,0-4.45-1.66,18.92,18.92,0,0,1,4.86.33,26.72,26.72,0,0,1,4.79,1.34,16.12,16.12,0,0,1,2.32,1.15,8.81,8.81,0,0,1,2.22,1.83,4.57,4.57,0,0,1,.49.68,4.17,4.17,0,0,1,.4.82,6,6,0,0,1,.23,1,5.17,5.17,0,0,1,0,1,5.67,5.67,0,0,1-1.68,3.12,12.87,12.87,0,0,1-2.27,1.76,14.37,14.37,0,0,1-2.49,1.22,14.91,14.91,0,0,1-5.48,1,18.59,18.59,0,0,1-5.38-.88c-.43-.14-.85-.29-1.27-.46a11.44,11.44,0,0,1-1.35-.62,15.32,15.32,0,0,1-2.35-1.59,25.69,25.69,0,0,1-3.68-3.78c-.54-.67-1-1.36-1.52-2.08a18.81,18.81,0,0,1-1.39-2.37,12.59,12.59,0,0,1-.89-2.83,8,8,0,0,1,0-3.27,5.85,5.85,0,0,1,.31-.95,4.13,4.13,0,0,1,.56-1,4.08,4.08,0,0,1,.86-.85,3.78,3.78,0,0,1,1.05-.55l.54-.16a5,5,0,0,1,.5-.07,4.38,4.38,0,0,1,.95,0l.85.11.74.2c.54.14.81.27,1.22.41l1.12.42c.75.27,1.49.55,2.24.85l4.46,1.75C510,338,512.92,339.21,515.82,340.64Z"/><path d="M471.65,114a31.56,31.56,0,0,0-8.95-.75,17.35,17.35,0,0,0-7.93,2.4c-2.22,1.38-4.34,3.51-4.85,5.45a2,2,0,0,0,.35,2.06,3.43,3.43,0,0,0,1,.76,5.23,5.23,0,0,0,1.46.44,17.17,17.17,0,0,0,4,.05,36.41,36.41,0,0,0,4.26-.52,40.84,40.84,0,0,0,8.3-2.37c1.34-.55,2.67-1.15,4-1.84.63-.35,1.31-.72,1.88-1.07a5,5,0,0,0,1.35-1.13,1.69,1.69,0,0,0,.41-1.24,2.19,2.19,0,0,0-1-1.27,6.28,6.28,0,0,0-1.95-.81,5.8,5.8,0,0,0-2.24-.16,6.41,6.41,0,0,1,4.77-.28,3.62,3.62,0,0,1,2.24,1.78,2.61,2.61,0,0,1,.27.8,2.42,2.42,0,0,1,.06.84,2.84,2.84,0,0,1-.13.79,6.28,6.28,0,0,1-.25.73,7.06,7.06,0,0,1-1.72,2.24c-.64.58-1.25,1-1.89,1.54a33.62,33.62,0,0,1-4,2.62,35.41,35.41,0,0,1-9,3.48,39.39,39.39,0,0,1-4.82.8,22.09,22.09,0,0,1-5.19-.05,8.83,8.83,0,0,1-5.46-3A6.78,6.78,0,0,1,445,123a7.3,7.3,0,0,1,.37-3.33,11.12,11.12,0,0,1,3.22-4.64,16.58,16.58,0,0,1,4.33-2.85,16.41,16.41,0,0,1,4.89-1.38,18.91,18.91,0,0,1,4.93,0A22.75,22.75,0,0,1,471.65,114Z"/><path d="M480.23,134.9a27.48,27.48,0,0,1-6.42,1c-1.05.09-2.06.2-3,.36a11.23,11.23,0,0,0-2.61.71,7.18,7.18,0,0,0-3.42,3.12,2.56,2.56,0,0,0-.31,1.6,2.25,2.25,0,0,0,.68,1.27,6.45,6.45,0,0,0,4.09,1.4,11,11,0,0,0,5.06-1,8.17,8.17,0,0,0,4.58-9.29,7.55,7.55,0,0,1,1.54,6.55A9.48,9.48,0,0,1,479,144.1a10.88,10.88,0,0,1-2.65,2.68,13.27,13.27,0,0,1-7,2.36,10.31,10.31,0,0,1-7.64-2.56,6.92,6.92,0,0,1-1-8.78,9.74,9.74,0,0,1,2.81-2.93,10.42,10.42,0,0,1,3.55-1.59,12.11,12.11,0,0,1,3.64-.25,23.07,23.07,0,0,1,3.32.48C476.09,134,478.07,134.53,480.23,134.9Z"/><path d="M516,178.24a21.64,21.64,0,0,1-3.45-5.43,45.62,45.62,0,0,0-2.89-5.36,10,10,0,0,0-4-3.35,5.33,5.33,0,0,0-2.16-.54,3.13,3.13,0,0,0-1.73.46l1.2-1.69a51.59,51.59,0,0,0,.31,15.36,11.14,11.14,0,0,0,.84,3.18,3.57,3.57,0,0,0,1.85,1.68,9.09,9.09,0,0,0,3.29.57,26.84,26.84,0,0,0,3.84-.24l-.89.71a9,9,0,0,0,1.42-3.9,10.56,10.56,0,0,0-.37-4.47,9.19,9.19,0,0,1,1.89,4.45,10.53,10.53,0,0,1-.56,5.09l-.18.46-.71.24a24,24,0,0,1-4.19,1.08,11.8,11.8,0,0,1-4.78-.17,8.07,8.07,0,0,1-2.48-1.15,7.83,7.83,0,0,1-2-2.06,14.12,14.12,0,0,1-1.69-4.53,41.36,41.36,0,0,1-1-8.52,40.89,40.89,0,0,1,.74-8.55l.23-1.18,1-.51a7.57,7.57,0,0,1,4.35-.79,9.56,9.56,0,0,1,3.81,1.34,12.53,12.53,0,0,1,4.82,5.45,28.75,28.75,0,0,1,1.85,6.3A39.15,39.15,0,0,0,516,178.24Z"/></svg>