<svg id="Layer_1" data-name="Layer 1" xmlns="http://www.w3.org/2000/svg" viewBox="0 0 600 600"><title>Ireland</title><path d="M329.31,199.34c-1.8-1.87-3.81-3.54-5.68-5.38s-3.71-3.69-5.48-5.64a59.53,59.53,0,0,1-5-6.24,22.7,22.7,0,0,1-3.82-7.74,11.07,11.07,0,0,1-.08-5.17,13.71,13.71,0,0,1,.91-2.49,6.74,6.74,0,0,1,.62-1.15c.24-.37.46-.76.73-1.11a13.35,13.35,0,0,1,1.82-1.93c.33-.28.67-.58,1-.84l1-.7a22.6,22.6,0,0,1,2.13-1.2c.69-.31,1.42-.67,2.09-.92,2.76-1.06,5.37-1.72,7.5-2.48.53-.19,1.05-.38,1.49-.59a12.75,12.75,0,0,0,1.27-.59,8.71,8.71,0,0,0,1-.67c.34-.28.73-.54,1-.8s.54-.52.69-.76.37-.42.39-.61a2.81,2.81,0,0,0,.33-1.36c0-.17,0-.35,0-.53l-.06-.67a5.9,5.9,0,0,0-.09-.74l-.12-.81c-.21-1.19-.49-2.48-.71-4a17.49,17.49,0,0,1,1.38-10.87,12.66,12.66,0,0,1,2-2.8,12.87,12.87,0,0,1,2.64-2.12,21.47,21.47,0,0,1,4.78-2c1.34-.42,2.44-.75,3.4-1.12a13,13,0,0,0,1.3-.58,6.28,6.28,0,0,0,.58-.31c.19-.11.38-.21.61-.37a25.76,25.76,0,0,0,4.91-4.14,37.52,37.52,0,0,0,4.16-5.34c.63-1,1.22-2,1.8-3s1.19-2.17,1.78-3.29c2.36-4.49,4.67-9.3,7.68-14.09a43.6,43.6,0,0,1,12.14-13.26l2-1.28c.69-.41,1.39-.77,2.06-1.11,1.35-.67,2.62-1.23,3.78-1.75a25.55,25.55,0,0,0,5.45-3c.29-.25.57-.5.8-.74s.43-.44.56-.73c.08-.14.17-.27.26-.4a2.86,2.86,0,0,0,.21-.43,4.75,4.75,0,0,0,.37-.93,9.36,9.36,0,0,0,.19-4.53,10.5,10.5,0,0,0-1.86-4.43l-.33-.46-.38-.41a6.11,6.11,0,0,0-.78-.75c-.25-.25-.64-.48-.94-.72s-.7-.43-1.08-.61a14.54,14.54,0,0,0-5-1.42,18.17,18.17,0,0,0-5.58.33c-.47.09-.92.24-1.39.34s-.9.28-1.34.46a13.64,13.64,0,0,0-1.3.54l-.63.29-.66.37a25.83,25.83,0,0,0-5,3.43c-1.65,1.37-3.31,3.12-5.58,5.07a37.21,37.21,0,0,1-3.87,3,26.3,26.3,0,0,1-4.87,2.51,25.36,25.36,0,0,1-5.25,1.4c-.44.08-.88.15-1.31.2l-1.26.08c-.83,0-1.71.12-2.49.07l-2.39-.1-.58,0-.46,0-.92-.1c-1.23-.15-2.45-.25-3.68-.36a93.87,93.87,0,0,0-14.48-.42,39.82,39.82,0,0,0-6.95,1.11c-.56.15-1.14.28-1.68.46l-1.63.55a12.23,12.23,0,0,0-1.58.66c-.51.24-1,.45-1.54.72l-1.45.85c-.24.14-.49.27-.72.43l-.67.5-1.33,1-1.22,1.12a19.45,19.45,0,0,0-2.23,2.4c-.35.42-.57.83-.86,1.23s-.47.85-.71,1.26a15,15,0,0,0-1.37,5.75c-.14,2.19,0,4.67-.12,7.58a29.52,29.52,0,0,1-1.69,9.49,21.56,21.56,0,0,1-6.5,8.85,39.39,39.39,0,0,1-7.8,5c-2.54,1.3-5,2.31-7.34,3.35s-4.47,2-6.35,3a20.86,20.86,0,0,0-2.48,1.59c-.39.25-.67.52-1,.78a9.69,9.69,0,0,0-.79.77,5.66,5.66,0,0,0-1.55,3.31c-.05.34,0,.74-.07,1.12s0,.89.09,1.28a8.28,8.28,0,0,0,.42,2,4,4,0,0,0,.7,1.15,4.16,4.16,0,0,0,1.49.95,10.58,10.58,0,0,0,2.56.74,27.63,27.63,0,0,0,3.23.34c2.31.13,4.82.09,7.45.06a72.36,72.36,0,0,1,8.43.26,24,24,0,0,1,4.81.95,11.19,11.19,0,0,1,1.29.46l.65.26.71.35a15.82,15.82,0,0,1,2.44,1.57,23.27,23.27,0,0,1,3.76,3.59,17.21,17.21,0,0,1,3,4.81,9.57,9.57,0,0,1,.51,1.59l.2.86c0,.31.07.64.1,1s.05.64.05,1,0,.7-.08,1a8.5,8.5,0,0,1-.46,2.11,12,12,0,0,1-4.7,6,23,23,0,0,1-5,2.5c-.38.14-.78.27-.95.36l-.67.3c-.45.18-.87.45-1.31.66a16.77,16.77,0,0,0-7.28,7.91,14.18,14.18,0,0,0-1.09,4.75c-.07.7,0,1.82-.22,3.49a20.34,20.34,0,0,1-1.68,6.59,19,19,0,0,1-1.09,2c-.41.64-.87,1.23-1.33,1.83a13.81,13.81,0,0,1-1.64,1.72c-.3.28-.6.55-.91.81s-.67.49-1,.73a18.81,18.81,0,0,1-8.57,3.09,28.6,28.6,0,0,1-6.65-.14c-1.9-.24-3.49-.57-4.93-.87s-2.69-.57-3.5-.65a9.26,9.26,0,0,0-1.68.1,14.84,14.84,0,0,0-1.83.39l-2.46.71c-.94.24-2.1.56-3.35.84s-2.7.59-4.33.88a51.6,51.6,0,0,1-5.17.72c-1,.06-1.82,0-2.92.06-.52,0-1.05.07-1.58.15l-1.54.17-3.06.39a23.26,23.26,0,0,1-3,.18,12.16,12.16,0,0,1-2.73-.27c-.85-.19-1.66-.46-2.46-.71a37.58,37.58,0,0,1-7.78-3.89,26,26,0,0,0-5.76-2.95,12.37,12.37,0,0,0-4.77-.51c-1.62.08-3.25.35-4.92.59s-3.41.41-5.21.72c-3.61.51-7.72,1.34-11.07,3.56a14.57,14.57,0,0,0-1.18.89,10.3,10.3,0,0,0-1.09,1,12.28,12.28,0,0,0-1,1c-.32.37-.63.75-.93,1.16a33.35,33.35,0,0,0-3.19,5.08A22.1,22.1,0,0,0,167.14,225a9.43,9.43,0,0,0,.92,3.91,12.73,12.73,0,0,0,2.73,3.73,16.08,16.08,0,0,0,6.57,4c1.09.38,2.46.8,4.14,1.47a21.66,21.66,0,0,1,5.74,3.3,17.22,17.22,0,0,1,4.83,6.36,12.39,12.39,0,0,1,.68,1.71l.27.85a7.84,7.84,0,0,1,.25.91,17.16,17.16,0,0,1,.47,4,18.64,18.64,0,0,1-1.51,7.34,25.13,25.13,0,0,1-3.06,5.29,36.47,36.47,0,0,1-3.41,3.92,75,75,0,0,1-6.84,5.94l-3.2,2.44c-.47.36-1,.78-1.28,1a10.52,10.52,0,0,0-.93.84,16.66,16.66,0,0,0-3.08,4,17.94,17.94,0,0,0-2.2,9.66,19,19,0,0,0,1,4.86,22,22,0,0,0,2.37,4.66c.23.38.51.73.78,1.09l.4.54c.15.17.3.34.46.5a7.48,7.48,0,0,0,2.28,1.57,17,17,0,0,0,5.59,1.14,16.29,16.29,0,0,1,2.42.36,11.87,11.87,0,0,1,2.17.81c.73.3,1.47.59,2.26.83a22.8,22.8,0,0,0,2.39.71c.83.22,1.67.42,2.54.57s1.75.32,2.66.42,1.83.22,2.76.28c.47,0,.95,0,1.41.06a11.74,11.74,0,0,0,1.22,0c2,0,4.75-.34,7.59-.56a92.48,92.48,0,0,1,9.39-.3,36.07,36.07,0,0,1,11.74,2.11,21.34,21.34,0,0,1,6.69,4.08,19,19,0,0,1,2.75,3.13c.41.54.79,1.21,1.16,1.82a18.63,18.63,0,0,1,.91,1.92,19.09,19.09,0,0,1-.52,15.57,17.41,17.41,0,0,1-2.23,3.48A16.12,16.12,0,0,1,237,347a15.48,15.48,0,0,1-1.74,1.44,15.69,15.69,0,0,1-4,2.08,17.41,17.41,0,0,1-3.75.87,24,24,0,0,1-3,.17l-1.21,0-.52,0-.17,0a5.19,5.19,0,0,0-4.08,1.38,4.69,4.69,0,0,0-1.35,2.86,14.72,14.72,0,0,0-.16,2.61l0,.79.05.94.11,2a68.61,68.61,0,0,1,.05,8.76A29.1,29.1,0,0,1,215,380.81a22.88,22.88,0,0,1-2.83,4.73c-.53.74-1.14,1.37-1.72,2s-1.22,1.25-1.86,1.77a39.51,39.51,0,0,1-7.75,5.18c-2.52,1.38-4.94,2.5-7.13,3.61a48.34,48.34,0,0,0-5.92,3.45,16,16,0,0,0-3.94,3.67,4.19,4.19,0,0,0-.57,1.22,1.34,1.34,0,0,0,.24.73,3.31,3.31,0,0,0,2.28,1.34,4.05,4.05,0,0,0,1.56,0L189,408c.72-.25,1.6-.53,2.57-.91s2-.79,3.21-1.18c2.37-.75,5-1.63,8.21-2.35a33.24,33.24,0,0,1,5.32-.75,22.31,22.31,0,0,1,6.48.6,18.8,18.8,0,0,1,6.54,3.08,13.8,13.8,0,0,1,1.37,1.11l.64.57.68.71.66.72c.24.31.48.63.71,1a10,10,0,0,1,.7,1.07c.24.44.47.89.68,1.34a11.5,11.5,0,0,1,.57,1.69,8.81,8.81,0,0,1,.35,2,11.18,11.18,0,0,1-.49,4.39,12.73,12.73,0,0,1-.84,1.95,16.07,16.07,0,0,1-1,1.56,13.05,13.05,0,0,1-2.09,2.11,9.9,9.9,0,0,1-1,.73c-.31.21-.64.42-1,.6a18.28,18.28,0,0,1-1.73.85,20,20,0,0,1-3.16,1.07,35.43,35.43,0,0,1-10.25.74c-2.81-.13-5.11-.29-6.86-.18-.44,0-.83.07-1.21.12l-1.38.25a18.08,18.08,0,0,0-2.58.8,13.15,13.15,0,0,0-4,2.4,6.65,6.65,0,0,0-.69.72l-.16.18-.07.12c0,.08-.11.13-.16.22s-.24.38-.37.72a2,2,0,0,0-.25,1.08,19.38,19.38,0,0,1,.36,3.32,2.82,2.82,0,0,1-.25.92c-.14.31-.31.6-.44.92s-.26.7-.36,1.06-.13.78-.18,1.2c-.1.79-.25,1.75-.41,2.69-.08.48-.22,1-.34,1.54l-.2.79-.29.85a18.15,18.15,0,0,1-.68,1.73c-.29.6-.63,1.19-1,1.78a15.48,15.48,0,0,1-1.27,1.75,12.22,12.22,0,0,1-1.53,1.62,20.94,20.94,0,0,1-1.72,1.41c-.54.37-1.1.75-1.66,1.06a25,25,0,0,1-3.38,1.65,28.13,28.13,0,0,1-6.37,1.62,42.34,42.34,0,0,1-10-.06l-2.15-.24-2.09-.26-3.77-.51a55.34,55.34,0,0,0-6.33-.54,16,16,0,0,0-4,.36,2.53,2.53,0,0,0-1.53.75c-.32.38-.39.33-.52.56a1.94,1.94,0,0,0-.26.86,2.91,2.91,0,0,0,.45,1.81,4.15,4.15,0,0,0,1.24,1c.73.46,1.8,1,3.1,1.71,2.44,1.33,6.81,3.74,9.37,8.69a16.89,16.89,0,0,1,1.8,7.41,26.12,26.12,0,0,1-.62,5.66c-.68,3.08-1.38,5.32-1.56,6.84a7.11,7.11,0,0,0-.07,1.57,1.66,1.66,0,0,1,0,.22c0,.08,0,.09.06.24a9.79,9.79,0,0,0,.4.92,7.06,7.06,0,0,0,2.5,2.84,13.08,13.08,0,0,0,4.66,1.83c.23.06.48.09.72.14l.36.07.57.08q1.14.18,2.31.42a36.2,36.2,0,0,1,4.73,1.34,29.46,29.46,0,0,1,4.75,2.21A17.83,17.83,0,0,1,175.8,511a10.86,10.86,0,0,1,3.07,4.78,9.19,9.19,0,0,1,.36,1.88,10.34,10.34,0,0,1,0,1.93,14.38,14.38,0,0,1-.37,1.73,10.73,10.73,0,0,1-.57,1.4,7.43,7.43,0,0,1-.64,1.16c-.22.32-.45.65-.68,1-.43.52-.85,1-1.29,1.41s-.8.71-1.21,1a13.35,13.35,0,0,1-1.37,1,19.44,19.44,0,0,1-2.61,1.41c-1.62.71-3,1.17-4,1.56a9.24,9.24,0,0,0-1.92.92c-.15.09-.2.18-.17.12s0,0,0,.05a1.06,1.06,0,0,0-.09.51c0,.19.06.27,0,.22h0l.05.06.14.13a2.12,2.12,0,0,0,.47.31,5.58,5.58,0,0,0,1.67.52,5.7,5.7,0,0,0,1,.07,10.46,10.46,0,0,0,1.29-.08c1-.1,2.24-.31,3.73-.5a24.08,24.08,0,0,1,5.32-.22,14.12,14.12,0,0,1,1.56.19l.74.14.53.11c.72.14,1.43.3,2.14.46,1.42.33,2.82.72,4.2,1.12,2.76.8,5.44,1.75,8.06,2.76l1.94.78,1.81.75c1.09.45,2.15.83,3.1,1.13a15.71,15.71,0,0,0,5.22.84c1.85,0,4-.24,6.55-.52s5.13-.39,7.68-.53,5.09-.34,7.61-.57c5-.42,10-1,15-1.67s9.81-1.63,14.58-2.8a36.68,36.68,0,0,0,6.89-2.52c2.2-1,4.4-2,6.5-3.18l1.59-.84,1.54-.91c1-.62,2.07-1.18,3-1.86s2-1.27,3-2l3-2.13c4-2.89,7.78-6,11.57-9.19s7.45-6.55,11.05-10,7.08-7.13,10.83-10.55,7.7-6.7,11.79-9.9c2.05-1.6,4.09-3.1,6.43-4.77a71.07,71.07,0,0,1,7.71-4.75,45.54,45.54,0,0,1,4.4-2.06,41,41,0,0,1,4.65-1.57,53.48,53.48,0,0,1,8.83-1.58c2.81-.24,5.48-.3,8-.61a29.64,29.64,0,0,0,7.06-1.63c4.16-1.5,8.21-3.95,10.41-6.87a9.79,9.79,0,0,0,1.26-2.18,3,3,0,0,0,.19-.55l.09-.27c0-.12.06-.2,0-.05s0,0,0-.11,0-.38,0-.64c0-1-.16-2.28-.28-3.58s-.24-2.67-.3-4.13a30.45,30.45,0,0,1,.1-4.72,16.57,16.57,0,0,1,.55-2.86,10.54,10.54,0,0,1,1.75-3.55,8.73,8.73,0,0,1,4.34-3,7.19,7.19,0,0,1,1.25-.29,6.79,6.79,0,0,1,1.42-.11,7.06,7.06,0,0,1,1.71.19,10.08,10.08,0,0,1,1.68.58,11.07,11.07,0,0,1,1.39.86c.36.29.69.6,1,.92a7.19,7.19,0,0,1,.75.91,6.46,6.46,0,0,1,.58.85,14.41,14.41,0,0,1,1.35,2.93,32.59,32.59,0,0,1,1.15,4.65c.13.7.22,1.09.35,1.62s.27.95.42,1.37a8.66,8.66,0,0,0,1.05,2.09,6.85,6.85,0,0,0,1.37,1.48,11.22,11.22,0,0,0,2.06,1.26,17.35,17.35,0,0,0,2.58,1,28.8,28.8,0,0,0,3,.75c1.06.2,2.18.38,3.34.55l1.79.29.29.06.21.06a4.41,4.41,0,0,0,.65.08l2.08.13a19.55,19.55,0,0,1,2.26.29l2,.33,2.07.31c1.41.2,2.65.44,3.81.53a11.05,11.05,0,0,0,3-.22l.63-.15.56-.17c.3-.12.34-.16.27-.12a.36.36,0,0,0-.1.07l0,0,.08-.13a2.57,2.57,0,0,0,.27-.61,2,2,0,0,0,0-1.15,3.08,3.08,0,0,0-.72-1.25,9.5,9.5,0,0,0-1.89-1.61,33.29,33.29,0,0,1-3.72-2.62,11.92,11.92,0,0,1-2.24-2.6,10,10,0,0,1-.85-1.66,11.66,11.66,0,0,1-.54-1.64,12.59,12.59,0,0,1,.17-6.66,16,16,0,0,1,2.69-5.19,34.88,34.88,0,0,1,6.95-6.37,22.71,22.71,0,0,0,4.78-4.26,11.7,11.7,0,0,0,1.82-4.51,31.81,31.81,0,0,0,.46-6.25c0-2.33-.15-4.9-.17-7.69a55.45,55.45,0,0,1,.54-9.1c.17-.83.27-1.65.5-2.5s.46-1.72.73-2.57a33.2,33.2,0,0,1,2.05-4.78,85.84,85.84,0,0,1,4.5-7.38c.68-1,1.28-2,1.8-2.89.26-.45.49-.87.71-1.28l.6-1.27a29.1,29.1,0,0,0,2.44-11.2,59.54,59.54,0,0,0-1.39-13.26c-.92-4.66-2.16-9.52-3.5-14.52S454,321,453,315.54c-.55-2.71-1-5.53-1.34-8.35s-.56-5.61-.69-8.35c-.51-11,.18-21.33-.4-31.14a69.15,69.15,0,0,0-2-14,37.8,37.8,0,0,0-2.25-6.29l-.36-.74-.18-.36c-.11-.21-.08-.15,0,0s0-.09-.38-.44l-1.47-1.47a15.37,15.37,0,0,1-2.08-2.57,9,9,0,0,1-.59-1.1,8.3,8.3,0,0,1-.53-1.47,8.79,8.79,0,0,1-.26-1.89,14,14,0,0,1,.11-1.43,9.06,9.06,0,0,1,.91-2.86,9.71,9.71,0,0,1,1.69-2.23,9.89,9.89,0,0,1,1.77-1.36l.84-.48c.27-.14.5-.23.75-.34l.74-.31.67-.22c.46-.16.87-.27,1.27-.37,1.61-.41,3-.62,4.2-.84l.83-.15.38-.08.29-.06.26-.06a.35.35,0,0,1,.11,0c.09,0,0,0-.07.05s-.19.17,0,.06a7.63,7.63,0,0,0,1.71-1.37,3.37,3.37,0,0,0,.69-1.09,1.19,1.19,0,0,0,.07-.47,1.56,1.56,0,0,0-.1-.61,1.78,1.78,0,0,0-.58-1,7.6,7.6,0,0,0-4.38-1.49,22.12,22.12,0,0,0-6.38.43l-.79.18-.4.1-.47.12-1.93.52c-1.32.35-2.68.67-4.08.94a28.61,28.61,0,0,1-9.13.5,14,14,0,0,1-5.22-1.8c-.42-.29-.85-.55-1.24-.88s-.75-.71-1.11-1.07a12.09,12.09,0,0,1-1.61-2.27c-1.71-3.12-2.05-6.14-2.54-8.53a20.06,20.06,0,0,0-.82-3.18,11.24,11.24,0,0,0-1.44-2.61,33.56,33.56,0,0,0-5-5,37.36,37.36,0,0,1-5.9-6,18.37,18.37,0,0,1-1.23-2,15.26,15.26,0,0,1-.95-2.1c-.5-1.29-.89-2.53-1.31-3.39a6.46,6.46,0,0,0-1.76-2.22c-.37-.32-.93-.7-1.41-1.06s-1-.71-1.51-1-1-.65-1.53-.92l-.78-.43-.77-.34a8.82,8.82,0,0,0-3-.83,3.3,3.3,0,0,0-2.35.62,4.79,4.79,0,0,0-1,.94,10,10,0,0,0-.81,1.36,24.67,24.67,0,0,0-1.84,7c-.77,5.1-1.35,10.41-3.16,15.51a23.94,23.94,0,0,1-3.87,7.14,18.72,18.72,0,0,1-6.37,5,20.72,20.72,0,0,1-7.79,1.88,27.27,27.27,0,0,1-7.86-.94,34.91,34.91,0,0,1-3.75-1.22c-1.24-.42-2.41-1-3.61-1.53a55.42,55.42,0,0,1-6.78-3.9A62,62,0,0,1,329.31,199.34Zm0,0a38.46,38.46,0,0,0,5.83,5.14,49.45,49.45,0,0,0,6.52,4.14,53.23,53.23,0,0,0,6.95,3.13c1.21.37,2.38.82,3.59,1.08a33,33,0,0,0,3.59.79,27.4,27.4,0,0,0,7,.25,19.27,19.27,0,0,0,6.32-1.88,15.3,15.3,0,0,0,4.89-4.11,19.86,19.86,0,0,0,3-6c1.48-4.5,1.9-9.56,2.57-14.76a29.31,29.31,0,0,1,2.06-8.41,14.74,14.74,0,0,1,1.22-2.16,9.84,9.84,0,0,1,1.93-2,8.26,8.26,0,0,1,5.44-1.74A13.26,13.26,0,0,1,395,173.9l1,.45,1,.5a20.78,20.78,0,0,1,1.85,1.07c.6.36,1.19.74,1.74,1.15s1.1.74,1.73,1.26a11.6,11.6,0,0,1,3.17,3.79c.74,1.46,1.11,2.72,1.57,3.84a11.42,11.42,0,0,0,.68,1.48,13.75,13.75,0,0,0,.88,1.37,30.46,30.46,0,0,0,5.12,5.09,40,40,0,0,1,5.9,5.77,16.3,16.3,0,0,1,2.24,3.87,23.46,23.46,0,0,1,1.16,4.09c.53,2.62.92,5,2,6.91a6.86,6.86,0,0,0,.89,1.27c.17.15.34.32.51.49a6.85,6.85,0,0,0,.59.42,8,8,0,0,0,3,1,22.79,22.79,0,0,0,7.2-.47c1.23-.25,2.47-.55,3.7-.88s2.47-.71,3.82-1a28.29,28.29,0,0,1,8.11-.7,13.87,13.87,0,0,1,7.9,2.73,7.9,7.9,0,0,1,2.51,3.6,7.8,7.8,0,0,1,.37,4.33,8.66,8.66,0,0,1-1.87,3.86,13.37,13.37,0,0,1-3.1,2.73,7,7,0,0,1-2,.83c-.66.19-1.31.31-1.95.44-1.29.25-2.55.47-3.77.79a7.81,7.81,0,0,0-3.24,1.49,3.3,3.3,0,0,0-.5.63,2.41,2.41,0,0,0-.22.75l0,.4a2.11,2.11,0,0,0,.05.35,2.59,2.59,0,0,0,.34.74A17.3,17.3,0,0,0,449.9,241a9.78,9.78,0,0,1,1.38,1.53c.38.61.65,1.16,1,1.76a46,46,0,0,1,2.9,7.31,74.21,74.21,0,0,1,2.72,15.41c.86,10.39.45,20.81,1.21,31.16a98.46,98.46,0,0,0,2.29,15.37c1.16,5.06,2.62,10.05,4.06,15s2.88,10,4,15.08a65.57,65.57,0,0,1,1.68,15.48,36.28,36.28,0,0,1-3.54,15.05c-2.26,4.72-5.9,8.56-8.51,13a24.64,24.64,0,0,0-1.71,3.5l-.62,1.85c-.2.61-.31,1.26-.47,1.88a48,48,0,0,0-.87,7.74c-.25,5.17-.05,10.45-1.48,15.48a17.16,17.16,0,0,1-3.69,6.78,33.45,33.45,0,0,1-6.1,4.82,25.94,25.94,0,0,0-5.92,5,10.55,10.55,0,0,0-1.86,3.4,7.16,7.16,0,0,0-.16,3.84,6.21,6.21,0,0,0,2,3.27,33.76,33.76,0,0,0,3.18,2.25c2.11,1.45,4.09,3.43,4.66,6a7.17,7.17,0,0,1-.24,3.84,6.23,6.23,0,0,1-2.17,3.15,8.55,8.55,0,0,1-3.69,1.16,22,22,0,0,1-3.89.08c-1.3-.07-2.59-.2-3.89-.28s-2.59-.11-3.89-.16c-.65,0-1.3-.07-1.95,0s-1.29.08-1.94.12a24.08,24.08,0,0,1-3.89-.18,37.36,37.36,0,0,1-7.64-1.46A19.61,19.61,0,0,1,406,455.7a13.53,13.53,0,0,1-4.06-6.53c-.8-2.48-.84-5.13-1.65-7.61a8.82,8.82,0,0,0-.78-1.78,3.34,3.34,0,0,0-1.33-1.38,3,3,0,0,0-3.47,1,7.43,7.43,0,0,0-1.23,3.65,25.3,25.3,0,0,0-.13,3.89c.07,2.6.38,5.19.46,7.78a10.43,10.43,0,0,1-.12,1.94c-.06.32-.2.62-.29.93a5.89,5.89,0,0,1-.35.91,15.05,15.05,0,0,1-2,3.34,23,23,0,0,1-5.85,5.09,34.53,34.53,0,0,1-7,3.33c-4.93,1.68-10.08,2.5-15.12,3.77a50.36,50.36,0,0,0-7.41,2.38,33.23,33.23,0,0,0-6.77,3.83c-4.22,3.06-7.84,6.82-11.62,10.38s-7.53,7.16-11.36,10.68A298.4,298.4,0,0,1,302,521.37c-8.35,6.16-17.09,11.93-26.65,16A133.9,133.9,0,0,1,245.47,546c-10.24,1.8-20.59,2.82-30.95,3.65a53.34,53.34,0,0,1-7.79.25,24.32,24.32,0,0,1-7.56-1.73c-2.43-.93-4.72-2.18-7.09-3.25s-4.77-2.06-7.23-2.9q-1.84-.63-3.72-1.14a25.12,25.12,0,0,0-3.81-.82c-2.6-.25-5.18.35-7.75.6a13.8,13.8,0,0,1-7.61-1.15,8.45,8.45,0,0,1-3-2.42,7,7,0,0,1-1.38-3.59,7.39,7.39,0,0,1,2.94-6.84c2.1-1.56,4.7-2.17,7.05-3.27a11.12,11.12,0,0,0,3.21-2.16c.22-.24.45-.48.65-.73a4.33,4.33,0,0,0,.51-.82,2.4,2.4,0,0,0,.19-1.89,5.46,5.46,0,0,0-2.68-2.7,22.07,22.07,0,0,0-3.55-1.58,27.15,27.15,0,0,0-3.77-1c-1.27-.26-2.57-.39-3.85-.61a21.06,21.06,0,0,1-7.3-2.6,14.84,14.84,0,0,1-5.38-5.52,12.36,12.36,0,0,1-1.42-3.61,13.27,13.27,0,0,1-.17-3.88c.23-2.59,1-5.1,1.46-7.65a18.61,18.61,0,0,0,.38-3.87,8.6,8.6,0,0,0-.94-3.75c-1.24-2.33-3.56-3.79-5.85-4.94s-4.75-2.23-6.61-4.07a11.92,11.92,0,0,1-1.91-14.36,12.32,12.32,0,0,1,5.64-5.18,21.47,21.47,0,0,1,7.54-1.76c5.2-.38,10.38.35,15.57.54a43,43,0,0,0,7.78-.21,13.94,13.94,0,0,0,7.12-2.91,9.68,9.68,0,0,0,2.38-3,18.79,18.79,0,0,0,1.45-3.61c.77-2.48,1.29-5,2.19-7.48a17.93,17.93,0,0,1,1.71-3.49,15.51,15.51,0,0,1,2.58-2.91,21.31,21.31,0,0,1,6.67-3.94,27.43,27.43,0,0,1,7.58-1.71,72.28,72.28,0,0,1,7.79.12,27.24,27.24,0,0,0,7.75-.55,9.48,9.48,0,0,0,3.51-1.63,3.24,3.24,0,0,0,1.14-1.54,2.74,2.74,0,0,0-.15-1.89,8.16,8.16,0,0,0-2.58-2.87,10,10,0,0,0-3.5-1.63,16.93,16.93,0,0,0-7.72.25c-5.07,1.14-9.86,3.39-15,4a12.45,12.45,0,0,1-7.56-1.32,10.15,10.15,0,0,1-5-5.71,8.2,8.2,0,0,1-.32-3.84,10.44,10.44,0,0,1,1.47-3.59,21.59,21.59,0,0,1,5.51-5.44c4.22-3.08,9.06-5.08,13.6-7.6a33.58,33.58,0,0,0,6.39-4.43,18.15,18.15,0,0,0,4.55-6.25,21.49,21.49,0,0,0,1.52-7.6,57.74,57.74,0,0,0-.35-7.78,40.49,40.49,0,0,1-.33-7.78,13,13,0,0,1,9-11.57,14.15,14.15,0,0,1,3.82-.7,28.09,28.09,0,0,0,3.89-.2,7.73,7.73,0,0,0,3.58-1.42,7.87,7.87,0,0,0,2.39-3,9,9,0,0,0-5.74-12.45,21.32,21.32,0,0,0-7.71-.71c-5.2.34-10.25,1.7-15.35,2.64a46.21,46.21,0,0,1-15.52,0,38,38,0,0,1-14.43-5.62,35.55,35.55,0,0,1-10.74-11.13,32.27,32.27,0,0,1-3.21-7.08,29,29,0,0,1-1.26-7.67,27.76,27.76,0,0,1,4.05-14.85,27.35,27.35,0,0,1,4.93-6c1.92-1.76,4.12-3.17,6.18-4.75a57,57,0,0,0,5.94-5,20.37,20.37,0,0,0,4.56-6.26,9.45,9.45,0,0,0,.82-3.78,9.23,9.23,0,0,0-.86-3.76,8.19,8.19,0,0,0-2.32-3.08,13.23,13.23,0,0,0-3.38-1.9c-2.41-1-5-1.57-7.29-2.75a26.61,26.61,0,0,1-6.34-4.49,22.64,22.64,0,0,1-4.66-6.21,18.59,18.59,0,0,1-2-7.48,30.88,30.88,0,0,1,3.41-15,41,41,0,0,1,37.69-23.24,35.26,35.26,0,0,1,7.7,1.12c2.51.68,5,1.59,7.38,2.51,4.84,1.83,9.72,3.85,14.93,4.24s10.28-1.28,15.34-2.32a28.1,28.1,0,0,1,7.75-.64,22.73,22.73,0,0,1,3.85.63c1.26.33,2.49.73,3.74,1.1a23.47,23.47,0,0,0,7.64,1.28,7.72,7.72,0,0,0,3.68-1.11,7.43,7.43,0,0,0,2.59-2.83c1.2-2.33,1.21-5,1.84-7.54a23.49,23.49,0,0,1,3-7.17,25.17,25.17,0,0,1,11.86-9.74c2.39-1,5.07-1.27,7.3-2.66a6,6,0,0,0,2.52-2.86,5.73,5.73,0,0,0-.07-3.81,13.8,13.8,0,0,0-4.64-6.11,9.8,9.8,0,0,0-3.47-1.71,18.37,18.37,0,0,0-3.83-.65c-5.19-.38-10.38.29-15.58.16a31.66,31.66,0,0,1-3.89-.28,17.54,17.54,0,0,1-3.79-.88,11,11,0,0,1-3.4-1.88,10.14,10.14,0,0,1-2.39-3.05,15.8,15.8,0,0,1-1.34-7.61,12.69,12.69,0,0,1,.84-3.8,12.54,12.54,0,0,1,2-3.34,21.88,21.88,0,0,1,6-4.87,73.18,73.18,0,0,1,7-3.44c2.37-1.06,4.76-2.08,7.1-3.22a36.55,36.55,0,0,0,6.65-4,15.37,15.37,0,0,0,4.8-6,25.82,25.82,0,0,0,1.73-7.56c.26-2.59.31-5.19.68-7.77a20.73,20.73,0,0,1,2.34-7.4,24.31,24.31,0,0,1,4.93-6l1.45-1.3,1.57-1.15.79-.58.83-.51,1.67-1a47.87,47.87,0,0,1,14.72-4.92,87.92,87.92,0,0,1,15.54-1.1c2.6,0,5.2.22,7.79.2a22.1,22.1,0,0,0,7.6-1.4,22.45,22.45,0,0,0,6.5-4.18c2-1.71,3.82-3.53,5.84-5.17a32.49,32.49,0,0,1,6.55-4.21,26.46,26.46,0,0,1,15.18-2.62,21.51,21.51,0,0,1,7.4,2.4,17,17,0,0,1,8.64,12.38,15.84,15.84,0,0,1-.56,7.73,13.16,13.16,0,0,1-4.5,6.28c-4.2,3.19-9.51,4.25-13.8,7.2a37.73,37.73,0,0,0-10.5,11.32c-2.82,4.36-5.14,9-7.62,13.58-1.24,2.29-2.5,4.57-3.95,6.73a43.4,43.4,0,0,1-4.89,6.08,31.53,31.53,0,0,1-6.06,4.92,26.47,26.47,0,0,1-7.24,2.88,16,16,0,0,0-3.58,1.44,6.58,6.58,0,0,0-2.6,2.73,12.15,12.15,0,0,0-.82,7.53c.4,2.55,1.19,5.07,1.18,7.72a8.27,8.27,0,0,1-.92,3.81,8.57,8.57,0,0,1-1.09,1.65,18.36,18.36,0,0,1-1.39,1.4c-.51.41-1.06.77-1.59,1.16a14.37,14.37,0,0,1-1.71,1,22.58,22.58,0,0,1-3.7,1.3c-2.52.69-5.09,1.11-7.57,1.84a14.2,14.2,0,0,0-6.67,3.69c-.22.23-.39.51-.59.76a4.25,4.25,0,0,0-.54.79,10.51,10.51,0,0,0-.82,1.73A8.14,8.14,0,0,0,312,174a21.07,21.07,0,0,0,2.75,7.2,55.9,55.9,0,0,0,4.32,6.46A142.79,142.79,0,0,0,329.32,199.33Z"/></svg>