<svg id="Layer_1" data-name="Layer 1" xmlns="http://www.w3.org/2000/svg" viewBox="0 0 600 600"><title>Jamaica</title><path d="M50.21,262.34a23.45,23.45,0,0,1,1.9-4.57,36.33,36.33,0,0,0,2-4.52,34.62,34.62,0,0,0,1.59-9.57,39.16,39.16,0,0,1,1.46-10.07,27.19,27.19,0,0,1,5.23-9.05,37.35,37.35,0,0,1,7.94-6.76,68.75,68.75,0,0,1,9.11-4.86c3.12-1.4,6.32-2.59,9.53-3.66l4.78-1.53c1.58-.5,3.18-1,4.79-1.48a84.29,84.29,0,0,1,20.56-3.93c3.6-.14,7.09,0,10.18,0a22.45,22.45,0,0,0,7.81-1,11.26,11.26,0,0,0,2.76-1.48,12.21,12.21,0,0,0,1.24-1.06l.31-.28.37-.34,1.18-1a34.61,34.61,0,0,1,10.66-6.29,49.8,49.8,0,0,1,11.53-2.75,79.57,79.57,0,0,1,11.16-.43c3.64.08,7.14.41,10.58.77s6.82.81,10,1.24c6.37.83,12.76,1.51,19.14,2.13s12.79,1,19.18,1.28,12.79.55,19.18.55,12.79-.1,19.17-.39c3.2-.13,6.35-.34,9.58-.54s6.9-.49,10.88-.43a49.46,49.46,0,0,1,13,1.74,39.38,39.38,0,0,1,6.67,2.56c2,1,3.79,2,5.36,3a80.1,80.1,0,0,0,7.37,4.31,19.75,19.75,0,0,0,2.74,1,27.25,27.25,0,0,0,3.17.65c4.56.65,10.37.3,16.93-.24,3.3-.25,6.8-.53,10.58-.62a66.61,66.61,0,0,1,12.25.72,43.93,43.93,0,0,1,13.49,4.29c1.1.58,2.18,1.2,3.25,1.86s2.09,1.39,3,2.13a49.12,49.12,0,0,1,5.18,4.61,105.94,105.94,0,0,1,7.62,8.94c1,1.24,2.28,3,3.3,4.41L411,236c1.94,2.75,3.66,5.21,5.38,7.21a28.86,28.86,0,0,0,4.8,4.66,15.34,15.34,0,0,0,4.33,2.15,19.87,19.87,0,0,0,4.86.77c1,.06,2.1.06,3.32.05l4.15-.12,4.9-.16,1.36,0,1.5,0c1,0,2,0,3,.05a115.89,115.89,0,0,1,11.73,1.09,18.75,18.75,0,0,1,5.64,1.4,39.34,39.34,0,0,1,5.12,3.15,21.35,21.35,0,0,0,5.11,2.58c1.78.67,3.55,1.34,5.29,2.09q5.26,2.08,10.4,4.54a92.65,92.65,0,0,1,19.54,12,83.79,83.79,0,0,1,15.64,17.22,104.27,104.27,0,0,1,5.6,9.3c1.6,2.92,3,5.6,4.51,8,2.93,4.8,7.22,9.94,11.34,15.83a90.35,90.35,0,0,1,6,9.59c.92,1.76,1.76,3.55,2.58,5.5a23.35,23.35,0,0,1,1.74,7.86,19.7,19.7,0,0,1-.31,4.48,20.54,20.54,0,0,1-.58,2.31,16.21,16.21,0,0,1-4.11,6.77,17.67,17.67,0,0,1-3.94,2.9,24.41,24.41,0,0,1-7.2,2.52,50.14,50.14,0,0,1-6.09.85c-3.78.33-7.31.37-10.33.59-.73.05-1.45.1-2,.19-.29,0-.56.08-.76.12l-.93.19c-1.54.31-3.07.59-4.64.93-3.12.62-6.33,1.33-9.59,1.92l-2.47.37c-.41.07-.87-.14-1.27,0s-.8.34-1.19.53c-1.58.82-3.11,2-4.78,2.47A149.06,149.06,0,0,1,477.34,381a89.25,89.25,0,0,1-11.7.07c-1,0-2.05-.2-3.07-.3s-2.06-.21-3.1-.38l-3.17-.61-1.58-.32c-.53-.13-1.07-.3-1.61-.45l-3.2-.95c-.51-.13-1.15-.4-1.73-.62s-1.21-.46-1.73-.71a60.47,60.47,0,0,1-6.09-3.14,112,112,0,0,1-9.62-6.45c-2.82-2.11-5.37-4.08-7.79-5.8a67.87,67.87,0,0,0-6.49-4.3,18,18,0,0,0-4.32-1.79,2.77,2.77,0,0,0-.92-.08c-.11,0-.2,0-.29,0l-.33.09c-.13.08-.27,0-.48.13a1.38,1.38,0,0,1-.29.08l-.37.18-.19.07-.09,0h0l0,0s0,0,0,0-.2.12-.5.51a11.13,11.13,0,0,1-1.5,1.88c-1.58,1.61-4.93,3.85-8.31,6.63a64.82,64.82,0,0,0-4.92,4.55,52.29,52.29,0,0,1-5.23,5,24.14,24.14,0,0,1-6.63,3.72,26.1,26.1,0,0,1-6.85,1.55c-1.12.13-2.12.15-3.24.2-.67,0-1.35-.05-2-.1s-1.35-.19-2-.3a19.57,19.57,0,0,1-7.07-3,35.56,35.56,0,0,1-4.75-3.91c-1.31-1.24-2.46-2.4-3.49-3.33a20.21,20.21,0,0,0-2.77-2.17l-.58-.31c-.19-.12-.32-.13-.48-.22l-.55-.18c-.22,0-.41-.1-.64-.13a15.25,15.25,0,0,0-6.57.54,19.6,19.6,0,0,0-6.3,3,8.66,8.66,0,0,0-3.22,3.85,4,4,0,0,0-.22,1.41c0,.13,0,.23,0,.38a4,4,0,0,1,.07.48.37.37,0,0,1,.05.22s0,0,0,0-.09-.16-.17-.26-.19-.2-.24-.27c-.21-.15-.17-.1.07.05.6.36,2.23,1,4.44,2.27.56.35,1.09.67,1.68,1.12.28.21.57.42.84.65l.83.76a15.54,15.54,0,0,1,3,4,16.34,16.34,0,0,1,1,2.56,12.59,12.59,0,0,1,.48,2.75,13.35,13.35,0,0,1-.65,5,17.43,17.43,0,0,1-4.3,6.68,26.09,26.09,0,0,1-2.65,2.23c-.47.33-.92.67-1.41,1l-.72.45-.66.37a34.62,34.62,0,0,1-5.63,2.6,20.8,20.8,0,0,1-6.55,1.24,20.11,20.11,0,0,1-6.68-1,25.72,25.72,0,0,1-5.71-2.71,40.35,40.35,0,0,1-4.66-3.48c-1.44-1.2-2.76-2.45-4-3.71-2.51-2.51-4.76-5.07-6.94-7.46a41.58,41.58,0,0,0-6.53-5.7,52.66,52.66,0,0,0-15.69-7.43,79.22,79.22,0,0,0-17.71-2.88,133.84,133.84,0,0,0-18.45.16c-3.11.18-6.22.46-9.34.82-1.56.19-3.12.38-4.68.61l-4.79.65c-3.37.46-6.82.89-10.42,1.1a76.89,76.89,0,0,1-11.15,0,47.9,47.9,0,0,1-11.93-2.36A33.1,33.1,0,0,1,170.46,369a21.42,21.42,0,0,1-2.45-2.5c-.38-.44-.74-.89-1.1-1.35l-.54-.68c-.19-.25-.41-.62-.6-.92a20.74,20.74,0,0,1-2-3.95c-.21-.65-.41-1.3-.59-2s-.27-1.26-.39-1.89a30,30,0,0,1-.31-6.75c.12-2,.35-3.91.61-5.62.53-3.42,1-6.5,1.11-8.57a16.34,16.34,0,0,0-.19-3.08l-.14-.66c0-.11.05-.11.09-.11s0-.09-.14-.22a4.78,4.78,0,0,0-1.1-.42,40,40,0,0,0-4.27-.76,50.66,50.66,0,0,1-5.65-1.15,26.61,26.61,0,0,1-6.05-2.52,37.9,37.9,0,0,1-9-7.47,33.67,33.67,0,0,1-6.08-9.91,45.75,45.75,0,0,1-2.47-10.67c-.45-3.37-.74-6.56-1.39-9.49a24.47,24.47,0,0,0-1.23-4.18,20.52,20.52,0,0,0-.88-1.9,19.65,19.65,0,0,0-1.1-1.73,14.47,14.47,0,0,0-6.76-4.84,40.38,40.38,0,0,0-9.13-2.11,47.68,47.68,0,0,0-9.56-.18c-6.38.55-12.67,2.77-19.19,4.13a39.62,39.62,0,0,1-19.74-.41,15.41,15.41,0,0,1-8.19-5.35,11.69,11.69,0,0,1-1.79-9.46Zm.09,0a11.5,11.5,0,0,0,2.25,9.13c2,2.47,5,3.8,8.06,4.58.75.23,1.55.33,2.32.49s1.58.21,2.37.29a34.54,34.54,0,0,0,4.77.19,43.93,43.93,0,0,0,9.49-1.33c6.29-1.51,12.56-4,19.31-4.83a51,51,0,0,1,10.11-.29,43.91,43.91,0,0,1,10,1.81,18.72,18.72,0,0,1,8.73,5.55c.57.68,1,1.4,1.54,2.12a22.65,22.65,0,0,1,1.23,2.27,26.58,26.58,0,0,1,1.75,4.8c1.79,6.5,2,13.2,4.57,19.12a29.78,29.78,0,0,0,13.07,13.85,19,19,0,0,0,4.5,1.68,42.62,42.62,0,0,0,4.83.76c1.63.17,3.29.31,4.94.64a10.12,10.12,0,0,1,4.65,2,8.78,8.78,0,0,1,2.65,4.3,20.79,20.79,0,0,1,.74,4.94,70.78,70.78,0,0,1-.78,9.89,34,34,0,0,0-.06,9.81,11.49,11.49,0,0,0,1.77,4.53,5.86,5.86,0,0,0,.74,1l.8.94a13.54,13.54,0,0,0,1.74,1.73,23.93,23.93,0,0,0,8.55,4.76,38.55,38.55,0,0,0,9.71,1.75,101.78,101.78,0,0,0,19.72-1.19c13.05-1.85,26.32-2.73,39.46-1.31a86.76,86.76,0,0,1,19.3,4.22,59.25,59.25,0,0,1,17.3,9.41,52.47,52.47,0,0,1,7.11,6.87c2.14,2.51,4.24,5.05,6.5,7.46a41.36,41.36,0,0,0,7.45,6.47,16.65,16.65,0,0,0,9.29,3,17.56,17.56,0,0,0,9.28-3,13.1,13.1,0,0,0,6-7.55,6.29,6.29,0,0,0-.73-4.76,9.62,9.62,0,0,0-3.7-3.2c-1.46-.77-3-1.28-4.51-2a7.52,7.52,0,0,1-3.49-3.38,12.1,12.1,0,0,1,.07-9.62,17.34,17.34,0,0,1,6.55-7.24,27.36,27.36,0,0,1,9.09-3.76,23.56,23.56,0,0,1,9.82-.21,14,14,0,0,1,4.56,1.86,26.68,26.68,0,0,1,3.86,3.09c2.4,2.25,4.56,4.79,7.28,6.69a12.45,12.45,0,0,0,4.48,2,8.58,8.58,0,0,0,1.22.19l1.24.05c.82-.06,1.65-.06,2.47-.2a15.26,15.26,0,0,0,8.83-4,25.27,25.27,0,0,0,5.25-8.31c1.31-3,2.4-6.15,3.81-9.14a24.25,24.25,0,0,1,5.63-8,16.14,16.14,0,0,1,4.11-2.72l1.11-.54,1.16-.44a19.5,19.5,0,0,1,2.36-.73,20,20,0,0,1,9.79.09,32.51,32.51,0,0,1,9,4c5.61,3.49,10.52,8,15.6,12.15a97.27,97.27,0,0,0,7.88,6,39.52,39.52,0,0,0,4.27,2.48c.74.36,1.49.71,2.26,1l2.34.82c6.27,2.11,12.95,2.65,19.52,2.59,13.23-.16,26.22-2.93,39.24-5a60.14,60.14,0,0,1,9.83-1c3.3,0,6.6.11,9.89-.07s6.65-.58,9.58-2.15a7.66,7.66,0,0,0,3.4-3.47,9.83,9.83,0,0,0,.83-4.82c-.19-3.34-1.86-6.33-3.5-9.16a67.88,67.88,0,0,0-5.73-8.05c-4.17-5.12-8.79-9.85-12.82-15.08s-7.29-11-11.36-16.2a78.24,78.24,0,0,0-6.56-7.41,88.41,88.41,0,0,0-7.44-6.51,97.15,97.15,0,0,0-35.49-16.91,102.2,102.2,0,0,0-19.51-3.1c-6.58-.38-13.22.18-19.77-.81a32.88,32.88,0,0,1-9.45-2.8,31.69,31.69,0,0,1-8.15-5.55c-4.84-4.54-8.32-10.24-11.78-15.83-1.74-2.81-3.52-5.59-5.44-8.27a76.48,76.48,0,0,0-6.11-7.77,29.47,29.47,0,0,0-7.72-6.11,30.49,30.49,0,0,0-9.34-3.1c-13.12-2.13-26.36,1.68-39.5-.34a33.47,33.47,0,0,1-9.44-2.86,92,92,0,0,1-8.5-5.07,34.66,34.66,0,0,0-8.89-4.26,37.82,37.82,0,0,0-9.76-1.37c-3.3-.08-6.59.11-9.89.29s-6.59.34-9.89.43q-9.89.32-19.79.11a377.82,377.82,0,0,1-39.47-2.91q-9.81-1.23-19.56-3c-6.49-1.17-13-2.43-19.56-3a69.18,69.18,0,0,0-9.87-.17,41,41,0,0,0-9.7,1.78,27.23,27.23,0,0,0-8.69,4.57,44,44,0,0,1-4,2.93,17.71,17.71,0,0,1-4.56,1.91,30.47,30.47,0,0,1-9.85.58c-3.3-.23-6.58-.6-9.88-.66-6.6-.09-13.14,1.14-19.55,2.64a160.36,160.36,0,0,0-19,5.39c-6.13,2.34-12.15,5.44-16.72,10.23a25.12,25.12,0,0,0-5.28,8.27,38.84,38.84,0,0,0-1.81,9.69,28.66,28.66,0,0,1-2.22,9.61c-.68,1.5-1.51,2.93-2.28,4.39a17.8,17.8,0,0,0-1.74,4.6Z"/></svg>