<svg id="Layer_1" data-name="Layer 1" xmlns="http://www.w3.org/2000/svg" viewBox="0 0 600 600"><title>Japan</title><path d="M377.82,162.5a19,19,0,0,0-1.82-3.7,20.72,20.72,0,0,1-2.05-3.65,21.31,21.31,0,0,1-1.47-4.09,11.89,11.89,0,0,1-.26-4.67,9.82,9.82,0,0,1,2-4.7,10.24,10.24,0,0,1,1.92-1.86,8.49,8.49,0,0,1,2.19-1.34,19.83,19.83,0,0,1,2.29-.7l1.12-.24.8-.19a3.21,3.21,0,0,0,1.88-1.1,2.14,2.14,0,0,0,.33-.87l0-.3a2.17,2.17,0,0,1,0-.26,5.52,5.52,0,0,0,0-.66,29.79,29.79,0,0,0-.83-3.62,18.32,18.32,0,0,1-.76-4.77,8.17,8.17,0,0,1,.61-3.06,7.07,7.07,0,0,1,2.08-2.65l.63-.48a5.25,5.25,0,0,1,.78-.43,6.46,6.46,0,0,1,1.63-.53,8.63,8.63,0,0,1,3,0,12,12,0,0,1,2.55.72,21.45,21.45,0,0,1,2.15,1c1.31.71,2.48,1.44,3.6,2.07a13.84,13.84,0,0,0,3.13,1.39,3.68,3.68,0,0,0,2.36,0,2.91,2.91,0,0,0,.88-.5,3.14,3.14,0,0,0,.64-.85,9.31,9.31,0,0,0,.84-3,31.6,31.6,0,0,0,.23-3.75l-.05-4.07a33.56,33.56,0,0,1,.18-4.5c.05-.41.12-.83.21-1.27l.15-.65.14-.53c.19-.72.39-1.42.61-2.1.42-1.39.88-2.72,1.33-4s.92-2.58,1.33-3.83.74-2.51,1-3.72a19.17,19.17,0,0,0,.51-3.58c.05-.59,0-1.15,0-1.71a12.15,12.15,0,0,0-.21-1.62,10.83,10.83,0,0,0-.38-1.54,9.27,9.27,0,0,0-.52-1.45A21.44,21.44,0,0,0,411,78.2c-1.26-2-2.89-4.11-4.53-6.77a26.71,26.71,0,0,1-3.79-9.88,19.11,19.11,0,0,1-.23-3.16c0-.55,0-1.09.12-1.65l.11-.83.19-.93a15.59,15.59,0,0,1,3.24-6.49,16.22,16.22,0,0,1,6-4.56,14.84,14.84,0,0,1,4.14-1.1,13.08,13.08,0,0,1,2.26-.07,20.46,20.46,0,0,1,2.24.29,16.48,16.48,0,0,1,3.72,1.31,24.86,24.86,0,0,1,2.7,1.48,22.89,22.89,0,0,0,2,1.17c.67.34,1.36.66,2.07,1,2.84,1.17,6,2.09,8.4,4A30.17,30.17,0,0,1,443,55c1,1.11,2,2.24,3,3.44a44,44,0,0,1,2.69,3.65l1.35,2c.43.71.86,1.43,1.23,2.12,1.54,2.8,2.64,5.43,3.79,7.73.54,1.18,1.15,2.23,1.73,3.23a19.53,19.53,0,0,0,1.86,2.69c.33.4.67.75,1,1.12a8,8,0,0,0,2.73,1.68,19.37,19.37,0,0,0,6,1c1.17,0,2.42,0,3.73,0l2,0c.62,0,1.23,0,1.83-.08a33.33,33.33,0,0,0,6.39-.92,13.68,13.68,0,0,0,4.3-1.81,7.4,7.4,0,0,0,.79-.55l.41-.33.8-.74c.55-.51,1.13-1,1.81-1.62.35-.29.73-.58,1.19-.91a13.65,13.65,0,0,1,1.77-1.12c.2-.11.37-.21.65-.34s.47-.22.84-.37a10.25,10.25,0,0,1,1.13-.39l.68-.17c.3-.06.61-.11.92-.15a7.28,7.28,0,0,1,1-.07c.4,0,.79,0,1.2,0a9.77,9.77,0,0,1,2.79.76A9.17,9.17,0,0,1,505,76.42a9,9,0,0,1,1.41,1.64c.17.24.32.5.47.76s.2.4.29.61a7.49,7.49,0,0,1,.4,1.07,7.28,7.28,0,0,1,.22.86,6.06,6.06,0,0,1,.12.7,10.34,10.34,0,0,1,0,2.06,15.14,15.14,0,0,1-.19,1.51,11.34,11.34,0,0,1-.3,1.24,9.48,9.48,0,0,0-.57,1.29,6.76,6.76,0,0,0,.61,5.87,9.81,9.81,0,0,0,2.15,2.46l.33.27.16.11.09,0,.16,0a1.4,1.4,0,0,0,.29.09l1.49.49c1.18.34,2.54.71,4,1.2a19.71,19.71,0,0,1,2.34.94,14.24,14.24,0,0,1,4.12,2.76c.26.26.55.59.82.89a6.9,6.9,0,0,1,.81,1.07c.29.44.55.89.8,1.36a13.8,13.8,0,0,1,.7,1.8c.1.31.19.65.27.94l.11.67c.07.45.14.9.18,1.36a14.56,14.56,0,0,1-.74,5.53,17.29,17.29,0,0,1-2.22,4.25,22.68,22.68,0,0,1-4.95,4.9c-.78.57-1.55,1.09-2.25,1.54s-1.23.79-1.87,1.17a69.47,69.47,0,0,1-8.12,4.28c-6.17,2.61-11.84,3.74-16.7,5-1.2.32-2.38.64-3.47,1s-2.15.73-3.24,1-2.2.41-3.29.67a10,10,0,0,0-3.09,1.12,7.58,7.58,0,0,0-2.38,2.2A12.18,12.18,0,0,0,472.4,146a15.32,15.32,0,0,0-.85,3.17,21.93,21.93,0,0,0-.22,3.21v.39c0,.12,0,.32,0,.3s0,0,.06.15,0,.16,0,.27a16.53,16.53,0,0,1,.15,1.7,29,29,0,0,1-.15,4.55,14.8,14.8,0,0,1-4,9,12.69,12.69,0,0,1-4.27,2.93,10.85,10.85,0,0,1-5,.76,15,15,0,0,1-3.77-.85,12,12,0,0,1-3.57-1.91,15.42,15.42,0,0,1-2.11-2c-.54-.63-.93-1.08-1.34-1.53s-.84-.89-1.26-1.33a30.41,30.41,0,0,0-2.79-2.4,39.25,39.25,0,0,0-13.22-6.35c-.6-.14-1.19-.3-1.79-.41l-.9-.19-.66-.09a7,7,0,0,0-2.48.17,32.49,32.49,0,0,0-6.24,2.87l-1.95,1c-.74.35-1.51.7-2.37,1a17.93,17.93,0,0,1-2.79.81,14.83,14.83,0,0,1-3.24.26,14.33,14.33,0,0,1-6.37-1.71,24.66,24.66,0,0,1-4.22-2.95,34.16,34.16,0,0,0-2.7-2.13A8,8,0,0,0,393,154a1,1,0,0,0-.28-.16,1,1,0,0,0-.39.17c-.13.09-.23.47-.05,1.09a5.24,5.24,0,0,0,1.15,1.92c1.25,1.38,3.48,2.63,6,4.24,1,.7,2.3,1.46,3.52,2.31a25.53,25.53,0,0,1,3.69,3,13.7,13.7,0,0,1,1.72,2.11,10.93,10.93,0,0,1,.72,1.36,7.06,7.06,0,0,1,.48,1.6c.05.29.1.58.13.87s0,.59,0,.88a6.18,6.18,0,0,1-.33,1.68,8,8,0,0,1-1.46,2.62,13.64,13.64,0,0,1-3.93,3.08c-1.17.63-2.38,1.33-3.65,2a26.12,26.12,0,0,1-4.07,1.75,12.07,12.07,0,0,1-4.62.64,9.49,9.49,0,0,1-4.44-1.48,8.58,8.58,0,0,1-3-3.45c-1.31-2.61-1.66-5.37-2.6-7.92l0-.07,0,.07a3.36,3.36,0,0,1-.53-1.28c-.12-.39-.31-.81-.46-1.21l-.95-2.44-1-2.44c-.3-.81-.65-1.61-.94-2.43Zm0,0,2.54,4.61,1.27,2.3.32.58.16.29.17.37c.1.22.18.41.26.55s.2.28.1.12l.26.39,0,.07a28.26,28.26,0,0,1,1.49,3.88,19,19,0,0,0,1.5,3.56,6.59,6.59,0,0,0,2.34,2.53,7.18,7.18,0,0,0,3.38,1c2.41.07,4.86-1.08,7.15-2.43,1.16-.68,2.3-1.42,3.48-2.15a10.5,10.5,0,0,0,2.91-2.43,4,4,0,0,0,.91-3.23,6.13,6.13,0,0,0-2-3.05,36.83,36.83,0,0,0-6.74-4.42c-2.32-1.37-4.89-2.53-7-4.41a10.29,10.29,0,0,1-2.51-3.37,6.83,6.83,0,0,1-.57-4.13,5.83,5.83,0,0,1,2.21-3.48,5.14,5.14,0,0,1,1.87-.9,5.58,5.58,0,0,1,2.07-.21,8.85,8.85,0,0,1,3.84,1.44,37.57,37.57,0,0,1,3.3,2.45,21.1,21.1,0,0,0,3.36,2.35,9,9,0,0,0,3.92,1.09c2.78.12,5.36-1.11,7.8-2.27a32,32,0,0,1,7.65-3,12.15,12.15,0,0,1,4.08-.1,36.22,36.22,0,0,1,4,.92,47,47,0,0,1,14.68,7.19,48.89,48.89,0,0,1,6.18,5.4,7.83,7.83,0,0,0,3.41,2.2,5.36,5.36,0,0,0,4-.4,6,6,0,0,0,2.39-3.23,18.79,18.79,0,0,0,.92-4c.19-1.36.29-2.73.41-4.09a20.44,20.44,0,0,1,.62-4.05,29.06,29.06,0,0,1,8.33-13.91,29.76,29.76,0,0,1,6.76-4.62,55,55,0,0,1,7.6-3.09c5.19-1.75,10.53-3.07,15.52-5.35,2.49-1.14,4.9-2.47,7.26-3.85s4.79-2.77,6.48-5a7.44,7.44,0,0,0,1-1.79,5.5,5.5,0,0,0,.32-2,5,5,0,0,0-1.89-3.51,60.38,60.38,0,0,0-6.71-4.72,17.87,17.87,0,0,1-5.5-6A19.6,19.6,0,0,1,500.44,89c-.2-1.35-.09-2.73-.22-4.1a4.44,4.44,0,0,0-.52-2,.87.87,0,0,0-.89-.38,2.88,2.88,0,0,0-.94.39c-2.3,1.51-3.95,3.81-6.25,5.32a20.67,20.67,0,0,1-7.58,3,39.88,39.88,0,0,1-8.17.66c-2.74,0-5.48-.13-8.21-.35a30.51,30.51,0,0,1-8-1.64,16.84,16.84,0,0,1-6.71-4.61,50.11,50.11,0,0,1-5-6.47,94.54,94.54,0,0,0-21.82-24.34c-1.07-.85-2.15-1.71-3.26-2.51a10.39,10.39,0,0,0-3.64-1.82,6.44,6.44,0,0,0-4,.45A8.9,8.9,0,0,0,412,53.15a9.66,9.66,0,0,0-1.81,3.64,12.17,12.17,0,0,0-.26,4.08,23.89,23.89,0,0,0,2.41,7.8c1.18,2.47,2.55,4.85,3.65,7.36a26.55,26.55,0,0,1,1.37,3.87,13.83,13.83,0,0,1,.38,2,14.05,14.05,0,0,1,.18,2,25.55,25.55,0,0,1-1.18,8.1c-.77,2.63-1.8,5.17-2.79,7.73-.49,1.28-1,2.55-1.42,3.85q-.34,1-.63,2a10.55,10.55,0,0,0-.46,2,80.14,80.14,0,0,0-.28,8.2,35.16,35.16,0,0,1-.29,4.1,12,12,0,0,1-1.19,3.92,5.4,5.4,0,0,1-3.06,2.63,6.55,6.55,0,0,1-4.06.08c-2.66-.76-4.91-2.42-7.32-3.7a12.21,12.21,0,0,0-3.81-1.43,4.57,4.57,0,0,0-3.84.87,4.39,4.39,0,0,0-1.25,1.58,5.56,5.56,0,0,0-.37,2,16.22,16.22,0,0,0,.64,4,30.68,30.68,0,0,1,.89,4,5.79,5.79,0,0,1-.84,4,5.9,5.9,0,0,1-3.43,2.18,29.13,29.13,0,0,0-4,1,8.74,8.74,0,0,0-3.4,2.19,7.87,7.87,0,0,0-1.85,3.59c-.66,2.67,0,5.46.82,8s2,5.1,3,7.64Z"/><path d="M394,190.23a24.1,24.1,0,0,0-3.53,3.68,21.76,21.76,0,0,0-2.54,4.41c-.69,1.56-1.29,3.14-1.83,4.74s-1,3.2-1.44,4.84a131.11,131.11,0,0,0-3.19,20c-.26,3.36-.47,6.71-.53,10.07s0,6.7.13,10.05.43,6.64.81,10a82.4,82.4,0,0,1,.65,10.59,36.57,36.57,0,0,1-1.9,11,55.14,55.14,0,0,1-4.52,9.92c-1.76,3.11-3.69,6-5.59,8.9s-3.83,5.71-5.84,8.55a139.68,139.68,0,0,1-13.33,16.39,91.43,91.43,0,0,1-7.94,7.3,77.33,77.33,0,0,1-8.88,6.34A44.16,44.16,0,0,1,324,341.86a22.88,22.88,0,0,1-6.63.94h-.46l-.58-.05a8.74,8.74,0,0,1-1.19-.17,10.39,10.39,0,0,1-2.49-.86,9,9,0,0,1-4.32-4.46,8.63,8.63,0,0,1-.21-6.38,10.64,10.64,0,0,1,2.86-4.25,13.66,13.66,0,0,1,3.31-2.19c1-.52,1.84-.89,2.65-1.28a26.55,26.55,0,0,0,3.91-2.12,2.81,2.81,0,0,0,.79-.74c0-.14-.19,0-.3.34s-.1.46-.19.3-.26-.48-.57-.9-.21-.21-.26-.28-.08,0-.12,0a.53.53,0,0,1-.25,0,8.45,8.45,0,0,0-2.07.3,15.28,15.28,0,0,0-3.19,1.28,20.88,20.88,0,0,0-3.15,2.07,10.87,10.87,0,0,0-2.2,2.28.94.94,0,0,0-.16.35,2.74,2.74,0,0,1-.21.52c-.2.48-.39,1-.57,1.59a41.29,41.29,0,0,0-1,4,62,62,0,0,1-3,11.27A32.27,32.27,0,0,1,301,349.7c-.64,1-1.26,1.72-1.9,2.57s-1.25,1.56-1.82,2.23L294,358.36a26.13,26.13,0,0,0-2.18,3.05,3.17,3.17,0,0,0-.52,1.5c.08.06.25-.21.23-.26a10,10,0,0,1,.61,1.53,20.29,20.29,0,0,1,1.15,5,17.26,17.26,0,0,1-.91,7.23,17.72,17.72,0,0,1-3.41,5.84,20.18,20.18,0,0,1-4.36,3.79,22.68,22.68,0,0,1-4.65,2.32,23.42,23.42,0,0,1-5,1.22,21,21,0,0,1-2.66.18c-.45,0-.93,0-1.35,0l-1.11-.08a35.91,35.91,0,0,1-7.59-1.55c-2.14-.66-3.87-1.31-5.33-1.79-.7-.23-1.36-.44-1.91-.58s-1-.24-1.53-.33a31.47,31.47,0,0,0-3.38-.35c-2.47-.18-5.35,0-8.63,0l-2.46.08h-2.46c-1.63,0-3.26,0-4.89-.07a168.24,168.24,0,0,0-19,.73c-12.37,1.25-24.13,4.38-33.59,10.91-1.13.87-2.33,1.7-3.43,2.59s-2.13,1.86-3.17,2.91a73.87,73.87,0,0,0-6.1,7c-2,2.56-4,5.28-6.06,8.08s-4.43,5.74-6.9,8.49-5.16,5.4-8,8.08a53.36,53.36,0,0,1-9.56,7.6c-.9.58-1.91,1.09-2.89,1.61s-2.1.93-3.1,1.37c-1.41.63-2.79,1.26-4,1.95a15.6,15.6,0,0,0-5.24,4.15,1.71,1.71,0,0,0-.36,1.22c.12.13.08.15.21.25a.43.43,0,0,1,.09.1.77.77,0,0,1,.13.17,2.89,2.89,0,0,0,.16.25,1.59,1.59,0,0,1,.15.29c.2.29.31.56.48.84.36.53.83,1.15,1.5,2,1.32,1.66,3.5,3.95,6,7.6a36.62,36.62,0,0,1,3.53,6.48c.45,1.16.93,2.35,1.28,3.48l.53,1.72.4,1.7a58.21,58.21,0,0,1,1.06,6.39c.21,2,.34,3.94.43,5.72.2,3.59.33,6.68.54,9.35.07.61.14,1.38.21,1.78a12.72,12.72,0,0,0,.24,1.44,20.75,20.75,0,0,0,.77,2.86,15.75,15.75,0,0,0,1.09,2.46,12.27,12.27,0,0,0,1.06,1.75,6,6,0,0,1,.62.87,1.12,1.12,0,0,0,1.21.78,4,4,0,0,0,1.76-.56,19.08,19.08,0,0,0,5.13-4.57,43.15,43.15,0,0,0,2.61-3.45l.64-.93.68-1,1.34-2.1c.9-1.39,1.74-2.82,2.69-4.21.46-.69,1-1.35,1.51-2s1.09-1.32,1.66-2c1.14-1.31,2.29-2.61,3.32-4A24.72,24.72,0,0,0,166,480.9a13,13,0,0,0,.9-5.06,16.43,16.43,0,0,1,.33-2.56c.19-.81.46-1.58.68-2.36a45.88,45.88,0,0,0,1.86-8.65,21.6,21.6,0,0,0,.07-3.75l-.09-.85c0-.26-.07-.51-.13-.77a13.77,13.77,0,0,0-.4-1.53,10.24,10.24,0,0,0-2.51-4.47,1.07,1.07,0,0,1-.16-.14s0,0,0,0l.06.06a.4.4,0,0,0,.16.08v0s.05,0,0,0a1,1,0,0,1-.16-.06,3.47,3.47,0,0,0-.52-.17c-.91-.27-2.48-.6-4.61-1.15-.5-.12-1.17-.34-1.74-.51s-1.37-.5-2-.77c-.37-.17-.77-.4-1.15-.61a7,7,0,0,1-1.14-.73,13.65,13.65,0,0,1-1.16-1l-.55-.53c-.18-.21-.36-.42-.53-.64-.34-.45-.66-.9-.95-1.36a11.18,11.18,0,0,1-.71-1.48c-.19-.51-.38-1-.51-1.52s-.15-1-.21-1.45a11.33,11.33,0,0,1-.08-1.39c0-.41.06-.82.11-1.22a14.64,14.64,0,0,1,.4-2.28l.26-1.06c.1-.37.21-.74.33-1.1a20.19,20.19,0,0,1,.75-2.14c.26-.71.63-1.38,1-2.07a15.75,15.75,0,0,1,1.23-1.86,17.82,17.82,0,0,1,6.11-4.74,31.75,31.75,0,0,1,6.15-2.18c1-.26,2-.45,3.09-.64s2-.29,2.94-.4a47.19,47.19,0,0,0,4.8-.73,11,11,0,0,0,1.7-.5,4.79,4.79,0,0,0,.56-.29c.16-.09.13-.18.2-.24a11.22,11.22,0,0,1,1.16-1.78,33.59,33.59,0,0,1,3.69-4.46,22.1,22.1,0,0,1,3.45-2.78,21.53,21.53,0,0,1,2.19-1.21,18.85,18.85,0,0,1,2.56-1,22.48,22.48,0,0,1,2.41-.57c.71-.12,1.5-.25,2.14-.3,1.4-.15,2.55-.17,3.68-.2,2.17-.05,4,.06,5.25,0a8.43,8.43,0,0,0,1.4-.14c.1,0,.09,0,.13-.05s0,0,.27-.07l1.07-.2c1.42-.26,2.81-.55,4.16-.88s2.68-.69,4-1.06a20.37,20.37,0,0,1,4-.68c1.39-.11,2.79,0,4.46-.16a36.8,36.8,0,0,0,5.15-.68,33.39,33.39,0,0,0,5.26-1.62,9.18,9.18,0,0,0,2.41-1.74,26.92,26.92,0,0,1,2.52-2.19,8.83,8.83,0,0,1,3.09-1.34c1.11-.28,2.29-.51,3.47-.69a30.13,30.13,0,0,1,3.7-.22h.93l1.17.11a14.2,14.2,0,0,1,2.27.35,23,23,0,0,1,7.5,3.15,27.73,27.73,0,0,1,6,5.12,20.24,20.24,0,0,1,4.26,7.77,16,16,0,0,1,.49,2.46,13.79,13.79,0,0,1,.1,2.58c0,.43,0,.86-.08,1.29s-.15.85-.24,1.27-.18.83-.29,1.25a11.38,11.38,0,0,1-.41,1.16l-.48,1.12-.24.56c-.09.17-.16.29-.25.44-.32.58-.65,1.11-1,1.59-.65,1-1.28,1.79-1.84,2.5a26.5,26.5,0,0,0-2.25,3.06,3.59,3.59,0,0,0-.51,1.81,4.94,4.94,0,0,0,.58,2.23,5.82,5.82,0,0,0,1.67,1.92,4.1,4.1,0,0,0,.5.35l.55.27q.63.27,1.29.48a9.47,9.47,0,0,0,2.92.36,15.29,15.29,0,0,0,6.43-1.67c.26-.14.52-.25.76-.4l.81-.45c.67-.37,1.33-.74,2-1.13,1.31-.77,2.58-1.59,3.81-2.4s2.38-1.67,3.48-2.51a34.15,34.15,0,0,0,3-2.53,15.45,15.45,0,0,0,3.35-4.12c.15-.41.17-.5.16-.46s.21.11.65-.41a2.25,2.25,0,0,0,.33-.51,7.68,7.68,0,0,0,.25-.8,9.3,9.3,0,0,0,.23-2.1,13.24,13.24,0,0,0-1.12-5.11c-.19-.45-.37-.89-.6-1.35s-.46-.94-.71-1.42c-.5-.94-1-1.93-1.66-2.95s-1.26-2.17-1.88-3.48a16.38,16.38,0,0,1-1.36-4.53,14.36,14.36,0,0,1,2.41-10.17,20.91,20.91,0,0,1,3.3-3.82,21.82,21.82,0,0,1,13.34-5.56,22.32,22.32,0,0,1,5.07.32,19.6,19.6,0,0,1,2.56.65,20.9,20.9,0,0,1,2.35.92,24.63,24.63,0,0,1,7.27,5.12,41.24,41.24,0,0,1,4.27,5.08c1.12,1.5,2,2.83,2.72,3.83l.53.7.48.59c.15.15.28.31.42.47a2.79,2.79,0,0,1,.32.28c.16.24.47.37.66.65a10.31,10.31,0,0,1,.77.81,12.62,12.62,0,0,0,1,1c.19.16.37.36.57.52l.66.45a7,7,0,0,0,1.47.75,6,6,0,0,0,.81.21,2.89,2.89,0,0,0,.82.11H345a5.49,5.49,0,0,0,.81-.14c.26-.08.53-.12.79-.21l.75-.28a10.41,10.41,0,0,0,4.7-3.48s.67-.91,1.16-1.5a12.79,12.79,0,0,1,2.06-2,8.68,8.68,0,0,1,1.45-1,8.82,8.82,0,0,1,1.67-.78,15.4,15.4,0,0,1,1.88-.52,13,13,0,0,1,7.08.81c.69.24,1.11.44,1.64.66l1.21.54c1.35.67,2.11.6,1.21.5a1,1,0,0,0-.27,0s0,0,0,0,0,0,0,0,.06-.08.09-.14,0-.12,0-.14,0,0,0,0,0,0,0-.07l.17-1.88a19.66,19.66,0,0,1,.84-4.22,12.48,12.48,0,0,1,5.2-6.9,12.41,12.41,0,0,1,2-1,11.33,11.33,0,0,1,2-.57l1-.15.88-.05a16.36,16.36,0,0,1,5.18.69c1.29.37,2.32.76,3.24,1.11,1.81.71,3.28,1.33,4.14,1.54.41.11.64.09.31,0a1.79,1.79,0,0,0-.37,0,2.79,2.79,0,0,0-.61.06,3.89,3.89,0,0,0-.83.21l-.45.18c-.2.11-.18.1-.16.07a12.74,12.74,0,0,0,1.27-1.41,25.82,25.82,0,0,0,2-3.13c.69-1.24,1.38-2.63,2.16-4.14l1.27-2.43.3-.65.14-.29c0-.09.05-.16.08-.24a1.83,1.83,0,0,0,.18-1.14,5.42,5.42,0,0,0-.47-1.55c-.79-1.83-2.85-5.14-4.53-9.3l-.3-.78-.15-.4-.17-.51c-.21-.68-.41-1.38-.6-2.07a24.91,24.91,0,0,1-.55-4.13,27.72,27.72,0,0,1,.69-7.56,42.37,42.37,0,0,1,2.08-6.39c.79-2,1.55-3.89,2.42-5.69a26.9,26.9,0,0,1,3-5,13.91,13.91,0,0,1,.87-1.12l.87-1c.51-.62,1.1-1.19,1.63-1.78a51.1,51.1,0,0,0,6.12-6.83,16.15,16.15,0,0,0,2.64-7.11,9.74,9.74,0,0,0-.21-3.07,3.83,3.83,0,0,0-.22-.73c-.1-.24-.14-.49-.26-.74-.22-.49-.6-1.15-1.06-2a23.41,23.41,0,0,1-1.51-3.05,13.36,13.36,0,0,1-.64-2.05l-.11-.56-.06-.46-.11-.9a13.37,13.37,0,0,1,.26-4.23,10,10,0,0,1,2.42-4.55,11,11,0,0,1,3.73-2.55,18,18,0,0,1,3.29-1c2-.42,3.75-.58,5.32-.82a18.65,18.65,0,0,0,3.91-.9,4.66,4.66,0,0,0,1.07-.58l.17-.14a1,1,0,0,1,.14-.15,4.34,4.34,0,0,0,.33-.5,4.41,4.41,0,0,0,.46-1.27,8.7,8.7,0,0,0,.1-1.76c0-1.36-.33-2.95-.59-4.76a25.22,25.22,0,0,1-.28-2.91c0-.56,0-1,0-1.4v-1.3c0-1.74.06-3.48.14-5.23a85.94,85.94,0,0,1,1-10.55c.6-3.56,1.48-6.78,1.86-10a16.17,16.17,0,0,0-1-8.92c-1.24-2.75-3.5-5.18-5.86-7.63-1.18-1.23-2.39-2.48-3.53-3.83a27.58,27.58,0,0,1-3.05-4.37,29.13,29.13,0,0,1-3.41-9.94,13.08,13.08,0,0,1-.17-2.66c0-.89.16-1.75.28-2.6.26-1.7.57-3.37.69-5a7.09,7.09,0,0,0-4.72-7.9,13,13,0,0,0-5-.69,23.18,23.18,0,0,0-5,.82,24.9,24.9,0,0,0-9.1,4.47Zm-.06-.07a25,25,0,0,1,8.94-5.06A22.75,22.75,0,0,1,408,184a14,14,0,0,1,5.42.49,8.62,8.62,0,0,1,4.59,3.44,8.17,8.17,0,0,1,.72,1.3,7.64,7.64,0,0,1,.44,1.49,14.25,14.25,0,0,1,.16,2.81c-.08,3.6-1.16,6.91-.49,9.89a27.12,27.12,0,0,0,3.44,9.12,37,37,0,0,0,6.45,7.52c2.43,2.38,5,4.89,6.66,8.16a19.08,19.08,0,0,1,1.65,10.5c-.3,3.49-1.1,6.84-1.55,10.16a82.75,82.75,0,0,0-.65,10.1c0,1.7,0,3.39.05,5.09a28.4,28.4,0,0,0,.41,5c.29,1.65.67,3.34.83,5.1a14.23,14.23,0,0,1,0,2.69,9.4,9.4,0,0,1-.73,2.65,7.38,7.38,0,0,1-1.57,2.28,8.76,8.76,0,0,1-2.27,1.54,21,21,0,0,1-5,1.48c-1.69.33-3.37.57-5,1a8.48,8.48,0,0,0-4.26,2.12,5.46,5.46,0,0,0-1.09,4.44,9.9,9.9,0,0,0,1.78,4.55c.44.72.92,1.44,1.33,2.21a12.82,12.82,0,0,1,.55,1.19,7.54,7.54,0,0,1,.48,1.22,16,16,0,0,1,.77,5.15,26,26,0,0,1-2.63,9.94,61.16,61.16,0,0,1-5.15,8.87c-1.93,2.83-4,5.55-5.64,8.52a32.81,32.81,0,0,0-3.85,9.4,17.5,17.5,0,0,0-.42,5.05,16.67,16.67,0,0,0,.38,2.52,19,19,0,0,0,.85,2.4c1.3,3.15,3.26,6,4.66,9.1a13.77,13.77,0,0,1,1.27,4.92,11.55,11.55,0,0,1-.9,5,48.72,48.72,0,0,1-2.31,4.56c-.8,1.51-1.61,3-2.48,4.48-1.75,2.89-3.77,5.8-6.74,7.55a4.06,4.06,0,0,1-2.46.53,9.63,9.63,0,0,1-2.49-.54c-1.62-.53-3.16-1.28-4.73-1.94a13.05,13.05,0,0,0-4.91-1.32,3.44,3.44,0,0,0-2.34.89,5.44,5.44,0,0,0-1.31,2.16,38.86,38.86,0,0,0-.86,5,8.11,8.11,0,0,1-2.49,4.38,7.73,7.73,0,0,1-4.57,2.07,10.32,10.32,0,0,1-4.9-1.28c-.77-.36-1.54-.73-2.34-1a6.85,6.85,0,0,0-2.49-.52,3.85,3.85,0,0,0-2.36.85,10.55,10.55,0,0,0-1.69,1.9,17.84,17.84,0,0,1-8,6.14,20.86,20.86,0,0,1-10,1.38,18,18,0,0,1-9.38-3.7c-2.72-2.1-4.63-5-6.68-7.71s-4.25-5.46-7.37-6.94a11.18,11.18,0,0,0-9.88.17,9.79,9.79,0,0,0-5.58,8,12,12,0,0,0,.94,5,26.75,26.75,0,0,0,2.39,4.52c1.81,2.87,3.9,5.64,5,8.92a12.31,12.31,0,0,1,.55,5,13,13,0,0,1-1.56,4.84,24.67,24.67,0,0,1-6.86,7.49A53.91,53.91,0,0,1,293,438.6q-2.29,1.14-4.65,2.13a46.1,46.1,0,0,1-4.8,1.78,24.39,24.39,0,0,1-10.12.82,16.39,16.39,0,0,1-9.14-4.24A13.53,13.53,0,0,1,260,430a10.93,10.93,0,0,1,.94-5,27.3,27.3,0,0,1,2.64-4.37,17.71,17.71,0,0,0,2.45-4.47,8.12,8.12,0,0,0,0-5,11.06,11.06,0,0,0-2.67-4.31,17.19,17.19,0,0,0-4.05-3.09,15.76,15.76,0,0,0-4.8-1.72,17,17,0,0,0-5.09,0,35.08,35.08,0,0,0-9.73,3.05c-3.11,1.4-6.11,3-9.19,4.5a59.07,59.07,0,0,1-19.63,5.43c-3.4.55-6.8-.17-10.19-.43a16.7,16.7,0,0,0-5.09.24,10.9,10.9,0,0,0-4.49,2.35c-1.32,1.09-2.46,2.36-3.7,3.53a13.61,13.61,0,0,1-4.2,2.88,16.69,16.69,0,0,1-5,.93c-1.7.1-3.41.08-5.11.11a26.66,26.66,0,0,0-10,1.83A11.24,11.24,0,0,0,159,429.4a7.25,7.25,0,0,0-1.67,4.72,6.39,6.39,0,0,0,1.7,4.67,9.48,9.48,0,0,0,4.56,2.16c1.65.41,3.34.69,5,1.16a9.77,9.77,0,0,1,4.42,2.45,18.16,18.16,0,0,1,4.64,9,25.56,25.56,0,0,1,0,10.16,56.83,56.83,0,0,1-2.87,9.81q-1.83,4.78-3.83,9.49-4,9.42-8.62,18.56a91.6,91.6,0,0,1-5,8.93,32.37,32.37,0,0,1-6.71,7.67,17.5,17.5,0,0,1-4.39,2.59,15,15,0,0,1-5,1,14.45,14.45,0,0,1-5-1,16.86,16.86,0,0,1-4.34-2.67,24.59,24.59,0,0,1-6-8.22,33.69,33.69,0,0,1-2.81-9.8c-.95-6.75-.81-13.64-2.27-20.32a34.86,34.86,0,0,0-1.45-4.9,31.52,31.52,0,0,0-2.24-4.6c-1.72-2.94-3.76-5.69-5.33-8.72a19,19,0,0,1-2.45-9.82,12.57,12.57,0,0,1,1.3-4.91,15.27,15.27,0,0,1,3.19-4,28.78,28.78,0,0,1,8.91-4.92c3.18-1.23,6.59-1.81,9.62-3.44,6.11-3.1,11.08-8,15.39-13.26s7.89-11.12,11.8-16.71,8.23-11,13.64-15.16A66.4,66.4,0,0,1,191,379.42a101.42,101.42,0,0,1,19.77-5.15,176.06,176.06,0,0,1,20.36-2l5.11-.19,5.12-.09a81.06,81.06,0,0,1,10.22.34,35.51,35.51,0,0,1,9.89,2.51c3.17,1.24,6.33,2.66,9.73,3a11.2,11.2,0,0,0,5-.53,10,10,0,0,0,4.26-2.7A6.25,6.25,0,0,0,282.2,370c-.13-1.7-.9-3.27-1.28-4.93a11,11,0,0,1,.15-5.08,16.52,16.52,0,0,1,2.3-4.55,77.21,77.21,0,0,1,6.82-7.63,31.07,31.07,0,0,0,6.05-8.18,64.8,64.8,0,0,0,3.14-9.72,43.9,43.9,0,0,1,1.64-4.85,21.17,21.17,0,0,1,1.11-2.3,10.65,10.65,0,0,1,1.46-2.1,24.12,24.12,0,0,1,8.4-5.73,21.07,21.07,0,0,1,4.91-1.42,11,11,0,0,1,5.07.31,6.77,6.77,0,0,1,3.82,3.25,7,7,0,0,1,1.12,4.88,6.33,6.33,0,0,1-3.28,3.77,41.48,41.48,0,0,1-4.61,2.21,16.13,16.13,0,0,0-4.42,2.52,5.45,5.45,0,0,0-1.38,2.1,3.33,3.33,0,0,0,.1,2.48,3.69,3.69,0,0,0,1.76,1.75,6,6,0,0,0,2.46.54,17.62,17.62,0,0,0,5-.67,39.39,39.39,0,0,0,9.32-4.12A84.64,84.64,0,0,0,348.05,320a135.66,135.66,0,0,0,13.27-15.55c2-2.73,4-5.51,6-8.3s3.9-5.6,5.65-8.53a51.49,51.49,0,0,0,4.45-9.18,33.12,33.12,0,0,0,2-10,82.92,82.92,0,0,0-.39-10.21c-.29-3.4-.5-6.81-.57-10.22a136.84,136.84,0,0,1,1.12-20.43,128.68,128.68,0,0,1,4.2-20,49.35,49.35,0,0,1,3.92-9.44,33.79,33.79,0,0,1,6.24-8.08Z"/><path d="M151.26,528.39a3.21,3.21,0,0,0-1.64-.23,2.36,2.36,0,0,0-1.3.94,8.35,8.35,0,0,0-1.4,2.95,16.54,16.54,0,0,0,0,6.5l.24,1.68c.08.58.16,1.19.19,1.82a13.23,13.23,0,0,1-.05,2,10.45,10.45,0,0,1-.42,2,12.17,12.17,0,0,0-.37,1.42,1.39,1.39,0,0,0,0,.61c0,.11.06.17,0,0a1.57,1.57,0,0,0-.64-.82,1.52,1.52,0,0,0-.78-.27c-.08,0,0,0,.17,0a7.52,7.52,0,0,0,3.72-2.37,25.92,25.92,0,0,0,3.31-5.16,23.43,23.43,0,0,0,1.26-3c.17-.51.32-1.06.49-1.62s.32-1.07.42-1.61a3.31,3.31,0,0,0-.51-3A7.67,7.67,0,0,0,151.26,528.39Zm0,0a10.08,10.08,0,0,1,2.92,1.65,4.3,4.3,0,0,1,1.19,3.24c0,.58,0,1.16,0,1.72s.05,1.11,0,1.71a28.27,28.27,0,0,1-.15,3.55,20.27,20.27,0,0,1-1.86,7.18,10.47,10.47,0,0,1-1.16,1.79,10.67,10.67,0,0,1-1.53,1.55,9.7,9.7,0,0,1-4.12,2.05,6.42,6.42,0,0,1-1.5.15,4.47,4.47,0,0,1-2.38-.7,4.14,4.14,0,0,1-1.63-2.14,5.23,5.23,0,0,1-.29-1.61,6.73,6.73,0,0,1,.45-2.7,11.4,11.4,0,0,1,.86-1.7,17.19,17.19,0,0,0,1.84-5.7,26.54,26.54,0,0,1,2.21-6.67,12.27,12.27,0,0,1,2-2.8,2.69,2.69,0,0,1,1.45-.86A3.34,3.34,0,0,1,151.26,528.39Z"/><path d="M130.3,536.64a2.28,2.28,0,0,0-2,.69,2.69,2.69,0,0,0-.43,2,9.89,9.89,0,0,0,1.35,3.9,4.44,4.44,0,0,0,2.56,2,7.75,7.75,0,0,0,1.57.16,12.13,12.13,0,0,0,1.74,0,2.87,2.87,0,0,0,1.06-.3,1.74,1.74,0,0,0,.3-.2,2.58,2.58,0,0,0,.31-.5,4.4,4.4,0,0,0,.09-3.22,5.7,5.7,0,0,0-2.57-3A10.49,10.49,0,0,0,130.3,536.64Zm0,0a26.5,26.5,0,0,1,4.25,1,8.34,8.34,0,0,1,4.06,2.41,6.41,6.41,0,0,1,1.56,5.12,5,5,0,0,1-.48,1.51,4.29,4.29,0,0,1-1.14,1.42,5.71,5.71,0,0,1-3,1.2,10.43,10.43,0,0,1-2.6-.1,7.72,7.72,0,0,1-2.62-.88,6.39,6.39,0,0,1-3-4.41,15.64,15.64,0,0,1,0-4.63,3.51,3.51,0,0,1,.87-2.06A2.6,2.6,0,0,1,130.3,536.64Z"/><path d="M202.38,360.6a2.36,2.36,0,0,0,1.1.34,8.92,8.92,0,0,0,1.16.09A10.36,10.36,0,0,0,211,359a6.76,6.76,0,0,0,2.31-2.85,1.51,1.51,0,0,0,.07-1,.2.2,0,0,0-.09-.12.52.52,0,0,0-.17-.16,2.83,2.83,0,0,0-.94-.55,7.26,7.26,0,0,0-1.62-.35,12.44,12.44,0,0,0-2-.06c-.34,0-.68.05-1,.1l-.45.07a2.43,2.43,0,0,0-.45.13,10.53,10.53,0,0,0-3.76,2.4,4.57,4.57,0,0,0-1.2,1.91,3.44,3.44,0,0,0-.09.56,2.76,2.76,0,0,0,.06.57,4.89,4.89,0,0,0,.26.51Zm0,0a2.12,2.12,0,0,1-.81-2.11,7.2,7.2,0,0,1,.82-2.27,18.2,18.2,0,0,1,1.29-2.1,14.81,14.81,0,0,1,1.63-2,5.24,5.24,0,0,1,.54-.48l.32-.24.29-.19a10.68,10.68,0,0,1,1.19-.67,10.53,10.53,0,0,1,2.64-.89,8.53,8.53,0,0,1,3,0,6.64,6.64,0,0,1,3.19,1.55,5.14,5.14,0,0,1,1.71,3.81,5.62,5.62,0,0,1-1.26,3.44,8.39,8.39,0,0,1-5,2.82,17.8,17.8,0,0,1-5,.24c-.8-.07-1.59-.16-2.37-.28-.38-.06-.77-.14-1.15-.22A2.47,2.47,0,0,1,202.38,360.6Z"/><path d="M87.43,459.24a14.72,14.72,0,0,0-2.61,2.37,6.62,6.62,0,0,0-1.54,3,3.22,3.22,0,0,0,.61,2.88,3.33,3.33,0,0,0,2.59.75,29,29,0,0,0,3.3-.46,13.43,13.43,0,0,0,2.94-.85A8.4,8.4,0,0,0,95,465.5a13.94,13.94,0,0,0,1-1,8.44,8.44,0,0,0,.87-1.1,27.91,27.91,0,0,0,3-5.43,7.13,7.13,0,0,0,.6-2.48,1.4,1.4,0,0,0-.16-.74,1.71,1.71,0,0,0-.86-.6,5.42,5.42,0,0,0-1.47-.26,4.17,4.17,0,0,0-1.52.13,12.58,12.58,0,0,0-3.12,1.37c-1,.59-2,1.27-3,1.93Zm0,0c1-.68,1.94-1.33,2.85-2.08s1.77-1.55,2.67-2.34a18.2,18.2,0,0,1,3-2.22,7.28,7.28,0,0,1,1.89-.73,7.94,7.94,0,0,1,2.06-.22,4.62,4.62,0,0,1,2.37.73,4.33,4.33,0,0,1,1.66,2.2,8.72,8.72,0,0,1,.18,4.5,18.78,18.78,0,0,1-3.15,7.21,14.44,14.44,0,0,1-1.37,1.63A13.21,13.21,0,0,1,98,469.28a10.66,10.66,0,0,1-4,1.81,13.87,13.87,0,0,1-4,.21,24.55,24.55,0,0,1-3.77-.56,6.92,6.92,0,0,1-2-.78,4.24,4.24,0,0,1-1.54-1.58,4.6,4.6,0,0,1,0-3.92,8.72,8.72,0,0,1,2.07-3A22.76,22.76,0,0,1,87.43,459.24Z"/><path d="M113.59,399.6a3.57,3.57,0,0,0-2.91-2.09,2.34,2.34,0,0,0-1.66.57,11,11,0,0,0-1.27,1.36,15.2,15.2,0,0,0-3.59,6.22,55.15,55.15,0,0,0-1.13,7.2,28.25,28.25,0,0,0-.12,3.38,4.59,4.59,0,0,0,.2,1.24,2.89,2.89,0,0,0,.45,1,2,2,0,0,0,.55.61,1.47,1.47,0,0,0,.61.26,3.43,3.43,0,0,0,2.06-.5,10.06,10.06,0,0,0,2.38-2,13.24,13.24,0,0,0,1-1.32A14.58,14.58,0,0,0,111,414a34.48,34.48,0,0,0,2.77-7A11.41,11.41,0,0,0,113.59,399.6Zm0,0a15.7,15.7,0,0,1,.9,7.49,60.49,60.49,0,0,1-1.08,7.67,14.37,14.37,0,0,1-.49,2,12.26,12.26,0,0,1-.82,2,11.79,11.79,0,0,1-2.71,3.54,7.35,7.35,0,0,1-5,1.86,6,6,0,0,1-3-.89,6.82,6.82,0,0,1-2.09-2.05,8,8,0,0,1-1.06-2.48,8.55,8.55,0,0,1-.22-2.51,18.75,18.75,0,0,1,.7-4.14,35.2,35.2,0,0,1,3-7.32c1.39-2.55,3.5-4.18,5.44-5.8a17,17,0,0,1,1.52-1.18,2.81,2.81,0,0,1,1.9-.44A4,4,0,0,1,113.59,399.6Z"/><path d="M338.9,293.74a15.39,15.39,0,0,0,0,2.88,9.61,9.61,0,0,0,.49,2.79,5.73,5.73,0,0,0,3.42,3.67,4.25,4.25,0,0,0,2.15.08l.53-.13.45-.21a2.91,2.91,0,0,0,.77-.46,5.85,5.85,0,0,0,1.81-3.28,13.07,13.07,0,0,0,.31-4.57,7.49,7.49,0,0,0-1.62-4.23,3.34,3.34,0,0,0-2-1,5.81,5.81,0,0,0-6.22,4.44Zm0,0a7.24,7.24,0,0,1,3.27-4.69A7.77,7.77,0,0,1,345,287.8a5.46,5.46,0,0,1,3.48.37,9.27,9.27,0,0,1,4.46,5.28,11.85,11.85,0,0,1,.34,6.86,9.55,9.55,0,0,1-.61,1.72,8,8,0,0,1-.95,1.64,3.4,3.4,0,0,1-.63.75l-.71.7a9.8,9.8,0,0,1-.85.58,4.24,4.24,0,0,1-.9.46,6.19,6.19,0,0,1-1.93.5c-.33,0-.65.06-1,.07l-.92-.08a7.09,7.09,0,0,1-3.35-1.43,6.9,6.9,0,0,1-2-2.67,9.89,9.89,0,0,1-.79-3,17,17,0,0,1,0-2.94C338.73,295.66,338.76,294.69,338.9,293.74Z"/></svg>