<svg id="Layer_1" data-name="Layer 1" xmlns="http://www.w3.org/2000/svg" viewBox="0 0 600 600"><title>Myanmar</title><path d="M207.08,275.11c-1.67-.87-3.24-1.9-4.8-2.92s-3.1-2.12-4.6-3.28a42.44,42.44,0,0,1-7.85-8.21,30.65,30.65,0,0,1-5.43-10.29,12,12,0,0,1-.06-6.32,5.88,5.88,0,0,1,1.94-3.19,6.48,6.48,0,0,1,3.58-1.27c1.1-.09,2.06,0,2.9-.09a4.77,4.77,0,0,0,2-.38,2.24,2.24,0,0,0,1-1,5.24,5.24,0,0,0,.46-1.9A34.28,34.28,0,0,0,196,231c0-.49-.08-1-.09-1.52s0-1.16,0-1.64a17.37,17.37,0,0,1,.44-3.29l.32-1a9.17,9.17,0,0,1,.55-1.08,6,6,0,0,1,1.89-1.87,7.82,7.82,0,0,1,1-.53l.77-.35,1.21-.54a11.8,11.8,0,0,0,3.55-2.55,10.5,10.5,0,0,0,2.11-3.61,8.22,8.22,0,0,0,.44-1.92,7.78,7.78,0,0,0-.07-1.84,41,41,0,0,0-1.21-4.85c-.26-.95-.53-2-.74-3.12a14.63,14.63,0,0,1-.15-4.06,14.43,14.43,0,0,1,1.12-4.09,27.66,27.66,0,0,1,1.64-3.08c.52-.86,1-1.64,1.39-2.35a3.89,3.89,0,0,0,.34-1.16,2.89,2.89,0,0,1,0-.29c0-.11,0-.22,0-.33s0-.49,0-.73a17.15,17.15,0,0,0-.36-2,56.81,56.81,0,0,1-1.23-5.93,17,17,0,0,1,1-8.59c.19-.42.41-.84.63-1.26a8,8,0,0,1,.79-1.25,10.79,10.79,0,0,1,2.3-2.33,11.44,11.44,0,0,1,2.89-1.6,12,12,0,0,1,1.43-.42,8.8,8.8,0,0,1,1.36-.27l1.27-.13c.43,0,.76,0,1.14,0,.78,0,1.42.06,2.08.12s1.21.15,1.82.23l1.62.28c1,.19,1.95.38,2.73.51l.59.1.48.07c.36.06.49,0,.72.06a1.31,1.31,0,0,0,.94-.4,9.64,9.64,0,0,0,1.5-1.8A27.83,27.83,0,0,0,236,157c.6-1.41,1.21-3,1.79-4.6l1.79-5.27.51-1.48.57-1.5,1-2.53q1-2.54,1.83-5.14c.58-1.73,1.12-3.47,1.62-5.24a60,60,0,0,0,2.33-10.85c.27-1.85.48-3.73.78-5.58.14-.94.29-1.86.5-2.78s.38-1.82.64-2.79a52.2,52.2,0,0,1,2.15-6.23c.47-1.11,1-2.26,1.62-3.43a34,34,0,0,1,2.1-3.44,35.72,35.72,0,0,1,5-5.73A59.7,59.7,0,0,1,265.49,86c1.73-1.25,3.42-2.34,5-3.38l.77-.49.93-.58c.62-.34,1.25-.71,1.88-1A30.38,30.38,0,0,1,277.84,79a52,52,0,0,1,13.36-2.26l1.61-.1c.59,0,1.14,0,1.67-.05l2.8,0a15,15,0,0,0,3.07-.24c1-.24,2-.93,3.18-3.14a39.32,39.32,0,0,0,2.71-8.86,20.81,20.81,0,0,0,.66-5.86c0-.54,0-1.15,0-1.73l0-.44-.07-.24c0-.14-.09-.34-.14-.54a11.94,11.94,0,0,1-.14-3.38,14.23,14.23,0,0,1,1.68-5.4,16.83,16.83,0,0,1,5.94-6.28,15.28,15.28,0,0,1,2-1.07q.5-.23,1-.42a9.81,9.81,0,0,1,1.09-.38,18.31,18.31,0,0,1,2.3-.51c.35-.06.71-.1,1.07-.14l.95-.07a22.64,22.64,0,0,1,6.13.62,27.81,27.81,0,0,1,9,3.83,26.15,26.15,0,0,1,4,3.24,36.91,36.91,0,0,1,3,3.31,49.46,49.46,0,0,1,4,6.2l1.47,2.66.65,1.18.31.56s0,0,0,0,.08.07.1.13l.29.32c.17.15.27.28.5.49l.31.29.39.34c1,.94,2.63,2.21,4.58,4a32.88,32.88,0,0,1,3.08,3.36,24.65,24.65,0,0,1,3,4.83,19.34,19.34,0,0,1,1.2,3.14c.16.54.27,1,.38,1.5s.18.91.26,1.36a35.88,35.88,0,0,1,.42,4.49c0,1.3,0,2.45,0,3.46l0,2.19.13,2.73c0,1,.07,2.06.08,3.09a121.29,121.29,0,0,1-.53,12.36,107.29,107.29,0,0,1-2,12.18,67.61,67.61,0,0,1-1.8,7,25.58,25.58,0,0,1-2.32,5.11A19.85,19.85,0,0,1,354.7,137a20.09,20.09,0,0,1-6.06,3.48,22.82,22.82,0,0,1-5.08,1.12,12.72,12.72,0,0,1-1.49.14,1.7,1.7,0,0,0-.32,0,3.34,3.34,0,0,0-1.11.61,6.64,6.64,0,0,0-1.43,2,22.14,22.14,0,0,0-1.55,3.85l-.77,2.52-.2.68-.1.34c-.08.24-.11.44-.16.64a4.64,4.64,0,0,0-.15,1.5.58.58,0,0,0,.11.45,3.93,3.93,0,0,0,1.34,1.14,7.29,7.29,0,0,0,2.18.88,11,11,0,0,0,2.88.26,12.11,12.11,0,0,0,1.57-.16,15.94,15.94,0,0,0,1.87-.42c.88-.23,2.07-.58,3.62-.86a20.38,20.38,0,0,1,2.73-.32,18.08,18.08,0,0,1,3.21.14,16.88,16.88,0,0,1,6.44,2.21,15.28,15.28,0,0,1,5.59,5.69c.17.3.32.61.47.93a9.19,9.19,0,0,1,.46,1.1,13.07,13.07,0,0,1,.7,2.72,13.35,13.35,0,0,1-.3,5.21,16.5,16.5,0,0,1-1.09,3c-.31.66-.53,1.07-.61,1.22s0,.09,0,0,.09-.35,0-.18a3,3,0,0,0-.12.43,5.36,5.36,0,0,0-.16.89,5,5,0,0,0,0,.86.8.8,0,0,1,0,.31,3,3,0,0,1,.09.35,11.19,11.19,0,0,0,1.5,2.44c.81,1.14,1.94,2.56,3.25,4.24a46.82,46.82,0,0,1,4.15,6c.33.63.64,1.17.95,1.9a16.24,16.24,0,0,1,.82,2.19,23.35,23.35,0,0,1,.85,4.2c.29,2.57.36,4.69.49,6.29a6.88,6.88,0,0,0,.6,2.86.84.84,0,0,0,.16.23s0,0,0,.07l.1.1c.07.07.12.15.2.22a9.91,9.91,0,0,0,1.16,1c1,.74,2.43,1.53,4.19,2.58a29.05,29.05,0,0,1,5.92,4.46l.38.39.41.46c.29.32.5.6.75.91.44.58.83,1.15,1.16,1.66.66,1,1.17,1.91,1.6,2.57a6.89,6.89,0,0,0,.94,1.3c.08.07.08.06.05,0s0,0-.06-.06a.12.12,0,0,0-.06-.08c-.27-.15.2,0,1.32-.12s2.75-.4,4.71-.73l1.58-.25c.62-.07,1.14-.16,1.85-.21a20,20,0,0,1,4.75.13,15.93,15.93,0,0,1,5.62,2,13.6,13.6,0,0,1,2.83,2.21,14.89,14.89,0,0,1,1.25,1.47c.36.53.7,1.08,1,1.65.15.28.3.57.44.86s.26.67.38,1a14.3,14.3,0,0,1,.55,2.14,13.11,13.11,0,0,1-.12,4.31,13.48,13.48,0,0,1-1.17,3.44c-.23.46-.47.85-.72,1.27l-.39.61c-.13.18-.26.33-.38.5a24.34,24.34,0,0,1-5.77,5.3c-.85.6-1.74,1.14-2.43,1.57l-.91.56c-.09,0-.17.08-.28.15l-.42.32a19.1,19.1,0,0,0-3.23,3.2,35.74,35.74,0,0,0-2.85,4.28,19.17,19.17,0,0,0-2.22,5.21c-.26,1-.47,2-.68,3a18,18,0,0,1-.93,3.36,15.08,15.08,0,0,1-2.31,4,20.24,20.24,0,0,1-1.93,2.05,20,20,0,0,1-2.47,1.92,28,28,0,0,1-4.82,2.47l-3.39,1.31a17.77,17.77,0,0,0-1.92,1c-.58.36-1.16.66-1.71,1-2.23,1.38-4.28,2.88-6.33,4.31-1,.7-2,1.48-3.05,2.18a23.58,23.58,0,0,1-3.46,1.91l-1,.46a10.74,10.74,0,0,0-1.26.77c-.94.63-2.07,1.49-3.49,2.42a28.57,28.57,0,0,1-5,2.67c-.46.19-1,.35-1.43.5l-1.33.35c-.9.23-1.72.33-2.57.47a54.54,54.54,0,0,1-7.65.15c-.92,0-1.58,0-2.11,0a5.09,5.09,0,0,0-.88.06c-.09,0,0,.05-.1,0s0,0-.05,0a.05.05,0,0,1-.05,0s0,0-.08.06l-.15.13c-.19.18-.38.36-.57.56a11.48,11.48,0,0,0-1.72,2.72,9.21,9.21,0,0,0-.5,1.51c-.15.59-.13.73-.41,2.06-.42,2.13-.89,4.1-1.32,5.92s-.8,3.48-1,5c-.13.78-.23,1.43-.28,2.1s-.1,1.34-.11,2a28.85,28.85,0,0,0,.23,4,28.16,28.16,0,0,0,.8,3.8c.15.62.32,1.25.53,1.86.1.31,0,.72.14,1a6.14,6.14,0,0,0,.67.78c1,1,2.3,1.71,3.28,2.53a23.16,23.16,0,0,0,3.06,2.18l.82.43,1,.52,2.22,1.19a57.16,57.16,0,0,1,5.43,3.29c.49.34,1,.72,1.52,1.11s1,.84,1.55,1.29a31.36,31.36,0,0,1,3.18,3.15c.51.59,1,1.21,1.52,1.89s1,1.37,1.43,2.1.88,1.51,1.29,2.29l.5,1c.13.28.29.57.4.85a54.09,54.09,0,0,1,2.31,6,18.66,18.66,0,0,1,1,4.49c.17,1.39-.26,1.91.31,4.55.23,1.27.6,2.81.88,4.72a27.1,27.1,0,0,1,.24,7,18,18,0,0,1-.82,3.7,19.5,19.5,0,0,1-1.34,3,20.59,20.59,0,0,1-2.67,3.75l-.54.63c-.18.2-.32.34-.52.58L363.49,400l-2,2.37c-1.29,1.47-2.47,2.86-3.57,4.23a45.43,45.43,0,0,0-2.93,4.09c-.41.69-.77,1.36-1.12,2a16.86,16.86,0,0,0-.8,1.93c-.12.32-.2.61-.29.9s-.13.58-.15.83a5,5,0,0,0-.07,1.34,2.07,2.07,0,0,0,.23.8.82.82,0,0,0,.15.24,2.69,2.69,0,0,1,.26.3,9.17,9.17,0,0,0,2.3,1.9c.54.3,1.14.59,1.79.88s1.38.55,2.14.81c.36.1.84.28,1.33.46l1.45.51,1.5.54,1.55.61a38.8,38.8,0,0,1,6.75,3.47,26.83,26.83,0,0,1,6.82,6.47c.48.69,1,1.4,1.4,2.13s.81,1.49,1.19,2.25.63,1.52.93,2.3.5,1.51.72,2.28.35,1.5.51,2.25a18,18,0,0,1,.34,2.19l.2,2.12c0,.64.07,1.27.07,1.91a33.62,33.62,0,0,1-.52,6.53c-.71,3.82-2.35,6.42-3.42,8.66a8.46,8.46,0,0,0-1,3.16,6.09,6.09,0,0,0,0,.74l0,.19a1.91,1.91,0,0,0,.11.35l.27.76c.38,1,.7,2,1.06,3l2,5.8c.69,1.87,1.3,3.72,1.94,5.5l1.85,5.26c.56,1.64,1.41,3.61,2.05,6.16a22.25,22.25,0,0,1,.62,4.26,17.62,17.62,0,0,1-.47,4.71,22.63,22.63,0,0,1-1.49,4.16,26.35,26.35,0,0,1-2,3.38c-1.37,2-2.71,3.68-3.93,5.16a43.55,43.55,0,0,0-3.05,4.08,44.28,44.28,0,0,0-4.44,8.59,51.06,51.06,0,0,0-2.6,9.15,40.07,40.07,0,0,1-1.83,6.68,24.41,24.41,0,0,1-2.22,4.33,23,23,0,0,1-3.53,4.22,16.7,16.7,0,0,1-6.74,3.82,16.47,16.47,0,0,1-2.57.51,16.84,16.84,0,0,1-2.93,0,15.47,15.47,0,0,1-3-.62,14.3,14.3,0,0,1-2.78-1.2c-.43-.23-.84-.49-1.25-.76a13.11,13.11,0,0,1-1-.8c-.34-.28-.67-.57-1-.86s-.53-.55-.8-.84a15.91,15.91,0,0,1-1.33-1.68c-.35-.52-.75-1.12-1-1.6s-.52-1-.75-1.49-.33-.81-.49-1.22-.31-.8-.44-1.2l-.35-1.16a32.87,32.87,0,0,1-1.18-8.75,24.44,24.44,0,0,1,1.18-7.73,28,28,0,0,1,3.38-6.76l1.1-1.58c.39-.51.78-1,1.17-1.53.78-1,1.57-1.82,2.28-2.61,1.45-1.58,2.76-2.85,3.9-4,.56-.57,1.07-1.12,1.54-1.64.24-.26.46-.52.67-.78l.57-.71a7.12,7.12,0,0,0,.85-1.61,2.57,2.57,0,0,0,0-1.73,2.44,2.44,0,0,0-.34-1s0,0,0,0l0,.09a.13.13,0,0,0,.06.07.36.36,0,0,0,.07.1l.08.06-.06,0c-.19-.09-.76-.31-1.69-.62-.45-.16-1-.37-1.63-.64a13.45,13.45,0,0,1-2.12-1.14,11.8,11.8,0,0,1-2.15-1.85,9.6,9.6,0,0,1-1.87-3,9,9,0,0,1-.51-2,10.22,10.22,0,0,1-.06-2,9.83,9.83,0,0,1,1-3.6,15,15,0,0,1,1.42-2.21l1-1.26a1.77,1.77,0,0,0,.36-.53s-.06.06-.08.11,0-.11.05-.18a8.33,8.33,0,0,0,.06-2.82c-.08-.64-.2-1.34-.36-2.09l-.15-.69-.15-.84c-.1-.56-.19-1.11-.26-1.64-.3-2.14-.44-4.11-.63-5.88-.09-.89-.18-1.72-.3-2.5l-.4-2.67c-.28-1.73-.59-3.38-1-4.91a17.57,17.57,0,0,0-3.26-7.15,10.3,10.3,0,0,0-1.09-1.1c-.42-.37-1-.8-1.66-1.32a34.89,34.89,0,0,1-5.35-4.68,25.52,25.52,0,0,1-4.31-7A44.53,44.53,0,0,1,325.3,437c-.51-2.12-.91-3.77-1.31-5.56s-.82-3.52-1.28-5.26c-.83-3.5-1.79-6.91-2.66-10.61a100.88,100.88,0,0,1-2.26-11.79c-.22-2-.4-4-.52-6-.06-1-.06-2-.1-2.94s-.05-1.95,0-2.92l0-2.86c0-.84,0-1.69,0-2.55,0-1.72-.16-3.48-.32-5.27s-.34-3.63-.64-5.46l-.91-5.75-.39-2.78c-.15-.88-.3-1.75-.48-2.57a16.34,16.34,0,0,0-1.38-4.3c-.07-.15-.15-.26-.22-.39l-.11-.2-.09-.12a1.79,1.79,0,0,0-.39-.44,3,3,0,0,0-.94-.57c-.28-.1-.45-.07-.47,0s0,0-.07.12a3,3,0,0,0-.43.71c0,.08-.07.17-.11.26l-.11.37c-.1.29-.18.62-.26,1-.32,1.37-.48,3.1-.84,5.13a31.27,31.27,0,0,1-.7,3.24c-.16.57-.37,1.16-.59,1.75l-.37.88-.37.78a13.74,13.74,0,0,1-2.52,3.68,9,9,0,0,1-2.5,1.76,8.72,8.72,0,0,1-1.58.56,5.15,5.15,0,0,1-.75.13l-.69.06a9.71,9.71,0,0,1-4.55-.86,11.75,11.75,0,0,1-2-1.09c-.19-.12.25-.36,0-.35a1.25,1.25,0,0,0-.43.37,3,3,0,0,0-.49.69,20.44,20.44,0,0,0-1,2.14l-.6,1.38a13.08,13.08,0,0,1-.83,1.6,12,12,0,0,1-2.58,3,17.51,17.51,0,0,1-2.89,2c-1.89,1.07-3.54,1.81-4.79,2.63a9.42,9.42,0,0,0-1.5,1.24l-.26.33-.13.15-.21.27-.87,1.13a20.85,20.85,0,0,1-5,4.88,11.69,11.69,0,0,1-4.17,1.68,12.36,12.36,0,0,1-4.4-.07,28.09,28.09,0,0,1-6.44-2.2l-2.5-1.17-1.06-.45-1.36-.54c-1.84-.73-3.48-1.49-5-2.07-.38-.15-.75-.28-1.11-.4l-.55-.17-.59-.18c-.87-.26-1.89-.52-3-1a15.49,15.49,0,0,1-3.64-1.95,13.43,13.43,0,0,1-3.08-3.13,15.76,15.76,0,0,1-2.75-7.45,27.82,27.82,0,0,1,2-12.69,53.18,53.18,0,0,1,2.47-5.48c.9-1.79,1.91-3.4,2.79-5.07.44-.82.89-1.64,1.31-2.47s.78-1.67,1.14-2.51a19.73,19.73,0,0,0,1.53-5.23,24.66,24.66,0,0,0,.18-2.71l-.06-1.36-.11-1.37c-.16-1.83-.43-3.65-.74-5.46a79.36,79.36,0,0,0-2.86-10.73c-.59-1.77-1.21-3.54-1.83-5.3l-.93-2.66A14.7,14.7,0,0,0,235,314a6.55,6.55,0,0,0-3.67-3.38c-1.62-.51-3.47-.12-5.49-.35a9.22,9.22,0,0,1-5.14-2.81,11.46,11.46,0,0,1-2.93-5A9.45,9.45,0,0,1,222,292.33c1.67-1,3.57-1.37,4.71-2.82a4.13,4.13,0,0,0,1.13-2.33,3.76,3.76,0,0,0-.85-2.43,14,14,0,0,0-4.34-3.38,44,44,0,0,0-5.09-2.31c-1.74-.68-3.52-1.25-5.31-1.84a39.14,39.14,0,0,1-5.17-2.2Zm0-.09a20.92,20.92,0,0,0,2.61,1.05c.88.32,1.76.61,2.66.86,1.8.49,3.62,1,5.41,1.58a42.75,42.75,0,0,1,5.31,2.1,14.56,14.56,0,0,1,4.83,3.44,5,5,0,0,1,1.21,3.21,5.4,5.4,0,0,1-1.35,3.17l-.54.59a4.93,4.93,0,0,1-.65.56,9.11,9.11,0,0,1-1.36.84,23,23,0,0,0-2.37,1.25,8.17,8.17,0,0,0-3,3.7,7.33,7.33,0,0,0-.34,4.63,9.72,9.72,0,0,0,2.47,4.17,7.46,7.46,0,0,0,4.08,2.29c1.5.22,3.57-.23,5.77.41a7.11,7.11,0,0,1,2.88,1.71,10.36,10.36,0,0,1,1.91,2.52,18.8,18.8,0,0,1,1.2,2.75l.94,2.65c.63,1.76,1.26,3.53,1.87,5.32a82.71,82.71,0,0,1,3,11,47.28,47.28,0,0,1,.7,5.69,29.66,29.66,0,0,1-.16,5.8,45.27,45.27,0,0,1-1.06,5.69c-.47,1.86-1,3.69-1.55,5.5s-1.07,3.61-1.5,5.36-.77,3.55-1.05,5.33a45.49,45.49,0,0,0-.48,5.26,25.14,25.14,0,0,0,.23,5c.57,3.14,1.81,5.29,4.63,6.28.73.27,1.57.55,2.47.83s2,.66,2.86,1c1.85.77,3.55,1.62,5.19,2.42l1.24.59c.49.22.94.45,1.38.68l2.48,1.36a21.17,21.17,0,0,0,4.62,2,4.93,4.93,0,0,0,4-.4,15.53,15.53,0,0,0,3.79-3.26l.94-1c.29-.33.75-.77,1.12-1.12a15,15,0,0,1,2.59-1.79c1.77-1,3.55-1.65,5.13-2.45a9.13,9.13,0,0,0,3.81-3.1c.92-1.37,1.5-3.23,2.58-5a10.12,10.12,0,0,1,2.07-2.4,4.72,4.72,0,0,1,3.34-.94,20.19,20.19,0,0,1,2.91.61,6.53,6.53,0,0,0,2.32.17,2.63,2.63,0,0,0,1.69-.87,7.22,7.22,0,0,0,1.33-2,18.37,18.37,0,0,0,1.59-5c.36-1.79.62-3.69,1.17-5.59a13.39,13.39,0,0,1,1.12-2.84,7.76,7.76,0,0,1,2.09-2.45,5.94,5.94,0,0,1,3.12-1.2,6.62,6.62,0,0,1,3.2.62,8.85,8.85,0,0,1,4.29,4.35c1.73,3.6,2.15,7.42,2.88,11.07.33,1.83.78,3.62,1.19,5.46s.83,3.66,1.21,5.51.69,3.71,1,5.58.42,3.76.62,5.61c.38,3.71.83,7.42,1.49,11.08,1.23,7.33,3.71,14.44,5.37,21.77.88,3.65,1.61,7.35,2.36,11s1.89,7.24,4.25,10,5.89,4.57,8.1,7.76a25.66,25.66,0,0,1,4.23,10.45c.37,1.85.62,3.71.83,5.58s.41,3.73.51,5.6.17,3.74.36,5.6.63,3.69.7,5.58a13,13,0,0,1-.73,5.57c-.65,1.85-2.38,2.94-3.25,4.56a3.23,3.23,0,0,0-.24,2.66,4.57,4.57,0,0,0,1.74,2.1c1.53,1.08,3.45,1.43,5.05,2.43a4.87,4.87,0,0,1,1.83,2.09,8.4,8.4,0,0,1,.74,2.7,15.37,15.37,0,0,1-.38,5.57c-1,3.64-3.19,6.77-5.08,10a32.22,32.22,0,0,0-4.09,10.4,24.79,24.79,0,0,0,0,11.14,10,10,0,0,0,.43,1.34,8.62,8.62,0,0,0,.55,1.29,5.07,5.07,0,0,0,1.86,2.06,3.42,3.42,0,0,0,2.71.31,6.65,6.65,0,0,0,2.43-1.36,13.28,13.28,0,0,0,3.26-4.52,46.86,46.86,0,0,0,1.86-5.3A59.29,59.29,0,0,1,372.12,519c2.32-3,5.13-5.46,7.36-8.48a14.74,14.74,0,0,0,2.5-5,11,11,0,0,0-.1-5.56,47.51,47.51,0,0,0-1.88-5.29l-2-5.24c-1.34-3.5-2.73-7-4.4-10.34-.8-1.69-1.79-3.29-2.58-5a19.13,19.13,0,0,1-1.42-5.41,52.53,52.53,0,0,1,.23-11.21c.31-3.72.64-7.51-.07-11.2a16.74,16.74,0,0,0-5.44-9.59,50.87,50.87,0,0,0-9.33-6.22c-3.22-1.85-6.41-4.07-8.4-7.28a10,10,0,0,1-1.54-5.33,16.92,16.92,0,0,1,.94-5.51,48.53,48.53,0,0,1,5-10c1.95-3.19,4.14-6.25,5.9-9.56a10.35,10.35,0,0,0,1.61-5.3,12.16,12.16,0,0,0-1.81-5.26,49,49,0,0,1-2.56-5c-.74-1.72-1.38-3.48-2-5.24-1.29-3.5-2.4-7.16-4.68-10.16a53.63,53.63,0,0,0-7.91-8c-1.4-1.24-2.79-2.49-4.07-3.86a34.4,34.4,0,0,1-3.49-4.4,33.19,33.19,0,0,1-5.59-21.33,52,52,0,0,1,2.42-10.95c.54-1.79,1.08-3.59,1.53-5.41a22.13,22.13,0,0,1,1.81-5.3,20,20,0,0,1,3.19-4.6,10.37,10.37,0,0,1,4.56-3.17,18.26,18.26,0,0,1,5.56-.65,25.48,25.48,0,0,0,5.58-.44,11.71,11.71,0,0,0,2.62-1,10.21,10.21,0,0,0,2.21-1.71c1.33-1.33,2.38-2.89,3.62-4.3a41.8,41.8,0,0,1,8.36-7.46,42.29,42.29,0,0,1,15.45-6.46,18.45,18.45,0,0,0,5.35-1.64,12.22,12.22,0,0,0,4-3.86c1.07-1.54,2-3.15,3-4.74,1.94-3.2,3.79-6.47,5.95-9.53a36,36,0,0,1,3.55-4.35A46.42,46.42,0,0,1,409.4,245a22.1,22.1,0,0,0,3.93-4,8.74,8.74,0,0,0,.73-1.2,5.77,5.77,0,0,0,.44-1.33,4.64,4.64,0,0,0,.06-1.39c-.05-.23-.13-.45-.19-.68a1.9,1.9,0,0,0-.27-.64,6,6,0,0,0-4.51-3,19.13,19.13,0,0,0-5.6.19,54.7,54.7,0,0,1-5.58.61,10.33,10.33,0,0,1-5.44-1.09l-.6-.36c-.19-.14-.36-.3-.54-.45a6.62,6.62,0,0,1-1-1,18.27,18.27,0,0,1-1.54-2.35,22.79,22.79,0,0,0-3.09-4.67c-2.6-2.75-6.14-4.26-9.08-6.58a12.06,12.06,0,0,1-3.6-4.24,14.44,14.44,0,0,1-1.14-5.47,55.25,55.25,0,0,0-.39-5.6,12.43,12.43,0,0,0-2-5.18c-2.11-3.13-5.15-5.42-7.74-8.12A18.85,18.85,0,0,1,358.9,184a12.89,12.89,0,0,1-1.37-5.41,13.11,13.11,0,0,1,.94-5.5,16.23,16.23,0,0,0,1.07-2.59,3.47,3.47,0,0,0-.39-2.69,6,6,0,0,0-4.61-2.83,13.82,13.82,0,0,0-5.51.83,23,23,0,0,1-11.11.73,17,17,0,0,1-9.63-5.39,12.5,12.5,0,0,1-2.5-10.58c.33-1.85.9-3.64,1.4-5.44a41.09,41.09,0,0,1,1.89-5.29A19,19,0,0,1,332,135a15.08,15.08,0,0,1,4.35-3.51,13.66,13.66,0,0,1,2.61-1,23.21,23.21,0,0,1,2.76-.54,14.23,14.23,0,0,0,2.73-.63,7.77,7.77,0,0,0,2.38-1.45,9.2,9.2,0,0,0,2.87-4.71,46.54,46.54,0,0,0,1.2-5.48c.64-3.69,1.13-7.41,1.44-11.14s.48-7.48.46-11.22c0-1.87-.05-3.75-.13-5.62s.13-3.74.09-5.62a13.62,13.62,0,0,0-1-5.47,15,15,0,0,0-3.33-4.46c-2.66-2.62-5.87-4.74-7.91-8-1.89-3.23-3.49-6.65-5.79-9.61a18.26,18.26,0,0,0-4-3.89,17.19,17.19,0,0,0-5.09-2.29,7,7,0,0,0-5.42.37c-1.65.95-2.47,2.8-3,4.56-.27.9-.48,1.81-.71,2.72l-.73,2.71c-.46,1.82-.85,3.65-1.26,5.47A49.88,49.88,0,0,1,311.18,77,17.64,17.64,0,0,1,308,81.58a12.85,12.85,0,0,1-4.7,3c-3.59,1.28-7.44.83-11.13,1.33a46,46,0,0,0-11,2.22,20.53,20.53,0,0,0-4.94,2.62c-1.52,1.08-3,2.17-4.52,3.32a36.58,36.58,0,0,0-7.88,7.93,35.92,35.92,0,0,0-4.47,10.25L256.14,123c-2.21,7.15-4.52,14.29-7.16,21.3-.65,1.76-1.37,3.49-2,5.26l-1.77,5.34a40.91,40.91,0,0,1-4.76,10.15,13.2,13.2,0,0,1-4,3.88,9.57,9.57,0,0,1-2.63,1,10.17,10.17,0,0,1-2.81.14c-3.72-.43-7.26-2.13-11-1.83a5.09,5.09,0,0,0-4.3,3.07,11.21,11.21,0,0,0-.79,5.47c.13,1.87.56,3.7.83,5.55a13.22,13.22,0,0,1-.11,5.6c-.46,1.86-1.71,3.35-2.73,4.89a12.16,12.16,0,0,0-2.28,5.06,15.53,15.53,0,0,0,.51,5.54,36.83,36.83,0,0,1,1,5.53,11.43,11.43,0,0,1-1,5.5,14.27,14.27,0,0,1-3.17,4.62,15.3,15.3,0,0,1-4.75,3,22,22,0,0,0-2.59,1.07,3.56,3.56,0,0,0-1.57,2.19,18.81,18.81,0,0,0-.55,5.55,34,34,0,0,1,0,5.62,7.24,7.24,0,0,1-.84,2.68,4.42,4.42,0,0,1-2.08,1.86c-1.8.74-3.74.31-5.58.41a4.71,4.71,0,0,0-2.62.8,4.28,4.28,0,0,0-1.45,2.32,10.54,10.54,0,0,0-.12,5.52,29.55,29.55,0,0,0,4.84,10,52,52,0,0,0,7.29,8.51,36.79,36.79,0,0,0,9.26,6.27Z"/><path d="M218.62,311.18a1.6,1.6,0,0,0-.67,1.29,5.4,5.4,0,0,0,.11,1.5,7.55,7.55,0,0,0,1.16,2.69,3.58,3.58,0,0,0,1.8,1.47,2,2,0,0,0,1.51-.21,2.28,2.28,0,0,0,.94-1.34,3.35,3.35,0,0,0-.28-2.29,6,6,0,0,0-1.82-2.23,5.86,5.86,0,0,0-1.3-.77A1.62,1.62,0,0,0,218.62,311.18Zm0,0a1.88,1.88,0,0,1,1.49,0,11.5,11.5,0,0,1,1.46.51,9.49,9.49,0,0,1,2.81,1.67,4.75,4.75,0,0,1,1.68,3.34,4.21,4.21,0,0,1-2,3.76,4,4,0,0,1-4.31-.07,5,5,0,0,1-1.95-3.17,12.72,12.72,0,0,1-.19-3.23,11.32,11.32,0,0,1,.19-1.55A1.86,1.86,0,0,1,218.62,311.18Z"/><path d="M330.62,483.23a13.06,13.06,0,0,0,.12,6.66,2.61,2.61,0,0,0,.63,1.15.59.59,0,0,0,.62.16,2.41,2.41,0,0,0,1.49-1.08c1.07-1.46,1.95-3.17,1.49-5.07a5.06,5.06,0,0,0-1.79-2.55,1.94,1.94,0,0,0-1.5-.47A1.59,1.59,0,0,0,330.62,483.23Zm0,0a1.75,1.75,0,0,1,1-1.3,2.52,2.52,0,0,1,1.74.2,7.21,7.21,0,0,1,2.95,2.2,5.73,5.73,0,0,1,1.07,3.91,7.2,7.2,0,0,1-1.49,3.75,5.08,5.08,0,0,1-1.76,1.49,3.88,3.88,0,0,1-2.54.34,3,3,0,0,1-2.09-1.69,4.43,4.43,0,0,1-.31-2.09,17.07,17.07,0,0,1,.28-1.78l.34-1.7C330.06,485.43,330.31,484.32,330.62,483.23Z"/><path d="M332.32,502.53a7.53,7.53,0,0,0-1.72,3.87,3.14,3.14,0,0,0,.47,1.86,3.51,3.51,0,0,0,1.32,1.16,9.6,9.6,0,0,0,3.51.82c.31,0,.61,0,.91.05a3.8,3.8,0,0,0,.7,0,2.37,2.37,0,0,0,.91-.26,2,2,0,0,0,.57-.46,2.73,2.73,0,0,0,.21-.3,1.54,1.54,0,0,0,.16-.5,6.62,6.62,0,0,0-.48-3.37,5.16,5.16,0,0,0-1-1.62,7.44,7.44,0,0,0-1.63-1.31,4.91,4.91,0,0,0-2-.68A2.19,2.19,0,0,0,332.32,502.53Zm0,0a2.59,2.59,0,0,1,1.92-.95,8.08,8.08,0,0,1,2.24.22,14.36,14.36,0,0,1,2.23.7,7.46,7.46,0,0,1,2.16,1.34,8.17,8.17,0,0,1,2.81,4.58,5.73,5.73,0,0,1,.07,1.67,5.46,5.46,0,0,1-.52,1.75,5.73,5.73,0,0,1-2.47,2.57,6.91,6.91,0,0,1-6,0,9.56,9.56,0,0,1-4.12-3.2,5.29,5.29,0,0,1-.72-4.93A16.18,16.18,0,0,1,332.32,502.53Z"/></svg>