<svg id="Layer_1" data-name="Layer 1" xmlns="http://www.w3.org/2000/svg" viewBox="0 0 600 600"><title>Nicaragua</title><path d="M367,69.48a20.16,20.16,0,0,1,6.71,1.22,27.82,27.82,0,0,1,6,3.34c3.79,2.65,6.89,6.1,10.56,8.6a22.55,22.55,0,0,0,5.84,2.89,39.79,39.79,0,0,0,6.49,1.35,52.17,52.17,0,0,0,13.27-.1,104.92,104.92,0,0,0,25.78-7.22c8.44-3.31,16.75-7,25.18-10.53s16.92-7.09,25.67-10.17c2.18-.79,4.39-1.52,6.6-2.25l3.33-1c1.09-.35,2.06-.65,3.12-1,4.15-1.42,8.45-3.12,13-4.57a58,58,0,0,1,14.84-3l2,0c.68,0,1.38.07,2.07.11a22.67,22.67,0,0,1,4.45.71l1.31.42c.48.2.94.39,1.44.64a10.92,10.92,0,0,1,3,2.31A10.46,10.46,0,0,1,549,52.82a12.88,12.88,0,0,1,.85,1.82,12.31,12.31,0,0,1,.48,1.73l.15.82.08.74a21.71,21.71,0,0,1-.2,4.92c-.2,1.24-.37,2.51-.62,3.72-.46,2.45-1,4.82-1.58,7s-1,4.29-1.32,6.18a21.88,21.88,0,0,0-.15,5.19,20.7,20.7,0,0,0,.38,2.38,22.15,22.15,0,0,0,.73,2.37c.24.78.66,1.61,1,2.43l.32.69.35.75.71,1.5c1.89,4,4.16,8.16,6.1,12.9a49.91,49.91,0,0,1,4,16.37,38.29,38.29,0,0,1-.66,9.6,51.31,51.31,0,0,1-2.8,8.82c-1.09,2.66-2.31,5-3.33,7.18S551.59,154,550.8,156a101.88,101.88,0,0,0-4.21,12c-.55,2.05-1.21,4-1.66,6.1s-1,4.09-1.34,6.18-.79,4.12-1.1,6.21-.64,4.14-.89,6.22c-1,8.32-1.66,16.62-2.13,24.91s-.87,16.57-1.16,24.9c-.13,4.17-.38,8.33-.57,12.53s-.51,8.38-.87,12.62c-.69,8.48-1.4,17.11-1.82,25.88-.19,4.38-.27,8.78-.28,13.21,0,2.22.05,4.44.13,6.66l.12,3.28.19,3.49.18,3.69.15,3.9c.05,1.32.05,2.74.08,4.11s0,2.85-.09,4.38a69.82,69.82,0,0,1-3.22,19.64,52.53,52.53,0,0,1-2,5.2c-.39.86-.76,1.73-1.19,2.57l-1.37,2.51-.71,1.24-.78,1.2-1.6,2.37-.38.56-.29.38-.57.76-1.09,1.44c-1.39,1.85-2.65,3.36-3.41,4.42s-1.27,1.76-1.72,2.53a12.66,12.66,0,0,0-.65,1.28l-.33.8-.44,1.19c-.57,1.65-1.13,3.54-1.79,5.64a144,144,0,0,1-5.11,14.89l-.93,2.11-.5,1.07-.25.53c-.1.22-.12.22-.18.34-.43.74-.83,1.46-1.21,2.18a36.14,36.14,0,0,0-1.84,4,24.7,24.7,0,0,0-.93,3c-.15.75-.45.6-.3,1.71,0,.22.11.58.16.89s.18.71.34,1.17c.26.83.66,1.88,1.09,3a68.35,68.35,0,0,1,2.9,8.91c.22.87.4,1.86.58,2.8s.29,2,.36,3,.12,2,.09,3a28.94,28.94,0,0,1-.15,3.07,31.86,31.86,0,0,1-1.15,5.94A33.19,33.19,0,0,1,505,456.9c-.76,1.63-1.55,3.07-2.34,4.44s-1.57,2.6-2.34,3.71c-1.5,2.31-2.84,4.23-3.83,6.07a20.51,20.51,0,0,0-1.21,2.54,13.43,13.43,0,0,0-.63,2.16,5.05,5.05,0,0,0,0,1.63,2.12,2.12,0,0,0,.43,1c.06.12.22.21.29.29l.16.11.06.05s.05.14.07.2l.28.94c.11.32.23.63.31.94l1.23,3.8c.16.66.45,1.3.61,2a7.26,7.26,0,0,1,.23,1.05,10.27,10.27,0,0,1,.13,1.13c.13,1.53,0,3.32.14,5.1a11.09,11.09,0,0,0,1.57,5l.22.39a2,2,0,0,1,.13.25,1.55,1.55,0,0,0,.21.33l.25.38c.41.56.93,1.23,1.57,2l4.72,5.19A55.29,55.29,0,0,1,513,515c.51.83,1,1.61,1.47,2.51s.94,1.88,1.36,2.92.8,2.16,1.11,3.35a32.14,32.14,0,0,1,.69,3.72,30.55,30.55,0,0,1,.15,4,25,25,0,0,1-.51,4,24.43,24.43,0,0,1-1.13,3.85c-.23.63-.5,1.19-.77,1.78s-.56,1.17-.87,1.68-.62,1.05-.95,1.57-.67.95-1,1.42a29.26,29.26,0,0,1-2.14,2.56,32.81,32.81,0,0,1-4.52,3.93,40.57,40.57,0,0,1-9.2,5c-.78.31-1.56.59-2.35.85-.41.15-.75.24-1.1.34l-1,.29c-1.4.36-2.78.82-4.19,1.08l-4.26.64c-1.42.14-2.84.24-4.26.34a77.26,77.26,0,0,1-16.59-.95,83.45,83.45,0,0,1-15.45-4.15c-2.48-.88-4.85-1.94-7.23-3s-4.64-2.25-6.86-3.53a117.8,117.8,0,0,1-12.78-8.27l-5.43-4.11c-1.77-1.33-3.51-2.62-5.25-3.83a81.07,81.07,0,0,0-10.54-6.31,45,45,0,0,0-5.31-2.18c-.89-.3-1.77-.55-2.65-.79l-1.32-.32c-.44-.11-.83-.14-1.24-.22a29.69,29.69,0,0,0-10.79.37c-2,.4-4,.91-6.18,1.48s-4.41,1.25-6.76,1.86-4.84,1.25-7.48,1.69c-1.3.24-2.68.4-4,.57s-2.81.27-4.16.25a63.88,63.88,0,0,1-15.92-1.74,108.7,108.7,0,0,1-14.23-4.52l-3.27-1.4c-.54-.22-1-.71-1.52-.89s-1.16-.27-1.73-.37c-2.33-.4-4.79-.44-6.89-1.09-1.06-.34-2.07-.7-3.09-1a13.85,13.85,0,0,0-1.37-.41l-1.24-.35c-.83-.23-1.7-.36-2.54-.56s-1.75-.27-2.62-.41a79.76,79.76,0,0,0-11.73-.4c-4.31.09-9.05.33-14.35.14-1.33-.06-2.64-.09-4-.23l-2.07-.17-2.12-.27c-.71-.1-1.41-.18-2.13-.31l-2.16-.4a36.38,36.38,0,0,1-5-1.3,55.07,55.07,0,0,1-8.88-3.91c-2.54-1.38-4.67-2.66-6.61-3.79-4-2.31-8-4.65-12-7.09a281.79,281.79,0,0,1-23.85-16.19,163.16,163.16,0,0,1-22.3-20.54l-2.55-2.95-2.43-3c-.8-1-1.62-2-2.39-3L168.24,450c-1.51-2.06-2.87-4.12-4.24-6.18a32.67,32.67,0,0,1-3.62-6.4,26.55,26.55,0,0,1-1.67-7.39c-.25-2.62-.31-5.26-.47-7.88a38.48,38.48,0,0,0-1.09-7.34,50.69,50.69,0,0,0-2.46-6.44,103.59,103.59,0,0,0-6.15-12,88.63,88.63,0,0,0-7.71-10.67l-2.1-2.49c-.71-.82-1.47-1.58-2.2-2.37l-2.2-2.35L132,376.36c-.78-.72-1.51-1.5-2.33-2.17l-2.42-2c-.82-.66-1.62-1.34-2.48-1.94s-1.69-1.24-2.6-1.8c-14.12-9.5-31.92-13.84-48.56-25.07a73.57,73.57,0,0,1-11.76-9.61,51.86,51.86,0,0,1-5-6,60.48,60.48,0,0,1-4.09-6.81A69.67,69.67,0,0,1,47.37,306l-.82-3.83c-.22-1.28-.39-2.56-.62-3.82-.33-2.58-1.3-5.08-1.65-7.9a24.85,24.85,0,0,1,.33-9,20.54,20.54,0,0,1,.71-2.36c.27-.77.57-1.47.87-2.22a25,25,0,0,1,1.2-2.27,22.06,22.06,0,0,1,1.71-2.34,15.39,15.39,0,0,1,5.6-4,11.88,11.88,0,0,1,1.74-.59,13.11,13.11,0,0,1,1.77-.39c.57-.08,1.16-.15,1.75-.2s1.08,0,1.63,0a14.6,14.6,0,0,1,1.55.1c.49.06,1,.11,1.48.2a26,26,0,0,1,2.62.59l1.23.36,1.13.38c.78.26,1.44.54,2.14.82,1.38.56,2.63,1.14,3.85,1.73l3.31,1.63a42.47,42.47,0,0,0,5.37,2.28,5.91,5.91,0,0,0,3.24.34l.21-.06.16-.09a2.18,2.18,0,0,1,.47-.07l.64-.07,1.26-.14,1.29-.22a55.49,55.49,0,0,0,19-6.74,42.06,42.06,0,0,0,6.79-4.83c.45-.41.83-.83,1.3-1.23.17-.21.35-.42.54-.62l.3-.31a2.55,2.55,0,0,0,.48-.6,34.36,34.36,0,0,1,3.74-4.58c.68-.67,1.35-1.43,2.05-2s1.41-1.18,2.13-1.74a44.65,44.65,0,0,1,8.2-4.85l1-.45.9-.39,1.77-.78,3.18-1.31c4-1.62,6.55-3.09,7.55-4.26a3.65,3.65,0,0,1,.36-.44c.09-.15.15-.32.25-.46a1.77,1.77,0,0,1,.16-.22,2.33,2.33,0,0,0,.07-.25,1.24,1.24,0,0,0,.13-.46,2.48,2.48,0,0,0-.25-1.58,31.63,31.63,0,0,0-4.86-6.7c-1.28-1.52-2.78-3.2-4.29-5.2a46.24,46.24,0,0,1-4.73-7.23,33.07,33.07,0,0,1-2.17-5l-.25-.69-.22-.75q-.22-.77-.42-1.53c-.27-1-.45-2.23-.63-3.34a33.33,33.33,0,0,1-.27-3.65c0-1.29.08-2.58.23-3.87a29.39,29.39,0,0,1,2.05-7.53,30.79,30.79,0,0,1,3.55-6.15c.66-.84,1.33-1.67,2-2.47a30,30,0,0,1,2.69-2.58,27.65,27.65,0,0,1,6.31-4.1,28.9,28.9,0,0,1,6.56-2.16,36.92,36.92,0,0,1,10.76-.49c1.5.14,2.93.34,4.23.54s2.55.4,3.72.61c2.32.43,4.44.74,6.29,1a36.87,36.87,0,0,0,4.77.29,16,16,0,0,0,1.69-.09,9.22,9.22,0,0,0,1.35-.27,11,11,0,0,0,3.15-1.58c2.4-1.63,5.14-4.54,8.11-8l2.34-2.67,1.25-1.39c.43-.47.84-.92,1.38-1.47a48.13,48.13,0,0,1,6.57-5.77A41.27,41.27,0,0,1,220.3,150a29.19,29.19,0,0,1,9.94-2.37A22.32,22.32,0,0,1,241.46,150a20.91,20.91,0,0,1,4.69,3.15,28.38,28.38,0,0,1,3.37,3.58,73.72,73.72,0,0,1,4.24,6.24c.57.89,1.07,1.63,1.56,2.32a15.77,15.77,0,0,0,1.36,1.63,8.62,8.62,0,0,0,3,2,10.22,10.22,0,0,0,4.08.66,5.39,5.39,0,0,0,1.19-.07c.41-.06.81-.06,1.23-.14a25.57,25.57,0,0,0,2.56-.61,28.85,28.85,0,0,0,5.23-2.07,39.17,39.17,0,0,0,5-3.09c.8-.58,1.57-1.21,2.34-1.84s1.48-1.29,2.25-2.09c6.18-6.05,12-13.69,20.15-19.46a34,34,0,0,1,13.71-5.89c2.34-.4,4.55-.67,6.66-1.13a14.6,14.6,0,0,0,5.54-2.2,5.74,5.74,0,0,0,1.66-2,6.43,6.43,0,0,0,.56-2.69,16.54,16.54,0,0,0-1.45-6.15,22.05,22.05,0,0,1-1.92-6.85,18.53,18.53,0,0,1,1.2-7,72.39,72.39,0,0,1,6.2-12.31,79.84,79.84,0,0,1,8-11.13,47.17,47.17,0,0,1,10.24-9,28.62,28.62,0,0,1,6.17-2.94,22.43,22.43,0,0,1,3.31-.88,16.44,16.44,0,0,1,1.7-.21c.57,0,1.13-.14,1.7-.14Zm0,.1a25.89,25.89,0,0,0-12.57,4.65,46.71,46.71,0,0,0-9.72,9.27c-1.42,1.75-2.71,3.58-4,5.45s-2.43,3.78-3.51,5.75a70.29,70.29,0,0,0-5.62,12.14,16,16,0,0,0-.87,6.17,19.56,19.56,0,0,0,2,6,19.87,19.87,0,0,1,2,7.06,9.57,9.57,0,0,1-.58,4,8.73,8.73,0,0,1-2.38,3.34,17.85,17.85,0,0,1-6.69,3.29c-2.28.67-4.56,1.11-6.72,1.63a29.53,29.53,0,0,0-11.48,5.81c-6.89,5.51-12,13.14-18.16,20A45.83,45.83,0,0,1,278,173.26a36.71,36.71,0,0,1-6.4,3.1,30.9,30.9,0,0,1-3.43,1c-.58.15-1.19.22-1.78.34a12,12,0,0,1-1.8.23,19.27,19.27,0,0,1-7.27-.64,17.52,17.52,0,0,1-6.48-3.46,29.08,29.08,0,0,1-4.67-5.38c-1.35-1.88-2.59-3.76-4-5.43a14.31,14.31,0,0,0-4.91-4A12,12,0,0,0,231.1,158c-4.28.33-8.38,2.47-11.89,5.15a37.08,37.08,0,0,0-4.89,4.57c-1.49,1.68-2.91,3.47-4.33,5.25a69.12,69.12,0,0,1-9.28,10.16,25,25,0,0,1-5.85,3.72,22,22,0,0,1-6.68,1.78,42.6,42.6,0,0,1-6.87.16c-2.28-.08-4.56-.28-6.83-.45-4.52-.31-9.15-.69-13.57.48a14,14,0,0,0-7.12,4.41l-1,1.36a16,16,0,0,0-1.65,3,12.9,12.9,0,0,0-.88,6.7,22.55,22.55,0,0,0,2,6.51c1.91,4.15,4.49,7.94,6.77,11.89s4.4,8.09,4.92,12.66a16.08,16.08,0,0,1-.65,6.75,11.46,11.46,0,0,1-.61,1.6l-.33.78-.43.75c-.29.48-.56,1-.87,1.47L160,248a23.1,23.1,0,0,1-5.11,4.5,57.16,57.16,0,0,1-5.92,3.42c-4,2.11-8.19,4.12-11.66,7.1L136,264.17c-.43.37-.76.85-1.15,1.26a22,22,0,0,0-2,2.76L131,271.05c-.72.87-1.42,1.78-2.18,2.63a40.56,40.56,0,0,1-10.86,8.21,58.09,58.09,0,0,1-26.32,6.49H89.9l-1.71-.1a18.44,18.44,0,0,1-3.39-.39,22.36,22.36,0,0,1-6.32-2.55c-4-2.23-7.48-5.23-11.46-7.46a17.68,17.68,0,0,0-6.38-2.34,7.37,7.37,0,0,0-6.26,2.1,17,17,0,0,0-1.12,1.29c-.31.48-.67.93-.94,1.43a17,17,0,0,0-1.42,3.1,19.28,19.28,0,0,0-.88,6.75,38.31,38.31,0,0,0,3.28,13.21,54.71,54.71,0,0,0,7,11.73,88.45,88.45,0,0,0,20.1,18.41C95.43,343.9,112.47,351,127,362.2a109.78,109.78,0,0,1,19.18,19.41,234.21,234.21,0,0,1,15.32,22.65c4.75,7.79,9.33,15.69,14.26,23.37a180.76,180.76,0,0,0,16.24,22c12.11,13.69,26.79,24.79,41.76,35.16q5.63,3.9,11.31,7.71c3.77,2.54,7.54,5.2,11.82,6.82A57.66,57.66,0,0,0,270.26,502c4.55.42,9.11.49,13.67.71a92.54,92.54,0,0,1,13.59,1.44c1.11.26,2.23.49,3.33.78s2.2.6,3.28,1c2.15.75,4.27,1.61,6.37,2.5,8.4,3.52,16.71,7.39,25.54,9.75a55.66,55.66,0,0,0,13.51,1.95,53.79,53.79,0,0,0,13.53-1.77c4.44-1,8.81-2.37,13.29-3.26a55.09,55.09,0,0,1,6.77-.93,35.42,35.42,0,0,1,6.83.2,49.7,49.7,0,0,1,13.11,3.77,94.86,94.86,0,0,1,12.06,6.44c3.89,2.38,7.63,5,11.42,7.53a98.06,98.06,0,0,0,11.84,6.84c2,1,4.14,1.9,6.24,2.79s4.27,1.62,6.46,2.26a75.3,75.3,0,0,0,13.35,2.89,65.56,65.56,0,0,0,13.65.15,53.18,53.18,0,0,0,13.3-3,26.54,26.54,0,0,0,6-3.26,16,16,0,0,0,4.62-5,10.65,10.65,0,0,0,1.37-6.58,14.78,14.78,0,0,0-2.45-6.31c-2.52-3.83-5.93-6.92-9.07-10.21a36,36,0,0,1-4.36-5.27,61,61,0,0,1-3.44-5.91,52,52,0,0,1-4.62-12.84,43,43,0,0,1-.89-6.78l-.05-1.71,0-1.71c0-.57.08-1.14.13-1.7s.15-1.14.29-1.69c.94-4.51,3.51-8.43,6.16-12.11s5.58-7.26,7.43-11.45a19.1,19.1,0,0,0,1.66-6.6,18.8,18.8,0,0,0-.88-6.74c-1.34-4.37-4-8.2-5.63-12.45a20.55,20.55,0,0,1-1.46-6.66,31.1,31.1,0,0,1,.46-6.81,50.32,50.32,0,0,1,1.65-6.64c.68-2.18,1.58-4.28,2.26-6.46a134,134,0,0,0,3.18-13.3c.47-2.23.95-4.46,1.51-6.67a42.58,42.58,0,0,1,2.13-6.5c1.76-4.23,4.54-7.92,7.25-11.57a52.52,52.52,0,0,0,3.83-5.66l.81-1.5c.26-.51.46-1,.7-1.56a30.05,30.05,0,0,0,1.21-3.2,47.9,47.9,0,0,0,2.07-13.46,127.13,127.13,0,0,0-.55-13.66c-.79-9.09-1.44-18.19-1.89-27.3s-.65-18.24-.55-27.37.59-18.24,1.42-27.33a244.71,244.71,0,0,1,10.75-53.57,187.3,187.3,0,0,1,10.37-25.31c1-2.06,2.1-4,3.18-6.05s2.25-4,3.43-5.93c2.27-3.95,5-7.64,7.07-11.7a31.49,31.49,0,0,0,2.54-6.33,26,26,0,0,0,.86-6.75A41.93,41.93,0,0,0,547.37,111c-1.46-4.32-3.3-8.5-5-12.72S539,89.68,539,85.07a31.17,31.17,0,0,1,.71-6.8c.48-2.23,1.12-4.42,1.76-6.61s1.28-4.38,1.79-6.6a26.2,26.2,0,0,0,1-6.74,5,5,0,0,0-1.15-3.11,6.15,6.15,0,0,0-2.89-1.67,18.07,18.07,0,0,0-3.36-.61c-.56,0-1.13-.11-1.7-.14l-1.7,0A51.55,51.55,0,0,0,520,55.1c-4.38,1.26-8.67,2.82-13,4.17-2.18.67-4.38,1.27-6.57,1.9s-4.37,1.31-6.54,2c-8.68,2.8-17.21,6-25.72,9.33s-17,6.64-25.6,9.67S425.12,87.77,416,88.6a54.71,54.71,0,0,1-13.65-.36,42.15,42.15,0,0,1-6.65-1.62,23.72,23.72,0,0,1-6-3.23c-3.71-2.7-6.69-6.21-10.22-9.1a22.61,22.61,0,0,0-5.8-3.57,17.74,17.74,0,0,0-6.69-1Z"/></svg>