<svg id="Layer_1" data-name="Layer 1" xmlns="http://www.w3.org/2000/svg" viewBox="0 0 600 600"><title>palau</title><path d="M445.08,94.38c-.1-3.37-1.14-6.63-1.85-9.88a34.36,34.36,0,0,0-3.66-9.12,18.57,18.57,0,0,0-3-3.69,15.62,15.62,0,0,0-1.79-1.48c-.32-.22-.67-.39-1-.58a7.58,7.58,0,0,0-1-.53,12.77,12.77,0,0,0-2.07-.76,8.07,8.07,0,0,0-2.07-.23A6.56,6.56,0,0,0,425,69.17a3.83,3.83,0,0,0-1.61,2.58,6.4,6.4,0,0,0,.57,3.4,9.71,9.71,0,0,0,.93,1.7,13.19,13.19,0,0,0,1.27,1.56c1,1.06,2.15,2.1,3.42,3.25a35.1,35.1,0,0,1,3.91,4,24.73,24.73,0,0,1,3.16,5.16,34.5,34.5,0,0,1,2.83,11.24,67.2,67.2,0,0,1,.37,10.8,31.46,31.46,0,0,1-2.78,11.81,21.83,21.83,0,0,1-1.76,3,15.58,15.58,0,0,1-1,1.34c-.33.42-.68.82-1,1.21a29.69,29.69,0,0,1-4.73,4.18,31.67,31.67,0,0,1-11.34,5.09c-1,.23-2.06.42-3.12.55s-2.17.2-3.1.23c-1.91.06-3.44.05-4.49.2a5.55,5.55,0,0,0-1.24.27,2,2,0,0,0-.41.18.66.66,0,0,0-.19.09l-.24.15c-.91.55-2.08,1.48-3.65,2.63-.39.28-.8.57-1.26.87l-.7.45-.91.5a18.39,18.39,0,0,1-3.6,1.46,43.79,43.79,0,0,1-5.87,1.15,15.59,15.59,0,0,0-3.46.79,2.8,2.8,0,0,0-1.25.85,1.88,1.88,0,0,0-.31,1,8,8,0,0,0,.24,2.49l.1.39.09.37.12.61a14.1,14.1,0,0,1,.1,5.08,13.38,13.38,0,0,1-.62,2.42,19.8,19.8,0,0,1-4.24,6.74c-1.47,1.63-2.87,2.91-4.06,4a27.48,27.48,0,0,0-2.77,2.87,16.28,16.28,0,0,0-1.54,2.93,30,30,0,0,0-1.32,3.72,17.21,17.21,0,0,0-.64,6.91c.05.22.09.44.13.65s.12.38.16.56.15.31.2.47.07.06.17.26l.88,1.66c.38.7.83,1.58,1.29,2.54.24.52.48,1.07.71,1.64l.35,1a10.28,10.28,0,0,1,.34,1.06l.3,1.19c.1.37.16.94.23,1.4l.08.74,0,.37v.45c0,.6,0,1.2-.07,1.8a6.47,6.47,0,0,1-.14,1c-.06.35-.14.69-.22,1a11.1,11.1,0,0,1-.68,2,21.21,21.21,0,0,1-1,2,16.48,16.48,0,0,1-1.3,1.69,13.65,13.65,0,0,1-2.83,2.51c-.23.16-.5.36-.72.48l-.62.35c-.42.23-.85.44-1.28.64l-.66.3-.75.28c-.49.17-1,.31-1.47.43a18.64,18.64,0,0,1-2.75.47,25.47,25.47,0,0,1-4.4,0,7.89,7.89,0,0,1-2.87-.59,3.84,3.84,0,0,1-1.38-1.21c-.15-.18-.2-.34-.33-.42a1.1,1.1,0,0,0-.49-.12c-.12,0-.28,0-.34,0l-.13,0a.07.07,0,0,1-.06,0c-.16,0,0-.23-.16,0a6.18,6.18,0,0,0-.66,2c-.18,1.09-.33,2.42-.47,3.89s-.27,3.11-.46,4.86a55.44,55.44,0,0,1-.82,5.9c-.1.55-.26,1.17-.42,1.77l-.36,1.16c-.24.72-.46,1.37-.62,1.92a11.25,11.25,0,0,0-.47,2.29.78.78,0,0,1-.11.36c0,.07-.05.18.11.38a7.14,7.14,0,0,0,2.74,1.48c1.37.52,3.06.93,4.94,1.59.95.35,2,.73,3,1.24a14.29,14.29,0,0,1,3.22,2.16,12,12,0,0,1,2.64,3.38,11.67,11.67,0,0,1,.8,1.92c.1.32.19.62.28,1s.15.75.21,1.11a15.6,15.6,0,0,1,0,3.59l-.17,2.57c-.16,2.64.58,4.37,1.95,6.95.68,1.27,1.58,2.63,2.4,4.12l.59,1.14c.1.2.07.45.2.64a5.38,5.38,0,0,0,.47.49,9.56,9.56,0,0,1,2.06,1.94c1.54,3.15,2.94,6.43,4.2,9.75.63,1.65,1.21,3.32,1.75,4.83a24.77,24.77,0,0,0,1.43,3.43,5.41,5.41,0,0,0,.74,1,5.51,5.51,0,0,0,.54.56l.53.48a15.59,15.59,0,0,0,3.08,1.77,16.39,16.39,0,0,0,3.44,1.13c1,.24,1.84.09,1.62.19a1.43,1.43,0,0,0-.39.49c0,.07,0,.11,0,.08s.08-.17.08-.15a1.68,1.68,0,0,0,0-.85c-.07-.53-.24-1.23-.45-2.16a19.05,19.05,0,0,1-.52-3.42,11,11,0,0,1,.69-4.66,11.75,11.75,0,0,1,2.38-3.66c.8-.85,1.5-1.46,2-1.94s.82-.82.88-.88,0,0,0,.11,0,.27,0,.22a4.3,4.3,0,0,0-.07-.71,16.1,16.1,0,0,1-.21-1.8,8.42,8.42,0,0,1,.29-2.77,6.7,6.7,0,0,1,2.05-3.27,3.7,3.7,0,0,1,.41-.34,6,6,0,0,1,.53-.34,5,5,0,0,1,1.14-.54,7.1,7.1,0,0,1,1.27-.3,8,8,0,0,1,1.2,0,7,7,0,0,1,3.21,1.14,10,10,0,0,1,3,3.15,9.5,9.5,0,0,1,1,2.18,7.46,7.46,0,0,1,.21.88,5.93,5.93,0,0,1,.07.59,10.33,10.33,0,0,1,0,1.09A21.18,21.18,0,0,1,406,284a1.9,1.9,0,0,0,0,.55,1.67,1.67,0,0,0,.06.38,2.47,2.47,0,0,0,.52.78,3.89,3.89,0,0,0,2.3.93,2.87,2.87,0,0,0,1.11-.19,1.06,1.06,0,0,0,.39-.23c.09-.11.16-.16.34-.34a2.79,2.79,0,0,0,.93-1.75,17.17,17.17,0,0,0-.36-5.77c-.13-.58-.25-1.18-.41-1.77-.09-.28-.14-.57-.21-.88-.12-.48-.22-.95-.3-1.44a18.61,18.61,0,0,1,.15-5.95c.13-1,.37-2,.5-2.9s.32-1.88.43-2.79c.22-1.82.14-3.6.28-5.37.21-3.56.88-7,1.41-10.38.31-1.69.58-3.33,1-5.14a20.86,20.86,0,0,1,2.1-5.62,26.14,26.14,0,0,1,3.62-4.59,20.75,20.75,0,0,0,2.71-3.38,5.13,5.13,0,0,0,.59-1.4,9.83,9.83,0,0,0,.28-1.71c.14-1.35.13-3.09.47-5.22a15.35,15.35,0,0,1,.95-3.36,19.72,19.72,0,0,1,1.56-3,31.82,31.82,0,0,1,3.6-4.61l3.49-3.69a38.45,38.45,0,0,0,2.7-3.21,5.59,5.59,0,0,0,1.08-2.28,1.88,1.88,0,0,0,0-.78,3.92,3.92,0,0,0-.34-1c-.08-.21-.24-.44-.34-.66s-.32-.47-.47-.7-.38-.49-.57-.73a5.91,5.91,0,0,0-.55-.64c-.81-.85-2.16-1.86-3.7-3.33-.39-.38-.76-.76-1.17-1.24A11.67,11.67,0,0,1,429,189a12.39,12.39,0,0,1-1.61-3.75,9.63,9.63,0,0,1,.06-4.85,8.2,8.2,0,0,1,.46-1.23,10.28,10.28,0,0,1,.58-1.08,9.15,9.15,0,0,1,1.51-1.83,12.42,12.42,0,0,1,3.16-2.13c.95-.46,1.74-.76,2.36-1,.3-.13.58-.25.78-.36a3.26,3.26,0,0,0,.54-.31,6,6,0,0,0,1.1-1,10.72,10.72,0,0,0,1.73-3.32,18.11,18.11,0,0,0,.84-4.18c.28-3,0-6.35.16-9.9a47,47,0,0,1,1.6-10.48c.87-3.35,2-6.56,3-9.76,2-6.36,4-12.84,3-19.5-.37-3.32-1.23-6.58-1.89-9.88-.31-1.65-.63-3.31-.79-5l-.46-5Zm.05,0,.78,5c.27,1.65.68,3.27,1.1,4.88a88.38,88.38,0,0,1,2.3,9.86,31.2,31.2,0,0,1,.4,5.12,37.47,37.47,0,0,1-.47,5.11,91.28,91.28,0,0,1-2.21,9.89c-1.73,6.48-3.57,13-3.37,19.68.08,3.33.51,6.69.41,10.09a18.35,18.35,0,0,1-2.72,9.72,9.58,9.58,0,0,1-3.83,3.34,16.88,16.88,0,0,0-4.29,2.5,4.54,4.54,0,0,0-1.25,2.06,4.77,4.77,0,0,0,0,2.43,8.85,8.85,0,0,0,2.66,4.13c1.21,1.15,2.59,2.13,3.8,3.31a16.43,16.43,0,0,1,3,4,8.27,8.27,0,0,1,.93,4.87,10.52,10.52,0,0,1-2,4.59c-2,2.74-4.52,5-6.84,7.38a30.5,30.5,0,0,0-3.26,3.84,12.16,12.16,0,0,0-2,4.58c-.35,1.65-.45,3.33-.73,5a10.61,10.61,0,0,1-1.82,4.65c-1.94,2.75-4.89,4.64-6.7,7.5s-2.3,6.31-3,9.57a76,76,0,0,0-1.42,10,40.21,40.21,0,0,0,.5,10,35.6,35.6,0,0,0,1.2,4.89,31.48,31.48,0,0,1,1.33,4.86,19.18,19.18,0,0,1,.25,5,11.44,11.44,0,0,1-1.46,4.77,8,8,0,0,1-8.6,3.82,8.44,8.44,0,0,1-4.3-2.48,7,7,0,0,1-1.28-2.15,6.56,6.56,0,0,1-.29-2.49c.05-.84.2-1.67.19-2.51A4,4,0,0,0,402,280a5.17,5.17,0,0,0-.58-1.12,6.35,6.35,0,0,0-1.78-1.76,2.7,2.7,0,0,0-1.17-.42,1.49,1.49,0,0,0-1.15.41,2.76,2.76,0,0,0-.73,2.32c.05.84.31,1.65.36,2.49a4.07,4.07,0,0,1-.57,2.41,9.58,9.58,0,0,1-1.58,1.95c-1.16,1.19-2.5,2.32-3.11,3.92a8.21,8.21,0,0,0,.15,4.95,14.25,14.25,0,0,1,.76,5,6.27,6.27,0,0,1-.79,2.37,4.43,4.43,0,0,1-1.85,1.66,8.59,8.59,0,0,1-4.94.5,21.35,21.35,0,0,1-4.84-1.35,22.22,22.22,0,0,1-4.44-2.36,14.6,14.6,0,0,1-3.49-3.61,25.26,25.26,0,0,1-2.11-4.57c-.59-1.57-1.17-3.15-1.79-4.71-1.24-3.12-2.63-6.18-4.12-9.19s-3.21-5.91-4.68-8.93a20.4,20.4,0,0,1-1.7-4.73,16.92,16.92,0,0,1-.24-5,21.64,21.64,0,0,0,.25-5,7,7,0,0,0-2.39-4.31,11.86,11.86,0,0,0-4.5-2.18c-1.61-.46-3.26-.79-4.89-1.21a15.32,15.32,0,0,1-4.66-1.86,6.79,6.79,0,0,1-2.87-4,11.88,11.88,0,0,1-.15-5c.23-1.67.73-3.28,1-4.94.48-3.34.35-6.71.53-10.06s.51-6.81,2.25-9.73a8,8,0,0,1,3.73-3.27,11.81,11.81,0,0,1,4.92-.89c1.68.06,3.33.43,5,.6a9.38,9.38,0,0,0,5-.55,5.62,5.62,0,0,0,2-1.41,3.86,3.86,0,0,0,1-2.25,10.84,10.84,0,0,0-1-4.87c-.64-1.56-1.4-3.06-2-4.63a15.16,15.16,0,0,1-.86-4.95,28.68,28.68,0,0,1,1.81-9.86,40.28,40.28,0,0,1,2-4.61,24.09,24.09,0,0,1,2.72-4.24c2.21-2.54,5-4.5,7.29-7a12.59,12.59,0,0,0,2.76-4.17,6.85,6.85,0,0,0,.42-2.46,5.33,5.33,0,0,0-.14-1.25c-.05-.41-.16-.82-.25-1.23a14.55,14.55,0,0,1-.25-5,8.76,8.76,0,0,1,2-4.55,10,10,0,0,1,4.16-2.76,23.38,23.38,0,0,1,4.91-1.07,36,36,0,0,0,5-.88,13.52,13.52,0,0,0,4.47-2.24c1.38-1,2.7-2,4.15-2.86a11.26,11.26,0,0,1,4.79-1.47c1.67-.17,3.36-.1,5-.12a25.44,25.44,0,0,0,14.19-4.48,20.6,20.6,0,0,0,6.73-7.34,27.9,27.9,0,0,0,2.49-9.7,76.93,76.93,0,0,0,.16-10.07,29.58,29.58,0,0,0-1.88-9.85A21,21,0,0,0,430.21,88a35,35,0,0,0-3.29-3.81c-2.29-2.4-4.79-4.86-5.8-8.14a8.89,8.89,0,0,1-.27-5,6.25,6.25,0,0,1,3-3.88,9.86,9.86,0,0,1,9.66.53,17.8,17.8,0,0,1,6.91,7.17,35.78,35.78,0,0,1,3.28,9.5c.71,3.29,1,6.64,1.45,10Z"/><g id="medium_islands" data-name="medium islands"><path d="M369.15,301a9.38,9.38,0,0,0-1.59-2.89,7.36,7.36,0,0,1-1.38-3c-.21-1.1-.29-2.21-.54-3.27a9.48,9.48,0,0,0-1.28-3,6.14,6.14,0,0,0-5.2-2.92,4.4,4.4,0,0,0-2.68.92c-.74.57-1.33,1.54-2.46,2.34a7.48,7.48,0,0,1-3.68,1.12c-1.21.08-2.19.16-3.39.22l-3.33.07a10.84,10.84,0,0,0-2.77.32,1.73,1.73,0,0,0-.73.46,1.19,1.19,0,0,0-.18.29.12.12,0,0,0,0,.11s0,.05,0,.06,0,.06.16.3a4.84,4.84,0,0,0,.76.81c.67.62,1.55,1.19,2.52,2a8.2,8.2,0,0,1,1.48,1.52c.39.51.68.94.93,1.22a2.42,2.42,0,0,0,1.49.87,1,1,0,0,0,.49-.07c.1,0,.26-.17.56-.58l.52-.7a5.92,5.92,0,0,1,.81-.86,6.36,6.36,0,0,1,1.93-1.18,10.81,10.81,0,0,1,3.9-.74,12.25,12.25,0,0,1,3.79.5,7,7,0,0,1,3.46,2.33,5.06,5.06,0,0,1,1,2,4.79,4.79,0,0,1,0,2.23,5,5,0,0,1-2.55,3.28,10.36,10.36,0,0,1-1.71.56c-.46.14-.64.25-.75.48a4.75,4.75,0,0,0,.28,2.76,9,9,0,0,0,1.52,2.73,3.23,3.23,0,0,0,1.16.9,1.49,1.49,0,0,0,1.33-.07,7.69,7.69,0,0,0,2.05-2.43,19.72,19.72,0,0,1,1.93-2.72,11.89,11.89,0,0,0,1.88-2.72A4.88,4.88,0,0,0,369.15,301Zm0,0a4.87,4.87,0,0,1-.36,3.25A12.67,12.67,0,0,1,367,307a15.84,15.84,0,0,0-1.75,2.8,7.77,7.77,0,0,1-2.05,2.74,2.23,2.23,0,0,1-1.85.25,4.1,4.1,0,0,1-1.56-1,10,10,0,0,1-2-2.87,10.15,10.15,0,0,1-.61-1.68,4.83,4.83,0,0,1-.16-.95,3.38,3.38,0,0,1,.08-1.07,2.33,2.33,0,0,1,.67-1.1,3.85,3.85,0,0,1,.95-.59,8.14,8.14,0,0,0,1.38-.63,2.8,2.8,0,0,0,1.17-2,2.33,2.33,0,0,0-.72-2,4.12,4.12,0,0,0-2.13-1.1,11.23,11.23,0,0,0-2.8-.09,7.19,7.19,0,0,0-2.57.65,2.9,2.9,0,0,0-.86.6,3,3,0,0,0-.29.37l-.45.65a5.49,5.49,0,0,1-1.78,1.75,4.64,4.64,0,0,1-2.71.61,6.24,6.24,0,0,1-4.22-2.2c-.48-.56-.8-1.07-1.08-1.43a4.2,4.2,0,0,0-.82-.87c-.75-.62-1.72-1.3-2.66-2.21a7.63,7.63,0,0,1-1.37-1.73,4.89,4.89,0,0,1-.5-1.29,4,4,0,0,1,0-1.58,2.84,2.84,0,0,1,.24-.73,2.67,2.67,0,0,1,.33-.63,4.75,4.75,0,0,1,.84-1,5.22,5.22,0,0,1,2.14-1.15,6.2,6.2,0,0,1,1.11-.21,8.63,8.63,0,0,1,1,0c.6,0,1.18,0,1.75.08l3.32.26,3.26.18a5.41,5.41,0,0,0,2.71-.42c.77-.38,1.51-1.26,2.61-2a5.86,5.86,0,0,1,3.62-.81,6.74,6.74,0,0,1,3.35,1.22,8.09,8.09,0,0,1,2.28,2.6,9.66,9.66,0,0,1,1.13,3.19c.21,1.11.18,2.23.36,3.31a7,7,0,0,0,1.27,3A9.52,9.52,0,0,1,369.15,301Z"/><path d="M332,313.54a8,8,0,0,0-2.86-2.27c-1.1-.58-2.24-1.11-3.33-1.75-2.18-1.25-4.26-2.68-6.38-4-.5-.3-1.12-.69-1.61-1.05a3.84,3.84,0,0,0-.66-.39c-.08,0-.11,0,0,0a.57.57,0,0,0,.3,0c.1-.06.15-.08.19-.14s0,.19,0,.4a6.83,6.83,0,0,0,0,.77,6,6,0,0,0,.27,1.51,6.49,6.49,0,0,0,1.67,2.44,5.7,5.7,0,0,0,1.17.81c.44.22,1,.41,1.56.64a12.89,12.89,0,0,1,1.93.89,5.42,5.42,0,0,1,1.89,1.81,4.68,4.68,0,0,1,.74,2.76,3.48,3.48,0,0,1-1.77,2.8c-.86.47-1.47.6-1.71.75a1.25,1.25,0,0,0-.55.63,5.15,5.15,0,0,0-.18,2.8,17.28,17.28,0,0,1,.43,4,5,5,0,0,1-2.45,4.13,14.89,14.89,0,0,1-1.79.94c-.59.26-1,.51-1.8.86a5.42,5.42,0,0,1-2.31.25A16.29,16.29,0,0,0,313,333a4.8,4.8,0,0,0-2.75,1.34,33,33,0,0,0-2.58,2.58,12.09,12.09,0,0,0-3.49,6.09c-.18,1.12,0,2.4-.2,3.72a3.58,3.58,0,0,1-.79,2,2.5,2.5,0,0,1-2.07.79c-.7,0-1.3-.21-1.84-.19a3.47,3.47,0,0,0-1.6.39,8.45,8.45,0,0,0-2.64,2.3c-.76.92-1.45,2-2.33,3a10.35,10.35,0,0,1-1.45,1.35,5.11,5.11,0,0,1-1.88,1,3.22,3.22,0,0,1-2.33-.26,4.84,4.84,0,0,1-1.64-1.49,11.14,11.14,0,0,0-1.08-1.36,1.52,1.52,0,0,0-1-.53,2,2,0,0,0-1.69,1.44,7,7,0,0,0,0,3.13,10.76,10.76,0,0,0,.92,3.14,5.12,5.12,0,0,0,.82,1.19l.24.24a1.88,1.88,0,0,0,.18.12,1.07,1.07,0,0,0,.39.16,6.73,6.73,0,0,0,1.45.13,5.63,5.63,0,0,1,2.56.63,4.2,4.2,0,0,1,.67.46,3.9,3.9,0,0,1,.63.76,7.2,7.2,0,0,1,.55,1.16l.63,1.73a2.54,2.54,0,0,0,.45.84s-.06,0-.1-.06-.16,0-.17,0,0,0,.05-.05c.41-.26.28-.12.43-.38a7.08,7.08,0,0,0,.43-1.39,9.62,9.62,0,0,1,.8-2.17,9.91,9.91,0,0,1,1.3-1.86,17.67,17.67,0,0,1,1.42-1.44l.65-.63.31-.31.16-.17A7.3,7.3,0,0,0,297,359a6.6,6.6,0,0,1,1.39-2.09,3.69,3.69,0,0,1,1.41-.83,5.35,5.35,0,0,1,1.28-.2,5.79,5.79,0,0,0,1.47-.23,9.24,9.24,0,0,0,2.83-1.57c.47-.36,1-.76,1.43-1.13a5.34,5.34,0,0,0,1.06-1.08,7.22,7.22,0,0,0,.81-3.15,19,19,0,0,1,.88-3.83,11.35,11.35,0,0,1,1.9-3.5,8.78,8.78,0,0,1,3.19-2.48,6.94,6.94,0,0,1,4.06-.52,8.07,8.07,0,0,1,3.6,1.83,33.2,33.2,0,0,1,2.73,2.7l2.56,2.73a28.59,28.59,0,0,0,2.55,2.52,2.32,2.32,0,0,0,1.17.51,1,1,0,0,0,.81-.34,2.92,2.92,0,0,0,.51-2.46c-.07-.52-.19-1.17-.3-1.73a4.38,4.38,0,0,0-.44-1.33c-.22-.31-.23-.27-.52-.37a11.62,11.62,0,0,1-1.93-.44,4,4,0,0,1-1.34-.86,5.85,5.85,0,0,1-.85-1.05,10.59,10.59,0,0,1-1-2c-.86-2.4-1.67-4.72-2.48-7.09a16.35,16.35,0,0,1-1-4.12,5.82,5.82,0,0,1,.5-2.78,4.56,4.56,0,0,1,2.21-2.21,7.62,7.62,0,0,1,2.3-.6c.68-.07,1.3-.09,1.85-.12a6.89,6.89,0,0,0,1.43-.19,1.79,1.79,0,0,0,.53-.22,2.25,2.25,0,0,0,.47-.46A5.58,5.58,0,0,0,333,317,6.59,6.59,0,0,0,332,313.54Zm.21-.15a10.76,10.76,0,0,1,1.48,3.52,8.63,8.63,0,0,1,.16,4.1,4.67,4.67,0,0,1-.49,1.14,4.18,4.18,0,0,1-.89,1,7.41,7.41,0,0,1-2.06,1.1,23.67,23.67,0,0,0-3.08,1.12.81.81,0,0,0-.36.41,1.82,1.82,0,0,0-.12.87,16,16,0,0,0,.81,3.11l2.16,7.14a8,8,0,0,0,.52,1.39c.09.16.23.37.28.44a.65.65,0,0,0,.2.17c.17.13.78.18,1.69.51a3.88,3.88,0,0,1,1.33.82,4,4,0,0,1,.86,1.23,7.33,7.33,0,0,1,.55,2.26c.07.68.12,1.26.15,2a7.36,7.36,0,0,1-.27,2.27,4.39,4.39,0,0,1-1.4,2.14,3.32,3.32,0,0,1-2.65.73,4.45,4.45,0,0,1-2.15-1.11,32.46,32.46,0,0,1-2.56-2.93l-2.41-2.87a22.55,22.55,0,0,0-2.49-2.65,6.62,6.62,0,0,0-3-1.6,5.22,5.22,0,0,0-3.24.45,7,7,0,0,0-2.62,2.13,9.87,9.87,0,0,0-1.49,3.12,15.19,15.19,0,0,0-.53,3.51,9.68,9.68,0,0,1-.77,4.09,7.17,7.17,0,0,1-1.38,1.75c-.46.45-.9.88-1.38,1.33a11.9,11.9,0,0,1-3.49,2.36,8.21,8.21,0,0,1-2.18.55,2.31,2.31,0,0,0-.56.12.7.7,0,0,0-.15.15,4.44,4.44,0,0,0-.53,1.1,10.47,10.47,0,0,1-1,2c-2.08,2.48-3.51,3.45-3.87,5.45a9.76,9.76,0,0,1-.68,2.17,4.32,4.32,0,0,1-1,1.3,5.76,5.76,0,0,1-1.27.8,4.11,4.11,0,0,1-1.76.35,3.32,3.32,0,0,1-1.08-.23,4.06,4.06,0,0,1-.89-.56,5.71,5.71,0,0,1-1.46-2.34c-.24-.67-.42-1.29-.58-1.8a3.58,3.58,0,0,0-.21-.55c0-.08.07.07.06,0s-.05-.06-.09-.08a2.25,2.25,0,0,0-1-.25,8.85,8.85,0,0,1-2.24-.4,4.77,4.77,0,0,1-1.27-.69c-.19-.15-.36-.32-.53-.48s-.27-.3-.39-.45a8.45,8.45,0,0,1-1.14-2,12.66,12.66,0,0,1-.84-4.1,9.15,9.15,0,0,1,.54-4.26,4.41,4.41,0,0,1,1.56-1.89,3.59,3.59,0,0,1,2.49-.64,3.54,3.54,0,0,1,2.15,1.27,13.41,13.41,0,0,1,1.12,1.65c.58,1,1.33,1.54,2.29,1.34a6.22,6.22,0,0,0,2.79-1.8,34.44,34.44,0,0,0,2.38-2.83,9.52,9.52,0,0,1,3-2.5,4.74,4.74,0,0,1,2-.47c.71,0,1.34.16,1.89.17a1.56,1.56,0,0,0,1.3-.48,2.76,2.76,0,0,0,.52-1.45c.15-1.17-.08-2.39.08-3.75a10.13,10.13,0,0,1,1.28-3.74,21.58,21.58,0,0,1,2.19-3.18c.81-1,1.59-1.93,2.53-2.89a6.64,6.64,0,0,1,3.75-2.07,15.63,15.63,0,0,1,2-.05,3.13,3.13,0,0,0,1.38-.24c.3-.14,1-.59,1.51-.87a12.41,12.41,0,0,0,1.46-.91,2.29,2.29,0,0,0,1.09-2.1,19.14,19.14,0,0,0-.58-3.38,8,8,0,0,1,.24-4.56,4.52,4.52,0,0,1,1.83-2.18c.85-.47,1.48-.61,1.7-.77s.11-.09.12-.1a.31.31,0,0,0,0-.12,1.5,1.5,0,0,0-.26-.79,2,2,0,0,0-.8-.72,10.07,10.07,0,0,0-1.46-.69,16,16,0,0,1-1.86-.88,7.88,7.88,0,0,1-1.81-1.43,8.43,8.43,0,0,1-2.09-3.94,8.78,8.78,0,0,1-.11-2.2c0-.35.07-.7.14-1.09a3.2,3.2,0,0,1,.58-1.36,1.53,1.53,0,0,1,.55-.43,1.43,1.43,0,0,1,.74-.15,1.81,1.81,0,0,1,.88.31,6.25,6.25,0,0,1,.86.71,17.77,17.77,0,0,0,1.35,1.23c1.91,1.64,3.75,3.32,5.77,4.75a32.88,32.88,0,0,0,3.18,1.94A9.26,9.26,0,0,1,332.19,313.39Z"/><path d="M290.34,410.35a5.12,5.12,0,0,1-.91-2.1,10.62,10.62,0,0,1-.21-2.26,5.17,5.17,0,0,1,.47-2.29,14.56,14.56,0,0,1,1.36-1.85,8.48,8.48,0,0,0,1.15-7.67,19.19,19.19,0,0,0-.8-1.91c-.15-.33-.32-.68-.46-1l-.42-1.06-.8-2-.37-1a4.33,4.33,0,0,0-.36-.62,1.64,1.64,0,0,0-.33-.37.51.51,0,0,0,.36,0,.18.18,0,0,0,.14,0,.07.07,0,0,0,.06,0s0,0,0,0,0,.05-.07.18a3.25,3.25,0,0,0,.2,1.36,8.57,8.57,0,0,1,.47,2.69,3.37,3.37,0,0,1-.63,2,2.53,2.53,0,0,1-1.25.89,2.25,2.25,0,0,1-1.76-.19,2.85,2.85,0,0,1-1.34-1.89,6.55,6.55,0,0,1-.09-1.33v-.36s0,0,.13,0a.55.55,0,0,0,.36,0c.25-.14.09-.15,0,0a3.41,3.41,0,0,0-.25.78,14.82,14.82,0,0,0,0,4.16,10.36,10.36,0,0,1-.45,4.69,6.65,6.65,0,0,1-3.06,3.69,5.06,5.06,0,0,1-4.86-.23,5,5,0,0,1-2.43-4.36,5.65,5.65,0,0,1,.65-2.55,5.72,5.72,0,0,1,1.81-2,18.77,18.77,0,0,0,1.71-1.22,1.79,1.79,0,0,0,.67-1.09.73.73,0,0,0-.35-.59c-.08-.06-.2-.07-.17,0a3,3,0,0,0-.52.13,33.41,33.41,0,0,0-3.65,1.86,11.16,11.16,0,0,0-3,2.24,6.47,6.47,0,0,0-1.53,3,14,14,0,0,0-.23,3.85,11.18,11.18,0,0,0,.57,3.58,3.34,3.34,0,0,0,.27.49l.29.39.36.47.72,1c.12.17.22.28.37.5a7.44,7.44,0,0,1,.38.68l.46.92a1.21,1.21,0,0,0,.14.23s0,0,0,0l0,0a1.94,1.94,0,0,0,.88.15c.58,0,1.26,0,2.1-.07h.69l.61.05a4.89,4.89,0,0,0,.7,0,.72.72,0,0,0,.36-.1,12.37,12.37,0,0,1,1.15-.61,6,6,0,0,1,3.05-.4,9,9,0,0,1,4.72,2.22c1.23,1.05,2.18,2.17,3.23,3.09a6.56,6.56,0,0,0,1.57,1.13,1.26,1.26,0,0,0,.67.1c.11,0,.19-.05.22-.29s-.08-.62-.09-1.08a2.46,2.46,0,0,1,0-.37,1.59,1.59,0,0,1,.15-.39,4.33,4.33,0,0,1,.37-.5,9.25,9.25,0,0,0,.68-.83,1.24,1.24,0,0,0,.17-.38.32.32,0,0,0-.06-.25.84.84,0,0,0-.79-.12,3.23,3.23,0,0,1-1.17.15A3.27,3.27,0,0,1,290.34,410.35Zm.32-.24a2,2,0,0,0,2.68.88,1.38,1.38,0,0,1,1.31.19,1,1,0,0,1,.29.76,1.67,1.67,0,0,1-.22.64c-.2.36-.43.67-.62,1a2.72,2.72,0,0,0-.25.42.53.53,0,0,0,0,.13.57.57,0,0,0,0,.18,10.06,10.06,0,0,1,.25,1.1,1.45,1.45,0,0,1-.83,1.48,2.44,2.44,0,0,1-1.51.12,7.74,7.74,0,0,1-2.28-1c-1.34-.82-2.53-1.74-3.71-2.42a6.56,6.56,0,0,0-3.39-1,2.41,2.41,0,0,0-1.27.35c-.15.08-.34.24-.75.52a4.64,4.64,0,0,1-1.7.69,7,7,0,0,1-1.51.1h-.49l-.42,0c-.64.05-1.42.16-2.32.18a8.33,8.33,0,0,1-1.51-.12,4.4,4.4,0,0,1-1.84-.76,3,3,0,0,1-.48-.41,3.19,3.19,0,0,1-.35-.41,5.15,5.15,0,0,1-.46-.69c-.24-.41-.42-.77-.56-1l-.17-.3-.29-.38-.62-.81-.69-.9a6.31,6.31,0,0,1-.8-1.44,13.77,13.77,0,0,1-.78-5.13,18.13,18.13,0,0,1,.54-4.94,10.32,10.32,0,0,1,2.68-4.65,14.57,14.57,0,0,1,4.2-2.79,24.72,24.72,0,0,1,4.41-1.78,4.52,4.52,0,0,1,1.66-.11,3.19,3.19,0,0,1,1.81.87,3.54,3.54,0,0,1,1,3.4,4.42,4.42,0,0,1-1.83,2.47,20.54,20.54,0,0,1-2,1.13,3.58,3.58,0,0,0-1.33,1.1,3.41,3.41,0,0,0-.61,1.64,3.46,3.46,0,0,0,.26,1.77,3.38,3.38,0,0,0,1.19,1.36,3.54,3.54,0,0,0,3.59.29,4.94,4.94,0,0,0,2.39-3,8.23,8.23,0,0,0,0-4.07,18.14,18.14,0,0,1-.55-4.65,5.34,5.34,0,0,1,.24-1.37,2.86,2.86,0,0,1,.42-.81,2.13,2.13,0,0,1,1-.75,2,2,0,0,1,1.44,0,2.43,2.43,0,0,1,1,.73,3.37,3.37,0,0,1,.69,1.72,4,4,0,0,0,.15.87s.13,0-.09-.13a.9.9,0,0,0-.69-.09.75.75,0,0,0-.38.23c-.11.14-.06.08-.08-.11a8,8,0,0,0-.47-1.63,6,6,0,0,1-.4-3,3.85,3.85,0,0,1,.78-1.85,3.58,3.58,0,0,1,1.34-1,4.6,4.6,0,0,1,.66-.2,2.86,2.86,0,0,1,1.41.11,3.48,3.48,0,0,1,1,.54,5.17,5.17,0,0,1,1.13,1.27,6.5,6.5,0,0,1,.66,1.35l.33,1.09.62,2.19.56,2.08a22.15,22.15,0,0,1,.56,2.3,10.61,10.61,0,0,1-2.85,8.94,10.55,10.55,0,0,0-1.49,1.53,4.2,4.2,0,0,0-.58,2A6.1,6.1,0,0,0,290.66,410.11Z"/><path d="M225.28,468a10.65,10.65,0,0,1,1.19-1.74,2.23,2.23,0,0,0,.49-1.74,1.41,1.41,0,0,0-1.32-.93,3.45,3.45,0,0,0-1.82.35,11.35,11.35,0,0,0-3.19,2.3,20.88,20.88,0,0,0-2.69,2.86,23.09,23.09,0,0,0-1.79,3.45,20.76,20.76,0,0,1-2.34,3.77,26,26,0,0,1-6.52,5.8,33.78,33.78,0,0,1-3.77,2.07c-.64.31-1.28.61-1.93.88a15.18,15.18,0,0,0-1.68.75,1.49,1.49,0,0,0-.76.95,7.23,7.23,0,0,0-.21,1.82c-.06,1.38-.12,2.77-.13,4.15-.08,2.76,0,5.51.07,8.27a26.68,26.68,0,0,0,.3,4,3.16,3.16,0,0,0,.71,1.52,2.44,2.44,0,0,0,1.25.81.35.35,0,0,0,.33-.07.9.9,0,0,0,.28-.38c.21-.38.32-1.07.7-1.9a3.64,3.64,0,0,1,.92-1.2c.39-.34.78-.54.87-.64s0-.05.06-.22a4,4,0,0,0,.07-.71,7.44,7.44,0,0,1,.29-2.44,3.56,3.56,0,0,1,1-1.51,3.83,3.83,0,0,1,1.61-.85c1-.24,1.67-.19,2.13-.32a6.18,6.18,0,0,0,1.5-.55,18.23,18.23,0,0,0,3.06-2.14l3.23-2.56c1-.84,2-1.71,3-2.61.48-.45.94-.92,1.39-1.38a16,16,0,0,0,1.2-1.33,1.8,1.8,0,0,0,.41-.8c0-.13,0-.45,0-.93a4.36,4.36,0,0,1,.51-1.88,5.35,5.35,0,0,1,2.58-2.18c.82-.36,1.4-.54,2-.77a5.7,5.7,0,0,0,1.32-.69,2.19,2.19,0,0,0,.66-.75c.09-.25.11-.25.07-.44a1.26,1.26,0,0,1-.05-.16s.06,0,.07-.05-.43,0-1,.38a11,11,0,0,1-2.15,1,6.27,6.27,0,0,1-2.61.33,4.52,4.52,0,0,1-1.36-.37,4.36,4.36,0,0,1-1.12-.74,4.17,4.17,0,0,1-.87-1,2.18,2.18,0,0,1-.29-1.67,1.76,1.76,0,0,1,1.23-1.23,5,5,0,0,1,1.2-.18,15.75,15.75,0,0,0,2-.13c.63-.09,1.17-.34,1.19-.78v0h0a2.44,2.44,0,0,0-.47-1.12,9.58,9.58,0,0,1-.78-1.32A4,4,0,0,1,225.28,468Zm.36.16a3.37,3.37,0,0,0,.14,2.69,7,7,0,0,0,.8,1.17,5.1,5.1,0,0,1,.43.64,1.67,1.67,0,0,1,.27.88v0a1.44,1.44,0,0,1-.61,1.21,3.34,3.34,0,0,1-1.07.53,14.64,14.64,0,0,1-2.09.46,3,3,0,0,0-.82.26c-.2.12-.16.19-.13.2a.7.7,0,0,0,.19.28,2.58,2.58,0,0,0,1.26.71,2,2,0,0,0,.65,0,3.76,3.76,0,0,0,1.42-.49,9.78,9.78,0,0,0,1.42-1,6.53,6.53,0,0,1,1.05-.73,3.83,3.83,0,0,1,1.7-.52,4,4,0,0,1,3.66,5.47,7,7,0,0,1-4,3.92c-.69.32-1.41.58-1.85.79s-.67.46-.59.39,0-.12,0,.11,0,.58-.05,1.13a5.74,5.74,0,0,1-1.27,2.93,17.44,17.44,0,0,1-1.59,1.73c-.52.51-1.06,1-1.6,1.47-1.09.95-2.21,1.84-3.35,2.69s-2.31,1.62-3.38,2.41a20.75,20.75,0,0,1-3.87,2.38,9.72,9.72,0,0,1-2.43.69c-.89.12-1.65.08-2,.13l-.24,0s-.1.05-.17.2a6.37,6.37,0,0,0-.34,1.63,5.91,5.91,0,0,1-.33,1.32,2.94,2.94,0,0,1-1.12,1.43c-1,.56-.94.42-1.25.86s-.47,1.08-1,1.88a2.92,2.92,0,0,1-1.19,1,2.4,2.4,0,0,1-1.68.09,4.22,4.22,0,0,1-2-1.58,5.09,5.09,0,0,1-.86-2.26,41.35,41.35,0,0,1-.12-4.25c0-2.76-.08-5.52-.27-8.27-.08-1.38-.19-2.76-.31-4.14a10.2,10.2,0,0,1,0-2.3,3.75,3.75,0,0,1,.45-1.36,4.15,4.15,0,0,1,.94-1.12,15.9,15.9,0,0,1,1.92-1.26l1.72-1.06c1.13-.72,2.23-1.48,3.29-2.26a37.24,37.24,0,0,0,5.79-5.17,25.17,25.17,0,0,0,2.33-3.06,21.77,21.77,0,0,1,2.65-3.52,22.42,22.42,0,0,1,3.51-2.59,14.53,14.53,0,0,1,3.89-1.91,4.74,4.74,0,0,1,2.25-.12,2.62,2.62,0,0,1,1.07.47,1.77,1.77,0,0,1,.64,1,2.73,2.73,0,0,1-.65,2.11A10.28,10.28,0,0,0,225.64,468.13Z"/><path d="M165.59,523.39a30.37,30.37,0,0,0-4.9-1.07,10.7,10.7,0,0,0-4.88.44,3.1,3.1,0,0,0-1.69,1.44,5.12,5.12,0,0,0-.49,2.22,15.21,15.21,0,0,0,.19,2.4c.11.83.2,1.72.25,2.58a57.25,57.25,0,0,1-.75,10.23l-.3,2.43a16.3,16.3,0,0,0-.16,2.15,2.24,2.24,0,0,0,.42,1.22,1.47,1.47,0,0,0,.91.52,6.91,6.91,0,0,0,3.65-.76,30.55,30.55,0,0,0,4.1-2.23,27.68,27.68,0,0,0,7.23-6.21,16.23,16.23,0,0,0,2.44-4.13,9.36,9.36,0,0,0,.71-4.73,7,7,0,0,0-2.32-4.2A11.72,11.72,0,0,0,165.59,523.39Zm0,0a13.27,13.27,0,0,1,4.5,2.19,7.8,7.8,0,0,1,2.77,4.21,10.57,10.57,0,0,1-.1,5.18,18,18,0,0,1-1.91,4.88,26.49,26.49,0,0,1-6.89,7.92,25.62,25.62,0,0,1-4.5,2.93,13.83,13.83,0,0,1-2.71,1,7.82,7.82,0,0,1-3.34.15,5.38,5.38,0,0,1-3.28-2,6,6,0,0,1-1.12-3.49,8.38,8.38,0,0,1,.14-1.55c.07-.43.15-.86.23-1.29.16-.85.36-1.68.56-2.51a76.7,76.7,0,0,0,2.14-9.64c.08-.81.13-1.6.15-2.44a19.39,19.39,0,0,1,.21-2.61,6,6,0,0,1,1-2.56,4,4,0,0,1,2.24-1.5,12.38,12.38,0,0,1,5.07-.06A42.41,42.41,0,0,1,165.59,523.39Z"/></g><g id="small_islands" data-name="small islands"><path d="M430.55,50.29a1.86,1.86,0,0,0-1.73,0,1.12,1.12,0,0,0-.55.52.14.14,0,0,0,0,.11l0,.15a3,3,0,0,1,.08.38c.1.59.38,1,.59,1l.95.44a7.61,7.61,0,0,1,.7.35c.08,0,.11.08.11.1s-.06.06,0,.09.07.06.16,0H431l.05,0c.07.07.23,0,.35-.15a2.24,2.24,0,0,0,.13-1.6A2.43,2.43,0,0,0,430.55,50.29Zm0,0a5.63,5.63,0,0,1,1.35,1.28,4.25,4.25,0,0,1,1,1.91,2.06,2.06,0,0,1-.34,1.51c-.09.11-.19.23-.3.34a1.7,1.7,0,0,1-.24.22,2.33,2.33,0,0,1-1.64.54,3.16,3.16,0,0,1-.77-.13,6.65,6.65,0,0,1-1-.37,3.73,3.73,0,0,1-1.86-1.82,2.66,2.66,0,0,1-.21-1.44,3.81,3.81,0,0,1,.35-1.11c.08-.17.14-.28.27-.52s.12-.2.18-.28a1,1,0,0,1,.28-.26,2.19,2.19,0,0,1,1.07-.28A3.5,3.5,0,0,1,430.55,50.29Z"/><path d="M349.09,321.34a7.87,7.87,0,0,1-1.65-.31,1.8,1.8,0,0,1-1.25-1,2.37,2.37,0,0,1,.24-1.65c.24-.51.54-1,.77-1.49a2,2,0,0,0,.16-1.58,1.66,1.66,0,0,0-1.22-1,3.44,3.44,0,0,0-2.94,1.1c-.43.35-.82.75-1.31,1.08a2.67,2.67,0,0,1-.81.4,1.08,1.08,0,0,1-1-.19,2.77,2.77,0,0,1-.58-1.72,16.3,16.3,0,0,1-.07-1.71c0-1.12.05-2.25,0-3.32a5.2,5.2,0,0,0-.12-.74c-.05-.24-.21-.34-.11-.26s-.09.06-.26.26a6.23,6.23,0,0,1-.68.61,1.55,1.55,0,0,1-1.26.29,1.62,1.62,0,0,1-1-.87,6.9,6.9,0,0,1-.57-1.78l-.17-.8A3.73,3.73,0,0,0,335,306c-.23-.44-.53-.89-.83-1.38a9.2,9.2,0,0,1-.85-1.63,3.82,3.82,0,0,1-.22-2.15,5.57,5.57,0,0,1,.41-1.14,3.36,3.36,0,0,1,.59-1.18,3.87,3.87,0,0,1,2.31-.82,4.16,4.16,0,0,1,2.41.57,5,5,0,0,1,1.63,1.58,18.93,18.93,0,0,1,1.53,3.25,5.21,5.21,0,0,0,1.61,2.23,9,9,0,0,0,2.64,1.46l.11,0h0c1.71.93,3.56,1.77,5.3,2.87a16.27,16.27,0,0,1,2.48,1.89,8.94,8.94,0,0,1,1.74,2.62,5.81,5.81,0,0,1,.49,3.08,4.15,4.15,0,0,1-1.54,2.65A8,8,0,0,1,349.09,321.34Zm0,0a7.72,7.72,0,0,0,3-.25,6.5,6.5,0,0,0,2.59-1.35,3.65,3.65,0,0,0,1.22-2.48,5.06,5.06,0,0,0-.66-2.7,8,8,0,0,0-1.77-2.18,15.17,15.17,0,0,0-2.42-1.51c-1.73-.87-3.6-1.52-5.47-2.32l.13.05a11.46,11.46,0,0,1-3.38-1.48,7,7,0,0,1-1.48-1.3,7.87,7.87,0,0,1-1.06-1.64,19,19,0,0,0-1.51-2.73,2.37,2.37,0,0,0-.79-.7,1.4,1.4,0,0,0-.82-.12,1.67,1.67,0,0,0-.44.11c-.15.05-.23.17-.39.17a1.61,1.61,0,0,0-.58,0c-.18.07-.21.24-.27.38a3.67,3.67,0,0,0,.66,2.54c.25.48.54,1,.78,1.57a4.82,4.82,0,0,1,.29,1c.06.32.09.59.13.86a6.11,6.11,0,0,0,.32,1.45.83.83,0,0,0,.17.27s.14,0,.32-.07a4.8,4.8,0,0,0,.59-.47,3.05,3.05,0,0,1,.42-.3,1.08,1.08,0,0,1,.78-.15,1,1,0,0,1,.63.51,1.79,1.79,0,0,1,.19.53,5.92,5.92,0,0,1,.08.92c0,1.17-.15,2.27-.22,3.39a13,13,0,0,0-.05,1.65,2.38,2.38,0,0,0,.36,1.42c.28.29.87.09,1.3-.19s.87-.66,1.32-1a6.08,6.08,0,0,1,1.46-.89,2.71,2.71,0,0,1,1.71-.11,1.79,1.79,0,0,1,1.29,1.05,2.16,2.16,0,0,1-.19,1.67c-.23.51-.54,1-.78,1.48a2.25,2.25,0,0,0-.26,1.6,1.74,1.74,0,0,0,1.21,1A8.37,8.37,0,0,0,349.09,321.34Z"/><path d="M334.61,282.58a4.5,4.5,0,0,0-3.24-.86,1.56,1.56,0,0,0-1.19.77,3,3,0,0,0-.11,1.46,4.12,4.12,0,0,1-.05,1,2.74,2.74,0,0,1-.16.59c-.07.19-.12.31-.18.46a5.69,5.69,0,0,0-.51,1.4,1.1,1.1,0,0,0,.2.73,2.46,2.46,0,0,0,.64.77,3.16,3.16,0,0,0,2.05.71,3.48,3.48,0,0,0,2.38-1.13,4.78,4.78,0,0,0,1.38-2.87A3.53,3.53,0,0,0,334.61,282.58Zm0,0c1.82,1.5,2.15,4.36,1.09,6.76a5.75,5.75,0,0,1-1.17,1.7,4.78,4.78,0,0,1-1.94,1.14,4.9,4.9,0,0,1-4.48-.93,4.7,4.7,0,0,1-1.42-2,3.58,3.58,0,0,1,0-2.67,7,7,0,0,1,1.16-1.64l.25-.29a1,1,0,0,0,.17-.22,2.65,2.65,0,0,0,.28-.67,4.11,4.11,0,0,1,.88-1.83,2.32,2.32,0,0,1,1.88-.63A6.47,6.47,0,0,1,334.61,282.58Z"/><path d="M324.86,280a.23.23,0,0,0-.25.2,2.46,2.46,0,0,0-.09.34,2.42,2.42,0,0,0,0,.71,3.54,3.54,0,0,0,.58,1.28c.26.36.61.7.79.71s0-.24-.36-.29a.83.83,0,0,0-.48,0,.16.16,0,0,1,.08-.06l.17-.17c.13-.12.21-.17.32-.26a1.55,1.55,0,0,0,.58-.74,1.3,1.3,0,0,0-.15-1.18A1.42,1.42,0,0,0,324.86,280Zm0,0a3.48,3.48,0,0,1,1.46.23,2.85,2.85,0,0,1,1.36,1.15,2.88,2.88,0,0,1,0,3c-.08.14-.16.28-.25.41a5.77,5.77,0,0,1-.42.44,2.31,2.31,0,0,1-1.76.56,2,2,0,0,1-1-.48A1.93,1.93,0,0,1,324,285l-.16-.29a3.09,3.09,0,0,1-.14-2,12.27,12.27,0,0,1,.49-1.55c.09-.24.18-.47.28-.7s.12-.21.16-.32A.28.28,0,0,1,324.86,280Z"/><path d="M326.15,292.8a.66.66,0,0,0-.5.21.62.62,0,0,0,0,.53,1.81,1.81,0,0,0,.68.84,6.76,6.76,0,0,0,2,.93,6.83,6.83,0,0,0,1.05.23,4.56,4.56,0,0,0,1-.11,6.6,6.6,0,0,0,1.95-.67,1.06,1.06,0,0,0,.54-.53.61.61,0,0,0,0-.27s0,0,0-.07a.37.37,0,0,0-.15-.11,6.37,6.37,0,0,0-2-.56C329.15,293,327.63,293,326.15,292.8Zm0,0a8.42,8.42,0,0,1,1.12.07,6,6,0,0,0,1.12,0c.75,0,1.5-.1,2.26-.11a6.33,6.33,0,0,1,2.35.31,1.12,1.12,0,0,1,.32.2.86.86,0,0,1,.29.35,1.19,1.19,0,0,1,.09.83,1.84,1.84,0,0,1-.92,1.1,5.8,5.8,0,0,1-2.31.66,5.17,5.17,0,0,1-1.23,0,8.39,8.39,0,0,1-1.1-.43,7.59,7.59,0,0,1-1.91-1.25,2.08,2.08,0,0,1-.64-.93.66.66,0,0,1,.05-.55A.65.65,0,0,1,326.15,292.8Z"/><path d="M297.36,331c-.34-.2-.68-.4-1-.58a2.87,2.87,0,0,0-1.08-.36c-.77,0-.81.7-.79,1.39s.19,1.45.29,2.21a7.07,7.07,0,0,1,.08,1.28c0,.16,0,.22,0,.16a.73.73,0,0,0-.27-.43,1.09,1.09,0,0,0-.51-.18,1,1,0,0,0-.5.11c-.21.11-.25.25-.25.27a1.19,1.19,0,0,0,.18-.36,3.47,3.47,0,0,1,.46-.79,3.35,3.35,0,0,1,1.35-1,3.12,3.12,0,0,1,.77-.24,3.52,3.52,0,0,1,.84-.06c.5.07.83.2,1.2.26s.69.07.73-.12a1,1,0,0,0-.52-.86A11.18,11.18,0,0,0,297.36,331Zm0,0c.34.19.69.39,1,.57a1.38,1.38,0,0,1,.87.93.75.75,0,0,1-.39.75,3.7,3.7,0,0,1-.66.29c-.41.14-.88.22-1.16.34,0,.05-.22.15-.3.24a2.07,2.07,0,0,0-.28.32,1.8,1.8,0,0,0-.3.63c0,.11,0,.18,0,.29a2.86,2.86,0,0,1-.2.75,2.29,2.29,0,0,1-1,1.14,2,2,0,0,1-2.12-.17,2.34,2.34,0,0,1-.86-1.42,2.73,2.73,0,0,1,0-1l.21-1.09a10,10,0,0,1,.84-2.48,3.72,3.72,0,0,1,.88-1.17,1.43,1.43,0,0,1,1.45-.24,4.89,4.89,0,0,1,1,.67C296.7,330.57,297,330.78,297.36,331Z"/><path d="M292.66,340.57a3,3,0,0,1-.75-.76c-.18-.31-.34-.63-.53-.93a1,1,0,0,0-.77-.55,1.12,1.12,0,0,0-.8.45c-.43.48-.25,1.12-.1,1.83a3.65,3.65,0,0,1,.11,1.24,1.94,1.94,0,0,1-.22.73,1.4,1.4,0,0,1-.75.66c-2.67.29-1.72.08-1.74,1.14a2.6,2.6,0,0,0,.23.65c.08.18.22.25.14.17a.45.45,0,0,0-.22-.1.26.26,0,0,0-.09,0s0,0,0,0,0,0,.05-.06a4.28,4.28,0,0,1,.61-.46,2.24,2.24,0,0,1,1.54-.27,2.54,2.54,0,0,1,1.12.52,3.64,3.64,0,0,1,1,1.36c.18.37.27.62.33.72s0,.06-.09.1,0,.09.11,0a.71.71,0,0,0,.28-.23c0-.06.06,0,.06-.18a4.23,4.23,0,0,0,0-.49,3.15,3.15,0,0,1,.17-1.47,1.51,1.51,0,0,1,.7-.79,1.37,1.37,0,0,1,1,0c.46.14.74.35,1,.45s.35.12.54-.07a.87.87,0,0,0,.13-.79,3.85,3.85,0,0,0-1.29-1.59C293.83,341.4,293.21,341,292.66,340.57Zm0,0c.56.44,1.18.8,1.78,1.19a5,5,0,0,1,1.61,1.51,1.5,1.5,0,0,1,.06,1.28,1.15,1.15,0,0,1-.54.55,1.39,1.39,0,0,1-.76.08c-.42-.05-.79-.15-1-.15s-.17.06-.09.05.09,0,.09.06a1.75,1.75,0,0,0,.16.66,4.91,4.91,0,0,1,.19.55,2.5,2.5,0,0,1,.06.89,2.91,2.91,0,0,1-.79,1.58,2.49,2.49,0,0,1-1.85.78,2.68,2.68,0,0,1-1.89-1,6.14,6.14,0,0,1-.74-1.12,1,1,0,0,0-.26-.35s0,0,.16.06a.76.76,0,0,0,.51-.07,4.48,4.48,0,0,1-1.1.7,2.94,2.94,0,0,1-1.15.16,2.47,2.47,0,0,1-1.22-.44,3,3,0,0,1-1.08-1.56,4.54,4.54,0,0,1-.23-1.43,3.88,3.88,0,0,1,.25-1.53,2.55,2.55,0,0,1,1.26-1.42,2.53,2.53,0,0,1,1.63,0l.73.2s0,.07.08,0a.64.64,0,0,0,.17-.26,2.23,2.23,0,0,0,.15-.89,6.81,6.81,0,0,1,.09-1.15,1.86,1.86,0,0,1,.62-1.06,1.58,1.58,0,0,1,1.11-.38,1.29,1.29,0,0,1,.84.73c.18.31.29.65.46,1A3.33,3.33,0,0,0,292.66,340.57Z"/><path d="M276,346.76a3.58,3.58,0,0,1-1.83-.62,2.94,2.94,0,0,1-.81-1.76,2.36,2.36,0,0,0-1-1.56c-.51-.39-1.09-.69-1.64-1.08a17.26,17.26,0,0,1-4.54-6.58,20.65,20.65,0,0,0-1.75-3.31,3.39,3.39,0,0,0-2.28-1.66c-.08,0-.06,0-.08,0s.11,0,.21-.06.1-.06.11-.11,0,0,0,.15a6.12,6.12,0,0,0,.16,1.46,15.93,15.93,0,0,0,.48,1.69,7,7,0,0,0,.31.78l.39.85a34.32,34.32,0,0,0,1.78,3.26l2.13,3.3a6.08,6.08,0,0,1,.8,2.22l.17.95a3,3,0,0,0,.2.7c.19.44.4.71.69.8a4.22,4.22,0,0,0,.83.1,3.07,3.07,0,0,1,2.24,1.13,3.43,3.43,0,0,1,.54,1.06,2.31,2.31,0,0,0,.86,1.37,6.23,6.23,0,0,0,3.57.7,2.81,2.81,0,0,0,1.77-.47,1,1,0,0,0,.48-.71,1.05,1.05,0,0,0-.36-.82A7.69,7.69,0,0,0,276,346.76Zm0,0a9.23,9.23,0,0,1,1.85.65,6.14,6.14,0,0,1,1.66,1,1.33,1.33,0,0,1,.45.9,1.17,1.17,0,0,1-.49.9,3.11,3.11,0,0,1-1.9.7,7.18,7.18,0,0,1-4.07-.34,3.05,3.05,0,0,1-.91-.73,4.76,4.76,0,0,1-.58-.95,2.11,2.11,0,0,0-.45-.62A1.5,1.5,0,0,0,271,348a1.58,1.58,0,0,0-.66-.05,5.47,5.47,0,0,1-1.12,0,2.77,2.77,0,0,1-1.36-.58,3.5,3.5,0,0,1-.88-1,5.06,5.06,0,0,1-.5-1.12l-.3-1a4.29,4.29,0,0,0-.68-1.37c-.75-1-1.61-2-2.38-3.12a25.79,25.79,0,0,1-2.07-3.56l-.42-.94c-.14-.33-.29-.73-.39-1.05a16.06,16.06,0,0,1-.5-2.1,7.3,7.3,0,0,1,0-2.44,4.75,4.75,0,0,1,.25-.79,2.4,2.4,0,0,1,.71-.87,2.21,2.21,0,0,1,1.09-.45,3.56,3.56,0,0,1,.89.06,4.47,4.47,0,0,1,2.27,1.26,7.27,7.27,0,0,1,1.35,1.86,22.39,22.39,0,0,1,1.36,3.87,14.51,14.51,0,0,0,3.39,6.76c.48.41,1,.76,1.54,1.21a2.89,2.89,0,0,1,.64.79,3.59,3.59,0,0,1,.29.95,2.8,2.8,0,0,0,.73,1.76A3.63,3.63,0,0,0,276,346.76Z"/><path d="M246.05,329.23a10.77,10.77,0,0,0-3.27-.78,9.51,9.51,0,0,0-1.65.35,6,6,0,0,1-1.75.16,1.74,1.74,0,0,1-.91-.31,1.71,1.71,0,0,1-.55-.84,10.29,10.29,0,0,0-.57-1.55,9,9,0,0,0-2-2.45,5.25,5.25,0,0,0-2.55-1.31,2.22,2.22,0,0,0-1.11.1,1.87,1.87,0,0,0-.73.63c-.2.26-.2.53-.16.53a2.46,2.46,0,0,0,.5.54c.16.14.36.3.59.47s.52.42.71.59l1.27,1.13c1.68,1.52,3.31,3.09,4.91,4.71a4.68,4.68,0,0,0,2.06,1.53,1.37,1.37,0,0,0,1-.25,16.66,16.66,0,0,1,1.53-.94,2.91,2.91,0,0,1,2.14-.15,7.83,7.83,0,0,1,1.64.81,4.56,4.56,0,0,0,1.44.6,1.59,1.59,0,0,0,1.34-.44,1.56,1.56,0,0,0,.49-1.4,1.64,1.64,0,0,0-1-1.17C248.34,329.34,247.15,329.51,246.05,329.23Zm0,0c1.11.27,2.27.07,3.37.46a1.91,1.91,0,0,1,1.21,1.22,2,2,0,0,1-.41,1.73,2.21,2.21,0,0,1-1.7.81,5.35,5.35,0,0,1-1.78-.43,5.8,5.8,0,0,0-1.51-.45,1.5,1.5,0,0,0-1.15.29c-.35.25-.7.65-1.19,1.08a3.29,3.29,0,0,1-2.13.89,4.27,4.27,0,0,1-2.19-.62,10.69,10.69,0,0,1-1.56-1.09q-2.65-2.13-5.17-4.4l-2.53-2.3a3.9,3.9,0,0,1-1.27-2.29,3.31,3.31,0,0,1,.94-2.58,4,4,0,0,1,2.07-1.21,4.46,4.46,0,0,1,2.25.13,7,7,0,0,1,3.1,2.3,10.58,10.58,0,0,1,1.78,3.15c.46,1.16.07,2.52,1.26,2.64a5,5,0,0,0,1.64,0,11.85,11.85,0,0,1,1.69-.23A12.74,12.74,0,0,1,246.05,329.23Z"/><path d="M282.34,377.15c-.79.72-.86,1.83-1.64,2.66a14.2,14.2,0,0,0-1.1,1.07,1.5,1.5,0,0,0-.35,1.1,1.58,1.58,0,0,0,.32,1c.07.06.13,0,.08-.06s-.11-.1-.11-.14.12-.19.21-.43l.23-.59a9.17,9.17,0,0,1,.42-.82,4,4,0,0,1,.74-.94,2.69,2.69,0,0,1,.78-.49,2.41,2.41,0,0,1,1-.15,2.61,2.61,0,0,1,1.36.52c.22.16.28.19.16.2s-.13,0-.18.07,0,0,0,.05a.93.93,0,0,0,.36-.22,3.51,3.51,0,0,0,.75-1,3.76,3.76,0,0,0,.41-1.28c0-.42-.07-.82-.49-.93A3.66,3.66,0,0,0,282.34,377.15Zm0,0a3.28,3.28,0,0,1,1.41-.63,8.75,8.75,0,0,1,1.56-.21,1.19,1.19,0,0,1,.89.37,1.89,1.89,0,0,1,.46.84,4.9,4.9,0,0,1,.16,1.78,5.12,5.12,0,0,1-.45,1.81,3.43,3.43,0,0,1-.65.93,2.43,2.43,0,0,1-.66.43,2.05,2.05,0,0,1-.94.16,3.33,3.33,0,0,1-1.25-.38c-.23-.12-.28-.06-.08,0a.72.72,0,0,0,.23,0,.34.34,0,0,0,.14-.06l-.19.28c-.09.16-.19.34-.29.55s-.21.42-.44.8a3.15,3.15,0,0,1-2.1,1.48,2.19,2.19,0,0,1-1.61-.3,2.15,2.15,0,0,1-.9-1.21,3.51,3.51,0,0,1,.16-2.07A2.81,2.81,0,0,1,279,380.2c.5-.29,1-.46,1.42-.7C281.28,379,281.58,377.83,282.34,377.15Z"/><path d="M281.9,424.1a2.08,2.08,0,0,1-1-1.24c-.18-.49-.36-1.08-.77-1.22a.94.94,0,0,0-.62,0c-.15.08-.15.15-.17.33a6.91,6.91,0,0,0,.27,1.44l0,.25V424l0,.44a8.72,8.72,0,0,1,0,.89,9.26,9.26,0,0,1-.34,1.79c-.08.26-.23.63-.29.81l-.09.27a.64.64,0,0,1,0,.2s0,.07,0,0a.17.17,0,0,0,0-.1s0-.15-.07-.2a1,1,0,0,0-.34-.35c-.07,0-.13,0-.13-.06s-.06,0,0,0a2.17,2.17,0,0,0,.75-.19c.17-.08.34-.15.5-.24l.24-.16.4-.28a6.41,6.41,0,0,1,3.6-1c.53,0,1,.06,1.17-.11a.78.78,0,0,0,.27-.39c0-.11-.12-.3-.33-.42a3.87,3.87,0,0,0-1.49-.4A3.64,3.64,0,0,1,281.9,424.1Zm0,0a2.88,2.88,0,0,0,1.56.25,5.49,5.49,0,0,1,1.65.13,1.12,1.12,0,0,1,.8.63,1.32,1.32,0,0,1-.16,1.09,1.83,1.83,0,0,1-.84.75c-.31.14-.6.23-.86.32a2.37,2.37,0,0,0-.61.27,6.51,6.51,0,0,0-.58.39,5.7,5.7,0,0,0-1,.9l-.21.24c-.08.1-.24.24-.36.36a5.21,5.21,0,0,1-.86.62,4.22,4.22,0,0,1-2.31.62,4.14,4.14,0,0,1-.44-.08,1.86,1.86,0,0,1-.5-.19,2.05,2.05,0,0,1-.92-.88,2.1,2.1,0,0,1-.21-.57,4.45,4.45,0,0,1-.05-.5,4.08,4.08,0,0,1,.11-.76c.06-.19.13-.38.2-.56l.25-.46c.16-.3.27-.41.4-.63a9.41,9.41,0,0,0,.68-1.25c.1-.22.2-.45.29-.68l.12-.35a.59.59,0,0,1,.05-.13l0-.15a7.46,7.46,0,0,1,.36-1.75,1.05,1.05,0,0,1,.92-.7,1.59,1.59,0,0,1,.93.25c.55.44.53,1.05.67,1.55A1.82,1.82,0,0,0,281.9,424.1Z"/><path d="M234,434.9a7.3,7.3,0,0,1,2.24,2.22,10.25,10.25,0,0,1,.93,1.37,2,2,0,0,1,.28,1,2.53,2.53,0,0,1-.07.36,1.72,1.72,0,0,1-.22.37,1.58,1.58,0,0,1-.63.43,4.27,4.27,0,0,1-1,.18.94.94,0,0,0-.49.14c-.07.08-.26.35-.7.82a3.33,3.33,0,0,1-1,.69,3.9,3.9,0,0,1-1.18.35,4.49,4.49,0,0,1-2.23-.33,6.92,6.92,0,0,1-1.63-1,6.09,6.09,0,0,1-1.31-1.5,2.79,2.79,0,0,1-.41-1.39,2.43,2.43,0,0,1,.37-1.24c.33-.53.62-.9,1-1.38a5.35,5.35,0,0,1,1.31-1.24,3.26,3.26,0,0,1,1.67-.51,6.12,6.12,0,0,1,1.61.16A5.24,5.24,0,0,1,234,434.9Zm0,0a4.12,4.12,0,0,0-3-.28,2.34,2.34,0,0,0-1.15.79,3.92,3.92,0,0,0-.57,1.26c-.12.45-.27,1-.36,1.47,0,.21,0,.32,0,.28s.06-.06.17,0a7.75,7.75,0,0,0,.93.7,7.85,7.85,0,0,0,1,.58,2.67,2.67,0,0,0,.85.22,1.83,1.83,0,0,0,.34,0,.84.84,0,0,0,.38-.14,4.87,4.87,0,0,1,1.91-.87,2.71,2.71,0,0,1,1.08.13l.52.15c.09,0,0,.17.1.1a.76.76,0,0,0,.05-.53,6.71,6.71,0,0,0-.44-1.46A4.53,4.53,0,0,0,234,434.9Z"/><path d="M208.34,416a3.06,3.06,0,0,0-.1-1.28,1.33,1.33,0,0,0-.82-.85,4.07,4.07,0,0,1-1.25-.66,2.24,2.24,0,0,0-1-.46,1,1,0,0,0-.78.13.51.51,0,0,0-.23.38c0,.11.11,0,.15.07a2.78,2.78,0,0,0,.37.48,11.85,11.85,0,0,1,.9,1,5.73,5.73,0,0,1,.73,1.37,16.66,16.66,0,0,0,.83,2.25,1.38,1.38,0,0,0,.56.65A.21.21,0,0,0,208,419a1.09,1.09,0,0,0,.26-.49A10.52,10.52,0,0,0,208.34,416Zm0,0c0,.88.26,1.7.29,2.63a2.15,2.15,0,0,1-.11.76,1.05,1.05,0,0,1-.75.63,2.24,2.24,0,0,1-1.7-.46,8.7,8.7,0,0,1-2-2.07,15.73,15.73,0,0,0-1.59-1.67,4.09,4.09,0,0,1-.94-1.75,2.82,2.82,0,0,1,0-1.26,2.39,2.39,0,0,1,.61-1.13,2.72,2.72,0,0,1,2-.88,2.92,2.92,0,0,1,1.74.62,3.69,3.69,0,0,1,1,1.18,2.51,2.51,0,0,0,.8.92,1.86,1.86,0,0,1,.72,1.17A4.42,4.42,0,0,1,208.34,416Z"/><path d="M212.2,423.72a6,6,0,0,0-2.28-2.38c-.49-.25-1-.23-1.15.08a.89.89,0,0,0,.11,1c.21.34.6.68,1,1.2a10,10,0,0,1,1,1.63,8.44,8.44,0,0,1,.8,3.77c0,.33,0,.66-.08,1s-.13.71-.15.83,0,.08,0,.06a.58.58,0,0,0-.11-.2.8.8,0,0,0-.41-.24.84.84,0,0,0-.45,0,1,1,0,0,0-.45.25.64.64,0,0,0-.1.13.08.08,0,0,0,0,0c0,.05,0,0,0,0a.76.76,0,0,0,.12-.23c.09-.21.17-.47.26-.76a6.86,6.86,0,0,1,.36-.95,2.6,2.6,0,0,1,.41-.61,1.4,1.4,0,0,1,.76-.4,2.8,2.8,0,0,1,1.07,0,1.63,1.63,0,0,0,.5.06c.09,0,.17-.18.2-.41a2.64,2.64,0,0,0-.07-.78A12.71,12.71,0,0,0,212.2,423.72Zm0,0c.53,1,1.19,1.91,1.7,2.95a4.39,4.39,0,0,1,.33.86,1.27,1.27,0,0,1-.25,1.15,2,2,0,0,1-1.1.47,1.3,1.3,0,0,0-.6.19c-.05,0-.05.11.05,0s0,0,0,0v.1c0,.17,0,.43,0,.69s0,.56,0,.91a2.84,2.84,0,0,1-.09.58,1.61,1.61,0,0,1-.13.39l-.12.22-.24.29a1.72,1.72,0,0,1-.81.45,1.91,1.91,0,0,1-.87,0,2,2,0,0,1-1.06-.75,2.23,2.23,0,0,1-.42-1,2.65,2.65,0,0,1,0-.78l.08-.84c0-.24,0-.47,0-.71a12.75,12.75,0,0,0-.24-2.87,8.62,8.62,0,0,0-.38-1.45,14.29,14.29,0,0,1-.59-1.76,2.49,2.49,0,0,1,0-1.15,1.64,1.64,0,0,1,.69-1,1.32,1.32,0,0,1,1.11-.21,2.27,2.27,0,0,1,.84.47A10.29,10.29,0,0,1,212.2,423.72Z"/><path d="M219,426.89a1.75,1.75,0,0,0-.56,1.21c-.07.45-.1.91-.19,1.38a3.6,3.6,0,0,1-.54,1.43,3.15,3.15,0,0,1-1.33,1,2.62,2.62,0,0,0-1,.59c-.1.12-.06.16-.05.21a.23.23,0,0,0,.07.13s.08-.05,0-.2a.57.57,0,0,0-.29-.3c-.18-.05.05,0,.35-.21a9.57,9.57,0,0,0,1.89-1.1,7.81,7.81,0,0,0,.87-.73,10,10,0,0,1,1.09-1.13,13.15,13.15,0,0,1,1.23-.7,1,1,0,0,0,.49-.92,1.12,1.12,0,0,0-.79-.88A1.47,1.47,0,0,0,219,426.89Zm0,0a1.7,1.7,0,0,1,2.49.59,1.83,1.83,0,0,1-.21,1.62c-.3.49-.67.84-.8,1.14s-.21.68-.38,1.18a6.35,6.35,0,0,1-.8,1.45,6.57,6.57,0,0,1-2.55,2.05,3.32,3.32,0,0,1-2.3.27,2.26,2.26,0,0,1-1.37-1.09,2.22,2.22,0,0,1-.21-1.52,2.57,2.57,0,0,1,.54-1.14,2.28,2.28,0,0,1,1-.7,4.1,4.1,0,0,1,1.64-.23,1.8,1.8,0,0,0,1.06-.22,2.4,2.4,0,0,0,.8-.94,7.81,7.81,0,0,0,.47-1.28A2.11,2.11,0,0,1,219,426.89Z"/><path d="M234,452.59a1.48,1.48,0,0,0-1-.95,2.87,2.87,0,0,0-1.45.13,3.48,3.48,0,0,0-2.19,1.74,4.61,4.61,0,0,1-.88,1.32,3,3,0,0,1-1.58.61,6,6,0,0,0-1.36.24c-.38.16-.45.31-.65.7-.09.19-.19.42-.33.69a2.35,2.35,0,0,1-.74.85,2.23,2.23,0,0,1-1.2.36,4.61,4.61,0,0,1-.53,0,2.78,2.78,0,0,1-.6-.16,5.57,5.57,0,0,1-1.56-1.08,10.69,10.69,0,0,0-1-.86,1.34,1.34,0,0,0-.63-.3.41.41,0,0,0,.3-.06c.11-.08.12-.12.12-.09a.82.82,0,0,0,0,.14c0,.11.07.25.13.45s.16.45.25.76a7,7,0,0,1,.19.93c.07.59.08,1.08.14,1.47a3.35,3.35,0,0,0,.09.51.66.66,0,0,0,.1.27,1.53,1.53,0,0,0,.3.35s-.05,0-.08.05,0,0,.26-.15a5.33,5.33,0,0,1,3.57-1c1.16.05,2.15.43,2.92.45a1.53,1.53,0,0,0,1-.26,2.09,2.09,0,0,0,.71-1c.17-.42.29-.9.47-1.4a3.68,3.68,0,0,1,.88-1.33,7.1,7.1,0,0,1,2.67-1.41,4.51,4.51,0,0,0,1.31-.67A1.31,1.31,0,0,0,234,452.59Zm0,0a1.3,1.3,0,0,1-.4,1.36,4.58,4.58,0,0,1-1.28.75,5.78,5.78,0,0,0-2.4,1.59c-.64.73-.58,1.65-.79,2.71a3.47,3.47,0,0,1-.75,1.59,2.87,2.87,0,0,1-1.68.88c-1.21.19-2.18,0-3,.15a3.14,3.14,0,0,0-2,.86,3,3,0,0,1-1,.68,2.56,2.56,0,0,1-1.54.12,3.46,3.46,0,0,1-2-1.4,3.63,3.63,0,0,1-.53-1.06,5.17,5.17,0,0,1-.22-.95c-.08-.59-.11-1.09-.16-1.49a5.81,5.81,0,0,0-.3-1.18,5.43,5.43,0,0,1-.21-1,3.34,3.34,0,0,1,.13-1.32,2.6,2.6,0,0,1,.91-1.32,2.4,2.4,0,0,1,1.7-.45,3.68,3.68,0,0,1,2,1,8.47,8.47,0,0,1,1.09,1.27,4.07,4.07,0,0,0,.73.78c.52.19.5.48,1.25-.62a2.87,2.87,0,0,1,.7-.69,2.2,2.2,0,0,1,.94-.36,7.68,7.68,0,0,1,1.6,0,2.14,2.14,0,0,0,1.23-.22,3.41,3.41,0,0,0,.92-1,3.13,3.13,0,0,1,1.11-1.06,5.65,5.65,0,0,1,1.4-.57,3.14,3.14,0,0,1,1.49-.06A1.51,1.51,0,0,1,234,452.59Z"/><path d="M399.41,288.13c-.28-.43-.77-.85-1.24-.73s-.29.51-.11.9a12.48,12.48,0,0,0,.67,1.28,4.2,4.2,0,0,0,.54.66,1.34,1.34,0,0,1,.3.38.2.2,0,0,1,0,.11s-.05.14,0,.13.21.09.33,0,.3-.8.16-1.3A4.38,4.38,0,0,0,399.41,288.13Zm0,0a13.21,13.21,0,0,0,1.06,1.22,3,3,0,0,1,1,1.72,1.92,1.92,0,0,1-.41,1.36,1.87,1.87,0,0,1-.65.55,2.61,2.61,0,0,1-.75.24,2.9,2.9,0,0,1-2.52-.91,3.27,3.27,0,0,1-.89-2.14,5.29,5.29,0,0,1,.35-1.89,2.3,2.3,0,0,1,.56-1,1.08,1.08,0,0,1,1.06-.28C398.85,287.18,399.11,287.71,399.41,288.13Z"/></g></svg>