<svg id="Layer_1" data-name="Layer 1" xmlns="http://www.w3.org/2000/svg" viewBox="0 0 600 600"><title>Peru</title><path d="M286.28,53.34a7.74,7.74,0,0,1,2.29-2.2,9.58,9.58,0,0,1,3-1,18.42,18.42,0,0,1,6.36.3,38.73,38.73,0,0,1,11.86,4.89,61.07,61.07,0,0,1,5.39,3.55,37.5,37.5,0,0,1,5,4.27,99.69,99.69,0,0,1,7.78,10.33c2.39,3.52,4.68,7.07,7.11,10.44q1.81,2.53,3.78,4.89c.66.78,1.37,1.5,2,2.26s1.43,1.41,2.15,2.11a38.53,38.53,0,0,0,20.82,9.94c7.76,1.23,15.9.69,24.16-.23s16.77-2.19,25.71-2.58a88.63,88.63,0,0,1,13.75.45c1.19.15,2.31.3,3.56.51a17.26,17.26,0,0,1,5.11,1.69,12.76,12.76,0,0,1,3.09,2.31,13.09,13.09,0,0,1,2.26,3.15,17,17,0,0,1,1.7,5.67l.07.61.05.51.08,1c.07.67.07,1.31.1,2,0,1.29,0,2.57-.06,3.8-.12,2.47-.39,4.81-.67,7a82.76,82.76,0,0,0-1,11.37l0,.59c0,.19,0,.31,0,.47s.08.57.12.85a9.73,9.73,0,0,0,.45,1.63c.37,1.13,1.15,2.67,2.15,5a37,37,0,0,1,1.42,3.87,34.14,34.14,0,0,1,1,4.41,23.2,23.2,0,0,1,.09,5.78,22,22,0,0,1-1.53,5.74,24.44,24.44,0,0,1-6.35,8.69,32.79,32.79,0,0,1-7.7,5.07,40.16,40.16,0,0,1-8,2.85,43.85,43.85,0,0,1-8.29,1.21,42,42,0,0,1-4.34,0l-3.26-.19-6.18-.36a62.63,62.63,0,0,0-10.69.2A16.49,16.49,0,0,0,378,193.94l-.33.45-.43.65-.87,1.31-1.7,2.62q-1.69,2.59-3.32,5.19c-2.17,3.45-4.22,6.88-6.1,10.32a100.2,100.2,0,0,0-8.85,20.69,56,56,0,0,0-2,20.55,39.14,39.14,0,0,0,2.13,9.34,34.21,34.21,0,0,0,4.41,8.25,82.84,82.84,0,0,0,7,8.39c1.34,1.44,2.79,3,4.21,4.44s2.72,2.77,4,4a42.49,42.49,0,0,0,3.83,3.26,22.54,22.54,0,0,0,3.48,2.24,12.76,12.76,0,0,0,2.78,1.06,7,7,0,0,0,2,.09A13.64,13.64,0,0,0,391,296c1.31-.5,2.91-1.25,4.76-2.13s3.93-1.95,6.42-3c.59-.26,1.27-.52,1.95-.77s1.39-.5,2.12-.74,1.55-.45,2.34-.67l.6-.15.49-.12,1-.23a31.64,31.64,0,0,1,5.56-.67,22.09,22.09,0,0,1,8.64,1.49,19,19,0,0,1,5.11,3.07,17.81,17.81,0,0,1,2.19,2.15,11,11,0,0,1,.82,1l.67.94a22.44,22.44,0,0,1,2.13,3.89c.27.65.48,1.29.7,1.94l.3,1,.22.93a27.16,27.16,0,0,1,.66,6.88,32.7,32.7,0,0,1-.73,5.76,37.14,37.14,0,0,1-3.66,10c-.23.41-.48.83-.72,1.24s-.5.82-.8,1.26l-.44.64-.39.54-.67.88c-.88,1.21-1.81,2.29-2.76,3.38a77.94,77.94,0,0,1-5.72,5.76c-1.89,1.72-3.75,3.29-5.45,4.69s-3.32,2.74-4.74,4a39.72,39.72,0,0,0-6.42,6.63,16,16,0,0,0-2.57,5.5,3.89,3.89,0,0,0,.18,2.73,3.94,3.94,0,0,0,1.34,1.49c.24.18.47.3.56.27s-.37-.18-.43-.19.11-.07.38,0a4.05,4.05,0,0,1,.67,0c.32,0,.56.07,1,.09,1.56.16,4,.46,6.95.64l4.63.28c.74,0,1.47.11,2.21.11s1.43.09,2.15.11a66.3,66.3,0,0,1,8.14.94c2.58.42,5,.95,7.39,1.52s4.6,1.14,6.76,1.73l6.23,1.67,3,.79c1.16.31,2.34.63,3.56,1A49.71,49.71,0,0,1,473,381.64a35.76,35.76,0,0,1,7.46,7.44,34.73,34.73,0,0,1,4.81,9.42,47.43,47.43,0,0,1,2.1,17.19c-.1,2.52-.31,4.88-.54,7.1l-.77,6.4-1.63,12.72c-1.12,8.48-2.23,16.94-3.45,25.39s-2.28,16.9-3.35,25.34-2.09,16.87-2.79,25.42a42.71,42.71,0,0,1-1.25,7.83,25,25,0,0,1-1.76,4.64,22.52,22.52,0,0,1-3,4.47,34.55,34.55,0,0,1-6.64,5.84c-2.07,1.43-3.69,2.47-5.49,3.68-3.54,2.32-7.08,4.65-10.67,6.89L443.36,553c-.45.27-1.05.3-1.49.64s-.86.75-1.3,1.16c-1.76,1.67-3.73,3.85-6.71,5.19a26.75,26.75,0,0,1-4.94,1.62,21.62,21.62,0,0,1-2.75.46,26.21,26.21,0,0,1-2.79.22,29.82,29.82,0,0,1-10.66-1.71,38.76,38.76,0,0,1-8.51-4.17,65.75,65.75,0,0,1-6.62-4.9c-2-1.65-3.78-3.31-5.48-4.93s-3.26-3.2-4.67-4.51c-2.89-2.78-5.86-5.45-8.87-8.07-6-5.23-12.33-10.11-18.79-14.71s-13-9-19.72-13.12-13.49-8.09-20.42-11.78c-3.44-1.88-6.95-3.63-10.46-5.38l-5.31-2.58c-.93-.44-1.84-.83-2.8-1.32a19.11,19.11,0,0,1-2.78-1.71,26.52,26.52,0,0,1-5.14-5.13c-.8-1.07-1.59-2.11-2.36-3.22l-2.3-3.35c-.38-.56-.77-1.11-1.15-1.63s-.78-1.1-1.18-1.61l-.59-.78L285,467c-.4-.51-.8-1-1.22-1.49-.83-.93-1.68-1.9-2.57-2.76s-1.73-1.82-2.56-2.8a55.39,55.39,0,0,1-8.44-12.72,72.06,72.06,0,0,1-4.77-13.61c-1.13-4.44-1.92-8.76-2.73-12.84-.4-2.05-.82-4-1.27-5.94a56.28,56.28,0,0,0-1.71-5.53c-2.6-7.27-6.69-14.06-11.18-20.81l-6.87-10.26c-2.3-3.5-4.57-7.11-6.69-10.76-10.25-13.64-9.25-33.7-19.47-47.36-2-3.69-4.15-7.37-6.27-11s-4.24-7.33-6.39-10.94c-4.3-7.23-8.78-14.28-13.64-20.95-1.23-1.64-2.44-3.32-3.69-4.94s-2.51-3.24-3.83-4.78c-2.64-3.1-5.35-6.1-8.19-8.9A90.55,90.55,0,0,0,155,244.2l-1.24-.72a11.53,11.53,0,0,0-1.24-.69L150,241.53a52.21,52.21,0,0,0-5.16-2.24l-1.29-.54-1.38-.48c-1-.34-2-.69-3.13-1.11a35.92,35.92,0,0,1-7.41-3.61,29,29,0,0,1-3.81-3c-.59-.62-1.19-1.23-1.75-1.9s-1.09-1.38-1.57-2.13a23.63,23.63,0,0,1-3.52-9.66,35.76,35.76,0,0,1,0-8.64c.27-2.58.73-4.91,1.15-7.06l.18-1.07c.07-.32.07-.65.11-1a19,19,0,0,0,0-2,26.29,26.29,0,0,0-.61-4.51c-.72-3.28-2.14-7.1-3.37-11.74a50.72,50.72,0,0,1-1.49-7.64,33.14,33.14,0,0,1,.16-8.71,31.49,31.49,0,0,1,2.55-8.43,40.35,40.35,0,0,1,4.21-7,38.25,38.25,0,0,1,5.57-6,43.59,43.59,0,0,1,6.59-4.61,41.57,41.57,0,0,1,15-5,38.68,38.68,0,0,1,8-.19,16.74,16.74,0,0,1,2,.21c.67.1,1.32.18,2,.31a20.67,20.67,0,0,1,4.9,1.53,14.92,14.92,0,0,1,2.9,1.79,13.28,13.28,0,0,1,2.62,2.82,14.81,14.81,0,0,1,2.26,5.8c.28,1.57.34,2.77.42,3.63.05.48.05.6.1.91s.12.61.2.95a23.74,23.74,0,0,0,1.81,4.53,34.27,34.27,0,0,0,2.78,4.5,29.35,29.35,0,0,0,3.35,3.92,15.77,15.77,0,0,0,3.55,2.67,7.13,7.13,0,0,0,1.51.6,3.65,3.65,0,0,0,.6.11,2.66,2.66,0,0,1,.28,0l.43,0a8.9,8.9,0,0,0,3.7-1.31,17.52,17.52,0,0,0,3.74-3.13,37.58,37.58,0,0,0,3.42-4.47l3.5-5.33c.62-.92,1.28-1.86,2-2.79.33-.46.76-.94,1.13-1.41s.78-.94,1.2-1.36a49.57,49.57,0,0,1,10.84-8.48c7.66-4.57,15.69-7.59,23.5-10.86s15.62-6.38,22.86-10.53,13.85-9.45,18.59-16.36,6.38-15.7,5.28-24c-.85-4.14-3-7.87-4.47-11.84a18.78,18.78,0,0,1-1.36-6.18,11.68,11.68,0,0,1,1.7-6Zm.08,0a8.67,8.67,0,0,0-1.11,2.94c-.11.52-.19,1-.25,1.55a13.43,13.43,0,0,0,0,1.55,18.47,18.47,0,0,0,1.59,6c.82,1.93,1.81,3.79,2.73,5.71a29.76,29.76,0,0,1,2.34,6.1,15.54,15.54,0,0,1,.31,1.68c.07.56.1,1.08.15,1.63.07,1.07.14,2.16.12,3.25a42,42,0,0,1-.59,6.51,32.4,32.4,0,0,1-4.78,12.2c-4.75,7.35-11.57,13-18.83,17.52s-15.08,8-22.78,11.52-15.45,6.87-22.47,11.43a45.68,45.68,0,0,0-9.5,8c-2.72,3.08-4.65,6.87-6.89,10.48s-4.82,7.23-8.45,9.71a15.48,15.48,0,0,1-6,2.56,11.25,11.25,0,0,1-6.51-.87A21.39,21.39,0,0,1,180,169.3a34.05,34.05,0,0,1-4.42-4.65,37,37,0,0,1-6.23-11.15,17.81,17.81,0,0,1-.7-3.14c-.14-1.06-.24-2.11-.44-3.13a7.29,7.29,0,0,0-1.1-2.84,5.61,5.61,0,0,0-2.34-1.88,18.39,18.39,0,0,0-6.13-1.18,29.42,29.42,0,0,0-6.29.28,32.15,32.15,0,0,0-21.16,12.62,26.06,26.06,0,0,0-5,11.51,29.88,29.88,0,0,0,1.25,12.52c1.14,4.07,2.66,8,3.62,12.17A28.73,28.73,0,0,1,131.4,203c-.83,4.13-1.65,8.36-1.12,12.59a14.64,14.64,0,0,0,2.06,5.94,15.53,15.53,0,0,0,4.43,4.49c3.52,2.41,7.69,3.49,11.53,5.27a61.11,61.11,0,0,1,5.71,2.75l2.78,1.53c.94.48,1.79,1.12,2.69,1.68a98.82,98.82,0,0,1,19.24,16.45,165.69,165.69,0,0,1,15.55,20c4.72,7,9.06,14.3,13.29,21.63l12.58,22.05,25.13,44.13c4.17,7.36,8.46,14.66,12.37,22.17a121.21,121.21,0,0,1,9.62,23.45c2.33,8.15,2.9,16.67,4.74,24.93q.69,3.09,1.67,6.12a42.76,42.76,0,0,0,2.47,5.84,35.29,35.29,0,0,0,7.8,9.93,56.16,56.16,0,0,0,10.4,7.22c3.7,2.07,7.54,3.84,11.4,5.57,7.76,3.39,15.43,7,22.87,11a262.64,262.64,0,0,1,42.06,28.31,250.85,250.85,0,0,1,18.76,17.09c3,3,5.91,6.06,8.73,9.22s5.61,6.34,8.7,9.24a33.57,33.57,0,0,0,10.45,7.07,16.71,16.71,0,0,0,12.38.1c4-1.51,7.47-4,11.1-6.12l10.84-6.61c1.8-1.11,3.63-2.18,5.41-3.33a23.84,23.84,0,0,0,4.91-4,14.26,14.26,0,0,0,3-5.52,35.77,35.77,0,0,0,1.15-6.23q1.44-12.61,2.65-25.26,2.44-25.26,4.07-50.61l.76-12.67c.21-4.23.53-8.45.5-12.69a37.46,37.46,0,0,0-1.91-12.48,20.91,20.91,0,0,0-3-5.55,21.53,21.53,0,0,0-4.58-4.36,39,39,0,0,0-11.47-5.29c-2-.63-4.08-1.14-6.12-1.71l-6.12-1.67a102.82,102.82,0,0,0-12.4-2.65,44,44,0,0,0-12.65-.06c-4.17.63-8.29,2-12.55,1.7a18.53,18.53,0,0,1-11.4-5A21.67,21.67,0,0,1,385.44,368a22.77,22.77,0,0,1,.71-12.51,33.31,33.31,0,0,1,6.33-10.92,60.75,60.75,0,0,1,9.39-8.52c3.36-2.57,6.84-5,10.08-7.7a40.66,40.66,0,0,0,8.57-9.29,22.1,22.1,0,0,0,2.34-5.87,14.18,14.18,0,0,0,.23-6.28,10,10,0,0,0-.44-1.51,9,9,0,0,0-.75-1.4,5.06,5.06,0,0,0-2.36-2,11.44,11.44,0,0,0-6.25-.17c-4.18.74-8,2.59-11.88,4.34s-7.77,3.54-12,3.93a20.6,20.6,0,0,1-6.31-.49,25.85,25.85,0,0,1-5.89-2.34,36.42,36.42,0,0,1-5.29-3.5,61.1,61.1,0,0,1-4.78-4.18c-3.05-2.93-5.91-6.06-8.77-9.17a93.25,93.25,0,0,1-8-9.85,47,47,0,0,1-5.79-11.27,51.42,51.42,0,0,1-2.66-12.38,68.61,68.61,0,0,1,2.61-25.12,110,110,0,0,1,10.13-23.23c4.17-7.37,8.85-14.44,13.65-21.41a29,29,0,0,1,9.15-8.68,29.84,29.84,0,0,1,12.05-3.71,71.71,71.71,0,0,1,12.69.05l6.32.52a51.65,51.65,0,0,0,6.33.35,32.5,32.5,0,0,0,12.28-2.79,22.47,22.47,0,0,0,5.36-3.33,14.11,14.11,0,0,0,3.83-5,11.74,11.74,0,0,0,.87-3,13.36,13.36,0,0,0,0-3.16,26,26,0,0,0-1.65-6.1c-.75-2-1.64-3.9-2.2-5.95a20,20,0,0,1-.7-6.3c.25-8.48,3.39-16.67,2.65-25.18a8.65,8.65,0,0,0-.79-3,5,5,0,0,0-2.12-2.25c-1.86-1-4-1.2-6.08-1.61a86.26,86.26,0,0,0-12.64-1c-8.47-.06-16.9.75-25.35,1.22s-17,.64-25.31-1.12a44,44,0,0,1-11.92-4.28A41.8,41.8,0,0,1,341,95.13C335,89,330.87,81.56,326.39,74.4A97.09,97.09,0,0,0,319.13,64a37.79,37.79,0,0,0-4.67-4.27c-1.66-1.31-3.4-2.52-5.18-3.66a44.32,44.32,0,0,0-11.45-5.36,15.47,15.47,0,0,0-6.27-.59,7,7,0,0,0-5.12,3.31Z"/></svg>