<svg id="Layer_1" data-name="Layer 1" xmlns="http://www.w3.org/2000/svg" viewBox="0 0 600 600"><title>Poland</title><path d="M150.4,144.22c7.23-3.43,13.27-8.81,20-13.12A172.59,172.59,0,0,1,191,118.57a94.86,94.86,0,0,1,11.27-4.68q2.88-1,5.82-1.85c1.94-.58,3.9-1.13,5.87-1.63,7.86-2,15.82-3.45,23.7-4.82a80.21,80.21,0,0,1,12.54-1.54,30.83,30.83,0,0,1,7,.65,25.5,25.5,0,0,1,3.6,1.08c1.1.49,2.22.94,3.27,1.51a43.36,43.36,0,0,1,10.74,8.51,100.24,100.24,0,0,0,8,8,20.39,20.39,0,0,0,7.84,4.13c.8.21,1.79.42,2.67.63s1.8.44,2.71.63c1.85.32,3.67.71,5.52,1A174.56,174.56,0,0,0,324.2,132c7.66.17,15.42-.06,23.26-.34s15.79-.76,23.87-1l23.81-.72q5.91-.21,11.81-.49l11.8-.54c15.73-.81,31.44-2,47.11-3.45l5.92-.57c2-.19,4.13-.38,6.28-.53a106.38,106.38,0,0,1,13.56-.18A57,57,0,0,1,506.7,127c1.3.4,2.61,1,3.9,1.56s2.58,1.28,3.83,2a40,40,0,0,1,7,5.36,39,39,0,0,1,5.58,6.66,46.27,46.27,0,0,1,3.93,7.08,63.17,63.17,0,0,1,2.68,7c.74,2.28,1.34,4.5,1.87,6.65s1,4.25,1.42,6.27l1.23,5.89,2.44,11.7c3.26,15.61,6.86,31.14,10.66,46.64l.72,2.9.18.73c0,.06.08.43.12.64l.13.73c.15,1,.33,2,.39,3a30.83,30.83,0,0,1-1.51,11.84,41.47,41.47,0,0,1-4.13,8.78c-1.43,2.35-2.79,4.28-3.93,5.95a45.82,45.82,0,0,0-2.57,4c-.11.24-.29.52-.35.71s-.14.37-.22.55l-.8,2c-.13.33-.28.66-.4,1l-.29,1c-.19.66-.45,1.31-.59,1.95s-.27,1.28-.42,1.91-.18,1.25-.3,1.87a33.42,33.42,0,0,0-.1,7.49,53.85,53.85,0,0,0,1.67,8.42c.76,3,1.88,6.32,3.11,9.78a22.65,22.65,0,0,1,1.52,5.46c.26,2,.13,4.12.22,6.24a20.91,20.91,0,0,0,1,6l1.7,5.72,1.83,5.63,2,5.54c2.7,7.32,5.66,14.41,8.49,21.46.74,1.88,1.64,4.13,2.39,6.46a58.83,58.83,0,0,1,1.92,7.67,41.75,41.75,0,0,1,.66,8.9c0,.78-.09,1.58-.16,2.37s-.21,1.53-.33,2.3a35.8,35.8,0,0,1-1.08,4.55,37.31,37.31,0,0,1-3.73,8.38,41,41,0,0,1-5.18,6.77,60.94,60.94,0,0,1-11.53,9.32c-7.72,4.88-15.16,8.25-21.85,11.79-1.68.87-3.25,1.77-4.78,2.71s-3,1.94-4.53,3a82.4,82.4,0,0,0-8.43,6.85,67.82,67.82,0,0,0-7.34,7.93,28,28,0,0,0-2.47,3.77,10.51,10.51,0,0,0-1,3.15,11.38,11.38,0,0,0,.17,3.35c.24,1.37.68,3,1.17,4.77l1.67,5.64.1.36.13.5.25,1c.17.66.27,1.41.4,2.12s.19,1.51.26,2.27.08,1.62,0,2.49a20.3,20.3,0,0,1-.26,2.71c-.09.48-.16.93-.28,1.42s-.28,1-.44,1.5a12.14,12.14,0,0,1-.59,1.52,13.93,13.93,0,0,1-.73,1.51,17.77,17.77,0,0,1-4.62,5.36c-.46.36-.93.65-1.41,1a11.18,11.18,0,0,1-1.44.82,17.73,17.73,0,0,1-2.84,1.14c-.46.14-.93.29-1.38.41l-1.3.26c-.42.07-.88.15-1.29.19l-1.2.1a21.49,21.49,0,0,1-2.41.06c-.82,0-1.57-.37-2.36-.37h-2.31a27.83,27.83,0,0,1-8.55-.92c-2.43-.86-4.55-1.86-6.44-2.71l-2.68-1.2c-.84-.37-1.62-.66-2.43-1a75.39,75.39,0,0,0-9.87-3.23c-13.46-3.43-27.71-3.65-41.57-1.6-3.47.44-6.91,1.08-10.34,1.82l-5.15,1.19c-1.71.42-3.42.89-5.13,1.34s-3.42.95-5.13,1.48l-2.56.78-1.28.4-.88.31c-1.17.43-2.72,1.07-4.55,1.8s-4,1.6-6.49,2.46a53.76,53.76,0,0,1-8.84,2.2,37,37,0,0,1-11.51.1,28.58,28.58,0,0,1-3.09-.61l-1.53-.38-1.35-.44c-.89-.3-1.78-.61-2.66-1s-1.71-.76-2.56-1.17a26.13,26.13,0,0,1-2.41-1.29,24.24,24.24,0,0,1-2.22-1.4c-.68-.48-1.33-1-2-1.52s-1.07-1-1.58-1.57a14,14,0,0,1-3.37-6.13,23.82,23.82,0,0,1-.39-2.62c0-.42-.08-.87-.09-1.22a10.69,10.69,0,0,0-.1-1.15,5.63,5.63,0,0,0-1.53-3.57,8.81,8.81,0,0,0-.78-.52,2.47,2.47,0,0,0-.89-.39,12.07,12.07,0,0,0-2.22-.51c-3.64-.5-7.77-.48-12.26-.69a50.22,50.22,0,0,1-7.08-.71,30,30,0,0,1-7.49-2.3,29.12,29.12,0,0,1-6.64-4.36,45.32,45.32,0,0,1-4.95-5.24c-1.42-1.76-2.66-3.47-3.86-5.1s-2.32-3.1-3.5-4.4a26.3,26.3,0,0,0-3.42-3.27,16.56,16.56,0,0,0-3.62-2.1,50.14,50.14,0,0,0-9.42-2.79l-5.7-1.24-3.06-.77-1.59-.43c-.58-.17-1.34-.44-2-.67a32.94,32.94,0,0,1-3.94-1.7,37.39,37.39,0,0,1-3.52-2.06,51.57,51.57,0,0,1-5.85-4.44c-1.74-1.47-3.14-2.86-4.49-4.07-.33-.29-.65-.59-.95-.91l-.88-.82-1.52-1.54-2.45-2.71c-.2-.2-.39-.42-.6-.65s-.38-.38-.58-.6a8.93,8.93,0,0,0-1.66-1.16,17.62,17.62,0,0,0-4.68-1.78,25.1,25.1,0,0,0-5.55-.63c-3.83-.07-7.69.84-11.68,1.41-2,.32-4,.62-6.08.88s-4.17.5-6.31.66a43.81,43.81,0,0,1-13.65-.95,26.31,26.31,0,0,1-7.06-3.05,22.84,22.84,0,0,1-5.82-5.39,25,25,0,0,1-2.12-3.27,32,32,0,0,1-1.56-3.27c-.88-2.11-1.53-4-2.2-5.62a20.52,20.52,0,0,0-5.2-7.42,23.13,23.13,0,0,0-8.07-4.31,51.57,51.57,0,0,0-10.21-2c-3.64-.41-7.45-.6-11.44-.8l-3-.18-3.05-.2-1.66-.14c-.56-.05-1.2-.14-1.8-.21s-1.32-.21-2-.32-1.48-.34-2.28-.58a19,19,0,0,1-2.55-1c-.45-.22-.88-.43-1.33-.69s-.88-.58-1.31-.88a18.87,18.87,0,0,1-2.37-2.08q-.5-.55-1-1.14l-.46-.58-.38-.56a28.42,28.42,0,0,1-3.55-8,59.86,59.86,0,0,1-1.53-7,65.75,65.75,0,0,1-.62-6.85c-.2-4.44-.07-8.62,0-12.51,0-1.95.08-3.83.06-5.63,0-.91,0-1.79,0-2.66s-.07-1.66-.14-2.6c-.28-3.69-.73-7.4-1.24-11.14-1.06-7.49-2.64-15.07-4.38-22.75-.89-3.84-1.71-7.73-2.57-11.65l-.32-1.53c-.14-.69-.28-1.39-.36-2-.2-1.32-.29-2.51-.37-3.64-.13-2.22-.16-4.14-.3-5.65a12.92,12.92,0,0,0-.63-3.3,9.84,9.84,0,0,0-.8-1.42,16.05,16.05,0,0,0-1.26-1.74,70.78,70.78,0,0,0-7.77-7.54c-1.54-1.37-3.14-2.82-4.75-4.46a35.94,35.94,0,0,1-4.64-5.73,23.55,23.55,0,0,1-3.17-7.64,22.18,22.18,0,0,1-.12-8.23,24.32,24.32,0,0,1,.92-3.74A26.83,26.83,0,0,1,46.51,229a38.55,38.55,0,0,1,3.69-5.89c2.57-3.45,5-6.27,6.75-9.16l.6-1.08.52-1.09a20.45,20.45,0,0,0,.85-2.31,36.29,36.29,0,0,0,1.18-5.2A33.92,33.92,0,0,0,60,193.54a26.48,26.48,0,0,0-1.35-5.07c-.61-1.59-1.61-3.3-2.52-5.36A17.21,17.21,0,0,1,55,179.62a11.58,11.58,0,0,1,0-3.94,15.83,15.83,0,0,1,.48-1.86c.23-.56.44-1.15.71-1.67a16.23,16.23,0,0,1,1.9-3,17,17,0,0,1,5.36-4.28,21.71,21.71,0,0,1,6.24-2.07c.54-.1,1.07-.17,1.61-.23l1.53-.13c1-.09,2-.14,3-.21q3-.17,6-.25c8-.31,15.91-.42,23.72-1.79a157.62,157.62,0,0,0,44.83-15.9Zm0,.08c-3.42,2-6.94,3.95-10.51,5.73s-7.21,3.51-10.93,5c-1.86.76-3.72,1.5-5.61,2.17s-3.81,1.27-5.72,1.86l-2.88.87-2.91.77c-1.93.5-3.9,1-5.89,1.38-7.94,1.63-16,2-23.91,2.49-2,.14-4,.29-5.93.48-1,.1-2,.19-3,.32a27.89,27.89,0,0,0-2.85.42,15.85,15.85,0,0,0-9.44,5.49,12.58,12.58,0,0,0-1.4,2.35c-.2.41-.32.84-.49,1.26a12,12,0,0,0-.29,1.29,7.59,7.59,0,0,0,.09,2.6,13,13,0,0,0,.92,2.57c.83,1.72,1.92,3.41,2.79,5.31a29.74,29.74,0,0,1,1.89,5.87,38.83,38.83,0,0,1,.69,12.16,40.36,40.36,0,0,1-1,6,26.18,26.18,0,0,1-2.17,5.74c-1.89,3.63-4.43,6.76-6.65,10a33.56,33.56,0,0,0-3,5.08,20.28,20.28,0,0,0-1.61,5.56,15.71,15.71,0,0,0,.22,5.76,16.51,16.51,0,0,0,2.39,5.27c2.19,3.25,5.26,5.84,8.3,8.39a81.28,81.28,0,0,1,8.9,8A24.6,24.6,0,0,1,74,269.43a18.71,18.71,0,0,1,1.57,5.8c.49,4,.39,8,1.52,11.82l2.86,11.61c1.89,7.74,3.66,15.52,4.91,23.39.62,3.94,1.13,7.89,1.46,11.86a105.86,105.86,0,0,1,.17,11.95c-.23,7.93-.69,16,1.42,23.77a20.2,20.2,0,0,0,2.24,5.51,8.37,8.37,0,0,0,4.64,3.55,29.32,29.32,0,0,0,5.87,1.08l5.95.59c7.9.79,15.94,1.52,23.42,4.38A29.47,29.47,0,0,1,140.07,391a24.64,24.64,0,0,1,3.73,4.65,19.51,19.51,0,0,1,1.43,2.62,20.17,20.17,0,0,1,1.2,2.73c1.37,3.72,2.31,7.7,4.75,10.91a17.1,17.1,0,0,0,4.28,4.12,19.67,19.67,0,0,0,5.44,2.42,36.93,36.93,0,0,0,11.86.9c4-.27,7.93-.84,11.86-1.49s7.85-1.35,11.8-1.86c2-.26,4-.47,6-.56a35,35,0,0,1,6,.13,22.26,22.26,0,0,1,11,4.33,115.54,115.54,0,0,1,9.06,7.79,49.13,49.13,0,0,0,4.67,3.72c.8.6,1.68,1.07,2.52,1.6a26.64,26.64,0,0,0,2.69,1.3c3.69,1.5,7.54,2.57,11.3,3.89a51.87,51.87,0,0,1,10.85,4.95A30.63,30.63,0,0,1,269,451.4c2.37,3.21,4.42,6.63,6.82,9.82a37.25,37.25,0,0,0,4,4.47,21.71,21.71,0,0,0,4.87,3.42,26.2,26.2,0,0,0,11.62,2.33c4,0,8-.39,11.94-.53a29.61,29.61,0,0,1,6,.37,20.8,20.8,0,0,1,5.59,2.07c3.49,1.95,6.3,4.85,9.41,7.33a22.51,22.51,0,0,0,10.69,5c4,.6,8-.33,11.74-1.57s7.42-2.91,11.2-4.15,7.67-2.19,11.55-3.09a147,147,0,0,1,23.62-3.51c15.88-1,32.05.65,47.13,5.89a94,94,0,0,1,11,4.59c3.6,1.7,7,3.81,10.66,5.39A27,27,0,0,0,472.4,491a16.7,16.7,0,0,0,5.94.06,8.66,8.66,0,0,0,5.21-2.67,8.84,8.84,0,0,0,2-5.49,19.68,19.68,0,0,0-.68-5.91l-1.41-5.81c-.87-3.86-1.7-7.88-.93-11.83s2.89-7.44,5.29-10.59a93.28,93.28,0,0,1,7.89-9A101.58,101.58,0,0,1,514.5,425.1c6.76-4.2,13.81-8,20.26-12.67a51.3,51.3,0,0,0,8.85-8,26.75,26.75,0,0,0,5.6-10.44,24.82,24.82,0,0,0,.12-11.84,59.42,59.42,0,0,0-3.93-11.26c-6.39-14.61-11.57-29.7-16.95-44.7-2.67-7.5-5.51-15-7.36-22.73a67.27,67.27,0,0,1-1.78-11.8,48.38,48.38,0,0,1,1-11.89,49.17,49.17,0,0,1,3.84-11.29,44.51,44.51,0,0,1,6.39-10.06c2.4-3.15,4.94-6.32,6.29-10.09a15,15,0,0,0,.93-5.86,53.44,53.44,0,0,0-1-5.88l-9.18-46.93-2.3-11.73c-.78-3.9-1.49-7.83-2.4-11.7a62.43,62.43,0,0,0-3.65-11.36,33.11,33.11,0,0,0-2.84-5.24,25.7,25.7,0,0,0-3.79-4.6,27.15,27.15,0,0,0-10.1-6.18,44.74,44.74,0,0,0-11.69-2.26c-8-.53-15.92.41-23.85,1.08q-23.82,2.06-47.72,3c-15.92.64-31.86.81-47.8.76-15.93.1-31.88.68-47.8-.36a168.63,168.63,0,0,1-23.69-3.12c-2-.4-3.88-.92-5.82-1.37s-3.83-1.1-5.73-1.69a27.28,27.28,0,0,1-10.13-6.21c-2.91-2.74-5.34-5.92-8-8.92a36.89,36.89,0,0,0-8.91-7.86A22.12,22.12,0,0,0,250,108.73a79.16,79.16,0,0,0-11.9.9c-7.91,1-15.82,2-23.62,3.57a108,108,0,0,0-22.79,7,167.42,167.42,0,0,0-20.84,11.65c-3.37,2.13-6.72,4.29-10.11,6.38-1.69,1-3.4,2.07-5.12,3.08-.87.49-1.71,1-2.57,1.53l-2.58,1.5Z"/></svg>