<svg id="Layer_1" data-name="Layer 1" xmlns="http://www.w3.org/2000/svg" viewBox="0 0 600 600"><title>holysee</title><path d="M49.87,405.64a2.43,2.43,0,0,1,.81-2,5.64,5.64,0,0,1,1.71-1.28c1.24-.69,2.56-1.19,3.74-1.9l7.3-4.22L78.1,388l1.83-1a20.24,20.24,0,0,1,1.93-1,3.61,3.61,0,0,1,2.46-.16,4.66,4.66,0,0,1,1.93,1.43c.49.57.9,1.16,1.31,1.68A3.3,3.3,0,0,0,88.85,390c.8.33,2-.61,2.84-1.55.45-.48.88-1,1.36-1.58s1-1.05,1.46-1.57c1-1,2-2,2.93-3l5.78-6.11,2.89-3.06,1.45-1.52.75-.79.76-.75,6.08-5.84a148.41,148.41,0,0,0,11.43-12.14,39.64,39.64,0,0,0,2.44-3.27,14.28,14.28,0,0,0,1.73-3.35,2.12,2.12,0,0,0,.11-1.16.29.29,0,0,0-.12-.16l-.75-.47a11.06,11.06,0,0,1-3.51-3.36,7,7,0,0,1-1-2.54,7.69,7.69,0,0,1,.06-2.67,14.14,14.14,0,0,1,1.85-4.39,78.43,78.43,0,0,1,5.12-6.94l2.61-3.37a33.35,33.35,0,0,1,3.06-3.24,26.61,26.61,0,0,1,7.52-5,30.09,30.09,0,0,1,8.72-2.31,42.12,42.12,0,0,1,8.91,0c1.46.16,2.95.42,4.13.53a7,7,0,0,0,.76,0c.13,0,.34,0,.36-.07s.09-.08.15-.08.15-.12.27-.33a13.92,13.92,0,0,0,1.38-3.12c.41-1.25.81-2.56,1.19-3.9l2.23-8.09c.38-1.36.76-2.73,1.17-4.1.21-.69.4-1.35.63-2.07s.5-1.47.77-2.14c1.05-2.74,2.17-5.3,3.23-7.88s2.1-5.13,3-7.67a45.23,45.23,0,0,0,2.14-7.45,9.24,9.24,0,0,0,.11-2.9,2,2,0,0,1,0-.24c0-.11,0,.13.06.19a1.28,1.28,0,0,0,.12.24s.07.1,0,.06-.07-.08-.13-.14a14.13,14.13,0,0,0-1.26-1c-1-.8-2.22-1.62-3.48-2.68a15.56,15.56,0,0,1-1.95-2c-.17-.22-.34-.42-.51-.66s-.34-.55-.5-.84l-.55-1.19a21.42,21.42,0,0,1-1.59-9.87,18,18,0,0,1,3.45-9.62,13.94,13.94,0,0,1,4-3.69,11.16,11.16,0,0,1,5.55-1.59,10.32,10.32,0,0,1,3,.39,13.6,13.6,0,0,1,2.47,1c.69.36,1.29.7,1.76.92a4.14,4.14,0,0,0,1,.36,2.26,2.26,0,0,0,.88-.12c.18-.1.4-.17.57-.26a3.8,3.8,0,0,0,.51-.32,13.12,13.12,0,0,0,2.31-2.51c.81-1.06,1.6-2.24,2.68-3.49.24-.3.6-.67.84-.91l.74-.75,1.49-1.49,5.92-6,5.92-6,2.95-3c.94-1,2.09-2.1,3.21-3.05,2.24-1.93,4.51-3.57,6.57-5.31a22.52,22.52,0,0,0,5.07-5.57c.14-.22.32-.55.5-.87l.51-.91c.33-.59.63-1.15.87-1.69a5.58,5.58,0,0,0,.66-2.77,3.26,3.26,0,0,0-1.27-2.08c-.44-.43-1-.94-1.67-1.67a7.21,7.21,0,0,1-1.49-2.81,8.55,8.55,0,0,1-.15-3,14.5,14.5,0,0,1,.55-2.48,28,28,0,0,1,1.78-4.24c.64-1.29,1.29-2.51,1.81-3.68a18,18,0,0,0,.67-1.73l.66-2a22.81,22.81,0,0,1,4.4-8.22,18.4,18.4,0,0,1,3.67-3.13,33.64,33.64,0,0,1,4-2.19,54.38,54.38,0,0,1,8.24-3.11,52,52,0,0,1,8.66-1.79,25.43,25.43,0,0,1,9.3.48,12.13,12.13,0,0,1,4.71,2.4,8.58,8.58,0,0,1,2.91,5.06c.3,1.82.19,3.29.34,4.36a5.25,5.25,0,0,0,.32,1.4,4,4,0,0,0,.65,1.11,2.35,2.35,0,0,0,1.8.87,8.3,8.3,0,0,0,3.1-.5,57.67,57.67,0,0,0,7.33-3.27c.68-.32,1.37-.64,2.2-.95l2.11-.7,4-1.33,8-2.63c2.69-.88,5.29-1.67,7.59-2.64a22.06,22.06,0,0,0,6.07-3.58,15.7,15.7,0,0,0,1.28-1.17l.63-.64.69-.75c.93-1,1.9-2.08,3-3.16a24.47,24.47,0,0,1,8.27-5.84,15.09,15.09,0,0,1,5.71-1,20.23,20.23,0,0,1,5.22.83,73.38,73.38,0,0,1,8.28,3.22c2.42,1,4.69,1.73,6.27,1.58a4.48,4.48,0,0,0,2.18-.72,8,8,0,0,0,1-.77,3.4,3.4,0,0,0,.6-.78,7.2,7.2,0,0,0,.63-2.68,21.91,21.91,0,0,1,1-5,12.5,12.5,0,0,1,1.46-2.8,15.3,15.3,0,0,1,2-2.17,24.06,24.06,0,0,1,4.11-2.95c1.39-.8,2.67-1.44,4-2.09s2.8-1.24,4.2-1.76c5.61-2.08,11.09-3.32,15.92-5.24,4.61-1.74,8.86-5,14.08-8S431,95.74,438,96.53a21.44,21.44,0,0,1,5.18,1.27,22.3,22.3,0,0,1,4.69,2.52,22.77,22.77,0,0,1,3.94,3.6,19.77,19.77,0,0,1,3,4.66,18.59,18.59,0,0,1,1.42,5.43c.19,1.72.21,3.16.31,4.4,0,.63.11,1.2.19,1.75a13.18,13.18,0,0,0,.33,1.56,29.79,29.79,0,0,0,1.16,3.45l1.56,3.94c.27.7.53,1.44.78,2.21s.48,1.57.67,2.33c.77,3.07,1.17,5.92,1.72,8.4a29.91,29.91,0,0,0,1,3.44,14.6,14.6,0,0,0,.65,1.55,17,17,0,0,0,.77,1.54l.41.74.45.68a15.2,15.2,0,0,0,.93,1.26,12.16,12.16,0,0,0,2.11,2,11.56,11.56,0,0,0,2.49,1.31,17.53,17.53,0,0,0,3.06.78,51.65,51.65,0,0,0,7.59.46c2.77,0,5.75,0,8.89.36a34.7,34.7,0,0,1,9.65,2.29c.4.16.79.35,1.18.53l1.06.49c.58.28,1.16.56,1.75.82,1.17.54,2.38,1,3.6,1.5,2.45.93,5,1.77,7.58,2.54s5.25,1.47,7.95,2.19l4,1.07,4,1a51.76,51.76,0,0,1,8.93,3,23.22,23.22,0,0,1,8.49,6.58,21.5,21.5,0,0,1,1.56,2.2l.69,1.13c.21.38.39.76.58,1.15l.57,1.16.49,1.26a21.07,21.07,0,0,1,.8,2.56,29.58,29.58,0,0,1,.55,10c-.32,3.1-.87,5.91-1.26,8.55-.18,1.31-.36,2.59-.43,3.81-.06.62-.06,1.21-.07,1.8v1l0,1.09c.07,5.79-.21,11.46-.4,17,0,1.39-.1,2.78-.1,4.16s.07,2.81.1,4.21l.23,8.42.49,16.84,1.15,33.68q.6,16.85,1.08,33.68l.2,8.35c.09,2.71.26,5.67.13,8.95a38.42,38.42,0,0,1-.56,5.13,27.13,27.13,0,0,1-1.52,5.48,23.64,23.64,0,0,1-2.9,5.33l-.92,1.23-.67.82L548,368.82l-10.69,13c-3.59,4.32-7.16,8.66-10.85,12.89s-7.44,8.41-11.28,12.52l-2.81,3-2.82,3.08a76.78,76.78,0,0,1-6.51,6.5,38.86,38.86,0,0,1-4,3c-.68.46-1.5.91-2.28,1.36a23.65,23.65,0,0,1-2.46,1.13,30.07,30.07,0,0,1-9.84,2c-3.1.16-5.95.07-8.62.12-.69,0-1.31,0-2,.07l-2.11.11-4.2.26c-11.21.78-22.4,1.64-33.58,2.71l-.17,0h-.16a53.29,53.29,0,0,0-7,.65c-1.25.17-2.53.34-3.87.47a40.12,40.12,0,0,1-4.09.19,23.45,23.45,0,0,0-6.44.4,5.66,5.66,0,0,0-3.45,2.92,9.38,9.38,0,0,0-.86,2.54,10.84,10.84,0,0,0-.18,1.45c0,.54-.07,1.1-.08,1.67,0,2.28.12,4.7.26,7.22s.18,4.88.51,7.21a36.74,36.74,0,0,0,1.45,6.68c.17.54.36,1.07.56,1.59a12.58,12.58,0,0,0,.63,1.45l.31.65.41.65a14,14,0,0,0,.9,1.31c1.3,1.77,3,3.52,4.7,5.43a33.42,33.42,0,0,1,5,6.75l.51,1,.42,1.12a12.69,12.69,0,0,1,.63,2.33,16.8,16.8,0,0,1,.24,2.45c0,.82-.1,1.62-.17,2.43a16.89,16.89,0,0,1-4.14,8.35,18.35,18.35,0,0,1-3.57,3,13.38,13.38,0,0,1-4.7,1.8,10.35,10.35,0,0,1-5.36-.53c-.4-.16-.88-.35-1.21-.51l-.77-.38c-.51-.25-1-.49-1.58-.72-2.16-.94-4.47-1.75-6.86-2.65s-4.6-1.77-6.9-2.48a44.09,44.09,0,0,0-6.82-1.62c-.57-.08-1.13-.16-1.7-.21l-.86-.07-.95-.07c-1.45-.11-2.76-.34-3.94-.52-1.45-.23-2.68-.52-3.92-.8l-3.66-.86c-2.41-.56-4.8-1.08-7.17-1.49a41.64,41.64,0,0,0-7-.69,14.56,14.56,0,0,0-3.07.29,6.7,6.7,0,0,0-1.17.38,2.48,2.48,0,0,0-.64.44c-.09.06-.09.14-.16.2a3.39,3.39,0,0,0-.24.47,12.59,12.59,0,0,0-.46,1.42c-.15.56-.31,1.21-.55,1.94a9.75,9.75,0,0,1-1.14,2.47,7.56,7.56,0,0,1-2.31,2.15,10.7,10.7,0,0,1-2.46,1.05,18.65,18.65,0,0,1-4.44.64,74.58,74.58,0,0,1-7.82-.31c-.6,0-1.19-.08-1.73-.09H326l-.94,0-3.77.09-7.54.17-1.89,0-.8,0-.86.06c-1.19.09-2.5.23-3.95.26a19.09,19.09,0,0,1-2.32-.12l-.66-.11c-.28-.06-.53-.13-.77-.2a10.21,10.21,0,0,1-1.25-.49c-.73-.35-1.32-.7-1.83-1l-.68-.35-.85-.41-13.51-6.55-6.76-3.28-1.69-.81-.84-.41-.76-.35c-1-.46-2.19-.89-3.36-1.33a45,45,0,0,1-7.28-3.29,14.75,14.75,0,0,1-3.52-2.83,9.38,9.38,0,0,1-2.33-4.47,15.45,15.45,0,0,1-.16-4.44,21.89,21.89,0,0,0,.1-3.34,3.34,3.34,0,0,0-.72-2,3.5,3.5,0,0,0-1.95-1,23,23,0,0,0-6.71.08c-1.23.13-2.48.29-3.88.36-.36,0-.72,0-1.11,0l-1,0-1.87-.06-60-2-1.88-.06-.94,0-1-.05a9,9,0,0,0-3,.05,1.18,1.18,0,0,0-.3.15c-.07.05-.09.06-.2.23a1.77,1.77,0,0,0-.34.87,10.34,10.34,0,0,0,.39,3.09,12,12,0,0,1,.3,2.16,5.78,5.78,0,0,1-.44,2.64,5.06,5.06,0,0,1-1.84,2.25,6,6,0,0,1-2.53.91c-1.58.19-2.9,0-3.9.05l-3.72.24-3.75.25-1.81.13c-.58.06-1.17.14-1.78.23a38.53,38.53,0,0,1-7.81.73,10.26,10.26,0,0,1-4.3-1.12,10,10,0,0,1-3.37-2.94,8.38,8.38,0,0,1-1.47-4.32,13.45,13.45,0,0,1,.48-4.21,27.34,27.34,0,0,1,1.33-3.76l.4-.89.23-.67a2.07,2.07,0,0,0,.12-.65,1.77,1.77,0,0,0,0-.65,5.39,5.39,0,0,0-1.12-2.65,15.18,15.18,0,0,0-2.38-2.44c-1.81-1.55-3.89-2.83-6-4.37l-6-4.47L99.82,424.85l-.07-.06-.06-.05a43.88,43.88,0,0,0-6-4.86L90.4,417.6l-1.62-1.19c-.55-.4-1.08-.86-1.52-1.13A1.55,1.55,0,0,0,86,415a2.74,2.74,0,0,0-1.19.86,18.87,18.87,0,0,0-2,3.23,11.93,11.93,0,0,1-2.43,3.46,4.79,4.79,0,0,1-4.37.81,14.25,14.25,0,0,1-3.71-1.89c-1.15-.78-2.1-1.72-3.14-2.45a71.67,71.67,0,0,0-7-3.68,59.54,59.54,0,0,1-7-3.88A22.28,22.28,0,0,1,52.13,409a15.92,15.92,0,0,1-1.35-1.49A3.73,3.73,0,0,1,49.87,405.64Zm.3-.05a3.56,3.56,0,0,0,.89,1.65,18.23,18.23,0,0,0,1.37,1.41A21.27,21.27,0,0,0,55.56,411a57.49,57.49,0,0,0,7,3.61,72.57,72.57,0,0,1,7.19,3.55c1.16.76,2.14,1.67,3.2,2.34a13.14,13.14,0,0,0,3.4,1.61,3.69,3.69,0,0,0,1.68.06,3.19,3.19,0,0,0,1.44-.7,10.55,10.55,0,0,0,2-3.09,20.2,20.2,0,0,1,2.09-3.59,4.32,4.32,0,0,1,2-1.43,3.54,3.54,0,0,1,1.38-.08,3.8,3.8,0,0,1,1.2.46c.69.41,1.18.82,1.71,1.18l1.62,1.11,3.31,2.19a45,45,0,0,1,6.45,5l-.13-.1,24.42,17.49,6.11,4.38c1.94,1.39,4.16,2.72,6.19,4.39a18.44,18.44,0,0,1,2.89,2.9,8.3,8.3,0,0,1,1.76,4.16,4.46,4.46,0,0,1,0,1.21,5.11,5.11,0,0,1-.21,1.19c-.11.37-.25.77-.37,1.11l-.36.83a22.94,22.94,0,0,0-1.13,3.33c-.56,2.21-.53,4.39.6,5.9a7,7,0,0,0,2.28,1.9,6.94,6.94,0,0,0,2.92.67,36.72,36.72,0,0,0,7.1-.79c.63-.11,1.27-.2,1.94-.28l1.93-.17,3.74-.3,3.77-.3c1.49-.07,2.69.07,3.6-.08s1.19-.39,1.45-1a4.65,4.65,0,0,0-.12-2.58,12.94,12.94,0,0,1-.5-4.33,5.58,5.58,0,0,1,1-2.6,4,4,0,0,1,1.06-1.14,4.92,4.92,0,0,1,1.35-.72A11.63,11.63,0,0,1,177,458l.86,0h.94l1.87,0,60.06,1.25,1.88,0,.92,0,.77,0c1.1-.07,2.33-.23,3.58-.38a26.9,26.9,0,0,1,8.25-.1,10.38,10.38,0,0,1,2.37.77,7.47,7.47,0,0,1,2.24,1.64,8.22,8.22,0,0,1,2,4.85,24.64,24.64,0,0,1,0,4.16,10.25,10.25,0,0,0,.13,3c.32,1.44,1.61,2.78,3.54,3.84a39.08,39.08,0,0,0,6.45,2.73c1.18.42,2.39.85,3.66,1.37l.95.41.85.39,1.71.79,6.82,3.13,13.65,6.28.85.39,1,.5c.59.32,1.08.59,1.49.78a3.39,3.39,0,0,0,.5.19l.13,0,.27,0a10.52,10.52,0,0,0,1.42,0c1.06,0,2.25-.17,3.55-.29l1-.08,1.07,0,1.87-.05,7.47-.17,3.74-.09.94,0h1.12c.72,0,1.38.07,2,.12a70.91,70.91,0,0,0,7.17.38,12.86,12.86,0,0,0,3-.38,4.25,4.25,0,0,0,1-.39,1.35,1.35,0,0,0,.44-.37,4.17,4.17,0,0,0,.4-.93c.16-.47.31-1,.49-1.67a17.75,17.75,0,0,1,.74-2.14,9.71,9.71,0,0,1,.61-1.2,6.94,6.94,0,0,1,1-1.28,8.24,8.24,0,0,1,2.4-1.71,13,13,0,0,1,2.4-.8,20.59,20.59,0,0,1,4.38-.44,76.5,76.5,0,0,1,15.51,2.22l3.67.82c1.19.27,2.41.53,3.44.68,1.29.18,2.45.37,3.5.43l.92.06,1,.07c.68.06,1.35.14,2,.23a69.56,69.56,0,0,1,15.06,4.28c2.3.84,4.72,1.66,7.17,2.69.62.26,1.23.52,1.84.81l.92.45.53.2a3.79,3.79,0,0,0,2,.17,6.82,6.82,0,0,0,2.25-.92A11.07,11.07,0,0,0,414.9,493a12.68,12.68,0,0,0,1.61-2.39,9.42,9.42,0,0,0,.83-2.54,8.19,8.19,0,0,0-1-5.16,26.16,26.16,0,0,0-4-5.24c-1.64-1.79-3.48-3.63-5.19-5.87-.42-.57-.85-1.12-1.24-1.77l-.59-.93-.53-1c-.37-.71-.63-1.34-.89-2s-.49-1.3-.71-1.95a44.43,44.43,0,0,1-1.84-7.95c-.38-2.63-.46-5.43-.59-7.76s-.33-5.06-.26-7.78c0-.69.05-1.38.11-2.08a18.52,18.52,0,0,1,.3-2.28,16.45,16.45,0,0,1,1.59-4.53,12.92,12.92,0,0,1,7.81-6.37c3.3-.91,6.15-.61,8.5-.6,4.43.16,9.24-1.18,14.92-1.23h-.33c11.18-1.07,22.33-2.35,33.48-3.72l4.18-.54,2.08-.29c.72-.09,1.49-.19,2.21-.26,2.92-.35,5.69-.54,8.18-1A22.7,22.7,0,0,0,487,417a14.44,14.44,0,0,0,2.92-1.31,13.78,13.78,0,0,0,1.27-.82c.39-.32.77-.61,1.2-1a28.48,28.48,0,0,0,2.4-2.49,75.59,75.59,0,0,0,4.57-6.17c.77-1.13,1.56-2.31,2.42-3.51l2.55-3.5q5-6.78,10.28-13.35c3.49-4.4,7.11-8.69,10.71-13l10.87-12.87,1.37-1.6.67-.8.35-.45a8.42,8.42,0,0,0,1.17-2,12.13,12.13,0,0,0,.82-2.59,22.31,22.31,0,0,0,.45-3.22c.22-2.32.21-5,.25-7.88l.18-8.49q.48-16.84,1.09-33.68l1.14-33.68.49-16.84.23-8.42c0-1.4.09-2.81.1-4.21l0-4.26c-.06-5.65,0-11.21-.33-16.64l-.06-1,0-.51,0-.6c0-.81-.06-1.62,0-2.4,0-1.59.14-3.1.27-4.58.29-2.93.67-5.67.78-8.17a20.18,20.18,0,0,0-.63-6.68,12.07,12.07,0,0,0-.52-1.42l-.3-.69-.4-.71-.39-.72-.44-.64a9.33,9.33,0,0,0-.91-1.21c-.31-.4-.69-.7-1-1.06s-.72-.64-1.15-.89a14.51,14.51,0,0,0-2.67-1.51,46.36,46.36,0,0,0-7.09-2.17c-5.53-1.33-11-2.74-16.52-4.39-2.79-.84-5.59-1.78-8.37-2.85-1.4-.55-2.79-1.12-4.17-1.76-.69-.3-1.37-.64-2.06-1l-.85-.4c-.24-.11-.48-.24-.73-.34-4-1.71-8.93-1.93-14.59-2a61.55,61.55,0,0,1-9.2-.72,26.09,26.09,0,0,1-5.06-1.4,21,21,0,0,1-8.82-6.56c-.52-.71-1.09-1.42-1.52-2.15l-.69-1.1-.59-1.11c-.42-.75-.72-1.49-1.07-2.24s-.65-1.58-.91-2.36a38.64,38.64,0,0,1-1.23-4.68c-.6-3-.93-5.75-1.48-8.13-.14-.6-.29-1.17-.46-1.73s-.36-1.15-.59-1.77l-1.45-3.92a37.19,37.19,0,0,1-1.42-4.56,23.35,23.35,0,0,1-.47-2.57c-.1-.84-.17-1.67-.21-2.45-.08-1.55-.08-2.92-.18-4a9.27,9.27,0,0,0-.6-2.71,10.62,10.62,0,0,0-1.5-2.43,12.69,12.69,0,0,0-2.21-2.12,12.14,12.14,0,0,0-5.62-2.33,17,17,0,0,0-6.62.5,29.1,29.1,0,0,0-6.77,2.84c-2.28,1.26-4.6,2.76-7.11,4.26a49.58,49.58,0,0,1-8.19,4.06c-5.66,2.12-11.2,3.28-16.15,5.05-1.23.44-2.44.9-3.58,1.44s-2.42,1.14-3.48,1.72a17,17,0,0,0-2.76,1.88,9.14,9.14,0,0,0-.88.94,4,4,0,0,0-.48.92,13.9,13.9,0,0,0-.6,3.24,15,15,0,0,1-1.5,5.42,11,11,0,0,1-1.9,2.58,13.8,13.8,0,0,1-2.28,1.88,12.65,12.65,0,0,1-5.69,2,16.41,16.41,0,0,1-5.52-.43,35.85,35.85,0,0,1-4.52-1.46,75.24,75.24,0,0,0-7.47-2.72,12,12,0,0,0-3.08-.44,6.61,6.61,0,0,0-2.51.5,11.21,11.21,0,0,0-1.27.66,13.22,13.22,0,0,0-1.34.91,27.16,27.16,0,0,0-2.68,2.4c-.89.91-1.82,1.9-2.81,2.95l-.75.78-.86.86c-.59.56-1.2,1.12-1.84,1.64a29,29,0,0,1-8.51,4.71,81.66,81.66,0,0,1-8.47,2.38l-8.2,1.94-4.1,1-1.94.46a15.64,15.64,0,0,0-1.72.57,73.86,73.86,0,0,1-8.29,3,14.34,14.34,0,0,1-5.22.45,8.26,8.26,0,0,1-3-.93,7.43,7.43,0,0,1-2.42-2.08,9.43,9.43,0,0,1-1.39-2.56,10.23,10.23,0,0,1-.6-2.69c-.16-1.72-.06-3.08-.23-4a3.35,3.35,0,0,0-1.17-2.1,7.12,7.12,0,0,0-2.73-1.41,20.79,20.79,0,0,0-7.42-.44,48.17,48.17,0,0,0-15.33,4.35,30.66,30.66,0,0,0-3.4,1.87,13.87,13.87,0,0,0-2.73,2.3,17.67,17.67,0,0,0-3.42,6.55l-.63,2a21.86,21.86,0,0,1-.84,2.2c-.61,1.39-1.28,2.66-1.88,3.89a24.28,24.28,0,0,0-1.47,3.52,10.26,10.26,0,0,0-.35,1.62,3.71,3.71,0,0,0,0,1.19,2.33,2.33,0,0,0,.49.86c.29.34.76.76,1.33,1.29a10.26,10.26,0,0,1,1.76,2.12,7.42,7.42,0,0,1,1,3,10.4,10.4,0,0,1-1.05,5.37c-.33.74-.69,1.42-1,2.06l-.52.93c-.16.3-.31.58-.54,1a27.37,27.37,0,0,1-6.12,6.9c-2.23,1.9-4.5,3.57-6.5,5.31-1,.89-1.85,1.73-2.86,2.79l-2.92,3-5.84,6.06-5.82,6.08-1.46,1.53-.72.76a8.25,8.25,0,0,0-.58.65c-.74.89-1.5,2.05-2.37,3.24a18.31,18.31,0,0,1-3.34,3.69,10.43,10.43,0,0,1-1.25.83,14.84,14.84,0,0,1-1.35.62A8.25,8.25,0,0,1,196,236a9.49,9.49,0,0,1-3-.74c-.81-.35-1.45-.68-2-.94a4.93,4.93,0,0,0-2.61-.61,4.69,4.69,0,0,0-2.39.84,7.55,7.55,0,0,0-2,2.14,11.66,11.66,0,0,0-1.77,6.15,15.54,15.54,0,0,0,1.25,6.58l.34.71.05.06.13.17a11.47,11.47,0,0,0,1,1c.89.76,2,1.55,3.19,2.46a23.21,23.21,0,0,1,2,1.69c.18.19.39.42.57.64a7.46,7.46,0,0,1,.64.9,5.39,5.39,0,0,1,.35.72,4.9,4.9,0,0,1,.23.69l.14.79a15.69,15.69,0,0,1-.18,5.47,47.59,47.59,0,0,1-2.71,8.65c-2.12,5.4-4.79,10.47-7,15.42-.28.62-.51,1.21-.74,1.79s-.46,1.29-.69,1.93l-1.33,3.94-2.66,8c-.46,1.34-.94,2.7-1.49,4.09-.28.69-.56,1.39-.93,2.12a11.21,11.21,0,0,1-.6,1.11c-.12.19-.21.37-.35.57l-.45.6a7.39,7.39,0,0,1-1.19,1.18A5.66,5.66,0,0,1,170,315a6.75,6.75,0,0,1-1.7.24c-.45,0-1,0-1.35-.1-1.6-.23-2.87-.52-4.19-.71-5.21-.69-10.71-.53-15.45,1.46a23.15,23.15,0,0,0-6.55,4.11,30.74,30.74,0,0,0-2.78,2.81L135.37,326a77.18,77.18,0,0,0-5.06,6.47,10.9,10.9,0,0,0-1.52,3.27,3.9,3.9,0,0,0,.4,2.91,8.3,8.3,0,0,0,2.49,2.44c.29.2.44.26,1,.7a3.42,3.42,0,0,1,1,1.56,4.9,4.9,0,0,1-.16,3,16.7,16.7,0,0,1-2.2,4.06c-.85,1.2-1.75,2.33-2.68,3.41a151.42,151.42,0,0,1-12,12.06l-6.22,5.67-.75.71L109,373l-1.49,1.5-3,3-5.94,6c-1,1-2,2-3,2.95-.5.49-1,1-1.45,1.48s-.91,1-1.43,1.58A8.8,8.8,0,0,1,91,390.91a3.9,3.9,0,0,1-1.18.48,2.57,2.57,0,0,1-1.42-.12,4.57,4.57,0,0,1-1.84-1.6c-.44-.59-.82-1.16-1.23-1.67a3.46,3.46,0,0,0-1.38-1.1,2.44,2.44,0,0,0-1.65.1c-.55.21-1.19.59-1.81.91l-1.86,1-14.86,7.92-7.38,4c-1.25.71-2.58,1.17-3.81,1.81a10.42,10.42,0,0,0-1.72,1.13A2.07,2.07,0,0,0,50.17,405.59Z"/></svg>