<svg id="Layer_1" data-name="Layer 1" xmlns="http://www.w3.org/2000/svg" viewBox="0 0 600 600"><title>Iceland</title><path d="M196.23,228.89c-.07-3-.07-5.93-.27-8.89s-.48-5.91-.88-8.85c-.84-5.86-1.69-11.72-3-17.46a102,102,0,0,0-5.25-16.77,85,85,0,0,0-8.38-15.3A72.76,72.76,0,0,0,167,148.71a59.65,59.65,0,0,0-14.21-9.43,55.27,55.27,0,0,0-7.88-3,45.18,45.18,0,0,0-8.11-1.63c-5.34-.52-10.92.24-15,2.68a12,12,0,0,0-4.55,4.67,12.32,12.32,0,0,0-1.31,6.27,18.76,18.76,0,0,0,1.67,6.77,23.85,23.85,0,0,0,4,6.09c3.34,3.85,7.78,7.17,12.54,10.72l1.84,1.39c.66.52,1.37,1.09,2.09,1.76a16.67,16.67,0,0,1,4.24,5.77,12.9,12.9,0,0,1,1,4.57,12.21,12.21,0,0,1-.92,5,14.09,14.09,0,0,1-5.74,6.55,16.57,16.57,0,0,1-7.36,2.41,15.07,15.07,0,0,1-4-.19,19.81,19.81,0,0,1-3.37-.88,36.31,36.31,0,0,1-9.74-5.72l-1.81-1.38-1.89-1.5L105,186.77a71.08,71.08,0,0,0-6.38-4.7,17,17,0,0,0-5.38-2.42A4.63,4.63,0,0,0,90,180a6.18,6.18,0,0,0-1.45,1,5.25,5.25,0,0,0-.91,1.2,10.91,10.91,0,0,0-1.24,4.41,19.62,19.62,0,0,0-.06,3,31.41,31.41,0,0,0,.34,3.38,13.56,13.56,0,0,0,.63,2.57c0,.06.06.16.08.19a.36.36,0,0,1,0,.09l.2.37c.18.32.46.79.83,1.39a30.33,30.33,0,0,1,2.88,5.75,19,19,0,0,1,.6,2.17,19.54,19.54,0,0,1,.22,7.17,15.23,15.23,0,0,1-7,10.43,18.64,18.64,0,0,1-4.48,2,25.62,25.62,0,0,1-3.62.82,53,53,0,0,1-5.46.51l-.42,0-.27,0-.56.07c-.37.07-.76.15-1.15.26a14.14,14.14,0,0,0-4.58,2.2,12.15,12.15,0,0,0-3.19,3.29,6.43,6.43,0,0,0-1,3c0,.7,0,.52.29,1.12A8.18,8.18,0,0,0,64,238.65a20.74,20.74,0,0,0,5.75,1.51,18,18,0,0,0,3,.18,26.13,26.13,0,0,0,3.35-.26,46.36,46.36,0,0,0,7.25-1.68c1.27-.38,2.57-.8,3.89-1.26l2-.72c.84-.31,1.68-.59,2.52-.86a83.24,83.24,0,0,1,19.41-3.13c3.17-.22,6.32-.27,9.44-.26s6.22.1,9.29.27,6.11.43,9.13.71,6,.54,9,.86l4.45.43,2.24.22c.79.08,1.68.18,2.66.35a18.29,18.29,0,0,1,3.22.86,12.74,12.74,0,0,1,3.54,2c.5.41.8.67,1.21,1.07s.77.77,1.15,1.21a13,13,0,0,1,2.13,3.34,10.31,10.31,0,0,1,.84,4.87,11,11,0,0,1-1.38,4.49,17,17,0,0,1-4.49,5,52.51,52.51,0,0,1-8.72,5.16c-1.41.7-2.8,1.34-4.16,2s-2.67,1.28-3.78,1.88a8.47,8.47,0,0,0-1.2.74,4.31,4.31,0,0,0-.74.74,1.82,1.82,0,0,0-.52,1.14c0,.1.08.11.12.13a.55.55,0,0,1,.19.12,3.86,3.86,0,0,0,.94.77,4,4,0,0,0,1.54.56,18.05,18.05,0,0,0,2.89.33,38.67,38.67,0,0,0,7.25-.51c1.28-.19,2.56-.43,3.84-.71.63-.13,1.27-.28,1.9-.44l1-.24a1.89,1.89,0,0,1,.41-.2c.46-.18,1.12-.42,1.88-.68s1.61-.54,2.59-.8a23.82,23.82,0,0,1,3.38-.69,17.22,17.22,0,0,1,4.82,0,14.82,14.82,0,0,1,6.77,2.76,15,15,0,0,1,3,3c.36.5.71,1,1,1.54a18.22,18.22,0,0,1,.86,1.71,16.2,16.2,0,0,1,1.25,7.09,19.58,19.58,0,0,1-1.06,5.44,26.19,26.19,0,0,1-3.72,7,35.88,35.88,0,0,1-4.39,5,31.44,31.44,0,0,1-2.68,2.25c-.5.37-1.05.76-1.68,1.15-.33.21-.66.41-1,.62s-.9.46-1.09.55a33.57,33.57,0,0,1-6.28,2.38,49,49,0,0,1-11.61,1.65c-3.54.15-6.69,0-9.54-.06-11.51-.34-22.8-.89-34-.81-1.4,0-2.8,0-4.2.08-1.22,0-3.24.16-4.83.16-3.29,0-6.25-.06-9.1-.09s-5.55.06-8.08.26A30.16,30.16,0,0,0,80,310a11.56,11.56,0,0,0-4.24,2.27l-.3.3a.82.82,0,0,0-.18.19,2.21,2.21,0,0,0-.33.49,3.05,3.05,0,0,0-.36,1,2.05,2.05,0,0,0,0,.59.9.9,0,0,0,.3.54,8.93,8.93,0,0,0,4.27,1.72,35,35,0,0,0,7.32.56,74.45,74.45,0,0,0,8.16-.56c5.57-.63,11.21-1.79,17.07-3,1.47-.32,3-.64,4.5-.95s3.13-.6,5-.82l2.51-.24c.81-.08,1.64-.15,2.49-.2a51.16,51.16,0,0,1,5.29-.08,36.36,36.36,0,0,1,5.81.69,26.11,26.11,0,0,1,6.42,2.13,22.41,22.41,0,0,1,6.32,4.57,23,23,0,0,1,4.43,6.71,31.85,31.85,0,0,1,2,6.85c.36,2.1.59,4,.77,5.65s.37,3.15.59,4.4a11.49,11.49,0,0,0,.88,2.92,2.63,2.63,0,0,0,.52.75,2.21,2.21,0,0,0,.52.32l1.23.61c1,.48,2.37,1.35,4.36,2.43,1,.53,2.08,1.14,3.28,1.85s2.5,1.48,3.89,2.38l1.08.71.56.38.67.49c.86.66,1.7,1.32,2.51,2a45.48,45.48,0,0,1,4.67,4.47,30.24,30.24,0,0,1,7.81,14.11,27.94,27.94,0,0,1,.69,5.85,25.87,25.87,0,0,1-.88,6.95,23.71,23.71,0,0,1-3,6.83,26.06,26.06,0,0,1-2.14,2.82,25.72,25.72,0,0,1-2.29,2.27,29.86,29.86,0,0,1-9,5.23,45.13,45.13,0,0,1-7.32,2c-1,.2-2,.35-2.84.46l-2.17.29c-1.33.19-2.67.36-4,.59-2.63.48-5.2,1-7.66,1.65a61.29,61.29,0,0,0-6.82,2.25c-.52.2-1,.42-1.45.63l-1,.5c-.22.12-.31.24-.21.15a3.42,3.42,0,0,0,.66-1.09,4.38,4.38,0,0,0,.35-1.91,2.37,2.37,0,0,0-.16-.81.52.52,0,0,0-.1-.18.5.5,0,0,0-.07-.08s-.08-.07,0-.05a4,4,0,0,0,1.58,1,20.91,20.91,0,0,0,5,1.1,49.74,49.74,0,0,0,7,.27c2.59-.05,5.42-.22,8.49-.39,1.54-.08,3.12-.15,4.78-.19.83,0,1.66,0,2.52,0H171l1.16,0a121.78,121.78,0,0,1,19.77,1.55,58.79,58.79,0,0,1,20.91,7.63,55.28,55.28,0,0,1,8.75,6.75c2.5,2.32,4.66,4.58,6.66,6.62,1,1,2,2,2.9,2.9s1.88,1.74,2.85,2.6a78.15,78.15,0,0,0,6.21,4.8,100.2,100.2,0,0,0,14.21,8c5,2.39,10.36,4.42,15.78,6.4,10.95,3.95,21.88,7.29,32.66,8.27,2.69.23,5.36.34,8,.32a61.21,61.21,0,0,0,7.73-.63A53.36,53.36,0,0,0,333,463.43a39.73,39.73,0,0,0,11.51-7.85c.4-.39.81-.78,1.18-1.2.19-.18.4-.42.63-.68A8.15,8.15,0,0,1,347,453a8.6,8.6,0,0,0,.8-.67,4.37,4.37,0,0,0,.62-.86c.38-.62.75-1.25,1.12-1.93.74-1.34,1.46-2.8,2.36-4.27a25.19,25.19,0,0,1,3.26-4.29,47.32,47.32,0,0,1,4.26-3.93c.75-.63,1.55-1.22,2.35-1.81l1.9-1.39,7.24-5.18c2.29-1.66,4.42-3.28,6.34-4.9l.71-.61c.09-.09.28-.24.3-.27l.07-.1L379,422c.6-.72,1.47-1.84,2.63-3.2a36.05,36.05,0,0,1,4.85-4.81,25.63,25.63,0,0,1,3.86-2.59c.76-.4,1.57-.78,2.38-1.13l1.3-.47c.42-.14.94-.32,1.21-.38a37.86,37.86,0,0,1,7.14-1.3c2.12-.19,3.93-.23,5.38-.3a27.46,27.46,0,0,0,3.35-.26,6.3,6.3,0,0,0,.88-.2l1.68-.41a54.45,54.45,0,0,0,6.65-2.16,38.1,38.1,0,0,0,10.9-6.49,28.08,28.08,0,0,0,6.93-8.66,18.3,18.3,0,0,0,1.57-4.37l.11-.54.5-1.87c.17-.64.43-1.33.65-2s.5-1.34.8-2a32.71,32.71,0,0,1,4.95-8.14,31.61,31.61,0,0,1,7.43-6.53,36.77,36.77,0,0,1,7.91-3.78,54.75,54.75,0,0,1,13.05-2.59c3.71-.32,6.91-.4,9.58-.56a20.22,20.22,0,0,0,2.55-.23,10.31,10.31,0,0,0,4.36-1.77,14,14,0,0,0,2.71-2.56,24.36,24.36,0,0,0,2.81-4.12c.22-.41.44-.83.66-1.27l.32-.66.09-.22.06-.13c.17-.41.49-1.23.84-2.34.74-2.24,1.51-5.45,3.16-9.75a37,37,0,0,1,3.72-7.29,28.1,28.1,0,0,1,5.81-6.28,25.29,25.29,0,0,1,5.45-3.32c.43-.2.85-.38,1.24-.53s.83-.32,1.19-.44l1.14-.37,1.09-.27c1.41-.32,2.64-.57,3.75-.71l.8-.1.74-.07.66-.06a.86.86,0,0,0,.37-.1l.42-.17a15.6,15.6,0,0,0,5.86-4.27,28,28,0,0,0,3.78-6.54,56.7,56.7,0,0,0,4-15.79,151.39,151.39,0,0,0,.8-17.33,163.51,163.51,0,0,0-.63-17.06,51.68,51.68,0,0,0-3.61-15.32c-.23-.59-.5-1.15-.78-1.7s-.53-1.14-.82-1.62a32.34,32.34,0,0,0-1.85-3,30.34,30.34,0,0,0-4.75-5,21.52,21.52,0,0,0-11.1-5.14,13.28,13.28,0,0,0-4.89.35c-.72.17-1.95.54-3.45,1a41.16,41.16,0,0,1-5.72,1.26,21.56,21.56,0,0,1-9-.63,19,19,0,0,1-5.06-2.35,20.23,20.23,0,0,1-4-3.48,19.25,19.25,0,0,1-3.13-4.91,20.19,20.19,0,0,1-1.46-5.16,26.39,26.39,0,0,1,.18-8,47.47,47.47,0,0,1,1.23-5.46c.41-1.49.77-2.78.92-3.53a12.53,12.53,0,0,0,.34-3.25,9.32,9.32,0,0,0-1-3.75,25.84,25.84,0,0,0-2.45-3.42,29.49,29.49,0,0,1-3.73-6.13,15.29,15.29,0,0,1-1.22-5,13.31,13.31,0,0,1,.7-5.23,17.07,17.07,0,0,1,4-6.29,28.29,28.29,0,0,1,4.64-3.86,44.68,44.68,0,0,1,4.64-2.61c3-1.49,5.62-2.59,7.76-3.95a20.34,20.34,0,0,0,2.82-2.05c.39-.36.75-.73,1.08-1.1a9.6,9.6,0,0,0,.78-1.08,6.28,6.28,0,0,0,.89-2.37,3.76,3.76,0,0,0-.16-1.87,1.34,1.34,0,0,1-.07-.18l-.12-.24-.23-.36a1.53,1.53,0,0,0-.32-.34c-.13-.11-.45-.21-1.22-.13a10.76,10.76,0,0,0-2.83.86,24.35,24.35,0,0,0-3.25,1.77,52.34,52.34,0,0,0-6.35,5c-1,.92-2,1.9-2.92,2.87s-1.88,2.07-2.86,3.17a76.74,76.74,0,0,1-6.64,6.89c-.65.57-1.31,1.13-2,1.66l-.54.41-.6.43c-.39.26-.77.51-1.16.75a32.51,32.51,0,0,1-4.86,2.47,19.28,19.28,0,0,1-3.07.95,10.89,10.89,0,0,1-4.83,0,10.19,10.19,0,0,1-4.87-2.84,13.69,13.69,0,0,1-2.32-3.34,24.84,24.84,0,0,1-1.93-5.64c-.4-1.73-.66-3.38-.88-5s-.36-3.12-.56-4.27a36.3,36.3,0,0,0-.75-3.74,12,12,0,0,0-2.58-5.18,13.43,13.43,0,0,0-2.23-2c-.41-.33-1-.68-1.38-.95a12.06,12.06,0,0,0-1.23-.67,15.72,15.72,0,0,0-11.76-.19,10.91,10.91,0,0,0-4.35,3,7.45,7.45,0,0,0-1.16,1.84,8.37,8.37,0,0,0-.56,2.12,24.79,24.79,0,0,0,.29,6.5c.36,2.69.95,5.81,1.14,9.53a29.45,29.45,0,0,1-.4,6.23,27.23,27.23,0,0,1-1.86,6.28,20.92,20.92,0,0,1-4.24,6.33,17,17,0,0,1-1.59,1.43,17.16,17.16,0,0,1-1.81,1.27,15.68,15.68,0,0,1-1.83,1,16.55,16.55,0,0,1-2.11.85,15.63,15.63,0,0,1-5.24.75,16.21,16.21,0,0,1-4.94-1,47.29,47.29,0,0,1-5.07-2.39,8.05,8.05,0,0,0-1.09-.46l-.5-.15-.65-.17a7.59,7.59,0,0,0-2-.22,1.68,1.68,0,0,0-.75.18,1.83,1.83,0,0,0-.52.42,7.11,7.11,0,0,0-1,1.53c-.2.36-.39.78-.58,1.21l-.72,1.81a50.55,50.55,0,0,1-2.2,5,23.19,23.19,0,0,1-1.92,3.08,18.43,18.43,0,0,1-3.21,3.37,15.73,15.73,0,0,1-4.91,2.69,16,16,0,0,1-5.34.8,19,19,0,0,1-4.35-.6c-.65-.15-1.21-.34-1.8-.53a16.18,16.18,0,0,1-2.2-.91,20,20,0,0,1-6.41-5.17c-1.4-1.67-2.27-3-2.85-3.69s-.73-.77-.38-.59.58.11.41.09a2.52,2.52,0,0,0-1,.2,4.38,4.38,0,0,0-1.2.67l-.25.21s-.09.15-.15.21-.06.13-.12.19a1.54,1.54,0,0,0-.24.75,14.15,14.15,0,0,0,1.2,5.21c.88,2.49,2.17,5.42,3.18,9.15a28.37,28.37,0,0,1,1,6.3,21.51,21.51,0,0,1-1,7.28c-.2.59-.42,1.18-.65,1.77s-.51,1.11-.79,1.66a12,12,0,0,1-.65,1.15,12.63,12.63,0,0,1-1,1.36,10.93,10.93,0,0,1-3.78,2.92,10.43,10.43,0,0,1-5.62.9,11.51,11.51,0,0,1-3.86-1.19,15.5,15.5,0,0,1-3.76-2.77,30.49,30.49,0,0,1-3.82-4.66c-1-1.47-1.87-2.89-2.68-4.28s-1.59-2.86-2.08-3.64l-2.39-3.9c-3.12-5.2-6.07-10.33-9-15.32l-2.24-3.69c-.77-1.23-1.54-2.47-2.27-3.58a27.77,27.77,0,0,0-4.4-5.46c-.19-.17-.38-.32-.56-.49s-.34-.28-.53-.4a13.07,13.07,0,0,0-1.12-.7,9.65,9.65,0,0,0-2.29-.86,5.61,5.61,0,0,0-1.89-.07,3.85,3.85,0,0,0-1.51.61,8.62,8.62,0,0,0-2.86,4.22,16.84,16.84,0,0,0-.82,3.18,35.87,35.87,0,0,0-.36,3.84c-.14,2.74-.1,5.82-.4,9.17a36.72,36.72,0,0,1-.82,5.13,29.11,29.11,0,0,1-1.72,5.21A16.75,16.75,0,0,1,287,208a11.92,11.92,0,0,1-6.77,3.25,14.26,14.26,0,0,1-6.62-.87,22.82,22.82,0,0,1-5-2.63,36,36,0,0,1-7.36-7,38.09,38.09,0,0,1-5.28-8.49,57.23,57.23,0,0,0-3.8-7.44,35.46,35.46,0,0,0-4.8-6.42,11.88,11.88,0,0,0-2.66-2.08,3,3,0,0,0-2-.44,2.88,2.88,0,0,0-1.71,1.28,6.9,6.9,0,0,0-1.06,2.92,27.93,27.93,0,0,0-.23,4.08l-.13,4.46c-.07,2.95-.09,5.91-.12,8.87l-.12,17.8-.14,8.92a36.35,36.35,0,0,1-.95,9.2,11.51,11.51,0,0,1-2.28,4.45,7.75,7.75,0,0,1-2,1.65,12.1,12.1,0,0,1-2.28,1,8.31,8.31,0,0,1-2.56.39,6.27,6.27,0,0,1-2.62-.66,8.75,8.75,0,0,1-3.46-3.59,36.94,36.94,0,0,1-3-8.59c-.38-1.44-.73-2.87-1.21-4.21s-1.21-2.41-2.41-2.46a3.33,3.33,0,0,0-1.79.44,4.62,4.62,0,0,0-1.47,1.33,26.73,26.73,0,0,0-2.22,3.74,18.24,18.24,0,0,1-1.18,1.94c-.41.61-.81,1.21-1.16,1.86a27.19,27.19,0,0,0-1.81,4c-2,5.54-2.72,11.48-3.94,17.29a15.25,15.25,0,0,1-.56,2.16,4.06,4.06,0,0,1-3.34,2.77,1.53,1.53,0,0,1-1.08-.42,2.85,2.85,0,0,1-.64-1,12.5,12.5,0,0,1-.66-4.41c0-1.49.1-3,.13-4.45.18-5.93-.22-11.85-.33-17.78Zm.09,0c.34,5.92.89,11.83.9,17.8,0,1.5-.07,3,0,4.42a11.65,11.65,0,0,0,.75,4.07,1.89,1.89,0,0,0,.45.63.59.59,0,0,0,.46.15,3.14,3.14,0,0,0,1.46-.77c.81-.63,1.07-2,1.32-3.46.54-2.88.9-5.82,1.42-8.76a59.06,59.06,0,0,1,2.16-8.82,28.47,28.47,0,0,1,1.83-4.26,22.84,22.84,0,0,1,1.2-2,17.65,17.65,0,0,0,1.05-1.8,27.86,27.86,0,0,1,2.31-4,7.84,7.84,0,0,1,.86-1,5.5,5.5,0,0,1,4-1.59,4.13,4.13,0,0,1,2.83,1.32,6.93,6.93,0,0,1,1.35,2.33c.56,1.49,1,2.93,1.35,4.36a34.8,34.8,0,0,0,3,8,6.49,6.49,0,0,0,2.56,2.65,4.36,4.36,0,0,0,3.41.08,10.63,10.63,0,0,0,1.79-.8,5.58,5.58,0,0,0,1.39-1.17,8.75,8.75,0,0,0,1.69-3.49,34,34,0,0,0,.65-8.54l-.08-8.88-.32-17.78c0-3-.09-5.94-.1-8.91V184.2a33.87,33.87,0,0,1,.13-4.58,10.9,10.9,0,0,1,1.53-4.6,6.64,6.64,0,0,1,9-2.58,15.34,15.34,0,0,1,3.85,2.74,39.25,39.25,0,0,1,5.69,7.09,63,63,0,0,1,4.33,7.89,32.78,32.78,0,0,0,4.75,7.24,31,31,0,0,0,6.41,5.81,17.25,17.25,0,0,0,3.8,1.94,8.85,8.85,0,0,0,4,.51,6.21,6.21,0,0,0,3.54-1.77,10.79,10.79,0,0,0,2.27-3.5,27.25,27.25,0,0,0,1.84-8.46c.2-2.92.09-5.88.14-8.86a30.45,30.45,0,0,1,1.23-8.92,15.68,15.68,0,0,1,4.89-7.59,10.82,10.82,0,0,1,4.13-2,12.08,12.08,0,0,1,4.56-.16,16.72,16.72,0,0,1,8.12,3.83,34.26,34.26,0,0,1,5.88,6.74c1.69,2.45,3.29,4.95,4.88,7.45l9.37,15.13,2.4,3.74c.82,1.25,1.52,2.55,2.3,3.81a37.13,37.13,0,0,0,5.25,7.11,7.88,7.88,0,0,0,1.75,1.3,2.28,2.28,0,0,0,2,.16,3.24,3.24,0,0,0,1.39-1.57l.46-1,.37-1a15.38,15.38,0,0,0-.23-8.71c-.79-2.85-2-5.57-3-8.35a23.05,23.05,0,0,1-1.91-8.65,11.12,11.12,0,0,1,3.64-7.89,13.12,13.12,0,0,1,8.07-3.37,8.42,8.42,0,0,1,4.3.92,11,11,0,0,1,3.31,2.92c.94,1.15,1.77,2.38,2.74,3.51a10.61,10.61,0,0,0,3.41,2.8,9.81,9.81,0,0,0,2.09.74,10.24,10.24,0,0,0,2.2.31,6.23,6.23,0,0,0,4.12-1.4,11.27,11.27,0,0,0,2.69-3.51,43.2,43.2,0,0,0,1.8-4.06,21.61,21.61,0,0,1,4.43-7.64,10.87,10.87,0,0,1,8-3.33,17.15,17.15,0,0,1,4.39.6,18.29,18.29,0,0,1,4.14,1.6,37.72,37.72,0,0,0,4,2,6.53,6.53,0,0,0,4.36.16,9.46,9.46,0,0,0,3.76-2.28,12.25,12.25,0,0,0,2.51-3.65,20.57,20.57,0,0,0,1.71-8.65c-.07-3-.52-5.91-.82-8.86a29.9,29.9,0,0,1,.09-8.86,15,15,0,0,1,4-7.79,18.84,18.84,0,0,1,7.49-4.64,22.72,22.72,0,0,1,17.3,1,21.75,21.75,0,0,1,3.71,2.43,19.84,19.84,0,0,1,3.2,3.08,18.75,18.75,0,0,1,3.76,8,66.71,66.71,0,0,1,1.27,8.79,28.63,28.63,0,0,0,2,8.62,4.28,4.28,0,0,0,5.3,3,13,13,0,0,0,2.13-.62,26.07,26.07,0,0,0,7.62-4.5c4.55-3.82,8.13-8.64,12.69-12.46a56.81,56.81,0,0,1,7.11-5.33,20.72,20.72,0,0,1,8.19-3.28,6.71,6.71,0,0,1,4.28.83,7.2,7.2,0,0,1,2.76,3.4,10.08,10.08,0,0,1-.82,8.56,18.29,18.29,0,0,1-6.2,6.26c-2.47,1.65-5.13,3-7.67,4.51a23.13,23.13,0,0,0-6.73,5.72,11.12,11.12,0,0,0-2.05,3.91,5.81,5.81,0,0,0,.57,4.3c1.46,2.63,3.93,4.43,6,6.53a18.73,18.73,0,0,1,4.47,7.6,18.46,18.46,0,0,1,.37,8.8c-.6,2.9-1.59,5.71-2.08,8.64a15,15,0,0,0-.16,4.43,7.43,7.43,0,0,0,1.75,4,8.1,8.1,0,0,0,3.66,2.42,10.89,10.89,0,0,0,4.4.33c3-.3,5.79-1.26,8.73-1.68a23.44,23.44,0,0,1,8.83.41,31.94,31.94,0,0,1,15.15,8.87,39.12,39.12,0,0,1,9.24,15,66.72,66.72,0,0,1,3.39,17.41c.44,5.92.34,11.86.19,17.78s-.35,11.86-.9,17.77A87.81,87.81,0,0,1,545.78,306a47.05,47.05,0,0,1-8,15.77c-3.66,4.73-9.08,7.58-13.3,11.74a20.11,20.11,0,0,0-2.82,3.43,21.68,21.68,0,0,0-1.95,4c-1.06,2.77-1.77,5.66-2.63,8.49a44.43,44.43,0,0,1-1.47,4.2c-.58,1.36-1.24,2.69-2,4a43.62,43.62,0,0,1-5,7.35,30,30,0,0,1-14.61,9.68,33.53,33.53,0,0,1-8.79,1.22c-3,.1-5.93.13-8.89.33a37,37,0,0,0-8.74,1.5,16.12,16.12,0,0,0-7.42,4.71,18.74,18.74,0,0,0-3.77,8,36.46,36.46,0,0,1-3.6,8.1,44.77,44.77,0,0,1-12,13,54.88,54.88,0,0,1-15.8,8,71,71,0,0,1-8.61,2.2,32.81,32.81,0,0,1-4.4.62c-1.48.09-3,.08-4.45.07a33.65,33.65,0,0,0-8.84.69c-2.92.73-5.18,2.89-7.17,5-1,1.09-2,2.22-3,3.28a26.47,26.47,0,0,1-3.35,2.91c-2.36,1.8-4.81,3.47-7.29,5.1l-7.46,4.85a43.94,43.94,0,0,0-7,5.44c-4.29,4.11-7.66,9-11.86,13.24a47.28,47.28,0,0,1-14.8,9.68,61.53,61.53,0,0,1-17.19,4.35,78.63,78.63,0,0,1-17.75-.21c-11.8-1.39-23.23-4.84-34.47-8.58S245,460,234.92,453.71c-2.51-1.58-5-3.26-7.3-5.07s-4.58-3.78-6.73-5.82c-4.33-4-8.59-8.25-13.79-11.16a46,46,0,0,0-16.84-5.37,113.28,113.28,0,0,0-17.76-.65c-5.93.1-11.82.91-17.74,1.26s-11.95.24-17.61-1.63a18.46,18.46,0,0,1-7.47-4.66,13,13,0,0,1-3.53-8,10,10,0,0,1,.68-4.36,11.26,11.26,0,0,1,2.44-3.69,15.39,15.39,0,0,1,3.54-2.67,42.06,42.06,0,0,1,4-1.89,97.22,97.22,0,0,1,17.08-4.91c1.45-.3,2.91-.57,4.37-.83s2.92-.47,4.37-.78c2.87-.62,5.81-1.65,7.89-3.81a7.46,7.46,0,0,0,2.07-3.86,9.47,9.47,0,0,0-.32-4.39,23.14,23.14,0,0,0-4.4-7.65c-3.72-4.68-8.81-7.91-13.22-11.86a32.32,32.32,0,0,1-5.92-6.6,17.87,17.87,0,0,1-2.87-8.33,71.27,71.27,0,0,1,0-8.89,24.37,24.37,0,0,0-.94-8.79,11.91,11.91,0,0,0-5.65-6.59,21.63,21.63,0,0,0-8.53-2.26,57.36,57.36,0,0,0-8.89.09c-3,.27-5.87.84-8.78,1.37-5.83,1.08-11.66,2.19-17.55,2.93s-11.85,1.19-17.73.3a17.62,17.62,0,0,1-8.2-3.2A9.66,9.66,0,0,1,66,314.2a11.86,11.86,0,0,1,3.33-8,19.72,19.72,0,0,1,7.45-4.72,41.82,41.82,0,0,1,8.62-2.14c2.93-.45,5.89-.7,8.85-.9s5.92-.33,8.87-.57,5.89-.69,8.85-.95a277.47,277.47,0,0,1,35.55-.76c5.9.19,11.91.63,17.7-.78a22.82,22.82,0,0,0,4.2-1.42,15.71,15.71,0,0,0,3.68-2.47,19.37,19.37,0,0,0,5.37-7,5.92,5.92,0,0,0,.21-4.32,4.18,4.18,0,0,0-1.29-1.76,4.38,4.38,0,0,0-2-.85,12.36,12.36,0,0,0-4.41.21c-1.45.28-2.88.67-4.33,1a64.09,64.09,0,0,1-8.85.89,45.41,45.41,0,0,1-8.87-.5,21.21,21.21,0,0,1-4.29-1.14,11.41,11.41,0,0,1-3.74-2.38,9.3,9.3,0,0,1-2.43-3.68,6.91,6.91,0,0,1-.12-4.38,10.68,10.68,0,0,1,6-6.2c2.68-1.28,5.43-2.39,8.11-3.67a42.45,42.45,0,0,0,7.68-4.43,11.3,11.3,0,0,0,3-3.24,5,5,0,0,0,.67-2.09,4.42,4.42,0,0,0-.4-2.15,9.56,9.56,0,0,0-2.81-3.38,8.67,8.67,0,0,0-4.09-1.6c-1.46-.23-3-.3-4.42-.42l-4.44-.34c-11.81-.87-23.72-1.44-35.52,0a77.43,77.43,0,0,0-17.36,3.65c-1.39.5-2.74,1.11-4.12,1.67s-2.75,1.12-4.14,1.63A57.47,57.47,0,0,1,78,249.4a31.76,31.76,0,0,1-17.54-1.22A18.73,18.73,0,0,1,53,243.37a11.64,11.64,0,0,1-3-8.16,16.37,16.37,0,0,1,2.56-8.43,22,22,0,0,1,6.17-6.35,24.39,24.39,0,0,1,8.08-3.65c2.89-.81,5.91-.52,8.83-1a11,11,0,0,0,4.18-1.35,5.06,5.06,0,0,0,2.38-3.54,9.21,9.21,0,0,0-.39-4.36,22.88,22.88,0,0,0-2-4,20,20,0,0,1-1.92-4,24.94,24.94,0,0,1-.92-4.35,35.74,35.74,0,0,1-.07-8.89A19.63,19.63,0,0,1,79.83,177a14.41,14.41,0,0,1,6.89-5.45,13.83,13.83,0,0,1,8.76-.4,26.13,26.13,0,0,1,8,3.91c4.9,3.38,9.06,7.66,13.69,11.35a28.11,28.11,0,0,0,7.43,4.79,10.71,10.71,0,0,0,4.33.77,9.64,9.64,0,0,0,4.19-1.26,7.06,7.06,0,0,0,3-3.17,5.51,5.51,0,0,0,0-4.29,10.69,10.69,0,0,0-2.55-3.57c-1.05-1-2.23-1.95-3.37-2.89-4.58-3.75-9.23-7.51-12.92-12.2a26.13,26.13,0,0,1-6.11-16.38,17,17,0,0,1,2.31-8.51,16.43,16.43,0,0,1,6.45-6,24.34,24.34,0,0,1,8.49-2.55,35.19,35.19,0,0,1,8.88.08,54.18,54.18,0,0,1,16.85,5.53A70.19,70.19,0,0,1,180,160.61a87.75,87.75,0,0,1,8.12,15.81,102.33,102.33,0,0,1,4.9,17.09c2.4,11.64,2.86,23.54,3.41,35.38Z"/></svg>