<svg id="Layer_1" data-name="Layer 1" xmlns="http://www.w3.org/2000/svg" viewBox="0 0 600 600"><title>Iran</title><path d="M78.85,97.84a31,31,0,0,0,3.69,5.83,17.22,17.22,0,0,0,5.37,4.23,26.31,26.31,0,0,0,13,2.76,24.13,24.13,0,0,0,12.41-4.09c3.66-2.47,6.68-5.86,9.94-9.19s6.92-6.7,11.71-8.67a18.81,18.81,0,0,1,7.75-1.38,14.55,14.55,0,0,1,7.94,2.56,10.93,10.93,0,0,1,1.73,1.49,13.78,13.78,0,0,1,1.39,1.78,13,13,0,0,1,1.74,4.17,10.78,10.78,0,0,1,0,4.86,8.42,8.42,0,0,1-1.11,2.57,9.17,9.17,0,0,1-1.81,2,20.63,20.63,0,0,1-3.51,2.25,9.24,9.24,0,0,0-2.11,1.43,2.86,2.86,0,0,0-.79,1.3.68.68,0,0,0,.14.62,4.56,4.56,0,0,0,1.07,1.12,17,17,0,0,0,2.26,1.43c1.8,1,3.86,1.91,6.07,3.07a32.81,32.81,0,0,1,3.47,2,24.4,24.4,0,0,1,3.31,2.75,31.64,31.64,0,0,1,5,6.56c.67,1.16,1.28,2.34,1.83,3.52.26.52.57,1.33.85,2.09s.46,1.5.64,2.23a64.34,64.34,0,0,1,1,7.59,19,19,0,0,0,.46,2.7,6.89,6.89,0,0,0,.67,1.7,4,4,0,0,0,.93,1,3.27,3.27,0,0,0,.64.45c.12.06.23.17.33.22a1.32,1.32,0,0,1,.3.1c.1,0,.18.11.28.11l.26,0c.14.08.36,0,.53,0s.45,0,.67,0,.57-.07.94-.16c1.44-.27,3.48-1,6.13-1.64.62-.18,1.42-.32,2.12-.47s1.6-.23,2.42-.32a26.89,26.89,0,0,1,2.7,0,17.7,17.7,0,0,1,2.86.39l1.43.35a5.11,5.11,0,0,1,.82.27c.32.12.64.25.95.39a15.75,15.75,0,0,1,1.68.91,17.06,17.06,0,0,1,1.39,1,23,23,0,0,1,3.72,3.86c.93,1.2,1.68,2.29,2.33,3.23.33.47.62.88.89,1.24.13.15.26.33.36.45l.34.39a17.16,17.16,0,0,0,3.58,3.06,19.09,19.09,0,0,0,4.29,2.05,31.79,31.79,0,0,0,5.15,1.28,52.06,52.06,0,0,0,11.68.42c2.05-.13,4.15-.33,6.28-.57l3.24-.42,3.48-.47c5.11-.63,9.77-.87,14-1.34a45.92,45.92,0,0,0,11-2.25l.58-.21c.16-.07.27-.14.42-.21s.55-.24.8-.39.48-.3.73-.44.44-.35.67-.51a15.87,15.87,0,0,0,2.72-2.87c1.94-2.52,4.17-6.67,7.57-11.29.91-1.17,1.82-2.33,2.89-3.49.5-.58,1.07-1.15,1.66-1.71s1.19-1.17,1.68-1.57a74.74,74.74,0,0,1,6.41-5.08,98.2,98.2,0,0,1,13.57-7.89c4.58-2.2,9.16-4.09,13.66-5.81,2.24-.86,4.48-1.68,6.67-2.48l.87-.31,1.11-.37c.74-.23,1.47-.49,2.24-.67l2.28-.57,2.32-.43a47.68,47.68,0,0,1,9.28-.57,51.86,51.86,0,0,1,8.82,1.11A84.58,84.58,0,0,1,373,121.89c4.89,2.06,8.88,4.08,12.6,5.58a45.34,45.34,0,0,0,5.19,1.82c.82.25,1.53.37,2.26.54a15.49,15.49,0,0,0,1.88.2,6.68,6.68,0,0,0,2.46-.26c.59-.16,1.57-.53,2.59-.91s2.28-.86,3.7-1.33a31.63,31.63,0,0,1,11.07-1.79,26.16,26.16,0,0,1,6.7,1.08,31.84,31.84,0,0,1,3.18,1.18c1,.47,1.94,1,2.85,1.51a38.08,38.08,0,0,1,8,6.66c1.94,2.07,3.43,3.84,4.67,5.14.33.36.58.58.86.88s.49.44.73.67c.6.52,1.28,1.06,1.94,1.56a35.5,35.5,0,0,0,4.38,2.78,63.21,63.21,0,0,0,10.53,4.39l3,.9,1.36.46,1.43.52c1,.43,1.93.84,2.88,1.37a29.19,29.19,0,0,1,9.66,8.53,38.94,38.94,0,0,1,4.89,9.64q.38,1.11.72,2.19c.2.7.42,1.42.6,2.09s.37,1.37.51,2l.44,1.8c1,4.14,2.12,8.51,3.27,13.17a130.94,130.94,0,0,1,2.9,14.84c.18,1.32.31,2.65.41,4s.17,2.74.22,4.13,0,2.84,0,4.25-.15,2.87-.34,4.34l-.26,2.19c-.1.74-.2,1.3-.31,2-.22,1.34-.51,2.85-.92,4.49a34.66,34.66,0,0,1-1.77,5.34,29.57,29.57,0,0,1-3,5.4,31.33,31.33,0,0,1-3.73,4.33c-.64.64-1.27,1.16-1.9,1.72l-1.49,1.23c-1.86,1.54-3.27,2.71-4.05,3.52a4.26,4.26,0,0,0-.73.89,1.09,1.09,0,0,0-.14.32,2.36,2.36,0,0,0-.11.66,8.72,8.72,0,0,0,.13,1.19c0,.23.09.48.15.73l.26.88c.32,1,.62,2.14,1,3.29.71,2.3,1.57,4.93,2.25,8a50.32,50.32,0,0,1,1.18,9.81c0,.84,0,1.62,0,2.44,0,.49.08.79.14,1.2a17.68,17.68,0,0,0,.44,2.26,27.36,27.36,0,0,0,3.56,8,44.15,44.15,0,0,0,5,6.13c.45.46.94.88,1.37,1.35a8.54,8.54,0,0,1,1.15,1.55,20.8,20.8,0,0,1,.94,1.89c.16.31.31.67.48,1a3.94,3.94,0,0,0,.68,1.06,15.8,15.8,0,0,0,2.34,2.4c1,.85,2.29,1.74,3.89,2.95a28.88,28.88,0,0,1,5.26,5.29,26.13,26.13,0,0,1,2.24,3.52,27,27,0,0,1,1.5,3.51,29.93,29.93,0,0,1,1,3.21c.23,1,.4,1.92.56,2.85s.24,1.77.31,2.53.14,1.49.17,2.23a63,63,0,0,1,0,9,51.34,51.34,0,0,1-4.56,18.64,61.7,61.7,0,0,1-4.22,7.53c-1.34,2.07-2.41,3.77-3.27,5.16a21.23,21.23,0,0,0-1.64,3.22c-.11.2-.13.37-.22.55s-.11.42-.17.62-.08.36-.11.52-.08.32-.07.43a3.27,3.27,0,0,0,.07,1.42,6.45,6.45,0,0,0,1.26,2.23,29.78,29.78,0,0,0,7.61,6c3.34,2,7.22,3.88,11.46,5.92,3.78,1.88,8.41,3.74,13.35,6.61a41.53,41.53,0,0,1,7.58,5.56,27.16,27.16,0,0,1,6.41,9c.35.9.67,1.81,1,2.72a27.23,27.23,0,0,1,.65,2.68,42.74,42.74,0,0,1,.55,4.24c.11,1.13.19,2,.28,2.64a6.28,6.28,0,0,0,.3,1.38,12.64,12.64,0,0,0,2.27,3.62c1.18,1.46,2.74,3.13,4.46,5.12a43.23,43.23,0,0,1,2.73,3.51,31.29,31.29,0,0,1,2.47,4.28,27.43,27.43,0,0,1,1.76,4.84,23.27,23.27,0,0,1,.69,5.71,17.61,17.61,0,0,1-1.29,6.59,16.61,16.61,0,0,1-4.09,5.9,20.22,20.22,0,0,1-5.13,3.42,42.47,42.47,0,0,1-4.12,1.64c-.57.19-1.09.39-1.54.56l-1.2.5c-.78.37-1.55.75-2.29,1.18a25.39,25.39,0,0,0-4.12,3,29.24,29.24,0,0,0-6.27,8.13,36.59,36.59,0,0,0-2.09,4.87c-.6,1.75-1.14,3.65-1.69,5.71l-.89,3.18c-.15.56-.57,1.05-.67,1.63s-.11,1.21-.14,1.82-.05,1.26,0,1.91l0,2c0,.68-.09,1.34-.16,2a19.3,19.3,0,0,1-.84,2.93,23,23,0,0,1-3.3,5.76,21.72,21.72,0,0,1-5.73,5.18,22.74,22.74,0,0,1-7.29,2.83c-.56.11-1.17.24-1.69.3l-1.55.17-.78.07-.71,0-1.41,0a54.06,54.06,0,0,1-9.18-.94c-2.6-.45-4.93-.91-6.74-1.15-.5-.08-.81-.08-1.21-.13H482l-.52,0-3.22-.13q-3.22-.09-6.48-.09-6.51,0-13.09.37l-27.48,1.67-13.83.67c-2.31.12-4.62.2-6.92.28l-3.46.13-1.75.06-2,0a48.75,48.75,0,0,1-10.78-1,32.78,32.78,0,0,1-7.16-2.46,30.84,30.84,0,0,1-7.44-5,32.91,32.91,0,0,1-5.29-6.36,44.18,44.18,0,0,1-2.79-5.16l-.87-1.92-.78-1.78-1.45-3.4c-1.8-4.41-3.34-8.26-4.86-11.35a39.86,39.86,0,0,0-2.24-4.1c-.37-.59-.79-1.15-1-1.54a8,8,0,0,1-.74-1.49,22.64,22.64,0,0,1-.93-4,22.46,22.46,0,0,0-.51-2.41,14.6,14.6,0,0,0-.81-2.36,7,7,0,0,0-2.85-3.33,6.05,6.05,0,0,0-4-.4,16.57,16.57,0,0,0-4.9,1.84,50.49,50.49,0,0,0-5.43,3.52c-1.85,1.39-3.84,2.86-6,4.34a61.32,61.32,0,0,1-7,4,53.81,53.81,0,0,1-15.17,4.69,64.84,64.84,0,0,1-7.85.7l-3.93,0c-1.3-.08-2.61-.14-3.92-.19a79.74,79.74,0,0,1-30.28-8.42q-3.51-1.85-6.69-3.85c-2.11-1.35-4.14-2.72-6.09-4.06-3.87-2.7-7.42-5.35-10.77-7.7l-2.5-1.68-.31-.21-.19-.11-.32-.21c-.24-.14-.53-.29-.82-.44-1.26-.63-3-1.42-5.13-2.44a51.62,51.62,0,0,1-7.15-4.16,32.79,32.79,0,0,1-3.87-3.23c-.63-.68-1.25-1.28-1.83-2a21.34,21.34,0,0,1-1.61-2.21,29.31,29.31,0,0,1-3.63-8.68c-.73-2.7-1.17-5.22-1.69-7.58-.24-1.18-.53-2.31-.79-3.43s-.6-2.18-.95-3.2-.7-2-1.08-2.91l-.29-.69-.34-.76-.69-1.52a104.38,104.38,0,0,0-6.17-11.62c-1.15-1.83-2.34-3.62-3.64-5.31a57.8,57.8,0,0,0-4.15-4.78l-1.1-1.11-1.14-1.07a29.29,29.29,0,0,0-2.28-1.89c-1.62-1.22-3.42-2.37-5.34-3.55l-3-1.83-1.54-1-.79-.5-.9-.61a42.61,42.61,0,0,1-5.91-5.32,47.46,47.46,0,0,0-4.47-4.27,14.27,14.27,0,0,0-4.29-2.41,8.58,8.58,0,0,0-2.06-.42l-.48,0c-.09,0-.16,0-.15,0h0s-.07,0-.1,0l-.19.07a15.26,15.26,0,0,0-3.64,2.57c-1.58,1.35-3.26,3-5.68,4.79a18.34,18.34,0,0,1-4.72,2.53,13,13,0,0,1-3.51.68,12.06,12.06,0,0,1-4-.52,12.85,12.85,0,0,1-3.31-1.57c-.49-.31-.86-.63-1.29-1-.23-.18-.35-.3-.49-.41l-.41-.37a35.5,35.5,0,0,1-3-3,45.78,45.78,0,0,1-4.84-6.6,43.13,43.13,0,0,1-3.63-7.51c-.25-.67-.47-1.38-.68-2.1s-.35-1.33-.53-2c-.31-1.32-.59-2.65-.79-4a87.34,87.34,0,0,1-.91-15.14c0-4.79.23-9.3.09-13.5a49.6,49.6,0,0,0-1.66-11.52,21.12,21.12,0,0,0-4.43-8.49,14.55,14.55,0,0,0-3.23-2.54,30.09,30.09,0,0,0-4.3-2.17,47.26,47.26,0,0,0-5.67-1.85l-6.71-1.8a72,72,0,0,1-7.45-2.42c-.64-.22-1.3-.52-2-.81s-1.29-.56-2-.92-1.3-.67-1.95-1l-1.89-1.23a36.48,36.48,0,0,1-11.75-12.94,44.87,44.87,0,0,1-5-15.73A52.7,52.7,0,0,1,61,251.71,54.62,54.62,0,0,1,63,244.05a37.21,37.21,0,0,1,1.42-3.71,33.35,33.35,0,0,1,1.76-3.69A49.7,49.7,0,0,1,76,224.53c1.81-1.69,3.65-3.25,5.46-4.75l2.7-2.21,1.33-1.09c.42-.34,1.06-.87,1.56-1.23,2.14-1.59,4.13-2.77,5.84-4a17.56,17.56,0,0,0,4-3.53,5.8,5.8,0,0,0,1-1.75,4.11,4.11,0,0,0,.23-.8,2.4,2.4,0,0,0,0-.37,1.15,1.15,0,0,0,0-.37,3.86,3.86,0,0,0-.51-1.63A9.33,9.33,0,0,0,96.19,201a23.11,23.11,0,0,0-4.76-3.47c-1.74-1-4-2.09-6.08-3.26s-4.16-2.43-6.15-3.84a48.47,48.47,0,0,1-5.75-4.62,35.67,35.67,0,0,1-8.65-12.15,35,35,0,0,1-1.24-3.52c-.17-.6-.35-1.19-.5-1.79l-.36-1.82a60.91,60.91,0,0,1-.87-7.12c-.34-4.68-.42-9.23-1.24-13.57a31,31,0,0,0-1.85-6.3,32.39,32.39,0,0,0-1.43-3l-1.64-3.07a61.12,61.12,0,0,1-5.39-13,32.71,32.71,0,0,1-1-7,39.94,39.94,0,0,1,.48-7c.62-4.59,1.56-9.13,2.52-13.64a20.93,20.93,0,0,1,2.28-6.58,10.39,10.39,0,0,1,5-4.71,9.08,9.08,0,0,1,6.83.26,12.65,12.65,0,0,1,3,1.78A17.19,17.19,0,0,1,71.8,86c3,3.6,4.83,7.86,7,11.93Zm-.08,0c-2.34-4-4.38-8.18-7.4-11.56A13.41,13.41,0,0,0,66,82.52a8.11,8.11,0,0,0-6.07,0,9.24,9.24,0,0,0-4.23,4.32,16.84,16.84,0,0,0-1.22,3,27.54,27.54,0,0,0-.72,3.24c-.83,4.51-1.68,9-2.18,13.54a37.88,37.88,0,0,0-.31,6.69,30.34,30.34,0,0,0,1.11,6.54,59,59,0,0,0,5.46,12.37l1.69,3a32.69,32.69,0,0,1,1.62,3.18,33.41,33.41,0,0,1,2.19,6.79c1,4.65,1.15,9.32,1.61,13.85a41.49,41.49,0,0,0,3.09,13.08,32,32,0,0,0,8,10.62,44,44,0,0,0,5.4,4.09,67.75,67.75,0,0,0,5.9,3.44c2,1.08,4.08,2,6.19,3.08a28.21,28.21,0,0,1,5.89,4,14.89,14.89,0,0,1,2.37,2.8,9.09,9.09,0,0,1,1.34,3.51,3.78,3.78,0,0,1,.09.95,7.69,7.69,0,0,1,0,1,8.89,8.89,0,0,1-.35,1.85,10.86,10.86,0,0,1-1.58,3.33,22,22,0,0,1-5.1,5c-1.87,1.41-3.81,2.65-5.59,4-3.46,3-7,6-10.26,9.17a43.86,43.86,0,0,0-8.33,10.77,45.38,45.38,0,0,0-4,26.68,37.26,37.26,0,0,0,4.42,12.92,28.39,28.39,0,0,0,9.35,9.89c3.85,2.54,8.35,3.87,12.81,4.95A137.67,137.67,0,0,1,108,297.59a30.7,30.7,0,0,1,6.24,3,23.56,23.56,0,0,1,5.23,4.48,30.36,30.36,0,0,1,6,12.31A56.43,56.43,0,0,1,127.07,331c0,4.61-.34,9.21-.52,13.82a79.63,79.63,0,0,0,.4,13.81,38,38,0,0,0,1.47,6.75,35.22,35.22,0,0,0,2.84,6.29,38.85,38.85,0,0,0,3.92,5.69,26.76,26.76,0,0,0,2.36,2.52,7.28,7.28,0,0,0,2.86,1.88,5.28,5.28,0,0,0,3.4-.06,11.66,11.66,0,0,0,3-1.59c1.9-1.31,3.6-2.88,5.4-4.33a18.24,18.24,0,0,1,5.89-3.53,7.74,7.74,0,0,1,3.42-.2,14.82,14.82,0,0,1,3.35.84,20.74,20.74,0,0,1,5.92,3.51,52.48,52.48,0,0,1,4.91,4.87,37.52,37.52,0,0,0,5,4.72c1.89,1.32,3.87,2.51,5.82,3.74s3.89,2.48,5.72,3.88a45,45,0,0,1,5.1,4.66c6.4,6.68,11.07,14.79,15,23.12a60,60,0,0,1,2.63,6.39c.76,2.18,1.42,4.39,2.14,6.58,1.45,4.34,3.09,8.8,6.2,12.25a18,18,0,0,0,5.56,4.05,56.34,56.34,0,0,0,6.4,2.59,67.15,67.15,0,0,1,6.43,2.55,42,42,0,0,1,5.86,3.67c7.5,5.35,14.31,11.66,22.13,16.57a65.47,65.47,0,0,0,25.82,9.34,50.17,50.17,0,0,0,27.07-3.6l1.57-.74a12.29,12.29,0,0,0,1.52-.81c1-.59,2-1.15,3-1.78,1.91-1.29,3.73-2.71,5.54-4.13,3.62-2.83,7.27-5.77,11.59-7.47a19,19,0,0,1,6.73-1.37,20.7,20.7,0,0,1,6.8,1.1,29.53,29.53,0,0,1,11.49,7.47,45,45,0,0,1,7.77,11.37c2.09,4.12,3.78,8.42,5.53,12.68.87,2.13,1.76,4.26,2.71,6.36a18.1,18.1,0,0,0,3.79,5.74,13.4,13.4,0,0,0,6.1,3.08,33,33,0,0,0,6.87.72l27.67.1,27.66.12c4.61.07,9.22.24,13.82.55q3.45.24,6.9.58a54.38,54.38,0,0,1,6.84,1c4.5,1,8.94,2.39,13.57,2.61a12.58,12.58,0,0,0,6.69-1.34,11.31,11.31,0,0,0,4.4-5.19,28.69,28.69,0,0,0,1.13-3.27c.33-1.1.64-2.21.94-3.33l1.78-6.68a51.79,51.79,0,0,1,5.08-12.82A37.87,37.87,0,0,1,529,475.88a36.2,36.2,0,0,1,12.21-6.33,16.47,16.47,0,0,0,6.13-3.07,8.35,8.35,0,0,0,2.61-6.19,15.42,15.42,0,0,0-1.66-6.65,22.81,22.81,0,0,0-1.77-3c-.68-.93-1.43-1.8-2.2-2.66-3.06-3.41-6.63-6.54-8.61-10.76s-1.27-9.15-3.32-13.36a16.54,16.54,0,0,0-4.2-5.44,29.43,29.43,0,0,0-5.75-3.81c-4.09-2.14-8.45-3.67-12.72-5.42s-8.56-3.45-12.68-5.52a44.08,44.08,0,0,1-11.39-7.76,21.35,21.35,0,0,1-4.08-5.54,17.09,17.09,0,0,1-1.78-6.64,20.28,20.28,0,0,1,.76-6.84,30.14,30.14,0,0,1,2.69-6.36c2.22-4,5-7.75,7-11.93a37,37,0,0,0,3.26-13.36,48.3,48.3,0,0,0-.07-6.91,24.35,24.35,0,0,0-1.28-6.77,11.34,11.34,0,0,0-4.16-5.38c-1.87-1.35-3.9-2.46-5.85-3.69a40.88,40.88,0,0,1-19.4-34.69c0-1.15,0-2.31.12-3.46s.25-2.29.32-3.44a30,30,0,0,0-.3-6.89,62,62,0,0,0-1.52-6.74,48.66,48.66,0,0,1-1.57-6.73,16.91,16.91,0,0,1,.51-6.86,15.27,15.27,0,0,1,3.48-5.92,56.4,56.4,0,0,1,5.05-4.72,25.2,25.2,0,0,0,4.73-5,17.44,17.44,0,0,0,2.61-6.35,50.79,50.79,0,0,0,.92-6.85c.66-9.23-1.24-18.4-3.39-27.33-1.08-4.49-2.25-8.95-3.25-13.45s-2.13-9.06-4.76-12.88a15.44,15.44,0,0,0-5.07-4.61c-2-1.16-4.29-1.64-6.45-2.45a74.57,74.57,0,0,1-12.62-5.62,44.77,44.77,0,0,1-10.89-8.46c-3.12-3.36-5.87-7.2-9.81-9.66a13.06,13.06,0,0,0-6.53-2,19.06,19.06,0,0,0-6.77,1.12c-2.2.7-4.33,1.6-6.54,2.25a19.39,19.39,0,0,1-6.86.69,30.11,30.11,0,0,1-6.79-1.25,59.28,59.28,0,0,1-6.51-2.33c-4.27-1.77-8.38-3.87-12.62-5.68a73,73,0,0,0-13.12-4.3,37.53,37.53,0,0,0-13.73-.53,35.77,35.77,0,0,0-6.67,1.74q-3.27,1.14-6.51,2.34c-4.32,1.6-8.6,3.32-12.78,5.28a87.7,87.7,0,0,0-12,6.81,43.6,43.6,0,0,0-10.22,9.22c-2.81,3.65-5,7.72-7.94,11.32a26,26,0,0,1-5,4.79c-.48.31-.94.67-1.44,1l-1.52.83c-.52.26-1.06.45-1.59.69a13.72,13.72,0,0,1-1.62.6,56.62,56.62,0,0,1-13.6,2.43c-4.6.36-9.21.46-13.8.91-9.13,1-18.47,1.85-27.56,0a32.27,32.27,0,0,1-12.65-5.38,25.45,25.45,0,0,1-4.95-4.83c-1.44-1.81-2.5-3.88-3.86-5.73a14.37,14.37,0,0,0-2.3-2.56,6.8,6.8,0,0,0-1.43-.94,8.39,8.39,0,0,0-1.63-.53,15.11,15.11,0,0,0-6.82.17c-2.26.48-4.47,1.16-6.77,1.45a10.68,10.68,0,0,1-6.73-1.1,11.4,11.4,0,0,1-4.75-4.92,18.22,18.22,0,0,1-1.39-6.75,54.26,54.26,0,0,0-.59-6.88,24.11,24.11,0,0,0-2.47-6.42,25.73,25.73,0,0,0-3.94-5.64,21.4,21.4,0,0,0-5.46-4.17c-2-1.15-4.06-2.19-6-3.4a17.94,17.94,0,0,1-2.8-2,7.46,7.46,0,0,1-2-2.8,4.8,4.8,0,0,1,0-3.42,7.1,7.1,0,0,1,2-2.8c1.78-1.52,4.12-2.12,5.93-3.54a5.19,5.19,0,0,0,1.88-2.78,7.51,7.51,0,0,0,.1-3.4A9.31,9.31,0,0,0,149,92.15a11.93,11.93,0,0,0-6.39-2.28,16.23,16.23,0,0,0-6.76,1c-4.35,1.62-7.93,4.68-11.26,7.84s-6.54,6.54-10.47,9A25.48,25.48,0,0,1,101,111.6a25,25,0,0,1-13.24-3.42,19.74,19.74,0,0,1-5.22-4.5,38.84,38.84,0,0,1-3.83-5.75Z"/></svg>