<svg id="Layer_1" data-name="Layer 1" xmlns="http://www.w3.org/2000/svg" viewBox="0 0 600 600"><title>Jordan</title><path d="M294.58,266.74a7.63,7.63,0,0,1,3.53-4.78,21.22,21.22,0,0,1,5.6-2.34c3.93-1.06,7.84-2,11.78-2.95s7.84-2,11.74-3,7.81-2.06,11.71-3.13l11.65-3.38c3.86-1.19,7.72-2.4,11.57-3.68,7.68-2.55,15.4-5.23,22.9-8.36s15.06-6.32,22.72-8.93c3.83-1.32,7.69-2.53,11.57-3.66L431,219.09c15.52-4.48,31.25-8.36,46.92-12.4l2.94-.76,2.62-.69a44.84,44.84,0,0,0,4.85-1.83,85.79,85.79,0,0,0,10-5.22q2.43-1.45,4.76-3c1.52-1.09,3-2.19,4.44-3.35a43.89,43.89,0,0,0,7.4-7.32,19.85,19.85,0,0,0,2.18-3.62,4.87,4.87,0,0,0,.49-2.41,2.1,2.1,0,0,0-.62-1.17c-.13-.11-.2-.28-.33-.36a1.87,1.87,0,0,1-.33-.28c-.06,0-.09,0-.1,0s.09.11.16.17.23.06.24.14a.11.11,0,0,0,.08,0l-.06.05-.34.09-.13,0-.2.07-.4.12c-1.19.37-3.12,1.19-5.72,1.94a21.9,21.9,0,0,1-10.34.58,19.53,19.53,0,0,1-10.28-6,22.54,22.54,0,0,1-5.2-9.5,22.3,22.3,0,0,1-.55-2.75c-.07-.47-.1-.92-.14-1.38a12.9,12.9,0,0,1-.06-1.43,18.58,18.58,0,0,1,1.13-6.59,20,20,0,0,1,3.31-5.69,33.32,33.32,0,0,1,3.2-3.34l2.25-2.11.43-.43.22-.22c0-.05,0,0,0-.06a.13.13,0,0,0,0-.12s0-.07,0-.07,0-.05,0-.13,0-.28,0-.53a14.51,14.51,0,0,0-.25-2.74,53.11,53.11,0,0,0-2.59-9.11c-1.24-3.5-2.78-7.13-4.19-12.11-1.18-3.76-2.41-7.5-3.53-11.27a104.71,104.71,0,0,1-2.74-11.76c-.76-4-1.44-8.06-2.39-12-.49-2-1-4-1.56-5.91l-1.62-5.8a16.83,16.83,0,0,0-3-6.18c-.52-.55-.88-.73-.81-.63s.06,0,.11.08l.08,0h-.06c-.14,0-.32,0-.56,0a6.63,6.63,0,0,0-2,.55,9.45,9.45,0,0,0-1.27.64,11.72,11.72,0,0,0-1.22.81c-.87.66-2.06,1.73-3.58,3.12a54.13,54.13,0,0,1-6,4.9A62.47,62.47,0,0,1,449.82,76c-1.92,1-3.52,1.79-4.72,2.51l-9.78,6.25-10.24,6.5-20.49,13-10.23,6.53c-3.38,2.23-6.79,4.4-10.14,6.68L344,144.63l-10,6.83-5,3.44-2.5,1.72-1.25.86-1.14.82c-3,2.08-6.07,4.47-9.29,6.82s-6.62,4.89-10.37,7.39c-.9.62-1.86,1.24-2.85,1.84s-1.94,1.22-3,1.81c-2.09,1.18-4.11,2.39-6.4,3.48s-4.61,2.11-7,3.09c-1.21.48-2.51.88-3.77,1.31l-1.9.63c-.66.18-1.34.33-2,.48a33,33,0,0,1-4.09.58c-1.41,0-2.82,0-4.23-.07a37.33,37.33,0,0,1-4.19-.48c-1.38-.19-2.75-.35-4.09-.58-2.69-.52-5.37-.59-7.94-1.09l-2-.33-1.8-.31a15.5,15.5,0,0,0-1.94-.38c-1.57-.21-3.54-.38-5.78-.61a72.67,72.67,0,0,1-7.64-1,36.45,36.45,0,0,1-9.67-3.28l-1.31-.7c-.43-.25-.88-.56-1.31-.84l-1.3-.88-.81-.63c-.56-.42-1.07-.84-1.57-1.26s-1-.83-1.46-1.24c-3.72-3.29-6.51-6.18-8.78-8.22-1.14-1-2.12-1.8-3-2.41-.18-.11-.45-.3-.56-.38a.2.2,0,0,0,.11,0h0a2.66,2.66,0,0,0-.82-.35c-.58-.19-1.47-.41-2.63-.7s-2.62-.67-4.36-1.3a28.15,28.15,0,0,1-5.65-2.77c-.48-.32-1-.66-1.43-1-.27-.19-.4-.31-.56-.44l-.47-.4c-.62-.53-1.27-1.06-1.81-1.61A42.73,42.73,0,0,1,181,146c-1.43-2-2.55-3.84-3.51-5.34s-1.78-2.68-2.46-3.57a13.72,13.72,0,0,0-.94-1.12,5.78,5.78,0,0,0-.42-.43,2.8,2.8,0,0,0-.24-.23L173,135a34.31,34.31,0,0,0-7.85-4.35,21.47,21.47,0,0,0-7.66-1.66,5.42,5.42,0,0,0-.81,0h-.4l-.2,0a4.5,4.5,0,0,0-.68,0,2.75,2.75,0,0,0-1.41.79,9.15,9.15,0,0,0-1.81,2.59,24.38,24.38,0,0,0-1.47,4.1,47.18,47.18,0,0,0-1.41,10.17c-.07,1.8-.07,3.63,0,5.47s.13,3.82.3,5.8c.29,3.95.65,8.07.93,12.39.13,2.14.21,4.36.26,6.61s0,4.56-.22,6.92A57.55,57.55,0,0,1,147.68,198c-1.45,4.37-3.13,8.28-4.52,11.82a48.89,48.89,0,0,0-2.9,9.48c-.18.71-.14,1.32-.25,2s0,1.22-.1,1.83a2.54,2.54,0,0,1-.14.89,1.4,1.4,0,0,0,.28.86,6.81,6.81,0,0,0,1.15,1.5l.67.69a3.63,3.63,0,0,1,.3.35c.14.2.29.39.42.6a22.19,22.19,0,0,1,1.43,2.55c.89,1.8,1.85,3.74,2.79,5.88a51.78,51.78,0,0,1,4.33,15.27l.19,2.15.14,1c.12.72.24,1.47.4,2.31l1.1,5.6a63.48,63.48,0,0,1,1.44,15.29,41.41,41.41,0,0,1-.54,4.87c-.18.86-.35,1.69-.56,2.58-.32,1-.65,2.11-1,3.13a33.72,33.72,0,0,1-6,9.64c-2.07,2.36-3.86,4-5.19,5.39a18.26,18.26,0,0,0-2.53,2.93,1.14,1.14,0,0,0-.22.55c0,.21-.24.66-.26.88a1.68,1.68,0,0,0,0,1l.36,1.68c.22,1,.61,2.48,1.14,4.49s1.15,4.52,1.63,7.34c.22,1.45.43,2.91.53,4.51l.1,1.17c0,.47,0,1.12,0,1.67s0,1.07,0,1.61-.06,1-.11,1.5a43,43,0,0,1-.77,5.16c-.31,1.55-.68,3-1,4.28-.71,2.64-1.49,5-2.17,7-.18.54-.29.92-.52,1.55l-.64,1.74c-.42,1.16-.84,2.35-1.3,3.42s-.9,2.23-1.38,3.3l-1.43,3.14c-.48,1.05-1,2-1.45,3l-.75,1.47-.75,1.41c-1,1.91-2,3.71-3,5.47-2,3.46-3.92,6.66-5.78,9.66l-2.6,4.31-.64,1-.57,1a20.82,20.82,0,0,1-1.29,2,9.14,9.14,0,0,1-.68.93c-.25.31-.47.62-.76.92s-.49.61-.77.91l-.83.9c-.63.6-1.17,1.2-1.79,1.82s-1.25,1.27-1.79,1.93-1.16,1.35-1.7,2.09-1,1.76-1.48,2.67a25.79,25.79,0,0,0-2.14,5.58,38.59,38.59,0,0,0-1.08,5.83,47,47,0,0,0-.15,5.94c.49,8,.79,16.18,1,24.7a93.11,93.11,0,0,1-.7,13.05c-.11,1.11-.17,2.22-.31,3.33l-.53,3.35-.27,1.69-.4,1.67-.79,3.35c-.28,1.12-.68,2.21-1,3.32s-.67,2.24-1.14,3.3l-1.37,3.23-.69,1.61-.69,1.45c-1.83,3.83-3.65,7.41-5.17,10.83a58.46,58.46,0,0,0-3.48,9.6,31.35,31.35,0,0,0-.8,4.43c-.08.72-.18,1.44-.19,2.17,0,.34-.07.77-.05,1s0,.58,0,.86a10.53,10.53,0,0,0,.2,1.63,11,11,0,0,0,.31,1.44,6.46,6.46,0,0,0,.93,2c.17.22.34.37.45.55,0-.07-.12-.08-.15-.07s-.08.06,0,.11a6.21,6.21,0,0,0,2.06,1.72A28.8,28.8,0,0,0,94.27,524c.91.32,1.87.65,2.89,1l3.2.93c1.06.3,2.47.74,3.3,1.07l2.89,1.08c1.92.74,3.85,1.43,5.78,2.1,7.68,2.92,15.83,3.37,23.78,4.82l24,3.81,12,1.9c4,.63,7.93,1.27,11.68,1.68a44.13,44.13,0,0,0,10.43.12c.39-.05.79-.08,1.17-.16l1.11-.24a18.25,18.25,0,0,0,2.14-.62c.71-.21,1.35-.55,2-.8l1.95-1a31.56,31.56,0,0,0,7.28-6.39l4-4.55c1.34-1.54,2.68-3,4.06-4.49,2.77-2.88,5.77-5.48,8.31-8.41a58.51,58.51,0,0,0,6.41-9.26c.94-1.63,1.79-3.34,2.66-5.07s1.68-3.51,2.48-5.33l2.45-5.54,1.26-2.83.42-1.1.45-1.19c.6-1.65,1.23-3.49,1.92-5.46s1.55-4,2.53-6.21a43,43,0,0,1,3.84-6.78,29.34,29.34,0,0,1,6.48-6.72l1-.76,1.13-.69a19.8,19.8,0,0,1,2.28-1.24l1.11-.5,1.07-.41c.72-.29,1.38-.49,2.07-.72a51.66,51.66,0,0,1,7.4-1.59c2.26-.34,4.36-.57,6.28-.81.94-.12,1.86-.23,2.69-.36.42-.06.82-.12,1.18-.19s.93-.17,1.4-.26c7.94-1.52,15.87-3.12,23.84-4.57l3-.55c1.22-.22,2.4-.4,3.54-.55,2.28-.28,4.39-.45,6.36-.63a46.77,46.77,0,0,0,9.84-1.54c.66-.2,1.22-.44,1.81-.67.24-.12.46-.24.7-.34s.36-.23.57-.32A3.76,3.76,0,0,0,336,442a45.85,45.85,0,0,0,2.22-4.81,42,42,0,0,1,3.61-6.65l-.75,1.54c.71-1.67,1.38-3.71,2.06-5.85s1.37-4.45,2.21-6.82a54.7,54.7,0,0,1,3.16-7.36c.35-.63.73-1.27,1.1-1.9s.82-1.27,1.3-1.9a23.69,23.69,0,0,1,3.26-3.54,27.93,27.93,0,0,1,7.52-4.67,62.78,62.78,0,0,1,7.15-2.5c2.25-.68,4.36-1.28,6.27-2l1.38-.53,1.3-.56c.42-.2.79-.41,1.19-.61s.67-.44,1-.65a6.88,6.88,0,0,0,2.58-2.91,7.63,7.63,0,0,0,.28-4.32,19.63,19.63,0,0,0-1.89-5.44,45.62,45.62,0,0,0-3.22-5.49,105.91,105.91,0,0,0-8.25-10.48c-3-3.4-6.14-6.7-9.36-10-1.61-1.64-3.23-3.28-4.84-5-.8-.85-1.6-1.74-2.39-2.69l-2.17-2.7-8.63-10.76c-5.82-7.12-11.62-14.27-17.27-21.53q-4.25-5.45-8.36-11l-8.09-11.16c-2.72-3.71-5.53-7.35-8.53-10.82-.75-.87-1.54-1.71-2.23-2.64a18.75,18.75,0,0,1-1.82-2.92,10.45,10.45,0,0,1-1.17-6.68Zm.09,0a7.66,7.66,0,0,0,.18,3.4,12.71,12.71,0,0,0,1.25,3.14,18,18,0,0,0,1.91,2.8c.7.88,1.51,1.68,2.31,2.53,3.15,3.37,6.17,6.88,9,10.5,1.43,1.81,2.86,3.61,4.26,5.43s2.76,3.66,4.17,5.46c2.82,3.59,5.67,7.18,8.58,10.72,5.81,7.1,11.77,14.09,17.76,21.06l9,10.43,2.25,2.6c.74.83,1.51,1.64,2.33,2.44,1.61,1.6,3.28,3.18,4.94,4.76,6.67,6.33,13.33,12.79,18.9,20.26a53.24,53.24,0,0,1,3.81,5.88,27,27,0,0,1,2.66,6.58,13.45,13.45,0,0,1-.07,7.23,12.19,12.19,0,0,1-4.21,5.85,24.83,24.83,0,0,1-6.15,3.47c-2.15.9-4.35,1.63-6.51,2.39-4.3,1.5-8.66,3.12-11.93,6.19a18.32,18.32,0,0,0-3.88,5.43,45.14,45.14,0,0,0-2.44,6.36c-1.36,4.37-2.3,8.88-3.87,13.25v0l0,0a32,32,0,0,0-2.68,5.37c-.76,1.86-1.39,3.8-2.32,5.63a13.22,13.22,0,0,1-3.86,4.73,20.71,20.71,0,0,1-5.39,2.87,52,52,0,0,1-11.88,2.5c-2,.25-4,.48-6,.8s-4,.76-5.94,1.19l-23.71,5.2c-3.94.92-8,1.31-12,2a44.41,44.41,0,0,0-5.91,1.37,22,22,0,0,0-2.82,1.1c-.47.2-.89.49-1.33.73l-.65.39-.61.45c-3.29,2.41-5.51,5.94-7.39,9.49s-3.38,7.35-5.14,11c-.87,1.83-1.9,3.57-2.88,5.34l-3,5.29c-2,3.52-4,7-6.26,10.4a98,98,0,0,1-7.28,9.69c-2.6,3.1-5.3,6.11-8,9.1l-8.19,8.95a39,39,0,0,1-9.32,7.7,28.08,28.08,0,0,1-11.5,3.55,52.07,52.07,0,0,1-12.09-.49c-4-.55-8-1.32-12-2.06L158.92,545l-47.7-9-6-1.12c-2-.36-4-.78-6-1-4-.53-8.07-.71-12-1.61a19.72,19.72,0,0,1-5.66-2.11c-.45-.24-.83-.57-1.25-.85s-.76-.67-1.14-1a15.93,15.93,0,0,1-1.87-2.38,21.15,21.15,0,0,1-3-11.57,40.2,40.2,0,0,1,2.17-11.89,66.82,66.82,0,0,1,5-11c3.9-7.06,8.7-13.72,11.23-21.46a77.57,77.57,0,0,0,3.66-23.88c.06-8.09-.58-16.17-1-24.24a148.62,148.62,0,0,1,.2-24.24,58.07,58.07,0,0,1,2.89-11.76,102.28,102.28,0,0,1,4.87-11.1c3.7-7.2,8-14.1,11.71-21.26a111.82,111.82,0,0,0,5.08-11,49.74,49.74,0,0,0,3.44-11.6c.37-4.05-.46-8.07-1.3-12s-1.75-8-1.21-12a20,20,0,0,1,1.67-5.81,12.27,12.27,0,0,1,.69-1.35c.24-.44.46-.9.74-1.32a20.46,20.46,0,0,1,1.8-2.44c2.62-3.09,5.95-5.47,8.72-8.43a17.87,17.87,0,0,0,3.41-5,19.94,19.94,0,0,0,1.35-5.89,55.73,55.73,0,0,0-.59-12.1,95.75,95.75,0,0,1-1.06-12.08,41,41,0,0,0-2.72-11.78c-.69-1.89-1.46-3.77-2.22-5.64a59.64,59.64,0,0,1-2.11-5.69c-.07-.24-.16-.47-.23-.72l-.15-.74-.29-1.49c-.18-1-.2-2-.31-3s0-2,.1-3,.19-2,.44-3c1.58-8,5.82-15.06,8.61-22.64a45.33,45.33,0,0,0,2.8-11.76,74.33,74.33,0,0,0,.15-12.12c-.44-8.08-1.72-16.1-1.67-24.2a62.54,62.54,0,0,1,1.15-12.06A26.64,26.64,0,0,1,146,123.49a14.07,14.07,0,0,1,4.62-3.85,16.21,16.21,0,0,1,5.84-1.54,31.8,31.8,0,0,1,12,1.37,46.19,46.19,0,0,1,11,5c3.51,2.06,6.21,5.21,8.57,8.47s4.63,6.67,7.64,9.39c.36.36.77.66,1.16,1a11.9,11.9,0,0,0,1.22.89,13.4,13.4,0,0,0,2.75,1.26c1.92.64,3.93.94,5.9,1.41a17,17,0,0,1,5.58,2.31,40.89,40.89,0,0,1,4.84,3.65c3.05,2.66,5.83,5.61,8.87,8.28a25.76,25.76,0,0,0,4.86,3.59,21.19,21.19,0,0,0,5.74,1.91c4,.77,8,.84,12.06,1.23A92.18,92.18,0,0,0,260.75,169a48,48,0,0,0,12-1.66c.49-.12,1-.23,1.47-.37l1.44-.49c.95-.33,1.93-.62,2.87-1,1.86-.78,3.75-1.52,5.54-2.45a107.54,107.54,0,0,0,10.56-6c6.84-4.32,13.39-9.07,20.25-13.37l20.65-12.75L418.13,80c6.9-4.23,13.76-8.52,20.68-12.71,3.53-2,7.33-3.44,10.73-5.65s6.12-5.27,9.44-7.6a21.19,21.19,0,0,1,11.29-4,13.07,13.07,0,0,1,5.92,1.14,14.63,14.63,0,0,1,4.72,3.77,28.45,28.45,0,0,1,5.39,10.78l3.23,11.7L496,100.76l3.26,11.69c1,3.92,2.4,7.72,3.57,11.59a56.6,56.6,0,0,1,2.54,11.86,21.56,21.56,0,0,1-.32,6,12.5,12.5,0,0,1-2.56,5.46,39.37,39.37,0,0,1-4.5,4.06,12.28,12.28,0,0,0-3.77,4.64,8.22,8.22,0,0,0-.56,2.95,11.61,11.61,0,0,0,.32,3,12.44,12.44,0,0,0,2.7,5.33,9.76,9.76,0,0,0,5,3.16,13.29,13.29,0,0,0,6-.26c2-.46,3.87-1.17,5.84-1.63a10.14,10.14,0,0,1,6,.1,9.65,9.65,0,0,1,4.49,4,10.4,10.4,0,0,1,1.73,5.74,13.73,13.73,0,0,1-1.47,5.86,28.46,28.46,0,0,1-3.32,5.08,55.52,55.52,0,0,1-8.79,8.34,94.73,94.73,0,0,1-10,6.83c-6.94,4.11-14.27,7.83-22.22,9.53l-93.65,25.54-47,12.25c-7.84,2-15.71,3.87-23.62,5.56-4,.86-7.94,1.58-11.9,2.38a17.91,17.91,0,0,0-5.65,2.13,7.4,7.4,0,0,0-3.35,4.81Z"/></svg>