<svg id="Layer_1" data-name="Layer 1" xmlns="http://www.w3.org/2000/svg" viewBox="0 0 600 600"><title>kiribati</title><path d="M460.55,467.16c-3.63-2.08-6.36-5.32-9.16-8.34a42.46,42.46,0,0,0-9.44-7.95,40,40,0,0,0-11.3-4.68c-3.94-1-8.11-1.11-12.31-2.37s-7.72-4.29-11.14-5.09a4.93,4.93,0,0,0-4.34.73,6.65,6.65,0,0,0-2.19,4,7.7,7.7,0,0,0-.08,2.44,8,8,0,0,0,.67,2.34,15.34,15.34,0,0,0,3.08,4.37,41.72,41.72,0,0,0,4.4,3.86c1.6,1.26,3.22,2.5,4.87,3.68a120.92,120.92,0,0,0,10.16,6.68,90.54,90.54,0,0,0,10.79,5.51,87.28,87.28,0,0,0,23.49,6.28c2.05.31,4.05.49,6.19.83s4.08.74,6.11,1a23,23,0,0,0,6,.05,6.67,6.67,0,0,0,2.72-1,5.22,5.22,0,0,0,2-2.08,2.3,2.3,0,0,0-.5-2.54,9,9,0,0,0-2.4-1.81,34,34,0,0,0-5.71-2.36c-2-.63-4-1.19-6-1.72l-3-.82A16.66,16.66,0,0,1,460.55,467.16Zm0,0a17,17,0,0,0,2.93,1l3,.79c2,.52,4,1,6,1.6a37.84,37.84,0,0,1,5.86,2.16,9.2,9.2,0,0,1,2.61,1.81,4.63,4.63,0,0,1,.52.65,3.29,3.29,0,0,1,.33.8,2.77,2.77,0,0,1-.12,1.73,7.63,7.63,0,0,1-.39.75l-.5.66a8,8,0,0,1-1.2,1.12,7.84,7.84,0,0,1-3,1.31,24,24,0,0,1-6.37.4c-2.1-.1-4.19-.32-6.23-.49s-4.13-.17-6.2-.32a106.89,106.89,0,0,1-12.54-1.4A72.84,72.84,0,0,1,433,476.39a92.65,92.65,0,0,1-22.29-12.15c-1.72-1.25-3.38-2.54-5-3.86a43.52,43.52,0,0,1-4.84-4.45A19.11,19.11,0,0,1,397,450a12.8,12.8,0,0,1-.86-3.66,12.33,12.33,0,0,1,.3-3.74,10.4,10.4,0,0,1,4.13-6.34,7.93,7.93,0,0,1,3.78-1.33,9.65,9.65,0,0,1,3.78.43,23.83,23.83,0,0,1,5.84,3.18,26.42,26.42,0,0,0,5.16,2.92c3.67,1.45,7.86,2,11.9,3.28a43.61,43.61,0,0,1,11.27,5.54,44.56,44.56,0,0,1,9.19,8.41C454.24,461.81,456.94,465.06,460.55,467.16Z"/><path d="M370.18,415.1a11.24,11.24,0,0,0-3.3-.55l-3.36-.12q-3.36-.1-6.72-.11c-1.11,0-2.26,0-3.35,0-.54,0-.86.16-.95.39a6.41,6.41,0,0,0-.27,1.39,10.46,10.46,0,0,0,0,3.11,5.27,5.27,0,0,0,1.15,2.51,10.65,10.65,0,0,0,5.05,2.85c1,.32,2,.57,3.11.81s2.19.48,3.27.75c4.38,1.05,8.66,2.16,13,3.47a18.7,18.7,0,0,1,6.8,3.44,11.36,11.36,0,0,1,1.45,1.5c.4.51.75,1,1.07,1.45a12,12,0,0,0,1.69,2.06,2,2,0,0,0,.59.36,1,1,0,0,0,.55,0,2.18,2.18,0,0,0,1.24-1.25,2.89,2.89,0,0,0,.25-1,4.25,4.25,0,0,0-.11-1.26,9.42,9.42,0,0,0-1.18-2.67A21.63,21.63,0,0,0,386,427.4a51.83,51.83,0,0,0-5.41-3.87,23.54,23.54,0,0,1-2.79-1.93,33.72,33.72,0,0,1-2.41-2.37A15.23,15.23,0,0,0,370.18,415.1Zm0,0c2.11.81,3.73,2.47,5.34,4a23.67,23.67,0,0,0,2.52,2.19,19,19,0,0,0,2.89,1.65,62.08,62.08,0,0,1,6,3.25,23.53,23.53,0,0,1,5.31,4.58,12,12,0,0,1,2,3.2,7.46,7.46,0,0,1,.53,2,6.09,6.09,0,0,1-.19,2.28,6,6,0,0,1-3,3.75,5,5,0,0,1-2.73.49,5.51,5.51,0,0,1-2.48-.91,12.73,12.73,0,0,1-2.89-2.81c-.36-.43-.7-.84-1-1.18a9.33,9.33,0,0,0-.93-.87,16.26,16.26,0,0,0-5.2-2.38c-4.21-1.26-8.54-2.64-12.75-4.11-1.07-.36-2.12-.76-3.17-1.13s-2.19-.81-3.28-1.32a13.18,13.18,0,0,1-5.83-4.68,7.56,7.56,0,0,1-1.08-3.75,13.53,13.53,0,0,1,.53-3.56L351,415a3,3,0,0,1,.43-1,1.8,1.8,0,0,1,1-.7,3.3,3.3,0,0,1,1-.06l3.36.38q3.35.35,6.69.61l3.35.25A10.93,10.93,0,0,1,370.18,415.1Z"/><path d="M338.05,402.37c-1.18.25-2.36.46-3.54.65s-2.35.36-3.53.53l1-.78a16.32,16.32,0,0,0,.42,6.66,14.33,14.33,0,0,0,1.2,3,11.44,11.44,0,0,0,1.72,2.5,2.23,2.23,0,0,0,1.6.88,2.78,2.78,0,0,0,1.71-.75,7.09,7.09,0,0,0,1-.93,12.9,12.9,0,0,0,.91-1.22c.64-.94,1.32-2,2.24-3.18a11.22,11.22,0,0,1,1.66-1.64,8,8,0,0,1,1-.7c.34-.21.64-.36.91-.5a8.08,8.08,0,0,0,1-.61c.12-.1,0,0,.06.16s.06-.07-.07-.23a1,1,0,0,0-.2-.22,2.65,2.65,0,0,0-.39-.21,12.06,12.06,0,0,0-3.1-.47,136.83,136.83,0,0,1-14.7-2.09,136.93,136.93,0,0,1,14.76-1.59c.62,0,1.2-.08,1.9-.09a9,9,0,0,1,2.32.23,5.8,5.8,0,0,1,1.3.49,5.1,5.1,0,0,1,1.25.9,4.8,4.8,0,0,1,1.48,3,4.49,4.49,0,0,1-1.33,3.45,9.15,9.15,0,0,1-2,1.45,6.31,6.31,0,0,0-1.16.79,7.33,7.33,0,0,0-.92,1c-.62.78-1.22,1.78-2,2.87a15.21,15.21,0,0,1-1.32,1.71,11.78,11.78,0,0,1-1.71,1.58,8.75,8.75,0,0,1-2.25,1.2,6.67,6.67,0,0,1-2.85.37,6.19,6.19,0,0,1-2.74-1,7.8,7.8,0,0,1-1.87-1.72,14.68,14.68,0,0,1-2.08-3.77,16.55,16.55,0,0,1-1-4,15.79,15.79,0,0,1,1.08-7.93l.36-.85.66.08c1.18.13,2.36.24,3.55.42S336.86,402.15,338.05,402.37Z"/><path d="M294.08,372.24a1.8,1.8,0,0,0,.61,1.55,4,4,0,0,0,1.5.81,8,8,0,0,0,3.4.13,17.81,17.81,0,0,0,6.28-2.44,11.5,11.5,0,0,0,2.46-2,8.35,8.35,0,0,0,.83-1.18,8.17,8.17,0,0,0,.61-1.27,7.16,7.16,0,0,0-.33-5.26,9,9,0,0,0-1.33-2.43,3,3,0,0,0-1.71-1.15,4.39,4.39,0,0,0-2.51.33,12,12,0,0,0-2.76,1.56,20.34,20.34,0,0,0-4.67,4.89,16.49,16.49,0,0,0-1.62,3.05A9.45,9.45,0,0,0,294.08,372.24Zm0,0a11.72,11.72,0,0,1,.62-3.41,28.38,28.38,0,0,1,1.28-3.27,27.35,27.35,0,0,1,3.77-6.09,13.1,13.1,0,0,1,2.81-2.57,7.23,7.23,0,0,1,4.14-1.31,6.17,6.17,0,0,1,4.28,2,10.93,10.93,0,0,1,2.18,3.54,11.35,11.35,0,0,1,.81,4.07,8.73,8.73,0,0,1-1.1,4.16,8.6,8.6,0,0,1-1.21,1.67,10.72,10.72,0,0,1-1.5,1.4,12.56,12.56,0,0,1-3.46,1.65,23,23,0,0,1-7.07,1.17,9.75,9.75,0,0,1-3.48-.54,4.31,4.31,0,0,1-1.49-.91A1.86,1.86,0,0,1,294.08,372.24Z"/><path d="M291.51,344.88a5.78,5.78,0,0,1-2.68,1.1,28.35,28.35,0,0,1-2.91.27,13.06,13.06,0,0,0-2.87.4,4.54,4.54,0,0,0-2.34,1.45,6.43,6.43,0,0,0-.9,5.25c0,.19.11.3.16.32a1.29,1.29,0,0,0,.36.12c.42.06.91.14,1.37.17a15.08,15.08,0,0,0,2.77,0,15.93,15.93,0,0,0,5.25-1.39,14.65,14.65,0,0,0,2.32-1.3,13.09,13.09,0,0,1,2.81-1.66,11.1,11.1,0,0,1,3.39-.66l2.91-.1a7.25,7.25,0,0,0,2.23-.42,9.71,9.71,0,0,0,1-.54,13.07,13.07,0,0,0,1.12-.7,24.67,24.67,0,0,0,4.13-3.43,13.53,13.53,0,0,0,2.85-4.15,4.08,4.08,0,0,0-.32-4.1,8.62,8.62,0,0,0-4.07-2.91,9.9,9.9,0,0,0-5.35-.09,10,10,0,0,0-4.84,2.72C295.29,338,294.63,342.36,291.51,344.88Zm0,0a12.25,12.25,0,0,0,3.26-4.79,25,25,0,0,1,2.74-5.22,11.14,11.14,0,0,1,2.19-2.09,13.36,13.36,0,0,1,2.7-1.42,11.65,11.65,0,0,1,6.19-.71,10.63,10.63,0,0,1,3.08,1.07,9.45,9.45,0,0,1,2.69,2A6.78,6.78,0,0,1,316,337a7.78,7.78,0,0,1-.21,3.64,15.41,15.41,0,0,1-3.3,5.7,25.07,25.07,0,0,1-4.76,4.15c-.44.29-.9.57-1.37.83a13.71,13.71,0,0,1-1.58.78,10.89,10.89,0,0,1-3.51.57c-2.14,0-4-.24-5.31.16a11.16,11.16,0,0,0-2.34,1.1,18.9,18.9,0,0,1-2.95,1.22,17.89,17.89,0,0,1-6.19.77,17.47,17.47,0,0,1-3.06-.42,15.44,15.44,0,0,1-1.5-.42,2.17,2.17,0,0,1-.91-.56,1.81,1.81,0,0,1-.4-1,9.4,9.4,0,0,1,.22-3.09,6,6,0,0,1,1.45-2.71,5.27,5.27,0,0,1,2.67-1.39,16.29,16.29,0,0,1,2.94-.25,21.89,21.89,0,0,0,2.92-.16A5.8,5.8,0,0,0,291.51,344.88Z"/><path d="M283.7,332.79c-.51.57-1.16,1-1.72,1.51a1.89,1.89,0,0,0-.69,2,2,2,0,0,0,1.69,1.15,2.85,2.85,0,0,0,2-.65,11,11,0,0,0,1.61-1.53,6.71,6.71,0,0,0,1.24-1.69,9.75,9.75,0,0,0,.48-2.08,5.34,5.34,0,0,1,1.4-2.49,11.13,11.13,0,0,1,4.63-2.54c1.52-.45,3-.85,4.34-1.3a16,16,0,0,0,3.62-1.56,4.42,4.42,0,0,0,1.94-2.12,4.69,4.69,0,0,0,.25-2.67,1.45,1.45,0,0,0-.42-.71,2.37,2.37,0,0,0-1.07-.49c-2-.48-4.91.63-7.51,2-.66.35-1.32.72-2,1.1a17.73,17.73,0,0,0-1.88,1.16,12.64,12.64,0,0,0-3,3.21C286.93,327.58,285.79,330.53,283.7,332.79Zm0,0a15.66,15.66,0,0,0,2.45-3.84c.65-1.39,1.17-2.82,1.83-4.23a15.43,15.43,0,0,1,2.59-4c1.16-1.21,2.26-2.16,3.47-3.22a24.76,24.76,0,0,1,4-2.83,13,13,0,0,1,2.47-1,8.82,8.82,0,0,1,2.89-.37,6.65,6.65,0,0,1,3.22,1,5.81,5.81,0,0,1,2.36,2.83,7.82,7.82,0,0,1,.51,3.25,10.06,10.06,0,0,1-.66,3,11.53,11.53,0,0,1-.76,1.43,9.52,9.52,0,0,1-1,1.23,8.26,8.26,0,0,1-1.18,1,8.7,8.7,0,0,1-1.25.76,16.17,16.17,0,0,1-5,1.55c-1.6.26-3.16.36-4.63.52a8.74,8.74,0,0,0-3.72,1,3,3,0,0,0-1.14,1.24,12.29,12.29,0,0,1-1.08,2.22,8,8,0,0,1-1.8,1.7,16.1,16.1,0,0,1-2,1.32,3.59,3.59,0,0,1-2.38.45,2.33,2.33,0,0,1-1.79-1.48,1.69,1.69,0,0,1,.1-1.17,3.32,3.32,0,0,1,.72-.9C282.52,333.75,283.18,333.35,283.7,332.79Z"/><path d="M260.35,253.81c2.1-1.87,4.4-3.47,6.46-5.37a17.68,17.68,0,0,0,4.81-6.72,21.21,21.21,0,0,0,1.45-8,32.79,32.79,0,0,0-1.1-8.1,73.14,73.14,0,0,0-6.25-15.29c-1.28-2.45-2.65-4.87-4.05-7.29s-2.82-4.88-4.12-7.41c-2.59-5.07-4.8-10.27-7-15.43l-3.29-7.7-1.74-3.77-1.8-3.71a74.2,74.2,0,0,0-8.56-13.65c-.88-1-1.7-2-2.6-2.92s-1.82-1.84-2.8-2.65l-1.49-1.2c-.5-.4-1-.79-1.55-1.2l-3.38-2.44A187.84,187.84,0,0,0,195.45,124c-2.39-1.12-4.81-2.12-7.21-3a44.74,44.74,0,0,0-7.08-2,20.64,20.64,0,0,0-6.31-.31,7.88,7.88,0,0,0-4.19,1.61c-.29.14-.47.48-.74.69a2.51,2.51,0,0,0-.38.44l-.4.49a12.65,12.65,0,0,0-1.26,2.26,16.33,16.33,0,0,0-1.33,5.53A22.14,22.14,0,0,0,167,136c.11.52.23,1,.39,1.54.05.2.18.66.12.44,0,0,.05.14.15.34l1.5,3.13c1.15,2.38,2.29,5,3.29,7.75s2,5.57,2.93,8.58a43.79,43.79,0,0,1,1.27,4.95,12.58,12.58,0,0,1,.22,3.42,7.88,7.88,0,0,1-.66,2.55,6.32,6.32,0,0,1-2.22,2.58,7.1,7.1,0,0,1-1.4.71,7.67,7.67,0,0,1-1.25.32,7.45,7.45,0,0,1-1.07.12,7.06,7.06,0,0,1-.93,0,14.49,14.49,0,0,1-3-.49c-.84-.23-1.65-.49-2.39-.77a23.11,23.11,0,0,1-2.29-1,18,18,0,0,1-8-7.3,30.42,30.42,0,0,1-2.16-4.47c-.57-1.47-1-2.91-1.47-4.3-1.65-5.36-3.44-10.66-5.36-15.71A93.77,93.77,0,0,0,138,124.06c-.67-1.11-1.35-2.21-2.07-3.28l-.58-.89-.63-1c-.42-.66-.84-1.32-1.21-2a54.47,54.47,0,0,1-4.1-8.75A38.44,38.44,0,0,1,127.09,98a28.36,28.36,0,0,1,1.45-11.61A27.14,27.14,0,0,1,135.29,76a35.17,35.17,0,0,1,4.78-3.75,31,31,0,0,1,5.36-2.7,51,51,0,0,1,10.23-2.66c1.58-.25,3.1-.44,4.55-.61l4.28-.5c1.42-.18,2.85-.28,4.3-.4s2.87-.25,4.34-.34,2.91-.2,4.37-.27l4.43-.13a167.94,167.94,0,0,1,18.12.57,101.25,101.25,0,0,1,18.75,3.57c1.58.52,3.16.93,4.73,1.56s3.13,1.25,4.69,1.9l4.58,2.37A24.42,24.42,0,0,1,235,75.9l2.2,1.42a41.06,41.06,0,0,1,4.24,3.14l2.06,1.66c.65.6,1.28,1.23,1.92,1.84,1.24,1.26,2.57,2.46,3.69,3.82s2.23,2.68,3.23,4c3.95,5.35,6.88,10.41,9.61,14.6a57.89,57.89,0,0,0,4,5.54l1,1.14,1.06,1.06c.66.74,1.49,1.35,2.23,2a42.94,42.94,0,0,0,11.1,6.46,75.78,75.78,0,0,0,13.69,4.15,151.1,151.1,0,0,0,15.27,2.34c5.37.6,11,1,16.72,1.74a148,148,0,0,1,17.75,3.1c1.5.36,3,.82,4.53,1.23s3,.94,4.54,1.47,3,1.08,4.52,1.74l2.24,1,2.23,1.06c1.48.68,2.93,1.5,4.38,2.29.71.37,1.46.85,2.2,1.32l2.21,1.41c1.4,1,2.82,2,4.15,3.1s2.65,2.18,3.83,3.41A62.76,62.76,0,0,1,392,168.28l1.13,2.38a21.29,21.29,0,0,1,1,2.44c.62,1.68,1.25,3.33,2,5.05,1.53,3.32,3.62,7,4.23,11.14a20.3,20.3,0,0,1,.08,3.12,19.42,19.42,0,0,1-.32,3.12,35.13,35.13,0,0,1-1.45,6.16,37.21,37.21,0,0,1-5.57,10.91,46.8,46.8,0,0,1-7.69,8.17,78.21,78.21,0,0,1-8.06,5.89c-5.29,3.4-10.24,6.21-14.69,8.94a59.21,59.21,0,0,0-11.17,8.34,22.12,22.12,0,0,0-3.5,4.49,17.48,17.48,0,0,0-2,5c-.93,3.65-.71,8.44-.21,13.89.24,2.74.58,5.68.75,8.79a54.21,54.21,0,0,1-.2,9.89l-.15,1.28-.16,1.06-.33,2.1-.65,4.12c-.42,2.71-.82,5.36-1.06,7.91a51.2,51.2,0,0,0-.3,7.46c0,.61.08,1.19.12,1.79a14.87,14.87,0,0,0,.23,1.76c.1.57.17,1.16.3,1.73l.42,1.69a25.31,25.31,0,0,0,1.14,3.27,29.39,29.39,0,0,0,1.5,3.16c.25.52.6,1,.89,1.52s.58,1,.95,1.48c.73.93,1.36,1.91,2.12,2.77l1.16,1.25a9.64,9.64,0,0,0,1.19,1.2,28.62,28.62,0,0,0,2.57,2.12l1.35,1c.47.3,1,.58,1.44.86a33.56,33.56,0,0,0,3,1.6,123.59,123.59,0,0,0,14,5.17,105.62,105.62,0,0,1,16.58,6.87l2.14,1.17,1.06.6,1.29.83a46.59,46.59,0,0,1,4.58,3.4c2.72,2.29,4.88,4.44,6.75,6.18.93.88,1.77,1.67,2.55,2.35a27.62,27.62,0,0,0,2.17,1.73l.51.36.64.42c.42.3.89.56,1.33.84.91.55,1.87,1.09,2.87,1.6a134,134,0,0,0,13.77,5.92l7.88,3,7.9,3.17c10.53,4.26,20.95,8.81,31.32,13.44,5.18,2.35,10.38,4.61,15.53,7,2.57,1.2,5.21,2.42,7.56,3.46l3.74,1.61,3.87,1.58a151,151,0,0,1,16.34,7.41,58.16,58.16,0,0,1,15.61,12.06c1.17,1.23,2.16,2.59,3.24,3.89s1.93,2.75,2.8,4.16,1.71,2.81,2.42,4.28c.36.72.76,1.44,1.1,2.18l1,2.22c.67,1.49,1.19,3,1.76,4.5s1,3,1.42,4.54c.9,3,1.52,6.07,2.11,9.1s1,6,1.3,9,.55,5.9.91,8.81.8,5.77,1.16,8.58a58.38,58.38,0,0,1,.64,8.94c-.2,6.38-.91,13.89-4.95,21.58a31.88,31.88,0,0,1-3.8,5.61,29.45,29.45,0,0,1-5.23,4.8,33.09,33.09,0,0,1-12,5.26c-1,.24-1.9.4-2.85.57s-1.85.28-2.73.36-1.79.19-2.64.23l-1.28.07-1.14,0-4.47.12h-4.48c-6-.08-11.93-.39-17.85-1.05a196,196,0,0,1-35-6.92c-5.71-1.73-11.35-3.66-16.88-5.89s-10.93-4.66-16.31-7.44a249.11,249.11,0,0,1-29.73-18.69l-27.08-19.55c-4.37-3.22-8.53-6.6-13-10-1.1-.83-2.2-1.68-3.32-2.48l-3.4-2.37c-1.12-.81-2.38-1.38-3.55-2.1l-3.56-2.07c-9.5-5.53-19.18-10.71-29.07-15.42-2.49-1.15-5-2.33-7.46-3.45l-7.54-3.27A153.76,153.76,0,0,0,287,430.69a273.78,273.78,0,0,0-31.9-6.32l-4-.55-4-.41c-2.67-.3-5.33-.61-8-.76s-5.31-.42-8.05-.54-5.57-.24-8.47-.45a57.89,57.89,0,0,1-17.92-4.19,59.63,59.63,0,0,1-8.87-4.35c-.72-.4-1.43-.88-2.13-1.33l-1.05-.69-1-.77c-.7-.52-1.39-1-2.07-1.56l-2-1.73a40.7,40.7,0,0,1-6.86-8.05,48,48,0,0,1-4.45-8.85c-2.24-5.81-3.94-11.07-6-15.92A161,161,0,0,0,163,359.63a104,104,0,0,0-8.87-13.28,55.37,55.37,0,0,0-11-10.65,33.47,33.47,0,0,0-13.23-5.8,49.34,49.34,0,0,0-14.94-.58,96.87,96.87,0,0,0-15.44,3.25c-5.37,1.42-11.08,3.08-17.6,3.66a38.57,38.57,0,0,1-10.23-.39,33.2,33.2,0,0,1-10.12-3.57,39.85,39.85,0,0,1-8.35-6.16c-.61-.55-1.23-1.2-1.85-1.87s-1.18-1.35-1.74-2.05a34.32,34.32,0,0,1-3-4.43A36.73,36.73,0,0,1,41.81,297a33.73,33.73,0,0,1,2.64-10.88A38,38,0,0,1,47,281.28a36.39,36.39,0,0,1,3.14-4.22c4.59-5.14,9.77-8.59,14.59-11.66l14.24-9c4.72-3,9.32-6.23,14-9.37l13.89-9.47c4.63-3.16,9.18-6.36,14-9.51,2.38-1.58,4.84-3.13,7.38-4.57a78.84,78.84,0,0,1,7.88-4,60.9,60.9,0,0,1,8.51-3.06,26.19,26.19,0,0,1,9.84-.87,16,16,0,0,1,5.3,1.62,15,15,0,0,1,4.48,3.6,16.17,16.17,0,0,1,1.69,2.43,14.77,14.77,0,0,1,1.18,2.91,12.11,12.11,0,0,1,.41,3.33,12.81,12.81,0,0,1-.57,3.41,19.08,19.08,0,0,1-2.8,5.22c-.5.71-1,1.33-1.46,1.92s-1,1.22-1.46,1.8l-1.51,1.74c-.51.56-1.06,1.09-1.59,1.63-1.07,1.09-2.17,2.13-3.32,3.09-4.61,3.89-9.89,6.68-15.17,9.36-2.66,1.31-5.39,2.51-8.17,3.62-1.4.55-2.81,1.08-4.25,1.56-.71.26-1.45.47-2.18.7l-1.09.34-1,.29a53.26,53.26,0,0,0-7,2.33,14.9,14.9,0,0,0-2.52,1.44l-.53.4c-.12.13-.26.22-.38.35a6.61,6.61,0,0,0-.72.84,6.8,6.8,0,0,0-1,1.93,4,4,0,0,0-.19,1.61,1.55,1.55,0,0,0,.39,1,3.26,3.26,0,0,0,1.39,1.05,19.53,19.53,0,0,0,6.44,1.31c2.7.2,5.47.37,8.25.5,5.56.28,11.25.52,17,1.12a82.46,82.46,0,0,1,17.24,3.45,84.62,84.62,0,0,1,8.11,3.26q3.93,1.77,7.7,3.75c10.11,5.21,19.52,11.36,29.26,16.75,2.48,1.38,4.84,2.78,7.31,4a34.24,34.24,0,0,0,3.74,1.54,12.23,12.23,0,0,0,3.75.74,3.54,3.54,0,0,0,1.58-.34,3.75,3.75,0,0,0,1.19-1.1,7.17,7.17,0,0,0,1-3.54c.19-2.67-.16-5.51.1-8.39a13,13,0,0,1,1-4.26,8.87,8.87,0,0,1,2.73-3.45,14,14,0,0,1,8.14-2.45c2.82-.11,5.61.14,8.38-.1a12.19,12.19,0,0,0,7.54-3.05,7.48,7.48,0,0,0,2-3.54,14,14,0,0,0,.36-4.14c-.11-2.79-.64-5.55-.88-8.34a17.17,17.17,0,0,1,.87-8.29,20.09,20.09,0,0,1,5.22-6.51Zm.07.07a21.8,21.8,0,0,0-2.83,3.09,14.36,14.36,0,0,0-2.11,3.54,16.64,16.64,0,0,0-.56,8.12c.33,2.75,1,5.48,1.16,8.36a14.73,14.73,0,0,1-.25,4.42,8.51,8.51,0,0,1-2.19,4.1,11.32,11.32,0,0,1-3.83,2.53,14.77,14.77,0,0,1-4.36,1.09c-2.94.32-5.76.13-8.45.3a12.4,12.4,0,0,0-7.11,2.25c-1.93,1.48-2.77,3.84-2.92,6.46s.21,5.38.08,8.37a9.32,9.32,0,0,1-1.27,4.64,6,6,0,0,1-.85,1,5.58,5.58,0,0,1-1.09.83,5.65,5.65,0,0,1-2.58.68,14.09,14.09,0,0,1-4.55-.71,34.26,34.26,0,0,1-4.08-1.53c-2.62-1.14-5.12-2.51-7.58-3.79-10-5.17-19.58-10.91-29.64-15.68-2.51-1.21-5-2.33-7.61-3.39s-5.17-2-7.79-2.83A78.3,78.3,0,0,0,143.7,283c-5.54-.41-11.13-.46-16.73-.56-2.8-.05-5.6-.12-8.41-.24a26.36,26.36,0,0,1-8.49-1.46,10.17,10.17,0,0,1-3.73-2.48,8,8,0,0,1-2.07-4,11.53,11.53,0,0,1,1.93-8.47,16.27,16.27,0,0,1,6.64-5.49,51.16,51.16,0,0,1,8-2.91,92.29,92.29,0,0,0,15.46-6.25,109.46,109.46,0,0,0,14.3-8.66,76.19,76.19,0,0,0,6.54-5.21c2-1.89,4.24-3.74,5.33-6.28a6.83,6.83,0,0,0,.35-4,8.85,8.85,0,0,0-1.81-3.67,10.65,10.65,0,0,0-7.13-3.83,21.4,21.4,0,0,0-8.26.75,54.76,54.76,0,0,0-7.86,2.88,92.13,92.13,0,0,0-14.42,8.52c-4.58,3.22-9,6.6-13.56,9.91l-13.5,10-27,20c-4.47,3.35-8.95,6.79-12.56,11.09a30.14,30.14,0,0,0-4.51,7,24.72,24.72,0,0,0-2.09,8.09,28.59,28.59,0,0,0,3.53,16.17,29,29,0,0,0,5,6.67,31.89,31.89,0,0,0,6.62,5.11,28.19,28.19,0,0,0,16.18,3.45c5.6-.35,11.06-1.72,16.49-3a103,103,0,0,1,16.52-2.92,56,56,0,0,1,16.69,1.13,40.21,40.21,0,0,1,15.12,7,64.49,64.49,0,0,1,11.92,11.77,110.68,110.68,0,0,1,9.27,14,164.06,164.06,0,0,1,7.48,15c2.26,5.12,3.9,10.49,6.3,15.56a33.23,33.23,0,0,0,4.41,7.11,29.58,29.58,0,0,0,6.21,5.61,50.4,50.4,0,0,0,15.41,6.46,120,120,0,0,0,16.54,2.77,320.08,320.08,0,0,1,33.23,4.7,281.22,281.22,0,0,1,32.44,8.62c21.28,7,41.67,16.48,61.25,27.3l3.68,2,3.63,2.09c2.43,1.41,4.85,2.79,7.24,4.26,4.81,2.86,9.56,5.82,14.22,8.92,9.31,6.22,18.34,12.85,27.55,19.21a251.42,251.42,0,0,0,28.59,17.55c5,2.53,10.13,4.78,15.33,6.85s10.52,3.82,15.88,5.41A187.21,187.21,0,0,0,499.8,523c5.57.61,11.17.87,16.76,1l4.2,0,4.19-.1a41.61,41.61,0,0,0,8.33-.94,21,21,0,0,0,7.65-3.3,17.3,17.3,0,0,0,3.1-2.82,19.73,19.73,0,0,0,2.34-3.47c2.66-5,3.41-10.69,3.58-16.25.09-2.8,0-5.6,0-8.39s-.1-5.6-.19-8.4a153.44,153.44,0,0,0-1.4-16.72,74.41,74.41,0,0,0-4.19-16.22A47.86,47.86,0,0,0,535.59,433a46.6,46.6,0,0,0-13.21-10.21,124.92,124.92,0,0,0-15.4-6.67c-2.61-1-5.23-2-7.84-3L491.38,410q-7.77-3.17-15.62-6.16-15.69-6-31.61-11.32c-5.3-1.8-10.63-3.53-15.95-5.25a128.46,128.46,0,0,1-15.68-6,56.35,56.35,0,0,1-7.3-4.13,54.19,54.19,0,0,1-6.46-5.34c-2.05-1.91-4.05-3.87-6.2-5.67a35.71,35.71,0,0,0-3.34-2.53c-1.15-.8-2.39-1.45-3.58-2.19-4.85-2.8-10-5.11-15-7.49a95.7,95.7,0,0,1-14.69-8.08,46.69,46.69,0,0,1-18.54-27.13A55.69,55.69,0,0,1,336.23,302c.33-5.59,1.19-11.13,1.71-16.7a45.14,45.14,0,0,0-.12-8.38c-.26-2.78-.66-5.55-1.05-8.32-.76-5.53-1.49-11.17-.58-16.72a28.31,28.31,0,0,1,2.48-8,32.57,32.57,0,0,1,4.63-7A66.21,66.21,0,0,1,356,226.05c4.6-3.19,9.35-6.16,13.86-9.48a50.55,50.55,0,0,0,11.94-11.68,27,27,0,0,0,3.69-7.5,28,28,0,0,0,1.39-8.23,35.7,35.7,0,0,0-4.11-16.11,48,48,0,0,0-10.31-13.13c-1-1-2.15-1.78-3.23-2.68s-2.29-1.59-3.45-2.38a57.66,57.66,0,0,0-7.47-3.81c-10.32-4.43-21.53-6.13-32.63-7.34s-22.34-1.8-33.3-4.16a87.16,87.16,0,0,1-16.06-4.84A56.13,56.13,0,0,1,262,126.17c-1-.93-2.14-1.81-3.09-2.84l-1.47-1.5L256,120.25a71.33,71.33,0,0,1-4.92-6.81c-3-4.69-5.77-9.6-9.06-14.12-.82-1.13-1.68-2.24-2.59-3.3s-1.93-2-2.89-3l-1.48-1.48-1.63-1.32a29.38,29.38,0,0,0-3.34-2.54l-1.75-1.15a17.16,17.16,0,0,0-1.79-1.1l-3.7-2L219,81.78c-1.29-.55-2.64-.92-4-1.38a89.84,89.84,0,0,0-16.39-3.46,156.27,156.27,0,0,0-16.76-.88c-5.59,0-11.18.24-16.77.56s-11.24.51-16.58,2.26a19.49,19.49,0,0,0-12.15,10.77,20.47,20.47,0,0,0-1.47,8.19,30.06,30.06,0,0,0,1.37,8.24,44.65,44.65,0,0,0,3.14,7.77c1.26,2.49,2.77,4.85,4.05,7.35a102.14,102.14,0,0,1,6.35,15.52c1.72,5.33,3.2,10.73,4.68,16.13a33.86,33.86,0,0,0,3,7.8,13.49,13.49,0,0,0,6,5.62,24.74,24.74,0,0,0,3.94,1.44,11.81,11.81,0,0,0,2.06.34,3.38,3.38,0,0,0,2-.42,2.18,2.18,0,0,0,.88-1.79,7.24,7.24,0,0,0-.24-2.07,23.1,23.1,0,0,0-1.43-3.93c-2.35-5.08-5.4-9.8-8.19-14.65-.69-1.21-1.38-2.43-2-3.71a9.38,9.38,0,0,1-.69-2c-.19-.67-.33-1.36-.47-2.05a30.11,30.11,0,0,1-.45-8.37,23.34,23.34,0,0,1,2.19-8.07,19.9,19.9,0,0,1,2.22-3.57,16,16,0,0,1,3-2.9,15.19,15.19,0,0,1,7.86-2.71,27.81,27.81,0,0,1,8.33.78,66.47,66.47,0,0,1,15.58,6.19c9.89,5.27,19,11.85,27.8,18.77l3.28,2.62c1.1.87,2.11,1.84,3.17,2.76s1.93,2,2.9,3,1.76,2.19,2.64,3.27a80.79,80.79,0,0,1,8.32,14.57c4.66,10.19,8,20.9,12.85,31,2.41,5.05,5.31,9.85,7.75,14.89a74.11,74.11,0,0,1,5.94,15.68,33.42,33.42,0,0,1,.9,8.34,20.38,20.38,0,0,1-1.86,8.13,19.91,19.91,0,0,1-5.09,6.6c-2.1,1.85-4.3,3.59-6.35,5.49Z"/><path d="M192.57,139.34a4.19,4.19,0,0,0-1.69,0,2.1,2.1,0,0,0-1.31.89,2.21,2.21,0,0,0,.21,2.63,6.57,6.57,0,0,0,1.09.78,8.76,8.76,0,0,0,1.26.57,8.17,8.17,0,0,0,2.43.48,3.92,3.92,0,0,0,1.9-.3,2.19,2.19,0,0,0,.72-.55,1.14,1.14,0,0,0,.3-.88,3.8,3.8,0,0,0-1.73-2.42A8.26,8.26,0,0,0,192.57,139.34Zm0,0A32.63,32.63,0,0,1,196,140a7.68,7.68,0,0,1,1.72.7,4.7,4.7,0,0,1,1.6,1.36,3.56,3.56,0,0,1,.6,2.46,4.34,4.34,0,0,1-1.06,2.34,5,5,0,0,1-2.1,1.44,6.2,6.2,0,0,1-2.34.35,7,7,0,0,1-4.06-1.54,7.24,7.24,0,0,1-1.44-1.54,6.63,6.63,0,0,1-1-2,3.88,3.88,0,0,1,1.22-3.8,3,3,0,0,1,1.68-.65A6.57,6.57,0,0,1,192.57,139.34Z"/><path d="M153.15,190.61a7.76,7.76,0,0,0,.31,4.73A4.76,4.76,0,0,0,155,197a6.09,6.09,0,0,0,2,1,3.53,3.53,0,0,0,.95.1,3.15,3.15,0,0,0,.87-.15,1.78,1.78,0,0,0,1-.83,4.15,4.15,0,0,0,.49-1.48c.13-.71.24-1.42.31-2.13a24.53,24.53,0,0,0,.06-4.28,7.12,7.12,0,0,0-.4-1.87,3.76,3.76,0,0,0-1-1.48,2,2,0,0,0-1.73-.39,4.54,4.54,0,0,0-2,1.06A7.27,7.27,0,0,0,153.15,190.61Zm0,0a9.17,9.17,0,0,1,.74-2.33,10.54,10.54,0,0,1,1.26-2.14,6.43,6.43,0,0,1,1.93-1.8,3.71,3.71,0,0,1,3-.31,5.85,5.85,0,0,1,2.53,1.77,7.76,7.76,0,0,1,1.4,2.64,13.58,13.58,0,0,1,.54,5.43,14.22,14.22,0,0,1-.55,2.67,6.33,6.33,0,0,1-1.68,2.84,4.6,4.6,0,0,1-3.26,1.28,5.59,5.59,0,0,1-2.92-.93,8,8,0,0,1-2-1.9,6.73,6.73,0,0,1-1.23-2.3A12,12,0,0,1,153.15,190.61Z"/><path d="M347.74,179.59a8.23,8.23,0,0,0-1.7,1.63,3.72,3.72,0,0,0-.79,2.12,2.53,2.53,0,0,0,.73,1.89,2.21,2.21,0,0,0,1.63.68,3.13,3.13,0,0,0,.42,0c.17,0,.35-.05.52-.09.34-.07.68-.18,1-.28a13.31,13.31,0,0,0,1.89-.82,15.28,15.28,0,0,0,3.24-2.33,7.58,7.58,0,0,0,2-2.85,3,3,0,0,0,.19-1.41,1.14,1.14,0,0,0-.77-1,4.68,4.68,0,0,0-2-.28,8.12,8.12,0,0,0-2.25.46A15.62,15.62,0,0,0,347.74,179.59Zm0,0c1.28-.94,2.51-1.93,3.88-2.8a12.86,12.86,0,0,1,2.22-1.13,6.47,6.47,0,0,1,2.68-.53,3.7,3.7,0,0,1,1.6.45,3.63,3.63,0,0,1,1.32,1.26,5.24,5.24,0,0,1,.71,3.24,8.3,8.3,0,0,1-2.72,5.18,11.25,11.25,0,0,1-4.78,2.65,10.83,10.83,0,0,1-2.71.35,10.2,10.2,0,0,1-1.35-.09l-.67-.11a5.38,5.38,0,0,1-.76-.21,3.86,3.86,0,0,1-2.17-2,3.79,3.79,0,0,1-.28-2.63A7,7,0,0,1,347.74,179.59Z"/></svg>