<svg id="Layer_1" data-name="Layer 1" xmlns="http://www.w3.org/2000/svg" viewBox="0 0 600 600"><title>UnitedArabEmirates</title><path d="M73.3,269.84a4,4,0,0,0-2.67-1.76c-1.07-.25-2.17-.3-3.23-.61a10.08,10.08,0,0,1-5.34-3.82,15.15,15.15,0,0,1-1.68-2.91,11.91,11.91,0,0,0-.77-1.37,2,2,0,0,0-.84-.85c-.11,0-.2,0-.34,0l-.24.13-.26.19a8.89,8.89,0,0,0-1,1.07c-.33.4-.66.83-1,1.26a13.16,13.16,0,0,0-.88,1.32,25.77,25.77,0,0,0-3.55,12A35.19,35.19,0,0,0,53.19,287a70.66,70.66,0,0,0,5,11.78c2,3.83,4.21,7.63,6.42,11.44L77.89,333l26.54,45.63,13.27,22.81,3.28,5.63c1.06,1.78,2.11,3.43,3.18,4.89a23,23,0,0,0,3.23,3.65,11.14,11.14,0,0,0,3,1.93,8.62,8.62,0,0,0,1.46.42c.57.11,1.31.21,2.21.3a64,64,0,0,1,7.37.91,29,29,0,0,1,4.71,1.41,34.27,34.27,0,0,1,4.17,2,60.22,60.22,0,0,1,6.62,4.45c1.91,1.44,3.57,2.75,5.09,3.81s3.08,2.06,4.73,3a103.12,103.12,0,0,0,10.36,5.49c3.67,1.68,7.54,3.24,11.55,4.75s8.16,3,12.28,4.54,8.23,3,12.37,4.46l12.41,4.25c16.55,5.64,33.49,9.84,50.33,13.73,8.43,1.89,16.87,3.63,25.31,5.12,4.22.75,8.39,1.46,12.55,2.1s8.28,1.16,12.37,1.59,8.16.72,12.17,1c2,.11,4,.32,6,.44l5.93.34c2,.1,3.93.12,5.89.2s3.93.09,5.88.09a106.36,106.36,0,0,0,11.5-.48c1.87-.19,3.72-.46,5.54-.78.91-.16,1.81-.38,2.69-.59s1.93-.5,2.78-.73a23.3,23.3,0,0,0,4.22-1.53,5.77,5.77,0,0,0,1.79-1.26,3,3,0,0,0,.44-1.22,3,3,0,0,0,.08-.48,1.88,1.88,0,0,0,0-.53,7.85,7.85,0,0,0-.12-1.18c-.12-.48-.2-1-.38-1.64l-.64-2.21c-.52-1.69-1.22-3.87-1.89-6.52-.18-.63-.34-1.39-.5-2.08l-.43-2.26c-.25-1.31-.49-2.65-.68-4.06a56.58,56.58,0,0,1-.51-9.16,45.18,45.18,0,0,1,1.58-10.35,50.09,50.09,0,0,1,1.86-5.27,52.53,52.53,0,0,1,2.45-4.87,61.06,61.06,0,0,1,10.84-13.46,107.42,107.42,0,0,1,9.06-7.62l3.54-2.8,1.74-1.57c.6-.53,1.1-1.16,1.69-1.74a39.36,39.36,0,0,0,6.05-8.58,45.42,45.42,0,0,0,3.8-10.78c.18-1,.43-1.93.54-2.91a12.07,12.07,0,0,0,0-3,15.51,15.51,0,0,0-.73-3c-.31-1-.67-2-1-3a20.49,20.49,0,0,1-1.12-6.07c-.11-2-.25-4.08-.43-6.16l-.26-3.14c-.1-1.12-.21-2.43-.28-3.92a44.66,44.66,0,0,1,.12-5.06c.08-.93.21-1.93.38-2.95.1-.52.19-1,.31-1.57l.19-.79c.07-.3.26-1,.33-1.16.39-1.2.72-2.05,1.11-3s.79-1.76,1.25-2.63a31.4,31.4,0,0,1,3.42-5.24,27.69,27.69,0,0,1,5.42-5.13l.85-.59.92-.56a18.86,18.86,0,0,1,1.94-1.05c.69-.32,1.39-.62,2.09-.89s1.6-.51,2.4-.72a19.29,19.29,0,0,1,2.63-.48,17.1,17.1,0,0,1,2.77-.16c.46,0,.92,0,1.39,0a12.56,12.56,0,0,1,1.32.13c.82.12,1.67.27,2.46.45a27.36,27.36,0,0,1,6.18,2.42c.58.32,1.28.7,1.7.95l1.32.77,2.1,1.2a34,34,0,0,0,3.86,1.81,5.78,5.78,0,0,1,1,.52c.18.12.32.21.45.31a3.66,3.66,0,0,0,.42.34c.58.48,1.25,1.05,2,1.61A12.77,12.77,0,0,0,478,327a7.06,7.06,0,0,0,2.47.64,18.51,18.51,0,0,0,4.51-.59,11.93,11.93,0,0,0,3.12-1.25,3.83,3.83,0,0,0,1.27-1.14,4.12,4.12,0,0,0,.41-2.35,4.17,4.17,0,0,0-.69-2.13,7.12,7.12,0,0,0-2.39-2.18c-1.71-1-3.86-2.16-6.27-3.85A23.81,23.81,0,0,1,476.7,311a17.41,17.41,0,0,1-4.91-10.7,12.76,12.76,0,0,1,.22-4.05,13.71,13.71,0,0,1,1.42-3.73c.54-1,1-1.56,1.3-2.06s.56-.83.76-1.15a9.7,9.7,0,0,0,.86-1.7,16.35,16.35,0,0,0,1-4.28,33.89,33.89,0,0,0-.89-10.51c-.41-1.92-.89-3.84-1.51-5.91s-1.3-4.21-2-6.46-1.49-4.61-2.18-7.15c-.34-1.28-.64-2.6-.9-4a42.85,42.85,0,0,1-.66-4.27,35.06,35.06,0,0,1,.23-9.63,32.46,32.46,0,0,1,3.39-9.93,30.44,30.44,0,0,1,7-8.78,29.6,29.6,0,0,1,5.2-3.52,28.69,28.69,0,0,1,6.38-2.38,13.86,13.86,0,0,1,3.53-.31,15.47,15.47,0,0,1,3.5.67,20.53,20.53,0,0,1,2,.72c.62.3,1.22.61,1.79.93s1.07.69,1.56,1.05,1,.73,1.39,1.1c1.76,1.47,3.23,2.84,4.83,4.18a20,20,0,0,1,4.42,5.18,16.63,16.63,0,0,1,1.66,3.92c.1.37.18.79.26,1.19a10.54,10.54,0,0,1,.16,1.11q.06.84.09,1.68a19.15,19.15,0,0,1-1.22,6.73,23.45,23.45,0,0,1-6.06,8.47c-1,.93-1.88,1.71-2.65,2.39s-1.47,1.27-1.89,1.73a11.46,11.46,0,0,0-2.21,3.13,6.79,6.79,0,0,0-.63,2.94,6.53,6.53,0,0,0,.22,1.36,6.62,6.62,0,0,0,.56,1.3,7.3,7.3,0,0,0,4.93,3.34,4,4,0,0,0,.68.07c.23,0,.5,0,.74,0s.43-.11.65-.13.37-.19.56-.24.34-.22.51-.34a5.16,5.16,0,0,0,.49-.46c.16-.19.33-.33.51-.58l.25-.33.27-.4c1.47-2.12,3-5.81,5.58-9.91a101.88,101.88,0,0,0,5.58-10.55c3.27-7.15,5.19-14.54,7.08-22.21l3-12.07a34.67,34.67,0,0,1,1.74-5.93,43.82,43.82,0,0,1,3-5.74c.54-1,1.09-1.92,1.61-2.9a26,26,0,0,0,1.33-3,20.44,20.44,0,0,0,1.27-6.1c0-.49.1-1,.11-1.61l0-1.68.06-1.65c0-.52,0-1,0-1.44a22,22,0,0,0-.84-5.33,12.84,12.84,0,0,0-1.87-4c-.73-1-1.36-1.32-1.69-1.32-.17,0-.3,0-.47,0s-.16,0-.36-.05l-1-.11c-.81-.1-2.06-.2-3.64-.46a19.72,19.72,0,0,1-5.86-1.95,13.66,13.66,0,0,1-1.49-.92,16.16,16.16,0,0,1-3.92-3.73,15.24,15.24,0,0,1-2.81-6.64,17,17,0,0,1,0-5.76,24.33,24.33,0,0,1,1.2-4.47,45.87,45.87,0,0,1,3.4-6.91c1.17-2,2.4-3.91,3.18-5.46a24.17,24.17,0,0,0,1.65-16.63c-.11-.44-.26-.85-.39-1.27s-.29-.66-.43-1-.34-.54-.49-.82-.38-.4-.54-.62a2.25,2.25,0,0,0-2.08-.73,5.72,5.72,0,0,0-2.53,1.19,8.9,8.9,0,0,0-2.3,2.93,17.36,17.36,0,0,0-1.51,4.27c-.43,1.69-.8,3.64-1.31,5.94a44.1,44.1,0,0,1-2.35,7.67c-.33.71-.63,1.41-1,2.13s-.81,1.49-1.09,2c-.63,1.12-1.28,2.22-2,3.3-1.39,2.14-2.87,4.2-4.42,6.18-2.91,4.18-7,7-10.86,9.9s-7.84,5.35-11.79,7.74-7.94,4.56-11.91,6.62l-5.92,3-5.89,2.92-5.85,2.84c-1.95.94-3.87,1.87-5.79,2.85-3.85,2-7.67,4-11.41,6.27s-7.37,4.66-10.92,7.2a86.9,86.9,0,0,0-10.18,8.29c-3.16,3.07-6,6.58-8.84,9.91a114.73,114.73,0,0,1-9,9.37c-3.1,3-6,6-8.92,9.13s-5.57,6.29-8.09,9.56A94.71,94.71,0,0,0,367.86,260c-.74,1.84-1.53,3.57-2.19,5.53s-1.4,4.07-2.24,6.31a58.22,58.22,0,0,1-3.09,7.08,35.91,35.91,0,0,1-5,7.22,43.89,43.89,0,0,1-13.4,9.76c-2.26,1.13-4.49,2.09-6.62,3s-4.16,1.69-6.28,2.42C320.66,304.21,312,306.9,303,309a123.85,123.85,0,0,1-27.86,3.67,73.93,73.93,0,0,1-28.39-5.16c-4.55-1.82-8.42-4-12.1-5.67a35,35,0,0,0-5.42-2,25.44,25.44,0,0,0-2.8-.69c-.94-.24-1.94-.33-2.92-.5-7.94-1.13-16.78-.32-26-.95a53.07,53.07,0,0,1-13.95-2.67c-4.57-1.61-8.47-3.85-12.32-5.68S163.6,286,159.93,286c-.45,0-.92,0-1.36,0l-1.34.19a13.86,13.86,0,0,0-2.57.86,21.12,21.12,0,0,0-4.86,3.36c-1.6,1.37-3.14,2.95-4.93,4.42a46.32,46.32,0,0,1-5.56,4A55.34,55.34,0,0,1,127,304.55a59.81,59.81,0,0,1-26.51,2.31,45.2,45.2,0,0,1-12.75-3.69A27.6,27.6,0,0,1,77.4,295,23.08,23.08,0,0,1,73,282.74a17.32,17.32,0,0,1,0-3.3,32.05,32.05,0,0,1,.66-3.24,15.38,15.38,0,0,0,.49-3.24A5.29,5.29,0,0,0,73.3,269.84Zm0,0a6.51,6.51,0,0,1,1,3.14,15.9,15.9,0,0,1-.36,3.31,30.36,30.36,0,0,0-.52,3.22,17.25,17.25,0,0,0,.13,3.2,22.34,22.34,0,0,0,4.73,11.67,26.88,26.88,0,0,0,10.1,7.38,43.93,43.93,0,0,0,12.33,3.14,55.15,55.15,0,0,0,12.84-.08A59.73,59.73,0,0,0,126.08,302a51.8,51.8,0,0,0,11.5-5.64,41.64,41.64,0,0,0,5.07-3.9c1.61-1.38,3.1-3,4.76-4.53a25,25,0,0,1,5.56-4.09,14.86,14.86,0,0,1,1.63-.71l1.69-.54,1.75-.32c.59-.09,1.18-.08,1.77-.13a22.91,22.91,0,0,1,6.83,1,46.91,46.91,0,0,1,6.29,2.39c4.06,1.78,7.94,3.83,12,5.13a47.69,47.69,0,0,0,12.73,2c8.68.37,17.5-.75,26.38.13A44.83,44.83,0,0,1,237,295.94c4.11,1.65,8,3.7,12.1,5.19l3.1,1c.52.17,1,.37,1.55.5l1.59.38,3.18.77,3.23.51,1.62.26,1.63.13,3.27.27c1.09,0,2.19,0,3.28.06s2.19,0,3.28,0a115.08,115.08,0,0,0,25.9-4.21,262.38,262.38,0,0,0,25-8.28c4.11-1.56,8.25-3.06,12.21-5A34.71,34.71,0,0,0,348.68,280a35.28,35.28,0,0,0,6.49-11.38c.8-2.05,1.53-4.12,2.3-6.18s1.68-4.06,2.54-6.08a90.46,90.46,0,0,1,6.42-11.5c1.15-1.87,2.5-3.61,3.75-5.42l2-2.6,1-1.3,1.06-1.26c2.78-3.4,5.82-6.58,8.87-9.74s6.28-6.15,9.55-9.08c6.52-5.9,13.31-11.48,20.05-17.12s13.55-11.2,20.54-16.52,14.22-10.35,21.67-15,15-9.23,22.2-14.21a124.42,124.42,0,0,0,20.27-16.78c1.51-1.59,2.95-3.26,4.31-5a38.61,38.61,0,0,0,3.73-5.42c2.08-3.89,3.17-8.19,4.95-12.21a23,23,0,0,1,3.37-5.64,15.74,15.74,0,0,1,5.06-4.14,10.86,10.86,0,0,1,6.38-1.16,8.8,8.8,0,0,1,3.09,1.06c.44.32.91.63,1.32,1a12.72,12.72,0,0,1,1.12,1.2,14.5,14.5,0,0,1,2.56,6,35.1,35.1,0,0,1,.71,6.54,40.86,40.86,0,0,1-2,13c-1.44,4.14-3.49,8.08-4.51,12.37a14.53,14.53,0,0,0-.33,6.52,6.89,6.89,0,0,0,1.4,3,7.78,7.78,0,0,0,2.55,2c2,1,4.26,1,6.43,1.29a12,12,0,0,1,6.13,2.17,13,13,0,0,1,4,5.14,24.77,24.77,0,0,1,1.81,6.31,42.44,42.44,0,0,1,.47,6.57c0,1.1-.06,2.19-.11,3.29s0,2.2-.06,3.3a131.35,131.35,0,0,1-1.12,13.13A206,206,0,0,1,543.37,222a104.64,104.64,0,0,1-9.78,24.41,114.13,114.13,0,0,1-7.09,11.11c-2.58,3.54-4.87,7.35-8.12,10.35a15.23,15.23,0,0,1-5.59,3.39,14.24,14.24,0,0,1-6.52.41,15.36,15.36,0,0,1-10.51-7.26,14.14,14.14,0,0,1-1.92-6.25,15,15,0,0,1,1.08-6.45,20,20,0,0,1,3.42-5.6c1.43-1.67,3.09-3.12,4.6-4.71a15.5,15.5,0,0,0,3.67-5.42,8.89,8.89,0,0,0,.45-3.24,7.39,7.39,0,0,0-.25-1.62,5.74,5.74,0,0,0-.7-1.48,11,11,0,0,0-11.58-4.41c-4.33,1-7.91,4.06-10.27,7.72a22.13,22.13,0,0,0-2.71,6,26.91,26.91,0,0,0-.93,6.5,54.27,54.27,0,0,0,1.51,13.06c.93,4.3,2.09,8.54,2.84,12.87a43.12,43.12,0,0,1,.56,13.12,24.52,24.52,0,0,1-1.72,6.34,16.87,16.87,0,0,1-1.54,2.91c-.59.93-1.28,1.79-1.82,2.74a5,5,0,0,0-.68,3.17,9.67,9.67,0,0,0,.84,3.16,12.54,12.54,0,0,0,4.41,4.79,64.48,64.48,0,0,0,5.68,3.34,16.29,16.29,0,0,1,5,4.25,13.53,13.53,0,0,1,2,12.51,12,12,0,0,1-3.84,5.25A19.36,19.36,0,0,1,488,336a37.35,37.35,0,0,1-25.78-1.41c-2-.84-4-1.88-6-2.84a16,16,0,0,0-3.07-1.16,6.91,6.91,0,0,0-3.26,0,10.22,10.22,0,0,0-5.3,3.72,19.16,19.16,0,0,0-3.06,5.79c-1.24,4.27-.52,8.74-.37,13.1s.37,8.79.3,13.18-.28,8.79-.76,13.16a98.31,98.31,0,0,1-2.33,13A61.16,61.16,0,0,1,426.89,416c-5.56,6.8-12.52,12.42-17.23,19.9a30.15,30.15,0,0,0-2.91,5.89,34.3,34.3,0,0,0-1.58,6.39,48,48,0,0,0-.53,6.56,57.87,57.87,0,0,0,.22,6.58c.39,4.37,1.19,8.74.82,13.14a19.29,19.29,0,0,1-5.16,11.86c-3.13,3.14-7.31,4.91-11.46,6.28a91.9,91.9,0,0,1-12.76,3.29c-17.34,3.12-35.16,2.21-52.48-.55-8.68-1.39-17.28-3.24-25.82-5.33s-17-4.35-25.47-6.8C255.65,478.3,239,472.76,222.37,467q-12.45-4.33-24.86-8.8c-8.25-3-16.6-5.79-24.64-9.36a95.27,95.27,0,0,1-11.67-6.12c-1.87-1.16-3.67-2.43-5.42-3.76s-3.41-2.76-5.12-4.14c-3.39-2.74-7.08-5.38-11.39-6.35-2.14-.5-4.34-.68-6.51-1a20.12,20.12,0,0,1-6.33-1.78c-4-1.95-7-5.4-9.39-9.06s-4.32-7.66-6.36-11.54L98.54,381.68l-24.28-46.8-12.14-23.4c-4-7.81-8.4-15.52-10.72-24a36.71,36.71,0,0,1-1.31-13.06A27,27,0,0,1,54.25,262a14.42,14.42,0,0,1,1-1.35c.33-.44.68-.86,1.05-1.27a9.28,9.28,0,0,1,1.2-1.14,1.6,1.6,0,0,1,1.56-.38A2.71,2.71,0,0,1,60.16,259a13.62,13.62,0,0,1,.72,1.49,16.39,16.39,0,0,0,1.45,2.94,9.24,9.24,0,0,0,5.07,4c1,.34,2.17.37,3.24.61A4.07,4.07,0,0,1,73.33,269.82Z"/><path d="M285.29,288.71c-.44-.88-.78-1.72-1.56-2.07a5.51,5.51,0,0,0-2.59-.4,33.48,33.48,0,0,0-5.56.56,30.13,30.13,0,0,0-10.36,3.65q-.64.36-1.35.69l-1.34.6a7.09,7.09,0,0,0-2,1.22,2.07,2.07,0,0,0-.69,1.32.72.72,0,0,0,.12.39,1.44,1.44,0,0,0,.39.4,1.77,1.77,0,0,0,.66.27,5.5,5.5,0,0,0,1,.21c.77.1,1.65.16,2.66.31l.79.12.41.1.33.07c.45.08.87.16,1.28.26.8.2,1.52.41,2.16.61a8.57,8.57,0,0,0,1.65.37,4.7,4.7,0,0,0,1,0,1.71,1.71,0,0,0,.82-.42,9.92,9.92,0,0,0,.81-.92,11.42,11.42,0,0,1,1.57-1.62,6.38,6.38,0,0,1,3-1.39,6.1,6.1,0,0,1,3.09.38,9.57,9.57,0,0,1,3.25,2.31l.53.56.4.44c.27.29.55.56.83.81a7.9,7.9,0,0,0,1.8,1.21,4.4,4.4,0,0,0,3.95,0,3,3,0,0,0,1.41-3.6,4.42,4.42,0,0,0-1.49-1.9,8.79,8.79,0,0,0-2.4-1.24,12.84,12.84,0,0,1-2.67-1.12A5.19,5.19,0,0,1,285.29,288.71Zm.45-.22a4.61,4.61,0,0,0,1.75,2,10.17,10.17,0,0,0,2.58.95,10.93,10.93,0,0,1,2.69,1.09,5.41,5.41,0,0,1,2.06,2.13,4.06,4.06,0,0,1,.31,3,5,5,0,0,1-1.63,2.51,6.52,6.52,0,0,1-5.69,1.06,12.54,12.54,0,0,1-5-2.84,7.71,7.71,0,0,0-2.29-1.35,2.13,2.13,0,0,0-2.22.46,16.34,16.34,0,0,0-1.64,2.2,6.78,6.78,0,0,1-2.32,1.93,8.55,8.55,0,0,1-5.87.26,35.74,35.74,0,0,1-5.31-2.16c-.86-.37-1.74-.74-2.6-1.2a6.29,6.29,0,0,1-2.27-1.87,3.55,3.55,0,0,1-.63-2.89,4.51,4.51,0,0,1,1.7-2.41c1.62-1.2,3.57-1.44,5.22-2.3.85-.4,1.7-.83,2.6-1.16s1.81-.59,2.73-.84a44.24,44.24,0,0,1,5.59-1.12,43.09,43.09,0,0,1,5.68-.34,5.92,5.92,0,0,1,2.87.56,3,3,0,0,1,1.09,1.07C285.37,287.63,285.54,288.08,285.74,288.49Z"/><path d="M331.88,262.63c-.38.66-.66,1.38-1,2.09a6.22,6.22,0,0,1-1.36,2,5,5,0,0,1-2.25,1.26,12.36,12.36,0,0,1-2.51.22,5.18,5.18,0,0,0-3.68,1.05,1.5,1.5,0,0,0-.46,1.12c0,.36.21.35.42.47a3.49,3.49,0,0,0,.92.28,4.13,4.13,0,0,0,1.21,0l.29-.06.23-.1.81-.29a8.94,8.94,0,0,1,3.28-.54,9.74,9.74,0,0,1,3.81,1l2.13,1c1.18.54,2.43,1.08,3.7,1.53.63.25,1.27.48,1.9.68.35.1.54.19.8.26a7.33,7.33,0,0,0,.74.19c1,.23,1.69.17,1.8.28a.24.24,0,0,0,.36,0c.17-.09.27,0,.38-.13a1.27,1.27,0,0,0-.12-1,4.86,4.86,0,0,0-.32-.57c-.13-.22-.24-.44-.35-.65-.21-.44-.39-.86-.55-1.27-.31-.83-.54-1.6-.77-2.33l-.35-1.05-.42-1.15a24.75,24.75,0,0,0-1.85-4.14,4.53,4.53,0,0,0-3.25-2.42,3.52,3.52,0,0,0-2,.61A5.37,5.37,0,0,0,331.88,262.63Zm-.43-.26a5,5,0,0,1,3.95-2.62,4.23,4.23,0,0,1,2.36.74,8.44,8.44,0,0,1,1.79,1.63,28,28,0,0,1,2.59,3.95c.38.68.8,1.34,1.17,2s.73,1.38,1.12,2a10.92,10.92,0,0,0,1.32,1.85,5.8,5.8,0,0,1,1.17,2.21,3.9,3.9,0,0,1-.23,2.54,4.46,4.46,0,0,1-1.59,2,7.12,7.12,0,0,1-4.81.89,20.55,20.55,0,0,1-4.62-1.22,33.42,33.42,0,0,1-4.3-2c-1.39-.78-2.61-1.78-4-1.92s-3,.53-4.66.26a5.37,5.37,0,0,1-4.11-2.59,3.06,3.06,0,0,1-.12-2.56,3.81,3.81,0,0,1,1.66-1.9,7.32,7.32,0,0,1,4.76-.59,8.53,8.53,0,0,0,2.25.06,3.9,3.9,0,0,0,1.94-.9C330.22,265.31,330.62,263.74,331.45,262.37Z"/><path d="M164.63,267.5A12.76,12.76,0,0,0,159.7,266a5.32,5.32,0,0,0-2.39.42,4.16,4.16,0,0,0-1.72,1.49,2.78,2.78,0,0,0-.42,2,3.34,3.34,0,0,0,.89,1.66c.46.49,1,1,1.64,1.53l1.88,1.74c.63.56,1.31,1.14,1.89,1.69a5.13,5.13,0,0,0,1.46,1,2,2,0,0,0,1.53-.14,4.62,4.62,0,0,0,1.6-1.3,6.73,6.73,0,0,0,1.52-4.48,4.82,4.82,0,0,0-.85-2.47,4.74,4.74,0,0,0-.91-1A9.47,9.47,0,0,0,164.63,267.5Zm.26-.43a7,7,0,0,1,1,1,12.13,12.13,0,0,1,.92,1,9.07,9.07,0,0,1,1.43,2.36,7.15,7.15,0,0,1-.09,5.88,6.88,6.88,0,0,1-2.08,2.54,5.38,5.38,0,0,1-1.61.85,5,5,0,0,1-2,.26,6.84,6.84,0,0,1-3.35-1.33,18.53,18.53,0,0,1-2.22-1.77,19.67,19.67,0,0,1-2-2,9.46,9.46,0,0,1-1.71-2.65,5.78,5.78,0,0,1-.41-3.47,5.71,5.71,0,0,1,1.54-2.9,5.84,5.84,0,0,1,2.58-1.62,7,7,0,0,1,2.91-.24,10,10,0,0,1,2.69.79A18.72,18.72,0,0,1,164.89,267.07Z"/><path d="M309.84,283.65a2,2,0,0,0-.16,1.55,3.83,3.83,0,0,0,.71,1.41,5.65,5.65,0,0,0,2.48,1.75,6.12,6.12,0,0,0,1.38.36,4.35,4.35,0,0,0,1.19,0,2.61,2.61,0,0,0,.87-.24.78.78,0,0,0,.31-.27.7.7,0,0,0,.13-.19l.09-.14c.06-.06.1-.22,0-.51a3.12,3.12,0,0,0-.49-1,5.85,5.85,0,0,0-1-1.06,11,11,0,0,0-2.61-1.85,4.32,4.32,0,0,0-1.53-.43A1.56,1.56,0,0,0,309.84,283.65Zm0,0a1.85,1.85,0,0,1,1.42-.73,7.19,7.19,0,0,1,1.67,0,27,27,0,0,1,3.39.59,7.7,7.7,0,0,1,1.79.63,5.18,5.18,0,0,1,1.7,1.38,4,4,0,0,1,.89,2.56,3.81,3.81,0,0,1-.29,1.44,4.34,4.34,0,0,1-.69,1.19,4.26,4.26,0,0,1-2.37,1.46,5,5,0,0,1-2.35-.06,5.84,5.84,0,0,1-1.92-.89,8.75,8.75,0,0,1-1.4-1.31,9.77,9.77,0,0,1-1.77-3.08,6.81,6.81,0,0,1-.37-1.64A2.51,2.51,0,0,1,309.84,283.65Z"/></svg>