<svg id="Layer_2" data-name="Layer 2" xmlns="http://www.w3.org/2000/svg" viewBox="0 0 600 600"><title>UnitedKingdom</title><path d="M277,114.78a13.55,13.55,0,0,0-2.87,7,9.63,9.63,0,0,0,2.23,7,9.05,9.05,0,0,0,2.83,2.3,5.77,5.77,0,0,0,3.43.55,13.63,13.63,0,0,0,3.46-1.22,23.74,23.74,0,0,1,3.66-1.51A98,98,0,0,1,305,125.62c5.19-.63,10.39.11,15.51.62,5.09.83,10.27,1,15.53,2.23a27,27,0,0,1,7.75,3.06,17.69,17.69,0,0,1,3.48,2.79,17.41,17.41,0,0,1,2.61,3.71,23.64,23.64,0,0,1,2.46,8.28,29.51,29.51,0,0,1-.26,8.49,39.54,39.54,0,0,1-6.78,15.12,125.09,125.09,0,0,1-10,12.11L325,193.37,314.79,204.7l-5.1,5.66a26.71,26.71,0,0,0-3.78,5.18,8.11,8.11,0,0,0-.81,2.2,3.21,3.21,0,0,0,.06,1.48,2.49,2.49,0,0,0,.63,1.07,7,7,0,0,0,1.42,1.07,8.18,8.18,0,0,0,2.22.8,10.68,10.68,0,0,0,1.26.21c.44,0,.81.06,1.33.07a60.75,60.75,0,0,0,6.91-.59c1.31-.14,2.72-.28,4.22-.34.75,0,1.53,0,2.32,0s1.58.13,2.38.2a30.5,30.5,0,0,1,9.1,2.55,40,40,0,0,1,7.77,4.81c.59.46,1.17.92,1.71,1.42a11.54,11.54,0,0,1,1.54,1.59,6.44,6.44,0,0,1,1.21,1.85c.3.7.55,1.42.89,2.06a9.54,9.54,0,0,0,1.17,1.75c.44.55.83,1.13,1.22,1.7.81,1.14,1.52,2.32,2.24,3.49,1.37,2.39,2.71,4.78,3.85,7.26,2.24,4.87,4.19,9.68,6.07,14.37.95,2.33,1.91,4.63,2.94,6.83a67.25,67.25,0,0,0,3.43,6.29,59.55,59.55,0,0,0,3.95,5.57c1.42,1.69,2.86,3.3,4.5,4.92s3.36,3.25,5.13,5,3.6,3.55,5.46,5.43a106,106,0,0,1,10.91,12.63,67.38,67.38,0,0,1,8.11,15.32,72.48,72.48,0,0,1,2.81,7.59,25.56,25.56,0,0,1,.89,5.4,9.71,9.71,0,0,1-.77,3.05,13.9,13.9,0,0,1-1.5,2.86,16.8,16.8,0,0,1-4.12,4.16l-.54.39-.26.2-.21.12c-.27.15-.53.32-.79.48a9.71,9.71,0,0,0-1.33,1.07,7.17,7.17,0,0,0-1.6,2.28,2.81,2.81,0,0,0-.12,1.92c.37,1.21,1.68,2.36,3.54,4a32.71,32.71,0,0,1,3,2.95,24.8,24.8,0,0,1,3.21,4.42,17.45,17.45,0,0,1,1.86,5.85,24.87,24.87,0,0,1,.18,5.46,22,22,0,0,1-1,4.43l-.59,1.88-.48,1.59a16.37,16.37,0,0,0-.76,4.49c.07,1,.06.8-.12.86s.06.16.38.26a3.25,3.25,0,0,0,1.31.1,5.89,5.89,0,0,0,1.56-.35,6.58,6.58,0,0,0,1.6-.93c1.33-1,2.91-3.05,5.48-5.49a18.69,18.69,0,0,1,5-3.41l1.55-.62c.52-.18,1.05-.31,1.58-.48l2.58-.64a32.91,32.91,0,0,1,10.12-.69,42.75,42.75,0,0,1,9.87,2,39.9,39.9,0,0,1,4.72,1.92,21.3,21.3,0,0,1,2.36,1.29,25.43,25.43,0,0,1,2.32,1.49,36.59,36.59,0,0,1,7.86,7.6,37.23,37.23,0,0,1,5.22,9.37,45.57,45.57,0,0,1,2.7,10.25c.1.89.24,1.76.29,2.65L477,419c.05.9,0,1.8-.06,2.7s-.11,1.79-.22,2.7a42.6,42.6,0,0,1-1,5.4A39.18,39.18,0,0,1,474,435.1a40.73,40.73,0,0,1-5.3,9.29,49.23,49.23,0,0,1-6.92,7.47A48,48,0,0,1,444.07,462a40.72,40.72,0,0,1-5.31,1.26c-.93.13-1.88.26-2.79.34s-1.59.07-2.19.08a30,30,0,0,0-3.93.18,7.16,7.16,0,0,0-3,1.53,6.18,6.18,0,0,0-2,2.54,4,4,0,0,0-.39,1.74,7.14,7.14,0,0,0,.14,1.87,4.87,4.87,0,0,0,.64,1.63,6.19,6.19,0,0,0,1.27,1.45,7.58,7.58,0,0,0,1.8,1.07,8.41,8.41,0,0,0,2.07.53,24.71,24.71,0,0,0,2.88,0l3.8-.26c.36,0,.73,0,1.09-.07s.81-.05,1.21-.08l.61-.07c.23,0,.46,0,.69-.05l1.41-.12a21.2,21.2,0,0,1,7.62.8,20.37,20.37,0,0,1,8.21,5.29c.55.57,1,1.07,1.47,1.65.23.28.45.58.68.87l.62.86c.37.52.69,1.07,1,1.63l.49.84.22.43c.07.17.16.44.23.66a20.58,20.58,0,0,1,.74,10.39c-.07.38-.14.75-.23,1.12l-.27,1-.32,1-.33.92c-.23.61-.47,1.22-.71,1.76s-.52,1.13-.78,1.62a32.74,32.74,0,0,1-3.47,5.35,33.78,33.78,0,0,1-3.87,4.09c-5.36,4.78-11.33,7.41-17.21,9.78a78.44,78.44,0,0,1-9.07,3c-.8.19-1.58.36-2.39.51s-1.6.29-2.35.38c-1.54.21-3.06.33-4.56.48a79.42,79.42,0,0,1-8.82.22l-2.15-.06-2.11-.09-4.15-.1c-5.49-.11-10.76-.56-15.9-1s-10.14-.67-15.27-.75c-2.56,0-5.12-.1-7.7,0l-3.88.17-3.89.28a122,122,0,0,1-15.79.63l-6.79-.34c-2.2-.13-4.41-.17-6.64-.24s-4.49-.06-6.75.08c-1.13.07-2.27.16-3.4.29a17,17,0,0,0-1.79.25l-1.87.3c-1.21.18-2.33.45-3.38.7a21.89,21.89,0,0,0-2.87.85,14.14,14.14,0,0,0-2,.94A8.8,8.8,0,0,0,301,533.5c-.72.69-1.5,1.62-2.48,2.67-.48.52-1,1.09-1.62,1.68a22,22,0,0,1-1.95,1.7,39.57,39.57,0,0,1-8.21,5.1A117.69,117.69,0,0,1,271,550.23a62,62,0,0,0-6.61,2.46c-.47.24-1,.46-1.43.7l-1.35.74-3.59,1.92a59.8,59.8,0,0,1-8.39,3.69,34.73,34.73,0,0,1-10.71,2,29.12,29.12,0,0,1-12.17-2.31,26.17,26.17,0,0,1-6-3.61,23.65,23.65,0,0,1-2.74-2.57c-.43-.48-.84-.94-1.26-1.47s-.84-1.15-1.23-1.74a25.83,25.83,0,0,1-3.11-7.16,30.36,30.36,0,0,1-.9-6.74,29.5,29.5,0,0,1,.59-6.17c.19-1,.45-2,.73-2.91s.64-1.88,1-2.8a29.4,29.4,0,0,1,2.93-5.3,22,22,0,0,1,2-2.47,19.41,19.41,0,0,1,2.21-2.23,31.08,31.08,0,0,1,9.67-5.78,64,64,0,0,1,9.14-2.6c2.91-.63,5.67-1.2,8.36-1.69,5.39-1.1,10.6-1.69,15.64-2.45,2.53-.35,5-.7,7.44-1.14s4.8-.85,7.07-1.43a47.48,47.48,0,0,0,6.42-2,23.1,23.1,0,0,0,5-2.68,8.67,8.67,0,0,0,.9-.74l.39-.36.21-.2.28-.28a11.45,11.45,0,0,0,1.48-1.84,4.79,4.79,0,0,0,.91-2.82l-.06,1c.07-1.55,0-.5,0-.78v0a.36.36,0,0,1,0-.11l-.05-.35c-.05-.25-.1-.52-.17-.78a7.21,7.21,0,0,0-.56-1.48,7.31,7.31,0,0,0-.78-1.18c-.08,0-.1,0-.11,0a.25.25,0,0,1-.21-.06,1.44,1.44,0,0,1-.41-.15,3.3,3.3,0,0,1-.63-.2l-.86-.19c-.31-.06-.7-.1-1-.15a28.54,28.54,0,0,0-5.17-.14,98.68,98.68,0,0,0-12.51,1.59c-4.42.76-9,1.69-13.89,2.36a67,67,0,0,1-16.51.65A32.36,32.36,0,0,1,229.46,485c-.28-.14-.53-.26-.83-.43l-.89-.55c-.6-.37-1.18-.76-1.76-1.16a16.91,16.91,0,0,1-1.75-1.46q-.87-.8-1.68-1.65a29.42,29.42,0,0,1-2.94-4.06c-.24-.43-.36-.68-.51-1l-.38-.78c-.25-.51-.43-.94-.63-1.41-2.75-7-3.84-14.23-1.32-22.31a24.21,24.21,0,0,1,7.6-11.33,23.85,23.85,0,0,1,10.22-4.81,41.12,41.12,0,0,1,4.34-.74l3.86-.38,1.73-.16c.51,0,1-.09,1.52-.17A21.18,21.18,0,0,0,249,432a15.76,15.76,0,0,0,2.63-1,11.1,11.1,0,0,0,2.2-1.3,6,6,0,0,0,1.47-1.46,3.22,3.22,0,0,0,.53-1.32,4.26,4.26,0,0,0-1.18-2.68,15.16,15.16,0,0,0-3.63-3.15c-1.59-1.1-3.6-2.14-5.91-3.6a34.37,34.37,0,0,1-7.19-6.28,30.83,30.83,0,0,1-5.32-8.59,27.27,27.27,0,0,1-1.55-5.09,30.23,30.23,0,0,1,1-15.78,31.87,31.87,0,0,1,13-16.42,31.48,31.48,0,0,1,9.68-4.08c.85-.18,1.7-.37,2.55-.51s1.72-.21,2.58-.29l.64-.06.72,0,1.46,0c1,0,1.94.07,2.87.21a31.21,31.21,0,0,1,9.37,2.78c1.24.54,2.32,1.06,3.28,1.52s1.83.89,2.64,1.19c.4.17.78.3,1.16.43s.55.19.85.25a7,7,0,0,0,1.79.2,9.41,9.41,0,0,0,7-3.3,11.53,11.53,0,0,0,2.5-7.7,10.45,10.45,0,0,0-3-7.24c-.94-1-2.35-2.17-4-3.69a45.42,45.42,0,0,1-5.84-6,18.94,18.94,0,0,1-2.31-4.78c-.33-.86-.54-1.74-.78-2.61s-.3-1.68-.42-2.49a42.89,42.89,0,0,1,0-8,25.3,25.3,0,0,0,0-5.6,6.93,6.93,0,0,0-.57-1.91,4.91,4.91,0,0,0-1-1.33,5.23,5.23,0,0,0-3.25-1.16,9.25,9.25,0,0,0-4.23.9,45.65,45.65,0,0,0-4.68,2.79c-.9.61-1.91,1.2-3,1.84-.57.32-1.09.64-1.7,1s-1.2.62-1.88.92a24.11,24.11,0,0,1-10,2.28,20.58,20.58,0,0,1-6-.91c-.49-.16-1-.34-1.45-.52l-.72-.27-.66-.33-1.3-.69a10.53,10.53,0,0,1-1.3-.79,20.58,20.58,0,0,1-7.23-8.85A27.74,27.74,0,0,1,226.5,299a27.07,27.07,0,0,1,1-9.52,20.07,20.07,0,0,1,.85-2.39l.52-1.17.59-1.07.6-1,.65-1a21.26,21.26,0,0,1,1.35-1.78,46.73,46.73,0,0,1,5.6-5.53c1.82-1.55,3.52-3,5-4.37,2.93-2.75,4.58-6,3.81-8.44a3.57,3.57,0,0,0-.77-1.45,2.81,2.81,0,0,0-1.22-.72,4.31,4.31,0,0,0-3.3.43,9,9,0,0,0-2.84,2.67,10.81,10.81,0,0,0-1.1,1.91,6.32,6.32,0,0,0-.4,1.05l-.13.54c0,.06.09,0,.09.2a14,14,0,0,1-.26,2.91,15.46,15.46,0,0,1-1.76,5.09,13.19,13.19,0,0,1-2.73,3.38,13.52,13.52,0,0,1-2.18,1.57c-.41.23-.85.43-1.28.62a11.81,11.81,0,0,1-1.27.46,13.08,13.08,0,0,1-8.34-.3,14.78,14.78,0,0,1-5-3.21,21.36,21.36,0,0,1-3.38-4.24c-1.77-3.06-2.52-5.76-3.56-7.8a9.51,9.51,0,0,0-3.28-4.22,6.81,6.81,0,0,0-.91-.41l-1.54-.72c-1.08-.48-2.21-1-3.4-1.62a22.4,22.4,0,0,1-3.73-2.36,16.9,16.9,0,0,1-3.71-4,14,14,0,0,1-1.48-2.89,14.72,14.72,0,0,1-.86-3.17,12.13,12.13,0,0,1,.47-6.31,11.9,11.9,0,0,1,1.62-3,13,13,0,0,1,1.14-1.32q.68-.65,1.35-1.2a14.16,14.16,0,0,1,5.37-2.39,11.85,11.85,0,0,0,3.36-1.16,5.38,5.38,0,0,0,1.52-1.32,4,4,0,0,0,.58-1.55,6.46,6.46,0,0,0-.07-2.05,5.62,5.62,0,0,0-.74-1.86,3.65,3.65,0,0,0-.56-.65,2.92,2.92,0,0,0-.29-.23l-.17,0c-.24-.08-.86-.33-2-.65a18.2,18.2,0,0,1-1.94-.69,11.74,11.74,0,0,1-3.85-2.49l-.63-.68c-.22-.24-.32-.39-.48-.59a15,15,0,0,1-1.58-2.37,18.44,18.44,0,0,1-1.82-5,22.08,22.08,0,0,1-.48-5,25.71,25.71,0,0,1,.49-4.77,32.29,32.29,0,0,1,3.06-8.61l1.69-3.22c.53-1,1-1.94,1.43-2.8s1-1.57,1.43-2.28a13.89,13.89,0,0,0,1-2,9.07,9.07,0,0,0,.49-1.66c.08-.26.06-.48.12-.73a2,2,0,0,1,0-.35v-.25a1.47,1.47,0,0,0-.07-.62,3.9,3.9,0,0,0-.61-1.06,6.93,6.93,0,0,0-1.58-1.6c-.73-.54-1.6-1.08-2.56-1.71a53.46,53.46,0,0,1-6.77-4.81,24,24,0,0,1-3.7-4.09,19.77,19.77,0,0,1-2.77-5.64,20.12,20.12,0,0,1-.88-6.34,21.26,21.26,0,0,1,.94-5.93,21.77,21.77,0,0,1,2.49-5.41c.29-.45.6-.89.91-1.33s.73-.9,1.13-1.34a15.4,15.4,0,0,1,3.4-2.85,12.49,12.49,0,0,1,1.27-.7,16.55,16.55,0,0,1,1.7-.65,7.24,7.24,0,0,1,1-.26c.39-.08.78-.15,1.18-.2s.81-.07,1.15-.08l.53,0c.35,0,.71.06,1,.11s.74.14,1.11.22a13.9,13.9,0,0,1,2.18.72,12.51,12.51,0,0,1,3.72,2.47,12.26,12.26,0,0,1,2.25,2.9,14.43,14.43,0,0,1,1.18,2.6c.3.8.52,1.5.74,2.17a26.68,26.68,0,0,0,1.27,3.28,6.64,6.64,0,0,0,1.32,1.95,1.7,1.7,0,0,0,.51.31c.13,0,.18,0,.21-.06s0-.11.16-.1h.79c.42,0,.49-.07.39,0s-.18.25,0,.09a4,4,0,0,0,.44-1.3,15.7,15.7,0,0,0,0-5,23.88,23.88,0,0,0-.54-2.7l-.19-.68c-.12-.42-.25-.84-.35-1.27a17.39,17.39,0,0,1-.38-2.56,21.68,21.68,0,0,1,1.41-9c.22-.63.45-1.23.67-1.78.1-.25.26-.62.4-.94l.45-1a26.47,26.47,0,0,1,2.13-3.71,41.48,41.48,0,0,1,5.15-5.93c1.73-1.68,3.34-3.16,4.7-4.67a22.44,22.44,0,0,0,3.34-4.69,21.2,21.2,0,0,0,2-5.51c.48-2.07.85-4.3,1.27-6.61a58,58,0,0,1,1.65-7.23,17.4,17.4,0,0,1,4.28-7.48,12.25,12.25,0,0,1,4-2.58,15.06,15.06,0,0,1,2.25-.69,12.9,12.9,0,0,1,2.28-.24,26.38,26.38,0,0,1,7.71,1.36,51.24,51.24,0,0,0,6.4,1.42,37.51,37.51,0,0,0,12.86,0,18.88,18.88,0,0,0,10.73-5.69,17.83,17.83,0,0,0,3.17-5.3,25.64,25.64,0,0,0,.93-3c.24-1,.39-2.13.55-3.27A23.47,23.47,0,0,1,291.25,54a10.59,10.59,0,0,1,2.34-3.23,7.31,7.31,0,0,1,3.71-1.91,7.22,7.22,0,0,1,4.11.48,9.46,9.46,0,0,1,3.22,2.27,13.26,13.26,0,0,1,3.05,6.77,46.68,46.68,0,0,1,.55,7,58.24,58.24,0,0,1-.36,7A72.47,72.47,0,0,1,304.93,86a47.17,47.17,0,0,1-6,12.49,30.79,30.79,0,0,1-4.56,5.24,22.13,22.13,0,0,1-5.93,3.61,62.49,62.49,0,0,0-6.24,3A17.32,17.32,0,0,0,277,114.78Zm0,0a17.28,17.28,0,0,1,5.06-4.72,66.76,66.76,0,0,1,6.17-3.19,21.4,21.4,0,0,0,5.64-3.69,29.91,29.91,0,0,0,4.27-5.24,46,46,0,0,0,5.45-12.38c.64-2.18,1.11-4.39,1.53-6.61s.76-4.46.94-6.71a54.67,54.67,0,0,0,.18-6.77,42.82,42.82,0,0,0-.68-6.67A11,11,0,0,0,303,53.2a5.83,5.83,0,0,0-5.15-1.93c-1.8.33-3.28,1.93-4.13,3.8a20.55,20.55,0,0,0-1.36,6.38,23.73,23.73,0,0,1-5,13.35,22.13,22.13,0,0,1-12.39,7.09,40.9,40.9,0,0,1-14.12.44A55.47,55.47,0,0,1,253.86,81a23.48,23.48,0,0,0-6.53-1.06,8.11,8.11,0,0,0-1.56.19,10.14,10.14,0,0,0-1.47.49,7.75,7.75,0,0,0-2.56,1.7,12.83,12.83,0,0,0-3,5.65c-1.22,4.32-1.54,9-2.47,13.54a26,26,0,0,1-6.09,12.65c-3,3.58-6.68,6.49-9.14,10.28a23.83,23.83,0,0,0-2.81,6.12,16.5,16.5,0,0,0-1,6.57,11,11,0,0,0,.28,1.62c.14.52.32,1,.5,1.63a27,27,0,0,1,.83,3.42,22.81,22.81,0,0,1,.25,7.05,11,11,0,0,1-1.06,3.44,6.4,6.4,0,0,1-2.52,2.64,7.28,7.28,0,0,1-3.51.88,13.23,13.23,0,0,1-1.79-.12,6.84,6.84,0,0,1-1.76-.47,7.81,7.81,0,0,1-2.86-2.15,18.18,18.18,0,0,1-2-2.89,31.23,31.23,0,0,0-3.74-5.73,6.1,6.1,0,0,0-2.74-1.74,5.77,5.77,0,0,0-1.61-.18,2.43,2.43,0,0,0-1.43.48,8.06,8.06,0,0,0-2.23,2.41,13.73,13.73,0,0,0-1.42,3.06,12,12,0,0,0-.35,6.67,12.8,12.8,0,0,0,3.41,5.81c3.19,3.3,7.4,5.49,10.55,8.91a11.18,11.18,0,0,1,3,6.14,15.58,15.58,0,0,1-.75,6.84c-1.46,4.41-4.3,8.15-6.75,12S195.49,205.36,196,210a9.5,9.5,0,0,0,2.86,6.13c1.81,1.46,4.23,1.88,6,3.4a9.42,9.42,0,0,1,2.89,6.11,9.26,9.26,0,0,1-1.66,6.56c-1.44,1.85-3.68,2.75-5.62,3.95a8.94,8.94,0,0,0-2.6,2.26,7.93,7.93,0,0,0-1.32,3.17,9.92,9.92,0,0,0,1.16,6.68,19.55,19.55,0,0,0,4.68,5.05c.89.72,1.81,1.42,2.73,2.13a23.34,23.34,0,0,1,2.65,2.21,24,24,0,0,1,3.82,5.74,26.35,26.35,0,0,0,3.75,5.79,12.91,12.91,0,0,0,5.81,3.61,6,6,0,0,0,3.41,0,4.83,4.83,0,0,0,2.6-2.17c1.2-2,1.67-4.29,2.59-6.4a18,18,0,0,1,4.16-5.48,13.35,13.35,0,0,1,6-3.22,9.9,9.9,0,0,1,6.72.86,7.93,7.93,0,0,1,4,5.36,10.19,10.19,0,0,1,.19,3.44,12.38,12.38,0,0,1-.9,3.32,21.6,21.6,0,0,1-3.74,5.79c-3,3.5-6.63,6.45-9.3,10.23a16.19,16.19,0,0,0-2.81,6.26,18.56,18.56,0,0,0,0,6.89,21.51,21.51,0,0,0,2.25,6.51,13.74,13.74,0,0,0,4.53,5.13,12.7,12.7,0,0,0,6.56,1.9,19.33,19.33,0,0,0,6.74-1.4c4.32-1.59,8.34-4,12.86-5.05a18.1,18.1,0,0,1,6.88-.22,13,13,0,0,1,6.25,2.76,13.44,13.44,0,0,1,2.31,2.57A16.16,16.16,0,0,1,284.1,313a34.47,34.47,0,0,1,1.66,6.71c.39,2.27.73,4.56,1.34,6.78a19.59,19.59,0,0,0,3,6.22c2.69,3.76,6.35,6.71,9,10.53,5.25,7.62,4.76,18.79-1.45,25.73a19.28,19.28,0,0,1-12.05,6.19,18.47,18.47,0,0,1-6.86-.57c-2.24-.56-4.4-1.36-6.61-2a24.49,24.49,0,0,0-6.78-1.28,15.28,15.28,0,0,0-3.44.29l-1.69.36c-.56.15-1.1.34-1.65.51a23.6,23.6,0,0,0-6.14,3.14,25.58,25.58,0,0,0-5,4.78,23.46,23.46,0,0,0-4.85,12.75,21.68,21.68,0,0,0,.58,6.86,22.85,22.85,0,0,0,2.7,6.35,23.41,23.41,0,0,0,4.45,5.27c1.73,1.52,3.57,2.92,5.28,4.47a20.22,20.22,0,0,1,4.38,5.32,9.78,9.78,0,0,1,1.23,6.66,11.07,11.07,0,0,1-3.58,5.79,25.44,25.44,0,0,1-5.72,3.86c-4.09,2.16-8.65,3.21-12.76,5.33a18.16,18.16,0,0,0-5.56,4.06,13.42,13.42,0,0,0-3,6.12A23.87,23.87,0,0,0,232,466.7a16,16,0,0,0,.74,1.57c.31.48.66.94,1,1.4a15.58,15.58,0,0,0,1.29,1.15,12.26,12.26,0,0,0,1.46.91,20.58,20.58,0,0,0,6.61,1.95,77.77,77.77,0,0,0,13.82.36c9.21-.36,18.42-1.43,27.65-.9a40.41,40.41,0,0,1,6.84,1,16.88,16.88,0,0,1,6.31,2.74c.44.37.86.77,1.29,1.15s.73.9,1.09,1.35a16.25,16.25,0,0,1,2.62,9.86h0a14.1,14.1,0,0,1-2.92,7,22.6,22.6,0,0,1-5.57,5.16,32.1,32.1,0,0,1-6.88,3.26,62.57,62.57,0,0,1-7.35,2c-10,2.2-20.14,3.05-30.08,5.28A52.79,52.79,0,0,0,235.57,517a23.13,23.13,0,0,0-5.92,4.77,12.08,12.08,0,0,0-1.17,1.5,12.89,12.89,0,0,0-1,1.6,20.91,20.91,0,0,0-1.54,3.49,22,22,0,0,0-1.22,7.49,14.31,14.31,0,0,0,1.93,7.29,13.6,13.6,0,0,0,5.68,4.94,19.12,19.12,0,0,0,7.35,1.85c5.12.29,10.12-1.23,14.84-3.07,2.37-.92,4.68-2,7.11-2.76s4.88-1.44,7.35-2.07a89.24,89.24,0,0,0,14.56-4.52,28.11,28.11,0,0,0,6.5-4,52.79,52.79,0,0,0,5.31-5.47,18.44,18.44,0,0,1,2.86-2.51,20.17,20.17,0,0,1,3.38-1.78,52.81,52.81,0,0,1,7.27-2.28c2.47-.62,4.94-1.26,7.44-1.73s5-.81,7.56-1a79.29,79.29,0,0,1,15.25.12c5.07.45,10.15.75,15.24,1,10.17.43,20.35.53,30.53.77s20.43.21,30.39-2a60.12,60.12,0,0,0,7.32-2.14,57.11,57.11,0,0,0,6.94-3.17,53.43,53.43,0,0,0,12.25-9,29.58,29.58,0,0,0,4.7-6,11.36,11.36,0,0,0,1.73-7.27c-.11-.63-.31-1.24-.46-1.85a15.84,15.84,0,0,0-.72-1.76,7.74,7.74,0,0,0-2.53-2.8,10,10,0,0,0-3.58-1.23,26.87,26.87,0,0,0-3.81-.21,58.71,58.71,0,0,1-7.62-.15,15.63,15.63,0,0,1-7-2.79,13.82,13.82,0,0,1-4.72-5.89,15,15,0,0,1-1-7.48,14.45,14.45,0,0,1,2.87-7,17.06,17.06,0,0,1,5.77-4.91,19.5,19.5,0,0,1,7.35-1.9,26.16,26.16,0,0,0,7.42-1.64A35.52,35.52,0,0,0,452.68,443a36.59,36.59,0,0,0,8.23-12.72,35.52,35.52,0,0,0,1.11-3.64,37,37,0,0,0,.62-3.77,33.39,33.39,0,0,0,0-7.61,33.82,33.82,0,0,0-1.65-7.43,31.62,31.62,0,0,0-3.25-6.88,28.53,28.53,0,0,0-11.07-10.23A27,27,0,0,0,432,387.34a11.84,11.84,0,0,0-3.72.79,11,11,0,0,0-3.12,2.16c-1.83,1.76-3.26,3.9-5.07,5.7a13.83,13.83,0,0,1-3,2.31,12.43,12.43,0,0,1-3.58,1.31,10,10,0,0,1-7.37-1.16,7.79,7.79,0,0,1-2.54-2.81,10.14,10.14,0,0,1-1.08-3.64,20.52,20.52,0,0,1,.87-7.55c.7-2.45,1.57-4.85,2.1-7.34a13.63,13.63,0,0,0-.21-7.52,23.1,23.1,0,0,0-4.15-6.36c-1.57-2-3.17-4.1-3.52-6.66a7.81,7.81,0,0,1,.43-3.77,14.25,14.25,0,0,1,1.82-3.34c.71-1.06,1.56-2,2.31-3a11.73,11.73,0,0,0,1.82-3.33,14.07,14.07,0,0,0,.29-7.51c-.5-2.5-1.27-4.93-1.88-7.4a45.15,45.15,0,0,0-6.05-13.93A57.34,57.34,0,0,0,386.08,303c-3.79-3.39-7.75-6.6-11.32-10.24a51.86,51.86,0,0,1-4.93-5.83,61.85,61.85,0,0,1-4-6.5,128.43,128.43,0,0,1-6.06-14c-1.8-4.76-3.55-9.55-5.67-14.18a66.71,66.71,0,0,0-3.58-6.73,57.71,57.71,0,0,0-4.42-6.21,45.65,45.65,0,0,0-5.37-5.4,32.19,32.19,0,0,0-6.4-4.12,24.3,24.3,0,0,0-7.27-2.16,30.76,30.76,0,0,0-7.61,0,58.82,58.82,0,0,1-7.62.46,16.1,16.1,0,0,1-7.34-1.91,8.85,8.85,0,0,1-4.59-5.83,10.45,10.45,0,0,1,1.52-7.34,32,32,0,0,1,4.67-6l5.26-5.54,10.52-11.07L332.4,179.3a118.79,118.79,0,0,0,10-11.49A36.16,36.16,0,0,0,349,154.17a23.94,23.94,0,0,0-1.58-14.89,14.62,14.62,0,0,0-2.12-3.15,16.11,16.11,0,0,0-2.9-2.44,25.83,25.83,0,0,0-6.94-3.07,72.85,72.85,0,0,0-15.06-2.24,136.3,136.3,0,0,0-15.26-.24A102.75,102.75,0,0,0,290,129.77c-2.5.52-4.69,2-7.25,2.36a6.2,6.2,0,0,1-3.71-.7,9.06,9.06,0,0,1-2.87-2.5,10.18,10.18,0,0,1-2-7.19A14,14,0,0,1,277,114.76Z"/><path d="M147.43,160a47.24,47.24,0,0,0,.53,8,21.83,21.83,0,0,0,2.71,7.44c.32.58.7,1.12,1.06,1.67s.78,1.07,1.22,1.56a25.18,25.18,0,0,0,2.75,2.81,23.72,23.72,0,0,0,3.15,2.33,23.15,23.15,0,0,0,3.47,1.69c.59.21,1.22.43,1.79.57a7.57,7.57,0,0,0,1.77.2,6.24,6.24,0,0,0,3.2-.81c1.8-1.07,2.34-3.23,2.25-5.61a55.65,55.65,0,0,0-1.14-7.59l-1.61-7.85a86.84,86.84,0,0,1-2.1-16.67,41.23,41.23,0,0,1,1-8.92,51.05,51.05,0,0,1,2.6-8.48,57.83,57.83,0,0,1,3.92-7.93c.77-1.26,1.58-2.52,2.44-3.73l.66-.91c.22-.3.51-.65.76-1,.53-.68,1.09-1.26,1.65-1.86,4.52-4.63,9.22-7.41,12.06-10.4a12.86,12.86,0,0,0,3-4.32,10.92,10.92,0,0,0,.73-4.84,9.8,9.8,0,0,0-.47-2.23,6.61,6.61,0,0,0-1.06-2,6.4,6.4,0,0,0-3.18-2.48,9.5,9.5,0,0,0-5.11,0,21.3,21.3,0,0,0-6,2.55A26.91,26.91,0,0,0,174,95.66a59.77,59.77,0,0,0-5,5.72,116.82,116.82,0,0,0-8.57,13.17,99.91,99.91,0,0,0-6.95,14.26A89.21,89.21,0,0,0,147.43,160Zm0,0a128.27,128.27,0,0,1,4.4-31.75A139.3,139.3,0,0,1,157,112.87a127.54,127.54,0,0,1,6.6-15A65.36,65.36,0,0,1,168,90.64a33.83,33.83,0,0,1,6-6.73,29.39,29.39,0,0,1,8.13-5c.77-.3,1.6-.54,2.41-.81s1.71-.38,2.59-.55,1.82-.2,2.77-.19a20.41,20.41,0,0,1,2.89.26,15.41,15.41,0,0,1,2.89.77,14.1,14.1,0,0,1,2.75,1.29l1.29.8a11.45,11.45,0,0,1,1.14.92,14.68,14.68,0,0,1,2.06,2,21.87,21.87,0,0,1,1.74,2.24,13.59,13.59,0,0,1,.76,1.26,14.32,14.32,0,0,1,.65,1.3,19.68,19.68,0,0,1,1.6,5.47,22.55,22.55,0,0,1-1.11,10.91,25.46,25.46,0,0,1-5.77,9c-4.71,4.6-9.41,7.22-12.47,10.14-.37.36-.76.72-1.07,1.09-.17.19-.33.33-.52.55l-.57.68c-.76.9-1.48,1.85-2.17,2.81a58.47,58.47,0,0,0-3.79,6.09,42.11,42.11,0,0,0-4.69,13.36,83.27,83.27,0,0,0-.52,15.28l.31,8a63.81,63.81,0,0,1-.12,8.37,12.43,12.43,0,0,1-1.3,4.48,7.65,7.65,0,0,1-3.59,3.36c-3,1.31-6.29.5-8.7-.78a26.88,26.88,0,0,1-11.33-11.46,23.53,23.53,0,0,1-2.43-7.64A46.48,46.48,0,0,1,147.43,160Z"/><path d="M146,297.65a57.69,57.69,0,0,1,5.86-5.29c2.06-1.64,4.16-3.24,6.34-4.73,4.33-3,8.82-5.82,13.24-8.68,2.23-1.4,4.34-2.93,6.59-4.4a35,35,0,0,1,7.4-3.87,16.88,16.88,0,0,1,9.07-.75,21.68,21.68,0,0,1,8.38,3.79,32.67,32.67,0,0,1,6.41,6.23,55,55,0,0,1,4.79,7.14l2,3.57c.65,1.18,1.28,2.38,1.89,3.59,1.22,2.43,2.43,4.9,3.49,7.46a72.13,72.13,0,0,1,5,16.41,37.32,37.32,0,0,1,.34,9.59,22.18,22.18,0,0,1-4,10.68c-.32.42-.67.82-1,1.22a9.87,9.87,0,0,1-1.11,1.13c-.39.36-.78.72-1.19,1.05l-1.28.9a10.6,10.6,0,0,1-1.31.79l-1.34.7c-.86.36-1.71.68-2.58,1a27,27,0,0,1-10.3,1.15,35.12,35.12,0,0,1-9.36-2,41,41,0,0,1-8.26-4c-.66-.39-1.29-.83-1.91-1.27s-1.24-.91-1.84-1.39a40.39,40.39,0,0,1-3.37-3.05,32.17,32.17,0,0,0-4.63-4.33,4.39,4.39,0,0,0-1.65-.68,4.57,4.57,0,0,0-2.16.22,8.42,8.42,0,0,0-2.45,1.29,27.91,27.91,0,0,0-2.67,2.31c-.94.89-1.86,1.83-2.92,2.81A23.64,23.64,0,0,1,158,339a14.08,14.08,0,0,1-2.22,1.15,10.8,10.8,0,0,1-2.58.62l-.66.07-.66,0c-.44,0-.88,0-1.3-.11a12.15,12.15,0,0,1-2.35-.72l-1.08-.47-1-.59a12.62,12.62,0,0,1-1.83-1.29,17,17,0,0,1-3-3.23,24.32,24.32,0,0,1-3.42-7.56,32.37,32.37,0,0,1-1.3-8,26.13,26.13,0,0,1,1.06-7.93,27.64,27.64,0,0,1,3.38-7.16A37.55,37.55,0,0,1,146,297.65Zm0,0a38.15,38.15,0,0,0-4.86,6.2,25.24,25.24,0,0,0-3,7.22,22.62,22.62,0,0,0-.45,7.73,26.81,26.81,0,0,0,2,7.41,19.86,19.86,0,0,0,3.92,6.33,12.1,12.1,0,0,0,2.73,2.2,9.1,9.1,0,0,0,1.54.74l.79.32.79.19a6,6,0,0,0,1.48.19c.23,0,.45-.06.67-.08l.33,0,.31-.11a6.24,6.24,0,0,0,1.18-.54,9.31,9.31,0,0,0,1.13-.92,18.05,18.05,0,0,0,2.21-2.56c.73-1,1.48-2.06,2.27-3.15a36.25,36.25,0,0,1,2.76-3.41,16.24,16.24,0,0,1,4-3.2,14,14,0,0,1,5.43-1.77,13.16,13.16,0,0,1,6,.84,21.67,21.67,0,0,1,4.61,2.51c1.28.88,2.4,1.78,3.39,2.53.5.38,1,.72,1.41,1s.89.6,1.38.87.95.56,1.44.81,1,.53,1.48.76a31,31,0,0,0,12.33,3.1,15.45,15.45,0,0,0,5.28-.81c.36-.16.74-.31,1.09-.45a7.84,7.84,0,0,0,.77-.47,5.26,5.26,0,0,0,1.13-1.07c1.33-1.55,1.94-5.71,1.45-10.15a80,80,0,0,0-3-14.1c-1.39-4.79-3.09-9.71-4.84-14.51-1.7-4.64-3.75-9-6.87-12.23a15.52,15.52,0,0,0-5.35-3.76,11.5,11.5,0,0,0-6.52-.58,28.15,28.15,0,0,0-7,2.42c-2.34,1.1-4.72,2.32-7.09,3.49-4.74,2.31-9.43,4.69-13.91,7.43A64.67,64.67,0,0,0,146,297.65Z"/></svg>