<svg id="Layer_1" data-name="Layer 1" xmlns="http://www.w3.org/2000/svg" viewBox="0 0 600 600"><title>Uruguay</title><path d="M171.16,61.33A115.29,115.29,0,0,0,182,54.75a45.36,45.36,0,0,1,5.57-3.15,32.93,32.93,0,0,1,6.14-2.1,21.72,21.72,0,0,1,13.08,1.13,39.72,39.72,0,0,1,10.91,7.23,405.93,405.93,0,0,1,36.66,35.56l2.15,2.37c.71.8,1.41,1.56,2.18,2.48,1.47,1.75,2.79,3.51,4.07,5.26,2.55,3.51,4.94,7,7.37,10.37s4.87,6.66,7.45,9.66a43.47,43.47,0,0,0,8,7.56,12.84,12.84,0,0,0,3.75,1.81,10.7,10.7,0,0,0,7.32-.78,8.58,8.58,0,0,0,1.52-.93,10.19,10.19,0,0,0,1.35-1.21c1-1,2.25-2.59,4-4.47a27.2,27.2,0,0,1,3.22-3,20.8,20.8,0,0,1,2.1-1.44l.58-.33a7.65,7.65,0,0,1,.76-.38c.55-.25,1.11-.48,1.67-.7a16.88,16.88,0,0,1,6.71-.72,21.24,21.24,0,0,1,5.3,1.27,32.57,32.57,0,0,1,7.55,4.09,75.88,75.88,0,0,1,10.77,9.45c3.15,3.27,6.08,6.59,8.89,9.79l2.06,2.34c.68.76,1.35,1.47,1.93,2l2.14,2.09,2.27,2.16c1.49,1.42,3,2.77,4.52,4.09l2.25,1.92,2.29,1.8c6.1,4.67,12.34,7.92,18.21,9.17.74.15,1.46.34,2.19.43s1.43.24,2.21.3,1.59.14,2.4.21l2.68.14,6.08.25c2.23.12,4.53.23,7.12.55,1.24.13,2.63.36,4,.57.69.11,1.41.28,2.11.44l1.06.24,1.1.31a41.67,41.67,0,0,1,9.12,3.62,36.66,36.66,0,0,1,4.52,2.93,33.41,33.41,0,0,1,4.11,3.54,51.22,51.22,0,0,1,5.91,7.27c1.53,2.27,2.75,4.32,3.79,6,.54.88,1,1.64,1.47,2.36s.93,1.44,1.39,2.16a90.07,90.07,0,0,0,6.46,8.51,186.94,186.94,0,0,0,16.38,16.74l9.3,8.56,4.78,4.45c1.6,1.51,3.4,3.24,5.23,5.2a46.42,46.42,0,0,1,5.45,7,34,34,0,0,1,4.21,9.72,5.61,5.61,0,0,1,.14.57l.09.45.19.9.35,1.8c.25,1.2.4,2.38.6,3.56a45.55,45.55,0,0,1,.66,6.79c0,1.06,0,2.07.05,3.06l.07,1.35,0,1.26,0,1.19c0,.32,0,.64,0,1v.9c0,.25,0,.58,0,.81a3.49,3.49,0,0,0,1.09,2.55,7.73,7.73,0,0,0,1.48,1,16.68,16.68,0,0,0,2.07.66,18.58,18.58,0,0,0,2.46.31h1.39l1.39-.07c.24,0,.45,0,.71-.06l1,0,2,0c1.33,0,2.71.07,4.1.16,5.57.36,11.61,1.49,17.46,5.9a30.82,30.82,0,0,1,8.24,9.69A31.23,31.23,0,0,1,547,308.1a33.94,33.94,0,0,1,1.35,3.95,31.59,31.59,0,0,1,1.07,8.72,31,31,0,0,1-1.36,8.32c-.2.63-.41,1.25-.63,1.87s-.48,1.14-.72,1.71-.51,1.12-.78,1.64l-.82,1.49a27.71,27.71,0,0,1-1.73,2.72,27.42,27.42,0,0,1-1.83,2.33l-.93,1.09-.93,1c-.62.63-1.24,1.27-1.85,1.8a47.44,47.44,0,0,1-7.4,5.39,55.32,55.32,0,0,1-7.08,3.57c-4.51,1.93-8.48,3.21-11.94,4.49-1.73.63-3.3,1.3-4.75,2a25.61,25.61,0,0,0-4,2.44,24.76,24.76,0,0,0-6.38,7.34,31.41,31.41,0,0,0-2.06,4.58c-.22.81-.5,1.6-.66,2.43s-.32,1.64-.38,2.48a19.69,19.69,0,0,0,1.52,9.64,52.23,52.23,0,0,0,5.51,9.12l3.43,4.87c1.17,1.7,2.34,3.5,3.54,5.42a137.09,137.09,0,0,1,7.41,13.15l.88,1.92.83,2.07c.28.69.56,1.38.82,2.1l.71,2.24c.23.76.49,1.49.67,2.28l.54,2.4a44.25,44.25,0,0,1,.82,4.94,55.38,55.38,0,0,1-1.15,19.24,61.89,61.89,0,0,1-6.07,15.72l-.93,1.71-1,1.6c-.66,1.09-1.29,2.1-2,3.11l-2,2.9-2,2.76-4,5.12c-1.35,1.69-2.8,3.38-4.25,5.11a133.63,133.63,0,0,1-20.71,19.76,103.12,103.12,0,0,1-12.65,8.34A123.26,123.26,0,0,1,450,531.29c-8.76,3.62-17.26,6.43-25.5,9.22-4.13,1.37-8.16,2.74-12.1,4.33s-7.92,3.35-11.95,5.2-8.21,3.63-12.64,5.11c-2.22.72-4.49,1.4-6.83,1.93-1.16.29-2.38.47-3.57.68s-2.43.37-3.66.5a52.06,52.06,0,0,1-15.24-.3l-1.92-.38-1.88-.49c-.64-.16-1.18-.6-1.79-.74s-1.27-.18-1.91-.26a54.72,54.72,0,0,1-7.47-1.16c-4.67-1.35-8.92-2.94-12.86-4.16a60.2,60.2,0,0,0-10.78-2.5,24.55,24.55,0,0,0-4.4-.12c-.7.07-1.38.12-2.06.21s-1.34.17-2,.34a32.91,32.91,0,0,0-7.52,2.51,37.17,37.17,0,0,0-6.24,3.82c-.46.33-.87.73-1.32,1.05s-.82.74-1.21,1.1c-.18.2-.38.37-.57.55l-.65.6L292.11,560a65.37,65.37,0,0,1-14.2,10.16,42.71,42.71,0,0,1-14.12,4.23,30.6,30.6,0,0,1-4.2.22,38.46,38.46,0,0,1-4.27-.24,41.21,41.21,0,0,1-7.84-1.72,46.27,46.27,0,0,1-6.27-2.7,43.33,43.33,0,0,1-4.83-2.92,57.41,57.41,0,0,1-6.49-5.23c-3.12-2.88-6.09-5.94-9-9.08s-5.76-6.4-8.57-9.68l-8.46-9.84c-2.86-3.27-5.64-6.45-8.48-9.4s-5.73-5.69-8.63-8.31-5.84-5.12-8.91-7.38a43.7,43.7,0,0,0-9.78-5.57,35.08,35.08,0,0,0-22.22-.7,51.51,51.51,0,0,0-5.6,1.93,33.72,33.72,0,0,0-5.09,2.45c-2.9,1.7-6.38,4.23-11.27,6.32a34.2,34.2,0,0,1-8.71,2.47c-.87.1-1.74.21-2.62.25s-1.84,0-2.77,0-1.9-.14-2.85-.25a26.3,26.3,0,0,1-2.86-.57,32.77,32.77,0,0,1-9.91-4.3,39.6,39.6,0,0,1-7.39-6,50.08,50.08,0,0,1-5.4-6.55,59.65,59.65,0,0,1-4.08-6.69,85.87,85.87,0,0,1-5.67-13.42,174.17,174.17,0,0,1-6.18-26.64c-.75-4.48-1.28-9-1.76-13.4s-.88-8.86-1.2-13.26-.54-8.78-.93-13.13-1-8.71-1.71-13.06-1.48-8.71-2-13.05c-.15-1.1-.25-2.16-.36-3.28s-.14-2.33-.18-3.64,0-2.7.18-4.2a39.83,39.83,0,0,1,.81-4.78A32.68,32.68,0,0,1,60,363.8a30.77,30.77,0,0,1,6.17-8.9c.56-.59,1.08-1.08,1.64-1.59s1.09-.95,1.6-1.36c1-.87,2-1.57,3-2.23s1.78-1.22,2.55-1.7,1.48-.95,2.11-1.34,1.14-.77,1.75-1.14a24.06,24.06,0,0,0,3.32-2.85c.56-.52,1-1.15,1.57-1.75s1-1.28,1.41-2a29.1,29.1,0,0,0,4.07-9.63,43.28,43.28,0,0,0,1.07-11.1,71.84,71.84,0,0,0-1.34-11.77c-1.6-8-3.69-16.22-5.25-25.12-1.71-8.8-3.66-17.77-3.47-26.7,0-2.23.21-4.44.39-6.66l.44-3.29c.17-1.09.34-2.19.54-3.27a97.65,97.65,0,0,1,3.53-12.79c.72-2.1,1.45-4.18,2.22-6.24s1.44-4.13,2.19-6.18q2.12-6.17,3.58-12.35c1-4.14,1.87-8.27,2.69-12.43.44-2.08.79-4.21,1.23-6.35s.92-4.3,1.49-6.47a48.27,48.27,0,0,1,5.23-12.89c.29-.52.64-1,1-1.52s.68-1,1-1.48c.73-1,1.5-1.85,2.28-2.72a57.54,57.54,0,0,1,4.85-4.7l4.74-4.12a52.23,52.23,0,0,0,4.21-4,21,21,0,0,0,5.12-9.11,10.63,10.63,0,0,0,.14-4.68,10.47,10.47,0,0,0-2-4.23c-2.1-2.74-5.63-5-9-8a32.78,32.78,0,0,1-2.49-2.39,28.85,28.85,0,0,1-2.22-2.81,24.09,24.09,0,0,1-2.88-6.44,28.23,28.23,0,0,1-.85-6.81,32.89,32.89,0,0,1,.83-6.66,33.7,33.7,0,0,1,2.16-6.25,32.42,32.42,0,0,1,3.29-5.68,31.21,31.21,0,0,1,2-2.53c.71-.8,1.34-1.67,2.11-2.42l2.31-2.26.58-.56.64-.5,1.27-1,1.27-1,1.38-.84a19.81,19.81,0,0,1,2.82-1.54,34.36,34.36,0,0,1,6-2.17,78.7,78.7,0,0,1,12.57-1.74,80.87,80.87,0,0,0,12.51-1.77c.52-.13,1-.22,1.54-.37l1.51-.47a23.93,23.93,0,0,0,3-1c1-.4,2-.78,2.93-1.21S170.26,61.87,171.16,61.33Zm.05.09a52,52,0,0,1-11.69,5A79.29,79.29,0,0,1,147,68.72l-3.14.41c-1,.14-2.06.33-3.09.45s-2,.37-3.05.55-2,.5-3,.74a32.66,32.66,0,0,0-5.63,2.23,18.32,18.32,0,0,0-2.61,1.52l-1.28.82-1.17,1-1.17,1-.58.49-.54.55-2.12,2.21c-.7.74-1.28,1.6-1.93,2.39a30.25,30.25,0,0,0-1.84,2.46,31.7,31.7,0,0,0-4.6,11.14,29.65,29.65,0,0,0-.52,6,25.58,25.58,0,0,0,1,5.91,20.68,20.68,0,0,0,2.6,5.32,24.14,24.14,0,0,0,1.92,2.26,25.89,25.89,0,0,0,2.26,2c3.17,2.59,7,4.76,9.91,8.15a14.68,14.68,0,0,1,3.15,6,15.12,15.12,0,0,1,.11,6.69,25.74,25.74,0,0,1-5.91,11.56,97.83,97.83,0,0,1-9.26,8.77,44.25,44.25,0,0,0-8.36,9.22,43,43,0,0,0-5,11.42,121.71,121.71,0,0,0-2.7,12.32L98.23,204.7c-2.76,16.65-5.15,33.39-5.69,50.27a180.85,180.85,0,0,0,.84,25.28c.86,8.4,2.6,16.68,3.76,25.05s1.86,16.85.66,25.23-4.09,16.61-9.6,23.07c-2.73,3.24-6.18,5.74-9.27,8.61a28.14,28.14,0,0,0-4.21,4.71,18,18,0,0,0-2.59,5.74c-1.07,4.1-1,8.37-1.18,12.58s-.18,8.44-.16,12.66c.06,16.87,1.33,33.84,5.36,50.26A164.46,164.46,0,0,0,84,472.23a94,94,0,0,0,5.62,11.33,51.65,51.65,0,0,0,7.59,10.1,24.52,24.52,0,0,0,10.66,6.56,19,19,0,0,0,6.28.55,32.94,32.94,0,0,0,6.22-1.16c4.07-1.11,8-2.71,12.08-3.79a107.21,107.21,0,0,1,12.46-2.2A66.71,66.71,0,0,1,170,495a83.78,83.78,0,0,1,23,10.44c7.17,4.47,13.9,9.58,20.66,14.64l20.28,15.17,10.14,7.59c3.37,2.51,6.82,5.08,10.86,6.39a17.2,17.2,0,0,0,3.09.67,13.92,13.92,0,0,0,1.58.07,10.39,10.39,0,0,0,1.58-.09,18.3,18.3,0,0,0,6-1.82c3.8-1.86,7.09-4.57,10.45-7.11a49.1,49.1,0,0,1,22.88-10.21,48.31,48.31,0,0,1,24.92,2.45c7.94,2.92,15.13,7.48,22.85,10.88a51.93,51.93,0,0,0,12,3.88,48,48,0,0,0,12.61.57c8.44-.69,16.6-3.22,24.45-6.28,3.93-1.54,7.8-3.22,11.66-4.92s7.72-3.43,11.55-5.2a191.89,191.89,0,0,0,22.35-11.88,96.38,96.38,0,0,0,19.48-16.07,167.77,167.77,0,0,0,15.52-20c2.37-3.49,4.7-7,7-10.54s4.57-7.1,6.62-10.79a69.74,69.74,0,0,0,5.23-11.51,39.06,39.06,0,0,0,.65-24.88A95.86,95.86,0,0,0,493,414.62c-3.35-7.73-7.13-15.4-8.62-23.76a41.65,41.65,0,0,1-.26-12.61,43.53,43.53,0,0,1,3.36-12.16,44.36,44.36,0,0,1,6.64-10.74,49.28,49.28,0,0,1,9.46-8.37c3.46-2.42,7.09-4.59,10.59-6.94a53.7,53.7,0,0,0,9.74-8,24,24,0,0,0,3.67-5.13,13.26,13.26,0,0,0,1.57-6.06,12.1,12.1,0,0,0-1.69-6,20.58,20.58,0,0,0-4-4.85,45.23,45.23,0,0,0-10.62-6.81c-1.9-.92-3.86-1.7-5.81-2.52l-2.9-1.26-2.81-1.46c-.91-.53-1.79-1.13-2.68-1.69s-1.68-1.28-2.44-2a16.81,16.81,0,0,1-2.09-2.37,17.75,17.75,0,0,1-1.67-2.69c-1.83-3.83-2.42-8.09-3.11-12.23a113.51,113.51,0,0,0-2.53-12.4c-1.15-4.09-3.82-7.55-6.75-10.54s-6.24-5.68-9.44-8.44l-9.65-8.2A207,207,0,0,1,442.56,220a107.44,107.44,0,0,1-8-9.82c-2.48-3.42-4.53-7.13-6.92-10.6a34.83,34.83,0,0,0-4-4.89,20.22,20.22,0,0,0-2.4-2,23.13,23.13,0,0,0-2.64-1.74,37.57,37.57,0,0,0-12-3.89c-4.16-.73-8.37-1.12-12.55-1.72a54.53,54.53,0,0,1-12.28-3c-7.94-3-14.86-8.14-21-13.89-3.09-2.88-6-5.93-8.91-9l-4.3-4.64c-1.4-1.58-2.73-3.23-4.08-4.85-2.68-3.26-5.39-6.5-8.26-9.59a71.71,71.71,0,0,0-9.25-8.61,24.79,24.79,0,0,0-5.44-3.19,12.22,12.22,0,0,0-3-.84,8.2,8.2,0,0,0-3.12.24,14.91,14.91,0,0,0-5.15,3.55c-1.51,1.47-2.9,3.07-4.47,4.48A18,18,0,0,1,287,139.53a20.76,20.76,0,0,1-5.49-3.13,50.72,50.72,0,0,1-8.7-9.17c-2.58-3.35-4.92-6.87-7.21-10.42-4.58-7.09-8.76-14.48-14.38-20.81a357.54,357.54,0,0,0-34.75-36.79,37.54,37.54,0,0,0-10.24-7.32,20.64,20.64,0,0,0-12.35-1.47A40,40,0,0,0,182.15,55C178.45,57.07,174.9,59.37,171.21,61.42Z"/></svg>