<svg id="Layer_1" data-name="Layer 1" xmlns="http://www.w3.org/2000/svg" viewBox="0 0 600 600"><title>Zimbabwe</title><path d="M127.47,229.5a50.86,50.86,0,0,0,12.08.16,65.76,65.76,0,0,0,11.72-2.45,55.73,55.73,0,0,0,10.89-4.66,68.79,68.79,0,0,0,9.75-6.82,101.19,101.19,0,0,0,8.68-8.28c2.7-3,5.37-6,7.92-9.1s5.09-6.27,7.58-9.46,4.95-6.42,7.5-9.61,5.14-6.37,7.89-9.45,5.65-6,8.7-8.92a91.52,91.52,0,0,1,20.76-14.71A79.66,79.66,0,0,1,253,141.3c2.08-.66,4.24-1.22,6.31-1.69l6-1.29a35.72,35.72,0,0,0,9.84-3.41,14.34,14.34,0,0,0,5.75-6,30.3,30.3,0,0,0,2.8-9.19c.59-3.52.89-7.41,1.36-11.56a85,85,0,0,1,2.37-13.44,44.83,44.83,0,0,1,2.69-7.33c.56-1.19,1.15-2.38,1.82-3.52s1.35-2.25,2.07-3.35,1.51-2.12,2.3-3.17,1.65-2,2.53-2.93,1.75-1.88,2.68-2.75,1.86-1.74,2.82-2.55a69.34,69.34,0,0,1,12.45-8.23c2.18-1.14,4.43-2.12,6.7-3.06s4.48-1.7,6.73-2.39a107.44,107.44,0,0,1,13.39-3.29c4.4-.77,8.73-1.37,12.94-1.73,2.11-.2,4.19-.37,6.24-.47l3-.17c1-.05,2-.13,3.07-.16,2.2-.08,4.62-.13,7.26,0a45.6,45.6,0,0,1,8.68,1.16,30.44,30.44,0,0,1,10.39,4.47,23.61,23.61,0,0,1,5,4.59,22.71,22.71,0,0,1,3.36,5.64,23.58,23.58,0,0,1,1.49,5.25,24.5,24.5,0,0,1,.36,4.28,40.61,40.61,0,0,1-.47,6.08c-.23,1.6-.39,2.76-.48,3.72a5.06,5.06,0,0,0,0,1.35l.07.32.21.42a8.11,8.11,0,0,0,.45.83A6.24,6.24,0,0,0,407.57,90a5,5,0,0,0,1.62.56,7.41,7.41,0,0,0,2,.16c2.94,0,6.5-1.3,10.47-2.84,2-.78,4.17-1.6,6.6-2.33,1.22-.37,2.55-.65,3.86-.92s2.63-.42,3.94-.52a44.83,44.83,0,0,1,15,1.15,63.55,63.55,0,0,1,12.21,4.52l.68.32c.22.09.48.22.61.29l1,.48,1.08.49c.4.15.78.32,1.17.5l1.25.54,1.32.54,2.81,1.21a57.51,57.51,0,0,1,12.8,7.25,36.33,36.33,0,0,1,3.19,2.83,25.72,25.72,0,0,1,2.86,3.36,52.47,52.47,0,0,1,3.58,6,37.26,37.26,0,0,0,2.56,4.35,11.59,11.59,0,0,0,1.21,1.45,8.12,8.12,0,0,0,1.47,1.08A15.36,15.36,0,0,0,505.2,122a33.91,33.91,0,0,0,5.72.82c2.09.13,4.36,0,7,.07l2,.07,1.83,0,3.54.07c4.7,0,9.08.87,13.93,1.33,2.4.29,4.91.53,7.48,1,1.3.22,2.61.52,3.94.87a33.44,33.44,0,0,1,4.13,1.39,30.69,30.69,0,0,1,4.4,2.3,28.1,28.1,0,0,1,5,4.16c.47.51,1,1.06,1.4,1.61.22.26.47.6.72,1l.72,1.06a21.6,21.6,0,0,1,1.46,2.53,26,26,0,0,1,1.15,2.53,31.42,31.42,0,0,1,2,8.37,30.47,30.47,0,0,1,.07,5.43c0,.69-.13,1.16-.19,1.62s-.16.94-.25,1.4c-.42,1.88-.94,3.77-1.46,5.68-1.09,3.81-1.63,7.71-2.81,11.65s-2.48,7.94-3.53,12a52.53,52.53,0,0,0-1.81,12.17q-.12,6.12-.11,12.29V226q0,6.28,0,12.48t-.07,12.33l-.07,6.09v.75c0,.25,0,.54,0,.7v1.12c0,.78,0,1.56.11,2.4.1,1.67.27,3.45.46,5.37s.33,4,.47,6.17.19,4.52.12,7c0,1.25-.11,2.51-.24,3.82,0,.65-.12,1.3-.21,2s-.14,1.22-.32,2.19A31.77,31.77,0,0,1,558,298.66a25.08,25.08,0,0,1-6.2,7.21c-4.26,3.4-7.75,4.11-10.33,5.31a9.45,9.45,0,0,0-3.39,2.25,7.25,7.25,0,0,0-1.13,1.71l-.23.49-.19.53c-.13.35-.2.74-.3,1.12a31,31,0,0,0,.47,10.3,56.21,56.21,0,0,0,3.3,10.63,79.39,79.39,0,0,0,5.13,10c1,1.58,2,3.12,3,4.53l.83,1.2c.3.42.59.87.87,1.31.58.89,1.17,1.81,1.75,2.75a51.66,51.66,0,0,1,6.26,13.62,35,35,0,0,1,1.26,9.41,30.25,30.25,0,0,1-2,10.62,28.59,28.59,0,0,1-5.52,8.91,31.5,31.5,0,0,1-3.42,3.26c-.59.46-1.18,1-1.77,1.36l-.9.61c-.29.19-.64.42-.83.52-3.6,2.12-7.27,3.88-10.62,5.82s-6.4,4-9.36,6a48.12,48.12,0,0,0-8.2,6.68,24.47,24.47,0,0,0-5.21,9l-2.1,6.05a51.93,51.93,0,0,0-1.7,5.61c-.91,3.5-.8,6.44,0,8.33a34.44,34.44,0,0,1,1.52,5.2,29.36,29.36,0,0,1,.58,4.55,27.72,27.72,0,0,1-.34,5.44,31.91,31.91,0,0,1-3.57,10.25,43.58,43.58,0,0,1-5.63,7.91c-4,4.5-8.51,7.07-12.52,9.29-2,1.06-4,2.05-5.84,2.89l-2.6,1.2c-.82.36-1.64.72-2.45,1.11a105,105,0,0,0-9.57,5c-1.56.91-3.06,1.92-4.56,2.94a20.64,20.64,0,0,0-4.11,3.54c-2.4,2.75-4.64,5.63-6.74,8.55-1.05,1.47-2.06,3-3,4.47l-3,4.84a94.35,94.35,0,0,1-8.39,11.62,55.78,55.78,0,0,1-6.45,6.39,45.89,45.89,0,0,1-9.09,5.91,43.72,43.72,0,0,1-11.75,3.86,45.93,45.93,0,0,1-12,.56,35.39,35.39,0,0,1-9.28-2.46c-2.6-1-4.78-2-6.64-2.93l-4.63-2.28c-1.27-.64-2.59-1.21-3.94-1.74A56.79,56.79,0,0,0,356,546.23c-2.92-.2-6.75,0-11.3.23a77,77,0,0,1-16.14-.66,44.46,44.46,0,0,1-9.33-2.61,50,50,0,0,1-7.3-3.83c-1.95-1.23-3.52-2.31-4.79-3.16-.64-.42-1.17-.77-1.7-1.09l-.87-.5-1-.48a72,72,0,0,0-10.18-3.57,88.78,88.78,0,0,1-13.36-4.85,35.53,35.53,0,0,1-7.52-4.76,24.09,24.09,0,0,1-6.1-7.84,38.46,38.46,0,0,1-2.47-7c-.5-1.91-.92-3.45-1.43-4.9a18.7,18.7,0,0,0-4.65-7.51,22.75,22.75,0,0,0-8.61-4.85,45,45,0,0,0-11.15-2.31,112.65,112.65,0,0,0-12.13.22c-2.08.14-4.19.21-6.36.26s-4.39.06-6.68-.05a46.21,46.21,0,0,1-7-.87c-1.2-.24-2.41-.55-3.62-.91s-2.41-.84-3.6-1.36a30.39,30.39,0,0,1-6.81-4,34.66,34.66,0,0,1-5.66-5.43,40.72,40.72,0,0,1-4.32-6.36c-.58-1.12-1.18-2.24-1.66-3.39s-1-2.3-1.36-3.47a49.71,49.71,0,0,1-2.62-14.22,53,53,0,0,1,.15-7.21,54.76,54.76,0,0,1,1.13-7.08c1-4.52,2.45-8.64,3.41-12.12a22.75,22.75,0,0,0,.83-4.49,4.72,4.72,0,0,0-.41-2.49,4.5,4.5,0,0,0-1.93-1.94,12.44,12.44,0,0,0-4.22-1.24c-.82-.12-1.67-.21-2.54-.29-.23,0-.42,0-.67-.07-.4-.1-.8-.23-1.2-.35-.8-.24-1.6-.57-2.4-.9A21.59,21.59,0,0,1,164,406a23.2,23.2,0,0,1-3.58-3.64,30.69,30.69,0,0,1-4.33-7.92,32.08,32.08,0,0,1-1.16-3.76c-.32-1.22-.53-2.4-.72-3.56-.39-2.28-.54-4.45-.72-6.45s-.34-3.87-.54-5.52-.55-3.2-.78-4.67a35.76,35.76,0,0,0-.82-4,4.82,4.82,0,0,0-1.75-2.74,5.58,5.58,0,0,0-1.69-.75,11.59,11.59,0,0,0-2.25-.29,29.84,29.84,0,0,0-5.64.55c-2.07.38-4.35.9-6.78,1.33-1.22.22-2.48.42-3.78.56s-2.61.2-4,.22c-.34,0-.68,0-1,0s-.81-.08-1.21-.13a18.63,18.63,0,0,1-2.48-.43,25.5,25.5,0,0,1-4.74-1.54,26.71,26.71,0,0,1-7.76-5.17,50.4,50.4,0,0,1-5.43-6.3,85.27,85.27,0,0,1-7.28-12.13l-2.68-5.52c-.9-1.81-1.73-3.66-2.6-5.49-1.73-3.66-3.36-7.37-5-11.08L82.83,312l-2.35-5.62-4.67-11.28-2.31-5.65-1.16-2.82a21.53,21.53,0,0,0-1-2.31c-1.67-3.42-3.63-7.09-5.51-10.71C62,266.43,58.17,259,54.76,251.46a110.66,110.66,0,0,1-4.57-11.69,54.47,54.47,0,0,1-1.59-6.19,25.87,25.87,0,0,1-.52-6.56,12.72,12.72,0,0,1,2.08-6.66,10.9,10.9,0,0,1,5.67-4,17.4,17.4,0,0,1,6.53-.54,47.79,47.79,0,0,1,6.11,1.09l-.2,0a74.13,74.13,0,0,1,15.1,2.27c4.92,1.21,9.73,2.72,14.59,4.06s9.69,2.77,14.6,3.86A142,142,0,0,0,127.47,229.5Zm0,0a149.89,149.89,0,0,1-15-1.79c-5-.89-9.92-2.07-14.82-3.23S87.87,222,83,220.93a75.82,75.82,0,0,0-14.72-1.85h-.13l-.1,0a44.89,44.89,0,0,0-5.83-.92,14.43,14.43,0,0,0-5.55.56,8.45,8.45,0,0,0-4.24,3.14A9.77,9.77,0,0,0,51,227.05c0,3.82,1.14,7.69,2.55,11.39a91.5,91.5,0,0,0,5.18,10.81c3.89,7,8.33,13.75,12.89,20.4,2.27,3.33,4.6,6.62,6.84,10,.56.85,1.11,1.71,1.62,2.61l1.48,2.64,3,5.28,23.73,42.23a86.88,86.88,0,0,0,6.51,10.13,32.75,32.75,0,0,0,8.7,8.15,21.83,21.83,0,0,0,5.48,2.36,53.74,53.74,0,0,0,5.88,1.33c4,.7,8,.91,12,1.64a20.9,20.9,0,0,1,5.77,1.84,14.35,14.35,0,0,1,4.65,3.83,30.56,30.56,0,0,1,5,10.92c1,3.9,1.71,7.9,2.7,11.81s2.26,7.82,4.66,11.09a16,16,0,0,0,4.42,4.1c1.72,1,3.66,1.68,5.42,2.67a27.72,27.72,0,0,1,5.06,3.31,14.1,14.1,0,0,1,3.75,4.69,13.12,13.12,0,0,1,1.14,5.9,31,31,0,0,1-.83,6c-.87,3.94-2,7.84-2.6,11.83a46.67,46.67,0,0,0-.6,6,50.9,50.9,0,0,0,.2,6.05,49.14,49.14,0,0,0,2.55,11.8,43.28,43.28,0,0,0,2.41,5.55,36.68,36.68,0,0,0,3.28,5.08,30.86,30.86,0,0,0,4.13,4.42,27.62,27.62,0,0,0,4.91,3.52,37.7,37.7,0,0,0,11.37,4,86.71,86.71,0,0,0,12,1.36c8.05.46,16.19.31,24.11,2a31.41,31.41,0,0,1,11.13,4.57,25.76,25.76,0,0,1,8,9,50.46,50.46,0,0,1,2.51,5.5,42.73,42.73,0,0,0,2.51,5.51,14.57,14.57,0,0,0,4,4.48,22.3,22.3,0,0,0,5.35,2.78c7.6,2.85,15.82,3.17,23.57,5.46,3.91,1.07,7.49,3,11.1,4.79a43.32,43.32,0,0,0,5.57,2.37,27.15,27.15,0,0,0,5.92,1.19c8.11.7,16-1.59,24.05-2.37a76.36,76.36,0,0,1,24.07,1.47,92.06,92.06,0,0,1,11.59,3.51,62.69,62.69,0,0,0,11.63,3.3,24.34,24.34,0,0,0,6,.17,22,22,0,0,0,5.86-1.46,34,34,0,0,0,10.05-6.63,117.06,117.06,0,0,0,8.38-8.73c2.68-3,5.42-6,8.32-8.81a138,138,0,0,1,18.73-15.29q5-3.41,10.31-6.36c3.52-2,7.17-3.71,10.7-5.66a54.84,54.84,0,0,0,10-6.77,20.11,20.11,0,0,0,6.52-10,18.69,18.69,0,0,0,.44-6c-.12-2-.38-4-.37-6a30.84,30.84,0,0,1,2.87-11.69c1.6-3.7,3.42-7.31,4.87-11.08a55.7,55.7,0,0,1,5.68-10.67c4.55-6.7,10.61-12.2,16.88-17.25,3.14-2.54,6.35-5,9.52-7.48a22.79,22.79,0,0,0,7.51-9.31,20.18,20.18,0,0,0,.74-11.91,56.93,56.93,0,0,0-4-11.41c-.82-1.84-1.69-3.67-2.55-5.49s-1.62-3.7-2.34-5.58a113.71,113.71,0,0,1-3.73-11.52,94,94,0,0,1-2.4-11.86,49.84,49.84,0,0,1-.26-12.08,24.79,24.79,0,0,1,1.38-5.88,22.73,22.73,0,0,1,2.93-5.28c2.41-3.26,5.57-5.84,8.34-8.77a24.35,24.35,0,0,0,3.64-4.81,17.44,17.44,0,0,0,2-5.69,63.34,63.34,0,0,0,.48-12.08c-.14-4-.44-8.06-.42-12.1,0-2,.1-4,.28-6l.5-6c.64-8.05,1.24-16.1,1.53-24.17s.17-16.15,0-24.22-.39-16.14-.46-24.22c0-4,0-8.07,0-12.11,0-2,.07-4,.14-6.05s.21-4,.06-6a12.42,12.42,0,0,0-.58-3,9.15,9.15,0,0,0-1.49-2.61,24.93,24.93,0,0,0-4.43-4.09A74.52,74.52,0,0,0,532.74,137c-3.59-1.85-7.27-3.52-11-5a55.17,55.17,0,0,0-5.71-2,52.36,52.36,0,0,0-5.95-1.11c-4-.58-8.06-1-11.79-2.61a15.78,15.78,0,0,1-5-3.39,40.06,40.06,0,0,1-3.89-4.63,55.48,55.48,0,0,0-3.8-4.71,20.4,20.4,0,0,0-4.7-3.77,50.86,50.86,0,0,0-11.18-4.55,92.51,92.51,0,0,1-11.43-4c-3.71-1.6-7.41-3.22-11.22-4.55a47.17,47.17,0,0,0-11.78-2.63,31.16,31.16,0,0,0-6,.1,56.62,56.62,0,0,0-5.95,1.09c-3.94.87-7.86,2-11.91,2.12a17.34,17.34,0,0,1-6-.75,15.35,15.35,0,0,1-5.25-3A19.66,19.66,0,0,1,398,91.52,13.68,13.68,0,0,1,396.35,89a22.35,22.35,0,0,1-1.92-5.73c-.85-3.93-1.05-8.08-2.86-11.71a11.12,11.12,0,0,0-4-4.42A16.43,16.43,0,0,0,382,65a47.17,47.17,0,0,0-12.05-.36c-8.05.58-16.12,1.07-24.1,2.28A103.71,103.71,0,0,0,334,69.34a68.59,68.59,0,0,0-11.38,4.08,51.46,51.46,0,0,0-19,14.56,38.81,38.81,0,0,0-5.86,10.52,83.88,83.88,0,0,0-3.15,11.68c-.85,3.94-1.6,7.91-2.68,11.81a38.3,38.3,0,0,1-4.77,11.09,22.35,22.35,0,0,1-9.06,7.85,46.4,46.4,0,0,1-11.6,3.39c-4,.75-8,1.39-11.83,2.53a71.46,71.46,0,0,0-11.3,4.31,96.43,96.43,0,0,0-20.11,13.35,195.94,195.94,0,0,0-17.34,16.88c-5.49,5.92-10.79,12-16.2,18s-10.86,12-17.06,17.18a55.18,55.18,0,0,1-21.1,11.53C143.7,230.27,135.48,230.34,127.47,229.54Z"/></svg>